<svg width="82" height="23" viewBox="0 0 82 23" fill="none" xmlns="http://www.w3.org/2000/svg">
<path d="M31.5479 11.1345C31.6934 11.2041 31.8041 11.2294 31.9179 11.2547C32.7909 11.4445 33.2811 12.0328 33.5057 12.8488C33.7587 13.7723 33.6543 14.6674 33.1135 15.4771C32.677 16.1287 32.0982 16.5873 31.2917 16.7106C30.7287 16.796 30.1626 16.8498 29.6027 16.9289C29.2801 16.9731 28.9575 16.9668 28.6317 16.9668C26.7593 16.9668 24.8869 16.9668 23.0145 16.9668C22.6919 16.9668 22.6887 16.9668 22.6887 16.6474C22.6887 13.0322 22.6887 9.41708 22.6887 5.80194C22.6887 5.76715 22.6887 5.72919 22.6887 5.6944C22.6982 5.53309 22.7203 5.51095 22.8817 5.50146C22.9259 5.50146 22.9671 5.50146 23.0113 5.50146C25.1304 5.50146 27.2464 5.50146 29.3655 5.50146C30.0265 5.50146 30.6433 5.68175 31.2189 6.00752C31.6238 6.23525 31.997 6.50093 32.3165 6.83935C32.7308 7.27583 32.9838 7.78821 33.0408 8.39548C33.0819 8.86042 33.0471 9.31587 32.8636 9.74918C32.6612 10.2204 32.3354 10.6032 31.9432 10.9321C31.8389 11.0207 31.7155 11.0776 31.551 11.1408L31.5479 11.1345ZM27.4488 14.7465C27.7872 14.7465 28.1257 14.7433 28.4641 14.7465C28.7709 14.7465 29.065 14.6832 29.3497 14.5789C29.8241 14.4112 30.0645 14.0096 30.0708 13.5288C30.0772 13.0702 29.8431 12.6875 29.3529 12.504C29.0714 12.3997 28.7804 12.3554 28.4862 12.3491C27.7588 12.3332 27.0313 12.3396 26.3039 12.3364C26.0856 12.3364 26.0667 12.3554 26.0667 12.5673C26.0667 13.2157 26.0667 13.8641 26.0667 14.5124C26.0667 14.7244 26.0888 14.7465 26.3039 14.7465C26.6866 14.7465 27.0661 14.7465 27.4488 14.7465ZM27.2432 7.88626V7.87993C26.8827 7.87993 26.5221 7.87993 26.1647 7.87993C25.9623 7.87993 25.9433 7.89891 25.9433 8.1045C25.9433 8.70228 25.9433 9.30006 25.9433 9.89467C25.9433 10.1003 25.956 10.1097 26.1679 10.1097C26.772 10.1097 27.3761 10.1192 27.9802 10.1066C28.2648 10.1003 28.5527 10.0655 28.831 9.9864C29.2516 9.86621 29.4825 9.58788 29.5774 9.17671C29.666 8.79084 29.4572 8.23734 29.0302 8.06338C28.7646 7.95584 28.4957 7.89259 28.2142 7.88626C27.8916 7.87677 27.5658 7.88626 27.2432 7.88626Z" fill="black"/>
<path d="M10.828 0.608504C12.1817 0.586364 13.4469 0.814089 14.6646 1.26322C15.6609 1.63011 16.5908 2.12984 17.4416 2.78139C18.5517 3.6322 19.4753 4.65064 20.2154 5.83354C20.7657 6.71282 21.1579 7.65851 21.4426 8.65481C21.7431 9.71121 21.8759 10.7834 21.8348 11.8778C21.8063 12.6906 21.6798 13.494 21.471 14.2847C21.0441 15.8946 20.2628 17.3179 19.1906 18.5767C18.0457 19.9178 16.6667 20.9394 15.0283 21.6162C14.3103 21.9104 13.5734 22.1191 12.8175 22.2646C12.381 22.35 11.9382 22.4038 11.4891 22.4164C11.1317 22.4259 10.7711 22.4417 10.4137 22.4164C9.75266 22.3721 9.09795 22.2994 8.45272 22.1381C6.73213 21.7111 5.18865 20.9394 3.83811 19.7881C3.16759 19.2156 2.5793 18.5672 2.07324 17.8398C1.73165 17.3495 1.39639 16.8529 1.13071 16.3153C0.760654 15.5657 0.482322 14.7781 0.289388 13.9621C0.0901279 13.1239 -0.0142464 12.2763 0.0015679 11.416C0.020545 10.5304 0.118594 9.65428 0.349482 8.79082C0.536091 8.09815 0.789119 7.43711 1.09592 6.79189C1.54188 5.86201 2.11119 5.01753 2.79753 4.25528C3.80965 3.12298 5.02102 2.25952 6.38738 1.6048C7.32991 1.15252 8.32621 0.871021 9.35098 0.712878C9.85387 0.633806 10.3631 0.576875 10.8249 0.608504H10.828ZM10.8154 20.9615C16.0752 20.9805 20.2439 16.9478 20.3925 11.5678C20.3324 6.22258 16.1733 2.0824 10.9482 2.06658C5.75481 2.05077 1.42802 6.20676 1.48179 11.5615C1.53555 16.8593 5.66308 20.8603 10.8154 20.9615Z" fill="black"/>
<path d="M70.9697 11.5738C70.9697 9.72985 70.9697 7.8859 70.9697 6.04196C70.9697 5.81423 70.9887 5.79209 71.2133 5.79209C72.2222 5.79209 73.2312 5.79209 74.237 5.79209C74.4742 5.79209 74.4773 5.80474 74.4868 6.03247C74.5469 7.27864 74.5026 8.52164 74.5185 9.76781C74.5185 9.8026 74.5185 9.84055 74.5185 9.87534C74.5279 10.043 74.5438 10.0714 74.7051 10.0683C75.3534 10.0556 75.9987 10.0841 76.6471 10.0461C77.1626 10.0145 77.6845 10.0366 78.2032 10.0335C78.4183 10.0335 78.5258 9.92806 78.5258 9.7172C78.5258 9.19849 78.5479 8.67978 78.5195 8.16107C78.4815 7.46208 78.5005 6.76625 78.4942 6.06726C78.491 5.75098 78.4942 5.75098 78.801 5.75098C79.7656 5.75098 80.7303 5.75098 81.695 5.75414C81.7393 5.75414 81.7804 5.75414 81.8247 5.75414C81.9638 5.76679 81.986 5.78893 81.9986 5.92177C82.0018 5.97238 81.9986 6.02298 81.9986 6.07359C81.9986 9.73301 81.9986 13.3893 81.9986 17.0487C81.9986 17.0708 81.9986 17.093 81.9986 17.112C81.9923 17.3302 81.9796 17.3492 81.7646 17.3492C81.4103 17.3492 81.0592 17.346 80.705 17.346C80.0851 17.346 79.4652 17.346 78.8452 17.346C78.782 17.346 78.7156 17.346 78.6523 17.346C78.5448 17.346 78.4973 17.2859 78.491 17.1815C78.491 17.1088 78.4878 17.0361 78.4878 16.9665C78.4878 15.6634 78.4878 14.3603 78.4878 13.0572C78.4878 13.0002 78.4878 12.9433 78.4878 12.8832C78.4815 12.7124 78.4657 12.6871 78.3012 12.6903C77.7825 12.6966 77.267 12.6745 76.7483 12.7156C76.3244 12.7472 75.8975 12.7251 75.4736 12.7251C75.2301 12.7251 74.9834 12.7251 74.7399 12.7251C74.4837 12.7251 74.4805 12.7314 74.4805 12.9971C74.4805 14.1863 74.4805 15.3724 74.4805 16.5616C74.4805 16.764 74.4805 16.9665 74.4805 17.1657C74.4773 17.365 74.4552 17.3871 74.2528 17.3903C73.8005 17.3935 73.345 17.3903 72.8927 17.3903C72.3677 17.3903 71.8427 17.3903 71.3145 17.3903C71.2512 17.3903 71.1848 17.3903 71.1215 17.384C71.0298 17.3776 70.976 17.3302 70.976 17.2321C70.976 17.1594 70.976 17.0867 70.976 17.0171C70.976 15.2016 70.976 13.3893 70.976 11.5738H70.9697Z" fill="black"/>
<path d="M40.6284 5.36256C41.2515 5.3499 41.9441 5.4353 42.6242 5.60926C43.437 5.81484 44.1803 6.17541 44.8129 6.73207C45.5719 7.4026 46.078 8.23759 46.3405 9.21492C46.5809 10.1068 46.641 11.0114 46.5746 11.9318C46.5303 12.5391 46.4544 13.1337 46.2741 13.7157C45.9926 14.6234 45.5055 15.3983 44.7844 16.0245C44.2088 16.5243 43.554 16.8627 42.8234 17.0778C41.9631 17.334 41.0807 17.3751 40.1951 17.3466C39.5119 17.3245 38.8319 17.2422 38.174 17.0398C37.5193 16.8406 36.9215 16.5369 36.3965 16.091C35.9063 15.6766 35.5109 15.1864 35.2009 14.6297C34.8846 14.0604 34.6822 13.4468 34.5747 12.8016C34.5051 12.3809 34.464 11.9571 34.4608 11.5365C34.4513 10.3124 34.619 9.12319 35.2326 8.03517C35.5299 7.51014 35.9157 7.05785 36.3775 6.66882C37.2188 5.9635 38.2057 5.59661 39.281 5.44795C39.7017 5.38786 40.1255 5.36256 40.6284 5.36256ZM43.2662 11.3404C43.2947 10.7995 43.2283 10.2555 43.0258 9.7273C42.9151 9.43948 42.7412 9.19594 42.523 8.98086C41.9347 8.41155 41.1914 8.2629 40.4165 8.25024C40.1476 8.24708 39.8725 8.2882 39.6068 8.35462C38.7939 8.5602 38.2057 9.02831 37.9368 9.82851C37.6142 10.7869 37.6237 11.7673 37.8577 12.7478C38.0823 13.6777 38.6927 14.247 39.6068 14.4684C40.369 14.6519 41.1345 14.6171 41.8714 14.3103C42.4502 14.0699 42.8456 13.6587 43.0417 13.061C43.2251 12.5075 43.2947 11.9381 43.2662 11.3372V11.3404Z" fill="black"/>
<path d="M52.6093 17.4416C51.9988 17.47 51.3757 17.4004 50.7621 17.2708C49.9746 17.1031 49.2376 16.8058 48.564 16.3535C48.1591 16.0847 47.8144 15.7526 47.4601 15.4237C47.3905 15.3572 47.4 15.313 47.4664 15.2465C47.9883 14.7531 48.507 14.2534 49.0289 13.7568C49.2029 13.5924 49.206 13.5892 49.4021 13.7125C50.0695 14.1332 50.7811 14.4558 51.5276 14.7057C52.2613 14.9524 53.0109 14.9903 53.7637 14.8227C54.2951 14.7057 54.5765 14.1585 54.3804 13.6493C54.2603 13.3362 54.0515 13.1084 53.7099 13.0325C53.2165 12.925 52.7231 12.8238 52.2297 12.7226C51.0405 12.4822 49.9145 12.1027 48.915 11.3815C47.3874 10.2808 47.4285 8.41476 48.1117 7.34572C48.4754 6.7764 48.953 6.34942 49.5634 6.07108C49.7595 5.98252 49.9556 5.88764 50.1517 5.80224C50.7463 5.54289 51.3631 5.40372 52.0083 5.34995C52.9002 5.27404 53.7763 5.34995 54.6335 5.59666C54.9181 5.67573 55.1901 5.79592 55.4495 5.93824C55.9872 6.23239 56.4964 6.56765 56.9835 6.94403C57.0183 6.96934 57.0531 6.99464 57.0847 7.0231C57.1891 7.11799 57.1922 7.15278 57.091 7.25083C56.819 7.51651 56.5407 7.77903 56.2655 8.04471C55.9872 8.31355 55.7057 8.58239 55.4274 8.8544C55.1996 9.0758 55.1743 9.08845 54.9466 8.86389C54.4216 8.34202 53.7763 8.0542 53.0647 7.91187C52.6693 7.8328 52.2582 7.85494 51.8597 7.90238C51.5876 7.93401 51.3346 8.0542 51.1448 8.27243C50.9994 8.44007 50.9361 8.62984 50.9677 8.85124C50.9772 8.92082 50.9962 8.99357 50.9962 9.06631C50.9962 9.37311 51.1638 9.56288 51.4169 9.68939C51.6414 9.80326 51.8818 9.87917 52.1317 9.93293C52.9983 10.1164 53.8649 10.2903 54.7284 10.4801C55.1016 10.5623 55.459 10.692 55.7942 10.885C55.9998 11.0051 56.2181 11.0937 56.4205 11.2202C56.6451 11.3625 56.8253 11.5397 56.9645 11.7642C57.2207 12.1817 57.4642 12.6119 57.5623 13.0958C57.6888 13.7031 57.6224 14.3072 57.3978 14.8796C56.8886 16.1859 55.9397 16.9956 54.5639 17.2771C53.9218 17.4068 53.2671 17.451 52.5903 17.4321L52.6093 17.4416Z" fill="black"/>
<path d="M64.9633 17.5743C64.4414 17.5743 63.9733 17.5901 63.5115 17.4889C62.803 17.3339 62.1262 17.0935 61.4999 16.7266C61.0951 16.4894 60.7187 16.2111 60.3866 15.879C59.403 14.9048 58.7894 13.7346 58.5901 12.3682C58.4193 11.1885 58.5363 10.0245 58.9918 8.91438C59.1942 8.41781 59.4852 7.97501 59.8363 7.567C60.1968 7.1495 60.6049 6.78578 61.0508 6.47265C61.7751 5.9666 62.5753 5.64082 63.4514 5.49849C64.337 5.35616 65.2131 5.41942 66.0924 5.56491C66.6807 5.66296 67.2405 5.83692 67.7624 6.12474C68.0724 6.29553 68.357 6.50428 68.6385 6.71619C69.0655 7.03564 69.4703 7.38039 69.7993 7.80738C69.9195 7.96236 69.9195 7.98134 69.7487 8.08255C69.0022 8.51586 68.2621 8.96182 67.522 9.40462C67.1741 9.61021 67.25 9.60704 66.9622 9.37299C66.6554 9.12313 66.3549 8.86694 66.0576 8.60442C65.7508 8.33241 65.3776 8.23436 64.9854 8.20274C64.4382 8.16162 63.9322 8.30711 63.4483 8.55381C63.0434 8.7594 62.7018 9.03773 62.4456 9.41727C62.3349 9.58174 62.2559 9.75886 62.2053 9.94547C61.9617 10.8279 61.889 11.7167 62.123 12.6118C62.2907 13.2538 62.6512 13.7883 63.113 14.2564C63.3787 14.5253 63.7171 14.6392 64.0777 14.6961C64.7735 14.8099 65.4598 14.7245 66.1209 14.5063C66.5795 14.3577 66.978 14.1015 67.2722 13.7029C67.3797 13.5575 67.386 13.5543 67.5473 13.6618C67.8889 13.8864 68.2305 14.1141 68.5721 14.345C68.9232 14.5822 69.2743 14.8258 69.6222 15.063C69.7708 15.1642 69.7771 15.1768 69.6823 15.3381C69.3312 15.9233 68.8631 16.3945 68.2938 16.7646C67.6043 17.2137 66.8357 17.4288 66.026 17.5363C65.6528 17.5869 65.2796 17.5616 64.9601 17.5743H64.9633Z" fill="black"/>
<path d="M10.7869 14.8952C9.37624 14.8952 7.96244 14.8952 6.55181 14.8952C6.51702 14.8952 6.47906 14.8952 6.44427 14.8952C6.25766 14.9015 6.24501 14.911 6.24185 15.0881C6.24185 15.2114 6.24185 15.3316 6.24185 15.455C6.24185 16.1476 6.24185 16.8371 6.24185 17.5298C6.24185 17.5867 6.24185 17.6468 6.23868 17.7038C6.22603 17.8145 6.19124 17.8334 6.09952 17.7734C5.98566 17.7006 5.87496 17.6184 5.76426 17.5361C4.84703 16.8435 4.09427 15.999 3.48383 15.0248C2.95564 14.1835 2.68679 13.2631 2.58558 12.2795C2.50019 11.4476 2.52865 10.6253 2.71842 9.81244C2.86391 9.18619 3.0695 8.58209 3.40793 8.02859C3.65147 7.62691 3.9045 7.23787 4.19864 6.87098C4.55921 6.41869 4.96089 6.01069 5.42267 5.65961C5.6409 5.49198 5.85598 5.32751 6.07422 5.15988C6.11217 5.13141 6.15012 5.08081 6.20389 5.11243C6.24817 5.13774 6.23868 5.18834 6.24185 5.22946C6.24185 5.40342 6.24185 5.57421 6.24185 5.74817C6.24185 6.52623 6.24185 7.30429 6.24185 8.08236C6.24185 8.39232 6.24185 8.39548 6.54864 8.39548C8.67408 8.39548 10.7964 8.39548 12.9218 8.39548C13.6208 8.39548 14.3198 8.39548 15.0188 8.39548C15.082 8.39548 15.1485 8.39548 15.2117 8.39232C15.2876 8.38915 15.3319 8.34804 15.3319 8.26897C15.3319 8.20571 15.3319 8.13929 15.3319 8.07603C15.3319 7.1335 15.3319 6.19097 15.3319 5.24527C15.3319 5.16304 15.2939 5.05234 15.3825 5.01122C15.4616 4.97327 15.5217 5.06815 15.5849 5.10927C15.8886 5.30537 16.1732 5.52361 16.461 5.74184C17.5048 6.53888 18.2702 7.551 18.7509 8.7687C19.0419 9.50881 19.2032 10.2837 19.2507 11.0807C19.3045 11.96 19.1843 12.8203 18.9281 13.6585C18.6877 14.4492 18.2987 15.1672 17.8021 15.8345C17.3308 16.4639 16.7647 16.989 16.1258 17.4381C15.9423 17.5678 15.7652 17.7038 15.5849 17.8334C15.5375 17.8682 15.49 17.8999 15.4394 17.9252C15.392 17.9473 15.3509 17.9283 15.3446 17.8746C15.3351 17.8113 15.3351 17.7449 15.3351 17.6816C15.3351 16.8593 15.3351 16.0401 15.3351 15.2178C15.3351 15.1608 15.3351 15.1039 15.3351 15.0438C15.3351 14.9489 15.2971 14.8952 15.1959 14.8952C15.1453 14.8952 15.0947 14.8952 15.0441 14.8952C13.624 14.8952 12.207 14.8952 10.7869 14.8952ZM10.7173 9.71123C9.3288 9.71123 7.93714 9.71123 6.54864 9.71123C6.48539 9.71123 6.41897 9.71123 6.35571 9.71439C6.28929 9.71755 6.24817 9.75551 6.24501 9.82193C6.24501 9.86621 6.24185 9.90733 6.24185 9.95161C6.24185 11.0807 6.24185 12.213 6.24185 13.3422C6.24185 13.377 6.24185 13.4149 6.24185 13.4497C6.24185 13.5256 6.28296 13.5699 6.35887 13.5762C6.40315 13.5794 6.44427 13.5794 6.48855 13.5794C9.30982 13.5794 12.1343 13.5794 14.9555 13.5794C15.2022 13.5794 15.2149 13.5668 15.2149 13.3232C15.2149 12.2004 15.2149 11.0776 15.2149 9.95477C15.2149 9.72072 15.2054 9.71123 14.9713 9.70807C14.9207 9.70807 14.8701 9.70807 14.8195 9.70807C13.45 9.70807 12.0836 9.70807 10.7141 9.70807L10.7173 9.71123ZM16.6603 15.0596C16.6603 15.0596 16.6888 15.0691 16.7046 15.0723C16.9924 14.6611 17.2897 14.2626 17.4795 13.785C17.723 13.1714 17.8843 12.542 17.9318 11.8841C17.995 10.9574 17.8527 10.0623 17.5048 9.20201C17.4131 8.97428 17.3245 8.74656 17.1822 8.54413C17.0462 8.3512 16.9133 8.15194 16.7773 7.95901C16.752 7.92105 16.7425 7.86096 16.6635 7.86096V15.0596H16.6603ZM4.89447 14.7813C4.93242 14.7338 4.92926 14.6991 4.92926 14.6643C4.92926 12.504 4.92294 10.3438 4.91977 8.18357C4.91977 8.17724 4.91345 8.17092 4.91028 8.16459C4.90396 8.16143 4.89763 8.15827 4.89131 8.1551C3.59137 9.79663 3.45537 12.8488 4.89763 14.7813H4.89447Z" fill="black"/>
</svg>
