<svg width="84" height="20" viewBox="0 0 84 20" fill="none" xmlns="http://www.w3.org/2000/svg">
<path d="M30.3145 1.4873H34.9275V7.30293H39.4779V1.4873H44.091V18.1523H39.4779V11.899H34.9275V18.1523H30.3145V1.4873Z" fill="black"/>
<path d="M45.2837 1.4873H49.8968V13.8532H54.9806V18.1523C51.7482 18.1523 48.5158 18.1523 45.2837 18.1523V1.4873Z" fill="black"/>
<path d="M55.9221 1.4873C59.0289 1.4873 62.1356 1.4873 65.2424 1.4873V5.31744H60.5352V7.88132H65.2424V11.7115H60.5352V14.3222H65.2424V18.1523C62.1356 18.1523 59.0289 18.1523 55.9221 18.1523V1.4873Z" fill="black"/>
<path d="M66.2778 1.4873H70.8909C71.7434 1.50623 72.5923 1.56662 73.4328 1.72213C76.0688 2.28235 78.2029 5.11403 77.5125 7.8213C77.1988 9.40822 76.0376 10.6218 74.7508 11.5554C76.3541 13.7373 77.9212 15.9454 79.4895 18.1523H74.5313C73.2776 16.5454 72.0836 14.8793 70.8909 13.2405V18.1523H66.2778V1.4873ZM70.8909 5.33999V8.59155C71.6485 8.55765 72.5231 8.72193 73.0877 8.1325C73.7782 7.60336 73.7782 6.42101 73.1192 5.86091C72.5233 5.2998 71.6734 5.38331 70.8909 5.33999Z" fill="black"/>
<path d="M29.6557 9.66349C29.6557 4.87132 25.789 0.98584 21.0212 0.98584C16.2532 0.98584 12.3865 4.87132 12.3865 9.66349C12.3865 14.4557 16.2532 18.3412 21.0212 18.3412C25.789 18.3412 29.6557 14.4557 29.6557 9.66349ZM21.0212 5.39762C23.1556 5.39762 24.8866 7.30767 24.8866 9.66339C24.8866 12.0192 23.1556 13.9294 21.0212 13.9294C18.8867 13.9294 17.1557 12.0192 17.1557 9.66339C17.1557 7.30767 18.8867 5.39762 21.0212 5.39762Z" fill="black"/>
<path d="M14.8435 1.49416C12.6685 4.14823 10.4518 6.76914 8.2848 9.42897L15.8164 18.1523H9.72819L4.61293 12.1823V18.1523H0V1.4873H4.61293V6.40649L8.9849 1.49416H14.8435Z" fill="black"/>
<path d="M82.3031 15.7305C82.7717 15.7305 83.196 15.9198 83.5031 16.2257C83.8102 16.5315 84.0001 16.9544 84.0001 17.4212C84.0001 17.8881 83.8102 18.3109 83.5031 18.6168C83.196 18.9226 82.7717 19.1121 82.3031 19.1121C81.8345 19.1121 81.4101 18.9226 81.1032 18.6168C80.7961 18.3109 80.606 17.8881 80.606 17.4212C80.606 16.9544 80.7961 16.5315 81.1032 16.2257C81.4101 15.9198 81.8345 15.7305 82.3031 15.7305ZM83.2678 16.4602C83.0208 16.2142 82.6797 16.062 82.3031 16.062C81.9263 16.062 81.5852 16.2142 81.3385 16.4602C81.0915 16.7061 80.9389 17.046 80.9389 17.4212C80.9389 17.7966 81.0915 18.1364 81.3385 18.3824C81.5852 18.6282 81.9263 18.7805 82.3031 18.7805C82.6797 18.7805 83.0208 18.6282 83.2678 18.3824C83.5146 18.1364 83.6674 17.7966 83.6674 17.4212C83.6674 17.046 83.5146 16.7061 83.2678 16.4602Z" fill="black"/>
<path d="M83.0146 18.2784H82.6866L82.4192 17.5734H81.983V18.2784H81.6726V16.5635H82.4192C82.6267 16.5635 82.7796 16.6102 82.877 16.7038C82.9747 16.7969 83.0233 16.9177 83.0233 17.066C83.0233 17.2865 82.92 17.4379 82.7129 17.5207L83.0146 18.2784ZM81.983 17.326H82.369C82.4805 17.326 82.5638 17.3028 82.6187 17.2556C82.6732 17.2089 82.7004 17.1442 82.7004 17.0622C82.7004 16.9868 82.6737 16.9259 82.6199 16.8795C82.5662 16.8329 82.4908 16.8096 82.3941 16.8096H81.983V17.326Z" fill="black"/>
</svg>
