<svg width="219" height="96" viewBox="0 0 219 96" fill="none" xmlns="http://www.w3.org/2000/svg">
<path d="M109.439 72.2997C73.5291 72.2997 37.6091 72.2997 1.6991 72.2997C1.09243 72.2997 0.789062 71.9897 0.789062 71.3697C0.789062 68.6297 0.789062 65.8797 0.789062 63.1397C0.789062 62.6797 1.02575 62.4497 1.49908 62.4497C1.56908 62.4497 1.64906 62.4497 1.71906 62.4497C73.5491 62.4497 145.369 62.4497 217.199 62.4497C218.169 62.4497 218.109 62.3397 218.109 63.3697C218.109 66.0797 218.109 68.7997 218.109 71.5097C218.109 72.0364 217.846 72.2997 217.319 72.2997C181.869 72.2997 146.419 72.2997 110.979 72.2997C110.469 72.2997 109.959 72.2997 109.459 72.2997H109.439Z" fill="#030000"/>
<path d="M105.12 34.7493C105.15 40.6293 103.56 45.3593 100.17 49.4493C97.6596 52.4793 94.5196 54.6893 90.9296 56.2593C87.8596 57.5993 84.6396 58.3693 81.3096 58.6693C76.5996 59.1093 72.0296 58.5693 67.6396 56.8193C60.8796 54.1393 55.9196 49.5793 53.2396 42.7193C52.3996 40.5693 51.9596 38.3293 51.7996 36.0293C51.5096 31.7393 52.1996 27.6393 54.2196 23.8093C56.4596 19.5693 59.8496 16.5193 64.0796 14.3393C67.4996 12.5793 71.1496 11.5793 74.9796 11.2093C79.9796 10.7293 84.8996 11.1593 89.6696 12.7893C94.6296 14.4793 98.7196 17.3493 101.56 21.8293C103.27 24.5293 104.27 27.4893 104.77 30.6393C105.01 32.1893 105.15 33.7493 105.13 34.7293L105.12 34.7493ZM85.3096 35.3093C85.2396 32.7993 84.4196 30.8493 82.7196 29.2993C80.3596 27.1393 76.8196 26.9993 74.3496 29.0293C71.3196 31.5093 70.4896 36.3593 73.2896 39.8093C75.4896 42.5193 79.1496 42.8693 81.6696 41.4393C84.1096 40.0593 85.1496 37.8093 85.3096 35.3193V35.3093Z" fill="#030000"/>
<path d="M0.769531 34.7399C0.769531 27.4999 0.769531 20.2499 0.769531 13.0099C0.769531 12.5166 1.01625 12.2699 1.50958 12.2699C7.47958 12.2699 13.4496 12.2699 19.4196 12.2699C19.8862 12.2699 20.1196 12.5032 20.1196 12.9699C20.1196 13.6699 20.1196 14.3599 20.1196 15.0599C20.1196 15.3299 20.1996 15.4199 20.4496 15.2399C23.3396 13.0499 26.7495 12.2399 30.2195 11.5499C33.9895 10.7999 37.6095 11.1499 41.0995 12.7699C43.2695 13.7799 44.9496 15.3499 46.2996 17.2899C48.2296 20.0599 49.3696 23.1299 49.7596 26.4799C49.8196 27.0399 49.8395 27.6099 49.8395 28.1699C49.8395 37.6099 49.8395 47.0399 49.8395 56.4799C49.8395 56.5499 49.8395 56.6299 49.8395 56.6999C49.8895 57.1299 49.7195 57.2799 49.2695 57.2699C45.6795 57.2499 42.0996 57.2699 38.5096 57.2699C36.0796 57.2699 33.6596 57.2699 31.2296 57.2699C30.7296 57.2699 30.4796 57.0132 30.4796 56.4999C30.4796 48.9799 30.4796 41.4599 30.4796 33.9399C30.4796 32.6899 30.2695 31.5099 29.5995 30.4499C28.6095 28.8899 26.9596 28.2399 25.1896 28.7799C22.9496 29.4599 21.3796 30.9299 20.3796 33.0299C20.1396 33.5299 20.1196 34.0599 20.1196 34.5999C20.1196 41.8699 20.1196 49.1499 20.1196 56.4199C20.1196 56.5799 20.1196 56.7399 20.1196 56.8999C20.1196 57.1699 19.9995 57.2799 19.7195 57.2799C18.9895 57.2699 18.2696 57.2799 17.5396 57.2799C12.1696 57.2799 6.78956 57.2799 1.41956 57.2799C0.779556 57.2799 0.779541 57.2799 0.779541 56.6199C0.779541 49.3299 0.779541 42.0499 0.779541 34.7599L0.769531 34.7399Z" fill="#030000"/>
<path d="M203.72 38.0795C199.25 38.0795 194.77 38.0795 190.3 38.0795C189.66 38.0795 189.65 38.0995 189.89 38.6695C191.07 41.4895 193.21 43.2695 196.07 44.2195C198.21 44.9295 200.42 45.0395 202.65 44.8795C205.02 44.7095 207.39 44.4695 209.75 44.1595C212.07 43.8595 214.37 43.5095 216.68 43.1495C217.04 43.0895 217.4 43.0495 217.76 42.9895C218.01 42.9395 218.11 43.0495 218.11 43.2895C218.11 43.6495 218.11 44.0195 218.11 44.3795C218.11 47.0895 218.11 49.8095 218.11 52.5195C218.11 52.8095 218.07 53.0295 217.77 53.1995C213.51 55.4595 209.08 57.2995 204.38 58.4295C201.93 59.0195 199.45 59.3495 196.92 59.2495C192.14 59.0595 187.52 58.1495 183.24 55.9295C177.02 52.7095 172.91 47.7695 171.26 40.9095C170.65 38.3995 170.52 35.8395 170.66 33.2595C170.82 30.2195 171.41 27.2695 172.61 24.4695C175.25 18.3095 179.79 14.1995 186.15 12.0995C188.32 11.3795 190.56 10.9895 192.85 10.8595C196.57 10.6395 200.25 10.9195 203.85 11.9195C207.87 13.0495 211.19 15.2995 213.87 18.4595C215.23 20.0595 215.97 21.9895 216.55 23.9795C217.24 26.3695 217.6 28.8195 217.79 31.2995C217.91 32.9795 217.97 34.6595 217.94 36.3395C217.94 36.7895 217.88 37.2395 217.87 37.6895C217.87 37.9395 217.75 38.0595 217.5 38.0595C217.35 38.0595 217.21 38.0595 217.06 38.0595C212.62 38.0595 208.17 38.0595 203.73 38.0595L203.72 38.0795ZM195.67 30.9895C197.67 30.9895 199.67 30.9895 201.68 30.9895C202.01 30.9895 202.15 30.9495 202.08 30.5495C201.83 29.2395 201.43 27.9895 200.76 26.8395C199.51 24.7395 197.72 23.6395 195.21 23.8695C193.42 24.0395 191.96 24.7795 190.88 26.2195C189.96 27.4395 189.5 28.8495 189.27 30.3495C189.17 30.9595 189.18 30.9795 189.77 30.9795C191.74 30.9795 193.72 30.9795 195.69 30.9795L195.67 30.9895Z" fill="#030000"/>
<path d="M155.83 8.92963C155.83 11.6896 155.83 14.4496 155.83 17.1996C155.83 17.6396 155.94 17.7696 156.39 17.7696C160.27 17.7496 164.14 17.7696 168.02 17.7696C168.64 17.7696 168.64 17.7696 168.64 18.3996C168.64 22.0996 168.64 25.7996 168.64 29.4996C168.64 30.0796 168.64 30.0896 168.06 30.0896C164.21 30.0896 160.36 30.0896 156.51 30.0896C155.88 30.0896 155.88 30.0896 155.88 30.7096C155.88 33.3496 155.91 35.9897 155.87 38.6397C155.85 40.2697 156.62 41.3896 157.98 42.1196C160.09 43.2496 162.27 43.2096 164.46 42.3596C166.24 41.6696 167.79 40.5996 169.22 39.3396C169.33 39.2396 169.43 39.0396 169.61 39.1296C169.74 39.1996 169.68 39.3996 169.68 39.5396C169.68 44.3896 169.68 49.2396 169.68 54.0796C169.68 54.3696 169.63 54.5696 169.34 54.7096C165.71 56.4896 162.01 58.0896 158.08 59.0996C155.13 59.8596 152.2 59.5596 149.29 58.8996C146.14 58.1796 143.28 56.8496 140.81 54.7396C138.19 52.4996 136.36 49.7796 135.87 46.2996C135.8 45.7796 135.76 45.2596 135.76 44.7396C135.71 41.9396 135.72 39.1396 135.63 36.3396C135.57 34.4096 135.62 32.4796 135.52 30.5496C135.5 30.1796 135.35 30.0896 135.01 30.0896C133.06 30.0996 131.12 30.0896 129.17 30.0996C128.74 30.0996 128.59 29.9796 128.59 29.5396C128.61 27.1196 128.6 24.6896 128.59 22.2696C128.59 21.9496 128.69 21.7296 128.91 21.5096C132.83 17.6496 136.74 13.7796 140.66 9.90964C143.85 6.75964 147.06 3.61964 150.25 0.459643C150.52 0.199643 150.79 0.0696377 151.17 0.0796377C152.55 0.0996377 153.93 0.0996377 155.31 0.0796377C155.74 0.0796377 155.85 0.219641 155.85 0.629641C155.84 3.39964 155.85 6.16963 155.85 8.94963L155.83 8.92963Z" fill="#030000"/>
<path d="M126.9 28.7793C126.9 38.0393 126.9 47.2993 126.9 56.5593C126.9 57.026 126.673 57.2593 126.22 57.2593C119.98 57.2593 113.73 57.2593 107.49 57.2593C106.83 57.2593 106.83 57.2593 106.82 56.5793C106.82 52.3993 106.84 48.2193 106.79 44.0393C106.7 37.6693 106.79 31.2993 106.7 24.9193C106.62 18.7793 106.68 12.6393 106.61 6.4993C106.59 4.6393 106.57 2.78929 106.56 0.929291C106.56 0.299291 106.58 0.279297 107.18 0.279297C113.56 0.279297 119.93 0.279297 126.31 0.279297C126.9 0.279297 126.9 0.279292 126.9 0.899292C126.9 10.1893 126.9 19.4793 126.9 28.7693V28.7793Z" fill="#030000"/>
<path d="M206.8 81.2598V81.7298C206.8 86.0798 206.8 90.4398 206.8 94.7898C206.8 95.3998 206.8 95.3998 206.2 95.3998C205.69 95.3998 205.18 95.3898 204.68 95.3998C204.34 95.4098 204.22 95.2698 204.22 94.9398C204.23 93.6598 204.22 92.3898 204.22 91.1098C204.22 86.8698 204.22 82.6298 204.22 78.3998C204.22 77.7698 204.22 77.7698 204.84 77.7698C205.65 77.7698 206.47 77.7798 207.28 77.7698C207.6 77.7698 207.78 77.8798 207.93 78.1498C209.66 81.3098 211.39 84.4598 213.13 87.6098C213.81 88.8598 214.5 90.0998 215.18 91.3498C215.21 91.4098 215.26 91.4598 215.39 91.5098C215.39 91.3398 215.39 91.1798 215.39 91.0098C215.39 86.8598 215.39 82.7098 215.39 78.5598C215.39 78.0332 215.646 77.7698 216.16 77.7698C216.58 77.7698 217 77.7898 217.42 77.7698C217.85 77.7398 217.96 77.9198 217.96 78.3198C217.95 80.8898 217.96 83.4598 217.96 86.0298C217.96 88.9598 217.96 91.8898 217.96 94.8198C217.96 95.3998 217.96 95.4098 217.38 95.4098C216.65 95.4098 215.93 95.3898 215.2 95.4098C214.83 95.4198 214.63 95.2798 214.45 94.9598C212.48 91.3598 210.49 87.7598 208.51 84.1698C207.97 83.1898 207.43 82.2198 206.9 81.2398C206.87 81.2398 206.84 81.2498 206.81 81.2598H206.8Z" fill="#030000"/>
<path d="M172.24 86.5893C172.24 83.8493 172.24 81.0993 172.24 78.3593C172.24 77.7693 172.24 77.7693 172.81 77.7693C173.3 77.7693 173.799 77.7893 174.289 77.7693C174.689 77.7493 174.82 77.8993 174.81 78.2993C174.8 80.3593 174.81 82.4193 174.81 84.4793C174.81 84.8927 175.016 85.0993 175.43 85.0993C177.81 85.0993 180.19 85.0993 182.57 85.0993C183 85.0993 183.15 84.9893 183.14 84.5393C183.12 82.4793 183.13 80.4193 183.14 78.3593C183.14 77.7793 183.149 77.7693 183.719 77.7693C184.259 77.7693 184.79 77.7693 185.33 77.7693C185.61 77.7693 185.719 77.8793 185.709 78.1593C185.709 78.7393 185.709 79.3193 185.709 79.8993C185.709 84.8593 185.709 89.8293 185.709 94.7893C185.709 95.3993 185.709 95.3993 185.109 95.3993C184.649 95.3993 184.179 95.3993 183.719 95.3993C183.159 95.3993 183.14 95.3793 183.14 94.7993C183.14 92.5393 183.14 90.2693 183.14 88.0093C183.14 87.596 182.933 87.3894 182.519 87.3894C180.139 87.3894 177.76 87.3894 175.38 87.3894C174.94 87.3894 174.81 87.5094 174.81 87.9494C174.83 90.2394 174.82 92.5393 174.81 94.8293C174.81 95.3993 174.799 95.4093 174.219 95.4093C173.739 95.4093 173.259 95.3893 172.779 95.4093C172.359 95.4293 172.229 95.2793 172.229 94.8593C172.239 92.0993 172.229 89.3393 172.229 86.5893H172.24Z" fill="#030000"/>
<path d="M124.63 86.9998C124.49 87.1998 124.54 87.3598 124.54 87.5098C124.54 89.9298 124.54 92.3598 124.54 94.7798C124.54 95.3798 124.54 95.3898 123.93 95.3898C123.48 95.3898 123.03 95.3898 122.58 95.3898C121.97 95.3898 121.97 95.3898 121.97 94.7898C121.97 91.4198 121.97 88.0498 121.97 84.6898C121.97 82.5698 121.97 80.4498 121.97 78.3298C121.97 77.7598 121.97 77.7598 122.56 77.7598C123.04 77.7598 123.52 77.7798 124 77.7598C124.42 77.7398 124.56 77.8798 124.55 78.2998C124.53 80.4498 124.55 82.5998 124.55 84.7398V85.2398C124.77 85.2398 124.85 85.0798 124.95 84.9698C127.17 82.6898 129.39 80.4198 131.6 78.1298C131.87 77.8598 132.14 77.7398 132.52 77.7498C133.29 77.7698 134.06 77.7498 134.83 77.7598C134.98 77.7598 135.19 77.6698 135.26 77.8498C135.31 77.9898 135.12 78.0898 135.02 78.1798C132.61 80.5898 130.2 83.0098 127.78 85.4198C127.68 85.5198 127.58 85.6398 127.47 85.7298C127.19 85.9498 127.19 86.1198 127.45 86.3898C129.76 88.7798 132.07 91.1798 134.37 93.5698C134.83 94.0498 135.29 94.5298 135.75 95.0198C135.82 95.0998 135.95 95.1698 135.88 95.3098C135.82 95.4098 135.7 95.3898 135.6 95.3898C134.6 95.3898 133.6 95.3898 132.59 95.3898C132.32 95.3898 132.16 95.2398 132.01 95.0698C130.1 92.9698 128.18 90.8598 126.27 88.7598C125.74 88.1798 125.2 87.5898 124.65 86.9998H124.63Z" fill="#030000"/>
<path d="M152.329 83.48C152.329 85.09 152.349 86.7 152.329 88.31C152.319 89.46 152.159 90.59 151.749 91.68C151.019 93.64 149.659 94.92 147.609 95.43C146.189 95.79 144.759 95.8 143.339 95.43C140.839 94.8 139.449 93.09 138.889 90.64C138.699 89.83 138.619 89.01 138.619 88.18C138.619 84.9 138.619 81.62 138.619 78.34C138.619 77.75 138.619 77.75 139.229 77.74C139.689 77.74 140.159 77.76 140.619 77.74C141.049 77.71 141.199 77.86 141.189 78.3C141.169 80.98 141.189 83.67 141.189 86.35C141.189 87.26 141.159 88.18 141.269 89.09C141.439 90.44 141.749 91.73 142.909 92.61C145.199 94.35 148.649 93.19 149.409 90.43C149.669 89.5 149.749 88.54 149.749 87.59C149.759 84.5 149.749 81.41 149.749 78.32C149.749 77.75 149.749 77.75 150.339 77.75C150.819 77.75 151.299 77.77 151.779 77.75C152.189 77.73 152.339 77.87 152.329 78.29C152.309 80.02 152.329 81.74 152.329 83.47V83.48Z" fill="#030000"/>
<path d="M190.38 86.5495C190.38 83.8195 190.38 81.0895 190.38 78.3595C190.38 77.7795 190.39 77.7695 190.96 77.7695C193.89 77.7695 196.83 77.7695 199.76 77.7695C200.33 77.7695 200.33 77.7795 200.34 78.3595C200.34 78.7695 200.32 79.1695 200.34 79.5795C200.36 79.9595 200.21 80.0895 199.83 80.0795C197.83 80.0695 195.82 80.0795 193.82 80.0795C193.69 80.0795 193.56 80.0895 193.43 80.0795C193.08 80.0395 192.94 80.1596 192.94 80.5396C192.96 81.8996 192.96 83.2695 192.94 84.6295C192.94 84.9995 193.07 85.0995 193.42 85.0995C195.29 85.0895 197.17 85.0995 199.04 85.0995C199.64 85.0995 199.65 85.0995 199.65 85.7095C199.65 86.0895 199.62 86.4695 199.65 86.8395C199.69 87.2895 199.49 87.4095 199.07 87.3995C197.23 87.3795 195.38 87.3995 193.54 87.3995C192.95 87.3995 192.95 87.3996 192.95 88.0096C192.95 89.5096 192.95 90.9995 192.95 92.4995C192.95 92.9062 193.16 93.1095 193.58 93.1095C195.64 93.1095 197.7 93.1195 199.77 93.1095C200.21 93.1095 200.37 93.2495 200.34 93.6795C200.31 94.1095 200.32 94.5495 200.34 94.9895C200.34 95.2995 200.23 95.4395 199.91 95.4295C196.87 95.4295 193.84 95.4295 190.8 95.4295C190.39 95.4295 190.38 95.1896 190.38 94.8896C190.38 92.1196 190.38 89.3495 190.38 86.5695V86.5495Z" fill="#030000"/>
<path d="M165.189 95.6795C163.809 95.7295 162.449 95.4995 161.159 94.9895C158.819 94.0595 157.219 92.3996 156.409 90.0296C155.679 87.8996 155.599 85.7196 156.279 83.5696C157.359 80.1396 159.819 78.2595 163.279 77.6195C165.079 77.2795 166.859 77.4196 168.599 78.0296C168.949 78.1496 169.129 78.3095 169.079 78.7095C169.019 79.2295 169.009 79.7495 168.979 80.2695C168.959 80.7495 168.939 80.7695 168.519 80.5495C166.799 79.6795 165.009 79.5796 163.179 80.0696C160.649 80.7496 158.809 83.0196 158.609 85.6296C158.479 87.3196 158.659 88.9495 159.609 90.3995C161.139 92.7395 163.369 93.5995 166.099 93.3395C166.979 93.2495 167.849 93.0795 168.669 92.7095C168.909 92.5995 169.029 92.6596 169.049 92.9196C169.089 93.5396 169.119 94.1596 169.169 94.7896C169.189 95.1096 168.969 95.1695 168.739 95.2395C167.589 95.5795 166.419 95.7296 165.199 95.6996L165.189 95.6795Z" fill="#030000"/>
<path d="M211.77 0.0695801C214.4 -0.0304199 216.82 1.71957 217.5 4.14957C218.39 7.32957 216.05 10.7196 212.74 11.0996C210.73 11.3296 208.94 10.9196 207.55 9.37958C205.97 7.62958 205.61 5.58957 206.52 3.42957C207.42 1.27957 209.13 0.16957 211.47 0.0595703C211.57 0.0595703 211.67 0.0595703 211.77 0.0595703V0.0695801ZM216.53 5.58957C216.61 3.16957 214.57 0.929575 211.77 0.939575C209 0.939575 206.97 3.14958 206.96 5.48958C206.95 8.04958 209.13 10.2496 211.7 10.2596C214.4 10.2696 216.51 8.22957 216.53 5.57957V5.58957Z" fill="#030000"/>
<path d="M148.76 75.0998C148.76 75.9731 148.326 76.4098 147.46 76.4098C146.593 76.4098 146.2 76.0231 146.28 75.2498C146.28 74.8898 146.28 74.5198 146.28 74.1598C146.28 73.8898 146.38 73.7598 146.66 73.7598C147.23 73.7598 147.79 73.7698 148.36 73.7598C148.67 73.7598 148.77 73.8997 148.76 74.1797C148.76 74.4797 148.76 74.7898 148.76 75.0898V75.0998Z" fill="#030000"/>
<path d="M144.589 75.1093C144.589 76.4193 144.589 76.4193 143.299 76.4193C142.009 76.4193 142.209 76.5793 142.189 75.3193C142.189 74.9293 142.189 74.5393 142.189 74.1493C142.189 73.8993 142.299 73.7793 142.549 73.7793C143.099 73.7793 143.649 73.7793 144.199 73.7793C144.469 73.7793 144.599 73.8793 144.589 74.1593C144.579 74.4793 144.589 74.7993 144.589 75.1193V75.1093Z" fill="#030000"/>
<path d="M209.549 5.59948C209.549 4.69948 209.559 3.79947 209.549 2.89947C209.549 2.53947 209.669 2.40948 210.029 2.41948C210.869 2.43948 211.709 2.41947 212.549 2.42947C213.709 2.45947 214.359 2.99947 214.509 4.00947C214.639 4.87947 214.159 5.64948 213.289 5.84948C212.949 5.92948 212.979 6.05947 213.109 6.28947C213.499 6.97947 213.889 7.67948 214.269 8.37948C214.469 8.73948 214.429 8.77949 214.029 8.81949C213.559 8.86949 213.249 8.72948 213.029 8.26948C212.709 7.60948 212.319 6.96948 211.949 6.32948C211.749 5.97948 210.899 5.76947 210.569 5.97947C210.419 6.07947 210.449 6.22947 210.449 6.36947C210.449 7.03947 210.439 7.69947 210.449 8.36947C210.449 8.71947 210.289 8.81949 209.969 8.81949C209.659 8.81949 209.529 8.69948 209.529 8.37948C209.539 7.44948 209.529 6.51948 209.529 5.59948H209.549ZM211.749 3.44948C210.219 3.45948 210.489 3.13947 210.459 4.67947C210.459 4.70947 210.459 4.73948 210.459 4.76948C210.459 4.93948 210.539 5.03947 210.719 5.03947C211.439 5.01947 212.169 5.11949 212.889 4.95949C213.399 4.84949 213.579 4.62948 213.559 4.15948C213.539 3.72948 213.329 3.49948 212.829 3.44948C212.469 3.41948 212.109 3.44948 211.739 3.44948H211.749Z" fill="#030000"/>
</svg>
