<svg width="246" height="101" viewBox="0 0 246 101" fill="none" xmlns="http://www.w3.org/2000/svg">
<path d="M122.81 17.0494C149.51 17.0494 176.21 17.0495 202.91 17.0395C206.29 17.0395 209.63 17.3594 212.92 18.1494C219.42 19.7194 225.23 22.6595 230.31 26.9995C235.28 31.2495 239.08 36.3794 241.66 42.3994C243.43 46.5294 244.54 50.8394 244.89 55.3094C245.59 64.0394 243.8 72.2294 239.44 79.8394C237.32 83.5294 234.72 86.8594 231.58 89.7094C225.58 95.1594 218.62 98.7194 210.6 100.149C207.66 100.669 204.71 100.859 201.74 100.859C148.74 100.859 95.73 100.859 42.73 100.859C36.99 100.859 31.4299 99.8394 26.1399 97.5894C20.1899 95.0695 15.0499 91.3995 10.7799 86.5095C6.84991 82.0195 3.98987 76.9394 2.23987 71.2495C1.26987 68.0895 0.699873 64.8494 0.489873 61.5294C0.199873 56.9694 0.669941 52.5095 1.80994 48.0995C2.84994 44.1095 4.47991 40.3694 6.64991 36.8694C8.45991 33.9294 10.59 31.2494 13.08 28.8594C18.14 23.9894 24.0199 20.5294 30.7999 18.6094C34.6999 17.4994 38.67 17.0194 42.72 17.0294C69.42 17.0594 96.1199 17.0395 122.82 17.0395L122.81 17.0494ZM42.3799 75.1194C45.2799 75.0794 47.9899 74.3495 50.4899 72.8895C51.3799 72.3795 52.2 71.7694 52.97 71.0894C53.28 70.8194 53.4199 70.5095 53.07 70.1595C51.93 69.0195 50.7899 67.8695 49.6399 66.7295C49.3299 66.4195 49.0099 66.4195 48.6699 66.6995C48.5199 66.8295 48.3599 66.9494 48.1899 67.0594C44.9099 69.2494 41.4499 69.6994 37.8799 67.9294C34.2599 66.1294 32.35 63.0894 32.23 59.0594C32.13 55.7094 33.5499 52.9495 36.1899 50.9195C38.3899 49.2295 40.93 48.4995 43.73 48.9495C45.49 49.2295 47.0799 49.8994 48.4999 50.9894C49.1799 51.5094 49.1999 51.4994 49.7999 50.8994C50.8099 49.8994 51.8099 48.8995 52.8099 47.8895C53.4399 47.2495 53.4299 47.1094 52.7699 46.5594C49.7799 44.0394 46.2999 42.7395 42.4099 42.7195C38.5899 42.6995 35.1199 43.8394 32.1699 46.3094C27.2399 50.4394 25.2899 55.7394 26.4199 62.0294C27.7799 69.5794 34.6 75.1594 42.36 75.1094L42.3799 75.1194ZM109.17 61.1094C107.52 61.1094 105.87 61.0894 104.22 61.1094C102.03 61.1394 100.65 62.5095 100.57 64.6995C100.52 65.8895 100.67 67.0694 100.92 68.2394C101.55 71.1894 103.3 73.1894 106.11 74.2394C108.57 75.1594 111.1 75.1295 113.6 74.4795C116.62 73.6895 118.58 71.7495 119.47 68.7495C120.27 66.0494 120.25 63.2795 120.05 60.5095C119.94 59.0895 119.67 57.6994 119.14 56.3694C118.29 54.2294 116.83 52.7294 114.6 51.9894C112.35 51.2394 110.06 51.2494 107.75 51.5194C106.77 51.6394 105.81 51.9094 104.92 52.3594C103.03 53.3094 101.68 54.7194 101.17 56.8294C100.9 57.9394 100.97 58.0494 102.08 58.0594C102.94 58.0594 103.8 58.0295 104.65 58.0695C105.28 58.0995 105.72 57.9294 106 57.3294C106.28 56.7394 106.78 56.3494 107.38 56.1194C108.56 55.6494 109.78 55.4195 111.06 55.6295C113.76 56.0595 114.9 57.2094 115.31 59.9294C115.46 60.9394 115.33 61.0994 114.31 61.1094C112.59 61.1194 110.88 61.1094 109.16 61.1094H109.17ZM84.95 65.0494C86.7 65.0494 88.45 65.0695 90.1899 65.0294C91.6199 64.9995 92.61 64.2495 93.1 62.9095C93.28 62.4095 93.3799 61.8994 93.3999 61.3594C93.4399 60.4294 93.2999 59.5194 93.1499 58.6094C92.5899 55.1594 90.6599 52.8494 87.3099 51.8294C84.9199 51.0994 82.49 51.1894 80.09 51.8294C78.76 52.1894 77.59 52.8094 76.61 53.8094C75.37 55.0794 74.6299 56.5994 74.2499 58.2994C73.7299 60.6394 73.7199 63.0095 73.8699 65.3895C73.9299 66.3695 74.0899 67.3595 74.3099 68.3195C75.0299 71.4095 76.77 73.5895 79.95 74.4495C81.69 74.9195 83.4599 75.0094 85.2399 74.8394C86.4899 74.7194 87.7199 74.4494 88.8699 73.9294C90.9799 72.9694 92.38 71.4094 92.84 69.0894C92.98 68.3894 92.88 68.2295 92.1899 68.2195C91.1 68.1895 90.0099 68.2195 88.9299 68.2195C88.5399 68.2195 88.2399 68.3695 88.0399 68.7295C87.3099 70.0695 86.0399 70.4694 84.6499 70.6094C84.2599 70.6494 83.86 70.6295 83.46 70.6295C80.64 70.5995 78.94 69.0895 78.6 66.3195C78.48 65.3195 78.68 65.0795 79.7 65.0695C81.45 65.0595 83.2 65.0695 84.9399 65.0695L84.95 65.0494ZM146.66 66.1595C146.66 64.0195 146.68 61.8695 146.66 59.7295C146.6 55.1695 144.15 52.2794 139.68 51.4894C138.5 51.2794 137.31 51.3695 136.12 51.3795C134.78 51.3895 133.5 51.6694 132.28 52.2094C130.41 53.0294 129.07 54.3594 128.38 56.3094C127.94 57.5694 127.72 58.8595 127.72 60.1895C127.72 64.3095 127.72 68.4394 127.72 72.5594C127.72 72.6594 127.72 72.7594 127.72 72.8594C127.74 73.8494 127.81 73.9194 128.81 73.9294C129.73 73.9394 130.66 73.9294 131.58 73.9294C132.97 73.9294 133 73.8894 133 72.4594C133 68.6694 133 64.8694 133 61.0794C133 60.2494 133.03 59.4295 133.29 58.6295C133.62 57.6195 134.27 56.9295 135.29 56.5995C136.55 56.1895 137.83 56.1895 139.09 56.5995C140.13 56.9395 140.82 57.6395 141.15 58.6995C141.37 59.4095 141.39 60.1295 141.39 60.8495C141.39 64.6095 141.39 68.3695 141.39 72.1295C141.39 72.3895 141.39 72.6595 141.39 72.9195C141.43 73.7595 141.54 73.8895 142.39 73.9095C143.45 73.9295 144.5 73.9295 145.56 73.9095C146.6 73.8995 146.66 73.8395 146.67 72.7595C146.67 70.5495 146.67 68.3395 146.67 66.1295L146.66 66.1595ZM185.11 59.5095C185.11 57.4295 185.11 55.3494 185.11 53.2694C185.11 52.2894 185.01 52.2095 184.02 52.1995C183 52.1895 181.97 52.1895 180.95 52.1995C180.09 52.2095 179.97 52.3094 179.97 53.1794C179.97 57.8294 179.89 62.4895 180 67.1295C180.08 70.4795 181.91 73.2994 185.44 74.3394C187.84 75.0494 190.26 75.0794 192.67 74.5294C196.13 73.7295 198.16 71.5095 198.69 68.0095C198.84 66.9695 198.9 65.9094 198.91 64.8594C198.94 61.3294 198.92 57.7994 198.91 54.2694C198.91 53.8394 198.89 53.4094 198.82 52.9894C198.71 52.2994 198.62 52.2095 197.93 52.1995C196.97 52.1795 196.02 52.1895 195.06 52.1995C193.67 52.1995 193.63 52.2495 193.63 53.6595C193.63 57.4495 193.63 61.2495 193.63 65.0395C193.63 65.8095 193.54 66.5495 193.36 67.2895C193.01 68.7395 192.06 69.5495 190.61 69.7595C189.79 69.8795 188.96 69.8795 188.14 69.7595C186.72 69.5695 185.8 68.7695 185.41 67.3795C185.2 66.6495 185.1 65.8995 185.11 65.1295C185.11 63.2495 185.11 61.3694 185.11 59.4894V59.5095ZM163.66 74.7094C164.05 74.7094 164.59 74.7594 165.11 74.7094C167.26 74.4694 169.13 73.6995 170.78 72.1995C173.12 70.0795 173.29 64.5395 169.25 62.7295C167.67 62.0195 166.02 61.5894 164.37 61.1494C163.06 60.7994 161.73 60.5195 160.56 59.7895C158.95 58.7795 158.98 57.0294 160.6 56.0794C162.55 54.9394 166.31 55.4995 166.93 58.0695C167.01 58.4195 167.23 58.6794 167.61 58.6794C168.9 58.6794 170.18 58.6894 171.47 58.6794C171.83 58.6794 172 58.4294 171.99 58.0894C171.99 57.8594 171.97 57.6294 171.93 57.3994C171.48 54.9794 170.14 53.2594 167.87 52.2794C165.25 51.1494 162.53 51.0995 159.82 51.7595C157.05 52.4395 155.15 54.1295 154.54 57.0395C154.02 59.4995 154.91 61.6494 157.02 63.0294C157.77 63.5195 158.58 63.8794 159.42 64.1794C160.85 64.6994 162.33 65.0295 163.8 65.4095C164.63 65.6295 165.45 65.8794 166.2 66.3094C166.95 66.7394 167.38 67.3595 167.29 68.2495C167.2 69.1694 166.66 69.7494 165.81 70.0494C165.22 70.2594 164.59 70.3795 163.97 70.3895C161.83 70.4195 159.94 69.9895 159.11 67.6595C158.94 67.1695 158.53 67.0794 158.07 67.0794C157.05 67.0794 156.02 67.0594 155 67.0794C154.12 67.0994 153.95 67.2995 154.03 68.1595C154.05 68.3595 154.09 68.5494 154.14 68.7394C154.68 70.9694 156.06 72.5394 158.06 73.5794C159.76 74.4594 161.58 74.8795 163.64 74.7195L163.66 74.7094ZM65.8699 58.8994C65.8699 56.7194 65.8699 54.5494 65.8699 52.3694C65.8699 49.8594 65.8699 47.3595 65.8699 44.8495C65.8699 43.9795 65.7599 43.8794 64.8999 43.8694C63.8499 43.8494 62.79 43.8694 61.73 43.8694C60.67 43.8694 60.1399 44.3928 60.1399 45.4395C60.1399 54.4095 60.1399 63.3794 60.1399 72.3394C60.1399 72.5694 60.1399 72.7994 60.1399 73.0294C60.1899 73.7695 60.2899 73.8995 61.0199 73.9095C62.3399 73.9295 63.66 73.9295 64.98 73.9095C65.72 73.8995 65.82 73.7794 65.85 73.0294C65.86 72.7994 65.85 72.5694 65.85 72.3394C65.85 67.8594 65.85 63.3695 65.85 58.8895L65.8699 58.8994ZM212.98 63.1494H212.99C212.99 59.8894 212.99 56.6194 212.99 53.3594C212.99 52.3094 212.88 52.2195 211.87 52.1995C210.85 52.1895 209.83 52.1995 208.8 52.1995C207.32 52.1995 207.31 52.2095 207.31 53.6895C207.31 59.9895 207.31 66.2794 207.31 72.5794C207.31 72.7794 207.31 72.9795 207.31 73.1695C207.31 73.6395 207.52 73.9195 208.02 73.9195C209.44 73.9195 210.85 73.9195 212.27 73.9195C212.7 73.9195 212.94 73.6894 212.96 73.2495C212.97 72.9895 212.98 72.7194 212.98 72.4594C212.98 69.3594 212.98 66.2595 212.98 63.1595V63.1494ZM42.34 54.3294C39.76 54.1694 37.6999 56.2595 37.6499 58.8895C37.5999 61.4195 39.7699 63.6195 42.2999 63.5695C45.1599 63.5095 46.8799 61.3695 46.8999 58.8795C46.9199 56.5495 45.05 54.2095 42.34 54.3195V54.3294ZM213.63 44.5294C213.63 42.5194 212.07 40.9195 210.09 40.9195C208.36 40.9195 206.57 42.6895 206.58 44.4395C206.58 46.2295 208.23 48.0195 210.09 48.0395C211.96 48.0595 213.79 46.1894 213.63 44.5294Z" fill="#030000"/>
<path d="M168.68 8.62969C168.68 7.70969 168.68 6.77968 168.68 5.85968C168.68 5.52968 168.7 5.19967 168.87 4.89967C169.05 4.56967 169.33 4.43969 169.7 4.48969C170.04 4.53969 170.22 4.77969 170.26 5.09969C170.3 5.38969 170.3 5.68969 170.3 5.98969C170.3 7.40969 170.3 8.82969 170.3 10.2397C170.3 11.2197 170.42 11.3197 171.38 11.3397C171.97 11.3497 172.57 11.3397 173.16 11.3397C173.99 11.3397 174.01 11.3397 174.01 10.5497C174.02 9.09968 174.01 7.64968 174.01 6.19968C174.01 5.93968 174 5.66968 174.03 5.40968C174.1 4.76968 174.33 4.48969 174.95 4.45969C176.1 4.41969 177.26 4.41969 178.41 4.45969C178.98 4.47969 179.29 4.78968 179.3 5.19968C179.32 5.64968 178.98 5.96969 178.37 6.01969C177.81 6.05968 177.25 6.01968 176.69 6.04968C175.96 6.08968 175.49 6.86968 175.78 7.52968C175.88 7.74968 176.07 7.78967 176.27 7.78967C176.7 7.79967 177.13 7.78968 177.56 7.80968C177.82 7.80968 178.09 7.81969 178.34 7.87969C178.75 7.97969 178.94 8.27968 178.92 8.68968C178.9 9.07968 178.64 9.28969 178.28 9.31969C177.79 9.35969 177.29 9.35969 176.8 9.37969C175.91 9.40969 175.46 10.2397 175.89 11.0297C176.02 11.2697 176.23 11.3297 176.47 11.3297C177.33 11.3597 178.18 11.3697 179.04 11.3997C179.37 11.3997 179.48 11.1997 179.58 10.9297C179.87 10.1297 180.23 9.33968 180.48 8.52968C180.8 7.45968 181.23 6.41968 181.6 5.36968C181.76 4.91968 182 4.48968 182.55 4.50968C183.08 4.51968 183.34 4.89968 183.51 5.36968C184.26 7.47968 185.01 9.58968 185.76 11.6897C185.9 12.0797 186.02 12.4797 185.52 12.6997C185.12 12.8797 184.51 12.6997 184.29 12.3197C184.19 12.1497 184.15 11.9497 184.1 11.7597C184 11.3797 183.75 11.2097 183.38 11.1997C182.98 11.1897 182.59 11.1997 182.19 11.1797C181.54 11.1497 181.03 11.2497 180.9 12.0497C180.8 12.6497 180.29 12.7497 179.75 12.7497C178.33 12.7497 176.91 12.8197 175.5 12.7497C173.79 12.6597 172.08 12.8197 170.37 12.7697C168.79 12.7297 168.68 12.6497 168.68 11.0897C168.68 10.2697 168.68 9.43968 168.68 8.61968V8.62969ZM182.53 7.48969C182.17 8.09969 182.04 8.60968 181.93 9.11968C181.89 9.30968 181.83 9.53968 182.04 9.65968C182.34 9.82968 182.68 9.81968 182.99 9.68968C183.27 9.57968 183.19 9.30968 183.14 9.08968C183.03 8.57968 182.9 8.07969 182.53 7.48969Z" fill="#030000"/>
<path d="M46.0697 9.47983C45.4697 10.2498 45.0897 11.0098 44.6797 11.7498C44.2897 12.4498 43.7997 12.8498 42.9497 12.7998C42.0297 12.7398 41.1097 12.7998 40.1797 12.7698C39.4197 12.7398 39.1797 12.3898 39.5297 11.7598C40.0497 10.8098 40.6397 9.89983 41.1997 8.96983C41.5297 8.41983 42.0196 8.27984 42.6396 8.31984C43.3296 8.36984 44.0197 8.37984 44.7097 8.34984C45.2097 8.31984 45.3596 8.04983 45.1296 7.60983C44.8396 7.05983 44.4997 6.52983 44.1697 5.99983C43.7197 5.27983 43.6497 4.62983 44.1097 3.79983C44.5597 2.99983 45.1097 2.25983 45.4697 1.39983C45.7297 0.759825 46.2997 0.749828 46.6597 1.33983C47.2397 2.28983 47.7797 3.26983 48.3597 4.21983C48.6197 4.63983 48.5497 5.02983 48.3197 5.41983C47.8897 6.15983 47.4597 6.89983 47.0497 7.64983C46.7797 8.14983 46.8597 8.31984 47.4097 8.34984C48.1697 8.37984 48.9297 8.39983 49.6797 8.30983C50.3497 8.21983 50.7797 8.48983 51.0797 8.99983C51.5497 9.82983 52.0497 10.6398 52.5397 11.4598C53.0497 12.2998 52.7797 12.7398 51.7797 12.7698C50.9897 12.7998 50.1997 12.7698 49.4097 12.8698C48.5597 12.9698 47.9597 12.5598 47.5597 11.8298C47.1397 11.0498 46.7197 10.2798 46.0797 9.46983L46.0697 9.47983Z" fill="#030000"/>
<path d="M132.41 8.85968C132.45 9.72968 132.43 10.5797 132.42 11.4297C132.42 11.7297 132.42 12.0297 132.31 12.3097C132.16 12.6697 131.86 12.7697 131.5 12.7397C131.17 12.7097 130.94 12.5297 130.88 12.1997C130.84 11.9697 130.83 11.7397 130.83 11.5097C130.83 9.56968 130.83 7.61967 130.83 5.67967C130.83 5.22967 130.76 4.71968 131.33 4.50968C131.77 4.34968 132.23 4.58968 132.57 5.25968C133.03 6.16968 133.42 7.10968 133.83 8.03968C133.95 8.30968 134.01 8.60968 134.38 8.77968C134.86 8.03968 135.13 7.19969 135.5 6.40969C135.7 5.98969 135.87 5.56968 136.08 5.14968C136.25 4.80968 136.52 4.56968 136.9 4.49968C137.31 4.41968 137.63 4.55969 137.74 4.98969C137.8 5.23969 137.81 5.50969 137.81 5.76969C137.81 7.64969 137.81 9.52969 137.81 11.4097C137.81 11.6097 137.81 11.8097 137.79 11.9997C137.76 12.4097 137.57 12.6797 137.13 12.7397C136.66 12.8097 136.27 12.5997 136.13 12.1297C135.93 11.4497 136 10.7597 136.08 10.0697C136.13 9.68969 136.23 9.30968 136.03 8.71968C135.72 9.47968 135.51 10.0797 135.23 10.6497C134.83 11.4697 134 11.5497 133.51 10.8397C133.38 10.6497 133.31 10.4297 133.19 10.2297C132.92 9.78968 132.87 9.22968 132.4 8.85968H132.41Z" fill="#030000"/>
<path d="M56.0201 9.11982C56.0201 9.80982 56.0201 10.4898 56.0201 11.1798C56.0201 11.4798 56.0202 11.7798 55.9802 12.0698C55.9002 12.5598 55.6402 12.7698 55.1802 12.7498C54.7602 12.7398 54.5002 12.5198 54.4402 12.0998C54.4102 11.8998 54.4102 11.7098 54.4102 11.5098C54.4102 9.62982 54.4102 7.74982 54.4102 5.86982C54.4102 5.83982 54.4102 5.79983 54.4102 5.76983C54.4302 4.94983 54.6302 4.57982 55.0802 4.49982C55.5202 4.41982 56.0802 4.79982 56.3202 5.44982C56.6702 6.40982 57.2502 7.26982 57.5402 8.24982C57.5902 8.42982 57.6802 8.62982 57.9202 8.74982C58.2702 8.59982 58.3702 8.23982 58.4602 7.90982C58.7402 6.95982 59.3101 6.12982 59.6401 5.19982C59.7501 4.86982 60.0402 4.67982 60.3602 4.55982C60.8502 4.37982 61.2202 4.55983 61.3302 5.06983C61.3802 5.28983 61.3701 5.52982 61.3701 5.75982C61.3701 7.63982 61.3701 9.51981 61.3701 11.3998C61.3701 11.6298 61.3702 11.8598 61.3402 12.0898C61.2902 12.5098 61.0401 12.7398 60.6201 12.7498C60.2001 12.7598 59.9002 12.5598 59.8402 12.1498C59.7702 11.6998 59.7801 11.2298 59.7701 10.7698C59.7601 10.1898 59.7701 9.59982 59.7701 8.88982C59.2901 9.24982 59.3002 9.75982 59.0602 10.1198C58.9202 10.3398 58.8702 10.6198 58.7202 10.8298C58.2702 11.4998 57.4002 11.4398 57.0502 10.7198C56.7802 10.1698 56.6101 9.56982 56.2601 9.05982C56.1801 9.07982 56.1002 9.09982 56.0302 9.11982H56.0201Z" fill="#030000"/>
<path d="M83.7301 8.63014C83.7301 7.67014 83.7201 6.72013 83.7301 5.76013C83.7501 4.70013 83.97 4.45013 85 4.45013C85.98 4.45013 86.9701 4.31013 87.9201 4.73013C89.2901 5.33013 89.84 6.66014 89.12 7.96014C88.86 8.42014 88.8801 8.70013 89.1801 9.09013C90.3601 10.6101 88.8301 12.8601 87.1701 12.7801C86.3801 12.7401 85.5901 12.7901 84.8001 12.7701C83.9701 12.7401 83.7601 12.5501 83.7301 11.6901C83.7001 10.6701 83.7301 9.65014 83.7301 8.63014ZM86.1101 11.3301C86.4701 11.3301 86.6301 11.3501 86.7901 11.3301C87.4901 11.2501 87.8801 10.8601 87.8601 10.2901C87.8401 9.72013 87.43 9.32013 86.77 9.26013C86.48 9.23013 86.18 9.26013 85.89 9.26013C85.72 9.26013 85.5401 9.31014 85.4601 9.46014C85.2201 9.95014 85.25 10.4901 85.39 10.9901C85.51 11.4401 85.9601 11.3301 86.1101 11.3401V11.3301ZM86.5901 7.81014C86.6701 7.81014 86.8701 7.81014 87.0701 7.78014C87.4601 7.71014 87.7601 7.51014 87.8101 7.10014C87.8701 6.68014 87.62 6.42014 87.27 6.24014C86.97 6.08014 86.6401 6.06014 86.3101 6.06014C85.4401 6.06014 85.1801 6.36014 85.3301 7.21014C85.4201 7.73014 85.5901 7.82014 86.5901 7.81014Z" fill="#030000"/>
<path d="M190.19 8.91985C190.51 7.91985 190.41 6.96985 190.44 6.02985C190.45 5.69985 190.41 5.36986 190.53 5.04986C190.67 4.66986 190.96 4.46985 191.36 4.47985C191.8 4.48985 192 4.76985 192.05 5.17985C192.07 5.37985 192.08 5.56986 192.08 5.76986C192.08 7.67986 192.08 9.58985 192.08 11.4999C192.08 11.9799 192.17 12.5399 191.52 12.7199C191.08 12.8399 190.55 12.6499 190.2 11.9599C189.59 10.7699 188.87 9.62985 188.2 8.47985C187.8 8.58985 187.92 8.85985 187.92 9.05985C187.91 9.97985 187.92 10.8999 187.92 11.8299C187.92 12.2999 187.78 12.6899 187.24 12.7499C186.8 12.7999 186.45 12.6699 186.32 12.1999C186.2 11.7899 186.14 11.3598 186.14 10.9298C186.14 9.24985 186.14 7.56985 186.14 5.88985C186.14 5.81985 186.14 5.75986 186.14 5.68986C186.17 5.21986 186.21 4.74985 186.73 4.53985C187.13 4.37985 187.7 4.61986 188.05 5.18986C188.62 6.10986 189.14 7.06985 189.68 8.00985C189.86 8.31985 190.03 8.62986 190.21 8.93986L190.19 8.91985Z" fill="#030000"/>
<path d="M123.72 8.57937C123.72 9.66937 123.72 10.7594 123.72 11.8494C123.72 12.2694 123.61 12.6394 123.12 12.7394C122.59 12.8394 122.21 12.5894 122.16 12.0294C122.11 11.4394 122.15 10.8394 122.12 10.2494C122.09 9.54937 121.98 9.40936 121.32 9.39936C119.7 9.37936 119.57 8.86936 119.59 11.0094C119.59 11.3394 119.61 11.6694 119.57 11.9994C119.51 12.5494 119.26 12.7594 118.73 12.7694C118.21 12.7694 117.95 12.5694 117.83 12.0494C117.82 11.9894 117.81 11.9194 117.81 11.8494C117.81 9.73937 117.81 7.62937 117.81 5.51937C117.81 5.09937 118 4.74937 118.41 4.56937C118.95 4.33937 119.5 4.63936 119.56 5.24936C119.62 5.83936 119.56 6.43936 119.6 7.02936C119.63 7.65936 119.75 7.75936 120.37 7.80936C121.99 7.95936 122.12 7.83937 122.13 6.20937C122.13 5.87937 122.12 5.54937 122.17 5.21937C122.26 4.71937 122.62 4.43936 123.06 4.47936C123.57 4.52936 123.71 4.88937 123.72 5.31937C123.73 6.40937 123.72 7.49936 123.72 8.58936V8.57937Z" fill="#030000"/>
<path d="M104.94 8.68992C104.94 9.77992 104.97 10.8599 104.94 11.9499C104.92 12.6199 104.48 12.8999 103.88 12.7199C103.51 12.6099 103.36 12.3299 103.35 11.9699C103.33 11.4099 103.35 10.8499 103.33 10.2899C103.3 9.53991 103.19 9.39992 102.47 9.37992C100.98 9.34992 100.94 8.99992 100.95 10.7799C100.95 11.2099 100.96 11.6399 100.9 12.0599C100.82 12.5699 100.51 12.7699 99.9802 12.7399C99.5202 12.7199 99.2402 12.4899 99.1902 12.0199C99.1702 11.7899 99.1702 11.5599 99.1602 11.3299C99.1602 9.54992 99.1602 7.76992 99.1602 5.98992C99.1602 5.75992 99.1602 5.52992 99.1902 5.29992C99.2802 4.73992 99.6202 4.43992 100.11 4.45992C100.56 4.47992 100.86 4.75991 100.92 5.28991C100.97 5.70991 100.92 6.14992 100.95 6.56992C100.98 6.97992 100.8 7.51992 101.32 7.68992C101.88 7.86992 102.49 7.87991 103.06 7.64991C103.3 7.54991 103.31 7.27992 103.31 7.04992C103.31 6.61992 103.31 6.18992 103.33 5.76992C103.34 5.50992 103.35 5.23992 103.44 4.98992C103.57 4.59992 103.89 4.42992 104.29 4.46992C104.68 4.49992 104.87 4.75991 104.92 5.11991C104.95 5.34991 104.95 5.57991 104.95 5.80991C104.95 6.76991 104.95 7.71991 104.95 8.67991L104.94 8.68992Z" fill="#030000"/>
<path d="M73.2102 12.7799C72.9502 12.7799 72.6802 12.7799 72.4202 12.7799C71.1902 12.7299 70.5902 11.8199 70.3002 10.8799C70.2102 10.5799 70.2802 10.2799 70.5802 10.0999C70.9202 9.89987 71.2903 9.90986 71.6003 10.1599C71.7703 10.2999 71.8802 10.5199 72.0102 10.7099C72.4202 11.3099 72.9302 11.4999 73.6302 11.3399C74.0302 11.2499 74.2502 10.9799 74.3402 10.6099C74.4402 10.1999 74.2502 9.90986 73.8802 9.72986C73.4402 9.50986 72.9801 9.31986 72.4901 9.22986C71.3101 9.01986 70.6603 8.24986 70.3503 7.14986C70.1203 6.34986 70.5502 5.71986 71.0402 5.18986C72.1902 3.93986 74.2402 4.00985 75.3402 5.28985C75.5802 5.56985 75.7502 5.88987 75.7702 6.26987C75.7902 6.62987 75.6602 6.91987 75.3102 7.06987C75.0002 7.19987 74.7201 7.10986 74.4901 6.88986C74.3501 6.75986 74.2502 6.57986 74.1302 6.41986C73.9002 6.11986 73.6103 5.90986 73.2303 5.86986C72.7603 5.80986 72.2303 6.11986 72.1003 6.49986C71.9703 6.89986 72.1402 7.22985 72.6402 7.53985C72.8702 7.67985 73.1102 7.77986 73.3802 7.79986C73.9202 7.83986 74.3903 8.08986 74.8603 8.33986C75.9003 8.90986 76.3703 9.92987 76.1003 10.9899C75.8403 12.0499 74.9402 12.7499 73.7902 12.7799C73.5902 12.7799 73.3902 12.7799 73.2002 12.7799H73.2102Z" fill="#030000"/>
<path d="M195.77 12.7702C194.61 12.9102 193.67 12.6002 193.08 11.5302C192.74 10.9102 192.74 10.3302 193.09 10.0902C193.51 9.80021 194.12 9.9602 194.48 10.6202C194.87 11.3402 195.43 11.4502 196.14 11.3502C196.6 11.2802 196.83 10.9902 196.91 10.5602C196.99 10.1402 196.77 9.87021 196.41 9.70021C195.96 9.48021 195.5 9.31021 195.01 9.22021C193.84 9.00021 193.21 8.2002 192.88 7.1202C192.78 6.8002 192.82 6.4702 192.94 6.1502C193.69 4.1902 196.43 3.67021 197.85 5.22021C198.13 5.53021 198.27 5.8902 198.31 6.2902C198.35 6.6502 198.21 6.94021 197.86 7.09021C197.51 7.23021 197.21 7.14022 196.98 6.85022C196.86 6.70022 196.78 6.51021 196.65 6.36021C196.41 6.07021 196.11 5.8702 195.72 5.8702C195.27 5.8702 194.85 6.00021 194.69 6.47021C194.53 6.96021 194.79 7.28021 195.19 7.53021C195.48 7.71021 195.81 7.74021 196.12 7.83021C197.03 8.12021 197.92 8.44021 198.44 9.36021C199.2 10.7102 198.28 12.5802 196.74 12.7602C196.42 12.8002 196.08 12.7602 195.77 12.7602V12.7702Z" fill="#030000"/>
<path d="M95.7694 12.7903C94.9994 12.8303 94.2594 12.7903 93.6294 12.2403C93.1794 11.8503 92.9295 11.3803 92.8595 10.8003C92.8195 10.4903 92.8495 10.1803 93.1795 10.0503C93.5395 9.9003 93.8995 9.9203 94.1795 10.2303C94.3295 10.4003 94.3995 10.6303 94.5395 10.8203C94.9795 11.4003 95.8894 11.5603 96.4994 11.1703C97.1194 10.7703 97.1294 10.1403 96.4994 9.7603C96.0194 9.4703 95.4695 9.3503 94.9295 9.2003C93.1895 8.7003 92.5995 7.4303 93.0595 5.9703C93.4695 4.6503 95.4395 3.89031 96.7995 4.49031C97.4595 4.78031 97.9694 5.2303 98.2694 5.8903C98.4794 6.3503 98.3694 6.8203 98.0094 7.0303C97.5994 7.2803 97.2495 7.1403 96.9395 6.8303C96.7795 6.6703 96.6594 6.4703 96.4994 6.3003C96.1894 5.9603 95.8095 5.7903 95.3495 5.9203C94.9895 6.0203 94.6495 6.2003 94.5395 6.5803C94.4195 7.0203 94.7595 7.2203 95.0595 7.4403C95.3595 7.6603 95.6895 7.7903 96.0595 7.8403C96.5295 7.9003 96.9295 8.1303 97.3495 8.3303C99.0895 9.1603 98.8994 11.6203 97.5194 12.5203C96.9694 12.8703 96.3795 12.7603 95.7995 12.8003L95.7694 12.7903Z" fill="#030000"/>
<path d="M82.7197 7.96016C82.7197 8.55016 82.6897 9.15016 82.7197 9.74016C82.7597 10.4302 82.5597 11.0302 82.2197 11.6102C81.7597 12.3802 81.1697 12.8502 80.2197 12.7902C79.8597 12.7702 79.4996 12.7902 79.1296 12.7902C77.8396 12.7702 76.9997 12.0502 76.7297 10.7602C76.5497 9.91015 76.5897 9.06015 76.5897 8.20015C76.5897 7.41015 76.5897 6.62016 76.5897 5.83016C76.5897 5.53016 76.5997 5.23016 76.7297 4.96016C76.8797 4.63016 77.1396 4.45016 77.5096 4.47016C77.8496 4.49016 78.0497 4.69016 78.1597 4.99016C78.2497 5.24016 78.2596 5.50016 78.2596 5.77016C78.2296 7.02016 78.2097 8.27016 78.1897 9.52016C78.1897 9.92016 78.2197 10.3102 78.3997 10.6702C78.7197 11.3002 79.1297 11.4902 79.9697 11.3602C80.5597 11.2702 80.8496 10.9802 80.8796 10.2602C80.9296 9.04015 80.9097 7.82016 80.9097 6.60016C80.9097 6.24016 80.8997 5.87015 80.9197 5.51015C80.9697 4.81015 81.2997 4.45016 81.8397 4.46016C82.3497 4.48016 82.6497 4.80015 82.6697 5.48015C82.6997 6.30015 82.6697 7.13015 82.6697 7.95015L82.7197 7.96016Z" fill="#030000"/>
<path d="M203.5 7.77C203.5 6.98 203.48 6.18999 203.5 5.39999C203.53 4.74999 203.78 4.48999 204.29 4.46999C204.8 4.45999 205.12 4.72999 205.23 5.28999C205.28 5.54999 205.28 5.81 205.28 6.08C205.28 7.23 205.24 8.38999 205.3 9.53999C205.34 10.38 205.06 11.09 204.66 11.78C204.58 11.92 204.47 12.05 204.36 12.17C203.21 13.3 200.5 13.02 199.6 11.68C199.25 11.16 199.21 10.55 199.2 9.96999C199.16 8.54999 199.18 7.12999 199.19 5.71999C199.19 5.41999 199.23 5.12999 199.39 4.85999C199.56 4.57999 199.81 4.45 200.14 4.49C200.48 4.53 200.68 4.73999 200.73 5.05999C200.77 5.34999 200.78 5.64999 200.78 5.94999C200.78 7.26999 200.76 8.59 200.8 9.91C200.83 10.9 201.3 11.38 202.15 11.38C203.01 11.38 203.45 11.01 203.49 10.15C203.53 9.35999 203.49 8.56999 203.49 7.77999C203.49 7.77999 203.5 7.77999 203.51 7.77999L203.5 7.77Z" fill="#030000"/>
<path d="M127.42 12.7702C126.93 12.7702 126.43 12.7902 125.94 12.7702C125.09 12.7302 124.9 12.5602 124.89 11.7002C124.87 10.0202 124.89 8.34022 124.89 6.66022C124.89 6.20022 124.89 5.74021 124.9 5.28021C124.92 4.78021 125.19 4.47022 125.7 4.46022C126.85 4.45022 128.01 4.43022 129.16 4.47022C129.75 4.49022 130.05 4.87022 130 5.35022C129.95 5.84022 129.61 6.10022 129.02 6.10022C128.46 6.10022 127.9 6.04022 127.34 6.07022C126.67 6.10022 126.49 6.34022 126.51 7.02022C126.53 7.64022 126.66 7.78021 127.37 7.81021C127.86 7.83021 128.36 7.81022 128.85 7.83022C129.44 7.87022 129.74 8.12021 129.78 8.53021C129.82 8.98021 129.51 9.28021 128.86 9.34021C128.37 9.38021 127.87 9.35022 127.38 9.35022C126.67 9.35022 126.55 9.45022 126.51 10.1002C126.44 11.1002 126.64 11.3202 127.65 11.3402C128.14 11.3402 128.64 11.3302 129.13 11.3602C129.75 11.4002 130.01 11.6302 130 12.0802C129.99 12.5102 129.72 12.7402 129.09 12.7702C128.53 12.8002 127.97 12.7702 127.41 12.7702H127.42Z" fill="#030000"/>
<path d="M154.009 11.9801C154.019 12.3501 153.949 12.6001 153.659 12.7001C153.329 12.8101 153.01 12.7801 152.72 12.5701C152.47 12.3801 152.329 12.1201 152.249 11.8301C152.129 11.3601 151.809 11.2101 151.369 11.2101C151.009 11.2101 150.639 11.2101 150.279 11.2101C149.679 11.1801 149.26 11.4101 149.08 12.0101C148.98 12.3401 148.8 12.6201 148.44 12.7101C148.11 12.8001 147.769 12.8301 147.509 12.5601C147.289 12.3301 147.399 12.0601 147.489 11.8201C148.119 10.0201 148.759 8.22011 149.399 6.42011C149.519 6.08011 149.62 5.73012 149.73 5.39012C149.89 4.91012 150.17 4.56012 150.7 4.53012C151.21 4.50012 151.459 4.85012 151.619 5.28012C152.089 6.54012 152.569 7.80012 153.029 9.07012C153.309 9.84012 153.56 10.6301 153.82 11.4101C153.89 11.6301 153.949 11.8501 153.999 11.9901L154.009 11.9801ZM150.679 7.34011C150.459 8.02011 150.279 8.51011 150.139 9.01011C150.069 9.27011 150.059 9.57011 150.369 9.68011C150.709 9.81011 151.079 9.85011 151.399 9.62011C151.459 9.58011 151.5 9.42012 151.47 9.36012C151.19 8.75012 151.219 8.02012 150.679 7.35012V7.34011Z" fill="#030000"/>
<path d="M113.04 8.59976C113.04 9.12976 113.03 9.65975 113.04 10.1797C113.06 10.7297 113.33 11.1397 113.86 11.2897C114.39 11.4397 114.909 11.3997 115.269 10.8697C115.399 10.6797 115.55 10.4998 115.7 10.3298C116.1 9.87976 116.46 9.75976 116.8 9.95976C117.15 10.1598 117.3 10.7198 117.08 11.2098C116.8 11.8298 116.34 12.3798 115.72 12.5898C114.71 12.9198 113.639 12.9998 112.649 12.4898C111.759 12.0298 111.309 11.2098 111.249 10.2398C111.179 9.21976 111.199 8.18975 111.239 7.16975C111.299 5.54975 112.6 4.61976 113.85 4.31976C114.95 4.05976 116.5 4.92975 117.04 6.03975C117.29 6.54975 117.21 7.07975 116.86 7.28975C116.49 7.49975 116.06 7.36975 115.67 6.88975C115.46 6.62975 115.269 6.36975 114.989 6.17975C114.109 5.60975 113.15 6.05976 113.06 7.10976C113.02 7.59976 113.06 8.09975 113.06 8.58975L113.04 8.59976Z" fill="#030000"/>
<path d="M161.92 8.68002C161.92 8.19002 161.9 7.69002 161.92 7.20002C162 5.88002 162.86 4.86002 164.24 4.43002C165.31 4.09002 166.67 4.55003 167.42 5.49003C167.65 5.78003 167.77 6.12002 167.85 6.48002C167.91 6.79002 167.89 7.09003 167.59 7.27003C167.24 7.48003 166.88 7.43003 166.58 7.16003C166.39 6.99003 166.26 6.74002 166.09 6.54002C165.7 6.11002 165.27 5.76003 164.63 5.99003C163.96 6.22003 163.74 6.52002 163.73 7.34002C163.71 8.23002 163.71 9.12002 163.73 10.01C163.75 10.74 164.03 11.16 164.58 11.31C165.17 11.47 165.69 11.35 166.06 10.81C166.23 10.57 166.4 10.32 166.61 10.11C166.86 9.85003 167.19 9.80002 167.52 9.95002C167.84 10.1 167.89 10.38 167.89 10.7C167.87 11.54 166.82 12.67 165.9 12.76C165.31 12.82 164.71 12.82 164.12 12.76C163.07 12.66 162.02 11.45 161.93 10.26C161.89 9.74002 161.93 9.21002 161.93 8.68002H161.92Z" fill="#030000"/>
<path d="M141.52 8.6995C141.52 8.2395 141.54 7.77951 141.52 7.31951C141.45 5.73951 142.49 4.85951 143.74 4.40951C144.79 4.03951 146.18 4.5795 146.96 5.6195C147.1 5.7995 147.22 5.99951 147.32 6.20951C147.51 6.58951 147.57 6.97951 147.18 7.26951C146.88 7.48951 146.28 7.42951 145.99 7.12951C145.85 6.98951 145.77 6.8095 145.66 6.6395C145.36 6.1595 144.95 5.8495 144.36 5.9195C143.8 5.9795 143.26 6.4995 143.18 7.1095C143.05 8.1195 143.05 9.1495 143.17 10.1695C143.23 10.6995 143.52 11.1895 144.1 11.3295C144.74 11.4795 145.27 11.2695 145.63 10.6895C145.82 10.3795 146.03 10.0795 146.39 9.9495C146.68 9.8395 146.98 9.8195 147.23 10.0295C147.5 10.2495 147.48 10.5495 147.4 10.8495C147.13 11.9095 146.14 12.7495 145.04 12.7795C144.23 12.7995 143.4 12.9095 142.67 12.3495C141.98 11.8195 141.5 11.1995 141.52 10.2795C141.53 9.7495 141.52 9.2295 141.52 8.6995Z" fill="#030000"/>
<path d="M66.6599 9.29945C66.6599 8.53945 66.6799 7.78945 66.6599 7.02945C66.6399 6.22945 66.5499 6.14945 65.7499 6.04945C65.5899 6.02945 65.4199 6.02945 65.2599 5.99945C64.8499 5.90945 64.6299 5.64945 64.6299 5.22945C64.6299 4.80945 64.8799 4.55946 65.2799 4.48946C65.4699 4.44946 65.6699 4.44945 65.8699 4.43945C66.9599 4.43945 68.0399 4.43945 69.1299 4.43945C69.4299 4.43945 69.7299 4.43945 69.9999 4.58945C70.2899 4.73945 70.4499 4.97945 70.4199 5.30945C70.3899 5.62945 70.2299 5.86945 69.9199 5.96945C69.8599 5.98945 69.79 5.99945 69.73 6.01945C68.8966 6.21279 68.48 6.73611 68.48 7.58945C68.48 8.76945 68.48 9.95945 68.48 11.1395C68.48 11.3995 68.48 11.6694 68.45 11.9294C68.36 12.4794 68.0399 12.7495 67.5099 12.7495C66.9699 12.7495 66.7199 12.5095 66.6899 11.8595C66.6599 11.0095 66.6899 10.1494 66.6899 9.28944C66.6899 9.28944 66.6899 9.28944 66.6799 9.28944L66.6599 9.29945Z" fill="#030000"/>
<path d="M156.19 8.1595C156.19 8.9495 156.17 9.7395 156.19 10.5295C156.21 11.2095 156.33 11.3195 157.02 11.3395C157.64 11.3695 158.27 11.3395 158.89 11.3595C159.5 11.3895 159.76 11.6495 159.73 12.0995C159.69 12.5995 159.34 12.7595 158.91 12.7595C157.73 12.7595 156.54 12.7895 155.36 12.7595C154.68 12.7395 154.45 12.4995 154.42 11.7495C154.38 10.7695 154.39 9.77949 154.39 8.78949C154.39 7.83949 154.39 6.87949 154.39 5.92949C154.39 5.66949 154.39 5.39949 154.45 5.14949C154.55 4.70949 154.85 4.47949 155.3 4.47949C155.72 4.47949 155.98 4.7295 156.08 5.1095C156.15 5.3895 156.17 5.6895 156.17 5.9895C156.18 6.7095 156.17 7.4395 156.17 8.1595H156.19Z" fill="#030000"/>
<path d="M207.87 8.76961C207.87 9.75961 207.89 10.7496 207.87 11.7396C207.85 12.4896 207.63 12.7396 207.08 12.7496C206.5 12.7496 206.13 12.4396 206.12 11.7396C206.09 9.62961 206.09 7.51961 206.12 5.40961C206.12 4.77961 206.52 4.44961 207.04 4.46961C207.52 4.48961 207.83 4.7896 207.85 5.3996C207.89 6.5196 207.86 7.6396 207.86 8.7596L207.87 8.76961Z" fill="#030000"/>
<path d="M64.3103 9.01973C64.3103 9.77973 64.3103 10.5397 64.3103 11.2997C64.3103 11.5597 64.3102 11.8297 64.2502 12.0897C64.1402 12.5497 63.7703 12.7797 63.2803 12.7497C62.7903 12.7197 62.5703 12.4397 62.5503 11.9797C62.5303 11.3197 62.5303 10.6597 62.5303 9.99973C62.5303 8.64973 62.5303 7.28973 62.5303 5.93973C62.5303 5.67973 62.5303 5.40972 62.5803 5.14972C62.6703 4.69972 62.9703 4.46973 63.4203 4.46973C63.8603 4.46973 64.0402 4.76972 64.1202 5.16972C64.3702 6.43972 64.2803 7.72973 64.3003 9.01973H64.3103Z" fill="#030000"/>
<path d="M90.4401 8.6199C90.4401 7.6299 90.4301 6.64991 90.4401 5.65991C90.4601 4.84991 90.7901 4.4399 91.3201 4.4999C91.8301 4.5499 92.0901 5.08991 92.1501 5.76991C92.3001 7.63991 91.9301 9.4999 92.1501 11.3699C92.1701 11.5599 92.1501 11.7699 92.1101 11.9599C91.9901 12.5399 91.6701 12.7899 91.1601 12.7499C90.6901 12.7099 90.4601 12.4799 90.4401 11.8699C90.4101 10.7899 90.4401 9.6999 90.4401 8.6099V8.6199Z" fill="#030000"/>
<path d="M107.77 8.58995C107.77 9.60995 107.77 10.62 107.77 11.64C107.77 12.36 107.49 12.73 106.93 12.74C106.52 12.74 106.22 12.59 106.14 12.16C106.1 11.94 106.09 11.7 106.09 11.47C106.09 9.59996 106.09 7.72996 106.09 5.84996C106.09 5.61996 106.09 5.38996 106.14 5.15996C106.22 4.71996 106.5 4.45996 106.96 4.45996C107.46 4.45996 107.67 4.78995 107.68 5.22995C107.71 6.20995 107.7 7.19996 107.7 8.18996C107.7 8.31996 107.7 8.44996 107.7 8.57996C107.72 8.57996 107.74 8.57996 107.76 8.57996L107.77 8.58995Z" fill="#030000"/>
<path d="M138.95 8.61994C138.95 7.56994 138.93 6.50995 138.95 5.45995C138.97 4.75995 139.19 4.47994 139.66 4.46994C140.16 4.45994 140.51 4.79995 140.52 5.45995C140.54 7.59995 140.54 9.73994 140.52 11.8899C140.52 12.4999 140.26 12.7299 139.79 12.7499C139.27 12.7699 138.98 12.5199 138.96 11.8799C138.93 10.7899 138.96 9.69993 138.96 8.61994H138.95Z" fill="#030000"/>
<path d="M110.449 65.04C111.739 65.04 113.019 65.03 114.309 65.04C115.309 65.05 115.459 65.25 115.309 66.24C115.249 66.63 115.209 67.03 115.099 67.4C114.679 68.82 113.809 69.81 112.349 70.26C110.749 70.76 109.159 70.74 107.599 70.12C105.659 69.36 105.229 67.97 105.169 66.31C105.139 65.47 105.579 65.07 106.489 65.05C107.809 65.01 109.129 65.05 110.439 65.05L110.449 65.04Z" fill="#030000"/>
<path d="M83.4402 61.1196C82.1602 61.1196 80.8702 61.1296 79.5902 61.1196C78.6702 61.1096 78.4902 60.8896 78.6102 59.9796C78.9602 57.1696 80.5802 55.7296 83.4402 55.6796C84.4302 55.6596 85.4002 55.7396 86.3502 56.0896C88.3502 56.8296 88.8602 58.6796 88.6902 60.2096C88.6202 60.8196 88.3002 61.0896 87.5902 61.1096C86.5402 61.1396 85.4802 61.1196 84.4302 61.1296C84.1002 61.1296 83.7702 61.1296 83.4402 61.1296V61.1196Z" fill="#030000"/>
</svg>
