<svg width="80" height="28" viewBox="0 0 80 28" fill="none" xmlns="http://www.w3.org/2000/svg">
<path d="M71.0967 24.0415C71.1696 23.8948 71.1472 23.7764 71.1472 23.6636C71.1472 20.4209 71.1472 17.1753 71.1472 13.9326C71.1472 13.769 71.1472 13.6055 71.1472 13.4419C71.1528 13.1233 71.1752 13.0979 71.4863 13.0951C71.9655 13.0923 72.4447 13.0923 72.9239 13.0923C73.1397 13.0923 73.3582 13.0923 73.574 13.0923C73.9327 13.0923 73.9439 13.1064 73.9439 13.456C73.9439 13.9636 73.9299 14.474 73.9439 14.9815C73.9692 15.8359 73.9467 16.6875 73.9551 17.5419C73.9607 18.1848 73.9439 18.8305 73.9411 19.4763C73.9355 20.9031 73.9411 22.3271 73.9411 23.7539C73.9411 24.4334 73.9299 25.1158 73.9495 25.7954C73.9608 26.2042 73.9411 26.6103 73.9411 27.0192C73.9411 27.2532 73.9075 27.2899 73.6721 27.2899C72.4587 27.2899 71.2481 27.2899 70.0346 27.2899C69.8721 27.2899 69.774 27.2306 69.7012 27.0756C68.8352 25.1948 67.9609 23.3196 67.0893 21.4416C66.683 20.5703 66.2795 19.6962 65.8731 18.8249C65.436 17.8859 64.9988 16.9497 64.556 16.0136C64.5112 15.9205 64.4832 15.8105 64.3711 15.7401C64.315 15.8557 64.3346 15.9656 64.3346 16.07C64.3346 19.6511 64.3346 23.2294 64.3346 26.8105C64.3346 27.2645 64.4019 27.2927 63.8638 27.2927C63.2025 27.2927 62.5439 27.2927 61.8826 27.2927C61.8181 27.2927 61.7565 27.2899 61.692 27.287C61.5603 27.2814 61.4958 27.2081 61.493 27.0784C61.4902 26.8613 61.4846 26.6413 61.4846 26.4242C61.4846 22.1071 61.4846 17.7929 61.4846 13.4758C61.4846 13.4476 61.4846 13.4222 61.4846 13.394C61.493 13.1261 61.5182 13.0979 61.7873 13.0979C62.6924 13.0951 63.5976 13.0951 64.5028 13.0951C64.8643 13.0951 65.2258 13.1007 65.5873 13.0951C65.761 13.0923 65.8675 13.1487 65.946 13.315C66.5653 14.6375 67.1902 15.96 67.818 17.2797C68.3784 18.4611 68.9473 19.637 69.5078 20.8185C69.9534 21.7518 70.3905 22.6908 70.8333 23.6242C70.8978 23.7595 70.9426 23.9118 71.0883 24.0499L71.0967 24.0415Z" fill="black"/>
<path d="M36.9417 20.2549C37.0398 20.3085 37.1407 20.331 37.2471 20.3536C37.4938 20.41 37.7376 20.4777 37.9645 20.5961C38.4129 20.8273 38.7016 21.2023 38.8753 21.6704C39.0603 22.1695 39.1191 22.694 39.2032 23.2128C39.3489 24.1349 39.4358 25.0683 39.6263 25.9847C39.7048 26.3682 39.7889 26.7488 39.9963 27.09C40.0775 27.2197 40.0467 27.2677 39.8982 27.2874C39.8449 27.2931 39.7889 27.2931 39.7356 27.2931C38.8753 27.2931 38.0178 27.2931 37.1575 27.2959C37.1042 27.2959 37.0482 27.2959 36.9949 27.2959C36.8016 27.2818 36.7623 27.2508 36.7343 27.0534C36.6755 26.6586 36.625 26.261 36.5746 25.8663C36.4317 24.7863 36.2775 23.7063 36.0758 22.6376C35.944 21.9355 35.5489 21.5999 34.8343 21.5858C33.9291 21.5717 33.024 21.5746 32.1216 21.5717C31.8526 21.5717 31.8246 21.6027 31.8246 21.8706C31.8246 23.3877 31.8246 24.9047 31.8246 26.4217C31.8246 26.622 31.8554 26.8193 31.8554 27.0195C31.8554 27.2451 31.8049 27.2959 31.5836 27.2959C30.7232 27.2987 29.8657 27.2959 29.0054 27.2959C28.8064 27.2959 28.7644 27.2536 28.7588 27.0562C28.7504 26.8024 28.756 26.5486 28.756 26.292C28.756 22.1498 28.756 18.0047 28.7532 13.8625C28.7532 13.6905 28.7532 13.5156 28.7588 13.3436C28.77 13.1462 28.8036 13.1152 29.0054 13.1011C29.0698 13.0955 29.1315 13.0955 29.1959 13.0955C31.096 13.0955 32.996 13.0842 34.896 13.1011C35.7086 13.1068 36.5241 13.1688 37.3004 13.448C38.6707 13.9414 39.4162 14.9537 39.632 16.3692C39.7749 17.2998 39.5507 18.1598 38.979 18.9099C38.5615 19.4597 37.9926 19.8094 37.3564 20.0547C37.2303 20.1026 37.1042 20.1562 36.9809 20.207C36.9669 20.2126 36.9613 20.2323 36.9417 20.2577V20.2549ZM31.7489 17.3082C31.7489 17.3082 31.7517 17.3082 31.7545 17.3082C31.7545 17.8806 31.7545 18.4502 31.7545 19.0227C31.7545 19.2821 31.7797 19.3046 32.0319 19.3046C32.6008 19.3074 33.1697 19.3074 33.7386 19.3046C34.0721 19.3046 34.4055 19.3074 34.739 19.2708C35.6022 19.1777 36.129 18.6871 36.4064 17.8863C36.569 17.421 36.5325 16.9558 36.37 16.499C36.1486 15.8786 35.703 15.5205 35.0585 15.419C34.8007 15.3795 34.5373 15.3569 34.2766 15.3541C33.5368 15.3457 32.7942 15.3513 32.0544 15.3541C31.7713 15.3541 31.7489 15.3767 31.7461 15.6671C31.7405 16.2113 31.7461 16.7556 31.7461 17.2998L31.7489 17.3082Z" fill="black"/>
<path d="M19.7968 12.8213C21.2232 12.8213 22.3918 13.0525 23.4903 13.608C24.1404 13.9379 24.6813 14.3975 25.1325 14.9643C26.0152 16.064 26.472 17.3414 26.657 18.7259C26.7242 19.2306 26.7691 19.7354 26.7579 20.2458C26.7214 21.681 26.4328 23.0571 25.8078 24.3542C25.1241 25.7725 24.0087 26.6946 22.5431 27.205C21.8285 27.4531 21.0915 27.5856 20.3376 27.6251C18.8188 27.7041 17.3895 27.3742 16.0836 26.5846C15.1084 25.9981 14.4078 25.1522 13.9482 24.1117C13.5503 23.2065 13.3541 22.2506 13.2701 21.2637C13.1636 20.0089 13.2869 18.7767 13.6092 17.567C13.8922 16.5011 14.377 15.5283 15.1364 14.7162C16.0024 13.7913 17.0729 13.2443 18.3059 12.9989C18.8664 12.889 19.4297 12.8072 19.7968 12.8241V12.8213ZM23.6024 20.1386C23.608 19.6367 23.5519 19.1404 23.4931 18.6441C23.409 17.9223 23.2157 17.2342 22.8457 16.6082C22.5207 16.0612 22.0863 15.6213 21.5146 15.3253C20.828 14.97 20.0994 14.9615 19.368 15.0687C18.3732 15.2125 17.6418 15.7708 17.1373 16.6364C16.7114 17.3668 16.5376 18.1732 16.4592 18.9994C16.3583 20.0625 16.3723 21.1227 16.5713 22.1745C16.7114 22.9161 16.9608 23.6126 17.4204 24.216C17.8575 24.7884 18.4124 25.1832 19.141 25.3157C19.637 25.406 20.1303 25.4285 20.6235 25.3524C21.4053 25.2339 22.0695 24.8956 22.5375 24.2329C22.8682 23.762 23.1148 23.2488 23.2773 22.6933C23.5183 21.8559 23.58 20.9986 23.6052 20.133L23.6024 20.1386Z" fill="black"/>
<path d="M58.15 27.29C57.7436 27.29 57.3373 27.29 56.9282 27.29C56.6647 27.29 56.6479 27.2702 56.5611 27.0221C56.278 26.179 55.9922 25.3359 55.7091 24.4928C55.6307 24.2559 55.6195 24.2418 55.3616 24.2418C53.669 24.2418 51.9792 24.2418 50.2866 24.2418C50.0568 24.2418 50.0315 24.2587 49.9559 24.4843C49.6756 25.2992 49.401 26.1169 49.1264 26.9347C49.0087 27.2815 48.9891 27.2956 48.6248 27.2956C47.9017 27.2956 47.1787 27.2956 46.4529 27.2956C46.4165 27.2956 46.3801 27.2956 46.3436 27.2956C46.1503 27.2815 46.1222 27.2449 46.1895 27.0531C46.3941 26.4807 46.6014 25.9083 46.806 25.3359C47.3357 23.8583 47.8653 22.3807 48.3978 20.9032C48.9582 19.3495 49.5187 17.7958 50.0792 16.2421C50.4183 15.3031 50.7518 14.3613 51.0936 13.4223C51.2085 13.1065 51.2281 13.0952 51.5672 13.0952C52.5256 13.0952 53.4841 13.0952 54.4425 13.098C54.7451 13.098 54.7675 13.1065 54.874 13.4026C55.1487 14.1808 55.4177 14.9619 55.6867 15.743C56.6283 18.4613 57.5671 21.1823 58.5059 23.9006C58.8618 24.9298 59.2177 25.959 59.5736 26.9883C59.5848 27.0221 59.5988 27.0559 59.6072 27.0926C59.638 27.2336 59.6156 27.2787 59.4699 27.2872C59.3158 27.2984 59.1616 27.2928 59.0103 27.2928C58.7217 27.2928 58.4302 27.2928 58.1416 27.2928V27.2872L58.15 27.29ZM52.9152 16.0532C52.8171 16.1378 52.8059 16.2421 52.7751 16.3323C52.251 17.8409 51.727 19.3523 51.2029 20.8609C51.1048 21.1429 51.0068 21.4277 50.9171 21.7125C50.8666 21.876 50.8919 21.907 51.0544 21.9211C51.0908 21.9239 51.1273 21.9211 51.1637 21.9211C52.2959 21.9211 53.4252 21.9211 54.5574 21.9239C54.8544 21.9239 54.8656 21.907 54.7731 21.6109C54.7647 21.5856 54.7563 21.5602 54.7479 21.532C54.5518 20.937 54.35 20.342 54.1594 19.7471C53.7923 18.6163 53.4308 17.4828 53.0665 16.3492C53.0329 16.2477 53.0245 16.1349 52.9208 16.0475L52.9152 16.0532Z" fill="black"/>
<path d="M10.2128 17.7537C9.81484 17.7537 9.41691 17.7537 9.01897 17.7537C8.71071 17.7537 8.6995 17.7452 8.65466 17.4463C8.59581 17.0459 8.48652 16.6681 8.29036 16.3128C7.9793 15.7517 7.52531 15.4105 6.88918 15.3061C5.60569 15.0918 4.59684 15.6981 4.02236 16.7527C3.64684 17.4407 3.42265 18.1795 3.34699 18.9521C3.20687 20.331 3.17884 21.7098 3.54595 23.0633C3.70849 23.6668 3.98312 24.211 4.4259 24.6678C5.42354 25.697 7.16381 25.525 7.95688 24.6734C8.35201 24.2505 8.58741 23.7739 8.67428 23.21C8.76396 22.615 8.68829 22.6968 9.25998 22.6911C10.0026 22.6855 10.7424 22.6883 11.4851 22.6883C11.5579 22.6883 11.6308 22.6911 11.7008 22.6911C11.841 22.6911 11.897 22.7701 11.8858 22.8998C11.869 23.0887 11.8578 23.2805 11.8269 23.4694C11.5075 25.5081 10.3053 26.7713 8.37163 27.3522C7.55334 27.5975 6.70982 27.6652 5.8495 27.5834C4.95554 27.4988 4.10082 27.3071 3.29654 26.901C2.50908 26.5063 1.88415 25.9282 1.37692 25.212C0.780021 24.3661 0.452144 23.4102 0.253176 22.4007C0.155094 21.8988 0.104651 21.394 0.0878369 20.8865C0.0373943 19.454 0.227955 18.0582 0.805242 16.7386C1.64595 14.8211 3.08076 13.603 5.1377 13.18C6.18858 12.9629 7.24508 12.9742 8.28195 13.2646C9.1759 13.5156 9.98018 13.9329 10.6191 14.6322C11.2469 15.3174 11.5915 16.1323 11.7345 17.0431C11.7569 17.1869 11.7737 17.3307 11.7793 17.4774C11.7877 17.7058 11.7485 17.7509 11.5159 17.7537C11.0815 17.7593 10.6471 17.7537 10.2128 17.7537Z" fill="black"/>
<path d="M44.7938 20.1979C44.7938 22.4143 44.7938 24.6306 44.7938 26.8498C44.7938 27.2925 44.7938 27.2925 44.3623 27.2925C43.6112 27.2925 42.8602 27.2925 42.1092 27.2925C42.0559 27.2925 41.9999 27.2925 41.9466 27.2897C41.8177 27.284 41.7449 27.2192 41.7392 27.0866C41.7336 26.9964 41.7336 26.9062 41.7336 26.8131C41.7336 23.2687 41.7364 19.727 41.7392 16.1826C41.7392 15.2915 41.7336 14.4005 41.7392 13.5122C41.7392 13.0977 41.7477 13.0949 42.1624 13.0611C42.2353 13.0554 42.3081 13.0526 42.3782 13.0582C42.919 13.0836 43.4599 13.1118 44.0036 13.0639C44.1997 13.047 44.3987 13.0864 44.5977 13.0949C44.7182 13.1005 44.7826 13.1541 44.7882 13.2754C44.791 13.3741 44.7938 13.4756 44.7938 13.5743C44.7938 15.7822 44.7938 17.99 44.7938 20.1979Z" fill="black"/>
<path d="M12.8918 10.391C12.023 10.391 11.2215 10.3515 10.4173 10.2979C9.17862 10.2161 7.95399 10.0526 6.73216 9.84956C5.70369 9.67755 4.70605 9.38993 3.72242 9.04028C2.89012 8.74421 2.10826 8.35508 1.39926 7.82496C0.869613 7.42737 0.424037 6.96211 0.183034 6.32766C-0.172867 5.38021 0.000880135 4.523 0.611796 3.74474C1.05177 3.18643 1.62905 2.7973 2.24557 2.45892C3.00221 2.04442 3.8121 1.7568 4.63599 1.50866C5.60001 1.21822 6.57803 1.00392 7.57287 0.862929C8.3239 0.758597 9.07494 0.634527 9.83438 0.603509C9.88762 0.603509 9.94928 0.603509 9.99411 0.580951C10.3108 0.400485 10.6695 0.490718 11.003 0.420224C11.045 0.411765 11.0926 0.420224 11.1375 0.425863C12.0651 0.575312 12.9982 0.46534 13.9258 0.499178C14.349 0.369468 14.7834 0.414584 15.2149 0.408945C15.369 0.408945 15.5204 0.408945 15.6465 0.524556C15.7221 0.59223 15.8286 0.603509 15.9295 0.606329C16.5909 0.623248 17.241 0.750138 17.894 0.823452C18.6674 0.910865 19.4297 1.06031 20.1863 1.24642C21.1279 1.47764 22.0499 1.77372 22.9354 2.17131C23.7677 2.54352 24.5244 3.0398 25.1213 3.74756C25.466 4.15643 25.6958 4.60477 25.6986 5.17719C25.7014 5.72422 25.6733 6.24588 25.3763 6.71961C25.1381 7.09746 24.8691 7.43865 24.502 7.70935C23.9163 8.14359 23.2913 8.49889 22.6384 8.8147C22.1059 9.0713 21.5371 9.21511 20.9794 9.38993C20.0798 9.66909 19.1607 9.86366 18.2275 9.98773C17.2971 10.1118 16.3667 10.2302 15.4279 10.2923C14.562 10.3487 13.696 10.3938 12.8918 10.3881V10.391ZM13.0179 9.8834C13.6176 9.86084 14.3742 9.82982 15.1336 9.79316C15.9183 9.75369 16.7058 9.71421 17.4848 9.60988C18.9673 9.41531 20.4329 9.13898 21.8425 8.62014C22.5403 8.36354 23.2241 8.08438 23.8406 7.65295C24.2834 7.34278 24.6729 6.97903 24.9475 6.51094C25.3483 5.82292 25.3623 5.12079 24.984 4.41021C24.757 3.98442 24.4207 3.65451 24.0508 3.36125C23.4399 2.87625 22.7365 2.56607 22.0191 2.2841C21.3185 2.00776 20.5955 1.81601 19.8584 1.66093C19.0345 1.4861 18.2106 1.33101 17.3755 1.22668C16.6301 1.13363 15.8819 1.09415 15.1336 1.05467C14.2761 1.00956 13.4158 0.958801 12.5611 0.981359C11.8381 1.0011 11.1151 1.00956 10.3949 1.06313C9.66624 1.11671 8.93202 1.15337 8.20901 1.25488C6.91992 1.43816 5.63644 1.6722 4.39219 2.06415C3.50103 2.34613 2.64071 2.70424 1.87286 3.25128C1.39366 3.58965 0.981708 3.99006 0.72389 4.53146C0.396014 5.2223 0.457666 5.88777 0.849997 6.52786C1.12463 6.97621 1.48894 7.33432 1.9205 7.63039C2.94617 8.33252 4.09514 8.74421 5.28054 9.04874C6.78821 9.43505 8.32951 9.67473 9.88482 9.76215C10.8769 9.81854 11.8689 9.87776 13.0235 9.88058L13.0179 9.8834Z" fill="black"/>
<path d="M77.6936 12.9824C79.0808 13.0022 80.0084 14.0004 80 15.2975C79.9916 16.634 78.9799 17.5758 77.7217 17.5984C76.4186 17.621 75.4013 16.5269 75.3873 15.289C75.3761 14.037 76.4354 12.9881 77.6936 12.9824ZM77.702 13.3857C76.7408 13.2898 75.788 14.24 75.7796 15.2862C75.7712 16.2646 76.6343 17.2008 77.6964 17.2093C78.6605 17.2177 79.6245 16.3774 79.6273 15.2918C79.6301 14.4064 78.8454 13.3123 77.702 13.3857Z" fill="black"/>
<path d="M18.0538 4.84175C18.0117 4.98838 18.0286 5.10681 18.0286 5.22524C18.0286 6.20652 18.0286 7.1878 18.0342 8.16627C18.0342 8.29879 18.0089 8.43978 18.1182 8.55257C18.1547 8.58923 18.1491 8.63999 18.1154 8.67664C18.0538 8.7415 18.0398 8.81763 18.0258 8.89941C18.0258 8.91633 18.0173 8.93606 18.0061 8.95016C17.9613 9.02348 17.4176 9.13909 17.3392 9.09115C17.2887 9.06013 17.2719 9.00656 17.2663 8.95298C17.2607 8.87121 17.2607 8.78944 17.2579 8.70766C17.2299 7.54591 17.3252 6.38417 17.2971 5.22242C17.2803 4.59643 17.2607 3.97044 17.2551 3.34445C17.2495 2.882 17.3168 2.41956 17.2943 1.95712C17.2859 1.79357 17.328 1.76255 17.4849 1.76819C17.5129 1.76819 17.5381 1.77383 17.5662 1.77947C18.0398 1.8415 18.0454 1.8415 18.1743 2.30113C18.4685 3.35009 18.76 4.39904 19.0514 5.448C19.0963 5.60591 19.1327 5.76382 19.2476 5.95838C19.256 5.80893 19.2644 5.70742 19.2644 5.60591C19.2644 4.54285 19.2644 3.4798 19.2644 2.41956C19.2644 2.03889 19.284 2.02197 19.6455 2.0981C19.6988 2.10938 19.752 2.12066 19.8025 2.13476C19.979 2.18834 20.0098 2.22499 20.0042 2.40264C19.9678 4.36521 19.9986 6.32495 19.9874 8.28752C19.9874 8.66819 19.9874 8.66819 19.6203 8.74432C19.2252 8.82609 19.228 8.82609 19.1215 8.44824C18.8076 7.34007 18.4909 6.2319 18.1771 5.12373C18.1519 5.03631 18.1378 4.94608 18.0566 4.84457L18.0538 4.84175Z" fill="black"/>
<path d="M13.783 5.45072C13.783 4.55121 13.783 3.65452 13.783 2.75501C13.783 2.583 13.7998 2.411 13.8222 2.23899C13.8754 1.86678 14.0856 1.65812 14.4471 1.5848C14.7722 1.51713 15.0945 1.52841 15.4195 1.56788C15.5961 1.59044 15.7782 1.60172 15.9492 1.67503C16.2799 1.81884 16.4648 2.06416 16.5041 2.41946C16.5181 2.53507 16.5181 2.65632 16.5181 2.77193C16.5181 4.55121 16.5125 6.33049 16.5209 8.10977C16.5265 8.8852 16.2574 9.17846 15.5092 9.27997C15.2038 9.32227 14.8955 9.32227 14.59 9.29125C14.1445 9.24332 13.8698 8.97262 13.8054 8.52427C13.7886 8.41712 13.7886 8.30715 13.7886 8.19718C13.7886 7.28075 13.7886 6.36432 13.7886 5.44508L13.783 5.45072ZM15.7867 5.44508C15.7867 4.664 15.7867 3.88292 15.7867 3.10184C15.7867 2.97495 15.7895 2.84806 15.7867 2.72117C15.7754 2.47303 15.7054 2.37998 15.47 2.30948C15.2766 2.25027 15.0748 2.25027 14.8787 2.28411C14.6825 2.31794 14.5676 2.45893 14.5508 2.66196C14.5452 2.72399 14.548 2.78885 14.548 2.8537C14.548 4.55967 14.548 6.26563 14.548 7.97442C14.548 8.03927 14.548 8.10131 14.548 8.16616C14.5648 8.41148 14.6657 8.53273 14.9039 8.56939C15.0272 8.58913 15.1561 8.58913 15.2822 8.58067C15.6746 8.55811 15.7867 8.43404 15.7867 8.03645C15.7867 7.1736 15.7867 6.31075 15.7867 5.4479V5.44508Z" fill="black"/>
<path d="M10.3052 5.43376C10.3052 4.27202 10.3052 3.11027 10.3052 1.94852C10.3052 1.61579 10.3444 1.56785 10.6723 1.55375C11.1403 1.53683 11.6083 1.47198 12.0791 1.50017C12.1435 1.50299 12.2052 1.50017 12.2696 1.50299C12.7853 1.53683 13.0011 1.77933 13.0431 2.29535C13.0907 2.90442 13.0963 3.51068 13.0711 4.11693C13.0431 4.82469 13.0487 5.53246 13.0347 6.24022C13.0263 6.62935 12.8273 6.88313 12.4546 7.00156C12.236 7.07205 12.009 7.07205 11.782 7.06923C11.6279 7.06923 11.4738 7.06359 11.3224 7.06923C11.101 7.07487 11.0702 7.10307 11.0674 7.32583C11.0618 7.82493 11.0674 8.32403 11.0674 8.82313C11.0674 8.91337 11.0674 9.0036 11.0674 9.09665C11.0618 9.22354 11.0002 9.29968 10.8656 9.3025C10.8572 9.3025 10.8488 9.3025 10.8376 9.3025C10.3556 9.33633 10.3108 9.29686 10.3108 8.81186C10.3108 7.68676 10.3108 6.56167 10.3108 5.43376H10.3052ZM12.3089 4.27765C12.3089 3.7137 12.3089 3.15256 12.3089 2.58861C12.3089 2.29535 12.2752 2.26433 11.9782 2.26151C11.7988 2.26151 11.6167 2.26151 11.4345 2.26715C11.087 2.26997 11.0702 2.28125 11.0702 2.63936C11.0702 3.756 11.0702 4.87263 11.073 5.98926C11.073 6.03438 11.073 6.07949 11.0786 6.12461C11.087 6.21766 11.1347 6.27688 11.23 6.28816C11.499 6.31635 11.768 6.35865 12.0398 6.33327C12.208 6.31635 12.2808 6.24304 12.3033 6.07667C12.3145 5.9949 12.3117 5.91313 12.3117 5.83135C12.3117 5.31251 12.3117 4.79649 12.3117 4.27765H12.3089Z" fill="black"/>
<path d="M8.53126 5.14352C8.53126 6.07969 8.53126 7.01585 8.53126 7.95202C8.53126 8.00559 8.53126 8.06199 8.53126 8.11556C8.54247 8.74155 8.24262 9.03481 7.58126 9.01789C7.16371 9.00661 6.75736 8.89946 6.36503 8.75283C6.12123 8.6626 5.96149 8.48777 5.88863 8.23399C5.83258 8.03943 5.80176 7.84487 5.80176 7.64466C5.80176 5.92742 5.80176 4.21017 5.80176 2.49293C5.80176 2.20813 5.81577 2.19403 6.0876 2.12354C6.14084 2.10944 6.19129 2.09534 6.24453 2.08406C6.51916 2.02485 6.5612 2.05586 6.5612 2.3463C6.5612 3.8718 6.5612 5.40012 6.5612 6.92562C6.5612 7.19914 6.5668 7.46983 6.5612 7.74335C6.55559 7.95766 6.65368 8.08455 6.85264 8.14658C7.04321 8.2058 7.23657 8.25091 7.43834 8.24809C7.66533 8.24527 7.75781 8.1635 7.75781 7.9351C7.75781 7.50931 7.79424 7.08353 7.79984 6.65492C7.81105 5.9387 7.81105 5.21965 7.79704 4.50061C7.78863 4.06636 7.76061 3.6293 7.76061 3.19505C7.76061 2.79464 7.83627 2.39988 7.79424 1.99665C7.78583 1.91769 7.81105 1.84438 7.89793 1.83028C8.04925 1.80208 8.20058 1.77953 8.35471 1.76543C8.464 1.75415 8.52285 1.819 8.52846 1.92897C8.53406 2.01075 8.53406 2.09252 8.53406 2.17429C8.53406 3.16404 8.53406 4.15378 8.53406 5.14634L8.53126 5.14352Z" fill="black"/>
<path d="M2.49769 5.40848C2.49769 4.83607 2.5061 4.26647 2.49489 3.69406C2.48929 3.45438 2.57336 3.30775 2.78914 3.2006C3.20389 2.99476 3.62424 2.81147 4.06421 2.67048C4.21274 2.62255 4.36127 2.59435 4.5182 2.631C4.81245 2.69586 5.00861 2.88196 5.03944 3.18086C5.07026 3.47694 5.08988 3.77865 5.07867 4.07473C5.03383 5.08985 5.06466 6.10497 5.05905 7.12009C5.05905 7.17366 5.06186 7.23006 5.07867 7.28082C5.1151 7.40207 5.19637 7.52614 5.12351 7.64739C5.00301 7.84759 4.90492 8.06753 4.68634 8.1916C4.54342 8.27338 4.3977 8.28748 4.24357 8.23672C3.72793 8.06471 3.2207 7.87861 2.7415 7.62201C2.56775 7.52896 2.49769 7.39925 2.5005 7.20468C2.5061 6.60689 2.5005 6.00628 2.5005 5.40848H2.49769ZM4.2828 5.42258C4.2828 5.1688 4.2828 4.91502 4.2828 4.66124C4.2828 4.35389 4.2884 4.04371 4.27439 3.73636C4.26598 3.51359 4.1623 3.44592 3.94932 3.51923C3.78678 3.57281 3.63265 3.64894 3.47292 3.71098C3.31879 3.77019 3.25153 3.87735 3.25433 4.04653C3.25994 4.30877 3.25433 4.57101 3.25433 4.83607C3.25433 5.4536 3.25433 6.06831 3.25433 6.68584C3.25433 6.84657 3.27675 7.00166 3.41687 7.09753C3.60463 7.22442 3.81761 7.30619 4.03339 7.37105C4.17631 7.41335 4.25478 7.34849 4.27719 7.19622C4.2856 7.13419 4.2856 7.06933 4.2856 7.0073C4.2856 6.48282 4.2856 5.95552 4.2856 5.43104L4.2828 5.42258Z" fill="black"/>
<path d="M21.7585 5.7776C21.7585 5.12341 21.7585 4.46922 21.7585 3.81504C21.7585 3.49076 21.7528 3.4823 21.439 3.36669C21.2764 3.30748 21.1139 3.2539 20.9486 3.20596C20.8253 3.16931 20.7692 3.09317 20.772 2.9691C20.772 2.85913 20.7664 2.75198 20.772 2.64201C20.7832 2.44462 20.8169 2.42207 21.0046 2.46154C21.4922 2.55742 21.963 2.7125 22.4058 2.93808C22.6972 3.08471 22.9803 3.24544 23.2717 3.39207C23.4287 3.47102 23.5071 3.58381 23.4791 3.76146C23.4595 3.87989 23.4679 3.9955 23.4819 4.11393C23.4903 4.18725 23.4931 4.26902 23.4175 4.30568C23.353 4.33669 23.297 4.28594 23.2465 4.2521C23.0868 4.14777 22.9326 4.0378 22.7673 3.94475C22.5739 3.83477 22.5151 3.86861 22.4927 4.09137C22.4843 4.17315 22.4871 4.25492 22.4871 4.33669C22.4871 5.10085 22.4815 5.86219 22.4871 6.62635C22.4871 6.92525 22.5151 7.22415 22.5207 7.52304C22.5235 7.86987 22.5151 7.87551 22.2012 7.99958C22.1256 8.0306 22.0527 8.06726 21.977 8.09546C21.8285 8.14903 21.7781 8.11801 21.7669 7.95447C21.7557 7.78246 21.7613 7.61046 21.7613 7.43563C21.7613 6.88295 21.7613 6.32746 21.7613 5.77478L21.7585 5.7776Z" fill="black"/>
<path d="M78.2626 15.3146C78.526 15.4838 78.5457 15.7545 78.5905 16.0111C78.6129 16.1352 78.6297 16.262 78.6465 16.3889C78.6634 16.544 78.6325 16.5807 78.4756 16.6004C78.2066 16.6343 78.1169 16.5609 78.1029 16.2818C78.0945 16.1267 78.0777 15.9744 78.0412 15.825C77.9908 15.6276 77.9431 15.5881 77.7442 15.5768C77.6825 15.574 77.6181 15.5768 77.5536 15.5768C77.4191 15.5768 77.3546 15.6445 77.3518 15.777C77.3518 15.9575 77.3518 16.1408 77.349 16.3213C77.3406 16.5525 77.2762 16.6117 77.0548 16.6032C76.8698 16.5948 76.811 16.5497 76.811 16.3551C76.8026 15.6389 76.8026 14.9227 76.8054 14.2036C76.8054 14.0203 76.8474 13.9752 77.0015 13.9752C77.3434 13.9724 77.6881 13.9442 78.0272 14.0147C78.2906 14.0683 78.5232 14.167 78.5905 14.4546C78.6634 14.7647 78.6213 15.0524 78.3271 15.2469C78.3131 15.2554 78.3018 15.2723 78.2626 15.3174V15.3146ZM77.3154 14.7535C77.3098 15.1257 77.3378 15.1511 77.7162 15.1229C77.7694 15.12 77.8255 15.1172 77.8759 15.1003C78.0384 15.0524 78.1169 14.9114 78.1001 14.714C78.0833 14.5222 78.0076 14.4405 77.8114 14.4236C77.7049 14.4151 77.5957 14.4207 77.4864 14.4236C77.3799 14.4236 77.3154 14.4771 77.3154 14.5899C77.3154 14.6435 77.3154 14.6999 77.3154 14.7535Z" fill="black"/>
</svg>
