<svg width="90" height="16" viewBox="0 0 90 16" fill="none" xmlns="http://www.w3.org/2000/svg">
<path d="M89.804 16C89.6254 16 89.4498 15.997 89.2712 15.997C59.7087 15.997 30.1433 15.997 0.580762 15.997C-0.0799519 15.997 0.00338147 16.0208 0.00338147 15.4256C0.000405276 10.4345 0.000405276 5.44048 0.000405276 0.449405C0.000405276 0.151786 0.150207 0.00297619 0.44981 0.00297619C4.21767 0.00297619 7.9885 0.00297619 11.7564 0.00297619C12.05 0.00297619 12.1968 0.155754 12.1968 0.461309C12.1968 4.08036 12.1968 7.69643 12.1968 11.3155C12.1968 11.5952 12.3347 11.7351 12.6105 11.7351C12.8903 11.7351 13.173 11.7232 13.4528 11.7381C13.6879 11.75 13.7623 11.6548 13.7593 11.4256C13.7534 10.1905 13.7504 8.95833 13.7593 7.72321C13.7623 6.97917 14.2653 6.39286 14.9855 6.26786C15.7772 6.12798 16.5689 6.77381 16.5748 7.58036C16.5837 8.84226 16.5837 10.1042 16.5718 11.3661C16.5718 11.6399 16.6403 11.7619 16.932 11.7381C17.2296 11.7173 17.5302 11.7292 17.8308 11.7351C18.0123 11.7381 18.0808 11.6577 18.0808 11.4821C18.0778 9.95833 18.173 8.4256 18.054 6.91369C17.8933 4.85714 15.801 4.11012 14.2355 5.00893C14.0956 5.08929 13.9677 5.30655 13.8159 5.21131C13.679 5.12798 13.7623 4.89881 13.7623 4.73214C13.7593 3.29167 13.7623 1.85417 13.7623 0.41369C13.7623 0.00297619 13.7623 0.00297619 14.1641 0.00297619C15.1462 0.00297619 16.1284 0.00297619 17.1105 0.00297619C32.1165 0.00297619 47.1254 0.00297619 62.1373 0.00297619C62.2206 0.00297619 62.307 0.00297619 62.3903 0.00297619C62.7742 0.00297619 62.7653 0.00297619 62.7653 0.392857C62.7653 4.07738 62.7653 7.75893 62.7593 11.4435C62.7593 11.6607 62.8367 11.744 63.054 11.7351C63.3724 11.7232 63.6909 11.7202 64.0064 11.7351C64.2593 11.747 64.3248 11.6399 64.3248 11.4048C64.3159 10.1696 64.3129 8.9375 64.3248 7.70238C64.3367 6.55357 65.4885 5.88095 66.4677 6.44643C66.8903 6.69048 67.1373 7.05952 67.1373 7.56845C67.1373 8.83036 67.1373 10.0923 67.1373 11.3542C67.1373 11.7262 67.1433 11.7292 67.5123 11.7292C67.801 11.7292 68.0927 11.7232 68.3814 11.7292C68.554 11.7321 68.6433 11.6726 68.6433 11.4881C68.6403 9.96428 68.6998 8.4375 68.6224 6.91667C68.5242 4.95833 66.3486 3.96726 64.673 5.07143C64.6195 5.10714 64.5659 5.14583 64.5123 5.18452C64.3933 5.27679 64.3248 5.25298 64.3189 5.09821C64.3189 5.04167 64.3189 4.98512 64.3189 4.92857C64.3189 3.41369 64.3189 1.89881 64.3189 0.383929C64.3189 0.00892856 64.3278 0 64.6879 0C72.9826 0 81.2802 0 89.5748 0C89.6492 0 89.7236 0.00595238 89.798 0.00892857V15.997L89.804 16ZM49.0004 8.2619C49.0004 7.20536 48.9974 6.14881 49.0034 5.09226C49.0034 4.86607 48.9319 4.76488 48.6968 4.77976C48.4915 4.79167 48.2861 4.77976 48.0808 4.77976C47.6611 4.77976 47.6581 4.77976 47.6075 5.1994C47.5837 5.38988 47.5183 5.40179 47.3814 5.28274C47.2623 5.18155 47.1314 5.08333 46.9944 5.00893C45.5599 4.23512 43.7802 4.67857 42.8189 6.04464C41.7177 7.60714 41.8992 9.5744 43.3278 10.8393C44.4498 11.8333 46.0242 12.0714 47.3099 10.878C47.3814 10.8125 47.4409 10.6696 47.551 10.7321C47.6641 10.7917 47.6105 10.9375 47.5956 11.0417C47.4766 11.8423 47.048 12.4345 46.3159 12.7619C45.5689 13.0982 44.8099 13.0298 44.176 12.5119C43.8635 12.256 43.5599 12.2054 43.2028 12.2232C42.9796 12.2321 42.7534 12.2351 42.5302 12.2411C42.2266 12.247 42.2028 12.2738 42.3427 12.5387C42.9677 13.7262 44.2325 14.378 45.5689 14.3452C46.4736 14.3214 47.2355 13.9494 47.8962 13.3631C48.5986 12.7351 49.0391 11.9732 49.0093 10.9851C48.9855 10.0804 49.0034 9.17262 49.0034 8.26488L49.0004 8.2619ZM26.5034 8.22917C26.5034 7.19048 26.4974 6.15476 26.5093 5.11607C26.5093 4.85714 26.4171 4.76488 26.1641 4.77976C25.9022 4.79464 25.6403 4.77976 25.3784 4.78274C25.0153 4.78274 24.9974 4.80655 24.9945 5.16369C24.9945 5.25 25.054 5.36905 24.9409 5.41667C24.8516 5.45536 24.795 5.35417 24.7325 5.30059C23.9409 4.63095 23.0421 4.5 22.0748 4.79464C19.4706 5.58333 18.6581 8.8869 20.5837 10.8125C21.673 11.9018 23.6016 12.256 24.7266 11.2024C24.7772 11.1548 24.8456 11.0863 24.923 11.119C25.0242 11.1607 24.9974 11.2649 24.9885 11.3423C24.9558 11.622 25.0867 11.7024 25.3486 11.6845C25.6195 11.6667 25.8903 11.6696 26.1611 11.6845C26.4141 11.6994 26.5064 11.6071 26.5034 11.3482C26.4915 10.3095 26.4974 9.27381 26.4974 8.23512L26.5034 8.22917ZM74.2296 8.81845C75.0064 8.81845 75.7831 8.81845 76.557 8.81845C76.7474 8.81845 76.8843 8.78869 76.8873 8.5506C76.9052 7.35417 76.5629 6.30357 75.6581 5.47619C74.6968 4.59524 73.0927 4.3869 71.9855 4.96429C70.2623 5.86607 69.6433 7.86905 70.2802 9.57738C71.1611 11.9405 74.0629 12.5685 75.8516 10.7917C76.1284 10.5149 76.3189 10.1875 76.5064 9.85417C76.6433 9.61012 76.6135 9.5744 76.3427 9.5744C75.9974 9.5744 75.6522 9.58333 75.307 9.57143C75.0986 9.5625 74.9468 9.61905 74.7861 9.76786C73.7177 10.747 72.1939 10.3155 71.67 9.19048C71.5331 8.89881 71.5808 8.82143 71.9022 8.82143C72.679 8.81845 73.4558 8.82143 74.2296 8.82143V8.81845ZM54.4409 8C54.4468 9.39881 54.8962 10.3512 55.801 11.0863C57.054 12.1071 59.0093 12.0298 60.173 10.9196C61.3575 9.79167 61.676 8.16369 61.0093 6.65179C60.4647 5.41964 59.0302 4.54762 57.7504 4.63095C55.7177 4.7619 54.3873 6.47917 54.4409 8ZM28.2504 8.22321C28.2504 9.27083 28.2534 10.3185 28.2474 11.3631C28.2474 11.5893 28.3189 11.6875 28.554 11.6756C28.8605 11.6607 29.173 11.6577 29.4796 11.6756C29.7325 11.6905 29.795 11.5923 29.7921 11.3512C29.7891 10.1101 29.798 8.86607 29.8129 7.625C29.8218 6.77679 30.6462 6.1131 31.4796 6.27083C32.2831 6.42262 32.7325 6.95833 32.7325 7.77679C32.7325 8.96429 32.7385 10.1518 32.7266 11.3393C32.7266 11.5982 32.8159 11.6905 33.0689 11.6756C33.3575 11.6607 33.6492 11.6607 33.9379 11.6756C34.173 11.6875 34.2474 11.5923 34.2444 11.3631C34.2355 9.93155 34.2444 8.50298 34.2355 7.07143C34.2325 6.625 34.1016 6.20536 33.8575 5.8244C33.0302 4.52976 31.2444 4.23214 29.9915 5.17262C29.9141 5.22917 29.8397 5.35714 29.7355 5.30357C29.6492 5.25893 29.6909 5.13095 29.6939 5.04167C29.7028 4.85119 29.6224 4.76786 29.429 4.77381C29.1671 4.78274 28.9052 4.77381 28.6433 4.77381C28.2504 4.77381 28.2474 4.77381 28.2474 5.15774C28.2474 6.1756 28.2474 7.19643 28.2474 8.21429L28.2504 8.22321ZM40.048 6.74405C40.1611 6.74405 40.2712 6.74405 40.3843 6.74405C40.9349 6.74405 40.9617 6.71131 40.7147 6.22024C40.1462 5.08333 39.1641 4.63988 37.9528 4.6756C37.0302 4.70238 36.2147 5.02679 35.7593 5.89583C35.2831 6.80059 35.3843 7.64583 36.2861 8.24702C36.7444 8.55357 37.2653 8.6994 37.798 8.81845C38.2355 8.91667 38.6909 8.93155 39.0986 9.1369C39.545 9.36012 39.5927 9.86012 39.2177 10.1875C38.7177 10.619 37.3635 10.5774 37.0629 9.64881C37.0093 9.47917 36.9111 9.43452 36.7534 9.4375C36.3992 9.44048 36.0421 9.44345 35.6879 9.4375C35.4468 9.43155 35.3992 9.55655 35.4379 9.75893C35.4885 10.0089 35.5629 10.247 35.6998 10.4643C36.2087 11.2708 36.9647 11.7083 37.8873 11.8185C39.0242 11.9524 40.0421 11.6994 40.6879 10.6488C41.3099 9.63393 41.1224 8.33333 39.8903 7.8006C39.4052 7.58929 38.8784 7.54167 38.3724 7.41369C38.0212 7.3244 37.6492 7.31845 37.3278 7.11607C36.9439 6.87202 36.9141 6.51488 37.2623 6.22024C37.7325 5.8244 38.6075 5.90179 39.0004 6.44345C39.2028 6.72321 39.42 6.76488 39.7058 6.74702C39.8189 6.74107 39.929 6.74702 40.0421 6.74702L40.048 6.74405ZM50.807 8.22917C50.807 9.27679 50.8099 10.3214 50.804 11.369C50.804 11.5982 50.8784 11.6935 51.1105 11.6815C51.3992 11.6696 51.6909 11.6815 51.9796 11.6786C52.3694 11.6786 52.3754 11.6726 52.3754 11.2917C52.3754 10.0685 52.3754 8.84524 52.3754 7.62202C52.3754 7.47321 52.3754 7.3244 52.42 7.17857C52.6165 6.52976 53.1314 6.26786 53.7296 6.13988C53.9439 6.09524 54.0093 6.0119 54.0034 5.80952C53.9915 5.49107 53.9974 5.1756 54.0034 4.85714C54.0034 4.66964 53.9141 4.60417 53.7385 4.63095C53.2802 4.70536 52.8486 4.83929 52.4885 5.14881C52.4349 5.19643 52.3933 5.28869 52.3099 5.2619C52.2206 5.23214 52.2534 5.13095 52.2564 5.0625C52.2742 4.83333 52.1552 4.77381 51.9498 4.77976C51.679 4.78869 51.4081 4.79464 51.1373 4.77976C50.8784 4.76488 50.798 4.86607 50.801 5.11905C50.8129 6.15476 50.807 7.19345 50.807 8.22917Z" fill="black"/>
<path d="M47.5421 8.17262C47.5421 9.27679 46.6373 10.2202 45.5778 10.2173C44.5302 10.2143 43.6581 9.29167 43.6492 8.17262C43.6432 7.11607 44.554 6.19048 45.6046 6.1875C46.6165 6.1875 47.5361 7.12798 47.5391 8.16964L47.5421 8.17262Z" fill="black"/>
<path d="M23.0599 10.2441C21.9527 10.25 21.0956 9.378 21.0896 8.2411C21.0837 7.10717 21.9527 6.21729 23.0718 6.21729C24.1224 6.21729 24.9646 7.10121 25.0033 8.18157C25.042 9.28276 24.1105 10.2917 23.0628 10.2441H23.0599Z" fill="black"/>
<path d="M73.4766 7.42245C72.9826 7.42245 72.4885 7.42245 71.9945 7.42245C71.7028 7.42245 71.6582 7.35698 71.801 7.1159C72.179 6.48198 72.7474 6.13376 73.4826 6.13674C74.2236 6.13971 74.8129 6.46709 75.182 7.13079C75.304 7.34805 75.2653 7.4165 75.0153 7.41948C74.5034 7.42543 73.9885 7.41948 73.4766 7.41948V7.42245Z" fill="black"/>
<path d="M57.9647 10.2471C56.9171 10.3215 56.0927 9.50897 55.9677 8.5804C55.7742 7.12207 56.7802 6.25004 57.7683 6.19945C58.8099 6.14588 59.7355 6.90183 59.8159 8.14588C59.8844 9.18159 59.0719 10.2292 57.9647 10.25V10.2471Z" fill="black"/>
</svg>
