<svg width="347" height="94" viewBox="0 0 347 94" fill="none" xmlns="http://www.w3.org/2000/svg">
<path d="M0.809377 0.120361H81.8594C81.8794 0.550361 81.9094 0.970371 81.9094 1.38037C81.9094 17.4304 81.9094 33.4804 81.9394 49.5304C81.9394 50.5004 81.6994 51.0404 80.7394 51.3204C76.9894 52.4104 73.2894 53.6604 69.5094 54.6404C66.3894 55.4404 63.2094 56.0503 60.0294 56.5403C57.3894 56.9503 54.7094 57.1604 52.0394 57.2804C46.9594 57.5104 41.8694 57.7903 36.7894 57.7303C32.8994 57.6803 28.9894 57.3304 25.1394 56.7804C20.2894 56.0904 15.4594 55.2204 10.6794 54.1304C7.55938 53.4204 4.55938 52.2304 1.52938 51.1703C1.19938 51.0504 0.859377 50.4304 0.839377 50.0304C0.759377 48.4404 0.809377 46.8404 0.809377 45.2404C0.809377 30.7104 0.809377 16.1704 0.809377 1.64038V0.110352V0.120361ZM25.1994 36.6104C25.2794 36.6504 25.3594 36.6903 25.4394 36.7303V46.9604H27.4094C27.4094 42.9504 27.3994 38.9804 27.4094 35.0104C27.4094 34.1904 27.4094 33.3504 27.6094 32.5704C27.8994 31.4704 28.3894 30.4304 28.7794 29.4004C27.2694 28.9304 26.5094 29.4003 26.0994 30.8503C25.8194 31.8403 25.2994 32.8804 24.5794 33.6104C23.3094 34.9004 23.5194 36.3404 23.6094 38.1504C24.2594 37.5204 24.7194 37.0704 25.1794 36.6204L25.1994 36.6104ZM44.6994 41.0204L44.7694 41.0504L44.8494 41.0304V47.1703H46.8994V40.0804C47.7594 40.7304 48.4194 41.2203 49.0894 41.7303C49.4694 39.6803 49.3894 39.1804 47.8094 38.4304C46.6494 37.8804 46.7894 37.1604 46.9294 36.1504H49.1494V34.0204H46.8394C46.8394 33.7304 46.8494 33.5004 46.8394 33.2704C46.7594 32.1604 46.7294 31.1304 48.3694 31.3904C48.5394 31.4204 48.9194 30.9903 48.9694 30.7203C49.0694 30.2003 48.9994 29.6404 48.9994 29.0904C46.5294 29.4204 44.2094 29.7303 41.8594 30.0403V32.1603C42.8294 32.0703 43.7294 31.9804 44.6394 31.8904V34.0403H41.4394C41.266 35.4803 41.856 36.2037 43.2094 36.2104C43.6194 36.2104 44.0394 36.2404 44.8194 36.2804C43.9094 37.7904 43.2894 39.1704 42.3494 40.2704C41.3894 41.3904 41.1394 42.4903 41.4594 43.9703C41.8994 43.6803 42.3094 43.5103 42.5994 43.2203C43.3294 42.5103 44.0094 41.7504 44.7194 41.0104L44.6994 41.0204ZM32.9894 46.9803C32.9894 47.0403 32.9894 47.1003 32.9894 47.1603C33.0494 47.1103 33.1094 47.0604 33.1694 47.0104H35.1794V40.7804C35.8694 41.9304 36.2094 43.1703 36.8494 44.2303C37.4794 45.2603 38.1694 46.4104 39.5794 46.7704C39.7094 45.3604 39.7494 44.1704 38.6894 43.1304C38.1394 42.5804 37.9394 41.6804 37.4894 40.7504H39.5594V38.3503H35.0594C35.0894 37.8303 35.1094 37.4104 35.1294 36.9504C35.8994 36.9504 36.5794 36.9504 37.2494 36.9504C38.9794 36.9504 39.0294 36.9004 39.0294 35.2504C39.0294 34.4104 39.0294 33.5704 39.0294 32.7404C39.0294 31.6104 39.0294 30.4704 39.0294 29.2504C35.8494 29.2504 32.8894 29.2304 29.9394 29.2804C29.7094 29.2804 29.3094 29.7404 29.2994 29.9904C29.2494 32.0204 29.2794 34.0604 29.2694 36.0904C29.2694 36.7804 29.6194 36.9804 30.2594 36.9504C31.1294 36.9204 31.9894 36.9504 32.8394 36.9504V38.4304H28.4294V40.8304H30.6494C29.8794 42.0304 29.3194 43.0504 28.6194 43.9504C28.0294 44.7104 27.8794 46.0403 28.4694 46.9103C30.3294 45.4803 31.6494 43.6804 32.1994 41.3604C32.2494 41.1504 32.4394 40.9704 32.5694 40.7804C32.6994 41.0104 32.9294 41.2403 32.9394 41.4803C32.9794 43.3103 32.9794 45.1503 32.9794 46.9803H32.9894ZM15.6894 30.7504C15.6594 30.0004 15.6294 29.4204 15.6094 28.8704H12.9694V30.7504C11.1294 30.7504 9.36938 30.7704 7.61938 30.7504C6.81938 30.7404 6.50938 31.0204 6.51938 31.8704C6.55938 35.5804 6.55938 39.2904 6.51938 43.0104C6.51938 43.9204 6.84938 44.1804 7.71938 44.1504C9.45938 44.1004 11.2094 44.1304 13.0494 44.1304V47.2404C13.5494 47.2404 13.9494 47.1904 14.3394 47.2404C15.4294 47.3904 15.7794 46.9104 15.6594 45.8804C15.5994 45.3104 15.6494 44.7204 15.6494 44.1104C17.5794 44.1104 19.3394 44.0804 21.0894 44.1204C21.8594 44.1404 22.1794 43.8604 22.1694 43.0904C22.1494 39.3404 22.1494 35.5904 22.1694 31.8304C22.1694 31.0004 21.8394 30.7003 21.0194 30.7203C19.2694 30.7603 17.5194 30.7303 15.6794 30.7303L15.6894 30.7504ZM66.9494 39.4604C67.8994 41.0304 68.7694 42.4703 69.6694 43.9703C69.1894 44.2203 68.6994 44.6203 68.1494 44.7203C66.6094 44.9903 66.5694 45.9704 66.9094 47.4404C68.1894 46.9704 69.5194 46.6504 70.6594 45.9904C71.3394 45.5904 71.7094 45.6504 72.3294 45.9404C73.4994 46.5004 74.7394 46.9403 76.0694 47.4703V45.1703C75.1694 44.7703 74.3194 44.4003 73.3494 43.9803C73.6494 43.5703 73.8994 43.2304 74.1394 42.8904C75.2894 41.3004 76.0794 39.5904 76.1194 37.5804C76.1394 36.7704 75.8794 36.4004 75.0194 36.4604C74.1994 36.5104 73.3694 36.4703 72.5894 36.4703V33.7704H75.8194V31.6804H72.4994V29.1003H70.3194V31.7104H67.0494V33.8804H70.2594V36.5304H67.0494V38.6003H73.8294C73.0494 40.0803 72.4094 41.3204 71.6394 42.7804C70.9294 41.9104 70.1894 41.3804 69.9994 40.7004C69.5394 39.0804 68.4594 39.2404 66.9394 39.4604H66.9494ZM60.2394 31.7504C60.2994 32.4104 60.1294 33.2704 60.4494 33.5204C60.9294 33.9004 61.7394 33.8504 62.3994 33.9904V38.3004C61.5894 38.5504 60.8194 38.7904 60.1094 39.0104V41.2804C60.9094 41.0904 61.6394 40.9104 62.4494 40.7104C62.4494 41.6604 62.4494 42.4504 62.4494 43.2504C62.4494 44.5304 61.8327 45.2703 60.5994 45.4703V47.2004C60.7794 47.2204 60.8994 47.2504 61.0094 47.2504C61.5294 47.2504 62.0494 47.2604 62.5694 47.2504C63.7994 47.2304 64.3594 46.6804 64.3694 45.4404C64.3794 44.2804 64.4794 43.1103 64.3394 41.9703C64.1594 40.5203 64.5694 39.6504 66.1194 39.5104C66.1694 39.5104 66.2094 39.3904 66.2194 39.3704V37.1904C65.5994 37.3704 65.0494 37.5304 64.4494 37.7004V33.7903H66.2294V31.9004C65.5494 31.6504 64.6694 31.5904 64.4494 31.1804C64.1594 30.6304 64.3794 29.8103 64.3794 29.1003H62.5194C62.3794 30.7603 61.6194 31.6404 60.2394 31.7404V31.7504ZM49.7794 43.6804C51.6694 43.2604 53.4194 42.8803 55.2794 42.4703V47.1703H57.4094V42.1104C58.4294 41.7304 59.0494 40.2504 58.4694 39.6304C58.2094 39.5904 57.9194 39.5403 57.5494 39.4803V29.1204H55.2494V40.1804C53.3694 40.6004 51.5794 40.9904 49.7694 41.3904V43.6703L49.7794 43.6804ZM50.2094 30.0904C50.2094 30.7704 50.1494 31.2204 50.2294 31.6404C50.2994 32.0604 50.3794 32.6704 50.6694 32.8304C51.7894 33.4904 52.9794 34.0004 54.2994 34.6404C54.2994 33.9604 54.3394 33.4504 54.2894 32.9504C54.2494 32.5504 54.2194 31.9404 53.9694 31.8104C52.8194 31.1904 51.5994 30.7104 50.2194 30.0904H50.2094ZM50.2594 34.7404V37.3604C51.5494 37.9804 52.8394 38.5904 54.2394 39.2604V36.6304C52.9094 36.0004 51.6294 35.3904 50.2594 34.7404Z" fill="#030000"/>
<path d="M154.779 42.4606H151.999V46.9606H156.269V45.7406C156.269 37.7606 156.269 29.7706 156.269 21.7906C156.269 19.6006 157.389 18.3906 159.179 18.2306C162.269 17.9606 165.399 18.0206 168.499 18.2206C170.769 18.3706 171.839 19.6006 171.879 22.5606C171.979 30.3006 171.909 38.0506 171.909 45.7906V46.9306H176.139V42.7206H173.429V37.2606H176.359V32.9406H173.389V27.4306H176.429C176.429 26.2406 176.489 25.1306 176.389 24.0406C176.359 23.7606 175.809 23.3906 175.459 23.3206C174.809 23.2006 174.119 23.2906 173.379 23.2906V18.2606C175.439 18.2606 177.509 18.2006 179.569 18.2806C180.759 18.3306 181.039 19.2306 181.039 20.2806C181.029 25.3506 181.039 30.4206 181.039 35.4906V47.1806C181.589 47.2206 182.089 47.2506 182.629 47.2906V51.9006H176.019C177.149 53.2806 178.499 53.9106 179.909 54.3506C180.589 54.5606 180.779 54.8306 180.759 55.4906C180.719 56.9606 180.749 58.4306 180.749 60.0106C178.449 59.5906 176.429 58.7306 174.609 57.5006C172.709 56.2206 171.179 54.5506 170.199 52.4206C170.089 52.1906 169.709 51.9506 169.449 51.9506C165.809 51.9206 162.169 51.9206 158.529 51.9506C158.249 51.9506 157.809 52.1706 157.729 52.3906C156.429 55.9506 153.449 57.6906 150.299 59.2206C149.579 59.5706 148.789 59.7506 147.909 60.0506V54.6006C149.229 53.8706 150.619 53.1006 152.009 52.3306C151.969 52.2106 151.929 52.0806 151.889 51.9606H145.459C145.459 50.7406 145.459 49.6706 145.459 48.6006C145.459 47.5672 146.012 47.0272 147.119 46.9806C147.169 46.2306 147.249 45.4706 147.249 44.7106C147.249 36.6906 147.249 28.6606 147.249 20.6406C147.249 20.2006 147.339 19.7606 147.319 19.3306C147.279 18.5506 147.739 18.2606 148.399 18.2606C150.509 18.2306 152.619 18.2606 154.769 18.2606V23.3306C154.399 23.3306 154.049 23.3306 153.709 23.3306C151.419 23.3306 151.709 23.0906 151.699 25.4006C151.699 25.7206 151.729 26.0406 151.699 26.3606C151.619 27.1306 151.909 27.4706 152.719 27.4106C153.389 27.3606 154.059 27.4006 154.779 27.4006V32.6706H151.759V37.2206H154.779V42.4906V42.4606ZM160.119 33.1206C161.179 32.8006 162.209 32.3506 163.299 32.1806C165.089 31.9006 166.679 32.6306 168.209 33.6606V29.4106H159.949V33.0906C159.949 33.1506 159.949 33.2106 159.949 33.2706C160.009 33.2206 160.069 33.1706 160.119 33.1206ZM168.269 25.7406C168.269 25.2906 168.309 24.8506 168.269 24.4306C168.029 22.4406 167.899 22.3406 165.829 22.3406C164.829 22.3406 163.829 22.3706 162.839 22.3406C159.479 22.2006 159.889 22.7706 159.899 25.4806C159.899 25.5506 159.959 25.6206 160.009 25.7506H168.279L168.269 25.7406ZM163.839 35.7506C162.109 35.7506 161.079 36.7006 161.069 38.3306C161.059 39.9106 162.359 41.2806 163.859 41.2606C165.229 41.2406 166.579 39.8306 166.589 38.4206C166.589 36.8106 165.509 35.7506 163.839 35.7506ZM168.209 43.0906C165.519 45.0006 162.799 45.2306 159.929 43.5306V47.0006H168.209V43.0906Z" fill="#030000"/>
<path d="M120.099 59.6802V52.7502H114.169C111.649 52.7502 109.129 52.7502 106.609 52.7502C105.339 52.7502 104.909 52.3202 104.909 51.0602C104.909 41.8802 104.929 32.7002 104.949 23.5202C104.949 22.5202 105.469 22.1502 106.939 22.1402C109.539 22.1202 112.139 22.1402 114.739 22.1402C116.459 22.1402 118.179 22.1402 120.019 22.1402V17.2002H125.799V22.1402C129.979 22.1402 134.049 22.1402 138.119 22.1402C140.449 22.1402 140.799 22.4802 140.799 24.7702C140.799 33.3102 140.799 41.8602 140.799 50.4002C140.799 52.3302 140.359 52.7702 138.439 52.7702C134.289 52.7702 130.129 52.7702 125.879 52.7702V59.7302H120.299C120.239 59.6702 120.179 59.6602 120.109 59.7002L120.099 59.6802ZM109.949 27.6902V47.1702H120.009V27.6902H109.949ZM125.899 27.6402V47.2402C128.959 47.2402 131.959 47.2302 134.949 47.2402C135.759 47.2402 135.989 46.8402 135.989 46.1302C135.989 40.3102 135.989 34.4902 135.989 28.6602C135.989 27.8902 135.649 27.6102 134.889 27.6102C131.939 27.6302 128.979 27.6102 125.899 27.6102V27.6402Z" fill="#030000"/>
<path d="M226.839 58.9004V53.8704H240.959V46.2604H228.799V41.2304H240.939V34.5904H228.749V30.0604C227.539 30.1404 226.419 30.2204 225.209 30.3004V25.5304C228.299 25.1004 230.879 23.6404 233.049 21.3104C233.989 20.3004 235.179 19.4804 236.349 18.7304C236.929 18.3604 237.719 18.1804 238.419 18.1704C241.859 18.1104 245.299 18.1104 248.739 18.1604C250.949 18.1904 252.729 19.3504 254.049 20.9704C256.199 23.6004 258.759 25.3004 262.269 25.5304V30.0704H258.509V34.5104H246.529V41.2204H258.629V46.2104H246.509V53.8204H260.439V58.9204H226.839V58.9004ZM231.159 29.1004C230.919 29.1704 230.669 29.2504 230.429 29.3204C230.449 29.3804 230.459 29.4504 230.479 29.5104C230.779 29.4904 231.089 29.4704 231.389 29.4504C239.619 29.4504 247.849 29.4504 256.069 29.4504C256.289 29.4604 256.499 29.4804 256.719 29.4904C256.729 29.4404 256.749 29.3804 256.759 29.3304C256.529 29.2404 256.299 29.1604 256.069 29.0704C253.789 27.9604 251.779 26.5304 250.159 24.5404C249.689 23.9604 248.869 23.4804 248.129 23.3304C246.909 23.0804 245.629 23.0904 244.379 23.0604C242.949 23.0204 241.489 22.9204 240.079 23.1004C239.139 23.2204 237.949 23.5404 237.389 24.2004C235.629 26.2904 233.499 27.8304 231.139 29.1004H231.159Z" fill="#030000"/>
<path d="M81.8692 84.4707V93.6607H0.90918V84.4707H81.8692Z" fill="#030000"/>
<path d="M222.02 59.2005C216.93 55.7505 214.05 50.8805 212.87 44.9005H211.58V59.4205H206.74V44.9205H205.26C204.1 50.8105 201.37 55.7905 196.06 59.3005C196.06 57.4105 195.91 55.6805 196.13 54.0005C196.24 53.1805 196.97 52.3905 197.56 51.7005C199.24 49.7105 200.22 47.4005 200.85 44.8505H196.42V39.6305H206.6V35.9505C204.33 35.9505 202.11 35.9505 199.88 35.9505C198.42 35.9505 198.25 35.8105 198.24 34.4205C198.23 29.6305 198.25 24.8405 198.22 20.0505C198.22 18.9305 198.64 18.5205 199.78 18.5205C206.18 18.5605 212.57 18.5405 218.97 18.5405C220.1 18.5405 220.62 19.0405 220.63 20.2005C220.65 24.8705 220.65 29.5405 220.63 34.2105C220.63 35.4905 220.12 35.9505 218.81 35.9505C216.42 35.9505 214.02 35.9505 211.55 35.9505V39.5105H221.95V44.6505H217.23C218.03 47.8905 219.41 50.5305 221.61 52.7505C222.05 53.1905 222.3 53.9605 222.35 54.6005C222.46 56.0305 222.38 57.4705 222.38 58.9105C222.26 59.0105 222.14 59.1005 222.02 59.2005ZM203.15 30.9305C203.15 30.9905 203.15 31.0505 203.15 31.1105C203.23 31.0905 203.31 31.0605 203.39 31.0405C207.22 31.0505 211.05 31.0405 214.88 31.0805C215.57 31.0805 215.77 30.8405 215.76 30.1705C215.72 28.2205 215.73 26.2705 215.76 24.3205C215.77 23.6705 215.58 23.3905 214.89 23.4005C211.06 23.4305 207.23 23.4305 203.4 23.4405C203.32 23.4205 203.24 23.3905 203.15 23.3705C203.15 23.4305 203.15 23.4905 203.15 23.5505V30.9305Z" fill="#030000"/>
<path d="M337.7 35.0301C339.69 35.0301 341.61 35.0101 343.52 35.0301C344.98 35.0501 345.9 35.66 345.88 37.36C345.82 42.21 344.04 46.3601 341.14 50.1201C340.59 50.8301 339.99 51.5101 339.3 52.3401C341.62 53.3401 343.91 54.32 346.32 55.36C346.32 56.52 346.32 57.8401 346.32 59.1501C346.32 59.8301 346.06 60.0201 345.34 59.8301C342.08 58.9701 338.93 57.8801 336.13 55.9401C335.89 55.7801 335.34 55.8301 335.06 56.0001C332.19 57.7901 329.04 58.88 325.83 59.86C325.46 59.97 325.04 59.9301 324.56 59.9601V55.6401C326.89 54.5701 329.23 53.5001 331.78 52.3401C328.77 49.1901 326.73 45.9 325.33 41.98C327.03 41.98 328.6 41.9601 330.17 42.0101C330.36 42.0101 330.61 42.3801 330.71 42.6201C331.74 45.1401 333.3 47.2801 335.28 49.2801C337.76 46.8601 339.2 43.9701 340.06 40.7601C340.12 40.5401 339.78 40.0901 339.51 39.9501C339.22 39.8001 338.81 39.86 338.46 39.86C334.38 39.86 330.3 39.86 326.22 39.86H325.01V35.04H332.83V28.7801H325.15V24.1801H332.87V18.0801H337.6V24.11H345.74V28.73H337.71V35.04L337.7 35.0301Z" fill="#030000"/>
<path d="M273.34 45.3C272.04 46.81 270.81 48.38 269.43 49.81C268.52 50.76 267.42 51.52 266.15 52.58C266.15 50.36 265.9 48.4 266.25 46.55C266.45 45.5 267.65 44.64 268.4 43.69C270.58 40.9 272.139 37.8 273.139 34.31H265.979V29.66H273.62V24.54C271.38 24.79 269.099 25.04 266.729 25.3V20.5C272.279 19.75 277.82 19.01 283.44 18.25C283.44 19.46 283.44 20.57 283.44 21.69C283.44 23.28 283.36 23.36 281.74 23.53C281.2 23.59 280.66 23.71 280.12 23.75C279.57 23.79 279.019 23.75 278.409 23.75V29.6H283.69V34.25H278.159C278.159 35.56 278.13 36.78 278.19 38C278.19 38.22 278.51 38.48 278.74 38.64C280.21 39.64 281.709 40.59 283.159 41.61C283.429 41.8 283.649 42.25 283.659 42.58C283.709 44.17 283.68 45.75 283.68 47.37C281.96 46.08 280.279 44.82 278.359 43.37V59.51H273.72V45.39C273.68 45.22 273.639 45.05 273.599 44.88C273.509 45.02 273.419 45.15 273.329 45.29L273.34 45.3Z" fill="#030000"/>
<path d="M310.37 59.9403V55.3903C311.08 55.3903 311.75 55.4003 312.42 55.3903C313.79 55.3603 314.56 54.7003 314.58 53.3603C314.63 50.5703 314.59 47.7803 314.59 44.7503C312.81 45.2303 311.14 45.6703 309.39 46.1403V40.8603C310.8 40.4503 312.26 40.0503 313.7 39.5603C314.05 39.4403 314.54 39.0203 314.55 38.7403C314.61 35.4803 314.59 32.2103 314.59 28.8003C313.22 28.8003 311.92 28.7703 310.61 28.8103C309.82 28.8403 309.54 28.5503 309.58 27.7703C309.63 26.8103 309.62 25.8503 309.58 24.9003C309.56 24.2203 309.85 23.9903 310.51 24.0003C311.82 24.0303 313.14 24.0003 314.55 24.0003V18.0703H319.29V24.0903H323.38C323.38 25.5203 323.42 26.8703 323.34 28.2003C323.33 28.4103 322.81 28.7403 322.51 28.7603C321.48 28.8303 320.44 28.7903 319.36 28.7903V37.8403C320.66 37.4903 321.89 37.1603 323.22 36.8103V42.1003C321.96 42.4803 320.65 42.8803 319.3 43.2803C319.3 46.8903 319.33 50.4803 319.29 54.0703C319.27 55.6303 319.06 57.1603 318.11 58.5003C317.35 59.5603 316.18 59.8103 315.04 59.9103C313.5 60.0303 311.95 59.9403 310.35 59.9403H310.37Z" fill="#030000"/>
<path d="M303.14 42.4608C303.91 42.3308 304.68 42.1908 305.64 42.0308C305.64 43.5908 305.67 45.0808 305.61 46.5708C305.61 46.8008 305.22 47.1208 304.95 47.2208C304.31 47.4708 303.63 47.6108 302.93 47.8108V59.8708H297.57V48.9208C293.39 49.8508 289.33 50.7508 285.12 51.6908C285.12 50.0308 285.09 48.5308 285.15 47.0208C285.15 46.7708 285.48 46.3608 285.72 46.3108C289.62 45.4508 293.53 44.6408 297.5 43.8108V18.3408H302.95V42.6108C303.02 42.5608 303.08 42.5108 303.14 42.4608Z" fill="#030000"/>
<path d="M189.259 35.3208C187.989 36.3508 186.619 37.4608 185.299 38.5408C185.299 36.5308 185.139 34.2708 185.379 32.0508C185.479 31.1308 186.369 30.2508 186.999 29.4408C189.519 26.2508 191.179 22.6408 192.349 18.8008H197.209C196.389 21.0708 195.579 23.2108 194.839 25.3908C194.529 26.2908 194.209 27.2508 194.199 28.1808C194.139 33.3708 194.169 38.5508 194.169 43.7408V59.3808H189.249V35.3208H189.259Z" fill="#030000"/>
<path d="M44.4491 71.5906C44.4691 66.0506 47.9491 63.0006 54.3091 63.0806C57.9791 63.1206 62.1691 66.4806 61.9591 72.0306C61.7791 76.8706 57.9691 80.5306 53.1091 80.5106C48.3491 80.5006 44.3491 76.6506 44.4491 71.5906ZM53.1991 66.6506C50.7091 66.0306 48.0591 69.0206 48.0391 71.4906C48.0191 74.3706 50.8491 76.7406 52.9491 76.7506C55.7391 76.7706 58.2591 74.8006 58.3591 71.6706C58.4491 68.9706 56.2391 66.3406 53.1891 66.6506H53.1991Z" fill="#030000"/>
<path d="M60.2197 63.6308C60.5197 63.5808 60.6397 63.5408 60.7597 63.5408C62.8664 63.4608 64.3864 64.3641 65.3197 66.2508C66.1697 67.9808 67.0297 69.7108 67.9797 71.6208C68.2597 71.2108 68.5097 70.9408 68.6697 70.6208C69.6997 68.5208 70.6797 66.3908 71.7497 64.3108C71.9297 63.9508 72.4697 63.6008 72.8697 63.5608C73.9697 63.4608 75.0897 63.5208 76.2597 63.5208V79.6908H73.0497V70.1208C72.9397 70.0908 72.8397 70.0608 72.7297 70.0308C71.2097 73.1408 69.6897 76.2508 68.0197 79.6408C65.3497 74.1608 62.8197 68.9508 60.2197 63.6108V63.6308Z" fill="#030000"/>
<path d="M45.9193 77.7002C42.1793 81.4002 36.8593 81.4702 33.4193 77.9602C29.7593 74.2302 29.8393 69.1902 32.8793 65.9702C36.6393 61.9902 42.5593 61.8902 45.9093 65.4502C45.3593 66.3502 44.7993 67.2702 44.1793 68.2902C42.6993 67.0902 41.0493 66.5602 39.1593 66.6302C36.7493 66.7202 34.6793 68.6902 34.5993 71.1502C34.5193 73.7902 35.5993 75.5302 38.0593 76.4802C39.9993 77.2302 41.7693 76.4602 43.3493 75.4302C44.2093 74.8702 44.4793 75.0602 44.8493 75.8102C45.1593 76.4402 45.5493 77.0402 45.9193 77.6902V77.7002Z" fill="#030000"/>
<path d="M17.7491 63.4503V66.8603C15.6991 66.8603 13.7091 66.8603 11.7191 66.8603C10.7791 66.8603 9.90914 66.9703 9.90914 68.1703C9.90914 69.3203 10.6991 69.5403 11.6891 69.5503C12.9091 69.5703 14.1291 69.6703 15.3491 69.7903C16.6591 69.9303 17.7691 70.9303 18.0391 72.2803C18.4691 74.3903 18.6791 76.5103 17.2991 78.3903C16.6291 79.3003 15.7391 79.8803 14.4891 79.8503C11.9391 79.8003 9.38914 79.8303 6.74914 79.8303V76.6103C8.73914 76.6103 10.6891 76.5503 12.6291 76.6303C14.5191 76.7103 14.9791 75.4403 14.6191 73.8703C14.3991 72.9203 13.5191 72.9703 12.8191 72.9103C11.9091 72.8203 10.9791 72.8903 10.0691 72.8903C8.52914 72.8903 7.41914 72.0803 6.83914 70.7703C5.91914 68.7103 6.11914 66.5703 7.46914 64.8003C8.02914 64.0703 9.26914 63.5803 10.2291 63.5103C12.6891 63.3303 15.1791 63.4503 17.7491 63.4503Z" fill="#030000"/>
<path d="M30.2496 69.6309V72.8608H22.6696V76.5009H30.2196V79.7609H19.3496V69.6409H30.2496V69.6309Z" fill="#030000"/>
<path d="M137.3 66.6509C136.7 68.7409 136.09 70.5908 135.67 72.4908C135.48 73.3608 135.18 73.5808 134.31 73.6408C133.03 73.7308 132.38 73.3908 131.98 72.0808C131.15 69.4108 130.1 66.8008 129.09 64.0108C129.71 64.0108 130.19 64.0608 130.65 64.0008C131.32 63.9108 131.62 64.1908 131.8 64.8208C132.33 66.6408 132.91 68.4508 133.49 70.2608C133.55 70.4508 133.77 70.5908 134.02 70.8708C134.68 68.5108 135.31 66.2908 135.94 64.0508H138.65C139.39 66.3208 140.14 68.6208 141.01 71.2608C141.79 68.6608 142.48 66.3908 143.18 64.0608H145.53C144.92 65.8908 144.34 67.6708 143.73 69.4308C143.37 70.4808 142.9 71.5108 142.62 72.5808C142.44 73.2908 142.23 73.7609 141.41 73.5909C140.62 73.4209 139.55 74.1708 139.19 72.6108C138.75 70.6608 137.99 68.7808 137.29 66.6408L137.3 66.6509Z" fill="#030000"/>
<path d="M225.14 67.1308C224.32 69.2608 223.51 71.3908 222.68 73.5508H220.21C219.46 71.4408 218.7 69.2808 217.93 67.1308C217.85 66.9108 217.77 66.6908 217.69 66.4808C217.62 66.5008 217.56 66.5108 217.49 66.5308C217.52 66.7208 217.55 66.9208 217.58 67.1108V73.5108H215.6V64.0808H218.79C219.61 66.3408 220.45 68.6508 221.39 71.2408C222.35 68.6608 223.21 66.3708 224.07 64.0508H227.43V73.5308H225.41C225.41 71.4008 225.41 69.2608 225.41 67.1208C225.47 66.9408 225.53 66.7608 225.59 66.5908C225.51 66.5608 225.43 66.5408 225.35 66.5108C225.28 66.7208 225.21 66.9308 225.14 67.1408V67.1308Z" fill="#030000"/>
<path d="M257.359 67.1504V73.5304H255.329V64.0104C256.239 64.0104 257.179 63.9704 258.109 64.0404C258.329 64.0604 258.609 64.4504 258.719 64.7204C259.519 66.7904 260.279 68.8804 261.169 71.2704C261.869 69.2704 262.499 67.5504 263.079 65.8204C263.689 64.0104 263.669 64.0004 265.579 64.0004C266.089 64.0004 266.589 64.0004 267.139 64.0004V73.5004H265.149V66.8404C265.099 66.8404 265.049 66.8404 264.999 66.8304C264.899 67.0804 264.809 67.3304 264.709 67.5804C263.959 69.5504 263.209 71.5104 262.439 73.5204C262.439 73.5204 262.359 73.5704 262.289 73.5704C259.999 73.6504 260.009 73.6404 259.229 71.4804C258.699 70.0204 258.109 68.5704 257.539 67.1204C257.519 66.9804 257.499 66.8404 257.479 66.6904C257.439 66.6904 257.389 66.6904 257.349 66.7004C257.349 66.8404 257.369 66.9904 257.379 67.1304L257.359 67.1504Z" fill="#030000"/>
<path d="M293.28 66.7003V73.5103H291.05V64.1303C292.76 63.7403 294.08 63.9303 294.94 65.7503C295.69 67.3503 296.8 68.7803 298.02 70.2503V64.0603H300.23V73.4603C298.35 74.0703 297.17 73.3203 296.29 71.7203C295.4 70.0903 294.37 68.5203 293.27 66.7103L293.28 66.7003ZM298.2 70.5803C298.2 70.5803 298.14 70.4903 298.13 70.5003C298.06 70.5203 298 70.5603 297.94 70.5903C297.96 70.6203 298 70.6703 298.01 70.6703C298.07 70.6503 298.13 70.6103 298.19 70.5803H298.2Z" fill="#030000"/>
<path d="M159.509 67.1099V73.5199H157.319V64.0199C158.099 64.0199 158.859 63.9499 159.599 64.0499C159.949 64.0999 160.349 64.4299 160.559 64.7499C161.629 66.3799 162.639 68.0399 163.689 69.6899C163.829 69.9199 164.029 70.1099 164.429 70.5999V64.1099H166.559V73.5299H163.869C162.549 71.4399 161.199 69.2999 159.849 67.1599C159.759 66.9999 159.659 66.8399 159.569 66.6799C159.549 66.8299 159.539 66.9699 159.519 67.1199L159.509 67.1099ZM164.399 70.5999C164.399 70.5999 164.349 70.5299 164.329 70.5299C164.299 70.5299 164.269 70.5699 164.249 70.5899C164.269 70.6199 164.299 70.6599 164.319 70.6599C164.349 70.6599 164.379 70.6199 164.399 70.5999Z" fill="#030000"/>
<path d="M213.859 68.68C214.129 71.85 212.559 73.07 210.499 73.71C208.089 74.47 205.049 73.58 204.019 71.74C202.659 69.31 203.189 65.3 205.519 64.33C207.759 63.4 210.039 63.58 212.209 64.54C213.469 65.1 213.859 66.32 213.859 68.67V68.68ZM211.459 68.86C211.679 65.88 210.259 65.56 208.549 65.49C206.789 65.42 205.739 66.76 205.729 68.9C205.709 71.03 206.769 72.27 208.459 72.19C210.229 72.1 211.759 71.38 211.449 68.86H211.459Z" fill="#030000"/>
<path d="M243.05 68.6907C242.87 64.1707 246.29 63.5107 249.53 63.8707C250.92 64.0207 252.34 64.3308 253.09 65.7108C254.02 67.4208 254.2 71.5707 251.61 73.1907C248.67 75.0207 244.4 73.7608 243.32 70.5308C243.13 69.9508 243.13 69.3107 243.05 68.7007V68.6907ZM245.53 68.9407C245.53 70.9107 246.44 72.0807 247.97 72.1607C251.02 72.3207 251.56 70.3108 251.2 67.6508C251.08 66.7308 250.66 65.9307 249.63 65.6807C246.93 65.0207 245.53 66.1307 245.53 68.9407Z" fill="#030000"/>
<path d="M333.669 73.6008C333.609 73.4208 333.569 73.3509 333.569 73.2809C333.569 70.2509 333.569 67.2109 333.569 63.8809C335.979 64.0309 338.389 64.0509 340.749 64.3809C342.309 64.6009 343.219 66.0209 343.189 67.6409C343.169 68.6909 343.139 69.7708 342.939 70.8008C342.569 72.7108 341.409 73.5908 339.489 73.6008C337.539 73.6008 335.589 73.6008 333.679 73.6008H333.669ZM335.779 71.9208C336.869 71.9208 337.869 72.0109 338.849 71.8909C339.689 71.7909 340.569 71.5009 340.669 70.4609C340.769 69.4009 340.859 68.3109 340.709 67.2709C340.609 66.6309 340.329 65.8609 339.269 65.8809C338.119 65.9109 336.969 65.7108 335.779 65.6008V71.9108V71.9208Z" fill="#030000"/>
<path d="M182.139 64.0202V65.7002C180.689 65.7002 179.269 65.6802 177.839 65.7102C177.259 65.7202 176.639 65.7501 176.129 65.9701C175.679 66.1601 175.359 66.6401 174.979 66.9801C175.429 67.3501 175.849 67.9701 176.339 68.0401C177.519 68.2001 178.729 68.0902 179.929 68.0902C181.889 68.0902 182.649 68.7202 182.659 70.3402C182.679 72.7502 181.989 73.5801 179.879 73.6001C177.649 73.6201 175.419 73.6001 173.119 73.6001V71.8802C174.909 71.8802 176.729 71.8802 178.549 71.8802C178.909 71.8802 179.339 71.9502 179.599 71.7802C179.949 71.5502 180.439 70.9002 180.369 70.8102C180.049 70.3902 179.579 69.8702 179.119 69.8102C177.979 69.6702 176.809 69.7602 175.649 69.7602C173.099 69.7702 172.089 67.6402 172.829 65.6402C173.189 64.6702 173.989 64.0801 174.929 64.0401C177.309 63.9401 179.699 64.0102 182.129 64.0102L182.139 64.0202Z" fill="#030000"/>
<path d="M286.519 31.3508C289.339 32.7008 291.999 33.9708 294.639 35.2708C294.899 35.4008 295.209 35.7508 295.209 36.0008C295.259 37.7408 295.239 39.4808 295.239 41.3808C294.469 41.0808 293.819 40.8608 293.199 40.5708C291.229 39.6508 289.269 38.6908 287.289 37.7908C286.699 37.5208 286.489 37.1808 286.499 36.5408C286.549 34.8708 286.519 33.2008 286.519 31.3408V31.3508Z" fill="#030000"/>
<path d="M286.519 20.6702C289.299 21.9702 291.999 23.2202 294.679 24.5202C294.929 24.6402 295.209 25.0202 295.209 25.2902C295.259 26.8402 295.219 28.3902 295.239 29.9402C295.239 30.6702 294.899 30.7102 294.359 30.4502C291.969 29.2802 289.569 28.1302 287.199 26.9102C286.889 26.7502 286.559 26.3102 286.539 25.9802C286.479 24.2402 286.509 22.5002 286.509 20.6602L286.519 20.6702Z" fill="#030000"/>
<path d="M192.45 69.5699H186.32C186.5 71.2899 187.15 71.9098 188.68 71.9198C189.91 71.9198 191.14 71.9198 192.44 71.9198V73.6999C190.44 73.5799 188.42 73.6099 186.46 73.3099C184.98 73.0799 184.1 71.6198 183.84 70.0998C183.59 68.6398 183.79 67.2999 184.34 65.9499C184.87 64.6399 186.01 64.1799 187.18 64.0599C188.91 63.8899 190.68 64.0099 192.42 64.0099C192.526 65.1232 192.093 65.6832 191.12 65.6899C190.44 65.6899 189.76 65.6899 189.08 65.6899C187.27 65.6899 186.88 65.9699 186.25 67.8399H192.46V69.5699H192.45Z" fill="#030000"/>
<path d="M269.479 63.9006C271.799 64.0206 274.049 64.0906 276.289 64.2706C277.659 64.3806 278.51 65.1306 278.65 66.1506C278.91 68.0706 278.47 69.2306 277 69.7306C276.01 70.0706 274.9 70.1206 273.84 70.2306C273.1 70.3006 272.34 70.2406 271.49 70.2406V73.5206H269.479V63.8906V63.9006ZM271.449 65.9306C271.449 66.6406 271.389 67.2406 271.479 67.8106C271.519 68.0806 271.84 68.5306 272.03 68.5206C273.16 68.5006 274.299 68.4306 275.409 68.2506C276.149 68.1306 276.48 67.4806 276.21 66.8306C276.04 66.4406 275.48 66.0106 275.06 65.9606C273.92 65.8406 272.759 65.9206 271.449 65.9206V65.9306Z" fill="#030000"/>
<path d="M125.019 73.6004C124.509 73.6004 124.149 73.5704 123.799 73.6004C122.889 73.7104 122.199 73.5804 121.989 72.4804C121.849 71.7004 121.349 71.2804 120.469 71.4204C120.039 71.4904 119.589 71.4305 119.149 71.4305C117.602 71.4305 116.559 72.1405 116.019 73.5605H113.629C114.769 71.0805 115.879 68.6505 116.999 66.2105C117.129 65.9305 117.359 65.6705 117.399 65.3805C117.629 63.9105 118.649 63.8105 119.799 64.0205C120.149 64.0805 120.619 64.3204 120.759 64.6104C122.189 67.5304 123.559 70.4905 125.019 73.5805V73.6004ZM120.769 69.5105C120.309 68.4205 119.869 67.3905 119.279 66.0005C118.659 67.3805 118.189 68.4305 117.699 69.5105H120.769Z" fill="#030000"/>
<path d="M156.56 73.6006C156.15 73.6006 155.95 73.5806 155.75 73.6006C154.57 73.7506 153.63 73.6007 153.36 72.1507C153.31 71.8607 152.68 71.5607 152.27 71.4607C151.78 71.3407 151.24 71.4307 150.72 71.4307C149.253 71.4307 148.2 72.134 147.56 73.5407H145.18C146.16 71.4007 147.11 69.3507 148.05 67.3107C148.31 66.7507 148.67 66.2207 148.81 65.6307C149.1 64.4207 149.7 63.9007 151.02 63.9607C151.98 64.0007 152.2 64.4006 152.54 65.1606C153.79 67.9606 155.16 70.7006 156.55 73.6006H156.56ZM150.78 65.9106C150.21 67.2606 149.77 68.3107 149.29 69.4607H152.28C151.8 68.3207 151.34 67.2406 150.78 65.9106Z" fill="#030000"/>
<path d="M290.229 73.6003C289.799 73.6003 289.489 73.5603 289.189 73.6003C288.079 73.8003 287.319 73.4703 287.089 72.2803C286.959 71.5903 286.549 71.3403 285.839 71.4203C285.289 71.4903 284.719 71.4803 284.169 71.4203C282.859 71.3003 281.839 71.3703 281.409 73.0203C281.099 74.2103 279.839 73.2803 278.819 73.7603C279.309 72.6003 279.659 71.7203 280.049 70.8703C280.999 68.7803 281.949 66.6803 282.959 64.6203C283.099 64.3303 283.589 64.0303 283.899 64.0403C284.569 64.0703 285.649 64.0803 285.849 64.4703C287.389 67.4203 288.749 70.4503 290.229 73.5903V73.6003ZM286.009 69.5303C285.449 68.2603 284.989 67.2103 284.429 65.9403C283.869 67.3003 283.409 68.4103 282.949 69.5303H286.009Z" fill="#030000"/>
<path d="M242.14 71.9207V73.6007C240.36 73.6007 238.6 73.7207 236.87 73.5707C235.17 73.4207 233.91 72.3107 233.66 70.6607C233.45 69.2807 233.66 67.7707 233.98 66.3907C234.39 64.6607 235.94 64.1707 237.49 64.0507C238.99 63.9307 240.52 64.0207 242.1 64.0207V65.7007C240.91 65.7007 239.69 65.7007 238.47 65.7007C236.81 65.7207 235.96 66.5807 235.94 68.2507C235.94 68.6507 235.94 69.0507 235.94 69.4507C235.94 71.0807 236.77 71.9307 238.38 71.9307C239.61 71.9307 240.84 71.9307 242.14 71.9307V71.9207Z" fill="#030000"/>
<path d="M202.299 72.0608V73.5908C200.479 73.5908 198.659 73.8008 196.909 73.5308C195.179 73.2708 194.109 71.9908 193.789 70.2108C193.479 68.4908 193.669 65.8208 195.559 64.6908C196.079 64.3808 196.679 64.0708 197.249 64.0408C198.909 63.9508 200.589 64.0108 202.289 64.0108V65.6908C201.149 65.6908 199.969 65.6908 198.789 65.6908C197.309 65.6908 196.479 66.2008 196.229 67.6408C196.059 68.6008 196.179 69.6708 196.419 70.6308C196.639 71.5308 197.419 71.9608 198.419 71.9308C199.659 71.8908 200.899 71.9308 202.139 71.9308C202.199 71.9308 202.259 72.0208 202.299 72.0508V72.0608Z" fill="#030000"/>
<path d="M300.759 64.1607C303.919 63.0707 304.299 65.9307 305.789 67.4707C306.329 66.7607 306.929 66.1007 307.369 65.3507C307.929 64.3907 308.589 63.7908 309.779 64.0008C310.129 64.0608 310.499 64.0008 310.999 64.0008C309.999 65.3508 309.159 66.7108 308.099 67.8708C307.109 68.9608 306.819 70.1507 306.939 71.5407C306.999 72.1707 306.939 72.8108 306.939 73.5108H304.779C304.779 72.8508 304.699 72.1408 304.799 71.4508C304.979 70.1008 304.489 69.0408 303.669 68.0208C302.649 66.7608 301.719 65.4508 300.749 64.1508L300.759 64.1607Z" fill="#030000"/>
<path d="M30.2193 63.5303V66.7202H19.3193V63.5303H30.2193Z" fill="#030000"/>
<path d="M332.37 64.0801V65.6401H329.09V73.5201H326.7V65.72H323.35V64.0801H332.37Z" fill="#030000"/>
<path d="M108.309 65.6906H104.979V64.0206C107.609 64.0206 110.279 63.9806 112.929 64.0806C113.229 64.0906 113.489 64.9606 113.919 65.6806H110.649V73.5106H108.299V65.6906H108.309Z" fill="#030000"/>
<path d="M316.099 64.0508H318.179C318.179 66.0308 318.259 68.0008 318.149 69.9708C318.079 71.3508 318.869 72.0408 320.349 72.1508C321.209 72.2108 322.089 72.1608 322.999 72.1608V73.8208C321.089 73.5908 319.219 73.4708 317.419 73.0708C316.889 72.9508 316.189 72.0408 316.159 71.4608C316.019 69.0108 316.099 66.5508 316.099 64.0508Z" fill="#030000"/>
<path d="M125.879 64.0605H128.079V73.5306H125.879V64.0605Z" fill="#030000"/>
<path d="M344.439 73.7708V71.9707H346.019V73.7708H344.439Z" fill="#030000"/>
<path d="M225.14 67.13C225.21 66.92 225.28 66.71 225.35 66.5C225.43 66.53 225.51 66.55 225.59 66.58C225.53 66.76 225.47 66.94 225.41 67.11C225.32 67.11 225.23 67.11 225.14 67.12V67.13Z" fill="#030000"/>
<path d="M120.1 59.6802C120.17 59.6402 120.23 59.6503 120.29 59.7103C120.23 59.7603 120.17 59.8102 120.1 59.8602V59.6802Z" fill="#030000"/>
<path d="M44.6992 41.0304C44.7492 40.9704 44.7892 40.9204 44.8392 40.8604C44.8392 40.9204 44.8392 40.9803 44.8492 41.0403L44.7692 41.0604L44.6992 41.0304Z" fill="#030000"/>
<path d="M298.199 70.5908C298.139 70.6208 298.079 70.6607 298.019 70.6807C297.999 70.6807 297.969 70.6307 297.949 70.6007C298.009 70.5707 298.069 70.5307 298.139 70.5107C298.149 70.5107 298.189 70.5608 298.209 70.5908H298.199Z" fill="#030000"/>
<path d="M164.399 70.61C164.399 70.61 164.339 70.67 164.319 70.67C164.289 70.67 164.269 70.62 164.249 70.6C164.279 70.58 164.309 70.54 164.329 70.54C164.359 70.54 164.379 70.59 164.399 70.61Z" fill="#030000"/>
<path d="M15.6992 41.6804V33.4404H19.9392V41.6804H15.6992Z" fill="#030000"/>
<path d="M13.0093 33.4199V41.6599H8.7793V33.4199H13.0093Z" fill="#030000"/>
<path d="M31.2796 31.4707H36.6696C36.6996 31.6207 36.7496 31.7607 36.7596 31.9107C36.8063 33.8307 35.8529 34.7907 33.8996 34.7907C32.1063 34.7907 31.2229 33.8774 31.2496 32.0507C31.2496 31.8907 31.2696 31.7407 31.2796 31.4707Z" fill="#030000"/>
</svg>
