<svg width="41" height="40" viewBox="0 0 41 40" fill="none" xmlns="http://www.w3.org/2000/svg">
<path d="M40.0102 20C40.0102 31.0462 31.0542 40 20.0051 40C8.95606 40 0 31.0462 0 20C0 8.95376 8.95606 0 20.0051 0C31.0542 0 40.0102 8.95376 40.0102 20Z" fill="black"/>
<path d="M8.33309 21.499L3.41699 13.353H6.72683L9.84198 18.6182L12.9474 13.353H16.2086L11.2633 21.5769V26.6961H8.33309V21.499Z" fill="#DDDDDD"/>
<path d="M13.5799 20.0002C13.7356 17.5087 15.9454 16.769 18.1163 16.769C20.0341 16.769 22.3607 17.1973 22.3607 19.5136V24.5355C22.3607 25.4114 22.4581 26.2873 22.7014 26.6766H20.0146C19.9173 26.3846 19.8491 26.0634 19.8297 25.7423C18.9925 26.6182 17.7561 26.9296 16.5782 26.9296C14.7481 26.9296 13.2878 26.0148 13.2878 24.0294C13.2878 21.8493 14.933 21.3141 16.5782 21.0999C18.2039 20.8566 19.7128 20.915 19.7128 19.825C19.7128 18.735 18.9243 18.5209 17.9898 18.5209C16.9774 18.5209 16.3251 18.9296 16.2375 19.9807H13.5799V20.0002ZM19.7128 21.9661C19.265 22.3554 18.3305 22.3749 17.503 22.5306C16.6756 22.696 15.9357 22.9783 15.9357 23.9418C15.9357 24.9053 16.7048 25.1778 17.5614 25.1778C19.635 25.1778 19.7031 23.533 19.7031 22.9491V21.9661H19.7128Z" fill="#DDDDDD"/>
<path d="M26.1381 13.3428H23.4805V26.6761H26.1381V13.3428Z" fill="#DDDDDD"/>
<path d="M29.516 22.5107C29.5842 24.1944 30.4117 24.9633 31.8913 24.9633C32.9524 24.9633 33.8091 24.3112 33.9843 23.7175H36.3207C35.5809 25.9949 33.9843 26.9681 31.8037 26.9681C28.7567 26.9681 26.8682 24.8757 26.8682 21.8878C26.8682 18.9 28.8638 16.7881 31.8037 16.7881C35.0941 16.7881 36.6809 19.5521 36.4959 22.5204H29.5258L29.516 22.5107ZM33.8286 20.827C33.5852 19.4839 33.0011 18.7735 31.7161 18.7735C30.032 18.7735 29.5452 20.0776 29.516 20.827H33.8286Z" fill="#DDDDDD"/>
<path d="M34.7727 14.0635H35.5807C36.0772 14.0635 36.3206 14.2679 36.3206 14.6669C36.3206 15.0464 36.0772 15.2022 35.7657 15.2314L36.3692 16.1559H36.0188L35.4542 15.2508H35.1134V16.1559H34.7824V14.0635H34.7727ZM35.1037 14.9978H35.4444C35.7365 14.9978 35.9993 14.9783 35.9993 14.6572C35.9993 14.3749 35.7559 14.336 35.532 14.336H35.1037V14.9978Z" fill="#DDDDDD"/>
<path d="M33.6826 15.1434C33.6826 16.1263 34.4809 16.9146 35.4544 16.9146C36.4279 16.9146 37.2261 16.1166 37.2261 15.1434C37.2261 14.1701 36.4279 13.3721 35.4544 13.3721C34.4809 13.3721 33.6826 14.1604 33.6826 15.1434ZM33.9357 15.1434C33.9357 14.3064 34.6172 13.6251 35.4544 13.6251C36.2916 13.6251 36.973 14.3064 36.973 15.1434C36.973 15.9804 36.2916 16.6616 35.4544 16.6616C34.6172 16.6616 33.9357 15.9804 33.9357 15.1434Z" fill="#DDDDDD"/>
</svg>
