<svg width="227" height="139" viewBox="0 0 227 139" fill="none" xmlns="http://www.w3.org/2000/svg">
<path d="M149.77 0H76.46V73.31H149.77V0Z" fill="#A40D23"/>
<path d="M110.3 15.8698C110.55 14.2198 112.45 11.7398 110.21 10.5398C109.32 9.96981 108.48 10.7098 107.63 10.8598C104.88 10.7598 102.23 10.9098 99.3701 10.5298C97.6601 10.7198 96.0701 10.0698 94.6001 10.2598C94.0001 10.8398 93.1501 12.1098 94.0001 12.9998C95.5301 12.8298 97.2301 13.1098 98.6001 12.5298C101.6 13.3498 104.95 12.7898 107.96 12.5098L108.32 12.8798C108.32 15.5098 106.24 13.1598 105.18 14.1098C101.59 13.8298 98.5501 14.3998 94.7101 14.1098L94.1401 15.1998C95.0401 18.0598 94.5401 21.6898 94.3401 24.7498C93.4201 25.8398 92.4401 27.2298 90.6301 26.8898C90.0601 26.9698 89.7301 26.0998 89.3501 26.4998C88.9201 27.0998 89.2901 27.9998 89.6801 28.3398C90.5701 29.1398 92.3901 29.9798 93.5201 29.1398C93.9801 28.8698 94.6001 28.4198 95.0001 28.6098C96.2901 25.3498 96.3301 22.2198 96.6401 18.5398C96.9901 17.6998 95.9701 16.9498 96.8601 16.3398C97.9001 16.9698 98.9401 15.9498 99.9801 16.5798C98.9101 16.7498 99.8701 18.4498 98.4901 17.8398C97.9301 18.4498 97.4301 18.6298 97.3601 19.4698C97.6501 19.9698 98.3601 20.0598 98.6401 20.0398C98.8101 19.9898 98.8901 20.1398 99.0001 20.2298C99.3701 20.0498 99.7401 19.8698 100.11 19.6998C100.38 20.1498 100.36 20.9198 100.08 21.3498C99.4201 21.4298 98.8701 21.2398 98.4401 20.7698C97.8101 21.2898 96.9001 21.5298 97.1201 22.5898C96.9901 23.6098 97.8701 23.8298 98.7501 23.7198C99.0801 24.0898 98.8601 24.9298 98.9101 25.1898C99.3801 26.5398 98.7401 27.8898 98.6601 29.2298C98.9201 29.9298 99.6701 30.2998 100.29 30.5398C101.66 30.1198 102.37 28.4498 103.1 27.2798C103.43 27.2698 103.59 27.6598 103.83 27.8398C103.67 28.8098 105.06 29.1598 105.08 30.0598C105.45 30.1998 105.88 30.6798 106.17 30.4498C106.66 30.5798 107.02 30.9798 107.63 30.8398C108.2 30.7798 108.82 30.2398 109.29 30.4998C110.05 30.1298 109.84 29.3298 110.42 28.8698C109.74 28.7998 109.09 28.1698 108.4 28.6498C107.33 27.7498 105.5 27.4798 104.59 26.1998C105.5 25.4598 106.66 24.4898 107.93 24.2398C108.14 23.7098 107.37 23.5698 107.4 23.1298C107.77 22.5698 108.2 23.5798 108.51 22.7798L108.69 22.9698C109.31 23.0398 110.03 22.9398 110.35 22.6298C110.18 22.6798 110.09 22.5298 109.99 22.4398L110.55 21.8998C110.05 21.3598 109.2 21.3398 108.35 21.4898C107.83 20.9298 105.97 21.9098 106.53 20.3598C106.56 19.0198 108.05 19.7198 108.75 19.2998C109.51 19.9698 109.09 18.5298 109.68 18.5798C108.91 17.7398 108.18 18.3898 107.12 18.1698C106.12 17.7098 107.6 16.9698 106.6 16.5098C107.7 16.5698 108.45 15.7698 109.55 15.8298C109.81 15.7998 110.07 16.2598 110.29 15.8398L110.3 15.8698ZM101.29 27.2798C101.31 26.2398 100.5 25.0598 101.34 24.1598C101.34 25.3698 102.76 25.5398 102.76 26.7598L101.28 27.2798H101.29ZM103.9 24.7498C103.08 24.5698 103.3 23.4898 102.64 23.2598C103.37 23.3298 104.22 23.1398 104.84 23.4798C104.56 23.9198 104.33 24.3698 103.9 24.7498ZM104.7 21.2798L101.95 20.8598C101.78 19.9798 102.59 19.8598 103.07 19.9598C103.46 19.7398 104.24 20.2198 104.72 19.7998C104.84 20.3298 105.29 20.7998 104.7 21.2698V21.2798ZM104.76 17.7898L104.94 17.9798C104.33 18.5198 103.61 17.6798 103.1 17.9498C101.94 18.0398 102.05 17.1098 101.29 16.6298L100.37 16.6098C101.99 16.5098 103.5 16.1098 105.14 16.5098C104.73 16.8198 104.34 17.3598 104.75 17.7898H104.76Z" fill="white"/>
<path d="M111.55 49.3999C111.23 49.6699 110.57 49.6599 110.27 49.3799C109.6 49.7899 108.64 49.3199 108.06 49.5299L107.88 49.3399C107.57 49.2099 107.42 49.5499 107.14 49.5099C105.99 49.2699 104.39 49.3199 104.04 47.9899C104.93 46.7599 106.7 47.3599 107.91 47.3199C108.59 47.1999 109.07 46.9199 109.39 46.4299C109.11 45.9799 108.67 45.9199 108.3 45.6799C107.85 46.4999 107.2 45.6599 106.65 45.6499C106.02 45.6399 104.7 45.6199 104.08 45.6099C104.27 45.1899 104.08 44.5999 104.65 44.3299C106.06 44.4499 107.99 44.2999 109.25 43.8599V43.4899C108.86 43.2799 108.51 42.9999 107.98 43.0999C107.51 42.7599 106.96 43.7799 106.88 42.8999C106.46 42.8999 105.89 43.7099 105.6 42.8799C105.47 43.2099 105.1 42.9999 104.86 43.0499C104.66 42.8299 104.39 42.6599 104.5 42.3099C104.91 42.1099 105.26 41.8399 105.79 41.9599C106.56 42.2099 107.25 41.5999 108 41.4499C108.06 41.2099 107.86 40.8399 108.2 40.7199C107.41 39.6799 108.85 39.4599 109.33 38.8999C109.75 39.0299 110.05 39.4299 110.61 39.2899C111.29 38.4599 112.06 39.5699 112.82 38.9599C112.48 38.6799 112.83 38.1199 112.47 37.8499C111.88 37.9499 111.24 37.6099 110.82 37.8199C110.64 37.4899 110.22 37.6799 109.9 37.6199C107.64 37.8899 110.35 36.2699 109.76 35.2299C108.65 33.2799 107.32 36.1399 105.53 35.1599C105 34.9999 104.59 34.3699 105 33.8599C104.83 32.9399 104.07 32.2699 103 32.5399C102.57 33.0499 101.57 33.6399 101.68 34.5399C100.68 35.1299 99.1 34.8999 98.01 34.6599C97.14 35.1599 98.14 35.7599 97.79 36.4899C98.05 36.4599 98.31 36.9199 98.52 36.4999L98.88 36.8699C98.19 37.2599 97.8 37.6399 97.38 38.3099C97.61 38.7399 97.58 39.4499 98.1 39.6099L101.6 38.9399C101.78 39.2899 102.01 39.6099 101.95 40.0499C100.65 40.6299 99.38 39.5799 98.09 40.1699C97.38 40.9999 98.58 41.5399 98.42 42.3799C98.78 42.5999 99.62 42.8199 99.89 42.2199C100.52 41.9599 101.47 41.9699 102.09 42.2599C101.81 44.4699 97.8701 41.8399 98.1901 44.7599C98.7601 45.8199 100.03 44.3899 101.13 44.6299C101.76 44.5299 102.56 44.7299 102.21 45.5699C101.47 45.9599 100.49 46.3299 99.63 45.8899L99.26 46.2499C97.98 46.2499 97.8501 47.9499 96.3001 47.2999C95.2801 46.1099 97.4 45.3499 97.09 44.0099C97.66 43.0899 97.68 41.4699 97.15 40.5199C96.29 39.2199 94.3501 39.8299 93.1201 39.8999C92.9001 40.0299 92.56 40.4399 92.38 40.0699L92.01 40.4299C91.83 40.0599 91.49 40.4699 91.27 40.5999C91.27 41.0999 90.43 41.6899 91.25 42.0699C91.76 43.4699 92.55 42.0699 93.45 42.1099C94.36 42.3499 95.07 40.9099 95.84 41.9699C95.72 43.4399 95.33 44.7699 94.67 45.9899C94.35 46.2799 94.07 46.6999 93.56 46.5199C93.16 46.3799 92.5 46.3699 92.09 46.4899C92.49 46.7499 92.0401 47.4999 92.4401 47.5999C92.7901 48.4899 91.19 48.8099 90.57 49.3999C89.97 50.0299 90.31 50.8099 90.72 51.4199C91.98 50.7799 93.69 50.4999 94.25 48.9099C95.12 48.7399 95.7 49.2299 96.45 49.3199C97.38 48.6399 97.91 49.8599 98.83 49.7299C99.4 50.6199 100.53 50.2399 101.2 50.8699C102.16 50.7599 102.46 52.1199 103.57 51.6499C105.23 52.3399 107.08 52.6499 108.87 53.0299C110.34 52.6499 111.65 51.8099 112.77 50.5299C113.05 50.1699 113.06 49.4299 112.8 49.0599C112.27 48.9399 111.92 49.2099 111.51 49.4099L111.55 49.3999ZM106.99 37.1999C106.3 37.6899 105.4 37.2599 104.72 37.1999L104.79 36.7999C105.71 36.7499 106.38 36.2399 106.99 37.1999ZM106.59 39.2099C106.95 40.7399 105.31 39.8699 104.55 40.0899C103.93 38.7199 105.85 39.3399 106.59 39.2099ZM99.28 37.0599C99.71 36.5299 100.67 36.4799 101.49 36.5499C101.13 37.2799 99.91 36.6199 99.28 37.0599ZM102.37 48.6699C101.46 48.8699 100.93 48.2899 100.2 48.0799C100.1 47.4499 101.06 47.3599 101.29 47.8299C101.46 47.4799 101.81 47.5599 102.12 47.5699C102.61 47.7699 102.3 48.3099 102.38 48.6699H102.37Z" fill="white"/>
<path d="M95.95 38.4798L96.16 37.0098C95.45 36.2298 95.04 35.8698 94.16 35.5098C93.3 35.6198 92.92 35.8898 92.3 36.5798C92.12 37.2698 92.54 37.7198 92.82 38.2398C93.76 39.0798 94.82 38.5698 95.94 38.4798H95.95Z" fill="white"/>
<path d="M115.99 15.5998C116.33 16.0998 116.06 17.0298 116.14 17.4398L115.96 17.6198C115.9 17.7798 116.05 17.8798 116.14 17.9898C116.24 19.4798 115.76 21.6398 116.42 23.1398C116.91 22.5298 117.53 22.2998 118.09 21.8798L117.73 21.3198C118.15 19.9898 117.73 18.9898 118.16 17.6498C117.84 17.1998 118.05 16.3098 118 15.9898C118.06 14.5598 119.66 14.6098 120.6 14.1998C124.33 14.0998 127.44 13.8398 130.88 14.3798L131.39 16.5898C131.68 18.7998 131.43 21.4798 131.45 23.5698C132.33 23.4898 131.88 22.4198 132.76 22.3098C132.87 22.3998 132.96 22.5498 133.12 22.4998L133.35 19.9298C133.71 17.3998 134.62 13.7598 132.76 11.6598C131.36 10.6798 131.08 12.4898 129.98 12.8998C128.66 12.5598 127.97 12.4398 126.5 12.4698C125.83 12.1298 126.28 11.3598 126.16 10.8098C125.83 8.74976 123.7 9.55976 122.69 9.82976C122.8 10.5698 122.35 11.5098 123.02 12.0398C121.41 12.7998 119.84 11.9298 118.23 12.6898C118.11 11.9698 117.34 11.9998 116.78 11.9298C114.6 12.6098 117.07 14.2698 115.98 15.5898L115.99 15.5998Z" fill="white"/>
<path d="M135.1 25.85C135.24 26.28 134.85 26.45 134.72 26.76L134.54 26.57L134.17 26.93L133.81 26.56C133.46 26.44 133.29 26.72 133.07 26.92C132.36 26.41 131.47 27.13 130.87 26.88C130.67 26.88 130.43 26.82 130.32 27.05L130.14 26.86C129.98 26.8 129.88 26.95 129.77 27.04C129.36 26.7 128.59 27.15 128.31 26.46L128.93 22.43C128.57 21.71 129.14 20.69 128.97 20.04C129.31 19.6 129.12 18.94 129.18 18.39C130.11 17.84 129.04 17.18 129.03 16.55C128.6 16.01 128.11 15.63 127.39 15.79C126.25 16.73 124.33 16.25 122.98 16.08L122.79 16.26C122.18 15.35 120.93 15.4 120.05 15.66C119.56 16.43 120.05 17.26 120.56 17.88L120.59 26.7L120.22 27.06C119.07 26.76 118.13 27.57 117.1 27.01C116.51 27.2 115.87 27.26 115.43 27.9C115.43 28.1 115.39 28.34 115.6 28.45L115.23 28.81C115.41 32.1 117.9 28.51 119.44 29.43C120.07 29.18 120.86 29.31 121.29 28.54L121.65 28.91L121.84 28.73C122.54 29.59 123.1 27.85 123.67 28.95C125.2 28.92 126.85 29.15 128.26 28.85C128.57 29.04 128.86 29.05 129.18 28.87C130.64 29.39 132.12 28.79 133.59 28.76C134.72 29.15 135.18 29.1 136.17 28.44C136.22 27.85 136.19 27.3 135.64 26.96L136.39 26.24L135.11 25.85H135.1ZM122.74 18.29C124 18.55 125.62 17.57 126.41 18.72L126.39 20C125.93 19.9 125.35 19.62 124.92 19.97L124.74 19.78C123.94 20.46 123.52 19.25 122.73 19.38L122.75 18.28L122.74 18.29ZM125.25 21.64C125.67 21.83 126.26 21.64 126.52 22.21C126.6 22.95 126.46 23.75 125.58 23.66C124.56 23.24 123.86 23.66 122.83 23.24L122.65 23.42C121.84 21.42 124.27 21.94 125.25 21.63V21.64ZM125.35 26.6C124.32 26.76 123.65 26.15 122.78 26.74C122.45 26.42 122.66 25.87 122.62 25.45C123.91 25.23 125.31 25.28 126.49 24.78C126.54 25.02 126.33 25.38 126.66 25.52C125.83 25.71 126.18 26.41 125.36 26.6H125.35Z" fill="white"/>
<path d="M116.91 36.4598C117.22 36.6498 117.36 37.2198 117.82 37.0298V36.8498C118.43 36.8498 119.18 36.0498 119.66 36.8798C119.71 37.0498 119.56 37.1398 119.47 37.2498C119.8 37.3798 119.59 37.7498 119.64 37.9898C120.63 39.9498 117.88 38.9898 117.76 40.5298C117.42 41.0798 117.6 42.1098 117.54 42.5498C118.22 42.8398 119.24 42.8498 119.93 42.5898C120.29 42.8498 119.93 43.4198 120.28 43.6998C120.05 44.1598 119.6 44.0398 119.17 44.0498C118.71 44.1898 118.37 43.6298 118.26 43.2998C117.48 43.7998 117.06 44.7898 116.75 45.6598C117.05 46.6598 117.93 46.5498 118.76 46.4298C119.62 46.3198 120.6 45.9498 121.34 46.1098C122.4 45.5398 124.27 46.6598 124.85 45.2498C125.35 44.8898 124.74 44.5098 124.69 44.1498C123.83 44.2798 122.73 43.8798 121.76 43.7298L121.96 42.6298C122.25 41.7698 122.9 42.7698 123.25 42.2898C123.31 42.1298 123.16 42.0298 123.07 41.9198C123.1 40.9798 124.28 41.0198 124.39 40.1098C123.31 39.9598 122.3 39.6098 121.28 39.3198L121.51 36.7498C122.04 36.0798 122.99 36.5398 123.72 36.4198C123.68 35.6998 124.59 35.1898 124.3 34.5998L124.12 34.7798C122.17 35.1698 121.94 33.4198 120.85 32.5198C120.37 32.4198 119.84 32.5898 119.74 33.0498C119.48 33.3398 119.45 33.9498 119.53 34.1498L119.16 34.5098C118.03 33.7398 117.76 35.0398 116.76 35.1998C116.62 35.6898 116.97 36.0298 116.92 36.4898L116.91 36.4598Z" fill="white"/>
<path d="M126.11 36.07C126.46 37.87 128.14 36.55 129.04 36.49C129.37 36.62 129.16 36.99 129.21 37.23C129.36 38 128.82 39.61 130.28 39.27C131.71 39.42 131.33 37.82 131.42 36.91C132.11 36.04 132.89 37.08 133.81 36.77C134.19 36.21 133.64 35.94 133.84 35.3C132.93 34.49 132 35.32 131.1 34.52L131.28 34.34C131.34 34.18 131.19 34.08 131.1 33.97C131.19 33.86 131.34 33.77 131.29 33.6C131.24 32.44 129.98 32.7 129.28 33.01C129.22 33.51 128.58 33.97 129.07 34.48C128.62 34.8 127.75 34.59 127.41 34.63C127.1 34.5 126.93 34.11 126.5 34.25C125.81 34.62 126.24 35.47 126.1 36.08L126.11 36.07Z" fill="white"/>
<path d="M117 52.44C117.09 52.44 117.19 52.44 117.29 52.44C117.2 52.43 117.1 52.44 117 52.44Z" fill="white"/>
<path d="M135.47 46.7C135.41 47.07 135.04 47.28 134.9 47.61L127.74 47.48C127.16 47.09 126.07 47.54 125.92 46.53C127.09 46.64 128.6 46.49 129.78 46.05C130.64 46.06 131.6 46.91 132.35 46.09C131.65 44.22 133.82 43.14 133.35 41.15C132.42 40.56 131.25 39.53 130.25 40.18C129.36 39.67 128.48 40.31 127.5 40.13C127.02 39.24 126.32 40.22 126.03 40.47C124.82 41.48 126.64 42.21 126.53 43.23C125.63 43.99 126.02 45.28 125.38 46.15C125.18 46.15 124.94 46.18 124.83 45.96C124.11 46.52 124.27 47.69 122.97 47.21C121.62 46.69 119.79 47.28 118.19 47.31C117.09 46.92 115.77 47.08 114.88 47.8C114.44 48.65 114.81 49.63 115.2 50.38C116.09 49.83 117.76 50.9 118.16 49.51C119.03 49.31 120.35 49.13 121.09 49.75C120.85 49.95 120.81 50.22 120.71 50.48C119.99 51.78 118.58 52.42 117.29 52.44C117.4 52.45 117.49 52.5 117.55 52.63L117.36 52.81C117.91 52.88 118.31 53.25 118.82 53.39C121.04 53.69 121.89 50.97 123.84 50.17C123.79 49.78 123.89 49.47 124.22 49.26C124.98 50.87 124.11 52.44 124.87 54.05C125.57 54.12 126.32 54.09 126.54 53.34L126.36 53.15C126.65 52.6 126.66 51.69 126.4 51.13C126.57 50.05 126.68 48.77 128.27 49.33C129.45 49.88 128.97 51.42 129.32 52.47C130.45 53.77 131.91 52.44 133.18 52.35C133.46 52.45 133.87 52.73 134.1 52.37C134.22 52.02 133.94 51.85 133.75 51.63C132.09 52.1 131.26 50.32 130.3 49.55C130.68 48.95 131.03 49.99 131.4 49.39C132.11 49.86 133.27 49.26 133.78 49.8L133.97 49.62C134.39 49.68 134.94 49.49 135.25 49.82C136.35 50.02 136.09 48.83 136.92 48.75C137.59 47.31 135.45 47.83 135.49 46.7H135.47ZM131.14 42.4L130.93 44.05C130.52 44.32 129.46 44.3 128.91 44.01L128.75 42.72C129.54 42.6 130.47 42.24 131.14 42.39V42.4Z" fill="white"/>
<path d="M91.26 63.2099L95.79 58.5899V58.5699L91.7 58.5199V57.8999L97.15 57.9599V58.4099L92.64 63.0099V63.0299L97.15 63.0799V63.6999L91.26 63.6299V63.1999V63.2099Z" fill="white"/>
<path d="M98.9099 61.7901C98.9199 62.8001 99.8099 63.2301 100.87 63.2501C101.62 63.2501 102.09 63.1701 102.48 63.0601L102.67 63.5901C102.3 63.7101 101.65 63.8401 100.73 63.8301C98.9599 63.8101 97.8899 62.9501 97.9099 61.7101C97.9199 60.4601 98.9699 59.4901 100.66 59.5001C102.55 59.5201 103.03 60.7101 103.02 61.4801C103.02 61.6301 103 61.7501 102.98 61.8401L98.9299 61.7801L98.9099 61.7901ZM101.99 61.2901C102.01 60.8201 101.73 60.0601 100.56 60.0501C99.4799 60.0401 99.0199 60.7301 98.9299 61.2501L101.99 61.2901Z" fill="white"/>
<path d="M104.32 60.7798C104.32 60.3398 104.32 59.9998 104.28 59.6598H105.21L105.26 60.3498H105.28C105.57 59.9698 106.25 59.5898 107.2 59.5998C108 59.5998 109.24 59.9598 109.23 61.3798L109.2 63.8498H108.15L108.18 61.4598C108.18 60.7898 107.85 60.2298 106.85 60.2098C106.17 60.2098 105.62 60.5498 105.43 60.9598C105.38 61.0498 105.35 61.1898 105.35 61.3098L105.32 63.7998H104.27L104.3 60.7698L104.32 60.7798Z" fill="white"/>
<path d="M112.29 62.0801L111.43 63.8801H110.35L113.16 58.1401H114.42L117.1 63.9401H115.99L115.15 62.1101L112.29 62.0801ZM114.94 61.5301L114.16 59.8601C114 59.4801 113.88 59.1401 113.77 58.8101H113.74C113.63 59.1401 113.49 59.5001 113.33 59.8501L112.52 61.5101L114.95 61.5401L114.94 61.5301Z" fill="white"/>
<path d="M118.26 61.11C118.26 60.62 118.26 60.21 118.23 59.82H119.15L119.19 60.64H119.23C119.5 60.09 120.15 59.75 120.86 59.76C120.97 59.76 121.05 59.76 121.15 59.79V60.49C121.02 60.49 120.92 60.47 120.77 60.47C120.03 60.47 119.5 60.86 119.35 61.41C119.33 61.52 119.31 61.64 119.31 61.77L119.28 63.97H118.23L118.28 61.12L118.26 61.11Z" fill="white"/>
<path d="M126.19 63.9001C125.92 63.9901 125.3 64.1301 124.52 64.1201C122.77 64.1001 121.65 63.2401 121.66 61.9701C121.67 60.7001 122.91 59.7801 124.8 59.8001C125.42 59.8001 125.97 59.9201 126.26 60.0401L126.01 60.6101C125.76 60.5101 125.37 60.4101 124.79 60.4001C123.46 60.3801 122.73 61.0801 122.72 61.9501C122.71 62.9101 123.57 63.5101 124.71 63.5201C125.31 63.5201 125.7 63.4301 126 63.3401L126.17 63.9101L126.19 63.9001Z" fill="white"/>
<path d="M127.49 58H128.54L128.51 60.59H128.53C128.7 60.38 128.97 60.19 129.29 60.07C129.6 59.94 129.97 59.86 130.37 59.87C131.15 59.87 132.39 60.23 132.37 61.66L132.34 64.12H131.29L131.32 61.74C131.32 61.06 130.99 60.51 130 60.5C129.32 60.5 128.79 60.83 128.58 61.23C128.52 61.33 128.51 61.44 128.5 61.59L128.47 64.08H127.42L127.49 58.01V58Z" fill="white"/>
<path d="M134.62 59.25C134.22 59.25 133.96 59.02 133.97 58.76C133.97 58.5 134.25 58.29 134.66 58.29C135.07 58.29 135.33 58.51 135.33 58.78C135.33 59.05 135.06 59.26 134.64 59.26L134.62 59.25ZM134.06 64.14L134.11 60.01H135.16L135.11 64.15H134.06V64.14Z" fill="white"/>
<path d="M4.97005 138.71L3.88005 136.42C4.72005 136.35 5.79005 136.22 7.08005 136.03V131.58H4.31005C3.67005 134.54 2.41005 136.9 0.540049 138.64L0.300049 138.47C1.32005 136.7 2.02005 134.55 2.41005 132.04C2.69005 130.25 2.82005 127.99 2.82005 125.26V122.08C2.82005 120.77 2.75005 119.68 2.62005 118.79L5.15005 119.79H15.98L16.42 119.25C16.42 119.25 16.52 119.14 16.59 119.05C16.78 118.82 16.92 118.7 17 118.7C17.15 118.7 17.5201 118.93 18.1201 119.4C18.7201 119.87 19.0201 120.18 19.0201 120.34C18.8901 120.56 18.6101 120.71 18.1901 120.8V122C18.1901 122.19 18.19 122.43 18.21 122.72C18.24 123.39 18.27 123.9 18.3 124.25C18.23 124.38 17.98 124.52 17.57 124.66C17.16 124.8 16.8 124.88 16.49 124.88H16.14V124.12H4.84005V125.28C4.84005 126.14 4.83005 126.8 4.80005 127.26H7.92005C7.92005 126.08 7.86005 125.15 7.75005 124.45C8.97005 124.77 9.74005 125.02 10.06 125.19C10.28 125.32 10.3 125.45 10.13 125.58L9.85005 125.78V127.26H13.05C13.05 126.1 12.99 125.18 12.88 124.49C14.1 124.8 14.87 125.03 15.19 125.21C15.41 125.34 15.42 125.47 15.23 125.6L14.92 125.82V127.26H16.4501L16.93 126.54C16.93 126.54 17 126.43 17.06 126.34C17.31 125.98 17.48 125.8 17.58 125.8C17.73 125.8 18.07 126.05 18.63 126.55C19.18 127.05 19.46 127.38 19.46 127.54C19.4 127.77 19.22 127.89 18.92 127.89H14.93V130.96H16.89L17.3701 130.22C17.3701 130.22 17.44 130.11 17.5 130.02C17.75 129.66 17.9201 129.48 18.0201 129.48C18.1701 129.48 18.51 129.73 19.07 130.24C19.63 130.75 19.9 131.08 19.9 131.24C19.84 131.47 19.65 131.59 19.33 131.59H11.51C12 132.61 12.72 133.49 13.65 134.23C14.94 133.26 15.9301 132.32 16.6101 131.42C17.5801 132.19 18.18 132.71 18.4 132.99C18.56 133.19 18.5201 133.3 18.2901 133.32H17.9C16.85 133.74 15.58 134.16 14.09 134.56C15.56 135.55 17.5401 136.25 20.0401 136.65L20.0201 136.89C19.2501 137.08 18.73 137.69 18.47 138.72C15.99 137.95 14.13 136.8 12.91 135.26L12.95 135.52C11.08 136.29 8.61005 137.2 5.54005 138.24C5.41005 138.49 5.23005 138.65 5.00005 138.72L4.97005 138.71ZM4.45005 130.95H7.92005V127.88H4.78005C4.74005 128.88 4.63005 129.91 4.45005 130.95ZM4.84005 123.48H16.17V120.43H4.84005V123.48ZM8.94005 135.77C9.40005 135.71 10.12 135.61 11.1 135.46C11.87 135.34 12.46 135.26 12.87 135.2C12.07 134.2 11.46 132.99 11.04 131.58H8.95005V135.76L8.94005 135.77ZM9.83005 130.95H13.03V127.88H9.83005V130.95Z" fill="#231815"/>
<path d="M27.0002 138.1L26.4102 136.99C27.2102 137.08 28.1802 137.14 29.3102 137.16H30.9202V128.36C30.9202 126.53 30.8302 125.04 30.6402 123.89L33.0802 124.89H39.4702L39.8802 124.28C39.8802 124.28 39.9502 124.17 40.0102 124.08C40.2102 123.79 40.3602 123.64 40.4502 123.64C40.6002 123.64 40.9902 123.88 41.6502 124.36C42.3202 124.87 42.6502 125.19 42.6502 125.34C42.4802 125.56 42.1602 125.7 41.7102 125.75V137.15H42.7102L43.2502 136.3C43.2502 136.3 43.3302 136.18 43.4002 136.08C43.6602 135.64 43.8402 135.43 43.9402 135.43C44.0702 135.43 44.4502 135.72 45.0802 136.31C45.7102 136.9 46.0302 137.27 46.0302 137.43C45.9702 137.66 45.7802 137.78 45.4602 137.78H30.2502C29.2202 137.79 28.1302 137.9 26.9802 138.09L27.0002 138.1ZM27.6302 125.57C27.2502 125.53 26.9902 125.34 26.8502 125C26.6002 124.42 26.8102 123.92 27.4802 123.5C27.9402 123.22 28.3402 122.79 28.6602 122.19C29.0102 121.54 29.1802 120.85 29.1602 120.12H29.4702C29.6302 120.63 29.7302 121.08 29.7802 121.47H35.1602C35.1602 120.22 35.1002 119.17 34.9602 118.33C36.3402 118.65 37.2002 118.9 37.5502 119.07C37.8002 119.22 37.8002 119.36 37.5702 119.51L37.1802 119.75V121.47H43.0902L43.5902 120.9C43.5902 120.9 43.6902 120.79 43.7602 120.7C44.0102 120.45 44.1702 120.33 44.2602 120.33C44.3902 120.33 44.7302 120.61 45.2802 121.17C45.8302 121.73 46.1102 122.09 46.1102 122.25C45.9802 122.38 45.7102 122.47 45.3002 122.51C44.5202 123.32 43.5602 124.07 42.4202 124.75L42.2002 124.6C42.5102 123.9 42.8102 123.07 43.1202 122.09H29.8302C29.8602 122.83 29.7602 123.49 29.5302 124.07C29.3302 124.58 29.0402 124.97 28.6802 125.25C28.3602 125.5 28.0102 125.6 27.6302 125.55V125.57ZM32.8602 128.9H39.6802V125.52H32.8602V128.9ZM32.8602 132.91H39.6802V129.51H32.8602V132.91ZM32.8602 137.16H39.6802V133.54H32.8602V137.16Z" fill="#231815"/>
<path d="M52.72 138.71L52.52 138.43C54.03 137.14 55.15 135.45 55.88 133.37C55.46 132.48 55.08 131.39 54.75 130.08C54.71 130.17 54.63 130.31 54.53 130.52C54.09 131.38 53.8 131.94 53.66 132.22C53.81 132.44 53.78 132.61 53.59 132.74L52.48 131.48C53.19 130.87 53.87 130.22 54.53 129.52L54.73 128.56L55.51 128.84L54.94 129.65C55.32 130.81 55.72 131.76 56.16 132.5C56.61 131.02 56.91 129.27 57.05 127.25H55.37C55.24 127.56 55.07 127.9 54.87 128.3C54.36 128.47 53.77 128.42 53.1 128.13C54.13 125.88 55.15 123.48 56.15 120.94H55.08C54.47 120.95 53.83 121.06 53.16 121.24L52.57 120.13C53.24 120.22 54.05 120.28 55.01 120.3H56.14L56.55 119.78C56.55 119.78 56.62 119.71 56.66 119.65C56.86 119.39 57.02 119.26 57.12 119.26C57.27 119.26 57.61 119.5 58.17 119.99C58.72 120.48 59 120.8 59 120.96C58.84 121.13 58.51 121.26 58.02 121.33C57.18 123.32 56.39 125.08 55.67 126.62H56.89L57.35 126.08C57.35 126.08 57.43 125.98 57.5 125.91C57.72 125.66 57.87 125.54 57.96 125.54C58.11 125.54 58.44 125.78 58.96 126.25C59.48 126.72 59.74 127.04 59.74 127.2C59.62 127.37 59.38 127.49 59 127.55C58.64 130.24 58.05 132.37 57.23 133.96C58.15 134.89 59.36 135.54 60.87 135.9C62.12 136.19 63.9 136.34 66.21 136.34C69.22 136.34 71.23 136.33 72.25 136.3V136.58C71.52 136.75 71.13 137.31 71.07 138.26H66.08C63.67 138.26 61.79 138.04 60.44 137.59C58.89 137.08 57.65 136.18 56.73 134.89C55.74 136.47 54.4 137.76 52.7 138.75L52.72 138.71ZM63.88 135.86C63.56 135.86 63.4 135.72 63.4 135.42C63.43 135.19 63.46 134.85 63.49 134.42C63.49 134.23 63.49 134.07 63.51 133.94V132.96H61.94C61 132.97 60.02 133.08 59.02 133.26L58.45 132.15C59.25 132.24 60.22 132.3 61.35 132.32H63.51V130.03H62.18C61.41 130.04 60.61 130.15 59.78 130.33L59.26 129.22C60.06 129.31 61.02 129.37 62.14 129.39H63.51V127.14H62.29C61.59 127.15 60.85 127.26 60.07 127.45L59.48 126.34C60.25 126.43 61.17 126.49 62.23 126.51H63.52V124.26H61.84C60.85 124.27 59.81 124.38 58.7 124.57L58.13 123.46C58.93 123.55 59.9 123.61 61.03 123.63H63.51V121.43H62.29C61.59 121.44 60.87 121.55 60.11 121.74L59.52 120.63C60.26 120.72 61.16 120.78 62.22 120.8H63.51C63.51 119.81 63.46 118.99 63.36 118.34C64.65 118.67 65.46 118.93 65.78 119.1C66 119.25 66 119.39 65.78 119.54L65.41 119.78V120.8H67.65L68.06 120.21C68.06 120.21 68.13 120.11 68.19 120.04C68.39 119.76 68.54 119.63 68.63 119.63C68.78 119.63 69.13 119.88 69.7 120.37C70.27 120.86 70.55 121.19 70.55 121.35C70.4 121.55 70.12 121.7 69.7 121.79V123.64H69.92L70.33 122.92C70.36 122.86 70.41 122.78 70.48 122.68C70.68 122.35 70.83 122.18 70.92 122.18C71.05 122.18 71.34 122.43 71.8 122.93C72.26 123.43 72.49 123.76 72.49 123.92C72.45 124.15 72.26 124.27 71.95 124.27H69.71V125.29C69.71 125.45 69.71 125.66 69.73 125.92C69.76 126.5 69.79 126.94 69.82 127.23C69.75 127.36 69.53 127.5 69.15 127.66C68.78 127.81 68.45 127.89 68.16 127.89H67.88V127.15H65.42V129.4H67.97L68.45 128.68C68.49 128.62 68.56 128.54 68.65 128.42C68.85 128.12 69 127.96 69.09 127.96C69.24 127.96 69.59 128.21 70.15 128.7C70.71 129.19 70.99 129.52 70.99 129.68C70.95 129.91 70.76 130.03 70.45 130.03H65.44V132.32H68.4L68.94 131.56C68.94 131.56 69.02 131.45 69.09 131.36C69.35 130.97 69.53 130.77 69.63 130.77C69.78 130.77 70.16 131.03 70.78 131.56C71.4 132.09 71.72 132.44 71.72 132.6C71.66 132.83 71.47 132.95 71.15 132.95H65.42V133.73C65.43 133.9 65.45 134.12 65.46 134.36C65.47 134.71 65.49 134.97 65.5 135.14C65.46 135.3 65.27 135.45 64.93 135.6C64.6 135.76 64.25 135.84 63.88 135.84V135.86ZM65.41 123.66H67.87V121.46H65.41V123.66ZM65.41 126.54H67.87V124.29H65.41V126.54Z" fill="#231815"/>
<path d="M87.91 138.71C87.58 138.71 87.41 138.57 87.41 138.27C87.48 137.62 87.53 136.74 87.56 135.65V134.1C85.53 136.06 82.63 137.49 78.89 138.39L78.74 138.09C81.79 136.87 84.13 135.21 85.76 133.1H82.82C81.79 133.11 80.7 133.22 79.55 133.41L78.96 132.3C79.76 132.39 80.73 132.44 81.86 132.47H87.57V130.64C86.87 130.96 85.94 131.24 84.76 131.49L84.59 131.14C85.77 130.82 86.69 130.36 87.36 129.77C87.96 129.23 88.39 128.54 88.67 127.68H87.89C87.48 127.69 87.06 127.8 86.63 127.98L86.06 126.87C86.58 126.96 87.22 127.02 87.98 127.04H88.85C88.97 126.43 89.04 125.7 89.07 124.86H88.48C88.16 124.87 87.84 124.98 87.52 125.16L86.95 124.05C87.75 124.14 88.72 124.2 89.85 124.22H93.25L93.49 123.98C93.26 123.98 93 123.88 92.73 123.68C92.67 123 92.38 122.26 91.86 121.46H90.64C89.77 122.43 88.78 123.23 87.68 123.86L87.4 123.62C87.68 123.33 87.97 122.96 88.27 122.51C88.68 121.94 89.05 121.23 89.4 120.37C89.72 119.56 89.94 118.83 90.05 118.19C91.28 118.66 92.05 118.99 92.36 119.19C92.59 119.35 92.59 119.47 92.34 119.56L91.95 119.69C91.67 120.14 91.41 120.52 91.17 120.82H95.14L95.64 120.12C95.64 120.12 95.73 120 95.79 119.9C96.04 119.57 96.2 119.4 96.29 119.4C96.44 119.4 96.8 119.64 97.39 120.13C97.98 120.62 98.27 120.94 98.27 121.1C98.21 121.33 98.02 121.45 97.7 121.45H93.21C93.72 121.7 94.07 122.01 94.28 122.39C94.45 122.71 94.49 123.02 94.39 123.33C95.13 123.93 95.58 124.34 95.74 124.57C95.86 124.76 95.82 124.88 95.63 124.94L95.28 125.05V128.62C95.28 128.74 95.3 128.81 95.33 128.84C95.37 128.87 95.46 128.88 95.6 128.88H96.67C96.79 128.88 96.88 128.82 96.95 128.71C97.04 128.56 97.2 128.06 97.43 127.18C97.5 126.95 97.55 126.77 97.58 126.64H97.8L97.87 128.75C98.25 128.92 98.44 129.18 98.44 129.51C98.44 129.89 98.25 130.16 97.86 130.34C97.48 130.51 96.84 130.6 95.95 130.6H94.97C94.32 130.6 93.89 130.48 93.68 130.25C93.52 130.05 93.44 129.63 93.44 129.01V127.55C93.32 127.62 93.19 127.66 93.03 127.66H90.46C90.02 128.89 89.2 129.82 88 130.43C89.05 130.68 89.7 130.88 89.96 131.04C90.15 131.16 90.13 131.29 89.92 131.43L89.55 131.67V132.45H94.89L95.41 131.75C95.45 131.69 95.51 131.61 95.58 131.51C95.83 131.2 95.99 131.05 96.08 131.05C96.23 131.05 96.6 131.29 97.19 131.77C97.78 132.25 98.08 132.57 98.08 132.73C98.04 132.96 97.85 133.08 97.51 133.08H90.23C91.16 133.84 92.41 134.49 93.98 135.04C95.4 135.55 96.89 135.9 98.43 136.11L98.41 136.35C97.58 136.55 97.04 137.19 96.8 138.27C95.24 137.79 93.86 137.12 92.64 136.24C91.38 135.35 90.35 134.3 89.57 133.08H89.55V134.78C89.58 136.16 89.62 137.26 89.68 138.07C89.61 138.2 89.4 138.34 89.05 138.48C88.67 138.61 88.3 138.68 87.94 138.68L87.91 138.71ZM80.17 131.48L79.1 129.32C80.13 129.19 81.25 129.04 82.46 128.86V125.53H81.57C81.08 125.54 80.57 125.65 80.04 125.84L79.47 124.73C80.27 124.82 81.24 124.88 82.37 124.9H84.48L85.31 123.81C84.92 124.07 84.51 124.01 84.09 123.61C84.09 122.97 83.88 122.26 83.46 121.47H82.59C81.54 122.78 80.34 123.79 78.97 124.52L78.73 124.26C79.19 123.77 79.64 123.21 80.06 122.58C80.45 121.98 80.82 121.26 81.16 120.41C81.5 119.56 81.73 118.83 81.85 118.22C83.08 118.76 83.85 119.14 84.16 119.37C84.38 119.54 84.36 119.66 84.12 119.72L83.71 119.81C83.52 120.13 83.31 120.47 83.08 120.83H86.17L86.63 120.15C86.63 120.15 86.71 120.04 86.78 119.95C87 119.63 87.15 119.47 87.24 119.47C87.39 119.47 87.71 119.7 88.21 120.17C88.71 120.63 88.96 120.95 88.96 121.11C88.9 121.34 88.72 121.46 88.42 121.46H84.61C85.22 121.79 85.59 122.19 85.72 122.64C85.84 123.03 85.77 123.37 85.52 123.64C85.56 123.67 85.67 123.76 85.85 123.92C86.53 124.47 87.02 124.89 87.31 125.16C87.27 125.39 87.08 125.51 86.77 125.51H84.29V128.54C84.49 128.51 84.8 128.46 85.21 128.39C86.08 128.25 86.74 128.14 87.17 128.06L87.21 128.39C85.73 129.03 83.56 129.89 80.69 130.96C80.6 131.22 80.44 131.39 80.19 131.46L80.17 131.48ZM93.42 127.19V124.88H90.96C90.92 125.68 90.81 126.41 90.63 127.06H91.17L92 125.88C92.48 126.32 92.95 126.75 93.42 127.19Z" fill="#231815"/>
<path d="M142.83 138.91C142.83 138.42 142.72 138.07 142.5 137.86C142.17 137.6 141.58 137.39 140.74 137.25L140.76 136.9C140.83 136.9 140.96 136.9 141.13 136.92C142.22 137.02 142.88 137.07 143.11 137.07C143.42 137.07 143.64 136.98 143.79 136.81C144.05 136.55 144.23 135.59 144.33 133.93C144.4 132.56 144.45 130.2 144.48 126.83H136.61C136.28 127.37 135.84 127.93 135.3 128.51L136.43 129.01H138.09C138.09 128.21 138.05 127.52 137.96 126.94C138.99 127.23 139.64 127.46 139.92 127.64C140.12 127.77 140.14 127.89 139.96 127.99L139.68 128.16V129.01H141.25L141.58 128.62L141.73 128.47C141.88 128.3 141.99 128.21 142.08 128.21C142.23 128.21 142.52 128.38 142.95 128.71C143.39 129.04 143.6 129.29 143.6 129.45C143.45 129.62 143.23 129.73 142.93 129.78V130.78C142.93 130.93 142.93 131.12 142.95 131.37C142.98 131.94 143.01 132.36 143.04 132.63C142.97 132.76 142.78 132.89 142.48 133.02C142.18 133.15 141.92 133.22 141.69 133.22H141.43V132.74H139.69V134.48L141.37 134.31C141.21 133.99 140.98 133.64 140.69 133.26L140.91 133.13C141.84 133.42 142.53 133.82 142.98 134.33C143.36 134.75 143.52 135.18 143.48 135.62C143.44 136.03 143.26 136.3 142.96 136.43C142.63 136.58 142.28 136.5 141.94 136.19C141.93 135.77 141.81 135.3 141.59 134.77C140.12 135.28 138.11 135.9 135.55 136.64C135.46 136.9 135.29 137.06 135.03 137.12L134.07 134.96C135.13 134.9 136.47 134.79 138.1 134.63V132.73H136.31V133.04C136.31 133.13 136.17 133.23 135.9 133.34C135.59 133.47 135.3 133.54 135.01 133.54C134.92 133.54 134.85 133.5 134.78 133.41C134.71 133.32 134.68 133.22 134.68 133.11C134.74 132.44 134.78 131.58 134.81 130.54V129.04C134.36 129.49 133.85 129.9 133.28 130.28C133.37 133.88 132.98 136.32 132.12 137.58C131.7 138.22 130.9 138.54 129.72 138.54C129.72 137.84 129.6 137.37 129.37 137.12C129.07 136.84 128.63 136.63 128.06 136.49V136.16C128.74 136.2 129.43 136.25 130.11 136.29C130.39 136.29 130.59 136.19 130.72 135.99C131.2 135.25 131.44 133.32 131.44 130.19C131.44 129.67 131.44 129.27 131.42 129.01C130.21 130.48 128.77 131.68 127.08 132.63L126.88 132.41C127.77 131.57 128.59 130.56 129.36 129.38C130.1 128.23 130.7 127.06 131.15 125.87C131 125.09 130.84 124.4 130.65 123.8C129.76 124.76 128.76 125.62 127.64 126.37L127.42 126.13C128.32 125.17 129.21 123.91 130.1 122.36C129.56 121.26 128.87 120.25 128.03 119.35L128.29 119.11C129.26 119.79 130.05 120.53 130.67 121.31C131.24 120.25 131.61 119.21 131.78 118.19C132.97 118.81 133.71 119.26 134 119.52C134.22 119.71 134.2 119.83 133.96 119.87L133.57 119.94C133.05 120.81 132.4 121.73 131.63 122.69C132.59 124.43 133.12 126.76 133.22 129.66C134.16 128.35 134.93 126.75 135.51 124.87C135.19 124.99 134.91 125.04 134.66 125.04H134.4V121.92C134.4 120.64 134.33 119.57 134.2 118.69L136.2 119.58H143.81L144.18 119.08C144.18 119.08 144.25 118.98 144.31 118.91C144.5 118.68 144.64 118.56 144.72 118.56C144.86 118.56 145.18 118.77 145.66 119.19C146.14 119.61 146.38 119.9 146.38 120.06C146.25 120.23 146.02 120.36 145.68 120.43V121.72C145.68 121.92 145.68 122.18 145.7 122.5C145.73 123.23 145.76 123.77 145.79 124.13C145.72 124.26 145.51 124.4 145.18 124.53C144.85 124.67 144.54 124.74 144.26 124.74H143.98V124.09H136.07V124.48C136.99 124.74 137.55 124.95 137.77 125.11C137.94 125.23 137.92 125.33 137.68 125.42L137.31 125.57C137.31 125.57 137.28 125.61 137.27 125.66C137.14 125.89 137.05 126.07 137.01 126.18H144.25L144.71 125.66C144.71 125.66 144.79 125.56 144.86 125.49C145.08 125.24 145.23 125.12 145.32 125.12C145.47 125.12 145.8 125.35 146.32 125.82C146.84 126.29 147.1 126.6 147.1 126.76C146.93 126.95 146.64 127.06 146.25 127.11C146.22 130.82 146.14 133.42 146.01 134.93C145.86 136.62 145.6 137.68 145.2 138.13C144.75 138.64 143.95 138.89 142.8 138.89L142.83 138.91ZM136.1 123.48H137.82V120.23H136.1V123.48ZM136.32 132.11H138.11V129.63H136.32V132.11ZM139.26 123.48H140.87V120.23H139.26V123.48ZM139.7 132.11H141.44V129.63H139.7V132.11ZM142.34 123.48H144.02V120.23H142.34V123.48Z" fill="#231815"/>
<path d="M154.12 137.93L153.55 136.82C154.35 136.91 155.31 136.96 156.45 136.99H164.38C165.06 134.58 165.68 131.94 166.23 129.08C166.55 127.32 166.7 125.89 166.69 124.79L170.05 125.71C169.98 126.03 169.72 126.2 169.27 126.21C168.02 130.23 166.58 133.83 164.96 137H169.49L170.1 136.13C170.1 136.13 170.2 136.01 170.27 135.91C170.57 135.47 170.78 135.26 170.88 135.26C171.03 135.26 171.45 135.56 172.16 136.15C172.86 136.75 173.22 137.12 173.22 137.28C173.16 137.51 172.97 137.63 172.63 137.63H157.4C156.37 137.64 155.28 137.75 154.13 137.93H154.12ZM154.99 124.05L154.42 122.94C155.22 123.03 156.19 123.09 157.32 123.11H162.35V123C162.35 121.17 162.26 119.68 162.07 118.53C163.51 118.85 164.4 119.1 164.75 119.27C165.01 119.42 165.03 119.56 164.79 119.71L164.4 119.95V123.11H168.78L169.37 122.28C169.41 122.22 169.48 122.14 169.57 122.02C169.85 121.63 170.03 121.43 170.11 121.43C170.26 121.43 170.68 121.72 171.37 122.29C172.07 122.86 172.42 123.23 172.42 123.39C172.36 123.62 172.17 123.74 171.85 123.74H158.25C157.22 123.75 156.13 123.86 154.98 124.04L154.99 124.05ZM160.92 135.31C160.5 135.67 160.01 135.55 159.46 134.97C159.53 132.41 158.92 129.2 157.61 125.34L157.94 125.25C159.19 126.66 160.13 128.13 160.77 129.65C161.31 130.96 161.57 132.16 161.55 133.27C161.55 134.27 161.34 134.95 160.92 135.31Z" fill="#231815"/>
<path d="M179.92 138.71L179.79 138.34C182.35 137.6 184.25 136.75 185.5 135.79C186.6 134.95 187.34 133.88 187.7 132.59H183.67C182.64 132.6 181.55 132.71 180.4 132.89L179.83 131.8C180.63 131.89 181.6 131.95 182.73 131.97H187.83C188.02 131.03 188.05 130.1 187.92 129.2C189.34 129.3 190.24 129.42 190.6 129.55C190.86 129.64 190.88 129.75 190.67 129.9L190.32 130.14C190.26 130.79 190.17 131.4 190.06 131.97H195.81L196.38 131.16C196.42 131.1 196.49 131.02 196.58 130.92C196.86 130.54 197.04 130.35 197.12 130.35C197.26 130.35 197.66 130.62 198.31 131.17C198.96 131.72 199.28 132.07 199.28 132.23C199.24 132.46 199.05 132.58 198.71 132.58H190.65C191.43 133.8 192.63 134.72 194.22 135.35C195.57 135.9 197.32 136.27 199.47 136.44V136.68C198.67 136.91 198.17 137.56 197.97 138.62C195.91 138.16 194.29 137.49 193.11 136.62C191.8 135.66 190.83 134.32 190.19 132.59H189.93C189.54 134.14 188.69 135.36 187.4 136.23C185.86 137.28 183.37 138.11 179.93 138.71H179.92ZM180.88 129.32L180.29 128.21C181.09 128.3 182.06 128.36 183.19 128.38H188.42V125.79H186.11C185.08 125.8 183.99 125.91 182.84 126.1L182.3 124.99C183.1 125.08 184.07 125.13 185.2 125.16H188.43V122.7H184.99C183.96 122.71 182.87 122.82 181.72 123.01L181.13 121.9C181.93 121.99 182.9 122.05 184.03 122.07H191.05C191.66 120.79 192.04 119.5 192.2 118.19C193.54 118.64 194.38 118.97 194.73 119.17C194.98 119.33 194.98 119.45 194.75 119.52L194.36 119.65C193.55 120.52 192.66 121.33 191.7 122.07H195.01L195.53 121.31C195.53 121.31 195.61 121.2 195.68 121.11C195.94 120.72 196.12 120.52 196.22 120.52C196.36 120.52 196.76 120.78 197.4 121.31C198.04 121.84 198.36 122.19 198.36 122.35C198.3 122.58 198.11 122.7 197.77 122.7H190.45V125.16H193.98L194.48 124.44C194.52 124.38 194.58 124.3 194.65 124.2C194.9 123.87 195.06 123.7 195.15 123.7C195.3 123.7 195.67 123.95 196.27 124.45C196.87 124.95 197.17 125.28 197.17 125.44C197.11 125.67 196.92 125.79 196.6 125.79H190.43V128.38H195.51L196.05 127.59C196.09 127.53 196.15 127.45 196.22 127.35C196.48 126.97 196.66 126.78 196.74 126.78C196.88 126.78 197.27 127.05 197.91 127.6C198.54 128.14 198.86 128.5 198.86 128.66C198.82 128.89 198.63 129.01 198.32 129.01H184.13C183.1 129.02 182.01 129.13 180.86 129.31L180.88 129.32ZM186.04 121.74C185.97 121.25 185.77 120.69 185.45 120.08C185.17 119.56 184.85 119.09 184.49 118.68L184.66 118.55C185.79 118.72 186.64 119.07 187.21 119.57C187.67 119.98 187.9 120.44 187.89 120.94C187.86 121.4 187.66 121.73 187.28 121.92C186.89 122.12 186.47 122.06 186.04 121.72V121.74Z" fill="#231815"/>
<path d="M206.4 129.84C206.08 129.62 205.94 129.32 205.99 128.95C206.03 128.53 206.3 128.18 206.78 127.9C207.08 127.73 207.35 127.44 207.56 127.03C207.82 126.57 207.95 126.03 207.95 125.44L208.21 125.42C208.4 125.86 208.52 126.26 208.58 126.64H209.08L208.82 119.34L210.56 119.73C211.33 119.19 211.92 118.7 212.32 118.25C213.61 119.37 214.06 119.9 213.65 119.84L213.34 119.8C212.45 120.09 211.55 120.3 210.62 120.43L210.69 122.09H211.54L212.26 121.15C212.7 121.54 213.12 121.93 213.55 122.33L213.48 122.24C214.06 121.79 214.63 121.25 215.18 120.63C214.82 120.33 214.41 120.05 213.96 119.8L214.16 119.58C214.8 119.65 215.34 119.76 215.77 119.91C216.16 119.34 216.41 118.86 216.51 118.47L218.32 119.56C218.22 119.75 217.99 119.8 217.62 119.71C217.47 119.91 217.24 120.17 216.9 120.5C217.25 120.78 217.46 121.07 217.53 121.39C217.59 121.68 217.53 121.91 217.36 122.07C217.19 122.23 216.95 122.25 216.64 122.14C216.54 121.97 216.31 121.68 215.94 121.29C215.21 121.81 214.47 122.24 213.72 122.58L213.59 122.41C213.53 122.63 213.36 122.74 213.07 122.74H210.72L210.79 124.42H211.6L211.93 123.92C211.93 123.92 212 123.82 212.06 123.75C212.22 123.53 212.34 123.42 212.43 123.42C212.56 123.42 212.8 123.59 213.16 123.94C213.52 124.29 213.69 124.54 213.69 124.7C213.65 124.93 213.47 125.05 213.17 125.05H210.79L210.83 126.66H220.53L220.62 125.05H219.94C219.58 125.06 219.21 125.17 218.85 125.36L218.28 124.25C218.72 124.34 219.25 124.39 219.89 124.42H220.65L220.72 122.74H220.04C219.68 122.75 219.3 122.86 218.91 123.04L218.34 121.93C218.79 122.02 219.34 122.08 220 122.1H220.76L220.85 120.42H220.04C219.63 120.43 219.2 120.54 218.73 120.73L218.14 119.64C218.62 119.73 219.2 119.79 219.88 119.81H220.69L221.06 119.24C221.06 119.24 221.12 119.16 221.15 119.09C221.34 118.81 221.48 118.68 221.59 118.68C221.74 118.68 222.07 118.92 222.58 119.39C223.1 119.86 223.35 120.18 223.35 120.34C223.25 120.49 223.02 120.59 222.65 120.64L222.32 126.66H222.43L222.93 126.09C222.93 126.09 223.03 125.98 223.1 125.89C223.35 125.64 223.51 125.52 223.6 125.52C223.73 125.52 224.07 125.8 224.62 126.36C225.17 126.92 225.45 127.28 225.45 127.44C225.35 127.57 225.09 127.65 224.66 127.68C223.83 128.32 222.94 128.89 221.98 129.38L221.76 129.23C222.04 128.56 222.27 127.91 222.46 127.27H208.67C208.79 128.61 208.42 129.48 207.56 129.89C207.11 130.09 206.72 130.09 206.38 129.87L206.4 129.84ZM213.98 138.71C213.91 138 213.73 137.5 213.46 137.23C213.11 136.9 212.49 136.66 211.59 136.51V136.2C212.52 136.24 213.45 136.29 214.38 136.35C214.67 136.35 214.82 136.22 214.82 135.96V133.48H210.09C209.06 133.49 207.97 133.6 206.82 133.78L206.28 132.67C207.08 132.76 208.04 132.82 209.18 132.84H214.82C214.82 132.1 214.78 131.51 214.71 131.08L216.47 131.34C216.99 130.95 217.59 130.43 218.26 129.79H213.9C212.87 129.8 211.78 129.91 210.63 130.1L210.06 128.99C210.86 129.08 211.83 129.14 212.96 129.16H218.65L219.17 128.59C219.17 128.59 219.25 128.51 219.32 128.44C219.58 128.16 219.76 128.03 219.86 128.03C219.99 128.03 220.34 128.29 220.91 128.82C221.48 129.35 221.76 129.7 221.76 129.86C221.61 130.01 221.34 130.09 220.93 130.1C219.69 130.64 218.53 131.09 217.42 131.45H217.46C217.4 131.74 217.16 131.92 216.74 131.99V132.84H221.71L222.23 132.06C222.27 132 222.33 131.92 222.4 131.82C222.66 131.44 222.84 131.25 222.92 131.25C223.07 131.25 223.44 131.52 224.05 132.07C224.66 132.61 224.97 132.97 224.97 133.13C224.91 133.36 224.73 133.48 224.43 133.48H216.74V136.07C216.74 136.93 216.59 137.53 216.28 137.88C215.89 138.32 215.12 138.59 213.97 138.71H213.98ZM213.57 126.46L213.37 126.13C214.11 125.65 214.79 125.09 215.4 124.45C214.95 124.04 214.5 123.71 214.05 123.45L214.25 123.23C214.96 123.33 215.56 123.48 216.04 123.69C216.43 123.2 216.7 122.72 216.85 122.25C218.29 122.96 218.77 123.35 218.31 123.41L217.98 123.43C217.68 123.81 217.38 124.11 217.11 124.35C217.47 124.67 217.68 125.01 217.74 125.37C217.8 125.69 217.73 125.93 217.52 126.1C217.32 126.27 217.06 126.28 216.76 126.13C216.6 125.81 216.38 125.48 216.09 125.15C215.3 125.72 214.47 126.15 213.58 126.46H213.57Z" fill="#231815"/>
<path d="M120.77 121.75L106.49 136.03" stroke="#231815" stroke-miterlimit="10"/>
<path d="M120.77 136.03L106.49 121.75" stroke="#231815" stroke-miterlimit="10"/>
<path d="M0 98.0898H226.22" stroke="#231815" stroke-width="0.5" stroke-miterlimit="10"/>
</svg>
