<?xml version="1.0" encoding="utf-8"?>
<!-- Generator: Adobe Illustrator 27.1.1, SVG Export Plug-In . SVG Version: 6.00 Build 0)  -->
<svg version="1.1" id="圖層_1" xmlns="http://www.w3.org/2000/svg" xmlns:xlink="http://www.w3.org/1999/xlink" x="0px" y="0px"
	 viewBox="0 0 229 192" style="enable-background:new 0 0 229 192;" xml:space="preserve">
<style type="text/css">
	.st0{fill:#FFFFFF;}
	.st1{clip-path:url(#SVGID_00000106117551937352216470000014368422154860021142_);}
	.st2{fill:none;}
	.st3{opacity:0.7;clip-path:url(#SVGID_00000136385830005855154000000004573582195375549836_);}
</style>
<g>
	<g>
		<g>
			<path class="st0" d="M103.2,188.5v-0.3c0.5-0.1,0.5-0.2,0.4-0.5c-0.1-0.3-0.2-0.7-0.4-1.1h-1.6c-0.1,0.3-0.2,0.7-0.3,1
				c-0.2,0.6,0,0.6,0.6,0.7v0.3h-1.9v-0.3c0.5-0.1,0.6-0.1,0.9-0.9l1.7-4.6l0.3-0.1c0.5,1.5,1.1,3.2,1.6,4.7
				c0.3,0.8,0.4,0.9,0.9,0.9v0.3H103.2z M102.5,184.1c-0.2,0.7-0.5,1.4-0.7,2h1.3L102.5,184.1z"/>
			<path class="st0" d="M108.1,188.5h-2v-0.3c0.4-0.1,0.5-0.1,0.5-0.6v-1.9c0-0.5,0-0.5-0.4-0.6v-0.3c0.5-0.1,0.9-0.2,1.3-0.3
				c0,0.3,0,0.7,0,1c0.3-0.6,0.6-0.9,1-0.9c0.3,0,0.5,0.2,0.5,0.5c0,0.4-0.2,0.6-0.4,0.7c-0.1,0.1-0.2,0-0.2,0
				c-0.1-0.1-0.2-0.3-0.4-0.3c-0.1,0-0.4,0.2-0.5,0.6v1.7c0,0.6,0.1,0.6,0.6,0.7V188.5z"/>
			<path class="st0" d="M112.8,187.7c-0.4,0.6-0.9,1-1.4,1c-1.1,0-1.7-0.9-1.7-1.9c0-0.7,0.3-1.3,0.8-1.7c0.5-0.4,1-0.5,1.3-0.5
				c0.3,0,0.6,0.1,0.7,0.2c0.1,0.1,0.1,0.2,0.1,0.3c0,0.2-0.2,0.5-0.3,0.5c-0.1,0-0.1,0-0.2-0.1c-0.3-0.3-0.6-0.4-0.8-0.4
				c-0.4,0-0.8,0.4-0.8,1.3c0,1.2,0.8,1.6,1.1,1.6c0.3,0,0.6-0.1,0.9-0.4L112.8,187.7z"/>
			<path class="st0" d="M115.7,188.5v-0.3c0.4-0.1,0.4-0.1,0.4-0.6v-1.5c0-0.7-0.3-1-0.6-1c-0.2,0-0.5,0.1-0.7,0.3v2.2
				c0,0.5,0,0.6,0.5,0.6v0.3h-1.8v-0.3c0.4-0.1,0.5-0.1,0.5-0.7v-4.2c0-0.4,0-0.5-0.5-0.6v-0.3c0.5-0.1,1.1-0.2,1.4-0.3
				c0,0.3,0,0.7,0,1v1.8c0.3-0.3,0.7-0.6,1.1-0.6c0.7,0,1.1,0.5,1.1,1.5v1.6c0,0.6,0.1,0.6,0.5,0.7v0.3H115.7z"/>
			<path class="st0" d="M118.3,188.5v-0.3c0.5-0.1,0.5-0.1,0.5-0.7v-1.8c0-0.6,0-0.6-0.4-0.7v-0.3c0.5-0.1,0.9-0.2,1.3-0.3
				c0,0.4,0,0.7,0,1.1v1.9c0,0.6,0,0.7,0.5,0.7v0.3H118.3z M119.2,183.8c-0.3,0-0.5-0.3-0.5-0.6c0-0.3,0.2-0.6,0.5-0.6
				c0.3,0,0.5,0.2,0.5,0.6C119.7,183.6,119.5,183.8,119.2,183.8z"/>
			<path class="st0" d="M122.6,188.5c-0.1,0.1-0.3,0.1-0.3,0.1c-0.6,0-0.9-0.3-0.9-1.1V185h-0.5l0-0.1l0.2-0.3h0.3v-0.7
				c0.2-0.2,0.6-0.5,0.8-0.7l0.1,0.1c0,0.3,0,0.8,0,1.4h0.8c0.1,0.1,0,0.3-0.1,0.4h-0.8v2.2c0,0.7,0.3,0.8,0.4,0.8
				c0.2,0,0.3,0,0.4-0.1l0.1,0.3L122.6,188.5z"/>
			<path class="st0" d="M126.8,187.7c-0.5,0.8-1.1,0.9-1.4,0.9c-1,0-1.6-0.9-1.6-1.9c0-0.6,0.2-1.2,0.6-1.6c0.3-0.4,0.8-0.6,1.2-0.6
				c0.8,0,1.3,0.7,1.3,1.4c0,0.2,0,0.3-0.1,0.3c-0.2,0-1.2,0.1-2.1,0.1c0,1,0.5,1.5,1.1,1.5c0.3,0,0.6-0.1,0.9-0.4L126.8,187.7z
				 M125.4,184.8c-0.3,0-0.6,0.4-0.7,1.1c0.4,0,0.7,0,1.1,0c0.1,0,0.2,0,0.2-0.2C126,185.3,125.8,184.8,125.4,184.8z"/>
			<path class="st0" d="M130.9,187.7c-0.4,0.6-0.9,1-1.4,1c-1.1,0-1.7-0.9-1.7-1.9c0-0.7,0.3-1.3,0.8-1.7c0.5-0.4,1-0.5,1.3-0.5
				c0.3,0,0.6,0.1,0.7,0.2c0.1,0.1,0.1,0.2,0.1,0.3c0,0.2-0.2,0.5-0.3,0.5c-0.1,0-0.1,0-0.2-0.1c-0.3-0.3-0.6-0.4-0.8-0.4
				c-0.4,0-0.8,0.4-0.8,1.3c0,1.2,0.8,1.6,1.1,1.6c0.3,0,0.6-0.1,0.9-0.4L130.9,187.7z"/>
			<path class="st0" d="M133.4,188.5c-0.1,0.1-0.3,0.1-0.3,0.1c-0.6,0-0.9-0.3-0.9-1.1V185h-0.5l0-0.1l0.2-0.3h0.3v-0.7
				c0.2-0.2,0.6-0.5,0.8-0.7l0.1,0.1c0,0.3,0,0.8,0,1.4h0.8c0.1,0.1,0,0.3-0.1,0.4H133v2.2c0,0.7,0.3,0.8,0.4,0.8
				c0.2,0,0.3,0,0.4-0.1l0.1,0.3L133.4,188.5z"/>
			<path class="st0" d="M138.6,188.3c-0.4,0.1-0.9,0.2-1.4,0.3c0-0.2,0-0.4,0-0.6c-0.4,0.3-0.7,0.6-1.1,0.6c-0.6,0-1-0.4-1-1.3v-1.8
				c0-0.4-0.1-0.5-0.3-0.5l-0.2-0.1v-0.3c0.4,0,1-0.1,1.4-0.2c0,0.3,0,0.8,0,1.3v1.3c0,0.7,0.3,0.9,0.6,0.9c0.2,0,0.5-0.1,0.7-0.3
				v-2.1c0-0.4-0.1-0.5-0.3-0.5l-0.2,0v-0.3c0.5,0,1.1-0.1,1.4-0.2v2.9c0,0.5,0.1,0.5,0.3,0.6l0.2,0V188.3z"/>
			<path class="st0" d="M141.4,188.5h-2v-0.3c0.5-0.1,0.5-0.1,0.5-0.6v-1.9c0-0.5,0-0.5-0.4-0.6v-0.3c0.5-0.1,0.9-0.2,1.3-0.3
				c0,0.3,0,0.7,0,1c0.3-0.6,0.6-0.9,1-0.9c0.3,0,0.5,0.2,0.5,0.5c0,0.4-0.2,0.6-0.4,0.7c-0.1,0.1-0.2,0-0.2,0
				c-0.1-0.1-0.2-0.3-0.4-0.3c-0.1,0-0.4,0.2-0.5,0.6v1.7c0,0.6,0.1,0.6,0.6,0.7V188.5z"/>
			<path class="st0" d="M145.9,187.7c-0.5,0.8-1.1,0.9-1.4,0.9c-1,0-1.6-0.9-1.6-1.9c0-0.6,0.2-1.2,0.6-1.6c0.3-0.4,0.8-0.6,1.2-0.6
				c0.8,0,1.3,0.7,1.3,1.4c0,0.2,0,0.3-0.1,0.3c-0.2,0-1.2,0.1-2.1,0.1c0,1,0.5,1.5,1.1,1.5c0.3,0,0.6-0.1,0.9-0.4L145.9,187.7z
				 M144.5,184.8c-0.3,0-0.6,0.4-0.7,1.1c0.4,0,0.7,0,1.1,0c0.1,0,0.2,0,0.2-0.2C145.1,185.3,144.9,184.8,144.5,184.8z"/>
			<path class="st0" d="M150.9,184.5c1.1,0,1.8,0.9,1.8,2c0,1.4-0.9,2.1-1.8,2.1c-1.2,0-1.8-1-1.8-2
				C149,185.2,150,184.5,150.9,184.5z M150.8,184.8c-0.4,0-0.8,0.4-0.8,1.5c0,1.1,0.4,2,0.9,2c0.4,0,0.7-0.3,0.7-1.6
				C151.7,185.6,151.4,184.8,150.8,184.8z"/>
			<path class="st0" d="M154.1,184.6v-0.2c0-0.6,0.3-1.3,0.7-1.7c0.3-0.3,0.6-0.4,0.9-0.5c0.3,0,0.5,0.1,0.7,0.3
				c0.1,0.1,0.1,0.2,0.1,0.4c0,0.1-0.1,0.3-0.3,0.4c-0.1,0.1-0.2,0.1-0.3,0c-0.2-0.2-0.4-0.5-0.7-0.5c-0.3,0-0.4,0.5-0.4,1.5v0.4
				h0.8c0,0.1,0,0.3-0.1,0.4h-0.7v2.6c0,0.6,0.1,0.6,0.6,0.7v0.3h-2v-0.3c0.5-0.1,0.5-0.1,0.5-0.7V185h-0.5l0-0.1l0.2-0.3H154.1z"/>
			<path class="st0" d="M160.8,188.5v-0.3c0.4-0.1,0.4-0.1,0.4-0.7V186c0-0.6-0.3-0.9-0.6-0.9c-0.2,0-0.5,0.1-0.7,0.3v2.1
				c0,0.6,0,0.6,0.4,0.7v0.3h-1.8v-0.3c0.5-0.1,0.5-0.1,0.5-0.7v-1.8c0-0.6-0.1-0.6-0.4-0.7v-0.3c0.4-0.1,0.9-0.2,1.3-0.3
				c0,0.2,0,0.5,0,0.7c0.2-0.1,0.3-0.3,0.5-0.4c0.2-0.2,0.4-0.2,0.6-0.2c0.6,0,1,0.5,1,1.4v1.7c0,0.6,0,0.6,0.5,0.7v0.3H160.8z"/>
			<path class="st0" d="M166,188.7c-0.2,0-0.4-0.1-0.5-0.2c-0.1-0.1-0.2-0.2-0.2-0.4c-0.3,0.2-0.7,0.5-0.9,0.5c-0.6,0-1-0.6-1-1.1
				c0-0.5,0.2-0.7,0.6-0.9c0.5-0.2,1.1-0.4,1.3-0.6v-0.3c0-0.5-0.2-0.8-0.6-0.8c-0.2,0-0.3,0.1-0.3,0.2c-0.1,0.1-0.1,0.3-0.2,0.6
				c-0.1,0.2-0.2,0.3-0.3,0.3c-0.2,0-0.4-0.2-0.4-0.4c0-0.1,0.1-0.3,0.3-0.4c0.3-0.2,0.8-0.5,1.2-0.6c0.3,0,0.6,0.1,0.8,0.3
				c0.3,0.3,0.4,0.6,0.4,1.1v1.6c0,0.4,0.1,0.5,0.3,0.5c0.1,0,0.2,0,0.3-0.1l0.1,0.3L166,188.7z M165.3,186.4
				c-0.2,0.1-0.4,0.2-0.5,0.3c-0.3,0.1-0.4,0.3-0.4,0.6c0,0.5,0.3,0.7,0.5,0.7c0.1,0,0.3-0.1,0.5-0.2
				C165.3,187.4,165.3,186.8,165.3,186.4z"/>
			<path class="st0" d="M169.1,188.5c-0.1,0.1-0.3,0.1-0.3,0.1c-0.6,0-0.9-0.3-0.9-1.1V185h-0.5l0-0.1l0.2-0.3h0.3v-0.7
				c0.2-0.2,0.6-0.5,0.8-0.7l0.1,0.1c0,0.3,0,0.8,0,1.4h0.8c0.1,0.1,0,0.3-0.1,0.4h-0.8v2.2c0,0.7,0.3,0.8,0.4,0.8
				c0.2,0,0.3,0,0.4-0.1l0.1,0.3L169.1,188.5z"/>
			<path class="st0" d="M174.2,188.3c-0.4,0.1-0.9,0.2-1.4,0.3c0-0.2,0-0.4,0-0.6c-0.4,0.3-0.7,0.6-1.1,0.6c-0.6,0-1-0.4-1-1.3v-1.8
				c0-0.4-0.1-0.5-0.3-0.5l-0.2-0.1v-0.3c0.4,0,1-0.1,1.4-0.2c0,0.3,0,0.8,0,1.3v1.3c0,0.7,0.3,0.9,0.6,0.9c0.2,0,0.5-0.1,0.7-0.3
				v-2.1c0-0.4-0.1-0.5-0.3-0.5l-0.2,0v-0.3c0.5,0,1.1-0.1,1.4-0.2v2.9c0,0.5,0.1,0.5,0.3,0.6l0.2,0V188.3z"/>
			<path class="st0" d="M177,188.5h-2v-0.3c0.5-0.1,0.5-0.1,0.5-0.6v-1.9c0-0.5,0-0.5-0.4-0.6v-0.3c0.5-0.1,0.9-0.2,1.3-0.3
				c0,0.3,0,0.7,0,1c0.3-0.6,0.6-0.9,1-0.9c0.3,0,0.5,0.2,0.5,0.5c0,0.4-0.2,0.6-0.4,0.7c-0.1,0.1-0.2,0-0.2,0
				c-0.1-0.1-0.2-0.3-0.4-0.3c-0.1,0-0.4,0.2-0.5,0.6v1.7c0,0.6,0.1,0.6,0.6,0.7V188.5z"/>
			<path class="st0" d="M181.2,188.7c-0.2,0-0.4-0.1-0.5-0.2c-0.1-0.1-0.2-0.2-0.2-0.4c-0.3,0.2-0.7,0.5-0.9,0.5c-0.6,0-1-0.6-1-1.1
				c0-0.5,0.2-0.7,0.6-0.9c0.5-0.2,1.1-0.4,1.3-0.6v-0.3c0-0.5-0.2-0.8-0.6-0.8c-0.2,0-0.3,0.1-0.3,0.2c-0.1,0.1-0.1,0.3-0.2,0.6
				c-0.1,0.2-0.2,0.3-0.3,0.3c-0.2,0-0.4-0.2-0.4-0.4c0-0.1,0.1-0.3,0.3-0.4c0.3-0.2,0.8-0.5,1.2-0.6c0.3,0,0.6,0.1,0.8,0.3
				c0.3,0.3,0.4,0.6,0.4,1.1v1.6c0,0.4,0.1,0.5,0.3,0.5c0.1,0,0.2,0,0.3-0.1l0.1,0.3L181.2,188.7z M180.5,186.4
				c-0.2,0.1-0.4,0.2-0.5,0.3c-0.3,0.1-0.4,0.3-0.4,0.6c0,0.5,0.3,0.7,0.5,0.7c0.1,0,0.3-0.1,0.5-0.2
				C180.5,187.4,180.5,186.8,180.5,186.4z"/>
			<path class="st0" d="M182.6,188.5v-0.3c0.5-0.1,0.5-0.1,0.5-0.7v-4.1c0-0.5,0-0.5-0.5-0.6v-0.3c0.5-0.1,1-0.2,1.4-0.3
				c0,0.4,0,0.8,0,1.2v4.1c0,0.6,0,0.6,0.5,0.7v0.3H182.6z"/>
			<path class="st0" d="M187.4,184.8c0.4-0.1,0.9-0.2,1.4-0.4c0,0.2,0,0.5,0,0.7c0,0,0.6-0.4,0.6-0.4c0.2-0.1,0.4-0.2,0.5-0.2
				c0.9,0,1.4,0.9,1.4,1.7c0,1.3-0.9,2.2-2,2.4c-0.2,0-0.4,0-0.5-0.1v1.1c0,0.6,0,0.6,0.6,0.7v0.3h-2v-0.3c0.5-0.1,0.5-0.1,0.5-0.7
				v-4c0-0.5,0-0.5-0.5-0.6V184.8z M188.8,187.9c0.2,0.2,0.5,0.3,0.7,0.3c0.5,0,0.9-0.6,0.9-1.6c0-1.1-0.5-1.5-0.9-1.5
				c-0.2,0-0.5,0.1-0.6,0.3V187.9z"/>
			<path class="st0" d="M194.4,188.5v-0.3c0.4-0.1,0.4-0.1,0.4-0.6v-1.5c0-0.7-0.3-1-0.6-1c-0.2,0-0.5,0.1-0.7,0.3v2.2
				c0,0.5,0,0.6,0.5,0.6v0.3h-1.8v-0.3c0.4-0.1,0.5-0.1,0.5-0.7v-4.2c0-0.4,0-0.5-0.5-0.6v-0.3c0.5-0.1,1.1-0.2,1.4-0.3
				c0,0.3,0,0.7,0,1v1.8c0.3-0.3,0.7-0.6,1.1-0.6c0.7,0,1.1,0.5,1.1,1.5v1.6c0,0.6,0.1,0.6,0.5,0.7v0.3H194.4z"/>
			<path class="st0" d="M197,188.5v-0.3c0.5-0.1,0.5-0.1,0.5-0.7v-1.8c0-0.6,0-0.6-0.4-0.7v-0.3c0.5-0.1,0.9-0.2,1.3-0.3
				c0,0.4,0,0.7,0,1.1v1.9c0,0.6,0,0.7,0.5,0.7v0.3H197z M197.9,183.8c-0.3,0-0.5-0.3-0.5-0.6c0-0.3,0.2-0.6,0.5-0.6
				c0.3,0,0.5,0.2,0.5,0.6C198.4,183.6,198.2,183.8,197.9,183.8z"/>
			<path class="st0" d="M199.6,188.5v-0.3c0.5-0.1,0.5-0.1,0.5-0.7v-4.1c0-0.5,0-0.5-0.5-0.6v-0.3c0.5-0.1,1-0.2,1.4-0.3
				c0,0.4,0,0.8,0,1.2v4.1c0,0.6,0,0.6,0.5,0.7v0.3H199.6z"/>
			<path class="st0" d="M204.2,184.5c1.1,0,1.8,0.9,1.8,2c0,1.4-0.9,2.1-1.8,2.1c-1.2,0-1.8-1-1.8-2
				C202.4,185.2,203.4,184.5,204.2,184.5z M204.1,184.8c-0.4,0-0.8,0.4-0.8,1.5c0,1.1,0.4,2,0.9,2c0.4,0,0.7-0.3,0.7-1.6
				C205,185.6,204.7,184.8,204.1,184.8z"/>
			<path class="st0" d="M209.2,185.7c-0.2-0.6-0.4-0.9-0.8-0.9c-0.2,0-0.4,0.2-0.4,0.5c0,0.3,0.2,0.5,0.6,0.7
				c0.7,0.3,1.1,0.6,1.1,1.3c0,0.9-0.7,1.3-1.4,1.3c-0.4,0-0.8-0.2-1-0.3c0-0.2-0.1-0.8-0.1-1.1l0.3-0.1c0.2,0.6,0.5,1.1,1,1.1
				c0.3,0,0.5-0.2,0.5-0.5c0-0.3-0.2-0.5-0.6-0.8c-0.5-0.3-1-0.6-1-1.3c0-0.7,0.5-1.2,1.3-1.2c0.4,0,0.7,0.1,0.8,0.1
				c0,0.2,0.1,0.8,0.1,1L209.2,185.7z"/>
			<path class="st0" d="M212.4,184.5c1.1,0,1.8,0.9,1.8,2c0,1.4-0.9,2.1-1.8,2.1c-1.2,0-1.8-1-1.8-2
				C210.5,185.2,211.5,184.5,212.4,184.5z M212.3,184.8c-0.4,0-0.8,0.4-0.8,1.5c0,1.1,0.4,2,0.9,2c0.4,0,0.7-0.3,0.7-1.6
				C213.2,185.6,212.9,184.8,212.3,184.8z"/>
			<path class="st0" d="M215.1,184.8c0.4-0.1,0.9-0.2,1.4-0.4c0,0.2,0,0.5,0,0.7c0,0,0.6-0.4,0.6-0.4c0.2-0.1,0.4-0.2,0.5-0.2
				c0.9,0,1.4,0.9,1.4,1.7c0,1.3-0.9,2.2-2,2.4c-0.2,0-0.4,0-0.5-0.1v1.1c0,0.6,0,0.6,0.6,0.7v0.3h-2v-0.3c0.5-0.1,0.5-0.1,0.5-0.7
				v-4c0-0.5,0-0.5-0.5-0.6V184.8z M216.4,187.9c0.2,0.2,0.5,0.3,0.7,0.3c0.5,0,0.9-0.6,0.9-1.6c0-1.1-0.5-1.5-0.9-1.5
				c-0.2,0-0.5,0.1-0.6,0.3V187.9z"/>
			<path class="st0" d="M222.1,188.5v-0.3c0.4-0.1,0.4-0.1,0.4-0.6v-1.5c0-0.7-0.3-1-0.6-1c-0.2,0-0.5,0.1-0.7,0.3v2.2
				c0,0.5,0,0.6,0.5,0.6v0.3h-1.8v-0.3c0.4-0.1,0.5-0.1,0.5-0.7v-4.2c0-0.4,0-0.5-0.5-0.6v-0.3c0.5-0.1,1.1-0.2,1.4-0.3
				c0,0.3,0,0.7,0,1v1.8c0.3-0.3,0.7-0.6,1.1-0.6c0.7,0,1.1,0.5,1.1,1.5v1.6c0,0.6,0.1,0.6,0.5,0.7v0.3H222.1z"/>
			<path class="st0" d="M228.1,184.9c-0.4,0.1-0.5,0.1-0.7,0.6c-0.2,0.5-0.4,1.1-0.9,2.5c-0.5,1.4-0.7,2-0.8,2.5
				c-0.1,0.2-0.1,0.2-0.3,0.2c-0.3,0-0.6-0.2-0.6-0.5c0-0.1,0.1-0.2,0.2-0.3c0.3-0.2,0.5-0.4,0.6-0.6c0.1-0.2,0.2-0.5,0.2-0.6
				c0-0.1,0-0.2,0-0.3c-0.4-1.2-0.9-2.4-1-2.8c-0.2-0.4-0.2-0.5-0.6-0.6v-0.3h1.9v0.3c-0.4,0.1-0.4,0.1-0.3,0.4l0.7,2
				c0.2-0.5,0.5-1.4,0.6-1.9c0.1-0.3,0-0.4-0.4-0.5v-0.3h1.5V184.9z"/>
		</g>
	</g>
	<g>
		<g>
			<path class="st0" d="M10.4,183.2c-0.1-0.7-0.4-1.2-0.6-1.4c-0.2-0.3-0.3-0.4-1.1-0.4H7.9v6.8c0,1.2,0.1,1.3,1.3,1.4v0.5H4.9v-0.5
				c1.1-0.1,1.2-0.2,1.2-1.4v-6.8H5.3c-0.7,0-0.9,0.1-1.2,0.5c-0.2,0.3-0.4,0.8-0.5,1.4H3.1c0.1-1.1,0.2-2.2,0.2-2.9h0.4
				c0.2,0.3,0.3,0.4,0.7,0.4h5.1c0.3,0,0.5-0.1,0.7-0.4h0.4c0,0.6,0.1,1.9,0.1,2.8L10.4,183.2z"/>
			<path class="st0" d="M19.5,187.7c-0.1,0.4-0.4,2-0.5,2.4h-6.7v-0.5c1.2-0.1,1.2-0.2,1.2-1.4v-5.5c0-1.2-0.2-1.3-1-1.4v-0.5h4.2
				c1.4,0,1.8,0,2,0c0,0.3,0.1,1.4,0.1,2.3l-0.5,0.1c-0.1-0.5-0.3-1.1-0.6-1.3c-0.2-0.3-0.4-0.4-1.1-0.4h-0.8c-0.5,0-0.5,0-0.5,0.5
				v3h1.3c0.7,0,0.8-0.2,1-1.2h0.5v3.2h-0.5c-0.2-1.1-0.3-1.2-1.1-1.2h-1.2v2.5c0,1,0,1.3,0.8,1.3H17c0.7,0,0.9-0.1,1.2-0.5
				c0.3-0.4,0.6-1,0.8-1.4L19.5,187.7z"/>
			<path class="st0" d="M27.7,187.6c-0.1,0.6-0.5,2.1-0.6,2.5h-6.4v-0.5c1.1-0.1,1.2-0.2,1.2-1.4v-5.5c0-1.2-0.1-1.3-1.1-1.4v-0.5h4
				v0.5c-1,0.1-1.1,0.2-1.1,1.4v5.6c0,0.8,0,1.2,0.7,1.2c0,0,0.6,0,0.7,0c0.7,0,0.9-0.2,1.2-0.6c0.2-0.3,0.6-0.9,0.8-1.5L27.7,187.6
				z"/>
			<path class="st0" d="M28.9,190.1v-0.5c1-0.1,1.1-0.2,1.1-1.4v-5.5c0-1.2-0.1-1.3-1.1-1.4v-0.5h4v0.5c-1,0.1-1.1,0.2-1.1,1.4v5.5
				c0,1.2,0.1,1.3,1.1,1.4v0.5H28.9z"/>
			<path class="st0" d="M43.6,181.3c-0.8,0.1-1,0.3-1.1,1c0,0.6-0.1,1.1-0.1,2.3v5.7h-0.7l-5.4-7.2v3.3c0,1.3,0,1.8,0.1,2.2
				c0.1,0.6,0.3,1,1.3,1v0.5h-3.2v-0.5c0.7-0.1,1.1-0.3,1.1-1c0.1-0.5,0.1-1,0.1-2.3v-3.4c0-0.5,0-0.8-0.3-1.2
				c-0.2-0.4-0.5-0.4-1.1-0.5v-0.5h2.5l4.9,6.4v-2.6c0-1.3,0-1.7-0.1-2.3c0-0.6-0.2-0.9-1.3-1v-0.5h3.2V181.3z"/>
		</g>
	</g>
	<g>
		<g>
			<path class="st0" d="M55.8,187.4c-0.1,0.5-0.5,2.2-0.6,2.7h-6.9l-0.1-0.3c1.6-2.6,3.3-5.6,4.9-8.4h-2c-0.9,0-1.1,0.1-1.4,0.6
				c-0.2,0.3-0.3,0.7-0.5,1.2l-0.5,0c0.1-0.9,0.2-2.3,0.2-2.9h0.5c0.2,0.3,0.3,0.4,0.7,0.4h5.2l0.1,0.3c-1.6,2.7-3.2,5.5-4.8,8.4
				c0.4,0,0.8,0,1.6,0c1.5,0,1.8,0,2.1-0.4c0.3-0.3,0.7-1,1-1.7L55.8,187.4z"/>
			<path class="st0" d="M66.4,181.3c-1,0.1-1.1,0.2-1.1,1.4v5.5c0,1.2,0.1,1.3,1.1,1.4v0.5h-4v-0.5c1-0.1,1.1-0.2,1.1-1.4v-2.7h-3.5
				v2.7c0,1.2,0.1,1.3,1.1,1.4v0.5h-4v-0.5c1-0.1,1.1-0.2,1.1-1.4v-5.5c0-1.2-0.1-1.3-1.1-1.4v-0.5h4v0.5c-1,0.1-1.1,0.2-1.1,1.4
				v2.1h3.5v-2.1c0-1.2-0.1-1.3-1.1-1.4v-0.5h4V181.3z"/>
			<path class="st0" d="M75.3,187.7c-0.1,0.4-0.4,2-0.5,2.4H68v-0.5c1.2-0.1,1.2-0.2,1.2-1.4v-5.5c0-1.2-0.2-1.3-1-1.4v-0.5h4.2
				c1.4,0,1.8,0,2,0c0,0.3,0.1,1.4,0.1,2.3l-0.5,0.1c-0.1-0.5-0.3-1.1-0.6-1.3c-0.2-0.3-0.4-0.4-1.1-0.4h-0.8c-0.5,0-0.5,0-0.5,0.5
				v3h1.3c0.7,0,0.8-0.2,1-1.2h0.5v3.2h-0.5c-0.2-1.1-0.3-1.2-1.1-1.2h-1.2v2.5c0,1,0,1.3,0.8,1.3h0.9c0.7,0,0.9-0.1,1.2-0.5
				c0.3-0.4,0.6-1,0.8-1.4L75.3,187.7z"/>
			<path class="st0" d="M87,187.6c-0.1,0.6-0.5,2.1-0.6,2.5H80v-0.5c1.1-0.1,1.2-0.2,1.2-1.4v-5.5c0-1.2-0.1-1.3-1.1-1.4v-0.5h4v0.5
				c-1,0.1-1.1,0.2-1.1,1.4v5.6c0,0.8,0,1.2,0.7,1.2c0,0,0.6,0,0.7,0c0.7,0,0.9-0.2,1.2-0.6c0.2-0.3,0.6-0.9,0.8-1.5L87,187.6z"/>
			<path class="st0" d="M88.2,190.1v-0.5c1-0.1,1.1-0.2,1.1-1.4v-5.5c0-1.2-0.1-1.3-1.1-1.4v-0.5h4v0.5c-1,0.1-1.1,0.2-1.1,1.4v5.5
				c0,1.2,0.1,1.3,1.1,1.4v0.5H88.2z"/>
		</g>
	</g>
	<g>
		<g>
			<g>
				<path class="st0" d="M45.6,130.4H23.7c-0.5,0-0.9-0.4-0.9-0.9c0-0.5,0.4-0.9,0.9-0.9h21.9c0.5,0,0.9,0.4,0.9,0.9
					C46.4,130,46,130.4,45.6,130.4z"/>
			</g>
		</g>
		<g>
			<g>
				<path class="st0" d="M45.6,142.8H23.7c-0.5,0-0.9-0.4-0.9-0.9c0-0.5,0.4-0.9,0.9-0.9h21.9c0.5,0,0.9,0.4,0.9,0.9
					C46.4,142.5,46,142.8,45.6,142.8z"/>
			</g>
		</g>
		<g>
			<g>
				<path class="st0" d="M51.8,125.1H18.6c-0.5,0-0.9-0.4-0.9-0.9c0-0.5,0.4-0.9,0.9-0.9h33.1c0.5,0,0.9,0.4,0.9,0.9
					C52.6,124.7,52.2,125.1,51.8,125.1z"/>
			</g>
		</g>
		<g>
			<g>
				<path class="st0" d="M51.8,148.5H18.6c-0.5,0-0.9-0.4-0.9-0.9c0-0.5,0.4-0.9,0.9-0.9h33.1c0.5,0,0.9,0.4,0.9,0.9
					C52.6,148.1,52.2,148.5,51.8,148.5z"/>
			</g>
		</g>
		<g>
			<g>
				<g>
					<path class="st0" d="M82.2,130.5H60.7c-0.5,0-0.9-0.4-0.9-0.9c0-0.5,0.4-0.9,0.9-0.9h21.4c0.5,0,0.9,0.4,0.9,0.9
						C83,130.1,82.7,130.5,82.2,130.5z"/>
				</g>
			</g>
			<g>
				<g>
					<path class="st0" d="M108.9,130.5H82.2c-0.5,0-0.9-0.4-0.9-0.9c0-0.5,0.4-0.9,0.9-0.9h26.7c0.5,0,0.9,0.4,0.9,0.9
						C109.7,130.1,109.3,130.5,108.9,130.5z"/>
				</g>
			</g>
		</g>
		<g>
			<g>
				<path class="st0" d="M216,156.8h-39.1c-0.5,0-0.9-0.4-0.9-0.9c0-0.5,0.4-0.9,0.9-0.9H216c0.5,0,0.9,0.4,0.9,0.9
					C216.8,156.4,216.4,156.8,216,156.8z"/>
			</g>
		</g>
		<g>
			<path class="st0" d="M225.1,167.9h-53.3c-0.4,0-0.7-0.3-0.7-0.7s0.3-0.7,0.7-0.7h53.3c0.4,0,0.7,0.3,0.7,0.7
				S225.5,167.9,225.1,167.9z"/>
		</g>
		<g>
			<g>
				<path class="st0" d="M215.9,121.7h-33.7c-0.5,0-0.9-0.4-0.9-0.9c0-0.5,0.4-0.9,0.9-0.9h33.7c0.5,0,0.9,0.4,0.9,0.9
					C216.7,121.3,216.4,121.7,215.9,121.7z"/>
			</g>
		</g>
		<g>
			<g>
				<path class="st0" d="M216,134h-33.7c-0.5,0-0.9-0.4-0.9-0.9c0-0.5,0.4-0.9,0.9-0.9H216c0.5,0,0.9,0.4,0.9,0.9
					C216.8,133.7,216.4,134,216,134z"/>
			</g>
		</g>
		<g>
			<g>
				<path class="st0" d="M216,147.5h-35.5c-0.5,0-0.9-0.4-0.9-0.9c0-0.5,0.4-0.9,0.9-0.9H216c0.5,0,0.9,0.4,0.9,0.9
					C216.8,147.1,216.4,147.5,216,147.5z"/>
			</g>
		</g>
		<g>
			<g>
				<g>
					<path class="st0" d="M29.2,151.9c6.3-0.8,10.2,0.2,12,2.4c1.4,1.7,1.3,4.8-0.7,5.5c-0.9,0.3-2.2,0.2-3.1-1.8
						C37.4,158,35.6,151.6,29.2,151.9z"/>
				</g>
			</g>
		</g>
		<g>
			<g>
				<path class="st0" d="M2.1,132.6l-0.8,0.5c3.5-4,5.1-6.2,6.8-9.3c1.3-2.4,2-3.9,2.6-6.1c1.7,0.5,3,1,3.8,1.3
					c2.8,0.8,2.5,0.8,2.5,1.4c0,0,0,0.3-0.9,0.6C15.2,121.4,2.1,132.6,2.1,132.6z"/>
			</g>
		</g>
		<g>
			<g>
				<path class="st0" d="M1.7,144.7l-0.9,0.6c3.9-4.4,5.6-6.9,7.5-10.3c1.5-2.7,2.2-4.3,2.8-6.7c1.9,0.6,3.3,1.1,4.3,1.4
					c3.1,0.9,2.8,0.9,2.8,1.5c0,0,0,0.4-1,0.7C16.3,132.2,1.7,144.7,1.7,144.7z"/>
			</g>
		</g>
		<g>
			<g>
				<polygon class="st0" points="24.2,128.7 24.2,143.9 20.4,143.9 20.4,127.7 				"/>
			</g>
		</g>
		<g>
			<g>
				<path class="st0" d="M45.3,143.9l0-13.3h0v-1.9c1.1-1,0.4-0.4,1.7-1.5c1.9,1.3,1.2,0.8,2.9,2c0.5,0.4,0.7,0.7,0.7,1.1
					c0,0.5-0.5,0.9-1.7,1.3v12.3L45.3,143.9z"/>
			</g>
		</g>
		<g>
			<g>
				<rect x="33.3" y="117.4" class="st0" width="3.8" height="11.3"/>
			</g>
		</g>
		<g>
			<g>
				<rect x="28.9" y="129" class="st0" width="3.8" height="12.9"/>
			</g>
		</g>
		<g>
			<g>
				<path class="st0" d="M45.8,167.6c-1.4,0.5-6.9,1.4-11.8,0.9c-8.9-1-8.7-6.7-8.7-6.7c-0.1-1.6,0-10,0-10h3.9l0,4.3v4.5
					c0,6.5,13.6,4,14.4,3.9c0.9-0.2,1.3-0.9,1.3-0.9l1.8-3.5l0.1,3.2c0,0,0,1,0.2,1.5c0.2,0.4,0.7,0.5,0.7,1.2
					C47.7,165.8,47.9,166.9,45.8,167.6z"/>
			</g>
		</g>
		<g>
			<g>
				<rect x="37.1" y="129" class="st0" width="3.8" height="12.9"/>
			</g>
		</g>
		<g>
			<g>
				<g>
					<path class="st0" d="M53.7,125.1c0.2,0,0.4-0.1,0.4-0.3c0-0.1,0-0.2-0.2-0.4c-1.7-1.5-2.2-2-4.1-3.4c-1.2,1.3-2.4,2.6-3.5,4
						L53.7,125.1z"/>
				</g>
			</g>
		</g>
		<g>
			<g>
				<g>
					<path class="st0" d="M53.7,148.5c0.2,0,0.5-0.1,0.5-0.3c0-0.1,0-0.2-0.2-0.4c-1.7-1.5-2.2-2-4.1-3.4c-1.2,1.3-2.4,2.6-3.5,4
						L53.7,148.5z"/>
				</g>
			</g>
		</g>
		<g>
			<g>
				<polygon class="st0" points="7.8,139.4 7.8,167.8 11.6,167.8 11.6,133.9 				"/>
			</g>
		</g>
		<g>
			<g>
				<g>
					<path class="st0" d="M15.8,163.8c1.1,1.5,3.7,0.7,4.7-0.9c1.3-2.1,2.3-6.2-1.5-12.7c0,0,2.4,4.8-3,10.6
						C16.1,160.7,14.7,162.2,15.8,163.8z"/>
				</g>
			</g>
		</g>
		<g>
			<g>
				<g>
					<path class="st0" d="M46.3,151.3c5.7,2.3,7.3,4.3,7.8,7c0.4,2.1-1.1,4.6-3.2,4.3c-0.9-0.2-2-0.9-1.8-2.9
						C49.2,159.6,50.2,153.6,46.3,151.3z"/>
				</g>
			</g>
		</g>
		<g>
			<g>
				<rect x="71.1" y="118.1" class="st0" width="3.8" height="49.9"/>
			</g>
		</g>
		<g>
			<g>
				<g>
					<path class="st0" d="M85.5,130.5c0.2,0,0.4-0.1,0.4-0.3c0-0.1,0-0.2-0.2-0.4c-1.7-1.5-2.2-2-4.1-3.4c-1.2,1.3-2.4,2.6-3.5,4
						L85.5,130.5z"/>
				</g>
			</g>
		</g>
		<g>
			<g>
				<g>
					<path class="st0" d="M111.8,130.5c0.2,0,0.4-0.1,0.4-0.3c0-0.1,0-0.2-0.2-0.4c-1.7-1.5-2.2-2-4.1-3.4c-1.2,1.3-2.4,2.6-3.5,4
						L111.8,130.5z"/>
				</g>
			</g>
		</g>
		<g>
			<g>
				<g>
					<path class="st0" d="M76.1,136.4c6.6,1,9.2,4.8,9.8,7.8c0.5,2.4-1.3,5.4-3.6,5c-1-0.2-2.3-1-2.1-3.4
						C80.2,145.9,81.9,137.3,76.1,136.4z"/>
				</g>
			</g>
		</g>
		<g>
			<g>
				<path class="st0" d="M71.9,130.3h-1c-0.8,3.4-2,7.7-3.3,11.2c-2.2,5.9-4.2,9.8-8.1,15.5l0.7-0.5c5.7-5.7,8.2-10.9,11.5-17
					L71.9,130.3z"/>
			</g>
		</g>
		<g>
			<g>
				<rect x="95.5" y="118.1" class="st0" width="3.8" height="49.9"/>
			</g>
		</g>
		<g>
			<g>
				<path class="st0" d="M96.5,143.2c-4.3,8.5-8,15.7-15,23.5l-1,0.7c5.1-7.9,7.8-13.3,10.6-21.6c1.7-4.9,3.3-10.9,4.3-15.7h1.3"/>
			</g>
		</g>
		<g>
			<g>
				<path class="st0" d="M100.8,135.4c0.8,3.2,1.4,4.7,3.1,7.4c2.5,3.9,4.1,6.1,8,8.4l-2.3,4c-0.1,0.4-0.3,0.6-0.5,0.6
					c-0.6,0-1.8-1.5-3.2-3.7c-1.7-2.8-3-4.8-3.9-8.2C102,143.8,101.1,140.7,100.8,135.4z"/>
			</g>
		</g>
		<g>
			<g>
				<rect x="196.9" y="120.1" class="st0" width="4.1" height="47.7"/>
			</g>
		</g>
		<g>
			<g>
				<g>
					<path class="st0" d="M222.5,156.8c0.3,0,0.5-0.1,0.5-0.3c0-0.1,0-0.2-0.2-0.4c-1.8-1.6-2.4-2.1-4.4-3.7
						c-1.3,1.4-2.6,2.8-3.8,4.4L222.5,156.8z"/>
				</g>
			</g>
		</g>
		<g>
			<g>
				<g>
					<path class="st0" d="M227.5,168c0.3,0,0.5-0.1,0.5-0.3c0-0.1,0-0.2-0.2-0.4c-1.8-1.6-2.4-2.1-4.4-3.7c-1.3,1.4-2.6,2.8-3.8,4.4
						L227.5,168z"/>
				</g>
			</g>
		</g>
		<g>
			<g>
				<polygon class="st0" points="182.5,120 182.6,149 178.4,149 178.4,118.9 				"/>
			</g>
		</g>
		<g>
			<g>
				<path class="st0" d="M215,149l0-26.9h0v-2.1c1.1-1.1,0.4-0.4,1.8-1.7c2.1,1.5,1.3,0.9,3.2,2.2c0.6,0.4,0.8,0.8,0.8,1.2
					c0,0.5-0.5,0.9-1.9,1.5V149L215,149z"/>
			</g>
		</g>
		<g>
			<g>
				<path class="st0" d="M160,154.1h-35.3c-0.5,0-0.9-0.4-0.9-0.9c0-0.5,0.4-0.9,0.9-0.9H160c0.5,0,0.9,0.4,0.9,0.9
					C160.9,153.7,160.5,154.1,160,154.1z"/>
			</g>
		</g>
		<g>
			<g>
				<path class="st0" d="M160.2,167.1h-35.4c-0.5,0-0.9-0.4-0.9-0.9c0-0.5,0.4-0.9,0.9-0.9h35.4c0.5,0,0.9,0.4,0.9,0.9
					C161,166.7,160.6,167.1,160.2,167.1z"/>
			</g>
		</g>
		<g>
			<g>
				<path class="st0" d="M135.5,125.8h-17.3c-0.5,0-0.9-0.4-0.9-0.9c0-0.5,0.4-0.9,0.9-0.9h17.3c0.5,0,0.9,0.4,0.9,0.9
					C136.4,125.4,136,125.8,135.5,125.8z"/>
			</g>
		</g>
		<g>
			<g>
				<path class="st0" d="M140.1,134.8h-21.8c-0.5,0-0.9-0.4-0.9-0.9c0-0.5,0.4-0.9,0.9-0.9h21.8c0.5,0,0.9,0.4,0.9,0.9
					C140.9,134.4,140.5,134.8,140.1,134.8z"/>
			</g>
		</g>
		<g>
			<g>
				<rect x="146" y="129.4" class="st0" width="17.6" height="1.7"/>
			</g>
		</g>
		<g>
			<g>
				<polygon class="st0" points="127.7,152.4 127.7,168.3 123.4,168.3 123.4,151.3 				"/>
			</g>
		</g>
		<g>
			<g>
				<path class="st0" d="M158,168.4l0-13.8h0v-2.1c1.2-1.1,0.5-0.4,1.9-1.7c2.2,1.4,1.3,0.9,3.3,2.2c0.6,0.4,0.8,0.8,0.8,1.2
					c0,0.5-0.5,0.9-2,1.4v12.7L158,168.4z"/>
			</g>
		</g>
		<g>
			<g>
				<g>
					<path class="st0" d="M131.6,141.1c0,0.6,0,2.4,0,3.4c0,1.2-0.3,1.7-0.8,2.2c-0.6,0.5-1.5,0.9-2.8,1l-1.3,0.1
						c-0.3-0.1-0.3-0.2-0.3-0.4c-0.2-1.8-1-3.5-4.2-4.3l0-0.4c2.4,0,2.9,0,4.7,0.1c0.5,0,0.6-0.4,0.6-0.8v-0.9L131.6,141.1z"/>
				</g>
			</g>
			<g>
				<g>
					<polygon class="st0" points="127.5,118.4 127.5,142 131.6,142.1 131.5,118.4 					"/>
				</g>
			</g>
		</g>
		<g>
			<g>
				<g>
					<path class="st0" d="M141.4,125.8c0.3,0,0.5-0.1,0.5-0.3c0-0.1,0-0.2-0.2-0.4c-1.8-1.6-2.4-2.1-4.4-3.6
						c-1.3,1.4-2.6,2.8-3.8,4.3L141.4,125.8z"/>
				</g>
			</g>
		</g>
		<g>
			<g>
				<g>
					<path class="st0" d="M168.9,131.1c0.3,0,0.5-0.1,0.5-0.3c0-0.1,0-0.2-0.2-0.4c-1.8-1.6-2.4-2.1-4.4-3.6
						c-1.3,1.4-2.6,2.8-3.7,4.3L168.9,131.1z"/>
				</g>
			</g>
		</g>
		<g>
			<g>
				<g>
					<polygon class="st0" points="157.9,130.2 157.9,147.3 161.9,147.3 161.9,130.2 					"/>
				</g>
			</g>
		</g>
		<g>
			<g>
				<g>
					<path class="st0" d="M145,120.3l4.4,1.1c0.1,0,0.1,5.3,0,5.7c0,2.9,0,3.4-0.2,6.2c-0.1,2.8-0.3,5.5-1.9,7.9
						c-1.6,2.3-3.8,4.2-6.2,5.9l-0.4-0.4c2.5-3.5,3.1-5.8,3.7-8.8C145.7,131.9,145,120.3,145,120.3"/>
				</g>
			</g>
		</g>
		<g>
			<g>
				<g>
					<path class="st0" d="M147.3,125.5l-1,0.1c4.9-1.6,7.1-2.6,9.7-4.2c2-1.2,3.1-2.1,4.2-3.4c1.9,1,3.2,1.8,4.1,2.3
						c3,1.6,2.7,1.5,2.5,1.9c0,0-0.1,0.2-1.2,0.1C164.7,122.2,147.3,125.5,147.3,125.5z"/>
				</g>
			</g>
		</g>
	</g>
	<g>
		<g>
			<path class="st0" d="M114,63.3c-7.9,0-15.9-3-21.9-9.1c-12.1-12.1-12.1-31.8,0-43.9s31.8-12.1,43.9,0c12.1,12.1,12.1,31.8,0,43.9
				l0,0C129.9,60.2,121.9,63.3,114,63.3z M114,1.9c-7.8,0-15.6,3-21.5,8.9c-11.8,11.8-11.8,31.1,0,42.9c11.8,11.8,31.1,11.8,42.9,0
				c11.8-11.8,11.8-31.1,0-42.9C129.5,4.9,121.7,1.9,114,1.9z"/>
		</g>
		<g>
			<defs>
				
					<ellipse id="SVGID_1_" transform="matrix(0.4697 -0.8828 0.8828 0.4697 31.9582 117.7386)" cx="114" cy="32.3" rx="30.7" ry="30.7"/>
			</defs>
			<clipPath id="SVGID_00000169529239594138968540000017141759880165255609_">
				<use xlink:href="#SVGID_1_"  style="overflow:visible;"/>
			</clipPath>
			<g style="clip-path:url(#SVGID_00000169529239594138968540000017141759880165255609_);">
				<g>
					<path class="st0" d="M107.4,106.3L107,106c1.2-1.4,1.5-3.5,1.1-6.3c-0.1-0.5-0.2-1.1-0.3-1.6c-0.3-1.7-0.7-3.5-0.4-5.3
						c0.5-3.3,2.9-5.9,5.2-8.3c0.3-0.3,0.5-0.5,0.8-0.8c7.8-8.2,13.1-19,14.8-30.2c0.6-3.8,0.8-7.6,1-11.4c0.2-4,0.5-8.1,1.1-12.1
						c0.9-5.4,3.7-15.1,11.7-19.9l0.3,0.4c-7.9,4.6-10.6,14.2-11.5,19.5c-0.7,4-0.9,8.1-1.1,12.1c-0.2,3.8-0.4,7.6-1,11.4
						c-1.8,11.3-7.1,22.1-15,30.5c-0.2,0.3-0.5,0.5-0.8,0.8c-2.3,2.4-4.7,4.9-5.1,8c-0.2,1.7,0.1,3.4,0.4,5.1
						c0.1,0.5,0.2,1.1,0.3,1.6C109.1,102.5,108.7,104.8,107.4,106.3z"/>
				</g>
				<g>
					<path class="st0" d="M83.2,24.8l-0.2-0.1c2.2-5.3,6.5-9,9.8-11.1c6-4,11.9-8.5,13.1-16.4c0.4-2.7,0-5.4-0.5-8.1
						c-0.1-0.3-0.1-0.6-0.1-0.9c-0.5-3.2-0.5-6.1-0.1-9.1c0.9-6.5,3.5-11.9,7.8-15.6l0.2,0.2c-4.2,3.7-6.9,9-7.7,15.5
						c-0.4,3-0.4,5.9,0.1,9c0,0.3,0.1,0.6,0.1,0.9c0.4,2.7,0.9,5.4,0.5,8.2c-1.3,8-7.2,12.5-13.2,16.5
						C89.6,15.9,85.3,19.6,83.2,24.8z"/>
				</g>
				<g>
					<path class="st0" d="M108,65.9l-0.3-0.4c4.1-3.2,6.7-8.2,8.1-11.8c1.4-3.7,2.4-7.5,3.3-11.2c0.2-0.9,0.4-1.8,0.6-2.7
						c1.5-5.9,3.5-12.7,7.3-18.7c4-6.3,9.6-10.8,14.7-11.5l0.1,0.5c-4.9,0.8-10.4,5.1-14.4,11.3c-3.8,5.9-5.7,12.7-7.2,18.5
						c-0.2,0.9-0.4,1.8-0.6,2.6c-0.9,3.7-1.8,7.6-3.3,11.3C114.8,57.6,112.2,62.6,108,65.9z"/>
				</g>
				<g>
					<path class="st0" d="M122.1,66.5l-0.1-0.1c2.5-2.4,4.8-5.7,6.9-8.9c1.1-1.6,2.1-3.3,3-5c1.6-2.7,3.2-5.5,5.2-8
						c5.4-6.6,13.4-10.3,21.5-10l0,0.2c-8-0.3-16,3.4-21.3,10c-2,2.4-3.6,5.2-5.2,8c-1,1.7-2,3.4-3,5
						C126.9,60.8,124.6,64.1,122.1,66.5z"/>
				</g>
				<g>
					<path class="st0" d="M81.6,39l-0.4-0.4c2.4-2.2,4.9-4.5,7.8-6.1c1.9-1,3.9-1.8,5.8-2.5c0.7-0.3,1.4-0.5,2.1-0.8
						c4-1.6,7-3.3,9.3-5.4c2.9-2.7,4.9-6.2,6.9-9.6c0.7-1.3,1.5-2.7,2.3-3.9c2.6-4.2,7-9.2,12.9-9.8l0.1,0.5
						c-5.7,0.6-9.9,5.5-12.5,9.6c-0.8,1.3-1.6,2.6-2.3,3.9c-2,3.5-4,7-7,9.8c-2.3,2.2-5.3,3.9-9.4,5.5c-0.7,0.3-1.4,0.5-2.1,0.8
						c-1.9,0.7-3.9,1.4-5.8,2.5C86.5,34.5,84,36.8,81.6,39z"/>
				</g>
				<g>
					<path class="st0" d="M82.3,40.2l-0.2-0.1c3.7-12.2,11.9-18.7,12-18.8c3.6-2.8,6-5.5,7.7-8.3c2.1-3.6,3.1-7.8,4-11.9
						c0.4-1.5,0.7-3.1,1.1-4.7c1.4-4.9,4.2-11.4,9.8-13.7l0.1,0.2c-5.6,2.4-8.4,8.7-9.7,13.6c-0.4,1.5-0.8,3.1-1.1,4.7
						c-0.9,4.1-1.9,8.3-4,11.9c-1.7,2.9-4.1,5.5-7.7,8.4C94.2,21.6,86,28,82.3,40.2z"/>
				</g>
			</g>
		</g>
		<g>
			<path class="st0" d="M117.7,102.1c-0.4,0-0.8,0-1.2,0c-0.2,0-0.4,0-0.5,0c-0.2,0-0.3,0.1-0.2,0.3c0,0.1,0,0.1,0.1,0.2
				c0,0,0,0,0,0c0,0-0.1-0.1-0.1-0.1c-0.6-0.5-1.3-0.7-2-0.5c-0.1,0-0.3,0-0.4,0.1c-0.3,0-0.5,0-0.6-0.3c-0.1-0.2-0.3-0.2-0.6-0.1
				c0.1-0.2,0.1-0.3,0.3-0.2c0.2,0,0.4,0.1,0.6,0.2c0.2,0.1,0.4,0.2,0.6,0.1c0.1,0,0.2-0.1,0.2-0.1c0.4-0.2,0.4-0.3,0.2-0.7
				c-0.3-0.5-0.4-1.1-0.7-1.6c-0.3-0.7-0.6-1.4-0.9-2.1c-0.2-0.5-0.6-0.9-1.1-1.1c-0.1-0.1-0.3-0.1-0.4-0.1c-0.6,0-1.1-0.1-1.7-0.1
				c-0.1,0-0.2,0-0.3,0c-0.3,0.1-0.6,0.3-1,0.4c0.1-0.2,0.3-0.4,0.4-0.6c-0.3,0-0.6-0.1-0.8-0.1c-0.1,0-0.3,0-0.4-0.1
				c-0.3-0.1-0.5,0-0.8,0c-1.3,0.4-2.5,0.8-3.8,1.1c-0.1,0-0.2,0-0.4,0.1c0,0-0.1,0-0.1-0.1c0.1-0.1,0.2-0.1,0.3-0.2
				c1-0.4,2-0.8,3-1.2c1.1-0.4,2.3-0.8,3.4-1.3c0.5-0.2,1-0.5,1.5-0.8c1.1-0.7,2.1-1.3,3.1-2.2c0.5-0.5,1-1,1.5-1.5
				c1.2-1.1,2.4-2.2,4-2.9c0.8-0.3,1.7-0.5,2.5-0.3c0.5,0.1,1,0.4,1.4,0.8c0.1,0.1,0.2,0.1,0.4,0.1c0.4,0,0.7,0,1.1,0
				c0.1,0,0.2,0,0.3,0.1c-0.1,0.1-0.1,0.1-0.2,0.1c-0.5,0.2-0.9,0.4-1.4,0.5c-0.2,0.1-0.4,0.2-0.5,0.5c-0.1,0.4-0.2,0.8-0.2,1.2
				c0,0.5,0,1.1,0,1.7c-0.1,1.4-0.5,2.7-1.4,3.7c-0.5,0.5-1.1,1-1.8,1.2c-1,0.4-2.1,0.8-3.2,1.1c-0.2,0-0.4,0-0.5,0.1
				c-0.2,0-0.2,0.2-0.1,0.3c1,0.9,1.6,2.2,2.7,3.1c0.2,0.2,0.4,0.3,0.6,0.4c0.2,0.1,0.5,0.2,0.7,0.2c0.3,0,0.6,0,1,0.1
				c0.2,0,0.4,0.1,0.4,0.3c-0.4,0-0.7-0.1-1.1-0.1c-0.2,0-0.4,0-0.6,0.1c-0.5,0.2-0.8,0.1-1.1-0.3c-0.1-0.1-0.2-0.1-0.3-0.1
				c-0.3,0-0.5,0-0.8,0c-0.1,0-0.3-0.1-0.4-0.2c-0.1-0.1-0.3-0.2-0.4-0.3c0.2,0,0.5,0.1,0.7,0.1c0.2,0,0.4,0.1,0.6,0.2
				c0.3,0,0.4-0.1,0.3-0.3c0-0.2-0.1-0.4-0.2-0.5c-0.6-0.9-1.4-1.8-2.2-2.5c-0.4-0.4-1-0.5-1.5-0.4c-0.3,0-0.4,0.2-0.3,0.5
				c0.3,1,0.5,2,1,2.9c0.1,0.1,0.1,0.2,0.2,0.3c0.3,0.5,0.7,0.8,1.3,0.9c0.7,0,1.3,0.1,2,0.2C117.5,102,117.6,102.1,117.7,102.1
				C117.7,102.1,117.7,102.1,117.7,102.1z"/>
		</g>
		<g>
			<path class="st2" d="M114,64"/>
		</g>
		<g>
			<g>
				<path class="st0" d="M123.1,48.3c0,0-1.4,4.8-6.3,3.4c0,0,0.6-2.4,2.4-3C120.6,48.3,121,48.9,123.1,48.3z"/>
			</g>
			<g>
				<path class="st0" d="M125.6,40.3c0,0-2.1,4.6-6.7,2.5c0,0,1-2.3,2.8-2.6C123.1,39.9,123.4,40.6,125.6,40.3z"/>
			</g>
			<g>
				<path class="st0" d="M110.9,49.8c0,0-0.7,5,4.3,5.7c0,0,0.4-2.4-0.9-3.7C113.2,50.8,112.6,51.3,110.9,49.8z"/>
			</g>
			<g>
				<path class="st0" d="M130.7,25.3c0,0-2.2,4.5-6.8,2.3c0,0,1-2.2,2.8-2.6C128.2,24.8,128.4,25.5,130.7,25.3z"/>
			</g>
			<g>
				<path class="st0" d="M117.9,18.3c0,0-3.5,3.7-7.2,0.2c0,0,1.7-1.8,3.5-1.6C115.7,17.1,115.7,17.8,117.9,18.3z"/>
			</g>
			<g>
				<path class="st0" d="M112.7,26.1c0,0-4.2,2.7-7-1.5c0,0,2-1.4,3.8-0.7C110.8,24.4,110.7,25.1,112.7,26.1z"/>
			</g>
			<g>
				<path class="st0" d="M103.7,31.9c0,0-4.5,2.2-6.8-2.3c0,0,2.2-1.1,3.8-0.3C102,30.1,101.8,30.8,103.7,31.9z"/>
			</g>
			<g>
				<path class="st0" d="M117.5,28c0,0-0.7,5,4.3,5.7c0,0,0.4-2.4-0.9-3.7C119.8,29,119.2,29.4,117.5,28z"/>
			</g>
			<g>
				<path class="st0" d="M123.1,16.5c0,0-1.8,4.7,3,6.5c0,0,0.9-2.3-0.1-3.8C125.1,17.9,124.5,18.2,123.1,16.5z"/>
			</g>
			<g>
				<path class="st0" d="M127,10.9c0,0-1.8,4.7,3,6.5c0,0,0.9-2.3-0.1-3.8C129.1,12.4,128.4,12.7,127,10.9z"/>
			</g>
			<g>
				<path class="st0" d="M110.7,7.4c0,0-1.8,4.7,3,6.5c0,0,0.9-2.3-0.1-3.8C112.7,8.9,112.1,9.2,110.7,7.4z"/>
			</g>
			<g>
				<path class="st0" d="M100.4,20.7c0,0-3.3,3.8,0.5,7.1c0,0,1.7-1.8,1.3-3.6C101.8,22.8,101,22.8,100.4,20.7z"/>
			</g>
			<g>
				<path class="st0" d="M107,13.6c0,0-1.7,4.7,3.1,6.5c0,0,0.9-2.3-0.2-3.8C109,15.1,108.4,15.4,107,13.6z"/>
			</g>
			<g>
				<path class="st0" d="M94.7,23c0,0-3.3,3.8,0.5,7.1c0,0,1.7-1.8,1.3-3.6C96,25.1,95.3,25.1,94.7,23z"/>
			</g>
		</g>
		<g>
			<path class="st0" d="M114,102c-17.1,0-31-13.9-31-31c0-7.1,2.5-14.1,7-19.6l0.3-0.3l0.3,0.3c0.7,0.8,1.3,1.6,2.1,2.3
				c11.8,11.8,31.1,11.8,42.9,0c0.7-0.7,1.4-1.5,2.1-2.3l0.3-0.3l0.3,0.3c4.5,5.5,7,12.5,7,19.6C145,88.1,131.1,102,114,102z
				 M90.2,52.2c-4.2,5.3-6.6,12-6.6,18.8c0,16.7,13.6,30.4,30.4,30.4c16.7,0,30.4-13.6,30.4-30.4c0-6.8-2.3-13.5-6.6-18.9
				c-0.6,0.7-1.2,1.4-1.9,2c-12.1,12.1-31.8,12.1-43.9,0C91.4,53.5,90.8,52.9,90.2,52.2z"/>
		</g>
		<g>
			<defs>
				<path id="SVGID_00000175301306145873268780000017402819242700991151_" d="M137.8,51.6c-0.7,0.8-1.4,1.6-2.1,2.3
					c-12,12-31.4,12-43.4,0c-0.7-0.7-1.4-1.5-2.1-2.3c-4.3,5.3-6.9,12-6.9,19.4c0,17,13.7,30.7,30.7,30.7c17,0,30.7-13.7,30.7-30.7
					C144.7,63.7,142.1,56.9,137.8,51.6z"/>
			</defs>
			<clipPath id="SVGID_00000132781468446805335810000013048337087464719493_">
				<use xlink:href="#SVGID_00000175301306145873268780000017402819242700991151_"  style="overflow:visible;"/>
			</clipPath>
			<g style="opacity:0.7;clip-path:url(#SVGID_00000132781468446805335810000013048337087464719493_);">
				<g>
					<path class="st0" d="M107.5,106.3l-0.4-0.3c1.2-1.4,1.5-3.5,1.1-6.3c-0.1-0.5-0.2-1.1-0.3-1.6c-0.3-1.7-0.7-3.5-0.4-5.3
						c0.5-3.3,2.9-5.9,5.2-8.3c0.3-0.3,0.5-0.5,0.8-0.8c7.8-8.2,13.1-19,14.8-30.2c0.6-3.8,0.8-7.6,1-11.4c0.2-4,0.5-8.1,1.1-12.1
						c0.9-5.4,3.7-15.1,11.7-19.9l0.3,0.4c-7.9,4.6-10.6,14.2-11.5,19.5c-0.7,4-0.9,8.1-1.1,12.1c-0.2,3.8-0.4,7.6-1,11.4
						c-1.8,11.3-7.1,22.1-15,30.5c-0.2,0.3-0.5,0.5-0.8,0.8c-2.3,2.4-4.7,4.9-5.1,8c-0.2,1.7,0.1,3.4,0.4,5.1
						c0.1,0.5,0.2,1.1,0.3,1.6C109.1,102.5,108.7,104.8,107.5,106.3z"/>
				</g>
				<g>
					<path class="st0" d="M161.5,113.2c-3.2,0-6.4-1.7-8.7-2.8c-3.5-1.8-4.4-1.7-14.7,0c-1.1,0.2-2.3,0.4-3.6,0.6
						c-3.3,0.5-6-0.1-8-1.9c-5.1-4.5-4.7-14.9-4.6-19.3l0-0.6c0.2-6.2,3.7-10.3,4.7-11.4c0.7-0.7,1.5-1.4,2.6-2.3c2-1.7,4.8-4,9-8.6
						c6.3-6.9,11.7-5.2,11.8-5.2l5.1,1.6c0.1,0.1,13.2,5.3,17,9.8c3.8,4.5,4,8.9,1,15.6c-2.9,6.4-2.1,13.1-2,13.2
						c0,0.1-0.5,6.4-4.7,9.7C164.8,112.8,163.2,113.2,161.5,113.2z M148.2,108.9c1.9,0,3,0.4,4.7,1.3c3.4,1.7,9,4.6,13.3,1.2
						c4.1-3.2,4.7-9.5,4.7-9.6c0,0-0.9-6.8,2.1-13.3c3-6.7,2.7-11-1-15.4c-3.7-4.5-16.6-9.6-16.9-9.7l-5.1-1.5
						c-0.1,0-5.4-1.7-11.6,5.1c-4.2,4.6-7,6.9-9,8.6c-1,0.9-1.8,1.5-2.5,2.3c-1,1.1-4.5,5.1-4.7,11.3l0,0.6
						c-0.1,4.4-0.5,14.8,4.5,19.2c2,1.8,4.6,2.4,7.9,1.9c1.3-0.2,2.5-0.4,3.6-0.6C143.4,109.4,146.2,108.9,148.2,108.9z"/>
				</g>
				<g>
					<path class="st0" d="M163.3,119.3c-3.3,0-6.6-1.8-8.8-3.1c-3.3-1.9-4.2-1.8-14.3-0.5c-1.1,0.1-2.3,0.3-3.6,0.5
						c-3.3,0.4-6-0.3-7.9-2.2c-4.9-4.7-4.2-14.9-3.9-19.3l0-0.6c0.4-6.2,4-10.1,5.1-11.1c0.7-0.7,1.6-1.3,2.6-2.2
						c2-1.6,4.8-3.7,9.1-8.1c6.5-6.7,11.7-4.8,12-4.7l5,1.7c0.5,0.2,12.9,5.6,16.4,10.3c3.6,4.6,3.7,9,0.5,15.6
						c-3,6.2-2.4,12.8-2.4,12.8l0,0l0,0c0,0.3-0.8,6.4-5.1,9.5C166.4,118.8,164.8,119.3,163.3,119.3z M149.5,114.3
						c2.2,0,3.4,0.4,5.2,1.5c4.1,2.3,8.9,4.5,12.9,1.6c4-2.9,4.8-8.7,4.8-9.1c0-0.5-0.5-7,2.5-13.1c3.1-6.4,3-10.6-0.4-15
						c-3.4-4.4-15.8-9.9-16.2-10.1l-5-1.7c0,0-1.3-0.5-3.3-0.1c-1.9,0.3-4.8,1.4-8.1,4.7c-4.3,4.4-7.1,6.6-9.2,8.2
						c-1,0.8-1.8,1.4-2.6,2.1c-1.1,1-4.5,4.8-4.9,10.8l0,0.6c-0.3,4.3-1,14.4,3.8,18.9c1.9,1.8,4.4,2.4,7.5,2.1
						c1.3-0.2,2.5-0.3,3.6-0.5C144.8,114.6,147.5,114.3,149.5,114.3z"/>
				</g>
				<g>
					<path class="st0" d="M85.5,96.5c-3.1-4.5-3.9-9.3,1.9-17.5c5.3-7.6,5.1-10.4,4.1-19.8l-0.1-1.4c-1-10.5,10-16.6,10.1-16.7
						l0.1,0.2c-0.1,0.1-11,6.1-10,16.5l0.1,1.4c0.9,9.4,1.2,12.3-4.2,19.9c-5.8,8.2-4.9,12.9-1.9,17.3L85.5,96.5z"/>
				</g>
				<g>
					<path class="st0" d="M85,94.9c-3.3-4.5-4.4-9.2,1.1-17.8c4.9-7.8,4.5-10.6,3.2-19.8l-0.2-1.4c-0.8-5.5,1.8-9.9,4.1-12.7
						c2.5-2.9,5.2-4.6,5.3-4.6l0.3,0.4c-0.1,0.1-10.6,6.5-9.1,16.8l0.2,1.4c1.3,9.4,1.8,12.3-3.3,20.2c-5.3,8.4-4.3,12.9-1.1,17.2
						L85,94.9z"/>
				</g>
				<g>
					<path class="st0" d="M116.3,116.8c-0.1,0-7.1-3-10.3-6.4c-2.6-2.7-1.9-8.7-1.4-13.5c0.1-1.3,0.3-2.5,0.3-3.5
						c0.2-3.1-0.2-7.7-0.5-11.4c-0.1-1.7-0.2-3.2-0.3-4.3c-0.1-3.1-1.6-11.3-2.8-17.4c-0.6-2.9-1.1-10.2,6.2-16.2
						c5.8-4.8,21.6-4.7,21.8-4.7l0,0.2c0,0,0,0-0.1,0c-1.3,0-16.1,0.1-21.6,4.7c-7.2,6-6.7,13.2-6.1,16.1c1.2,6.1,2.7,14.4,2.8,17.4
						c0,1.1,0.2,2.6,0.3,4.3c0.3,3.7,0.6,8.3,0.5,11.4c-0.1,1-0.2,2.2-0.3,3.5c-0.5,4.8-1.2,10.7,1.3,13.4
						c3.2,3.4,10.1,6.4,10.2,6.4L116.3,116.8z"/>
				</g>
				<g>
					<path class="st0" d="M112.6,123.5c-1.1-3.6-4-6.2-6.7-8.7c-1.6-1.4-3.2-2.9-4.5-4.6c-2.9-3.6-2.3-8.2-1.6-14.6
						c0.2-1.8,0.4-3.9,0.6-6.1c0.7-8.8-2.2-18.8-3.5-22.8c0-0.1-0.1-0.3-0.2-0.5c-1-2.8-3.9-11.3,0.1-19.6c4.3-9,19.4-8.4,19.6-8.4
						l0,0.5c-0.1,0-14.9-0.6-19.1,8.1C93.4,55,96.3,63.3,97.2,66c0.1,0.2,0.1,0.4,0.2,0.6c1.3,3.9,4.2,14.1,3.5,23
						c-0.2,2.2-0.4,4.3-0.6,6.1c-0.7,6.3-1.2,10.8,1.5,14.2c1.3,1.6,2.9,3.1,4.5,4.5c2.8,2.6,5.7,5.2,6.9,8.9L112.6,123.5z"/>
				</g>
				<g>
					<path class="st0" d="M117.1,65.3c-1.1,0-2.3-0.5-2.7-1.6c-0.3-0.8-0.1-1.6,0.1-2.5c1.9-7.4,3.8-15.1,8.3-21.5
						c2.4-3.4,5.4-6.4,8.3-9.3c2-1.9,4-3.9,5.8-6.1c4.8-5.6,8.5-12.6,12-19.4c4.3-8.2,8.7-16.6,15.1-22.8l0.1,0.1
						C157.7-11.6,153.3-3.2,149,5c-3.6,6.8-7.3,13.8-12,19.4c-1.8,2.1-3.8,4.1-5.8,6.1c-2.9,2.9-5.9,5.9-8.3,9.3
						c-4.4,6.4-6.4,14.1-8.2,21.5c-0.2,0.9-0.4,1.7-0.1,2.4c0.4,1.1,1.8,1.6,2.9,1.5c1.2-0.2,2.2-0.8,3.1-1.6
						c7.6-5.9,11.6-15.2,15.2-23.3c0.5-1.1,1-2.3,1-3.6c0-0.1,0-0.2,0-0.3c0-1.1,0-2.1-1.9-2.6c-1-0.3-2.2,0.2-3.5,1.3
						c-3.4,2.9-5.9,6.6-8.3,10.1c-2,3-3.8,5.9-3.6,9.1c0,0.6,0.2,1,0.6,1.2c0.4,0.2,1.8,0.4,2.2,0.2c4.4-2.5,7.7-8,8.1-13.4l0.2,0
						c-0.4,5.5-3.7,11-8.2,13.6c-0.5,0.3-1.9,0.1-2.4-0.2c-0.4-0.2-0.6-0.6-0.6-1.3c-0.2-3.3,1.6-6.2,3.6-9.3
						c2.4-3.6,4.9-7.3,8.3-10.2c1.4-1.2,2.6-1.6,3.7-1.3c2.1,0.5,2.1,1.6,2.1,2.8c0,0.1,0,0.2,0,0.3c0,1.3-0.5,2.6-1,3.7
						c-3.6,8.2-7.6,17.5-15.2,23.4c-0.9,0.7-2,1.4-3.2,1.6C117.3,65.3,117.2,65.3,117.1,65.3z"/>
				</g>
			</g>
		</g>
	</g>
</g>
</svg>
