<svg width="235" height="19" viewBox="0 0 235 19" fill="none" xmlns="http://www.w3.org/2000/svg">
<path d="M10.0605 14.2003H4.68689L7.37371 9.55434L10.0605 4.90039L12.7393 9.55434L15.4262 14.2003H10.0605Z" fill="white"/>
<path d="M11.148 13.8721H8.96497V18.2861H11.148V13.8721Z" fill="white"/>
<path d="M13.1152 2.68537L18.9766 12.8489C18.9766 12.8489 19.7443 14.1203 19.3924 15.4238C19.0406 16.7272 18.033 18.1586 15.746 18.1586C13.459 18.1586 13.0352 18.1506 13.0352 18.1506V16.2074H15.77C15.77 16.2074 16.7296 16.2714 17.2174 15.5837C17.6972 14.904 17.4653 14.2003 17.4653 14.2003L13.7789 7.77913L11.3959 3.64495C11.3959 3.64495 10.9561 2.8533 10.0845 2.8533C9.21289 2.8533 8.71711 3.68493 8.71711 3.68493L2.74374 14.0324C2.74374 14.0324 2.39189 14.7681 2.84769 15.4797C3.30349 16.1914 4.14312 16.1674 4.14312 16.1674H7.07783V18.1506H3.83126C3.83126 18.1506 2.18399 18.0146 1.2404 16.5992C0.28882 15.1919 0.624673 13.7445 1.12845 12.8649C1.62423 11.9933 6.98987 2.68537 6.98987 2.68537C6.98987 2.68537 7.97344 0.910156 10.0605 0.910156C12.1476 0.910156 13.1152 2.68537 13.1152 2.68537Z" fill="white"/>
<path d="M26.9731 8.12364C27.3729 8.34754 27.5888 8.49947 27.5888 8.62741C27.5888 8.73936 27.4769 8.79534 27.285 8.81133C27.0371 8.81133 26.8931 8.85132 26.8691 8.92328C26.6692 9.24314 26.4933 9.52302 26.2934 9.77891C26.5173 9.85088 26.6372 9.92284 26.6372 9.97882C26.6372 10.0988 26.5493 10.2027 26.4053 10.2747C26.2934 10.3227 26.2454 10.4186 26.2454 10.5546V15.8562C26.2454 15.9922 26.0615 16.0881 25.6937 16.1601C25.5257 16.1841 25.4138 16.2001 25.3418 16.2001C25.0459 16.2001 24.91 16.0801 24.91 15.8562C24.974 15.0006 25.006 14.145 25.006 13.2734V11.1703C24.6381 11.4742 24.1823 11.786 23.6625 12.0899L23.5746 11.842C24.0864 11.2583 24.5502 10.5945 24.942 9.88286C25.4058 9.05922 25.7256 8.28357 25.9096 7.54789C26.3014 7.77179 26.6532 7.96371 26.9731 8.13163V8.12364ZM26.3494 5.58875C26.7572 5.81265 26.9651 5.96459 26.9651 6.09253C26.9651 6.20448 26.8531 6.26046 26.6612 6.27645C26.4133 6.27645 26.2854 6.31643 26.2454 6.3884C25.9895 6.78023 25.7176 7.13207 25.4218 7.44394C25.0779 7.81977 24.5661 8.2036 23.8545 8.57944L23.7585 8.34754C24.1024 7.88374 24.3982 7.37996 24.6621 6.82821C24.958 6.18849 25.1659 5.58076 25.2858 4.98902C25.6857 5.22091 26.0455 5.42083 26.3494 5.58875ZM28.1086 12.7856C28.1086 13.7052 28.0686 14.3289 28.0126 14.6728C27.9407 15.0246 27.8287 15.2805 27.6608 15.4404C27.5648 15.5124 27.4529 15.5604 27.3409 15.5604C27.069 15.5604 26.8531 15.4724 26.6692 15.3125C26.5093 15.1765 26.4373 14.9926 26.4373 14.7367C26.4373 14.6168 26.5573 14.4648 26.8132 14.2809C27.085 14.113 27.2929 13.9051 27.4369 13.6652C27.5808 13.4733 27.7168 13.1534 27.8127 12.7216L28.1086 12.7696V12.7856ZM28.6843 11.3062H33.0744C33.0744 11.3062 33.1943 11.1703 33.3783 10.9304C33.6102 10.6505 33.7461 10.4986 33.7941 10.4986C33.914 10.4986 34.1139 10.6425 34.3778 10.9304C34.6497 11.2263 34.7936 11.3942 34.7936 11.4582C34.7936 11.5781 34.7217 11.6421 34.5937 11.6421H28.6683C27.9567 11.6421 27.4689 11.6661 27.173 11.6901L26.9891 11.2103C27.3649 11.2822 27.9327 11.3062 28.6683 11.3062H28.6843ZM28.7723 6.23647H29.9718V5.95659C29.9718 5.63673 29.9318 5.29288 29.8758 4.95703C30.3636 5.00501 30.8434 5.06898 31.3072 5.15694C31.603 5.18093 31.747 5.2529 31.747 5.38884C31.747 5.43682 31.659 5.50079 31.4911 5.57276C31.3072 5.66072 31.2192 5.75668 31.2192 5.86863V6.24446H32.7465C32.7465 6.24446 32.8905 6.08453 33.1144 5.78866C33.3863 5.46081 33.5542 5.28489 33.6022 5.28489C33.7381 5.28489 33.97 5.45281 34.2899 5.77267C34.5937 6.11652 34.7537 6.30844 34.7537 6.3884C34.7537 6.50835 34.6817 6.57232 34.5537 6.57232H31.2112V7.57188H32.2987C32.4427 7.42794 32.5946 7.27601 32.7385 7.15606C32.8345 7.0601 32.9225 7.01213 33.0184 7.01213C33.0904 7.01213 33.2983 7.10808 33.6182 7.292C33.986 7.54789 34.1699 7.72381 34.1699 7.81977C34.1699 7.93172 34.082 8.04367 33.914 8.14763C33.7941 8.24358 33.7461 8.37153 33.7461 8.49147V8.92328C33.7461 9.26713 33.7621 9.72293 33.7941 10.3067C33.7941 10.4666 33.5942 10.5786 33.2103 10.6505C33.0424 10.6745 32.9065 10.6905 32.8345 10.6905C32.6106 10.6905 32.5067 10.5786 32.5067 10.3626V10.2667H28.8203V10.3626C28.8203 10.5066 28.6523 10.6105 28.3325 10.6585C28.1886 10.6825 28.0766 10.6985 28.0126 10.6985C27.7887 10.6985 27.6848 10.6105 27.6848 10.4186C27.7088 10.2347 27.7248 10.0268 27.7248 9.7949V8.06766C27.7248 7.83576 27.6848 7.55589 27.6368 7.21204C27.9886 7.308 28.3565 7.44394 28.7243 7.58787H29.9718V6.58831H28.7723C28.0766 6.58831 27.5888 6.6123 27.2929 6.63629L27.109 6.1565C27.4849 6.22847 28.0366 6.25246 28.7723 6.25246V6.23647ZM29.9478 12.5137C30.3156 12.5777 30.4995 12.6496 30.4995 12.7376C30.4995 12.8815 30.3876 12.9935 30.1957 13.0655C30.0517 13.1134 29.9718 13.2094 29.9718 13.3613V14.4169C29.9718 14.6728 30.0677 14.8327 30.2916 14.8967C30.4915 14.9686 30.7794 14.9926 31.1952 14.9926C31.5871 14.9926 31.8589 14.9686 32.0029 14.9046C32.1228 14.8567 32.2108 14.7207 32.2748 14.4968C32.3627 14.2489 32.4667 13.8971 32.6026 13.4573H32.8345C32.8745 13.9211 32.8985 14.2569 32.9225 14.4249C32.9465 14.6488 33.0184 14.8007 33.1464 14.9126C33.3943 15.0486 33.5142 15.1685 33.5142 15.2645C33.5142 15.4324 33.4182 15.5843 33.2423 15.6963C33.0824 15.7923 32.8265 15.8642 32.4587 15.9442C32.0828 16.0082 31.667 16.0401 31.1952 16.0401C30.5795 16.0401 30.1157 16.0162 29.7878 15.9682C29.468 15.9202 29.2521 15.8562 29.1481 15.7683C28.8922 15.6323 28.7723 15.3525 28.7723 14.9366V13.9851C28.7723 13.2654 28.7243 12.7216 28.6364 12.3538C28.9882 12.3778 29.428 12.4417 29.9478 12.5137ZM29.348 9.91485V7.90773H28.8203V9.91485H29.348ZM31.795 12.4097C32.0189 12.6336 32.1228 12.8735 32.1228 13.1534C32.1228 13.3533 32.0349 13.5213 31.8749 13.6892C31.763 13.8091 31.619 13.8731 31.4431 13.8731C31.2992 13.8731 31.1712 13.7132 31.0673 13.3693C30.9313 12.8815 30.6915 12.4177 30.3476 11.9619L30.4436 11.762C31.0833 11.9619 31.5311 12.1778 31.787 12.4018L31.795 12.4097ZM30.4036 9.91485H30.9313V7.90773H30.4036V9.91485ZM31.9789 9.91485H32.5067V7.90773H31.9789V9.91485ZM34.3858 13.4013C34.6577 13.6972 34.8016 13.9371 34.8016 14.161C34.8016 14.4329 34.7137 14.6648 34.5537 14.8487C34.4178 15.0326 34.2579 15.1286 34.074 15.1286C33.978 15.1286 33.874 15.0886 33.8021 15.0166C33.7381 14.9446 33.6661 14.6967 33.5782 14.2729C33.4822 13.7931 33.2103 13.2174 32.7705 12.5457L32.9145 12.4018C33.6102 12.7776 34.0979 13.1134 34.3698 13.4013H34.3858Z" fill="white"/>
<path d="M38.4881 7.81983H38.736V7.05216C38.736 6.26851 38.696 5.58081 38.64 4.99707C39.0079 5.03705 39.4637 5.09303 40.0234 5.19698C40.3993 5.24496 40.5992 5.33292 40.5992 5.44487C40.5992 5.56482 40.4792 5.66877 40.2313 5.74074C40.0634 5.78872 39.9755 5.88468 39.9755 6.02062V7.83582H40.1194C40.1194 7.83582 40.2393 7.71587 40.4153 7.51596C40.6232 7.28406 40.7431 7.16412 40.7911 7.16412C40.8871 7.16412 41.063 7.28406 41.2949 7.53195C41.5268 7.77984 41.6467 7.93178 41.6467 7.98775C41.6467 8.1077 41.5987 8.17167 41.5028 8.17167H39.9755V9.37114C40.6232 9.61903 41.103 9.85893 41.3908 10.1148C41.6867 10.4187 41.8466 10.7785 41.8466 11.1783C41.8466 11.3783 41.7587 11.5462 41.5987 11.7141C41.4868 11.8341 41.3428 11.898 41.1669 11.898C40.935 11.898 40.7351 11.6741 40.5832 11.2343C40.4392 10.8425 40.2393 10.4507 39.9675 10.0588V15.7123C39.9675 15.8723 39.7835 15.9922 39.4157 16.0642C39.2478 16.0882 39.1358 16.1042 39.0639 16.1042C38.768 16.1042 38.632 15.9682 38.632 15.7123C38.696 14.9927 38.728 14.321 38.728 13.7052V11.0264C38.4321 11.5782 38.1523 12.002 37.9044 12.2979C37.6085 12.7137 37.2646 13.0655 36.9048 13.3774L36.7209 13.2814C37.6245 11.5222 38.2482 9.80295 38.5921 8.16368H38.4801C37.7844 8.16368 37.2966 8.18766 37.0008 8.21165L36.8088 7.73187C37.2007 7.80383 37.7524 7.82782 38.4881 7.82782V7.81983ZM43.374 7.86781H43.6538V7.29206C43.6538 6.43644 43.6138 5.69276 43.5579 5.03705C43.9497 5.08503 44.4375 5.149 45.0372 5.24496C45.453 5.30893 45.6609 5.3889 45.6609 5.51684C45.6609 5.65278 45.525 5.74874 45.2691 5.82071C45.0772 5.86869 44.9892 5.96464 44.9892 6.09259V7.86781H45.7569C45.7569 7.86781 45.9008 7.70788 46.1327 7.436C46.4046 7.11614 46.5645 6.95621 46.6125 6.95621C46.7485 6.95621 46.9644 7.11614 47.2602 7.42C47.5561 7.73986 47.716 7.93178 47.716 8.00375C47.716 8.12369 47.6441 8.18766 47.5241 8.18766H45.1012C45.541 9.53107 45.9968 10.5626 46.4606 11.2583C46.9724 11.994 47.4921 12.4978 48.0039 12.7776L47.9639 13.0735C47.5721 13.1935 47.3002 13.4493 47.1563 13.8572C47.0603 14.161 46.9324 14.313 46.8124 14.313C46.7245 14.313 46.5406 14.0171 46.2527 13.4334C45.9568 12.8576 45.6769 12.1139 45.4051 11.1783C45.2451 10.6426 45.1092 10.0988 44.9892 9.53907V13.6013C44.9892 14.337 45.0052 15.0566 45.0372 15.7923C45.0372 15.9363 44.8133 16.0642 44.3975 16.1442C44.1976 16.1681 44.0696 16.1841 43.9817 16.1841C43.6858 16.1841 43.5499 16.0482 43.5499 15.7923C43.6138 14.9927 43.6458 14.265 43.6458 13.6013V10.6986C43.5259 10.9944 43.3979 11.2343 43.302 11.4422C42.9341 12.1379 42.5103 12.7537 42.0385 13.2894C41.5588 13.8252 41.047 14.281 40.4872 14.6488L40.3913 14.5049C40.951 13.8332 41.4708 12.9616 41.9586 11.914C42.4384 10.8345 42.8382 9.60304 43.174 8.19566C42.5583 8.19566 42.1345 8.21965 41.8786 8.24364L41.6947 7.76385C42.0705 7.83582 42.6383 7.85981 43.374 7.85981V7.86781Z" fill="white"/>
<path d="M51.5543 5.90885H51.9462C52.1061 5.77291 52.266 5.63697 52.4259 5.51703C52.6179 5.37309 52.7458 5.28513 52.8018 5.28513C52.9137 5.28513 53.1296 5.42107 53.4495 5.66096C53.8653 6.01281 54.0892 6.2607 54.0892 6.38065C54.0892 6.46861 53.9533 6.54057 53.6974 6.58855C53.4415 6.61254 53.2656 6.7085 53.1856 6.86043L51.9222 9.34734H52.5059C52.6019 9.23539 52.7138 9.13943 52.8258 9.04347C53.0097 8.89954 53.1456 8.81957 53.2256 8.81957C53.3455 8.81957 53.5934 8.95551 53.9453 9.2194C54.3131 9.56324 54.505 9.79514 54.505 9.91509C54.505 10.011 54.3691 10.115 54.1132 10.211C53.8813 10.3069 53.7614 10.4109 53.7454 10.4908C53.5135 11.5704 53.2416 12.458 52.9537 13.1697C52.8817 13.3296 52.7938 13.4735 52.7058 13.6255C52.9537 13.8733 53.2656 14.0413 53.6574 14.1532C54.2571 14.4011 55.4086 14.5051 57.1199 14.5051C58.4313 14.5051 59.7667 14.4091 61.1101 14.2092L61.1981 14.5051C60.7343 14.761 60.4624 15.0648 60.4144 15.4327C60.3425 15.7605 60.2225 15.9364 60.0626 15.9364C57.1519 15.9364 55.2327 15.8005 54.3131 15.5446C53.3695 15.2967 52.6738 14.9049 52.218 14.3451C52.0981 14.5051 51.9701 14.649 51.8502 14.7849C51.2665 15.3447 50.6987 15.7845 50.1629 16.0804L49.971 15.9364C50.6827 15.1768 51.2585 14.3451 51.6983 13.4175C51.5143 12.9538 51.4024 12.402 51.3704 11.7783C51.3944 11.5544 51.3544 11.4504 51.2744 11.4504C51.2505 11.4504 51.2265 11.5624 51.2025 11.7703C51.1625 12.0901 51.1065 12.394 51.0186 12.6739C50.9706 12.8738 50.9466 12.9937 50.9466 13.0257C50.9706 13.0977 51.0106 13.1697 51.0346 13.2336C51.0585 13.3056 51.0825 13.3696 51.0825 13.4016C51.0825 13.4975 51.0346 13.5455 50.9466 13.5455C50.8266 13.5455 50.6507 13.4255 50.4348 13.1777C50.2509 13.0097 50.059 12.8498 49.8511 12.6739C50.2269 12.298 50.5628 11.8262 50.8506 11.2905C50.9946 11.0426 51.1465 10.9146 51.2824 10.9146C51.5623 10.9146 51.7143 11.0986 51.7143 11.4424C51.8022 11.8182 51.9142 12.1621 52.0581 12.482C52.306 11.6743 52.4739 10.7467 52.5699 9.6672H51.7622L51.5143 10.147C51.4504 10.3149 51.3704 10.4029 51.2425 10.4189C51.1225 10.4429 50.9946 10.4429 50.8506 10.4429C50.7547 10.4429 50.6027 10.4189 50.4108 10.3469C50.2909 10.2989 50.2269 10.2349 50.2269 10.147L52.0421 6.22871H51.5623C51.1065 6.22871 50.6827 6.2527 50.2749 6.27669L50.083 5.7969C50.5868 5.86887 51.0745 5.89286 51.5623 5.89286L51.5543 5.90885ZM56.0244 6.28469C56.0004 5.8049 55.9604 5.38109 55.9124 4.98926C56.2802 5.02924 56.76 5.08522 57.3198 5.18917C57.7116 5.23715 57.9195 5.32511 57.9195 5.43706C57.9195 5.573 57.7996 5.68495 57.5757 5.75692C57.4157 5.8049 57.3438 5.90086 57.3438 6.05279V6.30068H58.1994C58.3433 6.16474 58.4713 6.0288 58.5912 5.90885C58.7592 5.72493 58.8871 5.62898 58.9671 5.62898C59.087 5.62898 59.3189 5.76492 59.6388 6.0288C60.0066 6.32467 60.1985 6.50859 60.1985 6.58056C60.1985 6.7005 60.1106 6.80446 59.9666 6.90042C59.7987 7.02036 59.7187 7.14831 59.7187 7.25226V7.82801H59.8627C59.9106 7.74005 59.9826 7.60411 60.0866 7.43618C60.1825 7.21228 60.2545 7.10832 60.2945 7.10832C60.3664 7.10832 60.4864 7.24426 60.6863 7.50015C60.8702 7.74804 60.9662 7.90797 60.9662 7.97994C60.9662 8.09989 60.9182 8.16386 60.8222 8.16386H59.7187C59.7347 8.72361 59.7427 9.09145 59.7667 9.27537V9.69119C59.7667 9.85112 59.5588 9.96307 59.151 10.035C58.9671 10.075 58.8311 10.083 58.7592 10.083C58.5592 10.083 58.4553 9.98706 58.4393 9.78715H57.3278V10.9866H58.4793C58.4793 10.9866 58.5992 10.8507 58.7831 10.6108C59.007 10.3149 59.135 10.171 59.183 10.171C59.3029 10.171 59.5108 10.3149 59.7827 10.6108C60.0546 10.9067 60.1825 11.0746 60.1825 11.1226C60.1825 11.2585 60.1186 11.3225 59.9986 11.3225H57.3198V12.6179H58.6072C58.6072 12.6179 58.7671 12.45 59.007 12.1381C59.2869 11.7943 59.4628 11.6103 59.5188 11.6103C59.6628 11.6103 59.8947 11.7783 60.2145 12.1221C60.5344 12.466 60.7023 12.6739 60.7023 12.7458C60.7023 12.8818 60.6143 12.9378 60.4704 12.9378H57.3118V13.8414C57.3118 14.0013 57.1119 14.1132 56.728 14.1852C56.5601 14.2092 56.4322 14.2252 56.3602 14.2252C56.0643 14.2252 55.9284 14.1052 55.9284 13.8494C55.9524 13.5295 55.9684 13.2256 55.9764 12.9458H55.1048C54.4091 12.9458 53.9213 12.9697 53.6254 12.9937L53.4415 12.5139C53.8173 12.5859 54.3691 12.6099 55.1048 12.6099H55.9844C56.0004 12.306 56.0084 12.0102 56.0084 11.7383V11.3065H55.6325C54.9368 11.3065 54.449 11.3305 54.1532 11.3545L53.9693 10.8747C54.3451 10.9466 54.8969 10.9706 55.6325 10.9706H56.0084V9.77115C55.4326 9.77115 54.9688 9.79514 54.625 9.81913L54.4411 9.33934C54.8729 9.41131 55.3926 9.4353 56.0084 9.4353V8.13987H54.7689C54.521 8.13987 54.2092 8.16386 53.8173 8.18785L53.6174 7.70806C54.1052 7.78003 54.497 7.80402 54.7689 7.80402H56.0084V7.13231C56.0084 6.9484 55.9924 6.78047 55.9924 6.60455C55.1847 6.60455 54.625 6.62854 54.2891 6.65253L54.0972 6.17274C54.609 6.2447 55.2487 6.26869 55.9844 6.26869L56.0244 6.28469ZM57.3438 7.81201H58.4473V6.61254H57.3438V7.81201ZM57.3438 9.4433H58.4473V8.14787H57.3438V9.4433Z" fill="white"/>
<path d="M64.7164 7.43625H65.772C65.772 7.43625 65.9319 7.26832 66.1718 6.95646C66.4517 6.61261 66.6276 6.42869 66.6756 6.42869C66.8195 6.42869 67.0674 6.59662 67.3873 6.94047C67.7071 7.28432 67.875 7.49223 67.875 7.56419C67.875 7.70013 67.7871 7.76411 67.6431 7.76411H64.7164C64.0207 7.76411 63.533 7.7881 63.2371 7.81209L63.0532 7.3323C63.429 7.40426 63.9808 7.42825 64.7164 7.42825V7.43625ZM65.2922 5.86094H65.5401C65.5401 5.86094 65.684 5.70102 65.9079 5.40515C66.1798 5.07729 66.3477 4.90137 66.3957 4.90137C66.5396 4.90137 66.7635 5.06929 67.0834 5.38915C67.3873 5.733 67.5472 5.92492 67.5472 5.99688C67.5472 6.11683 67.4752 6.1808 67.3473 6.1808H65.2922C64.5965 6.1808 64.1087 6.20479 63.8128 6.22878L63.6129 5.74899C64.0047 5.82096 64.5565 5.84495 65.2922 5.84495V5.86094ZM65.2922 9.01955H65.5401C65.5401 9.01955 65.684 8.85962 65.9079 8.56375C66.1798 8.21991 66.3477 8.05198 66.3957 8.05198C66.5396 8.05198 66.7635 8.21991 67.0834 8.55576C67.3873 8.89961 67.5472 9.09152 67.5472 9.15549C67.5472 9.29143 67.4752 9.35541 67.3473 9.35541H65.2922C64.5965 9.35541 64.1087 9.3794 63.8128 9.40338L63.6129 8.9236C64.0047 8.99556 64.5565 9.01955 65.2922 9.01955ZM65.1962 12.0822H65.724C65.8839 11.8983 66.0438 11.7384 66.1878 11.5944C66.2997 11.4745 66.3957 11.4105 66.4916 11.4105C66.5796 11.4105 66.7955 11.5225 67.1394 11.7144C67.5312 11.9862 67.7231 12.1702 67.7231 12.2661C67.7231 12.3781 67.6271 12.49 67.4512 12.594C67.3073 12.6899 67.2433 12.8179 67.2433 12.9378V13.9454C67.2433 14.3212 67.2593 14.841 67.2913 15.4727C67.2913 15.6166 67.0834 15.7446 66.6756 15.8166C66.4916 15.8405 66.3557 15.8565 66.2837 15.8565C66.0598 15.8565 65.9559 15.7206 65.9559 15.4807V15.1529H65.0043V15.6806C65.0043 15.8246 64.8124 15.9525 64.4206 16.0245C64.2526 16.0485 64.1247 16.0645 64.0527 16.0645C63.7808 16.0645 63.6609 15.9285 63.6609 15.6886C63.6849 15.2728 63.7089 14.857 63.7089 14.4412V13.2417C63.7089 12.658 63.6689 12.0902 63.6129 11.5304C64.1247 11.6744 64.6525 11.8583 65.1882 12.1062L65.1962 12.0822ZM65.3402 10.5549H65.5321C65.5321 10.5549 65.676 10.3949 65.8999 10.0991C66.1718 9.75523 66.3397 9.5873 66.3877 9.5873C66.5316 9.5873 66.7555 9.75523 67.0754 10.0911C67.3793 10.4349 67.5392 10.6268 67.5392 10.6908C67.5392 10.8268 67.4672 10.8907 67.3393 10.8907H65.3322C64.6365 10.8907 64.1487 10.9147 63.8528 10.9387L63.6609 10.4589C64.0527 10.5309 64.6045 10.5549 65.3402 10.5549ZM65.9639 14.801V12.4181H65.0123V14.801H65.9639ZM69.3544 10.6428H71.6574C71.8013 10.5229 71.9293 10.4349 72.0012 10.387C72.1931 10.243 72.3531 10.163 72.465 10.163C72.561 10.163 72.8169 10.331 73.2247 10.6668C73.6005 11.0347 73.8004 11.2666 73.8004 11.3625C73.8004 11.4745 73.6565 11.5464 73.3846 11.5704C73.1287 11.5944 72.9688 11.6424 72.8968 11.6904C72.6409 12.3301 72.2731 12.8978 71.8093 13.4256C71.7134 13.5456 71.6174 13.6735 71.5134 13.7775C72.3451 14.2093 73.2727 14.5451 74.2882 14.793L74.2402 15.0889C73.8484 15.2248 73.5925 15.4087 73.4806 15.6486C73.3446 15.9445 73.2327 16.0884 73.1367 16.0884C72.9688 16.0884 72.6729 15.9525 72.2331 15.7126C71.7213 15.4647 71.1776 15.0969 70.6178 14.6331C70.6018 14.6331 70.6018 14.6171 70.6018 14.6171C70.4579 14.737 70.306 14.841 70.162 14.921C69.4503 15.4087 68.4588 15.8166 67.2033 16.1284L67.1154 15.8805C68.019 15.4407 68.9226 14.769 69.8182 13.8574C69.8182 13.8574 69.8342 13.8494 69.8422 13.8334C69.6822 13.6335 69.5383 13.4416 69.4104 13.2177C69.0585 12.6899 68.7626 11.9463 68.5387 10.9627C68.2909 10.9707 68.0829 10.9867 67.915 11.0027L67.7231 10.5229C68.2989 10.5869 68.8346 10.6109 69.3544 10.6109V10.6428ZM70.0661 5.82096H70.8337C70.9777 5.65304 71.1136 5.5171 71.2256 5.40515C71.3935 5.23722 71.5454 5.14926 71.6574 5.14926C71.8173 5.14926 72.0732 5.29319 72.425 5.56508C72.7689 5.83696 72.9368 6.04486 72.9368 6.20479C72.9368 6.31674 72.8409 6.43669 72.6409 6.55664C72.417 6.6526 72.3131 6.78054 72.3131 6.92448V8.02799C72.3131 8.2279 72.3371 8.34785 72.3851 8.37984C72.425 8.42781 72.505 8.4518 72.6569 8.4518L72.8648 8.41182C72.9608 8.41182 73.0648 8.29187 73.1367 8.04398C73.1847 7.79609 73.2727 7.45224 73.3686 7.01244L73.5685 7.05242L73.6165 7.62817C73.6165 7.82808 73.7045 8.02799 73.8724 8.25189C74.1203 8.47579 74.2402 8.62773 74.2402 8.73168C74.2402 9.01156 74.0803 9.21147 73.7844 9.33142C73.4326 9.47535 73.0488 9.55532 72.6569 9.55532C71.9452 9.55532 71.5694 9.51534 71.4974 9.41938C71.1776 9.32342 71.0336 8.93959 71.0336 8.25989V6.15681H69.9781C69.9621 7.06042 69.8822 7.7721 69.7302 8.27588C69.5623 8.78766 69.2904 9.20347 68.9226 9.51534C68.5467 9.8192 68.067 10.0751 67.4912 10.275L67.3952 10.0431C67.6751 9.79521 67.923 9.51534 68.1149 9.21147C68.2349 9.00356 68.3628 8.69969 68.4588 8.28388C68.5467 7.80409 68.5947 7.30831 68.5947 6.78854C68.5947 6.21279 68.5547 5.725 68.4988 5.30919C69.1145 5.46912 69.6343 5.63704 70.0661 5.83696V5.82096ZM69.7462 12.4021C69.9541 12.6739 70.202 12.9058 70.4659 13.1138C70.9217 12.498 71.3135 11.7943 71.6494 10.9867H68.8586C69.0825 11.4985 69.3704 11.9623 69.7382 12.4101L69.7462 12.4021Z" fill="white"/>
<path d="M79.6858 7.33998C79.9097 7.63585 80.0296 7.81977 80.0296 7.91573C80.0296 8.03568 79.9817 8.09965 79.8857 8.09965H78.7502V8.73937C79.0941 8.98726 79.3499 9.20316 79.5179 9.38708C79.7258 9.64297 79.8377 9.87487 79.8377 10.0748C79.8377 10.2987 79.7738 10.4666 79.6538 10.6105C79.5419 10.7545 79.4219 10.8344 79.278 10.8344C79.19 10.8344 79.1181 10.8105 79.0541 10.7465C79.0061 10.6825 78.9421 10.4666 78.8702 10.0828C78.8462 9.94683 78.7982 9.8029 78.7502 9.65096V13.8331C78.7502 14.5208 78.7662 15.1765 78.7982 15.8402C78.7982 15.9762 78.5983 16.0721 78.2144 16.1441C78.0465 16.1681 77.9106 16.1841 77.8386 16.1841C77.6147 16.1841 77.5108 16.0641 77.5108 15.8402C77.5347 15.1046 77.5587 14.4489 77.5587 13.8331V11.2423C77.4148 11.6341 77.2789 11.938 77.1589 12.1699C76.959 12.5857 76.7431 12.9535 76.5112 13.2574L76.3193 13.1614C76.8311 11.4102 77.1989 9.72293 77.3988 8.09165C77.1509 8.09165 76.8391 8.11564 76.4712 8.13963L76.2713 7.65984C76.7751 7.73181 77.1509 7.7558 77.4228 7.7558H77.5667V6.94815C77.5667 6.20448 77.5188 5.54077 77.4228 4.98102C77.7666 5.021 78.2065 5.07698 78.7422 5.14895C79.1101 5.19693 79.294 5.26889 79.294 5.37285C79.294 5.4928 79.182 5.59675 78.9741 5.66872C78.8302 5.7167 78.7662 5.81265 78.7662 5.94859V7.67583C78.8142 7.57988 78.8862 7.44394 78.9741 7.27601C79.0941 7.00413 79.198 6.86019 79.246 6.86019C79.318 6.86019 79.4779 7.02012 79.7098 7.33998H79.6858ZM81.9168 5.4768C82.2447 5.61274 82.4206 5.75668 82.4206 5.90861C82.4206 5.98058 82.3326 6.02056 82.1727 6.02056C82.0048 6.04455 81.9168 6.06854 81.8928 6.09253C81.573 6.48436 81.1971 6.8362 80.7653 7.15606C80.8773 7.22003 80.9732 7.26801 81.0452 7.31599C81.2451 7.45993 81.3411 7.64385 81.3491 7.85176C81.485 7.49991 81.605 7.13207 81.7009 6.76424C82.0528 6.88418 82.3966 7.01213 82.7405 7.13207C82.8044 7.15606 82.8524 7.18005 82.8844 7.19605C82.8364 6.11652 82.7964 5.37285 82.7485 4.95703C83.1243 5.021 83.5081 5.07698 83.876 5.14095C84.2918 5.18893 84.5157 5.27689 84.5157 5.38884C84.5157 5.4848 84.4277 5.57276 84.2598 5.63673C84.0599 5.72469 83.9559 5.78067 83.9399 5.82065C83.9399 7.77979 84.0279 9.3311 84.1958 10.5066C84.2198 10.7865 84.2678 11.0424 84.3158 11.2663H85.8591C85.8591 11.2663 85.979 11.1463 86.1629 10.9144C86.3868 10.6425 86.5148 10.5146 86.5708 10.5146C86.6907 10.5146 86.8746 10.6505 87.1465 10.9144C87.3944 11.1943 87.5224 11.3702 87.5224 11.4182C87.5224 11.5541 87.4584 11.6181 87.3384 11.6181H84.4037C84.5237 12.1779 84.7076 12.6337 84.9315 12.9855C85.1634 12.6337 85.3633 12.2658 85.5152 11.898C85.8911 12.1059 86.1629 12.2498 86.3069 12.3538C86.6987 12.6017 86.9066 12.7536 86.9066 12.8576C86.9066 12.9615 86.8107 13.0015 86.6347 13.0015C86.4508 13.0415 86.3549 13.0894 86.3309 13.1454C86.059 13.4413 85.8191 13.7052 85.5952 13.9291C85.8511 14.201 86.099 14.3289 86.3309 14.3289C86.4268 14.3289 86.5548 14.193 86.6827 13.9131C86.8267 13.6412 87.0026 13.3373 87.1865 12.9935L87.4344 13.0894C87.3384 13.4813 87.2665 13.7771 87.2265 13.9691C87.1625 14.3209 87.1385 14.5448 87.1385 14.6168C87.1385 14.6807 87.1865 14.8167 87.2825 15.0326C87.4264 15.2325 87.5144 15.3764 87.5144 15.4724C87.5144 15.8162 87.3304 16.0002 86.9866 16.0002C86.2269 16.0002 85.4832 15.5444 84.7316 14.6568C84.2438 14.9766 83.764 15.2085 83.3002 15.3924C82.6845 15.6163 82.0528 15.8083 81.389 15.9522L81.3011 15.8083C82.1487 15.4164 82.8284 15.0246 83.3562 14.6568C83.6361 14.4568 83.9079 14.217 84.1798 13.9211C83.788 13.3213 83.5081 12.6336 83.3322 11.866C83.3082 11.778 83.2842 11.6981 83.2842 11.6101H82.2207C82.1487 11.9619 82.0767 12.2738 81.9968 12.5297C82.4606 12.6736 82.8204 12.8096 83.0363 12.9615C83.2682 13.1614 83.3882 13.3773 83.3882 13.6252C83.3882 13.8251 83.3002 13.9931 83.1403 14.161C83.0443 14.2809 82.8924 14.3289 82.7245 14.3289C82.5565 14.3289 82.4046 14.185 82.2847 13.8731C82.1727 13.5932 82.0128 13.3213 81.8209 13.0495C81.6769 13.4413 81.501 13.8091 81.3091 14.137C81.1012 14.4888 80.8293 14.8247 80.4854 15.1365C80.1176 15.4804 79.6778 15.8003 79.19 16.0881L79.0461 15.9442C79.3659 15.5764 79.6858 15.1365 79.9897 14.6488C80.2136 14.2809 80.4055 13.8411 80.5734 13.3373C80.7173 12.8815 80.8453 12.3058 80.9652 11.6021C80.3495 11.6021 79.9257 11.6181 79.6698 11.6421L79.4779 11.1623C79.8537 11.2343 80.4215 11.2583 81.1571 11.2583H83.2122C83.1483 10.9624 83.1003 10.6745 83.0683 10.3786C83.0443 10.4266 83.0203 10.4506 83.0043 10.4746C82.8604 10.6185 82.7085 10.6825 82.5405 10.6825C82.4446 10.6825 82.3806 10.6585 82.3326 10.5945C82.2847 10.5706 82.2447 10.3946 82.2127 10.0908C82.1967 10.0268 82.1887 9.97082 82.1887 9.90685C81.7489 10.2507 81.2931 10.4986 80.8293 10.6425C80.7573 10.6505 80.7333 10.6825 80.7333 10.7305C80.7093 10.7785 80.6934 10.8264 80.6934 10.8744C80.6694 10.9704 80.6294 11.0184 80.5814 11.0184C80.4375 11.0184 80.2775 10.7705 80.0776 10.2827C80.0296 10.1627 79.9337 9.93884 79.8057 9.61898C80.0536 9.61898 80.2855 9.60298 80.5014 9.59499C80.7253 9.21915 80.9173 8.82733 81.0852 8.41951C80.9892 8.51546 80.8613 8.56344 80.7173 8.56344C80.5734 8.56344 80.4375 8.4275 80.3415 8.13163C80.1976 7.73181 79.9657 7.33199 79.6218 6.94815L79.7178 6.80422C79.9657 6.87619 80.1816 6.94016 80.3655 6.99613C80.5574 6.3964 80.7094 5.75668 80.8053 5.07698C81.1731 5.21292 81.541 5.34886 81.8848 5.46881L81.9168 5.4768ZM82.9164 8.17961C82.9004 7.99569 82.9004 7.82777 82.9004 7.65184C82.7804 7.67583 82.7165 7.69982 82.7085 7.71582C82.2287 8.38752 81.6769 9.01125 81.0532 9.579C81.421 9.579 81.7729 9.55501 82.1167 9.53102C82.0688 9.3311 82.0048 9.13919 81.9328 8.97126L82.0288 8.87531C82.4446 9.07522 82.7245 9.24314 82.8764 9.38708C82.9244 9.43506 82.9644 9.48304 82.9883 9.50703C82.9404 9.07522 82.9164 8.63541 82.9164 8.18761V8.17961ZM86.003 5.46081C86.3229 5.58076 86.4828 5.7167 86.4828 5.85264C86.4828 5.92461 86.3948 5.96459 86.2349 5.97258C86.067 5.99657 85.979 6.01257 85.955 6.03656C85.6592 6.42838 85.3073 6.79622 84.8915 7.11608C84.9875 7.18005 85.0754 7.22803 85.1474 7.27601C85.3073 7.41995 85.3953 7.57988 85.3953 7.76379C85.3953 7.93172 85.3233 8.08365 85.1714 8.22759C85.0754 8.33954 84.9635 8.38752 84.8195 8.38752C84.7076 8.38752 84.6276 8.26757 84.5477 8.01968C84.4517 7.67583 84.2918 7.33199 84.0439 7.00413L84.1398 6.86019C84.2838 6.90817 84.4117 6.94815 84.5317 6.97214C84.7156 6.3884 84.8515 5.74868 84.9475 5.08497C85.3153 5.20492 85.6592 5.34086 86.003 5.46081ZM87.0106 6.94016C87.3304 7.06011 87.4904 7.19604 87.4904 7.33198C87.4904 7.40395 87.4024 7.44394 87.2425 7.45193C87.0745 7.47592 86.9866 7.49991 86.9626 7.5239C86.5228 8.13963 86.011 8.69938 85.4353 9.21116C85.7791 9.18717 86.107 9.16318 86.4268 9.1232C86.3789 8.97926 86.3149 8.81933 86.2589 8.6594L86.4028 8.56344C86.7707 8.73137 87.0426 8.8913 87.2345 9.06722C87.4664 9.29112 87.5863 9.49903 87.5863 9.66696C87.5863 9.93884 87.4904 10.1467 87.3144 10.2907C87.2185 10.3866 87.0825 10.4346 86.9226 10.4346C86.8506 10.4346 86.7867 10.3946 86.7387 10.3227C86.6907 10.2747 86.6427 10.1228 86.6187 9.88286C86.5948 9.76291 86.5708 9.61098 86.5308 9.46704C86.2269 9.69894 85.9151 9.88286 85.6272 10.0268C85.7231 10.0508 85.8191 10.0908 85.8991 10.1148C86.067 10.2107 86.1549 10.3067 86.1549 10.4346C86.1549 10.6025 86.083 10.7545 85.947 10.8984C85.8511 11.0104 85.7231 11.0583 85.5792 11.0583C85.4593 11.0583 85.3553 10.9704 85.2833 10.7785C85.2114 10.6185 85.1234 10.4586 85.0035 10.3147V10.3387C85.0035 10.3387 84.9795 10.4106 84.9635 10.4586C84.9395 10.5466 84.9155 10.5786 84.8675 10.5786C84.7236 10.5786 84.5717 10.3547 84.4037 9.89086C84.3398 9.77091 84.2598 9.571 84.1478 9.28313C84.3797 9.28313 84.6116 9.26713 84.8355 9.24314C85.3233 8.41151 85.6912 7.50791 85.963 6.54833C86.3309 6.68427 86.6747 6.80422 87.0186 6.92416L87.0106 6.94016Z" fill="white"/>
<path d="M93.224 7.3401C93.4479 7.63597 93.5678 7.81989 93.5678 7.91585C93.5678 8.0358 93.5039 8.09977 93.3839 8.09977H92.0885V9.43518C92.5523 9.6191 92.8801 9.80302 93.1041 9.99493C93.3519 10.2428 93.4799 10.5307 93.4799 10.8745C93.4799 11.0425 93.4079 11.1944 93.256 11.3383C93.16 11.4503 93.0481 11.4983 92.9041 11.4983C92.7042 11.4983 92.5523 11.3144 92.4164 10.9385C92.3284 10.6906 92.2164 10.4587 92.0885 10.2268V13.8332C92.0885 14.5209 92.1045 15.1767 92.1365 15.8404C92.1365 15.9763 91.9446 16.0723 91.5527 16.1442C91.3848 16.1682 91.2569 16.1842 91.1849 16.1842C90.961 16.1842 90.857 16.0643 90.857 15.8404C90.881 15.1047 90.905 14.449 90.905 13.8332V10.7466C90.6571 11.3463 90.4492 11.8021 90.2573 12.114C90.0334 12.5298 89.7775 12.8977 89.5136 13.2015L89.3297 13.1136C89.9534 11.3783 90.3932 9.69906 90.6411 8.08377H90.6171C90.3693 8.08377 90.0574 8.10776 89.6656 8.13175L89.4736 7.65196C89.9614 7.72393 90.3533 7.74792 90.6251 7.74792H90.921V6.94028C90.921 6.19661 90.873 5.5329 90.7771 4.97314C91.1209 5.01313 91.5447 5.0691 92.0885 5.14107C92.4563 5.18905 92.6403 5.26102 92.6403 5.36497C92.6403 5.48492 92.5283 5.58887 92.3364 5.66084C92.1925 5.70882 92.1125 5.80478 92.1125 5.94072V7.75592H92.2084C92.2804 7.64397 92.3764 7.48404 92.4883 7.26813C92.6323 6.99625 92.7362 6.85232 92.7842 6.85232C92.8722 6.85232 93.0321 7.01225 93.248 7.33211L93.224 7.3401ZM94.8153 6.48448V6.04467C94.8153 5.72481 94.7753 5.38097 94.7193 5.04511C95.2311 5.09309 95.7349 5.16506 96.2227 5.25302C96.5185 5.26102 96.6785 5.34098 96.6785 5.48492C96.6785 5.5329 96.5825 5.60487 96.4066 5.69283C96.1987 5.78079 96.1027 5.88474 96.1027 6.01269V6.49248H97.2062V6.05267C97.2062 5.73281 97.1663 5.38896 97.1103 5.05311C97.6221 5.10109 98.1258 5.17306 98.6136 5.26102C98.9175 5.26901 99.0774 5.34898 99.0774 5.49292C99.0774 5.54089 98.9815 5.61286 98.7975 5.70082C98.6056 5.78879 98.5017 5.89274 98.5017 6.02068V6.50047H98.6376C98.6376 6.50047 98.7815 6.34054 99.0054 6.06866C99.2533 5.7488 99.4053 5.58088 99.4612 5.58088C99.5812 5.58088 99.7891 5.74081 100.085 6.06067C100.365 6.38052 100.517 6.56444 100.517 6.63641C100.517 6.77235 100.445 6.83632 100.325 6.83632H98.5097V7.78791H98.5576C98.5576 7.78791 98.6696 7.65196 98.8615 7.41207C99.0854 7.13219 99.2134 6.98026 99.2613 6.98026C99.3813 6.98026 99.5812 7.1242 99.8451 7.41207C100.117 7.70794 100.261 7.87587 100.261 7.93984C100.261 8.05979 100.197 8.12376 100.077 8.12376H98.5017V9.22727H98.7336C98.7336 9.22727 98.8775 9.08333 99.0854 8.81145C99.3413 8.4916 99.5012 8.32367 99.5492 8.32367C99.6692 8.32367 99.8771 8.4836 100.165 8.80346C100.461 9.12332 100.605 9.30724 100.605 9.3792C100.605 9.51514 100.533 9.57112 100.405 9.57112H97.2462V10.4747H98.0139C98.1258 10.3388 98.2138 10.2268 98.2858 10.1309C98.5177 9.88298 98.6776 9.75504 98.7736 9.75504C98.8935 9.75504 99.1494 9.89897 99.5572 10.1709C99.925 10.4667 100.109 10.6586 100.109 10.7626C100.109 10.8506 100.013 10.9545 99.8371 11.0904C99.6052 11.2504 99.4932 11.3943 99.4932 11.5303V13.2175C99.5412 13.0816 99.6052 12.9456 99.6772 12.8017C99.7971 12.5538 99.925 12.4339 100.021 12.4339C100.109 12.4339 100.229 12.5458 100.389 12.7617C100.613 13.0816 100.733 13.3215 100.733 13.4814C100.733 13.6173 100.669 13.6813 100.549 13.6813H99.4932V14.9687C99.4932 15.3686 99.2693 15.6884 98.8295 15.9123C98.4857 16.0803 98.1898 16.1682 97.9579 16.1682C97.862 16.1682 97.774 16.0083 97.702 15.7124C97.5901 15.3606 97.1903 15.0647 96.4786 14.8168L96.5265 14.5849C97.1103 14.6569 97.5901 14.6809 97.9579 14.6809C98.1018 14.6809 98.1898 14.5609 98.1898 14.289V13.6733H95.0312V15.8164C95.0312 15.9603 94.8313 16.0882 94.4555 16.1682C94.2875 16.1922 94.1516 16.2082 94.0796 16.2082C93.7838 16.2082 93.6478 16.0723 93.6478 15.8164C93.7118 15.0087 93.7438 14.297 93.7438 13.6733C93.3999 13.6733 93.0721 13.6893 92.7442 13.7133L92.5443 13.2335C93.0561 13.2975 93.4639 13.3295 93.7438 13.3295V11.9941C93.7438 11.4183 93.7038 10.7226 93.6478 9.89098C94.2076 10.0349 94.7353 10.2188 95.2231 10.4667H95.9428V9.56312H94.6474C93.9517 9.56312 93.4639 9.57912 93.168 9.60311L92.9681 9.12332C93.3599 9.19529 93.9117 9.21927 94.6474 9.21927H94.7913V8.11576C94.3115 8.13175 93.9597 8.13975 93.7358 8.16374L93.5359 7.68395C93.8397 7.73193 94.2555 7.77191 94.7833 7.77991V6.82833C94.0716 6.82833 93.5838 6.85232 93.304 6.87631L93.1041 6.39652C93.4959 6.46849 94.0476 6.49248 94.7833 6.49248L94.8153 6.48448ZM95.9668 11.8341V10.7786H95.0472V11.8341H95.9668ZM95.9668 13.3135V12.162H95.0472V13.3135H95.9668ZM97.2062 6.81233H96.1027V7.76392H97.2062V6.81233ZM97.2062 8.09977H96.1027V9.20328H97.2062V8.09977ZM97.2542 11.8341H98.2058V10.7786H97.2542V11.8341ZM97.2542 13.3135H98.2058V12.162H97.2542V13.3135Z" fill="white"/>
<path fill-rule="evenodd" clip-rule="evenodd" d="M121.574 11.9772V16.5992L121.358 17.031H125.756L125.541 16.5992V3.99675L125.756 3.56494H111.755L111.971 3.99675V16.6072L111.755 17.039H116.145L115.929 16.6072V11.9852C115.929 10.5059 117.072 9.13849 118.776 9.13849C120.375 9.13849 121.582 10.4499 121.582 11.9852L121.574 11.9772Z" fill="white"/>
<path d="M132.889 5.59545H133.985C133.985 5.59545 134.153 5.42752 134.377 5.12365C134.656 4.76381 134.832 4.58789 134.888 4.58789C135.032 4.58789 135.256 4.76381 135.592 5.10766C135.912 5.4675 136.08 5.66742 136.08 5.73139C136.08 5.87532 136.016 5.9313 135.888 5.9313H134.984V14.0957C134.984 14.8314 135 15.4231 135.032 15.8789C135.032 16.0229 134.832 16.1188 134.433 16.1988C134.257 16.2228 134.113 16.2388 134.041 16.2388C133.841 16.2388 133.745 16.1108 133.745 15.8789C133.769 15.4551 133.793 14.8714 133.793 14.0957V13.2161C133.337 13.5599 132.873 13.8238 132.417 14.0157C132.329 14.0397 132.289 14.0797 132.289 14.1277C132.265 14.1757 132.249 14.2396 132.249 14.3196C132.21 14.4316 132.162 14.4875 132.098 14.4875C131.93 14.4875 131.738 14.2077 131.514 13.6239C131.45 13.472 131.346 13.2001 131.194 12.8483C131.426 12.8323 131.642 12.8083 131.842 12.7843V5.94729C131.642 5.96328 131.474 5.97128 131.346 5.98727L131.154 5.49149C131.546 5.57146 132.122 5.59545 132.889 5.59545ZM133.793 7.82646V5.9393H132.993V7.82646H133.793ZM133.793 10.1694V8.18631H132.993V10.1694H133.793ZM133.793 12.5124V10.5133H132.993V12.6403C133.273 12.6004 133.537 12.5604 133.793 12.5124ZM137.639 5.05169C137.983 5.19562 138.159 5.34756 138.159 5.49949C138.159 5.57945 138.071 5.61144 137.903 5.62743C137.727 5.65142 137.639 5.66742 137.607 5.6914C137.215 6.25116 136.752 6.74694 136.232 7.19474C136.336 7.23472 136.408 7.27471 136.488 7.2987C136.704 7.42664 136.815 7.57857 136.815 7.7465C136.815 7.9624 136.712 8.17031 136.52 8.37022C136.392 8.52216 136.216 8.58613 136.008 8.58613C135.88 8.58613 135.768 8.45819 135.68 8.2023C135.552 7.84246 135.32 7.49061 135.016 7.14676L135.12 6.94685C135.376 6.99483 135.616 7.03481 135.824 7.09079C136.12 6.33912 136.344 5.52348 136.512 4.65986C136.895 4.8038 137.279 4.93974 137.631 5.06768L137.639 5.05169ZM138.839 6.19518C139.142 6.32313 139.31 6.45907 139.31 6.58701C139.31 6.66697 139.23 6.69896 139.078 6.69896C138.927 6.72295 138.839 6.74694 138.815 6.77893C138.191 7.72251 137.463 8.57813 136.648 9.36179C137.143 9.32181 137.615 9.27383 138.063 9.21785C137.999 8.91399 137.895 8.61812 137.767 8.31425L137.919 8.17031C138.375 8.41021 138.695 8.62611 138.871 8.81003C139.086 9.06592 139.198 9.28182 139.198 9.45775C139.198 9.72163 139.134 9.92954 139.022 10.0655C138.871 10.2334 138.695 10.3054 138.511 10.3054C138.399 10.3054 138.319 10.2814 138.271 10.2014C138.207 10.1614 138.159 9.96952 138.119 9.61768C138.119 9.57769 138.103 9.53771 138.103 9.51372C137.463 9.94553 136.815 10.2494 136.152 10.4413C136.048 10.4653 136.008 10.4893 136.008 10.5453C135.992 10.5852 135.984 10.6252 135.968 10.6732C135.944 10.7612 135.92 10.8012 135.864 10.8012C135.72 10.8012 135.56 10.5693 135.376 10.0895C135.312 9.96152 135.224 9.76161 135.112 9.44975C135.472 9.43376 135.816 9.40977 136.16 9.38578C136.863 8.26627 137.407 7.08279 137.799 5.81935C138.159 5.94729 138.487 6.05924 138.815 6.17919L138.839 6.19518ZM136.688 11.137C137.111 11.185 137.327 11.2649 137.327 11.3689C137.327 11.4809 137.215 11.5688 137.007 11.6488C136.855 11.6968 136.775 11.7927 136.775 11.9127V13.2481H137.543C137.559 12.9442 137.567 12.5844 137.567 12.2005C137.567 11.7687 137.527 11.217 137.479 10.5613C137.863 10.6252 138.247 10.6892 138.623 10.7612C138.863 10.8091 139.046 10.8651 139.158 10.9051C139.142 10.8251 139.134 10.7372 139.118 10.6652C139.438 10.7132 139.83 10.7692 140.302 10.8411C140.734 10.8891 140.95 10.9531 140.95 11.057C140.95 11.185 140.838 11.2889 140.63 11.3609C140.478 11.4249 140.398 11.5288 140.398 11.6568V13.2961H141.198V12.0086C141.198 11.6648 141.158 11.3609 141.094 11.105C141.397 11.153 141.797 11.209 142.253 11.2809C142.661 11.3289 142.877 11.3929 142.877 11.4968C142.877 11.6248 142.765 11.7128 142.557 11.7767C142.405 11.8247 142.325 11.9207 142.325 12.0406V14.0397C142.325 14.1837 142.149 14.2796 141.813 14.3436C141.661 14.3676 141.549 14.3836 141.485 14.3836C141.285 14.3836 141.19 14.3196 141.19 14.1837V13.6399H140.39V15.9349C140.39 16.0788 140.214 16.1748 139.854 16.2548C139.678 16.2707 139.558 16.2787 139.494 16.2787C139.254 16.2787 139.134 16.2148 139.134 16.0868C139.158 15.8869 139.182 15.727 139.182 15.639V11.6008C139.182 11.4729 139.166 11.3449 139.166 11.241C139.118 11.2649 139.078 11.2889 139.022 11.3049C138.847 11.3849 138.743 11.4569 138.727 11.5448C138.727 12.7203 138.687 13.464 138.623 13.7838C138.511 14.1917 138.359 14.5195 138.151 14.7994C137.975 15.0553 137.695 15.3112 137.335 15.5351C136.991 15.735 136.456 15.9589 135.744 16.1748L135.64 16.0229C136.096 15.767 136.48 15.4791 136.783 15.1672C137.039 14.9113 137.215 14.6075 137.343 14.2236C137.391 14.0717 137.431 13.8638 137.471 13.5839H136.736V14.0797C136.736 14.2236 136.56 14.3196 136.224 14.3836C136.056 14.4076 135.944 14.4236 135.896 14.4236C135.696 14.4236 135.592 14.3596 135.592 14.2236V11.8407C135.592 11.4968 135.552 11.193 135.488 10.9371C135.808 10.9851 136.192 11.041 136.648 11.113L136.688 11.137ZM141.294 5.0277C141.653 5.17963 141.837 5.33156 141.837 5.49949C141.837 5.57945 141.733 5.61144 141.557 5.62743C141.365 5.65142 141.262 5.66742 141.254 5.6914C140.822 6.27515 140.334 6.8269 139.79 7.30669C139.918 7.35467 140.022 7.41065 140.094 7.45063C140.294 7.59457 140.398 7.7545 140.398 7.93841C140.398 8.17831 140.294 8.41021 140.094 8.61012C139.95 8.76205 139.774 8.84202 139.558 8.84202C139.446 8.84202 139.342 8.69808 139.262 8.41021C139.158 8.01838 138.967 7.63455 138.703 7.25072L138.807 7.05081C139.038 7.09878 139.23 7.15476 139.39 7.19474C139.694 6.39509 139.926 5.52348 140.102 4.61188C140.51 4.76381 140.902 4.90775 141.285 5.04369L141.294 5.0277ZM142.325 6.45107C142.629 6.57901 142.797 6.70696 142.797 6.8349C142.797 6.91487 142.709 6.94685 142.557 6.96284C142.405 6.98683 142.317 7.01082 142.301 7.04281C141.781 7.83446 141.182 8.56214 140.494 9.24984C140.95 9.20986 141.373 9.16188 141.781 9.08191C141.733 8.81803 141.653 8.54615 141.549 8.29026L141.701 8.13833C142.133 8.37022 142.437 8.57014 142.621 8.74606C142.821 8.98595 142.941 9.19386 142.941 9.36978C142.941 9.66565 142.877 9.88955 142.749 10.0575C142.581 10.2334 142.405 10.3214 142.205 10.3214C142.101 10.3214 142.037 10.2974 141.989 10.2174C141.941 10.1774 141.885 9.97752 141.861 9.61768C141.861 9.5697 141.845 9.51372 141.845 9.46574C141.349 9.84957 140.838 10.1374 140.318 10.3214C140.238 10.3454 140.214 10.3693 140.214 10.4253C140.19 10.4493 140.174 10.4893 140.174 10.5373C140.15 10.6252 140.11 10.6652 140.062 10.6652C139.918 10.6652 139.758 10.4333 139.574 9.95353C139.51 9.82558 139.422 9.62567 139.31 9.3298C139.542 9.31381 139.766 9.30581 139.998 9.28182C140.558 8.29026 140.99 7.21873 141.294 6.09922C141.653 6.22717 141.997 6.33912 142.325 6.45907V6.45107Z" fill="white"/>
<path d="M146.044 5.73225H147.091C147.091 5.73225 147.259 5.55633 147.515 5.24447C147.811 4.87663 147.987 4.68471 148.035 4.68471C148.187 4.68471 148.442 4.87663 148.77 5.22847C149.098 5.58831 149.282 5.80422 149.282 5.87619C149.282 6.02012 149.194 6.0761 149.026 6.0761H147.195C146.875 7.41151 146.595 8.41907 146.339 9.08277L146.811 9.31467H147.139C147.307 9.11476 147.467 8.92284 147.627 8.77091C147.731 8.64297 147.843 8.571 147.947 8.571C148.035 8.571 148.251 8.68295 148.61 8.89086C149.018 9.17074 149.234 9.36265 149.234 9.46661C149.234 9.57856 149.154 9.6985 149.002 9.81045C148.89 9.91441 148.834 10.0424 148.834 10.1703V13.2489C148.834 13.6088 148.85 14.0886 148.882 14.6883C148.882 14.8562 148.682 14.9842 148.275 15.0561C148.099 15.0801 147.971 15.0961 147.891 15.0961C147.651 15.0961 147.531 14.9842 147.531 14.7363V14.1925H146.739V15.1441C146.739 15.272 146.539 15.376 146.155 15.448C145.988 15.472 145.876 15.488 145.796 15.488C145.492 15.488 145.34 15.376 145.34 15.1441C145.404 14.5844 145.444 14.0006 145.444 13.4009V10.85C145.444 10.85 145.404 10.898 145.404 10.914C145.076 11.4257 144.7 11.8576 144.292 12.2014L144.204 12.0095C144.5 11.3698 144.78 10.5541 145.044 9.56256C145.3 8.571 145.532 7.41151 145.716 6.0841C145.156 6.10009 144.748 6.10808 144.492 6.13207L144.292 5.63629C144.7 5.70026 145.276 5.72425 146.036 5.72425L146.044 5.73225ZM147.531 13.8487V9.67451H146.739V13.8487H147.531ZM151.937 14.3844C152.321 14.5844 152.513 14.7443 152.513 14.8402C152.513 14.9522 152.409 15.0082 152.233 15.0322C152.017 15.0322 151.889 15.0721 151.865 15.1441C151.441 15.32 151.001 15.488 150.53 15.6399C149.994 15.8158 149.138 15.9997 147.987 16.1836L147.899 15.9837C148.586 15.6799 149.186 15.36 149.706 15.0162C150.314 14.6083 150.737 14.2165 150.977 13.8407C151.345 14.0406 151.665 14.2245 151.945 14.3764L151.937 14.3844ZM151.073 5.54833H153.656C153.656 5.54833 153.824 5.37241 154.064 5.05255C154.368 4.69271 154.544 4.50879 154.6 4.50879C154.752 4.50879 155.008 4.68471 155.335 5.04455C155.663 5.40439 155.847 5.6203 155.847 5.69227C155.847 5.8362 155.759 5.89218 155.591 5.89218H153.328C153.008 6.43594 152.641 6.92373 152.217 7.33155H153.352C153.504 7.18761 153.656 7.06766 153.784 6.93972C153.96 6.7478 154.104 6.64385 154.208 6.64385C154.352 6.64385 154.616 6.77179 155.008 7.02768C155.463 7.38752 155.695 7.61142 155.695 7.73937C155.695 7.85132 155.591 7.97926 155.391 8.1072C155.223 8.25914 155.151 8.40307 155.151 8.53102V11.0179L155.255 13.5688C155.255 13.7367 155.016 13.8487 154.552 13.9286C154.352 13.9526 154.192 13.9686 154.104 13.9686C153.872 13.9686 153.76 13.8407 153.76 13.5768V13.3769H150.969V13.6728C150.969 13.8407 150.769 13.9686 150.362 14.0406C150.186 14.0646 150.058 14.0806 149.978 14.0806C149.698 14.0806 149.57 13.9526 149.57 13.6728C149.594 13.2489 149.618 12.8171 149.618 12.3853V8.55501C149.618 7.94727 149.578 7.34754 149.53 6.7558C150.066 6.90773 150.609 7.11564 151.145 7.35554H151.505C151.553 6.93172 151.609 6.45193 151.657 5.91617H151.073C150.338 5.91617 149.826 5.94016 149.53 5.96415L149.33 5.46837C149.722 5.54833 150.314 5.57232 151.073 5.57232V5.54833ZM153.76 9.07478V7.68339H150.969V9.07478H153.76ZM153.76 11.0099V9.41863H150.969V11.0099H153.76ZM153.76 13.009V11.3698H150.969V13.009H153.76ZM154.432 14.2965C154.752 14.3844 155.04 14.5124 155.319 14.6643C155.559 14.8402 155.687 15.0481 155.687 15.288C155.687 15.456 155.583 15.6559 155.391 15.8958C155.223 16.0477 155.064 16.1357 154.88 16.1357C154.728 16.1357 154.584 16.0317 154.448 15.8398C153.952 15.1761 153.352 14.6563 152.649 14.2325L152.697 13.9926C153.152 14.0166 153.728 14.1206 154.416 14.2885L154.432 14.2965Z" fill="white"/>
<path d="M161.341 7.8195C161.597 8.14736 161.733 8.37126 161.733 8.46722C161.733 8.61115 161.669 8.66713 161.541 8.66713H160.037V12.9053C160.597 12.7933 161.117 12.6494 161.629 12.4974L161.677 12.6414C160.685 13.497 159.637 14.1047 158.534 14.4886C158.406 14.5126 158.358 14.5685 158.358 14.6405C158.334 14.6885 158.318 14.7445 158.31 14.8164C158.27 14.9284 158.222 14.9843 158.158 14.9843C157.99 14.9843 157.798 14.7045 157.574 14.1207C157.51 13.9688 157.406 13.6969 157.271 13.3451C157.766 13.2971 158.254 13.2331 158.71 13.1532V8.66713H158.558C158.302 8.66713 157.974 8.69112 157.566 8.71511L157.366 8.21933C157.878 8.2833 158.286 8.30729 158.566 8.30729H158.718V6.71599C158.718 6.0123 158.67 5.38857 158.566 4.82882C158.926 4.8768 159.39 4.94077 159.981 5.04472C160.429 5.12469 160.653 5.19666 160.653 5.27662C160.653 5.40456 160.541 5.51652 160.309 5.62047C160.133 5.66845 160.053 5.7724 160.053 5.92434V8.30729H160.205C160.285 8.17934 160.381 8.00342 160.501 7.74753C160.653 7.42767 160.757 7.25975 160.805 7.25975C160.909 7.25975 161.085 7.45166 161.349 7.80351L161.341 7.8195ZM166.842 6.96388C166.93 6.81194 167.034 6.72398 167.162 6.72398C167.29 6.72398 167.546 6.83593 167.914 7.06783C168.394 7.3637 168.649 7.56361 168.649 7.67556C168.649 7.75553 168.538 7.86748 168.322 8.01941C168.146 8.14736 168.058 8.2833 168.058 8.41124C168.058 10.7782 167.97 12.1536 167.802 12.5374C167.674 12.8813 167.474 13.1212 167.194 13.2651C166.93 13.417 166.722 13.497 166.57 13.497C166.442 13.497 166.355 13.3291 166.291 12.9772C166.243 12.6174 166.035 12.3695 165.683 12.2016V13.3451C165.683 13.513 165.483 13.6249 165.075 13.7049C164.899 13.7289 164.771 13.7449 164.691 13.7449C164.387 13.7449 164.235 13.6169 164.235 13.3531C164.299 12.5614 164.339 11.8257 164.339 11.162V8.64314L163.292 9.00298V14.2487C163.292 14.5285 163.396 14.6805 163.612 14.7205C164.02 14.7684 164.643 14.8004 165.507 14.8004C166.051 14.8004 166.514 14.7604 166.882 14.6885C167.162 14.6405 167.338 14.5605 167.426 14.4326C167.506 14.3526 167.602 14.1687 167.706 13.8568C167.834 13.497 167.962 13.0252 168.114 12.4175L168.418 12.4655C168.434 13.1052 168.442 13.513 168.442 13.6649C168.442 14.0727 168.522 14.3526 168.681 14.5046C168.881 14.7045 169.001 14.8964 169.001 15.0483C169.001 15.2802 168.825 15.4801 168.49 15.6321C168.226 15.744 167.946 15.824 167.634 15.864C167.09 15.9439 166.37 15.9919 165.499 15.9919C164.139 15.9919 163.236 15.9439 162.788 15.864C162.42 15.784 162.18 15.6321 162.052 15.4321C161.948 15.2802 161.9 15.0083 161.9 14.6005V9.48277C161.541 9.58672 161.213 9.73866 160.909 9.91458L160.549 9.46678C160.909 9.46678 161.349 9.36282 161.9 9.14692V6.77996C161.9 6.29217 161.86 5.81238 161.797 5.34059C162.204 5.38058 162.66 5.44455 163.196 5.51652C163.684 5.59648 163.932 5.68444 163.932 5.7804C163.932 5.93233 163.804 6.06028 163.548 6.14824C163.38 6.21221 163.292 6.32416 163.284 6.47609V8.65113L164.331 8.2833V6.86792C164.331 6.02829 164.283 5.27662 164.187 4.62891C164.571 4.66889 165.051 4.73286 165.651 4.82882C166.059 4.8768 166.275 4.97275 166.275 5.08471C166.275 5.22864 166.147 5.34059 165.915 5.41256C165.747 5.46054 165.675 5.56449 165.675 5.71643V7.80351L166.514 7.50764C166.626 7.29173 166.746 7.09982 166.842 6.94789V6.96388ZM165.675 11.8657C165.875 11.8897 166.083 11.9057 166.275 11.9057C166.45 11.9057 166.57 11.7938 166.618 11.5459C166.642 11.122 166.666 9.8746 166.666 7.8115L165.675 8.15535V11.8577V11.8657Z" fill="white"/>
<path d="M176.838 4.74911C177.158 4.7731 177.326 4.85306 177.326 4.989C177.326 5.05297 177.222 5.13294 177.046 5.2209C176.83 5.32485 176.726 5.4528 176.726 5.58874V6.08452H179.373C179.373 6.08452 179.525 5.9086 179.781 5.57274C180.076 5.18891 180.252 4.989 180.316 4.989C180.468 4.989 180.724 5.18092 181.084 5.54876C181.428 5.93259 181.604 6.14849 181.604 6.22046C181.604 6.3644 181.516 6.42037 181.364 6.42037H179.189C179.293 6.46835 179.381 6.52433 179.469 6.56431C179.925 6.8202 180.172 6.98812 180.172 7.07608C180.172 7.18004 180.06 7.22802 179.829 7.22802L179.421 7.18004C179.013 7.41193 178.597 7.61185 178.157 7.78777C178.677 7.96369 179.021 8.13162 179.205 8.28355C179.349 8.41149 179.421 8.56343 179.421 8.71536C179.421 8.91527 179.373 9.0752 179.269 9.17116C179.229 9.21914 179.189 9.25112 179.165 9.25912H179.725C179.725 9.25912 179.853 9.13118 180.084 8.86729C180.38 8.49946 180.564 8.30754 180.668 8.30754C180.756 8.30754 181.028 8.52345 181.46 8.93127C181.724 9.18715 181.868 9.35508 181.868 9.40306C181.868 9.54699 181.78 9.60297 181.612 9.60297H172.608V10.9944C172.608 11.874 172.544 12.6336 172.44 13.2973C172.296 13.8971 172.056 14.4408 171.728 14.9526C171.424 15.3604 171.024 15.7683 170.521 16.1761L170.329 16.0721C170.673 15.4084 170.904 14.7847 171.032 14.2009C171.184 13.4893 171.272 12.4177 171.272 10.9944C171.272 9.91483 171.224 9.13118 171.12 8.66738C171.808 8.86729 172.352 9.0752 172.76 9.26712H178.413C178.285 9.21914 178.157 9.12318 178.005 9.01123C177.646 8.75534 177.254 8.51545 176.846 8.30754C176.798 8.33153 176.742 8.34752 176.702 8.35552C175.822 8.65939 174.535 8.93127 172.856 9.15517L172.808 8.95526C174.071 8.56343 175.071 8.18759 175.838 7.85974C175.199 7.61984 174.351 7.34796 173.303 7.06809L173.351 6.91615C174.751 7.09208 175.87 7.27599 176.726 7.42793C177.262 7.14805 177.757 6.8202 178.229 6.42037H172.752C172.024 6.42037 171.52 6.44436 171.208 6.46835L171.008 5.97257C171.416 6.05253 171.992 6.07652 172.752 6.07652H175.335V5.62872C175.335 5.26888 175.295 4.91703 175.231 4.5332C175.774 4.58118 176.31 4.64515 176.838 4.73312V4.74911ZM175.135 10.4026C175.494 10.5146 175.678 10.6345 175.678 10.7625C175.678 10.8904 175.574 10.9544 175.383 10.9784C175.183 11.0183 175.063 11.0583 175.039 11.1063C174.911 11.3462 174.799 11.5621 174.671 11.754H176.374V11.0024C176.374 10.6425 176.334 10.2907 176.27 9.90684C176.814 9.95481 177.35 10.0348 177.877 10.1227C178.197 10.1467 178.357 10.2267 178.357 10.3626C178.357 10.4266 178.253 10.5066 178.077 10.5945C177.877 10.6985 177.773 10.8264 177.773 10.9544V11.754H178.821C178.821 11.754 178.933 11.6261 179.165 11.3622C179.469 11.0024 179.661 10.8184 179.765 10.8184C179.845 10.8184 180.108 11.0183 180.556 11.4262C180.82 11.6821 180.964 11.85 180.964 11.914C180.964 12.0419 180.876 12.1059 180.708 12.1059H177.781V13.6092H178.773C178.773 13.6092 178.917 13.4573 179.141 13.1854C179.397 12.8655 179.565 12.6976 179.613 12.6976C179.741 12.6976 179.94 12.8655 180.22 13.1694C180.5 13.4893 180.652 13.6812 180.652 13.7451C180.652 13.8891 180.572 13.9451 180.452 13.9451H177.781V15.5364H179.373C179.373 15.5364 179.525 15.3444 179.781 15.0246C180.076 14.6407 180.252 14.4408 180.316 14.4408C180.468 14.4408 180.724 14.6328 181.084 15.0006C181.428 15.3684 181.604 15.6003 181.604 15.6883C181.604 15.8162 181.516 15.8802 181.364 15.8802H173.951C173.215 15.8802 172.704 15.8962 172.408 15.9282L172.208 15.4324C172.6 15.4964 173.191 15.5364 173.951 15.5364H176.382V13.9451H175.438C174.703 13.9451 174.191 13.969 173.895 13.993L173.695 13.4973C174.103 13.5772 174.679 13.6012 175.438 13.6012H176.382V12.0979H174.431C174.327 12.2258 174.239 12.3298 174.151 12.4177C173.831 12.7776 173.415 13.1294 172.904 13.4973L172.752 13.3453C173.08 12.8096 173.327 12.2978 173.503 11.826C173.679 11.3382 173.823 10.7465 173.951 10.0588C174.359 10.1707 174.751 10.2907 175.135 10.4026Z" fill="white"/>
<path d="M187.433 7.74765C187.865 7.97955 188.097 8.15547 188.097 8.28342C188.097 8.41136 187.985 8.47533 187.753 8.49932C187.489 8.49932 187.329 8.5473 187.297 8.62726C187.017 9.03509 186.722 9.39493 186.434 9.70679H186.45C186.714 9.78675 186.857 9.85872 186.857 9.9067C186.857 10.0586 186.769 10.1706 186.618 10.2505C186.514 10.3145 186.466 10.4185 186.466 10.5544V15.7761C186.466 15.928 186.266 16.056 185.858 16.144C185.682 16.1679 185.554 16.1839 185.474 16.1839C185.17 16.1839 185.018 16.04 185.018 15.7761C185.082 14.8725 185.122 13.9689 185.122 13.0493V10.9063C184.674 11.2261 184.139 11.546 183.531 11.8498L183.427 11.594C184.067 10.9862 184.634 10.3065 185.13 9.57085C185.69 8.70723 186.082 7.89159 186.314 7.12393C186.746 7.36382 187.113 7.57173 187.449 7.73166L187.433 7.74765ZM186.825 5.21277C187.209 5.41268 187.401 5.58061 187.401 5.68456C187.401 5.79651 187.297 5.86048 187.105 5.87648C186.865 5.87648 186.722 5.91646 186.698 5.98843C186.37 6.47621 186.01 6.89203 185.642 7.27586C185.21 7.73166 184.53 8.20345 183.619 8.67524L183.515 8.47533C184.027 7.95556 184.467 7.36382 184.866 6.7321C185.314 6.00442 185.634 5.30873 185.81 4.64502C186.194 4.87692 186.522 5.06883 186.825 5.22077V5.21277ZM189.688 8.73122H192.567C192.567 8.73122 192.767 8.53131 193.047 8.17147C193.391 7.74765 193.59 7.53175 193.654 7.53175C193.83 7.53175 194.102 7.73166 194.478 8.13148C194.862 8.5393 195.054 8.79519 195.054 8.86716C195.054 9.0111 194.966 9.06707 194.798 9.06707H192.999V14.3927C192.999 15.1284 192.759 15.6162 192.287 15.8321C191.831 16.064 191.495 16.1919 191.272 16.1919C191.12 16.1919 191.008 16.024 190.912 15.7041C190.768 15.2483 190.208 14.8645 189.232 14.5447L189.272 14.2888C190 14.3927 190.608 14.4407 191.12 14.4407C191.375 14.4407 191.511 14.3128 191.511 14.0489V9.06707H189.68C188.945 9.06707 188.433 9.09106 188.137 9.11505L187.937 8.61927C188.329 8.69923 188.921 8.72322 189.68 8.72322L189.688 8.73122ZM190.232 5.89247H191.911C191.911 5.89247 192.087 5.70055 192.359 5.35671C192.663 4.94889 192.855 4.74897 192.919 4.74897C193.087 4.74897 193.351 4.94889 193.71 5.33272C194.07 5.71655 194.254 5.95644 194.254 6.0444C194.254 6.17235 194.166 6.23632 194.014 6.23632H190.232C189.496 6.23632 188.985 6.26031 188.689 6.2843L188.489 5.78852C188.881 5.86848 189.472 5.89247 190.232 5.89247Z" fill="white"/>
<path d="M199.388 4.94108C199.82 5.06902 200.052 5.18097 200.052 5.28493C200.052 5.39688 199.908 5.46085 199.66 5.48484C199.612 5.50083 199.572 5.50883 199.556 5.50883C200.22 5.74073 200.691 5.98062 200.995 6.21252C201.323 6.51639 201.491 6.87623 201.491 7.26806C201.491 7.45997 201.403 7.63589 201.251 7.78783C201.147 7.91577 201.011 7.96375 200.843 7.96375C200.587 7.96375 200.355 7.74784 200.18 7.30004C199.98 6.78827 199.66 6.28449 199.228 5.7967C198.924 6.44442 198.62 6.97219 198.284 7.37201C198.052 7.67588 197.805 7.95575 197.517 8.23563C197.925 8.28361 198.436 8.2996 199.06 8.2996C199.084 8.2996 199.188 8.15566 199.38 7.90777C199.612 7.6119 199.748 7.45997 199.804 7.45997C199.932 7.45997 200.148 7.6119 200.427 7.90777C200.707 8.21164 200.851 8.39556 200.851 8.45153C200.851 8.59547 200.787 8.65145 200.659 8.65145H199.564V10.0908H199.612C199.612 10.0908 199.756 9.94688 199.98 9.667C200.236 9.36313 200.403 9.19521 200.451 9.19521C200.579 9.19521 200.779 9.36313 201.059 9.667C201.339 9.97086 201.491 10.1628 201.491 10.2427C201.491 10.3707 201.411 10.4347 201.291 10.4347H199.556V13.7692C200.196 13.6812 200.803 13.5773 201.387 13.4733L201.435 13.6173C200.292 14.4329 199.076 15.0086 197.805 15.3765C197.661 15.3925 197.605 15.4405 197.605 15.5204C197.581 15.5604 197.565 15.6244 197.557 15.6963C197.533 15.8003 197.477 15.8643 197.413 15.8643C197.221 15.8643 197.005 15.5444 196.765 14.9207C196.685 14.7528 196.573 14.4729 196.421 14.0811C197.061 14.0411 197.669 13.9931 198.252 13.9291V10.4427C197.565 10.4427 197.093 10.4666 196.813 10.4906L196.613 9.99485C197.005 10.0748 197.557 10.0988 198.252 10.0988V8.67544C197.909 8.69143 197.645 8.69943 197.461 8.71542L197.333 8.41955C197.117 8.61946 196.885 8.82737 196.661 9.00329L196.509 8.81138C196.805 8.36357 197.117 7.75584 197.461 6.96419C197.725 6.32447 197.973 5.54082 198.196 4.57324C198.644 4.72518 199.036 4.83713 199.38 4.93308L199.388 4.94108ZM197.621 11.7941C197.853 12.1219 197.965 12.4018 197.965 12.6497C197.965 12.9136 197.901 13.1215 197.773 13.2574C197.621 13.4253 197.445 13.4973 197.261 13.4973C197.149 13.4973 197.069 13.4573 197.021 13.3854C196.957 13.3374 196.909 13.0895 196.869 12.6737C196.829 12.1619 196.717 11.6421 196.509 11.1064L196.661 10.9544C197.117 11.2823 197.437 11.5622 197.613 11.7941H197.621ZM201.355 11.0424C201.555 11.1224 201.683 11.1943 201.747 11.2743V9.87491C201.747 9.29116 201.707 8.73141 201.643 8.17965C202.187 8.33159 202.754 8.5235 203.322 8.77939H203.682V5.78871C203.682 5.42887 203.642 5.07702 203.578 4.69319C204.122 4.74117 204.658 4.82113 205.185 4.90909C205.505 4.92509 205.673 4.99706 205.673 5.14099C205.673 5.22096 205.569 5.29293 205.393 5.38089C205.177 5.48484 205.073 5.61278 205.073 5.74073V8.78739H205.721C205.833 8.65944 205.921 8.54749 205.985 8.45953C206.217 8.21964 206.369 8.09169 206.465 8.09169C206.577 8.09169 206.833 8.24363 207.24 8.5235C207.608 8.82737 207.8 9.03528 207.8 9.13123C207.8 9.2192 207.696 9.33115 207.52 9.47508C207.264 9.64301 207.152 9.79494 207.152 9.92289V14.9047C207.152 15.3525 206.937 15.6963 206.513 15.9202C206.169 16.0962 205.889 16.2001 205.657 16.2001C205.553 16.2001 205.465 16.0322 205.393 15.7123C205.265 15.3285 204.833 15.0086 204.066 14.7448L204.114 14.5049C204.754 14.5848 205.257 14.6088 205.657 14.6088C205.785 14.6088 205.857 14.4809 205.857 14.201V12.8096H203.018V15.8403C203.018 15.9922 202.826 16.1202 202.443 16.2081C202.267 16.2321 202.147 16.2481 202.075 16.2481C201.811 16.2481 201.683 16.1042 201.683 15.8403C201.707 15.4325 201.731 15.0406 201.731 14.6568V11.5462C201.683 11.5702 201.627 11.5862 201.563 11.5862C201.387 11.6101 201.299 11.6341 201.267 11.6661C200.907 12.2739 200.475 12.8256 199.98 13.3054L199.828 13.1535C200.02 12.3858 200.172 11.5622 200.275 10.6666C200.635 10.7945 200.987 10.9224 201.331 11.0504L201.355 11.0424ZM202.962 6.42843C203.242 6.69231 203.386 7.01217 203.386 7.37201C203.386 7.60391 203.282 7.80382 203.106 8.01173C202.978 8.16366 202.802 8.22763 202.594 8.22763C202.387 8.22763 202.227 8.02772 202.099 7.58791C201.923 6.98818 201.603 6.40444 201.155 5.82869L201.243 5.63677C202.059 5.89266 202.634 6.14855 202.962 6.42843ZM205.881 10.5066V9.11524H203.042V10.5066H205.881ZM205.881 12.4578V10.8665H203.042V12.4578H205.881ZM207.392 5.92465C207.8 6.15654 208.016 6.31647 208.016 6.43642C208.016 6.55637 207.904 6.61234 207.696 6.62834C207.44 6.62834 207.304 6.66832 207.264 6.73229C207.065 7.01217 206.857 7.26806 206.625 7.48396C206.369 7.73985 205.961 8.00373 205.425 8.28361L205.321 8.0837C205.537 7.69987 205.729 7.29204 205.905 6.83625C206.097 6.31647 206.233 5.82069 206.313 5.3489C206.721 5.5808 207.081 5.78071 207.384 5.93264L207.392 5.92465Z" fill="white"/>
<path d="M211.639 5.18787H218.923C219.067 5.05993 219.187 4.93199 219.315 4.82004C219.491 4.64411 219.619 4.55615 219.707 4.55615C219.851 4.55615 220.099 4.6841 220.483 4.93998C220.93 5.29982 221.154 5.52373 221.154 5.65167C221.154 5.76362 221.026 5.89156 220.795 6.01951C220.595 6.17144 220.499 6.31538 220.499 6.44332V13.2963L220.603 15.8312C220.603 15.9831 220.363 16.1111 219.891 16.199C219.691 16.223 219.547 16.239 219.459 16.239C219.219 16.239 219.099 16.0951 219.099 15.8312V15.4394H211.447V15.8872C211.447 16.0311 211.247 16.1271 210.863 16.207C210.687 16.231 210.567 16.247 210.503 16.247C210.199 16.247 210.047 16.1191 210.047 15.8872C210.111 15.0076 210.151 14.2319 210.151 13.5602V6.77917C210.151 6.19543 210.111 5.48374 210.047 4.63612C210.607 4.78005 211.143 4.95598 211.623 5.17988L211.639 5.18787ZM219.115 15.0955V12.6486H217.38V13.5042C217.38 14.016 217.236 14.3838 216.956 14.5837C216.652 14.8236 216.332 14.9436 216.029 14.9436C215.925 14.9436 215.861 14.8316 215.837 14.5997C215.789 14.2399 215.413 13.8721 214.741 13.5042L214.789 13.2483C215.277 13.3523 215.645 13.4003 215.869 13.4003C216.037 13.4003 216.125 13.3363 216.125 13.2003V12.6566H213.39C212.662 12.6566 212.158 12.6806 211.846 12.7046L211.647 12.2088C212.054 12.2887 212.63 12.3127 213.39 12.3127H216.125V12.1608C216.125 11.9689 216.101 11.649 216.045 11.1932C214.997 11.4491 213.846 11.641 212.59 11.769C212.542 11.769 212.51 11.8329 212.51 11.9609C212.47 12.1048 212.43 12.1608 212.382 12.1608C212.23 12.1608 212.102 11.9929 211.998 11.641C211.918 11.4651 211.822 11.1852 211.679 10.7774C212.694 10.7774 213.726 10.7534 214.773 10.6974V10.1777H213.286C213.198 10.2816 213.03 10.3536 212.79 10.3936C212.622 10.4176 212.51 10.4336 212.43 10.4336C212.198 10.4336 212.086 10.3216 212.086 10.0737C212.11 9.68989 212.134 9.30606 212.134 8.93023V8.63436C212.134 8.0906 212.11 7.55483 212.086 7.04306C212.574 7.171 213.078 7.36292 213.598 7.58682H214.765V7.38691C214.765 7.21098 214.749 7.04306 214.749 6.89112H213.31C212.582 6.89112 212.078 6.91511 211.766 6.9391L211.575 6.44332C211.966 6.52329 212.542 6.54728 213.31 6.54728H214.733C214.709 6.24341 214.685 5.94754 214.653 5.69165C214.973 5.73963 215.389 5.8036 215.925 5.88357C216.332 5.94754 216.532 6.0275 216.532 6.09947C216.532 6.20343 216.42 6.29938 216.189 6.37935C216.061 6.41933 215.989 6.46731 215.957 6.54728H217.124C217.124 6.54728 217.252 6.40334 217.444 6.15545C217.684 5.85158 217.828 5.69965 217.876 5.69965C218.004 5.69965 218.204 5.85158 218.484 6.15545C218.763 6.45931 218.915 6.64323 218.915 6.69921C218.915 6.82715 218.835 6.89112 218.715 6.89112H215.925V7.59481H217.068C217.22 7.44288 217.364 7.31494 217.492 7.20299C217.596 7.09903 217.684 7.05105 217.772 7.05105C217.852 7.05105 218.052 7.15501 218.372 7.33093C218.731 7.58682 218.915 7.76274 218.915 7.84271C218.915 7.94666 218.835 8.04262 218.683 8.13857C218.555 8.24253 218.508 8.33849 218.508 8.44244V8.64235C218.508 8.97021 218.524 9.41801 218.556 9.97777C218.556 10.1297 218.38 10.2337 218.02 10.2976C217.852 10.3216 217.74 10.3376 217.66 10.3376C217.516 10.3376 217.428 10.2896 217.404 10.1857H215.917V10.6415C216.197 10.6255 216.46 10.6015 216.748 10.5775C216.668 10.5295 216.62 10.4735 216.572 10.4336L216.676 10.2816C217.364 10.4096 217.836 10.5375 218.116 10.6655C218.348 10.7934 218.476 10.9453 218.476 11.1213C218.476 11.2972 218.396 11.4491 218.244 11.609C218.14 11.721 218.028 11.777 217.876 11.777C217.836 11.777 217.812 11.777 217.796 11.761C217.748 11.801 217.684 11.825 217.62 11.8489C217.42 11.9129 217.324 12.0009 217.324 12.1128V12.3127H217.772C217.772 12.3127 217.9 12.1848 218.076 11.9849C218.292 11.745 218.42 11.617 218.468 11.617C218.571 11.617 218.747 11.745 218.987 12.0009C219.011 12.0249 219.027 12.0489 219.051 12.0648V5.53972H211.399V15.0875H219.051L219.115 15.0955ZM214.165 13.2003C214.381 13.3043 214.493 13.4163 214.493 13.5602C214.493 13.7921 214.389 14.016 214.189 14.2239C214.045 14.3758 213.87 14.4558 213.654 14.4558C213.526 14.4558 213.414 14.3438 213.326 14.096C213.214 13.7681 213.006 13.4322 212.702 13.1044L212.806 12.9125C213.454 13.0164 213.918 13.1044 214.165 13.2083V13.2003ZM214.805 8.68234V7.93067H213.35V8.68234H214.805ZM214.805 9.82583V9.02618H213.35V9.82583H214.805ZM215.989 8.68234H217.444V7.93067H215.989V8.68234ZM215.989 9.82583H217.444V9.02618H215.989V9.82583ZM217.252 11.2412C217.3 11.2572 217.364 11.2652 217.42 11.2652C217.34 11.1373 217.252 11.0093 217.156 10.8974C216.924 10.9773 216.708 11.0253 216.492 11.0733C216.86 11.1532 217.116 11.2012 217.26 11.2412H217.252Z" fill="white"/>
<path d="M226.808 5.42844C227.136 5.73231 227.304 5.94021 227.304 6.03617C227.304 6.12413 227.16 6.2041 226.912 6.25208C226.608 6.33204 226.44 6.40401 226.4 6.48398C225.968 7.60348 225.536 8.50708 225.113 9.17079C225.648 9.65858 226.04 10.0744 226.272 10.4422C226.424 10.6821 226.536 10.962 226.64 11.2979C226.744 11.6017 226.808 11.9216 226.808 12.2494C226.808 12.7372 226.72 13.0891 226.544 13.297C226.368 13.5928 226.16 13.7928 225.96 13.9207C225.728 14.0726 225.552 14.1366 225.416 14.1366C225.312 14.1366 225.241 14.0087 225.185 13.7288C225.105 13.4489 224.817 13.185 224.321 12.9531V15.7839C224.321 15.9278 224.129 16.0238 223.745 16.1037C223.569 16.1277 223.449 16.1437 223.377 16.1437C223.113 16.1437 222.986 16.0158 222.986 15.7839C223.049 14.9443 223.089 14.2086 223.089 13.5529V7.08371C223.089 6.52396 223.049 5.85225 222.986 5.04461C223.481 5.17255 223.953 5.34048 224.401 5.54039H225.025C225.217 5.34848 225.384 5.18055 225.52 5.05261C225.672 4.94865 225.816 4.88468 225.912 4.88468C226.056 4.88468 226.36 5.0606 226.816 5.42044L226.808 5.42844ZM224.313 12.6093C224.617 12.6733 224.857 12.6972 225.065 12.6972C225.217 12.6972 225.32 12.6573 225.392 12.5533C225.472 12.4014 225.504 12.1455 225.504 11.8016C225.504 11.2659 225.44 10.8181 225.336 10.4742C225.193 10.0424 224.977 9.6106 224.697 9.1628C224.873 8.19522 225.025 7.0997 225.153 5.87624H224.297V12.6093H224.313ZM232.157 4.89268C232.589 5.02062 232.821 5.13257 232.821 5.23652C232.821 5.34848 232.693 5.41245 232.437 5.43644C232.237 5.47642 232.109 5.5244 232.077 5.58837C231.846 6.01218 231.622 6.35603 231.374 6.61992C231.198 6.83582 230.982 7.04373 230.734 7.22765H231.718C231.718 7.22765 231.91 7.02774 232.173 6.66789C232.501 6.24408 232.693 6.02818 232.757 6.02818C232.933 6.02818 233.205 6.22809 233.581 6.62791C233.965 7.03573 234.157 7.27563 234.157 7.36359C234.157 7.50752 234.069 7.5635 233.901 7.5635H230.974C230.486 8.09926 230.086 8.4831 229.727 8.73898C230.238 9.25076 230.614 9.74654 230.87 10.2183C231.07 10.0184 231.254 9.81051 231.406 9.57861C231.71 9.1468 231.942 8.73898 232.07 8.35515C232.453 8.58705 232.781 8.77896 233.077 8.9309C233.461 9.13081 233.661 9.29874 233.661 9.40269C233.661 9.51464 233.557 9.57861 233.357 9.59461C233.125 9.59461 232.989 9.63459 232.965 9.70656C232.709 9.90647 232.429 10.0744 232.141 10.2263C231.886 10.3783 231.542 10.5222 231.086 10.6501C231.102 10.6901 231.11 10.7141 231.126 10.7381C231.51 11.2739 231.918 11.6817 232.349 11.9856C233.021 12.4573 233.701 12.7852 234.365 12.9931L234.317 13.289C233.949 13.4169 233.677 13.6728 233.501 14.0566C233.397 14.3525 233.309 14.4885 233.221 14.4885C233.109 14.4885 232.837 14.2965 232.429 13.9127C232.149 13.6328 231.87 13.313 231.614 12.9291C231.614 13.0571 231.63 13.185 231.63 13.289C231.63 14.1286 231.518 14.7443 231.31 15.1362C231.054 15.568 230.75 15.8718 230.39 16.0797C230.062 16.2717 229.815 16.3756 229.639 16.3756C229.511 16.3756 229.399 16.1837 229.295 15.8159C229.119 15.3921 228.567 15.0402 227.655 14.7363L227.703 14.4964C228.343 14.6004 228.775 14.6484 228.991 14.6484C229.487 14.6484 229.823 14.5604 229.974 14.3845C230.118 14.2166 230.19 13.8647 230.19 13.305C230.19 13.0891 230.174 12.8732 230.174 12.6653C229.615 13.0571 229.039 13.3929 228.455 13.6568C227.663 14.0406 226.632 14.3925 225.36 14.7363L225.257 14.4964C226.144 14.0726 226.928 13.6328 227.575 13.161C228.311 12.7052 229.127 12.0175 230.046 11.0979C230.03 11.01 230.022 10.922 230.022 10.8181C229.998 10.7301 229.982 10.6421 229.974 10.5622C229.615 10.8181 229.247 11.034 228.863 11.2099C228.383 11.4418 227.743 11.6577 226.952 11.8576L226.848 11.6017C227.36 11.3059 227.791 11.002 228.159 10.6741C228.583 10.3543 229.047 9.87448 229.559 9.21877C229.511 9.13081 229.471 9.04285 229.415 8.95489C229.055 9.17079 228.663 9.36271 228.247 9.53063C227.711 9.74654 227.136 9.92246 226.504 10.0664L226.4 9.87448C226.984 9.6186 227.543 9.29074 228.055 8.89092C228.527 8.52308 228.935 8.09127 229.279 7.57949H228.095C227.368 7.57949 226.864 7.60348 226.552 7.62747L226.352 7.13169C226.76 7.21166 227.336 7.23564 228.095 7.23564H230.198C230.326 6.95577 230.454 6.58793 230.606 6.15612C230.734 5.72431 230.862 5.18855 230.99 4.54883C231.438 4.69276 231.83 4.80472 232.157 4.89268ZM229.431 5.32449C229.695 5.5244 229.838 5.69232 229.838 5.83626C229.838 6.1961 229.735 6.48398 229.535 6.71587C229.343 6.97176 229.127 7.08371 228.895 7.08371C228.791 7.08371 228.719 7.05972 228.655 6.97976C228.591 6.93178 228.527 6.71587 228.455 6.33204C228.367 5.90023 228.135 5.38846 227.751 4.78872L227.943 4.63679C228.655 4.89268 229.151 5.12457 229.431 5.32449Z" fill="white"/>
</svg>
