<?xml version="1.0" encoding="utf-8"?>
<!-- Generator: Adobe Illustrator 26.5.0, SVG Export Plug-In . SVG Version: 6.00 Build 0)  -->
<svg version="1.1" id="圖層_1" xmlns="http://www.w3.org/2000/svg" xmlns:xlink="http://www.w3.org/1999/xlink" x="0px" y="0px"
	 viewBox="0 0 750 1334" style="enable-background:new 0 0 750 1334;" xml:space="preserve">
<style type="text/css">
	.st0{fill:#FFFFFF;}
	.st1{fill:url(#SVGID_1_);}
	.st2{fill:url(#SVGID_00000028310552929337909740000009340643807235060405_);}
	.st3{fill:#831F24;}
	.st4{fill:#3D9475;}
</style>
<g>
	
		<rect x="391.7" y="1257.5" transform="matrix(1 5.257260e-03 -5.257260e-03 1 6.6758 -2.0434)" class="st0" width="0.7" height="22.6"/>
	<g>
		<g>
			<path class="st0" d="M275,1271.2l0.4-0.2c0.1,0.3,0.3,0.4,0.6,0.4c0.2,0,0.3,0,0.4-0.1c0.1-0.1,0.1-0.2,0.1-0.3c0,0,0-0.1,0-0.1
				c0,0,0-0.1,0-0.1c0,0,0,0-0.1-0.1c0,0,0,0-0.1-0.1c0,0,0,0-0.1-0.1c0,0-0.1,0-0.1,0c0,0-0.1,0-0.1-0.1s-0.1,0-0.1-0.1
				c-0.3-0.2-0.5-0.3-0.7-0.4c-0.1-0.1-0.2-0.3-0.2-0.5c0-0.3,0.1-0.5,0.3-0.6c0.2-0.2,0.4-0.2,0.7-0.2c0.2,0,0.4,0,0.6,0.1
				c0.2,0.1,0.3,0.2,0.3,0.4l-0.4,0.2c-0.1-0.2-0.3-0.3-0.5-0.3c-0.1,0-0.2,0-0.3,0.1c-0.1,0.1-0.1,0.2-0.1,0.3c0,0.1,0,0.2,0.1,0.3
				c0.1,0.1,0.2,0.1,0.4,0.2c0,0,0.1,0,0.1,0c0.3,0.1,0.5,0.3,0.6,0.4c0.1,0.1,0.2,0.3,0.2,0.5c0,0.3-0.1,0.5-0.3,0.7
				c-0.2,0.2-0.4,0.3-0.8,0.3c-0.3,0-0.5-0.1-0.6-0.2C275.1,1271.6,275,1271.5,275,1271.2z"/>
			<path class="st0" d="M277.5,1268.8l0.5,0l0,1.9c0,0.6,0.3,0.8,0.8,0.8c0.5,0,0.8-0.3,0.8-0.8l0-1.9l0.5,0l0,1.9
				c0,0.8-0.4,1.3-1.3,1.2c-0.8,0-1.3-0.4-1.3-1.3L277.5,1268.8z"/>
			<path class="st0" d="M280.8,1271.9l0-3.2l2,1.9c0.1,0.1,0.2,0.2,0.3,0.4l0-2.2l0.5,0l0,3.2l-2-1.9c-0.1-0.1-0.2-0.2-0.3-0.3
				l0,2.2L280.8,1271.9z"/>
			<path class="st0" d="M272.2,1276.5l0-1.4l-1-1.7l0.5,0l0.6,1.1c0,0.1,0.1,0.1,0.1,0.2c0-0.1,0.1-0.2,0.1-0.3l0.7-1l0.5,0
				l-1.1,1.7l0,1.4L272.2,1276.5z"/>
			<path class="st0" d="M277.1,1275c0,0.5-0.2,0.8-0.5,1.1c-0.3,0.3-0.7,0.5-1.2,0.5c-0.5,0-0.9-0.2-1.2-0.5
				c-0.3-0.3-0.5-0.7-0.5-1.2c0-0.5,0.2-0.8,0.5-1.2c0.3-0.3,0.7-0.5,1.2-0.5c0.5,0,0.8,0.2,1.2,0.5
				C276.9,1274.1,277.1,1274.5,277.1,1275z M276.6,1275c0-0.3-0.1-0.6-0.3-0.8c-0.2-0.2-0.5-0.3-0.8-0.3c-0.3,0-0.6,0.1-0.8,0.3
				c-0.2,0.2-0.3,0.5-0.3,0.8c0,0.3,0.1,0.6,0.3,0.8c0.2,0.2,0.5,0.3,0.8,0.3c0.3,0,0.6-0.1,0.8-0.3
				C276.5,1275.6,276.6,1275.3,276.6,1275z"/>
			<path class="st0" d="M277.7,1273.4l0.5,0l0,1.9c0,0.6,0.3,0.8,0.8,0.8c0.5,0,0.8-0.3,0.8-0.8l0-1.9l0.5,0l0,1.9
				c0,0.8-0.4,1.3-1.3,1.2c-0.8,0-1.3-0.4-1.3-1.3L277.7,1273.4z"/>
			<path class="st0" d="M280.9,1276.5l0-3.2l2,1.9c0.1,0.1,0.2,0.2,0.3,0.4l0-2.2l0.5,0l0,3.2l-2-1.9c-0.1-0.1-0.2-0.2-0.3-0.3
				l0,2.2L280.9,1276.5z"/>
			<path class="st0" d="M286.1,1275l1.2,0c0,0.2,0,0.3,0,0.3c0,0.4-0.1,0.8-0.4,1c-0.3,0.2-0.6,0.4-1.1,0.4c-0.5,0-0.9-0.2-1.2-0.5
				c-0.3-0.3-0.5-0.7-0.5-1.2c0-0.5,0.2-0.9,0.5-1.2c0.3-0.3,0.7-0.5,1.2-0.5c0.5,0,0.9,0.2,1.2,0.5l-0.4,0.3
				c-0.2-0.2-0.5-0.4-0.8-0.4c-0.3,0-0.6,0.1-0.8,0.3c-0.2,0.2-0.3,0.5-0.3,0.8c0,0.4,0.1,0.6,0.3,0.9c0.2,0.2,0.5,0.3,0.8,0.3
				c0.3,0,0.5-0.1,0.7-0.2c0.2-0.1,0.2-0.3,0.3-0.5l0,0l-0.7,0L286.1,1275z"/>
		</g>
	</g>
	<g>
		
			<linearGradient id="SVGID_1_" gradientUnits="userSpaceOnUse" x1="631.2766" y1="1251.2433" x2="631.2766" y2="1263.996" gradientTransform="matrix(-1 -5.100000e-03 -5.100000e-03 1 912.6818 7.5835)">
			<stop  offset="0" style="stop-color:#7B2702"/>
			<stop  offset="1" style="stop-color:#D52C17"/>
		</linearGradient>
		<path class="st1" d="M266.2,1268.3l0-5.4l11.7-7.1c0,0,1-0.6,2.1,0c0.9,0.6,3.6,2.2,3.6,2.2L266.2,1268.3z"/>
		
			<linearGradient id="SVGID_00000001629513056873268050000008087294069093821070_" gradientUnits="userSpaceOnUse" x1="-3275.8098" y1="1263.5792" x2="-3275.8098" y2="1250.8275" gradientTransform="matrix(1 5.100000e-03 -5.100000e-03 1 3565.2251 21.5273)">
			<stop  offset="0" style="stop-color:#E49619"/>
			<stop  offset="1" style="stop-color:#DC7300"/>
		</linearGradient>
		<path style="fill:url(#SVGID_00000001629513056873268050000008087294069093821070_);" d="M291.7,1268.4l0-5.4l-11.6-7.2
			c0,0-1-0.6-2.1,0c-0.9,0.6-3.6,2.2-3.6,2.2L291.7,1268.4z"/>
		<polygon class="st3" points="266.2,1269 266.2,1269.3 279.8,1261.4 279.6,1261.2 		"/>
	</g>
	<g>
		<g>
			<path class="st0" d="M305.7,1272.7l0,1.4l-10.6-0.1l0-1.4l4.2,0l0-8.8l1.5,0l0,3.3l4.1,0l0,1.4l-4.1,0l0,4L305.7,1272.7z"/>
			<path class="st0" d="M310.5,1270.1c-0.3,0.1-0.7,0.2-1,0.3l0,2.8c0,0.7-0.1,1.1-0.5,1.3c-0.4,0.2-0.9,0.3-1.7,0.3
				c0-0.4-0.2-1-0.4-1.4c0.5,0,0.9,0,1.1,0c0.1,0,0.2,0,0.2-0.2l0-2.4l-1.3,0.3l-0.3-1.3c0.4-0.1,1-0.2,1.6-0.4l0-2.1l-1.4,0l0-1.3
				l1.4,0l0-2.2l1.3,0l0,2.2l1,0l0,1.3l-1,0l0,1.8l0.9-0.2L310.5,1270.1z M313,1269.7c-0.1,0.2-0.2,0.4-0.4,0.6l4.5,0
				c0,0,0,0.3,0,0.5c-0.1,2.2-0.3,3.2-0.6,3.5c-0.2,0.3-0.4,0.4-0.8,0.4c-0.3,0-0.7,0-1.2,0c0-0.4-0.1-0.8-0.3-1.2
				c0.4,0,0.7,0.1,0.9,0.1c0.2,0,0.3,0,0.4-0.1c0.2-0.2,0.3-0.7,0.4-2.1l-0.4,0c-0.6,1.4-1.4,2.6-2.3,3.4c-0.2-0.2-0.7-0.5-0.9-0.7
				c0.9-0.6,1.6-1.6,2.1-2.7l-0.6,0c-0.7,1.3-1.8,2.3-2.9,3c-0.2-0.2-0.6-0.6-0.9-0.8c1-0.5,1.8-1.3,2.5-2.3l-0.6,0
				c-0.4,0.4-0.7,0.8-1.1,1c-0.2-0.2-0.6-0.6-0.9-0.7c0.7-0.5,1.4-1.2,1.9-1.9l-1.2,0l0-1.1l7,0l0,1.1L313,1269.7z M316.7,1268.1
				l-5.4,0l0-3.9l5.4,0L316.7,1268.1z M315.4,1265.1l-2.9,0l0,0.6l2.9,0L315.4,1265.1z M315.4,1266.6l-2.9,0l0,0.6l2.9,0
				L315.4,1266.6z"/>
			<path class="st0" d="M328.7,1264.4l-0.1,10.4l-1.4,0l0-0.5l-7.2,0l0,0.5l-1.3,0l0.1-10.4L328.7,1264.4z M327.3,1273.1l0-7.5
				l-1.4,0c0.4,0.2,0.8,0.5,1,0.7l-0.5,0.5l0.6,0l0,1l-2.1,0c0.1,0.7,0.1,1.3,0.2,1.8c0.2-0.5,0.4-0.9,0.6-1.5l1.1,0.2
				c-0.3,1-0.7,1.9-1.2,2.7c0.1,0.4,0.3,0.6,0.5,0.6c0.1,0,0.2-0.4,0.3-1.1c0.2,0.2,0.6,0.5,0.9,0.7c-0.2,1.4-0.8,1.9-1.6,1.5
				c-0.3-0.1-0.6-0.4-0.9-0.8c-0.4,0.4-0.8,0.7-1.2,1c-0.2-0.2-0.5-0.7-0.8-0.8c0.1-0.1,0.3-0.2,0.4-0.2c-0.9,0.1-1.8,0.3-2.6,0.4
				l-0.1-1c0.9-0.1,2.1-0.2,3.3-0.4l0,0.6c0.2-0.2,0.4-0.4,0.6-0.6c-0.2-0.8-0.4-1.9-0.5-3.1l-3.2,0l0-1l3.2,0c0-0.3,0-0.7-0.1-1
				l1.1,0c0,0.3,0,0.7,0,1l1.3,0c-0.2-0.2-0.6-0.5-0.9-0.6l0.6-0.5l-5.6,0l0,7.5L327.3,1273.1z M323.4,1270.5l-2.6,0l0-2.2l2.6,0
				L323.4,1270.5z M322.5,1269l-0.8,0l0,0.7l0.8,0L322.5,1269z"/>
			<path class="st0" d="M335.4,1269c-0.4,0.4-0.8,0.7-1.2,1c-0.1-0.2-0.4-0.6-0.6-0.8c0.1,0.4,0.1,0.8,0.1,1.1
				c0,0.7-0.1,1.2-0.5,1.5c-0.2,0.1-0.4,0.2-0.6,0.3c-0.2,0-0.5,0-0.7,0c0-0.3-0.1-0.8-0.3-1.1c0.2,0,0.3,0,0.5,0
				c0.1,0,0.2,0,0.3-0.1c0.1-0.1,0.2-0.4,0.2-0.7c0-0.6-0.1-1.3-0.7-2.2c0.2-0.7,0.4-1.7,0.6-2.4l-0.9,0l0,9.2l-1.2,0l0.1-10.4
				l2.4,0l0.2,0l0.8,0.5c-0.1,0.5-0.3,1-0.5,1.5c0.6-0.6,1.1-1.5,1.4-2.4l1,0.2c-0.1,0.2-0.1,0.4-0.2,0.6l0.9,0l0.2,0l0.7,0.3l0,0.2
				l0.6-0.1l0-0.5l1.8,0l0.2-0.1l0.7,0.4c-0.3,1-0.9,2-1.4,2.7c0.4,0.6,1,1.1,1.6,1.5c-0.3,0.2-0.6,0.7-0.8,1
				c-0.5-0.3-1-0.8-1.4-1.2l0,0.7l-3.4,0L335.4,1269z M335,1267.8c0.1-0.2,0.3-0.4,0.4-0.6c-0.2-0.2-0.5-0.5-0.8-0.7
				c-0.2,0.3-0.5,0.6-0.7,0.8c-0.1-0.1-0.4-0.4-0.6-0.6c-0.1,0.4-0.2,0.8-0.4,1.1c0.3,0.5,0.5,0.9,0.6,1.3c0.5-0.3,0.9-0.6,1.3-1.1
				c-0.5,0.1-0.8,0.1-1.3,0.2l-0.1-0.9c0.5,0,1-0.1,1.6-0.2L335,1267.8z M335.9,1272.3c-0.4,0.7-1.1,1.6-1.6,2.1
				c-0.3-0.2-0.8-0.6-1.1-0.7c0.5-0.5,1.1-1.2,1.4-1.8L335.9,1272.3z M337.8,1271.5l0,3.4l-1.3,0l0-3.4l-2.2,0l0-1.1l5.6,0l0,1.1
				L337.8,1271.5z M335.2,1265.7l-0.1,0.1c0.2,0.2,0.5,0.4,0.7,0.6c0.1-0.2,0.2-0.5,0.3-0.7L335.2,1265.7z M338.5,1268.5
				c-0.6-0.8-1-1.7-1.3-2.8c-0.3,1.1-0.8,2-1.3,2.8L338.5,1268.5z M338.3,1265.5c0.1,0.4,0.3,0.8,0.5,1.1c0.2-0.3,0.4-0.7,0.6-1.1
				L338.3,1265.5z M339.3,1271.7c0.5,0.6,1.2,1.4,1.6,1.9l-1.1,0.7c-0.3-0.5-1-1.4-1.5-2L339.3,1271.7z"/>
			<path class="st0" d="M345.3,1268.1c-0.2,1.7-0.5,3.1-0.9,4.2c1.1,0.9,2.5,1.1,4.2,1.2c0.7,0,3.1,0,3.9,0
				c-0.2,0.3-0.4,0.9-0.5,1.3l-3.4,0c-2,0-3.6-0.3-4.7-1.3c-0.4,0.6-0.8,1.1-1.3,1.4c-0.2-0.3-0.7-0.7-1-0.9c0.6-0.4,1-0.9,1.4-1.5
				c-0.4-0.6-0.7-1.3-1-2.3l1-0.3c0.1,0.5,0.3,1,0.6,1.4c0.2-0.6,0.4-1.3,0.5-2.1l-1.9,0c0.5-0.9,1.1-2.1,1.6-3.3l-1.7,0l0-1.2
				l3.6,0c-0.4,1-1,2.3-1.5,3.3l0.3,0l0.2,0L345.3,1268.1z M347.8,1266l-2,0l0-1l2,0l0-0.9l1.3,0l0,0.9l2.6,0l0,1.6l0.6,0l0,1.1
				l-0.6,0l0,1.5l-2.6,0l0,0.6l2.7,0l0,1l-2.7,0l0,0.6l3.1,0l0,1.1l-3.1,0l0,0.8l-1.3,0l0-0.8l-2.6,0l0-1.1l2.6,0l0-0.6l-2.1,0l0-1
				l2.1,0l0-0.6l-2,0l0-1l2,0l0-0.5l-2.6,0l0-1.1l2.6,0L347.8,1266z M349.1,1266l0,0.5l1.3,0l0-0.5L349.1,1266z M350.4,1267.5
				l-1.3,0l0,0.5l1.3,0L350.4,1267.5z"/>
			<path class="st0" d="M364.1,1265.8l-2,0c0.2,0.2,0.5,0.5,0.6,0.7l-1,0.7l0.8,0l0,2.2c0,0.2,0,0.3,0,0.3c0,0,0.1,0.1,0.1,0.1
				l0.2,0c0.1,0,0.1,0,0.1,0c0,0,0.1-0.1,0.1-0.2c0-0.1,0-0.4,0.1-0.8c0.2,0.2,0.6,0.4,0.9,0.5c0,0.4-0.1,0.9-0.2,1.1
				c-0.1,0.2-0.2,0.3-0.4,0.4c-0.2,0.1-0.4,0.1-0.6,0.1l-0.6,0c-0.3,0-0.6-0.1-0.8-0.3c-0.2-0.2-0.3-0.4-0.3-1l-0.5,0.8
				c-0.2-0.1-0.5-0.3-0.8-0.4c-0.2,0.2-0.4,0.4-0.7,0.6l0.2,0l0,0.7l4.6,0l0,1.1l-3.1,0c1,0.4,2.3,1,3,1.5l-1,0.9
				c-0.6-0.5-2-1.2-2.9-1.6l0.9-0.8l-1.5,0l0,2.6l-1.4,0l0-2.6l-4.6,0l0-1.1l4.6,0l0-0.7l0.2,0c-0.2-0.1-0.3-0.3-0.5-0.4l0,0.1
				c-1.4,0.2-2.9,0.4-4.1,0.5l-0.1-1.1c0.4,0,1-0.1,1.6-0.2l0-1.4l-1.4,0l0-1l2.9,0c-0.2-0.3-0.6-0.7-0.9-1.1l0.4-0.3l-0.8,0
				c-0.4,0.5-0.8,0.9-1.2,1.2c-0.2-0.3-0.6-0.7-0.9-1c0.7-0.5,1.4-1.3,1.8-2l1.2,0.4c-0.1,0.1-0.1,0.2-0.2,0.4l2.6,0l0,1l-1.7,0
				c0.3,0.3,0.5,0.6,0.7,0.8l-0.8,0.6l0.9,0l0,1l-1.4,0l0,1.3c0.4-0.1,0.9-0.1,1.3-0.2l0,0.9c0.5-0.2,0.9-0.4,1.1-0.7
				c-0.3-0.2-0.7-0.3-1-0.5l0.5-0.8c0.3,0.1,0.5,0.2,0.8,0.4c0-0.1,0-0.1,0-0.2l0-0.4l-1.1,0l0-0.9l3.5,0c-0.2-0.3-0.6-0.7-0.9-1.1
				l0.4-0.3l-0.9,0c-0.3,0.5-0.7,0.9-1,1.2c-0.2-0.2-0.7-0.6-1-0.8c0.7-0.5,1.3-1.3,1.6-2.1l1.2,0.3c-0.1,0.1-0.1,0.3-0.2,0.4l3.2,0
				L364.1,1265.8z M357.5,1272.8c-0.7,0.9-2,1.7-3.2,2c-0.2-0.3-0.6-0.9-0.9-1.1c1.2-0.2,2.4-0.7,3-1.3L357.5,1272.8z M360.4,1268.4
				c0,0.2,0,0.4-0.1,0.6c0.3,0.2,0.6,0.3,0.9,0.5l0-0.2l0-1.3l-0.8,0L360.4,1268.4z"/>
			<path class="st0" d="M375.3,1264.5l-0.1,10.5l-1.3,0l0-0.5l-7.2,0l0,0.6l-1.2,0l0.1-10.5L375.3,1264.5z M373.9,1273.4l0-7.8
				l-7.2,0l0,7.8L373.9,1273.4z M373.7,1271.7l-1.5,0l0,0.7c0,0.4-0.1,0.6-0.4,0.7c-0.3,0.1-0.8,0.1-1.4,0.1
				c-0.1-0.2-0.2-0.5-0.3-0.7c0.3,0,0.7,0,0.8,0c0.1,0,0.2,0,0.2-0.1l0-0.7l-2.1,0c0.3,0.3,0.6,0.7,0.8,0.9l-0.9,0.4
				c-0.2-0.3-0.5-0.7-0.8-1.1l0.7-0.3l-1.8,0l0-0.7l4.1,0l0-0.3l1.1,0l0,0.3l0.6,0c-0.1-0.1-0.2-0.3-0.3-0.4
				c-1.9,0.1-3.8,0.1-5.3,0.1l0-0.7c0.7,0,1.6,0,2.6,0l0-0.4l-2.3,0l0-2.4l2.3,0l0-0.3l-2.6,0l0-0.7l2.6,0l0-0.4l1.1,0l0,0.4l2.7,0
				l0,0.7l-2.7,0l0,0.3l2.3,0l0,2.4l-0.6,0c0.4,0.3,0.7,0.6,1,0.9l-0.6,0.5l0.7,0L373.7,1271.7z M368.5,1268.1l1.3,0l0-0.3l-1.3,0
				L368.5,1268.1z M369.8,1269l0-0.3l-1.3,0l0,0.3L369.8,1269z M370.9,1267.8l0,0.3l1.2,0l0-0.3L370.9,1267.8z M372.1,1268.7l-1.2,0
				l0,0.3l1.2,0L372.1,1268.7z M370.9,1270l0.9,0l-0.1-0.1l0.4-0.3l-1.2,0L370.9,1270z"/>
			<path class="st0" d="M380.7,1265.1c-0.3,1-0.7,2.3-1,3.2c0.7,0.9,0.8,1.7,0.8,2.3c0,0.8-0.2,1.2-0.5,1.5
				c-0.2,0.1-0.4,0.2-0.7,0.3c-0.2,0-0.5,0-0.7,0c0-0.3-0.1-0.9-0.3-1.2c0.2,0,0.4,0,0.5,0c0.1,0,0.2,0,0.3-0.1
				c0.1-0.1,0.2-0.3,0.2-0.7c0-0.5-0.1-1.3-0.8-2.1c0.2-0.7,0.5-1.7,0.7-2.5l-0.9,0l0,9.1l-1.2,0l0.1-10.4l2.5,0l0.2-0.1
				L380.7,1265.1z M387.3,1268.5c-0.4,0.3-0.9,0.6-1.4,0.8c0.4,1.2,1.1,2.5,1.7,3.2c-0.3,0.2-0.7,0.6-0.9,0.9
				c-0.7-0.8-1.4-2.3-1.8-3.6l0,0c0.5,1.9,0.3,3.8-0.4,4.4c-0.4,0.4-0.8,0.6-1.4,0.6c-0.2,0-0.6,0-0.9,0c0-0.4-0.1-0.9-0.3-1.2
				c0.4,0,0.8,0.1,1,0.1c0.3,0,0.5,0,0.6-0.3c0.2-0.2,0.4-0.8,0.4-1.5c-0.9,0.7-2,1.3-2.9,1.6c-0.2-0.3-0.5-0.7-0.8-1
				c1.3-0.4,2.8-1.2,3.6-2c0-0.2-0.1-0.4-0.2-0.6c-0.7,0.5-1.6,1.1-2.3,1.4c-0.2-0.3-0.5-0.7-0.7-1c0.9-0.3,2-0.9,2.6-1.4
				c-0.1-0.2-0.3-0.4-0.4-0.6c-0.6,0.4-1.3,0.8-1.9,1.1c-0.2-0.2-0.6-0.7-0.8-1c0.9-0.3,1.7-0.8,2.4-1.3l-2,0l0-1.2l1.8,0
				c-0.3-0.4-0.7-0.8-1.1-1.2l1-0.6c0.5,0.4,1.1,1,1.4,1.4l-0.6,0.4l1,0c0.4-0.5,0.8-1.3,1.1-1.8l1.3,0.4c-0.3,0.5-0.7,1-1,1.4
				l1.7,0l0,1.2l-3.1,0c-0.2,0.2-0.3,0.3-0.5,0.5c0.3,0.4,0.6,0.8,0.8,1.2c0.7-0.4,1.4-0.9,1.9-1.3L387.3,1268.5z"/>
		</g>
	</g>
	<path class="st0" d="M405.6,1273.2l0,1.4l-10.6-0.1l0-1.4l4.2,0l0-8.8l1.5,0l0,3.3l4.1,0l0,1.4l-4.1,0l0,4L405.6,1273.2z"/>
	<path class="st0" d="M410.3,1270.6c-0.3,0.1-0.7,0.2-1,0.3l0,2.8c0,0.7-0.1,1.1-0.5,1.3c-0.4,0.2-0.9,0.3-1.7,0.3
		c0-0.4-0.2-1-0.4-1.4c0.5,0,0.9,0,1.1,0c0.1,0,0.2,0,0.2-0.2l0-2.4l-1.3,0.3l-0.3-1.3c0.4-0.1,1-0.2,1.6-0.4l0-2.1l-1.4,0l0-1.3
		l1.4,0l0-2.2l1.3,0l0,2.2l1,0l0,1.3l-1,0l0,1.8l0.9-0.2L410.3,1270.6z M412.8,1270.2c-0.1,0.2-0.2,0.4-0.4,0.6l4.5,0
		c0,0,0,0.3,0,0.5c-0.1,2.2-0.3,3.2-0.6,3.5c-0.2,0.3-0.4,0.4-0.8,0.4c-0.3,0-0.7,0-1.2,0c0-0.4-0.1-0.8-0.3-1.2
		c0.4,0,0.7,0,0.9,0.1c0.2,0,0.3,0,0.3-0.1c0.2-0.2,0.3-0.7,0.4-2.1l-0.4,0c-0.6,1.4-1.4,2.6-2.3,3.4c-0.2-0.2-0.7-0.5-0.9-0.7
		c0.9-0.6,1.6-1.6,2.1-2.7l-0.6,0c-0.7,1.3-1.8,2.3-2.9,3c-0.2-0.2-0.6-0.6-0.9-0.8c1-0.5,1.8-1.3,2.5-2.3l-0.6,0
		c-0.4,0.4-0.7,0.8-1.1,1c-0.2-0.2-0.6-0.6-0.9-0.7c0.7-0.5,1.4-1.2,1.9-1.9l-1.2,0l0-1.1l7,0l0,1.1L412.8,1270.2z M416.5,1268.6
		l-5.4,0l0-3.9l5.4,0L416.5,1268.6z M415.2,1265.6l-2.9,0l0,0.6l2.9,0L415.2,1265.6z M415.2,1267.1l-2.9,0l0,0.6l2.9,0L415.2,1267.1
		z"/>
	<path class="st0" d="M428.5,1264.9l-0.1,10.4l-1.4,0l0-0.5l-7.2,0l0,0.5l-1.3,0l0.1-10.4L428.5,1264.9z M427.1,1273.6l0-7.5l-1.4,0
		c0.4,0.2,0.8,0.5,1,0.7l-0.5,0.5l0.6,0l0,1l-2.1,0c0.1,0.7,0.1,1.3,0.2,1.8c0.2-0.5,0.4-0.9,0.6-1.5l1.1,0.2
		c-0.3,1-0.7,1.9-1.2,2.7c0.1,0.3,0.3,0.6,0.5,0.6c0.1,0,0.2-0.4,0.3-1.1c0.2,0.2,0.6,0.5,0.9,0.7c-0.2,1.4-0.8,1.9-1.6,1.5
		c-0.3-0.1-0.6-0.4-0.9-0.8c-0.4,0.4-0.8,0.7-1.2,1c-0.2-0.2-0.5-0.7-0.8-0.8c0.1-0.1,0.3-0.2,0.4-0.2c-0.9,0.1-1.8,0.3-2.6,0.4
		l-0.1-1c0.9-0.1,2.1-0.2,3.3-0.4l0,0.6c0.2-0.2,0.4-0.4,0.6-0.6c-0.2-0.8-0.4-1.9-0.5-3.1l-3.2,0l0-1l3.2,0c0-0.3,0-0.7-0.1-1
		l1.1,0c0,0.3,0,0.7,0,1l1.3,0c-0.2-0.2-0.6-0.5-0.9-0.6l0.6-0.5l-5.6,0l0,7.5L427.1,1273.6z M423.2,1271l-2.6,0l0-2.2l2.6,0
		L423.2,1271z M422.3,1269.5l-0.8,0l0,0.7l0.8,0L422.3,1269.5z"/>
	<path class="st0" d="M435.2,1269.5c-0.4,0.4-0.8,0.7-1.2,1c-0.1-0.2-0.4-0.6-0.6-0.8c0.1,0.4,0.1,0.8,0.1,1.1
		c0,0.7-0.1,1.2-0.5,1.5c-0.2,0.1-0.4,0.2-0.6,0.3c-0.2,0-0.5,0-0.7,0c0-0.3-0.1-0.8-0.3-1.1c0.2,0,0.3,0,0.5,0c0.1,0,0.2,0,0.3-0.1
		c0.1-0.1,0.2-0.4,0.2-0.7c0-0.6-0.1-1.3-0.7-2.2c0.2-0.7,0.4-1.7,0.6-2.4l-0.9,0l0,9.2l-1.2,0l0.1-10.4l2.4,0l0.2,0l0.8,0.5
		c-0.1,0.5-0.3,1-0.5,1.5c0.6-0.6,1.1-1.5,1.4-2.4l1,0.2c-0.1,0.2-0.1,0.4-0.2,0.6l0.9,0l0.2,0l0.7,0.3l0,0.2l0.6-0.1l0-0.5l1.8,0
		l0.2-0.1l0.7,0.4c-0.3,1-0.9,2-1.4,2.7c0.4,0.6,1,1.1,1.6,1.5c-0.3,0.2-0.6,0.7-0.8,1c-0.5-0.3-1-0.8-1.4-1.2l0,0.7l-3.4,0
		L435.2,1269.5z M434.8,1268.3c0.1-0.2,0.3-0.4,0.4-0.6c-0.2-0.2-0.5-0.5-0.8-0.7c-0.2,0.3-0.5,0.6-0.7,0.8
		c-0.1-0.1-0.4-0.4-0.6-0.6c-0.1,0.4-0.2,0.8-0.4,1.1c0.3,0.5,0.5,0.9,0.6,1.3c0.5-0.3,0.9-0.6,1.3-1.1c-0.5,0.1-0.8,0.1-1.3,0.2
		l-0.1-0.9c0.5,0,1-0.1,1.6-0.2L434.8,1268.3z M435.7,1272.8c-0.4,0.7-1.1,1.6-1.6,2.1c-0.3-0.2-0.8-0.6-1.1-0.7
		c0.5-0.5,1.1-1.2,1.4-1.8L435.7,1272.8z M437.6,1272l0,3.4l-1.3,0l0-3.4l-2.2,0l0-1.1l5.6,0l0,1.1L437.6,1272z M435,1266.2
		l-0.1,0.1c0.2,0.2,0.5,0.4,0.7,0.6c0.1-0.2,0.2-0.5,0.3-0.7L435,1266.2z M438.3,1269c-0.6-0.8-1-1.7-1.3-2.8
		c-0.3,1.1-0.8,2-1.3,2.8L438.3,1269z M438.1,1266c0.1,0.4,0.3,0.8,0.5,1.1c0.2-0.3,0.4-0.7,0.6-1.1L438.1,1266z M439.1,1272.3
		c0.5,0.6,1.2,1.4,1.6,1.9l-1.1,0.7c-0.3-0.5-1-1.4-1.5-2L439.1,1272.3z"/>
	<path class="st0" d="M452.2,1267.8l0,1l-2.1,0l-0.1,0.9l-6.7,0l0.1-0.9l-1.8,0l0-1l2,0l0.1-0.9l6.6,0l-0.1,0.9L452.2,1267.8z
		 M449.1,1273.8c1,0.3,2,0.6,2.7,0.8l-0.9,0.8c-0.8-0.3-2.2-0.8-3.5-1.1l0.5-0.5l-2.1,0l0.7,0.5c-1,0.5-2.6,0.9-4,1.1
		c-0.2-0.3-0.5-0.7-0.7-0.9c1-0.1,2.2-0.4,3.1-0.7l-1.7,0l0-3.8l7.6,0l0,3.8L449.1,1273.8z M443.2,1267.5l-1.2,0l0-2l4.3,0
		c-0.1-0.2-0.2-0.5-0.3-0.7l1.2-0.3c0.2,0.3,0.4,0.7,0.5,1l4.3,0l0,2l-1.3,0l0-1l-7.4,0L443.2,1267.5z M444.4,1271l4.8,0l0-0.3
		l-4.8,0L444.4,1271z M444.4,1272.1l4.8,0l0-0.4l-4.8,0L444.4,1272.1z M444.4,1273.1l4.8,0l0-0.4l-4.8,0L444.4,1273.1z M444.6,1269
		l1.5,0l0-0.4l-1.5,0L444.6,1269z M444.8,1267.6l0,0.3l1.5,0l0-0.3L444.8,1267.6z M448.8,1269l0-0.4l-1.5,0l0,0.4L448.8,1269z
		 M448.9,1267.6l-1.5,0l0,0.3l1.5,0L448.9,1267.6z"/>
	<path class="st0" d="M457.5,1273.6c-0.8,0.7-2.2,1.3-3.4,1.5c-0.2-0.3-0.5-0.7-0.8-1c1.2-0.2,2.5-0.5,3.2-1L457.5,1273.6z
		 M463.7,1271.7l0,1.1l-4.5,0l0,2.7l-1.4,0l0-2.7l-4.4,0l0-1.1l4.4,0l0-0.5l-3.4,0l0-1l3.4,0l0-0.5l-3.9,0l0-1l2.1,0
		c-0.1-0.3-0.3-0.6-0.4-0.9l0.8-0.2l-3,0l0-1.1l1.6,0c-0.2-0.4-0.5-1-0.7-1.4l1.2-0.4c0.3,0.5,0.7,1.2,0.9,1.6l-0.6,0.2l1.1,0l0-1.9
		l1.3,0l0,1.9l0.9,0l0-1.9l1.3,0l0,1.9l1,0l-0.4-0.1c0.3-0.5,0.6-1.2,0.8-1.7l1.5,0.3c-0.3,0.5-0.6,1.1-0.9,1.5l1.5,0l0,1.1l-3.1,0
		l1.1,0.3c-0.3,0.3-0.5,0.5-0.7,0.7l2.2,0l0,1l-4,0l0,0.5l3.5,0l0,1l-3.5,0l0,0.5L463.7,1271.7z M457,1267.5
		c0.2,0.3,0.4,0.6,0.5,0.9l-0.6,0.1l3.2,0l-0.4-0.1c0.2-0.3,0.4-0.6,0.6-0.9L457,1267.5z M460.6,1273.1c0.9,0.4,2.3,0.9,3.1,1.3
		l-1,0.8c-0.7-0.4-2-1-3-1.4L460.6,1273.1z"/>
	<path class="st0" d="M465.3,1270.8c0-2.3,0.7-4.2,1.8-6l1.1,0.5c-1,1.7-1.4,3.7-1.4,5.6c0,1.9,0.4,3.9,1.4,5.6l-1.1,0.4
		C465.9,1275,465.3,1273.1,465.3,1270.8z"/>
	<path class="st0" d="M479.6,1270c-0.4,1.5-1.1,2.6-2,3.5c0.7,0.4,1.4,0.7,2.3,0.9c-0.3,0.3-0.7,0.8-0.9,1.2c-1-0.3-1.8-0.7-2.5-1.2
		c-0.7,0.5-1.6,0.8-2.5,1.1c-0.1-0.4-0.4-0.9-0.7-1.2c0,0.4-0.2,0.7-0.4,0.9c-0.3,0.2-0.8,0.3-1.5,0.2c0-0.3-0.2-0.9-0.3-1.3
		c0.4,0,0.7,0,0.8,0c0.1,0,0.2,0,0.2-0.2l0-2.3c-0.3,0.2-0.6,0.4-0.9,0.6l-0.3-0.8c-0.1,1.5-0.3,3-0.7,4.2c-0.2-0.2-0.8-0.5-1.1-0.6
		c0.6-1.6,0.7-3.9,0.7-5.6l0-4.2l3.7,0l0,3.5c1.3-0.6,1.4-1.5,1.4-2.2l0-1.2l3.9,0l0,2.6c0,0.3,0,0.5,0.2,0.5l0.5,0
		c0.2,0,0.4,0,0.6-0.1c0,0.3,0.1,0.8,0.1,1.1c-0.2,0.1-0.4,0.1-0.7,0.1l-0.6,0c-1.1,0-1.3-0.5-1.3-1.6l0-1.2l-1.4,0v0
		c0,1.1-0.3,2.4-1.9,3.1c-0.1-0.2-0.5-0.6-0.8-0.9l0,5.3c0,0.1,0,0.2,0,0.3c0.8-0.2,1.5-0.5,2.2-0.8c-0.6-0.7-1.1-1.4-1.5-2.3
		l0.6-0.2l-0.8,0l0-1.3l4.7,0l0.3-0.1L479.6,1270z M470.9,1269.3c0,0.5,0,1,0,1.6c0.3-0.1,0.8-0.3,1.2-0.4l0-1.3l-0.5,0.4
		c-0.2-0.2-0.4-0.6-0.7-0.9L470.9,1269.3z M471,1266.3l0,1.4l0.3-0.2c0.3,0.3,0.6,0.6,0.8,0.9l0-2.1L471,1266.3z M475.3,1271
		c0.3,0.6,0.7,1.2,1.3,1.7c0.5-0.5,0.9-1,1.3-1.6L475.3,1271z"/>
	<path class="st0" d="M480.9,1276.4c1-1.7,1.4-3.6,1.4-5.6c0-1.9-0.4-3.9-1.4-5.6l1.1-0.4c1.1,1.8,1.7,3.7,1.7,6
		c0,2.3-0.7,4.2-1.8,6L480.9,1276.4z"/>
</g>
<g>
	<g>
		
			<image style="overflow:visible;opacity:0.8;" width="665" height="107" xlink:href="4FE4E1FE.png"  transform="matrix(1 0 0 1 48.4998 758.9998)">
		</image>
		<g>
			<g>
				<path class="st0" d="M76.1,823.2c3.3-1.1,6.8-2,10.2-3l0.7,5c-8.6,2.6-17.9,5.4-24.8,7.4l-1.1-5.3c2.7-0.8,6.1-1.7,9.8-2.7
					v-20.7h-8.9v-5.2h8.9v-16.3h-9.5v-5.3h24.3v5.3h-9.5v16.3H84v5.2h-7.9V823.2z M110.8,773.6c-0.5,1-1,1.9-1.4,2.8
					c5.2,7.3,14,14.6,21.6,18.3c-1.4,1.1-3.1,3.1-4,4.5c-6.9-3.9-14.8-11-20.4-18.3c-5.1,7.6-12.1,14.1-20.4,18.9
					c-0.8-1.1-2.6-3-3.8-3.9c10.4-5.6,18.8-14.6,23.1-23.9L110.8,773.6z M127.1,816.2c-6.8,12.2-19.8,20.1-36.4,24.5
					c-0.8-1.5-2.1-3.5-3.3-4.8c15.8-3.5,28.5-10.7,34.8-21.8L127.1,816.2z M111.8,795c-4.7,5.9-12.3,11.5-19.1,14.9
					c-0.8-1.1-2.3-2.8-3.6-3.8c6.5-2.9,14.1-8,18.2-13L111.8,795z M118.9,805.5c-5.6,8.1-15.2,15.2-25,19.6c-0.8-1.3-2.3-3-3.5-4.1
					c9.3-3.7,18.9-10.3,24-17.6L118.9,805.5z"/>
				<path class="st0" d="M156.2,814.7c-0.9-2-3.1-5.5-5-8.3v34.3h-4.9v-33.4c-2.4,7.2-5.5,14.4-8.6,18.9c-0.6-1.4-1.9-3.5-2.7-4.8
					c3.8-5.2,7.8-14.5,10.1-22.7h-8.6v-5.3h9.8v-12.1c-2.6,0.6-5.3,1.1-7.8,1.6c-0.2-1.3-1-3.1-1.6-4.4c6.8-1.4,14.8-3.5,19.5-5.9
					l3.2,4.4c-2.5,1.1-5.3,2.1-8.4,3v13.3h8.3v5.3h-8.3v2.1c1.8,2,6.8,8,7.9,9.5L156.2,814.7z M176.7,800.9
					c-1.6,3.2-3.5,6.2-5.3,8.9h9.7v-6.7h5.1v6.7h15.2v18.8c0,2.6-0.4,3.9-2.2,4.7c-1.7,0.8-4.3,0.8-8,0.8c-0.2-1.4-0.9-3.3-1.6-4.7
					c2.7,0.1,5,0.1,5.6,0c0.8,0,1-0.2,1-0.9v-13.9h-10.1v26.1h-5.1v-26.1h-9.4v19.6h-5.1v-18.6c-1.5,1.5-3,3-4.7,4.4
					c-0.8-1.1-2.7-3.1-3.9-3.9c5.1-3.8,9.5-9.1,13-15.2h-9.2V796h11.7c1-2.3,2-4.6,2.7-7c-3.5,1.4-7.1,2.9-10.6,4
					c-0.8-1.1-2.5-3.3-3.6-4.4c5.6-1.5,11.3-3.5,16.7-5.9c-4.8-2-9.6-3.7-14.2-5l3.4-3.8c5.3,1.6,11,3.7,16.5,5.9
					c4.4-2.3,8.2-5,11-7.7l4.7,2.3c-2.9,2.8-6.5,5.4-10.4,7.8c5.2,2.3,10,4.7,13.5,6.8l-3.3,4.1c-3.9-2.6-9.5-5.3-15.6-8
					c-2.3,1.3-4.8,2.3-7.2,3.5l4.2,1c-0.8,2.2-1.6,4.4-2.4,6.5h25.8v4.9H176.7z"/>
				<path class="st0" d="M279.2,779.6v5.1h-56.7v16.4c0,11.6-0.9,28.5-7.4,39.9c-1-1.1-3.4-2.6-4.6-3.2c6.1-10.7,6.6-25.9,6.6-36.7
					v-21.5h29.1c-0.9-2.1-2.1-4.6-3.2-6.5l5.3-1.6c1.5,2.6,3.2,5.6,4.1,8.1H279.2z M266.4,793.6h12.2v4.7h-12.2v11.9h-12.2v5.9h20.3
					v15.5c0,2.8-0.5,4.2-2.7,5c-2.1,0.8-5.5,0.8-10.9,0.8c-0.2-1.5-1-3.4-1.6-4.9c4.1,0.2,7.4,0.2,8.4,0.1c1,0,1.3-0.2,1.3-1.1V821
					h-14.8v19.9h-5.5V821h-14.2v16.6h-5.5v-21.5h19.7v-5.9h-12.4v-11.9H225v-4.7h11.3v-6.7h5.3v6.7H261v-6.7h5.4V793.6z M261,798.3
					h-19.4v7.4H261V798.3z"/>
				<path class="st0" d="M310.6,820.1H287v-5.5h23.6V820.1z M308.4,789.3h-19.7v-5.4h19.7V789.3z M330.6,799.4c0,1.1,0,2.3-0.1,3.3
					c3.5,15.8,10.9,27.9,24.6,32.6c-1.1,1.1-2.9,3.3-3.7,4.9c-11.3-4.6-18.2-13.5-22.5-25.6c-2.6,9.2-8.8,18.8-23.1,26.3
					c-0.9-1.3-2.9-3.4-4.2-4.4c21.6-10.9,23.2-26.5,23.2-37.2v-5.7h5.9V799.4z M318.6,790.4c-2.3,6.1-4.9,11.5-7.9,15.8
					c-1.2-1-4-2.5-5.5-3.2c5.7-7.3,9.8-19,12.1-30.9l6,1.1c-0.8,4-1.8,7.9-2.9,11.6h27.2l1.1-0.3l4.1,2.2c-2,7.3-5.3,15.2-7.9,20.4
					c-1.2-0.7-3.3-1.8-4.7-2.4c1.8-3.5,4.1-9.2,5.6-14.3H318.6z"/>
				<path class="st0" d="M459,808.1v4.4h-48v2h-5.5V791c-2,2.3-4.3,4.4-6.4,6.2c-0.9-1-2.9-2.9-4.2-3.8c6.9-5,13.4-13.1,17.4-21.3
					l5.1,1.7c-1.3,2.6-2.8,5.3-4.4,7.7H431c-0.8-2.4-2.4-5.6-3.8-8.2l5.3-1.2c1.7,2.8,3.7,6.5,4.5,9l-1.5,0.4h21.3v4.4h-21.5v4.4
					h18.5v4h-18.5v4.8h18.6v3.9h-18.6v5.3H459z M457.8,834.6c0,2.8-0.5,4.1-2.6,5c-2,0.8-5.2,0.8-10.1,0.8c-0.2-1.5-0.9-3.3-1.6-4.7
					c3.8,0.1,6.8,0.1,7.7,0c1-0.1,1.2-0.3,1.2-1.1V821h-11.8v11h-22.3v-11h-11.6v19.8h-5.5v-24.6h22.2v11.2h11.9v-11.2h22.5V834.6z
					 M430,785.7h-18.9v4.4H430V785.7z M430,794.1h-18.9v4.8H430V794.1z M411.1,808.1H430v-5.3h-18.9V808.1z"/>
				<path class="st0" d="M496.3,803.4c-3.8,15.3-12.5,26.4-22.1,32.6c-0.8-1.2-3.1-3.3-4.4-4.2c8.3-4.9,15.6-13.5,19.4-24.5h-17.9
					V802h20.3l1-0.2L496.3,803.4z M536.5,796.5c-5.9,5.5-13.5,11.9-19.7,16.3c5.6,8.3,13,14.6,22.3,18.2c-1.2,1.1-3,3.3-3.8,4.9
					c-12.6-5.5-21.6-15.6-27.6-28.9v26.6c0,3.4-0.8,5.1-3.2,6c-2.4,0.9-6.4,1-12.6,1c-0.2-1.5-1.1-4-2-5.6c4.6,0.2,9,0.2,10.2,0.2
					c1.4-0.1,1.8-0.5,1.8-1.7v-40.6h-20.7v-5.4h26.5v5.6c1.7,5.6,3.8,10.8,6.5,15.6c5.9-4.5,13-10.9,17.3-15.8L536.5,796.5z
					 M515.4,787.1c-6.1-3.5-18.2-8-27.5-10.3l2.7-4.6c9.2,2.2,21.3,6.2,27.6,9.7L515.4,787.1z"/>
				<path class="st0" d="M560.4,823.2c3.3-1.1,6.8-2,10.2-3l0.7,5c-8.6,2.6-17.9,5.4-24.8,7.4l-1.1-5.3c2.7-0.8,6.1-1.7,9.8-2.7
					v-20.7h-8.9v-5.2h8.9v-16.3h-9.5v-5.3H570v5.3h-9.5v16.3h7.9v5.2h-7.9V823.2z M595.1,773.6c-0.5,1-1,1.9-1.4,2.8
					c5.2,7.3,14,14.6,21.6,18.3c-1.4,1.1-3.1,3.1-4,4.5c-6.9-3.9-14.8-11-20.4-18.3c-5.1,7.6-12.1,14.1-20.4,18.9
					c-0.8-1.1-2.6-3-3.8-3.9c10.4-5.6,18.8-14.6,23.1-23.9L595.1,773.6z M611.4,816.2c-6.8,12.2-19.8,20.1-36.4,24.5
					c-0.8-1.5-2.1-3.5-3.3-4.8c15.8-3.5,28.5-10.7,34.8-21.8L611.4,816.2z M596.1,795c-4.7,5.9-12.3,11.5-19.1,14.9
					c-0.8-1.1-2.3-2.8-3.6-3.8c6.5-2.9,14.1-8,18.2-13L596.1,795z M603.2,805.5c-5.6,8.1-15.2,15.2-25,19.6c-0.8-1.3-2.3-3-3.5-4.1
					c9.3-3.7,18.9-10.3,24-17.6L603.2,805.5z"/>
				<path class="st0" d="M684.7,800.5c-1.8,9.1-4.7,17.1-8.3,24c2,7.6,4.4,11.3,6.6,11.3c1.4-0.1,2.1-2,2.5-9.3
					c1.1,0.9,2.6,2,3.9,2.4c-0.8,10-2.6,11.9-6.8,11.9c-3.8,0-7.1-3.8-9.5-10.9c-3,4.1-6.3,7.9-10.1,11c-0.9-1-3-2.6-4.2-3.5
					c2.2-1.7,4.2-3.5,6.1-5.4H643v-32.3h22.2v3.8h-7.8v5.2h7.8v14h-7.8v5.3h8.4v2.9c2-2.3,3.8-4.8,5.4-7.6
					c-1.6-7.3-2.8-16.9-3.5-28.5h-28.6v15.8c0,9.2-0.8,21.7-5.4,30.1c-0.8-0.8-3.1-2-4.2-2.5c3.1-5.6,4.2-12.8,4.6-19.5h-5.3v3.5
					c0,5.3-0.8,13.1-5.5,18.4c-0.8-0.8-2.4-1.9-3.4-2.4c4-4.8,4.7-11.6,4.7-16.1v-3.3h-4.1v-4.7h13.8c0-1.1,0-2.3,0-3.4V808h-10.5
					v-17.4h4.4v12.8h6.2v-13.2h33.2l-0.1-3.1h-1.9v-5h-9.5v-4.8h9.5v-5.3h5.5v5.3h16.7v4.8h-16.7v3.2h1.4c0,1.7,0.1,3.3,0.1,4.9h8.6
					c-1.7-1.6-4-3.5-6.2-4.7l3.4-2.6c2.6,1.4,5.9,3.8,7.4,5.7l-2,1.6h4.9v4.8h-15.8c0.4,8.6,1.1,15.6,2.1,21.5
					c2.1-5.1,3.8-10.7,4.9-16.7L684.7,800.5z M637.8,782.1H622v-4.8h15.8v-5.3h5.5v5.3h9.2v4.8h-9.2v5.3h-5.5V782.1z M647.2,803.5
					v5.2h6.2v-5.2H647.2z M661.1,812.5h-13.9v6.6h13.9V812.5z M647.2,828.1h6.2v-5.3h-6.2V828.1z"/>
			</g>
		</g>
	</g>
	<g>
		<rect x="373.6" y="783.9" class="st4" width="1.2" height="44"/>
	</g>
	<g>
		<rect x="59.5" y="751.1" class="st0" width="635" height="0.8"/>
	</g>
	<g>
		
			<image style="overflow:visible;opacity:0.8;" width="271" height="81" xlink:href="4FE4E202.png"  transform="matrix(1 0 0 1 440.4998 669.9998)">
		</image>
		<g>
			<g>
				<path class="st0" d="M464.2,720.1h6.1v3.3h-17v-37.7h17v3.3h-6.1v7.3h5.3v14.7h-5.3V720.1z M456.4,688.9v7.3h4.6v-7.3H456.4z
					 M466.3,699.5h-9.9v8.2h9.9V699.5z M456.4,720.1h4.6v-9.1h-4.6V720.1z M474.8,691c-1.2,1.9-2.4,3.6-3.7,5
					c-0.5-0.5-1.8-1.7-2.5-2.3c2.7-2.6,5.2-6.7,6.6-10.9l3.3,0.9c-0.5,1.3-1.1,2.8-1.8,4.1h17.7v3.2H474.8z M471.3,708.8h10.4v17
					H479v-2.1h-5v2.7h-2.7V708.8z M474,711.7v9h5v-9H474z M474.6,705.8v-11.5h17.3v11.5H474.6z M477.6,703h11.1v-5.8h-11.1V703z
					 M494.9,708.8V726h-2.8v-2.3h-5.3v2.8H484v-17.8H494.9z M492.1,720.8v-9h-5.3v9H492.1z"/>
				<path class="st0" d="M539.9,688.6c-1.5,5-4,9.2-7,12.7c3,2.9,6.6,5.4,10.9,7c-0.7,0.7-1.7,2.1-2.2,2.9c-0.5-0.2-1-0.4-1.5-0.7
					v15.7h-3.4v-1.6h-12v1.7h-3.3v-15.9c-1,0.5-1.9,0.9-2.9,1.3c-0.3-0.7-1.1-1.7-1.7-2.4h-5v8.6c2.1-0.5,4.2-1,6.3-1.5l0.3,3.2
					c-6.5,1.6-13.3,3.2-18.3,4.5l-0.7-3.4l2.4-0.5V704h3v15.7l3.7-0.9v-19.3h-6.7v-14.6h15.5v12.7c3.8-3.6,6.9-8.9,8.7-14.7l3.4,0.8
					c-0.5,1.4-1,2.8-1.5,4.1h9.2l0.6-0.1L539.9,688.6z M505,696.4h9V688h-9V696.4z M517.8,708.7c3.8-1.6,7.6-4.2,10.8-7.5
					c-1.8-2.2-3.2-4.4-4.4-6.6c-1.3,2.1-2.8,3.9-4.4,5.5c-0.5-0.5-1.6-1.5-2.5-2.1v1.4h-5.5v6.9h5.9V708.7z M537.9,709.3
					c-2.7-1.6-5-3.6-7.1-5.6c-2.2,2.2-4.6,4.1-7.2,5.6H537.9z M536.7,721.6v-9.2h-12v9.2H536.7z M526.4,690.9l-0.5,0.9
					c1.2,2.3,2.8,4.8,4.7,7.2c2-2.4,3.7-5.1,4.9-8.1H526.4z"/>
				<path class="st0" d="M551.6,694.2c-0.8,1.1-1.6,2.1-2.4,2.9c-0.4-0.6-1.3-1.9-2-2.4c3-2.9,5.6-7.3,7.1-11.8l2.9,0.8
					c-0.6,1.5-1.2,3.2-2,4.6h5.6c-0.5-1.4-1.3-3.1-2.1-4.4l2.9-0.8c1,1.6,2.1,3.7,2.5,5.2h4.6v2.5H563v2.8h4.7v1.1
					c2.9-3,5.4-7.4,6.9-11.7l2.9,0.8c-0.6,1.5-1.3,3.2-2,4.6h5.5c-0.5-1.3-1.3-3-2-4.2l2.9-0.9c0.9,1.6,2,3.6,2.5,5.1h5.4v2.4h-6.6
					v2.8h5.6v2.4h-5.6v2.8h5.6v2.4h-5.6v2.8h7.3v2.5H572v-12.2c-0.9,1.2-1.7,2.3-2.6,3.2c-0.3-0.4-1.1-1.3-1.7-2v0.5H563v2.8h4.7
					v2.3H563v2.8h6.3v2.5h-17.7V694.2z M585.5,710.5c-2.5,3.9-6.4,6.9-10.9,9.3c4.8,1.4,10.2,2.4,15.9,2.9c-0.8,0.9-1.7,2.4-2.2,3.4
					c-6.7-0.8-12.9-2.2-18.3-4.3c-6.4,2.5-13.7,3.9-20.8,4.7c-0.3-1-0.9-2.4-1.5-3.3c6.1-0.5,12.4-1.6,18-3.4
					c-3.9-2-7.2-4.5-9.8-7.5l0.7-0.3h-6.3v-3h32.1l0.7-0.2L585.5,710.5z M560,690.8h-5.4v2.8h5.4V690.8z M560,695.9h-5.4v2.8h5.4
					V695.9z M560,701.1h-5.4v2.8h5.4V701.1z M560.3,712.2c2.5,2.5,6,4.5,10,6.1c3.8-1.6,7-3.6,9.4-6.1H560.3z M580.2,690.8h-5.1v2.8
					h5.1V690.8z M580.2,696h-5.1v2.8h5.1V696z M580.2,701.1h-5.1v2.8h5.1V701.1z"/>
				<path class="st0" d="M638.6,719.6h-19.8v7.1h-3.6v-7.1h-19.3v-3.2h19.3v-3.9h-14.4V694h14.4v-3.5h-17.9v-3.3h17.9v-4.3h3.6v4.3
					h18.1v3.3h-18.1v3.5h14.7v18.5h-14.7v3.9h19.8V719.6z M604.2,701.8h11v-4.9h-11V701.8z M615.2,709.6v-4.9h-11v4.9H615.2z
					 M618.8,696.9v4.9H630v-4.9H618.8z M630,704.6h-11.2v4.9H630V704.6z"/>
				<path class="st0" d="M666.7,722.2h20.1v3h-43.5v-3h19.9V718h-14.6v-3h14.6V712h3.5v3.1h15.7v3h-15.7V722.2z M643.7,709.2
					c2.7-0.1,6-0.4,9.7-0.7v-3.7h-7.9v-2.7h7.9v-2.8h-8.1v-14.5h19.3v14.5h-8.2v2.8h8v2.7h-8v3.5l9.1-0.7v2.6
					c-7.8,0.7-15.9,1.4-21.5,1.9L643.7,709.2z M648.1,690.8h5.3v-3.6h-5.3V690.8z M653.4,696.8v-3.6h-5.3v3.6H653.4z M661.7,687.2
					h-5.3v3.6h5.3V687.2z M661.7,693.2h-5.3v3.6h5.3V693.2z M673.9,699h-8.1v-3h10.8c-2-1.6-5-3.6-7.5-5l2-1.9
					c1.3,0.7,2.7,1.5,4.1,2.3c1.5-1.1,3.2-2.4,4.5-3.8h-12.8v-2.8h15.6l0.8-0.2l2.2,1.6c-2.1,2.5-4.9,5-7.7,6.8
					c1,0.7,1.8,1.3,2.5,1.9l-1,1h4.8l0.5-0.1l2.3,0.5c-1,2.9-2.2,6.1-3.5,8.1l-2.8-0.6c0.7-1.3,1.5-3.1,2.2-4.9h-5.4v9.9
					c0,1.7-0.3,2.6-1.7,3.1c-1.3,0.5-3.3,0.5-6.4,0.5c-0.2-0.9-0.7-2.1-1.1-3c2.3,0,4.4,0,4.9,0c0.7,0,0.8-0.2,0.8-0.7V699z"/>
			</g>
		</g>
	</g>
	<g>
		
			<image style="overflow:visible;opacity:0.8;" width="167" height="81" xlink:href="4FE4E205.png"  transform="matrix(1 0 0 1 50.4998 669.9998)">
		</image>
		<g>
			<g>
				<g>
					<path class="st0" d="M115.4,698.5v3H135v2.5h-19.7v3.1H135v2.5h-19.7v3.2h28.9v3h-25.1c-2.1,2.2-4.5,4.2-6.7,5.9l20.6-0.9
						c-1.1-1.2-2.3-2.3-3.3-3.3l2.9-1.5c3,2.6,6.8,6.4,8.8,8.7l-3.1,1.8c-0.7-0.9-1.6-2-2.7-3.1c-24.2,1.3-26.6,1.4-28.1,2
						c-0.2-0.8-0.7-2.4-1.1-3.3c0.9-0.1,1.8-0.7,2.9-1.5c0.9-0.6,3.2-2.4,5.3-4.7h-12v-3h9.3v-14.5c-2.4,1.7-5.1,3.3-8.2,4.7
						c-0.4-0.8-1.5-2-2.3-2.6c6-2.6,10.7-6,14.1-9.8h-12.6v-3.1h15.1c1.1-1.6,2.1-3.3,2.8-4.8l3.7,0.7c-0.7,1.3-1.4,2.8-2.3,4.1h22
						v3.1h-12.7c3.8,3.7,9.3,7.4,14.1,9.2c-0.8,0.7-1.8,1.9-2.3,2.8c-2.7-1.2-5.6-3-8.3-5.1v0.9H115.4z M119.8,690.7
						c-1.3,1.7-3,3.4-4.7,5h17.3c-1.8-1.6-3.5-3.3-4.9-5H119.8z"/>
					<path class="st0" d="M171.6,709.7c-0.2,1.3-0.4,2.5-0.7,3.7h16.7c0,0,0,1-0.1,1.4c-0.7,6.7-1.4,9.5-2.6,10.7
						c-0.8,0.8-1.8,1.1-3.2,1.1c-1.2,0.1-3.6,0-6-0.1c-0.1-0.9-0.4-2.2-1-3c2.4,0.2,4.7,0.2,5.6,0.2c0.9,0,1.3,0,1.8-0.4
						c0.7-0.7,1.2-2.7,1.8-7.1H170c-1.9,4.8-5.5,8.3-12.7,10.5c-0.3-0.9-1.2-2.1-2-2.8c9.3-2.5,11.7-7.4,12.7-14.3h-10.4
						c-0.6,6-2.2,12.4-5.8,17.2c-0.5-0.7-1.9-2-2.6-2.4c4.9-6.7,5.4-16,5.4-23.1v-14.9h0c10.7-0.6,23.5-1.9,30.5-3.5l2.8,2.7
						c-7.8,1.7-19.4,2.9-29.8,3.5v2.5h31.1v10.5h-31.1c0,1.4,0,3-0.1,4.5h15.2c-0.6-1.1-1.3-2.5-2.1-3.5l3.4-0.9
						c1,1.3,2.1,3,2.7,4.4h15.5v2.9H171.6z M158.1,694.5v4.8h27.6v-4.8H158.1z"/>
				</g>
				<g>
					<path class="st0" d="M87.5,682.6h0.9v30h5.2v4.1h-5.2v10h-4.3v-10H63.5L87.5,682.6z M84.1,712.6v-18.1l-12.7,18.1H84.1z"/>
				</g>
			</g>
		</g>
	</g>
	<g>
		
			<image style="overflow:visible;opacity:0.8;" width="234" height="82" xlink:href="4FE4E206.png"  transform="matrix(1 0 0 1 212.4998 668.9998)">
		</image>
		<g>
			<g>
				<g>
					<path class="st0" d="M227.3,682.8h8.5v43h-4.3V687h-6.8L227.3,682.8z"/>
					<path class="st0" d="M260.4,726.9l-3.5-2.3l11.6-17.6c-1.6,0.5-3,0.8-4.4,0.8c-3.4,0-6.3-1.2-8.7-3.7c-2.4-2.5-3.6-5.5-3.6-9.1
						c0-2.5,0.6-4.7,1.7-6.7c1.2-2,2.8-3.6,4.9-4.8c2.1-1.2,4.4-1.8,6.8-1.8c2.4,0,4.6,0.6,6.6,1.7c2,1.2,3.6,2.8,4.8,4.8
						c1.2,2.1,1.7,4.3,1.7,6.6c0,1.8-0.4,3.6-1.1,5.6c-0.7,1.9-2,4.3-3.8,7L260.4,726.9z M265.1,704c2.5,0,4.7-0.9,6.4-2.6
						c1.8-1.8,2.6-3.9,2.6-6.4s-0.9-4.6-2.6-6.4c-1.8-1.8-3.9-2.6-6.4-2.6c-2.5,0-4.6,0.9-6.4,2.6c-1.8,1.8-2.6,3.9-2.6,6.4
						s0.9,4.6,2.7,6.4C260.4,703.1,262.6,704,265.1,704z"/>
					<path class="st0" d="M304.5,702.2c2.9,1.4,5,3.1,6.2,4.9c1.3,1.9,1.9,4,1.9,6.3c0,3.3-1.1,6.2-3.2,8.8
						c-2.7,3.1-6.4,4.7-11.4,4.7c-4.8,0-8.4-1.4-10.8-4.1c-2.5-2.7-3.7-5.7-3.7-9c0-2.4,0.6-4.6,1.9-6.5c1.3-1.9,3.4-3.6,6.4-5.1
						c-2.1-1.1-3.7-2.4-4.7-4.1c-1.1-1.6-1.6-3.4-1.6-5.2c0-1.9,0.6-3.7,1.7-5.5c1.1-1.8,2.7-3.2,4.7-4.2c2-1,4.1-1.5,6.4-1.5
						c2.2,0,4.3,0.5,6.2,1.6c1.9,1,3.4,2.4,4.5,4.2c1.1,1.8,1.6,3.6,1.6,5.6c0,1.9-0.5,3.7-1.5,5.2
						C308.1,699.8,306.5,701.1,304.5,702.2z M298.3,704.4c-3,0-5.4,1-7.4,2.9c-2,1.9-3,4.2-3,6.7c0,1.6,0.4,3.1,1.3,4.5
						c0.9,1.4,2.1,2.5,3.6,3.2c1.5,0.8,3.3,1.1,5.3,1.1c3.1,0,5.6-0.9,7.5-2.8c1.9-1.9,2.8-4,2.8-6.5c0-2.4-1-4.5-2.9-6.4
						C303.4,705.3,301,704.4,298.3,704.4z M298.1,685.9c-2.4,0-4.3,0.7-5.9,2.1c-1.6,1.4-2.3,3.1-2.3,5c0,1.9,0.8,3.6,2.5,5.2
						c1.7,1.6,3.6,2.3,5.8,2.3c1.4,0,2.8-0.4,4-1.1c1.3-0.7,2.3-1.7,3-2.9c0.7-1.2,1.1-2.4,1.1-3.7c0-1.7-0.7-3.3-2.1-4.8
						C302.8,686.6,300.7,685.9,298.1,685.9z"/>
					<path class="st0" d="M337.1,702.2c2.9,1.4,5,3.1,6.2,4.9c1.3,1.9,1.9,4,1.9,6.3c0,3.3-1.1,6.2-3.2,8.8
						c-2.7,3.1-6.4,4.7-11.4,4.7c-4.8,0-8.4-1.4-10.8-4.1c-2.5-2.7-3.7-5.7-3.7-9c0-2.4,0.6-4.6,1.9-6.5c1.3-1.9,3.4-3.6,6.4-5.1
						c-2.1-1.1-3.7-2.4-4.7-4.1c-1.1-1.6-1.6-3.4-1.6-5.2c0-1.9,0.6-3.7,1.7-5.5c1.1-1.8,2.7-3.2,4.7-4.2c2-1,4.1-1.5,6.4-1.5
						c2.2,0,4.3,0.5,6.2,1.6c1.9,1,3.4,2.4,4.5,4.2c1.1,1.8,1.6,3.6,1.6,5.6c0,1.9-0.5,3.7-1.5,5.2
						C340.7,699.8,339.1,701.1,337.1,702.2z M330.9,704.4c-3,0-5.4,1-7.4,2.9c-2,1.9-3,4.2-3,6.7c0,1.6,0.4,3.1,1.3,4.5
						c0.9,1.4,2.1,2.5,3.6,3.2c1.5,0.8,3.3,1.1,5.3,1.1c3.1,0,5.6-0.9,7.5-2.8c1.9-1.9,2.8-4,2.8-6.5c0-2.4-1-4.5-2.9-6.4
						C336,705.3,333.6,704.4,330.9,704.4z M330.7,685.9c-2.4,0-4.3,0.7-5.9,2.1c-1.6,1.4-2.3,3.1-2.3,5c0,1.9,0.8,3.6,2.5,5.2
						c1.7,1.6,3.6,2.3,5.8,2.3c1.4,0,2.8-0.4,4-1.1c1.3-0.7,2.3-1.7,3-2.9c0.7-1.2,1.1-2.4,1.1-3.7c0-1.7-0.7-3.3-2.1-4.8
						C335.4,686.6,333.3,685.9,330.7,685.9z"/>
				</g>
				<g>
					<g>
						<path class="st0" d="M363.7,688.8H353v-3h10.7v-3h3.5v3h5.8v3h-5.8v3h-3.5V688.8z M392.8,723c0,1.7-0.3,2.5-1.5,3.1
							c-1.2,0.5-3.2,0.5-6.2,0.5c-0.2-0.9-0.6-2.1-1.1-2.9c2.3,0,4.1,0,4.6,0c0.6,0,0.8-0.2,0.8-0.7v-10.1h-13.8v5l6-0.2
							c-0.7-1.1-1.4-2.2-2.1-3.1l2.6-0.9c2.1,2.6,4.3,6.1,4.9,8.5l-2.8,1c-0.2-0.9-0.6-1.8-1.1-2.8c-7.7,0.5-15.6,0.9-21,1.2
							l-0.3-3.1c2.8-0.1,6.4-0.2,10.3-0.4v-5.2h-13.4v13.7h-3.4v-13.7h-1.9v-3h1.9v-1.7h3.4v1.7h13.4V707h-13.7v-14.5h31.2V707h-14
							v2.9h17.3V723z M361.8,698.5h10.3v-3.4h-10.3V698.5z M372.1,704.4V701h-10.3v3.4H372.1z M394.7,685.8v3h-10.9v3h-3.5v-3h-5.6
							v-3h5.6v-3h3.5v3H394.7z M386.1,695.1h-10.5v3.4h10.5V695.1z M386.1,701h-10.5v3.4h10.5V701z"/>
					</g>
				</g>
				<g>
					<g>
						<path class="st0" d="M407,721.8c1.4,0.5,3.1,0.7,5.3,0.7c1.1,0,8.2,0,9.6,0c-0.3,0.4-0.6,1.2-0.7,1.7h-8.8
							c-4.9,0-7.7-0.8-9.4-3.9c-0.3,1.9-0.7,3.4-1.4,4.7c-0.3-0.2-1-0.6-1.4-0.8c1.3-2.3,1.6-6,1.7-10.1l1.6,0.1
							c0,1.1-0.1,2.2-0.1,3.2c0.5,1.6,1.2,2.8,2.1,3.6v-8.7h-4.8v-1.6h4.3v-2.9h-3.8v-1.5h3.8v-2.6h1.6v2.6h3.3v1.5h-3.3v2.9h3.9
							v1.6H407v3.4h3.3v1.5H407V721.8z M414.6,720.9c-2.2,0-2.9-0.6-2.9-2.8v-13.5h8.6v8.4h-7v5.2c0,1,0.2,1.2,1.4,1.2h4.1
							c1,0,1.2-0.6,1.3-3.2c0.4,0.3,1.1,0.6,1.6,0.7c-0.3,3.2-0.7,4.1-2.8,4.1H414.6z M413.4,706.1v5.3h5.3v-5.3H413.4z"/>
					</g>
				</g>
			</g>
		</g>
	</g>
	<g>
		<rect x="209.3" y="682.8" class="st4" width="1.2" height="43.8"/>
	</g>
	<g>
		<rect x="436.1" y="682.8" class="st4" width="1.2" height="43.8"/>
	</g>
</g>
<g>
	<g>
		
			<image style="overflow:visible;opacity:0.6;" width="564" height="238" xlink:href="4FE4E204.png"  transform="matrix(1 0 0 1 149.6348 367.1348)">
		</image>
		<g>
			<g>
				<path class="st0" d="M589.2,523.4c4-2.7,4-6.3,2.9-10.1c-0.3-0.9-1.2-1.7-2-2.2c-2.1-1.2-4.2-2.3-6.4-3.3
					c-2.4-1.1-4.8-2.1-7.3-3.1c-1.1-0.4-1.9-0.4-2.2,1.2c-0.3,1.3-1,2.7-1.9,3.7c-1.6,1.9-3.5,3.5-5.2,5.2c-1.7,1.7-4.5,1.6-6,3.8
					c-0.5,0.8-1.9,1-2.8,1.5c-1.7,1-3.1,0.4-3.2-1.6c-0.2-3-0.3-6-0.3-9c0-5.2,1.5-10.1,3.3-15c0.5-1.4,1-2.9,1.1-4.4
					c0.4-4,0.7-8.1,1.1-12.1c0.3-3.2,1-3.6,4.1-4.1c3-0.5,5.9-1.1,8.8-1.9c2-0.6,2.6-2.3,2.4-4.3c-0.3-2.4-0.7-4.8-2.9-6.3
					c-0.1-0.1-0.4,0-0.5-0.1c-3.2-1.1-6.3-2.3-9.5-3.4c-0.9-0.3-1.2-1-1.2-2c0.2-3.8,0.4-7.6,0.3-11.4c-0.2-7.5-0.9-15-3.3-22.2
					c-0.8-2.6-1.6-5.3-4.1-6.8c-1.1-0.7-2.5-0.8-3.6-1.4c-3.1-1.6-6.2-3.3-9.2-5c-1.8-1-3.6-2-5.7-3.1c-0.3,1.1-0.7,1.8-0.7,2.6
					c0.3,2.6,0.5,5.3,1.3,7.8c1,3.6,3.6,6.2,6.1,8.9c3,3.2,4.9,6.9,4.9,11.4c0,3.1,0.3,6.2,0.3,9.2c0.1,5.5,0.1,11,0,16.5
					c0,3.1-0.4,3.3-3.4,4c-1,0.2-1.8,1.1-2.7,1.7c0.1,0.2,0.1,0.3,0.2,0.5c-0.8-0.2-1.7-0.6-2.5-0.6c-1.1,0.1-2.5,0.2-3.1,0.8
					c-1.1,1.1-2.1,1.3-3.4,1c-2.4-0.6-4.9-1.2-7.4-1.6c-3.3-0.6-6.7-1-10-1.4c-2.7-0.3-5.5-0.8-8.2-0.7c-1.2,0-2.1,0.4-3.2-0.6
					c-1.1-1-2.9-0.1-3.2,1.5c-0.1,0.7-0.2,1.5,0,2.2c1,5.3,3.2,10,7.1,13.6c1,0.9,2.7,1.6,4.1,1.6c2.7-0.1,5.6-0.3,8.2-1.1
					c4.9-1.6,9.5-3.7,14.3-5.3c3.3-1.1,6.7-1.8,10.1-2.6c1.4-0.3,2.2,0.3,2,2c-0.2,1.3-0.4,2.7-0.4,4c-0.1,4.2-0.1,8.4-0.4,12.5
					c-0.3,4.2-1,8.3-4,11.6c-1,1.1-1.8,2.6-2,4.1c-0.3,2.2-1.6,3.3-3.5,3.7c-3.8,0.9-7.7,1.7-11.5,2.5c-1.8,0.4-3.2,1.2-4.1,2.8
					c-1.4,2.4-2.8,4.8-4.4,7c-2.4,3.2-2.3,6.5-1.1,9.9c2.1,6.2,7.3,10.4,12.9,10.6c2.7,0.1,4.9-1.3,6.9-2.7
					c7.1-5,14.1-10.1,21.2-15.1c3.4-2.4,7-4.6,10.5-6.8c0.9-0.5,2.2-0.5,3.6-0.7c-2.1,3.6-3.9,6.7-5.6,9.7c-0.3,0.5-1,0.8-1.5,1.3
					c-0.5,0.5-0.8,1.3-1.2,1.9c-0.7-0.3-1.3-0.6-1.9-0.9c-0.4,0.7-0.8,1.3-1.2,2c-0.9,1.8-0.5,4.4,0.8,5.6c1.2,1.1,2.9,1.1,4.9-0.4
					c2.2-1.7,4.3-3.5,6.3-5.5c2.7-2.8,5.8-4.8,9.4-6.3C583.3,527,586.3,525.3,589.2,523.4z"/>
				<path class="st0" d="M496.3,541.7c-1.2,0.1-2.6-0.6-3.8-1.2c-2.2-1.2-4.3-2.8-6.5-4c-1.6-0.9-3.4-1.8-5.2-2
					c-3.7-0.5-7.5-0.8-11.3-0.8c-5.9,0.1-11.8-0.7-17.6,1.4c-0.9,0.3-2.1,0.2-3.1,0.1c-4.6-0.2-9.1-0.3-13.7-0.7
					c-14.2-1.1-27.7-4.7-40.5-10.8c-6.1-2.9-12.2-6.1-18.2-9.1c-0.3-0.2-0.6-0.4-0.9-0.6c-1-0.5-1.2-1.3-0.8-2.3
					c0.7-1.7,1.4-3.5,2.3-5.2c4.9-9.4,11-18.1,17.3-26.6c3.9-5.2,8.3-10.2,12.5-15.2c1.2-1.4,2.6-1.5,4.1-0.7
					c3.6,1.9,7,1.1,10.3-0.6c2.4-1.2,3.4-3,2.7-5.6c-0.5-1.8-1.3-3.7-2.6-5.1c-1.5-1.6-3.4-3-5.3-4c-4.3-2.2-8.8-4.2-13.2-6.1
					c-0.7-0.3-1.8-0.1-2.5,0.3c-4.5,2.6-8.9,5.2-13.3,8c-1.4,0.9-2.6,2-3.6,3.3c-2.5,3.1-4.8,6.3-7.2,9.4
					c-7.6,10.1-15,20.4-20.9,31.7c-3.5,6.7-6.8,13.5-7.5,21.2c-0.1,0.9-0.1,1.8-0.3,2.7c-0.6,2.2-1.3,4.4-2,6.6
					c-0.6,1.9-1,3.9-2,5.6c-0.9,1.6-2.4,2.9-3.5,4.4c-0.6,0.9-1.2,2.1-1.2,3.1c0.4,7.1,3,13,9.7,16.4c6.1,3.1,11.8-0.4,12.2-7.1
					c0.1-2.4,0-4.9,0.9-7c1.7-3.9,4.7-7,8.9-8.5c5.4-2,10.9-1.6,16,0.9c6.4,3.1,12.6,6.8,19,10.1c2.7,1.4,5.6,2.9,8.5,3.5
					c5.8,1.3,11.7,2,17.6,2.9c8,1.2,15.9,2.1,24,1.5c3.6-0.3,7.2,0,10.8,0c0,0.3,0.1,0.5,0.1,0.8c-7.8,2.5-15.5,5-23.4,7.6
					c1,3.6,2,4,5.1,2.8c2.7-1,5.4-2,8.2-2.5c9.9-1.8,19.8-3.4,29.7-5.2c4.5-0.8,9.2-1.4,13.3-3.6c0.6-0.3,1.5-0.8,1.7-1.3
					C502.2,546.5,499.9,541.5,496.3,541.7z"/>
				<path class="st0" d="M171.8,548.4c0.5,0.4,1.3,0.7,2,0.9c3,0.9,5.6-0.3,8.2-1.6c7.4-3.7,14.7-7.7,22.1-11.2
					c4.9-2.4,10-4.5,15.1-6.2c4-1.3,6.5,0.2,7.6,4.3c0.9,3.3,1.2,6.7,1.8,10c0.7,3.8,1.1,7.7,2.3,11.4c1.8,5.3,5.6,7.7,11.1,7.3
					c6.7-0.5,7.5-3.2,6.3-8c-0.6-2.6-1.9-5-3-7.4c-1.5-3.1-3.4-6-4.7-9.2c-1.9-4.6-0.8-8.3,3-11.4c1.5-1.3,3.3-2.4,5-3.3
					c7.6-4.1,15.8-6.3,24.2-7.7c4.1-0.7,8.2-1,12.3-1.4c0.5,0,1.1,0.6,1.6,1c-0.4,0.5-0.8,1-1.3,1.4c-0.6,0.6-1.7,1.1-1.9,1.8
					c-1.1,3.1-3.2,5-6,6.2c-1.2,0.5-1.2,1.1-0.8,2.1c0.4,0.9,0.6,1.9,1.1,3.3c-0.7-0.3-0.9-0.4-1.1-0.5c-1.6-0.8-3.2-1.9-5-1
					c-1.6,0.7-3.5,1.4-4.6,2.7c-0.8,0.9-1.4,1.2-2.4,1.3c-3.3,0.2-6.5,0.5-9.8,0.8c-1.6,0.1-2.1,1.2-2.2,2.6c-0.1,0.8,0,1.6,0.2,2.4
					c0.8,3.7,2.5,6.9,5,9.6c2.9,3.1,6.1,5.1,10.7,4c2.3-0.5,4.8-0.6,7.2-0.8c3.2-0.2,6.5-0.2,9.7-0.4c4.1-0.3,7.9-1.3,11.5-3.3
					c3.5-2,4.3-7.7,0.4-9.8c-1.7-0.9-3.4-1.8-5.2-2.6c-2.7-1.2-5.5-2.2-8.6-3.4c1.1-0.9,1.9-1.6,2.8-2.1c5.6-2.8,11.2-5.5,16.8-8.4
					c3.7-1.9,7.4-3.9,11-6.1c1.1-0.7,2.1-2,2.4-3.3c0.7-3.2-1.6-7.3-4.7-8.6c-1.7-0.7-3.4-1.3-5.2-1.8c-3.2-1-6.4-1.9-8.9-4.4
					c-0.9-0.9-1.7-0.4-2.6,0.3c-0.9,0.7-2,1.1-3.1,1.6c-1.1,0.5-2.2,0.8-3.2,1.3c-1.3-0.1-2.6,0-3.9,0.2c-0.4,0.1-0.7,0.7-1.1,0.9
					c-3.7,1.2-7.5,2.4-11.3,3.6c-0.1,0.5-0.1,1.2-0.2,2.2c-1-0.2-1.8-0.3-2.6-0.5c-4.2-0.7-5.3-0.1-6.6,3.8c-2-1.9-4.5-1.7-6.9-1.2
					c-1.7,0.4-3.3,1-4.9,1.5c-2.9,1-5.8,1.7-9.6,1c1.1-1.6,1.8-2.9,2.7-4c2.2-2.6,4.8-4.8,6.5-7.6c1.9-3.2,4.4-5.7,6.9-8.4
					c4.3-4.6,8.3-9.4,12-14.5c4.2-5.7,7.8-11.7,11.8-17.6c2.3-3.4,4.9-6.7,7.1-10.2c1.2-1.9,1.5-4.3,2.7-6.1c2.4-3.6,5-7.1,7.7-10.4
					c2-2.5,0.8-8-2.2-9.3c-4-1.8-8-3.6-12-5.4c-6.4-2.9-6.1-4-12.2,2c-1.4,1.3-3,2.5-4.8,3.3c-2.9,1.2-6,2-9,3
					c-2.1,0.7-4.2,0.8-6.5-0.2c1-1.4,1.8-2.7,2.8-3.9c4.6-5.8,9.3-11.6,15.7-15.6c0.5-0.3,0.9-1.2,0.9-1.8c-0.1-3.2-0.4-6.3-2-9.2
					c-1.4-2.4-3.3-4.2-6-5c-1.7-0.5-3.4-0.8-5-1.5c-2.6-1.2-5-2.8-7.6-3.9c-1.7-0.7-3.5-0.7-4.6-2.8c-0.5,0.9-1,1.6-1,2.4
					c-0.1,3.3,0.9,6.2,2.5,9c1.6,2.7,2.9,5.5,4.4,8.3c-0.1,0.1-0.3,0.2-0.4,0.3c-0.5-0.2-1-0.4-1.6-0.7c-0.2,0.3-0.4,0.6-0.5,0.8
					c-1.4,4.8-4.9,8.2-8.4,11.5c-4.8,4.6-10,8.7-16.5,10.8c-2.2,0.7-2.6,1.3-2.2,3.6c0.6,4.7,2.6,8.8,5.6,12.3
					c1.3,1.5,3.3,2.7,5.3,3.3c1.6,0.5,3.6,0.3,5.2-0.2c4.1-1.2,8-2.8,12-4.3c4.5-1.8,8.9-3.8,13.5-5.4c2.7-0.9,5.6-1,8.6,0
					c-0.5,0.9-0.8,1.6-1.2,2.2c-7.3,10-14.6,19.9-22.1,29.8c-2.4,3.2-5.3,6-8.1,8.9c-0.4,0.4-1.6,0.6-2.2,0.4
					c-1.7-0.6-3.3-1.3-4.9-2.2c-3-1.7-5.9-3.4-8.7-5.3c-2.3-1.5-4.2-3.4-7-4c-3.7-0.8-7.1-2.4-10.2-4.7c-1-0.7-2-1.4-3.1-1.9
					c-2-0.9-2.8-0.2-2.7,2c0.2,8,4,13.5,11.3,16.6c3.4,1.5,6.9,2.8,10.4,4c3.4,1.3,6.4,3.1,9,5.6c-2.4,2.9-4.8,5.7-7.1,8.6
					c-0.6,0.5-1.5,0.8-2.2,1.4c-1.6,1.3-3.1,2.7-4.6,4.1c-6.3,6.1-12.5,12.4-19.1,18.1c-2.9,2.5-5.9,4.8-8.3,7.8
					c-0.8,1-2.2,1.7-3.5,2.2c-2,0.8-4,1.4-6.1,1.9c-5.3,1.5-10.7,2.9-16,4.3c-1.1,0.3-1.4,0.8-1.3,1.9
					C165.9,541.4,168,545.4,171.8,548.4z"/>
				<path class="st0" d="M682.1,498.5c-0.4-1.8-0.8-3.2-2.5-4.1c-5.2-2.7-10.4-5.2-15.5-8.1c-4.5-2.5-9.2-3-14.1-2.8
					c-1.7,0.1-3.3,0.3-3.8,2.4c-0.1,0.3-0.5,0.8-0.8,0.8c-3-0.1-5.7,0.9-8.4,2.8c0.1-0.6,0-1,0.1-1.2c1.2-4.5,2.6-8.9,3.4-13.4
					c1.2-6.4,4.4-11.5,9.3-15.7c5.4-4.6,10.7-9.2,17.8-11c1.5-0.4,3-1.4,4.3-2.3c2.2-1.4,3-3.8,1.9-6c-0.8-1.5-2.1-3-3.6-3.9
					c-1.7-1.1-3.8-1.6-5.7-2.3c-3.3-1.2-6.7-2.1-9-4.9c-0.8-0.9-1.7-1.1-2.5,0.2c-0.8,1.3-1.7,2.6-2.6,3.8c-0.7,0.9-1.4,1.8-2.2,2.3
					c-4,2.7-8.6,3.9-13.4,4.5c-1.2,0.1-2.6-0.4-3.6-1c-1.5-0.9-1.8-1-2.7,0.7c-0.7,1.4-1.5,2.9-2.2,4.2c-1.2-0.3-2.1-0.8-2.9-0.6
					c-2.3,0.5-4.6,1.2-6.8,1.9c-1.4,0.4-2.1-0.1-1.7-1.4c0.6-1.8,1.2-3.7,2.3-5.3c2.9-4,7.1-6.5,11.4-8.6c8.3-4,16.6-7.7,24.9-11.7
					c2.5-1.2,4.9-2.7,7.2-4.3c2.2-1.6,1.9-7-0.2-8c-3.4-1.7-6.7-3.4-10.1-5.2c-3.7-1.9-7.5-3.4-11.8-3.1c-2.7,0.2-5.3,0-8,0
					c-0.5,0-1.3,0.3-1.4,0.7c-0.3,1-0.6,2.1-0.3,3c0.8,2.3,1.7,4.5,2.9,6.6c1.1,1.9,2.7,3.6,4.1,5.3c-1,1.3-2.1,2.4-2.9,3.7
					c-1.1,1.6-1.6,3.8-4.1,4c-0.3,0-0.5,0.5-0.9,0.7c-2.9,1.5-3.9,5.6-7.6,6.1c-0.2,0-0.3,0.2-0.4,0.3c-1.3,2.1-3.1,3.6-5.6,4
					c-0.2,0-0.5,0.5-0.5,0.9c-0.1,1.6-1.1,1.7-2.4,1.6c-1.7-0.1-3.4-0.4-4.9,1c-0.8,0.8-1.1,2.2-2.7,2c-0.1,0-0.4,0.7-0.4,1.1
					c-0.1,0.6,0,1.3,0,2.1c-3-1-5.2-0.5-6.7,2.3c-0.4,0.7-1.6,1.1-2.5,1.3c-1.3,0.3-2.6,0.4-4,0.5c-1.3,0.1-1.8,0.6-1.7,2
					c0.3,4.2,1.7,8,4.4,11.2c2.1,2.5,4.4,4.7,7.9,5.2c3,0.4,5.6-0.6,7.9-2.1c4.6-3,9.1-6.1,13.6-9.1c1.4-0.9,2.8-1.8,4.2-2.7
					c0.1,0.1,0.3,0.2,0.4,0.3c-1.1,3.8-1.9,7.7-3.2,11.4c-3.8,10.3-7.8,20.4-11.7,30.7c-0.5,1.2-1,2.1-2.5,2.2
					c-1.4,0.1-1.8,0.9-1.9,2.1c-0.4,2.6-0.8,5.3-1.6,7.8c-3.9,11.8-9.3,23-14.6,34.2c-1.9,4.1-3.8,8.1-5.7,12.3
					c-1.1-0.6-2-1.3-3.1-1.7c-1.1-0.5-2-0.4-2.5,1c-0.8,2.3-1.9,4.5-2.9,6.7c-0.2,0.5-0.4,1.2-0.4,1.7c0.4,5.3,2.3,9.9,5.9,13.8
					c3.4,3.6,9.3,3.9,13,0.6c0.8-0.7,1.5-2.3,1.2-3.1c-1.6-4.7,1.2-7.7,3.7-10.8c2.5-3.1,5.3-5.9,7.8-8.9c1.6-1.9,3.1-4,4.1-5.3
					c2.7,2.3,5.2,4.5,7.8,6.6c9.8,8,21,11.5,33.6,10.2c3-0.3,5.4-1.7,7-4.6c2.9-5.2,5.9-10.3,9-15.5c1.3-2.2,3.1-4.2,4.3-6.5
					c1.2-2.2,2.1-4.5,2.9-6.9C680.4,517.9,684.4,508.8,682.1,498.5z M659.6,505.1c-1.2,8.4-5.8,15.3-9.9,22.3
					c-2.2,3.9-4.9,7.5-7.6,11.1c-1.6,2.1-3.1,4.4-6.3,4.4c-0.3,0-0.7,0.8-1,1.2c-1.1-0.9-2.1-1.4-3.2-0.4c-0.3,0.3-1,0.4-1.4,0.3
					c-3.7-1.2-7.4-2.3-10.9-3.8c-2.5-1.1-2.8-2.1-1.7-4.7c3.1-7.4,6.3-14.8,9.6-22.2c0.3-0.7,0.9-1.4,1.6-1.7
					c5.4-2.3,10.9-4.5,16.3-6.7c4.1-1.6,8.3-2.8,12.8-2.3C659.6,503,659.9,503.4,659.6,505.1z"/>
			</g>
		</g>
	</g>
	<g>
		
			<image style="overflow:visible;opacity:0.6;" width="134" height="299" xlink:href="4FE4E203.png"  transform="matrix(1 0 0 1 51.6348 366.1348)">
		</image>
		<g>
			<g>
				<g>
					<g>
						<g>
							<path class="st0" d="M121.1,405c1.1-0.3,2.2-0.7,3.3-1c0.4-0.1,0.8-0.2,1.1-0.3c0-0.1,0-0.1,0-0.2c-0.6,0-1.2,0-1.8,0.1
								c-0.6,0.1-1.2,0.3-1.8,0.4c-0.4,0-0.6,0.1-0.9,0.4c-0.1,0.1-0.1,0.1-0.2,0.1c-0.5,0.1-1,0.4-1.5,0.4c-0.1,0-0.1,0-0.2,0.1
								c-0.1,0.1-0.3,0.2-0.4,0.2c-0.3,0.1-0.4,0.3-0.5,0.6c0.8,0,1.4-0.7,2.2-0.5C120.6,405.1,120.9,405.1,121.1,405z"/>
							<polygon class="st0" points="120.5,405.4 120.5,405.4 120.5,405.4 							"/>
							<path class="st0" d="M129.6,401.4c0-0.1-0.1-0.1-0.2-0.1c-0.5-0.2-1-0.3-1.4-0.6c-0.1-0.1-0.3-0.1-0.4-0.1
								c-0.8-0.2-1.6,0.2-2.3,0.4c-0.9,0.2-1.8,0.5-2.6,0.8c-0.3,0.1-0.7,0.1-1,0.2c0,0,0-0.1-0.1-0.1c0.8-0.5,1.2-1.5,2.1-2
								c0.6-0.3,1.1-0.7,1.6-1.1c0.3-0.2,0.5-0.3,0.8-0.5c0.1-0.1,0.2-0.2,0.1-0.2c-0.1-0.3-0.1-0.7-0.4-0.9
								c-0.6-0.6-1.4-0.9-2.3-0.8c-0.4,0-0.9,0.1-1.3,0c-0.4-0.1-0.5,0.1-0.6,0.4c-0.1,0.5-0.4,0.9-0.8,1.2
								c-0.3,0.3-0.6,0.6-0.9,0.9c-0.1,0.2-0.1,0.4-0.2,0.6c-0.3,0.5-0.6,0.9-1,1.3c-0.5,0.5-1,1-1.4,1.6c-0.3,0.4-0.6,0.8-0.9,1.2
								c-0.1,0.1-0.3,0.1-0.4,0.2c0-0.1-0.1-0.2-0.1-0.3c0.1-0.4,0.2-0.7,0.4-1.1c0.2-0.4,0.5-0.7,0.5-1c0-0.4,0.2-0.5,0.4-0.7
								c0.2-0.3,0.5-0.5,0.9-0.4c0,0.2,0,0.3-0.1,0.4c0,0,0.1,0,0.1,0c0.2-0.3,0.7-0.3,0.9-0.9c-0.3,0.1-0.5,0.2-0.7,0.2
								c0,0-0.1,0-0.1-0.1c0.4-0.2,0.4-0.5,0.2-0.8c-0.1-0.1-0.2-0.3-0.3-0.4c-0.1-0.1-0.3-0.3-0.3-0.4c-0.2-0.5-0.4-0.9-0.1-1.4
								c0.1-0.1,0.1-0.3,0.1-0.5c0-0.4,0.2-0.8,0.4-1.2c0.2-0.2,0.3-0.6,0.3-0.9c0-0.4,0.1-0.6,0.4-0.8c0.1-0.1,0.2-0.2,0.4-0.4
								c-0.2,0-0.3,0.1-0.5,0.1c0-0.3,0.2-0.4,0.5-0.4c0.3,0,0.6,0.1,0.9-0.1c0.3-0.2,0.6-0.2,1-0.2c0.7,0,1.5,0,2.2-0.3
								c0.5-0.2,0.9-0.7,1.5-0.3c0,0,0,0,0.1,0c0,0,0-0.1,0-0.1c-0.2-1-0.3-2.1-0.5-3.1c0,0,0-0.1-0.1-0.1c-0.2-0.3-0.6-0.7-0.7-1
								c-0.2-0.5-0.5-0.8-0.9-1.2c-0.6-0.6-1.4-0.7-2.3-0.6c-0.3,0-0.6,0.1-0.9,0.2c-0.2,0-0.4,0.1-0.5,0.1c-0.3,0-0.6,0.1-0.9,0.1
								c0,0-0.1-0.1-0.1-0.1c-0.1-0.1-0.3-0.2-0.4-0.3c-0.2-0.2-0.5-0.5-0.7-0.8c-0.2-0.2-0.4-0.4-0.6-0.5c-0.2-0.2-0.5-0.3-0.6-0.5
								c-0.1-0.2-0.2-0.4-0.2-0.7c0-0.5-0.3-0.7-0.7-0.9c-0.5-0.3-1.6-0.3-2.1,0.1c-0.1,0-0.1,0.1-0.2,0.2c0,0-0.1,0.1-0.1,0.1
								c-0.4,0-0.4,0.4-0.6,0.6c0,0.1,0,0.1-0.1,0.2c-0.4,0.4-0.3,1-0.3,1.5c-0.1,0.4,0.2,0.8,0.3,1.1c0.2,0.5,0.1,1.2,0.1,1.8
								c0,0.4-0.2,0.9-0.4,1.2c-0.1,0.2-0.5,0.3-0.7,0.5c-0.3,0.2-0.7,0.4-1,0.6c-0.4,0.2-0.8,0.3-1.1,0.6c-0.4,0.4-0.8,0.5-1.2,0.8
								c-0.5,0.4-1.1,0.8-1.7,1.1c-0.5,0.3-0.9,0.7-1.5,0.9c-0.8,0.3-1.5,0.6-2,1.3c-0.4,0.5-0.7,0.9-1.4,0.9
								c-0.1,0-0.3,0.2-0.3,0.3c0,0.2,0.1,0.4,0.4,0.4c0.2,0,0.4,0,0.5,0c0.1,0,0.2,0.1,0.3,0.1c0.3,0.4,0.5,0.8,0.8,1.2
								c0,0.1,0,0.2,0,0.3c0,0.6,0.2,1.2,0.6,1.6c0.3,0.4,0.9,0.7,1.3,1c0.3,0.2,0.6,0.2,0.8,0c0.2-0.2,0.4-0.4,0.6-0.6
								c0.2-0.3,0.3-0.8,0.6-1.1c0.4-0.4,0.4-1.1,1-1.3c0,0,0.1,0,0.1-0.1c-0.1-0.4,0.3-0.4,0.4-0.6c0.3-0.2,0.6-0.5,0.9-0.7
								c0.4-0.2,0.8-0.3,1.2-0.4c0.1,0,0.2,0,0.3,0c0,0.2-0.1,0.3,0,0.4c0.2,0.4,0.3,0.8,0.2,1.3c0,0.1,0,0.2,0,0.3
								c0.2,0.4,0,0.6-0.3,0.8c-1,0.6-1.9,1.2-3.1,1.5c-0.2,0.1-0.5,0.2-0.3,0.5c0.1,0.3-0.1,1-0.4,1.2c-0.3,0.2-0.4,0.5-0.3,0.8
								c0.3,0.8,0.6,1.6,1.1,2.3c0.5,0.8,1.9,1,2.5,0.4c0.2-0.2,0.4-0.5,0.5-0.5c0.2,0,0.4,0.3,0.6,0.5c0,0,0.1,0.1,0.1,0.1
								c0.3,0.4,0.2,0.5-0.2,0.7c-0.2,0.1-0.4,0.2-0.5,0.4c-0.2,0.3-0.4,0.4-0.8,0.4c-0.1,0-0.4,0.1-0.4,0.1
								c-0.1,0.4-0.4,0.5-0.7,0.7c-0.4,0.2-0.7,0.4-1.1,0.7c-0.2-0.1-0.4,0-0.5,0.3c0,0.1-0.1,0.2-0.2,0.2c-0.8,0.6-1.6,1.2-2.4,1.8
								c-0.8,0.6-1.5,1.3-2.2,2c-0.3,0.3-0.5,0.7-0.9,1c-0.3,0.3-0.8,0.4-1.1,0.6c-0.5,0.3-0.8,0.8-0.8,1.4c0,0.4,0.1,0.9,0.2,1.4
								c0.1,0.7,0.6,1.1,1.2,1.4c0.2,0.1,0.4,0.1,0.5,0.2c0.2,0.1,0.3,0.2,0.6,0c0.1-0.1,0.3-0.2,0.5-0.2c0.5,0,0.6-0.1,0.7-0.6
								c0-0.2,0.1-0.6,0.2-0.6c0.6-0.1,0.6-0.6,0.6-1c0-0.5,0.2-0.8,0.6-1.1c0.1-0.1,0.1-0.2,0.2-0.3c0.4-0.4,0.7-0.8,1.1-1.1
								c1.8-1.3,3.5-2.7,5.5-3.7c0.3-0.1,0.5-0.4,0.8-0.7c0.1-0.1,0.2-0.2,0.3-0.3c0.8-0.3,1.6-0.6,2.3-1c0.4-0.1,0.7-0.3,1.1-0.5
								c0.2-0.1,0.4-0.1,0.6-0.2c0.5-0.3,0.9-0.7,1.3-1c0.8-0.6,1.7-1.2,2.7-1.4v0c-0.8-0.2-1.4,0.4-2.2,0.5
								c0.1-0.3,0.2-0.5,0.5-0.6c0.2,0,0.3-0.1,0.4-0.2c0.1,0,0.1-0.1,0.2-0.1c0.5,0,1-0.2,1.5-0.4c0.1,0,0.2-0.1,0.2-0.1
								c0.2-0.3,0.5-0.4,0.9-0.4c0.6-0.1,1.2-0.3,1.8-0.4c0.6-0.1,1.2-0.1,1.8-0.1c0,0.1,0,0.1,0,0.2c-0.4,0.1-0.8,0.2-1.1,0.3
								c-1.1,0.3-2.2,0.7-3.3,1c-0.2,0.1-0.5,0.1-0.6,0.3h0l0,0c0,0,0,0,0,0c0.2,0,0.4-0.1,0.6-0.1c0.4-0.1,0.9-0.1,1.3-0.3
								c1-0.4,2-0.6,3-0.8c0.9-0.1,1.8,0.1,2.6-0.4c0.5-0.3,1.1-0.2,1.5-0.8C129.6,402.7,129.8,401.7,129.6,401.4z M109.2,408.3
								c0,0,0,0.1,0.1,0.1c-0.6,0.4-1.2,0.8-1.9,1.2C107.5,409.2,108.8,408.3,109.2,408.3z M109.2,409c-0.3,0.2-0.6,0.4-0.9,0.5
								c0,0-0.1-0.1-0.1-0.2c0.3-0.2,0.6-0.4,0.8-0.6C109.1,408.9,109.1,408.9,109.2,409z M103.8,412.2c0.4-0.7,3.1-2.7,3.5-2.6
								C106.2,410.6,105,411.5,103.8,412.2z M106.5,410.8C106.5,410.8,106.5,410.8,106.5,410.8C106.4,410.8,106.4,410.8,106.5,410.8
								c-0.4,0.3-0.6,0.6-0.9,0.9c-0.1,0.1-0.3,0.1-0.4,0.2C105.5,411.4,105.9,411.1,106.5,410.8
								C106.4,410.8,106.4,410.8,106.5,410.8C106.5,410.8,106.5,410.8,106.5,410.8c0.3-0.3,0.7-0.6,1-0.9c0,0,0.1,0.1,0.1,0.1
								C107.3,410.4,107,410.7,106.5,410.8z M108.2,410.5c0-0.1-0.1-0.1-0.1-0.2c0.6-0.3,1.2-0.6,1.8-0.9c0,0.1,0.1,0.1,0.1,0.2
								C109.4,409.8,108.8,410.2,108.2,410.5z M109.4,408.8c0.1-0.4,0.3-0.5,0.5-0.4c0,0,0,0.1,0.1,0.1
								C109.9,408.6,109.7,408.7,109.4,408.8z M109.6,407.9c0.3-0.1,0.6-0.3,0.8-0.4c0,0.1,0,0.1,0.1,0.2
								C110.2,407.7,110.1,408.2,109.6,407.9z M111.7,408.5c0-0.1-0.1-0.1-0.1-0.2c0.3-0.2,0.7-0.3,1-0.4c0,0,0,0.1,0.1,0.1
								C112.4,408.2,112.1,408.3,111.7,408.5z M120.7,399.2c0,0-0.2-0.1-0.3-0.1c0-0.5,0.8-1,1.1-0.9c0.1,0,0.1,0.3,0.1,0.3
								C121.3,398.8,121,399,120.7,399.2z M128.6,403.3c-0.2,0-0.3-0.1-0.5-0.1c0-0.1,0.1-0.2,0.1-0.2c0.2,0,0.4-0.1,0.6,0.2
								C128.7,403.2,128.7,403.3,128.6,403.3z"/>
							<path class="st0" d="M106.4,410.8C106.4,410.8,106.4,410.8,106.4,410.8C106.5,410.8,106.5,410.8,106.4,410.8
								C106.5,410.8,106.5,410.8,106.4,410.8C106.4,410.8,106.4,410.8,106.4,410.8z"/>
						</g>
						<g>
							<path class="st0" d="M122.9,441.8c-0.2-0.2-0.4-0.4-0.6-0.6c0,0,0.1-0.1,0.1-0.1c0.1,0,0.2,0,0.4-0.1
								c-0.1-0.2-0.2-0.4-0.3-0.6c-0.2-0.4-0.4-0.8-0.7-1.2c-0.4-0.8-0.2-1.7-0.3-2.6c0-0.5,0.1-1.1,0.2-1.6c0-0.1,0-0.3,0.1-0.4
								c0.1-0.5,0.1-1,0.2-1.5c0.1-0.4,0.2-0.8,0-1.2c-0.1-0.1-0.1-0.3-0.1-0.5c0-0.4,0-0.7,0-1.1c0-0.6-0.1-1.2-0.1-1.8
								c0-1.1,0-2.3,0-3.4c0-0.6-0.2-1.2-0.2-1.8c-0.1-1.4-0.1-2.8-0.1-4.2c0-0.2,0.1-0.5,0.1-0.8c0.3,0.1,0.5,0.1,0.6,0.1
								c0.1-0.2,0.2-0.4,0.2-0.5c0-0.3-0.1-0.7-0.2-1c-0.3-0.5-0.4-1-0.3-1.6c0.1-0.6-0.3-1-0.8-1.3c-0.2-0.1-0.3-0.3-0.5-0.4
								c-0.3-0.3-0.5-0.6-0.8-0.8c-0.2-0.2-0.4-0.3-0.3-0.6c0-0.1-0.1-0.3-0.2-0.4c-0.4-0.1-0.9-0.3-1.3-0.3c-0.5,0-1,0-1.4,0.1
								c-0.7,0.3-1.3,0.7-1.9,1.1c-0.2,0.1-0.5,0.3-0.7,0.4c-0.7,0.5-1.2,1.1-1.8,1.8c-0.3,0.4-0.8,0.5-1.2,0.8
								c-0.5,0.2-1.1,0.3-1.4,0.8c-0.1,0.2-0.4,0.5-0.4,0.7c-0.1,0.5-0.2,1,0.2,1.4c0,0,0,0,0,0.1c0,0.6,0.2,1.2-0.2,1.8
								c0,0,0,0.1,0,0.1c0,0.3-0.1,0.6,0,0.8c0,0.3,0.1,0.6,0.1,0.8c0.1,0.4,0.2,0.8,0.2,1.1c0,0.6-0.2,1.3-0.3,1.9
								c-0.1,0.9-0.1,1.8-0.2,2.8c0,0.6-0.1,1.1-0.2,1.7c0,0.4-0.1,0.7-0.1,1.1c0,0.5,0.1,1.1,0.1,1.6c0,0.4,0,0.7,0,1.1
								c0,0.4,0,0.8-0.3,1.1c-0.1,0.1-0.1,0.4-0.1,0.6c0,0.8,0.1,1.6,0.1,2.3c0,0.3,0,0.6,0.1,0.8c0.1,0.6,0.3,1.1,0.4,1.7
								c0,0.2,0,0.5,0.1,0.7c0.3,0.6,0.6,1.2,0.9,1.8c0.1,0.1,0.1,0.3,0.2,0.5c0.2,0.4,0.4,0.8,0.8,1.1c0.5,0.3,1.1,0.6,1.5,1
								c0.4,0.4,0.8,1,1.5,0.7c0,0,0.1,0,0.1,0c0.6,0.4,1.2,0.3,1.8,0.1c0.4-0.1,0.5-0.3,0.5-0.7c0-0.2,0-0.3,0-0.5
								c-0.1-0.5-0.3-1-0.4-1.6c0-0.1-0.1-0.2-0.2-0.3c-0.3-0.1-0.3-0.4-0.4-0.6c0-0.1-0.1-0.2-0.1-0.4c-0.1-0.5-0.5-0.9-0.2-1.4
								c0.2-0.5,0.1-0.9-0.2-1.2c0,0,0-0.1,0-0.2c0-0.3-0.3-0.8-0.5-0.8c-0.4,0-0.5-0.3-0.7-0.6c-0.1-0.2-0.2-0.4-0.2-0.5
								c-0.2-0.4-0.5-0.8-0.6-1.3c-0.2-0.6-0.1-1.3-0.3-1.9c-0.2-0.6-0.2-1.2-0.2-1.8c0-0.5,0.2-1.1,0.3-1.6
								c0.1-0.2,0.3-0.5,0.3-0.7c0.1-0.4,0.1-0.9,0.2-1.3c0-0.2,0.2-0.4,0-0.6c0,0,0.1-0.2,0.2-0.3c0.1-0.2,0.2-0.3,0.3-0.4
								c0.1-0.3,0.1-0.6,0.1-0.8c0.1-0.5,0.2-0.9,0.4-1.3c0.1-0.3,0.3-0.6,0.5-0.9c0.2-0.2,0.4-0.2,0.4,0.1c0,0.5,0.5,0.8,0.3,1.4
								c0,0,0.1,0.1,0.2,0.2c0.1-0.2,0.2-0.4,0.2-0.6c0-0.7,0.2-1.4-0.2-2.1c0.5,0.2,0.9,0.4,1.3,0.5c0.1,0,0.1,0.2,0.1,0.3
								c0,0.3-0.2,0.7-0.1,1c0.1,1.2-0.3,2.2-0.5,3.3c-0.1,0.4-0.1,0.8,0.2,1.2c-0.2,0-0.4,0.1-0.5,0.1c-0.1-0.2-0.2-0.4-0.2-0.6
								c0-0.3,0-0.5,0-0.8c0-0.1-0.2-0.3-0.3-0.3c-0.4-0.1-0.5-0.2-0.4-0.6c0-0.2,0-0.4,0-0.6c-0.1,0-0.1,0-0.2,0
								c-0.1,0.3-0.1,0.6-0.2,0.9c0,0.2,0,0.4,0,0.6c-0.1,0.5,0,0.9,0.4,1.2c0.2,0.2,0.4,0.3,0.3,0.7c-0.1,0.5-0.2,1-0.1,1.4
								c0,0.4,0.2,0.9,0.4,1.2c0.5,0.6,0.7,1.2,1,1.9c0.1,0.2,0.1,0.5,0.2,0.6c0.4,0.4,0.8,0.7,1.3,1c0.5,0.3,0.6,0.7,0.4,1.2
								c-0.1,0.3-0.2,0.5,0,0.8c0.1,0.1-0.1,0.4-0.1,0.5c0,0.2-0.1,0.3-0.1,0.5c0.1,0.4,0,0.5-0.4,0.6c-0.7,0.1-1.2-0.2-1.8-0.4
								c-0.1-0.1-0.3-0.1-0.5-0.2c0.2,0.4,0.4,0.6,0.5,0.9c0.1,0.3,0,0.6,0,0.9c0,0,0.1,0,0.1,0c0.1-0.4,0.6-0.5,0.4-1.1
								c0.2,0.1,0.4,0.1,0.6,0.2c-0.2,0.2-0.3,0.3-0.4,0.3c0.4,0.3,0.7,0.6,1,1c0.1,0.1,0.2,0.4,0.3,0.4c0.5,0.2,0.5,0.6,0.6,1
								c0.2,0.7,0.6,1.2,1.3,1.4c0.1,0,0.2,0.1,0.2,0.2c0.3,0.6,1.1,0.9,1.7,0.6c0.4-0.2,0.7-0.4,1-0.6c0.4-0.2,0.5-0.5,0.5-0.9
								c0-0.1,0-0.1,0.1-0.2C123.6,442.8,123.4,442.1,122.9,441.8z M117,422.9c-0.1-0.1-0.2-0.2-0.3-0.3c-0.2-0.4-0.4-0.8-0.5-1.2
								c0,0,0,0,0-0.1c0.1,0.1,0.2,0.1,0.3,0.2c0.1,0.1,0.2,0.1,0.3,0.2c0.1,0.1,0.4,0.1,0.4,0.2c0.1,0.3,0.1,0.6,0.1,1
								C117.3,422.9,117.1,422.9,117,422.9z M117.7,429.4c-0.7-0.2-0.7-0.3-0.5-1.2C117.7,428.2,117.9,428.8,117.7,429.4z
								 M118.2,420.2c-0.1,0.2-0.3,0.5-0.4,0.7c-0.1,0.2-0.4,0.1-0.4-0.1c-0.2-0.5-0.4-0.9-1-1c-0.3-0.1-0.6-0.2-0.8-0.3
								c-0.4-0.3-0.6,0-0.9,0.1c-0.3,0-0.6,0.1-0.9,0.2c0.1-0.5,0.1-0.9,0.2-1.4c0.9-0.5,1.7-1.2,2.4-1.9c0.1-0.1,0.2-0.1,0.3-0.1
								c0.4,0.3,0.9,0.4,1.1,0.9c0.1,0.1,0.3,0.2,0.4,0.4C118.4,418.3,118.5,419.2,118.2,420.2z"/>
						</g>
						<path class="st0" d="M95.3,411.4c-0.1,0-0.2,0-0.2,0.1c-0.3,0.3-0.5,0.6-0.8,0.8c0,0-0.2,0.1-0.2,0.1c-0.1,0-0.1-0.1-0.1-0.2
							c0-0.4,0-0.8,0.1-1.1c0.2-0.6,0-1.1-0.3-1.5c-0.1-0.1-0.2-0.3-0.3-0.4c-0.1-0.1-0.2-0.3-0.4-0.3c-0.4-0.1-0.9-0.2-1.3,0.1
							c0,0-0.2,0-0.3-0.1c-0.1-0.1-0.1-0.3-0.2-0.5c0-0.1-0.1-0.2-0.2-0.3c-0.1,0-0.1,0-0.2,0.1c0.1,0.3,0.1,0.6,0.2,0.9
							c0.1,0.4,0.1,0.7-0.1,1c-0.2,0.2-0.3,0.6-0.3,0.9c0,0.3,0.2,0.6,0.2,0.9c-0.1,1-0.3,1.9-0.5,2.9c-0.1,0.8-0.2,1.5-0.3,2.3
							c0,0.3,0.2,0.7,0.1,1c-0.1,0.3-0.2,0.6,0,0.9c0.2,0.4,0.2,0.8,0.3,1.2c0.1,0.2,0.2,0.3,0.5,0.1c0.2-0.1,0.4-0.2,0.6-0.3
							c0.3-0.1,0.7,0,1,0c0.3,0,0.8,0,0.9-0.2c0.3-0.4,0.5-0.2,0.7,0c0.1,0.1,0.2,0.1,0.3,0.1c0.6,0.1,1.3,0.2,2,0
							c0.2,0,0.3-0.1,0.5-0.1c0.8-0.1,1.4-0.7,1.5-1.6c0-0.2,0-0.4-0.1-0.5c-0.2-0.3-0.5-0.5-0.7-0.7c0.1-0.3,0.3-0.6,0.4-0.9
							c0.1-0.2,0.1-0.5,0.2-0.6c0.4-0.3,0.1-0.7,0.1-1c0-0.1-0.1-0.1-0.1-0.2c-0.2-1.1-1.1-1.8-1.9-2.5
							C96.1,411.5,95.7,411.5,95.3,411.4z"/>
						<path class="st0" d="M91.9,403.2c-0.2-0.1-0.3-0.2-0.4-0.3c-0.5-0.4-1-0.7-1.4-1.1c0,0-0.1-0.1-0.1-0.1
							c-0.1-0.4-0.4-0.7-0.7-1c-0.2-0.2-0.5-0.5-0.1-0.8c0.1-0.1,0-0.2,0.1-0.3c0-0.1,0-0.3,0.1-0.3c0.4-0.4,0.8-0.7,1.2-1
							c0.1-0.1,0.3-0.1,0.4,0.1c0.3,0.7,0.7,1.2,1.4,1.4c0.3,0.1,0.3,0.2,0.3,0.5c-0.1,0.6-0.2,1.2,0.1,1.7c0.1,0.1-0.1,0.3-0.1,0.5
							c0,0.1-0.1,0.2-0.1,0.3c0.2,0.4,0.3,0.8,0.5,1.2c0.1,0.2,0.3,0.3,0.5,0.4c0.2,0.1,0.4,0.1,0.6,0.2c0.5,0.2,1,0.2,1.5-0.2
							c0.2-0.2,0.4-0.7,0.4-1c0-0.3-0.1-0.7,0-0.9c0.3-0.5,0.4-1.1,0.9-1.4c0.1-0.1,0.2-0.1,0.2-0.2c0.1-0.6,0.2-1.3,0.3-1.9
							c0-0.2-0.1-0.4-0.2-0.5c-0.5-0.4-0.7-0.9-0.8-1.5c0-0.3,0-0.6-0.1-0.8c-0.2-0.4-0.5-0.8-0.8-1.2c-0.1-0.2-1.2-0.5-1.4-0.4
							c-0.5,0.3-1,0.2-1.5,0c-0.6-0.2-1.1,0-1.5,0.2c-0.5,0.2-0.8,0.6-1.3,0.8c-0.2,0.1-0.5,0.2-0.7,0.4c-0.3,0.3-0.4,0.7-0.7,1
							c-0.3,0.5-0.7,1-1,1.5c-0.1,0.1-0.2,0.3-0.1,0.5c0.1,0.7,0.1,1.4,0.6,2c0,0,0,0.1,0,0.2c0.1,0.5,0.3,1,0.4,1.5
							c0.1,0.4,0.5,0.5,0.9,0.4c0.1,0,0.2,0,0.4,0C90.3,403.4,91.1,403.5,91.9,403.2z"/>
						<path class="st0" d="M100.5,422.9c-0.6,0.6-1.2,1.2-1.8,1.8c-1.4,1.4-2.7,2.8-4.1,4.2c-0.3,0.3-0.5,0.3-0.7-0.1
							c-0.4-0.6-0.8-1.2-1.2-1.9c-0.4-0.7-0.7-1.4-1.1-2.2c-0.1-0.3-0.3-0.6-0.8-0.6c0,0.2,0,0.5,0,0.7c0.1,0.6,0.3,1.2,0.3,1.8
							c0.1,0.7,0.3,1.4,0,2.1c-0.2,0.3-0.2,0.6-0.2,0.9c0,0.5,0.1,1.1-0.2,1.6c-0.3,0.5-0.4,1-0.6,1.5c-0.2,0.5-0.5,1-0.6,1.5
							c-0.1,0.2,0.1,0.4,0.2,0.6c0.1,0.2,0.4,0.2,0.5,0.4c0.4,0.4,0.8,0.9,1.2,1.3c0.2,0,0.4,0,0.5,0c0.3,0.2,0.6,0.5,0.9,0.7
							c0.2,0.2,0.3,0.2,0.5,0.1c0.3-0.1,0.7-0.1,1-0.1c0,0,0.1,0.1,0.1,0.1c0.1,0,0.2,0.1,0.3,0.1c0.2,0,0.3,0.1,0.5,0.1
							c0.2,0,0.4,0,0.5-0.1c0.4-0.3,0.8-0.4,1.2-0.5c0.1,0,0.2-0.1,0.3-0.2c0.1-0.3,0.4-0.4,0.7-0.3c0.6,0.1,1.1-0.2,1.3-0.7
							c0.1-0.4,0.3-0.8,0.3-1.2c0-0.1,0-0.4-0.1-0.4c-0.3-0.3-0.5-0.6-0.7-0.9c-0.3-0.4-0.4-0.7-0.1-1.1c0.1-0.1,0.1-0.2,0.2-0.4
							c0.1-0.3,0.2-0.7,0.4-1c0.2-0.3,0.4-0.6,0.1-1c0-0.1,0-0.2,0-0.2c0.2-0.5,0.3-1,0.5-1.5c-0.1-0.2-0.2-0.4-0.3-0.6
							c-0.6,0.6-1.1,1.2-1.7,1.8c0,0,0,0-0.1-0.1c0.3-0.5,0.6-1,0.9-1.6c-0.1,0-0.1-0.1-0.2-0.1c-0.6,0.6-1.1,1.3-1.7,1.9
							c0.1,0.2,0.2,0.5,0.3,0.8c-0.1,0.1-0.3,0.5-0.5,0.5c-0.2,0-0.4-0.3-0.6-0.4c-0.3-0.2-0.3-0.4-0.1-0.7c0.3-0.4,0.6-0.8,0.9-1.1
							c0.5-0.5,1-0.9,1.5-1.4c1-1,2-2.1,2.9-3.2c0.1-0.1,0.2-0.2,0.1-0.3c-0.1-0.4,0.2-0.8,0.4-1.1c0.2-0.2,0.2-0.4,0-0.7
							C101.2,422.5,100.8,422.6,100.5,422.9z"/>
					</g>
					<g>
						<g>
							<path class="st0" d="M126.6,471.8c-0.6,0-0.8-0.1-1-0.6c-0.1-0.1-0.1-0.2-0.2-0.4c-0.2,0.2-0.4,0.5-0.6,0.5
								c-0.6,0.1-1.2,0.2-1.8,0.3c-0.7,0.1-1.4,0.1-2.1,0.2c-0.7,0.1-1.4,0.3-2.1,0.5c-0.4,0.1-0.8,0.2-1.2,0.3
								c-0.7,0.2-1.5,0.4-2.2,0.6c-0.3,0.1-0.5,0.1-0.9,0.2c0.1-0.2,0.2-0.4,0.3-0.5c0.1-0.3,0.4-0.6,0.4-0.9c0-0.9,0.2-1.7,0.9-2.3
								c0.3-0.2,0.4-0.5,0.3-0.8c0-0.1,0-0.3,0.1-0.4c0.4-0.8,0.7-1.7,1.1-2.5c0.4-0.8,0.8-1.7,1-2.6c0.1-0.7,0.4-1.3,0.7-2
								c0.1-0.3,0.2-0.6,0.2-0.9c0-0.5-0.1-1-0.1-1.5c0-1.1-0.5-1.9-1.1-2.6c-0.2-0.2-0.4-0.4-0.6-0.5c-0.4-0.2-0.8-0.5-1.2-0.7
								c-0.3-0.1-0.7-0.1-0.9-0.3c-0.4-0.3-0.9-0.5-1.4-0.5c-0.2,0-0.5,0-0.7,0c-1-0.1-2,0.1-2.9,0.4c-1.2,0.4-2.3,0.9-3.4,1.4
								c-1,0.4-1.9,0.8-2.9,1.2c-0.4,0.2-0.9,0.4-1.3,0.5c-0.4,0.1-0.7,0.3-1.1,0.4c0,0-0.1,0.1-0.1,0.2c-0.1,0.2-0.1,0.4-0.2,0.6
								c0,0.4-0.3,0.5-0.5,0.5c-0.3,0-0.5,0-0.8-0.1c-0.3-0.1-0.5,0-0.6,0.3c-0.1,0.1-0.3,0.3-0.4,0.3c-0.5,0-0.8,0.3-1.1,0.6
								c-0.6,0.6-1.1,1.1-1.7,1.7c-0.2,0.2-0.3,0.4-0.5,0.6c-0.2,0.2-0.4,0.9-0.4,1.1c0.1,0.4,0.1,0.7,0.1,1.1
								c0.1,0.5-0.1,1,0.1,1.5c0.3,0.9,0.7,1.8,1,2.6c0.1,0.3,0.3,0.6,0.7,0.5c0.1,0,0.2,0.1,0.2,0.2c0.1,0.1,0.1,0.3,0.2,0.5
								c0.2,0.5,0.5,1,1.1,0.9c0.1,0,0.2,0.1,0.3,0.2c0.3,0.2,0.6,0.4,0.9,0.6c0.3,0.2,0.7,0.4,1,0.7c0.3,0.2,0.5,0.5,0.7,0.7
								c0.4,0.4,0.7,0.9,1.1,1.3c0,0,0,0.1,0.1,0.1c0.2,0.5,0.4,0.7,0.8,0.6c0.4,0,0.8-0.1,0.8-0.6c0-0.1,0.1-0.1,0.1-0.2
								c0.4-0.1,0.5-0.5,0.7-0.9c0.2-0.5,1.2-0.7,1.4-0.3c0.3,0.4,0.3,1,0.5,1.6c-0.3-0.2-0.4-0.4-0.7-0.6c0,0.2,0,0.4,0,0.5
								c0,0.1-0.1,0.2-0.1,0.4c0,0-0.1,0-0.1,0c0-0.2,0-0.4,0-0.5c0,0-0.1,0-0.1,0c0,0.1-0.1,0.2-0.1,0.3c-0.1,0.1-0.1,0.3-0.2,0.4
								c-1,0.4-2.1,0.7-3.1,1c-0.9,0.3-1.9,0.6-2.9,0.8c-0.3,0.1-0.6,0.1-0.8,0.2c-0.4,0.1-0.8,0.3-1.2,0.4
								c-0.2,0.1-0.5,0.1-0.3,0.5c0,0,0,0.1-0.1,0.2c-0.2,0.2-0.3,0.4-0.6,0.6c-0.1,0.1-0.3,0.1-0.5,0c-0.1,0-0.1-0.3-0.1-0.4
								c0.3-0.4,0-0.6-0.2-0.9c-0.1,0.4-0.2,0.8-0.4,1.3c-0.4-0.3-0.7-0.3-1.1-0.1c-0.3,0.1-0.6,0.2-0.9,0.2c-0.3,0-0.5-0.1-0.8-0.1
								c-0.2,0-0.5,0.1-0.6,0.2c-0.2,0.3-0.4,0.7-0.5,1.1c-0.2,0.6,0.2,1.2,0.9,1.1c0.1,0,0.1,0.1,0.2,0.1c-0.1,0.1-0.1,0.2-0.2,0.2
								c-0.3,0-0.5-0.1-0.8-0.2c-0.2-0.1-0.4-0.2-0.6-0.3c0,0-0.1,0-0.1,0.1c0.1,0.7,0.2,1.4,0.4,2c0.1,0.3,0.4,0.5,0.7,0.8
								c0-0.1,0.1-0.2,0.1-0.3c0.3-0.5,0.2-1.3,1-1.5c0.2,0,0.4-0.1,0.6,0c0.9,0.1,1.3-0.7,2.1-0.9c0.6-0.2,0.8-0.9,1.5-1.1
								c0.2-0.1,0.4-0.2,0.7-0.2c0.1,0,0.2,0,0.3-0.1c0.6-0.2,1.2-0.5,1.9-0.7c1.3-0.4,2.6-0.7,3.9-1.1c0.8-0.2,1.6-0.5,2.4-0.8
								c0.7-0.2,1.4-0.5,2.1-0.6c1.2-0.1,2.2-0.7,3.3-1c0.4-0.1,0.9-0.3,1.3-0.4c0.6-0.2,1.3-0.3,1.9-0.4c1.1-0.3,2.3-0.5,3.4-0.8
								c1.7-0.3,3.4-0.6,5-0.9c0.3-0.1,0.5-0.3,0.9-0.4c-0.2-0.1-0.3-0.1-0.4-0.1c-0.1,0-0.1,0-0.2-0.1c0.1-0.1,0.3-0.1,0.4-0.2
								c0.6-0.2,0.6-0.2,1,0.4c0.2,0.3,0.4,0.3,0.6,0.1c0.2-0.3,0.3-0.6,0.4-1c0.1-0.3,0.1-0.3,0.3-0.1c0,0,0.1,0,0.2,0.1
								C127.3,472,126.8,471.8,126.6,471.8z M98.2,469.8c-0.2-0.1-0.5-0.2-0.7-0.4c-0.2-0.2-0.2-0.6-0.3-0.9c-0.1-0.5,0-1,0-1.5
								c0-0.2,0-0.4-0.2-0.5c-0.1,0-0.1-0.2-0.2-0.2c0,0,0,0,0.1-0.1c0.3,0.2,0.6,0.3,0.8,0.5c0.2,0.2,0.2,0.5,0.2,0.8
								c0,0.3,0,0.6,0,0.9c0,0.1,0.1,0.3,0.1,0.4C98.5,469.3,98.5,469.3,98.2,469.8z M103.6,464.6c-0.6,0.4-1.1,0.1-1.2-0.6
								c0-0.3-0.2-0.7-0.4-0.9c-0.4-0.6,0.1-1.6,0.7-1.7c0,0,0.1,0,0.1,0c0.7-0.4,1.4-0.7,2.2-1.1c0.8-0.4,1.6-0.9,2.6-0.9
								c0.8,0,1.6-0.4,2.3-0.7c0.7-0.2,1.4-0.3,2.1,0c0.2,0.1,0.3,0.4,0.4,0.7c0.1,0.4,0.1,0.8,0.2,1c0,0.7-0.1,0.8-0.7,1
								c-0.1,0-0.1,0-0.2,0.1c-0.6,0.5-1.3,0.6-2,0.7c-0.5,0.1-1,0.3-1.5,0.4c-0.1,0-0.2,0.2-0.4,0.3c-0.4,0.1-0.7,0.2-1.1,0.4
								c-1,0.3-2,0.6-2.9,1.3C103.8,464.4,103.7,464.5,103.6,464.6z M109.6,468.6c-0.5-0.1-0.6,0.3-0.8,0.5
								c-0.1,0.1-0.2,0.1-0.2,0.2c-0.3,0.2-0.7,0.4-1,0.6c-0.4,0.3-0.9,0.5-1.5,0.4c-0.5-0.1-1,0-1.5,0c-0.3,0-0.6-0.1-0.8-0.2
								c0.1-0.3,0.2-0.6,0.3-0.8c0-0.1,0.1-0.2,0.2-0.2c0.5,0.1,0.6-0.3,0.9-0.5c0.3-0.2,0.6-0.4,0.9-0.6c0.1-0.1,0.2-0.3,0.3-0.4
								c0.4-0.6,1.1-0.8,1.7-1c0.2-0.1,0.4-0.2,0.7-0.3c0.2,0,0.3,0,0.5,0c0.1,0,0.2,0,0.2,0c0.3-0.2,0.5-0.4,0.8-0.5
								c0.3-0.2,0.7-0.3,1-0.4c0.5,0,0.6,0.5,0.4,1c-0.1,0.1-0.2,0.3-0.3,0.4c-0.1,0.2-0.2,0.4-0.3,0.5c-0.4,0.2-0.4,0.9-0.9,0.9
								c-0.1,0-0.1,0.1-0.2,0.1C109.8,468.4,109.7,468.6,109.6,468.6z M111.8,473.8c-0.3,0-0.7,0.1-1,0c-0.3-0.1-0.5-0.4-0.6-0.7
								c-0.1-0.3-0.1-0.7-0.1-1c0-0.2,0.2-0.3,0.4-0.4c0.1-0.1,0.3-0.1,0.4-0.1c0.2,0,0.4,0.1,0.4,0.2c0.3,0.7,0.8,1.2,1.4,1.7
								c0,0,0.1,0.1,0.1,0.2C112.4,473.7,112.1,473.8,111.8,473.8z"/>
						</g>
						<g>
							<path class="st0" d="M115.9,502c-0.2-0.3-0.4-0.7-0.5-1c-0.1-0.1-0.1-0.3-0.2-0.4c-0.2-0.4-0.5-0.6-0.5-1.1
								c0-0.2-0.1-0.5-0.2-0.6c-0.5-0.1-0.4-0.5-0.6-0.7c-0.1-0.2-0.2-0.5-0.3-0.7c0-0.1-0.1-0.1-0.1-0.2c-0.2-0.2-0.4-0.5-0.7-0.8
								c-0.2,0-0.5-0.4-0.9-0.2c0,0-0.1-0.1-0.1-0.1c-0.2-0.1-0.4-0.2-0.5-0.2c-0.6,0.2-1.3,0.3-1.9,0.7c-0.3,0.2-0.7,0.1-0.8,0.6
								c0,0,0,0,0,0c-0.8-0.1-0.3,0.8-0.8,1c0,0,0.1,0.1,0.1,0.2c0,0.2,0,0.4,0,0.6c0,0.1,0,0.3,0,0.4c0,0.1,0,0.2,0.1,0.3
								c0.1,0.2,0.1,0.3,0.2,0.4c0.2,0.2,0.3,0.4,0.1,0.6c-0.4,0.5-0.5,1.2-1.1,1.5c0,0-0.1,0.1-0.1,0.2c-0.1,0.2-0.2,0.4-0.4,0.5
								c-0.3,0.2-0.6,0.4-0.9,0.4c-0.2,0-0.4-0.1-0.6-0.2c-0.4-0.2-0.8-0.4-1.3-0.4c-0.5,0-1-0.2-1.5-0.1c-0.6,0.1-1.3,0.3-1.8,0.7
								c-0.1,0-0.1,0.1-0.2,0.2c-0.2,0.3-0.4,0.6-0.6,0.9c-0.1,0.2-0.2,1.3-0.1,1.4c0.4,0.3,0.1,0.7,0.2,1c0.1,0.6-0.1,1.2,0.4,1.6
								c0.2,0.2,0.3,0.6,0.5,0.8c0.3,0.4,0.5,0.9,0.9,1.2c0.5,0.3,0.9,0.9,1.6,1.1c0.4,0.1,0.5,0.2,0.7-0.2c0.2-0.4,0.5-0.6,0.9-0.7
								c0.3,0,0.6-0.1,0.9-0.1c0.2,0,0.3-0.1,0.2-0.3c0-0.1-0.1-0.1-0.1-0.2c-0.1-0.6-0.2-1.2-0.2-1.8c0-0.1,0.2-0.3,0.3-0.3
								c0.4-0.2,0.8-0.1,1.1,0.3c0.3,0.4,0.6,0.7,0.9,1.1c0,0,0.1,0.1,0.2,0.1c0.3,0.2,0.6,0.4,0.9,0.6c0.6,0.5,1.2,0.9,2,0.9
								c0.3,0,0.6,0.1,0.9,0.1c0.1,0,0.1,0,0.2,0c0.3,0,0.5-0.2,0.7-0.3c0.4-0.1,0.4-0.4,0.5-0.7c0.2-0.5,0.3-1,0.5-1.5
								c0.1-0.3,0.4-0.5,0.5-0.8c0.2-0.4,0.3-0.9,0.5-1.3c0.3-0.7,0.2-1.3,0-2c-0.1-0.3-0.2-0.6-0.2-0.9c0-0.1,0.1-0.3,0.2-0.3
								c0.4,0,0.8,0.1,1.1,0.1c0.1,0,0.3,0,0.3-0.1C116.4,503,116.3,502.6,115.9,502z M112.3,508.6c-0.3-0.1-0.6-0.2-0.3-0.6
								c0-0.1-0.1-0.2-0.1-0.3c0-0.3,0.1-0.6,0.3-0.8c0.1-0.1,0.1-0.2,0.2-0.2c0.1-0.1,0.2-0.1,0.4-0.1c0,0.1,0,0.2,0,0.3
								c0,0,0,0.1-0.1,0.2c0.1,0.1,0.2,0.1,0.3,0.2C112.8,507.7,112.5,508.1,112.3,508.6z"/>
						</g>
						<g>
							<path class="st0" d="M117.7,482.5c-0.1-0.1-0.1-0.2-0.1-0.2c0-0.3-0.1-0.4-0.3-0.5c-0.4-0.3-0.9-0.4-1.3-0.5
								c-0.4-0.1-0.5-0.2-0.5-0.6c0-0.2-0.1-0.5-0.2-0.6c-0.2-0.2-0.4-0.4-0.7-0.6c-0.1-0.1-0.3-0.1-0.5-0.1c-0.3,0-0.5,0.2-0.7,0.2
								c-1,0-1.9,0.2-2.8,0.6c-0.4,0.2-0.7,0.3-1.1,0.4c-0.4,0.2-0.9,0.4-1.3,0.5c-0.7,0.3-1.4,0.6-2.1,0.9c-0.3,0.1-0.6,0.1-1,0
								c-0.7-0.1-1.4,0.1-1.8,0.7c-0.3,0.4-0.6,0.4-0.9,0.1c-0.3-0.3-0.5-0.6-0.9-0.5c-0.1-0.3-0.1-0.6-0.3-0.9
								c0-0.1-0.2-0.2-0.3-0.2c-0.1,0-0.3,0.2-0.3,0.3c0,0.4,0,0.8-0.1,1.2c0,0.4,0.2,0.9-0.4,1c-0.1,0-0.1,0.2-0.1,0.3
								c0,0.2-0.1,0.3-0.3,0.2c-0.3-0.1-0.5,0.1-0.7,0.2c-0.1,0.1-0.3,0.2-0.5,0.2c-0.6,0-0.8,0.2-0.8,0.8c0,0.1,0,0.1-0.1,0.2
								c-0.1,0.4,0.2,1,0.5,1.2c0.2,0.1,0.2,0.4,0.3,0.6c0.1,0.2,0,0.4,0.1,0.6c0.1,0.3,0.1,0.6,0.2,0.9c0.2,0.7,0.3,1.4,0.6,2
								c0.5,1,1,2,1.6,2.9c0.4,0.6,0.7,1.3,1.4,1.6c0.1,0,0.1,0.2,0.2,0.3c0.1,0.3,0.2,0.6,0.4,0.8c0.6,0.6,1.5,0.4,2.2,0.9
								c0,0,0,0,0,0c0.8-0.1,1.6-0.1,2.4-0.2c0.1,0,0.3-0.2,0.4-0.2c0.1-0.1,0.2-0.2,0.3-0.2c0.3-0.3,0.7-0.5,0.9-0.8
								c0.2-0.4,0.6-0.6,1-0.8c0.4-0.3,0.8-0.4,1.3-0.6c0.2-0.1,0.4-0.1,0.6-0.2c0.7-0.4,1.1-0.4,1.7,0.3c0.1,0.2,0.3,0.4,0.5,0.1
								c0,0,0.2,0,0.2,0c0.1,0,0.3,0.1,0.4,0.1c0-0.2,0-0.4,0.1-0.5c0.3,0.1,0.5,0.2,0.8,0.3c0-0.1,0.1-0.2,0.1-0.3
								c0.2-0.6,0.3-1.2,0.5-1.8c0.3-0.6,0.5-1.2,0.7-1.9c0.2-0.9,0.6-1.7,0.8-2.6c0.2-0.6,0.2-1.3,0.4-1.9c0.1-0.3,0.1-0.6,0.2-0.9
								c0.1-0.5,0.2-0.9,0.1-1.4C118.1,483.5,118,483,117.7,482.5z M111.7,490.2c-0.3,0.4-0.4,0.8-0.5,1.2c-0.2,0.5-0.6,0.6-0.9,0.8
								c-0.1,0.1-0.3,0.1-0.4,0.1c-0.1,0-0.1,0.1-0.2,0c-0.3-0.2-0.6-0.4-0.8-0.6c0,0,0-0.1,0-0.2c0-0.1,0.1-0.2,0.2-0.5
								c0,0,0.1,0,0.3-0.1c-0.1-0.2-0.2-0.4-0.2-0.6c0.3-0.1,0.5-0.4,1-0.3c0.2,0.1,0.5-0.1,0.8-0.2c0.2,0.2,0.4,0.1,0.7,0
								c0.1,0,0.2,0,0.3,0C111.7,490,111.7,490.1,111.7,490.2z M113.2,484.9c-0.3-0.1-0.5,0-0.7,0.2c-0.1,0.2-0.4,0.2-0.7,0.3
								c-0.4,0.1-0.7,0.2-1.1,0.3c0.2,0.5,0.2,0.5,0.6,0.2c0.2-0.1,0.3-0.3,0.5-0.2c0,0,0.2-0.1,0.4-0.1c0,0.1,0,0.2-0.1,0.3
								c-0.1,0.1-0.3,0.2-0.4,0.2c-0.9,0.2-1.8,0.7-2.7,1c-0.5,0.2-1,0.4-1.5,0.6c-0.1,0-0.2,0.1-0.3,0.1c0,0,0,0.1,0,0.1
								c1.2-0.4,2.4-0.9,3.6-1.3c0,0,0,0,0.1,0.1c-0.1,0.1-0.1,0.2-0.2,0.2c-0.5,0.2-1,0.7-1.6,0.8c-0.1,0-0.2,0-0.3,0.1
								c-0.4,0.5-1,0.4-1.5,0.5c-0.4,0.1-0.4-0.3-0.5-0.4c-0.1-0.1-0.2-0.3-0.3-0.3c-0.3-0.2-0.3-0.3,0-0.5c0.2-0.1,0.3-0.3,0.5-0.4
								c0.2-0.1,0.4-0.1,0.7-0.2c0.1,0,0.3,0,0.3-0.1c0.3-0.5,0.8-0.6,1.2-0.8c0.8-0.3,1.5-0.7,2.3-1c0.3-0.1,0.7-0.3,1.1-0.4
								c0.4-0.1,0.6,0,0.6,0.4C113.3,484.7,113.2,484.8,113.2,484.9z M113.8,481.2c-0.7-0.1-1.4,0.2-2,0.5c-1.3,0.5-2.7,1.1-4,1.6
								c-0.6,0.2-1.2,0.2-1.8,0.4c-0.1-0.8,0-0.8,0.7-1.1c0.3-0.1,0.6-0.1,0.9-0.1c0.4,0,0.8-0.3,1.1-0.4c0.2-0.1,0.5-0.2,0.7-0.3
								c0.4,0,0.7-0.1,0.9-0.5c0.1-0.1,0.2-0.1,0.3-0.1c0.1-0.1,0.2-0.1,0.3-0.2c0.1-0.2,0.2-0.2,0.3-0.1c0.2,0.2,0.2,0.1,0.4,0
								c0.1-0.1,0.4-0.1,0.6-0.1c0.1,0,0.2,0,0.2,0c0.4-0.4,0.8-0.4,1.3-0.4c0.1,0,0.1,0,0.2,0c0.5,0,0.6,0.1,0.6,0.5
								C114.4,480.8,114.1,481.2,113.8,481.2z M115.2,481.1c-0.1-0.1-0.3-0.2-0.4-0.3c0,0,0-0.2,0.1-0.3c0.2,0.1,0.3,0.2,0.5,0.4
								C115.3,480.9,115.2,481,115.2,481.1z"/>
							<path class="st0" d="M114.8,480.8c0.1,0.1,0.3,0.2,0.4,0.3c0-0.1,0.1-0.1,0.1-0.2c-0.2-0.1-0.3-0.2-0.5-0.4
								C114.9,480.6,114.8,480.7,114.8,480.8z"/>
						</g>
						<path class="st0" d="M129.8,499.3c-0.6-0.4-1.3-0.6-2-0.8c-0.3,0-0.5,0.1-0.8,0.1c-0.6,0-1.1,0.5-1.1,1.1
							c0,0.3-0.1,0.4-0.5,0.3c-0.2,0-0.5,0-0.6,0.1c-0.2,0.2-0.4,0.5-0.6,0.8c-0.2,0.3-0.2,0.6,0.1,0.8c0.1,0,0.1,0.2,0.1,0.2
							c0,0.2-0.1,0.5,0,0.6c0.3,0.6-0.3,1.1,0,1.7c0,0,0,0.1,0,0.1c-0.1,0.4-0.2,0.9-0.3,1.3c-0.1,0.4-0.1,0.7,0.1,0.9
							c0.5,0.7,1.3,1.2,2.1,1.5c0.4,0.2,0.8,0.3,1.2,0.4c0.3,0.1,0.6,0.1,1,0.1c0.5,0,0.3-0.5,0.5-0.7c0.1-0.1,0-0.2,0.1-0.3
							c0.1-0.1,0.2-0.3,0.3-0.3c0.6,0,0.6-0.6,0.9-0.9c0.2-0.2,0.1-0.6,0.2-0.9c0.2-0.7,0.4-1.4,0.5-2.1c0.1-0.5,0.3-0.9,0.4-1.3
							c-0.1-0.6-0.1-1.1-0.3-1.5C130.7,500.2,130.3,499.7,129.8,499.3z"/>
					</g>
					<g>
						<path class="st0" d="M115.1,563.1c0.7,0.2,0.9-0.1,0.8-0.9C115.5,562.2,115.2,562.5,115.1,563.1z"/>
						<g>
							<path class="st0" d="M129.6,572.4C129.6,572.4,129.6,572.4,129.6,572.4c0.1-0.3,0.1-0.6,0.1-0.8c0-0.1,0-0.3-0.2-0.4
								C129.5,571.2,129.6,571.8,129.6,572.4z"/>
							<path class="st0" d="M137.7,554.9c-0.3-0.3-0.6-0.7-0.9-1c-0.3-0.3-0.6-0.6-1-0.6c-0.1,0-0.1,0-0.2-0.1
								c-0.5-0.5-0.7-0.6-1.3-0.3c-0.6,0.4-1.3,0.3-1.9,0.2c-0.3,0-0.3,0.1-0.3,0.3c0,0.1,0.1,0.2,0.1,0.3c0.2,0.3,0.1,0.5-0.1,0.6
								c-0.3,0.2-0.7,0.4-1.1,0.5c-0.3-0.4-0.2-0.9-0.3-1.3c-0.3-1.3,0.3-2.1,1.4-2.7c0.4-0.3,0.7-0.7,0.8-1.2
								c0.2-0.1,0.4-0.1,0.4-0.2c0.2-0.3,0.5-0.7,0.6-1.1c0.1-0.2-0.1-0.5-0.1-0.7c-0.1,0-0.1,0-0.2,0c-0.2,0.4-0.4,0.8-0.7,1.2
								c-0.2-0.2-0.4-0.3-0.6-0.4c-0.1-0.1-0.1-0.2,0-0.3c0.4-0.3,0.8-0.6,1.1-1c0.2-0.2,0.2-0.6-0.1-0.7c-0.3-0.1-0.6-0.2-0.9-0.2
								c-0.4,0.1-0.7,0.1-1.1,0.1c-0.3,0-0.4-0.2-0.3-0.4c0-0.3,0.1-0.6,0.1-0.9c0-0.3,0-0.5,0.4-0.3c0.1,0,0.2,0,0.2,0
								c0,0,0-0.2,0-0.2c0-0.1-0.2-0.2-0.1-0.3c0.1-0.2,0.2-0.5,0.4-0.7c0.5-0.7,0.3-1.2-0.5-1.6c-0.2-0.1-0.3-0.2-0.2-0.5
								c0.2-0.5,0-0.8-0.4-1.1c-0.2-0.2-0.3-0.4-0.5-0.6c-0.1-0.1-0.2-0.3-0.3-0.3c-0.3,0-0.8,0.6-0.9,0.8c0,0.1-0.1,0.3-0.2,0.3
								c-0.6,0.2-0.7,0.8-0.8,1.3c-0.1,0.3,0,0.8,0.1,1.1c0.3,0.5,0.4,0.9,0.3,1.4c0,0.8,0,1.5,0,2.3c0,0.1-0.1,0.4-0.2,0.4
								c-0.6,0.3-1.1,0.6-1.7,0.9c-0.5,0.3-1,0.6-1.4,1c-0.4,0.3-0.8,0.6-1.1,1c-0.7,0.7-1.3,1.4-2,2.1c-0.8,0.8-1.6,1.5-2.4,2.3
								c-0.1,0.1-0.3,0.2-0.5,0.3c0-0.2,0-0.3,0-0.5c0,0,0-0.1,0-0.1c0-0.5-0.1-1.1-0.1-1.6c0-0.5,0-1-0.3-1.5c-0.2-0.3-0.4-0.6,0-1
								c0.2-0.2,0.3-0.5,0.3-0.8c0-0.5,0.4-0.9,0.6-1.2c0.4-0.5,0.8-1,1.2-1.5c0.2-0.2,0.3-0.5,0.5-0.8c0.1-0.2,0.2-0.2,0.4-0.1
								c0.3,0.1,0.4-0.1,0.4-0.3c-0.1-0.6,0.1-1,0.2-1.6c0.2-1,0.9-1.6,1.6-2.2c0.4-0.3,0.9-0.5,1.3-0.7c0.6-0.3,1.2-0.5,1.8-0.8
								c0.3-0.1,0.6-0.1,0.9-0.3c0.3-0.2,0.6-0.5,0.9-0.8c0.1-0.1,0.2-0.2,0.3-0.3c0.1-0.1,0.2-0.3,0.3-0.4c0.1-0.3,0.2-0.6,0.4-0.9
								c0.1-0.3,0.4-0.6,0.4-0.8c-0.1-0.4-0.3-0.9-0.6-1.2c-0.5-0.4-1.1-0.5-1.7-0.2c-0.4,0.2-0.7,0.5-1,0.7
								c-0.1-0.1-0.2-0.2-0.2-0.2c-0.1,0.2-0.3,0.4-0.3,0.6c-0.1,0.3-0.3,0.2-0.5,0.1c-0.2-0.1-0.4-0.2-0.2-0.5
								c0.1-0.1,0.1-0.2,0.1-0.3c-0.3,0.2-0.5,0.4-0.7,0.7c0,0,0,0.1,0,0.2c0.2,0.6-0.3,0.9-0.6,1.3c-0.1,0.1-0.2,0.2-0.2,0.4
								c0,0.4,0,0.9,0,1.3c0,0.4-0.2,0.8-0.4,1.1c-0.6,0.6-1.2,1.3-1.8,1.9c-0.1,0.1-0.3,0.2-0.4,0.2c-0.1,0-0.2-0.3-0.2-0.4
								c0-0.4,0-0.8,0-1.2c0-0.6,0.2-1,0.7-1.3c0.4-0.2,0.7-0.5,1.1-0.7c-0.2-0.1-0.3-0.2-0.3-0.2c0-0.3,0.1-0.6,0-0.7
								c-0.1-0.1-0.4-0.1-0.7-0.1c-0.3-0.5-0.3-1.2-0.1-1.8c0.2-0.4,0.2-0.9,0.3-1.3c0.2-0.6,0.4-1.2,1.1-1.4c0.5-0.2,1-0.6,1.5-0.8
								c0.4-0.2,0.9-0.4,1.4-0.4c0.9,0.1,1.6-0.3,2.3-0.6c0.1-0.1,0.2-0.2,0.3-0.3c0.2-0.3,0.1-0.5-0.2-0.5c-0.2,0-0.4-0.1-0.6-0.1
								c-0.1,0-0.2-0.1-0.3-0.2c0.1-0.1,0.1-0.2,0.2-0.2c0.2-0.1,0.4-0.2,0.6-0.3c-0.2-0.4,0-0.6,0.3-0.9c0.1-0.2,0.2-0.3,0-0.3
								c-0.4-0.1-0.8-0.2-1.1-0.2c-0.5,0-1,0-1.5,0c-0.3,0-0.6-0.1-0.9-0.1c-0.2,0-0.3,0-0.6,0c0.3,0.7,0.2,0.8-0.4,1
								c-0.1,0-0.1,0.1-0.2,0.1c-0.2,0.1-0.5,0.2-0.7,0.3c-0.1,0-0.3-0.2-0.3-0.2c0-0.3,0-0.5,0.1-0.8c0-0.3,0.1-0.4,0.4-0.4
								c0.3-0.1,0.5-0.3,0.7-0.4c0.2-0.1,0.4-0.3,0.5-0.3c0.3,0.1,0.3-0.1,0.4-0.3c0-0.1,0.1-0.3,0.1-0.3c0.4-0.3,0.8-0.6,1.2-0.9
								c0.1,0,0.1-0.1,0.1-0.2c-0.1-0.3,0.1-0.5,0.3-0.7c0.1-0.1,0.1-0.2,0.1-0.3c-0.1-0.3,0-0.4,0.2-0.6c0.1-0.1,0.2-0.3,0.2-0.5
								c0-0.2-0.2-0.4-0.3-0.5c-0.2-0.2-0.1-0.3,0.1-0.4c0.1,0,0.2-0.2,0.2-0.3c-0.1-0.5-0.4-0.9-0.9-1.1c-0.7-0.3-1.3,0-1.9,0.3
								c-0.2,0.1-0.3,0.1-0.4-0.1c-0.3-0.5-0.7-0.9-1.3-1.3c-0.1,0-0.1-0.1-0.1-0.2c0.1,0,0.2-0.1,0.3-0.1c0.4,0.1,0.7,0.3,1.1,0.4
								c0.1,0,0.2,0.1,0.3,0.1c0-0.3,0-0.6,0-0.9c0.1-0.4,0-0.6-0.4-0.7c-0.4-0.1-0.8-0.3-1.3-0.3c-0.3,0-0.5-0.1-0.5-0.4
								c0-0.2-0.2-0.4-0.2-0.6c0,0,0.1-0.1,0.1-0.1c-0.1-0.2-0.2-0.4-0.4-0.5c-0.1-0.1-0.3,0-0.4,0.1c-0.2,0.1-0.4,0.2-0.6,0.4
								c0.2,0.2,0.3,0.4,0.5,0.5c0.2,0.2,0.5,0.3,0.7,0.5c-0.3,0.3-0.6,0.5-0.9,0.7c-0.5,0.2-0.7,0.5-0.9,0.9
								c-0.1,0.1-0.2,0.3-0.3,0.4c-0.4,0.2-0.9,0.2-1,0.8c-0.4-0.4-0.4-0.7-0.1-1.2c-0.1-0.1-0.3-0.1-0.4-0.2c0,0.2-0.1,0.3-0.1,0.5
								c0,0.2,0.1,0.3,0.1,0.5c0.1,0.4,0.2,0.8,0.2,1.2c0.1-0.1,0.1-0.2,0.1-0.3c0-0.1,0-0.2,0-0.3c0.6,0.1,0.7,0,0.9,0.6
								c0.1,0.3,0.1,0.6,0.2,1c0,0.1,0,0.2,0,0.3c0.2,0.7,0,1.3-0.7,1.7c-0.8,0.4-1.7,0.9-2.5,1.3c-0.5,0.2-1,0.4-1.5,0.6
								c-0.3,0.1-0.5,0-0.6-0.3c-0.1-0.4-0.3-0.7-0.6-1c-0.1,0-0.1-0.2-0.1-0.2c0-0.1,0.1-0.1,0.2-0.1c0.1,0,0.3,0,0.5,0
								c-0.2-0.3-0.4-0.5-0.7-0.6c-0.3-0.1-0.5-0.2-0.8-0.3c-0.3-0.1-0.6-0.2-0.8,0c-0.3,0.3-0.7,0.6-0.6,1.2c0,0.2-0.1,0.2-0.3,0.3
								c-0.3,0.1-0.7,0.2-1,0.5c-0.2,0.1-0.3,0.4-0.3,0.7c0,1.3,0.4,2.4,1.5,3.2c0.1,0.1,0.2,0.1,0.3,0.1c0.8,0,1.6,0.2,2.2,0.8
								c0.3,0.3,0.8,0.2,1.1-0.1c0.1-0.2,0.3-0.3,0.6-0.2c0.4,0.1,0.6,0,0.6-0.4c0-0.4,0.1-0.8,0-1.2c-0.2-0.7,0.1-1.1,0.6-1.4
								c0.6-0.4,1.2-0.9,2-1c0.4,0,0.7,0.2,0.8,0.5c0,0.5-0.1,0.9-0.5,1.3c-0.3,0.3-0.5,0.8-0.8,1.2c-0.2,0.4-0.4,1-0.7,1.3
								c-0.4,0.5-0.9,1-1.4,1.5c-0.7,0.6-1.4,1.1-2.2,1.7c0,0,0-0.1,0-0.1c-0.2,0-0.5-0.2-0.7-0.1c-0.2,0.1-0.4,0.4-0.5,0.7
								c-0.2,0.5-0.5,0.8-1.1,1c-0.6,0.2-1.1,0.4-1.7,0.7c-0.3,0.2-0.5,0.5-0.8,0.7c-0.7,0.4-0.7,0.8-0.2,1.3c0.6,0.6,1,1.5,2.1,1.2
								c0.1,0,0.1,0,0.2,0c0.6,0,1.1,0.1,1.6-0.3c0.2-0.2,0.4-0.4,0.6-0.6c0.2-0.2,0.5-0.5,0.8-0.6c0.3-0.2,0.6-0.2,0.8-0.4
								c0.1-0.1,0.2-0.2,0.3-0.2c0,0,0,0-0.1-0.1c-0.2,0.1-0.5,0.2-0.8,0.4v-0.5c-0.2,0.2-0.3,0.3-0.5,0.4c-0.1,0.1-0.2,0.1-0.3,0.1
								c-0.1,0-0.1-0.1-0.1-0.2c-0.6,0.3-1.2,0.5-1.8,0.8c-0.5,0.2-0.6,0.1-0.8-0.5c0.5,0,0.8-0.2,1.1-0.5c0.1-0.1,0.2-0.2,0.4-0.2
								c0.3,0,0.4-0.2,0.4-0.5c0-0.3,0.3-0.5,0.6-0.4c0.1,0,0.2,0,0.3,0c0.2-0.1,0.4-0.2,0.6-0.2c0.1,0,0.2,0.1,0.3,0.1
								c0,0.1-0.1,0.2-0.1,0.3c-0.1,0.1-0.2,0.3-0.4,0.4c0.1,0.1,0.1,0.1,0.2,0.2c0.1-0.2,0.2-0.4,0.4-0.5c0.3-0.3,0.5-0.6,0.8-0.8
								c0.4-0.3,0.8-0.7,1.3-0.9c0.5-0.2,1-0.6,1.5-0.9c0.1,0,0.2,0,0.3-0.1c0,0.1,0.1,0.2,0,0.3c-0.1,0.5-0.3,0.9-0.8,1.1
								c-0.1,0.1-0.3,0.2-0.3,0.3c0.2,0.5-0.2,0.3-0.4,0.4c0.1-0.1,0.1-0.2,0.2-0.4c-0.7,0.3-1.3,0.5-1.9,0.7c0,0,0,0.1,0,0.1
								c0.5-0.1,0.9-0.1,1.5-0.2c-0.2,0.2-0.4,0.3-0.6,0.5c0,0,0,0.1,0.1,0.1c0.4-0.3,0.8-0.5,1.3-0.8c0.1-0.1,0.2-0.1,0.3-0.1
								c0,0.1,0.1,0.2,0.1,0.3c-0.1,0.7-0.3,1.4-0.4,2.1c-0.1,0.4-0.2,0.9-0.3,1.3c0,0.1-0.2,0.1-0.3,0.2c-0.2-0.5-0.9-0.3-1.1-0.8
								c0,0-0.1-0.1-0.2,0c-0.5,0.1-0.9,0.2-1.4,0.3c-0.3,0.1-0.4,0.3-0.2,0.7c0.1,0.1,0.1,0.3,0,0.5c-0.2,0.5-0.6,0.9-1.1,1.2
								c-0.2,0.1-0.2,0.3-0.2,0.5c0,0.4,0,0.8,0.3,1.1c0,0,0,0.2,0,0.2c0.1,0.7,0.1,1.5,1,1.7c0.1,0,0.2,0.1,0.2,0.2
								c0.2,0.3,0.5,0.2,0.7,0.1c0.4-0.3,0.8-0.8,1.3-1.1c0.4-0.2,0.8-0.6,1.2-1c0.2,0.5,0.4,0.9,0.5,1.3c0.1,0.2,0.1,0.4-0.2,0.6
								c-0.4,0.3-0.8,0.6-1.2,0.9c-0.7,0.5-1.2,1.1-1.7,1.8c-0.2,0.2-0.3,0.6-0.6,0.7c-0.8,0.4-1.5,0.9-1.9,1.7
								c-0.4,0.7-0.8,1.3-1.2,1.9c-0.3,0.5-0.6,1-0.9,1.5c-0.4,0.6-0.8,1.1-1.2,1.7c-0.2,0.2-0.4,0.3-0.6,0.2
								c-0.6-0.2-1.2-0.3-1.8-0.4c-0.4-0.1-0.8,0-1.2-0.1c-0.6-0.2-1.1-0.4-1.7-0.1c-0.1,0-0.4-0.1-0.4-0.2c0-0.6,0.1-1.2,0.2-1.8
								c0.1-0.5,0.2-0.9,0-1.3c-0.2-0.3-0.4-0.7-0.5-1c-0.1-0.3-0.1-0.6-0.2-1c-0.1-0.5-0.1-0.5,0.4-0.8c0.6-0.3,1.2-0.7,1.8-1.1
								c0.3-0.2,0.3-0.4,0.1-0.7c-0.1-0.2-0.2-0.4-0.1-0.6c0.2-0.5,0.5-1,0.7-1.5c0.1-0.2,0.3-0.3,0.5-0.4c0.1-0.1,0.3-0.1,0.4-0.3
								c0.4-0.5,0.9-1,1.5-1.3c0.3-0.1,0.3-0.3,0-0.5c-0.4-0.3-0.8-0.6-1.1-0.9c-0.3-0.3-0.4-0.7-0.7-1c-0.5-0.4-0.8-0.8-1.3-1.1
								c-0.4-0.3-0.9-0.4-1.5-0.3c-0.3,0.1-0.7,0.1-1,0.2c-0.4,0.1-0.5,0-0.4-0.3c0.1-0.4,0.3-0.9,0.2-1.3c0-0.9,0.6-1.4,1.1-2
								c0.1-0.1,0.2-0.1,0.3-0.1c0.5-0.1,1-0.4,1.4-0.7c0.6-0.6,0.7-1.7,0.1-2.2c-0.5-0.4-1-0.9-1.6-1.2c-0.6-0.3-1-0.3-1.6-0.2
								c-0.5,0.1-0.8-0.1-0.8-0.6c0-0.1,0-0.2,0-0.3c-0.1-0.7-0.2-1.4-0.3-2.1c0-0.2,0-0.5,0-0.7h-0.1c0,0.1-0.1,0.3-0.1,0.5
								c-0.5-0.3-0.5-1-0.1-1.6c0.1,0.3,0.1,0.5,0.2,0.7c0-0.2,0-0.3,0-0.5c0.1-0.3,0-0.4-0.2-0.5c-0.2-0.2-0.4-0.4-0.4-0.6
								c-0.1-0.6-0.1-0.6-0.6-0.7c-0.1,0-0.2,0-0.3-0.1c-0.5-0.3-1-0.2-1.4,0c-0.4,0.2-0.7,0.5-1.1,0.7c-0.6,0.4-0.8,1-1.1,1.6
								c-0.2,0.3-0.2,0.6-0.4,0.9c-0.3,0.4-0.4,0.9-0.5,1.3c-0.1,0.7-0.1,1.4-0.1,2c0,0.3,0.1,0.6,0.2,0.8c0.1,0.4,0.2,0.7,0.3,1.1
								c0,0.1,0.2,0.2,0.3,0.2c0.5-0.1,0.9-0.1,1.4-0.3c0.4-0.1,0.8-0.1,1.1-0.4c0.1-0.1,0.3-0.1,0.4,0c0.1,0.1,0.1,0.3,0.2,0.5
								c0,0.1-0.1,0.2-0.2,0.2c-0.6,0.5-1.2,0.9-1.9,1.4c-0.3,0.2-0.7,0.4-1,0.5c-0.3,0.1-0.5,0.1-0.5-0.3c0-0.2-0.1-0.4-0.1-0.8
								c-0.1,0.1-0.2,0.2-0.2,0.3c-0.2,0.3-0.4,0.6-0.7,0.9c-0.3,0.3-0.8,0.5-1.2,0.7c-0.4,0.2-0.4,0.5-0.4,0.9
								c0.1,0.6,0.5,1,0.8,1.4c0.1,0.2,0.6,0.3,0.6,0.2c0.2-0.3,0.4-0.1,0.7-0.1c0.1,0,0.2,0,0.4-0.1c0.4-0.2,0.9-0.5,1.3-0.8
								c0.3-0.3,0.7-0.5,0.8-1c0-0.1,0.1-0.1,0.2-0.2c0,0,0.1,0.1,0.1,0.2c0,0.1,0,0.1,0.1,0.2c0.8-0.2,1.1,0.2,1,1
								c0.1-0.2,0.2-0.3,0.3-0.4c0.1-0.1,0.2-0.2,0.2-0.2c0.1,0,0.2,0.1,0.2,0.2c0,0.3,0,0.7,0,1c0,0.2,0,0.3,0,0.5
								c0,0.3,0.1,0.7-0.1,1c-0.1,0.3-0.5,0.4-0.8,0.6c-0.5,0.4-0.8,0.2-1.3-0.1c-0.4-0.3-0.8-0.5-1.3-0.6c-0.5-0.1-0.7-0.3-0.7-0.8
								c0-0.1,0-0.1,0-0.3c-0.3,0.2-0.6,0.3-0.8,0.5c-0.4,0.2-0.8,0.3-1.1,0.5c-0.8,0.5-1.1,1.3-1.5,2c-0.3,0.8-0.6,1.6-1.1,2.3
								c-0.8,1.3-1.8,2.6-2.6,3.9c-0.4,0.6-0.6,1.3-0.9,2c-0.1,0.3-0.2,0.5-0.4,0.8c-0.2,0.3-0.4,0.6-0.2,1c0.1,0.2,0.1,0.5,0.1,0.8
								c0,0.1,0,0.2,0,0.3c0.2,0.3,0.1,0.7,0,1c-0.2,0.8-0.5,1.7-0.7,2.5c-0.3,0.9-0.5,1.8-0.8,2.7c-0.3,1-0.7,1.9-1.1,2.9
								c-0.3,0.8-0.5,1.5-0.7,2.3c-0.2,0.6-0.4,1.2-0.4,1.8c-0.1,0.8-0.1,1.7-0.1,2.6c0,0.1,0,0.1,0,0.2c0.3,0.5,0.7,0.9,1.2,1
								c0.3,0.1,0.6,0,0.7-0.4c0.1-0.2,0.2-0.4,0.4-0.5c0.3-0.3,0.4-0.5,0.4-0.9c-0.2-2,0.1-4,0.8-5.9c0.2-0.4,0.3-0.9,0.4-1.3
								c0.2-0.7,0.5-1.4,0.7-2.1c0.1-0.3,0-0.7,0.2-1c0.4-0.7,0.6-1.5,0.6-2.3c0-0.5,0.2-1.1,0.3-1.6c0.1-0.2,0.2-0.4,0.3-0.6
								c0.1-0.2,0.2-0.5,0.3-0.7c0.2-0.3,0.4-0.7,0.6-1c0.1-0.2,0.2-0.4,0.3-0.6c0.5-0.5,1-1.1,1.6-1.6c0.5-0.4,0.9-0.8,1.4-1.2
								c0.3-0.2,0.7-0.4,1-0.6c0.1,0,0.3,0.1,0.3,0.1c0.2,0.4,0.3,0.8,0.5,1.2c0,0.1,0,0.4-0.2,0.5c-0.4,0.3-0.8,0.6-1.1,0.8
								c-0.5,0.4-1.1,0.7-1.5,1.1c-0.4,0.4-0.8,0.8-1.2,1.3c0,0-0.1,0.1-0.1,0.2c0,0.3,0.7,0.9,1,0.8c0.3-0.1,0.4,0,0.6,0.2
								c0.8,1,1.2,1,2.2,0.6c0.3-0.1,0.6-0.4,0.6-0.8c0-0.1,0.1-0.2,0.1-0.3c0.5-0.4,1-0.8,1.6-1.1c0.6-0.3,1.1-0.6,1.6-0.9
								c0.2-0.1,0.4-0.2,0.5-0.4c0.4-0.2,0.8-0.4,1.2-0.7c0.2-0.2,0.4-0.1,0.5,0.2c0,0.5,0,1.1,0,1.6c-0.1,0.7-0.3,1.5-0.3,2.2
								c0,0.7,0.1,1.4,0.1,2.1c0,0.2,0,0.4-0.2,0.4c-0.4,0-0.7-0.2-0.6-0.4c0.1-0.2,0.2-0.5,0.2-0.7c0-0.2,0.1-0.3,0.1-0.5
								c0,0-0.1,0-0.1,0c-0.1,0.3-0.3,0.5-0.4,0.8c-0.2,0.4-0.3,0.4-0.7,0.2c-0.3-0.2-0.7-0.5-1-0.5c-0.6,0.1-1.3,0.1-1.9,0.6
								c-0.1,0.1-0.3,0.1-0.4,0c-0.2-0.2-0.4-0.4-0.7-0.6c-0.9-0.6-1.8-0.9-2.9-0.4c-0.4,0.2-0.8,0.3-1.1,0.5
								c0.1,0.2,0.2,0.4,0.1,0.6c-0.1,0.5-0.3,1-0.5,1.6c0,0.1,0,0.2,0,0.2c0.1,0.4,0.2,0.9,0.3,1.3c0.3,0.9,0.5,1.8,1.1,2.6
								c0.7,0.9,1.4,1.8,2.4,2.5c0.3,0.2,0.4,0.2,0.6-0.1c0-0.1,0.1-0.1,0.2-0.1c0.3,0,0.6,0.1,0.9,0.1c0.2,0,0.5,0.1,0.7,0.1
								c0.2-0.1,0.5-0.4,0.5-0.4c-0.2-0.5,0.2-0.8,0.3-1.1c0-0.1,0.3-0.3,0.4-0.3c0.4,0.1,0.5-0.1,0.6-0.3c0.1-0.4,0.2-0.8,0.2-1.2
								c0-0.8,0.1-0.9,1-1.1c0.1,0,0.2,0,0.3,0c0.3-0.1,0.4,0,0.6,0.3c0.2,0.5,0.5,1,0.7,1.4c0.3,0.4,0.6,0.8,1,1.1
								c0,0,0.1-0.1,0.1-0.1c-0.1-0.4-0.3-0.7-0.4-1.2c0.2,0.1,0.3,0.1,0.4,0.2c0.5,0.3,1.1,0.7,1.6,1c0.1,0,0.2,0,0.3,0
								c0-0.1,0-0.2,0-0.3c-0.1-0.2-0.2-0.4-0.3-0.6c-0.1-0.2-0.1-0.4,0.1-0.5c0.4-0.2,0.7-0.5,1.1-0.8c0.1,0,0.1-0.1,0.2-0.1
								c0.6,0.1,0.7,0.1,0.9-0.5c0.2-0.3,0.3-0.7,0.5-1c0.2-0.3,0.6-0.6,0.8-0.9c0.1-0.1,0.2-0.3,0.4-0.4c0.1,0.1,0.2,0.2,0.2,0.3
								c0.4,0.5,0.2,1.1,0,1.6c-0.1,0.2-0.1,0.5-0.1,0.7c0,0.2,0.2,0.3,0.4,0.2c0.3-0.1,0.5-0.1,0.8,0c0.6,0.1,1.6-0.2,1.8-0.7
								c0.2-0.4,0.4-0.7,0.5-1.1c0.1-0.5,0.8-0.7,0.7-1.3c0,0,0-0.1,0.1-0.1c0.5-0.1,0.5-0.6,0.8-0.9c0.4-0.4,0.7-0.9,1.1-1.4
								c0.2-0.3,0.5-0.5,0.7-0.7c0.1-0.1,0.2-0.1,0.3-0.1c0,0.1,0,0.2,0,0.3c-0.4,0.9-0.7,1.8-1.1,2.7c-0.2,0.5-0.5,1-0.8,1.5
								c-0.5,0.7-1,1.3-1.5,2c-0.7,1-1.8,1.6-2.8,2.2c-0.5,0.3-1.1,0.4-1.7,0.6c-0.1,0-0.3,0.2-0.3,0.3c-0.1,0.5-0.1,1.1-0.1,1.6
								c0,0.1,0.1,0.3,0.2,0.3c0.4,0,0.5,0.4,0.6,0.7c0,0.1,0.1,0.2,0.2,0.3c0.3,0.3,0.5,0.3,0.6-0.1c0.1-0.2,0.2-0.3,0.2-0.5
								c0.1-0.2,0.2-0.3,0.4-0.2c0.7,0.3,1.2-0.1,1.6-0.6c0.3-0.4,0.4-0.3,0.6,0.1c0.2,0.4,0.5,0.8,0.7,1.1c0,0,0.1,0,0.1,0
								c0.1-0.3,0.2-0.6,0.3-1c0.1,0.1,0.2,0.1,0.2,0.2c0.2,0.3,0.4,0.1,0.6,0c0.1,0,0.1-0.2,0.1-0.4c0-0.3-0.1-0.6,0-0.8
								c0.2-0.3,0-0.7,0.1-1c0,0,0-0.1,0-0.2c-0.7,0.3-0.4,1.2-0.9,1.8c0-0.2-0.1-0.3-0.1-0.5c0-0.3,0.1-0.6,0.2-1
								c0.2-0.6,0.2-1.2,0.6-1.7c0.6-0.6,1.2-1.2,1.8-1.8c0.4-0.5,0.8-0.9,1.2-1.4c0.5-0.8,1-1.6,1.8-2.3c0.1-0.1,0.2-0.2,0.2-0.4
								c0,0,0,0,0,0c0,0,0,0,0,0c-0.2,0.1-0.3,0.1-0.6,0.3c0.3-0.7,0.8-0.9,1.2-1.3c0.1,0.2,0.1,0.2-0.2,0.5
								c-0.1,0.2-0.3,0.4-0.4,0.5l0,0l0,0c0.1-0.1,0.3-0.1,0.4-0.2c0.2-0.2,0.4-0.4,0.6-0.6c0.4-0.4,0.9-0.9,1.3-1.3
								c0.4-0.4,0.7-0.8,1-1.1c0.1-0.1,0.2-0.1,0.3-0.1c0,0.1,0,0.2,0,0.3c-0.4,1-0.9,2-1.3,3c-0.2,0.7-0.4,1.4-0.5,2.1
								c0,0.1,0,0.3,0.1,0.4c0.2,0.4,0,1-0.4,1.1c-0.1,0.1-0.3,0-0.4,0c-0.1,0-0.2,0-0.3,0c-0.2,0-0.3,0-0.5,0
								c-0.2,0-0.5,0.2-0.5,0.4c0.2,0.9,0.6,1.6,1.4,2.1c0.5,0.3,1.1,0.4,1.6,0.5c0.2,0.1,0.6,0.2,0.7,0.1c0.5-0.2,1.1-0.2,1.7-0.4
								c0.9-0.3,1.8-0.6,2.6-1c0.1,0,0.3-0.1,0.4,0c0.1,0.1,0.1,0.2,0.1,0.4c0,0.7-0.1,1.4-0.1,2.1c0,1.1,0-0.8-0.1,0.2
								c0,0.9-0.2,1.7-0.2,2.6c-0.2,2.4-0.3,1.9-0.4,4.4c0,0.5,0,1-0.1,1.5c-0.1,1.8-0.3,3.5-0.3,5.3c0,2-0.3,4-0.5,6
								c0,0.2,0.1,0.5,0.2,0.8c0.1,0.3,0.3,0.3,0.4,0c0.2-0.4,0.5-0.8,0.7-1.1c0.1-0.1,0.2-0.1,0.3-0.2v1.3c0,0,0.1,0,0.1,0
								c0.1-0.6,0.2-1.1,0.3-1.8c0,0-0.1-0.1-0.2-0.2c-0.1-0.4-0.3-0.5-0.6-0.3c-0.2-0.4,0-0.9,0.3-1.2c0,0.3-0.1,0.5-0.1,0.8
								c0.2-0.1,0.3-0.1,0.3-0.2c0.1-0.5,0.3-0.9,0.3-1.4c0.1-1.5,0.2-2.9,0.3-4.4c0-0.5,0-0.5-0.5-0.5c-0.1,0-0.2,0-0.2,0
								c-0.1,0-0.2-0.1-0.2-0.1c0,0,0-0.2,0-0.2c0.1,0,0.2,0,0.3,0c0.3,0.1,0.4,0.1,0.5-0.2c0.1-0.3,0.2-0.5,0.3-0.8
								c0-0.1,0-0.2,0-0.3c0-0.4-0.1-0.8-0.1-1.2c0-0.1,0-0.1,0.1-0.2v0l0,0c0,0,0-0.1,0-0.1c0-0.1,0.1-0.3,0.1-0.4
								c-0.1-0.2,0-0.4,0-0.6c0,0.3-0.1,0.5-0.1,0.8c0,0,0,0.1,0,0.1c0-0.6,0-1.2,0-1.2c0.1,0.1,0.2,0.2,0.2,0.4
								c0-0.2,0.1-0.4,0.1-0.6c0.1-0.5-0.1-0.9,0.2-1.4c0.1-0.1,0-0.4,0-0.6c0-0.1,0-0.2,0.1-0.4c0-0.1,0.1-0.1,0.1-0.2
								c0-0.4,0-0.8,0-1.2c0.1-1,0.1-2.1,0.2-3.1c0-0.5,0.2-1,0.2-1.5c0-0.6,0,1.7,0.2,1c0-0.1,0-0.1,0-0.2c0.1-1.1,0.1-2.1,0.2-3.2
								c0-0.3,0.2-0.7,0.6-0.9c0.4-0.2,0.9-0.5,1.2-0.8c0.4-0.4,0.9-0.5,1.4-0.6c0.3-0.1,0.6-0.2,0.7-0.4c0.4-0.7,1.1-1,1.7-1.4
								c0.2-0.1,0.5-0.3,0.7-0.4C137.9,555.7,138,555.3,137.7,554.9z M131.3,548.4c0.1,0,0.2,0.2,0.3,0.2c-0.1,0.1-0.3,0.3-0.5,0.5
								c-0.1-0.2-0.2-0.3-0.2-0.4C131,548.6,131.2,548.5,131.3,548.4z M124.1,526.7c0.2-0.4,0.5-0.8,0.7-1.2
								c0.1-0.1,0.2-0.1,0.2-0.2c0,0.1,0.1,0.2,0.1,0.3c-0.1,0.3-0.3,0.6-0.5,0.8c-0.1,0.2-0.3,0.4-0.4,0.6c0,0-0.1,0-0.1,0
								C124,526.9,124,526.8,124.1,526.7z M127.5,530.2c0.1,0,0.2,0.2,0.2,0.3c0,0.1-0.1,0.2-0.3,0.3c-0.3,0.1-0.6,0.1-0.7-0.3
								c-0.1-0.2-0.3-0.3-0.5-0.5C126.7,530.1,127.1,530.2,127.5,530.2z M123.5,532.1c0.2-0.7,0.8-1.2,1.3-1.6
								c0.6-0.4,1.1-0.3,1.5,0.2c0.1,0.1,0.2,0.1,0.3,0.2c0.1,0.1,0.1,0.1,0.2,0.2c-0.1,0.1-0.1,0.1-0.2,0.2
								c-0.9,0.4-1.8,0.9-2.7,1.3c-0.1,0.1-0.3,0-0.5,0.1C123.4,532.5,123.4,532.3,123.5,532.1z M120.9,529.1
								c-0.1-0.3-0.1-0.5-0.2-0.9C121.1,528.3,121.2,528.7,120.9,529.1z M119.6,531.7c-0.2,0.2-0.4,0.4-0.6,0.5
								c-0.1,0-0.1,0.1-0.2,0.1c0-0.1,0-0.2,0-0.3c0.3-0.3,0.7-0.6,1-0.9c0.2-0.2,0.5-0.4,0.7-0.6c0.1,0,0.2-0.1,0.2-0.1
								c0.1,0,0.1,0.1,0.1,0.2c0,0.4-0.2,0.6-0.5,0.7C120,531.3,119.8,531.5,119.6,531.7z M100.5,546.4c-0.1,0.1-0.1,0.2-0.2,0.3
								c0,0.1,0,0.3-0.1,0.4c-0.2,0.1-0.5,0.2-0.7,0.1c-0.5-0.2-0.5-0.4-0.1-0.8c0.1-0.2,0.3-0.3,0.3-0.5c0.1-0.4,0.4-0.4,0.7-0.4
								c0.3,0,0.3,0.3,0.4,0.6C100.8,546.1,100.6,546.3,100.5,546.4z M97.1,561.3c-0.1,0.4-0.4,0.3-0.7,0.1
								c-0.8-0.6-1.2-1.4-1.2-2.4c0-0.3,0.2-0.6,0.3-0.9c0.2-0.3,0.6-0.6,0.9-0.8c0.1-0.1,0.3-0.1,0.4,0c0.5,0.5,0.7,1.2,0.8,2.1
								C97.5,559.9,97.4,560.6,97.1,561.3z M103.6,545.2c-0.1-0.2-0.3-0.4-0.3-0.5c0-0.6,0.4-1.4,1.1-1.6c0.3-0.1,0.6-0.3,0.9-0.4
								c0.1,0,0.2,0,0.3,0c0,0.1,0,0.2,0,0.3c-0.3,0.5-0.6,1.1-1,1.6C104.3,544.8,104,544.9,103.6,545.2z M104.3,553.5v1.2
								c0,0-0.1,0-0.1,0c0-0.2-0.1-0.3-0.1-0.5c0-0.7,0.1-1.3,0.2-2c0.1-0.4,0.3-0.8,0.3-1.3c0,0,0.1-0.1,0.1-0.2c0,0,0.1,0,0.1,0.1
								c0.1,0.3,0.2,0.6,0.1,0.9c0,0.5-0.1,0.9-0.2,1.4C104.7,553.5,104.6,553.7,104.3,553.5z M106.6,557.9
								c-0.5,0.6-0.9,1.3-1.4,1.9c-0.1,0-0.1,0-0.2-0.1c-0.5-1.1,0-2.2-0.2-3.4c0.2,0.1,0.3,0.1,0.4,0.2c0.4,0.3,0.8,0.6,1.2,0.8
								C106.7,557.5,106.8,557.7,106.6,557.9z M128.7,556.3c-0.1,0.6-0.7,0.5-1,0.8c-0.1,0-0.1,0-0.2,0c0-0.2-0.1-0.4-0.1-0.5
								c0.3-0.6,0.7-1.1,1.1-1.7c0,0,0.1,0,0.1-0.1C128.9,555.4,128.7,555.9,128.7,556.3z M130.4,544.9c0,0.1-0.2,0.2-0.3,0.2
								c0,0-0.1,0-0.1-0.1c-0.1,0.3-0.1,0.6-0.2,0.9c0,0-0.1,0-0.1,0c0-0.1-0.1-0.2-0.1-0.2c0-0.3,0.1-0.7,0-1
								c0-0.3-0.2-0.5-0.2-0.8c-0.1-0.4,0-0.6,0.5-0.7c0.2,0,0.3,0,0.5,0.3C130.5,543.9,130.4,544.4,130.4,544.9z"/>
						</g>
						<path class="st0" d="M115.4,547.3c0-0.2-0.1-0.4-0.4-0.4c-0.3,0-0.4,0.2-0.4,0.6c0.1,0.1,0.2,0.2,0.4,0.2
							C115.3,547.7,115.4,547.6,115.4,547.3z"/>
						<path class="st0" d="M112.8,569.6c-0.1,0-0.2,0.1-0.2,0.2c0,0.1,0.1,0.2,0.2,0.4c0.1-0.2,0.2-0.3,0.2-0.3
							C113,569.7,112.9,569.6,112.8,569.6z"/>
					</g>
				</g>
				<g>
					<g>
						<path class="st0" d="M71.6,615.6c-2.7,0-4.4-1.8-4.4-4.4c0-2.6,1.9-4.6,4.3-4.6c1.7,0,2.3,0.4,2.9,0.4c0.1,0,0.1,0,0.1,0.1
							l0.1,1.7c0,0.2-0.2,0.2-0.2,0.1c-0.4-1.1-1.2-1.7-2.8-1.7c-1.8,0-3,1.8-3,3.9c0,2.2,1.2,3.6,3.3,3.6c1.4,0,2.3-0.5,2.8-1.1
							c0.1-0.1,0.3,0,0.2,0.1C74.4,614.6,73.4,615.6,71.6,615.6z"/>
						<path class="st0" d="M84.3,615.6c-0.4,0-1-0.1-1.9-0.1h-3.6c-0.1,0-0.2-0.1,0-0.2c0.4-0.2,0.4-0.3,0.4-1.7V609
							c0-1.6,0-1.7-0.3-1.8c-0.2,0-0.2-0.1-0.3-0.5h3.7c0.7,0,1.6,0,2-0.1c0.1,0,0.1,0,0.1,0.1l0.1,1.7c0,0.2-0.2,0.2-0.2,0
							c-0.3-0.9-0.5-1.2-1.6-1.2h-2.2v3.4h0.9c1.6,0,1.7-0.3,1.9-0.6c0.1-0.1,0.2-0.1,0.2,0.1c-0.1,0.4,0,1.3,0,1.8
							c0,0.1-0.1,0.2-0.2,0.1c-0.4-0.6-0.9-0.8-1.9-0.8h-0.8v3.4c0,0.2,0,0.3,0.2,0.3c0.5,0,1.1,0,1.8,0c1.7-0.1,1.9-0.5,2.4-1.6
							c0.1-0.1,0.3-0.1,0.2,0.1l-0.5,2C84.5,615.5,84.5,615.6,84.3,615.6z"/>
						<path class="st0" d="M91.7,606.7c-0.1,0.3-0.1,0.4-0.3,0.4c-0.5,0-0.6,0-0.6,1.6v6c0,0.1,0,0.2,0.2,0.2c0.3,0,0.9,0,1.4,0
							c1.9-0.1,2-0.5,2.6-1.6c0.1-0.1,0.3-0.1,0.2,0.1l-0.6,2c0,0.1-0.1,0.1-0.2,0.1c-0.4,0-1-0.1-2-0.1h-3.3c-0.1,0-0.2-0.1,0-0.2
							c0.4-0.2,0.5-0.3,0.5-1.7V609c0-1.9,0-1.8-0.7-1.9c-0.2,0-0.2-0.2-0.1-0.4H91.7z"/>
						<path class="st0" d="M104.3,615.6c-0.4,0-1-0.1-1.9-0.1h-3.6c-0.1,0-0.2-0.1,0-0.2c0.4-0.2,0.4-0.3,0.4-1.7V609
							c0-1.6,0-1.7-0.3-1.8c-0.2,0-0.2-0.1-0.3-0.5h3.7c0.7,0,1.6,0,2-0.1c0.1,0,0.1,0,0.1,0.1l0.1,1.7c0,0.2-0.2,0.2-0.2,0
							c-0.3-0.9-0.5-1.2-1.6-1.2h-2.2v3.4h0.9c1.6,0,1.7-0.3,1.9-0.6c0.1-0.1,0.2-0.1,0.2,0.1c-0.1,0.4,0,1.3,0,1.8
							c0,0.1-0.1,0.2-0.2,0.1c-0.4-0.6-0.9-0.8-1.9-0.8h-0.8v3.4c0,0.2,0,0.3,0.2,0.3c0.5,0,1.1,0,1.8,0c1.7-0.1,1.9-0.5,2.4-1.6
							c0.1-0.1,0.3-0.1,0.2,0.1l-0.5,2C104.5,615.5,104.5,615.6,104.3,615.6z"/>
						<path class="st0" d="M114.4,608.8c0,1.3-0.9,1.9-1.8,2.1c1.2,0.1,2.5,0.8,2.5,2.2c0,1.6-1.2,2.4-3.1,2.4
							c-0.7,0-1.4-0.1-2.1-0.1c-0.4,0-0.6,0-1,0.1c-0.1,0-0.1-0.1-0.1-0.2c0.4-0.3,0.4-0.4,0.4-1.7v-4.7c0-1.5,0-1.6-0.3-1.7
							c-0.2-0.1-0.3-0.2-0.3-0.5c0.4,0.1,0.7,0.1,1.2,0.1c0.6,0,1.2-0.1,1.7-0.1C113.7,606.7,114.4,607.9,114.4,608.8z M110.6,610.7
							h0.4c1.7,0,2.2-0.7,2.2-1.6c0-1-0.4-1.8-1.6-1.8c-0.4,0-0.8,0-1,0.1V610.7z M111,611.3h-0.4v3.5c0.4,0.1,0.8,0.1,1.3,0.1
							c1.4,0,2-0.6,2-1.8C113.8,611.4,112.5,611.3,111,611.3z"/>
						<path class="st0" d="M119.1,615.1c0.6-0.1,0.6-0.1,0.6-1.9V609c0-1.6,0-1.6-0.4-1.8c-0.3-0.1-0.3-0.2-0.3-0.5
							c0.9,0.1,1.9,0,3.1,0c2.1,0,3.2,1.3,3.2,2.4c0,1.2-1,2.3-2.6,2.4c1.7,1.3,1.9,3,3.5,3.8c0.2,0.1,0.2,0.2,0,0.2
							c-0.8,0-1.5,0.1-2.1-0.5c-1-1.1-1.5-2.7-2.8-3.6c-0.1-0.1-0.1-0.2,0-0.2c1.8,0,2.8-0.6,2.7-2c-0.1-1.3-1-2.1-3.1-1.7v5.5
							c0,2.1,0,2.1,1,2.1c-0.1,0.3-0.2,0.4-0.3,0.4h-2.7C118.9,615.2,118.9,615.2,119.1,615.1z"/>
						<path class="st0" d="M129.9,607.1c-0.2,0-0.2-0.1-0.1-0.4h2.8c-0.1,0.3-0.1,0.4-0.3,0.4c-0.5,0-0.5,0-0.5,1.6v4.2
							c0,2.1,0,2.1,0.9,2.1c-0.1,0.3-0.1,0.4-0.3,0.4h-2.6c0-0.2,0.1-0.4,0.2-0.4c0.6-0.1,0.6-0.1,0.6-1.9V609
							C130.6,607.2,130.6,607.2,129.9,607.1z"/>
						<path class="st0" d="M136.4,606.8c0-0.1,0.1-0.2,0.2-0.1c0.4,0,1.5,0.1,2.5,0.1h2c1.2,0,2,0,2.4-0.1c0.1,0,0.2,0,0.2,0.1
							c-0.1,0.6-0.1,1.3-0.2,2c0,0.2-0.2,0.2-0.2,0c-0.2-1-0.5-1.5-1.1-1.5h-1.6v5.7c0,2,0,2,1.2,2.1c-0.1,0.3-0.1,0.4-0.3,0.4h-3.2
							c0-0.2,0.1-0.4,0.2-0.4c0.8-0.1,0.9-0.1,0.9-1.9v-6h-1.7c-0.5,0-0.9,0.5-1.1,1.5c-0.1,0.2-0.2,0.1-0.2,0
							C136.4,608.1,136.4,607.5,136.4,606.8z"/>
						<path class="st0" d="M146.9,606.8h3.2c-0.1,0.3-0.1,0.3-0.2,0.3c-1,0.1-0.8,0.4-0.2,1.5l1.5,2.4c0,0,0,0,0.1,0l1.2-2
							c0.9-1.5,0.7-1.8-0.2-1.9c-0.2,0-0.2-0.1-0.2-0.3h2.9c-0.1,0.3-0.1,0.3-0.3,0.3c-0.4,0.1-0.5,0.2-1.2,1.4l-1.8,3.2v0.9
							c0,2.4,0.1,2.4,1.1,2.5c-0.1,0.3-0.1,0.4-0.3,0.4h-3c0-0.2,0.1-0.4,0.2-0.4c0.8-0.2,0.8-0.2,0.8-2V612l-2-3.4
							c-0.6-1.1-0.6-1.3-1.2-1.4C146.8,607.1,146.8,607.1,146.9,606.8z"/>
					</g>
					<g>
						<path class="st0" d="M89.1,626.7c-0.4-1-0.5-1.3-1-1.4c-0.2,0-0.1-0.1-0.1-0.4h3c-0.1,0.3-0.1,0.4-0.3,0.4
							c-0.8,0.1-0.8,0.2-0.3,1.4l2,4.9c0,0,0.1,0,0.1,0l1.7-4.4c0.6-1.6,0.7-1.8-0.3-1.9c-0.3,0-0.3-0.1-0.2-0.4h2.8
							c-0.1,0.3-0.2,0.4-0.3,0.4c-0.5,0.1-0.6,0.2-1.1,1.4l-2.8,7.1c-0.1,0.1-0.2,0.1-0.3,0L89.1,626.7z"/>
						<path class="st0" d="M100.1,625.4c-0.2,0-0.2-0.2-0.1-0.4h2.8c-0.1,0.3-0.1,0.4-0.3,0.4c-0.5,0-0.5,0-0.5,1.6v4.2
							c0,2.1,0,2.1,0.9,2.1c-0.1,0.3-0.1,0.4-0.3,0.4h-2.6c0.1-0.2,0.1-0.4,0.2-0.4c0.6-0.1,0.6-0.1,0.6-1.9v-4.2
							C100.7,625.4,100.7,625.4,100.1,625.4z"/>
						<path class="st0" d="M109.7,625c-0.1,0.3-0.1,0.4-0.3,0.4c-0.5,0-0.6,0-0.6,1.6v6c0,0.1,0,0.2,0.2,0.2c0.3,0,0.9,0,1.4,0
							c1.9-0.1,2-0.5,2.6-1.6c0.1-0.1,0.3-0.1,0.2,0.1l-0.6,2c0,0.1-0.1,0.1-0.2,0.1c-0.4,0-1-0.1-2-0.1h-3.3c-0.1,0-0.2-0.1,0-0.2
							c0.5-0.2,0.5-0.3,0.5-1.7v-4.6c0-1.9,0-1.8-0.7-1.9c-0.2,0-0.2-0.2-0.1-0.4H109.7z"/>
						<path class="st0" d="M119.5,625c-0.1,0.3-0.1,0.4-0.3,0.4c-0.5,0-0.6,0-0.6,1.6v6c0,0.1,0,0.2,0.2,0.2c0.3,0,0.9,0,1.4,0
							c1.9-0.1,2-0.5,2.6-1.6c0.1-0.1,0.3-0.1,0.2,0.1l-0.6,2c0,0.1-0.1,0.1-0.2,0.1c-0.4,0-1-0.1-2-0.1H117c-0.2,0-0.2-0.1,0-0.2
							c0.5-0.2,0.5-0.3,0.5-1.7v-4.6c0-1.9,0-1.8-0.7-1.9c-0.2,0-0.2-0.2-0.1-0.4H119.5z"/>
						<path class="st0" d="M134.1,633.4c-0.1,0.3-0.1,0.4-0.3,0.4h-2.6c0-0.3,0-0.4,0.2-0.4c0.8,0,0.6-0.3,0.2-1.4l-0.4-1.1h-3.1
							l-0.6,1.7c-0.2,0.7-0.1,0.7,0.7,0.7c-0.1,0.3-0.1,0.4-0.3,0.4h-2.2c0-0.3,0-0.4,0.2-0.4c0.4-0.1,0.5-0.2,1-1.4l2.8-7.1
							c0.1-0.1,0.2-0.1,0.3,0l2.9,7.1C133.5,633.1,133.6,633.4,134.1,633.4z M129.8,627l-1.3,3.4h2.6L129.8,627
							C129.8,627,129.8,627,129.8,627z"/>
					</g>
				</g>
			</g>
		</g>
	</g>
</g>
</svg>
