<?xml version="1.0" encoding="utf-8"?>
<!-- Generator: Adobe Illustrator 27.0.0, SVG Export Plug-In . SVG Version: 6.00 Build 0)  -->
<svg version="1.1" id="圖層_1" xmlns="http://www.w3.org/2000/svg" xmlns:xlink="http://www.w3.org/1999/xlink" x="0px" y="0px"
	 viewBox="0 0 750 1334" style="enable-background:new 0 0 750 1334;" xml:space="preserve">
<style type="text/css">
	.st0{fill:#FFFFFF;}
	.st1{fill:url(#SVGID_1_);}
	.st2{fill:url(#SVGID_00000180356140524806843760000013769467184646605969_);}
	.st3{fill:#831F24;}
	.st4{fill:#3D9475;}
</style>
<g>
	
		<rect x="380.8" y="1268.5" transform="matrix(5.257187e-03 -1 1 5.257187e-03 -878.8058 1654.1973)" class="st0" width="22.6" height="0.7"/>
	<g>
		<g>
			<path class="st0" d="M275,1271.2l0.4-0.2c0.1,0.3,0.3,0.4,0.6,0.4c0.2,0,0.3,0,0.4-0.1s0.1-0.2,0.1-0.3v-0.1v-0.1
				c0,0,0,0-0.1-0.1c0,0,0,0-0.1-0.1c0,0,0,0-0.1-0.1h-0.1c0,0-0.1,0-0.1-0.1s-0.1,0-0.1-0.1c-0.3-0.2-0.5-0.3-0.7-0.4
				c-0.1-0.1-0.2-0.3-0.2-0.5c0-0.3,0.1-0.5,0.3-0.6c0.2-0.2,0.4-0.2,0.7-0.2c0.2,0,0.4,0,0.6,0.1s0.3,0.2,0.3,0.4l-0.4,0.2
				c-0.1-0.2-0.3-0.3-0.5-0.3c-0.1,0-0.2,0-0.3,0.1c-0.1,0.1-0.1,0.2-0.1,0.3c0,0.1,0,0.2,0.1,0.3c0.1,0.1,0.2,0.1,0.4,0.2h0.1
				c0.3,0.1,0.5,0.3,0.6,0.4s0.2,0.3,0.2,0.5c0,0.3-0.1,0.5-0.3,0.7c-0.2,0.2-0.4,0.3-0.8,0.3c-0.3,0-0.5-0.1-0.6-0.2
				C275.1,1271.6,275,1271.5,275,1271.2z"/>
			<path class="st0" d="M277.5,1268.8h0.5v1.9c0,0.6,0.3,0.8,0.8,0.8s0.8-0.3,0.8-0.8v-1.9h0.5v1.9c0,0.8-0.4,1.3-1.3,1.2
				c-0.8,0-1.3-0.4-1.3-1.3V1268.8z"/>
			<path class="st0" d="M280.8,1271.9v-3.2l2,1.9c0.1,0.1,0.2,0.2,0.3,0.4v-2.2h0.5v3.2l-2-1.9c-0.1-0.1-0.2-0.2-0.3-0.3v2.2
				L280.8,1271.9z"/>
			<path class="st0" d="M272.2,1276.5v-1.4l-1-1.7h0.5l0.6,1.1c0,0.1,0.1,0.1,0.1,0.2c0-0.1,0.1-0.2,0.1-0.3l0.7-1h0.5l-1.1,1.7v1.4
				L272.2,1276.5z"/>
			<path class="st0" d="M277.1,1275c0,0.5-0.2,0.8-0.5,1.1c-0.3,0.3-0.7,0.5-1.2,0.5s-0.9-0.2-1.2-0.5c-0.3-0.3-0.5-0.7-0.5-1.2
				s0.2-0.8,0.5-1.2c0.3-0.3,0.7-0.5,1.2-0.5s0.8,0.2,1.2,0.5C276.9,1274.1,277.1,1274.5,277.1,1275z M276.6,1275
				c0-0.3-0.1-0.6-0.3-0.8c-0.2-0.2-0.5-0.3-0.8-0.3s-0.6,0.1-0.8,0.3c-0.2,0.2-0.3,0.5-0.3,0.8s0.1,0.6,0.3,0.8
				c0.2,0.2,0.5,0.3,0.8,0.3s0.6-0.1,0.8-0.3S276.6,1275.3,276.6,1275z"/>
			<path class="st0" d="M277.7,1273.4h0.5v1.9c0,0.6,0.3,0.8,0.8,0.8s0.8-0.3,0.8-0.8v-1.9h0.5v1.9c0,0.8-0.4,1.3-1.3,1.2
				c-0.8,0-1.3-0.4-1.3-1.3V1273.4z"/>
			<path class="st0" d="M280.9,1276.5v-3.2l2,1.9c0.1,0.1,0.2,0.2,0.3,0.4v-2.2h0.5v3.2l-2-1.9c-0.1-0.1-0.2-0.2-0.3-0.3v2.2
				L280.9,1276.5z"/>
			<path class="st0" d="M286.1,1275h1.2c0,0.2,0,0.3,0,0.3c0,0.4-0.1,0.8-0.4,1s-0.6,0.4-1.1,0.4s-0.9-0.2-1.2-0.5
				c-0.3-0.3-0.5-0.7-0.5-1.2s0.2-0.9,0.5-1.2c0.3-0.3,0.7-0.5,1.2-0.5s0.9,0.2,1.2,0.5l-0.4,0.3c-0.2-0.2-0.5-0.4-0.8-0.4
				s-0.6,0.1-0.8,0.3c-0.2,0.2-0.3,0.5-0.3,0.8c0,0.4,0.1,0.6,0.3,0.9c0.2,0.2,0.5,0.3,0.8,0.3s0.5-0.1,0.7-0.2s0.2-0.3,0.3-0.5l0,0
				h-0.7L286.1,1275z"/>
		</g>
	</g>
	<g>
		
			<linearGradient id="SVGID_1_" gradientUnits="userSpaceOnUse" x1="-535.9614" y1="85.7317" x2="-535.9614" y2="72.979" gradientTransform="matrix(-1 -5.100000e-03 5.100000e-03 -1 -261.4739 1338.6051)">
			<stop  offset="0" style="stop-color:#7B2702"/>
			<stop  offset="1" style="stop-color:#D52C17"/>
		</linearGradient>
		<path class="st1" d="M266.2,1268.3v-5.4l11.7-7.1c0,0,1-0.6,2.1,0c0.9,0.6,3.6,2.2,3.6,2.2L266.2,1268.3z"/>
		
			<linearGradient id="SVGID_00000026130962807485498360000001143450876994747011_" gradientUnits="userSpaceOnUse" x1="-3276.4202" y1="73.3958" x2="-3276.4202" y2="86.1475" gradientTransform="matrix(1 5.100000e-03 5.100000e-03 -1 3559.0693 1358.5057)">
			<stop  offset="0" style="stop-color:#E49619"/>
			<stop  offset="1" style="stop-color:#DC7300"/>
		</linearGradient>
		<path style="fill:url(#SVGID_00000026130962807485498360000001143450876994747011_);" d="M291.7,1268.4v-5.4l-11.6-7.2
			c0,0-1-0.6-2.1,0c-0.9,0.6-3.6,2.2-3.6,2.2L291.7,1268.4z"/>
		<polygon class="st3" points="266.2,1269 266.2,1269.3 279.8,1261.4 279.6,1261.2 		"/>
	</g>
	<g>
		<g>
			<path class="st0" d="M305.7,1272.7v1.4l-10.6-0.1v-1.4h4.2v-8.8h1.5v3.3h4.1v1.4h-4.1v4L305.7,1272.7z"/>
			<path class="st0" d="M310.5,1270.1c-0.3,0.1-0.7,0.2-1,0.3v2.8c0,0.7-0.1,1.1-0.5,1.3c-0.4,0.2-0.9,0.3-1.7,0.3
				c0-0.4-0.2-1-0.4-1.4c0.5,0,0.9,0,1.1,0c0.1,0,0.2,0,0.2-0.2v-2.4l-1.3,0.3l-0.3-1.3c0.4-0.1,1-0.2,1.6-0.4v-2.1h-1.4v-1.3h1.4
				v-2.2h1.3v2.2h1v1.3h-1v1.8l0.9-0.2L310.5,1270.1z M313,1269.7c-0.1,0.2-0.2,0.4-0.4,0.6h4.5c0,0,0,0.3,0,0.5
				c-0.1,2.2-0.3,3.2-0.6,3.5c-0.2,0.3-0.4,0.4-0.8,0.4c-0.3,0-0.7,0-1.2,0c0-0.4-0.1-0.8-0.3-1.2c0.4,0,0.7,0.1,0.9,0.1
				c0.2,0,0.3,0,0.4-0.1c0.2-0.2,0.3-0.7,0.4-2.1h-0.4c-0.6,1.4-1.4,2.6-2.3,3.4c-0.2-0.2-0.7-0.5-0.9-0.7c0.9-0.6,1.6-1.6,2.1-2.7
				h-0.6c-0.7,1.3-1.8,2.3-2.9,3c-0.2-0.2-0.6-0.6-0.9-0.8c1-0.5,1.8-1.3,2.5-2.3h-0.6c-0.4,0.4-0.7,0.8-1.1,1
				c-0.2-0.2-0.6-0.6-0.9-0.7c0.7-0.5,1.4-1.2,1.9-1.9h-1.2v-1.1h7v1.1L313,1269.7z M316.7,1268.1h-5.4v-3.9h5.4V1268.1z
				 M315.4,1265.1h-2.9v0.6h2.9V1265.1z M315.4,1266.6h-2.9v0.6h2.9V1266.6z"/>
			<path class="st0" d="M328.7,1264.4l-0.1,10.4h-1.4v-0.5H320v0.5h-1.3l0.1-10.4H328.7z M327.3,1273.1v-7.5h-1.4
				c0.4,0.2,0.8,0.5,1,0.7l-0.5,0.5h0.6v1h-2.1c0.1,0.7,0.1,1.3,0.2,1.8c0.2-0.5,0.4-0.9,0.6-1.5l1.1,0.2c-0.3,1-0.7,1.9-1.2,2.7
				c0.1,0.4,0.3,0.6,0.5,0.6c0.1,0,0.2-0.4,0.3-1.1c0.2,0.2,0.6,0.5,0.9,0.7c-0.2,1.4-0.8,1.9-1.6,1.5c-0.3-0.1-0.6-0.4-0.9-0.8
				c-0.4,0.4-0.8,0.7-1.2,1c-0.2-0.2-0.5-0.7-0.8-0.8c0.1-0.1,0.3-0.2,0.4-0.2c-0.9,0.1-1.8,0.3-2.6,0.4l-0.1-1
				c0.9-0.1,2.1-0.2,3.3-0.4v0.6c0.2-0.2,0.4-0.4,0.6-0.6c-0.2-0.8-0.4-1.9-0.5-3.1h-3.2v-1h3.2c0-0.3,0-0.7-0.1-1h1.1
				c0,0.3,0,0.7,0,1h1.3c-0.2-0.2-0.6-0.5-0.9-0.6l0.6-0.5h-5.6v7.5L327.3,1273.1z M323.4,1270.5h-2.6v-2.2h2.6V1270.5z M322.5,1269
				h-0.8v0.7h0.8V1269z"/>
			<path class="st0" d="M335.4,1269c-0.4,0.4-0.8,0.7-1.2,1c-0.1-0.2-0.4-0.6-0.6-0.8c0.1,0.4,0.1,0.8,0.1,1.1
				c0,0.7-0.1,1.2-0.5,1.5c-0.2,0.1-0.4,0.2-0.6,0.3c-0.2,0-0.5,0-0.7,0c0-0.3-0.1-0.8-0.3-1.1c0.2,0,0.3,0,0.5,0
				c0.1,0,0.2,0,0.3-0.1c0.1-0.1,0.2-0.4,0.2-0.7c0-0.6-0.1-1.3-0.7-2.2c0.2-0.7,0.4-1.7,0.6-2.4h-0.9v9.2h-1.2l0.1-10.4h2.4h0.2
				l0.8,0.5c-0.1,0.5-0.3,1-0.5,1.5c0.6-0.6,1.1-1.5,1.4-2.4l1,0.2c-0.1,0.2-0.1,0.4-0.2,0.6h0.9h0.2l0.7,0.3v0.2l0.6-0.1v-0.5h1.8
				l0.2-0.1l0.7,0.4c-0.3,1-0.9,2-1.4,2.7c0.4,0.6,1,1.1,1.6,1.5c-0.3,0.2-0.6,0.7-0.8,1c-0.5-0.3-1-0.8-1.4-1.2v0.7h-3.4
				L335.4,1269z M335,1267.8c0.1-0.2,0.3-0.4,0.4-0.6c-0.2-0.2-0.5-0.5-0.8-0.7c-0.2,0.3-0.5,0.6-0.7,0.8c-0.1-0.1-0.4-0.4-0.6-0.6
				c-0.1,0.4-0.2,0.8-0.4,1.1c0.3,0.5,0.5,0.9,0.6,1.3c0.5-0.3,0.9-0.6,1.3-1.1c-0.5,0.1-0.8,0.1-1.3,0.2l-0.1-0.9
				c0.5,0,1-0.1,1.6-0.2V1267.8z M335.9,1272.3c-0.4,0.7-1.1,1.6-1.6,2.1c-0.3-0.2-0.8-0.6-1.1-0.7c0.5-0.5,1.1-1.2,1.4-1.8
				L335.9,1272.3z M337.8,1271.5v3.4h-1.3v-3.4h-2.2v-1.1h5.6v1.1H337.8z M335.2,1265.7l-0.1,0.1c0.2,0.2,0.5,0.4,0.7,0.6
				c0.1-0.2,0.2-0.5,0.3-0.7H335.2z M338.5,1268.5c-0.6-0.8-1-1.7-1.3-2.8c-0.3,1.1-0.8,2-1.3,2.8H338.5z M338.3,1265.5
				c0.1,0.4,0.3,0.8,0.5,1.1c0.2-0.3,0.4-0.7,0.6-1.1H338.3z M339.3,1271.7c0.5,0.6,1.2,1.4,1.6,1.9l-1.1,0.7c-0.3-0.5-1-1.4-1.5-2
				L339.3,1271.7z"/>
			<path class="st0" d="M345.3,1268.1c-0.2,1.7-0.5,3.1-0.9,4.2c1.1,0.9,2.5,1.1,4.2,1.2c0.7,0,3.1,0,3.9,0
				c-0.2,0.3-0.4,0.9-0.5,1.3h-3.4c-2,0-3.6-0.3-4.7-1.3c-0.4,0.6-0.8,1.1-1.3,1.4c-0.2-0.3-0.7-0.7-1-0.9c0.6-0.4,1-0.9,1.4-1.5
				c-0.4-0.6-0.7-1.3-1-2.3l1-0.3c0.1,0.5,0.3,1,0.6,1.4c0.2-0.6,0.4-1.3,0.5-2.1h-1.9c0.5-0.9,1.1-2.1,1.6-3.3h-1.7v-1.2h3.6
				c-0.4,1-1,2.3-1.5,3.3h0.3h0.2L345.3,1268.1z M347.8,1266h-2v-1h2v-0.9h1.3v0.9h2.6v1.6h0.6v1.1h-0.6v1.5h-2.6v0.6h2.7v1h-2.7
				v0.6h3.1v1.1h-3.1v0.8h-1.3v-0.8h-2.6v-1.1h2.6v-0.6h-2.1v-1h2.1v-0.6h-2v-1h2v-0.5h-2.6v-1.1h2.6V1266z M349.1,1266v0.5h1.3
				v-0.5H349.1z M350.4,1267.5h-1.3v0.5h1.3V1267.5z"/>
			<path class="st0" d="M364.1,1265.8h-2c0.2,0.2,0.5,0.5,0.6,0.7l-1,0.7h0.8v2.2c0,0.2,0,0.3,0,0.3l0.1,0.1h0.2c0.1,0,0.1,0,0.1,0
				s0.1-0.1,0.1-0.2s0-0.4,0.1-0.8c0.2,0.2,0.6,0.4,0.9,0.5c0,0.4-0.1,0.9-0.2,1.1s-0.2,0.3-0.4,0.4c-0.2,0.1-0.4,0.1-0.6,0.1h-0.6
				c-0.3,0-0.6-0.1-0.8-0.3c-0.2-0.2-0.3-0.4-0.3-1l-0.5,0.8c-0.2-0.1-0.5-0.3-0.8-0.4c-0.2,0.2-0.4,0.4-0.7,0.6h0.2v0.7h4.6v1.1
				h-3.1c1,0.4,2.3,1,3,1.5l-1,0.9c-0.6-0.5-2-1.2-2.9-1.6l0.9-0.8h-1.5v2.6h-1.4v-2.6h-4.6v-1.1h4.6v-0.7h0.2
				c-0.2-0.1-0.3-0.3-0.5-0.4v0.1c-1.4,0.2-2.9,0.4-4.1,0.5l-0.1-1.1c0.4,0,1-0.1,1.6-0.2v-1.4h-1.4v-1h2.9
				c-0.2-0.3-0.6-0.7-0.9-1.1l0.4-0.3h-0.8c-0.4,0.5-0.8,0.9-1.2,1.2c-0.2-0.3-0.6-0.7-0.9-1c0.7-0.5,1.4-1.3,1.8-2l1.2,0.4
				c-0.1,0.1-0.1,0.2-0.2,0.4h2.6v1h-1.7c0.3,0.3,0.5,0.6,0.7,0.8l-0.8,0.6h0.9v1h-1.4v1.3c0.4-0.1,0.9-0.1,1.3-0.2v0.9
				c0.5-0.2,0.9-0.4,1.1-0.7c-0.3-0.2-0.7-0.3-1-0.5l0.5-0.8c0.3,0.1,0.5,0.2,0.8,0.4c0-0.1,0-0.1,0-0.2v-0.4h-1.1v-0.9h3.5
				c-0.2-0.3-0.6-0.7-0.9-1.1l0.4-0.3h-0.9c-0.3,0.5-0.7,0.9-1,1.2c-0.2-0.2-0.7-0.6-1-0.8c0.7-0.5,1.3-1.3,1.6-2.1l1.2,0.3
				c-0.1,0.1-0.1,0.3-0.2,0.4h3.2L364.1,1265.8z M357.5,1272.8c-0.7,0.9-2,1.7-3.2,2c-0.2-0.3-0.6-0.9-0.9-1.1
				c1.2-0.2,2.4-0.7,3-1.3L357.5,1272.8z M360.4,1268.4c0,0.2,0,0.4-0.1,0.6c0.3,0.2,0.6,0.3,0.9,0.5v-0.2v-1.3h-0.8V1268.4z"/>
			<path class="st0" d="M375.3,1264.5l-0.1,10.5h-1.3v-0.5h-7.2v0.6h-1.2l0.1-10.5L375.3,1264.5z M373.9,1273.4v-7.8h-7.2v7.8H373.9
				z M373.7,1271.7h-1.5v0.7c0,0.4-0.1,0.6-0.4,0.7s-0.8,0.1-1.4,0.1c-0.1-0.2-0.2-0.5-0.3-0.7c0.3,0,0.7,0,0.8,0
				c0.1,0,0.2,0,0.2-0.1v-0.7H369c0.3,0.3,0.6,0.7,0.8,0.9l-0.9,0.4c-0.2-0.3-0.5-0.7-0.8-1.1l0.7-0.3H367v-0.7h4.1v-0.3h1.1v0.3
				h0.6c-0.1-0.1-0.2-0.3-0.3-0.4c-1.9,0.1-3.8,0.1-5.3,0.1v-0.7c0.7,0,1.6,0,2.6,0v-0.4h-2.3v-2.4h2.3v-0.3h-2.6v-0.7h2.6v-0.4h1.1
				v0.4h2.7v0.7h-2.7v0.3h2.3v2.4h-0.6c0.4,0.3,0.7,0.6,1,0.9l-0.6,0.5h0.7L373.7,1271.7z M368.5,1268.1h1.3v-0.3h-1.3V1268.1z
				 M369.8,1269v-0.3h-1.3v0.3H369.8z M370.9,1267.8v0.3h1.2v-0.3H370.9z M372.1,1268.7h-1.2v0.3h1.2V1268.7z M370.9,1270h0.9
				l-0.1-0.1l0.4-0.3h-1.2L370.9,1270z"/>
			<path class="st0" d="M380.7,1265.1c-0.3,1-0.7,2.3-1,3.2c0.7,0.9,0.8,1.7,0.8,2.3c0,0.8-0.2,1.2-0.5,1.5
				c-0.2,0.1-0.4,0.2-0.7,0.3c-0.2,0-0.5,0-0.7,0c0-0.3-0.1-0.9-0.3-1.2c0.2,0,0.4,0,0.5,0s0.2,0,0.3-0.1c0.1-0.1,0.2-0.3,0.2-0.7
				c0-0.5-0.1-1.3-0.8-2.1c0.2-0.7,0.5-1.7,0.7-2.5h-0.9v9.1h-1.2l0.1-10.4h2.5l0.2-0.1L380.7,1265.1z M387.3,1268.5
				c-0.4,0.3-0.9,0.6-1.4,0.8c0.4,1.2,1.1,2.5,1.7,3.2c-0.3,0.2-0.7,0.6-0.9,0.9c-0.7-0.8-1.4-2.3-1.8-3.6l0,0
				c0.5,1.9,0.3,3.8-0.4,4.4c-0.4,0.4-0.8,0.6-1.4,0.6c-0.2,0-0.6,0-0.9,0c0-0.4-0.1-0.9-0.3-1.2c0.4,0,0.8,0.1,1,0.1
				c0.3,0,0.5,0,0.6-0.3c0.2-0.2,0.4-0.8,0.4-1.5c-0.9,0.7-2,1.3-2.9,1.6c-0.2-0.3-0.5-0.7-0.8-1c1.3-0.4,2.8-1.2,3.6-2
				c0-0.2-0.1-0.4-0.2-0.6c-0.7,0.5-1.6,1.1-2.3,1.4c-0.2-0.3-0.5-0.7-0.7-1c0.9-0.3,2-0.9,2.6-1.4c-0.1-0.2-0.3-0.4-0.4-0.6
				c-0.6,0.4-1.3,0.8-1.9,1.1c-0.2-0.2-0.6-0.7-0.8-1c0.9-0.3,1.7-0.8,2.4-1.3h-2v-1.2h1.8c-0.3-0.4-0.7-0.8-1.1-1.2l1-0.6
				c0.5,0.4,1.1,1,1.4,1.4l-0.6,0.4h1c0.4-0.5,0.8-1.3,1.1-1.8l1.3,0.4c-0.3,0.5-0.7,1-1,1.4h1.7v1.2H384c-0.2,0.2-0.3,0.3-0.5,0.5
				c0.3,0.4,0.6,0.8,0.8,1.2c0.7-0.4,1.4-0.9,1.9-1.3L387.3,1268.5z"/>
		</g>
	</g>
	<path class="st0" d="M405.6,1273.2v1.4l-10.6-0.1v-1.4h4.2v-8.8h1.5v3.3h4.1v1.4h-4.1v4L405.6,1273.2z"/>
	<path class="st0" d="M410.3,1270.6c-0.3,0.1-0.7,0.2-1,0.3v2.8c0,0.7-0.1,1.1-0.5,1.3c-0.4,0.2-0.9,0.3-1.7,0.3
		c0-0.4-0.2-1-0.4-1.4c0.5,0,0.9,0,1.1,0c0.1,0,0.2,0,0.2-0.2v-2.4l-1.3,0.3l-0.3-1.3c0.4-0.1,1-0.2,1.6-0.4v-2.1h-1.4v-1.3h1.4
		v-2.2h1.3v2.2h1v1.3h-1v1.8l0.9-0.2L410.3,1270.6z M412.8,1270.2c-0.1,0.2-0.2,0.4-0.4,0.6h4.5c0,0,0,0.3,0,0.5
		c-0.1,2.2-0.3,3.2-0.6,3.5c-0.2,0.3-0.4,0.4-0.8,0.4c-0.3,0-0.7,0-1.2,0c0-0.4-0.1-0.8-0.3-1.2c0.4,0,0.7,0,0.9,0.1
		c0.2,0,0.3,0,0.3-0.1c0.2-0.2,0.3-0.7,0.4-2.1h-0.4c-0.6,1.4-1.4,2.6-2.3,3.4c-0.2-0.2-0.7-0.5-0.9-0.7c0.9-0.6,1.6-1.6,2.1-2.7
		h-0.6c-0.7,1.3-1.8,2.3-2.9,3c-0.2-0.2-0.6-0.6-0.9-0.8c1-0.5,1.8-1.3,2.5-2.3h-0.6c-0.4,0.4-0.7,0.8-1.1,1
		c-0.2-0.2-0.6-0.6-0.9-0.7c0.7-0.5,1.4-1.2,1.9-1.9h-1.2v-1.1h7v1.1L412.8,1270.2z M416.5,1268.6h-5.4v-3.9h5.4V1268.6z
		 M415.2,1265.6h-2.9v0.6h2.9V1265.6z M415.2,1267.1h-2.9v0.6h2.9V1267.1z"/>
	<path class="st0" d="M428.5,1264.9l-0.1,10.4H427v-0.5h-7.2v0.5h-1.3l0.1-10.4H428.5z M427.1,1273.6v-7.5h-1.4
		c0.4,0.2,0.8,0.5,1,0.7l-0.5,0.5h0.6v1h-2.1c0.1,0.7,0.1,1.3,0.2,1.8c0.2-0.5,0.4-0.9,0.6-1.5l1.1,0.2c-0.3,1-0.7,1.9-1.2,2.7
		c0.1,0.3,0.3,0.6,0.5,0.6c0.1,0,0.2-0.4,0.3-1.1c0.2,0.2,0.6,0.5,0.9,0.7c-0.2,1.4-0.8,1.9-1.6,1.5c-0.3-0.1-0.6-0.4-0.9-0.8
		c-0.4,0.4-0.8,0.7-1.2,1c-0.2-0.2-0.5-0.7-0.8-0.8c0.1-0.1,0.3-0.2,0.4-0.2c-0.9,0.1-1.8,0.3-2.6,0.4l-0.1-1
		c0.9-0.1,2.1-0.2,3.3-0.4v0.6c0.2-0.2,0.4-0.4,0.6-0.6c-0.2-0.8-0.4-1.9-0.5-3.1h-3.2v-1h3.2c0-0.3,0-0.7-0.1-1h1.1
		c0,0.3,0,0.7,0,1h1.3c-0.2-0.2-0.6-0.5-0.9-0.6l0.6-0.5h-5.6v7.5L427.1,1273.6z M423.2,1271h-2.6v-2.2h2.6V1271z M422.3,1269.5
		h-0.8v0.7h0.8V1269.5z"/>
	<path class="st0" d="M435.2,1269.5c-0.4,0.4-0.8,0.7-1.2,1c-0.1-0.2-0.4-0.6-0.6-0.8c0.1,0.4,0.1,0.8,0.1,1.1
		c0,0.7-0.1,1.2-0.5,1.5c-0.2,0.1-0.4,0.2-0.6,0.3c-0.2,0-0.5,0-0.7,0c0-0.3-0.1-0.8-0.3-1.1c0.2,0,0.3,0,0.5,0c0.1,0,0.2,0,0.3-0.1
		c0.1-0.1,0.2-0.4,0.2-0.7c0-0.6-0.1-1.3-0.7-2.2c0.2-0.7,0.4-1.7,0.6-2.4h-0.9v9.2h-1.2l0.1-10.4h2.4h0.2l0.8,0.5
		c-0.1,0.5-0.3,1-0.5,1.5c0.6-0.6,1.1-1.5,1.4-2.4l1,0.2c-0.1,0.2-0.1,0.4-0.2,0.6h0.9h0.2l0.7,0.3v0.2l0.6-0.1v-0.5h1.8l0.2-0.1
		l0.7,0.4c-0.3,1-0.9,2-1.4,2.7c0.4,0.6,1,1.1,1.6,1.5c-0.3,0.2-0.6,0.7-0.8,1c-0.5-0.3-1-0.8-1.4-1.2v0.7h-3.4L435.2,1269.5z
		 M434.8,1268.3c0.1-0.2,0.3-0.4,0.4-0.6c-0.2-0.2-0.5-0.5-0.8-0.7c-0.2,0.3-0.5,0.6-0.7,0.8c-0.1-0.1-0.4-0.4-0.6-0.6
		c-0.1,0.4-0.2,0.8-0.4,1.1c0.3,0.5,0.5,0.9,0.6,1.3c0.5-0.3,0.9-0.6,1.3-1.1c-0.5,0.1-0.8,0.1-1.3,0.2l-0.1-0.9
		c0.5,0,1-0.1,1.6-0.2V1268.3z M435.7,1272.8c-0.4,0.7-1.1,1.6-1.6,2.1c-0.3-0.2-0.8-0.6-1.1-0.7c0.5-0.5,1.1-1.2,1.4-1.8
		L435.7,1272.8z M437.6,1272v3.4h-1.3v-3.4h-2.2v-1.1h5.6v1.1H437.6z M435,1266.2l-0.1,0.1c0.2,0.2,0.5,0.4,0.7,0.6
		c0.1-0.2,0.2-0.5,0.3-0.7H435z M438.3,1269c-0.6-0.8-1-1.7-1.3-2.8c-0.3,1.1-0.8,2-1.3,2.8H438.3z M438.1,1266
		c0.1,0.4,0.3,0.8,0.5,1.1c0.2-0.3,0.4-0.7,0.6-1.1H438.1z M439.1,1272.3c0.5,0.6,1.2,1.4,1.6,1.9l-1.1,0.7c-0.3-0.5-1-1.4-1.5-2
		L439.1,1272.3z"/>
	<path class="st0" d="M452.2,1267.8v1h-2.1l-0.1,0.9h-6.7l0.1-0.9h-1.8v-1h2l0.1-0.9h6.6l-0.1,0.9H452.2z M449.1,1273.8
		c1,0.3,2,0.6,2.7,0.8l-0.9,0.8c-0.8-0.3-2.2-0.8-3.5-1.1l0.5-0.5h-2.1l0.7,0.5c-1,0.5-2.6,0.9-4,1.1c-0.2-0.3-0.5-0.7-0.7-0.9
		c1-0.1,2.2-0.4,3.1-0.7h-1.7v-3.8h7.6v3.8L449.1,1273.8z M443.2,1267.5H442v-2h4.3c-0.1-0.2-0.2-0.5-0.3-0.7l1.2-0.3
		c0.2,0.3,0.4,0.7,0.5,1h4.3v2h-1.3v-1h-7.4L443.2,1267.5z M444.4,1271h4.8v-0.3h-4.8V1271z M444.4,1272.1h4.8v-0.4h-4.8V1272.1z
		 M444.4,1273.1h4.8v-0.4h-4.8V1273.1z M444.6,1269h1.5v-0.4h-1.5V1269z M444.8,1267.6v0.3h1.5v-0.3H444.8z M448.8,1269v-0.4h-1.5
		v0.4H448.8z M448.9,1267.6h-1.5v0.3h1.5V1267.6z"/>
	<path class="st0" d="M457.5,1273.6c-0.8,0.7-2.2,1.3-3.4,1.5c-0.2-0.3-0.5-0.7-0.8-1c1.2-0.2,2.5-0.5,3.2-1L457.5,1273.6z
		 M463.7,1271.7v1.1h-4.5v2.7h-1.4v-2.7h-4.4v-1.1h4.4v-0.5h-3.4v-1h3.4v-0.5h-3.9v-1h2.1c-0.1-0.3-0.3-0.6-0.4-0.9l0.8-0.2h-3v-1.1
		h1.6c-0.2-0.4-0.5-1-0.7-1.4l1.2-0.4c0.3,0.5,0.7,1.2,0.9,1.6l-0.6,0.2h1.1v-1.9h1.3v1.9h0.9v-1.9h1.3v1.9h1l-0.4-0.1
		c0.3-0.5,0.6-1.2,0.8-1.7l1.5,0.3c-0.3,0.5-0.6,1.1-0.9,1.5h1.5v1.1h-3.1l1.1,0.3c-0.3,0.3-0.5,0.5-0.7,0.7h2.2v1h-4v0.5h3.5v1
		h-3.5v0.5L463.7,1271.7z M457,1267.5c0.2,0.3,0.4,0.6,0.5,0.9l-0.6,0.1h3.2l-0.4-0.1c0.2-0.3,0.4-0.6,0.6-0.9H457z M460.6,1273.1
		c0.9,0.4,2.3,0.9,3.1,1.3l-1,0.8c-0.7-0.4-2-1-3-1.4L460.6,1273.1z"/>
	<path class="st0" d="M465.3,1270.8c0-2.3,0.7-4.2,1.8-6l1.1,0.5c-1,1.7-1.4,3.7-1.4,5.6s0.4,3.9,1.4,5.6l-1.1,0.4
		C465.9,1275,465.3,1273.1,465.3,1270.8z"/>
	<path class="st0" d="M479.6,1270c-0.4,1.5-1.1,2.6-2,3.5c0.7,0.4,1.4,0.7,2.3,0.9c-0.3,0.3-0.7,0.8-0.9,1.2c-1-0.3-1.8-0.7-2.5-1.2
		c-0.7,0.5-1.6,0.8-2.5,1.1c-0.1-0.4-0.4-0.9-0.7-1.2c0,0.4-0.2,0.7-0.4,0.9c-0.3,0.2-0.8,0.3-1.5,0.2c0-0.3-0.2-0.9-0.3-1.3
		c0.4,0,0.7,0,0.8,0c0.1,0,0.2,0,0.2-0.2v-2.3c-0.3,0.2-0.6,0.4-0.9,0.6l-0.3-0.8c-0.1,1.5-0.3,3-0.7,4.2c-0.2-0.2-0.8-0.5-1.1-0.6
		c0.6-1.6,0.7-3.9,0.7-5.6v-4.2h3.7v3.5c1.3-0.6,1.4-1.5,1.4-2.2v-1.2h3.9v2.6c0,0.3,0,0.5,0.2,0.5h0.5c0.2,0,0.4,0,0.6-0.1
		c0,0.3,0.1,0.8,0.1,1.1c-0.2,0.1-0.4,0.1-0.7,0.1h-0.6c-1.1,0-1.3-0.5-1.3-1.6v-1.2h-1.4l0,0c0,1.1-0.3,2.4-1.9,3.1
		c-0.1-0.2-0.5-0.6-0.8-0.9v5.3c0,0.1,0,0.2,0,0.3c0.8-0.2,1.5-0.5,2.2-0.8c-0.6-0.7-1.1-1.4-1.5-2.3l0.6-0.2H474v-1.3h4.7l0.3-0.1
		L479.6,1270z M470.9,1269.3c0,0.5,0,1,0,1.6c0.3-0.1,0.8-0.3,1.2-0.4v-1.3l-0.5,0.4c-0.2-0.2-0.4-0.6-0.7-0.9V1269.3z M471,1266.3
		v1.4l0.3-0.2c0.3,0.3,0.6,0.6,0.8,0.9v-2.1L471,1266.3z M475.3,1271c0.3,0.6,0.7,1.2,1.3,1.7c0.5-0.5,0.9-1,1.3-1.6L475.3,1271z"/>
	<path class="st0" d="M480.9,1276.4c1-1.7,1.4-3.6,1.4-5.6c0-1.9-0.4-3.9-1.4-5.6l1.1-0.4c1.1,1.8,1.7,3.7,1.7,6s-0.7,4.2-1.8,6
		L480.9,1276.4z"/>
</g>
<g>
	<g>
		<g>
			
				<image style="overflow:visible;opacity:0.6;" width="565" height="238" xlink:href="B4BD2648.png"  transform="matrix(1 0 0 1 149.1266 367.1266)">
			</image>
			<g>
				<g>
					<path class="st0" d="M589.2,523.5c4-2.7,4-6.3,2.9-10.1c-0.3-0.9-1.2-1.7-2-2.2c-2.1-1.2-4.2-2.3-6.4-3.3
						c-2.4-1.1-4.8-2.1-7.3-3.1c-1.1-0.4-1.9-0.4-2.2,1.2c-0.3,1.3-1,2.7-1.9,3.7c-1.6,1.9-3.5,3.5-5.2,5.2c-1.7,1.7-4.5,1.6-6,3.8
						c-0.5,0.8-1.9,1-2.8,1.5c-1.7,1-3.1,0.4-3.2-1.6c-0.2-3-0.3-6-0.3-9c0-5.2,1.5-10.1,3.3-15c0.5-1.4,1-2.9,1.1-4.4
						c0.4-4,0.7-8.1,1.1-12.1c0.3-3.2,1-3.6,4.1-4.1c3-0.5,5.9-1.1,8.8-1.9c2-0.6,2.6-2.3,2.4-4.3c-0.3-2.4-0.7-4.8-2.9-6.3
						c-0.1-0.1-0.4,0-0.5-0.1c-3.2-1.1-6.3-2.3-9.5-3.4c-0.9-0.3-1.2-1-1.2-2c0.2-3.8,0.4-7.6,0.3-11.4c-0.2-7.5-0.9-15-3.3-22.2
						c-0.9-2.6-1.6-5.3-4.1-6.8c-1.1-0.7-2.5-0.8-3.6-1.4c-3.1-1.6-6.2-3.3-9.3-5c-1.8-1-3.6-2-5.7-3.1c-0.3,1.1-0.7,1.8-0.7,2.6
						c0.3,2.6,0.5,5.3,1.3,7.8c1,3.6,3.6,6.2,6.1,8.9c3,3.2,4.9,6.9,4.9,11.4c0,3.1,0.3,6.2,0.3,9.2c0.1,5.5,0.1,11,0,16.5
						c0,3.1-0.4,3.3-3.4,4c-1,0.2-1.8,1.1-2.7,1.7c0.1,0.2,0.1,0.3,0.2,0.5c-0.8-0.2-1.7-0.6-2.5-0.6c-1.1,0.1-2.5,0.2-3.1,0.8
						c-1.1,1.1-2.1,1.3-3.4,1c-2.4-0.6-4.9-1.2-7.4-1.6c-3.3-0.6-6.7-1-10-1.4c-2.7-0.3-5.5-0.8-8.2-0.7c-1.2,0-2.1,0.4-3.2-0.6
						c-1.1-1-2.9-0.1-3.2,1.5c-0.1,0.7-0.2,1.5,0,2.2c1,5.3,3.2,10,7.1,13.6c1,0.9,2.7,1.6,4.1,1.6c2.7-0.1,5.6-0.3,8.2-1.1
						c4.9-1.6,9.5-3.7,14.3-5.3c3.3-1.1,6.7-1.8,10.1-2.6c1.4-0.3,2.2,0.3,2,2c-0.2,1.3-0.4,2.7-0.4,4c-0.1,4.2-0.1,8.4-0.4,12.6
						c-0.3,4.2-1,8.3-4,11.6c-1,1.1-1.8,2.6-2,4.1c-0.3,2.2-1.6,3.3-3.5,3.7c-3.8,0.9-7.7,1.7-11.5,2.5c-1.8,0.4-3.2,1.2-4.1,2.8
						c-1.4,2.4-2.8,4.8-4.4,7c-2.4,3.2-2.3,6.5-1.1,10c2.1,6.2,7.3,10.4,12.9,10.6c2.7,0.1,4.9-1.3,6.9-2.7
						c7.1-5,14.1-10.2,21.2-15.1c3.4-2.4,7-4.6,10.5-6.8c0.9-0.5,2.2-0.5,3.6-0.7c-2.1,3.6-3.9,6.7-5.6,9.7c-0.3,0.5-1,0.8-1.5,1.3
						c-0.5,0.5-0.8,1.3-1.2,1.9c-0.7-0.3-1.3-0.6-1.9-0.9c-0.4,0.7-0.8,1.3-1.2,2c-0.9,1.8-0.5,4.4,0.8,5.6c1.2,1.1,2.9,1.1,4.9-0.4
						c2.2-1.7,4.3-3.5,6.3-5.5c2.7-2.8,5.8-4.8,9.4-6.3C583.3,527,586.4,525.4,589.2,523.5z"/>
					<path class="st0" d="M496.4,541.8c-1.2,0.1-2.6-0.6-3.8-1.2c-2.2-1.2-4.3-2.8-6.5-4c-1.6-0.9-3.4-1.8-5.2-2
						c-3.7-0.5-7.5-0.8-11.3-0.8c-5.9,0.1-11.8-0.7-17.6,1.4c-0.9,0.3-2.1,0.2-3.1,0.1c-4.6-0.2-9.1-0.3-13.7-0.7
						c-14.2-1.1-27.7-4.7-40.5-10.8c-6.1-2.9-12.2-6.1-18.2-9.1c-0.3-0.2-0.6-0.4-0.9-0.6c-1-0.5-1.2-1.3-0.8-2.3
						c0.7-1.7,1.4-3.5,2.3-5.2c4.9-9.4,11-18.1,17.3-26.6c3.9-5.2,8.3-10.2,12.5-15.3c1.2-1.4,2.6-1.5,4.1-0.7
						c3.6,1.9,7,1.1,10.3-0.6c2.4-1.2,3.4-3,2.7-5.6c-0.5-1.8-1.3-3.7-2.6-5.1c-1.5-1.6-3.4-3-5.4-4c-4.3-2.2-8.8-4.2-13.2-6.1
						c-0.7-0.3-1.8-0.1-2.5,0.3c-4.5,2.6-8.9,5.2-13.3,8c-1.4,0.9-2.6,2-3.6,3.3c-2.5,3.1-4.8,6.3-7.2,9.5
						c-7.6,10.1-15,20.4-20.9,31.7c-3.5,6.7-6.8,13.5-7.5,21.2c-0.1,0.9-0.1,1.8-0.3,2.7c-0.6,2.2-1.3,4.4-2,6.6
						c-0.6,1.9-1,3.9-2,5.6c-0.9,1.6-2.4,2.9-3.5,4.4c-0.6,0.9-1.2,2.1-1.2,3.1c0.4,7.1,3,13,9.7,16.4c6.1,3.1,11.8-0.4,12.2-7.1
						c0.1-2.4,0-4.9,0.9-7c1.7-3.9,4.7-7,8.9-8.5c5.5-2,10.9-1.6,16,0.9c6.4,3.1,12.6,6.8,19,10.1c2.7,1.4,5.6,2.9,8.5,3.5
						c5.8,1.3,11.8,2,17.7,2.9c8,1.2,15.9,2.1,24,1.5c3.6-0.3,7.2,0,10.8,0c0,0.3,0.1,0.5,0.1,0.8c-7.8,2.5-15.5,5-23.4,7.6
						c1,3.6,2,4,5.1,2.8c2.7-1,5.4-2,8.2-2.5c9.9-1.8,19.8-3.4,29.7-5.2c4.6-0.8,9.2-1.4,13.3-3.6c0.6-0.3,1.5-0.8,1.7-1.3
						C502.2,546.5,499.9,541.6,496.4,541.8z"/>
					<path class="st0" d="M171.7,548.5c0.5,0.4,1.3,0.7,2,0.9c3,0.9,5.6-0.3,8.2-1.6c7.4-3.7,14.7-7.7,22.1-11.3
						c4.9-2.4,10-4.5,15.1-6.2c4-1.3,6.5,0.2,7.6,4.3c0.9,3.3,1.2,6.7,1.8,10c0.7,3.8,1.1,7.7,2.3,11.4c1.8,5.3,5.6,7.7,11.1,7.3
						c6.7-0.5,7.5-3.2,6.3-8c-0.6-2.6-1.9-5-3-7.4c-1.5-3.1-3.4-6.1-4.7-9.2c-1.9-4.6-0.8-8.3,3-11.4c1.5-1.3,3.3-2.4,5-3.3
						c7.6-4.1,15.8-6.3,24.2-7.7c4.1-0.7,8.2-1,12.3-1.4c0.5,0,1.1,0.6,1.6,1c-0.4,0.5-0.8,1-1.3,1.4c-0.6,0.6-1.7,1.1-1.9,1.8
						c-1.1,3.1-3.2,5-6,6.2c-1.2,0.5-1.2,1.1-0.8,2.1c0.4,0.9,0.6,1.9,1.1,3.3c-0.7-0.3-0.9-0.4-1.1-0.5c-1.6-0.8-3.2-1.9-5-1
						c-1.6,0.7-3.5,1.4-4.6,2.7c-0.8,0.9-1.4,1.2-2.4,1.3c-3.3,0.2-6.5,0.5-9.8,0.8c-1.6,0.1-2.1,1.2-2.2,2.6
						c-0.1,0.8,0,1.6,0.2,2.4c0.8,3.7,2.5,6.9,5,9.6c2.9,3.1,6.1,5.1,10.7,4c2.3-0.5,4.8-0.6,7.2-0.8c3.2-0.2,6.5-0.2,9.7-0.4
						c4.1-0.3,7.9-1.3,11.5-3.3c3.5-2,4.3-7.7,0.4-9.8c-1.7-0.9-3.4-1.8-5.2-2.6c-2.7-1.2-5.5-2.2-8.6-3.4c1.1-0.9,1.9-1.6,2.8-2.1
						c5.6-2.8,11.2-5.5,16.8-8.4c3.7-1.9,7.4-3.9,11-6.1c1.1-0.7,2.1-2,2.4-3.3c0.7-3.2-1.6-7.3-4.7-8.7c-1.7-0.7-3.4-1.3-5.2-1.8
						c-3.2-1-6.4-1.9-8.9-4.4c-0.9-0.9-1.7-0.4-2.6,0.3c-0.9,0.7-2,1.1-3.1,1.6c-1.1,0.5-2.2,0.8-3.2,1.3c-1.3-0.1-2.6,0-3.9,0.2
						c-0.4,0.1-0.7,0.7-1.1,0.9c-3.7,1.2-7.5,2.4-11.4,3.6c-0.1,0.5-0.1,1.2-0.2,2.2c-1-0.2-1.8-0.3-2.6-0.5
						c-4.2-0.7-5.3-0.1-6.6,3.8c-2-1.9-4.5-1.7-6.9-1.2c-1.7,0.4-3.3,1-4.9,1.5c-2.9,1-5.8,1.7-9.6,1c1.1-1.6,1.8-2.9,2.7-4
						c2.2-2.6,4.8-4.8,6.5-7.6c1.9-3.2,4.4-5.7,6.9-8.4c4.3-4.6,8.3-9.4,12-14.5c4.2-5.7,7.8-11.7,11.8-17.6
						c2.3-3.4,4.9-6.7,7.1-10.2c1.2-1.9,1.5-4.3,2.7-6.1c2.4-3.6,5-7.1,7.7-10.4c2-2.5,0.8-8-2.2-9.3c-4-1.8-8-3.6-12-5.4
						c-6.4-2.9-6.1-4-12.2,2c-1.4,1.3-3,2.5-4.8,3.3c-2.9,1.2-6,2-9,3c-2.1,0.7-4.2,0.8-6.5-0.2c1-1.4,1.8-2.7,2.8-3.9
						c4.6-5.8,9.3-11.6,15.8-15.6c0.5-0.3,0.9-1.2,0.9-1.8c-0.1-3.2-0.4-6.3-2-9.2c-1.4-2.4-3.3-4.2-6-5c-1.7-0.5-3.4-0.8-5-1.5
						c-2.6-1.2-5-2.8-7.6-3.9c-1.7-0.7-3.5-0.7-4.6-2.8c-0.5,0.9-1,1.6-1,2.4c-0.1,3.3,0.9,6.2,2.5,9c1.6,2.7,3,5.5,4.4,8.3
						c-0.1,0.1-0.3,0.2-0.4,0.3c-0.5-0.2-1-0.4-1.6-0.7c-0.2,0.3-0.4,0.6-0.5,0.8c-1.4,4.8-4.9,8.2-8.4,11.5
						c-4.8,4.6-10.1,8.7-16.5,10.8c-2.2,0.7-2.6,1.3-2.2,3.6c0.6,4.7,2.6,8.8,5.6,12.3c1.3,1.5,3.3,2.7,5.3,3.3
						c1.6,0.5,3.6,0.3,5.2-0.2c4.1-1.2,8-2.8,12-4.3c4.5-1.8,8.9-3.8,13.5-5.4c2.7-0.9,5.6-1,8.6,0c-0.5,0.9-0.8,1.6-1.2,2.2
						c-7.3,10-14.6,19.9-22.1,29.8c-2.4,3.2-5.3,6-8.1,8.9c-0.4,0.4-1.6,0.6-2.2,0.4c-1.7-0.6-3.3-1.3-4.9-2.2
						c-3-1.7-5.9-3.4-8.7-5.3c-2.3-1.5-4.2-3.4-7-4c-3.7-0.8-7.1-2.4-10.2-4.7c-1-0.7-2-1.4-3.1-1.9c-2-0.9-2.8-0.2-2.8,2
						c0.2,8,4,13.5,11.3,16.6c3.4,1.5,6.9,2.8,10.4,4c3.4,1.3,6.4,3.1,9,5.6c-2.4,2.9-4.8,5.7-7.1,8.6c-0.6,0.5-1.5,0.8-2.2,1.4
						c-1.6,1.3-3.1,2.7-4.6,4.2c-6.3,6.1-12.5,12.4-19.1,18.2c-2.9,2.5-5.9,4.8-8.3,7.8c-0.8,1-2.2,1.7-3.5,2.2
						c-2,0.8-4,1.4-6.1,1.9c-5.3,1.5-10.7,2.9-16,4.3c-1.1,0.3-1.4,0.8-1.3,1.9C165.8,541.5,167.9,545.5,171.7,548.5z"/>
					<path class="st0" d="M682.2,498.6c-0.4-1.8-0.8-3.2-2.5-4.1c-5.2-2.7-10.4-5.2-15.5-8.1c-4.5-2.5-9.2-3-14.1-2.8
						c-1.7,0.1-3.3,0.3-3.8,2.4c-0.1,0.3-0.5,0.8-0.8,0.8c-3-0.1-5.7,0.9-8.4,2.8c0.1-0.6,0-1,0.1-1.2c1.2-4.5,2.6-8.9,3.4-13.4
						c1.2-6.4,4.4-11.5,9.3-15.7c5.4-4.6,10.7-9.2,17.9-11c1.5-0.4,3-1.4,4.3-2.3c2.2-1.4,3-3.8,1.9-6c-0.8-1.5-2.1-3-3.6-3.9
						c-1.7-1.1-3.8-1.6-5.7-2.3c-3.3-1.2-6.7-2.1-9-4.9c-0.8-0.9-1.7-1.1-2.5,0.2c-0.8,1.3-1.7,2.6-2.6,3.8
						c-0.7,0.9-1.4,1.8-2.2,2.3c-4,2.7-8.6,3.9-13.4,4.5c-1.2,0.1-2.6-0.4-3.6-1c-1.5-0.9-1.8-1-2.7,0.7c-0.7,1.4-1.5,2.9-2.2,4.2
						c-1.2-0.3-2.1-0.8-2.9-0.6c-2.3,0.5-4.6,1.2-6.8,1.9c-1.4,0.4-2.1-0.1-1.7-1.4c0.6-1.8,1.2-3.7,2.3-5.3c2.9-4,7.1-6.5,11.4-8.6
						c8.3-4,16.7-7.7,24.9-11.7c2.5-1.2,4.9-2.7,7.2-4.3c2.2-1.6,1.9-7-0.2-8c-3.4-1.7-6.7-3.4-10.1-5.2c-3.7-1.9-7.5-3.4-11.8-3.1
						c-2.7,0.2-5.3,0-8,0c-0.5,0-1.3,0.3-1.4,0.7c-0.3,1-0.6,2.1-0.3,3c0.8,2.3,1.7,4.5,2.9,6.6c1.1,1.9,2.7,3.6,4.1,5.4
						c-1,1.3-2.1,2.4-2.9,3.7c-1.1,1.6-1.6,3.8-4.1,4c-0.3,0-0.5,0.5-0.9,0.7c-2.9,1.5-3.9,5.6-7.6,6.1c-0.2,0-0.3,0.2-0.4,0.3
						c-1.3,2.1-3.1,3.6-5.6,4c-0.2,0-0.5,0.5-0.5,0.9c-0.1,1.6-1.1,1.7-2.4,1.6c-1.7-0.1-3.4-0.4-4.9,1c-0.8,0.8-1.1,2.2-2.7,2
						c-0.1,0-0.4,0.7-0.4,1.1c-0.1,0.6,0,1.3,0,2.1c-3-1-5.2-0.5-6.7,2.3c-0.4,0.7-1.6,1.1-2.5,1.3c-1.3,0.3-2.6,0.4-4,0.5
						c-1.3,0.1-1.8,0.6-1.7,2c0.3,4.2,1.7,8,4.4,11.2c2.1,2.5,4.4,4.7,7.9,5.2c3,0.4,5.6-0.6,7.9-2.1c4.6-3,9.1-6.1,13.7-9.1
						c1.4-0.9,2.8-1.8,4.2-2.7c0.1,0.1,0.3,0.2,0.4,0.3c-1.1,3.8-1.9,7.7-3.2,11.4c-3.8,10.3-7.8,20.4-11.7,30.7
						c-0.5,1.2-1,2.1-2.5,2.2c-1.4,0.1-1.8,0.9-1.9,2.1c-0.4,2.6-0.8,5.3-1.6,7.8c-3.9,11.8-9.3,23-14.6,34.2
						c-1.9,4.1-3.8,8.1-5.7,12.3c-1.1-0.6-2-1.3-3.1-1.7c-1.1-0.5-2-0.4-2.5,1c-0.8,2.3-1.9,4.5-2.9,6.7c-0.2,0.5-0.4,1.2-0.4,1.7
						c0.4,5.3,2.3,9.9,5.9,13.8c3.4,3.6,9.3,3.9,13,0.6c0.8-0.7,1.5-2.3,1.2-3.1c-1.6-4.7,1.2-7.7,3.7-10.8c2.5-3.1,5.3-5.9,7.8-8.9
						c1.6-1.9,3.1-4,4.1-5.3c2.7,2.3,5.2,4.5,7.8,6.6c9.8,8,21,11.5,33.7,10.2c3-0.3,5.4-1.7,7-4.6c2.9-5.2,5.9-10.3,9-15.5
						c1.3-2.2,3.1-4.2,4.3-6.5c1.2-2.2,2.1-4.5,2.9-6.9C680.5,518,684.5,508.8,682.2,498.6z M659.7,505.2
						c-1.2,8.4-5.8,15.3-9.9,22.4c-2.2,3.9-5,7.5-7.6,11.1c-1.6,2.1-3.1,4.4-6.3,4.4c-0.3,0-0.7,0.8-1,1.2c-1.1-0.9-2.1-1.4-3.2-0.4
						c-0.3,0.3-1,0.4-1.4,0.3c-3.7-1.2-7.4-2.3-11-3.8c-2.5-1.1-2.8-2.1-1.7-4.7c3.1-7.4,6.4-14.8,9.6-22.2c0.3-0.7,0.9-1.4,1.6-1.7
						c5.4-2.3,10.9-4.5,16.4-6.7c4.1-1.6,8.3-2.8,12.8-2.3C659.7,503.1,660,503.5,659.7,505.2z"/>
				</g>
			</g>
		</g>
		<g>
			
				<image style="overflow:visible;opacity:0.6;" width="135" height="299" xlink:href="B4BD2649.png"  transform="matrix(1 0 0 1 51.1266 366.1266)">
			</image>
			<g>
				<g>
					<g>
						<g>
							<g>
								<path class="st0" d="M121,405c1.1-0.3,2.2-0.7,3.3-1c0.4-0.1,0.8-0.2,1.1-0.3c0-0.1,0-0.1,0-0.2c-0.6,0-1.2,0-1.8,0.1
									c-0.6,0.1-1.2,0.3-1.8,0.4c-0.4,0-0.6,0.1-0.9,0.4c-0.1,0.1-0.1,0.1-0.2,0.1c-0.5,0.1-1,0.4-1.5,0.4c-0.1,0-0.1,0-0.2,0.1
									c-0.1,0.1-0.3,0.2-0.4,0.2c-0.3,0.1-0.4,0.3-0.5,0.6c0.8,0,1.4-0.7,2.2-0.5C120.5,405.1,120.8,405.1,121,405z"/>
								<polygon class="st0" points="120.4,405.4 120.4,405.4 120.4,405.4 								"/>
								<path class="st0" d="M129.5,401.5c0-0.1-0.1-0.1-0.2-0.1c-0.5-0.2-1-0.3-1.4-0.6c-0.1-0.1-0.3-0.1-0.4-0.1
									c-0.8-0.2-1.6,0.2-2.3,0.4c-0.9,0.2-1.8,0.5-2.6,0.8c-0.3,0.1-0.7,0.1-1,0.2c0,0,0-0.1-0.1-0.1c0.8-0.5,1.2-1.5,2.1-2
									c0.6-0.3,1.1-0.7,1.6-1.1c0.3-0.2,0.5-0.3,0.8-0.5c0.1-0.1,0.2-0.2,0.1-0.2c-0.1-0.3-0.1-0.7-0.4-0.9
									c-0.6-0.6-1.4-0.9-2.3-0.8c-0.4,0-0.9,0.1-1.3,0c-0.4-0.1-0.5,0.1-0.6,0.4c-0.1,0.5-0.4,0.9-0.8,1.2
									c-0.3,0.3-0.6,0.6-0.9,0.9c-0.1,0.2-0.1,0.4-0.2,0.6c-0.3,0.5-0.6,0.9-1,1.3c-0.5,0.5-1,1-1.4,1.6c-0.3,0.4-0.6,0.8-0.9,1.2
									c-0.1,0.1-0.3,0.1-0.4,0.2c0-0.1-0.1-0.2-0.1-0.3c0.1-0.4,0.2-0.7,0.4-1.1c0.2-0.4,0.5-0.7,0.5-1c0-0.4,0.2-0.5,0.4-0.7
									c0.2-0.3,0.5-0.5,0.9-0.4c0,0.2,0,0.3-0.1,0.4c0,0,0.1,0,0.1,0c0.2-0.3,0.7-0.3,0.9-0.9c-0.3,0.1-0.5,0.2-0.7,0.2
									c0,0-0.1,0-0.1-0.1c0.4-0.2,0.4-0.5,0.2-0.8c-0.1-0.1-0.2-0.3-0.3-0.4c-0.1-0.1-0.3-0.3-0.3-0.4c-0.2-0.5-0.4-0.9-0.1-1.4
									c0.1-0.1,0.1-0.3,0.1-0.5c0-0.4,0.2-0.8,0.4-1.2c0.2-0.2,0.3-0.6,0.3-0.9c0-0.4,0.1-0.6,0.4-0.8c0.1-0.1,0.2-0.2,0.4-0.4
									c-0.2,0-0.3,0.1-0.5,0.1c0-0.3,0.2-0.4,0.5-0.4c0.3,0,0.6,0.1,0.9-0.1c0.3-0.2,0.6-0.2,1-0.2c0.7,0,1.5,0,2.2-0.3
									c0.5-0.2,0.9-0.7,1.5-0.3c0,0,0,0,0.1,0c0,0,0-0.1,0-0.1c-0.2-1-0.3-2.1-0.5-3.1c0,0,0-0.1-0.1-0.1c-0.2-0.3-0.6-0.7-0.7-1
									c-0.2-0.5-0.5-0.8-0.9-1.2c-0.6-0.6-1.4-0.7-2.3-0.6c-0.3,0-0.6,0.1-0.9,0.2c-0.2,0-0.4,0.1-0.5,0.1c-0.3,0-0.6,0.1-0.9,0.1
									c0,0-0.1-0.1-0.1-0.1c-0.1-0.1-0.3-0.2-0.4-0.3c-0.2-0.2-0.5-0.5-0.7-0.8c-0.2-0.2-0.4-0.4-0.6-0.5
									c-0.2-0.2-0.5-0.3-0.6-0.5c-0.1-0.2-0.2-0.4-0.2-0.7c0-0.5-0.3-0.7-0.7-0.9c-0.5-0.3-1.6-0.3-2.1,0.1
									c-0.1,0-0.1,0.1-0.2,0.2c0,0-0.1,0.1-0.1,0.1c-0.4,0-0.4,0.4-0.6,0.6c0,0.1,0,0.1-0.1,0.2c-0.4,0.4-0.3,1-0.3,1.5
									c-0.1,0.4,0.2,0.8,0.3,1.1c0.2,0.5,0.1,1.2,0.1,1.8c0,0.4-0.2,0.9-0.4,1.2c-0.1,0.2-0.5,0.3-0.7,0.5c-0.3,0.2-0.7,0.4-1,0.6
									c-0.4,0.2-0.8,0.3-1.1,0.6c-0.4,0.4-0.8,0.5-1.2,0.8c-0.5,0.4-1.1,0.8-1.7,1.1c-0.5,0.3-0.9,0.7-1.5,0.9
									c-0.8,0.3-1.5,0.6-2,1.3c-0.4,0.5-0.7,0.9-1.4,0.9c-0.1,0-0.3,0.2-0.3,0.3c0,0.2,0.1,0.4,0.4,0.4c0.2,0,0.4,0,0.5,0
									c0.1,0,0.2,0.1,0.3,0.1c0.3,0.4,0.5,0.8,0.8,1.2c0,0.1,0,0.2,0,0.3c0,0.6,0.2,1.2,0.6,1.6c0.3,0.4,0.9,0.7,1.3,1
									c0.3,0.2,0.6,0.2,0.8,0c0.2-0.2,0.4-0.4,0.6-0.6c0.2-0.3,0.3-0.8,0.6-1.1c0.4-0.4,0.4-1.1,1-1.3c0,0,0.1,0,0.1-0.1
									c-0.1-0.4,0.3-0.4,0.4-0.6c0.3-0.2,0.6-0.5,0.9-0.7c0.4-0.2,0.8-0.3,1.2-0.4c0.1,0,0.2,0,0.3,0c0,0.2-0.1,0.3,0,0.4
									c0.2,0.4,0.3,0.8,0.2,1.3c0,0.1,0,0.2,0,0.3c0.2,0.4,0,0.6-0.3,0.8c-1,0.6-1.9,1.2-3.1,1.5c-0.2,0.1-0.5,0.2-0.3,0.5
									c0.1,0.3-0.1,1-0.4,1.2c-0.3,0.2-0.4,0.5-0.3,0.8c0.3,0.8,0.6,1.6,1.1,2.3c0.5,0.8,1.9,1,2.5,0.4c0.2-0.2,0.4-0.5,0.5-0.5
									c0.2,0,0.4,0.3,0.6,0.5c0,0,0.1,0.1,0.1,0.1c0.3,0.4,0.2,0.5-0.2,0.7c-0.2,0.1-0.4,0.2-0.5,0.4c-0.2,0.3-0.4,0.4-0.8,0.4
									c-0.1,0-0.4,0.1-0.4,0.1c-0.1,0.4-0.4,0.5-0.7,0.7c-0.4,0.2-0.7,0.4-1.1,0.7c-0.2-0.1-0.4,0-0.5,0.3c0,0.1-0.1,0.2-0.2,0.2
									c-0.8,0.6-1.6,1.2-2.4,1.8c-0.8,0.6-1.5,1.3-2.2,2c-0.3,0.3-0.5,0.7-0.9,1c-0.3,0.3-0.8,0.4-1.1,0.6
									c-0.5,0.3-0.8,0.8-0.8,1.4c0,0.4,0.1,0.9,0.2,1.4c0.1,0.7,0.6,1.1,1.2,1.4c0.2,0.1,0.4,0.1,0.5,0.2c0.2,0.1,0.3,0.2,0.6,0
									c0.1-0.1,0.3-0.2,0.5-0.2c0.5,0,0.6-0.1,0.7-0.6c0-0.2,0.1-0.6,0.2-0.6c0.6-0.1,0.6-0.6,0.6-1c0-0.5,0.2-0.8,0.6-1.1
									c0.1-0.1,0.1-0.2,0.2-0.3c0.4-0.4,0.7-0.8,1.1-1.1c1.8-1.3,3.5-2.7,5.5-3.7c0.3-0.1,0.5-0.4,0.8-0.7
									c0.1-0.1,0.2-0.2,0.3-0.3c0.8-0.3,1.6-0.6,2.3-1c0.4-0.1,0.7-0.3,1.1-0.5c0.2-0.1,0.4-0.1,0.6-0.2c0.5-0.3,0.9-0.7,1.3-1
									c0.8-0.6,1.7-1.2,2.7-1.4v0c-0.8-0.2-1.4,0.4-2.2,0.5c0.1-0.3,0.2-0.5,0.5-0.6c0.2,0,0.3-0.1,0.4-0.2c0.1,0,0.1-0.1,0.2-0.1
									c0.5,0,1-0.2,1.5-0.4c0.1,0,0.2-0.1,0.2-0.1c0.2-0.3,0.5-0.4,0.9-0.4c0.6-0.1,1.2-0.3,1.8-0.4c0.6-0.1,1.2-0.1,1.8-0.1
									c0,0.1,0,0.1,0,0.2c-0.4,0.1-0.8,0.2-1.1,0.3c-1.1,0.3-2.2,0.7-3.3,1c-0.2,0.1-0.5,0.1-0.6,0.3h0l0,0c0,0,0,0,0,0
									c0.2,0,0.4-0.1,0.6-0.1c0.4-0.1,0.9-0.1,1.3-0.3c1-0.4,2-0.6,3-0.8c0.9-0.1,1.8,0.1,2.6-0.4c0.5-0.3,1.1-0.2,1.5-0.8
									C129.4,402.7,129.7,401.8,129.5,401.5z M109.1,408.3c0,0,0,0.1,0.1,0.1c-0.6,0.4-1.2,0.8-1.9,1.2
									C107.4,409.2,108.7,408.3,109.1,408.3z M109,409c-0.3,0.2-0.6,0.4-0.9,0.5c0,0-0.1-0.1-0.1-0.2c0.3-0.2,0.6-0.4,0.8-0.6
									C109,408.9,109,409,109,409z M103.7,412.3c0.4-0.7,3.1-2.7,3.5-2.6C106.1,410.6,104.9,411.5,103.7,412.3z M106.4,410.8
									C106.3,410.8,106.3,410.8,106.4,410.8C106.3,410.8,106.3,410.8,106.4,410.8c-0.4,0.3-0.6,0.6-0.9,0.9
									c-0.1,0.1-0.3,0.1-0.4,0.2C105.4,411.4,105.8,411.1,106.4,410.8C106.3,410.8,106.3,410.8,106.4,410.8
									C106.3,410.8,106.3,410.8,106.4,410.8c0.3-0.3,0.7-0.6,1-0.9c0,0,0.1,0.1,0.1,0.1C107.2,410.4,106.9,410.7,106.4,410.8z
									 M108.1,410.5c0-0.1-0.1-0.1-0.1-0.2c0.6-0.3,1.2-0.6,1.8-0.9c0,0.1,0.1,0.1,0.1,0.2C109.2,409.8,108.7,410.2,108.1,410.5z
									 M109.3,408.8c0.1-0.4,0.3-0.5,0.5-0.4c0,0,0,0.1,0.1,0.1C109.7,408.6,109.6,408.7,109.3,408.8z M109.5,407.9
									c0.3-0.1,0.6-0.3,0.8-0.4c0,0.1,0,0.1,0.1,0.2C110.1,407.8,110,408.2,109.5,407.9z M111.6,408.5c0-0.1-0.1-0.1-0.1-0.2
									c0.3-0.2,0.7-0.3,1-0.4c0,0,0,0.1,0.1,0.1C112.3,408.2,111.9,408.4,111.6,408.5z M120.6,399.2c0,0-0.2-0.1-0.3-0.1
									c0-0.5,0.8-1,1.1-0.9c0.1,0,0.1,0.3,0.1,0.3C121.2,398.8,120.9,399,120.6,399.2z M128.5,403.3c-0.2,0-0.3-0.1-0.5-0.1
									c0-0.1,0.1-0.2,0.1-0.2c0.2,0,0.4-0.1,0.6,0.2C128.6,403.3,128.6,403.3,128.5,403.3z"/>
								<path class="st0" d="M106.3,410.8C106.3,410.8,106.3,410.8,106.3,410.8C106.3,410.8,106.3,410.8,106.3,410.8
									C106.3,410.8,106.3,410.8,106.3,410.8C106.3,410.8,106.3,410.8,106.3,410.8z"/>
							</g>
							<g>
								<path class="st0" d="M122.8,441.8c-0.2-0.2-0.4-0.4-0.6-0.6c0,0,0.1-0.1,0.1-0.1c0.1,0,0.2,0,0.4-0.1
									c-0.1-0.2-0.2-0.4-0.3-0.6c-0.2-0.4-0.4-0.8-0.7-1.2c-0.4-0.8-0.2-1.7-0.3-2.6c0-0.5,0.1-1.1,0.2-1.6c0-0.1,0-0.3,0.1-0.4
									c0.1-0.5,0.1-1,0.2-1.5c0.1-0.4,0.2-0.8,0-1.2c-0.1-0.1-0.1-0.3-0.1-0.5c0-0.4,0-0.7,0-1.1c0-0.6-0.1-1.2-0.1-1.8
									c0-1.1,0-2.3,0-3.4c0-0.6-0.2-1.2-0.2-1.8c-0.1-1.4-0.1-2.8-0.1-4.2c0-0.2,0.1-0.5,0.1-0.8c0.3,0.1,0.5,0.1,0.6,0.1
									c0.1-0.2,0.2-0.4,0.2-0.5c0-0.3-0.1-0.7-0.2-1c-0.3-0.5-0.4-1-0.3-1.6c0.1-0.6-0.3-1-0.8-1.3c-0.2-0.1-0.3-0.3-0.5-0.4
									c-0.3-0.3-0.5-0.6-0.8-0.8c-0.2-0.2-0.4-0.3-0.3-0.6c0-0.1-0.1-0.3-0.2-0.4c-0.4-0.1-0.9-0.3-1.3-0.3c-0.5,0-1,0-1.4,0.1
									c-0.7,0.3-1.3,0.7-1.9,1.1c-0.2,0.1-0.5,0.3-0.7,0.4c-0.7,0.5-1.2,1.1-1.8,1.8c-0.3,0.4-0.8,0.5-1.2,0.8
									c-0.5,0.2-1.1,0.3-1.4,0.8c-0.1,0.2-0.4,0.5-0.4,0.7c-0.1,0.5-0.2,1,0.2,1.4c0,0,0,0,0,0.1c0,0.6,0.2,1.2-0.2,1.8
									c0,0,0,0.1,0,0.1c0,0.3-0.1,0.6,0,0.8c0,0.3,0.1,0.6,0.1,0.8c0.1,0.4,0.2,0.8,0.2,1.1c0,0.6-0.2,1.3-0.3,1.9
									c-0.1,0.9-0.1,1.8-0.2,2.8c0,0.6-0.1,1.2-0.2,1.7c0,0.4-0.1,0.7-0.1,1.1c0,0.5,0.1,1.1,0.1,1.6c0,0.4,0,0.7,0,1.1
									c0,0.4,0,0.8-0.3,1.1c-0.1,0.1-0.1,0.4-0.1,0.6c0,0.8,0.1,1.6,0.1,2.3c0,0.3,0,0.6,0.1,0.8c0.1,0.6,0.3,1.1,0.4,1.7
									c0,0.2,0,0.5,0.1,0.7c0.3,0.6,0.6,1.2,0.9,1.8c0.1,0.1,0.1,0.3,0.2,0.5c0.2,0.4,0.4,0.8,0.8,1.1c0.5,0.3,1.1,0.6,1.5,1
									c0.4,0.4,0.8,1,1.5,0.7c0,0,0.1,0,0.1,0c0.6,0.4,1.2,0.3,1.8,0.1c0.4-0.1,0.5-0.3,0.5-0.7c0-0.2,0-0.3,0-0.5
									c-0.1-0.5-0.3-1-0.4-1.6c0-0.1-0.1-0.2-0.2-0.3c-0.3-0.1-0.3-0.4-0.4-0.6c0-0.1-0.1-0.2-0.1-0.4c-0.1-0.5-0.5-0.9-0.2-1.4
									c0.2-0.5,0.1-0.9-0.2-1.2c0,0,0-0.1,0-0.2c0-0.3-0.3-0.8-0.5-0.8c-0.4,0-0.5-0.3-0.7-0.6c-0.1-0.2-0.2-0.4-0.2-0.5
									c-0.2-0.4-0.5-0.8-0.6-1.3c-0.2-0.6-0.1-1.3-0.3-1.9c-0.2-0.6-0.2-1.2-0.2-1.8c0-0.5,0.2-1.1,0.3-1.6
									c0.1-0.2,0.3-0.5,0.3-0.7c0.1-0.4,0.1-0.9,0.2-1.3c0-0.2,0.2-0.4,0-0.6c0,0,0.1-0.2,0.2-0.3c0.1-0.2,0.2-0.3,0.3-0.4
									c0.1-0.3,0.1-0.6,0.1-0.8c0.1-0.5,0.2-0.9,0.4-1.3c0.1-0.3,0.3-0.6,0.5-0.9c0.2-0.2,0.4-0.2,0.4,0.1c0,0.5,0.5,0.8,0.3,1.4
									c0,0,0.1,0.1,0.2,0.2c0.1-0.2,0.2-0.4,0.2-0.6c0-0.7,0.2-1.4-0.2-2.1c0.5,0.2,0.9,0.4,1.3,0.5c0.1,0,0.1,0.2,0.1,0.3
									c0,0.3-0.2,0.7-0.1,1c0.1,1.2-0.3,2.2-0.5,3.3c-0.1,0.4-0.1,0.8,0.2,1.2c-0.2,0-0.4,0.1-0.5,0.1c-0.1-0.2-0.2-0.4-0.2-0.6
									c0-0.3,0-0.5,0-0.8c0-0.1-0.2-0.3-0.3-0.3c-0.4-0.1-0.5-0.2-0.4-0.6c0-0.2,0-0.4,0-0.6c-0.1,0-0.1,0-0.2,0
									c-0.1,0.3-0.1,0.6-0.2,0.9c0,0.2,0,0.4,0,0.6c-0.1,0.5,0,0.9,0.4,1.2c0.2,0.2,0.4,0.3,0.3,0.7c-0.1,0.5-0.2,1-0.1,1.4
									c0,0.4,0.2,0.9,0.4,1.2c0.5,0.6,0.7,1.2,1,1.9c0.1,0.2,0.1,0.5,0.2,0.6c0.4,0.4,0.8,0.7,1.3,1c0.5,0.3,0.6,0.7,0.4,1.2
									c-0.1,0.3-0.2,0.5,0,0.8c0.1,0.1-0.1,0.4-0.1,0.5c0,0.2-0.1,0.3-0.1,0.5c0.1,0.4,0,0.5-0.4,0.6c-0.7,0.1-1.2-0.2-1.8-0.4
									c-0.1-0.1-0.3-0.1-0.5-0.2c0.2,0.4,0.4,0.6,0.5,0.9c0.1,0.3,0,0.6,0,0.9c0,0,0.1,0,0.1,0c0.1-0.4,0.6-0.5,0.4-1.1
									c0.2,0.1,0.4,0.1,0.6,0.2c-0.2,0.2-0.3,0.3-0.4,0.3c0.4,0.3,0.7,0.6,1,1c0.1,0.1,0.2,0.4,0.3,0.4c0.5,0.2,0.5,0.6,0.6,1
									c0.2,0.7,0.6,1.2,1.3,1.4c0.1,0,0.2,0.1,0.2,0.2c0.3,0.6,1.1,0.9,1.7,0.6c0.4-0.2,0.7-0.5,1-0.6c0.4-0.2,0.5-0.5,0.5-0.9
									c0-0.1,0-0.1,0.1-0.2C123.5,442.9,123.3,442.1,122.8,441.8z M116.9,422.9c-0.1-0.1-0.2-0.2-0.3-0.3
									c-0.2-0.4-0.4-0.8-0.5-1.2c0,0,0,0,0-0.1c0.1,0.1,0.2,0.1,0.3,0.2c0.1,0.1,0.2,0.1,0.3,0.2c0.1,0.1,0.4,0.1,0.4,0.2
									c0.1,0.3,0.1,0.6,0.1,1C117.1,422.9,116.9,423,116.9,422.9z M117.6,429.4c-0.7-0.2-0.7-0.3-0.5-1.2
									C117.6,428.2,117.8,428.8,117.6,429.4z M118.1,420.2c-0.1,0.2-0.3,0.5-0.4,0.7c-0.1,0.2-0.4,0.1-0.4-0.1
									c-0.2-0.5-0.4-0.9-1-1c-0.3-0.1-0.6-0.2-0.8-0.3c-0.4-0.3-0.6,0-0.9,0.1c-0.3,0-0.6,0.1-0.9,0.2c0.1-0.5,0.1-0.9,0.2-1.4
									c0.9-0.5,1.7-1.2,2.4-1.9c0.1-0.1,0.2-0.1,0.3-0.1c0.4,0.3,0.9,0.4,1.1,0.9c0.1,0.1,0.3,0.2,0.4,0.4
									C118.3,418.4,118.4,419.3,118.1,420.2z"/>
							</g>
							<path class="st0" d="M95.2,411.4c-0.1,0-0.2,0-0.2,0.1c-0.3,0.3-0.5,0.6-0.8,0.8c0,0-0.2,0.1-0.2,0.1c-0.1,0-0.1-0.1-0.1-0.2
								c0-0.4,0-0.8,0.1-1.1c0.2-0.6,0-1.1-0.3-1.5c-0.1-0.1-0.2-0.3-0.3-0.4c-0.1-0.1-0.2-0.3-0.4-0.3c-0.4-0.1-0.9-0.2-1.3,0.1
								c0,0-0.2,0-0.3-0.1c-0.1-0.1-0.1-0.3-0.2-0.5c0-0.1-0.1-0.2-0.2-0.3c-0.1,0-0.1,0-0.2,0.1c0.1,0.3,0.1,0.6,0.2,0.9
								c0.1,0.4,0.1,0.7-0.1,1c-0.2,0.2-0.3,0.6-0.3,0.9c0,0.3,0.2,0.6,0.2,0.9c-0.1,1-0.3,1.9-0.5,2.9c-0.1,0.8-0.2,1.5-0.3,2.3
								c0,0.3,0.2,0.7,0.1,1c-0.1,0.3-0.2,0.6,0,0.9c0.2,0.4,0.2,0.8,0.3,1.2c0.1,0.2,0.2,0.3,0.5,0.1c0.2-0.1,0.4-0.2,0.6-0.3
								c0.3-0.1,0.7,0,1,0c0.3,0,0.8,0,0.9-0.2c0.3-0.4,0.5-0.2,0.7,0c0.1,0.1,0.2,0.1,0.3,0.1c0.6,0.1,1.3,0.2,2,0
								c0.2,0,0.3-0.1,0.5-0.1c0.8-0.1,1.4-0.7,1.5-1.6c0-0.2,0-0.4-0.1-0.5c-0.2-0.3-0.5-0.5-0.7-0.7c0.1-0.3,0.3-0.6,0.4-0.9
								c0.1-0.2,0.1-0.5,0.2-0.6c0.4-0.3,0.1-0.7,0.1-1c0-0.1-0.1-0.1-0.1-0.2c-0.2-1.1-1.1-1.8-1.9-2.5
								C96,411.5,95.6,411.5,95.2,411.4z"/>
							<path class="st0" d="M91.8,403.2c-0.2-0.1-0.3-0.2-0.4-0.3c-0.5-0.4-1-0.7-1.4-1.1c0,0-0.1-0.1-0.1-0.1
								c-0.1-0.4-0.4-0.7-0.7-1c-0.2-0.2-0.5-0.5-0.1-0.8c0.1-0.1,0-0.2,0.1-0.3c0-0.1,0-0.3,0.1-0.3c0.4-0.4,0.8-0.7,1.2-1
								c0.1-0.1,0.3-0.1,0.4,0.1c0.3,0.7,0.7,1.2,1.4,1.4c0.3,0.1,0.3,0.2,0.3,0.5c-0.1,0.6-0.2,1.2,0.1,1.7
								c0.1,0.1-0.1,0.3-0.1,0.5c0,0.1-0.1,0.2-0.1,0.3c0.2,0.4,0.3,0.8,0.5,1.2c0.1,0.2,0.3,0.3,0.5,0.4c0.2,0.1,0.4,0.1,0.6,0.2
								c0.5,0.2,1,0.2,1.5-0.2c0.2-0.2,0.4-0.7,0.4-1c0-0.3-0.1-0.7,0-0.9c0.3-0.5,0.4-1.1,0.9-1.4c0.1-0.1,0.2-0.1,0.2-0.2
								c0.1-0.6,0.2-1.3,0.3-1.9c0-0.2-0.1-0.4-0.2-0.5c-0.5-0.4-0.7-0.9-0.8-1.5c0-0.3,0-0.6-0.1-0.8c-0.2-0.4-0.5-0.8-0.8-1.3
								c-0.1-0.2-1.2-0.5-1.4-0.4c-0.5,0.3-1,0.2-1.5,0c-0.6-0.2-1.1,0-1.5,0.2c-0.5,0.2-0.8,0.6-1.3,0.8c-0.2,0.1-0.5,0.2-0.7,0.4
								c-0.3,0.3-0.4,0.7-0.7,1c-0.3,0.5-0.7,1-1,1.5c-0.1,0.1-0.2,0.3-0.1,0.5c0.1,0.7,0.1,1.4,0.6,2c0,0,0,0.1,0,0.2
								c0.1,0.5,0.3,1,0.4,1.5c0.1,0.4,0.5,0.5,0.9,0.4c0.1,0,0.2,0,0.4,0C90.2,403.4,90.9,403.5,91.8,403.2z"/>
							<path class="st0" d="M100.4,422.9c-0.6,0.6-1.2,1.2-1.8,1.8c-1.4,1.4-2.7,2.8-4.1,4.2c-0.3,0.3-0.5,0.3-0.7-0.1
								c-0.4-0.6-0.8-1.2-1.2-1.9c-0.4-0.7-0.7-1.4-1.1-2.2c-0.1-0.3-0.3-0.6-0.8-0.6c0,0.2,0,0.5,0,0.7c0.1,0.6,0.3,1.2,0.3,1.8
								c0.1,0.7,0.3,1.4,0,2.1c-0.2,0.3-0.2,0.6-0.2,0.9c0,0.5,0.1,1.1-0.2,1.6c-0.3,0.5-0.4,1-0.6,1.5c-0.2,0.5-0.5,1-0.6,1.5
								c-0.1,0.2,0.1,0.4,0.2,0.6c0.1,0.2,0.4,0.2,0.5,0.4c0.4,0.4,0.8,0.9,1.2,1.3c0.2,0,0.4,0,0.5,0c0.3,0.2,0.6,0.5,0.9,0.7
								c0.2,0.2,0.3,0.2,0.5,0.1c0.3-0.1,0.7-0.1,1-0.1c0,0,0.1,0.1,0.1,0.1c0.1,0,0.2,0.1,0.3,0.1c0.2,0,0.3,0.1,0.5,0.1
								c0.2,0,0.4,0,0.5-0.1c0.4-0.3,0.8-0.4,1.2-0.5c0.1,0,0.2-0.1,0.3-0.2c0.1-0.3,0.4-0.4,0.7-0.3c0.6,0.1,1.1-0.2,1.3-0.7
								c0.1-0.4,0.3-0.8,0.3-1.2c0-0.1,0-0.4-0.1-0.4c-0.3-0.3-0.5-0.6-0.7-0.9c-0.3-0.4-0.4-0.7-0.1-1.1c0.1-0.1,0.1-0.2,0.2-0.4
								c0.1-0.3,0.2-0.7,0.4-1c0.2-0.3,0.4-0.6,0.1-1c0-0.1,0-0.2,0-0.2c0.2-0.5,0.3-1,0.5-1.5c-0.1-0.2-0.2-0.4-0.3-0.6
								c-0.6,0.6-1.1,1.2-1.7,1.8c0,0,0,0-0.1-0.1c0.3-0.5,0.6-1,0.9-1.6c-0.1,0-0.1-0.1-0.2-0.1c-0.6,0.6-1.1,1.3-1.7,1.9
								c0.1,0.2,0.2,0.5,0.3,0.8c-0.1,0.1-0.3,0.5-0.5,0.5c-0.2,0-0.4-0.3-0.6-0.4c-0.3-0.2-0.3-0.4-0.1-0.7
								c0.3-0.4,0.6-0.8,0.9-1.1c0.5-0.5,1-0.9,1.5-1.4c1-1,2-2.1,2.9-3.2c0.1-0.1,0.2-0.2,0.1-0.3c-0.1-0.4,0.2-0.8,0.4-1.1
								c0.2-0.2,0.2-0.4,0-0.7C101.1,422.5,100.7,422.6,100.4,422.9z"/>
						</g>
						<g>
							<g>
								<path class="st0" d="M126.5,471.8c-0.6,0-0.8-0.1-1-0.6c-0.1-0.1-0.1-0.2-0.2-0.4c-0.2,0.2-0.4,0.5-0.6,0.5
									c-0.6,0.1-1.2,0.2-1.8,0.3c-0.7,0.1-1.4,0.1-2.1,0.2c-0.7,0.1-1.4,0.3-2.1,0.5c-0.4,0.1-0.8,0.2-1.2,0.3
									c-0.7,0.2-1.5,0.4-2.2,0.6c-0.3,0.1-0.5,0.1-0.9,0.2c0.1-0.2,0.2-0.4,0.3-0.5c0.1-0.3,0.4-0.6,0.4-0.9
									c0-0.9,0.2-1.7,0.9-2.3c0.3-0.2,0.4-0.5,0.3-0.8c0-0.1,0-0.3,0.1-0.4c0.4-0.8,0.7-1.7,1.1-2.5c0.4-0.8,0.8-1.7,1-2.6
									c0.1-0.7,0.4-1.3,0.7-2c0.1-0.3,0.2-0.6,0.2-0.9c0-0.5-0.1-1-0.1-1.5c0-1.1-0.5-1.9-1.1-2.6c-0.2-0.2-0.4-0.4-0.6-0.5
									c-0.4-0.2-0.8-0.5-1.2-0.7c-0.3-0.1-0.7-0.1-0.9-0.3c-0.4-0.3-0.9-0.5-1.4-0.5c-0.2,0-0.5,0-0.7,0c-1-0.1-2,0.1-2.9,0.4
									c-1.2,0.4-2.3,0.9-3.4,1.4c-1,0.4-1.9,0.8-2.9,1.2c-0.4,0.2-0.9,0.4-1.3,0.5c-0.4,0.1-0.7,0.3-1.1,0.4c0,0-0.1,0.1-0.1,0.2
									c-0.1,0.2-0.1,0.4-0.2,0.6c0,0.4-0.3,0.5-0.5,0.5c-0.3,0-0.5,0-0.8-0.1c-0.3-0.1-0.5,0-0.7,0.3c-0.1,0.1-0.3,0.3-0.4,0.3
									c-0.5,0-0.8,0.3-1.1,0.6c-0.6,0.6-1.1,1.1-1.7,1.7c-0.2,0.2-0.3,0.4-0.5,0.6c-0.2,0.2-0.4,0.9-0.4,1.1
									c0.1,0.4,0.1,0.7,0.1,1.1c0.1,0.5-0.1,1,0.1,1.5c0.3,0.9,0.7,1.8,1,2.6c0.1,0.3,0.3,0.6,0.7,0.5c0.1,0,0.2,0.1,0.2,0.2
									c0.1,0.1,0.1,0.3,0.2,0.5c0.2,0.5,0.5,1,1.1,0.9c0.1,0,0.2,0.1,0.3,0.2c0.3,0.2,0.6,0.4,0.9,0.6c0.3,0.2,0.7,0.4,1,0.7
									c0.3,0.2,0.5,0.5,0.7,0.7c0.4,0.4,0.7,0.9,1.1,1.3c0,0,0,0.1,0.1,0.1c0.2,0.5,0.4,0.7,0.8,0.6c0.4,0,0.8-0.1,0.8-0.6
									c0-0.1,0.1-0.1,0.1-0.2c0.4-0.1,0.5-0.5,0.7-0.9c0.2-0.5,1.2-0.7,1.4-0.3c0.3,0.4,0.3,1,0.5,1.6c-0.3-0.2-0.4-0.4-0.7-0.6
									c0,0.2,0,0.4,0,0.5c0,0.1-0.1,0.2-0.1,0.4c0,0-0.1,0-0.1,0c0-0.2,0-0.4,0-0.5c0,0-0.1,0-0.1,0c0,0.1-0.1,0.2-0.1,0.3
									c-0.1,0.1-0.1,0.3-0.2,0.4c-1,0.4-2.1,0.7-3.1,1c-0.9,0.3-1.9,0.6-2.9,0.8c-0.3,0.1-0.6,0.1-0.8,0.2
									c-0.4,0.1-0.8,0.3-1.2,0.4c-0.2,0.1-0.5,0.1-0.3,0.5c0,0,0,0.1-0.1,0.2c-0.2,0.2-0.3,0.4-0.6,0.6c-0.1,0.1-0.3,0.1-0.5,0
									c-0.1,0-0.1-0.3-0.1-0.4c0.3-0.4,0-0.6-0.2-0.9c-0.1,0.4-0.2,0.8-0.4,1.3c-0.4-0.3-0.7-0.3-1.1-0.1
									c-0.3,0.1-0.6,0.2-0.9,0.2c-0.3,0-0.5-0.1-0.8-0.1c-0.2,0-0.5,0.1-0.6,0.2c-0.2,0.3-0.4,0.7-0.5,1.1
									c-0.2,0.6,0.3,1.2,0.9,1.1c0.1,0,0.1,0.1,0.2,0.1c-0.1,0.1-0.1,0.2-0.2,0.2c-0.3,0-0.5-0.1-0.8-0.2
									c-0.2-0.1-0.4-0.2-0.6-0.3c0,0-0.1,0-0.1,0.1c0.1,0.7,0.2,1.4,0.4,2c0.1,0.3,0.4,0.5,0.7,0.8c0-0.1,0.1-0.2,0.1-0.3
									c0.3-0.5,0.2-1.3,1-1.5c0.2,0,0.4-0.1,0.6,0c0.9,0.1,1.3-0.7,2.1-0.9c0.6-0.2,0.8-0.9,1.5-1.1c0.2-0.1,0.4-0.2,0.7-0.2
									c0.1,0,0.2,0,0.3-0.1c0.6-0.2,1.2-0.5,1.9-0.7c1.3-0.4,2.6-0.7,3.9-1.1c0.8-0.2,1.6-0.5,2.4-0.8c0.7-0.2,1.4-0.5,2.1-0.6
									c1.2-0.1,2.2-0.7,3.3-1c0.4-0.1,0.9-0.3,1.3-0.4c0.6-0.2,1.3-0.3,1.9-0.4c1.1-0.3,2.3-0.5,3.4-0.8c1.7-0.3,3.4-0.6,5-0.9
									c0.3-0.1,0.5-0.3,0.9-0.4c-0.2-0.1-0.3-0.1-0.4-0.1c-0.1,0-0.1,0-0.2-0.1c0.1-0.1,0.3-0.1,0.4-0.2c0.6-0.2,0.6-0.2,1,0.4
									c0.2,0.3,0.4,0.3,0.6,0.1c0.2-0.3,0.3-0.6,0.4-1c0.1-0.3,0.1-0.3,0.3-0.1c0,0,0.1,0,0.2,0.1
									C127.2,472.1,126.7,471.8,126.5,471.8z M98.1,469.9c-0.2-0.1-0.5-0.2-0.7-0.4c-0.2-0.2-0.2-0.6-0.3-0.9c-0.1-0.5,0-1,0-1.5
									c0-0.2,0-0.4-0.2-0.5c-0.1,0-0.1-0.2-0.2-0.2c0,0,0,0,0.1-0.1c0.3,0.2,0.6,0.3,0.8,0.5c0.2,0.2,0.2,0.5,0.2,0.8
									c0,0.3,0,0.6,0,0.9c0,0.1,0.1,0.3,0.1,0.4C98.4,469.3,98.4,469.3,98.1,469.9z M103.5,464.6c-0.6,0.4-1.1,0.1-1.2-0.6
									c0-0.3-0.2-0.7-0.4-0.9c-0.4-0.6,0.1-1.6,0.7-1.7c0,0,0.1,0,0.1,0c0.7-0.4,1.4-0.7,2.2-1.1c0.8-0.4,1.6-0.9,2.6-0.9
									c0.8,0,1.6-0.4,2.3-0.7c0.7-0.2,1.4-0.3,2.1,0c0.2,0.1,0.3,0.4,0.4,0.7c0.1,0.4,0.1,0.8,0.2,1c0,0.7-0.1,0.8-0.7,1
									c-0.1,0-0.1,0-0.2,0.1c-0.6,0.5-1.3,0.6-2,0.7c-0.5,0.1-1,0.3-1.5,0.4c-0.1,0-0.2,0.2-0.4,0.3c-0.4,0.1-0.7,0.2-1.1,0.4
									c-1,0.3-2,0.6-2.9,1.3C103.7,464.5,103.6,464.5,103.5,464.6z M109.5,468.6c-0.5-0.1-0.6,0.3-0.8,0.5
									c-0.1,0.1-0.2,0.1-0.2,0.2c-0.3,0.2-0.7,0.4-1,0.6c-0.4,0.3-0.9,0.5-1.5,0.4c-0.5-0.1-1,0-1.5,0c-0.3,0-0.6-0.1-0.8-0.2
									c0.1-0.3,0.2-0.6,0.3-0.8c0-0.1,0.1-0.2,0.2-0.2c0.5,0.1,0.6-0.3,0.9-0.5c0.3-0.2,0.6-0.4,0.9-0.6c0.1-0.1,0.2-0.3,0.3-0.4
									c0.4-0.6,1.1-0.8,1.7-1c0.2-0.1,0.4-0.2,0.7-0.3c0.2,0,0.3,0,0.5,0c0.1,0,0.2,0,0.2,0c0.3-0.2,0.5-0.4,0.8-0.5
									c0.3-0.2,0.7-0.3,1-0.4c0.5,0,0.6,0.5,0.4,1c-0.1,0.1-0.2,0.3-0.3,0.4c-0.1,0.2-0.2,0.4-0.3,0.5c-0.4,0.2-0.4,0.9-0.9,0.9
									c-0.1,0-0.1,0.1-0.2,0.1C109.7,468.5,109.6,468.6,109.5,468.6z M111.6,473.8c-0.3,0-0.7,0.1-1,0c-0.3-0.1-0.5-0.4-0.6-0.7
									c-0.1-0.3-0.1-0.7-0.1-1c0-0.2,0.2-0.3,0.4-0.4c0.1-0.1,0.3-0.1,0.4-0.1c0.2,0,0.4,0.1,0.4,0.2c0.3,0.7,0.8,1.2,1.4,1.7
									c0,0,0.1,0.1,0.1,0.2C112.3,473.7,112,473.8,111.6,473.8z"/>
							</g>
							<g>
								<path class="st0" d="M115.8,502.1c-0.2-0.3-0.4-0.7-0.5-1c-0.1-0.1-0.1-0.3-0.2-0.4c-0.2-0.4-0.5-0.6-0.5-1.1
									c0-0.2-0.1-0.5-0.2-0.6c-0.5-0.1-0.4-0.5-0.6-0.7c-0.1-0.2-0.2-0.5-0.3-0.7c0-0.1-0.1-0.1-0.1-0.2c-0.2-0.2-0.4-0.5-0.7-0.8
									c-0.2,0-0.5-0.4-0.9-0.2c0,0-0.1-0.1-0.1-0.1c-0.2-0.1-0.4-0.2-0.5-0.2c-0.6,0.2-1.3,0.3-1.9,0.7c-0.3,0.2-0.7,0.1-0.8,0.6
									c0,0,0,0,0,0c-0.8-0.1-0.3,0.8-0.8,1c0,0,0.1,0.1,0.1,0.2c0,0.2,0,0.4,0,0.6c0,0.1,0,0.3,0,0.4c0,0.1,0,0.2,0.1,0.3
									c0.1,0.2,0.1,0.3,0.2,0.4c0.2,0.2,0.3,0.4,0.1,0.6c-0.4,0.5-0.5,1.2-1.1,1.5c0,0-0.1,0.1-0.1,0.2c-0.1,0.2-0.2,0.4-0.4,0.5
									c-0.3,0.2-0.6,0.4-0.9,0.4c-0.2,0-0.4-0.1-0.6-0.2c-0.4-0.2-0.8-0.4-1.3-0.4c-0.5,0-1-0.2-1.5-0.1c-0.6,0.1-1.3,0.3-1.8,0.7
									c-0.1,0-0.1,0.1-0.2,0.2c-0.2,0.3-0.4,0.6-0.6,0.9c-0.1,0.2-0.2,1.3-0.1,1.4c0.4,0.3,0.1,0.7,0.2,1c0.1,0.6-0.1,1.2,0.4,1.6
									c0.2,0.2,0.3,0.6,0.5,0.8c0.3,0.4,0.5,0.9,0.9,1.2c0.5,0.3,0.9,0.9,1.6,1.1c0.4,0.1,0.5,0.2,0.7-0.2
									c0.2-0.4,0.5-0.6,0.9-0.7c0.3,0,0.6-0.1,0.9-0.1c0.2,0,0.3-0.1,0.2-0.3c0-0.1-0.1-0.1-0.1-0.2c-0.1-0.6-0.2-1.2-0.2-1.8
									c0-0.1,0.2-0.3,0.3-0.3c0.4-0.2,0.8-0.1,1.1,0.3c0.3,0.4,0.6,0.7,0.9,1.1c0,0,0.1,0.1,0.2,0.1c0.3,0.2,0.6,0.4,0.9,0.6
									c0.6,0.5,1.2,0.9,2,0.9c0.3,0,0.6,0.1,0.9,0.1c0.1,0,0.1,0,0.2,0c0.3,0,0.5-0.2,0.7-0.3c0.4-0.1,0.4-0.4,0.5-0.7
									c0.2-0.5,0.3-1,0.5-1.5c0.1-0.3,0.4-0.5,0.5-0.8c0.2-0.4,0.3-0.9,0.5-1.3c0.3-0.7,0.2-1.3,0-2c-0.1-0.3-0.2-0.6-0.2-0.9
									c0-0.1,0.1-0.3,0.2-0.3c0.4,0,0.8,0.1,1.1,0.1c0.1,0,0.3,0,0.3-0.1C116.3,503,116.2,502.6,115.8,502.1z M112.2,508.6
									c-0.3-0.1-0.6-0.2-0.3-0.6c0-0.1-0.1-0.2-0.1-0.3c0-0.3,0.1-0.6,0.3-0.8c0.1-0.1,0.1-0.2,0.2-0.2c0.1-0.1,0.2-0.1,0.4-0.1
									c0,0.1,0,0.2,0,0.3c0,0,0,0.1-0.1,0.2c0.1,0.1,0.2,0.1,0.3,0.2C112.7,507.8,112.4,508.2,112.2,508.6z"/>
							</g>
							<g>
								<path class="st0" d="M117.5,482.5c-0.1-0.1-0.1-0.2-0.1-0.2c0-0.3-0.1-0.4-0.3-0.5c-0.4-0.3-0.9-0.4-1.3-0.5
									c-0.4-0.1-0.5-0.2-0.5-0.6c0-0.2-0.1-0.5-0.2-0.6c-0.2-0.2-0.4-0.4-0.7-0.6c-0.1-0.1-0.3-0.1-0.5-0.1
									c-0.3,0-0.5,0.2-0.7,0.2c-1,0-1.9,0.2-2.8,0.6c-0.4,0.2-0.7,0.3-1.1,0.4c-0.4,0.2-0.9,0.4-1.3,0.5c-0.7,0.3-1.4,0.6-2.1,0.9
									c-0.3,0.1-0.6,0.1-1,0c-0.7-0.1-1.4,0.1-1.8,0.7c-0.3,0.4-0.6,0.4-0.9,0.1c-0.3-0.3-0.5-0.6-0.9-0.5
									c-0.1-0.3-0.1-0.6-0.3-0.9c0-0.1-0.2-0.2-0.3-0.2c-0.1,0-0.3,0.2-0.3,0.3c0,0.4,0,0.8-0.1,1.2c0,0.4,0.2,0.9-0.4,1
									c-0.1,0-0.1,0.2-0.1,0.3c0,0.2-0.1,0.3-0.3,0.2c-0.3-0.1-0.5,0.1-0.7,0.2c-0.1,0.1-0.3,0.2-0.5,0.2c-0.6,0-0.8,0.2-0.8,0.8
									c0,0.1,0,0.1-0.1,0.2c-0.1,0.4,0.2,1,0.5,1.2c0.2,0.1,0.2,0.4,0.3,0.6c0.1,0.2,0,0.4,0.1,0.6c0.1,0.3,0.1,0.6,0.2,0.9
									c0.2,0.7,0.3,1.4,0.6,2c0.5,1,1,2,1.6,2.9c0.4,0.6,0.7,1.3,1.4,1.6c0.1,0,0.1,0.2,0.2,0.3c0.1,0.3,0.2,0.6,0.4,0.8
									c0.6,0.6,1.5,0.4,2.2,0.9c0,0,0,0,0,0c0.8-0.1,1.6-0.1,2.4-0.2c0.1,0,0.3-0.2,0.4-0.2c0.1-0.1,0.2-0.2,0.3-0.2
									c0.3-0.3,0.7-0.5,0.9-0.8c0.2-0.4,0.6-0.6,1-0.8c0.4-0.3,0.8-0.4,1.3-0.6c0.2-0.1,0.4-0.1,0.6-0.2c0.7-0.4,1.1-0.4,1.7,0.3
									c0.1,0.2,0.3,0.4,0.5,0.1c0,0,0.2,0,0.2,0c0.1,0,0.3,0.1,0.4,0.1c0-0.2,0-0.4,0.1-0.5c0.3,0.1,0.5,0.2,0.8,0.3
									c0-0.1,0.1-0.2,0.1-0.3c0.2-0.6,0.3-1.2,0.5-1.8c0.3-0.6,0.5-1.2,0.7-1.9c0.2-0.9,0.6-1.7,0.8-2.6c0.2-0.6,0.2-1.3,0.4-1.9
									c0.1-0.3,0.1-0.6,0.2-0.9c0.1-0.5,0.2-0.9,0.1-1.4C117.9,483.6,117.9,483,117.5,482.5z M111.6,490.2
									c-0.3,0.4-0.4,0.8-0.5,1.2c-0.2,0.5-0.6,0.6-0.9,0.8c-0.1,0.1-0.3,0.1-0.4,0.1c-0.1,0-0.1,0.1-0.2,0
									c-0.3-0.2-0.6-0.4-0.8-0.6c0,0,0-0.1,0-0.2c0-0.1,0.1-0.2,0.2-0.5c0,0,0.1,0,0.3-0.1c-0.1-0.2-0.2-0.4-0.2-0.6
									c0.3-0.1,0.5-0.4,1-0.3c0.2,0.1,0.5-0.1,0.8-0.2c0.2,0.2,0.4,0.1,0.7,0c0.1,0,0.2,0,0.3,0
									C111.6,490,111.6,490.1,111.6,490.2z M113.1,485c-0.3-0.1-0.5,0-0.7,0.2c-0.1,0.2-0.4,0.2-0.7,0.3c-0.4,0.1-0.7,0.2-1.1,0.3
									c0.2,0.5,0.2,0.5,0.6,0.2c0.2-0.1,0.3-0.3,0.5-0.2c0,0,0.2-0.1,0.4-0.1c0,0.1,0,0.2-0.1,0.3c-0.1,0.1-0.3,0.2-0.4,0.2
									c-0.9,0.2-1.8,0.7-2.7,1c-0.5,0.2-1,0.4-1.5,0.6c-0.1,0-0.2,0.1-0.3,0.1c0,0,0,0.1,0,0.1c1.2-0.4,2.4-0.9,3.6-1.3
									c0,0,0,0,0.1,0.1c-0.1,0.1-0.1,0.2-0.2,0.2c-0.5,0.2-1,0.7-1.6,0.8c-0.1,0-0.2,0-0.3,0.1c-0.4,0.5-1,0.4-1.5,0.5
									c-0.4,0.1-0.4-0.3-0.5-0.4c-0.1-0.1-0.2-0.3-0.3-0.3c-0.3-0.2-0.3-0.3,0-0.5c0.2-0.1,0.3-0.3,0.5-0.4
									c0.2-0.1,0.4-0.1,0.7-0.2c0.1,0,0.3,0,0.3-0.1c0.3-0.5,0.8-0.6,1.2-0.8c0.8-0.3,1.5-0.7,2.3-1c0.3-0.1,0.7-0.3,1.1-0.4
									c0.4-0.1,0.6,0,0.6,0.4C113.1,484.7,113.1,484.9,113.1,485z M113.7,481.2c-0.7-0.1-1.4,0.2-2,0.5c-1.3,0.5-2.7,1.1-4,1.6
									c-0.6,0.2-1.2,0.2-1.8,0.4c-0.1-0.8,0-0.8,0.7-1.1c0.3-0.1,0.6-0.1,0.9-0.1c0.4,0,0.8-0.3,1.1-0.4c0.2-0.1,0.5-0.2,0.7-0.3
									c0.4,0,0.7-0.1,0.9-0.5c0.1-0.1,0.2-0.1,0.3-0.1c0.1-0.1,0.2-0.1,0.3-0.2c0.1-0.2,0.2-0.2,0.3-0.1c0.2,0.2,0.2,0.1,0.4,0
									c0.1-0.1,0.4-0.1,0.6-0.1c0.1,0,0.2,0,0.2,0c0.4-0.4,0.8-0.4,1.3-0.4c0.1,0,0.1,0,0.2,0c0.5,0,0.6,0.1,0.6,0.5
									C114.3,480.9,114,481.3,113.7,481.2z M115.1,481.1c-0.1-0.1-0.3-0.2-0.4-0.3c0,0,0-0.2,0.1-0.3c0.2,0.1,0.3,0.2,0.5,0.4
									C115.2,481,115.1,481,115.1,481.1z"/>
								<path class="st0" d="M114.7,480.8c0.1,0.1,0.3,0.2,0.4,0.3c0-0.1,0.1-0.1,0.1-0.2c-0.2-0.1-0.3-0.2-0.5-0.4
									C114.7,480.6,114.7,480.8,114.7,480.8z"/>
							</g>
							<path class="st0" d="M129.7,499.4c-0.6-0.4-1.3-0.6-2-0.8c-0.3,0-0.5,0.1-0.8,0.1c-0.6,0-1.1,0.5-1.1,1.1
								c0,0.3-0.1,0.4-0.5,0.3c-0.2,0-0.5,0-0.6,0.1c-0.2,0.2-0.4,0.5-0.6,0.8c-0.2,0.3-0.2,0.6,0.1,0.8c0.1,0,0.1,0.2,0.1,0.2
								c0,0.2-0.1,0.5,0,0.6c0.3,0.6-0.3,1.1,0,1.7c0,0,0,0.1,0,0.1c-0.1,0.4-0.2,0.9-0.3,1.3c-0.1,0.4-0.1,0.7,0.1,0.9
								c0.5,0.7,1.3,1.2,2.1,1.5c0.4,0.2,0.8,0.3,1.2,0.4c0.3,0.1,0.6,0.1,1,0.1c0.5,0,0.3-0.5,0.5-0.7c0.1-0.1,0-0.2,0.1-0.3
								c0.1-0.1,0.2-0.3,0.3-0.3c0.6,0,0.6-0.6,0.9-0.9c0.2-0.2,0.1-0.6,0.2-0.9c0.2-0.7,0.4-1.4,0.5-2.1c0.1-0.5,0.3-0.9,0.4-1.3
								c-0.1-0.6-0.1-1.1-0.3-1.5C130.6,500.3,130.2,499.8,129.7,499.4z"/>
						</g>
						<g>
							<path class="st0" d="M115,563.2c0.7,0.2,0.9-0.1,0.8-0.9C115.3,562.3,115.1,562.6,115,563.2z"/>
							<g>
								<path class="st0" d="M129.5,572.5C129.5,572.5,129.5,572.4,129.5,572.5c0.1-0.3,0.1-0.6,0.1-0.8c0-0.1,0-0.3-0.2-0.4
									C129.4,571.3,129.4,571.9,129.5,572.5z"/>
								<path class="st0" d="M137.6,554.9c-0.3-0.3-0.6-0.7-0.9-1c-0.3-0.3-0.6-0.6-1-0.6c-0.1,0-0.1,0-0.2-0.1
									c-0.5-0.5-0.7-0.6-1.3-0.3c-0.6,0.4-1.3,0.3-1.9,0.2c-0.3,0-0.3,0.1-0.3,0.3c0,0.1,0.1,0.2,0.1,0.3c0.2,0.3,0.1,0.5-0.1,0.6
									c-0.3,0.2-0.7,0.4-1.1,0.5c-0.3-0.4-0.2-0.9-0.3-1.4c-0.3-1.3,0.3-2.1,1.4-2.7c0.4-0.3,0.7-0.7,0.8-1.2
									c0.2-0.1,0.4-0.1,0.4-0.2c0.2-0.3,0.5-0.7,0.6-1.1c0.1-0.2-0.1-0.5-0.1-0.7c-0.1,0-0.1,0-0.2,0c-0.2,0.4-0.4,0.8-0.7,1.2
									c-0.2-0.2-0.4-0.3-0.6-0.4c-0.1-0.1-0.1-0.2,0-0.3c0.4-0.3,0.8-0.6,1.1-1c0.2-0.2,0.2-0.6-0.1-0.7c-0.3-0.1-0.6-0.2-0.9-0.2
									c-0.4,0.1-0.7,0.1-1.1,0.1c-0.3,0-0.4-0.2-0.3-0.4c0-0.3,0.1-0.6,0.1-0.9c0-0.3,0-0.5,0.4-0.3c0.1,0,0.2,0,0.2,0
									c0,0,0-0.2,0-0.2c0-0.1-0.2-0.2-0.1-0.3c0.1-0.2,0.2-0.5,0.4-0.7c0.5-0.7,0.3-1.2-0.5-1.6c-0.2-0.1-0.3-0.2-0.2-0.5
									c0.2-0.5,0-0.8-0.4-1.1c-0.2-0.2-0.3-0.4-0.5-0.6c-0.1-0.1-0.2-0.3-0.3-0.3c-0.3,0-0.8,0.6-0.9,0.8c0,0.1-0.1,0.3-0.2,0.3
									c-0.6,0.2-0.7,0.8-0.8,1.3c-0.1,0.3,0,0.8,0.1,1.1c0.3,0.5,0.4,0.9,0.3,1.4c0,0.8,0,1.5,0,2.3c0,0.1-0.1,0.4-0.2,0.4
									c-0.6,0.3-1.1,0.6-1.7,0.9c-0.5,0.3-1,0.6-1.4,1c-0.4,0.3-0.8,0.6-1.1,1c-0.7,0.7-1.3,1.4-2,2.1c-0.8,0.8-1.6,1.5-2.4,2.3
									c-0.1,0.1-0.3,0.2-0.5,0.3c0-0.2,0-0.3,0-0.5c0,0,0-0.1,0-0.1c0-0.5-0.1-1.1-0.1-1.6c0-0.5,0-1-0.3-1.5
									c-0.2-0.3-0.5-0.6,0-1c0.2-0.2,0.3-0.5,0.3-0.8c0-0.5,0.4-0.9,0.7-1.2c0.4-0.5,0.8-1,1.2-1.5c0.2-0.2,0.3-0.5,0.5-0.8
									c0.1-0.2,0.2-0.2,0.4-0.1c0.3,0.1,0.4-0.1,0.4-0.3c-0.1-0.6,0.1-1.1,0.2-1.6c0.2-1,0.9-1.6,1.6-2.2c0.4-0.3,0.9-0.5,1.3-0.7
									c0.6-0.3,1.2-0.5,1.8-0.8c0.3-0.1,0.6-0.1,0.9-0.3c0.3-0.2,0.6-0.5,0.9-0.8c0.1-0.1,0.2-0.2,0.3-0.3
									c0.1-0.1,0.2-0.3,0.3-0.4c0.1-0.3,0.2-0.6,0.4-0.9c0.1-0.3,0.4-0.6,0.4-0.8c-0.1-0.4-0.3-0.9-0.6-1.2
									c-0.5-0.4-1.1-0.5-1.7-0.2c-0.4,0.2-0.7,0.5-1,0.7c-0.1-0.1-0.2-0.2-0.2-0.2c-0.1,0.2-0.3,0.4-0.3,0.6
									c-0.1,0.3-0.3,0.2-0.5,0.1c-0.2-0.1-0.4-0.2-0.2-0.5c0.1-0.1,0.1-0.2,0.1-0.3c-0.3,0.2-0.5,0.4-0.7,0.7c0,0,0,0.1,0,0.2
									c0.2,0.6-0.3,0.9-0.6,1.3c-0.1,0.1-0.2,0.2-0.2,0.4c0,0.4,0,0.9,0,1.3c0,0.4-0.2,0.8-0.4,1.1c-0.6,0.6-1.2,1.3-1.8,1.9
									c-0.1,0.1-0.3,0.2-0.4,0.2c-0.1,0-0.2-0.3-0.2-0.4c0-0.4,0-0.8,0-1.2c0-0.6,0.2-1,0.7-1.3c0.4-0.2,0.7-0.5,1.1-0.7
									c-0.2-0.1-0.3-0.2-0.3-0.2c0-0.3,0.1-0.6,0-0.7c-0.1-0.1-0.4-0.1-0.7-0.1c-0.3-0.5-0.3-1.2-0.1-1.8c0.2-0.4,0.2-0.9,0.3-1.3
									c0.2-0.6,0.4-1.2,1.1-1.4c0.5-0.2,1-0.6,1.5-0.8c0.4-0.2,0.9-0.4,1.4-0.4c0.9,0.1,1.6-0.3,2.3-0.6c0.1-0.1,0.2-0.2,0.3-0.3
									c0.2-0.3,0.1-0.5-0.2-0.5c-0.2,0-0.4-0.1-0.6-0.1c-0.1,0-0.2-0.1-0.3-0.2c0.1-0.1,0.1-0.2,0.2-0.2c0.2-0.1,0.4-0.2,0.6-0.3
									c-0.2-0.4,0-0.6,0.3-0.9c0.1-0.2,0.2-0.3,0-0.3c-0.4-0.1-0.8-0.2-1.1-0.2c-0.5,0-1,0-1.5,0c-0.3,0-0.6-0.1-0.9-0.1
									c-0.2,0-0.3,0-0.6,0c0.3,0.7,0.2,0.8-0.4,1c-0.1,0-0.1,0.1-0.2,0.1c-0.2,0.1-0.5,0.2-0.7,0.3c-0.1,0-0.3-0.2-0.3-0.2
									c0-0.3,0-0.5,0.1-0.8c0-0.3,0.1-0.4,0.4-0.4c0.3-0.1,0.5-0.3,0.7-0.4c0.2-0.1,0.4-0.3,0.5-0.3c0.3,0.1,0.3-0.1,0.4-0.3
									c0-0.1,0.1-0.3,0.1-0.3c0.4-0.3,0.8-0.6,1.2-0.9c0.1,0,0.1-0.1,0.1-0.2c-0.1-0.3,0.1-0.5,0.3-0.7c0.1-0.1,0.1-0.2,0.1-0.3
									c-0.1-0.3,0-0.4,0.2-0.6c0.1-0.1,0.2-0.3,0.2-0.5c0-0.2-0.2-0.4-0.3-0.5c-0.2-0.2-0.1-0.3,0.1-0.4c0.1,0,0.2-0.2,0.2-0.3
									c-0.1-0.5-0.4-0.9-0.9-1.1c-0.7-0.3-1.3,0-1.9,0.3c-0.2,0.1-0.3,0.1-0.4-0.1c-0.3-0.5-0.7-0.9-1.3-1.3
									c-0.1,0-0.1-0.1-0.1-0.2c0.1,0,0.2-0.1,0.3-0.1c0.4,0.1,0.7,0.3,1.1,0.4c0.1,0,0.2,0.1,0.3,0.1c0-0.3,0-0.6,0-0.9
									c0.1-0.4,0-0.6-0.4-0.7c-0.4-0.1-0.8-0.3-1.3-0.3c-0.3,0-0.5-0.1-0.5-0.4c0-0.2-0.2-0.4-0.2-0.6c0,0,0.1-0.1,0.1-0.1
									c-0.1-0.2-0.2-0.4-0.4-0.5c-0.1-0.1-0.3,0-0.4,0.1c-0.2,0.1-0.4,0.2-0.6,0.4c0.2,0.2,0.3,0.4,0.5,0.5
									c0.2,0.2,0.5,0.3,0.7,0.5c-0.3,0.3-0.6,0.5-0.9,0.7c-0.5,0.2-0.7,0.5-0.9,0.9c-0.1,0.1-0.2,0.3-0.3,0.4
									c-0.4,0.2-0.9,0.2-1,0.8c-0.4-0.4-0.4-0.7-0.1-1.2c-0.1-0.1-0.3-0.1-0.4-0.2c0,0.2-0.1,0.3-0.1,0.5c0,0.2,0.1,0.3,0.1,0.5
									c0.1,0.4,0.2,0.8,0.2,1.2c0.1-0.1,0.1-0.2,0.1-0.3c0-0.1,0-0.2,0-0.3c0.6,0.1,0.7,0,0.9,0.6c0.1,0.3,0.1,0.6,0.2,1
									c0,0.1,0,0.2,0,0.3c0.2,0.7,0,1.3-0.7,1.7c-0.8,0.4-1.7,0.9-2.5,1.3c-0.5,0.2-1,0.4-1.5,0.6c-0.3,0.1-0.5,0-0.6-0.3
									c-0.1-0.4-0.3-0.7-0.6-1c-0.1,0-0.1-0.2-0.1-0.2c0-0.1,0.1-0.1,0.2-0.1c0.1,0,0.3,0,0.5,0c-0.2-0.3-0.4-0.5-0.7-0.6
									c-0.3-0.1-0.5-0.2-0.8-0.3c-0.3-0.1-0.6-0.2-0.8,0c-0.3,0.3-0.7,0.6-0.6,1.2c0,0.2-0.1,0.2-0.3,0.3c-0.3,0.1-0.7,0.2-1,0.5
									c-0.2,0.1-0.3,0.4-0.3,0.7c0,1.3,0.4,2.4,1.5,3.2c0.1,0.1,0.2,0.1,0.3,0.1c0.8,0,1.6,0.2,2.2,0.8c0.3,0.3,0.8,0.2,1.1-0.1
									c0.1-0.2,0.3-0.3,0.6-0.2c0.4,0.1,0.6,0,0.6-0.4c0-0.4,0.1-0.8,0-1.2c-0.2-0.7,0.1-1.1,0.6-1.4c0.6-0.4,1.2-0.9,2-1
									c0.4,0,0.7,0.2,0.8,0.5c0,0.5-0.1,0.9-0.5,1.3c-0.3,0.3-0.5,0.8-0.8,1.2c-0.2,0.4-0.4,1-0.7,1.3c-0.4,0.5-0.9,1-1.4,1.5
									c-0.7,0.6-1.4,1.1-2.2,1.7c0,0,0-0.1,0-0.1c-0.2,0-0.5-0.2-0.7-0.1c-0.2,0.1-0.4,0.4-0.5,0.7c-0.2,0.5-0.5,0.8-1.1,1
									c-0.6,0.2-1.1,0.4-1.7,0.7c-0.3,0.2-0.5,0.5-0.8,0.7c-0.7,0.4-0.7,0.8-0.2,1.3c0.6,0.6,1,1.5,2.1,1.2c0.1,0,0.1,0,0.2,0
									c0.6,0,1.1,0.1,1.6-0.3c0.2-0.2,0.4-0.4,0.6-0.6c0.2-0.2,0.5-0.5,0.8-0.6c0.3-0.2,0.6-0.2,0.8-0.4c0.1-0.1,0.2-0.2,0.3-0.2
									c0,0,0,0-0.1-0.1c-0.2,0.1-0.5,0.2-0.8,0.4v-0.5c-0.2,0.2-0.3,0.3-0.5,0.4c-0.1,0.1-0.2,0.1-0.3,0.1c-0.1,0-0.1-0.1-0.1-0.2
									c-0.6,0.3-1.2,0.5-1.8,0.8c-0.5,0.2-0.6,0.1-0.8-0.5c0.5,0,0.8-0.2,1.1-0.5c0.1-0.1,0.2-0.2,0.4-0.2c0.3,0,0.4-0.2,0.4-0.5
									c0-0.3,0.3-0.5,0.6-0.4c0.1,0,0.2,0,0.3,0c0.2-0.1,0.4-0.2,0.6-0.2c0.1,0,0.2,0.1,0.3,0.1c0,0.1-0.1,0.2-0.1,0.3
									c-0.1,0.1-0.2,0.3-0.4,0.4c0.1,0.1,0.1,0.1,0.2,0.2c0.1-0.2,0.2-0.4,0.4-0.5c0.3-0.3,0.5-0.6,0.8-0.8
									c0.4-0.3,0.8-0.7,1.3-0.9c0.5-0.2,1-0.6,1.5-0.9c0.1,0,0.2,0,0.3-0.1c0,0.1,0.1,0.2,0,0.3c-0.1,0.5-0.3,0.9-0.8,1.1
									c-0.1,0.1-0.3,0.2-0.3,0.3c0.2,0.5-0.2,0.3-0.4,0.4c0.1-0.1,0.1-0.2,0.2-0.4c-0.7,0.3-1.3,0.5-1.9,0.7c0,0,0,0.1,0,0.1
									c0.5-0.1,0.9-0.1,1.5-0.2c-0.2,0.2-0.4,0.3-0.6,0.5c0,0,0,0.1,0.1,0.1c0.4-0.3,0.8-0.5,1.3-0.8c0.1-0.1,0.2-0.1,0.3-0.1
									c0,0.1,0.1,0.2,0.1,0.3c-0.1,0.7-0.3,1.4-0.4,2.1c-0.1,0.4-0.2,0.9-0.3,1.3c0,0.1-0.2,0.1-0.3,0.2c-0.2-0.5-0.9-0.3-1.1-0.8
									c0,0-0.1-0.1-0.2,0c-0.5,0.1-0.9,0.2-1.4,0.3c-0.3,0.1-0.4,0.3-0.2,0.7c0.1,0.1,0.1,0.3,0,0.5c-0.2,0.5-0.6,0.9-1.1,1.2
									c-0.2,0.1-0.2,0.3-0.2,0.5c0,0.4,0,0.8,0.3,1.2c0,0,0,0.2,0,0.2c0.1,0.7,0.1,1.5,1,1.7c0.1,0,0.2,0.1,0.2,0.2
									c0.2,0.3,0.5,0.2,0.7,0.1c0.4-0.3,0.8-0.8,1.3-1.1c0.4-0.2,0.8-0.6,1.2-1c0.2,0.5,0.4,0.9,0.5,1.3c0.1,0.2,0.1,0.4-0.2,0.6
									c-0.4,0.3-0.8,0.6-1.2,0.9c-0.7,0.5-1.2,1.1-1.7,1.8c-0.2,0.2-0.3,0.6-0.6,0.7c-0.8,0.4-1.5,0.9-1.9,1.7
									c-0.4,0.7-0.8,1.3-1.2,1.9c-0.3,0.5-0.6,1-0.9,1.5c-0.4,0.6-0.8,1.1-1.2,1.7c-0.2,0.2-0.4,0.3-0.6,0.2
									c-0.6-0.2-1.2-0.3-1.8-0.4c-0.4-0.1-0.8,0-1.2-0.1c-0.6-0.2-1.1-0.4-1.7-0.1c-0.1,0-0.4-0.1-0.4-0.2c0-0.6,0.1-1.2,0.2-1.8
									c0.1-0.5,0.2-0.9,0-1.3c-0.2-0.3-0.4-0.7-0.5-1c-0.1-0.3-0.1-0.6-0.2-1c-0.1-0.5-0.1-0.5,0.4-0.8c0.6-0.3,1.2-0.7,1.8-1.1
									c0.3-0.2,0.3-0.4,0.1-0.7c-0.1-0.2-0.2-0.4-0.1-0.6c0.2-0.5,0.5-1,0.7-1.5c0.1-0.2,0.3-0.3,0.5-0.4c0.1-0.1,0.3-0.1,0.4-0.3
									c0.4-0.5,0.9-1,1.5-1.3c0.3-0.1,0.3-0.3,0-0.5c-0.4-0.3-0.8-0.6-1.1-0.9c-0.3-0.3-0.4-0.7-0.7-1c-0.5-0.4-0.8-0.8-1.3-1.1
									c-0.4-0.3-1-0.4-1.5-0.3c-0.3,0.1-0.7,0.1-1,0.2c-0.4,0.1-0.5,0-0.4-0.3c0.1-0.4,0.3-0.9,0.2-1.3c0-0.9,0.6-1.4,1.1-2
									c0.1-0.1,0.2-0.1,0.3-0.1c0.5-0.1,1-0.4,1.4-0.7c0.6-0.6,0.7-1.7,0.1-2.2c-0.5-0.4-1-0.9-1.6-1.2c-0.6-0.3-1-0.3-1.6-0.2
									c-0.5,0.1-0.8-0.1-0.8-0.6c0-0.1,0-0.2,0-0.3c-0.1-0.7-0.2-1.4-0.3-2.1c0-0.2,0-0.5,0-0.7h-0.1c0,0.1-0.1,0.3-0.1,0.5
									c-0.5-0.3-0.5-1-0.1-1.6c0.1,0.3,0.1,0.5,0.2,0.7c0-0.2,0-0.3,0-0.5c0.1-0.3,0-0.4-0.2-0.5c-0.2-0.2-0.4-0.4-0.4-0.6
									c-0.1-0.6-0.1-0.6-0.6-0.7c-0.1,0-0.2,0-0.3-0.1c-0.5-0.3-1-0.2-1.4,0c-0.4,0.2-0.7,0.5-1.1,0.7c-0.6,0.4-0.8,1-1.1,1.6
									c-0.2,0.3-0.2,0.6-0.4,0.9c-0.3,0.4-0.4,0.9-0.5,1.3c-0.1,0.7-0.1,1.4-0.1,2c0,0.3,0.1,0.6,0.2,0.8c0.1,0.4,0.2,0.7,0.3,1.1
									c0,0.1,0.2,0.2,0.3,0.2c0.5-0.1,0.9-0.1,1.4-0.3c0.4-0.1,0.8-0.1,1.1-0.4c0.1-0.1,0.3-0.1,0.4,0c0.1,0.1,0.1,0.3,0.2,0.5
									c0,0.1-0.1,0.2-0.2,0.2c-0.6,0.5-1.2,0.9-1.9,1.4c-0.3,0.2-0.7,0.4-1,0.5c-0.3,0.1-0.5,0.1-0.5-0.3c0-0.2-0.1-0.4-0.1-0.8
									c-0.1,0.1-0.2,0.2-0.2,0.3c-0.2,0.3-0.4,0.6-0.7,0.9c-0.3,0.3-0.8,0.5-1.2,0.7c-0.4,0.2-0.4,0.5-0.4,0.9
									c0.1,0.6,0.5,1,0.8,1.4c0.1,0.2,0.6,0.3,0.6,0.2c0.2-0.3,0.4-0.1,0.7-0.1c0.1,0,0.2,0,0.4-0.1c0.4-0.2,0.9-0.5,1.3-0.8
									c0.3-0.3,0.7-0.5,0.8-1c0-0.1,0.1-0.1,0.2-0.2c0,0,0.1,0.1,0.1,0.2c0,0.1,0,0.1,0.1,0.2c0.8-0.2,1.1,0.2,1,1
									c0.1-0.2,0.2-0.3,0.3-0.4c0.1-0.1,0.2-0.2,0.2-0.2c0.1,0,0.2,0.1,0.2,0.2c0,0.3,0,0.7,0,1c0,0.2,0,0.3,0,0.5
									c0,0.3,0.1,0.7-0.1,1c-0.1,0.3-0.5,0.4-0.8,0.6c-0.5,0.4-0.8,0.2-1.3-0.1c-0.4-0.3-0.8-0.5-1.3-0.6
									c-0.5-0.1-0.7-0.3-0.7-0.8c0-0.1,0-0.1,0-0.3c-0.3,0.2-0.6,0.3-0.8,0.5c-0.4,0.2-0.8,0.3-1.1,0.5c-0.8,0.5-1.1,1.3-1.5,2
									c-0.3,0.8-0.6,1.6-1.1,2.3c-0.8,1.3-1.8,2.6-2.6,3.9c-0.4,0.6-0.6,1.3-0.9,2c-0.1,0.3-0.2,0.5-0.4,0.8
									c-0.2,0.3-0.4,0.6-0.2,1c0.1,0.2,0.1,0.5,0.1,0.8c0,0.1,0,0.2,0,0.3c0.2,0.3,0.1,0.7,0,1c-0.2,0.8-0.5,1.7-0.7,2.5
									c-0.3,0.9-0.5,1.8-0.8,2.7c-0.3,1-0.7,1.9-1.1,2.9c-0.3,0.8-0.5,1.5-0.7,2.3c-0.2,0.6-0.4,1.2-0.4,1.8
									c-0.1,0.8-0.1,1.7-0.1,2.6c0,0.1,0,0.1,0,0.2c0.3,0.5,0.7,0.9,1.2,1c0.3,0.1,0.6,0,0.7-0.4c0.1-0.2,0.2-0.4,0.4-0.5
									c0.3-0.3,0.4-0.5,0.4-0.9c-0.2-2,0.1-4,0.8-5.9c0.2-0.4,0.3-0.9,0.4-1.3c0.2-0.7,0.5-1.4,0.7-2.1c0.1-0.3,0-0.7,0.2-1
									c0.4-0.7,0.6-1.5,0.6-2.3c0-0.5,0.2-1.1,0.3-1.6c0.1-0.2,0.2-0.4,0.3-0.6c0.1-0.2,0.2-0.5,0.3-0.7c0.2-0.3,0.4-0.7,0.6-1
									c0.1-0.2,0.2-0.4,0.3-0.6c0.5-0.5,1-1.1,1.6-1.6c0.5-0.4,0.9-0.8,1.4-1.2c0.3-0.2,0.7-0.4,1-0.6c0.1,0,0.3,0.1,0.3,0.1
									c0.2,0.4,0.3,0.8,0.5,1.2c0,0.1,0,0.4-0.2,0.5c-0.4,0.3-0.8,0.6-1.1,0.8c-0.5,0.4-1.1,0.7-1.5,1.1c-0.4,0.4-0.8,0.8-1.2,1.3
									c0,0-0.1,0.1-0.1,0.2c0,0.3,0.7,0.9,1,0.8c0.3-0.1,0.4,0,0.6,0.2c0.8,1,1.2,1,2.2,0.6c0.3-0.1,0.6-0.4,0.6-0.8
									c0-0.1,0.1-0.2,0.1-0.3c0.5-0.4,1-0.8,1.6-1.1c0.6-0.3,1.1-0.6,1.6-0.9c0.2-0.1,0.4-0.2,0.5-0.4c0.4-0.2,0.8-0.4,1.2-0.7
									c0.2-0.2,0.4-0.1,0.5,0.2c0,0.5,0,1.1,0,1.6c-0.1,0.7-0.3,1.5-0.3,2.2c0,0.7,0.1,1.4,0.1,2.1c0,0.2,0,0.4-0.2,0.4
									c-0.4,0-0.7-0.2-0.6-0.4c0.1-0.2,0.2-0.5,0.2-0.7c0-0.2,0.1-0.3,0.1-0.5c0,0-0.1,0-0.1,0c-0.1,0.3-0.3,0.5-0.4,0.8
									c-0.2,0.4-0.3,0.4-0.7,0.2c-0.3-0.2-0.7-0.5-1-0.5c-0.6,0.1-1.3,0.1-1.9,0.6c-0.1,0.1-0.3,0.1-0.4,0
									c-0.2-0.2-0.4-0.4-0.7-0.6c-0.9-0.6-1.8-0.9-2.9-0.4c-0.4,0.2-0.8,0.3-1.1,0.5c0.1,0.2,0.2,0.4,0.1,0.6
									c-0.1,0.5-0.3,1-0.5,1.6c0,0.1,0,0.2,0,0.2c0.1,0.4,0.2,0.9,0.3,1.3c0.3,0.9,0.5,1.8,1.1,2.6c0.7,0.9,1.4,1.8,2.4,2.5
									c0.3,0.2,0.4,0.2,0.6-0.1c0-0.1,0.1-0.1,0.2-0.1c0.3,0,0.6,0.1,0.9,0.1c0.2,0,0.5,0.1,0.7,0.1c0.2-0.1,0.5-0.4,0.5-0.4
									c-0.2-0.5,0.2-0.8,0.3-1.1c0-0.1,0.3-0.3,0.4-0.3c0.4,0.1,0.5-0.1,0.6-0.3c0.1-0.4,0.2-0.8,0.2-1.2c0-0.8,0.1-0.9,1-1.1
									c0.1,0,0.2,0,0.3,0c0.3-0.1,0.4,0,0.6,0.3c0.2,0.5,0.5,1,0.7,1.4c0.3,0.4,0.6,0.8,1,1.1c0,0,0.1-0.1,0.1-0.1
									c-0.1-0.4-0.3-0.7-0.4-1.2c0.2,0.1,0.3,0.1,0.4,0.2c0.5,0.3,1.1,0.7,1.6,1c0.1,0,0.2,0,0.3,0c0-0.1,0-0.2,0-0.3
									c-0.1-0.2-0.2-0.4-0.3-0.6c-0.1-0.2-0.1-0.4,0.1-0.5c0.4-0.2,0.7-0.5,1.1-0.8c0.1,0,0.1-0.1,0.2-0.1
									c0.6,0.1,0.7,0.1,0.9-0.5c0.2-0.3,0.3-0.7,0.5-1c0.2-0.3,0.6-0.6,0.8-0.9c0.1-0.1,0.2-0.3,0.4-0.4c0.1,0.1,0.2,0.2,0.2,0.3
									c0.4,0.5,0.2,1.1,0,1.6c-0.1,0.2-0.1,0.5-0.1,0.7c0,0.2,0.2,0.3,0.4,0.2c0.3-0.1,0.5-0.1,0.8,0c0.6,0.1,1.6-0.2,1.8-0.7
									c0.2-0.4,0.4-0.7,0.5-1.1c0.1-0.5,0.8-0.7,0.7-1.3c0,0,0-0.1,0.1-0.1c0.5-0.1,0.5-0.6,0.8-0.9c0.4-0.4,0.7-0.9,1.1-1.4
									c0.2-0.3,0.5-0.5,0.7-0.7c0.1-0.1,0.2-0.1,0.3-0.1c0,0.1,0,0.2,0,0.3c-0.4,0.9-0.7,1.8-1.1,2.7c-0.2,0.5-0.5,1-0.8,1.5
									c-0.5,0.7-1,1.3-1.5,2c-0.7,1-1.8,1.6-2.8,2.2c-0.5,0.3-1.1,0.4-1.7,0.6c-0.1,0-0.3,0.2-0.3,0.3c-0.1,0.5-0.1,1.1-0.1,1.6
									c0,0.1,0.1,0.3,0.2,0.3c0.4,0,0.5,0.4,0.6,0.7c0,0.1,0.1,0.2,0.2,0.3c0.3,0.3,0.5,0.3,0.6-0.1c0.1-0.2,0.2-0.3,0.2-0.5
									c0.1-0.2,0.2-0.3,0.4-0.2c0.7,0.3,1.2-0.1,1.6-0.6c0.3-0.4,0.4-0.3,0.6,0.1c0.2,0.4,0.5,0.8,0.7,1.1c0,0,0.1,0,0.1,0
									c0.1-0.3,0.2-0.6,0.3-1c0.1,0.1,0.2,0.1,0.2,0.2c0.2,0.3,0.4,0.1,0.6,0c0.1,0,0.1-0.2,0.1-0.4c0-0.3-0.1-0.6,0-0.8
									c0.2-0.3,0-0.7,0.1-1c0,0,0-0.1,0-0.2c-0.7,0.3-0.4,1.2-0.9,1.8c0-0.2-0.1-0.3-0.1-0.5c0-0.3,0.1-0.6,0.2-1
									c0.2-0.6,0.2-1.2,0.6-1.7c0.6-0.6,1.2-1.2,1.8-1.8c0.4-0.5,0.8-0.9,1.2-1.4c0.5-0.8,1-1.6,1.8-2.3c0.1-0.1,0.2-0.2,0.2-0.4
									c0,0,0,0,0,0c0,0,0,0,0,0c-0.2,0.1-0.3,0.1-0.6,0.3c0.3-0.7,0.8-0.9,1.2-1.3c0.1,0.2,0.1,0.2-0.2,0.5
									c-0.1,0.2-0.3,0.4-0.4,0.5l0,0l0,0c0.1-0.1,0.3-0.1,0.4-0.2c0.2-0.2,0.4-0.4,0.6-0.6c0.4-0.4,0.9-0.9,1.3-1.3
									c0.4-0.4,0.7-0.8,1-1.1c0.1-0.1,0.2-0.1,0.3-0.1c0,0.1,0,0.2,0,0.3c-0.4,1-0.9,2-1.3,3c-0.2,0.7-0.4,1.4-0.5,2.1
									c0,0.1,0,0.3,0.1,0.4c0.2,0.4,0,1-0.4,1.1c-0.1,0.1-0.3,0-0.4,0c-0.1,0-0.2,0-0.3,0c-0.2,0-0.3,0-0.5,0
									c-0.2,0-0.5,0.2-0.5,0.4c0.2,0.9,0.6,1.6,1.4,2.1c0.5,0.3,1.1,0.4,1.6,0.5c0.2,0.1,0.6,0.2,0.7,0.1c0.5-0.2,1.1-0.2,1.7-0.4
									c0.9-0.3,1.8-0.6,2.6-1c0.1,0,0.3-0.1,0.4,0c0.1,0.1,0.1,0.2,0.1,0.4c0,0.7-0.1,1.4-0.1,2.1c0,1.1,0-0.8-0.1,0.2
									c0,0.9-0.2,1.7-0.2,2.6c-0.2,2.4-0.3,1.9-0.4,4.4c0,0.5,0,1-0.1,1.5c-0.1,1.8-0.3,3.5-0.3,5.3c0,2-0.3,4-0.5,6
									c0,0.2,0.1,0.5,0.2,0.8c0.1,0.3,0.3,0.3,0.4,0c0.2-0.4,0.5-0.8,0.7-1.1c0.1-0.1,0.2-0.1,0.3-0.2v1.3c0,0,0.1,0,0.1,0
									c0.1-0.6,0.2-1.1,0.3-1.8c0,0-0.1-0.1-0.2-0.2c-0.1-0.4-0.3-0.5-0.6-0.3c-0.2-0.4,0-0.9,0.3-1.2c0,0.3-0.1,0.5-0.1,0.8
									c0.2-0.1,0.3-0.1,0.3-0.2c0.1-0.5,0.3-0.9,0.3-1.4c0.1-1.5,0.2-3,0.3-4.4c0-0.5,0-0.5-0.5-0.5c-0.1,0-0.2,0-0.2,0
									c-0.1,0-0.2-0.1-0.2-0.1c0,0,0-0.2,0-0.2c0.1,0,0.2,0,0.3,0c0.3,0.1,0.4,0.1,0.5-0.2c0.1-0.3,0.2-0.5,0.3-0.8
									c0-0.1,0-0.2,0-0.3c0-0.4-0.1-0.8-0.1-1.2c0-0.1,0-0.1,0.1-0.2v0l0,0c0,0,0-0.1,0-0.1c0-0.1,0.1-0.3,0.1-0.4
									c-0.1-0.2,0-0.4,0-0.6c0,0.3-0.1,0.5-0.1,0.8c0,0,0,0.1,0,0.1c0-0.6,0-1.2,0-1.2c0.1,0.1,0.2,0.2,0.2,0.4
									c0-0.2,0.1-0.4,0.1-0.6c0.1-0.5-0.1-0.9,0.2-1.4c0.1-0.1,0-0.4,0-0.6c0-0.1,0-0.2,0.1-0.4c0-0.1,0.1-0.1,0.1-0.2
									c0-0.4,0-0.8,0-1.2c0.1-1,0.1-2.1,0.2-3.1c0-0.5,0.2-1,0.2-1.5c0-0.6,0,1.7,0.2,1c0-0.1,0-0.1,0-0.2
									c0.1-1.1,0.1-2.1,0.2-3.2c0-0.3,0.2-0.7,0.6-0.9c0.4-0.2,0.9-0.5,1.2-0.8c0.4-0.4,0.9-0.5,1.4-0.6c0.3-0.1,0.6-0.2,0.7-0.4
									c0.4-0.7,1.1-1,1.7-1.4c0.2-0.1,0.5-0.3,0.7-0.4C137.8,555.8,137.9,555.3,137.6,554.9z M131.2,548.5c0.1,0,0.2,0.2,0.3,0.2
									c-0.1,0.1-0.3,0.3-0.5,0.5c-0.1-0.2-0.2-0.3-0.2-0.4C130.9,548.7,131,548.5,131.2,548.5z M123.9,526.7
									c0.2-0.4,0.5-0.8,0.7-1.2c0.1-0.1,0.2-0.1,0.2-0.2c0,0.1,0.1,0.2,0.1,0.3c-0.1,0.3-0.3,0.6-0.5,0.8
									c-0.1,0.2-0.3,0.4-0.4,0.6c0,0-0.1,0-0.1,0C123.9,527,123.9,526.8,123.9,526.7z M127.4,530.3c0.1,0,0.2,0.2,0.2,0.3
									c0,0.1-0.1,0.2-0.3,0.3c-0.3,0.1-0.6,0.1-0.7-0.3c-0.1-0.2-0.3-0.3-0.5-0.5C126.6,530.2,127,530.2,127.4,530.3z
									 M123.4,532.2c0.2-0.7,0.8-1.2,1.3-1.6c0.6-0.4,1.1-0.3,1.5,0.2c0.1,0.1,0.2,0.1,0.3,0.2c0.1,0.1,0.1,0.1,0.2,0.2
									c-0.1,0.1-0.1,0.1-0.2,0.2c-0.9,0.4-1.8,0.9-2.7,1.3c-0.1,0.1-0.3,0-0.5,0.1C123.3,532.5,123.3,532.4,123.4,532.2z
									 M120.8,529.1c-0.1-0.3-0.1-0.5-0.2-0.9C121,528.4,121.1,528.8,120.8,529.1z M119.4,531.7c-0.2,0.2-0.4,0.4-0.6,0.5
									c-0.1,0-0.1,0.1-0.2,0.1c0-0.1,0-0.2,0-0.3c0.3-0.3,0.7-0.6,1-0.9c0.2-0.2,0.5-0.4,0.7-0.6c0.1,0,0.2-0.1,0.2-0.1
									c0.1,0,0.1,0.1,0.1,0.2c0,0.4-0.2,0.6-0.5,0.7C119.9,531.3,119.7,531.5,119.4,531.7z M100.4,546.5c-0.1,0.1-0.1,0.2-0.2,0.3
									c0,0.1,0,0.3-0.1,0.4c-0.2,0.1-0.5,0.2-0.7,0.1c-0.5-0.2-0.5-0.4-0.1-0.8c0.1-0.2,0.3-0.3,0.3-0.5c0.1-0.4,0.4-0.4,0.7-0.4
									c0.3,0,0.3,0.3,0.4,0.6C100.6,546.2,100.5,546.3,100.4,546.5z M97,561.4c-0.1,0.4-0.4,0.3-0.7,0.1c-0.8-0.6-1.2-1.4-1.2-2.4
									c0-0.3,0.2-0.6,0.3-0.9c0.2-0.3,0.6-0.6,0.9-0.8c0.1-0.1,0.3-0.1,0.4,0c0.5,0.5,0.7,1.2,0.8,2.1
									C97.4,560,97.2,560.7,97,561.4z M103.4,545.2c-0.1-0.2-0.3-0.4-0.3-0.5c0-0.6,0.4-1.4,1.1-1.6c0.3-0.1,0.6-0.3,0.9-0.4
									c0.1,0,0.2,0,0.3,0c0,0.1,0,0.2,0,0.3c-0.3,0.5-0.6,1.1-1,1.6C104.2,544.9,103.8,545,103.4,545.2z M104.2,553.6v1.2
									c0,0-0.1,0-0.1,0c0-0.2-0.1-0.3-0.1-0.5c0-0.7,0.1-1.3,0.2-2c0.1-0.4,0.3-0.8,0.3-1.3c0,0,0.1-0.1,0.1-0.2
									c0,0,0.1,0,0.1,0.1c0.1,0.3,0.2,0.6,0.1,0.9c0,0.5-0.1,0.9-0.2,1.4C104.6,553.6,104.5,553.8,104.2,553.6z M106.5,558
									c-0.5,0.6-0.9,1.3-1.4,1.9c-0.1,0-0.1,0-0.2-0.1c-0.5-1.1,0-2.2-0.2-3.4c0.2,0.1,0.3,0.1,0.4,0.2c0.4,0.3,0.8,0.6,1.2,0.8
									C106.6,557.6,106.7,557.8,106.5,558z M128.6,556.4c-0.1,0.6-0.7,0.5-1,0.8c-0.1,0-0.1,0-0.2,0c0-0.2-0.1-0.4-0.1-0.5
									c0.3-0.6,0.7-1.1,1.1-1.7c0,0,0.1,0,0.1-0.1C128.7,555.5,128.6,555.9,128.6,556.4z M130.2,544.9c0,0.1-0.2,0.2-0.3,0.2
									c0,0-0.1,0-0.1-0.1c-0.1,0.3-0.1,0.6-0.2,0.9c0,0-0.1,0-0.1,0c0-0.1-0.1-0.2-0.1-0.2c0-0.3,0.1-0.7,0-1
									c0-0.3-0.2-0.5-0.2-0.8c-0.1-0.4,0-0.6,0.5-0.7c0.2,0,0.3,0,0.5,0.3C130.4,544,130.3,544.5,130.2,544.9z"/>
							</g>
							<path class="st0" d="M115.3,547.4c0-0.2-0.1-0.4-0.4-0.4c-0.3,0-0.4,0.2-0.4,0.6c0.1,0.1,0.2,0.2,0.4,0.2
								C115.1,547.8,115.3,547.6,115.3,547.4z"/>
							<path class="st0" d="M112.7,569.7c-0.1,0-0.2,0.1-0.2,0.2c0,0.1,0.1,0.2,0.2,0.4c0.1-0.2,0.2-0.3,0.2-0.3
								C112.9,569.8,112.8,569.7,112.7,569.7z"/>
						</g>
					</g>
					<g>
						<g>
							<path class="st0" d="M71.4,615.7c-2.7,0-4.4-1.8-4.4-4.4c0-2.6,1.9-4.6,4.3-4.6c1.7,0,2.3,0.4,2.9,0.4c0.1,0,0.1,0,0.1,0.1
								l0.1,1.7c0,0.2-0.2,0.2-0.2,0.1c-0.4-1.1-1.2-1.7-2.8-1.7c-1.8,0-3,1.8-3,3.9c0,2.2,1.2,3.6,3.3,3.6c1.4,0,2.3-0.5,2.8-1.1
								c0.1-0.1,0.3,0,0.2,0.1C74.2,614.7,73.3,615.7,71.4,615.7z"/>
							<path class="st0" d="M84.2,615.7c-0.4,0-1-0.1-1.9-0.1h-3.6c-0.1,0-0.2-0.1,0-0.2c0.4-0.2,0.4-0.3,0.4-1.7v-4.6
								c0-1.6,0-1.7-0.3-1.8c-0.2,0-0.2-0.1-0.3-0.5h3.7c0.7,0,1.6,0,2-0.1c0.1,0,0.1,0,0.1,0.1l0.1,1.7c0,0.2-0.2,0.2-0.2,0
								c-0.3-0.9-0.5-1.2-1.6-1.2h-2.2v3.4h0.9c1.6,0,1.7-0.3,1.9-0.6c0.1-0.1,0.2-0.1,0.2,0.1c-0.1,0.4,0,1.3,0,1.8
								c0,0.1-0.1,0.2-0.2,0.1c-0.4-0.6-0.9-0.8-1.9-0.8h-0.8v3.4c0,0.2,0,0.3,0.2,0.3c0.5,0,1.1,0,1.8,0c1.7-0.1,1.9-0.5,2.4-1.6
								c0.1-0.1,0.3-0.1,0.2,0.1l-0.5,2C84.4,615.6,84.4,615.7,84.2,615.7z"/>
							<path class="st0" d="M91.5,606.8c-0.1,0.3-0.1,0.4-0.3,0.4c-0.5,0-0.6,0-0.6,1.6v6c0,0.1,0,0.2,0.2,0.2c0.3,0,0.9,0,1.4,0
								c1.9-0.1,2-0.5,2.6-1.6c0.1-0.1,0.3-0.1,0.2,0.1l-0.6,2c0,0.1-0.1,0.1-0.2,0.1c-0.4,0-1-0.1-2-0.1H89c-0.1,0-0.2-0.1,0-0.2
								c0.4-0.2,0.5-0.3,0.5-1.7v-4.6c0-1.9,0-1.8-0.7-1.9c-0.2,0-0.2-0.2-0.1-0.4H91.5z"/>
							<path class="st0" d="M104.2,615.7c-0.4,0-1-0.1-1.9-0.1h-3.6c-0.1,0-0.2-0.1,0-0.2c0.4-0.2,0.4-0.3,0.4-1.7v-4.6
								c0-1.6,0-1.7-0.3-1.8c-0.2,0-0.2-0.1-0.3-0.5h3.7c0.7,0,1.6,0,2-0.1c0.1,0,0.1,0,0.1,0.1l0.1,1.7c0,0.2-0.2,0.2-0.2,0
								c-0.3-0.9-0.5-1.2-1.6-1.2h-2.2v3.4h0.9c1.6,0,1.7-0.3,1.9-0.6c0.1-0.1,0.2-0.1,0.2,0.1c-0.1,0.4,0,1.3,0,1.8
								c0,0.1-0.1,0.2-0.2,0.1c-0.4-0.6-0.9-0.8-1.9-0.8h-0.8v3.4c0,0.2,0,0.3,0.2,0.3c0.5,0,1.1,0,1.8,0c1.7-0.1,1.9-0.5,2.4-1.6
								c0.1-0.1,0.3-0.1,0.2,0.1l-0.5,2C104.4,615.6,104.4,615.7,104.2,615.7z"/>
							<path class="st0" d="M114.3,608.9c0,1.3-0.9,1.9-1.8,2.1c1.2,0.1,2.5,0.8,2.5,2.2c0,1.6-1.2,2.4-3.1,2.4
								c-0.7,0-1.4-0.1-2.1-0.1c-0.4,0-0.6,0-1,0.1c-0.1,0-0.1-0.1-0.1-0.2c0.4-0.3,0.4-0.4,0.4-1.7V609c0-1.5,0-1.6-0.3-1.7
								c-0.2-0.1-0.3-0.2-0.3-0.5c0.4,0.1,0.7,0.1,1.2,0.1c0.6,0,1.2-0.1,1.7-0.1C113.6,606.8,114.3,608,114.3,608.9z M110.5,610.8
								h0.4c1.7,0,2.2-0.7,2.2-1.6c0-1-0.4-1.8-1.6-1.8c-0.4,0-0.8,0-1,0.1V610.8z M110.9,611.4h-0.4v3.5c0.4,0.1,0.8,0.1,1.3,0.1
								c1.4,0,2-0.6,2-1.8C113.7,611.5,112.4,611.4,110.9,611.4z"/>
							<path class="st0" d="M119,615.2c0.6-0.1,0.6-0.1,0.6-1.9v-4.3c0-1.6,0-1.6-0.4-1.8c-0.3-0.1-0.3-0.2-0.3-0.5
								c0.9,0.1,1.9,0,3.1,0c2.1,0,3.2,1.3,3.2,2.4c0,1.2-1,2.3-2.6,2.4c1.7,1.3,1.9,3,3.5,3.8c0.2,0.1,0.2,0.2,0,0.2
								c-0.8,0-1.5,0.1-2.1-0.5c-1-1.1-1.5-2.7-2.8-3.6c-0.1-0.1-0.1-0.2,0-0.2c1.8,0,2.8-0.6,2.7-2c-0.1-1.3-1-2.1-3.1-1.7v5.5
								c0,2.1,0,2.1,1,2.1c-0.1,0.3-0.2,0.4-0.3,0.4h-2.7C118.8,615.3,118.8,615.3,119,615.2z"/>
							<path class="st0" d="M129.8,607.2c-0.2,0-0.2-0.1-0.1-0.4h2.8c-0.1,0.3-0.1,0.4-0.3,0.4c-0.5,0-0.5,0-0.5,1.6v4.2
								c0,2.1,0,2.1,0.9,2.1c-0.1,0.3-0.1,0.4-0.3,0.4h-2.6c0-0.2,0.1-0.4,0.2-0.4c0.6-0.1,0.6-0.1,0.6-1.9v-4.2
								C130.4,607.3,130.5,607.3,129.8,607.2z"/>
							<path class="st0" d="M136.3,606.9c0-0.1,0.1-0.2,0.2-0.1c0.4,0,1.5,0.1,2.5,0.1h2c1.2,0,2,0,2.4-0.1c0.1,0,0.2,0,0.2,0.1
								c-0.1,0.6-0.1,1.3-0.2,2c0,0.2-0.2,0.2-0.2,0c-0.2-1-0.5-1.5-1.1-1.5h-1.6v5.7c0,2,0,2,1.2,2.1c-0.1,0.3-0.1,0.4-0.3,0.4
								h-3.2c0-0.2,0.1-0.4,0.2-0.4c0.8-0.1,0.9-0.1,0.9-1.9v-6h-1.7c-0.5,0-0.9,0.5-1.1,1.5c-0.1,0.2-0.2,0.1-0.2,0
								C136.2,608.2,136.3,607.5,136.3,606.9z"/>
							<path class="st0" d="M146.8,606.9h3.2c-0.1,0.3-0.1,0.3-0.2,0.3c-1,0.1-0.8,0.4-0.2,1.5l1.5,2.4c0,0,0,0,0,0l1.2-2
								c0.9-1.5,0.7-1.8-0.2-1.9c-0.2,0-0.2-0.1-0.2-0.3h2.9c-0.1,0.3-0.1,0.3-0.3,0.3c-0.4,0.1-0.5,0.2-1.2,1.4l-1.8,3.2v0.9
								c0,2.4,0.1,2.4,1.1,2.5c-0.1,0.3-0.1,0.4-0.3,0.4h-3c0-0.2,0.1-0.4,0.2-0.4c0.8-0.2,0.8-0.2,0.8-2v-1.1l-2-3.4
								c-0.6-1.1-0.6-1.3-1.2-1.4C146.7,607.2,146.7,607.2,146.8,606.9z"/>
						</g>
						<g>
							<path class="st0" d="M88.9,626.8c-0.4-1-0.5-1.3-1-1.4c-0.2,0-0.1-0.1-0.1-0.4h3c-0.1,0.3-0.1,0.4-0.3,0.4
								c-0.9,0.1-0.8,0.2-0.3,1.4l2,4.9c0,0,0.1,0,0.1,0l1.7-4.4c0.6-1.6,0.7-1.8-0.3-1.9c-0.3,0-0.3-0.1-0.2-0.4h2.8
								c-0.1,0.3-0.2,0.4-0.3,0.4c-0.5,0-0.6,0.2-1.1,1.4l-2.8,7.1c-0.1,0.1-0.2,0.1-0.3,0L88.9,626.8z"/>
							<path class="st0" d="M99.9,625.5c-0.2,0-0.2-0.2-0.1-0.4h2.8c-0.1,0.3-0.1,0.4-0.3,0.4c-0.5,0-0.5,0-0.5,1.6v4.2
								c0,2.1,0,2.1,0.9,2.2c-0.1,0.3-0.1,0.4-0.3,0.4h-2.6c0.1-0.2,0.1-0.4,0.2-0.4c0.6-0.1,0.6-0.1,0.6-1.9v-4.2
								C100.6,625.5,100.6,625.5,99.9,625.5z"/>
							<path class="st0" d="M109.6,625.1c-0.1,0.3-0.1,0.4-0.3,0.4c-0.5,0-0.6,0-0.6,1.6v6c0,0.1,0,0.2,0.2,0.2c0.3,0,0.9,0,1.4,0
								c1.9-0.1,2-0.5,2.6-1.6c0.1-0.1,0.3-0.1,0.2,0.1l-0.6,2c0,0.1-0.1,0.1-0.2,0.1c-0.4,0-1-0.1-2-0.1H107c-0.2,0-0.2-0.1,0-0.2
								c0.5-0.2,0.5-0.3,0.5-1.8v-4.6c0-1.9,0-1.8-0.7-1.9c-0.2,0-0.2-0.2-0.1-0.4H109.6z"/>
							<path class="st0" d="M119.4,625.1c-0.1,0.3-0.1,0.4-0.3,0.4c-0.5,0-0.6,0-0.6,1.6v6c0,0.1,0,0.2,0.2,0.2c0.3,0,0.9,0,1.4,0
								c1.9-0.1,2-0.5,2.6-1.6c0.1-0.1,0.3-0.1,0.2,0.1l-0.6,2c0,0.1-0.1,0.1-0.2,0.1c-0.4,0-1-0.1-2-0.1h-3.3c-0.2,0-0.2-0.1,0-0.2
								c0.5-0.2,0.5-0.3,0.5-1.8v-4.6c0-1.9,0-1.8-0.7-1.9c-0.2,0-0.2-0.2-0.1-0.4H119.4z"/>
							<path class="st0" d="M134,633.5c-0.1,0.3-0.1,0.4-0.3,0.4h-2.6c0.1-0.3,0.1-0.4,0.2-0.4c0.8,0,0.6-0.3,0.2-1.4l-0.4-1.1h-3.1
								l-0.6,1.7c-0.2,0.7-0.1,0.7,0.7,0.8c-0.1,0.3-0.1,0.4-0.3,0.4h-2.2c0-0.3,0-0.4,0.2-0.4c0.4-0.1,0.5-0.2,1-1.4l2.8-7.1
								c0.1-0.1,0.2-0.1,0.3,0l2.9,7.1C133.4,633.2,133.5,633.5,134,633.5z M129.7,627.1l-1.3,3.4h2.6L129.7,627.1
								C129.7,627.1,129.7,627.1,129.7,627.1z"/>
						</g>
					</g>
				</g>
			</g>
		</g>
	</g>
	<g>
		
			<image style="overflow:visible;opacity:0.8;" width="652" height="92" xlink:href="B4BD264F.png"  transform="matrix(1 0 0 1 53.0277 764.0277)">
		</image>
		<g>
			<g>
				<path class="st0" d="M76,823.4c3.3-1.1,6.8-2,10.2-3l0.7,5c-8.6,2.6-17.9,5.4-24.8,7.4l-1.1-5.3c2.7-0.8,6.1-1.7,9.8-2.7v-20.7
					h-8.9v-5.2h8.9v-16.3h-9.5v-5.3h24.3v5.3H76v16.3h7.9v5.2H76V823.4z M110.7,773.7c-0.5,1-1,1.9-1.4,2.8
					c5.2,7.3,14,14.6,21.6,18.3c-1.4,1.1-3.1,3.1-4,4.5c-6.9-3.9-14.8-11-20.4-18.3c-5.1,7.6-12.1,14.1-20.4,18.9
					c-0.8-1.1-2.6-3-3.8-3.9c10.4-5.6,18.9-14.6,23.1-23.9L110.7,773.7z M127,816.4c-6.8,12.2-19.8,20.1-36.4,24.5
					c-0.8-1.5-2.1-3.5-3.3-4.8c15.9-3.5,28.6-10.7,34.8-21.8L127,816.4z M111.7,795.1c-4.7,5.9-12.3,11.5-19.1,15
					c-0.8-1.1-2.3-2.8-3.6-3.8c6.5-2.9,14.1-8,18.3-13L111.7,795.1z M118.8,805.6c-5.6,8.1-15.3,15.3-25,19.6
					c-0.8-1.3-2.3-3-3.5-4.1c9.3-3.7,18.9-10.3,24-17.6L118.8,805.6z"/>
				<path class="st0" d="M156.1,814.9c-0.9-2-3.1-5.5-5-8.3v34.3h-4.9v-33.4c-2.4,7.2-5.5,14.4-8.6,18.9c-0.6-1.4-1.9-3.5-2.7-4.8
					c3.8-5.2,7.8-14.5,10.1-22.7h-8.6v-5.3h9.8v-12.1c-2.6,0.6-5.3,1.1-7.8,1.6c-0.2-1.3-1-3.1-1.6-4.4c6.8-1.4,14.8-3.5,19.5-5.9
					l3.2,4.4c-2.5,1.1-5.3,2.1-8.4,3v13.3h8.3v5.3h-8.3v2.1c1.8,2,6.8,8,7.9,9.5L156.1,814.9z M176.6,801.1
					c-1.6,3.2-3.5,6.2-5.3,8.9h9.7v-6.7h5.1v6.7h15.3v18.8c0,2.6-0.4,3.9-2.2,4.7c-1.7,0.8-4.3,0.8-8,0.8c-0.2-1.4-0.9-3.3-1.6-4.7
					c2.7,0.1,5,0.1,5.6,0c0.8,0,1-0.2,1-0.9v-13.9h-10.1v26.1H181v-26.1h-9.4v19.6h-5.1v-18.6c-1.5,1.5-3,3-4.7,4.4
					c-0.8-1.1-2.7-3.1-3.9-3.9c5.1-3.8,9.5-9.1,13-15.2h-9.2v-4.9h11.7c1-2.3,2-4.6,2.7-7c-3.5,1.4-7.1,2.9-10.6,4
					c-0.8-1.1-2.5-3.3-3.6-4.4c5.6-1.5,11.3-3.5,16.8-5.9c-4.8-2-9.6-3.7-14.2-5l3.4-3.8c5.3,1.6,11,3.7,16.5,5.9
					c4.4-2.3,8.2-5,11-7.7l4.7,2.3c-2.9,2.8-6.5,5.4-10.4,7.8c5.2,2.3,10,4.7,13.5,6.8l-3.3,4.1c-3.9-2.6-9.5-5.3-15.6-8
					c-2.3,1.3-4.8,2.3-7.2,3.5l4.2,1c-0.8,2.2-1.6,4.4-2.4,6.5h25.8v4.9H176.6z"/>
				<path class="st0" d="M279.2,779.8v5.1h-56.7v16.4c0,11.6-0.9,28.6-7.4,39.9c-1-1.1-3.4-2.6-4.6-3.2c6.1-10.7,6.6-25.9,6.6-36.7
					v-21.5h29.2c-0.9-2.1-2.1-4.6-3.2-6.5l5.3-1.6c1.5,2.6,3.2,5.6,4.1,8.1H279.2z M266.3,793.8h12.2v4.7h-12.2v11.9h-12.2v5.9h20.3
					v15.5c0,2.8-0.5,4.2-2.7,5c-2.1,0.8-5.5,0.8-10.9,0.8c-0.2-1.5-1-3.4-1.6-4.9c4.1,0.1,7.4,0.1,8.4,0.1c1,0,1.3-0.2,1.3-1.1
					v-10.5h-14.8V841h-5.5v-19.9h-14.2v16.6H229v-21.5h19.7v-5.9h-12.4v-11.9h-11.3v-4.7h11.3v-6.7h5.3v6.7h19.4v-6.7h5.4V793.8z
					 M260.9,798.4h-19.4v7.4h19.4V798.4z"/>
				<path class="st0" d="M310.6,820.3H287v-5.5h23.6V820.3z M308.3,789.4h-19.7V784h19.7V789.4z M330.6,799.6c0,1.1,0,2.3-0.1,3.3
					c3.5,15.9,10.9,27.9,24.6,32.6c-1.1,1.1-2.9,3.3-3.7,4.9c-11.3-4.6-18.3-13.5-22.5-25.6c-2.6,9.2-8.8,18.8-23.1,26.3
					c-0.9-1.3-2.9-3.4-4.2-4.4c21.6-10.9,23.2-26.5,23.2-37.3v-5.7h5.9V799.6z M318.6,790.5c-2.3,6.1-4.9,11.5-7.9,15.8
					c-1.2-1-4-2.5-5.5-3.2c5.7-7.3,9.8-19,12.1-30.9l6,1.1c-0.8,4-1.8,7.9-2.9,11.6h27.2l1.1-0.3l4.1,2.2c-2,7.3-5.3,15.2-7.9,20.4
					c-1.2-0.7-3.3-1.8-4.7-2.4c1.8-3.5,4.1-9.2,5.6-14.4H318.6z"/>
				<path class="st0" d="M459.1,808.3v4.4h-48v2h-5.5v-23.5c-2,2.3-4.3,4.4-6.4,6.2c-0.9-1-2.9-2.9-4.2-3.8
					c6.9-5,13.4-13.1,17.4-21.3l5.1,1.7c-1.3,2.6-2.8,5.3-4.4,7.7H431c-0.8-2.4-2.4-5.6-3.8-8.2l5.3-1.2c1.7,2.8,3.7,6.5,4.5,9
					l-1.5,0.4h21.3v4.4h-21.5v4.4h18.5v4h-18.5v4.8h18.6v3.9h-18.6v5.3H459.1z M457.8,834.8c0,2.8-0.5,4.1-2.6,5
					c-2,0.8-5.2,0.8-10.1,0.8c-0.2-1.5-0.9-3.3-1.6-4.7c3.8,0.1,6.8,0.1,7.7,0c1-0.1,1.2-0.3,1.2-1.1v-13.5h-11.8v11h-22.3v-11
					h-11.6V841h-5.5v-24.6h22.2v11.2h11.9v-11.2h22.5V834.8z M430,785.9H411v4.4H430V785.9z M430,794.3H411v4.8H430V794.3z
					 M411,808.3H430V803H411V808.3z"/>
				<path class="st0" d="M496.3,803.5c-3.8,15.3-12.5,26.4-22.1,32.6c-0.8-1.2-3.1-3.3-4.4-4.2c8.3-4.9,15.6-13.5,19.4-24.5h-17.9
					v-5.3h20.3l1-0.2L496.3,803.5z M536.5,796.6c-5.9,5.5-13.5,11.9-19.8,16.3c5.6,8.3,13,14.7,22.3,18.2c-1.2,1.1-3,3.3-3.8,4.9
					c-12.6-5.5-21.6-15.6-27.6-28.9v26.6c0,3.4-0.8,5.1-3.2,6c-2.4,0.9-6.4,1-12.6,1c-0.2-1.5-1.1-4-2-5.6c4.6,0.2,9,0.2,10.2,0.1
					c1.4-0.1,1.8-0.5,1.8-1.7V793h-20.7v-5.4h26.5v5.6c1.7,5.6,3.8,10.8,6.5,15.6c5.9-4.5,13-10.9,17.4-15.8L536.5,796.6z
					 M515.5,787.2c-6.1-3.5-18.2-8-27.5-10.3l2.7-4.6c9.2,2.2,21.3,6.2,27.7,9.7L515.5,787.2z"/>
				<path class="st0" d="M560.5,823.4c3.3-1.1,6.8-2,10.2-3l0.7,5c-8.6,2.6-17.9,5.4-24.8,7.4l-1.1-5.3c2.7-0.8,6.1-1.7,9.8-2.7
					v-20.7h-8.9v-5.2h8.9v-16.3h-9.5v-5.3H570v5.3h-9.5v16.3h7.9v5.2h-7.9V823.4z M595.2,773.7c-0.5,1-1,1.9-1.4,2.8
					c5.2,7.3,14,14.6,21.6,18.3c-1.4,1.1-3.1,3.1-4,4.5c-6.9-3.9-14.8-11-20.4-18.3c-5.1,7.6-12.1,14.1-20.4,18.9
					c-0.8-1.1-2.6-3-3.8-3.9c10.4-5.6,18.9-14.6,23.1-23.9L595.2,773.7z M611.5,816.4c-6.8,12.2-19.8,20.1-36.4,24.5
					c-0.8-1.5-2.1-3.5-3.3-4.8c15.9-3.5,28.6-10.7,34.8-21.8L611.5,816.4z M596.2,795.1c-4.7,5.9-12.3,11.5-19.1,15
					c-0.8-1.1-2.3-2.8-3.6-3.8c6.5-2.9,14.1-8,18.3-13L596.2,795.1z M603.3,805.6c-5.6,8.1-15.3,15.3-25,19.6
					c-0.8-1.3-2.3-3-3.5-4.1c9.3-3.7,18.9-10.3,24-17.6L603.3,805.6z"/>
				<path class="st0" d="M684.8,800.7c-1.8,9.1-4.7,17.1-8.3,24c2,7.6,4.4,11.3,6.6,11.3c1.4-0.1,2.1-2,2.5-9.3
					c1.1,0.9,2.6,2,3.9,2.4c-0.8,10-2.6,11.9-6.8,11.9c-3.8,0-7.1-3.8-9.5-10.9c-3,4.1-6.3,7.9-10.1,11c-0.9-1-3-2.6-4.2-3.5
					c2.2-1.7,4.2-3.5,6.1-5.4h-21.9v-32.3h22.2v3.8h-7.8v5.2h7.8v14.1h-7.8v5.3h8.4v2.9c2-2.3,3.8-4.8,5.4-7.6
					c-1.6-7.3-2.8-16.9-3.5-28.5h-28.6v15.8c0,9.2-0.8,21.7-5.4,30.1c-0.8-0.8-3.1-2-4.2-2.5c3.1-5.6,4.2-12.8,4.6-19.5h-5.3v3.5
					c0,5.3-0.8,13.1-5.5,18.4c-0.8-0.8-2.4-1.9-3.4-2.4c4-4.8,4.7-11.6,4.7-16.2V819h-4.1v-4.7h13.8c0-1.1,0-2.3,0-3.4v-2.8h-10.5
					v-17.4h4.4v12.8h6.2v-13.2h33.2l-0.1-3.1h-1.9v-5h-9.5v-4.8h9.5v-5.3h5.5v5.3h16.8v4.8h-16.8v3.2h1.4c0,1.7,0.1,3.3,0.1,4.9h8.6
					c-1.7-1.6-4-3.5-6.2-4.7l3.4-2.6c2.6,1.4,5.9,3.8,7.4,5.7l-2,1.6h4.9v4.8h-15.8c0.4,8.6,1.1,15.6,2.1,21.5
					c2.1-5.1,3.8-10.7,4.9-16.8L684.8,800.7z M637.9,782.3H622v-4.8h15.9v-5.3h5.5v5.3h9.2v4.8h-9.2v5.3h-5.5V782.3z M647.3,803.7
					v5.2h6.2v-5.2H647.3z M661.2,812.6h-13.9v6.6h13.9V812.6z M647.3,828.3h6.2v-5.3h-6.2V828.3z"/>
			</g>
		</g>
	</g>
	<g>
		<rect x="373.6" y="784" class="st4" width="1.2" height="44"/>
	</g>
	<g>
		<rect x="57.6" y="751.3" class="st0" width="633.2" height="0.8"/>
	</g>
	<g>
		<g>
			
				<image style="overflow:visible;opacity:0.6;" width="286" height="93" xlink:href="B4BD264A.png"  transform="matrix(1 0 0 1 46.7362 667.7361)">
			</image>
			<g>
				<g>
					<path class="st0" d="M73.9,721.5h6.2v3.3H62.8v-38.4h17.4v3.3h-6.2v7.5h5.4v15h-5.4V721.5z M66,689.7v7.5h4.7v-7.5H66z
						 M76.1,700.5H66v8.4h10.1V700.5z M66,721.5h4.7v-9.3H66V721.5z M84.7,691.8c-1.2,2-2.5,3.7-3.8,5.1c-0.5-0.5-1.9-1.8-2.6-2.3
						c2.8-2.7,5.3-6.9,6.7-11.1l3.3,0.9c-0.5,1.4-1.2,2.8-1.9,4.1h18v3.3H84.7z M81.2,710h10.6v17.4H89v-2.1h-5.1v2.7h-2.7V710z
						 M83.9,713v9.2H89V713H83.9z M84.5,707v-11.8h17.7V707H84.5z M87.6,704.1h11.3v-5.9H87.6V704.1z M105.2,710v17.6h-2.9v-2.3H97
						v2.8h-2.8V710H105.2z M102.3,722.2V713H97v9.2H102.3z"/>
					<path class="st0" d="M151.1,689.4c-1.6,5.1-4.1,9.4-7.1,13c3,2.9,6.7,5.5,11.1,7.2c-0.7,0.7-1.8,2.1-2.2,3
						c-0.5-0.2-1-0.4-1.6-0.7v16.1h-3.5v-1.6h-12.2v1.8h-3.4v-16.2c-1,0.5-2,0.9-2.9,1.4c-0.3-0.7-1.1-1.7-1.8-2.4h-5.1v8.7
						c2.1-0.5,4.2-1,6.4-1.5l0.3,3.3c-6.6,1.6-13.6,3.3-18.7,4.5l-0.7-3.5l2.5-0.5v-16.6h3.1v16l3.8-0.9v-19.7h-6.8v-14.9h15.8v12.9
						c3.9-3.7,7-9.1,8.8-15l3.5,0.8c-0.5,1.4-1,2.8-1.6,4.1h9.4l0.6-0.1L151.1,689.4z M115.5,697.3h9.2v-8.5h-9.2V697.3z
						 M128.5,709.9c3.9-1.7,7.8-4.2,11-7.6c-1.8-2.2-3.3-4.5-4.5-6.7c-1.4,2.1-2.9,4-4.4,5.6c-0.5-0.5-1.7-1.6-2.5-2.1v1.5h-5.6v7
						h6.1V709.9z M149,710.6c-2.7-1.6-5.1-3.7-7.2-5.8c-2.2,2.2-4.7,4.2-7.3,5.8H149z M147.8,723.1v-9.4h-12.2v9.4H147.8z
						 M137.3,691.7l-0.5,0.9c1.2,2.4,2.8,4.9,4.8,7.3c2-2.5,3.8-5.2,5-8.2H137.3z"/>
					<path class="st0" d="M163,695.1c-0.8,1.1-1.6,2.1-2.5,3c-0.4-0.6-1.4-2-2-2.5c3-3,5.7-7.5,7.2-12l2.9,0.8
						c-0.6,1.6-1.2,3.2-2,4.7h5.7c-0.5-1.4-1.4-3.1-2.1-4.4l2.9-0.8c1,1.7,2.1,3.8,2.6,5.3h4.7v2.5h-5.8v2.8h4.8v1.1
						c2.9-3.1,5.5-7.6,7-12l3,0.8c-0.6,1.6-1.3,3.2-2,4.7h5.6c-0.5-1.4-1.3-3-2-4.3l2.9-0.9c0.9,1.6,2,3.7,2.5,5.2h5.5v2.5h-6.7v2.8
						h5.7v2.4h-5.7v2.8h5.7v2.4h-5.7v2.8h7.4v2.5h-18.8v-12.4c-0.9,1.2-1.8,2.3-2.7,3.3c-0.3-0.4-1.1-1.4-1.7-2v0.5h-4.8v2.9h4.8
						v2.4h-4.8v2.8h6.4v2.5H163V695.1z M197.6,711.8c-2.6,4-6.5,7.1-11.1,9.5c4.9,1.5,10.4,2.5,16.2,3c-0.8,0.9-1.8,2.4-2.2,3.5
						c-6.8-0.8-13.1-2.2-18.7-4.4c-6.5,2.5-14,4-21.2,4.8c-0.3-1-0.9-2.4-1.5-3.3c6.2-0.5,12.7-1.6,18.4-3.5c-4-2-7.4-4.6-10-7.7
						l0.7-0.3h-6.4v-3h32.7l0.7-0.2L197.6,711.8z M171.6,691.7h-5.5v2.8h5.5V691.7z M171.6,696.9h-5.5v2.9h5.5V696.9z M171.6,702.2
						h-5.5v2.8h5.5V702.2z M171.9,713.4c2.6,2.5,6.1,4.6,10.2,6.2c3.9-1.7,7.2-3.7,9.6-6.2H171.9z M192.2,691.7h-5.2v2.8h5.2V691.7z
						 M192.2,696.9h-5.2v2.8h5.2V696.9z M192.2,702.2h-5.2v2.8h5.2V702.2z"/>
					<path class="st0" d="M251.7,721.1h-20.2v7.2h-3.7v-7.2h-19.7v-3.3h19.7v-4h-14.6v-18.9h14.6v-3.6h-18.3V688h18.3v-4.4h3.7v4.4
						H250v3.3h-18.5v3.6h15v18.9h-15v4h20.2V721.1z M216.7,702.9h11.2v-5h-11.2V702.9z M227.9,710.8v-5h-11.2v5H227.9z M231.5,697.9
						v5H243v-5H231.5z M243,705.8h-11.4v5H243V705.8z"/>
					<path class="st0" d="M280.3,723.7h20.4v3.1h-44.3v-3.1h20.3v-4.3h-14.9v-3h14.9v-3.1h3.6v3.1h16.1v3h-16.1V723.7z M257,710.4
						c2.7-0.1,6.1-0.4,9.9-0.7v-3.8h-8.1v-2.7h8.1v-2.9h-8.2v-14.8h19.7v14.8h-8.3v2.9h8.1v2.7h-8.1v3.6l9.3-0.7v2.6
						c-8,0.7-16.2,1.4-22,2L257,710.4z M261.4,691.7h5.4V688h-5.4V691.7z M266.8,697.8v-3.7h-5.4v3.7H266.8z M275.3,688h-5.4v3.7
						h5.4V688z M275.3,694.1h-5.4v3.7h5.4V694.1z M287.7,700h-8.2v-3.1h11c-2-1.7-5.1-3.7-7.7-5.1l2-2c1.3,0.7,2.7,1.5,4.1,2.4
						c1.5-1.1,3.2-2.4,4.5-3.9h-13.1v-2.9h15.9l0.8-0.2l2.2,1.7c-2.1,2.5-5,5.1-7.8,7c1,0.7,1.9,1.4,2.5,2l-1,1h4.9l0.5-0.1l2.3,0.5
						c-1,2.9-2.3,6.2-3.6,8.2l-2.8-0.6c0.7-1.3,1.5-3.1,2.2-5h-5.5v10.1c0,1.8-0.3,2.6-1.7,3.2c-1.3,0.5-3.4,0.5-6.5,0.5
						c-0.2-0.9-0.7-2.1-1.1-3c2.4,0,4.4,0,5,0c0.7,0,0.8-0.2,0.8-0.7V700z"/>
				</g>
			</g>
		</g>
		<g>
			
				<image style="overflow:visible;opacity:0.6;" width="180" height="93" xlink:href="B4BD264B.png"  transform="matrix(1 0 0 1 317.7362 665.7361)">
			</image>
			<g>
				<g>
					<g>
						<path class="st0" d="M386.9,697.6v3.1h20.1v2.6h-20.1v3.1h20.1v2.6h-20.1v3.3h29.4v3.1h-25.6c-2.1,2.2-4.5,4.3-6.9,6l21-0.9
							c-1.1-1.2-2.3-2.3-3.4-3.4l3-1.5c3,2.7,7,6.5,8.9,8.9l-3.2,1.8c-0.7-0.9-1.7-2-2.8-3.2c-24.7,1.3-27.1,1.4-28.7,2
							c-0.2-0.8-0.7-2.5-1.1-3.4c0.9-0.1,1.9-0.7,2.9-1.5c0.9-0.6,3.3-2.5,5.4-4.8h-12.2v-3.1h9.5v-14.8c-2.4,1.8-5.2,3.4-8.3,4.8
							c-0.4-0.8-1.5-2-2.3-2.6c6.1-2.6,10.9-6.1,14.4-10h-12.9v-3.1h15.4c1.1-1.6,2.1-3.3,2.8-4.9l3.8,0.7c-0.7,1.4-1.5,2.8-2.4,4.2
							h22.4v3.1h-12.9c3.9,3.8,9.5,7.5,14.4,9.4c-0.8,0.7-1.9,2-2.4,2.8c-2.7-1.3-5.7-3.1-8.5-5.2v0.9H386.9z M391.4,689.7
							c-1.4,1.8-3,3.5-4.8,5.1h17.6c-1.9-1.6-3.6-3.4-5-5.1H391.4z"/>
						<path class="st0" d="M444.2,709c-0.2,1.3-0.4,2.6-0.7,3.8h17c0,0,0,1-0.1,1.5c-0.7,6.8-1.4,9.7-2.6,10.9
							c-0.8,0.8-1.8,1.1-3.2,1.2c-1.2,0.1-3.7,0-6.1-0.1c-0.1-0.9-0.4-2.2-1-3.1c2.4,0.2,4.8,0.2,5.7,0.2c0.9,0,1.4,0,1.8-0.4
							c0.7-0.7,1.3-2.7,1.8-7.3h-14.2c-1.9,4.9-5.6,8.5-12.9,10.7c-0.3-0.9-1.3-2.1-2-2.8c9.5-2.6,12-7.6,12.9-14.5H430
							c-0.6,6.1-2.2,12.7-5.9,17.5c-0.5-0.7-2-2.1-2.7-2.5c5-6.8,5.5-16.3,5.5-23.5v-15.2h0c10.9-0.6,23.9-1.9,31.1-3.6l2.8,2.7
							c-8,1.8-19.8,2.9-30.4,3.6v2.6h31.7v10.7h-31.7c0,1.4,0,3-0.1,4.6h15.5c-0.6-1.2-1.3-2.5-2.1-3.6l3.4-0.9
							c1,1.3,2.1,3.1,2.7,4.5h15.8v3H444.2z M430.4,693.6v4.9h28.1v-4.9H430.4z"/>
					</g>
					<g>
						<path class="st0" d="M358.4,681.4h0.9V712h5.3v4.2h-5.3v10.2H355v-10.2h-21L358.4,681.4z M355,712v-18.4L342,712H355z"/>
					</g>
				</g>
			</g>
		</g>
		<g>
			
				<image style="overflow:visible;opacity:0.6;" width="239" height="93" xlink:href="B4BD2646.png"  transform="matrix(1 0 0 1 481.7362 666.7361)">
			</image>
			<g>
				<g>
					<g>
						<g>
							<path class="st0" d="M522,684.9c4.5,6.8,12.9,13.3,20.6,16.5c-0.7,0.7-2,2.2-2.4,3.2c-7.4-3.5-15.1-9.8-20.2-16.3
								c-5,6.2-13.3,13-20.1,16.6c-0.4-0.9-1.4-2.1-2.2-2.9c6.1-2.8,13.3-8.3,18.2-13.7h-8.7v-3.4H522z M521.8,723.5h19v3.3h-41.2
								v-3.3h18.5v-8.1h-13.7v-3.2h13.7v-7.5h-11.6v-3.3h27.2v3.3h-12v7.5h13.9v3.2h-13.9V723.5z"/>
							<path class="st0" d="M554.4,714.5c-1.2,3.5-3.2,7.3-5,9.7c-0.6-0.4-1.8-1.4-2.5-1.8c1.9-2.3,3.6-5.6,4.6-8.8L554.4,714.5z
								 M560.4,711V728h-3.6V711h-9.7v-3.1h9.7v-5.1h-10v-3.1h13.5c0.9-2.2,2-5.5,2.6-7.7l3.3,0.7c-0.9,2.3-1.8,5-2.7,7h6.2v3.1
								h-9.4v5.1h8.8v3.1H560.4z M569.1,691.7h-21.4v-3h9.6c-0.6-1.5-1.5-3.1-2.1-4.4l3.5-0.9c1,1.7,2.1,3.8,2.7,5.4h7.7V691.7z
								 M552.7,699.5c-0.2-1.8-1-4.6-1.9-6.8l2.9-0.7c1,2.1,1.8,4.8,2,6.6L552.7,699.5z M565.1,713.3c1.6,2.4,3.3,5.6,4.1,7.7
								l-2.6,1.5c-0.8-2.1-2.5-5.5-4-7.8L565.1,713.3z M591.1,703.3h-5.4v24.6h-3.5v-24.6h-6.7v1.7c0,7-0.6,16.5-5.1,22.9
								c-0.6-0.7-2-1.8-2.8-2.2c4.1-5.9,4.5-14.2,4.5-20.7v-16.8c5.5-0.9,11.7-2.3,15.2-3.8l2.9,2.7c-4,1.5-9.6,2.7-14.7,3.5v9.3
								h15.6V703.3z"/>
							<path class="st0" d="M634.2,724c1.9,0,2.1-0.9,2.3-6.4c0.8,0.6,2.3,1.2,3.3,1.4c-0.4,6.7-1.5,8.4-5.3,8.4h-7.5
								c-4.4,0-5.6-1.1-5.6-5v-12.2h-8.6c-0.7,10.1-3.3,15.4-15.4,18c-0.3-0.9-1.2-2.3-1.9-3c11-2.1,13-6.3,13.6-14.9h-13v-3.5h42.8
								v3.5h-14v12.1c0,1.4,0.3,1.7,2.3,1.7H634.2z M601.1,699.9h-3.6v-10.7h18.8c-0.7-1.6-1.6-3.5-2.4-5l3.6-1
								c1.2,1.9,2.4,4.2,3.1,6h17.2v10.7h-3.7v-7.2h-33V699.9z M604.5,701.2v-3.4h26.3v3.4H604.5z"/>
							<path class="st0" d="M688.3,720.8v3.6h-43.5v-3.6h19.6v-28h-17.1v-3.7h38.6v3.7h-17.5v28H688.3z"/>
						</g>
					</g>
				</g>
			</g>
		</g>
		<g>
			<rect x="481.7" y="685.5" class="st4" width="1.2" height="44.7"/>
		</g>
		<g>
			<rect x="316.9" y="685.5" class="st4" width="1.2" height="44.7"/>
		</g>
	</g>
</g>
</svg>
