<svg id="圖層_3" data-name="圖層 3" xmlns="http://www.w3.org/2000/svg" viewBox="0 0 1125 1250"><defs><style>.cls-1{fill:#333;}.cls-2{fill:none;stroke:#006837;stroke-miterlimit:10;stroke-width:3px;}</style></defs><path class="cls-1" d="M115.1,177.81a3.55,3.55,0,0,1-2,1.05v34.55c0,3.9-1,6.1-8.15,6.7-.2-1.7-.55-3-1.55-3.75s-2.4-1.5-5.55-1.9v-.75s6.75.4,8.15.4c1,0,1.3-.4,1.3-1.15V177.91H78.65v39.9c0,.75-2.3,2.2-4.75,2.2h-1v-46.1l6.2,2.55h27.65l2.7-3.1Zm-16,30.7H86.85l-1.7,2.3L79.85,208a8.27,8.27,0,0,1,1.9-1.45v-12.7l6,.55c0,.55-.4.95-1.3,1.1v11.6h3.7V190.71H80l-.4-1.45H94.35a83.79,83.79,0,0,0,2.8-10.5l7.35,2.2c-.2.6-.8,1-1.9.95a69.19,69.19,0,0,1-7.15,7.35H99.3l2.7-3.35s3.1,2.35,5,4c-.15.55-.65.8-1.35.8H95.45v16.35H99.1V193.51l6.35.6c-.1.55-.45,1-1.5,1.15v15.05c0,.5-2.2,1.5-4,1.5H99.1Zm-16.35-29.3c12.8,2.9,8.15,12.25,3.35,8.6a21.11,21.11,0,0,0-3.85-8.3Z"/><path class="cls-1" d="M165.05,185.56c-.1.7-.5,1.2-1.85,1.4v31.35c0,.55-2.7,1.85-5.1,1.85H157v-4.8H129.1l-1.95,2.7-6.45-3.2a8.85,8.85,0,0,1,1.9-1.65v-28.4l8.05.8c-.15.75-.6,1.2-1.85,1.4v26.9h10.85v-39.8l8.1.8c-.1.7-.5,1.2-1.85,1.4v37.6H157v-29.1Z"/><path class="cls-1" d="M169.3,217.21a35.15,35.15,0,0,0,13.85-12l6.7,4.25c-.35.55-.95.75-2.1.55-4.75,4.7-12.3,7.1-18.25,7.75Zm41.1-18.45s3.75,2.8,5.95,4.75c-.1.55-.65.8-1.35.8H196.3v14.3c0,.45-2.7,1.5-5.15,1.5h-1.1v-15.8h-20l-.45-1.45h20.4v-4.5l8.1.75c-.1.65-.5,1.15-1.85,1.35v2.4h10.8Zm-40.65-3.95a8.23,8.23,0,0,0,1.45-.5,35.06,35.06,0,0,0,6-7.75c-1.25.6-2.65,1.3-4,1.95a2.49,2.49,0,0,1-.9.75L170,184.31a5.54,5.54,0,0,0,1.2-.5c2-1.95,4.4-7.6,5.1-10.55l6.35,2.8a1.56,1.56,0,0,1-1.7.7,44.74,44.74,0,0,1-7.3,7.5c1.45-.1,3.2-.2,5-.3a36.54,36.54,0,0,0,1.95-4.2l5,3v-5.55l4.8,2c.15-1.7.25-4.25.3-6l6.6.85q-.23,1.2-1.8,1.35c-.9,1.05-2.25,2.6-3.35,3.8h2.9l2.3-2.4,4.7,3.6a3.33,3.33,0,0,1-1.65.85v15.6c-.05.35-2.45,1.35-4.1,1.35h-.8v-2h-5.25v1.25c0,.45-2,1.5-3.95,1.5h-.7V183.76a2.16,2.16,0,0,1-1.15.05,63.63,63.63,0,0,1-10.65,10.85c2-.15,4.55-.4,7.25-.6a22.08,22.08,0,0,0-1.15-4.6l.6-.15c8.45,5.4,3.75,12.3.6,8.65a13.83,13.83,0,0,0,.05-2.5c-2.1.95-5.05,2.25-8.1,3.45a3.23,3.23,0,0,1-1.05,1Zm20.5-14.15v6.25h5.25v-6.25Zm5.25,14.15v-6.45h-5.25v6.45Zm3.05,13.35c18.9-2.6,19.35,11.3,12.35,9.15a38.26,38.26,0,0,0-12.5-8.6Zm18.2-24.95a1.68,1.68,0,0,1-1.85.65,64.09,64.09,0,0,1-10.3,10.7c2-.1,4.4-.3,7-.55a30.73,30.73,0,0,0-1-4.55l.6-.2c8.65,5.55,3.8,12.35.65,8.7a16.33,16.33,0,0,0-.05-2.7c-2.05,1-4.9,2.3-7.9,3.55a3,3,0,0,1-1.15,1.1l-2.25-5a5.37,5.37,0,0,0,1.4-.55,34.23,34.23,0,0,0,5.85-7.7c-1.25.6-2.65,1.3-4,1.9a2.23,2.23,0,0,1-1,.85l-2.2-5.1a5.44,5.44,0,0,0,1.2-.45c1.9-1.95,4.4-7.6,5.1-10.55l6.45,2.8a1.66,1.66,0,0,1-1.75.8,46.87,46.87,0,0,1-7.35,7.45c1.4-.1,3.15-.2,5-.3a45.7,45.7,0,0,0,1.9-4.2Z"/><path class="cls-1" d="M229.85,207.61c11.85,3.7,6.9,12.75,2.5,8.85a16.11,16.11,0,0,0-1.65-6.15c-.3.4-.75.65-1.8.55a29.05,29.05,0,0,1-9.1,9.25l-.55-.55a31.91,31.91,0,0,0,5.05-11.25,8.07,8.07,0,0,1-1.65.15h-.85V174.61l5.5,2.15h3.5l2.55-3,4.9,3.9a3.26,3.26,0,0,1-2,1v27.55c0,.3-1.8,1.45-4.35,1.45H231v-2.4h-4.25v1.8c0,.2-.35.5-.95.8l4.75,2.15a13.7,13.7,0,0,0-1.25-2.1Zm-3.1-29.4v7.4H231v-7.4ZM231,194.66v-7.6h-4.25v7.6Zm0,9.15v-7.75h-4.25v7.75Zm32.9.85a53.45,53.45,0,0,1,3.55,4c-.1.55-.55.75-1.25.75h-4v4.5c0,3.55-.65,5.6-6.45,6.15a6.67,6.67,0,0,0-.95-3.65c-.65-.8-1.6-1.35-3.65-1.7V214s4.1.3,5,.3,1-.3,1-.95v-3.9H244.2v9.1c0,.5-2,1.65-4.2,1.65h-.75V209.41h-2.9L236,208h3.3V192.76l5.25,2.2h3.65v-3.55H237.1l-.35-1.4h6.1v-4.15H238.4l-.4-1.45h4.85v-3.85h-5.1l-.4-1.45h5.5v-5.5l6.6.6c0,.6-.4,1-1.5,1.25v3.65h5.15v-5.5l6.65.6c-.1.65-.45,1-1.55,1.25v3.65h1l2.45-3.25s2.7,2.25,4.35,3.9c-.1.55-.6.8-1.3.8h-6.5v3.85h.85l2.1-2.75s2.35,2,3.8,3.4c-.15.55-.6.8-1.3.8H258.2V190h1.45l2.35-3.25s2.75,2.3,4.4,3.85c-.1.55-.6.8-1.3.8H253.05V195h3.6l2.3-2.7,5.2,4a3.21,3.21,0,0,1-1.95.9v10.25Zm-19.7-8.25v5h4v-5Zm0,11.6h4v-5.2h-4Zm3.75-23.6h5.15v-3.85H248Zm0,5.6h5.15v-4.15H248Zm5.1,6.4v5h4.1v-5Zm4.1,11.6v-5.2h-4.1V208Z"/><path class="cls-1" d="M290.45,190.06c-.2.6-.75,1.1-1.95,1.1a177.65,177.65,0,0,1-6.5,17.6c2.5-.55,5.1-1.15,7.75-1.75l.1.55c-3.5,2.1-8.75,5.15-16.4,8.85a2,2,0,0,1-1.3,1.35l-2.9-6.45c2.15-.35,6.25-1.15,11.05-2.2,1.05-6.7,2.1-15.05,2.65-21.05Zm-20.65-3.55-.4-1.45h14.85l2.85-4.45s3.3,3.1,5.1,5.1c-.15.55-.65.8-1.35.8Zm2.4,2.25c12.6,12.1,4.6,22.35,1.45,16.85.2-4.1.05-11.3-2.1-16.55Zm2.95-15.5c13.35,4.3,7.5,14.2,2.5,9.65a27.13,27.13,0,0,0-2.95-9.45Zm36,8.35s3.4,2.75,5.4,4.65c-.1.55-.65.8-1.35.8H304.4v10.05h2.4l2.8-3.2,5.3,4.1a2.93,2.93,0,0,1-1.95,1v19.25c0,.3-1.95,1.35-4.9,1.35h-1v-3.75h-11v2.8c0,.45-1.75,1.45-4.65,1.45h-1V194.76l6.2,2.35h2.1v-23.9l7.5.65c-.05.7-.45,1.2-1.8,1.4v10.4h3.75Zm-15.05,16.95v15.85h11V198.56Z"/><path class="cls-1" d="M360.45,178.66s3.9,3,6.15,5a1.26,1.26,0,0,1-1.35.8H320l-.4-1.4H346.3a75.92,75.92,0,0,0,3.65-9.8l8.25,2.05c-.2.65-.8,1.05-1.95,1.05a76,76,0,0,1-8.35,6.7h9.15Zm-22.35,8.1,5.55,4.3a3.14,3.14,0,0,1-2,1v21.65c0,3.7-.75,5.8-6.5,6.25a8.11,8.11,0,0,0-.75-3.75,4,4,0,0,0-3-1.7v-.65s2.9.2,3.8.2c.7,0,.85-.35.85-.9v-6.5H329.2c-.5,5-2.3,10-8.3,13.65l-.45-.45c3.3-5,3.4-11.5,3.4-18v-14.5l6.45,2.3h5.25Zm-2.05,18.45v-6.6H329.4v3.3c0,1.1,0,2.2-.1,3.3Zm-6.65-14.05v6h6.65v-6Zm.85-17.7c14.2,1.25,9.45,12.1,3.85,8.3a16.84,16.84,0,0,0-4.25-7.95Zm21,35.95c0,.45-2.3,1.3-4.35,1.3h-1v-22.1l7.2.65c-.1.7-.45,1.2-1.85,1.4Zm4.6-22.35,7.35.7c-.1.7-.6,1.15-1.75,1.3v24.45c0,3.9-.9,6.05-7.45,6.6a6.09,6.09,0,0,0-1.2-3.85c-.8-.8-1.95-1.4-4.55-1.85v-.65s5.5.3,6.55.3c.8,0,1.05-.2,1.05-.85Z"/><path class="cls-1" d="M379.05,192.51c0,8.65-.4,19.9-9.25,27.45l-.55-.4c3.95-7.95,4.1-18.05,4.1-27.05v-16l6.6,2.35H393.4l-.1-.05a11.71,11.71,0,0,0-3.4-5.5l.35-.3c9.1-.6,9.5,4.15,7.05,5.85h11.15l3.05-4.1s3.4,2.8,5.4,4.75c-.1.55-.65.8-1.35.8h-36.5Zm-2.95,26.9c5.45-1.9,11.65-5.45,14.65-8.2l5.75,4.3c-.5.5-1.35.6-2.8.25a67,67,0,0,1-17.4,4.3Zm35.4-28.8s3.25,2.5,5.2,4.3c-.15.55-.65.8-1.35.8h-7.5l5.2,3.8a2.54,2.54,0,0,1-1.6.85v10.95c-.05.4-2.9,1.45-4.75,1.45h-.95v-1.65H387.9v.8c0,.5-2.45,1.7-4.65,1.7h-.8V196l5.8,2.3H405.3l2.45-2.6h-28.1l-.4-1.4H408.7Zm-11.4,2.8v-1.9h-8.55v1.25c0,.3-2.2.9-4,.9H386.5v-6.9h-5.45l-.4-1.4h5.85V181l6.6.6c-.1.55-.45,1-1.55,1.15v2.6h8.55V181l6.55.6c-.1.55-.4,1-1.5,1.15v2.6h1.55l2.75-3.45s3.1,2.35,4.95,4.05c-.1.55-.65.8-1.35.8h-7.9v5.75c0,.3-2.15.9-4,.9Zm-12.2,6.3v4.1H394v-4.1Zm0,9.95H394v-4.45h-6.1Zm12.2-19.55v-3.35h-8.55v3.35Zm-2.5,22.8c27.4.8,16.5,10.05,11.45,6.5a41.34,41.34,0,0,0-11.65-5.85Zm2.1-13.2v4.1h6.05v-4.1Zm6.05,9.95v-4.45H399.7v4.45Z"/><path class="cls-1" d="M437,199a166.83,166.83,0,0,1-13.6,10.9,2,2,0,0,1-1.15,1.55l-3.15-6.5c1.25-.4,3.3-1.1,5.85-2v-14.5H420.2l-.4-1.45H425v-13.1l7.5.7c-.1.7-.45,1.2-1.85,1.35v10.65l2.25-3.8a58.69,58.69,0,0,1,4.35,4.85c-.15.55-.6.8-1.3.8h-5.3v12.45c2-.75,4.1-1.6,6.2-2.4Zm24.6-1.55,5.1,4.25a3.14,3.14,0,0,1-2.05.85c-.75,9.45-2.15,14.1-4.75,16a9.72,9.72,0,0,1-5.95,1.6,5.81,5.81,0,0,0-.85-3.65,6.73,6.73,0,0,0-3.7-1.8V214a37,37,0,0,1-9.9,6.15l-.4-.65a31.31,31.31,0,0,0,12.75-17.85H450.3c-3.45,6.5-9.65,11.55-17.45,15l-.55-.7A36.13,36.13,0,0,0,445,201.61H443.3a35.93,35.93,0,0,1-13.4,9.1l-.45-.65a32.14,32.14,0,0,0,10.85-13.75H434l-.4-1.45h24.6l3.1-4s3.5,2.7,5.65,4.6c-.15.55-.65.8-1.4.8H447a27.1,27.1,0,0,1-2.5,3.9H458.7Zm-17.2-5.85c0,.5-2.45,1.75-4.8,1.75h-.8v-19.5l5.85,2.3h10.4l2.7-2.9,5.45,4.2a3.21,3.21,0,0,1-1.9,1v12.2c-.05.45-2.75,1.8-4.75,1.8h-1v-2H444.4Zm0-14.05v5h11.15v-5ZM455.55,189v-5.05H444.4V189Zm2.15,12.65a29,29,0,0,1-8.25,12.3c1.6.15,4.1.3,5.1.3a2.86,2.86,0,0,0,1.7-.4c1.2-1,2.2-5.05,2.85-12.2Z"/><path class="cls-1" d="M88,261.56c-1.7,1.2-3.85,2.75-6.55,4.55V282c0,4.05-.75,6.35-6.85,6.9a8.62,8.62,0,0,0-.95-4.25c-.65-.95-1.65-1.55-3.7-1.95V282s4.15.25,5.1.25c.75,0,1-.25,1-.85V269.61c-1.1.7-2.2,1.4-3.4,2.1a2.57,2.57,0,0,1-1.25,1.45l-2.15-6.6c1.35-.3,3.8-1,6.8-1.85v-9.55H70l-.35-1.45H76V242l7.3.7c-.1.75-.6,1.25-1.85,1.4v9.6h.75l2.35-3.8s2.7,2.7,4.2,4.45c-.15.55-.6.8-1.3.8h-6v7.9c2.1-.65,4.2-1.3,6.35-2Zm29,5.1a3.28,3.28,0,0,1-2,.85c-.3,13.35-.9,18.15-3.15,20.15-1.55,1.35-3.55,1.5-6.3,1.55a3.68,3.68,0,0,0-.8-2.85,8.38,8.38,0,0,0-4-1.6v-.7c1.6.15,4.25.3,5.15.3a2,2,0,0,0,1.6-.5c1.15-1,1.65-6.45,2-17.2H99l5.1,2c-.25.55-.6.85-1.8.8-.35.65-.75,1.35-1.2,2.05,9.2,1.25,6.1,7.95,2.3,5.65a14.93,14.93,0,0,0-3.1-4.6,18.43,18.43,0,0,1-7,5.8l-.4-.65c2.75-2.8,4.35-7.4,5-11H93.5a45.36,45.36,0,0,1-4.5,3.55l5.2.5c-.1.6-.55,1.05-1.5,1.2v6.6c0,.6.15.75,1.55.75H102c.45-.05,1-.1,1.3-.15a4.56,4.56,0,0,0,1.35-.25h.45l.2.1c1.4.55,1.85.9,1.85,1.8,0,2-1.9,2.6-9.35,2.6H93.1c-4.5,0-5.3-.9-5.3-4V271a31.82,31.82,0,0,1-4.35,2.45L83,273a41.43,41.43,0,0,0,8-10.9,7.74,7.74,0,0,1-1.1.05H89v-19.3l6,2.3h11.9l2.65-3,5.1,3.9a2.63,2.63,0,0,1-1.85,1v13.4c0,.25-1.85,1.2-4.7,1.2h-1v-1.8H94.45v.45l5,1.9c-.25.45-.65.65-2,.4a24.61,24.61,0,0,1-2.5,2.7h14l3-2.85Zm-22.5-20.1V252h12.6v-5.4Zm12.6,11.75v-4.95H94.45v4.95Z"/><path class="cls-1" d="M151.35,269.41c3.85,2.3,10.15,3.65,15.25,4.2l0,.55c-2,.65-3.15,2.4-3.65,4.95a26,26,0,0,1-4.35-1.9l-.65.15v3.85c0,3.45-.75,5.5-6.65,6a6.81,6.81,0,0,0-.85-3.6,4.91,4.91,0,0,0-3.3-1.65v-.65s3.4.25,4.45.25c.65,0,.85-.3.85-.9v-4.25h-6.7v11.15c0,.45-2.45,1.35-4.65,1.35h-1v-12.5h-6v8.65c0,.4-1.7,1.65-4.5,1.65h-.95v-10.2a45.89,45.89,0,0,1-9,3.05l-.35-.55a43.18,43.18,0,0,0,13.3-9.6h-11l-.4-1.45h12.6a28.31,28.31,0,0,0,3-4.45h-3V264c0,.5-2.55,1.75-4.95,1.75h-.8V249.56l1.65.6-.4-2.75H120.7l-.4-1.4h9l-.55-4.15,7.35.5c0,.6-.45,1.15-1.4,1.45l.3,2.2h1.25l2.6-3.6s3,2.5,4.65,4.2c-.1.55-.6.8-1.3.8h-6.95l.25,1.85c-.7.85-2.3,1.35-4.25,1.45l3.05,1.2h17.25l1.35-1.35a10.51,10.51,0,0,1-3.5-.15l.6-3h-5l-.4-1.4h5.65l.8-4.2,7.3,1.25c-.15.6-.6,1.15-1.95,1.25L156,246h2.55l2.6-3.6s2.95,2.5,4.65,4.2c-.15.55-.65.8-1.35.8H155.7l-.55,2.3-.05,0,4.6,3.4a3.21,3.21,0,0,1-1.85,1v9.15c0,.4-2.85,1.6-4.8,1.6h-1v-1.4H138.6l6.25,1.65c-.25.65-.85.95-2.5.95-.5.6-1,1.25-1.65,1.85h16.5l2.85-3.5s3.3,2.4,5.3,4.15a1.2,1.2,0,0,1-1.3.8Zm.55,5.55,1.25-1.4a19.09,19.09,0,0,1-3.65-4.15H139.25a40.52,40.52,0,0,1-6.4,4.85l1.9.7h5.35V270l7.25.65c-.1.6-.45,1-1.65,1.25v3Zm-18-21.65v3.9h18.1v-3.9Zm0,8.8h18.1v-3.5H134Z"/><path class="cls-1" d="M193.6,277.61l.1.5a197,197,0,0,1-18.8,9.2,2.31,2.31,0,0,1-1.45,1.3l-2.9-7.5c2.5-.25,7.35-.95,13.1-1.85v-19.6h-11.4l-.45-1.4h11.85v-15.2l7.6.75c-.1.7-.45,1.2-1.8,1.4v33.1Zm21.05,3.4c1.6.7,2,1.4,2,2.45,0,2.55-2.3,3.65-10.15,3.65H202.1c-5,0-6.5-1.2-6.5-5.55V243.11l7.6.85c0,.65-.5,1.2-1.75,1.4v12.95h6.75l2.6-4.6s2.95,3.2,4.45,5.2c-.15.55-.6.8-1.3.8h-12.5v20.15c0,1.2.45,1.55,2,1.55h3.6c1.4,0,2.55,0,3.2-.05a1.59,1.59,0,0,0,1.3-.65c.6-.95,1.45-4,2.35-7.15h.5Z"/><path class="cls-1" d="M259.9,244s4,2.9,6.4,5c-.15.55-.7.8-1.4.8H220.45l-.45-1.4h21.25a12.62,12.62,0,0,0-4.2-6.15l.35-.3c9.55-.5,10.35,4.55,8.1,6.45h10.95Zm.1,19.6,5.8,4.3a3.39,3.39,0,0,1-2.05,1v13.6c0,3.75-.85,5.9-7.35,6.4-.15-1.7-.35-3-1-3.8s-1.65-1.45-4-1.85v-.65s4.4.3,5.55.3c.75,0,1-.35,1-.95V268h-29.2V287c0,.6-2.55,1.9-5,1.9h-.85v-24.8l6.25,2.45h28.25Zm-9.9,1.05v-2.25H236.3v1.1c0,.45-2.6,1.7-5,1.7h-.8v-13.9l6.1,2.4h13l2.65-3,5.7,4.3a3.22,3.22,0,0,1-1.95,1.05v7.35c-.05.3-3.05,1.2-4.9,1.2Zm2.25,17c0,.35-2.65,1.45-4.5,1.45H247v-2.45H239.1v1.6c0,.45-2.45,1.6-4.6,1.6h-.75V269.71l5.55,2.2h7.15l2.5-2.6,5.25,3.85a3,3,0,0,1-1.85,1ZM250.1,261v-5.85H236.3V261ZM247,279.26v-5.9H239.1v5.9Z"/><path class="cls-1" d="M281.6,253.56c-1.45,10.8-4.4,23.25-11.65,32.2l-.65-.35c4.2-9.05,6.1-21.1,6.8-31.85h-6.05l-.4-1.4h6.55c.2-3.6.25-7,.25-10.1l8.05.55c-.1.65-.45,1.2-1.95,1.4-.2,2.5-.45,5.25-.8,8.15h3.55l2.7-3.8s3.2,2.6,5.1,4.4c-.15.55-.65.8-1.35.8Zm3.3,16.6c11.9,8.5,7.05,18.75,2.45,14.1a23.36,23.36,0,0,0-.45-4.85,82.84,82.84,0,0,1-7.2,4.7,3.53,3.53,0,0,1-1.7,1.95l-2.7-6.5a5.6,5.6,0,0,0,1.65-.7c2.15-4.25,4.9-15.1,5.55-21.1l7.05,1.45a1.73,1.73,0,0,1-1.8,1.2,93.92,93.92,0,0,1-8.95,18.8c2.2-.2,5-.7,7.8-1.25a64.37,64.37,0,0,0-2.3-7.55ZM312,279.51s3.2,2.7,5.1,4.5c-.1.55-.65.8-1.35.8H298.9v2.45c0,.4-1.7,1.6-4.5,1.6h-.95V261.11a34.48,34.48,0,0,1-4.4,5.25l-.6-.45c3.75-7,6.1-17.25,6.9-23.85L302.7,244c-.35-.75-.7-1.4-1.05-2l.5-.3c12.15,3.75,6.3,12.9,1.8,8.55a13.49,13.49,0,0,0-1.05-5.75c-.25.4-.7.6-1.6.65a68.86,68.86,0,0,1-2.7,6.85l.95.35h9.1l2.8-3.7s3.05,2.55,4.95,4.35c-.15.55-.65.8-1.35.8h-7.2v8.6h1l2.45-3.45s2.75,2.4,4.4,4.1c-.1.55-.6.8-1.3.8h-6.6v8.8H309l2.5-3.4s2.75,2.35,4.35,4.05c-.1.55-.6.8-1.3.8h-6.7v9.3h1.2Zm-13.05-25.7v8.6h3.8v-8.6Zm3.8,10.05h-3.8v8.8h3.8Zm-3.8,19.55h3.8v-9.3h-3.8Z"/><path class="cls-1" d="M353,271.31c12.5,1.95,9.25,10.75,4.7,8a13.34,13.34,0,0,0-1.55-3.2c-2.6.5-5.7,1.05-9.25,1.65v5.55c0,3.5-.9,5.35-7,5.8a5.36,5.36,0,0,0-.85-3.25,5.87,5.87,0,0,0-3.55-1.5v-.65s3.8.25,4.75.25c.75,0,.9-.3.9-.75v-4.55c-2.25.35-4.6.7-7.1,1.1l4.85,2.05c-.25.5-.65.75-1.75.65-3.15,2.45-9.55,5-14.8,6.1l-.5-.6a44.57,44.57,0,0,0,10.1-7.9l-3.35.4a2,2,0,0,1-1,1l-2.5-5.2a13.49,13.49,0,0,0,2-.3,63.65,63.65,0,0,0,10.45-3.45c-2.05.35-4.25.65-6.5,1a2,2,0,0,1-.85.85l-2-3.95a9.83,9.83,0,0,0,1.2-.3,26.61,26.61,0,0,0,6.65-2.95,17.46,17.46,0,0,1-2.95.2,2.19,2.19,0,0,0-.6-1.8,5.06,5.06,0,0,0-2.7-1v-.75c1.2.1,3.05.2,3.9.2a1.68,1.68,0,0,0,1.35-.4,2.77,2.77,0,0,0,.3-.4h-7.65l-1.85,2.1-4.55-3a10.56,10.56,0,0,1,2-1.1c.25-1.1.55-2.3.85-3.7h-3.35l-.4-1.45h4c.4-2,.8-4.15,1.05-5.9a28.51,28.51,0,0,1-4.75,3l-.45-.45A34.58,34.58,0,0,0,326.2,242l7.15,1.55c-.15.55-.55.75-1.85.7a19.44,19.44,0,0,1-2.2,2.45h9.75l2.55-3.15s2.9,2.2,4.7,3.8c-.1.55-.6.8-1.3.8H327.75l-.7.65,3.95,1.7h5.7l2.2-2.2,4.2,3.45a3,3,0,0,1-2,.75c0,1.25-.15,2.4-.2,3.45h.5l1.85-3s2.2,2.15,3.4,3.65c-.1.55-.55.8-1.2.8h-4.7a34.64,34.64,0,0,1-.6,4.25h.3l1.8-2.35s2.05,1.7,3.35,3c-.1.55-.6.8-1.25.8h-4.55a7.17,7.17,0,0,1-.9,2.05c.75-.5,1.4-1.05,1.9-1.45l3.7,4.15a1.81,1.81,0,0,1-2.1-.15,64.55,64.55,0,0,1-8.7,2.95l8.3-.15A65.36,65.36,0,0,0,351.8,265l5.05,3.95c-.3.45-1.15.7-2.3.25a132.59,132.59,0,0,1-21.85,7.05c5.9-.25,14.1-.65,22.7-1.2a25.11,25.11,0,0,0-2.95-3.35Zm-17.05-9.7a24.75,24.75,0,0,0,.75-4.25h-8c-.35,1.5-.65,2.95-1,4.25Zm-6.2-9.75c-.2,1.2-.5,2.6-.8,4h7.9c.15-1.2.25-2.55.35-4Zm-.3,5.95c2.15-.35,4.05-.15,5.05.95a1.68,1.68,0,1,1-2.65,2.05,6.06,6.06,0,0,0-2.65-2.45Zm.9-5.35c2.05-.4,3.9-.3,4.9.7a1.61,1.61,0,1,1-2.4,2.15,6.79,6.79,0,0,0-2.7-2.25Zm32-2.1a19.94,19.94,0,0,1-5.3,8.85,31.62,31.62,0,0,0,9.25,2.7l-.1.55c-1.9.75-2.95,2.3-3.25,4.85a19.91,19.91,0,0,1-9.15-5.45,32.75,32.75,0,0,1-9.7,4.35l-.3-.6a25.69,25.69,0,0,0,8.15-6.15,29.21,29.21,0,0,1-3.45-7.45,24.61,24.61,0,0,1-2.8,2.4L345,254a41.41,41.41,0,0,0,3.25-12l6.85,1.8a1.75,1.75,0,0,1-1.85,1.05,27.1,27.1,0,0,1-2.3,4.1h7.2l2.85-3.85s3.2,2.6,5.1,4.45a1.2,1.2,0,0,1-1.3.8Zm-12.45,0a5.76,5.76,0,0,1-.7.85,16.32,16.32,0,0,0,4.45,5.9,20.92,20.92,0,0,0,2.65-6.75Zm.4,29.9c17.05-.65,14.65,9.75,9.55,7.85a29.12,29.12,0,0,0-9.75-7.2Z"/><path class="cls-1" d="M378.55,249.21h-8.7l-.4-1.45h8.95l-.65-5.5,7.35.5c0,.55-.4,1.1-1.4,1.4l.45,3.6h1.55l2.7-3.75s3.05,2.6,4.85,4.4c-.1.55-.65.8-1.35.8h-7.55l.45,3.35c-.8,1.1-2.95,1.6-5.65,1.5Zm32,19.9s3.05,2.35,4.95,4.05c-.15.55-.65.8-1.4.8H395.65v5.5h9.15l3.1-3.85s3.55,2.6,5.65,4.45c-.15.55-.7.8-1.4.8h-16.5v6.5c0,.35-1.75,1.5-4.75,1.5h-1v-8H373.6l-.4-1.4h16.65V274h-18.4l-.45-1.4h18.85v-7.3a2.53,2.53,0,0,1-.65.1h-6.5v4.75c0,.4-1.95,1.15-3.55,1.15h-.85v-5.9h-7.45l-.4-1.45h7.85v-5.7l5.9.55c-.1.55-.4,1-1.5,1.15v4h1.15l2.4-3.2s2,1.65,3.6,3.15v-7.2H372.7l-.35-1.4h33.8l2.85-3.4s3.2,2.3,5.15,4c-.15.55-.7.8-1.4.8h-17.1v15.9H407.8ZM411.8,244s3,2.6,4.85,4.4c-.15.55-.65.8-1.35.8H405l-.6,3.8c-1,.8-3.35,1.2-5.75.7l.7-4.5H394.6l-.4-1.45h5.35l.85-5.5,7.25,1.2c-.1.65-.55,1.2-1.95,1.3l-.45,3h3.8Zm-.15,16.5s2.8,2.4,4.4,4.05c-.1.55-.6.8-1.25.8H406v4.3c0,.35-1.95,1.1-3.55,1.1h-.85v-5.4h-4.5l-.4-1.45h4.9v-5.7l5.9.55c-.1.55-.4,1-1.5,1.15v4h3.25Z"/><path class="cls-1" d="M82.16,402.92l.39,1.92c-4.29,1.86-8.94,3.81-12.39,5.16l-1-2.19c2.16-.75,5.25-1.89,8.49-3.15v-12H70V390.5h7.59v-7h2.28v20.31Zm10,4c1.35,0,1.53-1.44,1.71-7.17A6.22,6.22,0,0,0,96,400.85c-.24,6.15-.78,8.28-3.66,8.28h-4c-2.58,0-3.33-.87-3.33-4V383.51h2.25v7H95.6v2.19H87.23v12.51c0,1.5.21,1.77,1.35,1.77Z"/><path class="cls-1" d="M128.42,386.06V388H102.29v-1.92h12.27c-.27-.87-.63-1.89-.93-2.73l2.16-.51c.42,1,.87,2.28,1.2,3.24Zm-1,21.9c0,1.08-.27,1.53-1.08,1.83a13.5,13.5,0,0,1-4,.27,6.72,6.72,0,0,0-.72-1.65c1.29.06,2.67,0,3,0s.51-.12.51-.48v-8.79H105.53V410.3h-2.16v-13h24.09Zm-3.24-18.3v6h-17.4v-6Zm-2.7,17.43H111v1.47h-2.07v-7.62h12.63Zm.42-15.78H109V394h12.93Zm-11,11.31v2.79h8.55v-2.79Z"/><path class="cls-1" d="M140.36,390.2c-1,5.73-2.49,10.65-4.89,14.31a12.79,12.79,0,0,0-1.86-1.32c2.31-3.18,3.72-7.77,4.59-13h-3.51v-2.13h3.84c.24-1.68.45-3.39.6-5.16l2.19.18c-.18,1.71-.39,3.36-.63,5h6.09v2.13Zm4.53,9.21a70.79,70.79,0,0,1,2.43,9.15l-1.83.63c-.09-.66-.24-1.44-.39-2.22-6.27,1.2-7.23,1.41-7.77,1.74a10.44,10.44,0,0,0-.69-2c.54-.15,1-1.08,1.59-2.4a55.62,55.62,0,0,0,3.45-10.8l2.13.57A68,68,0,0,1,139.49,406l5.16-.87c-.45-1.77-1-3.63-1.47-5.22Zm16.32,9.36H150.44v1.5h-2V392.39a28.33,28.33,0,0,1-2.13,3.12,9.75,9.75,0,0,0-1.35-1.68,31,31,0,0,0,5.34-10.77l1.92.48a42.36,42.36,0,0,1-1.89,5h10.5v2h-4.08v4.08h4v1.95h-4v4.08h4v1.92h-4v4.14h4.47Zm-10.77-18.21v4.08h4.26v-4.08Zm4.26,6h-4.26v4.08h4.26Zm-4.26,10.14h4.26v-4.14h-4.26Zm4.89-18.27a24,24,0,0,0-2-4.47l1.89-.66a23.38,23.38,0,0,1,2.16,4.35Z"/><path class="cls-1" d="M181.22,389.48v4h9.72V404c0,1.29-.3,2-1.26,2.34a18.76,18.76,0,0,1-5.25.39,8.51,8.51,0,0,0-.78-2.22c2,.06,3.84.06,4.35.06s.69-.18.69-.6v-8.28h-7.47v14.55H179V395.72h-7v11.13h-2.22V393.53H179v-4H166.82v-2.19H179.6a37.11,37.11,0,0,0-2-3.93l2.13-.66a25.66,25.66,0,0,1,2.34,4.44l-.39.15h11.91v2.19Z"/><path class="cls-1" d="M211.67,396.26v14.07h-2.1v-3c-3.69.48-7.35.9-10.17,1.26l-.21-2c.84-.09,1.83-.18,2.85-.27V396.26h-2.58V394.4h26.22v1.86Zm-6.54-3.33H203v-9h19.32v9h-2.19v-7.38h-15Zm4.44,3.33h-5.52v2h5.52Zm0,3.72h-5.52v2.07h5.52Zm-5.52,6.18c1.74-.21,3.63-.42,5.52-.66v-1.8h-5.52Zm14.52-17.4H206.45v-1.47h12.12Zm-12.09,3.18v-1.47h12.09v1.47Zm18.39,6.69a16.84,16.84,0,0,1-4.32,7,16.23,16.23,0,0,0,5.82,2.7,8.78,8.78,0,0,0-1.32,1.77,17.27,17.27,0,0,1-6-3.15,20.94,20.94,0,0,1-6.09,3.24,6.93,6.93,0,0,0-1.2-1.74,18.69,18.69,0,0,0,5.79-2.88,17.58,17.58,0,0,1-3.51-5.46l.51-.15h-1.71v-1.8H223.1l.39-.06ZM216,399.92a14.19,14.19,0,0,0,3,4.35,13.71,13.71,0,0,0,3.15-4.35Z"/><path class="cls-1" d="M246.86,393.77c2.1,6.6,6,12,11.79,14.4a11.47,11.47,0,0,0-1.68,2.1c-5.76-2.73-9.57-8-11.94-14.85-1.44,5.76-4.68,11.52-12,14.85a6.44,6.44,0,0,0-1.68-1.83c7.44-3.24,10.44-9,11.67-14.67H232v-2.28h11.43a63.9,63.9,0,0,0,.45-8.52h2.4a69.66,69.66,0,0,1-.48,8.52h12.39v2.28Z"/><path class="cls-1" d="M278.45,386.72c-.36,1.53-.75,3.09-1.14,4.44h10.11v19.2h-2.31v-1.95H270v1.95H267.8v-19.2H275c.3-1.32.63-3,.87-4.44H264.41v-2.19h26v2.19Zm6.66,6.54H270v5.43h15.09Zm0,13.08v-5.61H270v5.61Z"/><path class="cls-1" d="M301.67,388.22a34.11,34.11,0,0,1-3.81,2.25,16.5,16.5,0,0,0-1.65-1.56,25.44,25.44,0,0,0,8.79-6.15l2,.78a24,24,0,0,1-3.21,3.06v6.09h-2.16Zm5.7,18.54a41.54,41.54,0,0,1-9.18,3.63,14.8,14.8,0,0,0-1.68-1.68,37.61,37.61,0,0,0,8.82-2.85Zm-7.08-13.26H319.7v12H300.29Zm2.16,3.54h15v-2h-15Zm0,3.48h15v-2h-15Zm0,3.54h15V402h-15Zm10.44-11.82c-2.7,0-3.39-.9-3.39-3.24v-6h2.22v2.43h9.66v1.86h-9.66v1.8c0,1,.21,1.32,1.29,1.32h6.63a22.24,22.24,0,0,0,3-.18c.06.63.15,1.35.24,1.86a16.42,16.42,0,0,1-3.06.18Zm1.23,13.5a72.7,72.7,0,0,1,8.82,3.27L321,410.3a59.82,59.82,0,0,0-8.34-3.33Z"/><path class="cls-1" d="M355.31,386.15v1.92H329.15v-1.92h12.39c-.3-.9-.69-2-1.05-2.82l2.07-.54c.42,1,1,2.37,1.29,3.36Zm-1.65,21.69c0,1.17-.3,1.68-1.17,2a20.92,20.92,0,0,1-4.95.3,6,6,0,0,0-.69-1.71c1.86.06,3.6,0,4.08,0s.66-.15.66-.63V394.25h-6.06v1.95c0,.66.09.9.57.9h2.7a9.94,9.94,0,0,0,1.65-.12c0,.51.09,1.11.15,1.59a5.75,5.75,0,0,1-1.74.15h-3.15c-1.83,0-2.19-.78-2.19-2.55v-1.92h-3.39c-.45,3.12-1.86,4.77-6,5.7a4.57,4.57,0,0,0-1.08-1.56c3.51-.63,4.68-1.83,5.1-4.14H333v16h-2.13V392.39h13.86a27.08,27.08,0,0,0,2.19-4.08l2.25.51c-.72,1.2-1.53,2.52-2.31,3.57h6.81ZM337.4,388.16a33.4,33.4,0,0,1,1.89,3.33l-1.92.78c-.42-.87-1.23-2.37-1.86-3.48Zm1.2,18.33v1.38h-2v-8.19h11v6.81Zm0-5.13v3.48h7.14v-3.48Z"/><path class="cls-1" d="M369.86,403c-2.85,1.2-5.85,2.34-8.19,3.27l-.72-2.19c1-.33,2.19-.75,3.51-1.23V392.27h-3.15V390.2h3.15v-6.93h2.07v6.93h2.85v2.07h-2.85v9.84l2.91-1.08Zm17.7-9.78a34.05,34.05,0,0,1-4.2,10.11c.72,2.88,1.59,4.56,2.61,4.56.57,0,.87-1.47,1-4.92a4.67,4.67,0,0,0,1.65,1.14c-.33,4.5-1,5.88-2.91,5.88-1.68,0-2.94-1.68-3.87-4.5a22,22,0,0,1-5,4.71,8.38,8.38,0,0,0-1.56-1.53,20.06,20.06,0,0,0,5.91-5.67,81.91,81.91,0,0,1-1.44-13.44h-7v4h5.73s0,.63,0,.9c-.09,6.84-.21,9.24-.78,10a1.89,1.89,0,0,1-1.53.84,19.87,19.87,0,0,1-2.7,0,5.05,5.05,0,0,0-.51-1.89c1,.09,1.95.09,2.34.09s.6,0,.72-.3c.33-.45.45-2.37.54-7.74h-3.78v1.32c0,4.2-.51,9.9-3.72,13.62a7.46,7.46,0,0,0-1.65-1.41c3-3.45,3.3-8.37,3.3-12.24V387.5h9q-.09-2.25-.09-4.59h2.13c0,1.56,0,3.12,0,4.59h4a21.9,21.9,0,0,0-3.45-3.42l1.5-1a17.63,17.63,0,0,1,3.57,3.36l-1.5,1h2.19v2.07H381.8a96.19,96.19,0,0,0,1,10.8,30.55,30.55,0,0,0,2.73-7.47Z"/><path class="cls-1" d="M420.68,395.12v2.43H393.44v-2.43Z"/><path class="cls-1" d="M451.82,407.45c0,1.29-.36,1.86-1.23,2.22a16.92,16.92,0,0,1-4.89.36,7.86,7.86,0,0,0-.72-1.92c1.77.09,3.45.06,3.93,0s.72-.18.72-.69V386.6H429.32v23.73h-2.16V384.5h24.66Zm-17.46-10.62v7h3.93v-9.21h-7.53v-1.92h10.41a40.55,40.55,0,0,0,2.64-5.55l2.22.57c-.84,1.65-1.86,3.48-2.76,5h5.13v1.92h-8.07v9.21h4v-7h2v8.91H432.44v-8.91Zm.42-9.6a39.7,39.7,0,0,1,2.25,4.56l-1.92.75a33.49,33.49,0,0,0-2.16-4.71Z"/><path class="cls-1" d="M483.5,389.09v21.12h-2.28V408H460.13V389.12h2.28v16.62h8.22V383.27h2.28v22.47h8.31V389.09Z"/><path class="cls-1" d="M501.5,403.31c-2.19,2.61-6.21,4.89-9.75,6a8.93,8.93,0,0,0-1.47-1.86c3.45-.84,7.38-2.79,9.36-4.92Zm16-3.63v1.89H505.31v8.7h-2.22v-8.7H490.88v-1.89h12.21v-1.83h2.22v1.83Zm-19.38-1.77c-.06-.42-.09-.93-.21-1.47-4.89.72-5.67.9-6.09,1.14a13.72,13.72,0,0,0-.6-1.77c.54-.09,1.08-.72,1.83-1.65a36.58,36.58,0,0,0,2.25-3.12c-2.52.36-3.09.45-3.45.66a15.45,15.45,0,0,0-.6-1.77c.39-.09.78-.51,1.17-1.2a25.8,25.8,0,0,0,2.61-5.61l1.77.66a35.29,35.29,0,0,1-3.06,5.91l2.58-.27c.54-.93,1.08-1.92,1.56-2.88l1.62.9a51.11,51.11,0,0,1-5.55,8l3.66-.45c-.15-.72-.33-1.47-.51-2.1l1.53-.36a35.69,35.69,0,0,1,1.11,4.95Zm10-.81H500.3V385.76h2.46a20,20,0,0,0,.6-3l2.07.39c-.27.84-.6,1.8-.9,2.58h3.6Zm-2-9.6h-3.9v3.09h3.9Zm0,4.74h-3.9v3.12h3.9Zm2.43,10.08a63.16,63.16,0,0,1,8.91,5.52l-1.38,1.68a54.94,54.94,0,0,0-8.88-5.73Zm7.35-4.14c-.06-.39-.18-.81-.3-1.29-4.89.63-5.67.78-6.12,1a10.58,10.58,0,0,0-.63-1.77c.54-.12,1.14-.75,1.86-1.65.39-.48,1.29-1.68,2.31-3.18a16.7,16.7,0,0,0-3.9.72,15.16,15.16,0,0,0-.57-1.8c.39-.06.75-.54,1.17-1.26a25.76,25.76,0,0,0,2.67-5.85l1.86.6a39.62,39.62,0,0,1-3.15,6.18l3-.27c.54-.9,1-1.83,1.47-2.76l1.68.93a50.15,50.15,0,0,1-5.58,8l3.57-.39c-.21-.69-.42-1.35-.6-1.95l1.5-.45a48.4,48.4,0,0,1,1.38,4.65Z"/><path class="cls-1" d="M527.66,403.88a18,18,0,0,1-3.33,6.45,15.09,15.09,0,0,0-1.68-1.2,13.16,13.16,0,0,0,3-5.7Zm5-1.08h-8.43V384.05h8.43Zm-2-16.89h-4.47v3.81h4.47Zm0,5.55h-4.47v3.84h4.47Zm0,5.61h-4.47V401h4.47Zm.48,6.33a25.24,25.24,0,0,1,2.49,4.62l-1.77.84a25,25,0,0,0-2.4-4.71Zm19.23,2h-1.8V408c0,1.08-.24,1.65-1,2a15.52,15.52,0,0,1-4.35.3,7.16,7.16,0,0,0-.63-1.8c1.56,0,3,0,3.42,0s.51-.12.51-.51v-2.61H537v4.95h-2v-4.95h-2v-1.71h2v-7.62h5.67v-1.74h-7.5v-1.68h4.32v-2h-2.85V389h2.85v-1.8h-3.63v-1.68h3.63v-2.58h2v2.58h4.44v-2.58h2v2.58h3.66v1.68H545.9V389h3.18v1.65H545.9v2h4.29v1.68h-7.56v1.74h5.88v7.62h1.8ZM537,397.73v2.13h3.66v-2.13Zm0,5.94h3.66v-2.25H537ZM539.45,389h4.44v-1.8h-4.44Zm0,3.63h4.44v-2h-4.44Zm3.18,5.1v2.13h3.84v-2.13Zm3.84,5.94v-2.25h-3.84v2.25Z"/><path class="cls-1" d="M567.08,402.44l.21,2c-4,1-8.13,2.07-11.25,2.85l-.54-2.19c1.74-.39,4-.87,6.48-1.47a108.93,108.93,0,0,0,1.95-12.06l2.1.39c-.6,3.51-1.41,8.07-2.19,11.22Zm-11.22-13.92h11.58v2.07H555.86Zm3,3.45a88.79,88.79,0,0,1,1.53,10.68l-1.89.36A77.08,77.08,0,0,0,557,392.3Zm2.52-3.75a26.27,26.27,0,0,0-2-4.56l1.86-.57a19.17,19.17,0,0,1,2.13,4.44Zm13.77,3v5.91h6.3v13h-2.25v-1.29h-9v1.41H568V397.16h4.86V382.91h2.25v6.21h7.56v2.13Zm4,8h-9v7.53h9Z"/><path class="cls-1" d="M600.89,407.75c0,1.14-.27,1.71-1.08,2.07a12.19,12.19,0,0,1-4.17.36,10.26,10.26,0,0,0-.72-1.95c1.5.06,2.85.06,3.24,0s.57-.15.57-.54v-4h-6.84a14.66,14.66,0,0,1-2.34,6.69,5.57,5.57,0,0,0-1.68-1.29c2-2.82,2.22-6.66,2.22-9.66v-7.11h10.8Zm13.86-20.1v2H588.11v-2h7.35a20.57,20.57,0,0,0-2.73-4l2-.78a20.38,20.38,0,0,1,3,4.2l-1.47.57h8.94a33.84,33.84,0,0,0,2.82-4.86l2.34.78c-.81,1.38-1.8,2.85-2.67,4.08Zm-16,14.31v-3h-6.6v.51c0,.81,0,1.62-.09,2.49Zm-6.6-7.77v3h6.6v-3Zm14.46,10.65h-2.07V392.66h2.07Zm4-13.08h2.19v15.75c0,1.35-.3,1.95-1.2,2.31a14.65,14.65,0,0,1-4.74.39,8.85,8.85,0,0,0-.81-2.13c1.83.06,3.45.06,3.9,0s.66-.15.66-.6Z"/><path class="cls-1" d="M624.86,394c0,4.74-.42,11.49-3.15,16.05a7.73,7.73,0,0,0-1.86-1.14c2.61-4.35,2.88-10.47,2.88-14.91v-8.55h11.49c-.21-.75-.48-1.5-.75-2.19l2.25-.45a28,28,0,0,1,1,2.64h10.44v2H624.86Zm9.21,13.05c-2.58,1.17-5.94,2.46-8.31,3.36a8.69,8.69,0,0,0-1.17-1.59,71,71,0,0,0,7.71-3.18Zm13.26-12.57v1.44H625.67v-1.44Zm-17.19-.93V391h-3.78v-1.41h3.78v-1.74h2.13v1.74H640v-1.74h2.22v1.74H646V391H642.2v2.58Zm15.06,12h-18V397h18Zm-15.93-5h5.88v-2.07h-5.88Zm0,3.54h5.88v-2.13h-5.88Zm3-13.08v1.41H640V391Zm10.8,7.47h-5.82v2.07h5.82Zm0,3.48h-5.82v2.13h5.82Zm-3.87,3.72c2.85,1,6,2.25,7.95,3.18L646,410.42a83.22,83.22,0,0,0-7.74-3.3Z"/><path class="cls-1" d="M662,400.52c-3,1.53-6.3,3.12-8.82,4.32l-.87-2.19c1.14-.48,2.55-1.08,4.08-1.77v-9.39h-3.51v-2.1h3.51v-6.24h2.07v6.24h3.24v2.1h-3.24v8.43l3.06-1.38Zm5.58-3.45a18.75,18.75,0,0,1-1.29,2.1h12.9a8.56,8.56,0,0,1-.09.9c-.45,6.18-.93,8.52-1.77,9.39a2.43,2.43,0,0,1-1.68.75c-.66,0-1.77,0-3,0a3.78,3.78,0,0,0-.51-1.8c1.11.09,2.1.12,2.55.12s.69,0,.9-.33c.51-.54,1-2.43,1.35-7.14h-2.34c-1.2,3.57-3.54,7.44-6.12,9.39a6.8,6.8,0,0,0-1.59-1.29c2.43-1.62,4.62-4.86,5.85-8.1h-2.91a22.66,22.66,0,0,1-7.29,8.1,5.9,5.9,0,0,0-1.47-1.38,19.8,19.8,0,0,0,6.75-6.72h-3a20.58,20.58,0,0,1-3.9,3.42,9.78,9.78,0,0,0-1.53-1.38,17,17,0,0,0,5.94-6h-4.2v-1.89h18.78v1.89Zm10.2-3.57H664.07v-9.69h13.71Zm-2.07-8h-9.6v2.37h9.6Zm0,3.93h-9.6v2.4h9.6Z"/><path class="cls-1" d="M712,406.82V409h-26.7v-2.19h4.08v-14h2.25v14h6.6V387.29H686.42v-2.16H711v2.16h-10.5v8h9.36v2.19h-9.36v9.36Z"/><path class="cls-1" d="M735.53,390.68c.75,10.08,3.09,17.37,6.06,17.37.81,0,1.17-1.65,1.35-5.64a6.24,6.24,0,0,0,2,1.23c-.39,5.19-1.23,6.72-3.51,6.72-4.86,0-7.35-8.61-8.16-19.68H717.77v-2.19H733.1c-.09-1.77-.12-3.6-.15-5.43h2.34c0,1.86,0,3.66.12,5.43h8.88v2.19Zm-9.18,14.82c2.1-.45,4.26-.87,6.42-1.35l.18,2c-5.07,1.2-10.56,2.46-14.37,3.3l-.69-2.19,6.27-1.26v-8.7h-5.34v-2.16H732v2.16h-5.61Zm15.15-17.37a25.92,25.92,0,0,0-4.26-3.75l1.5-1.23a26.05,26.05,0,0,1,4.32,3.57Z"/><path class="cls-1" d="M753.35,394.22v16.11h-2.19V384.2H762v10Zm0-8.31v2.43h6.57v-2.43Zm6.57,6.6v-2.58h-6.57v2.58Zm7.44,10.56v6.69h-2v-6.69h-4.26a9.62,9.62,0,0,1-4,7.08,7.81,7.81,0,0,0-1.47-1.32,7.55,7.55,0,0,0,3.54-5.76h-3.75v-1.89h3.81v-3.24H756v-1.83h14.79v1.83h-3.42v3.24h4.08v1.89Zm-2-1.89v-3.24h-4.2v3.24Zm10.41,6.24c0,1.32-.3,2-1.17,2.43a13.93,13.93,0,0,1-4.65.39,7.37,7.37,0,0,0-.72-2.22c1.65.06,3.27.06,3.72,0s.63-.18.63-.66V394.25h-8.94V384.2h11.13Zm-9-21.51v2.43h6.81v-2.43Zm6.81,6.63v-2.61h-6.81v2.61Z"/><path class="cls-1" d="M802.43,400.28a20.05,20.05,0,0,0,7.26,3.57,6.54,6.54,0,0,0-1.32,1.68,17.94,17.94,0,0,1-3.66-1.62v3.54c0,1-.18,1.47-.93,1.8a12.81,12.81,0,0,1-3.72.27,7.25,7.25,0,0,0-.6-1.71c1.26.06,2.34.06,2.64,0s.45-.09.45-.42v-3.06h-5.76v5.91H794.6v-5.91h-5.28v5.25h-2.13V403.7a31.49,31.49,0,0,1-3.9,1.92A6.33,6.33,0,0,0,782,404a23.06,23.06,0,0,0,6.69-3.69h-6.24v-1.8h8.1a19.25,19.25,0,0,0,1.23-1.62h-5.76v-8.22h19.77v8.22H794.24a13.82,13.82,0,0,1-1.08,1.62h16v1.8Zm-12.72-13.47h-7V385h7v-2.07h2.16V385h3.54v1.8h-3.54v1.41h-2.16ZM788.18,392h15.45v-1.95H788.18Zm0,3.39h15.45v-2H788.18Zm14.49,7.17a14.29,14.29,0,0,1-2.64-2.31H791.6a22.73,22.73,0,0,1-2.7,2.31h5.7v-1.83h2.19v1.83Zm-3.09-15.78h-3.21V385h3.21v-2.07h2.19V385h7.17v1.8h-7.17v1.41h-2.19Z"/><path class="cls-1" d="M817.58,400.79c2.31-1,3.63-2.37,3.78-4.41a2.91,2.91,0,0,1-.51,0,2.06,2.06,0,0,1-2.25-2.13,2.11,2.11,0,0,1,2.28-2.16c1.65,0,2.55,1.35,2.55,3.45,0,3.24-2,5.7-5.19,6.81Z"/><path class="cls-1" d="M835.55,394.22v16.11h-2.19V384.2h10.86v10Zm0-8.31v2.43h6.57v-2.43Zm6.57,6.6v-2.58h-6.57v2.58Zm7.44,10.56v6.69h-2v-6.69h-4.26a9.62,9.62,0,0,1-4,7.08,7.81,7.81,0,0,0-1.47-1.32,7.55,7.55,0,0,0,3.54-5.76h-3.75v-1.89h3.81v-3.24h-3.24v-1.83H853v1.83h-3.42v3.24h4.08v1.89Zm-2-1.89v-3.24h-4.2v3.24ZM858,407.42c0,1.32-.3,2-1.17,2.43a13.93,13.93,0,0,1-4.65.39,7.37,7.37,0,0,0-.72-2.22c1.65.06,3.27.06,3.72,0s.63-.18.63-.66V394.25h-8.94V384.2H858Zm-9-21.51v2.43h6.81v-2.43Zm6.81,6.63v-2.61H849v2.61Z"/><path class="cls-1" d="M875.54,401.72a7.88,7.88,0,0,1-.09.9c-.36,4.17-.75,5.94-1.47,6.63a2.82,2.82,0,0,1-2,.75,37.2,37.2,0,0,1-4-.06,4.59,4.59,0,0,0-.66-1.92c1.62.15,3.27.18,3.84.18s.84,0,1.08-.27c.45-.39.78-1.62,1.05-4.47h-6.87c.36-1.77.78-4.44,1-6.57h5.94v-3.15h-5v-.36a20.15,20.15,0,0,1-3.33,1.41,7,7,0,0,0-1.2-1.65,22.24,22.24,0,0,0,5.91-2.82,22.9,22.9,0,0,0-3.39-2.58l1.29-1.23a18.46,18.46,0,0,1,3.57,2.67,15,15,0,0,0,2.88-3.18h-7v-1.83h8.13l.39-.09,1.38.72a17.15,17.15,0,0,1-6.3,7.17h4.65v6.66h-6.33c-.15,1.05-.3,2.13-.45,3.09Zm13.2-.81a13.45,13.45,0,0,1-3.87,5.43c1.59,1,3,1.86,4,2.61l-1.11,1.44c-1.08-.81-2.67-1.86-4.41-2.94a22.28,22.28,0,0,1-6.87,2.91,5.84,5.84,0,0,0-1-1.65,21.08,21.08,0,0,0,6.15-2.34c-1.62-1-3.27-1.95-4.74-2.76l1.08-1.23c1.59.87,3.42,1.92,5.19,2.94a11.84,11.84,0,0,0,2.91-3.21h-9.18v-1.62h10.23l.36-.09ZM891,387.26a31.5,31.5,0,0,1-4.23,3.3,21.59,21.59,0,0,0,5.13,2.16,8.27,8.27,0,0,0-1.35,1.71,21.91,21.91,0,0,1-4.29-1.8v4c0,.69.06.87.51.87H889a11.6,11.6,0,0,0,1.44-.09,13.65,13.65,0,0,0,.12,1.56,5.52,5.52,0,0,1-1.53.12h-2.46c-1.83,0-2.19-.72-2.19-2.49v-2.91h-4.08v.6a6.16,6.16,0,0,1-3.27,5.67,7.85,7.85,0,0,0-1.44-1.38,4.58,4.58,0,0,0,2.79-4.35v-2.34H885a20.08,20.08,0,0,1-7.14-8.34l1.77-.54A16.27,16.27,0,0,0,882,386.6a39.65,39.65,0,0,0,3.78-3.48l1.65,1.17a41.41,41.41,0,0,1-4.32,3.48,14.74,14.74,0,0,0,2.19,1.83,33.94,33.94,0,0,0,4-3.48Z"/><path class="cls-1" d="M911.33,387.05c-.36,1.26-.78,2.61-1.17,3.75h12v19.53h-2.25v-1.59H900.77v1.59h-2.16V390.8h9.27c.33-1.14.63-2.52.87-3.75H897.26v-2.13h26.37v2.13Zm-10.56,19.62H905v-13.8h-4.26Zm12.63-13.8h-6.33v3.3h6.33Zm0,5.13h-6.33v3.36h6.33Zm-6.33,8.67h6.33v-3.48h-6.33Zm12.87-13.8h-4.5v13.8h4.5Z"/><path class="cls-1" d="M938.81,401a36.33,36.33,0,0,0-2.64-3.63v12.9H934V397.13a30.66,30.66,0,0,1-4.23,7.71,12.27,12.27,0,0,0-1.14-2,30.46,30.46,0,0,0,5.19-9.51h-4.41v-2.1H934v-4.53c-1.38.24-2.79.48-4.08.63a6.82,6.82,0,0,0-.69-1.71,43.5,43.5,0,0,0,9.15-2.22L940,385a25.76,25.76,0,0,1-3.78,1.14v5h3.24v-.48h7.29v-1.62H941v-1.44h5.7v-1.56h-6.36v-1.5h6.36v-1.65h2.22v1.65h6.81v1.5h-6.81v1.56H955v1.44h-6.06v1.62h7.56v1.53H939.56v1.05h-3.39v1.83c.93.9,3.39,3.42,4,4.08Zm7.83,5.82a23,23,0,0,1-7.11,3.63,10.88,10.88,0,0,0-1.44-1.44,20.19,20.19,0,0,0,6.69-3.3Zm-5.22-1.26V393.77h13.35v11.76Zm2-8.37h9.21v-1.89h-9.21Zm0,3.42h9.21v-1.95h-9.21Zm0,3.45h9.21v-2h-9.21Zm7.53,1.74c2,1.14,4.32,2.52,5.73,3.48l-2,1.08c-1.2-.9-3.36-2.31-5.28-3.45Z"/><path class="cls-1" d="M968.87,397.25a39.62,39.62,0,0,1-2.46,7.74c.57.33,1.29.87,2.4,1.56,2.13,1.29,4.83,1.5,8.37,1.5,3.84,0,8.7-.3,12.06-.63a7.89,7.89,0,0,0-.69,2.31c-2.22.15-7.92.33-11.46.33-3.93,0-6.54-.33-8.76-1.65-1.2-.72-2.31-1.74-3-1.74s-1.65,1.89-2.52,3.78l-1.56-2a13.51,13.51,0,0,1,3-3.33,25.92,25.92,0,0,0,2.16-6.24h-3.93c.84-1.77,1.77-4.32,2.61-6.69h-3.36v-2h6.15c-.75,2.16-1.68,4.71-2.49,6.75h2.07l.39-.09Zm-4-8.67c-.36-1.26-1.05-3.33-1.53-4.89l2-.6c.54,1.56,1.23,3.54,1.59,4.83Zm9.51,2.25h-5.07v-1.71h8.43V386.9h-6.6v-1.68h6.6v-2.28h2.19v2.28h6.66v1.68h-6.66v2.22h8.64v1.71h-5.25l1.32.39c-.57,1-1.11,2.07-1.62,2.88h5.16v1.71h-8.25v2H987v1.65h-7.11v2.22h8.4v1.74h-8.4v3h-2.19v-3h-8.1v-1.74h8.1v-2.22h-6.78v-1.65h6.78v-2h-7.8V394.1h4.32a9.25,9.25,0,0,0-1.32-2.91Zm6.69,3a20.31,20.31,0,0,0,1.32-3H974.9a9.69,9.69,0,0,1,1.38,3l-1.11.3H982Z"/><path class="cls-1" d="M1008.29,402h-2.91V408h-2.61V402H993.2v-1.8l9.15-14.13h3v13.74h2.91Zm-5.52-2.19V393c0-1.08.12-2.85.18-4h-.12c-.54,1.08-1.14,2.16-1.77,3.24l-5,7.5Z"/><path class="cls-1" d="M1013.84,406.34a2,2,0,1,1,4,0,2,2,0,1,1-4,0Z"/><path class="cls-1" d="M1023.71,406.4c6.9-6,10.08-10.41,10.08-14.19,0-2.52-1.32-4.35-4-4.35a6.16,6.16,0,0,0-4.56,2.55l-1.59-1.56c1.8-2,3.69-3.24,6.48-3.24,3.93,0,6.39,2.58,6.39,6.51,0,4.38-3.45,8.85-8.61,13.74,1.14-.09,2.49-.21,3.6-.21h6.09V408h-13.83Z"/><path class="cls-1" d="M80,429.56a39.91,39.91,0,0,1-8.79,12.75,16.67,16.67,0,0,0-2-1.8,31.23,31.23,0,0,0,8.34-11.7Zm8.43,14.25a93.07,93.07,0,0,1,6.72,10.08l-2.22,1.23c-.42-.84-1-1.8-1.62-2.88-15.54,1.08-17.19,1.17-18.36,1.59a13.83,13.83,0,0,0-.87-2.37c.81-.18,1.68-1.17,2.82-2.58a66.9,66.9,0,0,0,7.56-11.82l2.49,1.05A78.72,78.72,0,0,1,76.13,451L90,450.2c-1.17-1.86-2.52-3.81-3.72-5.4ZM89,428.69c1.44,4.74,4.44,9.24,8,11.55a11.77,11.77,0,0,0-1.74,2.07,25,25,0,0,1-7.89-11.37H81.77v-2.25Z"/><path class="cls-1" d="M112.37,444.74a11.22,11.22,0,0,0,.3,1.92c-6.81,2.94-8.07,3.6-8.7,4.08l-.12.09a10.54,10.54,0,0,0-1.08-1.95,2.36,2.36,0,0,0,1.38-2.07V428.93h2.19v7.2h6.09v1.95h-6.09v9.12Zm6.36,6.66a28,28,0,0,1-7.62,3.9c-.33-.45-1-1.14-1.41-1.59a22.82,22.82,0,0,0,7.11-3.54Zm-.18-17.25c.24-.9.51-2,.69-2.91h-7.08v-1.92h16.56v1.92h-7c-.3,1-.66,2-1,2.91h7v15.51H113.63V434.15Zm7,1.74h-9.84v2.88h9.84Zm0,4.5h-9.84v2.94h9.84Zm0,4.59h-9.84v2.94h9.84Zm-2.16,5.31a36.5,36.5,0,0,1,6,3.72l-1.77,1.35a36.69,36.69,0,0,0-5.91-3.87Z"/><path class="cls-1" d="M137.18,445.79c2.31-1,3.63-2.37,3.78-4.41a2.91,2.91,0,0,1-.51,0,2.06,2.06,0,0,1-2.25-2.13,2.11,2.11,0,0,1,2.28-2.16c1.65,0,2.55,1.35,2.55,3.45,0,3.24-2,5.7-5.19,6.81Z"/><path class="cls-1" d="M157.94,444.05v8.43c0,1.26-.33,1.86-1.11,2.19a10.76,10.76,0,0,1-4.05.42,9.86,9.86,0,0,0-.69-2.07c1.44.06,2.73,0,3.09,0s.57-.15.57-.57v-7.74L152,445.85l-.66-2.16c1.23-.3,2.76-.72,4.44-1.2V436h-4.08v-2.1h4.08v-6h2.19v6h3.72V436h-3.72v5.85l2.79-.81.3,2Zm18.81-2.4a18.77,18.77,0,0,1-5.85,8.58,24.44,24.44,0,0,0,7.95,3.09,8,8,0,0,0-1.41,2,23.63,23.63,0,0,1-8.4-3.75,28.07,28.07,0,0,1-8.79,3.78,7.07,7.07,0,0,0-1.11-2,26.09,26.09,0,0,0,8.1-3.18,21.06,21.06,0,0,1-4.89-6.87l.3-.12h-1.17v-2.1h13.41l.42-.09Zm-10.26-9.3a8.65,8.65,0,0,1-4.5,8,10.72,10.72,0,0,0-1.44-1.65,6.7,6.7,0,0,0,3.84-6.42V429h9.45v6.93c0,.84.09,1.14.57,1.14h2.31a7.94,7.94,0,0,0,1.5-.15,19,19,0,0,0,.18,1.92,6.33,6.33,0,0,1-1.62.15h-2.52c-2.07,0-2.55-.87-2.55-3.09v-4.8h-5.22Zm-2,10.83a17.45,17.45,0,0,0,4.56,5.73,16.37,16.37,0,0,0,4.68-5.73Z"/><path class="cls-1" d="M192.74,436.16h-8.58v-1.8h8.58Zm2.37,15.48A40.77,40.77,0,0,1,186,455.3a14.5,14.5,0,0,0-1.65-1.68,35.56,35.56,0,0,0,8.79-2.88ZM192,431.45h-7.17v-1.74H192Zm-3.9,7.05H207.5v12H188.09Zm2.16,3.54h15v-2h-15Zm0,3.48h15v-2h-15Zm0,3.54h15V447h-15Zm7.2-17.37a14.78,14.78,0,0,1-2.25,3,9.71,9.71,0,0,0-1.68-1.14,12.82,12.82,0,0,0,3.45-5.7l2,.45c-.18.57-.42,1.11-.63,1.65H208.4l.36-.09,1.5.51a28.35,28.35,0,0,1-2.52,4.32l-1.77-.63a17.05,17.05,0,0,0,1.41-2.37h-4.77v.39a6.06,6.06,0,0,1-.09,1c1.59,1.8,4.86,3,8.79,3.3a8.24,8.24,0,0,0-1.26,1.77,14.44,14.44,0,0,1-8.16-3.51c-1,1.47-3.36,2.85-8.64,3.66a7.27,7.27,0,0,0-1.2-1.65c7.77-1.05,8.49-3.09,8.49-4.65v-.3Zm4.5,19a82.48,82.48,0,0,1,8.82,3.24l-2,1.29a71.86,71.86,0,0,0-8.4-3.33Z"/><path class="cls-1" d="M224.45,451.43a19.47,19.47,0,0,0,7.08,1c1.47,0,10.59,0,12.45-.06a7.26,7.26,0,0,0-.93,2.22H231.59c-6.39,0-9.93-1-12.12-5.07a17.84,17.84,0,0,1-1.77,5.88,13.81,13.81,0,0,0-1.77-1.08c1.71-3,2-7.68,2.07-12.93l2,.12c0,1.47-.09,2.91-.18,4.26a9.9,9.9,0,0,0,2.58,4.47v-11h-5.76v-2H222v-3.69h-4.77v-2H222v-3.6h2.07v3.6h4.68v2h-4.68v3.69h5.28v1.29c2.67-1.53,4.08-3.87,4.5-7.41H229.7v-1.92h13.11s0,.63,0,.93c-.27,5.34-.54,7.44-1.2,8.19a2.35,2.35,0,0,1-1.74.75,23.3,23.3,0,0,1-3.27,0,5.46,5.46,0,0,0-.57-1.92c1.23.12,2.4.12,2.85.12a1,1,0,0,0,.9-.27c.39-.45.66-2,.87-5.88H236c-.6,4.47-2.46,7.26-5.67,9.15a9,9,0,0,0-1.2-1.05h-4.71v4.26h4.65v2h-4.65Zm6.24-10.74h11.43v9.24H230.69Zm2.1,7.38h7.14v-5.52h-7.14Z"/><path class="cls-1" d="M256,442.25a39,39,0,0,1-2.46,7.74c.57.33,1.29.9,2.4,1.56,2.13,1.29,4.83,1.5,8.4,1.5,3.84,0,8.7-.3,12.06-.63a7.89,7.89,0,0,0-.69,2.31c-2.22.15-7.92.33-11.46.33-3.93,0-6.57-.33-8.79-1.65-1.2-.72-2.31-1.74-3-1.74s-1.68,1.89-2.58,3.78l-1.53-2a14.13,14.13,0,0,1,3-3.33,25.47,25.47,0,0,0,2.16-6.24h-3.93a70.08,70.08,0,0,0,2.58-6.69H248.9v-2h6.15c-.75,2.16-1.68,4.68-2.49,6.75h2.07l.39-.09ZM252,433.58c-.36-1.29-1-3.36-1.53-4.92l2-.57c.51,1.56,1.2,3.51,1.56,4.83Zm7.68,17.55h-2v-13H260V429h12.3v9.18h2.31v10.74c0,1-.18,1.56-.93,1.89a10.18,10.18,0,0,1-3.66.33,7.93,7.93,0,0,0-.6-1.8c1.26,0,2.37,0,2.67,0s.48-.15.48-.45v-9h-12.9Zm2.31-13h2.82v-5h5.46v-2.43H262Zm8,10.05h-6v1.17h-1.74v-7.5H270Zm-1.74-4.74h-4.29v3.18h4.29Zm2-5.31v-3.45h-3.72v3.45Z"/><path class="cls-1" d="M281.12,451.4c6.9-6,10.08-10.41,10.08-14.19,0-2.52-1.32-4.35-4.05-4.35a6.16,6.16,0,0,0-4.56,2.55L281,433.85c1.8-2,3.69-3.24,6.48-3.24,3.93,0,6.39,2.58,6.39,6.51,0,4.38-3.45,8.85-8.61,13.74,1.14-.09,2.49-.21,3.6-.21H295V453H281.12Z"/><path class="cls-1" d="M300.32,442c0-7.65,2.67-11.34,6.87-11.34S314,434.33,314,442s-2.67,11.46-6.84,11.46S300.32,449.6,300.32,442Zm11,0c0-6.42-1.68-9.12-4.17-9.12s-4.2,2.7-4.2,9.12,1.68,9.27,4.2,9.27S311.36,448.43,311.36,442Z"/><path class="cls-1" d="M328,428.66a48.76,48.76,0,0,1-3.12,6.87v19.74h-2.13V439a35.65,35.65,0,0,1-2.52,3.18,17.91,17.91,0,0,0-1.26-2.19A35,35,0,0,0,326,428Zm-1.68,24.93a23.63,23.63,0,0,0,2.4-4.86l1.74.75a29.92,29.92,0,0,1-2.37,5.07Zm12.57-18.09a22.66,22.66,0,0,0,1.23-2.91h-12v-1.74h7.5a27.88,27.88,0,0,0-1.05-2.61l2.07-.39a31.15,31.15,0,0,1,1.29,3h7.74v1.74h-5.25l2,.51c-.48.81-.93,1.68-1.35,2.4h5.58v1.83H326.72V435.5h5.37a9.17,9.17,0,0,0-1.11-2.43l1.89-.42a9.26,9.26,0,0,1,1.2,2.46l-1.5.39Zm5.34,11.61h-8.64a21.37,21.37,0,0,1,3.87,3l-1.41,1.23a30.15,30.15,0,0,0-4.26-3.36l1.08-.84h-5.67v-8.22h15Zm-2.19-6.72H331.37v1.92h10.71Zm0,3.3H331.37v1.92h10.71Zm-2.52,9.72c1,0,1.17-.27,1.23-2.25a6.66,6.66,0,0,0,1.86.72c-.24,2.67-.87,3.33-2.85,3.33h-4.92c-2.67,0-3.36-.54-3.36-2.58v-4h2.07v4c0,.69.18.78,1.5.78Zm3.63-5.07a30.34,30.34,0,0,1,3.57,5.28l-1.83.9a28.91,28.91,0,0,0-3.51-5.43Z"/><path class="cls-1" d="M354.68,445.79c2.31-1,3.63-2.37,3.78-4.41a2.91,2.91,0,0,1-.51,0,2.06,2.06,0,0,1-2.25-2.13,2.11,2.11,0,0,1,2.28-2.16c1.65,0,2.55,1.35,2.55,3.45,0,3.24-2,5.7-5.19,6.81Z"/><path class="cls-1" d="M378.14,428.63a43.82,43.82,0,0,1-3.06,6.18v20.46H373V438a32.16,32.16,0,0,1-3.33,4,13.43,13.43,0,0,0-1.26-2.16A33.49,33.49,0,0,0,376.07,428Zm9.27,7.59v5.85h7.08V455h-2.25v-1.59H381.05v1.77h-2.16V442.07h6.3V428h2.22v6.12h8.79v2.13Zm4.83,7.92H381.05v7.17h11.19Z"/><path class="cls-1" d="M407.45,445.61c1.08-.48,2.19-.93,3.3-1.41l.45,2c-3.15,1.47-6.51,3-9.12,4.14l-.87-2.22c1.14-.39,2.58-1,4.14-1.65v-9.24h-3.6v-2.13h3.6v-6.81h2.1v6.81h3.24v2.13h-3.24Zm17.22,7c1.74,0,2-.81,2.25-4.26a5.14,5.14,0,0,0,2,.84c-.36,4.11-1.05,5.43-4.17,5.43h-7.38c-3.39,0-4.41-.81-4.41-4.05v-9.42l-2.37,1-.87-2,3.24-1.35V430.7h2.13v7.23l4-1.68v-8.34h2.13v7.44l4.56-1.92,1.71.57-.12.36a106.81,106.81,0,0,1-1.56,13.14L424,447A106.64,106.64,0,0,0,425.15,436l-3.9,1.65v11h-2.13V438.56l-4,1.71v10.35c0,1.62.39,2,2.34,2Z"/><path class="cls-1" d="M435.14,450.74H440V434.33h-3.9v-1.74a13.93,13.93,0,0,0,4.56-1.56h2.1v19.71h4.41V453H435.14Z"/><path class="cls-1" d="M453.74,451.34a2,2,0,1,1,4,0,2,2,0,1,1-4,0Z"/><path class="cls-1" d="M463.61,451.4c6.9-6,10.08-10.41,10.08-14.19,0-2.52-1.32-4.35-4.05-4.35a6.16,6.16,0,0,0-4.56,2.55l-1.59-1.56c1.8-2,3.69-3.24,6.48-3.24,3.93,0,6.39,2.58,6.39,6.51,0,4.38-3.45,8.85-8.61,13.74,1.14-.09,2.49-.21,3.6-.21h6.09V453H463.61Z"/><path class="cls-1" d="M482.18,450.5l1.35-1.8a7.23,7.23,0,0,0,5.4,2.43c2.58,0,4.68-2,4.68-5.19s-1.8-5-4.56-5a6,6,0,0,0-3.66,1.29l-1.47-.9.69-10.29h10.71v2.34H487l-.54,6.36a6.31,6.31,0,0,1,3.27-.87c3.66,0,6.63,2.16,6.63,7a7.14,7.14,0,0,1-7.2,7.56A9.34,9.34,0,0,1,482.18,450.5Z"/><path class="cls-1" d="M509,431.66h-6.69v-1.89H509v-1.86h2.19v1.86h3.66v1.89h-3.66v1.86H509Zm18.27,21.39c0,1.05-.18,1.56-1,1.92a11.47,11.47,0,0,1-3.9.33,8.37,8.37,0,0,0-.66-1.83c1.41,0,2.55,0,2.88,0s.48-.12.48-.45v-6.3h-8.67v3.12l3.75-.15a19.52,19.52,0,0,0-1.32-1.92l1.65-.54a17.36,17.36,0,0,1,3.09,5.34l-1.74.63a10,10,0,0,0-.72-1.77c-4.83.33-9.75.57-13.14.75l-.18-1.95,6.48-.24v-3.27h-8.37v8.58h-2.16v-8.58h-1.2v-1.86h1.2v-1.08h2.16v1.08h8.37V443h-8.61v-9.09H525.2V443h-8.79v1.83h10.83ZM507.8,437.72h6.48v-2.16H507.8Zm6.48,3.69v-2.16H507.8v2.16Zm14.16-11.64v1.89h-6.81v1.89h-2.19v-1.89h-3.51v-1.89h3.51v-1.86h2.19v1.86ZM523,435.56h-6.6v2.16H523Zm0,3.69h-6.6v2.16H523Z"/><path class="cls-1" d="M543,445.16l.33,1.95c-2.94,1.26-6.09,2.55-8.52,3.54L534,448.4c1-.33,2.34-.78,3.75-1.32v-9.87h-3.3v-2.13h3.3v-6.81h2.07v6.81h2.88v2.13h-2.88v9.12Zm18.51-.48h-8.19V455.3h-2.19V444.68h-8.16v-2.13h8.16v-11H543.8v-2.13h16.86v2.13h-7.38v11h8.19Zm-14.73-11.4a37.61,37.61,0,0,1,1.8,7.32l-1.92.51a35.75,35.75,0,0,0-1.68-7.38Zm8.79,7.35a56.4,56.4,0,0,0,2.1-7.53l2.1.48a79.15,79.15,0,0,1-2.49,7.53Z"/><path class="cls-1" d="M569.57,445.79c2.31-1,3.63-2.37,3.78-4.41a2.91,2.91,0,0,1-.51,0,2.06,2.06,0,0,1-2.25-2.13,2.11,2.11,0,0,1,2.28-2.16c1.65,0,2.55,1.35,2.55,3.45,0,3.24-2,5.7-5.19,6.81Z"/><path class="cls-1" d="M595.25,442.7c-1.47.45-3,.93-4.44,1.35v8.31c0,1.29-.3,1.86-1.08,2.22s-2,.42-4.08.42a8.3,8.3,0,0,0-.72-2.1c1.44,0,2.73,0,3.09,0s.6-.15.6-.6v-7.59c-1.47.42-2.85.84-4.08,1.2l-.66-2.25c1.32-.33,3-.78,4.74-1.23v-6.39h-4.47v-2.13h4.47v-6h2.19v6H595v2.13h-4.14v5.73l4.17-1.17Zm16-10.05H606v19.41c0,1.53-.39,2.28-1.47,2.64s-2.94.45-5.76.45a10.72,10.72,0,0,0-.93-2.4c2.19.09,4.38.09,5,.06s.81-.21.81-.78V432.65H595.1v-2.19h16.2Z"/><path class="cls-1" d="M624.44,442.19a40.38,40.38,0,0,1-3,8c.51.33,1.17.81,2.1,1.38,2.1,1.29,4.77,1.5,8.31,1.5,3.81,0,8.64-.27,11.94-.6a8.28,8.28,0,0,0-.63,2.28c-2.25.15-7.83.33-11.37.33-3.93,0-6.51-.33-8.73-1.65-1.2-.72-2.28-1.74-3-1.74s-1.68,1.86-2.58,3.78l-1.53-2a10.51,10.51,0,0,1,3.51-3.54,27.64,27.64,0,0,0,2.34-6.09h-4.17c.84-1.77,1.83-4.29,2.64-6.6h-4v-2h6.72c-.75,2.13-1.71,4.65-2.58,6.66H623l.36-.09Zm-4.53-8.4c-.33-1.26-1-3.3-1.5-4.83l2-.57c.54,1.5,1.23,3.48,1.62,4.71Zm8.25-.15a20,20,0,0,1-2.28,3.12,15,15,0,0,0-1.92-1.08,18.17,18.17,0,0,0,4.35-7.35l2.1.51a29.85,29.85,0,0,1-1.17,2.85h3.45V428h2.19v3.72H642v1.95h-7.14v3.81h8.43v1.95H624.2v-1.95h8.49v-3.81Zm10.68,17.19v-1h-10v1.08h-2.16v-9.21H641v9.12Zm0-2.91v-4.38h-10v4.38Z"/><path class="cls-1" d="M675.77,441v2H663.26c-.09.81-.21,1.59-.36,2.31h12.39v2H662.36c-1.41,4.11-4.62,6.66-12.48,8a7.63,7.63,0,0,0-1.17-2c6.93-1,9.87-2.91,11.22-6H649.85v-2h10.71A17.65,17.65,0,0,0,661,443H649.19v-2h12v-2.52h-9.33v-2h9.33v-2.43h-11v-2h6.33a16.66,16.66,0,0,0-2.31-3.48l1.92-.78a14.72,14.72,0,0,1,2.64,3.78l-1.08.48h7.89a33.58,33.58,0,0,0,2.58-4.26l2.28.69a41.07,41.07,0,0,1-2.4,3.57h6.39v2h-11v2.43H673v2h-9.6V441Zm-12.27,6.57a75.25,75.25,0,0,1,12.24,5.94l-1,1.92a71.2,71.2,0,0,0-12.15-6.21Z"/><path class="cls-1" d="M699.32,435.68c.75,10.08,3.09,17.37,6.06,17.37.81,0,1.17-1.65,1.35-5.64a6.24,6.24,0,0,0,2,1.23c-.39,5.19-1.23,6.72-3.51,6.72-4.86,0-7.35-8.61-8.16-19.68H681.56v-2.19h15.33c-.09-1.77-.12-3.6-.15-5.43h2.34c0,1.86,0,3.66.12,5.43h8.88v2.19Zm-9.18,14.82c2.1-.45,4.26-.87,6.42-1.35l.18,2c-5.07,1.2-10.56,2.46-14.37,3.3l-.69-2.19L688,451v-8.7h-5.34v-2.16h13.14v2.16h-5.61Zm15.15-17.37a25.92,25.92,0,0,0-4.26-3.75l1.5-1.23a26.05,26.05,0,0,1,4.32,3.57Z"/><path class="cls-1" d="M722.3,446.87c-.48-.84-1.59-2.37-2.55-3.66V455.3h-2.07V443.45a30.38,30.38,0,0,1-3.48,3.75,7.53,7.53,0,0,0-1.2-2.1,29.65,29.65,0,0,0,7.41-9.84h-6.78v-2h7.86l.42-.09,1.23.87a35.24,35.24,0,0,1-3.39,6.6v.09a10,10,0,0,1,1,1.11,29.94,29.94,0,0,0,2.16-2.88l1.44,1.29c-.9.93-1.8,2-2.58,2.73.81,1,1.62,1.86,1.89,2.25ZM718.7,433a30.12,30.12,0,0,0-2.13-4.11l1.74-.81a25.82,25.82,0,0,1,2.22,3.93Zm20.46,12.84a15.07,15.07,0,0,1-5.13,5.52,27.1,27.1,0,0,0,6.93,2.1,9.41,9.41,0,0,0-1.35,1.89,25.36,25.36,0,0,1-7.68-2.76,32.69,32.69,0,0,1-8.67,2.85,7.65,7.65,0,0,0-1.11-1.83,30.36,30.36,0,0,0,7.8-2.22,21.25,21.25,0,0,1-3-2.64,23.19,23.19,0,0,1-2.76,1.95,15.47,15.47,0,0,0-1.59-1.5,17.92,17.92,0,0,0,3.06-2,17.24,17.24,0,0,1-1.5-2.34l1.86-.63a19.6,19.6,0,0,0,1,1.68,14,14,0,0,0,2.07-2.58h-3.57V436c-.33.42-.66.78-1,1.14a14.91,14.91,0,0,0-1.89-1.29,21.85,21.85,0,0,0,4.83-7.95l2.16.57a21.34,21.34,0,0,1-1,2.46h11.76v1.92H727.67c-.39.69-.81,1.29-1.2,1.92h12.27v8.55h-7.26a14.91,14.91,0,0,1-1.17,1.86h7l.39-.09Zm-11.52-7.59h8.91v-2h-8.91Zm0,3.54h8.91v-2h-8.91Zm1.2,5.13c-.15.18-.33.36-.48.51a18.69,18.69,0,0,0,3.69,2.88,14.17,14.17,0,0,0,4-3.39Z"/><path class="cls-1" d="M762,428.81c-.3.48-.63.9-1,1.35a35.3,35.3,0,0,0,12.45,8.19,6.74,6.74,0,0,0-1.53,2,47,47,0,0,1-4.86-2.67v2h-15V438.2a42.12,42.12,0,0,1-4.59,2.43,8.89,8.89,0,0,0-1.62-1.95c5.67-2.25,11.16-6.21,14.19-10.83Zm-11.49,14.52H769v11.82H766.7v-1.56H752.78v1.68h-2.25Zm2.25,2v6.21H766.7v-6.21Zm14.28-7.65a34.63,34.63,0,0,1-7.29-5.91,33.4,33.4,0,0,1-6.87,5.91Z"/><path class="cls-1" d="M805.46,452.21v2.1H778.52v-2.1H791v-3.78h-9.42v-2H791V443h2.25v3.36h9.06v2h-9.06v3.78Zm-20.64-15a9.59,9.59,0,0,1-4.5,7.17,10.3,10.3,0,0,0-1.47-1.56,7.78,7.78,0,0,0,3.9-5.61h-3.63v-2h3.78v-4.11h-2.79v-2h13.44v2h-2.79v4.11h3.39v2h-3.39v6.42h-2.1v-6.42Zm.15-2h3.69v-4.11H785v4.11Zm13.11,4.38H796v-10h2.07Zm5.61,1.86c0,1.23-.24,1.8-1.14,2.16a15.13,15.13,0,0,1-4.47.36,7,7,0,0,0-.75-2,34.76,34.76,0,0,0,3.66,0c.45,0,.57-.12.57-.54V428.12h2.13Z"/><path class="cls-1" d="M837.5,431.15v1.92H811.34v-1.92h12.39c-.3-.9-.69-2-1.05-2.82l2.07-.54c.42,1,1,2.37,1.29,3.36Zm-1.65,21.69c0,1.17-.3,1.68-1.17,2a20.92,20.92,0,0,1-4.95.3,6,6,0,0,0-.69-1.71c1.86.06,3.6,0,4.08,0s.66-.15.66-.63V439.25h-6.06v1.95c0,.66.09.9.57.9H831a9.94,9.94,0,0,0,1.65-.12c0,.51.09,1.11.15,1.59a5.75,5.75,0,0,1-1.74.15H827.9c-1.83,0-2.19-.78-2.19-2.55v-1.92h-3.39c-.45,3.12-1.86,4.77-6,5.7a4.57,4.57,0,0,0-1.08-1.56c3.51-.63,4.68-1.83,5.1-4.14h-5.16v16h-2.13V437.39h13.86a27.08,27.08,0,0,0,2.19-4.08l2.25.51c-.72,1.2-1.53,2.52-2.31,3.57h6.81Zm-16.26-19.68a33.4,33.4,0,0,1,1.89,3.33l-1.92.78c-.42-.87-1.23-2.37-1.86-3.48Zm1.2,18.33v1.38h-1.95v-8.19h10.95v6.81Zm0-5.13v3.48h7.14v-3.48Z"/><path class="cls-1" d="M852.59,445.52c-3,1.53-6.3,3.12-8.82,4.32l-.87-2.19c1.14-.48,2.55-1.08,4.08-1.77v-9.39h-3.51v-2.1H847v-6.24h2.07v6.24h3.24v2.1h-3.24v8.43l3.06-1.38Zm5.58-3.45a18.75,18.75,0,0,1-1.29,2.1h12.9a8.56,8.56,0,0,1-.09.9c-.45,6.18-.93,8.52-1.77,9.39a2.43,2.43,0,0,1-1.68.75c-.66,0-1.77,0-3,0a3.78,3.78,0,0,0-.51-1.8c1.11.09,2.1.12,2.55.12s.69,0,.9-.33c.51-.54,1-2.43,1.35-7.14h-2.34c-1.2,3.57-3.54,7.44-6.12,9.39a6.8,6.8,0,0,0-1.59-1.29c2.43-1.62,4.62-4.86,5.85-8.1h-2.91a22.66,22.66,0,0,1-7.29,8.1,5.9,5.9,0,0,0-1.47-1.38,19.8,19.8,0,0,0,6.75-6.72h-3a20.58,20.58,0,0,1-3.9,3.42,9.78,9.78,0,0,0-1.53-1.38,17,17,0,0,0,5.94-6h-4.2v-1.89H870.5v1.89Zm10.2-3.57H854.66v-9.69h13.71Zm-2.07-8h-9.6v2.37h9.6Zm0,3.93h-9.6v2.4h9.6Z"/><path class="cls-1" d="M902.72,446.24v2.07h-27v-2.07h3l-.57-15.84a49.22,49.22,0,0,0,5.55-2.31l1.08,1.83c-1.38.57-3,1.14-4.56,1.62l.12,3.51h4V437h-4l.12,3.66h4v1.92h-3.87l.12,3.69h17c.06-1.05.15-2.31.21-3.6h-3.9v-1.89h4c.06-1.2.09-2.43.15-3.69h-4v-1.92h4c0-1.29.06-2.55.06-3.75h-4.32v-1.95h6.36c0,5.25-.18,12.36-.45,16.8Zm-16.38,3.9a47.71,47.71,0,0,1-8.94,5.13,20.06,20.06,0,0,0-1.32-1.68,34.59,34.59,0,0,0,8.34-4.8Zm2.31-10.74a15.07,15.07,0,0,1-1.83,5.61,9.82,9.82,0,0,0-1.56-1,11.66,11.66,0,0,0,1.65-4.95Zm2.07-1.59H886v-9.69h1.95v2.79h5v1.89h-5V436h3.93v0h.81v7.89c0,.93-.18,1.32-.84,1.62a9.68,9.68,0,0,1-3.15.27,5.91,5.91,0,0,0-.57-1.53,19.79,19.79,0,0,0,2.25,0c.33,0,.39-.12.39-.39Zm2.58,10.89a72.7,72.7,0,0,1,8.73,4.8l-1.47,1.68a68.76,68.76,0,0,0-8.49-4.95Z"/><path class="cls-1" d="M925.1,436.31a80.28,80.28,0,0,1,10.38,5.82l-1.65,1.53a73.44,73.44,0,0,0-11.22-6.48v4.92h-2.19v-5.7a28.93,28.93,0,0,1-11.34,7.8,10.25,10.25,0,0,0-1.44-1.8,27.3,27.3,0,0,0,10.2-6.09H908.6v-2h11.82v-3c-3.27.27-6.63.48-9.72.6a7.57,7.57,0,0,0-.54-1.83c6.9-.3,15.27-1,19.77-2.07l1.68,1.71a74.6,74.6,0,0,1-9,1.38v3.18h11.91v2Zm7.32,9.93a9.22,9.22,0,0,1-.09,1c-.45,4.35-.9,6.24-1.71,7a3.07,3.07,0,0,1-2.19.81c-.84,0-2.52,0-4.26-.09a5,5,0,0,0-.72-2.07c1.77.18,3.54.21,4.2.21a1.62,1.62,0,0,0,1.17-.27c.51-.42.87-1.71,1.2-4.62h-6.78c.36-1,.78-2.22,1.14-3.45H919c-.84,4.77-2.82,8.58-9.06,10.65a6.52,6.52,0,0,0-1.29-1.83c5.61-1.71,7.32-4.92,8-8.82h-4.38v-1.92H927c-.3,1.11-.66,2.37-1,3.45Z"/><path class="cls-1" d="M960.23,441.11a18.22,18.22,0,0,0,7.74,4.95,8.75,8.75,0,0,0-1.47,1.83,20.72,20.72,0,0,1-8.82-6.78h-7.8a25.44,25.44,0,0,1-8,7.08,6.19,6.19,0,0,0-1.65-1.53,23.36,23.36,0,0,0,6.93-5.55h-6.6v-1.89h8a23.84,23.84,0,0,0,1.5-2.49h-6.36v-1.8h7.17a21.93,21.93,0,0,0,.87-2.34h-9.54v-1.83h10a23.2,23.2,0,0,0,.51-2.82l2.34.21c-.15.84-.3,1.74-.54,2.61H966v1.83H954.08a21.56,21.56,0,0,1-.81,2.34H964.7v1.8H952.46a18.32,18.32,0,0,1-1.35,2.49h16.2v1.89Zm1.35,4.74c-.93,1-2,2.19-3,3.15,2.37,1.17,4.74,2.43,6.3,3.36l-1.32,1.71a71.68,71.68,0,0,0-8.4-4.53v3.36c0,1.14-.27,1.62-1.11,2a14.42,14.42,0,0,1-4.2.3,7.15,7.15,0,0,0-.69-1.83c1.53.06,2.91.06,3.27,0s.54-.12.54-.51v-2.7c-3.33,1.32-6.81,2.67-9.51,3.66l-1.05-1.86c2.64-.87,6.69-2.28,10.56-3.69v-6.12h2.19v5.28c.54.24,1.05.51,1.62.72a36.92,36.92,0,0,0,3-3.39Zm-12.27,3.45a16.12,16.12,0,0,0-3.21-3.18l1.5-1.17a15.53,15.53,0,0,1,3.27,3.09Z"/><path class="cls-1" d="M978,449.24a17.31,17.31,0,0,1-3.24,4.92,18.34,18.34,0,0,0-1.59-1.23,12.89,12.89,0,0,0,2.94-4.26Zm11.16-8.43h-15.9V439h7c-.24-.48-.48-1-.69-1.35l2-.51a12.3,12.3,0,0,1,1,1.86h6.54Zm-1-3.72H974.72V429h13.41ZM982.4,448V453c0,1.08-.21,1.56-1,1.86a9.69,9.69,0,0,1-3.51.33,7.15,7.15,0,0,0-.69-1.83c1.23,0,2.25,0,2.55,0s.42-.12.42-.39V448H975v-5.7H987.8V448Zm3.54-17.49h-9.09v1.77h9.09Zm0,3.24h-9.09v1.83h9.09Zm-8.88,12.66h8.55V443.9h-8.55Zm8.43,2.22a25,25,0,0,1,2.82,4.32l-1.68.87a29.85,29.85,0,0,0-2.7-4.44Zm14.67-2.67a25.8,25.8,0,0,1-10.35,9.18,9.26,9.26,0,0,0-1.56-1.71,22.54,22.54,0,0,0,9.87-8.28Zm-1.56-16.56a30.13,30.13,0,0,1-7.86,7,9.92,9.92,0,0,0-1.62-1.53,24.48,24.48,0,0,0,7.41-6.36Zm.93,8a29.25,29.25,0,0,1-8.82,7.44,8.64,8.64,0,0,0-1.56-1.59,24.82,24.82,0,0,0,8.37-6.69Z"/><path class="cls-1" d="M1014.05,448c-2.85,1.2-5.85,2.34-8.19,3.27l-.72-2.19c1-.33,2.19-.75,3.51-1.23V437.27h-3.15V435.2h3.15v-6.93h2.07v6.93h2.85v2.07h-2.85v9.84l2.91-1.08Zm17.7-9.78a34.05,34.05,0,0,1-4.2,10.11c.72,2.88,1.59,4.56,2.61,4.56.57,0,.87-1.47,1-4.92a4.67,4.67,0,0,0,1.65,1.14c-.33,4.5-1,5.88-2.91,5.88-1.68,0-2.94-1.68-3.87-4.5a22,22,0,0,1-5,4.71,8.38,8.38,0,0,0-1.56-1.53,20.06,20.06,0,0,0,5.91-5.67,81.91,81.91,0,0,1-1.44-13.44h-7v4h5.73s0,.63,0,.9c-.09,6.84-.21,9.24-.78,10a1.89,1.89,0,0,1-1.53.84,19.87,19.87,0,0,1-2.7,0,5.05,5.05,0,0,0-.51-1.89c1,.09,1.95.09,2.34.09s.6,0,.72-.3c.33-.45.45-2.37.54-7.74h-3.78v1.32c0,4.2-.51,9.9-3.72,13.62a7.46,7.46,0,0,0-1.65-1.41c3-3.45,3.3-8.37,3.3-12.24V432.5h9q-.09-2.25-.09-4.59h2.13c0,1.56,0,3.12,0,4.59h4a21.9,21.9,0,0,0-3.45-3.42l1.5-1a17.63,17.63,0,0,1,3.57,3.36l-1.5,1h2.19v2.07H1026a96.19,96.19,0,0,0,1,10.8,30.55,30.55,0,0,0,2.73-7.47Z"/><path class="cls-1" d="M1040.57,445.79c2.31-1,3.63-2.37,3.78-4.41a2.91,2.91,0,0,1-.51,0,2.06,2.06,0,0,1-2.25-2.13,2.11,2.11,0,0,1,2.28-2.16c1.65,0,2.55,1.35,2.55,3.45,0,3.24-2,5.7-5.19,6.81Z"/><path class="cls-1" d="M76.61,478.37c-.27,2.13-1.44,4.41-5.28,5.91a8.36,8.36,0,0,0-1.26-1.5c3.27-1,4.2-2.85,4.44-4.41H69.86v-1.83H74.6v-3.18h2.07v3.18h2.52v-3.15h2v3.15h3.72v-3.15h2v3.15h2.64V473.3h2v3.24H96.2v1.83H91.61v2.28c0,.81.09,1.05.6,1.05h2.37a8.33,8.33,0,0,0,1.53-.12,16.26,16.26,0,0,0,.18,1.74,8.44,8.44,0,0,1-1.65.12H92c-2,0-2.46-.78-2.46-2.82v-2.25H86.93v4.8H79.19v-4.8Zm-6.18,6.27H95.78v5.76H93.62v-3.9H72.53v3.9h-2.1ZM92.9,496.19c0,1.14-.24,1.71-1.11,2a16,16,0,0,1-4.59.33,7.86,7.86,0,0,0-.72-1.92c1.68,0,3.24,0,3.66,0s.57-.15.57-.48v-4.8H84v8.88H81.83v-8.88H75.56v7.17H73.37v-9h8.46v-2.49H84v2.49H92.9ZM81.17,478.37v3.06h3.72v-3.06Z"/><path class="cls-1" d="M128.45,479.87s0,.84,0,1.14c-.33,12.57-.6,16.74-1.62,18a2.37,2.37,0,0,1-2,1.11,20.7,20.7,0,0,1-3.63,0,6,6,0,0,0-.63-2.1c1.44.12,2.76.15,3.33.15a1.14,1.14,0,0,0,1.08-.48c.69-.87,1-4.83,1.35-15.72H122c-.36,8-1.74,14.52-7,18.48a7.58,7.58,0,0,0-1.65-1.59,15.6,15.6,0,0,0,1.32-1.05c-4.56.54-9.21,1.05-12.57,1.41l-.33-2c1.8-.15,4-.36,6.51-.6v-2.58h-5.67v-1.71h5.67v-1.83h-5.61v-8.91h5.61v-1.89h-6.48V478h6.48v-2c-1.92.15-3.87.27-5.64.33a6.64,6.64,0,0,0-.54-1.65A93.73,93.73,0,0,0,115,473.24l1.11,1.71a57.33,57.33,0,0,1-5.85.87V478h6.36v1.74h-6.36v1.89h5.82v8.91h-5.82v1.83h5.88v1.71h-5.88v2.37c2-.18,4-.39,6-.63V496c2.61-3.54,3.39-8.37,3.66-14h-3.51v-2.1H120c.06-2.1.06-4.29.06-6.57h2.1c0,2.25,0,4.47-.06,6.57Zm-24,5.46h3.78v-2.16h-3.78Zm3.78,3.66V486.8h-3.78V489Zm2-5.82v2.16h3.93v-2.16Zm3.93,3.63h-3.93V489h3.93Z"/><path class="cls-1" d="M159.11,497.63c0,1.38-.39,1.95-1.32,2.31s-2.52.39-5.16.39a8.49,8.49,0,0,0-.78-2c1.92.06,3.78.06,4.29,0s.75-.21.75-.72V486.14h-17.4c-.15,4.68-.93,10.41-3.84,14.37a7.45,7.45,0,0,0-1.77-1.44c3.15-4.32,3.45-10.44,3.45-15.09v-9.63h21.78Zm-19.59-21.18v2.82h7.29v-2.82Zm0,7.8h7.29V481.1h-7.29v3.15Zm4.29,11.85v1.65h-2.07v-9.48h12.45v7.83Zm0-6v4.23h8.25v-4.23Zm13.08-13.62h-7.95v2.82h7.95Zm0,7.8V481.1h-7.95v3.15Z"/><path class="cls-1" d="M173.63,487.25A38,38,0,0,1,171.2,495c.66.3,1.32.93,2.52,1.65,2.13,1.29,4.83,1.47,8.4,1.47,3.9,0,8.76-.27,12.09-.57a6.87,6.87,0,0,0-.63,2.16c-2.25.15-8,.33-11.52.33-3.93,0-6.57-.33-8.76-1.65-1.26-.72-2.34-1.74-3-1.74s-1.65,1.86-2.58,3.75l-1.44-1.86a14.67,14.67,0,0,1,2.85-3.27,30.7,30.7,0,0,0,2.13-6.39h-3.72c.87-1.8,2-4.38,2.88-6.75H166.7v-2h6.66c-.84,2.16-1.89,4.74-2.79,6.78h1.71l.36-.09Zm-3.09-8.64c-.51-1.29-1.47-3.39-2.16-4.95l1.83-.54c.72,1.56,1.74,3.54,2.19,4.8Zm5.67,8.67h-2v-3h8.31c-.15-.42-.36-.9-.54-1.29h-5.67v-8.31h5.28c.33-.63.63-1.35.84-1.86l2.31.33c-.36.57-.72,1.05-1,1.53H191V483h-6.72c.24.42.45.9.63,1.29h8.19v2.79h-2v-1.5h-3.54V487c0,.54.06.72.63.72h2.55a11.72,11.72,0,0,0,1.83-.12c.06.45.06.72.15,1.2a8.39,8.39,0,0,1-1.89.12H187.4c-1.53,0-1.77-.66-1.77-1.95V485.6h-3.12c-.93,2.16-3,3.15-7.08,3.81a3.61,3.61,0,0,0-.9-1.2c3.39-.45,5.13-1.2,5.94-2.61h-4.26Zm5.88,4a8.77,8.77,0,0,1-.3,1.05h8.46a5.78,5.78,0,0,1-.09.75c-.39,2-.81,3-1.44,3.48a2.46,2.46,0,0,1-1.65.48,24.65,24.65,0,0,1-3.15-.09,3.72,3.72,0,0,0-.45-1.38,23.91,23.91,0,0,0,2.85.15c.48,0,.72,0,.9-.21a3.2,3.2,0,0,0,.84-1.83h-6.9c-1,1.65-2.73,2.85-5.58,3.66a4.55,4.55,0,0,0-1.11-1.5c3.63-.87,5.07-2.4,5.67-4.56h-5.37v-1.41h8c-.24-.54-.51-1.14-.78-1.65l1.83-.39c.36.6.75,1.41,1,2h8v1.41Zm-3.63-14.16h10.35v-1.26H178.46Zm0,2.37h10.35v-1.26H178.46Zm0,2.4h10.35v-1.29H178.46Z"/><path class="cls-1" d="M225,497.45c0,1.29-.36,1.86-1.23,2.22a16.92,16.92,0,0,1-4.89.36,7.86,7.86,0,0,0-.72-1.92c1.77.09,3.45.06,3.93,0s.72-.18.72-.69V476.6H202.52v23.73h-2.16V474.5H225Zm-17.46-10.62v7h3.93v-9.21H204v-1.92h10.41a40.55,40.55,0,0,0,2.64-5.55l2.22.57c-.84,1.65-1.86,3.48-2.76,5h5.13v1.92h-8.07v9.21h4v-7h2v8.91H205.64v-8.91Zm.42-9.6a39.7,39.7,0,0,1,2.25,4.56l-1.92.75a33.49,33.49,0,0,0-2.16-4.71Z"/><path class="cls-1" d="M256.7,479.09v21.12h-2.28V498H233.33V479.12h2.28v16.62h8.22V473.27h2.28v22.47h8.31V479.09Z"/><path class="cls-1" d="M274.25,489.26l-2,1.71a51.53,51.53,0,0,0-6.63-6.66l1.95-1.71A56.29,56.29,0,0,1,274.25,489.26Z"/><path class="cls-1" d="M287.48,483.71c.81,1.11,3,4.44,3.48,5.22l-1.2,1.65c-.42-1-1.44-2.82-2.28-4.32v14h-2V486.56a33.45,33.45,0,0,1-3.45,8.1,16,16,0,0,0-1.17-2c1.8-2.49,3.57-7.17,4.41-11.25h-3.78v-2.07h4v-6.48h2v6.48h3.3v2.07h-3.3Zm15.81-4a15.19,15.19,0,0,0,5.55,4.53,7.4,7.4,0,0,0-1.41,1.62,15.5,15.5,0,0,1-3.12-2.31v3.54h-9.57v-3.51a17.8,17.8,0,0,1-3.21,2.37,4.64,4.64,0,0,0-1.38-1.47,15,15,0,0,0,5.37-4.77h-4.44v-1.77h5.46a12.69,12.69,0,0,0,.75-1.92c-1.77.12-3.54.18-5.16.21a5.74,5.74,0,0,0-.51-1.53,84.06,84.06,0,0,0,13.47-1.32l1.32,1.5a57.18,57.18,0,0,1-6.93,1,19.11,19.11,0,0,1-.75,2.07h9.42v1.77Zm4.35,18.3c0,1.05-.21,1.62-1,1.95a12.42,12.42,0,0,1-3.87.33,7.45,7.45,0,0,0-.72-1.86c1.41.06,2.64.06,3,0s.51-.12.51-.45v-7.77H293.51V500.3h-2.07V488.45h16.2Zm-10.26-.6v1.32H295.7v-6.87h7.65v5.55Zm.45-17.7a17.42,17.42,0,0,1-1.2,1.83h5.82a18.07,18.07,0,0,1-1.26-1.83Zm4.5,3.3h-5.67v2.61h5.67Zm-4.95,10.29v2.64h4.26v-2.64Z"/><path class="cls-1" d="M326,496c-4.23,1-8.73,2-12,2.7l-.57-2.07c2.25-.42,5.37-1.05,8.67-1.74l-1.5-.45a47,47,0,0,0,1.35-6.06l2.13.54c-.57,2-1.17,4.35-1.74,5.91l3.48-.72Zm-.39-19.35H313.88v-2h11.73Zm-.69,10.86H314.69v-8h10.23Zm-8.37,7.14a19.07,19.07,0,0,0-1.14-5.55l1.8-.45a18.37,18.37,0,0,1,1.26,5.52Zm6.33-13.32h-6.24v4.35h6.24Zm9.21,15.12a20.48,20.48,0,0,1-6.57,3.93,13.58,13.58,0,0,0-1.47-1.47,17.67,17.67,0,0,0,6.09-3.57Zm-.6-17.28c.21-.9.45-1.92.6-2.85h-5.67v-1.92h14.37v1.92h-6.24c-.3,1-.57,2-.87,2.85h6.15v15.54H327.32V479.12Zm6.24,1.74h-8.34v2.91h8.34Zm0,4.5h-8.34v2.94h8.34Zm0,4.59h-8.34v3h8.34Zm-1.44,5.49a35.48,35.48,0,0,1,5.13,3.69l-1.77,1.2a36,36,0,0,0-5-3.81Z"/><path class="cls-1" d="M354.86,490.94c-.06-.42-.18-1-.33-1.59-6.36,1-7.26,1.17-7.86,1.47a14.27,14.27,0,0,0-.72-2.07c.66-.15,1.35-.9,2.22-2,.45-.54,1.38-1.8,2.46-3.39-3.09.36-3.72.48-4.14.69a19.8,19.8,0,0,0-.69-2c.51-.12,1-.72,1.65-1.65a41,41,0,0,0,4-7.56l2,.81a50.51,50.51,0,0,1-4.56,8l3.09-.24c.75-1.26,1.53-2.64,2.16-4l1.92,1.14a59.74,59.74,0,0,1-6.66,9.66l4.71-.63c-.33-1-.66-2-1-2.94l1.71-.45a37.6,37.6,0,0,1,1.95,6.15Zm-5.76,1.5a38.06,38.06,0,0,1-1.53,7.35c-.39-.21-1.32-.51-1.77-.69a33.75,33.75,0,0,0,1.44-7Zm2.91-.39a50.68,50.68,0,0,1,.84,6.3l-1.8.3a51.78,51.78,0,0,0-.75-6.3Zm2.79-.78a33.33,33.33,0,0,1,1.53,5l-1.65.57a40.42,40.42,0,0,0-1.47-5.07Zm18.3,6.3v2H356v-2h7.62v-5.7h-6v-2H371.9v2h-6.06v5.7Zm-12.81-8.73a30.26,30.26,0,0,0-3.57-5.91,57.09,57.09,0,0,0,3.15-5.52l1.95.51c-.81,1.53-1.95,3.45-2.94,4.95a36.08,36.08,0,0,1,3.3,5.19Zm12.54-12.39H357v-2h15.81ZM367,478c-.84,1.5-2,3.42-3,4.89a40.27,40.27,0,0,1,3.39,5.1l-1.83.84a28.41,28.41,0,0,0-3.75-5.88,55.85,55.85,0,0,0,3.24-5.46Zm3.87,10.89a31.64,31.64,0,0,0-4.05-5.91,51.59,51.59,0,0,0,3.36-5.52l2,.54c-.87,1.53-2.1,3.42-3.09,4.92a34.64,34.64,0,0,1,3.6,5.1Z"/><path class="cls-1" d="M379.25,481.55a22.92,22.92,0,0,1,4.71,3.12l-1.17,1.56a24.49,24.49,0,0,0-4.62-3.33Zm-.78,17.16a90.39,90.39,0,0,0,4-9.42l1.47,1.11c-1.08,3.09-2.55,6.72-3.78,9.42Zm4.83-20.25a22.36,22.36,0,0,0-4.32-3.93l1.2-1.29a23.35,23.35,0,0,1,4.38,3.75Zm16.95,9.12h2.1v12.78h-2.1v-4.74H389.39a8.57,8.57,0,0,1-3.39,4.77,6.31,6.31,0,0,0-1.68-1.2,8.62,8.62,0,0,0,3.54-7.59v-4h2.07v1.95h10.32Zm-7.92-7.53s0,.45,0,.72c-.12,3.81-.21,5.28-.66,5.79a1.45,1.45,0,0,1-1.2.57,9.33,9.33,0,0,1-1.62,0,4.26,4.26,0,0,0-.39-1.5c.63.06,1.11.06,1.35.06a.49.49,0,0,0,.54-.21c.21-.3.27-1.29.39-3.93H389c-.42,2.79-1.47,4.83-3.45,6.12a5.37,5.37,0,0,0-1-1.26,6.66,6.66,0,0,0,2.85-4.86H385.7v-1.53Zm12.9-2.43H385.52v-1.83H394a18.41,18.41,0,0,0-.69-2.82l2-.27a20.25,20.25,0,0,1,.87,3.09h9Zm-5,16.2v-2.46H389.93v.27a13.91,13.91,0,0,1-.15,2.19Zm-7.08-13.05a9.57,9.57,0,0,0-1.32-2.49l1.26-.54a9.5,9.5,0,0,1,1.41,2.34Zm5.52-2.52a37,37,0,0,1-2.85,2.88v6.33h-1.71v-6.33a23.83,23.83,0,0,0,2.94-3.48Zm5.52,1.8a16.69,16.69,0,0,1-1.92.84c.6,2.16,1.59,4.23,3,5.22a5,5,0,0,0-1.05,1.2c-1.56-1.26-2.61-3.57-3.18-6-.6.18-1.2.33-1.74.48v3.78l2.4-.69a7.24,7.24,0,0,0,.24,1.26c-3.06,1-3.66,1.29-4,1.56v0a11.33,11.33,0,0,0-.75-1.47c.3-.21.66-.66.66-1.8v-3.63a20.64,20.64,0,0,0,4.92-1.83Z"/><path class="cls-1" d="M416.27,486.32c-1.23-.84-3.69-2.28-5.52-3.24l1.23-1.62c1.74.87,4.23,2.19,5.55,3Zm-4.8,12.09a86.64,86.64,0,0,0,5.67-9.6l1.62,1.47a108.84,108.84,0,0,1-5.43,9.63Zm6.3-20.22c-1.23-.87-3.72-2.31-5.55-3.3l1.23-1.59a54.82,54.82,0,0,1,5.61,3.09Zm12,5.61v4.92H436v11.43h-2.13V499H423.23v1.26h-2V488.72h6.45V483.8H419v-2.16h8.64v-4.86c-2.19.33-4.47.6-6.6.81a10.64,10.64,0,0,0-.6-1.89c5.16-.54,11.19-1.47,14.52-2.67l1.77,1.74a48.45,48.45,0,0,1-7,1.68v5.19H438v2.16Zm4.14,7H423.23V497h10.68Z"/><path class="cls-1" d="M469.85,479.87s0,.84,0,1.14c-.33,12.57-.6,16.74-1.62,18a2.37,2.37,0,0,1-2,1.11,20.7,20.7,0,0,1-3.63,0,6,6,0,0,0-.63-2.1c1.44.12,2.76.15,3.33.15a1.14,1.14,0,0,0,1.08-.48c.69-.87,1.05-4.83,1.35-15.72H463.4c-.36,8-1.74,14.52-7,18.48a7.58,7.58,0,0,0-1.65-1.59,15.6,15.6,0,0,0,1.32-1.05c-4.56.54-9.21,1.05-12.57,1.41l-.33-2c1.8-.15,4.05-.36,6.51-.6v-2.58H444v-1.71h5.67v-1.83h-5.61v-8.91h5.61v-1.89h-6.48V478h6.48v-2c-1.92.15-3.87.27-5.64.33a6.64,6.64,0,0,0-.54-1.65,93.73,93.73,0,0,0,12.93-1.47l1.11,1.71a57.33,57.33,0,0,1-5.85.87V478H458v1.74h-6.36v1.89h5.82v8.91h-5.82v1.83h5.88v1.71h-5.88v2.37c1.95-.18,4-.39,6-.63V496c2.61-3.54,3.39-8.37,3.66-14h-3.51v-2.1h3.57c.06-2.1.06-4.29.06-6.57h2.1c0,2.25,0,4.47-.06,6.57Zm-24,5.46h3.78v-2.16h-3.78Zm3.78,3.66V486.8h-3.78V489Zm2-5.82v2.16h3.93v-2.16Zm3.93,3.63h-3.93V489h3.93Z"/><path class="cls-1" d="M478.58,490.79c2.31-1,3.63-2.37,3.78-4.41a2.91,2.91,0,0,1-.51,0,2.06,2.06,0,0,1-2.25-2.13,2.11,2.11,0,0,1,2.28-2.16c1.65,0,2.55,1.35,2.55,3.45,0,3.24-2,5.7-5.19,6.81Z"/><path class="cls-1" d="M492.68,499.49c1.17-1.23,1.74-3.39,2-5.46l1.59.42c-.3,2.22-.75,4.53-2.07,5.85Zm.48-8.58c1.56-.06,3.48-.18,5.61-.27V488.3h-4.95v-1.77h4.95v-2.07H494V474h11.76v10.44h-5v2.07H506v1.77h-5.19v2.22c1.83-.09,3.75-.21,5.67-.33l-.06,1.8c-4.77.36-9.66.66-13.11.84Zm2.61-8.07H499v-7.2h-3.24Zm1.53-6a18.62,18.62,0,0,1,1,4.53l-1.2.33a18.13,18.13,0,0,0-.93-4.56ZM498.65,494a20.85,20.85,0,0,1,.81,5.16l-1.53.21a24.43,24.43,0,0,0-.72-5.22Zm2.82-.3a21.21,21.21,0,0,1,1.56,4.8l-1.53.33a19.78,19.78,0,0,0-1.44-4.83Zm2.52-18h-3.45v7.2H504Zm-3,5.85a41.3,41.3,0,0,0,1.29-4.77l1.32.48c-.54,1.56-1.11,3.48-1.62,4.68Zm3.3,11.52a20,20,0,0,1,2.58,4.47l-1.5.66a20.15,20.15,0,0,0-2.46-4.56ZM514,481.52v5.55h5.19v13.08H517v-1.29h-7.56v1.41h-2v-13.2h4.32V473H514v6.45h6.39v2.1Zm3.09,7.62h-7.56v7.71H517Z"/><path class="cls-1" d="M536.09,490.61c-.33,5.94-1.8,8.46-9.48,9.75a6.76,6.76,0,0,0-1.14-1.89c7-1,8.07-2.82,8.34-7.86Zm16-15.06v1.92H525.89v-1.92h12.93a14.79,14.79,0,0,0-1.23-2.25l2.22-.48a20.81,20.81,0,0,1,1.53,2.73Zm-25.86,11.61h25.44v5.4h-2.07V489H528.29v3.63h-2Zm21.75-8v6.12H530.12v-6.12Zm-2.31,1.62H532.31v2.88h13.41Zm3,17.16c.87,0,1-.48,1.14-3.27a7,7,0,0,0,2.07.87c-.24,3.45-.87,4.38-3,4.38h-4c-2.67,0-3.3-.66-3.3-2.88v-6.48H544v6.48c0,.78.21.9,1.26.9Z"/><path class="cls-1" d="M570.56,492.92l.39,1.92c-4.29,1.86-8.94,3.81-12.39,5.16l-1-2.19c2.16-.75,5.25-1.89,8.49-3.15v-12h-7.59V480.5H566v-7h2.28v20.31Zm10,4c1.35,0,1.53-1.44,1.71-7.17a6.22,6.22,0,0,0,2.13,1.08c-.24,6.15-.78,8.28-3.66,8.28h-4c-2.58,0-3.33-.87-3.33-4V473.51h2.25v7H584v2.19h-8.37v12.51c0,1.5.21,1.77,1.35,1.77Z"/><path class="cls-1" d="M616.82,476.06V478H590.69v-1.92H603c-.27-.87-.63-1.89-.93-2.73l2.16-.51c.42,1,.87,2.28,1.2,3.24Zm-1,21.9c0,1.08-.27,1.53-1.08,1.83a13.5,13.5,0,0,1-4,.27,6.72,6.72,0,0,0-.72-1.65c1.29.06,2.67,0,3,0s.51-.12.51-.48v-8.79H593.93V500.3h-2.16v-13h24.09Zm-3.24-18.3v6h-17.4v-6Zm-2.7,17.43H599.36v1.47h-2.07v-7.62h12.63Zm.42-15.78H597.41V484h12.93Zm-11,11.31v2.79h8.55v-2.79Z"/><path class="cls-1" d="M628.76,480.2c-1,5.73-2.49,10.65-4.89,14.31a12.79,12.79,0,0,0-1.86-1.32c2.31-3.18,3.72-7.77,4.59-13h-3.51v-2.13h3.84c.24-1.68.45-3.39.6-5.16l2.19.18c-.18,1.71-.39,3.36-.63,5h6.09v2.13Zm4.53,9.21a70.79,70.79,0,0,1,2.43,9.15l-1.83.63c-.09-.66-.24-1.44-.39-2.22-6.27,1.2-7.23,1.41-7.77,1.74a10.44,10.44,0,0,0-.69-2c.54-.15,1-1.08,1.59-2.4a55.62,55.62,0,0,0,3.45-10.8l2.13.57A68,68,0,0,1,627.89,496l5.16-.87c-.45-1.77-1-3.63-1.47-5.22Zm16.32,9.36H638.84v1.5h-2V482.39a28.33,28.33,0,0,1-2.13,3.12,9.75,9.75,0,0,0-1.35-1.68,31,31,0,0,0,5.34-10.77l1.92.48a42.36,42.36,0,0,1-1.89,5h10.5v2h-4.08v4.08h4v1.95h-4v4.08h4.05v1.92h-4.05v4.14h4.47Zm-10.77-18.21v4.08h4.26v-4.08Zm4.26,6h-4.26v4.08h4.26Zm-4.26,10.14h4.26v-4.14h-4.26Zm4.89-18.27a24,24,0,0,0-2-4.47l1.89-.66a23.38,23.38,0,0,1,2.16,4.35Z"/><path class="cls-1" d="M679.85,477.05a14.3,14.3,0,0,1-3.21,5.4,14.36,14.36,0,0,0,5.73,3,7.82,7.82,0,0,0-1.29,1.68,15.72,15.72,0,0,1-5.79-3.39,19,19,0,0,1-5.13,2.91,7.8,7.8,0,0,0-1.23-1.47v.36h-1.77a2.25,2.25,0,0,1-.54,1,1.45,1.45,0,0,1-.48.39c.72-.33,1.41-.66,2.07-1l1.35,1.23a41.7,41.7,0,0,1-5.16,2l5.28-.15c1.32-.6,2.64-1.2,3.87-1.86l1.23,1.38A76.32,76.32,0,0,1,664,492.86l11.43-.66c-.66-.54-1.38-1.05-2-1.5l1.44-.87a55.36,55.36,0,0,1,6.09,4.65l-1.53,1c-.54-.54-1.35-1.2-2.22-1.95l-7.38.48v4.14c0,1.11-.24,1.62-1.14,1.92a16.44,16.44,0,0,1-4.44.33,6.29,6.29,0,0,0-.78-1.86,29.26,29.26,0,0,0,3.63,0c.45,0,.57-.12.57-.45v-4c-8.4.54-9.51.66-10.23.93-.09-.39-.33-1.29-.51-1.8a20.06,20.06,0,0,0,3.93-.93c.84-.27,2.7-.87,4.92-1.74-5.13.18-5.91.3-6.39.45a13.74,13.74,0,0,0-.51-1.77,9.92,9.92,0,0,0,2.31-.48,32.24,32.24,0,0,0,4.53-1.71,2.16,2.16,0,0,1-.66.12c-.48,0-1.32,0-2.16-.06a3.62,3.62,0,0,0-.36-1.23c.84.06,1.56.09,1.89.09a.93.93,0,0,0,.78-.27,1.67,1.67,0,0,0,.15-.24h-8.58c.18-1,.36-2.31.54-3.69H655.1V480.5h2.4c.12-1.08.24-2.16.33-3.15a13.24,13.24,0,0,1-1.47,1.44,10.86,10.86,0,0,0-1.62-1.08,12.35,12.35,0,0,0,4-4.89l1.83.42c-.18.39-.36.75-.57,1.14h9.15v1.44H659a12,12,0,0,1-.93,1.23h10s0,.51-.06.75q-.09,1.53-.18,2.7h1.83v1.35h-2c-.09,1-.21,1.71-.3,2.34h1.44v1a17.6,17.6,0,0,0,5.1-2.73,16.62,16.62,0,0,1-2.28-3.54,14.42,14.42,0,0,1-1.53,1.74,11,11,0,0,0-1.47-1.41,12.92,12.92,0,0,0,3.75-6.3l1.92.36c-.21.72-.45,1.41-.72,2.1H682v1.68ZM664.46,496a31.3,31.3,0,0,1-7.53,3.87,13.68,13.68,0,0,0-1.65-1.5,26.81,26.81,0,0,0,7.23-3.18ZM659,481.76c-.09.87-.21,1.68-.3,2.43h4.77c-.72-.51-1.86-1.26-2.76-1.83l.57-.6Zm.36-3.42c-.06.72-.15,1.5-.24,2.25h4.77a21.74,21.74,0,0,0-2.73-1.68l.57-.57Zm6.36,5.85a22.89,22.89,0,0,0,.33-2.43h-4.26a28.88,28.88,0,0,1,2.61,1.65l-.66.78Zm.45-3.6q.09-1,.18-2.25h-4a23.35,23.35,0,0,1,2.43,1.38l-.69.87Zm7.92,14.4a41.75,41.75,0,0,1,7.41,3.36l-1.68,1.29a38.89,38.89,0,0,0-7.32-3.48Zm-1.26-17.85a13.5,13.5,0,0,0,2.49,4,11.14,11.14,0,0,0,2.46-4.11h-4.92Z"/><path class="cls-1" d="M702,492v2.52h10.74v1.89H702v4H699.8v-4H689.12v-1.89H699.8V492H687.62v-2H699.8v-7.92H688.37v-1.89h25.32v1.89H702V490h12.42v2Zm-7.29-14.88h-6.81v-2h6.81v-2.16h2.16v2.16h3.54v2h-3.54v2.28H694.7Zm.06,5.79V485h3.63V487h-3.63v2.28h-2.07V487H688.4V485h4.29v-2.13Zm10.2-5.79h-3.45v-2H705v-2.16h2.16v2.16h6.93v2h-6.93v2.28H705Zm2.34,12.15v-2.37h-3.72v-1.95h3.72v-2h2.07v2h4.17v1.95h-4.17v2.37Z"/><path class="cls-1" d="M724.49,491.9a23.76,23.76,0,0,1-3.09,6,15.82,15.82,0,0,0-1.56-1.08,16.51,16.51,0,0,0,2.82-5.4Zm3.69-2.1v10.41H726V489.8h-6v-1.92h6v-3.15h-6.12v-1.89h8.28a42.12,42.12,0,0,0,1.62-4.74l2,.42c-.54,1.44-1.11,3.06-1.68,4.32h3.81v1.89h-5.76v3.15h5.43v1.92Zm5.31-11.88H720.35v-1.86h5.88c-.39-.9-.9-1.92-1.32-2.73l2.16-.57a22.84,22.84,0,0,1,1.68,3.3h4.74Zm-10,4.8a21.34,21.34,0,0,0-1.14-4.17l1.77-.42a14.88,14.88,0,0,1,1.23,4.08Zm7.62,8.49a30.48,30.48,0,0,1,2.52,4.71l-1.59.9a31.75,31.75,0,0,0-2.46-4.8Zm16-6.15h-3.3v15.12h-2.16V485.06h-4.11v1.05c0,4.29-.39,10.17-3.12,14.07a7.38,7.38,0,0,0-1.71-1.35c2.52-3.6,2.76-8.73,2.76-12.72V475.79a47.34,47.34,0,0,0,9.33-2.34l1.8,1.65a48.39,48.39,0,0,1-9.06,2.16V483h9.57Z"/><path class="cls-1" d="M766.73,477.05c-.36,1.26-.78,2.61-1.17,3.75h12v19.53h-2.25v-1.59H756.17v1.59H754V480.8h9.27c.33-1.14.63-2.52.87-3.75H752.66v-2.13H779v2.13Zm-10.56,19.62h4.26v-13.8h-4.26Zm12.63-13.8h-6.33v3.3h6.33Zm0,5.13h-6.33v3.36h6.33Zm-6.33,8.67h6.33v-3.48h-6.33Zm12.87-13.8h-4.5v13.8h4.5Z"/><path class="cls-1" d="M795.17,474.41a32.25,32.25,0,0,1-9.78,4.17,7.07,7.07,0,0,0-1.14-1.59,32.25,32.25,0,0,0,9.57-4Zm1.59,4.95a22.51,22.51,0,0,1-4.62,3.63c4.26,5.28,3.93,14.16,1.74,16.17a3.64,3.64,0,0,1-2.91,1.17c-.6,0-1.5,0-2.4-.06a4.28,4.28,0,0,0-.48-2c1,.09,1.89.12,2.4.12a2,2,0,0,0,1.77-.63c.78-.69,1.32-3.06,1.11-5.85a34.52,34.52,0,0,1-7.83,5.55,6.39,6.39,0,0,0-1.23-1.65,25.3,25.3,0,0,0,8.76-6.15,16.53,16.53,0,0,0-.63-2.31,35.11,35.11,0,0,1-6.57,4.35,7.67,7.67,0,0,0-1.17-1.62,26.34,26.34,0,0,0,7-4.32,10.79,10.79,0,0,0-1.17-1.86,39.48,39.48,0,0,1-4.83,2.28,12.08,12.08,0,0,0-1.17-1.5c1.11-.45,2.22-.93,3.36-1.5a19.33,19.33,0,0,0-2.28-3.66l1.53-.72a18.05,18.05,0,0,1,2.34,3.54c.75-.45,1.5-.9,2.19-1.35a15.33,15.33,0,0,0-1.83-3.15l1.47-.72a15.14,15.14,0,0,1,1.8,2.85,17.2,17.2,0,0,0,2.16-1.92ZM809.39,498c.63,0,.72-.54.81-3.81a5.44,5.44,0,0,0,1.8.81c-.15,3.84-.66,4.83-2.37,4.83h-2.34c-2,0-2.46-.63-2.46-2.7v-8.46h-2.58c-.33,5.7-1.41,9.51-6.06,11.7a5.9,5.9,0,0,0-1.35-1.74c4.17-1.8,5-5,5.31-10h-3V476.48h5a24.53,24.53,0,0,0,.81-3.6l2.55.36c-.39,1.11-.78,2.28-1.14,3.24h6.27v12.15H806.9v8.49c0,.75.12.84.72.84Zm-10.11-16.32h9.12v-3.3h-9.12Zm0,5.13h9.12v-3.36h-9.12Z"/><path class="cls-1" d="M823.19,482.09a4.56,4.56,0,1,1-4.56,4.56A4.56,4.56,0,0,1,823.19,482.09Zm0,7.59a3,3,0,1,0-3-3A3,3,0,0,0,823.19,489.68Z"/><line class="cls-2" x1="69" y1="326.64" x2="436" y2="326.64"/></svg>