<svg id="圖層_3" data-name="圖層 3" xmlns="http://www.w3.org/2000/svg" viewBox="0 0 1125 1250"><defs><style>.cls-1{fill:#9fa0a0;}.cls-2{fill:#fff;}</style></defs><path class="cls-1" d="M1032.86,145.71l-.08.75h1.2v.47h-1.25l-.08.74h-4.45l.11-.74h-1.13v-.47h1.2l.12-.75ZM1033,148v2.55h-1.49a15.26,15.26,0,0,1,2.33.58l-.18.46a15,15,0,0,0-2.42-.7l.17-.34h-1.65l.25.33a8.86,8.86,0,0,1-2.45.71l-.27-.45a9.85,9.85,0,0,0,2.37-.59h-1.45V148Zm.91-1.9h-.55v-.83h-5.51v.83h-.55v-1.29h3a4.86,4.86,0,0,0-.23-.51l.58-.1a6,6,0,0,1,.23.61h3Zm-1.45,2.64v-.4h-3.7v.4Zm0,.71v-.38h-3.7v.38Zm0,.33h-3.7v.39h3.7Zm-2.22-2.49.07-.45h-1.43l-.08.45Zm.13-.79.07-.46H1029l-.08.46Zm.37.79h1.46l0-.45h-1.44Zm.13-.79h1.42l.06-.46h-1.4Z"/><path class="cls-1" d="M1037.31,150.38a6.19,6.19,0,0,1-2,1.12L1035,151a5.73,5.73,0,0,0,2-1Zm3.9-5.88v2.27h-2.47c.07.15.13.31.19.47h3.16v.48h-7v-.48h3.28a5.22,5.22,0,0,0-.26-.47h-2.14V144.5Zm-.08,3.65v1.61H1039v1.14c0,.44-.21.66-.61.66h-1l-.12-.53c.31,0,.6,0,.88,0s.24-.11.24-.31v-1h-2.3v-1.61Zm-.48-2.74V145h-4.15v.46Zm0,.43h-4.15v.48h4.15Zm-.08,2.76h-3.93v.71h3.93Zm1.63,2.37-.2.53a10.85,10.85,0,0,0-2.27-1l.24-.46A9.81,9.81,0,0,1,1042.2,151Z"/><path class="cls-1" d="M1045.62,148c-.31.16-.61.31-.92.44v2.36a.64.64,0,0,1-.72.72h-.69l-.13-.56.62,0a.3.3,0,0,0,.34-.34v-2c-.34.13-.69.26-1,.37l-.13-.58a11.51,11.51,0,0,0,1.18-.36v-1.84H1043v-.56h1.1v-1.44h.58v1.44h.88v.56h-.88v1.59c.32-.14.62-.3.92-.46Zm4.18,3.51h-.59v-.37h-2.58v.39h-.57v-6.06h1.2a8.51,8.51,0,0,0,.24-1.26l.59.08a9.77,9.77,0,0,1-.26,1.18h2Zm-.59-3.52v-2h-2.58v2Zm0,2.59v-2h-2.58v2Z"/><path class="cls-1" d="M1051.2,151.52l-.12-.54c.2,0,.39,0,.57,0s.25-.11.25-.33v-2.13l-.83.3-.13-.56q.49-.13,1-.3v-1.84h-.85v-.56h.85v-1.31h.56v1.31h.78v.56h-.78v1.61a6.86,6.86,0,0,0,.76-.4v.57a7.69,7.69,0,0,1-.76.38v2.51c0,.46-.2.69-.62.69Zm2.17-3.15v-.45h2.29v.45h-.21v3.24H1055V151c-.52.09-1.09.17-1.68.23l-.12-.44.47-.05v-2.35Zm4.5-3.82V145h-.56v1.91h.7v.45h-.7v.35h-.53v-.35h-3.28v-.45h.68V145h-.53v-.44Zm-3.76,3.82v.49h.87v-.49Zm.87,1.33v-.46h-.87v.46Zm0,.85v-.48h-.87v.61Zm1.8-5.14V145h-2.08v.42Zm0,.73v-.38h-2.08v.38Zm0,.76v-.41h-2.08v.41Zm-.92,1.47v-.45h2.28v.45h-.27v2.15h.34V151h-.34v.63h-.46V151h-1.69v-.46h.37v-2.15Zm.67,0v.48h.88v-.48Zm.88,1.3v-.45h-.88v.45Zm0,.85V150h-.88v.48Z"/><path class="cls-2" d="M760.23,593.5l-.08.75h1.2v.46H760.1l-.08.75h-4.46l.12-.75h-1.14v-.46h1.21l.12-.75Zm.11,2.32v2.55h-1.5a14.3,14.3,0,0,1,2.34.58l-.19.46a14.68,14.68,0,0,0-2.42-.7l.18-.34h-1.66l.25.33a8.75,8.75,0,0,1-2.45.71l-.26-.45a10.12,10.12,0,0,0,2.37-.59h-1.45v-2.55Zm.9-1.91h-.54v-.82h-5.52v.82h-.54v-1.28h3c-.08-.19-.16-.35-.24-.51l.58-.1a5.24,5.24,0,0,1,.23.61h3Zm-1.45,2.65v-.4h-3.7v.4Zm0,.71v-.38h-3.7v.38Zm0,.33h-3.7V598h3.7Zm-2.22-2.49.07-.45h-1.43l-.08.45Zm.13-.8.07-.45h-1.42l-.08.45Zm.38.8h1.45l.06-.45h-1.44Zm.12-.8h1.43l0-.45h-1.4Z"/><path class="cls-2" d="M764.68,598.17a6.37,6.37,0,0,1-2,1.12l-.32-.47a5.82,5.82,0,0,0,2-1Zm3.9-5.89v2.28H766.1c.07.15.14.31.2.47h3.16v.48h-7V595h3.28a5.22,5.22,0,0,0-.26-.47h-2.13v-2.28Zm-.08,3.66v1.61h-2.18v1.14c0,.44-.21.66-.62.66h-1l-.12-.53c.3,0,.6,0,.88,0s.24-.11.24-.31v-1h-2.31v-1.61ZM768,593.2v-.46h-4.15v.46Zm0,.43h-4.15v.48H768Zm-.08,2.76H764v.71h3.94Zm1.62,2.37-.2.53a10.49,10.49,0,0,0-2.26-1l.24-.46A9.73,9.73,0,0,1,769.56,598.76Z"/><path class="cls-2" d="M773,595.79c-.3.16-.61.32-.91.45v2.36a.64.64,0,0,1-.72.72h-.7l-.12-.56.62,0a.3.3,0,0,0,.33-.34v-2c-.34.13-.69.26-1,.37l-.14-.58a9.5,9.5,0,0,0,1.18-.37v-1.84h-1.1v-.55h1.1v-1.44h.59v1.44H773v.55h-.88v1.6c.31-.14.61-.3.91-.46Zm4.18,3.51h-.59v-.36H774v.39h-.58v-6.06h1.21a11.92,11.92,0,0,0,.24-1.27l.58.08a6.93,6.93,0,0,1-.26,1.19h2Zm-.59-3.51v-2H774v2Zm0,2.59v-2H774v2Z"/><path class="cls-2" d="M778.57,599.31l-.12-.54c.2,0,.39,0,.56,0s.26-.11.26-.33v-2.13l-.83.3-.14-.56c.34-.09.66-.19,1-.3V594h-.86v-.56h.86v-1.31h.56v1.31h.77V594h-.77v1.6c.25-.12.51-.24.76-.39v.57l-.76.38v2.51c0,.46-.21.69-.62.69Zm2.16-3.15v-.45H783v.45h-.21v3.24h-.47v-.63c-.53.09-1.1.17-1.69.23l-.12-.44.47,0v-2.35Zm4.5-3.82v.44h-.56v1.91h.7v.45h-.7v.35h-.52v-.35h-3.28v-.45h.68v-1.91H781v-.44Zm-3.75,3.82v.49h.87v-.49Zm.87,1.33V597h-.87v.47Zm0,.85v-.48h-.87v.6Zm1.8-5.15v-.41h-2.08v.41Zm0,.74v-.38h-2.08v.38Zm0,.76v-.41h-2.08v.41Zm-.92,1.47v-.45h2.28v.45h-.28v2.14h.34v.47h-.34v.63h-.46v-.63h-1.69v-.47h.37v-2.14Zm.67,0v.48h.87v-.48Zm.87,1.3V597h-.87v.45Zm0,.84v-.47h-.87v.47Z"/></svg>