<?xml version="1.0" encoding="utf-8"?>
<!-- Generator: Adobe Illustrator 25.0.0, SVG Export Plug-In . SVG Version: 6.00 Build 0)  -->
<svg version="1.1" id="圖層_3" xmlns="http://www.w3.org/2000/svg" xmlns:xlink="http://www.w3.org/1999/xlink" x="0px" y="0px"
	 viewBox="0 0 1125 2436" style="enable-background:new 0 0 1125 2436;" xml:space="preserve">
<style type="text/css">
	.st0{fill:#006837;}
	.st1{fill:#333333;}
	.st2{fill:#FFFFFF;}
</style>
<path class="st0" d="M199.3,1883l1.5-1.8c1.5,1.6,3.5,2.5,5.7,2.5c2.7,0,4.3-1.3,4.3-3.3s-1.5-2.8-3.4-3.6l-3-1.3
	c-1.9-0.8-4.2-2.3-4.2-5.3c0-3.2,2.7-5.5,6.5-5.5c2.3,0,4.5,0.9,6.1,2.6l-1.4,1.7c-1.2-1.2-2.9-1.9-4.7-1.9c-2.3,0-3.8,1.2-3.8,3
	s1.8,2.7,3.4,3.4l2.9,1.3c2.4,1,4.2,2.4,4.2,5.5c0,3.2-2.7,5.8-7,5.8C203.7,1886,201.2,1884.9,199.3,1883z"/>
<path class="st0" d="M216.9,1875.5c0-6.6,3.9-10.7,9.1-10.7c2.1,0,4.2,0.9,5.6,2.6l-1.4,1.7c-1-1.2-2.6-2-4.2-2
	c-3.9,0-6.5,3.2-6.5,8.3s2.5,8.4,6.4,8.4c1.8,0,3.6-0.9,4.8-2.3l1.4,1.6c-1.5,1.9-3.9,3-6.3,2.9
	C220.7,1886.1,216.9,1882.1,216.9,1875.5z"/>
<path class="st0" d="M236.4,1865.2h2.6v8.6h9.6v-8.6h2.6v20.5h-2.6v-9.7H239v9.7h-2.6L236.4,1865.2z"/>
<path class="st0" d="M256.2,1875.4c0-6.6,3.6-10.6,8.8-10.6s8.8,4,8.8,10.6s-3.6,10.7-8.8,10.7S256.2,1882,256.2,1875.4z
	 M271,1875.4c0-5.2-2.4-8.3-6.1-8.3s-6.1,3.2-6.1,8.3s2.4,8.4,6.1,8.4S271,1880.5,271,1875.4L271,1875.4z"/>
<path class="st0" d="M277.5,1875.4c0-6.6,3.6-10.6,8.8-10.6s8.8,4,8.8,10.6s-3.6,10.7-8.8,10.7S277.5,1882,277.5,1875.4z
	 M292.4,1875.4c0-5.2-2.4-8.3-6.1-8.3s-6.1,3.2-6.1,8.3s2.4,8.4,6.1,8.4S292.4,1880.5,292.4,1875.4z"/>
<path class="st0" d="M300,1865.2h2.6v18.3h9v2.2H300V1865.2z"/>
<path class="st1" d="M326.3,1861.1h1.1v28h-1.1V1861.1z"/>
<path class="st1" d="M348.6,1872.4c0.8,1,2.8,4.1,3.2,4.9l-1.1,1.5c-0.4-0.9-1.3-2.6-2.1-4v13.1h-1.9V1875c-0.7,2.6-1.8,5.2-3.2,7.6
	c-0.3-0.6-0.7-1.2-1.1-1.8c2-3.2,3.4-6.8,4.1-10.5H343v-1.9h3.7v-6h1.9v6h3.1v1.9h-3.1L348.6,1872.4z M363.3,1868.6
	c1.4,1.8,3.1,3.2,5.2,4.2c-0.5,0.4-0.9,0.9-1.3,1.5c-1.1-0.6-2-1.3-2.9-2.2v3.3h-8.9v-3.3c-0.9,0.8-1.9,1.6-3,2.2
	c-0.3-0.5-0.8-1-1.3-1.4c2-1.1,3.7-2.6,5-4.4h-4.1v-1.6h5.1c0.3-0.6,0.5-1.2,0.7-1.8c-1.6,0.1-3.3,0.2-4.8,0.2
	c-0.1-0.5-0.2-1-0.5-1.4c4.2-0.1,8.4-0.5,12.5-1.2l1.2,1.4c-2.1,0.4-4.3,0.7-6.5,0.9c-0.2,0.7-0.4,1.3-0.7,1.9h8.8v1.7L363.3,1868.6
	z M367.4,1885.7c0,1-0.2,1.5-0.9,1.8c-1.2,0.3-2.4,0.4-3.6,0.3c-0.1-0.6-0.4-1.2-0.7-1.7c1.3,0.1,2.5,0.1,2.8,0s0.5-0.1,0.5-0.4
	v-7.2h-11.3v9.4h-1.9v-11h15.1L367.4,1885.7z M357.8,1885.1v1.2h-1.6v-6.4h7.1v5.2H357.8z M358.2,1868.6c-0.3,0.6-0.7,1.2-1.1,1.7
	h5.4c-0.4-0.5-0.8-1.1-1.2-1.7H358.2z M362.4,1871.7h-5.3v2.4h5.3V1871.7z M357.8,1881.3v2.5h4v-2.5H357.8z"/>
<path class="st1" d="M382.8,1883.8c-4,1-8.1,1.9-11.2,2.5l-0.5-1.9c2.1-0.4,5-1,8.1-1.6l-1.4-0.4c0.5-1.9,1-3.7,1.3-5.7l2,0.5
	c-0.5,1.9-1.1,4-1.6,5.5l3.2-0.7L382.8,1883.8z M382.5,1865.8h-10.9v-1.9h10.9L382.5,1865.8z M381.8,1875.9h-9.5v-7.5h9.5V1875.9z
	 M374,1882.6c-0.1-1.8-0.5-3.5-1.1-5.2l1.7-0.4c0.7,1.6,1.1,3.4,1.2,5.2L374,1882.6z M379.9,1870.1h-5.8v4.1h5.8V1870.1z
	 M388.5,1884.2c-1.8,1.6-3.9,2.8-6.1,3.7c-0.4-0.5-0.9-0.9-1.4-1.4c2.1-0.7,4-1.9,5.7-3.3L388.5,1884.2z M387.9,1868.1
	c0.2-0.8,0.4-1.8,0.6-2.7h-5.3v-1.8h13.4v1.8h-5.8c-0.3,0.9-0.5,1.8-0.8,2.7h5.7v14.5H384v-14.5H387.9z M393.8,1869.8H386v2.7h7.8
	L393.8,1869.8z M393.8,1873.9H386v2.7h7.8L393.8,1873.9z M393.8,1878.2H386v2.8h7.8L393.8,1878.2z M392.4,1883.3
	c1.7,1,3.3,2.2,4.8,3.4l-1.6,1.1c-1.5-1.3-3-2.5-4.7-3.6L392.4,1883.3z"/>
<path class="st1" d="M424.1,1863.6v24.3h-2v-1.3h-19.2v1.3h-2v-24.3H424.1z M422.1,1884.8v-19.3h-19.2v19.3H422.1z M412.6,1880.5
	c-2.9,0.6-5.9,1.2-8.2,1.6l-0.3-1.6c2.1-0.3,5.2-0.9,8.4-1.4L412.6,1880.5z M419.5,1872.4c-0.6,2.5-1.7,4.8-3.1,6.9
	c0.6,1.5,1.4,2.4,2.3,2.6c0.4,0.1,0.7-1.1,0.9-2.9c0.4,0.4,0.8,0.7,1.3,0.9c-0.4,3.1-1.3,4.2-2.8,3.6c-1.3-0.4-2.4-1.4-2.9-2.7
	c-1.1,1.2-2.3,2.3-3.7,3.2c-0.4-0.5-0.8-0.9-1.2-1.3c1.6-0.9,3.1-2.2,4.2-3.7c-0.8-2.7-1.3-5.5-1.5-8.3h-8.6v-1.6h8.4
	c-0.1-1-0.2-2-0.2-3h1.8c0.1,1,0.1,2,0.2,3h6.1v1.6h-6c0.2,2.2,0.5,4.3,1,6.4c0.9-1.6,1.6-3.3,2.1-5.2L419.5,1872.4z M411.5,1872.5
	v5.4h-6.2v-5.4H411.5z M410,1873.8h-3.2v2.8h3.2L410,1873.8z M418.9,1868.8c-0.9-0.8-1.9-1.5-3-2l1-1c1.1,0.5,2.1,1.1,3,1.9
	L418.9,1868.8z"/>
<path class="st1" d="M452.1,1867.3v13.1H450v-1.6h-8v9.1h-2.2v-9.1h-8v1.7h-2v-13.2h10v-5h2.2v5H452.1z M439.8,1876.7v-7.4h-8v7.4
	H439.8z M450,1876.7v-7.4h-8v7.4H450z"/>
<path class="st1" d="M468.1,1877.5l-1.9,1.6c-1.9-2.3-3.9-4.3-6.2-6.2l1.8-1.6C464.1,1873.2,466.2,1875.3,468.1,1877.5z"/>
<path class="st1" d="M498,1884.3v2h-24.7v-2h6.8c0.6-2.6,1.1-5.8,1.7-9.2h-5.2v-2h5.5c0.3-2.1,0.6-4.1,0.9-6h-8v-2h21v2h-10.8
	c-0.3,1.9-0.6,4-0.9,6h7l0.4-0.1l1.6,0.2c-0.2,3.1-0.6,7.5-1,11.1L498,1884.3z M484,1875.1c-0.5,3.3-1.1,6.6-1.6,9.2h7.8
	c0.3-3,0.6-6.6,0.9-9.2H484z"/>
<path class="st1" d="M511.9,1877.8c-0.6-1-2-2.9-3.2-4.4v14.4h-2v-13.7c-1,3.1-2.6,6-4.6,8.6c-0.3-0.7-0.7-1.3-1.1-1.9
	c2.5-3.1,4.3-6.7,5.3-10.5h-4.6v-2h5v-6h2v6h4v2h-4v0.6c0.9,0.9,3.9,4.3,4.6,5.1L511.9,1877.8z M521.5,1870.3
	c1.2,4.4,3.4,8.9,5.6,11.3c-0.6,0.5-1.2,1-1.6,1.6c-2-2.8-3.5-5.9-4.6-9.2v13.8h-2v-13.7c-1.3,3.6-3.2,6.8-5.8,9.7
	c-0.4-0.6-0.8-1.3-1.2-1.8c3.1-3.3,5.3-7.3,6.5-11.6H514v-2h5v-6h2v6h5.3v2L521.5,1870.3z"/>
<path class="st1" d="M554.2,1863.6v24.3h-2v-1.3H533v1.3h-2v-24.3H554.2z M552.2,1884.8v-19.3H533v19.3H552.2z M542.7,1880.5
	c-2.9,0.6-5.9,1.2-8.2,1.6l-0.3-1.6c2.1-0.3,5.2-0.9,8.4-1.4L542.7,1880.5z M549.7,1872.4c-0.6,2.4-1.7,4.8-3.1,6.9
	c0.6,1.5,1.3,2.4,2.3,2.6c0.4,0.1,0.7-1.1,0.9-2.9c0.4,0.4,0.8,0.7,1.3,0.9c-0.4,3.1-1.3,4.2-2.8,3.6c-1.3-0.4-2.4-1.4-2.9-2.7
	c-1.1,1.2-2.3,2.3-3.7,3.2c-0.4-0.5-0.8-0.9-1.2-1.3c1.6-0.9,3.1-2.2,4.2-3.7c-0.8-2.7-1.3-5.5-1.5-8.3h-8.6v-1.6h8.4
	c-0.1-1-0.2-2-0.2-3h1.8c0.1,1,0.1,2,0.2,3h6.1v1.6h-6c0.2,2.2,0.5,4.3,1,6.4c0.9-1.6,1.6-3.3,2.1-5.2L549.7,1872.4z M541.7,1872.5
	v5.4h-6.2v-5.4H541.7z M540.2,1873.8H537v2.8h3.2L540.2,1873.8z M549.1,1868.8c-0.9-0.8-1.9-1.5-3-2l1-1c1.1,0.5,2.1,1.1,3,1.9
	L549.1,1868.8z"/>
<path class="st1" d="M565.2,1869.6c-0.9,4.1-2.5,9.1-5,12.2c-0.6-0.4-1.3-0.8-2-1.1c2.5-2.9,4-7.8,4.7-11.5L565.2,1869.6z
	 M572.4,1862.7v22.3c0,1.5-0.4,2.2-1.4,2.5c-1.8,0.4-3.6,0.5-5.3,0.4c-0.2-0.7-0.5-1.5-0.9-2.2c2,0.1,4,0,4.6,0s0.8-0.2,0.8-0.8
	v-22.2L572.4,1862.7z M578.8,1869c2.5,3.9,4.8,9,5.5,12.3l-2.2,0.9c-1.2-4.4-2.9-8.6-5.3-12.5L578.8,1869z"/>
<path class="st1" d="M596.7,1877.5l-1.9,1.6c-1.9-2.3-3.9-4.3-6.2-6.2l1.8-1.6C592.7,1873.2,594.8,1875.3,596.7,1877.5z"/>
<path class="st1" d="M626.3,1865.2v1.8H602v-1.8h11.4c-0.2-0.8-0.6-1.8-0.9-2.5l2-0.5c0.4,1,0.8,2.1,1.1,3L626.3,1865.2z
	 M625.4,1885.7c0,1-0.2,1.4-1,1.7c-1.2,0.3-2.5,0.3-3.7,0.2c-0.1-0.5-0.4-1.1-0.7-1.5c1.2,0.1,2.5,0,2.8,0s0.5-0.1,0.5-0.4v-8.2H605
	v10.4h-2v-12.1h22.5L625.4,1885.7z M622.4,1868.6v5.6h-16.2v-5.6H622.4z M619.9,1884.8h-9.8v1.4h-1.9v-7.1h11.8L619.9,1884.8z
	 M620.3,1870.1h-12.1v2.5h12.1L620.3,1870.1z M610.1,1880.7v2.6h8v-2.6H610.1z"/>
<path class="st1" d="M641.8,1871.2l1.3,0.5c-1.6,8.4-5.7,13.5-10.9,16.2c-0.4-0.6-0.9-1.2-1.4-1.7c2.8-1.3,5.2-3.3,6.9-5.8
	c-1.4-1.2-2.9-2.3-4.5-3.2c-0.6,0.7-1.2,1.4-1.9,2.1c-0.5-0.5-1-1-1.6-1.4c2.7-2.4,4.7-5.5,5.8-9l1.5,0.4v-2.5h-6.4v-1.9h6.5v-2.5h2
	v2.5h3.2v1.9H639v2.7h-1.7c-0.2,0.6-0.5,1.2-0.7,1.8h4.8L641.8,1871.2z M635.8,1873.2c-0.5,0.9-1,1.7-1.5,2.5c1.5,0.9,3,1.9,4.4,3
	c0.9-1.7,1.6-3.6,2-5.5L635.8,1873.2z M646.6,1866.8h-3.3v-1.9h3.3v-2.5h2v2.5h6.3v1.9h-6.3v2.7h-2V1866.8z M652.4,1885.5
	c1.1,0,1.3-0.5,1.4-3.1c0.6,0.4,1.2,0.6,1.9,0.8c-0.3,3.3-0.9,4.2-3.2,4.2h-5c-2.6,0-3.4-0.6-3.4-3.2v-13.3h9.9v7.9
	c0,1.1-0.2,1.6-1,1.9c-1.3,0.3-2.6,0.5-3.9,0.3c-0.1-0.6-0.3-1.3-0.6-1.8c1.4,0,2.6,0,3,0s0.5-0.1,0.5-0.4v-6h-5.9v11.4
	c0,1.1,0.2,1.2,1.6,1.2L652.4,1885.5z"/>
<path class="st1" d="M683.8,1883.6v2.1h-25v-2.1H670v-16.1h-9.8v-2.1h22.1v2.1h-10v16.1H683.8z"/>
<path class="st1" d="M712,1865.3v1.8h-24.4v-1.8h11.5c-0.3-0.8-0.7-1.8-1-2.6l1.9-0.5c0.4,1,0.9,2.2,1.2,3.1H712z M710.5,1885.5
	c0,1.1-0.3,1.6-1.1,1.9c-1.5,0.3-3.1,0.4-4.6,0.3c-0.1-0.6-0.3-1.1-0.6-1.6c1.7,0.1,3.3,0,3.8,0s0.6-0.1,0.6-0.6v-12.6h-5.7v1.8
	c0,0.6,0.1,0.8,0.5,0.8h2.5c0.5,0,1,0,1.5-0.1c0,0.5,0.1,1,0.1,1.5c-0.5,0.1-1.1,0.2-1.6,0.1H703c-1.7,0-2-0.7-2-2.4v-1.8h-3.2
	c-0.4,2.9-1.7,4.4-5.6,5.3c-0.2-0.5-0.6-1-1-1.4c3.3-0.6,4.4-1.7,4.8-3.9h-4.9v14.9h-2v-16.7h12.9c0.8-1.2,1.4-2.5,2-3.8l2.1,0.5
	c-0.7,1.1-1.4,2.3-2.2,3.3h6.3L710.5,1885.5z M695.3,1867.2c0.6,1,1.2,2,1.8,3.1l-1.8,0.7c-0.4-0.8-1.2-2.2-1.7-3.2L695.3,1867.2z
	 M696.4,1884.3v1.3h-1.8v-7.6h10.2v6.3H696.4z M696.4,1879.5v3.2h6.7v-3.2H696.4z"/>
<path class="st1" d="M725.4,1877.5l-1.9,1.6c-1.9-2.3-3.9-4.3-6.2-6.2l1.8-1.6C721.4,1873.2,723.5,1875.3,725.4,1877.5z"/>
<path class="st1" d="M739.8,1868.8h-9.6v-1.7h9.6V1868.8z M731.2,1872.4v-1.7h7.8v1.7H731.2z M739,1876h-7.8v-1.7h7.8V1876z
	 M739.2,1886.2H733v1.3h-1.8v-9.4h8L739.2,1886.2z M733,1879.8v4.6h4.5v-4.6H733z M735.1,1866.7c-0.6-1.3-1.2-2.5-2-3.7l1.5-0.8
	c0.8,1.1,1.5,2.3,2.1,3.6L735.1,1866.7z M746.6,1874.2c-0.5,1.3-1.1,2.6-1.8,3.8h9.6v9.7h-2v-1.1h-7.1v1.2h-1.9v-7.9
	c-0.8,1-1.7,2-2.7,2.8c-0.4-0.6-0.9-1.1-1.4-1.5c2.4-1.8,4.2-4.3,5.2-7.1h-4.8v-1.9h5.5c0.3-1,0.6-2,0.8-3.1l1.9,0.3
	c-0.2,1-0.5,1.9-0.7,2.8h8.4v1.9L746.6,1874.2z M743.3,1867.1h-3.3v-1.8h3.3v-2.9h2v2.9h2.2v1.8h-2.2v2.8h-2V1867.1z M745.3,1879.9
	v4.9h7.1v-4.9H745.3z M750.6,1867.1h-2.2v-1.8h2.2v-2.9h2v2.9h2.9v1.8h-2.9v2.8h-2V1867.1z"/>
<path class="st1" d="M769.2,1883c-2.6,2-5.4,3.6-8.5,4.8c-0.5-0.6-1.1-1.1-1.7-1.6c2.9-1.1,5.7-2.6,8.1-4.6L769.2,1883z
	 M780.6,1863.6v17.4h-18.1v-17.3L780.6,1863.6z M764.5,1868.8h13.9v-3.2h-13.9L764.5,1868.8z M764.5,1873.9h13.9v-3.3h-13.9
	L764.5,1873.9z M764.5,1879h13.9v-3.3h-13.9L764.5,1879z M775.3,1881.8c2.8,1.4,5.6,2.9,8.3,4.6l-1.8,1.5c-2.6-1.8-5.3-3.4-8.1-4.8
	L775.3,1881.8z"/>
<path class="st1" d="M811.2,1871.1c-0.2-0.2-0.5-0.4-0.8-0.6v15c0,1.1-0.2,1.7-1,2c-1.4,0.3-2.9,0.4-4.3,0.3
	c-0.2-0.6-0.4-1.2-0.6-1.7c1.6,0.1,3,0,3.5,0s0.6-0.1,0.6-0.6v-14.2h-7.6v16.4h-2v-16.4h-7.3v16.5h-1.9v-16.9l-1.1,0.6
	c-0.5-0.5-1-0.9-1.5-1.4c2.5-0.9,4.8-2.4,6.7-4.2l1.8,0.7c-1.1,1.2-2.4,2.2-3.8,3.1h7.2v-3.8h-11.1v-1.8h24.4v1.8h-6.4
	c2.4,1.1,4.8,2.5,7,4L811.2,1871.1z M797.7,1878.8c-0.4,0.9-0.8,1.8-1.3,2.7c0.6,0.5,1.2,1,1.8,1.6l-0.9,1.1c-0.5-0.5-1-1.1-1.6-1.5
	c-0.7,1.1-1.6,2-2.5,2.9c-0.4-0.3-0.7-0.6-1.2-0.8c1-0.8,1.9-1.8,2.6-2.9c-0.6-0.5-1.3-0.9-2-1.3l0.8-1c0.6,0.4,1.3,0.8,1.9,1.2
	c0.4-0.7,0.8-1.4,1.1-2.2L797.7,1878.8z M797.1,1877.2c-0.5-0.5-1-1-1.6-1.4c-0.7,0.9-1.4,1.7-2.3,2.5c-0.4-0.3-0.7-0.6-1.2-0.8
	c0.9-0.7,1.7-1.6,2.3-2.5c-0.6-0.4-1.3-0.8-1.9-1.1l0.8-1c0.6,0.3,1.2,0.6,1.8,1c0.4-0.6,0.8-1.3,1.1-2l1.3,0.3
	c-0.4,0.8-0.8,1.6-1.3,2.4c0.6,0.4,1.2,0.9,1.7,1.4L797.1,1877.2z M809.1,1869.7c-1.7-1-3.4-2-5.2-2.8l1.4-1.1h-4.5v3.8
	L809.1,1869.7z M806.7,1884c-0.5-0.5-1.1-1.1-1.7-1.5c-0.8,1.1-1.7,2.1-2.7,3c-0.3-0.3-0.7-0.6-1.2-0.8c1-0.8,2-1.8,2.7-2.9
	c-0.7-0.5-1.4-0.9-2.1-1.3l0.8-1c0.7,0.4,1.4,0.8,2,1.2c0.4-0.7,0.7-1.4,1-2.1l1.4,0.3c-0.4,0.9-0.8,1.7-1.3,2.5
	c0.6,0.5,1.2,1,1.8,1.5L806.7,1884z M806.5,1877.3c-0.5-0.5-1.1-1-1.7-1.5c-0.7,0.9-1.5,1.8-2.4,2.6c-0.3-0.3-0.7-0.6-1.1-0.8
	c0.9-0.7,1.7-1.6,2.4-2.5c-0.6-0.4-1.3-0.8-2-1.2l0.8-0.9c0.6,0.3,1.3,0.7,1.9,1.1c0.4-0.6,0.8-1.3,1.1-2l1.3,0.3
	c-0.4,0.8-0.8,1.6-1.3,2.4c0.6,0.5,1.2,1,1.8,1.5L806.5,1877.3z"/>
<path class="st1" d="M840.1,1869.8c-0.1,11.6-0.3,15.3-1,16.4c-0.4,0.6-1.1,1-1.8,1c-1.1,0.1-2.2,0.1-3.3,0c0-0.7-0.2-1.4-0.6-2
	c1.4,0.1,2.5,0.1,3,0.1c0.4,0.1,0.7-0.1,0.9-0.4c0.5-0.7,0.7-4.2,0.8-14.2h-3.9c-0.3,7.8-1.5,13.6-6.2,17.2
	c-0.4-0.6-0.9-1.1-1.5-1.5c0.8-0.6,1.6-1.2,2.2-2l-1.7,0.8c-0.1-0.4-0.2-1-0.4-1.6c-7.9,1.5-8.9,1.7-9.6,2.1c-0.2-0.7-0.5-1.4-0.8-2
	c0.7-0.1,1.4-1.1,2.5-2.5c1.6-2.2,3.1-4.4,4.4-6.7c-5,0.4-5.8,0.6-6.3,0.8l0,0c-0.1-0.4-0.5-1.5-0.7-2c0.5-0.1,1-0.9,1.6-2
	c1.6-2.8,2.8-5.8,3.8-8.9l2.1,0.8c-1.2,3.4-2.8,6.6-4.6,9.7l5.2-0.4c0.6-1.1,1.1-2.2,1.7-3.3l2,0.9c-2.2,4.5-4.9,8.8-8.1,12.8l6.2-1
	c-0.5-1.3-1.1-2.6-1.6-3.7l1.7-0.7c1.2,2.1,2.1,4.4,2.7,6.8c2.5-3.2,3.3-7.8,3.5-13.5h-3.9v-2h3.9c0-2,0-4.2,0-6.5h2
	c0,2.3,0,4.4-0.1,6.5h5.8L840.1,1869.8z"/>
<path class="st1" d="M869.6,1885.8h-11.7v2H856v-16.2c-0.6,0.9-1.2,1.7-1.8,2.5c-0.3-0.6-0.6-1.3-1-1.8v-0.1h-2.5v0.5
	c0.8,1,3.3,4.1,3.8,4.9l-1.2,1.7c-0.5-0.9-1.7-2.9-2.6-4.3v12.8h-2v-12.2c-0.9,2.6-2.1,5.1-3.7,7.4c-0.3-0.7-0.7-1.4-1.2-2
	c1.9-2.7,3.4-5.6,4.3-8.8h-3.8v-2h4.2v-4.5c-1.2,0.3-2.3,0.4-3.4,0.6c-0.1-0.6-0.3-1.1-0.6-1.7c2.8-0.4,5.5-1.2,8.1-2.2l1.3,1.7
	c-1.1,0.5-2.2,0.8-3.4,1.1v5h2.9v1.4c2-2.8,3.6-5.9,4.6-9.2l2,0.6c-0.5,1.5-1.1,2.9-1.8,4.3h10.8v1.9h-4.9v3.5h4.2v1.9h-4.2v3.6h4.2
	v1.9h-4.2v3.8h5.3L869.6,1885.8z M862.4,1869.2h-4.5v3.5h4.5V1869.2z M862.4,1874.7h-4.5v3.6h4.5V1874.7z M857.9,1883.9h4.5v-3.8
	h-4.5V1883.9z M863.3,1867.1c-0.5-1.4-1.1-2.7-1.9-4l1.7-0.7c0.8,1.2,1.5,2.5,2,3.8L863.3,1867.1z"/>
<path class="st1" d="M897.1,1863.5v24.3H895v-1.2h-19.2v1.2h-2v-24.3H897.1z M895,1884.8v-19.3h-19.2v19.3H895z M886.3,1881.3
	c0,0.4,0,0.9,0,1.3c-5.2,1.4-5.9,1.6-6.3,1.9c-0.1-0.5-0.3-0.9-0.6-1.3c0.7-0.2,1.1-0.8,1.1-1.5v-2.1c-1,0.4-2,0.7-3,1
	c-0.3-0.4-0.7-0.8-1.1-1.2c2.2-0.5,4.4-1.2,6.4-2.3H879v-4.1h13v4.2h-6.7c-1,0.7-2,1.3-3.1,1.8v3.3L886.3,1881.3z M893.6,1871.9
	h-16.4v-1.3h7.2v-1.7h-5.6v-1.3h5.6v-1.6h1.9v1.6h5.8v1.3h-5.8v1.7h7.3L893.6,1871.9z M880.8,1876h9.3v-1.9h-9.3V1876z
	 M893.6,1878.6c-1,0.7-2,1.3-3.1,1.8c1.3,0.9,2.4,1.7,3.2,2.4l-1.4,1c-2.4-2-4.9-3.7-7.5-5.2l1.3-0.8c1,0.6,2.1,1.2,3.2,1.9
	c1-0.6,2-1.2,3-1.9L893.6,1878.6z"/>
<path class="st0" d="M199.3,1933.9l1.5-1.8c1.5,1.6,3.5,2.5,5.7,2.5c2.7,0,4.3-1.3,4.3-3.3s-1.5-2.8-3.4-3.6l-3-1.3
	c-1.9-0.8-4.2-2.3-4.2-5.3c0-3.2,2.7-5.5,6.5-5.5c2.3,0,4.5,0.9,6.1,2.6l-1.4,1.7c-1.2-1.2-2.9-1.9-4.7-1.9c-2.3,0-3.8,1.2-3.8,3
	s1.8,2.7,3.4,3.4l2.9,1.3c2.4,1,4.2,2.4,4.2,5.5c0,3.2-2.7,5.8-7,5.8C203.7,1937,201.2,1935.9,199.3,1933.9z"/>
<path class="st0" d="M218.1,1916.1h2.6v8.6h9.6v-8.6h2.6v20.5h-2.6v-9.7h-9.6v9.7H218L218.1,1916.1z"/>
<path class="st0" d="M237.8,1926.3c0-6.6,3.6-10.6,8.8-10.6s8.8,4,8.8,10.6s-3.6,10.7-8.8,10.7S237.8,1932.9,237.8,1926.3z
	 M252.6,1926.3c0-5.2-2.4-8.3-6.1-8.3s-6.1,3.2-6.1,8.3s2.4,8.4,6.1,8.4S252.6,1931.4,252.6,1926.3z"/>
<path class="st0" d="M260.3,1916.1h5.8c4.6,0,7.7,1.5,7.7,6c0,4.3-3.1,6.3-7.5,6.3h-3.4v8.1h-2.6V1916.1z M265.9,1926.4
	c3.6,0,5.3-1.3,5.3-4.2s-1.8-3.9-5.4-3.9h-2.9v8.2H265.9z"/>
<path class="st1" d="M289.1,1912h1.1v28h-1.1V1912z"/>
<path class="st1" d="M311.4,1923.3c0.8,1,2.8,4.1,3.2,4.9l-1.1,1.5c-0.4-0.9-1.3-2.6-2.1-4v13.1h-1.9V1926c-0.7,2.6-1.8,5.2-3.2,7.6
	c-0.3-0.6-0.7-1.2-1.1-1.8c2-3.2,3.4-6.8,4.1-10.5h-3.5v-1.9h3.7v-6h1.9v6h3.1v1.9h-3.1V1923.3z M326.1,1919.5
	c1.4,1.8,3.1,3.2,5.2,4.2c-0.5,0.4-1,0.9-1.3,1.5c-1.1-0.6-2-1.3-2.9-2.2v3.3h-8.9v-3.3c-0.9,0.9-1.9,1.6-3,2.2
	c-0.3-0.5-0.8-1-1.3-1.4c2-1.1,3.7-2.6,5-4.4h-4.1v-1.7h5.1c0.3-0.6,0.5-1.2,0.7-1.8c-1.6,0.1-3.3,0.2-4.8,0.2
	c-0.1-0.5-0.3-1-0.5-1.4c4.2-0.1,8.4-0.5,12.6-1.2l1.2,1.4c-2.1,0.4-4.3,0.8-6.5,0.9c-0.2,0.7-0.4,1.3-0.7,1.9h8.8v1.7L326.1,1919.5
	z M330.2,1936.6c0,1-0.2,1.5-0.9,1.8c-1.2,0.3-2.4,0.4-3.6,0.3c-0.1-0.6-0.4-1.2-0.7-1.7c1.3,0.1,2.5,0.1,2.8,0s0.5-0.1,0.5-0.4
	v-7.2H317v9.4h-1.9v-11h15.1L330.2,1936.6z M320.6,1936v1.2h-1.6v-6.4h7.1v5.2L320.6,1936z M321,1919.5c-0.3,0.6-0.7,1.2-1.1,1.7
	h5.4c-0.4-0.5-0.8-1.1-1.2-1.7H321z M325.2,1922.6H320v2.4h5.3L325.2,1922.6z M320.6,1932.2v2.5h4v-2.5H320.6z"/>
<path class="st1" d="M345.6,1934.7c-3.9,1-8.1,1.9-11.2,2.5l-0.5-1.9c2.1-0.4,5-1,8.1-1.6l-1.4-0.4c0.5-1.9,1-3.7,1.3-5.7l2,0.5
	c-0.5,1.9-1.1,4.1-1.6,5.5l3.2-0.7L345.6,1934.7z M345.3,1916.7h-10.9v-1.9h10.9L345.3,1916.7z M344.6,1926.8h-9.5v-7.5h9.5V1926.8z
	 M336.8,1933.5c-0.1-1.8-0.4-3.5-1.1-5.2l1.7-0.4c0.7,1.6,1.1,3.4,1.2,5.2L336.8,1933.5z M342.7,1921h-5.8v4h5.8V1921z
	 M351.3,1935.1c-1.8,1.6-3.9,2.8-6.1,3.7c-0.4-0.5-0.9-0.9-1.4-1.4c2.1-0.7,4-1.8,5.7-3.3L351.3,1935.1z M350.7,1919
	c0.2-0.8,0.4-1.8,0.6-2.7H346v-1.8h13.4v1.8h-5.8c-0.3,0.9-0.5,1.8-0.8,2.7h5.7v14.5h-11.7V1919L350.7,1919z M356.6,1920.7h-7.8v2.7
	h7.8V1920.7z M356.6,1924.8h-7.8v2.7h7.8V1924.8z M356.6,1929.1h-7.8v2.8h7.8V1929.1z M355.2,1934.2c1.7,1,3.3,2.2,4.8,3.4l-1.6,1.1
	c-1.5-1.3-3-2.5-4.7-3.6L355.2,1934.2z"/>
<path class="st1" d="M377.2,1924.7c-1.5,1.2-3.1,2.3-4.8,3.3v1.2h12.3v1.8h-12.3v3.9c0,1.1,0.5,1.3,2.8,1.3h8c2,0,2.3-0.6,2.5-3.7
	c0.6,0.4,1.3,0.6,2,0.8c-0.4,3.9-1.1,4.8-4.5,4.8h-8.1c-3.8,0-4.9-0.6-4.9-3.2v-5.8c-2.1,1.2-4.3,2.2-6.5,3.1
	c-0.5-0.6-1-1.2-1.5-1.8c4-1.5,7.8-3.4,11.4-5.8h-10.9v-1.9h9.5v-3.8h-7.1v-1.9h7.1v-3.8h2.1v3.8h7v1.3c1.2-1.2,2.3-2.6,3.3-3.9
	l1.9,1c-2,2.7-4.3,5.2-6.9,7.4h8.1v1.9L377.2,1924.7z M376.4,1922.7c1.5-1.2,3-2.4,4.3-3.8h-6.4v3.8H376.4z"/>
<path class="st1" d="M398.4,1919.4c-0.7,1.4-1.5,2.8-2.4,4.1v15.2h-1.9v-12.7c-0.8,0.9-1.6,1.7-2.5,2.5c-0.4-0.6-0.8-1.3-1.2-1.8
	c2.6-2.2,4.7-4.9,6.2-7.9L398.4,1919.4z M397.6,1913.9c-1.5,2.5-3.4,4.6-5.7,6.4c-0.3-0.5-0.7-1-1.2-1.5c2-1.5,3.7-3.4,5-5.6
	L397.6,1913.9z M409,1935.3c-4.1,0.6-8.3,1.1-11.4,1.5l-0.2-1.9c1.3-0.1,3-0.3,4.8-0.5v-4.3h-4.1v-1.8h4.1v-3.4h2v3.4h4.1v1.8h-4.1
	v4.1l4.8-0.6L409,1935.3z M402.2,1918.6h-3.7v-1.8h3.7v-3.5h2v3.5h3.8v1.8h-3.8v3.7h4.2v1.8H398v-1.8h4.3L402.2,1918.6z
	 M416.6,1924.2H414v12c0,1.2-0.2,1.8-1,2.1c-1.4,0.4-2.8,0.5-4.2,0.4c-0.1-0.7-0.3-1.4-0.6-2.1c1.5,0.1,2.9,0.1,3.3,0
	s0.5-0.1,0.5-0.5v-12h-3v-1.9h7.6L416.6,1924.2z M416.2,1916.7h-7v-1.9h7V1916.7z"/>
<path class="st1" d="M429.4,1928.4l-1.9,1.6c-1.9-2.3-3.9-4.3-6.2-6.2l1.8-1.6C425.4,1924.1,427.5,1926.2,429.4,1928.4z"/>
<path class="st1" d="M440,1923.3c0.8,1,2.8,4.1,3.2,4.9l-1.1,1.5c-0.4-0.9-1.3-2.6-2.1-4v13.1h-1.9V1926c-0.7,2.6-1.8,5.2-3.2,7.6
	c-0.3-0.6-0.7-1.2-1.1-1.8c2-3.2,3.4-6.8,4.1-10.5h-3.5v-1.9h3.7v-6h1.9v6h3.1v1.9H440V1923.3z M454.7,1919.5
	c1.4,1.8,3.1,3.2,5.2,4.2c-0.5,0.4-1,0.9-1.3,1.5c-1.1-0.6-2-1.3-2.9-2.2v3.3h-8.9v-3.3c-0.9,0.9-1.9,1.6-3,2.2
	c-0.3-0.5-0.8-1-1.3-1.4c2-1.1,3.7-2.6,5-4.4h-4.1v-1.7h5.1c0.3-0.6,0.5-1.2,0.7-1.8c-1.6,0.1-3.3,0.2-4.8,0.2
	c-0.1-0.5-0.3-1-0.5-1.4c4.2-0.1,8.4-0.5,12.6-1.2l1.2,1.4c-2.1,0.4-4.3,0.8-6.5,0.9c-0.2,0.7-0.4,1.3-0.7,1.9h8.8v1.7H454.7z
	 M458.8,1936.6c0,1-0.2,1.5-0.9,1.8c-1.2,0.3-2.4,0.4-3.6,0.3c-0.1-0.6-0.4-1.2-0.7-1.7c1.3,0.1,2.5,0.1,2.8,0s0.5-0.1,0.5-0.4v-7.2
	h-11.2v9.4h-1.9v-11h15.1L458.8,1936.6z M449.2,1936v1.2h-1.5v-6.4h7.1v5.2L449.2,1936z M449.6,1919.5c-0.3,0.6-0.7,1.2-1.1,1.7h5.5
	c-0.4-0.5-0.8-1.1-1.2-1.7H449.6z M453.9,1922.6h-5.3v2.4h5.3V1922.6z M449.2,1932.2v2.5h4v-2.5H449.2z"/>
<path class="st1" d="M474.3,1934.7c-3.9,1-8.1,1.9-11.2,2.5l-0.5-1.9c2.1-0.4,5-1,8.1-1.6l-1.4-0.4c0.5-1.9,1-3.7,1.3-5.7l2,0.5
	c-0.5,1.9-1.1,4.1-1.6,5.5l3.2-0.7L474.3,1934.7z M473.9,1916.7H463v-1.9h10.9L473.9,1916.7z M473.3,1926.8h-9.5v-7.5h9.5V1926.8z
	 M465.5,1933.5c-0.1-1.8-0.5-3.5-1.1-5.2l1.7-0.4c0.7,1.6,1.1,3.4,1.2,5.2L465.5,1933.5z M471.4,1921h-5.8v4h5.8V1921z
	 M479.9,1935.1c-1.8,1.6-3.9,2.8-6.1,3.7c-0.4-0.5-0.9-1-1.4-1.4c2.1-0.7,4-1.8,5.7-3.3L479.9,1935.1z M479.4,1919
	c0.2-0.8,0.4-1.8,0.6-2.7h-5.3v-1.8H488v1.8h-5.8c-0.3,0.9-0.5,1.8-0.8,2.7h5.7v14.5h-11.7V1919L479.4,1919z M485.2,1920.7h-7.8v2.7
	h7.8V1920.7z M485.2,1924.8h-7.8v2.7h7.8V1924.8z M485.2,1929.1h-7.8v2.8h7.8V1929.1z M483.9,1934.2c1.7,1,3.3,2.2,4.8,3.4l-1.6,1.1
	c-1.5-1.3-3-2.5-4.7-3.6L483.9,1934.2z"/>
<path class="st1" d="M500,1918.9c-0.7,1.7-1.6,3.4-2.6,5v14.8h-2v-12c-0.9,1.2-2,2.3-3.1,3.3c-0.5-0.6-1-1.1-1.6-1.6
	c3.2-2.8,5.7-6.3,7.3-10.2L500,1918.9z M516.1,1918.3h-24.4v-2h11.8c-0.4-0.8-1-1.8-1.5-2.6l1.9-0.6c0.7,1,1.3,2.1,1.9,3.3h10.4
	L516.1,1918.3z M515.4,1922c-1,4.1-3.1,7.9-6.1,10.9c2.3,1.9,4.9,3.3,7.7,4.1c-0.6,0.5-1,1.1-1.4,1.8c-2.8-1-5.4-2.5-7.7-4.6
	c-2.4,2-5.1,3.5-8.1,4.5c-0.3-0.6-0.8-1.2-1.3-1.7c2.9-0.9,5.6-2.3,7.9-4.2c-1.6-1.7-2.9-3.6-3.9-5.7c-0.8,0.9-1.7,1.8-2.6,2.6
	c-0.4-0.5-0.9-1-1.5-1.4c3.2-2.7,5.7-6.2,7.2-10.1l2,0.6c-0.4,0.9-0.8,1.8-1.3,2.6h7.4l0.4-0.1L515.4,1922z M505.4,1923.3
	c-0.5,0.8-1,1.6-1.6,2.4c1,2.2,2.4,4.2,4.1,5.9c2.3-2.3,4.1-5.2,5.1-8.3H505.4z M508.8,1928.5c-0.9-1.2-2-2.3-3.2-3.3l1.3-1
	c1.2,0.9,2.3,2,3.3,3.2L508.8,1928.5z"/>
<path class="st1" d="M533.4,1919.3v3.8h9.1v9.8c0,1.2-0.3,1.8-1.2,2.2c-1.6,0.3-3.3,0.5-4.9,0.4c-0.1-0.7-0.4-1.4-0.7-2.1
	c1.9,0.1,3.6,0.1,4,0.1s0.6-0.2,0.6-0.6v-7.7h-7v13.6h-2.1v-13.6h-6.5v10.4h-2.1v-12.4h8.6v-3.8H520v-2h11.9
	c-0.5-1.3-1.2-2.5-1.8-3.7l2-0.6c0.9,1.3,1.6,2.7,2.2,4.1l-0.4,0.1H545v2L533.4,1919.3z"/>
<path class="st1" d="M558,1928.4l-1.9,1.6c-1.9-2.3-3.9-4.3-6.2-6.2l1.8-1.6C554,1924.1,556.1,1926.2,558,1928.4z"/>
<path class="st1" d="M576.6,1914c3,4.2,7.1,7.4,11.8,9.5c-0.5,0.6-1,1.2-1.4,1.8c-4.5-2.2-8.4-5.4-11.5-9.3
	c-3.2,3.8-7.1,7.1-11.5,9.5c-0.3-0.6-0.8-1.2-1.3-1.7c3.9-2,7.4-4.6,10.4-7.9h-5v-2L576.6,1914z M576.5,1936.1h10.9v1.9h-23.6v-1.9
	h10.6v-4.6h-7.8v-1.8h7.8v-4.3h-6.6v-1.9h15.6v1.9h-6.9v4.3h8v1.8h-8L576.5,1936.1z"/>
<path class="st1" d="M599.6,1916.3v22.5h-1.8v-5.2c-2.2,0.4-4.4,0.8-6.2,1.1l-0.4-1.9c0.5-0.1,1.1-0.2,1.7-0.2v-16.2h-1.4v-1.9h9.2
	v1.9L599.6,1916.3z M597.8,1916.3h-3.2v3.9h3.2V1916.3z M597.8,1922h-3.2v4h3.2V1922z M597.8,1931.8v-4.1h-3.2v4.6L597.8,1931.8z
	 M607.1,1921.8c0.6,1.5,1,3,1.4,4.6l-1.4,0.4c-0.1-0.4-0.2-0.9-0.4-1.5c-4.9,0.6-5.6,0.8-6,1c-0.1-0.6-0.3-1.3-0.5-1.9
	c0.5-0.1,1-0.6,1.6-1.3c0.4-0.4,1.1-1.3,2-2.5c-2.1,0.2-2.5,0.3-2.8,0.4c-0.1-0.7-0.3-1.3-0.5-1.9c0.4-0.1,0.7-0.4,1.1-1
	c1.1-1.4,1.9-3,2.6-4.7l1.6,0.7c-0.9,1.8-1.9,3.5-3.1,5.1l2.2-0.1c0.5-0.8,1-1.6,1.4-2.4l1.5,0.8c-1.4,2.4-3.1,4.7-5,6.9l3.6-0.4
	c-0.2-0.6-0.4-1.3-0.6-1.8L607.1,1921.8z M605.9,1927h1.8v4.3c0.2,3.3-1.8,6.4-4.8,7.7c-0.3-0.5-0.7-1-1.2-1.4
	c2.6-1.2,3.6-2.8,4-4.4h-3.9v-6.1h1.7v4.4h2.4L605.9,1927L605.9,1927z M615.2,1921.5c0.7,1.5,1.3,3.1,1.8,4.7l-1.3,0.5
	c-0.1-0.5-0.3-1-0.5-1.5c-4.9,0.7-5.6,0.8-6.1,1.1c-0.1-0.6-0.3-1.2-0.5-1.8c0.4-0.1,0.9-0.6,1.5-1.3c0.3-0.4,1-1.4,1.8-2.6
	c-1,0-2,0.2-3,0.4c-0.1-0.6-0.3-1.2-0.5-1.8c0.5-0.2,0.8-0.5,1.1-0.9c1-1.4,1.8-2.9,2.5-4.6l1.5,0.7c-0.8,1.7-1.7,3.3-2.9,4.8
	l2.2-0.1c0.4-0.7,0.8-1.5,1.2-2.2l1.5,0.8c-1.2,2.4-2.6,4.6-4.3,6.7l3.6-0.4c-0.2-0.7-0.5-1.3-0.8-1.9L615.2,1921.5z M613.7,1927.2
	h1.7v7h-1.7v-1.1h-2.4v5.7h-1.8V1927h1.8v4.3h2.4V1927.2z"/>
<path class="st1" d="M629.6,1928.4l-1.9,1.6c-1.9-2.3-3.9-4.3-6.2-6.2l1.8-1.6C625.6,1924.1,627.7,1926.2,629.6,1928.4z"/>
<path class="st1" d="M648,1919.3v3.8h9.1v9.8c0,1.2-0.3,1.8-1.2,2.2c-1.6,0.3-3.3,0.5-4.9,0.4c-0.1-0.7-0.4-1.4-0.7-2.1
	c1.9,0.1,3.6,0.1,4.1,0.1s0.6-0.2,0.6-0.6v-7.7h-7v13.6h-2.1v-13.6h-6.5v10.4h-2.1v-12.4h8.6v-3.8h-11.3v-2h11.9
	c-0.5-1.3-1.2-2.5-1.8-3.7l2-0.6c0.9,1.3,1.6,2.7,2.2,4.1l-0.4,0.1h11.1v2L648,1919.3z"/>
<path class="st1" d="M671.7,1929.6c-2.8,1.4-5.9,2.9-8.2,4l-0.8-2c1.1-0.4,2.4-1,3.8-1.7v-8.8h-3.3v-2h3.3v-5.8h1.9v5.8h3v2h-3v7.8
	l2.9-1.3L671.7,1929.6z M676.9,1926.4c-0.4,0.7-0.8,1.4-1.2,2h12c0,0,0,0.6-0.1,0.8c-0.4,5.8-0.9,8-1.7,8.8c-0.4,0.4-1,0.7-1.6,0.7
	c-0.6,0-1.7,0-2.8,0c0-0.6-0.2-1.2-0.5-1.7c1,0.1,2,0.1,2.4,0.1s0.7,0,0.8-0.3c0.5-0.5,0.9-2.3,1.3-6.7h-2.2
	c-1.1,3.3-3.3,6.9-5.7,8.8c-0.4-0.5-0.9-0.9-1.5-1.2c2.3-1.5,4.3-4.5,5.5-7.6H679c-1.6,3-3.9,5.6-6.8,7.6c-0.4-0.5-0.8-0.9-1.4-1.3
	c2.6-1.5,4.7-3.7,6.3-6.3h-2.8c-1.1,1.2-2.3,2.3-3.6,3.2c-0.4-0.5-0.9-0.9-1.4-1.3c2.3-1.4,4.2-3.3,5.5-5.6h-3.9v-1.8h17.5v1.8
	L676.9,1926.4z M686.4,1923.1h-12.8v-9h12.8L686.4,1923.1z M684.5,1915.6h-9v2.2h9V1915.6z M684.5,1919.3h-9v2.2h9V1919.3z"/>
<path class="st1" d="M701.2,1928.4l-1.9,1.6c-1.9-2.3-3.9-4.3-6.2-6.2l1.8-1.6C697.2,1924.1,699.3,1926.2,701.2,1928.4z"/>
<path class="st1" d="M712.8,1926.6c-0.5,2.5-1.3,4.9-2.3,7.2c0.6,0.3,1.2,0.8,2.2,1.5c2,1.2,4.5,1.4,7.8,1.4c3.6,0,8.1-0.3,11.2-0.6
	c-0.3,0.7-0.5,1.4-0.6,2.2c-2.1,0.1-7.3,0.3-10.7,0.3c-3.7,0-6.1-0.3-8.2-1.5c-1.2-0.7-2.2-1.6-2.8-1.6s-1.6,1.8-2.4,3.5l-1.4-1.9
	c0.8-1.2,1.7-2.2,2.8-3.1c0.9-1.8,1.6-3.8,2-5.8h-3.6c0.8-1.7,1.6-4,2.4-6.2h-3.1v-1.8h5.7c-0.7,2-1.6,4.4-2.3,6.3h1.9l0.4-0.1
	L712.8,1926.6z M709,1918.5c-0.3-1.2-1-3.2-1.4-4.6l1.8-0.5c0.5,1.5,1.1,3.3,1.5,4.5L709,1918.5z M720.7,1932.3h-7.5v-1.8h7.5v-2
	h-6.2v-9h6.2v-2.1h-7.5v-1.8h7.5v-2.5h2v2.5h7.9v1.8h-7.9v2.1h6.5v9h-6.5v2h8.3v1.8h-8.3v3.3h-2V1932.3z M716.4,1923.3h4.3v-2.2
	h-4.3V1923.3z M720.7,1927.1v-2.2h-4.3v2.2L720.7,1927.1z M722.7,1921.2v2.2h4.5v-2.2H722.7z M727.2,1924.8h-4.5v2.2h4.5V1924.8z"/>
<path class="st1" d="M745.4,1935.5c-3.5,0.8-7.3,1.7-10,2.3l-0.5-1.8c1.2-0.2,2.9-0.6,4.7-0.9v-8h-4.4v-1.8h4.4v-3h-2.7v-1.5
	c-0.5,0.5-1.1,1-1.7,1.5c-0.3-0.7-0.6-1.4-0.9-2c2.5-1.8,4.7-4.2,6.2-6.9l1.7,0.7c-0.2,0.4-0.5,0.8-0.7,1.2c1.7,1.1,3.3,2.4,4.8,3.7
	l-1,1.7c-1.5-1.4-3.1-2.7-4.8-3.9c-1,1.4-2.1,2.7-3.3,3.8h7.3v1.8h-3v3h3.8v1.8h-3.8v7.7c1.3-0.3,2.6-0.6,3.9-0.8L745.4,1935.5z
	 M737,1928.5c0.6,1.7,1,3.4,1.2,5.2l-1.5,0.4c-0.2-1.8-0.6-3.5-1.1-5.2L737,1928.5z M742.2,1933.2c0.6-1.7,1-3.4,1.4-5.1l1.6,0.5
	c-0.6,1.7-1.2,3.8-1.7,5.1L742.2,1933.2z M751.6,1934.5c-1.6,1.9-3.6,3.4-5.8,4.5c-0.5-0.5-1-0.9-1.5-1.3c2.1-0.8,3.9-2.1,5.5-3.8
	L751.6,1934.5z M748,1919.8c-0.6-1.7-1.4-3.4-2.3-5l1.7-0.6c1,1.5,1.8,3.2,2.4,4.9L748,1919.8z M751.3,1920.1v-6.9h1.9v6.9h5.3v13.2
	h-12v-13.2H751.3z M756.5,1921.8h-8.2v2.2h8.2V1921.8z M756.5,1925.6h-8.2v2.3h8.2V1925.6z M756.5,1929.4h-8.2v2.3h8.2V1929.4z
	 M754.9,1933.8c1.9,1.2,3.6,2.6,5.3,4.1l-1.9,0.8c-1.5-1.5-3.1-2.8-4.8-4L754.9,1933.8z M758.8,1914.8c-0.7,1.9-1.6,3.6-2.8,5.2
	c-0.5-0.3-1-0.6-1.6-0.9c1.1-1.5,1.9-3.1,2.5-4.8L758.8,1914.8z"/>
<path class="st1" d="M770.5,1935.1c2.1,0.7,4.4,1,6.6,0.9c1.4,0,9.9,0,11.6-0.1c-0.4,0.6-0.7,1.3-0.9,2.1h-10.7
	c-6,0-9.3-0.9-11.3-4.7c-0.2,1.9-0.8,3.8-1.7,5.5c-0.5-0.4-1.1-0.7-1.7-1c1.6-2.8,1.9-7.2,1.9-12l1.9,0.1c0,1.4-0.1,2.7-0.2,4
	c0.4,1.6,1.3,3,2.4,4.2v-10.3h-5.4v-1.8h5v-3.4h-4.4v-1.8h4.4v-3.4h1.9v3.4h4.4v1.8h-4.4v3.4h4.9v1.2c2.5-1.4,3.8-3.6,4.2-6.9h-3.9
	v-1.8h12.2c0,0,0,0.6,0,0.9c-0.2,5-0.5,6.9-1.1,7.6c-0.4,0.5-1,0.7-1.6,0.7c-1,0.1-2,0.1-3,0c-0.1-0.6-0.2-1.2-0.5-1.8
	c1.1,0.1,2.2,0.1,2.7,0.1s0.7,0,0.8-0.2c0.4-0.4,0.6-1.8,0.8-5.5h-4.3c-0.6,4.2-2.3,6.8-5.3,8.5c-0.3-0.4-0.7-0.7-1.1-1h-4.4v4h4.3
	v1.8h-4.3L770.5,1935.1z M776.4,1925.1H787v8.6h-10.6V1925.1z M778.4,1932h6.6v-5.2h-6.7L778.4,1932z"/>
<path class="st1" d="M816.5,1916.2v1.8h-24.4v-1.8h11.5c-0.3-0.8-0.6-1.8-1-2.6l1.9-0.5c0.4,1,0.9,2.2,1.2,3.1L816.5,1916.2z
	 M814.9,1936.4c0,1.1-0.3,1.6-1.1,1.9c-1.5,0.3-3.1,0.4-4.6,0.3c-0.1-0.6-0.4-1.1-0.7-1.6c1.7,0,3.4,0,3.8,0s0.6-0.1,0.6-0.6v-12.6
	h-5.7v1.8c0,0.6,0.1,0.8,0.5,0.8h2.5c0.5,0,1,0,1.5-0.1c0,0.5,0.1,1,0.1,1.5c-0.5,0.1-1.1,0.2-1.6,0.1h-2.9c-1.7,0-2-0.7-2-2.4v-1.8
	h-3.2c-0.4,2.9-1.7,4.4-5.6,5.3c-0.2-0.6-0.6-1-1-1.4c3.3-0.6,4.4-1.7,4.8-3.9h-4.8v14.9h-2V1922h12.9c0.8-1.2,1.4-2.5,2-3.8
	l2.1,0.5c-0.7,1.1-1.4,2.3-2.2,3.3h6.3L814.9,1936.4z M799.8,1918.1c0.6,1,1.2,2,1.8,3.1l-1.8,0.7c-0.4-0.8-1.2-2.2-1.7-3.2
	L799.8,1918.1z M800.9,1935.2v1.3h-1.8v-7.6h10.2v6.3H800.9z M800.9,1930.4v3.2h6.7v-3.2H800.9z"/>
<path class="st1" d="M830.6,1928.7c-0.6-1-2-2.9-3.2-4.4v14.4h-2v-13.7c-1,3.1-2.6,6-4.6,8.6c-0.3-0.7-0.7-1.3-1.1-1.9
	c2.5-3.1,4.3-6.7,5.3-10.5h-4.6v-2h5v-6h2v6h4v2h-4v0.6c0.9,0.9,3.9,4.3,4.6,5.1L830.6,1928.7z M840.2,1921.2
	c1.3,4.4,3.4,8.9,5.6,11.3c-0.6,0.5-1.1,1-1.6,1.6c-2-2.8-3.5-5.9-4.6-9.2v13.8h-2V1925c-1.3,3.6-3.2,6.8-5.8,9.7
	c-0.4-0.6-0.8-1.3-1.2-1.8c3.1-3.3,5.3-7.3,6.5-11.6h-4.6v-2h5v-6h2v6h5.4v2L840.2,1921.2z"/>
<path class="st1" d="M873.7,1935.5v2.1h-24.8v-2.1h13.5c1.7-4.4,3.1-8.9,4.1-13.5l2.3,0.4c-1.2,4.4-2.6,8.7-4.2,13L873.7,1935.5z
	 M872.6,1920.5h-22.5v-2h22.5V1920.5z M856.6,1934.3c-0.6-4-1.5-7.9-2.6-11.7l2.1-0.5c1.1,3.9,2.1,7.8,2.8,11.7L856.6,1934.3z
	 M860.6,1918.1c-0.3-1.5-0.8-3.1-1.3-4.5l2-0.5c0.6,1.5,1.1,2.9,1.5,4.4L860.6,1918.1z"/>
<path class="st0" d="M205.1,1969.2h-6.2v-2.2h15v2.2h-6.2v18.3h-2.6L205.1,1969.2z"/>
<path class="st0" d="M229.4,1987.5l-5-8.7h-3.7v8.7h-2.6V1967h6.4c4.2,0,7.2,1.5,7.2,5.8c0.1,2.8-1.9,5.3-4.6,5.8l5.2,9
	L229.4,1987.5z M220.7,1976.7h3.4c3.2,0,5-1.3,5-3.9s-1.8-3.7-5-3.7h-3.4V1976.7z"/>
<path class="st0" d="M245.7,1981.3h-7.5l-2,6.3h-2.6l7-20.5h2.9l7,20.5h-2.7L245.7,1981.3z M245.1,1979.2l-1-3.1
	c-0.8-2.3-1.4-4.6-2.1-6.9h-0.1c-0.6,2.4-1.3,4.6-2,6.9l-1,3.1H245.1z"/>
<path class="st0" d="M253.8,1967h11.8v2.2h-9.2v6.9h7.8v2.2h-7.8v9.2h-2.6L253.8,1967z"/>
<path class="st0" d="M269.8,1967h11.8v2.2h-9.2v6.9h7.8v2.2h-7.8v9.2h-2.6L269.8,1967z"/>
<path class="st0" d="M285.8,1967h2.6v20.5h-2.6V1967z"/>
<path class="st0" d="M293.4,1977.3c0-6.6,3.9-10.7,9.1-10.7c2.1,0,4.2,0.9,5.6,2.6l-1.4,1.7c-1-1.2-2.6-2-4.2-2
	c-3.9,0-6.5,3.2-6.5,8.3s2.5,8.4,6.4,8.4c1.8,0,3.6-0.9,4.8-2.3l1.4,1.6c-1.5,1.9-3.9,3-6.3,2.9
	C297.2,1987.9,293.4,1984,293.4,1977.3z"/>
<path class="st1" d="M323.6,1962.9h1.1v28h-1.1V1962.9z"/>
<path class="st1" d="M357.1,1967.3c2.8,2.4,5.3,5.1,7.4,8.1l-1.8,1.2c-0.5-0.8-1.1-1.6-1.7-2.4c-16,0.9-17.6,1-18.7,1.3
	c-0.2-0.7-0.4-1.4-0.7-2c0.9-0.3,1.7-0.9,2.3-1.7c2.4-2.4,4.6-5,6.4-7.9l2,0.9c-2.1,2.9-4.5,5.7-7.2,8.2l14.3-0.7
	c-1.3-1.4-2.6-2.8-4.1-4.1L357.1,1967.3z M343.8,1978h17.8v11.6h-2.2v-1.5h-13.5v1.5h-2.1V1978z M345.9,1980v6.2h13.5v-6.2H345.9z"
	/>
<path class="st1" d="M369.7,1985.4h4.6v-15.3h-3.6v-1.6c1.5-0.2,2.9-0.7,4.2-1.4h2v18.4h4.1v2.1h-11.3V1985.4z"/>
<path class="st1" d="M392.5,1981.1c0-0.5-0.2-1-0.3-1.6c-5.6,0.8-6.4,1-6.9,1.3c-0.1-0.4-0.5-1.4-0.7-2c0.6-0.1,1.2-0.8,2-1.8
	c0.8-1,1.6-2,2.3-3.1c-2.9,0.4-3.4,0.5-3.8,0.7c-0.2-0.6-0.4-1.3-0.7-1.9c0.5-0.1,1-0.7,1.5-1.5c1.5-2.2,2.7-4.5,3.6-7l1.9,0.8
	c-1.2,2.6-2.6,5.1-4.2,7.4l2.9-0.3c0.8-1.2,1.4-2.4,2.1-3.7l1.8,1.1c-1.8,3.2-3.9,6.2-6.2,9l4-0.5c-0.2-0.9-0.5-1.9-0.8-2.8l1.6-0.4
	c0.7,1.9,1.2,3.9,1.6,5.9L392.5,1981.1z M387.5,1982.3c-0.3,2.3-0.7,4.6-1.4,6.9c-0.5-0.2-1-0.4-1.6-0.6c0.7-2.1,1.2-4.3,1.3-6.6
	L387.5,1982.3z M390.1,1981.9c0.3,1.9,0.6,4.3,0.7,6l-1.6,0.3c-0.1-2-0.3-4-0.6-6L390.1,1981.9z M392.5,1981.3c0.6,1.5,1,3,1.4,4.5
	l-1.5,0.5c-0.3-1.5-0.8-3.1-1.3-4.6L392.5,1981.3z M401,1979.6c-0.8,3.7-3,6.9-6.3,8.8c-0.3-0.6-0.7-1.1-1.2-1.5
	c2.4-1.3,4.2-3.4,5.1-6H395v-1.7h4.4l0.3-0.1L401,1979.6z M409.6,1979.1c-1.3,1.1-2.7,2.4-3.9,3.3c1.1,1.8,2.7,3.3,4.6,4.4
	c-0.5,0.5-1,1-1.4,1.7c-2.3-1.6-4.2-3.8-5.3-6.3v5.3c0,1.1-0.2,1.6-1,2c-1.2,0.3-2.4,0.5-3.7,0.4c-0.1-0.7-0.3-1.3-0.6-1.9
	c1.3,0,2.5,0,2.8,0s0.5-0.1,0.5-0.4v-10.5H396v-9.8h4.3c0.4-1,0.7-2,1-3l2.3,0.5c-0.4,0.8-0.8,1.7-1.2,2.5h6.3v9.8h-5.1v1
	c0.3,1.1,0.8,2.2,1.3,3.2c1.1-1,2.2-2.1,3.1-3.2L409.6,1979.1z M398,1971.2h8.7v-2.4H398L398,1971.2z M398,1975.2h8.7v-2.5H398
	L398,1975.2z"/>
<path class="st1" d="M422.9,1979.4l-1.9,1.6c-1.9-2.2-3.9-4.3-6.2-6.2l1.8-1.6C418.9,1975.1,421,1977.1,422.9,1979.4z"/>
<path class="st1" d="M433.1,1978.8v8.4c0,1.1-0.2,1.7-1,2c-1.1,0.4-2.3,0.5-3.5,0.4c-0.1-0.7-0.3-1.3-0.6-1.9c1.2,0,2.3,0,2.6,0
	s0.5-0.1,0.5-0.5v-7.8l-3.3,1.1l-0.5-2c1.1-0.3,2.4-0.7,3.9-1.2v-5.7h-3.5v-1.9h3.5v-5.6h1.9v5.6h3v1.9h-3v5.2
	c0.9-0.3,1.8-0.6,2.8-0.9l0.3,1.9L433.1,1978.8z M445.3,1979.6v2.4h6.3v1.7h-6.3v3.7c0.9,0.1,1.7,0.2,2.6,0.2h5.5
	c-0.3,0.6-0.5,1.2-0.6,1.8h-4.9c-4.3,0-7.2-0.8-9.2-4.1c-0.6,1.7-1.6,3.2-2.9,4.5c-0.5-0.4-1-0.8-1.6-1.2c2.1-1.9,3.3-4.9,3.8-8.5
	l1.9,0.2c-0.1,0.9-0.3,1.8-0.5,2.7c0.7,1.9,2.1,3.3,4,4v-7.4h-5.7v-1.6h5.7v-2.3h-7.3v-1.7h7.3v-2.1h-5.7v-1.7h5.7v-1.9h-6.9v-1.7
	h6.9v-2.5h1.9v2.5h7.4v1.7h-7.4v1.9h6v3.7h2v1.7h-2v4L445.3,1979.6z M445.3,1973.9h4.1v-2.1h-4.1V1973.9z M445.3,1977.9h4.1v-2.3
	h-4.1V1977.9z"/>
<path class="st1" d="M462.9,1977.7c-0.4,2.4-1.1,4.8-2.1,7c0.5,0.3,1.1,0.8,2.1,1.4c2,1.2,4.5,1.4,7.8,1.4c3.6,0,8.1-0.3,11.2-0.6
	c-0.3,0.7-0.5,1.4-0.6,2.2c-2.1,0.1-7.4,0.3-10.7,0.3c-3.7,0-6.1-0.3-8.2-1.5c-1.1-0.7-2.2-1.6-2.8-1.6s-1.6,1.8-2.4,3.5l-1.4-1.9
	c0.8-1.3,1.8-2.4,3-3.3c0.8-1.8,1.4-3.7,1.8-5.7H457c0.8-1.7,1.7-4,2.5-6.2h-3.2v-1.9h5.9c-0.7,2-1.6,4.4-2.4,6.3h1.6l0.3-0.1
	L462.9,1977.7z M459.2,1969.4c-0.3-1.2-1-3.1-1.4-4.6l1.9-0.5c0.5,1.5,1.1,3.3,1.5,4.5L459.2,1969.4z M465.4,1970.2h-1.9v-5h17.3v5
	h-2v-3.4h-13.4V1970.2z M471.2,1986.1v-2.3h-7.6v-1.6h7.6v-1.7h-6.1v-7.9h6.1v-1.7h-5.5v-1.6h5.5v-1.4h2v1.4h5.3v1.6h-5.2v1.7h6.2
	v7.9h-6.2v1.7h7.8v1.6h-7.8v2.3H471.2z M466.9,1975.8h4.3v-1.8h-4.3V1975.8z M471.2,1979v-1.8h-4.3v1.8H471.2z M473.2,1974v1.8h4.3
	v-1.8L473.2,1974z M477.5,1977.2h-4.3v1.8h4.3L477.5,1977.2z"/>
<path class="st1" d="M490.6,1974.2c0.8,1,2.8,4.1,3.2,4.9l-1.1,1.5c-0.4-0.9-1.3-2.6-2.1-4v13.1h-1.9v-12.8
	c-0.7,2.6-1.8,5.2-3.2,7.6c-0.3-0.6-0.7-1.2-1.1-1.8c2-3.2,3.4-6.8,4.1-10.5H485v-1.9h3.7v-6h1.9v6h3.1v1.9h-3.1L490.6,1974.2z
	 M505.3,1970.4c1.4,1.8,3.1,3.2,5.2,4.2c-0.5,0.4-1,0.9-1.3,1.5c-1.1-0.6-2-1.3-2.9-2.2v3.3h-8.9v-3.3c-0.9,0.8-1.9,1.6-3,2.2
	c-0.3-0.5-0.8-1-1.3-1.4c2-1.1,3.7-2.6,5-4.4H494v-1.7h5c0.3-0.6,0.5-1.2,0.7-1.8c-1.6,0.1-3.3,0.2-4.8,0.2c-0.1-0.5-0.3-1-0.5-1.4
	c4.2-0.1,8.4-0.5,12.6-1.2l1.2,1.4c-2.1,0.4-4.3,0.8-6.5,0.9c-0.2,0.7-0.4,1.3-0.7,1.9h8.8v1.7H505.3z M509.4,1987.5
	c0,1-0.2,1.5-0.9,1.8c-1.2,0.3-2.4,0.4-3.6,0.3c-0.2-0.6-0.4-1.2-0.7-1.7c1.3,0.1,2.5,0.1,2.8,0s0.5-0.1,0.5-0.4v-7.2h-11.3v9.4
	h-1.9v-11h15.1V1987.5z M499.8,1986.9v1.2h-1.6v-6.4h7.1v5.2H499.8z M500.2,1970.4c-0.3,0.6-0.7,1.2-1.1,1.7h5.4
	c-0.4-0.5-0.8-1.1-1.2-1.7H500.2z M504.4,1973.5h-5.3v2.5h5.3V1973.5z M499.8,1983.1v2.5h4v-2.5H499.8z"/>
<path class="st1" d="M524.8,1985.6c-3.9,1-8.1,1.9-11.2,2.5l-0.5-1.9c2.1-0.4,5-1,8.1-1.6l-1.4-0.4c0.5-1.9,1-3.7,1.3-5.7l2,0.5
	c-0.5,1.9-1.1,4-1.6,5.5l3.2-0.7L524.8,1985.6z M524.5,1967.6h-10.9v-1.9h10.9V1967.6z M523.8,1977.7h-9.5v-7.5h9.5V1977.7z
	 M516,1984.4c-0.1-1.8-0.5-3.5-1.1-5.2l1.7-0.4c0.7,1.6,1.1,3.4,1.2,5.1L516,1984.4z M521.9,1972h-5.8v4h5.8L521.9,1972z
	 M530.5,1986.1c-1.8,1.6-3.9,2.8-6.1,3.7c-0.4-0.5-0.9-1-1.4-1.4c2.1-0.7,4-1.8,5.7-3.3L530.5,1986.1z M529.9,1969.9
	c0.2-0.8,0.4-1.8,0.6-2.7h-5.3v-1.8h13.4v1.8h-5.8c-0.3,0.9-0.5,1.8-0.8,2.7h5.7v14.5H526v-14.5H529.9z M535.8,1971.6H528v2.7h7.8
	L535.8,1971.6z M535.8,1975.8H528v2.7h7.8L535.8,1975.8z M535.8,1980H528v2.8h7.8L535.8,1980z M534.4,1985.2c1.7,1,3.3,2.2,4.8,3.4
	l-1.7,1.1c-1.5-1.3-3-2.5-4.7-3.6L534.4,1985.2z"/>
<path class="st1" d="M552.7,1982.3l0.2,1.9c-3.7,1-7.6,1.9-10.5,2.7l-0.5-2c1.6-0.4,3.8-0.8,6-1.4c0.8-3.7,1.4-7.5,1.8-11.2l2,0.4
	c-0.6,3.3-1.3,7.5-2,10.5L552.7,1982.3z M542.2,1969.3H553v1.9h-10.8L542.2,1969.3z M545,1972.5c0.7,3.3,1.2,6.6,1.4,10l-1.8,0.3
	c-0.2-3.4-0.7-6.7-1.3-10L545,1972.5z M547.3,1969c-0.5-1.5-1.1-2.9-1.8-4.2l1.7-0.5c0.8,1.3,1.5,2.7,2,4.1L547.3,1969z
	 M560.2,1971.9v5.5h5.8v12.1h-2v-1.2h-8.4v1.3h-2v-12.2h4.5v-13.3h2.1v5.8h7v2L560.2,1971.9z M564,1979.3h-8.4v7h8.4L564,1979.3z"/>
<path class="st1" d="M580,1979.4l-1.9,1.6c-1.9-2.2-3.9-4.3-6.2-6.2l1.8-1.6C576,1975,578.1,1977.1,580,1979.4z"/>
<path class="st1" d="M601.9,1967.3c2.8,2.4,5.3,5.1,7.4,8.1l-1.8,1.2c-0.5-0.8-1.1-1.6-1.7-2.4c-16,0.9-17.6,1-18.7,1.3
	c-0.2-0.7-0.4-1.4-0.7-2c0.9-0.3,1.7-0.9,2.3-1.7c2.4-2.4,4.6-5,6.4-7.9l2,0.9c-2.1,2.9-4.5,5.7-7.2,8.2l14.3-0.7
	c-1.3-1.4-2.6-2.8-4.1-4.1L601.9,1967.3z M588.6,1978h17.8v11.6h-2.2v-1.5h-13.5v1.5h-2.1L588.6,1978z M590.7,1980v6.2h13.5v-6.2
	H590.7z"/>
<path class="st1" d="M638.3,1975.4c-0.7,3.1-1.8,6.1-3.2,8.9c0.5,2.3,1.1,3.4,1.7,3.4c0.5,0,0.8-0.9,0.9-4.1c0.4,0.4,0.9,0.8,1.5,1
	c-0.2,4.2-0.9,5-2.5,5c-1.2,0-2.2-1.1-2.9-3.2c-0.9,1.3-1.9,2.4-3.1,3.5c-0.4-0.5-0.9-0.9-1.4-1.3c0.6-0.5,1.1-1,1.7-1.5
	c-3,0.5-6.2,1-8.5,1.3l-0.2-1.6c1.1-0.1,2.5-0.3,4-0.6v-1.7h-3.2v-1.5h3.2v-1.6c-1.1,0.1-2.3,0.2-3.3,0.2c-0.1-0.4-0.2-0.9-0.5-1.3
	c2.6-0.1,5.3-0.4,7.8-0.9l1.3,1.2c-1.1,0.3-2.3,0.5-3.5,0.6v1.8h2.9v1.5h-3v1.5l3.3-0.5v1.1c0.7-0.8,1.3-1.6,1.8-2.5
	c-0.6-3.8-1-7.7-1.1-11.6h-10v-1.3c-1.2-1.4-2.5-2.6-3.9-3.8c-0.8,1.4-1.7,2.6-2.8,3.8h6v1.8H619v3h3.2v1.8H619v7.7l3.3-0.8l0.1,1.7
	l-8.6,2.2l-0.4-1.9c1.1-0.2,2.5-0.5,4-0.9v-8.1h-3.7v-1.9h3.7v-3h-2.3v-1.4c-0.4,0.4-0.8,0.8-1.2,1.2c-0.2-0.7-0.5-1.4-0.8-2.1
	c2.2-1.8,3.9-4.1,5.1-6.7l1.5,0.7c-0.2,0.4-0.4,0.8-0.5,1.2c1.4,1.1,2.8,2.2,4,3.6l-0.7,1.3h3.9v-2.4h-3.1v-1.7h3.1v-2.5h1.9v2.5h3
	v1.7h-3v2.4h3.9c-0.1-2-0.1-4.2-0.1-6.6h2c0,2.4,0,4.6,0,6.6h4.9v1.7h-4.9c0.1,3.6,0.4,6.5,0.7,8.8c0.8-2,1.5-4.1,1.9-6.2
	L638.3,1975.4z M615.5,1979.4c0.4,1.7,0.8,3.4,1,5.1l-1.4,0.4c-0.2-1.8-0.5-3.5-0.9-5.2L615.5,1979.4z M619.6,1984.2
	c0.5-1.7,0.9-3.4,1.2-5.1l1.4,0.5c-0.5,1.7-1,3.8-1.4,5.1L619.6,1984.2z M631.1,1978.9h-7.9v-5.2h7.9V1978.9z M629.4,1975.1h-4.6
	v2.3h4.6V1975.1z M637.2,1969.9c-0.6-1.6-1.5-3.1-2.5-4.5l1.5-0.7c1.1,1.3,1.9,2.8,2.6,4.3L637.2,1969.9z"/>
<path class="st1" d="M647.8,1974.2c0.8,1,2.8,4.1,3.2,4.9l-1.1,1.5c-0.4-0.9-1.3-2.6-2.1-4v13.1h-1.9v-12.8
	c-0.7,2.6-1.8,5.2-3.2,7.6c-0.3-0.6-0.7-1.2-1.1-1.8c2-3.2,3.4-6.8,4.1-10.5h-3.5v-1.9h3.7v-6h1.9v6h3.1v1.9h-3.1L647.8,1974.2z
	 M662.5,1970.4c1.4,1.8,3.1,3.2,5.2,4.2c-0.5,0.4-1,0.9-1.3,1.5c-1.1-0.6-2-1.3-2.9-2.2v3.3h-8.9v-3.3c-0.9,0.8-1.9,1.6-3,2.2
	c-0.3-0.5-0.8-1-1.3-1.4c2-1.1,3.7-2.6,5-4.4h-4.1v-1.7h5.1c0.3-0.6,0.5-1.2,0.7-1.8c-1.7,0.1-3.3,0.2-4.8,0.2
	c-0.1-0.5-0.3-1-0.5-1.4c4.2-0.1,8.4-0.5,12.6-1.2l1.2,1.4c-2.1,0.4-4.3,0.8-6.5,0.9c-0.2,0.7-0.4,1.3-0.7,1.9h8.8v1.7H662.5z
	 M666.5,1987.5c0,1-0.2,1.5-0.9,1.8c-1.2,0.3-2.4,0.4-3.6,0.3c-0.1-0.6-0.4-1.2-0.7-1.7c1.3,0.1,2.5,0.1,2.8,0s0.5-0.1,0.5-0.4v-7.2
	h-11.2v9.4h-1.9v-11h15.1L666.5,1987.5z M656.9,1986.9v1.2h-1.6v-6.4h7.1v5.2H656.9z M657.3,1970.4c-0.3,0.6-0.7,1.2-1.1,1.7h5.4
	c-0.4-0.5-0.8-1.1-1.2-1.7H657.3z M661.5,1973.5h-5.3v2.5h5.3V1973.5z M656.9,1983.1v2.5h4v-2.5H656.9z"/>
<path class="st1" d="M682,1985.6c-3.9,1-8.1,1.9-11.2,2.5l-0.5-1.9c2.1-0.4,5-1,8.1-1.6l-1.4-0.4c0.5-1.9,1-3.7,1.3-5.7l2,0.5
	c-0.5,1.9-1.1,4-1.6,5.5l3.2-0.7L682,1985.6z M681.6,1967.6h-11v-1.9h10.9L681.6,1967.6z M681,1977.7h-9.5v-7.5h9.5V1977.7z
	 M673.2,1984.4c-0.1-1.8-0.4-3.5-1.1-5.2l1.7-0.4c0.7,1.6,1.1,3.4,1.2,5.1L673.2,1984.4z M679.1,1972h-5.8v4h5.8V1972z
	 M687.7,1986.1c-1.8,1.6-3.9,2.8-6.1,3.7c-0.4-0.5-0.9-0.9-1.4-1.4c2.1-0.7,4-1.8,5.7-3.3L687.7,1986.1z M687.1,1969.9
	c0.2-0.8,0.4-1.8,0.6-2.7h-5.3v-1.8h13.4v1.8H690c-0.3,0.9-0.5,1.8-0.8,2.7h5.7v14.5h-11.7v-14.5H687.1z M692.9,1971.6h-7.8v2.7h7.8
	V1971.6z M692.9,1975.8h-7.8v2.7h7.8V1975.8z M692.9,1980h-7.8v2.8h7.8V1980z M691.6,1985.2c1.7,1,3.3,2.2,4.8,3.4l-1.7,1.1
	c-1.5-1.3-3-2.5-4.7-3.6L691.6,1985.2z"/>
<path class="st1" d="M724.2,1985.6h-11.5v4.1h-2.1v-4.1h-11.3v-1.9h11.3v-2.3h-8.4v-10.8h8.4v-2H700v-1.9h10.5v-2.5h2.1v2.5h10.6
	v1.9h-10.6v2h8.6v10.8h-8.6v2.3h11.5V1985.6z M704.1,1975.2h6.4v-2.8h-6.4V1975.2z M710.5,1979.7v-2.9h-6.4v2.9H710.5z
	 M712.6,1972.3v2.8h6.5v-2.8H712.6z M719.1,1976.8h-6.5v2.9h6.5V1976.8z"/>
<path class="st1" d="M738.4,1982.3l0.2,1.9c-3.7,1-7.6,1.9-10.5,2.7l-0.5-2c1.6-0.4,3.7-0.8,6-1.4c0.8-3.7,1.4-7.5,1.8-11.2l2,0.4
	c-0.6,3.3-1.3,7.5-2,10.5L738.4,1982.3z M727.9,1969.3h10.8v1.9h-10.8L727.9,1969.3z M730.7,1972.5c0.7,3.3,1.2,6.6,1.4,10l-1.8,0.3
	c-0.2-3.4-0.7-6.7-1.3-10L730.7,1972.5z M733,1969c-0.5-1.5-1.1-2.9-1.8-4.2l1.7-0.5c0.8,1.3,1.5,2.7,2,4.1L733,1969z M745.9,1971.9
	v5.5h5.9v12.1h-2.1v-1.2h-8.4v1.3h-2v-12.2h4.5v-13.3h2.1v5.8h7v2L745.9,1971.9z M749.6,1979.3h-8.4v7h8.4V1979.3z"/>
<path class="st0" d="M200.8,2017.9h2.6v18.3h8.9v2.2h-11.6V2017.9z"/>
<path class="st0" d="M216.5,2017.9h2.6v20.5h-2.6V2017.9z"/>
<path class="st0" d="M225.3,2017.9h11.8v2.2h-9.2v6.9h7.8v2.2h-7.8v9.2h-2.6L225.3,2017.9z"/>
<path class="st0" d="M241.3,2017.9h11.8v2.2h-9.2v6.4h7.8v2.2h-7.8v7.5h9.5v2.2h-12.1V2017.9z"/>
<path class="st1" d="M268.9,2013.8h1.1v28h-1.1L268.9,2013.8z"/>
<path class="st1" d="M293,2022.8v17.8h-2v-17.8h-1.3c-0.8,1.9-1.8,3.7-2.9,5.3c-0.6-0.5-1.2-0.9-1.9-1.3c2.3-2.8,4.1-7.3,5.1-11.8
	l2.1,0.4c-0.4,1.8-1,3.5-1.6,5.2h7.5v2L293,2022.8z M310.8,2022.8h-4.2v15.1c0,1.3-0.3,2-1.2,2.3c-1.5,0.4-3.1,0.5-4.6,0.4
	c-0.1-0.8-0.4-1.5-0.7-2.2c1.7,0.1,3.3,0.1,3.8,0s0.6-0.1,0.6-0.6v-15.1h-4.1c-0.8,1.9-1.8,3.7-2.9,5.3c-0.5-0.5-1.1-0.9-1.8-1.3
	c2.3-2.8,4-7.2,5-11.8l2.1,0.4c-0.4,1.8-0.9,3.5-1.5,5.3h9.6L310.8,2022.8z"/>
<path class="st1" d="M324.3,2030.5c-0.6-1-2-2.9-3.2-4.4v14.4h-2v-13.7c-1,3.1-2.6,6-4.6,8.6c-0.3-0.7-0.7-1.3-1.1-1.9
	c2.5-3.1,4.3-6.7,5.3-10.5h-4.6v-2h5v-6h2v6h4v2h-4v0.6c0.9,0.9,3.9,4.3,4.5,5.1L324.3,2030.5z M333.9,2023
	c1.3,4.4,3.4,8.9,5.6,11.3c-0.6,0.5-1.1,1-1.6,1.7c-2-2.8-3.5-5.9-4.5-9.2v13.8h-2v-13.8c-1.3,3.6-3.2,6.8-5.8,9.7
	c-0.4-0.6-0.8-1.3-1.2-1.8c3.1-3.3,5.3-7.3,6.5-11.6h-4.6v-2h5v-6h2v6h5.3v2L333.9,2023z"/>
<path class="st1" d="M352.2,2016.6c-1.9,4.5-4.7,8.5-8.2,11.9c-0.6-0.6-1.2-1.2-1.9-1.7c3.4-3,6.1-6.7,7.8-10.9L352.2,2016.6z
	 M360.1,2029.8c2.3,3,4.4,6.1,6.3,9.4l-2.1,1.2c-0.4-0.8-0.9-1.7-1.5-2.7c-14.5,1-16,1.1-17.1,1.5c-0.2-0.8-0.5-1.5-0.8-2.2
	c0.8-0.2,1.6-1.1,2.6-2.4c2.7-3.4,5.1-7.1,7-11l2.3,1c-2.3,4.3-5.1,8.3-8.2,12l12.9-0.7c-1.1-1.7-2.4-3.6-3.5-5L360.1,2029.8z
	 M360.6,2015.8c1.4,4.4,4.1,8.6,7.4,10.8c-0.6,0.6-1.2,1.2-1.6,1.9c-3.4-2.8-5.9-6.4-7.4-10.6h-5.2v-2.1L360.6,2015.8z"/>
<path class="st1" d="M395.1,2016.3v24.3h-2v-1.2h-19.2v1.2h-2v-24.3H395.1z M393.1,2037.5v-19.3h-19.2v19.3H393.1z M384.4,2034
	c0,0.4,0,0.9,0.1,1.3c-5.2,1.4-5.9,1.6-6.3,1.9c-0.1-0.5-0.3-0.9-0.6-1.3c0.7-0.2,1.1-0.8,1.1-1.5v-2.1c-1,0.4-2,0.7-3,1
	c-0.3-0.4-0.7-0.8-1.1-1.2c2.2-0.5,4.4-1.2,6.4-2.3h-3.9v-4.2h13v4.2h-6.7c-1,0.7-2,1.3-3.1,1.8v3.3L384.4,2034z M391.7,2024.7
	h-16.5v-1.3h7.2v-1.7h-5.6v-1.3h5.6v-1.6h1.9v1.6h5.8v1.3h-5.8v1.7h7.3L391.7,2024.7z M378.9,2028.7h9.3v-1.9h-9.3V2028.7z
	 M391.7,2031.3c-1,0.7-2,1.3-3.1,1.8c1.2,0.9,2.4,1.7,3.2,2.4l-1.4,1c-2.4-2-4.9-3.7-7.5-5.2l1.3-0.8c1,0.6,2.1,1.2,3.2,1.9
	c1-0.6,2-1.2,3-1.9L391.7,2031.3z"/>
<path class="st1" d="M409.1,2030.3l-1.9,1.6c-1.9-2.2-3.9-4.3-6.2-6.2l1.8-1.6C405.1,2026,407.2,2028,409.1,2030.3z"/>
<path class="st1" d="M427.6,2021.2v3.8h9.1v9.8c0,1.2-0.3,1.8-1.2,2.2c-1.6,0.3-3.3,0.5-4.9,0.4c-0.1-0.7-0.4-1.4-0.7-2.1
	c1.9,0.1,3.6,0.1,4,0.1s0.6-0.2,0.6-0.6v-7.7h-7v13.6h-2.1V2027h-6.5v10.4h-2.1V2025h8.6v-3.8h-11.3v-2h11.9
	c-0.5-1.3-1.2-2.5-1.8-3.7l2-0.6c0.9,1.3,1.6,2.7,2.2,4.1l-0.4,0.1h11.1v2L427.6,2021.2z"/>
<path class="st1" d="M467.5,2037.3v2.1h-24.8v-2.1h13.5c1.7-4.4,3.1-8.9,4.1-13.4l2.4,0.4c-1.2,4.4-2.6,8.7-4.2,13L467.5,2037.3z
	 M466.4,2022.3H444v-2h22.5L466.4,2022.3z M450.4,2036.1c-0.6-4-1.5-7.9-2.6-11.8l2.1-0.5c1.1,3.8,2.1,7.8,2.8,11.7L450.4,2036.1z
	 M454.5,2019.9c-0.3-1.5-0.8-3.1-1.3-4.5l2-0.5c0.6,1.4,1.1,2.9,1.5,4.4L454.5,2019.9z"/>
<path class="st1" d="M495.3,2016.2v24.4h-2v-1.3H474v1.3h-1.9v-24.4H495.3z M493.3,2037.5v-19.6H474v19.6H493.3z M492.1,2025.1v1.3
	h-16.8v-1.3h7.3c0.1-0.5,0.1-1,0.2-1.6h-5.3v-4.3h12.2v4.3h-5.2c-0.1,0.6-0.2,1.1-0.2,1.6H492.1z M476.7,2027.3h13.8v8.8h-13.8
	L476.7,2027.3z M478.4,2034.8h10.4v-6.2h-10.4L478.4,2034.8z M479.3,2022.3h8.6v-1.8h-8.6V2022.3z M480.6,2029.8h6.1v3.8h-6.1
	V2029.8z M481.9,2032.5h3.4v-1.7h-3.4V2032.5z"/>
<path class="st1" d="M524.5,2029.2v1.5h-24.7v-1.5h11.2v-1.7h-9.3v-1.4h9.3v-1.5h-8.5v-1.4h8.5v-1.7h-11.2v-1.6h11.2v-1.6h-8.2v-1.4
	h8.2v-2h2v2h8v3h3.4v1.6h-3.4v3h-8v1.5h9.5v1.4h-9.5v1.7L524.5,2029.2z M503.4,2032h17.9v8.6h-2.1v-0.9h-13.8v0.9h-2L503.4,2032z
	 M505.4,2033.4v1.7h13.8v-1.7H505.4z M519.2,2038.3v-1.8h-13.7v1.8H519.2z M513.1,2019.9h6v-1.6h-6V2019.9z M513.1,2023.1h6v-1.7h-6
	V2023.1z"/>
<path class="st1" d="M535.2,2015.4c-0.2,0.3-0.4,0.6-0.6,0.9c1.4,0.9,3.1,2,4,2.7l-1,1.6c-1.3-1-2.6-2-4-2.8c-1.4,1.9-3.1,3.5-5,4.8
	c-0.2-0.6-0.5-1.2-0.9-1.8c2.4-1.5,4.3-3.6,5.8-6L535.2,2015.4z M535.6,2033.4c1.1,1.8,2,3.7,2.9,5.6l-1.6,0.8
	c-0.3-0.8-0.6-1.5-1-2.2c-5.5,2.2-6.2,2.7-6.7,3c-0.2-0.6-0.4-1.2-0.7-1.8c0.6-0.2,1.1-0.9,1-1.6v-13.8h8v9.4h-6.2v4.8l3.9-1.5
	c-0.4-0.8-0.8-1.5-1.1-2.1L535.6,2033.4z M531.4,2025.1v2.2h4.3v-2.3L531.4,2025.1z M535.7,2031.3v-2.4h-4.3v2.4H535.7z
	 M536.2,2020.3v1.5h-4.7v-1.5H536.2z M553,2018.3v4.5h-1.8v-2.8h-10.8v2.8h-1.7v-4.5h6.6c-0.3-0.8-0.8-1.8-1.2-2.6l1.8-0.8
	c0.5,1,1,2,1.4,3l-0.8,0.4L553,2018.3z M542.4,2031.8h9.6v8.6h-1.8v-1.1h-7.7v1.2h-1.8v-18h10.2v7h-8.3L542.4,2031.8z M542.4,2024.2
	v3.6h6.5v-3.6H542.4z M542.4,2033.6v3.9h7.7v-3.9H542.4z"/>
<path class="st1" d="M566.3,2030.3l-1.9,1.6c-1.9-2.3-3.9-4.3-6.2-6.2l1.8-1.6C562.3,2026,564.4,2028,566.3,2030.3z"/>
<path class="st1" d="M589.6,2027.3c2,2.1,4.5,3.7,7.2,4.6c-0.5,0.5-1,1.1-1.4,1.7c-3.3-1.3-6.1-3.5-8.2-6.3h-7.3
	c-2,2.7-4.5,5-7.4,6.6c-0.4-0.6-0.9-1-1.5-1.4c2.5-1.3,4.7-3.1,6.5-5.2h-6.2v-1.8h7.5c0.5-0.7,1-1.5,1.4-2.3h-5.9v-1.7h6.7
	c0.3-0.7,0.6-1.4,0.8-2.2h-8.9v-1.7h9.3c0.2-0.9,0.4-1.7,0.5-2.6l2.2,0.2c-0.1,0.8-0.3,1.6-0.5,2.4h10.6v1.7h-11.1
	c-0.2,0.7-0.5,1.5-0.8,2.2h10.7v1.7h-11.4c-0.4,0.8-0.8,1.6-1.3,2.3h15.1v1.8L589.6,2027.3z M590.9,2031.8c-0.9,1-1.9,2-2.8,2.9
	c2.2,1.1,4.4,2.3,5.9,3.1l-1.2,1.6c-2.5-1.6-5.1-3-7.8-4.2v3.1c0,1.1-0.2,1.5-1,1.8c-1.3,0.3-2.6,0.4-3.9,0.3
	c-0.1-0.6-0.3-1.2-0.6-1.7c1.4,0,2.7,0,3,0s0.5-0.1,0.5-0.5v-2.5c-3.1,1.2-6.3,2.5-8.9,3.4l-1-1.7c2.5-0.8,6.2-2.1,9.8-3.4v-5.7h2
	v4.9c0.5,0.2,1,0.5,1.5,0.7c1-1,1.9-2.1,2.8-3.2L590.9,2031.8z M579.4,2035c-0.9-1.1-1.9-2.1-3-3l1.4-1.1c1.1,0.8,2.1,1.8,3,2.9
	L579.4,2035z"/>
<path class="st1" d="M607.3,2023.2h4.9v1.9h-4.9v0.7c1.1,1.1,4,4.5,4.7,5.4l-1.3,1.7c-0.6-1.1-2.2-3.2-3.4-4.7v12.2h-2v-12.3
	c-1.2,3-2.9,5.8-5,8.3c-0.3-0.7-0.7-1.3-1.2-1.9c2.5-2.7,4.4-6,5.6-9.4h-4.9v-1.9h5.5v-4.6c-1.6,0.2-3.1,0.5-4.6,0.7
	c-0.1-0.6-0.3-1.1-0.6-1.7c3.6-0.4,7.1-1.2,10.5-2.3l1.4,1.6c-1.5,0.5-3.1,1-4.7,1.3L607.3,2023.2z M623.5,2017.6v21.5h-2.1v-2.1
	h-6.2v2.3h-2v-21.7L623.5,2017.6z M621.4,2035v-15.4h-6.2v15.4L621.4,2035z"/>
<path class="st1" d="M644.2,2029.9v1.3h6.7v9.3h-2v-1.1h-16v1.1H631v-9.3h7v-1.3h-9.9v-1.5h25.4v1.5H644.2z M629.7,2017.2h-0.9v-1.3
	h12.3v1.3h-9.8v7.6c0,1,0.3,1.3,1.3,1.3h5.9c0.8,0,1.6,0,2.4-0.1c0.1,0.4,0.1,1,0.2,1.4c-0.8,0.1-1.7,0.2-2.6,0.2h-6.1
	c-2.2,0-2.8-0.8-2.8-2.8L629.7,2017.2z M636.9,2022.5L636.9,2022.5c1.2,0.7,2.4,1.5,3.5,2.4l-0.9,1c-1-0.8-2-1.6-3.1-2.3
	c-0.8,1.2-2,2-3.4,2.4c-0.2-0.4-0.6-0.8-0.9-1.1c2.1-0.6,2.9-1.6,3.3-2.5H632v-1.2h3.7v-1.5H634c-0.3,0.5-0.7,0.9-1.1,1.3
	c-0.4-0.3-0.7-0.5-1.2-0.7c0.9-0.8,1.6-1.9,2-3l1.3,0.3c-0.1,0.3-0.3,0.6-0.4,0.9h5.6v1.2h-3.2v1.5h3.7v1.2L636.9,2022.5z
	 M648.9,2038.2v-3.2H645c-2,0-2.5-0.3-2.5-1.8v-0.8h-3c-0.3,1.4-1.6,2.5-5.6,3.1c-0.2-0.5-0.6-0.9-0.9-1.2c3.2-0.4,4.4-1.1,4.8-1.9
	h-5v5.7H648.9z M635.3,2035.9h11.6v1.2h-11.7L635.3,2035.9z M642.6,2029.9h-2.9v1.3h2.9V2029.9z M641.9,2021.3
	c-0.3-0.5-0.7-0.9-1.1-1.3c2.1-0.8,2.5-1.8,2.5-2.8v-1.4h6.7v2.6c0,0.5,0.1,0.7,0.4,0.7h1.2c0.4,0,0.8,0,1.2-0.1
	c0,0.4,0.1,1,0.1,1.4c-0.4,0.1-0.8,0.1-1.2,0.1h-1.5c-1.5,0-1.8-0.6-1.8-2.1v-1.1H645c0,1.7-1,3.1-2.5,3.8h7.6l0.3-0.1l1,0.5
	c-0.7,1.5-1.6,2.7-2.9,3.8c1.3,0.6,2.6,1.3,3.5,1.8l-0.8,1.3c-1-0.6-2.4-1.3-4-2.1c-1.6,0.9-3.2,1.7-5,2.1c-0.2-0.5-0.5-0.9-0.9-1.3
	c1.5-0.3,2.9-0.8,4.2-1.5c-1.1-0.6-2.3-1.1-3.3-1.5l0.8-1.1c1.2,0.5,2.6,1.1,4,1.7c0.8-0.6,1.5-1.3,2.1-2.1h-7L641.9,2021.3
	L641.9,2021.3z M644.2,2032.4v0.8c0,0.6,0.1,0.6,1,0.6h3.2c0.2,0,0.4,0,0.5,0v-1.4L644.2,2032.4z"/>
<path class="st1" d="M665.7,2016.9c-0.8,2.3-1.8,5-2.8,7.2c1.6,1.6,2.5,3.8,2.5,6c0,1.5-0.3,2.7-1.1,3.2c-0.4,0.3-0.9,0.5-1.5,0.5
	c-0.6,0.1-1.2,0.1-1.9,0.1c0-0.7-0.2-1.3-0.5-1.8c0.5,0.1,1.1,0.1,1.6,0c0.3,0,0.6-0.1,0.9-0.2c0.5-0.5,0.7-1.3,0.6-2
	c-0.1-2.1-1-4.1-2.5-5.6c0.8-2,1.6-4.4,2.2-6.3h-3.7v22.5h-1.9v-24.4h6.3l0.3-0.1L665.7,2016.9z M679.8,2038.4
	c0.6,0,0.7-0.5,0.8-3.5c0.5,0.4,1.1,0.6,1.8,0.8c-0.2,3.6-0.7,4.6-2.4,4.6h-2.5c-2,0-2.4-0.6-2.4-2.6v-7.3h-2.9
	c-0.5,5.1-1.8,8.4-7.1,10.2c-0.3-0.6-0.7-1.2-1.2-1.7c4.8-1.5,5.9-4.2,6.3-8.6h-3.9v-1.9H682v1.9h-5v7.3c0,0.7,0.1,0.8,0.7,0.8
	L679.8,2038.4z M668.1,2023.4h-1.9v-4.9h7.1c-0.4-1.1-0.9-2.1-1.5-3.1l1.9-0.6c0.7,1.1,1.3,2.3,1.8,3.5l-0.6,0.2h7v4.9h-2v-3.1
	h-11.8V2023.4z M668.4,2025.3v-1.8h11.2v1.8H668.4z"/>
<path class="st1" d="M694.9,2030.3l-1.9,1.6c-1.9-2.2-3.9-4.3-6.2-6.2l1.8-1.6C690.9,2025.9,693,2028,694.9,2030.3z"/>
<path class="st1" d="M705.6,2025.1c0.8,1,2.8,4.1,3.2,4.9l-1.1,1.5c-0.4-0.9-1.3-2.6-2.1-4v13.1h-1.9v-12.8
	c-0.7,2.6-1.8,5.2-3.2,7.6c-0.3-0.6-0.7-1.2-1.1-1.8c1.7-2.3,3.3-6.7,4.1-10.5H700v-1.9h3.7v-6h1.9v6h3.1v1.9h-3.1L705.6,2025.1z
	 M720.3,2021.3c1.4,1.8,3.1,3.2,5.2,4.2c-0.5,0.4-0.9,0.9-1.3,1.5c-1.1-0.6-2-1.3-2.9-2.2v3.3h-8.9v-3.2c-0.9,0.8-1.9,1.6-3,2.2
	c-0.3-0.5-0.8-1-1.3-1.4c2-1.1,3.7-2.6,5-4.4h-4.1v-1.7h5.1c0.3-0.6,0.5-1.2,0.7-1.8c-1.7,0.1-3.3,0.2-4.8,0.2
	c-0.1-0.5-0.2-1-0.5-1.4c4.2-0.1,8.4-0.5,12.5-1.2l1.2,1.4c-2.1,0.4-4.3,0.8-6.5,0.9c-0.2,0.7-0.4,1.3-0.7,1.9h8.8v1.7L720.3,2021.3
	z M724.3,2038.4c0,1-0.2,1.5-0.9,1.8c-1.2,0.3-2.4,0.4-3.6,0.3c-0.1-0.6-0.4-1.2-0.7-1.7c1.3,0.1,2.5,0.1,2.8,0s0.5-0.1,0.5-0.4
	v-7.2h-11.2v9.4h-1.9v-11h15.1L724.3,2038.4z M714.8,2037.8v1.2h-1.6v-6.4h7.1v5.2H714.8z M715.2,2021.3c-0.3,0.6-0.7,1.2-1.1,1.7
	h5.4c-0.4-0.5-0.8-1.1-1.2-1.7H715.2z M719.4,2024.4h-5.3v2.4h5.3V2024.4z M714.8,2034v2.5h4v-2.5L714.8,2034z"/>
<path class="st1" d="M739.8,2036.5c-4,1-8.1,1.9-11.2,2.5l-0.5-1.9c2.1-0.4,5-1,8.1-1.6l-1.4-0.4c0.5-1.9,1-3.7,1.3-5.7l2,0.5
	c-0.5,1.9-1.1,4-1.6,5.5l3.2-0.7L739.8,2036.5z M739.5,2018.5h-10.9v-1.9h10.9V2018.5z M738.8,2028.6h-9.5v-7.5h9.5V2028.6z
	 M731,2035.3c-0.1-1.8-0.5-3.5-1.1-5.2l1.7-0.4c0.7,1.6,1.1,3.4,1.2,5.1L731,2035.3z M736.9,2022.9h-5.8v4.1h5.8V2022.9z
	 M745.5,2037c-1.8,1.6-3.9,2.8-6.1,3.7c-0.4-0.5-0.9-0.9-1.4-1.4c2.1-0.7,4-1.9,5.7-3.3L745.5,2037z M744.9,2020.9
	c0.2-0.8,0.4-1.8,0.6-2.7h-5.3v-1.8h13.4v1.8h-5.8c-0.3,0.9-0.5,1.8-0.8,2.7h5.7v14.5H741v-14.5H744.9z M750.8,2022.5H743v2.7h7.8
	L750.8,2022.5z M750.8,2026.7H743v2.8h7.8L750.8,2026.7z M750.8,2030.9H743v2.8h7.8L750.8,2030.9z M749.4,2036.1
	c1.7,1,3.3,2.2,4.8,3.4l-1.7,1.1c-1.5-1.3-3-2.5-4.7-3.6L749.4,2036.1z"/>
<path class="st1" d="M777,2037.3c1.6,0,3.1-0.1,4.6-0.3c0.1,0.6,0.2,1.5,0.3,2c-1.7,0.2-3.3,0.3-5,0.3h-12.3c-4.3,0-6.3-1.3-6.3-5.4
	v-15.7h-1.2v-1.9h23.4v1.9h-20.2v15.8c0,2.4,1.1,3.4,4.1,3.4L777,2037.3z M762.6,2028.1h7.3v7.2h-7.3V2028.1z M764.3,2033.7h3.7
	v-4.1h-3.7V2033.7z M776,2026.2h-10.3v-6.2H776L776,2026.2z M774,2021.5h-6.4v3.2h6.4L774,2021.5z M779.3,2035.2h-7.5v-7.2h7.5
	V2035.2z M777.4,2029.6h-3.9v4.1h3.9V2029.6z"/>
<path class="st1" d="M795.2,2016.6c-1.9,4.5-4.7,8.5-8.2,11.9c-0.6-0.6-1.2-1.2-1.8-1.7c3.4-3,6.1-6.7,7.8-10.9L795.2,2016.6z
	 M803,2029.8c2.3,3,4.4,6.1,6.3,9.4l-2.1,1.2c-0.4-0.8-0.9-1.7-1.5-2.7c-14.5,1-16,1.1-17.1,1.5c-0.2-0.8-0.5-1.5-0.8-2.2
	c0.8-0.2,1.6-1.1,2.6-2.4c2.7-3.4,5.1-7.1,7-11l2.3,1c-2.3,4.3-5.1,8.3-8.2,12l12.9-0.7c-1.1-1.7-2.3-3.6-3.5-5L803,2029.8z
	 M803.6,2015.8c1.3,4.4,4.1,8.6,7.4,10.8c-0.6,0.6-1.2,1.2-1.6,1.9c-3.4-2.8-6-6.4-7.4-10.6h-5.2v-2.1L803.6,2015.8z"/>
<path class="st1" d="M817.3,2030.2c-0.2,3.5-0.7,7.5-2.2,10.4c-0.5-0.5-1.1-0.9-1.7-1.3c1.8-3.4,1.9-8.2,1.9-11.8v-9.7
	c3.3-0.4,7.3-1.1,9.5-2.1l1.3,1.7c-2.8,1.1-5.8,1.7-8.8,2v2.7h7.5v8.2L817.3,2030.2z M817.4,2023.9v4.4h5.5v-4.4H817.4z
	 M839.2,2026.4h-3.3v14.1h-2v-14.1h-4.3v0.7c0,4.2-0.5,9.9-4.1,13.5c-0.5-0.5-1-1-1.6-1.4c3.3-3.4,3.6-8.3,3.6-12.1v-9.3
	c3.3-0.4,6.6-1.2,9.8-2.4l1.4,1.7c-3,1.1-6,1.8-9.1,2.3v5.1h9.7L839.2,2026.4z"/>
<path class="st2" d="M117.5,1741.6l-0.1,0.8h1.2v0.5h-1.2l-0.1,0.7h-4.4l0.1-0.7h-1.1v-0.5h1.2l0.1-0.8H117.5z M117.6,1743.9v2.6
	h-1.5c0.8,0.1,1.6,0.3,2.3,0.6l-0.2,0.5c-0.8-0.3-1.6-0.5-2.4-0.7l0.2-0.3h-1.7l0.2,0.3c-0.8,0.4-1.6,0.6-2.4,0.7l-0.3-0.4
	c0.8-0.1,1.6-0.3,2.4-0.6h-1.4v-2.6H117.6z M118.5,1742H118v-0.8h-5.5v0.8h-0.5v-1.3h3c-0.1-0.2-0.2-0.3-0.2-0.5l0.6-0.1
	c0.1,0.2,0.2,0.4,0.2,0.6h3L118.5,1742z M117.1,1744.6v-0.4h-3.7v0.4H117.1z M117.1,1745.3v-0.3h-3.7v0.4L117.1,1745.3z
	 M117.1,1745.7h-3.7v0.4h3.7V1745.7z M114.9,1743.2l0.1-0.4h-1.4l-0.1,0.4H114.9z M115,1742.4l0.1-0.5h-1.4l-0.1,0.5H115z
	 M115.4,1743.2h1.4l0.1-0.4h-1.4L115.4,1743.2z M115.5,1742.4h1.4v-0.5h-1.4L115.5,1742.4z"/>
<path class="st2" d="M122,1746.2c-0.6,0.5-1.3,0.9-2,1.1l-0.3-0.5c0.7-0.2,1.4-0.5,2-1L122,1746.2z M125.9,1740.3v2.3h-2.5
	c0.1,0.2,0.1,0.3,0.2,0.5h3.2v0.5h-7v-0.5h3.2c-0.1-0.2-0.2-0.3-0.2-0.5h-2.2v-2.3H125.9z M125.8,1744v1.6h-2.2v1.1
	c0,0.4-0.2,0.7-0.6,0.7h-1l-0.1-0.5c0.3,0,0.6,0,0.9,0s0.2-0.1,0.2-0.3v-1h-2.3v-1.6H125.8z M125.3,1741.3v-0.5h-4.2v0.5H125.3z
	 M125.3,1741.7h-4.2v0.5h4.2V1741.7z M125.3,1744.5h-4v0.7h3.9L125.3,1744.5z M126.9,1746.8l-0.2,0.5c-0.7-0.4-1.5-0.8-2.3-1
	l0.2-0.5C125.4,1746.1,126.2,1746.4,126.9,1746.8L126.9,1746.8z"/>
<path class="st2" d="M130.3,1743.9c-0.3,0.2-0.6,0.3-0.9,0.4v2.4c0,0.4-0.2,0.7-0.5,0.7c-0.1,0-0.1,0-0.2,0H128l-0.1-0.6h0.6
	c0.2,0,0.3-0.1,0.3-0.3c0,0,0-0.1,0-0.1v-2c-0.4,0.1-0.7,0.3-1,0.4l-0.1-0.6c0.4-0.1,0.8-0.2,1.2-0.4v-1.8h-1.1v-0.6h1.1v-1.4h0.6
	v1.4h0.9v0.6h-0.9v1.6c0.3-0.2,0.6-0.3,0.9-0.5L130.3,1743.9z M134.4,1747.4h-0.6v-0.4h-2.6v0.4h-0.6v-6.1h1.2
	c0.1-0.4,0.2-0.8,0.2-1.3l0.6,0.1c-0.1,0.4-0.1,0.8-0.2,1.2h2L134.4,1747.4z M133.9,1743.8v-2h-2.6v2H133.9z M133.9,1746.4v-2h-2.6
	v2H133.9z"/>
<path class="st2" d="M135.9,1747.4l-0.1-0.5c0.2,0,0.4,0,0.6,0s0.2-0.1,0.2-0.3v-2.1l-0.8,0.3l-0.1-0.6c0.3-0.1,0.7-0.2,1-0.3v-1.8
	h-0.9v-0.6h0.9v-1.3h0.6v1.3h0.8v0.6h-0.8v1.6c0.3-0.1,0.5-0.3,0.8-0.4v0.6c-0.3,0.1-0.5,0.3-0.8,0.4v2.5c0,0.5-0.2,0.7-0.6,0.7
	L135.9,1747.4z M138,1744.2v-0.4h2.3v0.4h-0.2v3.2h-0.5v-0.6c-0.5,0.1-1.1,0.2-1.7,0.2l-0.1-0.4h0.5v-2.3L138,1744.2z M142.5,1740.4
	v0.4H142v1.9h0.7v0.4H142v0.3h-0.5v-0.3h-3.3v-0.4h0.7v-1.9h-0.5v-0.4H142.5z M138.8,1744.2v0.5h0.9v-0.5H138.8z M139.6,1745.5v-0.5
	h-0.9v0.5H139.6z M139.6,1746.4v-0.5h-0.9v0.6L139.6,1746.4z M141.4,1741.3v-0.4h-2.1v0.4H141.4z M141.4,1742v-0.4h-2.1v0.4H141.4z
	 M141.4,1742.7v-0.4h-2.1v0.4H141.4z M140.5,1744.2v-0.4h2.3v0.4h-0.3v2.2h0.3v0.5h-0.3v0.6h-0.5v-0.6h-1.7v-0.5h0.4v-2.2H140.5z
	 M141.2,1744.2v0.5h0.9v-0.5H141.2z M142.1,1745.5v-0.4h-0.9v0.4H142.1z M142.1,1746.4v-0.5h-0.9v0.5H142.1z"/>
</svg>
