<?xml version="1.0" encoding="utf-8"?>
<!-- Generator: Adobe Illustrator 25.0.0, SVG Export Plug-In . SVG Version: 6.00 Build 0)  -->
<svg version="1.1" id="圖層_1" xmlns="http://www.w3.org/2000/svg" xmlns:xlink="http://www.w3.org/1999/xlink" x="0px" y="0px"
	 viewBox="0 0 1125 2436" style="enable-background:new 0 0 1125 2436;" xml:space="preserve">
<style type="text/css">
	.st0{fill:#FFFFFF;}
	.st1{fill:#1A1A1A;}
</style>
<path class="st0" d="M763.1,1680c0,0.8-0.1,1.5-0.3,2.3l-0.4-0.1c0.2-0.7,0.2-1.5,0.2-2.2L763.1,1680z M764,1678.4v7.3h-0.6v-7.3
	H764z M767.6,1678.4v0.5h1.9v0.5h-1.9v0.6h1.6v0.5h-1.6v0.5h2.1v0.5H765v-0.2l-0.4,0.1c-0.1-0.5-0.3-1-0.5-1.4l0.4-0.1
	c0.2,0.4,0.3,0.9,0.5,1.3v-0.2h2.1v-0.5h-1.6v-0.5h1.6v-0.6h-1.9v-0.4h1.9v-0.5L767.6,1678.4z M765.4,1685.8l-0.4-0.4
	c0.4-0.5,0.6-1.2,0.6-1.8v-1.6h3.5v3.2c0,0.3-0.2,0.6-0.5,0.6c0,0-0.1,0-0.2,0h-1l-0.1-0.5h1c0.2,0,0.2-0.1,0.2-0.3v-0.4H766
	C765.9,1685,765.7,1685.4,765.4,1685.8L765.4,1685.8z M766.1,1683.6c0,0.2,0,0.3,0,0.5h2.5v-0.6L766.1,1683.6L766.1,1683.6z
	 M768.6,1682.4h-2.4v0.6h2.4V1682.4z"/>
<path class="st0" d="M772.8,1683.9c-0.7,0.4-1.5,0.6-2.2,0.9l-0.2-0.6l0.8-0.2v-3h-0.8v-0.6h0.8v-1.9h0.6v1.9h0.7v0.6h-0.7v2.8
	c0.3-0.1,0.7-0.3,1-0.4L772.8,1683.9z M777.1,1681.4v2.5h-1v1c0,0.2,0.1,0.3,0.2,0.3h0.7c0.1,0,0.2,0,0.2-0.1
	c0.1-0.3,0.1-0.5,0.1-0.8l0.5,0.2c0,0.3-0.1,0.7-0.2,1c-0.1,0.1-0.3,0.2-0.5,0.2h-0.9c-0.3,0-0.6-0.2-0.6-0.5c0,0,0-0.1,0-0.2v-1.1
	h-0.8c-0.1,0.4-0.3,0.8-0.6,1.2c-0.5,0.4-1.1,0.6-1.7,0.7l-0.2-0.5c0.5-0.1,1-0.3,1.5-0.6c0.2-0.2,0.4-0.5,0.5-0.8h-0.9v-2.5
	L777.1,1681.4z M774.9,1679c-0.1-0.2-0.2-0.4-0.2-0.6l0.6-0.1c0.1,0.2,0.2,0.5,0.2,0.7h1.9v0.5h-0.8c-0.1,0.3-0.2,0.6-0.3,0.8h1.4
	v0.5h-4.8v-0.5h1.3c-0.1-0.3-0.2-0.6-0.3-0.8h-0.7v-0.5H774.9z M776.5,1682.4v-0.6h-2.7v0.6H776.5z M776.5,1682.8h-2.7v0.6h2.7
	V1682.8z M776,1679.5h-1.6c0.1,0.3,0.2,0.5,0.2,0.8h1.1C775.8,1680.1,775.9,1679.8,776,1679.5L776,1679.5z"/>
<path class="st0" d="M780.5,1682.5c-0.3,1-0.8,2-1.5,2.8l-0.5-0.3c0.6-0.8,1.1-1.7,1.4-2.7L780.5,1682.5z M785.5,1680.9v0.6h-3.1
	v4.3h-0.6v-4.3h-3.1v-0.6H785.5z M784.8,1678.9v0.6h-5.4v-0.6H784.8z M785.6,1685l-0.5,0.2c-0.4-1-0.9-1.9-1.5-2.8l0.5-0.2
	C784.7,1683.1,785.2,1684,785.6,1685L785.6,1685z"/>
<path class="st0" d="M787.7,1683.9c-0.2,0.6-0.4,1.2-0.8,1.7l-0.5-0.3c0.3-0.4,0.6-0.9,0.7-1.5L787.7,1683.9z M787,1679.4v-0.5h2.7
	c-0.1-0.2-0.1-0.3-0.2-0.5l0.6-0.1c0.1,0.2,0.2,0.3,0.2,0.6h2.8v0.5h-1.3l-0.3,0.6h2v0.5h-6.9v-0.5h1.9l-0.3-0.6L787,1679.4z
	 M792.6,1681v2.4h-5.1v-2.4L792.6,1681z M792.1,1682v-0.5h-4v0.5H792.1z M792.1,1682.5h-4v0.5h4V1682.5z M789.2,1685.7
	c-0.5,0-0.8-0.2-0.8-0.7v-1.1h0.6v0.9c0,0.2,0.1,0.3,0.4,0.3h1.7c0.1,0,0.3,0,0.4-0.1c0.1-0.1,0.2-0.3,0.2-0.7l0.5,0.2
	c0,0.4-0.1,0.7-0.3,1c-0.2,0.1-0.4,0.2-0.7,0.2L789.2,1685.7z M790.9,1680.1l0.3-0.6h-2.4l0.3,0.6H790.9z M790.9,1684.5l-0.5,0.3
	c-0.2-0.3-0.5-0.7-0.8-0.9l0.5-0.3C790.4,1683.8,790.7,1684.1,790.9,1684.5L790.9,1684.5z M793.7,1685.1l-0.5,0.3
	c-0.3-0.5-0.6-1-1-1.4l0.5-0.3C793.1,1684.2,793.4,1684.6,793.7,1685.1L793.7,1685.1z"/>
<path class="st0" d="M797.5,1681.3c-0.8,0.2-1.7,0.3-2.6,0.4l-0.1-0.4c0.5-0.3,1-0.7,1.3-1.3l0.5,0.2c-0.2,0.4-0.5,0.7-0.9,1
	c0.5,0,1-0.1,1.5-0.2c-0.1-0.1-0.3-0.3-0.4-0.4l0.4-0.2c0.3,0.3,0.6,0.6,0.8,0.9h0.3v-0.1c0.5-0.3,0.9-0.7,1.1-1.2l0.5,0.2
	c-0.2,0.3-0.5,0.7-0.8,0.9c0.4,0,0.9-0.1,1.3-0.1l-0.3-0.4l0.4-0.2c0.4,0.4,0.7,0.8,1,1.2l-0.4,0.3c-0.1-0.2-0.2-0.3-0.3-0.5
	c-0.7,0.1-1.3,0.2-2,0.2c0.9,0.6,1.9,1,3,1.2l-0.3,0.5c-1.2-0.3-2.3-0.8-3.3-1.5c-1,0.7-2.1,1.2-3.3,1.6l-0.3-0.5
	C795.5,1682.5,796.6,1682,797.5,1681.3L797.5,1681.3z M800.9,1679.8l-0.5,0.3c-0.1-0.1-0.3-0.3-0.4-0.4c-1.6,0.1-3.2,0.2-4.6,0.3
	l-0.1-0.5c0.8-0.1,1.5-0.5,2-1.1l0.5,0.1c-0.3,0.3-0.7,0.7-1.1,0.9c1.2-0.1,2.1-0.1,2.7-0.2l-0.6-0.5l0.4-0.3
	C799.8,1678.9,800.4,1679.4,800.9,1679.8z M798.8,1682.5c-0.8,0.7-1.8,1.1-2.9,1.2l-0.3-0.4c1-0.1,2-0.5,2.8-1.1L798.8,1682.5z
	 M799.7,1683.2c-1.1,0.9-2.4,1.4-3.8,1.6l-0.3-0.4c1.3-0.2,2.6-0.7,3.7-1.5L799.7,1683.2z M800.8,1683.7c-1.4,1.1-3.1,1.8-4.8,2.1
	l-0.3-0.4c1.7-0.2,3.3-0.9,4.7-1.9L800.8,1683.7z"/>
<path class="st0" d="M805.4,1679.2v-0.8h0.6v0.8h1.8v0.4c0.3-0.3,0.6-0.7,0.9-1.1l0.4,0.3c-0.5,0.6-1,1.2-1.6,1.7h2v0.6h-2.6
	c-0.4,0.3-0.8,0.6-1.2,0.8h3.4v0.5h-4l-0.3,0.8h3.8c0,0.7-0.1,1.4-0.4,2c-0.3,0.2-0.7,0.4-1.1,0.3c-0.3,0-0.7,0-1,0l-0.2-0.5
	c0.4,0,0.8,0,1.1,0s0.7-0.1,0.8-0.2c0.1-0.3,0.2-0.7,0.2-1.1h-3.9l0.4-1.3c-0.6,0.3-1.3,0.5-1.9,0.7l-0.2-0.5
	c1.3-0.4,2.5-0.9,3.6-1.6h-3.2v-0.6h2.7v-0.9h-2.1v-0.5L805.4,1679.2z M807.7,1679.8H806v0.9h0.7
	C807.1,1680.4,807.4,1680.1,807.7,1679.8z"/>
<path class="st0" d="M748.1,2014c0,0.8-0.1,1.5-0.3,2.3l-0.4-0.1c0.2-0.7,0.2-1.5,0.2-2.2L748.1,2014z M749,2012.4v7.3h-0.6v-7.3
	H749z M752.6,2012.4v0.5h1.9v0.5h-1.9v0.6h1.6v0.5h-1.6v0.5h2.1v0.5H750v-0.2l-0.4,0.1c-0.1-0.5-0.3-1-0.5-1.4l0.4-0.1
	c0.2,0.4,0.3,0.9,0.5,1.3v-0.2h2.1v-0.5h-1.6v-0.5h1.6v-0.6h-1.9v-0.4h1.9v-0.5L752.6,2012.4z M750.4,2019.8l-0.4-0.4
	c0.4-0.5,0.6-1.2,0.6-1.8v-1.6h3.5v3.2c0,0.3-0.2,0.6-0.5,0.6c0,0-0.1,0-0.2,0h-1l-0.1-0.5h1c0.2,0,0.2-0.1,0.2-0.3v-0.4H751
	C750.9,2019,750.7,2019.4,750.4,2019.8L750.4,2019.8z M751.1,2017.6c0,0.2,0,0.3,0,0.5h2.5v-0.6L751.1,2017.6L751.1,2017.6z
	 M753.6,2016.4h-2.4v0.6h2.4V2016.4z"/>
<path class="st0" d="M757.8,2017.9c-0.7,0.4-1.5,0.6-2.2,0.9l-0.2-0.6l0.8-0.2v-3h-0.8v-0.6h0.8v-1.9h0.6v1.9h0.7v0.6h-0.7v2.8
	c0.3-0.1,0.7-0.3,1-0.4L757.8,2017.9z M762.1,2015.4v2.5h-1v1c0,0.2,0.1,0.3,0.2,0.3h0.7c0.1,0,0.2,0,0.2-0.1
	c0.1-0.3,0.1-0.5,0.1-0.8l0.5,0.2c0,0.3-0.1,0.7-0.2,1c-0.1,0.1-0.3,0.2-0.5,0.2h-0.9c-0.3,0-0.6-0.2-0.6-0.5c0,0,0-0.1,0-0.2v-1.1
	h-0.8c-0.1,0.4-0.3,0.8-0.6,1.2c-0.5,0.4-1.1,0.6-1.7,0.7l-0.2-0.5c0.5-0.1,1-0.3,1.5-0.6c0.2-0.2,0.4-0.5,0.5-0.8h-0.9v-2.5
	L762.1,2015.4z M759.9,2013c-0.1-0.2-0.2-0.4-0.2-0.6l0.6-0.1c0.1,0.2,0.2,0.5,0.2,0.7h1.9v0.5h-0.8c-0.1,0.3-0.2,0.6-0.3,0.8h1.4
	v0.5h-4.8v-0.5h1.3c-0.1-0.3-0.2-0.6-0.3-0.8h-0.7v-0.5H759.9z M761.5,2016.4v-0.6h-2.7v0.6H761.5z M761.5,2016.8h-2.7v0.6h2.7
	V2016.8z M761,2013.5h-1.6c0.1,0.3,0.2,0.5,0.2,0.8h1.1C760.8,2014.1,760.9,2013.8,761,2013.5L761,2013.5z"/>
<path class="st0" d="M765.5,2016.5c-0.3,1-0.8,2-1.5,2.8l-0.5-0.3c0.6-0.8,1.1-1.7,1.4-2.7L765.5,2016.5z M770.5,2014.9v0.6h-3.1
	v4.3h-0.6v-4.3h-3.1v-0.6H770.5z M769.8,2012.9v0.6h-5.4v-0.6H769.8z M770.6,2019l-0.5,0.2c-0.4-1-0.9-1.9-1.5-2.8l0.5-0.2
	C769.7,2017.1,770.2,2018,770.6,2019L770.6,2019z"/>
<path class="st0" d="M772.7,2017.9c-0.2,0.6-0.4,1.2-0.8,1.7l-0.5-0.3c0.3-0.4,0.6-0.9,0.7-1.5L772.7,2017.9z M772,2013.4v-0.5h2.7
	c-0.1-0.2-0.1-0.3-0.2-0.5l0.6-0.1c0.1,0.2,0.2,0.3,0.2,0.6h2.8v0.5h-1.3l-0.3,0.6h2v0.5h-6.9v-0.5h1.9l-0.3-0.6L772,2013.4z
	 M777.6,2015v2.4h-5.1v-2.4L777.6,2015z M777.1,2016v-0.5h-4v0.5H777.1z M777.1,2016.5h-4v0.5h4V2016.5z M774.2,2019.7
	c-0.5,0-0.8-0.2-0.8-0.7v-1.1h0.6v0.9c0,0.2,0.1,0.3,0.4,0.3h1.7c0.1,0,0.3,0,0.4-0.1c0.1-0.1,0.2-0.3,0.2-0.7l0.5,0.2
	c0,0.4-0.1,0.7-0.3,1c-0.2,0.1-0.4,0.2-0.7,0.2L774.2,2019.7z M775.9,2014.1l0.3-0.6h-2.4l0.3,0.6H775.9z M775.9,2018.5l-0.5,0.3
	c-0.2-0.3-0.5-0.7-0.8-0.9l0.5-0.3C775.4,2017.8,775.7,2018.1,775.9,2018.5L775.9,2018.5z M778.7,2019.1l-0.5,0.3
	c-0.3-0.5-0.6-1-1-1.4l0.5-0.3C778.1,2018.2,778.4,2018.6,778.7,2019.1L778.7,2019.1z"/>
<path class="st0" d="M782.5,2015.3c-0.8,0.2-1.7,0.3-2.6,0.4l-0.1-0.4c0.5-0.3,1-0.7,1.3-1.3l0.5,0.2c-0.2,0.4-0.5,0.7-0.9,1
	c0.5,0,1-0.1,1.5-0.2c-0.1-0.1-0.3-0.3-0.4-0.4l0.4-0.2c0.3,0.3,0.6,0.6,0.8,0.9h0.3v-0.1c0.5-0.3,0.9-0.7,1.1-1.2l0.5,0.2
	c-0.2,0.3-0.5,0.7-0.8,0.9c0.4,0,0.9-0.1,1.3-0.1l-0.3-0.4l0.4-0.2c0.4,0.4,0.7,0.8,1,1.2l-0.4,0.3c-0.1-0.2-0.2-0.3-0.3-0.5
	c-0.7,0.1-1.3,0.2-2,0.2c0.9,0.6,1.9,1,3,1.2l-0.3,0.5c-1.2-0.3-2.3-0.8-3.3-1.5c-1,0.7-2.1,1.2-3.3,1.6l-0.3-0.5
	C780.5,2016.5,781.6,2016,782.5,2015.3L782.5,2015.3z M785.9,2013.8l-0.5,0.3c-0.1-0.1-0.3-0.3-0.4-0.4c-1.6,0.1-3.2,0.2-4.6,0.3
	l-0.1-0.5c0.8-0.1,1.5-0.5,2-1.1l0.5,0.1c-0.3,0.3-0.7,0.7-1.1,0.9c1.2-0.1,2.1-0.1,2.7-0.2l-0.6-0.5l0.4-0.3
	C784.8,2012.9,785.4,2013.4,785.9,2013.8z M783.8,2016.5c-0.8,0.7-1.8,1.1-2.9,1.2l-0.3-0.4c1-0.1,2-0.5,2.8-1.1L783.8,2016.5z
	 M784.7,2017.2c-1.1,0.9-2.4,1.4-3.8,1.6l-0.3-0.4c1.3-0.2,2.6-0.7,3.7-1.5L784.7,2017.2z M785.8,2017.7c-1.4,1.1-3.1,1.8-4.8,2.1
	l-0.3-0.4c1.7-0.2,3.3-0.9,4.7-1.9L785.8,2017.7z"/>
<path class="st0" d="M790.4,2013.2v-0.8h0.6v0.8h1.8v0.4c0.3-0.3,0.6-0.7,0.9-1.1l0.4,0.3c-0.5,0.6-1,1.2-1.6,1.7h2v0.6h-2.6
	c-0.4,0.3-0.8,0.6-1.2,0.8h3.4v0.5h-4l-0.3,0.8h3.8c0,0.7-0.1,1.4-0.4,2c-0.3,0.2-0.7,0.4-1.1,0.3c-0.3,0-0.7,0-1,0l-0.2-0.5
	c0.4,0,0.8,0,1.1,0s0.7-0.1,0.8-0.2c0.1-0.3,0.2-0.7,0.2-1.1h-3.9l0.4-1.3c-0.6,0.3-1.3,0.5-1.9,0.7l-0.2-0.5
	c1.3-0.4,2.5-0.9,3.6-1.6h-3.2v-0.6h2.7v-0.9h-2.1v-0.5L790.4,2013.2z M792.7,2013.8H791v0.9h0.7
	C792.1,2014.4,792.4,2014.1,792.7,2013.8z"/>
<path class="st0" d="M774.1,2381c0,0.8-0.1,1.5-0.3,2.3l-0.4-0.1c0.2-0.7,0.2-1.5,0.2-2.2L774.1,2381z M775,2379.4v7.3h-0.6v-7.3
	H775z M778.6,2379.4v0.5h1.9v0.5h-1.9v0.6h1.6v0.5h-1.6v0.5h2.1v0.5H776v-0.2l-0.4,0.1c-0.1-0.5-0.3-1-0.5-1.4l0.4-0.1
	c0.2,0.4,0.3,0.9,0.5,1.3v-0.1h2.1v-0.5h-1.6v-0.5h1.6v-0.6h-1.9v-0.4h1.9v-0.5L778.6,2379.4z M776.4,2386.8l-0.4-0.4
	c0.4-0.5,0.6-1.2,0.6-1.8v-1.6h3.5v3.2c0,0.3-0.2,0.6-0.5,0.6c-0.1,0-0.1,0-0.2,0h-1l-0.1-0.5h1c0.2,0,0.2-0.1,0.2-0.3v-0.4H777
	C776.9,2385.9,776.7,2386.4,776.4,2386.8L776.4,2386.8z M777.1,2384.5c0,0.2,0,0.3,0,0.5h2.5v-0.6L777.1,2384.5L777.1,2384.5z
	 M779.6,2383.4h-2.4v0.6h2.4V2383.4z"/>
<path class="st0" d="M783.8,2384.9c-0.7,0.4-1.5,0.6-2.2,0.9l-0.2-0.6c0.3-0.1,0.6-0.1,0.8-0.2v-3h-0.8v-0.6h0.8v-1.9h0.6v1.9h0.7
	v0.6h-0.7v2.8c0.3-0.1,0.7-0.3,1-0.4L783.8,2384.9z M788.1,2382.4v2.5h-1v1c0,0.2,0.1,0.3,0.2,0.3h0.7c0.1,0,0.2,0,0.2-0.1
	c0.1-0.3,0.1-0.5,0.1-0.8l0.5,0.2c0,0.3-0.1,0.7-0.2,1c-0.1,0.1-0.3,0.2-0.5,0.2h-0.9c-0.3,0-0.6-0.2-0.6-0.5c0,0,0-0.1,0-0.1v-1.1
	h-0.8c-0.1,0.4-0.3,0.8-0.6,1.2c-0.5,0.4-1.1,0.6-1.7,0.7l-0.2-0.5c0.5-0.1,1-0.3,1.5-0.6c0.2-0.2,0.4-0.5,0.5-0.8h-0.9v-2.5
	L788.1,2382.4z M785.9,2380c-0.1-0.2-0.2-0.4-0.2-0.6l0.6-0.1c0.1,0.2,0.2,0.5,0.2,0.7h1.9v0.5h-0.8c-0.1,0.3-0.2,0.6-0.3,0.8h1.4
	v0.5h-4.8v-0.5h1.3c-0.1-0.3-0.2-0.6-0.3-0.8h-0.7v-0.5L785.9,2380z M787.5,2383.4v-0.6h-2.7v0.6H787.5z M787.5,2383.8h-2.7v0.6h2.7
	V2383.8z M787,2380.5h-1.6c0.1,0.3,0.2,0.5,0.2,0.8h1.1C786.8,2381.1,786.9,2380.8,787,2380.5L787,2380.5z"/>
<path class="st0" d="M791.5,2383.5c-0.3,1-0.8,2-1.5,2.9l-0.5-0.3c0.6-0.8,1.1-1.7,1.4-2.7L791.5,2383.5z M796.5,2381.9v0.6h-3.1
	v4.3h-0.6v-4.3h-3.1v-0.6H796.5z M795.8,2379.9v0.6h-5.4v-0.6H795.8z M796.6,2386l-0.5,0.2c-0.4-1-0.9-1.9-1.5-2.9l0.5-0.2
	C795.7,2384.1,796.2,2385,796.6,2386L796.6,2386z"/>
<path class="st0" d="M798.7,2384.9c-0.2,0.6-0.4,1.2-0.8,1.7l-0.5-0.3c0.3-0.4,0.6-0.9,0.7-1.5L798.7,2384.9z M798,2380.4v-0.5h2.7
	c-0.1-0.2-0.1-0.3-0.2-0.5l0.6-0.1c0.1,0.2,0.2,0.4,0.2,0.6h2.8v0.5h-1.3l-0.3,0.6h2v0.5h-6.9v-0.5h1.9l-0.3-0.6H798z M803.6,2382
	v2.4h-5.1v-2.4L803.6,2382z M803.1,2383v-0.5h-4v0.5H803.1z M803.1,2383.4h-4v0.5h4V2383.4z M800.2,2386.7c-0.5,0-0.8-0.2-0.8-0.7
	v-1.1h0.6v0.9c0,0.2,0.1,0.3,0.4,0.3h1.7c0.1,0,0.3,0,0.4-0.1c0.1-0.1,0.2-0.3,0.2-0.7l0.5,0.2c0,0.4-0.1,0.7-0.3,1
	c-0.2,0.1-0.4,0.2-0.7,0.1L800.2,2386.7z M801.9,2381.1l0.3-0.6h-2.4l0.3,0.6H801.9z M801.9,2385.5l-0.5,0.3
	c-0.2-0.3-0.5-0.7-0.8-0.9l0.5-0.3C801.4,2384.8,801.7,2385.1,801.9,2385.5L801.9,2385.5z M804.7,2386.1l-0.5,0.3
	c-0.3-0.5-0.6-1-1-1.4l0.5-0.3C804.1,2385.2,804.4,2385.6,804.7,2386.1L804.7,2386.1z"/>
<path class="st0" d="M808.5,2382.4c-0.8,0.2-1.7,0.3-2.6,0.4l-0.1-0.4c0.5-0.3,1-0.7,1.3-1.3l0.5,0.1c-0.2,0.4-0.5,0.7-0.9,1
	c0.5,0,1-0.1,1.5-0.2c-0.1-0.1-0.3-0.3-0.4-0.4l0.4-0.2c0.3,0.3,0.6,0.6,0.8,0.9h0.3v-0.1c0.5-0.3,0.9-0.7,1.1-1.2l0.5,0.1
	c-0.2,0.4-0.5,0.7-0.8,0.9c0.4,0,0.9-0.1,1.3-0.1c-0.1-0.1-0.2-0.3-0.3-0.4l0.4-0.2c0.4,0.4,0.7,0.8,1,1.2l-0.4,0.3
	c-0.1-0.2-0.2-0.3-0.3-0.5c-0.7,0.1-1.3,0.2-2,0.2c0.9,0.6,1.9,1,3,1.2l-0.3,0.5c-1.2-0.3-2.3-0.8-3.3-1.5c-1,0.7-2.1,1.2-3.3,1.6
	l-0.3-0.5C806.5,2383.5,807.6,2383,808.5,2382.4L808.5,2382.4z M811.9,2380.8l-0.5,0.3c-0.1-0.1-0.3-0.3-0.4-0.4
	c-1.6,0.1-3.2,0.2-4.6,0.3l-0.1-0.5c0.8-0.1,1.5-0.5,2-1.1l0.5,0.1c-0.3,0.3-0.7,0.7-1.1,0.9c1.2-0.1,2.1-0.1,2.7-0.2l-0.6-0.5
	l0.4-0.3C810.8,2379.9,811.4,2380.4,811.9,2380.8z M809.8,2383.5c-0.8,0.7-1.8,1.1-2.9,1.2l-0.3-0.4c1-0.1,2-0.5,2.8-1.1
	L809.8,2383.5z M810.7,2384.2c-1.1,0.9-2.4,1.4-3.8,1.6l-0.3-0.4c1.3-0.2,2.6-0.7,3.7-1.5L810.7,2384.2z M811.8,2384.7
	c-1.4,1.1-3.1,1.8-4.8,2.1l-0.3-0.4c1.7-0.2,3.3-0.9,4.7-1.9L811.8,2384.7z"/>
<path class="st0" d="M816.4,2380.2v-0.8h0.6v0.8h1.8v0.4c0.3-0.3,0.6-0.7,0.9-1.1l0.4,0.3c-0.5,0.6-1,1.2-1.6,1.7h2v0.6h-2.6
	c-0.4,0.3-0.8,0.6-1.2,0.8h3.4v0.5h-4l-0.3,0.8h3.8c0,0.7-0.1,1.4-0.4,2c-0.3,0.2-0.7,0.4-1.1,0.3c-0.3,0-0.7,0-1,0l-0.2-0.5
	c0.4,0,0.8,0,1.1,0s0.7-0.1,0.8-0.2c0.1-0.3,0.2-0.7,0.2-1.1h-3.9l0.4-1.3c-0.6,0.3-1.3,0.5-1.9,0.7l-0.2-0.5
	c1.3-0.4,2.5-0.9,3.6-1.6h-3.2v-0.6h2.7v-0.9h-2.1v-0.5L816.4,2380.2z M818.7,2380.8H817v0.9h0.7
	C818.1,2381.4,818.4,2381.1,818.7,2380.8z"/>
<path class="st1" d="M1042.7,20.1l0.5,0.2c-0.5,3.9-2.1,6.3-4.2,7.4c-0.2-0.2-0.4-0.4-0.6-0.6c1.2-0.6,2.2-1.6,2.8-2.9
	c-0.5-0.6-1-1.2-1.6-1.7c-0.2,0.3-0.4,0.6-0.6,0.9c-0.2-0.2-0.4-0.3-0.6-0.5c1-1.3,1.6-2.8,1.9-4.4l0.7,0.1
	c-0.1,0.5-0.2,0.9-0.4,1.4h1.9L1042.7,20.1z M1040.5,20.9c-0.1,0.4-0.3,0.8-0.5,1.1c0.6,0.5,1.1,1,1.7,1.5c0.3-0.9,0.6-1.8,0.7-2.7
	L1040.5,20.9z M1045.1,21.6c0.9,0.7,1.7,1.4,2.5,2.3l-0.6,0.5c-0.7-0.8-1.4-1.4-2.2-2.1v5.4h-0.8v-9.1h0.8v3.2L1045.1,21.6z"/>
<path class="st1" d="M1056.8,27c0.2,0,0.2-0.1,0.2-1.4c0.2,0.1,0.4,0.2,0.6,0.3c0,1.4-0.2,1.7-0.7,1.7h-0.5c-0.6,0-0.7-0.2-0.7-0.9
	v-2.2h-0.6c-0.1,1.5-0.5,2.6-1.8,3.3c-0.1-0.2-0.3-0.4-0.4-0.5h-3v0.5h-0.6v-3.4c-0.2,0.2-0.3,0.5-0.5,0.7c-0.1-0.2-0.2-0.3-0.3-0.5
	c0.6-0.6,1-1.3,1.3-2.1l0.5,0.2c-0.1,0.2-0.2,0.4-0.3,0.6h1.2c-0.1-0.2-0.2-0.4-0.3-0.5l0.5-0.2c0.2,0.2,0.3,0.5,0.4,0.7h1.3v0.5
	h-1.4v0.6h1.2v0.5h-1.2v0.6h1.3V26h-1.3v0.7h1.4v0.4c0.8-0.6,1.3-1.5,1.3-2.5h-0.9V19h3.7v5.5h-0.9v2.3c0,0.2,0,0.2,0.2,0.2
	L1056.8,27z M1049.8,19.8h-1.4v-0.6h1.4v-0.6h0.6v1.8h-0.6V19.8z M1048.8,20.6h1.8v1.8h-1.8V20.6z M1049.3,21.9h0.8V21h-0.8V21.9z
	 M1051.1,23.7h-1.2v0.6h1.2V23.7z M1051.1,24.8h-1.2v0.6h1.2V24.8z M1049.9,26.7h1.2V26h-1.2V26.7z M1053,22.3h-1.8v-1.7h1.8
	L1053,22.3z M1052,20.4h-0.6v-1.8h0.6v0.6h1.3v0.6h-1.3L1052,20.4z M1052.6,21h-0.9v0.9h0.9V21z M1054.2,20.6h2.4v-1h-2.4V20.6z
	 M1054.2,22.2h2.4v-1h-2.4V22.2z M1054.2,23.8h2.4v-1h-2.4V23.8z"/>
<path class="st1" d="M1067.3,24.3c-0.2,2.1-0.4,2.9-0.7,3.2c-0.2,0.2-0.4,0.3-0.6,0.3c-0.4,0-0.8,0-1.2,0c0-0.2-0.1-0.5-0.2-0.7
	c0.4,0,0.7,0.1,1.1,0c0.1,0,0.3,0,0.3-0.1c0.2-0.2,0.4-0.8,0.5-2.4h-6c-0.5,0.5-1.1,0.8-1.8,1.2c-0.1-0.2-0.2-0.4-0.4-0.6
	c1.8-1,3.3-2.4,4.2-4.2h-3.6v-0.7h2c-0.2-0.5-0.5-1-0.8-1.5l0.6-0.2c0.3,0.4,0.6,0.9,0.8,1.5l-0.6,0.2h1.8c0.3-0.6,0.5-1.2,0.7-1.8
	l0.7,0.2c-0.2,0.5-0.4,1-0.6,1.5h2c-0.1,0.6-0.2,1.3-0.3,1.8h1.2c-0.1,0.6-0.2,1.3-0.3,1.8h1L1067.3,24.3z M1058.8,27.3
	c0.6-0.5,1-1.3,1.2-2.1l0.6,0.2c-0.1,0.9-0.6,1.6-1.2,2.2L1058.8,27.3z M1062.3,22.8c-0.3,0.4-0.6,0.8-1,1.2h4.3
	c0.1-0.3,0.1-0.8,0.2-1.2H1062.3z M1061.9,25.5c0.2,0.6,0.3,1.2,0.3,1.8l-0.7,0.1c0-0.6-0.1-1.2-0.2-1.8L1061.9,25.5z M1063.4,21.1
	c-0.2,0.4-0.4,0.8-0.7,1.1h2c0.1-0.3,0.2-0.7,0.2-1.1H1063.4z M1063.4,25.3c0.3,0.5,0.4,1.1,0.6,1.6l-0.6,0.2
	c-0.1-0.6-0.3-1.1-0.5-1.6L1063.4,25.3z M1065,26.6c-0.2-0.5-0.4-0.9-0.7-1.4l0.5-0.2c0.3,0.4,0.6,0.8,0.8,1.3L1065,26.6z"/>
<path class="st1" d="M1068.3,26.1l0.5-0.6c0.5,0.5,1.1,0.8,1.8,0.8c0.7,0.1,1.4-0.5,1.5-1.2c0-0.1,0-0.1,0-0.2
	c0-0.9-0.6-1.5-2.3-1.5v-0.7c1.5,0,2-0.6,2-1.4c0-0.6-0.5-1.2-1.1-1.2c0,0-0.1,0-0.1,0c-0.6,0-1.1,0.3-1.5,0.7l-0.5-0.6
	c0.5-0.5,1.2-0.9,2-0.9c1.2,0,2.1,0.7,2.1,1.8c0,0.8-0.5,1.5-1.3,1.8l0,0c0.9,0.1,1.6,0.9,1.7,1.9c0,1.2-1,2.1-2.2,2.1
	c-0.1,0-0.1,0-0.2,0C1069.8,27.1,1068.9,26.8,1068.3,26.1z"/>
<path class="st1" d="M1074.6,19.7h1.8c2.2,0,3.5,1.3,3.5,3.6s-1.2,3.7-3.4,3.7h-1.9L1074.6,19.7z M1076.3,26.2
	c1.7,0,2.6-1.1,2.6-2.9s-0.8-2.9-2.6-2.9h-0.8v5.8H1076.3z"/>
<path class="st1" d="M1083.5,23.7c-0.4,1.2-1.1,2.3-2,3.2c-0.2-0.2-0.4-0.3-0.7-0.5c0.9-0.8,1.5-1.8,1.9-2.9L1083.5,23.7z
	 M1085.8,22.4v5.3h-0.8v-5.3h-3.9v-0.7h8.7v0.7L1085.8,22.4z M1088.9,20.1h-7v-0.7h7V20.1z M1088.1,23.5c0.7,0.9,1.4,1.9,1.8,3
	l-0.7,0.3c-0.4-1.1-1-2.1-1.8-3.1L1088.1,23.5z"/>
<path class="st1" d="M1091.1,27.1c0.5-0.5,0.9-1.1,1.2-1.7l0.6,0.3c-0.3,0.7-0.7,1.3-1.2,1.8L1091.1,27.1z M1099.7,21v0.6h-8.5V21
	h2.3c-0.1-0.3-0.2-0.6-0.4-0.9l0.6-0.1h-2.1v-0.6h3.6c-0.1-0.2-0.2-0.4-0.3-0.7l0.7-0.1c0.2,0.3,0.3,0.5,0.4,0.8h3.2V20h-2l0.6,0.1
	c-0.2,0.3-0.3,0.6-0.5,0.9L1099.7,21z M1098.6,25h-3.5c0.5,0.3,1,0.6,1.4,1l-0.5,0.5c-0.5-0.4-1-0.8-1.6-1.1l0.3-0.3h-2.5v-2.9h6.2
	V25z M1097.8,22.6h-4.8v0.7h4.8V22.6z M1097.8,23.8h-4.8v0.7h4.8V23.8z M1096.5,27.1c0.4,0,0.5-0.1,0.5-1c0.2,0.1,0.4,0.2,0.6,0.3
	c-0.1,1.1-0.3,1.4-1.1,1.4h-1.9c-1,0-1.3-0.2-1.3-0.9v-1.3h0.7v1.3c0,0.2,0.1,0.3,0.6,0.3L1096.5,27.1z M1093.8,20
	c0.2,0.3,0.3,0.7,0.4,1h2.3c0.2-0.3,0.3-0.7,0.5-1H1093.8z M1098.4,25.3c0.5,0.5,0.9,1.1,1.3,1.7l-0.6,0.3c-0.3-0.6-0.8-1.2-1.3-1.8
	L1098.4,25.3z"/>
<path class="st1" d="M1109.6,19v8.7h-0.7v-0.5h-6.9v0.5h-0.7V19H1109.6z M1108.9,26.6v-7h-6.9v7H1108.9z M1108.4,22.2v0.5h-6v-0.5
	h2.6c0-0.2,0-0.4,0.1-0.6h-1.9v-1.5h4.3v1.5h-1.9c0,0.2,0,0.4-0.1,0.6L1108.4,22.2z M1102.9,23h4.9v3.2h-4.9V23z M1103.5,25.7h3.7
	v-2.2h-3.7V25.7z M1103.8,21.2h3.1v-0.7h-3.1V21.2z M1104.3,23.9h2.2v1.4h-2.2V23.9z M1104.8,24.9h1.2v-0.6h-1.2L1104.8,24.9z"/>
</svg>
