<svg width="462" height="45" viewBox="0 0 462 45" fill="#fff" xmlns="http://www.w3.org/2000/svg">
<path d="M0.9,30.7c0.6,3.5,2.3,7.2,4.8,9.9c6.5,7,21.8,3.5,19.2-7.8c-1.5-6.6-14.7-6-20.2-11.1
	C-6.1,11.5,6.8-5.7,23.1,1.9c1.3,0.6,2.8,0.7,3.2-0.9h0.9v11.5h-0.8c-1.4-4.1-2.8-8.6-6.7-10.6c-5-2.6-14.3-0.4-14.5,6.5
	C5.7,17.4,22,16,28,22.9c8.7,10.1-3.5,28-23.4,20.1c-1.6-0.6-3.1-0.9-3.6,1H0V30.7L0.9,30.7L0.9,30.7z M100.9,0
	c11.8,0,21.7,9.7,21.7,22.1c0,12-10.4,22.1-21.7,22.1c-11.3,0-21.8-9.8-21.8-21.9C79.1,8.6,90.6,0,100.9,0z M100.9,43.4
	c11.8,0,12.2-10,12.2-21.6c0-11-0.7-20.9-12.3-20.9c-11.5,0-12.3,10.5-12.3,21.4C88.6,35.5,90,43.4,100.9,43.4z M78.2,1.8V1H58.8
	v0.8h5.4v19.3H47.5V1.8h5.4V1H33.5v0.8h5.4v41.4h-5.4v0.8h19.5v-0.8h-5.4V21.9h16.7v21.3h-5.4v0.8h19.5v-0.8h-5.4V1.8H78.2z
	 M418.3,31.2V44h-37.6v-0.8h5.4V3.1h-5.4V2.2h35.2v10h-0.8c-1.4-4.9-5.2-9.2-11.1-9.2h-9.3v18.1h3.3c5.7,0,8.1-3.9,8.9-8.7h0.8v18.2
	h-0.8c-0.9-4.4-3-8.7-8.2-8.7h-3.9v21.2h9.6c7.3,0,13.2-3.5,13.2-12H418.3z M213,1.7v0.8h-5.4v40.8h5.4v0.8h-19.1v-0.8h5.4V2.5h-5.4
	V1.7H213z M223.9,5.9v37.3h5.3V44h-11.6v-0.8h5.3V2.5h-5.3V1.7h13.7L250.7,30V2.5h-5.3V1.7H257v0.8h-5.3V44h-1.6L223.9,5.9z
	 M292.9,13.8c-2.2-9.6-7.7-13.1-14.6-12.2c-6.8,0.9-10.3,7.4-10.3,15.6c0,4.3,0,7.3,0,11.1c0,8.3,2.4,15.7,12.1,15.7
	c8.1,0,8.2-6.3,8.2-14.9h-6v-0.8h18v0.8h-3.8v13.7h-1.1c-1.1-3.1-5.3-0.5-7.3,0.4c-13.2,5.8-29.7-4.1-29.7-20.2
	c0-15.3,14.9-25.9,28.8-21.1c4.1,1.4,4.9,1.5,5.5-0.2h1v12.2H292.9L292.9,13.8z M338.4,2.5V1.7l21.9,0c14.1,0,17.3,17.8-0.1,19.4
	c9.6,1.8,13,1.8,13.5,15.3c0.3,9.5,4.4,7.7,6.4,5.2l0.6,0.5c-2.5,4-15.6,5.1-16.1-5.3c-0.5-13.6-2.3-15.6-12.1-15.1v21.5h5.5V44
	h-19.6v-0.8h5.5V2.5H338.4L338.4,2.5z M362.8,12.3c0-8.1-2.5-10.7-10.2-9.8v18.4C360.1,21.4,362.8,19.3,362.8,12.3z M139.1,24.7
	v18.5h5.3V44h-19.1v-0.8h5.3V2.5h-5.3h0V1.7l21.2,0C161.3,1.7,163.4,27,139.1,24.7z M150,13.3c0-8.1-3.4-11.7-10.9-10.8v21.4
	C146.4,24.4,150,20.3,150,13.3z M172.3,24.7v18.5h5.3V44h-19.1v-0.8h5.3V2.5h-5.3h0V1.7l21.2,0C194.5,1.7,196.6,27,172.3,24.7z
	 M183.2,13.3c0-8.1-3.4-11.7-10.9-10.8v21.4C179.7,24.4,183.2,20.3,183.2,13.3z M301.3,43.2L319.1,0h1.6l18.8,43.2h5.1V44h-20v-0.8
	h5.5l-6.9-15.9h-14.3l-6.6,15.9h5.3V44h-11.3v-0.8H301.3z M309.2,26.4h13.7l-7-16.2L309.2,26.4z M419.7,43.2L437.5,0h1.6l18.8,43.2
	h5.1V44h-20v-0.8h5.5l-6.9-15.9h-14.3l-6.6,15.9h5.3V44h-11.3v-0.8H419.7z M427.6,26.4h13.7l-7-16.2L427.6,26.4z"/>
</svg>
