<svg width="462" height="45" viewBox="0 0 462 45" fill="none" xmlns="http://www.w3.org/2000/svg">
<path d="M23.34 4.1L25.92 0.4H28.01L28.18 15.85H26.29C25.1 11.11 23.35 7.65 21.03 5.47C18.71 3.29 16.04 2.2 13.02 2.2C10.5 2.2 8.43 2.96 6.83 4.47C5.22 5.98 4.42 7.83 4.42 10.01C4.42 11.37 4.73 12.56 5.34 13.58C5.95 14.6 6.86 15.44 8.08 16.08C9.29 16.72 11.58 17.4 14.95 18.12C19.67 19.15 22.98 20.19 24.89 21.24C26.79 22.29 28.21 23.62 29.15 25.21C30.09 26.81 30.55 28.67 30.55 30.82C30.55 34.64 29.26 37.81 26.69 40.32C24.12 42.83 20.8 44.09 16.73 44.09C12.35 44.09 8.55 42.68 5.32 39.85L2.08 43.81H0V27.38H2.06C2.86 31.91 4.66 35.48 7.45 38.1C10.24 40.72 13.38 42.03 16.88 42.03C19.71 42.03 22.02 41.19 23.8 39.52C25.59 37.85 26.48 35.82 26.48 33.43C26.48 32.07 26.15 30.88 25.48 29.86C24.81 28.84 23.75 27.98 22.3 27.28C20.85 26.58 17.99 25.74 13.73 24.74C9.05 23.63 5.85 22.39 4.15 21.01C1.76 19.06 0.57 16.3 0.57 12.72C0.57 9.14 1.76 5.95 4.14 3.57C6.52 1.19 9.57 0 13.27 0C15.05 0 16.74 0.32 18.34 0.95C19.95 1.58 21.61 2.63 23.33 4.1H23.34Z" fill="white"/>
<path d="M32.99 0.889999H51.11V3.04H47.78C46.61 3.04 45.85 3.25 45.5 3.66C45.15 4.07 44.97 5.07 44.97 6.66V19.73H64.35V6.65C64.35 5.01 64.18 3.99 63.85 3.61C63.51 3.23 62.73 3.04 61.48 3.04H58.38V0.889999H76.38V3.04H73.08C72.26 3.04 71.68 3.15 71.35 3.36C71.02 3.57 70.74 3.93 70.53 4.45C70.42 4.78 70.36 5.62 70.36 7V37.5C70.36 38.97 70.48 39.86 70.73 40.17C71.23 40.82 72.13 41.14 73.45 41.14H76.37V43.29H58.37V41.14H61.47C62.69 41.14 63.52 40.81 63.96 40.14C64.21 39.78 64.33 38.82 64.33 37.27V22.53H44.95V37.5C44.95 38.99 45.06 39.89 45.29 40.2C45.77 40.83 46.59 41.15 47.76 41.15H51.09V43.3H32.97V41.15H36.44C37.05 41.15 37.54 41.03 37.9 40.78C38.26 40.53 38.53 40.18 38.7 39.72C38.8 39.41 38.84 38.6 38.84 37.28V6.65C38.84 5.06 38.66 4.07 38.31 3.65C37.96 3.24 37.19 3.03 36 3.03H32.96V0.889999H32.99Z" fill="white"/>
<path d="M98.69 0C102.26 0 105.61 0.94 108.74 2.82C111.87 4.7 114.31 7.33 116.08 10.7C117.85 14.07 118.73 17.87 118.73 22.1C118.73 26.33 117.84 30.14 116.06 33.54C114.28 36.94 111.84 39.59 108.74 41.5C105.63 43.4 102.34 44.35 98.86 44.35C95.38 44.35 92.27 43.42 89.28 41.56C86.3 39.7 83.9 37.03 82.1 33.56C80.29 30.09 79.39 26.25 79.39 22.02C79.39 17.79 80.26 14.09 82.01 10.74C83.76 7.39 86.15 4.76 89.19 2.86C92.23 0.96 95.39 0.01 98.68 0.01L98.69 0ZM99.15 2.21C95.42 2.21 92.4 3.76 90.09 6.85C87.78 9.95 86.62 14.99 86.62 21.99C86.62 29.58 87.8 34.82 90.17 37.73C92.54 40.64 95.47 42.09 98.97 42.09C101.42 42.09 103.57 41.43 105.42 40.11C107.27 38.79 108.75 36.7 109.85 33.83C110.95 30.96 111.5 27.2 111.5 22.53C111.5 17.45 110.98 13.48 109.95 10.62C108.92 7.76 107.45 5.65 105.54 4.27C103.63 2.89 101.5 2.21 99.15 2.21Z" fill="white"/>
<path d="M121.21 0.889999H142.13C146.85 0.889999 150.46 1.96 152.95 4.1C155.44 6.24 156.68 9.04 156.68 12.5C156.68 15.96 155.54 18.6 153.24 20.41C150.09 22.91 146.21 24.17 141.59 24.17H134.03V38.65C134.03 39.49 134.23 40.09 134.63 40.46C135.17 40.92 135.88 41.15 136.78 41.15H141.6V43.3H121.22V41.15H125.48C126.32 41.15 126.94 40.98 127.34 40.65C127.73 40.32 127.93 39.86 127.93 39.29V5.48C127.93 4.62 127.68 4 127.18 3.62C126.68 3.24 125.74 3.05 124.36 3.05H121.22V0.889999H121.21ZM134.02 22.08H139.77C143.41 22.08 146.04 21.32 147.65 19.8C149.26 18.28 150.07 15.77 150.07 12.27C150.07 9.82 149.71 7.95 148.98 6.64C148.26 5.33 147.19 4.36 145.79 3.73C144.39 3.1 142.08 2.78 138.88 2.78C136.76 2.78 135.42 2.98 134.86 3.38C134.3 3.78 134.02 4.48 134.02 5.47V22.07V22.08Z" fill="white"/>
<path d="M157.44 0.889999H178.36C183.08 0.889999 186.69 1.96 189.18 4.1C191.67 6.24 192.91 9.04 192.91 12.5C192.91 15.96 191.77 18.6 189.47 20.41C186.32 22.91 182.44 24.17 177.82 24.17H170.26V38.65C170.26 39.49 170.46 40.09 170.86 40.46C171.4 40.92 172.11 41.15 173.01 41.15H177.83V43.3H157.45V41.15H161.71C162.55 41.15 163.17 40.98 163.57 40.65C163.96 40.32 164.16 39.86 164.16 39.29V5.48C164.16 4.62 163.91 4 163.41 3.62C162.91 3.24 161.97 3.05 160.59 3.05H157.45V0.889999H157.44ZM170.26 22.08H176.01C179.65 22.08 182.28 21.32 183.89 19.8C185.5 18.28 186.31 15.77 186.31 12.27C186.31 9.82 185.95 7.95 185.22 6.64C184.5 5.33 183.43 4.36 182.03 3.73C180.63 3.1 178.32 2.78 175.12 2.78C173 2.78 171.66 2.98 171.1 3.38C170.54 3.78 170.26 4.48 170.26 5.47V22.07V22.08Z" fill="white"/>
<path d="M193.58 0.889999H213.13V3.04H209.78C208.29 3.04 207.35 3.23 206.96 3.6C206.57 3.97 206.37 4.76 206.37 5.97V38.08C206.37 39.36 206.54 40.16 206.89 40.49C207.35 40.93 208.18 41.15 209.38 41.15H213.14V43.3H193.59V41.15H197.29C198.59 41.15 199.43 40.96 199.81 40.58C200.19 40.2 200.38 39.37 200.38 38.09V5.96C200.38 4.74 200.21 3.98 199.86 3.69C199.32 3.25 198.34 3.03 196.91 3.03H193.58V0.889999Z" fill="white"/>
<path d="M214.78 0.889999H224.9L250.47 34.2V10.09C250.47 7.66 249.92 5.87 248.81 4.7C247.8 3.63 246.29 3.08 244.28 3.04V0.889999H259.13V3.04C257.61 3.04 256.48 3.25 255.73 3.67C254.98 4.09 254.33 4.86 253.77 5.96C253.21 7.07 252.93 8.28 252.93 9.6V43.29H250.24L223.78 8.61V34.2C223.78 36.51 224.36 38.24 225.53 39.38C226.7 40.52 228.5 41.11 230.95 41.14V43.29H214.78V41.14C216.81 41.06 218.41 40.4 219.6 39.15C220.79 37.9 221.38 36.37 221.38 34.56V5.84L220.88 5.29C219.92 4.25 219.25 3.63 218.85 3.44C218.3 3.17 217.58 3.04 216.71 3.04H214.8V0.889999H214.78Z" fill="white"/>
<path d="M290.29 4.24L292.64 0H294.56L295.62 16.92H293.76C292.33 12.06 290.64 8.54 288.69 6.36C286.21 3.59 283.36 2.21 280.16 2.21C277.7 2.21 275.49 2.91 273.54 4.3C271.59 5.69 270.1 7.79 269.06 10.57C268.02 13.36 267.5 17.28 267.5 22.34C267.5 27.4 268.02 31.09 269.06 33.86C270.1 36.63 271.54 38.67 273.37 39.98C275.2 41.29 277.35 41.94 279.81 41.94C283.15 41.94 285.73 41 287.56 39.13C289.38 37.26 290.29 34.84 290.29 31.88V27.89C290.29 27.26 290.05 26.77 289.56 26.43C289.07 26.09 288.27 25.91 287.17 25.91H283.59V23.9H301.37V25.91H298.96C297.89 25.91 297.13 26.1 296.67 26.47C296.21 26.84 295.98 27.38 295.98 28.09V44.29H294.09C293.4 41.77 292.69 39.35 291.94 37.04C290.51 39.39 288.8 41.15 286.82 42.33C284.84 43.5 282.6 44.09 280.1 44.09C276.53 44.09 273.21 43.17 270.17 41.34C267.12 39.51 264.71 36.92 262.95 33.59C261.18 30.26 260.3 26.48 260.3 22.28C260.3 18.08 261.19 14.27 262.97 10.93C264.75 7.59 267.18 4.93 270.27 2.96C273.36 0.99 276.48 0.01 279.63 0.01C281.43 0.01 283.14 0.31 284.78 0.92C286.41 1.53 288.26 2.64 290.33 4.25L290.29 4.24Z" fill="white"/>
<path d="M320.54 0H322.46L337.67 38.79C338.28 40.36 339.53 41.14 341.43 41.14H342.75V43.29H325.84V41.14H327.19C328.95 41.14 330.19 40.95 330.92 40.57C331.42 40.3 331.67 39.89 331.67 39.34C331.67 39.01 331.6 38.67 331.47 38.31L327.96 29.31H311.19L309.22 34.47C308.7 35.85 308.45 36.94 308.45 37.74C308.45 38.68 308.88 39.48 309.75 40.15C310.62 40.82 311.89 41.15 313.55 41.15H314.98V43.3H299.61V41.15C301.25 41.15 302.55 40.79 303.51 40.08C304.47 39.36 305.34 38 306.15 35.99L320.54 0ZM319.7 8.17L312.09 27.06H327.06L319.7 8.17Z" fill="white"/>
<path d="M340.98 0.889999H362.88C367.12 0.889999 370.42 1.86 372.76 3.79C375.1 5.72 376.27 8.25 376.27 11.39C376.27 13.26 375.81 14.93 374.88 16.39C373.95 17.85 372.62 19.02 370.87 19.89C369.12 20.76 366.37 21.39 362.63 21.77C365.36 22.52 367.23 23.25 368.26 23.96C369.29 24.68 370.11 25.6 370.73 26.74C371.35 27.88 372.07 30.2 372.88 33.69C373.46 36.19 374.07 37.9 374.72 38.82C375.22 39.53 375.75 39.88 376.33 39.88C376.91 39.88 377.47 39.45 377.98 38.58C378.49 37.71 378.8 36.18 378.91 33.98H380.86C380.5 40.48 378.1 43.73 373.66 43.73C372.26 43.73 371.06 43.38 370.03 42.67C369.01 41.96 368.24 40.92 367.72 39.55C367.32 38.52 366.87 35.81 366.37 31.44C366.08 28.9 365.63 27.09 365.01 26.02C364.39 24.95 363.42 24.09 362.1 23.44C360.78 22.79 359.2 22.47 357.37 22.47H353.9V39.13C353.9 39.84 354.08 40.33 354.44 40.62C354.9 40.98 355.62 41.16 356.59 41.16H360.66V43.31H340.96V41.16H345.12C346.04 41.16 346.71 40.98 347.14 40.62C347.57 40.26 347.78 39.76 347.78 39.13V5.22C347.78 4.49 347.56 3.95 347.12 3.59C346.68 3.23 346.01 3.05 345.11 3.05H340.95V0.889999H340.98ZM353.91 20.39H358.93C362.29 20.39 364.93 19.76 366.83 18.49C368.73 17.22 369.68 14.97 369.68 11.72C369.68 9.49 369.32 7.72 368.6 6.42C367.88 5.12 366.94 4.24 365.78 3.76C364.61 3.28 362.32 3.04 358.9 3.04C356.64 3.04 355.25 3.2 354.71 3.51C354.17 3.82 353.91 4.36 353.91 5.13V20.39Z" fill="white"/>
<path d="M382.8 0.889999H416.4L417.2 15.2H415.28C414.52 10.69 413.31 7.54 411.66 5.74C410.01 3.94 407.86 3.04 405.2 3.04H396.9C396.23 3.04 395.73 3.22 395.38 3.58C395.04 3.94 394.86 4.5 394.86 5.24V20.35H398.49C400.43 20.35 402.01 19.65 403.22 18.26C404.43 16.87 405.08 14.72 405.18 11.84H407.16V31.48H405.18C405.08 28.23 404.42 25.9 403.19 24.5C401.96 23.1 400.29 22.39 398.17 22.39H394.85V39.25C394.85 39.86 395.06 40.33 395.47 40.65C395.88 40.98 396.56 41.14 397.52 41.14H404.08C411.2 41.14 415.3 36.59 416.39 27.49H418.45L417.73 43.29H382.78V41.14H385.68C386.81 41.14 387.6 40.94 388.06 40.55C388.52 40.16 388.75 39.59 388.75 38.84V5.25C388.75 4.5 388.55 3.95 388.15 3.59C387.75 3.23 387.12 3.05 386.26 3.05H382.79V0.889999H382.8Z" fill="white"/>
<path d="M438.94 0H440.86L456.07 38.79C456.68 40.36 457.93 41.14 459.83 41.14H461.15V43.29H444.24V41.14H445.59C447.35 41.14 448.59 40.95 449.32 40.57C449.82 40.3 450.07 39.89 450.07 39.34C450.07 39.01 450 38.67 449.87 38.31L446.36 29.31H429.59L427.62 34.47C427.1 35.85 426.85 36.94 426.85 37.74C426.85 38.68 427.28 39.48 428.15 40.15C429.02 40.82 430.29 41.15 431.95 41.15H433.38V43.3H418.01V41.15C419.65 41.15 420.95 40.79 421.91 40.08C422.86 39.36 423.74 38 424.55 35.99L438.94 0ZM438.1 8.17L430.49 27.06H445.46L438.1 8.17Z" fill="white"/>
</svg>
