<svg width="270" height="10" viewBox="0 0 270 10" fill="none" xmlns="http://www.w3.org/2000/svg">
<path d="M4.47715 4.82919L8.06139 8.41343L7.62122 8.8536L4.03698 5.26936L0.44017 8.8536L0 8.41343L3.58424 4.82919L0 1.23238L0.44017 0.792206L4.02441 4.37644L7.60865 0.792206L8.04882 1.23238L4.47715 4.82919ZM0.276678 5.4077V4.20038H1.484V5.4077H0.276678ZM3.43332 2.26363V1.05631H4.64065V2.26363H3.43332ZM3.43332 8.55177V7.34444H4.64065V8.55177H3.43332ZM6.57739 5.4077V4.20038H7.78471V5.4077H6.57739Z" fill="white"/>
<path d="M13.7705 1.987V0.339508C13.7705 0.26405 13.8208 0.213745 13.934 0.213745C14.4244 0.213745 14.676 0.251474 14.676 0.339508C14.676 0.427542 14.6382 0.477847 14.5754 0.490423C14.5125 0.502999 14.4873 0.565881 14.4873 0.691643V1.987H18.4489C18.5243 1.987 18.5746 2.04988 18.5746 2.15049V2.4649C18.5746 2.57808 18.5369 2.62839 18.4489 2.62839H14.7011C15.1664 3.45842 15.5815 4.09981 15.9336 4.53998C16.336 5.09334 16.8265 5.59639 17.405 6.04914C17.8829 6.42642 18.3608 6.72825 18.8387 6.9169C18.8387 6.9672 18.801 6.99236 18.7381 7.01751C18.5998 7.15585 18.474 7.29419 18.386 7.41995C18.3482 7.48283 18.3105 7.49541 18.2854 7.49541C17.5559 7.08039 16.9649 6.64022 16.5121 6.1749C15.9839 5.68442 15.5437 5.14364 15.179 4.57771C14.9401 4.25073 14.7011 3.87344 14.4748 3.43327V6.94205H16.4366C16.5121 6.94205 16.5624 7.00493 16.5624 7.10554V7.40737C16.5624 7.52056 16.5247 7.57087 16.4366 7.57087H14.4748V9.29381C14.4748 9.36927 14.4119 9.41958 14.3113 9.41958H13.9214C13.8082 9.41958 13.7579 9.38185 13.7579 9.29381V7.57087H11.7709C11.6954 7.57087 11.6451 7.52056 11.6451 7.40737V7.09297C11.6451 6.99236 11.6828 6.92947 11.7709 6.92947H13.7705V3.63449C13.4686 4.11239 13.192 4.51483 12.953 4.82924C12.538 5.38259 12.0978 5.89822 11.6074 6.36354C11.054 6.86659 10.5006 7.29419 9.95987 7.64632C9.88441 7.64632 9.82153 7.62117 9.7838 7.58344C9.64546 7.45768 9.50712 7.33192 9.36878 7.20615C9.34363 7.15585 9.33105 7.11812 9.33105 7.09297C9.84668 6.79114 10.2617 6.51446 10.6138 6.2252C11.0917 5.86049 11.5948 5.34486 12.123 4.70347C12.45 4.28846 12.9027 3.59676 13.4938 2.61581H9.72092C9.64546 2.61581 9.59516 2.56551 9.59516 2.45232V2.15049C9.59516 2.04988 9.63289 1.987 9.72092 1.987H13.7705Z" fill="white"/>
<path d="M27.9575 0.465243C28.0581 0.465243 28.121 0.502972 28.121 0.591006V9.29379C28.121 9.36924 28.0581 9.41955 27.9575 9.41955H27.5676C27.467 9.41955 27.4167 9.38182 27.4167 9.29379V9.01711H20.7764V9.29379C20.7764 9.36924 20.7135 9.41955 20.6129 9.41955H20.2231C20.1099 9.41955 20.0596 9.38182 20.0596 9.29379V0.57843C20.0596 0.502972 20.1099 0.452667 20.2231 0.452667H27.9575V0.465243ZM27.4167 8.4386V1.05633H20.7764V8.4386H27.4167ZM26.3854 1.63484C26.486 1.63484 26.5489 1.67257 26.5489 1.7606V3.09368C26.5489 3.16914 26.486 3.20687 26.3854 3.20687H24.5745V3.68477H27.0142C27.052 3.68477 27.0897 3.7225 27.0897 3.81053V4.12494C27.0897 4.2004 27.0646 4.2507 27.0142 4.2507H21.3549C21.292 4.2507 21.2795 4.21297 21.2795 4.12494V3.79796C21.2795 3.7225 21.3046 3.67219 21.3549 3.67219H23.9079V3.20687H22.0969C21.9963 3.20687 21.946 3.18172 21.946 3.09368V1.7606C21.946 1.68514 21.9963 1.63484 22.0969 1.63484H26.3854ZM26.6998 4.7789C26.8005 4.7789 26.8633 4.81663 26.8633 4.89209V7.87267C26.8633 7.94813 26.8005 7.99843 26.6998 7.99843H21.6442C21.531 7.99843 21.4807 7.9607 21.4807 7.87267V4.89209C21.4807 4.81663 21.531 4.7789 21.6442 4.7789H26.6998ZM26.1968 5.28196H22.1472V7.4828H26.1968V5.28196ZM25.8698 2.15046H22.6126V2.70382H25.8698V2.15046ZM25.4799 5.6844C25.5806 5.6844 25.6434 5.70955 25.6434 5.75985V7.01748C25.6434 7.08036 25.5806 7.09294 25.4799 7.09294H22.927C22.8263 7.09294 22.776 7.06779 22.776 7.01748V5.75985C22.776 5.70955 22.8263 5.6844 22.927 5.6844H25.4799ZM25.0524 6.14972H23.3671V6.62762H25.0524V6.14972Z" fill="white"/>
<path d="M32.5222 0.69168C32.5222 0.754561 32.4971 0.779714 32.4468 0.779714C32.321 0.804867 32.2456 0.830019 32.2078 0.892901C31.994 1.50914 31.7928 2.02477 31.579 2.46493V9.21839C31.579 9.29385 31.5161 9.34416 31.4155 9.34416H31.0257C30.9125 9.34416 30.8622 9.30643 30.8622 9.21839V3.69741C30.6484 4.02439 30.3717 4.40168 30.007 4.85443C29.9315 4.85443 29.8561 4.82927 29.7932 4.76639C29.6926 4.69094 29.5794 4.59032 29.4788 4.51487C29.4285 4.47714 29.4033 4.43941 29.4033 4.3891C29.6674 4.06212 29.9315 3.70999 30.1956 3.35785C30.5352 2.87995 30.8244 2.36432 31.076 1.78582C31.3023 1.27019 31.4784 0.767138 31.6042 0.264087C31.6167 0.226358 31.6419 0.188629 31.6796 0.188629C32.2456 0.477883 32.5222 0.653951 32.5222 0.69168ZM33.7799 1.05639V0.301816C33.7799 0.226358 33.8302 0.188629 33.9308 0.188629C34.4213 0.188629 34.6728 0.226358 34.6728 0.301816C34.6728 0.38985 34.6476 0.440155 34.5847 0.452731C34.5093 0.465307 34.4841 0.528188 34.4841 0.653951V1.05639H36.7227V0.301816C36.7227 0.226358 36.773 0.188629 36.8736 0.188629C37.3641 0.188629 37.6156 0.226358 37.6156 0.301816C37.6156 0.38985 37.5905 0.440155 37.5276 0.452731C37.4521 0.465307 37.427 0.528188 37.427 0.653951V1.05639H38.6092C38.6846 1.05639 38.7349 1.1067 38.7349 1.20731V1.52171C38.7349 1.6349 38.6972 1.68521 38.6092 1.68521H37.427V2.77934C37.427 2.89253 37.3641 2.94283 37.2635 2.94283H35.9681V3.49619H38.2947C38.3954 3.49619 38.4457 3.53392 38.4457 3.60938V5.38263C38.4457 5.45809 38.3954 5.50839 38.2947 5.50839H35.9681V6.09948H38.0935C38.169 6.09948 38.2193 6.14978 38.2193 6.25039V6.5648C38.2193 6.67799 38.1816 6.72829 38.0935 6.72829H35.9681V7.31938H37.9049C37.9803 7.31938 38.0181 7.36968 38.0181 7.47029V7.7847C38.0181 7.89788 37.9803 7.94819 37.9049 7.94819H35.9681V8.50155H38.7223C38.7978 8.50155 38.8355 8.55185 38.8355 8.65246V8.97944C38.8355 9.08006 38.7978 9.13036 38.7223 9.13036H32.5474C32.4719 9.13036 32.4342 9.08006 32.4342 8.97944V8.62731C32.4342 8.5267 32.4594 8.47639 32.5474 8.47639H35.2639V7.92304H33.2642C33.1888 7.92304 33.1385 7.87273 33.1385 7.75955V7.44514C33.1385 7.34453 33.1762 7.29422 33.2642 7.29422H35.2639V6.70314H33.063C32.9876 6.70314 32.9498 6.65283 32.9498 6.53965V6.22524C32.9498 6.12463 32.975 6.07433 33.063 6.07433H35.2639V5.48324H32.9876C32.8869 5.48324 32.8366 5.44551 32.8366 5.35748V3.5968C32.8366 3.52134 32.8869 3.48361 32.9876 3.48361H35.2639V2.93026H33.9308C33.8302 2.93026 33.7799 2.87995 33.7799 2.76677V1.67263H32.6732C32.5977 1.67263 32.5474 1.62232 32.5474 1.50914V1.20731C32.5474 1.1067 32.5851 1.05639 32.6732 1.05639H33.7799ZM35.2764 4.11243H33.5409V4.85443H35.2764V4.11243ZM36.7353 2.33917V1.67263H34.4967V2.33917H36.7353ZM37.7414 4.11243H35.9681V4.85443H37.7414V4.11243Z" fill="white"/>
<path d="M42.9351 0.653966C42.9351 0.716848 42.8974 0.742 42.8597 0.742C42.7339 0.767153 42.6585 0.792305 42.6207 0.855187C42.3063 1.68522 41.9919 2.36434 41.6901 2.86739V9.21841C41.6901 9.29387 41.6272 9.34417 41.5266 9.34417H41.1242C41.011 9.34417 40.9607 9.30644 40.9607 9.21841V3.87349C40.7469 4.15017 40.4828 4.452 40.1809 4.81671C40.1055 4.81671 40.0426 4.79156 39.9797 4.7161C39.8791 4.64065 39.7659 4.55261 39.6653 4.46458C39.615 4.42685 39.5898 4.38912 39.5898 4.33881C39.8665 4.01183 40.1684 3.6597 40.4702 3.30756C40.8349 2.82966 41.1745 2.31403 41.4511 1.72295C41.6901 1.20732 41.8787 0.704271 42.0296 0.201221C42.0422 0.163492 42.0674 0.125763 42.1051 0.125763C42.6585 0.44017 42.9351 0.616238 42.9351 0.653966ZM43.8406 2.33919V0.503051C43.8406 0.427593 43.8909 0.377288 43.9915 0.377288C44.482 0.377288 44.7335 0.415017 44.7335 0.503051C44.7335 0.591085 44.7084 0.64139 44.6455 0.64139C44.57 0.666543 44.5449 0.729424 44.5449 0.855187V2.33919H46.5445V0.503051C46.5445 0.427593 46.5948 0.377288 46.708 0.377288C47.1985 0.377288 47.45 0.415017 47.45 0.503051C47.45 0.591085 47.4123 0.64139 47.3494 0.64139C47.2739 0.666543 47.2488 0.729424 47.2488 0.855187V2.33919H48.5441C48.6196 2.33919 48.6699 2.40207 48.6699 2.50268V2.81709C48.6699 2.93027 48.6322 2.98058 48.5441 2.98058H47.2488V5.57129H48.7831C48.8586 5.57129 48.8963 5.62159 48.8963 5.7222V6.04919C48.8963 6.1498 48.8586 6.2001 48.7831 6.2001H42.2937C42.2183 6.2001 42.168 6.1498 42.168 6.04919V5.7222C42.168 5.62159 42.2057 5.57129 42.2937 5.57129H43.828V2.98058H42.5704C42.495 2.98058 42.4447 2.93027 42.4447 2.81709V2.50268C42.4447 2.40207 42.4824 2.33919 42.5704 2.33919H43.8406ZM44.8593 7.13075C44.8593 7.19363 44.7964 7.2062 44.6958 7.2062C44.6455 7.2062 44.6078 7.24393 44.57 7.33197C44.4443 7.50803 44.2934 7.73441 44.0922 8.01109C43.8658 8.32549 43.6394 8.58959 43.3879 8.80339C43.237 8.94173 43.0357 9.10522 42.7716 9.28129C42.6836 9.28129 42.6207 9.24356 42.5956 9.18068C42.495 9.05492 42.3944 8.95431 42.3189 8.8537C42.256 8.84112 42.2309 8.81597 42.2309 8.79081C42.2309 8.76566 42.2434 8.75309 42.256 8.74051C42.583 8.56444 42.8345 8.40095 43.0357 8.19973C43.2747 7.98593 43.4759 7.75956 43.6646 7.50803C43.8406 7.26909 43.9915 6.99241 44.1425 6.71573C44.1676 6.66542 44.2053 6.64027 44.2431 6.64027C44.6455 6.91695 44.8593 7.08044 44.8593 7.13075ZM46.5445 5.57129V2.98058H44.5449V5.57129H46.5445ZM46.9973 6.77861C47.4249 7.39485 48.0159 8.03624 48.7705 8.70278C48.8334 8.74051 48.8711 8.79081 48.8711 8.86627C48.8711 8.89142 48.846 8.92915 48.7831 8.99203C48.5693 9.19326 48.4435 9.29387 48.4058 9.29387C48.3681 9.29387 48.3304 9.26871 48.28 9.23098C47.45 8.46383 46.8212 7.75956 46.3936 7.05529C46.6954 6.79119 46.8464 6.66542 46.8715 6.66542C46.8967 6.66542 46.947 6.70315 46.9973 6.77861Z" fill="white"/>
<path d="M52.757 2.5404C52.757 2.61585 52.7067 2.64101 52.6312 2.64101C52.5306 2.64101 52.4929 2.66616 52.4929 2.72904C52.3294 2.93026 52.1407 3.15663 51.9144 3.40816C51.8892 3.43331 51.8892 3.43331 51.8766 3.44589C52.342 3.38301 52.8073 3.32012 53.2852 3.23209C53.2097 3.10633 53.1594 2.98056 53.0965 2.87995C53.0965 2.8045 53.2349 2.70389 53.5115 2.56555C53.5744 2.56555 53.6122 2.5907 53.6373 2.60328C53.9014 2.96799 54.1278 3.35785 54.3542 3.78545C54.3919 3.77287 54.4422 3.76029 54.4925 3.76029L54.8572 3.93636C54.7817 3.79802 54.6937 3.62195 54.6183 3.40816C54.8446 3.39558 55.071 3.38301 55.2974 3.35785C55.4609 3.10633 55.5992 2.84223 55.725 2.57812C55.8004 2.41463 55.8633 2.25114 55.901 2.10023C55.901 2.07507 55.9262 2.07507 55.9513 2.07507C56.4921 2.23856 56.7814 2.35175 56.7814 2.38948C56.7814 2.46494 56.7436 2.50267 56.6556 2.50267C56.5802 2.50267 56.5299 2.52782 56.5299 2.5907C56.4041 2.79192 56.2532 3.00572 56.052 3.24467C56.0268 3.26982 56.0268 3.2824 56.0142 3.29497C56.467 3.25724 56.8946 3.19436 57.3222 3.13148C57.2844 3.05602 57.2467 2.98056 57.1964 2.90511C57.1964 2.82965 57.3347 2.72904 57.624 2.5907C57.6869 2.5907 57.712 2.61585 57.7372 2.62843C58.039 3.09375 58.3157 3.5968 58.5672 4.11243C58.5672 4.21304 58.5421 4.26334 58.5043 4.27592C58.2654 4.43941 58.0767 4.50229 57.9384 4.50229C57.8126 4.20046 57.6994 3.92378 57.5737 3.67226C56.8694 3.79802 56.1023 3.91121 55.2848 3.99924C55.2471 3.99924 55.2093 4.0244 55.1842 4.0747C55.1842 4.09985 55.1716 4.09985 55.1716 4.09985L55.1968 4.11243C55.2596 4.16273 55.2974 4.20046 55.2974 4.23819C55.2974 4.31365 55.2219 4.36395 55.1087 4.36395H55.0962C55.2974 4.52745 55.5237 4.65321 55.7375 4.77897C56.1274 5.00534 56.5299 5.16884 56.9323 5.2946C57.4731 5.50839 58.1396 5.67189 58.9193 5.81023C59.0074 5.8228 59.0577 5.83538 59.0577 5.84795C59.0577 5.89826 59.0325 5.93599 59.0074 5.97372C58.8565 6.09948 58.7307 6.20009 58.6049 6.32585C58.5672 6.38873 58.5295 6.40131 58.5043 6.40131C57.9384 6.27555 57.4479 6.14979 57.0581 5.99887C56.5173 5.8228 56.0142 5.62158 55.5741 5.35748C55.2219 5.18141 54.8321 4.91731 54.4045 4.59033C54.0775 4.80412 53.7756 4.98019 53.4738 5.11853C53.1971 5.28202 52.845 5.44551 52.4426 5.609C52.0275 5.78507 51.6125 5.93599 51.2101 6.06175C50.7951 6.18751 50.4681 6.28812 50.2166 6.33843C50.1537 6.33843 50.1034 6.31328 50.0656 6.2504C49.9902 6.11206 49.8896 5.98629 49.7764 5.88568C49.7009 5.84795 49.6758 5.81023 49.6758 5.78507C49.6758 5.7725 49.7009 5.75992 49.7512 5.75992C50.3297 5.63416 50.8076 5.53355 51.1849 5.40778C51.7131 5.24429 52.2288 5.04307 52.757 4.80412C53.1091 4.64063 53.3984 4.48972 53.6373 4.3388C53.7379 4.27592 53.826 4.21304 53.9266 4.13758C53.8511 4.16273 53.7756 4.17531 53.7128 4.17531C53.6499 4.04955 53.5996 3.93636 53.5493 3.8106C52.7444 3.97409 51.8515 4.11243 50.8705 4.23819C50.8202 4.23819 50.7825 4.27592 50.7573 4.3388C50.7322 4.41426 50.6819 4.45199 50.5938 4.45199C50.5184 4.45199 50.3675 4.17531 50.1285 3.62195C50.4429 3.5968 50.7448 3.58423 51.0466 3.5465C51.2478 3.28239 51.4365 3.00572 51.6125 2.71646C51.7131 2.5404 51.776 2.3769 51.8389 2.20084C51.8389 2.18826 51.8515 2.17568 51.8892 2.17568C52.4677 2.36433 52.757 2.47751 52.757 2.5404ZM54.4925 0.415005C54.4925 0.490462 54.4422 0.515615 54.3542 0.515615C54.2661 0.515615 54.2284 0.553344 54.2284 0.616225C54.0146 0.792293 53.7505 1.00609 53.4361 1.24504C53.4109 1.27019 53.3732 1.28277 53.3606 1.29534C54.2661 1.21989 55.1842 1.13185 56.0897 1.03124C55.9891 0.930632 55.8885 0.842598 55.813 0.754564C55.813 0.679107 55.9513 0.578496 56.2406 0.440157C56.3035 0.440157 56.3412 0.46531 56.3664 0.477886C56.8946 0.918056 57.385 1.39595 57.8126 1.88643C57.8126 1.98704 57.7875 2.04992 57.7497 2.04992C57.5108 2.21341 57.3222 2.28887 57.1838 2.28887C56.9826 2.02477 56.7814 1.79839 56.6053 1.5846C55.1213 1.76067 53.4738 1.92416 51.688 2.0625C51.6125 2.0625 51.5371 2.10023 51.4868 2.16311C51.4616 2.23856 51.4113 2.28887 51.3358 2.28887C51.2604 2.28887 51.1095 2.01219 50.8579 1.45884C51.3987 1.43368 51.9521 1.39595 52.4929 1.35823C52.7695 1.09412 53.0211 0.830022 53.26 0.56592C53.3858 0.402429 53.4864 0.238937 53.5744 0.0754455C53.5744 0.0628692 53.5996 0.050293 53.6499 0.050293C54.1907 0.251513 54.4925 0.3647 54.4925 0.415005ZM57.209 7.50802C56.6682 7.80985 56.2532 8.03623 55.9639 8.18714C55.6369 8.33806 55.2848 8.4764 54.8824 8.63989C54.5176 8.76565 54.1026 8.87884 53.6625 9.0046C53.0965 9.14294 52.43 9.28128 51.6503 9.41962C51.5245 9.41962 51.449 9.39446 51.4239 9.34416C51.3484 9.2184 51.2478 9.09263 51.0843 8.97945C51.034 8.92914 51.0089 8.89141 51.0089 8.85368C51.0089 8.82853 51.034 8.81595 51.0969 8.81595C51.4993 8.7908 51.776 8.75307 51.9269 8.7405C52.2665 8.70277 52.6061 8.63989 52.9582 8.56443C53.4235 8.43867 53.8134 8.33806 54.1529 8.21229C54.5302 8.08653 54.9201 7.93562 55.3225 7.7344C55.6872 7.5709 56.0016 7.40741 56.2532 7.24392C56.467 7.11816 56.6682 6.97982 56.8568 6.81633C56.882 6.79117 56.9071 6.7786 56.9449 6.7786C56.97 6.7786 57.0329 6.80375 57.1209 6.8289C57.4731 7.15589 57.6491 7.33195 57.6491 7.35711C57.6491 7.43256 57.6114 7.48287 57.5234 7.48287L57.3599 7.44514C57.3347 7.44514 57.2719 7.47029 57.209 7.50802ZM54.5176 5.94856C54.2535 6.12463 54.0397 6.26297 53.9014 6.33843C53.7379 6.43904 53.5618 6.52707 53.3732 6.61511C53.1971 6.69056 52.9959 6.76602 52.7695 6.8289C52.4929 6.90436 52.1659 6.99239 51.7886 7.05528C51.6628 7.05528 51.5999 7.03012 51.5748 6.9924C51.5119 6.86663 51.3987 6.76602 51.2478 6.65284C51.2101 6.61511 51.1849 6.57738 51.1849 6.53965C51.1849 6.52707 51.1975 6.5145 51.2227 6.5145C51.4239 6.48934 51.5748 6.48934 51.6503 6.47677C51.8263 6.45162 51.9898 6.41389 52.1785 6.36358C52.4048 6.3007 52.6061 6.23782 52.7947 6.14979C52.9708 6.07433 53.172 5.98629 53.3732 5.87311C53.5618 5.7725 53.7253 5.67189 53.8511 5.57128C53.9643 5.49582 54.0649 5.40778 54.1655 5.30717C54.1781 5.28202 54.1907 5.28202 54.2158 5.28202C54.241 5.28202 54.2913 5.30717 54.3667 5.33233C54.6811 5.63416 54.8446 5.81023 54.8446 5.83538C54.8446 5.91084 54.8069 5.96114 54.7314 5.96114L54.6057 5.92341C54.5679 5.92341 54.5428 5.92341 54.5176 5.94856ZM55.7753 6.67799C55.398 6.90436 55.0962 7.06785 54.8824 7.19362C54.656 7.31938 54.4045 7.41999 54.1152 7.54575C53.8511 7.64636 53.5744 7.7344 53.2474 7.82243C52.845 7.93562 52.3671 8.03623 51.8263 8.13684C51.7006 8.13684 51.6377 8.11168 51.6125 8.06138C51.5371 7.94819 51.4365 7.83501 51.2855 7.7344C51.2478 7.69667 51.2227 7.65894 51.2227 7.62121C51.2227 7.59606 51.2478 7.59606 51.2855 7.59606C51.5748 7.5709 51.776 7.55833 51.8892 7.53317C52.1282 7.50802 52.3797 7.45772 52.6312 7.39484C52.9582 7.31938 53.2474 7.23134 53.499 7.13073C53.7631 7.03012 54.0397 6.90436 54.329 6.75345C54.5931 6.62768 54.8069 6.48934 54.9955 6.37616C55.159 6.27555 55.2974 6.16236 55.4483 6.02402C55.4734 5.99887 55.486 5.99887 55.5237 5.99887C55.5489 5.99887 55.5992 6.02402 55.6747 6.0366C55.9891 6.33843 56.1526 6.5145 56.1526 6.53965C56.1526 6.61511 56.1148 6.66541 56.0268 6.66541L55.9136 6.62768C55.8507 6.62768 55.813 6.64026 55.7753 6.67799Z" fill="white"/>
<path d="M63.56 1.44624V0.377258C63.56 0.3018 63.6103 0.251495 63.7235 0.251495C64.2139 0.251495 64.4655 0.289224 64.4655 0.377258C64.4655 0.465292 64.4403 0.515597 64.3774 0.528173C64.302 0.54075 64.2768 0.603631 64.2768 0.729394V1.44624H66.3645C66.4399 1.44624 66.4902 1.49655 66.4902 1.59716V1.91156C66.4902 2.02475 66.4525 2.07505 66.3645 2.07505H64.2768V3.13146H65.5344C65.8992 2.84221 66.2261 2.51522 66.5154 2.17567C66.9178 1.71034 67.2825 1.18214 67.6095 0.578478C67.6221 0.528173 67.6347 0.503021 67.6473 0.503021L68.2761 0.792275C68.3515 0.830004 68.4018 0.867733 68.4018 0.930614C68.4018 0.968343 68.3641 0.993495 68.2761 0.993495C68.2132 0.993495 68.1503 1.01865 68.1252 1.08153C67.6347 1.83611 67.1442 2.45234 66.6663 2.91767C66.6034 3.0057 66.528 3.06858 66.4525 3.13146H68.7414C68.8168 3.13146 68.8672 3.18177 68.8672 3.28238V3.59678C68.8672 3.70997 68.8294 3.76028 68.7414 3.76028H65.7734C65.3961 4.08726 64.9937 4.37651 64.5661 4.62804H67.9994C68.0749 4.62804 68.1252 4.66577 68.1252 4.7538V5.14367C68.1252 5.24428 68.0874 5.29458 67.9994 5.29458H64.1133L63.7863 6.2378H67.8107C67.8862 6.2378 67.9365 6.30068 67.9365 6.40129C67.8107 7.14329 67.6976 7.73438 67.5592 8.17455C67.3706 8.66502 67.0813 8.97943 66.704 9.11777C66.289 9.26868 65.6728 9.36929 64.8679 9.43217C64.7547 9.43217 64.6918 9.38187 64.6918 9.28126C64.6541 9.11777 64.5786 8.91655 64.478 8.6776C64.478 8.65244 64.5283 8.65244 64.6415 8.65244C65.3081 8.62729 65.8237 8.57699 66.1633 8.50153C66.4777 8.42607 66.6915 8.25 66.8172 7.97333C66.8927 7.74695 66.9933 7.39482 67.1191 6.89177H63.0695C62.9563 6.89177 62.906 6.85404 62.906 6.766L63.4342 5.282C62.9437 5.52095 62.4281 5.7599 61.9125 5.96112C61.3088 6.1875 60.8058 6.35099 60.4033 6.46417C60.3027 6.46417 60.2398 6.43902 60.2273 6.38872C60.1392 6.22522 60.026 6.04916 59.8877 5.87309C60.6548 5.68444 61.4094 5.43292 62.1766 5.13109C63.0569 4.76638 63.8744 4.33878 64.6038 3.84831C64.629 3.82316 64.6667 3.81058 64.6918 3.78543H60.0512C59.9757 3.78543 59.9254 3.73512 59.9254 3.62194V3.28238C59.9254 3.18177 59.9632 3.13146 60.0512 3.13146H63.5851V2.06248H61.5855C61.51 2.06248 61.4723 2.01217 61.4723 1.89899V1.59716C61.4723 1.49655 61.4975 1.44624 61.5855 1.44624H63.56Z" fill="white"/>
<path d="M74.8287 5.45756C74.6652 5.73424 74.4514 5.98576 74.1873 6.16183L73.9232 5.87258C74.3257 5.58332 74.552 5.19346 74.6024 4.72814H73.8604V3.52081H75.0677V4.62753C75.0677 4.9042 74.9796 5.1683 74.8287 5.45756Z" fill="white"/>
<path d="M87.192 1.94927C87.2926 1.94927 87.3555 1.987 87.3555 2.07503V3.01825H88.9276C88.9779 3.01825 89.003 3.05598 89.003 3.14402V3.37039C89.003 3.48358 88.9779 3.53388 88.9276 3.53388H87.3555V4.46453C87.3555 4.53998 87.2926 4.59029 87.192 4.59029H82.0483C81.9477 4.59029 81.8974 4.55256 81.8974 4.46453V3.5213H80.1116C80.0487 3.5213 80.0361 3.471 80.0361 3.35781V3.13144C80.0361 3.05598 80.0613 3.00568 80.1116 3.00568H81.8848V2.06246C81.8848 1.987 81.9352 1.93669 82.0358 1.93669H87.192V1.94927ZM85.1421 0.339508C85.1421 0.427542 85.1044 0.477847 85.0415 0.490423C84.966 0.502999 84.9409 0.565881 84.9409 0.691643V0.930593H88.6383C88.7389 0.930593 88.7892 0.968322 88.7892 1.05636V2.4649C88.7892 2.54036 88.7389 2.59066 88.6383 2.59066H88.2484C88.1353 2.59066 88.0849 2.55293 88.0849 2.4649V1.47137H80.9416V2.45232C80.9416 2.52778 80.8787 2.57808 80.7781 2.57808H80.3883C80.2877 2.57808 80.2374 2.54036 80.2374 2.45232V1.05636C80.2374 0.980898 80.2877 0.930593 80.3883 0.930593H84.2366V0.339508C84.2366 0.26405 84.2869 0.213745 84.4001 0.213745C84.8906 0.213745 85.1421 0.26405 85.1421 0.339508ZM87.2298 5.05561C87.3304 5.05561 87.3933 5.09334 87.3933 5.18137V8.16195C87.3933 8.23741 87.3304 8.27514 87.2298 8.27514H85.9596C86.4375 8.4009 86.8525 8.48893 87.1795 8.58954C87.607 8.71531 87.9592 8.84107 88.261 8.95426C88.261 8.95426 88.2359 8.97941 88.2107 9.02971C88.0095 9.30639 87.9089 9.45731 87.8963 9.45731C87.431 9.28124 86.9531 9.13032 86.4375 8.99198C86.0099 8.86622 85.6577 8.79076 85.381 8.75303C85.381 8.71531 85.4817 8.57697 85.6955 8.31286C85.7206 8.28771 85.7206 8.28771 85.7206 8.28771H83.3437C83.6204 8.52666 83.7713 8.67758 83.7713 8.71531C83.7713 8.75303 83.7461 8.79076 83.6833 8.79076C83.5575 8.79076 83.5072 8.80334 83.5072 8.84107C82.7149 9.10517 81.8848 9.30639 81.0297 9.46988C80.9542 9.46988 80.9039 9.44473 80.8913 9.39442C80.8536 9.31897 80.7781 9.24351 80.6901 9.18063C80.6524 9.1429 80.6398 9.10517 80.6398 9.06744C80.6398 9.04229 80.6649 9.01714 80.7404 9.01714C81.1806 8.9291 81.5704 8.84107 81.91 8.74046C82.3124 8.6147 82.7275 8.46378 83.1425 8.27514H81.8974C81.7842 8.27514 81.7339 8.24998 81.7339 8.16195V5.1688C81.7339 5.09334 81.7842 5.04303 81.8974 5.04303H87.2298V5.05561ZM86.6764 5.99883V5.53351H82.4382V6.01141H86.6764V5.99883ZM86.6764 6.94205V6.439H82.4382V6.94205H86.6764ZM86.6764 7.36964H82.4382V7.79724H86.6764V7.36964ZM84.1989 3.01825V2.41459H82.5514V3.00568H84.1989V3.01825ZM84.1989 3.5213H82.5514V4.09981H84.1989V3.5213ZM84.878 3.01825H86.6764V2.41459H84.878V3.01825ZM86.6764 3.5213H84.878V4.09981H86.6764V3.5213Z" fill="white"/>
<path d="M92.6113 0.503036C92.7748 0.503036 92.888 0.528189 92.9383 0.565917C93.0892 0.704256 93.1646 0.830019 93.1646 0.930629L91.9951 3.48361C91.9825 3.52134 91.9825 3.55907 91.9825 3.5968C91.9825 3.63453 91.9951 3.65968 92.0202 3.68483C92.3723 4.08727 92.6364 4.48971 92.8125 4.89216C92.9509 5.26944 93.0389 5.63416 93.0389 5.99887C93.0389 6.5648 92.9508 6.96724 92.7874 7.23134C92.5987 7.5709 92.2843 7.73439 91.8567 7.73439C91.5549 7.73439 91.404 7.67151 91.3914 7.54575C91.3662 7.40741 91.3159 7.24392 91.2656 7.06785C91.2656 6.96724 91.2782 6.91694 91.3034 6.91694L91.8567 6.99239C92.0454 6.99239 92.1711 6.90436 92.2214 6.71572C92.2592 6.53965 92.2969 6.27555 92.2969 5.93599C92.2969 5.63416 92.2089 5.30717 92.0454 4.94246C91.8693 4.54002 91.58 4.15016 91.2153 3.78544C91.1776 3.76029 91.1524 3.72256 91.1524 3.69741C91.1524 3.67226 91.165 3.63453 91.1902 3.54649L92.322 1.1067H90.9386V9.20582C90.9386 9.28127 90.8883 9.33158 90.7877 9.33158H90.3853C90.2847 9.33158 90.2344 9.29385 90.2344 9.20582V0.616222C90.2344 0.540765 90.2847 0.49046 90.3853 0.49046H92.6113V0.503036ZM94.8876 0.465307C94.7618 0.69168 94.6612 0.892901 94.5732 1.05639H95.7051C95.7679 1.05639 95.8057 1.08154 95.8434 1.09412C95.9566 1.23246 96.0195 1.32049 96.0195 1.3708C95.8937 1.8487 95.7679 2.21341 95.6547 2.47751C95.5164 2.80449 95.3781 3.08117 95.2272 3.29497C95.0762 3.50877 94.9002 3.72256 94.6864 3.92378C94.4474 4.15016 94.1708 4.3388 93.8815 4.48971C93.6803 4.61548 93.4162 4.71609 93.1018 4.80412C93.0263 4.80412 92.976 4.77897 92.9383 4.72866C92.8754 4.62805 92.8125 4.52744 92.7496 4.42683C92.7245 4.3891 92.7119 4.35138 92.7119 4.3388C92.7119 4.31365 92.7245 4.30107 92.7496 4.27592C92.9383 4.23819 93.1269 4.16273 93.3156 4.08727C93.5419 3.99924 93.7432 3.89863 93.9192 3.77287C93.8186 3.67226 93.7306 3.58422 93.6425 3.49619C93.5042 3.37043 93.3784 3.28239 93.303 3.21951C93.303 3.19436 93.391 3.0686 93.5797 2.84222C93.6048 2.80449 93.63 2.77934 93.6551 2.77934C93.8312 2.91768 93.9821 3.05602 94.0953 3.15663C94.1707 3.25724 94.2462 3.3327 94.3091 3.40816C94.4474 3.28239 94.5732 3.14405 94.6738 3.00571C94.5732 2.9051 94.4852 2.80449 94.3971 2.70388C94.2588 2.57812 94.133 2.47751 94.0576 2.42721C94.0576 2.40205 94.1456 2.27629 94.3342 2.04992C94.3594 2.01219 94.3845 1.98704 94.4097 1.98704C94.5858 2.13795 94.7367 2.26371 94.8499 2.38948C94.9002 2.45236 94.9379 2.50266 94.9756 2.54039C95.0511 2.40205 95.1014 2.25114 95.1643 2.08765C95.2146 1.96188 95.2775 1.79839 95.3278 1.59717H94.2336C94.0953 1.79839 93.9569 1.98704 93.8186 2.15053C93.5922 2.38948 93.391 2.57812 93.1898 2.72904C93.1269 2.72904 93.064 2.71646 93.0389 2.67873C92.9131 2.56555 92.8125 2.45236 92.6993 2.35175C92.6867 2.3266 92.6867 2.28887 92.6867 2.26371C92.888 2.13795 93.0515 1.99961 93.1772 1.88643C93.3533 1.72293 93.5545 1.50914 93.7557 1.21988C93.8941 1.03124 94.0953 0.69168 94.372 0.188629L94.8876 0.465307ZM95.0385 7.15588C95.0888 7.21877 95.114 7.25649 95.114 7.29422C95.114 7.31938 95.0888 7.34453 95.0385 7.34453C94.9631 7.36968 94.9128 7.38226 94.875 7.41999C94.6864 7.70924 94.4852 7.97334 94.2839 8.19972C94.0324 8.46382 93.718 8.72792 93.3407 9.0046C93.2653 9.0046 93.2024 8.97944 93.1772 8.92914C93.0389 8.81595 92.9257 8.72792 92.8251 8.65246C92.7748 8.62731 92.7496 8.60216 92.7496 8.577C92.7496 8.55185 92.7622 8.53928 92.7874 8.51412C92.9634 8.43867 93.1143 8.33805 93.2275 8.23744C93.479 8.03622 93.7054 7.80985 93.8941 7.55833C94.0576 7.35711 94.2211 7.10558 94.4223 6.79117C94.4474 6.75344 94.46 6.71572 94.4852 6.71572L95.0385 7.15588ZM98.6227 5.609C98.6982 5.609 98.7485 5.65931 98.7485 5.75992V6.0869C98.7485 6.18751 98.7108 6.23782 98.6227 6.23782H96.5351V8.60216C96.5351 9.09263 96.1201 9.34416 95.3152 9.34416H94.7996C94.7493 9.34416 94.7367 9.2687 94.7367 9.15551C94.7115 9.0046 94.6612 8.82853 94.5732 8.62731V8.58958C94.8121 8.62731 95.0511 8.66504 95.2775 8.66504C95.6422 8.66504 95.8308 8.53928 95.8308 8.3129V6.22524H93.7054C93.63 6.22524 93.5797 6.17494 93.5797 6.07433V5.75992C93.5797 5.65931 93.6174 5.609 93.7054 5.609H98.6227ZM97.516 4.02439C97.5915 4.02439 97.6418 4.08727 97.6418 4.18788V4.50229C97.6418 4.61548 97.6041 4.66578 97.516 4.66578H94.8121C94.7367 4.66578 94.6864 4.61548 94.6864 4.50229V4.18788C94.6864 4.08727 94.7241 4.02439 94.8121 4.02439H97.516ZM97.1639 2.02477C97.2268 2.1631 97.2897 2.28887 97.3526 2.38948C97.4532 2.31402 97.5412 2.21341 97.6292 2.1128C97.7676 1.96188 97.9185 1.77324 98.0568 1.53429C98.1071 1.45883 98.1826 1.35822 98.258 1.20731H97.1891C97.1136 1.20731 97.0759 1.16958 97.0759 1.08154V0.767138C97.0759 0.69168 97.101 0.641375 97.1891 0.641375H98.5724C98.6479 0.641375 98.6982 0.666528 98.7485 0.679104L98.9749 0.867748C99 0.918053 99.0126 0.980934 99.0126 1.04382C98.912 1.27019 98.7862 1.50914 98.6605 1.77324C98.497 2.04992 98.3335 2.31402 98.1574 2.54039C98.0191 2.70388 97.8808 2.86738 97.7424 2.98056C97.8682 3.15663 98.0317 3.34527 98.258 3.54649C98.4341 3.69741 98.6353 3.84832 98.8743 3.98666C98.9749 4.03697 99.1006 4.09985 99.2641 4.16273C99.3019 4.16273 99.327 4.18788 99.327 4.22561C99.327 4.27592 99.3019 4.32622 99.2516 4.36395C99.1509 4.48971 99.0629 4.59032 98.9749 4.69094C98.9372 4.75382 98.8743 4.77897 98.8114 4.77897C98.4467 4.6029 98.1323 4.37653 97.8682 4.11243C97.6292 3.87348 97.428 3.6471 97.2771 3.43331C97.0633 3.15663 96.8872 2.82965 96.7489 2.49009C96.5728 2.08765 96.3842 1.57202 96.1955 0.930629C96.1955 0.867748 96.359 0.767138 96.6986 0.653951C96.8746 1.27019 97.0256 1.72293 97.1639 2.02477ZM98.497 7.67151C98.7737 7.97334 99.0126 8.23744 99.2138 8.47639C99.2138 8.47639 99.1887 8.50155 99.1761 8.55185C98.9749 8.82853 98.8743 8.97944 98.8617 8.97944C98.5473 8.60216 98.2203 8.25002 97.8808 7.94819C97.6041 7.69666 97.3525 7.5206 97.1765 7.40741C97.1765 7.38226 97.2771 7.23134 97.4909 6.96724C97.516 6.92951 97.5538 6.90436 97.5663 6.90436C97.9436 7.18104 98.2455 7.43256 98.497 7.67151Z" fill="white"/>
<path d="M108.446 0.465243C108.546 0.465243 108.609 0.502972 108.609 0.591006V9.29379C108.609 9.36924 108.546 9.41955 108.446 9.41955H108.056C107.955 9.41955 107.905 9.38182 107.905 9.29379V9.01711H101.265V9.29379C101.265 9.36924 101.202 9.41955 101.101 9.41955H100.711C100.598 9.41955 100.548 9.38182 100.548 9.29379V0.57843C100.548 0.502972 100.598 0.452667 100.711 0.452667H108.446V0.465243ZM107.905 8.4386V1.05633H101.265V8.4386H107.905ZM106.874 1.63484C106.974 1.63484 107.037 1.67257 107.037 1.7606V3.09368C107.037 3.16914 106.974 3.20687 106.874 3.20687H105.063V3.68477H107.503C107.54 3.68477 107.578 3.7225 107.578 3.81053V4.12494C107.578 4.2004 107.553 4.2507 107.503 4.2507H101.843C101.78 4.2507 101.768 4.21297 101.768 4.12494V3.79796C101.768 3.7225 101.793 3.67219 101.843 3.67219H104.396V3.20687H102.585C102.485 3.20687 102.434 3.18172 102.434 3.09368V1.7606C102.434 1.68514 102.485 1.63484 102.585 1.63484H106.874ZM107.188 4.7789C107.289 4.7789 107.352 4.81663 107.352 4.89209V7.87267C107.352 7.94813 107.289 7.99843 107.188 7.99843H102.132C102.019 7.99843 101.969 7.9607 101.969 7.87267V4.89209C101.969 4.81663 102.019 4.7789 102.132 4.7789H107.188ZM106.685 5.28196H102.636V7.4828H106.685V5.28196ZM106.358 2.15046H103.101V2.70382H106.358V2.15046ZM105.968 5.6844C106.069 5.6844 106.132 5.70955 106.132 5.75985V7.01748C106.132 7.08036 106.069 7.09294 105.968 7.09294H103.415C103.315 7.09294 103.264 7.06779 103.264 7.01748V5.75985C103.264 5.70955 103.315 5.6844 103.415 5.6844H105.968ZM105.541 6.14972H103.855V6.62762H105.541V6.14972Z" fill="white"/>
<path d="M119.097 0.616791C119.173 0.616791 119.223 0.667096 119.223 0.767706V1.08211C119.223 1.1953 119.173 1.2456 119.097 1.2456H114.809C114.582 1.68577 114.356 2.12594 114.104 2.54096H118.468C118.569 2.54096 118.619 2.57869 118.619 2.66672V9.21896C118.619 9.29442 118.569 9.34472 118.468 9.34472H118.066C117.965 9.34472 117.915 9.307 117.915 9.21896V8.62788H111.514V9.21896C111.514 9.29442 111.451 9.34472 111.35 9.34472H110.96C110.86 9.34472 110.809 9.307 110.809 9.21896V2.70445C110.809 2.60384 110.86 2.54096 110.96 2.54096H113.211C113.425 2.27686 113.589 2.05049 113.702 1.86184C113.815 1.69835 113.916 1.48455 114.016 1.2456H110.294C110.218 1.2456 110.168 1.1953 110.168 1.08211V0.767706C110.168 0.667096 110.206 0.616791 110.294 0.616791H119.097ZM112.972 7.99906V3.16977H111.514V8.01164H112.972V7.99906ZM115.764 4.35194V3.16977H113.677V4.35194H115.764ZM115.764 6.18808V4.98076H113.677V6.20066H115.764V6.18808ZM115.764 7.99906V6.82947H113.677V7.99906H115.764ZM117.915 7.99906V3.16977H116.456V8.01164H117.915V7.99906Z" fill="white"/>
<path d="M123.738 1.94931C123.788 1.94931 123.813 1.98704 123.813 2.07507V2.3769C123.813 2.49009 123.788 2.54039 123.738 2.54039H120.28C120.217 2.54039 120.204 2.49009 120.204 2.3769V2.06249C120.204 1.98704 120.229 1.93673 120.28 1.93673H123.738V1.94931ZM123.31 6.18751C123.411 6.18751 123.474 6.22524 123.474 6.31327V9.09263C123.474 9.16809 123.411 9.21839 123.31 9.21839H122.921C122.845 9.21839 122.795 9.18066 122.795 9.09263V8.58958H121.11V9.13036C121.11 9.20582 121.059 9.25612 120.959 9.25612H120.569C120.493 9.25612 120.443 9.21839 120.443 9.13036V6.31327C120.443 6.23782 120.481 6.18751 120.569 6.18751H123.31ZM123.348 3.37043C123.398 3.37043 123.424 3.40815 123.424 3.49619V3.8106C123.424 3.92378 123.386 3.97409 123.348 3.97409H120.669C120.607 3.97409 120.594 3.92378 120.594 3.8106V3.48361C120.594 3.40815 120.619 3.35785 120.669 3.35785H123.348V3.37043ZM123.348 4.77897C123.398 4.77897 123.424 4.8167 123.424 4.89216V5.21914C123.424 5.31975 123.386 5.37005 123.348 5.37005H120.669C120.607 5.37005 120.594 5.31975 120.594 5.21914V4.89216C120.594 4.8167 120.619 4.77897 120.669 4.77897H123.348ZM123.31 0.540765C123.361 0.540765 123.386 0.578494 123.386 0.653951V0.980934C123.386 1.08154 123.361 1.13185 123.31 1.13185H120.72C120.657 1.13185 120.644 1.08154 120.644 0.980934V0.653951C120.644 0.578494 120.669 0.540765 120.72 0.540765H123.31ZM122.795 7.99849V6.7786H121.11V7.99849H122.795ZM126.329 1.08154V0.301816C126.329 0.226358 126.379 0.188629 126.48 0.188629C126.983 0.188629 127.234 0.226358 127.234 0.301816C127.234 0.38985 127.197 0.440155 127.134 0.452731C127.058 0.465307 127.033 0.528188 127.033 0.653951V1.08154H129.234C129.284 1.08154 129.309 1.11927 129.309 1.20731V1.52171C129.309 1.6349 129.284 1.68521 129.234 1.68521H127.033V2.35175H128.844C128.894 2.35175 128.919 2.38948 128.919 2.47751V2.79192C128.919 2.9051 128.894 2.95541 128.844 2.95541H127.033V3.62195H129.36C129.397 3.62195 129.435 3.65968 129.435 3.74771V4.06212C129.435 4.17531 129.397 4.22561 129.36 4.22561H124.052C123.99 4.22561 123.977 4.17531 123.977 4.06212V3.72256C123.977 3.6471 124.002 3.5968 124.052 3.5968H126.341V2.93026H124.53C124.467 2.93026 124.455 2.87995 124.455 2.76676V2.46493C124.455 2.38948 124.48 2.33917 124.53 2.33917H126.341V1.67263H124.178C124.115 1.67263 124.103 1.62232 124.103 1.50914V1.20731C124.103 1.13185 124.128 1.08154 124.178 1.08154H126.329ZM128.605 4.74124C128.731 4.74124 128.806 4.77897 128.806 4.85443V8.77822C128.806 8.94171 128.668 9.0549 128.391 9.15551C128.127 9.21839 127.8 9.2687 127.385 9.29385C127.31 9.29385 127.259 9.25612 127.259 9.16809C127.234 9.02975 127.171 8.81595 127.033 8.53927C127.033 8.51412 127.058 8.51412 127.108 8.51412C127.574 8.51412 127.85 8.48897 127.939 8.46382C128.039 8.43866 128.102 8.38836 128.102 8.30033V7.88531H125.184V9.18066C125.184 9.25612 125.134 9.30643 125.033 9.30643H124.644C124.53 9.30643 124.48 9.2687 124.48 9.18066V4.85443C124.48 4.77897 124.53 4.74124 124.644 4.74124H128.605ZM128.102 5.99887V5.33232H125.184V6.01144H128.102V5.99887ZM128.102 7.29422V6.58995H125.184V7.3068H128.102V7.29422Z" fill="white"/>
<path d="M132.58 0.892846C132.58 0.98088 132.542 1.03118 132.479 1.04376C132.416 1.05634 132.379 1.11922 132.379 1.24498V6.99234C133.209 6.69051 134.001 6.36352 134.743 6.01139C134.768 5.98624 134.793 5.97366 134.818 5.97366C134.856 5.97366 134.894 6.01139 134.894 6.09942C134.894 6.46413 134.869 6.65278 134.856 6.67793C133.548 7.29417 132.228 7.84752 130.895 8.32542C130.769 8.52664 130.681 8.63983 130.618 8.63983C130.543 8.63983 130.404 8.32542 130.19 7.70918C130.618 7.60857 131.096 7.45766 131.637 7.26902V0.892846C131.637 0.817388 131.687 0.767083 131.8 0.767083C132.328 0.767083 132.58 0.817388 132.58 0.892846ZM138.189 0.578439C138.189 0.628744 138.151 0.679049 138.076 0.716778C138 0.741931 137.95 0.817388 137.95 0.930575C137.887 2.95535 137.799 4.26329 137.686 4.85437C137.56 5.50834 137.397 6.08685 137.17 6.60247C137.145 6.67793 137.107 6.75339 137.082 6.81627C137.56 7.1181 137.975 7.39478 138.302 7.63373C138.742 8.01101 139.132 8.338 139.447 8.62725C139.447 8.63983 139.421 8.66498 139.396 8.71529C139.17 9.01712 139.069 9.18061 139.057 9.18061C138.579 8.70271 138.051 8.28769 137.51 7.89783C137.208 7.69661 136.956 7.52054 136.73 7.40735C136.579 7.62115 136.403 7.79722 136.214 7.96071C135.686 8.43861 135.07 8.77817 134.378 8.99196C133.951 9.11773 133.687 9.18061 133.599 9.18061C133.523 9.18061 133.473 9.14288 133.448 9.08C133.385 8.96681 133.284 8.8159 133.146 8.63983C133.108 8.58952 133.096 8.53922 133.096 8.47634C133.825 8.35057 134.429 8.16193 134.907 7.91041C135.41 7.6463 135.799 7.3319 136.089 6.97976C136.378 6.56474 136.617 6.04912 136.793 5.43288C136.956 4.80407 137.07 3.91115 137.133 2.72898C137.158 2.01213 137.17 1.28271 137.17 0.54071C137.17 0.465253 137.183 0.414948 137.208 0.414948C137.862 0.477829 138.189 0.54071 138.189 0.578439ZM135.145 2.6661C135.485 3.05596 135.787 3.4081 136.038 3.72251C136.038 3.74766 136.013 3.77281 135.976 3.81054C135.749 4.12495 135.649 4.27586 135.649 4.27586C135.271 3.77281 134.856 3.32007 134.429 2.90505C134.077 2.57807 133.787 2.32654 133.561 2.1882C133.561 2.15047 133.674 1.98698 133.888 1.7103C133.926 1.67257 133.963 1.63485 133.976 1.63485C134.454 2.01213 134.844 2.35169 135.145 2.6661Z" fill="white"/>
<path d="M148.249 0.754552C147.444 0.93062 146.539 1.06896 145.545 1.14442C144.401 1.24503 143.219 1.28276 142.012 1.28276V1.71035H148.614C148.715 1.71035 148.765 1.74808 148.765 1.83611V3.79801C148.765 3.9112 148.715 3.9615 148.614 3.9615H145.784V4.94245H149.243C149.318 4.94245 149.369 5.00533 149.369 5.10594V5.42035C149.369 5.53354 149.331 5.58384 149.243 5.58384H144.552C144.527 5.9234 144.514 6.21265 144.489 6.4516H148.614C148.69 6.4516 148.727 6.50191 148.727 6.60252C148.702 7.3571 148.664 7.8853 148.602 8.21228C148.526 8.60215 148.4 8.8914 148.262 9.09262C148.124 9.29384 147.771 9.40703 147.193 9.40703C146.677 9.40703 146.413 9.33157 146.401 9.21838C146.363 9.06747 146.262 8.8914 146.099 8.69018V8.58957C146.489 8.61472 146.853 8.61472 147.193 8.61472C147.457 8.61472 147.646 8.53926 147.721 8.42608C147.809 8.32547 147.885 8.13682 147.948 7.83499C147.985 7.65893 148.023 7.4074 148.048 7.05526H144.363C144.363 7.06784 144.363 7.08042 144.363 7.08042C144.238 7.54574 144.061 7.9356 143.835 8.25001C143.646 8.50154 143.42 8.71533 143.143 8.8914C142.892 9.06747 142.565 9.23096 142.188 9.38188C142.012 9.19323 141.848 9.01716 141.71 8.86625C141.898 8.80337 142.137 8.69018 142.414 8.53926C142.716 8.3632 142.955 8.16198 143.143 7.9356C143.37 7.63377 143.533 7.28164 143.634 6.90435C143.734 6.60252 143.797 6.16235 143.81 5.58384H141.949C141.911 6.14977 141.861 6.62767 141.773 7.00496C141.697 7.50801 141.534 8.01106 141.295 8.51411C141.169 8.81594 140.98 9.1052 140.754 9.39445C140.704 9.39445 140.678 9.38188 140.653 9.3693C140.54 9.25611 140.427 9.16808 140.289 9.09262C140.251 9.05489 140.238 9.01716 140.238 8.96686C140.44 8.70276 140.628 8.37577 140.804 7.9356C140.968 7.48286 141.081 7.00496 141.156 6.50191C141.219 5.9737 141.27 5.33232 141.27 4.56516V0.855162C141.27 0.754552 141.32 0.691671 141.433 0.691671H141.546C143.081 0.691671 144.288 0.653942 145.168 0.565908C146.212 0.503027 147.155 0.352111 147.998 0.150891C148.098 0.125738 148.186 0.100586 148.262 0.100586C148.3 0.100586 148.337 0.125738 148.388 0.163467C148.702 0.440145 148.866 0.603637 148.866 0.691671C148.866 0.804857 148.828 0.855162 148.74 0.855162L148.513 0.7294C148.425 0.7294 148.325 0.741976 148.249 0.754552ZM142.012 3.32011H148.061V2.33916H142.012V3.32011ZM145.08 4.92987V3.9615H142.012V4.94245H145.08V4.92987Z" fill="white"/>
<path d="M152.073 3.28235C152.073 4.5274 152.01 5.52093 151.897 6.26293C151.821 6.86659 151.658 7.48282 151.419 8.08649C151.293 8.4512 151.117 8.80333 150.891 9.14289C150.84 9.14289 150.815 9.13032 150.79 9.11774C150.677 9.01713 150.564 8.9291 150.425 8.84106C150.388 8.80333 150.375 8.7656 150.375 8.70272C150.576 8.40089 150.752 7.9733 150.916 7.43252C151.067 6.86659 151.18 6.2755 151.243 5.64669C151.306 5.0053 151.356 4.21299 151.356 3.26977V0.61618C151.356 0.540723 151.406 0.490417 151.519 0.490417H158.675C158.776 0.490417 158.826 0.528146 158.826 0.61618V2.54035C158.826 2.65354 158.776 2.70384 158.675 2.70384H152.073V3.28235ZM158.952 3.48357C159.002 3.48357 159.027 3.5213 159.027 3.59676V3.92374C159.027 4.02435 159.002 4.07466 158.952 4.07466H155.079C154.739 4.69089 154.462 5.14364 154.286 5.44547C155.33 5.37001 156.424 5.2694 157.569 5.14364C157.405 4.90469 157.242 4.66574 157.091 4.46452C157.091 4.40164 157.229 4.28845 157.518 4.15011C157.581 4.15011 157.619 4.17527 157.644 4.18784C158.122 4.77893 158.575 5.42032 158.977 6.07428C158.977 6.17489 158.952 6.2252 158.902 6.2252C158.663 6.38869 158.474 6.46415 158.336 6.46415C158.185 6.18747 158.034 5.92337 157.896 5.68442C157.229 5.75988 156.6 5.83533 155.984 5.89821V6.92947H158.462C158.512 6.92947 158.537 6.9672 158.537 7.05523V7.36964C158.537 7.48282 158.512 7.53313 158.462 7.53313H155.984V8.56438H159.279C159.329 8.56438 159.354 8.58954 159.354 8.67757V9.00455C159.354 9.10516 159.329 9.15547 159.279 9.15547H151.985C151.922 9.15547 151.909 9.10516 151.909 9.00455V8.66499C151.909 8.58954 151.934 8.55181 151.985 8.55181H155.28V7.53313H152.84C152.79 7.53313 152.764 7.48282 152.764 7.36964V7.05523C152.764 6.97977 152.79 6.92947 152.84 6.92947H155.28V5.97367C154.55 6.04913 153.859 6.11201 153.192 6.14974C153.117 6.14974 153.066 6.20005 153.041 6.28808C153.016 6.45157 152.966 6.5396 152.865 6.5396C152.79 6.5396 152.639 6.21262 152.438 5.55865C152.601 5.55865 152.903 5.5335 153.356 5.49577C153.393 5.49577 153.431 5.49577 153.481 5.4832C153.506 5.44547 153.544 5.39516 153.569 5.34486C153.846 4.87954 154.098 4.45194 154.324 4.06208H152.601C152.538 4.06208 152.526 4.01177 152.526 3.91116V3.59676C152.526 3.5213 152.551 3.48357 152.601 3.48357H158.952ZM152.073 2.11276H158.122V1.0815H152.073V2.11276Z" fill="white"/>
<path d="M163.818 0.57843C163.919 0.57843 163.982 0.603583 164.007 0.616159C164.133 0.741922 164.208 0.829956 164.208 0.880261L162.699 3.06853C162.85 3.2446 162.988 3.40809 163.114 3.55901C163.114 3.57158 163.089 3.59674 163.064 3.63446C163.039 3.65962 163.039 3.65962 163.039 3.65962H164.208C164.296 3.65962 164.359 3.68477 164.372 3.70992C164.497 3.83568 164.56 3.91114 164.56 3.97402L163.718 5.92335C163.693 5.96107 163.68 5.98623 163.655 5.98623C163.278 5.89819 163.101 5.81016 163.101 5.74728L163.755 4.30101H162.586V8.61467C162.586 9.11772 162.171 9.36924 161.366 9.36924H160.976C160.926 9.36924 160.901 9.29379 160.901 9.1806C160.875 9.02969 160.825 8.85362 160.737 8.6524V8.62724C160.938 8.67755 161.127 8.7027 161.316 8.7027C161.68 8.7027 161.869 8.57694 161.869 8.35057V4.31358H160.536C160.46 4.31358 160.41 4.26328 160.41 4.15009V3.83568C160.41 3.73507 160.448 3.67219 160.536 3.67219H162.41C162.183 3.42067 161.957 3.18172 161.731 2.95535C161.441 2.67867 161.202 2.49002 161.001 2.37684C161.001 2.35168 161.102 2.20077 161.316 1.93667C161.341 1.89894 161.379 1.87379 161.391 1.87379C161.718 2.12531 161.995 2.35168 162.221 2.57806L163.202 1.19467H160.699C160.624 1.19467 160.574 1.14436 160.574 1.04375V0.729345C160.574 0.628735 160.611 0.57843 160.699 0.57843H163.818ZM169.44 0.57843C169.515 0.57843 169.566 0.628735 169.566 0.729345V1.05633C169.566 1.15694 169.528 1.20724 169.44 1.20724H167.503C167.34 1.58453 167.176 1.93667 166.988 2.27623H169.075C169.176 2.27623 169.226 2.31396 169.226 2.38941V7.62114C169.226 7.6966 169.176 7.74691 169.075 7.74691H168.094C168.346 7.99843 168.572 8.19965 168.799 8.35057C169 8.48891 169.302 8.63982 169.704 8.81589C169.754 8.85362 169.779 8.89135 169.779 8.92908C169.779 8.99196 169.629 9.16802 169.352 9.46986C169.327 9.46986 169.289 9.45728 169.251 9.4447C168.484 9.00453 167.918 8.60209 167.566 8.21223C167.528 8.1745 167.516 8.14935 167.516 8.13677C167.516 8.07389 167.629 7.94813 167.843 7.74691H166.208L166.598 8.03616C166.635 8.09904 166.673 8.13677 166.673 8.1745C166.673 8.19965 166.648 8.19965 166.598 8.19965C166.51 8.2248 166.447 8.23738 166.409 8.26253C166.195 8.47633 165.981 8.66497 165.742 8.84104C165.466 9.02969 165.101 9.23091 164.661 9.43213C164.585 9.43213 164.523 9.40697 164.497 9.35667C164.359 9.24348 164.246 9.15545 164.145 9.07999C164.095 9.05484 164.082 9.02969 164.082 9.00453C164.082 8.97938 164.095 8.9668 164.12 8.95423C164.321 8.89135 164.485 8.82846 164.623 8.75301C164.9 8.58952 165.151 8.42602 165.378 8.24996C165.541 8.11162 165.705 7.94813 165.906 7.74691H165.089C164.988 7.74691 164.938 7.70918 164.938 7.62114V2.37684C164.938 2.30138 164.988 2.26365 165.089 2.26365H166.17C166.321 2.03728 166.447 1.84863 166.522 1.68514C166.598 1.55938 166.661 1.39589 166.749 1.20724H164.749C164.674 1.20724 164.623 1.15694 164.623 1.05633V0.729345C164.623 0.628735 164.661 0.57843 164.749 0.57843H169.44ZM168.534 3.79796V2.89246H165.667V3.79796H168.534ZM168.534 5.40772V4.42677H165.667V5.40772H168.534ZM168.534 6.03653H165.667V7.09294H168.534V6.03653Z" fill="white"/>
<path d="M178.005 3.16917C178.08 3.16917 178.13 3.23205 178.13 3.33266V3.63449C178.13 3.74768 178.093 3.79798 178.005 3.79798H175.489V5.60897H177.816C177.891 5.60897 177.942 5.65927 177.942 5.75988V6.08686C177.942 6.18747 177.904 6.23778 177.816 6.23778H175.489V8.22483C175.565 8.24998 175.653 8.24998 175.728 8.26256C176.106 8.30029 176.734 8.32544 177.615 8.32544C177.979 8.32544 178.646 8.28771 179.652 8.19968C179.652 8.26256 179.627 8.30029 179.589 8.33802C179.514 8.51408 179.463 8.70273 179.413 8.8788C179.401 8.96683 179.375 9.01714 179.325 9.01714H177.829C176.646 9.01714 175.791 8.95426 175.276 8.84107C174.861 8.75303 174.508 8.63985 174.207 8.50151C173.968 8.38832 173.754 8.26256 173.59 8.09907C173.364 7.923 173.2 7.73436 173.062 7.52056C172.999 7.45768 172.962 7.3948 172.924 7.33192C172.861 7.47025 172.798 7.60859 172.735 7.72178C172.333 8.33802 171.805 8.81592 171.125 9.18063C171.05 9.18063 170.987 9.15547 170.949 9.10517C170.824 8.97941 170.723 8.8788 170.622 8.77819C170.559 8.71531 170.547 8.67758 170.547 8.63985C170.547 8.57697 170.585 8.55181 170.673 8.52666C171.05 8.35059 171.352 8.14937 171.591 7.93558C171.817 7.72178 172.018 7.49541 172.182 7.24388C172.308 7.00493 172.408 6.72825 172.509 6.41385C172.597 6.03656 172.647 5.58381 172.672 5.04303C172.672 4.92985 172.735 4.86697 172.873 4.86697L173.59 5.04303C173.666 5.08076 173.704 5.13107 173.704 5.18137C173.704 5.25683 173.653 5.30714 173.553 5.31971C173.49 5.35744 173.439 5.4329 173.427 5.53351C173.389 5.88564 173.326 6.21263 173.251 6.51446C173.389 6.84144 173.527 7.06781 173.641 7.20615C173.779 7.43253 173.955 7.58344 174.169 7.7092C174.345 7.84754 174.546 7.94815 174.798 8.03619V3.79798H172.282C172.207 3.79798 172.157 3.74768 172.157 3.63449V3.32008C172.157 3.21947 172.194 3.15659 172.282 3.15659H178.005V3.16917ZM175.728 0.339508C175.728 0.427542 175.691 0.477847 175.628 0.490423C175.565 0.502999 175.527 0.565881 175.527 0.691643V1.44622H179.187C179.287 1.44622 179.338 1.48395 179.338 1.55941V3.59676C179.338 3.67222 179.287 3.72253 179.187 3.72253H178.797C178.684 3.72253 178.633 3.6848 178.633 3.59676V2.06246H171.566V3.59676C171.566 3.67222 171.503 3.72253 171.402 3.72253H171.012C170.912 3.72253 170.861 3.6848 170.861 3.59676V1.59713C170.861 1.49652 170.912 1.44622 171.012 1.44622H174.785V0.339508C174.785 0.26405 174.835 0.213745 174.949 0.213745C175.477 0.213745 175.728 0.26405 175.728 0.339508Z" fill="white"/>
<path d="M188.229 3.48355C188.33 3.48355 188.393 3.52128 188.393 3.59674V7.73433C188.393 7.80979 188.33 7.84752 188.229 7.84752H186.934C187.236 8.08646 187.538 8.28769 187.814 8.4386C188.078 8.57694 188.468 8.74043 188.997 8.9165C189.059 8.95423 189.097 8.99196 189.097 9.01711C189.097 9.07999 188.946 9.24348 188.67 9.53274C188.644 9.53274 188.594 9.52016 188.544 9.50758C187.563 9.04226 186.859 8.62724 186.393 8.23738C186.343 8.19965 186.318 8.16192 186.318 8.16192C186.318 8.12419 186.406 8.01101 186.594 7.83494H183.853L184.155 8.06131C184.205 8.12419 184.23 8.16192 184.23 8.18708C184.23 8.21223 184.192 8.2248 184.129 8.2248C184.029 8.24996 183.953 8.26253 183.903 8.30026C183.639 8.52663 183.375 8.72785 183.098 8.90392C182.759 9.10514 182.319 9.31894 181.79 9.53274C181.715 9.53274 181.652 9.50758 181.627 9.45728C181.488 9.35667 181.375 9.26863 181.275 9.1806C181.224 9.15545 181.199 9.1303 181.199 9.10514C181.199 9.07999 181.212 9.07999 181.25 9.05484C181.488 8.99196 181.702 8.92908 181.878 8.84104C182.218 8.67755 182.532 8.50148 182.796 8.31284C182.972 8.18708 183.174 8.02358 183.375 7.83494H182.08C181.966 7.83494 181.916 7.80979 181.916 7.72175V3.59674C181.916 3.52128 181.966 3.48355 182.08 3.48355H188.229ZM188.896 0.57843C188.997 0.57843 189.047 0.616159 189.047 0.691617V2.81701C189.047 2.89246 188.997 2.94277 188.896 2.94277H181.551C181.438 2.94277 181.388 2.90504 181.388 2.81701V0.691617C181.388 0.616159 181.438 0.57843 181.551 0.57843H188.896ZM183.551 1.16951H182.105V2.35168H183.551V1.16951ZM187.676 4.74118V4.07463H182.62V4.75375H187.676V4.74118ZM187.676 5.9988V5.33226H182.62V6.01138H187.676V5.9988ZM187.676 6.58989H182.62V7.26901H187.676V6.58989ZM185.991 1.16951H184.268V2.35168H185.991V1.16951ZM188.343 1.16951H186.695V2.35168H188.343V1.16951Z" fill="white"/>
<path d="M194.87 0.729387V0.264065C194.87 0.188608 194.92 0.150879 195.033 0.150879C195.524 0.150879 195.775 0.188608 195.775 0.264065C195.775 0.364676 195.738 0.414981 195.675 0.414981C195.612 0.427557 195.587 0.490438 195.587 0.628777V0.741964H199.586C199.636 0.741964 199.661 0.779693 199.661 0.867727V1.18213C199.661 1.25759 199.636 1.3079 199.586 1.3079H195.587V1.82352H198.567C198.618 1.82352 198.643 1.86125 198.643 1.93671V2.17566C198.643 2.28885 198.618 2.33915 198.567 2.33915H191.826C191.764 2.33915 191.751 2.28885 191.751 2.17566V1.91156C191.751 1.8361 191.776 1.79837 191.826 1.79837H194.882V1.28274H190.795C190.732 1.28274 190.72 1.24501 190.72 1.15698V0.85515C190.72 0.779693 190.745 0.729387 190.795 0.729387H194.87ZM198.203 4.70349C198.303 4.70349 198.366 4.74122 198.366 4.82925V8.01105C198.366 8.08651 198.303 8.13681 198.203 8.13681H196.844C197.197 8.3003 197.536 8.43864 197.863 8.53925C198.152 8.62729 198.592 8.7279 199.158 8.85366C199.234 8.87881 199.272 8.90396 199.272 8.92912C199.272 8.97942 199.121 9.15549 198.844 9.44475C198.806 9.44475 198.769 9.43217 198.706 9.41959C197.624 9.11776 196.832 8.84108 196.329 8.58956C196.266 8.56441 196.253 8.53925 196.253 8.53925C196.253 8.47637 196.366 8.36318 196.593 8.14939H193.939C194.266 8.45122 194.442 8.61471 194.442 8.65244C194.442 8.69017 194.405 8.7279 194.342 8.7279C194.216 8.7279 194.14 8.74047 194.128 8.7782C193.285 9.05488 192.405 9.26868 191.499 9.45732C191.424 9.45732 191.374 9.41959 191.349 9.35671C191.311 9.28125 191.235 9.18064 191.135 9.10519C191.084 9.05488 191.059 9.01715 191.059 8.97942C191.059 8.94169 191.084 8.91654 191.172 8.91654C191.65 8.82851 192.053 8.7279 192.405 8.62729C192.833 8.50152 193.273 8.35061 193.713 8.14939H192.128C192.015 8.14939 191.965 8.11166 191.965 8.02363V4.82925C191.965 4.75379 192.015 4.70349 192.128 4.70349H198.203ZM198.995 2.70386C199.096 2.70386 199.158 2.74159 199.158 2.81705V4.20044C199.158 4.2759 199.096 4.3262 198.995 4.3262H191.386C191.273 4.3262 191.223 4.28847 191.223 4.20044V2.81705C191.223 2.74159 191.273 2.70386 191.386 2.70386H198.995ZM193.612 3.20691H191.927V3.798H193.612V3.20691ZM197.662 5.68444V5.24427H192.682V5.67186H197.662V5.68444ZM197.662 6.62766V6.18749H192.682V6.61508H197.662V6.62766ZM197.662 7.13071H192.682V7.5583H197.662V7.13071ZM196.052 3.20691H194.291V3.798H196.052V3.20691ZM198.454 3.20691H196.719V3.798H198.454V3.20691Z" fill="white"/>
<path d="M204.893 6.14977C204.968 5.92339 205.006 5.67187 205.006 5.38261C205.031 5.29458 205.069 5.24428 205.132 5.24428L205.861 5.37004C205.924 5.39519 205.962 5.40777 205.962 5.4455C205.962 5.47065 205.936 5.52095 205.886 5.57126C205.811 5.62156 205.773 5.68445 205.76 5.7599C205.735 5.89824 205.697 6.024 205.672 6.14977H209.609C209.684 6.14977 209.734 6.21265 209.734 6.31326V6.62767C209.734 6.74085 209.697 6.79116 209.609 6.79116H205.999C206.075 6.91692 206.163 7.04268 206.263 7.14329C206.427 7.34451 206.603 7.52058 206.817 7.6715C207.144 7.91045 207.521 8.12424 207.974 8.30031C208.389 8.4638 208.854 8.58956 209.357 8.6776C209.395 8.69017 209.42 8.70275 209.42 8.71533C209.42 8.77821 209.382 8.82851 209.319 8.87882C209.194 9.00458 209.08 9.13034 208.98 9.26868C208.955 9.34414 208.904 9.39445 208.829 9.39445C208.791 9.39445 208.665 9.34414 208.464 9.26868C207.785 9.04231 207.232 8.79078 206.779 8.50153C206.414 8.27516 206.15 8.02363 205.962 7.77211C205.798 7.60861 205.622 7.31936 205.396 6.89177C205.245 7.18102 205.069 7.4577 204.867 7.69665C204.628 7.97333 204.339 8.22485 203.975 8.42607C203.56 8.69017 203.144 8.90397 202.717 9.06746C202.44 9.16807 202.063 9.26868 201.623 9.39445C201.497 9.39445 201.422 9.35672 201.384 9.28126C201.308 9.1555 201.208 9.01716 201.095 8.89139C201.057 8.85367 201.044 8.81594 201.044 8.80336C201.044 8.76563 201.069 8.7279 201.107 8.7279C201.585 8.65244 202.038 8.53926 202.44 8.37577C202.918 8.22485 203.358 8.02363 203.723 7.77211C203.975 7.60861 204.201 7.39482 204.402 7.14329C204.478 7.04268 204.566 6.9295 204.629 6.80373H200.893C200.818 6.80373 200.768 6.75343 200.768 6.64024V6.31326C200.768 6.21265 200.805 6.14977 200.893 6.14977H204.893ZM202.767 0.968343V0.377258C202.767 0.3018 202.818 0.251495 202.931 0.251495C203.421 0.251495 203.673 0.289224 203.673 0.377258C203.673 0.465292 203.635 0.515597 203.572 0.528173C203.509 0.54075 203.484 0.603631 203.484 0.729394V0.968343H204.968C205.044 0.968343 205.094 1.01865 205.094 1.11926V1.44624C205.094 1.54685 205.056 1.59716 204.968 1.59716H203.484V2.57811H204.779C204.842 2.57811 204.893 2.62841 204.893 2.72902V3.056C204.893 3.15661 204.855 3.20692 204.779 3.20692H203.484V4.15014C204.037 4.07468 204.566 3.97407 205.056 3.88604C205.081 3.88604 205.094 3.87346 205.132 3.87346C205.182 3.87346 205.207 3.91119 205.207 3.98665C205.207 4.31363 205.182 4.47712 205.169 4.50228C204.603 4.57773 204.05 4.66577 203.484 4.72865V5.72217C203.484 5.79763 203.421 5.84794 203.321 5.84794H202.931C202.818 5.84794 202.767 5.81021 202.767 5.72217V4.82926C202.352 4.89214 201.95 4.94244 201.547 4.98017C201.447 5.15624 201.371 5.25685 201.321 5.25685C201.258 5.25685 201.145 4.99275 200.969 4.47712C201.472 4.43939 202.063 4.36394 202.767 4.26333V3.20692H201.484C201.409 3.20692 201.359 3.15661 201.359 3.056V2.72902C201.359 2.62841 201.396 2.57811 201.484 2.57811H202.767V1.59716H201.245C201.17 1.59716 201.12 1.54685 201.12 1.44624V1.11926C201.12 1.01865 201.157 0.968343 201.245 0.968343H202.767ZM209.37 0.817428C209.445 0.817428 209.483 0.855156 209.483 0.94319C209.458 2.06248 209.433 2.86736 209.37 3.34526C209.294 3.92377 209.181 4.36394 209.055 4.64061C208.93 4.95502 208.603 5.10594 208.074 5.10594C207.798 5.10594 207.647 5.04306 207.647 4.91729C207.622 4.77895 207.571 4.60289 207.471 4.40167V4.31363C207.685 4.33878 207.886 4.35136 208.062 4.35136C208.301 4.35136 208.452 4.25075 208.527 4.03695C208.603 3.87346 208.665 3.55906 208.728 3.09373C208.766 2.7416 208.804 2.17567 208.842 1.40851H207.358C207.332 2.03733 207.295 2.49007 207.257 2.77933C207.181 3.2195 207.081 3.58421 206.943 3.86089C206.829 4.08726 206.704 4.28848 206.54 4.43939C206.402 4.61546 206.213 4.76638 205.987 4.89214C205.811 4.71607 205.647 4.54 205.509 4.38909C205.609 4.33878 205.735 4.23817 205.874 4.08726C206.037 3.92377 206.163 3.73512 206.276 3.5339C206.402 3.25722 206.477 2.94282 206.54 2.59068C206.578 2.32658 206.616 1.92414 206.628 1.40851H205.735C205.66 1.40851 205.622 1.35821 205.622 1.24502V0.930614C205.622 0.855156 205.647 0.804851 205.735 0.804851H209.37V0.817428Z" fill="white"/>
<path d="M213.571 0.616225C213.596 0.691683 213.621 0.729412 213.621 0.729412C213.621 0.792293 213.559 0.817446 213.458 0.817446C213.294 0.817446 213.194 0.855175 213.156 0.930632C212.804 1.45884 212.477 1.92416 212.15 2.35175C212.414 2.57812 212.678 2.82965 212.955 3.09375C212.98 3.0686 212.993 3.03087 213.018 3.01829C213.433 2.47751 213.785 1.97446 214.062 1.52172C214.527 1.89901 214.766 2.1128 214.766 2.15053C214.766 2.20084 214.716 2.22599 214.64 2.22599C214.464 2.22599 214.363 2.25114 214.313 2.31402C213.684 3.21951 213.043 4.04955 212.427 4.80412C212.917 4.74124 213.508 4.67836 214.187 4.61548C214.062 4.3388 213.936 4.0747 213.785 3.79802C213.785 3.76029 213.948 3.65968 214.301 3.48362C214.527 3.88606 214.716 4.26334 214.854 4.61548C214.992 4.92989 215.105 5.25687 215.206 5.609C215.206 5.63416 214.992 5.69704 214.577 5.79765C214.54 5.57128 214.464 5.31975 214.363 5.04307L213.169 5.30717V9.25612C213.169 9.33158 213.106 9.38189 213.005 9.38189H212.615C212.502 9.38189 212.452 9.34416 212.452 9.25612V5.47067L211.156 5.75992C210.993 5.94856 210.905 6.0366 210.892 6.0366C210.867 6.0366 210.804 5.72219 210.704 5.09338C210.704 5.05565 210.98 4.99277 211.559 4.91731C211.987 4.38911 212.364 3.91121 212.678 3.50877C212.276 3.18178 211.974 2.95541 211.773 2.81707C211.471 2.62843 211.157 2.45236 210.817 2.31402C210.817 2.25114 210.955 2.08765 211.245 1.78582C211.27 1.74809 211.295 1.72294 211.333 1.72294C211.446 1.79839 211.559 1.87385 211.672 1.94931C211.873 1.68521 212.037 1.43368 212.2 1.18216C212.477 0.741988 212.691 0.402429 212.829 0.188632L213.571 0.616225ZM212.125 6.42646C212.125 6.50192 212.087 6.55223 211.999 6.57738C211.924 6.62768 211.873 6.69056 211.873 6.75345C211.798 7.31938 211.722 7.7847 211.622 8.13684C211.559 8.33806 211.483 8.5267 211.395 8.75307C211.37 8.7908 211.345 8.81595 211.32 8.81595C211.094 8.75307 210.892 8.69019 210.741 8.67762C210.679 8.65246 210.666 8.62731 210.666 8.58958C210.792 8.3129 210.918 8.01107 211.018 7.69667C211.119 7.36968 211.194 6.91694 211.257 6.28812C211.257 6.22524 211.282 6.18751 211.37 6.18751C211.873 6.28812 212.125 6.37616 212.125 6.42646ZM214.25 6.11206C214.414 6.53965 214.615 7.23134 214.841 8.16199C214.841 8.23745 214.64 8.28775 214.25 8.35063C214.175 8.35063 214.124 8.32548 214.124 8.27518C214.036 7.63378 213.898 6.95467 213.697 6.23782C213.697 6.17494 213.873 6.11206 214.213 6.04917C214.225 6.0366 214.238 6.07433 214.25 6.11206ZM216.615 0.440158C216.69 0.503039 216.728 0.540768 216.728 0.578497C216.728 0.641378 216.703 0.66653 216.652 0.691683C216.589 0.691683 216.564 0.741988 216.552 0.817446C216.476 1.15701 216.413 1.44626 216.35 1.67263H219.633C219.708 1.67263 219.759 1.73551 219.759 1.83612C219.734 3.8609 219.683 5.30717 219.595 6.18751C219.495 7.2565 219.369 8.03623 219.18 8.55185C219.017 9.09263 218.576 9.38189 217.86 9.38189C217.168 9.38189 216.816 9.30643 216.791 9.19324C216.74 9.04233 216.602 8.86626 216.363 8.66504V8.58958C216.904 8.61473 217.394 8.61473 217.847 8.61473C218.237 8.61473 218.488 8.42609 218.602 8.02365C218.727 7.69667 218.828 7.06785 218.916 6.13721C218.992 5.37006 219.054 4.09985 219.092 2.30145H216.137C216.049 2.5907 215.948 2.86738 215.847 3.1189C215.722 3.383 215.596 3.62195 215.458 3.83575C215.37 3.83575 215.294 3.82317 215.244 3.79802C215.118 3.76029 214.98 3.70999 214.854 3.65968C214.816 3.63453 214.791 3.62195 214.791 3.5968C214.791 3.57165 214.791 3.53392 214.816 3.52134C215.03 3.19436 215.219 2.8045 215.395 2.33917C215.495 2.07507 215.571 1.78582 215.659 1.48399C215.734 1.16958 215.81 0.754564 215.885 0.251514C215.898 0.213785 215.91 0.176056 215.935 0.176056L216.615 0.440158ZM216.677 4.27592C217.143 4.80412 217.558 5.35748 217.935 5.96114C217.935 6.06175 217.91 6.12463 217.86 6.13721C217.608 6.31328 217.407 6.40131 217.269 6.40131C216.841 5.67189 216.451 5.06823 216.086 4.59033C216.086 4.51487 216.25 4.40168 216.589 4.23819C216.64 4.22562 216.665 4.25077 216.677 4.27592Z" fill="white"/>
<path d="M225.053 0.616222V0.188629C225.053 0.113171 225.103 0.0628662 225.217 0.0628662C225.707 0.0628662 225.959 0.100595 225.959 0.188629C225.959 0.276663 225.921 0.326968 225.858 0.326968C225.795 0.35212 225.77 0.415002 225.77 0.540765V0.616222H228.6C228.7 0.616222 228.75 0.653951 228.75 0.729409V1.71036H229.819C229.87 1.71036 229.895 1.74809 229.895 1.83612V2.15053C229.895 2.22599 229.87 2.27629 229.819 2.27629H228.75V3.20693C228.75 3.28239 228.7 3.3327 228.6 3.3327H225.77V3.88605H228.675C228.713 3.88605 228.75 3.92378 228.75 3.99924V4.32622C228.75 4.40168 228.725 4.43941 228.675 4.43941H225.77V4.99276H229.731C229.782 4.99276 229.807 5.03049 229.807 5.11853V5.43293C229.807 5.50839 229.782 5.5587 229.731 5.5587H221.054C220.991 5.5587 220.978 5.52097 220.978 5.43293V5.09338C220.978 5.01792 221.003 4.96761 221.054 4.96761H225.053V4.42683H222.223C222.16 4.42683 222.148 4.40168 222.148 4.31365V3.98666C222.148 3.91121 222.173 3.87348 222.223 3.87348H225.053V3.32012H222.223C222.16 3.32012 222.148 3.28239 222.148 3.19436V2.89253C222.148 2.81707 222.173 2.76676 222.223 2.76676H225.053V2.26371H220.928C220.865 2.26371 220.853 2.22599 220.853 2.13795V1.83612C220.853 1.76066 220.878 1.71036 220.928 1.71036H225.053V1.16958H222.223C222.16 1.16958 222.148 1.14443 222.148 1.05639V0.729409C222.148 0.653951 222.173 0.616222 222.223 0.616222H225.053ZM228.31 5.99887C228.411 5.99887 228.474 6.0366 228.474 6.11205V9.25612C228.474 9.33158 228.411 9.38188 228.31 9.38188H227.92C227.82 9.38188 227.769 9.34416 227.769 9.25612V9.09263H223.129V9.25612C223.129 9.33158 223.066 9.38188 222.965 9.38188H222.575C222.475 9.38188 222.425 9.34416 222.425 9.25612V6.11205C222.425 6.0366 222.475 5.99887 222.575 5.99887H228.31ZM227.769 7.29422V6.53965H223.129V7.29422H227.769ZM227.769 8.55185V7.835H223.129V8.55185H227.769ZM225.77 1.72293H228.046V1.16958H225.77V1.72293ZM225.77 2.76676H228.046V2.26371H225.77V2.76676Z" fill="white"/>
<path d="M231.931 9.25611C231.931 9.33156 231.856 9.38187 231.73 9.38187H231.34C231.24 9.38187 231.189 9.34414 231.189 9.25611V0.729394C231.189 0.628783 231.24 0.578478 231.34 0.578478H233.78C233.893 0.578478 233.969 0.603631 234.019 0.628784C234.17 0.779699 234.245 0.880309 234.245 0.930614L233.302 3.30753C233.277 3.37041 233.277 3.40814 233.277 3.43329C233.277 3.47102 233.29 3.52133 233.327 3.57163C233.541 3.89861 233.717 4.30105 233.881 4.7538C234.019 5.2317 234.107 5.69702 234.107 6.1875C234.107 6.52705 234.044 6.81631 233.931 7.06783C233.805 7.33194 233.604 7.49543 233.365 7.59604C233.202 7.70922 232.938 7.75953 232.573 7.75953C232.409 7.75953 232.334 7.70922 232.334 7.60861C232.309 7.38224 232.258 7.21875 232.183 7.09299C232.183 7.04268 232.221 7.01753 232.309 7.01753L232.736 7.05526C232.988 7.05526 233.164 6.9798 233.277 6.79116C233.378 6.64024 233.441 6.43902 233.441 6.1875C233.441 5.84794 233.378 5.45807 233.265 5.04305C233.101 4.57773 232.862 4.12499 232.56 3.68482C232.523 3.64709 232.51 3.60936 232.51 3.55905C232.51 3.5339 232.51 3.4836 232.535 3.40814L233.516 1.19472H231.957V9.25611H231.931ZM236.572 0.767123C236.572 0.830004 236.547 0.855156 236.497 0.855156C236.371 0.867733 236.295 0.905461 236.27 0.968343C236.006 1.7355 235.755 2.35173 235.516 2.7919V9.25611C235.516 9.33156 235.465 9.38187 235.365 9.38187H234.975C234.862 9.38187 234.811 9.34414 234.811 9.25611V3.87346C234.711 4.0118 234.61 4.15014 234.497 4.30105C234.422 4.30105 234.346 4.2759 234.283 4.20044C234.183 4.12499 234.082 4.03695 233.969 3.94892C233.918 3.92377 233.893 3.87346 233.893 3.82316C234.095 3.54648 234.308 3.25722 234.522 2.94282C234.786 2.54038 235.038 2.10021 235.239 1.60973C235.415 1.16956 235.566 0.74197 235.667 0.326953C235.679 0.276648 235.704 0.251495 235.742 0.251495C236.295 0.553326 236.572 0.716817 236.572 0.767123ZM238.534 2.70387V1.01865C238.534 0.830004 238.509 0.679089 238.496 0.578478C238.459 0.503021 238.459 0.440139 238.459 0.389834C238.459 0.339529 238.521 0.314377 238.66 0.314377L239.439 0.427563C239.515 0.465292 239.565 0.503021 239.565 0.515597C239.565 0.578478 239.528 0.603631 239.439 0.603631C239.301 0.653936 239.238 0.804851 239.238 1.06895V2.71644H240.031C240.106 2.71644 240.144 2.76675 240.144 2.86736V3.18177C240.144 3.29495 240.106 3.34526 240.031 3.34526H239.238V8.53926C239.238 9.00458 238.899 9.24353 238.22 9.24353L237.352 9.16807C237.289 9.16807 237.276 9.10519 237.276 8.992C237.251 8.86624 237.188 8.71533 237.088 8.53926C237.088 8.47638 237.113 8.4638 237.163 8.4638C237.528 8.56441 237.855 8.62729 238.144 8.62729C238.408 8.62729 238.534 8.50153 238.534 8.26258V3.35783H236.22C236.145 3.35783 236.094 3.30753 236.094 3.19434V2.85478C236.094 2.75417 236.132 2.70387 236.22 2.70387H238.534ZM236.924 4.66577C237.201 5.19397 237.452 5.73475 237.666 6.31326C237.666 6.41387 237.641 6.46417 237.603 6.47675C237.364 6.64024 237.176 6.70312 237.037 6.70312C236.798 5.99885 236.572 5.40777 236.358 4.92987C236.358 4.85441 236.497 4.7538 236.786 4.61546C236.861 4.62804 236.899 4.64061 236.924 4.66577Z" fill="white"/>
<path d="M249.299 0.465243C249.4 0.465243 249.463 0.502972 249.463 0.591006V9.29379C249.463 9.36924 249.4 9.41955 249.299 9.41955H248.909C248.809 9.41955 248.758 9.38182 248.758 9.29379V9.01711H242.118V9.29379C242.118 9.36924 242.055 9.41955 241.955 9.41955H241.565C241.452 9.41955 241.401 9.38182 241.401 9.29379V0.57843C241.401 0.502972 241.452 0.452667 241.565 0.452667H249.299V0.465243ZM248.758 8.4386V1.05633H242.118V8.4386H248.758ZM247.727 1.63484C247.828 1.63484 247.891 1.67257 247.891 1.7606V3.09368C247.891 3.16914 247.828 3.20687 247.727 3.20687H245.916V3.68477H248.356C248.394 3.68477 248.431 3.7225 248.431 3.81053V4.12494C248.431 4.2004 248.406 4.2507 248.356 4.2507H242.697C242.634 4.2507 242.621 4.21297 242.621 4.12494V3.79796C242.621 3.7225 242.646 3.67219 242.697 3.67219H245.25V3.20687H243.439C243.338 3.20687 243.288 3.18172 243.288 3.09368V1.7606C243.288 1.68514 243.338 1.63484 243.439 1.63484H247.727ZM248.042 4.7789C248.142 4.7789 248.205 4.81663 248.205 4.89209V7.87267C248.205 7.94813 248.142 7.99843 248.042 7.99843H242.986C242.873 7.99843 242.822 7.9607 242.822 7.87267V4.89209C242.822 4.81663 242.873 4.7789 242.986 4.7789H248.042ZM247.539 5.28196H243.489V7.4828H247.539V5.28196ZM247.212 2.15046H243.954V2.70382H247.212V2.15046ZM246.822 5.6844C246.922 5.6844 246.985 5.70955 246.985 5.75985V7.01748C246.985 7.08036 246.922 7.09294 246.822 7.09294H244.269C244.168 7.09294 244.118 7.06779 244.118 7.01748V5.75985C244.118 5.70955 244.168 5.6844 244.269 5.6844H246.822ZM246.394 6.14972H244.709V6.62762H246.394V6.14972Z" fill="white"/>
<path d="M255.588 0.515576C255.663 0.578457 255.713 0.616186 255.713 0.653915C255.713 0.729372 255.676 0.792254 255.588 0.817406C255.412 0.817406 255.311 0.930593 255.261 1.14439C255.16 1.5091 255.072 1.84866 254.984 2.16307H257.864C257.99 2.16307 258.065 2.2008 258.065 2.28883L257.738 3.97405H258.971C259.096 3.97405 259.172 4.01178 259.172 4.08724L258.845 5.73473H259.864C259.989 5.73473 260.065 5.81019 260.065 5.93595C259.914 6.87917 259.75 7.69663 259.587 8.37575C259.486 8.82849 259.361 9.10517 259.235 9.23093C259.071 9.36927 258.757 9.44473 258.292 9.44473C257.864 9.44473 257.638 9.36927 257.638 9.24351C257.6 9.10517 257.55 8.95426 257.462 8.76561C257.462 8.70273 257.487 8.69015 257.537 8.69015C257.864 8.74046 258.141 8.76561 258.367 8.76561C258.543 8.76561 258.681 8.70273 258.782 8.58954C258.857 8.51409 259.034 7.78466 259.335 6.37612H253.437C253.311 6.6528 253.173 6.94205 253.035 7.20615C252.632 7.89785 252.205 8.51409 251.764 9.08002C251.664 9.08002 251.588 9.05487 251.526 9.04229C251.375 8.97941 251.236 8.91653 251.098 8.8788C251.035 8.85365 251.022 8.82849 251.022 8.80334C251.022 8.70273 251.048 8.63985 251.11 8.60212C251.815 7.79724 252.444 6.82887 252.997 5.65927C253.324 4.99273 253.613 4.28846 253.852 3.5213C253.928 3.29493 254.003 3.05598 254.078 2.79188H251.337C251.261 2.79188 251.211 2.74158 251.211 2.64097V2.31398C251.211 2.21337 251.249 2.15049 251.337 2.15049H254.242C254.368 1.62229 254.506 1.05636 254.619 0.414965C254.657 0.289203 254.72 0.213745 254.783 0.213745L255.588 0.515576ZM252.683 0.339508C252.959 0.716796 253.223 1.10666 253.462 1.52168C253.462 1.62229 253.437 1.68517 253.399 1.68517C253.16 1.84866 252.972 1.91154 252.833 1.91154C252.582 1.39591 252.356 0.968322 252.129 0.628762C252.129 0.553304 252.268 0.452694 252.557 0.301779C252.632 0.301779 252.657 0.314355 252.683 0.339508ZM254.041 7.20615C254.129 7.20615 254.179 7.25646 254.179 7.33192C254.053 8.06134 253.915 8.63985 253.752 9.10517C253.726 9.1429 253.714 9.18063 253.714 9.18063C253.588 9.18063 253.513 9.15548 253.462 9.1429C253.349 9.08002 253.223 9.02971 253.085 8.99198C253.035 8.96683 253.009 8.91653 253.009 8.86622C253.261 8.32544 253.437 7.78466 253.513 7.26903C253.525 7.19358 253.563 7.14327 253.638 7.14327L254.041 7.20615ZM258.115 5.72215L258.43 4.59029H254.217C254.192 4.62802 254.192 4.66575 254.192 4.67832C254.053 5.04303 253.902 5.39517 253.764 5.72215H258.115ZM257.009 3.96147L257.323 2.7793H254.82C254.682 3.24463 254.556 3.63449 254.456 3.96147H257.009ZM255.236 7.25646C255.349 7.58344 255.474 8.11165 255.625 8.82849C255.625 8.89137 255.424 8.95426 255.047 9.01714C254.984 9.01714 254.971 8.99198 254.971 8.95426C254.909 8.4512 254.82 7.923 254.695 7.36965C254.695 7.30676 254.858 7.24388 255.198 7.181C255.21 7.181 255.223 7.20615 255.236 7.25646ZM256.455 7.09297C256.631 7.47026 256.808 7.86012 256.971 8.27514C256.971 8.37575 256.946 8.42605 256.908 8.43863C256.682 8.58954 256.506 8.665 256.38 8.665C256.216 8.14937 256.078 7.72178 255.952 7.36965C255.952 7.30676 256.091 7.19358 256.38 7.05524C256.418 7.05524 256.43 7.08039 256.455 7.09297ZM257.675 6.90432C257.939 7.181 258.204 7.48283 258.43 7.79724C258.43 7.89785 258.405 7.96073 258.354 7.96073C258.128 8.12422 257.952 8.1871 257.826 8.1871C257.587 7.78466 257.361 7.4451 257.16 7.16842C257.16 7.09297 257.298 6.99236 257.587 6.85402C257.625 6.86659 257.65 6.87917 257.675 6.90432Z" fill="white"/>
<path d="M262.417 2.45237C262.669 2.62844 262.895 2.77936 263.071 2.89254C263.071 2.9177 263.046 2.93027 263.021 2.968C262.82 3.2321 262.719 3.37044 262.707 3.37044C262.43 3.16922 262.141 2.98058 261.839 2.79193C261.587 2.65359 261.373 2.56556 261.21 2.50268C261.21 2.47753 261.298 2.33919 261.487 2.10024C261.512 2.06251 261.55 2.02478 261.562 2.02478C261.914 2.18827 262.191 2.32661 262.417 2.45237ZM265.498 6.90437V6.27556C265.498 6.2001 265.549 6.1498 265.649 6.1498C266.152 6.1498 266.404 6.18753 266.404 6.27556C266.404 6.36359 266.366 6.4139 266.303 6.42648C266.228 6.43905 266.203 6.50193 266.203 6.6277V6.90437H269.812C269.888 6.90437 269.938 6.95468 269.938 7.05529V7.3697C269.938 7.48288 269.9 7.53319 269.812 7.53319H266.203V9.34417C266.203 9.41963 266.14 9.45736 266.039 9.45736H265.649C265.549 9.45736 265.498 9.41963 265.498 9.34417V7.53319H261.336C261.26 7.53319 261.21 7.48288 261.21 7.3697V7.05529C261.21 6.95468 261.248 6.90437 261.336 6.90437H265.498ZM263.549 3.67227C263.687 3.99926 263.776 4.16275 263.776 4.1879C263.776 4.21305 263.75 4.25078 263.725 4.26336C263.373 4.72868 263.046 5.10597 262.732 5.43295C262.556 5.60902 262.354 5.81024 262.103 6.01146C262.065 6.07434 262.04 6.13722 262.04 6.22526C262.04 6.30071 262.015 6.35102 261.965 6.35102C261.927 6.35102 261.738 6.17495 261.399 5.78509C261.361 5.75993 261.336 5.73478 261.336 5.6719C261.336 5.64675 261.348 5.62159 261.386 5.59644C261.587 5.48325 261.788 5.34492 261.99 5.16885C262.266 4.94248 262.543 4.6658 262.82 4.36397C263.046 4.11244 263.247 3.87349 263.436 3.64712C263.461 3.62197 263.474 3.59681 263.499 3.59681C263.524 3.59681 263.524 3.62197 263.549 3.67227ZM263.084 0.767153C263.31 0.943221 263.511 1.09414 263.687 1.20732C263.687 1.23247 263.662 1.24505 263.637 1.28278C263.436 1.55946 263.335 1.68522 263.335 1.68522C263.071 1.484 262.807 1.29536 262.53 1.10671C262.304 0.968373 262.103 0.880339 261.952 0.817458C261.952 0.792305 262.04 0.653966 262.229 0.415017C262.254 0.377288 262.279 0.339559 262.292 0.339559C262.619 0.503051 262.883 0.64139 263.084 0.767153ZM266.077 0.415017C266.077 0.477898 266.052 0.503051 266.027 0.503051C265.926 0.515627 265.863 0.553356 265.851 0.616237C265.725 0.880339 265.599 1.11929 265.486 1.32051H267.071C267.146 1.19475 267.209 1.09414 267.259 1.01868C267.36 0.817458 267.46 0.553356 267.548 0.251525C267.561 0.213797 267.574 0.176068 267.611 0.176068C268.152 0.415017 268.441 0.54078 268.441 0.565932C268.441 0.591085 268.404 0.616237 268.316 0.64139C268.24 0.666542 268.177 0.704271 268.139 0.779729C268.064 0.955797 267.963 1.13186 267.863 1.30793H269.737C269.774 1.30793 269.812 1.34566 269.812 1.4337V1.7481C269.812 1.82356 269.787 1.87386 269.737 1.87386H267.724V2.57814H269.498C269.548 2.57814 269.573 2.61586 269.573 2.7039V3.01831C269.573 3.11892 269.548 3.16922 269.498 3.16922H267.724V3.84834H269.498C269.548 3.84834 269.573 3.88607 269.573 3.9741V4.28851C269.573 4.38912 269.548 4.43942 269.498 4.43942H267.724V5.15627H269.925C269.976 5.15627 270.001 5.194 270.001 5.26946V5.59644C270.001 5.69705 269.976 5.74736 269.925 5.74736H265.247V6.13722C265.247 6.21268 265.197 6.26298 265.096 6.26298H264.769C264.668 6.26298 264.618 6.22526 264.618 6.13722V2.4398C264.442 2.62844 264.216 2.85481 263.939 3.09376C263.876 3.09376 263.813 3.06861 263.763 3.00573C263.675 2.93027 263.587 2.85481 263.486 2.77936C263.449 2.7542 263.423 2.7039 263.423 2.66617C263.65 2.46495 263.864 2.23858 264.103 2.0122C264.392 1.72295 264.643 1.38339 264.87 1.01868C265.058 0.691695 265.209 0.389864 265.31 0.0754576C265.31 0.0251526 265.335 0 265.348 0C265.838 0.226373 266.077 0.377288 266.077 0.415017ZM267.033 1.87386H265.26V2.57814H267.033V1.87386ZM267.033 3.16922H265.26V3.84834H267.033V3.16922ZM267.033 5.13112V4.42685H265.26V5.1437H267.033V5.13112Z" fill="white"/>
</svg>
