<svg width="225" height="233" viewBox="0 0 225 233" fill="none" xmlns="http://www.w3.org/2000/svg">
<path d="M86.2103 115.393H75.4552C75.1973 115.393 74.991 115.213 74.991 114.991V69.5567C74.991 69.4639 75.0271 69.3762 75.0942 69.304L93.0141 50.1254C93.0812 50.0532 93.1173 49.9655 93.1173 49.8727V5.44423C93.1173 5.28948 93.2204 5.14504 93.3855 5.08314L105.9 0.0383257C106.209 -0.0854735 106.565 0.105384 106.565 0.399407V51.286C106.565 51.3789 106.524 51.4717 106.457 51.544L86.788 71.5066C86.7158 71.5788 86.6797 71.6717 86.6797 71.7645V114.991C86.6797 115.213 86.4734 115.393 86.2155 115.393H86.2103ZM78.1943 56.4495L86.5765 47.1388C86.6384 47.0666 86.6746 46.984 86.6746 46.8912V8.41541C86.6746 8.12138 86.3186 7.92537 86.0091 8.05433L75.2541 12.3873C75.089 12.4544 74.9858 12.5936 74.9858 12.7484V57.0427C74.9858 57.3109 75.2902 57.507 75.5894 57.4244L77.2968 56.9808C77.6527 56.888 77.9673 56.7023 78.1943 56.4495ZM102.738 65.6519L93.2411 74.421C93.1585 74.4932 93.1173 74.5913 93.1173 74.6944V114.986C93.1173 115.208 93.3236 115.388 93.5815 115.388H106.096C106.353 115.388 106.56 115.208 106.56 114.986V65.523C106.56 65.2754 106.302 65.0897 106.023 65.1258L103.006 65.5333C102.903 65.5487 102.81 65.59 102.738 65.6571V65.6519Z" fill="url(#paint0_linear_5_5448)"/>
<path d="M145.619 26.1548L135.875 19.841C135.235 19.4283 134.327 19.8204 134.327 20.5064V26.1032L115.515 13.2538C114.886 12.8257 113.962 13.2074 113.962 13.8986V114.568C113.962 115.022 114.391 115.393 114.922 115.393H145.051C145.583 115.393 146.011 115.022 146.011 114.568V26.8202C146.011 26.5571 145.866 26.3147 145.624 26.1548H145.619ZM134.327 103.911C134.327 104.365 133.899 104.736 133.368 104.736H128.375C127.843 104.736 127.415 104.365 127.415 103.911V36.6725C127.415 35.9658 128.385 35.5893 129.004 36.0535L133.997 39.7933C134.204 39.948 134.327 40.175 134.327 40.4123V103.911Z" fill="#76AE80"/>
<path d="M104.043 161.261H58.0415V164.243H104.043V161.261Z" fill="#221815"/>
<path d="M59.3101 165.31C58.882 165.31 58.4745 165.228 58.1134 165.068C57.2932 164.707 56.7825 164.17 56.633 163.515C56.5298 163.108 56.4318 162.716 56.5762 162.277C56.6691 161.994 56.9476 161.483 57.8091 161.287C58.0824 161.251 58.2011 161.246 58.3197 161.246L58.8923 161.256H62.9158V163.226L61.5849 164.444C60.9969 164.98 60.1458 165.305 59.305 165.305L59.3101 165.31Z" fill="#221815"/>
<path d="M100.804 164.243L98.627 161.772L99.9991 161.467C100.386 161.38 101.299 161.065 101.634 160.637C101.83 160.379 102.109 160.054 102.485 159.801C102.717 159.646 102.975 159.569 103.254 159.569C103.827 159.569 104.322 159.915 104.693 160.214C105.374 160.766 105.782 161.447 105.874 162.179C105.957 162.865 105.735 163.314 105.529 163.567C105.028 164.196 104.203 164.248 103.966 164.248H100.809L100.804 164.243Z" fill="#221815"/>
<path d="M57.3296 195.296L57.9022 194.929C62.6736 191.896 69.3175 186.454 73.8671 177.783L74.0219 177.499C74.8162 176.019 76.6681 172.553 77.9576 165.357C78.8294 160.513 78.7572 156.428 78.6901 152.482V152.306C78.6695 151.238 78.6488 150.166 78.6488 149.077V148.272H83.5492L83.4925 154.442L83.4615 155.907C83.3377 162.587 83.152 172.682 74.646 184.267C69.1421 191.762 62.0288 196.08 59.2278 197.586L58.4541 198.004L57.3296 195.296Z" fill="#221815"/>
<path d="M101.918 197.606C96.4551 192.954 91.7817 187.527 88.0264 181.476C87.6911 180.93 87.361 180.383 87.036 179.826C86.123 178.258 85.2719 176.653 84.5085 175.054C83.8121 173.61 83.1621 172.114 82.5638 170.618C82.1511 169.581 81.8107 168.617 81.5218 167.673C81.3516 167.126 81.1968 166.574 81.0576 166.012L80.2632 162.85L82.8372 161.344L83.1002 162.319C84.3021 166.77 88.176 174.745 93.2569 181.384C97.2443 186.599 101.232 190.292 106.178 193.366L107.081 193.929L102.444 198.05L101.918 197.601V197.606Z" fill="#221815"/>
<path d="M5.70508 163.092L5.70508 153.209H1.32569L1.32569 163.092H5.70508Z" fill="#221815"/>
<path d="M46.9766 163.092V154.762H42.5972V163.092H46.9766Z" fill="#221815"/>
<path d="M26.4932 193.268V174.461H22.1138V193.268H26.4932Z" fill="#221815"/>
<path d="M22.5622 197.864L16.5425 196.9V193.764L21.4893 193.733C21.8349 193.733 22.1134 193.449 22.1134 193.103V191.68H26.4928V194.058C26.4928 196.162 24.7597 197.875 22.6293 197.875H22.5571L22.5622 197.864Z" fill="#221815"/>
<path d="M46.203 154.906H2.32129V157.506H46.203V154.906Z" fill="#221815"/>
<path d="M42.979 157.506L40.73 155.205L42.1691 154.921C42.5612 154.844 43.4742 154.555 43.8043 154.173C44.0107 153.936 44.2892 153.637 44.6554 153.42C44.8824 153.281 45.1352 153.214 45.4086 153.214C45.9708 153.214 46.4609 153.524 46.8271 153.792C47.5131 154.297 47.9258 154.921 48.0238 155.597C48.096 156.097 47.9671 156.562 47.6679 156.902C47.183 157.454 46.4196 157.511 46.1204 157.511H42.979V157.506Z" fill="#221815"/>
<path d="M43.8815 195.481C41.777 193.557 39.7549 191.494 37.8721 189.353C35.9842 187.207 33.6423 183.793 32.0897 181.538L30.9136 179.831L33.6475 177.881L34.1117 178.485C35.6283 180.45 38.9966 184.066 41.6274 186.552C43.5772 188.394 45.6766 190.111 47.8638 191.664L48.6736 192.237L44.4025 195.961L43.8815 195.486V195.481Z" fill="#221815"/>
<path d="M0 194.553L0.603521 193.954C4.38971 190.215 7.71682 186.042 10.5023 181.544C11.0233 180.703 11.5494 179.795 12.153 178.696L12.4934 178.072L16.4395 179.754L15.9856 180.522C14.8095 182.493 13.5251 184.422 12.1684 186.258C8.9806 190.56 5.66381 193.578 2.80096 196.069L2.28513 196.518L0.0103166 194.553H0Z" fill="#221815"/>
<path fill-rule="evenodd" clip-rule="evenodd" d="M23.7642 156.593C22.4231 156.593 21.5565 155.938 21.1903 154.653C21.051 154.174 21.0613 153.57 21.0716 152.977C21.0768 152.569 21.0819 152.146 21.0355 151.826C20.8859 150.821 20.1431 150.109 19.5448 149.536L19.0908 149.093L19.8594 147.958L20.1637 148.04C22.4386 148.664 24.4606 149.99 25.2086 150.924C26.0597 151.981 26.5755 152.698 26.4827 154.014C26.3847 155.401 25.2601 156.536 23.9293 156.588H23.7642V156.593Z" fill="#221815"/>
<path d="M46.0429 172.635H2.25928V175.617H46.0429V172.635Z" fill="#221815"/>
<path d="M3.52805 176.684C3.09991 176.684 2.69241 176.602 2.33133 176.442C1.51116 176.081 1.00048 175.545 0.850893 174.889C0.747727 174.482 0.654878 174.09 0.794152 173.651C0.887001 173.363 1.16555 172.852 2.02699 172.661C2.30038 172.625 2.41902 172.62 2.53766 172.62L3.11023 172.63H7.1337V174.601L5.80286 175.818C5.21482 176.354 4.3637 176.679 3.52289 176.679L3.52805 176.684Z" fill="#221815"/>
<path d="M42.8038 175.617L40.627 173.146L41.9991 172.841C42.3859 172.754 43.299 172.439 43.6291 172.011C43.8251 171.753 44.1036 171.423 44.4802 171.175C44.7123 171.02 44.9702 170.943 45.2488 170.943C45.8214 170.943 46.3166 171.289 46.688 171.588C47.3637 172.14 47.7764 172.821 47.8692 173.553C47.9517 174.239 47.7299 174.688 47.5236 174.941C47.0232 175.57 46.1979 175.622 45.9606 175.622H42.8038V175.617Z" fill="#221815"/>
<path d="M37.8978 164.377H10.3989V167.358H37.8978V164.377Z" fill="#221815"/>
<path d="M11.6731 168.426C11.2449 168.426 10.8374 168.344 10.4763 168.184C9.65617 167.823 9.1455 167.286 8.99591 166.631C8.89275 166.223 8.7999 165.831 8.93917 165.393C9.03202 165.104 9.31057 164.593 10.172 164.403C10.4454 164.366 10.564 164.361 10.6827 164.361L11.2552 164.372H15.2787V166.342L13.9479 167.559C13.3547 168.096 12.5036 168.421 11.6679 168.421L11.6731 168.426Z" fill="#221815"/>
<path d="M34.6587 167.358L32.4819 164.887L33.854 164.583C34.2409 164.495 35.1539 164.181 35.4841 163.753C35.6801 163.495 35.9586 163.165 36.3352 162.917C36.5673 162.762 36.8252 162.685 37.1038 162.685C37.6763 162.685 38.1715 163.03 38.5429 163.33C39.2238 163.887 39.6313 164.562 39.7242 165.295C39.8067 165.981 39.5849 166.43 39.3786 166.682C38.8782 167.312 38.0581 167.363 37.8156 167.363H34.6587V167.358Z" fill="#221815"/>
<path d="M116.449 196.838C115.876 196.276 115.417 195.796 114.999 195.321L114.721 195.002L115.025 194.713C117.253 192.582 120.503 189.08 122.989 183.308C124.485 179.831 125.558 175.591 126.265 170.345L126.348 169.71H130.763L130.619 170.577C129.979 174.363 128.519 180.156 126.332 185.041C123.866 190.55 120.256 194.104 117.042 196.859L116.732 197.122L116.444 196.838H116.449Z" fill="#221815"/>
<path d="M119.967 174.064C119.575 173.837 119.327 173.677 119.085 173.528C118.842 173.373 118.605 173.223 118.218 173.001L117.836 172.785L118.053 172.403C123.191 163.299 124.088 154.777 124.099 154.695L124.14 154.297H128.524L128.483 154.777C128.463 154.994 127.967 160.209 124.769 167.002C124.026 168.576 122.009 172.068 120.529 173.956L120.292 174.26L119.962 174.069L119.967 174.064Z" fill="#221815"/>
<path d="M130.691 153.709H116.959V156.273H130.691V153.709Z" fill="#221815"/>
<path d="M118.13 157.346C117.738 157.346 117.372 157.274 117.042 157.129C116.294 156.804 115.83 156.325 115.696 155.737L115.67 155.628C115.608 155.391 115.515 155.02 115.644 154.628C115.726 154.37 115.984 153.911 116.768 153.74C117.011 153.709 117.124 153.704 117.233 153.704L117.754 153.715H123.345V155.613L120.116 156.644C119.585 157.088 118.847 157.351 118.125 157.351L118.13 157.346Z" fill="#221815"/>
<path d="M157.07 166.982H137.433V169.545H157.07V166.982Z" fill="#221815"/>
<path d="M138.604 170.618C138.217 170.618 137.851 170.546 137.515 170.402C136.768 170.077 136.303 169.592 136.169 169.004L136.143 168.901C136.081 168.653 135.989 168.287 136.118 167.895C136.2 167.637 136.458 167.178 137.242 167.007C137.485 166.976 137.593 166.971 137.706 166.971L138.227 166.982H143.819V168.88L140.595 169.912C140.064 170.355 139.326 170.618 138.604 170.618Z" fill="#221815"/>
<path d="M127.586 156.273L125.481 153.998L126.801 153.725C127.183 153.642 128.076 153.348 128.401 152.946C128.597 152.703 128.865 152.404 129.221 152.177C129.443 152.038 129.685 151.966 129.948 151.966C130.49 151.966 130.964 152.28 131.32 152.554C131.975 153.065 132.372 153.694 132.465 154.37C132.548 154.999 132.331 155.417 132.13 155.654C131.65 156.227 130.866 156.273 130.634 156.273H127.591H127.586Z" fill="#221815"/>
<path d="M131.743 169.2H119.951V171.763H131.743V169.2Z" fill="#221815"/>
<path d="M128.638 171.768L126.533 169.494L127.854 169.22C128.235 169.138 129.128 168.844 129.453 168.441C129.649 168.199 129.922 167.895 130.273 167.673C130.495 167.534 130.737 167.461 131 167.461C131.542 167.461 132.016 167.776 132.372 168.049C133.028 168.56 133.425 169.189 133.518 169.865C133.6 170.494 133.383 170.912 133.182 171.149C132.703 171.722 131.918 171.768 131.686 171.768H128.643H128.638Z" fill="#221815"/>
<path d="M134.348 164.165C133.956 164.165 133.589 164.093 133.259 163.948C132.511 163.623 132.047 163.139 131.913 162.551L131.887 162.447C131.825 162.21 131.727 161.839 131.856 161.442C131.939 161.184 132.197 160.725 132.981 160.554C133.223 160.523 133.332 160.518 133.44 160.518L133.961 160.529H159.819C160.088 160.456 160.954 160.152 161.269 159.77C161.465 159.533 161.733 159.229 162.089 159.002C162.306 158.862 162.553 158.79 162.816 158.79C163.358 158.79 163.812 159.084 164.189 159.378C164.844 159.889 165.241 160.518 165.334 161.194C165.416 161.828 165.194 162.241 164.998 162.478C164.519 163.051 163.735 163.097 163.508 163.097H136.746L136.411 163.397C135.875 163.881 135.101 164.165 134.343 164.165H134.348Z" fill="#221815"/>
<path d="M137.742 178.418C137.35 178.418 136.984 178.345 136.654 178.201C135.906 177.876 135.442 177.391 135.308 176.803L135.282 176.7C135.22 176.463 135.122 176.091 135.251 175.694C135.333 175.436 135.591 174.972 136.375 174.807C136.618 174.776 136.726 174.771 136.834 174.771L137.355 174.781H154.672C154.94 174.709 155.807 174.404 156.116 174.023C156.312 173.78 156.586 173.481 156.936 173.254C157.158 173.115 157.401 173.043 157.664 173.043C158.205 173.043 158.659 173.337 159.036 173.631C159.691 174.141 160.088 174.771 160.181 175.446C160.263 176.081 160.042 176.494 159.846 176.731C159.381 177.288 158.649 177.35 158.355 177.35H140.136L139.8 177.649C139.264 178.129 138.49 178.418 137.732 178.418H137.742Z" fill="#221815"/>
<path d="M137.742 158.161C137.35 158.161 136.984 158.089 136.654 157.944C135.906 157.619 135.442 157.134 135.308 156.546L135.282 156.443C135.22 156.206 135.122 155.834 135.251 155.437C135.333 155.179 135.591 154.715 136.375 154.55C136.618 154.519 136.726 154.514 136.834 154.514L137.355 154.524H154.672C154.94 154.452 155.807 154.148 156.116 153.766C156.312 153.524 156.586 153.224 156.936 152.997C157.158 152.858 157.401 152.786 157.664 152.786C158.205 152.786 158.659 153.08 159.036 153.374C159.691 153.885 160.088 154.514 160.181 155.19C160.263 155.824 160.042 156.237 159.846 156.474C159.381 157.031 158.649 157.093 158.355 157.093H140.136L139.8 157.392C139.264 157.877 138.49 158.161 137.732 158.161H137.742Z" fill="#221815"/>
<path d="M134.972 184.881C134.58 184.881 134.214 184.809 133.884 184.664C133.136 184.339 132.672 183.855 132.538 183.267L132.512 183.169C132.45 182.926 132.352 182.555 132.481 182.163C132.563 181.9 132.826 181.44 133.605 181.27C133.848 181.239 133.956 181.234 134.07 181.234L134.591 181.244H157.648C157.916 181.172 158.783 180.868 159.098 180.486C159.294 180.249 159.562 179.945 159.918 179.718C160.14 179.578 160.382 179.506 160.645 179.506C161.187 179.506 161.641 179.8 162.017 180.094C162.672 180.605 163.07 181.234 163.162 181.91C163.245 182.544 163.023 182.957 162.827 183.194C162.347 183.767 161.563 183.813 161.336 183.813H137.371L137.036 184.112C136.499 184.592 135.731 184.881 134.967 184.881H134.972Z" fill="#221815"/>
<path d="M149.493 191.133V149.17H145.216V191.133H149.493Z" fill="#221815"/>
<path d="M158.545 170.319V155.721H154.269V170.319H158.545Z" fill="#221815"/>
<path d="M143.772 197.601C141.461 197.601 138.696 197.395 135.988 197.018C133.198 196.631 131.026 195.997 129.154 195.017C127.972 194.398 126.837 193.671 125.785 192.84C119.631 187.996 117.847 181.193 117.367 178.49L116.66 176.39L119.048 175.709L119.146 176.168C119.322 176.958 120.085 178.794 120.09 178.809C121.617 182.895 124.594 188.306 130.139 190.999C132.666 192.226 134.946 192.484 137.252 192.66C138.965 192.788 141.797 192.943 145.557 192.943C151.422 192.943 157.411 192.556 162.879 191.824L163.26 191.772L164.797 197.24L164.24 197.266C163.683 197.292 161.795 197.354 160.031 197.41C158.597 197.457 157.241 197.498 156.761 197.519C155.409 197.575 151.159 197.601 143.767 197.601H143.772Z" fill="#221815"/>
<path d="M195.402 196.874C195.103 196.214 194.804 195.559 194.494 194.904L194.313 194.522L194.685 194.326C198.342 192.402 203.088 189.477 207.4 183.865C209.613 180.981 211.568 177.407 213.379 172.929L213.492 172.651H218.733L218.454 173.27C217 176.525 214.152 181.636 210.526 186.201C206.095 191.783 200.926 194.733 195.995 197.086L195.588 197.282L195.402 196.869V196.874Z" fill="#221815"/>
<path d="M192.379 179.841H176.079V182.462H192.379V179.841Z" fill="#221815"/>
<path d="M192.374 191.112H177.652V193.733H192.374V191.112Z" fill="#221815"/>
<path d="M189.191 182.462L187.04 180.14L188.376 179.862C188.768 179.779 189.697 179.47 190.037 179.057C190.238 178.81 190.522 178.495 190.883 178.268C191.105 178.123 191.358 178.051 191.626 178.051C192.183 178.051 192.673 178.371 193.034 178.655C193.71 179.181 194.117 179.826 194.21 180.517C194.298 181.167 194.071 181.59 193.87 181.832C193.38 182.42 192.575 182.467 192.338 182.467H189.201L189.191 182.462Z" fill="#221815"/>
<path d="M214.389 150.63H202.288V153.25H214.389V150.63Z" fill="#221815"/>
<path d="M211.207 153.25L209.056 150.929L210.392 150.65C210.784 150.568 211.712 150.258 212.053 149.846C212.254 149.598 212.532 149.283 212.893 149.056C213.12 148.912 213.368 148.84 213.636 148.84C214.193 148.84 214.683 149.16 215.044 149.443C215.72 149.97 216.128 150.614 216.221 151.306C216.303 151.955 216.081 152.378 215.88 152.621C215.39 153.209 214.585 153.255 214.348 153.255H211.207V153.25Z" fill="#221815"/>
<path d="M176.079 160.91C175.676 160.91 175.3 160.838 174.964 160.688C174.196 160.353 173.721 159.858 173.582 159.254L173.556 159.146C173.494 158.904 173.396 158.522 173.525 158.12C173.613 157.851 173.876 157.382 174.681 157.212C174.933 157.181 175.042 157.176 175.155 157.176L175.697 157.186H190.058C190.341 157.109 191.239 156.794 191.564 156.397C191.78 156.134 192.049 155.834 192.405 155.608C192.626 155.468 192.884 155.391 193.147 155.391C193.704 155.391 194.169 155.695 194.556 155.994C195.231 156.521 195.639 157.165 195.732 157.857C195.814 158.501 195.592 158.929 195.391 159.172C194.901 159.76 194.097 159.806 193.859 159.806H178.56L178.209 160.121C177.657 160.616 176.863 160.91 176.084 160.91H176.079Z" fill="#221815"/>
<path d="M197.672 175.292C197.269 175.292 196.893 175.214 196.552 175.07C195.784 174.735 195.309 174.239 195.17 173.636L195.144 173.527C195.082 173.285 194.984 172.903 195.113 172.496C195.201 172.233 195.464 171.758 196.269 171.588C196.516 171.557 196.63 171.552 196.743 171.552L197.28 171.562H215.349C215.633 171.485 216.53 171.175 216.855 170.773C217.057 170.525 217.335 170.216 217.696 169.984C217.923 169.839 218.171 169.767 218.439 169.767C218.996 169.767 219.46 170.071 219.842 170.371C220.518 170.897 220.925 171.542 221.018 172.233C221.101 172.883 220.879 173.306 220.678 173.548C220.188 174.136 219.383 174.183 219.146 174.183H200.137L199.787 174.497C199.235 174.992 198.44 175.292 197.661 175.292H197.672Z" fill="#221815"/>
<path d="M178.653 168.751C178.251 168.751 177.874 168.674 177.534 168.529C176.765 168.194 176.29 167.699 176.151 167.095L176.125 166.987C176.063 166.744 175.96 166.363 176.094 165.955C176.177 165.692 176.445 165.223 177.245 165.047C177.497 165.016 177.606 165.011 177.719 165.011L178.261 165.022H187.479C187.762 164.944 188.66 164.63 188.985 164.232C189.186 163.985 189.465 163.675 189.826 163.443C190.048 163.304 190.306 163.226 190.569 163.226C191.126 163.226 191.59 163.531 191.977 163.83C192.653 164.356 193.06 165.001 193.153 165.692C193.235 166.337 193.014 166.765 192.812 167.007C192.322 167.596 191.518 167.642 191.28 167.642H181.124L180.773 167.957C180.226 168.452 179.432 168.746 178.648 168.746L178.653 168.751Z" fill="#221815"/>
<path d="M178.653 176.174C178.25 176.174 177.874 176.096 177.533 175.952C176.765 175.617 176.29 175.121 176.151 174.518L176.125 174.41C176.063 174.162 175.965 173.785 176.094 173.378C176.177 173.115 176.445 172.645 177.244 172.47C177.497 172.439 177.605 172.434 177.719 172.434L178.261 172.444H187.478C187.762 172.367 188.655 172.057 188.985 171.655C189.186 171.407 189.464 171.098 189.825 170.866C190.047 170.727 190.305 170.649 190.568 170.649C191.125 170.649 191.59 170.954 191.976 171.253C192.652 171.779 193.06 172.424 193.153 173.115C193.235 173.765 193.013 174.188 192.812 174.43C192.322 175.018 191.517 175.065 191.28 175.065H181.123L180.773 175.379C180.226 175.875 179.431 176.169 178.647 176.169L178.653 176.174Z" fill="#221815"/>
<path d="M181.067 197.813V181.007H176.677V197.813H181.067Z" fill="#221815"/>
<path d="M193.034 196.616V179.81H188.644V196.616H193.034Z" fill="#221815"/>
<path d="M221.214 197.978C217.5 196.585 212.022 193.738 207.018 188.084C204.217 184.922 201.916 181.291 200.183 177.277L199.678 175.998L202.437 175.276L202.747 175.895C204.578 179.604 206.92 182.941 209.705 185.809C213.997 190.23 219.496 192.113 222.777 193.242C223.236 193.402 223.654 193.542 224.004 193.671L225 194.037L221.699 198.158L221.208 197.978H221.214Z" fill="#221815"/>
<path fill-rule="evenodd" clip-rule="evenodd" d="M185.163 156.846C183.785 156.846 182.898 156.175 182.522 154.849C182.382 154.359 182.393 153.73 182.403 153.126C182.408 152.703 182.419 152.265 182.367 151.935C182.212 150.893 181.444 150.155 180.825 149.562L180.36 149.113L181.144 147.958L181.449 148.04C183.791 148.685 185.88 150.052 186.648 151.011C187.525 152.1 188.057 152.838 187.959 154.194C187.855 155.623 186.705 156.784 185.338 156.835H185.168L185.163 156.846Z" fill="#221815"/>
<path d="M194.948 168.199L195.278 167.987C195.319 167.962 199.595 165.15 200.627 160.761C201.679 156.263 200.957 150.006 200.947 149.944L200.89 149.448H205.424L205.471 151.801V152.301C205.44 156.118 205.409 160.864 202.505 164.996C200.55 167.766 198.197 169.153 196.361 170.051L195.969 170.242L194.958 168.194L194.948 168.199Z" fill="#221815"/>
<path d="M216.963 168.932C215.664 168.932 213.874 168.875 212.744 168.601C210.81 168.137 210.428 166.089 210.495 165.073V151.873H214.761V152.317C214.735 156.144 214.699 163.546 214.74 164.15C214.745 164.243 214.75 164.336 214.75 164.428C214.75 164.898 214.756 165.264 216.793 165.264C217.005 165.264 217.237 165.264 217.49 165.249C219.114 165.187 220.038 165.089 221.539 164.655L221.941 164.542L222.075 164.939C222.215 165.352 222.349 165.79 222.478 166.229C222.658 166.827 222.844 167.451 223.061 168.008L223.262 168.534L222.705 168.607C221.064 168.818 218.903 168.937 216.969 168.937L216.963 168.932Z" fill="#221815"/>
<path d="M0.572754 229.366V227.679L4.9212 220.515H0.758453V218.647H7.26823V220.303L2.90431 227.499H7.26823V229.366H0.572754Z" fill="#221815"/>
<path d="M16.3314 228.283C15.6144 229.036 14.7426 229.459 13.5872 229.459C12.4317 229.459 11.5445 229.036 10.8275 228.283C9.79581 227.2 9.82676 225.858 9.82676 224.007C9.82676 222.155 9.80097 220.814 10.8275 219.73C11.5445 218.977 12.4317 218.554 13.5872 218.554C14.7426 218.554 15.6195 218.977 16.3314 219.73C17.363 220.814 17.3476 222.155 17.3476 224.007C17.3476 225.858 17.363 227.2 16.3314 228.283ZM14.8561 220.999C14.5724 220.654 14.1288 220.427 13.582 220.427C13.0352 220.427 12.5813 220.654 12.2924 220.999C11.9056 221.453 11.8075 221.948 11.8075 224.012C11.8075 226.075 11.9056 226.57 12.2924 227.024C12.5761 227.37 13.0352 227.597 13.582 227.597C14.1288 227.597 14.5672 227.37 14.8561 227.024C15.243 226.57 15.3565 226.075 15.3565 224.012C15.3565 221.948 15.243 221.453 14.8561 220.999Z" fill="#221815"/>
<path d="M26.5446 229.366L22.5108 222.789V229.366H20.5249V218.647H22.2994L26.3331 225.209V218.647H28.3191V229.366H26.5446Z" fill="#221815"/>
<path d="M38.1148 228.236C37.2998 229.124 36.3249 229.454 35.2416 229.454C34.1584 229.454 33.2092 229.031 32.4974 228.278C31.4657 227.194 31.4967 225.853 31.4967 224.001C31.4967 222.15 31.4709 220.808 32.4974 219.725C33.2144 218.972 34.1016 218.549 35.2416 218.549C37.6041 218.549 38.8008 220.174 39.0742 221.979H37.0728C36.8458 220.968 36.2578 220.411 35.2416 220.411C34.7 220.411 34.2564 220.638 33.9675 220.984C33.5806 221.438 33.4826 221.933 33.4826 223.996C33.4826 226.06 33.5806 226.57 33.9675 227.024C34.2512 227.37 34.6948 227.581 35.2416 227.581C35.8451 227.581 36.33 227.354 36.6601 226.978C36.9903 226.586 37.1192 226.106 37.1192 225.549V225.141H35.2468V223.393H39.0949V224.956C39.0949 226.508 38.8369 227.437 38.1251 228.221L38.1148 228.236Z" fill="#221815"/>
<path d="M53.358 228.345C52.6874 229.052 51.728 229.366 50.6705 229.366H46.9927V218.647H50.6705C51.728 218.647 52.6874 218.962 53.358 219.669C54.5032 220.87 54.3897 222.346 54.3897 223.96C54.3897 225.575 54.5032 227.138 53.358 228.34V228.345ZM51.9704 221.18C51.63 220.741 51.1709 220.52 50.4848 220.52H48.9838V227.504H50.4848C51.1709 227.504 51.63 227.277 51.9704 226.844C52.3418 226.364 52.3986 225.595 52.3986 223.971C52.3986 222.346 52.3418 221.67 51.9704 221.185V221.18Z" fill="#221815"/>
<path d="M63.2151 229.366L62.6167 227.468H58.9956L58.3817 229.366H56.3081L60.0118 218.647H61.5696L65.2887 229.366H63.2151ZM60.8422 221.809L59.5527 225.709H62.0854L60.8422 221.809Z" fill="#221815"/>
<path d="M82.3315 228.376C81.7177 229.021 80.815 229.371 79.7575 229.371H76.2705V218.652H79.7575C80.815 218.652 81.7177 218.998 82.3315 219.648C83.389 220.762 83.3322 222.402 83.3322 223.893C83.3322 225.384 83.389 227.267 82.3315 228.381V228.376ZM81.5732 220.458C81.0419 219.885 80.3559 219.674 79.5718 219.674H77.3538V228.345H79.5718C80.361 228.345 81.0471 228.133 81.5732 227.561C82.2748 226.792 82.2438 225.198 82.2438 223.888C82.2438 222.578 82.2748 221.221 81.5732 220.458Z" fill="#221815"/>
<path d="M86.923 225.951C86.923 227.576 87.6503 228.51 88.9966 228.51C89.8116 228.51 90.2862 228.252 90.8433 227.669L91.5448 228.314C90.8278 229.067 90.1727 229.459 88.9708 229.459C87.1138 229.459 85.8965 228.283 85.8965 225.668C85.8965 223.274 86.9952 221.876 88.7851 221.876C90.5751 221.876 91.6738 223.259 91.6738 225.461V225.956H86.923V225.951ZM90.4255 223.903C90.1521 223.228 89.5228 222.789 88.78 222.789C88.0372 222.789 87.4079 223.228 87.1345 223.903C86.9797 224.311 86.9488 224.538 86.9178 225.136H90.637C90.606 224.533 90.5802 224.311 90.4203 223.903H90.4255Z" fill="#221815"/>
<path d="M96.6462 229.366H95.7332L93.1592 221.959H94.2734L96.1923 227.906L98.1215 221.959H99.2357L96.6462 229.366Z" fill="#221815"/>
<path d="M101.753 225.951C101.753 227.576 102.48 228.51 103.826 228.51C104.641 228.51 105.116 228.252 105.673 227.669L106.374 228.314C105.657 229.067 105.002 229.459 103.8 229.459C101.943 229.459 100.726 228.283 100.726 225.668C100.726 223.274 101.825 221.876 103.615 221.876C105.405 221.876 106.503 223.259 106.503 225.461V225.956H101.753V225.951ZM105.255 223.903C104.982 223.228 104.352 222.789 103.61 222.789C102.867 222.789 102.237 223.228 101.964 223.903C101.809 224.311 101.778 224.538 101.747 225.136H105.467C105.436 224.533 105.41 224.311 105.25 223.903H105.255Z" fill="#221815"/>
<path d="M111.017 229.366C109.79 229.366 109.232 228.525 109.232 227.396V218.652H110.264V227.354C110.264 228.077 110.491 228.438 111.208 228.438H111.765V229.371H111.022L111.017 229.366Z" fill="#221815"/>
<path d="M118.316 228.613C117.831 229.124 117.161 229.454 116.299 229.454C115.438 229.454 114.767 229.124 114.283 228.613C113.566 227.845 113.426 226.808 113.426 225.663C113.426 224.517 113.571 223.481 114.283 222.712C114.767 222.201 115.443 221.871 116.299 221.871C117.156 221.871 117.831 222.201 118.316 222.712C119.033 223.481 119.173 224.517 119.173 225.663C119.173 226.808 119.028 227.845 118.316 228.613ZM117.589 223.377C117.259 223.032 116.805 222.836 116.299 222.836C115.794 222.836 115.355 223.032 115.025 223.377C114.51 223.919 114.453 224.837 114.453 225.668C114.453 226.498 114.51 227.416 115.025 227.958C115.355 228.304 115.799 228.5 116.299 228.5C116.8 228.5 117.259 228.304 117.589 227.958C118.105 227.416 118.146 226.498 118.146 225.668C118.146 224.837 118.105 223.924 117.589 223.377Z" fill="#221815"/>
<path d="M126.678 228.809C126.306 229.201 125.677 229.454 124.96 229.454C124.186 229.454 123.547 229.258 122.974 228.489V232.673H121.942V221.954H122.974V222.825C123.547 222.041 124.191 221.861 124.96 221.861C125.677 221.861 126.306 222.119 126.678 222.506C127.395 223.259 127.534 224.492 127.534 225.652C127.534 226.813 127.39 228.046 126.678 228.799V228.809ZM124.748 222.831C123.216 222.831 122.974 224.213 122.974 225.663C122.974 227.112 123.216 228.494 124.748 228.494C126.281 228.494 126.507 227.112 126.507 225.663C126.507 224.213 126.281 222.831 124.748 222.831Z" fill="#221815"/>
<path d="M139.352 229.366V224.806C139.352 223.496 138.681 222.836 137.624 222.836C136.566 222.836 135.865 223.511 135.865 224.687V229.371H134.833V224.811C134.833 223.501 134.163 222.841 133.105 222.841C132.048 222.841 131.346 223.517 131.346 224.811V229.371H130.314V221.964H131.346V222.779C131.846 222.175 132.548 221.876 133.332 221.876C134.307 221.876 135.06 222.299 135.493 223.109C136.035 222.294 136.824 221.876 137.809 221.876C138.568 221.876 139.197 222.134 139.625 222.567C140.126 223.078 140.383 223.769 140.383 224.631V229.371H139.352V229.366Z" fill="#221815"/>
<path d="M144.097 225.951C144.097 227.576 144.825 228.51 146.171 228.51C146.986 228.51 147.461 228.252 148.018 227.669L148.719 228.314C148.002 229.067 147.347 229.459 146.145 229.459C144.288 229.459 143.071 228.283 143.071 225.668C143.071 223.274 144.17 221.876 145.959 221.876C147.749 221.876 148.848 223.259 148.848 225.461V225.956H144.097V225.951ZM147.6 223.903C147.326 223.228 146.697 222.789 145.954 222.789C145.212 222.789 144.582 223.228 144.309 223.903C144.154 224.311 144.123 224.538 144.092 225.136H147.811C147.78 224.533 147.755 224.311 147.595 223.903H147.6Z" fill="#221815"/>
<path d="M156.111 229.366V224.806C156.111 223.496 155.441 222.836 154.383 222.836C153.326 222.836 152.64 223.512 152.64 224.806V229.366H151.608V221.959H152.64V222.774C153.14 222.17 153.826 221.871 154.615 221.871C155.404 221.871 155.987 222.114 156.415 222.562C156.916 223.073 157.143 223.764 157.143 224.626V229.366H156.111Z" fill="#221815"/>
<path d="M162.187 229.366C160.986 229.366 160.387 228.479 160.387 227.38V222.836H159.5V222.01H160.387V219.694H161.419V222.01H162.92V222.836H161.419V227.349C161.419 228.025 161.718 228.432 162.378 228.432H162.92V229.366H162.193H162.187Z" fill="#221815"/>
<path d="M173.03 229.459C172.029 229.459 171.111 229.067 170.425 228.345C169.466 227.334 169.466 226.282 169.466 224.012C169.466 221.742 169.466 220.685 170.425 219.679C171.111 218.957 172.029 218.565 173.03 218.565C174.861 218.565 176.218 219.741 176.564 221.758H175.449C175.176 220.447 174.304 219.591 173.03 219.591C172.36 219.591 171.715 219.865 171.271 220.344C170.626 221.036 170.554 221.773 170.554 224.017C170.554 226.261 170.626 226.999 171.271 227.69C171.715 228.169 172.36 228.443 173.03 228.443C174.304 228.443 175.202 227.587 175.475 226.276H176.564C176.234 228.293 174.846 229.469 173.03 229.469V229.459Z" fill="#221815"/>
<path d="M183.868 228.613C183.383 229.124 182.712 229.454 181.851 229.454C180.989 229.454 180.319 229.124 179.834 228.613C179.117 227.845 178.978 226.808 178.978 225.663C178.978 224.517 179.122 223.481 179.834 222.712C180.319 222.201 180.994 221.871 181.851 221.871C182.707 221.871 183.383 222.201 183.868 222.712C184.585 223.481 184.724 224.517 184.724 225.663C184.724 226.808 184.579 227.845 183.868 228.613ZM183.14 223.377C182.81 223.032 182.356 222.836 181.851 222.836C181.345 222.836 180.907 223.032 180.577 223.377C180.061 223.919 180.004 224.837 180.004 225.668C180.004 226.498 180.061 227.416 180.577 227.958C180.907 228.304 181.35 228.5 181.851 228.5C182.351 228.5 182.81 228.304 183.14 227.958C183.656 227.416 183.697 226.498 183.697 225.668C183.697 224.837 183.656 223.924 183.14 223.377Z" fill="#221815"/>
<path d="M187.474 229.366V227.953H188.82V229.366H187.474Z" fill="#221815"/>
<path d="M191.904 231.533V228.041H193.163V230.341L191.904 231.533Z" fill="#221815"/>
<path d="M200.602 229.366V218.647H201.69V228.34H206.895V229.361H200.602V229.366Z" fill="#221815"/>
<path d="M211.155 229.366C209.953 229.366 209.355 228.479 209.355 227.38V222.836H208.468V222.01H209.355V219.694H210.387V222.01H211.888V222.836H210.387V227.349C210.387 228.025 210.686 228.432 211.346 228.432H211.888V229.366H211.16H211.155Z" fill="#221815"/>
<path d="M218.707 229.366V228.479C218.135 229.263 217.48 229.459 216.706 229.459C215.989 229.459 215.36 229.201 214.988 228.814C214.271 228.061 214.132 226.828 214.132 225.668C214.132 224.507 214.276 223.274 214.988 222.521C215.36 222.129 215.989 221.876 216.706 221.876C217.48 221.876 218.124 222.057 218.692 222.825V218.657H219.723V229.376H218.707V229.366ZM216.933 222.836C215.401 222.836 215.158 224.218 215.158 225.668C215.158 227.117 215.401 228.5 216.933 228.5C218.465 228.5 218.692 227.117 218.692 225.668C218.692 224.218 218.465 222.836 216.933 222.836Z" fill="#221815"/>
<path d="M222.839 229.366V227.953H224.185V229.366H222.839Z" fill="#221815"/>
<defs>
<linearGradient id="paint0_linear_5_5448" x1="89.4342" y1="124.735" x2="92.5705" y2="-17.144" gradientUnits="userSpaceOnUse">
<stop offset="0.21" stop-color="#399B63"/>
<stop offset="0.72" stop-color="#1E4E45"/>
</linearGradient>
</defs>
</svg>
