<svg width="564" height="259" viewBox="0 0 564 259" fill="none" xmlns="http://www.w3.org/2000/svg">
<path d="M104.683 130.069V145.668H106.241V130.069H104.683ZM111.447 139.55V147.492H113.005V139.55H111.447ZM98.831 131.779V138.334H112.245V131.779H110.706V136.947H100.313V131.779H98.831ZM97.976 139.55V146.428H112.207V145.003H99.534V139.55H97.976ZM120.453 133.831V134.914H125.735V133.831H120.453ZM129.193 133.831V134.914H134.57V133.831H129.193ZM133.962 130.962V145.592C133.962 145.953 133.848 146.048 133.468 146.067C133.088 146.086 131.777 146.105 130.466 146.029C130.675 146.447 130.922 147.112 130.998 147.511C132.727 147.511 133.848 147.492 134.513 147.245C135.159 147.017 135.387 146.561 135.387 145.592V130.962H133.962ZM120.567 130.962V132.159H125.222V136.738H120.567V137.935H126.571V130.962H120.567ZM134.703 130.962H128.357V137.954H134.703V136.757H129.725V132.159H134.703V130.962ZM119.769 130.962V147.53H121.175V130.962H119.769ZM148.82 131.456V132.577H158.092V131.456H148.82ZM148.611 142.115V143.217H158.32V142.115H148.611ZM152.753 130.069V140.31H154.007V130.069H152.753ZM150.435 136.529H156.439V137.688H150.435V136.529ZM150.435 134.496H156.439V135.655H150.435V134.496ZM149.257 133.603V138.6H157.655V133.603H149.257ZM148.63 139.892L148.725 140.994C150.91 140.937 154.102 140.88 157.199 140.785L157.218 139.74C153.988 139.816 150.758 139.873 148.63 139.892ZM154.672 141.089V146.124C154.672 146.333 154.615 146.39 154.349 146.409C154.102 146.428 153.228 146.428 152.259 146.39C152.43 146.732 152.62 147.207 152.677 147.568C153.969 147.568 154.786 147.568 155.337 147.378C155.869 147.188 156.002 146.846 156.002 146.143V141.089H154.672ZM149.732 143.977C150.454 144.642 151.195 145.611 151.518 146.295L152.582 145.611C152.221 144.946 151.461 144.034 150.701 143.388L149.732 143.977ZM155.204 138.942C156.059 139.721 157.009 140.823 157.427 141.564L158.434 140.975C157.978 140.253 157.028 139.208 156.154 138.448L155.204 138.942ZM141.049 132.121V133.394H148.421V132.121H141.049ZM140.802 142.951V144.224H148.687V142.951H140.802ZM144.165 130.069V135.256H145.476V130.069H144.165ZM144.298 135.332V140.861H144.165V147.568H145.476V140.861H145.343V135.332H144.298ZM142.569 138.6H147.11V140.348H142.569V138.6ZM142.569 135.864H147.11V137.574H142.569V135.864ZM141.467 134.8V141.412H148.212V134.8H141.467ZM168.599 131.209V147.53H169.929V132.482H178.346V147.378H179.714V131.209H168.599ZM170.708 135.237V136.358H177.7V135.237H170.708ZM169.321 145.117V146.39H179.106V145.117H169.321ZM173.596 133.09V139.113H174.755V133.09H173.596ZM172.608 139.512H175.819V142.457H172.608V139.512ZM171.506 138.448V143.54H176.959V138.448H171.506ZM166.623 130.145C165.692 133.033 164.134 135.902 162.424 137.764C162.671 138.106 163.07 138.885 163.184 139.227C165.084 137.042 166.851 133.774 167.934 130.525L166.623 130.145ZM165.046 134.8V147.568H166.395V133.47L166.376 133.451L165.046 134.8ZM187.732 144.11V145.079H199.911V144.11H187.732ZM199.588 144.11V144.281C199.322 145.535 199.056 146.162 198.676 146.409C198.467 146.504 198.239 146.523 197.726 146.523C197.137 146.523 195.427 146.504 193.888 146.371C194.097 146.656 194.23 147.074 194.268 147.378C195.769 147.454 197.327 147.473 198.03 147.454C198.809 147.454 199.284 147.416 199.721 147.15C200.215 146.808 200.576 146.105 200.899 144.737C200.956 144.547 200.994 144.11 200.994 144.11H199.588ZM188.53 142.134V143.084H199.835V140.234H186.953V141.184H198.486V142.134H188.53ZM187.922 142.134C187.637 143.103 187.257 144.262 186.896 145.079H188.264C188.587 144.3 188.967 143.179 189.29 142.134H187.922ZM191.361 133.508V134.268H195.788V133.508H191.361ZM191.361 135.142V135.921H195.788V135.142H191.361ZM190.791 131.779V132.653H196.358V131.779H190.791ZM192.292 137.593H194.895V138.733H192.292V137.593ZM191.342 136.795V139.531H195.864V136.795H191.342ZM189.081 134.306C189.556 135.085 190.05 136.13 190.278 136.814L191.133 136.491C190.905 135.845 190.373 134.8 189.898 134.04L189.081 134.306ZM185.68 134.04C185.68 133.774 186.478 133.432 186.478 133.432V133.413C187.219 132.786 188.074 131.722 188.777 130.601L187.713 130.259C187.2 131.285 186.307 132.311 186.041 132.558C185.794 132.824 185.585 132.976 185.319 133.014C185.452 133.28 185.623 133.793 185.68 134.04ZM185.68 134.04C185.927 133.926 186.383 133.85 188.967 133.622C188.986 133.413 189.024 133.052 189.062 132.805L186.212 132.976L185.68 133.28V134.04ZM185.756 136.719C185.756 136.472 186.573 136.168 186.573 136.168V136.149C187.846 135.18 189.176 133.774 190.392 132.254L189.366 131.817C188.397 133.261 186.934 134.705 186.478 135.047C186.079 135.408 185.737 135.674 185.414 135.712C185.528 135.959 185.68 136.491 185.756 136.719ZM185.756 136.719C186.022 136.586 186.535 136.472 190.183 136.016C190.183 135.826 190.183 135.465 190.24 135.218L186.269 135.655L185.737 135.978L185.756 136.719ZM187.504 137.213C187.713 137.973 187.903 138.999 187.96 139.664L188.891 139.455C188.834 138.809 188.625 137.821 188.378 137.042L187.504 137.213ZM186.022 137.004C185.851 137.859 185.604 138.79 185.224 139.512C185.471 139.607 185.889 139.835 186.06 139.987C186.421 139.265 186.782 138.182 186.972 137.232L186.022 137.004ZM189.252 136.985C189.575 137.612 189.898 138.486 189.993 139.056L190.848 138.752C190.715 138.201 190.392 137.365 190.05 136.738L189.252 136.985ZM192.634 130.335C193.014 130.924 193.337 131.703 193.489 132.235L194.458 131.874C194.344 131.38 193.945 130.601 193.584 130.05L192.634 130.335ZM200.234 134.401C200.709 135.18 201.184 136.187 201.355 136.833L202.229 136.51C202.039 135.883 201.545 134.876 201.051 134.135L200.234 134.401ZM196.605 134.135C196.605 133.888 197.384 133.565 197.384 133.565V133.546C198.144 132.862 199.018 131.798 199.683 130.677L198.714 130.316C198.163 131.361 197.251 132.425 197.004 132.691C196.738 132.957 196.529 133.109 196.282 133.147C196.396 133.394 196.548 133.907 196.605 134.135ZM196.605 134.135C196.871 134.021 197.327 133.945 200.063 133.679C200.063 133.47 200.101 133.109 200.139 132.862L197.156 133.071L196.605 133.375V134.135ZM196.662 136.795C196.662 136.529 197.536 136.225 197.536 136.225V136.206C198.885 135.237 200.272 133.793 201.545 132.235L200.557 131.779C199.474 133.261 197.954 134.743 197.479 135.104C197.023 135.484 196.662 135.731 196.339 135.769C196.472 136.035 196.605 136.548 196.662 136.795ZM196.662 136.795C196.966 136.643 197.479 136.529 201.393 136.054C201.393 135.845 201.412 135.465 201.45 135.237L197.232 135.712L196.643 136.035L196.662 136.795ZM198.562 137.232C198.809 138.011 198.999 138.999 199.018 139.664L199.968 139.455C199.911 138.809 199.702 137.802 199.436 137.061L198.562 137.232ZM197.061 137.099C196.928 137.897 196.719 138.752 196.358 139.417C196.605 139.531 197.023 139.778 197.213 139.911C197.536 139.227 197.84 138.201 198.03 137.308L197.061 137.099ZM200.443 137.042C200.766 137.783 201.108 138.752 201.241 139.398L202.096 139.113C201.944 138.486 201.602 137.536 201.241 136.795L200.443 137.042ZM208.746 134.819V136.111H214.693V134.819H208.746ZM208.727 131.057V132.349H214.123V138.752H208.727V140.044H215.548V131.057H208.727ZM208.024 146.96C208.442 146.637 209.126 146.371 214.465 144.49C214.351 144.186 214.18 143.673 214.085 143.274L208.537 145.079L207.91 145.668L208.024 146.96ZM212.166 141.602C213.135 143.179 214.275 145.326 214.769 146.599L216.061 145.896C215.529 144.623 214.37 142.552 213.382 141.013L212.166 141.602ZM208.024 146.96C208.024 146.39 209.677 145.687 209.677 145.687V131.057H208.233V144.3C208.233 145.022 207.758 145.364 207.416 145.516C207.663 145.877 207.929 146.561 208.024 146.96ZM222.141 131.19V142.134C222.141 142.381 222.065 142.457 221.799 142.476C221.533 142.495 220.659 142.495 219.671 142.457C219.88 142.837 220.051 143.426 220.108 143.825C221.476 143.825 222.35 143.806 222.863 143.578C223.395 143.331 223.547 142.913 223.547 142.134V131.19H222.141ZM217.277 131.19V147.549H218.702V132.501H222.92V131.19H217.277ZM232.23 140.177V141.431H245.169V140.177H232.23ZM229.779 133.318V134.629H242.205V133.318H229.779ZM235.137 136.738V138.011H243.839V136.738H235.137ZM244.561 140.177V140.405C244.257 144.186 243.896 145.687 243.459 146.124C243.288 146.276 243.098 146.314 242.737 146.314C242.376 146.314 241.464 146.314 240.514 146.2C240.742 146.58 240.894 147.131 240.913 147.53C241.901 147.568 242.851 147.587 243.326 147.549C243.896 147.511 244.257 147.378 244.618 147.017C245.226 146.39 245.587 144.813 245.929 140.804C245.967 140.595 245.986 140.177 245.986 140.177H244.561ZM240.343 142.457C240.913 143.255 241.502 144.357 241.749 145.041L242.794 144.604C242.547 143.92 241.958 142.856 241.35 142.077L240.343 142.457ZM232.135 130.62C232.876 131.418 233.674 132.539 233.997 133.28L235.327 132.672C234.947 131.95 234.111 130.867 233.37 130.107L232.135 130.62ZM234.719 142.932C235.042 144.167 235.251 145.725 235.213 146.751L236.467 146.58C236.467 145.554 236.258 143.977 235.878 142.78L234.719 142.932ZM237.512 142.761C237.987 143.806 238.443 145.193 238.576 146.105L239.754 145.782C239.602 144.889 239.127 143.54 238.633 142.495L237.512 142.761ZM232.287 142.495C231.907 143.958 231.185 145.649 230.121 146.656L231.223 147.435C232.382 146.276 233.047 144.471 233.484 142.894L232.287 142.495ZM237.892 130.05C236.448 134.971 233.522 139.835 228.81 142.514C229.057 142.818 229.418 143.388 229.589 143.73C234.624 140.747 237.607 135.731 239.336 130.411L237.892 130.05ZM241.882 133.318C241.673 134.534 241.35 136.054 241.084 137.061L242.338 137.232C242.623 136.206 242.965 134.629 243.231 133.318H241.882ZM243.307 136.738C243.117 137.954 242.794 139.493 242.509 140.519L243.801 140.671C244.067 139.645 244.39 138.049 244.656 136.738H243.307ZM257.652 133.28V134.781H267.532V133.28H257.652ZM256.55 144.661V146.162H268.368V144.661H256.55ZM253.795 135.237V147.492H255.22V133.85L255.201 133.812L253.795 135.237ZM255.866 130.107C254.745 133.09 252.902 135.978 250.926 137.859C251.211 138.201 251.667 138.961 251.819 139.303C253.947 137.137 255.961 133.831 257.272 130.544L255.866 130.107ZM278.533 131.627V132.805H290.465V131.627H278.533ZM278.343 140.158V141.336H290.579V140.158H278.343ZM283.131 141.83C283.606 142.59 284.214 143.654 284.499 144.281L285.601 143.806C285.316 143.217 284.689 142.191 284.176 141.45L283.131 141.83ZM281.155 142.799V145.668C281.155 146.941 281.554 147.283 283.169 147.283C283.511 147.283 285.639 147.283 285.962 147.283C287.254 147.283 287.634 146.808 287.767 144.794C287.406 144.718 286.893 144.547 286.627 144.357C286.57 145.953 286.456 146.162 285.829 146.162C285.373 146.162 283.625 146.162 283.302 146.162C282.561 146.162 282.428 146.067 282.428 145.668V142.799H281.155ZM279.293 142.685C278.951 143.825 278.343 145.326 277.583 146.219L278.704 146.846C279.464 145.858 280.015 144.319 280.414 143.103L279.293 142.685ZM287.558 142.913C288.337 144.091 289.116 145.668 289.439 146.637L290.598 146.124C290.237 145.155 289.401 143.616 288.641 142.476L287.558 142.913ZM286.532 135.256H288.565V137.84H286.532V135.256ZM283.492 135.256H285.487V137.84H283.492V135.256ZM280.509 135.256H282.428V137.84H280.509V135.256ZM279.369 134.173V138.923H289.762V134.173H279.369ZM283.815 129.993C283.72 131.323 283.454 133.261 283.207 134.458L284.537 134.572C284.803 133.451 285.069 131.627 285.297 130.069L283.815 129.993ZM277.279 134.192C276.177 136.339 274.467 138.6 272.852 140.063C273.118 140.367 273.555 141.051 273.707 141.336C275.417 139.645 277.298 137.061 278.571 134.648L277.279 134.192ZM276.937 130.069C276.044 131.418 274.353 133.147 272.966 134.249C273.194 134.534 273.536 135.085 273.688 135.389C275.227 134.116 277.032 132.216 278.229 130.601L276.937 130.069ZM275.645 137.745V147.549H276.994V137.27L276.31 137.061L275.645 137.745ZM298.73 130.069V135.541H300.117V130.069H298.73ZM298.73 140.557V147.53H300.117V140.557H298.73ZM297.286 138.676H301.542V140.177H297.286V138.676ZM297.286 136.111H301.542V137.593H297.286V136.111ZM295.994 134.971V141.317H302.853V134.971H295.994ZM295.348 132.197V133.489H303.442V132.197H295.348ZM307.166 137.213V147.53H308.572V137.213H307.166ZM304.411 136.852V138.182H311.213V136.852H304.411ZM303.613 141.279V142.609H312.087V141.279H303.613ZM295.139 142.818V144.11H303.594V142.818H295.139ZM307.66 129.746C306.672 132.273 304.696 134.819 302.663 136.054C302.948 136.301 303.385 136.795 303.594 137.137C305.741 135.693 307.755 132.995 308.876 130.126L307.66 129.746ZM308.23 131.171L307.223 131.551C308.344 133.603 310.301 135.921 311.916 137.099C312.144 136.776 312.562 136.32 312.847 136.092C311.213 135.085 309.256 133.014 308.23 131.171ZM322.309 132.577V133.774H334.393V132.577H322.309ZM327.496 133.071C327.344 133.85 327.021 134.971 326.736 135.75L327.933 135.94C328.294 135.237 328.769 134.192 329.111 133.223L327.496 133.071ZM330.821 130.069C330.46 130.867 329.795 132.045 329.225 132.786L330.365 133.147C330.935 132.463 331.6 131.418 332.227 130.468L330.821 130.069ZM324.247 130.582C324.779 131.247 325.349 132.159 325.558 132.748L326.736 132.197C326.508 131.627 325.919 130.734 325.387 130.107L324.247 130.582ZM325.216 138.942H331.372V140.538H325.216V138.942ZM325.216 141.545H331.372V143.141H325.216V141.545ZM325.216 136.358H331.372V137.935H325.216V136.358ZM323.867 135.275V144.243H332.778V135.275H323.867ZM317.977 130.715C318.813 131.646 319.858 132.976 320.371 133.774L321.473 132.995C320.96 132.216 319.915 131 319.041 130.088L317.977 130.715ZM317.293 134.439V135.636H321.454V134.439H317.293ZM320.675 143.16L319.725 143.597C321.15 146.732 323.639 147.264 328.085 147.264C330.175 147.264 332.569 147.207 334.355 147.112C334.431 146.713 334.621 146.048 334.83 145.744C332.892 145.896 330.099 145.991 328.104 145.991C324.323 145.991 321.853 145.649 320.675 143.16ZM320.941 139.189V139.436C320.409 142.913 318.946 145.326 316.932 146.599C317.198 146.808 317.673 147.283 317.863 147.587C319.991 146.162 321.568 143.483 322.233 139.417L321.511 139.151L321.264 139.189H320.941ZM317.559 140.614C317.692 140.462 318.186 140.348 318.68 140.348H321.397L321.416 139.189H318.243L317.559 139.531V140.614ZM317.559 140.614C317.559 140.253 318.623 139.721 318.623 139.721C319.744 138.505 321.511 136.092 322.442 134.8L321.492 134.344L321.055 134.534V134.591C320.409 135.598 318.547 138.163 317.939 138.752C317.616 139.132 317.312 139.246 317.027 139.322C317.179 139.626 317.464 140.291 317.559 140.614ZM340.264 133.451V142.495H341.689V134.857H354.096V142.4H355.578V133.451H340.264ZM341.024 139.911V141.298H354.951V139.911H341.024ZM347.142 130.05V147.511H348.624V130.05H347.142ZM369.201 130.278V145.307H370.702V130.278H369.201ZM375.965 134.002V147.473H377.428V134.002H375.965ZM362.532 134.021V146.048H376.725V144.604H363.976V134.021H362.532ZM392.59 145.554V146.808H398.86V145.554H392.59ZM393.521 132.007V133.242H398.537V132.007H393.521ZM392.039 140.652V147.492H393.35V141.887H398.138V147.435H399.506V140.652H392.039ZM398.024 132.007V132.254C396.789 136.225 393.426 139.284 390.063 140.576C390.348 140.842 390.728 141.336 390.899 141.659C394.509 140.12 397.986 137.004 399.449 132.33L398.537 131.95L398.271 132.007H398.024ZM393.844 130.05C393.122 132.387 391.811 134.61 390.253 136.035C390.595 136.244 391.146 136.7 391.374 136.947C392.951 135.37 394.357 132.957 395.212 130.373L393.844 130.05ZM393.464 132.786L392.533 133.565C393.692 136.301 396.2 139.74 400.114 141.431C400.304 141.07 400.703 140.519 401.007 140.253C397.112 138.771 394.566 135.503 393.464 132.786ZM384.211 138.486V145.383H385.408V138.486H384.211ZM385.484 132.102H389.056V135.446H385.484V132.102ZM384.211 130.848V136.7H390.386V130.848H384.211ZM386.89 136.073V144.756H388.182V136.073H386.89ZM383.223 145.231L383.489 146.618C385.484 146.124 388.22 145.459 390.823 144.813L390.69 143.54C387.954 144.186 385.104 144.851 383.223 145.231ZM387.346 139.455V140.728H390.557V139.455H387.346ZM412.502 142.438C414.497 141.754 415.789 140.196 415.789 138.144C415.789 136.814 415.219 135.94 414.155 135.94C413.395 135.94 412.711 136.415 412.711 137.308C412.711 138.201 413.357 138.676 414.136 138.676C414.497 138.676 414.877 138.581 415.143 138.239L414.117 136.795L414.478 138.391C414.478 139.835 413.623 140.804 412.065 141.431L412.502 142.438ZM432.547 137.156V138.448H440.337V137.156H432.547ZM432.794 131.076V132.368H441.705V131.076H432.794ZM435.872 133.014V144.718H437.24V133.014H435.872ZM441.04 131.076C441.097 139.398 441.059 144.566 443.472 144.566C444.46 144.566 444.726 143.787 444.897 141.64C444.612 141.412 444.232 140.994 443.985 140.652C443.966 142.02 443.852 143.141 443.586 143.141C442.465 143.141 442.408 137.973 442.446 131.076H441.04ZM428.177 130.715C429.013 131.646 430.077 132.976 430.59 133.774L431.692 132.995C431.16 132.216 430.115 131 429.241 130.088L428.177 130.715ZM427.512 134.439V135.636H431.635V134.439H427.512ZM430.875 143.16L429.925 143.597C431.35 146.732 433.839 147.264 438.285 147.264C440.375 147.264 442.769 147.207 444.555 147.112C444.631 146.713 444.821 146.048 445.03 145.744C443.092 145.896 440.299 145.991 438.304 145.991C434.523 145.991 432.053 145.649 430.875 143.16ZM431.141 139.189V139.436C430.609 142.894 429.165 145.326 427.17 146.599C427.455 146.808 427.93 147.283 428.12 147.587C430.21 146.162 431.787 143.464 432.433 139.417L431.711 139.151L431.464 139.189H431.141ZM427.778 140.614C427.93 140.462 428.424 140.348 428.899 140.348H431.464V139.189H428.462L427.778 139.531V140.614ZM427.778 140.614C427.778 140.253 428.861 139.721 428.861 139.721C429.963 138.505 431.711 136.092 432.623 134.8L431.673 134.344L431.255 134.534V134.591C430.609 135.598 428.766 138.163 428.177 138.752C427.835 139.113 427.531 139.246 427.246 139.322C427.398 139.626 427.683 140.291 427.778 140.614ZM456.905 135.997H464.372V138.41H456.905V135.997ZM455.575 134.838V139.569H465.759V134.838H455.575ZM454.796 132.045V133.28H466.576V132.045H454.796ZM459.888 130.069V145.079H461.275V130.069H459.888ZM459.546 139.132C458.444 140.88 456.297 142.647 454.359 143.445C454.663 143.711 455.081 144.186 455.271 144.528C457.266 143.54 459.413 141.564 460.591 139.531L459.546 139.132ZM460.23 140.044C462.13 141.222 464.467 143.027 465.569 144.205L466.519 143.179C465.36 142.001 462.985 140.31 461.104 139.151L460.23 140.044ZM450.217 130.677C450.996 131.627 451.984 132.957 452.44 133.755L453.58 133.014C453.105 132.235 452.117 131 451.3 130.069L450.217 130.677ZM449.514 134.439V135.636H453.523V134.439H449.514ZM452.896 143.16L451.946 143.597C453.39 146.732 455.879 147.226 460.344 147.226C462.434 147.226 464.828 147.188 466.633 147.074C466.709 146.694 466.88 146.048 467.089 145.744C465.132 145.915 462.358 145.991 460.344 145.991C456.544 145.991 454.074 145.649 452.896 143.16ZM452.896 139.189V139.436C452.421 142.856 451.091 145.288 449.21 146.58C449.495 146.789 449.97 147.283 450.16 147.568C452.136 146.105 453.599 143.407 454.207 139.417L453.561 139.151L453.314 139.189H452.896ZM449.799 140.614C449.932 140.462 450.426 140.348 450.92 140.348H453.485V139.189H450.483L449.799 139.531V140.614ZM449.799 140.595C449.799 140.234 450.863 139.702 450.863 139.702C451.927 138.505 453.599 136.054 454.473 134.762L453.542 134.344L453.124 134.515V134.572C452.497 135.579 450.749 138.182 450.179 138.752C449.856 139.113 449.552 139.246 449.267 139.322C449.419 139.607 449.704 140.272 449.799 140.595ZM471.193 140.158L471.573 141.545C473.169 141.013 475.259 140.348 477.235 139.683L477.026 138.372C474.879 139.075 472.656 139.74 471.193 140.158ZM471.459 133.888V135.218H477.33V133.888H471.459ZM473.891 130.069V145.839C473.891 146.086 473.815 146.162 473.587 146.162C473.359 146.181 472.637 146.181 471.82 146.143C472.01 146.542 472.181 147.131 472.219 147.473C473.416 147.492 474.138 147.435 474.594 147.226C475.05 146.998 475.221 146.599 475.221 145.82V130.069H473.891ZM478.166 132.045V133.299H488.35V132.045H478.166ZM477.691 136.491V137.745H488.73V136.491H477.691ZM479.591 133.964C480.142 134.705 480.731 135.75 480.959 136.396L482.194 135.845C481.947 135.218 481.339 134.23 480.769 133.489L479.591 133.964ZM485.576 133.527C485.234 134.439 484.569 135.788 484.037 136.605L485.196 136.985C485.728 136.187 486.374 134.99 486.925 133.907L485.576 133.527ZM477.444 139.835V141.089H488.958V139.835H477.444ZM486.032 138.714C485.253 143.331 483.049 145.478 477.425 146.276C477.672 146.599 477.957 147.112 478.071 147.492C484.094 146.447 486.545 144.072 487.419 138.961L486.032 138.714ZM482.004 130.24C482.422 131.019 482.897 132.083 483.068 132.786L484.645 132.425C484.455 131.76 483.98 130.734 483.505 129.974L482.004 130.24ZM478.546 143.293L480.009 143.464C480.978 142.172 482.327 140.025 483.125 138.201L481.776 137.916C481.035 139.702 479.667 141.906 478.546 143.293ZM478.546 143.293C481.662 144.376 485.633 146.181 487.571 147.473L488.597 146.447C486.45 145.117 482.498 143.407 479.496 142.419L478.546 143.293ZM502.049 134.192V135.465H508.357V134.192H502.049ZM504.101 130.107V136.073C504.101 139.74 503.797 143.673 500.548 146.732C500.89 146.941 501.384 147.34 501.631 147.625C505.089 144.357 505.431 140.063 505.431 136.073V130.107H504.101ZM493.746 132.102V133.375H501.878V132.102H493.746ZM493.48 142.951V144.224H502.106V142.951H493.48ZM497.166 130.069V135.313H498.515V130.069H497.166ZM497.28 135.294V140.823H497.166V147.53H498.496V140.823H498.382V135.294H497.28ZM495.342 138.619H500.396V140.367H495.342V138.619ZM495.342 135.883H500.396V137.593H495.342V135.883ZM494.202 134.819V141.431H501.593V134.819H494.202ZM507.464 134.192V145.44C507.464 146.447 507.521 146.77 507.787 147.036C508.072 147.321 508.452 147.416 508.832 147.416C509.041 147.416 509.459 147.416 509.687 147.416C510.029 147.416 510.371 147.34 510.618 147.15C510.865 146.979 511.017 146.694 511.112 146.219C511.188 145.82 511.245 144.604 511.264 143.616C510.922 143.502 510.485 143.255 510.219 143.027C510.238 144.091 510.2 145.003 510.162 145.383C510.143 145.63 510.048 145.801 509.972 145.915C509.915 145.991 509.763 146.029 509.63 146.029C509.478 146.029 509.307 146.029 509.193 146.029C509.06 146.029 508.965 145.972 508.889 145.896C508.813 145.839 508.775 145.706 508.775 145.573V134.192H507.464ZM527.11 129.955V142.229H528.516V131.266H533.095V129.955H527.11ZM540.752 134.743V135.826H551.886V134.743H540.752ZM548.675 133.185C549.397 133.546 550.271 134.097 550.727 134.553L551.411 133.793C550.955 133.356 550.081 132.824 549.34 132.501L548.675 133.185ZM549.929 136.7C549.112 139.987 547.364 142.457 544.78 143.958C545.027 144.167 545.445 144.642 545.616 144.87C548.238 143.179 550.138 140.519 551.088 136.928L549.929 136.7ZM540.562 142.514L540.752 143.597C542.329 143.312 544.362 142.894 546.338 142.514L546.3 141.507C544.153 141.906 542.025 142.267 540.562 142.514ZM542.443 137.916H544.609V139.835H542.443V137.916ZM541.417 137.023V140.709H545.654V137.023H541.417ZM546.376 132.71C546.718 138.581 547.497 143.977 550.119 144.547C551.126 144.908 551.791 144.148 552.038 142.058C551.772 141.944 551.335 141.64 551.107 141.412C550.974 142.647 550.784 143.445 550.518 143.388C548.675 143.103 547.839 138.087 547.592 132.71H546.376ZM538.358 130.943V147.606H539.707V132.235H552.817V147.606H554.242V130.943H538.358ZM539.194 145.421V146.713H553.615V145.421H539.194ZM101.909 180.577V181.774H113.993V180.577H101.909ZM107.096 181.071C106.944 181.85 106.621 182.971 106.336 183.75L107.533 183.94C107.894 183.237 108.369 182.192 108.711 181.223L107.096 181.071ZM110.421 178.069C110.06 178.867 109.395 180.045 108.825 180.786L109.965 181.147C110.535 180.463 111.2 179.418 111.827 178.468L110.421 178.069ZM103.847 178.582C104.379 179.247 104.949 180.159 105.158 180.748L106.336 180.197C106.108 179.627 105.519 178.734 104.987 178.107L103.847 178.582ZM104.816 186.942H110.972V188.538H104.816V186.942ZM104.816 189.545H110.972V191.141H104.816V189.545ZM104.816 184.358H110.972V185.935H104.816V184.358ZM103.467 183.275V192.243H112.378V183.275H103.467ZM97.577 178.715C98.413 179.646 99.458 180.976 99.971 181.774L101.073 180.995C100.56 180.216 99.515 179 98.641 178.088L97.577 178.715ZM96.893 182.439V183.636H101.054V182.439H96.893ZM100.275 191.16L99.325 191.597C100.75 194.732 103.239 195.264 107.685 195.264C109.775 195.264 112.169 195.207 113.955 195.112C114.031 194.713 114.221 194.048 114.43 193.744C112.492 193.896 109.699 193.991 107.704 193.991C103.923 193.991 101.453 193.649 100.275 191.16ZM100.541 187.189V187.436C100.009 190.913 98.546 193.326 96.532 194.599C96.798 194.808 97.273 195.283 97.463 195.587C99.591 194.162 101.168 191.483 101.833 187.417L101.111 187.151L100.864 187.189H100.541ZM97.159 188.614C97.292 188.462 97.786 188.348 98.28 188.348H100.997L101.016 187.189H97.843L97.159 187.531V188.614ZM97.159 188.614C97.159 188.253 98.223 187.721 98.223 187.721C99.344 186.505 101.111 184.092 102.042 182.8L101.092 182.344L100.655 182.534V182.591C100.009 183.598 98.147 186.163 97.539 186.752C97.216 187.132 96.912 187.246 96.627 187.322C96.779 187.626 97.064 188.291 97.159 188.614ZM118.876 185.821V187.379H136.261V185.821H118.876ZM142.835 179.969H146.103V182.819H142.835V179.969ZM141.752 178.886V183.902H147.243V178.886H141.752ZM140.84 185.403V186.657H147.699V185.403H140.84ZM142.626 185.935C142.417 187.151 142.075 188.709 141.771 189.754H143.025C143.291 188.766 143.633 187.208 143.861 185.935H142.626ZM142.759 188.595L142.455 189.754H146.198V188.595H142.759ZM145.704 188.595V188.804C145.457 192.3 145.21 193.63 144.849 193.991C144.716 194.143 144.545 194.181 144.26 194.181C143.975 194.181 143.272 194.162 142.531 194.105C142.74 194.428 142.854 194.941 142.873 195.302C143.633 195.359 144.393 195.359 144.773 195.321C145.286 195.283 145.571 195.169 145.875 194.827C146.388 194.295 146.635 192.87 146.92 189.165C146.939 188.975 146.958 188.595 146.958 188.595H145.704ZM152.924 179.361V180.539H157.484V179.361H152.924ZM149.181 181.831V182.99H157.503V181.831H149.181ZM148.535 181.831V186.676C148.535 189.108 148.364 192.414 146.806 194.789C147.11 194.941 147.642 195.321 147.851 195.568C149.542 193.041 149.789 189.317 149.789 186.676V181.831H148.535ZM150.188 184.89L150.321 185.916L156.021 185.327L155.907 184.32L150.188 184.89ZM157.123 181.831V182.002C156.99 183.009 156.743 184.244 156.534 185.023L157.617 185.289C157.864 184.453 158.187 183.123 158.415 182.002L157.541 181.774L157.313 181.831H157.123ZM151.309 189.051C151.195 191.692 150.834 193.535 149.048 194.58C149.333 194.789 149.694 195.226 149.846 195.53C151.917 194.257 152.411 192.11 152.525 189.051H151.309ZM154.14 189.051V193.44C154.14 194.295 154.216 194.58 154.52 194.827C154.786 195.055 155.223 195.131 155.641 195.131C155.831 195.131 156.42 195.131 156.667 195.131C157.009 195.131 157.427 195.055 157.674 194.941C157.94 194.789 158.13 194.561 158.244 194.219C158.339 193.877 158.415 192.927 158.434 192.034C158.073 191.939 157.617 191.673 157.37 191.445C157.389 192.319 157.351 193.06 157.313 193.364C157.275 193.554 157.161 193.706 157.066 193.763C156.971 193.839 156.743 193.858 156.553 193.858C156.344 193.858 156.059 193.858 155.907 193.858C155.736 193.858 155.584 193.839 155.508 193.763C155.375 193.725 155.356 193.592 155.356 193.459V189.051H154.14ZM152.278 178.05V182.439H153.646V178.05H152.278ZM152.202 183.104V186.296C152.202 187.531 152.468 188.063 153.684 188.063C153.988 188.063 155.603 188.063 155.983 188.063C156.458 188.063 156.952 188.044 157.218 187.949C157.161 187.645 157.123 187.246 157.085 186.885C156.838 186.961 156.268 186.98 155.926 186.98C155.603 186.98 154.197 186.98 153.893 186.98C153.494 186.98 153.437 186.809 153.437 186.334V183.104H152.202ZM168.751 195.644V183.37H167.345V194.333H162.766V195.644H168.751ZM191.532 181.28V182.781H201.412V181.28H191.532ZM190.43 192.661V194.162H202.248V192.661H190.43ZM187.675 183.237V195.492H189.1V181.85L189.081 181.812L187.675 183.237ZM189.746 178.107C188.625 181.09 186.782 183.978 184.806 185.859C185.091 186.201 185.547 186.961 185.699 187.303C187.827 185.137 189.841 181.831 191.152 178.544L189.746 178.107ZM212.413 179.627V180.805H224.345V179.627H212.413ZM212.223 188.158V189.336H224.459V188.158H212.223ZM217.011 189.83C217.486 190.59 218.094 191.654 218.379 192.281L219.481 191.806C219.196 191.217 218.569 190.191 218.056 189.45L217.011 189.83ZM215.035 190.799V193.668C215.035 194.941 215.434 195.283 217.049 195.283C217.391 195.283 219.519 195.283 219.842 195.283C221.134 195.283 221.514 194.808 221.647 192.794C221.286 192.718 220.773 192.547 220.507 192.357C220.45 193.953 220.336 194.162 219.709 194.162C219.253 194.162 217.505 194.162 217.182 194.162C216.441 194.162 216.308 194.067 216.308 193.668V190.799H215.035ZM213.173 190.685C212.831 191.825 212.223 193.326 211.463 194.219L212.584 194.846C213.344 193.858 213.895 192.319 214.294 191.103L213.173 190.685ZM221.438 190.913C222.217 192.091 222.996 193.668 223.319 194.637L224.478 194.124C224.117 193.155 223.281 191.616 222.521 190.476L221.438 190.913ZM220.412 183.256H222.445V185.84H220.412V183.256ZM217.372 183.256H219.367V185.84H217.372V183.256ZM214.389 183.256H216.308V185.84H214.389V183.256ZM213.249 182.173V186.923H223.642V182.173H213.249ZM217.695 177.993C217.6 179.323 217.334 181.261 217.087 182.458L218.417 182.572C218.683 181.451 218.949 179.627 219.177 178.069L217.695 177.993ZM211.159 182.192C210.057 184.339 208.347 186.6 206.732 188.063C206.998 188.367 207.435 189.051 207.587 189.336C209.297 187.645 211.178 185.061 212.451 182.648L211.159 182.192ZM210.817 178.069C209.924 179.418 208.233 181.147 206.846 182.249C207.074 182.534 207.416 183.085 207.568 183.389C209.107 182.116 210.912 180.216 212.109 178.601L210.817 178.069ZM209.525 185.745V195.549H210.874V185.27L210.19 185.061L209.525 185.745ZM240.609 185.897C238.842 190.666 234.833 193.098 229.114 194.295C229.399 194.599 229.836 195.245 229.988 195.587C235.783 194.143 239.982 191.54 242.053 186.315L240.609 185.897ZM234.282 182.667C233.142 184.13 231.242 185.631 229.551 186.562C229.874 186.809 230.425 187.341 230.672 187.626C232.344 186.543 234.358 184.852 235.669 183.218L234.282 182.667ZM234.928 186.011L233.655 186.41C235.688 191.331 239.545 194.295 245.53 195.416C245.72 195.017 246.119 194.428 246.423 194.124C240.59 193.174 236.695 190.4 234.928 186.011ZM229.494 180.691V182.078H245.929V180.691H229.494ZM239.963 183.465C241.73 184.681 243.858 186.486 244.827 187.702L246.005 186.771C244.979 185.555 242.813 183.826 241.084 182.648L239.963 183.465ZM236.163 178.354C236.695 179.152 237.265 180.216 237.512 180.9L238.918 180.349C238.671 179.703 238.044 178.639 237.512 177.879L236.163 178.354ZM256.246 180.539V181.831H268.178V180.539H256.246ZM261.319 187.17V194.713H262.611V187.17H261.319ZM257.956 187.056V189.013C257.956 190.761 257.728 192.908 255.524 194.523C255.847 194.732 256.322 195.169 256.531 195.454C258.982 193.611 259.267 191.141 259.267 189.051V187.056H257.956ZM263.884 182.762C265.005 184.111 266.449 185.935 267.152 186.999L268.311 186.239C267.589 185.194 266.088 183.427 264.967 182.135L263.884 182.762ZM256.987 186.41C257.576 186.182 258.469 186.125 266.753 185.555C266.658 185.251 266.525 184.738 266.468 184.377L257.842 184.871L256.968 185.346L256.987 186.41ZM251.895 179.304C253.054 179.969 254.46 181.014 255.106 181.755L255.98 180.634C255.296 179.893 253.871 178.924 252.712 178.297L251.895 179.304ZM251.04 184.548C252.275 185.099 253.757 185.992 254.498 186.657L255.296 185.46C254.536 184.814 253.016 183.978 251.8 183.484L251.04 184.548ZM251.515 194.314L252.712 195.283C253.833 193.516 255.163 191.141 256.17 189.127L255.125 188.196C254.023 190.362 252.522 192.87 251.515 194.314ZM264.739 187.037V193.269C264.739 194.618 264.986 195.112 266.259 195.112C266.468 195.112 267.266 195.112 267.513 195.112C267.855 195.112 268.216 195.112 268.425 195.036C268.387 194.732 268.349 194.257 268.33 193.915C268.102 193.991 267.741 194.01 267.494 194.01C267.285 194.01 266.582 194.01 266.373 194.01C266.126 194.01 266.069 193.858 266.069 193.307V187.037H264.739ZM256.987 186.41C256.987 186.125 257.956 185.669 257.956 185.669V185.631C259.742 183.845 261.642 181.28 263.181 178.658L261.794 178.107C260.502 180.596 258.545 183.18 257.918 183.845C257.367 184.51 256.911 184.966 256.512 185.042C256.683 185.422 256.911 186.125 256.987 186.41ZM278.229 180.577V181.774H290.313V180.577H278.229ZM283.416 181.071C283.264 181.85 282.941 182.971 282.656 183.75L283.853 183.94C284.214 183.237 284.689 182.192 285.031 181.223L283.416 181.071ZM286.741 178.069C286.38 178.867 285.715 180.045 285.145 180.786L286.285 181.147C286.855 180.463 287.52 179.418 288.147 178.468L286.741 178.069ZM280.167 178.582C280.699 179.247 281.269 180.159 281.478 180.748L282.656 180.197C282.428 179.627 281.839 178.734 281.307 178.107L280.167 178.582ZM281.136 186.942H287.292V188.538H281.136V186.942ZM281.136 189.545H287.292V191.141H281.136V189.545ZM281.136 184.358H287.292V185.935H281.136V184.358ZM279.787 183.275V192.243H288.698V183.275H279.787ZM273.897 178.715C274.733 179.646 275.778 180.976 276.291 181.774L277.393 180.995C276.88 180.216 275.835 179 274.961 178.088L273.897 178.715ZM273.213 182.439V183.636H277.374V182.439H273.213ZM276.595 191.16L275.645 191.597C277.07 194.732 279.559 195.264 284.005 195.264C286.095 195.264 288.489 195.207 290.275 195.112C290.351 194.713 290.541 194.048 290.75 193.744C288.812 193.896 286.019 193.991 284.024 193.991C280.243 193.991 277.773 193.649 276.595 191.16ZM276.861 187.189V187.436C276.329 190.913 274.866 193.326 272.852 194.599C273.118 194.808 273.593 195.283 273.783 195.587C275.911 194.162 277.488 191.483 278.153 187.417L277.431 187.151L277.184 187.189H276.861ZM273.479 188.614C273.612 188.462 274.106 188.348 274.6 188.348H277.317L277.336 187.189H274.163L273.479 187.531V188.614ZM273.479 188.614C273.479 188.253 274.543 187.721 274.543 187.721C275.664 186.505 277.431 184.092 278.362 182.8L277.412 182.344L276.975 182.534V182.591C276.329 183.598 274.467 186.163 273.859 186.752C273.536 187.132 273.232 187.246 272.947 187.322C273.099 187.626 273.384 188.291 273.479 188.614ZM305.114 184.491V185.878H312.543V184.491H305.114ZM308.914 185.422V195.473H310.32V185.422H308.914ZM296.222 179.931V186.581C296.222 189.07 296.108 192.338 294.892 194.675C295.215 194.827 295.804 195.321 296.051 195.568C297.438 193.079 297.609 189.279 297.609 186.581V179.931H296.222ZM311.232 178.297C309.674 179.019 306.881 179.627 304.506 179.969C304.677 180.292 304.867 180.824 304.943 181.166C307.375 180.843 310.32 180.292 312.201 179.494L311.232 178.297ZM297.001 182.838V184.13H301.371V187.17H297.001V188.462H302.758V182.838H297.001ZM302.72 178.449C301.238 179.152 298.502 179.665 296.222 179.931C296.393 180.273 296.583 180.767 296.64 181.109C298.977 180.881 301.846 180.425 303.651 179.646L302.72 178.449ZM304.506 179.969V186.296C304.506 188.937 304.278 192.281 302.017 194.618C302.34 194.808 302.91 195.302 303.138 195.568C305.589 193.098 305.95 189.184 305.95 186.315V179.969H304.506ZM317.578 180.995V182.382H334.222V180.995H317.578ZM323.468 187.018V188.348H333.481V187.018H323.468ZM322.727 193.744V195.093H334.222V193.744H322.727ZM327.762 183.351V194.466H329.187V183.351H327.762ZM323.829 178.05C322.765 181.964 320.542 186.182 317.122 188.595C317.35 188.918 317.711 189.526 317.863 189.906C321.644 187.189 323.962 182.762 325.292 178.411L323.829 178.05ZM320.067 185.878V195.473H321.492V185.878H320.067ZM346.382 190.438C348.377 189.754 349.669 188.196 349.669 186.144C349.669 184.814 349.099 183.94 348.035 183.94C347.275 183.94 346.591 184.415 346.591 185.308C346.591 186.201 347.237 186.676 348.016 186.676C348.377 186.676 348.757 186.581 349.023 186.239L347.997 184.795L348.358 186.391C348.358 187.835 347.503 188.804 345.945 189.431L346.382 190.438ZM369.22 183.807V185.137H378.511V183.807H369.22ZM373.609 184.415V192.927H375.053V184.415H373.609ZM368.536 179.532V183.617C368.536 186.03 368.327 189.317 366.503 191.673C366.845 191.844 367.434 192.262 367.7 192.528C369.657 190.02 369.98 186.277 369.98 183.636V179.532H368.536ZM376.953 178.411C375.053 178.981 371.5 179.361 368.536 179.532C368.707 179.874 368.878 180.406 368.935 180.71C372.032 180.577 375.737 180.197 378.131 179.475L376.953 178.411ZM362.114 178.715C362.988 179.646 364.109 180.976 364.641 181.774L365.743 180.995C365.192 180.216 364.109 179 363.178 178.088L362.114 178.715ZM361.373 182.439V183.636H365.629V182.439H361.373ZM364.945 191.16L363.976 191.597C365.401 194.732 367.89 195.264 372.336 195.264C374.426 195.264 376.82 195.207 378.606 195.112C378.682 194.713 378.853 194.048 379.081 193.744C377.124 193.896 374.35 193.991 372.355 193.991C368.574 193.991 366.085 193.649 364.945 191.16ZM365.192 187.189V187.436C364.603 190.932 363.083 193.326 360.974 194.599C361.259 194.808 361.734 195.283 361.924 195.587C364.128 194.162 365.8 191.502 366.484 187.417L365.762 187.151L365.534 187.189H365.192ZM361.639 188.614C361.772 188.462 362.266 188.348 362.779 188.348H365.61L365.629 187.189H362.323L361.639 187.531V188.614ZM361.639 188.614C361.639 188.253 362.703 187.721 362.703 187.721C363.862 186.505 365.705 184.111 366.655 182.8L365.705 182.344L365.287 182.534V182.591C364.603 183.617 362.665 186.163 362.038 186.752C361.696 187.132 361.392 187.246 361.107 187.322C361.259 187.626 361.544 188.291 361.639 188.614ZM386.643 193.098V194.485H397.321V193.098H386.643ZM385.921 187.531V195.53H387.365V188.88H396.599V195.473H398.1V187.531H385.921ZM393.901 180.957C395.763 182.648 397.929 185.042 398.86 186.657L400.095 185.764C399.107 184.187 396.865 181.831 395.003 180.216L393.901 180.957ZM384.895 185.916C384.895 185.631 385.845 185.194 385.845 185.194V185.156C387.859 183.484 389.987 181.128 391.811 178.601L390.386 177.993C388.904 180.349 386.681 182.762 385.978 183.389C385.351 184.016 384.857 184.434 384.42 184.51C384.591 184.89 384.838 185.612 384.895 185.916ZM384.895 185.916C385.655 185.65 386.795 185.612 398.252 184.966C398.176 184.662 398.119 184.092 398.1 183.693L385.94 184.263L384.876 184.795L384.895 185.916ZM409.557 194.276C412.046 194.276 414.041 192.775 414.041 190.305C414.041 188.386 412.711 187.151 411.077 186.752V186.676C412.559 186.144 413.547 185.023 413.547 183.332C413.547 181.109 411.837 179.836 409.5 179.836C407.904 179.836 406.669 180.539 405.624 181.489L406.555 182.61C407.334 181.812 408.322 181.242 409.443 181.242C410.887 181.242 411.78 182.116 411.78 183.446C411.78 184.966 410.811 186.106 407.942 186.106V187.455C411.153 187.455 412.274 188.557 412.274 190.229C412.274 191.825 411.096 192.832 409.443 192.832C407.847 192.832 406.802 192.072 405.985 191.217L405.111 192.357C406.023 193.364 407.372 194.276 409.557 194.276ZM422.585 194.276C425.207 194.276 427.639 192.11 427.639 186.448C427.639 182.021 425.644 179.836 422.965 179.836C420.799 179.836 418.975 181.66 418.975 184.358C418.975 187.246 420.476 188.728 422.813 188.728C424.01 188.728 425.245 188.006 426.119 186.904L426.024 185.517C425.112 186.904 424.029 187.455 423.098 187.455C421.445 187.455 420.609 186.22 420.609 184.358C420.609 182.439 421.635 181.185 422.965 181.185C424.922 181.185 426.005 183.028 426.005 186.448C426.005 191.217 424.39 192.832 422.528 192.832C421.635 192.832 420.78 192.433 420.191 191.749L419.222 192.851C420.001 193.668 421.065 194.276 422.585 194.276ZM443.878 178.05C443.707 178.753 443.365 179.798 443.061 180.501L444.258 180.824C444.619 180.216 445.056 179.266 445.474 178.373L443.878 178.05ZM441.636 183.94H447.602V185.631H441.636V183.94ZM441.636 181.204H447.602V182.876H441.636V181.204ZM440.306 180.083V186.771H448.989V180.083H440.306ZM444.106 186.296V193.953C444.106 194.181 444.049 194.238 443.802 194.257C443.555 194.276 442.738 194.276 441.845 194.238C442.035 194.618 442.206 195.169 442.263 195.549C443.498 195.549 444.315 195.549 444.828 195.321C445.322 195.093 445.474 194.694 445.474 193.972V186.296H444.106ZM439.603 188.367V189.564H442.7V188.367H439.603ZM442.396 188.367V188.576C441.845 190.875 440.287 192.775 438.577 193.63C438.843 193.877 439.223 194.333 439.394 194.637C441.351 193.554 443.004 191.502 443.688 188.614L442.852 188.31L442.624 188.367H442.396ZM448.514 187.455C447.849 188.291 446.633 189.469 445.778 190.153L446.576 190.856C447.488 190.21 448.628 189.203 449.597 188.31L448.514 187.455ZM445.398 187.227L444.41 187.493C445.246 190.571 446.861 193.345 449.084 194.713C449.312 194.352 449.73 193.839 450.034 193.592C447.849 192.471 446.196 189.963 445.398 187.227ZM436.867 185.555C437.323 186.885 437.741 188.633 437.893 189.678L439.052 189.317C438.9 188.31 438.425 186.6 437.95 185.289L436.867 185.555ZM435.157 190.438C435.366 191.73 435.556 193.421 435.594 194.542L436.715 194.333C436.658 193.212 436.468 191.559 436.24 190.248L435.157 190.438ZM433.295 190.286C433.124 191.863 432.839 193.592 432.383 194.77C432.687 194.865 433.238 195.055 433.485 195.188C433.884 193.991 434.264 192.148 434.473 190.476L433.295 190.286ZM432.839 185.175C432.839 184.89 433.732 184.434 433.732 184.434V184.396C434.948 182.895 436.202 180.691 437.152 178.582L435.822 178.031C435.081 180.083 433.808 182.249 433.409 182.819C433.029 183.389 432.706 183.788 432.383 183.864C432.535 184.225 432.763 184.89 432.839 185.175ZM432.839 185.175C433.143 185.023 433.656 184.909 436.677 184.567C436.677 184.282 436.734 183.788 436.791 183.408L433.485 183.712L432.801 184.111L432.839 185.175ZM432.953 189.45C432.953 189.165 433.884 188.728 433.884 188.728V188.69C435.67 186.828 437.513 184.225 438.938 181.641L437.684 180.9C436.468 183.465 434.492 186.163 433.903 186.828C433.314 187.531 432.896 188.025 432.497 188.12C432.649 188.481 432.877 189.165 432.953 189.45ZM432.953 189.45C433.333 189.26 433.922 189.127 438.159 188.5C438.14 188.215 438.159 187.702 438.216 187.36L433.599 187.949L432.915 188.386L432.953 189.45ZM436.943 190.077C437.285 191.065 437.684 192.357 437.817 193.193L438.881 192.851C438.71 192.015 438.311 190.761 437.931 189.773L436.943 190.077ZM466.279 179.019V180.273H469.794V179.019H466.279ZM461.871 179.95V181.166H465.576V179.95H461.871ZM466.45 182.667V183.883H469.737V182.667H466.45ZM466.336 186.239V187.455H469.566V186.239H466.336ZM456.95 182.61V183.826H460.18V182.61H456.95ZM457.045 186.163V187.379H460.237V186.163H457.045ZM469.015 179.019C469.034 182.534 468.863 187.474 468.673 190.267H470.003C470.193 187.512 470.307 182.61 470.345 179.019H469.015ZM459.743 178.164C458.812 178.639 457.387 179.209 456.19 179.627C456.342 179.931 456.513 180.368 456.57 180.653C457.786 180.292 459.268 179.817 460.427 179.323L459.743 178.164ZM461.187 178.183V184.358H464.93V183.199H462.422V178.183H461.187ZM454.632 189.735V191.065H471.884V189.735H454.632ZM465.082 192.281C467.077 193.25 469.186 194.523 470.478 195.454L471.428 194.371C470.098 193.459 467.894 192.243 465.861 191.293L465.082 192.281ZM460.218 191.369C459.002 192.395 456.703 193.687 454.879 194.428C455.164 194.732 455.525 195.207 455.715 195.511C457.577 194.694 459.876 193.421 461.434 192.224L460.218 191.369ZM456.19 179.627L456.57 190.191H457.862L457.52 180.007L456.19 179.627ZM461.795 185.194C461.624 186.353 461.339 187.512 460.75 188.329C461.016 188.462 461.529 188.766 461.719 188.937C462.308 188.044 462.707 186.714 462.916 185.384L461.795 185.194ZM464.227 183.218V188.272C464.227 188.443 464.17 188.5 463.98 188.5C463.79 188.519 463.22 188.519 462.536 188.5C462.688 188.785 462.84 189.165 462.897 189.469C463.828 189.469 464.493 189.469 464.911 189.298C465.329 189.127 465.443 188.861 465.443 188.272V183.218H464.227ZM476.957 185.859V187.284H493.696V185.859H476.957ZM478.325 181.166V182.591H492.385V181.166H478.325ZM484.519 178.069V195.53H486.001V178.069H484.519ZM484.139 186.581C482.505 189.279 479.351 191.996 476.425 193.269C476.767 193.573 477.223 194.124 477.47 194.485C480.415 192.984 483.569 190.134 485.374 187.113L484.139 186.581ZM486.381 186.581L485.203 187.094C487.027 190.096 490.181 193.003 493.107 194.485C493.354 194.105 493.81 193.554 494.152 193.269C491.226 191.996 488.034 189.26 486.381 186.581ZM499.206 180.71V182.097H515.603V180.71H499.206ZM506.54 178.069V195.53H508.022V178.069H506.54ZM506.711 186.505C505.001 189.393 501.714 192.167 498.541 193.459C498.864 193.744 499.32 194.314 499.548 194.675C502.759 193.174 506.046 190.229 507.908 186.98L506.711 186.505ZM507.946 186.543L506.749 187.037C508.592 190.286 511.822 193.25 515.09 194.713C515.337 194.314 515.793 193.744 516.154 193.44C512.867 192.186 509.618 189.45 507.946 186.543ZM501.733 185.517C502.645 186.315 503.785 187.455 504.374 188.139L505.343 187.17C504.754 186.486 503.576 185.403 502.683 184.643L501.733 185.517ZM502.531 182.553C501.961 185.004 500.764 187.075 499.035 188.367C499.377 188.595 499.928 189.051 500.156 189.298C501.923 187.835 503.253 185.574 503.918 182.8L502.531 182.553ZM510.872 185.555C512.164 186.6 513.874 188.063 514.691 188.975L515.698 187.987C514.843 187.113 513.095 185.688 511.822 184.719L510.872 185.555ZM511.537 182.553C511.119 184.681 510.207 186.543 508.82 187.702C509.162 187.873 509.77 188.272 510.036 188.5C511.385 187.17 512.411 185.175 512.905 182.781L511.537 182.553ZM526.699 179.76V180.919H537.795V179.76H526.699ZM532.152 190.305V191.483H537.073V190.305H532.152ZM526.452 184.776V185.935H538.27V184.776H526.452ZM527.535 182.211V183.351H535.572V187.512H527.535V188.652H536.902V182.211H527.535ZM531.43 178.05V193.896L532.76 194.58V178.05H531.43ZM527.744 188.975C527.421 191.445 526.604 193.497 525.122 194.808C525.445 194.979 525.996 195.378 526.224 195.606C527.725 194.143 528.656 191.901 529.074 189.146L527.744 188.975ZM528.561 190.685L527.516 191.122C528.827 194.561 530.993 195.378 534.489 195.378H537.814C537.871 195.017 538.061 194.428 538.251 194.124C537.605 194.124 534.983 194.124 534.546 194.124C531.658 194.124 529.587 193.497 528.561 190.685ZM520.391 187.911L520.771 189.298C522.386 188.785 524.476 188.101 526.452 187.417L526.262 186.106C524.096 186.809 521.873 187.493 520.391 187.911ZM520.657 181.888V183.218H526.433V181.888H520.657ZM523.051 178.069V193.877C523.051 194.162 522.937 194.219 522.709 194.219C522.481 194.238 521.759 194.238 520.923 194.219C521.113 194.618 521.284 195.207 521.341 195.549C522.538 195.549 523.279 195.511 523.716 195.283C524.191 195.055 524.381 194.675 524.381 193.877V178.069H523.051ZM552.976 180.615V193.117H554.363V180.615H552.976ZM550.126 186.961H557.289V188.253H550.126V186.961ZM550.126 184.776H557.289V186.03H550.126V184.776ZM548.929 183.807V189.222H558.543V183.807H548.929ZM547.865 178.734V182.135H549.195V179.836H558.049V182.135H559.436V178.734H547.865ZM549.328 181.584V182.648H558.068V181.584H549.328ZM547.979 190.438V191.559H559.664V190.438H547.979ZM543.495 178.677C544.274 179.627 545.262 180.957 545.718 181.755L546.858 181.014C546.383 180.235 545.395 179 544.578 178.069L543.495 178.677ZM542.792 182.458V183.655H546.801V182.458H542.792ZM546.174 191.16L545.224 191.597C546.668 194.732 549.157 195.226 553.622 195.226C555.712 195.226 558.106 195.188 559.911 195.074C559.987 194.694 560.158 194.048 560.367 193.744C558.41 193.915 555.636 193.991 553.622 193.991C549.822 193.991 547.352 193.649 546.174 191.16ZM546.174 187.189V187.436C545.699 190.856 544.369 193.288 542.488 194.58C542.773 194.789 543.248 195.283 543.438 195.568C545.414 194.105 546.877 191.407 547.485 187.417L546.839 187.151L546.592 187.189H546.174ZM543.077 188.614C543.21 188.462 543.704 188.348 544.198 188.348H546.763V187.189H543.761L543.077 187.531V188.614ZM543.077 188.614C543.077 188.253 544.141 187.721 544.141 187.721C545.205 186.505 546.877 184.073 547.751 182.781L546.82 182.344L546.402 182.534V182.591C545.775 183.598 544.027 186.182 543.457 186.752C543.134 187.132 542.83 187.246 542.545 187.322C542.697 187.626 542.982 188.291 543.077 188.614ZM107.685 231.465V232.681H113.499V231.465H107.685ZM101.529 230.325V232.529H102.764V230.325H101.529ZM101.529 234.391V236.595H102.764V234.391H101.529ZM96.779 241.744V242.96H114.259V241.744H96.779ZM98.964 237.83V242.371H100.294V238.951H102.935V242.371H104.17V238.951H106.83V242.371H108.065V238.951H110.725V242.371H112.112V237.83H98.964ZM107.818 229.755C107.324 231.617 106.45 233.441 105.367 234.676C105.652 234.904 106.108 235.474 106.26 235.721C107.476 234.353 108.483 232.206 109.11 230.04L107.818 229.755ZM98.622 231.959V232.852H104.018V233.973H98.622V234.847H105.196V231.959H98.622ZM105.69 229.964H97.957V237.013H105.823V236.063H99.154V230.914H105.69V229.964ZM97.007 227.285V228.463H104.873V227.285H97.007ZM101.035 226.069V229.432H102.422V226.069H101.035ZM108.749 226.069V229.432H110.136V226.069H108.749ZM105.956 227.285V228.463H113.86V227.285H105.956ZM107.343 235.379V236.633H113.081V235.379H107.343ZM130.2 226.05C130.029 226.753 129.687 227.798 129.383 228.501L130.58 228.824C130.941 228.216 131.378 227.266 131.796 226.373L130.2 226.05ZM127.958 231.94H133.924V233.631H127.958V231.94ZM127.958 229.204H133.924V230.876H127.958V229.204ZM126.628 228.083V234.771H135.311V228.083H126.628ZM130.428 234.296V241.953C130.428 242.181 130.371 242.238 130.124 242.257C129.877 242.276 129.06 242.276 128.167 242.238C128.357 242.618 128.528 243.169 128.585 243.549C129.82 243.549 130.637 243.549 131.15 243.321C131.644 243.093 131.796 242.694 131.796 241.972V234.296H130.428ZM125.925 236.367V237.564H129.022V236.367H125.925ZM128.718 236.367V236.576C128.167 238.875 126.609 240.775 124.899 241.63C125.165 241.877 125.545 242.333 125.716 242.637C127.673 241.554 129.326 239.502 130.01 236.614L129.174 236.31L128.946 236.367H128.718ZM134.836 235.455C134.171 236.291 132.955 237.469 132.1 238.153L132.898 238.856C133.81 238.21 134.95 237.203 135.919 236.31L134.836 235.455ZM131.72 235.227L130.732 235.493C131.568 238.571 133.183 241.345 135.406 242.713C135.634 242.352 136.052 241.839 136.356 241.592C134.171 240.471 132.518 237.963 131.72 235.227ZM123.189 233.555C123.645 234.885 124.063 236.633 124.215 237.678L125.374 237.317C125.222 236.31 124.747 234.6 124.272 233.289L123.189 233.555ZM121.479 238.438C121.688 239.73 121.878 241.421 121.916 242.542L123.037 242.333C122.98 241.212 122.79 239.559 122.562 238.248L121.479 238.438ZM119.617 238.286C119.446 239.863 119.161 241.592 118.705 242.77C119.009 242.865 119.56 243.055 119.807 243.188C120.206 241.991 120.586 240.148 120.795 238.476L119.617 238.286ZM119.161 233.175C119.161 232.89 120.054 232.434 120.054 232.434V232.396C121.27 230.895 122.524 228.691 123.474 226.582L122.144 226.031C121.403 228.083 120.13 230.249 119.731 230.819C119.351 231.389 119.028 231.788 118.705 231.864C118.857 232.225 119.085 232.89 119.161 233.175ZM119.161 233.175C119.465 233.023 119.978 232.909 122.999 232.567C122.999 232.282 123.056 231.788 123.113 231.408L119.807 231.712L119.123 232.111L119.161 233.175ZM119.275 237.45C119.275 237.165 120.206 236.728 120.206 236.728V236.69C121.992 234.828 123.835 232.225 125.26 229.641L124.006 228.9C122.79 231.465 120.814 234.163 120.225 234.828C119.636 235.531 119.218 236.025 118.819 236.12C118.971 236.481 119.199 237.165 119.275 237.45ZM119.275 237.45C119.655 237.26 120.244 237.127 124.481 236.5C124.462 236.215 124.481 235.702 124.538 235.36L119.921 235.949L119.237 236.386L119.275 237.45ZM123.265 238.077C123.607 239.065 124.006 240.357 124.139 241.193L125.203 240.851C125.032 240.015 124.633 238.761 124.253 237.773L123.265 238.077ZM148.573 230.667V239.046H149.922V230.667H148.573ZM152.962 232.396V233.726H157.541V232.396H152.962ZM140.935 226.981V228.273H145.476V226.981H140.935ZM142.208 232.662V233.84H145.647V232.662H142.208ZM152.259 227.684V239.274H153.703V227.684H152.259ZM156.781 226.316C154.691 227 150.91 227.475 147.699 227.722C147.851 228.045 148.022 228.577 148.06 228.919C151.328 228.691 155.185 228.235 157.693 227.456L156.781 226.316ZM145.267 232.662V232.909C144.849 237.868 143.215 241.06 140.688 242.447C140.973 242.732 141.334 243.283 141.505 243.644C144.374 241.896 146.065 238.59 146.578 232.795L145.761 232.605L145.514 232.662H145.267ZM142.341 235.151L141.22 235.645C143.348 241.972 147.68 243.112 153.361 243.112H157.959C158.054 242.713 158.301 242.048 158.529 241.706C157.56 241.725 154.159 241.725 153.399 241.725C148.326 241.725 144.108 240.775 142.341 235.151ZM147.072 238.324V239.654H157.997V238.324H147.072ZM141.771 234.353C141.771 234.049 142.797 233.631 142.797 233.631V233.593C144.013 232.035 145.324 229.755 146.464 227.38L145.552 226.791L145.039 227.019V227.114C144.222 229.223 142.854 231.465 142.417 232.035C142.018 232.643 141.543 233.137 141.22 233.213C141.41 233.479 141.676 234.068 141.771 234.353ZM173.349 226.145V243.53H174.755V226.145H173.349ZM168.295 229.071V239.236H169.644V230.382H178.574V239.103H179.961V229.071H168.295ZM169.188 233.004V234.277H179.201V233.004H169.188ZM169.245 236.937V238.248H179.258V236.937H169.245ZM167.136 226.126C166.072 229.014 164.286 231.864 162.405 233.707C162.671 234.03 163.07 234.79 163.222 235.113C165.274 232.985 167.231 229.774 168.485 226.544L167.136 226.126ZM165.16 231.028V243.511H166.528V229.698L166.49 229.679L165.16 231.028ZM196.32 226.05C196.149 226.753 195.807 227.798 195.503 228.501L196.7 228.824C197.061 228.216 197.498 227.266 197.916 226.373L196.32 226.05ZM194.078 231.94H200.044V233.631H194.078V231.94ZM194.078 229.204H200.044V230.876H194.078V229.204ZM192.748 228.083V234.771H201.431V228.083H192.748ZM196.548 234.296V241.953C196.548 242.181 196.491 242.238 196.244 242.257C195.997 242.276 195.18 242.276 194.287 242.238C194.477 242.618 194.648 243.169 194.705 243.549C195.94 243.549 196.757 243.549 197.27 243.321C197.764 243.093 197.916 242.694 197.916 241.972V234.296H196.548ZM192.045 236.367V237.564H195.142V236.367H192.045ZM194.838 236.367V236.576C194.287 238.875 192.729 240.775 191.019 241.63C191.285 241.877 191.665 242.333 191.836 242.637C193.793 241.554 195.446 239.502 196.13 236.614L195.294 236.31L195.066 236.367H194.838ZM200.956 235.455C200.291 236.291 199.075 237.469 198.22 238.153L199.018 238.856C199.93 238.21 201.07 237.203 202.039 236.31L200.956 235.455ZM197.84 235.227L196.852 235.493C197.688 238.571 199.303 241.345 201.526 242.713C201.754 242.352 202.172 241.839 202.476 241.592C200.291 240.471 198.638 237.963 197.84 235.227ZM189.309 233.555C189.765 234.885 190.183 236.633 190.335 237.678L191.494 237.317C191.342 236.31 190.867 234.6 190.392 233.289L189.309 233.555ZM187.599 238.438C187.808 239.73 187.998 241.421 188.036 242.542L189.157 242.333C189.1 241.212 188.91 239.559 188.682 238.248L187.599 238.438ZM185.737 238.286C185.566 239.863 185.281 241.592 184.825 242.77C185.129 242.865 185.68 243.055 185.927 243.188C186.326 241.991 186.706 240.148 186.915 238.476L185.737 238.286ZM185.281 233.175C185.281 232.89 186.174 232.434 186.174 232.434V232.396C187.39 230.895 188.644 228.691 189.594 226.582L188.264 226.031C187.523 228.083 186.25 230.249 185.851 230.819C185.471 231.389 185.148 231.788 184.825 231.864C184.977 232.225 185.205 232.89 185.281 233.175ZM185.281 233.175C185.585 233.023 186.098 232.909 189.119 232.567C189.119 232.282 189.176 231.788 189.233 231.408L185.927 231.712L185.243 232.111L185.281 233.175ZM185.395 237.45C185.395 237.165 186.326 236.728 186.326 236.728V236.69C188.112 234.828 189.955 232.225 191.38 229.641L190.126 228.9C188.91 231.465 186.934 234.163 186.345 234.828C185.756 235.531 185.338 236.025 184.939 236.12C185.091 236.481 185.319 237.165 185.395 237.45ZM185.395 237.45C185.775 237.26 186.364 237.127 190.601 236.5C190.582 236.215 190.601 235.702 190.658 235.36L186.041 235.949L185.357 236.386L185.395 237.45ZM189.385 238.077C189.727 239.065 190.126 240.357 190.259 241.193L191.323 240.851C191.152 240.015 190.753 238.761 190.373 237.773L189.385 238.077ZM214.142 238.438C216.137 237.754 217.429 236.196 217.429 234.144C217.429 232.814 216.859 231.94 215.795 231.94C215.035 231.94 214.351 232.415 214.351 233.308C214.351 234.201 214.997 234.676 215.776 234.676C216.137 234.676 216.517 234.581 216.783 234.239L215.757 232.795L216.118 234.391C216.118 235.835 215.263 236.804 213.705 237.431L214.142 238.438ZM228.981 236.12L229.399 237.545C231.318 236.994 233.864 236.215 236.258 235.493L236.087 234.163C233.503 234.885 230.786 235.664 228.981 236.12ZM229.152 229.888V231.256H236.068V229.888H229.152ZM232.002 226.069V241.649C232.002 241.915 231.907 242.01 231.641 242.01C231.394 242.01 230.558 242.01 229.665 241.991C229.855 242.371 230.064 242.96 230.102 243.34C231.432 243.34 232.211 243.321 232.743 243.074C233.237 242.846 233.427 242.466 233.427 241.649V226.069H232.002ZM236.163 227.665V229.071H246.499V227.665H236.163ZM241.578 228.159V241.44C241.578 241.782 241.464 241.896 241.084 241.915C240.666 241.934 239.298 241.934 237.892 241.877C238.12 242.295 238.386 242.998 238.462 243.435C240.267 243.435 241.464 243.416 242.167 243.15C242.87 242.903 243.098 242.428 243.098 241.44V228.159H241.578ZM258.982 229.242C260.825 229.945 263.219 231.047 264.416 231.788L265.366 230.876C264.093 230.116 261.699 229.09 259.875 228.444L258.982 229.242ZM257.158 230.838V240.623H258.431V231.94H266.886V230.838H257.158ZM266.373 230.838V239.274C266.373 239.502 266.297 239.578 266.05 239.597C265.803 239.597 265.005 239.597 264.093 239.578C264.245 239.882 264.435 240.357 264.492 240.699C265.746 240.699 266.563 240.68 267.019 240.49C267.513 240.281 267.665 239.958 267.665 239.274V230.838H266.373ZM257.177 226.848V227.969H266.658V226.848H257.177ZM257.918 233.612V234.676H266.867V233.612H257.918ZM257.918 236.405V237.507H266.867V236.405H257.918ZM261.699 231.294V240.604H262.953V231.294H261.699ZM266.183 226.848V227.114C265.328 228.007 263.561 229.109 262.003 229.717C262.212 229.926 262.573 230.306 262.763 230.553C264.492 229.831 266.411 228.653 267.684 227.456L266.81 226.772L266.506 226.848H266.183ZM251.857 226.715C252.693 227.646 253.757 228.976 254.27 229.774L255.372 228.995C254.84 228.216 253.795 227 252.921 226.088L251.857 226.715ZM251.173 230.439V231.636H255.334V230.439H251.173ZM254.555 239.16L253.605 239.597C255.03 242.732 257.519 243.264 261.965 243.264C264.055 243.264 266.449 243.207 268.235 243.112C268.311 242.713 268.501 242.048 268.71 241.744C266.772 241.896 263.979 241.991 261.984 241.991C258.203 241.991 255.733 241.649 254.555 239.16ZM254.821 235.189V235.436C254.289 238.913 252.826 241.326 250.812 242.599C251.078 242.808 251.553 243.283 251.743 243.587C253.871 242.162 255.448 239.483 256.113 235.417L255.391 235.151L255.144 235.189H254.821ZM251.439 236.614C251.572 236.462 252.066 236.348 252.56 236.348H255.277L255.296 235.189H252.123L251.439 235.531V236.614ZM251.439 236.614C251.439 236.253 252.503 235.721 252.503 235.721C253.624 234.505 255.391 232.092 256.322 230.8L255.372 230.344L254.935 230.534V230.591C254.289 231.598 252.427 234.163 251.819 234.752C251.496 235.132 251.192 235.246 250.907 235.322C251.059 235.626 251.344 236.291 251.439 236.614ZM273.441 228.045V229.28H290.123V228.045H273.441ZM277.735 231.408H285.962V233.118H277.735V231.408ZM276.31 230.344V234.163H287.444V230.344H276.31ZM274.125 235.227V243.53H275.512V236.443H289.059V235.227H274.125ZM288.09 235.227V242.029C288.09 242.257 287.995 242.314 287.748 242.333C287.52 242.333 286.646 242.352 285.81 242.314C286 242.599 286.19 243.055 286.266 243.378C287.482 243.397 288.318 243.378 288.812 243.207C289.344 243.017 289.515 242.713 289.515 242.029V235.227H288.09ZM280.68 226.316C280.965 227.152 281.345 228.254 281.497 228.919L282.941 228.501C282.789 227.874 282.39 226.81 282.067 225.993L280.68 226.316ZM278.4 237.564V238.628H284.442V240.414H278.4V241.478H285.715V237.564H278.4ZM277.659 237.564V242.428H278.989V237.564H277.659ZM301.865 227.76V228.9H307.299V227.76H301.865ZM301.808 238.913V239.92H307.185V238.913H301.808ZM301.162 230.553V231.731H312.619V230.553H301.162ZM303.974 226.05V231.104H305.266V226.05H303.974ZM302.986 233.574H306.159V235.132H302.986V233.574ZM301.903 232.605V236.101H307.28V232.605H301.903ZM309.769 226.924C310.472 227.874 311.194 229.147 311.46 229.964L312.6 229.413C312.296 228.596 311.536 227.361 310.833 226.449L309.769 226.924ZM301.2 241.497L301.371 242.618C303.081 242.352 305.285 241.991 307.489 241.649L307.451 240.604C305.133 240.965 302.796 241.307 301.2 241.497ZM311.023 233.517C310.187 237.45 308.591 240.718 306.083 242.732C306.368 242.941 306.862 243.378 307.052 243.625C309.598 241.402 311.308 237.963 312.239 233.745L311.023 233.517ZM303.955 237.241V241.535L305.209 241.421V237.241H303.955ZM307.85 226.05C307.983 237.412 308.667 243.473 311.099 243.473C312.182 243.454 312.638 242.922 312.809 240.015C312.505 239.901 312.087 239.597 311.802 239.312C311.726 241.497 311.536 242.124 311.213 242.124C310.073 242.124 309.123 237.051 309.218 226.05H307.85ZM296.317 230.895V232.13H300.706V230.895H296.317ZM295.386 234.22V235.455H301.219V234.22H295.386ZM295.709 236.709C295.994 237.83 296.279 239.293 296.336 240.262L297.267 239.958C297.172 239.008 296.906 237.564 296.583 236.462L295.709 236.709ZM295.196 241.611L295.481 242.884C297.077 242.485 299.262 241.934 301.333 241.383L301.257 240.224C298.996 240.756 296.697 241.288 295.196 241.611ZM300.212 236.234C300.041 237.279 299.699 238.799 299.414 239.73L300.212 240.053C300.516 239.16 300.877 237.773 301.181 236.595L300.212 236.234ZM297.932 231.446V241.782L299.034 241.611V231.446H297.932ZM298.426 225.955C297.628 227.76 296.279 229.489 294.949 230.572C295.139 230.914 295.424 231.693 295.519 232.016C296.982 230.686 298.483 228.596 299.414 226.449L298.426 225.955ZM298.008 227.912C299.148 228.767 300.402 229.964 301.181 230.838L301.77 229.66C301.01 228.824 299.737 227.703 298.559 226.867L298.008 227.912ZM306.71 236.443C305.494 236.747 303.252 236.975 301.352 237.089C301.504 237.336 301.637 237.716 301.675 237.944C303.651 237.906 306.045 237.678 307.584 237.26L306.71 236.443ZM317.711 238.476V239.559H326.375V238.476H317.711ZM317.198 229.318V230.42H326.679V229.318H317.198ZM321.321 227.589V241.573H322.632V227.589H321.321ZM317.179 241.611L317.388 242.846C319.801 242.599 323.24 242.2 326.47 241.82L326.451 240.699C323.05 241.06 319.497 241.402 317.179 241.611ZM318.946 234.923H325.102V236.329H318.946V234.923ZM318.946 232.605H325.102V233.973H318.946V232.605ZM317.749 231.617V237.317H326.318V231.617H317.749ZM325.634 226.24C323.677 226.696 320.219 227.038 317.388 227.19C317.54 227.475 317.673 227.95 317.73 228.254C320.58 228.159 324.114 227.836 326.356 227.342L325.634 226.24ZM326.546 230.496V231.826H333.405V230.496H326.546ZM332.854 230.496V230.838C332.645 238.533 332.436 241.269 331.961 241.858C331.79 242.105 331.6 242.162 331.296 242.162C330.916 242.162 330.08 242.143 329.149 242.067C329.377 242.447 329.529 243.036 329.567 243.435C330.441 243.492 331.353 243.492 331.885 243.435C332.455 243.378 332.835 243.207 333.177 242.713C333.804 241.896 333.994 239.236 334.203 231.218C334.203 231.028 334.222 230.496 334.222 230.496H332.854ZM328.845 226.297C328.826 233.479 328.921 239.502 324.57 242.618C324.912 242.846 325.406 243.302 325.634 243.644C330.175 240.243 330.194 233.859 330.213 226.297H328.845ZM340.967 226.753V228.064H344.824V226.753H340.967ZM340.34 226.753V233.517C340.34 236.291 340.226 240.034 339.029 242.732C339.295 242.865 339.808 243.321 340.017 243.568C341.347 240.68 341.537 236.443 341.537 233.517V226.753H340.34ZM343.988 226.753V241.839C343.988 242.086 343.912 242.181 343.665 242.181C343.437 242.181 342.677 242.2 341.822 242.162C341.993 242.504 342.164 243.074 342.221 243.397C343.418 243.397 344.14 243.378 344.596 243.169C345.033 242.941 345.185 242.542 345.185 241.858V226.753H343.988ZM341.404 236.633L341.955 237.773C342.867 237.089 343.817 236.367 344.786 235.645L344.406 234.809C343.285 235.531 342.183 236.215 341.404 236.633ZM341.461 231.104C342.126 231.788 342.905 232.776 343.285 233.403L344.159 232.795C343.76 232.187 342.962 231.256 342.297 230.572L341.461 231.104ZM353.355 231.389L352.215 231.541C352.69 236.519 353.602 240.984 355.692 243.283C355.901 242.922 356.357 242.428 356.661 242.181C354.685 240.224 353.792 235.93 353.355 231.389ZM355.73 233.536C355.103 234.353 353.963 235.55 353.184 236.215L353.849 237.013C354.685 236.405 355.749 235.436 356.699 234.6L355.73 233.536ZM355.198 226.107C353.146 226.829 349.688 227.475 346.667 227.893C346.838 228.216 347.047 228.748 347.104 229.109C350.144 228.748 353.735 228.159 356.148 227.361L355.198 226.107ZM346.667 227.893V232.909C346.667 235.816 346.553 239.958 345.052 242.903C345.375 243.017 345.945 243.34 346.192 243.568C347.75 240.509 347.978 235.968 347.978 232.909V227.893H346.667ZM355.122 230.078C353.773 230.648 351.398 231.18 349.346 231.522C349.517 231.845 349.707 232.358 349.783 232.662C351.911 232.396 354.4 231.883 356.148 231.237L355.122 230.078ZM349.023 243.492C349.327 243.188 349.821 242.903 353.032 241.364C352.918 241.098 352.785 240.566 352.709 240.205L349.365 241.687L348.871 242.219L349.023 243.492ZM349.023 243.492C349.023 242.998 350.543 241.896 350.543 241.896V231.522H349.346V240.794C349.346 241.668 348.7 242.257 348.339 242.485C348.548 242.732 348.909 243.207 349.023 243.492ZM368.422 238.438C370.417 237.754 371.709 236.196 371.709 234.144C371.709 232.814 371.139 231.94 370.075 231.94C369.315 231.94 368.631 232.415 368.631 233.308C368.631 234.201 369.277 234.676 370.056 234.676C370.417 234.676 370.797 234.581 371.063 234.239L370.037 232.795L370.398 234.391C370.398 235.835 369.543 236.804 367.985 237.431L368.422 238.438ZM388.467 233.156V234.448H396.257V233.156H388.467ZM388.714 227.076V228.368H397.625V227.076H388.714ZM391.792 229.014V240.718H393.16V229.014H391.792ZM396.96 227.076C397.017 235.398 396.979 240.566 399.392 240.566C400.38 240.566 400.646 239.787 400.817 237.64C400.532 237.412 400.152 236.994 399.905 236.652C399.886 238.02 399.772 239.141 399.506 239.141C398.385 239.141 398.328 233.973 398.366 227.076H396.96ZM384.097 226.715C384.933 227.646 385.997 228.976 386.51 229.774L387.612 228.995C387.08 228.216 386.035 227 385.161 226.088L384.097 226.715ZM383.432 230.439V231.636H387.555V230.439H383.432ZM386.795 239.16L385.845 239.597C387.27 242.732 389.759 243.264 394.205 243.264C396.295 243.264 398.689 243.207 400.475 243.112C400.551 242.713 400.741 242.048 400.95 241.744C399.012 241.896 396.219 241.991 394.224 241.991C390.443 241.991 387.973 241.649 386.795 239.16ZM387.061 235.189V235.436C386.529 238.894 385.085 241.326 383.09 242.599C383.375 242.808 383.85 243.283 384.04 243.587C386.13 242.162 387.707 239.464 388.353 235.417L387.631 235.151L387.384 235.189H387.061ZM383.698 236.614C383.85 236.462 384.344 236.348 384.819 236.348H387.384V235.189H384.382L383.698 235.531V236.614ZM383.698 236.614C383.698 236.253 384.781 235.721 384.781 235.721C385.883 234.505 387.631 232.092 388.543 230.8L387.593 230.344L387.175 230.534V230.591C386.529 231.598 384.686 234.163 384.097 234.752C383.755 235.113 383.451 235.246 383.166 235.322C383.318 235.626 383.603 236.291 383.698 236.614ZM412.977 233.27L413.433 234.448L421.641 231.237L421.185 230.059L412.977 233.27ZM414.668 227.779V241.003C414.668 242.846 415.181 243.302 416.967 243.302C417.385 243.302 420.235 243.302 420.672 243.302C422.287 243.302 422.667 242.523 422.838 240.091C422.496 240.015 422.002 239.806 421.679 239.578C421.584 241.63 421.432 242.124 420.596 242.124C420.007 242.124 417.537 242.124 417.062 242.124C416.074 242.124 415.903 241.934 415.903 241.003V227.779H414.668ZM417.917 226.069V239.16H419.152V226.069H417.917ZM406.954 229.755V230.895H412.711V229.755H406.954ZM406.954 232.7V233.84H412.711V232.7H406.954ZM409.386 227.551V236.158H410.583V227.551H409.386ZM410.108 237.621C410.545 238.4 411.001 239.426 411.153 240.11L411.894 239.825C411.704 239.179 411.248 238.134 410.773 237.374L410.108 237.621ZM408.816 237.925C409.158 238.894 409.462 240.186 409.538 241.003L410.298 240.813C410.222 240.015 409.918 238.761 409.538 237.773L408.816 237.925ZM407.467 238.096C407.657 239.236 407.771 240.642 407.733 241.611L408.531 241.497C408.55 240.566 408.436 239.122 408.227 238.001L407.467 238.096ZM406.08 237.811C405.928 239.065 405.624 240.946 405.263 242.067L406.175 242.428C406.517 241.269 406.783 239.369 406.935 238.096L406.08 237.811ZM412.065 235.626V235.854C411.875 240.167 411.647 241.763 411.305 242.124C411.172 242.314 411.02 242.352 410.754 242.352C410.488 242.352 409.842 242.352 409.139 242.276C409.329 242.599 409.443 243.093 409.481 243.435C410.184 243.473 410.887 243.473 411.267 243.435C411.742 243.397 412.046 243.283 412.35 242.922C412.825 242.371 413.053 240.756 413.262 236.215C413.3 236.025 413.3 235.626 413.3 235.626H412.065ZM413.11 226.848H406.232V236.804H412.559V235.626H407.429V228.026H413.11V226.848ZM420.786 230.344C420.805 232.795 420.767 236.12 420.615 238.039L421.717 238.343C421.983 236.272 422.097 232.947 422.097 230.42L422.154 230.192L421.147 229.869L420.577 230.344H420.786ZM437.012 228.292V229.565H444.631V228.292H437.012ZM432.775 228.406V235.93H434.105V228.406H432.775ZM437.715 226.069C436.993 228.178 435.701 230.192 434.219 231.484C434.542 231.712 435.093 232.206 435.321 232.472C436.822 231.028 438.228 228.786 439.102 226.43L437.715 226.069ZM441.857 228.9C440.983 232.643 438.627 234.828 434.96 236.006C435.245 236.272 435.682 236.861 435.853 237.146C439.672 235.721 442.218 233.308 443.282 229.147L441.857 228.9ZM431.749 226.05C430.666 228.14 428.88 230.23 427.094 231.579C427.379 231.826 427.854 232.396 428.025 232.681C429.868 231.18 431.787 228.843 433.022 226.487L431.749 226.05ZM429.868 229.584V236.88H431.217V228.273L431.198 228.254L429.868 229.584ZM431.825 237.925V241.345C431.825 242.884 432.395 243.283 434.599 243.283C435.055 243.283 438.494 243.283 438.969 243.283C440.793 243.283 441.249 242.713 441.439 240.376C441.059 240.3 440.47 240.091 440.147 239.863C440.052 241.725 439.881 241.972 438.874 241.972C438.114 241.972 435.226 241.972 434.656 241.972C433.44 241.972 433.231 241.877 433.231 241.326V237.925H431.825ZM434.029 237.621C435.264 238.457 436.822 239.654 437.563 240.471L438.646 239.635C437.848 238.856 436.29 237.678 435.055 236.899L434.029 237.621ZM440.869 238.286C441.895 239.673 443.073 241.554 443.548 242.751L444.897 242.181C444.384 241.003 443.187 239.141 442.123 237.811L440.869 238.286ZM429.659 238.229C429.26 239.559 428.519 241.25 427.607 242.276L428.861 242.979C429.773 241.858 430.457 240.072 430.913 238.685L429.659 238.229ZM436.537 231.655C439.045 233.27 442.161 235.607 443.662 237.07L444.745 236.101C443.149 234.6 439.995 232.358 437.525 230.838L436.537 231.655ZM454.093 228.653V229.85H460.401V228.653H454.093ZM456.411 232.016V233.213H459.299V232.016H456.411ZM458.805 232.016V232.263C458.615 237.317 458.425 239.103 458.102 239.521C457.969 239.711 457.836 239.749 457.608 239.749C457.38 239.749 456.886 239.749 456.316 239.692C456.506 240.015 456.62 240.528 456.658 240.889C457.228 240.908 457.817 240.908 458.159 240.87C458.596 240.813 458.9 240.699 459.166 240.338C459.641 239.73 459.831 237.925 460.021 232.605C460.021 232.415 460.04 232.016 460.04 232.016H458.805ZM461.313 228.197V229.413H466.842V228.197H461.313ZM460.439 234.885V236.044H466.842V234.885H460.439ZM461.18 231.009V232.13H465.626V231.009H461.18ZM461.902 225.993C461.465 227.893 460.705 229.755 459.717 231.009C460.002 231.199 460.515 231.579 460.743 231.788C461.731 230.439 462.605 228.368 463.118 226.297L461.902 225.993ZM463.023 233.574V239.426C463.023 239.616 462.966 239.673 462.738 239.673C462.529 239.673 461.807 239.673 461.009 239.654C461.18 240.015 461.389 240.509 461.427 240.87C462.51 240.87 463.232 240.851 463.669 240.642C464.163 240.433 464.258 240.072 464.258 239.445V233.574H463.023ZM465.227 231.009V231.256C464.771 231.978 463.84 232.966 463.023 233.574C463.232 233.745 463.574 234.087 463.726 234.334C464.695 233.631 465.797 232.548 466.557 231.541L465.759 230.933L465.531 231.009H465.227ZM455.746 229.204V231.94C455.746 234.239 455.537 237.412 453.77 239.787C454.055 239.958 454.473 240.338 454.682 240.585C456.658 238.02 456.924 234.524 456.924 231.959V229.204H455.746ZM456.145 226.335C456.506 227.152 456.924 228.235 457.114 228.938L458.406 228.596C458.216 227.931 457.779 226.886 457.38 226.069L456.145 226.335ZM450.141 226.658C450.901 227.608 451.832 228.938 452.269 229.736L453.409 229.033C452.972 228.254 452.022 227.019 451.243 226.088L450.141 226.658ZM449.514 230.439V231.636H453.618V230.439H449.514ZM452.896 239.16L451.946 239.597C453.39 242.732 455.879 243.226 460.344 243.226C462.434 243.226 464.828 243.188 466.633 243.074C466.709 242.694 466.88 242.048 467.089 241.744C465.132 241.915 462.358 241.991 460.344 241.991C456.544 241.991 454.074 241.649 452.896 239.16ZM452.82 235.189V235.436C452.345 238.856 451.034 241.288 449.191 242.58C449.476 242.789 449.951 243.283 450.141 243.568C452.098 242.105 453.523 239.407 454.112 235.417L453.466 235.151L453.238 235.189H452.82ZM449.837 236.614C449.989 236.462 450.483 236.348 450.958 236.348H453.523V235.189H450.521L449.837 235.531V236.614ZM449.837 236.614C449.837 236.253 450.92 235.721 450.92 235.721C451.965 234.505 453.637 232.035 454.492 230.762L453.542 230.344L453.124 230.515V230.572C452.516 231.579 450.768 234.163 450.198 234.752C449.894 235.113 449.59 235.246 449.305 235.322C449.457 235.607 449.742 236.272 449.837 236.614ZM480.237 231.921C478.641 231.921 477.33 233.213 477.33 234.809C477.33 236.424 478.641 237.716 480.237 237.716C481.833 237.716 483.125 236.424 483.125 234.809C483.125 233.213 481.833 231.921 480.237 231.921ZM480.237 236.747C479.173 236.747 478.299 235.892 478.299 234.809C478.299 233.764 479.173 232.89 480.237 232.89C481.301 232.89 482.156 233.764 482.156 234.809C482.156 235.892 481.301 236.747 480.237 236.747Z" fill="black"/>
<path d="M133.42 2.54004V40.92H129.6V38.71H102.38V41.05H98.56V2.54004H133.42ZM129.6 4.49004H102.38V36.75H129.6V4.50004V4.49004ZM104.29 33.11L103.03 29.59C107.68 28.81 113.1 27.25 116.49 25.99L117.05 27.38C113.84 29.42 108.41 31.85 104.29 33.11ZM116.4 12.96H103.2V11.01H116.27C116.18 9.27004 116.14 7.45004 116.14 5.54004H119.61C119.61 7.32004 119.61 9.14004 119.7 11.01H123.87C123.04 9.32004 121.87 7.19004 121.09 5.89004L122.3 4.98004C123.73 6.02004 125.9 8.19004 126.99 9.71004L125.12 11.01H128.81V12.96H119.78C120 16.48 120.34 19.95 121 22.9C121.96 20.69 122.74 18.12 123.52 15L126.86 16.22C125.47 20.65 124.04 24.08 122.21 26.86C122.91 28.47 123.73 29.73 124.77 30.42C125.81 31.11 125.9 28.81 125.9 24.43H127.46C129.54 31.2 128.46 37.28 123.77 34.24C122.21 33.24 120.95 31.72 119.95 29.77C117.69 32.16 114.91 33.98 111.14 35.72L110.4 34.37C114.18 32.07 116.78 29.9 118.73 27.03C117.47 23.43 116.73 18.7 116.39 12.96H116.4ZM104.55 25.38V15.91H115.01V25.37H104.55V25.38ZM107.76 23.56H111.8V17.74H107.76V23.56Z" fill="#D08421"/>
<path d="M181.99 35.3602L180.69 39.6102C176.05 39.9102 168.71 40.0402 163.46 39.8302C154.56 39.4802 152.09 36.6602 150.26 33.2802C148.83 36.3602 147.18 39.1402 145.22 41.3502L142.4 38.7002C144.35 37.1802 146.57 34.7502 148.04 32.6702V22.8602H142.79V20.9102H151.95V32.5902C154.34 36.1502 159.81 36.3202 163.67 36.3202C169.31 36.3202 177 36.0202 181.99 35.3602ZM149.17 17.8702C147.69 15.8702 145.18 13.0102 143.14 10.9202L143.97 9.57023C146.4 10.7402 149.57 12.6502 151.96 14.7802L149.18 17.8602L149.17 17.8702ZM144.57 2.24023L145.35 0.980234C147.74 1.94023 151.04 3.80023 153.34 5.80023L150.6 8.88023C148.99 6.80023 146.82 4.41023 144.57 2.24023ZM164.89 9.53023H153.69V7.62023H161.72C160.55 5.45023 159.12 3.06023 157.99 1.37023L159.08 0.240234C161.38 1.76023 164.16 4.28023 165.55 6.06023L163.42 7.62023H169.84C170.71 5.58023 171.49 2.76023 171.97 0.240234L176.27 1.54023C175.05 3.67023 173.32 6.01023 171.71 7.62023H180.61V9.53023H169.11C168.29 10.9602 167.2 12.5702 166.2 13.8302H177.62V34.0602H173.8V31.7602H161.17V34.1902H157.35V13.8302H164.12C164.47 12.4802 164.73 10.8802 164.9 9.53023H164.89ZM173.79 15.7802H161.16V18.9902H173.79V15.7802ZM173.79 20.8602H161.16V24.3802H173.79V20.8602ZM173.79 26.2402H161.16V29.8002H173.79V26.2402Z" fill="#D08421"/>
<path d="M226.13 17.6099V20.4299H189.97V17.6099H226.13Z" fill="#D08421"/>
<path d="M247.53 37.4501C246.53 41.1001 242.75 42.4001 237.68 37.1501L238.46 35.8501C243.19 38.1101 243.97 37.4601 244.41 35.8101C244.8 34.3301 245.37 30.6401 245.76 26.2601H241.16C240.81 27.4701 240.42 28.6001 240.12 29.5201L236.65 28.9601C237.52 26.6601 238.78 22.5401 239.43 19.7601H235V17.8101H250.58V19.7601H242.98C242.63 21.1501 242.2 22.7601 241.72 24.3201H249.36C248.84 30.9201 248.4 34.3501 247.54 37.4701L247.53 37.4501ZM249.05 14.6201H236.72V3.37014H249.05V14.6101V14.6201ZM245.66 5.33014H240.1V12.4501H245.66V5.32014V5.33014ZM254.86 20.0001C254.86 31.4601 252.65 36.8901 248 41.6601L246.83 40.6201C251.13 34.7201 251.21 27.6801 251.21 18.8301V8.79014L254.86 9.57014H258.68V0.890137H262.41V4.49014H271.22V6.44014H262.41V9.57014H268.71L269.84 9.01014L272.97 11.0101C271.62 12.9201 270.02 14.6101 268.46 15.5201L267.42 14.6901C267.94 13.7801 268.51 12.3901 268.81 11.4801H254.87V17.6001L258.69 17.2101V12.3001H262.08V16.8101C264.55 16.5101 266.99 16.1601 269.42 15.7701L269.9 17.5901C267.38 17.9801 264.73 18.3301 262.09 18.6301V19.0601C262.09 20.4901 262.48 20.9301 264.7 20.9301C267.17 20.9301 268.35 20.4501 269.39 19.3201L271 21.7901C269.87 23.1401 267.7 23.8701 264.88 23.8701C259.89 23.8701 258.72 23.1801 258.72 19.7501V19.0101C257.42 19.1801 256.16 19.3101 254.9 19.4401V19.9601L254.86 20.0001ZM260.46 25.2501C260.59 35.1501 257.94 38.8801 251.82 41.7501L251.04 40.4501C255.64 37.1901 256.99 33.9401 256.9 25.2601H260.46V25.2501ZM269.19 40.1001C264.54 40.1001 263.2 39.4501 263.2 35.8001V25.3801H266.59V34.8001C266.59 36.5401 267.11 36.8401 269.24 36.8401C270.93 36.8401 271.32 35.9301 271.28 30.8501H272.8C274.23 36.8401 274.8 40.1001 269.2 40.1001H269.19Z" fill="#D08421"/>
<path d="M286.42 31.79C287.83 32.67 291.1 34.07 294.6 34.07C300.97 34.07 302.97 30.02 302.94 26.93C302.88 21.75 298.21 19.56 293.41 19.55H290.62V15.81H293.41C297.03 15.81 301.62 13.94 301.62 9.59C301.62 6.63 299.74 4.03 295.14 4.03C292.21 4.03 289.37 5.32 287.79 6.46L286.45 2.85C288.39 1.42 292.13 0 296.09 0C303.38 0 306.68 4.29 306.68 8.8C306.68 12.61 304.36 15.84 299.88 17.48V17.59C304.41 18.45 308.07 21.89 308.07 27.04C308.07 32.92 303.45 38.09 294.63 38.09C290.49 38.09 286.88 36.81 285.09 35.57L286.42 31.77V31.79Z" fill="#D08421"/>
<path d="M360.42 17.43L357.47 22.34C355.34 21.26 353.48 19.91 351.91 18.26C351.26 29.37 350.78 34.02 350.09 36.71C349.13 40.4 344.88 42.31 336.72 37.06L337.24 35.58C344.49 37.62 345.79 37.06 346.36 34.41C346.84 32.2 347.23 28.24 347.53 20.56H338.67C337.84 27.2 335.15 37.4 322.52 41.61L321.83 40.13C331.95 34.96 333.77 26.24 334.51 20.55H327.04V19.16C325.48 20.55 323.65 21.85 321.48 23.07L320.61 21.77C327.17 16.39 329.9 10.66 331.9 3.18996L336.2 4.74996C334.72 8.99996 332.64 13.82 328.17 18.16H351.83C348.7 14.9 346.62 10.48 345.67 4.82996H337.94V2.45996H347.32C348.49 8.92996 351.7 14.09 360.43 17.44L360.42 17.43Z" fill="#D08421"/>
<path d="M381.94 33.97C379.21 35.84 372.22 38.62 367.96 39.74L366.7 35.44C368.35 35.27 370.52 35.01 372.73 34.61V21.07H367.13V19.12H372.73V14.3H369.21V14.17L367.56 15.56L366.74 14.56C370.26 10.26 372.25 6.05 373.51 0.49L377.55 1.84L376.9 3.32C378.9 4.75 381.33 6.92 382.93 9.01L379.89 11.35C378.85 9.01 377.42 6.57 376.2 4.84C374.72 7.79 373.12 10.18 371.08 12.35H380.28V14.3H376.37V19.12H381.67V21.07H376.37V33.96C378.32 33.53 380.15 33.09 381.49 32.61L381.92 33.96L381.94 33.97ZM371.91 31.5L368.48 32.06C368.48 29.33 368.22 26.33 367.74 23.47L369.09 23.08C370.48 25.86 371.48 28.77 371.91 31.5ZM378.9 22.77L382.2 23.68C381.46 26.11 380.16 29.24 378.42 31.71L377.12 31.23C377.99 28.45 378.64 25.2 378.9 22.76V22.77ZM395.44 37.7H405.47V39.65H381.33V37.7H391.79V34.49H383.41V32.54H391.79V29.54H383.98V18.21H403.25V29.54H395.44V32.54H403.95V34.49H395.44V37.7ZM405.47 13.87V15.82H382.24V13.87H388.66C388.1 11.87 387.36 9.75 386.58 7.84L387.36 7.32H383.11V5.37H393.36C391.84 3.98 390.28 2.72 388.45 1.51L388.93 0.25C391.01 0.68 393.84 1.64 396.35 3.07L394.83 5.37H404.25V7.32H398.17L400.56 8.1C399.56 10.14 398.22 12.27 396.91 13.87H405.46H405.47ZM391.8 20.16H387.55V22.81H391.8V20.16ZM391.8 24.76H387.55V27.58H391.8V24.76ZM392.23 12.95L390.28 13.86H395.01C395.88 11.6 396.49 9.22 396.79 7.31H388.02C389.67 8.96 391.06 10.83 392.23 12.95ZM395.53 22.8H399.7V20.15H395.53V22.8ZM395.53 27.58H399.7V24.76H395.53V27.58Z" fill="#D08421"/>
<path d="M103.76 77.1V77.24H102.23L102.2 77.1C101.93 75.78 101.12 74.95 99.65 74.95C97.84 74.95 96.69 76.51 96.69 78.82C96.69 81.24 97.85 82.75 99.58 82.75C101.05 82.75 101.86 81.88 102.13 80.57L102.16 80.43H103.71V80.57C103.5 82.48 102.07 83.94 99.51 83.94C96.72 83.94 95 81.87 95 78.9C95 75.93 96.93 73.77 99.68 73.77C102.23 73.77 103.56 75.19 103.76 77.12V77.1Z" fill="#969696"/>
<path d="M114.65 79.9698C114.65 82.1698 113.36 83.9398 110.84 83.9398C108.32 83.9398 107.03 82.1698 107.03 79.9698C107.03 77.7698 108.31 76.0098 110.84 76.0098C113.37 76.0098 114.65 77.7698 114.65 79.9698ZM112.99 79.9698C112.99 78.2698 112.2 77.1498 110.84 77.1498C109.48 77.1498 108.67 78.2698 108.67 79.9698C108.67 81.6698 109.46 82.8098 110.84 82.8098C112.22 82.8098 112.99 81.6798 112.99 79.9698Z" fill="#969696"/>
<path d="M124.98 79.4998V83.7398H123.42V79.6698C123.42 79.3098 123.42 78.9898 123.39 78.6098C123.32 77.7598 122.87 77.1598 121.8 77.1598C120.73 77.1598 119.84 78.0098 119.84 80.3598V83.7398H118.28V76.2098H119.84V77.4598L120.35 76.5898C120.94 76.1398 121.5 76.0098 122.25 76.0098C123.87 76.0098 124.79 76.8498 124.93 78.1598C124.96 78.5398 124.97 78.8798 124.97 79.4898L124.98 79.4998Z" fill="#969696"/>
<path d="M132.87 83.74H131.06L128.18 76.21H129.9L132.01 82.59L134.09 76.21H135.75L132.87 83.74Z" fill="#969696"/>
<path d="M145.3 80.4098H139.9C140.03 82.2098 140.85 82.8098 141.87 82.8098C142.78 82.8098 143.49 82.2598 143.64 81.3098H145.21C144.88 83.0998 143.45 83.9498 141.81 83.9498C139.8 83.9498 138.28 82.6698 138.28 80.0098C138.28 77.6298 139.8 76.0298 141.97 76.0298C144.14 76.0298 145.33 77.6698 145.33 79.7998C145.33 79.9398 145.33 80.1498 145.3 80.4198V80.4098ZM139.91 79.3198H143.72C143.61 77.9298 143 77.1498 141.91 77.1498C140.82 77.1498 140.08 77.8698 139.91 79.3198Z" fill="#969696"/>
<path d="M155.78 79.4998V83.7398H154.22V79.6698C154.22 79.3098 154.22 78.9898 154.19 78.6098C154.12 77.7598 153.67 77.1598 152.6 77.1598C151.53 77.1598 150.64 78.0098 150.64 80.3598V83.7398H149.08V76.2098H150.64V77.4598L151.15 76.5898C151.75 76.1398 152.3 76.0098 153.05 76.0098C154.67 76.0098 155.59 76.8498 155.73 78.1598C155.76 78.5398 155.77 78.8798 155.77 79.4898L155.78 79.4998Z" fill="#969696"/>
<path d="M161.64 74.4798C161.64 75.0098 161.24 75.3898 160.72 75.3898C160.2 75.3898 159.81 75.0098 159.81 74.4798C159.81 73.9498 160.19 73.5898 160.72 73.5898C161.25 73.5898 161.64 73.9698 161.64 74.4798ZM159.94 83.7398V76.2098H161.5V83.7398H159.94Z" fill="#969696"/>
<path d="M172.22 80.4098H166.82C166.95 82.2098 167.77 82.8098 168.79 82.8098C169.7 82.8098 170.41 82.2598 170.56 81.3098H172.13C171.8 83.0998 170.37 83.9498 168.73 83.9498C166.72 83.9498 165.2 82.6698 165.2 80.0098C165.2 77.6298 166.72 76.0298 168.89 76.0298C171.06 76.0298 172.25 77.6698 172.25 79.7998C172.25 79.9398 172.25 80.1498 172.22 80.4198V80.4098ZM166.83 79.3198H170.64C170.53 77.9298 169.92 77.1498 168.83 77.1498C167.74 77.1498 167 77.8698 166.83 79.3198Z" fill="#969696"/>
<path d="M182.69 79.4998V83.7398H181.13V79.6698C181.13 79.3098 181.13 78.9898 181.1 78.6098C181.03 77.7598 180.58 77.1598 179.51 77.1598C178.44 77.1598 177.55 78.0098 177.55 80.3598V83.7398H175.99V76.2098H177.55V77.4598L178.06 76.5898C178.65 76.1398 179.21 76.0098 179.96 76.0098C181.58 76.0098 182.5 76.8498 182.64 78.1598C182.67 78.5398 182.68 78.8798 182.68 79.4898L182.69 79.4998Z" fill="#969696"/>
<path d="M188.71 81.3C188.71 81.56 188.71 81.73 188.72 81.92C188.78 82.66 189.06 82.81 190.08 82.71V83.79C189.68 83.85 189.31 83.87 188.93 83.87C187.75 83.87 187.24 83.43 187.17 82.44C187.16 82.19 187.16 81.86 187.16 81.43V77.35H186.1V76.26H187.16V74.46H188.7V76.26H190.17V77.35H188.7V81.29L188.71 81.3Z" fill="#969696"/>
<path d="M203.45 75.19V83.74H201.91V75.19H198.49V73.96H206.87V75.19H203.45Z" fill="#969696"/>
<path d="M213.19 76.11V77.33C211.76 77.23 210.86 77.97 210.86 79.83V83.74H209.3V76.21H210.86V77.49L211.5 76.45C211.84 76.18 212.28 76.02 212.66 76.02C212.87 76.02 213.03 76.05 213.18 76.11H213.19Z" fill="#969696"/>
<path d="M220.77 82.65L220.39 83.46C219.88 83.81 219.23 83.94 218.52 83.94C217.19 83.94 216.1 83.17 216.1 81.77C216.1 80.1 217.43 79.19 220.28 79.19H220.76V79.01C220.76 78.72 220.76 78.47 220.73 78.19C220.69 77.58 220.3 77.15 219.41 77.15C218.52 77.15 218.03 77.66 217.95 78.6H216.39C216.49 76.96 217.72 76.02 219.44 76.02C221.38 76.02 222.15 76.84 222.28 78.12C222.31 78.43 222.32 78.83 222.32 79.18V81.83C222.32 82.4 222.35 82.91 222.46 83.74H220.92L220.78 82.65H220.77ZM220.76 80.92V80.23C218.93 80.09 217.74 80.5 217.74 81.65C217.74 82.44 218.26 82.81 219.09 82.81C220.07 82.81 220.76 82.14 220.76 80.92Z" fill="#969696"/>
<path d="M233.26 79.4998V83.7398H231.7V79.6698C231.7 79.3098 231.7 78.9898 231.67 78.6098C231.6 77.7598 231.15 77.1598 230.08 77.1598C229.01 77.1598 228.12 78.0098 228.12 80.3598V83.7398H226.56V76.2098H228.12V77.4598L228.63 76.5898C229.22 76.1398 229.78 76.0098 230.53 76.0098C232.15 76.0098 233.07 76.8498 233.21 78.1598C233.24 78.5398 233.25 78.8798 233.25 79.4898L233.26 79.4998Z" fill="#969696"/>
<path d="M242.71 78.3698H241.12C240.96 77.5798 240.5 77.1098 239.73 77.1098C238.96 77.1098 238.64 77.5198 238.64 78.0898C238.64 78.7698 239.19 79.0498 240.31 79.3498C241.95 79.7798 242.82 80.4298 242.82 81.7598C242.82 83.2198 241.53 83.9398 239.89 83.9398C238.25 83.9398 236.98 83.1898 236.77 81.4898H238.34C238.52 82.4498 239.16 82.8398 239.94 82.8398C240.66 82.8398 241.24 82.5298 241.24 81.8798C241.24 81.2298 240.73 80.8698 239.45 80.5298C238.07 80.1798 237.05 79.5898 237.05 78.2798C237.05 76.8798 238.16 76.0298 239.83 76.0298C241.5 76.0298 242.52 77.0098 242.69 78.3798L242.71 78.3698Z" fill="#969696"/>
<path d="M253.92 79.84C253.92 82.6 252.22 83.94 250.28 83.94C249.66 83.94 248.88 83.77 248.49 83.47L247.99 82.72V86.52H246.43V76.22H247.99V77.4L248.56 76.59C248.98 76.23 249.77 76.02 250.53 76.02C252.69 76.02 253.92 77.65 253.92 79.85V79.84ZM252.28 79.98C252.28 78.35 251.53 77.15 250.17 77.15C249.01 77.15 248 77.89 248 79.9V80.28C248 82.12 249.11 82.8 250.1 82.8C251.35 82.8 252.28 81.85 252.28 79.98Z" fill="#969696"/>
<path d="M264.64 79.9698C264.64 82.1698 263.35 83.9398 260.83 83.9398C258.31 83.9398 257.02 82.1698 257.02 79.9698C257.02 77.7698 258.3 76.0098 260.83 76.0098C263.36 76.0098 264.64 77.7698 264.64 79.9698ZM262.98 79.9698C262.98 78.2698 262.19 77.1498 260.82 77.1498C259.45 77.1498 258.65 78.2698 258.65 79.9698C258.65 81.6698 259.44 82.8098 260.82 82.8098C262.2 82.8098 262.98 81.6798 262.98 79.9698Z" fill="#969696"/>
<path d="M272.16 76.11V77.33C270.73 77.23 269.84 77.97 269.84 79.83V83.74H268.28V76.21H269.84V77.49L270.48 76.45C270.82 76.18 271.26 76.02 271.64 76.02C271.85 76.02 272.01 76.05 272.16 76.11Z" fill="#969696"/>
<path d="M277.41 81.3C277.41 81.56 277.41 81.73 277.42 81.92C277.48 82.66 277.76 82.81 278.78 82.71V83.79C278.38 83.85 278.01 83.87 277.63 83.87C276.45 83.87 275.94 83.43 275.87 82.44C275.86 82.19 275.86 81.86 275.86 81.43V77.35H274.8V76.26H275.86V74.46H277.4V76.26H278.87V77.35H277.4V81.29L277.41 81.3Z" fill="#969696"/>
<path d="M286.76 82.65L286.38 83.46C285.87 83.81 285.22 83.94 284.51 83.94C283.18 83.94 282.09 83.17 282.09 81.77C282.09 80.1 283.42 79.19 286.27 79.19H286.75V79.01C286.75 78.72 286.75 78.47 286.72 78.19C286.68 77.58 286.3 77.15 285.4 77.15C284.5 77.15 284.02 77.66 283.94 78.6H282.38C282.48 76.96 283.71 76.02 285.43 76.02C287.37 76.02 288.14 76.84 288.27 78.12C288.3 78.43 288.31 78.83 288.31 79.18V81.83C288.31 82.4 288.34 82.91 288.45 83.74H286.91L286.77 82.65H286.76ZM286.75 80.92V80.23C284.92 80.09 283.73 80.5 283.73 81.65C283.73 82.44 284.25 82.81 285.08 82.81C286.06 82.81 286.75 82.14 286.75 80.92Z" fill="#969696"/>
<path d="M294.42 81.3C294.42 81.56 294.42 81.73 294.43 81.92C294.49 82.66 294.77 82.81 295.79 82.71V83.79C295.39 83.85 295.02 83.87 294.64 83.87C293.46 83.87 292.95 83.43 292.88 82.44C292.87 82.19 292.87 81.86 292.87 81.43V77.35H291.81V76.26H292.87V74.46H294.41V76.26H295.88V77.35H294.41V81.29L294.42 81.3Z" fill="#969696"/>
<path d="M301.28 74.4798C301.28 75.0098 300.88 75.3898 300.36 75.3898C299.84 75.3898 299.45 75.0098 299.45 74.4798C299.45 73.9498 299.83 73.5898 300.36 73.5898C300.89 73.5898 301.28 73.9698 301.28 74.4798ZM299.58 83.7398V76.2098H301.14V83.7398H299.58Z" fill="#969696"/>
<path d="M312.46 79.9698C312.46 82.1698 311.17 83.9398 308.65 83.9398C306.13 83.9398 304.84 82.1698 304.84 79.9698C304.84 77.7698 306.12 76.0098 308.65 76.0098C311.18 76.0098 312.46 77.7698 312.46 79.9698ZM310.8 79.9698C310.8 78.2698 310.01 77.1498 308.65 77.1498C307.29 77.1498 306.48 78.2698 306.48 79.9698C306.48 81.6698 307.27 82.8098 308.65 82.8098C310.03 82.8098 310.8 81.6798 310.8 79.9698Z" fill="#969696"/>
<path d="M322.79 79.4998V83.7398H321.23V79.6698C321.23 79.3098 321.23 78.9898 321.2 78.6098C321.13 77.7598 320.68 77.1598 319.61 77.1598C318.54 77.1598 317.65 78.0098 317.65 80.3598V83.7398H316.09V76.2098H317.65V77.4598L318.16 76.5898C318.75 76.1398 319.31 76.0098 320.06 76.0098C321.68 76.0098 322.6 76.8498 322.74 78.1598C322.77 78.5398 322.78 78.8798 322.78 79.4898L322.79 79.4998Z" fill="#969696"/>
<line x1="1" y1="3.02002" x2="0.999989" y2="255.02" stroke="#D68F41" stroke-width="2"/>
</svg>
