<svg width="295" height="165" viewBox="0 0 295 165" fill="none" xmlns="http://www.w3.org/2000/svg">
<path d="M76.5 1.47021V26.2402H74.04V24.8102H56.47V26.3202H54V1.47021H76.5ZM74.04 2.73021H56.47V23.5502H74.03V2.74021L74.04 2.73021ZM57.7 21.2002L56.89 18.9302C59.89 18.4302 63.39 17.4202 65.57 16.6002L65.93 17.5002C63.86 18.8202 60.35 20.3902 57.69 21.2002H57.7ZM65.52 8.20021H57V6.94021H65.43C65.37 5.82021 65.35 4.64021 65.35 3.41021H67.59C67.59 4.56021 67.59 5.74021 67.65 6.94021H70.34C69.81 5.85021 69.05 4.47021 68.55 3.63021L69.33 3.04021C70.25 3.71021 71.66 5.11021 72.36 6.09021L71.15 6.93021H73.53V8.19021H67.7C67.84 10.4602 68.06 12.7002 68.48 14.6102C69.1 13.1802 69.6 11.5302 70.1 9.51022L72.26 10.2902C71.36 13.1502 70.44 15.3602 69.26 17.1502C69.71 18.1902 70.24 19.0002 70.91 19.4502C71.58 19.9002 71.64 18.4102 71.64 15.5802H72.65C73.99 19.9502 73.29 23.8702 70.27 21.9102C69.26 21.2702 68.45 20.2902 67.8 19.0202C66.34 20.5602 64.55 21.7402 62.11 22.8602L61.63 21.9902C64.07 20.5102 65.75 19.1002 67.01 17.2602C66.2 14.9302 65.72 11.8802 65.5 8.18021L65.52 8.20021ZM57.87 16.2102V10.1002H64.62V16.2102H57.87ZM59.94 15.0302H62.55V11.2802H59.94V15.0302Z" fill="#D68F41"/>
<path d="M106.72 22.65L105.88 25.4C102.88 25.6 98.1499 25.68 94.7599 25.54C89.0199 25.32 87.4199 23.5 86.2399 21.31C85.3199 23.3 84.2499 25.09 82.9899 26.52L81.1699 24.81C82.4299 23.83 83.8599 22.26 84.8099 20.92V14.59H81.4199V13.33H87.3299V20.87C88.8699 23.17 92.3999 23.28 94.8899 23.28C98.5299 23.28 103.49 23.08 106.71 22.66L106.72 22.65ZM85.5399 11.36C84.5899 10.07 82.9599 8.22 81.6499 6.88L82.1799 6.01C83.7499 6.77 85.7899 8 87.3299 9.37L85.5399 11.36ZM82.5699 1.28L83.0699 0.47C84.6099 1.09 86.7399 2.29 88.2199 3.58L86.4599 5.57C85.4199 4.23 84.0199 2.68 82.5699 1.28ZM95.6799 5.99H88.4499V4.76H93.6299C92.8699 3.36 91.9499 1.82 91.2199 0.73L91.9199 0C93.3999 0.98 95.1999 2.61 96.0899 3.75L94.7199 4.76H98.8699C99.4299 3.44 99.9299 1.62 100.24 0L103.01 0.84C102.23 2.21 101.1 3.73 100.07 4.76H105.81V5.99H98.3899C97.8599 6.91 97.1599 7.95 96.5099 8.76H103.88V21.81H101.41V20.33H93.2599V21.9H90.7999V8.76H95.1699C95.3899 7.89 95.5599 6.85 95.6699 5.99H95.6799ZM101.42 10.02H93.2699V12.09H101.42V10.02ZM101.42 13.3H93.2699V15.57H101.42V13.3ZM101.42 16.77H93.2699V19.07H101.42V16.77Z" fill="#D68F41"/>
<path d="M134.08 11.2002V13.0202H110.74V11.2002H134.08Z" fill="#D68F41"/>
<path d="M146.77 24.0002C146.13 26.3502 143.69 27.1902 140.41 23.8002L140.91 22.9602C143.96 24.4202 144.47 24.0002 144.75 22.9302C145 21.9802 145.37 19.6002 145.62 16.7702H142.65C142.43 17.5502 142.17 18.2802 141.98 18.8702L139.74 18.5102C140.3 17.0302 141.11 14.3602 141.53 12.5702H138.67V11.3102H148.73V12.5702H143.83C143.61 13.4702 143.33 14.5002 143.02 15.5102H147.95C147.61 19.7702 147.33 21.9802 146.77 24.0002ZM147.75 9.26016H139.79V2.01016H147.75V9.27016V9.26016ZM145.56 3.26016H141.97V7.86016H145.56V3.27016V3.26016ZM151.5 12.7302C151.5 20.1302 150.07 23.6302 147.07 26.7102L146.31 26.0402C149.08 22.2302 149.14 17.6902 149.14 11.9802V5.51016L151.49 6.01016H153.95V0.410156H156.36V2.74016H162.05V4.00016H156.36V6.02016H160.42L161.15 5.66016L163.17 6.95016C162.3 8.18016 161.27 9.28016 160.26 9.86016L159.59 9.33016C159.93 8.74016 160.29 7.85016 160.49 7.26016H151.5V11.2102L153.96 10.9602V7.79016H156.15V10.7002C157.75 10.5002 159.32 10.2802 160.88 10.0302L161.19 11.2102C159.57 11.4602 157.86 11.6902 156.15 11.8802V12.1602C156.15 13.0802 156.4 13.3602 157.83 13.3602C159.43 13.3602 160.18 13.0502 160.86 12.3202L161.9 13.9202C161.17 14.7902 159.77 15.2602 157.95 15.2602C154.73 15.2602 153.97 14.8102 153.97 12.6002V12.1202C153.13 12.2302 152.32 12.3202 151.51 12.4002V12.7402L151.5 12.7302ZM155.11 16.1202C155.2 22.5102 153.49 24.9202 149.54 26.7702L149.04 25.9302C152.01 23.8302 152.88 21.7302 152.82 16.1202H155.12H155.11ZM160.74 25.7002C157.74 25.7002 156.87 25.2802 156.87 22.9302V16.2102H159.05V22.2902C159.05 23.4102 159.39 23.6102 160.76 23.6102C161.85 23.6102 162.1 23.0202 162.08 19.7402H163.06C163.98 23.6102 164.35 25.7102 160.73 25.7102L160.74 25.7002Z" fill="#D68F41"/>
<path d="M173.66 14.19C173.3 14.19 172.87 14.22 172.43 14.27V12.34C175.54 12.12 177.53 10.27 177.72 8.32996C177.89 6.55996 176.57 5.57996 174.44 5.57996C172.31 5.57996 170.94 6.47996 169.79 7.34996V5.04996C170.43 4.73996 172.2 3.95996 174.92 3.95996C179.32 3.95996 180.77 6.75996 180.58 8.46996C180.33 10.77 177.98 12.2 176.13 12.87V13.04C178.62 13.24 181.34 14.97 181.48 17.69C181.7 20.3 179.97 23.71 175.15 24.25C173.36 24.45 171.26 24.31 169.49 23.8L169.32 22.51C171.25 22.85 173.3 22.87 174.5 22.68C178.25 22.04 178.67 19.04 178.53 17.86C178.59 15.53 175.95 14.13 173.66 14.19Z" fill="#D68F41"/>
<path d="M212.57 11.0799L210.66 14.2499C209.29 13.5499 208.08 12.6799 207.07 11.6199C206.65 18.7899 206.34 21.7899 205.89 23.5299C205.27 25.9099 202.53 27.1399 197.26 23.7499L197.6 22.7999C202.28 24.1199 203.12 23.7499 203.48 22.0399C203.79 20.6099 204.04 18.0599 204.24 13.0999H198.52C197.99 17.3899 196.25 23.9699 188.1 26.6899L187.65 25.7399C194.18 22.4099 195.35 16.7799 195.83 13.1099H191.01V12.2099C190 13.1099 188.82 13.9499 187.42 14.7299L186.86 13.8899C191.09 10.4199 192.86 6.71992 194.14 1.89992L196.91 2.90992C195.96 5.65992 194.61 8.76992 191.73 11.5699H207C204.98 9.46992 203.64 6.60992 203.02 2.96992H198.03V1.41992H204.08C204.84 5.58992 206.91 8.92992 212.54 11.0899L212.57 11.0799Z" fill="#D68F41"/>
<path d="M225.34 21.76C223.58 22.96 219.06 24.76 216.32 25.49L215.51 22.72C216.57 22.61 217.97 22.44 219.4 22.19V13.44H215.79V12.18H219.4V9.07H217.13V8.99L216.06 9.89L215.53 9.25C217.8 6.48 219.09 3.76 219.9 0.17L222.51 1.04L222.09 1.99C223.38 2.91 224.95 4.32 225.98 5.66L224.02 7.17C223.35 5.66 222.42 4.09 221.64 2.97C220.69 4.88 219.65 6.42 218.33 7.82H224.27V9.08H221.75V12.19H225.17V13.45H221.75V21.77C223.01 21.49 224.19 21.21 225.06 20.9L225.34 21.77V21.76ZM218.87 20.16L216.66 20.52C216.66 18.76 216.49 16.82 216.18 14.97L217.05 14.72C217.95 16.51 218.59 18.39 218.87 20.15V20.16ZM223.38 14.53L225.51 15.12C225.03 16.69 224.19 18.71 223.07 20.3L222.23 19.99C222.79 18.2 223.21 16.1 223.38 14.53ZM234.05 24.17H240.52V25.43H224.94V24.17H231.69V22.1H226.28V20.84H231.69V18.91H226.65V11.6H239.09V18.91H234.05V20.84H239.54V22.1H234.05V24.17ZM240.52 8.79V10.05H225.53V8.79H229.68C229.32 7.5 228.84 6.13 228.34 4.9L228.84 4.56H226.09V3.3H232.7C231.72 2.4 230.71 1.59 229.53 0.81L229.84 0C231.18 0.28 233.01 0.9 234.63 1.82L233.65 3.3H239.73V4.56H235.81L237.35 5.06C236.71 6.38 235.84 7.75 235 8.79H240.52ZM231.69 12.85H228.94V14.56H231.69V12.85ZM231.69 15.82H228.94V17.64H231.69V15.82ZM231.97 8.2L230.71 8.79H233.76C234.32 7.33 234.71 5.79 234.91 4.56H229.25C230.31 5.62 231.21 6.83 231.97 8.2ZM234.1 14.56H236.79V12.85H234.1V14.56ZM234.1 17.64H236.79V15.82H234.1V17.64Z" fill="#D68F41"/>
<path d="M77.21 46.0899V46.1799H76.21L76.19 46.0899C76.01 45.2299 75.48 44.6799 74.52 44.6799C73.33 44.6799 72.58 45.6999 72.58 47.2199C72.58 48.8099 73.34 49.7899 74.48 49.7899C75.45 49.7899 75.98 49.2199 76.15 48.3599L76.17 48.2699H77.18V48.3599C77.04 49.6099 76.1 50.5699 74.43 50.5699C72.6 50.5699 71.48 49.2099 71.48 47.2599C71.48 45.3099 72.74 43.8999 74.55 43.8999C76.22 43.8999 77.1 44.8299 77.23 46.0899H77.21Z" fill="#969696"/>
<path d="M84.3501 47.9699C84.3501 49.4099 83.5001 50.5699 81.8501 50.5699C80.2001 50.5699 79.3501 49.4099 79.3501 47.9699C79.3501 46.5299 80.1901 45.3799 81.8501 45.3799C83.5101 45.3799 84.3501 46.5299 84.3501 47.9699ZM83.2601 47.9699C83.2601 46.8499 82.7401 46.1199 81.8501 46.1199C80.9601 46.1199 80.4301 46.8499 80.4301 47.9699C80.4301 49.0899 80.9501 49.8299 81.8501 49.8299C82.7501 49.8299 83.2601 49.0899 83.2601 47.9699Z" fill="#969696"/>
<path d="M91.13 47.6601V50.4401H90.11V47.7701C90.11 47.5401 90.11 47.3201 90.09 47.0701C90.04 46.5101 89.75 46.1201 89.05 46.1201C88.35 46.1201 87.77 46.6801 87.77 48.2201V50.4301H86.75V45.5001H87.77V46.3201L88.1 45.7501C88.49 45.4501 88.85 45.3701 89.35 45.3701C90.41 45.3701 91.01 45.9201 91.11 46.7801C91.13 47.0301 91.14 47.2501 91.14 47.6501L91.13 47.6601Z" fill="#969696"/>
<path d="M96.31 50.4403H95.12L93.23 45.5103H94.35L95.73 49.6903L97.1 45.5103H98.19L96.3 50.4403H96.31Z" fill="#969696"/>
<path d="M104.46 48.2601H100.92C101 49.4401 101.54 49.8301 102.21 49.8301C102.8 49.8301 103.27 49.4701 103.37 48.8501H104.4C104.19 50.0201 103.25 50.5801 102.17 50.5801C100.85 50.5801 99.8599 49.7401 99.8599 48.0001C99.8599 46.4401 100.85 45.3901 102.28 45.3901C103.71 45.3901 104.48 46.4701 104.48 47.8601C104.48 47.9501 104.48 48.0901 104.46 48.2701V48.2601ZM100.93 47.5401H103.43C103.36 46.6301 102.96 46.1201 102.24 46.1201C101.52 46.1201 101.04 46.5901 100.93 47.5401Z" fill="#969696"/>
<path d="M111.33 47.6601V50.4401H110.31V47.7701C110.31 47.5401 110.31 47.3201 110.29 47.0701C110.24 46.5101 109.95 46.1201 109.25 46.1201C108.55 46.1201 107.97 46.6801 107.97 48.2201V50.4301H106.95V45.5001H107.97V46.3201L108.31 45.7501C108.7 45.4501 109.06 45.3701 109.56 45.3701C110.62 45.3701 111.22 45.9201 111.32 46.7801C111.34 47.0301 111.35 47.2501 111.35 47.6501L111.33 47.6601Z" fill="#969696"/>
<path d="M115.17 44.38C115.17 44.72 114.91 44.97 114.57 44.97C114.23 44.97 113.98 44.72 113.98 44.38C113.98 44.04 114.23 43.79 114.57 43.79C114.91 43.79 115.17 44.04 115.17 44.38ZM114.06 50.45V45.52H115.08V50.45H114.06Z" fill="#969696"/>
<path d="M122.11 48.2601H118.57C118.65 49.4401 119.19 49.8301 119.86 49.8301C120.45 49.8301 120.92 49.4701 121.02 48.8501H122.05C121.84 50.0201 120.9 50.5801 119.82 50.5801C118.5 50.5801 117.51 49.7401 117.51 48.0001C117.51 46.4401 118.5 45.3901 119.93 45.3901C121.36 45.3901 122.13 46.4701 122.13 47.8601C122.13 47.9501 122.13 48.0901 122.11 48.2701V48.2601ZM118.58 47.5401H121.08C121.01 46.6301 120.61 46.1201 119.89 46.1201C119.17 46.1201 118.69 46.5901 118.58 47.5401Z" fill="#969696"/>
<path d="M128.98 47.6601V50.4401H127.96V47.7701C127.96 47.5401 127.96 47.3201 127.94 47.0701C127.89 46.5101 127.6 46.1201 126.9 46.1201C126.2 46.1201 125.62 46.6801 125.62 48.2201V50.4301H124.6V45.5001H125.62V46.3201L125.95 45.7501C126.34 45.4501 126.7 45.3701 127.2 45.3701C128.26 45.3701 128.86 45.9201 128.96 46.7801C128.98 47.0301 128.99 47.2501 128.99 47.6501L128.98 47.6601Z" fill="#969696"/>
<path d="M132.93 48.8399C132.93 49.0099 132.93 49.1199 132.93 49.2499C132.97 49.7299 133.15 49.8399 133.82 49.7699V50.4799C133.56 50.5199 133.32 50.5399 133.07 50.5399C132.3 50.5399 131.96 50.2499 131.92 49.5999C131.92 49.4299 131.92 49.2199 131.92 48.9399V46.2599H131.22V45.5399H131.92V44.3599H132.93V45.5399H133.9V46.2599H132.93V48.8399Z" fill="#969696"/>
<path d="M142.59 44.8403V50.4403H141.58V44.8403H139.34V44.0303H144.83V44.8403H142.59Z" fill="#969696"/>
<path d="M148.98 45.4401V46.2401C148.04 46.1801 147.46 46.6601 147.46 47.8801V50.4401H146.44V45.5101H147.46V46.3501L147.88 45.6701C148.1 45.4901 148.39 45.3901 148.64 45.3901C148.78 45.3901 148.88 45.4101 148.98 45.4501V45.4401Z" fill="#969696"/>
<path d="M153.95 49.7301L153.7 50.2601C153.37 50.4901 152.94 50.5801 152.47 50.5801C151.6 50.5801 150.88 50.0801 150.88 49.1601C150.88 48.0601 151.75 47.4701 153.62 47.4701H153.94V47.3501C153.94 47.1601 153.94 47.0001 153.92 46.8101C153.89 46.4101 153.64 46.1301 153.06 46.1301C152.48 46.1301 152.16 46.4701 152.1 47.0801H151.08C151.14 46.0001 151.95 45.3901 153.08 45.3901C154.35 45.3901 154.85 45.9301 154.94 46.7701C154.96 46.9701 154.97 47.2301 154.97 47.4701V49.2101C154.97 49.5801 154.99 49.9201 155.06 50.4601H154.05L153.96 49.7401L153.95 49.7301ZM153.95 48.6001V48.1401C152.75 48.0501 151.97 48.3201 151.97 49.0701C151.97 49.5901 152.31 49.8301 152.85 49.8301C153.49 49.8301 153.95 49.3901 153.95 48.5901V48.6001Z" fill="#969696"/>
<path d="M162.14 47.6601V50.4401H161.12V47.7701C161.12 47.5401 161.12 47.3201 161.1 47.0701C161.05 46.5101 160.76 46.1201 160.06 46.1201C159.36 46.1201 158.78 46.6801 158.78 48.2201V50.4301H157.76V45.5001H158.78V46.3201L159.12 45.7501C159.51 45.4501 159.87 45.3701 160.37 45.3701C161.43 45.3701 162.03 45.9201 162.13 46.7801C162.15 47.0301 162.16 47.2501 162.16 47.6501L162.14 47.6601Z" fill="#969696"/>
<path d="M168.34 46.9201H167.3C167.2 46.4001 166.89 46.0901 166.39 46.0901C165.89 46.0901 165.67 46.3601 165.67 46.7301C165.67 47.1801 166.03 47.3601 166.77 47.5601C167.85 47.8401 168.41 48.2701 168.41 49.1401C168.41 50.1001 167.56 50.5701 166.49 50.5701C165.42 50.5701 164.59 50.0801 164.45 48.9601H165.48C165.6 49.5901 166.02 49.8401 166.53 49.8401C167 49.8401 167.39 49.6401 167.39 49.2101C167.39 48.7801 167.06 48.5501 166.22 48.3301C165.32 48.1001 164.65 47.7201 164.65 46.8501C164.65 45.9301 165.37 45.3701 166.47 45.3701C167.57 45.3701 168.24 46.0101 168.35 46.9101L168.34 46.9201Z" fill="#969696"/>
<path d="M175.69 47.8899C175.69 49.6999 174.57 50.5799 173.3 50.5799C172.89 50.5799 172.38 50.4699 172.13 50.2699L171.8 49.7799V52.2699H170.78V45.5099H171.8V46.2799L172.17 45.7499C172.45 45.5199 172.96 45.3799 173.46 45.3799C174.87 45.3799 175.68 46.4499 175.68 47.8899H175.69ZM174.61 47.9799C174.61 46.9099 174.12 46.1199 173.23 46.1199C172.47 46.1199 171.81 46.5999 171.81 47.9199V48.1699C171.81 49.3799 172.54 49.8199 173.19 49.8199C174.01 49.8199 174.62 49.1999 174.62 47.9699L174.61 47.9799Z" fill="#969696"/>
<path d="M182.71 47.9699C182.71 49.4099 181.86 50.5699 180.21 50.5699C178.56 50.5699 177.71 49.4099 177.71 47.9699C177.71 46.5299 178.55 45.3799 180.21 45.3799C181.87 45.3799 182.71 46.5299 182.71 47.9699ZM181.62 47.9699C181.62 46.8499 181.1 46.1199 180.21 46.1199C179.32 46.1199 178.79 46.8499 178.79 47.9699C178.79 49.0899 179.31 49.8299 180.21 49.8299C181.11 49.8299 181.62 49.0899 181.62 47.9699Z" fill="#969696"/>
<path d="M187.65 45.4401V46.2401C186.71 46.1801 186.13 46.6601 186.13 47.8801V50.4401H185.11V45.5101H186.13V46.3501L186.55 45.6701C186.77 45.4901 187.06 45.3901 187.31 45.3901C187.45 45.3901 187.55 45.4101 187.65 45.4501V45.4401Z" fill="#969696"/>
<path d="M191.09 48.8399C191.09 49.0099 191.09 49.1199 191.09 49.2499C191.13 49.7299 191.31 49.8399 191.98 49.7699V50.4799C191.72 50.5199 191.48 50.5399 191.23 50.5399C190.46 50.5399 190.12 50.2499 190.08 49.5999C190.08 49.4299 190.08 49.2199 190.08 48.9399V46.2599H189.38V45.5399H190.08V44.3599H191.09V45.5399H192.06V46.2599H191.09V48.8399Z" fill="#969696"/>
<path d="M197.22 49.7301L196.97 50.2601C196.64 50.4901 196.21 50.5801 195.74 50.5801C194.87 50.5801 194.15 50.0801 194.15 49.1601C194.15 48.0601 195.02 47.4701 196.89 47.4701H197.21V47.3501C197.21 47.1601 197.21 47.0001 197.19 46.8101C197.16 46.4101 196.91 46.1301 196.33 46.1301C195.75 46.1301 195.43 46.4701 195.37 47.0801H194.35C194.41 46.0001 195.22 45.3901 196.35 45.3901C197.62 45.3901 198.12 45.9301 198.21 46.7701C198.23 46.9701 198.24 47.2301 198.24 47.4701V49.2101C198.24 49.5801 198.26 49.9201 198.33 50.4601H197.32L197.23 49.7401L197.22 49.7301ZM197.22 48.6001V48.1401C196.02 48.0501 195.24 48.3201 195.24 49.0701C195.24 49.5901 195.58 49.8301 196.12 49.8301C196.76 49.8301 197.22 49.3901 197.22 48.5901V48.6001Z" fill="#969696"/>
<path d="M202.24 48.8399C202.24 49.0099 202.24 49.1199 202.24 49.2499C202.28 49.7299 202.46 49.8399 203.13 49.7699V50.4799C202.87 50.5199 202.63 50.5399 202.38 50.5399C201.61 50.5399 201.27 50.2499 201.23 49.5999C201.23 49.4299 201.23 49.2199 201.23 48.9399V46.2599H200.53V45.5399H201.23V44.3599H202.24V45.5399H203.21V46.2599H202.24V48.8399Z" fill="#969696"/>
<path d="M206.74 44.38C206.74 44.72 206.48 44.97 206.14 44.97C205.8 44.97 205.55 44.72 205.55 44.38C205.55 44.04 205.8 43.79 206.14 43.79C206.48 43.79 206.74 44.04 206.74 44.38ZM205.63 50.45V45.52H206.65V50.45H205.63Z" fill="#969696"/>
<path d="M214.07 47.9699C214.07 49.4099 213.22 50.5699 211.57 50.5699C209.92 50.5699 209.07 49.4099 209.07 47.9699C209.07 46.5299 209.91 45.3799 211.57 45.3799C213.23 45.3799 214.07 46.5299 214.07 47.9699ZM212.98 47.9699C212.98 46.8499 212.46 46.1199 211.57 46.1199C210.68 46.1199 210.15 46.8499 210.15 47.9699C210.15 49.0899 210.67 49.8299 211.57 49.8299C212.47 49.8299 212.98 49.0899 212.98 47.9699Z" fill="#969696"/>
<path d="M220.85 47.6601V50.4401H219.83V47.7701C219.83 47.5401 219.83 47.3201 219.81 47.0701C219.76 46.5101 219.47 46.1201 218.77 46.1201C218.07 46.1201 217.49 46.6801 217.49 48.2201V50.4301H216.47V45.5001H217.49V46.3201L217.82 45.7501C218.21 45.4501 218.57 45.3701 219.07 45.3701C220.13 45.3701 220.73 45.9201 220.83 46.7801C220.85 47.0301 220.86 47.2501 220.86 47.6501L220.85 47.6601Z" fill="#969696"/>
<path d="M5.484 92.9125V102.764H6.468V92.9125H5.484ZM9.756 98.9005V103.916H10.74V98.9005H9.756ZM1.788 93.9925V98.1325H10.26V93.9925H9.288V97.2565H2.724V93.9925H1.788ZM1.248 98.9005V103.244H10.236V102.344H2.232V98.9005H1.248ZM15.444 95.2885V95.9725H18.78V95.2885H15.444ZM20.964 95.2885V95.9725H24.36V95.2885H20.964ZM23.976 93.4765V102.716C23.976 102.944 23.904 103.004 23.664 103.016C23.424 103.028 22.596 103.04 21.768 102.992C21.9 103.256 22.056 103.676 22.104 103.928C23.196 103.928 23.904 103.916 24.324 103.76C24.732 103.616 24.876 103.328 24.876 102.716V93.4765H23.976ZM15.516 93.4765V94.2325H18.456V97.1245H15.516V97.8805H19.308V93.4765H15.516ZM24.444 93.4765H20.436V97.8925H24.444V97.1365H21.3V94.2325H24.444V93.4765ZM15.012 93.4765V103.94H15.9V93.4765H15.012ZM33.36 93.7885V94.4965H39.216V93.7885H33.36ZM33.228 100.52V101.216H39.36V100.52H33.228ZM35.844 92.9125V99.3805H36.636V92.9125H35.844ZM34.38 96.9925H38.172V97.7245H34.38V96.9925ZM34.38 95.7085H38.172V96.4405H34.38V95.7085ZM33.636 95.1445V98.3005H38.94V95.1445H33.636ZM33.24 99.1165L33.3 99.8125C34.68 99.7765 36.696 99.7405 38.652 99.6805L38.664 99.0205C36.624 99.0685 34.584 99.1045 33.24 99.1165ZM37.056 99.8725V103.052C37.056 103.184 37.02 103.22 36.852 103.232C36.696 103.244 36.144 103.244 35.532 103.22C35.64 103.436 35.76 103.736 35.796 103.964C36.612 103.964 37.128 103.964 37.476 103.844C37.812 103.724 37.896 103.508 37.896 103.064V99.8725H37.056ZM33.936 101.696C34.392 102.116 34.86 102.728 35.064 103.16L35.736 102.728C35.508 102.308 35.028 101.732 34.548 101.324L33.936 101.696ZM37.392 98.5165C37.932 99.0085 38.532 99.7045 38.796 100.172L39.432 99.8005C39.144 99.3445 38.544 98.6845 37.992 98.2045L37.392 98.5165ZM28.452 94.2085V95.0125H33.108V94.2085H28.452ZM28.296 101.048V101.852H33.276V101.048H28.296ZM30.42 92.9125V96.1885H31.248V92.9125H30.42ZM30.504 96.2365V99.7285H30.42V103.964H31.248V99.7285H31.164V96.2365H30.504ZM29.412 98.3005H32.28V99.4045H29.412V98.3005ZM29.412 96.5725H32.28V97.6525H29.412V96.5725ZM28.716 95.9005V100.076H32.976V95.9005H28.716ZM45.852 93.6325V103.94H46.692V94.4365H52.008V103.844H52.872V93.6325H45.852ZM47.184 96.1765V96.8845H51.6V96.1765H47.184ZM46.308 102.416V103.22H52.488V102.416H46.308ZM49.008 94.8205V98.6245H49.74V94.8205H49.008ZM48.384 98.8765H50.412V100.736H48.384V98.8765ZM47.688 98.2045V101.42H51.132V98.2045H47.688ZM44.604 92.9605C44.016 94.7845 43.032 96.5965 41.952 97.7725C42.108 97.9885 42.36 98.4805 42.432 98.6965C43.632 97.3165 44.748 95.2525 45.432 93.2005L44.604 92.9605ZM43.608 95.9005V103.964H44.46V95.0605L44.448 95.0485L43.608 95.9005ZM57.936 101.78V102.392H65.628V101.78H57.936ZM65.424 101.78V101.888C65.256 102.68 65.088 103.076 64.848 103.232C64.716 103.292 64.572 103.304 64.248 103.304C63.876 103.304 62.796 103.292 61.824 103.208C61.956 103.388 62.04 103.652 62.064 103.844C63.012 103.892 63.996 103.904 64.44 103.892C64.932 103.892 65.232 103.868 65.508 103.7C65.82 103.484 66.048 103.04 66.252 102.176C66.288 102.056 66.312 101.78 66.312 101.78H65.424ZM58.44 100.532V101.132H65.58V99.3325H57.444V99.9325H64.728V100.532H58.44ZM58.056 100.532C57.876 101.144 57.636 101.876 57.408 102.392H58.272C58.476 101.9 58.716 101.192 58.92 100.532H58.056ZM60.228 95.0845V95.5645H63.024V95.0845H60.228ZM60.228 96.1165V96.6085H63.024V96.1165H60.228ZM59.868 93.9925V94.5445H63.384V93.9925H59.868ZM60.816 97.6645H62.46V98.3845H60.816V97.6645ZM60.216 97.1605V98.8885H63.072V97.1605H60.216ZM58.788 95.5885C59.088 96.0805 59.4 96.7405 59.544 97.1725L60.084 96.9685C59.94 96.5605 59.604 95.9005 59.304 95.4205L58.788 95.5885ZM56.64 95.4205C56.64 95.2525 57.144 95.0365 57.144 95.0365V95.0245C57.612 94.6285 58.152 93.9565 58.596 93.2485L57.924 93.0325C57.6 93.6805 57.036 94.3285 56.868 94.4845C56.712 94.6525 56.58 94.7485 56.412 94.7725C56.496 94.9405 56.604 95.2645 56.64 95.4205ZM56.64 95.4205C56.796 95.3485 57.084 95.3005 58.716 95.1565C58.728 95.0245 58.752 94.7965 58.776 94.6405L56.976 94.7485L56.64 94.9405V95.4205ZM56.688 97.1125C56.688 96.9565 57.204 96.7645 57.204 96.7645V96.7525C58.008 96.1405 58.848 95.2525 59.616 94.2925L58.968 94.0165C58.356 94.9285 57.432 95.8405 57.144 96.0565C56.892 96.2845 56.676 96.4525 56.472 96.4765C56.544 96.6325 56.64 96.9685 56.688 97.1125ZM56.688 97.1125C56.856 97.0285 57.18 96.9565 59.484 96.6685C59.484 96.5485 59.484 96.3205 59.52 96.1645L57.012 96.4405L56.676 96.6445L56.688 97.1125ZM57.792 97.4245C57.924 97.9045 58.044 98.5525 58.08 98.9725L58.668 98.8405C58.632 98.4325 58.5 97.8085 58.344 97.3165L57.792 97.4245ZM56.856 97.2925C56.748 97.8325 56.592 98.4205 56.352 98.8765C56.508 98.9365 56.772 99.0805 56.88 99.1765C57.108 98.7205 57.336 98.0365 57.456 97.4365L56.856 97.2925ZM58.896 97.2805C59.1 97.6765 59.304 98.2285 59.364 98.5885L59.904 98.3965C59.82 98.0485 59.616 97.5205 59.4 97.1245L58.896 97.2805ZM61.032 93.0805C61.272 93.4525 61.476 93.9445 61.572 94.2805L62.184 94.0525C62.112 93.7405 61.86 93.2485 61.632 92.9005L61.032 93.0805ZM65.832 95.6485C66.132 96.1405 66.432 96.7765 66.54 97.1845L67.092 96.9805C66.972 96.5845 66.66 95.9485 66.348 95.4805L65.832 95.6485ZM63.54 95.4805C63.54 95.3245 64.032 95.1205 64.032 95.1205V95.1085C64.512 94.6765 65.064 94.0045 65.484 93.2965L64.872 93.0685C64.524 93.7285 63.948 94.4005 63.792 94.5685C63.624 94.7365 63.492 94.8325 63.336 94.8565C63.408 95.0125 63.504 95.3365 63.54 95.4805ZM63.54 95.4805C63.708 95.4085 63.996 95.3605 65.724 95.1925C65.724 95.0605 65.748 94.8325 65.772 94.6765L63.888 94.8085L63.54 95.0005V95.4805ZM63.576 97.1605C63.576 96.9925 64.128 96.8005 64.128 96.8005V96.7885C64.98 96.1765 65.856 95.2645 66.66 94.2805L66.036 93.9925C65.352 94.9285 64.392 95.8645 64.092 96.0925C63.804 96.3325 63.576 96.4885 63.372 96.5125C63.456 96.6805 63.54 97.0045 63.576 97.1605ZM63.576 97.1605C63.768 97.0645 64.092 96.9925 66.564 96.6925C66.564 96.5605 66.576 96.3205 66.6 96.1765L63.936 96.4765L63.564 96.6805L63.576 97.1605ZM64.776 97.4365C64.932 97.9285 65.052 98.5525 65.064 98.9725L65.664 98.8405C65.628 98.4325 65.496 97.7965 65.328 97.3285L64.776 97.4365ZM63.828 97.3525C63.744 97.8565 63.612 98.3965 63.384 98.8165C63.54 98.8885 63.804 99.0445 63.924 99.1285C64.128 98.6965 64.32 98.0485 64.44 97.4845L63.828 97.3525ZM65.964 97.3165C66.168 97.7845 66.384 98.3965 66.468 98.8045L67.008 98.6245C66.912 98.2285 66.696 97.6285 66.468 97.1605L65.964 97.3165ZM71.208 95.9125V96.7285H74.964V95.9125H71.208ZM71.196 93.5365V94.3525H74.604V98.3965H71.196V99.2125H75.504V93.5365H71.196ZM70.752 103.58C71.016 103.376 71.448 103.208 74.82 102.02C74.748 101.828 74.64 101.504 74.58 101.252L71.076 102.392L70.68 102.764L70.752 103.58ZM73.368 100.196C73.98 101.192 74.7 102.548 75.012 103.352L75.828 102.908C75.492 102.104 74.76 100.796 74.136 99.8245L73.368 100.196ZM70.752 103.58C70.752 103.22 71.796 102.776 71.796 102.776V93.5365H70.884V101.9C70.884 102.356 70.584 102.572 70.368 102.668C70.524 102.896 70.692 103.328 70.752 103.58ZM79.668 93.6205V100.532C79.668 100.688 79.62 100.736 79.452 100.748C79.284 100.76 78.732 100.76 78.108 100.736C78.24 100.976 78.348 101.348 78.384 101.6C79.248 101.6 79.8 101.588 80.124 101.444C80.46 101.288 80.556 101.024 80.556 100.532V93.6205H79.668ZM76.596 93.6205V103.952H77.496V94.4485H80.16V93.6205H76.596ZM86.04 99.2965V100.088H94.212V99.2965H86.04ZM84.492 94.9645V95.7925H92.34V94.9645H84.492ZM87.876 97.1245V97.9285H93.372V97.1245H87.876ZM93.828 99.2965V99.4405C93.636 101.828 93.408 102.776 93.132 103.052C93.024 103.148 92.904 103.172 92.676 103.172C92.448 103.172 91.872 103.172 91.272 103.1C91.416 103.34 91.512 103.688 91.524 103.94C92.148 103.964 92.748 103.976 93.048 103.952C93.408 103.928 93.636 103.844 93.864 103.616C94.248 103.22 94.476 102.224 94.692 99.6925C94.716 99.5605 94.728 99.2965 94.728 99.2965H93.828ZM91.164 100.736C91.524 101.24 91.896 101.936 92.052 102.368L92.712 102.092C92.556 101.66 92.184 100.988 91.8 100.496L91.164 100.736ZM85.98 93.2605C86.448 93.7645 86.952 94.4725 87.156 94.9405L87.996 94.5565C87.756 94.1005 87.228 93.4165 86.76 92.9365L85.98 93.2605ZM87.612 101.036C87.816 101.816 87.948 102.8 87.924 103.448L88.716 103.34C88.716 102.692 88.584 101.696 88.344 100.94L87.612 101.036ZM89.376 100.928C89.676 101.588 89.964 102.464 90.048 103.04L90.792 102.836C90.696 102.272 90.396 101.42 90.084 100.76L89.376 100.928ZM86.076 100.76C85.836 101.684 85.38 102.752 84.708 103.388L85.404 103.88C86.136 103.148 86.556 102.008 86.832 101.012L86.076 100.76ZM89.616 92.9005C88.704 96.0085 86.856 99.0805 83.88 100.772C84.036 100.964 84.264 101.324 84.372 101.54C87.552 99.6565 89.436 96.4885 90.528 93.1285L89.616 92.9005ZM92.136 94.9645C92.004 95.7325 91.8 96.6925 91.632 97.3285L92.424 97.4365C92.604 96.7885 92.82 95.7925 92.988 94.9645H92.136ZM93.036 97.1245C92.916 97.8925 92.712 98.8645 92.532 99.5125L93.348 99.6085C93.516 98.9605 93.72 97.9525 93.888 97.1245H93.036ZM102.096 94.9405V95.8885H108.336V94.9405H102.096ZM101.4 102.128V103.076H108.864V102.128H101.4ZM99.66 96.1765V103.916H100.56V95.3005L100.548 95.2765L99.66 96.1765ZM100.968 92.9365C100.26 94.8205 99.096 96.6445 97.848 97.8325C98.028 98.0485 98.316 98.5285 98.412 98.7445C99.756 97.3765 101.028 95.2885 101.856 93.2125L100.968 92.9365ZM115.284 93.8965V94.6405H122.82V93.8965H115.284ZM115.164 99.2845V100.028H122.892V99.2845H115.164ZM118.188 100.34C118.488 100.82 118.872 101.492 119.052 101.888L119.748 101.588C119.568 101.216 119.172 100.568 118.848 100.1L118.188 100.34ZM116.94 100.952V102.764C116.94 103.568 117.192 103.784 118.212 103.784C118.428 103.784 119.772 103.784 119.976 103.784C120.792 103.784 121.032 103.484 121.116 102.212C120.888 102.164 120.564 102.056 120.396 101.936C120.36 102.944 120.288 103.076 119.892 103.076C119.604 103.076 118.5 103.076 118.296 103.076C117.828 103.076 117.744 103.016 117.744 102.764V100.952H116.94ZM115.764 100.88C115.548 101.6 115.164 102.548 114.684 103.112L115.392 103.508C115.872 102.884 116.22 101.912 116.472 101.144L115.764 100.88ZM120.984 101.024C121.476 101.768 121.968 102.764 122.172 103.376L122.904 103.052C122.676 102.44 122.148 101.468 121.668 100.748L120.984 101.024ZM120.336 96.1885H121.62V97.8205H120.336V96.1885ZM118.416 96.1885H119.676V97.8205H118.416V96.1885ZM116.532 96.1885H117.744V97.8205H116.532V96.1885ZM115.812 95.5045V98.5045H122.376V95.5045H115.812ZM118.62 92.8645C118.56 93.7045 118.392 94.9285 118.236 95.6845L119.076 95.7565C119.244 95.0485 119.412 93.8965 119.556 92.9125L118.62 92.8645ZM114.492 95.5165C113.796 96.8725 112.716 98.3005 111.696 99.2245C111.864 99.4165 112.14 99.8485 112.236 100.028C113.316 98.9605 114.504 97.3285 115.308 95.8045L114.492 95.5165ZM114.276 92.9125C113.712 93.7645 112.644 94.8565 111.768 95.5525C111.912 95.7325 112.128 96.0805 112.224 96.2725C113.196 95.4685 114.336 94.2685 115.092 93.2485L114.276 92.9125ZM113.46 97.7605V103.952H114.312V97.4605L113.88 97.3285L113.46 97.7605ZM128.04 92.9125V96.3685H128.916V92.9125H128.04ZM128.04 99.5365V103.94H128.916V99.5365H128.04ZM127.128 98.3485H129.816V99.2965H127.128V98.3485ZM127.128 96.7285H129.816V97.6645H127.128V96.7285ZM126.312 96.0085V100.016H130.644V96.0085H126.312ZM125.904 94.2565V95.0725H131.016V94.2565H125.904ZM133.368 97.4245V103.94H134.256V97.4245H133.368ZM131.628 97.1965V98.0365H135.924V97.1965H131.628ZM131.124 99.9925V100.832H136.476V99.9925H131.124ZM125.772 100.964V101.78H131.112V100.964H125.772ZM133.68 92.7085C133.056 94.3045 131.808 95.9125 130.524 96.6925C130.704 96.8485 130.98 97.1605 131.112 97.3765C132.468 96.4645 133.74 94.7605 134.448 92.9485L133.68 92.7085ZM134.04 93.6085L133.404 93.8485C134.112 95.1445 135.348 96.6085 136.368 97.3525C136.512 97.1485 136.776 96.8605 136.956 96.7165C135.924 96.0805 134.688 94.7725 134.04 93.6085ZM142.932 94.4965V95.2525H150.564V94.4965H142.932ZM146.208 94.8085C146.112 95.3005 145.908 96.0085 145.728 96.5005L146.484 96.6205C146.712 96.1765 147.012 95.5165 147.228 94.9045L146.208 94.8085ZM148.308 92.9125C148.08 93.4165 147.66 94.1605 147.3 94.6285L148.02 94.8565C148.38 94.4245 148.8 93.7645 149.196 93.1645L148.308 92.9125ZM144.156 93.2365C144.492 93.6565 144.852 94.2325 144.984 94.6045L145.728 94.2565C145.584 93.8965 145.212 93.3325 144.876 92.9365L144.156 93.2365ZM144.768 98.5165H148.656V99.5245H144.768V98.5165ZM144.768 100.16H148.656V101.168H144.768V100.16ZM144.768 96.8845H148.656V97.8805H144.768V96.8845ZM143.916 96.2005V101.864H149.544V96.2005H143.916ZM140.196 93.3205C140.724 93.9085 141.384 94.7485 141.708 95.2525L142.404 94.7605C142.08 94.2685 141.42 93.5005 140.868 92.9245L140.196 93.3205ZM139.764 95.6725V96.4285H142.392V95.6725H139.764ZM141.9 101.18L141.3 101.456C142.2 103.436 143.772 103.772 146.58 103.772C147.9 103.772 149.412 103.736 150.54 103.676C150.588 103.424 150.708 103.004 150.84 102.812C149.616 102.908 147.852 102.968 146.592 102.968C144.204 102.968 142.644 102.752 141.9 101.18ZM142.068 98.6725V98.8285C141.732 101.024 140.808 102.548 139.536 103.352C139.704 103.484 140.004 103.784 140.124 103.976C141.468 103.076 142.464 101.384 142.884 98.8165L142.428 98.6485L142.272 98.6725H142.068ZM139.932 99.5725C140.016 99.4765 140.328 99.4045 140.64 99.4045H142.356L142.368 98.6725H140.364L139.932 98.8885V99.5725ZM139.932 99.5725C139.932 99.3445 140.604 99.0085 140.604 99.0085C141.312 98.2405 142.428 96.7165 143.016 95.9005L142.416 95.6125L142.14 95.7325V95.7685C141.732 96.4045 140.556 98.0245 140.172 98.3965C139.968 98.6365 139.776 98.7085 139.596 98.7565C139.692 98.9485 139.872 99.3685 139.932 99.5725ZM154.272 95.0485V100.76H155.172V95.9365H163.008V100.7H163.944V95.0485H154.272ZM154.752 99.1285V100.004H163.548V99.1285H154.752ZM158.616 92.9005V103.928H159.552V92.9005H158.616ZM172.548 93.0445V102.536H173.496V93.0445H172.548ZM176.82 95.3965V103.904H177.744V95.3965H176.82ZM168.336 95.4085V103.004H177.3V102.092H169.248V95.4085H168.336ZM187.32 102.692V103.484H191.28V102.692H187.32ZM187.908 94.1365V94.9165H191.076V94.1365H187.908ZM186.972 99.5965V103.916H187.8V100.376H190.824V103.88H191.688V99.5965H186.972ZM190.752 94.1365V94.2925C189.972 96.8005 187.848 98.7325 185.724 99.5485C185.904 99.7165 186.144 100.028 186.252 100.232C188.532 99.2605 190.728 97.2925 191.652 94.3405L191.076 94.1005L190.908 94.1365H190.752ZM188.112 92.9005C187.656 94.3765 186.828 95.7805 185.844 96.6805C186.06 96.8125 186.408 97.1005 186.552 97.2565C187.548 96.2605 188.436 94.7365 188.976 93.1045L188.112 92.9005ZM187.872 94.6285L187.284 95.1205C188.016 96.8485 189.6 99.0205 192.072 100.088C192.192 99.8605 192.444 99.5125 192.636 99.3445C190.176 98.4085 188.568 96.3445 187.872 94.6285ZM182.028 98.2285V102.584H182.784V98.2285H182.028ZM182.832 94.1965H185.088V96.3085H182.832V94.1965ZM182.028 93.4045V97.1005H185.928V93.4045H182.028ZM183.72 96.7045V102.188H184.536V96.7045H183.72ZM181.404 102.488L181.572 103.364C182.832 103.052 184.56 102.632 186.204 102.224L186.12 101.42C184.392 101.828 182.592 102.248 181.404 102.488ZM184.008 98.8405V99.6445H186.036V98.8405H184.008ZM199.896 100.724C201.156 100.292 201.972 99.3085 201.972 98.0125C201.972 97.1725 201.612 96.6205 200.94 96.6205C200.46 96.6205 200.028 96.9205 200.028 97.4845C200.028 98.0485 200.436 98.3485 200.928 98.3485C201.156 98.3485 201.396 98.2885 201.564 98.0725L200.916 97.1605L201.144 98.1685C201.144 99.0805 200.604 99.6925 199.62 100.088L199.896 100.724ZM212.556 97.3885V98.2045H217.476V97.3885H212.556ZM212.712 93.5485V94.3645H218.34V93.5485H212.712ZM214.656 94.7725V102.164H215.52V94.7725H214.656ZM217.92 93.5485C217.956 98.8045 217.932 102.068 219.456 102.068C220.08 102.068 220.248 101.576 220.356 100.22C220.176 100.076 219.936 99.8125 219.78 99.5965C219.768 100.46 219.696 101.168 219.528 101.168C218.82 101.168 218.784 97.9045 218.808 93.5485H217.92ZM209.796 93.3205C210.324 93.9085 210.996 94.7485 211.32 95.2525L212.016 94.7605C211.68 94.2685 211.02 93.5005 210.468 92.9245L209.796 93.3205ZM209.376 95.6725V96.4285H211.98V95.6725H209.376ZM211.5 101.18L210.9 101.456C211.8 103.436 213.372 103.772 216.18 103.772C217.5 103.772 219.012 103.736 220.14 103.676C220.188 103.424 220.308 103.004 220.44 102.812C219.216 102.908 217.452 102.968 216.192 102.968C213.804 102.968 212.244 102.752 211.5 101.18ZM211.668 98.6725V98.8285C211.332 101.012 210.42 102.548 209.16 103.352C209.34 103.484 209.64 103.784 209.76 103.976C211.08 103.076 212.076 101.372 212.484 98.8165L212.028 98.6485L211.872 98.6725H211.668ZM209.544 99.5725C209.64 99.4765 209.952 99.4045 210.252 99.4045H211.872V98.6725H209.976L209.544 98.8885V99.5725ZM209.544 99.5725C209.544 99.3445 210.228 99.0085 210.228 99.0085C210.924 98.2405 212.028 96.7165 212.604 95.9005L212.004 95.6125L211.74 95.7325V95.7685C211.332 96.4045 210.168 98.0245 209.796 98.3965C209.58 98.6245 209.388 98.7085 209.208 98.7565C209.304 98.9485 209.484 99.3685 209.544 99.5725ZM227.94 96.6565H232.656V98.1805H227.94V96.6565ZM227.1 95.9245V98.9125H233.532V95.9245H227.1ZM226.608 94.1605V94.9405H234.048V94.1605H226.608ZM229.824 92.9125V102.392H230.7V92.9125H229.824ZM229.608 98.6365C228.912 99.7405 227.556 100.856 226.332 101.36C226.524 101.528 226.788 101.828 226.908 102.044C228.168 101.42 229.524 100.172 230.268 98.8885L229.608 98.6365ZM230.04 99.2125C231.24 99.9565 232.716 101.096 233.412 101.84L234.012 101.192C233.28 100.448 231.78 99.3805 230.592 98.6485L230.04 99.2125ZM223.716 93.2965C224.208 93.8965 224.832 94.7365 225.12 95.2405L225.84 94.7725C225.54 94.2805 224.916 93.5005 224.4 92.9125L223.716 93.2965ZM223.272 95.6725V96.4285H225.804V95.6725H223.272ZM225.408 101.18L224.808 101.456C225.72 103.436 227.292 103.748 230.112 103.748C231.432 103.748 232.944 103.724 234.084 103.652C234.132 103.412 234.24 103.004 234.372 102.812C233.136 102.92 231.384 102.968 230.112 102.968C227.712 102.968 226.152 102.752 225.408 101.18ZM225.408 98.6725V98.8285C225.108 100.988 224.268 102.524 223.08 103.34C223.26 103.472 223.56 103.784 223.68 103.964C224.928 103.04 225.852 101.336 226.236 98.8165L225.828 98.6485L225.672 98.6725H225.408ZM223.452 99.5725C223.536 99.4765 223.848 99.4045 224.16 99.4045H225.78V98.6725H223.884L223.452 98.8885V99.5725ZM223.452 99.5605C223.452 99.3325 224.124 98.9965 224.124 98.9965C224.796 98.2405 225.852 96.6925 226.404 95.8765L225.816 95.6125L225.552 95.7205V95.7565C225.156 96.3925 224.052 98.0365 223.692 98.3965C223.488 98.6245 223.296 98.7085 223.116 98.7565C223.212 98.9365 223.392 99.3565 223.452 99.5605ZM236.964 99.2845L237.204 100.16C238.212 99.8245 239.532 99.4045 240.78 98.9845L240.648 98.1565C239.292 98.6005 237.888 99.0205 236.964 99.2845ZM237.132 95.3245V96.1645H240.84V95.3245H237.132ZM238.668 92.9125V102.872C238.668 103.028 238.62 103.076 238.476 103.076C238.332 103.088 237.876 103.088 237.36 103.064C237.48 103.316 237.588 103.688 237.612 103.904C238.368 103.916 238.824 103.88 239.112 103.748C239.4 103.604 239.508 103.352 239.508 102.86V92.9125H238.668ZM241.368 94.1605V94.9525H247.8V94.1605H241.368ZM241.068 96.9685V97.7605H248.04V96.9685H241.068ZM242.268 95.3725C242.616 95.8405 242.988 96.5005 243.132 96.9085L243.912 96.5605C243.756 96.1645 243.372 95.5405 243.012 95.0725L242.268 95.3725ZM246.048 95.0965C245.832 95.6725 245.412 96.5245 245.076 97.0405L245.808 97.2805C246.144 96.7765 246.552 96.0205 246.9 95.3365L246.048 95.0965ZM240.912 99.0805V99.8725H248.184V99.0805H240.912ZM246.336 98.3725C245.844 101.288 244.452 102.644 240.9 103.148C241.056 103.352 241.236 103.676 241.308 103.916C245.112 103.256 246.66 101.756 247.212 98.5285L246.336 98.3725ZM243.792 93.0205C244.056 93.5125 244.356 94.1845 244.464 94.6285L245.46 94.4005C245.34 93.9805 245.04 93.3325 244.74 92.8525L243.792 93.0205ZM241.608 101.264L242.532 101.372C243.144 100.556 243.996 99.2005 244.5 98.0485L243.648 97.8685C243.18 98.9965 242.316 100.388 241.608 101.264ZM241.608 101.264C243.576 101.948 246.084 103.088 247.308 103.904L247.956 103.256C246.6 102.416 244.104 101.336 242.208 100.712L241.608 101.264ZM256.452 95.5165V96.3205H260.436V95.5165H256.452ZM257.748 92.9365V96.7045C257.748 99.0205 257.556 101.504 255.504 103.436C255.72 103.568 256.032 103.82 256.188 104C258.372 101.936 258.588 99.2245 258.588 96.7045V92.9365H257.748ZM251.208 94.1965V95.0005H256.344V94.1965H251.208ZM251.04 101.048V101.852H256.488V101.048H251.04ZM253.368 92.9125V96.2245H254.22V92.9125H253.368ZM253.44 96.2125V99.7045H253.368V103.94H254.208V99.7045H254.136V96.2125H253.44ZM252.216 98.3125H255.408V99.4165H252.216V98.3125ZM252.216 96.5845H255.408V97.6645H252.216V96.5845ZM251.496 95.9125V100.088H256.164V95.9125H251.496ZM259.872 95.5165V102.62C259.872 103.256 259.908 103.46 260.076 103.628C260.256 103.808 260.496 103.868 260.736 103.868C260.868 103.868 261.132 103.868 261.276 103.868C261.492 103.868 261.708 103.82 261.864 103.7C262.02 103.592 262.116 103.412 262.176 103.112C262.224 102.86 262.26 102.092 262.272 101.468C262.056 101.396 261.78 101.24 261.612 101.096C261.624 101.768 261.6 102.344 261.576 102.584C261.564 102.74 261.504 102.848 261.456 102.92C261.42 102.968 261.324 102.992 261.24 102.992C261.144 102.992 261.036 102.992 260.964 102.992C260.88 102.992 260.82 102.956 260.772 102.908C260.724 102.872 260.7 102.788 260.7 102.704V95.5165H259.872ZM272.28 92.8405V100.592H273.168V93.6685H276.06V92.8405H272.28ZM280.896 95.8645V96.5485H287.928V95.8645H280.896ZM285.9 94.8805C286.356 95.1085 286.908 95.4565 287.196 95.7445L287.628 95.2645C287.34 94.9885 286.788 94.6525 286.32 94.4485L285.9 94.8805ZM286.692 97.1005C286.176 99.1765 285.072 100.736 283.44 101.684C283.596 101.816 283.86 102.116 283.968 102.26C285.624 101.192 286.824 99.5125 287.424 97.2445L286.692 97.1005ZM280.776 100.772L280.896 101.456C281.892 101.276 283.176 101.012 284.424 100.772L284.4 100.136C283.044 100.388 281.7 100.616 280.776 100.772ZM281.964 97.8685H283.332V99.0805H281.964V97.8685ZM281.316 97.3045V99.6325H283.992V97.3045H281.316ZM284.448 94.5805C284.664 98.2885 285.156 101.696 286.812 102.056C287.448 102.284 287.868 101.804 288.024 100.484C287.856 100.412 287.58 100.22 287.436 100.076C287.352 100.856 287.232 101.36 287.064 101.324C285.9 101.144 285.372 97.9765 285.216 94.5805H284.448ZM279.384 93.4645V103.988H280.236V94.2805H288.516V103.988H289.416V93.4645H279.384ZM279.912 102.608V103.424H289.02V102.608H279.912ZM3.732 121.496V122.252H11.364V121.496H3.732ZM7.008 121.808C6.912 122.3 6.708 123.008 6.528 123.5L7.284 123.62C7.512 123.176 7.812 122.516 8.028 121.904L7.008 121.808ZM9.108 119.912C8.88 120.416 8.46 121.16 8.1 121.628L8.82 121.856C9.18 121.424 9.6 120.764 9.996 120.164L9.108 119.912ZM4.956 120.236C5.292 120.656 5.652 121.232 5.784 121.604L6.528 121.256C6.384 120.896 6.012 120.332 5.676 119.936L4.956 120.236ZM5.568 125.516H9.456V126.524H5.568V125.516ZM5.568 127.16H9.456V128.168H5.568V127.16ZM5.568 123.884H9.456V124.88H5.568V123.884ZM4.716 123.2V128.864H10.344V123.2H4.716ZM0.996 120.32C1.524 120.908 2.184 121.748 2.508 122.252L3.204 121.76C2.88 121.268 2.22 120.5 1.668 119.924L0.996 120.32ZM0.564 122.672V123.428H3.192V122.672H0.564ZM2.7 128.18L2.1 128.456C3 130.436 4.572 130.772 7.38 130.772C8.7 130.772 10.212 130.736 11.34 130.676C11.388 130.424 11.508 130.004 11.64 129.812C10.416 129.908 8.652 129.968 7.392 129.968C5.004 129.968 3.444 129.752 2.7 128.18ZM2.868 125.672V125.828C2.532 128.024 1.608 129.548 0.336 130.352C0.504 130.484 0.804 130.784 0.924 130.976C2.268 130.076 3.264 128.384 3.684 125.816L3.228 125.648L3.072 125.672H2.868ZM0.732 126.572C0.816 126.476 1.128 126.404 1.44 126.404H3.156L3.168 125.672H1.164L0.732 125.888V126.572ZM0.732 126.572C0.732 126.344 1.404 126.008 1.404 126.008C2.112 125.24 3.228 123.716 3.816 122.9L3.216 122.612L2.94 122.732V122.768C2.532 123.404 1.356 125.024 0.972 125.396C0.768 125.636 0.576 125.708 0.396 125.756C0.492 125.948 0.672 126.368 0.732 126.572ZM14.448 124.808V125.792H25.428V124.808H14.448ZM29.58 121.112H31.644V122.912H29.58V121.112ZM28.896 120.428V123.596H32.364V120.428H28.896ZM28.32 124.544V125.336H32.652V124.544H28.32ZM29.448 124.88C29.316 125.648 29.1 126.632 28.908 127.292H29.7C29.868 126.668 30.084 125.684 30.228 124.88H29.448ZM29.532 126.56L29.34 127.292H31.704V126.56H29.532ZM31.392 126.56V126.692C31.236 128.9 31.08 129.74 30.852 129.968C30.768 130.064 30.66 130.088 30.48 130.088C30.3 130.088 29.856 130.076 29.388 130.04C29.52 130.244 29.592 130.568 29.604 130.796C30.084 130.832 30.564 130.832 30.804 130.808C31.128 130.784 31.308 130.712 31.5 130.496C31.824 130.16 31.98 129.26 32.16 126.92C32.172 126.8 32.184 126.56 32.184 126.56H31.392ZM35.952 120.728V121.472H38.832V120.728H35.952ZM33.588 122.288V123.02H38.844V122.288H33.588ZM33.18 122.288V125.348C33.18 126.884 33.072 128.972 32.088 130.472C32.28 130.568 32.616 130.808 32.748 130.964C33.816 129.368 33.972 127.016 33.972 125.348V122.288H33.18ZM34.224 124.22L34.308 124.868L37.908 124.496L37.836 123.86L34.224 124.22ZM38.604 122.288V122.396C38.52 123.032 38.364 123.812 38.232 124.304L38.916 124.472C39.072 123.944 39.276 123.104 39.42 122.396L38.868 122.252L38.724 122.288H38.604ZM34.932 126.848C34.86 128.516 34.632 129.68 33.504 130.34C33.684 130.472 33.912 130.748 34.008 130.94C35.316 130.136 35.628 128.78 35.7 126.848H34.932ZM36.72 126.848V129.62C36.72 130.16 36.768 130.34 36.96 130.496C37.128 130.64 37.404 130.688 37.668 130.688C37.788 130.688 38.16 130.688 38.316 130.688C38.532 130.688 38.796 130.64 38.952 130.568C39.12 130.472 39.24 130.328 39.312 130.112C39.372 129.896 39.42 129.296 39.432 128.732C39.204 128.672 38.916 128.504 38.76 128.36C38.772 128.912 38.748 129.38 38.724 129.572C38.7 129.692 38.628 129.788 38.568 129.824C38.508 129.872 38.364 129.884 38.244 129.884C38.112 129.884 37.932 129.884 37.836 129.884C37.728 129.884 37.632 129.872 37.584 129.824C37.5 129.8 37.488 129.716 37.488 129.632V126.848H36.72ZM35.544 119.9V122.672H36.408V119.9H35.544ZM35.496 123.092V125.108C35.496 125.888 35.664 126.224 36.432 126.224C36.624 126.224 37.644 126.224 37.884 126.224C38.184 126.224 38.496 126.212 38.664 126.152C38.628 125.96 38.604 125.708 38.58 125.48C38.424 125.528 38.064 125.54 37.848 125.54C37.644 125.54 36.756 125.54 36.564 125.54C36.312 125.54 36.276 125.432 36.276 125.132V123.092H35.496ZM45.948 131.012V123.26H45.06V130.184H42.168V131.012H45.948ZM60.336 121.94V122.888H66.576V121.94H60.336ZM59.64 129.128V130.076H67.104V129.128H59.64ZM57.9 123.176V130.916H58.8V122.3L58.788 122.276L57.9 123.176ZM59.208 119.936C58.5 121.82 57.336 123.644 56.088 124.832C56.268 125.048 56.556 125.528 56.652 125.744C57.996 124.376 59.268 122.288 60.096 120.212L59.208 119.936ZM73.524 120.896V121.64H81.06V120.896H73.524ZM73.404 126.284V127.028H81.132V126.284H73.404ZM76.428 127.34C76.728 127.82 77.112 128.492 77.292 128.888L77.988 128.588C77.808 128.216 77.412 127.568 77.088 127.1L76.428 127.34ZM75.18 127.952V129.764C75.18 130.568 75.432 130.784 76.452 130.784C76.668 130.784 78.012 130.784 78.216 130.784C79.032 130.784 79.272 130.484 79.356 129.212C79.128 129.164 78.804 129.056 78.636 128.936C78.6 129.944 78.528 130.076 78.132 130.076C77.844 130.076 76.74 130.076 76.536 130.076C76.068 130.076 75.984 130.016 75.984 129.764V127.952H75.18ZM74.004 127.88C73.788 128.6 73.404 129.548 72.924 130.112L73.632 130.508C74.112 129.884 74.46 128.912 74.712 128.144L74.004 127.88ZM79.224 128.024C79.716 128.768 80.208 129.764 80.412 130.376L81.144 130.052C80.916 129.44 80.388 128.468 79.908 127.748L79.224 128.024ZM78.576 123.188H79.86V124.82H78.576V123.188ZM76.656 123.188H77.916V124.82H76.656V123.188ZM74.772 123.188H75.984V124.82H74.772V123.188ZM74.052 122.504V125.504H80.616V122.504H74.052ZM76.86 119.864C76.8 120.704 76.632 121.928 76.476 122.684L77.316 122.756C77.484 122.048 77.652 120.896 77.796 119.912L76.86 119.864ZM72.732 122.516C72.036 123.872 70.956 125.3 69.936 126.224C70.104 126.416 70.38 126.848 70.476 127.028C71.556 125.96 72.744 124.328 73.548 122.804L72.732 122.516ZM72.516 119.912C71.952 120.764 70.884 121.856 70.008 122.552C70.152 122.732 70.368 123.08 70.464 123.272C71.436 122.468 72.576 121.268 73.332 120.248L72.516 119.912ZM71.7 124.76V130.952H72.552V124.46L72.12 124.328L71.7 124.76ZM91.332 124.856C90.216 127.868 87.684 129.404 84.072 130.16C84.252 130.352 84.528 130.76 84.624 130.976C88.284 130.064 90.936 128.42 92.244 125.12L91.332 124.856ZM87.336 122.816C86.616 123.74 85.416 124.688 84.348 125.276C84.552 125.432 84.9 125.768 85.056 125.948C86.112 125.264 87.384 124.196 88.212 123.164L87.336 122.816ZM87.744 124.928L86.94 125.18C88.224 128.288 90.66 130.16 94.44 130.868C94.56 130.616 94.812 130.244 95.004 130.052C91.32 129.452 88.86 127.7 87.744 124.928ZM84.312 121.568V122.444H94.692V121.568H84.312ZM90.924 123.32C92.04 124.088 93.384 125.228 93.996 125.996L94.74 125.408C94.092 124.64 92.724 123.548 91.632 122.804L90.924 123.32ZM88.524 120.092C88.86 120.596 89.22 121.268 89.376 121.7L90.264 121.352C90.108 120.944 89.712 120.272 89.376 119.792L88.524 120.092ZM101.208 121.472V122.288H108.744V121.472H101.208ZM104.412 125.66V130.424H105.228V125.66H104.412ZM102.288 125.588V126.824C102.288 127.928 102.144 129.284 100.752 130.304C100.956 130.436 101.256 130.712 101.388 130.892C102.936 129.728 103.116 128.168 103.116 126.848V125.588H102.288ZM106.032 122.876C106.74 123.728 107.652 124.88 108.096 125.552L108.828 125.072C108.372 124.412 107.424 123.296 106.716 122.48L106.032 122.876ZM101.676 125.18C102.048 125.036 102.612 125 107.844 124.64C107.784 124.448 107.7 124.124 107.664 123.896L102.216 124.208L101.664 124.508L101.676 125.18ZM98.46 120.692C99.192 121.112 100.08 121.772 100.488 122.24L101.04 121.532C100.608 121.064 99.708 120.452 98.976 120.056L98.46 120.692ZM97.92 124.004C98.7 124.352 99.636 124.916 100.104 125.336L100.608 124.58C100.128 124.172 99.168 123.644 98.4 123.332L97.92 124.004ZM98.22 130.172L98.976 130.784C99.684 129.668 100.524 128.168 101.16 126.896L100.5 126.308C99.804 127.676 98.856 129.26 98.22 130.172ZM106.572 125.576V129.512C106.572 130.364 106.728 130.676 107.532 130.676C107.664 130.676 108.168 130.676 108.324 130.676C108.54 130.676 108.768 130.676 108.9 130.628C108.876 130.436 108.852 130.136 108.84 129.92C108.696 129.968 108.468 129.98 108.312 129.98C108.18 129.98 107.736 129.98 107.604 129.98C107.448 129.98 107.412 129.884 107.412 129.536V125.576H106.572ZM101.676 125.18C101.676 125 102.288 124.712 102.288 124.712V124.688C103.416 123.56 104.616 121.94 105.588 120.284L104.712 119.936C103.896 121.508 102.66 123.14 102.264 123.56C101.916 123.98 101.628 124.268 101.376 124.316C101.484 124.556 101.628 125 101.676 125.18ZM115.092 121.496V122.252H122.724V121.496H115.092ZM118.368 121.808C118.272 122.3 118.068 123.008 117.888 123.5L118.644 123.62C118.872 123.176 119.172 122.516 119.388 121.904L118.368 121.808ZM120.468 119.912C120.24 120.416 119.82 121.16 119.46 121.628L120.18 121.856C120.54 121.424 120.96 120.764 121.356 120.164L120.468 119.912ZM116.316 120.236C116.652 120.656 117.012 121.232 117.144 121.604L117.888 121.256C117.744 120.896 117.372 120.332 117.036 119.936L116.316 120.236ZM116.928 125.516H120.816V126.524H116.928V125.516ZM116.928 127.16H120.816V128.168H116.928V127.16ZM116.928 123.884H120.816V124.88H116.928V123.884ZM116.076 123.2V128.864H121.704V123.2H116.076ZM112.356 120.32C112.884 120.908 113.544 121.748 113.868 122.252L114.564 121.76C114.24 121.268 113.58 120.5 113.028 119.924L112.356 120.32ZM111.924 122.672V123.428H114.552V122.672H111.924ZM114.06 128.18L113.46 128.456C114.36 130.436 115.932 130.772 118.74 130.772C120.06 130.772 121.572 130.736 122.7 130.676C122.748 130.424 122.868 130.004 123 129.812C121.776 129.908 120.012 129.968 118.752 129.968C116.364 129.968 114.804 129.752 114.06 128.18ZM114.228 125.672V125.828C113.892 128.024 112.968 129.548 111.696 130.352C111.864 130.484 112.164 130.784 112.284 130.976C113.628 130.076 114.624 128.384 115.044 125.816L114.588 125.648L114.432 125.672H114.228ZM112.092 126.572C112.176 126.476 112.488 126.404 112.8 126.404H114.516L114.528 125.672H112.524L112.092 125.888V126.572ZM112.092 126.572C112.092 126.344 112.764 126.008 112.764 126.008C113.472 125.24 114.588 123.716 115.176 122.9L114.576 122.612L114.3 122.732V122.768C113.892 123.404 112.716 125.024 112.332 125.396C112.128 125.636 111.936 125.708 111.756 125.756C111.852 125.948 112.032 126.368 112.092 126.572ZM132.072 123.968V124.844H136.764V123.968H132.072ZM134.472 124.556V130.904H135.36V124.556H134.472ZM126.456 121.088V125.288C126.456 126.86 126.384 128.924 125.616 130.4C125.82 130.496 126.192 130.808 126.348 130.964C127.224 129.392 127.332 126.992 127.332 125.288V121.088H126.456ZM135.936 120.056C134.952 120.512 133.188 120.896 131.688 121.112C131.796 121.316 131.916 121.652 131.964 121.868C133.5 121.664 135.36 121.316 136.548 120.812L135.936 120.056ZM126.948 122.924V123.74H129.708V125.66H126.948V126.476H130.584V122.924H126.948ZM130.56 120.152C129.624 120.596 127.896 120.92 126.456 121.088C126.564 121.304 126.684 121.616 126.72 121.832C128.196 121.688 130.008 121.4 131.148 120.908L130.56 120.152ZM131.688 121.112V125.108C131.688 126.776 131.544 128.888 130.116 130.364C130.32 130.484 130.68 130.796 130.824 130.964C132.372 129.404 132.6 126.932 132.6 125.12V121.112H131.688ZM139.944 121.76V122.636H150.456V121.76H139.944ZM143.664 125.564V126.404H149.988V125.564H143.664ZM143.196 129.812V130.664H150.456V129.812H143.196ZM146.376 123.248V130.268H147.276V123.248H146.376ZM143.892 119.9C143.22 122.372 141.816 125.036 139.656 126.56C139.8 126.764 140.028 127.148 140.124 127.388C142.512 125.672 143.976 122.876 144.816 120.128L143.892 119.9ZM141.516 124.844V130.904H142.416V124.844H141.516ZM158.136 127.724C159.396 127.292 160.212 126.308 160.212 125.012C160.212 124.172 159.852 123.62 159.18 123.62C158.7 123.62 158.268 123.92 158.268 124.484C158.268 125.048 158.676 125.348 159.168 125.348C159.396 125.348 159.636 125.288 159.804 125.072L159.156 124.16L159.384 125.168C159.384 126.08 158.844 126.692 157.86 127.088L158.136 127.724ZM172.56 123.536V124.376H178.428V123.536H172.56ZM175.332 123.92V129.296H176.244V123.92H175.332ZM172.128 120.836V123.416C172.128 124.94 171.996 127.016 170.844 128.504C171.06 128.612 171.432 128.876 171.6 129.044C172.836 127.46 173.04 125.096 173.04 123.428V120.836H172.128ZM177.444 120.128C176.244 120.488 174 120.728 172.128 120.836C172.236 121.052 172.344 121.388 172.38 121.58C174.336 121.496 176.676 121.256 178.188 120.8L177.444 120.128ZM168.072 120.32C168.624 120.908 169.332 121.748 169.668 122.252L170.364 121.76C170.016 121.268 169.332 120.5 168.744 119.924L168.072 120.32ZM167.604 122.672V123.428H170.292V122.672H167.604ZM169.86 128.18L169.248 128.456C170.148 130.436 171.72 130.772 174.528 130.772C175.848 130.772 177.36 130.736 178.488 130.676C178.536 130.424 178.644 130.004 178.788 129.812C177.552 129.908 175.8 129.968 174.54 129.968C172.152 129.968 170.58 129.752 169.86 128.18ZM170.016 125.672V125.828C169.644 128.036 168.684 129.548 167.352 130.352C167.532 130.484 167.832 130.784 167.952 130.976C169.344 130.076 170.4 128.396 170.832 125.816L170.376 125.648L170.232 125.672H170.016ZM167.772 126.572C167.856 126.476 168.168 126.404 168.492 126.404H170.28L170.292 125.672H168.204L167.772 125.888V126.572ZM167.772 126.572C167.772 126.344 168.444 126.008 168.444 126.008C169.176 125.24 170.34 123.728 170.94 122.9L170.34 122.612L170.076 122.732V122.768C169.644 123.416 168.42 125.024 168.024 125.396C167.808 125.636 167.616 125.708 167.436 125.756C167.532 125.948 167.712 126.368 167.772 126.572ZM183.564 129.404V130.28H190.308V129.404H183.564ZM183.108 125.888V130.94H184.02V126.74H189.852V130.904H190.8V125.888H183.108ZM188.148 121.736C189.324 122.804 190.692 124.316 191.28 125.336L192.06 124.772C191.436 123.776 190.02 122.288 188.844 121.268L188.148 121.736ZM182.46 124.868C182.46 124.688 183.06 124.412 183.06 124.412V124.388C184.332 123.332 185.676 121.844 186.828 120.248L185.928 119.864C184.992 121.352 183.588 122.876 183.144 123.272C182.748 123.668 182.436 123.932 182.16 123.98C182.268 124.22 182.424 124.676 182.46 124.868ZM182.46 124.868C182.94 124.7 183.66 124.676 190.896 124.268C190.848 124.076 190.812 123.716 190.8 123.464L183.12 123.824L182.448 124.16L182.46 124.868ZM198.036 130.148C199.608 130.148 200.868 129.2 200.868 127.64C200.868 126.428 200.028 125.648 198.996 125.396V125.348C199.932 125.012 200.556 124.304 200.556 123.236C200.556 121.832 199.476 121.028 198 121.028C196.992 121.028 196.212 121.472 195.552 122.072L196.14 122.78C196.632 122.276 197.256 121.916 197.964 121.916C198.876 121.916 199.44 122.468 199.44 123.308C199.44 124.268 198.828 124.988 197.016 124.988V125.84C199.044 125.84 199.752 126.536 199.752 127.592C199.752 128.6 199.008 129.236 197.964 129.236C196.956 129.236 196.296 128.756 195.78 128.216L195.228 128.936C195.804 129.572 196.656 130.148 198.036 130.148ZM206.264 130.148C207.92 130.148 209.456 128.78 209.456 125.204C209.456 122.408 208.196 121.028 206.504 121.028C205.136 121.028 203.984 122.18 203.984 123.884C203.984 125.708 204.932 126.644 206.408 126.644C207.164 126.644 207.944 126.188 208.496 125.492L208.436 124.616C207.86 125.492 207.176 125.84 206.588 125.84C205.544 125.84 205.016 125.06 205.016 123.884C205.016 122.672 205.664 121.88 206.504 121.88C207.74 121.88 208.424 123.044 208.424 125.204C208.424 128.216 207.404 129.236 206.228 129.236C205.664 129.236 205.124 128.984 204.752 128.552L204.14 129.248C204.632 129.764 205.304 130.148 206.264 130.148ZM219.713 119.9C219.605 120.344 219.389 121.004 219.197 121.448L219.953 121.652C220.181 121.268 220.457 120.668 220.721 120.104L219.713 119.9ZM218.297 123.62H222.065V124.688H218.297V123.62ZM218.297 121.892H222.065V122.948H218.297V121.892ZM217.457 121.184V125.408H222.941V121.184H217.457ZM219.857 125.108V129.944C219.857 130.088 219.821 130.124 219.665 130.136C219.509 130.148 218.993 130.148 218.429 130.124C218.549 130.364 218.657 130.712 218.693 130.952C219.473 130.952 219.989 130.952 220.313 130.808C220.625 130.664 220.721 130.412 220.721 129.956V125.108H219.857ZM217.013 126.416V127.172H218.969V126.416H217.013ZM218.777 126.416V126.548C218.429 128 217.445 129.2 216.365 129.74C216.533 129.896 216.773 130.184 216.881 130.376C218.117 129.692 219.161 128.396 219.593 126.572L219.065 126.38L218.921 126.416H218.777ZM222.641 125.84C222.221 126.368 221.453 127.112 220.913 127.544L221.417 127.988C221.993 127.58 222.713 126.944 223.325 126.38L222.641 125.84ZM220.673 125.696L220.049 125.864C220.577 127.808 221.597 129.56 223.001 130.424C223.145 130.196 223.409 129.872 223.601 129.716C222.221 129.008 221.177 127.424 220.673 125.696ZM215.285 124.64C215.573 125.48 215.837 126.584 215.933 127.244L216.665 127.016C216.569 126.38 216.269 125.3 215.969 124.472L215.285 124.64ZM214.205 127.724C214.337 128.54 214.457 129.608 214.481 130.316L215.189 130.184C215.153 129.476 215.033 128.432 214.889 127.604L214.205 127.724ZM213.029 127.628C212.921 128.624 212.741 129.716 212.453 130.46C212.645 130.52 212.993 130.64 213.149 130.724C213.401 129.968 213.641 128.804 213.773 127.748L213.029 127.628ZM212.741 124.4C212.741 124.22 213.305 123.932 213.305 123.932V123.908C214.073 122.96 214.865 121.568 215.465 120.236L214.625 119.888C214.157 121.184 213.353 122.552 213.101 122.912C212.861 123.272 212.657 123.524 212.453 123.572C212.549 123.8 212.693 124.22 212.741 124.4ZM212.741 124.4C212.933 124.304 213.257 124.232 215.165 124.016C215.165 123.836 215.201 123.524 215.237 123.284L213.149 123.476L212.717 123.728L212.741 124.4ZM212.813 127.1C212.813 126.92 213.401 126.644 213.401 126.644V126.62C214.529 125.444 215.693 123.8 216.593 122.168L215.801 121.7C215.033 123.32 213.785 125.024 213.413 125.444C213.041 125.888 212.777 126.2 212.525 126.26C212.621 126.488 212.765 126.92 212.813 127.1ZM212.813 127.1C213.053 126.98 213.425 126.896 216.101 126.5C216.089 126.32 216.101 125.996 216.137 125.78L213.221 126.152L212.789 126.428L212.813 127.1ZM215.333 127.496C215.549 128.12 215.801 128.936 215.885 129.464L216.557 129.248C216.449 128.72 216.197 127.928 215.957 127.304L215.333 127.496ZM233.86 120.512V121.304H236.08V120.512H233.86ZM231.076 121.1V121.868H233.416V121.1H231.076ZM233.968 122.816V123.584H236.044V122.816H233.968ZM233.897 125.072V125.84H235.936V125.072H233.897ZM227.968 122.78V123.548H230.008V122.78H227.968ZM228.028 125.024V125.792H230.044V125.024H228.028ZM235.588 120.512C235.6 122.732 235.492 125.852 235.372 127.616H236.212C236.333 125.876 236.405 122.78 236.428 120.512H235.588ZM229.732 119.972C229.144 120.272 228.244 120.632 227.488 120.896C227.584 121.088 227.692 121.364 227.728 121.544C228.496 121.316 229.432 121.016 230.164 120.704L229.732 119.972ZM230.644 119.984V123.884H233.008V123.152H231.424V119.984H230.644ZM226.504 127.28V128.12H237.401V127.28H226.504ZM233.104 128.888C234.364 129.5 235.696 130.304 236.513 130.892L237.113 130.208C236.272 129.632 234.88 128.864 233.596 128.264L233.104 128.888ZM230.032 128.312C229.264 128.96 227.812 129.776 226.66 130.244C226.84 130.436 227.068 130.736 227.188 130.928C228.364 130.412 229.816 129.608 230.8 128.852L230.032 128.312ZM227.488 120.896L227.728 127.568H228.544L228.328 121.136L227.488 120.896ZM231.028 124.412C230.92 125.144 230.74 125.876 230.368 126.392C230.536 126.476 230.86 126.668 230.98 126.776C231.352 126.212 231.604 125.372 231.736 124.532L231.028 124.412ZM232.564 123.164V126.356C232.564 126.464 232.528 126.5 232.408 126.5C232.288 126.512 231.928 126.512 231.496 126.5C231.592 126.68 231.688 126.92 231.724 127.112C232.312 127.112 232.732 127.112 232.996 127.004C233.26 126.896 233.332 126.728 233.332 126.356V123.164H232.564ZM240.604 124.832V125.732H251.176V124.832H240.604ZM241.468 121.868V122.768H250.348V121.868H241.468ZM245.38 119.912V130.94H246.316V119.912H245.38ZM245.14 125.288C244.108 126.992 242.116 128.708 240.268 129.512C240.484 129.704 240.772 130.052 240.928 130.28C242.788 129.332 244.78 127.532 245.92 125.624L245.14 125.288ZM246.556 125.288L245.812 125.612C246.964 127.508 248.956 129.344 250.804 130.28C250.96 130.04 251.248 129.692 251.464 129.512C249.616 128.708 247.6 126.98 246.556 125.288ZM254.656 121.58V122.456H265.012V121.58H254.656ZM259.288 119.912V130.94H260.224V119.912H259.288ZM259.396 125.24C258.316 127.064 256.24 128.816 254.236 129.632C254.44 129.812 254.728 130.172 254.872 130.4C256.9 129.452 258.976 127.592 260.152 125.54L259.396 125.24ZM260.176 125.264L259.42 125.576C260.584 127.628 262.624 129.5 264.688 130.424C264.844 130.172 265.132 129.812 265.36 129.62C263.284 128.828 261.232 127.1 260.176 125.264ZM256.252 124.616C256.828 125.12 257.548 125.84 257.92 126.272L258.532 125.66C258.16 125.228 257.416 124.544 256.852 124.064L256.252 124.616ZM256.756 122.744C256.396 124.292 255.64 125.6 254.548 126.416C254.764 126.56 255.112 126.848 255.256 127.004C256.372 126.08 257.212 124.652 257.632 122.9L256.756 122.744ZM262.024 124.64C262.84 125.3 263.92 126.224 264.436 126.8L265.072 126.176C264.532 125.624 263.428 124.724 262.624 124.112L262.024 124.64ZM262.444 122.744C262.18 124.088 261.604 125.264 260.728 125.996C260.944 126.104 261.328 126.356 261.496 126.5C262.348 125.66 262.996 124.4 263.308 122.888L262.444 122.744ZM272.02 120.98V121.712H279.028V120.98H272.02ZM275.464 127.64V128.384H278.572V127.64H275.464ZM271.864 124.148V124.88H279.328V124.148H271.864ZM272.548 122.528V123.248H277.624V125.876H272.548V126.596H278.464V122.528H272.548ZM275.008 119.9V129.908L275.848 130.34V119.9H275.008ZM272.68 126.8C272.476 128.36 271.96 129.656 271.024 130.484C271.228 130.592 271.576 130.844 271.72 130.988C272.668 130.064 273.256 128.648 273.52 126.908L272.68 126.8ZM273.196 127.88L272.536 128.156C273.364 130.328 274.732 130.844 276.94 130.844H279.04C279.076 130.616 279.196 130.244 279.316 130.052C278.908 130.052 277.252 130.052 276.976 130.052C275.152 130.052 273.844 129.656 273.196 127.88ZM268.036 126.128L268.276 127.004C269.296 126.68 270.616 126.248 271.864 125.816L271.744 124.988C270.376 125.432 268.972 125.864 268.036 126.128ZM268.204 122.324V123.164H271.852V122.324H268.204ZM269.716 119.912V129.896C269.716 130.076 269.644 130.112 269.5 130.112C269.356 130.124 268.9 130.124 268.372 130.112C268.492 130.364 268.6 130.736 268.636 130.952C269.392 130.952 269.86 130.928 270.136 130.784C270.436 130.64 270.556 130.4 270.556 129.896V119.912H269.716ZM288.617 121.52V129.416H289.493V121.52H288.617ZM286.817 125.528H291.341V126.344H286.817V125.528ZM286.817 124.148H291.341V124.94H286.817V124.148ZM286.061 123.536V126.956H292.133V123.536H286.061ZM285.389 120.332V122.48H286.229V121.028H291.821V122.48H292.697V120.332H285.389ZM286.313 122.132V122.804H291.833V122.132H286.313ZM285.461 127.724V128.432H292.841V127.724H285.461ZM282.629 120.296C283.121 120.896 283.745 121.736 284.033 122.24L284.753 121.772C284.453 121.28 283.829 120.5 283.313 119.912L282.629 120.296ZM282.185 122.684V123.44H284.717V122.684H282.185ZM284.321 128.18L283.721 128.456C284.633 130.436 286.205 130.748 289.025 130.748C290.345 130.748 291.857 130.724 292.997 130.652C293.045 130.412 293.153 130.004 293.285 129.812C292.049 129.92 290.297 129.968 289.025 129.968C286.625 129.968 285.065 129.752 284.321 128.18ZM284.321 125.672V125.828C284.021 127.988 283.181 129.524 281.993 130.34C282.173 130.472 282.473 130.784 282.593 130.964C283.841 130.04 284.765 128.336 285.149 125.816L284.741 125.648L284.585 125.672H284.321ZM282.365 126.572C282.449 126.476 282.761 126.404 283.073 126.404H284.693V125.672H282.797L282.365 125.888V126.572ZM282.365 126.572C282.365 126.344 283.037 126.008 283.037 126.008C283.709 125.24 284.765 123.704 285.317 122.888L284.729 122.612L284.465 122.732V122.768C284.069 123.404 282.965 125.036 282.605 125.396C282.401 125.636 282.209 125.708 282.029 125.756C282.125 125.948 282.305 126.368 282.365 126.572ZM7.38 150.32V151.088H11.052V150.32H7.38ZM3.492 149.6V150.992H4.272V149.6H3.492ZM3.492 152.168V153.56H4.272V152.168H3.492ZM0.492 156.812V157.58H11.532V156.812H0.492ZM1.872 154.34V157.208H2.712V155.048H4.38V157.208H5.16V155.048H6.84V157.208H7.62V155.048H9.3V157.208H10.176V154.34H1.872ZM7.464 149.24C7.152 150.416 6.6 151.568 5.916 152.348C6.096 152.492 6.384 152.852 6.48 153.008C7.248 152.144 7.884 150.788 8.28 149.42L7.464 149.24ZM1.656 150.632V151.196H5.064V151.904H1.656V152.456H5.808V150.632H1.656ZM6.12 149.372H1.236V153.824H6.204V153.224H1.992V149.972H6.12V149.372ZM0.636 147.68V148.424H5.604V147.68H0.636ZM3.18 146.912V149.036H4.056V146.912H3.18ZM8.052 146.912V149.036H8.928V146.912H8.052ZM6.288 147.68V148.424H11.28V147.68H6.288ZM7.164 152.792V153.584H10.788V152.792H7.164ZM21.6 146.9C21.492 147.344 21.276 148.004 21.084 148.448L21.84 148.652C22.068 148.268 22.344 147.668 22.608 147.104L21.6 146.9ZM20.184 150.62H23.952V151.688H20.184V150.62ZM20.184 148.892H23.952V149.948H20.184V148.892ZM19.344 148.184V152.408H24.828V148.184H19.344ZM21.744 152.108V156.944C21.744 157.088 21.708 157.124 21.552 157.136C21.396 157.148 20.88 157.148 20.316 157.124C20.436 157.364 20.544 157.712 20.58 157.952C21.36 157.952 21.876 157.952 22.2 157.808C22.512 157.664 22.608 157.412 22.608 156.956V152.108H21.744ZM18.9 153.416V154.172H20.856V153.416H18.9ZM20.664 153.416V153.548C20.316 155 19.332 156.2 18.252 156.74C18.42 156.896 18.66 157.184 18.768 157.376C20.004 156.692 21.048 155.396 21.48 153.572L20.952 153.38L20.808 153.416H20.664ZM24.528 152.84C24.108 153.368 23.34 154.112 22.8 154.544L23.304 154.988C23.88 154.58 24.6 153.944 25.212 153.38L24.528 152.84ZM22.56 152.696L21.936 152.864C22.464 154.808 23.484 156.56 24.888 157.424C25.032 157.196 25.296 156.872 25.488 156.716C24.108 156.008 23.064 154.424 22.56 152.696ZM17.172 151.64C17.46 152.48 17.724 153.584 17.82 154.244L18.552 154.016C18.456 153.38 18.156 152.3 17.856 151.472L17.172 151.64ZM16.092 154.724C16.224 155.54 16.344 156.608 16.368 157.316L17.076 157.184C17.04 156.476 16.92 155.432 16.776 154.604L16.092 154.724ZM14.916 154.628C14.808 155.624 14.628 156.716 14.34 157.46C14.532 157.52 14.88 157.64 15.036 157.724C15.288 156.968 15.528 155.804 15.66 154.748L14.916 154.628ZM14.628 151.4C14.628 151.22 15.192 150.932 15.192 150.932V150.908C15.96 149.96 16.752 148.568 17.352 147.236L16.512 146.888C16.044 148.184 15.24 149.552 14.988 149.912C14.748 150.272 14.544 150.524 14.34 150.572C14.436 150.8 14.58 151.22 14.628 151.4ZM14.628 151.4C14.82 151.304 15.144 151.232 17.052 151.016C17.052 150.836 17.088 150.524 17.124 150.284L15.036 150.476L14.604 150.728L14.628 151.4ZM14.7 154.1C14.7 153.92 15.288 153.644 15.288 153.644V153.62C16.416 152.444 17.58 150.8 18.48 149.168L17.688 148.7C16.92 150.32 15.672 152.024 15.3 152.444C14.928 152.888 14.664 153.2 14.412 153.26C14.508 153.488 14.652 153.92 14.7 154.1ZM14.7 154.1C14.94 153.98 15.312 153.896 17.988 153.5C17.976 153.32 17.988 152.996 18.024 152.78L15.108 153.152L14.676 153.428L14.7 154.1ZM17.22 154.496C17.436 155.12 17.688 155.936 17.772 156.464L18.444 156.248C18.336 155.72 18.084 154.928 17.844 154.304L17.22 154.496ZM33.204 149.816V155.108H34.056V149.816H33.204ZM35.976 150.908V151.748H38.868V150.908H35.976ZM28.38 147.488V148.304H31.248V147.488H28.38ZM29.184 151.076V151.82H31.356V151.076H29.184ZM35.532 147.932V155.252H36.444V147.932H35.532ZM38.388 147.068C37.068 147.5 34.68 147.8 32.652 147.956C32.748 148.16 32.856 148.496 32.88 148.712C34.944 148.568 37.38 148.28 38.964 147.788L38.388 147.068ZM31.116 151.076V151.232C30.852 154.364 29.82 156.38 28.224 157.256C28.404 157.436 28.632 157.784 28.74 158.012C30.552 156.908 31.62 154.82 31.944 151.16L31.428 151.04L31.272 151.076H31.116ZM29.268 152.648L28.56 152.96C29.904 156.956 32.64 157.676 36.228 157.676H39.132C39.192 157.424 39.348 157.004 39.492 156.788C38.88 156.8 36.732 156.8 36.252 156.8C33.048 156.8 30.384 156.2 29.268 152.648ZM32.256 154.652V155.492H39.156V154.652H32.256ZM28.908 152.144C28.908 151.952 29.556 151.688 29.556 151.688V151.664C30.324 150.68 31.152 149.24 31.872 147.74L31.296 147.368L30.972 147.512V147.572C30.456 148.904 29.592 150.32 29.316 150.68C29.064 151.064 28.764 151.376 28.56 151.424C28.68 151.592 28.848 151.964 28.908 152.144ZM48.852 146.96V157.94H49.74V146.96H48.852ZM45.66 148.808V155.228H46.512V149.636H52.152V155.144H53.028V148.808H45.66ZM46.224 151.292V152.096H52.548V151.292H46.224ZM46.26 153.776V154.604H52.584V153.776H46.26ZM44.928 146.948C44.256 148.772 43.128 150.572 41.94 151.736C42.108 151.94 42.36 152.42 42.456 152.624C43.752 151.28 44.988 149.252 45.78 147.212L44.928 146.948ZM43.68 150.044V157.928H44.544V149.204L44.52 149.192L43.68 150.044ZM63.36 146.9C63.252 147.344 63.036 148.004 62.844 148.448L63.6 148.652C63.828 148.268 64.104 147.668 64.368 147.104L63.36 146.9ZM61.944 150.62H65.712V151.688H61.944V150.62ZM61.944 148.892H65.712V149.948H61.944V148.892ZM61.104 148.184V152.408H66.588V148.184H61.104ZM63.504 152.108V156.944C63.504 157.088 63.468 157.124 63.312 157.136C63.156 157.148 62.64 157.148 62.076 157.124C62.196 157.364 62.304 157.712 62.34 157.952C63.12 157.952 63.636 157.952 63.96 157.808C64.272 157.664 64.368 157.412 64.368 156.956V152.108H63.504ZM60.66 153.416V154.172H62.616V153.416H60.66ZM62.424 153.416V153.548C62.076 155 61.092 156.2 60.012 156.74C60.18 156.896 60.42 157.184 60.528 157.376C61.764 156.692 62.808 155.396 63.24 153.572L62.712 153.38L62.568 153.416H62.424ZM66.288 152.84C65.868 153.368 65.1 154.112 64.56 154.544L65.064 154.988C65.64 154.58 66.36 153.944 66.972 153.38L66.288 152.84ZM64.32 152.696L63.696 152.864C64.224 154.808 65.244 156.56 66.648 157.424C66.792 157.196 67.056 156.872 67.248 156.716C65.868 156.008 64.824 154.424 64.32 152.696ZM58.932 151.64C59.22 152.48 59.484 153.584 59.58 154.244L60.312 154.016C60.216 153.38 59.916 152.3 59.616 151.472L58.932 151.64ZM57.852 154.724C57.984 155.54 58.104 156.608 58.128 157.316L58.836 157.184C58.8 156.476 58.68 155.432 58.536 154.604L57.852 154.724ZM56.676 154.628C56.568 155.624 56.388 156.716 56.1 157.46C56.292 157.52 56.64 157.64 56.796 157.724C57.048 156.968 57.288 155.804 57.42 154.748L56.676 154.628ZM56.388 151.4C56.388 151.22 56.952 150.932 56.952 150.932V150.908C57.72 149.96 58.512 148.568 59.112 147.236L58.272 146.888C57.804 148.184 57 149.552 56.748 149.912C56.508 150.272 56.304 150.524 56.1 150.572C56.196 150.8 56.34 151.22 56.388 151.4ZM56.388 151.4C56.58 151.304 56.904 151.232 58.812 151.016C58.812 150.836 58.848 150.524 58.884 150.284L56.796 150.476L56.364 150.728L56.388 151.4ZM56.46 154.1C56.46 153.92 57.048 153.644 57.048 153.644V153.62C58.176 152.444 59.34 150.8 60.24 149.168L59.448 148.7C58.68 150.32 57.432 152.024 57.06 152.444C56.688 152.888 56.424 153.2 56.172 153.26C56.268 153.488 56.412 153.92 56.46 154.1ZM56.46 154.1C56.7 153.98 57.072 153.896 59.748 153.5C59.736 153.32 59.748 152.996 59.784 152.78L56.868 153.152L56.436 153.428L56.46 154.1ZM58.98 154.496C59.196 155.12 59.448 155.936 59.532 156.464L60.204 156.248C60.096 155.72 59.844 154.928 59.604 154.304L58.98 154.496ZM74.616 154.724C75.876 154.292 76.692 153.308 76.692 152.012C76.692 151.172 76.332 150.62 75.66 150.62C75.18 150.62 74.748 150.92 74.748 151.484C74.748 152.048 75.156 152.348 75.648 152.348C75.876 152.348 76.116 152.288 76.284 152.072L75.636 151.16L75.864 152.168C75.864 153.08 75.324 153.692 74.34 154.088L74.616 154.724ZM83.988 153.26L84.252 154.16C85.464 153.812 87.072 153.32 88.584 152.864L88.476 152.024C86.844 152.48 85.128 152.972 83.988 153.26ZM84.096 149.324V150.188H88.464V149.324H84.096ZM85.896 146.912V156.752C85.896 156.92 85.836 156.98 85.668 156.98C85.512 156.98 84.984 156.98 84.42 156.968C84.54 157.208 84.672 157.58 84.696 157.82C85.536 157.82 86.028 157.808 86.364 157.652C86.676 157.508 86.796 157.268 86.796 156.752V146.912H85.896ZM88.524 147.92V148.808H95.052V147.92H88.524ZM91.944 148.232V156.62C91.944 156.836 91.872 156.908 91.632 156.92C91.368 156.932 90.504 156.932 89.616 156.896C89.76 157.16 89.928 157.604 89.976 157.88C91.116 157.88 91.872 157.868 92.316 157.7C92.76 157.544 92.904 157.244 92.904 156.62V148.232H91.944ZM102.936 148.916C104.1 149.36 105.612 150.056 106.368 150.524L106.968 149.948C106.164 149.468 104.652 148.82 103.5 148.412L102.936 148.916ZM101.784 149.924V156.104H102.588V150.62H107.928V149.924H101.784ZM107.604 149.924V155.252C107.604 155.396 107.556 155.444 107.4 155.456C107.244 155.456 106.74 155.456 106.164 155.444C106.26 155.636 106.38 155.936 106.416 156.152C107.208 156.152 107.724 156.14 108.012 156.02C108.324 155.888 108.42 155.684 108.42 155.252V149.924H107.604ZM101.796 147.404V148.112H107.784V147.404H101.796ZM102.264 151.676V152.348H107.916V151.676H102.264ZM102.264 153.44V154.136H107.916V153.44H102.264ZM104.652 150.212V156.092H105.444V150.212H104.652ZM107.484 147.404V147.572C106.944 148.136 105.828 148.832 104.844 149.216C104.976 149.348 105.204 149.588 105.324 149.744C106.416 149.288 107.628 148.544 108.432 147.788L107.88 147.356L107.688 147.404H107.484ZM98.436 147.32C98.964 147.908 99.636 148.748 99.96 149.252L100.656 148.76C100.32 148.268 99.66 147.5 99.108 146.924L98.436 147.32ZM98.004 149.672V150.428H100.632V149.672H98.004ZM100.14 155.18L99.54 155.456C100.44 157.436 102.012 157.772 104.82 157.772C106.14 157.772 107.652 157.736 108.78 157.676C108.828 157.424 108.948 157.004 109.08 156.812C107.856 156.908 106.092 156.968 104.832 156.968C102.444 156.968 100.884 156.752 100.14 155.18ZM100.308 152.672V152.828C99.972 155.024 99.048 156.548 97.776 157.352C97.944 157.484 98.244 157.784 98.364 157.976C99.708 157.076 100.704 155.384 101.124 152.816L100.668 152.648L100.512 152.672H100.308ZM98.172 153.572C98.256 153.476 98.568 153.404 98.88 153.404H100.596L100.608 152.672H98.604L98.172 152.888V153.572ZM98.172 153.572C98.172 153.344 98.844 153.008 98.844 153.008C99.552 152.24 100.668 150.716 101.256 149.9L100.656 149.612L100.38 149.732V149.768C99.972 150.404 98.796 152.024 98.412 152.396C98.208 152.636 98.016 152.708 97.836 152.756C97.932 152.948 98.112 153.368 98.172 153.572ZM112.068 148.16V148.94H122.604V148.16H112.068ZM114.78 150.284H119.976V151.364H114.78V150.284ZM113.88 149.612V152.024H120.912V149.612H113.88ZM112.5 152.696V157.94H113.376V153.464H121.932V152.696H112.5ZM121.32 152.696V156.992C121.32 157.136 121.26 157.172 121.104 157.184C120.96 157.184 120.408 157.196 119.88 157.172C120 157.352 120.12 157.64 120.168 157.844C120.936 157.856 121.464 157.844 121.776 157.736C122.112 157.616 122.22 157.424 122.22 156.992V152.696H121.32ZM116.64 147.068C116.82 147.596 117.06 148.292 117.156 148.712L118.068 148.448C117.972 148.052 117.72 147.38 117.516 146.864L116.64 147.068ZM115.2 154.172V154.844H119.016V155.972H115.2V156.644H119.82V154.172H115.2ZM114.732 154.172V157.244H115.572V154.172H114.732ZM130.02 147.98V148.7H133.452V147.98H130.02ZM129.984 155.024V155.66H133.38V155.024H129.984ZM129.576 149.744V150.488H136.812V149.744H129.576ZM131.352 146.9V150.092H132.168V146.9H131.352ZM130.728 151.652H132.732V152.636H130.728V151.652ZM130.044 151.04V153.248H133.44V151.04H130.044ZM135.012 147.452C135.456 148.052 135.912 148.856 136.08 149.372L136.8 149.024C136.608 148.508 136.128 147.728 135.684 147.152L135.012 147.452ZM129.6 156.656L129.708 157.364C130.788 157.196 132.18 156.968 133.572 156.752L133.548 156.092C132.084 156.32 130.608 156.536 129.6 156.656ZM135.804 151.616C135.276 154.1 134.268 156.164 132.684 157.436C132.864 157.568 133.176 157.844 133.296 158C134.904 156.596 135.984 154.424 136.572 151.76L135.804 151.616ZM131.34 153.968V156.68L132.132 156.608V153.968H131.34ZM133.8 146.9C133.884 154.076 134.316 157.904 135.852 157.904C136.536 157.892 136.824 157.556 136.932 155.72C136.74 155.648 136.476 155.456 136.296 155.276C136.248 156.656 136.128 157.052 135.924 157.052C135.204 157.052 134.604 153.848 134.664 146.9H133.8ZM126.516 149.96V150.74H129.288V149.96H126.516ZM125.928 152.06V152.84H129.612V152.06H125.928ZM126.132 153.632C126.312 154.34 126.492 155.264 126.528 155.876L127.116 155.684C127.056 155.084 126.888 154.172 126.684 153.476L126.132 153.632ZM125.808 156.728L125.988 157.532C126.996 157.28 128.376 156.932 129.684 156.584L129.636 155.852C128.208 156.188 126.756 156.524 125.808 156.728ZM128.976 153.332C128.868 153.992 128.652 154.952 128.472 155.54L128.976 155.744C129.168 155.18 129.396 154.304 129.588 153.56L128.976 153.332ZM127.536 150.308V156.836L128.232 156.728V150.308H127.536ZM127.848 146.84C127.344 147.98 126.492 149.072 125.652 149.756C125.772 149.972 125.952 150.464 126.012 150.668C126.936 149.828 127.884 148.508 128.472 147.152L127.848 146.84ZM127.584 148.076C128.304 148.616 129.096 149.372 129.588 149.924L129.96 149.18C129.48 148.652 128.676 147.944 127.932 147.416L127.584 148.076ZM133.08 153.464C132.312 153.656 130.896 153.8 129.696 153.872C129.792 154.028 129.876 154.268 129.9 154.412C131.148 154.388 132.66 154.244 133.632 153.98L133.08 153.464ZM140.028 154.748V155.432H145.5V154.748H140.028ZM139.704 148.964V149.66H145.692V148.964H139.704ZM142.308 147.872V156.704H143.136V147.872H142.308ZM139.692 156.728L139.824 157.508C141.348 157.352 143.52 157.1 145.56 156.86L145.548 156.152C143.4 156.38 141.156 156.596 139.692 156.728ZM140.808 152.504H144.696V153.392H140.808V152.504ZM140.808 151.04H144.696V151.904H140.808V151.04ZM140.052 150.416V154.016H145.464V150.416H140.052ZM145.032 147.02C143.796 147.308 141.612 147.524 139.824 147.62C139.92 147.8 140.004 148.1 140.04 148.292C141.84 148.232 144.072 148.028 145.488 147.716L145.032 147.02ZM145.608 149.708V150.548H149.94V149.708H145.608ZM149.592 149.708V149.924C149.46 154.784 149.328 156.512 149.028 156.884C148.92 157.04 148.8 157.076 148.608 157.076C148.368 157.076 147.84 157.064 147.252 157.016C147.396 157.256 147.492 157.628 147.516 157.88C148.068 157.916 148.644 157.916 148.98 157.88C149.34 157.844 149.58 157.736 149.796 157.424C150.192 156.908 150.312 155.228 150.444 150.164C150.444 150.044 150.456 149.708 150.456 149.708H149.592ZM147.06 147.056C147.048 151.592 147.108 155.396 144.36 157.364C144.576 157.508 144.888 157.796 145.032 158.012C147.9 155.864 147.912 151.832 147.924 147.056H147.06ZM154.716 147.344V148.172H157.152V147.344H154.716ZM154.32 147.344V151.616C154.32 153.368 154.248 155.732 153.492 157.436C153.66 157.52 153.984 157.808 154.116 157.964C154.956 156.14 155.076 153.464 155.076 151.616V147.344H154.32ZM156.624 147.344V156.872C156.624 157.028 156.576 157.088 156.42 157.088C156.276 157.088 155.796 157.1 155.256 157.076C155.364 157.292 155.472 157.652 155.508 157.856C156.264 157.856 156.72 157.844 157.008 157.712C157.284 157.568 157.38 157.316 157.38 156.884V147.344H156.624ZM154.992 153.584L155.34 154.304C155.916 153.872 156.516 153.416 157.128 152.96L156.888 152.432C156.18 152.888 155.484 153.32 154.992 153.584ZM155.028 150.092C155.448 150.524 155.94 151.148 156.18 151.544L156.732 151.16C156.48 150.776 155.976 150.188 155.556 149.756L155.028 150.092ZM162.54 150.272L161.82 150.368C162.12 153.512 162.696 156.332 164.016 157.784C164.148 157.556 164.436 157.244 164.628 157.088C163.38 155.852 162.816 153.14 162.54 150.272ZM164.04 151.628C163.644 152.144 162.924 152.9 162.432 153.32L162.852 153.824C163.38 153.44 164.052 152.828 164.652 152.3L164.04 151.628ZM163.704 146.936C162.408 147.392 160.224 147.8 158.316 148.064C158.424 148.268 158.556 148.604 158.592 148.832C160.512 148.604 162.78 148.232 164.304 147.728L163.704 146.936ZM158.316 148.064V151.232C158.316 153.068 158.244 155.684 157.296 157.544C157.5 157.616 157.86 157.82 158.016 157.964C159 156.032 159.144 153.164 159.144 151.232V148.064H158.316ZM163.656 149.444C162.804 149.804 161.304 150.14 160.008 150.356C160.116 150.56 160.236 150.884 160.284 151.076C161.628 150.908 163.2 150.584 164.304 150.176L163.656 149.444ZM159.804 157.916C159.996 157.724 160.308 157.544 162.336 156.572C162.264 156.404 162.18 156.068 162.132 155.84L160.02 156.776L159.708 157.112L159.804 157.916ZM159.804 157.916C159.804 157.604 160.764 156.908 160.764 156.908V150.356H160.008V156.212C160.008 156.764 159.6 157.136 159.372 157.28C159.504 157.436 159.732 157.736 159.804 157.916ZM172.056 154.724C173.316 154.292 174.132 153.308 174.132 152.012C174.132 151.172 173.772 150.62 173.1 150.62C172.62 150.62 172.188 150.92 172.188 151.484C172.188 152.048 172.596 152.348 173.088 152.348C173.316 152.348 173.556 152.288 173.724 152.072L173.076 151.16L173.304 152.168C173.304 153.08 172.764 153.692 171.78 154.088L172.056 154.724ZM184.716 151.388V152.204H189.636V151.388H184.716ZM184.872 147.548V148.364H190.5V147.548H184.872ZM186.816 148.772V156.164H187.68V148.772H186.816ZM190.08 147.548C190.116 152.804 190.092 156.068 191.616 156.068C192.24 156.068 192.408 155.576 192.516 154.22C192.336 154.076 192.096 153.812 191.94 153.596C191.928 154.46 191.856 155.168 191.688 155.168C190.98 155.168 190.944 151.904 190.968 147.548H190.08ZM181.956 147.32C182.484 147.908 183.156 148.748 183.48 149.252L184.176 148.76C183.84 148.268 183.18 147.5 182.628 146.924L181.956 147.32ZM181.536 149.672V150.428H184.14V149.672H181.536ZM183.66 155.18L183.06 155.456C183.96 157.436 185.532 157.772 188.34 157.772C189.66 157.772 191.172 157.736 192.3 157.676C192.348 157.424 192.468 157.004 192.6 156.812C191.376 156.908 189.612 156.968 188.352 156.968C185.964 156.968 184.404 156.752 183.66 155.18ZM183.828 152.672V152.828C183.492 155.012 182.58 156.548 181.32 157.352C181.5 157.484 181.8 157.784 181.92 157.976C183.24 157.076 184.236 155.372 184.644 152.816L184.188 152.648L184.032 152.672H183.828ZM181.704 153.572C181.8 153.476 182.112 153.404 182.412 153.404H184.032V152.672H182.136L181.704 152.888V153.572ZM181.704 153.572C181.704 153.344 182.388 153.008 182.388 153.008C183.084 152.24 184.188 150.716 184.764 149.9L184.164 149.612L183.9 149.732V149.768C183.492 150.404 182.328 152.024 181.956 152.396C181.74 152.624 181.548 152.708 181.368 152.756C181.464 152.948 181.644 153.368 181.704 153.572ZM200.196 151.46L200.484 152.204L205.668 150.176L205.38 149.432L200.196 151.46ZM201.264 147.992V156.344C201.264 157.508 201.588 157.796 202.716 157.796C202.98 157.796 204.78 157.796 205.056 157.796C206.076 157.796 206.316 157.304 206.424 155.768C206.208 155.72 205.896 155.588 205.692 155.444C205.632 156.74 205.536 157.052 205.008 157.052C204.636 157.052 203.076 157.052 202.776 157.052C202.152 157.052 202.044 156.932 202.044 156.344V147.992H201.264ZM203.316 146.912V155.18H204.096V146.912H203.316ZM196.392 149.24V149.96H200.028V149.24H196.392ZM196.392 151.1V151.82H200.028V151.1H196.392ZM197.928 147.848V153.284H198.684V147.848H197.928ZM198.384 154.208C198.66 154.7 198.948 155.348 199.044 155.78L199.512 155.6C199.392 155.192 199.104 154.532 198.804 154.052L198.384 154.208ZM197.568 154.4C197.784 155.012 197.976 155.828 198.024 156.344L198.504 156.224C198.456 155.72 198.264 154.928 198.024 154.304L197.568 154.4ZM196.716 154.508C196.836 155.228 196.908 156.116 196.884 156.728L197.388 156.656C197.4 156.068 197.328 155.156 197.196 154.448L196.716 154.508ZM195.84 154.328C195.744 155.12 195.552 156.308 195.324 157.016L195.9 157.244C196.116 156.512 196.284 155.312 196.38 154.508L195.84 154.328ZM199.62 152.948V153.092C199.5 155.816 199.356 156.824 199.14 157.052C199.056 157.172 198.96 157.196 198.792 157.196C198.624 157.196 198.216 157.196 197.772 157.148C197.892 157.352 197.964 157.664 197.988 157.88C198.432 157.904 198.876 157.904 199.116 157.88C199.416 157.856 199.608 157.784 199.8 157.556C200.1 157.208 200.244 156.188 200.376 153.32C200.4 153.2 200.4 152.948 200.4 152.948H199.62ZM200.28 147.404H195.936V153.692H199.932V152.948H196.692V148.148H200.28V147.404ZM205.128 149.612C205.14 151.16 205.116 153.26 205.02 154.472L205.716 154.664C205.884 153.356 205.956 151.256 205.956 149.66L205.992 149.516L205.356 149.312L204.996 149.612H205.128ZM215.376 148.316V149.12H220.188V148.316H215.376ZM212.7 148.388V153.14H213.54V148.388H212.7ZM215.82 146.912C215.364 148.244 214.548 149.516 213.612 150.332C213.816 150.476 214.164 150.788 214.308 150.956C215.256 150.044 216.144 148.628 216.696 147.14L215.82 146.912ZM218.436 148.7C217.884 151.064 216.396 152.444 214.08 153.188C214.26 153.356 214.536 153.728 214.644 153.908C217.056 153.008 218.664 151.484 219.336 148.856L218.436 148.7ZM212.052 146.9C211.368 148.22 210.24 149.54 209.112 150.392C209.292 150.548 209.592 150.908 209.7 151.088C210.864 150.14 212.076 148.664 212.856 147.176L212.052 146.9ZM210.864 149.132V153.74H211.716V148.304L211.704 148.292L210.864 149.132ZM212.1 154.4V156.56C212.1 157.532 212.46 157.784 213.852 157.784C214.14 157.784 216.312 157.784 216.612 157.784C217.764 157.784 218.052 157.424 218.172 155.948C217.932 155.9 217.56 155.768 217.356 155.624C217.296 156.8 217.188 156.956 216.552 156.956C216.072 156.956 214.248 156.956 213.888 156.956C213.12 156.956 212.988 156.896 212.988 156.548V154.4H212.1ZM213.492 154.208C214.272 154.736 215.256 155.492 215.724 156.008L216.408 155.48C215.904 154.988 214.92 154.244 214.14 153.752L213.492 154.208ZM217.812 154.628C218.46 155.504 219.204 156.692 219.504 157.448L220.356 157.088C220.032 156.344 219.276 155.168 218.604 154.328L217.812 154.628ZM210.732 154.592C210.48 155.432 210.012 156.5 209.436 157.148L210.228 157.592C210.804 156.884 211.236 155.756 211.524 154.88L210.732 154.592ZM215.076 150.44C216.66 151.46 218.628 152.936 219.576 153.86L220.26 153.248C219.252 152.3 217.26 150.884 215.7 149.924L215.076 150.44ZM226.164 148.544V149.3H230.148V148.544H226.164ZM227.628 150.668V151.424H229.452V150.668H227.628ZM229.14 150.668V150.824C229.02 154.016 228.9 155.144 228.696 155.408C228.612 155.528 228.528 155.552 228.384 155.552C228.24 155.552 227.928 155.552 227.568 155.516C227.688 155.72 227.76 156.044 227.784 156.272C228.144 156.284 228.516 156.284 228.732 156.26C229.008 156.224 229.2 156.152 229.368 155.924C229.668 155.54 229.788 154.4 229.908 151.04C229.908 150.92 229.92 150.668 229.92 150.668H229.14ZM230.724 148.256V149.024H234.216V148.256H230.724ZM230.172 152.48V153.212H234.216V152.48H230.172ZM230.64 150.032V150.74H233.448V150.032H230.64ZM231.096 146.864C230.82 148.064 230.34 149.24 229.716 150.032C229.896 150.152 230.22 150.392 230.364 150.524C230.988 149.672 231.54 148.364 231.864 147.056L231.096 146.864ZM231.804 151.652V155.348C231.804 155.468 231.768 155.504 231.624 155.504C231.492 155.504 231.036 155.504 230.532 155.492C230.64 155.72 230.772 156.032 230.796 156.26C231.48 156.26 231.936 156.248 232.212 156.116C232.524 155.984 232.584 155.756 232.584 155.36V151.652H231.804ZM233.196 150.032V150.188C232.908 150.644 232.32 151.268 231.804 151.652C231.936 151.76 232.152 151.976 232.248 152.132C232.86 151.688 233.556 151.004 234.036 150.368L233.532 149.984L233.388 150.032H233.196ZM227.208 148.892V150.62C227.208 152.072 227.076 154.076 225.96 155.576C226.14 155.684 226.404 155.924 226.536 156.08C227.784 154.46 227.952 152.252 227.952 150.632V148.892H227.208ZM227.46 147.08C227.688 147.596 227.952 148.28 228.072 148.724L228.888 148.508C228.768 148.088 228.492 147.428 228.24 146.912L227.46 147.08ZM223.668 147.284C224.148 147.884 224.736 148.724 225.012 149.228L225.732 148.784C225.456 148.292 224.856 147.512 224.364 146.924L223.668 147.284ZM223.272 149.672V150.428H225.864V149.672H223.272ZM225.408 155.18L224.808 155.456C225.72 157.436 227.292 157.748 230.112 157.748C231.432 157.748 232.944 157.724 234.084 157.652C234.132 157.412 234.24 157.004 234.372 156.812C233.136 156.92 231.384 156.968 230.112 156.968C227.712 156.968 226.152 156.752 225.408 155.18ZM225.36 152.672V152.828C225.06 154.988 224.232 156.524 223.068 157.34C223.248 157.472 223.548 157.784 223.668 157.964C224.904 157.04 225.804 155.336 226.176 152.816L225.768 152.648L225.624 152.672H225.36ZM223.476 153.572C223.572 153.476 223.884 153.404 224.184 153.404H225.804V152.672H223.908L223.476 152.888V153.572ZM223.476 153.572C223.476 153.344 224.16 153.008 224.16 153.008C224.82 152.24 225.876 150.68 226.416 149.876L225.816 149.612L225.552 149.72V149.756C225.168 150.392 224.064 152.024 223.704 152.396C223.512 152.624 223.32 152.708 223.14 152.756C223.236 152.936 223.416 153.356 223.476 153.572ZM242.676 150.608C241.668 150.608 240.84 151.424 240.84 152.432C240.84 153.452 241.668 154.268 242.676 154.268C243.684 154.268 244.5 153.452 244.5 152.432C244.5 151.424 243.684 150.608 242.676 150.608ZM242.676 153.656C242.004 153.656 241.452 153.116 241.452 152.432C241.452 151.772 242.004 151.22 242.676 151.22C243.348 151.22 243.888 151.772 243.888 152.432C243.888 153.116 243.348 153.656 242.676 153.656Z" fill="black"/>
</svg>
