<svg width="564" height="259" viewBox="0 0 564 259" fill="none" xmlns="http://www.w3.org/2000/svg">
<path d="M133.42 2.54004V40.92H129.6V38.71H102.38V41.05H98.56V2.54004H133.42ZM129.6 4.49004H102.38V36.75H129.6V4.50004V4.49004ZM104.29 33.11L103.03 29.59C107.68 28.81 113.1 27.25 116.49 25.99L117.05 27.38C113.84 29.42 108.41 31.85 104.29 33.11ZM116.4 12.96H103.2V11.01H116.27C116.18 9.27004 116.14 7.45004 116.14 5.54004H119.61C119.61 7.32004 119.61 9.14004 119.7 11.01H123.87C123.04 9.32004 121.87 7.19004 121.09 5.89004L122.3 4.98004C123.73 6.02004 125.9 8.19004 126.99 9.71004L125.12 11.01H128.81V12.96H119.78C120 16.48 120.34 19.95 121 22.9C121.96 20.69 122.74 18.12 123.52 15L126.86 16.22C125.47 20.65 124.04 24.08 122.21 26.86C122.91 28.47 123.73 29.73 124.77 30.42C125.81 31.11 125.9 28.81 125.9 24.43H127.46C129.54 31.2 128.46 37.28 123.77 34.24C122.21 33.24 120.95 31.72 119.95 29.77C117.69 32.16 114.91 33.98 111.14 35.72L110.4 34.37C114.18 32.07 116.78 29.9 118.73 27.03C117.47 23.43 116.73 18.7 116.39 12.96H116.4ZM104.55 25.38V15.91H115.01V25.37H104.55V25.38ZM107.76 23.56H111.8V17.74H107.76V23.56Z" fill="#D08421"/>
<path d="M181.99 35.3602L180.69 39.6102C176.05 39.9102 168.71 40.0402 163.46 39.8302C154.56 39.4802 152.09 36.6602 150.26 33.2802C148.83 36.3602 147.18 39.1402 145.22 41.3502L142.4 38.7002C144.35 37.1802 146.57 34.7502 148.04 32.6702V22.8602H142.79V20.9102H151.95V32.5902C154.34 36.1502 159.81 36.3202 163.67 36.3202C169.31 36.3202 177 36.0202 181.99 35.3602ZM149.17 17.8702C147.69 15.8702 145.18 13.0102 143.14 10.9202L143.97 9.57023C146.4 10.7402 149.57 12.6502 151.96 14.7802L149.18 17.8602L149.17 17.8702ZM144.57 2.24023L145.35 0.980234C147.74 1.94023 151.04 3.80023 153.34 5.80023L150.6 8.88023C148.99 6.80023 146.82 4.41023 144.57 2.24023ZM164.89 9.53023H153.69V7.62023H161.72C160.55 5.45023 159.12 3.06023 157.99 1.37023L159.08 0.240234C161.38 1.76023 164.16 4.28023 165.55 6.06023L163.42 7.62023H169.84C170.71 5.58023 171.49 2.76023 171.97 0.240234L176.27 1.54023C175.05 3.67023 173.32 6.01023 171.71 7.62023H180.61V9.53023H169.11C168.29 10.9602 167.2 12.5702 166.2 13.8302H177.62V34.0602H173.8V31.7602H161.17V34.1902H157.35V13.8302H164.12C164.47 12.4802 164.73 10.8802 164.9 9.53023H164.89ZM173.79 15.7802H161.16V18.9902H173.79V15.7802ZM173.79 20.8602H161.16V24.3802H173.79V20.8602ZM173.79 26.2402H161.16V29.8002H173.79V26.2402Z" fill="#D08421"/>
<path d="M226.13 17.6099V20.4299H189.97V17.6099H226.13Z" fill="#D08421"/>
<path d="M247.53 37.4501C246.53 41.1001 242.75 42.4001 237.68 37.1501L238.46 35.8501C243.19 38.1101 243.97 37.4601 244.41 35.8101C244.8 34.3301 245.37 30.6401 245.76 26.2601H241.16C240.81 27.4701 240.42 28.6001 240.12 29.5201L236.65 28.9601C237.52 26.6601 238.78 22.5401 239.43 19.7601H235V17.8101H250.58V19.7601H242.98C242.63 21.1501 242.2 22.7601 241.72 24.3201H249.36C248.84 30.9201 248.4 34.3501 247.54 37.4701L247.53 37.4501ZM249.05 14.6201H236.72V3.37014H249.05V14.6101V14.6201ZM245.66 5.33014H240.1V12.4501H245.66V5.32014V5.33014ZM254.86 20.0001C254.86 31.4601 252.65 36.8901 248 41.6601L246.83 40.6201C251.13 34.7201 251.21 27.6801 251.21 18.8301V8.79014L254.86 9.57014H258.68V0.890137H262.41V4.49014H271.22V6.44014H262.41V9.57014H268.71L269.84 9.01014L272.97 11.0101C271.62 12.9201 270.02 14.6101 268.46 15.5201L267.42 14.6901C267.94 13.7801 268.51 12.3901 268.81 11.4801H254.87V17.6001L258.69 17.2101V12.3001H262.08V16.8101C264.55 16.5101 266.99 16.1601 269.42 15.7701L269.9 17.5901C267.38 17.9801 264.73 18.3301 262.09 18.6301V19.0601C262.09 20.4901 262.48 20.9301 264.7 20.9301C267.17 20.9301 268.35 20.4501 269.39 19.3201L271 21.7901C269.87 23.1401 267.7 23.8701 264.88 23.8701C259.89 23.8701 258.72 23.1801 258.72 19.7501V19.0101C257.42 19.1801 256.16 19.3101 254.9 19.4401V19.9601L254.86 20.0001ZM260.46 25.2501C260.59 35.1501 257.94 38.8801 251.82 41.7501L251.04 40.4501C255.64 37.1901 256.99 33.9401 256.9 25.2601H260.46V25.2501ZM269.19 40.1001C264.54 40.1001 263.2 39.4501 263.2 35.8001V25.3801H266.59V34.8001C266.59 36.5401 267.11 36.8401 269.24 36.8401C270.93 36.8401 271.32 35.9301 271.28 30.8501H272.8C274.23 36.8401 274.8 40.1001 269.2 40.1001H269.19Z" fill="#D08421"/>
<path d="M286.42 31.79C287.83 32.67 291.1 34.07 294.6 34.07C300.97 34.07 302.97 30.02 302.94 26.93C302.88 21.75 298.21 19.56 293.41 19.55H290.62V15.81H293.41C297.03 15.81 301.62 13.94 301.62 9.59C301.62 6.63 299.74 4.03 295.14 4.03C292.21 4.03 289.37 5.32 287.79 6.46L286.45 2.85C288.39 1.42 292.13 0 296.09 0C303.38 0 306.68 4.29 306.68 8.8C306.68 12.61 304.36 15.84 299.88 17.48V17.59C304.41 18.45 308.07 21.89 308.07 27.04C308.07 32.92 303.45 38.09 294.63 38.09C290.49 38.09 286.88 36.81 285.09 35.57L286.42 31.77V31.79Z" fill="#D08421"/>
<path d="M360.42 17.43L357.47 22.34C355.34 21.26 353.48 19.91 351.91 18.26C351.26 29.37 350.78 34.02 350.09 36.71C349.13 40.4 344.88 42.31 336.72 37.06L337.24 35.58C344.49 37.62 345.79 37.06 346.36 34.41C346.84 32.2 347.23 28.24 347.53 20.56H338.67C337.84 27.2 335.15 37.4 322.52 41.61L321.83 40.13C331.95 34.96 333.77 26.24 334.51 20.55H327.04V19.16C325.48 20.55 323.65 21.85 321.48 23.07L320.61 21.77C327.17 16.39 329.9 10.66 331.9 3.18996L336.2 4.74996C334.72 8.99996 332.64 13.82 328.17 18.16H351.83C348.7 14.9 346.62 10.48 345.67 4.82996H337.94V2.45996H347.32C348.49 8.92996 351.7 14.09 360.43 17.44L360.42 17.43Z" fill="#D08421"/>
<path d="M381.94 33.97C379.21 35.84 372.22 38.62 367.96 39.74L366.7 35.44C368.35 35.27 370.52 35.01 372.73 34.61V21.07H367.13V19.12H372.73V14.3H369.21V14.17L367.56 15.56L366.74 14.56C370.26 10.26 372.25 6.05 373.51 0.49L377.55 1.84L376.9 3.32C378.9 4.75 381.33 6.92 382.93 9.01L379.89 11.35C378.85 9.01 377.42 6.57 376.2 4.84C374.72 7.79 373.12 10.18 371.08 12.35H380.28V14.3H376.37V19.12H381.67V21.07H376.37V33.96C378.32 33.53 380.15 33.09 381.49 32.61L381.92 33.96L381.94 33.97ZM371.91 31.5L368.48 32.06C368.48 29.33 368.22 26.33 367.74 23.47L369.09 23.08C370.48 25.86 371.48 28.77 371.91 31.5ZM378.9 22.77L382.2 23.68C381.46 26.11 380.16 29.24 378.42 31.71L377.12 31.23C377.99 28.45 378.64 25.2 378.9 22.76V22.77ZM395.44 37.7H405.47V39.65H381.33V37.7H391.79V34.49H383.41V32.54H391.79V29.54H383.98V18.21H403.25V29.54H395.44V32.54H403.95V34.49H395.44V37.7ZM405.47 13.87V15.82H382.24V13.87H388.66C388.1 11.87 387.36 9.75 386.58 7.84L387.36 7.32H383.11V5.37H393.36C391.84 3.98 390.28 2.72 388.45 1.51L388.93 0.25C391.01 0.68 393.84 1.64 396.35 3.07L394.83 5.37H404.25V7.32H398.17L400.56 8.1C399.56 10.14 398.22 12.27 396.91 13.87H405.46H405.47ZM391.8 20.16H387.55V22.81H391.8V20.16ZM391.8 24.76H387.55V27.58H391.8V24.76ZM392.23 12.95L390.28 13.86H395.01C395.88 11.6 396.49 9.22 396.79 7.31H388.02C389.67 8.96 391.06 10.83 392.23 12.95ZM395.53 22.8H399.7V20.15H395.53V22.8ZM395.53 27.58H399.7V24.76H395.53V27.58Z" fill="#D08421"/>
<path d="M103.76 77.1V77.24H102.23L102.2 77.1C101.93 75.78 101.12 74.95 99.65 74.95C97.84 74.95 96.69 76.51 96.69 78.82C96.69 81.24 97.85 82.75 99.58 82.75C101.05 82.75 101.86 81.88 102.13 80.57L102.16 80.43H103.71V80.57C103.5 82.48 102.07 83.94 99.51 83.94C96.72 83.94 95 81.87 95 78.9C95 75.93 96.93 73.77 99.68 73.77C102.23 73.77 103.56 75.19 103.76 77.12V77.1Z" fill="#969696"/>
<path d="M114.65 79.9698C114.65 82.1698 113.36 83.9398 110.84 83.9398C108.32 83.9398 107.03 82.1698 107.03 79.9698C107.03 77.7698 108.31 76.0098 110.84 76.0098C113.37 76.0098 114.65 77.7698 114.65 79.9698ZM112.99 79.9698C112.99 78.2698 112.2 77.1498 110.84 77.1498C109.48 77.1498 108.67 78.2698 108.67 79.9698C108.67 81.6698 109.46 82.8098 110.84 82.8098C112.22 82.8098 112.99 81.6798 112.99 79.9698Z" fill="#969696"/>
<path d="M124.98 79.4998V83.7398H123.42V79.6698C123.42 79.3098 123.42 78.9898 123.39 78.6098C123.32 77.7598 122.87 77.1598 121.8 77.1598C120.73 77.1598 119.84 78.0098 119.84 80.3598V83.7398H118.28V76.2098H119.84V77.4598L120.35 76.5898C120.94 76.1398 121.5 76.0098 122.25 76.0098C123.87 76.0098 124.79 76.8498 124.93 78.1598C124.96 78.5398 124.97 78.8798 124.97 79.4898L124.98 79.4998Z" fill="#969696"/>
<path d="M132.87 83.74H131.06L128.18 76.21H129.9L132.01 82.59L134.09 76.21H135.75L132.87 83.74Z" fill="#969696"/>
<path d="M145.3 80.4098H139.9C140.03 82.2098 140.85 82.8098 141.87 82.8098C142.78 82.8098 143.49 82.2598 143.64 81.3098H145.21C144.88 83.0998 143.45 83.9498 141.81 83.9498C139.8 83.9498 138.28 82.6698 138.28 80.0098C138.28 77.6298 139.8 76.0298 141.97 76.0298C144.14 76.0298 145.33 77.6698 145.33 79.7998C145.33 79.9398 145.33 80.1498 145.3 80.4198V80.4098ZM139.91 79.3198H143.72C143.61 77.9298 143 77.1498 141.91 77.1498C140.82 77.1498 140.08 77.8698 139.91 79.3198Z" fill="#969696"/>
<path d="M155.78 79.4998V83.7398H154.22V79.6698C154.22 79.3098 154.22 78.9898 154.19 78.6098C154.12 77.7598 153.67 77.1598 152.6 77.1598C151.53 77.1598 150.64 78.0098 150.64 80.3598V83.7398H149.08V76.2098H150.64V77.4598L151.15 76.5898C151.75 76.1398 152.3 76.0098 153.05 76.0098C154.67 76.0098 155.59 76.8498 155.73 78.1598C155.76 78.5398 155.77 78.8798 155.77 79.4898L155.78 79.4998Z" fill="#969696"/>
<path d="M161.64 74.4798C161.64 75.0098 161.24 75.3898 160.72 75.3898C160.2 75.3898 159.81 75.0098 159.81 74.4798C159.81 73.9498 160.19 73.5898 160.72 73.5898C161.25 73.5898 161.64 73.9698 161.64 74.4798ZM159.94 83.7398V76.2098H161.5V83.7398H159.94Z" fill="#969696"/>
<path d="M172.22 80.4098H166.82C166.95 82.2098 167.77 82.8098 168.79 82.8098C169.7 82.8098 170.41 82.2598 170.56 81.3098H172.13C171.8 83.0998 170.37 83.9498 168.73 83.9498C166.72 83.9498 165.2 82.6698 165.2 80.0098C165.2 77.6298 166.72 76.0298 168.89 76.0298C171.06 76.0298 172.25 77.6698 172.25 79.7998C172.25 79.9398 172.25 80.1498 172.22 80.4198V80.4098ZM166.83 79.3198H170.64C170.53 77.9298 169.92 77.1498 168.83 77.1498C167.74 77.1498 167 77.8698 166.83 79.3198Z" fill="#969696"/>
<path d="M182.69 79.4998V83.7398H181.13V79.6698C181.13 79.3098 181.13 78.9898 181.1 78.6098C181.03 77.7598 180.58 77.1598 179.51 77.1598C178.44 77.1598 177.55 78.0098 177.55 80.3598V83.7398H175.99V76.2098H177.55V77.4598L178.06 76.5898C178.65 76.1398 179.21 76.0098 179.96 76.0098C181.58 76.0098 182.5 76.8498 182.64 78.1598C182.67 78.5398 182.68 78.8798 182.68 79.4898L182.69 79.4998Z" fill="#969696"/>
<path d="M188.71 81.3C188.71 81.56 188.71 81.73 188.72 81.92C188.78 82.66 189.06 82.81 190.08 82.71V83.79C189.68 83.85 189.31 83.87 188.93 83.87C187.75 83.87 187.24 83.43 187.17 82.44C187.16 82.19 187.16 81.86 187.16 81.43V77.35H186.1V76.26H187.16V74.46H188.7V76.26H190.17V77.35H188.7V81.29L188.71 81.3Z" fill="#969696"/>
<path d="M203.45 75.19V83.74H201.91V75.19H198.49V73.96H206.87V75.19H203.45Z" fill="#969696"/>
<path d="M213.19 76.11V77.33C211.76 77.23 210.86 77.97 210.86 79.83V83.74H209.3V76.21H210.86V77.49L211.5 76.45C211.84 76.18 212.28 76.02 212.66 76.02C212.87 76.02 213.03 76.05 213.18 76.11H213.19Z" fill="#969696"/>
<path d="M220.77 82.65L220.39 83.46C219.88 83.81 219.23 83.94 218.52 83.94C217.19 83.94 216.1 83.17 216.1 81.77C216.1 80.1 217.43 79.19 220.28 79.19H220.76V79.01C220.76 78.72 220.76 78.47 220.73 78.19C220.69 77.58 220.3 77.15 219.41 77.15C218.52 77.15 218.03 77.66 217.95 78.6H216.39C216.49 76.96 217.72 76.02 219.44 76.02C221.38 76.02 222.15 76.84 222.28 78.12C222.31 78.43 222.32 78.83 222.32 79.18V81.83C222.32 82.4 222.35 82.91 222.46 83.74H220.92L220.78 82.65H220.77ZM220.76 80.92V80.23C218.93 80.09 217.74 80.5 217.74 81.65C217.74 82.44 218.26 82.81 219.09 82.81C220.07 82.81 220.76 82.14 220.76 80.92Z" fill="#969696"/>
<path d="M233.26 79.4998V83.7398H231.7V79.6698C231.7 79.3098 231.7 78.9898 231.67 78.6098C231.6 77.7598 231.15 77.1598 230.08 77.1598C229.01 77.1598 228.12 78.0098 228.12 80.3598V83.7398H226.56V76.2098H228.12V77.4598L228.63 76.5898C229.22 76.1398 229.78 76.0098 230.53 76.0098C232.15 76.0098 233.07 76.8498 233.21 78.1598C233.24 78.5398 233.25 78.8798 233.25 79.4898L233.26 79.4998Z" fill="#969696"/>
<path d="M242.71 78.3698H241.12C240.96 77.5798 240.5 77.1098 239.73 77.1098C238.96 77.1098 238.64 77.5198 238.64 78.0898C238.64 78.7698 239.19 79.0498 240.31 79.3498C241.95 79.7798 242.82 80.4298 242.82 81.7598C242.82 83.2198 241.53 83.9398 239.89 83.9398C238.25 83.9398 236.98 83.1898 236.77 81.4898H238.34C238.52 82.4498 239.16 82.8398 239.94 82.8398C240.66 82.8398 241.24 82.5298 241.24 81.8798C241.24 81.2298 240.73 80.8698 239.45 80.5298C238.07 80.1798 237.05 79.5898 237.05 78.2798C237.05 76.8798 238.16 76.0298 239.83 76.0298C241.5 76.0298 242.52 77.0098 242.69 78.3798L242.71 78.3698Z" fill="#969696"/>
<path d="M253.92 79.84C253.92 82.6 252.22 83.94 250.28 83.94C249.66 83.94 248.88 83.77 248.49 83.47L247.99 82.72V86.52H246.43V76.22H247.99V77.4L248.56 76.59C248.98 76.23 249.77 76.02 250.53 76.02C252.69 76.02 253.92 77.65 253.92 79.85V79.84ZM252.28 79.98C252.28 78.35 251.53 77.15 250.17 77.15C249.01 77.15 248 77.89 248 79.9V80.28C248 82.12 249.11 82.8 250.1 82.8C251.35 82.8 252.28 81.85 252.28 79.98Z" fill="#969696"/>
<path d="M264.64 79.9698C264.64 82.1698 263.35 83.9398 260.83 83.9398C258.31 83.9398 257.02 82.1698 257.02 79.9698C257.02 77.7698 258.3 76.0098 260.83 76.0098C263.36 76.0098 264.64 77.7698 264.64 79.9698ZM262.98 79.9698C262.98 78.2698 262.19 77.1498 260.82 77.1498C259.45 77.1498 258.65 78.2698 258.65 79.9698C258.65 81.6698 259.44 82.8098 260.82 82.8098C262.2 82.8098 262.98 81.6798 262.98 79.9698Z" fill="#969696"/>
<path d="M272.16 76.11V77.33C270.73 77.23 269.84 77.97 269.84 79.83V83.74H268.28V76.21H269.84V77.49L270.48 76.45C270.82 76.18 271.26 76.02 271.64 76.02C271.85 76.02 272.01 76.05 272.16 76.11Z" fill="#969696"/>
<path d="M277.41 81.3C277.41 81.56 277.41 81.73 277.42 81.92C277.48 82.66 277.76 82.81 278.78 82.71V83.79C278.38 83.85 278.01 83.87 277.63 83.87C276.45 83.87 275.94 83.43 275.87 82.44C275.86 82.19 275.86 81.86 275.86 81.43V77.35H274.8V76.26H275.86V74.46H277.4V76.26H278.87V77.35H277.4V81.29L277.41 81.3Z" fill="#969696"/>
<path d="M286.76 82.65L286.38 83.46C285.87 83.81 285.22 83.94 284.51 83.94C283.18 83.94 282.09 83.17 282.09 81.77C282.09 80.1 283.42 79.19 286.27 79.19H286.75V79.01C286.75 78.72 286.75 78.47 286.72 78.19C286.68 77.58 286.3 77.15 285.4 77.15C284.5 77.15 284.02 77.66 283.94 78.6H282.38C282.48 76.96 283.71 76.02 285.43 76.02C287.37 76.02 288.14 76.84 288.27 78.12C288.3 78.43 288.31 78.83 288.31 79.18V81.83C288.31 82.4 288.34 82.91 288.45 83.74H286.91L286.77 82.65H286.76ZM286.75 80.92V80.23C284.92 80.09 283.73 80.5 283.73 81.65C283.73 82.44 284.25 82.81 285.08 82.81C286.06 82.81 286.75 82.14 286.75 80.92Z" fill="#969696"/>
<path d="M294.42 81.3C294.42 81.56 294.42 81.73 294.43 81.92C294.49 82.66 294.77 82.81 295.79 82.71V83.79C295.39 83.85 295.02 83.87 294.64 83.87C293.46 83.87 292.95 83.43 292.88 82.44C292.87 82.19 292.87 81.86 292.87 81.43V77.35H291.81V76.26H292.87V74.46H294.41V76.26H295.88V77.35H294.41V81.29L294.42 81.3Z" fill="#969696"/>
<path d="M301.28 74.4798C301.28 75.0098 300.88 75.3898 300.36 75.3898C299.84 75.3898 299.45 75.0098 299.45 74.4798C299.45 73.9498 299.83 73.5898 300.36 73.5898C300.89 73.5898 301.28 73.9698 301.28 74.4798ZM299.58 83.7398V76.2098H301.14V83.7398H299.58Z" fill="#969696"/>
<path d="M312.46 79.9698C312.46 82.1698 311.17 83.9398 308.65 83.9398C306.13 83.9398 304.84 82.1698 304.84 79.9698C304.84 77.7698 306.12 76.0098 308.65 76.0098C311.18 76.0098 312.46 77.7698 312.46 79.9698ZM310.8 79.9698C310.8 78.2698 310.01 77.1498 308.65 77.1498C307.29 77.1498 306.48 78.2698 306.48 79.9698C306.48 81.6698 307.27 82.8098 308.65 82.8098C310.03 82.8098 310.8 81.6798 310.8 79.9698Z" fill="#969696"/>
<path d="M322.79 79.4998V83.7398H321.23V79.6698C321.23 79.3098 321.23 78.9898 321.2 78.6098C321.13 77.7598 320.68 77.1598 319.61 77.1598C318.54 77.1598 317.65 78.0098 317.65 80.3598V83.7398H316.09V76.2098H317.65V77.4598L318.16 76.5898C318.75 76.1398 319.31 76.0098 320.06 76.0098C321.68 76.0098 322.6 76.8498 322.74 78.1598C322.77 78.5398 322.78 78.8798 322.78 79.4898L322.79 79.4998Z" fill="#969696"/>
<line x1="1" y1="3.02002" x2="0.999989" y2="255.02" stroke="#D68F41" stroke-width="2"/>
</svg>
