<svg width="523" height="407" viewBox="0 0 523 407" fill="none" xmlns="http://www.w3.org/2000/svg">
<path d="M20.32 88.6801V80.6901H2.75V78.1001H20.32V70.5801H24.83V78.1001H42.45V80.6901H24.83V88.6801H39.68V91.2601H5.8V88.6801H20.32ZM36.58 96.2901V113.77H32.16V109.78H13.09V113.92H8.67V96.3001H36.59L36.58 96.2901ZM32.16 98.6401H13.09V107.43H32.17V98.6401H32.16Z" fill="black"/>
<path d="M61.9597 93.1501C60.4597 99.6801 58.4797 107.53 56.7897 111.76L52.1797 109.22C54.6697 104.85 57.8697 98.3601 60.3597 92.4901L61.9597 93.1501ZM58.9497 90.0001C56.8397 87.3201 54.3397 84.5501 52.2297 82.4301L53.0797 81.0201C55.7097 82.1501 59.2797 84.1701 61.9197 86.4301L58.9597 90.0001H58.9497ZM59.3297 79.1401C57.6897 76.4601 55.4297 73.6401 53.6397 71.4301L54.6697 70.1101C56.8797 71.1901 60.1197 73.3501 62.6097 75.9901L59.3197 79.1401H59.3297ZM83.2997 95.9701V109.36C83.2997 113.59 79.4497 115.66 72.4397 111.29L72.8597 109.64C78.4097 110.86 79.1597 110.53 79.1597 108.18V95.9601H71.3097V80.5001H78.7797C79.0597 78.8501 79.2997 77.1201 79.4897 75.3301H68.5397V87.5001C68.5397 100.14 65.9597 108.55 61.2097 114.05L59.7997 112.97C64.0297 105.87 64.2197 98.6401 64.2197 87.7301V73.2101H94.2497V75.3301H84.0997C83.2097 77.1201 81.9897 79.0001 80.8597 80.5001H91.1497V95.9601H83.2997V95.9701ZM77.1897 100.2C75.3597 103.77 70.1897 109.04 66.9897 111.29L65.7697 110.07C68.2597 107.25 71.3197 102.65 73.2897 98.3201L77.1897 100.2ZM75.3597 86.9501H87.1097V82.6301H75.3597V86.9501ZM75.3597 93.8601H87.1097V89.0701H75.3597V93.8601ZM94.6797 108.52L90.6397 111.01C89.3697 107.86 87.0197 102.88 85.1397 99.4501L86.4997 98.4601C89.5097 101.33 92.9897 105.65 94.6797 108.52Z" fill="black"/>
<path d="M113.15 94.5102V109.55C113.15 113.64 109.34 115.24 102.9 110.91L103.37 109.36C108.3 110.53 109.29 110.25 109.29 108.04V96.7102C107.55 97.6502 105.86 98.4501 104.36 99.0602L102.71 94.5502C104.36 94.2202 106.75 93.6102 109.29 92.7602V82.6102H103.37V80.5002H109.29V70.4402H113.14V80.5002H117.65V82.6102H113.14V91.3502C114.64 90.7902 116.1 90.1302 117.37 89.4702L118.22 90.9702C116.67 92.1902 114.93 93.3701 113.14 94.4902L113.15 94.5102ZM144.36 110.11V112.22H117.48V110.11H128.66V98.5002H119.07V96.3801H142.76V98.5002H132.89V110.11H144.36ZM122.32 86.0502H118.47V77.0702H130.27C128.48 75.2402 126.42 73.2602 124.49 71.6602L125.29 70.1602C127.64 70.9102 131.35 72.6001 133.75 74.3401L131.73 77.0702H143.29V85.7602H139.34V79.1802H136.14V87.4501C136.14 89.4201 136.47 89.8502 138.44 89.9402C140.23 90.0302 141.59 89.8001 142.53 88.9501L144.03 92.0002C142.57 92.8902 140.46 93.3202 137.07 93.2202C133.31 93.1302 132.37 92.2802 132.37 88.2402V79.1702H129.36V82.1301C129.36 87.9102 127.39 93.4101 118.41 95.9501L117.75 94.4002C123.39 91.7702 125.5 88.8501 125.5 82.1301V79.1702H122.3V86.0302L122.32 86.0502Z" fill="black"/>
<path d="M159.02 109.32L159.58 107.82C163.62 109.14 165.41 109.09 165.41 107.02V95.8801H160.29C159.63 104.01 157.66 110.82 154.98 114.35L153.57 113.46C156.11 106.88 156.44 100.72 156.44 88.8801V72.1501H169.46V108.43C169.46 112.57 164.76 114.16 159.03 109.32H159.02ZM165.41 85.5401H160.48V90.3801C160.48 91.5101 160.43 92.6401 160.39 93.7601H165.42V85.5401H165.41ZM165.41 74.2601H160.48V83.4701H165.41V74.2601ZM193.98 114.3C189.75 113.13 185.76 111.1 182.47 108C178.62 111.1 173.82 113.08 168.09 114.49L167.53 112.89C172.98 110.92 177.12 108.57 180.22 105.51C177.78 102.46 175.9 98.5501 174.82 93.5701H170.87V91.4501H186.9L187.89 90.5601L191.88 92.3001C190.42 97.8501 188.26 102.03 185.39 105.27C188.63 107.29 192.44 108.47 196.48 109.26L193.99 114.29L193.98 114.3ZM171.19 90.8501L170.3 89.3901C174.44 86.4301 174.62 82.3401 174.62 76.2801V72.6101L188.39 72.5601V82.4301C188.39 83.8401 188.72 84.2601 191.02 84.2601C192.19 84.2601 193.14 84.3101 194.31 83.1801L196 86.2301C194.5 87.6401 192.95 87.7801 190.22 87.7801C185 87.7801 184.34 86.6101 184.34 83.2201V74.7101H178.65V76.9201C178.65 84.1101 175.83 88.7201 171.18 90.8301L171.19 90.8501ZM176.55 93.5801C177.87 97.7201 179.89 100.77 182.42 103.07C184.49 100.39 185.94 97.2401 186.84 93.5801H176.55Z" fill="black"/>
<path d="M6.52 28.75C3.8 28.75 1.76 27.95 0 26.19L2.04 24.15C3.08 25.19 4.16 26.03 6.52 26.03C10.24 26.03 12.36 23.67 12.36 19.47V0.0400391H15.4V19.88C15.4 25.36 11.72 28.76 6.52 28.76V28.75Z" fill="#D68F41"/>
<path d="M24.1602 3.24V0H27.4002V3.24H24.1602ZM24.3202 28.52V8.84H27.2002V28.52H24.3202Z" fill="#D68F41"/>
<path d="M55.8403 16.76V28.52H52.8003V16.76L44.3203 0.0400391H47.6003L54.3203 13.68L60.9603 0.0400391H64.2403L55.8403 16.76Z" fill="#D68F41"/>
<path d="M80.6 28.5201V26.3201C79.2 27.9201 77.24 28.7601 75.04 28.7601C72.84 28.7601 71.16 28.1201 69.96 26.9201C68.56 25.5601 67.96 23.6801 67.96 21.4001V8.84009H70.84V20.9601C70.84 24.4401 72.68 26.2001 75.64 26.2001C78.6 26.2001 80.56 24.4001 80.56 20.9601V8.84009H83.44V28.5201H80.6Z" fill="#D68F41"/>
<path d="M103.4 28.5201V26.6401C101.8 28.2401 100.36 28.7601 97.7197 28.7601C95.0797 28.7601 93.3997 28.2401 92.1597 26.9601C91.1997 26.0001 90.6797 24.5201 90.6797 22.9601C90.6797 19.5201 93.0797 17.2801 97.4797 17.2801H103.4V15.4001C103.4 12.5201 101.96 11.0801 98.3597 11.0801C95.8397 11.0801 94.5597 11.6801 93.3997 13.3201L91.4397 11.5201C93.1997 9.2401 95.1997 8.6001 98.3997 8.6001C103.68 8.6001 106.28 10.8801 106.28 15.1601V28.5201H103.4ZM103.4 19.4401H97.8797C94.9197 19.4401 93.4797 20.6401 93.4797 22.9201C93.4797 25.2001 94.8797 26.2801 97.9997 26.2801C99.6797 26.2801 101.16 26.1601 102.4 24.9601C103.08 24.3201 103.4 23.2001 103.4 21.5601V19.4401Z" fill="#D68F41"/>
<path d="M127.48 28.5201V16.4001C127.48 12.9201 125.6 11.1601 122.64 11.1601C119.68 11.1601 117.76 12.9601 117.76 16.4001V28.5201H114.88V8.8401H117.76V11.0001C119.16 9.4001 121.08 8.6001 123.28 8.6001C125.48 8.6001 127.12 9.2401 128.32 10.4401C129.72 11.8001 130.36 13.6401 130.36 15.9201V28.5201H127.48Z" fill="#D68F41"/>
<path d="M161.64 16.8H154.08V28.52H151.04V0.0400391H161.64C166.84 0.0400391 170.44 3.28004 170.44 8.40004C170.44 13.52 166.84 16.8 161.64 16.8ZM161.36 2.76004H154.08V14.08H161.36C164.92 14.08 167.4 12.16 167.4 8.40004C167.4 4.64004 164.92 2.76004 161.36 2.76004Z" fill="#D68F41"/>
<path d="M188.08 28.5201V26.6401C186.48 28.2401 185.04 28.7601 182.4 28.7601C179.76 28.7601 178.08 28.2401 176.84 26.9601C175.88 26.0001 175.36 24.5201 175.36 22.9601C175.36 19.5201 177.76 17.2801 182.16 17.2801H188.08V15.4001C188.08 12.5201 186.64 11.0801 183.04 11.0801C180.52 11.0801 179.24 11.6801 178.08 13.3201L176.12 11.5201C177.88 9.2401 179.88 8.6001 183.08 8.6001C188.36 8.6001 190.96 10.8801 190.96 15.1601V28.5201H188.08ZM188.08 19.4401H182.56C179.6 19.4401 178.16 20.6401 178.16 22.9201C178.16 25.2001 179.56 26.2801 182.68 26.2801C184.36 26.2801 185.84 26.1601 187.08 24.9601C187.76 24.3201 188.08 23.2001 188.08 21.5601V19.4401Z" fill="#D68F41"/>
<path d="M207.2 28.7501C202.24 28.7501 198.48 25.3901 198.48 18.6701C198.48 11.9501 202.24 8.59009 207.2 8.59009C209.92 8.59009 211.64 9.31009 213.68 11.5101L211.72 13.3501C210.24 11.7101 209.08 11.1501 207.2 11.1501C205.32 11.1501 203.68 11.9101 202.64 13.3901C201.72 14.6701 201.36 16.1901 201.36 18.6701C201.36 21.1501 201.72 22.6701 202.64 23.9501C203.68 25.4301 205.28 26.1901 207.2 26.1901C209.12 26.1901 210.24 25.5901 211.72 23.9501L213.68 25.8301C211.64 28.0301 209.92 28.7501 207.2 28.7501Z" fill="#D68F41"/>
<path d="M233.71 28.52L227.47 18.44L223.63 22.84V28.52H220.75V0.0400391H223.63V19.08L232.51 8.84004H236.11L229.43 16.36L237.27 28.52H233.71Z" fill="#D68F41"/>
<path d="M254.95 28.5201V26.6401C253.35 28.2401 251.91 28.7601 249.27 28.7601C246.63 28.7601 244.95 28.2401 243.71 26.9601C242.75 26.0001 242.23 24.5201 242.23 22.9601C242.23 19.5201 244.63 17.2801 249.03 17.2801H254.95V15.4001C254.95 12.5201 253.51 11.0801 249.91 11.0801C247.39 11.0801 246.11 11.6801 244.95 13.3201L242.99 11.5201C244.75 9.2401 246.75 8.6001 249.95 8.6001C255.23 8.6001 257.83 10.8801 257.83 15.1601V28.5201H254.95ZM254.95 19.4401H249.43C246.47 19.4401 245.03 20.6401 245.03 22.9201C245.03 25.2001 246.43 26.2801 249.55 26.2801C251.23 26.2801 252.71 26.1601 253.95 24.9601C254.63 24.3201 254.95 23.2001 254.95 21.5601V19.4401Z" fill="#D68F41"/>
<path d="M272.75 37.5501C269.79 37.5501 268.15 36.7901 266.07 34.9101L267.95 33.0701C269.39 34.3501 270.39 35.0301 272.67 35.0301C276.47 35.0301 278.07 32.3501 278.07 28.9901V25.9101C276.47 27.9501 274.67 28.4701 272.55 28.4701C270.55 28.4701 268.83 27.7501 267.79 26.7101C265.83 24.7501 265.39 21.7101 265.39 18.5101C265.39 15.3101 265.83 12.2701 267.79 10.3101C268.83 9.27009 270.59 8.59009 272.59 8.59009C274.75 8.59009 276.51 9.07009 278.11 11.1501V8.83009H280.95V29.1201C280.95 34.0001 277.91 37.5601 272.75 37.5601V37.5501ZM273.19 11.1501C268.91 11.1501 268.27 14.8301 268.27 18.5101C268.27 22.1901 268.91 25.8701 273.19 25.8701C277.47 25.8701 278.07 22.1901 278.07 18.5101C278.07 14.8301 277.47 11.1501 273.19 11.1501Z" fill="#D68F41"/>
<path d="M289.6 3.24V0H292.84V3.24H289.6ZM289.76 28.52V8.84H292.64V28.52H289.76Z" fill="#D68F41"/>
<path d="M314.07 28.5201V16.4001C314.07 12.9201 312.19 11.1601 309.23 11.1601C306.27 11.1601 304.35 12.9601 304.35 16.4001V28.5201H301.47V8.8401H304.35V11.0001C305.75 9.4001 307.67 8.6001 309.87 8.6001C312.07 8.6001 313.71 9.2401 314.91 10.4401C316.31 11.8001 316.95 13.6401 316.95 15.9201V28.5201H314.07Z" fill="#D68F41"/>
<path d="M331.87 37.5501C328.91 37.5501 327.27 36.7901 325.19 34.9101L327.07 33.0701C328.51 34.3501 329.51 35.0301 331.79 35.0301C335.59 35.0301 337.19 32.3501 337.19 28.9901V25.9101C335.59 27.9501 333.79 28.4701 331.67 28.4701C329.67 28.4701 327.95 27.7501 326.91 26.7101C324.95 24.7501 324.51 21.7101 324.51 18.5101C324.51 15.3101 324.95 12.2701 326.91 10.3101C327.95 9.27009 329.71 8.59009 331.71 8.59009C333.87 8.59009 335.63 9.07009 337.23 11.1501V8.83009H340.07V29.1201C340.07 34.0001 337.03 37.5601 331.87 37.5601V37.5501ZM332.31 11.1501C328.03 11.1501 327.39 14.8301 327.39 18.5101C327.39 22.1901 328.03 25.8701 332.31 25.8701C336.59 25.8701 337.19 22.1901 337.19 18.5101C337.19 14.8301 336.59 11.1501 332.31 11.1501Z" fill="#D68F41"/>
</svg>
