<svg width="295" height="272" viewBox="0 0 295 272" fill="none" xmlns="http://www.w3.org/2000/svg">
<path d="M104.613 54.1798V49.8081H95V48.391H104.613V44.2764H107.081V48.391H116.722V49.8081H107.081V54.1798H115.206V55.5915H96.6688V54.1798H104.613ZM113.51 58.3437V67.9079H111.092V65.7248H100.658V67.99H98.2391V58.3492H113.516L113.51 58.3437ZM111.092 59.6295H100.658V64.439H111.097V59.6295H111.092Z" fill="black"/>
<path d="M127.397 56.6255C126.576 60.1984 125.493 64.4935 124.568 66.808L122.046 65.4182C123.408 63.0271 125.159 59.4761 126.522 56.2643L127.397 56.6255ZM125.75 54.9019C124.596 53.4355 123.228 51.9199 122.073 50.76L122.538 49.9885C123.977 50.6068 125.931 51.712 127.375 52.9486L125.756 54.9019H125.75ZM125.958 48.9598C125.061 47.4935 123.824 45.9505 122.845 44.7413L123.408 44.019C124.618 44.61 126.39 45.7918 127.753 47.2363L125.953 48.9598H125.958ZM139.073 58.1684V65.4948C139.073 67.8093 136.967 68.9419 133.131 66.5508L133.361 65.648C136.398 66.3155 136.808 66.135 136.808 64.8492V58.163H132.513V49.704H136.6C136.753 48.8012 136.885 47.8546 136.989 46.8752H130.997V53.534C130.997 60.4501 129.586 65.0516 126.987 68.061L126.215 67.47C128.53 63.5852 128.634 59.6293 128.634 53.6599V45.7152H145.065V46.8752H139.511C139.024 47.8546 138.357 48.8832 137.738 49.704H143.368V58.163H139.073V58.1684ZM135.73 60.4829C134.729 62.4362 131.9 65.3197 130.149 66.5508L129.482 65.8833C130.844 64.3403 132.518 61.8234 133.596 59.4542L135.73 60.4829ZM134.729 53.2331H141.158V50.8694H134.729V53.2331ZM134.729 57.0139H141.158V54.3931H134.729V57.0139ZM145.3 65.0352L143.089 66.3976C142.395 64.6741 141.109 61.9493 140.08 60.0725L140.824 59.5308C142.471 61.1012 144.375 63.4649 145.3 65.0352Z" fill="black"/>
<path d="M155.406 57.3698V65.599C155.406 67.8369 153.321 68.7123 149.797 66.3431L150.054 65.495C152.752 66.1352 153.294 65.982 153.294 64.7728V58.5735C152.342 59.0879 151.417 59.5256 150.596 59.8594L149.693 57.3917C150.596 57.2111 151.904 56.8774 153.294 56.4123V50.8587H150.054V49.7042H153.294V44.1998H155.4V49.7042H157.868V50.8587H155.4V55.6408C156.221 55.3344 157.02 54.9733 157.715 54.6122L158.18 55.4329C157.332 56.1004 156.38 56.7461 155.4 57.3589L155.406 57.3698ZM172.482 65.9054V67.0599H157.775V65.9054H163.892V59.553H158.645V58.393H171.607V59.553H166.206V65.9054H172.482ZM160.423 52.7409H158.316V47.8275H164.773C163.794 46.8262 162.666 45.7428 161.61 44.8674L162.048 44.0466C163.334 44.457 165.364 45.3817 166.677 46.3337L165.572 47.8275H171.897V52.5822H169.736V48.982H167.985V53.5069C167.985 54.5848 168.165 54.8201 169.243 54.8693C170.223 54.9186 170.967 54.7927 171.481 54.3276L172.302 55.9965C171.503 56.4834 170.348 56.7187 168.494 56.664C166.436 56.6147 165.922 56.1497 165.922 53.9392V48.9765H164.275V50.5961C164.275 53.7586 163.197 56.7679 158.284 58.1577L157.923 57.3096C161.008 55.8706 162.163 54.2729 162.163 50.5961V48.9765H160.412V52.7299L160.423 52.7409Z" fill="black"/>
<path d="M180.504 65.4732L180.81 64.6525C183.021 65.3747 184 65.3473 184 64.2147V58.1194H181.199C180.838 62.5678 179.76 66.2939 178.293 68.2254L177.522 67.7384C178.912 64.1381 179.092 60.7677 179.092 54.2894V45.1355H186.216V64.9862C186.216 67.2514 183.645 68.1214 180.509 65.4732H180.504ZM184 52.4619H181.303V55.1101C181.303 55.7284 181.275 56.3467 181.254 56.9595H184.006V52.4619H184ZM184 46.29H181.303V51.3293H184V46.29ZM199.632 68.198C197.318 67.5578 195.135 66.4471 193.335 64.7509C191.228 66.4471 188.602 67.5305 185.467 68.302L185.16 67.4265C188.142 66.3486 190.407 65.0628 192.104 63.3885C190.769 61.7197 189.74 59.5803 189.149 56.8555H186.988V55.6956H195.759L196.3 55.2086L198.483 56.1606C197.685 59.1973 196.503 61.4844 194.932 63.2572C196.705 64.3625 198.79 65.0081 201 65.4404L199.638 68.1925L199.632 68.198ZM187.163 55.3673L186.676 54.5684C188.941 52.9488 189.04 50.711 189.04 47.3952V45.3872L196.574 45.3598V50.7602C196.574 51.5317 196.754 51.7615 198.013 51.7615C198.653 51.7615 199.173 51.7889 199.813 51.1706L200.738 52.8394C199.917 53.6109 199.069 53.6875 197.575 53.6875C194.719 53.6875 194.358 53.0473 194.358 51.1925V46.5362H191.245V47.7454C191.245 51.6794 189.702 54.2018 187.157 55.3563L187.163 55.3673ZM190.096 56.861C190.818 59.1262 191.923 60.795 193.307 62.0535C194.44 60.5871 195.233 58.8636 195.726 56.861H190.096Z" fill="black"/>
<path d="M35.4713 19.7163C33.606 19.7163 32.207 19.1676 31 17.9607L32.399 16.5617C33.1122 17.2749 33.8528 17.851 35.4713 17.851C38.0224 17.851 39.4762 16.2325 39.4762 13.3522V0.0275879H41.561V13.6334C41.561 17.3915 39.0373 19.7231 35.4713 19.7231V19.7163Z" fill="#D68F41"/>
<path d="M47.5684 2.22192V0H49.7903V2.22192H47.5684ZM47.6781 19.5584V6.06227H49.6531V19.5584H47.6781Z" fill="#D68F41"/>
<path d="M69.2942 11.4938V19.5585H67.2094V11.4938L61.394 0.0275879H63.6434L68.2518 9.3816L72.8054 0.0275879H75.0547L69.2942 11.4938Z" fill="#D68F41"/>
<path d="M86.2737 19.5584V18.0497C85.3136 19.1469 83.9695 19.7229 82.4608 19.7229C80.9521 19.7229 79.8 19.284 78.977 18.4611C78.0169 17.5285 77.6055 16.2392 77.6055 14.6756V6.06226H79.5805V14.3739C79.5805 16.7604 80.8423 17.9674 82.8722 17.9674C84.9021 17.9674 86.2463 16.733 86.2463 14.3739V6.06226H88.2213V19.5584H86.2737Z" fill="#D68F41"/>
<path d="M101.91 19.5582V18.2689C100.812 19.3661 99.8249 19.7227 98.0144 19.7227C96.2039 19.7227 95.0518 19.3661 94.2015 18.4883C93.5431 17.83 93.1865 16.815 93.1865 15.7452C93.1865 13.3862 94.8324 11.85 97.8498 11.85H101.91V10.5607C101.91 8.58571 100.922 7.59819 98.4533 7.59819C96.7251 7.59819 95.8473 8.00966 95.0518 9.13433L93.7077 7.89993C94.9147 6.33636 96.2862 5.89746 98.4807 5.89746C102.102 5.89746 103.885 7.46103 103.885 10.3962V19.5582H101.91ZM101.91 13.3313H98.1241C96.0942 13.3313 95.1067 14.1542 95.1067 15.7178C95.1067 17.2814 96.0668 18.022 98.2064 18.022C99.3585 18.022 100.373 17.9397 101.224 17.1168C101.69 16.6779 101.91 15.9098 101.91 14.7851V13.3313Z" fill="#D68F41"/>
<path d="M118.423 19.5582V11.2465C118.423 8.86002 117.134 7.65305 115.104 7.65305C113.074 7.65305 111.757 8.88745 111.757 11.2465V19.5582H109.782V6.06205H111.757V7.54333C112.717 6.44608 114.034 5.89746 115.543 5.89746C117.051 5.89746 118.176 6.33636 118.999 7.15929C119.959 8.09195 120.398 9.35378 120.398 10.9174V19.5582H118.423Z" fill="#D68F41"/>
<path d="M141.849 11.5212H136.665V19.5585H134.58V0.0275879H141.849C145.415 0.0275879 147.884 2.24951 147.884 5.76069C147.884 9.27187 145.415 11.5212 141.849 11.5212ZM141.657 1.8929H136.665V9.65591H141.657C144.099 9.65591 145.799 8.33921 145.799 5.76069C145.799 3.18217 144.099 1.8929 141.657 1.8929Z" fill="#D68F41"/>
<path d="M159.981 19.5582V18.2689C158.884 19.3661 157.896 19.7227 156.086 19.7227C154.275 19.7227 153.123 19.3661 152.273 18.4883C151.614 17.83 151.258 16.815 151.258 15.7452C151.258 13.3862 152.904 11.85 155.921 11.85H159.981V10.5607C159.981 8.58571 158.993 7.59819 156.525 7.59819C154.796 7.59819 153.919 8.00966 153.123 9.13433L151.779 7.89993C152.986 6.33636 154.358 5.89746 156.552 5.89746C160.173 5.89746 161.956 7.46103 161.956 10.3962V19.5582H159.981ZM159.981 13.3313H156.195C154.166 13.3313 153.178 14.1542 153.178 15.7178C153.178 17.2814 154.138 18.022 156.278 18.022C157.43 18.022 158.445 17.9397 159.295 17.1168C159.761 16.6779 159.981 15.9098 159.981 14.7851V13.3313Z" fill="#D68F41"/>
<path d="M173.094 19.7164C169.692 19.7164 167.114 17.4122 167.114 12.8038C167.114 8.19533 169.692 5.89111 173.094 5.89111C174.959 5.89111 176.139 6.38487 177.538 7.89358L176.193 9.15542C175.179 8.03074 174.383 7.6467 173.094 7.6467C171.804 7.6467 170.68 8.1679 169.967 9.18285C169.336 10.0606 169.089 11.103 169.089 12.8038C169.089 14.5045 169.336 15.5469 169.967 16.4247C170.68 17.4396 171.777 17.9608 173.094 17.9608C174.41 17.9608 175.179 17.5493 176.193 16.4247L177.538 17.7139C176.139 19.2226 174.959 19.7164 173.094 19.7164Z" fill="#D68F41"/>
<path d="M191.273 19.5585L186.994 12.6459L184.361 15.6633V19.5585H182.386V0.0275879H184.361V13.0848L190.45 6.06243H192.919L188.338 11.2195L193.715 19.5585H191.273Z" fill="#D68F41"/>
<path d="M205.839 19.5582V18.2689C204.742 19.3661 203.754 19.7227 201.944 19.7227C200.133 19.7227 198.981 19.3661 198.131 18.4883C197.472 17.83 197.116 16.815 197.116 15.7452C197.116 13.3862 198.762 11.85 201.779 11.85H205.839V10.5607C205.839 8.58571 204.851 7.59819 202.383 7.59819C200.654 7.59819 199.777 8.00966 198.981 9.13433L197.637 7.89993C198.844 6.33636 200.215 5.89746 202.41 5.89746C206.031 5.89746 207.814 7.46103 207.814 10.3962V19.5582H205.839ZM205.839 13.3313H202.053C200.023 13.3313 199.036 14.1542 199.036 15.7178C199.036 17.2814 199.996 18.022 202.136 18.022C203.288 18.022 204.303 17.9397 205.153 17.1168C205.619 16.6779 205.839 15.9098 205.839 14.7851V13.3313Z" fill="#D68F41"/>
<path d="M218.045 25.7512C216.015 25.7512 214.891 25.23 213.464 23.9408L214.754 22.679C215.741 23.5567 216.427 24.0231 217.991 24.0231C220.596 24.0231 221.694 22.1852 221.694 19.881V17.7688C220.596 19.1678 219.362 19.5244 217.908 19.5244C216.537 19.5244 215.357 19.0306 214.644 18.3174C213.3 16.9733 212.998 14.8885 212.998 12.694C212.998 10.4995 213.3 8.41478 214.644 7.07065C215.357 6.35744 216.564 5.89111 217.936 5.89111C219.417 5.89111 220.624 6.22029 221.721 7.6467V6.0557H223.669V19.9701C223.669 23.3167 221.584 25.7581 218.045 25.7581V25.7512ZM218.347 7.6467C215.412 7.6467 214.973 10.1704 214.973 12.694C214.973 15.2177 215.412 17.7414 218.347 17.7414C221.282 17.7414 221.694 15.2177 221.694 12.694C221.694 10.1704 221.282 7.6467 218.347 7.6467Z" fill="#D68F41"/>
<path d="M229.602 2.22192V0H231.823V2.22192H229.602ZM229.711 19.5584V6.06227H231.686V19.5584H229.711Z" fill="#D68F41"/>
<path d="M246.383 19.5582V11.2465C246.383 8.86002 245.093 7.65305 243.063 7.65305C241.033 7.65305 239.717 8.88745 239.717 11.2465V19.5582H237.742V6.06205H239.717V7.54333C240.677 6.44608 241.994 5.89746 243.502 5.89746C245.011 5.89746 246.136 6.33636 246.959 7.15929C247.919 8.09195 248.358 9.35378 248.358 10.9174V19.5582H246.383Z" fill="#D68F41"/>
<path d="M258.589 25.7512C256.559 25.7512 255.434 25.23 254.008 23.9408L255.297 22.679C256.285 23.5567 256.97 24.0231 258.534 24.0231C261.14 24.0231 262.237 22.1852 262.237 19.881V17.7688C261.14 19.1678 259.906 19.5244 258.452 19.5244C257.08 19.5244 255.901 19.0306 255.187 18.3174C253.843 16.9733 253.542 14.8885 253.542 12.694C253.542 10.4995 253.843 8.41478 255.187 7.07065C255.901 6.35744 257.108 5.89111 258.479 5.89111C259.96 5.89111 261.167 6.22029 262.265 7.6467V6.0557H264.212V19.9701C264.212 23.3167 262.127 25.7581 258.589 25.7581V25.7512ZM258.891 7.6467C255.955 7.6467 255.517 10.1704 255.517 12.694C255.517 15.2177 255.955 17.7414 258.891 17.7414C261.826 17.7414 262.237 15.2177 262.237 12.694C262.237 10.1704 261.826 7.6467 258.891 7.6467Z" fill="#D68F41"/>
</svg>
