<svg width="185" height="184" viewBox="0 0 185 184" fill="none" xmlns="http://www.w3.org/2000/svg">
<path d="M70.4809 12.2237C70.6389 12.7102 70.8284 13.3103 70.9484 13.7399C71.5991 16.0393 70.601 17.6881 68.352 18.4019C66.1347 19.1095 64.7323 18.5346 64.0501 16.9364L63.9869 16.7974L65.263 16.3931L65.3198 16.5194C65.7241 17.4417 66.7033 17.8587 68.0425 17.4354C69.5839 16.9427 70.1461 15.7929 69.7229 14.2768C69.6218 13.9041 69.5397 13.6577 69.4639 13.4177L69.4196 13.285L69.0975 14.3084C68.7753 14.8138 68.0299 15.3255 67.2339 15.5782C64.9534 16.3046 63.1467 15.0033 62.4265 12.7228C61.5106 9.84218 62.8751 7.93439 64.8902 7.29004C65.5346 7.08158 66.419 7.01209 66.9181 7.20792L67.6761 7.80805L67.335 6.73413L68.5984 6.32983L70.4683 12.2111L70.4809 12.2237ZM68.6111 10.7139L68.4784 10.2907C67.834 8.27552 66.3306 7.91544 65.2124 8.2692C63.8416 8.70509 63.1214 10.1012 63.7721 12.1416C64.3343 13.9041 65.5725 15.0475 67.1328 14.5548C68.4279 14.1442 69.3249 12.9502 68.6174 10.7139H68.6111Z" fill="#D08421"/>
<path d="M78.2069 11.4214L77.9353 12.369C77.4615 12.8554 76.7919 13.1081 76.0148 13.2597C74.5619 13.544 73.2669 12.9565 72.9826 11.4783C72.6289 9.65894 73.8102 8.45868 76.9624 7.84591L77.4804 7.74484L77.4362 7.53005C77.3667 7.18261 77.3099 6.86675 77.2151 6.56984C77.013 5.83705 76.495 5.43907 75.4147 5.64754C74.3218 5.85601 73.8923 6.55721 74.0186 7.68167L72.6541 7.94699C72.4457 6.20977 73.4501 4.99687 75.2189 4.64943C77.1267 4.27671 78.0869 4.92738 78.4785 6.21608C78.5733 6.52562 78.6617 6.91729 78.7312 7.26473L79.3187 10.278C79.4388 10.8845 79.5714 11.4214 79.8683 12.2932L78.567 12.5459L78.2069 11.4214V11.4214ZM77.8216 9.53259L77.6636 8.71768C75.421 8.983 74.1197 9.72211 74.385 11.0993C74.5745 12.0658 75.2757 12.3753 76.2612 12.1795C77.4741 11.9458 78.1058 10.9919 77.8216 9.53259V9.53259Z" fill="#D08421"/>
<path d="M84.05 9.4126C84.0816 9.69055 84.0943 9.82953 84.1322 10.038C84.2711 10.815 84.6123 10.9477 85.6293 10.7202L85.7304 11.6868C85.3514 11.7878 84.985 11.8384 84.6186 11.8763C83.6078 11.9837 83.0393 11.6173 82.8624 10.6129C82.8245 10.3981 82.7929 10.0633 82.7424 9.60211L82.256 4.86424L81.1694 4.97795L81.062 3.9672L82.1486 3.85349L81.9527 1.96466L83.273 1.82568L83.4688 3.71452L84.985 3.55659L85.0924 4.56733L83.5762 4.72526L84.0564 9.40628L84.05 9.4126Z" fill="#D08421"/>
<path d="M95.0861 6.77832L95.1176 11.3772L93.791 11.3898L93.7594 6.88571C93.7594 6.46877 93.7594 6.12765 93.7215 5.71072C93.6394 4.75682 93.1088 4.01772 91.8453 4.05562C90.563 4.09352 89.4891 5.02846 89.5143 7.82065L89.5396 11.4151H88.213L88.1309 0.0126343L89.4575 0L89.489 4.64311L89.9881 3.69554C90.6767 3.15226 91.2768 3.00697 92.1107 3.00065C93.8984 2.98802 94.9092 3.93559 95.0418 5.36959C95.0734 5.78652 95.0797 6.1087 95.0797 6.772L95.0861 6.77832Z" fill="#D08421"/>
<path d="M105.01 8.62294L99.1227 7.96595C99.009 10.1264 99.9376 10.9603 101.138 11.0929C102.199 11.213 103.128 10.6444 103.444 9.50102L104.821 9.65263C104.284 11.5794 102.635 12.2806 100.961 12.0974C98.8447 11.8636 97.417 10.3096 97.7392 7.44163C98.0298 4.80105 99.8618 3.31652 102.085 3.56289C104.322 3.80926 105.383 5.62228 105.118 7.99754C105.105 8.11756 105.08 8.33235 105.017 8.62294H105.01ZM99.249 6.96152L103.816 7.4669C103.879 5.76758 103.267 4.71893 101.934 4.57363C100.645 4.42834 99.5901 5.24325 99.249 6.96152Z" fill="#D08421"/>
<path d="M112.382 5.44544L112.18 6.43091C110.841 6.0582 109.647 6.65202 109.268 8.47768L108.327 13.0387L107.025 12.7733L108.674 4.76318L109.976 5.0285L109.717 6.28562L110.664 5.36331C111.043 5.20538 111.479 5.15485 111.858 5.23065C112.066 5.27487 112.243 5.34436 112.382 5.44544V5.44544Z" fill="#D08421"/>
<path d="M112.73 14.0684L114.884 6.18458L116.167 6.53203L114.012 14.4158L112.73 14.0684ZM116.83 4.81376C116.703 5.27491 116.249 5.53392 115.787 5.40757C115.326 5.28123 115.067 4.82639 115.194 4.36524C115.32 3.90409 115.775 3.64509 116.236 3.77143C116.697 3.89777 116.956 4.35261 116.83 4.81376Z" fill="#D08421"/>
<path d="M125.023 13.3102L123.437 17.6248L122.193 17.17L123.747 12.9438C123.892 12.5521 124.006 12.2363 124.12 11.832C124.379 10.9097 124.132 10.0632 122.945 9.6273C121.744 9.1851 120.399 9.70942 119.439 12.331L118.201 15.7044L116.956 15.2496L119.774 7.57422L121.018 8.02905L120.532 9.34934L121.334 8.64182C122.174 8.3765 122.787 8.4523 123.564 8.73658C125.244 9.35566 125.857 10.5938 125.478 11.9836C125.364 12.3879 125.25 12.6911 125.023 13.3102V13.3102Z" fill="#D08421"/>
<path d="M133.305 20.2527C133.071 20.7075 132.781 21.2698 132.566 21.6614C131.403 23.7524 129.534 24.2136 127.436 23.1333C125.364 22.0657 124.783 20.6759 125.421 19.0588L125.478 18.9135L126.672 19.5262L126.621 19.6589C126.261 20.6001 126.653 21.5856 127.904 22.2237C129.344 22.9628 130.551 22.5458 131.328 21.175C131.517 20.8402 131.637 20.6065 131.751 20.3854L131.814 20.259L130.86 20.7581C130.273 20.8907 129.382 20.7265 128.643 20.3475C126.514 19.2546 126.154 17.0562 127.253 14.9273C128.636 12.2425 130.955 11.8509 132.831 12.8174C133.438 13.1269 134.113 13.7018 134.328 14.1945L134.442 15.1547L134.96 14.1566L136.141 14.7631L133.318 20.2464L133.305 20.2527ZM133.046 17.8648L133.248 17.4668C134.215 15.5906 133.406 14.2703 132.364 13.7334C131.088 13.0764 129.59 13.5565 128.611 15.4643C127.765 17.1067 127.834 18.7934 129.287 19.5452C130.494 20.1643 131.972 19.9558 133.046 17.8711V17.8648Z" fill="#D08421"/>
<path d="M151.467 34.277C151.119 34.6497 150.683 35.1108 150.368 35.4267C148.675 37.1134 146.748 37.0439 145.03 35.4267C143.33 33.8285 143.153 32.3313 144.215 30.9541L144.309 30.8341L145.289 31.7564L145.206 31.8701C144.6 32.6724 144.707 33.7274 145.731 34.6939C146.912 35.8057 148.188 35.7299 149.313 34.6244C149.591 34.3528 149.767 34.1633 149.938 33.9801L150.033 33.879L148.978 34.1001C148.378 34.0622 147.569 33.6642 146.963 33.0957C145.219 31.4595 145.478 29.2422 147.114 27.4987C149.186 25.294 151.517 25.5593 153.059 27.0122C153.551 27.4797 154.044 28.2125 154.12 28.7494L153.962 29.7033L154.733 28.8821L155.699 29.7918L151.473 34.2896L151.467 34.277ZM151.871 31.908L152.181 31.5795C153.627 30.0382 153.21 28.5473 152.357 27.745C151.309 26.7595 149.742 26.8101 148.27 28.3704C147 29.7223 146.602 31.3584 147.796 32.4766C148.788 33.4052 150.266 33.6137 151.871 31.9017V31.908Z" fill="#D08421"/>
<path d="M160.007 41.0047C158.238 42.4766 155.876 42.7735 154.101 40.6383C152.326 38.5031 153.046 36.2352 154.815 34.7633C156.596 33.2851 158.946 32.9945 160.721 35.1297C162.496 37.2649 161.782 39.5201 160.007 41.0047ZM159.079 39.8865C160.563 38.6547 160.993 37.0501 159.938 35.7804C158.883 34.5106 157.228 34.6433 155.743 35.8751C154.271 37.1006 153.829 38.7115 154.884 39.9813C155.939 41.251 157.607 41.112 159.079 39.8865Z" fill="#D08421"/>
<path d="M165.617 49.4445C163.69 50.6953 161.309 50.7079 159.799 48.3769C158.289 46.0459 159.275 43.8791 161.208 42.6346C163.147 41.3775 165.516 41.3712 167.026 43.7022C168.536 46.0332 167.563 48.1874 165.617 49.4445V49.4445ZM164.827 48.2253C166.445 47.1766 167.064 45.6353 166.167 44.2518C165.27 42.8683 163.608 42.7989 161.991 43.8475C160.386 44.8898 159.755 46.4375 160.652 47.821C161.549 49.2045 163.223 49.2613 164.827 48.2253Z" fill="#D08421"/>
<path d="M166.375 60.0383L165.794 58.8444L166.975 58.2695L165.914 58.099C165.364 57.8526 164.752 57.1893 164.385 56.4375C163.337 54.2897 164.366 52.3124 166.521 51.2638C169.237 49.9435 171.328 51.0237 172.25 52.9189C172.547 53.5317 172.743 54.3971 172.623 54.9151L172.136 55.749L175.996 53.8728L176.577 55.0667L166.382 60.0257L166.375 60.0383ZM169.401 57.0945L169.805 56.8987C171.707 55.9764 171.846 54.4287 171.334 53.3737C170.709 52.085 169.224 51.567 167.291 52.5083C165.63 53.3169 164.67 54.7066 165.39 56.1785C165.984 57.3978 167.291 58.1179 169.401 57.0945V57.0945Z" fill="#D08421"/>
<path d="M172.301 74.77L171.341 74.5425C170.835 74.094 170.551 73.4307 170.368 72.6663C170.027 71.226 170.551 69.9121 172.017 69.5583C173.817 69.1287 175.068 70.2532 175.82 73.3739L175.94 73.8856L176.148 73.835C176.495 73.7529 176.805 73.6771 177.102 73.576C177.822 73.3423 178.201 72.8053 177.948 71.7377C177.689 70.6575 176.976 70.2595 175.857 70.4301L175.535 69.0782C177.26 68.7939 178.517 69.7415 178.94 71.4977C179.395 73.3865 178.789 74.372 177.513 74.8205C177.203 74.9279 176.818 75.0353 176.47 75.1174L173.482 75.8312C172.882 75.9765 172.351 76.1345 171.492 76.463L171.183 75.1743L172.288 74.7636L172.301 74.77ZM174.171 74.3088L174.979 74.113C174.619 71.883 173.823 70.6133 172.459 70.9418C171.499 71.1692 171.227 71.8893 171.461 72.8622C171.745 74.0624 172.73 74.6499 174.171 74.3088V74.3088Z" fill="#D08421"/>
<path d="M177.405 85.5344L172.838 86.084L172.68 84.7637L177.152 84.2267C177.563 84.1762 177.904 84.1383 178.315 84.0561C179.256 83.8666 179.9 83.2602 179.749 82.0031C179.597 80.7333 178.517 79.7731 175.744 80.1079L172.175 80.5375L172.017 79.2172L180.14 78.238L180.298 79.5583L178.902 79.7289L179.9 80.1206C180.52 80.746 180.728 81.3271 180.829 82.1547C181.044 83.9298 180.216 85.0416 178.801 85.3385C178.391 85.4207 178.068 85.4586 177.411 85.5344H177.405Z" fill="#D08421"/>
<path d="M172.989 96.0586V94.732H174.303L173.425 94.1129C173.04 93.6518 172.781 92.7863 172.787 91.9524C172.794 89.5582 174.588 88.2379 176.982 88.2506C180.008 88.2632 181.404 90.1457 181.398 92.262C181.398 92.9379 181.189 93.8034 180.848 94.2203L180.046 94.7573L184.335 94.7699V96.0965L172.996 96.0586H172.989ZM177.007 94.7446H177.456C179.572 94.7509 180.374 93.4306 180.38 92.2557C180.38 90.8217 179.281 89.7035 177.133 89.6972C175.283 89.6972 173.817 90.5184 173.811 92.1546C173.811 93.5128 174.663 94.732 177.007 94.7446V94.7446Z" fill="#D08421"/>
<path d="M174.575 114.953L170.096 113.905L170.399 112.616L174.784 113.639C175.188 113.734 175.523 113.81 175.933 113.873C176.881 114.018 177.721 113.677 177.98 112.433C178.239 111.182 177.588 109.919 174.866 109.281L171.366 108.466L171.669 107.171L182.781 109.773L182.478 111.062L177.955 110.007L178.757 110.715C179.123 111.511 179.123 112.13 178.934 112.945C178.523 114.688 177.367 115.446 175.94 115.238C175.529 115.175 175.213 115.099 174.569 114.947L174.575 114.953Z" fill="#D08421"/>
<path d="M170.576 125.029C168.416 124.246 166.969 122.357 167.916 119.748C168.864 117.139 171.189 116.621 173.349 117.404C175.522 118.194 176.956 120.077 176.009 122.686C175.061 125.295 172.749 125.819 170.576 125.029ZM171.075 123.665C172.888 124.322 174.493 123.892 175.055 122.338C175.617 120.784 174.67 119.426 172.857 118.763C171.056 118.106 169.439 118.535 168.877 120.089C168.314 121.643 169.275 123.008 171.075 123.665Z" fill="#D08421"/>
<path d="M166.818 133.892L162.711 131.82L163.312 130.633L167.336 132.66C167.708 132.85 168.012 133.002 168.397 133.16C169.288 133.52 170.159 133.374 170.728 132.244C171.303 131.1 170.936 129.704 168.441 128.447L165.232 126.83L165.832 125.642L173.135 129.325L172.535 130.513L171.284 129.881L171.897 130.759C172.067 131.624 171.922 132.225 171.543 132.964C170.734 134.562 169.433 135.029 168.094 134.492C167.708 134.335 167.418 134.189 166.824 133.886L166.818 133.892Z" fill="#D08421"/>
<path d="M160.551 142.743C158.637 141.467 157.676 139.294 159.218 136.982C160.759 134.669 163.134 134.72 165.049 135.99C166.975 137.272 167.923 139.439 166.381 141.751C164.84 144.063 162.477 144.025 160.551 142.743ZM161.353 141.536C162.958 142.604 164.619 142.56 165.535 141.189C166.451 139.818 165.851 138.264 164.246 137.196C162.654 136.135 160.98 136.173 160.064 137.544C159.148 138.915 159.761 140.475 161.353 141.536V141.536Z" fill="#D08421"/>
<path d="M159.704 150.361L158.927 149.729C159.875 148.712 159.906 147.386 158.46 146.204L154.853 143.261L155.693 142.231L162.029 147.398L161.189 148.428L160.197 147.619L160.576 148.883C160.538 149.294 160.386 149.704 160.14 150.001C160.001 150.165 159.862 150.292 159.704 150.361Z" fill="#D08421"/>
<path d="M119.603 170.437C119.414 169.963 119.18 169.376 119.028 168.952C118.213 166.703 119.091 164.992 121.283 164.113C123.444 163.248 124.884 163.722 125.68 165.263L125.75 165.402L124.505 165.901L124.442 165.775C123.968 164.884 122.97 164.537 121.662 165.055C120.159 165.655 119.685 166.842 120.21 168.327C120.336 168.693 120.437 168.933 120.525 169.161L120.576 169.287L120.822 168.245C121.107 167.714 121.814 167.152 122.585 166.842C124.808 165.958 126.704 167.127 127.588 169.344C128.712 172.155 127.481 174.151 125.522 174.941C124.891 175.194 124.012 175.326 123.501 175.168L122.705 174.625L123.122 175.674L121.89 176.167L119.603 170.437ZM121.58 171.808L121.745 172.225C122.528 174.189 124.057 174.442 125.15 174.006C126.482 173.475 127.102 172.029 126.306 170.039C125.617 168.321 124.303 167.266 122.781 167.872C121.517 168.378 120.709 169.628 121.58 171.808V171.808Z" fill="#D08421"/>
<path d="M111.947 171.802L112.149 170.835C112.585 170.317 113.235 170.014 113.993 169.805C115.421 169.42 116.754 169.906 117.146 171.366C117.632 173.153 116.539 174.436 113.438 175.276L112.932 175.415L112.989 175.624C113.084 175.965 113.166 176.28 113.28 176.571C113.539 177.285 114.082 177.651 115.137 177.361C116.211 177.07 116.59 176.344 116.381 175.232L117.721 174.872C118.055 176.584 117.139 177.872 115.402 178.346C113.526 178.852 112.522 178.277 112.035 177.02C111.921 176.716 111.801 176.331 111.707 175.99L110.904 173.027C110.746 172.433 110.57 171.903 110.209 171.056L111.492 170.709L111.934 171.802H111.947ZM112.465 173.659L112.679 174.461C114.897 174.038 116.141 173.204 115.775 171.852C115.516 170.898 114.796 170.646 113.829 170.911C112.635 171.233 112.079 172.231 112.465 173.659Z" fill="#D08421"/>
<path d="M106.255 174.227C106.204 173.956 106.185 173.817 106.128 173.608C105.933 172.844 105.579 172.736 104.587 173.033L104.417 172.079C104.783 171.953 105.149 171.871 105.509 171.808C106.514 171.631 107.101 171.947 107.354 172.939C107.405 173.147 107.468 173.482 107.543 173.937L108.371 178.63L109.451 178.441L109.628 179.445L108.548 179.635L108.876 181.505L107.569 181.738L107.24 179.869L105.737 180.134L105.56 179.129L107.063 178.864L106.248 174.234L106.255 174.227Z" fill="#D08421"/>
<path d="M95.465 177.645L95.0986 173.065L96.4189 172.958L96.779 177.449C96.8106 177.866 96.8422 178.201 96.9053 178.618C97.057 179.565 97.6381 180.26 98.8952 180.128C100.171 179.995 101.169 178.984 100.948 176.205L100.664 172.623L101.984 172.515L102.894 183.893L101.574 184L101.207 179.37L100.778 180.349C100.127 180.942 99.5396 181.126 98.7121 181.195C96.9306 181.34 95.8504 180.462 95.6166 179.047C95.5535 178.637 95.5282 178.315 95.4713 177.651L95.465 177.645Z" fill="#D08421"/>
<path d="M85.4272 176.539L91.3464 176.761C91.3021 174.6 90.3104 173.836 89.1101 173.791C88.0488 173.754 87.1581 174.379 86.9307 175.548L85.5409 175.497C85.9389 173.539 87.5308 172.718 89.2112 172.781C91.34 172.863 92.8751 174.309 92.7677 177.19C92.6667 179.843 90.9547 181.46 88.7184 181.378C86.4695 181.296 85.2819 179.565 85.3703 177.177C85.3703 177.051 85.383 176.836 85.4272 176.546V176.539ZM91.2958 177.778L86.7033 177.607C86.7601 179.306 87.4487 180.304 88.7942 180.355C90.0893 180.406 91.081 179.515 91.3021 177.778H91.2958Z" fill="#D08421"/>
<path d="M78.3013 180.235L78.4339 179.243C79.7984 179.515 80.9418 178.839 81.1882 176.988L81.7947 172.37L83.1086 172.541L82.0473 180.646L80.7334 180.475L80.8976 179.205L80.0195 180.197C79.6531 180.38 79.2236 180.462 78.8382 180.418C78.6234 180.393 78.4466 180.336 78.3013 180.241V180.235Z" fill="#D08421"/>
<path d="M73.8984 181.189C73.9931 180.721 74.4227 180.431 74.8965 180.519C75.364 180.614 75.6546 181.05 75.5661 181.517C75.4714 181.985 75.0418 182.275 74.568 182.187C74.0942 182.099 73.8099 181.663 73.8984 181.189ZM77.3223 171.663L75.7367 179.679L74.4353 179.42L76.021 171.404L77.3223 171.663Z" fill="#D08421"/>
<path d="M65.1177 173.299L66.4001 168.883L67.6762 169.256L66.4191 173.583C66.3054 173.981 66.2106 174.309 66.1222 174.72C65.9263 175.661 66.2359 176.489 67.4488 176.843C68.6806 177.203 69.982 176.584 70.7653 173.899L71.7697 170.443L73.0458 170.816L70.7653 178.668L69.4892 178.296L69.8809 176.95L69.1291 177.714C68.3142 178.037 67.6951 178.005 66.8929 177.771C65.1746 177.272 64.4797 176.072 64.7577 174.663C64.8461 174.253 64.9345 173.943 65.1177 173.305V173.299Z" fill="#D08421"/>
<path d="M56.3614 166.969C56.5635 166.501 56.8099 165.92 56.9994 165.516C58.0101 163.349 59.8358 162.755 62.0089 163.678C64.1504 164.594 64.8327 165.939 64.3147 167.594L64.2705 167.739L63.0386 167.215L63.0765 167.082C63.3734 166.116 62.9059 165.162 61.6172 164.612C60.1264 163.974 58.9577 164.486 58.2818 165.907C58.1175 166.255 58.0165 166.495 57.9154 166.722L57.8585 166.849L58.7745 166.28C59.3494 166.11 60.2464 166.204 61.0108 166.533C63.2092 167.474 63.7272 169.635 62.7922 171.833C61.6046 174.613 59.3241 175.168 57.3784 174.335C56.753 174.069 56.0392 173.545 55.7865 173.071L55.6033 172.124L55.1611 173.16L53.9419 172.642L56.3614 166.969V166.969ZM56.7973 169.331L56.6204 169.742C55.7928 171.688 56.6962 172.945 57.7764 173.406C59.0967 173.968 60.556 173.381 61.3961 171.41C62.1226 169.71 61.9331 168.03 60.4296 167.392C59.1788 166.861 57.7196 167.177 56.8036 169.331H56.7973Z" fill="#D08421"/>
<path d="M37.2274 154.303C37.5495 153.905 37.9475 153.419 38.2381 153.077C39.8048 151.271 41.7252 151.201 43.5635 152.686C45.3702 154.151 45.6608 155.636 44.7006 157.089L44.6185 157.222L43.5761 156.375L43.6519 156.255C44.2015 155.409 44.012 154.366 42.9255 153.482C41.6683 152.458 40.3986 152.629 39.3626 153.81C39.1099 154.101 38.9456 154.303 38.7877 154.493L38.6993 154.6L39.7353 154.303C40.3354 154.297 41.1756 154.638 41.8199 155.162C43.6772 156.666 43.5824 158.896 42.0726 160.753C40.1712 163.103 37.8212 163.008 36.1787 161.675C35.6544 161.246 35.1048 160.544 34.9974 160.02L35.0859 159.054L34.3783 159.925L33.3486 159.091L37.2337 154.297L37.2274 154.303ZM36.9936 156.697L36.7094 157.045C35.3764 158.687 35.9008 160.146 36.8168 160.885C37.9286 161.789 39.4952 161.625 40.8471 159.963C42.0158 158.523 42.2874 156.861 41.0177 155.832C39.9627 154.979 38.4719 154.878 36.9936 156.704V156.697Z" fill="#D08421"/>
<path d="M28.2254 148.219C29.8805 146.628 32.2179 146.154 34.1446 148.156C36.0714 150.159 35.5155 152.471 33.8604 154.063C32.1926 155.667 29.8679 156.129 27.9412 154.126C26.0144 152.123 26.5577 149.824 28.2254 148.219ZM29.2299 149.262C27.8401 150.601 27.5242 152.231 28.674 153.419C29.8174 154.606 31.4598 154.353 32.8496 153.014C34.2268 151.688 34.5552 150.045 33.4055 148.858C32.2621 147.67 30.607 147.929 29.2299 149.255V149.262Z" fill="#D08421"/>
<path d="M22.0216 140.191C23.8536 138.807 26.2289 138.624 27.9029 140.835C29.577 143.052 28.7431 145.282 26.9111 146.666C25.0665 148.062 22.7039 148.232 21.0298 146.021C19.3558 143.804 20.177 141.587 22.0216 140.191ZM22.8934 141.347C21.352 142.509 20.8466 144.088 21.8384 145.408C22.8302 146.729 24.4917 146.672 26.033 145.51C27.5618 144.36 28.0798 142.768 27.088 141.448C26.0962 140.127 24.4222 140.191 22.8934 141.347Z" fill="#D08421"/>
<path d="M20.5058 129.691L21.1691 130.841L20.032 131.498L21.0996 131.593C21.6682 131.801 22.3252 132.414 22.7421 133.134C23.9424 135.2 23.058 137.247 20.9859 138.447C18.3706 139.963 16.2102 139.041 15.1552 137.209C14.8141 136.621 14.5551 135.775 14.6372 135.244L15.0604 134.372L11.3523 136.52L10.689 135.371L20.4995 129.685L20.5058 129.691ZM17.701 132.85L17.3157 133.071C15.49 134.132 15.4584 135.68 16.0459 136.697C16.7661 137.935 18.2822 138.34 20.1394 137.266C21.744 136.337 22.5905 134.884 21.7693 133.469C21.087 132.294 19.7288 131.675 17.701 132.85V132.85Z" fill="#D08421"/>
<path d="M13.5378 115.421L14.5106 115.579C15.0476 115.989 15.3761 116.628 15.6161 117.379C16.0647 118.788 15.6351 120.14 14.1948 120.595C12.4323 121.151 11.0994 120.121 10.1328 117.063L9.97492 116.564L9.76645 116.628C9.42533 116.735 9.1221 116.83 8.83151 116.956C8.13031 117.24 7.78918 117.803 8.11767 118.845C8.45248 119.906 9.19791 120.254 10.2971 120.001L10.714 121.321C9.01471 121.732 7.69442 120.873 7.14483 119.154C6.55733 117.303 7.08797 116.274 8.32614 115.737C8.62305 115.61 9.00208 115.471 9.3432 115.364L12.268 114.435C12.8555 114.252 13.3736 114.05 14.2074 113.658L14.6054 114.922L13.5315 115.408L13.5378 115.421ZM11.7058 116.021L10.9099 116.274C11.4279 118.472 12.3123 119.679 13.6515 119.255C14.5928 118.959 14.8139 118.226 14.5106 117.272C14.1379 116.097 13.1145 115.579 11.7058 116.027V116.021Z" fill="#D08421"/>
<path d="M7.66307 105.048L12.1798 104.17L12.4325 105.471L8.01051 106.33C7.59989 106.413 7.2714 106.476 6.8671 106.583C5.9448 106.842 5.34467 107.493 5.59104 108.737C5.83741 109.994 6.98081 110.872 9.72246 110.342L13.2538 109.653L13.5064 110.955L5.47733 112.515L5.22464 111.214L6.60178 110.948L5.5784 110.626C4.9151 110.045 4.66241 109.483 4.50448 108.668C4.16336 106.912 4.90878 105.743 6.29856 105.351C6.70286 105.244 7.01872 105.181 7.66938 105.054L7.66307 105.048Z" fill="#D08421"/>
<path d="M11.3077 94.2332L11.3962 95.5598L10.0885 95.6482L11.0108 96.2041C11.4277 96.64 11.7499 97.4802 11.8068 98.314C11.971 100.702 10.278 102.149 7.89014 102.313C4.87053 102.521 3.34178 100.74 3.19648 98.6299C3.15226 97.954 3.29124 97.0759 3.60078 96.64L4.36516 96.0462L0.0884403 96.3431L0 95.0165L11.314 94.2332H11.3077ZM7.3974 95.8314L6.94888 95.863C4.83895 96.0083 4.13142 97.3854 4.21355 98.5604C4.31462 99.9944 5.49593 101.024 7.63745 100.872C9.48206 100.746 10.8908 99.8112 10.7771 98.1814C10.6823 96.8295 9.73475 95.6735 7.3974 95.8314V95.8314Z" fill="#D08421"/>
<path d="M8.34506 75.5028L12.8871 76.223L12.6786 77.5306L8.22504 76.8294C7.81442 76.7663 7.47961 76.7094 7.06268 76.6778C6.10879 76.602 5.29387 77.0063 5.12331 78.2634C4.95275 79.5332 5.69817 80.7461 8.45877 81.182L12.009 81.7442L11.8006 83.0518L0.524414 81.2704L0.73288 79.9564L5.31914 80.6829L4.47264 80.0322C4.04939 79.2615 4.00517 78.6488 4.13151 77.8212C4.40947 76.0524 5.51497 75.2122 6.94897 75.3133C7.3659 75.3449 7.68808 75.3954 8.33874 75.5028H8.34506Z" fill="#D08421"/>
<path d="M11.6175 65.1679C13.8286 65.7996 15.4078 67.5811 14.6435 70.2469C13.8791 72.9191 11.6049 73.6013 9.3939 72.9696C7.17026 72.3379 5.6036 70.5564 6.36798 67.8906C7.13236 65.2184 9.3939 64.5362 11.6175 65.1679ZM11.2196 66.564C9.36232 66.0334 7.79566 66.5829 7.34714 68.1686C6.89231 69.7542 7.94095 71.0492 9.79188 71.5735C11.6302 72.0978 13.2158 71.5546 13.6643 69.9689C14.1191 68.3833 13.0579 67.082 11.2196 66.5577V66.564Z" fill="#D08421"/>
<path d="M14.7378 56.065L18.9766 57.8401L18.4649 59.0656L14.3082 57.3284C13.9229 57.1705 13.6134 57.0378 13.2154 56.9052C12.3057 56.6083 11.4466 56.8167 10.9602 57.9854C10.4674 59.1667 10.9349 60.5312 13.5123 61.6115L16.8288 62.9949L16.3171 64.2204L8.77441 61.0682L9.2861 59.8427L10.5811 60.3859L9.9115 59.5521C9.67777 58.7056 9.78516 58.0928 10.1073 57.3284C10.7959 55.6796 12.0657 55.1237 13.4365 55.5596C13.8345 55.6923 14.1314 55.8186 14.7441 56.0713L14.7378 56.065Z" fill="#D08421"/>
<path d="M20.3412 46.7912C22.3374 47.922 23.4555 50.0256 22.0847 52.4388C20.7139 54.8583 18.3386 54.9783 16.3424 53.8475C14.3272 52.7104 13.228 50.6131 14.5989 48.2C15.9634 45.7868 18.326 45.6478 20.3412 46.7912V46.7912ZM19.6273 48.0547C17.9469 47.1071 16.2982 47.2713 15.4833 48.7053C14.6683 50.1393 15.3822 51.6428 17.0562 52.5904C18.7176 53.5317 20.3854 53.3737 21.2003 51.9397C22.0152 50.5057 21.2887 48.9959 19.6273 48.0547V48.0547Z" fill="#D08421"/>
<path d="M20.6256 39.1284L21.4468 39.7032C20.5751 40.7898 20.6446 42.1164 22.1733 43.184L25.9889 45.8562L25.2245 46.9427L18.5283 42.2491L19.2927 41.1625L20.3413 41.8953L19.8676 40.6635C19.8676 40.2528 20.0002 39.8296 20.2213 39.5137C20.3477 39.3369 20.474 39.2042 20.6256 39.1221V39.1284Z" fill="#D08421"/>
</svg>
