<svg width="111" height="111" viewBox="0 0 111 111" fill="none" xmlns="http://www.w3.org/2000/svg">
<g clip-path="url(#clip0_1171_1818)">
<path d="M22.5198 94.3793V95.5107H0.5V94.3793H8.34698C7.67297 93.3282 6.89384 92.3946 6.23838 91.5971L6.59084 91.1705H3.96281V86.9848H19.1126V91.1705H15.1737L16.8803 91.9495C16.2558 92.8522 15.5509 93.6065 14.6728 94.3793H22.5198ZM21.7468 85.6555H1.2544V84.524H21.7407V85.6555H21.7468ZM20.943 83.2751H2.00261V73.8712H4.01228V82.1437H6.39297V80.7402H4.51315V79.8375H6.39297V78.4835H4.8347V77.5808H6.39297V76.3257H4.66156V75.4231H6.39297V73.7908H8.0007V75.4231H9.85578V76.3257H8.0007V77.5808H9.73211V78.4835H8.0007V79.8375H10.0042V80.7402H8.0007V82.1437H10.4556V73.0427H12.4653V82.1437H14.8212V80.7402H13.0156V79.8375H14.8212V78.4835H13.2939V77.5808H14.8212V76.3257H13.1455V75.4231H14.8212V73.7908H16.4289V75.4231H18.2346V76.3257H16.4289V77.5808H18.1604V78.4835H16.4289V79.8375H18.4386V80.7402H16.4289V82.1437H18.9395V73.8712H20.9492V83.2751H20.943ZM6.12089 90.0452H16.9545V88.1162H6.12089V90.0452ZM10.2824 93.254L9.05191 94.3855H13.2135C13.7391 93.3591 14.1163 92.3761 14.444 91.1766H7.42563C8.42737 91.6774 9.45385 92.4565 10.2824 93.2602V93.254Z" fill="#231815"/>
<path d="M41.4664 78.4278H43.476V79.5284H41.4664V83.9676H35.5981C35.3199 85.0681 34.9674 86.0759 34.5716 86.9785H41.7941V96.0053H39.5865V94.2H35.0478V96.1846H32.8402V89.9401C31.9622 91.121 30.911 92.1226 29.7052 93.0994L29.1053 92.3946C30.9357 90.3667 32.5682 88.382 33.471 83.9676H30.6389V82.8361H33.675C33.8234 81.8592 33.9471 80.7525 34.0275 79.5284H29.5135V78.4278H34.1017C34.1264 77.4757 34.1512 76.4494 34.1512 75.3427H30.8924V74.2112H41.4725V78.4217L41.4664 78.4278ZM35.0478 93.0438H39.5865V88.1038H35.0478V93.0438ZM39.265 79.5284H36.2783C36.1794 80.734 36.0248 81.8345 35.8269 82.8361H39.265V79.5284ZM39.265 75.3427H36.4576C36.4576 76.4432 36.4329 77.4757 36.3587 78.4278H39.2712V75.3427H39.265ZM46.3143 91.4672L46.6173 90.5893C49.202 91.189 49.604 90.8427 49.3504 88.5799C49.1216 86.5767 48.2188 84.5673 46.9203 82.4837C47.7736 80.2023 48.2745 77.6674 48.627 75.3117H46.0175V96.3021H43.8099V73.6362L45.9185 74.1865H48.4291L49.134 73.7846L51.1622 74.712C50.0863 78.0445 49.3319 80.0044 47.9282 82.3848C49.4556 84.1654 51.1622 86.521 51.4652 88.753C52.1145 93.5446 48.7816 93.0376 46.3267 91.461L46.3143 91.4672Z" fill="#231815"/>
<path d="M81.1959 93.0499L80.392 95.7085C78.2834 95.8569 75.878 95.962 73.621 95.8816C68.6308 95.7085 65.1433 94.88 62.8615 92.5491C61.7609 94.1566 60.4314 95.5106 58.8237 96.537L58.2733 95.8074C59.4296 94.8553 60.7035 93.4023 61.7856 91.1951C60.8581 89.7916 60.2026 87.9863 59.8007 85.6801L60.6787 85.4266C61.1301 87.1578 61.7052 88.5613 62.4349 89.6618C63.1151 87.8812 63.6407 85.6739 63.9128 82.9906H61.7299C61.328 83.7202 60.9508 84.3446 60.654 84.7218L58.8731 83.9675C60.0542 82.0385 61.7856 78.6504 62.8863 75.8187H58.7495V74.7429H65.6689C64.9949 76.5977 63.585 79.5592 62.3607 81.8654H63.7643L64.3147 81.4635L66.244 82.1931C65.9162 85.5565 65.0629 88.6107 63.684 91.1456C65.7926 93.0994 68.8225 93.6249 73.1387 93.6249C75.8224 93.6002 78.7287 93.3467 81.1897 93.0499H81.1959ZM71.4382 79.5098H65.9472V78.434H71.4382V76.3751H67.122V75.2437H71.4382V73.0117H73.5963V75.2437H78.4875V78.4278H80.6456V79.5036H78.4875V82.8361H73.5963V84.8145H78.7101V85.946H73.5963V88.2769H79.8664V89.4021H73.5963V92.7099H71.4382V89.4021H65.9224V88.2769H71.4382V85.946H66.8252V84.8145H71.4382V82.8361H66.9984V81.7046H71.4382V79.4974V79.5098ZM73.5963 78.434H76.5026V76.3751H73.5963V78.434ZM73.5963 81.717H76.5026V79.5098H73.5963V81.717Z" fill="#231815"/>
<path d="M97.6134 78.6071H87.6331V77.4757H92.1965C91.4916 75.998 90.5641 74.3163 90.0137 73.3642L90.6878 72.7892C91.8194 73.6671 93.3714 75.3241 94.2495 76.6534L92.9942 77.4819H97.6134V78.6133V78.6071ZM88.6595 82.02V81.0431H96.2592V82.02H88.6595ZM96.2592 85.4823H88.6595V84.5054H96.2592V85.4823ZM96.4076 94.4102H90.8918V96.1166H88.7337V88.0172H96.4076V94.4102ZM94.299 89.1177H90.8856V93.3035H94.299V89.1177ZM109.096 96.2402C106.685 95.5354 104.632 94.336 102.975 92.7285C101.194 94.336 98.9367 95.6652 96.1293 96.5432L95.7521 95.7147C98.4111 94.6142 100.371 93.1056 101.824 91.4796C100.396 89.7484 99.3943 87.6957 98.8625 85.4638H97.3599V84.3323H104.91L105.584 83.881L107.915 84.8579C107.186 87.164 106.06 89.3712 104.378 91.325C106.332 92.5553 108.54 93.1798 110.5 93.6064L109.096 96.2402ZM96.4818 83.1267C98.6151 81.4697 99.1407 80.7711 99.1407 76.7585V74.5513H106.085V79.6644C106.085 80.4434 106.215 80.7649 107.111 80.7649C107.891 80.7649 108.342 80.6907 108.991 80.0601L109.993 81.7912C109.362 82.4404 108.262 82.7681 106.734 82.7681C104.428 82.7681 103.877 82.1436 103.877 80.0106V75.6703H101.398V76.8265C101.398 80.9627 99.9446 82.5208 96.9827 83.8995L96.4818 83.1205V83.1267ZM102.851 90.175C103.976 88.5675 104.656 86.9167 105.034 85.4638H99.8147C100.495 87.5226 101.571 89.025 102.851 90.175Z" fill="#231815"/>
<path d="M1.39663 110.825V107.19H3.84533V107.616H1.87276V108.742H3.57944V109.168H1.87276V110.819H1.39044L1.39663 110.825Z" fill="#231815"/>
<path d="M5.18719 110.825V107.19H7.81522V107.616H5.66952V108.729H7.67918V109.156H5.66952V110.392H7.90179V110.819H5.18719V110.825Z" fill="#231815"/>
<path d="M9.26837 110.825V107.19H9.76306L11.6738 110.04V107.19H12.1376V110.825H11.6429L9.73214 107.969V110.825H9.27455H9.26837Z" fill="#231815"/>
<path d="M15.353 109.403V108.977H16.8927V110.325C16.6578 110.51 16.4104 110.652 16.1631 110.751C15.9095 110.844 15.656 110.893 15.3901 110.893C15.0315 110.893 14.7099 110.819 14.4193 110.665C14.1287 110.51 13.9061 110.294 13.7576 110.003C13.6092 109.713 13.535 109.391 13.535 109.032C13.535 108.674 13.6092 108.346 13.7576 108.043C13.9061 107.734 14.1163 107.511 14.3946 107.363C14.6728 107.215 14.9944 107.141 15.353 107.141C15.6189 107.141 15.8539 107.184 16.0641 107.27C16.2744 107.357 16.4413 107.474 16.565 107.623C16.6887 107.777 16.7752 107.975 16.8433 108.216L16.4104 108.334C16.3548 108.148 16.2867 108.006 16.2063 107.895C16.126 107.79 16.0085 107.703 15.8601 107.641C15.7117 107.579 15.5447 107.549 15.3592 107.549C15.1428 107.549 14.9511 107.579 14.7903 107.647C14.6295 107.716 14.4997 107.802 14.4007 107.913C14.3018 108.025 14.2276 108.142 14.1719 108.272C14.0792 108.495 14.0297 108.742 14.0297 109.002C14.0297 109.323 14.0854 109.595 14.1967 109.811C14.308 110.028 14.4688 110.189 14.6852 110.3C14.8954 110.405 15.1242 110.461 15.3654 110.461C15.5756 110.461 15.7735 110.417 15.9776 110.343C16.1754 110.263 16.3238 110.176 16.429 110.083V109.41H15.3592L15.353 109.403Z" fill="#231815"/>
<path d="M18.08 109.737V109.286H19.4527V109.737H18.08Z" fill="#231815"/>
<path d="M20.4668 109.799L20.8997 109.737C20.912 110.015 20.9615 110.207 21.0543 110.306C21.147 110.411 21.2769 110.461 21.4376 110.461C21.5613 110.461 21.6603 110.43 21.753 110.38C21.8396 110.324 21.9014 110.25 21.9323 110.158C21.9632 110.065 21.9818 109.91 21.9818 109.7V107.196H22.4641V109.669C22.4641 109.972 22.427 110.207 22.3528 110.374C22.2786 110.541 22.1611 110.671 22.0003 110.757C21.8396 110.844 21.6541 110.887 21.4376 110.887C21.1223 110.887 20.8749 110.794 20.708 110.615C20.541 110.43 20.4606 110.158 20.4606 109.799H20.4668Z" fill="#231815"/>
<path d="M26.3413 107.196H26.8236V109.292C26.8236 109.657 26.7803 109.947 26.6999 110.164C26.6195 110.38 26.4711 110.553 26.2547 110.689C26.0383 110.825 25.7538 110.893 25.4076 110.893C25.0613 110.893 24.7892 110.838 24.5728 110.72C24.3563 110.603 24.2018 110.436 24.109 110.213C24.0162 109.991 23.973 109.688 23.973 109.304V107.208H24.4553V109.304C24.4553 109.62 24.4862 109.855 24.5419 110.003C24.5975 110.151 24.7026 110.269 24.8448 110.349C24.9871 110.43 25.1602 110.473 25.3705 110.473C25.7229 110.473 25.9764 110.393 26.1249 110.232C26.2733 110.071 26.3475 109.762 26.3475 109.311V107.215L26.3413 107.196Z" fill="#231815"/>
<path d="M28.3324 110.825V107.19H28.8271L30.7378 110.04V107.19H31.2016V110.825H30.7069L28.7962 107.969V110.825H28.3386H28.3324Z" fill="#231815"/>
<path d="M37.4223 109.552L37.9046 109.675C37.8057 110.071 37.6202 110.374 37.3604 110.578C37.1007 110.782 36.7792 110.887 36.402 110.887C36.0248 110.887 35.6909 110.807 35.4497 110.646C35.2024 110.485 35.0169 110.257 34.887 109.954C34.7571 109.651 34.6953 109.329 34.6953 108.977C34.6953 108.6 34.7695 108.266 34.9117 107.987C35.054 107.703 35.2642 107.493 35.5301 107.344C35.796 107.196 36.0928 107.128 36.4144 107.128C36.7792 107.128 37.0822 107.221 37.3295 107.406C37.5769 107.592 37.75 107.851 37.8489 108.185L37.3728 108.297C37.2862 108.031 37.1688 107.839 37.008 107.722C36.8472 107.604 36.6493 107.542 36.402 107.542C36.1237 107.542 35.8887 107.61 35.7032 107.74C35.5177 107.876 35.3817 108.055 35.3075 108.278C35.2333 108.501 35.1962 108.736 35.1962 108.977C35.1962 109.286 35.2395 109.558 35.3322 109.787C35.425 110.015 35.561 110.188 35.7527 110.306C35.9444 110.417 36.1485 110.479 36.3711 110.479C36.6431 110.479 36.8658 110.399 37.0574 110.244C37.243 110.09 37.3728 109.861 37.4346 109.552H37.4223Z" fill="#231815"/>
<path d="M39.0609 109.057C39.0609 108.451 39.2217 107.981 39.5494 107.641C39.871 107.301 40.2914 107.128 40.8047 107.128C41.1386 107.128 41.4416 107.208 41.7137 107.369C41.9796 107.53 42.1898 107.753 42.332 108.037C42.4743 108.321 42.5423 108.649 42.5423 109.014C42.5423 109.379 42.4681 109.712 42.3197 110.003C42.1713 110.294 41.961 110.516 41.6889 110.665C41.4169 110.813 41.1201 110.887 40.8047 110.887C40.4646 110.887 40.1554 110.807 39.8895 110.64C39.6236 110.473 39.4134 110.25 39.2773 109.966C39.1351 109.682 39.0671 109.379 39.0671 109.057H39.0609ZM39.5556 109.063C39.5556 109.502 39.6731 109.848 39.9081 110.096C40.143 110.349 40.4399 110.473 40.7923 110.473C41.1448 110.473 41.454 110.343 41.6889 110.09C41.9239 109.836 42.0414 109.471 42.0414 109.008C42.0414 108.711 41.9919 108.451 41.893 108.235C41.7941 108.018 41.6457 107.845 41.454 107.722C41.2623 107.598 41.0458 107.542 40.8047 107.542C40.4646 107.542 40.174 107.66 39.9266 107.895C39.6793 108.13 39.5556 108.519 39.5556 109.063Z" fill="#231815"/>
<path d="M43.8594 110.825V107.19H44.3541L46.2648 110.04V107.19H46.7286V110.825H46.2339L44.3231 107.969V110.825H43.8656H43.8594Z" fill="#231815"/>
<path d="M48.0766 109.657L48.528 109.62C48.5465 109.799 48.596 109.947 48.6764 110.065C48.7568 110.182 48.8743 110.275 49.0412 110.349C49.2082 110.423 49.3937 110.454 49.5978 110.454C49.7833 110.454 49.944 110.43 50.0863 110.374C50.2285 110.318 50.3336 110.244 50.4016 110.151C50.4696 110.059 50.5068 109.954 50.5068 109.842C50.5068 109.731 50.4758 109.632 50.4078 109.545C50.3398 109.459 50.2347 109.391 50.0801 109.329C49.9811 109.292 49.7647 109.23 49.4308 109.15C49.0969 109.069 48.8619 108.995 48.7321 108.921C48.5589 108.828 48.4291 108.717 48.3425 108.581C48.2559 108.445 48.2126 108.297 48.2126 108.13C48.2126 107.944 48.2683 107.777 48.3672 107.616C48.4724 107.456 48.6208 107.338 48.8248 107.252C49.0227 107.171 49.2453 107.128 49.4926 107.128C49.7647 107.128 49.9997 107.171 50.2038 107.258C50.4078 107.344 50.5686 107.474 50.6799 107.641C50.7912 107.808 50.853 108 50.8592 108.216L50.4016 108.253C50.3769 108.025 50.2965 107.851 50.1481 107.734C50.0059 107.616 49.7956 107.561 49.5174 107.561C49.2391 107.561 49.0165 107.616 48.8805 107.722C48.7444 107.827 48.6826 107.957 48.6826 108.105C48.6826 108.235 48.7321 108.34 48.8248 108.426C48.9176 108.513 49.1587 108.6 49.5483 108.686C49.9379 108.773 50.2038 108.853 50.3522 108.921C50.5624 109.02 50.7232 109.144 50.8221 109.292C50.9211 109.44 50.9705 109.614 50.9705 109.811C50.9705 110.009 50.9149 110.188 50.8036 110.355C50.6923 110.529 50.5315 110.658 50.3274 110.757C50.1172 110.85 49.8884 110.9 49.6287 110.9C49.3009 110.9 49.0227 110.85 48.8001 110.757C48.5775 110.658 48.4043 110.516 48.2745 110.325C48.1508 110.133 48.0828 109.916 48.0766 109.669V109.657Z" fill="#231815"/>
<path d="M53.2585 110.825V107.623H52.0588V107.196H54.9404V107.623H53.7408V110.825H53.2585Z" fill="#231815"/>
<path d="M56.1586 110.825V107.19H57.7725C58.094 107.19 58.3414 107.221 58.5083 107.289C58.6753 107.357 58.8113 107.468 58.9103 107.635C59.0092 107.802 59.0587 107.981 59.0587 108.185C59.0587 108.445 58.9783 108.661 58.8113 108.834C58.6444 109.014 58.3847 109.125 58.0384 109.168C58.1682 109.23 58.261 109.292 58.329 109.348C58.4712 109.477 58.6011 109.638 58.7309 109.83L59.3617 110.819H58.7557L58.2734 110.065C58.1311 109.848 58.0198 109.681 57.9271 109.564C57.8343 109.447 57.7539 109.366 57.6797 109.323C57.6055 109.28 57.5375 109.242 57.4633 109.224C57.4077 109.212 57.3211 109.205 57.1974 109.205H56.6409V110.819H56.1586V110.825ZM56.6409 108.797H57.6735C57.89 108.797 58.0631 108.773 58.1868 108.729C58.3105 108.686 58.4032 108.612 58.4712 108.513C58.5331 108.414 58.5702 108.303 58.5702 108.185C58.5702 108.012 58.5083 107.87 58.3847 107.759C58.261 107.647 58.0631 107.592 57.791 107.592H56.6409V108.791V108.797Z" fill="#231815"/>
<path d="M62.9049 107.196H63.3872V109.292C63.3872 109.657 63.3439 109.947 63.2635 110.164C63.1831 110.38 63.0347 110.553 62.8183 110.689C62.6019 110.825 62.3174 110.893 61.9712 110.893C61.6249 110.893 61.3528 110.838 61.1364 110.72C60.9199 110.603 60.7654 110.436 60.6726 110.213C60.5798 109.991 60.5366 109.688 60.5366 109.304V107.208H61.0189V109.304C61.0189 109.62 61.0498 109.855 61.1055 110.003C61.1611 110.151 61.2662 110.269 61.4084 110.349C61.5507 110.43 61.7238 110.473 61.9341 110.473C62.2865 110.473 62.54 110.393 62.6885 110.232C62.8369 110.071 62.9111 109.762 62.9111 109.311V107.215L62.9049 107.196Z" fill="#231815"/>
<path d="M67.4931 109.552L67.9754 109.675C67.8765 110.071 67.691 110.374 67.4312 110.578C67.1715 110.782 66.85 110.887 66.4728 110.887C66.0956 110.887 65.7617 110.807 65.5205 110.646C65.2732 110.485 65.0877 110.257 64.9578 109.954C64.8279 109.651 64.7661 109.329 64.7661 108.977C64.7661 108.6 64.8403 108.266 64.9825 107.987C65.1248 107.703 65.335 107.493 65.6009 107.344C65.8668 107.196 66.1636 107.128 66.479 107.128C66.8438 107.128 67.1468 107.221 67.3941 107.406C67.6415 107.592 67.8146 107.851 67.9136 108.185L67.4374 108.297C67.3509 108.031 67.2272 107.839 67.0726 107.722C66.9118 107.604 66.7078 107.542 66.4666 107.542C66.1883 107.542 65.9534 107.61 65.7679 107.74C65.5823 107.876 65.4463 108.055 65.3721 108.278C65.2979 108.501 65.2608 108.736 65.2608 108.977C65.2608 109.286 65.3041 109.558 65.3968 109.787C65.4834 110.015 65.6256 110.188 65.8173 110.306C66.009 110.417 66.2131 110.479 66.4357 110.479C66.7016 110.479 66.9304 110.399 67.1221 110.244C67.3076 110.09 67.4374 109.861 67.4993 109.552H67.4931Z" fill="#231815"/>
<path d="M70.2015 110.825V107.623H69.0019V107.196H71.8835V107.623H70.6838V110.825H70.2015Z" fill="#231815"/>
<path d="M73.1696 110.825V107.19H73.6519V110.825H73.1696Z" fill="#231815"/>
<path d="M75.0618 109.057C75.0618 108.451 75.2226 107.981 75.5503 107.641C75.8719 107.301 76.2924 107.128 76.8056 107.128C77.1395 107.128 77.4425 107.208 77.7146 107.369C77.9805 107.53 78.1907 107.753 78.333 108.037C78.4752 108.321 78.5432 108.649 78.5432 109.014C78.5432 109.379 78.469 109.712 78.3206 110.003C78.1722 110.294 77.9619 110.516 77.6899 110.665C77.4178 110.813 77.121 110.887 76.8056 110.887C76.4655 110.887 76.1563 110.807 75.8904 110.64C75.6245 110.473 75.4143 110.25 75.2783 109.966C75.136 109.682 75.068 109.379 75.068 109.057H75.0618ZM75.5565 109.063C75.5565 109.502 75.674 109.848 75.909 110.096C76.144 110.349 76.4408 110.473 76.7932 110.473C77.1457 110.473 77.4549 110.343 77.6899 110.09C77.9248 109.836 78.0423 109.471 78.0423 109.008C78.0423 108.711 77.9929 108.451 77.8939 108.235C77.795 108.012 77.6466 107.845 77.4549 107.722C77.2632 107.598 77.0468 107.542 76.8056 107.542C76.4655 107.542 76.1749 107.66 75.9275 107.895C75.6802 108.13 75.5565 108.519 75.5565 109.063Z" fill="#231815"/>
<path d="M79.8603 110.825V107.19H80.355L82.2657 110.04V107.19H82.7233V110.825H82.2286L80.3179 107.969V110.825H79.8541H79.8603Z" fill="#231815"/>
<path d="M88.9564 109.552L89.4387 109.675C89.3397 110.071 89.1542 110.374 88.8945 110.578C88.6348 110.782 88.3133 110.887 87.9361 110.887C87.5589 110.887 87.2249 110.807 86.9776 110.646C86.7303 110.485 86.5448 110.257 86.4149 109.954C86.285 109.651 86.2232 109.329 86.2232 108.977C86.2232 108.6 86.2974 108.266 86.4396 107.987C86.5818 107.703 86.7921 107.493 87.058 107.344C87.3239 107.196 87.6207 107.128 87.9361 107.128C88.3009 107.128 88.6039 107.221 88.8512 107.406C89.0986 107.592 89.2717 107.851 89.3707 108.185L88.8945 108.297C88.8079 108.031 88.6843 107.839 88.5297 107.722C88.3689 107.604 88.1649 107.542 87.9237 107.542C87.6454 107.542 87.4105 107.61 87.2249 107.74C87.0394 107.876 86.9034 108.055 86.8292 108.278C86.755 108.501 86.7179 108.736 86.7179 108.977C86.7179 109.286 86.7612 109.558 86.8539 109.787C86.9405 110.015 87.0827 110.188 87.2744 110.306C87.4661 110.417 87.6702 110.479 87.8928 110.479C88.1587 110.479 88.3875 110.399 88.5792 110.244C88.7647 110.09 88.8945 109.861 88.9564 109.552Z" fill="#231815"/>
<path d="M90.5888 109.057C90.5888 108.451 90.7496 107.981 91.0773 107.641C91.3989 107.301 91.8193 107.128 92.3326 107.128C92.6665 107.128 92.9695 107.208 93.2416 107.369C93.5075 107.53 93.7177 107.753 93.8599 108.037C94.0021 108.321 94.0702 108.649 94.0702 109.014C94.0702 109.379 93.996 109.712 93.8476 110.003C93.6992 110.294 93.4889 110.516 93.2168 110.665C92.9448 110.813 92.6479 110.887 92.3326 110.887C91.9925 110.887 91.6833 110.807 91.4174 110.64C91.1515 110.473 90.9413 110.25 90.8052 109.966C90.663 109.682 90.595 109.379 90.595 109.057H90.5888ZM91.0835 109.063C91.0835 109.502 91.201 109.848 91.436 110.096C91.6709 110.349 91.9677 110.473 92.3202 110.473C92.6727 110.473 92.9819 110.343 93.2168 110.09C93.4518 109.836 93.5693 109.471 93.5693 109.008C93.5693 108.711 93.5198 108.451 93.4209 108.235C93.322 108.012 93.1735 107.845 92.9819 107.722C92.7902 107.598 92.5737 107.542 92.3326 107.542C91.9925 107.542 91.7018 107.66 91.4545 107.895C91.2072 108.13 91.0835 108.519 91.0835 109.063Z" fill="#231815"/>
<path d="M95.4677 110.825V110.318H95.9747V110.825H95.4677Z" fill="#231815"/>
<path d="M99.6169 110.825V107.19H100.099V110.392H101.886V110.819H99.6169V110.825Z" fill="#231815"/>
<path d="M103.717 110.825V107.623H102.517V107.196H105.399V107.623H104.199V110.825H103.717Z" fill="#231815"/>
<path d="M106.604 110.825V107.19H107.853C108.138 107.19 108.354 107.208 108.503 107.239C108.713 107.289 108.886 107.375 109.034 107.499C109.226 107.66 109.368 107.87 109.461 108.117C109.554 108.371 109.603 108.655 109.603 108.983C109.603 109.261 109.572 109.502 109.504 109.719C109.443 109.929 109.356 110.108 109.257 110.25C109.158 110.392 109.047 110.498 108.923 110.578C108.806 110.658 108.657 110.72 108.49 110.757C108.323 110.801 108.125 110.819 107.909 110.819H106.598L106.604 110.825ZM107.087 110.399H107.86C108.101 110.399 108.286 110.374 108.422 110.331C108.558 110.287 108.67 110.226 108.75 110.145C108.861 110.034 108.954 109.879 109.016 109.688C109.078 109.496 109.109 109.261 109.109 108.989C109.109 108.606 109.047 108.315 108.923 108.111C108.8 107.907 108.645 107.771 108.466 107.703C108.336 107.654 108.132 107.629 107.847 107.629H107.087V110.405V110.399Z" fill="#231815"/>
<path d="M55.5031 0C38.5353 0 24.7768 13.7566 24.7768 30.7219C24.7768 47.6873 38.5353 61.4439 55.5031 61.4439C72.4709 61.4439 86.2294 47.6873 86.2294 30.7219C86.2294 13.7566 72.4709 0 55.5031 0ZM54.489 4.06205H56.5172V42.6422H54.489V4.06205ZM50.5624 7.25233H53.5676V42.6422H50.5624V7.25851V7.25233ZM37.4779 18.61V10.2942H48.8124V13.7442H39.8029V15.8525H48.8124V19.3025H37.4779V18.6162V18.61ZM37.4779 29.3988V21.0831H48.8124V24.533H39.8029V26.6413H48.8124V30.0913H37.4779V29.405V29.3988ZM37.4779 40.1877V31.8719H48.8124V35.3219H39.8029V37.4302H48.8124V40.8801H37.4779V40.1939V40.1877ZM48.8124 44.8989V52.3553H46.4874V46.1045H39.8029V52.3553H37.4779V42.6608H48.8124V44.8989ZM60.4438 44.8989V52.3553H58.4156V47.5266H52.5844V52.3553H50.5562V44.0828H60.4438V44.8989ZM60.4438 42.6484H57.4386V7.25851H60.4438V42.6484ZM73.5283 44.8989V52.3553H71.2032V46.1045H64.5188V52.3553H62.1937V42.6608H73.5283V44.8989ZM73.5283 32.7313V40.874H62.1937V37.424H71.2032V35.3157H62.1937V31.8657H73.5283V32.7251V32.7313ZM73.5283 21.9425V30.0851H62.1937V26.6352H71.2032V24.5269H62.1937V21.0769H73.5283V21.9363V21.9425ZM73.5283 11.1536V19.2963H62.1937V15.8463H71.2032V13.738H62.1937V10.288H73.5283V11.1474V11.1536Z" fill="url(#paint0_linear_1171_1818)"/>
</g>
<defs>
<linearGradient id="paint0_linear_1171_1818" x1="71.7969" y1="56.7697" x2="39.2098" y2="4.66998" gradientUnits="userSpaceOnUse">
<stop stop-color="#8A6432"/>
<stop offset="0.11" stop-color="#A17C47"/>
<stop offset="0.24" stop-color="#B7925A"/>
<stop offset="0.32" stop-color="#BF9A61"/>
<stop offset="0.38" stop-color="#C29F67"/>
<stop offset="0.47" stop-color="#CDAD7A"/>
<stop offset="0.58" stop-color="#DEC499"/>
<stop offset="0.66" stop-color="#EFDCB8"/>
<stop offset="0.67" stop-color="#EEDBB7"/>
<stop offset="0.74" stop-color="#D9BC8C"/>
<stop offset="0.81" stop-color="#C8A36A"/>
<stop offset="0.88" stop-color="#BB9151"/>
<stop offset="0.94" stop-color="#B48643"/>
<stop offset="0.99" stop-color="#B2833E"/>
</linearGradient>
<clipPath id="clip0_1171_1818">
<rect width="110" height="110.887" fill="white" transform="translate(0.5)"/>
</clipPath>
</defs>
</svg>
