<svg width="42" height="73" viewBox="0 0 42 73" fill="none" xmlns="http://www.w3.org/2000/svg">
<path d="M0 72.8102V62.2302H1.49L4.88 67.5802C5.67 68.8202 6.28 69.9302 6.78 71.0202L6.81 71.0002C6.68 69.5902 6.65 68.3002 6.65 66.6502V62.2202H7.94V72.8002H6.56L3.2 67.4302C2.46 66.2502 1.76 65.0402 1.22 63.9002L1.17 63.9202C1.25 65.2502 1.28 66.5302 1.28 68.2802V72.8002H0V72.8102Z" fill="black"/>
<path d="M18.3301 67.84H14.2201V71.66H18.8001V72.81H12.8501V62.23H18.5601V63.38H14.2101V66.72H18.3201V67.85L18.3301 67.84Z" fill="black"/>
<path d="M28.88 72.8102L27.53 70.4702C26.98 69.5702 26.64 68.9902 26.31 68.3802H26.28C25.98 68.9902 25.68 69.5602 25.13 70.4802L23.86 72.8002H22.29L25.52 67.4502L22.41 62.2202H23.99L25.39 64.7002C25.78 65.3902 26.08 65.9302 26.36 66.4902H26.41C26.71 65.8602 26.98 65.3802 27.37 64.7002L28.81 62.2202H30.38L27.16 67.3702L30.46 72.8002H28.87L28.88 72.8102Z" fill="black"/>
<path d="M36.7 63.3802H33.48V62.2202H41.31V63.3802H38.08V72.8002H36.7V63.3802Z" fill="black"/>
<path d="M7.28003 0V2.55L32.18 22.57L7.28003 42.6V45.15L35.35 22.57L7.28003 0Z" fill="#D08421"/>
</svg>
