<svg width="207" height="46" viewBox="0 0 207 46" fill="none" xmlns="http://www.w3.org/2000/svg">
<path opacity="0.4" d="M22.9199 45.44C10.4999 45.44 0.399902 35.34 0.399902 22.92C0.399902 10.5 10.4999 0.400002 22.9199 0.400002H183.09C195.51 0.400002 205.61 10.5 205.61 22.92C205.61 35.34 195.51 45.44 183.09 45.44H22.9199Z" fill="white"/>
<path d="M183.09 0.79C195.31 0.79 205.22 10.7 205.22 22.92C205.22 35.14 195.31 45.05 183.09 45.05H22.92C10.7 45.05 0.79 35.14 0.79 22.92C0.79 10.7 10.7 0.79 22.92 0.79H183.09ZM183.09 0H22.92C10.28 0 0 10.28 0 22.92C0 35.56 10.28 45.84 22.92 45.84H183.09C195.73 45.84 206.01 35.56 206.01 22.92C206.01 10.28 195.73 0 183.09 0Z" fill="#D08421"/>
<path d="M41.6502 28.99V29.91H27.9902V28.99H36.0302C36.6202 26.76 37.2102 23.69 37.5202 20.58L39.3702 21.05C38.8402 23.67 37.7202 26.85 36.7602 29H41.6402L41.6502 28.99ZM41.0702 19.69H28.6102V18.86H34.5302C34.0802 17.83 33.3902 16.34 32.8802 15.44L33.3402 15.06C34.3802 15.89 35.5502 17.21 36.2002 18.29L35.2902 18.86H41.0602V19.69H41.0702ZM30.3602 20.92L30.9702 20.7C32.1802 22.82 33.2102 25.67 33.5802 27.91L31.7702 28.29C31.5502 25.74 31.0502 23.27 30.3602 20.91V20.92Z" fill="black"/>
<path d="M51.5301 24.31C52.5501 25.48 53.8201 27.43 54.3401 28.84L52.8201 29.52C52.6601 28.92 52.4201 28.15 52.1501 27.39C50.6801 28.27 48.3901 29.24 47.1901 29.59L46.5801 27.92L47.8101 27.72V16.09H53.5801V23.32H49.2501V27.42C50.1501 27.22 51.0401 26.99 51.8901 26.72C51.6001 25.94 51.3001 25.19 51.0401 24.64L51.5201 24.31H51.5301ZM49.2601 19.33H52.1901V16.85H49.2601V19.33ZM49.2601 22.58H52.1901V20.05H49.2601V22.58ZM60.1201 16.11V26.62C60.1201 28.39 58.0901 28.29 56.4601 27.22L56.6001 26.65C58.3101 26.98 58.7101 26.87 58.7101 26.07V16.86H56.2001V30.82H54.7601V16.11H60.1201Z" fill="black"/>
<path d="M72.2103 21.36C71.6703 22.56 70.7503 24.11 70.3403 24.59L69.8803 24.36C70.1503 23.63 70.4103 22.61 70.5503 21.68H69.4003V29.16C69.4003 30.51 68.3003 31.38 65.7203 29.73L65.9103 29.13C67.7503 29.65 67.9903 29.53 67.9903 28.8V21.68H65.5303V20.96H69.1303C68.5703 20.21 67.8203 19.31 67.1203 18.51L67.4603 18.06C67.9103 18.31 68.4703 18.66 69.0103 19.03C69.4303 18.3 69.8603 17.38 70.0303 16.78H66.0303V16.08H70.0603L70.4303 15.81L71.8503 16.68C71.2103 17.65 70.3303 18.73 69.5803 19.45C69.9003 19.7 70.1903 19.95 70.4103 20.2L69.6903 20.97H70.5403L70.8803 20.69L72.2203 21.37L72.2103 21.36ZM74.2103 27.54L75.5003 28.49C74.0903 29.64 72.2203 30.59 70.5803 31.06L70.3603 30.51C71.6603 29.88 73.1303 28.83 74.2103 27.54ZM74.9603 17.04H72.0503V16.29H79.6303V17.04H76.5103C76.1403 17.74 75.7103 18.46 75.3903 18.92H78.7203V27.22H72.4403V18.92H74.6903C74.8003 18.34 74.9003 17.59 74.9603 17.04ZM77.3403 19.67H73.7703V21.35H77.3403V19.67ZM77.3403 22.1H73.7703V23.88H77.3403V22.1ZM77.3403 24.63H73.7703V26.46H77.3403V24.63ZM80.0403 29.45L79.1303 30.87C78.3503 30.12 76.9603 28.97 75.7103 28.1L75.9503 27.55C77.3403 27.97 78.7003 28.57 80.0403 29.45Z" fill="black"/>
<path d="M86.0003 25.69C86.0803 27.66 85.9003 29.51 85.5003 30.59L84.0303 29.94C84.6203 28.94 85.1703 27.41 85.4203 25.62L86.0003 25.69ZM88.8603 21.71C89.6403 22.59 90.5603 23.86 91.0203 24.81L89.7403 25.53C89.6003 25.05 89.4003 24.5 89.2003 23.95C87.7003 24.52 85.8403 25.03 84.4203 25.27L84.1003 23.67C84.4803 23.69 84.8803 23.69 85.3003 23.67C86.0703 22.77 86.7203 21.84 87.4003 20.64C86.4903 20.94 85.5003 21.19 84.6203 21.32L84.3303 19.9C84.6703 19.92 85.0003 19.92 85.3203 19.92C85.9103 18.64 86.5703 16.77 86.9703 15.17L88.4403 15.7C87.7503 17.23 86.8203 18.82 86.0103 19.92C86.6503 19.89 87.2703 19.85 87.8503 19.8C88.1903 19.15 88.5203 18.43 88.8903 17.62L90.2803 18.34C89.1003 20.51 87.5103 22.39 86.1403 23.64C87.0803 23.57 88.0603 23.47 88.9503 23.36C88.7603 22.88 88.5703 22.43 88.3703 22.04L88.8703 21.72L88.8603 21.71ZM87.3103 25.44C87.8403 26.76 88.3303 28.41 88.5203 29.62L87.0503 29.85C87.0503 28.67 86.9103 26.9 86.7503 25.57L87.3103 25.44ZM88.7203 24.94C89.4103 25.76 90.3003 27.31 90.7003 28.24L89.3903 28.82C89.1203 27.72 88.6503 26.24 88.2103 25.19L88.7203 24.94ZM97.6403 18.47C97.6203 24.14 97.4603 27.25 97.2103 28.83C96.8603 31 94.9403 31.41 92.0803 28.98L92.3203 28.43C94.8503 29.33 95.5303 29.55 95.7703 28.2C95.9503 27.23 96.1703 24.65 96.1703 19.22H92.0403C91.5403 20.22 90.9003 21.24 90.0703 22.15L89.6103 21.77C90.8203 19.55 91.4203 17.47 91.8003 15.14L93.3703 15.54C93.1903 16.29 92.8903 17.34 92.3903 18.47H97.6403ZM93.4803 25.97C92.9503 24.54 92.2503 22.94 91.5103 21.52L91.9703 21.15C93.0903 22.25 94.1903 23.73 94.9303 25.13L93.4703 25.96L93.4803 25.97Z" fill="black"/>
<path d="M118.7 25.42C118.7 27.37 117.51 29.49 114.96 29.49C114.44 29.49 113.79 29.28 113.52 28.97L113.23 28.35L113.05 29.33H112.03L113.58 20.58H114.6L113.99 24.03L114.59 23.35C114.99 23.05 115.7 22.85 116.34 22.85C117.91 22.85 118.7 23.98 118.7 25.42ZM117.58 25.47C117.58 24.4 117.09 23.64 116.06 23.64C115.03 23.64 113.95 24.31 113.63 26.12L113.57 26.47C113.37 27.64 113.82 28.72 115.11 28.72C116.7 28.72 117.59 27.09 117.59 25.48L117.58 25.47Z" fill="#D08421"/>
<path d="M127.81 25.63C127.81 27.33 126.75 29.49 124.18 29.49C122.23 29.49 121.48 28.15 121.48 26.71C121.48 25.01 122.54 22.85 125.11 22.85C127.06 22.85 127.81 24.19 127.81 25.64V25.63ZM126.69 25.65C126.69 24.54 126.17 23.63 124.98 23.63C123.41 23.63 122.6 25.24 122.6 26.68C122.6 27.79 123.12 28.7 124.31 28.7C125.88 28.7 126.69 27.09 126.69 25.65Z" fill="#D08421"/>
<path d="M136.95 25.63C136.95 27.33 135.89 29.49 133.32 29.49C131.37 29.49 130.62 28.15 130.62 26.71C130.62 25.01 131.68 22.85 134.25 22.85C136.2 22.85 136.95 24.19 136.95 25.64V25.63ZM135.83 25.65C135.83 24.54 135.31 23.63 134.12 23.63C132.55 23.63 131.74 25.24 131.74 26.68C131.74 27.79 132.26 28.7 133.45 28.7C135.02 28.7 135.83 27.09 135.83 25.65Z" fill="#D08421"/>
<path d="M145.07 29.32H143.84L141.94 26.57L141.15 27.26L140.78 29.32H139.76L141.31 20.57H142.33L141.35 26.12L144.84 23.01H146.15L142.69 26L145.07 29.32Z" fill="#D08421"/>
<path d="M158.18 24.47C158.18 24.8 158.17 25.02 158.02 25.78L157.38 29.33H156.36L156.99 25.85C157.09 25.31 157.12 25.01 157.12 24.76C157.12 24.12 156.79 23.64 155.89 23.67C154.89 23.69 153.94 24.41 153.56 26.56L153.07 29.33H152.05L153.16 23.02H154.18L153.99 24.1L154.51 23.37C155.12 22.95 155.6 22.85 156.25 22.85C157.54 22.85 158.18 23.48 158.18 24.47Z" fill="#D08421"/>
<path d="M167.61 25.63C167.61 27.33 166.55 29.49 163.98 29.49C162.03 29.49 161.28 28.15 161.28 26.71C161.28 25.01 162.34 22.85 164.91 22.85C166.86 22.85 167.61 24.19 167.61 25.64V25.63ZM166.49 25.65C166.49 24.54 165.97 23.63 164.78 23.63C163.21 23.63 162.4 25.24 162.4 26.68C162.4 27.79 162.92 28.7 164.11 28.7C165.68 28.7 166.49 27.09 166.49 25.65Z" fill="#D08421"/>
<path d="M176.63 29.32H175.42L174.96 24.04L172.63 29.32H171.4L170.51 23.01H171.69L172.21 28.25L174.48 23.01H175.78L176.26 28.26L178.65 23.01H179.77L176.64 29.32H176.63Z" fill="#D08421"/>
</svg>
