<svg width="184" height="183" viewBox="0 0 184 183" fill="none" xmlns="http://www.w3.org/2000/svg">
<path d="M69.9796 12.14C70.1296 12.62 70.3196 13.22 70.4396 13.65C71.0896 15.94 70.0896 17.57 67.8596 18.28C65.6596 18.98 64.2696 18.41 63.5896 16.82L63.5296 16.68L64.7996 16.28L64.8596 16.41C65.2596 17.33 66.2296 17.74 67.5596 17.32C69.0896 16.83 69.6496 15.69 69.2296 14.19C69.1296 13.82 69.0496 13.57 68.9796 13.34L68.9396 13.21L68.6196 14.23C68.2996 14.73 67.5596 15.24 66.7696 15.49C64.5096 16.21 62.7096 14.91 61.9896 12.65C61.0796 9.79 62.4396 7.9 64.4396 7.26C65.0796 7.06 65.9596 6.99 66.4596 7.18L67.2096 7.78L66.8696 6.71L68.1196 6.31L69.9796 12.15V12.14ZM68.1196 10.64L67.9896 10.22C67.3596 8.22 65.8596 7.86 64.7496 8.21C63.3896 8.64 62.6796 10.03 63.3196 12.06C63.8796 13.81 65.1096 14.95 66.6496 14.46C67.9396 14.05 68.8296 12.87 68.1196 10.65V10.64Z" fill="#D08421"/>
<path d="M77.6497 11.34L77.3797 12.28C76.9097 12.76 76.2397 13.02 75.4797 13.16C74.0397 13.44 72.7597 12.86 72.4697 11.39C72.1197 9.59003 73.2897 8.39003 76.4197 7.79003L76.9297 7.69003L76.8897 7.48003C76.8197 7.13003 76.7597 6.82003 76.6697 6.52003C76.4697 5.79003 75.9497 5.40003 74.8897 5.60003C73.8097 5.81003 73.3797 6.50003 73.4997 7.62003L72.1497 7.88003C71.9397 6.16003 72.9397 4.95003 74.6997 4.61003C76.5897 4.24003 77.5497 4.88003 77.9397 6.17003C78.0297 6.48003 78.1197 6.87003 78.1897 7.21003L78.7697 10.2C78.8897 10.8 79.0197 11.34 79.3197 12.2L78.0297 12.45L77.6697 11.33L77.6497 11.34ZM77.2697 9.46003L77.1097 8.65003C74.8797 8.91003 73.5897 9.65003 73.8597 11.01C74.0497 11.97 74.7397 12.27 75.7197 12.08C76.9197 11.85 77.5497 10.9 77.2697 9.46003Z" fill="#D08421"/>
<path d="M83.4795 9.34001C83.5095 9.61001 83.5195 9.75001 83.5595 9.96001C83.6995 10.73 84.0395 10.87 85.0495 10.64L85.1495 11.6C84.7695 11.7 84.4095 11.75 84.0495 11.79C83.0395 11.89 82.4795 11.53 82.2995 10.54C82.2595 10.33 82.2295 9.99001 82.1795 9.54001L81.6995 4.83001L80.6195 4.94001L80.5195 3.93001L81.5995 3.82001L81.4095 1.95001L82.7195 1.82001L82.9095 3.69001L84.4195 3.54001L84.5195 4.55001L83.0095 4.70001L83.4795 9.35001V9.34001Z" fill="#D08421"/>
<path d="M94.41 6.73L94.44 11.29H93.12L93.09 6.83C93.09 6.42 93.09 6.08 93.05 5.67C92.97 4.72 92.44 3.99 91.18 4.03C89.91 4.07 88.84 5 88.86 7.77L88.89 11.34H87.57L87.5 0H88.82L88.85 4.6L89.35 3.66C90.04 3.12 90.63 2.98 91.46 2.97C93.24 2.96 94.24 3.9 94.37 5.32C94.4 5.73 94.41 6.05 94.41 6.71V6.73Z" fill="#D08421"/>
<path d="M104.27 8.56001L98.4199 7.91001C98.3099 10.06 99.2299 10.88 100.42 11.01C101.47 11.13 102.4 10.57 102.71 9.43001L104.08 9.58001C103.54 11.49 101.91 12.19 100.25 12.01C98.1499 11.78 96.7299 10.23 97.0499 7.38001C97.3399 4.76001 99.1599 3.28001 101.36 3.53001C103.58 3.78001 104.63 5.57001 104.37 7.93001C104.36 8.05001 104.33 8.27001 104.27 8.55001V8.56001ZM98.5499 6.91001L103.09 7.41001C103.15 5.72001 102.54 4.68001 101.22 4.53001C99.9399 4.39001 98.8899 5.20001 98.5499 6.90001V6.91001Z" fill="#D08421"/>
<path d="M111.61 5.41999L111.41 6.39999C110.08 6.02999 108.89 6.60999 108.52 8.42999L107.58 12.96L106.29 12.69L107.94 4.73999L109.23 5.00999L108.97 6.24999L109.91 5.32999C110.29 5.16999 110.72 5.11999 111.09 5.19999C111.3 5.23999 111.47 5.30999 111.61 5.41999Z" fill="#D08421"/>
<path d="M111.93 13.97L114.08 6.13998L115.35 6.48998L113.2 14.32L111.93 13.97ZM116.01 4.77998C115.89 5.23998 115.43 5.49998 114.97 5.36998C114.51 5.23998 114.25 4.78998 114.38 4.32998C114.51 3.86998 114.96 3.60998 115.42 3.73998C115.88 3.86998 116.14 4.31998 116.01 4.77998Z" fill="#D08421"/>
<path d="M124.16 13.23L122.58 17.52L121.34 17.07L122.88 12.87C123.02 12.48 123.14 12.17 123.25 11.77C123.51 10.85 123.26 10.01 122.08 9.57999C120.89 9.13999 119.55 9.65999 118.6 12.27L117.37 15.62L116.13 15.17L118.93 7.54999L120.17 7.99999L119.69 9.30999L120.49 8.60999C121.32 8.33999 121.93 8.41999 122.71 8.70999C124.38 9.31999 124.98 10.56 124.61 11.94C124.5 12.34 124.39 12.64 124.16 13.26V13.23Z" fill="#D08421"/>
<path d="M132.36 20.11C132.13 20.56 131.84 21.12 131.62 21.51C130.47 23.59 128.61 24.04 126.53 22.97C124.47 21.91 123.89 20.53 124.53 18.93L124.59 18.79L125.77 19.4L125.72 19.53C125.36 20.46 125.75 21.44 126.99 22.08C128.42 22.82 129.62 22.4 130.38 21.04C130.57 20.71 130.69 20.48 130.8 20.26L130.86 20.14L129.92 20.64C129.34 20.77 128.45 20.61 127.72 20.23C125.61 19.14 125.25 16.96 126.34 14.85C127.71 12.18 130.01 11.8 131.88 12.76C132.48 13.07 133.15 13.64 133.37 14.13L133.48 15.08L133.99 14.09L135.16 14.69L132.36 20.14V20.11ZM132.1 17.74L132.3 17.35C133.26 15.48 132.45 14.17 131.42 13.64C130.15 12.99 128.67 13.46 127.69 15.36C126.85 16.99 126.92 18.67 128.36 19.41C129.56 20.03 131.03 19.82 132.09 17.75L132.1 17.74Z" fill="#D08421"/>
<path d="M150.41 34.07C150.06 34.44 149.63 34.9 149.32 35.21C147.64 36.89 145.73 36.81 144.02 35.21C142.34 33.62 142.16 32.13 143.21 30.77L143.3 30.65L144.27 31.56L144.19 31.67C143.59 32.47 143.69 33.52 144.71 34.47C145.88 35.57 147.15 35.5 148.26 34.41C148.53 34.14 148.71 33.95 148.88 33.77L148.98 33.67L147.93 33.89C147.33 33.85 146.53 33.46 145.93 32.89C144.2 31.26 144.46 29.06 146.09 27.33C148.15 25.14 150.47 25.41 151.99 26.85C152.48 27.31 152.97 28.05 153.04 28.57L152.89 29.52L153.66 28.71L154.62 29.61L150.42 34.07H150.41ZM150.82 31.72L151.13 31.4C152.57 29.87 152.16 28.39 151.31 27.59C150.27 26.61 148.71 26.66 147.25 28.21C145.99 29.55 145.59 31.18 146.78 32.29C147.76 33.21 149.23 33.42 150.83 31.72H150.82Z" fill="#D08421"/>
<path d="M158.88 40.74C157.13 42.2 154.78 42.49 153.02 40.37C151.26 38.25 151.98 36 153.73 34.54C155.5 33.07 157.83 32.79 159.59 34.91C161.35 37.03 160.64 39.27 158.88 40.74ZM157.96 39.63C159.43 38.41 159.86 36.82 158.81 35.56C157.76 34.3 156.12 34.43 154.65 35.65C153.19 36.86 152.75 38.46 153.8 39.72C154.85 40.98 156.5 40.84 157.96 39.63Z" fill="#D08421"/>
<path d="M164.45 49.13C162.53 50.37 160.17 50.38 158.67 48.07C157.17 45.76 158.15 43.61 160.07 42.37C162 41.12 164.35 41.12 165.84 43.43C167.34 45.74 166.37 47.89 164.44 49.13H164.45ZM163.67 47.92C165.28 46.88 165.89 45.35 165 43.97C164.11 42.59 162.46 42.53 160.85 43.57C159.26 44.6 158.63 46.14 159.52 47.52C160.41 48.9 162.07 48.95 163.66 47.92H163.67Z" fill="#D08421"/>
<path d="M165.2 59.65L164.62 58.47L165.79 57.9L164.74 57.73C164.19 57.48 163.59 56.83 163.22 56.08C162.18 53.95 163.2 51.99 165.34 50.95C168.04 49.64 170.11 50.71 171.02 52.6C171.32 53.21 171.51 54.06 171.39 54.58L170.91 55.41L174.74 53.55L175.32 54.73L165.2 59.65ZM168.2 56.73L168.6 56.54C170.49 55.62 170.63 54.09 170.12 53.04C169.5 51.76 168.03 51.25 166.11 52.18C164.46 52.98 163.51 54.36 164.22 55.82C164.81 57.03 166.11 57.75 168.2 56.73Z" fill="#D08421"/>
<path d="M171.07 74.29L170.12 74.06C169.62 73.61 169.34 72.96 169.16 72.2C168.82 70.77 169.34 69.46 170.8 69.12C172.59 68.69 173.83 69.81 174.57 72.91L174.69 73.42L174.9 73.37C175.24 73.29 175.55 73.21 175.85 73.11C176.57 72.88 176.94 72.34 176.69 71.29C176.43 70.22 175.73 69.82 174.62 69.99L174.3 68.65C176.01 68.37 177.26 69.31 177.68 71.06C178.13 72.94 177.53 73.92 176.26 74.36C175.95 74.46 175.57 74.57 175.23 74.65L172.27 75.36C171.67 75.5 171.15 75.66 170.29 75.99L169.98 74.71L171.08 74.31L171.07 74.29ZM172.93 73.83L173.73 73.64C173.37 71.43 172.58 70.16 171.23 70.49C170.28 70.72 170 71.43 170.23 72.4C170.52 73.59 171.49 74.18 172.92 73.84L172.93 73.83Z" fill="#D08421"/>
<path d="M176.13 84.98L171.6 85.52L171.44 84.21L175.88 83.68C176.29 83.63 176.62 83.59 177.03 83.51C177.96 83.32 178.6 82.72 178.45 81.47C178.3 80.21 177.23 79.26 174.48 79.58L170.94 80L170.78 78.69L178.84 77.73L179 79.04L177.62 79.21L178.61 79.6C179.22 80.22 179.43 80.8 179.53 81.62C179.74 83.38 178.92 84.49 177.52 84.78C177.11 84.86 176.79 84.9 176.14 84.98H176.13Z" fill="#D08421"/>
<path d="M171.73 95.42V94.1H173.04L172.17 93.48C171.79 93.02 171.53 92.16 171.54 91.33C171.55 88.96 173.33 87.65 175.71 87.66C178.71 87.67 180.1 89.55 180.09 91.65C180.09 92.32 179.88 93.18 179.55 93.59L178.75 94.12L183.01 94.14V95.46L171.75 95.41L171.73 95.42ZM175.72 94.12H176.16C178.26 94.13 179.06 92.82 179.07 91.65C179.07 90.23 177.98 89.12 175.85 89.11C174.01 89.11 172.55 89.92 172.55 91.55C172.55 92.9 173.4 94.11 175.72 94.12Z" fill="#D08421"/>
<path d="M173.3 114.18L168.86 113.14L169.16 111.86L173.51 112.88C173.91 112.97 174.24 113.05 174.65 113.12C175.59 113.26 176.43 112.92 176.68 111.69C176.94 110.45 176.29 109.19 173.59 108.56L170.12 107.75L170.42 106.47L181.45 109.06L181.15 110.34L176.66 109.29L177.45 110C177.81 110.79 177.81 111.41 177.62 112.21C177.21 113.94 176.06 114.69 174.65 114.49C174.24 114.43 173.93 114.35 173.29 114.2L173.3 114.18Z" fill="#D08421"/>
<path d="M169.32 124.19C167.18 123.41 165.74 121.53 166.68 118.94C167.63 116.35 169.93 115.84 172.08 116.62C174.24 117.41 175.66 119.28 174.72 121.87C173.78 124.46 171.48 124.98 169.32 124.19ZM169.81 122.84C171.61 123.5 173.2 123.06 173.77 121.52C174.33 119.98 173.39 118.63 171.59 117.97C169.8 117.32 168.2 117.75 167.64 119.29C167.08 120.83 168.03 122.19 169.82 122.84H169.81Z" fill="#D08421"/>
<path d="M165.57 132.99L161.5 130.93L162.09 129.75L166.08 131.77C166.45 131.96 166.75 132.11 167.13 132.27C168.01 132.63 168.88 132.48 169.44 131.36C170.01 130.23 169.65 128.84 167.17 127.59L163.98 125.98L164.57 124.8L171.82 128.46L171.23 129.64L169.99 129.01L170.6 129.88C170.77 130.74 170.62 131.33 170.25 132.07C169.45 133.66 168.15 134.12 166.83 133.58C166.45 133.42 166.16 133.28 165.57 132.98V132.99Z" fill="#D08421"/>
<path d="M159.35 141.75C157.45 140.48 156.5 138.32 158.03 136.03C159.56 133.74 161.92 133.79 163.82 135.05C165.73 136.32 166.67 138.48 165.14 140.77C163.61 143.06 161.26 143.02 159.35 141.75ZM160.15 140.55C161.74 141.61 163.39 141.57 164.3 140.21C165.21 138.85 164.62 137.31 163.02 136.25C161.44 135.2 159.78 135.23 158.87 136.59C157.96 137.95 158.57 139.5 160.15 140.55Z" fill="#D08421"/>
<path d="M158.49 149.35L157.72 148.72C158.66 147.71 158.7 146.39 157.26 145.22L153.68 142.29L154.51 141.27L160.8 146.41L159.97 147.43L158.99 146.63L159.37 147.89C159.33 148.3 159.18 148.7 158.94 149C158.8 149.17 158.66 149.29 158.51 149.36L158.49 149.35Z" fill="#D08421"/>
<path d="M118.66 169.23C118.47 168.76 118.24 168.18 118.09 167.76C117.28 165.53 118.16 163.83 120.33 162.96C122.48 162.11 123.9 162.58 124.69 164.11L124.76 164.25L123.52 164.74L123.45 164.62C122.98 163.74 121.99 163.39 120.69 163.91C119.2 164.5 118.73 165.68 119.25 167.16C119.38 167.52 119.47 167.76 119.56 167.99L119.61 168.12L119.86 167.08C120.14 166.55 120.85 166 121.61 165.69C123.82 164.81 125.7 165.97 126.57 168.18C127.68 170.97 126.46 172.95 124.51 173.73C123.89 173.98 123.01 174.11 122.51 173.95L121.72 173.41L122.13 174.45L120.91 174.94L118.64 169.25L118.66 169.23ZM120.62 170.59L120.79 171C121.57 172.95 123.08 173.2 124.17 172.77C125.49 172.24 126.11 170.81 125.32 168.83C124.64 167.12 123.33 166.08 121.83 166.68C120.58 167.18 119.77 168.42 120.63 170.58L120.62 170.59Z" fill="#D08421"/>
<path d="M111.05 170.57L111.25 169.61C111.68 169.1 112.33 168.8 113.09 168.59C114.51 168.21 115.83 168.69 116.22 170.14C116.7 171.91 115.61 173.19 112.54 174.02L112.04 174.16L112.1 174.37C112.19 174.71 112.28 175.02 112.38 175.31C112.63 176.02 113.18 176.38 114.22 176.1C115.28 175.81 115.66 175.09 115.46 173.99L116.79 173.63C117.12 175.33 116.21 176.61 114.48 177.07C112.62 177.57 111.62 177 111.14 175.75C111.03 175.45 110.91 175.07 110.82 174.73L110.03 171.79C109.87 171.2 109.7 170.67 109.34 169.83L110.61 169.49L111.05 170.58V170.57ZM111.56 172.41L111.77 173.21C113.97 172.79 115.21 171.97 114.85 170.62C114.6 169.67 113.88 169.42 112.92 169.68C111.74 170 111.18 170.99 111.56 172.41Z" fill="#D08421"/>
<path d="M105.4 172.98C105.35 172.71 105.33 172.57 105.28 172.36C105.08 171.6 104.74 171.49 103.75 171.79L103.58 170.84C103.95 170.71 104.31 170.63 104.67 170.57C105.67 170.4 106.25 170.71 106.5 171.7C106.55 171.91 106.61 172.24 106.69 172.69L107.51 177.35L108.58 177.16L108.76 178.16L107.69 178.35L108.02 180.21L106.72 180.44L106.39 178.58L104.9 178.84L104.72 177.84L106.21 177.58L105.4 172.98Z" fill="#D08421"/>
<path d="M94.6696 176.37L94.3096 171.82L95.6196 171.72L95.9696 176.18C95.9996 176.59 96.0296 176.93 96.0896 177.34C96.2396 178.28 96.8196 178.97 98.0696 178.84C99.3296 178.71 100.33 177.71 100.11 174.95L99.8296 171.39L101.14 171.29L102.03 182.59L100.72 182.69L100.36 178.09L99.9296 179.06C99.2896 179.65 98.6996 179.83 97.8796 179.9C96.1096 180.04 95.0396 179.17 94.8096 177.76C94.7496 177.35 94.7196 177.03 94.6696 176.37Z" fill="#D08421"/>
<path d="M84.6998 175.25L90.5798 175.48C90.5398 173.33 89.5598 172.57 88.3598 172.53C87.2998 172.49 86.4199 173.11 86.1899 174.27L84.8098 174.22C85.2098 172.27 86.7898 171.46 88.4598 171.52C90.5698 171.6 92.0998 173.04 91.9898 175.9C91.8898 178.53 90.1898 180.14 87.9698 180.05C85.7298 179.96 84.5598 178.25 84.6498 175.87C84.6498 175.75 84.6598 175.53 84.6998 175.24V175.25ZM90.5298 176.49L85.9698 176.31C86.0298 178 86.7098 178.99 88.0398 179.04C89.3298 179.09 90.3098 178.21 90.5298 176.48V176.49Z" fill="#D08421"/>
<path d="M77.6196 178.91L77.7496 177.92C79.0996 178.19 80.2396 177.53 80.4896 175.69L81.0996 171.1L82.4096 171.27L81.3396 179.32L80.0296 179.15L80.1996 177.89L79.3296 178.87C78.9696 179.05 78.5396 179.14 78.1596 179.09C77.9496 179.06 77.7696 179.01 77.6296 178.91H77.6196Z" fill="#D08421"/>
<path d="M73.2399 179.85C73.3299 179.38 73.7599 179.1 74.2299 179.19C74.6999 179.28 74.9899 179.71 74.8899 180.18C74.7999 180.65 74.3699 180.93 73.8999 180.84C73.4299 180.75 73.1499 180.32 73.2399 179.85ZM76.6499 170.39L75.0699 178.35L73.7799 178.09L75.3599 170.13L76.6499 170.39Z" fill="#D08421"/>
<path d="M64.5296 171.99L65.8096 167.61L67.0696 167.98L65.8096 172.27C65.6896 172.67 65.5996 172.99 65.5096 173.4C65.3196 174.33 65.6196 175.16 66.8196 175.51C68.0396 175.87 69.3296 175.26 70.1096 172.6L71.1096 169.18L72.3696 169.55L70.0896 177.34L68.8296 176.97L69.2196 175.63L68.4696 176.39C67.6596 176.71 67.0496 176.68 66.2496 176.44C64.5496 175.94 63.8596 174.75 64.1396 173.35C64.2296 172.94 64.3196 172.64 64.4996 172L64.5296 171.99Z" fill="#D08421"/>
<path d="M55.8399 165.7C56.0399 165.24 56.2899 164.66 56.4799 164.26C57.4899 162.11 59.3099 161.52 61.4599 162.45C63.5799 163.36 64.2599 164.7 63.7399 166.34L63.6899 166.49L62.4699 165.96L62.5099 165.83C62.7999 164.87 62.3399 163.93 61.0599 163.38C59.5799 162.75 58.4199 163.25 57.7499 164.66C57.5899 165.01 57.4799 165.24 57.3899 165.47L57.3399 165.6L58.2499 165.04C58.8199 164.87 59.7099 164.97 60.4699 165.29C62.6499 166.23 63.1599 168.38 62.2299 170.56C61.0499 173.32 58.7799 173.86 56.8499 173.04C56.2299 172.77 55.5199 172.25 55.2699 171.78L55.0899 170.84L54.6499 171.87L53.4399 171.35L55.8499 165.72L55.8399 165.7ZM56.2699 168.05L56.0999 168.46C55.2699 170.39 56.1699 171.64 57.2399 172.1C58.5499 172.66 59.9999 172.08 60.8399 170.13C61.5599 168.44 61.3799 166.78 59.8799 166.14C58.6399 165.61 57.1899 165.92 56.2699 168.06V168.05Z" fill="#D08421"/>
<path d="M36.8698 153.09C37.1898 152.7 37.5798 152.21 37.8798 151.88C39.4398 150.09 41.3498 150.02 43.1598 151.5C44.9498 152.96 45.2398 154.43 44.2798 155.87L44.1998 156L43.1698 155.16L43.2498 155.04C43.7898 154.2 43.6098 153.16 42.5298 152.28C41.2798 151.26 40.0298 151.43 38.9898 152.6C38.7398 152.89 38.5698 153.09 38.4198 153.28L38.3298 153.39L39.3598 153.1C39.9598 153.1 40.7898 153.43 41.4298 153.96C43.2698 155.46 43.1698 157.67 41.6698 159.51C39.7798 161.84 37.4498 161.74 35.8198 160.41C35.2998 159.98 34.7598 159.29 34.6498 158.77L34.7398 157.81L34.0298 158.68L33.0098 157.85L36.8798 153.1L36.8698 153.09ZM36.6298 155.46L36.3498 155.8C35.0198 157.43 35.5398 158.87 36.4498 159.61C37.5498 160.51 39.1098 160.35 40.4498 158.7C41.6098 157.28 41.8898 155.63 40.6298 154.6C39.5798 153.75 38.1098 153.65 36.6398 155.45L36.6298 155.46Z" fill="#D08421"/>
<path d="M27.9298 147.03C29.5798 145.45 31.8898 144.99 33.7998 146.98C35.7098 148.97 35.1498 151.27 33.4998 152.85C31.8398 154.44 29.5298 154.89 27.6298 152.9C25.7198 150.91 26.2698 148.62 27.9298 147.03ZM28.9298 148.07C27.5498 149.39 27.2298 151.01 28.3698 152.2C29.4998 153.38 31.1298 153.14 32.5198 151.81C33.8898 150.5 34.2198 148.87 33.0798 147.68C31.9498 146.5 30.3098 146.75 28.9298 148.07Z" fill="#D08421"/>
<path d="M21.7799 139.06C23.5999 137.69 25.9599 137.51 27.6199 139.71C29.2799 141.91 28.4499 144.13 26.6299 145.5C24.7899 146.88 22.4499 147.05 20.7899 144.85C19.1299 142.65 19.9499 140.44 21.7799 139.06ZM22.6499 140.21C21.1199 141.36 20.6099 142.93 21.5999 144.24C22.5899 145.55 24.2299 145.5 25.7599 144.35C27.2799 143.21 27.7999 141.63 26.8099 140.32C25.8199 139.01 24.1599 139.07 22.6499 140.21Z" fill="#D08421"/>
<path d="M20.2898 128.61L20.9498 129.75L19.8198 130.4L20.8798 130.49C21.4398 130.7 22.0998 131.31 22.5098 132.03C23.6998 134.09 22.8098 136.12 20.7598 137.3C18.1598 138.8 16.0198 137.88 14.9698 136.06C14.6298 135.48 14.3798 134.63 14.4598 134.11L14.8798 133.25L11.1898 135.38L10.5298 134.24L20.2898 128.62V128.61ZM17.4998 131.74L17.1198 131.96C15.2998 133.01 15.2698 134.55 15.8498 135.56C16.5598 136.79 18.0698 137.2 19.9098 136.14C21.4998 135.22 22.3498 133.78 21.5398 132.37C20.8698 131.2 19.5198 130.58 17.4998 131.75V131.74Z" fill="#D08421"/>
<path d="M13.4099 114.45L14.3799 114.61C14.9099 115.02 15.2399 115.66 15.4699 116.4C15.9099 117.8 15.4799 119.14 14.0499 119.59C12.2999 120.14 10.9799 119.11 10.0199 116.07L9.8599 115.57L9.6599 115.63C9.3199 115.74 9.0199 115.83 8.7299 115.95C8.0299 116.23 7.6899 116.79 8.0199 117.83C8.3499 118.88 9.0899 119.23 10.1799 118.98L10.5999 120.3C8.9099 120.7 7.5999 119.85 7.0599 118.14C6.4799 116.3 7.0099 115.28 8.2399 114.75C8.5399 114.62 8.9099 114.49 9.2499 114.38L12.1599 113.46C12.7399 113.28 13.2599 113.08 14.0899 112.69L14.4899 113.95L13.4199 114.43L13.4099 114.45ZM11.5899 115.04L10.7999 115.29C11.3099 117.47 12.1899 118.68 13.5199 118.26C14.4499 117.97 14.6799 117.24 14.3799 116.29C14.0099 115.12 12.9999 114.6 11.5899 115.05V115.04Z" fill="#D08421"/>
<path d="M7.58959 104.11L12.0696 103.25L12.3196 104.54L7.92958 105.39C7.51958 105.47 7.18959 105.53 6.78959 105.64C5.86959 105.89 5.27959 106.54 5.51959 107.77C5.75959 109.02 6.89959 109.89 9.61959 109.37L13.1196 108.69L13.3696 109.98L5.39959 111.52L5.14959 110.23L6.51959 109.97L5.50959 109.65C4.84959 109.08 4.59958 108.51 4.44958 107.7C4.10958 105.96 4.85959 104.8 6.22959 104.41C6.62959 104.3 6.94959 104.24 7.58959 104.12V104.11Z" fill="#D08421"/>
<path d="M11.2298 93.37L11.3198 94.68L10.0198 94.77L10.9298 95.32C11.3398 95.75 11.6598 96.59 11.7198 97.42C11.8798 99.79 10.1898 101.22 7.82977 101.38C4.83977 101.58 3.31977 99.81 3.17977 97.72C3.13977 97.05 3.27977 96.18 3.58977 95.74L4.34977 95.15L0.0997656 95.43L0.00976562 94.12L11.2398 93.37H11.2298ZM7.33977 94.95L6.89977 94.98C4.80977 95.12 4.09977 96.49 4.17977 97.65C4.27977 99.07 5.44977 100.1 7.56977 99.96C9.39977 99.84 10.7998 98.92 10.6898 97.3C10.5998 95.96 9.65977 94.81 7.33977 94.96V94.95Z" fill="#D08421"/>
<path d="M8.32982 74.79L12.8398 75.51L12.6298 76.81L8.20982 76.1C7.79982 76.03 7.46982 75.98 7.05982 75.95C6.10982 75.88 5.29982 76.27 5.12982 77.52C4.95982 78.78 5.69982 79.98 8.43982 80.42L11.9698 80.98L11.7598 82.28L0.569824 80.49L0.779824 79.19L5.32982 79.92L4.48982 79.27C4.06982 78.5 4.02982 77.89 4.15982 77.08C4.43982 75.33 5.53982 74.49 6.95982 74.6C7.36982 74.64 7.68982 74.69 8.33982 74.79H8.32982Z" fill="#D08421"/>
<path d="M11.5997 64.53C13.7897 65.16 15.3597 66.93 14.5997 69.58C13.8397 72.23 11.5697 72.9 9.3797 72.27C7.1697 71.64 5.6197 69.87 6.3797 67.22C7.1397 64.57 9.3897 63.89 11.5997 64.53ZM11.1997 65.91C9.35969 65.38 7.7997 65.92 7.3497 67.5C6.8997 69.08 7.9297 70.36 9.7697 70.89C11.5997 71.41 13.1697 70.88 13.6197 69.3C14.0697 67.72 13.0197 66.44 11.1997 65.91Z" fill="#D08421"/>
<path d="M14.7296 55.47L18.9396 57.24L18.4296 58.45L14.3096 56.72C13.9296 56.56 13.6196 56.43 13.2296 56.3C12.3196 56 11.4696 56.21 10.9896 57.37C10.4996 58.54 10.9596 59.9 13.5096 60.97L16.7996 62.35L16.2896 63.56L8.80957 60.41L9.31957 59.2L10.5996 59.74L9.92957 58.91C9.69957 58.07 9.80957 57.46 10.1296 56.7C10.8196 55.06 12.0796 54.51 13.4396 54.95C13.8296 55.08 14.1296 55.21 14.7396 55.46L14.7296 55.47Z" fill="#D08421"/>
<path d="M20.2996 46.29C22.2796 47.42 23.3896 49.51 22.0196 51.91C20.6596 54.31 18.2996 54.43 16.3096 53.3C14.3096 52.16 13.2196 50.08 14.5896 47.68C15.9496 45.28 18.2996 45.15 20.2996 46.29ZM19.5896 47.54C17.9296 46.59 16.2796 46.75 15.4696 48.18C14.6596 49.61 15.3596 51.1 17.0296 52.04C18.6796 52.98 20.3396 52.83 21.1496 51.4C21.9596 49.98 21.2396 48.48 19.5896 47.54Z" fill="#D08421"/>
<path d="M20.5998 38.67L21.4198 39.24C20.5498 40.31 20.6098 41.63 22.1298 42.7L25.9098 45.36L25.1498 46.44L18.5098 41.76L19.2698 40.68L20.3098 41.41L19.8398 40.18C19.8398 39.77 19.9698 39.35 20.1898 39.04C20.3098 38.86 20.4398 38.73 20.5898 38.65L20.5998 38.67Z" fill="#D08421"/>
</svg>
