<svg width="41" height="589" viewBox="0 0 41 589" fill="none" xmlns="http://www.w3.org/2000/svg">
<path d="M31.24 0L31.84 586.55L39.79 578.6" stroke="url(#paint0_linear_1_850)" stroke-width="1.26" stroke-miterlimit="10"/>
<path d="M8.60997 494.17H7.22997C7.10997 492.86 6.33997 492.11 5.03997 492.11C3.94997 492.11 3.07997 492.62 3.07997 493.7C3.07997 494.78 3.71997 495.3 5.29997 495.66C7.57997 496.18 8.71997 497.11 8.71997 498.87C8.71997 500.63 7.15997 501.85 5.16997 501.85C2.88997 501.85 1.44997 500.69 1.21997 498.7H2.59997C2.89997 500.06 3.84997 500.83 5.18997 500.83C6.37997 500.83 7.33997 500.18 7.33997 499.1C7.33997 497.84 6.61997 497.27 4.79997 496.85C2.96997 496.43 1.69997 495.7 1.69997 493.99C1.69997 492.28 3.23997 491.08 5.14997 491.08C7.28997 491.08 8.41997 492.38 8.60997 494.16V494.17Z" fill="#D08421"/>
<path d="M9.39004 511.41L9.41004 511.56H8.12004L8.09004 511.41C7.79004 509.93 6.88004 508.92 5.15004 508.92C3.03004 508.92 1.73004 510.77 1.73004 513.27C1.73004 515.77 3.02004 517.65 5.06004 517.65C6.78004 517.65 7.70004 516.65 8.00004 515.16L8.03004 515.01H9.32004L9.30004 515.16C9.10004 517.04 7.71004 518.67 4.98004 518.67C1.97004 518.67 0.290039 516.36 0.290039 513.33C0.290039 510.3 2.24004 507.9 5.18004 507.9C7.80004 507.9 9.19004 509.39 9.39004 511.41Z" fill="#D08421"/>
<path d="M9.18005 535.26H7.75005C7.46005 534.6 7.33005 533.94 7.20005 532.67C7.08005 531.6 6.67005 530.9 5.66005 530.83C5.42005 530.81 5.17005 530.81 4.93005 530.81H2.98005V535.27H1.68005V524.92H5.07005C5.59005 524.92 5.96005 524.92 6.42005 524.98C7.92005 525.18 9.00005 526 9.00005 527.74C9.00005 529.1 8.11005 529.88 7.15005 530.18C7.99005 530.57 8.40005 531.51 8.49005 532.55C8.61005 533.9 8.76005 534.71 9.18005 535.26ZM4.95005 529.76C5.41005 529.76 5.67005 529.76 5.96005 529.73C6.92005 529.64 7.62005 529.02 7.62005 527.85C7.62005 526.68 7.07005 526.17 6.11005 526.02C5.82005 525.97 5.54005 525.96 5.07005 525.96H2.97005V529.75H4.95005V529.76Z" fill="#D08421"/>
<path d="M9.78 546.88C9.78 550.03 8.04 552.26 4.89 552.26C1.74 552.26 0 550.02 0 546.88C0 543.74 1.74 541.5 4.89 541.5C8.04 541.5 9.78 543.72 9.78 546.88ZM8.34 546.88C8.34 544.18 7.06 542.51 4.89 542.51C2.72 542.51 1.44 544.17 1.44 546.88C1.44 549.59 2.72 551.25 4.89 551.25C7.06 551.25 8.34 549.57 8.34 546.88Z" fill="#D08421"/>
<path d="M8.89001 568.86H2.01001V558.51H3.30001V567.81H8.89001V568.86Z" fill="#D08421"/>
<path d="M8.89001 585.66H2.01001V575.31H3.30001V584.61H8.89001V585.66Z" fill="#D08421"/>
<defs>
<linearGradient id="paint0_linear_1_850" x1="35.42" y1="588.07" x2="35.42" y2="0" gradientUnits="userSpaceOnUse">
<stop offset="0.41" stop-color="#C28047" stop-opacity="0.81"/>
<stop offset="0.92" stop-color="#BF954F" stop-opacity="0.6"/>
</linearGradient>
</defs>
</svg>
