<svg width="650" height="140" viewBox="0 0 650 140" fill="none" xmlns="http://www.w3.org/2000/svg">
<path d="M14.59 99.0499C14.59 102.62 12.62 105.16 9.03999 105.16C5.45999 105.16 3.48999 102.62 3.48999 99.0499C3.48999 95.4799 5.45999 92.9399 9.03999 92.9399C12.62 92.9399 14.59 95.4599 14.59 99.0499ZM12.96 99.0499C12.96 95.9899 11.51 94.0999 9.04999 94.0999C6.58999 94.0999 5.13999 95.9899 5.13999 99.0499C5.13999 102.11 6.58999 104 9.04999 104C11.51 104 12.96 102.09 12.96 99.0499Z" fill="#221815"/>
<path d="M25.48 99.8499V104.92H24.02V99.9499C24.02 99.4899 24.02 99.1199 23.99 98.6599C23.9 97.6099 23.33 96.8199 21.93 96.8199C20.53 96.8199 19.33 97.8699 19.33 100.95V104.91H17.87V95.8899H19.33V97.4399L19.89 96.3999C20.66 95.7999 21.32 95.6499 22.24 95.6499C24.21 95.6499 25.32 96.7099 25.46 98.2899C25.49 98.7499 25.49 99.1099 25.49 99.8399L25.48 99.8499Z" fill="#221815"/>
<path d="M36.67 100.85H30.14C30.28 103.23 31.4 104.03 32.73 104.03C33.9 104.03 34.86 103.3 35.06 102.01H36.59C36.23 104.19 34.51 105.16 32.66 105.16C30.31 105.16 28.56 103.63 28.56 100.45C28.56 97.5199 30.38 95.6699 32.85 95.6699C35.32 95.6699 36.71 97.5199 36.71 100.16C36.71 100.3 36.71 100.53 36.68 100.86L36.67 100.85ZM30.15 99.7299H35.22C35.08 97.8599 34.28 96.7899 32.8 96.7899C31.32 96.7899 30.32 97.8099 30.15 99.7299Z" fill="#221815"/>
<path d="M52.09 99.8503V104.92H50.63V99.9503C50.63 99.4903 50.63 99.1203 50.6 98.6603C50.51 97.6103 49.94 96.7903 48.54 96.8203C47.13 96.8503 45.94 97.8703 45.94 100.95V104.91H44.48V92.3203H45.94V97.4403L46.5 96.4003C47.27 95.8003 47.93 95.6503 48.85 95.6503C50.82 95.6503 51.93 96.7103 52.07 98.2903C52.1 98.7503 52.1 99.1103 52.1 99.8403L52.09 99.8503Z" fill="#221815"/>
<path d="M60.93 103.62L60.44 104.59C59.83 105.02 59.04 105.15 58.18 105.15C56.55 105.15 55.27 104.25 55.27 102.58C55.27 100.54 56.8 99.4799 60.34 99.4799H60.92V99.2399C60.92 98.8499 60.92 98.4899 60.89 98.1499C60.82 97.3199 60.35 96.7699 59.14 96.7699C57.93 96.7699 57.3 97.4299 57.2 98.6799H55.67C55.81 96.7599 57.15 95.6499 59.14 95.6499C61.28 95.6499 62.19 96.5499 62.34 98.0299C62.37 98.3899 62.39 98.8299 62.39 99.2199V102.61C62.39 103.29 62.42 103.9 62.56 104.91H61.1L60.95 103.62H60.93ZM60.91 101.49V100.57C58.43 100.38 56.86 100.91 56.86 102.46C56.86 103.55 57.56 104.03 58.66 104.03C60.02 104.03 60.91 103.13 60.91 101.49Z" fill="#221815"/>
<path d="M74.93 100.27C74.93 103.6 72.85 105.15 70.52 105.15C69.77 105.15 68.82 104.93 68.36 104.55L67.76 103.67V108.25H66.3V95.8999H67.76V97.3499L68.44 96.3799C68.95 95.9499 69.9 95.6699 70.82 95.6699C73.46 95.6699 74.92 97.6399 74.92 100.28L74.93 100.27ZM73.33 100.44C73.33 98.3999 72.41 96.7799 70.61 96.7799C69.11 96.7799 67.77 97.7299 67.77 100.32V100.81C67.77 103.14 69.23 104.03 70.53 104.03C72.11 104.03 73.34 102.81 73.34 100.44H73.33Z" fill="#221815"/>
<path d="M86.68 100.27C86.68 103.6 84.6 105.15 82.27 105.15C81.52 105.15 80.57 104.93 80.11 104.55L79.51 103.67V108.25H78.05V95.8999H79.51V97.3499L80.19 96.3799C80.7 95.9499 81.65 95.6699 82.57 95.6699C85.21 95.6699 86.67 97.6399 86.67 100.28L86.68 100.27ZM85.08 100.44C85.08 98.3999 84.16 96.7799 82.36 96.7799C80.86 96.7799 79.52 97.7299 79.52 100.32V100.81C79.52 103.14 80.98 104.03 82.28 104.03C83.86 104.03 85.09 102.81 85.09 100.44H85.08Z" fill="#221815"/>
<path d="M93.47 105.68C92.74 107.59 91.77 108.49 90.31 108.49C89.99 108.49 89.78 108.49 89.56 108.46V107.27C89.78 107.29 89.93 107.29 90.09 107.29C90.99 107.29 91.59 106.9 92.05 105.71L92.17 105.39L88.58 95.9102H90.23L92.92 103.84L95.59 95.9102H97.19L93.48 105.69L93.47 105.68Z" fill="#221815"/>
<path d="M105.76 102.33C105.76 102.6 105.76 102.89 105.78 103.18C105.81 103.76 106.09 103.95 106.89 103.86V104.91C106.57 104.96 106.19 104.98 105.85 104.98C105 104.98 104.37 104.71 104.32 103.57C104.3 103.26 104.3 102.87 104.3 102.38V92.4102H105.76V102.33Z" fill="#221815"/>
<path d="M111.59 93.8702C111.59 94.4002 111.18 94.8102 110.65 94.8102C110.12 94.8102 109.71 94.4002 109.71 93.8702C109.71 93.3402 110.12 92.9302 110.65 92.9302C111.18 92.9302 111.59 93.3402 111.59 93.8702ZM109.92 104.91V95.8902H111.38V104.91H109.92Z" fill="#221815"/>
<path d="M116.87 95.0801V95.9601H118.72V97.0801H116.87V104.91H115.41V97.0801H114.44V95.9601H115.41V95.2101C115.41 94.8701 115.43 94.4301 115.46 94.1201C115.61 92.8101 116.5 92.0801 117.84 92.0801C118.21 92.0801 118.57 92.1101 118.88 92.1701V93.3801C117.77 93.1801 117.04 93.4301 116.92 94.1601C116.89 94.4001 116.87 94.8201 116.87 95.0801Z" fill="#221815"/>
<path d="M128.99 100.85H122.46C122.6 103.23 123.72 104.03 125.05 104.03C126.22 104.03 127.18 103.3 127.38 102.01H128.91C128.55 104.19 126.83 105.16 124.98 105.16C122.63 105.16 120.88 103.63 120.88 100.45C120.88 97.5199 122.7 95.6699 125.17 95.6699C127.64 95.6699 129.03 97.5199 129.03 100.16C129.03 100.3 129.03 100.53 129 100.86L128.99 100.85ZM122.47 99.7299H127.54C127.4 97.8599 126.6 96.7899 125.12 96.7899C123.64 96.7899 122.64 97.8099 122.47 99.7299Z" fill="#221815"/>
<path d="M145.92 104.92H144.18L142.17 97.3299L140.16 104.92H138.42L135.54 95.8999H137.22L139.31 103.52L141.28 95.8999H143.1L145.11 103.47L147.2 95.8999H148.77L145.89 104.92H145.92Z" fill="#221815"/>
<path d="M153.17 93.8702C153.17 94.4002 152.76 94.8102 152.23 94.8102C151.7 94.8102 151.29 94.4002 151.29 93.8702C151.29 93.3402 151.7 92.9302 152.23 92.9302C152.76 92.9302 153.17 93.3402 153.17 93.8702ZM151.5 104.91V95.8902H152.96V104.91H151.5Z" fill="#221815"/>
<path d="M158.67 102.28C158.67 102.59 158.67 102.74 158.69 102.98C158.76 103.85 159.12 104.03 160.26 103.9V104.97C159.84 105.04 159.43 105.06 159.02 105.06C157.9 105.06 157.32 104.6 157.23 103.48C157.21 103.24 157.21 102.87 157.21 102.36V97.1001H156V95.9801H157.21V93.8901H158.67V95.9801H160.35V97.1001H158.67V102.29V102.28Z" fill="#221815"/>
<path d="M171.22 99.8503V104.92H169.76V99.9503C169.76 99.4903 169.76 99.1203 169.73 98.6603C169.65 97.6103 169.07 96.7903 167.67 96.8203C166.26 96.8503 165.07 97.8703 165.07 100.95V104.91H163.61V92.3203H165.07V97.4403L165.63 96.4003C166.4 95.8003 167.06 95.6503 167.98 95.6503C169.95 95.6503 171.06 96.7103 171.2 98.2903C171.23 98.7503 171.23 99.1103 171.23 99.8403L171.22 99.8503Z" fill="#221815"/>
<path d="M180.89 105.7C180.89 106.04 180.87 106.48 180.84 106.79C180.72 107.88 180.13 108.49 178.73 108.49C178.46 108.49 178.25 108.49 178.03 108.46V107.27C178.97 107.36 179.32 107.07 179.39 106.52C179.42 106.28 179.42 106.03 179.42 105.77V95.8999H180.88V105.7H180.89ZM181.09 93.8799C181.09 94.4099 180.68 94.8199 180.15 94.8199C179.62 94.8199 179.21 94.4099 179.21 93.8799C179.21 93.3499 179.62 92.9399 180.15 92.9399C180.68 92.9399 181.09 93.3499 181.09 93.8799Z" fill="#221815"/>
<path d="M192.32 104.92H190.86V103.39L190.3 104.44C189.53 105 188.87 105.15 187.95 105.15C186.08 105.15 184.99 104.1 184.79 102.85C184.72 102.39 184.7 102.03 184.7 101.3V95.8901H186.16V101.03C186.16 101.32 186.18 101.81 186.23 102.27C186.37 103.29 187.1 103.99 188.32 103.99C189.73 103.99 190.86 102.94 190.86 99.8601V95.9001H192.32V104.92Z" fill="#221815"/>
<path d="M202.21 98.4699H200.68C200.48 97.4199 199.83 96.7899 198.77 96.7899C197.71 96.7899 197.27 97.3499 197.27 98.1299C197.27 99.0299 198.02 99.3899 199.24 99.7099C201.32 100.25 202.3 101.07 202.3 102.6C202.3 104.3 200.85 105.15 198.95 105.15C197.05 105.15 195.68 104.3 195.41 102.26H196.94C197.18 103.57 198.01 104.03 199.05 104.03C200.02 104.03 200.8 103.59 200.8 102.72C200.8 101.85 200.19 101.39 198.67 100.98C197.05 100.54 195.76 99.8699 195.76 98.2899C195.76 96.7099 197.02 95.6499 198.87 95.6499C200.9 95.6499 202 96.8099 202.19 98.4599L202.21 98.4699Z" fill="#221815"/>
<path d="M207.19 102.28C207.19 102.59 207.19 102.74 207.21 102.98C207.28 103.85 207.64 104.03 208.78 103.9V104.97C208.36 105.04 207.95 105.06 207.54 105.06C206.42 105.06 205.84 104.6 205.75 103.48C205.73 103.24 205.73 102.87 205.73 102.36V97.1001H204.52V95.9801H205.73V93.8901H207.19V95.9801H208.87V97.1001H207.19V102.29V102.28Z" fill="#221815"/>
<path d="M221.56 94.3702V104.92H220.1V94.3702H215.91V93.1802H225.74V94.3702H221.55H221.56Z" fill="#221815"/>
<path d="M237.48 104.92H235.74L233.73 97.3299L231.72 104.92H229.98L227.1 95.8999H228.78L230.87 103.52L232.84 95.8999H234.66L236.67 103.47L238.76 95.8999H240.33L237.45 104.92H237.48Z" fill="#221815"/>
<path d="M251.27 100.41C251.27 102.94 249.86 105.16 246.8 105.16C243.74 105.16 242.33 102.95 242.33 100.41C242.33 97.8702 243.74 95.6602 246.8 95.6602C249.86 95.6602 251.27 97.8502 251.27 100.41ZM249.67 100.41C249.67 98.2802 248.62 96.7902 246.79 96.7902C244.96 96.7902 243.91 98.2902 243.91 100.41C243.91 102.53 244.96 104.03 246.79 104.03C248.62 104.03 249.67 102.52 249.67 100.41Z" fill="#221815"/>
<path d="M267.07 100.41C267.07 102.94 265.66 105.16 262.6 105.16C259.54 105.16 258.13 102.95 258.13 100.41C258.13 97.8702 259.54 95.6602 262.6 95.6602C265.66 95.6602 267.07 97.8502 267.07 100.41ZM265.47 100.41C265.47 98.2802 264.42 96.7902 262.59 96.7902C260.76 96.7902 259.71 98.2902 259.71 100.41C259.71 102.53 260.76 104.03 262.59 104.03C264.42 104.03 265.47 102.52 265.47 100.41Z" fill="#221815"/>
<path d="M271.72 95.0801V95.9601H273.57V97.0801H271.72V104.91H270.26V97.0801H269.29V95.9601H270.26V95.2101C270.26 94.8701 270.28 94.4301 270.31 94.1201C270.46 92.8101 271.35 92.0801 272.69 92.0801C273.06 92.0801 273.42 92.1101 273.73 92.1701V93.3801C272.62 93.1801 271.89 93.4301 271.77 94.1601C271.74 94.4001 271.72 94.8201 271.72 95.0801Z" fill="#221815"/>
<path d="M288.44 104.92H286.98V103.39L286.42 104.44C285.65 105 284.99 105.15 284.07 105.15C282.2 105.15 281.11 104.1 280.91 102.85C280.84 102.39 280.82 102.03 280.82 101.3V95.8901H282.28V101.03C282.28 101.32 282.3 101.81 282.35 102.27C282.49 103.29 283.22 103.99 284.44 103.99C285.85 103.99 286.98 102.94 286.98 99.8601V95.9001H288.44V104.92Z" fill="#221815"/>
<path d="M298.32 98.4699H296.79C296.59 97.4199 295.94 96.7899 294.88 96.7899C293.82 96.7899 293.38 97.3499 293.38 98.1299C293.38 99.0299 294.13 99.3899 295.35 99.7099C297.43 100.25 298.41 101.07 298.41 102.6C298.41 104.3 296.96 105.15 295.06 105.15C293.16 105.15 291.79 104.3 291.52 102.26H293.05C293.29 103.57 294.12 104.03 295.16 104.03C296.13 104.03 296.91 103.59 296.91 102.72C296.91 101.85 296.3 101.39 294.78 100.98C293.16 100.54 291.87 99.8699 291.87 98.2899C291.87 96.7099 293.13 95.6499 294.98 95.6499C297 95.6499 298.11 96.8099 298.3 98.4599L298.32 98.4699Z" fill="#221815"/>
<path d="M313.64 99.8503V104.92H312.18V99.9503C312.18 99.4903 312.18 99.1203 312.15 98.6603C312.07 97.6103 311.49 96.7903 310.09 96.8203C308.68 96.8503 307.49 97.8703 307.49 100.95V104.91H306.03V92.3203H307.49V97.4403L308.05 96.4003C308.82 95.8003 309.48 95.6503 310.4 95.6503C312.37 95.6503 313.48 96.7103 313.62 98.2903C313.65 98.7503 313.65 99.1103 313.65 99.8403L313.64 99.8503Z" fill="#221815"/>
<path d="M322.49 103.62L322 104.59C321.39 105.02 320.61 105.15 319.74 105.15C318.11 105.15 316.83 104.25 316.83 102.58C316.83 100.54 318.36 99.4799 321.9 99.4799H322.48V99.2399C322.48 98.8499 322.48 98.4899 322.45 98.1499C322.38 97.3199 321.91 96.7699 320.7 96.7699C319.49 96.7699 318.86 97.4299 318.76 98.6799H317.23C317.37 96.7599 318.71 95.6499 320.7 95.6499C322.84 95.6499 323.74 96.5499 323.9 98.0299C323.93 98.3899 323.95 98.8299 323.95 99.2199V102.61C323.95 103.29 323.98 103.9 324.12 104.91H322.66L322.51 103.62H322.49ZM322.47 101.49V100.57C319.99 100.38 318.42 100.91 318.42 102.46C318.42 103.55 319.12 104.03 320.22 104.03C321.58 104.03 322.47 103.13 322.47 101.49Z" fill="#221815"/>
<path d="M331.82 104.92H330.03L326.61 95.8999H328.23L330.99 103.85L333.7 95.8999H335.25L331.83 104.92H331.82Z" fill="#221815"/>
<path d="M339.63 93.8702C339.63 94.4002 339.22 94.8102 338.69 94.8102C338.16 94.8102 337.75 94.4002 337.75 93.8702C337.75 93.3402 338.16 92.9302 338.69 92.9302C339.22 92.9302 339.63 93.3402 339.63 93.8702ZM337.96 104.91V95.8902H339.42V104.91H337.96Z" fill="#221815"/>
<path d="M350.99 99.8499V104.92H349.53V99.9499C349.53 99.4899 349.53 99.1199 349.5 98.6599C349.41 97.6099 348.84 96.8199 347.44 96.8199C346.04 96.8199 344.84 97.8699 344.84 100.95V104.91H343.38V95.8899H344.84V97.4399L345.4 96.3999C346.17 95.7999 346.83 95.6499 347.75 95.6499C349.72 95.6499 350.83 96.7099 350.97 98.2899C351 98.7499 351 99.1099 351 99.8399L350.99 99.8499Z" fill="#221815"/>
<path d="M362.69 102.7C362.69 103.26 362.69 103.96 362.67 104.45C362.59 107.09 360.99 108.48 358.38 108.48C355.77 108.48 354.53 107.41 354.35 105.5L354.33 105.33H355.81L355.83 105.48C355.95 106.59 356.83 107.35 358.38 107.35C360.17 107.35 361.14 106.33 361.2 104.59C361.22 104.16 361.22 103.88 361.22 103.6V103.45L360.54 104.42C360.03 104.85 359.08 105.13 358.16 105.13C355.52 105.13 354.06 103.16 354.06 100.52C354.06 97.1901 356.14 95.6401 358.47 95.6401C359.22 95.6401 360.17 95.8601 360.63 96.2401L361.23 97.1201V95.8801H362.69V102.69V102.7ZM361.23 100.49V100C361.23 97.6701 359.77 96.7801 358.47 96.7801C356.89 96.7801 355.66 98.0101 355.66 100.37C355.66 102.41 356.58 104.03 358.38 104.03C359.88 104.03 361.22 103.08 361.22 100.49H361.23Z" fill="#221815"/>
<path d="M376.07 94.3702V104.92H374.61V94.3702H370.42V93.1802H380.25V94.3702H376.06H376.07Z" fill="#221815"/>
<path d="M390.11 99.8503V104.92H388.65V99.9503C388.65 99.4903 388.65 99.1203 388.62 98.6603C388.53 97.6103 387.96 96.7903 386.56 96.8203C385.15 96.8503 383.96 97.8703 383.96 100.95V104.91H382.5V92.3203H383.96V97.4403L384.52 96.4003C385.29 95.8003 385.95 95.6503 386.87 95.6503C388.84 95.6503 389.95 96.7103 390.09 98.2903C390.12 98.7503 390.12 99.1103 390.12 99.8403L390.11 99.8503Z" fill="#221815"/>
<path d="M398.08 95.8099V96.9199C396.55 96.8199 395.39 97.7199 395.39 99.7799V104.92H393.93V95.8999H395.39V97.3099L396.21 96.0999C396.58 95.8399 397.04 95.6899 397.47 95.6899C397.71 95.6899 397.91 95.7199 398.08 95.8099Z" fill="#221815"/>
<path d="M408.07 100.85H401.54C401.68 103.23 402.8 104.03 404.13 104.03C405.3 104.03 406.26 103.3 406.46 102.01H407.99C407.63 104.19 405.91 105.16 404.06 105.16C401.71 105.16 399.96 103.63 399.96 100.45C399.96 97.5199 401.78 95.6699 404.25 95.6699C406.72 95.6699 408.11 97.5199 408.11 100.16C408.11 100.3 408.11 100.53 408.08 100.86L408.07 100.85ZM401.55 99.7299H406.62C406.48 97.8599 405.68 96.7899 404.2 96.7899C402.72 96.7899 401.72 97.8099 401.55 99.7299Z" fill="#221815"/>
<path d="M418.76 100.85H412.23C412.37 103.23 413.49 104.03 414.82 104.03C415.99 104.03 416.95 103.3 417.15 102.01H418.68C418.32 104.19 416.6 105.16 414.75 105.16C412.4 105.16 410.65 103.63 410.65 100.45C410.65 97.5199 412.47 95.6699 414.94 95.6699C417.41 95.6699 418.8 97.5199 418.8 100.16C418.8 100.3 418.8 100.53 418.77 100.86L418.76 100.85ZM412.24 99.7299H417.31C417.17 97.8599 416.37 96.7899 414.89 96.7899C413.41 96.7899 412.41 97.8099 412.24 99.7299Z" fill="#221815"/>
<path d="M438.65 99.4002V104.91H437.19V100.08C437.19 99.2802 437.17 98.7902 437.12 98.3302C436.98 97.3102 436.34 96.8202 435.32 96.8202C434.18 96.8202 433.35 97.7202 433.35 100.46V104.92H431.89V100.09C431.89 99.2901 431.87 98.8001 431.82 98.3401C431.68 97.3201 431.04 96.8302 430.02 96.8302C428.88 96.8302 428.05 97.7302 428.05 100.47V104.93H426.59V95.9102H428.05V97.2202L428.63 96.2001C429.09 95.8301 429.74 95.6702 430.54 95.6702C431.92 95.6702 432.8 96.3702 433.14 97.3502L433.94 96.1902C434.4 95.8202 435.05 95.6602 435.85 95.6602C437.47 95.6602 438.39 96.6102 438.59 97.8502C438.66 98.3102 438.68 98.6702 438.68 99.4002H438.65Z" fill="#221815"/>
<path d="M449.83 100.85H443.3C443.44 103.23 444.56 104.03 445.89 104.03C447.06 104.03 448.02 103.3 448.22 102.01H449.75C449.39 104.19 447.67 105.16 445.82 105.16C443.47 105.16 441.72 103.63 441.72 100.45C441.72 97.5199 443.54 95.6699 446.01 95.6699C448.48 95.6699 449.87 97.5199 449.87 100.16C449.87 100.3 449.87 100.53 449.84 100.86L449.83 100.85ZM443.31 99.7299H448.38C448.24 97.8599 447.44 96.7899 445.96 96.7899C444.48 96.7899 443.48 97.8099 443.31 99.7299Z" fill="#221815"/>
<path d="M458.18 103.62L457.69 104.59C457.08 105.02 456.29 105.15 455.43 105.15C453.8 105.15 452.52 104.25 452.52 102.58C452.52 100.54 454.05 99.4799 457.59 99.4799H458.17V99.2399C458.17 98.8499 458.17 98.4899 458.14 98.1499C458.07 97.3199 457.6 96.7699 456.39 96.7699C455.18 96.7699 454.55 97.4299 454.45 98.6799H452.92C453.06 96.7599 454.4 95.6499 456.39 95.6499C458.53 95.6499 459.44 96.5499 459.59 98.0299C459.62 98.3899 459.64 98.8299 459.64 99.2199V102.61C459.64 103.29 459.67 103.9 459.81 104.91H458.35L458.2 103.62H458.18ZM458.16 101.49V100.57C455.68 100.38 454.11 100.91 454.11 102.46C454.11 103.55 454.81 104.03 455.91 104.03C457.27 104.03 458.16 103.13 458.16 101.49Z" fill="#221815"/>
<path d="M464.95 102.33C464.95 102.6 464.95 102.89 464.97 103.18C465 103.76 465.28 103.95 466.08 103.86V104.91C465.76 104.96 465.38 104.98 465.04 104.98C464.19 104.98 463.56 104.71 463.51 103.57C463.49 103.26 463.49 102.87 463.49 102.38V92.4102H464.95V102.33Z" fill="#221815"/>
<path d="M475.06 98.4699H473.53C473.33 97.4199 472.68 96.7899 471.62 96.7899C470.56 96.7899 470.12 97.3499 470.12 98.1299C470.12 99.0299 470.87 99.3899 472.09 99.7099C474.17 100.25 475.15 101.07 475.15 102.6C475.15 104.3 473.7 105.15 471.8 105.15C469.9 105.15 468.53 104.3 468.26 102.26H469.79C470.03 103.57 470.86 104.03 471.9 104.03C472.87 104.03 473.65 103.59 473.65 102.72C473.65 101.85 473.04 101.39 471.52 100.98C469.9 100.54 468.61 99.8699 468.61 98.2899C468.61 96.7099 469.87 95.6499 471.72 95.6499C473.75 95.6499 474.85 96.8099 475.04 98.4599L475.06 98.4699Z" fill="#221815"/>
<path d="M484.51 102.28C484.51 102.59 484.51 102.74 484.53 102.98C484.6 103.85 484.96 104.03 486.1 103.9V104.97C485.68 105.04 485.27 105.06 484.86 105.06C483.74 105.06 483.16 104.6 483.07 103.48C483.05 103.24 483.05 102.87 483.05 102.36V97.1001H481.84V95.9801H483.05V93.8901H484.51V95.9801H486.19V97.1001H484.51V102.29V102.28Z" fill="#221815"/>
<path d="M497.42 100.41C497.42 102.94 496.01 105.16 492.95 105.16C489.89 105.16 488.48 102.95 488.48 100.41C488.48 97.8702 489.89 95.6602 492.95 95.6602C496.01 95.6602 497.42 97.8502 497.42 100.41ZM495.82 100.41C495.82 98.2802 494.77 96.7902 492.94 96.7902C491.11 96.7902 490.06 98.2902 490.06 100.41C490.06 102.53 491.11 104.03 492.94 104.03C494.77 104.03 495.82 102.52 495.82 100.41Z" fill="#221815"/>
<path d="M508.42 102.7C508.42 103.26 508.42 103.96 508.4 104.45C508.32 107.09 506.72 108.48 504.11 108.48C501.5 108.48 500.27 107.41 500.08 105.5L500.06 105.33H501.54L501.56 105.48C501.68 106.59 502.56 107.35 504.11 107.35C505.9 107.35 506.87 106.33 506.93 104.59C506.95 104.16 506.95 103.88 506.95 103.6V103.45L506.27 104.42C505.76 104.85 504.81 105.13 503.89 105.13C501.25 105.13 499.79 103.16 499.79 100.52C499.79 97.1901 501.87 95.6401 504.2 95.6401C504.95 95.6401 505.9 95.8601 506.36 96.2401L506.96 97.1201V95.8801H508.42V102.69V102.7ZM506.96 100.49V100C506.96 97.6701 505.5 96.7801 504.2 96.7801C502.62 96.7801 501.39 98.0101 501.39 100.37C501.39 102.41 502.31 104.03 504.11 104.03C505.61 104.03 506.95 103.08 506.95 100.49H506.96Z" fill="#221815"/>
<path d="M519.73 100.85H513.2C513.34 103.23 514.46 104.03 515.79 104.03C516.96 104.03 517.92 103.3 518.12 102.01H519.65C519.29 104.19 517.57 105.16 515.72 105.16C513.37 105.16 511.62 103.63 511.62 100.45C511.62 97.5199 513.44 95.6699 515.91 95.6699C518.38 95.6699 519.77 97.5199 519.77 100.16C519.77 100.3 519.77 100.53 519.74 100.86L519.73 100.85ZM513.21 99.7299H518.28C518.14 97.8599 517.34 96.7899 515.86 96.7899C514.38 96.7899 513.38 97.8099 513.21 99.7299Z" fill="#221815"/>
<path d="M524.82 102.28C524.82 102.59 524.82 102.74 524.84 102.98C524.91 103.85 525.26 104.03 526.41 103.9V104.97C525.98 105.04 525.58 105.06 525.17 105.06C524.05 105.06 523.47 104.6 523.38 103.48C523.36 103.24 523.36 102.87 523.36 102.36V97.1001H522.15V95.9801H523.36V93.8901H524.82V95.9801H526.5V97.1001H524.82V102.29V102.28Z" fill="#221815"/>
<path d="M537.37 99.8503V104.92H535.91V99.9503C535.91 99.4903 535.91 99.1203 535.88 98.6603C535.8 97.6103 535.22 96.7903 533.82 96.8203C532.41 96.8503 531.22 97.8703 531.22 100.95V104.91H529.76V92.3203H531.22V97.4403L531.78 96.4003C532.55 95.8003 533.21 95.6503 534.13 95.6503C536.1 95.6503 537.21 96.7103 537.35 98.2903C537.38 98.7503 537.38 99.1103 537.38 99.8403L537.37 99.8503Z" fill="#221815"/>
<path d="M548.56 100.85H542.03C542.17 103.23 543.29 104.03 544.62 104.03C545.79 104.03 546.75 103.3 546.95 102.01H548.48C548.12 104.19 546.4 105.16 544.55 105.16C542.2 105.16 540.45 103.63 540.45 100.45C540.45 97.5199 542.27 95.6699 544.74 95.6699C547.21 95.6699 548.6 97.5199 548.6 100.16C548.6 100.3 548.6 100.53 548.57 100.86L548.56 100.85ZM542.04 99.7299H547.11C546.97 97.8599 546.17 96.7899 544.69 96.7899C543.21 96.7899 542.21 97.8099 542.04 99.7299Z" fill="#221815"/>
<path d="M556.04 95.8099V96.9199C554.51 96.8199 553.35 97.7199 553.35 99.7799V104.92H551.89V95.8999H553.35V97.3099L554.17 96.0999C554.54 95.8399 555 95.6899 555.43 95.6899C555.67 95.6899 555.87 95.7199 556.04 95.8099Z" fill="#221815"/>
<path d="M570.7 100.85H564.17C564.31 103.23 565.43 104.03 566.76 104.03C567.93 104.03 568.89 103.3 569.09 102.01H570.62C570.26 104.19 568.54 105.16 566.69 105.16C564.34 105.16 562.59 103.63 562.59 100.45C562.59 97.5199 564.41 95.6699 566.88 95.6699C569.35 95.6699 570.74 97.5199 570.74 100.16C570.74 100.3 570.74 100.53 570.71 100.86L570.7 100.85ZM564.18 99.7299H569.25C569.11 97.8599 568.31 96.7899 566.83 96.7899C565.35 96.7899 564.35 97.8099 564.18 99.7299Z" fill="#221815"/>
<path d="M578 104.92H576.21L572.79 95.8999H574.41L577.17 103.85L579.87 95.8999H581.42L578 104.92Z" fill="#221815"/>
<path d="M591.37 100.85H584.84C584.98 103.23 586.1 104.03 587.43 104.03C588.6 104.03 589.56 103.3 589.76 102.01H591.29C590.93 104.19 589.21 105.16 587.36 105.16C585.01 105.16 583.26 103.63 583.26 100.45C583.26 97.5199 585.08 95.6699 587.55 95.6699C590.02 95.6699 591.41 97.5199 591.41 100.16C591.41 100.3 591.41 100.53 591.38 100.86L591.37 100.85ZM584.85 99.7299H589.92C589.78 97.8599 588.98 96.7899 587.5 96.7899C586.02 96.7899 585.02 97.8099 584.85 99.7299Z" fill="#221815"/>
<path d="M598.85 95.8099V96.9199C597.32 96.8199 596.16 97.7199 596.16 99.7799V104.92H594.7V95.8999H596.16V97.3099L596.98 96.0999C597.35 95.8399 597.81 95.6899 598.24 95.6899C598.48 95.6899 598.68 95.7199 598.85 95.8099Z" fill="#221815"/>
<path d="M605.33 105.68C604.6 107.59 603.63 108.49 602.17 108.49C601.85 108.49 601.64 108.49 601.42 108.46V107.27C601.64 107.29 601.79 107.29 601.95 107.29C602.85 107.29 603.45 106.9 603.91 105.71L604.03 105.39L600.44 95.9102H602.09L604.78 103.84L607.45 95.9102H609.05L605.34 105.69L605.33 105.68Z" fill="#221815"/>
<path d="M624.1 104.92H622.64V103.47L621.96 104.44C621.45 104.87 620.5 105.15 619.58 105.15C616.94 105.15 615.48 103.18 615.48 100.54C615.48 97.2102 617.56 95.6602 619.89 95.6602C620.64 95.6602 621.59 95.8802 622.05 96.2602L622.65 97.1402V92.4102H624.11V104.91L624.1 104.92ZM622.64 100.5V100.01C622.64 97.6802 621.18 96.7902 619.88 96.7902C618.3 96.7902 617.07 98.0202 617.07 100.38C617.07 102.42 617.99 104.04 619.79 104.04C621.29 104.04 622.63 103.09 622.63 100.5H622.64Z" fill="#221815"/>
<path d="M633.06 103.62L632.57 104.59C631.96 105.02 631.17 105.15 630.31 105.15C628.68 105.15 627.4 104.25 627.4 102.58C627.4 100.54 628.93 99.4799 632.47 99.4799H633.05V99.2399C633.05 98.8499 633.05 98.4899 633.02 98.1499C632.95 97.3199 632.47 96.7699 631.27 96.7699C630.07 96.7699 629.43 97.4299 629.33 98.6799H627.8C627.94 96.7599 629.28 95.6499 631.27 95.6499C633.41 95.6499 634.32 96.5499 634.47 98.0299C634.5 98.3899 634.52 98.8299 634.52 99.2199V102.61C634.52 103.29 634.55 103.9 634.69 104.91H633.23L633.08 103.62H633.06ZM633.04 101.49V100.57C630.56 100.38 628.99 100.91 628.99 102.46C628.99 103.55 629.69 104.03 630.79 104.03C632.15 104.03 633.04 103.13 633.04 101.49Z" fill="#221815"/>
<path d="M642.1 105.68C641.37 107.59 640.4 108.49 638.93 108.49C638.61 108.49 638.4 108.49 638.18 108.46V107.27C638.4 107.29 638.55 107.29 638.71 107.29C639.61 107.29 640.21 106.9 640.67 105.71L640.79 105.39L637.2 95.9102H638.85L641.54 103.84L644.21 95.9102H645.81L642.1 105.69V105.68Z" fill="#221815"/>
<path d="M179.51 124.67C179.51 125.2 179.1 125.61 178.57 125.61C178.04 125.61 177.63 125.2 177.63 124.67C177.63 124.14 178.04 123.73 178.57 123.73C179.1 123.73 179.51 124.14 179.51 124.67ZM177.84 135.71V126.69H179.3V135.71H177.84Z" fill="#221815"/>
<path d="M190.87 130.64V135.71H189.41V130.74C189.41 130.28 189.41 129.91 189.38 129.45C189.29 128.4 188.72 127.61 187.32 127.61C185.92 127.61 184.72 128.66 184.72 131.74V135.7H183.26V126.68H184.72V128.23L185.28 127.19C186.05 126.59 186.71 126.44 187.63 126.44C189.6 126.44 190.71 127.49 190.85 129.08C190.88 129.54 190.88 129.9 190.88 130.63L190.87 130.64Z" fill="#221815"/>
<path d="M204.75 134.42L204.26 135.39C203.65 135.82 202.87 135.95 202 135.95C200.37 135.95 199.09 135.05 199.09 133.38C199.09 131.34 200.62 130.28 204.16 130.28H204.74V130.04C204.74 129.65 204.74 129.29 204.71 128.95C204.64 128.12 204.17 127.57 202.96 127.57C201.75 127.57 201.12 128.23 201.02 129.48H199.49C199.63 127.56 200.97 126.45 202.96 126.45C205.1 126.45 206 127.35 206.16 128.83C206.19 129.19 206.21 129.63 206.21 130.02V133.41C206.21 134.09 206.24 134.7 206.38 135.71H204.92L204.77 134.42H204.75ZM204.73 132.29V131.37C202.25 131.18 200.68 131.71 200.68 133.26C200.68 134.35 201.38 134.83 202.48 134.83C203.84 134.83 204.73 133.93 204.73 132.3V132.29Z" fill="#221815"/>
<path d="M211.52 133.13C211.52 133.4 211.52 133.69 211.54 133.98C211.57 134.56 211.85 134.75 212.65 134.66V135.71C212.33 135.76 211.95 135.78 211.61 135.78C210.76 135.78 210.13 135.51 210.08 134.37C210.06 134.06 210.06 133.67 210.06 133.18V123.21H211.52V133.13Z" fill="#221815"/>
<path d="M217.08 133.13C217.08 133.4 217.08 133.69 217.1 133.98C217.13 134.56 217.41 134.75 218.21 134.66V135.71C217.89 135.76 217.51 135.78 217.17 135.78C216.32 135.78 215.69 135.51 215.64 134.37C215.62 134.06 215.62 133.67 215.62 133.18V123.21H217.08V133.13Z" fill="#221815"/>
<path d="M228.18 129.25H233.68V130.44H228.18V135.71H226.72V123.97H234.36V125.16H228.18V129.24V129.25Z" fill="#221815"/>
<path d="M245.48 131.2C245.48 133.73 244.07 135.95 241.01 135.95C237.95 135.95 236.54 133.74 236.54 131.2C236.54 128.66 237.95 126.45 241.01 126.45C244.07 126.45 245.48 128.64 245.48 131.2ZM243.88 131.2C243.88 129.07 242.83 127.58 241 127.58C239.17 127.58 238.12 129.08 238.12 131.2C238.12 133.32 239.17 134.82 241 134.82C242.83 134.82 243.88 133.31 243.88 131.2Z" fill="#221815"/>
<path d="M256.1 135.71H254.64V134.18L254.08 135.24C253.31 135.8 252.65 135.95 251.73 135.95C249.86 135.95 248.77 134.89 248.57 133.65C248.5 133.19 248.48 132.83 248.48 132.1V126.69H249.94V131.83C249.94 132.12 249.96 132.61 250.01 133.07C250.15 134.09 250.88 134.79 252.1 134.79C253.51 134.79 254.64 133.74 254.64 130.66V126.7H256.1V135.72V135.71Z" fill="#221815"/>
<path d="M264.19 126.61V127.72C262.66 127.62 261.5 128.52 261.5 130.58V135.72H260.04V126.7H261.5V128.11L262.32 126.9C262.69 126.64 263.15 126.49 263.58 126.49C263.82 126.49 264.02 126.52 264.19 126.61Z" fill="#221815"/>
<path d="M277.98 129.26H276.45C276.25 128.21 275.6 127.58 274.54 127.58C273.48 127.58 273.04 128.14 273.04 128.92C273.04 129.82 273.79 130.18 275.01 130.5C277.09 131.04 278.07 131.86 278.07 133.39C278.07 135.09 276.62 135.94 274.72 135.94C272.82 135.94 271.45 135.09 271.18 133.05H272.71C272.95 134.36 273.78 134.82 274.82 134.82C275.79 134.82 276.57 134.38 276.57 133.51C276.57 132.64 275.96 132.18 274.44 131.77C272.82 131.33 271.53 130.66 271.53 129.08C271.53 127.5 272.79 126.44 274.64 126.44C276.66 126.44 277.77 127.6 277.96 129.25L277.98 129.26Z" fill="#221815"/>
<path d="M288.58 131.65H282.05C282.19 134.03 283.31 134.83 284.64 134.83C285.81 134.83 286.77 134.1 286.97 132.81H288.5C288.14 134.99 286.42 135.96 284.57 135.96C282.22 135.96 280.47 134.43 280.47 131.25C280.47 128.32 282.29 126.47 284.76 126.47C287.23 126.47 288.62 128.32 288.62 130.96C288.62 131.1 288.62 131.33 288.59 131.66L288.58 131.65ZM282.06 130.53H287.13C286.99 128.66 286.19 127.59 284.71 127.59C283.23 127.59 282.23 128.61 282.06 130.53Z" fill="#221815"/>
<path d="M296.93 134.42L296.44 135.39C295.83 135.82 295.05 135.95 294.18 135.95C292.55 135.95 291.27 135.05 291.27 133.38C291.27 131.34 292.8 130.28 296.34 130.28H296.92V130.04C296.92 129.65 296.92 129.29 296.89 128.95C296.82 128.12 296.35 127.57 295.14 127.57C293.93 127.57 293.3 128.23 293.2 129.48H291.67C291.81 127.56 293.15 126.45 295.14 126.45C297.28 126.45 298.19 127.35 298.34 128.83C298.37 129.19 298.39 129.63 298.39 130.02V133.41C298.39 134.09 298.42 134.7 298.56 135.71H297.1L296.95 134.42H296.93ZM296.91 132.29V131.37C294.43 131.18 292.86 131.71 292.86 133.26C292.86 134.35 293.56 134.83 294.66 134.83C296.02 134.83 296.91 133.93 296.91 132.3V132.29Z" fill="#221815"/>
<path d="M308.24 129.26H306.71C306.51 128.21 305.86 127.58 304.8 127.58C303.74 127.58 303.3 128.14 303.3 128.92C303.3 129.82 304.05 130.18 305.27 130.5C307.35 131.04 308.33 131.86 308.33 133.39C308.33 135.09 306.88 135.94 304.98 135.94C303.08 135.94 301.71 135.09 301.44 133.05H302.97C303.21 134.36 304.04 134.82 305.08 134.82C306.05 134.82 306.83 134.38 306.83 133.51C306.83 132.64 306.22 132.18 304.7 131.77C303.08 131.33 301.79 130.66 301.79 129.08C301.79 127.5 303.05 126.44 304.9 126.44C306.93 126.44 308.03 127.6 308.22 129.25L308.24 129.26Z" fill="#221815"/>
<path d="M319.67 131.2C319.67 133.73 318.26 135.95 315.2 135.95C312.14 135.95 310.73 133.74 310.73 131.2C310.73 128.66 312.14 126.45 315.2 126.45C318.26 126.45 319.67 128.64 319.67 131.2ZM318.07 131.2C318.07 129.07 317.02 127.58 315.19 127.58C313.36 127.58 312.31 129.08 312.31 131.2C312.31 133.32 313.36 134.82 315.19 134.82C317.02 134.82 318.07 133.31 318.07 131.2Z" fill="#221815"/>
<path d="M330.42 130.64V135.71H328.96V130.74C328.96 130.28 328.96 129.91 328.93 129.45C328.85 128.4 328.27 127.61 326.87 127.61C325.47 127.61 324.27 128.66 324.27 131.74V135.7H322.81V126.68H324.27V128.23L324.83 127.19C325.6 126.59 326.26 126.44 327.18 126.44C329.15 126.44 330.26 127.49 330.4 129.08C330.43 129.54 330.43 129.9 330.43 130.63L330.42 130.64Z" fill="#221815"/>
<path d="M340.18 129.26H338.65C338.45 128.21 337.8 127.58 336.74 127.58C335.68 127.58 335.24 128.14 335.24 128.92C335.24 129.82 335.99 130.18 337.21 130.5C339.29 131.04 340.27 131.86 340.27 133.39C340.27 135.09 338.82 135.94 336.92 135.94C335.02 135.94 333.65 135.09 333.38 133.05H334.91C335.15 134.36 335.98 134.82 337.02 134.82C337.99 134.82 338.77 134.38 338.77 133.51C338.77 132.64 338.16 132.18 336.64 131.77C335.02 131.33 333.73 130.66 333.73 129.08C333.73 127.5 334.99 126.44 336.84 126.44C338.87 126.44 339.97 127.6 340.16 129.25L340.18 129.26Z" fill="#221815"/>
<path d="M349.98 125.88V126.76H351.83V127.88H349.98V135.71H348.52V127.88H347.55V126.76H348.52V126.01C348.52 125.67 348.54 125.23 348.57 124.92C348.72 123.61 349.61 122.88 350.95 122.88C351.33 122.88 351.68 122.91 351.99 122.96V124.17C350.88 123.97 350.15 124.22 350.03 124.95C350 125.19 349.98 125.61 349.98 125.87V125.88Z" fill="#221815"/>
<path d="M362.94 131.2C362.94 133.73 361.53 135.95 358.47 135.95C355.41 135.95 354 133.74 354 131.2C354 128.66 355.41 126.45 358.47 126.45C361.53 126.45 362.94 128.64 362.94 131.2ZM361.34 131.2C361.34 129.07 360.29 127.58 358.46 127.58C356.63 127.58 355.58 129.08 355.58 131.2C355.58 133.32 356.63 134.82 358.46 134.82C360.29 134.82 361.34 133.31 361.34 131.2Z" fill="#221815"/>
<path d="M370.22 126.61V127.72C368.69 127.62 367.53 128.52 367.53 130.58V135.72H366.07V126.7H367.53V128.11L368.35 126.9C368.72 126.64 369.18 126.49 369.61 126.49C369.85 126.49 370.05 126.52 370.22 126.61Z" fill="#221815"/>
<path d="M385.44 131.65H378.91C379.05 134.03 380.17 134.83 381.5 134.83C382.67 134.83 383.63 134.1 383.83 132.81H385.36C385 134.99 383.28 135.96 381.43 135.96C379.08 135.96 377.33 134.43 377.33 131.25C377.33 128.32 379.15 126.47 381.62 126.47C384.09 126.47 385.48 128.32 385.48 130.96C385.48 131.1 385.48 131.33 385.45 131.66L385.44 131.65ZM378.92 130.53H383.99C383.85 128.66 383.05 127.59 381.57 127.59C380.09 127.59 379.09 128.61 378.92 130.53Z" fill="#221815"/>
<path d="M392.73 135.71H390.94L387.52 126.69H389.14L391.9 134.64L394.61 126.69H396.16L392.74 135.71H392.73Z" fill="#221815"/>
<path d="M406.1 131.65H399.57C399.71 134.03 400.83 134.83 402.16 134.83C403.33 134.83 404.29 134.1 404.49 132.81H406.02C405.66 134.99 403.94 135.96 402.09 135.96C399.74 135.96 397.99 134.43 397.99 131.25C397.99 128.32 399.81 126.47 402.28 126.47C404.75 126.47 406.14 128.32 406.14 130.96C406.14 131.1 406.14 131.33 406.11 131.66L406.1 131.65ZM399.58 130.53H404.65C404.51 128.66 403.71 127.59 402.23 127.59C400.75 127.59 399.75 128.61 399.58 130.53Z" fill="#221815"/>
<path d="M413.59 126.61V127.72C412.06 127.62 410.9 128.52 410.9 130.58V135.72H409.44V126.7H410.9V128.11L411.72 126.9C412.09 126.64 412.55 126.49 412.98 126.49C413.22 126.49 413.42 126.52 413.59 126.61Z" fill="#221815"/>
<path d="M420.07 136.48C419.34 138.39 418.37 139.29 416.91 139.29C416.59 139.29 416.38 139.29 416.16 139.26V138.07C416.38 138.09 416.53 138.09 416.69 138.09C417.59 138.09 418.19 137.7 418.65 136.51L418.77 136.19L415.18 126.71H416.83L419.52 134.64L422.19 126.71H423.79L420.08 136.49L420.07 136.48Z" fill="#221815"/>
<path d="M435.18 136.48C434.45 138.39 433.48 139.29 432.02 139.29C431.7 139.29 431.49 139.29 431.27 139.26V138.07C431.49 138.09 431.64 138.09 431.8 138.09C432.7 138.09 433.3 137.7 433.76 136.51L433.88 136.19L430.29 126.71H431.94L434.63 134.64L437.3 126.71H438.9L435.19 136.49L435.18 136.48Z" fill="#221815"/>
<path d="M448.84 131.65H442.31C442.45 134.03 443.57 134.83 444.9 134.83C446.07 134.83 447.03 134.1 447.23 132.81H448.76C448.4 134.99 446.68 135.96 444.83 135.96C442.48 135.96 440.73 134.43 440.73 131.25C440.73 128.32 442.55 126.47 445.02 126.47C447.49 126.47 448.88 128.32 448.88 130.96C448.88 131.1 448.88 131.33 448.85 131.66L448.84 131.65ZM442.32 130.53H447.39C447.25 128.66 446.45 127.59 444.97 127.59C443.49 127.59 442.49 128.61 442.32 130.53Z" fill="#221815"/>
<path d="M457.19 134.42L456.7 135.39C456.09 135.82 455.31 135.95 454.44 135.95C452.81 135.95 451.53 135.05 451.53 133.38C451.53 131.34 453.06 130.28 456.6 130.28H457.18V130.04C457.18 129.65 457.18 129.29 457.15 128.95C457.08 128.12 456.61 127.57 455.4 127.57C454.19 127.57 453.56 128.23 453.46 129.48H451.93C452.07 127.56 453.41 126.45 455.4 126.45C457.54 126.45 458.45 127.35 458.6 128.83C458.63 129.19 458.65 129.63 458.65 130.02V133.41C458.65 134.09 458.68 134.7 458.82 135.71H457.36L457.21 134.42H457.19ZM457.17 132.29V131.37C454.69 131.18 453.12 131.71 453.12 133.26C453.12 134.35 453.82 134.83 454.92 134.83C456.28 134.83 457.17 133.93 457.17 132.3V132.29Z" fill="#221815"/>
<path d="M466.72 126.61V127.72C465.19 127.62 464.03 128.52 464.03 130.58V135.72H462.57V126.7H464.03V128.11L464.85 126.9C465.22 126.64 465.68 126.49 466.11 126.49C466.35 126.49 466.55 126.52 466.72 126.61Z" fill="#221815"/>
<path d="M471.09 134.86C471.09 135.49 470.63 135.95 470 135.95C469.37 135.95 468.91 135.49 468.91 134.86C468.91 134.23 469.37 133.77 470 133.77C470.63 133.77 471.09 134.23 471.09 134.86Z" fill="#221815"/>
<path d="M21.73 32.1401V35.4301H0V33.1301L11.73 21.1601C15.53 17.2601 17.36 14.9201 17.36 11.7701C17.36 8.44014 15.44 5.57014 11.54 5.57014C7.36 5.57014 5.34 8.15014 4.87 12.7001L4.82 13.1701H0.8L0.85 12.7001C1.5 5.95014 5.54 2.39014 12.02 2.39014C18.5 2.39014 21.88 6.47014 21.88 11.3101C21.88 15.7201 19.49 18.7301 13.99 24.1201L5.87 32.1501H21.73V32.1401Z" fill="#221815"/>
<path d="M55.1 26.4201C55.1 32.4701 49.61 36.0901 43.37 36.0901C37.13 36.0901 32.9 33.3201 32.2 26.3301L32.15 25.8601H36.19L36.24 26.3301C36.71 30.8801 39.81 32.9001 43.75 32.9001C47.69 32.9001 50.6 30.6001 50.6 26.6601C50.6 22.7201 48.16 20.7001 42.9 20.7001H42.1V17.4101H42.9C46.75 17.4101 49.85 15.1601 49.85 11.0701C49.85 7.83014 47.55 5.58014 44.12 5.58014C40.69 5.58014 37.92 7.65014 37.5 11.9201L37.45 12.3901H33.41L33.46 11.9201C34.07 6.05014 38.06 2.39014 44.63 2.39014C50.59 2.39014 54.35 5.72014 54.35 10.6001C54.35 14.3101 52 17.2201 48.62 18.2001C52.61 19.3301 55.1 22.1901 55.1 26.4101V26.4201Z" fill="#221815"/>
<path d="M86.45 18.7202C86.45 22.7602 84.76 24.9602 81.29 24.9602C79.46 24.9602 78.29 24.3502 75.85 23.0402C74.11 22.1002 72.75 21.4002 71.44 21.4002C69.66 21.4002 69.14 22.7602 69.14 24.9702H66.51C66.51 20.9302 68.2 18.7302 71.67 18.7302C73.5 18.7302 74.67 19.3402 77.11 20.6502C78.85 21.5902 80.21 22.2902 81.52 22.2902C83.3 22.2902 83.82 20.9302 83.82 18.7202H86.45Z" fill="#221815"/>
<path d="M117.38 27.26V35.43H113.34V27.26H97.29V25.24L113.34 3.04004H117.38V23.97H121.46V27.26H117.38ZM113.34 8.44004C112.59 9.71004 111.74 11.07 110.66 12.57L102.4 23.98H113.34V8.44004Z" fill="#221815"/>
<path d="M153.14 32.1401V35.4301H131.41V33.1301L143.14 21.1601C146.94 17.2601 148.77 14.9201 148.77 11.7701C148.77 8.44012 146.85 5.57012 142.95 5.57012C138.77 5.57012 136.75 8.15012 136.28 12.7001L136.23 13.1701H132.19L132.24 12.7001C132.9 5.94012 136.93 2.37012 143.41 2.37012C149.89 2.37012 153.27 6.45012 153.27 11.2901C153.27 15.7001 150.88 18.7101 145.39 24.1001L137.27 32.1301H153.13L153.14 32.1401Z" fill="#221815"/>
<path d="M166.74 15.5198V7.0498H168.99V15.5198H172.68V17.7798H168.99V28.5198C170.3 28.0698 171.56 27.5498 172.81 26.9698V29.2998C169.8 30.6298 166.58 31.7598 163.14 32.6598L162.58 30.3298C163.99 30.0098 165.37 29.6498 166.74 29.2598V17.7798H162.86V15.5198H166.74ZM190.59 8.4698V10.6698H183.17V22.8598H191.53V25.0898H183.17V36.7298H180.98V25.0898H172.75V22.8598H180.98V10.6698H173.62V8.4698H190.58H190.59ZM178.42 20.7598L176.48 21.2498C175.89 18.4398 175.1 15.7198 174.16 13.1298L176.1 12.4798C176.98 14.8698 177.73 17.6598 178.42 20.7598ZM189.78 12.8398C189.12 15.9798 188.28 18.7298 187.28 21.0898L185.37 20.3798C186.31 18.2498 187.12 15.5598 187.81 12.2898L189.78 12.8398Z" fill="#221815"/>
<path d="M214.85 37.89H212.29V0H214.85V37.89Z" fill="#D08421"/>
<path d="M259.38 32.1401V35.4301H237.65V33.1301L249.38 21.1601C253.18 17.2601 255.01 14.9201 255.01 11.7701C255.01 8.44012 253.09 5.57012 249.19 5.57012C245.01 5.57012 242.99 8.15012 242.52 12.7001L242.47 13.1701H238.43L238.48 12.7001C239.14 5.94012 243.17 2.37012 249.65 2.37012C256.13 2.37012 259.51 6.45012 259.51 11.2901C259.51 15.7001 257.12 18.7101 251.63 24.1001L243.51 32.1301H259.37L259.38 32.1401Z" fill="#221815"/>
<path d="M291.24 18.7202C291.24 22.7602 289.55 24.9602 286.08 24.9602C284.25 24.9602 283.08 24.3502 280.64 23.0402C278.9 22.1002 277.54 21.4002 276.23 21.4002C274.45 21.4002 273.93 22.7602 273.93 24.9702H271.3C271.3 20.9302 272.99 18.7302 276.46 18.7302C278.29 18.7302 279.46 19.3402 281.9 20.6502C283.64 21.5902 285 22.2902 286.31 22.2902C288.09 22.2902 288.61 20.9302 288.61 18.7202H291.24Z" fill="#221815"/>
<path d="M322.17 27.26V35.43H318.13V27.26H302.08V25.24L318.13 3.04004H322.17V23.97H326.25V27.26H322.17ZM318.13 8.44004C317.38 9.71004 316.53 11.07 315.45 12.57L307.19 23.98H318.13V8.44004Z" fill="#221815"/>
<path d="M361.02 8.73014C354.86 9.60014 347.91 10.1201 340.15 10.2501V12.1301H361.06V19.1201H340.15V19.4101C340.02 26.2301 338.8 31.6701 336.52 35.7401L334.89 33.9601C336.83 30.4701 337.89 25.6201 338.05 19.4001V8.44014C346.19 8.38014 353.54 7.86014 360.05 6.89014L361.02 8.73014ZM341.46 24.7101V22.6701H350.44C350.06 21.8001 349.69 20.9901 349.28 20.2801L351.63 19.8901C352.01 20.7001 352.38 21.6401 352.76 22.6701H362.34V24.7101H348.69C348.63 25.6501 348.5 26.5201 348.31 27.3601H360.05C359.92 31.5001 359.71 33.9301 359.42 34.6401C359.17 35.3501 358.64 35.8001 357.82 36.0601C357.01 36.2901 355.28 36.4201 352.66 36.4201H352.1L351.47 34.3201C352.06 34.3501 352.66 34.3801 353.25 34.3801C354.94 34.3801 356 34.2801 356.51 34.1201C356.95 33.9301 357.26 33.6701 357.42 33.2801C357.51 32.8601 357.64 31.5701 357.8 29.4301H347.69C346.5 32.4701 344.31 34.8301 341.18 36.5101L339.99 34.5701C343.96 32.5601 346.12 29.3001 346.47 24.7001H341.46V24.7101ZM358.86 17.1101V14.1301H340.14V17.1101H358.86Z" fill="#221815"/>
<path d="M386.79 37.89H384.23V0H386.79V37.89Z" fill="#D68F41"/>
<path d="M422.78 25.1798C422.78 31.1198 421.03 35.8498 415.38 35.8498C409.73 35.8498 407.98 31.1298 407.98 25.1798C407.98 19.2298 409.73 14.5098 415.38 14.5098C421.03 14.5098 422.78 19.1998 422.78 25.1798ZM419.93 25.1798C419.93 19.7998 418.65 16.5298 415.38 16.5298C412.11 16.5298 410.83 19.7998 410.83 25.1798C410.83 30.5598 412.11 33.8298 415.38 33.8298C418.65 33.8298 419.93 30.5298 419.93 25.1798Z" fill="#221815"/>
<path d="M443.34 28.5398C443.34 32.9098 440.25 35.8498 436.09 35.8498C431.51 35.8498 428.84 32.9698 428.84 26.1598C428.84 17.8998 432.55 14.5098 436.77 14.5098C440.28 14.5098 442.77 16.6798 443.1 20.0398L443.13 20.3398H440.4L440.34 20.0398C439.86 17.7198 438.65 16.5298 436.57 16.5298C433.81 16.5298 431.85 18.7598 431.64 24.7298L432.8 22.8898C433.9 21.9698 435.06 21.5798 436.54 21.5798C440.82 21.5798 443.34 24.4598 443.34 28.5298V28.5398ZM440.49 28.8398C440.49 25.9898 439.21 23.6098 436.09 23.6098C433.77 23.6098 431.81 25.3598 431.81 28.7798C431.81 31.6298 433.5 33.8298 436.09 33.8298C438.68 33.8298 440.49 31.8098 440.49 28.8398Z" fill="#221815"/>
<path d="M482.4 32.66V35.43H464.06V33.49L473.96 23.39C477.17 20.1 478.71 18.12 478.71 15.47C478.71 12.66 477.09 10.24 473.8 10.24C470.28 10.24 468.57 12.42 468.18 16.26L468.14 16.66H464.73L464.77 16.26C465.32 10.56 468.73 7.54004 474.2 7.54004C479.67 7.54004 482.52 10.99 482.52 15.07C482.52 18.79 480.5 21.33 475.86 25.88L469.01 32.65H482.4V32.66Z" fill="#221815"/>
<path d="M510.13 32.66V35.43H491.79V33.49L501.69 23.39C504.9 20.1 506.44 18.12 506.44 15.47C506.44 12.66 504.82 10.24 501.53 10.24C498.01 10.24 496.3 12.42 495.91 16.26L495.87 16.66H492.46L492.5 16.26C493.05 10.56 496.46 7.54004 501.93 7.54004C507.4 7.54004 510.25 10.99 510.25 15.07C510.25 18.79 508.23 21.33 503.59 25.88L496.74 32.65H510.13V32.66Z" fill="#221815"/>
<path d="M538.42 26.5601C538.42 32.5801 533.75 35.9901 528.67 35.9901C523.16 35.9901 519.96 33.3401 519.44 28.1901L519.4 27.7901H522.81L522.89 28.1901C523.52 31.3201 525.23 33.3001 528.63 33.3001C532.24 33.3001 534.61 30.9201 534.61 26.8001C534.61 22.6801 532.43 20.1101 528.79 20.1101C526.25 20.1101 524.43 21.1801 523.09 23.9901H519.84L521.74 8.1001H537.27V10.8701H524.51L523.28 20.3801L524.98 18.5601C526.29 17.7701 527.63 17.4101 529.3 17.4101C535.4 17.4101 538.41 21.3701 538.41 26.5601H538.42Z" fill="#221815"/>
<path d="M565.91 26.2398C565.91 32.0598 561.79 35.9898 556.24 35.9898C550.14 35.9898 546.57 32.1498 546.57 23.0798C546.57 12.0698 551.52 7.5498 557.15 7.5498C561.82 7.5498 565.15 10.4398 565.59 14.9198L565.63 15.3198H561.99L561.91 14.9198C561.28 11.8298 559.65 10.2498 556.88 10.2498C553.2 10.2498 550.58 13.2198 550.3 21.1798L551.85 18.7198C553.32 17.4898 554.86 16.9798 556.84 16.9798C562.54 16.9798 565.91 20.8198 565.91 26.2498V26.2398ZM562.11 26.6398C562.11 22.8398 560.41 19.6698 556.25 19.6698C553.16 19.6698 550.54 22.0098 550.54 26.5598C550.54 30.3598 552.8 33.2898 556.25 33.2898C559.7 33.2898 562.11 30.5998 562.11 26.6298V26.6398Z" fill="#221815"/>
<path d="M593.64 26.2398C593.64 32.0598 589.52 35.9898 583.97 35.9898C577.87 35.9898 574.3 32.1498 574.3 23.0798C574.3 12.0698 579.25 7.5498 584.88 7.5498C589.55 7.5498 592.88 10.4398 593.32 14.9198L593.36 15.3198H589.72L589.64 14.9198C589.01 11.8298 587.38 10.2498 584.61 10.2498C580.93 10.2498 578.31 13.2198 578.03 21.1798L579.58 18.7198C581.05 17.4898 582.59 16.9798 584.57 16.9798C590.27 16.9798 593.64 20.8198 593.64 26.2498V26.2398ZM589.84 26.6398C589.84 22.8398 588.14 19.6698 583.98 19.6698C580.89 19.6698 578.27 22.0098 578.27 26.5598C578.27 30.3598 580.53 33.2898 583.98 33.2898C587.43 33.2898 589.84 30.5998 589.84 26.6298V26.6398Z" fill="#221815"/>
<path d="M621.57 27.78C621.57 33.76 616.62 36.02 611.82 36.02C606.63 36.02 602.07 33.76 602.07 27.78C602.07 24.49 604.57 21.92 607.5 21.01C605.04 20.06 603.26 17.88 603.26 14.91C603.26 10.39 606.71 7.54004 612.05 7.54004C617.39 7.54004 620.84 10.39 620.84 14.91C620.84 17.92 618.86 20.06 616.32 20.97C619.25 21.92 621.55 24.5 621.55 27.78H621.57ZM617.77 27.94C617.77 25.13 616.11 22.59 611.87 22.59C607.63 22.59 605.89 25.13 605.89 27.94C605.89 31.07 607.91 33.33 611.91 33.33C615.91 33.33 617.77 31.07 617.77 27.94ZM606.96 15.03C606.96 17.8 608.62 19.9 612.03 19.9C615.44 19.9 617.18 17.8 617.18 15.03C617.18 12.42 615.52 10.24 612.07 10.24C608.62 10.24 606.96 12.42 606.96 15.03Z" fill="#221815"/>
<path d="M649.3 27.78C649.3 33.76 644.35 36.02 639.55 36.02C634.36 36.02 629.8 33.76 629.8 27.78C629.8 24.49 632.3 21.92 635.23 21.01C632.77 20.06 630.99 17.88 630.99 14.91C630.99 10.39 634.44 7.54004 639.78 7.54004C645.12 7.54004 648.57 10.39 648.57 14.91C648.57 17.92 646.59 20.06 644.05 20.97C646.98 21.92 649.28 24.5 649.28 27.78H649.3ZM645.5 27.94C645.5 25.13 643.84 22.59 639.6 22.59C635.36 22.59 633.62 25.13 633.62 27.94C633.62 31.07 635.64 33.33 639.64 33.33C643.64 33.33 645.5 31.07 645.5 27.94ZM634.69 15.03C634.69 17.8 636.35 19.9 639.76 19.9C643.17 19.9 644.91 17.8 644.91 15.03C644.91 12.42 643.25 10.24 639.8 10.24C636.35 10.24 634.69 12.42 634.69 15.03Z" fill="#221815"/>
</svg>
