<svg width="951" height="88" viewBox="0 0 951 88" fill="none" xmlns="http://www.w3.org/2000/svg">
<path d="M11.09 77.96C11.09 81.53 9.12 84.07 5.54 84.07C1.96 84.07 0 81.53 0 77.96C0 74.39 1.97 71.85 5.55 71.85C9.13 71.85 11.1 74.37 11.1 77.96H11.09ZM9.46 77.96C9.46 74.9 8.01 73.01 5.55 73.01C3.09 73.01 1.63 74.9 1.63 77.96C1.63 81.02 3.08 82.91 5.54 82.91C8 82.91 9.45 81 9.45 77.96H9.46Z" fill="#221815"/>
<path d="M21.98 78.76V83.83H20.52V78.86C20.52 78.4 20.52 78.03 20.49 77.57C20.41 76.52 19.83 75.73 18.43 75.73C17.03 75.73 15.83 76.78 15.83 79.86V83.82H14.37V74.81H15.83V76.36L16.39 75.32C17.16 74.72 17.82 74.57 18.74 74.57C20.71 74.57 21.82 75.62 21.96 77.21C21.99 77.67 21.99 78.03 21.99 78.76H21.98Z" fill="#221815"/>
<path d="M33.17 79.76H26.64C26.78 82.14 27.9 82.94 29.23 82.94C30.4 82.94 31.36 82.21 31.56 80.92H33.09C32.73 83.1 31.01 84.07 29.16 84.07C26.81 84.07 25.06 82.54 25.06 79.36C25.06 76.43 26.88 74.58 29.35 74.58C31.82 74.58 33.21 76.43 33.21 79.07C33.21 79.21 33.21 79.44 33.18 79.77L33.17 79.76ZM26.65 78.64H31.72C31.58 76.77 30.78 75.7 29.3 75.7C27.82 75.7 26.82 76.72 26.65 78.64Z" fill="#221815"/>
<path d="M49.15 78.76V83.83H47.69V78.86C47.69 78.4 47.69 78.03 47.66 77.57C47.58 76.52 47 75.7 45.6 75.73C44.19 75.76 43 76.78 43 79.86V83.82H41.54V71.24H43V76.36L43.56 75.32C44.33 74.72 44.99 74.57 45.91 74.57C47.88 74.57 48.99 75.62 49.13 77.21C49.16 77.67 49.16 78.03 49.16 78.76H49.15Z" fill="#221815"/>
<path d="M58 82.54L57.51 83.51C56.9 83.94 56.12 84.07 55.25 84.07C53.62 84.07 52.34 83.17 52.34 81.5C52.34 79.46 53.87 78.4 57.41 78.4H57.99V78.16C57.99 77.77 57.99 77.41 57.96 77.07C57.89 76.24 57.42 75.69 56.21 75.69C55 75.69 54.37 76.35 54.27 77.6H52.74C52.88 75.68 54.22 74.57 56.21 74.57C58.35 74.57 59.26 75.47 59.41 76.95C59.44 77.31 59.46 77.75 59.46 78.14V81.53C59.46 82.21 59.49 82.82 59.63 83.83H58.17L58.02 82.54H58ZM57.98 80.41V79.49C55.5 79.3 53.93 79.83 53.93 81.38C53.93 82.47 54.63 82.95 55.73 82.95C57.09 82.95 57.98 82.05 57.98 80.42V80.41Z" fill="#221815"/>
<path d="M72 79.18C72 82.51 69.92 84.06 67.59 84.06C66.84 84.06 65.89 83.84 65.43 83.46L64.83 82.58V87.16H63.37V74.81H64.83V76.26L65.51 75.29C66.02 74.86 66.97 74.58 67.89 74.58C70.53 74.58 71.99 76.55 71.99 79.19L72 79.18ZM70.4 79.35C70.4 77.31 69.48 75.69 67.68 75.69C66.18 75.69 64.84 76.64 64.84 79.23V79.72C64.84 82.05 66.3 82.94 67.6 82.94C69.18 82.94 70.41 81.72 70.41 79.35H70.4Z" fill="#221815"/>
<path d="M83.75 79.18C83.75 82.51 81.67 84.06 79.34 84.06C78.59 84.06 77.64 83.84 77.18 83.46L76.58 82.58V87.16H75.12V74.81H76.58V76.26L77.26 75.29C77.77 74.86 78.72 74.58 79.64 74.58C82.28 74.58 83.74 76.55 83.74 79.19L83.75 79.18ZM82.15 79.35C82.15 77.31 81.23 75.69 79.43 75.69C77.93 75.69 76.59 76.64 76.59 79.23V79.72C76.59 82.05 78.05 82.94 79.35 82.94C80.93 82.94 82.16 81.72 82.16 79.35H82.15Z" fill="#221815"/>
<path d="M90.53 84.59C89.8 86.5 88.83 87.4 87.37 87.4C87.05 87.4 86.84 87.4 86.62 87.37V86.18C86.84 86.2 86.99 86.2 87.15 86.2C88.05 86.2 88.65 85.81 89.11 84.62L89.23 84.3L85.64 74.82H87.29L89.98 82.75L92.65 74.82H94.25L90.54 84.6L90.53 84.59Z" fill="#221815"/>
<path d="M103.39 81.24C103.39 81.51 103.39 81.8 103.41 82.09C103.44 82.67 103.72 82.86 104.52 82.77V83.83C104.2 83.88 103.82 83.9 103.48 83.9C102.63 83.9 102 83.63 101.95 82.49C101.93 82.18 101.93 81.79 101.93 81.3V71.32H103.39V81.24Z" fill="#221815"/>
<path d="M109.22 72.79C109.22 73.32 108.81 73.73 108.28 73.73C107.75 73.73 107.34 73.32 107.34 72.79C107.34 72.26 107.75 71.85 108.28 71.85C108.81 71.85 109.22 72.26 109.22 72.79ZM107.55 83.83V74.81H109.01V83.83H107.55Z" fill="#221815"/>
<path d="M114.5 73.99V74.87H116.35V75.99H114.5V83.82H113.04V76H112.07V74.88H113.04V74.13C113.04 73.79 113.06 73.35 113.09 73.04C113.24 71.73 114.13 71 115.47 71C115.84 71 116.2 71.03 116.51 71.09V72.29C115.4 72.09 114.67 72.34 114.55 73.07C114.52 73.31 114.5 73.73 114.5 73.99Z" fill="#221815"/>
<path d="M126.62 79.76H120.09C120.23 82.14 121.35 82.94 122.68 82.94C123.85 82.94 124.81 82.21 125.01 80.92H126.54C126.18 83.1 124.46 84.07 122.61 84.07C120.26 84.07 118.51 82.54 118.51 79.36C118.51 76.43 120.33 74.58 122.8 74.58C125.27 74.58 126.66 76.43 126.66 79.07C126.66 79.21 126.66 79.44 126.63 79.77L126.62 79.76ZM120.1 78.64H125.17C125.03 76.77 124.23 75.7 122.75 75.7C121.27 75.7 120.27 76.72 120.1 78.64Z" fill="#221815"/>
<path d="M144.11 83.83H142.37L140.36 76.24L138.35 83.83H136.61L133.74 74.81H135.42L137.51 82.43L139.48 74.81H141.3L143.31 82.38L145.4 74.81H146.96L144.09 83.83H144.11Z" fill="#221815"/>
<path d="M151.37 72.79C151.37 73.32 150.96 73.73 150.43 73.73C149.9 73.73 149.49 73.32 149.49 72.79C149.49 72.26 149.9 71.85 150.43 71.85C150.96 71.85 151.37 72.26 151.37 72.79ZM149.7 83.83V74.81H151.16V83.83H149.7Z" fill="#221815"/>
<path d="M156.86 81.19C156.86 81.5 156.86 81.65 156.88 81.89C156.95 82.76 157.31 82.94 158.45 82.81V83.88C158.02 83.95 157.62 83.97 157.21 83.97C156.09 83.97 155.51 83.51 155.42 82.39C155.4 82.15 155.4 81.78 155.4 81.27V76H154.19V74.88H155.4V72.79H156.86V74.88H158.54V76H156.86V81.19Z" fill="#221815"/>
<path d="M169.41 78.76V83.83H167.95V78.86C167.95 78.4 167.95 78.03 167.92 77.57C167.84 76.52 167.26 75.7 165.86 75.73C164.45 75.76 163.26 76.78 163.26 79.86V83.82H161.8V71.24H163.26V76.36L163.82 75.32C164.59 74.72 165.25 74.57 166.17 74.57C168.14 74.57 169.25 75.62 169.39 77.21C169.42 77.67 169.42 78.03 169.42 78.76H169.41Z" fill="#221815"/>
<path d="M179.65 84.61C179.65 84.95 179.63 85.39 179.6 85.7C179.48 86.79 178.89 87.4 177.49 87.4C177.22 87.4 177.01 87.4 176.79 87.37V86.18C177.73 86.26 178.08 85.98 178.15 85.43C178.18 85.19 178.18 84.94 178.18 84.68V74.81H179.64V84.61H179.65ZM179.85 72.79C179.85 73.32 179.44 73.73 178.91 73.73C178.38 73.73 177.97 73.32 177.97 72.79C177.97 72.26 178.38 71.85 178.91 71.85C179.44 71.85 179.85 72.26 179.85 72.79Z" fill="#221815"/>
<path d="M191.08 83.83H189.62V82.3L189.06 83.35C188.29 83.91 187.63 84.06 186.71 84.06C184.84 84.06 183.75 83 183.55 81.76C183.48 81.3 183.47 80.94 183.47 80.21V74.81H184.93V79.95C184.93 80.24 184.95 80.73 185 81.19C185.14 82.21 185.87 82.91 187.09 82.91C188.5 82.91 189.63 81.86 189.63 78.78V74.81H191.09V83.83H191.08Z" fill="#221815"/>
<path d="M200.96 77.38H199.43C199.23 76.33 198.58 75.7 197.52 75.7C196.46 75.7 196.02 76.26 196.02 77.04C196.02 77.94 196.77 78.3 197.99 78.62C200.07 79.16 201.05 79.98 201.05 81.51C201.05 83.21 199.6 84.06 197.7 84.06C195.8 84.06 194.43 83.21 194.16 81.17H195.69C195.93 82.48 196.76 82.94 197.8 82.94C198.77 82.94 199.55 82.5 199.55 81.63C199.55 80.76 198.94 80.3 197.42 79.89C195.8 79.45 194.51 78.78 194.51 77.2C194.51 75.62 195.77 74.56 197.62 74.56C199.64 74.56 200.75 75.72 200.94 77.37L200.96 77.38Z" fill="#221815"/>
<path d="M205.94 81.19C205.94 81.5 205.94 81.65 205.96 81.89C206.03 82.76 206.39 82.94 207.53 82.81V83.88C207.1 83.95 206.7 83.97 206.29 83.97C205.17 83.97 204.59 83.51 204.5 82.39C204.48 82.15 204.48 81.78 204.48 81.27V76H203.27V74.88H204.48V72.79H205.94V74.88H207.62V76H205.94V81.19Z" fill="#221815"/>
<path d="M220.88 73.28V83.83H219.42V73.28H215.24V72.09H225.07V73.28H220.88Z" fill="#221815"/>
<path d="M236.8 83.83H235.06L233.05 76.24L231.04 83.83H229.3L226.43 74.81H228.11L230.2 82.43L232.17 74.81H233.99L236 82.38L238.09 74.81H239.65L236.78 83.83H236.8Z" fill="#221815"/>
<path d="M250.59 79.32C250.59 81.85 249.18 84.07 246.12 84.07C243.06 84.07 241.65 81.86 241.65 79.32C241.65 76.78 243.06 74.57 246.12 74.57C249.18 74.57 250.59 76.76 250.59 79.32ZM248.99 79.32C248.99 77.19 247.93 75.7 246.11 75.7C244.29 75.7 243.24 77.2 243.24 79.32C243.24 81.44 244.29 82.94 246.11 82.94C247.93 82.94 248.99 81.43 248.99 79.32Z" fill="#221815"/>
<path d="M266.95 79.32C266.95 81.85 265.54 84.07 262.48 84.07C259.42 84.07 258.01 81.86 258.01 79.32C258.01 76.78 259.42 74.57 262.48 74.57C265.54 74.57 266.95 76.76 266.95 79.32ZM265.35 79.32C265.35 77.19 264.3 75.7 262.47 75.7C260.64 75.7 259.6 77.2 259.6 79.32C259.6 81.44 260.65 82.94 262.47 82.94C264.29 82.94 265.35 81.43 265.35 79.32Z" fill="#221815"/>
<path d="M271.61 73.99V74.87H273.46V75.99H271.61V83.82H270.15V76H269.18V74.88H270.15V74.13C270.15 73.79 270.17 73.35 270.2 73.04C270.35 71.73 271.24 71 272.58 71C272.95 71 273.31 71.03 273.62 71.09V72.29C272.51 72.09 271.78 72.34 271.66 73.07C271.63 73.31 271.61 73.73 271.61 73.99Z" fill="#221815"/>
<path d="M288.89 83.83H287.43V82.3L286.87 83.35C286.1 83.91 285.44 84.06 284.52 84.06C282.65 84.06 281.56 83 281.36 81.76C281.29 81.3 281.28 80.94 281.28 80.21V74.81H282.74V79.95C282.74 80.24 282.76 80.73 282.81 81.19C282.95 82.21 283.68 82.91 284.9 82.91C286.31 82.91 287.44 81.86 287.44 78.78V74.81H288.9V83.83H288.89Z" fill="#221815"/>
<path d="M298.77 77.38H297.24C297.04 76.33 296.39 75.7 295.33 75.7C294.27 75.7 293.83 76.26 293.83 77.04C293.83 77.94 294.58 78.3 295.8 78.62C297.88 79.16 298.86 79.98 298.86 81.51C298.86 83.21 297.41 84.06 295.51 84.06C293.61 84.06 292.24 83.21 291.97 81.17H293.5C293.74 82.48 294.57 82.94 295.61 82.94C296.58 82.94 297.36 82.5 297.36 81.63C297.36 80.76 296.75 80.3 295.23 79.89C293.61 79.45 292.32 78.78 292.32 77.2C292.32 75.62 293.58 74.56 295.43 74.56C297.45 74.56 298.56 75.72 298.75 77.37L298.77 77.38Z" fill="#221815"/>
<path d="M314.66 78.76V83.83H313.2V78.86C313.2 78.4 313.2 78.03 313.17 77.57C313.09 76.52 312.51 75.7 311.11 75.73C309.7 75.76 308.51 76.78 308.51 79.86V83.82H307.05V71.24H308.51V76.36L309.07 75.32C309.84 74.72 310.5 74.57 311.42 74.57C313.39 74.57 314.5 75.62 314.64 77.21C314.67 77.67 314.67 78.03 314.67 78.76H314.66Z" fill="#221815"/>
<path d="M323.5 82.54L323.01 83.51C322.4 83.94 321.61 84.07 320.75 84.07C319.12 84.07 317.84 83.17 317.84 81.5C317.84 79.46 319.37 78.4 322.91 78.4H323.49V78.16C323.49 77.77 323.49 77.41 323.46 77.07C323.39 76.24 322.92 75.69 321.71 75.69C320.5 75.69 319.87 76.35 319.77 77.6H318.24C318.38 75.68 319.72 74.57 321.71 74.57C323.85 74.57 324.76 75.47 324.91 76.95C324.94 77.31 324.96 77.75 324.96 78.14V81.53C324.96 82.21 324.99 82.82 325.13 83.83H323.67L323.52 82.54H323.5ZM323.48 80.41V79.49C321 79.3 319.43 79.83 319.43 81.38C319.43 82.47 320.13 82.95 321.23 82.95C322.59 82.95 323.48 82.05 323.48 80.42V80.41Z" fill="#221815"/>
<path d="M332.84 83.83H331.05L327.63 74.81H329.25L332.01 82.76L334.71 74.81H336.26L332.84 83.83Z" fill="#221815"/>
<path d="M340.64 72.79C340.64 73.32 340.23 73.73 339.7 73.73C339.17 73.73 338.76 73.32 338.76 72.79C338.76 72.26 339.17 71.85 339.7 71.85C340.23 71.85 340.64 72.26 340.64 72.79ZM338.97 83.83V74.81H340.43V83.83H338.97Z" fill="#221815"/>
<path d="M352.01 78.76V83.83H350.55V78.86C350.55 78.4 350.55 78.03 350.52 77.57C350.44 76.52 349.86 75.73 348.46 75.73C347.06 75.73 345.86 76.78 345.86 79.86V83.82H344.4V74.81H345.86V76.36L346.42 75.32C347.19 74.72 347.85 74.57 348.77 74.57C350.74 74.57 351.85 75.62 351.99 77.21C352.02 77.67 352.02 78.03 352.02 78.76H352.01Z" fill="#221815"/>
<path d="M363.71 81.62C363.71 82.18 363.71 82.88 363.69 83.37C363.61 86.01 362.01 87.4 359.4 87.4C356.79 87.4 355.55 86.33 355.37 84.42L355.35 84.25H356.83L356.85 84.4C356.97 85.51 357.85 86.27 359.4 86.27C361.19 86.27 362.16 85.25 362.22 83.51C362.24 83.08 362.24 82.8 362.24 82.52V82.37L361.56 83.34C361.05 83.77 360.1 84.05 359.18 84.05C356.54 84.05 355.08 82.08 355.08 79.44C355.08 76.11 357.16 74.56 359.49 74.56C360.24 74.56 361.19 74.78 361.65 75.16L362.25 76.04V74.8H363.71V81.61V81.62ZM362.25 79.41V78.92C362.25 76.59 360.79 75.7 359.49 75.7C357.91 75.7 356.68 76.93 356.68 79.29C356.68 81.33 357.6 82.95 359.4 82.95C360.9 82.95 362.24 82 362.24 79.41H362.25Z" fill="#221815"/>
<path d="M377.65 73.28V83.83H376.19V73.28H372.01V72.09H381.84V73.28H377.66H377.65Z" fill="#221815"/>
<path d="M391.69 78.76V83.83H390.23V78.86C390.23 78.4 390.23 78.03 390.2 77.57C390.12 76.52 389.54 75.7 388.14 75.73C386.73 75.76 385.54 76.78 385.54 79.86V83.82H384.08V71.24H385.54V76.36L386.1 75.32C386.87 74.72 387.53 74.57 388.45 74.57C390.42 74.57 391.53 75.62 391.67 77.21C391.7 77.67 391.7 78.03 391.7 78.76H391.69Z" fill="#221815"/>
<path d="M399.66 74.73V75.84C398.13 75.74 396.97 76.64 396.97 78.7V83.84H395.51V74.81H396.97V76.22L397.79 75.01C398.16 74.75 398.62 74.6 399.05 74.6C399.29 74.6 399.49 74.63 399.66 74.72V74.73Z" fill="#221815"/>
<path d="M409.65 79.76H403.12C403.26 82.14 404.38 82.94 405.71 82.94C406.88 82.94 407.84 82.21 408.04 80.92H409.57C409.21 83.1 407.49 84.07 405.64 84.07C403.29 84.07 401.54 82.54 401.54 79.36C401.54 76.43 403.36 74.58 405.83 74.58C408.3 74.58 409.69 76.43 409.69 79.07C409.69 79.21 409.69 79.44 409.66 79.77L409.65 79.76ZM403.13 78.64H408.2C408.06 76.77 407.26 75.7 405.78 75.7C404.3 75.7 403.3 76.72 403.13 78.64Z" fill="#221815"/>
<path d="M420.34 79.76H413.81C413.95 82.14 415.07 82.94 416.4 82.94C417.57 82.94 418.53 82.21 418.73 80.92H420.26C419.9 83.1 418.18 84.07 416.33 84.07C413.98 84.07 412.23 82.54 412.23 79.36C412.23 76.43 414.05 74.58 416.52 74.58C418.99 74.58 420.38 76.43 420.38 79.07C420.38 79.21 420.38 79.44 420.35 79.77L420.34 79.76ZM413.82 78.64H418.89C418.75 76.77 417.95 75.7 416.47 75.7C414.99 75.7 413.99 76.72 413.82 78.64Z" fill="#221815"/>
<path d="M440.79 78.32V83.83H439.33V79C439.33 78.2 439.31 77.71 439.26 77.25C439.12 76.23 438.48 75.74 437.46 75.74C436.32 75.74 435.49 76.64 435.49 79.38V83.84H434.03V79C434.03 78.2 434.01 77.71 433.96 77.25C433.82 76.23 433.18 75.74 432.16 75.74C431.02 75.74 430.19 76.64 430.19 79.38V83.84H428.73V74.81H430.19V76.12L430.77 75.1C431.23 74.73 431.88 74.57 432.68 74.57C434.06 74.57 434.94 75.27 435.28 76.25L436.08 75.09C436.54 74.72 437.19 74.56 437.99 74.56C439.61 74.56 440.53 75.51 440.73 76.75C440.8 77.21 440.82 77.57 440.82 78.3L440.79 78.32Z" fill="#221815"/>
<path d="M451.98 79.76H445.45C445.59 82.14 446.71 82.94 448.04 82.94C449.21 82.94 450.17 82.21 450.37 80.92H451.9C451.54 83.1 449.82 84.07 447.97 84.07C445.62 84.07 443.87 82.54 443.87 79.36C443.87 76.43 445.69 74.58 448.16 74.58C450.63 74.58 452.02 76.43 452.02 79.07C452.02 79.21 452.02 79.44 451.99 79.77L451.98 79.76ZM445.46 78.64H450.53C450.39 76.77 449.59 75.7 448.11 75.7C446.63 75.7 445.63 76.72 445.46 78.64Z" fill="#221815"/>
<path d="M460.33 82.54L459.84 83.51C459.23 83.94 458.45 84.07 457.58 84.07C455.95 84.07 454.67 83.17 454.67 81.5C454.67 79.46 456.2 78.4 459.74 78.4H460.32V78.16C460.32 77.77 460.32 77.41 460.29 77.07C460.22 76.24 459.75 75.69 458.54 75.69C457.33 75.69 456.7 76.35 456.6 77.6H455.07C455.21 75.68 456.55 74.57 458.54 74.57C460.68 74.57 461.59 75.47 461.74 76.95C461.77 77.31 461.79 77.75 461.79 78.14V81.53C461.79 82.21 461.82 82.82 461.96 83.83H460.5L460.35 82.54H460.33ZM460.31 80.41V79.49C457.83 79.3 456.26 79.83 456.26 81.38C456.26 82.47 456.96 82.95 458.06 82.95C459.42 82.95 460.31 82.05 460.31 80.42V80.41Z" fill="#221815"/>
<path d="M467.1 81.24C467.1 81.51 467.1 81.8 467.12 82.09C467.15 82.67 467.43 82.86 468.23 82.77V83.83C467.91 83.88 467.53 83.9 467.19 83.9C466.34 83.9 465.71 83.63 465.66 82.49C465.64 82.18 465.64 81.79 465.64 81.3V71.32H467.1V81.24Z" fill="#221815"/>
<path d="M477.2 77.38H475.67C475.47 76.33 474.82 75.7 473.76 75.7C472.7 75.7 472.26 76.26 472.26 77.04C472.26 77.94 473.01 78.3 474.23 78.62C476.31 79.16 477.29 79.98 477.29 81.51C477.29 83.21 475.84 84.06 473.94 84.06C472.04 84.06 470.67 83.21 470.4 81.17H471.93C472.17 82.48 473 82.94 474.04 82.94C475.01 82.94 475.79 82.5 475.79 81.63C475.79 80.76 475.18 80.3 473.66 79.89C472.04 79.45 470.75 78.78 470.75 77.2C470.75 75.62 472.01 74.56 473.86 74.56C475.88 74.56 476.99 75.72 477.18 77.37L477.2 77.38Z" fill="#221815"/>
<path d="M487.22 81.19C487.22 81.5 487.22 81.65 487.24 81.89C487.31 82.76 487.66 82.94 488.81 82.81V83.88C488.38 83.95 487.98 83.97 487.57 83.97C486.45 83.97 485.87 83.51 485.78 82.39C485.76 82.15 485.76 81.78 485.76 81.27V76H484.55V74.88H485.76V72.79H487.22V74.88H488.9V76H487.22V81.19Z" fill="#221815"/>
<path d="M500.13 79.32C500.13 81.85 498.72 84.07 495.66 84.07C492.6 84.07 491.19 81.86 491.19 79.32C491.19 76.78 492.6 74.57 495.66 74.57C498.72 74.57 500.13 76.76 500.13 79.32ZM498.53 79.32C498.53 77.19 497.48 75.7 495.65 75.7C493.82 75.7 492.78 77.2 492.78 79.32C492.78 81.44 493.83 82.94 495.65 82.94C497.47 82.94 498.53 81.43 498.53 79.32Z" fill="#221815"/>
<path d="M511.13 81.62C511.13 82.18 511.13 82.88 511.11 83.37C511.03 86.01 509.43 87.4 506.82 87.4C504.21 87.4 502.98 86.33 502.79 84.42L502.77 84.25H504.25L504.27 84.4C504.39 85.51 505.27 86.27 506.82 86.27C508.61 86.27 509.58 85.25 509.64 83.51C509.66 83.08 509.66 82.8 509.66 82.52V82.37L508.98 83.34C508.47 83.77 507.52 84.05 506.6 84.05C503.96 84.05 502.5 82.08 502.5 79.44C502.5 76.11 504.58 74.56 506.91 74.56C507.66 74.56 508.61 74.78 509.07 75.16L509.67 76.04V74.8H511.13V81.61V81.62ZM509.67 79.41V78.92C509.67 76.59 508.21 75.7 506.91 75.7C505.33 75.7 504.1 76.93 504.1 79.29C504.1 81.33 505.02 82.95 506.82 82.95C508.32 82.95 509.66 82 509.66 79.41H509.67Z" fill="#221815"/>
<path d="M522.44 79.76H515.91C516.05 82.14 517.17 82.94 518.5 82.94C519.67 82.94 520.63 82.21 520.83 80.92H522.36C522 83.1 520.28 84.07 518.43 84.07C516.08 84.07 514.33 82.54 514.33 79.36C514.33 76.43 516.15 74.58 518.62 74.58C521.09 74.58 522.48 76.43 522.48 79.07C522.48 79.21 522.48 79.44 522.45 79.77L522.44 79.76ZM515.92 78.64H520.99C520.85 76.77 520.05 75.7 518.57 75.7C517.09 75.7 516.09 76.72 515.92 78.64Z" fill="#221815"/>
<path d="M527.52 81.19C527.52 81.5 527.52 81.65 527.54 81.89C527.61 82.76 527.96 82.94 529.11 82.81V83.88C528.68 83.95 528.28 83.97 527.87 83.97C526.75 83.97 526.17 83.51 526.08 82.39C526.06 82.15 526.06 81.78 526.06 81.27V76H524.85V74.88H526.06V72.79H527.52V74.88H529.2V76H527.52V81.19Z" fill="#221815"/>
<path d="M540.08 78.76V83.83H538.62V78.86C538.62 78.4 538.62 78.03 538.59 77.57C538.51 76.52 537.93 75.7 536.53 75.73C535.12 75.76 533.93 76.78 533.93 79.86V83.82H532.47V71.24H533.93V76.36L534.49 75.32C535.26 74.72 535.92 74.57 536.84 74.57C538.81 74.57 539.92 75.62 540.06 77.21C540.09 77.67 540.09 78.03 540.09 78.76H540.08Z" fill="#221815"/>
<path d="M551.27 79.76H544.74C544.88 82.14 546 82.94 547.33 82.94C548.5 82.94 549.46 82.21 549.66 80.92H551.19C550.83 83.1 549.11 84.07 547.26 84.07C544.91 84.07 543.16 82.54 543.16 79.36C543.16 76.43 544.98 74.58 547.45 74.58C549.92 74.58 551.31 76.43 551.31 79.07C551.31 79.21 551.31 79.44 551.28 79.77L551.27 79.76ZM544.75 78.64H549.82C549.68 76.77 548.88 75.7 547.4 75.7C545.92 75.7 544.92 76.72 544.75 78.64Z" fill="#221815"/>
<path d="M558.75 74.73V75.84C557.22 75.74 556.06 76.64 556.06 78.7V83.84H554.6V74.81H556.06V76.22L556.88 75.01C557.25 74.75 557.71 74.6 558.14 74.6C558.38 74.6 558.58 74.63 558.75 74.72V74.73Z" fill="#221815"/>
<path d="M573.97 79.76H567.44C567.58 82.14 568.7 82.94 570.03 82.94C571.2 82.94 572.16 82.21 572.36 80.92H573.89C573.53 83.1 571.81 84.07 569.96 84.07C567.61 84.07 565.86 82.54 565.86 79.36C565.86 76.43 567.68 74.58 570.15 74.58C572.62 74.58 574.01 76.43 574.01 79.07C574.01 79.21 574.01 79.44 573.98 79.77L573.97 79.76ZM567.45 78.64H572.52C572.38 76.77 571.58 75.7 570.1 75.7C568.62 75.7 567.62 76.72 567.45 78.64Z" fill="#221815"/>
<path d="M581.27 83.83H579.48L576.06 74.81H577.68L580.44 82.76L583.15 74.81H584.7L581.28 83.83H581.27Z" fill="#221815"/>
<path d="M594.64 79.76H588.11C588.25 82.14 589.37 82.94 590.7 82.94C591.87 82.94 592.83 82.21 593.03 80.92H594.56C594.2 83.1 592.48 84.07 590.63 84.07C588.28 84.07 586.53 82.54 586.53 79.36C586.53 76.43 588.35 74.58 590.82 74.58C593.29 74.58 594.68 76.43 594.68 79.07C594.68 79.21 594.68 79.44 594.65 79.77L594.64 79.76ZM588.12 78.64H593.19C593.05 76.77 592.25 75.7 590.77 75.7C589.29 75.7 588.29 76.72 588.12 78.64Z" fill="#221815"/>
<path d="M602.12 74.73V75.84C600.59 75.74 599.43 76.64 599.43 78.7V83.84H597.97V74.81H599.43V76.22L600.25 75.01C600.62 74.75 601.08 74.6 601.51 74.6C601.75 74.6 601.95 74.63 602.12 74.72V74.73Z" fill="#221815"/>
<path d="M608.6 84.59C607.87 86.5 606.9 87.4 605.43 87.4C605.11 87.4 604.9 87.4 604.68 87.37V86.18C604.9 86.2 605.05 86.2 605.21 86.2C606.11 86.2 606.71 85.81 607.17 84.62L607.29 84.3L603.7 74.82H605.35L608.04 82.75L610.71 74.82H612.31L608.6 84.6V84.59Z" fill="#221815"/>
<path d="M627.94 83.83H626.48V82.38L625.8 83.35C625.29 83.78 624.34 84.06 623.42 84.06C620.78 84.06 619.32 82.09 619.32 79.45C619.32 76.12 621.4 74.57 623.73 74.57C624.48 74.57 625.43 74.79 625.89 75.17L626.49 76.05V71.32H627.95V83.83H627.94ZM626.48 79.41V78.92C626.48 76.59 625.02 75.7 623.72 75.7C622.14 75.7 620.91 76.93 620.91 79.29C620.91 81.33 621.83 82.95 623.63 82.95C625.13 82.95 626.47 82 626.47 79.41H626.48Z" fill="#221815"/>
<path d="M636.9 82.54L636.41 83.51C635.8 83.94 635.02 84.07 634.15 84.07C632.52 84.07 631.24 83.17 631.24 81.5C631.24 79.46 632.77 78.4 636.31 78.4H636.89V78.16C636.89 77.77 636.89 77.41 636.86 77.07C636.79 76.24 636.32 75.69 635.11 75.69C633.9 75.69 633.27 76.35 633.17 77.6H631.64C631.78 75.68 633.12 74.57 635.11 74.57C637.25 74.57 638.16 75.47 638.31 76.95C638.34 77.31 638.36 77.75 638.36 78.14V81.53C638.36 82.21 638.39 82.82 638.53 83.83H637.07L636.92 82.54H636.9ZM636.88 80.41V79.49C634.4 79.3 632.83 79.83 632.83 81.38C632.83 82.47 633.53 82.95 634.63 82.95C635.99 82.95 636.88 82.05 636.88 80.42V80.41Z" fill="#221815"/>
<path d="M645.93 84.59C645.2 86.5 644.23 87.4 642.76 87.4C642.44 87.4 642.23 87.4 642.01 87.37V86.18C642.23 86.2 642.38 86.2 642.54 86.2C643.44 86.2 644.04 85.81 644.5 84.62L644.62 84.3L641.03 74.82H642.68L645.37 82.75L648.04 74.82H649.64L645.93 84.6V84.59Z" fill="#221815"/>
<path d="M659.06 72.79C659.06 73.32 658.65 73.73 658.12 73.73C657.59 73.73 657.18 73.32 657.18 72.79C657.18 72.26 657.59 71.85 658.12 71.85C658.65 71.85 659.06 72.26 659.06 72.79ZM657.39 83.83V74.81H658.85V83.83H657.39Z" fill="#221815"/>
<path d="M670.42 78.76V83.83H668.96V78.86C668.96 78.4 668.96 78.03 668.93 77.57C668.85 76.52 668.27 75.73 666.87 75.73C665.47 75.73 664.27 76.78 664.27 79.86V83.82H662.81V74.81H664.27V76.36L664.83 75.32C665.6 74.72 666.26 74.57 667.18 74.57C669.15 74.57 670.26 75.62 670.4 77.21C670.43 77.67 670.43 78.03 670.43 78.76H670.42Z" fill="#221815"/>
<path d="M684.3 82.54L683.81 83.51C683.2 83.94 682.42 84.07 681.55 84.07C679.92 84.07 678.64 83.17 678.64 81.5C678.64 79.46 680.17 78.4 683.71 78.4H684.29V78.16C684.29 77.77 684.29 77.41 684.26 77.07C684.19 76.24 683.72 75.69 682.51 75.69C681.3 75.69 680.67 76.35 680.57 77.6H679.04C679.18 75.68 680.52 74.57 682.51 74.57C684.65 74.57 685.55 75.47 685.71 76.95C685.74 77.31 685.76 77.75 685.76 78.14V81.53C685.76 82.21 685.79 82.82 685.93 83.83H684.47L684.32 82.54H684.3ZM684.28 80.41V79.49C681.8 79.3 680.23 79.83 680.23 81.38C680.23 82.47 680.93 82.95 682.03 82.95C683.39 82.95 684.28 82.05 684.28 80.42V80.41Z" fill="#221815"/>
<path d="M691.07 81.24C691.07 81.51 691.07 81.8 691.09 82.09C691.12 82.67 691.4 82.86 692.2 82.77V83.83C691.88 83.88 691.5 83.9 691.16 83.9C690.31 83.9 689.68 83.63 689.63 82.49C689.61 82.18 689.61 81.79 689.61 81.3V71.32H691.07V81.24Z" fill="#221815"/>
<path d="M696.63 81.24C696.63 81.51 696.63 81.8 696.65 82.09C696.68 82.67 696.96 82.86 697.76 82.77V83.83C697.44 83.88 697.06 83.9 696.72 83.9C695.87 83.9 695.24 83.63 695.19 82.49C695.17 82.18 695.17 81.79 695.17 81.3V71.32H696.63V81.24Z" fill="#221815"/>
<path d="M707.73 77.36H713.23V78.55H707.73V83.82H706.27V72.09H713.91V73.28H707.73V77.36Z" fill="#221815"/>
<path d="M725.03 79.32C725.03 81.85 723.62 84.07 720.56 84.07C717.5 84.07 716.09 81.86 716.09 79.32C716.09 76.78 717.5 74.57 720.56 74.57C723.62 74.57 725.03 76.76 725.03 79.32ZM723.43 79.32C723.43 77.19 722.38 75.7 720.55 75.7C718.72 75.7 717.67 77.2 717.67 79.32C717.67 81.44 718.72 82.94 720.55 82.94C722.38 82.94 723.43 81.43 723.43 79.32Z" fill="#221815"/>
<path d="M735.65 83.83H734.19V82.3L733.63 83.35C732.86 83.91 732.2 84.06 731.28 84.06C729.41 84.06 728.32 83 728.12 81.76C728.05 81.3 728.04 80.94 728.04 80.21V74.81H729.5V79.95C729.5 80.24 729.52 80.73 729.57 81.19C729.71 82.21 730.44 82.91 731.66 82.91C733.07 82.91 734.2 81.86 734.2 78.78V74.81H735.66V83.83H735.65Z" fill="#221815"/>
<path d="M743.74 74.73V75.84C742.21 75.74 741.05 76.64 741.05 78.7V83.84H739.59V74.81H741.05V76.22L741.87 75.01C742.24 74.75 742.7 74.6 743.13 74.6C743.37 74.6 743.57 74.63 743.74 74.72V74.73Z" fill="#221815"/>
<path d="M757.53 77.38H756C755.8 76.33 755.15 75.7 754.09 75.7C753.03 75.7 752.59 76.26 752.59 77.04C752.59 77.94 753.34 78.3 754.56 78.62C756.64 79.16 757.62 79.98 757.62 81.51C757.62 83.21 756.17 84.06 754.27 84.06C752.37 84.06 751 83.21 750.73 81.17H752.26C752.5 82.48 753.33 82.94 754.37 82.94C755.34 82.94 756.12 82.5 756.12 81.63C756.12 80.76 755.51 80.3 753.99 79.89C752.37 79.45 751.08 78.78 751.08 77.2C751.08 75.62 752.34 74.56 754.19 74.56C756.21 74.56 757.32 75.72 757.51 77.37L757.53 77.38Z" fill="#221815"/>
<path d="M768.13 79.76H761.6C761.74 82.14 762.86 82.94 764.19 82.94C765.36 82.94 766.32 82.21 766.52 80.92H768.05C767.69 83.1 765.97 84.07 764.12 84.07C761.77 84.07 760.02 82.54 760.02 79.36C760.02 76.43 761.84 74.58 764.31 74.58C766.78 74.58 768.17 76.43 768.17 79.07C768.17 79.21 768.17 79.44 768.14 79.77L768.13 79.76ZM761.61 78.64H766.68C766.54 76.77 765.74 75.7 764.26 75.7C762.78 75.7 761.78 76.72 761.61 78.64Z" fill="#221815"/>
<path d="M776.48 82.54L775.99 83.51C775.38 83.94 774.6 84.07 773.73 84.07C772.1 84.07 770.82 83.17 770.82 81.5C770.82 79.46 772.35 78.4 775.89 78.4H776.47V78.16C776.47 77.77 776.47 77.41 776.44 77.07C776.37 76.24 775.9 75.69 774.69 75.69C773.48 75.69 772.85 76.35 772.75 77.6H771.22C771.36 75.68 772.7 74.57 774.69 74.57C776.83 74.57 777.73 75.47 777.89 76.95C777.92 77.31 777.94 77.75 777.94 78.14V81.53C777.94 82.21 777.97 82.82 778.11 83.83H776.65L776.5 82.54H776.48ZM776.46 80.41V79.49C773.98 79.3 772.41 79.83 772.41 81.38C772.41 82.47 773.11 82.95 774.21 82.95C775.57 82.95 776.46 82.05 776.46 80.42V80.41Z" fill="#221815"/>
<path d="M787.79 77.38H786.26C786.06 76.33 785.41 75.7 784.35 75.7C783.29 75.7 782.85 76.26 782.85 77.04C782.85 77.94 783.6 78.3 784.82 78.62C786.9 79.16 787.88 79.98 787.88 81.51C787.88 83.21 786.43 84.06 784.53 84.06C782.63 84.06 781.26 83.21 780.99 81.17H782.52C782.76 82.48 783.59 82.94 784.63 82.94C785.6 82.94 786.38 82.5 786.38 81.63C786.38 80.76 785.77 80.3 784.25 79.89C782.63 79.45 781.34 78.78 781.34 77.2C781.34 75.62 782.6 74.56 784.45 74.56C786.47 74.56 787.58 75.72 787.77 77.37L787.79 77.38Z" fill="#221815"/>
<path d="M799.22 79.32C799.22 81.85 797.81 84.07 794.75 84.07C791.69 84.07 790.28 81.86 790.28 79.32C790.28 76.78 791.69 74.57 794.75 74.57C797.81 74.57 799.22 76.76 799.22 79.32ZM797.62 79.32C797.62 77.19 796.57 75.7 794.74 75.7C792.91 75.7 791.86 77.2 791.86 79.32C791.86 81.44 792.91 82.94 794.74 82.94C796.57 82.94 797.62 81.43 797.62 79.32Z" fill="#221815"/>
<path d="M809.97 78.76V83.83H808.51V78.86C808.51 78.4 808.51 78.03 808.48 77.57C808.4 76.52 807.82 75.73 806.42 75.73C805.02 75.73 803.82 76.78 803.82 79.86V83.82H802.36V74.81H803.82V76.36L804.38 75.32C805.15 74.72 805.81 74.57 806.73 74.57C808.7 74.57 809.81 75.62 809.94 77.21C809.97 77.67 809.97 78.03 809.97 78.76Z" fill="#221815"/>
<path d="M819.73 77.38H818.2C818 76.33 817.35 75.7 816.29 75.7C815.23 75.7 814.79 76.26 814.79 77.04C814.79 77.94 815.54 78.3 816.76 78.62C818.84 79.16 819.82 79.98 819.82 81.51C819.82 83.21 818.37 84.06 816.47 84.06C814.57 84.06 813.2 83.21 812.93 81.17H814.46C814.7 82.48 815.53 82.94 816.57 82.94C817.54 82.94 818.32 82.5 818.32 81.63C818.32 80.76 817.71 80.3 816.19 79.89C814.57 79.45 813.28 78.78 813.28 77.2C813.28 75.62 814.54 74.56 816.39 74.56C818.41 74.56 819.52 75.72 819.71 77.37L819.73 77.38Z" fill="#221815"/>
<path d="M829.53 73.99V74.87H831.38V75.99H829.53V83.82H828.07V76H827.1V74.88H828.07V74.13C828.07 73.79 828.09 73.35 828.12 73.04C828.27 71.73 829.16 71 830.5 71C830.88 71 831.23 71.03 831.54 71.09V72.29C830.43 72.09 829.7 72.34 829.58 73.07C829.55 73.31 829.53 73.73 829.53 73.99Z" fill="#221815"/>
<path d="M842.49 79.32C842.49 81.85 841.08 84.07 838.02 84.07C834.96 84.07 833.55 81.86 833.55 79.32C833.55 76.78 834.96 74.57 838.02 74.57C841.08 74.57 842.49 76.76 842.49 79.32ZM840.89 79.32C840.89 77.19 839.84 75.7 838.01 75.7C836.18 75.7 835.13 77.2 835.13 79.32C835.13 81.44 836.18 82.94 838.01 82.94C839.84 82.94 840.89 81.43 840.89 79.32Z" fill="#221815"/>
<path d="M849.77 74.73V75.84C848.24 75.74 847.08 76.64 847.08 78.7V83.84H845.62V74.81H847.08V76.22L847.9 75.01C848.27 74.75 848.73 74.6 849.16 74.6C849.4 74.6 849.6 74.63 849.77 74.72V74.73Z" fill="#221815"/>
<path d="M864.99 79.76H858.46C858.6 82.14 859.72 82.94 861.05 82.94C862.22 82.94 863.18 82.21 863.38 80.92H864.91C864.55 83.1 862.83 84.07 860.98 84.07C858.63 84.07 856.88 82.54 856.88 79.36C856.88 76.43 858.7 74.58 861.17 74.58C863.64 74.58 865.03 76.43 865.03 79.07C865.03 79.21 865.03 79.44 865 79.77L864.99 79.76ZM858.47 78.64H863.54C863.4 76.77 862.6 75.7 861.12 75.7C859.64 75.7 858.64 76.72 858.47 78.64Z" fill="#221815"/>
<path d="M872.29 83.83H870.5L867.08 74.81H868.7L871.46 82.76L874.17 74.81H875.72L872.3 83.83H872.29Z" fill="#221815"/>
<path d="M885.65 79.76H879.12C879.26 82.14 880.38 82.94 881.71 82.94C882.88 82.94 883.84 82.21 884.04 80.92H885.57C885.21 83.1 883.49 84.07 881.64 84.07C879.29 84.07 877.54 82.54 877.54 79.36C877.54 76.43 879.36 74.58 881.83 74.58C884.3 74.58 885.69 76.43 885.69 79.07C885.69 79.21 885.69 79.44 885.66 79.77L885.65 79.76ZM879.13 78.64H884.2C884.06 76.77 883.26 75.7 881.78 75.7C880.3 75.7 879.3 76.72 879.13 78.64Z" fill="#221815"/>
<path d="M893.14 74.73V75.84C891.61 75.74 890.45 76.64 890.45 78.7V83.84H888.99V74.81H890.45V76.22L891.27 75.01C891.64 74.75 892.1 74.6 892.53 74.6C892.77 74.6 892.97 74.63 893.14 74.72V74.73Z" fill="#221815"/>
<path d="M899.62 84.59C898.89 86.5 897.92 87.4 896.45 87.4C896.13 87.4 895.92 87.4 895.7 87.37V86.18C895.92 86.2 896.07 86.2 896.23 86.2C897.13 86.2 897.73 85.81 898.19 84.62L898.31 84.3L894.72 74.82H896.37L899.06 82.75L901.73 74.82H903.33L899.62 84.6V84.59Z" fill="#221815"/>
<path d="M914.74 84.59C914.01 86.5 913.04 87.4 911.58 87.4C911.26 87.4 911.05 87.4 910.83 87.37V86.18C911.05 86.2 911.2 86.2 911.36 86.2C912.26 86.2 912.86 85.81 913.32 84.62L913.44 84.3L909.85 74.82H911.5L914.19 82.75L916.86 74.82H918.46L914.75 84.6L914.74 84.59Z" fill="#221815"/>
<path d="M928.39 79.76H921.86C922 82.14 923.12 82.94 924.45 82.94C925.62 82.94 926.58 82.21 926.78 80.92H928.31C927.95 83.1 926.23 84.07 924.38 84.07C922.03 84.07 920.28 82.54 920.28 79.36C920.28 76.43 922.1 74.58 924.57 74.58C927.04 74.58 928.43 76.43 928.43 79.07C928.43 79.21 928.43 79.44 928.4 79.77L928.39 79.76ZM921.87 78.64H926.94C926.8 76.77 926 75.7 924.52 75.7C923.04 75.7 922.04 76.72 921.87 78.64Z" fill="#221815"/>
<path d="M936.74 82.54L936.25 83.51C935.64 83.94 934.86 84.07 933.99 84.07C932.36 84.07 931.08 83.17 931.08 81.5C931.08 79.46 932.61 78.4 936.15 78.4H936.73V78.16C936.73 77.77 936.73 77.41 936.7 77.07C936.63 76.24 936.16 75.69 934.95 75.69C933.74 75.69 933.11 76.35 933.01 77.6H931.48C931.62 75.68 932.96 74.57 934.95 74.57C937.09 74.57 937.99 75.47 938.15 76.95C938.18 77.31 938.2 77.75 938.2 78.14V81.53C938.2 82.21 938.23 82.82 938.37 83.83H936.91L936.76 82.54H936.74ZM936.72 80.41V79.49C934.24 79.3 932.67 79.83 932.67 81.38C932.67 82.47 933.37 82.95 934.47 82.95C935.83 82.95 936.72 82.05 936.72 80.42V80.41Z" fill="#221815"/>
<path d="M946.27 74.73V75.84C944.74 75.74 943.58 76.64 943.58 78.7V83.84H942.12V74.81H943.58V76.22L944.4 75.01C944.77 74.75 945.23 74.6 945.66 74.6C945.9 74.6 946.1 74.63 946.27 74.72V74.73Z" fill="#221815"/>
<path d="M950.64 82.98C950.64 83.61 950.18 84.07 949.55 84.07C948.92 84.07 948.46 83.61 948.46 82.98C948.46 82.35 948.92 81.89 949.55 81.89C950.18 81.89 950.64 82.35 950.64 82.98Z" fill="#221815"/>
<path d="M71.66 27.6V30.42H53V28.45L63.07 18.17C66.33 14.83 67.91 12.81 67.91 10.11C67.91 7.24999 66.26 4.78999 62.91 4.78999C59.32 4.78999 57.59 7.00999 57.19 10.92L57.15 11.32H53.68L53.72 10.92C54.29 5.10999 57.76 2.04999 63.32 2.04999C68.88 2.04999 71.78 5.55999 71.78 9.70999C71.78 13.5 69.72 16.08 65.01 20.71L58.04 27.6H71.66Z" fill="#221815"/>
<path d="M101.11 22.68C101.11 27.88 96.4 30.98 91.04 30.98C85.68 30.98 82.05 28.6 81.45 22.6L81.41 22.2H84.88L84.92 22.6C85.32 26.51 87.98 28.24 91.37 28.24C94.76 28.24 97.25 26.27 97.25 22.88C97.25 19.49 95.15 17.76 90.64 17.76H89.95V14.94H90.64C93.94 14.94 96.6 13.01 96.6 9.50001C96.6 6.72001 94.63 4.78001 91.68 4.78001C88.73 4.78001 86.36 6.55001 86 10.22L85.96 10.62H82.49L82.53 10.22C83.05 5.18001 86.48 2.04001 92.12 2.04001C97.24 2.04001 100.46 4.90001 100.46 9.09001C100.46 12.27 98.45 14.77 95.54 15.62C98.97 16.59 101.1 19.05 101.1 22.67L101.11 22.68Z" fill="#221815"/>
<path d="M128.84 16.07C128.84 19.54 127.39 21.43 124.41 21.43C122.84 21.43 121.83 20.91 119.74 19.78C118.25 18.97 117.08 18.37 115.95 18.37C114.42 18.37 113.98 19.54 113.98 21.43H111.72C111.72 17.96 113.17 16.07 116.15 16.07C117.72 16.07 118.73 16.59 120.82 17.72C122.31 18.53 123.48 19.13 124.61 19.13C126.14 19.13 126.58 17.96 126.58 16.07H128.84Z" fill="#221815"/>
<path d="M156.2 23.41V30.42H152.73V23.41H138.95V21.68L152.73 2.60999H156.2V20.59H159.71V23.41H156.2ZM152.73 7.24999C152.09 8.33999 151.36 9.50999 150.43 10.8L143.34 20.59H152.73V7.24999Z" fill="#221815"/>
<path d="M187.71 27.6V30.42H169.05V28.45L179.12 18.17C182.38 14.83 183.96 12.81 183.96 10.11C183.96 7.24999 182.31 4.78999 178.96 4.78999C175.37 4.78999 173.64 7.00999 173.24 10.92L173.2 11.32H169.73L169.77 10.92C170.33 5.11999 173.8 2.04999 179.36 2.04999C184.92 2.04999 187.82 5.55999 187.82 9.70999C187.82 13.5 185.76 16.08 181.05 20.71L174.08 27.6H187.7H187.71Z" fill="#221815"/>
<path d="M200.19 13.33V6.04999H202.12V13.33H205.29V15.27H202.12V24.49C203.25 24.1 204.32 23.66 205.4 23.16V25.16C202.82 26.3 200.05 27.27 197.1 28.05L196.62 26.05C197.83 25.77 199.01 25.47 200.19 25.13V15.27H196.86V13.33H200.19ZM220.67 7.27999V9.16999H214.3V19.64H221.47V21.56H214.3V31.56H212.42V21.56H205.35V19.64H212.42V9.15999H206.11V7.26999H220.67V7.27999ZM210.22 17.83L208.55 18.25C208.04 15.83 207.37 13.5 206.56 11.28L208.23 10.72C208.98 12.78 209.63 15.16 210.22 17.83ZM219.97 11.03C219.41 13.72 218.68 16.08 217.82 18.11L216.18 17.5C216.99 15.67 217.68 13.36 218.28 10.56L219.97 11.03Z" fill="#221815"/>
<path d="M242.03 32.53H239.83V0H242.03V32.53Z" fill="#D08421"/>
<path d="M280.89 27.6V30.42H262.23V28.45L272.3 18.17C275.56 14.83 277.14 12.81 277.14 10.11C277.14 7.24999 275.49 4.78999 272.14 4.78999C268.55 4.78999 266.82 7.00999 266.42 10.92L266.38 11.32H262.91L262.95 10.92C263.51 5.11999 266.98 2.04999 272.54 2.04999C278.1 2.04999 281 5.55999 281 9.70999C281 13.5 278.94 16.08 274.23 20.71L267.26 27.6H280.88H280.89Z" fill="#221815"/>
<path d="M309.06 16.07C309.06 19.54 307.61 21.43 304.63 21.43C303.06 21.43 302.05 20.91 299.96 19.78C298.47 18.97 297.3 18.37 296.17 18.37C294.64 18.37 294.2 19.54 294.2 21.43H291.94C291.94 17.96 293.39 16.07 296.37 16.07C297.94 16.07 298.95 16.59 301.04 17.72C302.53 18.53 303.7 19.13 304.83 19.13C306.36 19.13 306.8 17.96 306.8 16.07H309.06Z" fill="#221815"/>
<path d="M336.42 23.41V30.42H332.95V23.41H319.17V21.68L332.95 2.62H336.42V20.59H339.93V23.41H336.42ZM332.95 7.25C332.31 8.34 331.58 9.51 330.65 10.8L323.56 20.59H332.95V7.25Z" fill="#221815"/>
<path d="M370.58 7.49C365.29 8.24 359.32 8.68 352.66 8.8V10.41H370.61V16.41H352.66V16.66C352.55 22.52 351.5 27.19 349.54 30.68L348.14 29.15C349.81 26.15 350.72 21.99 350.85 16.65V7.24C357.84 7.18 364.15 6.74 369.74 5.91L370.57 7.49H370.58ZM353.79 21.21V19.46H361.5C361.18 18.71 360.86 18.02 360.51 17.4L362.53 17.07C362.85 17.76 363.17 18.57 363.5 19.46H371.72V21.21H360C359.95 22.02 359.84 22.77 359.68 23.49H369.76C369.65 27.04 369.46 29.13 369.22 29.74C369.01 30.35 368.55 30.74 367.85 30.96C367.15 31.15 365.67 31.27 363.42 31.27H362.94L362.4 29.47C362.91 29.5 363.42 29.53 363.93 29.53C365.38 29.53 366.29 29.45 366.72 29.31C367.1 29.14 367.36 28.92 367.5 28.59C367.58 28.23 367.69 27.12 367.82 25.28H359.14C358.12 27.89 356.24 29.92 353.55 31.36L352.53 29.69C355.94 27.97 357.8 25.16 358.09 21.22H353.79V21.21ZM368.73 14.68V12.13H352.66V14.68H368.73Z" fill="#221815"/>
<path d="M393.24 32.53H391.04V0H393.24V32.53Z" fill="#D68F41"/>
<path d="M424.78 21.62C424.78 26.72 423.27 30.78 418.43 30.78C413.59 30.78 412.08 26.72 412.08 21.62C412.08 16.52 413.59 12.46 418.43 12.46C423.27 12.46 424.78 16.49 424.78 21.62ZM422.33 21.62C422.33 17 421.23 14.2 418.43 14.2C415.63 14.2 414.53 17.01 414.53 21.62C414.53 26.23 415.63 29.04 418.43 29.04C421.23 29.04 422.33 26.21 422.33 21.62Z" fill="#221815"/>
<path d="M442.94 24.5C442.94 28.25 440.29 30.78 436.71 30.78C432.78 30.78 430.48 28.31 430.48 22.46C430.48 15.37 433.67 12.46 437.29 12.46C440.3 12.46 442.44 14.32 442.72 17.21L442.75 17.46H440.4L440.35 17.21C439.94 15.22 438.9 14.2 437.11 14.2C434.74 14.2 433.05 16.11 432.87 21.24L433.87 19.66C434.81 18.87 435.81 18.54 437.08 18.54C440.75 18.54 442.92 21.01 442.92 24.51L442.94 24.5ZM440.49 24.76C440.49 22.31 439.39 20.27 436.71 20.27C434.72 20.27 433.04 21.78 433.04 24.71C433.04 27.16 434.49 29.05 436.71 29.05C438.93 29.05 440.49 27.32 440.49 24.76Z" fill="#221815"/>
<path d="M477.66 28.04V30.42H461.91V28.75L470.41 20.08C473.16 17.26 474.49 15.56 474.49 13.28C474.49 10.87 473.1 8.79001 470.27 8.79001C467.24 8.79001 465.78 10.66 465.44 13.96L465.41 14.3H462.49L462.52 13.96C463 9.06001 465.92 6.48001 470.61 6.48001C475.3 6.48001 477.75 9.44001 477.75 12.94C477.75 16.14 476.02 18.31 472.04 22.23L466.16 28.05H477.66V28.04Z" fill="#221815"/>
<path d="M502.15 28.04V30.42H486.4V28.75L494.9 20.08C497.65 17.26 498.98 15.56 498.98 13.28C498.98 10.87 497.59 8.79001 494.76 8.79001C491.73 8.79001 490.27 10.66 489.93 13.96L489.9 14.3H486.98L487.01 13.96C487.49 9.06001 490.41 6.48001 495.1 6.48001C499.79 6.48001 502.24 9.44001 502.24 12.94C502.24 16.14 500.5 18.31 496.53 22.23L490.65 28.05H502.15V28.04Z" fill="#221815"/>
<path d="M527.12 22.8C527.12 27.97 523.11 30.89 518.75 30.89C514.02 30.89 511.27 28.61 510.83 24.19L510.8 23.85H513.72L513.79 24.19C514.33 26.88 515.8 28.58 518.72 28.58C521.82 28.58 523.86 26.54 523.86 23C523.86 19.46 521.99 17.25 518.86 17.25C516.68 17.25 515.12 18.17 513.96 20.58H511.17L512.8 6.94H526.13V9.32H515.18L514.13 17.48L515.59 15.92C516.71 15.24 517.87 14.93 519.3 14.93C524.54 14.93 527.12 18.33 527.12 22.79V22.8Z" fill="#221815"/>
<path d="M551.4 22.53C551.4 27.53 547.86 30.9 543.1 30.9C537.86 30.9 534.8 27.6 534.8 19.81C534.8 10.35 539.05 6.48001 543.88 6.48001C547.89 6.48001 550.75 8.96001 551.12 12.81L551.15 13.15H548.02L547.95 12.81C547.41 10.16 546.01 8.80001 543.63 8.80001C540.47 8.80001 538.22 11.35 537.98 18.19L539.31 16.08C540.57 15.03 541.9 14.58 543.6 14.58C548.5 14.58 551.39 17.88 551.39 22.54L551.4 22.53ZM548.13 22.87C548.13 19.6 546.67 16.88 543.1 16.88C540.45 16.88 538.2 18.89 538.2 22.8C538.2 26.07 540.14 28.58 543.1 28.58C546.06 28.58 548.13 26.27 548.13 22.87Z" fill="#221815"/>
<path d="M575.89 22.53C575.89 27.53 572.35 30.9 567.59 30.9C562.35 30.9 559.29 27.6 559.29 19.81C559.29 10.35 563.54 6.48001 568.37 6.48001C572.38 6.48001 575.24 8.96001 575.61 12.81L575.64 13.15H572.51L572.44 12.81C571.9 10.16 570.5 8.80001 568.12 8.80001C564.96 8.80001 562.71 11.35 562.47 18.19L563.8 16.08C565.06 15.03 566.39 14.58 568.09 14.58C572.99 14.58 575.88 17.88 575.88 22.54L575.89 22.53ZM572.62 22.87C572.62 19.6 571.16 16.88 567.59 16.88C564.94 16.88 562.69 18.89 562.69 22.8C562.69 26.07 564.63 28.58 567.59 28.58C570.55 28.58 572.62 26.27 572.62 22.87Z" fill="#221815"/>
<path d="M600.55 23.85C600.55 28.99 596.3 30.92 592.18 30.92C587.72 30.92 583.81 28.98 583.81 23.85C583.81 21.03 585.95 18.82 588.47 18.03C586.36 17.21 584.83 15.34 584.83 12.79C584.83 8.90999 587.79 6.45999 592.38 6.45999C596.97 6.45999 599.93 8.90999 599.93 12.79C599.93 15.38 598.23 17.21 596.05 17.99C598.57 18.81 600.54 21.02 600.54 23.84L600.55 23.85ZM597.28 23.99C597.28 21.58 595.85 19.4 592.21 19.4C588.57 19.4 587.07 21.58 587.07 23.99C587.07 26.68 588.8 28.62 592.24 28.62C595.68 28.62 597.27 26.68 597.27 23.99H597.28ZM587.99 12.9C587.99 15.28 589.42 17.08 592.34 17.08C595.26 17.08 596.76 15.28 596.76 12.9C596.76 10.66 595.33 8.77999 592.37 8.77999C589.41 8.77999 587.98 10.65 587.98 12.9H587.99Z" fill="#221815"/>
<path d="M625.04 23.85C625.04 28.99 620.79 30.92 616.67 30.92C612.22 30.92 608.3 28.98 608.3 23.85C608.3 21.03 610.44 18.82 612.96 18.03C610.85 17.21 609.32 15.34 609.32 12.79C609.32 8.90999 612.28 6.45999 616.87 6.45999C621.46 6.45999 624.42 8.90999 624.42 12.79C624.42 15.38 622.72 17.21 620.54 17.99C623.06 18.81 625.03 21.02 625.03 23.84L625.04 23.85ZM621.77 23.99C621.77 21.58 620.34 19.4 616.7 19.4C613.06 19.4 611.56 21.58 611.56 23.99C611.56 26.68 613.29 28.62 616.73 28.62C620.17 28.62 621.76 26.68 621.76 23.99H621.77ZM612.48 12.9C612.48 15.28 613.91 17.08 616.83 17.08C619.75 17.08 621.25 15.28 621.25 12.9C621.25 10.66 619.82 8.77999 616.86 8.77999C613.9 8.77999 612.47 10.65 612.47 12.9H612.48Z" fill="#221815"/>
<path d="M648.14 32.53H645.94V0H648.14V32.53Z" fill="#D68F41"/>
<path d="M687.45 14.38L687.42 14.68H684.07V14.38C684.07 11.09 682.37 9.75 679.17 9.75C674.57 9.75 671.38 14.13 671.38 20.04C671.38 24.45 673.39 26.49 676.46 26.49C679.53 26.49 681.54 24.63 682.61 21.8L682.73 21.5H686.08L685.99 21.8C684.77 26.12 681.42 29.05 675.95 29.05C670.48 29.05 667.7 25.73 667.73 20.37C667.7 12.76 672.84 7.19 679.63 7.19C685.11 7.19 687.76 10.23 687.45 14.37V14.38Z" fill="#D08421"/>
<path d="M709.86 19.19C709.86 23.76 706.97 29.05 700.39 29.05C695.31 29.05 693.21 25.73 693.21 21.9C693.21 17.33 696.1 12.04 702.71 12.04C707.76 12.04 709.86 15.36 709.86 19.19ZM706.27 19.25C706.27 16.6 705.08 14.47 702.34 14.47C698.69 14.47 696.8 18.28 696.8 21.81C696.8 24.49 698.02 26.62 700.73 26.62C704.41 26.62 706.27 22.78 706.27 19.25Z" fill="#D08421"/>
<path d="M740.51 15.93C740.51 16.78 740.39 17.51 740.14 18.85L738.44 28.62H735.09L736.61 20.07C736.82 18.73 736.98 17.76 736.98 16.93C736.98 15.32 736.1 14.49 734.52 14.49C732.66 14.49 730.87 16.71 730.2 20.21L730.14 20.48L728.71 28.61H725.39L726.88 20.06C727.12 18.69 727.28 17.75 727.28 16.92C727.28 15.31 726.37 14.48 724.75 14.48C722.83 14.48 721.07 16.79 720.43 20.48L719 28.61H715.65L718.48 12.45H721.83L721.43 14.76L722.83 12.96C723.83 12.29 724.99 12.02 726.45 12.02C728.98 12.02 730.35 13.27 730.68 15L732.42 13.02C733.45 12.29 734.64 12.02 736.1 12.02C739.11 12.02 740.51 13.72 740.51 15.92V15.93Z" fill="#D08421"/>
<path d="M746.79 28.63L749.65 12.47H753L750.14 28.63H746.79ZM754.04 8.45C754.04 9.64 753.13 10.7 751.76 10.7C750.72 10.7 750.05 10.03 750.05 9.06C750.05 7.87 750.99 6.84 752.33 6.84C753.37 6.84 754.04 7.51 754.04 8.45Z" fill="#D08421"/>
<path d="M774.98 16.18C774.98 17.03 774.92 17.67 774.58 19.47L772.94 28.63H769.62L771.17 19.92C771.41 18.61 771.5 17.82 771.5 17.18C771.5 15.6 770.74 14.47 768.61 14.5C766.27 14.56 764.1 16.36 763.19 21.41L761.94 28.62H758.59L761.42 12.46H764.77L764.31 15.08L765.74 13.28C767.2 12.31 768.45 12.03 770.03 12.03C773.35 12.03 774.96 13.67 774.96 16.17L774.98 16.18Z" fill="#D08421"/>
<path d="M796.99 24.61C796.81 25.61 796.59 26.86 796.41 27.75C795.37 32.65 792.33 35.12 787 35.12C782.8 35.12 780.21 33.17 780.49 29.7L780.52 29.4H783.84L783.81 29.67C783.72 31.41 785 32.59 787.49 32.59C790.41 32.59 792.36 31.01 793 28.11C793.12 27.41 793.27 26.83 793.37 26.25L793.4 26.04L791.85 27.81C790.85 28.54 789.14 29.03 787.5 29.03C783.48 29.03 781.38 26.26 781.38 22.52C781.38 17.41 784.49 12.05 790.97 12.05C792.31 12.05 793.92 12.54 794.62 13.24L795.38 14.88L795.81 12.48H799.16L797 24.63L796.99 24.61ZM794.34 20.71V20.77L794.49 19.83V19.86C794.95 17.09 793.97 14.47 790.81 14.47C787.13 14.47 784.97 18.31 784.97 22.2C784.97 24.88 786.22 26.55 788.62 26.55C791.02 26.55 793.58 25 794.34 20.71Z" fill="#D08421"/>
<path d="M831.39 13.59H827.92C828.1 11.19 826.76 9.74999 824.33 9.74999C822.08 9.74999 820.4 11 820.4 13.22C820.4 14.86 821.56 15.72 824.33 16.39C828.2 17.33 830.11 19.07 830.11 22.11C830.11 26.43 826.28 29.05 821.43 29.05C816.93 29.05 813.97 26.77 814.28 22.54H817.75C817.84 25.13 819.42 26.5 821.89 26.5C824.36 26.5 826.46 25.13 826.46 22.73C826.46 20.99 825.24 19.99 822.38 19.26C819 18.41 816.75 17.04 816.75 14.12C816.75 9.76999 820.52 7.20999 824.88 7.20999C829.54 7.20999 831.61 9.94999 831.39 13.6V13.59Z" fill="#D08421"/>
<path d="M853.19 19.19C853.19 23.76 850.3 29.05 843.72 29.05C838.64 29.05 836.54 25.73 836.54 21.9C836.54 17.33 839.43 12.04 846.04 12.04C851.09 12.04 853.19 15.36 853.19 19.19ZM849.6 19.25C849.6 16.6 848.41 14.47 845.67 14.47C842.02 14.47 840.13 18.28 840.13 21.81C840.13 24.49 841.35 26.62 844.06 26.62C847.74 26.62 849.6 22.78 849.6 19.25Z" fill="#D08421"/>
<path d="M875.75 19.19C875.75 23.76 872.86 29.05 866.28 29.05C861.2 29.05 859.1 25.73 859.1 21.9C859.1 17.33 861.99 12.04 868.6 12.04C873.65 12.04 875.75 15.36 875.75 19.19ZM872.16 19.25C872.16 16.6 870.97 14.47 868.23 14.47C864.58 14.47 862.69 18.28 862.69 21.81C862.69 24.49 863.91 26.62 866.62 26.62C870.3 26.62 872.16 22.78 872.16 19.25Z" fill="#D08421"/>
<path d="M897.92 16.18C897.92 17.03 897.86 17.67 897.52 19.47L895.88 28.63H892.56L894.11 19.92C894.35 18.61 894.44 17.82 894.44 17.18C894.44 15.6 893.68 14.47 891.55 14.5C889.21 14.56 887.05 16.36 886.13 21.41L884.88 28.62H881.53L884.36 12.46H887.71L887.25 15.08L888.68 13.28C890.14 12.31 891.39 12.03 892.97 12.03C896.29 12.03 897.9 13.67 897.9 16.17L897.92 16.18Z" fill="#D08421"/>
</svg>
