<svg width="289" height="238" viewBox="0 0 289 238" fill="none" xmlns="http://www.w3.org/2000/svg">
<path d="M5.21 214.27C5.21 215.95 4.28 217.14 2.6 217.14C0.92 217.14 0 215.95 0 214.27C0 212.59 0.93 211.4 2.61 211.4C4.29 211.4 5.22 212.58 5.22 214.27H5.21ZM4.44 214.27C4.44 212.83 3.76 211.94 2.6 211.94C1.44 211.94 0.77 212.83 0.77 214.27C0.77 215.71 1.45 216.6 2.61 216.6C3.77 216.6 4.45 215.7 4.45 214.27H4.44Z" fill="#221815"/>
<path d="M10.3302 214.65V217.03H9.64023V214.69C9.64023 214.47 9.64023 214.3 9.62023 214.08C9.58023 213.58 9.31023 213.22 8.65023 213.22C7.99023 213.22 7.43023 213.72 7.43023 215.16V217.02H6.74023V212.79H7.43023V213.52L7.69023 213.03C8.05023 212.75 8.36023 212.68 8.79023 212.68C9.72023 212.68 10.2402 213.18 10.3002 213.92C10.3202 214.14 10.3202 214.3 10.3202 214.65H10.3302Z" fill="#221815"/>
<path d="M15.5998 215.12H12.5298C12.5898 216.24 13.1198 216.62 13.7498 216.62C14.2998 216.62 14.7498 216.28 14.8398 215.67H15.5598C15.3898 216.69 14.5798 217.15 13.7098 217.15C12.6098 217.15 11.7798 216.43 11.7798 214.94C11.7798 213.56 12.6398 212.69 13.7898 212.69C14.9398 212.69 15.5998 213.56 15.5998 214.8C15.5998 214.86 15.5998 214.98 15.5798 215.13L15.5998 215.12ZM12.5398 214.59H14.9198C14.8598 213.71 14.4798 213.21 13.7898 213.21C13.0998 213.21 12.6198 213.69 12.5398 214.59Z" fill="#221815"/>
<path d="M23.1198 214.65V217.03H22.4298V214.69C22.4298 214.47 22.4298 214.3 22.4098 214.08C22.3698 213.58 22.0998 213.2 21.4398 213.22C20.7798 213.24 20.2198 213.72 20.2198 215.16V217.02H19.5298V211.11H20.2198V213.52L20.4798 213.03C20.8398 212.75 21.1498 212.68 21.5798 212.68C22.5098 212.68 23.0298 213.18 23.0898 213.92C23.1098 214.14 23.1098 214.3 23.1098 214.65H23.1198Z" fill="#221815"/>
<path d="M27.2801 216.42L27.0501 216.88C26.7601 217.08 26.3901 217.14 25.9901 217.14C25.2201 217.14 24.6201 216.72 24.6201 215.93C24.6201 214.97 25.3401 214.47 27.0001 214.47H27.2701V214.36C27.2701 214.18 27.2701 214.01 27.2501 213.85C27.2201 213.46 26.9901 213.2 26.4301 213.2C25.8701 213.2 25.5701 213.51 25.5201 214.1H24.8001C24.8601 213.2 25.5001 212.68 26.4301 212.68C27.4401 212.68 27.8601 213.1 27.9301 213.8C27.9501 213.97 27.9501 214.18 27.9501 214.36V215.95C27.9501 216.27 27.9701 216.56 28.0301 217.03H27.3401L27.2701 216.42H27.2801ZM27.2801 215.42V214.99C26.1101 214.9 25.3801 215.15 25.3801 215.88C25.3801 216.39 25.7101 216.62 26.2301 216.62C26.8701 216.62 27.2901 216.2 27.2901 215.43L27.2801 215.42Z" fill="#221815"/>
<path d="M33.8601 214.85C33.8601 216.42 32.8801 217.14 31.7901 217.14C31.4401 217.14 30.9901 217.04 30.7801 216.86L30.5001 216.44V218.59H29.8101V212.79H30.5001V213.47L30.8201 213.01C31.0601 212.81 31.5101 212.67 31.9401 212.67C33.1801 212.67 33.8701 213.6 33.8701 214.84L33.8601 214.85ZM33.1101 214.93C33.1101 213.97 32.6801 213.21 31.8301 213.21C31.1301 213.21 30.5001 213.66 30.5001 214.87V215.1C30.5001 216.2 31.1901 216.61 31.7901 216.61C32.5301 216.61 33.1101 216.03 33.1101 214.92V214.93Z" fill="#221815"/>
<path d="M39.3898 214.85C39.3898 216.42 38.4098 217.14 37.3198 217.14C36.9698 217.14 36.5198 217.04 36.3098 216.86L36.0298 216.44V218.59H35.3398V212.79H36.0298V213.47L36.3498 213.01C36.5898 212.81 37.0398 212.67 37.4698 212.67C38.7098 212.67 39.3998 213.6 39.3998 214.84L39.3898 214.85ZM38.6398 214.93C38.6398 213.97 38.2098 213.21 37.3598 213.21C36.6598 213.21 36.0198 213.66 36.0198 214.87V215.1C36.0198 216.2 36.7098 216.61 37.3098 216.61C38.0498 216.61 38.6298 216.03 38.6298 214.92L38.6398 214.93Z" fill="#221815"/>
<path d="M42.5798 217.39C42.2398 218.29 41.7798 218.71 41.0898 218.71C40.9398 218.71 40.8398 218.71 40.7398 218.69V218.13C40.8398 218.13 40.9198 218.13 40.9898 218.13C41.4098 218.13 41.6898 217.95 41.9098 217.39L41.9698 217.24L40.2798 212.79H41.0598L42.3198 216.52L43.5698 212.79H44.3198L42.5798 217.39Z" fill="#221815"/>
<path d="M48.6299 215.81C48.6299 215.94 48.6299 216.07 48.6299 216.21C48.6499 216.48 48.7699 216.57 49.1499 216.53V217.03C48.9999 217.05 48.8199 217.06 48.6599 217.06C48.2599 217.06 47.9599 216.93 47.9399 216.4C47.9399 216.26 47.9399 216.07 47.9399 215.84V211.15H48.6299V215.81Z" fill="#221815"/>
<path d="M51.3702 211.84C51.3702 212.09 51.1802 212.28 50.9302 212.28C50.6802 212.28 50.4902 212.09 50.4902 211.84C50.4902 211.59 50.6802 211.4 50.9302 211.4C51.1802 211.4 51.3702 211.59 51.3702 211.84ZM50.5902 217.03V212.79H51.2802V217.03H50.5902Z" fill="#221815"/>
<path d="M53.8502 212.41V212.83H54.7202V213.36H53.8502V217.04H53.1602V213.35H52.7002V212.82H53.1602V212.47C53.1602 212.31 53.1602 212.1 53.1802 211.96C53.2502 211.34 53.6702 211 54.3002 211C54.4802 211 54.6402 211.02 54.7902 211.04V211.61C54.2702 211.51 53.9302 211.63 53.8702 211.98C53.8502 212.09 53.8502 212.29 53.8502 212.41Z" fill="#221815"/>
<path d="M59.5602 215.12H56.4902C56.5502 216.24 57.0802 216.62 57.7102 216.62C58.2602 216.62 58.7102 216.28 58.8002 215.67H59.5202C59.3502 216.69 58.5402 217.15 57.6702 217.15C56.5702 217.15 55.7402 216.43 55.7402 214.94C55.7402 213.56 56.6002 212.69 57.7502 212.69C58.9002 212.69 59.5602 213.56 59.5602 214.8C59.5602 214.86 59.5602 214.98 59.5402 215.13L59.5602 215.12ZM56.5002 214.59H58.8802C58.8202 213.71 58.4402 213.21 57.7402 213.21C57.0402 213.21 56.5702 213.69 56.4902 214.59H56.5002Z" fill="#221815"/>
<path d="M67.7802 217.03H66.9602L66.0202 213.46L65.0802 217.03H64.2602L62.9102 212.79H63.7002L64.6802 216.37L65.6102 212.79H66.4702L67.4102 216.35L68.3902 212.79H69.1302L67.7802 217.03Z" fill="#221815"/>
<path d="M71.1998 211.84C71.1998 212.09 71.0098 212.28 70.7598 212.28C70.5098 212.28 70.3198 212.09 70.3198 211.84C70.3198 211.59 70.5098 211.4 70.7598 211.4C71.0098 211.4 71.1998 211.59 71.1998 211.84ZM70.4198 217.03V212.79H71.1098V217.03H70.4198Z" fill="#221815"/>
<path d="M73.7798 215.79C73.7798 215.93 73.7798 216.01 73.7798 216.12C73.8098 216.53 73.9798 216.62 74.5198 216.55V217.05C74.3198 217.08 74.1298 217.09 73.9398 217.09C73.4098 217.09 73.1398 216.87 73.0998 216.35C73.0998 216.24 73.0998 216.06 73.0998 215.82V213.35H72.5298V212.82H73.0998V211.84H73.7898V212.82H74.5798V213.35H73.7898V215.79H73.7798Z" fill="#221815"/>
<path d="M79.6798 214.65V217.03H78.9898V214.69C78.9898 214.47 78.9898 214.3 78.9698 214.08C78.9298 213.58 78.6598 213.2 77.9998 213.22C77.3398 213.24 76.7798 213.72 76.7798 215.16V217.02H76.0898V211.11H76.7798V213.52L77.0398 213.03C77.3998 212.75 77.7098 212.68 78.1398 212.68C79.0698 212.68 79.5898 213.18 79.6498 213.92C79.6698 214.14 79.6698 214.3 79.6698 214.65H79.6798Z" fill="#221815"/>
<path d="M84.5002 217.4C84.5002 217.56 84.5002 217.77 84.4802 217.91C84.4202 218.42 84.1402 218.71 83.4902 218.71C83.3602 218.71 83.2702 218.71 83.1602 218.69V218.13C83.6002 218.17 83.7702 218.03 83.8002 217.78C83.8202 217.67 83.8202 217.55 83.8202 217.43V212.79H84.5102V217.4H84.5002ZM84.6002 211.84C84.6002 212.09 84.4102 212.28 84.1602 212.28C83.9102 212.28 83.7202 212.09 83.7202 211.84C83.7202 211.59 83.9102 211.4 84.1602 211.4C84.4102 211.4 84.6002 211.59 84.6002 211.84Z" fill="#221815"/>
<path d="M89.8798 217.03H89.1898V216.31L88.9298 216.81C88.5698 217.07 88.2598 217.15 87.8298 217.15C86.9498 217.15 86.4398 216.65 86.3398 216.07C86.3098 215.85 86.2998 215.69 86.2998 215.34V212.79H86.9898V215.2C86.9898 215.34 86.9898 215.57 87.0198 215.78C87.0798 216.26 87.4298 216.59 87.9998 216.59C88.6598 216.59 89.1898 216.09 89.1898 214.65V212.79H89.8798V217.03Z" fill="#221815"/>
<path d="M94.5201 214H93.8001C93.7001 213.5 93.4001 213.21 92.9001 213.21C92.4001 213.21 92.2001 213.47 92.2001 213.84C92.2001 214.26 92.5501 214.43 93.1301 214.58C94.1101 214.84 94.5701 215.22 94.5701 215.94C94.5701 216.74 93.8901 217.14 92.9901 217.14C92.0901 217.14 91.4501 216.74 91.3301 215.78H92.0501C92.1601 216.4 92.5501 216.61 93.0401 216.61C93.5001 216.61 93.8601 216.4 93.8601 215.99C93.8601 215.58 93.5701 215.37 92.8601 215.17C92.1001 214.96 91.4901 214.65 91.4901 213.91C91.4901 213.17 92.0801 212.67 92.9501 212.67C93.9001 212.67 94.4201 213.21 94.5101 213.99L94.5201 214Z" fill="#221815"/>
<path d="M96.8701 215.79C96.8701 215.93 96.8701 216.01 96.8701 216.12C96.9001 216.53 97.0701 216.62 97.6101 216.55V217.05C97.4101 217.08 97.2201 217.09 97.0301 217.09C96.5001 217.09 96.2301 216.87 96.1901 216.35C96.1901 216.24 96.1901 216.06 96.1901 215.82V213.35H95.6201V212.82H96.1901V211.84H96.8801V212.82H97.6701V213.35H96.8801V215.79H96.8701Z" fill="#221815"/>
<path d="M103.89 212.07V217.03H103.2V212.07H101.23V211.51H105.85V212.07H103.88H103.89Z" fill="#221815"/>
<path d="M111.38 217.03H110.56L109.62 213.46L108.68 217.03H107.86L106.51 212.79H107.3L108.28 216.37L109.21 212.79H110.07L111.01 216.35L111.99 212.79H112.73L111.38 217.03Z" fill="#221815"/>
<path d="M117.87 214.91C117.87 216.1 117.21 217.14 115.77 217.14C114.33 217.14 113.67 216.1 113.67 214.91C113.67 213.72 114.33 212.68 115.77 212.68C117.21 212.68 117.87 213.71 117.87 214.91ZM117.12 214.91C117.12 213.91 116.62 213.21 115.77 213.21C114.92 213.21 114.42 213.91 114.42 214.91C114.42 215.91 114.92 216.61 115.77 216.61C116.62 216.61 117.12 215.9 117.12 214.91Z" fill="#221815"/>
<path d="M125.56 214.91C125.56 216.1 124.9 217.14 123.46 217.14C122.02 217.14 121.36 216.1 121.36 214.91C121.36 213.72 122.02 212.68 123.46 212.68C124.9 212.68 125.56 213.71 125.56 214.91ZM124.81 214.91C124.81 213.91 124.31 213.21 123.46 213.21C122.61 213.21 122.11 213.91 122.11 214.91C122.11 215.91 122.61 216.61 123.46 216.61C124.31 216.61 124.81 215.9 124.81 214.91Z" fill="#221815"/>
<path d="M127.76 212.41V212.83H128.63V213.36H127.76V217.04H127.07V213.35H126.61V212.82H127.07V212.47C127.07 212.31 127.07 212.1 127.09 211.96C127.16 211.34 127.58 211 128.21 211C128.39 211 128.55 211.02 128.7 211.04V211.61C128.18 211.51 127.84 211.63 127.78 211.98C127.76 212.09 127.76 212.29 127.76 212.41Z" fill="#221815"/>
<path d="M135.88 217.03H135.19V216.31L134.93 216.81C134.57 217.07 134.26 217.15 133.83 217.15C132.95 217.15 132.44 216.65 132.34 216.07C132.31 215.85 132.3 215.69 132.3 215.34V212.79H132.99V215.2C132.99 215.34 132.99 215.57 133.02 215.78C133.08 216.26 133.43 216.59 134 216.59C134.66 216.59 135.19 216.09 135.19 214.65V212.79H135.88V217.03Z" fill="#221815"/>
<path d="M140.53 214H139.81C139.71 213.5 139.41 213.21 138.91 213.21C138.41 213.21 138.21 213.47 138.21 213.84C138.21 214.26 138.56 214.43 139.14 214.58C140.12 214.84 140.58 215.22 140.58 215.94C140.58 216.74 139.9 217.14 139.01 217.14C138.12 217.14 137.47 216.74 137.35 215.78H138.07C138.18 216.4 138.57 216.61 139.06 216.61C139.51 216.61 139.88 216.4 139.88 215.99C139.88 215.58 139.59 215.37 138.88 215.17C138.12 214.96 137.51 214.65 137.51 213.91C137.51 213.17 138.1 212.67 138.97 212.67C139.92 212.67 140.44 213.21 140.53 213.99V214Z" fill="#221815"/>
<path d="M148 214.65V217.03H147.31V214.69C147.31 214.47 147.31 214.3 147.29 214.08C147.25 213.58 146.98 213.2 146.32 213.22C145.66 213.24 145.1 213.72 145.1 215.16V217.02H144.41V211.11H145.1V213.52L145.36 213.03C145.72 212.75 146.03 212.68 146.46 212.68C147.39 212.68 147.91 213.18 147.97 213.92C147.99 214.14 147.99 214.3 147.99 214.65H148Z" fill="#221815"/>
<path d="M152.17 216.42L151.94 216.88C151.65 217.08 151.28 217.14 150.88 217.14C150.11 217.14 149.51 216.72 149.51 215.93C149.51 214.97 150.23 214.47 151.89 214.47H152.16V214.36C152.16 214.18 152.16 214.01 152.14 213.85C152.11 213.46 151.88 213.2 151.32 213.2C150.76 213.2 150.46 213.51 150.41 214.1H149.69C149.75 213.2 150.39 212.68 151.32 212.68C152.33 212.68 152.75 213.1 152.82 213.8C152.84 213.97 152.84 214.18 152.84 214.36V215.95C152.84 216.27 152.86 216.56 152.92 217.03H152.23L152.16 216.42H152.17ZM152.17 215.42V214.99C151 214.9 150.27 215.15 150.27 215.88C150.27 216.39 150.6 216.62 151.12 216.62C151.76 216.62 152.18 216.2 152.18 215.43L152.17 215.42Z" fill="#221815"/>
<path d="M156.56 217.03H155.72L154.11 212.79H154.87L156.16 216.52L157.43 212.79H158.16L156.55 217.03H156.56Z" fill="#221815"/>
<path d="M160.23 211.84C160.23 212.09 160.04 212.28 159.79 212.28C159.54 212.28 159.35 212.09 159.35 211.84C159.35 211.59 159.54 211.4 159.79 211.4C160.04 211.4 160.23 211.59 160.23 211.84ZM159.45 217.03V212.79H160.14V217.03H159.45Z" fill="#221815"/>
<path d="M165.57 214.65V217.03H164.88V214.69C164.88 214.47 164.88 214.3 164.86 214.08C164.82 213.58 164.55 213.22 163.89 213.22C163.23 213.22 162.67 213.72 162.67 215.16V217.02H161.98V212.79H162.67V213.52L162.93 213.03C163.29 212.75 163.6 212.68 164.03 212.68C164.96 212.68 165.48 213.18 165.54 213.92C165.56 214.14 165.56 214.3 165.56 214.65H165.57Z" fill="#221815"/>
<path d="M171.08 215.99C171.08 216.25 171.08 216.58 171.08 216.81C171.04 218.05 170.29 218.7 169.06 218.7C167.83 218.7 167.25 218.2 167.17 217.3V217.22H167.86V217.29C167.92 217.81 168.34 218.17 169.07 218.17C169.91 218.17 170.37 217.69 170.4 216.87C170.4 216.67 170.4 216.53 170.4 216.41V216.34L170.08 216.8C169.84 217 169.39 217.14 168.96 217.14C167.72 217.14 167.03 216.21 167.03 214.97C167.03 213.4 168.01 212.68 169.1 212.68C169.45 212.68 169.9 212.78 170.12 212.96L170.4 213.38V212.8H171.09V216L171.08 215.99ZM170.39 214.95V214.72C170.39 213.62 169.7 213.21 169.09 213.21C168.35 213.21 167.77 213.79 167.77 214.9C167.77 215.86 168.2 216.62 169.05 216.62C169.75 216.62 170.39 216.17 170.39 214.96V214.95Z" fill="#221815"/>
<path d="M177.64 212.07V217.03H176.95V212.07H174.98V211.51H179.6V212.07H177.63H177.64Z" fill="#221815"/>
<path d="M184.24 214.65V217.03H183.55V214.69C183.55 214.47 183.55 214.3 183.53 214.08C183.49 213.58 183.22 213.2 182.56 213.22C181.9 213.24 181.34 213.72 181.34 215.16V217.02H180.65V211.11H181.34V213.52L181.6 213.03C181.96 212.75 182.27 212.68 182.7 212.68C183.63 212.68 184.15 213.18 184.21 213.92C184.23 214.14 184.23 214.3 184.23 214.65H184.24Z" fill="#221815"/>
<path d="M187.99 212.75V213.27C187.27 213.22 186.73 213.65 186.73 214.61V217.02H186.04V212.79H186.73V213.45L187.11 212.88C187.29 212.76 187.5 212.69 187.7 212.69C187.81 212.69 187.91 212.71 187.99 212.75Z" fill="#221815"/>
<path d="M192.68 215.12H189.61C189.67 216.24 190.2 216.62 190.83 216.62C191.38 216.62 191.83 216.28 191.92 215.67H192.64C192.47 216.69 191.66 217.15 190.79 217.15C189.69 217.15 188.86 216.43 188.86 214.94C188.86 213.56 189.72 212.69 190.87 212.69C192.02 212.69 192.68 213.56 192.68 214.8C192.68 214.86 192.68 214.98 192.66 215.13L192.68 215.12ZM189.62 214.59H192C191.94 213.71 191.56 213.21 190.87 213.21C190.18 213.21 189.7 213.69 189.62 214.59Z" fill="#221815"/>
<path d="M197.72 215.12H194.65C194.71 216.24 195.24 216.62 195.87 216.62C196.42 216.62 196.87 216.28 196.96 215.67H197.68C197.51 216.69 196.7 217.15 195.83 217.15C194.73 217.15 193.9 216.43 193.9 214.94C193.9 213.56 194.76 212.69 195.91 212.69C197.06 212.69 197.72 213.56 197.72 214.8C197.72 214.86 197.72 214.98 197.7 215.13L197.72 215.12ZM194.66 214.59H197.04C196.98 213.71 196.6 213.21 195.9 213.21C195.2 213.21 194.73 213.69 194.65 214.59H194.66Z" fill="#221815"/>
<path d="M207.33 214.44V217.03H206.64V214.76C206.64 214.38 206.64 214.15 206.61 213.94C206.55 213.46 206.24 213.23 205.76 213.23C205.22 213.23 204.83 213.65 204.83 214.94V217.04H204.14V214.76C204.14 214.38 204.14 214.15 204.11 213.94C204.05 213.46 203.74 213.23 203.26 213.23C202.72 213.23 202.33 213.65 202.33 214.94V217.04H201.64V212.79H202.33V213.41L202.6 212.93C202.82 212.75 203.12 212.68 203.5 212.68C204.15 212.68 204.56 213.01 204.72 213.47L205.1 212.93C205.32 212.75 205.62 212.68 206 212.68C206.76 212.68 207.19 213.13 207.29 213.71C207.32 213.93 207.33 214.09 207.33 214.44Z" fill="#221815"/>
<path d="M212.6 215.12H209.53C209.59 216.24 210.12 216.62 210.75 216.62C211.3 216.62 211.75 216.28 211.84 215.67H212.56C212.39 216.69 211.58 217.15 210.71 217.15C209.61 217.15 208.78 216.43 208.78 214.94C208.78 213.56 209.64 212.69 210.79 212.69C211.94 212.69 212.6 213.56 212.6 214.8C212.6 214.86 212.6 214.98 212.58 215.13L212.6 215.12ZM209.54 214.59H211.92C211.86 213.71 211.48 213.21 210.78 213.21C210.08 213.21 209.61 213.69 209.53 214.59H209.54Z" fill="#221815"/>
<path d="M216.52 216.42L216.29 216.88C216 217.08 215.63 217.14 215.23 217.14C214.46 217.14 213.86 216.72 213.86 215.93C213.86 214.97 214.58 214.47 216.24 214.47H216.51V214.36C216.51 214.18 216.51 214.01 216.49 213.85C216.46 213.46 216.23 213.2 215.67 213.2C215.11 213.2 214.81 213.51 214.76 214.1H214.04C214.1 213.2 214.74 212.68 215.67 212.68C216.68 212.68 217.1 213.1 217.17 213.8C217.19 213.97 217.19 214.18 217.19 214.36V215.95C217.19 216.27 217.21 216.56 217.27 217.03H216.58L216.51 216.42H216.52ZM216.52 215.42V214.99C215.35 214.9 214.62 215.15 214.62 215.88C214.62 216.39 214.95 216.62 215.47 216.62C216.11 216.62 216.53 216.2 216.53 215.43L216.52 215.42Z" fill="#221815"/>
<path d="M219.71 215.81C219.71 215.94 219.71 216.07 219.71 216.21C219.73 216.48 219.85 216.57 220.23 216.53V217.03C220.08 217.05 219.9 217.06 219.74 217.06C219.34 217.06 219.04 216.93 219.02 216.4C219.02 216.26 219.02 216.07 219.02 215.84V211.15H219.71V215.81Z" fill="#221815"/>
<path d="M224.46 214H223.74C223.64 213.5 223.34 213.21 222.84 213.21C222.34 213.21 222.14 213.47 222.14 213.84C222.14 214.26 222.49 214.43 223.07 214.58C224.05 214.84 224.51 215.22 224.51 215.94C224.51 216.74 223.83 217.14 222.94 217.14C222.05 217.14 221.4 216.74 221.28 215.78H222C222.11 216.4 222.5 216.61 222.99 216.61C223.44 216.61 223.81 216.4 223.81 215.99C223.81 215.58 223.52 215.37 222.81 215.17C222.05 214.96 221.44 214.65 221.44 213.91C221.44 213.17 222.03 212.67 222.9 212.67C223.85 212.67 224.37 213.21 224.46 213.99V214Z" fill="#221815"/>
<path d="M229.17 215.79C229.17 215.93 229.17 216.01 229.17 216.12C229.2 216.53 229.37 216.62 229.91 216.55V217.05C229.71 217.08 229.52 217.09 229.33 217.09C228.8 217.09 228.53 216.87 228.49 216.35C228.49 216.24 228.49 216.06 228.49 215.82V213.35H227.92V212.82H228.49V211.84H229.18V212.82H229.97V213.35H229.18V215.79H229.17Z" fill="#221815"/>
<path d="M235.24 214.91C235.24 216.1 234.58 217.14 233.14 217.14C231.7 217.14 231.04 216.1 231.04 214.91C231.04 213.72 231.7 212.68 233.14 212.68C234.58 212.68 235.24 213.71 235.24 214.91ZM234.49 214.91C234.49 213.91 233.99 213.21 233.14 213.21C232.29 213.21 231.79 213.91 231.79 214.91C231.79 215.91 232.29 216.61 233.14 216.61C233.99 216.61 234.49 215.9 234.49 214.91Z" fill="#221815"/>
<path d="M240.42 215.99C240.42 216.25 240.42 216.58 240.42 216.81C240.38 218.05 239.63 218.7 238.4 218.7C237.17 218.7 236.59 218.2 236.51 217.3V217.22H237.2V217.29C237.26 217.81 237.68 218.17 238.41 218.17C239.25 218.17 239.71 217.69 239.74 216.87C239.74 216.67 239.74 216.53 239.74 216.41V216.34L239.42 216.8C239.18 217 238.73 217.14 238.3 217.14C237.06 217.14 236.37 216.21 236.37 214.97C236.37 213.4 237.35 212.68 238.44 212.68C238.79 212.68 239.24 212.78 239.46 212.96L239.74 213.38V212.8H240.43V216L240.42 215.99ZM239.73 214.95V214.72C239.73 213.62 239.04 213.21 238.43 213.21C237.69 213.21 237.11 213.79 237.11 214.9C237.11 215.86 237.54 216.62 238.39 216.62C239.09 216.62 239.73 216.17 239.73 214.96V214.95Z" fill="#221815"/>
<path d="M245.74 215.12H242.67C242.73 216.24 243.26 216.62 243.89 216.62C244.44 216.62 244.89 216.28 244.98 215.67H245.7C245.53 216.69 244.72 217.15 243.85 217.15C242.75 217.15 241.92 216.43 241.92 214.94C241.92 213.56 242.78 212.69 243.93 212.69C245.08 212.69 245.74 213.56 245.74 214.8C245.74 214.86 245.74 214.98 245.72 215.13L245.74 215.12ZM242.68 214.59H245.06C245 213.71 244.62 213.21 243.92 213.21C243.22 213.21 242.75 213.69 242.67 214.59H242.68Z" fill="#221815"/>
<path d="M248.13 215.79C248.13 215.93 248.13 216.01 248.13 216.12C248.16 216.53 248.33 216.62 248.87 216.55V217.05C248.67 217.08 248.48 217.09 248.29 217.09C247.76 217.09 247.49 216.87 247.45 216.35C247.45 216.24 247.45 216.06 247.45 215.82V213.35H246.88V212.82H247.45V211.84H248.14V212.82H248.93V213.35H248.14V215.79H248.13Z" fill="#221815"/>
<path d="M254.03 214.65V217.03H253.34V214.69C253.34 214.47 253.34 214.3 253.32 214.08C253.28 213.58 253.01 213.2 252.35 213.22C251.69 213.24 251.13 213.72 251.13 215.16V217.02H250.44V211.11H251.13V213.52L251.39 213.03C251.75 212.75 252.06 212.68 252.49 212.68C253.42 212.68 253.94 213.18 254 213.92C254.02 214.14 254.02 214.3 254.02 214.65H254.03Z" fill="#221815"/>
<path d="M259.3 215.12H256.23C256.29 216.24 256.82 216.62 257.45 216.62C258 216.62 258.45 216.28 258.54 215.67H259.26C259.09 216.69 258.28 217.15 257.41 217.15C256.31 217.15 255.48 216.43 255.48 214.94C255.48 213.56 256.34 212.69 257.49 212.69C258.64 212.69 259.3 213.56 259.3 214.8C259.3 214.86 259.3 214.98 259.28 215.13L259.3 215.12ZM256.24 214.59H258.62C258.56 213.71 258.18 213.21 257.48 213.21C256.78 213.21 256.31 213.69 256.23 214.59H256.24Z" fill="#221815"/>
<path d="M262.82 212.75V213.27C262.1 213.22 261.56 213.65 261.56 214.61V217.02H260.87V212.79H261.56V213.45L261.94 212.88C262.12 212.76 262.33 212.69 262.53 212.69C262.64 212.69 262.74 212.71 262.82 212.75Z" fill="#221815"/>
<path d="M269.98 215.12H266.91C266.97 216.24 267.5 216.62 268.13 216.62C268.68 216.62 269.13 216.28 269.22 215.67H269.94C269.77 216.69 268.96 217.15 268.09 217.15C266.99 217.15 266.16 216.43 266.16 214.94C266.16 213.56 267.02 212.69 268.17 212.69C269.32 212.69 269.98 213.56 269.98 214.8C269.98 214.86 269.98 214.98 269.96 215.13L269.98 215.12ZM266.92 214.59H269.3C269.24 213.71 268.86 213.21 268.17 213.21C267.48 213.21 267 213.69 266.92 214.59Z" fill="#221815"/>
<path d="M273.41 217.03H272.57L270.96 212.79H271.72L273.01 216.52L274.28 212.79H275.01L273.4 217.03H273.41Z" fill="#221815"/>
<path d="M279.7 215.12H276.63C276.69 216.24 277.22 216.62 277.85 216.62C278.4 216.62 278.85 216.28 278.94 215.67H279.66C279.49 216.69 278.68 217.15 277.81 217.15C276.71 217.15 275.88 216.43 275.88 214.94C275.88 213.56 276.74 212.69 277.89 212.69C279.04 212.69 279.7 213.56 279.7 214.8C279.7 214.86 279.7 214.98 279.68 215.13L279.7 215.12ZM276.64 214.59H279.02C278.96 213.71 278.58 213.21 277.88 213.21C277.18 213.21 276.71 213.69 276.63 214.59H276.64Z" fill="#221815"/>
<path d="M283.22 212.75V213.27C282.5 213.22 281.96 213.65 281.96 214.61V217.02H281.27V212.79H281.96V213.45L282.34 212.88C282.52 212.76 282.73 212.69 282.93 212.69C283.04 212.69 283.14 212.71 283.22 212.75Z" fill="#221815"/>
<path d="M286.27 217.39C285.93 218.29 285.47 218.71 284.78 218.71C284.63 218.71 284.53 218.71 284.43 218.69V218.13C284.53 218.13 284.61 218.13 284.68 218.13C285.1 218.13 285.38 217.95 285.6 217.39L285.66 217.24L283.97 212.79H284.75L286.01 216.52L287.26 212.79H288.01L286.27 217.39Z" fill="#221815"/>
<path d="M69.8701 236.22H69.1801V235.54L68.8601 236C68.6201 236.2 68.1701 236.34 67.7401 236.34C66.5001 236.34 65.8101 235.41 65.8101 234.17C65.8101 232.6 66.7901 231.88 67.8801 231.88C68.2301 231.88 68.6801 231.98 68.9001 232.16L69.1801 232.58V230.36H69.8701V236.24V236.22ZM69.1801 234.14V233.91C69.1801 232.81 68.4901 232.4 67.8801 232.4C67.1401 232.4 66.5601 232.98 66.5601 234.09C66.5601 235.05 66.9901 235.81 67.8401 235.81C68.5401 235.81 69.1801 235.36 69.1801 234.15V234.14Z" fill="#221815"/>
<path d="M74.0902 235.61L73.8602 236.07C73.5702 236.27 73.2002 236.33 72.8002 236.33C72.0302 236.33 71.4302 235.91 71.4302 235.12C71.4302 234.16 72.1502 233.66 73.8102 233.66H74.0802V233.55C74.0802 233.37 74.0802 233.2 74.0602 233.04C74.0302 232.65 73.8002 232.39 73.2402 232.39C72.6802 232.39 72.3802 232.7 72.3302 233.29H71.6102C71.6702 232.39 72.3102 231.87 73.2402 231.87C74.2502 231.87 74.6702 232.29 74.7402 232.99C74.7602 233.16 74.7602 233.37 74.7602 233.55V235.14C74.7602 235.46 74.7802 235.75 74.8402 236.22H74.1502L74.0802 235.61H74.0902ZM74.0902 234.61V234.18C72.9202 234.09 72.1902 234.34 72.1902 235.07C72.1902 235.58 72.5202 235.81 73.0402 235.81C73.6802 235.81 74.1002 235.39 74.1002 234.62L74.0902 234.61Z" fill="#221815"/>
<path d="M78.34 236.58C78 237.48 77.54 237.9 76.85 237.9C76.7 237.9 76.6 237.9 76.5 237.88V237.32C76.6 237.32 76.68 237.32 76.75 237.32C77.17 237.32 77.45 237.14 77.67 236.58L77.73 236.43L76.04 231.98H76.82L78.08 235.71L79.33 231.98H80.08L78.34 236.58Z" fill="#221815"/>
<path d="M84.5099 231.03C84.5099 231.28 84.3199 231.47 84.0699 231.47C83.8199 231.47 83.6299 231.28 83.6299 231.03C83.6299 230.78 83.8199 230.59 84.0699 230.59C84.3199 230.59 84.5099 230.78 84.5099 231.03ZM83.7299 236.22V231.98H84.4199V236.22H83.7299Z" fill="#221815"/>
<path d="M89.86 233.84V236.22H89.17V233.89C89.17 233.67 89.17 233.5 89.15 233.28C89.11 232.78 88.84 232.42 88.18 232.42C87.52 232.42 86.96 232.92 86.96 234.36V236.22H86.27V231.98H86.96V232.71L87.22 232.22C87.58 231.94 87.89 231.87 88.32 231.87C89.25 231.87 89.77 232.37 89.83 233.11C89.85 233.33 89.85 233.49 89.85 233.84H89.86Z" fill="#221815"/>
<path d="M96.39 235.61L96.16 236.07C95.87 236.27 95.5 236.33 95.1 236.33C94.33 236.33 93.73 235.91 93.73 235.12C93.73 234.16 94.45 233.66 96.11 233.66H96.38V233.55C96.38 233.37 96.38 233.2 96.36 233.04C96.33 232.65 96.1 232.39 95.54 232.39C94.98 232.39 94.68 232.7 94.63 233.29H93.91C93.97 232.39 94.61 231.87 95.54 231.87C96.55 231.87 96.97 232.29 97.04 232.99C97.06 233.16 97.06 233.37 97.06 233.55V235.14C97.06 235.46 97.08 235.75 97.14 236.22H96.45L96.38 235.61H96.39ZM96.39 234.61V234.18C95.22 234.09 94.49 234.34 94.49 235.07C94.49 235.58 94.82 235.81 95.34 235.81C95.98 235.81 96.4 235.39 96.4 234.62L96.39 234.61Z" fill="#221815"/>
<path d="M99.5699 235C99.5699 235.13 99.5699 235.26 99.5699 235.4C99.5899 235.67 99.7099 235.76 100.09 235.72V236.22C99.9399 236.24 99.7599 236.25 99.5999 236.25C99.1999 236.25 98.8999 236.12 98.8799 235.59C98.8799 235.45 98.8799 235.26 98.8799 235.03V230.34H99.5699V235Z" fill="#221815"/>
<path d="M102.19 235C102.19 235.13 102.19 235.26 102.19 235.4C102.21 235.67 102.33 235.76 102.71 235.72V236.22C102.56 236.24 102.38 236.25 102.22 236.25C101.82 236.25 101.52 236.12 101.5 235.59C101.5 235.45 101.5 235.26 101.5 235.03V230.34H102.19V235Z" fill="#221815"/>
<path d="M107.41 233.18H109.99V233.74H107.41V236.22H106.72V230.7H110.31V231.26H107.41V233.18Z" fill="#221815"/>
<path d="M115.54 234.1C115.54 235.29 114.88 236.33 113.44 236.33C112 236.33 111.34 235.29 111.34 234.1C111.34 232.91 112 231.87 113.44 231.87C114.88 231.87 115.54 232.9 115.54 234.1ZM114.79 234.1C114.79 233.1 114.29 232.4 113.44 232.4C112.59 232.4 112.09 233.1 112.09 234.1C112.09 235.1 112.59 235.8 113.44 235.8C114.29 235.8 114.79 235.09 114.79 234.1Z" fill="#221815"/>
<path d="M120.54 236.22H119.85V235.5L119.59 236C119.23 236.26 118.92 236.34 118.49 236.34C117.61 236.34 117.1 235.84 117 235.26C116.97 235.04 116.96 234.88 116.96 234.53V231.99H117.65V234.4C117.65 234.54 117.65 234.77 117.68 234.98C117.74 235.46 118.09 235.79 118.66 235.79C119.32 235.79 119.85 235.29 119.85 233.85V231.99H120.54V236.23V236.22Z" fill="#221815"/>
<path d="M124.35 231.94V232.46C123.63 232.41 123.09 232.84 123.09 233.8V236.21H122.4V231.97H123.09V232.63L123.47 232.06C123.65 231.94 123.86 231.87 124.06 231.87C124.17 231.87 124.27 231.89 124.35 231.93V231.94Z" fill="#221815"/>
<path d="M130.83 233.19H130.11C130.01 232.69 129.71 232.4 129.21 232.4C128.71 232.4 128.51 232.66 128.51 233.03C128.51 233.45 128.86 233.62 129.44 233.77C130.42 234.03 130.88 234.41 130.88 235.13C130.88 235.93 130.2 236.33 129.31 236.33C128.42 236.33 127.77 235.93 127.65 234.97H128.37C128.48 235.59 128.87 235.8 129.36 235.8C129.82 235.8 130.18 235.59 130.18 235.18C130.18 234.77 129.89 234.56 129.18 234.36C128.42 234.15 127.81 233.84 127.81 233.1C127.81 232.36 128.4 231.86 129.27 231.86C130.22 231.86 130.74 232.4 130.83 233.18V233.19Z" fill="#221815"/>
<path d="M135.82 234.31H132.75C132.81 235.43 133.34 235.81 133.97 235.81C134.52 235.81 134.97 235.47 135.06 234.86H135.78C135.61 235.88 134.8 236.34 133.93 236.34C132.83 236.34 132 235.62 132 234.13C132 232.75 132.86 231.88 134.01 231.88C135.16 231.88 135.82 232.75 135.82 233.99C135.82 234.05 135.82 234.17 135.8 234.32L135.82 234.31ZM132.76 233.78H135.14C135.08 232.9 134.7 232.4 134.01 232.4C133.32 232.4 132.84 232.88 132.76 233.78Z" fill="#221815"/>
<path d="M139.74 235.61L139.51 236.07C139.22 236.27 138.85 236.33 138.45 236.33C137.68 236.33 137.08 235.91 137.08 235.12C137.08 234.16 137.8 233.66 139.46 233.66H139.73V233.55C139.73 233.37 139.73 233.2 139.71 233.04C139.68 232.65 139.45 232.39 138.89 232.39C138.33 232.39 138.03 232.7 137.98 233.29H137.26C137.32 232.39 137.96 231.87 138.89 231.87C139.9 231.87 140.32 232.29 140.39 232.99C140.41 233.16 140.41 233.37 140.41 233.55V235.14C140.41 235.46 140.43 235.75 140.49 236.22H139.8L139.73 235.61H139.74ZM139.74 234.61V234.18C138.57 234.09 137.84 234.34 137.84 235.07C137.84 235.58 138.17 235.81 138.69 235.81C139.33 235.81 139.75 235.39 139.75 234.62L139.74 234.61Z" fill="#221815"/>
<path d="M145.06 233.19H144.34C144.24 232.69 143.94 232.4 143.44 232.4C142.94 232.4 142.74 232.66 142.74 233.03C142.74 233.45 143.09 233.62 143.67 233.77C144.65 234.03 145.11 234.41 145.11 235.13C145.11 235.93 144.43 236.33 143.53 236.33C142.63 236.33 141.99 235.93 141.87 234.97H142.59C142.7 235.59 143.09 235.8 143.58 235.8C144.04 235.8 144.4 235.59 144.4 235.18C144.4 234.77 144.11 234.56 143.4 234.36C142.64 234.15 142.03 233.84 142.03 233.1C142.03 232.36 142.62 231.86 143.49 231.86C144.44 231.86 144.96 232.4 145.05 233.18L145.06 233.19Z" fill="#221815"/>
<path d="M150.44 234.1C150.44 235.29 149.78 236.33 148.34 236.33C146.9 236.33 146.24 235.29 146.24 234.1C146.24 232.91 146.9 231.87 148.34 231.87C149.78 231.87 150.44 232.9 150.44 234.1ZM149.69 234.1C149.69 233.1 149.19 232.4 148.34 232.4C147.49 232.4 146.99 233.1 146.99 234.1C146.99 235.1 147.49 235.8 148.34 235.8C149.19 235.8 149.69 235.09 149.69 234.1Z" fill="#221815"/>
<path d="M155.5 233.84V236.22H154.81V233.89C154.81 233.67 154.81 233.5 154.79 233.28C154.75 232.78 154.48 232.42 153.82 232.42C153.16 232.42 152.6 232.92 152.6 234.36V236.22H151.91V231.98H152.6V232.71L152.86 232.22C153.22 231.94 153.53 231.87 153.96 231.87C154.89 231.87 155.41 232.37 155.47 233.11C155.49 233.33 155.49 233.49 155.49 233.84H155.5Z" fill="#221815"/>
<path d="M160.09 233.19H159.37C159.27 232.69 158.97 232.4 158.47 232.4C157.97 232.4 157.77 232.66 157.77 233.03C157.77 233.45 158.12 233.62 158.7 233.77C159.68 234.03 160.14 234.41 160.14 235.13C160.14 235.93 159.46 236.33 158.57 236.33C157.68 236.33 157.03 235.93 156.91 234.97H157.63C157.74 235.59 158.13 235.8 158.62 235.8C159.07 235.8 159.44 235.59 159.44 235.18C159.44 234.77 159.15 234.56 158.44 234.36C157.68 234.15 157.07 233.84 157.07 233.1C157.07 232.36 157.66 231.86 158.53 231.86C159.48 231.86 160 232.4 160.09 233.18V233.19Z" fill="#221815"/>
<path d="M164.7 231.6V232.02H165.57V232.55H164.7V236.23H164.01V232.55H163.55V232.02H164.01V231.67C164.01 231.51 164.01 231.3 164.03 231.16C164.1 230.54 164.52 230.2 165.15 230.2C165.33 230.2 165.49 230.22 165.64 230.24V230.81C165.12 230.71 164.78 230.83 164.72 231.18C164.7 231.29 164.7 231.49 164.7 231.61V231.6Z" fill="#221815"/>
<path d="M170.79 234.1C170.79 235.29 170.13 236.33 168.69 236.33C167.25 236.33 166.59 235.29 166.59 234.1C166.59 232.91 167.25 231.87 168.69 231.87C170.13 231.87 170.79 232.9 170.79 234.1ZM170.04 234.1C170.04 233.1 169.54 232.4 168.69 232.4C167.84 232.4 167.34 233.1 167.34 234.1C167.34 235.1 167.84 235.8 168.69 235.8C169.54 235.8 170.04 235.09 170.04 234.1Z" fill="#221815"/>
<path d="M174.22 231.94V232.46C173.5 232.41 172.96 232.84 172.96 233.8V236.21H172.27V231.97H172.96V232.63L173.34 232.06C173.52 231.94 173.73 231.87 173.93 231.87C174.04 231.87 174.14 231.89 174.22 231.93V231.94Z" fill="#221815"/>
<path d="M181.38 234.31H178.31C178.37 235.43 178.9 235.81 179.53 235.81C180.08 235.81 180.53 235.47 180.62 234.86H181.34C181.17 235.88 180.36 236.34 179.49 236.34C178.39 236.34 177.56 235.62 177.56 234.13C177.56 232.75 178.42 231.88 179.57 231.88C180.72 231.88 181.38 232.75 181.38 233.99C181.38 234.05 181.38 234.17 181.36 234.32L181.38 234.31ZM178.32 233.78H180.7C180.64 232.9 180.26 232.4 179.56 232.4C178.86 232.4 178.39 232.88 178.31 233.78H178.32Z" fill="#221815"/>
<path d="M184.81 236.22H183.97L182.36 231.98H183.12L184.41 235.71L185.68 231.98H186.41L184.8 236.22H184.81Z" fill="#221815"/>
<path d="M191.09 234.31H188.02C188.08 235.43 188.61 235.81 189.24 235.81C189.79 235.81 190.24 235.47 190.33 234.86H191.05C190.88 235.88 190.07 236.34 189.2 236.34C188.1 236.34 187.27 235.62 187.27 234.13C187.27 232.75 188.13 231.88 189.28 231.88C190.43 231.88 191.09 232.75 191.09 233.99C191.09 234.05 191.09 234.17 191.07 234.32L191.09 234.31ZM188.03 233.78H190.41C190.35 232.9 189.97 232.4 189.28 232.4C188.59 232.4 188.11 232.88 188.03 233.78Z" fill="#221815"/>
<path d="M194.62 231.94V232.46C193.9 232.41 193.36 232.84 193.36 233.8V236.21H192.67V231.97H193.36V232.63L193.74 232.06C193.92 231.94 194.13 231.87 194.33 231.87C194.44 231.87 194.54 231.89 194.62 231.93V231.94Z" fill="#221815"/>
<path d="M197.66 236.58C197.32 237.48 196.86 237.9 196.17 237.9C196.02 237.9 195.92 237.9 195.82 237.88V237.32C195.92 237.32 196 237.32 196.07 237.32C196.49 237.32 196.77 237.14 196.99 236.58L197.05 236.43L195.36 231.98H196.14L197.4 235.71L198.65 231.98H199.4L197.66 236.58Z" fill="#221815"/>
<path d="M204.77 236.58C204.43 237.48 203.97 237.9 203.28 237.9C203.13 237.9 203.03 237.9 202.93 237.88V237.32C203.03 237.32 203.11 237.32 203.18 237.32C203.6 237.32 203.88 237.14 204.1 236.58L204.16 236.43L202.47 231.98H203.25L204.51 235.71L205.76 231.98H206.51L204.77 236.58Z" fill="#221815"/>
<path d="M211.2 234.31H208.13C208.19 235.43 208.72 235.81 209.35 235.81C209.9 235.81 210.35 235.47 210.44 234.86H211.16C210.99 235.88 210.18 236.34 209.31 236.34C208.21 236.34 207.38 235.62 207.38 234.13C207.38 232.75 208.24 231.88 209.39 231.88C210.54 231.88 211.2 232.75 211.2 233.99C211.2 234.05 211.2 234.17 211.18 234.32L211.2 234.31ZM208.14 233.78H210.52C210.46 232.9 210.08 232.4 209.38 232.4C208.68 232.4 208.21 232.88 208.13 233.78H208.14Z" fill="#221815"/>
<path d="M215.12 235.61L214.89 236.07C214.6 236.27 214.23 236.33 213.83 236.33C213.06 236.33 212.46 235.91 212.46 235.12C212.46 234.16 213.18 233.66 214.84 233.66H215.11V233.55C215.11 233.37 215.11 233.2 215.09 233.04C215.06 232.65 214.83 232.39 214.27 232.39C213.71 232.39 213.41 232.7 213.36 233.29H212.64C212.7 232.39 213.34 231.87 214.27 231.87C215.28 231.87 215.7 232.29 215.77 232.99C215.79 233.16 215.79 233.37 215.79 233.55V235.14C215.79 235.46 215.81 235.75 215.87 236.22H215.18L215.11 235.61H215.12ZM215.12 234.61V234.18C213.95 234.09 213.22 234.34 213.22 235.07C213.22 235.58 213.55 235.81 214.07 235.81C214.71 235.81 215.13 235.39 215.13 234.62L215.12 234.61Z" fill="#221815"/>
<path d="M219.61 231.94V232.46C218.89 232.41 218.35 232.84 218.35 233.8V236.21H217.66V231.97H218.35V232.63L218.73 232.06C218.91 231.94 219.12 231.87 219.32 231.87C219.43 231.87 219.53 231.89 219.61 231.93V231.94Z" fill="#221815"/>
<path d="M221.66 235.82C221.66 236.12 221.44 236.33 221.15 236.33C220.86 236.33 220.64 236.11 220.64 235.82C220.64 235.53 220.86 235.31 221.15 235.31C221.44 235.31 221.66 235.53 221.66 235.82Z" fill="#221815"/>
<path d="M96.0902 80.86L96.0702 81.02H94.3602V80.86C94.3602 79.18 93.4902 78.49 91.8502 78.49C89.5002 78.49 87.8702 80.74 87.8702 83.75C87.8702 86.01 88.9002 87.05 90.4702 87.05C92.0402 87.05 93.0702 86.1 93.6102 84.65L93.6702 84.49H95.3802L95.3302 84.65C94.7102 86.86 93.0002 88.35 90.1902 88.35C87.3802 88.35 85.9802 86.67 86.0002 83.93C85.9802 80.03 88.6202 77.19 92.0902 77.19C94.8902 77.19 96.2502 78.75 96.0902 80.86Z" fill="#D08421"/>
<path d="M107.54 83.32C107.54 85.65 106.06 88.36 102.7 88.36C100.1 88.36 99.0303 86.66 99.0303 84.7C99.0303 82.37 100.51 79.66 103.89 79.66C106.47 79.66 107.55 81.36 107.55 83.32H107.54ZM105.7 83.35C105.7 82 105.09 80.91 103.69 80.91C101.82 80.91 100.86 82.86 100.86 84.66C100.86 86.03 101.48 87.12 102.87 87.12C104.75 87.12 105.7 85.16 105.7 83.35V83.35Z" fill="#D08421"/>
<path d="M123.22 81.65C123.22 82.09 123.16 82.46 123.03 83.14L122.16 88.14H120.45L121.23 83.77C121.34 83.09 121.42 82.59 121.42 82.17C121.42 81.35 120.97 80.92 120.16 80.92C119.21 80.92 118.29 82.06 117.95 83.85L117.92 83.99L117.19 88.15H115.49L116.25 83.78C116.37 83.08 116.45 82.6 116.45 82.18C116.45 81.36 115.98 80.93 115.16 80.93C114.18 80.93 113.28 82.11 112.95 84L112.22 88.16H110.51L111.96 79.9H113.67L113.47 81.08L114.19 80.16C114.7 79.82 115.29 79.68 116.04 79.68C117.33 79.68 118.03 80.32 118.2 81.21L119.09 80.2C119.62 79.83 120.23 79.69 120.97 79.69C122.51 79.69 123.23 80.56 123.23 81.68L123.22 81.65Z" fill="#D08421"/>
<path d="M126.43 88.14L127.89 79.88H129.6L128.14 88.14H126.43ZM130.13 77.82C130.13 78.43 129.66 78.97 128.96 78.97C128.43 78.97 128.09 78.63 128.09 78.13C128.09 77.52 128.57 76.99 129.26 76.99C129.79 76.99 130.13 77.33 130.13 77.81V77.82Z" fill="#D08421"/>
<path d="M140.84 81.78C140.84 82.22 140.81 82.54 140.64 83.46L139.8 88.14H138.1L138.89 83.69C139.01 83.02 139.06 82.62 139.06 82.29C139.06 81.48 138.67 80.9 137.58 80.92C136.38 80.95 135.28 81.87 134.81 84.45L134.17 88.14H132.46L133.91 79.88H135.62L135.39 81.22L136.12 80.3C136.87 79.8 137.5 79.66 138.31 79.66C140.01 79.66 140.83 80.5 140.83 81.78H140.84Z" fill="#D08421"/>
<path d="M152.1 86.09C152.01 86.6 151.9 87.24 151.81 87.69C151.28 90.2 149.72 91.46 147 91.46C144.85 91.46 143.53 90.46 143.67 88.69L143.69 88.53H145.39L145.37 88.67C145.32 89.56 145.98 90.16 147.25 90.16C148.74 90.16 149.74 89.35 150.07 87.87C150.13 87.51 150.21 87.22 150.26 86.92L150.28 86.81L149.49 87.71C148.98 88.08 148.11 88.33 147.26 88.33C145.21 88.33 144.13 86.91 144.13 85C144.13 82.39 145.72 79.65 149.03 79.65C149.71 79.65 150.54 79.9 150.9 80.26L151.29 81.1L151.51 79.87H153.22L152.11 86.08L152.1 86.09ZM150.75 84.1V84.13L150.83 83.65V83.67C151.06 82.25 150.57 80.92 148.95 80.92C147.07 80.92 145.96 82.88 145.96 84.87C145.96 86.24 146.6 87.1 147.83 87.1C149.06 87.1 150.37 86.31 150.76 84.11L150.75 84.1Z" fill="#D08421"/>
<path d="M169.69 80.46H167.92C168.01 79.23 167.33 78.5 166.08 78.5C164.93 78.5 164.07 79.14 164.07 80.27C164.07 81.11 164.66 81.55 166.08 81.89C168.06 82.37 169.04 83.26 169.04 84.82C169.04 87.03 167.08 88.37 164.6 88.37C162.3 88.37 160.79 87.2 160.94 85.04H162.71C162.76 86.36 163.57 87.06 164.83 87.06C166.09 87.06 167.17 86.36 167.17 85.13C167.17 84.24 166.55 83.73 165.08 83.36C163.35 82.92 162.2 82.22 162.2 80.73C162.2 78.5 164.13 77.2 166.36 77.2C168.74 77.2 169.8 78.6 169.69 80.47V80.46Z" fill="#D08421"/>
<path d="M180.84 83.32C180.84 85.65 179.36 88.36 176 88.36C173.4 88.36 172.33 86.66 172.33 84.7C172.33 82.37 173.81 79.66 177.19 79.66C179.77 79.66 180.85 81.36 180.85 83.32H180.84ZM179 83.35C179 82 178.39 80.91 176.99 80.91C175.12 80.91 174.16 82.86 174.16 84.66C174.16 86.03 174.78 87.12 176.17 87.12C178.05 87.12 179 85.16 179 83.35V83.35Z" fill="#D08421"/>
<path d="M192.37 83.32C192.37 85.65 190.89 88.36 187.53 88.36C184.93 88.36 183.86 86.66 183.86 84.7C183.86 82.37 185.34 79.66 188.72 79.66C191.3 79.66 192.38 81.36 192.38 83.32H192.37ZM190.53 83.35C190.53 82 189.92 80.91 188.52 80.91C186.65 80.91 185.69 82.86 185.69 84.66C185.69 86.03 186.31 87.12 187.7 87.12C189.58 87.12 190.53 85.16 190.53 83.35V83.35Z" fill="#D08421"/>
<path d="M203.71 81.78C203.71 82.22 203.68 82.54 203.51 83.46L202.67 88.14H200.97L201.76 83.69C201.88 83.02 201.93 82.62 201.93 82.29C201.93 81.48 201.54 80.9 200.45 80.92C199.25 80.95 198.15 81.87 197.68 84.45L197.04 88.14H195.33L196.78 79.88H198.49L198.26 81.22L198.99 80.3C199.74 79.8 200.37 79.66 201.18 79.66C202.88 79.66 203.7 80.5 203.7 81.78H203.71Z" fill="#D08421"/>
<path d="M25.2599 48.53V49.87H16.3799V48.93L21.1799 44.04C22.7399 42.45 23.4799 41.49 23.4799 40.2C23.4799 38.84 22.6899 37.67 21.0999 37.67C19.3899 37.67 18.5699 38.73 18.3699 40.59L18.3499 40.78H16.6999L16.7199 40.59C16.9899 37.83 18.6399 36.37 21.2899 36.37C23.9399 36.37 25.3199 38.04 25.3199 40.02C25.3199 41.82 24.3399 43.05 22.0999 45.26L18.7799 48.54H25.2699L25.2599 48.53Z" fill="#221815"/>
<path d="M38.5199 46.18C38.5199 48.66 36.2699 50.13 33.7199 50.13C31.1699 50.13 29.4399 49 29.1499 46.14L29.1299 45.95H30.7799L30.7999 46.14C30.9899 48 32.2599 48.83 33.8699 48.83C35.4799 48.83 36.6699 47.89 36.6699 46.28C36.6699 44.67 35.6699 43.84 33.5199 43.84H33.1899V42.5H33.5199C35.0899 42.5 36.3599 41.58 36.3599 39.91C36.3599 38.59 35.4199 37.66 34.0199 37.66C32.6199 37.66 31.4899 38.5 31.3099 40.25L31.2899 40.44H29.6399L29.6599 40.25C29.9099 37.85 31.5399 36.35 34.2299 36.35C36.6699 36.35 38.1999 37.71 38.1999 39.71C38.1999 41.23 37.2399 42.42 35.8599 42.82C37.4899 43.28 38.5099 44.45 38.5099 46.18H38.5199Z" fill="#221815"/>
<path d="M50.9601 43.04C50.9601 44.69 50.2701 45.59 48.8501 45.59C48.1001 45.59 47.6201 45.34 46.6201 44.8C45.9101 44.42 45.3501 44.13 44.8201 44.13C44.0901 44.13 43.8801 44.69 43.8801 45.59H42.8101C42.8101 43.94 43.5001 43.04 44.9201 43.04C45.6701 43.04 46.1501 43.29 47.1501 43.83C47.8601 44.21 48.4201 44.5 48.9501 44.5C49.6801 44.5 49.8901 43.94 49.8901 43.04H50.9601V43.04Z" fill="#221815"/>
<path d="M63.2198 46.53V49.87H61.5698V46.53H55.0098V45.7L61.5698 36.62H63.2198V45.18H64.8898V46.52H63.2198V46.53ZM61.5698 38.83C61.2598 39.35 60.9198 39.9 60.4798 40.52L57.0998 45.18H61.5698V38.83V38.83Z" fill="#221815"/>
<path d="M77.4598 48.53V49.87H68.5698V48.93L73.3698 44.04C74.9298 42.45 75.6698 41.49 75.6698 40.2C75.6698 38.84 74.8798 37.67 73.2898 37.67C71.5798 37.67 70.7598 38.73 70.5598 40.59L70.5398 40.78H68.8898L68.9098 40.59C69.1798 37.83 70.8298 36.37 73.4798 36.37C76.1298 36.37 77.5098 38.04 77.5098 40.02C77.5098 41.82 76.5298 43.05 74.2898 45.26L70.9698 48.54H77.4598V48.53Z" fill="#221815"/>
<path d="M82.6297 41.73V38.26H83.5497V41.73H85.0597V42.66H83.5497V47.05C84.0897 46.86 84.5997 46.65 85.1097 46.41V47.36C83.8797 47.9 82.5697 48.37 81.1597 48.74L80.9297 47.79C81.5097 47.66 82.0697 47.51 82.6297 47.35V42.65H81.0397V41.72H82.6297V41.73ZM92.3697 38.85V39.75H89.3397V44.74H92.7497V45.65H89.3397V50.41H88.4397V45.65H85.0797V44.74H88.4397V39.75H85.4397V38.85H92.3697V38.85ZM87.3997 43.88L86.6097 44.08C86.3697 42.93 86.0497 41.82 85.6597 40.76L86.4497 40.5C86.8097 41.48 87.1097 42.62 87.3997 43.89V43.88ZM92.0397 40.64C91.7697 41.92 91.4297 43.05 91.0197 44.01L90.2397 43.72C90.6197 42.85 90.9597 41.75 91.2397 40.41L92.0497 40.63L92.0397 40.64Z" fill="#221815"/>
<path d="M102.04 50.87H100.99V35.38H102.04V50.87Z" fill="#D08421"/>
<path d="M119.95 48.53V49.87H111.06V48.93L115.86 44.04C117.42 42.45 118.16 41.49 118.16 40.2C118.16 38.84 117.37 37.67 115.78 37.67C114.07 37.67 113.25 38.73 113.05 40.59L113.03 40.78H111.38L111.4 40.59C111.67 37.83 113.32 36.37 115.97 36.37C118.62 36.37 120 38.04 120 40.02C120 41.82 119.02 43.05 116.78 45.26L113.46 48.54H119.95V48.53Z" fill="#221815"/>
<path d="M132.59 43.04C132.59 44.69 131.9 45.59 130.48 45.59C129.73 45.59 129.25 45.34 128.25 44.8C127.54 44.42 126.98 44.13 126.45 44.13C125.72 44.13 125.51 44.69 125.51 45.59H124.44C124.44 43.94 125.13 43.04 126.55 43.04C127.3 43.04 127.78 43.29 128.78 43.83C129.49 44.21 130.05 44.5 130.58 44.5C131.31 44.5 131.52 43.94 131.52 43.04H132.59Z" fill="#221815"/>
<path d="M144.86 46.53V49.87H143.21V46.53H136.65V45.7L143.21 36.62H144.86V45.18H146.53V46.52H144.86V46.53ZM143.21 38.83C142.9 39.35 142.56 39.9 142.12 40.52L138.74 45.18H143.21V38.83V38.83Z" fill="#221815"/>
<path d="M160.34 38.95C157.82 39.31 154.98 39.52 151.81 39.57V40.34H160.35V43.2H151.81V43.32C151.76 46.11 151.26 48.33 150.33 50L149.67 49.27C150.46 47.84 150.9 45.86 150.96 43.32V38.84C154.28 38.81 157.29 38.6 159.95 38.2L160.35 38.95H160.34ZM152.35 45.49V44.66H156.02C155.87 44.3 155.71 43.97 155.55 43.68L156.51 43.52C156.66 43.85 156.82 44.23 156.97 44.66H160.88V45.49H155.3C155.27 45.87 155.22 46.23 155.15 46.57H159.94C159.89 48.26 159.8 49.26 159.68 49.55C159.58 49.84 159.36 50.03 159.03 50.13C158.7 50.22 157.99 50.28 156.92 50.28H156.69L156.43 49.42C156.67 49.43 156.92 49.45 157.16 49.45C157.85 49.45 158.28 49.41 158.49 49.34C158.67 49.26 158.8 49.15 158.86 49C158.9 48.83 158.95 48.3 159.01 47.43H154.88C154.39 48.67 153.5 49.64 152.22 50.33L151.73 49.54C153.35 48.72 154.24 47.38 154.38 45.51H152.33L152.35 45.49ZM159.46 42.38V41.16H151.81V42.38H159.46Z" fill="#221815"/>
<path d="M170.63 50.87H169.58V35.38H170.63V50.87Z" fill="#D68F41"/>
<path d="M185.04 45.68C185.04 48.11 184.32 50.04 182.02 50.04C179.72 50.04 179 48.11 179 45.68C179 43.25 179.72 41.32 182.02 41.32C184.32 41.32 185.04 43.24 185.04 45.68ZM183.87 45.68C183.87 43.48 183.35 42.15 182.01 42.15C180.67 42.15 180.15 43.49 180.15 45.68C180.15 47.87 180.67 49.21 182.01 49.21C183.35 49.21 183.87 47.86 183.87 45.68Z" fill="#221815"/>
<path d="M193.21 47.05C193.21 48.84 191.95 50.04 190.25 50.04C188.38 50.04 187.29 48.86 187.29 46.08C187.29 42.7 188.81 41.32 190.53 41.32C191.96 41.32 192.98 42.21 193.12 43.58V43.7H192.01L191.99 43.58C191.8 42.63 191.3 42.15 190.45 42.15C189.32 42.15 188.52 43.06 188.43 45.5L188.9 44.75C189.35 44.37 189.82 44.22 190.43 44.22C192.18 44.22 193.21 45.4 193.21 47.06V47.05ZM192.04 47.17C192.04 46 191.52 45.03 190.24 45.03C189.29 45.03 188.49 45.75 188.49 47.14C188.49 48.31 189.18 49.2 190.24 49.2C191.3 49.2 192.04 48.37 192.04 47.16V47.17Z" fill="#221815"/>
<path d="M208.61 48.73V49.86H201.11V49.07L205.16 44.94C206.47 43.6 207.1 42.78 207.1 41.7C207.1 40.55 206.44 39.56 205.09 39.56C203.65 39.56 202.95 40.45 202.79 42.02L202.77 42.18H201.38L201.4 42.02C201.63 39.69 203.02 38.46 205.26 38.46C207.5 38.46 208.66 39.87 208.66 41.54C208.66 43.06 207.83 44.1 205.94 45.96L203.14 48.73H208.62H208.61Z" fill="#221815"/>
<path d="M219.63 48.73V49.86H212.13V49.07L216.18 44.94C217.49 43.6 218.12 42.78 218.12 41.7C218.12 40.55 217.46 39.56 216.11 39.56C214.67 39.56 213.97 40.45 213.81 42.02L213.79 42.18H212.4L212.42 42.02C212.65 39.69 214.04 38.46 216.28 38.46C218.52 38.46 219.68 39.87 219.68 41.54C219.68 43.06 218.85 44.1 216.96 45.96L214.16 48.73H219.64H219.63Z" fill="#221815"/>
<path d="M230.87 46.24C230.87 48.7 228.96 50.1 226.88 50.1C224.63 50.1 223.31 49.01 223.1 46.91L223.08 46.75H224.47L224.5 46.91C224.76 48.19 225.46 49 226.85 49C228.32 49 229.3 48.03 229.3 46.34C229.3 44.65 228.41 43.6 226.92 43.6C225.88 43.6 225.14 44.04 224.59 45.19H223.26L224.04 38.69H230.39V39.82H225.17L224.67 43.71L225.37 42.96C225.9 42.64 226.45 42.49 227.14 42.49C229.64 42.49 230.87 44.11 230.87 46.23V46.24Z" fill="#221815"/>
<path d="M241.79 46.11C241.79 48.49 240.11 50.1 237.84 50.1C235.34 50.1 233.89 48.53 233.89 44.82C233.89 40.32 235.92 38.47 238.22 38.47C240.13 38.47 241.49 39.65 241.67 41.48L241.69 41.64H240.2L240.17 41.48C239.91 40.22 239.25 39.57 238.11 39.57C236.6 39.57 235.53 40.79 235.42 44.04L236.05 43.04C236.65 42.54 237.28 42.33 238.09 42.33C240.42 42.33 241.8 43.9 241.8 46.12L241.79 46.11ZM240.23 46.27C240.23 44.71 239.53 43.42 237.83 43.42C236.57 43.42 235.5 44.38 235.5 46.24C235.5 47.8 236.42 48.99 237.83 48.99C239.24 48.99 240.23 47.89 240.23 46.27Z" fill="#221815"/>
<path d="M252.8 46.11C252.8 48.49 251.12 50.1 248.85 50.1C246.35 50.1 244.9 48.53 244.9 44.82C244.9 40.32 246.93 38.47 249.23 38.47C251.14 38.47 252.5 39.65 252.68 41.48L252.7 41.64H251.21L251.18 41.48C250.92 40.22 250.26 39.57 249.12 39.57C247.61 39.57 246.54 40.79 246.43 44.04L247.06 43.04C247.66 42.54 248.29 42.33 249.1 42.33C251.43 42.33 252.81 43.9 252.81 46.12L252.8 46.11ZM251.24 46.27C251.24 44.71 250.54 43.42 248.84 43.42C247.58 43.42 246.51 44.38 246.51 46.24C246.51 47.8 247.43 48.99 248.84 48.99C250.25 48.99 251.24 47.89 251.24 46.27Z" fill="#221815"/>
<path d="M263.89 46.74C263.89 49.19 261.86 50.11 259.9 50.11C257.78 50.11 255.91 49.19 255.91 46.74C255.91 45.39 256.93 44.34 258.13 43.97C257.13 43.58 256.4 42.69 256.4 41.47C256.4 39.62 257.81 38.46 260 38.46C262.19 38.46 263.6 39.63 263.6 41.47C263.6 42.7 262.79 43.58 261.75 43.95C262.95 44.34 263.89 45.39 263.89 46.74V46.74ZM262.33 46.8C262.33 45.65 261.65 44.61 259.92 44.61C258.19 44.61 257.47 45.65 257.47 46.8C257.47 48.08 258.3 49 259.93 49C261.56 49 262.33 48.08 262.33 46.8V46.8ZM257.91 41.52C257.91 42.65 258.59 43.51 259.98 43.51C261.37 43.51 262.09 42.65 262.09 41.52C262.09 40.45 261.41 39.56 260 39.56C258.59 39.56 257.91 40.45 257.91 41.52Z" fill="#221815"/>
<path d="M274.91 46.74C274.91 49.19 272.88 50.11 270.92 50.11C268.8 50.11 266.93 49.19 266.93 46.74C266.93 45.39 267.95 44.34 269.15 43.97C268.15 43.58 267.42 42.69 267.42 41.47C267.42 39.62 268.83 38.46 271.02 38.46C273.21 38.46 274.62 39.63 274.62 41.47C274.62 42.7 273.81 43.58 272.77 43.95C273.97 44.34 274.91 45.39 274.91 46.74V46.74ZM273.35 46.8C273.35 45.65 272.67 44.61 270.94 44.61C269.21 44.61 268.49 45.65 268.49 46.8C268.49 48.08 269.32 49 270.95 49C272.58 49 273.35 48.08 273.35 46.8V46.8ZM268.93 41.52C268.93 42.65 269.61 43.51 271 43.51C272.39 43.51 273.11 42.65 273.11 41.52C273.11 40.45 272.43 39.56 271.02 39.56C269.61 39.56 268.93 40.45 268.93 41.52V41.52Z" fill="#221815"/>
<path d="M33.76 17.66L32.54 19.92C30.49 19.21 27.32 17.07 24.79 13.48V20.89H22.82V13.72C20.61 16.71 17.57 18.7 14.34 20.09L14 19.36C16.53 17.97 19.74 15.33 21.54 12.66H16.95V5.75H22.82V3.94H15.13V2.72H22.82V0.200001H24.79V2.72H32.75V3.94H24.79V5.75H30.68V12.63H25.22C28.05 15.42 30.96 16.99 33.76 17.65V17.66ZM18.86 8.65H22.82V6.73H18.86V8.65ZM18.86 11.66H22.82V9.62H18.86V11.66ZM24.79 6.73V8.65H28.79V6.73H24.79ZM28.79 9.61H24.79V11.67H28.79V9.61Z" fill="#221815"/>
<path d="M57.0499 18.98C56.4099 19.6 55.1199 20 53.2199 20.09C50.6099 20.2 46.7599 20.18 44.1399 20.09C40.8599 19.98 39.7899 19.87 39.7899 16.33V2.68H38.4399V1.57H56.4199V2.68H41.7499V16.38C41.7499 18.02 41.9199 18.19 44.0799 18.28C46.7799 18.39 50.5399 18.41 53.2399 18.28C54.6699 18.21 55.3599 18.04 56.1299 17.35L57.0299 18.99L57.0499 18.98ZM43.0699 10.57H48.6799V16.63H43.0699V10.57V10.57ZM44.8699 15.68H46.8799V11.52H44.8699V15.68ZM53.1999 8.87H45.0399V4.07H53.1999V8.87ZM51.3599 5.02H46.8899V7.92H51.3599V5.02ZM55.5999 16.64H49.8599V10.58H55.5999V16.64ZM53.7999 11.53H51.6599V15.69H53.7999V11.53Z" fill="#221815"/>
<path d="M81.6901 17.48L80.9601 19.89C77.1701 20.16 72.4801 20.22 69.9801 19.4C68.6301 18.96 67.4101 18.25 66.3801 17.19C65.3501 18.67 64.0701 19.87 62.5901 20.73L62.1201 20.07C63.4701 18.99 64.6001 17.64 65.4801 16.02C64.6201 14.76 63.9801 13.12 63.6401 11.04L64.3901 10.82C64.7801 12.37 65.3101 13.7 66.0801 14.78C66.7901 13.1 67.2401 11.2 67.3901 9.09H65.3401C65.1001 9.53 64.8901 9.89 64.7201 10.15L63.0501 9.77C64.0801 8.07 65.3401 5.34 66.2601 2.78H62.7901V1.83H68.7201C68.0801 3.56 66.8601 6.17 65.8701 8.09H67.2601L67.5801 7.71L69.3601 8.29C69.0801 11.28 68.3101 13.84 67.1501 15.95C67.7701 16.5 68.5001 16.95 69.3801 17.28C72.1601 18.36 77.5401 17.99 81.6901 17.48V17.48ZM69.7401 3.78L69.6501 2.98C73.0301 2.6 77.2701 1.32 78.9001 0.370001L80.3601 2.07C79.4601 2.42 77.9801 2.78 76.3401 3.07V7.97H80.2801V8.97H76.3401V14.97H80.9201V15.97H68.9701V14.97H70.6001V6.73H72.1401V14.96H74.6701V3.34C72.9101 3.58 71.1401 3.76 69.7501 3.78H69.7401Z" fill="#221815"/>
<path d="M92.4302 0.66C92.0502 2.54 91.4902 4.22 90.8502 5.73V20.75H89.0102V9.18C88.1502 10.51 87.2802 11.55 86.5102 12.26L85.9502 11.68C87.4102 9.62 89.3502 5.86 90.2702 0.0900002L92.4302 0.67V0.66ZM104.33 4.29V15.55H102.45V14.09H99.4702V20.75H97.5002V14.09H94.5202V15.68H92.6802V4.29H97.5002V0.4H99.4702V4.29H104.33V4.29ZM94.5302 8.54H97.5102V5.29H94.5302V8.54ZM97.5102 13.1V9.54H94.5302V13.1H97.5102ZM102.46 5.29H99.4802V8.54H102.46V5.29V5.29ZM102.46 9.54H99.4802V13.1H102.46V9.54Z" fill="#221815"/>
<path d="M112.66 14.25C112.7 16.86 112.36 19.16 111.89 20.6L109.94 19.74C110.73 18.41 111.5 16.53 111.91 14.16L112.66 14.25V14.25ZM121.87 11.9C121.01 15.15 119.02 18.14 116.03 19.93L115.58 19.29C118.28 17.06 119.22 14.4 119.73 12.41H118C118.04 12.54 118.11 12.68 118.15 12.81L116.46 13.43C116.35 12.92 116.22 12.35 116.08 11.75C114.17 12.48 112.05 13.06 110.81 13.25L110.32 11.21C110.81 11.23 111.3 11.25 111.82 11.25C112.61 10.25 113.6 8.9 114.47 7.25C113.25 7.65 111.92 8 110.92 8.16L110.54 6.24C111.01 6.28 111.44 6.31 111.85 6.33C112.62 4.69 113.33 2.63 113.78 0.29L115.73 0.95C114.94 2.96 113.76 5 112.8 6.37C113.51 6.37 114.19 6.35 114.98 6.3C115.36 5.5 115.71 4.64 116.01 3.73L117.83 4.55C116.72 6.85 114.66 9.55 112.82 11.23C113.83 11.19 114.83 11.1 115.86 10.96C115.69 10.38 115.52 9.79 115.35 9.28L116.04 8.93C116.62 9.73 117.2 10.66 117.65 11.56H119.73L120.16 11.12L121.91 11.89L121.87 11.9ZM114.12 13.91C114.76 15.61 115.3 17.49 115.49 18.82L113.56 19.2C113.64 17.81 113.58 15.88 113.41 14.11L114.12 13.91V13.91ZM116.35 17.3C115.96 15.91 115.6 14.93 115.04 13.56L115.64 13.18C116.52 14.2 117.25 15.15 117.87 16.39L116.35 17.3ZM129.62 18.03L128.01 20.13C126.47 19.02 124.88 16.46 124.05 13.4V18.56C124.05 20.84 122.36 22.17 118.93 19.53L119.19 18.78C122.04 19.64 122.21 19.09 122.21 18.09V10.07H118.38V2.94H121.4C121.72 1.92 121.89 1.04 122.06 0.0200005L124.2 0.600001C123.62 1.51 123.04 2.28 122.42 2.95H127.69V10.07H124.05V10.29C124.24 11.42 124.59 12.46 125.08 13.39C125.79 12.57 126.34 11.82 126.9 10.69L128.61 11.95C127.6 12.92 126.55 13.54 125.48 14.12C126.57 15.87 128.07 17.2 129.61 18.04L129.62 18.03ZM120.18 5.93H125.9V3.94H120.18V5.93ZM120.18 9.07H125.9V6.88H120.18V9.07Z" fill="#221815"/>
<path d="M151.47 1.06L137.47 20.97L136.31 20.09L150.31 0.18L151.47 1.07V1.06Z" fill="#C88C2D"/>
<path d="M163.22 5.64V20.88H161.25V9.12C160.41 10.38 159.52 11.51 158.59 12.44L158.05 11.84C160.17 8.96 162.05 4.45 162.95 0L165.11 0.62C164.6 2.41 163.95 4.09 163.2 5.64H163.22ZM177.31 17.61V18.94H164.19V17.61H177.31ZM176.11 5.77H165.6V4.53H176.11V5.77Z" fill="#221815"/>
<path d="M186.38 9.27V20.78H184.54V11.7C183.9 12.43 183.19 13.09 182.46 13.63L181.99 13.01C183.79 10.91 185.44 7.61 186.34 4.56L188.44 5.44C187.95 6.59 187.26 7.94 186.38 9.27V9.27ZM182.48 7.21L182.01 6.59C183.66 4.71 184.81 2.34 185.59 0.0599995L187.65 0.989999C186.43 3.27 184.44 5.86 182.49 7.21H182.48ZM189.57 14.33C189.66 16.37 189.31 18.53 188.69 19.86L186.78 18.86C187.79 17.69 188.47 16.23 188.81 14.24L189.56 14.33H189.57ZM201.19 12.43H187.66V11.43H201.19V12.43ZM193.27 3.67H187.94V2.67H193.27V0.309999H195.15V2.68H200.8V3.68H195.15V5.25H199.75V10.38H188.94V5.24H193.26V3.67H193.27ZM197.83 15.57C199.11 19.4 198 20.06 196.33 20.17C195.35 20.24 194.17 20.24 193.16 20.19C191.06 20.1 190.5 19.86 190.5 17.91V13.6H192.34V17.45C192.34 18.25 192.51 18.42 193.43 18.49C194.22 18.56 195.42 18.53 196.21 18.42C196.94 18.31 197.13 18.13 197.05 15.57H197.82H197.83ZM192.09 6.23H190.74V9.37H192.09V6.23ZM193.35 12.65C194.33 13.2 195.79 14.33 196.65 15.37L195.22 16.7C194.49 15.42 193.72 14.31 192.87 13.23L193.36 12.65H193.35ZM193.59 9.38H194.98V6.24H193.59V9.38ZM196.48 9.38H197.96V6.24H196.48V9.38ZM201.49 18.34L199.71 19.09C199.32 17.63 198.6 15.64 197.93 14.11L198.59 13.73C199.85 15.08 200.9 16.89 201.48 18.33L201.49 18.34Z" fill="#221815"/>
<path d="M225.47 16.79L224.02 19.38C221.71 18.16 218.43 15.35 216.72 11.66V20.97H214.67V11.75C212.98 14.85 209.66 17.7 206.49 19.36L206.06 18.63C209.57 16.17 211.88 13.39 213.42 10.47H206.76V9.25H214.66V5.75H208.26V4.64H214.66V0.379999H216.71V4.65H223.03V5.76H216.71V9.26H224.65V10.48H217.09C219.21 13.64 222.66 15.79 225.46 16.81L225.47 16.79Z" fill="#221815"/>
<path d="M249.02 17.04L247.61 19.47C244.78 17.79 242.41 15.51 240.61 12.08V20.91H238.64V12.88C236.97 15.25 234.14 17.9 230.65 19.52L230.31 18.79C232.92 17.29 236.09 14.1 237.76 11.27L236.58 12.11C236.17 11.03 235.7 10.01 235.3 9.17C234.59 11.07 233.5 12.75 231.55 14.35L231.04 13.75C233.07 11.27 233.84 8.79 234.1 5.41L236.13 5.81C236 6.58 235.85 7.31 235.66 8.02C236.52 8.84 237.48 9.83 238.06 10.74C238.3 10.3 238.49 9.88 238.64 9.48V4.78H231.08V3.56H238.64V0.309999H240.61V3.56H248.25V4.78H240.61V10.31C240.89 10.71 241.17 11.08 241.45 11.42C242.61 9.63 243.16 7.97 243.51 5.36L245.52 5.89C245.28 6.71 245.03 7.46 244.73 8.15C245.99 9.08 247.17 10.21 247.88 11.05L246.38 12.49C245.76 11.34 245.01 10.12 244.28 9.1C243.66 10.32 242.93 11.29 242.03 12.13C244.09 14.52 246.23 15.89 249.03 17.04H249.02Z" fill="#221815"/>
<path d="M269.1 19.43C266.66 17.22 265.52 12.22 265.14 6.53H254.48V5.31H265.06C264.97 3.67 264.95 2.01 264.97 0.35L266.98 0.39C266.94 2.05 266.94 3.71 267 5.3H272.67V6.52H267.04C267.34 11.28 268.22 15.33 270.06 17.3C271.52 18.85 271.45 17.63 271.47 14.09H272.24C273.89 19.27 272.33 22.36 269.09 19.42L269.1 19.43ZM265.52 15.07L265.78 15.82C263 17.21 258.31 18.65 255.42 19.23L254.69 16.91C256.04 16.82 257.54 16.64 259.04 16.42V11.04H255.08V9.93H264.82V11.04H261.01V16.08C262.68 15.77 264.26 15.42 265.53 15.06L265.52 15.07ZM270.38 4.87C269.59 3.65 268.3 1.88 267.6 1.02L268.11 0.4C269.35 1.11 271.13 2.44 271.92 3.34L270.38 4.87V4.87Z" fill="#221815"/>
</svg>
