<?xml version="1.0" encoding="utf-8"?>
<!-- Generator: Adobe Illustrator 27.0.0, SVG Export Plug-In . SVG Version: 6.00 Build 0)  -->
<svg version="1.1" id="圖層_1" xmlns="http://www.w3.org/2000/svg" xmlns:xlink="http://www.w3.org/1999/xlink" x="0px" y="0px"
	 viewBox="0 0 951 88" style="enable-background:new 0 0 951 88;" xml:space="preserve">
<style type="text/css">
	.st0{fill:#221815;}
	.st1{fill:#D28507;}
	.st2{fill:#D89038;}
</style>
<path class="st0" d="M11.1,78c0,3.6-2,6.1-5.6,6.1S0,81.5,0,78s2-6.1,5.6-6.1S11.1,74.4,11.1,78L11.1,78z M9.5,78
	C9.5,74.9,8,73,5.6,73S1.6,74.9,1.6,78s1.4,5,3.9,5S9.4,81,9.5,78L9.5,78z"/>
<path class="st0" d="M22,78.8v5.1h-1.5v-5c0-0.5,0-0.8,0-1.3c-0.1-1.1-0.7-1.8-2.1-1.8s-2.6,1-2.6,4.1v4h-1.5v-9h1.5v1.6l0.6-1
	c0.8-0.6,1.4-0.8,2.4-0.8c2,0,3.1,1.1,3.2,2.6C22,77.7,22,78,22,78.8L22,78.8z"/>
<path class="st0" d="M33.2,79.8h-6.5c0.1,2.4,1.3,3.2,2.6,3.2c1.2,0,2.1-0.7,2.3-2h1.5c-0.4,2.2-2.1,3.2-3.9,3.2
	c-2.4,0-4.1-1.5-4.1-4.7c0-2.9,1.8-4.8,4.3-4.8s3.9,1.8,3.9,4.5C33.2,79.2,33.2,79.4,33.2,79.8L33.2,79.8z M26.6,78.6h5.1
	c-0.1-1.9-0.9-2.9-2.4-2.9C27.8,75.7,26.8,76.7,26.6,78.6z"/>
<path class="st0" d="M49.2,78.8v5.1h-1.5v-5c0-0.5,0-0.8,0-1.3c-0.1-1.1-0.7-1.9-2.1-1.8c-1.4,0-2.6,1-2.6,4.1v4h-1.5V71.2H43v5.1
	l0.6-1c0.8-0.6,1.4-0.8,2.3-0.8c2,0,3.1,1.1,3.2,2.6C49.2,77.7,49.2,78,49.2,78.8L49.2,78.8z"/>
<path class="st0" d="M58,82.5l-0.5,1c-0.6,0.4-1.4,0.6-2.3,0.6c-1.6,0-2.9-0.9-2.9-2.6c0-2,1.5-3.1,5.1-3.1H58v-0.2
	c0-0.4,0-0.8,0-1.1c-0.1-0.8-0.5-1.4-1.8-1.4s-1.8,0.7-1.9,1.9h-1.5c0.1-1.9,1.5-3,3.5-3c2.1,0,3,0.9,3.2,2.4c0,0.4,0,0.8,0,1.2v3.4
	c0,0.7,0,1.3,0.2,2.3h-1.5L58,82.5L58,82.5z M58,80.4v-0.9c-2.5-0.2-4,0.3-4,1.9c0,1.1,0.7,1.6,1.8,1.6C57.1,82.9,58,82.1,58,80.4
	L58,80.4z"/>
<path class="st0" d="M72,79.2c0,3.3-2.1,4.9-4.4,4.9c-0.8,0-1.7-0.2-2.2-0.6l-0.6-0.9v4.6h-1.5V74.8h1.5v1.5l0.7-1
	c0.5-0.4,1.5-0.7,2.4-0.7C70.5,74.6,72,76.6,72,79.2L72,79.2z M70.4,79.3c0-2-0.9-3.7-2.7-3.7c-1.5,0-2.8,0.9-2.8,3.5v0.5
	c0,2.3,1.5,3.2,2.8,3.2C69.2,82.9,70.4,81.7,70.4,79.3L70.4,79.3z"/>
<path class="st0" d="M83.8,79.2c0,3.3-2.1,4.9-4.4,4.9c-0.8,0-1.7-0.2-2.2-0.6l-0.6-0.9v4.6h-1.5V74.8h1.5v1.5l0.7-1
	c0.5-0.4,1.5-0.7,2.4-0.7C82.3,74.6,83.7,76.6,83.8,79.2L83.8,79.2z M82.2,79.3c0-2-0.9-3.7-2.7-3.7c-1.5,0-2.8,0.9-2.8,3.5v0.5
	c0,2.3,1.5,3.2,2.8,3.2C80.9,82.9,82.2,81.7,82.2,79.3L82.2,79.3z"/>
<path class="st0" d="M90.5,84.6c-0.7,1.9-1.7,2.8-3.2,2.8c-0.3,0-0.5,0-0.8,0v-1.2c0.2,0,0.4,0,0.5,0c0.9,0,1.5-0.4,2-1.6l0.1-0.3
	l-3.6-9.5h1.7l2.7,7.9l2.7-7.9h1.6L90.5,84.6L90.5,84.6z"/>
<path class="st0" d="M103.4,81.2c0,0.3,0,0.6,0,0.8c0,0.6,0.3,0.8,1.1,0.7v1.1c-0.3,0-0.7,0.1-1,0.1c-0.9,0-1.5-0.3-1.5-1.4
	c0-0.3,0-0.7,0-1.2v-10h1.5V81.2z"/>
<path class="st0" d="M109.2,72.8c0,0.5-0.4,0.9-0.9,0.9s-0.9-0.4-0.9-0.9s0.4-0.9,0.9-0.9S109.2,72.3,109.2,72.8z M107.6,83.8v-9
	h1.5v9H107.6z"/>
<path class="st0" d="M114.5,74v0.9h1.8V76h-1.8v7.8H113V76h-1v-1.1h1v-0.8c0-0.3,0-0.8,0-1.1c0.2-1.3,1-2,2.4-2c0.4,0,0.7,0,1,0.1
	v1.2c-1.1-0.2-1.8,0-2,0.8C114.5,73.3,114.5,73.7,114.5,74z"/>
<path class="st0" d="M126.6,79.8h-6.5c0.1,2.4,1.3,3.2,2.6,3.2c1.2,0,2.1-0.7,2.3-2h1.5c-0.4,2.2-2.1,3.2-3.9,3.2
	c-2.3,0-4.1-1.5-4.1-4.7c0-2.9,1.8-4.8,4.3-4.8c2.5,0,3.9,1.8,3.9,4.5C126.7,79.2,126.7,79.4,126.6,79.8L126.6,79.8z M120.1,78.6
	h5.1c-0.1-1.9-0.9-2.9-2.4-2.9S120.3,76.7,120.1,78.6z"/>
<path class="st0" d="M144.1,83.8h-1.7l-2-7.6l-2,7.6h-1.7l-2.9-9h1.7l2.1,7.6l2-7.6h1.8l2,7.6l2.1-7.6h1.6L144.1,83.8L144.1,83.8z"
	/>
<path class="st0" d="M151.4,72.8c0,0.5-0.4,0.9-0.9,0.9c-0.5,0-0.9-0.4-0.9-0.9s0.4-0.9,0.9-0.9C151,71.8,151.4,72.3,151.4,72.8z
	 M149.7,83.8v-9h1.5v9H149.7z"/>
<path class="st0" d="M156.9,81.2c0,0.3,0,0.5,0,0.7c0.1,0.9,0.4,1.1,1.6,0.9v1.1c-0.4,0.1-0.8,0.1-1.2,0.1c-1.1,0-1.7-0.5-1.8-1.6
	c0-0.2,0-0.6,0-1.1V76h-1.2v-1.1h1.2v-2.1h1.5v2.1h1.7V76h-1.7V81.2z"/>
<path class="st0" d="M169.4,78.8v5.1h-1.5v-5c0-0.5,0-0.8,0-1.3c-0.1-1.1-0.7-1.9-2.1-1.8c-1.4,0-2.6,1-2.6,4.1v4h-1.5V71.2h1.5v5.1
	l0.6-1c0.8-0.6,1.4-0.8,2.3-0.8c2,0,3.1,1.1,3.2,2.6C169.4,77.7,169.4,78,169.4,78.8L169.4,78.8z"/>
<path class="st0" d="M179.6,84.6c0,0.3,0,0.8,0,1.1c-0.1,1.1-0.7,1.7-2.1,1.7c-0.3,0-0.5,0-0.7,0v-1.2c0.9,0.1,1.3-0.2,1.4-0.8
	c0-0.2,0-0.5,0-0.8v-9.9h1.5L179.6,84.6L179.6,84.6z M179.9,72.8c0,0.5-0.4,0.9-0.9,0.9s-0.9-0.4-0.9-0.9s0.4-0.9,0.9-0.9
	S179.9,72.3,179.9,72.8z"/>
<path class="st0" d="M191.1,83.8h-1.5v-1.5l-0.6,1c-0.8,0.6-1.4,0.7-2.3,0.7c-1.9,0-3-1.1-3.2-2.3c-0.1-0.5-0.1-0.8-0.1-1.6v-5.4
	h1.5v5.1c0,0.3,0,0.8,0.1,1.2c0.1,1,0.9,1.7,2.1,1.7c1.4,0,2.5-1.1,2.5-4.1v-4h1.5L191.1,83.8L191.1,83.8z"/>
<path class="st0" d="M201,77.4h-1.5c-0.2-1-0.8-1.7-1.9-1.7S196,76.3,196,77c0,0.9,0.8,1.3,2,1.6c2.1,0.5,3.1,1.4,3.1,2.9
	c0,1.7-1.4,2.5-3.4,2.5c-1.9,0-3.3-0.8-3.5-2.9h1.5c0.2,1.3,1.1,1.8,2.1,1.8c1,0,1.8-0.4,1.8-1.3c0-0.9-0.6-1.3-2.1-1.7
	c-1.6-0.4-2.9-1.1-2.9-2.7c0-1.6,1.3-2.6,3.1-2.6C199.6,74.6,200.8,75.7,201,77.4L201,77.4z"/>
<path class="st0" d="M205.9,81.2c0,0.3,0,0.5,0,0.7c0.1,0.9,0.4,1.1,1.6,0.9v1.1c-0.4,0.1-0.8,0.1-1.2,0.1c-1.1,0-1.7-0.5-1.8-1.6
	c0-0.2,0-0.6,0-1.1V76h-1.2v-1.1h1.2v-2.1h1.5v2.1h1.7V76h-1.7V81.2z"/>
<path class="st0" d="M220.9,73.3v10.6h-1.5V73.3h-4.2v-1.2h9.8v1.2H220.9z"/>
<path class="st0" d="M236.8,83.8h-1.7l-2-7.6l-2,7.6h-1.7l-2.9-9h1.7l2.1,7.6l2-7.6h1.8l2,7.6l2.1-7.6h1.6L236.8,83.8L236.8,83.8z"
	/>
<path class="st0" d="M250.6,79.3c0,2.5-1.4,4.8-4.5,4.8s-4.5-2.2-4.5-4.8s1.4-4.8,4.5-4.8S250.6,76.8,250.6,79.3z M249,79.3
	c0-2.1-1.1-3.6-2.9-3.6c-1.8,0-2.9,1.5-2.9,3.6s1,3.6,2.9,3.6C247.9,82.9,249,81.4,249,79.3z"/>
<path class="st0" d="M267,79.3c0,2.5-1.4,4.8-4.5,4.8s-4.5-2.2-4.5-4.8s1.4-4.8,4.5-4.8S267,76.8,267,79.3z M265.4,79.3
	c0-2.1-1.1-3.6-2.9-3.6s-2.9,1.5-2.9,3.6s1,3.6,2.9,3.6S265.4,81.4,265.4,79.3z"/>
<path class="st0" d="M271.6,74v0.9h1.9V76h-1.9v7.8h-1.5V76h-1v-1.1h1v-0.8c0-0.3,0-0.8,0.1-1.1c0.1-1.3,1-2,2.4-2
	c0.4,0,0.7,0,1,0.1v1.2c-1.1-0.2-1.8,0-2,0.8C271.6,73.3,271.6,73.7,271.6,74z"/>
<path class="st0" d="M288.9,83.8h-1.5v-1.5l-0.6,1c-0.8,0.6-1.4,0.7-2.4,0.7c-1.9,0-3-1.1-3.2-2.3c-0.1-0.5-0.1-0.8-0.1-1.6v-5.4
	h1.5v5.1c0,0.3,0,0.8,0.1,1.2c0.1,1,0.9,1.7,2.1,1.7c1.4,0,2.5-1.1,2.5-4.1v-4h1.5L288.9,83.8L288.9,83.8z"/>
<path class="st0" d="M298.8,77.4h-1.5c-0.2-1-0.8-1.7-1.9-1.7c-1.1,0-1.5,0.6-1.5,1.3c0,0.9,0.8,1.3,2,1.6c2.1,0.5,3.1,1.4,3.1,2.9
	c0,1.7-1.4,2.5-3.3,2.5c-1.9,0-3.3-0.8-3.5-2.9h1.5c0.2,1.3,1.1,1.8,2.1,1.8c1,0,1.8-0.4,1.8-1.3c0-0.9-0.6-1.3-2.1-1.7
	c-1.6-0.4-2.9-1.1-2.9-2.7c0-1.6,1.3-2.6,3.1-2.6C297.5,74.6,298.6,75.7,298.8,77.4L298.8,77.4z"/>
<path class="st0" d="M314.7,78.8v5.1h-1.5v-5c0-0.5,0-0.8,0-1.3c-0.1-1.1-0.7-1.9-2.1-1.8c-1.4,0-2.6,1-2.6,4.1v4H307V71.2h1.5v5.1
	l0.6-1c0.8-0.6,1.4-0.8,2.4-0.8c2,0,3.1,1.1,3.2,2.6C314.7,77.7,314.7,78,314.7,78.8L314.7,78.8z"/>
<path class="st0" d="M323.5,82.5l-0.5,1c-0.6,0.4-1.4,0.6-2.3,0.6c-1.6,0-2.9-0.9-2.9-2.6c0-2,1.5-3.1,5.1-3.1h0.6v-0.2
	c0-0.4,0-0.8,0-1.1c-0.1-0.8-0.5-1.4-1.8-1.4c-1.2,0-1.8,0.7-1.9,1.9h-1.5c0.1-1.9,1.5-3,3.5-3c2.1,0,3.1,0.9,3.2,2.4
	c0,0.4,0,0.8,0,1.2v3.4c0,0.7,0,1.3,0.2,2.3h-1.5L323.5,82.5L323.5,82.5z M323.5,80.4v-0.9c-2.5-0.2-4.1,0.3-4.1,1.9
	c0,1.1,0.7,1.6,1.8,1.6C322.6,82.9,323.5,82.1,323.5,80.4L323.5,80.4z"/>
<path class="st0" d="M332.8,83.8H331l-3.4-9h1.6l2.8,8l2.7-8h1.6L332.8,83.8z"/>
<path class="st0" d="M340.6,72.8c0,0.5-0.4,0.9-0.9,0.9s-0.9-0.4-0.9-0.9s0.4-0.9,0.9-0.9S340.6,72.3,340.6,72.8z M339,83.8v-9h1.5
	v9H339z"/>
<path class="st0" d="M352,78.8v5.1h-1.5v-5c0-0.5,0-0.8,0-1.3c-0.1-1.1-0.7-1.8-2.1-1.8s-2.6,1-2.6,4.1v4h-1.5v-9h1.5v1.6l0.6-1
	c0.8-0.6,1.4-0.8,2.3-0.8c2,0,3.1,1.1,3.2,2.6C352,77.7,352,78,352,78.8L352,78.8z"/>
<path class="st0" d="M363.7,81.6c0,0.6,0,1.3,0,1.8c-0.1,2.6-1.7,4-4.3,4c-2.6,0-3.9-1.1-4-3l0-0.2h1.5l0,0.2c0.1,1.1,1,1.9,2.5,1.9
	c1.8,0,2.8-1,2.8-2.8c0-0.4,0-0.7,0-1v-0.1l-0.7,1c-0.5,0.4-1.5,0.7-2.4,0.7c-2.6,0-4.1-2-4.1-4.6c0-3.3,2.1-4.9,4.4-4.9
	c0.8,0,1.7,0.2,2.2,0.6l0.6,0.9v-1.2h1.5V81.6L363.7,81.6z M362.2,79.4v-0.5c0-2.3-1.5-3.2-2.8-3.2c-1.6,0-2.8,1.2-2.8,3.6
	c0,2,0.9,3.7,2.7,3.7C360.9,82.9,362.2,82,362.2,79.4L362.2,79.4z"/>
<path class="st0" d="M377.6,73.3v10.6h-1.5V73.3H372v-1.2h9.8v1.2H377.6L377.6,73.3z"/>
<path class="st0" d="M391.7,78.8v5.1h-1.5v-5c0-0.5,0-0.8,0-1.3c-0.1-1.1-0.7-1.9-2.1-1.8c-1.4,0-2.6,1-2.6,4.1v4h-1.5V71.2h1.5v5.1
	l0.6-1c0.8-0.6,1.4-0.8,2.4-0.8c2,0,3.1,1.1,3.2,2.6C391.7,77.7,391.7,78,391.7,78.8L391.7,78.8z"/>
<path class="st0" d="M399.7,74.7v1.1c-1.5-0.1-2.7,0.8-2.7,2.9v5.1h-1.5v-9h1.5v1.4l0.8-1.2c0.4-0.3,0.8-0.4,1.3-0.4
	C399.3,74.6,399.5,74.6,399.7,74.7L399.7,74.7z"/>
<path class="st0" d="M409.6,79.8h-6.5c0.1,2.4,1.3,3.2,2.6,3.2c1.2,0,2.1-0.7,2.3-2h1.5c-0.4,2.2-2.1,3.2-3.9,3.2
	c-2.4,0-4.1-1.5-4.1-4.7c0-2.9,1.8-4.8,4.3-4.8s3.9,1.8,3.9,4.5C409.7,79.2,409.7,79.4,409.6,79.8L409.6,79.8z M403.1,78.6h5.1
	c-0.1-1.9-0.9-2.9-2.4-2.9S403.3,76.7,403.1,78.6z"/>
<path class="st0" d="M420.3,79.8h-6.5c0.1,2.4,1.3,3.2,2.6,3.2c1.2,0,2.1-0.7,2.3-2h1.5c-0.4,2.2-2.1,3.2-3.9,3.2
	c-2.3,0-4.1-1.5-4.1-4.7c0-2.9,1.8-4.8,4.3-4.8s3.9,1.8,3.9,4.5C420.4,79.2,420.4,79.4,420.3,79.8L420.3,79.8z M413.8,78.6h5.1
	c-0.1-1.9-0.9-2.9-2.4-2.9S414,76.7,413.8,78.6z"/>
<path class="st0" d="M440.8,78.3v5.5h-1.5V79c0-0.8,0-1.3-0.1-1.8c-0.1-1-0.8-1.5-1.8-1.5c-1.1,0-2,0.9-2,3.6v4.5H434V79
	c0-0.8,0-1.3-0.1-1.8c-0.1-1-0.8-1.5-1.8-1.5c-1.1,0-2,0.9-2,3.6v4.5h-1.5v-9h1.5v1.3l0.6-1c0.5-0.4,1.1-0.5,1.9-0.5
	c1.4,0,2.3,0.7,2.6,1.7l0.8-1.2c0.5-0.4,1.1-0.5,1.9-0.5c1.6,0,2.5,1,2.7,2.2C440.8,77.2,440.8,77.6,440.8,78.3L440.8,78.3z"/>
<path class="st0" d="M452,79.8h-6.5c0.1,2.4,1.3,3.2,2.6,3.2c1.2,0,2.1-0.7,2.3-2h1.5c-0.4,2.2-2.1,3.2-3.9,3.2
	c-2.4,0-4.1-1.5-4.1-4.7c0-2.9,1.8-4.8,4.3-4.8s3.9,1.8,3.9,4.5C452,79.2,452,79.4,452,79.8L452,79.8z M445.5,78.6h5.1
	c-0.1-1.9-0.9-2.9-2.4-2.9C446.6,75.7,445.6,76.7,445.5,78.6z"/>
<path class="st0" d="M460.3,82.5l-0.5,1c-0.6,0.4-1.4,0.6-2.3,0.6c-1.6,0-2.9-0.9-2.9-2.6c0-2,1.5-3.1,5.1-3.1h0.6v-0.2
	c0-0.4,0-0.8,0-1.1c-0.1-0.8-0.5-1.4-1.8-1.4c-1.2,0-1.8,0.7-1.9,1.9h-1.5c0.1-1.9,1.5-3,3.5-3c2.1,0,3,0.9,3.2,2.4
	c0,0.4,0.1,0.8,0.1,1.2v3.4c0,0.7,0,1.3,0.2,2.3h-1.5L460.3,82.5L460.3,82.5z M460.3,80.4v-0.9c-2.5-0.2-4,0.3-4,1.9
	c0,1.1,0.7,1.6,1.8,1.6C459.4,82.9,460.3,82.1,460.3,80.4L460.3,80.4z"/>
<path class="st0" d="M467.1,81.2c0,0.3,0,0.6,0,0.8c0,0.6,0.3,0.8,1.1,0.7v1.1c-0.3,0-0.7,0.1-1,0.1c-0.9,0-1.5-0.3-1.5-1.4
	c0-0.3,0-0.7,0-1.2v-10h1.5V81.2z"/>
<path class="st0" d="M477.2,77.4h-1.5c-0.2-1-0.9-1.7-1.9-1.7s-1.5,0.6-1.5,1.3c0,0.9,0.8,1.3,2,1.6c2.1,0.5,3.1,1.4,3.1,2.9
	c0,1.7-1.5,2.5-3.4,2.5s-3.3-0.8-3.5-2.9h1.5c0.2,1.3,1.1,1.8,2.1,1.8c1,0,1.8-0.4,1.8-1.3c0-0.9-0.6-1.3-2.1-1.7
	c-1.6-0.4-2.9-1.1-2.9-2.7c0-1.6,1.3-2.6,3.1-2.6C475.9,74.6,477,75.7,477.2,77.4L477.2,77.4z"/>
<path class="st0" d="M487.2,81.2c0,0.3,0,0.5,0,0.7c0.1,0.9,0.4,1.1,1.6,0.9v1.1c-0.4,0.1-0.8,0.1-1.2,0.1c-1.1,0-1.7-0.5-1.8-1.6
	c0-0.2,0-0.6,0-1.1V76h-1.2v-1.1h1.2v-2.1h1.5v2.1h1.7V76h-1.7V81.2z"/>
<path class="st0" d="M500.1,79.3c0,2.5-1.4,4.8-4.5,4.8s-4.5-2.2-4.5-4.8s1.4-4.8,4.5-4.8S500.1,76.8,500.1,79.3z M498.5,79.3
	c0-2.1-1-3.6-2.9-3.6c-1.8,0-2.9,1.5-2.9,3.6s1,3.6,2.9,3.6S498.5,81.4,498.5,79.3z"/>
<path class="st0" d="M511.1,81.6c0,0.6,0,1.3,0,1.8c-0.1,2.6-1.7,4-4.3,4c-2.6,0-3.8-1.1-4-3l0-0.2h1.5l0,0.2c0.1,1.1,1,1.9,2.6,1.9
	c1.8,0,2.8-1,2.8-2.8c0-0.4,0-0.7,0-1v-0.1l-0.7,1c-0.5,0.4-1.5,0.7-2.4,0.7c-2.6,0-4.1-2-4.1-4.6c0-3.3,2.1-4.9,4.4-4.9
	c0.8,0,1.7,0.2,2.2,0.6l0.6,0.9v-1.2h1.5V81.6L511.1,81.6z M509.7,79.4v-0.5c0-2.3-1.5-3.2-2.8-3.2c-1.6,0-2.8,1.2-2.8,3.6
	c0,2,0.9,3.7,2.7,3.7C508.3,82.9,509.7,82,509.7,79.4L509.7,79.4z"/>
<path class="st0" d="M522.4,79.8h-6.5c0.1,2.4,1.3,3.2,2.6,3.2c1.2,0,2.1-0.7,2.3-2h1.5c-0.4,2.2-2.1,3.2-3.9,3.2
	c-2.3,0-4.1-1.5-4.1-4.7c0-2.9,1.8-4.8,4.3-4.8c2.5,0,3.9,1.8,3.9,4.5C522.5,79.2,522.5,79.4,522.4,79.8L522.4,79.8z M515.9,78.6
	h5.1c-0.1-1.9-0.9-2.9-2.4-2.9S516.1,76.7,515.9,78.6z"/>
<path class="st0" d="M527.5,81.2c0,0.3,0,0.5,0,0.7c0.1,0.9,0.4,1.1,1.6,0.9v1.1c-0.4,0.1-0.8,0.1-1.2,0.1c-1.1,0-1.7-0.5-1.8-1.6
	c0-0.2,0-0.6,0-1.1V76h-1.2v-1.1h1.2v-2.1h1.5v2.1h1.7V76h-1.7V81.2z"/>
<path class="st0" d="M540.1,78.8v5.1h-1.5v-5c0-0.5,0-0.8,0-1.3c-0.1-1.1-0.7-1.9-2.1-1.8c-1.4,0-2.6,1-2.6,4.1v4h-1.5V71.2h1.5v5.1
	l0.6-1c0.8-0.6,1.4-0.8,2.4-0.8c2,0,3.1,1.1,3.2,2.6C540.1,77.7,540.1,78,540.1,78.8L540.1,78.8z"/>
<path class="st0" d="M551.3,79.8h-6.5c0.1,2.4,1.3,3.2,2.6,3.2c1.2,0,2.1-0.7,2.3-2h1.5c-0.4,2.2-2.1,3.2-3.9,3.2
	c-2.4,0-4.1-1.5-4.1-4.7c0-2.9,1.8-4.8,4.3-4.8c2.5,0,3.9,1.8,3.9,4.5C551.3,79.2,551.3,79.4,551.3,79.8L551.3,79.8z M544.8,78.6
	h5.1c-0.1-1.9-0.9-2.9-2.4-2.9C545.9,75.7,544.9,76.7,544.8,78.6z"/>
<path class="st0" d="M558.8,74.7v1.1c-1.5-0.1-2.7,0.8-2.7,2.9v5.1h-1.5v-9h1.5v1.4l0.8-1.2c0.4-0.3,0.8-0.4,1.3-0.4
	C558.4,74.6,558.6,74.6,558.8,74.7L558.8,74.7z"/>
<path class="st0" d="M574,79.8h-6.5c0.1,2.4,1.3,3.2,2.6,3.2c1.2,0,2.1-0.7,2.3-2h1.5c-0.4,2.2-2.1,3.2-3.9,3.2
	c-2.4,0-4.1-1.5-4.1-4.7c0-2.9,1.8-4.8,4.3-4.8c2.5,0,3.9,1.8,3.9,4.5C574,79.2,574,79.4,574,79.8L574,79.8z M567.5,78.6h5.1
	c-0.1-1.9-0.9-2.9-2.4-2.9C568.6,75.7,567.6,76.7,567.5,78.6z"/>
<path class="st0" d="M581.3,83.8h-1.8l-3.4-9h1.6l2.8,8l2.7-8h1.5L581.3,83.8L581.3,83.8z"/>
<path class="st0" d="M594.6,79.8h-6.5c0.1,2.4,1.3,3.2,2.6,3.2c1.2,0,2.1-0.7,2.3-2h1.5c-0.4,2.2-2.1,3.2-3.9,3.2
	c-2.3,0-4.1-1.5-4.1-4.7c0-2.9,1.8-4.8,4.3-4.8c2.5,0,3.9,1.8,3.9,4.5C594.7,79.2,594.7,79.4,594.6,79.8L594.6,79.8z M588.1,78.6
	h5.1c-0.1-1.9-0.9-2.9-2.4-2.9C589.3,75.7,588.3,76.7,588.1,78.6z"/>
<path class="st0" d="M602.1,74.7v1.1c-1.5-0.1-2.7,0.8-2.7,2.9v5.1H598v-9h1.5v1.4l0.8-1.2c0.4-0.3,0.8-0.4,1.3-0.4
	C601.8,74.6,602,74.6,602.1,74.7L602.1,74.7z"/>
<path class="st0" d="M608.6,84.6c-0.7,1.9-1.7,2.8-3.2,2.8c-0.3,0-0.5,0-0.8,0v-1.2c0.2,0,0.4,0,0.5,0c0.9,0,1.5-0.4,2-1.6l0.1-0.3
	l-3.6-9.5h1.6l2.7,7.9l2.7-7.9h1.6L608.6,84.6L608.6,84.6z"/>
<path class="st0" d="M627.9,83.8h-1.5v-1.5l-0.7,1c-0.5,0.4-1.5,0.7-2.4,0.7c-2.6,0-4.1-2-4.1-4.6c0-3.3,2.1-4.9,4.4-4.9
	c0.8,0,1.7,0.2,2.2,0.6l0.6,0.9v-4.7h1.5L627.9,83.8L627.9,83.8z M626.5,79.4v-0.5c0-2.3-1.5-3.2-2.8-3.2c-1.6,0-2.8,1.2-2.8,3.6
	c0,2,0.9,3.7,2.7,3.7C625.1,82.9,626.5,82,626.5,79.4L626.5,79.4z"/>
<path class="st0" d="M636.9,82.5l-0.5,1c-0.6,0.4-1.4,0.6-2.3,0.6c-1.6,0-2.9-0.9-2.9-2.6c0-2,1.5-3.1,5.1-3.1h0.6v-0.2
	c0-0.4,0-0.8,0-1.1c-0.1-0.8-0.5-1.4-1.8-1.4c-1.2,0-1.8,0.7-1.9,1.9h-1.5c0.1-1.9,1.5-3,3.5-3c2.1,0,3,0.9,3.2,2.4
	c0,0.4,0,0.8,0,1.2v3.4c0,0.7,0,1.3,0.2,2.3h-1.5L636.9,82.5L636.9,82.5z M636.9,80.4v-0.9c-2.5-0.2-4,0.3-4,1.9
	c0,1.1,0.7,1.6,1.8,1.6C636,82.9,636.9,82.1,636.9,80.4L636.9,80.4z"/>
<path class="st0" d="M645.9,84.6c-0.7,1.9-1.7,2.8-3.2,2.8c-0.3,0-0.5,0-0.8,0v-1.2c0.2,0,0.4,0,0.5,0c0.9,0,1.5-0.4,2-1.6l0.1-0.3
	l-3.6-9.5h1.6l2.7,7.9l2.7-7.9h1.6L645.9,84.6L645.9,84.6z"/>
<path class="st0" d="M659.1,72.8c0,0.5-0.4,0.9-0.9,0.9c-0.5,0-0.9-0.4-0.9-0.9s0.4-0.9,0.9-0.9C658.7,71.8,659.1,72.3,659.1,72.8z
	 M657.4,83.8v-9h1.5v9H657.4z"/>
<path class="st0" d="M670.4,78.8v5.1H669v-5c0-0.5,0-0.8,0-1.3c-0.1-1.1-0.7-1.8-2.1-1.8s-2.6,1-2.6,4.1v4h-1.5v-9h1.5v1.6l0.6-1
	c0.8-0.6,1.4-0.8,2.3-0.8c2,0,3.1,1.1,3.2,2.6C670.4,77.7,670.4,78,670.4,78.8L670.4,78.8z"/>
<path class="st0" d="M684.3,82.5l-0.5,1c-0.6,0.4-1.4,0.6-2.3,0.6c-1.6,0-2.9-0.9-2.9-2.6c0-2,1.5-3.1,5.1-3.1h0.6v-0.2
	c0-0.4,0-0.8,0-1.1c-0.1-0.8-0.5-1.4-1.8-1.4c-1.2,0-1.8,0.7-1.9,1.9H679c0.1-1.9,1.5-3,3.5-3c2.1,0,3,0.9,3.2,2.4
	c0,0.4,0,0.8,0,1.2v3.4c0,0.7,0,1.3,0.2,2.3h-1.5L684.3,82.5L684.3,82.5z M684.3,80.4v-0.9c-2.5-0.2-4.1,0.3-4.1,1.9
	c0,1.1,0.7,1.6,1.8,1.6C683.4,82.9,684.3,82.1,684.3,80.4L684.3,80.4z"/>
<path class="st0" d="M691.1,81.2c0,0.3,0,0.6,0,0.8c0,0.6,0.3,0.8,1.1,0.7v1.1c-0.3,0-0.7,0.1-1,0.1c-0.8,0-1.5-0.3-1.5-1.4
	c0-0.3,0-0.7,0-1.2v-10h1.5V81.2z"/>
<path class="st0" d="M696.6,81.2c0,0.3,0,0.6,0,0.8c0,0.6,0.3,0.8,1.1,0.7v1.1c-0.3,0-0.7,0.1-1,0.1c-0.8,0-1.5-0.3-1.5-1.4
	c0-0.3,0-0.7,0-1.2v-10h1.5V81.2z"/>
<path class="st0" d="M707.7,77.4h5.5v1.2h-5.5v5.3h-1.5V72.1h7.6v1.2h-6.2V77.4z"/>
<path class="st0" d="M725,79.3c0,2.5-1.4,4.8-4.5,4.8s-4.5-2.2-4.5-4.8s1.4-4.8,4.5-4.8S725,76.8,725,79.3z M723.4,79.3
	c0-2.1-1-3.6-2.9-3.6s-2.9,1.5-2.9,3.6s1,3.6,2.9,3.6S723.4,81.4,723.4,79.3z"/>
<path class="st0" d="M735.7,83.8h-1.5v-1.5l-0.6,1c-0.8,0.6-1.4,0.7-2.3,0.7c-1.9,0-3-1.1-3.2-2.3c-0.1-0.5-0.1-0.8-0.1-1.6v-5.4
	h1.5v5.1c0,0.3,0,0.8,0.1,1.2c0.1,1,0.9,1.7,2.1,1.7c1.4,0,2.5-1.1,2.5-4.1v-4h1.5L735.7,83.8L735.7,83.8z"/>
<path class="st0" d="M743.7,74.7v1.1c-1.5-0.1-2.7,0.8-2.7,2.9v5.1h-1.5v-9h1.5v1.4l0.8-1.2c0.4-0.3,0.8-0.4,1.3-0.4
	C743.4,74.6,743.6,74.6,743.7,74.7L743.7,74.7z"/>
<path class="st0" d="M757.5,77.4H756c-0.2-1-0.8-1.7-1.9-1.7s-1.5,0.6-1.5,1.3c0,0.9,0.8,1.3,2,1.6c2.1,0.5,3.1,1.4,3.1,2.9
	c0,1.7-1.5,2.5-3.3,2.5c-1.9,0-3.3-0.8-3.5-2.9h1.5c0.2,1.3,1.1,1.8,2.1,1.8c1,0,1.8-0.4,1.8-1.3c0-0.9-0.6-1.3-2.1-1.7
	c-1.6-0.4-2.9-1.1-2.9-2.7c0-1.6,1.3-2.6,3.1-2.6C756.2,74.6,757.3,75.7,757.5,77.4L757.5,77.4z"/>
<path class="st0" d="M768.1,79.8h-6.5c0.1,2.4,1.3,3.2,2.6,3.2c1.2,0,2.1-0.7,2.3-2h1.5c-0.4,2.2-2.1,3.2-3.9,3.2
	c-2.3,0-4.1-1.5-4.1-4.7c0-2.9,1.8-4.8,4.3-4.8c2.5,0,3.9,1.8,3.9,4.5C768.2,79.2,768.2,79.4,768.1,79.8L768.1,79.8z M761.6,78.6
	h5.1c-0.1-1.9-0.9-2.9-2.4-2.9S761.8,76.7,761.6,78.6z"/>
<path class="st0" d="M776.5,82.5l-0.5,1c-0.6,0.4-1.4,0.6-2.3,0.6c-1.6,0-2.9-0.9-2.9-2.6c0-2,1.5-3.1,5.1-3.1h0.6v-0.2
	c0-0.4,0-0.8,0-1.1c-0.1-0.8-0.5-1.4-1.8-1.4s-1.8,0.7-1.9,1.9h-1.5c0.1-1.9,1.5-3,3.5-3c2.1,0,3,0.9,3.2,2.4c0,0.4,0,0.8,0,1.2v3.4
	c0,0.7,0,1.3,0.2,2.3h-1.5L776.5,82.5L776.5,82.5z M776.5,80.4v-0.9c-2.5-0.2-4.1,0.3-4.1,1.9c0,1.1,0.7,1.6,1.8,1.6
	C775.6,82.9,776.5,82.1,776.5,80.4L776.5,80.4z"/>
<path class="st0" d="M787.8,77.4h-1.5c-0.2-1-0.9-1.7-1.9-1.7s-1.5,0.6-1.5,1.3c0,0.9,0.8,1.3,2,1.6c2.1,0.5,3.1,1.4,3.1,2.9
	c0,1.7-1.5,2.5-3.3,2.5c-1.9,0-3.3-0.8-3.5-2.9h1.5c0.2,1.3,1.1,1.8,2.1,1.8c1,0,1.8-0.4,1.8-1.3c0-0.9-0.6-1.3-2.1-1.7
	c-1.6-0.4-2.9-1.1-2.9-2.7c0-1.6,1.3-2.6,3.1-2.6C786.5,74.6,787.6,75.7,787.8,77.4L787.8,77.4z"/>
<path class="st0" d="M799.2,79.3c0,2.5-1.4,4.8-4.5,4.8s-4.5-2.2-4.5-4.8s1.4-4.8,4.5-4.8S799.2,76.8,799.2,79.3z M797.6,79.3
	c0-2.1-1-3.6-2.9-3.6s-2.9,1.5-2.9,3.6s1,3.6,2.9,3.6S797.6,81.4,797.6,79.3z"/>
<path class="st0" d="M810,78.8v5.1h-1.5v-5c0-0.5,0-0.8,0-1.3c-0.1-1.1-0.7-1.8-2.1-1.8c-1.4,0-2.6,1-2.6,4.1v4h-1.5v-9h1.5v1.6
	l0.6-1c0.8-0.6,1.4-0.8,2.3-0.8c2,0,3.1,1.1,3.2,2.6C810,77.7,810,78,810,78.8z"/>
<path class="st0" d="M819.7,77.4h-1.5c-0.2-1-0.9-1.7-1.9-1.7s-1.5,0.6-1.5,1.3c0,0.9,0.8,1.3,2,1.6c2.1,0.5,3.1,1.4,3.1,2.9
	c0,1.7-1.5,2.5-3.4,2.5c-1.9,0-3.3-0.8-3.5-2.9h1.5c0.2,1.3,1.1,1.8,2.1,1.8c1,0,1.8-0.4,1.8-1.3c0-0.9-0.6-1.3-2.1-1.7
	c-1.6-0.4-2.9-1.1-2.9-2.7c0-1.6,1.3-2.6,3.1-2.6C818.4,74.6,819.5,75.7,819.7,77.4L819.7,77.4z"/>
<path class="st0" d="M829.5,74v0.9h1.8V76h-1.8v7.8h-1.5V76h-1v-1.1h1v-0.8c0-0.3,0-0.8,0-1.1c0.2-1.3,1-2,2.4-2c0.4,0,0.7,0,1,0.1
	v1.2c-1.1-0.2-1.8,0-2,0.8C829.5,73.3,829.5,73.7,829.5,74z"/>
<path class="st0" d="M842.5,79.3c0,2.5-1.4,4.8-4.5,4.8s-4.5-2.2-4.5-4.8s1.4-4.8,4.5-4.8S842.5,76.8,842.5,79.3z M840.9,79.3
	c0-2.1-1-3.6-2.9-3.6s-2.9,1.5-2.9,3.6s1,3.6,2.9,3.6S840.9,81.4,840.9,79.3z"/>
<path class="st0" d="M849.8,74.7v1.1c-1.5-0.1-2.7,0.8-2.7,2.9v5.1h-1.5v-9h1.5v1.4l0.8-1.2c0.4-0.3,0.8-0.4,1.3-0.4
	C849.4,74.6,849.6,74.6,849.8,74.7L849.8,74.7z"/>
<path class="st0" d="M865,79.8h-6.5c0.1,2.4,1.3,3.2,2.6,3.2c1.2,0,2.1-0.7,2.3-2h1.5c-0.4,2.2-2.1,3.2-3.9,3.2
	c-2.3,0-4.1-1.5-4.1-4.7c0-2.9,1.8-4.8,4.3-4.8c2.5,0,3.9,1.8,3.9,4.5C865,79.2,865,79.4,865,79.8L865,79.8z M858.5,78.6h5.1
	c-0.1-1.9-0.9-2.9-2.4-2.9S858.6,76.7,858.5,78.6z"/>
<path class="st0" d="M872.3,83.8h-1.8l-3.4-9h1.6l2.8,8l2.7-8h1.5L872.3,83.8L872.3,83.8z"/>
<path class="st0" d="M885.7,79.8h-6.5c0.1,2.4,1.3,3.2,2.6,3.2c1.2,0,2.1-0.7,2.3-2h1.5c-0.4,2.2-2.1,3.2-3.9,3.2
	c-2.4,0-4.1-1.5-4.1-4.7c0-2.9,1.8-4.8,4.3-4.8c2.5,0,3.9,1.8,3.9,4.5C885.7,79.2,885.7,79.4,885.7,79.8L885.7,79.8z M879.1,78.6
	h5.1c-0.1-1.9-0.9-2.9-2.4-2.9C880.3,75.7,879.3,76.7,879.1,78.6z"/>
<path class="st0" d="M893.1,74.7v1.1c-1.5-0.1-2.7,0.8-2.7,2.9v5.1H889v-9h1.5v1.4l0.8-1.2c0.4-0.3,0.8-0.4,1.3-0.4
	C892.8,74.6,893,74.6,893.1,74.7L893.1,74.7z"/>
<path class="st0" d="M899.6,84.6c-0.7,1.9-1.7,2.8-3.2,2.8c-0.3,0-0.5,0-0.8,0v-1.2c0.2,0,0.4,0,0.5,0c0.9,0,1.5-0.4,2-1.6l0.1-0.3
	l-3.6-9.5h1.7l2.7,7.9l2.7-7.9h1.6L899.6,84.6L899.6,84.6z"/>
<path class="st0" d="M914.7,84.6c-0.7,1.9-1.7,2.8-3.2,2.8c-0.3,0-0.5,0-0.8,0v-1.2c0.2,0,0.4,0,0.5,0c0.9,0,1.5-0.4,2-1.6l0.1-0.3
	l-3.6-9.5h1.7l2.7,7.9l2.7-7.9h1.6L914.7,84.6L914.7,84.6z"/>
<path class="st0" d="M928.4,79.8h-6.5c0.1,2.4,1.3,3.2,2.6,3.2c1.2,0,2.1-0.7,2.3-2h1.5c-0.4,2.2-2.1,3.2-3.9,3.2
	c-2.3,0-4.1-1.5-4.1-4.7c0-2.9,1.8-4.8,4.3-4.8c2.5,0,3.9,1.8,3.9,4.5C928.4,79.2,928.4,79.4,928.4,79.8L928.4,79.8z M921.9,78.6
	h5.1c-0.1-1.9-0.9-2.9-2.4-2.9C923,75.7,922,76.7,921.9,78.6z"/>
<path class="st0" d="M936.7,82.5l-0.5,1c-0.6,0.4-1.4,0.6-2.3,0.6c-1.6,0-2.9-0.9-2.9-2.6c0-2,1.5-3.1,5.1-3.1h0.6v-0.2
	c0-0.4,0-0.8,0-1.1c-0.1-0.8-0.5-1.4-1.8-1.4c-1.2,0-1.8,0.7-1.9,1.9h-1.5c0.1-1.9,1.5-3,3.5-3c2.1,0,3,0.9,3.2,2.4
	c0,0.4,0,0.8,0,1.2v3.4c0,0.7,0,1.3,0.2,2.3h-1.5L936.7,82.5L936.7,82.5z M936.7,80.4v-0.9c-2.5-0.2-4,0.3-4,1.9
	c0,1.1,0.7,1.6,1.8,1.6C935.8,82.9,936.7,82.1,936.7,80.4L936.7,80.4z"/>
<path class="st0" d="M946.3,74.7v1.1c-1.5-0.1-2.7,0.8-2.7,2.9v5.1h-1.5v-9h1.5v1.4l0.8-1.2c0.4-0.3,0.8-0.4,1.3-0.4
	C945.9,74.6,946.1,74.6,946.3,74.7L946.3,74.7z"/>
<path class="st0" d="M950.6,83c0,0.6-0.5,1.1-1.1,1.1s-1.1-0.5-1.1-1.1c0-0.6,0.5-1.1,1.1-1.1S950.6,82.3,950.6,83z"/>
<g>
	<path class="st0" d="M71.7,27.6v2.8H53v-2l10.1-10.3c3.3-3.3,4.8-5.4,4.8-8.1c0-2.9-1.7-5.3-5-5.3c-3.6,0-5.3,2.2-5.7,6.1l0,0.4
		h-3.5l0-0.4c0.6-5.8,4-8.9,9.6-8.9c5.7,0,8.5,3.5,8.5,7.7c0,3.8-2.1,6.4-6.8,11l-7,6.9H71.7z"/>
	<path class="st0" d="M101.2,22.7c0,5.2-4.7,8.3-10.1,8.3c-5.3,0-9-2.4-9.6-8.4l0-0.4h3.5l0,0.4c0.4,3.9,3.1,5.6,6.4,5.6
		c3.4,0,5.9-2,5.9-5.4c0-3.3-2.1-5.1-6.6-5.1H90v-2.8h0.7c3.3,0,6-1.9,6-5.4c0-2.8-2-4.7-4.9-4.7c-2.9,0-5.3,1.8-5.7,5.4l0,0.4h-3.5
		l0-0.4c0.5-5,3.9-8.2,9.6-8.2c5.1,0,8.3,2.9,8.3,7.1c0,3.2-2,5.7-4.9,6.5C99,16.6,101.2,19.1,101.2,22.7z"/>
	<path class="st0" d="M128.9,16.1c0,3.5-1.5,5.4-4.4,5.4c-1.6,0-2.6-0.5-4.7-1.7c-1.5-0.8-2.7-1.4-3.8-1.4c-1.5,0-2,1.2-2,3.1h-2.3
		c0-3.5,1.5-5.4,4.4-5.4c1.6,0,2.6,0.5,4.7,1.7c1.5,0.8,2.7,1.4,3.8,1.4c1.5,0,2-1.2,2-3.1H128.9z"/>
	<path class="st0" d="M156.2,23.4v7h-3.5v-7H139v-1.7l13.8-19.1h3.5v18h3.5v2.8H156.2z M152.8,7.2c-0.6,1.1-1.4,2.3-2.3,3.5
		l-7.1,9.8h9.4V7.2z"/>
	<path class="st0" d="M188.2,22.7c0,5.2-4.7,8.3-10.1,8.3c-5.3,0-9-2.4-9.6-8.4l0-0.4h3.5l0,0.4c0.4,3.9,3.1,5.6,6.4,5.6
		c3.4,0,5.9-2,5.9-5.4c0-3.3-2.1-5.1-6.6-5.1H177v-2.8h0.7c3.3,0,6-1.9,6-5.4c0-2.8-2-4.7-4.9-4.7c-2.9,0-5.3,1.8-5.7,5.4l0,0.4
		h-3.5l0-0.4c0.5-5,3.9-8.2,9.6-8.2c5.1,0,8.3,2.9,8.3,7.1c0,3.2-2,5.7-4.9,6.5C186.1,16.6,188.2,19.1,188.2,22.7z"/>
	<path class="st0" d="M200.2,13.3V6h1.9v7.3h3.2v1.9h-3.2v9.2c1.1-0.4,2.2-0.8,3.3-1.3v2c-2.6,1.1-5.3,2.1-8.3,2.9l-0.5-2
		c1.2-0.3,2.4-0.6,3.6-0.9v-9.9h-3.3v-1.9H200.2z M220.7,7.3v1.9h-6.4v10.5h7.2v1.9h-7.2v10h-1.9v-10h-7.1v-1.9h7.1V9.2h-6.3V7.3
		H220.7z M210.3,17.8l-1.7,0.4c-0.5-2.4-1.2-4.7-2-7l1.7-0.6C209,12.8,209.7,15.2,210.3,17.8z M220,11c-0.6,2.7-1.3,5.1-2.1,7.1
		l-1.6-0.6c0.8-1.8,1.5-4.1,2.1-6.9L220,11z"/>
	<path class="st1" d="M242.1,32.5h-2.2V0h2.2V32.5z"/>
	<path class="st0" d="M280.9,27.6v2.8h-18.7v-2l10.1-10.3c3.3-3.3,4.8-5.4,4.8-8.1c0-2.9-1.7-5.3-5-5.3c-3.6,0-5.3,2.2-5.7,6.1
		l0,0.4H263l0-0.4c0.6-5.8,4-8.9,9.6-8.9c5.7,0,8.5,3.5,8.5,7.7c0,3.8-2.1,6.4-6.8,11l-7,6.9H280.9z"/>
	<path class="st0" d="M309.1,16.1c0,3.5-1.5,5.4-4.4,5.4c-1.6,0-2.6-0.5-4.7-1.7c-1.5-0.8-2.7-1.4-3.8-1.4c-1.5,0-2,1.2-2,3.1H292
		c0-3.5,1.5-5.4,4.4-5.4c1.6,0,2.6,0.5,4.7,1.7c1.5,0.8,2.7,1.4,3.8,1.4c1.5,0,2-1.2,2-3.1H309.1z"/>
	<path class="st0" d="M336.5,23.4v7H333v-7h-13.8v-1.7L333,2.6h3.5v18h3.5v2.8H336.5z M333,7.2c-0.6,1.1-1.4,2.3-2.3,3.5l-7.1,9.8
		h9.4V7.2z"/>
	<path class="st0" d="M370.6,7.5c-5.3,0.7-11.3,1.2-17.9,1.3v1.6h18v6h-18v0.2c-0.1,5.9-1.2,10.5-3.1,14l-1.4-1.5
		c1.7-3,2.6-7.2,2.7-12.5V7.2c7-0.1,13.3-0.5,18.9-1.3L370.6,7.5z M353.8,21.2v-1.7h7.7c-0.3-0.8-0.6-1.4-1-2.1l2-0.3
		c0.3,0.7,0.6,1.5,1,2.4h8.2v1.7H360c-0.1,0.8-0.2,1.6-0.3,2.3h10.1c-0.1,3.6-0.3,5.6-0.5,6.2c-0.2,0.6-0.7,1-1.4,1.2
		c-0.7,0.2-2.2,0.3-4.4,0.3H363l-0.5-1.8c0.5,0,1,0.1,1.5,0.1c1.5,0,2.4-0.1,2.8-0.2c0.4-0.2,0.6-0.4,0.8-0.7
		c0.1-0.4,0.2-1.5,0.3-3.3h-8.7c-1,2.6-2.9,4.6-5.6,6.1l-1-1.7c3.4-1.7,5.3-4.5,5.6-8.5H353.8z M368.8,14.7v-2.6h-16.1v2.6H368.8z"
		/>
	<path class="st2" d="M393.3,32.5h-2.2V0h2.2V32.5z"/>
	<path class="st0" d="M424.8,21.6c0,5.1-1.5,9.2-6.4,9.2c-4.8,0-6.4-4.1-6.4-9.2c0-5.1,1.5-9.2,6.4-9.2
		C423.3,12.5,424.8,16.5,424.8,21.6z M422.4,21.6c0-4.6-1.1-7.4-3.9-7.4c-2.8,0-3.9,2.8-3.9,7.4c0,4.6,1.1,7.4,3.9,7.4
		C421.3,29,422.4,26.2,422.4,21.6z"/>
	<path class="st0" d="M443,24.5c0,3.8-2.7,6.3-6.2,6.3c-3.9,0-6.2-2.5-6.2-8.3c0-7.1,3.2-10,6.8-10c3,0,5.2,1.9,5.4,4.7l0,0.3h-2.3
		l-0.1-0.3c-0.4-2-1.5-3-3.2-3c-2.4,0-4.1,1.9-4.2,7l1-1.6c0.9-0.8,1.9-1.1,3.2-1.1C440.8,18.5,443,21,443,24.5z M440.5,24.8
		c0-2.4-1.1-4.5-3.8-4.5c-2,0-3.7,1.5-3.7,4.4c0,2.4,1.5,4.3,3.7,4.3C438.9,29,440.5,27.3,440.5,24.8z"/>
	<path class="st0" d="M477.7,28v2.4H462v-1.7l8.5-8.7c2.8-2.8,4.1-4.5,4.1-6.8c0-2.4-1.4-4.5-4.2-4.5c-3,0-4.5,1.9-4.8,5.2l0,0.3
		h-2.9l0-0.3c0.5-4.9,3.4-7.5,8.1-7.5c4.8,0,7.1,3,7.1,6.5c0,3.2-1.7,5.4-5.7,9.3l-5.9,5.8H477.7z"/>
	<path class="st0" d="M502.2,28v2.4h-15.7v-1.7l8.5-8.7c2.8-2.8,4.1-4.5,4.1-6.8c0-2.4-1.4-4.5-4.2-4.5c-3,0-4.5,1.9-4.8,5.2l0,0.3
		H487l0-0.3c0.5-4.9,3.4-7.5,8.1-7.5c4.8,0,7.1,3,7.1,6.5c0,3.2-1.7,5.4-5.7,9.3l-5.9,5.8H502.2z"/>
	<path class="st0" d="M527.2,22.8c0,5.2-4,8.1-8.4,8.1c-4.7,0-7.5-2.3-7.9-6.7l0-0.3h2.9l0.1,0.3c0.5,2.7,2,4.4,4.9,4.4
		c3.1,0,5.1-2,5.1-5.6s-1.9-5.7-5-5.7c-2.2,0-3.7,0.9-4.9,3.3h-2.8L512.8,7h13.3v2.4h-11l-1.1,8.2l1.5-1.6c1.1-0.7,2.3-1,3.7-1
		C524.6,14.9,527.2,18.3,527.2,22.8z"/>
	<path class="st0" d="M551.4,22.5c0,5-3.5,8.4-8.3,8.4c-5.2,0-8.3-3.3-8.3-11.1c0-9.5,4.3-13.3,9.1-13.3c4,0,6.9,2.5,7.2,6.3l0,0.3
		h-3.1l-0.1-0.3c-0.5-2.7-1.9-4-4.3-4c-3.2,0-5.4,2.6-5.6,9.4l1.3-2.1c1.3-1.1,2.6-1.5,4.3-1.5C548.6,14.6,551.4,17.9,551.4,22.5z
		 M548.2,22.9c0-3.3-1.5-6-5-6c-2.7,0-4.9,2-4.9,5.9c0,3.3,1.9,5.8,4.9,5.8C546.1,28.6,548.2,26.3,548.2,22.9z"/>
	<path class="st0" d="M575.9,22.5c0,5-3.5,8.4-8.3,8.4c-5.2,0-8.3-3.3-8.3-11.1c0-9.5,4.3-13.3,9.1-13.3c4,0,6.9,2.5,7.2,6.3l0,0.3
		h-3.1l-0.1-0.3c-0.5-2.7-1.9-4-4.3-4c-3.2,0-5.4,2.6-5.6,9.4l1.3-2.1c1.3-1.1,2.6-1.5,4.3-1.5C573,14.6,575.9,17.9,575.9,22.5z
		 M572.7,22.9c0-3.3-1.5-6-5-6c-2.7,0-4.9,2-4.9,5.9c0,3.3,1.9,5.8,4.9,5.8C570.6,28.6,572.7,26.3,572.7,22.9z"/>
	<path class="st0" d="M600.6,23.9c0,5.1-4.3,7.1-8.4,7.1c-4.5,0-8.4-1.9-8.4-7.1c0-2.8,2.1-5,4.7-5.8c-2.1-0.8-3.6-2.7-3.6-5.2
		c0-3.9,3-6.3,7.6-6.3s7.6,2.4,7.6,6.3c0,2.6-1.7,4.4-3.9,5.2C598.6,18.8,600.6,21,600.6,23.9z M597.3,24c0-2.4-1.4-4.6-5.1-4.6
		c-3.6,0-5.1,2.2-5.1,4.6c0,2.7,1.7,4.6,5.2,4.6C595.7,28.6,597.3,26.7,597.3,24z M588,12.9c0,2.4,1.4,4.2,4.4,4.2
		c2.9,0,4.4-1.8,4.4-4.2c0-2.2-1.4-4.1-4.4-4.1S588,10.7,588,12.9z"/>
	<path class="st0" d="M625.1,23.9c0,5.1-4.3,7.1-8.4,7.1c-4.5,0-8.4-1.9-8.4-7.1c0-2.8,2.1-5,4.7-5.8c-2.1-0.8-3.6-2.7-3.6-5.2
		c0-3.9,3-6.3,7.6-6.3s7.6,2.4,7.6,6.3c0,2.6-1.7,4.4-3.9,5.2C623.1,18.8,625.1,21,625.1,23.9z M621.8,24c0-2.4-1.4-4.6-5.1-4.6
		c-3.6,0-5.1,2.2-5.1,4.6c0,2.7,1.7,4.6,5.2,4.6C620.2,28.6,621.8,26.7,621.8,24z M612.5,12.9c0,2.4,1.4,4.2,4.4,4.2
		c2.9,0,4.4-1.8,4.4-4.2c0-2.2-1.4-4.1-4.4-4.1C614,8.8,612.5,10.7,612.5,12.9z"/>
	<path class="st2" d="M648.2,32.5H646V0h2.2V32.5z"/>
	<path class="st1" d="M687.5,14.4l0,0.3h-3.3v-0.3c0-3.3-1.7-4.6-4.9-4.6c-4.6,0-7.8,4.4-7.8,10.3c0,4.4,2,6.5,5.1,6.5
		c3.2,0,5.1-1.9,6.1-4.7l0.1-0.3h3.3l-0.1,0.3c-1.2,4.3-4.6,7.2-10,7.2c-5.2,0-8.2-3.3-8.2-8.7c0-7.6,5.1-13.2,11.9-13.2
		C685.1,7.2,687.8,10.2,687.5,14.4z"/>
	<path class="st1" d="M709.9,19.2c0,4.6-2.9,9.9-9.5,9.9c-5.1,0-7.2-3.3-7.2-7.2c0-4.6,2.9-9.9,9.5-9.9
		C707.8,12,709.9,15.4,709.9,19.2z M706.3,19.3c0-2.6-1.2-4.8-3.9-4.8c-3.7,0-5.5,3.8-5.5,7.3c0,2.7,1.2,4.8,3.9,4.8
		C704.4,26.6,706.3,22.8,706.3,19.3z"/>
	<path class="st1" d="M740.6,15.9c0,0.9-0.1,1.6-0.4,2.9l-1.7,9.8h-3.3l1.5-8.6c0.2-1.3,0.4-2.3,0.4-3.1c0-1.6-0.9-2.4-2.5-2.4
		c-1.9,0-3.7,2.2-4.3,5.7l-0.1,0.3l-1.4,8.1h-3.3l1.5-8.6c0.2-1.4,0.4-2.3,0.4-3.1c0-1.6-0.9-2.4-2.5-2.4c-1.9,0-3.7,2.3-4.3,6
		l-1.4,8.1h-3.3l2.8-16.2h3.3l-0.4,2.3l1.4-1.8c1-0.7,2.2-0.9,3.6-0.9c2.5,0,3.9,1.2,4.2,3l1.7-2c1-0.7,2.2-1,3.7-1
		C739.2,12,740.6,13.7,740.6,15.9z"/>
	<path class="st1" d="M746.8,28.6l2.9-16.2h3.3l-2.9,16.2H746.8z M754.1,8.4c0,1.2-0.9,2.3-2.3,2.3c-1,0-1.7-0.7-1.7-1.6
		c0-1.2,0.9-2.2,2.3-2.2C753.4,6.8,754.1,7.5,754.1,8.4z"/>
	<path class="st1" d="M775,16.2c0,0.9-0.1,1.5-0.4,3.3l-1.6,9.2h-3.3l1.6-8.7c0.2-1.3,0.3-2.1,0.3-2.7c0-1.6-0.8-2.7-2.9-2.7
		c-2.3,0.1-4.5,1.9-5.4,6.9l-1.2,7.2h-3.3l2.8-16.2h3.3l-0.5,2.6l1.4-1.8c1.5-1,2.7-1.2,4.3-1.2C773.4,12,775,13.7,775,16.2z"/>
	<path class="st1" d="M797,24.6c-0.2,1-0.4,2.3-0.6,3.1c-1,4.9-4.1,7.4-9.4,7.4c-4.2,0-6.8-1.9-6.5-5.4l0-0.3h3.3l0,0.3
		c-0.1,1.7,1.2,2.9,3.7,2.9c2.9,0,4.9-1.6,5.5-4.5c0.1-0.7,0.3-1.3,0.4-1.9l0-0.2l-1.6,1.8c-1,0.7-2.7,1.2-4.4,1.2
		c-4,0-6.1-2.8-6.1-6.5c0-5.1,3.1-10.5,9.6-10.5c1.3,0,3,0.5,3.7,1.2l0.8,1.6l0.4-2.4h3.3L797,24.6z M794.4,20.7L794.4,20.7l0.2-0.9
		v0c0.5-2.8-0.5-5.4-3.7-5.4c-3.7,0-5.8,3.8-5.8,7.7c0,2.7,1.2,4.4,3.7,4.4C791.2,26.6,793.6,25,794.4,20.7z"/>
	<path class="st1" d="M831.4,13.6H828c0.2-2.4-1.2-3.8-3.6-3.8c-2.3,0-3.9,1.2-3.9,3.5c0,1.6,1.2,2.5,3.9,3.2
		c3.9,0.9,5.8,2.7,5.8,5.7c0,4.3-3.8,6.9-8.7,6.9c-4.5,0-7.5-2.3-7.2-6.5h3.5c0.1,2.6,1.7,4,4.1,4c2.6,0,4.6-1.4,4.6-3.8
		c0-1.7-1.2-2.7-4.1-3.5c-3.4-0.9-5.6-2.2-5.6-5.1c0-4.4,3.8-6.9,8.1-6.9C829.6,7.2,831.6,9.9,831.4,13.6z"/>
	<path class="st1" d="M853.2,19.2c0,4.6-2.9,9.9-9.5,9.9c-5.1,0-7.2-3.3-7.2-7.2c0-4.6,2.9-9.9,9.5-9.9
		C851.1,12,853.2,15.4,853.2,19.2z M849.6,19.3c0-2.6-1.2-4.8-3.9-4.8c-3.7,0-5.5,3.8-5.5,7.3c0,2.7,1.2,4.8,3.9,4.8
		C847.8,26.6,849.6,22.8,849.6,19.3z"/>
	<path class="st1" d="M875.8,19.2c0,4.6-2.9,9.9-9.5,9.9c-5.1,0-7.2-3.3-7.2-7.2c0-4.6,2.9-9.9,9.5-9.9
		C873.7,12,875.8,15.4,875.8,19.2z M872.2,19.3c0-2.6-1.2-4.8-3.9-4.8c-3.7,0-5.5,3.8-5.5,7.3c0,2.7,1.2,4.8,3.9,4.8
		C870.3,26.6,872.2,22.8,872.2,19.3z"/>
	<path class="st1" d="M898,16.2c0,0.9-0.1,1.5-0.4,3.3l-1.6,9.2h-3.3l1.6-8.7c0.2-1.3,0.3-2.1,0.3-2.7c0-1.6-0.8-2.7-2.9-2.7
		c-2.3,0.1-4.5,1.9-5.4,6.9l-1.2,7.2h-3.3l2.8-16.2h3.3l-0.5,2.6l1.4-1.8c1.5-1,2.7-1.2,4.3-1.2C896.3,12,898,13.7,898,16.2z"/>
</g>
</svg>
