<?xml version="1.0" encoding="utf-8"?>
<!-- Generator: Adobe Illustrator 27.4.0, SVG Export Plug-In . SVG Version: 6.00 Build 0)  -->
<svg version="1.1" id="圖層_1" xmlns="http://www.w3.org/2000/svg" xmlns:xlink="http://www.w3.org/1999/xlink" x="0px" y="0px"
	 viewBox="0 0 650 140" style="enable-background:new 0 0 650 140;" xml:space="preserve">
<style type="text/css">
	.st0{fill:#221815;}
	.st1{fill:#D08421;}
	.st2{fill:#D68F41;}
</style>
<path class="st0" d="M14.6,99c0,3.6-2,6.1-5.6,6.1c-3.6,0-5.6-2.5-5.6-6.1c0-3.6,2-6.1,5.6-6.1C12.6,92.9,14.6,95.5,14.6,99z M13,99
	c0-3.1-1.4-4.9-3.9-4.9c-2.5,0-3.9,1.9-3.9,4.9c0,3.1,1.5,5,3.9,5C11.5,104,13,102.1,13,99z"/>
<path class="st0" d="M25.5,99.8v5.1H24v-5c0-0.5,0-0.8,0-1.3c-0.1-1-0.7-1.8-2.1-1.8s-2.6,1.1-2.6,4.1v4h-1.5v-9h1.5v1.6l0.6-1
	c0.8-0.6,1.4-0.8,2.4-0.8c2,0,3.1,1.1,3.2,2.6C25.5,98.7,25.5,99.1,25.5,99.8L25.5,99.8z"/>
<path class="st0" d="M36.7,100.8h-6.5c0.1,2.4,1.3,3.2,2.6,3.2c1.2,0,2.1-0.7,2.3-2h1.5c-0.4,2.2-2.1,3.2-3.9,3.2
	c-2.4,0-4.1-1.5-4.1-4.7c0-2.9,1.8-4.8,4.3-4.8s3.9,1.8,3.9,4.5C36.7,100.3,36.7,100.5,36.7,100.8L36.7,100.8z M30.1,99.7h5.1
	c-0.1-1.9-0.9-2.9-2.4-2.9S30.3,97.8,30.1,99.7z"/>
<path class="st0" d="M52.1,99.9v5.1h-1.5v-5c0-0.5,0-0.8,0-1.3c-0.1-1.1-0.7-1.9-2.1-1.8c-1.4,0-2.6,1.1-2.6,4.1v4h-1.5V92.3h1.5
	v5.1l0.6-1c0.8-0.6,1.4-0.8,2.3-0.8c2,0,3.1,1.1,3.2,2.6C52.1,98.8,52.1,99.1,52.1,99.9L52.1,99.9z"/>
<path class="st0" d="M60.9,103.6l-0.5,1c-0.6,0.4-1.4,0.6-2.3,0.6c-1.6,0-2.9-0.9-2.9-2.6c0-2,1.5-3.1,5.1-3.1h0.6v-0.2
	c0-0.4,0-0.8,0-1.1c-0.1-0.8-0.5-1.4-1.8-1.4s-1.8,0.7-1.9,1.9h-1.5c0.1-1.9,1.5-3,3.5-3c2.1,0,3,0.9,3.2,2.4c0,0.4,0,0.8,0,1.2v3.4
	c0,0.7,0,1.3,0.2,2.3h-1.5L60.9,103.6L60.9,103.6z M60.9,101.5v-0.9c-2.5-0.2-4,0.3-4,1.9c0,1.1,0.7,1.6,1.8,1.6
	C60,104,60.9,103.1,60.9,101.5z"/>
<path class="st0" d="M74.9,100.3c0,3.3-2.1,4.9-4.4,4.9c-0.8,0-1.7-0.2-2.2-0.6l-0.6-0.9v4.6h-1.5V95.9h1.5v1.4l0.7-1
	c0.5-0.4,1.5-0.7,2.4-0.7C73.5,95.7,74.9,97.6,74.9,100.3L74.9,100.3z M73.3,100.4c0-2-0.9-3.7-2.7-3.7c-1.5,0-2.8,0.9-2.8,3.5v0.5
	c0,2.3,1.5,3.2,2.8,3.2C72.1,104,73.3,102.8,73.3,100.4L73.3,100.4z"/>
<path class="st0" d="M86.7,100.3c0,3.3-2.1,4.9-4.4,4.9c-0.8,0-1.7-0.2-2.2-0.6l-0.6-0.9v4.6h-1.5V95.9h1.5v1.4l0.7-1
	c0.5-0.4,1.5-0.7,2.4-0.7C85.2,95.7,86.7,97.6,86.7,100.3L86.7,100.3z M85.1,100.4c0-2-0.9-3.7-2.7-3.7c-1.5,0-2.8,0.9-2.8,3.5v0.5
	c0,2.3,1.5,3.2,2.8,3.2C83.9,104,85.1,102.8,85.1,100.4L85.1,100.4z"/>
<path class="st0" d="M93.5,105.7c-0.7,1.9-1.7,2.8-3.2,2.8c-0.3,0-0.5,0-0.8,0v-1.2c0.2,0,0.4,0,0.5,0c0.9,0,1.5-0.4,2-1.6l0.1-0.3
	l-3.6-9.5h1.7l2.7,7.9l2.7-7.9h1.6L93.5,105.7L93.5,105.7z"/>
<path class="st0" d="M105.8,102.3c0,0.3,0,0.6,0,0.8c0,0.6,0.3,0.8,1.1,0.7v1.1c-0.3,0-0.7,0.1-1,0.1c-0.8,0-1.5-0.3-1.5-1.4
	c0-0.3,0-0.7,0-1.2v-10h1.5V102.3z"/>
<path class="st0" d="M111.6,93.9c0,0.5-0.4,0.9-0.9,0.9s-0.9-0.4-0.9-0.9s0.4-0.9,0.9-0.9S111.6,93.3,111.6,93.9z M109.9,104.9v-9
	h1.5v9H109.9z"/>
<path class="st0" d="M116.9,95.1V96h1.8v1.1h-1.8v7.8h-1.5v-7.8h-1V96h1v-0.8c0-0.3,0-0.8,0-1.1c0.2-1.3,1-2,2.4-2
	c0.4,0,0.7,0,1,0.1v1.2c-1.1-0.2-1.8,0.1-2,0.8C116.9,94.4,116.9,94.8,116.9,95.1z"/>
<path class="st0" d="M129,100.8h-6.5c0.1,2.4,1.3,3.2,2.6,3.2c1.2,0,2.1-0.7,2.3-2h1.5c-0.4,2.2-2.1,3.2-3.9,3.2
	c-2.4,0-4.1-1.5-4.1-4.7c0-2.9,1.8-4.8,4.3-4.8s3.9,1.8,3.9,4.5C129,100.3,129,100.5,129,100.8L129,100.8z M122.5,99.7h5.1
	c-0.1-1.9-0.9-2.9-2.4-2.9C123.6,96.8,122.6,97.8,122.5,99.7z"/>
<path class="st0" d="M145.9,104.9h-1.7l-2-7.6l-2,7.6h-1.7l-2.9-9h1.7l2.1,7.6l2-7.6h1.8l2,7.6l2.1-7.6h1.6L145.9,104.9L145.9,104.9
	z"/>
<path class="st0" d="M153.2,93.9c0,0.5-0.4,0.9-0.9,0.9s-0.9-0.4-0.9-0.9s0.4-0.9,0.9-0.9S153.2,93.3,153.2,93.9z M151.5,104.9v-9
	h1.5v9H151.5z"/>
<path class="st0" d="M158.7,102.3c0,0.3,0,0.5,0,0.7c0.1,0.9,0.4,1,1.6,0.9v1.1c-0.4,0.1-0.8,0.1-1.2,0.1c-1.1,0-1.7-0.5-1.8-1.6
	c0-0.2,0-0.6,0-1.1v-5.3H156V96h1.2v-2.1h1.5V96h1.7v1.1h-1.7V102.3L158.7,102.3z"/>
<path class="st0" d="M171.2,99.9v5.1h-1.5v-5c0-0.5,0-0.8,0-1.3c-0.1-1.1-0.7-1.9-2.1-1.8c-1.4,0-2.6,1.1-2.6,4.1v4h-1.5V92.3h1.5
	v5.1l0.6-1c0.8-0.6,1.4-0.8,2.3-0.8c2,0,3.1,1.1,3.2,2.6C171.2,98.8,171.2,99.1,171.2,99.9L171.2,99.9z"/>
<path class="st0" d="M180.9,105.7c0,0.3,0,0.8-0.1,1.1c-0.1,1.1-0.7,1.7-2.1,1.7c-0.3,0-0.5,0-0.7,0v-1.2c0.9,0.1,1.3-0.2,1.4-0.8
	c0-0.2,0-0.5,0-0.8v-9.9h1.5L180.9,105.7L180.9,105.7z M181.1,93.9c0,0.5-0.4,0.9-0.9,0.9s-0.9-0.4-0.9-0.9s0.4-0.9,0.9-0.9
	S181.1,93.3,181.1,93.9z"/>
<path class="st0" d="M192.3,104.9h-1.5v-1.5l-0.6,1.1c-0.8,0.6-1.4,0.7-2.4,0.7c-1.9,0-3-1.1-3.2-2.3c-0.1-0.5-0.1-0.8-0.1-1.5v-5.4
	h1.5v5.1c0,0.3,0,0.8,0.1,1.2c0.1,1,0.9,1.7,2.1,1.7c1.4,0,2.5-1,2.5-4.1v-4h1.5V104.9z"/>
<path class="st0" d="M202.2,98.5h-1.5c-0.2-1.1-0.8-1.7-1.9-1.7s-1.5,0.6-1.5,1.3c0,0.9,0.8,1.3,2,1.6c2.1,0.5,3.1,1.4,3.1,2.9
	c0,1.7-1.4,2.6-3.4,2.6c-1.9,0-3.3-0.8-3.5-2.9h1.5c0.2,1.3,1.1,1.8,2.1,1.8c1,0,1.8-0.4,1.8-1.3c0-0.9-0.6-1.3-2.1-1.7
	c-1.6-0.4-2.9-1.1-2.9-2.7s1.3-2.6,3.1-2.6C200.9,95.6,202,96.8,202.2,98.5L202.2,98.5z"/>
<path class="st0" d="M207.2,102.3c0,0.3,0,0.5,0,0.7c0.1,0.9,0.4,1,1.6,0.9v1.1c-0.4,0.1-0.8,0.1-1.2,0.1c-1.1,0-1.7-0.5-1.8-1.6
	c0-0.2,0-0.6,0-1.1v-5.3h-1.2V96h1.2v-2.1h1.5V96h1.7v1.1h-1.7V102.3L207.2,102.3z"/>
<path class="st0" d="M221.6,94.4v10.5h-1.5V94.4h-4.2v-1.2h9.8v1.2H221.6L221.6,94.4z"/>
<path class="st0" d="M237.5,104.9h-1.7l-2-7.6l-2,7.6H230l-2.9-9h1.7l2.1,7.6l2-7.6h1.8l2,7.6l2.1-7.6h1.6L237.5,104.9L237.5,104.9z
	"/>
<path class="st0" d="M251.3,100.4c0,2.5-1.4,4.8-4.5,4.8s-4.5-2.2-4.5-4.8c0-2.5,1.4-4.7,4.5-4.7S251.3,97.9,251.3,100.4z
	 M249.7,100.4c0-2.1-1.1-3.6-2.9-3.6c-1.8,0-2.9,1.5-2.9,3.6c0,2.1,1.1,3.6,2.9,3.6C248.6,104,249.7,102.5,249.7,100.4z"/>
<path class="st0" d="M267.1,100.4c0,2.5-1.4,4.8-4.5,4.8s-4.5-2.2-4.5-4.8c0-2.5,1.4-4.7,4.5-4.7S267.1,97.9,267.1,100.4z
	 M265.5,100.4c0-2.1-1-3.6-2.9-3.6c-1.8,0-2.9,1.5-2.9,3.6c0,2.1,1.1,3.6,2.9,3.6C264.4,104,265.5,102.5,265.5,100.4z"/>
<path class="st0" d="M271.7,95.1V96h1.9v1.1h-1.9v7.8h-1.5v-7.8h-1V96h1v-0.8c0-0.3,0-0.8,0-1.1c0.1-1.3,1-2,2.4-2
	c0.4,0,0.7,0,1,0.1v1.2c-1.1-0.2-1.8,0.1-2,0.8C271.7,94.4,271.7,94.8,271.7,95.1z"/>
<path class="st0" d="M288.4,104.9H287v-1.5l-0.6,1.1c-0.8,0.6-1.4,0.7-2.4,0.7c-1.9,0-3-1.1-3.2-2.3c-0.1-0.5-0.1-0.8-0.1-1.5v-5.4
	h1.5v5.1c0,0.3,0,0.8,0.1,1.2c0.1,1,0.9,1.7,2.1,1.7c1.4,0,2.5-1,2.5-4.1v-4h1.5V104.9z"/>
<path class="st0" d="M298.3,98.5h-1.5c-0.2-1.1-0.9-1.7-1.9-1.7s-1.5,0.6-1.5,1.3c0,0.9,0.8,1.3,2,1.6c2.1,0.5,3.1,1.4,3.1,2.9
	c0,1.7-1.5,2.6-3.4,2.6s-3.3-0.8-3.5-2.9h1.5c0.2,1.3,1.1,1.8,2.1,1.8c1,0,1.8-0.4,1.8-1.3c0-0.9-0.6-1.3-2.1-1.7
	c-1.6-0.4-2.9-1.1-2.9-2.7s1.3-2.6,3.1-2.6C297,95.6,298.1,96.8,298.3,98.5L298.3,98.5z"/>
<path class="st0" d="M313.6,99.9v5.1h-1.5v-5c0-0.5,0-0.8,0-1.3c-0.1-1.1-0.7-1.9-2.1-1.8c-1.4,0-2.6,1.1-2.6,4.1v4H306V92.3h1.5
	v5.1l0.6-1c0.8-0.6,1.4-0.8,2.4-0.8c2,0,3.1,1.1,3.2,2.6C313.6,98.8,313.6,99.1,313.6,99.9L313.6,99.9z"/>
<path class="st0" d="M322.5,103.6l-0.5,1c-0.6,0.4-1.4,0.6-2.3,0.6c-1.6,0-2.9-0.9-2.9-2.6c0-2,1.5-3.1,5.1-3.1h0.6v-0.2
	c0-0.4,0-0.8,0-1.1c-0.1-0.8-0.5-1.4-1.8-1.4c-1.2,0-1.8,0.7-1.9,1.9h-1.5c0.1-1.9,1.5-3,3.5-3c2.1,0,3,0.9,3.2,2.4
	c0,0.4,0.1,0.8,0.1,1.2v3.4c0,0.7,0,1.3,0.2,2.3h-1.5L322.5,103.6L322.5,103.6z M322.5,101.5v-0.9c-2.5-0.2-4,0.3-4,1.9
	c0,1.1,0.7,1.6,1.8,1.6C321.6,104,322.5,103.1,322.5,101.5z"/>
<path class="st0" d="M331.8,104.9H330l-3.4-9h1.6l2.8,8l2.7-8h1.5L331.8,104.9L331.8,104.9z"/>
<path class="st0" d="M339.6,93.9c0,0.5-0.4,0.9-0.9,0.9s-0.9-0.4-0.9-0.9s0.4-0.9,0.9-0.9S339.6,93.3,339.6,93.9z M338,104.9v-9h1.5
	v9H338z"/>
<path class="st0" d="M351,99.8v5.1h-1.5v-5c0-0.5,0-0.8,0-1.3c-0.1-1-0.7-1.8-2.1-1.8s-2.6,1.1-2.6,4.1v4h-1.5v-9h1.5v1.6l0.6-1
	c0.8-0.6,1.4-0.8,2.4-0.8c2,0,3.1,1.1,3.2,2.6C351,98.7,351,99.1,351,99.8L351,99.8z"/>
<path class="st0" d="M362.7,102.7c0,0.6,0,1.3,0,1.8c-0.1,2.6-1.7,4-4.3,4c-2.6,0-3.9-1.1-4-3l0-0.2h1.5l0,0.2
	c0.1,1.1,1,1.9,2.6,1.9c1.8,0,2.8-1,2.8-2.8c0-0.4,0-0.7,0-1v-0.2l-0.7,1c-0.5,0.4-1.5,0.7-2.4,0.7c-2.6,0-4.1-2-4.1-4.6
	c0-3.3,2.1-4.9,4.4-4.9c0.8,0,1.7,0.2,2.2,0.6l0.6,0.9v-1.2h1.5V102.7L362.7,102.7z M361.2,100.5V100c0-2.3-1.5-3.2-2.8-3.2
	c-1.6,0-2.8,1.2-2.8,3.6c0,2,0.9,3.7,2.7,3.7C359.9,104,361.2,103.1,361.2,100.5L361.2,100.5z"/>
<path class="st0" d="M376.1,94.4v10.5h-1.5V94.4h-4.2v-1.2h9.8v1.2H376.1L376.1,94.4z"/>
<path class="st0" d="M390.1,99.9v5.1h-1.5v-5c0-0.5,0-0.8,0-1.3c-0.1-1.1-0.7-1.9-2.1-1.8c-1.4,0-2.6,1.1-2.6,4.1v4h-1.5V92.3h1.5
	v5.1l0.6-1c0.8-0.6,1.4-0.8,2.4-0.8c2,0,3.1,1.1,3.2,2.6C390.1,98.8,390.1,99.1,390.1,99.9L390.1,99.9z"/>
<path class="st0" d="M398.1,95.8v1.1c-1.5-0.1-2.7,0.8-2.7,2.9v5.1h-1.5v-9h1.5v1.4l0.8-1.2c0.4-0.3,0.8-0.4,1.3-0.4
	C397.7,95.7,397.9,95.7,398.1,95.8z"/>
<path class="st0" d="M408.1,100.8h-6.5c0.1,2.4,1.3,3.2,2.6,3.2c1.2,0,2.1-0.7,2.3-2h1.5c-0.4,2.2-2.1,3.2-3.9,3.2
	c-2.4,0-4.1-1.5-4.1-4.7c0-2.9,1.8-4.8,4.3-4.8s3.9,1.8,3.9,4.5C408.1,100.3,408.1,100.5,408.1,100.8L408.1,100.8z M401.5,99.7h5.1
	c-0.1-1.9-0.9-2.9-2.4-2.9C402.7,96.8,401.7,97.8,401.5,99.7z"/>
<path class="st0" d="M418.8,100.8h-6.5c0.1,2.4,1.3,3.2,2.6,3.2c1.2,0,2.1-0.7,2.3-2h1.5c-0.4,2.2-2.1,3.2-3.9,3.2
	c-2.4,0-4.1-1.5-4.1-4.7c0-2.9,1.8-4.8,4.3-4.8s3.9,1.8,3.9,4.5C418.8,100.3,418.8,100.5,418.8,100.8L418.8,100.8z M412.2,99.7h5.1
	c-0.1-1.9-0.9-2.9-2.4-2.9C413.4,96.8,412.4,97.8,412.2,99.7z"/>
<path class="st0" d="M438.6,99.4v5.5h-1.5v-4.8c0-0.8,0-1.3-0.1-1.7c-0.1-1-0.8-1.5-1.8-1.5c-1.1,0-2,0.9-2,3.6v4.5h-1.5v-4.8
	c0-0.8,0-1.3-0.1-1.7c-0.1-1-0.8-1.5-1.8-1.5c-1.1,0-2,0.9-2,3.6v4.5h-1.5v-9h1.5v1.3l0.6-1c0.5-0.4,1.1-0.5,1.9-0.5
	c1.4,0,2.3,0.7,2.6,1.7l0.8-1.2c0.5-0.4,1.1-0.5,1.9-0.5c1.6,0,2.5,0.9,2.7,2.2C438.7,98.3,438.7,98.7,438.6,99.4L438.6,99.4z"/>
<path class="st0" d="M449.8,100.8h-6.5c0.1,2.4,1.3,3.2,2.6,3.2c1.2,0,2.1-0.7,2.3-2h1.5c-0.4,2.2-2.1,3.2-3.9,3.2
	c-2.4,0-4.1-1.5-4.1-4.7c0-2.9,1.8-4.8,4.3-4.8s3.9,1.8,3.9,4.5C449.9,100.3,449.9,100.5,449.8,100.8L449.8,100.8z M443.3,99.7h5.1
	c-0.1-1.9-0.9-2.9-2.4-2.9C444.5,96.8,443.5,97.8,443.3,99.7z"/>
<path class="st0" d="M458.2,103.6l-0.5,1c-0.6,0.4-1.4,0.6-2.3,0.6c-1.6,0-2.9-0.9-2.9-2.6c0-2,1.5-3.1,5.1-3.1h0.6v-0.2
	c0-0.4,0-0.8,0-1.1c-0.1-0.8-0.5-1.4-1.8-1.4c-1.2,0-1.8,0.7-1.9,1.9h-1.5c0.1-1.9,1.5-3,3.5-3c2.1,0,3,0.9,3.2,2.4
	c0,0.4,0.1,0.8,0.1,1.2v3.4c0,0.7,0,1.3,0.2,2.3h-1.5L458.2,103.6L458.2,103.6z M458.2,101.5v-0.9c-2.5-0.2-4.1,0.3-4.1,1.9
	c0,1.1,0.7,1.6,1.8,1.6C457.3,104,458.2,103.1,458.2,101.5z"/>
<path class="st0" d="M465,102.3c0,0.3,0,0.6,0,0.8c0,0.6,0.3,0.8,1.1,0.7v1.1c-0.3,0-0.7,0.1-1,0.1c-0.9,0-1.5-0.3-1.5-1.4
	c0-0.3,0-0.7,0-1.2v-10h1.5V102.3z"/>
<path class="st0" d="M475.1,98.5h-1.5c-0.2-1.1-0.9-1.7-1.9-1.7s-1.5,0.6-1.5,1.3c0,0.9,0.8,1.3,2,1.6c2.1,0.5,3.1,1.4,3.1,2.9
	c0,1.7-1.4,2.6-3.4,2.6c-1.9,0-3.3-0.8-3.5-2.9h1.5c0.2,1.3,1.1,1.8,2.1,1.8c1,0,1.8-0.4,1.8-1.3c0-0.9-0.6-1.3-2.1-1.7
	c-1.6-0.4-2.9-1.1-2.9-2.7s1.3-2.6,3.1-2.6C473.8,95.6,474.9,96.8,475.1,98.5L475.1,98.5z"/>
<path class="st0" d="M484.5,102.3c0,0.3,0,0.5,0,0.7c0.1,0.9,0.4,1,1.6,0.9v1.1c-0.4,0.1-0.8,0.1-1.2,0.1c-1.1,0-1.7-0.5-1.8-1.6
	c0-0.2,0-0.6,0-1.1v-5.3h-1.2V96h1.2v-2.1h1.5V96h1.7v1.1h-1.7V102.3L484.5,102.3z"/>
<path class="st0" d="M497.4,100.4c0,2.5-1.4,4.8-4.5,4.8s-4.5-2.2-4.5-4.8c0-2.5,1.4-4.7,4.5-4.7S497.4,97.9,497.4,100.4z
	 M495.8,100.4c0-2.1-1.1-3.6-2.9-3.6c-1.8,0-2.9,1.5-2.9,3.6c0,2.1,1,3.6,2.9,3.6C494.8,104,495.8,102.5,495.8,100.4z"/>
<path class="st0" d="M508.4,102.7c0,0.6,0,1.3,0,1.8c-0.1,2.6-1.7,4-4.3,4c-2.6,0-3.8-1.1-4-3l0-0.2h1.5l0,0.2
	c0.1,1.1,1,1.9,2.5,1.9c1.8,0,2.8-1,2.8-2.8c0-0.4,0-0.7,0-1v-0.2l-0.7,1c-0.5,0.4-1.5,0.7-2.4,0.7c-2.6,0-4.1-2-4.1-4.6
	c0-3.3,2.1-4.9,4.4-4.9c0.8,0,1.7,0.2,2.2,0.6l0.6,0.9v-1.2h1.5V102.7L508.4,102.7z M507,100.5V100c0-2.3-1.5-3.2-2.8-3.2
	c-1.6,0-2.8,1.2-2.8,3.6c0,2,0.9,3.7,2.7,3.7C505.6,104,507,103.1,507,100.5L507,100.5z"/>
<path class="st0" d="M519.7,100.8h-6.5c0.1,2.4,1.3,3.2,2.6,3.2c1.2,0,2.1-0.7,2.3-2h1.5c-0.4,2.2-2.1,3.2-3.9,3.2
	c-2.3,0-4.1-1.5-4.1-4.7c0-2.9,1.8-4.8,4.3-4.8c2.5,0,3.9,1.8,3.9,4.5C519.8,100.3,519.8,100.5,519.7,100.8L519.7,100.8z
	 M513.2,99.7h5.1c-0.1-1.9-0.9-2.9-2.4-2.9C514.4,96.8,513.4,97.8,513.2,99.7z"/>
<path class="st0" d="M524.8,102.3c0,0.3,0,0.5,0,0.7c0.1,0.9,0.4,1,1.6,0.9v1.1c-0.4,0.1-0.8,0.1-1.2,0.1c-1.1,0-1.7-0.5-1.8-1.6
	c0-0.2,0-0.6,0-1.1v-5.3h-1.2V96h1.2v-2.1h1.5V96h1.7v1.1h-1.7V102.3L524.8,102.3z"/>
<path class="st0" d="M537.4,99.9v5.1h-1.5v-5c0-0.5,0-0.8,0-1.3c-0.1-1.1-0.7-1.9-2.1-1.8c-1.4,0-2.6,1.1-2.6,4.1v4h-1.5V92.3h1.5
	v5.1l0.6-1c0.8-0.6,1.4-0.8,2.3-0.8c2,0,3.1,1.1,3.2,2.6C537.4,98.8,537.4,99.1,537.4,99.9L537.4,99.9z"/>
<path class="st0" d="M548.6,100.8H542c0.1,2.4,1.3,3.2,2.6,3.2c1.2,0,2.1-0.7,2.3-2h1.5c-0.4,2.2-2.1,3.2-3.9,3.2
	c-2.3,0-4.1-1.5-4.1-4.7c0-2.9,1.8-4.8,4.3-4.8c2.5,0,3.9,1.8,3.9,4.5C548.6,100.3,548.6,100.5,548.6,100.8L548.6,100.8z M542,99.7
	h5.1c-0.1-1.9-0.9-2.9-2.4-2.9S542.2,97.8,542,99.7z"/>
<path class="st0" d="M556,95.8v1.1c-1.5-0.1-2.7,0.8-2.7,2.9v5.1h-1.5v-9h1.5v1.4l0.8-1.2c0.4-0.3,0.8-0.4,1.3-0.4
	C555.7,95.7,555.9,95.7,556,95.8z"/>
<path class="st0" d="M570.7,100.8h-6.5c0.1,2.4,1.3,3.2,2.6,3.2c1.2,0,2.1-0.7,2.3-2h1.5c-0.4,2.2-2.1,3.2-3.9,3.2
	c-2.3,0-4.1-1.5-4.1-4.7c0-2.9,1.8-4.8,4.3-4.8c2.5,0,3.9,1.8,3.9,4.5C570.7,100.3,570.7,100.5,570.7,100.8L570.7,100.8z
	 M564.2,99.7h5.1c-0.1-1.9-0.9-2.9-2.4-2.9C565.3,96.8,564.3,97.8,564.2,99.7z"/>
<path class="st0" d="M578,104.9h-1.8l-3.4-9h1.6l2.8,8l2.7-8h1.5L578,104.9z"/>
<path class="st0" d="M591.4,100.8h-6.5c0.1,2.4,1.3,3.2,2.6,3.2c1.2,0,2.1-0.7,2.3-2h1.5c-0.4,2.2-2.1,3.2-3.9,3.2
	c-2.3,0-4.1-1.5-4.1-4.7c0-2.9,1.8-4.8,4.3-4.8c2.5,0,3.9,1.8,3.9,4.5C591.4,100.3,591.4,100.5,591.4,100.8L591.4,100.8z
	 M584.8,99.7h5.1c-0.1-1.9-0.9-2.9-2.4-2.9S585,97.8,584.8,99.7z"/>
<path class="st0" d="M598.8,95.8v1.1c-1.5-0.1-2.7,0.8-2.7,2.9v5.1h-1.5v-9h1.5v1.4l0.8-1.2c0.4-0.3,0.8-0.4,1.3-0.4
	C598.5,95.7,598.7,95.7,598.8,95.8z"/>
<path class="st0" d="M605.3,105.7c-0.7,1.9-1.7,2.8-3.2,2.8c-0.3,0-0.5,0-0.8,0v-1.2c0.2,0,0.4,0,0.5,0c0.9,0,1.5-0.4,2-1.6l0.1-0.3
	l-3.6-9.5h1.7l2.7,7.9l2.7-7.9h1.6L605.3,105.7L605.3,105.7z"/>
<path class="st0" d="M624.1,104.9h-1.5v-1.4l-0.7,1c-0.5,0.4-1.5,0.7-2.4,0.7c-2.6,0-4.1-2-4.1-4.6c0-3.3,2.1-4.9,4.4-4.9
	c0.8,0,1.7,0.2,2.2,0.6l0.6,0.9v-4.7h1.5L624.1,104.9L624.1,104.9z M622.6,100.5V100c0-2.3-1.5-3.2-2.8-3.2c-1.6,0-2.8,1.2-2.8,3.6
	c0,2,0.9,3.7,2.7,3.7C621.3,104,622.6,103.1,622.6,100.5L622.6,100.5z"/>
<path class="st0" d="M633.1,103.6l-0.5,1c-0.6,0.4-1.4,0.6-2.3,0.6c-1.6,0-2.9-0.9-2.9-2.6c0-2,1.5-3.1,5.1-3.1h0.6v-0.2
	c0-0.4,0-0.8,0-1.1c-0.1-0.8-0.6-1.4-1.8-1.4c-1.2,0-1.8,0.7-1.9,1.9h-1.5c0.1-1.9,1.5-3,3.5-3c2.1,0,3,0.9,3.2,2.4
	c0,0.4,0.1,0.8,0.1,1.2v3.4c0,0.7,0,1.3,0.2,2.3h-1.5L633.1,103.6L633.1,103.6z M633,101.5v-0.9c-2.5-0.2-4,0.3-4,1.9
	c0,1.1,0.7,1.6,1.8,1.6C632.2,104,633,103.1,633,101.5z"/>
<path class="st0" d="M642.1,105.7c-0.7,1.9-1.7,2.8-3.2,2.8c-0.3,0-0.5,0-0.8,0v-1.2c0.2,0,0.4,0,0.5,0c0.9,0,1.5-0.4,2-1.6l0.1-0.3
	l-3.6-9.5h1.6l2.7,7.9l2.7-7.9h1.6L642.1,105.7L642.1,105.7z"/>
<path class="st0" d="M179.5,124.7c0,0.5-0.4,0.9-0.9,0.9c-0.5,0-0.9-0.4-0.9-0.9s0.4-0.9,0.9-0.9
	C179.1,123.7,179.5,124.1,179.5,124.7z M177.8,135.7v-9h1.5v9H177.8z"/>
<path class="st0" d="M190.9,130.6v5.1h-1.5v-5c0-0.5,0-0.8,0-1.3c-0.1-1.1-0.7-1.8-2.1-1.8c-1.4,0-2.6,1.1-2.6,4.1v4h-1.5v-9h1.5
	v1.5l0.6-1c0.8-0.6,1.4-0.8,2.4-0.8c2,0,3.1,1,3.2,2.6C190.9,129.5,190.9,129.9,190.9,130.6L190.9,130.6z"/>
<path class="st0" d="M204.8,134.4l-0.5,1c-0.6,0.4-1.4,0.6-2.3,0.6c-1.6,0-2.9-0.9-2.9-2.6c0-2,1.5-3.1,5.1-3.1h0.6V130
	c0-0.4,0-0.8,0-1.1c-0.1-0.8-0.5-1.4-1.8-1.4c-1.2,0-1.8,0.7-1.9,1.9h-1.5c0.1-1.9,1.5-3,3.5-3c2.1,0,3,0.9,3.2,2.4
	c0,0.4,0.1,0.8,0.1,1.2v3.4c0,0.7,0,1.3,0.2,2.3h-1.5L204.8,134.4L204.8,134.4z M204.7,132.3v-0.9c-2.5-0.2-4.1,0.3-4.1,1.9
	c0,1.1,0.7,1.6,1.8,1.6C203.8,134.8,204.7,133.9,204.7,132.3L204.7,132.3z"/>
<path class="st0" d="M211.5,133.1c0,0.3,0,0.6,0,0.8c0,0.6,0.3,0.8,1.1,0.7v1.1c-0.3,0-0.7,0.1-1,0.1c-0.9,0-1.5-0.3-1.5-1.4
	c0-0.3,0-0.7,0-1.2v-10h1.5V133.1z"/>
<path class="st0" d="M217.1,133.1c0,0.3,0,0.6,0,0.8c0,0.6,0.3,0.8,1.1,0.7v1.1c-0.3,0-0.7,0.1-1,0.1c-0.8,0-1.5-0.3-1.5-1.4
	c0-0.3,0-0.7,0-1.2v-10h1.5V133.1z"/>
<path class="st0" d="M228.2,129.2h5.5v1.2h-5.5v5.3h-1.5V124h7.6v1.2h-6.2V129.2L228.2,129.2z"/>
<path class="st0" d="M245.5,131.2c0,2.5-1.4,4.8-4.5,4.8c-3.1,0-4.5-2.2-4.5-4.8c0-2.5,1.4-4.8,4.5-4.8
	C244.1,126.4,245.5,128.6,245.5,131.2z M243.9,131.2c0-2.1-1.1-3.6-2.9-3.6s-2.9,1.5-2.9,3.6c0,2.1,1.1,3.6,2.9,3.6
	S243.9,133.3,243.9,131.2z"/>
<path class="st0" d="M256.1,135.7h-1.5v-1.5l-0.6,1.1c-0.8,0.6-1.4,0.7-2.4,0.7c-1.9,0-3-1.1-3.2-2.3c-0.1-0.5-0.1-0.8-0.1-1.5v-5.4
	h1.5v5.1c0,0.3,0,0.8,0.1,1.2c0.1,1,0.9,1.7,2.1,1.7c1.4,0,2.5-1,2.5-4.1v-4h1.5V135.7L256.1,135.7z"/>
<path class="st0" d="M264.2,126.6v1.1c-1.5-0.1-2.7,0.8-2.7,2.9v5.1H260v-9h1.5v1.4l0.8-1.2c0.4-0.3,0.8-0.4,1.3-0.4
	C263.8,126.5,264,126.5,264.2,126.6z"/>
<path class="st0" d="M278,129.3h-1.5c-0.2-1-0.9-1.7-1.9-1.7s-1.5,0.6-1.5,1.3c0,0.9,0.8,1.3,2,1.6c2.1,0.5,3.1,1.4,3.1,2.9
	c0,1.7-1.5,2.6-3.4,2.6s-3.3-0.9-3.5-2.9h1.5c0.2,1.3,1.1,1.8,2.1,1.8c1,0,1.8-0.4,1.8-1.3c0-0.9-0.6-1.3-2.1-1.7
	c-1.6-0.4-2.9-1.1-2.9-2.7s1.3-2.6,3.1-2.6C276.7,126.4,277.8,127.6,278,129.3L278,129.3z"/>
<path class="st0" d="M288.6,131.6H282c0.1,2.4,1.3,3.2,2.6,3.2c1.2,0,2.1-0.7,2.3-2h1.5c-0.4,2.2-2.1,3.2-3.9,3.2
	c-2.4,0-4.1-1.5-4.1-4.7c0-2.9,1.8-4.8,4.3-4.8s3.9,1.9,3.9,4.5C288.6,131.1,288.6,131.3,288.6,131.6L288.6,131.6z M282.1,130.5h5.1
	c-0.1-1.9-0.9-2.9-2.4-2.9C283.2,127.6,282.2,128.6,282.1,130.5z"/>
<path class="st0" d="M296.9,134.4l-0.5,1c-0.6,0.4-1.4,0.6-2.3,0.6c-1.6,0-2.9-0.9-2.9-2.6c0-2,1.5-3.1,5.1-3.1h0.6V130
	c0-0.4,0-0.8,0-1.1c-0.1-0.8-0.5-1.4-1.8-1.4c-1.2,0-1.8,0.7-1.9,1.9h-1.5c0.1-1.9,1.5-3,3.5-3c2.1,0,3,0.9,3.2,2.4
	c0,0.4,0.1,0.8,0.1,1.2v3.4c0,0.7,0,1.3,0.2,2.3h-1.5L296.9,134.4L296.9,134.4z M296.9,132.3v-0.9c-2.5-0.2-4.1,0.3-4.1,1.9
	c0,1.1,0.7,1.6,1.8,1.6C296,134.8,296.9,133.9,296.9,132.3L296.9,132.3z"/>
<path class="st0" d="M308.2,129.3h-1.5c-0.2-1-0.9-1.7-1.9-1.7s-1.5,0.6-1.5,1.3c0,0.9,0.8,1.3,2,1.6c2.1,0.5,3.1,1.4,3.1,2.9
	c0,1.7-1.4,2.6-3.3,2.6c-1.9,0-3.3-0.9-3.5-2.9h1.5c0.2,1.3,1.1,1.8,2.1,1.8c1,0,1.8-0.4,1.8-1.3c0-0.9-0.6-1.3-2.1-1.7
	c-1.6-0.4-2.9-1.1-2.9-2.7s1.3-2.6,3.1-2.6C306.9,126.4,308,127.6,308.2,129.3L308.2,129.3z"/>
<path class="st0" d="M319.7,131.2c0,2.5-1.4,4.8-4.5,4.8s-4.5-2.2-4.5-4.8c0-2.5,1.4-4.8,4.5-4.8S319.7,128.6,319.7,131.2z
	 M318.1,131.2c0-2.1-1.1-3.6-2.9-3.6c-1.8,0-2.9,1.5-2.9,3.6c0,2.1,1,3.6,2.9,3.6C317,134.8,318.1,133.3,318.1,131.2z"/>
<path class="st0" d="M330.4,130.6v5.1H329v-5c0-0.5,0-0.8,0-1.3c-0.1-1.1-0.7-1.8-2.1-1.8s-2.6,1.1-2.6,4.1v4h-1.5v-9h1.5v1.5l0.6-1
	c0.8-0.6,1.4-0.8,2.4-0.8c2,0,3.1,1,3.2,2.6C330.4,129.5,330.4,129.9,330.4,130.6L330.4,130.6z"/>
<path class="st0" d="M340.2,129.3h-1.5c-0.2-1-0.9-1.7-1.9-1.7s-1.5,0.6-1.5,1.3c0,0.9,0.8,1.3,2,1.6c2.1,0.5,3.1,1.4,3.1,2.9
	c0,1.7-1.4,2.6-3.3,2.6c-1.9,0-3.3-0.9-3.5-2.9h1.5c0.2,1.3,1.1,1.8,2.1,1.8c1,0,1.8-0.4,1.8-1.3c0-0.9-0.6-1.3-2.1-1.7
	c-1.6-0.4-2.9-1.1-2.9-2.7s1.3-2.6,3.1-2.6C338.9,126.4,340,127.6,340.2,129.3L340.2,129.3z"/>
<path class="st0" d="M350,125.9v0.9h1.8v1.1H350v7.8h-1.5v-7.8h-1v-1.1h1V126c0-0.3,0-0.8,0.1-1.1c0.1-1.3,1-2,2.4-2
	c0.4,0,0.7,0,1,0.1v1.2c-1.1-0.2-1.8,0.1-2,0.8C350,125.2,350,125.6,350,125.9L350,125.9z"/>
<path class="st0" d="M362.9,131.2c0,2.5-1.4,4.8-4.5,4.8s-4.5-2.2-4.5-4.8c0-2.5,1.4-4.8,4.5-4.8S362.9,128.6,362.9,131.2z
	 M361.3,131.2c0-2.1-1-3.6-2.9-3.6c-1.8,0-2.9,1.5-2.9,3.6c0,2.1,1.1,3.6,2.9,3.6C360.3,134.8,361.3,133.3,361.3,131.2z"/>
<path class="st0" d="M370.2,126.6v1.1c-1.5-0.1-2.7,0.8-2.7,2.9v5.1h-1.5v-9h1.5v1.4l0.8-1.2c0.4-0.3,0.8-0.4,1.3-0.4
	C369.9,126.5,370,126.5,370.2,126.6z"/>
<path class="st0" d="M385.4,131.6h-6.5c0.1,2.4,1.3,3.2,2.6,3.2c1.2,0,2.1-0.7,2.3-2h1.5c-0.4,2.2-2.1,3.2-3.9,3.2
	c-2.4,0-4.1-1.5-4.1-4.7c0-2.9,1.8-4.8,4.3-4.8s3.9,1.9,3.9,4.5C385.5,131.1,385.5,131.3,385.4,131.6L385.4,131.6z M378.9,130.5h5.1
	c-0.1-1.9-0.9-2.9-2.4-2.9C380.1,127.6,379.1,128.6,378.9,130.5z"/>
<path class="st0" d="M392.7,135.7h-1.8l-3.4-9h1.6l2.8,7.9l2.7-7.9h1.6L392.7,135.7L392.7,135.7z"/>
<path class="st0" d="M406.1,131.6h-6.5c0.1,2.4,1.3,3.2,2.6,3.2c1.2,0,2.1-0.7,2.3-2h1.5c-0.4,2.2-2.1,3.2-3.9,3.2
	c-2.4,0-4.1-1.5-4.1-4.7c0-2.9,1.8-4.8,4.3-4.8s3.9,1.9,3.9,4.5C406.1,131.1,406.1,131.3,406.1,131.6L406.1,131.6z M399.6,130.5h5.1
	c-0.1-1.9-0.9-2.9-2.4-2.9C400.8,127.6,399.8,128.6,399.6,130.5z"/>
<path class="st0" d="M413.6,126.6v1.1c-1.5-0.1-2.7,0.8-2.7,2.9v5.1h-1.5v-9h1.5v1.4l0.8-1.2c0.4-0.3,0.8-0.4,1.3-0.4
	C413.2,126.5,413.4,126.5,413.6,126.6z"/>
<path class="st0" d="M420.1,136.5c-0.7,1.9-1.7,2.8-3.2,2.8c-0.3,0-0.5,0-0.8,0v-1.2c0.2,0,0.4,0,0.5,0c0.9,0,1.5-0.4,2-1.6l0.1-0.3
	l-3.6-9.5h1.6l2.7,7.9l2.7-7.9h1.6L420.1,136.5L420.1,136.5z"/>
<path class="st0" d="M435.2,136.5c-0.7,1.9-1.7,2.8-3.2,2.8c-0.3,0-0.5,0-0.8,0v-1.2c0.2,0,0.4,0,0.5,0c0.9,0,1.5-0.4,2-1.6l0.1-0.3
	l-3.6-9.5h1.6l2.7,7.9l2.7-7.9h1.6L435.2,136.5L435.2,136.5z"/>
<path class="st0" d="M448.8,131.6h-6.5c0.1,2.4,1.3,3.2,2.6,3.2c1.2,0,2.1-0.7,2.3-2h1.5c-0.4,2.2-2.1,3.2-3.9,3.2
	c-2.3,0-4.1-1.5-4.1-4.7c0-2.9,1.8-4.8,4.3-4.8s3.9,1.9,3.9,4.5C448.9,131.1,448.9,131.3,448.8,131.6L448.8,131.6z M442.3,130.5h5.1
	c-0.1-1.9-0.9-2.9-2.4-2.9S442.5,128.6,442.3,130.5z"/>
<path class="st0" d="M457.2,134.4l-0.5,1c-0.6,0.4-1.4,0.6-2.3,0.6c-1.6,0-2.9-0.9-2.9-2.6c0-2,1.5-3.1,5.1-3.1h0.6V130
	c0-0.4,0-0.8,0-1.1c-0.1-0.8-0.5-1.4-1.8-1.4s-1.8,0.7-1.9,1.9h-1.5c0.1-1.9,1.5-3,3.5-3c2.1,0,3.1,0.9,3.2,2.4c0,0.4,0,0.8,0,1.2
	v3.4c0,0.7,0,1.3,0.2,2.3h-1.5L457.2,134.4L457.2,134.4z M457.2,132.3v-0.9c-2.5-0.2-4.1,0.3-4.1,1.9c0,1.1,0.7,1.6,1.8,1.6
	C456.3,134.8,457.2,133.9,457.2,132.3L457.2,132.3z"/>
<path class="st0" d="M466.7,126.6v1.1c-1.5-0.1-2.7,0.8-2.7,2.9v5.1h-1.5v-9h1.5v1.4l0.8-1.2c0.4-0.3,0.8-0.4,1.3-0.4
	C466.4,126.5,466.5,126.5,466.7,126.6z"/>
<path class="st0" d="M471.1,134.9c0,0.6-0.5,1.1-1.1,1.1s-1.1-0.5-1.1-1.1s0.5-1.1,1.1-1.1S471.1,134.2,471.1,134.9z"/>
<path class="st1" d="M214.9,37.9h-2.6V0h2.6V37.9z"/>
<path class="st0" d="M259.4,32.1v3.3h-21.7v-2.3l11.7-12c3.8-3.9,5.6-6.2,5.6-9.4c0-3.3-1.9-6.2-5.8-6.2c-4.2,0-6.2,2.6-6.7,7.1
	l-0.1,0.5h-4l0.1-0.5c0.7-6.8,4.7-10.3,11.2-10.3c6.5,0,9.9,4.1,9.9,8.9c0,4.4-2.4,7.4-7.9,12.8l-8.1,8L259.4,32.1L259.4,32.1z"/>
<path class="st0" d="M291.2,18.7c0,4-1.7,6.2-5.2,6.2c-1.8,0-3-0.6-5.4-1.9c-1.7-0.9-3.1-1.6-4.4-1.6c-1.8,0-2.3,1.4-2.3,3.6h-2.6
	c0-4,1.7-6.2,5.2-6.2c1.8,0,3,0.6,5.4,1.9c1.7,0.9,3.1,1.6,4.4,1.6c1.8,0,2.3-1.4,2.3-3.6H291.2z"/>
<path class="st0" d="M322.2,27.3v8.2h-4v-8.2h-16.1v-2L318.1,3h4V24h4.1v3.3H322.2z M318.1,8.4c-0.8,1.3-1.6,2.6-2.7,4.1L307.2,24
	h10.9V8.4z"/>
<path class="st0" d="M361,8.7c-6.2,0.9-13.1,1.4-20.9,1.5v1.9h20.9v7h-20.9v0.3c-0.1,6.8-1.4,12.3-3.6,16.3l-1.6-1.8
	c1.9-3.5,3-8.3,3.2-14.6v-11c8.1-0.1,15.5-0.6,22-1.5L361,8.7z M341.5,24.7v-2h9c-0.4-0.9-0.8-1.7-1.2-2.4l2.4-0.4
	c0.4,0.8,0.8,1.8,1.1,2.8h9.6v2h-13.6c-0.1,0.9-0.2,1.8-0.4,2.6H360c-0.1,4.1-0.3,6.6-0.6,7.3c-0.2,0.7-0.8,1.2-1.6,1.4
	c-0.8,0.2-2.5,0.4-5.2,0.4h-0.6l-0.6-2.1c0.6,0,1.2,0.1,1.8,0.1c1.7,0,2.8-0.1,3.3-0.3c0.4-0.2,0.8-0.4,0.9-0.8
	c0.1-0.4,0.2-1.7,0.4-3.9h-10.1c-1.2,3-3.4,5.4-6.5,7.1l-1.2-1.9c4-2,6.1-5.3,6.5-9.9L341.5,24.7L341.5,24.7z M358.9,17.1v-3h-18.7
	v3H358.9z"/>
<path class="st2" d="M386.8,37.9h-2.6V0h2.6V37.9z"/>
<path class="st0" d="M422.8,25.2c0,5.9-1.8,10.7-7.4,10.7s-7.4-4.7-7.4-10.7s1.8-10.7,7.4-10.7S422.8,19.2,422.8,25.2z M419.9,25.2
	c0-5.4-1.3-8.6-4.5-8.6c-3.3,0-4.6,3.3-4.6,8.6s1.3,8.6,4.6,8.6C418.6,33.8,419.9,30.5,419.9,25.2z"/>
<path class="st0" d="M443.3,28.5c0,4.4-3.1,7.3-7.2,7.3c-4.6,0-7.2-2.9-7.2-9.7c0-8.3,3.7-11.6,7.9-11.6c3.5,0,6,2.2,6.3,5.5l0,0.3
	h-2.7l-0.1-0.3c-0.5-2.3-1.7-3.5-3.8-3.5c-2.8,0-4.7,2.2-4.9,8.2l1.2-1.8c1.1-0.9,2.3-1.3,3.7-1.3C440.8,21.6,443.3,24.5,443.3,28.5
	L443.3,28.5z M440.5,28.8c0-2.9-1.3-5.2-4.4-5.2c-2.3,0-4.3,1.8-4.3,5.2c0,2.9,1.7,5,4.3,5S440.5,31.8,440.5,28.8z"/>
<path class="st0" d="M482.4,32.7v2.8h-18.3v-1.9l9.9-10.1c3.2-3.3,4.8-5.3,4.8-7.9c0-2.8-1.6-5.2-4.9-5.2c-3.5,0-5.2,2.2-5.6,6
	l0,0.4h-3.4l0-0.4c0.6-5.7,4-8.7,9.4-8.7s8.3,3.4,8.3,7.5c0,3.7-2,6.3-6.7,10.8l-6.8,6.8L482.4,32.7L482.4,32.7z"/>
<path class="st0" d="M510.1,32.7v2.8h-18.3v-1.9l9.9-10.1c3.2-3.3,4.8-5.3,4.8-7.9c0-2.8-1.6-5.2-4.9-5.2c-3.5,0-5.2,2.2-5.6,6
	l0,0.4h-3.4l0-0.4c0.5-5.7,4-8.7,9.4-8.7s8.3,3.4,8.3,7.5c0,3.7-2,6.3-6.7,10.8l-6.9,6.8L510.1,32.7L510.1,32.7z"/>
<path class="st0" d="M538.4,26.6c0,6-4.7,9.4-9.8,9.4c-5.5,0-8.7-2.7-9.2-7.8l0-0.4h3.4l0.1,0.4c0.6,3.1,2.3,5.1,5.7,5.1
	c3.6,0,6-2.4,6-6.5s-2.2-6.7-5.8-6.7c-2.5,0-4.4,1.1-5.7,3.9h-3.2l1.9-15.9h15.5v2.8h-12.8l-1.2,9.5l1.7-1.8
	c1.3-0.8,2.7-1.1,4.3-1.1C535.4,17.4,538.4,21.4,538.4,26.6L538.4,26.6z"/>
<path class="st0" d="M565.9,26.2c0,5.8-4.1,9.8-9.7,9.8c-6.1,0-9.7-3.8-9.7-12.9c0-11,5-15.5,10.6-15.5c4.7,0,8,2.9,8.4,7.4l0,0.4
	H562l-0.1-0.4c-0.6-3.1-2.3-4.7-5-4.7c-3.7,0-6.3,3-6.6,10.9l1.5-2.5c1.5-1.2,3-1.7,5-1.7C562.5,17,565.9,20.8,565.9,26.2
	L565.9,26.2z M562.1,26.6c0-3.8-1.7-7-5.9-7c-3.1,0-5.7,2.3-5.7,6.9c0,3.8,2.3,6.7,5.7,6.7S562.1,30.6,562.1,26.6L562.1,26.6z"/>
<path class="st0" d="M593.6,26.2c0,5.8-4.1,9.8-9.7,9.8c-6.1,0-9.7-3.8-9.7-12.9c0-11,5-15.5,10.6-15.5c4.7,0,8,2.9,8.4,7.4l0,0.4
	h-3.6l-0.1-0.4c-0.6-3.1-2.3-4.7-5-4.7c-3.7,0-6.3,3-6.6,10.9l1.5-2.5c1.5-1.2,3-1.7,5-1.7C590.3,17,593.6,20.8,593.6,26.2
	L593.6,26.2z M589.8,26.6c0-3.8-1.7-7-5.9-7c-3.1,0-5.7,2.3-5.7,6.9c0,3.8,2.3,6.7,5.7,6.7C587.4,33.3,589.8,30.6,589.8,26.6
	L589.8,26.6z"/>
<path class="st0" d="M621.6,27.8c0,6-5,8.2-9.8,8.2c-5.2,0-9.8-2.3-9.8-8.2c0-3.3,2.5-5.9,5.4-6.8c-2.5-1-4.2-3.1-4.2-6.1
	c0-4.5,3.5-7.4,8.8-7.4c5.3,0,8.8,2.8,8.8,7.4c0,3-2,5.1-4.5,6.1C619.2,21.9,621.5,24.5,621.6,27.8L621.6,27.8z M617.8,27.9
	c0-2.8-1.7-5.4-5.9-5.4s-6,2.5-6,5.4c0,3.1,2,5.4,6,5.4S617.8,31.1,617.8,27.9z M607,15c0,2.8,1.7,4.9,5.1,4.9
	c3.4,0,5.1-2.1,5.1-4.9c0-2.6-1.7-4.8-5.1-4.8S607,12.4,607,15z"/>
<path class="st0" d="M649.3,27.8c0,6-5,8.2-9.8,8.2c-5.2,0-9.8-2.3-9.8-8.2c0-3.3,2.5-5.9,5.4-6.8c-2.5-1-4.2-3.1-4.2-6.1
	c0-4.5,3.5-7.4,8.8-7.4c5.3,0,8.8,2.8,8.8,7.4c0,3-2,5.1-4.5,6.1C647,21.9,649.3,24.5,649.3,27.8L649.3,27.8z M645.5,27.9
	c0-2.8-1.7-5.4-5.9-5.4c-4.2,0-6,2.5-6,5.4c0,3.1,2,5.4,6,5.4S645.5,31.1,645.5,27.9z M634.7,15c0,2.8,1.7,4.9,5.1,4.9
	c3.4,0,5.1-2.1,5.1-4.9c0-2.6-1.7-4.8-5.1-4.8S634.7,12.4,634.7,15z"/>
<g>
	<path class="st0" d="M27,32.3v3.4H4.2v-2.4l12.3-12.6c4-4.1,5.9-6.5,5.9-9.8c0-3.5-2-6.5-6.1-6.5c-4.4,0-6.5,2.7-7,7.5l0,0.5H5.1
		l0-0.5C5.8,4.8,10,1.1,16.8,1.1s10.4,4.3,10.4,9.4c0,4.6-2.5,7.8-8.3,13.4l-8.5,8.4L27,32.3L27,32.3z"/>
	<path class="st0" d="M58.1,26.3c0,6.4-5.8,10.2-12.3,10.2s-11-2.9-11.7-10.2L34,25.7h4.2l0,0.5c0.5,4.8,3.7,6.9,7.9,6.9
		c4.1,0,7.2-2.4,7.2-6.6s-2.6-6.3-8.1-6.3h-0.8v-3.4h0.8c4,0,7.3-2.4,7.3-6.7c0-3.4-2.4-5.8-6-5.8c-3.6,0-6.5,2.2-6.9,6.7l-0.1,0.5
		h-4.2l0-0.5c0.6-6.2,4.8-10,11.7-10c6.3,0,10.2,3.5,10.2,8.6c0,3.9-2.5,6.9-6,8C55.5,18.8,58.1,21.8,58.1,26.3L58.1,26.3z"/>
	<path class="st0" d="M89.1,18.2c0,4.2-1.8,6.5-5.4,6.5c-1.9,0-3.1-0.6-5.7-2c-1.8-1-3.2-1.7-4.6-1.7c-1.9,0-2.4,1.4-2.4,3.7h-2.8
		c0-4.2,1.8-6.5,5.4-6.5c1.9,0,3.2,0.6,5.7,2c1.8,1,3.2,1.7,4.6,1.7c1.9,0,2.4-1.4,2.4-3.7H89.1L89.1,18.2z"/>
	<path class="st0" d="M119.6,27.2v8.6h-4.2v-8.6H98.5V25l16.9-23.3h4.2v22h4.3v3.4L119.6,27.2L119.6,27.2z M115.3,7.4
		c-0.8,1.3-1.7,2.8-2.8,4.3l-8.7,12h11.5V7.4z"/>
	<path class="st0" d="M134.9,26.2c0.5,4.8,3.7,6.9,7.9,6.9c4.1,0,7.2-2.4,7.2-6.6s-2.6-6.3-8.1-6.3H141v-3.4h0.8
		c4,0,7.3-2.4,7.3-6.7c0-3.4-2.4-5.8-6-5.8c-3.6,0-6.5,2.2-6.9,6.7l-0.1,0.5h-4.2l0-0.5c0.6-6.2,4.8-10,11.7-10
		c6.3,0,10.2,3.5,10.2,8.6c0,3.9-2.5,6.9-6,8c4.2,1.2,6.8,4.2,6.8,8.6h0c0,6.4-5.8,10.2-12.3,10.2s-11-2.9-11.7-10.2l-0.1-0.5h4.2
		L134.9,26.2"/>
	<path class="st0" d="M166.4,14.8V5.9h2.4v8.9h3.9v2.4h-3.9v11.3c1.4-0.5,2.7-1,4-1.6v2.4c-3.2,1.4-6.5,2.6-10.2,3.5l-0.6-2.4
		c1.5-0.3,2.9-0.7,4.4-1.1V17.2h-4.1v-2.4H166.4z M191.5,7.4v2.3h-7.8v12.8h8.8v2.3h-8.8v12.2h-2.3V24.9h-8.6v-2.3h8.6V9.7h-7.7V7.4
		H191.5z M178.7,20.3l-2,0.5c-0.6-2.9-1.4-5.8-2.4-8.5l2-0.7C177.2,14.2,178,17.1,178.7,20.3z M190.6,12c-0.7,3.3-1.6,6.2-2.6,8.7
		l-2-0.8c1-2.2,1.8-5.1,2.6-8.5L190.6,12z"/>
</g>
</svg>
