<svg width="289" height="202" viewBox="0 0 289 202" fill="none" xmlns="http://www.w3.org/2000/svg">
<path d="M5.21 178.27C5.21 179.95 4.28 181.14 2.6 181.14C0.92 181.14 0 179.95 0 178.27C0 176.59 0.93 175.4 2.61 175.4C4.29 175.4 5.22 176.58 5.22 178.27H5.21ZM4.44 178.27C4.44 176.83 3.76 175.94 2.6 175.94C1.44 175.94 0.77 176.83 0.77 178.27C0.77 179.71 1.45 180.6 2.61 180.6C3.77 180.6 4.45 179.7 4.45 178.27H4.44Z" fill="#221815"/>
<path d="M10.3302 178.65V181.03H9.64023V178.69C9.64023 178.47 9.64023 178.3 9.62023 178.08C9.58023 177.58 9.31023 177.22 8.65023 177.22C7.99023 177.22 7.43023 177.72 7.43023 179.16V181.02H6.74023V176.79H7.43023V177.52L7.69023 177.03C8.05023 176.75 8.36023 176.68 8.79023 176.68C9.72023 176.68 10.2402 177.18 10.3002 177.92C10.3202 178.14 10.3202 178.3 10.3202 178.65H10.3302Z" fill="#221815"/>
<path d="M15.5998 179.12H12.5298C12.5898 180.24 13.1198 180.62 13.7498 180.62C14.2998 180.62 14.7498 180.28 14.8398 179.67H15.5598C15.3898 180.69 14.5798 181.15 13.7098 181.15C12.6098 181.15 11.7798 180.43 11.7798 178.94C11.7798 177.56 12.6398 176.69 13.7898 176.69C14.9398 176.69 15.5998 177.56 15.5998 178.8C15.5998 178.86 15.5998 178.98 15.5798 179.13L15.5998 179.12ZM12.5398 178.59H14.9198C14.8598 177.71 14.4798 177.21 13.7898 177.21C13.0998 177.21 12.6198 177.69 12.5398 178.59Z" fill="#221815"/>
<path d="M23.1198 178.65V181.03H22.4298V178.69C22.4298 178.47 22.4298 178.3 22.4098 178.08C22.3698 177.58 22.0998 177.2 21.4398 177.22C20.7798 177.24 20.2198 177.72 20.2198 179.16V181.02H19.5298V175.11H20.2198V177.52L20.4798 177.03C20.8398 176.75 21.1498 176.68 21.5798 176.68C22.5098 176.68 23.0298 177.18 23.0898 177.92C23.1098 178.14 23.1098 178.3 23.1098 178.65H23.1198Z" fill="#221815"/>
<path d="M27.2801 180.42L27.0501 180.88C26.7601 181.08 26.3901 181.14 25.9901 181.14C25.2201 181.14 24.6201 180.72 24.6201 179.93C24.6201 178.97 25.3401 178.47 27.0001 178.47H27.2701V178.36C27.2701 178.18 27.2701 178.01 27.2501 177.85C27.2201 177.46 26.9901 177.2 26.4301 177.2C25.8701 177.2 25.5701 177.51 25.5201 178.1H24.8001C24.8601 177.2 25.5001 176.68 26.4301 176.68C27.4401 176.68 27.8601 177.1 27.9301 177.8C27.9501 177.97 27.9501 178.18 27.9501 178.36V179.95C27.9501 180.27 27.9701 180.56 28.0301 181.03H27.3401L27.2701 180.42H27.2801ZM27.2801 179.42V178.99C26.1101 178.9 25.3801 179.15 25.3801 179.88C25.3801 180.39 25.7101 180.62 26.2301 180.62C26.8701 180.62 27.2901 180.2 27.2901 179.43L27.2801 179.42Z" fill="#221815"/>
<path d="M33.8601 178.85C33.8601 180.42 32.8801 181.14 31.7901 181.14C31.4401 181.14 30.9901 181.04 30.7801 180.86L30.5001 180.44V182.59H29.8101V176.79H30.5001V177.47L30.8201 177.01C31.0601 176.81 31.5101 176.67 31.9401 176.67C33.1801 176.67 33.8701 177.6 33.8701 178.84L33.8601 178.85ZM33.1101 178.93C33.1101 177.97 32.6801 177.21 31.8301 177.21C31.1301 177.21 30.5001 177.66 30.5001 178.87V179.1C30.5001 180.2 31.1901 180.61 31.7901 180.61C32.5301 180.61 33.1101 180.03 33.1101 178.92V178.93Z" fill="#221815"/>
<path d="M39.3898 178.85C39.3898 180.42 38.4098 181.14 37.3198 181.14C36.9698 181.14 36.5198 181.04 36.3098 180.86L36.0298 180.44V182.59H35.3398V176.79H36.0298V177.47L36.3498 177.01C36.5898 176.81 37.0398 176.67 37.4698 176.67C38.7098 176.67 39.3998 177.6 39.3998 178.84L39.3898 178.85ZM38.6398 178.93C38.6398 177.97 38.2098 177.21 37.3598 177.21C36.6598 177.21 36.0198 177.66 36.0198 178.87V179.1C36.0198 180.2 36.7098 180.61 37.3098 180.61C38.0498 180.61 38.6298 180.03 38.6298 178.92L38.6398 178.93Z" fill="#221815"/>
<path d="M42.5798 181.39C42.2398 182.29 41.7798 182.71 41.0898 182.71C40.9398 182.71 40.8398 182.71 40.7398 182.69V182.13C40.8398 182.13 40.9198 182.13 40.9898 182.13C41.4098 182.13 41.6898 181.95 41.9098 181.39L41.9698 181.24L40.2798 176.79H41.0598L42.3198 180.52L43.5698 176.79H44.3198L42.5798 181.39Z" fill="#221815"/>
<path d="M48.6299 179.81C48.6299 179.94 48.6299 180.07 48.6299 180.21C48.6499 180.48 48.7699 180.57 49.1499 180.53V181.03C48.9999 181.05 48.8199 181.06 48.6599 181.06C48.2599 181.06 47.9599 180.93 47.9399 180.4C47.9399 180.26 47.9399 180.07 47.9399 179.84V175.15H48.6299V179.81Z" fill="#221815"/>
<path d="M51.3702 175.84C51.3702 176.09 51.1802 176.28 50.9302 176.28C50.6802 176.28 50.4902 176.09 50.4902 175.84C50.4902 175.59 50.6802 175.4 50.9302 175.4C51.1802 175.4 51.3702 175.59 51.3702 175.84ZM50.5902 181.03V176.79H51.2802V181.03H50.5902Z" fill="#221815"/>
<path d="M53.8502 176.41V176.83H54.7202V177.36H53.8502V181.04H53.1602V177.35H52.7002V176.82H53.1602V176.47C53.1602 176.31 53.1602 176.1 53.1802 175.96C53.2502 175.34 53.6702 175 54.3002 175C54.4802 175 54.6402 175.02 54.7902 175.04V175.61C54.2702 175.51 53.9302 175.63 53.8702 175.98C53.8502 176.09 53.8502 176.29 53.8502 176.41Z" fill="#221815"/>
<path d="M59.5602 179.12H56.4902C56.5502 180.24 57.0802 180.62 57.7102 180.62C58.2602 180.62 58.7102 180.28 58.8002 179.67H59.5202C59.3502 180.69 58.5402 181.15 57.6702 181.15C56.5702 181.15 55.7402 180.43 55.7402 178.94C55.7402 177.56 56.6002 176.69 57.7502 176.69C58.9002 176.69 59.5602 177.56 59.5602 178.8C59.5602 178.86 59.5602 178.98 59.5402 179.13L59.5602 179.12ZM56.5002 178.59H58.8802C58.8202 177.71 58.4402 177.21 57.7402 177.21C57.0402 177.21 56.5702 177.69 56.4902 178.59H56.5002Z" fill="#221815"/>
<path d="M67.7802 181.03H66.9602L66.0202 177.46L65.0802 181.03H64.2602L62.9102 176.79H63.7002L64.6802 180.37L65.6102 176.79H66.4702L67.4102 180.35L68.3902 176.79H69.1302L67.7802 181.03Z" fill="#221815"/>
<path d="M71.1998 175.84C71.1998 176.09 71.0098 176.28 70.7598 176.28C70.5098 176.28 70.3198 176.09 70.3198 175.84C70.3198 175.59 70.5098 175.4 70.7598 175.4C71.0098 175.4 71.1998 175.59 71.1998 175.84ZM70.4198 181.03V176.79H71.1098V181.03H70.4198Z" fill="#221815"/>
<path d="M73.7798 179.79C73.7798 179.93 73.7798 180.01 73.7798 180.12C73.8098 180.53 73.9798 180.62 74.5198 180.55V181.05C74.3198 181.08 74.1298 181.09 73.9398 181.09C73.4098 181.09 73.1398 180.87 73.0998 180.35C73.0998 180.24 73.0998 180.06 73.0998 179.82V177.35H72.5298V176.82H73.0998V175.84H73.7898V176.82H74.5798V177.35H73.7898V179.79H73.7798Z" fill="#221815"/>
<path d="M79.6798 178.65V181.03H78.9898V178.69C78.9898 178.47 78.9898 178.3 78.9698 178.08C78.9298 177.58 78.6598 177.2 77.9998 177.22C77.3398 177.24 76.7798 177.72 76.7798 179.16V181.02H76.0898V175.11H76.7798V177.52L77.0398 177.03C77.3998 176.75 77.7098 176.68 78.1398 176.68C79.0698 176.68 79.5898 177.18 79.6498 177.92C79.6698 178.14 79.6698 178.3 79.6698 178.65H79.6798Z" fill="#221815"/>
<path d="M84.5002 181.4C84.5002 181.56 84.5002 181.77 84.4802 181.91C84.4202 182.42 84.1402 182.71 83.4902 182.71C83.3602 182.71 83.2702 182.71 83.1602 182.69V182.13C83.6002 182.17 83.7702 182.03 83.8002 181.78C83.8202 181.67 83.8202 181.55 83.8202 181.43V176.79H84.5102V181.4H84.5002ZM84.6002 175.84C84.6002 176.09 84.4102 176.28 84.1602 176.28C83.9102 176.28 83.7202 176.09 83.7202 175.84C83.7202 175.59 83.9102 175.4 84.1602 175.4C84.4102 175.4 84.6002 175.59 84.6002 175.84Z" fill="#221815"/>
<path d="M89.8798 181.03H89.1898V180.31L88.9298 180.81C88.5698 181.07 88.2598 181.15 87.8298 181.15C86.9498 181.15 86.4398 180.65 86.3398 180.07C86.3098 179.85 86.2998 179.69 86.2998 179.34V176.79H86.9898V179.2C86.9898 179.34 86.9898 179.57 87.0198 179.78C87.0798 180.26 87.4298 180.59 87.9998 180.59C88.6598 180.59 89.1898 180.09 89.1898 178.65V176.79H89.8798V181.03Z" fill="#221815"/>
<path d="M94.5201 178H93.8001C93.7001 177.5 93.4001 177.21 92.9001 177.21C92.4001 177.21 92.2001 177.47 92.2001 177.84C92.2001 178.26 92.5501 178.43 93.1301 178.58C94.1101 178.84 94.5701 179.22 94.5701 179.94C94.5701 180.74 93.8901 181.14 92.9901 181.14C92.0901 181.14 91.4501 180.74 91.3301 179.78H92.0501C92.1601 180.4 92.5501 180.61 93.0401 180.61C93.5001 180.61 93.8601 180.4 93.8601 179.99C93.8601 179.58 93.5701 179.37 92.8601 179.17C92.1001 178.96 91.4901 178.65 91.4901 177.91C91.4901 177.17 92.0801 176.67 92.9501 176.67C93.9001 176.67 94.4201 177.21 94.5101 177.99L94.5201 178Z" fill="#221815"/>
<path d="M96.8701 179.79C96.8701 179.93 96.8701 180.01 96.8701 180.12C96.9001 180.53 97.0701 180.62 97.6101 180.55V181.05C97.4101 181.08 97.2201 181.09 97.0301 181.09C96.5001 181.09 96.2301 180.87 96.1901 180.35C96.1901 180.24 96.1901 180.06 96.1901 179.82V177.35H95.6201V176.82H96.1901V175.84H96.8801V176.82H97.6701V177.35H96.8801V179.79H96.8701Z" fill="#221815"/>
<path d="M103.89 176.07V181.03H103.2V176.07H101.23V175.51H105.85V176.07H103.88H103.89Z" fill="#221815"/>
<path d="M111.38 181.03H110.56L109.62 177.46L108.68 181.03H107.86L106.51 176.79H107.3L108.28 180.37L109.21 176.79H110.07L111.01 180.35L111.99 176.79H112.73L111.38 181.03Z" fill="#221815"/>
<path d="M117.87 178.91C117.87 180.1 117.21 181.14 115.77 181.14C114.33 181.14 113.67 180.1 113.67 178.91C113.67 177.72 114.33 176.68 115.77 176.68C117.21 176.68 117.87 177.71 117.87 178.91ZM117.12 178.91C117.12 177.91 116.62 177.21 115.77 177.21C114.92 177.21 114.42 177.91 114.42 178.91C114.42 179.91 114.92 180.61 115.77 180.61C116.62 180.61 117.12 179.9 117.12 178.91Z" fill="#221815"/>
<path d="M125.56 178.91C125.56 180.1 124.9 181.14 123.46 181.14C122.02 181.14 121.36 180.1 121.36 178.91C121.36 177.72 122.02 176.68 123.46 176.68C124.9 176.68 125.56 177.71 125.56 178.91ZM124.81 178.91C124.81 177.91 124.31 177.21 123.46 177.21C122.61 177.21 122.11 177.91 122.11 178.91C122.11 179.91 122.61 180.61 123.46 180.61C124.31 180.61 124.81 179.9 124.81 178.91Z" fill="#221815"/>
<path d="M127.76 176.41V176.83H128.63V177.36H127.76V181.04H127.07V177.35H126.61V176.82H127.07V176.47C127.07 176.31 127.07 176.1 127.09 175.96C127.16 175.34 127.58 175 128.21 175C128.39 175 128.55 175.02 128.7 175.04V175.61C128.18 175.51 127.84 175.63 127.78 175.98C127.76 176.09 127.76 176.29 127.76 176.41Z" fill="#221815"/>
<path d="M135.88 181.03H135.19V180.31L134.93 180.81C134.57 181.07 134.26 181.15 133.83 181.15C132.95 181.15 132.44 180.65 132.34 180.07C132.31 179.85 132.3 179.69 132.3 179.34V176.79H132.99V179.2C132.99 179.34 132.99 179.57 133.02 179.78C133.08 180.26 133.43 180.59 134 180.59C134.66 180.59 135.19 180.09 135.19 178.65V176.79H135.88V181.03Z" fill="#221815"/>
<path d="M140.53 178H139.81C139.71 177.5 139.41 177.21 138.91 177.21C138.41 177.21 138.21 177.47 138.21 177.84C138.21 178.26 138.56 178.43 139.14 178.58C140.12 178.84 140.58 179.22 140.58 179.94C140.58 180.74 139.9 181.14 139.01 181.14C138.12 181.14 137.47 180.74 137.35 179.78H138.07C138.18 180.4 138.57 180.61 139.06 180.61C139.51 180.61 139.88 180.4 139.88 179.99C139.88 179.58 139.59 179.37 138.88 179.17C138.12 178.96 137.51 178.65 137.51 177.91C137.51 177.17 138.1 176.67 138.97 176.67C139.92 176.67 140.44 177.21 140.53 177.99V178Z" fill="#221815"/>
<path d="M148 178.65V181.03H147.31V178.69C147.31 178.47 147.31 178.3 147.29 178.08C147.25 177.58 146.98 177.2 146.32 177.22C145.66 177.24 145.1 177.72 145.1 179.16V181.02H144.41V175.11H145.1V177.52L145.36 177.03C145.72 176.75 146.03 176.68 146.46 176.68C147.39 176.68 147.91 177.18 147.97 177.92C147.99 178.14 147.99 178.3 147.99 178.65H148Z" fill="#221815"/>
<path d="M152.17 180.42L151.94 180.88C151.65 181.08 151.28 181.14 150.88 181.14C150.11 181.14 149.51 180.72 149.51 179.93C149.51 178.97 150.23 178.47 151.89 178.47H152.16V178.36C152.16 178.18 152.16 178.01 152.14 177.85C152.11 177.46 151.88 177.2 151.32 177.2C150.76 177.2 150.46 177.51 150.41 178.1H149.69C149.75 177.2 150.39 176.68 151.32 176.68C152.33 176.68 152.75 177.1 152.82 177.8C152.84 177.97 152.84 178.18 152.84 178.36V179.95C152.84 180.27 152.86 180.56 152.92 181.03H152.23L152.16 180.42H152.17ZM152.17 179.42V178.99C151 178.9 150.27 179.15 150.27 179.88C150.27 180.39 150.6 180.62 151.12 180.62C151.76 180.62 152.18 180.2 152.18 179.43L152.17 179.42Z" fill="#221815"/>
<path d="M156.56 181.03H155.72L154.11 176.79H154.87L156.16 180.52L157.43 176.79H158.16L156.55 181.03H156.56Z" fill="#221815"/>
<path d="M160.23 175.84C160.23 176.09 160.04 176.28 159.79 176.28C159.54 176.28 159.35 176.09 159.35 175.84C159.35 175.59 159.54 175.4 159.79 175.4C160.04 175.4 160.23 175.59 160.23 175.84ZM159.45 181.03V176.79H160.14V181.03H159.45Z" fill="#221815"/>
<path d="M165.57 178.65V181.03H164.88V178.69C164.88 178.47 164.88 178.3 164.86 178.08C164.82 177.58 164.55 177.22 163.89 177.22C163.23 177.22 162.67 177.72 162.67 179.16V181.02H161.98V176.79H162.67V177.52L162.93 177.03C163.29 176.75 163.6 176.68 164.03 176.68C164.96 176.68 165.48 177.18 165.54 177.92C165.56 178.14 165.56 178.3 165.56 178.65H165.57Z" fill="#221815"/>
<path d="M171.08 179.99C171.08 180.25 171.08 180.58 171.08 180.81C171.04 182.05 170.29 182.7 169.06 182.7C167.83 182.7 167.25 182.2 167.17 181.3V181.22H167.86V181.29C167.92 181.81 168.34 182.17 169.07 182.17C169.91 182.17 170.37 181.69 170.4 180.87C170.4 180.67 170.4 180.53 170.4 180.41V180.34L170.08 180.8C169.84 181 169.39 181.14 168.96 181.14C167.72 181.14 167.03 180.21 167.03 178.97C167.03 177.4 168.01 176.68 169.1 176.68C169.45 176.68 169.9 176.78 170.12 176.96L170.4 177.38V176.8H171.09V180L171.08 179.99ZM170.39 178.95V178.72C170.39 177.62 169.7 177.21 169.09 177.21C168.35 177.21 167.77 177.79 167.77 178.9C167.77 179.86 168.2 180.62 169.05 180.62C169.75 180.62 170.39 180.17 170.39 178.96V178.95Z" fill="#221815"/>
<path d="M177.64 176.07V181.03H176.95V176.07H174.98V175.51H179.6V176.07H177.63H177.64Z" fill="#221815"/>
<path d="M184.24 178.65V181.03H183.55V178.69C183.55 178.47 183.55 178.3 183.53 178.08C183.49 177.58 183.22 177.2 182.56 177.22C181.9 177.24 181.34 177.72 181.34 179.16V181.02H180.65V175.11H181.34V177.52L181.6 177.03C181.96 176.75 182.27 176.68 182.7 176.68C183.63 176.68 184.15 177.18 184.21 177.92C184.23 178.14 184.23 178.3 184.23 178.65H184.24Z" fill="#221815"/>
<path d="M187.99 176.75V177.27C187.27 177.22 186.73 177.65 186.73 178.61V181.02H186.04V176.79H186.73V177.45L187.11 176.88C187.29 176.76 187.5 176.69 187.7 176.69C187.81 176.69 187.91 176.71 187.99 176.75Z" fill="#221815"/>
<path d="M192.68 179.12H189.61C189.67 180.24 190.2 180.62 190.83 180.62C191.38 180.62 191.83 180.28 191.92 179.67H192.64C192.47 180.69 191.66 181.15 190.79 181.15C189.69 181.15 188.86 180.43 188.86 178.94C188.86 177.56 189.72 176.69 190.87 176.69C192.02 176.69 192.68 177.56 192.68 178.8C192.68 178.86 192.68 178.98 192.66 179.13L192.68 179.12ZM189.62 178.59H192C191.94 177.71 191.56 177.21 190.87 177.21C190.18 177.21 189.7 177.69 189.62 178.59Z" fill="#221815"/>
<path d="M197.72 179.12H194.65C194.71 180.24 195.24 180.62 195.87 180.62C196.42 180.62 196.87 180.28 196.96 179.67H197.68C197.51 180.69 196.7 181.15 195.83 181.15C194.73 181.15 193.9 180.43 193.9 178.94C193.9 177.56 194.76 176.69 195.91 176.69C197.06 176.69 197.72 177.56 197.72 178.8C197.72 178.86 197.72 178.98 197.7 179.13L197.72 179.12ZM194.66 178.59H197.04C196.98 177.71 196.6 177.21 195.9 177.21C195.2 177.21 194.73 177.69 194.65 178.59H194.66Z" fill="#221815"/>
<path d="M207.33 178.44V181.03H206.64V178.76C206.64 178.38 206.64 178.15 206.61 177.94C206.55 177.46 206.24 177.23 205.76 177.23C205.22 177.23 204.83 177.65 204.83 178.94V181.04H204.14V178.76C204.14 178.38 204.14 178.15 204.11 177.94C204.05 177.46 203.74 177.23 203.26 177.23C202.72 177.23 202.33 177.65 202.33 178.94V181.04H201.64V176.79H202.33V177.41L202.6 176.93C202.82 176.75 203.12 176.68 203.5 176.68C204.15 176.68 204.56 177.01 204.72 177.47L205.1 176.93C205.32 176.75 205.62 176.68 206 176.68C206.76 176.68 207.19 177.13 207.29 177.71C207.32 177.93 207.33 178.09 207.33 178.44Z" fill="#221815"/>
<path d="M212.6 179.12H209.53C209.59 180.24 210.12 180.62 210.75 180.62C211.3 180.62 211.75 180.28 211.84 179.67H212.56C212.39 180.69 211.58 181.15 210.71 181.15C209.61 181.15 208.78 180.43 208.78 178.94C208.78 177.56 209.64 176.69 210.79 176.69C211.94 176.69 212.6 177.56 212.6 178.8C212.6 178.86 212.6 178.98 212.58 179.13L212.6 179.12ZM209.54 178.59H211.92C211.86 177.71 211.48 177.21 210.78 177.21C210.08 177.21 209.61 177.69 209.53 178.59H209.54Z" fill="#221815"/>
<path d="M216.52 180.42L216.29 180.88C216 181.08 215.63 181.14 215.23 181.14C214.46 181.14 213.86 180.72 213.86 179.93C213.86 178.97 214.58 178.47 216.24 178.47H216.51V178.36C216.51 178.18 216.51 178.01 216.49 177.85C216.46 177.46 216.23 177.2 215.67 177.2C215.11 177.2 214.81 177.51 214.76 178.1H214.04C214.1 177.2 214.74 176.68 215.67 176.68C216.68 176.68 217.1 177.1 217.17 177.8C217.19 177.97 217.19 178.18 217.19 178.36V179.95C217.19 180.27 217.21 180.56 217.27 181.03H216.58L216.51 180.42H216.52ZM216.52 179.42V178.99C215.35 178.9 214.62 179.15 214.62 179.88C214.62 180.39 214.95 180.62 215.47 180.62C216.11 180.62 216.53 180.2 216.53 179.43L216.52 179.42Z" fill="#221815"/>
<path d="M219.71 179.81C219.71 179.94 219.71 180.07 219.71 180.21C219.73 180.48 219.85 180.57 220.23 180.53V181.03C220.08 181.05 219.9 181.06 219.74 181.06C219.34 181.06 219.04 180.93 219.02 180.4C219.02 180.26 219.02 180.07 219.02 179.84V175.15H219.71V179.81Z" fill="#221815"/>
<path d="M224.46 178H223.74C223.64 177.5 223.34 177.21 222.84 177.21C222.34 177.21 222.14 177.47 222.14 177.84C222.14 178.26 222.49 178.43 223.07 178.58C224.05 178.84 224.51 179.22 224.51 179.94C224.51 180.74 223.83 181.14 222.94 181.14C222.05 181.14 221.4 180.74 221.28 179.78H222C222.11 180.4 222.5 180.61 222.99 180.61C223.44 180.61 223.81 180.4 223.81 179.99C223.81 179.58 223.52 179.37 222.81 179.17C222.05 178.96 221.44 178.65 221.44 177.91C221.44 177.17 222.03 176.67 222.9 176.67C223.85 176.67 224.37 177.21 224.46 177.99V178Z" fill="#221815"/>
<path d="M229.17 179.79C229.17 179.93 229.17 180.01 229.17 180.12C229.2 180.53 229.37 180.62 229.91 180.55V181.05C229.71 181.08 229.52 181.09 229.33 181.09C228.8 181.09 228.53 180.87 228.49 180.35C228.49 180.24 228.49 180.06 228.49 179.82V177.35H227.92V176.82H228.49V175.84H229.18V176.82H229.97V177.35H229.18V179.79H229.17Z" fill="#221815"/>
<path d="M235.24 178.91C235.24 180.1 234.58 181.14 233.14 181.14C231.7 181.14 231.04 180.1 231.04 178.91C231.04 177.72 231.7 176.68 233.14 176.68C234.58 176.68 235.24 177.71 235.24 178.91ZM234.49 178.91C234.49 177.91 233.99 177.21 233.14 177.21C232.29 177.21 231.79 177.91 231.79 178.91C231.79 179.91 232.29 180.61 233.14 180.61C233.99 180.61 234.49 179.9 234.49 178.91Z" fill="#221815"/>
<path d="M240.42 179.99C240.42 180.25 240.42 180.58 240.42 180.81C240.38 182.05 239.63 182.7 238.4 182.7C237.17 182.7 236.59 182.2 236.51 181.3V181.22H237.2V181.29C237.26 181.81 237.68 182.17 238.41 182.17C239.25 182.17 239.71 181.69 239.74 180.87C239.74 180.67 239.74 180.53 239.74 180.41V180.34L239.42 180.8C239.18 181 238.73 181.14 238.3 181.14C237.06 181.14 236.37 180.21 236.37 178.97C236.37 177.4 237.35 176.68 238.44 176.68C238.79 176.68 239.24 176.78 239.46 176.96L239.74 177.38V176.8H240.43V180L240.42 179.99ZM239.73 178.95V178.72C239.73 177.62 239.04 177.21 238.43 177.21C237.69 177.21 237.11 177.79 237.11 178.9C237.11 179.86 237.54 180.62 238.39 180.62C239.09 180.62 239.73 180.17 239.73 178.96V178.95Z" fill="#221815"/>
<path d="M245.74 179.12H242.67C242.73 180.24 243.26 180.62 243.89 180.62C244.44 180.62 244.89 180.28 244.98 179.67H245.7C245.53 180.69 244.72 181.15 243.85 181.15C242.75 181.15 241.92 180.43 241.92 178.94C241.92 177.56 242.78 176.69 243.93 176.69C245.08 176.69 245.74 177.56 245.74 178.8C245.74 178.86 245.74 178.98 245.72 179.13L245.74 179.12ZM242.68 178.59H245.06C245 177.71 244.62 177.21 243.92 177.21C243.22 177.21 242.75 177.69 242.67 178.59H242.68Z" fill="#221815"/>
<path d="M248.13 179.79C248.13 179.93 248.13 180.01 248.13 180.12C248.16 180.53 248.33 180.62 248.87 180.55V181.05C248.67 181.08 248.48 181.09 248.29 181.09C247.76 181.09 247.49 180.87 247.45 180.35C247.45 180.24 247.45 180.06 247.45 179.82V177.35H246.88V176.82H247.45V175.84H248.14V176.82H248.93V177.35H248.14V179.79H248.13Z" fill="#221815"/>
<path d="M254.03 178.65V181.03H253.34V178.69C253.34 178.47 253.34 178.3 253.32 178.08C253.28 177.58 253.01 177.2 252.35 177.22C251.69 177.24 251.13 177.72 251.13 179.16V181.02H250.44V175.11H251.13V177.52L251.39 177.03C251.75 176.75 252.06 176.68 252.49 176.68C253.42 176.68 253.94 177.18 254 177.92C254.02 178.14 254.02 178.3 254.02 178.65H254.03Z" fill="#221815"/>
<path d="M259.3 179.12H256.23C256.29 180.24 256.82 180.62 257.45 180.62C258 180.62 258.45 180.28 258.54 179.67H259.26C259.09 180.69 258.28 181.15 257.41 181.15C256.31 181.15 255.48 180.43 255.48 178.94C255.48 177.56 256.34 176.69 257.49 176.69C258.64 176.69 259.3 177.56 259.3 178.8C259.3 178.86 259.3 178.98 259.28 179.13L259.3 179.12ZM256.24 178.59H258.62C258.56 177.71 258.18 177.21 257.48 177.21C256.78 177.21 256.31 177.69 256.23 178.59H256.24Z" fill="#221815"/>
<path d="M262.82 176.75V177.27C262.1 177.22 261.56 177.65 261.56 178.61V181.02H260.87V176.79H261.56V177.45L261.94 176.88C262.12 176.76 262.33 176.69 262.53 176.69C262.64 176.69 262.74 176.71 262.82 176.75Z" fill="#221815"/>
<path d="M269.98 179.12H266.91C266.97 180.24 267.5 180.62 268.13 180.62C268.68 180.62 269.13 180.28 269.22 179.67H269.94C269.77 180.69 268.96 181.15 268.09 181.15C266.99 181.15 266.16 180.43 266.16 178.94C266.16 177.56 267.02 176.69 268.17 176.69C269.32 176.69 269.98 177.56 269.98 178.8C269.98 178.86 269.98 178.98 269.96 179.13L269.98 179.12ZM266.92 178.59H269.3C269.24 177.71 268.86 177.21 268.17 177.21C267.48 177.21 267 177.69 266.92 178.59Z" fill="#221815"/>
<path d="M273.41 181.03H272.57L270.96 176.79H271.72L273.01 180.52L274.28 176.79H275.01L273.4 181.03H273.41Z" fill="#221815"/>
<path d="M279.7 179.12H276.63C276.69 180.24 277.22 180.62 277.85 180.62C278.4 180.62 278.85 180.28 278.94 179.67H279.66C279.49 180.69 278.68 181.15 277.81 181.15C276.71 181.15 275.88 180.43 275.88 178.94C275.88 177.56 276.74 176.69 277.89 176.69C279.04 176.69 279.7 177.56 279.7 178.8C279.7 178.86 279.7 178.98 279.68 179.13L279.7 179.12ZM276.64 178.59H279.02C278.96 177.71 278.58 177.21 277.88 177.21C277.18 177.21 276.71 177.69 276.63 178.59H276.64Z" fill="#221815"/>
<path d="M283.22 176.75V177.27C282.5 177.22 281.96 177.65 281.96 178.61V181.02H281.27V176.79H281.96V177.45L282.34 176.88C282.52 176.76 282.73 176.69 282.93 176.69C283.04 176.69 283.14 176.71 283.22 176.75Z" fill="#221815"/>
<path d="M286.27 181.39C285.93 182.29 285.47 182.71 284.78 182.71C284.63 182.71 284.53 182.71 284.43 182.69V182.13C284.53 182.13 284.61 182.13 284.68 182.13C285.1 182.13 285.38 181.95 285.6 181.39L285.66 181.24L283.97 176.79H284.75L286.01 180.52L287.26 176.79H288.01L286.27 181.39Z" fill="#221815"/>
<path d="M69.8701 200.22H69.1801V199.54L68.8601 200C68.6201 200.2 68.1701 200.34 67.7401 200.34C66.5001 200.34 65.8101 199.41 65.8101 198.17C65.8101 196.6 66.7901 195.88 67.8801 195.88C68.2301 195.88 68.6801 195.98 68.9001 196.16L69.1801 196.58V194.36H69.8701V200.24V200.22ZM69.1801 198.14V197.91C69.1801 196.81 68.4901 196.4 67.8801 196.4C67.1401 196.4 66.5601 196.98 66.5601 198.09C66.5601 199.05 66.9901 199.81 67.8401 199.81C68.5401 199.81 69.1801 199.36 69.1801 198.15V198.14Z" fill="#221815"/>
<path d="M74.0902 199.61L73.8602 200.07C73.5702 200.27 73.2002 200.33 72.8002 200.33C72.0302 200.33 71.4302 199.91 71.4302 199.12C71.4302 198.16 72.1502 197.66 73.8102 197.66H74.0802V197.55C74.0802 197.37 74.0802 197.2 74.0602 197.04C74.0302 196.65 73.8002 196.39 73.2402 196.39C72.6802 196.39 72.3802 196.7 72.3302 197.29H71.6102C71.6702 196.39 72.3102 195.87 73.2402 195.87C74.2502 195.87 74.6702 196.29 74.7402 196.99C74.7602 197.16 74.7602 197.37 74.7602 197.55V199.14C74.7602 199.46 74.7802 199.75 74.8402 200.22H74.1502L74.0802 199.61H74.0902ZM74.0902 198.61V198.18C72.9202 198.09 72.1902 198.34 72.1902 199.07C72.1902 199.58 72.5202 199.81 73.0402 199.81C73.6802 199.81 74.1002 199.39 74.1002 198.62L74.0902 198.61Z" fill="#221815"/>
<path d="M78.34 200.58C78 201.48 77.54 201.9 76.85 201.9C76.7 201.9 76.6 201.9 76.5 201.88V201.32C76.6 201.32 76.68 201.32 76.75 201.32C77.17 201.32 77.45 201.14 77.67 200.58L77.73 200.43L76.04 195.98H76.82L78.08 199.71L79.33 195.98H80.08L78.34 200.58Z" fill="#221815"/>
<path d="M84.5099 195.03C84.5099 195.28 84.3199 195.47 84.0699 195.47C83.8199 195.47 83.6299 195.28 83.6299 195.03C83.6299 194.78 83.8199 194.59 84.0699 194.59C84.3199 194.59 84.5099 194.78 84.5099 195.03ZM83.7299 200.22V195.98H84.4199V200.22H83.7299Z" fill="#221815"/>
<path d="M89.86 197.84V200.22H89.17V197.89C89.17 197.67 89.17 197.5 89.15 197.28C89.11 196.78 88.84 196.42 88.18 196.42C87.52 196.42 86.96 196.92 86.96 198.36V200.22H86.27V195.98H86.96V196.71L87.22 196.22C87.58 195.94 87.89 195.87 88.32 195.87C89.25 195.87 89.77 196.37 89.83 197.11C89.85 197.33 89.85 197.49 89.85 197.84H89.86Z" fill="#221815"/>
<path d="M96.39 199.61L96.16 200.07C95.87 200.27 95.5 200.33 95.1 200.33C94.33 200.33 93.73 199.91 93.73 199.12C93.73 198.16 94.45 197.66 96.11 197.66H96.38V197.55C96.38 197.37 96.38 197.2 96.36 197.04C96.33 196.65 96.1 196.39 95.54 196.39C94.98 196.39 94.68 196.7 94.63 197.29H93.91C93.97 196.39 94.61 195.87 95.54 195.87C96.55 195.87 96.97 196.29 97.04 196.99C97.06 197.16 97.06 197.37 97.06 197.55V199.14C97.06 199.46 97.08 199.75 97.14 200.22H96.45L96.38 199.61H96.39ZM96.39 198.61V198.18C95.22 198.09 94.49 198.34 94.49 199.07C94.49 199.58 94.82 199.81 95.34 199.81C95.98 199.81 96.4 199.39 96.4 198.62L96.39 198.61Z" fill="#221815"/>
<path d="M99.5699 199C99.5699 199.13 99.5699 199.26 99.5699 199.4C99.5899 199.67 99.7099 199.76 100.09 199.72V200.22C99.9399 200.24 99.7599 200.25 99.5999 200.25C99.1999 200.25 98.8999 200.12 98.8799 199.59C98.8799 199.45 98.8799 199.26 98.8799 199.03V194.34H99.5699V199Z" fill="#221815"/>
<path d="M102.19 199C102.19 199.13 102.19 199.26 102.19 199.4C102.21 199.67 102.33 199.76 102.71 199.72V200.22C102.56 200.24 102.38 200.25 102.22 200.25C101.82 200.25 101.52 200.12 101.5 199.59C101.5 199.45 101.5 199.26 101.5 199.03V194.34H102.19V199Z" fill="#221815"/>
<path d="M107.41 197.18H109.99V197.74H107.41V200.22H106.72V194.7H110.31V195.26H107.41V197.18Z" fill="#221815"/>
<path d="M115.54 198.1C115.54 199.29 114.88 200.33 113.44 200.33C112 200.33 111.34 199.29 111.34 198.1C111.34 196.91 112 195.87 113.44 195.87C114.88 195.87 115.54 196.9 115.54 198.1ZM114.79 198.1C114.79 197.1 114.29 196.4 113.44 196.4C112.59 196.4 112.09 197.1 112.09 198.1C112.09 199.1 112.59 199.8 113.44 199.8C114.29 199.8 114.79 199.09 114.79 198.1Z" fill="#221815"/>
<path d="M120.54 200.22H119.85V199.5L119.59 200C119.23 200.26 118.92 200.34 118.49 200.34C117.61 200.34 117.1 199.84 117 199.26C116.97 199.04 116.96 198.88 116.96 198.53V195.99H117.65V198.4C117.65 198.54 117.65 198.77 117.68 198.98C117.74 199.46 118.09 199.79 118.66 199.79C119.32 199.79 119.85 199.29 119.85 197.85V195.99H120.54V200.23V200.22Z" fill="#221815"/>
<path d="M124.35 195.94V196.46C123.63 196.41 123.09 196.84 123.09 197.8V200.21H122.4V195.97H123.09V196.63L123.47 196.06C123.65 195.94 123.86 195.87 124.06 195.87C124.17 195.87 124.27 195.89 124.35 195.93V195.94Z" fill="#221815"/>
<path d="M130.83 197.19H130.11C130.01 196.69 129.71 196.4 129.21 196.4C128.71 196.4 128.51 196.66 128.51 197.03C128.51 197.45 128.86 197.62 129.44 197.77C130.42 198.03 130.88 198.41 130.88 199.13C130.88 199.93 130.2 200.33 129.31 200.33C128.42 200.33 127.77 199.93 127.65 198.97H128.37C128.48 199.59 128.87 199.8 129.36 199.8C129.82 199.8 130.18 199.59 130.18 199.18C130.18 198.77 129.89 198.56 129.18 198.36C128.42 198.15 127.81 197.84 127.81 197.1C127.81 196.36 128.4 195.86 129.27 195.86C130.22 195.86 130.74 196.4 130.83 197.18V197.19Z" fill="#221815"/>
<path d="M135.82 198.31H132.75C132.81 199.43 133.34 199.81 133.97 199.81C134.52 199.81 134.97 199.47 135.06 198.86H135.78C135.61 199.88 134.8 200.34 133.93 200.34C132.83 200.34 132 199.62 132 198.13C132 196.75 132.86 195.88 134.01 195.88C135.16 195.88 135.82 196.75 135.82 197.99C135.82 198.05 135.82 198.17 135.8 198.32L135.82 198.31ZM132.76 197.78H135.14C135.08 196.9 134.7 196.4 134.01 196.4C133.32 196.4 132.84 196.88 132.76 197.78Z" fill="#221815"/>
<path d="M139.74 199.61L139.51 200.07C139.22 200.27 138.85 200.33 138.45 200.33C137.68 200.33 137.08 199.91 137.08 199.12C137.08 198.16 137.8 197.66 139.46 197.66H139.73V197.55C139.73 197.37 139.73 197.2 139.71 197.04C139.68 196.65 139.45 196.39 138.89 196.39C138.33 196.39 138.03 196.7 137.98 197.29H137.26C137.32 196.39 137.96 195.87 138.89 195.87C139.9 195.87 140.32 196.29 140.39 196.99C140.41 197.16 140.41 197.37 140.41 197.55V199.14C140.41 199.46 140.43 199.75 140.49 200.22H139.8L139.73 199.61H139.74ZM139.74 198.61V198.18C138.57 198.09 137.84 198.34 137.84 199.07C137.84 199.58 138.17 199.81 138.69 199.81C139.33 199.81 139.75 199.39 139.75 198.62L139.74 198.61Z" fill="#221815"/>
<path d="M145.06 197.19H144.34C144.24 196.69 143.94 196.4 143.44 196.4C142.94 196.4 142.74 196.66 142.74 197.03C142.74 197.45 143.09 197.62 143.67 197.77C144.65 198.03 145.11 198.41 145.11 199.13C145.11 199.93 144.43 200.33 143.53 200.33C142.63 200.33 141.99 199.93 141.87 198.97H142.59C142.7 199.59 143.09 199.8 143.58 199.8C144.04 199.8 144.4 199.59 144.4 199.18C144.4 198.77 144.11 198.56 143.4 198.36C142.64 198.15 142.03 197.84 142.03 197.1C142.03 196.36 142.62 195.86 143.49 195.86C144.44 195.86 144.96 196.4 145.05 197.18L145.06 197.19Z" fill="#221815"/>
<path d="M150.44 198.1C150.44 199.29 149.78 200.33 148.34 200.33C146.9 200.33 146.24 199.29 146.24 198.1C146.24 196.91 146.9 195.87 148.34 195.87C149.78 195.87 150.44 196.9 150.44 198.1ZM149.69 198.1C149.69 197.1 149.19 196.4 148.34 196.4C147.49 196.4 146.99 197.1 146.99 198.1C146.99 199.1 147.49 199.8 148.34 199.8C149.19 199.8 149.69 199.09 149.69 198.1Z" fill="#221815"/>
<path d="M155.5 197.84V200.22H154.81V197.89C154.81 197.67 154.81 197.5 154.79 197.28C154.75 196.78 154.48 196.42 153.82 196.42C153.16 196.42 152.6 196.92 152.6 198.36V200.22H151.91V195.98H152.6V196.71L152.86 196.22C153.22 195.94 153.53 195.87 153.96 195.87C154.89 195.87 155.41 196.37 155.47 197.11C155.49 197.33 155.49 197.49 155.49 197.84H155.5Z" fill="#221815"/>
<path d="M160.09 197.19H159.37C159.27 196.69 158.97 196.4 158.47 196.4C157.97 196.4 157.77 196.66 157.77 197.03C157.77 197.45 158.12 197.62 158.7 197.77C159.68 198.03 160.14 198.41 160.14 199.13C160.14 199.93 159.46 200.33 158.57 200.33C157.68 200.33 157.03 199.93 156.91 198.97H157.63C157.74 199.59 158.13 199.8 158.62 199.8C159.07 199.8 159.44 199.59 159.44 199.18C159.44 198.77 159.15 198.56 158.44 198.36C157.68 198.15 157.07 197.84 157.07 197.1C157.07 196.36 157.66 195.86 158.53 195.86C159.48 195.86 160 196.4 160.09 197.18V197.19Z" fill="#221815"/>
<path d="M164.7 195.6V196.02H165.57V196.55H164.7V200.23H164.01V196.55H163.55V196.02H164.01V195.67C164.01 195.51 164.01 195.3 164.03 195.16C164.1 194.54 164.52 194.2 165.15 194.2C165.33 194.2 165.49 194.22 165.64 194.24V194.81C165.12 194.71 164.78 194.83 164.72 195.18C164.7 195.29 164.7 195.49 164.7 195.61V195.6Z" fill="#221815"/>
<path d="M170.79 198.1C170.79 199.29 170.13 200.33 168.69 200.33C167.25 200.33 166.59 199.29 166.59 198.1C166.59 196.91 167.25 195.87 168.69 195.87C170.13 195.87 170.79 196.9 170.79 198.1ZM170.04 198.1C170.04 197.1 169.54 196.4 168.69 196.4C167.84 196.4 167.34 197.1 167.34 198.1C167.34 199.1 167.84 199.8 168.69 199.8C169.54 199.8 170.04 199.09 170.04 198.1Z" fill="#221815"/>
<path d="M174.22 195.94V196.46C173.5 196.41 172.96 196.84 172.96 197.8V200.21H172.27V195.97H172.96V196.63L173.34 196.06C173.52 195.94 173.73 195.87 173.93 195.87C174.04 195.87 174.14 195.89 174.22 195.93V195.94Z" fill="#221815"/>
<path d="M181.38 198.31H178.31C178.37 199.43 178.9 199.81 179.53 199.81C180.08 199.81 180.53 199.47 180.62 198.86H181.34C181.17 199.88 180.36 200.34 179.49 200.34C178.39 200.34 177.56 199.62 177.56 198.13C177.56 196.75 178.42 195.88 179.57 195.88C180.72 195.88 181.38 196.75 181.38 197.99C181.38 198.05 181.38 198.17 181.36 198.32L181.38 198.31ZM178.32 197.78H180.7C180.64 196.9 180.26 196.4 179.56 196.4C178.86 196.4 178.39 196.88 178.31 197.78H178.32Z" fill="#221815"/>
<path d="M184.81 200.22H183.97L182.36 195.98H183.12L184.41 199.71L185.68 195.98H186.41L184.8 200.22H184.81Z" fill="#221815"/>
<path d="M191.09 198.31H188.02C188.08 199.43 188.61 199.81 189.24 199.81C189.79 199.81 190.24 199.47 190.33 198.86H191.05C190.88 199.88 190.07 200.34 189.2 200.34C188.1 200.34 187.27 199.62 187.27 198.13C187.27 196.75 188.13 195.88 189.28 195.88C190.43 195.88 191.09 196.75 191.09 197.99C191.09 198.05 191.09 198.17 191.07 198.32L191.09 198.31ZM188.03 197.78H190.41C190.35 196.9 189.97 196.4 189.28 196.4C188.59 196.4 188.11 196.88 188.03 197.78Z" fill="#221815"/>
<path d="M194.62 195.94V196.46C193.9 196.41 193.36 196.84 193.36 197.8V200.21H192.67V195.97H193.36V196.63L193.74 196.06C193.92 195.94 194.13 195.87 194.33 195.87C194.44 195.87 194.54 195.89 194.62 195.93V195.94Z" fill="#221815"/>
<path d="M197.66 200.58C197.32 201.48 196.86 201.9 196.17 201.9C196.02 201.9 195.92 201.9 195.82 201.88V201.32C195.92 201.32 196 201.32 196.07 201.32C196.49 201.32 196.77 201.14 196.99 200.58L197.05 200.43L195.36 195.98H196.14L197.4 199.71L198.65 195.98H199.4L197.66 200.58Z" fill="#221815"/>
<path d="M204.77 200.58C204.43 201.48 203.97 201.9 203.28 201.9C203.13 201.9 203.03 201.9 202.93 201.88V201.32C203.03 201.32 203.11 201.32 203.18 201.32C203.6 201.32 203.88 201.14 204.1 200.58L204.16 200.43L202.47 195.98H203.25L204.51 199.71L205.76 195.98H206.51L204.77 200.58Z" fill="#221815"/>
<path d="M211.2 198.31H208.13C208.19 199.43 208.72 199.81 209.35 199.81C209.9 199.81 210.35 199.47 210.44 198.86H211.16C210.99 199.88 210.18 200.34 209.31 200.34C208.21 200.34 207.38 199.62 207.38 198.13C207.38 196.75 208.24 195.88 209.39 195.88C210.54 195.88 211.2 196.75 211.2 197.99C211.2 198.05 211.2 198.17 211.18 198.32L211.2 198.31ZM208.14 197.78H210.52C210.46 196.9 210.08 196.4 209.38 196.4C208.68 196.4 208.21 196.88 208.13 197.78H208.14Z" fill="#221815"/>
<path d="M215.12 199.61L214.89 200.07C214.6 200.27 214.23 200.33 213.83 200.33C213.06 200.33 212.46 199.91 212.46 199.12C212.46 198.16 213.18 197.66 214.84 197.66H215.11V197.55C215.11 197.37 215.11 197.2 215.09 197.04C215.06 196.65 214.83 196.39 214.27 196.39C213.71 196.39 213.41 196.7 213.36 197.29H212.64C212.7 196.39 213.34 195.87 214.27 195.87C215.28 195.87 215.7 196.29 215.77 196.99C215.79 197.16 215.79 197.37 215.79 197.55V199.14C215.79 199.46 215.81 199.75 215.87 200.22H215.18L215.11 199.61H215.12ZM215.12 198.61V198.18C213.95 198.09 213.22 198.34 213.22 199.07C213.22 199.58 213.55 199.81 214.07 199.81C214.71 199.81 215.13 199.39 215.13 198.62L215.12 198.61Z" fill="#221815"/>
<path d="M219.61 195.94V196.46C218.89 196.41 218.35 196.84 218.35 197.8V200.21H217.66V195.97H218.35V196.63L218.73 196.06C218.91 195.94 219.12 195.87 219.32 195.87C219.43 195.87 219.53 195.89 219.61 195.93V195.94Z" fill="#221815"/>
<path d="M221.66 199.82C221.66 200.12 221.44 200.33 221.15 200.33C220.86 200.33 220.64 200.11 220.64 199.82C220.64 199.53 220.86 199.31 221.15 199.31C221.44 199.31 221.66 199.53 221.66 199.82Z" fill="#221815"/>
<path d="M25.2599 13.1502V14.4902H16.3799V13.5502L21.1799 8.66024C22.7399 7.07024 23.4799 6.11024 23.4799 4.82024C23.4799 3.46024 22.6899 2.29023 21.0999 2.29023C19.3899 2.29023 18.5699 3.35024 18.3699 5.21024L18.3499 5.40023H16.6999L16.7199 5.21024C16.9899 2.45024 18.6399 0.990234 21.2899 0.990234C23.9399 0.990234 25.3199 2.66024 25.3199 4.64024C25.3199 6.44024 24.3399 7.67023 22.0999 9.88023L18.7799 13.1602H25.2699L25.2599 13.1502Z" fill="#221815"/>
<path d="M38.5199 10.8002C38.5199 13.2802 36.2699 14.7502 33.7199 14.7502C31.1699 14.7502 29.4399 13.6202 29.1499 10.7602L29.1299 10.5702H30.7799L30.7999 10.7602C30.9899 12.6202 32.2599 13.4502 33.8699 13.4502C35.4799 13.4502 36.6699 12.5102 36.6699 10.9002C36.6699 9.29022 35.6699 8.46022 33.5199 8.46022H33.1899V7.12022H33.5199C35.0899 7.12022 36.3599 6.20022 36.3599 4.53022C36.3599 3.21022 35.4199 2.28022 34.0199 2.28022C32.6199 2.28022 31.4899 3.12022 31.3099 4.87022L31.2899 5.06021H29.6399L29.6599 4.87022C29.9099 2.47022 31.5399 0.970215 34.2299 0.970215C36.6699 0.970215 38.1999 2.33022 38.1999 4.33022C38.1999 5.85022 37.2399 7.04022 35.8599 7.44022C37.4899 7.90022 38.5099 9.07022 38.5099 10.8002H38.5199Z" fill="#221815"/>
<path d="M50.9601 7.66016C50.9601 9.31016 50.2701 10.2102 48.8501 10.2102C48.1001 10.2102 47.6201 9.96015 46.6201 9.42015C45.9101 9.04015 45.3501 8.75016 44.8201 8.75016C44.0901 8.75016 43.8801 9.31016 43.8801 10.2102H42.8101C42.8101 8.56016 43.5001 7.66016 44.9201 7.66016C45.6701 7.66016 46.1501 7.91016 47.1501 8.45016C47.8601 8.83016 48.4201 9.12016 48.9501 9.12016C49.6801 9.12016 49.8901 8.56016 49.8901 7.66016H50.9601Z" fill="#221815"/>
<path d="M63.2198 11.1502V14.4902H61.5698V11.1502H55.0098V10.3202L61.5698 1.24023H63.2198V9.80024H64.8898V11.1402H63.2198V11.1502ZM61.5698 3.45024C61.2598 3.97024 60.9198 4.52024 60.4798 5.14024L57.0998 9.80024H61.5698V3.45024Z" fill="#221815"/>
<path d="M77.4598 13.1502V14.4902H68.5698V13.5502L73.3698 8.66024C74.9298 7.07024 75.6698 6.11024 75.6698 4.82024C75.6698 3.46024 74.8798 2.29023 73.2898 2.29023C71.5798 2.29023 70.7598 3.35024 70.5598 5.21024L70.5398 5.40023H68.8898L68.9098 5.21024C69.1798 2.45024 70.8298 0.990234 73.4798 0.990234C76.1298 0.990234 77.5098 2.66024 77.5098 4.64024C77.5098 6.44024 76.5298 7.67023 74.2898 9.88023L70.9698 13.1602H77.4598V13.1502Z" fill="#221815"/>
<path d="M82.6297 6.34988V2.87988H83.5497V6.34988H85.0597V7.27988H83.5497V11.6699C84.0897 11.4799 84.5997 11.2699 85.1097 11.0299V11.9799C83.8797 12.5199 82.5697 12.9899 81.1597 13.3599L80.9297 12.4099C81.5097 12.2799 82.0697 12.1299 82.6297 11.9699V7.26989H81.0397V6.33989H82.6297V6.34988ZM92.3697 3.46988V4.36988H89.3397V9.35989H92.7497V10.2699H89.3397V15.0299H88.4397V10.2699H85.0797V9.35989H88.4397V4.36988H85.4397V3.46988H92.3697ZM87.3997 8.49989L86.6097 8.69989C86.3697 7.54989 86.0497 6.43988 85.6597 5.37988L86.4497 5.11988C86.8097 6.09988 87.1097 7.23988 87.3997 8.50988V8.49989ZM92.0397 5.25988C91.7697 6.53988 91.4297 7.66988 91.0197 8.62988L90.2397 8.33989C90.6197 7.46989 90.9597 6.36988 91.2397 5.02988L92.0497 5.24989L92.0397 5.25988Z" fill="#221815"/>
<path d="M102.04 15.49H100.99V0H102.04V15.49Z" fill="#D08421"/>
<path d="M119.95 13.1502V14.4902H111.06V13.5502L115.86 8.66024C117.42 7.07024 118.16 6.11024 118.16 4.82024C118.16 3.46024 117.37 2.29023 115.78 2.29023C114.07 2.29023 113.25 3.35024 113.05 5.21024L113.03 5.40023H111.38L111.4 5.21024C111.67 2.45024 113.32 0.990234 115.97 0.990234C118.62 0.990234 120 2.66024 120 4.64024C120 6.44024 119.02 7.67023 116.78 9.88023L113.46 13.1602H119.95V13.1502Z" fill="#221815"/>
<path d="M132.59 7.66016C132.59 9.31016 131.9 10.2102 130.48 10.2102C129.73 10.2102 129.25 9.96015 128.25 9.42015C127.54 9.04015 126.98 8.75016 126.45 8.75016C125.72 8.75016 125.51 9.31016 125.51 10.2102H124.44C124.44 8.56016 125.13 7.66016 126.55 7.66016C127.3 7.66016 127.78 7.91016 128.78 8.45016C129.49 8.83016 130.05 9.12016 130.58 9.12016C131.31 9.12016 131.52 8.56016 131.52 7.66016H132.59Z" fill="#221815"/>
<path d="M144.86 11.1502V14.4902H143.21V11.1502H136.65V10.3202L143.21 1.24023H144.86V9.80024H146.53V11.1402H144.86V11.1502ZM143.21 3.45024C142.9 3.97024 142.56 4.52024 142.12 5.14024L138.74 9.80024H143.21V3.45024Z" fill="#221815"/>
<path d="M160.34 3.56982C157.82 3.92982 154.98 4.13982 151.81 4.18982V4.95982H160.35V7.81982H151.81V7.93982C151.76 10.7298 151.26 12.9498 150.33 14.6198L149.67 13.8898C150.46 12.4598 150.9 10.4798 150.96 7.93982V3.45982C154.28 3.42982 157.29 3.21982 159.95 2.81982L160.35 3.56982H160.34ZM152.35 10.1098V9.27982H156.02C155.87 8.91982 155.71 8.58982 155.55 8.29982L156.51 8.13982C156.66 8.46982 156.82 8.84982 156.97 9.27982H160.88V10.1098H155.3C155.27 10.4898 155.22 10.8498 155.15 11.1898H159.94C159.89 12.8798 159.8 13.8798 159.68 14.1698C159.58 14.4598 159.36 14.6498 159.03 14.7498C158.7 14.8398 157.99 14.8998 156.92 14.8998H156.69L156.43 14.0398C156.67 14.0498 156.92 14.0698 157.16 14.0698C157.85 14.0698 158.28 14.0298 158.49 13.9598C158.67 13.8798 158.8 13.7698 158.86 13.6198C158.9 13.4498 158.95 12.9198 159.01 12.0498H154.88C154.39 13.2898 153.5 14.2598 152.22 14.9498L151.73 14.1598C153.35 13.3398 154.24 11.9998 154.38 10.1298H152.33L152.35 10.1098ZM159.46 6.99982V5.77982H151.81V6.99982H159.46Z" fill="#221815"/>
<path d="M170.63 15.49H169.58V0H170.63V15.49Z" fill="#D68F41"/>
<path d="M185.04 10.2999C185.04 12.7299 184.32 14.6599 182.02 14.6599C179.72 14.6599 179 12.7299 179 10.2999C179 7.86994 179.72 5.93994 182.02 5.93994C184.32 5.93994 185.04 7.85994 185.04 10.2999ZM183.87 10.2999C183.87 8.09994 183.35 6.76994 182.01 6.76994C180.67 6.76994 180.15 8.10994 180.15 10.2999C180.15 12.4899 180.67 13.8299 182.01 13.8299C183.35 13.8299 183.87 12.4799 183.87 10.2999Z" fill="#221815"/>
<path d="M193.21 11.6699C193.21 13.4599 191.95 14.6599 190.25 14.6599C188.38 14.6599 187.29 13.4799 187.29 10.6999C187.29 7.31994 188.81 5.93994 190.53 5.93994C191.96 5.93994 192.98 6.82994 193.12 8.19994V8.31994H192.01L191.99 8.19994C191.8 7.24994 191.3 6.76994 190.45 6.76994C189.32 6.76994 188.52 7.67994 188.43 10.1199L188.9 9.36994C189.35 8.98994 189.82 8.83994 190.43 8.83994C192.18 8.83994 193.21 10.0199 193.21 11.6799V11.6699ZM192.04 11.7899C192.04 10.6199 191.52 9.64994 190.24 9.64994C189.29 9.64994 188.49 10.3699 188.49 11.7599C188.49 12.9299 189.18 13.8199 190.24 13.8199C191.3 13.8199 192.04 12.9899 192.04 11.7799V11.7899Z" fill="#221815"/>
<path d="M208.61 13.3501V14.4801H201.11V13.6901L205.16 9.56008C206.47 8.22008 207.1 7.40008 207.1 6.32008C207.1 5.17008 206.44 4.18008 205.09 4.18008C203.65 4.18008 202.95 5.07008 202.79 6.64008L202.77 6.80008H201.38L201.4 6.64008C201.63 4.31008 203.02 3.08008 205.26 3.08008C207.5 3.08008 208.66 4.49008 208.66 6.16008C208.66 7.68008 207.83 8.72008 205.94 10.5801L203.14 13.3501H208.62H208.61Z" fill="#221815"/>
<path d="M219.63 13.3501V14.4801H212.13V13.6901L216.18 9.56008C217.49 8.22008 218.12 7.40008 218.12 6.32008C218.12 5.17008 217.46 4.18008 216.11 4.18008C214.67 4.18008 213.97 5.07008 213.81 6.64008L213.79 6.80008H212.4L212.42 6.64008C212.65 4.31008 214.04 3.08008 216.28 3.08008C218.52 3.08008 219.68 4.49008 219.68 6.16008C219.68 7.68008 218.85 8.72008 216.96 10.5801L214.16 13.3501H219.64H219.63Z" fill="#221815"/>
<path d="M230.87 10.8601C230.87 13.3201 228.96 14.7201 226.88 14.7201C224.63 14.7201 223.31 13.6301 223.1 11.5301L223.08 11.3701H224.47L224.5 11.5301C224.76 12.8101 225.46 13.6201 226.85 13.6201C228.32 13.6201 229.3 12.6501 229.3 10.9601C229.3 9.27006 228.41 8.22006 226.92 8.22006C225.88 8.22006 225.14 8.66006 224.59 9.81006H223.26L224.04 3.31006H230.39V4.44006H225.17L224.67 8.33006L225.37 7.58006C225.9 7.26006 226.45 7.11006 227.14 7.11006C229.64 7.11006 230.87 8.73006 230.87 10.8501V10.8601Z" fill="#221815"/>
<path d="M241.79 10.7298C241.79 13.1098 240.11 14.7198 237.84 14.7198C235.34 14.7198 233.89 13.1498 233.89 9.43984C233.89 4.93984 235.92 3.08984 238.22 3.08984C240.13 3.08984 241.49 4.26984 241.67 6.09984L241.69 6.25984H240.2L240.17 6.09984C239.91 4.83984 239.25 4.18984 238.11 4.18984C236.6 4.18984 235.53 5.40984 235.42 8.65984L236.05 7.65984C236.65 7.15984 237.28 6.94984 238.09 6.94984C240.42 6.94984 241.8 8.51984 241.8 10.7398L241.79 10.7298ZM240.23 10.8898C240.23 9.32984 239.53 8.03984 237.83 8.03984C236.57 8.03984 235.5 8.99984 235.5 10.8598C235.5 12.4198 236.42 13.6098 237.83 13.6098C239.24 13.6098 240.23 12.5098 240.23 10.8898Z" fill="#221815"/>
<path d="M252.8 10.7298C252.8 13.1098 251.12 14.7198 248.85 14.7198C246.35 14.7198 244.9 13.1498 244.9 9.43984C244.9 4.93984 246.93 3.08984 249.23 3.08984C251.14 3.08984 252.5 4.26984 252.68 6.09984L252.7 6.25984H251.21L251.18 6.09984C250.92 4.83984 250.26 4.18984 249.12 4.18984C247.61 4.18984 246.54 5.40984 246.43 8.65984L247.06 7.65984C247.66 7.15984 248.29 6.94984 249.1 6.94984C251.43 6.94984 252.81 8.51984 252.81 10.7398L252.8 10.7298ZM251.24 10.8898C251.24 9.32984 250.54 8.03984 248.84 8.03984C247.58 8.03984 246.51 8.99984 246.51 10.8598C246.51 12.4198 247.43 13.6098 248.84 13.6098C250.25 13.6098 251.24 12.5098 251.24 10.8898Z" fill="#221815"/>
<path d="M263.89 11.3601C263.89 13.8101 261.86 14.7301 259.9 14.7301C257.78 14.7301 255.91 13.8101 255.91 11.3601C255.91 10.0101 256.93 8.96008 258.13 8.59008C257.13 8.20008 256.4 7.31008 256.4 6.09008C256.4 4.24008 257.81 3.08008 260 3.08008C262.19 3.08008 263.6 4.25008 263.6 6.09008C263.6 7.32008 262.79 8.20008 261.75 8.57008C262.95 8.96008 263.89 10.0101 263.89 11.3601ZM262.33 11.4201C262.33 10.2701 261.65 9.23008 259.92 9.23008C258.19 9.23008 257.47 10.2701 257.47 11.4201C257.47 12.7001 258.3 13.6201 259.93 13.6201C261.56 13.6201 262.33 12.7001 262.33 11.4201ZM257.91 6.14008C257.91 7.27008 258.59 8.13008 259.98 8.13008C261.37 8.13008 262.09 7.27008 262.09 6.14008C262.09 5.07008 261.41 4.18008 260 4.18008C258.59 4.18008 257.91 5.07008 257.91 6.14008Z" fill="#221815"/>
<path d="M274.91 11.3601C274.91 13.8101 272.88 14.7301 270.92 14.7301C268.8 14.7301 266.93 13.8101 266.93 11.3601C266.93 10.0101 267.95 8.96008 269.15 8.59008C268.15 8.20008 267.42 7.31008 267.42 6.09008C267.42 4.24008 268.83 3.08008 271.02 3.08008C273.21 3.08008 274.62 4.25008 274.62 6.09008C274.62 7.32008 273.81 8.20008 272.77 8.57008C273.97 8.96008 274.91 10.0101 274.91 11.3601ZM273.35 11.4201C273.35 10.2701 272.67 9.23008 270.94 9.23008C269.21 9.23008 268.49 10.2701 268.49 11.4201C268.49 12.7001 269.32 13.6201 270.95 13.6201C272.58 13.6201 273.35 12.7001 273.35 11.4201ZM268.93 6.14008C268.93 7.27008 269.61 8.13008 271 8.13008C272.39 8.13008 273.11 7.27008 273.11 6.14008C273.11 5.07008 272.43 4.18008 271.02 4.18008C269.61 4.18008 268.93 5.07008 268.93 6.14008Z" fill="#221815"/>
</svg>
