<svg width="213" height="181" viewBox="0 0 213 181" fill="none" xmlns="http://www.w3.org/2000/svg">
<path d="M38.8802 7.84C38.3702 6.87 37.4402 5.5 36.7202 4.52L37.1402 4.05C38.1802 4.7 39.4102 5.72 40.2302 6.65L38.8802 7.85V7.84ZM40.4602 8.79C39.9202 11.23 39.1602 14.17 38.5302 15.75L36.8102 14.8C37.7402 13.17 38.9402 10.74 39.8702 8.54L40.4702 8.79H40.4602ZM39.7902 3.76C39.0302 2.58 38.2402 1.56 37.5002 0.720002L37.8902 0.190002C38.6802 0.560002 39.9602 1.37 41.0702 2.51L39.7902 3.76ZM52.5002 14.71L51.4502 16.59C50.2202 16.19 47.6702 14.8 46.4602 11.55C45.5802 14.33 43.5402 15.77 40.1102 16.52L39.8802 15.96C44.4302 14.34 45.2202 12.22 45.2202 7.21H46.9402C46.9802 8.46 46.9002 9.55 46.7102 10.5C46.8502 10.85 47.0302 11.15 47.2002 11.43C48.0802 10.59 48.8702 9.64 49.4502 8.56L51.0302 9.61C50.1502 10.47 48.7802 11.33 47.5802 11.97C48.9902 13.69 51.0602 14.36 52.4802 14.71H52.5002ZM45.2002 0.260002H46.8902C46.9302 1.81 46.8002 3.07 46.4902 4.13C48.3502 4.97 49.9502 5.89 51.2702 6.98L50.0402 8.4C48.8802 7.13 47.6502 5.9 46.2402 4.85C45.4102 6.82 43.8302 7.93 41.3002 8.66L41.0502 8.12C44.7202 6.47 45.2002 4.71 45.2002 0.260002ZM41.6802 8.98C42.5902 9.81 43.4002 10.83 44.0002 11.88L42.5402 12.71C42.1402 11.5 41.6802 10.46 41.1202 9.35L41.6802 8.98ZM42.7302 4.78C42.3102 3.57 41.8502 2.48 41.3102 1.39L41.8402 1.02C42.7702 1.81 43.6302 2.87 44.2002 3.87L42.7402 4.78H42.7302ZM48.0602 4.41L47.6402 3.97C48.4802 3.04 49.0802 2.16 49.7102 0.950002L51.3102 2.04C50.3802 2.94 49.2702 3.69 48.0602 4.41Z" fill="#D08421"/>
<path d="M61.6899 0.540006C61.4299 1.91001 60.9299 3.28001 60.2799 4.58001V16.52H58.6599V7.21001C57.8999 8.23001 57.0299 9.14001 56.0899 9.93001L55.6699 9.47001C57.5899 7.11001 58.9899 4.53001 59.9399 0.100006L61.6799 0.540006H61.6899ZM69.3499 15.83C68.0699 15.88 66.8499 15.88 65.5699 15.83C63.6399 15.76 63.1799 15.3 63.1799 13.14V0.560006H64.8299V7.63001C66.1499 6.66001 67.4099 5.36001 68.7299 3.55001L70.2899 4.85001C68.7999 6.22001 67.0399 7.50001 64.8199 8.49001V13.03C64.8199 14.01 64.9099 14.19 65.7499 14.26C66.6799 14.33 67.7199 14.31 68.6499 14.26C70.0399 14.19 70.1399 13.98 70.0699 10.74H70.6999C71.7899 14.52 71.5999 15.75 69.3299 15.84L69.3499 15.83Z" fill="#D08421"/>
<path d="M83.4598 5.98002V14.41C83.4598 16.4 81.8798 17.52 78.1998 15.22L78.3898 14.62C81.3398 15.34 81.7698 15.04 81.7698 13.86V5.08002L83.2299 5.36002C84.6199 4.43002 85.3598 3.80002 86.5499 2.55002H76.0898V1.58002H86.6698L87.4298 1.21002L89.1298 2.44002C87.5098 4.04002 85.3898 5.16002 83.4498 5.97002L83.4598 5.98002Z" fill="#D08421"/>
<path d="M109.34 14.29L108.74 16.15C105.63 16.36 101.78 16.4 99.7199 15.76C98.5599 15.41 97.5199 14.81 96.6799 13.9C95.9099 15.04 94.9599 15.99 93.8299 16.73L93.4399 16.22C94.2499 15.55 95.1599 14.51 95.9199 12.95C95.2699 11.95 94.7999 10.7 94.5099 9.12L95.1299 8.94C95.4299 10.08 95.8199 11.07 96.3799 11.89C96.8399 10.64 97.2099 9.11 97.3999 7.23H95.8699C95.5899 7.74 95.3299 8.18 95.1099 8.44L93.8599 7.91C94.6899 6.56 95.8999 4.18 96.6699 2.2H93.7699V1.44H98.6199C98.1499 2.74 97.1599 4.82 96.2999 6.43H97.3499L97.6299 6.15L99.0199 6.68C98.7899 9.04 98.2099 11.14 97.2399 12.92C97.7799 13.43 98.4399 13.82 99.2099 14.12C101.5 14.98 105.91 14.68 109.32 14.28L109.34 14.29ZM102.68 4.76H98.8299V4H102.68V2.59H99.6599V1.8H102.68V0.25H104.19V1.81H107.62V4.01H109.04V4.77H107.62V7.14H104.19V8.53H107.78V9.32H104.19V10.95H108.58V11.74H104.19V14.06H102.68V11.74H98.8099V10.95H102.68V9.32H99.4499V8.53H102.68V7.14H99.5699V6.35H102.68V4.77V4.76ZM104.19 4H106.23V2.59H104.19V4ZM104.19 6.34H106.23V4.76H104.19V6.34Z" fill="#D08421"/>
<path d="M112.78 5.24001L112.41 4.75001C113.8 3.45001 114.7 2.06001 115.29 0.0600098L116.98 0.53001C116.8 0.93001 116.54 1.41001 116.19 1.90001H120.69V2.69001H117.68C118.1 3.09001 118.56 3.66001 118.98 4.27001L117.68 4.74001C117.47 4.05001 117.22 3.37001 116.87 2.68001H115.59C114.83 3.59001 113.87 4.53001 112.78 5.23001V5.24001ZM128.46 14.28L127.53 16.02C125.75 15.74 122.78 14.21 121.18 11.87V16.6H119.67V11.92C118.42 13.77 115.29 15.33 112.66 15.95L112.45 15.39C115.03 14.42 116.84 13.35 118.23 11.68H112.96V10.89H119.67V9.40001C119.25 9.68001 118.76 9.91001 118.19 10.14L117.89 9.58001C118.66 9.11001 119.16 8.68001 119.45 8.19001C118.08 8.79001 115.32 9.56001 113.42 9.86001L113.02 8.40001C114.02 8.35001 114.88 8.28001 115.69 8.19001V5.85001H113.25V5.06001H119.61V5.85001H117.17V7.99001C117.91 7.87001 118.66 7.73001 119.49 7.53001L119.6 7.92001C119.95 7.16001 119.95 6.25001 119.95 4.88001H125.57V7.52001C125.57 8.17001 125.82 8.28001 126.4 8.28001C127.16 8.28001 127.17 8.12001 127.16 6.33001H127.79C128.55 9.09001 128.09 9.53001 126.37 9.55001C124.61 9.57001 124.12 9.20001 124.12 7.70001V5.68001H121.43C121.43 7.49001 120.87 8.55001 119.81 9.30001H121.18V10.9H127.93V11.69H121.81C123.78 13.4 125.99 13.9 128.45 14.29L128.46 14.28ZM119.69 4.19001C120.78 3.03001 121.54 1.59001 122.03 0.0100098L123.65 0.55001C123.42 1.01001 123.14 1.46001 122.84 1.89001H128.15V2.68001H124.74C125.2 3.05001 125.6 3.49001 126.02 4.07001L124.74 4.60001C124.48 3.95001 124.23 3.35001 123.84 2.68001H122.22C121.48 3.54001 120.69 4.23001 120.09 4.65001L119.69 4.19001ZM121.75 6.23001L122.28 6.02001C122.86 6.90001 123.33 7.90001 123.58 8.80001L122.31 9.13001C122.22 8.30001 121.99 7.20001 121.75 6.23001Z" fill="#D08421"/>
<path d="M147.44 14.27L146.81 15.96C144.93 16.08 141.87 16.14 139.74 16.05C136.14 15.91 135.13 15.28 134.4 13.73C133.82 14.98 133.19 15.75 132.4 16.65L131.33 15.56C132.12 14.94 132.98 14.33 133.58 13.49V9.29002H131.65V8.50002H135.1V13.46C135.45 14.06 135.98 14.39 136.58 14.57L136.37 14.11C138 13.28 138.73 12.11 138.95 10.82H136.45V10.12H140.93C140.6 9.61002 140.24 9.14002 139.95 8.73002L140.28 8.33002C140.81 8.58002 141.4 9.00002 142.11 9.63002L141.55 10.12H146.44V10.82H140.45C140.4 11.03 140.33 11.26 140.24 11.47H145.02C144.97 12.17 144.86 12.74 144.67 13.39C144.41 14.3 143.21 15.1 141.07 13.48L141.28 12.99C143.13 13.59 143.27 13.32 143.37 12.92C143.46 12.57 143.51 12.43 143.53 12.11H139.94C139.32 13.22 138.23 14.18 136.81 14.64C137.79 14.87 138.94 14.76 139.85 14.78C142.14 14.82 145.44 14.53 147.46 14.29L147.44 14.27ZM131.74 4.27002L132.07 3.72002C133.05 4.18002 134.41 4.93002 135.34 5.79002L134.2 7.07002C133.6 6.26002 132.57 5.05002 131.74 4.26002V4.27002ZM132.64 0.860018L132.96 0.350018C133.93 0.740018 135.26 1.42002 136.19 2.23002L135.08 3.50002C134.41 2.66002 133.53 1.74002 132.64 0.860018ZM139.81 5.82002H137.23V1.53002H140.04C140.22 1.06002 140.34 0.550018 140.44 0.0500183L141.95 0.440018C141.65 0.860018 141.28 1.25002 140.93 1.53002H145.11V5.82002H141.81C142.04 5.89002 142.25 5.98002 142.44 6.08002L142.04 6.75002H146.42V8.23002H145.84L146.54 8.85002C146.05 9.43002 145.63 9.54002 145.19 9.55002C144.42 9.57002 143.8 9.57002 143.22 9.53002C142.34 9.48002 141.88 9.28002 141.88 8.33002V7.42002H140.47C140.05 8.84002 138.62 9.62002 136.57 9.74002L136.43 9.27002C138.05 8.94002 138.79 8.34002 139.08 7.42002H137.29V8.65002H135.88V6.75002H141.26C140.75 6.40002 140.21 6.05002 139.8 5.82002H139.81ZM138.67 2.80002H143.68V2.24002H138.67V2.80002ZM138.67 3.96002H143.68V3.43002H138.67V3.96002ZM138.67 5.16002H143.68V4.60002H138.67V5.16002ZM145.02 8.24002V7.43002H143.16V8.03002C143.16 8.56002 143.32 8.57002 143.76 8.61002C144.15 8.65002 144.62 8.63002 145.11 8.59002C145.37 8.57002 145.5 8.47002 145.69 8.24002H145.02Z" fill="#D08421"/>
<path d="M165.52 12.2C164.29 11.85 162.78 11.22 161.48 10.07V16.7H159.86V9.76H161.13C160.5 9.14 159.92 8.39 159.48 7.49H157.58C157.18 8.33 156.53 9.09 155.7 9.76H156.84C156.84 13.7 155.52 16.02 151.07 16.81L150.88 16.19C154.18 15.26 155.12 13.45 155.19 10.16C153.92 11.06 152.32 11.74 150.58 12.18L150.33 11.58C153.14 10.63 154.88 9.17 155.78 7.48H152.63V1.16H164.02V7.49H160.21C162.04 9.69 164.36 10.09 166.38 10.39L165.52 12.2ZM154.22 3.85H157.52V1.95H154.22V3.85ZM154.22 6.7H157.52V4.64H154.22V6.7ZM159.11 3.85H162.45V1.95H159.11V3.85ZM159.11 6.7H162.45V4.64H159.11V6.7Z" fill="#D08421"/>
<path d="M171.57 11.39C172.91 10.86 173.66 9.74001 173.8 8.58001C173.68 8.65001 173.31 8.67001 173.2 8.67001C172.37 8.67001 171.79 8.13001 171.79 7.26001C171.79 6.39001 172.39 5.85001 173.21 5.85001C174.28 5.85001 174.99 6.50001 174.99 7.82001C174.99 9.77001 173.74 11.51 171.93 11.88L171.56 11.39H171.57Z" fill="#D08421"/>
<path d="M38.19 48.52C37.33 47.47 36.26 46.41 35.5 45.62L35.83 45.09C36.83 45.55 38.26 46.3 39.28 47.11L38.19 48.52ZM39.05 49.68C38.66 52.16 38.07 55.13 37.63 56.57L35.92 55.87C36.69 54.24 37.73 51.56 38.43 49.49L39.05 49.68ZM39.05 44.72C38.21 43.6 37.34 42.58 36.55 41.73L36.92 41.24C37.73 41.61 39.05 42.35 40.28 43.38L39.05 44.72ZM51.32 56.27L50.53 57.75C48.35 57.1 46.54 55.25 46.07 52.46H44.52V55.55C45.21 55.44 45.84 55.34 46.38 55.2L46.56 55.8C45.52 56.45 43.15 57.14 41.78 57.38L41.39 55.8C41.95 55.78 42.51 55.76 43.04 55.71V52.46H41.65C41.42 54.78 40.6 56.45 38.91 57.84L38.45 57.38C39.86 55.89 40.17 53.41 40.17 50.68V48.43H50.98V49.22H41.72V50.94C41.72 51.19 41.72 51.43 41.7 51.66H51.09V52.45H46.71C46.99 53.26 47.41 53.93 48.01 54.51C48.47 54.07 48.94 53.49 49.47 52.72L50.59 53.58C49.9 54.18 49.24 54.63 48.57 54.99C49.27 55.52 50.17 55.94 51.31 56.27H51.32ZM50.14 47.55H40.84V42.77H43.49V41.24H44.79V42.77H46.07V41.24H47.37V42.77H50.13V47.55H50.14ZM43.5 43.56H42.29V44.76H43.5V43.56ZM43.5 45.46H42.29V46.8H43.5V45.46ZM42.69 50.77V50.03H50.13V50.77H42.69ZM46.08 43.56H44.8V44.76H46.08V43.56ZM46.08 45.46H44.8V46.8H46.08V45.46ZM48.66 43.56H47.38V44.76H48.66V43.56ZM48.66 45.46H47.38V46.8H48.66V45.46Z" fill="#D08421"/>
<path d="M57.6598 47.47C57.6598 53.76 56.6398 55.94 55.0598 57.67L54.5698 57.3C55.7698 55.03 56.0498 53.73 56.0498 47.28V42.02H70.1098V42.79H57.6598V47.47ZM70.1398 52.94V53.73H65.0798V56.1C65.0798 57.65 63.4498 58.39 60.4598 56.61L60.6398 55.99C63.2798 56.52 63.4698 56.31 63.4698 55.6V53.72H57.6698V52.93H63.4698V51.66L64.8098 51.84C65.4598 51.44 65.9698 51.05 66.4598 50.59H58.6898V49.8L66.8598 49.78L67.3298 49.55L68.7898 50.73C67.5598 51.59 66.0498 52.1 65.0798 52.38V52.93H70.1398V52.94ZM59.0798 48.65V44.01H68.4698V48.65H59.0798ZM60.5898 45.89H66.9498V44.8H60.5898V45.89ZM60.5898 47.86H66.9498V46.65H60.5898V47.86Z" fill="#D08421"/>
<path d="M82.41 47.03V55.47C82.41 57.46 80.83 58.58 77.15 56.28L77.34 55.68C80.29 56.4 80.72 56.1 80.72 54.92V46.13L82.18 46.41C83.57 45.48 84.31 44.85 85.5 43.6H75.04V42.63H85.62L86.38 42.26L88.09 43.49C86.47 45.09 84.35 46.21 82.41 47.02V47.03Z" fill="#D08421"/>
<path d="M95.1698 47.54L95.7998 47.63C95.7598 50.57 95.2898 52.71 94.4298 54.43L92.5098 53.38C93.7598 51.85 94.5298 50.46 95.1598 47.54H95.1698ZM97.2798 54.5V45.08H98.9698V54.17C98.9698 55.08 99.1498 55.29 100.13 55.37C100.8 55.42 101.57 55.44 102.34 55.37C103.62 55.26 103.85 54.98 103.83 51.64H104.5C105.73 55.65 105.29 56.7 102.9 56.93C101.83 57.04 100.83 57 99.8598 56.93C97.7498 56.77 97.2798 56.67 97.2798 54.5ZM98.0698 41.81L98.3998 41.19C100.53 41.96 102.3 42.95 103.76 44.2L102.37 45.78C100.91 44.11 99.7298 43.06 98.0598 41.81H98.0698ZM104.28 47.31L104.86 46.96C106.37 48.68 107.69 50.79 108.43 52.64L106.48 53.45C105.88 51.27 105.25 49.34 104.28 47.32V47.31Z" fill="#D08421"/>
<path d="M115.06 44.66H118.24V56.91H116.69V55.31H113.67V57.24H112.12V44.65H114.21C114.46 43.53 114.67 42.03 114.75 41.12L116.65 41.52C116.28 42.49 115.61 43.73 115.05 44.65L115.06 44.66ZM116.69 45.45H113.67V49.33H116.69V45.45ZM116.69 54.52V50.13H113.67V54.52H116.69ZM126.48 44.69C126.44 50.84 126.34 53.8 126.06 55.47C125.67 57.76 123.62 58.41 120.31 55.56L120.61 55C123.44 56.14 124.23 56.23 124.46 54.81C124.62 53.79 124.83 51.45 124.85 45.49H121.16C120.62 46.84 119.88 48.27 118.84 49.59L118.33 49.2C119.6 46.72 120.21 43.49 120.49 41.18L122.34 41.55C122.18 42.36 121.9 43.47 121.46 44.7H126.49L126.48 44.69ZM122.21 52.71C121.63 51.04 120.94 49.56 120.21 48.17L120.72 47.77C121.88 48.84 123.15 50.44 123.81 51.81L122.21 52.71Z" fill="#D08421"/>
<path d="M132.99 54.24V50.29H130.67V49.48H134.54V54.1C135.58 55.54 136.74 55.58 139.04 55.63C141.33 55.68 144.38 55.42 146.41 55.14L145.97 56.92C144.09 57.08 140.56 57.13 138.96 57.04C136.27 56.88 135.11 56.49 133.86 54.46C133.23 55.58 132.42 56.8 131.5 57.73L130.5 56.69C131.41 56 132.49 55.04 133 54.25L132.99 54.24ZM131.04 45.31L131.39 44.78C132.27 45.22 133.62 45.98 134.57 46.8L133.43 48.1C132.85 47.33 131.78 46.08 131.04 45.3V45.31ZM131.85 41.85L132.18 41.32C133.04 41.71 134.52 42.46 135.41 43.25L134.29 44.53C133.6 43.63 132.73 42.67 131.85 41.84V41.85ZM135.47 52.5V51.71H139.83V50.43H136.31V45.16H139.83V43.84H135.87V43.05H139.83V41.22H141.38V43.05H145.48V43.84H141.38V45.16H144.91V50.43H141.38V51.71H145.88V52.5H141.38V54.89H139.83V52.5H135.47ZM139.83 45.94H137.79V47.36H139.83V45.94ZM139.83 48.15H137.79V49.63H139.83V48.15ZM143.43 45.94H141.37V47.36H143.43V45.94ZM143.43 48.15H141.37V49.63H143.43V48.15Z" fill="#D08421"/>
<path d="M151.55 52.51C151.62 54.58 151.32 56.31 150.9 57.45L149.28 56.71C150 55.66 150.65 54.32 150.93 52.44L151.55 52.51ZM154.66 48.41C155.36 49.27 155.87 50.13 156.31 51.29L155.01 51.78L154.68 50.5C153.1 51.13 151.27 51.75 149.97 52.03L149.5 50.48C149.9 50.48 150.31 50.46 150.73 50.43C151.75 49.46 152.68 48.32 153.54 46.7C152.43 47.09 151.15 47.44 150.02 47.67L149.7 46.25C150.05 46.25 150.42 46.25 150.77 46.23C151.46 44.75 152.18 42.89 152.56 41.22L154.19 41.73C153.5 43.31 152.36 45.02 151.5 46.19C152.34 46.15 153.17 46.08 153.87 46C154.06 45.56 154.27 45.1 154.47 44.59L155.95 45.42C154.54 47.71 153.07 49.2 151.64 50.34C152.62 50.23 153.59 50.06 154.49 49.9C154.37 49.5 154.23 49.11 154.09 48.7L154.65 48.4L154.66 48.41ZM152.83 52.21C153.36 53.39 153.99 55.18 154.24 56.17L152.69 56.56C152.6 55.45 152.39 53.66 152.22 52.38L152.84 52.22L152.83 52.21ZM154.27 51.65C154.99 52.53 155.83 53.85 156.27 54.8L154.92 55.5C154.62 54.43 154.13 52.95 153.74 51.93L154.27 51.65ZM161.18 45.13V48.29H164.57V49.08H156.26V48.29H159.6V45.13H155.93V44.34H159.6V41.39H161.18V44.34H165.1V45.13H161.18ZM156.61 50.98H164.36V57.48H162.85V56.25H158.12V57.57H156.61V50.98ZM158.12 55.44H162.85V51.77H158.12V55.44Z" fill="#D08421"/>
<path d="M171.99 49.47C171.99 48.82 172.2 48.26 172.64 47.8C173.1 47.33 173.62 47.1 174.24 47.1C175.51 47.1 176.49 48.15 176.49 49.47C176.49 50.79 175.51 51.84 174.24 51.84C172.97 51.84 171.99 50.77 171.99 49.47ZM175.63 49.47C175.63 48.66 175.01 48.01 174.24 48.01C173.47 48.01 172.85 48.66 172.85 49.47C172.85 49.87 172.99 50.21 173.27 50.51C173.53 50.79 173.85 50.93 174.24 50.93C175.01 50.93 175.63 50.28 175.63 49.47Z" fill="#D08421"/>
<path d="M23.1801 124.09V139.73H21.6301V138.85H10.8601V139.78H9.31006V124.08H23.1801V124.09ZM10.8601 124.88V133.81C11.8401 133.09 12.8301 132.09 13.6401 130.75H11.3201V130.01H14.0401C14.2201 129.68 14.3901 129.31 14.5301 128.94H11.8201V128.2H13.2801C13.0001 127.51 12.4701 126.46 12.0501 125.65L12.5201 125.32C13.2201 125.94 13.9801 126.78 14.4701 127.52L13.4201 128.21H14.8101C15.1101 127.28 15.3501 126.24 15.4801 125.08L17.0401 125.38C16.7901 126.45 16.5301 127.38 16.2301 128.21H17.7801L17.4301 127.95C17.8501 127.28 18.4001 126.23 18.6801 125.38L20.0001 126.03C19.3801 126.93 18.5401 127.79 18.0101 128.21H20.5401V128.95H15.9301C15.7701 129.34 15.6101 129.69 15.4401 130.02H21.1901V130.76H18.2501C19.2301 131.81 20.5401 132.5 21.6301 132.9V124.88H10.8601ZM21.6401 138.06V133.4L21.0101 134.38C20.4301 134.05 19.5201 133.43 18.5701 132.25C18.5701 133.27 18.5501 133.69 18.4601 134.31C18.2801 135.43 16.9501 135.82 15.3001 134.52L15.4601 134.05C16.9501 134.52 17.1501 134.3 17.2001 133.84C17.2401 133.52 17.2501 133.22 17.2501 132.61H14.6301V135.11C14.6301 135.87 14.7401 136.11 15.5101 136.2C16.5301 136.31 17.4301 136.31 18.4501 136.18C19.1701 136.09 19.2801 135.83 19.3501 134.32H19.8901C20.4701 136.48 20.1901 137.2 18.8401 137.33C17.6801 137.44 16.5501 137.44 15.3901 137.38C13.7601 137.31 13.2801 136.8 13.2801 135.5V132.86C12.6301 133.46 11.8901 133.97 11.0701 134.44L10.8801 134.14V138.06H21.6601H21.6401ZM15.0301 130.75C14.7801 131.14 14.5401 131.49 14.2701 131.82H18.2201C17.9901 131.5 17.7601 131.13 17.5501 130.75H15.0201H15.0301Z" fill="#D08421"/>
<path d="M42.9599 137.21L42.3399 139.07C40.1299 139.21 38.0299 139.23 35.8199 139.16C31.9399 139.04 30.1999 137.68 29.4399 135.68C29.1099 137.4 28.5099 138.7 27.6499 139.69L27.1099 139.34C27.9899 137.63 28.4099 135.37 28.2899 131.39L29.7999 131.43C29.7999 132.57 29.7499 133.61 29.6399 134.54C30.0299 135.35 30.4499 135.95 30.9399 136.4V130.09H27.4899V129.32H30.8099V126.96H27.9099V126.2H30.8099V123.44H32.3599V126.2H34.9099V126.96H32.3599V129.32H35.3699V130.09H32.4899V132.66H35.0599V133.42H32.4899V137.29C33.3999 137.59 34.4899 137.66 35.8299 137.66C38.7499 137.68 41.2299 137.47 42.9699 137.22L42.9599 137.21ZM35.6499 133.89V124.82H41.3299V131.04H39.8499V130.2H37.1599V133.66C37.1599 134.66 37.2299 134.77 38.0699 134.86C38.7899 134.93 39.3199 134.95 40.0399 134.86C40.9699 134.75 41.1299 134.58 41.0799 132.1H41.6599C42.7299 135.6 42.1699 136.04 40.2399 136.2C39.3999 136.27 38.6199 136.29 37.7799 136.22C36.0699 136.08 35.6499 135.73 35.6499 133.9V133.89ZM37.1599 129.43H39.8499V125.58H37.1599V129.43Z" fill="#D08421"/>
<path d="M52.8802 125.64L52.9002 123.44L54.7302 123.48C54.7302 124.69 54.7102 125.78 54.7102 126.42C55.4002 131.5 57.8702 135.51 61.9302 137.97L60.5402 139.87C58.0602 138.29 55.2002 134.07 54.4102 128.92C53.6702 134.47 50.6702 137.97 46.5302 139.77L46.2002 139.17C51.3902 135.95 52.8302 131.22 52.8802 125.65V125.64Z" fill="#D08421"/>
<path d="M70.4798 135.43L72.2598 136.38C70.5398 137.98 67.5298 139.33 65.2598 139.93L65.0098 139.33C67.4398 138.19 69.1598 136.99 70.4798 135.43ZM80.7598 135.25H65.2198V134.46H66.7098C66.6198 131.08 66.4998 128.2 66.3198 124.79L67.7398 124.98C68.5098 124.45 69.1098 123.89 69.7298 123.24L71.0098 124.4C70.1498 124.91 68.8698 125.42 67.9198 125.72L67.9698 127.67H70.2598V128.41H68.0098C68.0298 129.2 68.0498 130.01 68.0798 130.8H70.2898V131.54H68.0898C68.1298 132.51 68.1398 133.49 68.1798 134.46H70.4298C70.6598 132.9 70.7998 131.74 70.9598 130.12L72.4398 130.38C72.2798 131.93 72.1398 132.98 71.9098 134.46H73.3298C73.4698 132.93 73.6098 130.66 73.7198 129.01H72.1898C72.1498 129.26 72.0998 129.48 72.0698 129.71L70.6298 129.52C70.9298 127.59 71.2298 125.34 71.4198 123.4L72.8998 123.58C72.8498 124.21 72.7598 124.92 72.6698 125.64H75.4998V126.43H72.5598C72.4898 127.03 72.3998 127.64 72.3098 128.24H75.2798C75.1698 130.02 74.9998 132.74 74.8198 134.46H77.4898L77.6698 131.7H75.7198V130.96H77.7098L77.8698 128.59H75.7998V127.85H77.9298L78.0898 125.28H75.7698V124.49H79.5998L78.9798 134.46H80.7598V135.25ZM81.0098 138.22L79.8498 139.94C78.2198 138.53 76.2598 137.29 74.1898 136.18L74.4398 135.58C76.6398 136.14 78.7598 136.88 81.0098 138.22Z" fill="#D08421"/>
<path d="M97.7699 126.36V139.68H96.1499V138.22H87.7499V139.71H86.1299V126.35H90.0299C90.4299 125.31 90.7899 124.29 91.0799 123.1L93.2199 123.89C92.4799 124.93 91.7299 125.75 91.0899 126.35H97.7499L97.7699 126.36ZM87.7499 127.15V129.91H96.1499V127.15H87.7499ZM87.7499 130.7V133.58H96.1499V130.7H87.7499ZM96.1499 137.43V134.37H87.7499V137.43H96.1499Z" fill="#D08421"/>
<path d="M113.66 128.61C112.99 132.25 111.27 134.09 108.19 135.34L107.91 134.78C110.42 133.34 111.64 131.79 112.11 128.61H110.35C109.26 132.02 106.96 134.16 103.72 135.62L103.42 135.06C106.57 133.28 108.82 130.47 109.22 126.34H106.95C106.81 126.67 106.65 126.99 106.49 127.31C107.11 127.64 107.86 128.15 108.49 128.72L107.45 129.77C107.1 129.21 106.57 128.49 106.11 127.96C105.83 128.47 105.49 128.94 105.13 129.42C105.82 129.82 106.59 130.39 107.19 131L106.1 132.05C105.73 131.38 105.19 130.54 104.71 129.96C104.32 130.42 103.92 130.86 103.46 131.3L103 130.86C104.79 128.65 105.67 125.96 106.04 123.32L107.73 123.71C107.61 124.34 107.43 124.96 107.22 125.57H109.07L109.4 125.25L110.93 125.83C110.84 126.53 110.72 127.2 110.56 127.83L112.19 127.85C112.33 126.6 112.38 125.14 112.37 123.39L113.99 123.46C114.01 125.15 113.94 126.61 113.76 127.85L118.12 127.87V128.63H114.27C114.96 131.07 116.48 132.64 118.45 133.66L117.1 135.42C116.27 134.79 114.2 132.89 113.69 128.62H113.64L113.66 128.61ZM105.86 135.36L106.46 135.59C106.14 137.33 105.3 138.97 104.6 139.86L103.19 138.7C104.12 137.96 105.23 136.77 105.86 135.36ZM108.78 135.55C109.5 136.6 110.22 138.17 110.59 139.21L108.92 139.7C108.76 138.65 108.46 136.99 108.2 135.78L108.78 135.55ZM112.19 135.32C113.09 136.29 114.11 137.76 114.69 138.85L113.06 139.66C112.78 138.64 112.18 136.94 111.67 135.63L112.2 135.31L112.19 135.32ZM115.93 127.27C115.67 126.34 115.24 125.09 114.81 124.14L115.34 123.79C116.01 124.44 116.94 125.71 117.38 126.57L115.94 127.27H115.93ZM118.85 138.7L117.25 139.67C116.88 138.63 116.09 136.86 115.37 135.61L115.86 135.26C116.9 136.19 118.22 137.62 118.85 138.71V138.7Z" fill="#D08421"/>
<path d="M125.61 126.76H128.79V139.01H127.24V137.41H124.22V139.34H122.67V126.75H124.76C125.01 125.63 125.22 124.13 125.3 123.22L127.2 123.62C126.83 124.59 126.16 125.83 125.6 126.75L125.61 126.76ZM127.24 127.55H124.22V131.43H127.24V127.55ZM127.24 136.62V132.23H124.22V136.62H127.24ZM137.03 126.79C136.99 132.94 136.89 135.9 136.61 137.57C136.22 139.86 134.17 140.51 130.86 137.66L131.16 137.1C133.99 138.24 134.78 138.33 135.01 136.91C135.17 135.89 135.38 133.55 135.4 127.59H131.71C131.16 128.94 130.43 130.37 129.39 131.69L128.88 131.3C130.15 128.82 130.76 125.59 131.04 123.28L132.89 123.65C132.73 124.46 132.45 125.57 132.01 126.8H137.04L137.03 126.79ZM132.76 134.81C132.18 133.14 131.49 131.66 130.76 130.27L131.27 129.87C132.43 130.94 133.7 132.54 134.36 133.91L132.76 134.81Z" fill="#D08421"/>
<path d="M156.6 137.87V138.84H141.62V137.87H148.33V133.41H143.25V132.53H148.33V128.7H144.73C143.96 130.14 143.01 131.42 141.95 132.34L141.48 131.94C142.87 130.04 143.92 127.4 144.45 124.17L146.24 124.68C145.98 125.77 145.61 126.84 145.13 127.86H148.33V123.47H149.98V127.86H155.41V128.7H149.98V132.53H154.99V133.41H149.98V137.87H156.59H156.6Z" fill="#D08421"/>
<path d="M162.59 134.78L163.17 134.96C162.98 136.52 162.24 138.12 161.57 139.11L160.2 137.97C161.27 137.09 162.01 136.11 162.59 134.79V134.78ZM160.39 125.66L162.04 125.77C162.5 125.07 162.8 124.4 163.18 123.26L164.74 123.75C164.04 124.66 163.49 125.23 162.79 125.79C163.99 125.83 165.2 125.83 166.31 125.77C166.1 125.37 165.89 125 165.64 124.63L166.11 124.24C166.94 124.93 167.5 125.52 168.29 126.6L167.08 127.37C166.89 126.98 166.73 126.63 166.57 126.3C164.16 126.81 162.12 127.04 160.73 127.14L160.38 125.66H160.39ZM166.01 132.25V131.65H162.67V134.36H161.23V127.65H167.45V132.82C167.45 134.23 165.99 134.95 163.92 133.36L164.11 132.76C165.81 133.2 166.01 133.13 166.01 132.25ZM162.67 128.38V129.24H166.01V128.38H162.67ZM166.01 130.91V129.98H162.67V130.91H166.01ZM172.25 135.88C173.27 138.53 172.8 139.34 171.14 139.48C170.1 139.57 167.8 139.59 166.53 139.53C164.77 139.46 163.93 139.23 163.93 137.81V134.7H165.44V137.06C165.44 137.89 165.67 138.11 166.65 138.17C168 138.24 169.9 138.24 170.8 138.12C171.57 138.01 171.7 137.86 171.61 135.89H172.24L172.25 135.88ZM166.99 134.25C167.97 134.6 169.36 135.25 170.22 135.92L169.1 137.27C168.36 136.43 167.32 135.37 166.67 134.79L166.99 134.25ZM168.47 132.07V129.06H169.91V131.27C170.98 130.81 172.05 130.16 173.11 129.28L174.38 130.44C173.2 131.04 171.29 131.56 169.92 131.86C169.92 132.74 170.06 132.86 170.87 132.93C171.66 133 172.36 133 173.14 132.91C174.16 132.79 174.34 132.63 174.26 131.15H174.88C175.58 133.01 175.44 134.02 173.25 134.17C172.3 134.24 171.53 134.24 170.58 134.17C169.09 134.06 168.49 133.91 168.49 132.04L168.47 132.07ZM168.56 126.29V123.42H170V125.78C171.02 125.29 172.11 124.62 173.02 123.85L174.29 124.97C173.04 125.59 171.35 126.09 170 126.39C170 127.29 170.09 127.41 170.91 127.43C171.79 127.5 172.14 127.5 173.02 127.39C173.93 127.28 174 127.02 173.99 125.74H174.61C175.33 128.04 174.77 128.48 173.2 128.62C172.23 128.71 171.79 128.71 170.83 128.67C168.91 128.6 168.56 128.39 168.56 126.28V126.29ZM175.87 137.8L174.39 138.7C173.77 137.21 173.27 136.13 172.54 135.01L173.05 134.62C174.16 135.53 175.05 136.48 175.86 137.8H175.87Z" fill="#D08421"/>
<path d="M179.16 139.12L178.84 138.56C180.49 137.56 182.41 135.92 183.67 134.1L185.18 135.08C184.02 136.33 182.19 137.84 179.15 139.12H179.16ZM187.97 133.13V137.95C187.97 139.73 186.51 140.57 183.4 138.71L183.61 138.09C186.02 138.65 186.32 138.46 186.32 137.4V133.34C184.11 133.59 181.91 133.76 180.62 133.81L180.18 132.16C181.11 132.23 182.15 132.25 183.2 132.25C184.76 131.48 186.29 130.47 187.7 129.28C185.49 129.74 183.22 129.98 181.78 130.11L181.36 128.48C182.01 128.52 182.7 128.55 183.4 128.57C184.33 127.69 185.02 126.99 185.88 125.83C183.86 126.02 181.91 126.13 180.43 126.16L180.32 125.53C184.4 125.13 188.49 124.6 191.62 123.33L193.25 124.68C191.81 125.05 190.05 125.33 188.24 125.56C187.22 126.56 185.69 127.76 184.48 128.58C185.87 128.6 187.31 128.56 188.63 128.46C189.33 127.81 190 127.11 190.62 126.37L192.18 127.34C190 129.47 187.4 131.08 184.83 132.24C187.24 132.17 189.68 131.99 191.51 131.8C191.07 131.17 190.63 130.62 190.21 130.13L190.65 129.69C191.85 130.46 193.64 131.99 194.5 133.19L193.09 134.28C192.7 133.61 192.32 133 191.95 132.43C190.9 132.68 189.47 132.92 187.96 133.13H187.97ZM194.72 137.4L193.51 138.84C192.6 137.79 190.47 135.9 188.66 134.55L188.98 133.99C191 134.83 193.3 136.15 194.73 137.4H194.72Z" fill="#D08421"/>
<path d="M200.04 134.55C201.38 134.02 202.13 132.9 202.27 131.74C202.15 131.81 201.78 131.83 201.67 131.83C200.84 131.83 200.26 131.29 200.26 130.42C200.26 129.55 200.86 129.01 201.68 129.01C202.75 129.01 203.46 129.66 203.46 130.98C203.46 132.93 202.21 134.67 200.4 135.04L200.03 134.55H200.04Z" fill="#D08421"/>
<path d="M1.16 168.66C0.84 167.55 0.33 166.2 0 165.43L0.51 165.1C1.14 165.72 2.07 167.03 2.55 168.02L1.16 168.67V168.66ZM9.16 177.92C6.8 178.82 3.13 179.75 0.48 180.1L0.04 178.39C1.13 178.35 2.45 178.25 3.77 178.11V175.88H1.02V175.09H3.76V173.28H0.44V172.49H2.69C2.32 171.58 1.88 170.71 1.48 169.98L1.78 169.75H0.04V168.96H2.83V164.55H4.2V168.96H5.03V164.55H6.44V168.96H8.62V169.75H6.37L7.58 170.22C7.18 170.91 6.56 171.82 5.98 172.49H8.74V173.28H5.31V175.09H8.23V175.88H5.31V177.94C6.75 177.75 8.1 177.54 9 177.32L9.16 177.92ZM4.13 171.93L3.15 172.49H5.15C5.47 171.72 5.77 170.59 5.96 169.75H2.16C2.9 170.35 3.57 171.09 4.13 171.93ZM7.31 168.87L6.78 168.57C7.22 167.55 7.59 166.18 7.82 165.05L9.38 165.59C8.87 166.64 8.1 168 7.31 168.86V168.87ZM15.64 169.78H13.92V179.15C13.92 180.85 12.22 181.61 9.16 179.36L9.35 178.76C12.02 179.55 12.34 179.34 12.34 178.43V169.78H8.98V168.99H12.34V164.51H13.92V168.99H15.64V169.78ZM9.96 175.28C9.8 174.14 9.57 172.92 9.12 171.08L9.72 170.83C10.81 172.54 11.35 173.94 11.57 174.82L9.97 175.28H9.96Z" fill="#D08421"/>
<path d="M34.7798 178.75L33.5298 180.79C31.5998 179.82 28.1498 177.24 27.0598 172.41C25.9498 177.17 22.7198 179.55 19.0798 180.67L18.7598 180.07C21.7698 178.61 24.5098 176.48 25.3898 172H19.4498V171.03H25.5498C25.5998 170.59 25.6598 170.15 25.6698 169.68C25.7198 168.77 25.7198 167.66 25.7198 166.64H20.3398V165.73H33.0698V166.64H27.5298C27.5498 167.85 27.5098 169.05 27.4098 170.24C27.3898 170.5 27.3598 170.77 27.3198 171.03H33.9998V172H27.6698C28.9398 175.6 31.8398 177.62 34.7698 178.75H34.7798Z" fill="#D08421"/>
<path d="M43.69 174.57L43.97 175.15C42.41 176.33 40.51 177.49 38.49 178.47L37.79 176.76C38.33 176.64 39.2 176.37 40.16 176.02V170.1H38.03V169.31H40.16V165.35H41.71V169.31H43.85V170.1H41.71V175.43C42.38 175.17 43.06 174.87 43.7 174.57H43.69ZM51.51 180.25C49.98 180.36 48.59 180.36 47.08 180.25C45.13 180.11 44.36 179.58 44.36 177.77V171.67C43.85 171.85 43.36 172.04 42.87 172.21L42.61 171.47C43.19 171.26 43.77 171.05 44.37 170.82V166.34H45.88V170.24L47.66 169.55V164.86H49.1V168.97C49.75 168.71 50.38 168.46 51.02 168.2L51.28 167.78L52.99 168.22C52.73 170 51.79 173.84 51.13 175.27L50.51 175.11C50.81 173.63 51.13 169.98 51.13 169.01C50.46 169.29 49.79 169.55 49.11 169.84V176.68H47.67V170.4L45.89 171.09V177.61C45.89 178.51 46.45 178.72 47.23 178.79C48.71 178.93 49.99 178.88 51.45 178.79C52.38 178.74 52.5 178.26 52.45 175.31L53.07 175.27C54.23 179.33 53.77 180.09 51.54 180.24L51.51 180.25Z" fill="#D08421"/>
<path d="M58.6701 169.33C58.2701 167.91 57.8601 166.66 57.3901 165.39L57.9201 165.11C58.6901 166.02 59.6401 167.5 60.1901 168.68L58.6801 169.33H58.6701ZM61.2901 179.03L61.4501 178.41C63.6801 178.81 63.8401 178.55 63.8401 177.65V170.51H59.0601V180.69L57.5501 180.67V169.72H60.6801V164.53H62.1901V169.72H65.3001L65.2801 177.81C65.2801 180.31 63.4201 180.17 61.2901 179.02V179.03ZM61.9201 176.25H60.9501V177.37H59.7401V171.85H63.1501V177.05H61.9201V176.24V176.25ZM61.9201 175.46V172.65H60.9501V175.46H61.9201ZM63.1901 169.17L62.7201 168.87C63.3401 167.6 63.7401 166.44 64.1401 165.06L65.7601 165.76C64.8601 167.25 64.0201 168.33 63.1901 169.17ZM72.7901 179.08L71.4401 180.93C70.4001 180.05 69.4501 179.03 68.7201 177.52C67.6301 178.93 66.2201 180.03 64.4501 180.82L64.1301 180.29C65.8901 179.24 67.2201 177.86 68.1601 176.18C67.6901 174.83 67.3301 173.16 67.1601 170.99C66.7601 171.87 66.3201 172.61 65.8601 173.12L65.4001 172.77C66.3701 170.82 67.0001 167.69 67.2301 164.42L69.0601 164.68C68.9401 165.66 68.6601 166.88 68.2701 168.11H72.4501V168.9H71.4501C71.3401 171.69 70.7501 174.17 69.5901 176.21C70.3801 177.42 71.4401 178.35 72.8101 179.08H72.7901ZM68.8201 174.76C69.4901 173.05 69.8201 171.1 69.8701 168.91H67.9901C67.9001 169.14 67.8301 169.37 67.7401 169.6C67.9001 171.66 68.2301 173.36 68.8101 174.77L68.8201 174.76Z" fill="#D08421"/>
<path d="M82.8501 170.19H78.1901V180.77H76.6401V165.16H82.8501V170.19ZM81.3701 165.95H78.1901V167.23H81.3701V165.95ZM81.3701 168.02H78.1901V169.39H81.3701V168.02ZM86.0301 175.44V179.96H84.5501V175.44H82.7201C82.4401 178.04 80.9401 179.64 79.2401 180.38L78.8701 179.85C80.1501 178.9 81.0701 177.71 81.2401 175.44H78.7401V174.65H81.2701V172.38H79.2701V171.59H88.0801V172.38H86.0201V174.65H88.6201V175.44H86.0201H86.0301ZM84.5501 174.65V172.38H82.7601L82.7801 174.47V174.65H84.5601H84.5501ZM90.6001 165.16V178.68C90.6001 180.82 88.9301 181.25 86.4201 179.58L86.6301 178.96C88.5601 179.5 89.0601 179.42 89.0601 178.36V170.19H84.4901V165.16H90.6101H90.6001ZM89.0501 165.95H85.9601V167.23H89.0501V165.95ZM89.0501 168.02H85.9601V169.39H89.0501V168.02Z" fill="#D08421"/>
<path d="M96.8801 175.6C98.2201 175.07 98.9701 173.95 99.1101 172.79C98.9901 172.86 98.6201 172.88 98.5101 172.88C97.6801 172.88 97.1001 172.33 97.1001 171.47C97.1001 170.61 97.7001 170.06 98.5201 170.06C99.5901 170.06 100.3 170.71 100.3 172.03C100.3 173.98 99.0501 175.72 97.2401 176.09L96.8701 175.6H96.8801Z" fill="#D08421"/>
<path d="M114.94 176.48L116.72 177.43C115 179.03 111.99 180.38 109.72 180.98L109.47 180.38C111.9 179.24 113.62 178.04 114.94 176.48ZM125.22 176.3H109.68V175.51H111.17C111.08 172.13 110.96 169.25 110.78 165.84L112.2 166.03C112.97 165.5 113.57 164.94 114.19 164.29L115.47 165.45C114.61 165.96 113.33 166.47 112.38 166.77L112.43 168.72H114.72V169.46H112.47C112.49 170.25 112.51 171.06 112.54 171.85H114.75V172.59H112.55C112.59 173.56 112.6 174.54 112.64 175.51H114.89C115.12 173.95 115.26 172.79 115.42 171.17L116.9 171.43C116.74 172.98 116.6 174.03 116.37 175.51H117.79C117.93 173.98 118.07 171.71 118.18 170.06H116.65C116.61 170.31 116.56 170.53 116.53 170.76L115.09 170.57C115.39 168.64 115.69 166.39 115.88 164.45L117.36 164.63C117.31 165.26 117.22 165.97 117.13 166.69H119.96V167.48H117.02C116.95 168.08 116.86 168.69 116.77 169.29H119.74C119.63 171.07 119.46 173.79 119.28 175.51H121.95L122.13 172.75H120.18V172.01H122.17L122.33 169.64H120.26V168.9H122.39L122.55 166.33H120.23V165.54H124.06L123.44 175.51H125.22V176.3ZM125.47 179.27L124.31 180.99C122.68 179.58 120.72 178.34 118.65 177.23L118.9 176.63C121.1 177.19 123.22 177.93 125.47 179.27Z" fill="#D08421"/>
<path d="M134.54 174.83C133.36 175.74 131.08 176.99 129.21 177.68L128.56 175.96C129.23 175.85 129.97 175.68 130.7 175.49V171.18H128.85V170.39H130.7V166.35H128.63V165.56H134.17V166.35H132.18V170.39H133.88V171.18H132.18V175.05C133.02 174.77 133.76 174.51 134.24 174.28L134.54 174.84V174.83ZM144.38 179.07L143.43 180.69C141.37 179.81 139.69 178.25 139.14 174.66H138.81C138.51 175.06 138.09 175.45 137.6 175.82V178.46C138.32 178.28 139.02 178.06 139.66 177.83L139.92 178.41C138.22 179.5 136.28 180.27 134.65 180.68L134.09 179.1C134.76 179.03 135.48 178.92 136.2 178.78V176.72C134.97 177.41 133.62 177.93 132.67 178.2L132.44 177.58C133.97 177.04 135.85 176 137.03 174.66H134.83L134.81 171.62H143.05V174.66H139.82C140.07 175.57 140.38 176.29 140.79 176.86C141.39 176.37 141.95 175.72 142.46 175L143.69 175.98C142.92 176.58 142.07 177.03 141.25 177.4C142.04 178.19 143.06 178.65 144.4 179.07H144.38ZM134.15 169.82H144.05V170.61H134.15V169.82ZM143.4 168.94H134.54V165.14H143.4V168.94ZM137.09 165.93H135.98V168.14H137.09V165.93ZM136.32 173.89H141.56V172.36H136.3L136.32 173.89ZM139.5 165.93H138.36V168.14H139.5V165.93ZM141.96 165.93H140.76V168.14H141.96V165.93Z" fill="#D08421"/>
<path d="M153.54 174.51C151.98 175.69 150.04 176.8 148 177.67L147.28 176C147.83 175.88 148.67 175.65 149.64 175.33V169.32H147.58V168.53H149.64V164.47H151.15V168.53H153.05V169.32H151.15V174.82C151.89 174.56 152.61 174.26 153.28 173.94L153.54 174.5V174.51ZM160.89 180.33C158.48 180.31 158.02 180.07 158.02 178.59V176.01H157.32C156.81 178.4 154.86 180.3 150.78 181L150.6 180.38C153.62 179.47 155.29 178.04 155.75 176H153.68V171.43H161.92V176H159.49V178.02C159.49 178.83 159.6 178.95 160.91 178.97C162.21 178.99 162.28 178.69 162.33 176.54H162.93C163.44 179.28 163.74 180.34 160.87 180.32L160.89 180.33ZM154.7 167.25H153.26V166.46H157.94C157.17 165.93 156.18 165.3 155.46 164.84L155.65 164.24C156.56 164.45 158.2 164.93 159.06 165.36L158.43 166.45H162.51V167.24H160.08L161.12 167.7C160.65 168.37 159.98 169.12 159.36 169.67H163.02V170.46H152.81L152.79 169.67H155.81C155.49 169.02 154.93 168.09 154.51 167.46L154.7 167.25ZM155.16 173.28H160.45V172.23H155.16V173.28ZM155.16 175.21H160.45V174.07H155.16V175.21ZM159.5 167.25H155.21C155.88 167.71 156.58 168.37 157.07 169.01L156.16 169.68H158.5C158.9 168.94 159.24 168.1 159.5 167.25Z" fill="#D08421"/>
<path d="M181.18 180.72C178.54 180.02 176.4 179.07 174.59 177.49C172.57 179.21 170.13 180.14 166.94 180.74L166.71 180.16C169.72 179.25 171.91 178.14 173.6 176.49C172.55 175.33 171.61 173.89 170.79 172.06L171.33 171.73C172.44 173.35 173.46 174.56 174.49 175.49C175.39 174.37 176.12 173.05 176.76 171.41L178.48 172.22C177.62 173.93 176.7 175.31 175.69 176.42C177.45 177.62 179.43 178.2 182.18 178.71L181.18 180.73V180.72ZM167.12 173.97L166.8 173.43C168.52 172.16 170.05 170.48 171.19 168.46L172.79 169.44C170.87 171.76 169.22 172.89 167.11 173.98L167.12 173.97ZM181.67 168.2H166.94V167.23H174.25C173.48 166.44 172.28 165.37 171.54 164.75L171.86 164.19C173.02 164.58 174.73 165.39 175.78 166.16L174.95 167.23H181.66V168.2H181.67ZM176.38 168.59C178.23 169.36 180.28 170.66 181.92 172.09L180.58 173.51C179.05 171.72 177.38 170.17 176.04 169.15L176.37 168.59H176.38Z" fill="#D08421"/>
<path d="M189.46 172.23V180.72H187.88V173.88C187.23 174.48 186.54 175 185.84 175.43L185.49 174.9C186.9 173.72 188.79 171.07 189.71 168.66L191.36 169.43C190.89 170.33 190.24 171.31 189.46 172.22V172.23ZM185.98 170.17L185.63 169.66C186.97 168.45 188.34 166.43 189.22 164.44L190.87 165.34C189.71 167.08 187.6 169.24 185.98 170.17ZM201.15 179.35V180.14H190.22V179.35H194.77V174.06H191.25V173.27H194.77V168.89H190.76V168.1H195.35C194.75 166.99 194.01 165.76 193.35 164.74L193.81 164.3C194.88 165.06 196.11 166.22 196.87 167.18L195.78 168.09H200.49V168.88H196.39V173.26H199.94V174.05H196.39V179.34H201.15V179.35Z" fill="#D08421"/>
<path d="M207.67 172.63C207.67 171.98 207.88 171.42 208.32 170.96C208.78 170.49 209.3 170.26 209.92 170.26C211.19 170.26 212.17 171.31 212.17 172.63C212.17 173.95 211.19 175 209.92 175C208.65 175 207.67 173.93 207.67 172.63ZM211.31 172.63C211.31 171.82 210.69 171.17 209.92 171.17C209.15 171.17 208.53 171.82 208.53 172.63C208.53 173.03 208.67 173.37 208.95 173.67C209.21 173.95 209.53 174.09 209.92 174.09C210.69 174.09 211.31 173.44 211.31 172.63Z" fill="#D08421"/>
</svg>
