<?xml version="1.0" encoding="utf-8"?>
<!-- Generator: Adobe Illustrator 27.0.0, SVG Export Plug-In . SVG Version: 6.00 Build 0)  -->
<svg version="1.1" id="圖層_1" xmlns="http://www.w3.org/2000/svg" xmlns:xlink="http://www.w3.org/1999/xlink" x="0px" y="0px"
	 viewBox="0 0 734.6 50" style="enable-background:new 0 0 734.6 50;" xml:space="preserve">
<style type="text/css">
	.st0{fill:#D28507;}
</style>
<g>
	<g>
		<path class="st0" d="M30.5,32.8c0,8-7.3,12.8-15.6,12.8c-8.2,0-13.9-3.7-14.8-13L0,32h5.4l0.1,0.6c0.6,6,4.7,8.7,10,8.7
			c5.3,0,9.1-3.1,9.1-8.3c0-5.1-3.2-7.9-10.2-7.9h-1.1v-4.4h1.1c5.1,0,9.2-3,9.2-8.4c0-4.3-3.1-7.3-7.6-7.3c-4.6,0-8.2,2.7-8.8,8.4
			L7,14.1H1.7l0.1-0.6C2.6,5.7,7.9,0.8,16.6,0.8c7.9,0,12.9,4.4,12.9,10.9c0,4.9-3.1,8.8-7.6,10.1C27.2,23.3,30.5,27.1,30.5,32.8z"
			/>
		<path class="st0" d="M63.5,40.4v4.4H34.6v-3.1l15.6-15.9c5.1-5.2,7.5-8.3,7.5-12.5c0-4.4-2.6-8.2-7.7-8.2c-5.6,0-8.2,3.4-8.9,9.5
			L41,15.2h-5.4l0.1-0.6c0.9-9,6.2-13.7,14.8-13.7c8.8,0,13.1,5.4,13.1,11.8c0,5.9-3.2,9.9-10.5,17L42.4,40.4H63.5z"/>
		<path class="st0" d="M117.5,30.2v2.3H101V46h-4.4V32.6H76.3v-2.3h7.6V17.9h12.7v-7.4H87c-2.3,3.9-5.2,7.6-8.3,10.2l-1.2-1.2
			c3.8-4.8,6.7-11.7,8-18.2l5,1.5c-0.6,1.8-1.4,3.6-2.3,5.5h26.2v2.3H101v7.4h12.2V20H101v10.2H117.5z M96.6,20h-8.5v10.2h8.5V20z"
			/>
		<path class="st0" d="M165.3,37.6l-3.1,5.2c-6.2-3.6-11.4-8.4-15.4-15.7v18.8h-4.3V28.8c-3.7,5-9.9,10.7-17.5,14.1l-0.8-1.6
			c5.7-3.2,12.7-10,16.4-16l-2.6,1.8c-0.9-2.3-1.9-4.5-2.8-6.2c-1.6,4-3.9,7.6-8.2,11l-1.1-1.3c4.5-5.3,6.2-10.5,6.7-17.7l4.5,0.8
			c-0.3,1.6-0.6,3.2-1,4.7c1.9,1.7,4,3.9,5.3,5.8c0.5-0.9,0.9-1.8,1.3-2.7v-10h-16.6V9h16.6V2.1h4.3V9h16.8v2.6h-16.8v11.7
			c0.6,0.8,1.2,1.6,1.8,2.3c2.5-3.8,3.8-7.3,4.5-12.9l4.4,1.1c-0.5,1.7-1.1,3.3-1.7,4.8c2.8,2,5.4,4.4,6.9,6.2l-3.3,3.1
			c-1.4-2.4-3-5-4.6-7.2c-1.4,2.6-3,4.7-4.9,6.4C154.4,32.2,159.1,35.1,165.3,37.6z"/>
		<path class="st0" d="M212.8,26.9c-0.2,4.2-0.9,12.9-2.2,15.9c-1.8,4.3-7.1,3.7-13.1-0.9l0.7-1.6c6.3,2,7.9,2,8.6-0.7
			c0.5-1.9,0.8-4.8,1.4-10.6h-25.4c-3,4.2-6.5,7.9-10.8,10.7l-1-1.4c7-6.3,12.2-15.1,15.3-24.9h-12.6v-2.1h13.3
			c0.9-3.2,1.6-6.5,2.2-9.9l4.7,1c-0.7,3-1.5,5.9-2.4,8.9H203c-0.5,2.6-0.9,5.2-1.6,7.8h6c-0.4,2.6-0.8,5.1-1.3,7.7H212.8z
			 M181.5,32.6l1.6,0.4c-0.3,4-1.8,8.8-3.4,11.8l-4.2-2.8C178,39.4,180,36.7,181.5,32.6z M181.4,11c-1.6-3.1-3.1-5.4-4.9-7.9
			l1.2-1.2c2.6,1.5,5.5,3.9,7.4,6.3L181.4,11z M184.4,26.9h17.7c0.3-1.9,0.6-3.7,0.8-5.6h-15.4C186.6,23.2,185.5,25.1,184.4,26.9z
			 M188,32.5c1.4,2.8,2.5,7.2,3.1,10.1l-4.6,0.6c0.1-2.6,0.1-7-0.2-10.3L188,32.5z M190.9,13.4c-0.7,1.9-1.5,3.9-2.3,5.7h8.8
			c0.4-1.9,0.7-3.9,0.9-5.7H190.9z M198.3,39.1l-4.1,1.4c-0.4-2.8-1.1-5.9-1.9-9l1.6-0.7C195.6,33,197.2,36.2,198.3,39.1z
			 M205.6,36.8l-3.8,1.9c-0.9-3-2-5.7-3.1-7.9l1.4-1C202.1,31.5,204.3,34.2,205.6,36.8z"/>
		<path class="st0" d="M229.9,13.1v32.7h-4v-26c-1.6,2.2-3.4,4.1-5.5,5.9l-1.1-1.3c5.1-6.5,8.1-14.1,10-22.9l4.6,1.4
			C232.7,6.5,231.4,10,229.9,13.1z M248.8,12.3v28.6c0,4.7-3.7,6.7-12.6,2l0.4-1.6c7.6,1.3,8,0.8,8-1.9V12.3h-5.7
			c-1.6,3.3-3.7,6.5-6.2,9.6l-1.5-1c3.3-5.6,5.1-11.4,6.1-18.9l4.8,1c-0.5,2.4-1.3,4.8-2.3,7.1h15.8l1.4-1l4.5,2.5
			c-1.8,2.9-4.8,6.4-7,8.1l-1.4-1.1c1.1-1.9,2.2-4.5,2.7-6.4H248.8z M241.8,22.9c-1.7,5.4-4.7,11.8-9.1,16.8l-1.4-1
			c2.8-5,4.9-10.9,6-17.2L241.8,22.9z M261.8,37.1l-4.6,2.1c-1.5-5.5-3.9-12.4-5.9-16.9l1.4-0.9C256.2,25.7,259.7,32,261.8,37.1z"/>
		<path class="st0" d="M290.4,7.5c-1.1,2.5-2.7,5.7-4.1,8h20.5v25.6c0,5.1-4.9,5.1-10.4,2.1l0.4-1.6c5.2,0.9,5.6,0.2,5.6-1.8v-22
			h-6.9v26.2h-4V17.8h-6.1v26.4h-4V17.8h-6.4v27.7h-4.3v-30h13.3c0.5-2.3,1-5.3,1.3-8h-17.4V5.2h41.4v2.3H290.4z"/>
		<path class="st0" d="M357.3,42v2.1h-41.6V42h5.6v-9.6h30.4V42H357.3z M327.1,8.5h-11.2V6.3h11.2V2.1h4v4.3h11V2h4v4.3H357v2.1
			h-10.9V12h-4V8.5h-11v3.7h-4V8.5z M335.6,21.8c-2,1.9-4.1,3.5-6.2,4.8c5.9,0,12.6,0,18-0.2c-1.1-1.1-2.4-2.2-3.5-3.1l0.8-1.3
			c3.5,1.5,7.2,3.4,10.7,6.2l-3.1,3.4c-1-1.1-2.2-2.4-3.4-3.7c-8.5,1.3-22.1,2.5-28.2,2.6l-1-4.3c1.9,0.2,4.2,0.3,6.8,0.4
			c1.5-1.6,2.6-3,3.8-4.7h-13.5v-2.1h17.5v-3.5h-13.4v-2.1h13.4v-4h4.1v4h13.9v2.1h-13.9v3.5h18.7v2.1H335.6z M330.1,34.5h-4.8V42
			h4.8V34.5z M338.8,34.5H334V42h4.8V34.5z M347.6,34.5h-4.9V42h4.9V34.5z"/>
		<path class="st0" d="M366.1,48.9c3.6-1.4,5.6-4.4,6-7.5c-0.3,0.2-1.3,0.2-1.6,0.2c-2.2,0-3.8-1.5-3.8-3.8c0-2.3,1.6-3.8,3.8-3.8
			c2.9,0,4.7,1.7,4.7,5.3c0,5.2-3.3,9.9-8.2,10.9L366.1,48.9z"/>
		<path class="st0" d="M400.8,42.4l-1-1.5c4.3-3.4,7.9-8.1,10-12.4l4.3,2.4C411,35.3,405.7,39.9,400.8,42.4z M421.8,40.7
			c0,5.3-4.5,7.3-11.7,1.4l0.8-1.6c5.1,1.6,6.6,1.9,6.7-0.8V26.1h-17.7V24h39v2.1h-17.2L421.8,40.7z M404.5,18.6h-4.1V8.5h19.6
			c-2.2-2-4.8-4-7-5.5l0.7-1.6c2.9,0.7,7.8,2.4,10.3,4l-2.2,3.1h16.4v10.1h-4.1v-7.9h-29.5V18.6z M407.2,18.6v-2.1h24.4v2.1H407.2z
			 M439.4,38.6l-3.9,3.5c-2-3.1-6.2-8.1-10.2-11.7l0.9-1.5C430.9,31.4,435.9,35.1,439.4,38.6z"/>
		<path class="st0" d="M488.9,40.2l-3.4,5.4c-4.5-2.1-14.5-11-16.9-27.4C466.1,32.4,457.1,42,447,45.9l-0.8-1.6
			c8.2-4.7,15.5-12.4,17.7-27.1h-16.2v-2.6h16.5c0.1-1.1,0.2-2.2,0.2-3.3c0.1-2.9,0.2-6.2,0.2-9.4l4.8,0.1c0,3.7-0.1,7.1-0.3,10.7
			l-0.1,1.8h17.7v2.6h-16.5C473.7,30.7,482.5,37.4,488.9,40.2z"/>
		<path class="st0" d="M498.7,48.9c3.6-1.4,5.6-4.4,6-7.5c-0.3,0.2-1.3,0.2-1.6,0.2c-2.2,0-3.8-1.5-3.8-3.8c0-2.3,1.6-3.8,3.8-3.8
			c2.9,0,4.7,1.7,4.7,5.3c0,5.2-3.3,9.9-8.2,10.9L498.7,48.9z"/>
		<path class="st0" d="M570.4,20.2v3.1h-39.1v-3.1H570.4z"/>
		<path class="st0" d="M619.4,41.4v2.1H578v-2.1h7.4V14.6h10.4c0.1-1.4,0.3-3.2,0.5-5h-16.5V7.5h16.7c0.1-2.3,0.3-4.5,0.3-5.6
			l4.7,0.3c-0.1,1.7-0.3,3.5-0.5,5.3h16.6v2.1h-16.9l-0.6,5h12v26.8H619.4z M607.9,16.7h-18.3V21h18.3V16.7z M607.9,23h-18.3v4.7
			h18.3V23z M607.9,29.7h-18.3v4.8h18.3V29.7z M607.9,36.5h-18.3v4.9h18.3V36.5z"/>
		<path class="st0" d="M643.9,17.5h6.7v2.1h-8.3c-1.5,1.8-3,3.3-4.5,4.7h10v21.1h-4v-3.4h-8.1v3.6h-4V28.8c-1.6,1-3.3,1.9-5,2.7
			l-0.8-1.5c4.9-2.8,8.9-6.3,12.2-10.4h-11.6v-2.1h8.1v-6.3h-6.3V9.1h6.3V2.3h4.1v6.8h5.5c0.6-1.3,1-2.6,1.5-4l3.8,1.6
			C647.8,10.9,645.9,14.5,643.9,17.5z M643.7,26.4h-8.1v5.5h8.1V26.4z M643.7,33.9h-8.1v6.1h8.1V33.9z M639.6,17.5
			c1.4-2,2.6-4.1,3.7-6.3h-4.6v6.3H639.6z M656.5,36.7l0.6-1.6c5.1,1.4,5.7,0.2,5.3-4.5c-0.2-2.5-1.1-5.5-4.5-10.7
			c1.2-3.3,2.8-8.4,3.4-12.8h-5.8v38.7h-4V3.8l4,1h5.3l1.2-0.8l4,2c-2,6.3-3.9,10.1-6.3,13.6c3.5,4,5.9,7.2,6.6,11.2
			C667.9,40.4,660.6,40.6,656.5,36.7z"/>
		<path class="st0" d="M715,10.2v2.6h-24.3c-1.6,3.1-3.5,6.2-5.5,8.9v24.1h-4.4V26.9c-2.3,2.5-4.7,4.5-6.9,5.9l-1-1.5
			c3.1-2.7,8.7-9.4,12.9-18.6h-10.6v-2.6h11.7c1.1-2.6,2-5.4,2.7-8.3l5,1.3c-0.7,2.4-1.6,4.7-2.7,7H715z M702.2,40.9h12v2.6h-27.4
			v-2.6h11V27.6h-9.4v-2.3h9.4V15.3h4.4v10.1h9.4v2.3h-9.4V40.9z"/>
		<path class="st0" d="M722.6,40.9c0-1.7,0.6-3.2,1.7-4.5c1.2-1.3,2.6-1.9,4.3-1.9c3.4,0,6,2.8,6,6.3c0,3.5-2.6,6.3-6,6.3
			C725.3,47.3,722.6,44.4,722.6,40.9z M732.3,40.9c0-2.2-1.6-3.9-3.7-3.9c-2,0-3.7,1.7-3.7,3.9c0,1.1,0.4,2,1.1,2.8
			c0.7,0.8,1.6,1.1,2.6,1.1C730.7,44.8,732.3,43.1,732.3,40.9z"/>
	</g>
</g>
</svg>
