<svg width="753" height="48" viewBox="0 0 753 48" fill="none" xmlns="http://www.w3.org/2000/svg">
<g clip-path="url(#clip0_503_1152)">
<path d="M11.51 12.7802V46.7902H7.12001V20.5302C5.26001 23.3402 3.25001 25.8602 1.20001 27.9302L0.0100098 26.6002C4.73001 20.1902 8.93001 10.1202 10.93 0.200195L15.75 1.5802C14.6 5.5802 13.17 9.3302 11.5 12.7902L11.51 12.7802ZM42.93 39.4802V42.4402H13.65V39.4802H42.92H42.93ZM40.26 13.0702H16.82V10.3102H40.26V13.0702Z" fill="#221815"/>
<path d="M58.39 20.8801V46.5501H54.28V26.3101C52.85 27.9401 51.27 29.4201 49.65 30.6001L48.6 29.2201C52.61 24.5301 56.29 17.1801 58.29 10.3601L62.97 12.3301C61.87 14.9001 60.34 17.9101 58.39 20.8701V20.8801ZM49.7 16.2901L48.65 14.9101C52.33 10.7101 54.9 5.4301 56.62 0.350098L61.2 2.4201C58.48 7.5001 54.04 13.2801 49.69 16.2901H49.7ZM65.5 32.1801C65.69 36.7201 64.93 41.5601 63.54 44.5201L59.29 42.3001C61.53 39.6801 63.06 36.4301 63.83 31.9801L65.5 32.1801ZM91.43 27.9301H61.26V25.7101H91.43V27.9301ZM73.76 8.3801H61.87V6.1601H73.76V0.890098H77.96V6.1701H90.56V8.3901H77.96V11.8901H88.23V23.3401H64.12V11.8901H73.76V8.3901V8.3801ZM83.93 34.9401C86.79 43.4801 84.31 44.9601 80.59 45.2101C78.39 45.3601 75.77 45.3601 73.52 45.2601C68.84 45.0601 67.6 44.5201 67.6 40.1801V30.5501H71.71V39.1401C71.71 40.9201 72.09 41.3101 74.15 41.4601C75.92 41.6101 78.59 41.5601 80.36 41.3101C81.98 41.0601 82.41 40.6701 82.22 34.9401H83.94H83.93ZM71.13 14.1101H68.12V21.1201H71.13V14.1101ZM73.95 28.4201C76.15 29.6501 79.39 32.1701 81.3 34.4901L78.1 37.4501C76.48 34.5901 74.76 32.1201 72.85 29.7001L73.95 28.4201ZM74.47 21.1101H77.57V14.1001H74.47V21.1101ZM80.92 21.1101H84.21V14.1001H80.92V21.1101ZM92.09 41.1001L88.13 42.7801C87.27 39.5201 85.65 35.0801 84.17 31.6701L85.65 30.8301C88.47 33.8401 90.81 37.8901 92.1 41.1001H92.09Z" fill="#221815"/>
<path d="M121.27 10.8102V18.9102H135.07V36.5302C135.07 41.8102 129.87 42.7002 123.56 38.1602L124.04 36.4802C129.82 37.7602 130.68 37.3202 130.68 35.1002V21.1302H121.27V46.9502H116.78V21.1302H107.57V42.4002H103.18V18.9002H116.79V10.8002H98.12V8.33023H119.13C116.89 5.86023 114.26 3.39023 112.25 1.62023L113.01 -0.00976562C116.26 1.08023 120.27 3.15023 123.13 5.22023L120.79 8.33023H139.84V10.8002H121.27V10.8102Z" fill="#221815"/>
<path d="M169.54 35.9402C163.81 38.9502 153.21 42.6002 147.53 44.0402L145.91 39.1002C147.06 39.0002 148.39 38.8002 149.87 38.5602V15.5002H153.69V37.9102C154.93 37.7102 156.17 37.4702 157.46 37.2202V7.9002H147.67V5.6802H169.68V7.9002H161.66V18.9102H166.86V21.1302H161.66V36.2802C164.38 35.6402 166.91 34.9502 168.87 34.2602L169.54 35.9402ZM189.59 42.4602L186.44 47.1002C182.1 44.0402 178.71 40.7302 176.22 36.6402C172.5 40.8902 167.48 44.2402 160.99 46.9602L160.18 45.3802C166.67 41.9702 171.3 38.0702 174.46 33.2902C172.69 29.3902 171.55 24.8002 171.07 19.2202C169.73 21.9802 168.3 24.6002 166.73 26.7702L165.25 25.8302C168.78 19.4102 170.88 8.7002 171.55 0.700195L176.52 1.4902C176.04 4.6502 175.18 8.1002 174.04 11.5602H187.74V13.7802H184.49C183.96 21.7302 182.1 28.1402 178.71 33.3302C181.43 37.0802 185.06 39.9002 189.6 42.4602H189.59ZM176.41 29.7202C178.61 25.2302 179.75 20.0002 180.18 13.7802H173.26C173.02 14.4702 172.78 15.1102 172.5 15.7502C173.17 21.4802 174.5 26.0202 176.42 29.7202H176.41Z" fill="#221815"/>
<path d="M237.19 41.8102V44.5302H195.46V41.8102H202.62V16.4902H207.01V41.8102H215.89V6.96023H197.84V4.49023H235.42V6.96023H220.48V22.0202H233.47V24.2402H220.48V41.8102H237.19Z" fill="#221815"/>
<path d="M255.57 20.3899V46.8999H251.46V23.7499C249.98 27.6999 247.4 32.5399 244.58 35.8399L243.29 34.6599C245.77 30.8599 249.16 22.9099 250.79 14.3199H244.44V12.0999H251.46V0.789902H255.57V12.0899H261.92V14.3599H255.57V17.0699C257.86 19.3899 260.44 22.1499 262.16 25.5599L258.48 27.7799C257.67 25.4599 256.57 22.6999 255.57 20.3799V20.3899ZM282.88 47.2399C281.3 44.3299 278.82 40.6299 276 37.0199C270.89 42.0499 264.97 45.5599 258.19 47.3399L257.52 45.7099C267.21 42.0099 274.76 34.4999 280.29 23.3999L284.59 25.9699C282.44 29.5699 280.05 32.7799 277.48 35.5499C281.3 38.1699 284.45 40.9799 286.65 43.7899L282.88 47.2499V47.2399ZM269.23 11.2099H260.68V8.9899H273.38C271.8 6.7199 269.7 3.9599 267.79 1.8299L268.84 0.399902C271.8 2.0299 274.95 4.0999 277.2 6.3699L274.72 8.9899H286.27V11.2099H274.14C271.99 14.6199 269.32 17.9199 267.36 19.8999C269.84 19.9499 272.18 19.8499 274.81 19.6499C275.67 18.1199 276.48 16.4899 277.24 14.7099L281.63 17.0799C275.71 27.4999 268.5 33.8599 259.81 37.3199L259 35.7399C264.49 32.7799 269.46 28.2899 273.47 21.8699C268.65 23.2499 265.07 23.8399 262.44 24.1899L261.39 19.4999C262.77 19.6499 264.06 19.7499 265.31 19.7999C266.55 17.6299 268.17 14.1699 269.22 11.2099H269.23Z" fill="#221815"/>
<path d="M299.64 18.4098L301.36 18.6598C301.26 26.8998 299.98 32.9298 297.64 37.7598L292.44 34.7998C295.83 30.5098 297.93 26.6098 299.65 18.4098H299.64ZM305.37 37.9598V11.4998H309.95V37.0198C309.95 39.5898 310.43 40.1798 313.1 40.3798C314.91 40.5298 317.02 40.5798 319.12 40.3798C322.61 40.0798 323.23 39.2898 323.18 29.9198H324.99C328.33 41.1698 327.14 44.1398 320.65 44.7798C317.74 45.0798 315.02 44.9798 312.39 44.7798C306.66 44.3398 305.37 44.0398 305.37 37.9698V37.9598ZM307.52 2.31984L308.43 0.589844C314.21 2.75984 319.03 5.52984 322.99 9.02984L319.22 13.4698C315.26 8.77984 312.06 5.81984 307.52 2.30984V2.31984ZM324.37 17.7698L325.95 16.7798C330.06 21.6198 333.64 27.5398 335.64 32.7198L330.34 34.9898C328.72 28.8698 327 23.4398 324.37 17.7598V17.7698Z" fill="#221815"/>
<path d="M393.08 2.56984L361.86 46.9998L359.28 45.0298L390.5 0.589844L393.08 2.55984V2.56984Z" fill="#C88C2D"/>
<path d="M419.33 43.2899L418.28 41.7599C422.67 38.2099 426.35 33.2199 428.45 28.7299L432.79 31.2999C429.64 35.8399 424.24 40.6799 419.33 43.2999V43.2899ZM440.67 41.5099C440.72 47.0399 436.13 49.2099 428.83 42.9399L429.59 41.3099C434.75 42.9399 436.27 43.2799 436.42 40.4699V26.1099H418.42V23.8899H458V26.1099H440.57L440.67 41.5099ZM423.05 18.2099H418.85V7.64994H438.71C436.51 5.52994 433.79 3.44994 431.55 1.86994L432.22 0.189941C435.18 0.929941 440.14 2.70994 442.72 4.38994L440.52 7.64994H457.18V18.2099H452.98V9.86994H423.04V18.2099H423.05ZM425.77 18.2599V16.0399H450.6V18.2599H425.77ZM458.52 39.2399L454.6 42.9399C452.6 39.6799 448.3 34.3999 444.24 30.6999L445.15 29.1199C449.92 31.6899 454.99 35.6399 458.52 39.2399Z" fill="#221815"/>
<path d="M508.85 40.9698L505.36 46.5998C500.78 44.4298 490.65 35.0498 488.17 17.7698C485.69 32.7798 476.52 42.8498 466.21 46.9398L465.35 45.2598C473.66 40.3698 481.11 32.2798 483.35 16.8298H466.93V14.1198H483.69C483.79 12.9798 483.88 11.7998 483.93 10.6198C484.07 7.6098 484.12 4.0498 484.17 0.799805L489.04 0.949805C489.04 4.8498 488.94 8.3998 488.75 12.1998L488.61 14.1298H506.61V16.8398H489.8C493.33 31.0098 502.36 38.0198 508.85 40.9798V40.9698Z" fill="#221815"/>
<path d="M556.12 19.2002V21.9202H537.59V46.8002H533.01V21.9202H514.91V19.2002H533.01V8.59023C527.18 9.38023 521.6 9.87024 517.3 10.0202L516.97 8.24023C527.86 6.86023 540.08 3.85023 546.52 0.740234L551.2 5.08023C547.05 6.17023 542.32 7.15023 537.59 7.89023V19.1902H556.12V19.2002Z" fill="#221815"/>
<path d="M579.28 29.8102L579.81 31.4402C575.27 34.2502 569.78 36.9202 564.01 39.0902L562.67 34.1502C564.15 33.9502 566.44 33.5102 569.12 32.8702V16.7802H563.25V14.5602H569.12V1.18018H573.23V14.5602H579.01V16.7802H573.23V31.7402C575.28 31.1502 577.34 30.5102 579.29 29.8102H579.28ZM605.11 25.9102V28.1302H593.03V46.7402H588.73V28.1302H576.56V25.9102H588.73V6.37018H578.08V4.15018H603.48V6.37018H593.02V25.9202H605.1L605.11 25.9102ZM586.97 21.4702L582.77 23.0502C581.72 18.6602 580.43 13.9202 579 10.0202L580.58 9.28018C582.78 12.3902 585.31 16.7302 586.98 21.4702H586.97ZM594.23 22.5102C596.09 18.4102 597.72 13.1302 598.48 8.69018L602.97 10.5702C601.2 14.9102 597.91 20.4902 595.76 23.3102L594.23 22.5202V22.5102Z" fill="#221815"/>
<path d="M620.1 19.4499V46.5999H616.19V24.0899C614.85 25.4199 613.33 26.6599 611.7 27.7399L610.65 26.3099C614.99 22.3599 618.05 16.6799 620.25 10.9599L623.21 12.4899V5.08994H626.74V15.1099H628.79V1.17994H632.51V15.0999H634.8V5.12994H638.33V17.3199H623.19V14.3099C622.28 16.0899 621.23 17.8099 620.09 19.4399L620.1 19.4499ZM612.7 15.1999L611.6 13.8199C615.13 9.81994 617.85 4.83994 619.24 0.439941L623.25 2.21994C620.53 7.20994 618.24 11.1499 612.7 15.1999ZM624.92 25.3699H628.93C628.79 35.9799 627.5 40.3799 622.58 44.7199L621.43 43.5399C624.77 39.1499 625.11 35.4399 624.92 25.3699ZM638.15 20.5799V22.7999H622.49V20.5799H638.15ZM631.56 43.0399L629.03 38.8399C629.89 38.5899 631.08 38.1499 632.37 37.5599V25.3199H636.28V35.5899C638 34.5999 639.62 33.5699 640.82 32.5299L641.77 33.7599C638.95 37.4099 635.04 40.4199 631.55 43.0399H631.56ZM650.56 46.6399C648.36 44.0699 646.6 41.3599 645.21 38.1499C642.82 41.6999 639.72 44.6699 635.61 46.8899L634.65 45.4099C638.47 42.7899 641.57 39.3899 643.86 34.5999C642.48 30.3499 641.71 25.3699 641.43 19.0999C640.76 20.2399 640.05 21.2699 639.28 22.2599L638.13 21.3699C641.04 15.3999 641.62 9.56994 642.14 0.979941L646.25 1.51994C645.87 4.97994 645.3 8.22994 644.53 11.2399H653.84V13.4599H651.55C651.36 21.1099 650.21 28.3199 647.35 34.3399C649.5 38.1899 652.12 40.4599 654.42 42.5299L650.55 46.6299L650.56 46.6399ZM645.5 30.3499C646.93 25.8099 647.74 20.3299 647.84 13.4699H643.88C643.59 14.3099 643.26 15.1499 642.93 15.9399C643.26 22.1599 644.22 26.7499 645.51 30.3499H645.5Z" fill="#221815"/>
<path d="M703.41 39.88L702.22 44.87C697.11 45.31 687.04 45.31 682.69 45.07C675.38 44.63 672.23 43.54 668.84 37.81C667.12 40.97 664.92 44.38 662.44 46.99L659.72 44.08C662.2 42.15 665.12 39.44 666.5 37.22V26.11H660.2V23.84H670.7V36.82C673.52 40.87 676.67 40.97 682.92 41.11C689.13 41.26 697.91 40.67 703.4 39.88H703.41ZM667.7 19.99C666.12 17.82 663.21 14.31 661.21 12.14L662.17 10.66C664.56 11.89 668.23 14.02 670.81 16.34L667.71 19.99H667.7ZM664.07 2.42004L664.98 0.940039C667.32 2.03004 671.33 4.15004 673.77 6.37004L670.71 9.97004C668.85 7.45004 666.46 4.74004 664.07 2.42004ZM675.91 16.83L674.57 15.79C677.05 11.1 677.82 6.36004 678.44 1.77004L682.93 2.71004C682.69 4.14004 682.02 6.31004 681.07 8.63004H685.56V0.790039H689.95V8.64004H699.26V10.86H689.95V17.77H701.79V19.99H673.48V17.77H685.56V10.86H680.02C678.92 13.03 677.54 15.15 675.91 16.83ZM694.48 38.15V35.14H681.11V38.25H676.91V23.64H698.68V38.15H694.48ZM694.48 32.92V25.86H681.11V32.92H694.48Z" fill="#221815"/>
<path d="M726.57 39.6899C723.08 41.2699 714.87 44.2299 710.15 45.2199L708.81 40.5799C711.05 40.3799 713.68 40.0899 716.26 39.6899V24.2399H709.38V22.0199H716.26V16.4899H712.01V15.7999C711.1 16.6399 710.2 17.4799 709.29 18.2199L708.24 16.8399C711.92 12.6399 715.16 6.3299 716.93 0.399902L721.27 1.9299C720.98 2.6199 720.7 3.3099 720.36 3.9999C722.94 5.6799 726.14 8.1999 728.43 10.5599L725.33 13.6199C723.56 10.8599 721.18 7.6999 719.46 5.6699C717.88 8.6299 715.78 11.6399 713.44 14.2599H725.14V16.4799H720.17V22.0099H727.28V24.2299H720.17V39.0899C722.51 38.6899 724.56 38.2999 726.09 37.9499L726.57 39.6799V39.6899ZM715.16 36.1899L711.53 37.1299C711.34 34.0699 710.81 30.5199 710.15 27.0099L711.63 26.5699C713.16 29.5799 714.45 33.1399 715.16 36.1999V36.1899ZM726.86 27.2999C725.95 30.1099 724.43 33.8199 722.52 36.7299L721.14 36.1899C722.05 32.9799 722.72 29.6199 723.05 26.2199L726.87 27.3099L726.86 27.2999ZM733.31 37.5199L737.56 40.0899C733.64 43.2999 725.96 46.4599 722.04 47.3499L721.37 45.6699C725.19 43.9899 729.34 41.5699 733.31 37.5299V37.5199ZM736.41 7.8999H727.24V5.6799H736.65L737.08 0.549902L741.19 0.899902L740.76 5.6899H750.98V7.9099H740.52C740.38 9.2399 740.19 10.6299 739.99 11.9099H747.96V34.6699H751.25V36.8899H726.09V34.6699H729.05V11.8999H735.97C736.16 10.5699 736.3 9.2299 736.4 7.8999H736.41ZM744.05 14.1199H732.97V17.2799H744.05V14.1199ZM744.05 19.4999H732.97V22.8599H744.05V19.4999ZM744.05 25.0799H732.97V28.6799H744.05V25.0799ZM744.05 30.8999H732.97V34.6499H744.05V30.8999ZM752.55 43.0399L750.02 47.1899C746.49 44.1799 742.33 41.6099 738.8 39.2399L739.56 37.5599C743.43 38.6499 748.73 40.5699 752.55 43.0399Z" fill="#221815"/>
</g>
<defs>
<clipPath id="clip0_503_1152">
<rect width="752.54" height="47.34" fill="white"/>
</clipPath>
</defs>
</svg>
