<svg width="304" height="29" viewBox="0 0 304 29" fill="none" xmlns="http://www.w3.org/2000/svg">
<path d="M0.62 24.54L0 23.67C2.58 21.65 4.75 18.81 5.98 16.26L8.53 17.72C6.68 20.3 3.5 23.05 0.61 24.54H0.62ZM13.17 23.53C13.2 26.67 10.5 27.91 6.21 24.34L6.66 23.41C9.69 24.34 10.59 24.53 10.67 22.93V14.77H0.08V13.51H23.36V14.77H13.11L13.17 23.53ZM2.81 10.28H0.34V4.27001H12.02C10.73 3.06001 9.13 1.88001 7.81 0.990006L8.2 0.0300064C9.94 0.450006 12.86 1.46001 14.38 2.42001L13.09 4.27001H22.89V10.28H20.42V5.53001H2.81V10.27V10.28ZM4.41 10.31V9.05001H19.01V10.31H4.41ZM23.67 22.24L21.37 24.35C20.19 22.5 17.66 19.49 15.28 17.39L15.81 16.49C18.62 17.95 21.59 20.2 23.67 22.25V22.24Z" fill="#D08421"/>
<path d="M53.2502 23.22L51.2002 26.42C48.5002 25.18 42.5502 19.85 41.0902 10.02C39.6302 18.56 34.2402 24.28 28.1802 26.61L27.6802 25.66C32.5602 22.88 36.9402 18.28 38.2602 9.49001H28.6002V7.95001H38.4502C38.5102 7.30001 38.5602 6.63001 38.5902 5.96001C38.6802 4.25001 38.7002 2.23001 38.7302 0.37001L41.5902 0.45001C41.5902 2.67001 41.5302 4.69001 41.4202 6.85001L41.3402 7.94001H51.9202V9.48001H42.0402C44.1202 17.54 49.4202 21.52 53.2402 23.21L53.2502 23.22Z" fill="#D08421"/>
<path d="M80.8498 22.6V24.28H56.8198V22.6H80.8498ZM78.8298 2.86001V4.43001H58.8098V2.86001H78.8298ZM76.8698 12.01V13.58H60.7798V12.01H76.8698Z" fill="#D08421"/>
<path d="M85.1099 12.21V10.67H96.1699V0.560013H98.8699V10.67H109.93V12.21H98.8699V26.33H96.1699V12.21H85.1099Z" fill="#D08421"/>
<path d="M110.87 27.56C112.41 26.95 113.28 25.65 113.45 24.32C113.31 24.4 112.88 24.42 112.76 24.42C111.81 24.42 111.14 23.79 111.14 22.8C111.14 21.81 111.83 21.18 112.78 21.18C114.02 21.18 114.83 21.93 114.83 23.45C114.83 25.7 113.39 27.71 111.3 28.13L110.87 27.56Z" fill="#D08421"/>
<path d="M138.62 10.33C138.09 11.12 137.53 11.87 136.91 12.6H149.57V26.33H147.04V24.53H136.46V26.47H133.93V15.72C132.22 17.29 130.31 18.64 128.4 19.65L127.87 18.72C131.04 16.59 133.88 13.64 135.93 10.33H128.8V9.07001H136.66C137.03 8.42001 137.33 7.75001 137.62 7.08001H130.26V5.82001H138.12C138.34 5.20001 138.54 4.61001 138.71 4.00001C135.73 4.20001 132.7 4.31001 130.06 4.25001L129.92 3.24001C138.2 2.87001 143.71 1.56001 147.83 0.100006L150.41 2.29001C148.19 2.91001 145.05 3.41001 141.65 3.75001C141.48 4.42001 141.28 5.13001 141 5.83001H151.02V7.09001H140.46C140.15 7.76001 139.81 8.44001 139.42 9.08001H152.7V10.34H138.61L138.62 10.33ZM147.04 13.87H136.46V16.14H147.04V13.87ZM147.04 17.35H136.46V19.68H147.04V17.35ZM147.04 20.89H136.46V23.28H147.04V20.89Z" fill="#D08421"/>
<path d="M178.37 25.66C175.87 25.88 175.67 25.88 173.6 25.72C170.85 25.5 169.89 25.02 169.89 22.86V16.77H168.04C167.59 20.53 165.46 25.05 157.06 26.91L156.67 25.96C162.73 24.05 165.04 20.12 165.4 16.78H160.68V1.57001H177.05V16.76H172.47V21.95C172.47 23.07 172.89 23.27 174.15 23.35C175.39 23.43 175.92 23.43 177.24 23.32C178.87 23.18 179.23 22.76 179.18 17.87H180.19C181.37 23.09 181.51 25.37 178.37 25.65V25.66ZM163.21 6.15001H174.52V2.84001H163.21V6.15001ZM163.21 10.81H174.52V7.41001H163.21V10.81ZM163.21 15.5H174.52V12.07H163.21V15.5Z" fill="#D08421"/>
<path d="M210.11 21.76L208.26 24.46C205.37 22.69 203.07 19.52 201.66 15.17C201.16 15.39 200.59 15.62 200.03 15.84C200.68 17.58 201.04 19.41 201.01 21.03C200.9 27.15 197.58 27.8 193.18 24.51L193.57 23.56C197.47 24.8 198.4 24.37 198.48 19.83C198.48 19.55 198.48 19.24 198.45 18.93C196.48 20.9 192.55 23.31 186.29 24.88L185.95 23.93C191.28 22.05 195.27 19.33 197.97 16.07C197.86 15.62 197.75 15.17 197.6 14.75C194.74 16.97 190.58 18.62 186.59 19.64L186.25 18.69C190.32 17.23 194.03 15.12 196.64 12.43C196.47 12.07 196.27 11.76 196.08 11.45C193.47 12.94 190.18 14.03 187.24 14.65L186.96 13.7C191.37 12.21 193.53 10.92 195.38 9.12001H189.65V7.86001H205.85V9.12001H199.22C198.63 9.74001 197.9 10.3 197.11 10.83C198.07 11.9 198.94 13.33 199.61 14.9C201.69 13.44 203.06 11.98 204.33 10.24L206.77 11.9C205.37 13.05 204.05 13.98 202.56 14.74C204.33 18.14 207.28 20.61 210.08 21.79L210.11 21.76ZM188.66 9.43001H186.19V3.99001H198.4C197 3.04001 195.14 1.86001 193.68 0.96001L194.05 0.0100098C195.85 0.35001 198.82 1.25001 200.45 2.09001L199.36 4.00001H209.38V9.45001H206.91V5.25001H188.66V9.43001Z" fill="#D08421"/>
<path d="M219.54 5.78001H224.62V25.35H222.15V22.8H217.32V25.89H214.85V5.78001H218.19C218.58 3.98001 218.92 1.60001 219.06 0.140007L222.09 0.790007C221.5 2.33001 220.43 4.33001 219.54 5.79001V5.78001ZM222.15 7.04001H217.32V13.24H222.15V7.05001V7.04001ZM222.15 21.53V14.51H217.32V21.53H222.15ZM237.79 5.84001C237.73 15.67 237.57 20.38 237.12 23.05C236.5 26.7 233.22 27.74 227.94 23.19L228.42 22.29C232.94 24.11 234.2 24.26 234.57 21.98C234.82 20.35 235.16 16.62 235.19 7.10001H229.29C228.42 9.26001 227.24 11.54 225.58 13.64L224.77 13.02C226.79 9.06001 227.77 3.90001 228.22 0.220007L231.17 0.810007C230.92 2.10001 230.47 3.87001 229.77 5.84001H237.8H237.79ZM230.97 18.64C230.04 15.97 228.95 13.61 227.77 11.4L228.58 10.75C230.43 12.46 232.45 15.02 233.52 17.21L230.96 18.64H230.97Z" fill="#D08421"/>
<path d="M267.79 18.7L265.74 21.62C263.97 20.52 258.55 16.2 256.25 8.62001V18.42H261.75V19.68H256.25V26.5H253.55V19.68H248.19V18.42H253.55V8.62001C252.17 13.11 248.38 18.7 242.85 22.15L242.26 21.28C246.78 17.38 249.39 13.17 251.22 7.63001H243.27V6.09001H253.55V0.390007H256.25V6.09001H266.86V7.63001H257.06C259.59 12.96 263.57 16.5 267.78 18.69L267.79 18.7Z" fill="#D08421"/>
<path d="M271.24 11.99C274.13 8.68001 273.57 6.35001 273.57 1.46001L275.96 1.91001C278.04 1.60001 279.47 1.12001 281.43 0.250013L283.68 2.10001C280.84 2.61001 278.57 2.83001 276.16 2.94001C276.13 3.59001 276.1 4.20001 276.05 4.76001H283.83V6.02001H280.83V10.09H278.47V6.04001H275.92C275.36 9.44001 274.01 11.15 271.96 12.69L271.26 11.99H271.24ZM280.31 21.84L283.01 23.44C280.85 24.68 275.96 26.36 271.75 26.89L271.44 25.91C275.15 24.96 277.78 23.64 280.31 21.84ZM274.95 10.81H292.67V21.65H274.95V10.81ZM277.42 13.93H290.2V12.08H277.42V13.93ZM277.42 16.99H290.2V15.14H277.42V16.99ZM277.42 20.39H290.2V18.2H277.42V20.39ZM295.95 4.78001V6.04001H291.99V10.11L289.63 10.08V6.04001H286.74C286.18 8.09001 285 9.18001 282.64 10.53L282.02 9.72001C284.55 7.61001 284.6 5.62001 284.57 1.41001L286.73 1.92001C288.92 1.58001 290.32 1.13001 292.35 0.240013L294.74 2.21001C291.88 2.66001 289.55 2.91001 287.1 2.97001C287.07 3.64001 287.02 4.26001 286.96 4.79001H295.94L295.95 4.78001ZM285 22.05C287.92 22.39 292.3 23.12 295.53 24.32L294.38 26.82C291.8 25.61 287.73 24.07 284.75 23.03L285 22.05Z" fill="#D08421"/>
<path d="M298.55 24.13C298.55 23.38 298.79 22.73 299.3 22.2C299.83 21.65 300.44 21.39 301.15 21.39C302.61 21.39 303.75 22.61 303.75 24.13C303.75 25.65 302.61 26.87 301.15 26.87C299.69 26.87 298.55 25.63 298.55 24.13ZM302.75 24.13C302.75 23.2 302.04 22.45 301.15 22.45C300.26 22.45 299.55 23.2 299.55 24.13C299.55 24.6 299.71 24.98 300.04 25.33C300.34 25.65 300.71 25.82 301.16 25.82C302.05 25.82 302.76 25.07 302.76 24.14L302.75 24.13Z" fill="#D08421"/>
</svg>
