<svg width="227" height="54" viewBox="0 0 227 54" fill="none" xmlns="http://www.w3.org/2000/svg">
<path d="M1.591 43H19.203V39.374H12.395C11.063 39.374 9.324 39.522 7.918 39.67C13.69 34.12 17.908 28.681 17.908 23.464C17.908 18.506 14.689 15.287 9.694 15.287C6.142 15.287 3.737 16.804 1.369 19.357L3.811 21.688C5.254 20.023 7.03 18.691 9.176 18.691C12.21 18.691 13.764 20.726 13.764 23.649C13.764 28.126 9.657 33.417 1.591 40.521V43ZM34.9766 43.518C40.3046 43.518 43.7826 38.745 43.7826 29.273C43.7826 19.875 40.3046 15.287 34.9766 15.287C29.6116 15.287 26.1706 19.875 26.1706 29.273C26.1706 38.745 29.6116 43.518 34.9766 43.518ZM34.9766 40.114C32.2016 40.114 30.2406 37.154 30.2406 29.273C30.2406 21.503 32.2016 18.617 34.9766 18.617C37.7516 18.617 39.6756 21.503 39.6756 29.273C39.6756 37.154 37.7516 40.114 34.9766 40.114ZM59.4081 43.518C64.7361 43.518 68.2141 38.745 68.2141 29.273C68.2141 19.875 64.7361 15.287 59.4081 15.287C54.0431 15.287 50.6021 19.875 50.6021 29.273C50.6021 38.745 54.0431 43.518 59.4081 43.518ZM59.4081 40.114C56.6331 40.114 54.6721 37.154 54.6721 29.273C54.6721 21.503 56.6331 18.617 59.4081 18.617C62.1831 18.617 64.1071 21.503 64.1071 29.273C64.1071 37.154 62.1831 40.114 59.4081 40.114ZM83.1737 43.518C88.2057 43.518 92.3127 40.632 92.3127 35.711C92.3127 32.011 89.8337 29.68 86.6887 28.866V28.681C89.5747 27.608 91.3877 25.425 91.3877 22.28C91.3877 17.803 87.9467 15.287 83.0627 15.287C79.9177 15.287 77.4017 16.619 75.2187 18.543L77.4757 21.244C79.0297 19.69 80.8057 18.691 82.8777 18.691C85.5047 18.691 87.0587 20.208 87.0587 22.613C87.0587 25.351 85.2827 27.349 79.9547 27.349V30.531C86.0597 30.531 87.9837 32.455 87.9837 35.489C87.9837 38.301 85.8747 40.003 82.8407 40.003C79.9917 40.003 77.9937 38.634 76.4027 37.006L74.2937 39.744C76.1437 41.816 78.9187 43.518 83.1737 43.518Z" fill="#D08421"/>
<path d="M118.29 24.638H122.07V28.067H118.29V24.638ZM116.724 23.288V29.417H123.69V23.288H116.724ZM116.967 32.549H118.803V36.734H116.967V32.549ZM115.806 31.199V38.084H119.991V31.199H115.806ZM121.962 32.603H123.879V36.734H121.962V32.603ZM120.801 31.253V38.084H125.094V31.253H120.801ZM127.875 22.64V24.53H135.705V22.64H127.875ZM128.064 18.293C127.497 22.397 126.39 26.366 124.635 28.85C125.067 29.12 125.904 29.633 126.282 29.93C128.064 27.23 129.252 23.072 129.954 18.59L128.064 18.293ZM135.219 22.64V23.018C134.868 25.151 134.247 27.878 133.653 29.498L135.219 30.011C135.921 28.229 136.623 25.394 137.136 22.964L135.813 22.559L135.543 22.64H135.219ZM131.412 29.606L129.738 29.93C130.683 36.086 132.141 39.812 135.516 43.133C135.786 42.566 136.326 41.945 136.812 41.567C133.68 38.651 132.303 35.303 131.412 29.606ZM129.657 26.123V27.986C129.657 31.766 129.306 37.328 124.986 41.648C125.391 41.972 126.039 42.674 126.336 43.16C131.061 38.408 131.52 32.225 131.52 28.013V26.123H129.657ZM112.08 19.724V21.479H125.283V19.724H112.08ZM112.998 19.859V37.679C112.998 40.703 114.051 41.702 116.886 41.702C117.48 41.702 121.827 41.702 122.799 41.702C123.987 41.702 125.148 41.675 125.607 41.54C125.499 41.108 125.391 40.271 125.337 39.758C124.77 39.893 123.663 39.974 122.88 39.974C121.881 39.974 117.723 39.974 116.805 39.974C115.347 39.974 114.834 39.407 114.834 37.787V19.859H112.998ZM148.179 31.739V33.278H156.927V31.739H148.179ZM148.773 24.935V30.173H156.873V24.908H155.469V28.742H150.123V24.935H148.773ZM152.067 23.585V29.336H153.552V23.585H152.067ZM149.394 34.412V36.68C149.394 38.165 149.151 40.055 147.477 41.567C147.882 41.756 148.611 42.242 148.908 42.539C150.663 40.892 151.068 38.543 151.068 36.707V34.412H149.394ZM146.829 27.986C145.722 30.281 143.481 33.089 141.294 34.817C141.618 35.168 142.185 35.843 142.455 36.248C144.831 34.304 147.207 31.307 148.665 28.607L146.829 27.986ZM146.127 23.639C145.182 25.286 143.292 27.203 141.537 28.418C141.888 28.742 142.455 29.363 142.725 29.741C144.615 28.391 146.667 26.231 147.936 24.26L146.127 23.639ZM144.723 32.36V43.214H146.586V30.686L146.478 30.632L144.723 32.36ZM159.357 27.5V29.201H166.08V27.5H159.357ZM159.384 23.666C158.925 27.338 158.142 30.902 156.63 33.197C157.035 33.548 157.656 34.25 157.899 34.601C159.6 32.009 160.599 28.094 161.166 23.936L159.384 23.666ZM163.407 28.229C162.732 34.871 160.707 39.353 156.063 41.891C156.468 42.215 157.116 42.89 157.359 43.214C162.111 40.298 164.325 35.627 165.189 28.391L163.407 28.229ZM159.843 28.85L158.358 29.12C159.357 35.438 161.328 40.568 165.243 43.079C165.513 42.566 166.107 41.891 166.512 41.513C162.759 39.434 160.761 34.601 159.843 28.85ZM153.66 41.729C153.93 41.405 154.497 41.054 158.088 39.164C157.98 38.84 157.899 38.246 157.872 37.814L154.065 39.623L153.525 40.298L153.66 41.729ZM153.66 41.729C153.66 41 155.631 39.677 155.631 39.677V34.385H153.984V38.192C153.984 39.326 153.282 39.893 152.877 40.163C153.147 40.514 153.525 41.27 153.66 41.729ZM141.861 20.075V21.749H153.039V20.075H141.861ZM147.585 18.347V23.315H149.502V18.347H147.585ZM158.547 18.347V23.315H160.464V18.347H158.547ZM154.578 20.075V21.749H165.81V20.075H154.578ZM183.9 25.88V39.542C183.9 42.134 184.656 42.809 187.329 42.809C187.923 42.809 191.757 42.809 192.378 42.809C194.862 42.809 195.429 41.594 195.726 37.544C195.132 37.409 194.322 37.085 193.863 36.707C193.701 40.19 193.512 40.892 192.243 40.892C191.406 40.892 188.166 40.892 187.518 40.892C186.168 40.892 185.898 40.676 185.898 39.569V25.88H183.9ZM177.933 25.61C176.313 29.039 173.64 32.333 170.805 34.439C171.291 34.736 172.128 35.465 172.479 35.843C175.26 33.548 178.095 29.984 179.931 26.231L177.933 25.61ZM177.96 18.32V25.529H179.958V18.32H177.96ZM186.816 18.32V25.664H188.814V18.32H186.816ZM175.692 30.74V43.16H177.663V28.769V28.742L175.692 30.74ZM171.453 21.047V22.964H182.82V21.047H171.453ZM183.846 21.047V22.964H195.186V21.047H183.846ZM184.899 30.47V32.387H195.132V30.47H184.899ZM204.744 26.366V27.662H220.701V26.366H204.744ZM206.337 23.396V24.692H219.297V23.396H206.337ZM211.737 21.911V27.149H213.627V21.911H211.737ZM211.467 31.982C209.82 33.278 206.742 34.304 204.069 34.952C204.393 35.249 204.933 35.87 205.122 36.14C207.822 35.384 211.062 34.061 212.898 32.495L211.467 31.982ZM219.324 33.305C218.406 34.007 216.786 35.006 215.598 35.627L216.678 36.329C217.893 35.816 219.432 35.006 220.647 34.142L219.324 33.305ZM208.2 29.768H217.326V31.658H208.2V29.768ZM206.472 28.688V32.738H219.108V28.688H206.472ZM201.504 19.508V43.187H203.421V21.371H222.078V43.187H224.076V19.508H201.504ZM202.692 40.19V42.026H223.185V40.19H202.692ZM212.088 34.061C214.653 35.546 217.839 37.733 219.378 39.137L220.755 38.219C219.054 36.815 215.841 34.682 213.357 33.278L212.088 34.061ZM207.552 39.92C207.957 39.65 208.659 39.434 213.681 38.03C213.627 37.733 213.627 37.139 213.654 36.734L208.227 38.057L207.471 38.678L207.552 39.92ZM207.552 39.92C207.552 39.353 209.604 38.543 209.604 38.543V33.953L208.038 33.926V37.193C208.038 38.165 207.363 38.489 206.985 38.651C207.174 38.948 207.444 39.542 207.552 39.92Z" fill="black"/>
</svg>
