<svg id="圖層_3" data-name="圖層 3" xmlns="http://www.w3.org/2000/svg" viewBox="0 0 1440 1309"><defs><style>.cls-1,.cls-2{fill:#f1c99e;}.cls-2{stroke:#a97a60;}.cls-2,.cls-3{stroke-miterlimit:10;}.cls-3{fill:none;stroke:#fff;stroke-width:0.72px;}.cls-4{fill:#3d3f3f;}</style></defs><path class="cls-1" d="M130.38,173.87a22.09,22.09,0,0,0,15.2,13.64,13.73,13.73,0,0,0-2.4,3.27c-7.29-2.43-12.15-7.22-15.23-14.06-1.9,5.32-6.12,10.53-15.2,14.1a12.32,12.32,0,0,0-2.32-3c9.27-3.57,13-8.86,14.44-13.95H111.54v-3.61h14a31.85,31.85,0,0,0,.19-3.68v-4.14H112.9v-3.65h29.83v3.65h-13.3v4.18c0,1.14,0,2.39-.15,3.64h15v3.61Z"/><path class="cls-1" d="M182.82,186.34v3.41H149.08v-3.41h15V177.6H153.3v-3.39h10.82v-7.59h-8.43a32.6,32.6,0,0,1-3.76,5.88,22.83,22.83,0,0,0-3.23-2.12c3.08-3.23,5.47-8.44,6.88-13.76l3.64.84c-.57,1.94-1.25,3.87-2,5.7h6.87v-7.07h3.65v7.07H181v3.46H167.77v7.59h11.82v3.39H167.77v8.74Z"/><path class="cls-1" d="M200.76,169.81s0,1,0,1.44c-.31,12.31-.61,16.53-1.52,17.82a3,3,0,0,1-2.32,1.37,27.74,27.74,0,0,1-3.68.07,7.08,7.08,0,0,0-.84-3.07c1.25.11,2.39.15,3,.15a1.1,1.1,0,0,0,1-.53c.61-.8.91-4.33,1.14-14.06H193.8c-.15,5.77-1.1,12.27-5.2,17.89a16.09,16.09,0,0,0-2.58-2c4.17-5.85,4.67-12.65,4.67-18V165.4h-3.84v-3.27h6.92a31.12,31.12,0,0,0-1.94-5.13l3.08-1a29,29,0,0,1,2.09,5.09l-3,1.06h7.57v3.27h-7.72v4.41Zm6-5.7a23.22,23.22,0,0,1-3.69,5.58,18.45,18.45,0,0,0-2.81-2.16c2.74-2.7,4.75-7,5.82-11.48l3.42.65c-.38,1.4-.84,2.85-1.3,4.18h12.5v3.23Zm14.1,9.57a56.41,56.41,0,0,1-5.48,4.68c1.3,3.95,3.2,7.14,5.89,9a11.67,11.67,0,0,0-2.43,2.89c-4.9-3.77-7.18-11.06-8.43-19.8l-3,.69v14.24l5.2-2.16a19.72,19.72,0,0,0,.46,3.19c-6.84,3.08-8,3.57-8.7,4.22a9.09,9.09,0,0,0-1.79-2.51,4.52,4.52,0,0,0,1.45-3.54V169a63,63,0,0,0,13.33-4.1l2.78,2.47a50.48,50.48,0,0,1-6.65,2.31,50.36,50.36,0,0,0,1,5.59,40.74,40.74,0,0,0,3.84-3.8Z"/><path class="cls-1" d="M243.7,156.17c0,1.44-.08,3.42-.27,5.66.53,4.75,2.85,19.91,16.11,25.8a10.24,10.24,0,0,0-2.58,3c-8.93-4.22-13.07-12.58-15.09-19.38-1.9,7.14-5.92,14.82-14.51,19.57a11,11,0,0,0-2.93-2.81c15.54-8.06,15.13-25.76,15.24-31.84Z"/><path class="cls-1" d="M274.33,182.69a77.56,77.56,0,0,0-3.35-7.41v15.65H267.9v-16c-.83,4.06-2.35,9-4.33,11.55a24.53,24.53,0,0,0-1.55-3.57,25.62,25.62,0,0,0,3.68-9.12l2.2.76V172h-5.28v-3.3h5.28V156.09H271v12.58h4.45V172H271v3.19l1.83-1.29c.72.95,3.3,5.21,3.87,6.23Zm-9.81-15.5a62.31,62.31,0,0,0-1.82-8.06l2.51-.57a58,58,0,0,1,2,7.94Zm32.79,1v2.66h-21.2v-2.66h8.66v-2.12h-7.25v-2.51h7.25V161.6H276.6v-1.94c-1.06,2.62-2.16,5.78-3.11,7.72l-2.24-.8a58.41,58.41,0,0,0,2.39-8l3,1V159h8.17v-2.93h3.42V159h8.7v2.58h-8.7v1.94h8v2.51h-8v2.12Zm-2,19.34c0,1.56-.34,2.4-1.45,2.85s-2.77.53-5.12.5a11.63,11.63,0,0,0-1-2.85c1.59.07,3.15.07,3.61,0s.64-.15.64-.57V185H280.86a12.77,12.77,0,0,1-2.74,6.34,11.78,11.78,0,0,0-2.46-2.28c2.24-2.73,2.46-6.46,2.46-9.42v-6.84H295.3ZM292,182.57v-2.35H281.32c0,.72,0,1.56-.12,2.35Zm-10.67-7.1v2.32H292v-2.32Z"/><path class="cls-1" d="M314,163.65a37,37,0,0,1-4.37,8.06c1.48,1.4,4.18,4.18,4.86,4.94l-2.05,3a53,53,0,0,0-3.34-4.29v15.57h-3.27V176.27a28.57,28.57,0,0,1-4.41,3.76,13.1,13.1,0,0,0-1.37-3.5,28.89,28.89,0,0,0,9.77-10.86h-8.89v-3.2h6.87a34.85,34.85,0,0,0-3.15-4.86l2.74-1.56a35.41,35.41,0,0,1,3.34,4.79l-2.62,1.63h3.49l.57-.15Zm20-1.9v20.06h-3.34v-1.44h-4.52v10.49h-3.46V180.37h-4.45v1.79H315V161.75h7.68V156h3.46v5.73Zm-15.77,3.16v4.56h4.45v-4.56Zm4.45,12.34v-4.67h-4.45v4.67Zm3.46-12.34v4.56h4.52v-4.56Zm4.52,12.34v-4.67h-4.52v4.67Z"/><path class="cls-1" d="M111.54,219.66c-.16-2.73-.69-7.41-1.3-11l2.55-.41c.68,3.57,1.29,8.13,1.48,10.75Zm8.73,11.74c-.6-1.21-1.82-3.11-2.88-4.78a23.32,23.32,0,0,1-4.72,10.06,10.73,10.73,0,0,0-2.27-2.43c4.4-5.47,4.9-12.5,4.9-19.22v-13h3v12.46a59,59,0,0,0,2-6.61l3,1-.07.19h5.35V206h-7v-3h23.41v3h-7.34v3.12H144v12.42H122.74v-11.2c-1,2.35-2,4.94-3,6.61l-1.44-.61c0,2.16-.12,4.37-.35,6.5,1.11,1.36,3.88,5.24,4.56,6.19Zm25,1v3.19H120.77v-3.19h10.64v-4.37h-8.63V225h8.63v-2.66h3.49V225h9v3.08h-9v4.37Zm-4.48-13.68v-1.59H137.6c-2.43,0-3-.88-3-3.5v-1.79h-2.89v.19c0,1.9-.68,4.41-4.29,5.89a7.84,7.84,0,0,0-1.64-1.74v2.54Zm-15.05-6.88v4.22c2.93-1.1,3.38-2.81,3.38-4.06v-.16Zm5.93-2.77h2.89V206h-2.89Zm9.12,2.77H137v1.83c0,1,.08,1.18.61,1.18h3.27Z"/><path class="cls-1" d="M155,218.71a42.28,42.28,0,0,0-6.72-4l2-2.62a47,47,0,0,1,6.81,3.69Zm3,5.28c-1.67,4-3.83,8.51-5.77,12.09L149.19,234a113,113,0,0,0,6.2-12.08ZM157,208.76a44.61,44.61,0,0,0-6.53-4.22l2-2.54a45.25,45.25,0,0,1,6.61,3.91Zm23.75,8.32a29.16,29.16,0,0,1-6.12,12,24.47,24.47,0,0,0,8.89,4.4,13,13,0,0,0-2.32,3,27,27,0,0,1-9-5,27.21,27.21,0,0,1-8.62,5.09,14.39,14.39,0,0,0-2.24-3,25.78,25.78,0,0,0,8.47-4.52,30.79,30.79,0,0,1-5.7-9.76h-.38c-.23,5.58-1.22,12.42-4.71,17.13a11.72,11.72,0,0,0-3-1.74c4-5.28,4.37-12.81,4.37-18.28V206.9h8.92v-5.25h3.46v5.25h7.37l.61-.12,2.55.65a52.11,52.11,0,0,1-3.16,7.79l-3-.88c.49-1.1,1.07-2.62,1.6-4.14h-6v6h5.13l.68-.15Zm-17-6.88v6h5.54v-6Zm3.68,9.16a24.81,24.81,0,0,0,4.71,7.41,22.24,22.24,0,0,0,4.34-7.41Z"/><path class="cls-1" d="M206.68,215.83c2.59,7.9,7.38,14.32,14.56,17.32a13.76,13.76,0,0,0-2.63,3.31c-7.1-3.31-11.7-9.46-14.66-17.52a26.29,26.29,0,0,1-14.67,17.52,12.48,12.48,0,0,0-2.69-3c9-4,12.72-10.79,14.24-17.66H187.35v-3.65h14.13a94.91,94.91,0,0,0,.46-10.49h3.83a95.31,95.31,0,0,1-.53,10.49h15.31v3.65Z"/><path class="cls-1" d="M229.75,209.63a28.59,28.59,0,0,1-3.84,3.16,22.44,22.44,0,0,0-1.51-3.31,22.48,22.48,0,0,0,7.78-8.13l3,1.1c-.23.42-.5.88-.8,1.33a51.47,51.47,0,0,1,5.93,3.95l-1.68,2.55a66.53,66.53,0,0,0-5.85-4.14,30.81,30.81,0,0,1-2.31,2.77h5.81v2.36h-6.5Zm28.38,3.12a40.92,40.92,0,0,1-5,15.42,18.13,18.13,0,0,0,6.46,5.51,12.39,12.39,0,0,0-2.32,2.78,21.3,21.3,0,0,1-6.12-5.4,22.45,22.45,0,0,1-6.46,5.62,12.19,12.19,0,0,0-2.05-2.58,19.83,19.83,0,0,0,6.61-5.93A42.74,42.74,0,0,1,245,217c0,5.82-.5,14.14-3.57,19.61a12.45,12.45,0,0,0-2.7-1.71l.26-.46-2.31.92a28.65,28.65,0,0,0-.88-2.82c-7.52,2.85-8.7,3.42-9.42,4a11.12,11.12,0,0,0-1.18-2.92,2.34,2.34,0,0,0,1.56-2.28v-18.2H238.6v13h-8.77v5.63l5-1.79c-.3-.84-.61-1.6-.91-2.36l2.55-.83a66,66,0,0,1,2.77,7c2.35-5,2.54-11.86,2.54-16.91v-13h16V207H245v5.24h10.48l.57-.15Zm-28.3,3v2.39h5.93v-2.39Zm5.93,7.79v-2.85h-5.93v2.85Zm11.89-8.17a37.59,37.59,0,0,0,3.53,9.69,36.29,36.29,0,0,0,3.27-9.69Z"/><path class="cls-1" d="M296.74,206.1v3.34H269.23v6.35c0,6-.57,15-4,20.78a14.14,14.14,0,0,0-3.12-2c3.23-5.43,3.5-13.26,3.5-18.77V206.1H280.1a22.18,22.18,0,0,0-1.71-3.61l3.5-.8a20.63,20.63,0,0,1,2.2,4.41Zm-13,8.62h11.93V218H283.75v4.37h10.14V236h-3.61v-1.41H275.5v1.49h-3.45V222.32h8.05V210.66h3.65Zm6.53,10.87H275.5v5.85h14.78Z"/><path class="cls-1" d="M334.21,207.54s0,1.22,0,1.67c-.53,17.14-1,23-2.51,24.93a4.24,4.24,0,0,1-3.3,1.78,38.8,38.8,0,0,1-5.74,0,8.14,8.14,0,0,0-1.14-3.42c2.43.19,4.64.23,5.59.23a1.69,1.69,0,0,0,1.59-.64c1.22-1.26,1.71-7,2.21-21.32h-9a37.87,37.87,0,0,1-3.46,6.39,18,18,0,0,0-2.77-2v17.44h-10.3v2.89h-3.23V207.73h4.26a45.06,45.06,0,0,0,1.33-6.15l3.84.64c-.65,1.9-1.37,3.92-2,5.51h6.08v7.18c2.51-3.26,4.52-8.32,5.66-13.33l3.42.8c-.46,1.74-.95,3.49-1.56,5.16Zm-28.84,3.27V218h7.07v-7.22Zm7.07,18.69v-8.39h-7.07v8.39Zm12.65-3a61.13,61.13,0,0,0-5.55-8.78l2.78-1.55a68.68,68.68,0,0,1,5.74,8.47Z"/><path class="cls-1" d="M340,219.89h13.75v16.38h-3.49v-1.71h-6.92v2H340Zm3.34,3.38v7.9h6.92v-7.9Zm23.25-7.06H345.39v-13h21.23Zm-3.6-9.58H348.77v6.19H363Zm8.92,13.26v16.45h-3.53v-1.78h-7.52v2h-3.38V219.89Zm-3.53,11.28v-7.9h-7.52v7.9Z"/><path class="cls-1" d="M380.88,227.22v3h-3.23V205h10.52v22.18Zm0-18.77V223.8h4.06V208.45ZM402.76,220c2.05,4.56,5.36,9,8.78,11.4a15.28,15.28,0,0,0-2.66,2.89,34.34,34.34,0,0,1-7.26-9.84v12h-3.57V224.37a28.15,28.15,0,0,1-8.89,9.92,13.48,13.48,0,0,0-2.39-2.74c4.14-2.27,7.94-6.8,10.18-11.55h-7.6v-3.38h8.7V211h-7.33v-3.38h7.33v-5.7h3.57v5.7h8.06V211h-8.06v5.62h9.43V220Z"/><path class="cls-1" d="M434,216.21v11a22.79,22.79,0,0,0,8.55-9.31l3.46,1.63c-5.28,10-14.94,14.78-29.3,16.91a12.46,12.46,0,0,0-1.78-3.35c7.29-.95,13.37-2.58,18.12-5.31h-2.81V216.21H415.19v-3.35h5.44v-8.47h3.57v8.47h6.42V201.69h3.76v3.57h11v3.35h-11v4.25h14.1v3.35Zm-6.95,2.58a36.79,36.79,0,0,1-8.36,9.19,22.26,22.26,0,0,0-2.66-2.66,25,25,0,0,0,7.6-7.75Z"/><path class="cls-1" d="M485.18,227.49a13.81,13.81,0,0,1-4.9,5.17,43.4,43.4,0,0,0,6.61,1.33,9.56,9.56,0,0,0-1.71,2.5,35.58,35.58,0,0,1-8.09-2.16,37.12,37.12,0,0,1-8.51,2.24,9,9,0,0,0-1.37-2.43,35.84,35.84,0,0,0,6.69-1.37,23.28,23.28,0,0,1-3-2.05,25.69,25.69,0,0,1-2.7,1.67,22.92,22.92,0,0,0-2.2-1.94,22.36,22.36,0,0,0,3-1.63,18.59,18.59,0,0,1-1.52-2l2.47-.73a7.73,7.73,0,0,0,1.06,1.33,17.47,17.47,0,0,0,2.09-2h-3.42V219c-.46.49-.91,1-1.33,1.33-.15-.31-.45-.88-.8-1.45a26.08,26.08,0,0,1-2.54,3.42v14.25h-3.12V225.36a19.19,19.19,0,0,1-1.9,1.48,16.14,16.14,0,0,0-1.4-2.73,34.76,34.76,0,0,1-3.42,12.38,13.25,13.25,0,0,0-3.19-1.74c3.3-5.93,3.6-14.48,3.6-20.56V203h29.15v8.24H459.16v3a89.09,89.09,0,0,1-.5,9.58,21.3,21.3,0,0,0,6.58-6.58l1.71.61-.23-.26a17.45,17.45,0,0,0,4.86-6.31l2.74,1c-.19.38-.42.83-.65,1.25h12.16v2.32H472.3c-.34.53-.72,1-1.06,1.48H484.5v8.17h-8.59l.5.15c-.31.42-.65.8-1,1.22h7.33l.57-.08Zm-26-21.77v2.7h22.07v-2.7Zm8.32,6.76a23.75,23.75,0,0,1-6,6,18.83,18.83,0,0,0-2-2.24,18.16,18.16,0,0,0,5.25-4.63Zm5.13,7.94h8.89V218.9h-8.89Zm0,3.27h8.89v-1.63h-8.89Zm.38,5.47a21.47,21.47,0,0,0,4.14,2.36,13.68,13.68,0,0,0,3.76-2.66h-7.56Z"/><line class="cls-2" x1="108.06" y1="266.42" x2="438.16" y2="266.42"/><path class="cls-3" d="M1331.32,291.71a40,40,0,0,1-5.28-.4c-.82-.12-1.51-.25-2-.38s-1.26-.33-1.26-1,.82-.93,1.22-1.06a24.76,24.76,0,0,1,3.1-.66c2.51-.41,2.68-1.62,2.79-2.5,0-.49.19-9.14.19-11.79v0c0-.6,0-1.12-1.92-2.78-3-2.62-4.61-7.28-4.7-13.86a56.88,56.88,0,0,1,1.18-11.69,1.55,1.55,0,0,1,1.46-1.21l2.29-.25a29.25,29.25,0,0,1,6.48,0l2.29.25a1.55,1.55,0,0,1,1.46,1.21,55.44,55.44,0,0,1,1.18,11.69c-.09,6.58-1.67,11.24-4.69,13.86-1.93,1.66-1.93,2.18-1.92,2.78v0c0,2.66.15,11.3.18,11.79.12.88.29,2.09,2.79,2.5a25,25,0,0,1,3.11.66c.39.13,1.21.38,1.21,1.06s-.8.87-1.28,1-1.21.24-2.06.36a51.68,51.68,0,0,1-5.5.42Z"/><path class="cls-3" d="M1314.09,232.12a5.4,5.4,0,0,0-10.65,1.23v47.26h2V233.35a3.36,3.36,0,0,1,6.63-.79,1,1,0,0,0,1,.79h0A1,1,0,0,0,1314.09,232.12Z"/><path class="cls-3" d="M1295.2,291.57a10.22,10.22,0,0,0,10.23-10.22H1285A10.22,10.22,0,0,0,1295.2,291.57Z"/><path class="cls-3" d="M1272.19,290.14c0,.15-.2.62-.52.62a3.86,3.86,0,0,1-3.26-3.69l.56-19.48a5.85,5.85,0,0,1-2.13-4.28c.07-2.3.17-14.56.39-19.75.14-3.52,3.58-4.23,5.13-4.37Z"/><path class="cls-3" d="M1246.1,255.21l-.34.16-.06.37c-2.55,15.75,3.18,29.61-1.07,34.76a.67.67,0,0,1-.56.26h0a1,1,0,0,1-.83-.34c-4.24-4.93,2-21.64-.63-34.76l-.06-.34-.31-.16c-2.25-1.11-3.2-4.71-3.19-8.75,0-4.9,2.41-9,5.23-9,1.32,0,2.58.91,3.56,2.54a12.87,12.87,0,0,1,1.6,6.55c0,4.12-1,7.72-3.34,8.76Z"/><rect class="cls-3" x="1098.5" y="288.7" width="58.59" height="2.06" rx="1.02"/><path class="cls-3" d="M1154.24,287.44a26.18,26.18,0,0,0-26.19-26.18h-.52a26.18,26.18,0,0,0-26.19,26.18V288h52.9Z"/><path class="cls-3" d="M1125.73,258.33v2.34h4.12v-2.34c1-.4,1.67-1.09,1.67-1.88v-.13c0-1.24-1.65-2.24-3.69-2.24h-.08c-2,0-3.69,1-3.69,2.24v.13C1124.06,257.24,1124.72,257.93,1125.73,258.33Z"/><path class="cls-3" d="M1219.8,250.74l.06-10.37a.84.84,0,0,0-.85-.85h-.21a.85.85,0,0,0-.84.84l-.07,10.38-2.55,0,.48-10.34a.86.86,0,0,0-.85-.89h0a.86.86,0,0,0-.84.77l-1,10.44s0,2,0,2.16a5.6,5.6,0,0,0,2,4.52c4.35,4.92,1.33,10,1.32,11.19s-.48,19.52-.48,19.52h0s0,0,0,.05a2.68,2.68,0,0,0,2.73,2.58,2.78,2.78,0,0,0,2.78-2.61s0,0,0-.06-.2-17.92-.19-19.46c0-1.39-2.48-7.18,1.77-11.53l0,0a5.8,5.8,0,0,0,1.69-3.85v-1.9l-.86-11a.84.84,0,0,0-.85-.79h-.13a.85.85,0,0,0-.85.88l.3,10.26Zm4-11.25"/><path class="cls-3" d="M1173.68,227.25h-11a3.91,3.91,0,0,0-3.86,4.51l1.69,12.58a5.83,5.83,0,0,0,5.76,4.91h0l-1.69,37.85a3.51,3.51,0,0,0,3.51,3.66h.07a3.5,3.5,0,0,0,3.5-3.66L1170,249.25h0a5.82,5.82,0,0,0,5.75-4.91l1.69-12.58A3.9,3.9,0,0,0,1173.68,227.25Zm-8.53,14.91a.93.93,0,1,1-1.85,0V231a.93.93,0,1,1,1.85,0Zm2.11-11.12a.93.93,0,1,1,1.85,0v11.12a.93.93,0,1,1-1.85,0Zm.92,56.9a1,1,0,1,1,1-1A1,1,0,0,1,1168.18,287.94Zm4.88-45.78a.93.93,0,1,1-1.85,0V231a.93.93,0,1,1,1.85,0Z"/><path class="cls-3" d="M1201.75,243.24c0-9-3-13.07-7-13.76,1.84,1.9,2.27,8.19,2.27,13.62a121.05,121.05,0,0,1-.89,14.54,37.92,37.92,0,0,1-1,5.22,8.76,8.76,0,0,1-.35,1h-1c.39-.76,1-2.7,1.47-6.77a120.27,120.27,0,0,0,.83-14c0-12.88-2.3-13.25-2.56-13.25s-2.57.37-2.57,13.25a120.27,120.27,0,0,0,.83,14c.51,4.07,1.08,6,1.47,6.77h-1c-.12-.29-.23-.63-.35-1a38.16,38.16,0,0,1-1-5.22,119,119,0,0,1-.9-14.54c0-5.43.43-11.72,2.27-13.62-4,.69-7,4.8-7,13.76,0,7.48,2.67,16.19,5.67,20l-.5,24.48a3,3,0,0,0,3,3.07h.06a3,3,0,0,0,3-3.07l-.49-24.48C1199.08,259.43,1201.75,250.72,1201.75,243.24Zm-8.17,45.25a1,1,0,1,1,1-1A1,1,0,0,1,1193.58,288.49Z"/><polygon class="cls-3" points="1364.76 242.64 1356.48 242.64 1349.71 246.83 1371.54 246.83 1364.76 242.64"/><path class="cls-3" d="M1361.48,242.61l.38-2.94a.68.68,0,0,0-.67-.74h-1.13a.68.68,0,0,0-.67.74l.38,2.94Z"/><path class="cls-3" d="M1376.65,251.8a4,4,0,0,0-1.77-2.53l-.05,0a4,4,0,0,0-3-.54l-.17,0,.25-1.18h-6.31l-1.34,16.9h-1.07l1.34-16.9h-7.73l1.34,16.9H1357l-1.34-16.9h-11.15l5.8,4.47,2.67,12.44a.29.29,0,0,0-.25.3V266a.3.3,0,0,0,.31.3h0l-3.69,24.64h6.3l1.37-24.64h1.07l-1.37,24.64h7.74l-1.36-24.64h1.07l1.37,24.64h6.3l-3.69-24.66a.29.29,0,0,0,.2-.28v-1.2a.32.32,0,0,0-.15-.27l.72-3.35a4.12,4.12,0,0,0,.86.09,4.28,4.28,0,0,0,.87-.09,4,4,0,0,0,2.53-1.77l2.9-4.54A4,4,0,0,0,1376.65,251.8Zm-1.83,2.21-2.9,4.54a2.51,2.51,0,0,1-2.65,1.09l2-9.06a2.53,2.53,0,0,1,2.78-.06l.06,0a2.51,2.51,0,0,1,.76,3.45Z"/><path class="cls-4" d="M837,474.3l1.83-1.09q1.93,3.56,4.47,3.56a4.29,4.29,0,0,0,2-.51,3.71,3.71,0,0,0,1.45-1.35,3.54,3.54,0,0,0,.49-1.81,3.62,3.62,0,0,0-.73-2.12,17.35,17.35,0,0,0-3.69-3.46,18.64,18.64,0,0,1-3.35-2.94,5.36,5.36,0,0,1-1.15-3.3,5,5,0,0,1,.68-2.56,4.89,4.89,0,0,1,1.89-1.83,5.55,5.55,0,0,1,2.66-.66,5.67,5.67,0,0,1,2.85.75,9.83,9.83,0,0,1,2.81,2.78l-1.76,1.33a8.45,8.45,0,0,0-2.07-2.12,3.63,3.63,0,0,0-1.87-.51,2.94,2.94,0,0,0-2.13.79,2.57,2.57,0,0,0-.83,1.94,3.44,3.44,0,0,0,.29,1.37A5.09,5.09,0,0,0,842,464c.29.28,1.21,1,2.79,2.16a15.59,15.59,0,0,1,3.83,3.67,5.9,5.9,0,0,1,1,3.24,5.48,5.48,0,0,1-1.78,4.07,6,6,0,0,1-4.33,1.73,6.32,6.32,0,0,1-3.55-1.05A9.42,9.42,0,0,1,837,474.3Z"/><path class="cls-4" d="M854.19,456.77h12.35v2.11H856.35v6.75h10.1v2.11h-10.1v8.47h10.1v2.11H854.19Z"/><path class="cls-4" d="M870.38,456.77h4.29a26.72,26.72,0,0,1,4.87.29,5.67,5.67,0,0,1,3.12,1.89,5.38,5.38,0,0,1,1.2,3.56,5.76,5.76,0,0,1-.83,3.09,5.18,5.18,0,0,1-2.37,2,11,11,0,0,1-4.25.69l7.75,10H881.5l-7.75-10h-1.22v10h-2.15Zm2.15,2.11v7.32l3.72,0a9.1,9.1,0,0,0,3.19-.41,3.31,3.31,0,0,0,1.61-1.31,3.61,3.61,0,0,0,.58-2,3.51,3.51,0,0,0-.59-2,3.23,3.23,0,0,0-1.54-1.27,9.44,9.44,0,0,0-3.17-.38Z"/><path class="cls-4" d="M886.83,456.77h2.34l7.14,16.65,7.26-16.65h2.35l-9.38,21.55h-.47Z"/><path class="cls-4" d="M909.23,456.77h2.15v21.55h-2.15Z"/><path class="cls-4" d="M936.39,460.77l-1.7,1.3a9.34,9.34,0,0,0-3.38-2.77,9.88,9.88,0,0,0-4.33-.95,9.59,9.59,0,0,0-4.77,1.24,8.88,8.88,0,0,0-3.41,3.33,9.13,9.13,0,0,0-1.21,4.69,8.82,8.82,0,0,0,2.7,6.58,9.38,9.38,0,0,0,6.82,2.63,9.6,9.6,0,0,0,7.58-3.54l1.7,1.29a10.91,10.91,0,0,1-4,3.17,12.54,12.54,0,0,1-5.38,1.12,11.19,11.19,0,0,1-8.92-3.76,11.35,11.35,0,0,1-2.74-7.68,10.68,10.68,0,0,1,3.32-8,11.4,11.4,0,0,1,8.31-3.23,12.28,12.28,0,0,1,5.45,1.19A10.64,10.64,0,0,1,936.39,460.77Z"/><path class="cls-4" d="M940.72,456.77h12.35v2.11H942.88v6.75H953v2.11h-10.1v8.47H953v2.11H940.72Z"/><path class="cls-4" d="M368.47,710.49h12.35v2.11H370.63v6.75h10.1v2.11h-10.1v8.47h10.1V732H368.47Z"/><path class="cls-4" d="M383.41,710.49h2.52l5.16,8.39,5.18-8.39h2.49l-6.43,10.41L399.18,732h-2.51l-5.6-9.09L385.46,732h-2.52l6.88-11.12Z"/><path class="cls-4" d="M402.8,710.49h4.29a25.15,25.15,0,0,1,5,.32,5.62,5.62,0,0,1,3,1.87,6,6,0,0,1,0,7.1,5.63,5.63,0,0,1-3.14,1.89,28.32,28.32,0,0,1-5.48.35H405v10H402.8ZM405,712.6v7.31l3.65,0a9.46,9.46,0,0,0,3.23-.4,3.29,3.29,0,0,0,1.61-1.3,3.54,3.54,0,0,0,.59-2,3.49,3.49,0,0,0-.59-2A3.2,3.2,0,0,0,411.9,713a9.4,9.4,0,0,0-3.14-.38Z"/><path class="cls-4" d="M420.56,710.49h2.16V730H431V732H420.56Z"/><path class="cls-4" d="M444.68,710a11.21,11.21,0,0,1,8.2,3.26,11.38,11.38,0,0,1-16.11,16.09,10.8,10.8,0,0,1-3.3-7.94,11.51,11.51,0,0,1,1.5-5.76,11.11,11.11,0,0,1,9.71-5.65Zm.1,2.09a9.19,9.19,0,0,0-7.88,4.61,9.31,9.31,0,0,0-1.2,4.7,9.07,9.07,0,0,0,9.08,9.14,9.22,9.22,0,0,0,4.64-1.22,8.73,8.73,0,0,0,3.33-3.33,9.33,9.33,0,0,0,1.2-4.69,9.09,9.09,0,0,0-1.2-4.64,9,9,0,0,0-3.37-3.32A9.09,9.09,0,0,0,444.78,712Z"/><path class="cls-4" d="M460.61,710.49h4.29a26.64,26.64,0,0,1,4.87.29,5.61,5.61,0,0,1,3.12,1.89,5.38,5.38,0,0,1,1.2,3.56,5.76,5.76,0,0,1-.83,3.09,5.2,5.2,0,0,1-2.36,2,11,11,0,0,1-4.25.69l7.75,10h-2.67L464,722h-1.21v10h-2.16Zm2.16,2.11v7.32l3.71,0a9.06,9.06,0,0,0,3.19-.41,3.26,3.26,0,0,0,1.61-1.31,3.61,3.61,0,0,0,.58-2,3.5,3.5,0,0,0-.58-2,3.33,3.33,0,0,0-1.54-1.27,9.52,9.52,0,0,0-3.17-.38Z"/><path class="cls-4" d="M478.72,710.49h12.35v2.11h-10.2v6.75H491v2.11H480.87v8.47H491V732H478.72Z"/><path class="cls-4" d="M1158.65,1016l1.83-1.1c1.29,2.38,2.78,3.56,4.47,3.56a4.39,4.39,0,0,0,2-.5,3.67,3.67,0,0,0,1.45-1.36,3.48,3.48,0,0,0,.49-1.8,3.62,3.62,0,0,0-.73-2.12,17.35,17.35,0,0,0-3.69-3.46,18.67,18.67,0,0,1-3.35-2.94,5.36,5.36,0,0,1-1.15-3.3,5,5,0,0,1,.68-2.56,4.82,4.82,0,0,1,1.89-1.83,5.55,5.55,0,0,1,2.66-.66,5.67,5.67,0,0,1,2.85.75,9.7,9.7,0,0,1,2.81,2.78l-1.76,1.33a8.28,8.28,0,0,0-2.07-2.12,3.54,3.54,0,0,0-1.87-.52,3,3,0,0,0-2.13.79,2.61,2.61,0,0,0-.83,1.95,3.39,3.39,0,0,0,.29,1.36,5.11,5.11,0,0,0,1.07,1.44c.28.27,1.21,1,2.78,2.15a15.67,15.67,0,0,1,3.84,3.68,5.85,5.85,0,0,1,1,3.24,5.48,5.48,0,0,1-1.78,4.07,6,6,0,0,1-4.33,1.73,6.37,6.37,0,0,1-3.56-1.05A9.66,9.66,0,0,1,1158.65,1016Z"/><path class="cls-4" d="M1175.83,998.51h12.35v2.11H1178v6.75h10.1v2.11H1178V1018h10.1v2.11h-12.26Z"/><path class="cls-4" d="M1191.92,1020.06V998.51h.47l14.34,16.52V998.51h2.12v21.55h-.48l-14.23-16.32v16.32Z"/><path class="cls-4" d="M1211.87,1016l1.83-1.1c1.29,2.38,2.78,3.56,4.47,3.56a4.32,4.32,0,0,0,2-.5,3.54,3.54,0,0,0,1.45-1.36,3.4,3.4,0,0,0,.5-1.8,3.62,3.62,0,0,0-.73-2.12,17.6,17.6,0,0,0-3.69-3.46,19.26,19.26,0,0,1-3.36-2.94,5.42,5.42,0,0,1-1.14-3.3,5.07,5.07,0,0,1,.67-2.56,4.85,4.85,0,0,1,1.9-1.83,5.52,5.52,0,0,1,2.66-.66,5.67,5.67,0,0,1,2.85.75,9.69,9.69,0,0,1,2.8,2.78l-1.75,1.33a8.28,8.28,0,0,0-2.08-2.12,3.48,3.48,0,0,0-1.86-.52,3,3,0,0,0-2.14.79,2.6,2.6,0,0,0-.82,1.95,3.23,3.23,0,0,0,.29,1.36,5.11,5.11,0,0,0,1.07,1.44c.28.27,1.21,1,2.78,2.15a15.67,15.67,0,0,1,3.84,3.68,5.94,5.94,0,0,1,1,3.24,5.48,5.48,0,0,1-1.78,4.07,6,6,0,0,1-4.33,1.73,6.35,6.35,0,0,1-3.56-1.05A9.66,9.66,0,0,1,1211.87,1016Z"/><path class="cls-4" d="M1229.05,998.51h12.35v2.11h-10.2v6.75h10.11v2.11H1231.2V1018h10.11v2.11h-12.26Z"/></svg>