<svg width="291" height="141" viewBox="0 0 291 141" fill="none" xmlns="http://www.w3.org/2000/svg">
<path d="M290.271 0.560547V140.501" stroke="#211815" stroke-width="0.75" stroke-miterlimit="10"/>
<path d="M1.3623 0.560547V140.501" stroke="#211815" stroke-width="0.75" stroke-miterlimit="10"/>
<path d="M217.381 58.9012C217.381 46.7785 207.554 36.9512 195.431 36.9512C183.309 36.9512 173.481 46.7785 173.481 58.9012C173.481 71.0238 183.309 80.8512 195.431 80.8512C207.554 80.8512 217.381 71.0238 217.381 58.9012Z" stroke="black" stroke-width="0.75" stroke-miterlimit="10"/>
<path d="M80.7372 78.8506V73.0886C86.2412 66.8106 91.5732 60.5326 95.7872 55.6306C105.075 44.8806 108.945 38.9466 108.945 30.6906C108.945 22.0046 104.645 17.1026 97.3352 17.1026C94.4972 17.1026 91.5732 17.7906 88.3912 19.5966L92.1752 17.2746L90.1112 26.0466C89.2512 30.3466 87.2732 31.5506 85.0372 31.5506C83.0592 31.5506 81.4252 30.3466 80.7372 28.4546C81.7692 19.1666 90.7132 14.3506 100.431 14.3506C112.815 14.3506 118.835 20.8866 118.835 31.1206C118.835 39.5486 112.557 45.9986 98.3672 59.0706C95.5292 61.7366 90.1972 67.1546 84.8652 72.5726L85.7252 69.6486V71.1106H121.071V78.8506H80.7372ZM138.194 78.8506L137.506 78.1626L165.8 20.4566L164.768 24.9286V23.4666H130.196V15.6406H168.896V20.6286L146.45 78.8506H138.194Z" fill="black"/>
<path d="M116.294 93.611C116.294 93.611 119.132 95.89 120.895 97.524C120.766 97.997 120.293 98.212 119.691 98.212H100.599L100.255 96.965H113.8L116.294 93.611ZM112.639 127.022C112.639 129.903 111.908 132.053 106.748 132.483C106.662 131.15 106.361 130.118 105.673 129.516C104.899 128.828 103.824 128.355 101.459 128.011V127.409C101.459 127.409 106.533 127.753 107.522 127.753C108.339 127.753 108.597 127.452 108.597 126.85V97.309H112.639V127.022ZM87.2256 92.923C97.4166 94.342 93.8046 102.125 89.8916 99.373C89.6766 97.18 88.2146 94.643 86.8386 93.181L87.2256 92.923ZM96.0836 127.022V128.269H85.9356V127.022H96.0836ZM93.9336 117.562L95.8256 115.455L99.9106 118.594C99.6096 118.895 99.0076 119.239 98.1476 119.411V129.43C98.1046 129.731 96.2556 130.548 94.9656 130.548H94.3636V117.562H93.9336ZM87.4836 130.806C87.4836 131.193 85.8496 132.01 84.3016 132.01H83.7426V115.885L87.6556 117.562H95.8686V118.809H87.4836V130.806ZM97.8036 97.868C97.8036 97.868 100.341 99.846 101.846 101.265C101.76 101.738 101.287 101.953 100.728 101.953H81.0336L80.6896 100.706H95.5676L97.8036 97.868ZM95.6106 109.048C95.6106 109.048 98.0186 110.94 99.5236 112.316C99.3946 112.789 98.9646 113.004 98.3626 113.004H83.6566L83.3126 111.757H93.5036L95.6106 109.048ZM95.6106 103.501C95.6106 103.501 98.0186 105.393 99.5236 106.769C99.3946 107.242 98.9646 107.457 98.3626 107.457H83.6566L83.3126 106.21H93.5036L95.6106 103.501ZM140.417 120.615V123.668H136.418V121.948L140.417 120.615ZM135.085 128.527C137.407 128.14 142.696 126.936 148.071 125.646L148.2 126.205C146.007 127.495 141.793 129.86 137.02 132.139L135.085 128.527ZM139.428 122.378L140.417 122.98V128.398L136.676 129.817L138.138 128.441C138.826 130.849 137.708 132.268 136.805 132.741L134.569 128.656C136.16 127.71 136.418 127.323 136.418 126.635V122.378H139.428ZM161.788 120.83C161.53 121.26 161.143 121.432 160.24 121.26C157.961 122.421 153.876 123.625 150.608 124.227L150.135 123.668C152.629 122.249 155.682 119.841 157.144 118.25L161.788 120.83ZM145.835 116.917C148.845 123.84 156.241 126.85 164.884 128.14L164.841 128.57C163.164 129 162.046 130.333 161.573 132.354C153.274 129.903 147.813 125.818 145.19 117.261L145.835 116.917ZM146.867 117.605C142.309 122.335 134.483 125.388 125.496 127.022L125.195 126.377C132.075 124.27 138.009 120.787 141.492 116.917H146.867V117.605ZM142.094 113.219C149.834 112.015 148.286 118.551 144.803 117.089C144.373 115.756 142.997 114.251 141.75 113.563L142.094 113.219ZM160.154 113.735C160.154 113.735 162.82 115.713 164.497 117.175C164.411 117.648 163.938 117.863 163.336 117.863H126.055L125.711 116.616H157.832L160.154 113.735ZM143.943 105.393L145.577 103.458L149.619 106.468C149.361 106.769 148.673 107.156 147.813 107.285V109.177C147.813 111.198 147.34 112.273 143.814 112.574C143.771 111.886 143.685 111.284 143.384 110.94C143.04 110.639 142.567 110.338 141.449 110.123V109.521C141.449 109.521 143.083 109.65 143.728 109.65C144.244 109.65 144.373 109.392 144.373 108.962V105.393H143.943ZM134.956 94.299C134.784 94.815 134.311 95.202 133.365 95.159C132.118 97.696 130.355 99.932 128.42 101.351L127.775 100.964C128.807 98.943 129.667 95.847 130.054 92.88L134.956 94.299ZM144.545 94.428C144.545 94.428 146.781 96.148 148.243 97.524C148.114 97.997 147.727 98.212 147.125 98.212H129.796L130.269 96.965H142.481L144.545 94.428ZM132.333 112.101C132.333 112.402 130.785 113.133 129.409 113.133H128.936V103.888L132.548 105.393H146.652V106.64H132.333V112.101ZM163.293 93.611C163.207 94.213 162.777 94.557 161.788 94.686V109.951C161.788 112.617 161.229 114.036 156.8 114.423C156.671 113.391 156.542 112.574 155.983 112.058C155.467 111.585 154.607 111.198 152.887 110.897V110.338C152.887 110.338 156.456 110.553 157.187 110.553C157.832 110.553 158.004 110.381 158.004 109.865V93.095L163.293 93.611ZM146.394 98.728C146.394 98.728 148.716 100.534 150.178 101.867C150.049 102.34 149.619 102.555 149.017 102.555H126.657L126.313 101.308H144.33L146.394 98.728ZM141.449 93.224C141.363 93.783 141.019 94.17 139.944 94.299V113.993C139.944 114.38 138.396 115.111 137.02 115.111H136.332V92.708L141.449 93.224ZM156.112 94.686C156.026 95.245 155.682 95.632 154.607 95.804V107.93C154.607 108.231 153.059 108.876 151.726 108.876H151.081V94.17L156.112 94.686ZM202.122 112.66C202.122 112.66 205.132 114.982 206.981 116.659C206.895 117.132 206.422 117.347 205.777 117.347H170.646L170.302 116.1H199.413L202.122 112.66ZM189.136 106.898C189.136 107.457 189.136 108.059 189.136 108.446V126.334C189.136 127.28 189.523 127.581 191.673 127.581H197.65C200.058 127.581 201.95 127.538 202.853 127.452C203.541 127.409 203.842 127.237 204.143 126.764C204.616 125.947 205.304 123.539 206.121 120.443H206.637L206.766 127.022C208.099 127.495 208.486 127.968 208.486 128.785C208.486 130.72 206.594 131.408 197.306 131.408H191.157C186.427 131.408 185.051 130.634 185.051 127.237V106.898H189.136ZM200.918 106.21C200.488 106.597 199.585 106.64 198.424 106.167C192.017 107.672 182.041 109.091 173.226 109.349L173.097 108.661C181.396 107.371 191.587 104.619 196.747 102.297L200.918 106.21ZM185.438 92.579C195.93 93.998 191.372 101.953 187.373 98.599C187.459 96.578 186.427 94.213 185.094 92.837L185.438 92.579ZM203.197 98.9L205.562 96.578L209.69 100.534C209.346 100.835 208.873 100.921 208.013 100.964C206.637 102.684 204.186 105.006 202.294 106.382L201.821 106.081C202.509 104.103 203.412 100.792 203.713 98.9H203.197ZM174.387 96.578C176.107 101.437 174.817 104.705 172.968 105.952C171.764 106.812 169.786 106.64 169.227 105.221C168.754 103.974 169.528 102.856 170.732 102.211C172.28 101.394 173.871 99.072 173.742 96.578H174.387ZM204.53 98.9V100.147H173.871V98.9H204.53Z" fill="#756751"/>
<path d="M190.06 47.7304H205.632L207.536 45.2484C207.536 45.2484 209.678 46.9824 210.97 48.1724C210.868 48.5464 210.528 48.7164 210.052 48.7164H190.332L190.06 47.7304ZM188.972 62.2144H206.21L208.182 59.6304C208.182 59.6304 210.426 61.3984 211.752 62.6564C211.65 63.0304 211.31 63.2004 210.834 63.2004H189.244L188.972 62.2144ZM198.458 47.7304H201.722V75.5424C201.688 75.7804 200.668 76.4944 199.036 76.4944H198.458V47.7304ZM192.168 50.7564C199.41 56.2984 196.35 62.5544 193.596 59.6644C193.63 56.8424 192.644 53.4084 191.726 50.8924L192.168 50.7564ZM205.632 50.5864L210.188 52.0484C210.018 52.4224 209.61 52.7284 208.896 52.7284C207.4 55.5844 205.462 58.5764 203.592 60.5824L203.082 60.3444C203.932 57.8284 204.952 53.9524 205.632 50.5864ZM179.622 54.9384H187.51L189.108 52.4224C189.108 52.4224 190.91 54.1904 191.896 55.3804C191.828 55.7544 191.488 55.9244 191.046 55.9244H179.894L179.622 54.9384ZM183.736 45.9624L188.156 46.4044C188.088 46.8804 187.816 47.2204 186.932 47.3224V67.4504L183.736 68.4364V45.9624ZM179.214 68.6404C181.288 68.0964 186.524 66.3964 191.692 64.5604L191.862 64.9684C189.618 66.5324 186.32 68.7764 181.764 71.5304C181.662 71.9724 181.39 72.3464 181.016 72.4824L179.214 68.6404Z" fill="black"/>
</svg>
