<svg width="1025" height="125" viewBox="0 0 1025 125" fill="#fff" xmlns="http://www.w3.org/2000/svg">
<linearGradient id="paint1" x1="678.15" y1="85.2503" x2="678.15" y2="103.78" gradientUnits="userSpaceOnUse">
<stop stop-color="#7B2702"/>
<stop offset="1" stop-color="#E62C17"/>
</linearGradient>
<linearGradient id="paint2" x1="689.79" y1="103.78" x2="689.79" y2="85.2503" gradientUnits="userSpaceOnUse">
<stop stop-color="#F5A719"/>
<stop offset="1" stop-color="#ED7300"/>
</linearGradient>
<path fill="url(#paint1)" d="M665.5,103.8V96l16.9-10.3c0,0,1.4-0.9,3.1,0c1.3,0.8,5.3,3.2,5.3,3.2L665.5,103.8z"/>
<path fill="url(#paint2)" d="M702.5,103.8V96l-16.9-10.3c0,0-1.4-0.9-3.1,0c-1.3,0.8-5.3,3.2-5.3,3.2L702.5,103.8z"/>
<path fill="#941F24" d="M665.5,104.8v0.4l19.7-11.6l-0.3-0.2L665.5,104.8z"/>
<path fill="#0062B0" d="M99.4,97.6h-8.4v27h8.4V97.6z M99.4,111.1L113,97.6v27L99.4,111.1z"/>
<path fill="#E84709" d="M144.1,97.6h-8.4v13.5h8.4v13.5c7.5,0,13.5-6.1,13.5-13.5C157.7,103.7,151.6,97.6,144.1,97.6z"/>
<path fill="#008F8A" d="M113,124.7h11.4l11.4-13.5h-11.4L113,97.6h22.8L113,124.7z"/>
<path d="M12,19.4h2.9v1.9H12v5.4c0.8-0.3,1.7-0.6,2.5-0.9l0.3,1.9l-2.8,1v7.9c0,2.6-1.6,2.3-4.1,2.4
	c-0.1-0.5-0.3-1.3-0.6-1.9c1.1,0.1,2.1,0.1,2.4,0c0.3,0,0.5-0.1,0.5-0.5v-7.3C9,29.8,7.9,30.2,7,30.5l-0.5-2c1-0.3,2.3-0.7,3.7-1.2
	v-6H6.8v-1.9h3.3v-5.5H12V19.4L12,19.4z M28,29.8c-0.6,2-1.5,3.7-2.8,5c2,0.9,3.8,1.9,5.1,2.7L28.9,39c-1.3-0.9-3.1-1.9-5.2-3
	c-1.9,1.4-4.5,2.3-7.8,3c-0.1-0.6-0.5-1.3-0.9-1.8c2.8-0.4,5-1.1,6.8-2.2c-1.8-0.8-3.6-1.5-5.2-2.2c0.7-0.9,1.4-2,2.1-3.2H15V28h4.6
	c0.5-0.9,1-1.9,1.3-2.8l1.8,0.4c-0.3,0.8-0.7,1.6-1.1,2.4h4.8c0.1-0.5,0.2-1,0.3-1.6l1.9,0.4c-0.1,0.4-0.2,0.9-0.2,1.3h2.3v1.8
	L28,29.8L28,29.8z M30.5,25H15.4v-1.8h8.8c0.7-1.2,1.6-3,2-4.3l1.9,0.6c-0.6,1.2-1.3,2.6-1.9,3.7h4.4L30.5,25L30.5,25z M30,18.5H16
	v-1.8h6.4c-0.3-0.9-0.7-1.9-1.2-2.6l2.1-0.4c0.5,0.9,1,2.1,1.4,3H30L30,18.5L30,18.5z M19.8,23c-0.3-0.9-1.1-2.4-1.9-3.5l1.6-0.7
	c0.8,1.1,1.6,2.5,1.9,3.4L19.8,23z M20.7,29.8c-0.5,0.9-1,1.7-1.5,2.5c1.3,0.5,2.8,1.1,4.2,1.7c1.2-1.1,2-2.5,2.6-4.2
	C26,29.8,20.7,29.8,20.7,29.8z M40.8,20.7c-0.6,1.2-1.3,2.3-2.1,3.4v15h-1.9V26.4c-1,1.1-2,2.2-3,3c-0.2-0.5-0.7-1.5-1-2
	c2.3-1.8,4.9-4.6,6.4-7.5L40.8,20.7L40.8,20.7z M40.5,14.7c-1.5,2.4-4,5-6.3,6.6c-0.2-0.5-0.7-1.2-1-1.7c2-1.4,4.4-3.7,5.5-5.7
	L40.5,14.7L40.5,14.7z M47.4,17.5V14h2v3.4h7.4v1.9h-7.4v3.5h6.2v1.9H41v-1.9h6.5v-3.5h-7.5v-1.9H47.4L47.4,17.5z M56.8,29.7h-3.7
	v7.1c0,1.2-0.3,1.8-1.1,2.1c-0.8,0.3-2.2,0.3-4.3,0.3c-0.1-0.6-0.4-1.3-0.7-1.9c1.6,0.1,3.1,0.1,3.6,0c0.5,0,0.6-0.1,0.6-0.5v-7h-11
	v-1.9h11v-2.3h2v2.3h3.7V29.7L56.8,29.7z M43.9,30.5c1.2,1.4,2.7,3.4,3.3,4.7l-1.7,1c-0.7-1.3-2.1-3.3-3.3-4.8L43.9,30.5L43.9,30.5z
	 M81.8,18.8v12.9h-2v-1.6h-7.5v9h-2v-9h-7.5v1.7h-1.9V18.8h9.4v-4.9h2v4.9L81.8,18.8L81.8,18.8z M70.2,28.1v-7.3h-7.5v7.3H70.2z
	 M79.8,28.1v-7.3h-7.5v7.3H79.8z M89.9,24c-0.4,3.2-1.2,7.9-2.3,10.8L85.7,34c1.1-2.8,2-7.1,2.4-10.4L89.9,24z M94.2,21.5v13.6
	c0,1.3,0.3,1.5,1.8,1.5h5c1.6,0,1.9-1,2.1-5.7c0.5,0.4,1.3,0.8,1.8,0.9c-0.3,5.2-0.9,6.7-3.8,6.7h-5.3c-2.8,0-3.6-0.8-3.6-3.5V21.5
	L94.2,21.5L94.2,21.5z M94.7,14.8c2.4,1.8,5.6,4.4,7.1,6.1l-1.4,1.5c-1.4-1.7-4.5-4.4-7-6.3L94.7,14.8L94.7,14.8z M106.1,22.9
	c1.5,3.3,3,7.5,3.5,10.4l-1.9,0.8c-0.5-2.8-1.9-7.2-3.4-10.4L106.1,22.9L106.1,22.9z M143.1,6.9c3.9,3.4,8.6,8.4,10.7,11.7l-2.5,1.8
	c-0.6-1-1.5-2.2-2.5-3.5c-23.1,1.3-25.4,1.4-27,1.9c-0.1-0.6-0.7-2.1-1-3c0.9-0.2,1.9-1,3.3-2.4c1.5-1.3,6.1-6.4,9.3-11.4l2.9,1.3
	c-3.2,4.4-6.8,8.5-10.3,11.9l20.6-1c-1.9-2.1-3.9-4.2-5.9-5.9L143.1,6.9L143.1,6.9z M123.9,22.3h25.7v16.8h-3.2V37h-19.5v2.2h-3
	L123.9,22.3L123.9,22.3z M126.9,25.1v8.9h19.5v-8.9H126.9z M178.4,9.1c-0.2,1.5-0.4,3-0.7,4.3h15v22.3c0,1.8-0.4,2.6-1.7,3
	c-1.3,0.5-3.6,0.5-6.8,0.5c-0.2-0.8-0.7-1.9-1.1-2.7c2.5,0.1,5,0.1,5.7,0.1c0.7,0,0.9-0.2,0.9-0.9V16.2h-25v23h-2.9V13.4h13.1
	c0.2-1.2,0.4-2.8,0.5-4.3h-15.8V6.3h16.1c0.1-1.5,0.2-2.9,0.3-4.1l3.2,0.4c-0.1,1.2-0.3,2.5-0.4,3.7h16.1v2.8L178.4,9.1L178.4,9.1z
	 M178.5,31.3v7.1h-2.9v-7.1h-8.7v-2.5h8.7v-4.1h-7.8v-2.5h4.2c-0.4-1.3-1.3-3.4-2.2-4.8l2.4-0.6c1,1.4,2,3.4,2.3,4.7l-2.2,0.7h7.2
	c0.9-1.7,1.8-4,2.3-5.5l2.7,0.6c-0.8,1.7-1.6,3.4-2.3,4.9h4.6v2.5h-8.3v4.1h9v2.5H178.5z M235.9,21.3c-1.1,3.6-2.7,6.5-4.7,8.9
	c4.9,2.1,9.3,4.3,12.4,6.3l-2.3,2.6c-3-2-7.5-4.4-12.5-6.6c-4.1,3.4-9.7,5.4-17.3,6.7c-0.3-0.8-1.2-2.2-1.9-3
	c6.9-0.9,12.2-2.4,15.9-5.1c-3.8-1.6-7.7-3-11.2-4.1c1.2-1.6,2.5-3.6,3.8-5.7h-8.8v-2.9h10.4c1.3-2.4,2.5-4.8,3.3-7l3.4,0.6
	c-0.8,2.1-1.9,4.2-3,6.4h9.8c0.3-1.2,0.5-2.6,0.7-4l3.5,0.3c-0.2,1.3-0.4,2.6-0.7,3.7h7.4v2.9L235.9,21.3L235.9,21.3z M213.3,15h-3
	V6.9h15c-0.6-1.3-1.3-2.9-2-4.1l3.2-0.8c0.9,1.5,1.9,3.5,2.5,4.9H243V15h-3.1V9.7h-26.6V15z M221.8,21.3c-0.9,1.6-1.8,3-2.7,4.3
	c2.9,0.9,6,2.1,9,3.3c1.9-2,3.3-4.5,4.4-7.6L221.8,21.3L221.8,21.3z M268.3,9.1c-0.2,1.5-0.4,3-0.6,4.3h15v22.3c0,1.8-0.5,2.6-1.7,3
	c-1.3,0.5-3.6,0.5-6.8,0.5c-0.2-0.8-0.7-1.9-1.1-2.7c2.5,0.1,5,0.1,5.7,0.1c0.7,0,0.9-0.2,0.9-0.9V16.2h-25v23h-2.9V13.4h13.1
	c0.2-1.2,0.4-2.8,0.5-4.3h-15.8V6.3h16.1c0.1-1.5,0.2-2.9,0.3-4.1l3.2,0.4c-0.1,1.2-0.3,2.5-0.4,3.7h16.1v2.8L268.3,9.1L268.3,9.1z
	 M268.4,31.3v7.1h-2.9v-7.1h-8.7v-2.5h8.7v-4.1h-7.8v-2.5h4.2c-0.4-1.3-1.3-3.4-2.2-4.8l2.4-0.6c1,1.4,2,3.4,2.3,4.7l-2.2,0.7h7.2
	c0.9-1.7,1.8-4,2.3-5.5l2.7,0.6c-0.8,1.7-1.6,3.4-2.3,4.9h4.6v2.5h-8.3v4.1h9v2.5H268.4z M318.5,34.5c2.2,0,5.2-0.2,6.7-0.4
	c0.1,0.8,0.3,2.2,0.5,2.9c-3.6,0.7-20.6,0.2-25,0.4c-6.2,0-9.2-1.9-9.2-7.8V6.8h-1.7V4.1h33.9v2.7h-29.3v22.8c0,3.4,1.6,4.9,5.9,4.9
	C300.3,34.5,318.4,34.5,318.5,34.5z M297.6,21.1h10.5v10.4h-10.5V21.1z M300.1,29.3h5.4v-6h-5.4V29.3z M317,18.4h-15V9.5h15V18.4z
	 M314,11.6h-9.2v4.6h9.2V11.6z M321.7,31.5h-10.9V21.1h10.9V31.5z M319,23.3h-5.6v6h5.6V23.3z M340.4,31.4
	c-3.8,1.2-7.7,2.4-10.8,3.4L329,32c1.3-0.3,2.9-0.8,4.6-1.3V19.4h-3.8v-2.7h3.8v-9h-4.2V5h10.8v2.7h-4v9h3.5v2.7h-3.5V30l3.8-1.2
	L340.4,31.4L340.4,31.4z M365.4,29.5c-1.7,1.1-3.8,2.3-5.6,3.1c1.9,1.7,4.2,3.1,6.9,3.8c-0.6,0.5-1.5,1.6-1.8,2.3
	c-5.5-1.8-9.5-6-11.4-11.4c-1.4,1.2-3.1,2.5-4.9,3.5v4.7l6.8-1.5c-0.1,0.7,0,1.7,0,2.2c-7.7,2-8.8,2.3-9.5,2.8
	c-0.2-0.7-0.7-1.7-1.1-2.2c0.5-0.3,1.3-0.9,1.3-2.5v-2c-1.5,0.7-3,1.3-4.4,1.8c-0.4-0.7-1.1-1.6-1.7-2.1c3.5-0.9,7.6-2.8,10.4-4.8
	h-6v-8.3h19v8.3h-7.4c0.6,1.4,1.4,2.8,2.4,3.9c1.8-1,3.8-2.3,5-3.3L365.4,29.5L365.4,29.5z M365.9,16.7h-24.3v-2.5h24.3V16.7z
	 M364.5,12.2h-21.3V3.7h21.3V12.2L364.5,12.2z M349.6,5.9h-3.8V10h3.8V5.9z M347,24.9h13.4v-3.8H347V24.9z M355.7,5.9h-4V10h4V5.9z
	 M361.9,5.9h-4V10h4V5.9z M380.4,2.8c-0.2,0.5-0.5,0.9-0.8,1.4c2,1.2,4.4,2.8,5.7,3.8l-1.4,2.3c-1.2-1.1-3.7-2.7-5.8-4.1
	c-2.1,2.8-4.6,5.2-7.2,6.9c-0.2-0.6-0.9-2-1.3-2.6c3.1-2,6.5-5.2,8.3-8.6L380.4,2.8L380.4,2.8z M381,28.8c1.5,2.6,3.4,6.1,4.2,8
	l-2.3,1.1c-0.3-0.9-0.8-2-1.4-3.2c-7.9,3.2-9,3.8-9.7,4.4c-0.2-0.7-0.6-1.9-1.1-2.5c0.6-0.2,1.5-0.8,1.5-2.3V14.4h11.6V28h-8.9v6.9
	l5.7-2.2c-0.5-1.1-1.1-2.1-1.6-3.1L381,28.8L381,28.8z M374.9,16.7v3.2h6.2v-3.2H374.9z M381.1,25.7v-3.5h-6.2v3.5H381.1z
	 M381.9,9.8V12H375V9.8H381.9z M406.2,6.9v6.5h-2.6V9.4H388v4.1h-2.5V6.9h9.6c-0.5-1.2-1.2-2.7-1.7-3.8l2.5-1.1
	c0.8,1.4,1.6,3.2,2.1,4.3l-1.2,0.6H406.2z M390.8,26.5h13.8v12.4h-2.7v-1.6h-11.2v1.8h-2.7V13h14.7v10.1h-12L390.8,26.5L390.8,26.5z
	 M390.8,15.5v5.1h9.5v-5.1H390.8z M390.8,29.1v5.7h11.2v-5.7H390.8z M444.4,7.1L444.4,7.1c-1.3,4.2-3.4,7.8-5.9,10.7
	c2.5,2.4,5.6,4.6,9.2,5.9c-0.6,0.6-1.5,1.7-1.9,2.5c-0.4-0.2-0.9-0.4-1.3-0.6V39h-2.9v-1.3h-10.1v1.5h-2.8V25.7
	c-0.8,0.4-1.6,0.8-2.4,1.1c-0.3-0.6-0.9-1.4-1.5-2h-4.2V32c1.7-0.4,3.5-0.8,5.3-1.2l0.3,2.7c-5.5,1.3-11.2,2.7-15.5,3.8l-0.6-2.9
	l2.1-0.4V20.1h2.5v13.3l3.1-0.7V16.3h-5.7V4h13.1v10.7c3.2-3,5.8-7.6,7.3-12.4l2.9,0.7c-0.4,1.2-0.9,2.3-1.3,3.4h7.8L444.4,7.1z
	 M414.9,13.7h7.6V6.6h-7.6V13.7z M425.7,24c3.2-1.4,6.4-3.5,9.1-6.3c-1.5-1.8-2.7-3.7-3.7-5.5c-1.1,1.8-2.4,3.3-3.7,4.7
	c-0.4-0.4-1.4-1.3-2.1-1.8v1.2h-4.6v5.8h5L425.7,24L425.7,24z M442.7,24.6c-2.3-1.3-4.2-3-6-4.8c-1.9,1.9-3.9,3.5-6.1,4.8H442.7
	L442.7,24.6z M441.7,35v-7.8h-10.1V35H441.7z M433,9l-0.4,0.8c1,2,2.3,4.1,4,6.1c1.7-2.1,3.1-4.3,4.1-6.8H433z M450.7,27.6l3.6-0.5
	c0.5,5.3,6.3,7.5,9.9,3.9c4.4-4.9,0-11.7-6.4-9.5l0.4-3.1c1.7,0.2,3.3-0.3,4.7-1.1c2.2-1.3,2.4-5.2,0.5-6.9
	c-3.2-2.9-8.4-0.6-8.6,3.9l-3.5-0.6c0.8-8,12-10.2,16.1-3.7c2.2,3.4,0.9,8-2.9,9.6c6.2,1.2,7,9.8,2.6,13.6
	C461.5,38.2,451.2,35.7,450.7,27.6L450.7,27.6z M473.1,27.6l3.7-0.3c1.2,8.5,12,6.4,11.7-1.6c0.4-6.6-8-8.9-11.4-3.8l-3.3-0.4
	l2.8-14.9H491v3.4h-11.6l-1.6,7.8c3.7-2.7,8.8-2.4,11.9,0.8c3.5,3.3,3.4,10,0.3,13.5C485.2,38.4,473.6,36.1,473.1,27.6L473.1,27.6z
	 M501.1,19.5c-6.6-1.7-6.2-13.4,4-13.4c9.9,0,10.7,11.4,4.1,13.4c9,2.6,6.6,16.2-4.1,16.2C494.4,35.7,492,21.8,501.1,19.5z
	 M499.2,26.9c0,7.7,11.8,7.9,11.8,0.1C511,19.2,499.2,19,499.2,26.9L499.2,26.9z M500.4,13.5c-0.2,6.1,9.4,6.2,9.4,0.2
	C509.8,7.7,500.5,7.5,500.4,13.5z M517.8,27.2c4.2-2.1,8.2-5.3,10.7-9.3h-10v-2.7h10.3V9.7H521V7.1h7.8V2.3h2.9v4.8h9.7V2.3h3v4.8
	h8.1v2.7h-8.1v5.4H555v2.7h-10.4l0,0c2.6,3.6,6.8,6.9,11,8.5l-2.1,2.6c-2.8-1.2-5.5-3.2-7.8-5.6v7.5h-15.8v2.9c0,1.5,0.7,1.9,4,1.9
	h11.8c2.7,0,3.1-0.7,3.4-4.8l2.8,1.1c-0.5,5-1.6,6.4-6.1,6.4h-11.9c-5.3,0-6.9-0.9-6.9-4.7v-9.5c-2.1,2.1-4.5,3.8-6.9,5.2
	L517.8,27.2z M543.9,21.4c-0.9-1.1-1.7-2.3-2.4-3.6h-9.6c-0.7,1.2-1.5,2.4-2.4,3.6H543.9L543.9,21.4z M542.8,24h-13v4.4h13V24z
	 M531.7,15.2h9.7V9.7h-9.7V15.2z M577.2,31.8v3.4h-19.1c-0.1-7,10.7-12.2,13.8-16.8c3.3-3.8,1.4-9.4-3.8-9.3c-3.5,0-5.7,2.3-5.7,5.8
	l-3.7-0.4c0.2-2.7,1.2-4.8,2.8-6.2c3-2.9,10.2-2.9,13.2,0.2c3.7,3.5,2.8,9.1-0.6,12.7c-2.1,2.7-9.3,7.6-11.1,10.7L577.2,31.8
	L577.2,31.8z M586.4,24.5h7.6c-1.2,10.8,0.3,15.3-8.6,14.1l-0.7-2.5c6.8,0.7,5.3-0.1,6.5-9.2l-8.2,0l1.5-6.5h-3.5v-2.7h14.5v2.7
	h-8.5L586.4,24.5z M594.7,14.6H583V4h11.6V14.6z M592.3,6.3h-7v6.1h7V6.3z M618.2,10.6l-1.7,7l-2.2-0.6l0.9-4.3H600
	c-0.1,8.5,0.9,18.5-4.1,26.5c-0.5-0.5-1.6-1.3-2.3-1.7c5.1-8.1,3.4-18.6,3.7-27.4h7.9v-8h2.8v2.8h8.1v2.5h-8.1v2.7h7.8L618.2,10.6z
	 M598.4,37.2c3.8-2.2,4.6-6.1,4.8-11.6h2.6c-0.3,6.4-1.3,10.9-5.7,13.6L598.4,37.2z M613,21.2c0.7,0,1.9-0.1,2.5-0.2
	c0.1,0.7,0.2,1.5,0.2,2.2c-1.4,0.4-5.8,0.1-7.4,0.2c-3.3,0.1-3.2-2.2-3.1-4.9l-4,0.4l-0.3-2.1l4.2-0.4v-3.4h2.6V16l5.2-0.5l0.3,2.1
	l-5.5,0.6v1.5c0,1.1,0.2,1.5,1,1.5C608.7,21.2,613,21.2,613,21.2z M618.2,31.8c-0.2,5.8-0.3,6.8-5.9,6.5c-2.3-0.1-3.3-0.6-3.1-3.6
	v-9.2h2.5v9.3c0,0.7,0.7,0.8,2.5,0.8c0.9,0,1.4-0.1,1.6-1c0.1-0.7,0.2-2.2,0.1-4L618.2,31.8z M641.3,0v41.5h-1.7V0H641.3z
	 M670.1,30.8c-0.5-0.8-1.4-2.2-2.3-3.3v11.6H666v-11c-1,1.2-2,2.2-3,3c-0.2-0.6-0.6-1.6-0.9-2c2.5-1.9,5-5.2,6.5-8.6h-6v-1.9h6.9
	l0.3-0.1l1,0.8c-0.7,2.1-1.7,4.1-2.9,5.9c0.9,1,2.8,3.3,3.2,3.9L670.1,30.8z M666.8,18.6c-0.4-1-1.3-2.5-2.2-3.6l1.4-1
	c0.9,1.1,1.8,2.5,2.3,3.4L666.8,18.6L666.8,18.6z M686.3,37v1.6h-15.6V37h4.8c-0.3-0.8-0.6-1.8-1-2.7l1.5-0.4c0.5,1,0.9,2.2,1.2,3.1
	h2.8c0.5-1,1-2.3,1.3-3.2l1.8,0.5c-0.5,0.9-1,1.9-1.4,2.7H686.3z M686.1,27h-14.8v-1.6h14.8V27z M685.3,24.1h-13.2v-7.9h3.8v-2.3
	h1.6v2.3h2.3v-2.3h1.6v2.3h3.9V24.1z M673,33.6v-5.1h11.5v5.1H673z M673.8,19.5h2.4v-1.9h-2.4V19.5z M673.8,22.7h2.4v-2h-2.4V22.7z
	 M674.6,32.2h8.1v-2.4h-8.1V32.2z M679.8,19.5v-1.9h-2.3v1.9H679.8z M677.5,20.8v2h2.3v-2H677.5z M683.6,17.6h-2.4v1.9h2.4V17.6z
	 M683.6,20.8h-2.4v2h2.4V20.8z M704.6,35.3c2.8,0.8,5.7,1.8,7.5,2.6l-1.8,1.2c-1.7-0.8-4.7-1.9-7.6-2.8l1.1-1h-6.8l1.5,1
	c-2.1,1.2-5.7,2.3-8.5,2.8c-0.3-0.4-0.8-1-1.2-1.4c2.7-0.4,6-1.4,7.8-2.4h-3.9v-8.7c-1.1,0.2-2.2,0.3-3.3,0.4
	c-0.2-0.5-0.7-1.3-1-1.7c1.1-0.1,2.3-0.2,3.5-0.3c-0.3-0.4-0.9-1-1.2-1.3c1.7-0.7,3.5-1.6,4.6-2.7l1.6,0.5c-1.2,1.3-3.1,2.6-4.8,3.4
	c2.6-0.3,5.2-0.7,7.5-1.3v-3h-6v-1.5h14v1.5h-6.2v2.5c2.1-0.6,4-1.4,5.3-2.3l1.6,0.9c-1.9,1.3-4.6,2.4-7.5,3.2h8v10.3L704.6,35.3
	L704.6,35.3z M691.6,20.6h-1.8V16h9.6c-0.3-0.6-0.6-1.2-0.9-1.7l1.8-0.7c0.5,0.7,1,1.6,1.3,2.4h9.7v4.6h-1.9v-2.9h-17.9V20.6z
	 M694.6,26.3v1.7h12.3v-1.7h-12.1L694.6,26.3z M706.9,29.3h-12.3V31h12.3V29.3z M694.6,34.1h12.3v-1.8h-12.3V34.1z M738.7,33h-6.2v4
	c0,1-0.2,1.6-1,1.9c-0.8,0.3-2.1,0.3-4.2,0.3c-0.1-0.5-0.4-1.3-0.6-1.8c1.6,0.1,3.1,0.1,3.5,0c0.4,0,0.5-0.1,0.5-0.5V33h-10
	c1.6,0.9,3.4,2.4,4.3,3.4l-1.4,1.3c-0.9-1.1-2.8-2.6-4.3-3.6l1.3-1.2H715v-1.7h15.5v-1.7c-5.4,0.2-10.6,0.3-14.4,0.3l-0.1-1.6
	c2.6,0,6,0,9.8-0.1v-1.5h-8v-7.5h8v-1.5h-10.1V16h10.1v-2.1h1.9V16h9.9v1.7h-9.9v1.5h8.3v7.5h-3c1.8,0.8,3.7,1.8,4.7,2.7l-1.2,1.2
	c-0.4-0.3-0.9-0.7-1.5-1.1l-2.6,0.1v1.8h6.2C738.7,31.3,738.7,33,738.7,33z M719.7,22.3h6.2v-1.7h-6.2V22.3z M725.8,25.3v-1.7h-6.2
	v1.7H725.8z M727.7,20.6v1.7h6.4v-1.7H727.7z M734.1,23.6h-6.4v1.7h6.4V23.6z M727.7,28.2l5-0.1c-0.7-0.3-1.4-0.6-2-0.9l0.6-0.6
	h-3.6L727.7,28.2L727.7,28.2z M748.5,30.6c0-0.5-0.2-1-0.3-1.6c-5.2,0.8-6,1-6.5,1.3c-0.1-0.4-0.4-1.4-0.6-2
	c0.5-0.1,1.1-0.8,1.9-1.8c0.4-0.5,1.2-1.6,2.1-3.1c-2.7,0.4-3.2,0.5-3.6,0.7c-0.1-0.4-0.4-1.3-0.6-1.9c0.5-0.1,0.9-0.7,1.4-1.5
	c0.6-0.8,2.3-3.9,3.4-6.9l1.8,0.8c-1.1,2.6-2.5,5.2-4,7.3l2.7-0.3c0.7-1.2,1.4-2.4,1.9-3.7L750,19c-1.7,3.2-3.8,6.4-5.9,8.9l3.8-0.5
	c-0.2-0.9-0.5-1.9-0.8-2.7l1.5-0.4c0.6,1.9,1.3,4.4,1.5,5.9L748.5,30.6L748.5,30.6z M743.8,31.8c-0.3,2.4-0.8,5.1-1.3,6.8
	c-0.3-0.2-1.1-0.4-1.5-0.6c0.6-1.7,1-4.2,1.3-6.5L743.8,31.8L743.8,31.8z M746.3,31.5c0.3,1.9,0.6,4.3,0.7,5.9l-1.5,0.3
	c0-1.6-0.3-4-0.6-5.9L746.3,31.5z M748.6,30.8c0.5,1.4,1.1,3.2,1.3,4.4l-1.4,0.5c-0.2-1.2-0.8-3.1-1.2-4.5L748.6,30.8L748.6,30.8z
	 M756.5,29.1c-1,4.2-3.2,7.1-5.9,8.7c-0.2-0.4-0.8-1.1-1.1-1.5c2-1,3.9-3.2,4.8-5.9h-3.4v-1.7h4.2l0.3-0.1L756.5,29.1L756.5,29.1z
	 M764.6,28.7c-1.2,1.1-2.5,2.4-3.7,3.3c1.1,1.9,2.6,3.4,4.3,4.3c-0.4,0.4-1,1.1-1.3,1.6c-2.1-1.3-3.7-3.6-5-6.3v5.2
	c0,2.6-1.9,2.2-4.4,2.3c-0.1-0.6-0.3-1.4-0.6-1.9c1.2,0.1,2.3,0.1,2.7,0c0.3,0,0.5-0.1,0.5-0.4V26.5h-5.2v-9.7h4
	c0.4-0.9,0.7-2.1,0.9-2.9l2.2,0.5c-0.4,0.8-0.8,1.7-1.1,2.5h5.9v9.7h-4.8v1c0.3,1.1,0.7,2.2,1.2,3.2c1-1,2.2-2.3,2.9-3.2L764.6,28.7
	L764.6,28.7z M753.7,20.8h8.2v-2.4h-8.2V20.8z M753.7,24.8h8.2v-2.5h-8.2V24.8z M784,5.1c8.2,0.3,9.9,7.1,10.1,15.8
	c-0.1,8.7-1.8,15.6-10.1,15.8c-8.2-0.4-10-6.8-10.1-15.9C774,12.2,775.8,5.3,784,5.1L784,5.1z M784,10c-4.1,0.2-3.7,6.3-3.8,10.9
	c0.1,4.7-0.2,10.7,3.9,10.9c4.1-0.2,3.7-6.3,3.8-10.9C787.7,16.2,788.1,10.3,784,10z M818.2,12.8l-5.8,0.6c-0.2-3.7-4.5-4.7-6.6-1.8
	c-0.9,1.1-1.4,3.5-1.6,7c3.1-3.8,8.8-3.3,11.9,0.2c1.8,1.9,2.6,4.3,2.6,7.3c0.4,9.9-11.5,14.2-17.7,6.9c-2-2.4-3-6.4-3-12
	s1-9.8,3.1-12.3C806.2,2.7,817.1,4,818.2,12.8L818.2,12.8z M804.7,25.8c-0.1,3.1,1.5,5.9,4.4,6.1c4.5,0.2,4.7-7.4,2.7-10
	C808.7,18.6,804.4,21.4,804.7,25.8z M822.7,28V22h11.7V28H822.7z M836.3,28l5.8-0.7c0.2,4,4.8,6.1,7.5,3.1c1.6-1.6,1.7-5.6,0-7.3
	c-1.6-1.7-3.5-1.5-5.7-0.9l0.7-4.8c1.6,0,2.8-0.3,3.7-1.1c1.5-1.2,1.7-4.1,0.3-5.5c-2.5-2.3-6.3-0.2-6.4,3.2l-5.5-0.9
	c0.7-3.4,1.9-5.7,4.9-7.1c3.6-1.7,9-1.2,11.6,1.8c3.6,3.8,2.7,9.2-2.3,11.7c6.7,1.3,7.6,10.2,2.9,14.3C848.2,39.5,837,36.6,836.3,28
	L836.3,28z M860.8,29.1l5.8-0.6c0.2,3.7,4.5,4.6,6.6,1.8c0.9-1.1,1.4-3.5,1.6-7c-5.8,6.3-15,0.4-14.6-7.6
	c-0.3-9.9,11.4-14.2,17.7-6.8c4.1,4.2,4,20-0.1,24.3c-3.1,4.1-10.2,5.1-14.1,1.8C862.1,33.6,861.2,31.6,860.8,29.1L860.8,29.1z
	 M874.2,16.1c0.1-3.1-1.5-5.9-4.4-6.1c-4.5-0.2-4.6,7.4-2.7,10C870.3,23.3,874.5,20.5,874.2,16.1L874.2,16.1z M904.8,12.8l-5.8,0.6
	c-0.2-3.7-4.5-4.7-6.6-1.8c-0.9,1.1-1.4,3.5-1.6,7c3.1-3.8,8.8-3.3,11.9,0.2c1.8,1.9,2.6,4.3,2.6,7.3c0.4,9.9-11.5,14.2-17.7,6.9
	c-2-2.4-3-6.4-3-12s1.1-9.8,3.2-12.3C892.9,2.7,903.8,4,904.8,12.8L904.8,12.8z M891.4,25.8c-0.1,3.1,1.5,5.9,4.4,6.1
	c4.5,0.2,4.7-7.4,2.7-10C895.4,18.6,891.1,21.4,891.4,25.8L891.4,25.8z M909.4,28V22h11.7V28H909.4z M943.4,12.8l-5.8,0.6
	c-0.2-3.7-4.5-4.7-6.6-1.8c-0.9,1.1-1.4,3.5-1.6,7c3.1-3.8,8.8-3.3,11.9,0.2c1.8,1.9,2.6,4.3,2.6,7.3c0.4,9.9-11.5,14.2-17.7,6.9
	c-2-2.4-3-6.4-3-12s1.1-9.8,3.2-12.3C931.4,2.7,942.3,4,943.4,12.8L943.4,12.8z M929.9,25.8c-0.1,3.1,1.5,5.9,4.4,6.1
	c4.5,0.2,4.7-7.4,2.7-10C933.9,18.6,929.6,21.4,929.9,25.8z M947.4,28.3l5.9-0.6c0.3,3.9,5,6,7.5,2.8c1.7-1.7,1.8-7.1,0-8.8
	c-2.2-2.4-5.8-1.6-7.9,0.8l-4.8-0.7l3-16.1h15.7v5.6h-11.2l-0.9,5.3c10.3-4.7,17.4,8,11.3,16.2C961,39.7,948.3,37.4,947.4,28.3
	L947.4,28.3z M991.5,12.8l-5.8,0.6c-0.2-3.7-4.5-4.7-6.6-1.8c-0.9,1.1-1.4,3.5-1.6,7c3.1-3.8,8.8-3.3,11.9,0.2
	c1.8,1.9,2.6,4.3,2.6,7.3c0.4,9.9-11.5,14.2-17.7,6.9c-2-2.4-3-6.4-3-12s1-9.8,3.1-12.3C979.6,2.7,990.5,4,991.5,12.8L991.5,12.8z
	 M978.1,25.8c-0.1,3.1,1.5,5.9,4.4,6.1c4.5,0.2,4.7-7.4,2.7-10C982,18.6,977.7,21.4,978.1,25.8z M995.6,28.3l5.9-0.6
	c0.3,3.9,5,6,7.5,2.8c1.7-1.7,1.8-7.1,0-8.8c-2.2-2.4-5.8-1.6-7.9,0.8l-4.8-0.7l3.1-16.1h15.7v5.6h-11.2l-0.9,5.3
	c10.3-4.7,17.4,8,11.3,16.2C1009.1,39.7,996.5,37.4,995.6,28.3L995.6,28.3z M896.3,112.2v2.3h-17.4v-2.3h6.9V97.8h2.5v5.5h6.8v2.3
	h-6.8v6.6H896.3z M904.1,107.8c-0.6,0.2-1.1,0.3-1.7,0.5v4.6c0,1.1-0.2,1.7-0.8,2.1c-0.6,0.4-1.5,0.5-2.9,0.5
	c-0.1-0.6-0.3-1.6-0.6-2.2c0.8,0,1.5,0,1.8,0c0.2,0,0.3-0.1,0.3-0.4v-3.9l-2.1,0.6l-0.5-2.2c0.7-0.2,1.6-0.4,2.6-0.6v-3.5H898v-2.1
	h2.2v-3.6h2.2v3.6h1.6v2.1h-1.6v2.9l1.5-0.4L904.1,107.8L904.1,107.8z M908.2,107.1c-0.2,0.3-0.4,0.7-0.6,1h7.4c0,0,0,0.5-0.1,0.8
	c-0.5,5.6,0,6.7-4.2,6.5c0-0.6-0.2-1.4-0.6-1.9c0.7,0.1,1.2,0.1,1.5,0.1c0.2,0,0.4,0,0.6-0.2c0.2-0.3,0.4-1.2,0.6-3.5h-0.6
	c-0.9,2.3-2.3,4.2-3.8,5.5c-0.3-0.3-1.1-0.9-1.5-1.1c1.4-1.1,2.6-2.6,3.4-4.4h-0.9c-1.2,2.1-2.9,3.9-4.7,5c-0.3-0.3-1-1-1.4-1.3
	c1.6-0.9,3-2.2,4-3.8h-1c-0.6,0.7-1.2,1.2-1.8,1.7c-0.3-0.3-1-0.9-1.5-1.2c1.2-0.8,2.3-1.9,3.1-3.2h-2v-1.8h11.5v1.8L908.2,107.1
	L908.2,107.1z M914.3,104.5h-8.9v-6.4h8.9V104.5z M912.2,99.6h-4.7v1h4.7V99.6z M912.2,102h-4.7v1h4.7V102z M934,98.3v17.1h-2.3
	v-0.8h-11.9v0.8h-2.2V98.3H934z M931.8,112.6v-12.3h-2.4c0.6,0.3,1.3,0.8,1.6,1.1l-0.8,0.8h0.9v1.6h-3.4c0.1,1.1,0.2,2.1,0.4,2.9
	c0.4-0.8,0.7-1.5,0.9-2.4l1.7,0.3c-0.5,1.7-1.1,3.1-2,4.4c0.2,0.6,0.5,0.9,0.9,1c0.2,0.1,0.4-0.7,0.4-1.8c0.3,0.3,1,0.9,1.4,1.1
	c-0.3,2.4-1.3,3.1-2.6,2.5c-0.6-0.2-1-0.6-1.4-1.3c-0.6,0.6-1.3,1.2-2,1.6c-0.2-0.3-0.9-1.1-1.2-1.4c0.2-0.1,0.4-0.2,0.6-0.4
	c-1.5,0.2-3,0.4-4.3,0.7l-0.2-1.7c1.4-0.2,3.4-0.4,5.4-0.7l0,1c0.4-0.3,0.7-0.6,1-1c-0.4-1.4-0.7-3.1-0.8-5h-5.3v-1.6h5.2
	c0-0.5-0.1-1.1-0.1-1.6h1.9c0,0.6,0,1.1,0.1,1.6h2.1c-0.4-0.4-1-0.8-1.5-1l0.9-0.9h-9.2v12.3L931.8,112.6L931.8,112.6z M925.3,108.4
	H921v-3.6h4.3V108.4z M923.8,105.9h-1.3v1.2h1.3V105.9z M945,105.9c-0.6,0.7-1.2,1.2-2,1.7c-0.2-0.4-0.7-1-1.1-1.3
	c0.4,1.4,0.4,3.6-0.6,4.3c-0.3,0.2-0.6,0.4-1,0.4c-0.3,0-0.8,0-1.2,0c0-0.5-0.2-1.3-0.5-1.9c0.3,0,0.6,0,0.8,0
	c0.7,0,0.8-0.5,0.8-1.3c0-0.9-0.2-2.2-1.2-3.5c0.4-1.2,0.7-2.7,1-4h-1.4v15.1h-2V98.3h4l0.3-0.1l1.4,0.8c-0.2,0.8-0.5,1.7-0.7,2.5
	c1-1,1.9-2.4,2.4-3.9l1.7,0.4c-0.1,0.3-0.2,0.6-0.4,1h1.4l0.3-0.1l1.1,0.4l-0.1,0.3l1-0.2l0-0.9h3l0.4-0.1l1.2,0.7
	c-0.5,1.6-1.4,3.3-2.3,4.4c0.7,1,1.7,1.9,2.7,2.4c-0.4,0.4-1,1.1-1.3,1.6c-0.9-0.5-1.6-1.2-2.3-2v1.2H945L945,105.9L945,105.9z
	 M944.4,103.9c0.2-0.3,0.5-0.6,0.7-1c-0.4-0.4-0.9-0.8-1.3-1.2c-0.4,0.5-0.8,1-1.2,1.4c-0.2-0.2-0.7-0.6-1-0.9
	c-0.2,0.6-0.4,1.3-0.6,1.8c0.5,0.8,0.8,1.5,1,2.1c0.8-0.4,1.4-1,2-1.8c-0.8,0.1-1.4,0.2-2.1,0.4l-0.2-1.4c0.8-0.1,1.6-0.1,2.7-0.3
	L944.4,103.9L944.4,103.9z M945.9,111.2c-0.7,1.2-1.8,2.6-2.6,3.5c-0.4-0.4-1.3-0.9-1.8-1.2c0.8-0.8,1.8-1.9,2.4-3L945.9,111.2z
	 M949,109.9v5.5h-2.1v-5.5h-3.6V108h9.3v1.8H949z M944.7,100.4l-0.1,0.2c0.4,0.3,0.8,0.7,1.2,1c0.2-0.4,0.3-0.8,0.5-1.2
	C946.2,100.4,944.7,100.4,944.7,100.4z M950.1,104.9c-0.9-1.3-1.6-2.8-2.2-4.6c-0.5,1.8-1.2,3.3-2.2,4.6H950.1z M949.7,100
	c0.2,0.7,0.5,1.3,0.8,1.9c0.3-0.6,0.7-1.2,0.9-1.9H949.7z M951.5,110.3c0.8,0.9,2,2.3,2.6,3.1l-1.8,1.1c-0.5-0.8-1.7-2.2-2.5-3.3
	L951.5,110.3L951.5,110.3z M973,102.9v1.6h-3.5l-0.1,1.5h-11l0.2-1.5h-3v-1.6h3.2l0.2-1.5h10.8l-0.1,1.5
	C969.7,102.9,973,102.9,973,102.9z M967.9,112.8c1.7,0.5,3.4,1,4.5,1.3l-1.5,1.4c-1.4-0.5-3.6-1.3-5.8-1.9l0.8-0.9h-3.5l1.1,0.8
	c-1.6,0.8-4.3,1.6-6.5,1.9c-0.3-0.4-0.8-1.1-1.2-1.5c1.7-0.2,3.7-0.7,5-1.2H958v-6.2h12.5v6.2C970.5,112.8,967.9,112.8,967.9,112.8z
	 M958.1,102.4H956v-3.3h7c-0.2-0.4-0.4-0.8-0.6-1.2l2-0.6c0.3,0.5,0.7,1.2,0.9,1.7h7v3.3h-2.1v-1.6h-12.1L958.1,102.4L958.1,102.4z
	 M960.2,108.3h8v-0.6h-8V108.3z M960.2,110h8v-0.6h-8V110z M960.2,111.7h8v-0.6h-8V111.7z M960.5,104.9h2.5l0.1-0.6h-2.5
	L960.5,104.9z M960.8,102.6l-0.1,0.6h2.5l0.1-0.6H960.8z M967.4,104.9l0.1-0.6H965l-0.1,0.6H967.4z M967.6,102.6h-2.4l0,0.6h2.4
	L967.6,102.6z M981.7,112.4c-1.3,1.1-3.6,2.1-5.6,2.6c-0.3-0.5-0.9-1.2-1.3-1.7c1.9-0.3,4.1-0.9,5.3-1.6L981.7,112.4L981.7,112.4z
	 M991.9,109.2v1.9h-7.4v4.4h-2.3v-4.4h-7.3v-1.9h7.3v-0.8h-5.5v-1.7h5.5v-0.9h-6.5v-1.7h3.5c-0.2-0.4-0.5-1-0.7-1.4l1.3-0.3h-4.9
	v-1.8h2.6c-0.3-0.7-0.8-1.7-1.2-2.4l2-0.7c0.6,0.8,1.2,2,1.5,2.7l-0.9,0.3h1.8v-3.1h2.1v3.1h1.4v-3.1h2.2v3.1h1.7l-0.7-0.2
	c0.4-0.8,1-1.9,1.2-2.8l2.4,0.6c-0.5,0.9-1,1.7-1.5,2.4h2.5v1.8h-5.1l1.8,0.5c-0.4,0.5-0.8,0.9-1.2,1.2h3.7v1.7h-6.6v0.9h5.8v1.7
	h-5.8v0.8C984.5,109.2,991.9,109.2,991.9,109.2z M980.8,102.4c0.3,0.5,0.6,1,0.8,1.4l-1,0.2h5.2l-0.7-0.2c0.3-0.4,0.7-1,1-1.5
	C986.1,102.4,980.8,102.4,980.8,102.4z M986.8,111.6c1.5,0.6,3.8,1.5,5,2.2l-1.6,1.2c-1.1-0.6-3.3-1.7-5-2.3L986.8,111.6
	L986.8,111.6z M994.5,107.7c0-3.8,1-7,2.9-9.9l1.8,0.8c-3.1,5.6-3.1,12.7,0,18.3l-1.8,0.8C995.6,114.7,994.5,111.5,994.5,107.7z
	 M1018.1,106.2c-0.6,2.4-1.7,4.3-3.2,5.8c1.1,0.6,2.4,1.1,3.7,1.4c-0.5,0.5-1.2,1.4-1.5,2c-1.6-0.4-2.9-1.1-4.1-1.9
	c-1.2,0.8-2.6,1.4-4.2,1.8c-0.2-0.6-0.7-1.4-1.1-1.9c-0.1,0.7-0.2,1.1-0.7,1.4c-0.5,0.4-1.3,0.4-2.4,0.4c-0.1-0.6-0.3-1.5-0.6-2.1
	c0.6,0,1.2,0,1.4,0c0.2,0,0.3-0.1,0.3-0.3V109c-0.5,0.3-1,0.7-1.5,0.9l-0.6-1.4c-0.1,2.4-0.5,5-1.2,6.8c-0.4-0.3-1.3-0.8-1.8-1
	c1.6-4.7,0.9-11.3,1.1-16.2h6v5.7c2.9-1.5,2.2-3.4,2.3-5.7h6.4v4.2c0,0.6,0,0.8,0.3,0.8c0.5,0,1.2,0,1.7-0.1
	c0.1,0.6,0.1,1.3,0.2,1.8c-0.5,0.2-1.5,0.1-2.1,0.1c-1.8,0-2.2-0.8-2.2-2.6v-2.1h-2.2c0,1.8-0.6,3.9-3.1,5.2
	c-0.2-0.4-0.9-1.1-1.3-1.4v8.8c0,0.2,0,0.3,0,0.4c1.3-0.3,2.5-0.8,3.6-1.4c-1-1.1-1.8-2.3-2.5-3.7l0.9-0.3h-1.4v-2.1h7.8l0.4-0.1
	L1018.1,106.2L1018.1,106.2z M1003.8,105.1c0,0.8,0,1.7-0.1,2.6c0.6-0.2,1.2-0.4,2-0.7v-2.1l-0.8,0.6c-0.2-0.4-0.7-0.9-1.2-1.5
	L1003.8,105.1L1003.8,105.1z M1003.8,100.2v2.4l0.5-0.4c0.5,0.4,1,1,1.4,1.4v-3.4L1003.8,100.2L1003.8,100.2z M1011,107.9
	c0.5,1,1.2,1.9,2.1,2.7c0.8-0.8,1.5-1.7,2.1-2.7H1011z M1020.3,116.9c3.1-5.6,3.1-12.7,0-18.3l1.7-0.8c3.8,5.6,3.8,14.2,0,19.8
	L1020.3,116.9L1020.3,116.9z M870.6,115.2h1.1V95.6h-1.1V115.2z M677.8,108l0.6-0.3c0.1,0.8,1.6,0.9,1.6,0c0-0.9-2-0.8-2-2.1
	c0-1.6,2.3-1.6,2.6-0.5l-0.6,0.3c-0.4-0.6-1.3-0.5-1.3,0.2c0,0.9,2,0.6,2,2.1C680.7,109.4,678.1,109.5,677.8,108L677.8,108z
	 M681.5,104.4h0.7v3c0,1.3,2.2,1.3,2.2,0v-3h0.7v3c0,2.2-3.7,2.2-3.7,0L681.5,104.4L681.5,104.4z M686.8,105.8v3.1h-0.7l0,0v-4.7
	l3.3,3.3v-3.1h0.7v4.7L686.8,105.8z M681.7,111.2h0.7v3c0,1.3,2.2,1.3,2.2,0v-3h0.7v3c0,2.2-3.7,2.2-3.7,0L681.7,111.2L681.7,111.2z
	 M687.1,112.5v3.1h-0.7l0,0V111l3.3,3.3v-3.1h0.7v4.7L687.1,112.5z M675.3,111.1h0.7l-1.5,2.4v2.1h-0.7l0,0v-2.1l-1.5-2.4h0.8
	l1.1,1.8L675.3,111.1z M680.9,113.4c0,3.1-4.8,3.1-4.8,0C676.1,110.3,680.9,110.3,680.9,113.4z M680.1,113.4c0-2.2-3.2-2.2-3.3,0
	C676.9,115.6,680.1,115.6,680.1,113.4z M695.7,113.3c0.3,3.3-3.5,2.9-4.2,1.1c-1.2-2.9,2.2-4.6,3.9-2.6l-0.5,0.4
	c-0.9-1.1-2.8-0.3-2.8,1.2c0,2.2,3,2.1,3,0.6h-1.1v-0.6H695.7z M729.6,111.9v2.3h-17.4v-2.3h6.9V97.5h2.5v5.5h6.8v2.3h-6.8v6.6
	H729.6z M737.4,107.5c-0.6,0.2-1.1,0.3-1.7,0.5v4.6c0,1.1-0.2,1.7-0.8,2.1c-0.6,0.4-1.5,0.5-2.9,0.5c-0.1-0.6-0.3-1.6-0.6-2.2
	c0.8,0,1.5,0,1.8,0c0.2,0,0.3-0.1,0.3-0.4v-3.9l-2.1,0.6l-0.5-2.2c0.7-0.2,1.6-0.4,2.6-0.6V103h-2.2v-2.1h2.2v-3.6h2.2v3.6h1.6v2.1
	h-1.6v2.9l1.5-0.4L737.4,107.5L737.4,107.5z M741.6,106.9c-0.2,0.3-0.4,0.7-0.6,1h7.4c0,0,0,0.5-0.1,0.8c-0.5,5.6,0,6.7-4.2,6.5
	c0-0.6-0.2-1.4-0.6-1.9c0.7,0.1,1.2,0.1,1.5,0.1c0.2,0,0.4,0,0.6-0.2c0.2-0.3,0.4-1.2,0.6-3.5h-0.6c-0.9,2.3-2.3,4.2-3.8,5.5
	c-0.3-0.3-1.1-0.9-1.5-1.1c1.4-1.1,2.6-2.6,3.4-4.4h-0.9c-1.2,2.1-2.9,3.9-4.7,5c-0.3-0.3-1-1-1.4-1.3c1.6-0.9,3-2.2,4-3.8h-1
	c-0.6,0.7-1.2,1.2-1.8,1.7c-0.3-0.3-1-0.9-1.5-1.2c1.2-0.8,2.3-1.9,3.1-3.2h-2v-1.8H749v1.8L741.6,106.9L741.6,106.9z M747.6,104.2
	h-8.9v-6.4h8.9V104.2z M745.5,99.3h-4.7v1h4.7V99.3z M745.5,101.7h-4.7v1h4.7V101.7z M767.3,98.1v17.1h-2.3v-0.8h-11.9v0.8H751V98.1
	H767.3z M765.1,112.4v-12.3h-2.4c0.6,0.3,1.3,0.8,1.6,1.1l-0.8,0.8h0.9v1.6H761c0.1,1.1,0.2,2.1,0.4,2.9c0.4-0.8,0.7-1.5,0.9-2.4
	l1.7,0.3c-0.5,1.7-1.1,3.1-2,4.4c0.2,0.6,0.5,0.9,0.9,1c0.2,0.1,0.4-0.7,0.4-1.8c0.3,0.3,1,0.9,1.4,1.1c-0.3,2.4-1.3,3.1-2.6,2.5
	c-0.6-0.2-1.1-0.6-1.4-1.3c-0.6,0.6-1.3,1.2-2,1.6c-0.2-0.3-0.9-1.1-1.2-1.4c0.2-0.1,0.4-0.2,0.6-0.4c-1.5,0.2-3,0.4-4.3,0.7
	l-0.2-1.7c1.4-0.2,3.4-0.4,5.4-0.7l0,1c0.3-0.3,0.7-0.6,1-1c-0.4-1.4-0.7-3.1-0.8-5h-5.3V102h5.2c0-0.5-0.1-1.1-0.1-1.6h1.9
	c0,0.5,0,1.1,0.1,1.6h2.1c-0.4-0.3-1-0.8-1.5-1l0.9-0.9h-9.2v12.3C753.2,112.4,765.1,112.4,765.1,112.4z M758.6,108.1h-4.3v-3.6h4.3
	V108.1z M757.1,105.7h-1.3v1.2h1.3V105.7z M778.3,105.6c-0.6,0.7-1.2,1.2-2,1.7c-0.2-0.4-0.7-1-1.1-1.3c0.4,1.4,0.4,3.6-0.6,4.3
	c-0.3,0.2-0.6,0.4-1,0.4c-0.3,0-0.8,0-1.2,0c0-0.5-0.2-1.3-0.5-1.9c0.3,0,0.6,0,0.8,0c0.7,0,0.8-0.5,0.8-1.3c0-0.9-0.2-2.2-1.2-3.5
	c0.4-1.2,0.7-2.7,1-4H772v15.1h-2V98h4l0.3-0.1l1.4,0.8c-0.2,0.8-0.5,1.7-0.7,2.5c1-1,1.9-2.4,2.4-3.9l1.7,0.4
	c-0.1,0.3-0.2,0.7-0.4,1h1.4l0.3-0.1l1.1,0.4l-0.1,0.3l1-0.2l0-0.9h3l0.4-0.1l1.2,0.7c-0.5,1.6-1.4,3.3-2.3,4.4
	c0.7,1,1.6,1.9,2.7,2.4c-0.4,0.4-1,1.1-1.3,1.6c-0.9-0.5-1.6-1.2-2.3-2v1.2h-5.6L778.3,105.6L778.3,105.6z M777.7,103.7
	c0.2-0.3,0.5-0.6,0.7-1c-0.4-0.4-0.9-0.8-1.3-1.2c-0.4,0.5-0.8,1-1.2,1.4c-0.2-0.2-0.7-0.6-1-0.9c-0.2,0.6-0.4,1.3-0.6,1.8
	c0.5,0.8,0.8,1.5,1,2.1c0.8-0.4,1.4-1,2-1.8c-0.8,0.1-1.4,0.2-2.1,0.4l-0.2-1.4c0.8-0.1,1.6-0.2,2.7-0.3L777.7,103.7L777.7,103.7z
	 M779.2,110.9c-0.7,1.2-1.8,2.6-2.6,3.5c-0.4-0.4-1.3-0.9-1.8-1.2c0.8-0.8,1.8-1.9,2.4-3L779.2,110.9z M782.3,109.6v5.5h-2.1v-5.5
	h-3.6v-1.8h9.3v1.8H782.3z M778,100.1l-0.1,0.2c0.4,0.3,0.8,0.7,1.2,1c0.2-0.4,0.3-0.8,0.5-1.2C779.5,100.1,778,100.1,778,100.1z
	 M783.4,104.7c-0.9-1.3-1.6-2.9-2.2-4.6c-0.5,1.8-1.2,3.3-2.2,4.6H783.4z M783,99.8c0.2,0.7,0.5,1.3,0.8,1.9
	c0.4-0.6,0.7-1.2,0.9-1.9H783z M784.8,110.1c0.8,0.9,2,2.3,2.6,3.1l-1.8,1.1c-0.5-0.8-1.7-2.2-2.5-3.3L784.8,110.1L784.8,110.1z
	 M794.6,103.9c-0.2,2.8-0.8,5.1-1.5,7c3.2,2.7,9.1,1.7,13.3,1.8c-0.3,0.5-0.7,1.5-0.8,2.1c-4.1-0.1-10.5,0.7-13.5-2.1
	c-0.6,1-1.3,1.8-2.1,2.4c-0.3-0.4-1.2-1.2-1.7-1.5c0.9-0.6,1.7-1.5,2.3-2.5c-0.6-1-1.2-2.2-1.7-3.7l1.7-0.6c0.2,0.9,0.6,1.6,0.9,2.2
	c0.3-1,0.6-2.1,0.8-3.4h-3.1c0.8-1.4,1.7-3.5,2.5-5.4H789v-2h5.9c-0.7,1.7-1.6,3.7-2.4,5.4h0.5l0.4,0L794.6,103.9z M798.6,100.5
	h-3.3v-1.7h3.3v-1.4h2.2v1.4h4.2v2.6h1.1v1.7H805v2.6h-4.2v0.9h4.4v1.7h-4.4v0.9h5v1.8h-5v1.3h-2.2v-1.3h-4.2v-1.8h4.2v-0.9h-3.5
	v-1.7h3.5v-0.9h-3.3v-1.7h3.3v-0.8h-4.3v-1.7h4.3V100.5L798.6,100.5z M800.8,100.5v0.8h2.2v-0.8H800.8z M803,103.1h-2.2v0.8h2.2
	V103.1z M825.5,100h-3.3c0.4,0.4,0.8,0.8,1,1.1l-1.6,1.1h1.3c0,0.4-0.1,3.9,0,4.2c0.1,0.2,0.3,0.1,0.5,0.1c0.3,0,0.3-0.1,0.4-0.4
	c0-0.2,0.1-0.7,0.1-1.3c0.3,0.3,1,0.6,1.5,0.8c0,0.7-0.1,1.5-0.2,1.9c-0.2,0.3-0.4,0.6-0.6,0.7c-0.5,0.3-1.4,0.2-2,0.2
	c-0.5,0-1-0.1-1.3-0.5c-0.3-0.3-0.4-0.7-0.5-1.6l-0.8,1.4c-0.3-0.2-0.8-0.4-1.3-0.7c-0.2,0.4-0.6,0.7-1.1,1h0.2v1.1h7.6v1.8h-5.1
	c1.6,0.7,3.8,1.7,4.9,2.4l-1.6,1.6c-1-0.8-3.2-1.9-4.8-2.6l1.5-1.4h-2.4v4.3h-2.2v-4.3H808v-1.8h7.5v-1.1h0.3
	c-0.2-0.2-0.5-0.5-0.8-0.6v0.1c-2.4,0.3-4.8,0.6-6.7,0.9l-0.2-1.8c0.7-0.1,1.6-0.2,2.6-0.3v-2.3h-2.4v-1.6h4.8
	c-0.4-0.5-1-1.2-1.5-1.7l0.7-0.6h-1.3c-0.6,0.8-1.2,1.5-1.9,2c-0.3-0.4-1.1-1.2-1.5-1.6c1.2-0.8,2.3-2.1,2.9-3.3l2,0.6
	c-0.1,0.2-0.2,0.4-0.3,0.6h4.2v1.7h-2.8c0.5,0.5,0.9,0.9,1.2,1.3l-1.3,1h1.5v1.6h-2.3v2.1c0.7-0.1,1.5-0.2,2.2-0.3l0.1,1.5
	c0.9-0.3,1.5-0.7,1.8-1.1c-0.5-0.3-1.1-0.5-1.6-0.8l0.8-1.3c0.4,0.2,0.9,0.4,1.4,0.6c0-0.2,0-0.7,0-0.9h-1.8v-1.5h5.8
	c-0.3-0.5-1-1.2-1.5-1.7l0.7-0.5h-1.5c-0.5,0.8-1.1,1.5-1.7,2c-0.4-0.4-1.2-1-1.7-1.4c1.1-0.9,2.1-2.2,2.6-3.5l2,0.5
	c-0.1,0.2-0.2,0.4-0.3,0.7h5.3L825.5,100L825.5,100z M814.7,111.7c-1.2,1.5-3.2,2.7-5.3,3.3c-0.3-0.6-1-1.4-1.5-1.9
	c1.9-0.4,3.9-1.2,4.9-2.2L814.7,111.7L814.7,111.7z M819.4,104.4c0,0.4,0,0.7-0.1,1c0.6,0.3,1,0.5,1.4,0.8v-2.4h-1.3V104.4z
	 M843.9,97.9v17.2h-2.2v-0.9h-11.9v0.9h-2V97.9H843.9z M841.7,112.5V99.6h-11.9v12.9H841.7z M841.3,109.8h-2.5v1.2
	c0.1,1.6-1.6,1.2-3,1.3c-0.1-0.4-0.3-0.8-0.5-1.1c0.5,0,1.2,0,1.3,0c0.2,0,0.3-0.1,0.3-0.2v-1.1h-3.4c0.5,0.5,1,1.1,1.3,1.5
	l-1.5,0.8c-0.2-0.5-0.8-1.2-1.3-1.7l1.2-0.6h-3v-1.2h6.7V108h1.9v0.6h1c-0.1-0.2-0.3-0.4-0.6-0.7c-3.2,0.1-6.3,0.2-8.7,0.2l-0.1-1.2
	h4.3v-0.6H831v-3.9h3.8v-0.6h-4.3v-1.2h4.3v-0.7h1.9v0.7h4.4v1.2h-4.4v0.6h3.8v3.9h-1c0.6,0.5,1.2,1.1,1.6,1.5l-1,0.8h1.1V109.8
	L841.3,109.8z M832.8,103.9h2.1v-0.6h-2.1V103.9z M834.8,105.4v-0.6h-2.1v0.6H834.8z M836.7,103.3v0.6h2v-0.6H836.7z M838.7,104.8
	h-2v0.6h2V104.8z M836.7,106.9h1.5l-0.2-0.2l0.6-0.4h-2V106.9z M852.8,98.9c-0.5,1.6-1.1,3.7-1.7,5.2c1.2,1.5,1.4,2.8,1.4,3.9
	c0,1.2-0.2,2-0.9,2.4c-0.3,0.2-0.6,0.3-1.1,0.4c-0.4,0-0.8,0.1-1.2,0c0-0.5-0.2-1.4-0.5-1.9c0.3,0,0.6,0,0.8,0
	c0.2,0,0.4-0.1,0.5-0.2c0.2-0.2,0.3-0.6,0.3-1.1c0-0.9-0.2-2.1-1.3-3.4c0.4-1.2,0.8-2.9,1.1-4.2h-1.5v15h-2V98.1h4.2l0.3-0.1
	L852.8,98.9L852.8,98.9z M863.7,104.3c-0.7,0.5-1.5,1-2.3,1.4c0.7,2,1.8,4.1,2.9,5.3c-0.5,0.3-1.1,1-1.4,1.4c-1.2-1.4-2.3-3.7-3-5.8
	l-0.1,0c0.9,3,0.5,6.2-0.6,7.3c-0.6,0.7-1.2,1-2.2,1c-0.4,0-1,0-1.5,0c0-0.6-0.2-1.4-0.5-2c0.6,0.1,1.3,0.1,1.7,0.1
	c0.5,0,0.8-0.1,1-0.5c0.3-0.4,0.6-1.3,0.6-2.5c-1.4,1.1-3.3,2.1-4.8,2.7c-0.3-0.5-0.9-1.2-1.3-1.6c2.1-0.6,4.6-1.9,6-3.3
	c-0.1-0.3-0.2-0.6-0.3-1c-1.1,0.9-2.5,1.8-3.7,2.4c-0.3-0.5-0.8-1.2-1.2-1.6c1.4-0.5,3.2-1.5,4.3-2.4c-0.2-0.3-0.4-0.7-0.7-1
	c-1,0.7-2.1,1.3-3.1,1.8c-0.3-0.4-0.9-1.2-1.3-1.6c1.4-0.5,2.8-1.3,4-2.1h-3.3v-2h3c-0.5-0.7-1.2-1.4-1.8-1.9l1.7-1
	c0.9,0.7,1.8,1.6,2.3,2.3l-0.9,0.7h1.7c0.6-0.8,1.4-2.1,1.7-3l2.2,0.6c-0.5,0.8-1.1,1.7-1.6,2.4h2.9v2h-5.1
	c-0.2,0.3-0.5,0.5-0.8,0.8c0.5,0.6,1,1.3,1.3,2c1.1-0.7,2.3-1.5,3.2-2.2L863.7,104.3L863.7,104.3z M584,105.3
	c-0.3,2.7-0.8,5-1.6,6.8c2.9,3.2,8.7,2.2,13,2.3c-0.2,0.3-0.4,0.9-0.5,1.3c-4.1-0.1-10.3,0.7-13-2.4c-0.7,1.2-1.4,2.1-2.3,2.8
	c-0.2-0.3-0.7-0.8-1-1c0.9-0.7,1.7-1.7,2.4-2.9c-0.7-1-1.2-2.2-1.6-3.7l1-0.4c0.3,1.1,0.7,2.1,1.2,2.8c0.5-1.3,0.9-2.8,1.1-4.5h-3
	c0.8-1.4,1.8-3.5,2.6-5.3h-3.2v-1.3h5.1c-0.8,1.7-1.7,3.7-2.5,5.3h1.3l0.2,0L584,105.3L584,105.3z M588.6,101.4h-3.5v-1.1h3.5v-1.6
	h1.3v1.6h4v2.5h1.3v1.2h-1.3v2.6h-4v1.4h4.3v1.1h-4.3v1.6h5v1.2h-5v1.9h-1.3v-1.9H584v-1.2h4.5v-1.6h-3.8V108h3.8v-1.4h-3.6v-1.2
	h3.6V104h-4.7v-1.2h4.7C588.6,102.8,588.6,101.4,588.6,101.4z M589.8,101.4v1.4h2.7v-1.4H589.8z M592.6,104h-2.7v1.4h2.7V104z
	 M599.8,100.9c-0.6,0.8-1.2,1.6-1.9,2.1c-0.2-0.2-0.7-0.7-1-1c1.1-0.9,2.2-2.2,2.8-3.6l1.2,0.4c-0.1,0.3-0.3,0.6-0.5,0.9h4.7v1.1
	h-3.5c0.5,0.5,1.2,1.3,1.5,1.7l-0.9,0.8c-0.3-0.5-1-1.3-1.6-1.9l0.9-0.6L599.8,100.9L599.8,100.9z M603.3,112.5
	c-1.2,1.4-3.3,2.7-5.2,3.3c-0.2-0.4-0.6-0.9-0.9-1.2c1.8-0.5,3.9-1.5,5-2.6L603.3,112.5L603.3,112.5z M605.9,110.4h7.5v1.1h-7.5v4.6
	h-1.3v-4.6h-7.4v-1.1h7.4v-1l-0.2,0.1c-0.2-0.3-0.6-0.7-0.9-0.9c1.2-0.5,2-1,2.4-1.6c-0.6-0.3-1.2-0.6-1.8-0.8l0.5-0.9
	c0.5,0.2,1.1,0.5,1.7,0.8c0.2-0.4,0.1-1,0.1-1.5h-2.1v-1h6.5c0.1,0.4-0.1,4.4,0.1,4.6c0.1,0.1,0.6,0.1,0.8,0.1c0.1,0,0.3,0,0.3-0.1
	c0.1,0,0.2-0.2,0.2-0.4c0-0.2,0-0.8,0.1-1.5c0.2,0.2,0.6,0.4,0.9,0.5c0,0.7-0.1,1.5-0.2,1.8c-0.2,0.6-0.7,0.8-1.3,0.7
	c-0.6,0-1.4,0.1-1.9-0.3c-0.3-0.2-0.3-0.5-0.3-1.6v-2.9h-2c0,0.7,0,1.3-0.2,2c0.7,0.3,1.4,0.7,1.8,0.9l-0.5,1
	c-0.5-0.3-1.1-0.6-1.8-1c-0.4,0.6-1,1.2-1.9,1.6h0.9L605.9,110.4L605.9,110.4z M597.2,108.1c0.8-0.1,1.7-0.2,2.8-0.4v-3h-2.5v-1.1
	h6.2v1.1h-2.4v2.8l2.5-0.4l0,1.1c-2.3,0.4-4.6,0.8-6.4,1L597.2,108.1L597.2,108.1z M613.5,99.8v1.1h-3.9c0.5,0.5,1.2,1.2,1.5,1.6
	l-1,0.8c-0.3-0.5-1-1.2-1.5-1.8l0.8-0.6h-2.2c-0.5,0.8-1.1,1.5-1.7,2.1c-0.2-0.2-0.7-0.7-1-0.8c1.1-0.9,2-2.2,2.5-3.7l1.2,0.3
	c-0.1,0.3-0.2,0.6-0.4,0.9H613.5z M608.1,111.9c1.7,0.8,3.8,1.9,4.9,2.7l-0.9,1c-1.1-0.8-3.2-2.1-4.9-2.8L608.1,111.9L608.1,111.9z
	 M621.4,99.3c-0.5,1.4-1.2,2.6-1.9,3.9v13h-1.4v-10.9c-0.8,1.1-1.6,2-2.5,2.8c-0.2-0.3-0.5-1.1-0.8-1.4c2.1-1.9,4.1-4.8,5.3-7.8
	L621.4,99.3z M626.2,105.8c0.6,5.1,1.8,8.5,3.8,8.7c0.5,0,0.8-1.1,1-3.3c0.3,0.3,0.9,0.6,1.1,0.8c-0.4,3.3-1.1,4.3-2.1,4.2
	c-3-0.2-4.5-4.2-5.1-10.2l-4.4,0.6l-0.2-1.3l4.4-0.6c-0.2-1.8-0.3-3.7-0.3-5.7h1.3c0,1.9,0.2,3.8,0.3,5.5l5.5-0.7l0.2,1.3
	L626.2,105.8L626.2,105.8z M630.3,102.9c-0.6-0.9-1.9-2.2-2.9-3.2l1-0.7c1.1,0.9,2.4,2.2,3,3.1L630.3,102.9L630.3,102.9z M640.2,114
	c-2.3,0.5-4.7,1.1-6.4,1.5l-0.3-1.3c0.8-0.1,1.8-0.4,3-0.6V108h-2.8v-1.2h2.8v-2.1h-1.7V104c-0.3,0.3-0.5,0.5-0.8,0.8
	c-0.1-0.3-0.5-1.1-0.7-1.4c1.4-1.2,2.7-2.9,3.5-4.7L638,99c-0.1,0.2-0.2,0.5-0.3,0.7c1.1,0.9,2.3,2.1,3,2.8l-0.8,1.1
	c-0.6-0.7-1.8-1.9-2.8-2.8c-0.5,1-1.2,1.9-1.9,2.6h4.2v1.2h-1.7v2.1h2.3v1.2h-2.3v5.3l2.5-0.5L640.2,114z M634.8,109
	c0.3,1.1,0.6,2.6,0.8,3.5l-1,0.3c-0.1-1-0.4-2.4-0.7-3.6L634.8,109L634.8,109z M638.2,112.3c0.3-0.9,0.7-2.5,0.9-3.5l1.1,0.3
	c-0.3,1.2-0.8,2.6-1.1,3.5L638.2,112.3L638.2,112.3z M649.3,114.4c0,2-1.5,1.6-3.5,1.7c0-0.4-0.2-1-0.4-1.3c1,0,2,0,2.2,0
	c0.3,0,0.4-0.1,0.4-0.4V111c-1.8,0.5-3.7,1-5.2,1.4l-0.5-1.2c1.4-0.3,3.6-0.8,5.7-1.3v-4.5h-5.7c-0.1,3.4,0.4,7.7-1.2,10.9
	c-0.2-0.2-0.8-0.7-1-0.8c1.6-3.1,0.9-7.9,1-11.3h3.5v-5.4h1.3v5.4h3.5L649.3,114.4L649.3,114.4z M642.4,103.4c-0.3-1-1-2.5-1.8-3.6
	l1.1-0.6c0.8,1.1,1.6,2.5,1.9,3.5L642.4,103.4L642.4,103.4z M643.2,106.7c1.4,0.3,3.3,0.9,4.3,1.4l-0.5,1c-1-0.5-2.8-1.2-4.2-1.5
	L643.2,106.7z M649.9,99.7c-0.6,1.3-1.4,2.7-2,3.6l-1.1-0.5c0.6-1,1.4-2.5,1.9-3.6L649.9,99.7L649.9,99.7z M297.5,95.2h1.3v27h-1.3
	V95.2z M423.2,102.5c0.2,3.5,0.5,6.9,1,9.8c0.9-2.2,1.6-4.7,2.1-7.4l2.9,0.6c0,0.2-0.3,0.3-0.6,0.3c-0.8,3.9-1.9,7.3-3.6,10.1
	c0.6,2.3,1.4,3.7,2.3,3.7c0.6,0,0.9-1.5,1-5c0.5,0.6,1.3,1.2,2,1.5c-0.4,4.8-1.2,6.1-3.2,6.1c-1.6,0-2.8-1.4-3.8-3.7
	c-1.2,1.4-2.5,2.7-4.1,3.7c-0.4-0.5-1.1-1.4-1.6-1.8l0.2-0.1c-0.5-0.5-1.2-1.1-1.9-1.7c-1.1,1.4-2.7,2.6-4.9,3.5
	c-0.2-0.6-0.8-1.4-1.3-1.8c2-0.7,3.4-1.7,4.4-2.9c-0.6-0.4-1.1-0.8-1.7-1.1l-0.3,0.7l-1.8-1c0.5-1.3,1.1-3,1.6-4.8h-1.8v-2.1h2.5
	c0.3-0.9,0.5-1.7,0.7-2.5h-2.8v-2.1h9.4v2.1h-4.2v0l0.3,0c0,0.2-0.2,0.3-0.6,0.4c-0.2,0.6-0.4,1.3-0.6,2.1h5.7v2.1h-1.8
	c-0.3,1.9-0.8,3.9-1.6,5.6c0.8,0.6,1.5,1.2,2,1.7l-1.1,1.8c1.8-1.1,3.2-2.7,4.4-4.5c-0.9-3.6-1.3-8.3-1.6-13.2h-11.3
	c-0.1,6.3,0.6,13.9-2.7,19.7c-0.4-0.5-1.4-1.3-1.9-1.6c3.2-6,2-14.1,2.3-20.5h13.6c-0.1-1.3-0.1-2.7-0.1-4l3.2,0.2
	c0,0.2-0.2,0.4-0.7,0.5v3.3h4c-0.8-0.8-2.1-1.9-3.2-2.6l1.5-1.4c1.2,0.8,2.8,1.9,3.5,2.7l-1.3,1.3h1.9v2.4H423.2z M414.1,111.1
	c-0.4,1-0.7,2.1-1.1,3.1c0.7,0.4,1.5,0.8,2.2,1.3c0.7-1.4,1.1-2.9,1.3-4.4L414.1,111.1L414.1,111.1z M452.5,102c0.6,0,0.6,0,1.2,0
	l1.5,0.1c0,0.2,0,0.6-0.1,0.9c-0.4,12-0.7,16.2-1.8,17.6c-0.9,1.8-4.5,1.4-6.7,1.4c0-0.8-0.4-2-0.9-2.8c1.8,0.1,3.4,0.1,4.1,0.1
	c0.6,0,0.9-0.1,1.2-0.4c0.8-0.9,1.2-4.7,1.5-14.2h-8.5c-0.4,5.9-2.2,12.8-9.9,17.6c-0.4-0.6-1.4-1.7-2-2.1c7-4.2,8.8-10.3,9.2-15.4
	h-8.4V102h8.5v-6l3.3,0.2c0,0.2-0.2,0.4-0.6,0.5v5.3H452.5L452.5,102z M459.3,97.2h22.6v25h-2.5V121h-17.7v1.3h-2.4V97.2z
	 M461.7,118.6h17.7V99.6h-17.7V118.6z M462.7,114.2c2-0.3,4.9-0.8,7.9-1.3l0.1,1.7c-2.6,0.5-5.2,1.1-6.9,1.4c0,0.2-0.2,0.4-0.4,0.4
	L462.7,114.2L462.7,114.2z M473,104.9c0.2,2,0.4,3.9,0.8,5.5c0.7-1.4,1.2-2.8,1.6-4.5l2.4,0.6c-0.1,0.2-0.3,0.3-0.6,0.3
	c-0.6,2.3-1.5,4.4-2.7,6.2c0.5,1.3,1.2,2.2,1.9,2.2c0.3,0,0.6-1.2,0.7-2.8c0.4,0.4,1.2,1,1.6,1.2c-0.4,3-1.2,4.4-3.1,3.7
	c-1-0.3-1.9-1.2-2.5-2.5c-1,1.2-2.1,2.1-3.3,2.9c-0.3-0.4-0.9-1.1-1.3-1.5c1.5-0.9,2.7-2,3.8-3.5c-0.6-2.2-1.1-4.9-1.3-8h-7.9v-2
	h7.8l-0.2-2.7l2.7,0.1c0,0.2-0.2,0.4-0.6,0.4c0,0.7,0.1,1.5,0.1,2.2h3.8c-0.6-0.6-1.7-1.4-2.7-1.9l1.1-1.2c1,0.5,2.2,1.3,2.8,1.9
	l-1.2,1.3h1.6v2H473z M463.8,106.5h6v5.5h-6V106.5z M468,110.4V108h-2.6v2.4H468z M507.9,98.3l1.6,0.9c0,0.1-0.2,0.2-0.4,0.3
	c-0.7,2-1.8,4.4-3.1,6.2c1.1,1.4,2.4,2.5,3.9,3.3c-0.5,0.4-1.2,1.3-1.5,2c-1.2-0.7-2.4-1.7-3.3-2.7v1.6h-8.4v-1.5
	c-1,1.1-2,2.1-3.2,2.8c-0.2-0.4-0.7-1.1-1.1-1.6c0.3,0.9,0.4,1.8,0.4,2.6c0,4-1.7,4.2-3.7,4.2c0-0.6-0.2-1.6-0.4-2.1
	c1.4,0,2,0.5,2-2.3c0-1.5-0.5-3.4-1.9-5.6c0.5-2,1.1-4.6,1.5-6.6H488v22.6h-2.2v-25h5.2l0.3-0.1l1.5,0.9c0,0.1-0.1,0.3-0.2,0.3
	c-0.3,1.4-0.7,3.1-1.2,4.8c1.7-1.5,3.1-4.3,3.8-7.1l2.4,0.7c-0.1,0.2-0.2,0.3-0.6,0.3c-0.1,0.5-0.3,0.9-0.5,1.4h2.8l0.4-0.1l0.8,0.3
	c-0.1-0.5-0.3-1.1-0.4-1.7l2-0.4c0.5,2.7,1.4,5.2,2.6,7.3c0.7-1,1.2-2.3,1.7-3.5h-3v-2h4.1L507.9,98.3L507.9,98.3z M496.1,101.3
	c0.5,0.3,1.1,0.7,1.6,1.1c0.3-0.6,0.5-1.3,0.7-2h-2.7c-0.8,1.6-1.8,3.1-2.9,4.2c-0.3-0.4-0.9-0.9-1.4-1.3c-0.2,1-0.5,1.9-0.7,2.7
	c0.7,1.2,1.2,2.2,1.5,3.2c1.1-0.7,2.2-1.7,3.2-2.8c-0.5-0.5-1.2-1.1-1.8-1.6l1-1.1c0.6,0.4,1.2,0.9,1.7,1.4c0.3-0.4,0.5-0.9,0.8-1.3
	c-0.5-0.5-1.2-1-1.8-1.4L496.1,101.3L496.1,101.3z M497.2,116.4c-0.9,1.8-2.3,3.7-3.7,5c-0.4-0.4-1.1-1.1-1.6-1.5
	c1.3-1.1,2.6-2.9,3.4-4.7c2.2,0.8,2.4,0.9,2.5,0.9C497.7,116.3,497.4,116.4,497.2,116.4L497.2,116.4z M507.8,114.3H502v5.4
	c0,2.2-0.8,2.5-4.6,2.5c-0.1-0.7-0.4-1.6-0.8-2.2c0.6,0,1.1,0,1.6,0c1.4,0,1.4,0,1.4-0.4v-5.4h-5.5v-2.2h13.6V114.3L507.8,114.3z
	 M504.6,107.7c-1.7-2.1-2.9-4.9-3.8-8.1c-0.7,3.2-2,5.9-3.6,8.1C497.2,107.7,504.6,107.7,504.6,107.7z M507.3,121.2
	c-0.7-1.3-2.3-3.3-3.7-4.8l1.8-1.2c1.4,1.3,3.1,3.3,3.8,4.6L507.3,121.2z M522.6,106.9h-7.6v15.3h-2.5v-25h10V106.9z M520.3,99.2
	h-5.2v1.9h5.2V99.2z M515.1,105h5.2v-2.1h-5.2V105z M530.8,115.6h-3.4v6.1h-2.3v-6.1h-3.3c-0.3,1.8-1.2,4.7-3.5,6.3
	c-0.4-0.5-1.1-1.2-1.6-1.6c1.9-1.3,2.7-3.3,2.9-4.8h-3v-2.2h3.2v-2.7h-2.7v-2.1h13.1v2.1h-2.8v2.7h3.4L530.8,115.6L530.8,115.6z
	 M522,113.4h3.2v-2.7H522V113.4z M535,97.2V119c0,2.7-0.9,3.2-5.4,3.2c-0.1-0.7-0.4-1.9-0.8-2.6c0.7,0,1.4,0,2,0
	c1.6,0,1.8,0,1.8-0.6v-12h-7.8v-9.8C524.7,97.2,535,97.2,535,97.2z M532.5,99.2h-5.4v1.9h5.4V99.2z M527.2,105h5.4v-2.1h-5.4V105z
	 M546.4,113.6l0.5,0l1.3,0.2c0,0.2,0,0.5-0.1,0.7c-0.5,8.8-1.8,7.6-6.8,7.6c0-0.7-0.3-1.7-0.7-2.3c1.4,0.1,2.8,0.1,3.3,0.1
	s0.8,0,1-0.2c0.4-0.4,0.6-1.5,0.9-4.2h-4.1c-0.1,0.3-0.1,0.6-0.2,0.8l-2-0.4c0.4-1.8,0.9-4.6,1.2-6.8h5.3v-2.6h-3.5
	c-1,0.7-2.1,1.3-3.2,1.8c-0.3-0.6-1-1.5-1.5-2c1.6-0.6,3.3-1.6,4.7-2.8c-0.7-0.7-1.9-1.6-2.8-2.2l1.4-1.4c1,0.6,2.3,1.4,3,2.1
	c0.8-0.9,1.5-1.8,2.1-2.8h-6.5v-2.1h7.9l0.4-0.1l1.7,0.8c-0.1,0.2-0.2,0.2-0.3,0.4c-0.9,2.4-2.5,4.4-4.3,6.2h3.1v7.3h-2.3v-0.6h-3.5
	l-0.4,2.3L546.4,113.6L546.4,113.6z M558.8,112.6l1.4,0.5c0,0.1-0.1,0.2-0.2,0.3c-0.7,2.1-1.8,3.7-3.2,5c1.5,0.8,3.2,1.3,5.1,1.6
	c-0.5,0.5-1.1,1.5-1.5,2.2c-2.1-0.4-4-1.2-5.5-2.2c-1.6,1-3.4,1.7-5.4,2.2c-0.2-0.6-0.7-1.5-1.1-2c1.8-0.3,3.4-0.9,4.8-1.7
	c-1.1-1-1.9-2.3-2.6-3.7l1.4-0.4h-2.3v-1.9h8.8L558.8,112.6L558.8,112.6z M559.2,98c-0.1,0.1-0.4,0.2-0.6,0.1
	c-0.8,0.8-2.2,1.8-3.3,2.6c0.5,0.6,0.9,1.1,1.5,1.6c1.2-0.9,2.6-2.2,3.5-3.2l2.1,1.6c-0.1,0.1-0.3,0.2-0.6,0.1
	c-0.8,0.8-2.3,1.9-3.4,2.7c1.4,1,2.9,1.8,4.6,2.4c-0.5,0.5-1.2,1.5-1.5,2.1c-1.1-0.4-2.2-0.9-3.2-1.6v2.4c0,0.7,0,0.8,0.5,0.8
	c0.9,0,1,0,1.1,0c0.3-0.1,0.4-0.5,0.4-1.3c0.4,0.4,1.2,0.8,1.8,1c0,2.4-1.4,2.4-3.8,2.3c-2.1,0-2.1-1.6-2.1-2.8v-2.2h-3.2
	c0,1.3-0.1,4-2.9,5.8c-0.3-0.5-1.1-1.3-1.6-1.6c3-1.7,2.3-3.8,2.4-6.2h4.9c-2.2-2.1-3.9-4.7-5.1-7.8l2-0.6c0.4,1.1,0.9,2.2,1.6,3.1
	c1-0.9,2.2-2,2.9-2.8L559.2,98L559.2,98z M552.5,114.6c0.6,1.1,1.4,2,2.4,2.8c0.9-0.8,1.7-1.7,2.2-2.8H552.5z M208,108.2h11.6v-7
	c0-1.2-1-2.2-2.2-2.2h-11.6v7C205.8,107.2,206.7,108.2,208,108.2z M207.7,104.5h8.2c0.4,0,0.8-0.3,0.8-0.8v-1h-8.9v-1.9h9.4
	c0.2,0,0.4,0.2,0.4,0.4v5.2h-9.4c-0.2,0-0.4-0.2-0.4-0.4V104.5z M197.2,122.2l0.6,1c0.2,0.4,0.8,0.5,1.2,0.2c1.7-1.3,2.4-2.8,2.4-5
	c0,0,0-4.1,0-4.1l2-0.7c0.4-0.1,0.6-0.5,0.6-0.9v-1.2l-2.7,0.9v-6.8h1.8c0.4,0,0.8-0.3,0.8-0.8v-1h-2.6v-5c-0.7,0.1-2-0.3-2,0.8
	c0,0,0,4.3,0,4.3h-2.9v1.8h2.9v7.5l-2.9,1v1.9l2.9-1v3.5C199.4,120.2,198.8,121.2,197.2,122.2L197.2,122.2z M215.9,121.8
	c0.3,0.7,0.4,1.8,1.3,1.8c2.5,0,3.9-2.3,3.7-4.3c0,0,0-4,0-4c0-1.4-1.1-2.5-2.5-2.5h-10.5c0.2-0.6,0.3-1.2,0.4-1.6h11.8
	c0.4,0,0.8-0.3,0.8-0.8v-1h-16.7v1.8h2.2c-0.4,1.6-1.6,5.2-2.7,7.4l0,0.1h1.4c0.4,0,0.7-0.2,0.9-0.5c0.3-0.8,1.1-2.7,1.4-3.5h2.9
	c-0.9,3.1-2.6,5.6-5.2,8c0.3,0.3,0.8,1.1,1.2,1c0.2,0,0.4-0.1,0.6-0.2c2.8-2.5,4.3-5.4,5.3-8.8h2.6c-0.5,3-1.9,5.6-4.1,8.1
	c0.3,0.3,0.9,1,1.4,0.9c0.2,0,0.4-0.1,0.6-0.3c2.2-2.7,3.5-5.5,4.1-8.7h1.6c0.4,0,0.7,0.3,0.7,0.7v4c0,1.2-0.3,1.7-0.6,1.9
	C218,121.6,217.1,121.8,215.9,121.8 M180.4,117.2v-1.1l-9.9,0.9h0v1.9l9.1-0.8C180.1,118.1,180.4,117.7,180.4,117.2z M173,115h7.1
	v-6.1c0-1.2-1-2.2-2.2-2.2h-7.1v6.1C170.8,114,171.8,115,173,115z M172.8,108.4h4.9c0.2,0,0.4,0.2,0.4,0.4v4.4h-4.9
	c-0.2,0-0.4-0.2-0.4-0.4V108.4z M188.2,98.9h-21v21.7c0,1.5,1.2,2.7,2.7,2.7h21v-21.7C190.9,100.1,189.7,98.9,188.2,98.9z
	 M169.2,100.8h11.9l0.2,2.9h-12.1V100.8z M188.8,121.5h-18.7c-0.5,0-0.9-0.4-0.9-0.9v-15.2h12.2c0.2,2.9,0.3,6.8,1.4,9.5
	c-1,1.9-2.2,3.7-3.6,5.1l0.8,0.7c0.3,0.3,0.9,0.3,1.1,0c0.9-1.1,1.8-2.3,2.6-3.6c1,2,2,3.1,2.7,3.7c0.7,0.7,1.6-0.3,2.2-0.7
	c0,0-2.7-2-3.7-5c1.1-2,2.5-7,2.6-8.2v0h-1.9v0c-0.2,0.8-0.8,3.9-1.6,5.6c-0.4-1.6-0.6-5.2-0.7-6.9h3.1c1,0,1.9-0.9,1.7-1.9
	l-0.1-1.5c0-0.4-0.4-0.7-0.8-0.7H186l0.2,2.3h-3l-0.2-2.9h5c0.5,0,0.9,0.4,0.9,0.9V121.5L188.8,121.5z M263.1,113.3h-6.5v7.9
	c0,1.2,1,2.2,2.2,2.2h6.6v-7.9C265.3,114.3,264.3,113.3,263.1,113.3z M263.3,121.7H259c-0.2,0-0.4-0.2-0.4-0.4v-6.2h4.3
	c0.2,0,0.4,0.2,0.4,0.4V121.7z M257,111.2h6.9c0.4,0,0.8-0.4,0.8-0.8v-0.9H257V111.2z M264.7,106.9V106H257v1.7h6.9
	C264.4,107.7,264.7,107.3,264.7,106.9z M261.5,99.7c-0.1-0.4-0.6-0.8-1-0.8h-1.6l0.9,3.5h-4v1.8h9.4c0.4,0,0.8-0.4,0.8-0.8v-1h-3.8
	L261.5,99.7L261.5,99.7z M274.1,119c2.2-2.4,3.6-5.1,4.3-7c0.4-0.9-0.3-1.9-1.3-1.9h-10.6v1.7h9.9c-0.5,1.3-1.8,3.7-3.9,5.9
	c-1.8-1.8-3-3.6-3.6-4.9h-2.2c1,2.2,2.4,4.4,4.3,6.3c-1.4,1.2-3,2.2-4.9,2.9l0.5,1.1c0.2,0.4,0.6,0.6,1,0.4c2-0.8,3.6-1.8,5-3
	c1.7,1.3,3.6,2.4,6,3.1c0.3,0.1,0.6-0.1,0.8-0.4l0.8-1.3C277.7,121.3,275.7,120.2,274.1,119L274.1,119z M268,108.8
	c0.4,0,0.7-0.3,0.8-0.7c0.4-1.6,0.6-4.3,0.6-6.7h4.6c0.2,0,0.4,0.2,0.4,0.4v2.7c-0.2,2.1,1.2,4.3,3.9,4.3c0.8,0,0.9-1.1,1.3-1.8
	c-2.1-0.1-3-0.2-3.1-2.5c0,0,0-2.9,0-2.9c0-1.1-0.9-1.9-2-1.9h-7.2l0,1c0,4.1-0.6,7.3-0.8,8.2L268,108.8L268,108.8z M249,102.7
	c0-1.2-1-2.2-2.2-2.2h-4.1v-1.8h-1.3c-0.4,0-0.8,0.3-0.8,0.8v1h-5.4v1.8h5.4v2.1h-7.1v1.7h7.1v2.1h-5.4v1.8h5.4v2.1h-5.8v1.7h5.8
	v2.1h-6.9v1.7h6.9v3.1h1.3c0.4,0,0.8-0.3,0.8-0.8v-2.3h6.9c0.4,0,0.8-0.3,0.8-0.8v-0.9h-7.7v-2.1h5.7c0.4,0,0.8-0.3,0.8-0.8v-0.9
	h-6.5v-2.1h6.3V106h1.1c0.4,0,0.8-0.3,0.8-0.8v-0.9h-1.8L249,102.7L249,102.7z M242.8,102.3h3.9c0.2,0,0.4,0.2,0.4,0.4v1.7h-4.3
	V102.3z M247.1,108.2h-4.3V106h4.3V108.2z M232,118.8c-0.2-0.2-0.3-0.4-0.4-0.7c1.5-3.4,2-6.5,2.2-8.4c0.1-0.9-0.6-1.6-1.5-1.6h-2.6
	l3.5-6.2c0.5-0.8-0.1-1.8-1.1-1.8h-5.3v1.6h4.1l-3.5,6.3c-0.4,0.8,0.1,1.7,1,1.7h3.4c-0.1,1.2-0.5,3.5-1.4,6.1
	c-0.4-1-0.8-2.1-1.2-3.4h-2.1c0.8,2.4,1.5,4.4,2.3,5.9c-0.7,1.5-1.6,2.9-2.8,4.3l1,0.8c0.3,0.3,0.8,0.2,1-0.1c0.8-1,1.4-2.1,2-3.1
	c1.7,2.1,3.8,3.2,6.2,3.2h12.6c0.6,0,1.1-0.5,1.2-1.1l0.1-0.9h-13.8C235,121.4,233.4,120.6,232,118.8L232,118.8z M13.5,106.8
	c1.7,2.7,4.8,5.2,7.7,6.5c-0.3,0.3-0.7,0.9-0.9,1.2c-2.8-1.4-5.6-3.9-7.5-6.4c-1.9,2.4-5,5.1-7.5,6.6c-0.2-0.4-0.5-0.8-0.8-1.2
	c2.3-1.1,5-3.3,6.8-5.4H7.9v-1.3L13.5,106.8L13.5,106.8z M13.4,122.1h7.1v1.3H5.1v-1.3H12v-3.2H6.9v-1.3H12v-2.9H7.7v-1.3h10.2v1.3
	h-4.5v2.9h5.2v1.3h-5.2L13.4,122.1L13.4,122.1z M39.2,118v1.2h-7.5v4.7h-1.3v-4.7h-7.4V118h7.4v-1.6h1.3v1.6H39.2z M37.5,117.1
	c-1.5-0.6-3.5-1.2-5.9-1.8c-2,0.9-4.6,1.3-7.9,1.6c-0.1-0.4-0.3-0.9-0.5-1.2c2.5-0.1,4.5-0.4,6.2-0.8c-1.2-0.2-2.5-0.5-3.8-0.7
	c0.6-0.5,1.2-1.2,1.8-1.9h-4.1v-1.2h5.1c0.5-0.7,1-1.4,1.4-2l1.3,0.4c-0.3,0.5-0.7,1-1.1,1.6h4.5c0.2-0.4,0.4-0.9,0.5-1.3l1.3,0.3
	c-0.1,0.4-0.2,0.7-0.4,1H39v1.2h-3.8c-0.6,0.9-1.3,1.6-2.2,2.2c2.2,0.5,4.2,1.1,5.8,1.6L37.5,117.1L37.5,117.1z M28.8,120.1
	c-1.1,1.3-3,2.5-4.6,3.2c-0.2-0.3-0.8-0.8-1.1-1c1.6-0.6,3.4-1.6,4.3-2.7L28.8,120.1z M24.7,110.5h-1.3v-2.8h7
	c-0.2-0.4-0.5-0.8-0.7-1.1l1.4-0.4c0.3,0.4,0.7,1,0.9,1.5h6.7v2.8h-1.3V109H24.7L24.7,110.5L24.7,110.5z M28.8,112.3
	c-0.4,0.4-0.8,0.8-1.1,1.2c1.2,0.2,2.4,0.4,3.6,0.7c1-0.5,1.7-1.1,2.3-1.9L28.8,112.3L28.8,112.3z M34,119.4c1.6,0.8,3.8,2,4.8,3
	l-1,1c-1-0.9-3.1-2.3-4.8-3.1L34,119.4L34,119.4z M47.3,115.9l-2.3,0.7v5.5c0,0.8-0.2,1.2-0.7,1.4c-0.5,0.2-1.2,0.3-2.4,0.2
	c0-0.4-0.2-0.9-0.4-1.3c0.8,0,1.6,0,1.8,0c0.3,0,0.3-0.1,0.3-0.4v-5.1c-0.9,0.3-1.7,0.5-2.5,0.8l-0.4-1.4c0.8-0.2,1.8-0.5,2.9-0.8
	v-4.1h-2.6v-1.4h2.6v-3.9H45v3.9H47v1.4H45v3.6c0.7-0.2,1.4-0.4,2.1-0.6L47.3,115.9L47.3,115.9z M50.6,113.9c-1.8,0-2.4-0.6-2.4-2.2
	v-5.2h1.3v2.3h7.3v1.2h-7.3v1.7c0,0.7,0.2,1,1,1c1.4,0,5.5,0.1,6.8-0.1c0.1,0.4,0.1,0.9,0.2,1.2C56.4,114,51.9,113.8,50.6,113.9
	L50.6,113.9z M48.2,115.5h8.5v8.3h-1.3V123h-5.9v0.9h-1.3V115.5z M49.5,116.7v1.9h5.9v-1.9H49.5z M55.5,121.8v-2h-5.9v2H55.5z
	 M64,111.8c-0.3,1.1-0.9,2.3-1.4,3.2c0.4,0.2,0.8,0.5,1.5,0.8c1.1,0.6,2.7,0.7,4.7,0.7c2.3,0,5.3-0.1,7.3-0.4
	c-0.2,0.4-0.3,1-0.4,1.3c-3.2,0-9.1,0.8-11.9-0.6c-0.7-0.4-1.2-0.9-1.5-0.9c-0.5,0-1.3,0.9-2,1.9l-0.8-1.1c0.5-0.5,1-1,1.5-1.4h0
	c0.6-0.7,1.2-1.8,1.5-2.8h-2.5c0.5-0.8,1-1.8,1.5-2.8h-2.1v-1.1h3.9c-0.4,0.9-1,1.9-1.4,2.8h1.3l0.2-0.1L64,111.8L64,111.8z
	 M71.9,118.9h3.7v1.1h-3.7c0,3.6,0.6,4-3.7,3.9c-0.1-0.4-0.3-0.9-0.4-1.2c1.2,0.1,2.2,0,2.5,0c0.3,0,0.4-0.1,0.4-0.3v-2.3h-7.2
	c1,0.6,2.1,1.5,2.7,2.2l-1,0.9c-0.5-0.7-1.7-1.7-2.7-2.3l0.9-0.8h-3.8v-1.1h11.1v-1h1.3L71.9,118.9L71.9,118.9z M61.1,108.7
	c-0.2-0.5-0.5-1.4-0.8-2.1l1.1-0.3c0.3,0.6,0.6,1.4,0.8,2L61.1,108.7L61.1,108.7z M68.5,110.1c0.1-0.3,0.2-0.6,0.3-1h-4.7v-1h3
	c-0.2-0.5-0.5-1-0.8-1.4l1.1-0.4c0.4,0.5,0.8,1.2,1,1.7l-0.2,0.1h2.9c0.3-0.5,0.7-1.3,1-1.8l1.3,0.3c-0.3,0.5-0.6,1-0.9,1.5h3v1
	h-5.3c-0.2,0.3-0.3,0.7-0.5,1H74v5.7h-8.7v-5.7H68.5z M72.7,110.9h-6.1v0.9h6.1V110.9z M72.7,112.5h-6.1v0.9h6.1V112.5z M72.7,114.1
	h-6.1v0.9h6.1V114.1z M321.3,116.7v5.4c0,0.8-0.2,1.2-0.7,1.4c-0.5,0.2-1.2,0.3-2.5,0.3c0-0.4-0.2-0.9-0.4-1.3c0.9,0,1.7,0,1.9,0
	c0.3,0,0.4-0.1,0.4-0.4v-5l-2.3,0.7l-0.4-1.4c0.8-0.2,1.7-0.5,2.7-0.8v-4.1h-2.5v-1.3h2.5v-3.9h1.3v3.9h2.3v1.3h-2.3v3.8l1.7-0.5
	l0.2,1.3L321.3,116.7L321.3,116.7z M332.7,115.1c-0.7,2.3-2,4.1-3.6,5.5c1.4,0.9,3,1.6,4.8,2c-0.3,0.3-0.7,0.9-0.9,1.3
	c-2-0.5-3.7-1.3-5.1-2.4c-1.6,1.1-3.4,1.9-5.3,2.4c-0.1-0.4-0.4-1-0.7-1.3c1.8-0.4,3.5-1.1,4.9-2c-1.2-1.2-2.2-2.7-3-4.4l0.2-0.1
	h-0.7v-1.4h8.2l0.3-0.1L332.7,115.1L332.7,115.1z M326.5,109.2c0,1.7-0.5,3.8-2.7,5.1c-0.2-0.3-0.6-0.8-0.9-1.1
	c2.9-1.7,2.3-3.8,2.3-6.2h5.8v4.4c0,0.5,0.1,0.7,0.4,0.7c0.6,0,1.8,0.1,2.3-0.1c0,0.4,0,0.9,0.1,1.2c-0.5,0.2-1.9,0.1-2.5,0.1
	c-1.3,0-1.5-0.6-1.5-2v-3.1h-3.2V109.2z M325.2,116.1c0.6,1.4,1.6,2.6,2.8,3.7c1.2-1,2.2-2.2,2.9-3.7H325.2z M341,111.6h-5.2v-1.2
	h5.2V111.6z M342.4,121.5c-1.5,0.9-3.8,1.8-5.6,2.3c-0.2-0.3-0.7-0.8-1-1.1c1.9-0.4,4.1-1.1,5.4-1.8L342.4,121.5z M340.5,108.6h-4.4
	v-1.1h4.4V108.6z M338.2,113.1H350v7.7h-11.8V113.1z M339.5,115.4h9.1v-1.3h-9.1V115.4z M339.5,117.6h9.1v-1.3h-9.1V117.6z
	 M339.5,119.9h9.1v-1.3h-9.1V119.9z M343.9,108.8c-0.4,0.7-0.9,1.4-1.4,1.9c-0.2-0.2-0.7-0.6-1-0.7c1-0.9,1.7-2.2,2.1-3.6l1.2,0.3
	c-0.1,0.4-0.3,0.7-0.4,1.1h6.1l0.2-0.1l0.9,0.3c-0.5,1-1,2.1-1.5,2.8l-1.1-0.4c0.3-0.4,0.6-1,0.9-1.5H347c0,0.3,0,0.6,0,0.9
	c1,1.2,3,1.9,5.3,2.1c-0.3,0.3-0.6,0.8-0.8,1.1c-2.1-0.3-3.8-1.1-5-2.2c-0.6,0.9-2,1.8-5.3,2.3c-0.1-0.3-0.5-0.8-0.7-1.1
	c4.9-0.7,5.2-1.9,5.2-3.2C345.7,108.8,343.9,108.8,343.9,108.8z M346.6,120.9c2,0.6,4.1,1.5,5.4,2.1l-1.2,0.8
	c-1.2-0.6-3.1-1.4-5.1-2.1L346.6,120.9L346.6,120.9z M370.4,118v1.3H354V118h1.5l-0.3-10.2c1-0.3,2.3-0.8,3.1-1.2l0.6,1.2
	c-0.8,0.3-1.7,0.6-2.5,0.8l0,2.3h2.1v1.2h-2l0.1,2.4h2v1.2h-2l0,2.4h2.4v-10.7h6.3V118h2.4c0-0.7,0.1-1.5,0.1-2.3h-2.1v-1.2h2.1
	c0-0.8,0-1.6,0.1-2.4h-2.1v-1.2h2.1c0-0.9,0-1.8,0-2.6h-2.2v-1.2h3.4c0,3.4-0.2,7.9-0.3,10.8L370.4,118L370.4,118z M360.4,120.6
	c-1.5,1.2-3.7,2.5-5.4,3.3c-0.2-0.3-0.5-0.8-0.8-1.1c1.8-0.8,4-2,5.1-3.1L360.4,120.6L360.4,120.6z M360.1,118h4.2v-9.6h-4.2V118z
	 M363.7,109.8v1h-3.1v-1H363.7z M360.8,112.1h2.8v4.4h-2.8V112.1z M361.5,115.6h1.3V113h-1.3V115.6z M364.7,119.6
	c1.9,1,4,2.2,5.3,3.1l-0.9,1.1c-1.2-0.9-3.2-2.2-5.1-3.2L364.7,119.6L364.7,119.6z M377.5,113.1c-0.3,2.7-0.8,5-1.6,6.8
	c2.9,3.2,8.7,2.2,13,2.3c-0.2,0.3-0.4,0.9-0.5,1.3c-4.1-0.1-10.3,0.7-13-2.4c-0.7,1.2-1.4,2.1-2.3,2.8c-0.2-0.3-0.7-0.8-1-1
	c0.9-0.7,1.7-1.7,2.4-2.9c-0.7-1-1.2-2.2-1.6-3.7l1-0.4c0.3,1.1,0.7,2.1,1.2,2.8c0.5-1.3,0.9-2.8,1.1-4.5h-3
	c0.8-1.4,1.8-3.5,2.6-5.3h-3.2v-1.3h5.1c-0.8,1.7-1.7,3.7-2.5,5.3h1.3l0.2,0L377.5,113.1L377.5,113.1z M382.1,109.1h-3.5V108h3.5
	v-1.6h1.3v1.6h4v2.5h1.3v1.2h-1.3v2.6h-4v1.4h4.3v1.1h-4.3v1.6h5v1.2h-5v1.9h-1.3v-1.9h-4.5v-1.2h4.5v-1.6h-3.8v-1.1h3.8v-1.4h-3.6
	v-1.2h3.6v-1.4h-4.7v-1.2h4.7C382.1,110.5,382.1,109.2,382.1,109.1z M383.4,109.1v1.4h2.7v-1.4H383.4z M386.1,111.7h-2.7v1.4h2.7
	V111.7z M1023.4,69H0v0.5h1023.4V69z"/>
</svg>
