<svg width="264" height="200" viewBox="0 0 264 200" fill="none" xmlns="http://www.w3.org/2000/svg">
<path d="M0.270534 145.157C10.2491 145.886 6.92464 153.185 3.0227 150.625C2.64291 148.752 1.22781 146.687 0 145.428L0.265332 145.163L0.270534 145.157ZM11.3572 143.399C10.0566 147.946 7.72584 156.244 7.26801 158.231C6.96106 159.491 6.69573 160.791 6.73215 161.785C6.8466 163.809 8.37616 165.224 8.22529 168.626C8.14725 170.577 6.88823 171.836 5.08813 171.836C4.20889 171.836 3.32966 171.264 3.06432 169.812C3.79269 165.796 3.60019 162.206 2.72095 161.629C2.18509 161.249 1.57638 161.093 0.769983 161.015V160.25H2.45042C3.0227 160.25 3.17878 160.25 3.59499 159.485C4.12912 158.542 6.52578 153.126 10.785 143.238L11.3572 143.388V143.399ZM3.17878 136.329C13.6516 137.322 10.1763 145.007 6.12344 142.254C5.66562 140.231 4.17247 137.973 2.87183 136.594L3.17878 136.329ZM29.5975 151.276L33.9573 154.527C33.692 154.834 33.1561 155.178 32.3497 155.328V166.608C32.3497 169.438 31.7358 171.04 26.9962 171.462C26.8818 170.161 26.7309 169.131 26.2314 168.517C25.732 167.903 25.0088 167.445 23.3648 167.18V166.644C23.3648 166.644 26.6164 166.873 27.3396 166.873C27.8755 166.873 28.068 166.608 28.068 166.145V163.278H17.1737C16.7939 166.488 15.3372 169.776 10.4052 171.956L10.0618 171.613C12.8504 168.631 13.0065 164.693 13.0065 160.755V151.77L17.9385 153.528H27.6882L29.5975 151.27V151.276ZM32.0791 146.687C32.0791 146.687 34.7169 148.711 36.2828 150.167C36.2048 150.589 35.7886 150.781 35.2527 150.781H10.6705L10.3636 149.673H19.9571V146.12H13.0377L12.7307 145.012H19.9571V141.609H11.737L11.4301 140.537H19.9571V135.912L25.5759 136.407C25.4979 136.906 25.269 137.249 24.3117 137.4V140.537H28.6715L30.9658 137.556C30.9658 137.556 33.6035 139.58 35.1331 140.995C35.055 141.417 34.6752 141.609 34.103 141.609H24.3169V145.012H27.9483L30.1282 142.26C30.1282 142.26 32.537 144.169 34.0301 145.511C33.9157 145.933 33.4943 146.125 32.9584 146.125H24.3169V149.678H29.7432L32.0739 146.697L32.0791 146.687ZM28.068 162.17V158.96H17.2882V160.718C17.2882 161.218 17.2882 161.676 17.2518 162.17H28.0732H28.068ZM17.283 154.6V157.888H28.0628V154.6H17.283ZM73.1015 148.258C73.1015 148.258 75.6612 150.245 77.1908 151.624C77.0763 152.046 76.6913 152.238 76.119 152.238H42.1722L41.8652 151.166H58.1493C57.884 149.98 56.8487 148.68 55.9694 148.071L56.2348 147.805C62.1241 146.812 62.275 150.1 60.5529 151.172H70.8384L73.0911 148.269L73.1015 148.258ZM61.7131 161.254V166.795C61.7131 169.698 60.9847 171.456 56.1307 171.841C56.0943 170.541 55.9382 169.547 55.4023 168.975C54.9809 168.403 54.2578 167.867 52.4577 167.638V167.102C52.4577 167.102 55.7457 167.331 56.5105 167.331C57.0464 167.331 57.1972 167.102 57.1972 166.717V161.249H53.2225V161.707C53.2225 161.972 52.2652 162.472 51.1206 162.779L55.3243 164.73C55.2099 165.109 54.8665 165.343 53.9456 165.229C51.5368 167.638 47.0262 169.969 42.5155 170.962L42.2502 170.504C45.2313 168.631 48.0979 165.572 49.6691 163.049H48.7118V152.956L53.4514 154.793H65.3393L67.4047 152.535L71.8373 155.859C71.6084 156.124 71.0725 156.473 70.3078 156.624V161.634C70.2713 161.899 67.9354 162.628 66.5203 162.628H65.7191V161.249H61.7079L61.7131 161.254ZM52.2288 148.56C52.2288 148.981 50.2414 149.861 48.4465 149.861H47.7962V136.401L52.4993 138.274H66.4162L68.4816 136.016L72.8778 139.268C72.6125 139.575 72.113 139.955 71.3119 140.111V148.138C71.2754 148.367 69.0175 149.132 67.566 149.132H66.8012V147.566H52.234V148.56H52.2288ZM52.2288 139.346V142.327H66.796V139.346H52.2288ZM66.796 146.458V143.441H52.2288V146.458H66.796ZM53.2225 160.182H65.7243V155.901H53.2225V160.182ZM63.9294 163.32C78.9545 163.777 75.5155 173.106 71.1142 170.738C70.1985 168.944 67.5192 165.957 63.7733 163.819L63.9242 163.32H63.9294ZM87.4035 153.57C87.4035 159.303 87.2526 166.264 82.8928 171.118L82.3569 170.811C84.3079 165.65 84.1518 158.96 84.1518 152.805V139.232L87.9757 140.725H95.1241L97.0751 138.238C97.0751 138.238 99.2914 139.918 100.67 141.183C100.556 141.604 100.176 141.797 99.6399 141.797H95.0513V145.698H96.123L97.5017 144.247L100.405 146.463C100.212 146.692 99.7908 146.921 99.2601 147.035V153.69C99.2237 153.955 97.8086 154.532 96.8878 154.532H96.4299V153.575H87.4087L87.4035 153.57ZM99.2966 165.271C98.5318 165.999 96.6589 167.528 94.7495 169.016C94.4842 169.552 94.0211 169.932 93.6778 170.088L92.1482 166.722C93.2199 166.186 93.4072 165.921 93.4072 165.271V160.302C93.2564 160.495 92.9858 160.567 92.6425 160.567H90.884V165.536C91.4563 165.343 92.0702 165.156 92.6789 164.964L92.8297 165.463C92.3719 166.035 91.0349 167.3 89.6926 168.559C89.4637 169.323 88.9278 169.781 88.5064 169.974L86.9404 166.608C88.0122 166.035 88.1995 165.806 88.1995 165.156V154.683L91.9453 155.105C91.8673 155.526 91.6019 155.791 90.8736 155.906V159.501H90.91L91.8257 157.893C91.8257 157.893 92.7829 158.923 93.3916 159.766V154.798L97.1011 155.219C97.023 155.641 96.7577 155.948 96.1074 156.062V159.501L97.0647 157.857C97.0647 157.857 98.2508 159.158 98.8595 160.115C98.7815 160.5 98.4381 160.687 97.9439 160.687H96.1074V165.656C97.0647 165.427 98.1312 165.12 99.1665 164.813L99.281 165.271H99.2966ZM87.4035 141.797V145.698H88.8186V141.797H87.4035ZM87.4035 152.498H88.8186V146.765H87.4035V152.498ZM88.7821 136.1C97.0803 136.063 93.9795 142.291 90.6187 140.116C90.3533 138.779 89.318 137.213 88.4804 136.334L88.7873 136.105L88.7821 136.1ZM92.6789 141.797H91.1857V145.698H92.6789V141.797ZM91.1909 152.498H92.6841V146.765H91.1909V152.498ZM95.0513 146.765V152.498H96.4247V146.765H95.0513ZM116.767 162.326C116.767 162.326 118.26 163.663 119.176 164.62C119.061 165.042 118.718 165.234 118.218 165.234H115.695V170.78C115.695 171.123 114.244 171.774 113.094 171.774H112.443V165.234H110.3L109.457 166.15L106.554 164.542C106.783 164.313 107.09 164.084 107.433 163.892C107.813 161.868 108.349 158.767 108.578 156.936C108.349 157.014 108.12 157.05 107.813 157.087C106.783 162.82 104.489 168.403 98.4069 171.805L98.0636 171.233C100.665 169.209 102.345 166.53 103.417 163.585C103.152 163.585 102.803 163.507 102.501 163.32C102.272 162.404 101.586 161.447 100.779 160.645C100.051 161.676 99.2862 162.596 98.4485 163.398L97.8763 163.054C99.4839 160.11 100.821 155.75 101.393 151.395L105.597 152.425C105.446 152.883 105.061 153.268 104.218 153.268C103.953 154.069 103.682 154.876 103.417 155.641H104.64L106.247 153.997L108.427 155.833H112.443V152.051L116.725 152.472C116.647 152.894 116.418 153.159 115.695 153.315V155.687L116.767 154.158C116.767 154.158 118.182 155.38 119.025 156.338C118.91 156.759 118.603 156.952 118.067 156.952H115.695V163.871L116.767 162.342V162.326ZM106.866 143.628V136.136L112.105 136.636C112.027 137.171 111.72 137.551 110.69 137.707V143.633H113.292L115.128 141.453C115.128 141.453 117.152 142.983 118.416 144.127C118.302 144.549 117.922 144.741 117.422 144.741H110.695V152.389C110.695 152.732 109.015 153.419 107.558 153.419H106.872V147.457C106.721 147.421 106.528 147.379 106.336 147.342C104.614 148.95 102.168 150.937 99.7596 152.196L99.3798 151.89C100.602 150.209 102.018 147.342 102.746 145.163L106.877 146.729V144.741H99.9573L99.6503 143.633H106.877L106.866 143.628ZM100.821 137.208C108.849 139.003 105.025 144.7 102.085 142.103C102.049 140.496 101.284 138.587 100.441 137.442L100.821 137.213V137.208ZM102.964 156.707C102.507 157.737 102.007 158.695 101.471 159.61C102.85 159.761 103.729 160.224 104.26 160.755C104.567 159.418 104.796 158.081 104.947 156.702H102.959L102.964 156.707ZM112.443 164.157V156.931H111.528C111.263 158.882 110.727 161.977 110.305 164.157H112.449H112.443ZM111.606 146.078C120.591 146.115 119.254 153.419 115.888 151.546C114.894 149.98 113.328 147.878 111.341 146.5L111.606 146.078ZM111.793 142.332C112.329 141.032 113.016 138.93 113.588 136.942L118.177 138.815C117.984 139.237 117.49 139.544 116.684 139.466C115.347 140.61 113.703 141.875 112.365 142.676L111.793 142.332ZM132.057 150.854C133.738 150.854 135.075 152.191 135.075 153.877C135.075 155.563 133.738 156.9 132.057 156.9C130.377 156.9 129.035 155.563 129.035 153.877C129.035 152.191 130.372 150.854 132.057 150.854ZM181.456 155.786C181.149 156.13 180.805 156.166 180.041 156.244C178.704 157.389 176.446 158.996 174.802 159.912L174.422 159.647C174.802 158.502 175.301 156.78 175.608 155.401H160.089L164.563 156.431C164.412 156.889 163.913 157.118 162.69 157.16C162.232 157.654 161.696 158.153 161.124 158.653H168.158L170.416 156.473L174.698 159.954C174.391 160.297 173.818 160.448 172.861 160.489C167.815 166.987 160.396 170.546 147.665 171.769L147.436 171.233C152.748 169.932 157.264 168.288 160.895 166.035C160.359 166.186 159.751 166.15 159.059 165.806C158.559 164.506 157.378 163.169 156.192 162.175C153.747 163.554 150.995 164.735 148.05 165.499L147.785 165.12C152.295 162.674 156.27 158.622 158.185 155.412H150.766C151.073 157.899 150.23 159.693 149.044 160.458C147.821 161.223 145.985 160.916 145.527 159.464C145.105 158.086 145.87 157.056 147.056 156.483C148.201 155.755 149.543 153.997 149.351 152.165H149.887C150.193 152.93 150.422 153.658 150.573 154.345H175.384L177.601 152.087L181.461 155.797L181.456 155.786ZM145.709 139.461H157.368V135.751L162.263 136.209C162.185 136.63 161.92 136.937 161.119 137.088V142.821C161.119 143.087 159.438 143.664 158.06 143.664H157.373V140.527H146.057L145.714 139.455L145.709 139.461ZM173.657 142.483L177.746 145.542C177.517 145.808 177.018 146.115 176.295 146.271V151.546C176.258 151.853 174.193 152.732 172.778 152.732H172.05V151.395H154.423V152.16C154.423 152.503 152.587 153.383 150.906 153.383H150.334V142.832L154.694 144.554H171.67L173.657 142.488V142.483ZM154.428 150.282H157.753V145.657H154.428V150.282ZM159.818 159.725C159.132 160.26 158.403 160.755 157.638 161.254C162.227 161.634 162.877 164.199 161.842 165.421C164.214 163.855 166.202 161.983 167.768 159.725H159.818ZM161.499 145.657V150.282H164.901V145.657H161.499ZM169.297 142.561C169.297 142.827 167.617 143.404 166.238 143.404H165.552V135.756L170.447 136.214C170.369 136.599 170.14 136.942 169.303 137.057V139.466H175.265L177.445 136.443C177.445 136.443 180.004 138.508 181.419 139.924C181.305 140.345 180.962 140.537 180.426 140.537H169.303V142.561H169.297ZM168.683 145.657V150.282H172.05V145.657H168.683ZM202.979 140.459C202.786 140.917 202.292 141.224 201.371 141.146C198.005 148.451 193.266 153.305 187.496 156.437L187.116 156.093C190.977 152.04 194.837 145.313 196.788 138.123L202.979 140.454V140.459ZM209.669 156.936C224.388 163.59 220.335 175.135 215.174 170.775C214.981 169.245 214.602 167.638 214.029 166.035C209.019 167.528 202.141 169.245 193.692 170.817C193.313 171.352 192.849 171.696 192.355 171.847L190.446 165.999C190.446 165.999 191.59 165.734 192.053 165.349C195.071 162.596 199.623 154.111 200.924 149.293L207.422 151.78C207.229 152.202 206.772 152.545 205.929 152.509C203.369 156.79 198.245 162.638 193.848 166.197C198.666 166.046 206.08 165.583 213.577 164.896C212.432 162.107 210.861 159.392 209.258 157.175L209.68 156.946L209.669 156.936ZM213.264 138.28C212.765 138.893 211.428 139.195 209.862 139.31C211.584 144.778 216.167 149.554 222.593 151.811L222.515 152.269C220.564 152.956 218.998 154.756 218.462 156.629C213.072 152.805 210.091 146.807 208.868 139.003H204.436L204.092 137.931H207.838L209.331 135.559L213.27 138.274L213.264 138.28ZM263.386 139.731C263.121 140.074 262.585 140.381 261.82 140.574V170.125C261.784 170.468 259.677 171.576 257.996 171.576H257.31V168.668H234.449V170.119C234.449 170.692 232.691 171.8 230.782 171.8H230.017V136.745L234.834 138.732H256.93L259.11 136.287L263.391 139.726L263.386 139.731ZM257.31 167.601V139.809H234.449V167.601H240.682L238.731 164.657C239.917 163.892 240.11 163.585 240.11 162.976V161.181C238.502 161.868 236.785 162.44 234.985 162.94L234.678 162.289C237.737 160.952 240.49 159.038 242.326 156.978H241.14V157.129C241.14 157.435 239.459 158.159 238.003 158.159H237.467V149.71L241.291 151.239H250.354L252.034 149.517L255.551 152.118C255.359 152.347 254.979 152.576 254.443 152.691V156.78C254.443 156.858 254.292 156.931 254.1 157.045L256.586 159.262C256.357 159.569 256.014 159.647 255.364 159.376C254.563 159.719 253.376 160.141 252.19 160.521C258.381 163.658 256.321 167.633 253.798 166.254C252.69 164.459 249.594 161.4 245.614 158.949L245.879 158.414C247.789 158.835 249.396 159.329 250.733 159.865C251.42 159.1 252.185 158.221 252.835 157.493C252.299 157.607 251.764 157.722 251.306 157.722H250.655V156.957H246.759C245.879 157.836 244.849 158.601 243.7 159.329V161.395H243.663V163.304C245.115 162.883 246.8 162.425 248.444 161.925L248.559 162.425C247.185 163.34 244.313 165.255 241.374 167.086C241.223 167.315 241.031 167.466 240.875 167.586H257.315L257.31 167.601ZM253.6 145.428C253.6 145.428 255.816 147.108 257.153 148.295C257.039 148.716 256.654 148.908 256.123 148.908H235.251L234.944 147.837H243.814V145.048H236.931L236.624 143.976H243.809V140.61L248.892 141.068C248.855 141.526 248.585 141.833 247.82 141.947V143.971H250.421L252.294 141.755C252.294 141.755 254.438 143.284 255.733 144.429C255.655 144.85 255.275 145.043 254.739 145.043H247.82V147.832H251.644L253.595 145.423L253.6 145.428ZM250.655 152.347H241.135V155.901H250.655V152.347Z" fill="white"/>
<path d="M125.185 25.4979C119.946 20.8884 113.468 18.5472 105.94 18.5472C101.913 18.5472 98.0324 19.3224 94.401 20.8572C89.3336 16.8252 86.7636 12.6267 86.7636 8.36576C86.7636 6.17027 87.6064 4.38578 89.2712 3.05392C90.9569 1.70645 93.2304 1.02491 96.0242 1.02491C97.8555 1.02491 99.4787 1.23301 100.842 1.64402C101.003 1.68564 101.175 1.70645 101.362 1.70645C101.705 1.70645 101.856 1.47753 101.856 1.25382C101.856 0.900047 101.508 0.650323 99.6816 0.338168C98.3809 0.119659 97.1271 0.00520259 95.9513 0.00520259C92.887 0.00520259 90.369 0.74397 88.47 2.19549C86.5451 3.66782 85.567 5.624 85.567 8.00678C85.567 12.5747 88.0902 17.1165 93.0691 21.5179C87.6844 24.603 84.9531 29.1813 84.9531 35.1331C84.9531 42.2346 87.8249 48.691 93.4853 54.3202C99.1457 59.9494 105.644 62.8004 112.797 62.8004C116.158 62.8004 118.957 61.9524 121.116 60.2772C123.296 58.5863 124.399 56.4012 124.399 53.7843C124.399 50.0281 121.928 46.1521 117.058 42.2762C112.209 38.4159 107.387 36.4545 102.725 36.4545C100.889 36.4545 99.3694 36.8915 98.2145 37.7552C97.0335 38.6396 96.4352 39.805 96.4352 41.2253C96.4352 42.3386 96.8306 43.3011 97.6162 44.0815C98.4017 44.8619 99.3538 45.2625 100.457 45.2625C102.564 45.2625 103.006 44.196 103.006 43.3063C103.006 42.5988 102.689 41.9797 102.059 41.4698C101.45 40.9756 100.722 40.7206 99.9053 40.7206C98.7243 40.7206 98.074 41.2981 98.074 42.3491V42.8173L98.1208 42.8901C98.1416 42.9213 98.1468 42.9734 98.1468 43.0098C97.8399 42.9578 97.663 42.3334 97.663 41.2877C97.663 40.242 98.1156 39.3263 99.0521 38.65C100.004 37.9581 101.284 37.6095 102.855 37.6095C107.111 37.6095 111.616 39.4772 116.247 43.1659C120.861 46.8389 123.197 50.4079 123.197 53.7843C123.197 55.7457 122.485 57.3429 121.075 58.5291C119.649 59.7257 117.719 60.3344 115.331 60.3344C112.277 60.3344 108.88 59.5592 105.233 58.0348C101.575 56.5053 98.1884 54.4295 95.1657 51.875C89.1828 46.8181 86.1497 41.1837 86.1497 35.1383C86.1497 29.0929 88.8758 25.1493 94.2449 22.5428C97.9907 25.6904 102.559 28.6142 107.834 31.2363C116.595 35.6221 122.354 38.9101 124.951 41.0224C127.573 43.1502 129.524 46.1001 130.762 49.8044C129.222 55.4075 128.441 59.2158 128.441 61.12C128.441 62.3166 128.577 63.4247 128.842 64.408C128.577 65.3913 128.441 66.4995 128.441 67.696C128.441 69.6002 129.222 73.4033 130.762 79.0117C129.529 82.7107 127.573 85.6658 124.951 87.7936C122.354 89.9007 116.595 93.1939 107.834 97.5797C102.559 100.207 97.9907 103.131 94.2449 106.273C88.8706 103.667 86.1497 99.4318 86.1497 93.6778C86.1497 87.6324 89.1828 82.0032 95.1657 76.941C98.1884 74.3814 101.581 72.3107 105.233 70.7812C108.88 69.2516 112.277 68.4816 115.331 68.4816C117.719 68.4816 119.649 69.0903 121.075 70.2869C122.485 71.4731 123.197 73.0651 123.197 75.0317C123.197 78.403 120.861 81.9771 116.247 85.6502C111.616 89.3388 107.111 91.2065 102.855 91.2065C101.279 91.2065 99.9989 90.858 99.0521 90.166C98.1156 89.4897 97.663 88.626 97.663 87.5283C97.663 86.4306 97.8347 85.8635 98.1468 85.801C98.1468 85.8583 98.1364 85.8999 98.1208 85.9259L98.074 85.9987V86.467C98.074 87.5179 98.7243 88.0954 99.9053 88.0954C100.722 88.0954 101.45 87.8457 102.059 87.3462C102.689 86.8364 103.006 86.2173 103.006 85.5097C103.006 84.6149 102.564 83.5535 100.457 83.5535C99.3538 83.5535 98.3965 83.9489 97.6162 84.7293C96.8306 85.5097 96.4352 86.4722 96.4352 87.5855C96.4352 89.0058 97.0335 90.1764 98.2145 91.0557C99.3694 91.9193 100.883 92.3563 102.725 92.3563C107.387 92.3563 112.209 90.4001 117.058 86.5346C121.928 82.6587 124.399 78.7828 124.399 75.0265C124.399 72.4096 123.296 70.2245 121.116 68.5337C118.962 66.8584 116.163 66.0104 112.797 66.0104C105.644 66.0104 99.1509 68.8614 93.4853 74.4906C87.8249 80.1198 84.9531 86.571 84.9531 93.6778C84.9531 99.6295 87.6844 104.208 93.0691 107.293C88.0902 111.694 85.567 116.236 85.567 120.804C85.567 123.187 86.5451 125.138 88.47 126.615C90.3742 128.072 92.8922 128.806 95.9513 128.806C97.1271 128.806 98.3809 128.696 99.6816 128.473C101.508 128.16 101.856 127.911 101.856 127.557C101.856 127.333 101.705 127.104 101.362 127.104C101.175 127.104 101.003 127.125 100.837 127.172C99.4787 127.583 97.8607 127.791 96.0242 127.791C93.2304 127.791 90.9569 127.11 89.2712 125.762C87.6064 124.43 86.7636 122.646 86.7636 120.45C86.7636 116.189 89.3336 111.986 94.401 107.959C98.0324 109.488 101.913 110.269 105.94 110.269C113.474 110.269 119.946 107.933 125.185 103.318C130.434 98.6983 133.098 92.9702 133.098 86.2953C133.098 84.2559 132.744 81.4361 132.042 77.9035C132.744 74.834 133.098 71.8529 133.098 69.0383C133.098 67.1342 132.999 65.5786 132.806 64.4132C132.999 63.2426 133.098 61.6871 133.098 59.7881C133.098 56.9735 132.744 53.9924 132.042 50.9229C132.744 47.3904 133.098 44.5706 133.098 42.5311C133.098 35.8562 130.434 30.1282 125.185 25.5083V25.4979ZM119.415 104.026C113.999 106.804 108.609 108.209 103.407 108.209C100.727 108.209 98.1728 107.782 95.8057 106.944C99.2186 104.634 103.5 102.522 108.542 100.675C115.601 98.1052 120.768 95.3998 123.884 92.632C126.907 89.9267 129.394 85.9883 131.282 80.9158C131.74 82.9344 131.969 85.0779 131.969 87.3098C131.969 94.1512 127.744 99.7752 119.41 104.026H119.415ZM108.542 28.1356C103.495 26.2887 99.2134 24.1816 95.8005 21.8665C98.1676 21.0289 100.722 20.6022 103.401 20.6022C108.609 20.6022 113.994 22.0121 119.41 24.7851C127.739 29.0356 131.964 34.6596 131.964 41.501C131.964 43.7329 131.735 45.8764 131.277 47.895C129.388 42.8225 126.902 38.8841 123.879 36.1788C120.757 33.4162 115.596 30.7109 108.536 28.1356H108.542ZM130.996 66.1353C130.996 66.1353 130.653 66.1145 130.533 64.408C130.647 62.6964 130.991 62.6808 130.996 62.6808C131.012 62.6808 131.376 62.7016 131.636 64.408C131.376 66.1197 131.012 66.1353 130.996 66.1353ZM130.543 67.1966C130.689 67.259 130.84 67.2902 130.996 67.2902C131.319 67.2902 131.605 67.1654 131.854 66.9157C131.891 67.7012 131.906 68.5857 131.906 69.5534C131.906 71.5824 131.782 73.4761 131.542 75.2138C130.996 71.9362 130.663 69.2464 130.543 67.1966ZM131.854 61.8952C131.605 61.6454 131.319 61.5206 130.996 61.5206C130.84 61.5206 130.689 61.5518 130.543 61.6142C130.663 59.5644 130.996 56.8747 131.542 53.597C131.787 55.3295 131.906 57.2284 131.906 59.2575C131.906 60.2303 131.891 61.1148 131.854 61.8952ZM183.839 93.6726C183.839 86.571 180.967 80.1146 175.306 74.4854C169.646 68.8562 163.148 66.0052 156 66.0052C152.639 66.0052 149.84 66.8532 147.681 68.5285C145.501 70.2193 144.398 72.4044 144.398 75.0213C144.398 78.7776 146.869 82.6535 151.739 86.5294C156.587 90.3897 161.41 92.3511 166.072 92.3511C167.908 92.3511 169.427 91.9141 170.582 91.0505C171.763 90.166 172.362 89.0006 172.362 87.5803C172.362 86.467 171.966 85.5045 171.181 84.7241C170.395 83.9437 169.443 83.5483 168.34 83.5483C166.233 83.5483 165.786 84.6149 165.786 85.5045C165.786 86.212 166.103 86.8312 166.733 87.341C167.341 87.8353 168.07 88.0902 168.886 88.0902C170.067 88.0902 170.718 87.5127 170.718 86.4618V85.9935L170.671 85.9207C170.671 85.9207 170.645 85.8531 170.645 85.801C170.952 85.8531 171.129 86.4774 171.129 87.5231C171.129 88.5688 170.676 89.4845 169.74 90.1608C168.788 90.8476 167.508 91.2013 165.937 91.2013C161.681 91.2013 157.175 89.3336 152.545 85.645C147.93 81.9719 145.594 78.403 145.594 75.0265C145.594 73.0651 146.307 71.4679 147.717 70.2817C149.143 69.0851 151.073 68.4764 153.461 68.4764C156.515 68.4764 159.912 69.2516 163.559 70.776C167.216 72.3055 170.603 74.3814 173.626 76.9358C179.609 81.9928 182.642 87.6272 182.642 93.6726C182.642 99.718 179.916 103.662 174.547 106.268C170.801 103.12 166.233 100.197 160.958 97.5745C152.196 93.1887 146.437 89.9007 143.841 87.7884C141.219 85.6606 139.268 82.7055 138.03 79.0065C139.591 73.3252 140.35 69.621 140.35 67.6908C140.35 66.4943 140.215 65.3861 139.95 64.4028C140.215 63.4195 140.35 62.3114 140.35 61.1148C140.35 59.1846 139.591 55.4856 138.03 49.7992C139.263 46.1001 141.219 43.145 143.841 41.0172C146.437 38.9101 152.196 35.6169 160.958 31.2311C166.233 28.6038 170.801 25.68 174.547 22.5376C179.921 25.1441 182.642 29.379 182.642 35.1331C182.642 41.1785 179.609 46.8077 173.626 51.8698C170.603 54.4295 167.216 56.5001 163.559 58.0296C159.912 59.5592 156.515 60.3292 153.461 60.3292C151.073 60.3292 149.143 59.7205 147.717 58.5239C146.307 57.3377 145.594 55.7405 145.594 53.7791C145.594 50.4079 147.93 46.8337 152.545 43.1607C157.175 39.472 161.681 37.6043 165.937 37.6043C167.513 37.6043 168.793 37.9529 169.74 38.6448C170.676 39.3211 171.129 40.1848 171.129 41.2825C171.129 42.3803 170.957 42.9474 170.645 43.0098C170.645 42.9682 170.645 42.9161 170.671 42.8849L170.718 42.8121V42.3438C170.718 41.2929 170.067 40.7154 168.886 40.7154C168.07 40.7154 167.341 40.9652 166.733 41.4646C166.103 41.9745 165.786 42.5936 165.786 43.3011C165.786 44.196 166.228 45.2573 168.34 45.2573C169.443 45.2573 170.4 44.8619 171.181 44.0763C171.966 43.2959 172.362 42.3334 172.362 41.2201C172.362 39.7998 171.763 38.6292 170.582 37.75C169.427 36.8863 167.914 36.4493 166.072 36.4493C161.41 36.4493 156.587 38.4055 151.739 42.271C146.869 46.1469 144.398 50.0229 144.398 53.7791C144.398 56.396 145.501 58.5811 147.681 60.272C149.835 61.9472 152.634 62.7952 156 62.7952C163.153 62.7952 169.646 59.9442 175.306 54.315C180.967 48.6858 183.839 42.2346 183.839 35.1279C183.839 29.1761 181.107 24.5978 175.723 21.5127C180.701 17.1113 183.225 12.5694 183.225 8.00158C183.225 5.61879 182.247 3.66782 180.322 2.19029C178.418 0.733565 175.899 0 172.84 0C171.665 0 170.411 0.114457 169.11 0.332966C167.284 0.645121 166.935 0.894845 166.935 1.24862C166.935 1.47233 167.086 1.70125 167.43 1.70125C167.617 1.70125 167.789 1.68044 167.96 1.63361C169.318 1.22261 170.936 1.0145 172.773 1.0145C175.567 1.0145 177.84 1.69604 179.526 3.04351C181.191 4.37538 182.033 6.15986 182.033 8.35535C182.033 12.6163 179.463 16.82 174.396 20.8468C170.765 19.3172 166.889 18.5368 162.857 18.5368C155.323 18.5368 148.851 20.8728 143.612 25.4875C138.363 30.1074 135.699 35.8354 135.699 42.5103C135.699 44.5497 136.053 47.3695 136.755 50.9021C136.053 53.9716 135.699 56.9527 135.699 59.7673C135.699 61.3905 135.824 62.8004 136.068 63.9554C135.824 65.1624 135.699 66.8688 135.699 69.0227C135.699 71.8373 136.053 74.8184 136.755 77.8879C136.053 81.4205 135.699 84.2403 135.699 86.2797C135.699 92.9546 138.363 98.6827 143.612 103.303C148.851 107.912 155.328 110.253 162.857 110.253C166.883 110.253 170.765 109.478 174.396 107.943C179.463 111.975 182.033 116.174 182.033 120.435C182.033 122.63 181.191 124.415 179.526 125.747C177.84 127.094 175.567 127.776 172.773 127.776C170.941 127.776 169.318 127.567 167.955 127.156C167.794 127.115 167.622 127.094 167.435 127.094C167.092 127.094 166.941 127.323 166.941 127.547C166.941 127.9 167.289 128.15 169.115 128.462C170.416 128.681 171.67 128.795 172.846 128.795C175.91 128.795 178.428 128.056 180.327 126.605C182.252 125.133 183.23 123.176 183.23 120.794C183.23 116.226 180.707 111.679 175.728 107.283C181.112 104.197 183.844 99.6191 183.844 93.6674L183.839 93.6726ZM149.377 24.7851C154.793 22.0069 160.182 20.6022 165.385 20.6022C168.064 20.6022 170.619 21.0289 172.986 21.8665C169.573 24.1764 165.291 26.2887 160.25 28.1356C153.19 30.7057 148.024 33.411 144.908 36.1788C141.885 38.8841 139.398 42.8225 137.51 47.895C137.052 45.8764 136.823 43.7277 136.823 41.501C136.823 34.6596 141.047 29.0356 149.382 24.7851H149.377ZM137.801 62.6756C137.801 62.6756 138.144 62.6964 138.264 64.4028C138.15 66.1145 137.806 66.1301 137.801 66.1301C137.785 66.1301 137.421 66.1093 137.161 64.4028C137.421 62.6912 137.785 62.6756 137.801 62.6756ZM138.254 61.6142C138.108 61.5518 137.957 61.5206 137.801 61.5206C137.478 61.5206 137.192 61.6454 136.943 61.8952C136.906 61.1096 136.89 60.2251 136.89 59.2575C136.89 57.2284 137.015 55.3347 137.255 53.597C137.801 56.8747 138.134 59.5644 138.254 61.6142ZM136.974 66.307C137.421 66.9313 137.895 67.1029 138.259 67.1082C138.144 69.1684 137.811 71.8841 137.26 75.2086C137.015 73.4761 136.896 71.5772 136.896 69.5482C136.896 68.31 136.922 67.2226 136.979 66.3018L136.974 66.307ZM160.25 100.675C165.297 102.522 169.578 104.629 172.991 106.944C170.624 107.782 168.07 108.209 165.39 108.209C160.182 108.209 154.798 106.799 149.382 104.026C141.053 99.7752 136.828 94.1512 136.828 87.3098C136.828 85.0779 137.057 82.9344 137.515 80.9158C139.403 85.9883 141.89 89.9267 144.913 92.632C148.034 95.3946 153.195 98.1 160.255 100.675H160.25Z" fill="url(#paint0_linear_20_423)"/>
<path d="M59.3927 182.887H62.7691C64.0386 182.887 65.2248 183.058 66.3277 183.396C67.4307 183.735 68.4035 184.239 69.2464 184.91C70.0892 185.582 70.7447 186.424 71.2129 187.444C71.6812 188.459 71.9153 189.634 71.9153 190.961C71.9153 192.288 71.6864 193.515 71.2233 194.551C70.7603 195.591 70.11 196.455 69.2672 197.147C68.4243 197.839 67.4411 198.354 66.3225 198.692C65.2039 199.03 63.9969 199.202 62.6963 199.202H59.3875V182.892L59.3927 182.887ZM61.4269 197.334H62.1396C63.2374 197.334 64.2467 197.225 65.1675 197.001C66.0884 196.777 66.9052 196.418 67.6127 195.929C68.3203 195.44 68.877 194.785 69.2776 193.973C69.6834 193.156 69.8811 192.184 69.8811 191.044C69.8811 189.905 69.6782 188.906 69.2776 188.089C68.8718 187.272 68.3203 186.622 67.6127 186.133C66.9052 185.644 66.0884 185.29 65.1571 185.072C64.2259 184.853 63.2218 184.749 62.1396 184.749H61.4269V197.339V197.334Z" fill="white"/>
<path d="M86.2641 199.197H83.798L78.996 192.293H78.1532V199.197H76.119V182.887H78.585C79.5371 182.887 80.3487 182.928 81.0199 183.017C81.691 183.105 82.3153 183.313 82.8928 183.646C83.5535 184.036 84.079 184.583 84.464 185.29C84.8438 185.998 85.0363 186.747 85.0363 187.538C85.0363 188.719 84.6773 189.744 83.9541 190.597C83.231 191.455 82.2893 191.955 81.1187 192.1L86.2693 199.197H86.2641ZM78.1532 190.607H78.8036C79.4071 190.607 79.9585 190.566 80.4476 190.488C80.9366 190.41 81.3892 190.264 81.8002 190.056C82.2112 189.848 82.5338 189.546 82.7731 189.145C83.0124 188.75 83.1321 188.24 83.1321 187.621C83.1321 187.002 83.002 186.513 82.7419 186.117C82.4818 185.722 82.1384 185.42 81.717 185.217C81.2904 185.014 80.8274 184.879 80.3227 184.806C79.8181 184.733 79.277 184.697 78.6995 184.697H78.1584V190.602L78.1532 190.607Z" fill="white"/>
<path d="M90.0306 182.887H98.7918V184.749H92.0649V189.312H98.5993V191.174H92.0649V197.339H98.7918V199.202H90.0306V182.892V182.887Z" fill="white"/>
<path d="M105.779 195.107L103.916 199.197H101.731L109.52 182.189L117.308 199.197H115.123L113.26 195.107H105.774H105.779ZM109.52 186.648L106.622 193.245H112.418L109.52 186.648Z" fill="white"/>
<path d="M123.603 188.422H123.561L121.657 199.197H119.561L122.89 182.189L128.493 195.04L134.097 182.189L137.426 199.197H135.33L133.426 188.422H133.384L128.493 199.54L123.603 188.422Z" fill="white"/>
<path d="M151.858 199.197H149.824V182.887H152.16C153.398 182.887 154.444 182.991 155.287 183.199C156.13 183.407 156.806 183.709 157.31 184.109C157.815 184.505 158.179 184.994 158.403 185.571C158.627 186.149 158.736 186.825 158.736 187.605C158.736 188.443 158.59 189.161 158.294 189.77C157.997 190.373 157.591 190.867 157.071 191.252C156.551 191.637 155.947 191.918 155.266 192.095C154.579 192.277 153.835 192.366 153.029 192.366H151.858V199.202V199.197ZM151.858 190.545H152.509C153.112 190.545 153.663 190.503 154.153 190.425C154.642 190.347 155.094 190.201 155.505 189.993C155.916 189.785 156.239 189.483 156.478 189.083C156.717 188.687 156.837 188.178 156.837 187.558C156.837 186.939 156.707 186.456 156.447 186.065C156.187 185.675 155.843 185.384 155.422 185.191C154.995 184.999 154.532 184.869 154.038 184.801C153.539 184.739 152.998 184.702 152.404 184.702H151.863V190.545H151.858Z" fill="white"/>
<path d="M163.283 195.107L161.421 199.197H159.236L167.024 182.189L174.812 199.197H172.627L170.764 195.107H163.278H163.283ZM167.024 186.648L164.126 193.245H169.922L167.024 186.648Z" fill="white"/>
<path d="M188.484 199.197H186.018L181.216 192.293H180.374V199.197H178.339V182.887H180.805C181.757 182.887 182.569 182.928 183.24 183.017C183.911 183.105 184.536 183.313 185.113 183.646C185.774 184.036 186.299 184.583 186.679 185.29C187.059 185.998 187.251 186.747 187.251 187.538C187.251 188.719 186.892 189.744 186.169 190.597C185.446 191.455 184.504 191.955 183.334 192.1L188.484 199.197ZM180.374 190.607H181.024C181.627 190.607 182.179 190.566 182.668 190.488C183.157 190.41 183.61 190.264 184.021 190.056C184.432 189.848 184.754 189.546 184.993 189.145C185.233 188.75 185.352 188.24 185.352 187.621C185.352 187.002 185.222 186.513 184.962 186.117C184.702 185.722 184.359 185.42 183.937 185.217C183.511 185.014 183.048 184.879 182.543 184.806C182.038 184.733 181.497 184.697 180.92 184.697H180.379V190.602L180.374 190.607Z" fill="white"/>
<path d="M201.205 182.887H203.868L196.533 190.222L203.998 199.202H201.251L195.107 191.606L194.285 192.386V199.202H192.251V182.892H194.285V189.967L201.21 182.892L201.205 182.887Z" fill="white"/>
<defs>
<linearGradient id="paint0_linear_20_423" x1="95.9409" y1="131.012" x2="172.851" y2="-2.20069" gradientUnits="userSpaceOnUse">
<stop offset="0.03" stop-color="#80804E"/>
<stop offset="0.29" stop-color="#CCB08A"/>
<stop offset="0.57" stop-color="#988062"/>
<stop offset="0.78" stop-color="#C4AE91"/>
<stop offset="1" stop-color="#80805D"/>
</linearGradient>
</defs>
</svg>
