<svg width="754" height="310" viewBox="0 0 754 310" fill="none" xmlns="http://www.w3.org/2000/svg">
<path d="M100.07 227.97H175.27L177.6 223.04H97.49C98.52 218.64 99.56 213.97 100.34 209.04C105.01 208.78 107.86 205.41 108.62 201.27L75.19 191.15C74.67 203.08 73.1 213.71 70.77 223.04H6.48L8.55 227.97H69.49C58.09 269.19 31.12 288.38 0 303.94C60.16 295.9 84.79 272.05 96.19 227.97H97.74C107.08 266.08 127.31 293.57 163.08 302.12C164.38 294.6 169.3 284.24 180.19 267.12C143.63 265.31 116.94 249.49 100.07 227.97ZM369.04 219.42C361.27 247.42 353.75 274.64 340 274.64H298.26C287.89 274.64 284.77 271.79 284.77 257.02L284.52 158.49L302.93 151.23V248.98C305.78 249.76 320.04 247.42 323.93 243.02V212.16C333 219.42 334.04 230.82 334.04 235.76C361.52 229.54 361.52 212.16 362.04 199.2L363.61 122.45L349.09 128.93L323.67 138.79V85.38C329.38 85.63 331.98 80.19 331.71 76.56L302.94 70.59V146.82L284.53 154.07V109.74C289.71 110.52 293.33 103.26 292.05 99.37L263.54 93.41V162.11L247.71 168.34L250.31 171.71L263.54 166.52V224.6L236.06 231.6V153.56H259.39L261.46 149.16H236.06V85.63C240.71 85.63 243.31 83.56 244.34 76.82L214.27 70.33V149.15H194.04L195.59 153.55H214.27V237.03L192.48 242.48L203.37 275.67C205.44 274.89 208.04 272.3 208.04 267.64L263.53 224.86V261.15C263.53 292.79 271.03 295.64 287.37 295.64H342.59C366.7 295.64 373.98 296.93 377.08 276.19C366.97 265.56 368 238.86 369.04 219.41V219.42ZM342.59 135.94L341.04 197.64C340.53 205.68 341.04 211.9 333.27 210.87L323.94 209.31L323.67 143.21L342.6 135.95L342.59 135.94ZM3.37 182.86L5.19 187.26H173.72L176.31 182.86H100.86V150.7H158.93L161.26 146.3H100.86V115.96H170.87L173.18 111.55H116.42C124.19 104.81 133.53 98.07 140.27 86.41C144.67 86.41 147.52 84.33 149.09 79.4L116.15 68L110.97 111.56H64.82C72.07 106.37 78.3 96.79 76.23 86.42C73.62 75.01 58.6 71.64 42.52 70.34C48.22 82.27 51.33 92.9 57.03 111.57H10.11L12.19 115.98H77.26V146.32H19.71L21.53 150.72H77.26V182.88H3.37V182.86ZM730.12 90.04V90.57H617.86C611.64 85.9 603.6 83.56 595.56 82.53V304.2C603.34 304.46 611.63 303.94 618.9 297.98V281.91H730.12V295.39C736.34 302.65 748.78 303.43 753.45 302.13V81.48L730.12 90.03V90.04ZM618.9 277.76V253.28C629.92 249.45 639.73 243.14 648.67 235.47V254.42L644.39 256.17L653.11 277.77H618.9V277.76ZM730.12 277.76H654.34C655.66 276.36 656.27 274.65 656.41 272.39L689.82 237.21L663.49 248.22V220.56C669.41 213.6 674.66 206.07 679.45 198.71C686.04 240.29 699.35 259.63 721.08 271.24C723.79 263.05 726.81 255.7 730.13 249.37V277.76H730.12ZM698.2 194.66H648V170.29H698.2V194.66ZM709.54 202.79L699.01 226.19C691.77 218.64 685.86 209.17 680.59 197.76H698.2C701.65 201.82 706.25 202.79 709.54 202.79ZM730.12 243.69C718.47 240.8 709.27 235.68 701.65 228.69L728.15 211.66L713.68 193.69L712.51 196.39V160.8L698.2 167H647.51C643.57 163.52 638.63 161.58 632.7 160.62V208.38C637.63 208.57 643.41 208 648.01 203.93V197.75H658.72C649.31 216.23 633.1 239.3 618.91 251.85V151.58L619.05 151.92H727.33L728.81 149.02H681.25V126.77H715.49L717.11 123.88H681.24V112.27C683.89 111.12 685.52 108.8 686.19 105.12L665.12 99.89V123.88H629.1L630.23 126.77H665.12V149.02H618.9V94.45H730.12V243.68V243.69ZM518.24 90.46C521.61 89.48 524.98 86.3 525.76 81.65L496.71 76.03V104.38H455.48V90.94C458.35 89.97 461.97 86.79 462.75 82.15L434.48 76.52V104.39H387.82L389.63 108.8H434.47V134.7C439.14 134.7 450.03 134.46 455.47 128.83V108.8H496.7V132.99C501.12 132.99 513.04 132.75 518.23 127.13V108.81H566.98L569.31 104.4H518.23V90.48L518.24 90.46ZM569.32 203.08H522.5V154.34C526.84 155.63 529.81 151.23 528.9 148.11L500.12 143.17V203.08H464.26L465.62 207.65H500.11L500.66 293.95H468.22L469.04 298H564.98L567.58 293.95H523.04L522.49 207.65H567.26L569.31 203.08H569.32ZM438.74 194.17H421.31V159.02C423.41 158.47 425.66 155.92 426.21 151.37L403.87 146.26V209.27C407.52 209.83 418.07 208.54 421.31 203.26V196.88H438.74V232.58H397.96L398.95 235.5H406.54C407.1 266.1 400.36 289.77 389.69 309.44C409.49 292.14 419.58 279.75 421.14 235.5H438.75V308.53C442.4 309.08 451.79 307.8 455.03 302.52V155.92C457.27 155.37 459.52 153 460.08 148.27L438.74 143.17V194.17Z" fill="url(#paint0_linear_2636_8618)"/>
<path d="M218.25 188.55H165.24V192.98H218.25V188.55Z" fill="url(#paint1_linear_2636_8618)"/>
<path d="M376.19 133.93H354.58V145.4H376.19V133.93Z" fill="url(#paint2_linear_2636_8618)"/>
<path d="M605.35 104.84H578.24V116.3H605.35V104.84Z" fill="url(#paint3_linear_2636_8618)"/>
<path d="M529.26 202.96H527.05V294.65H529.26V202.96Z" fill="url(#paint4_linear_2636_8618)"/>
<path d="M533.93 202.96H531.72V294.65H533.93V202.96Z" fill="url(#paint5_linear_2636_8618)"/>
<path d="M538.61 202.96H536.4V294.65H538.61V202.96Z" fill="url(#paint6_linear_2636_8618)"/>
<path d="M543.29 202.96H541.08V294.65H543.29V202.96Z" fill="url(#paint7_linear_2636_8618)"/>
<path d="M547.96 202.96H545.75V294.65H547.96V202.96Z" fill="url(#paint8_linear_2636_8618)"/>
<path d="M552.64 202.96H550.43V294.65H552.64V202.96Z" fill="url(#paint9_linear_2636_8618)"/>
<path d="M49.59 114.17H47.38V186.53H49.59V114.17Z" fill="url(#paint10_linear_2636_8618)"/>
<path d="M54.26 114.17H52.05V186.53H54.26V114.17Z" fill="url(#paint11_linear_2636_8618)"/>
<path d="M58.94 114.17H56.73V186.53H58.94V114.17Z" fill="url(#paint12_linear_2636_8618)"/>
<path d="M63.62 114.17H61.41V186.53H63.62V114.17Z" fill="url(#paint13_linear_2636_8618)"/>
<path d="M68.29 114.17H66.08V186.53H68.29V114.17Z" fill="url(#paint14_linear_2636_8618)"/>
<path d="M72.97 114.17H70.76V186.53H72.97V114.17Z" fill="url(#paint15_linear_2636_8618)"/>
<g opacity="0.42">
<path d="M212.98 3.22L208.25 3.34C206.41 3.41 205.65 3.56 205.18 4.26C204.86 4.73 204.7 5.12 204.64 5.37C204.58 5.62 204.48 5.75 204.29 5.75C204.07 5.75 204 5.59 204 5.24C204 4.74 204.6 1.86 204.67 1.6C204.77 1.19 204.86 1 205.05 1C205.3 1 205.62 1.32 206.41 1.38C207.33 1.48 208.53 1.54 209.58 1.54H222.14C223.15 1.54 223.85 1.45 224.33 1.38C224.81 1.29 225.06 1.22 225.19 1.22C225.41 1.22 225.44 1.41 225.44 1.88C225.44 2.55 225.34 4.73 225.34 5.56C225.31 5.88 225.24 6.07 225.05 6.07C224.8 6.07 224.73 5.91 224.7 5.43L224.67 5.08C224.61 4.26 223.75 3.37 220.93 3.3L216.93 3.21V16.21C216.93 19.13 216.93 21.63 217.09 23C217.19 23.89 217.38 24.59 218.33 24.71C218.77 24.77 219.47 24.84 219.95 24.84C220.3 24.84 220.46 24.93 220.46 25.09C220.46 25.31 220.21 25.41 219.86 25.41C217.77 25.41 215.77 25.32 214.88 25.32C214.15 25.32 212.15 25.41 210.88 25.41C210.47 25.41 210.25 25.32 210.25 25.09C210.25 24.93 210.38 24.84 210.76 24.84C211.24 24.84 211.62 24.78 211.9 24.71C212.53 24.58 212.72 23.88 212.82 22.97C212.98 21.64 212.98 19.13 212.98 16.22V3.22Z" fill="white"/>
<path d="M247.53 11.5302C247.63 11.5302 247.72 11.4702 247.72 11.3102V10.6402C247.72 5.8202 247.72 4.9302 247.66 3.9202C247.6 2.8402 247.34 2.3302 246.3 2.1102C246.05 2.0502 245.51 2.0102 245.06 2.0102C244.71 2.0102 244.52 1.9502 244.52 1.7302C244.52 1.5102 244.74 1.4502 245.18 1.4502C246.89 1.4502 248.89 1.5402 249.75 1.5402C250.51 1.5402 252.51 1.4502 253.75 1.4502C254.19 1.4502 254.42 1.5102 254.42 1.7302C254.42 1.9502 254.23 2.0102 253.85 2.0102C253.6 2.0102 253.31 2.0402 252.93 2.1102C252.07 2.2702 251.82 2.8102 251.76 3.9202C251.7 4.9402 251.7 5.8202 251.7 10.6402V16.2202C251.7 19.1402 251.7 21.6402 251.86 23.0102C251.96 23.9002 252.15 24.6002 253.1 24.7202C253.54 24.7802 254.24 24.8502 254.72 24.8502C255.07 24.8502 255.23 24.9402 255.23 25.1002C255.23 25.3202 254.98 25.4202 254.6 25.4202C252.54 25.4202 250.54 25.3302 249.65 25.3302C248.92 25.3302 246.92 25.4202 245.69 25.4202C245.25 25.4202 245.02 25.3302 245.02 25.1002C245.02 24.9402 245.15 24.8502 245.53 24.8502C246.01 24.8502 246.39 24.7902 246.67 24.7202C247.3 24.5902 247.46 23.8902 247.59 22.9802C247.75 21.6502 247.75 19.1402 247.75 16.2302V13.4402C247.75 13.3102 247.66 13.2502 247.56 13.2502H235.45C235.35 13.2502 235.26 13.2802 235.26 13.4402V16.2302C235.26 19.1502 235.26 21.6502 235.42 23.0202C235.52 23.9102 235.7 24.6102 236.66 24.7302C237.1 24.7902 237.8 24.8602 238.28 24.8602C238.63 24.8602 238.79 24.9502 238.79 25.1102C238.79 25.3302 238.54 25.4302 238.16 25.4302C236.1 25.4302 234.1 25.3402 233.21 25.3402C232.48 25.3402 230.48 25.4302 229.21 25.4302C228.8 25.4302 228.58 25.3402 228.58 25.1102C228.58 24.9502 228.71 24.8602 229.09 24.8602C229.57 24.8602 229.95 24.8002 230.23 24.7302C230.87 24.6002 231.02 23.9002 231.15 22.9902C231.31 21.6602 231.31 19.1502 231.31 16.2402V10.6602C231.31 5.8402 231.31 4.9502 231.25 3.9402C231.19 2.8602 230.93 2.3502 229.89 2.1302C229.64 2.0702 229.1 2.0302 228.65 2.0302C228.3 2.0302 228.11 1.9702 228.11 1.7502C228.11 1.5302 228.33 1.4702 228.78 1.4702C230.49 1.4702 232.49 1.5602 233.35 1.5602C234.11 1.5602 236.11 1.4702 237.35 1.4702C237.79 1.4702 238.02 1.5302 238.02 1.7502C238.02 1.9702 237.83 2.0302 237.45 2.0302C237.2 2.0302 236.91 2.0602 236.53 2.1302C235.67 2.2902 235.42 2.8302 235.36 3.9402C235.3 4.9602 235.3 5.8402 235.3 10.6602V11.3302C235.3 11.4902 235.4 11.5502 235.49 11.5502H247.6L247.53 11.5302Z" fill="white"/>
<path d="M262.09 10.6404C262.09 5.82043 262.09 4.93043 262.03 3.92043C261.97 2.84043 261.71 2.33043 260.67 2.11043C260.42 2.05043 259.88 2.01043 259.43 2.01043C259.08 2.01043 258.89 1.95043 258.89 1.73043C258.89 1.51043 259.11 1.45043 259.59 1.45043C260.45 1.45043 261.37 1.48043 262.16 1.48043C262.98 1.51043 263.71 1.54043 264.16 1.54043C265.17 1.54043 271.48 1.54043 272.09 1.51043C272.69 1.45043 273.2 1.38043 273.45 1.32043C273.61 1.29043 273.8 1.19043 273.96 1.19043C274.12 1.19043 274.15 1.32043 274.15 1.47043C274.15 1.69043 273.99 2.07043 273.9 3.53043C273.87 3.85043 273.8 5.24043 273.74 5.62043C273.71 5.78043 273.64 5.97043 273.42 5.97043C273.2 5.97043 273.13 5.81043 273.13 5.53043C273.13 5.31043 273.1 4.77043 272.94 4.39043C272.72 3.82043 272.4 3.44043 270.82 3.25043C270.28 3.19043 266.95 3.12043 266.32 3.12043C266.16 3.12043 266.1 3.22043 266.1 3.44043V11.4604C266.1 11.6804 266.13 11.8104 266.32 11.8104C267.02 11.8104 270.66 11.8104 271.39 11.7504C272.15 11.6904 272.63 11.5904 272.91 11.2704C273.13 11.0204 273.26 10.8604 273.42 10.8604C273.55 10.8604 273.64 10.9204 273.64 11.1104C273.64 11.3004 273.51 11.8104 273.39 13.4204C273.36 14.0504 273.26 15.3204 273.26 15.5504C273.26 15.8004 273.26 16.1504 272.98 16.1504C272.76 16.1504 272.69 16.0204 272.69 15.8704C272.66 15.5504 272.66 15.1404 272.56 14.7304C272.4 14.1004 271.96 13.6204 270.78 13.4904C270.18 13.4304 267.04 13.4004 266.28 13.4004C266.12 13.4004 266.09 13.5304 266.09 13.7204V16.2204C266.09 17.3004 266.06 20.2204 266.09 21.1404C266.15 23.3304 266.66 23.8004 269.9 23.8004C270.72 23.8004 272.06 23.8004 272.88 23.4204C273.7 23.0404 274.09 22.3704 274.31 21.0704C274.37 20.7204 274.44 20.6004 274.66 20.6004C274.91 20.6004 274.91 20.8504 274.91 21.1704C274.91 21.9004 274.66 24.0604 274.5 24.6904C274.28 25.5204 273.99 25.5204 272.79 25.5204C270.41 25.5204 268.67 25.4604 267.3 25.4204C265.94 25.3604 264.95 25.3304 264 25.3304C263.65 25.3304 262.95 25.3304 262.19 25.3604C261.46 25.3604 260.64 25.4204 260 25.4204C259.59 25.4204 259.37 25.3304 259.37 25.1004C259.37 24.9404 259.5 24.8504 259.88 24.8504C260.36 24.8504 260.74 24.7904 261.02 24.7204C261.66 24.5904 261.81 23.8904 261.94 22.9804C262.1 21.6504 262.1 19.1404 262.1 16.2304V10.6504L262.09 10.6404Z" fill="white"/>
<path d="M310.88 23.29C310.88 24.15 310.85 24.21 310.47 24.43C308.41 25.51 305.3 25.86 302.83 25.86C295.06 25.86 288.18 22.18 288.18 13.43C288.18 8.36 290.81 4.81 293.7 3.06C296.74 1.22 299.57 1 302.23 1C304.42 1 307.21 1.38 307.84 1.51C308.51 1.64 309.62 1.83 310.35 1.86C310.73 1.89 310.79 2.02 310.79 2.24C310.79 2.59 310.57 3.48 310.57 7.44C310.57 7.95 310.48 8.11 310.22 8.11C310 8.11 309.93 7.95 309.9 7.7C309.8 6.97 309.65 5.96 308.82 5.07C307.87 4.05 305.33 2.6 301.75 2.6C300.01 2.6 297.69 2.73 295.47 4.57C293.69 6.06 292.55 8.44 292.55 12.34C292.55 19.16 296.89 24.26 303.58 24.26C304.41 24.26 305.51 24.26 306.28 23.91C306.75 23.69 306.88 23.28 306.88 22.74V19.76C306.88 18.17 306.88 16.97 306.85 16.02C306.82 14.94 306.53 14.43 305.49 14.21C305.24 14.15 304.7 14.12 304.25 14.12C303.96 14.12 303.77 14.06 303.77 13.87C303.77 13.62 303.99 13.55 304.44 13.55C306.09 13.55 308.09 13.65 309.04 13.65C309.99 13.65 311.7 13.55 312.75 13.55C313.16 13.55 313.38 13.61 313.38 13.87C313.38 14.06 313.19 14.12 312.97 14.12C312.72 14.12 312.49 14.15 312.11 14.21C311.25 14.37 310.94 14.91 310.9 16.02C310.87 16.97 310.87 18.24 310.87 19.83V23.32L310.88 23.29Z" fill="white"/>
<path d="M319.73 10.6402C319.73 5.8202 319.73 4.9302 319.67 3.9202C319.61 2.8402 319.35 2.3302 318.31 2.1102C318.06 2.0502 317.52 2.0102 317.07 2.0102C316.72 2.0102 316.53 1.9502 316.53 1.7302C316.53 1.5102 316.75 1.4502 317.23 1.4502C318.91 1.4502 320.91 1.5402 321.57 1.5402C322.65 1.5402 325.06 1.4502 326.04 1.4502C328.04 1.4502 330.16 1.6402 331.88 2.8102C332.77 3.4102 334.04 5.0302 334.04 7.1602C334.04 9.5002 333.06 11.6602 329.85 14.2602C332.67 17.8102 334.86 20.6302 336.73 22.6002C338.51 24.4402 339.81 24.6602 340.28 24.7602C340.63 24.8202 340.91 24.8602 341.17 24.8602C341.43 24.8602 341.55 24.9502 341.55 25.1102C341.55 25.3602 341.33 25.4302 340.95 25.4302H337.94C336.16 25.4302 335.37 25.2702 334.55 24.8302C333.19 24.1002 331.98 22.6102 330.21 20.1702C328.94 18.4302 327.48 16.2702 327.07 15.7902C326.91 15.6002 326.72 15.5702 326.5 15.5702L323.74 15.5102C323.58 15.5102 323.49 15.5702 323.49 15.7602V16.2002C323.49 19.1502 323.49 21.6502 323.65 22.9802C323.75 23.9002 323.93 24.6002 324.89 24.7202C325.37 24.7802 326.06 24.8502 326.44 24.8502C326.69 24.8502 326.82 24.9402 326.82 25.1002C326.82 25.3202 326.6 25.4202 326.19 25.4202C324.35 25.4202 322 25.3302 321.53 25.3302C320.93 25.3302 318.93 25.4202 317.66 25.4202C317.25 25.4202 317.03 25.3302 317.03 25.1002C317.03 24.9402 317.16 24.8502 317.54 24.8502C318.02 24.8502 318.4 24.7902 318.68 24.7202C319.31 24.5902 319.47 23.8902 319.6 22.9802C319.76 21.6502 319.76 19.1402 319.76 16.2302V10.6502L319.73 10.6402ZM323.47 13.1402C323.47 13.4902 323.53 13.6202 323.76 13.7102C324.43 13.9302 325.38 14.0302 326.17 14.0302C327.44 14.0302 327.85 13.9002 328.42 13.4902C329.37 12.7902 330.29 11.3402 330.29 8.7302C330.29 4.2302 327.31 2.9302 325.44 2.9302C324.65 2.9302 324.08 2.9602 323.76 3.0602C323.54 3.1202 323.47 3.2502 323.47 3.5002V13.1402Z" fill="white"/>
<path d="M343.66 10.6404C343.66 5.82043 343.66 4.93043 343.6 3.92043C343.54 2.84043 343.28 2.33043 342.24 2.11043C341.99 2.05043 341.45 2.01043 341 2.01043C340.65 2.01043 340.46 1.95043 340.46 1.73043C340.46 1.51043 340.68 1.45043 341.16 1.45043C342.02 1.45043 342.94 1.48043 343.73 1.48043C344.56 1.51043 345.28 1.54043 345.73 1.54043C346.74 1.54043 353.05 1.54043 353.66 1.51043C354.26 1.45043 354.77 1.38043 355.02 1.32043C355.18 1.29043 355.37 1.19043 355.53 1.19043C355.69 1.19043 355.72 1.32043 355.72 1.47043C355.72 1.69043 355.56 2.07043 355.47 3.53043C355.44 3.85043 355.37 5.24043 355.31 5.62043C355.28 5.78043 355.21 5.97043 354.99 5.97043C354.77 5.97043 354.71 5.81043 354.71 5.53043C354.71 5.31043 354.68 4.77043 354.52 4.39043C354.3 3.82043 353.98 3.44043 352.4 3.25043C351.86 3.19043 348.53 3.12043 347.9 3.12043C347.74 3.12043 347.68 3.22043 347.68 3.44043V11.4604C347.68 11.6804 347.71 11.8104 347.9 11.8104C348.6 11.8104 352.24 11.8104 352.97 11.7504C353.73 11.6904 354.21 11.5904 354.49 11.2704C354.71 11.0204 354.84 10.8604 355 10.8604C355.13 10.8604 355.22 10.9204 355.22 11.1104C355.22 11.3004 355.09 11.8104 354.97 13.4204C354.94 14.0504 354.84 15.3204 354.84 15.5504C354.84 15.8004 354.84 16.1504 354.55 16.1504C354.33 16.1504 354.26 16.0204 354.26 15.8704C354.23 15.5504 354.23 15.1404 354.13 14.7304C353.97 14.1004 353.53 13.6204 352.35 13.4904C351.75 13.4304 348.61 13.4004 347.85 13.4004C347.69 13.4004 347.66 13.5304 347.66 13.7204V16.2204C347.66 17.3004 347.63 20.2204 347.66 21.1404C347.72 23.3304 348.23 23.8004 351.47 23.8004C352.29 23.8004 353.63 23.8004 354.45 23.4204C355.27 23.0404 355.66 22.3704 355.88 21.0704C355.94 20.7204 356.01 20.6004 356.23 20.6004C356.48 20.6004 356.48 20.8504 356.48 21.1704C356.48 21.9004 356.23 24.0604 356.07 24.6904C355.85 25.5204 355.56 25.5204 354.36 25.5204C351.98 25.5204 350.24 25.4604 348.87 25.4204C347.51 25.3604 346.52 25.3304 345.57 25.3304C345.22 25.3304 344.52 25.3304 343.76 25.3604C343.03 25.3604 342.21 25.4204 341.57 25.4204C341.16 25.4204 340.94 25.3304 340.94 25.1004C340.94 24.9404 341.07 24.8504 341.45 24.8504C341.93 24.8504 342.31 24.7904 342.59 24.7204C343.22 24.5904 343.38 23.8904 343.51 22.9804C343.67 21.6504 343.67 19.1404 343.67 16.2304V10.6504L343.66 10.6404Z" fill="white"/>
<path d="M363.7 10.6404C363.7 5.82043 363.7 4.93043 363.64 3.92043C363.58 2.84043 363.32 2.33043 362.28 2.11043C362.03 2.05043 361.49 2.01043 361.04 2.01043C360.69 2.01043 360.5 1.95043 360.5 1.73043C360.5 1.51043 360.72 1.45043 361.2 1.45043C362.06 1.45043 362.98 1.48043 363.77 1.48043C364.6 1.51043 365.32 1.54043 365.77 1.54043C366.79 1.54043 373.1 1.54043 373.7 1.51043C374.3 1.45043 374.81 1.38043 375.06 1.32043C375.22 1.29043 375.41 1.19043 375.57 1.19043C375.73 1.19043 375.76 1.32043 375.76 1.47043C375.76 1.69043 375.6 2.07043 375.51 3.53043C375.48 3.85043 375.42 5.24043 375.35 5.62043C375.32 5.78043 375.25 5.97043 375.03 5.97043C374.81 5.97043 374.74 5.81043 374.74 5.53043C374.74 5.31043 374.71 4.77043 374.55 4.39043C374.33 3.82043 374.01 3.44043 372.43 3.25043C371.89 3.19043 368.56 3.12043 367.93 3.12043C367.77 3.12043 367.71 3.22043 367.71 3.44043V11.4604C367.71 11.6804 367.74 11.8104 367.93 11.8104C368.63 11.8104 372.27 11.8104 373 11.7504C373.76 11.6904 374.24 11.5904 374.52 11.2704C374.74 11.0204 374.87 10.8604 375.03 10.8604C375.16 10.8604 375.25 10.9204 375.25 11.1104C375.25 11.3004 375.12 11.8104 375 13.4204C374.97 14.0504 374.87 15.3204 374.87 15.5504C374.87 15.8004 374.87 16.1504 374.58 16.1504C374.36 16.1504 374.3 16.0204 374.3 15.8704C374.27 15.5504 374.27 15.1404 374.17 14.7304C374.01 14.1004 373.57 13.6204 372.39 13.4904C371.79 13.4304 368.65 13.4004 367.89 13.4004C367.73 13.4004 367.7 13.5304 367.7 13.7204V16.2204C367.7 17.3004 367.67 20.2204 367.7 21.1404C367.76 23.3304 368.27 23.8004 371.51 23.8004C372.34 23.8004 373.67 23.8004 374.49 23.4204C375.31 23.0404 375.69 22.3704 375.92 21.0704C375.98 20.7204 376.05 20.6004 376.27 20.6004C376.52 20.6004 376.52 20.8504 376.52 21.1704C376.52 21.9004 376.27 24.0604 376.11 24.6904C375.89 25.5204 375.6 25.5204 374.4 25.5204C372.02 25.5204 370.28 25.4604 368.91 25.4204C367.55 25.3604 366.56 25.3304 365.61 25.3304C365.26 25.3304 364.56 25.3304 363.8 25.3604C363.07 25.3604 362.25 25.4204 361.61 25.4204C361.2 25.4204 360.98 25.3304 360.98 25.1004C360.98 24.9404 361.11 24.8504 361.49 24.8504C361.97 24.8504 362.35 24.7904 362.63 24.7204C363.26 24.5904 363.42 23.8904 363.55 22.9804C363.71 21.6504 363.71 19.1404 363.71 16.2304V10.6504L363.7 10.6404Z" fill="white"/>
<path d="M385.51 21.1002C385.57 23.5702 385.99 24.4002 386.62 24.6202C387.16 24.8102 387.76 24.8402 388.27 24.8402C388.62 24.8402 388.81 24.9002 388.81 25.0902C388.81 25.3402 388.52 25.4102 388.08 25.4102C386.02 25.4102 384.75 25.3202 384.15 25.3202C383.86 25.3202 382.37 25.4102 380.72 25.4102C380.31 25.4102 380.02 25.3802 380.02 25.0902C380.02 24.9002 380.21 24.8402 380.53 24.8402C380.94 24.8402 381.51 24.8102 381.96 24.6802C382.78 24.4302 382.91 23.5102 382.94 20.7502L383.23 2.07023C383.23 1.44023 383.32 0.990234 383.64 0.990234C383.99 0.990234 384.27 1.40023 384.81 1.97023C385.19 2.38023 390.01 7.46023 394.64 12.0502C396.8 14.2102 401.08 18.7702 401.62 19.2802H401.78L401.46 5.04023C401.43 3.10023 401.14 2.50023 400.38 2.19023C399.9 2.00023 399.14 2.00023 398.7 2.00023C398.32 2.00023 398.19 1.91023 398.19 1.72023C398.19 1.47023 398.54 1.44023 399.02 1.44023C400.67 1.44023 402.19 1.53023 402.86 1.53023C403.21 1.53023 404.41 1.44023 405.97 1.44023C406.38 1.44023 406.7 1.47023 406.7 1.72023C406.7 1.91023 406.51 2.00023 406.13 2.00023C405.81 2.00023 405.56 2.00023 405.18 2.10023C404.29 2.35023 404.04 3.02023 404.01 4.80023L403.66 24.8102C403.66 25.5102 403.53 25.7902 403.25 25.7902C402.9 25.7902 402.52 25.4402 402.17 25.0902C400.17 23.1902 396.11 19.0302 392.82 15.7702C389.36 12.3502 385.84 8.48023 385.27 7.88023H385.17L385.52 21.1002H385.51Z" fill="white"/>
<path d="M420.45 4.5502C420.07 3.3802 419.72 2.6102 419.28 2.3002C418.93 2.0802 418.3 2.0102 418.01 2.0102C417.69 2.0102 417.5 1.9802 417.5 1.7302C417.5 1.5102 417.75 1.4502 418.2 1.4502C419.85 1.4502 421.59 1.5402 421.88 1.5402C422.17 1.5402 423.56 1.4502 425.4 1.4502C425.84 1.4502 426.07 1.5402 426.07 1.7302C426.07 1.9802 425.82 2.0102 425.5 2.0102C425.25 2.0102 424.93 2.0102 424.71 2.1402C424.42 2.2702 424.36 2.4902 424.36 2.8402C424.36 3.2502 424.68 4.3302 425.06 5.7602C425.6 7.8502 428.55 17.4602 429.12 19.2402H429.21L435.36 2.6902C435.68 1.8002 435.9 1.5502 436.15 1.5502C436.5 1.5502 436.66 2.0202 437.07 3.0402L443.67 19.0202H443.76C444.33 16.8902 446.87 8.5202 447.98 4.8102C448.2 4.0802 448.3 3.4202 448.3 2.9702C448.3 2.4602 448.01 2.0202 446.78 2.0202C446.46 2.0202 446.24 1.9302 446.24 1.7402C446.24 1.5202 446.49 1.4602 446.97 1.4602C448.65 1.4602 449.98 1.5502 450.27 1.5502C450.49 1.5502 451.85 1.4602 452.9 1.4602C453.25 1.4602 453.47 1.5202 453.47 1.7102C453.47 1.9302 453.31 2.0302 453.03 2.0302C452.71 2.0302 452.27 2.0602 451.92 2.1902C451.16 2.4702 450.81 3.7402 450.14 5.5502C448.68 9.5502 445.35 19.6302 443.8 24.3902C443.45 25.5002 443.29 25.8802 442.88 25.8802C442.56 25.8802 442.37 25.5002 441.89 24.3302L435.3 8.4102H435.24C434.64 10.0302 430.42 21.2802 429.06 24.2002C428.46 25.5002 428.3 25.8802 427.92 25.8802C427.6 25.8802 427.48 25.5302 427.19 24.7102L420.47 4.5702L420.45 4.5502Z" fill="white"/>
<path d="M454.22 13.43C454.22 8.01 457.8 1 467.32 1C475.22 1 480.13 5.6 480.13 12.86C480.13 20.12 475.06 25.86 467 25.86C457.9 25.86 454.22 19.04 454.22 13.43ZM475.69 14.03C475.69 6.93 471.6 2.52 466.4 2.52C462.75 2.52 458.6 4.55 458.6 12.44C458.6 19.04 462.25 24.27 468.33 24.27C470.55 24.27 475.69 23.19 475.69 14.03Z" fill="white"/>
<path d="M486.75 10.6402C486.75 5.8202 486.75 4.9302 486.69 3.9202C486.63 2.8402 486.37 2.3302 485.33 2.1102C485.08 2.0502 484.54 2.0102 484.09 2.0102C483.74 2.0102 483.55 1.9502 483.55 1.7302C483.55 1.5102 483.77 1.4502 484.25 1.4502C485.93 1.4502 487.93 1.5402 488.59 1.5402C489.67 1.5402 492.08 1.4502 493.06 1.4502C495.06 1.4502 497.18 1.6402 498.89 2.8102C499.78 3.4102 501.05 5.0302 501.05 7.1602C501.05 9.5002 500.07 11.6602 496.86 14.2602C499.68 17.8102 501.87 20.6302 503.74 22.6002C505.52 24.4402 506.81 24.6602 507.29 24.7602C507.64 24.8202 507.92 24.8602 508.18 24.8602C508.44 24.8602 508.56 24.9502 508.56 25.1102C508.56 25.3602 508.34 25.4302 507.96 25.4302H504.95C503.17 25.4302 502.38 25.2702 501.56 24.8302C500.19 24.1002 498.99 22.6102 497.21 20.1702C495.94 18.4302 494.48 16.2702 494.07 15.7902C493.91 15.6002 493.72 15.5702 493.5 15.5702L490.74 15.5102C490.58 15.5102 490.49 15.5702 490.49 15.7602V16.2002C490.49 19.1502 490.49 21.6502 490.65 22.9802C490.75 23.9002 490.93 24.6002 491.89 24.7202C492.37 24.7802 493.06 24.8502 493.44 24.8502C493.69 24.8502 493.82 24.9402 493.82 25.1002C493.82 25.3202 493.6 25.4202 493.19 25.4202C491.35 25.4202 489 25.3302 488.53 25.3302C487.93 25.3302 485.93 25.4202 484.66 25.4202C484.25 25.4202 484.02 25.3302 484.02 25.1002C484.02 24.9402 484.15 24.8502 484.53 24.8502C485.01 24.8502 485.39 24.7902 485.67 24.7202C486.3 24.5902 486.46 23.8902 486.59 22.9802C486.75 21.6502 486.75 19.1402 486.75 16.2302V10.6502V10.6402ZM490.49 13.1402C490.49 13.4902 490.55 13.6202 490.77 13.7102C491.44 13.9302 492.39 14.0302 493.18 14.0302C494.45 14.0302 494.86 13.9002 495.43 13.4902C496.38 12.7902 497.3 11.3402 497.3 8.7302C497.3 4.2302 494.32 2.9302 492.45 2.9302C491.66 2.9302 491.09 2.9602 490.77 3.0602C490.55 3.1202 490.49 3.2502 490.49 3.5002V13.1402Z" fill="white"/>
<path d="M514.65 16.2204C514.65 20.2804 514.65 22.4705 515.32 23.0405C515.86 23.5205 516.68 23.7404 519.16 23.7404C520.84 23.7404 522.08 23.7105 522.87 22.8505C523.25 22.4405 523.63 21.5505 523.7 20.9505C523.73 20.6705 523.8 20.4704 524.05 20.4704C524.27 20.4704 524.3 20.6305 524.3 21.0105C524.3 21.3605 524.08 23.7404 523.82 24.6604C523.63 25.3605 523.47 25.5205 521.82 25.5205C519.54 25.5205 517.89 25.4605 516.46 25.4205C515.03 25.3605 513.89 25.3305 512.59 25.3305C512.24 25.3305 511.54 25.3305 510.78 25.3605C510.05 25.3605 509.23 25.4205 508.59 25.4205C508.18 25.4205 507.96 25.3305 507.96 25.1005C507.96 24.9405 508.09 24.8505 508.47 24.8505C508.95 24.8505 509.33 24.7904 509.61 24.7204C510.24 24.5905 510.4 23.8904 510.53 22.9804C510.69 21.6504 510.69 19.1404 510.69 16.2304V10.6504C510.69 5.83045 510.69 4.94045 510.63 3.93045C510.57 2.85045 510.31 2.34045 509.27 2.12045C509.02 2.06045 508.63 2.02045 508.22 2.02045C507.87 2.02045 507.68 1.96045 507.68 1.74045C507.68 1.52045 507.9 1.46045 508.38 1.46045C509.87 1.46045 511.87 1.55045 512.73 1.55045C513.49 1.55045 515.81 1.46045 517.04 1.46045C517.48 1.46045 517.7 1.52045 517.7 1.74045C517.7 1.96045 517.51 2.02045 517.13 2.02045C516.78 2.02045 516.27 2.05045 515.89 2.12045C515.03 2.28045 514.78 2.82045 514.72 3.93045C514.66 4.95045 514.66 5.83045 514.66 10.6504V16.2304L514.65 16.2204Z" fill="white"/>
<path d="M529.87 10.6402C529.87 5.8202 529.87 4.9302 529.81 3.9202C529.75 2.8402 529.49 2.3302 528.45 2.1102C528.2 2.0502 527.66 2.0102 527.21 2.0102C526.86 2.0102 526.67 1.9502 526.67 1.7302C526.67 1.5102 526.89 1.4502 527.37 1.4502C529.05 1.4502 531.05 1.5402 531.94 1.5402C532.92 1.5402 534.92 1.4502 536.82 1.4502C540.78 1.4502 546.08 1.4502 549.54 5.0602C551.12 6.7102 552.62 9.3402 552.62 13.1102C552.62 17.1002 550.94 20.1502 549.16 21.9602C547.7 23.4502 544.4 25.7002 538.54 25.7002C537.4 25.7002 536.1 25.6102 534.89 25.5102C533.68 25.4102 532.57 25.3202 531.78 25.3202C531.43 25.3202 530.73 25.3202 529.97 25.3502C529.24 25.3502 528.42 25.4102 527.78 25.4102C527.37 25.4102 527.14 25.3202 527.14 25.0902C527.14 24.9302 527.27 24.8402 527.65 24.8402C528.13 24.8402 528.51 24.7802 528.79 24.7102C529.42 24.5802 529.58 23.8802 529.71 22.9702C529.87 21.6402 529.87 19.1302 529.87 16.2202V10.6402ZM533.83 14.1302C533.83 17.4902 533.86 19.9302 533.89 20.5402C533.92 21.3302 533.99 22.6002 534.24 22.9502C534.65 23.5502 535.89 24.2202 538.39 24.2202C541.63 24.2202 543.78 23.5902 545.68 21.9402C547.71 20.2002 548.34 17.3102 548.34 14.0502C548.34 10.0202 546.66 7.4202 545.3 6.1202C542.38 3.3302 538.77 2.9502 536.29 2.9502C535.66 2.9502 534.48 3.0502 534.23 3.1702C533.94 3.3002 533.85 3.4502 533.85 3.8002C533.82 4.8802 533.82 7.6402 533.82 10.1402V14.1402L533.83 14.1302Z" fill="white"/>
</g>
<defs>
<linearGradient id="paint0_linear_2636_8618" x1="271.44" y1="188.38" x2="1606.15" y2="243.3" gradientUnits="userSpaceOnUse">
<stop stop-color="#EBC87D"/>
<stop offset="0.19" stop-color="#E3BF7E"/>
<stop offset="0.6" stop-color="#C38503"/>
<stop offset="0.8" stop-color="#DFB35E"/>
<stop offset="0.87" stop-color="#EAC580"/>
<stop offset="1" stop-color="#EFE3CA"/>
</linearGradient>
<linearGradient id="paint1_linear_2636_8618" x1="270.04" y1="193.98" x2="1610.04" y2="249.11" gradientUnits="userSpaceOnUse">
<stop stop-color="#EBC87D"/>
<stop offset="0.19" stop-color="#E3BF7E"/>
<stop offset="0.6" stop-color="#C38503"/>
<stop offset="0.8" stop-color="#DFB35E"/>
<stop offset="0.87" stop-color="#EAC580"/>
<stop offset="1" stop-color="#EFE3CA"/>
</linearGradient>
<linearGradient id="paint2_linear_2636_8618" x1="272.44" y1="135.84" x2="1612.44" y2="190.98" gradientUnits="userSpaceOnUse">
<stop stop-color="#EBC87D"/>
<stop offset="0.19" stop-color="#E3BF7E"/>
<stop offset="0.6" stop-color="#C38503"/>
<stop offset="0.8" stop-color="#DFB35E"/>
<stop offset="0.87" stop-color="#EAC580"/>
<stop offset="1" stop-color="#EFE3CA"/>
</linearGradient>
<linearGradient id="paint3_linear_2636_8618" x1="274.01" y1="97.4898" x2="1614.01" y2="152.63" gradientUnits="userSpaceOnUse">
<stop stop-color="#EBC87D"/>
<stop offset="0.19" stop-color="#E3BF7E"/>
<stop offset="0.6" stop-color="#C38503"/>
<stop offset="0.8" stop-color="#DFB35E"/>
<stop offset="0.87" stop-color="#EAC580"/>
<stop offset="1" stop-color="#EFE3CA"/>
</linearGradient>
<linearGradient id="paint4_linear_2636_8618" x1="268.867" y1="238.14" x2="1608.88" y2="293.271" gradientUnits="userSpaceOnUse">
<stop stop-color="#EBC87D"/>
<stop offset="0.19" stop-color="#E3BF7E"/>
<stop offset="0.6" stop-color="#C38503"/>
<stop offset="0.8" stop-color="#DFB35E"/>
<stop offset="0.87" stop-color="#EAC580"/>
<stop offset="1" stop-color="#EFE3CA"/>
</linearGradient>
<linearGradient id="paint5_linear_2636_8618" x1="268.877" y1="237.95" x2="1608.89" y2="293.081" gradientUnits="userSpaceOnUse">
<stop stop-color="#EBC87D"/>
<stop offset="0.19" stop-color="#E3BF7E"/>
<stop offset="0.6" stop-color="#C38503"/>
<stop offset="0.8" stop-color="#DFB35E"/>
<stop offset="0.87" stop-color="#EAC580"/>
<stop offset="1" stop-color="#EFE3CA"/>
</linearGradient>
<linearGradient id="paint6_linear_2636_8618" x1="268.895" y1="237.75" x2="1608.87" y2="292.888" gradientUnits="userSpaceOnUse">
<stop stop-color="#EBC87D"/>
<stop offset="0.19" stop-color="#E3BF7E"/>
<stop offset="0.6" stop-color="#C38503"/>
<stop offset="0.8" stop-color="#DFB35E"/>
<stop offset="0.87" stop-color="#EAC580"/>
<stop offset="1" stop-color="#EFE3CA"/>
</linearGradient>
<linearGradient id="paint7_linear_2636_8618" x1="268.895" y1="237.56" x2="1608.88" y2="292.698" gradientUnits="userSpaceOnUse">
<stop stop-color="#EBC87D"/>
<stop offset="0.19" stop-color="#E3BF7E"/>
<stop offset="0.6" stop-color="#C38503"/>
<stop offset="0.8" stop-color="#DFB35E"/>
<stop offset="0.87" stop-color="#EAC580"/>
<stop offset="1" stop-color="#EFE3CA"/>
</linearGradient>
<linearGradient id="paint8_linear_2636_8618" x1="268.907" y1="237.37" x2="1608.9" y2="292.501" gradientUnits="userSpaceOnUse">
<stop stop-color="#EBC87D"/>
<stop offset="0.19" stop-color="#E3BF7E"/>
<stop offset="0.6" stop-color="#C38503"/>
<stop offset="0.8" stop-color="#DFB35E"/>
<stop offset="0.87" stop-color="#EAC580"/>
<stop offset="1" stop-color="#EFE3CA"/>
</linearGradient>
<linearGradient id="paint9_linear_2636_8618" x1="268.907" y1="237.18" x2="1608.92" y2="292.311" gradientUnits="userSpaceOnUse">
<stop stop-color="#EBC87D"/>
<stop offset="0.19" stop-color="#E3BF7E"/>
<stop offset="0.6" stop-color="#C38503"/>
<stop offset="0.8" stop-color="#DFB35E"/>
<stop offset="0.87" stop-color="#EAC580"/>
<stop offset="1" stop-color="#EFE3CA"/>
</linearGradient>
<linearGradient id="paint10_linear_2636_8618" x1="272.29" y1="159.56" x2="1612.28" y2="214.69" gradientUnits="userSpaceOnUse">
<stop stop-color="#EBC87D"/>
<stop offset="0.19" stop-color="#E3BF7E"/>
<stop offset="0.6" stop-color="#C38503"/>
<stop offset="0.8" stop-color="#DFB35E"/>
<stop offset="0.87" stop-color="#EAC580"/>
<stop offset="1" stop-color="#EFE3CA"/>
</linearGradient>
<linearGradient id="paint11_linear_2636_8618" x1="272.31" y1="159.36" x2="1612.31" y2="214.5" gradientUnits="userSpaceOnUse">
<stop stop-color="#EBC87D"/>
<stop offset="0.19" stop-color="#E3BF7E"/>
<stop offset="0.6" stop-color="#C38503"/>
<stop offset="0.8" stop-color="#DFB35E"/>
<stop offset="0.87" stop-color="#EAC580"/>
<stop offset="1" stop-color="#EFE3CA"/>
</linearGradient>
<linearGradient id="paint12_linear_2636_8618" x1="272.31" y1="159.17" x2="1612.29" y2="214.31" gradientUnits="userSpaceOnUse">
<stop stop-color="#EBC87D"/>
<stop offset="0.19" stop-color="#E3BF7E"/>
<stop offset="0.6" stop-color="#C38503"/>
<stop offset="0.8" stop-color="#DFB35E"/>
<stop offset="0.87" stop-color="#EAC580"/>
<stop offset="1" stop-color="#EFE3CA"/>
</linearGradient>
<linearGradient id="paint13_linear_2636_8618" x1="272.32" y1="158.98" x2="1612.33" y2="214.11" gradientUnits="userSpaceOnUse">
<stop stop-color="#EBC87D"/>
<stop offset="0.19" stop-color="#E3BF7E"/>
<stop offset="0.6" stop-color="#C38503"/>
<stop offset="0.8" stop-color="#DFB35E"/>
<stop offset="0.87" stop-color="#EAC580"/>
<stop offset="1" stop-color="#EFE3CA"/>
</linearGradient>
<linearGradient id="paint14_linear_2636_8618" x1="272.33" y1="158.79" x2="1612.31" y2="213.92" gradientUnits="userSpaceOnUse">
<stop stop-color="#EBC87D"/>
<stop offset="0.19" stop-color="#E3BF7E"/>
<stop offset="0.6" stop-color="#C38503"/>
<stop offset="0.8" stop-color="#DFB35E"/>
<stop offset="0.87" stop-color="#EAC580"/>
<stop offset="1" stop-color="#EFE3CA"/>
</linearGradient>
<linearGradient id="paint15_linear_2636_8618" x1="272.34" y1="158.6" x2="1612.35" y2="213.73" gradientUnits="userSpaceOnUse">
<stop stop-color="#EBC87D"/>
<stop offset="0.19" stop-color="#E3BF7E"/>
<stop offset="0.6" stop-color="#C38503"/>
<stop offset="0.8" stop-color="#DFB35E"/>
<stop offset="0.87" stop-color="#EAC580"/>
<stop offset="1" stop-color="#EFE3CA"/>
</linearGradient>
</defs>
</svg>
