<?xml version="1.0" encoding="utf-8"?>
<!-- Generator: Adobe Illustrator 26.5.0, SVG Export Plug-In . SVG Version: 6.00 Build 0)  -->
<svg version="1.1" id="圖層_1" xmlns="http://www.w3.org/2000/svg" xmlns:xlink="http://www.w3.org/1999/xlink" x="0px" y="0px"
	 viewBox="0 0 50 50" style="enable-background:new 0 0 50 50;" xml:space="preserve">
<style type="text/css">
@keyframes an {
  to {
    transform: translateY(0);
  }
}
	.st0{fill:url(#SVGID_1_);
    transform: scale(0.7,1.2);
    transform-origin:50% 50%;
  animation: an 1s infinite alternate  ;}
</style>
<linearGradient id="SVGID_1_" gradientUnits="userSpaceOnUse" x1="8.695652e-02" y1="25" x2="49.6522" y2="25">
	<stop  offset="0" style="stop-color:#E9C163"/>
	<stop  offset="0.1612" style="stop-color:#FBF5E0"/>
	<stop  offset="0.33" style="stop-color:#E9C163"/>
	<stop  offset="0.5" style="stop-color:#C0A049"/>
	<stop  offset="0.67" style="stop-color:#E9C163"/>
	<stop  offset="0.8209" style="stop-color:#FBF5E0"/>
	<stop  offset="1" style="stop-color:#E9C163"/>
</linearGradient>
<path class="st0" d="M4.8,43.6c0.6,0.7,1.6,0.8,2.3,0.2c0.4-0.4,0.5-1.1,0.8-1.7c0.7-1.3,1.8-3.2,3.5-2.5c0.6,0.2,1.2,0.3,1.7,0.2
	c1-0.2,1.8-0.8,1.8-0.8l0,0c-0.3,1.6,2.4,4.4,5.4-0.1c3-4.6,5.2-12.9,4.3-13.9c0-0.1-0.1-0.1-0.2-0.1c0.3-0.2,0.5-0.6,0.3-1.3l0,0
	c0,0-2.9-9.7-10.9-14.3C5.9,4.5,0.7,5.5,0.4,7.4c-0.3,2,1.9,1.6,3.7,7.1C6,20,6.5,24.8,7.9,26.1c0.9,0.8,3.6,0.5,6.9,0
	c-1.3,0.4-2.5,1-3.6,1.5c-4.6,2.6-2.4,5.8-0.9,5.7c0,0-0.7,0.8-1,1.8c-0.2,0.5-0.2,1.2-0.1,1.8c0.4,1.8-1.4,2.9-2.8,3.3
	c-0.6,0.2-1.2,0.3-1.7,0.7C4.2,41.7,4.2,42.8,4.8,43.6z M10.4,30.7c0,0.4-0.2,0.6-0.6,0.7c-0.3,0-0.6-0.3-0.6-0.6
	c0-0.4,0.2-0.6,0.6-0.7C10.1,30,10.4,30.3,10.4,30.7z M11.3,33.8c0.3,0,0.6,0.3,0.6,0.6c0,0.4-0.2,0.6-0.6,0.7
	c-0.3,0-0.6-0.3-0.6-0.6C10.7,34.1,11,33.8,11.3,33.8z M11.6,30.6c0.6,0,1.1,0.5,1.1,1.1c0,0.6-0.4,1.1-1,1.2
	c-0.6,0-1.1-0.5-1.1-1.1C10.6,31.1,11,30.6,11.6,30.6z M12,28.7c0,0.4-0.2,0.6-0.6,0.7c-0.3,0-0.6-0.3-0.6-0.6
	c0-0.4,0.2-0.6,0.6-0.7C11.7,28.1,12,28.4,12,28.7z M23.4,24.8c-0.1,0.1-0.3,0.5-0.4,0.9c-2.8,1.4-6.7,3.9-8.7,5.3l0,0
	c-1.2,0.8-2.6-0.6-2-2c0.3-0.6,0.9-1.2,1.9-1.8C17,25.6,21.3,24.7,23.4,24.8z M14.3,22.1L14.3,22.1c4,0.4,6.9,1.3,8.6,1.9
	c0.2,0.3,0.4,0.5,0.5,0.7c-4.6,0-9.1,1.6-10.3,0.5C11.8,24.1,12.7,21.9,14.3,22.1z M22.6,22.5c-2.2-1.8-6-4-11.7-4.9
	c-0.2,0-0.5-0.2-0.7-0.5c-1.2-1.4,0.1-3.6,1.8-3c6,1.9,9.5,5.7,11.3,8.2C23.1,22.3,22.8,22.3,22.6,22.5z M10.9,20.5L10.9,20.5
	C10.8,20.5,10.8,20.5,10.9,20.5c-0.4-1.4,0.6-2.7,1.9-2.4c4.6,1,7.8,3,9.8,4.5c-0.2,0.3,0,0.7,0.3,1.2c-2.1-0.7-5.6-1.7-10.4-2
	C11.7,21.7,11.1,21.2,10.9,20.5z M11,25.1c0-0.4,0.3-0.7,0.6-0.7c0.4,0,0.7,0.3,0.7,0.7c0,0.4-0.3,0.7-0.6,0.7
	C11.3,25.8,11,25.5,11,25.1z M10.5,23c0-0.4,0.2-0.6,0.6-0.7c0.3,0,0.6,0.3,0.6,0.6c0,0.4-0.2,0.6-0.6,0.7
	C10.8,23.6,10.5,23.3,10.5,23z M9.9,21.3c-0.3,0-0.6-0.3-0.6-0.6c0-0.4,0.2-0.6,0.6-0.7c0.3,0,0.6,0.3,0.6,0.6
	C10.5,21,10.3,21.3,9.9,21.3z M9.6,17.1c0,0.5-0.3,0.9-0.8,0.9C8.4,18,8,17.6,8,17.2c0-0.5,0.3-0.9,0.8-0.9
	C9.2,16.3,9.6,16.7,9.6,17.1z M8,15.6c-0.6,0-1.1-0.5-1.2-1.2c0-0.7,0.4-1.2,1.1-1.2c0.6,0,1.1,0.5,1.2,1.2
	C9.1,15.1,8.7,15.6,8,15.6z M8.2,18.7c0.5,0,0.8,0.4,0.9,0.9c0,0.5-0.3,0.9-0.8,0.9c-0.5,0-0.8-0.4-0.9-0.9
	C7.4,19.1,7.8,18.7,8.2,18.7z M8.5,24.8c0-0.5,0.4-1,0.9-1c0.5,0,0.9,0.4,0.9,1c0,0.5-0.4,1-0.9,1C9,25.8,8.6,25.4,8.5,24.8z
	 M7.5,22.3c0-0.6,0.4-1.1,1-1.2c0.6,0,1.1,0.5,1.1,1.1c0,0.6-0.4,1.1-1,1.2C8,23.4,7.5,22.9,7.5,22.3z M6.6,18
	c0-0.4,0.2-0.6,0.6-0.7c0.3,0,0.6,0.3,0.6,0.6c0,0.4-0.2,0.6-0.6,0.7C6.9,18.6,6.6,18.3,6.6,18z M5.6,16.2c0-0.5,0.4-0.9,0.8-0.9
	c0.5,0,0.9,0.4,0.9,0.9c0,0.5-0.4,0.9-0.8,0.9C6.1,17.2,5.7,16.7,5.6,16.2z M4.6,12.8c0-0.6,0.4-1.2,1-1.2c0.6,0,1.1,0.5,1.1,1.1
	c0,0.6-0.4,1.2-1,1.2C5.1,13.9,4.6,13.4,4.6,12.8z M4,8.4c0,0.4-0.3,0.8-0.7,0.8c-0.4,0-0.7-0.3-0.7-0.7c0-0.4,0.3-0.8,0.7-0.8
	S3.9,8,4,8.4z M7,9.5c0,0.9-0.6,1.6-1.4,1.6c-0.8,0-1.5-0.7-1.5-1.5C4.1,8.7,4.7,8,5.5,8C6.3,7.9,7,8.6,7,9.5z M24.1,22.9
	c-0.2-0.1-0.4-0.3-0.6-0.4c-1.9-2.8-6.1-7.4-13.6-9c-1.1-0.2-2.1-1-2.5-2.2c-0.1-0.4-0.2-0.7-0.1-1.1c0.2-1.5,2.5-1.7,8.4,1.9
	C20.7,15.1,23.3,20.8,24.1,22.9z M18.9,38.2c0-0.3,0.3-0.6,0.6-0.5c0.3,0,0.5,0.3,0.5,0.7c0,0.3-0.3,0.6-0.6,0.5
	C19.1,38.9,18.9,38.6,18.9,38.2z M18,34.9L18,34.9c2-2.5,4.5-6.2,5.9-8.2c0.4-0.1,0.8-0.4,0.8-0.4c-0.2,2.2-1.6,6.7-3.4,9.5
	c-0.5,0.8-1,1.2-1.5,1.5C18.4,38.2,16.9,36.2,18,34.9z M17.1,39.7c0-0.3,0.3-0.6,0.6-0.5c0.3,0,0.5,0.3,0.5,0.7
	c0,0.3-0.3,0.6-0.6,0.5C17.3,40.4,17.1,40.1,17.1,39.7z M15.9,37.7c0.1-0.6,0.5-1,1.1-0.9c0.6,0.1,0.9,0.6,0.9,1.2
	c-0.1,0.6-0.5,1-1.1,0.9C16.2,38.8,15.8,38.3,15.9,37.7z M13.9,37.8c0-0.3,0.3-0.6,0.6-0.5c0.3,0,0.5,0.3,0.5,0.7
	c0,0.3-0.3,0.6-0.6,0.5C14.1,38.5,13.9,38.2,13.9,37.8z M12.8,33C12.8,33,12.8,33,12.8,33c0.2-0.7,0.7-1.3,1.2-1.7
	c1.9-1.3,6-4,8.9-5.4c0,0.2,0,0.3,0.1,0.5c0.2,0.2,0.4,0.3,0.5,0.4c-1.5,2.3-4.3,6.5-6.4,8.8c-0.4,0.5-1,0.8-1.6,0.9c0,0,0,0,0,0
	c-0.6,0.1-1.3,0-1.8-0.3C12.8,35.6,12.5,34,12.8,33z M10.4,37.3c0-0.9,0.6-1.6,1.4-1.6c0.8,0,1.5,0.7,1.5,1.5c0,0.9-0.6,1.6-1.4,1.6
	C11.2,38.8,10.5,38.2,10.4,37.3z M45.1,41.1c-0.5-0.4-1.1-0.5-1.7-0.7c-1.3-0.4-3.2-1.5-2.8-3.3c0.1-0.7,0.1-1.3-0.1-1.8
	c-0.3-1.1-1-1.8-1-1.8c1.6,0.1,3.8-3.1-0.9-5.7c-1.1-0.6-2.3-1.1-3.6-1.5c3.3,0.5,6,0.8,6.9,0c1.5-1.3,2-6.1,3.8-11.6
	c1.8-5.5,4-5.1,3.7-7.1c-0.3-2-5.4-2.9-13.5,1.7c-8,4.7-10.9,14.3-10.9,14.3l0,0c-0.2,0.7,0,1,0.3,1.3c-0.1,0-0.2,0.1-0.2,0.1
	c-0.9,1,1.3,9.4,4.3,13.9c3.1,4.6,5.7,1.8,5.4,0.1l0,0c0,0,0.8,0.6,1.8,0.8c0.5,0.1,1.1,0.1,1.7-0.2c1.7-0.7,2.8,1.2,3.5,2.5
	c0.3,0.5,0.4,1.2,0.8,1.7c0.7,0.6,1.7,0.5,2.3-0.2C45.8,42.8,45.8,41.7,45.1,41.1z M40.2,30c0.3,0,0.6,0.3,0.6,0.7
	c0,0.4-0.3,0.6-0.6,0.6c-0.3,0-0.6-0.3-0.6-0.7C39.6,30.3,39.9,30,40.2,30z M39.3,34.5c0,0.4-0.3,0.6-0.6,0.6
	c-0.3,0-0.6-0.3-0.6-0.7c0-0.4,0.3-0.6,0.6-0.6C39,33.8,39.3,34.1,39.3,34.5z M39.4,31.8c0,0.6-0.5,1.1-1.1,1.1c-0.6,0-1-0.5-1-1.2
	c0-0.6,0.5-1.1,1.1-1.1C39,30.6,39.4,31.1,39.4,31.8z M38.6,28.1c0.3,0,0.6,0.3,0.6,0.7c0,0.4-0.3,0.6-0.6,0.6
	c-0.3,0-0.6-0.3-0.6-0.7C38,28.4,38.3,28.1,38.6,28.1z M35.8,27.2c1,0.6,1.6,1.2,1.9,1.8c0.6,1.3-0.8,2.8-2,2l0,0
	c-2-1.3-5.9-3.9-8.7-5.3c-0.1-0.4-0.3-0.8-0.4-0.9C28.7,24.7,33,25.6,35.8,27.2z M36.9,25.2c-1.2,1.1-5.8-0.5-10.3-0.5
	c0.2-0.2,0.4-0.5,0.5-0.7c1.7-0.6,4.6-1.5,8.6-1.9l0,0C37.3,21.9,38.2,24.1,36.9,25.2z M26.7,22.3C28.5,19.8,32,16,38,14.1
	c1.7-0.5,3,1.7,1.8,3c-0.2,0.3-0.5,0.4-0.7,0.5c-5.7,0.9-9.5,3.1-11.7,4.9C27.2,22.3,26.9,22.3,26.7,22.3z M37.6,21.8
	c-4.8,0.3-8.3,1.3-10.4,2c0.3-0.5,0.4-0.9,0.3-1.2c1.9-1.5,5.1-3.5,9.8-4.5c1.3-0.3,2.3,1,1.9,2.3c0,0,0,0,0,0l0,0
	C38.9,21.2,38.3,21.7,37.6,21.8z M38.4,25.8c-0.4,0-0.6-0.3-0.6-0.7c0-0.4,0.3-0.7,0.7-0.7c0.4,0,0.6,0.3,0.6,0.7
	C39,25.5,38.7,25.8,38.4,25.8z M38.9,23.6c-0.3,0-0.6-0.3-0.6-0.7c0-0.4,0.3-0.6,0.6-0.6c0.3,0,0.6,0.3,0.6,0.7
	C39.5,23.3,39.2,23.6,38.9,23.6z M39.5,20.6c0-0.4,0.3-0.6,0.6-0.6c0.3,0,0.6,0.3,0.6,0.7c0,0.4-0.3,0.6-0.6,0.6
	C39.7,21.3,39.5,21,39.5,20.6z M41.3,16.3c0.4,0,0.8,0.4,0.8,0.9c0,0.5-0.4,0.8-0.8,0.8c-0.4,0-0.8-0.4-0.8-0.9
	C40.4,16.7,40.8,16.3,41.3,16.3z M40.9,14.4c0-0.7,0.6-1.2,1.2-1.2c0.6,0,1.1,0.6,1.1,1.2c0,0.7-0.6,1.2-1.2,1.2
	C41.3,15.6,40.9,15.1,40.9,14.4z M42.6,19.6c0,0.5-0.4,0.9-0.9,0.9c-0.5,0-0.8-0.4-0.8-0.9c0-0.5,0.4-0.9,0.9-0.9
	C42.2,18.7,42.6,19.1,42.6,19.6z M40.5,25.8c-0.5,0-0.9-0.5-0.9-1c0-0.5,0.4-1,0.9-1c0.5,0,0.9,0.5,0.9,1
	C41.4,25.4,41,25.8,40.5,25.8z M41.4,23.4c-0.6,0-1-0.5-1-1.2c0-0.6,0.5-1.1,1.1-1.1c0.6,0,1,0.5,1,1.2C42.5,22.9,42,23.4,41.4,23.4
	z M42.8,18.6c-0.3,0-0.6-0.3-0.6-0.7c0-0.4,0.3-0.6,0.6-0.6c0.3,0,0.6,0.3,0.6,0.7C43.4,18.3,43.1,18.6,42.8,18.6z M43.5,17.1
	c-0.5,0-0.8-0.4-0.8-0.9c0-0.5,0.4-0.9,0.9-0.9c0.5,0,0.8,0.4,0.8,0.9C44.3,16.7,43.9,17.2,43.5,17.1z M44.3,13.9
	c-0.6,0-1.1-0.6-1-1.2c0-0.7,0.5-1.2,1.1-1.1c0.6,0,1.1,0.6,1,1.2C45.4,13.4,44.9,13.9,44.3,13.9z M46.8,7.6c0.4,0,0.7,0.4,0.7,0.8
	c0,0.4-0.4,0.7-0.7,0.7c-0.4,0-0.7-0.4-0.7-0.8C46.1,8,46.4,7.6,46.8,7.6z M44.5,8c0.8,0,1.4,0.7,1.4,1.6c0,0.9-0.7,1.6-1.5,1.5
	c-0.8,0-1.4-0.7-1.4-1.6C43,8.6,43.7,7.9,44.5,8z M34.1,12.1c5.9-3.6,8.2-3.4,8.4-1.9c0.1,0.4,0,0.7-0.1,1.1
	c-0.4,1.1-1.4,1.9-2.5,2.2c-7.5,1.6-11.6,6.2-13.6,9c-0.2,0.1-0.4,0.3-0.6,0.4C26.7,20.8,29.3,15.1,34.1,12.1z M30.6,38.9
	c-0.3,0-0.6-0.2-0.6-0.5c0-0.3,0.2-0.6,0.5-0.7c0.3,0,0.6,0.2,0.6,0.5C31.1,38.6,30.9,38.9,30.6,38.9z M30.2,37.3
	c-0.5-0.3-1-0.8-1.5-1.5c-1.8-2.8-3.2-7.3-3.4-9.5c0,0,0.4,0.4,0.8,0.4c1.4,2.1,3.9,5.8,5.9,8.2l0,0C33.1,36.2,31.6,38.2,30.2,37.3z
	 M32.4,40.4c-0.3,0-0.6-0.2-0.6-0.5c0-0.3,0.2-0.6,0.5-0.7c0.3,0,0.6,0.2,0.6,0.5C32.9,40.1,32.7,40.4,32.4,40.4z M33.3,38.9
	c-0.5,0.1-1-0.3-1.1-0.9c-0.1-0.6,0.3-1.1,0.9-1.2c0.5-0.1,1,0.3,1.1,0.9C34.2,38.3,33.8,38.8,33.3,38.9z M35.6,38.5
	c-0.3,0-0.6-0.2-0.6-0.5c0-0.3,0.2-0.6,0.5-0.7c0.3,0,0.6,0.2,0.6,0.5C36.1,38.2,35.9,38.5,35.6,38.5z M36.1,36.2
	c-0.6,0.3-1.2,0.4-1.8,0.3c0,0,0,0,0,0c-0.6-0.1-1.2-0.5-1.6-0.9c-2.1-2.4-4.9-6.5-6.4-8.8c0.2,0,0.4-0.1,0.5-0.4
	C27,26.2,27,26,27,25.9c2.9,1.4,7.1,4.2,8.9,5.4c0.6,0.4,1,1,1.2,1.7c0,0,0,0,0,0C37.5,34,37.2,35.6,36.1,36.2z M38,38.8
	c-0.8,0-1.4-0.7-1.4-1.6c0-0.9,0.7-1.6,1.5-1.5c0.8,0,1.4,0.7,1.4,1.6C39.5,38.2,38.8,38.8,38,38.8z"/>
<linearGradient id="SVGID_00000145038194002888215800000008289408675025071278_" gradientUnits="userSpaceOnUse" x1="24.9816" y1="16.6244" x2="25.3077" y2="33.1896">
	<stop  offset="0" style="stop-color:#E9C163"/>
	<stop  offset="0.22" style="stop-color:#FBF5E0"/>
	<stop  offset="0.67" style="stop-color:#E9C163"/>
	<stop  offset="1" style="stop-color:#C0A049"/>
</linearGradient>
<path style="fill:url(#SVGID_00000145038194002888215800000008289408675025071278_);" d="M26.6,17.3c-0.1,0-0.3,0.1-0.3,0.2
	c0,0.4-0.3,0.6-0.4,0.9c-0.1,0.3-0.3,0.6-0.4,0.9c-0.2,0.5-0.3,1-0.4,1.5c0,0,0,0,0,0c0,0,0,0,0,0c-0.1-0.5-0.3-1-0.5-1.5
	c-0.1-0.3-0.3-0.6-0.4-0.9c-0.1-0.3-0.4-0.5-0.4-0.9c0-0.1-0.1-0.2-0.2-0.2c-0.1,0-0.3,0.1-0.3,0.2c0,0.1,0.1,0.3,0.2,0.3
	c0.4,0.1,0.5,0.4,0.7,0.6c0.2,0.3,0.3,0.6,0.4,0.8c0.2,0.5,0.3,1.1,0.3,1.6c-0.2,0.3-0.4,0.8-0.4,1.3c0,0.3,0.1,0.5,0.2,0.6
	c-0.3,0.3-0.5,1-0.5,1.7c0,0.8,0.3,1.5,0.7,1.7c-0.2,0.4-0.3,1.2-0.3,2.3l0,0c0,1.7,0.4,4.1,0.9,4.1c0.4,0,0.7-2.4,0.7-4.1
	c0-1.1-0.2-1.9-0.4-2.3c0.4-0.3,0.6-1,0.6-1.8c0-0.7-0.3-1.4-0.6-1.7c0.1-0.1,0.2-0.3,0.1-0.6l0,0c0-0.5-0.2-1-0.4-1.3
	c0-0.5,0.1-1.1,0.3-1.6c0.1-0.3,0.2-0.6,0.4-0.9c0.2-0.3,0.3-0.6,0.7-0.7c0.1,0,0.2-0.1,0.2-0.2C26.8,17.4,26.7,17.3,26.6,17.3z"/>
</svg>
