<?xml version="1.0" encoding="utf-8"?>
<!-- Generator: Adobe Illustrator 26.5.0, SVG Export Plug-In . SVG Version: 6.00 Build 0)  -->
<svg version="1.1" id="圖層_1" xmlns="http://www.w3.org/2000/svg" xmlns:xlink="http://www.w3.org/1999/xlink" x="0px" y="0px"
	 viewBox="0 0 43.1 60.3" style="enable-background:new 0 0 43.1 60.3;" xml:space="preserve">
<style type="text/css">

@keyframes an {
  to {
    transform: translateY(0);
  }
}
	.b1{
    transform: scale(.63,1.18);
    transform-origin: 9% 49%;
  animation: an 1s infinite alternate  ;}
	.b2{
    transform: scale(1.15,0.94);
    transform-origin: -5% 53%;
  animation: an 1s infinite alternate  ;}
	.b3{
    transform: scale(0.47,1.32);
    transform-origin: 9% 49%;
  animation: an 1s infinite alternate  ;}



</style>
<g>
	<defs>
		<path id="b1a" class="b3" d="M12.5,50.9c4.6,5.4,7.7,1.4,7-0.7l0,0
			c0,0,1.1,0.7,2.5,0.7c0.7,0,1.4-0.1,2.1-0.5c2.1-1.2,3.8,1.1,5,2.7c0.4,0.7,0.7,1.5,1.3,2c1,0.7,2.3,0.4,3-0.6
			c0.7-1,0.4-2.5-0.5-3.2c-0.7-0.5-1.5-0.5-2.3-0.7c-1.8-0.4-4.3-1.5-4.1-3.9c0.1-0.9-0.1-1.7-0.4-2.3c-0.6-1.4-1.5-2.2-1.5-2.2
			c2-0.1,4.4-4.6-2-7.3c-1.5-0.6-3.1-1.1-4.9-1.5c4.3,0.1,7.9,0.2,8.9-1c1.7-2,1.6-8.2,3.1-15.6c1.5-7.4,4.4-7.2,3.7-9.7h49.6v53.1
			H12.5V50.9z"/>
	</defs>
	<clipPath id="b1">
		<use xlink:href="#b1a"  style="overflow:visible;"/>
	</clipPath>
	
		<linearGradient id="b2c" gradientUnits="userSpaceOnUse" x1="7.4437" y1="30.3682" x2="39.8567" y2="30.6291">
		<stop  offset="0" style="stop-color:#E9C163"/>
		<stop  offset="0.22" style="stop-color:#FBF5E0"/>
		<stop  offset="0.67" style="stop-color:#E9C163"/>
		<stop  offset="1" style="stop-color:#C0A049"/>
	</linearGradient>
	
		<path class="b2" style="clip-path:url(#b1);fill:url(#b2c);" d="
		M35.9,49.8c-0.7-0.5-1.5-0.5-2.3-0.6c-1.8-0.3-4.3-1.4-4.1-3.6c0.1-0.8-0.1-1.5-0.4-2.2c-0.6-1.2-1.5-2.1-1.5-2.1
		c2-0.1,4.4-4.3-2-6.7c-1.5-0.6-3.1-1-4.9-1.3c4.3,0.1,7.9,0.1,8.9-1c1.7-1.8,1.6-7.6,3.1-14.4c1.5-6.8,4.4-6.6,3.7-9
		c-0.7-2.3-7.5-2.7-17.1,4C9.7,19.7,7.4,31.7,7.4,31.7l0,0c-0.2,0.8,0.1,1.2,0.5,1.5c-0.1,0.1-0.2,0.1-0.2,0.2
		c-0.9,1.4,3.1,11,7.8,16c4.6,5,7.7,1.3,7-0.6l0,0c0,0,1.1,0.6,2.5,0.7c0.7,0,1.4-0.1,2.1-0.4c2.1-1.1,3.8,1,5,2.5
		c0.4,0.6,0.7,1.4,1.3,1.9c1,0.7,2.3,0.4,3-0.6C37.1,51.8,36.8,50.5,35.9,49.8z M27.9,37.3c0.4,0,0.8,0.3,0.8,0.7
		c0,0.4-0.3,0.8-0.7,0.8c-0.4,0-0.8-0.3-0.8-0.7C27.2,37.7,27.5,37.3,27.9,37.3z M27.4,42.8c0,0.4-0.3,0.8-0.7,0.8
		c-0.4,0-0.8-0.3-0.8-0.7c0-0.4,0.3-0.8,0.7-0.8C26.9,42,27.3,42.3,27.4,42.8z M27.1,39.5c0.1,0.8-0.5,1.4-1.3,1.5
		c-0.8,0.1-1.4-0.5-1.5-1.2c-0.1-0.8,0.5-1.4,1.3-1.5C26.3,38.2,27,38.7,27.1,39.5z M25.5,35.2c0.4,0,0.8,0.3,0.8,0.7
		c0,0.4-0.3,0.8-0.7,0.8c-0.4,0-0.8-0.3-0.8-0.7C24.8,35.7,25.1,35.3,25.5,35.2z M21.7,34.5c1.4,0.5,2.3,1.2,2.8,1.9
		c1,1.5-0.6,3.4-2.3,2.6l0,0c-2.8-1.3-8.3-3.8-12-5c-0.1-0.5-0.5-0.9-0.6-1C12.2,32.6,17.9,33,21.7,34.5z M22.9,32
		c-1.4,1.5-7.5,0.3-13.4,0.9c0.2-0.3,0.4-0.6,0.6-0.9c2.2-1,5.8-2.4,10.8-3.5l0,0C22.9,28,24.3,30.5,22.9,32z M9.2,30
		c1.9-3.3,5.9-8.3,13.4-11.4c2.1-0.9,4.1,1.6,2.8,3.4c-0.2,0.3-0.5,0.6-0.9,0.6c-7.2,1.8-11.8,5.1-14.3,7.5
		C9.9,29.9,9.5,29.9,9.2,30z M23.3,27.8c-6.1,1.1-10.5,2.7-13.1,3.9c0.3-0.6,0.4-1.1,0.1-1.5c2.3-2.1,6.1-4.9,11.9-6.8
		c1.6-0.5,3.1,0.9,2.8,2.5c0,0,0,0,0,0l0,0C24.8,27,24.1,27.7,23.3,27.8z M24.8,32.5c-0.5,0-0.9-0.3-0.9-0.8c0-0.5,0.3-0.9,0.8-0.9
		c0.5,0,0.9,0.3,0.9,0.8C25.6,32,25.3,32.4,24.8,32.5z M25.1,29.8c-0.4,0-0.8-0.3-0.8-0.7c0-0.4,0.3-0.8,0.7-0.8
		c0.4,0,0.8,0.3,0.8,0.7C25.9,29.4,25.6,29.8,25.1,29.8z M25.5,26.2c0-0.4,0.3-0.8,0.7-0.8c0.4,0,0.8,0.3,0.8,0.7
		c0,0.4-0.3,0.8-0.7,0.8C25.9,26.9,25.5,26.6,25.5,26.2z M27.1,20.8c0.6-0.1,1.1,0.4,1.1,0.9c0,0.6-0.4,1.1-1,1.1
		c-0.6,0.1-1.1-0.4-1.1-0.9C26.1,21.3,26.5,20.8,27.1,20.8z M26.3,18.6c-0.1-0.8,0.5-1.5,1.3-1.6c0.8-0.1,1.5,0.5,1.6,1.3
		c0.1,0.8-0.5,1.5-1.3,1.6C27.1,20,26.4,19.4,26.3,18.6z M29.3,24.5c0,0.6-0.4,1.1-1,1.2c-0.6,0-1.1-0.4-1.2-1c0-0.6,0.4-1.1,1-1.2
		C28.8,23.5,29.3,23.9,29.3,24.5z M27.6,32.2c-0.7,0.1-1.2-0.4-1.3-1.1c-0.1-0.7,0.4-1.2,1.1-1.3c0.7-0.1,1.2,0.4,1.3,1.1
		C28.7,31.6,28.3,32.1,27.6,32.2z M28.4,29.2c-0.8,0.1-1.4-0.5-1.5-1.2c-0.1-0.8,0.5-1.4,1.3-1.5c0.8-0.1,1.4,0.5,1.5,1.2
		C29.7,28.5,29.1,29.2,28.4,29.2z M29.4,23.3c-0.4,0-0.8-0.3-0.8-0.7c0-0.4,0.3-0.8,0.7-0.8c0.4,0,0.8,0.3,0.8,0.7
		C30.2,22.9,29.9,23.3,29.4,23.3z M30.1,21.5c-0.6,0.1-1.2-0.4-1.2-1c-0.1-0.6,0.4-1.2,1-1.2c0.6-0.1,1.2,0.4,1.2,1
		C31.2,20.9,30.7,21.4,30.1,21.5z M30.7,17.5c-0.8,0.1-1.5-0.5-1.5-1.3c-0.1-0.8,0.5-1.5,1.3-1.5c0.8-0.1,1.5,0.5,1.5,1.3
		C32,16.8,31.4,17.4,30.7,17.5z M32.9,9.6c0.5,0,0.9,0.3,1,0.8c0,0.5-0.3,0.9-0.8,1c-0.5,0-0.9-0.3-1-0.8C32,10.1,32.4,9.7,32.9,9.6
		z M30,10.4c1.1-0.1,2,0.7,2.1,1.7c0.1,1-0.7,2-1.8,2.1c-1.1,0.1-2-0.7-2.1-1.7S29,10.5,30,10.4z M17.3,16.8
		c7.1-5.2,10.1-5.2,10.6-3.5c0.1,0.4,0.1,0.8,0,1.3c-0.3,1.4-1.5,2.5-2.9,2.9c-9.4,3-14.1,9.1-16.1,12.7c-0.3,0.2-0.5,0.4-0.7,0.6
		C9,28.2,11.5,21,17.3,16.8z M16.8,49.3c-0.4,0.1-0.8-0.1-0.9-0.5c-0.1-0.4,0.2-0.8,0.5-0.9c0.4-0.1,0.8,0.1,0.9,0.5
		C17.4,48.8,17.2,49.2,16.8,49.3z M16.1,47.4c-0.6-0.3-1.3-0.8-2.1-1.6c-2.8-3-5.3-8.2-5.9-10.8c0,0,0.6,0.4,1.1,0.4
		c2.1,2.3,5.9,6.3,8.9,9l0,0C19.6,45.7,18,48.3,16.1,47.4z M19.4,50.8c-0.4,0.1-0.8-0.1-0.9-0.5c-0.1-0.4,0.2-0.8,0.5-0.9
		c0.4-0.1,0.8,0.1,0.9,0.5C20,50.3,19.8,50.7,19.4,50.8z M20.2,48.9c-0.7,0.2-1.4-0.3-1.6-1c-0.2-0.7,0.3-1.4,1-1.6
		c0.7-0.2,1.4,0.3,1.6,1C21.4,48,20.9,48.7,20.2,48.9z M23.2,48.1c-0.4,0.1-0.8-0.1-0.9-0.5c-0.1-0.4,0.2-0.8,0.5-0.9
		c0.4-0.1,0.8,0.1,0.9,0.5C23.8,47.6,23.6,48,23.2,48.1z M23.6,45.2c-0.7,0.4-1.5,0.6-2.3,0.6c0,0,0,0,0,0c-0.8,0-1.6-0.4-2.2-0.9
		c-3.1-2.5-7.3-7.1-9.6-9.6c0.3-0.1,0.5-0.2,0.7-0.5c0.1-0.2,0.1-0.4,0.1-0.6c4,1.3,9.8,4,12.4,5.2c0.8,0.4,1.5,1,1.9,1.8
		c0,0,0,0,0,0C24.9,42.4,24.8,44.4,23.6,45.2z M26.4,48.1c-1.1,0.1-2-0.7-2.1-1.7c-0.1-1,0.7-2,1.8-2.1c1.1-0.1,2,0.7,2.1,1.7
		C28.2,47.1,27.4,48,26.4,48.1z"/>
</g>
<linearGradient id="b1c" gradientUnits="userSpaceOnUse" x1="36.1389" y1="30.385" x2="3.7627" y2="31.5659">
	<stop  offset="0" style="stop-color:#E9C163"/>
	<stop  offset="0.22" style="stop-color:#FBF5E0"/>
	<stop  offset="0.67" style="stop-color:#E9C163"/>
	<stop  offset="1" style="stop-color:#C0A049"/>
</linearGradient>
<path class="b1" style="fill:url(#b1c);" d="M32.9,51.4c-0.7-0.5-1.5-0.5-2.3-0.7
	c-1.8-0.4-4.3-1.5-4.1-3.9c0.1-0.9-0.1-1.7-0.4-2.3c-0.6-1.4-1.5-2.2-1.5-2.2c2-0.1,4.4-4.6-2-7.3c-1.5-0.6-3.1-1.1-4.9-1.5
	c4.3,0.1,7.9,0.2,8.9-1c1.7-2,1.6-8.2,3.1-15.6c1.5-7.4,4.4-7.2,3.7-9.7c-0.7-2.5-7.5-3-17.1,4.3C6.7,18.8,4.4,31.8,4.4,31.8l0,0
	c-0.2,0.9,0.1,1.4,0.5,1.6c-0.1,0.1-0.2,0.1-0.2,0.2C3.8,35,7.9,45.5,12.5,50.9c4.6,5.4,7.7,1.4,7-0.7l0,0c0,0,1.1,0.7,2.5,0.7
	c0.7,0,1.4-0.1,2.1-0.5c2.1-1.2,3.8,1.1,5,2.7c0.4,0.7,0.7,1.5,1.3,2c1,0.7,2.3,0.4,3-0.6C34.1,53.5,33.8,52.1,32.9,51.4z
	 M24.9,37.9c0.4,0,0.8,0.3,0.8,0.8c0,0.5-0.3,0.9-0.7,0.9c-0.4,0-0.8-0.3-0.8-0.8C24.2,38.3,24.5,37.9,24.9,37.9z M24.4,43.8
	c0,0.5-0.3,0.9-0.7,0.9c-0.4,0-0.8-0.3-0.8-0.8c0-0.5,0.3-0.9,0.7-0.9C23.9,43,24.3,43.3,24.4,43.8z M24.1,40.3
	c0.1,0.8-0.5,1.5-1.3,1.6c-0.8,0.1-1.4-0.5-1.5-1.3c-0.1-0.8,0.5-1.5,1.3-1.6C23.3,38.8,24,39.4,24.1,40.3z M22.5,35.6
	c0.4,0,0.8,0.3,0.8,0.8c0,0.5-0.3,0.9-0.7,0.9c-0.4,0-0.8-0.3-0.8-0.8C21.8,36.1,22.1,35.7,22.5,35.6z M18.7,34.8
	c1.4,0.6,2.3,1.3,2.8,2c1,1.6-0.6,3.7-2.3,2.8l0,0c-2.8-1.4-8.3-4.1-12-5.4c-0.1-0.5-0.5-1-0.6-1.1C9.2,32.8,14.9,33.2,18.7,34.8z
	 M19.9,32.1c-1.4,1.7-7.5,0.3-13.4,1c0.2-0.3,0.4-0.7,0.6-1c2.2-1.1,5.8-2.6,10.8-3.8l0,0C19.9,27.8,21.3,30.5,19.9,32.1z M6.2,30
	c1.9-3.6,5.9-9,13.4-12.4c2.1-0.9,4.1,1.7,2.8,3.7c-0.2,0.4-0.5,0.6-0.9,0.7c-7.2,2-11.8,5.5-14.3,8.1C6.9,29.9,6.5,29.9,6.2,30z
	 M20.3,27.6c-6.1,1.2-10.5,3-13.1,4.2c0.3-0.6,0.4-1.2,0.1-1.6c2.3-2.3,6.1-5.3,11.9-7.3c1.6-0.6,3.1,1,2.8,2.7c0,0,0,0.1,0,0.1l0,0
	C21.8,26.7,21.1,27.4,20.3,27.6z M21.8,32.6c-0.5,0-0.9-0.3-0.9-0.8c0-0.5,0.3-0.9,0.8-1c0.5,0,0.9,0.3,0.9,0.8
	C22.6,32.1,22.3,32.6,21.8,32.6z M22.1,29.8c-0.4,0-0.8-0.3-0.8-0.8c0-0.5,0.3-0.9,0.7-0.9c0.4,0,0.8,0.3,0.8,0.8
	C22.9,29.3,22.6,29.7,22.1,29.8z M22.5,25.8c0-0.5,0.3-0.9,0.7-0.9c0.4,0,0.8,0.3,0.8,0.8c0,0.5-0.3,0.9-0.7,0.9
	C22.9,26.6,22.5,26.2,22.5,25.8z M24.1,19.9c0.6-0.1,1.1,0.4,1.1,1c0,0.6-0.4,1.2-1,1.2c-0.6,0.1-1.1-0.4-1.1-1
	C23.1,20.5,23.5,20,24.1,19.9z M23.3,17.6c-0.1-0.9,0.5-1.6,1.3-1.7c0.8-0.1,1.5,0.6,1.6,1.4c0.1,0.9-0.5,1.6-1.3,1.7
	C24.1,19.1,23.4,18.4,23.3,17.6z M26.3,24c0,0.6-0.4,1.2-1,1.3c-0.6,0.1-1.1-0.4-1.2-1.1c0-0.6,0.4-1.2,1-1.3
	C25.8,22.9,26.3,23.4,26.3,24z M24.6,32.3c-0.7,0.1-1.2-0.4-1.3-1.1c-0.1-0.7,0.4-1.3,1.1-1.4c0.7-0.1,1.2,0.4,1.3,1.1
	C25.7,31.7,25.3,32.3,24.6,32.3z M25.4,29.1c-0.8,0.1-1.4-0.5-1.5-1.3c-0.1-0.8,0.5-1.5,1.3-1.6c0.8-0.1,1.4,0.5,1.5,1.3
	C26.7,28.3,26.1,29,25.4,29.1z M26.4,22.7c-0.4,0-0.8-0.3-0.8-0.8c0-0.5,0.3-0.9,0.7-0.9c0.4,0,0.8,0.3,0.8,0.8
	C27.2,22.3,26.9,22.7,26.4,22.7z M27.1,20.7c-0.6,0.1-1.2-0.4-1.2-1.1c-0.1-0.7,0.4-1.3,1-1.3c0.6-0.1,1.2,0.4,1.2,1.1
	C28.2,20.1,27.7,20.6,27.1,20.7z M27.7,16.4c-0.8,0.1-1.5-0.6-1.5-1.4c-0.1-0.8,0.5-1.6,1.3-1.7c0.8-0.1,1.5,0.6,1.5,1.4
	C29,15.6,28.4,16.3,27.7,16.4z M29.9,7.9c0.5,0,0.9,0.4,1,0.9c0,0.5-0.3,1-0.8,1.1c-0.5,0-0.9-0.4-1-0.9C29,8.4,29.4,7.9,29.9,7.9z
	 M27,8.7c1.1-0.1,2,0.7,2.1,1.9c0.1,1.1-0.7,2.1-1.8,2.2c-1.1,0.1-2-0.7-2.1-1.9S26,8.8,27,8.7z M14.3,15.6
	c7.1-5.6,10.1-5.6,10.6-3.8c0.1,0.5,0.1,0.9,0,1.4c-0.3,1.5-1.5,2.7-2.9,3.2c-9.4,3.2-14.1,9.8-16.1,13.7c-0.3,0.2-0.5,0.4-0.7,0.6
	C6,28,8.5,20.2,14.3,15.6z M13.8,50.8c-0.4,0.1-0.8-0.2-0.9-0.6c-0.1-0.4,0.2-0.8,0.5-0.9c0.4-0.1,0.8,0.2,0.9,0.6
	C14.4,50.3,14.2,50.7,13.8,50.8z M13.1,48.8c-0.6-0.3-1.3-0.9-2.1-1.8C8.2,43.7,5.6,38.1,5,35.3c0,0,0.6,0.4,1.1,0.4
	c2.1,2.5,5.9,6.9,8.9,9.7l0,0C16.6,46.9,15,49.7,13.1,48.8z M16.4,52.5c-0.4,0.1-0.8-0.2-0.9-0.6C15.4,51.5,15.6,51,16,51
	c0.4-0.1,0.8,0.2,0.9,0.6C17,52,16.8,52.4,16.4,52.5z M17.2,50.4c-0.7,0.2-1.4-0.3-1.6-1c-0.2-0.7,0.3-1.5,1-1.7
	c0.7-0.2,1.4,0.3,1.6,1C18.4,49.5,17.9,50.2,17.2,50.4z M20.2,49.5c-0.4,0.1-0.8-0.2-0.9-0.6c-0.1-0.4,0.2-0.8,0.5-0.9
	c0.4-0.1,0.8,0.2,0.9,0.6C20.8,49,20.6,49.4,20.2,49.5z M20.6,46.4c-0.7,0.5-1.5,0.7-2.3,0.7c0,0,0,0,0,0c-0.8-0.1-1.6-0.4-2.2-1
	c-3.1-2.7-7.3-7.7-9.6-10.4c0.3-0.1,0.5-0.2,0.7-0.6c0.1-0.2,0.1-0.4,0.1-0.6c4,1.4,9.8,4.3,12.4,5.6c0.8,0.4,1.5,1.1,1.9,1.9
	c0,0,0,0,0,0C21.9,43.4,21.8,45.5,20.6,46.4z M23.4,49.6c-1.1,0.1-2-0.7-2.1-1.9c-0.1-1.1,0.7-2.1,1.8-2.2c1.1-0.1,2,0.7,2.1,1.9
	C25.2,48.5,24.4,49.5,23.4,49.6z"/>
<linearGradient id="body" gradientUnits="userSpaceOnUse" x1="1.5632" y1="33.1977" x2="5.4217" y2="32.6921">
	<stop  offset="0" style="stop-color:#E9C163"/>
	<stop  offset="0.22" style="stop-color:#FBF5E0"/>
	<stop  offset="0.67" style="stop-color:#E9C163"/>
	<stop  offset="1" style="stop-color:#C0A049"/>
</linearGradient>
<path style="fill:url(#body);" d="M4.9,34.8c0.4-0.5,0.7-1.3,0.6-2.5
	c-0.1-1.3-0.5-2.2-1-2.5c0.2-0.2,0.3-0.6,0.2-1c-0.1-1.1-0.5-1.8-0.8-1.9c0.1-1.3-0.1-2.7-0.4-3.9c-0.1-0.5-0.3-1-0.3-1.5
	c0-1-1.4-0.2-0.5,0.3C2.9,22,3.1,22.5,3.2,23c0.5,1.4,0.4,2.4,0.3,3.6c-0.4-1.2-0.8-2.4-1.5-3.4c-0.2-0.4-0.6-0.8-0.7-1.3
	c-0.2-1-1.4,0.2-0.4,0.5c0.4,0.1,0.8,0.5,1.1,0.9c0.7,1.1,1.1,2.4,1.3,3.7c-0.3,0.3-0.6,0.9-0.6,2c0,0.4,0.1,0.7,0.3,1
	c-0.5,0.4-0.9,1.3-0.8,2.7c0.1,1.7,0.8,2.6,1.5,2.8c-0.3,0.7-0.6,1.7-0.6,3.3l0,0C3,41.2,3.3,44.9,4,45c0.7,0,1.4-3.6,1.5-6.3
	C5.6,36.6,5.3,35.3,4.9,34.8z"/>
</svg>
