<?xml version="1.0" encoding="UTF-8"?>
<svg id="_圖層_2" data-name="圖層 2" xmlns="http://www.w3.org/2000/svg" viewBox="0 0 487.13 28.36">
  <defs>
    <style>
      .cls-1 {
        fill: #595757;
        stroke-width: 0px;
      }
    </style>
  </defs>
  <g id="_圖層_1-2" data-name="圖層 1">
    <g>
      <path class="cls-1" d="m3.16,7.55c0,1.28-.01,1.46.13,1.72.13.26.47.27,1,.32.09.01.12.04.12.17s-.03.15-.13.15c-.63-.01-1.29-.04-1.88-.04s-1.23.03-1.79.04c-.08,0-.1-.03-.1-.15s.01-.15.09-.17c.49-.05.77-.05.92-.32.15-.29.14-.85.14-1.72V2.9c0-1.23,0-1.38-.13-1.67-.14-.26-.46-.27-1-.32-.06,0-.09-.03-.09-.18,0-.14.03-.17.1-.17.62.01,1.29.05,1.86.05.6,0,1.26-.04,1.83-.05.09,0,.12.03.12.18,0,.14-.04.15-.12.17-.49.05-.78.06-.92.32-.15.29-.14.86-.14,1.67v4.65Z"/>
      <path class="cls-1" d="m5.17,4.63c-.12,0-.14-.03-.14-.18,0-.13.01-.17.15-.18.4-.05.85-.28,1.13-.55.26-.22.54-.62.67-.91.04-.1.08-.13.22-.13.15,0,.18.04.18.13-.01.42-.04.91-.04,1.31.58,0,1.28-.01,1.82-.04.05,0,.06.04.05.09l-.14.37c-.01.05-.06.09-.13.09-.47-.03-1.08-.05-1.63-.05l-.03,3.28c0,.72.06,1.08.24,1.32.24.31.54.35.69.35.29,0,.56-.13.82-.35.06-.05.13-.04.21.04.08.08.13.14.03.24-.38.38-.83.67-1.55.67-.6,0-1.03-.13-1.35-.44-.28-.31-.44-.7-.44-1.44,0-.62.01-1.19.03-1.81l.03-1.83h-.82Z"/>
      <path class="cls-1" d="m15.81,7.24c-.94-.44-1.49-.74-1.49-1.85,0-.72.6-1.54,2.03-1.54.32,0,.69.08.92.13.26.05.51.05.85.01.03.45.06,1.06.12,1.49,0,.08-.03.1-.14.12-.13.03-.15-.03-.19-.09-.35-.7-.88-1.29-1.5-1.29-.72,0-1,.38-1,.91,0,.36.28.63.96.91l.45.19c1.12.49,1.76.87,1.76,2.01,0,.88-.67,1.86-2.26,1.86-.72,0-1.29-.14-1.82-.36-.12-.4-.23-.99-.28-1.4,0-.09.01-.1.13-.12.13-.01.14-.01.18.08.42.83,1.13,1.42,1.79,1.42.76,0,1.12-.47,1.12-1.14,0-.55-.44-.78-1.18-1.14l-.44-.21Z"/>
      <path class="cls-1" d="m23.22,8.32c-.31.78-.56,1.45-.83,2.03-.73,1.58-1.46,2.64-2.67,2.64-.44,0-.55-.13-.55-.35,0-.42.37-.94.79-.94.29,0,.41.17.64.17.15,0,.33-.05.5-.26.27-.32.47-.6.92-1.54-.26-.58-.45-1.01-.73-1.72l-.97-2.44c-.32-.74-.44-1.04-.62-1.26-.14-.18-.29-.24-.68-.27-.06,0-.1-.01-.1-.17,0-.13.03-.15.1-.15.49.03,1.06.04,1.49.04.45,0,1.05-.01,1.54-.04.08,0,.12.03.12.15,0,.15-.04.17-.1.17-.35.03-.62.08-.69.23-.09.18.05.59.35,1.29l.67,1.72c.17.42.22.6.29.86.1-.23.17-.44.35-.9l.63-1.69c.24-.67.26-1.04.13-1.24-.12-.19-.29-.24-.63-.27-.09-.01-.12-.04-.12-.17s.03-.15.13-.15c.35.01.83.04,1.18.04.37,0,.73-.01,1.09-.04.09,0,.12.01.12.15s-.03.15-.12.17c-.21.03-.38.08-.56.26-.23.19-.44.54-.72,1.26l-.94,2.41Z"/>
      <path class="cls-1" d="m25.9,4.81c-.13.01-.15,0-.17-.14-.01-.15.01-.17.14-.19.53-.12,1.42-.36,2.05-.56.08,0,.14.05.14.1-.01.37-.03.76-.03,1.08.41-.78,1.14-1.22,1.81-1.22.73,0,1.54.32,1.83,1.27.47-.82,1.11-1.27,2-1.27.4,0,1.82.21,1.82,1.83,0,.47-.01,1.12-.01,1.42v.88c0,.77,0,1.17.09,1.36.1.19.37.21.72.24.08.01.1.03.1.14,0,.13-.01.15-.1.15-.45,0-.97-.04-1.41-.04s-.99.03-1.49.04c-.1,0-.12-.03-.12-.15s.03-.14.12-.14c.36-.04.56-.04.67-.24s.1-.62.1-1.36v-1.74c0-.37.01-.7-.14-1.1-.14-.38-.41-.64-.9-.64s-.86.32-1.1.73c-.23.37-.27.6-.27,1v1.76c0,.77,0,1.17.09,1.36s.35.21.73.24c.08.01.09.04.09.15s-.01.14-.1.14c-.49-.01-1-.04-1.41-.04-.46,0-.99.03-1.46.04-.1,0-.12-.03-.12-.15,0-.12.03-.14.12-.14.35-.03.55-.04.65-.24s.1-.62.1-1.36v-1.74c0-.37.03-.7-.14-1.1-.15-.4-.44-.64-.91-.64s-.83.32-1.08.73c-.23.38-.28.62-.28,1.03v1.73c0,.77-.01,1.17.08,1.36.09.21.36.21.72.24.08.01.1.04.1.17,0,.12-.03.13-.1.13-.45-.01-.99-.04-1.42-.04s-.96.03-1.44.04c-.09,0-.12-.03-.12-.14s.03-.14.12-.15c.36-.04.56-.04.68-.24s.09-.62.09-1.36v-1.9c0-.46,0-.83-.09-1.06-.08-.22-.21-.29-.45-.27l-.31.03Z"/>
      <path class="cls-1" d="m38.85,4.87c.42-.7,1.14-1.03,1.71-1.03,1.65,0,2.77,1.27,2.77,3.1s-1.1,3.17-2.94,3.17c-.92,0-1.28-.38-1.69-.72-.09-.06-.22-.06-.29,0l-.56.5c-.09.06-.12.08-.26.08s-.17-.03-.15-.12c.06-.92.1-1.61.1-2.83V2.26c0-.49-.01-.83-.06-1.1-.05-.22-.21-.27-.42-.26l-.32.03c-.13.01-.15,0-.17-.15-.01-.14.01-.15.12-.19.55-.1,1.47-.33,2.1-.55.08,0,.14.05.14.1-.04.88-.06,1.88-.06,3.14v1.6Zm0,2.91c0,.46-.01.77.19,1.13.27.46.63.78,1.17.78.95,0,1.58-1.12,1.58-2.73s-.71-2.49-1.58-2.49c-.49,0-.86.26-1.14.65-.23.35-.22.59-.22,1v1.65Z"/>
      <path class="cls-1" d="m50.36,7c0,1.72-1.19,3.11-3,3.11s-2.99-1.35-2.99-3.09,1.22-3.15,2.99-3.15,3,1.36,3,3.13Zm-4.49,0c0,1.6.47,2.73,1.49,2.73s1.5-1.22,1.5-2.73c0-1.63-.47-2.74-1.5-2.74s-1.49,1.2-1.49,2.74Z"/>
      <path class="cls-1" d="m51.99,2.22c0-.46-.04-.83-.09-1.05-.05-.23-.22-.31-.42-.29l-.35.03c-.12.01-.14,0-.15-.14-.01-.15.01-.17.13-.19.53-.1,1.49-.36,2.12-.56.09,0,.15.03.15.09-.03.96-.06,1.9-.06,3.15v4.74c0,.78-.01,1.18.09,1.37.1.21.31.22.72.26.08.01.09.04.09.15,0,.13-.03.14-.1.14-.47-.03-.97-.04-1.4-.04-.45,0-.99.01-1.46.04-.12,0-.14-.03-.14-.14s.03-.14.13-.15c.4-.04.55-.05.65-.26.1-.22.1-.62.1-1.37V2.22Z"/>
      <path class="cls-1" d="m55.63,6.17c0-.49-.01-.85-.06-1.09-.06-.21-.19-.28-.47-.26l-.33.03c-.13.01-.15.01-.17-.14-.01-.15,0-.17.14-.19.5-.12,1.47-.38,2.08-.59.09,0,.15.05.15.13-.04.94-.05,1.65-.05,2.27v1.68c0,.77,0,1.17.09,1.37.1.19.32.19.73.22.08.01.09.05.09.17,0,.13-.01.15-.09.15-.46-.01-.99-.04-1.42-.04s-1.01.03-1.45.04c-.1,0-.13-.03-.13-.15,0-.12.03-.17.12-.17.37-.03.58-.04.68-.22.13-.22.1-.63.1-1.37v-1.83Zm1.41-4.96c0,.45-.44.87-.85.87-.45,0-.88-.42-.88-.87s.44-.86.88-.86c.41,0,.85.41.85.86Z"/>
      <path class="cls-1" d="m60.07,9.48c.28.03.47.03.81.03,1.03,0,1.46-.21,1.79-.46.36-.27.64-.64.82-.96.06-.08.09-.09.21-.06.14.03.15.06.13.14-.15.53-.36,1.19-.58,1.74-.73-.03-1.55-.04-2.28-.04-.79,0-1.74.01-2.59.04-.05,0-.09-.08-.09-.15.35-.41.64-.83,1.17-1.63l2.42-3.64c-.32-.01-.58-.03-.9-.03-.76,0-1.18.15-1.45.35-.26.18-.45.51-.59.87-.04.09-.09.1-.19.09-.09-.01-.13-.05-.12-.15.06-.49.12-1.09.14-1.54.77.03,1.53.04,2.26.04s1.64-.01,2.5-.04c.06,0,.12.12.12.18-.31.4-.63.82-1.11,1.55l-2.46,3.68Z"/>
      <path class="cls-1" d="m66.01,6.97c0,1.69,1.04,2.54,1.83,2.54s1.31-.28,1.78-.92c.04-.05.09-.06.13-.06s.08.03.12.05c.05.04.1.09.1.13,0,.03-.03.08-.06.14-.59.91-1.31,1.27-2.37,1.27-1.77,0-2.96-1.31-2.96-3.08s1.23-3.17,2.97-3.17,2.46,1.49,2.5,2.38c0,.1,0,.13-.06.22-.06.08-.12.06-.19.06-1.29-.04-2.59-.05-3.73-.03-.03.12-.05.24-.05.46Zm2.51-.96c.1-.01.12-.09.12-.21-.04-.72-.35-1.55-1.09-1.55-.69,0-1.23.74-1.42,1.79.9.03,1.5.03,2.4-.04Z"/>
      <path class="cls-1" d="m72.53,7.24c-.94-.44-1.49-.74-1.49-1.85,0-.72.6-1.54,2.03-1.54.32,0,.69.08.92.13.26.05.51.05.85.01.03.45.06,1.06.12,1.49,0,.08-.03.1-.14.12-.13.03-.15-.03-.19-.09-.35-.7-.88-1.29-1.5-1.29-.72,0-1,.38-1,.91,0,.36.28.63.96.91l.45.19c1.12.49,1.76.87,1.76,2.01,0,.88-.67,1.86-2.26,1.86-.72,0-1.29-.14-1.82-.36-.12-.4-.23-.99-.28-1.4,0-.09.01-.1.13-.12.13-.01.14-.01.18.08.42.83,1.13,1.42,1.79,1.42.76,0,1.12-.47,1.12-1.14,0-.55-.44-.78-1.18-1.14l-.44-.21Z"/>
      <path class="cls-1" d="m80.33,4.63c-.12,0-.14-.03-.14-.18,0-.13.01-.17.15-.18.4-.05.85-.28,1.13-.55.26-.22.54-.62.67-.91.04-.1.08-.13.22-.13.15,0,.18.04.18.13-.01.42-.04.91-.04,1.31.58,0,1.28-.01,1.82-.04.05,0,.06.04.05.09l-.14.37c-.01.05-.06.09-.13.09-.47-.03-1.08-.05-1.63-.05l-.03,3.28c0,.72.06,1.08.24,1.32.24.31.54.35.69.35.29,0,.56-.13.82-.35.06-.05.13-.04.21.04.08.08.13.14.03.24-.38.38-.83.67-1.55.67-.6,0-1.03-.13-1.35-.44-.28-.31-.44-.7-.44-1.44,0-.62.01-1.19.03-1.81l.03-1.83h-.82Z"/>
      <path class="cls-1" d="m87.03,5.08c.45-.76,1.13-1.19,1.94-1.19.46,0,1.92.17,1.92,1.82,0,.7-.03,1.12-.03,1.45v.87c0,.76-.01,1.14.09,1.35.08.21.32.21.71.24.08.01.1.04.1.15,0,.13-.03.14-.12.14-.49-.01-1-.04-1.42-.04-.47,0-.96.03-1.44.04-.1,0-.13-.01-.13-.14s.03-.14.12-.15c.37-.04.58-.04.67-.24.12-.22.09-.62.09-1.35v-1.74c0-.38.03-.68-.12-1.09-.17-.38-.47-.65-.97-.65s-.9.31-1.14.73c-.21.37-.27.6-.27,1.03v1.73c0,.76-.01,1.14.08,1.35.08.18.28.21.71.24.1.01.13.03.13.14,0,.13-.03.15-.13.15-.47-.01-.94-.04-1.36-.04-.46,0-1.03.03-1.53.04-.08,0-.1-.03-.1-.15,0-.1.03-.13.1-.14.4-.04.59-.04.68-.24.1-.22.1-.62.1-1.35V2.23c0-.46-.01-.81-.05-1.04-.04-.24-.21-.32-.42-.31l-.36.03c-.13.01-.14,0-.15-.15-.01-.14,0-.15.13-.18.54-.1,1.5-.36,2.11-.56.05,0,.13.06.13.1-.04.95-.06,1.88-.06,3.13v1.83Z"/>
      <path class="cls-1" d="m93.88,6.97c0,1.69,1.04,2.54,1.83,2.54s1.31-.28,1.78-.92c.04-.05.09-.06.13-.06s.08.03.12.05c.05.04.1.09.1.13,0,.03-.03.08-.06.14-.59.91-1.31,1.27-2.37,1.27-1.77,0-2.96-1.31-2.96-3.08s1.23-3.17,2.97-3.17,2.46,1.49,2.5,2.38c0,.1,0,.13-.06.22-.06.08-.12.06-.19.06-1.29-.04-2.59-.05-3.73-.03-.03.12-.05.24-.05.46Zm2.51-.96c.1-.01.12-.09.12-.21-.04-.72-.35-1.55-1.09-1.55-.69,0-1.23.74-1.42,1.79.9.03,1.5.03,2.4-.04Z"/>
      <path class="cls-1" d="m104.98,5.08c.45-.76,1.13-1.19,1.94-1.19.46,0,1.92.17,1.92,1.82,0,.7-.03,1.12-.03,1.45v.87c0,.76-.01,1.14.09,1.35.08.21.32.21.71.24.08.01.1.04.1.15,0,.13-.03.14-.12.14-.49-.01-1-.04-1.42-.04-.47,0-.96.03-1.44.04-.1,0-.13-.01-.13-.14s.03-.14.12-.15c.37-.04.58-.04.67-.24.12-.22.09-.62.09-1.35v-1.74c0-.38.03-.68-.12-1.09-.17-.38-.47-.65-.97-.65s-.9.31-1.14.73c-.21.37-.27.6-.27,1.03v1.73c0,.76-.01,1.14.08,1.35.08.18.28.21.71.24.1.01.13.03.13.14,0,.13-.03.15-.13.15-.47-.01-.94-.04-1.36-.04-.46,0-1.03.03-1.53.04-.08,0-.1-.03-.1-.15,0-.1.03-.13.1-.14.4-.04.59-.04.68-.24.1-.22.1-.62.1-1.35V2.23c0-.46-.01-.81-.05-1.04-.04-.24-.21-.32-.42-.31l-.36.03c-.13.01-.14,0-.15-.15-.01-.14,0-.15.13-.18.54-.1,1.5-.36,2.11-.56.05,0,.13.06.13.1-.04.95-.06,1.88-.06,3.13v1.83Z"/>
      <path class="cls-1" d="m116.8,9.59c.12.01.13.04.13.15,0,.13-.03.14-.12.14-.47.03-1.49.14-1.97.22-.08,0-.15-.08-.15-.15.03-.37.04-.64.04-1-.45.79-1.17,1.17-1.92,1.17-.47,0-1.92-.18-1.92-1.82,0-.49.03-.88.03-1.37v-1.01c0-.47,0-.76-.05-.99-.05-.23-.18-.35-.4-.33h-.33c-.13.01-.15.01-.17-.13s0-.18.13-.19c.58-.08,1.5-.23,2.06-.36.06,0,.15.06.15.13-.04.91-.05,1.67-.05,2.24v1.35c0,.45-.01.91.14,1.23.17.41.51.62.94.62.49,0,.87-.31,1.13-.74.22-.36.27-.6.27-1.01v-1.81c0-.47-.03-.73-.08-.97-.05-.23-.17-.36-.4-.35l-.35.03c-.12.01-.14-.01-.15-.15s0-.17.14-.18c.51-.06,1.5-.26,2.01-.37.06,0,.14.06.14.12-.04.94-.04,1.68-.04,2.26v1.77c0,.83,0,1.04.08,1.27.08.22.23.24.47.26h.24Z"/>
      <path class="cls-1" d="m117.5,4.81c-.13.01-.15,0-.17-.14-.01-.15.01-.17.14-.19.53-.12,1.42-.36,2.05-.56.08,0,.14.05.14.1-.01.37-.03.76-.03,1.08.41-.78,1.14-1.22,1.81-1.22.73,0,1.54.32,1.83,1.27.47-.82,1.11-1.27,2-1.27.4,0,1.82.21,1.82,1.83,0,.47-.01,1.12-.01,1.42v.88c0,.77,0,1.17.09,1.36.1.19.37.21.72.24.08.01.1.03.1.14,0,.13-.01.15-.1.15-.45,0-.97-.04-1.41-.04s-.99.03-1.49.04c-.1,0-.12-.03-.12-.15s.03-.14.12-.14c.36-.04.56-.04.67-.24s.1-.62.1-1.36v-1.74c0-.37.01-.7-.14-1.1-.14-.38-.41-.64-.9-.64s-.86.32-1.1.73c-.23.37-.27.6-.27,1v1.76c0,.77,0,1.17.09,1.36s.35.21.73.24c.08.01.09.04.09.15s-.01.14-.1.14c-.49-.01-1-.04-1.41-.04-.46,0-.99.03-1.46.04-.1,0-.12-.03-.12-.15,0-.12.03-.14.12-.14.35-.03.55-.04.65-.24s.1-.62.1-1.36v-1.74c0-.37.03-.7-.14-1.1-.15-.4-.44-.64-.91-.64s-.83.32-1.08.73c-.23.38-.28.62-.28,1.03v1.73c0,.77-.01,1.17.08,1.36.09.21.36.21.72.24.08.01.1.04.1.17,0,.12-.03.13-.1.13-.45-.01-.99-.04-1.42-.04s-.96.03-1.44.04c-.09,0-.12-.03-.12-.14s.03-.14.12-.15c.36-.04.56-.04.68-.24s.09-.62.09-1.36v-1.9c0-.46,0-.83-.09-1.06-.08-.22-.21-.29-.45-.27l-.31.03Z"/>
      <path class="cls-1" d="m133.34,8.46c-.01.82.17,1.13.46,1.13.15,0,.23-.01.37-.09.05-.03.12-.03.17.06.05.09.05.13-.04.19-.22.17-.59.29-1.09.29-.55,0-.92-.27-1.09-.69-.46.46-.91.76-1.79.76-1.26,0-1.64-.78-1.64-1.36s.17-.85.44-1.14c.38-.35.85-.46,1.64-.7.56-.17.81-.31,1-.46.17-.13.29-.32.29-.5v-.36c0-.96-.24-1.36-.77-1.36-.21,0-.45.04-.67.26-.18.15-.23.4-.23.72,0,.35-.32.62-.99.62-.4,0-.5-.15-.5-.41,0-.6.99-1.54,2.56-1.54,1.88,0,1.91.91,1.9,1.91l-.03,2.68Zm-1.28-1.81c-.13.19-.31.29-1.03.56-.68.27-.94.69-.94,1.35s.46,1.05.81,1.05c.67,0,1.14-.51,1.14-1.12v-1.85Z"/>
      <path class="cls-1" d="m134.83,4.79c-.13.01-.17,0-.18-.14-.01-.14.01-.17.15-.19.53-.1,1.45-.36,2.03-.56.08,0,.15.05.15.1-.03.36-.03.76-.03,1.09.45-.77,1.17-1.22,1.99-1.22.38,0,1.87.21,1.87,1.83,0,.47-.01,1.12-.01,1.42v.88c0,.77.01,1.17.1,1.36.09.19.29.21.67.24.08.01.1.04.1.15s-.01.14-.1.14c-.47-.01-.96-.04-1.4-.04s-.97.03-1.46.04c-.09,0-.1-.03-.1-.14,0-.13.03-.15.1-.15.35-.03.55-.04.65-.24s.1-.62.1-1.36v-1.74c0-.37.03-.7-.15-1.1-.17-.38-.44-.64-.94-.64-.46,0-.91.32-1.15.73-.23.38-.27.62-.27,1.03v1.73c0,.77-.01,1.17.08,1.36.1.21.31.21.71.24.09.01.12.03.12.15s-.03.14-.12.14c-.45-.01-.95-.04-1.37-.04-.46,0-.99.03-1.47.04-.08,0-.09-.03-.09-.14,0-.13.03-.14.09-.15.37-.04.58-.04.68-.24s.09-.62.09-1.36v-1.9c0-.47,0-.85-.09-1.08-.08-.22-.18-.28-.4-.27l-.35.03Z"/>
      <path class="cls-1" d="m143.16,6.17c0-.49-.01-.85-.06-1.09-.06-.21-.19-.28-.47-.26l-.33.03c-.13.01-.15.01-.17-.14-.01-.15,0-.17.14-.19.5-.12,1.47-.38,2.08-.59.09,0,.15.05.15.13-.04.94-.05,1.65-.05,2.27v1.68c0,.77,0,1.17.09,1.37.1.19.32.19.73.22.08.01.09.05.09.17,0,.13-.01.15-.09.15-.46-.01-.99-.04-1.42-.04s-1.01.03-1.45.04c-.1,0-.13-.03-.13-.15,0-.12.03-.17.12-.17.37-.03.58-.04.68-.22.13-.22.1-.63.1-1.37v-1.83Zm1.41-4.96c0,.45-.44.87-.85.87-.45,0-.88-.42-.88-.87s.44-.86.88-.86c.41,0,.85.41.85.86Z"/>
      <path class="cls-1" d="m147.72,7.24c-.94-.44-1.49-.74-1.49-1.85,0-.72.6-1.54,2.03-1.54.32,0,.69.08.92.13.26.05.51.05.85.01.03.45.06,1.06.12,1.49,0,.08-.03.1-.14.12-.13.03-.15-.03-.19-.09-.35-.7-.88-1.29-1.5-1.29-.72,0-1,.38-1,.91,0,.36.28.63.96.91l.45.19c1.11.49,1.76.87,1.76,2.01,0,.88-.67,1.86-2.26,1.86-.72,0-1.29-.14-1.82-.36-.12-.4-.23-.99-.28-1.4,0-.09.01-.1.13-.12.13-.01.14-.01.18.08.42.83,1.13,1.42,1.79,1.42.76,0,1.12-.47,1.12-1.14,0-.55-.44-.78-1.18-1.14l-.44-.21Z"/>
      <path class="cls-1" d="m151.26,4.63c-.12,0-.14-.03-.14-.18,0-.13.01-.17.15-.18.4-.05.85-.28,1.13-.55.26-.22.54-.62.67-.91.04-.1.08-.13.22-.13.15,0,.18.04.18.13-.01.42-.04.91-.04,1.31.58,0,1.28-.01,1.82-.04.05,0,.06.04.05.09l-.14.37c-.01.05-.06.09-.13.09-.47-.03-1.08-.05-1.63-.05l-.03,3.28c0,.72.06,1.08.24,1.32.24.31.54.35.69.35.29,0,.56-.13.82-.35.06-.05.13-.04.21.04.08.08.13.14.03.24-.38.38-.83.67-1.55.67-.6,0-1.03-.13-1.35-.44-.28-.31-.44-.7-.44-1.44,0-.62.01-1.19.03-1.81l.03-1.83h-.82Z"/>
      <path class="cls-1" d="m156.79,6.17c0-.49-.01-.85-.06-1.09-.06-.21-.19-.28-.47-.26l-.33.03c-.13.01-.15.01-.17-.14-.01-.15,0-.17.14-.19.5-.12,1.47-.38,2.08-.59.09,0,.15.05.15.13-.04.94-.05,1.65-.05,2.27v1.68c0,.77,0,1.17.09,1.37.1.19.32.19.73.22.08.01.09.05.09.17,0,.13-.01.15-.09.15-.46-.01-.99-.04-1.42-.04s-1.01.03-1.45.04c-.1,0-.13-.03-.13-.15,0-.12.03-.17.12-.17.37-.03.58-.04.68-.22.13-.22.1-.63.1-1.37v-1.83Zm1.41-4.96c0,.45-.44.87-.85.87-.45,0-.88-.42-.88-.87s.44-.86.88-.86c.41,0,.85.41.85.86Z"/>
      <path class="cls-1" d="m164.24,4.17c.26.1.51.29.51.6,0,.46-.14.85-.56.85-.38,0-.62-.49-.77-.79-.15-.28-.35-.54-.68-.54-.99,0-1.49,1.12-1.49,2.69,0,1.67.94,2.51,1.78,2.51.76,0,1.17-.27,1.63-.9.06-.1.13-.09.23-.01.1.06.12.12.08.19-.53.9-1.28,1.35-2.32,1.35-1.73,0-2.91-1.28-2.91-3.08s1.28-3.17,2.94-3.17c.76,0,1.22.14,1.56.29Z"/>
      <path class="cls-1" d="m171.34,6.97c0,1.69,1.04,2.54,1.83,2.54s1.31-.28,1.78-.92c.04-.05.09-.06.13-.06s.08.03.12.05c.05.04.1.09.1.13,0,.03-.03.08-.06.14-.59.91-1.31,1.27-2.37,1.27-1.77,0-2.96-1.31-2.96-3.08s1.23-3.17,2.97-3.17,2.46,1.49,2.5,2.38c0,.1,0,.13-.06.22-.06.08-.12.06-.19.06-1.29-.04-2.59-.05-3.73-.03-.03.12-.05.24-.05.46Zm2.51-.96c.1-.01.12-.09.12-.21-.04-.72-.35-1.55-1.09-1.55-.69,0-1.23.74-1.42,1.79.9.03,1.5.03,2.4-.04Z"/>
      <path class="cls-1" d="m176.17,4.79c-.13.01-.17,0-.18-.14-.01-.14.01-.17.15-.19.53-.1,1.45-.36,2.03-.56.08,0,.15.05.15.1-.03.36-.03.76-.03,1.09.45-.77,1.17-1.22,1.99-1.22.38,0,1.87.21,1.87,1.83,0,.47-.01,1.12-.01,1.42v.88c0,.77.01,1.17.1,1.36.09.19.29.21.67.24.08.01.1.04.1.15s-.01.14-.1.14c-.47-.01-.96-.04-1.4-.04s-.97.03-1.46.04c-.09,0-.1-.03-.1-.14,0-.13.03-.15.1-.15.35-.03.55-.04.65-.24s.1-.62.1-1.36v-1.74c0-.37.03-.7-.15-1.1-.17-.38-.44-.64-.94-.64-.46,0-.91.32-1.15.73-.23.38-.27.62-.27,1.03v1.73c0,.77-.01,1.17.08,1.36.1.21.31.21.71.24.09.01.12.03.12.15s-.03.14-.12.14c-.45-.01-.95-.04-1.37-.04-.46,0-.99.03-1.47.04-.08,0-.09-.03-.09-.14,0-.13.03-.14.09-.15.37-.04.58-.04.68-.24s.09-.62.09-1.36v-1.9c0-.47,0-.85-.09-1.08-.08-.22-.18-.28-.4-.27l-.35.03Z"/>
      <path class="cls-1" d="m186.46,7.65c.14.4.21.63.33,1.06.17-.45.26-.67.4-1.13l.54-1.68c.21-.64.27-1.08.17-1.27-.09-.17-.32-.22-.67-.26-.06-.01-.09-.03-.09-.15s.03-.15.1-.15c.37.03.86.04,1.21.04.37,0,.74-.01,1.08-.04.1,0,.13.03.13.15s-.03.14-.13.15c-.22.03-.47.13-.65.31-.22.23-.41.62-.64,1.22l-.86,2.38c-.24.67-.33.95-.54,1.5-.65.27-.72.29-.78.29-.05,0-.09-.03-.12-.08-.18-.54-.33-.97-.59-1.68l-.91-2.42c-.28-.7-.42-1.12-.6-1.32-.17-.17-.31-.18-.68-.21-.08-.01-.1-.03-.1-.15s.01-.15.1-.15c.49.01,1.05.04,1.47.04.45,0,1.06-.01,1.55-.04.09,0,.1.03.1.15s-.01.15-.09.15c-.36.01-.64.04-.72.22-.06.18.09.59.36,1.31l.63,1.74Z"/>
      <path class="cls-1" d="m190.85,6.17c0-.49-.01-.85-.06-1.09-.06-.21-.19-.28-.47-.26l-.33.03c-.13.01-.15.01-.17-.14-.01-.15,0-.17.14-.19.5-.12,1.47-.38,2.08-.59.09,0,.15.05.15.13-.04.94-.05,1.65-.05,2.27v1.68c0,.77,0,1.17.09,1.37.1.19.32.19.73.22.08.01.09.05.09.17,0,.13-.01.15-.09.15-.46-.01-.99-.04-1.42-.04s-1.01.03-1.45.04c-.1,0-.13-.03-.13-.15,0-.12.03-.17.12-.17.37-.03.58-.04.68-.22.13-.22.1-.63.1-1.37v-1.83Zm1.41-4.96c0,.45-.44.87-.85.87-.45,0-.88-.42-.88-.87s.44-.86.88-.86c.41,0,.85.41.85.86Z"/>
      <path class="cls-1" d="m193.73,4.81c-.14.01-.17,0-.18-.14s.01-.17.15-.19c.5-.1,1.45-.36,2.05-.58.09,0,.17.05.17.12-.01.36-.04.74-.04,1.26.38-.69.92-1.41,1.65-1.41.44,0,.7.17.7.4,0,.51-.38.96-.69.96-.28,0-.46-.28-.72-.28-.15,0-.33.06-.59.38-.24.29-.36.64-.36,1.13v1.56c0,.77,0,1.18.09,1.36.1.21.31.21.76.24.08,0,.09.03.09.17,0,.12-.03.13-.09.13-.49-.01-1.03-.04-1.45-.04s-1.03.03-1.5.04c-.08,0-.1-.01-.1-.13,0-.14.03-.15.1-.17.38-.04.59-.04.68-.24.12-.22.13-.62.13-1.36v-1.9c0-.46-.03-.81-.1-1.05-.06-.23-.22-.29-.44-.28l-.32.03Z"/>
      <path class="cls-1" d="m204.8,7c0,1.72-1.19,3.11-3,3.11s-2.99-1.35-2.99-3.09,1.22-3.15,2.99-3.15,3,1.36,3,3.13Zm-4.49,0c0,1.6.47,2.73,1.49,2.73s1.5-1.22,1.5-2.73c0-1.63-.47-2.74-1.5-2.74s-1.49,1.2-1.49,2.74Z"/>
      <path class="cls-1" d="m205.77,4.79c-.13.01-.17,0-.18-.14s.01-.17.15-.19c.53-.1,1.45-.36,2.03-.56.08,0,.15.05.15.1-.03.36-.03.76-.03,1.09.45-.77,1.17-1.22,1.99-1.22.38,0,1.87.21,1.87,1.83,0,.47-.01,1.12-.01,1.42v.88c0,.77.01,1.17.1,1.36s.29.21.67.24c.08.01.1.04.1.15s-.01.14-.1.14c-.47-.01-.96-.04-1.4-.04s-.97.03-1.46.04c-.09,0-.1-.03-.1-.14,0-.13.03-.15.1-.15.35-.03.55-.04.65-.24s.1-.62.1-1.36v-1.74c0-.37.03-.7-.15-1.1-.17-.38-.44-.64-.94-.64-.46,0-.91.32-1.15.73-.23.38-.27.62-.27,1.03v1.73c0,.77-.01,1.17.08,1.36.1.21.31.21.71.24.09.01.12.03.12.15s-.03.14-.12.14c-.45-.01-.95-.04-1.37-.04-.46,0-.99.03-1.47.04-.08,0-.09-.03-.09-.14,0-.13.03-.14.09-.15.37-.04.58-.04.68-.24s.09-.62.09-1.36v-1.9c0-.47,0-.85-.09-1.08-.08-.22-.18-.28-.4-.27l-.35.03Z"/>
      <path class="cls-1" d="m213.24,4.81c-.13.01-.15,0-.17-.14-.01-.15.01-.17.14-.19.53-.12,1.42-.36,2.05-.56.08,0,.14.05.14.1-.01.37-.03.76-.03,1.08.41-.78,1.14-1.22,1.81-1.22.73,0,1.54.32,1.83,1.27.47-.82,1.11-1.27,2-1.27.4,0,1.82.21,1.82,1.83,0,.47-.01,1.12-.01,1.42v.88c0,.77,0,1.17.09,1.36.1.19.37.21.72.24.08.01.1.03.1.14,0,.13-.01.15-.1.15-.45,0-.97-.04-1.41-.04s-.99.03-1.49.04c-.1,0-.12-.03-.12-.15s.03-.14.12-.14c.36-.04.56-.04.67-.24s.1-.62.1-1.36v-1.74c0-.37.01-.7-.14-1.1-.14-.38-.41-.64-.9-.64s-.86.32-1.1.73c-.23.37-.27.6-.27,1v1.76c0,.77,0,1.17.09,1.36s.35.21.73.24c.08.01.09.04.09.15s-.01.14-.1.14c-.49-.01-1-.04-1.41-.04-.46,0-.99.03-1.46.04-.1,0-.12-.03-.12-.15,0-.12.03-.14.12-.14.35-.03.55-.04.65-.24s.1-.62.1-1.36v-1.74c0-.37.03-.7-.14-1.1-.15-.4-.44-.64-.91-.64s-.83.32-1.08.73c-.23.38-.28.62-.28,1.03v1.73c0,.77-.01,1.17.08,1.36.09.21.36.21.72.24.08.01.1.04.1.17,0,.12-.03.13-.1.13-.45-.01-.99-.04-1.42-.04s-.96.03-1.44.04c-.09,0-.12-.03-.12-.14s.03-.14.12-.15c.36-.04.56-.04.68-.24s.09-.62.09-1.36v-1.9c0-.46,0-.83-.09-1.06-.08-.22-.21-.29-.45-.27l-.31.03Z"/>
      <path class="cls-1" d="m225.86,6.97c0,1.69,1.04,2.54,1.83,2.54s1.31-.28,1.78-.92c.04-.05.09-.06.13-.06s.08.03.12.05c.05.04.1.09.1.13,0,.03-.03.08-.06.14-.59.91-1.31,1.27-2.37,1.27-1.77,0-2.96-1.31-2.96-3.08s1.23-3.17,2.97-3.17,2.46,1.49,2.5,2.38c0,.1,0,.13-.06.22-.06.08-.12.06-.19.06-1.29-.04-2.59-.05-3.73-.03-.03.12-.05.24-.05.46Zm2.51-.96c.1-.01.12-.09.12-.21-.04-.72-.35-1.55-1.09-1.55-.69,0-1.23.74-1.42,1.79.9.03,1.5.03,2.4-.04Z"/>
      <path class="cls-1" d="m230.69,4.79c-.13.01-.17,0-.18-.14-.01-.14.01-.17.15-.19.53-.1,1.45-.36,2.03-.56.08,0,.15.05.15.1-.03.36-.03.76-.03,1.09.45-.77,1.17-1.22,1.99-1.22.38,0,1.87.21,1.87,1.83,0,.47-.01,1.12-.01,1.42v.88c0,.77.01,1.17.1,1.36.09.19.29.21.67.24.08.01.1.04.1.15s-.01.14-.1.14c-.47-.01-.96-.04-1.4-.04s-.97.03-1.46.04c-.09,0-.1-.03-.1-.14,0-.13.03-.15.1-.15.35-.03.55-.04.65-.24s.1-.62.1-1.36v-1.74c0-.37.03-.7-.15-1.1-.17-.38-.44-.64-.94-.64-.46,0-.91.32-1.15.73-.23.38-.27.62-.27,1.03v1.73c0,.77-.01,1.17.08,1.36.1.21.31.21.71.24.09.01.12.03.12.15s-.03.14-.12.14c-.45-.01-.95-.04-1.37-.04-.46,0-.99.03-1.47.04-.08,0-.09-.03-.09-.14,0-.13.03-.14.09-.15.37-.04.58-.04.68-.24s.09-.62.09-1.36v-1.9c0-.47,0-.85-.09-1.08-.08-.22-.18-.28-.4-.27l-.35.03Z"/>
      <path class="cls-1" d="m238,4.63c-.12,0-.14-.03-.14-.18,0-.13.01-.17.15-.18.4-.05.85-.28,1.13-.55.26-.22.54-.62.67-.91.04-.1.08-.13.22-.13.15,0,.18.04.18.13-.01.42-.04.91-.04,1.31.58,0,1.28-.01,1.82-.04.05,0,.06.04.05.09l-.14.37c-.01.05-.06.09-.13.09-.47-.03-1.08-.05-1.63-.05l-.03,3.28c0,.72.06,1.08.24,1.32.24.31.54.35.69.35.29,0,.56-.13.82-.35.06-.05.13-.04.21.04.08.08.13.14.03.24-.38.38-.83.67-1.55.67-.6,0-1.03-.13-1.35-.44-.28-.31-.44-.7-.44-1.44,0-.62.01-1.19.03-1.81l.03-1.83h-.82Z"/>
      <path class="cls-1" d="m253.01,7c0,1.72-1.19,3.11-3,3.11s-2.99-1.35-2.99-3.09,1.22-3.15,2.99-3.15,3,1.36,3,3.13Zm-4.49,0c0,1.6.47,2.73,1.49,2.73s1.5-1.22,1.5-2.73c0-1.63-.47-2.74-1.5-2.74s-1.49,1.2-1.49,2.74Z"/>
      <path class="cls-1" d="m256.18,7.99c0,.79.01,1.18.1,1.36s.46.22.85.26c.06.01.1.04.1.15s-.04.15-.1.15c-.51-.01-1.15-.04-1.58-.04-.45,0-1.08.03-1.55.04-.1,0-.13-.04-.13-.15s.03-.14.13-.15c.35-.03.67-.06.76-.26.12-.22.12-.59.12-1.36v-1.86c0-.56,0-1.06-.01-1.5-.31,0-.64.01-1.08.04-.05,0-.08-.03-.08-.09l.1-.37c.01-.05.06-.08.13-.08.35.01.63.01.92.01,0-.26-.01-.49-.01-.65,0-1.15.51-1.97,1.06-2.56.53-.58,1.18-.88,1.97-.88.46,0,.76.1.76.41,0,.6-.32.99-.58.99-.28,0-.37-.13-.54-.32-.21-.23-.37-.41-.54-.38-.4.06-.62.44-.72,1.35-.08.63-.08,1.53-.08,2.05.49,0,1.04-.01,1.56-.04.06,0,.09.03.09.08l-.12.38c-.01.05-.06.09-.1.09-.49-.04-.94-.04-1.45-.04v3.38Z"/>
      <path class="cls-1" d="m263.38,2.22c0-.46-.04-.83-.09-1.05-.05-.23-.22-.31-.42-.29l-.35.03c-.12.01-.14,0-.15-.14-.01-.15.01-.17.13-.19.53-.1,1.49-.36,2.12-.56.09,0,.15.03.15.09-.03.96-.06,1.9-.06,3.15v4.74c0,.78-.01,1.18.09,1.37.1.21.31.22.72.26.08.01.09.04.09.15,0,.13-.03.14-.1.14-.47-.03-.97-.04-1.4-.04-.45,0-.99.01-1.46.04-.12,0-.14-.03-.14-.14s.03-.14.13-.15c.4-.04.55-.05.65-.26.1-.22.1-.62.1-1.37V2.22Z"/>
      <path class="cls-1" d="m267.01,6.17c0-.49-.01-.85-.06-1.09-.06-.21-.19-.28-.47-.26l-.33.03c-.13.01-.15.01-.17-.14-.01-.15,0-.17.14-.19.5-.12,1.47-.38,2.08-.59.09,0,.15.05.15.13-.04.94-.05,1.65-.05,2.27v1.68c0,.77,0,1.17.09,1.37.1.19.32.19.73.22.08.01.09.05.09.17,0,.13-.01.15-.09.15-.46-.01-.99-.04-1.42-.04s-1.01.03-1.45.04c-.1,0-.13-.03-.13-.15,0-.12.03-.17.12-.17.37-.03.58-.04.68-.22.13-.22.1-.63.1-1.37v-1.83Zm1.41-4.96c0,.45-.44.87-.85.87-.45,0-.88-.42-.88-.87s.44-.86.88-.86c.41,0,.85.41.85.86Z"/>
      <path class="cls-1" d="m272.08,7.99c0,.79.01,1.18.1,1.36s.46.22.85.26c.06.01.1.04.1.15s-.04.15-.1.15c-.51-.01-1.15-.04-1.58-.04-.45,0-1.08.03-1.55.04-.1,0-.13-.04-.13-.15s.03-.14.13-.15c.35-.03.67-.06.76-.26.12-.22.12-.59.12-1.36v-1.86c0-.56,0-1.06-.01-1.5-.31,0-.64.01-1.08.04-.05,0-.08-.03-.08-.09l.1-.37c.01-.05.06-.08.13-.08.35.01.63.01.92.01,0-.26-.01-.49-.01-.65,0-1.15.51-1.97,1.06-2.56.53-.58,1.18-.88,1.97-.88.46,0,.76.1.76.41,0,.6-.32.99-.58.99-.28,0-.37-.13-.54-.32-.21-.23-.37-.41-.54-.38-.4.06-.62.44-.72,1.35-.08.63-.08,1.53-.08,2.05.49,0,1.04-.01,1.56-.04.06,0,.09.03.09.08l-.12.38c-.01.05-.06.09-.1.09-.49-.04-.94-.04-1.45-.04v3.38Z"/>
      <path class="cls-1" d="m275.85,6.97c0,1.69,1.04,2.54,1.83,2.54s1.31-.28,1.78-.92c.04-.05.09-.06.13-.06s.08.03.12.05c.05.04.1.09.1.13,0,.03-.03.08-.06.14-.59.91-1.31,1.27-2.37,1.27-1.77,0-2.96-1.31-2.96-3.08s1.23-3.17,2.97-3.17,2.46,1.49,2.5,2.38c0,.1,0,.13-.06.22-.06.08-.12.06-.19.06-1.29-.04-2.59-.05-3.73-.03-.03.12-.05.24-.05.46Zm2.51-.96c.1-.01.12-.09.12-.21-.04-.72-.35-1.55-1.09-1.55-.69,0-1.23.74-1.42,1.79.9.03,1.5.03,2.4-.04Z"/>
      <path class="cls-1" d="m289.68,8.46c-.01.82.17,1.13.46,1.13.15,0,.23-.01.37-.09.05-.03.12-.03.17.06.05.09.05.13-.04.19-.22.17-.59.29-1.09.29-.55,0-.92-.27-1.09-.69-.46.46-.91.76-1.79.76-1.26,0-1.64-.78-1.64-1.36s.17-.85.44-1.14c.38-.35.85-.46,1.64-.7.56-.17.81-.31,1-.46.17-.13.29-.32.29-.5v-.36c0-.96-.24-1.36-.77-1.36-.21,0-.45.04-.67.26-.18.15-.23.4-.23.72,0,.35-.32.62-.99.62-.4,0-.5-.15-.5-.41,0-.6.99-1.54,2.56-1.54,1.88,0,1.91.91,1.9,1.91l-.03,2.68Zm-1.28-1.81c-.13.19-.31.29-1.03.56-.68.27-.94.69-.94,1.35s.46,1.05.81,1.05c.67,0,1.14-.51,1.14-1.12v-1.85Z"/>
      <path class="cls-1" d="m291.18,4.79c-.13.01-.17,0-.18-.14-.01-.14.01-.17.15-.19.53-.1,1.45-.36,2.03-.56.08,0,.15.05.15.1-.03.36-.03.76-.03,1.09.45-.77,1.17-1.22,1.99-1.22.38,0,1.87.21,1.87,1.83,0,.47-.01,1.12-.01,1.42v.88c0,.77.01,1.17.1,1.36.09.19.29.21.67.24.08.01.1.04.1.15s-.01.14-.1.14c-.47-.01-.96-.04-1.4-.04s-.97.03-1.46.04c-.09,0-.1-.03-.1-.14,0-.13.03-.15.1-.15.35-.03.55-.04.65-.24s.1-.62.1-1.36v-1.74c0-.37.03-.7-.15-1.1-.17-.38-.44-.64-.94-.64-.46,0-.91.32-1.15.73-.23.38-.27.62-.27,1.03v1.73c0,.77-.01,1.17.08,1.36.1.21.31.21.71.24.09.01.12.03.12.15s-.03.14-.12.14c-.45-.01-.95-.04-1.37-.04-.46,0-.99.03-1.47.04-.08,0-.09-.03-.09-.14,0-.13.03-.14.09-.15.37-.04.58-.04.68-.24s.09-.62.09-1.36v-1.9c0-.47,0-.85-.09-1.08-.08-.22-.18-.28-.4-.27l-.35.03Z"/>
      <path class="cls-1" d="m303.17,2.24c0-.49.01-.85-.05-1.1-.05-.21-.24-.27-.46-.26l-.31.03c-.15.01-.18.01-.19-.14-.01-.15.03-.17.15-.19.54-.12,1.54-.37,2.1-.58.06.01.15.06.15.13-.05.88-.08,1.87-.08,3.11v4.81c0,.76-.01,1.1.09,1.33.09.19.23.19.4.21h.29c.09.01.12.04.12.15,0,.13-.03.15-.12.17-.51.03-1.42.12-2,.22-.09,0-.13-.04-.13-.15.01-.31.03-.55.03-.87-.42.7-1.05,1.03-1.68,1.03-1.76,0-2.77-1.27-2.77-3.08s1.13-3.19,2.94-3.19c.64,0,1.14.27,1.51.65v-2.27Zm0,3.9c0-.44,0-.68-.24-1.13-.22-.4-.63-.73-1.1-.73-1,0-1.59,1.1-1.59,2.72s.64,2.51,1.58,2.51c.44,0,.78-.24,1.1-.68.24-.35.26-.59.26-1.04v-1.65Z"/>
      <path class="cls-1" d="m314.91,8.46c-.01.82.17,1.13.46,1.13.15,0,.23-.01.37-.09.05-.03.12-.03.17.06.05.09.05.13-.04.19-.22.17-.59.29-1.09.29-.55,0-.92-.27-1.09-.69-.46.46-.91.76-1.79.76-1.26,0-1.64-.78-1.64-1.36s.17-.85.44-1.14c.38-.35.85-.46,1.64-.7.56-.17.81-.31,1-.46.17-.13.29-.32.29-.5v-.36c0-.96-.24-1.36-.77-1.36-.21,0-.45.04-.67.26-.18.15-.23.4-.23.72,0,.35-.32.62-.99.62-.4,0-.5-.15-.5-.41,0-.6.99-1.54,2.56-1.54,1.88,0,1.91.91,1.9,1.91l-.03,2.68Zm-1.28-1.81c-.13.19-.31.29-1.03.56-.68.27-.94.69-.94,1.35s.46,1.05.81,1.05c.67,0,1.14-.51,1.14-1.12v-1.85Z"/>
      <path class="cls-1" d="m316.4,4.79c-.13.01-.17,0-.18-.14-.01-.14.01-.17.15-.19.53-.1,1.45-.36,2.03-.56.08,0,.15.05.15.1-.03.36-.03.76-.03,1.09.45-.77,1.17-1.22,1.99-1.22.38,0,1.87.21,1.87,1.83,0,.47-.01,1.12-.01,1.42v.88c0,.77.01,1.17.1,1.36.09.19.29.21.67.24.08.01.1.04.1.15s-.01.14-.1.14c-.47-.01-.96-.04-1.4-.04s-.97.03-1.46.04c-.09,0-.1-.03-.1-.14,0-.13.03-.15.1-.15.35-.03.55-.04.65-.24s.1-.62.1-1.36v-1.74c0-.37.03-.7-.15-1.1-.17-.38-.44-.64-.94-.64-.46,0-.91.32-1.15.73-.23.38-.27.62-.27,1.03v1.73c0,.77-.01,1.17.08,1.36.1.21.31.21.71.24.09.01.12.03.12.15s-.03.14-.12.14c-.45-.01-.95-.04-1.37-.04-.46,0-.99.03-1.47.04-.08,0-.09-.03-.09-.14,0-.13.03-.14.09-.15.37-.04.58-.04.68-.24s.09-.62.09-1.36v-1.9c0-.47,0-.85-.09-1.08-.08-.22-.18-.28-.4-.27l-.35.03Z"/>
      <path class="cls-1" d="m334.21,7c0,1.72-1.19,3.11-3,3.11s-2.99-1.35-2.99-3.09,1.22-3.15,2.99-3.15,3,1.36,3,3.13Zm-4.49,0c0,1.6.47,2.73,1.49,2.73s1.5-1.22,1.5-2.73c0-1.63-.47-2.74-1.5-2.74s-1.49,1.2-1.49,2.74Z"/>
      <path class="cls-1" d="m337.19,10.74c0,.96.01,1.49.13,1.69.08.17.37.21.76.24.1.01.12.03.12.14,0,.14-.01.17-.12.17-.49-.01-1.08-.03-1.51-.03-.47,0-1.05.01-1.54.03-.08,0-.1-.01-.1-.15,0-.13.03-.14.1-.15.37-.04.63-.06.71-.24.1-.22.13-.73.13-1.69v-4.65c0-.45-.01-.81-.09-1.05-.06-.22-.19-.28-.41-.27l-.37.03c-.09.01-.13,0-.14-.14s.01-.17.12-.19c.55-.12,1.46-.35,2.12-.58.08,0,.14.06.14.12-.01.37-.03.64-.03.9.45-.73,1.18-1.04,1.67-1.04,1.78,0,2.81,1.29,2.81,3.1,0,1.9-1.11,3.15-2.99,3.15-.68,0-1.12-.27-1.49-.64v1.27Zm0-2.88c0,.45.01.76.22,1.12.26.45.62.74,1.15.74.97,0,1.56-1.13,1.56-2.74s-.65-2.49-1.58-2.49c-.44,0-.83.23-1.14.65-.24.36-.22.6-.22,1.03v1.69Z"/>
      <path class="cls-1" d="m344.14,6.97c0,1.69,1.04,2.54,1.83,2.54s1.31-.28,1.78-.92c.04-.05.09-.06.13-.06s.08.03.12.05c.05.04.1.09.1.13,0,.03-.03.08-.06.14-.59.91-1.31,1.27-2.37,1.27-1.77,0-2.96-1.31-2.96-3.08s1.23-3.17,2.97-3.17,2.46,1.49,2.5,2.38c0,.1,0,.13-.06.22-.06.08-.12.06-.19.06-1.29-.04-2.59-.05-3.73-.03-.03.12-.05.24-.05.46Zm2.51-.96c.1-.01.12-.09.12-.21-.04-.72-.35-1.55-1.09-1.55-.69,0-1.23.74-1.42,1.79.9.03,1.5.03,2.4-.04Z"/>
      <path class="cls-1" d="m348.97,4.79c-.13.01-.17,0-.18-.14s.01-.17.15-.19c.53-.1,1.45-.36,2.03-.56.08,0,.15.05.15.1-.03.36-.03.76-.03,1.09.45-.77,1.17-1.22,1.99-1.22.38,0,1.87.21,1.87,1.83,0,.47-.01,1.12-.01,1.42v.88c0,.77.01,1.17.1,1.36s.29.21.67.24c.08.01.1.04.1.15s-.01.14-.1.14c-.47-.01-.96-.04-1.4-.04s-.97.03-1.46.04c-.09,0-.1-.03-.1-.14,0-.13.03-.15.1-.15.35-.03.55-.04.65-.24s.1-.62.1-1.36v-1.74c0-.37.03-.7-.15-1.1-.17-.38-.44-.64-.94-.64-.46,0-.91.32-1.15.73-.23.38-.27.62-.27,1.03v1.73c0,.77-.01,1.17.08,1.36.1.21.31.21.71.24.09.01.12.03.12.15s-.03.14-.12.14c-.45-.01-.95-.04-1.37-.04-.46,0-.99.03-1.47.04-.08,0-.09-.03-.09-.14,0-.13.03-.14.09-.15.37-.04.58-.04.68-.24s.09-.62.09-1.36v-1.9c0-.47,0-.85-.09-1.08-.08-.22-.18-.28-.4-.27l-.35.03Z"/>
      <path class="cls-1" d="m359.91,6.96h-3.06v-1.18h3.06v1.18Z"/>
      <path class="cls-1" d="m361.16,4.81c-.13.01-.15,0-.17-.14-.01-.15.01-.17.14-.19.53-.12,1.42-.36,2.05-.56.08,0,.14.05.14.1-.01.37-.03.76-.03,1.08.41-.78,1.14-1.22,1.81-1.22.73,0,1.54.32,1.83,1.27.47-.82,1.11-1.27,2-1.27.4,0,1.82.21,1.82,1.83,0,.47-.01,1.12-.01,1.42v.88c0,.77,0,1.17.09,1.36.1.19.37.21.72.24.08.01.1.03.1.14,0,.13-.01.15-.1.15-.45,0-.97-.04-1.41-.04s-.99.03-1.49.04c-.1,0-.12-.03-.12-.15s.03-.14.12-.14c.36-.04.56-.04.67-.24s.1-.62.1-1.36v-1.74c0-.37.01-.7-.14-1.1-.14-.38-.41-.64-.9-.64s-.86.32-1.1.73c-.23.37-.27.6-.27,1v1.76c0,.77,0,1.17.09,1.36s.35.21.73.24c.08.01.09.04.09.15s-.01.14-.1.14c-.49-.01-1-.04-1.41-.04-.46,0-.99.03-1.46.04-.1,0-.12-.03-.12-.15,0-.12.03-.14.12-.14.35-.03.55-.04.65-.24s.1-.62.1-1.36v-1.74c0-.37.03-.7-.14-1.1-.15-.4-.44-.64-.91-.64s-.83.32-1.08.73c-.23.38-.28.62-.28,1.03v1.73c0,.77-.01,1.17.08,1.36.09.21.36.21.72.24.08.01.1.04.1.17,0,.12-.03.13-.1.13-.45-.01-.99-.04-1.42-.04s-.96.03-1.44.04c-.09,0-.12-.03-.12-.14s.03-.14.12-.15c.36-.04.56-.04.68-.24s.09-.62.09-1.36v-1.9c0-.46,0-.83-.09-1.06-.08-.22-.21-.29-.45-.27l-.31.03Z"/>
      <path class="cls-1" d="m373.11,6.17c0-.49-.01-.85-.06-1.09-.06-.21-.19-.28-.47-.26l-.33.03c-.13.01-.15.01-.17-.14-.01-.15,0-.17.14-.19.5-.12,1.47-.38,2.08-.59.09,0,.15.05.15.13-.04.94-.05,1.65-.05,2.27v1.68c0,.77,0,1.17.09,1.37.1.19.32.19.73.22.08.01.09.05.09.17,0,.13-.01.15-.09.15-.46-.01-.99-.04-1.42-.04s-1.01.03-1.45.04c-.1,0-.13-.03-.13-.15,0-.12.03-.17.12-.17.37-.03.58-.04.68-.22.13-.22.1-.63.1-1.37v-1.83Zm1.41-4.96c0,.45-.44.87-.85.87-.45,0-.88-.42-.88-.87s.44-.86.88-.86c.41,0,.85.41.85.86Z"/>
      <path class="cls-1" d="m375.98,4.79c-.13.01-.17,0-.18-.14s.01-.17.15-.19c.53-.1,1.45-.36,2.03-.56.08,0,.15.05.15.1-.03.36-.03.76-.03,1.09.45-.77,1.17-1.22,1.99-1.22.38,0,1.87.21,1.87,1.83,0,.47-.01,1.12-.01,1.42v.88c0,.77.01,1.17.1,1.36s.29.21.67.24c.08.01.1.04.1.15s-.01.14-.1.14c-.47-.01-.96-.04-1.4-.04s-.97.03-1.46.04c-.09,0-.1-.03-.1-.14,0-.13.03-.15.1-.15.35-.03.55-.04.65-.24s.1-.62.1-1.36v-1.74c0-.37.03-.7-.15-1.1-.17-.38-.44-.64-.94-.64-.46,0-.91.32-1.15.73-.23.38-.27.62-.27,1.03v1.73c0,.77-.01,1.17.08,1.36.1.21.31.21.71.24.09.01.12.03.12.15s-.03.14-.12.14c-.45-.01-.95-.04-1.37-.04-.46,0-.99.03-1.47.04-.08,0-.09-.03-.09-.14,0-.13.03-.14.09-.15.37-.04.58-.04.68-.24s.09-.62.09-1.36v-1.9c0-.47,0-.85-.09-1.08-.08-.22-.18-.28-.4-.27l-.35.03Z"/>
      <path class="cls-1" d="m387.97,2.24c0-.49.01-.85-.05-1.1-.05-.21-.24-.27-.46-.26l-.31.03c-.15.01-.18.01-.19-.14-.01-.15.03-.17.15-.19.54-.12,1.54-.37,2.1-.58.06.01.15.06.15.13-.05.88-.08,1.87-.08,3.11v4.81c0,.76-.01,1.1.09,1.33.09.19.23.19.4.21h.29c.09.01.12.04.12.15,0,.13-.03.15-.12.17-.51.03-1.42.12-2,.22-.09,0-.13-.04-.13-.15.01-.31.03-.55.03-.87-.42.7-1.05,1.03-1.68,1.03-1.76,0-2.77-1.27-2.77-3.08s1.13-3.19,2.94-3.19c.64,0,1.14.27,1.51.65v-2.27Zm0,3.9c0-.44,0-.68-.24-1.13-.22-.4-.63-.73-1.1-.73-1,0-1.59,1.1-1.59,2.72s.64,2.51,1.58,2.51c.44,0,.78-.24,1.1-.68.24-.35.26-.59.26-1.04v-1.65Z"/>
      <path class="cls-1" d="m392.22,6.97c0,1.69,1.04,2.54,1.83,2.54s1.31-.28,1.78-.92c.04-.05.09-.06.13-.06s.08.03.12.05c.05.04.1.09.1.13,0,.03-.03.08-.06.14-.59.91-1.31,1.27-2.37,1.27-1.77,0-2.96-1.31-2.96-3.08s1.23-3.17,2.97-3.17,2.46,1.49,2.5,2.38c0,.1,0,.13-.06.22-.06.08-.12.06-.19.06-1.29-.04-2.59-.05-3.73-.03-.03.12-.05.24-.05.46Zm2.51-.96c.1-.01.12-.09.12-.21-.04-.72-.35-1.55-1.09-1.55-.69,0-1.23.74-1.42,1.79.9.03,1.5.03,2.4-.04Z"/>
      <path class="cls-1" d="m401.57,2.24c0-.49.01-.85-.05-1.1-.05-.21-.24-.27-.46-.26l-.31.03c-.15.01-.18.01-.19-.14-.01-.15.03-.17.15-.19.54-.12,1.54-.37,2.1-.58.06.01.15.06.15.13-.05.88-.08,1.87-.08,3.11v4.81c0,.76-.01,1.1.09,1.33.09.19.23.19.4.21h.29c.09.01.12.04.12.15,0,.13-.03.15-.12.17-.51.03-1.42.12-2,.22-.09,0-.13-.04-.13-.15.01-.31.03-.55.03-.87-.42.7-1.05,1.03-1.68,1.03-1.76,0-2.77-1.27-2.77-3.08s1.13-3.19,2.94-3.19c.64,0,1.14.27,1.51.65v-2.27Zm0,3.9c0-.44,0-.68-.24-1.13-.22-.4-.63-.73-1.1-.73-1,0-1.59,1.1-1.59,2.72s.64,2.51,1.58,2.51c.44,0,.78-.24,1.1-.68.24-.35.26-.59.26-1.04v-1.65Z"/>
      <path class="cls-1" d="m410.26,7.24c-.94-.44-1.49-.74-1.49-1.85,0-.72.6-1.54,2.03-1.54.32,0,.69.08.92.13.26.05.51.05.85.01.03.45.06,1.06.12,1.49,0,.08-.03.1-.14.12-.13.03-.15-.03-.19-.09-.35-.7-.88-1.29-1.5-1.29-.72,0-1,.38-1,.91,0,.36.28.63.96.91l.45.19c1.12.49,1.76.87,1.76,2.01,0,.88-.67,1.86-2.26,1.86-.72,0-1.29-.14-1.82-.36-.12-.4-.23-.99-.28-1.4,0-.09.01-.1.13-.12.13-.01.14-.01.18.08.42.83,1.13,1.42,1.79,1.42.76,0,1.12-.47,1.12-1.14,0-.55-.44-.78-1.18-1.14l-.44-.21Z"/>
      <path class="cls-1" d="m413.8,4.63c-.12,0-.14-.03-.14-.18,0-.13.01-.17.15-.18.4-.05.85-.28,1.13-.55.26-.22.54-.62.67-.91.04-.1.08-.13.22-.13.15,0,.18.04.18.13-.01.42-.04.91-.04,1.31.58,0,1.28-.01,1.82-.04.05,0,.06.04.05.09l-.14.37c-.01.05-.06.09-.13.09-.47-.03-1.08-.05-1.63-.05l-.03,3.28c0,.72.06,1.08.24,1.32.24.31.54.35.69.35.29,0,.56-.13.82-.35.06-.05.13-.04.21.04.08.08.13.14.03.24-.38.38-.83.67-1.55.67-.6,0-1.03-.13-1.35-.44-.28-.31-.44-.7-.44-1.44,0-.62.01-1.19.03-1.81l.03-1.83h-.82Z"/>
      <path class="cls-1" d="m423.22,8.46c-.01.82.17,1.13.46,1.13.15,0,.23-.01.37-.09.05-.03.12-.03.17.06.05.09.05.13-.04.19-.22.17-.59.29-1.09.29-.55,0-.92-.27-1.09-.69-.46.46-.91.76-1.79.76-1.26,0-1.64-.78-1.64-1.36s.17-.85.44-1.14c.38-.35.85-.46,1.64-.7.56-.17.81-.31,1-.46.17-.13.29-.32.29-.5v-.36c0-.96-.24-1.36-.77-1.36-.21,0-.45.04-.67.26-.18.15-.23.4-.23.72,0,.35-.32.62-.99.62-.4,0-.5-.15-.5-.41,0-.6.99-1.54,2.56-1.54,1.88,0,1.91.91,1.9,1.91l-.03,2.68Zm-1.28-1.81c-.13.19-.31.29-1.03.56-.68.27-.94.69-.94,1.35s.46,1.05.81,1.05c.67,0,1.14-.51,1.14-1.12v-1.85Z"/>
      <path class="cls-1" d="m424.54,4.63c-.12,0-.14-.03-.14-.18,0-.13.01-.17.15-.18.4-.05.85-.28,1.13-.55.26-.22.54-.62.67-.91.04-.1.08-.13.22-.13.15,0,.18.04.18.13-.01.42-.04.91-.04,1.31.58,0,1.28-.01,1.82-.04.05,0,.06.04.05.09l-.14.37c-.01.05-.06.09-.13.09-.47-.03-1.08-.05-1.63-.05l-.03,3.28c0,.72.06,1.08.24,1.32.24.31.54.35.69.35.29,0,.56-.13.82-.35.06-.05.13-.04.21.04.08.08.13.14.03.24-.38.38-.83.67-1.55.67-.6,0-1.03-.13-1.35-.44-.28-.31-.44-.7-.44-1.44,0-.62.01-1.19.03-1.81l.03-1.83h-.82Z"/>
      <path class="cls-1" d="m430.74,6.97c0,1.69,1.04,2.54,1.83,2.54s1.31-.28,1.78-.92c.04-.05.09-.06.13-.06s.08.03.12.05c.05.04.1.09.1.13,0,.03-.03.08-.06.14-.59.91-1.31,1.27-2.37,1.27-1.77,0-2.96-1.31-2.96-3.08s1.23-3.17,2.97-3.17,2.46,1.49,2.5,2.38c0,.1,0,.13-.06.22-.06.08-.12.06-.19.06-1.29-.04-2.59-.05-3.73-.03-.03.12-.05.24-.05.46Zm2.51-.96c.1-.01.12-.09.12-.21-.04-.72-.35-1.55-1.09-1.55-.69,0-1.23.74-1.42,1.79.9.03,1.5.03,2.4-.04Z"/>
      <path class="cls-1" d="m445.89,7c0,1.72-1.19,3.11-3,3.11s-2.99-1.35-2.99-3.09,1.22-3.15,2.99-3.15,3,1.36,3,3.13Zm-4.49,0c0,1.6.47,2.73,1.49,2.73s1.5-1.22,1.5-2.73c0-1.63-.47-2.74-1.5-2.74s-1.49,1.2-1.49,2.74Z"/>
      <path class="cls-1" d="m449.06,7.99c0,.79.01,1.18.1,1.36s.46.22.85.26c.06.01.1.04.1.15s-.04.15-.1.15c-.51-.01-1.15-.04-1.58-.04-.45,0-1.08.03-1.55.04-.1,0-.13-.04-.13-.15s.03-.14.13-.15c.35-.03.67-.06.76-.26.12-.22.12-.59.12-1.36v-1.86c0-.56,0-1.06-.01-1.5-.31,0-.64.01-1.08.04-.05,0-.08-.03-.08-.09l.1-.37c.01-.05.06-.08.13-.08.35.01.63.01.92.01,0-.26-.01-.49-.01-.65,0-1.15.51-1.97,1.06-2.56.53-.58,1.18-.88,1.97-.88.46,0,.76.1.76.41,0,.6-.32.99-.58.99-.28,0-.37-.13-.54-.32-.21-.23-.37-.41-.54-.38-.4.06-.62.44-.72,1.35-.08.63-.08,1.53-.08,2.05.49,0,1.04-.01,1.56-.04.06,0,.09.03.09.08l-.12.38c-.01.05-.06.09-.1.09-.49-.04-.94-.04-1.45-.04v3.38Z"/>
      <path class="cls-1" d="m455.58,4.81c-.13.01-.15,0-.17-.14-.01-.15.01-.17.14-.19.53-.12,1.42-.36,2.05-.56.08,0,.14.05.14.1-.01.37-.03.76-.03,1.08.41-.78,1.14-1.22,1.81-1.22.73,0,1.54.32,1.83,1.27.47-.82,1.11-1.27,2-1.27.4,0,1.82.21,1.82,1.83,0,.47-.01,1.12-.01,1.42v.88c0,.77,0,1.17.09,1.36.1.19.37.21.72.24.08.01.1.03.1.14,0,.13-.01.15-.1.15-.45,0-.97-.04-1.41-.04s-.99.03-1.49.04c-.1,0-.12-.03-.12-.15s.03-.14.12-.14c.36-.04.56-.04.67-.24s.1-.62.1-1.36v-1.74c0-.37.01-.7-.14-1.1-.14-.38-.41-.64-.9-.64s-.86.32-1.1.73c-.23.37-.27.6-.27,1v1.76c0,.77,0,1.17.09,1.36s.35.21.73.24c.08.01.09.04.09.15s-.01.14-.1.14c-.49-.01-1-.04-1.41-.04-.46,0-.99.03-1.46.04-.1,0-.12-.03-.12-.15,0-.12.03-.14.12-.14.35-.03.55-.04.65-.24s.1-.62.1-1.36v-1.74c0-.37.03-.7-.14-1.1-.15-.4-.44-.64-.91-.64s-.83.32-1.08.73c-.23.38-.28.62-.28,1.03v1.73c0,.77-.01,1.17.08,1.36.09.21.36.21.72.24.08.01.1.04.1.17,0,.12-.03.13-.1.13-.45-.01-.99-.04-1.42-.04s-.96.03-1.44.04c-.09,0-.12-.03-.12-.14s.03-.14.12-.15c.36-.04.56-.04.68-.24s.09-.62.09-1.36v-1.9c0-.46,0-.83-.09-1.06-.08-.22-.21-.29-.45-.27l-.31.03Z"/>
      <path class="cls-1" d="m467.53,6.17c0-.49-.01-.85-.06-1.09-.06-.21-.19-.28-.47-.26l-.33.03c-.13.01-.15.01-.17-.14-.01-.15,0-.17.14-.19.5-.12,1.47-.38,2.08-.59.09,0,.15.05.15.13-.04.94-.05,1.65-.05,2.27v1.68c0,.77,0,1.17.09,1.37.1.19.32.19.73.22.08.01.09.05.09.17,0,.13-.01.15-.09.15-.46-.01-.99-.04-1.42-.04s-1.01.03-1.45.04c-.1,0-.13-.03-.13-.15,0-.12.03-.17.12-.17.37-.03.58-.04.68-.22.13-.22.1-.63.1-1.37v-1.83Zm1.41-4.96c0,.45-.44.87-.85.87-.45,0-.88-.42-.88-.87s.44-.86.88-.86c.41,0,.85.41.85.86Z"/>
      <path class="cls-1" d="m470.4,4.79c-.13.01-.17,0-.18-.14s.01-.17.15-.19c.53-.1,1.45-.36,2.03-.56.08,0,.15.05.15.1-.03.36-.03.76-.03,1.09.45-.77,1.17-1.22,1.99-1.22.38,0,1.87.21,1.87,1.83,0,.47-.01,1.12-.01,1.42v.88c0,.77.01,1.17.1,1.36s.29.21.67.24c.08.01.1.04.1.15s-.01.14-.1.14c-.47-.01-.96-.04-1.4-.04s-.97.03-1.46.04c-.09,0-.1-.03-.1-.14,0-.13.03-.15.1-.15.35-.03.55-.04.65-.24s.1-.62.1-1.36v-1.74c0-.37.03-.7-.15-1.1-.17-.38-.44-.64-.94-.64-.46,0-.91.32-1.15.73-.23.38-.27.62-.27,1.03v1.73c0,.77-.01,1.17.08,1.36.1.21.31.21.71.24.09.01.12.03.12.15s-.03.14-.12.14c-.45-.01-.95-.04-1.37-.04-.46,0-.99.03-1.47.04-.08,0-.09-.03-.09-.14,0-.13.03-.14.09-.15.37-.04.58-.04.68-.24s.09-.62.09-1.36v-1.9c0-.47,0-.85-.09-1.08-.08-.22-.18-.28-.4-.27l-.35.03Z"/>
      <path class="cls-1" d="m482.39,2.24c0-.49.01-.85-.05-1.1-.05-.21-.24-.27-.46-.26l-.31.03c-.15.01-.18.01-.19-.14-.01-.15.03-.17.15-.19.54-.12,1.54-.37,2.1-.58.06.01.15.06.15.13-.05.88-.08,1.87-.08,3.11v4.81c0,.76-.01,1.1.09,1.33.09.19.23.19.4.21h.29c.09.01.12.04.12.15,0,.13-.03.15-.12.17-.51.03-1.42.12-2,.22-.09,0-.13-.04-.13-.15.01-.31.03-.55.03-.87-.42.7-1.05,1.03-1.68,1.03-1.76,0-2.77-1.27-2.77-3.08s1.13-3.19,2.94-3.19c.64,0,1.14.27,1.51.65v-2.27Zm0,3.9c0-.44,0-.68-.24-1.13-.22-.4-.63-.73-1.1-.73-1,0-1.59,1.1-1.59,2.72s.64,2.51,1.58,2.51c.44,0,.78-.24,1.1-.68.24-.35.26-.59.26-1.04v-1.65Z"/>
      <path class="cls-1" d="m485.62,11.61c-.05.05-.14.05-.23-.05-.12-.14-.08-.19-.01-.24.53-.38.81-.77.81-1.14,0-.17-.19-.32-.33-.4-.22-.09-.46-.15-.46-.5,0-.4.42-.9.92-.9.32,0,.82.4.82,1.04,0,.53-.22,1.29-1.51,2.19Z"/>
      <path class="cls-1" d="m1.02,17.59c0-.46-.04-.83-.09-1.05-.05-.23-.22-.31-.42-.29l-.35.03c-.12.01-.14,0-.15-.14-.01-.15.01-.17.13-.19.53-.1,1.49-.36,2.12-.56.09,0,.15.03.15.09-.03.96-.06,1.9-.06,3.15v4.74c0,.78-.01,1.18.09,1.37.1.21.31.22.72.26.08.01.09.04.09.15,0,.13-.03.14-.1.14-.47-.03-.97-.04-1.4-.04-.45,0-.99.01-1.46.04-.12,0-.14-.03-.14-.14s.03-.14.13-.15c.4-.04.55-.05.65-.26.1-.22.1-.62.1-1.37v-5.77Z"/>
      <path class="cls-1" d="m8.54,23.83c-.01.82.17,1.13.46,1.13.15,0,.23-.01.37-.09.05-.03.12-.03.17.06.05.09.05.13-.04.19-.22.17-.59.29-1.09.29-.55,0-.92-.27-1.09-.69-.46.46-.91.76-1.79.76-1.26,0-1.64-.78-1.64-1.36s.17-.85.44-1.14c.38-.35.85-.46,1.64-.7.56-.17.81-.31,1-.46.17-.13.29-.32.29-.5v-.36c0-.96-.24-1.36-.77-1.36-.21,0-.45.04-.67.26-.18.15-.23.4-.23.72,0,.35-.32.62-.99.62-.4,0-.5-.15-.5-.41,0-.6.99-1.54,2.56-1.54,1.88,0,1.91.91,1.9,1.91l-.03,2.68Zm-1.28-1.81c-.13.19-.31.29-1.03.56-.68.27-.94.69-.94,1.35s.46,1.05.81,1.05c.67,0,1.14-.51,1.14-1.12v-1.85Z"/>
      <path class="cls-1" d="m16.52,24.96c.12.01.13.04.13.15,0,.13-.03.14-.12.14-.47.03-1.49.14-1.97.22-.08,0-.15-.08-.15-.15.03-.37.04-.64.04-1-.45.79-1.17,1.17-1.92,1.17-.47,0-1.92-.18-1.92-1.82,0-.49.03-.88.03-1.37v-1.01c0-.47,0-.76-.05-.99-.05-.23-.18-.35-.4-.33h-.33c-.13.01-.15.01-.17-.13s0-.18.13-.19c.58-.08,1.5-.23,2.06-.36.06,0,.15.06.15.13-.04.91-.05,1.67-.05,2.24v1.35c0,.45-.01.91.14,1.23.17.41.51.62.94.62.49,0,.87-.31,1.13-.74.22-.36.27-.6.27-1.01v-1.81c0-.47-.03-.73-.08-.97-.05-.23-.17-.36-.4-.35l-.35.03c-.12.01-.14-.01-.15-.15s0-.17.14-.18c.51-.06,1.5-.26,2.01-.37.06,0,.14.06.14.12-.04.94-.04,1.68-.04,2.26v1.77c0,.83,0,1.04.08,1.27.08.22.23.24.47.26h.24Z"/>
      <path class="cls-1" d="m20.76,24.32c2.23-.03,2.49,1.01,2.49,1.72,0,1.04-.62,2.32-3.35,2.32-1.72,0-2.7-.73-2.7-1.55,0-.7.44-1.14,1.42-1.51-.78-.22-1.01-.55-1.01-.96,0-.53.46-.88,1.4-1.27-.95-.26-1.62-.76-1.62-1.81s.94-2.01,2.36-2.01c.71,0,1.06.15,1.41.31.88,0,1.54-.05,2.06-.1.05,0,.09.04.09.09l-.18.4c-.03.05-.05.09-.1.09-.46-.04-.82-.04-1.35-.04.37.31.59.73.59,1.22,0,1.1-.78,1.96-2.37,1.96-.15,0-.31-.01-.44-.03-.44.26-.65.45-.65.78,0,.31.29.41.77.41h1.18Zm-.82,1.13c-.27,0-.62-.03-.87-.05-.1.08-.18.13-.27.23-.26.33-.35.58-.35,1,0,.78.67,1.35,1.72,1.35,1.21,0,1.91-.6,1.91-1.46,0-.54-.17-1.06-1.63-1.06h-.51Zm-1.18-4.23c0,.97.41,1.61,1.09,1.61s1.06-.63,1.06-1.61-.41-1.61-1.06-1.61c-.71,0-1.09.68-1.09,1.61Z"/>
      <path class="cls-1" d="m25.87,20.45c.45-.76,1.13-1.19,1.94-1.19.46,0,1.92.17,1.92,1.82,0,.7-.03,1.12-.03,1.45v.87c0,.76-.01,1.14.09,1.35.08.21.32.21.71.24.08.01.1.04.1.15,0,.13-.03.14-.12.14-.49-.01-1-.04-1.42-.04-.47,0-.96.03-1.44.04-.1,0-.13-.01-.13-.14s.03-.14.12-.15c.37-.04.58-.04.67-.24.12-.22.09-.62.09-1.35v-1.74c0-.38.03-.68-.12-1.09-.17-.38-.47-.65-.97-.65s-.9.31-1.14.73c-.21.37-.27.6-.27,1.03v1.73c0,.76-.01,1.14.08,1.35.08.18.28.21.71.24.1.01.13.03.13.14,0,.13-.03.15-.13.15-.47-.01-.94-.04-1.36-.04-.46,0-1.03.03-1.52.04-.08,0-.1-.03-.1-.15,0-.1.03-.13.1-.14.4-.04.59-.04.68-.24.1-.22.1-.62.1-1.35v-5.79c0-.46-.01-.81-.05-1.04-.04-.24-.21-.32-.42-.31l-.36.03c-.13.01-.14,0-.15-.15-.01-.14,0-.15.13-.18.54-.1,1.5-.36,2.11-.56.05,0,.13.06.13.1-.04.95-.06,1.88-.06,3.13v1.83Z"/>
      <path class="cls-1" d="m32.05,21.54c0-.49-.01-.85-.06-1.09-.06-.21-.19-.28-.47-.26l-.33.03c-.13.01-.15.01-.17-.14-.01-.15,0-.17.14-.19.5-.12,1.47-.38,2.08-.59.09,0,.15.05.15.13-.04.94-.05,1.65-.05,2.27v1.68c0,.77,0,1.17.09,1.37.1.19.32.19.73.22.08.01.09.05.09.17,0,.13-.01.15-.09.15-.46-.01-.99-.04-1.42-.04s-1.01.03-1.45.04c-.1,0-.13-.03-.13-.15,0-.12.03-.17.12-.17.37-.03.58-.04.68-.22.13-.22.1-.63.1-1.37v-1.83Zm1.41-4.96c0,.45-.44.87-.85.87-.45,0-.88-.42-.88-.87s.44-.86.88-.86c.41,0,.85.41.85.86Z"/>
      <path class="cls-1" d="m34.92,20.17c-.13.01-.17,0-.18-.14-.01-.14.01-.17.15-.19.53-.1,1.45-.36,2.03-.56.08,0,.15.05.15.1-.03.36-.03.76-.03,1.09.45-.77,1.17-1.22,1.99-1.22.38,0,1.87.21,1.87,1.83,0,.47-.01,1.12-.01,1.42v.88c0,.77.01,1.17.1,1.36.09.19.29.21.67.24.08.01.1.04.1.15s-.01.14-.1.14c-.47-.01-.96-.04-1.4-.04s-.97.03-1.46.04c-.09,0-.1-.03-.1-.14,0-.13.03-.15.1-.15.35-.03.55-.04.65-.24s.1-.62.1-1.36v-1.74c0-.37.03-.7-.15-1.1-.17-.38-.44-.64-.94-.64-.46,0-.91.32-1.15.73-.23.38-.27.62-.27,1.03v1.73c0,.77-.01,1.17.08,1.36.1.21.31.21.71.24.09.01.12.03.12.15s-.03.14-.12.14c-.45-.01-.95-.04-1.37-.04-.46,0-.99.03-1.47.04-.08,0-.09-.03-.09-.14,0-.13.03-.14.09-.15.37-.04.58-.04.68-.24s.09-.62.09-1.36v-1.9c0-.47,0-.85-.09-1.08-.08-.22-.18-.28-.4-.27l-.35.03Z"/>
      <path class="cls-1" d="m45.92,24.32c2.23-.03,2.49,1.01,2.49,1.72,0,1.04-.62,2.32-3.35,2.32-1.72,0-2.7-.73-2.7-1.55,0-.7.44-1.14,1.42-1.51-.78-.22-1.01-.55-1.01-.96,0-.53.46-.88,1.4-1.27-.95-.26-1.62-.76-1.62-1.81s.94-2.01,2.36-2.01c.71,0,1.06.15,1.41.31.88,0,1.54-.05,2.06-.1.05,0,.09.04.09.09l-.18.4c-.03.05-.05.09-.1.09-.46-.04-.82-.04-1.35-.04.37.31.59.73.59,1.22,0,1.1-.78,1.96-2.37,1.96-.15,0-.31-.01-.44-.03-.44.26-.65.45-.65.78,0,.31.29.41.77.41h1.18Zm-.82,1.13c-.27,0-.62-.03-.87-.05-.1.08-.18.13-.27.23-.26.33-.35.58-.35,1,0,.78.67,1.35,1.72,1.35,1.21,0,1.91-.6,1.91-1.46,0-.54-.17-1.06-1.63-1.06h-.51Zm-1.18-4.23c0,.97.41,1.61,1.09,1.61s1.06-.63,1.06-1.61-.41-1.61-1.06-1.61c-.71,0-1.09.68-1.09,1.61Z"/>
      <path class="cls-1" d="m58.02,23.83c-.01.82.17,1.13.46,1.13.15,0,.23-.01.37-.09.05-.03.12-.03.17.06.05.09.05.13-.04.19-.22.17-.59.29-1.09.29-.55,0-.92-.27-1.09-.69-.46.46-.91.76-1.79.76-1.26,0-1.64-.78-1.64-1.36s.17-.85.44-1.14c.38-.35.85-.46,1.64-.7.56-.17.81-.31,1-.46.17-.13.29-.32.29-.5v-.36c0-.96-.24-1.36-.77-1.36-.21,0-.45.04-.67.26-.18.15-.23.4-.23.72,0,.35-.32.62-.99.62-.4,0-.5-.15-.5-.41,0-.6.99-1.54,2.56-1.54,1.88,0,1.91.91,1.9,1.91l-.03,2.68Zm-1.28-1.81c-.13.19-.31.29-1.03.56-.68.27-.94.69-.94,1.35s.46,1.05.81,1.05c.67,0,1.14-.51,1.14-1.12v-1.85Z"/>
      <path class="cls-1" d="m59.51,20.17c-.13.01-.17,0-.18-.14-.01-.14.01-.17.15-.19.53-.1,1.45-.36,2.03-.56.08,0,.15.05.15.1-.03.36-.03.76-.03,1.09.45-.77,1.17-1.22,1.99-1.22.38,0,1.87.21,1.87,1.83,0,.47-.01,1.12-.01,1.42v.88c0,.77.01,1.17.1,1.36.09.19.29.21.67.24.08.01.1.04.1.15s-.01.14-.1.14c-.47-.01-.96-.04-1.4-.04s-.97.03-1.46.04c-.09,0-.1-.03-.1-.14,0-.13.03-.15.1-.15.35-.03.55-.04.65-.24s.1-.62.1-1.36v-1.74c0-.37.03-.7-.15-1.1-.17-.38-.44-.64-.94-.64-.46,0-.91.32-1.15.73-.23.38-.27.62-.27,1.03v1.73c0,.77-.01,1.17.08,1.36.1.21.31.21.71.24.09.01.12.03.12.15s-.03.14-.12.14c-.45-.01-.95-.04-1.37-.04-.46,0-.99.03-1.47.04-.08,0-.09-.03-.09-.14,0-.13.03-.14.09-.15.37-.04.58-.04.68-.24s.09-.62.09-1.36v-1.9c0-.47,0-.85-.09-1.08-.08-.22-.18-.28-.4-.27l-.35.03Z"/>
      <path class="cls-1" d="m71.51,17.62c0-.49.01-.85-.05-1.1-.05-.21-.24-.27-.46-.26l-.31.03c-.15.01-.18.01-.19-.14-.01-.15.03-.17.15-.19.54-.12,1.54-.37,2.1-.58.06.01.15.06.15.13-.05.88-.08,1.87-.08,3.11v4.81c0,.76-.01,1.1.09,1.33.09.19.23.19.4.21h.29c.09.01.12.04.12.15,0,.13-.03.15-.12.17-.51.03-1.42.12-2,.22-.09,0-.13-.04-.13-.15.01-.31.03-.55.03-.87-.42.7-1.05,1.03-1.68,1.03-1.76,0-2.77-1.27-2.77-3.08s1.13-3.19,2.94-3.19c.64,0,1.14.27,1.51.65v-2.27Zm0,3.9c0-.44,0-.68-.24-1.13-.22-.4-.63-.73-1.1-.73-1,0-1.59,1.1-1.59,2.72s.64,2.51,1.58,2.51c.44,0,.78-.24,1.1-.68.24-.35.26-.59.26-1.04v-1.65Z"/>
      <path class="cls-1" d="m78.34,20c-.12,0-.14-.03-.14-.18,0-.13.01-.17.15-.18.4-.05.85-.28,1.13-.55.26-.22.54-.62.67-.91.04-.1.08-.13.22-.13.15,0,.18.04.18.13-.01.42-.04.91-.04,1.31.58,0,1.28-.01,1.82-.04.05,0,.06.04.05.09l-.14.37c-.01.05-.06.09-.13.09-.47-.03-1.08-.05-1.63-.05l-.03,3.28c0,.72.06,1.08.24,1.32.24.31.54.35.69.35.29,0,.56-.13.82-.35.06-.05.13-.04.21.04.08.08.13.14.03.24-.38.38-.83.67-1.55.67-.6,0-1.03-.13-1.35-.44-.28-.31-.44-.7-.44-1.44,0-.62.01-1.19.03-1.81l.03-1.83h-.82Z"/>
      <path class="cls-1" d="m87.75,23.83c-.01.82.17,1.13.46,1.13.15,0,.23-.01.37-.09.05-.03.12-.03.17.06.05.09.05.13-.04.19-.22.17-.59.29-1.09.29-.55,0-.92-.27-1.09-.69-.46.46-.91.76-1.79.76-1.26,0-1.64-.78-1.64-1.36s.17-.85.44-1.14c.38-.35.85-.46,1.64-.7.56-.17.81-.31,1-.46.17-.13.29-.32.29-.5v-.36c0-.96-.24-1.36-.77-1.36-.21,0-.45.04-.67.26-.18.15-.23.4-.23.72,0,.35-.32.62-.99.62-.4,0-.5-.15-.5-.41,0-.6.99-1.54,2.56-1.54,1.88,0,1.91.91,1.9,1.91l-.03,2.68Zm-1.28-1.81c-.13.19-.31.29-1.03.56-.68.27-.94.69-.94,1.35s.46,1.05.81,1.05c.67,0,1.14-.51,1.14-1.12v-1.85Z"/>
      <path class="cls-1" d="m89.92,17.59c0-.46-.04-.83-.09-1.05-.05-.23-.22-.31-.42-.29l-.35.03c-.12.01-.14,0-.15-.14-.01-.15.01-.17.13-.19.53-.1,1.49-.36,2.12-.56.09,0,.15.03.15.09-.03.96-.06,1.9-.06,3.15v4.74c0,.78-.01,1.18.09,1.37.1.21.31.22.72.26.08.01.09.04.09.15,0,.13-.03.14-.1.14-.47-.03-.97-.04-1.4-.04-.45,0-.99.01-1.46.04-.12,0-.14-.03-.14-.14s.03-.14.13-.15c.4-.04.55-.05.65-.26.1-.22.1-.62.1-1.37v-5.77Z"/>
      <path class="cls-1" d="m94.71,22.15c.23-.21.41-.38.68-.65l.67-.69c.4-.42.56-.65.5-.85-.05-.15-.31-.17-.56-.18-.08,0-.1-.01-.1-.17,0-.12.03-.14.1-.14.41.01.88.01,1.28.01s.82-.03,1.18-.04c.08,0,.1.03.1.15,0,.14-.03.17-.09.17-.29.03-.53.13-.79.26-.24.12-.49.27-1.03.78l-.58.54c-.12.12-.13.13-.24.23.62.88,1.33,1.88,1.94,2.67.21.26.33.45.55.6.18.12.32.12.6.14.09.01.1.03.1.15,0,.12-.01.14-.13.14-.32,0-.73-.04-1.03-.04-.33,0-.72,0-1.04.01-.13-.23-.23-.4-.36-.6-.59-.87-.95-1.42-1.54-2.24l-.22.19v.79c0,.76,0,1.13.09,1.35.08.19.29.21.69.24.09.01.12.04.12.15s-.03.14-.12.14c-.49-.03-.94-.04-1.37-.04s-1.01.01-1.47.04c-.1,0-.13-.03-.13-.14s.03-.14.12-.15c.37-.04.58-.04.67-.24.1-.22.09-.6.09-1.33v-5.81c0-.46-.01-.86-.08-1.09-.06-.21-.22-.28-.42-.27l-.29.03c-.14.01-.17,0-.18-.14-.01-.14,0-.17.14-.19.53-.09,1.44-.35,2.08-.56.08,0,.15.04.15.1-.04.95-.08,1.92-.08,3.14v3.54Z"/>
      <path class="cls-1" d="m100.15,21.54c0-.49-.01-.85-.06-1.09-.06-.21-.19-.28-.47-.26l-.33.03c-.13.01-.15.01-.17-.14-.01-.15,0-.17.14-.19.5-.12,1.47-.38,2.08-.59.09,0,.15.05.15.13-.04.94-.05,1.65-.05,2.27v1.68c0,.77,0,1.17.09,1.37.1.19.32.19.73.22.08.01.09.05.09.17,0,.13-.01.15-.09.15-.46-.01-.99-.04-1.42-.04s-1.01.03-1.45.04c-.1,0-.13-.03-.13-.15,0-.12.03-.17.12-.17.37-.03.58-.04.68-.22.13-.22.1-.63.1-1.37v-1.83Zm1.41-4.96c0,.45-.44.87-.85.87-.45,0-.88-.42-.88-.87s.44-.86.88-.86c.41,0,.85.41.85.86Z"/>
      <path class="cls-1" d="m103.02,20.17c-.13.01-.17,0-.18-.14s.01-.17.15-.19c.53-.1,1.45-.36,2.03-.56.08,0,.15.05.15.1-.03.36-.03.76-.03,1.09.45-.77,1.17-1.22,1.99-1.22.38,0,1.87.21,1.87,1.83,0,.47-.01,1.12-.01,1.42v.88c0,.77.01,1.17.1,1.36s.29.21.67.24c.08.01.1.04.1.15s-.01.14-.1.14c-.47-.01-.96-.04-1.4-.04s-.97.03-1.46.04c-.09,0-.1-.03-.1-.14,0-.13.03-.15.1-.15.35-.03.55-.04.65-.24s.1-.62.1-1.36v-1.74c0-.37.03-.7-.15-1.1-.17-.38-.44-.64-.94-.64-.46,0-.91.32-1.15.73-.23.38-.27.62-.27,1.03v1.73c0,.77-.01,1.17.08,1.36.1.21.31.21.71.24.09.01.12.03.12.15s-.03.14-.12.14c-.45-.01-.95-.04-1.37-.04-.46,0-.99.03-1.47.04-.08,0-.09-.03-.09-.14,0-.13.03-.14.09-.15.37-.04.58-.04.68-.24s.09-.62.09-1.36v-1.9c0-.47,0-.85-.09-1.08-.08-.22-.18-.28-.4-.27l-.35.03Z"/>
      <path class="cls-1" d="m114.03,24.32c2.23-.03,2.49,1.01,2.49,1.72,0,1.04-.62,2.32-3.35,2.32-1.72,0-2.7-.73-2.7-1.55,0-.7.44-1.14,1.42-1.51-.78-.22-1.01-.55-1.01-.96,0-.53.46-.88,1.4-1.27-.95-.26-1.62-.76-1.62-1.81s.94-2.01,2.36-2.01c.71,0,1.06.15,1.41.31.88,0,1.54-.05,2.06-.1.05,0,.09.04.09.09l-.18.4c-.03.05-.05.09-.1.09-.46-.04-.82-.04-1.35-.04.37.31.59.73.59,1.22,0,1.1-.78,1.96-2.37,1.96-.15,0-.31-.01-.44-.03-.44.26-.65.45-.65.78,0,.31.29.41.77.41h1.18Zm-.82,1.13c-.27,0-.62-.03-.87-.05-.1.08-.18.13-.27.23-.26.33-.35.58-.35,1,0,.78.67,1.35,1.72,1.35,1.21,0,1.91-.6,1.91-1.46,0-.54-.17-1.06-1.63-1.06h-.51Zm-1.18-4.23c0,.97.41,1.61,1.09,1.61s1.06-.63,1.06-1.61-.41-1.61-1.06-1.61c-.71,0-1.09.68-1.09,1.61Z"/>
      <path class="cls-1" d="m126.13,23.83c-.01.82.17,1.13.46,1.13.15,0,.23-.01.37-.09.05-.03.12-.03.17.06.05.09.05.13-.04.19-.22.17-.59.29-1.09.29-.55,0-.92-.27-1.09-.69-.46.46-.91.76-1.79.76-1.26,0-1.64-.78-1.64-1.36s.17-.85.44-1.14c.38-.35.85-.46,1.64-.7.56-.17.81-.31,1-.46.17-.13.29-.32.29-.5v-.36c0-.96-.24-1.36-.77-1.36-.21,0-.45.04-.67.26-.18.15-.23.4-.23.72,0,.35-.32.62-.99.62-.4,0-.5-.15-.5-.41,0-.6.99-1.54,2.56-1.54,1.88,0,1.91.91,1.9,1.91l-.03,2.68Zm-1.28-1.81c-.13.19-.31.29-1.03.56-.68.27-.94.69-.94,1.35s.46,1.05.81,1.05c.67,0,1.14-.51,1.14-1.12v-1.85Z"/>
      <path class="cls-1" d="m129.47,20.24c.42-.7,1.14-1.03,1.71-1.03,1.65,0,2.77,1.27,2.77,3.1s-1.1,3.17-2.94,3.17c-.92,0-1.28-.38-1.69-.72-.09-.06-.22-.06-.29,0l-.56.5c-.09.06-.12.08-.26.08s-.17-.03-.15-.12c.06-.92.1-1.61.1-2.83v-4.77c0-.49-.01-.83-.06-1.1-.05-.22-.21-.27-.42-.26l-.32.03c-.13.01-.15,0-.17-.15-.01-.14.01-.15.12-.19.55-.1,1.47-.33,2.1-.55.08,0,.14.05.14.1-.04.88-.06,1.88-.06,3.14v1.6Zm0,2.91c0,.46-.01.77.19,1.13.27.46.63.78,1.17.78.95,0,1.58-1.12,1.58-2.73s-.71-2.49-1.58-2.49c-.49,0-.86.26-1.14.65-.23.35-.22.59-.22,1v1.65Z"/>
      <path class="cls-1" d="m140.98,22.37c0,1.72-1.19,3.11-3,3.11s-2.99-1.35-2.99-3.09,1.22-3.15,2.99-3.15,3,1.36,3,3.13Zm-4.49,0c0,1.6.47,2.73,1.49,2.73s1.5-1.22,1.5-2.73c0-1.63-.47-2.74-1.5-2.74s-1.49,1.2-1.49,2.74Z"/>
      <path class="cls-1" d="m148.43,24.96c.12.01.13.04.13.15,0,.13-.03.14-.12.14-.47.03-1.49.14-1.97.22-.08,0-.15-.08-.15-.15.03-.37.04-.64.04-1-.45.79-1.17,1.17-1.92,1.17-.47,0-1.92-.18-1.92-1.82,0-.49.03-.88.03-1.37v-1.01c0-.47,0-.76-.05-.99-.05-.23-.18-.35-.4-.33h-.33c-.13.01-.15.01-.17-.13s0-.18.13-.19c.58-.08,1.5-.23,2.06-.36.06,0,.15.06.15.13-.04.91-.05,1.67-.05,2.24v1.35c0,.45-.01.91.14,1.23.17.41.51.62.94.62.49,0,.87-.31,1.13-.74.22-.36.27-.6.27-1.01v-1.81c0-.47-.03-.73-.08-.97-.05-.23-.17-.36-.4-.35l-.35.03c-.12.01-.14-.01-.15-.15s0-.17.14-.18c.51-.06,1.5-.26,2.01-.37.06,0,.14.06.14.12-.04.94-.04,1.68-.04,2.26v1.77c0,.83,0,1.04.08,1.27.08.22.23.24.47.26h.24Z"/>
      <path class="cls-1" d="m148.97,20c-.12,0-.14-.03-.14-.18,0-.13.01-.17.15-.18.4-.05.85-.28,1.13-.55.26-.22.54-.62.67-.91.04-.1.08-.13.22-.13.15,0,.18.04.18.13-.01.42-.04.91-.04,1.31.58,0,1.28-.01,1.82-.04.05,0,.06.04.05.09l-.14.37c-.01.05-.06.09-.13.09-.47-.03-1.08-.05-1.63-.05l-.03,3.28c0,.72.06,1.08.24,1.32.24.31.54.35.69.35.29,0,.56-.13.82-.35.06-.05.13-.04.21.04.08.08.13.14.03.24-.38.38-.83.67-1.55.67-.6,0-1.03-.13-1.35-.44-.28-.31-.44-.7-.44-1.44,0-.62.01-1.19.03-1.81l.03-1.83h-.82Z"/>
      <path class="cls-1" d="m157.74,20c-.12,0-.14-.03-.14-.18,0-.13.01-.17.15-.18.4-.05.85-.28,1.13-.55.26-.22.54-.62.67-.91.04-.1.08-.13.22-.13.15,0,.18.04.18.13-.01.42-.04.91-.04,1.31.58,0,1.28-.01,1.82-.04.05,0,.06.04.05.09l-.14.37c-.01.05-.06.09-.13.09-.47-.03-1.08-.05-1.63-.05l-.03,3.28c0,.72.06,1.08.24,1.32.24.31.54.35.69.35.29,0,.56-.13.82-.35.06-.05.13-.04.21.04.08.08.13.14.03.24-.38.38-.83.67-1.55.67-.6,0-1.03-.13-1.35-.44-.28-.31-.44-.7-.44-1.44,0-.62.01-1.19.03-1.81l.03-1.83h-.82Z"/>
      <path class="cls-1" d="m164.45,20.45c.45-.76,1.13-1.19,1.94-1.19.46,0,1.92.17,1.92,1.82,0,.7-.03,1.12-.03,1.45v.87c0,.76-.01,1.14.09,1.35.08.21.32.21.71.24.08.01.1.04.1.15,0,.13-.03.14-.12.14-.49-.01-1-.04-1.42-.04-.47,0-.96.03-1.44.04-.1,0-.13-.01-.13-.14s.03-.14.12-.15c.37-.04.58-.04.67-.24.12-.22.09-.62.09-1.35v-1.74c0-.38.03-.68-.12-1.09-.17-.38-.47-.65-.97-.65s-.9.31-1.14.73c-.21.37-.27.6-.27,1.03v1.73c0,.76-.01,1.14.08,1.35.08.18.28.21.71.24.1.01.13.03.13.14,0,.13-.03.15-.13.15-.47-.01-.94-.04-1.36-.04-.46,0-1.03.03-1.52.04-.08,0-.1-.03-.1-.15,0-.1.03-.13.1-.14.4-.04.59-.04.68-.24.1-.22.1-.62.1-1.35v-5.79c0-.46-.01-.81-.05-1.04-.04-.24-.21-.32-.42-.31l-.36.03c-.13.01-.14,0-.15-.15-.01-.14,0-.15.13-.18.54-.1,1.5-.36,2.11-.56.05,0,.13.06.13.1-.04.95-.06,1.88-.06,3.13v1.83Z"/>
      <path class="cls-1" d="m171.29,22.35c0,1.69,1.04,2.54,1.83,2.54s1.31-.28,1.78-.92c.04-.05.09-.06.13-.06s.08.03.12.05c.05.04.1.09.1.13,0,.03-.03.08-.06.14-.59.91-1.31,1.27-2.37,1.27-1.77,0-2.96-1.31-2.96-3.08s1.23-3.17,2.97-3.17,2.46,1.49,2.5,2.38c0,.1,0,.13-.06.22-.06.08-.12.06-.19.06-1.29-.04-2.59-.05-3.73-.03-.03.12-.05.24-.05.46Zm2.51-.96c.1-.01.12-.09.12-.21-.04-.72-.35-1.55-1.09-1.55-.69,0-1.23.74-1.42,1.79.9.03,1.5.03,2.4-.04Z"/>
      <path class="cls-1" d="m182.23,20.24c.42-.7,1.14-1.03,1.71-1.03,1.65,0,2.77,1.27,2.77,3.1s-1.1,3.17-2.94,3.17c-.92,0-1.28-.38-1.69-.72-.09-.06-.22-.06-.29,0l-.56.5c-.09.06-.12.08-.26.08s-.17-.03-.15-.12c.06-.92.1-1.61.1-2.83v-4.77c0-.49-.01-.83-.06-1.1-.05-.22-.21-.27-.42-.26l-.32.03c-.13.01-.15,0-.17-.15-.01-.14.01-.15.12-.19.55-.1,1.47-.33,2.1-.55.08,0,.14.05.14.1-.04.88-.06,1.88-.06,3.14v1.6Zm0,2.91c0,.46-.01.77.19,1.13.27.46.63.78,1.17.78.95,0,1.58-1.12,1.58-2.73s-.71-2.49-1.58-2.49c-.49,0-.86.26-1.14.65-.23.35-.22.59-.22,1v1.65Z"/>
      <path class="cls-1" d="m189.18,22.35c0,1.69,1.04,2.54,1.83,2.54s1.31-.28,1.78-.92c.04-.05.09-.06.13-.06s.08.03.12.05c.05.04.1.09.1.13,0,.03-.03.08-.06.14-.59.91-1.31,1.27-2.37,1.27-1.77,0-2.96-1.31-2.96-3.08s1.23-3.17,2.97-3.17,2.46,1.49,2.5,2.38c0,.1,0,.13-.06.22-.06.08-.12.06-.19.06-1.29-.04-2.59-.05-3.73-.03-.03.12-.05.24-.05.46Zm2.51-.96c.1-.01.12-.09.12-.21-.04-.72-.35-1.55-1.09-1.55-.69,0-1.23.74-1.42,1.79.9.03,1.5.03,2.4-.04Z"/>
      <path class="cls-1" d="m198.74,23.83c-.01.82.17,1.13.46,1.13.15,0,.23-.01.37-.09.05-.03.12-.03.17.06.05.09.05.13-.04.19-.22.17-.59.29-1.09.29-.55,0-.92-.27-1.09-.69-.46.46-.91.76-1.79.76-1.26,0-1.64-.78-1.64-1.36s.17-.85.44-1.14c.38-.35.85-.46,1.64-.7.56-.17.81-.31,1-.46.17-.13.29-.32.29-.5v-.36c0-.96-.24-1.36-.77-1.36-.21,0-.45.04-.67.26-.18.15-.23.4-.23.72,0,.35-.32.62-.99.62-.4,0-.5-.15-.5-.41,0-.6.99-1.54,2.56-1.54,1.88,0,1.91.91,1.9,1.91l-.03,2.68Zm-1.28-1.81c-.13.19-.31.29-1.03.56-.68.27-.94.69-.94,1.35s.46,1.05.81,1.05c.67,0,1.14-.51,1.14-1.12v-1.85Z"/>
      <path class="cls-1" d="m206.73,24.96c.12.01.13.04.13.15,0,.13-.03.14-.12.14-.47.03-1.49.14-1.97.22-.08,0-.15-.08-.15-.15.03-.37.04-.64.04-1-.45.79-1.17,1.17-1.92,1.17-.47,0-1.92-.18-1.92-1.82,0-.49.03-.88.03-1.37v-1.01c0-.47,0-.76-.05-.99-.05-.23-.18-.35-.4-.33h-.33c-.13.01-.15.01-.17-.13s0-.18.13-.19c.58-.08,1.5-.23,2.06-.36.06,0,.15.06.15.13-.04.91-.05,1.67-.05,2.24v1.35c0,.45-.01.91.14,1.23.17.41.51.62.94.62.49,0,.87-.31,1.13-.74.22-.36.27-.6.27-1.01v-1.81c0-.47-.03-.73-.08-.97-.05-.23-.17-.36-.4-.35l-.35.03c-.12.01-.14-.01-.15-.15s0-.17.14-.18c.51-.06,1.5-.26,2.01-.37.06,0,.14.06.14.12-.04.94-.04,1.68-.04,2.26v1.77c0,.83,0,1.04.08,1.27.08.22.23.24.47.26h.24Z"/>
      <path class="cls-1" d="m207.26,20c-.12,0-.14-.03-.14-.18,0-.13.01-.17.15-.18.4-.05.85-.28,1.13-.55.26-.22.54-.62.67-.91.04-.1.08-.13.22-.13.15,0,.18.04.18.13-.01.42-.04.91-.04,1.31.58,0,1.28-.01,1.82-.04.05,0,.06.04.05.09l-.14.37c-.01.05-.06.09-.13.09-.47-.03-1.08-.05-1.63-.05l-.03,3.28c0,.72.06,1.08.24,1.32.24.31.54.35.69.35.29,0,.56-.13.82-.35.06-.05.13-.04.21.04.08.08.13.14.03.24-.38.38-.83.67-1.55.67-.6,0-1.03-.13-1.35-.44-.28-.31-.44-.7-.44-1.44,0-.62.01-1.19.03-1.81l.03-1.83h-.82Z"/>
      <path class="cls-1" d="m215.64,23.69c-.31.78-.56,1.45-.83,2.03-.73,1.58-1.46,2.64-2.67,2.64-.44,0-.55-.13-.55-.35,0-.42.37-.94.79-.94.29,0,.41.17.64.17.15,0,.33-.05.5-.26.27-.32.47-.6.92-1.54-.26-.58-.45-1.01-.73-1.72l-.97-2.44c-.32-.74-.44-1.04-.62-1.26-.14-.18-.29-.24-.68-.27-.06,0-.1-.01-.1-.17,0-.13.03-.15.1-.15.49.03,1.06.04,1.49.04.45,0,1.05-.01,1.54-.04.08,0,.12.03.12.15,0,.15-.04.17-.1.17-.35.03-.62.08-.69.23-.09.18.05.59.35,1.29l.67,1.72c.17.42.22.6.29.86.1-.23.17-.44.35-.9l.63-1.69c.24-.67.26-1.04.13-1.24-.12-.19-.29-.24-.63-.27-.09-.01-.12-.04-.12-.17s.03-.15.13-.15c.35.01.83.04,1.18.04.37,0,.73-.01,1.09-.04.09,0,.12.01.12.15s-.03.15-.12.17c-.21.03-.38.08-.56.26-.23.19-.44.54-.72,1.26l-.94,2.41Z"/>
      <path class="cls-1" d="m228.66,22.37c0,1.72-1.19,3.11-3,3.11s-2.99-1.35-2.99-3.09,1.22-3.15,2.99-3.15,3,1.36,3,3.13Zm-4.49,0c0,1.6.47,2.73,1.49,2.73s1.5-1.22,1.5-2.73c0-1.63-.47-2.74-1.5-2.74s-1.49,1.2-1.49,2.74Z"/>
      <path class="cls-1" d="m231.82,23.36c0,.79.01,1.18.1,1.36s.46.22.85.26c.06.01.1.04.1.15s-.04.15-.1.15c-.51-.01-1.15-.04-1.58-.04-.45,0-1.08.03-1.55.04-.1,0-.13-.04-.13-.15s.03-.14.13-.15c.35-.03.67-.06.76-.26.12-.22.12-.59.12-1.36v-1.86c0-.56,0-1.06-.01-1.5-.31,0-.64.01-1.08.04-.05,0-.08-.03-.08-.09l.1-.37c.01-.05.06-.08.13-.08.35.01.63.01.92.01,0-.26-.01-.49-.01-.65,0-1.15.51-1.97,1.06-2.56.53-.58,1.18-.88,1.97-.88.46,0,.76.1.76.41,0,.6-.32.99-.58.99-.28,0-.37-.13-.54-.32-.21-.23-.37-.41-.54-.38-.4.06-.62.44-.72,1.35-.08.63-.08,1.53-.08,2.05.49,0,1.04-.01,1.56-.04.06,0,.09.03.09.08l-.12.38c-.01.05-.06.09-.1.09-.49-.04-.94-.04-1.45-.04v3.38Z"/>
      <path class="cls-1" d="m242.87,17.62c0-.49.01-.85-.05-1.1-.05-.21-.24-.27-.46-.26l-.31.03c-.15.01-.18.01-.19-.14-.01-.15.03-.17.15-.19.54-.12,1.54-.37,2.1-.58.06.01.15.06.15.13-.05.88-.08,1.87-.08,3.11v4.81c0,.76-.01,1.1.09,1.33.09.19.23.19.4.21h.29c.09.01.12.04.12.15,0,.13-.03.15-.12.17-.51.03-1.42.12-2,.22-.09,0-.13-.04-.13-.15.01-.31.03-.55.03-.87-.42.7-1.05,1.03-1.68,1.03-1.76,0-2.77-1.27-2.77-3.08s1.13-3.19,2.94-3.19c.64,0,1.14.27,1.51.65v-2.27Zm0,3.9c0-.44,0-.68-.24-1.13-.22-.4-.63-.73-1.1-.73-1,0-1.59,1.1-1.59,2.72s.64,2.51,1.58,2.51c.44,0,.78-.24,1.1-.68.24-.35.26-.59.26-1.04v-1.65Z"/>
      <path class="cls-1" d="m250.34,23.83c-.01.82.17,1.13.46,1.13.15,0,.23-.01.37-.09.05-.03.12-.03.17.06.05.09.05.13-.04.19-.22.17-.59.29-1.09.29-.55,0-.92-.27-1.09-.69-.46.46-.91.76-1.79.76-1.26,0-1.64-.78-1.64-1.36s.17-.85.44-1.14c.38-.35.85-.46,1.64-.7.56-.17.81-.31,1-.46.17-.13.29-.32.29-.5v-.36c0-.96-.24-1.36-.77-1.36-.21,0-.45.04-.67.26-.18.15-.23.4-.23.72,0,.35-.32.62-.99.62-.4,0-.5-.15-.5-.41,0-.6.99-1.54,2.56-1.54,1.88,0,1.91.91,1.9,1.91l-.03,2.68Zm-1.28-1.81c-.13.19-.31.29-1.03.56-.68.27-.94.69-.94,1.35s.46,1.05.81,1.05c.67,0,1.14-.51,1.14-1.12v-1.85Z"/>
      <path class="cls-1" d="m252.68,21.54c0-.49-.01-.85-.06-1.09-.06-.21-.19-.28-.47-.26l-.33.03c-.13.01-.15.01-.17-.14-.01-.15,0-.17.14-.19.5-.12,1.47-.38,2.08-.59.09,0,.15.05.15.13-.04.94-.05,1.65-.05,2.27v1.68c0,.77,0,1.17.09,1.37.1.19.32.19.73.22.08.01.09.05.09.17,0,.13-.01.15-.09.15-.46-.01-.99-.04-1.42-.04s-1.01.03-1.45.04c-.1,0-.13-.03-.13-.15,0-.12.03-.17.12-.17.37-.03.58-.04.68-.22.13-.22.1-.63.1-1.37v-1.83Zm1.41-4.96c0,.45-.44.87-.85.87-.45,0-.88-.42-.88-.87s.44-.86.88-.86c.41,0,.85.41.85.86Z"/>
      <path class="cls-1" d="m256.21,17.59c0-.46-.04-.83-.09-1.05-.05-.23-.22-.31-.42-.29l-.35.03c-.12.01-.14,0-.15-.14-.01-.15.01-.17.13-.19.53-.1,1.49-.36,2.12-.56.09,0,.15.03.15.09-.03.96-.06,1.9-.06,3.15v4.74c0,.78-.01,1.18.09,1.37.1.21.31.22.72.26.08.01.09.04.09.15,0,.13-.03.14-.1.14-.47-.03-.97-.04-1.4-.04-.45,0-.99.01-1.46.04-.12,0-.14-.03-.14-.14s.03-.14.13-.15c.4-.04.55-.05.65-.26.1-.22.1-.62.1-1.37v-5.77Z"/>
      <path class="cls-1" d="m262.7,23.69c-.31.78-.56,1.45-.83,2.03-.73,1.58-1.46,2.64-2.67,2.64-.44,0-.55-.13-.55-.35,0-.42.37-.94.79-.94.29,0,.41.17.64.17.15,0,.33-.05.5-.26.27-.32.47-.6.92-1.54-.26-.58-.45-1.01-.73-1.72l-.97-2.44c-.32-.74-.44-1.04-.62-1.26-.14-.18-.29-.24-.68-.27-.06,0-.1-.01-.1-.17,0-.13.03-.15.1-.15.49.03,1.06.04,1.49.04.45,0,1.05-.01,1.54-.04.08,0,.12.03.12.15,0,.15-.04.17-.1.17-.35.03-.62.08-.69.23-.09.18.05.59.35,1.29l.67,1.72c.17.42.22.6.29.86.1-.23.17-.44.35-.9l.63-1.69c.24-.67.26-1.04.13-1.24-.12-.19-.29-.24-.63-.27-.09-.01-.12-.04-.12-.17s.03-.15.13-.15c.35.01.83.04,1.18.04.37,0,.73-.01,1.09-.04.09,0,.12.01.12.15s-.03.15-.12.17c-.21.03-.38.08-.56.26-.23.19-.44.54-.72,1.26l-.94,2.41Z"/>
      <path class="cls-1" d="m270.32,17.59c0-.46-.04-.83-.09-1.05-.05-.23-.22-.31-.42-.29l-.35.03c-.12.01-.14,0-.15-.14-.01-.15.01-.17.13-.19.53-.1,1.49-.36,2.12-.56.09,0,.15.03.15.09-.03.96-.06,1.9-.06,3.15v4.74c0,.78-.01,1.18.09,1.37.1.21.31.22.72.26.08.01.09.04.09.15,0,.13-.03.14-.1.14-.47-.03-.97-.04-1.4-.04-.45,0-.99.01-1.46.04-.12,0-.14-.03-.14-.14s.03-.14.13-.15c.4-.04.55-.05.65-.26.1-.22.1-.62.1-1.37v-5.77Z"/>
      <path class="cls-1" d="m273.96,21.54c0-.49-.01-.85-.06-1.09-.06-.21-.19-.28-.47-.26l-.33.03c-.13.01-.15.01-.17-.14-.01-.15,0-.17.14-.19.5-.12,1.47-.38,2.08-.59.09,0,.15.05.15.13-.04.94-.05,1.65-.05,2.27v1.68c0,.77,0,1.17.09,1.37.1.19.32.19.73.22.08.01.09.05.09.17,0,.13-.01.15-.09.15-.46-.01-.99-.04-1.42-.04s-1.01.03-1.45.04c-.1,0-.13-.03-.13-.15,0-.12.03-.17.12-.17.37-.03.58-.04.68-.22.13-.22.1-.63.1-1.37v-1.83Zm1.41-4.96c0,.45-.44.87-.85.87-.45,0-.88-.42-.88-.87s.44-.86.88-.86c.41,0,.85.41.85.86Z"/>
      <path class="cls-1" d="m279.02,23.36c0,.79.01,1.18.1,1.36s.46.22.85.26c.06.01.1.04.1.15s-.04.15-.1.15c-.51-.01-1.15-.04-1.58-.04-.45,0-1.08.03-1.55.04-.1,0-.13-.04-.13-.15s.03-.14.13-.15c.35-.03.67-.06.76-.26.12-.22.12-.59.12-1.36v-1.86c0-.56,0-1.06-.01-1.5-.31,0-.64.01-1.08.04-.05,0-.08-.03-.08-.09l.1-.37c.01-.05.06-.08.13-.08.35.01.63.01.92.01,0-.26-.01-.49-.01-.65,0-1.15.51-1.97,1.06-2.56.53-.58,1.18-.88,1.97-.88.46,0,.76.1.76.41,0,.6-.32.99-.58.99-.28,0-.37-.13-.54-.32-.21-.23-.37-.41-.54-.38-.4.06-.62.44-.72,1.35-.08.63-.08,1.53-.08,2.05.49,0,1.04-.01,1.56-.04.06,0,.09.03.09.08l-.12.38c-.01.05-.06.09-.1.09-.49-.04-.94-.04-1.45-.04v3.38Z"/>
      <path class="cls-1" d="m282.8,22.35c0,1.69,1.04,2.54,1.83,2.54s1.31-.28,1.78-.92c.04-.05.09-.06.13-.06s.08.03.12.05c.05.04.1.09.1.13,0,.03-.03.08-.06.14-.59.91-1.31,1.27-2.37,1.27-1.77,0-2.96-1.31-2.96-3.08s1.23-3.17,2.97-3.17,2.46,1.49,2.5,2.38c0,.1,0,.13-.06.22-.06.08-.12.06-.19.06-1.29-.04-2.59-.05-3.73-.03-.03.12-.05.24-.05.46Zm2.51-.96c.1-.01.12-.09.12-.21-.04-.72-.35-1.55-1.09-1.55-.69,0-1.23.74-1.42,1.79.9.03,1.5.03,2.4-.04Z"/>
      <path class="cls-1" d="m289.69,24.6c0,.49-.4.87-.86.87s-.87-.38-.87-.87.4-.86.87-.86.86.38.86.86Z"/>
    </g>
  </g>
</svg>