<?xml version="1.0" encoding="utf-8"?>
<!-- Generator: Adobe Illustrator 26.5.0, SVG Export Plug-In . SVG Version: 6.00 Build 0)  -->
<svg version="1.1" id="圖層_1" xmlns="http://www.w3.org/2000/svg" xmlns:xlink="http://www.w3.org/1999/xlink" x="0px" y="0px"
	 viewBox="0 0 80 70" style="enable-background:new 0 0 80 70;" xml:space="preserve">
<style type="text/css">
	.st0{fill:url(#SVGID_1_);}
</style>
<linearGradient id="SVGID_1_" gradientUnits="userSpaceOnUse" x1="16.4611" y1="3.28" x2="49.7198" y2="83.2314">
	<stop  offset="5.347594e-02" style="stop-color:#EBB65F"/>
	<stop  offset="0.1952" style="stop-color:#F4EFAB"/>
	<stop  offset="0.3535" style="stop-color:#E2AD5B"/>
	<stop  offset="0.4144" style="stop-color:#D09C51"/>
	<stop  offset="0.4893" style="stop-color:#EBB65F"/>
	<stop  offset="0.5976" style="stop-color:#F4EFAB"/>
	<stop  offset="0.719" style="stop-color:#E2AD5B"/>
	<stop  offset="1" style="stop-color:#8D5A2A"/>
</linearGradient>
<path class="st0" d="M9.3,52.7c-5.6,0-5.6-9.1,0-9.2C15.1,43.5,14.9,52.5,9.3,52.7z M9.4,52.2c3.8,0.1,3.7-8.4-0.2-8.2
	C5.5,43.9,5.7,52.4,9.4,52.2z M23.4,45.2c0-0.8-0.4-1.2-1.3-1.2v-0.4h3V44c-0.7,0-1.1,0.4-1.1,1.2c-0.1,1,0.1,4.5-0.1,5.4
	c-0.4,1.7-1.9,2-3.6,2c-1.7,0.1-3.2-1.2-3.1-2.9c0,0,0-4.8,0-4.8c0-0.6-0.4-1-1.2-1v-0.4h3.7V44c-0.8,0-1.2,0.3-1.2,1v4.4
	c0,0.9,0.1,2,1,2.4c1,0.4,2.9,0.3,3.5-0.7c0.3-0.5,0.4-1.2,0.4-1.7C23.4,49.4,23.4,45.2,23.4,45.2z M35.3,51.3
	c-0.1,1.3-1.4,1.6-2.3,1c-1.2-1-0.6-3.9-2.5-4.2c-0.2,0-0.7,0-0.8,0.1v2.9c0,0.6,0.4,0.9,1.2,0.9v0.4h-3.6v-0.4
	c0.8,0,1.1-0.3,1.1-0.9v-6.3c0-0.6-0.4-0.9-1.2-0.9v-0.4c0.5,0,1.9,0,2.3,0c1,0,2-0.2,3,0.1c2.6,0.9,1.9,3.9-0.7,4.2v0
	c0.7,0.3,1.3,1,1.6,1.7c0.3,0.7,0.3,2,1.2,2.1c0.2,0,0.4-0.2,0.5-0.6L35.3,51.3z M30.6,47.6c1.1,0.1,2.1-0.5,2-1.8
	c0.1-1.1-0.9-1.8-1.9-1.7c-0.6,0-1.1-0.2-1.1,0.7c0,0,0,2.5,0,2.5C29.7,47.8,30.4,47.6,30.6,47.6z M49.6,49.9
	c-0.6,3.8-6.2,3.5-7.2,0c-1.4-3.4,1.9-8.2,5.6-5.9c0.3-0.3,0.6-0.5,0.9-0.6c0.4,0.9,0.4,2,0.4,3H49c-1.1-4.2-5.6-3-5.4,1.1
	c0,1.5,0.2,3.2,1.6,4.1c0.8,0.5,2.2,0.5,2.9-0.1c0.6-0.5,0.8-1.1,1.1-1.8L49.6,49.9z M52,52.5v-0.4c0.8,0,1.2-0.3,1.2-0.9v-5.9
	c0-0.8-0.4-1.2-1.3-1.2v-0.4h3.7V44c-0.8,0-1.2,0.4-1.2,1.2v5.9c0,0.6,0.4,0.9,1.2,0.9v0.4H52z M59.3,52.5v-0.4
	c0.9,0,1.4-0.4,1.4-1.2v-6.1c0-0.3-0.2-0.5-0.6-0.5c-1.3,0-1.9,1-2.2,2.3l-0.4-0.1l0.3-2.8c0.4,0,0.7,0.1,1.1,0.1
	c0.9,0,5.3,0.1,6.1-0.1v2.8l-0.3,0.1c-0.1-1.4-0.8-2.1-2.1-2.1c-0.4,0-0.6,0.2-0.6,0.5v6.1c0,0.8,0.5,1.2,1.4,1.2v0.4H59.3z
	 M69.3,52.5v-0.4c0.9,0,1.3-0.2,1.3-0.6v-2.6l-2.2-3.7c-0.4-0.7-0.9-1.1-1.4-1.1v-0.4h3.5V44c-0.9,0-1.1,0.4-0.7,0.9
	c0,0,1.8,3.2,1.8,3.2l1.7-3.1c0.2-0.7,0.1-1-0.9-1v-0.4h3V44c-0.4,0-0.8,0.2-1,0.5L72,48.8v2.7c0,0.4,0.4,0.6,1.3,0.6v0.4H69.3z
	 M4.2,68.7c-5.6,0-5.6-9.1,0-9.2C10,59.4,9.9,68.5,4.2,68.7z M4.3,68.1c3.8,0.1,3.7-8.4-0.2-8.2C0.4,59.8,0.6,68.3,4.3,68.1z
	 M18.4,61.2c0-0.8-0.4-1.2-1.3-1.2v-0.4h3V60c-0.7,0-1.1,0.4-1.1,1.2c-0.1,1,0.1,4.5-0.1,5.4c-0.4,1.7-1.9,2-3.6,2
	c-1.7,0.1-3.2-1.2-3.1-2.9c0,0,0-4.8,0-4.8c0-0.6-0.4-1-1.2-1v-0.4h3.7V60c-0.8,0-1.2,0.3-1.2,1v4.4c0,0.9,0.1,2,1,2.4
	c1,0.4,2.8,0.3,3.5-0.7c0.3-0.5,0.4-1.2,0.4-1.7C18.4,65.4,18.4,61.2,18.4,61.2z M30.2,67.3c-0.1,1.3-1.4,1.6-2.3,1
	c-1.2-1-0.6-3.9-2.5-4.2c-0.2,0-0.7,0-0.8,0.1v2.9c0,0.6,0.4,0.9,1.2,0.9v0.4h-3.6v-0.4c0.8,0,1.1-0.3,1.1-0.9v-6.3
	c0-0.6-0.4-0.9-1.2-0.9v-0.4c0.5,0,1.9,0,2.3,0c1,0,2-0.2,3,0.1c2.6,0.9,1.9,3.9-0.7,4.2v0c0.7,0.3,1.3,1,1.6,1.7
	c0.3,0.7,0.3,2,1.2,2.1c0.2,0,0.4-0.2,0.5-0.6L30.2,67.3z M25.6,63.6c1.1,0.1,2.1-0.5,2-1.8c0.1-1.1-0.9-1.8-1.9-1.7
	c-0.6,0-1.1-0.2-1.1,0.7c0,0,0,2.5,0,2.5C24.6,63.8,25.3,63.6,25.6,63.6z M42.7,68.5v-0.4c0.9,0,1.3-0.3,1.3-0.9v-2.8
	c-0.2-0.1-0.5-0.2-1-0.2c-0.7,0.1-2.7-0.2-3.3,0.2v2.8c0,0.6,0.4,0.9,1.2,0.9v0.4h-3.8v-0.4c0.9,0,1.3-0.3,1.3-0.9v-5.9
	c0-0.8-0.4-1.2-1.3-1.2v-0.4h3.8V60c-0.8,0-1.2,0.4-1.2,1.2v2.3c0.6,0.3,2.6,0.1,3.3,0.1c0.5,0,0.8,0,1-0.1v-2.3
	c0-0.8-0.4-1.2-1.3-1.2v-0.4h3.7V60c-0.8,0-1.2,0.4-1.2,1.2v5.9c0,0.6,0.4,0.9,1.2,0.9v0.4H42.7z M53.1,68.7c-5.6,0-5.6-9.1,0-9.2
	C58.8,59.4,58.7,68.5,53.1,68.7z M53.2,68.1c3.8,0.1,3.7-8.4-0.2-8.2C49.2,59.8,49.4,68.3,53.2,68.1z M66.5,68.5v-0.4
	c0.8,0,1.1-0.3,1.1-1l-0.1-6.2l-2.8,7.6h-0.4L61.5,61l-0.1,5.9c0,0.8,0.4,1.2,1.3,1.2v0.4h-3.1v-0.4c0.8,0,1.2-0.4,1.2-1.3l0.1-5.9
	c0.1-0.8-0.6-0.8-1.3-0.8v-0.4h2.7l2.6,6.8l2.5-6.8H70V60c-0.6,0-1.3,0.1-1.2,0.8L69,67c0,0.7,0.4,1.1,1.2,1.1v0.4H66.5z M72.8,68.5
	v-0.4c0.8,0,1.2-0.3,1.2-0.9v-6c0-0.7-0.4-1.1-1.3-1.1v-0.4h6.8l0.1,2.5l-0.4,0.1c-0.2-1.6-1.1-2.1-2.6-2c-0.6,0-1.4,0-1.3,0.6
	c0,0,0,2.4,0,2.4c0,0.3,0.1,0.4,0.3,0.4c0.5,0,1.1,0.1,1.5-0.2c0.4-0.3,0.5-0.7,0.5-1.2h0.5v3.4h-0.5c0-1.1-0.6-1.5-1.6-1.5
	c-0.4,0-0.8,0.1-0.7,0.4c0,0,0,2.5,0,2.5c0,0.7,0.8,0.8,1.4,0.8c1.7,0.1,2.6-0.6,3-2.2l0.3,0.1l-0.3,2.6H72.8z M43.6,27.4h-6
	c0,0,0,0-0.1,0h-4.4c3.4,5.1,11.4,5.1,14.8,0L43.6,27.4C43.7,27.4,43.6,27.4,43.6,27.4z M40.6,25.5c-0.2,0.4-0.5,0.8-0.9,1.1h1.8
	C41.1,26.3,40.8,26,40.6,25.5z M49.7,10.6c-0.5-12.3-17.8-12.3-18.3,0c0,0,0,11.4,0,11.4c0,1.2,0.2,2.3,0.6,3.4h4.6
	c0.8,0,1.4-0.6,1.4-1.4v-2.5l-0.9-1h-1.8c-0.5,0-0.5-0.8,0-0.8c0,0,1,0,1,0l-1.6-1.7c-0.3-0.3,0.2-0.9,0.5-0.5l2.8,2.8
	c0-0.5,0.1-2.1-0.1-2.6c-0.2-0.5-1.3-1.4-1.6-1.8h-2.1c-0.5,0-0.5-0.8,0-0.8c0,0,1.4,0,1.4,0l-1.9-1.9c-0.4-0.3,0.2-0.9,0.5-0.5
	l1.9,1.9v-2.4c0-0.5,0.8-0.5,0.8,0c0,0,0,3.2,0,3.2c0.5,0.5,1.5,1.4,1.8,2c0.4,0.6,0.1,5.7,0.2,6.4c0,1.2-1,2.2-2.1,2.2
	c0,0-4.3,0-4.3,0c0.1,0.2,0.2,0.4,0.3,0.5h4.9c1.5,0,2.7-1.3,2.7-2.7c0,0,0-6.3,0-6.3L37.7,15c-0.3-0.3,0.2-0.9,0.5-0.5c0,0,2,2,2,2
	v-3.3l-4.6-4.7c-0.3-0.3,0.2-0.9,0.5-0.5c0,0,1.9,1.9,1.9,1.9V7.6c0-0.5,0.8-0.5,0.8,0c0,0,0,3.1,0,3.1l1.4,1.5l0-7
	c0-0.5,0.8-0.5,0.8,0l0,3.1l1.7-1.7C43,6.1,43.6,6.6,43.2,7L41,9.3v2.9l4.3-4.4c0.3-0.3,0.9,0.2,0.5,0.5l-2.5,2.6l1.6,0
	c0.5,0,0.5,0.8,0,0.8c0,0-2.4,0-2.4,0L41,13.2v1.9l2-2c0.3-0.3,0.9,0.2,0.5,0.5c0,0-2.5,2.6-2.5,2.6v7.7c0,1.6,1.3,2.7,2.7,2.7h4.8
	c0.1-0.2,0.2-0.3,0.3-0.5h-4.2c-1.2,0-2.2-1-2.1-2.2c0.1-0.7-0.2-5.8,0.2-6.4c0.2-0.7,1.3-1.5,1.8-2.1v-2.3c0-0.5,0.8-0.5,0.8,0
	c0,0,0,1.6,0,1.6l2-2c0.3-0.4,0.8,0.2,0.5,0.5l-2,2h1.6c0.5,0,0.5,0.8,0,0.8c0,0-2.4,0-2.4,0c-0.3,0.4-1.4,1.3-1.6,1.8
	c-0.2,0.5-0.1,2.1-0.1,2.6l2.8-2.8c0.3-0.4,0.9,0.2,0.5,0.5c0,0-1.6,1.7-1.6,1.7h1c0.5,0,0.5,0.8,0,0.8c0,0-1.8,0-1.8,0l-0.9,1V24
	c0,0.8,0.7,1.4,1.4,1.4h4.5c0.4-1,0.6-2.2,0.6-3.4V10.6z M36.3,16.5L36.3,16.5c0.7,0.4,0.7,1.4,0.1,1.9C35.8,18,35.7,17,36.3,16.5z
	 M34.1,20.8c-0.8,0-0.8-1.2,0-1.2C34.9,19.5,34.9,20.8,34.1,20.8z M35,18.9c-0.5,0.6-1.5,0.6-1.9,0C33.5,18.3,34.6,18.3,35,18.9z
	 M34.3,16.5c0.6,0,0.6,1,0,1C33.6,17.5,33.6,16.5,34.3,16.5z M34.5,14.5L34.5,14.5c-0.5,0.9-1.7,0.9-2.3,0.1
	C32.8,13.9,33.9,13.8,34.5,14.5z M33.1,13c-0.8,0-0.8-1.2,0-1.2C33.9,11.8,33.9,13,33.1,13z M35.7,12.6c-1,0.1-1.8-0.8-1.7-1.7
	C35,10.8,35.8,11.6,35.7,12.6z M38.7,12.4L38.7,12.4c0.9,0.5,0.9,1.8,0.1,2.4C38.1,14.2,38,13,38.7,12.4z M37.6,13.2
	c0.6,0,0.6,0.9,0,0.9C37,14.1,37,13.2,37.6,13.2z M37,10.8c0,0.7-1,0.7-1,0C36,10.2,37,10.2,37,10.8z M36.2,9.7L36.2,9.7
	c-0.5,0.9-1.7,0.9-2.3,0.1C34.4,9.1,35.6,9,36.2,9.7z M35.1,8.2c-0.8,0-0.8-1.2,0-1.2C35.9,7,35.9,8.2,35.1,8.2z M37.2,8.3L37.2,8.3
	c-0.8-0.5-0.8-1.6-0.1-2.2C37.8,6.7,37.8,7.8,37.2,8.3z M38.7,5.8c-0.4-0.4-0.5-0.9-0.5-1.4c1-0.1,1.9,0.8,1.8,1.8
	C39.5,6.3,39,6.1,38.7,5.8z M39.7,9.8c-0.6,0-0.6-1,0-1C40.3,8.8,40.3,9.8,39.7,9.8z M40.6,4.3c-0.6,0-0.6-1,0-1
	C41.3,3.3,41.3,4.3,40.6,4.3z M42.5,5.2c-0.3,0.3-0.7,0.5-1.2,0.4c-0.1-0.9,0.7-1.7,1.6-1.6C42.9,4.5,42.8,4.9,42.5,5.2z M43.9,15.6
	c-0.6,0.6-1.6,0.6-2.1-0.1C42.3,14.8,43.4,14.8,43.9,15.6L43.9,15.6z M44.2,8.3L44.2,8.3c-0.8-0.5-0.8-1.6-0.1-2.2
	C44.8,6.7,44.9,7.7,44.2,8.3z M45.5,6.9c-0.6,0-0.6-1,0-1C46.2,6,46.2,6.9,45.5,6.9z M45.9,13.4c-0.8,0-0.8-1.2,0-1.2
	C46.6,12.2,46.6,13.4,45.9,13.4z M46.3,11.9c-0.6,0-0.6-1,0-1C47,10.9,47,11.9,46.3,11.9z M47.6,9.9c-0.6,0.7-1.9,0.7-2.5-0.1
	C45.8,9,47.1,9,47.6,9.9L47.6,9.9z M44.9,18.3L44.9,18.3c-0.7-0.4-0.7-1.4-0.1-1.9C45.4,16.9,45.5,17.8,44.9,18.3z M46.5,17
	c0-0.7,1-0.7,1,0C47.5,17.7,46.5,17.6,46.5,17z M47,20.8c-0.8,0-0.8-1.2,0-1.2C47.8,19.5,47.8,20.8,47,20.8z M48.1,19
	c-0.5,0.6-1.4,0.5-1.9-0.1C46.7,18.3,47.7,18.3,48.1,19L48.1,19z M48.9,14.6c-0.5,0.6-1.4,0.5-1.9-0.1
	C47.5,13.8,48.5,13.8,48.9,14.6L48.9,14.6z"/>
</svg>
