<svg width="259" height="125" viewBox="0 0 259 125" xmlns="http://www.w3.org/2000/svg" fill="#231815">
<path d="M109.8,115.5c-7.9,1.2-9.5-10.2-30.9-28.8c-1.7-1.5-1-4.4,2.1-3.1C121.7,99.8,114.9,114.7,109.8,115.5z M111,15.1c-2.4,2.9-4.3,4.4-6.4,4.3H68.1c5-8.9-6.5-14.8-17.8-18.4c-2-0.6-4,0.4-2.4,2.8c3.4,5,7.1,10.9,11,15.6H1.5 c2.4,5.1,4.1,8.2,6.7,8.2h100.7l0,0C118.7,27.6,119.2,21.5,111,15.1z M35.4,79.8c-7.8,12.9-19.8,26-34.4,36.6 c-2.5,1.8-3.3,12.5,33.4-16.9C49.3,87.5,45.4,86.9,35.4,79.8z M76.6,38.6c4.7,0,5.6-0.1,8.3-3.3c18,4.6,11.7,5,11.7,11.3v25.6 c-0.1,6.2-6.1,7.9-12,6.7v-5.6H68V116c0,5.2-5.8,11.6-12.4,6.5c-3.9-3-10.1-6.6-13.1-7.5c-1.7-0.5-1.5-2.9,0.4-3 c3.4-0.2,12.9,0.6,12.9-0.7v-38H37.6c-1,5.4-6.9,7.2-11.9,5.8V34.9c0,0,11.8,1.7,11.8,3.6L76.6,38.6L76.6,38.6z M37.6,46.5v18.7 h46.8V46.5H37.6z M170.6,107.8c5.4,1.5,10.9-1.2,10.9-7.1V55.9c0-5,6.6-6.6-10.6-10.9c-2.1,3.8-4.3,3-12.4,3c3.3-8,6-17.3,7.7-26.1 h13.3c9.6,0,8.3-6.8,1.9-11.7c-1.9,1.9-3.8,4.1-5.8,3.9h-40.1c1.9,5.4,3.3,7.7,5.5,7.7h13.8c-3.5,22-8.1,35.7-18.2,54 c-1.2,2.2,0.2,9.7,13-10.2v48.7c6,1.9,10.9-2,10.9-6.9V98h10.1V107.8z M160.5,90.2V55.6h10.1v34.6L160.5,90.2L160.5,90.2z M214,83.8c-5.7,26.1-21.9,38.6-45.4,40.9c-2.7,0.3-3.6-2.7-1.2-3.5c22.9-7.9,33-20.6,35.8-44.2C214.2,80.4,214.6,81,214,83.8z M257.5,111.2c-3.5-2.2-3.8-10.6-4.6-14.4c-0.1-1.5-2.8-1.5-3,0c-1.4,10.8,0,14.6-10.3,14.6c-8.9,0-8.9,0.5-8.9-6.7V76.2h2.4v6.6 c5.2,1.8,11.8-0.7,11.6-6.7V16.2c0-5.5,6.8-6.2-11.2-11.7c-1.4,1.6-3,3.4-6,3.4h-26.3c-0.2-2.4-9.8-3-11.6-3.7V84 c5.7,1.6,11.6-1.5,11.6-7.7h18.1v26.3c0,18.6,2.2,19.8,19.4,19.8C261.6,122.4,260.4,114.1,257.5,111.2z M233,56.8v11.5h-31.9V56.8 H233z M201.1,28.5V16.1H233v12.4H201.1z M201.1,48.7V36.5H233v12.2H201.1z"/>
</svg>
