<svg width="760" height="313" viewBox="0 0 760 313" fill="none" xmlns="http://www.w3.org/2000/svg">
<linearGradient id="SVGID_1_" gradientUnits="userSpaceOnUse" x1="0" y1="0" x2="800" y2="300">
	<stop  offset="0" style="stop-color:#E6C57C"/>
	<stop  offset="0.25" style="stop-color:#FFFFFF"/>
	<stop  offset="0.5" style="stop-color:#DFBD7C"/>
	<stop  offset="0.75" style="stop-color:#D1A450"/>
	<stop  offset="1" style="stop-color:#E6C57C"/>
<animate attributeName="x1" from="-800" to="1800" dur="4s" repeatCount="indefinite"/>
<animate attributeName="x2" from="0" to="2600" dur="4s" repeatCount="indefinite"/>
</linearGradient>
<path fill="url(#SVGID_1_)" d="M735.3,91.5H623.2c-6.3-4.7-14.4-7.1-22.5-8.1v22.7h-19.2v11.6h19.2v189.2c7.8,0.3,16.3-0.3,23.6-6.3v-16.2h112.2V298c6.3,7.3,18.6,8.1,23.3,6.8V82.4L735.3,91.5z M721.6,128l1.6-2.9h-88.6l1.1,2.9H721.6z M702.5,234l31.9-20.4l-14.6-18.1L702.5,234zM653.6,196.5v-24.6h50.6v24.6H653.6z M624.3,153.3h109.3l1.5-2.9h-48v-37c2.7-1.2,4.3-3.5,5-7.2l-21.2-5.3v49.5h-46.6v-55h112.2v184.8l0,0l0,0H624.3l0,0V153.3L624.3,153.3z M621.7,256.4c11.8-3.9,23.6-11.1,32.6-18.9v19.1l-4.3,1.8l9.4,22.9c1.3-1.4,2.5-4.2,2.7-6.5l33.7-35.5l-26.5,11.2v-27.9c6-7,11.3-14.6,16.1-22c6.6,41.9,20.1,61.4,42,73.1c2.7-8.3,7.7-21,12.4-27.5c-27.5-3.5-42.8-24.7-53.3-46.7h17.7l0,0c3.4,4.1,8.7,6,14.4,5.1v-42.3l-14.4,6.2h-51.1c-4-3.5-8.9-5.5-14.9-6.4v48.2c5,0.2,10.8-0.4,15.4-4.5v-6.3h10.8C654.9,218.1,638.5,242.5,621.7,256.4z M442.7,196L442.7,196h-17.6v-35.4c2.1-0.6,4.4-3.1,4.9-7.7l-22.5-5.1v63.5c3.7,0.6,14.3-0.7,17.6-6.1v-6.4h17.6v36h-41.1l1,2.9h7.6c0.6,30.8-6.2,54.7-17,74.6c20-17.4,30.1-29.9,31.7-74.6h17.8v73.6c3.7,0.6,13.1-0.7,16.4-6.1V157.4c2.3-0.6,4.5-2.9,5.1-7.7l-21.5-5.1V196z M266.2,263.8c0,31.9,7.5,34.8,23.9,34.8h55.7c24.3,0,31.6,1.3,34.8-19.6c-10.3-11-9.3-38-8.2-57.6c-7.8,28.2-15.4,55.7-29.3,55.7H301c-10.5,0-13.6-2.9-13.6-17.8V110.8c5.2,0.8,8.8-6.5,7.5-10.5l-28.7-6V263.8z M267.1,226.4l-28.7,7.4V86.7c4.7,0,7.3-2.1,8.4-8.9l-30.3-6.5v119.1h-51.4v4.5h51.4v44.5l-22,5.5l11,33.5c2.1-0.8,4.7-3.4,4.7-8.1L267.1,226.4z M261.9,155.1l2.1-4.4h-67.9l1.6,4.4H261.9z M321.5,210.2c15,8.5,15.7,22.8,15.7,27.8c27.7-6.3,27.7-23.8,28.2-36.9l1.1-54h11.3v-11.6h-11l0.2-11.8l-14.6,6.5l-102.2,39.7l2.6,3.4l92.9-36.1C342.2,223.9,351.4,215.1,321.5,210.2z M326.8,86.2c5.8,0.3,8.4-5.2,8.1-8.9l-29-6v180c2.9,0.8,17-1.6,20.9-6V86.2z M98,226c7.7,38.6,28.7,68.9,66.7,78.7c1.3-7.6,6.3-18,17.2-35.3C145.1,267.7,116.3,251,98,226zM177,230l2.4-5H6.8l2.1,5H177z M101.5,210.9c4.7-0.3,7.6-3.7,8.4-7.8l-33.8-10.3c0,56.9-36.3,98.8-75.9,113.7C59.1,297.2,87.6,280.7,101.5,210.9z M527.7,155.8c4.4,1.3,6.8-3.1,5.9-6.3l-28.4-5v152h-32.7l0.8,4.1H570l2.6-4.1h-17v-87h16.6l2.1-4.6H468.4l1.4,4.6h60.1v87h-2.2V155.8z M534.6,296.5h-2.5v-87h2.5V296.5z M539.3,296.5h-2.5v-87h2.5V296.5z M544,296.5h-2.5v-87h2.5V296.5z M548.7,296.5h-2.5v-87h2.5V296.5z M553.4,296.5h-2.5v-87h2.5V296.5z M522.8,91.4c3.4-1,6.8-4.2,7.6-8.9l-29.3-5.6v57.4c4.5,0,16.5-0.2,21.7-5.9V91.4z M571.9,109.8l2.4-4.5h-183l1.8,4.5H571.9z M459.5,91.9c2.9-1,6.5-4.2,7.3-8.9l-28.5-5.8V136c4.7,0,15.7-0.2,21.2-5.9V91.9z M3.7,184.4l1.8,4.6h169.9l0,0l2.6-4.6h-76.1V117h70.6l2.3-4.3h-57.2c7.8-6.8,17.3-13.5,24-25.3c4.4,0,7.3-2.1,8.9-7.1l-33.1-11.5l-5.2,43.9H65.6c24-20.6,10.7-41.1-22.5-41.6c5.7,12,8.9,22.7,14.6,41.6H10.5l2.1,4.3h33.6v67.4H3.7z M78.1,184.4H72V117h6.1V184.4z M160.4,152.2l2.4-4.5H20.1l1.8,4.4L160.4,152.2z M69.8,184.4h-2.5V117h2.5V184.4z M65.1,184.4h-2.5V117h2.5V184.4z M60.4,184.4h-2.5V117h2.5V184.4z M55.7,184.4h-2.6V117h2.6V184.4z M50.9,184.4h-2.5V117h2.5V184.4z"/>
<path fill="#FFFFFF6b" d="M226.5,4.9c-0.4-1.7,0.4-2.5-8.4-2.5v18c0.1,4.8,0.6,4.3,3.1,4.5c0.8,0.1,0.8,0.6-0.5,0.6h-8.6c-1.4,0-1.3-0.6-0.5-0.6c1.8,0,2.3-0.2,2.3-4.5v-18c-8.2,0-8.1,0.2-8.9,2.2c-0.5,1.1-0.5,0,0.2-3.9c0.3-1.3,0.6-0.1,3.4-0.1h14.8c3.4,0.1,3.6-0.9,3.6,0.4C227,5.9,226.7,5.6,226.5,4.9z M256.6,24.9c-2.6,0-3.1-0.3-3.1-3.7V3.1c0-1.6,0.8-2,2-2c0.9,0.1,1-0.7,0-0.6h-8.9c-0.9-0.1-0.9,0.6-0.1,0.6c1.5,0,2.7,0.3,2.7,2l0.1,7.9h-13V6.3c0-4.5,0.2-5.1,2.1-5.1c1,0,1.2-0.6-0.4-0.6h-8.2c-1.4,0-1.2,0.6-0.4,0.6c2.7,0.1,2.8,0.4,2.8,5.1l-0.1,13.4c0,4.7-0.1,5.2-2.3,5.3c-0.8,0-0.7,0.6,0.1,0.6h9.3c0.8,0,1.1-0.6,0.1-0.6c-2.7-0.1-3.1,0.1-3.1-5.3v-6.8h13v8.4c0,3.5-0.9,3.8-2.3,3.7c-0.9,0-0.6,0.7,0.2,0.6h9.3C257.2,25.6,257.4,24.9,256.6,24.9z M260.5,0.8c-0.6,0-0.5,0.5,0,0.5c1.5,0,2.8,0.2,2.8,2v17.9c-0.2,3.7-0.2,3.7-2.2,3.9c-0.8,0-0.5,0.6,0.1,0.6h14.6c0.8,0,1.1-5.2,0.8-5.2c-0.9,0,0.7,3.3-4.4,3.3c-4.1,0-4.5-0.5-4.6-2.8v-7.9h4.9c2.5,0,1.6,2.8,2.3,2.8c0.4,0,0.8-5.3,0.6-5.4c-0.7-0.4-0.1,0.8-2.3,0.8h-5.5V2.5h4.9c3.1,0,2,2.9,2.8,2.9c0.4,0,0.6-4.7,0.6-4.7c0.1-0.7-1,0.1-2.1,0.1H260.5z M362.1,0.8c-0.6,0-0.5,0.5,0,0.5c1.5,0,2.8,0.2,2.8,2v17.9c-0.2,3.7-0.2,3.7-2.2,3.9c-0.8,0-0.5,0.6,0.1,0.6h14.6c0.8,0,1.1-5.2,0.8-5.2c-0.9,0,0.7,3.3-4.4,3.3c-4.1,0-4.5-0.5-4.6-2.8v-7.9h4.9c2.5,0,1.6,2.8,2.3,2.8c0.4,0,0.8-5.3,0.6-5.4c-0.7-0.4-0.1,0.8-2.3,0.8h-5.5V2.5h4.9c3.1,0,2,2.9,2.8,2.9c0.4,0,0.6-4.7,0.6-4.7c0.1-0.7-1,0.1-2.1,0.1H362.1z M314.6,13.2h-8.8c-0.6,0-0.6,0.6,0,0.6c2.9,0,2.7,1,2.7,5.9c0,3.4,0.6,4.6-3.4,4.7c-10.4,0.3-15.2-14.1-8.4-20.5c4.8-3.9,14.6-2.1,15,3.3c0.1,0.7,0.7,0.6,0.7-0.3c0-4.1,0.2-5,0.2-5.4c0-0.6-0.2-0.2-3.1-0.8c-9.8-1.9-20,0.5-20.5,12.4c0,9.4,7.2,12.9,15.2,12.9c1.7,0,8.4-0.5,8.4-2.2v-4.1c0-5.5,0.1-5.9,2-5.9C315.5,13.8,315.3,13.2,314.6,13.2z M339.5,25.7L339.5,25.7c-6.1,0-9.5-10.4-11.5-10.4h-3.1v4.9c0,4.2,0.2,4.8,2.9,4.8c0.7,0,0.7,0.6,0,0.6h-9c-0.7,0-0.7-0.6,0-0.6c1.9,0,2.3-0.2,2.3-4.8V3.3c0-2.9-3.3-1.6-3.3-2.4c0-0.6,1.8-0.2,5.2-0.2c3.8,0,7.6-0.8,10.7,1.3c3.7,3,2.8,8.3-2.1,11.9c3.9,4.5,7.8,11,11.3,11c2-0.2,1.9,0,2.1-3.7V3.3c0-1.8-1.3-2-2.8-2c-0.5,0-0.6-0.5,0-0.5h13.4c1.1,0,2.2-0.8,2.1-0.1c0,0-0.2,4.7-0.6,4.7c-0.7,0,0.3-2.9-2.8-2.9h-4.9v8.8h5.5c2.1,0,1.6-1.1,2.3-0.8c0.2,0.1-0.3,5.4-0.6,5.4c-0.7,0,0.2-2.8-2.3-2.8h-4.9V21c0.1,2.3,0.5,2.8,4.6,2.8c5.1,0,3.5-3.3,4.4-3.3c0.3,0,0.1,5.2-0.8,5.2H339.5z M324.9,2.3v11.1C334.6,16.6,334.6,0.3,324.9,2.3zM493,2.3v11.1C502.7,16.6,502.7,0.3,493,2.3z M404.2,25.2c2,2,1.5,2.3,2-21.1c0.1-2.4,0.6-2.9,2.2-2.9c1,0,0.7-0.7-0.1-0.6H401c-0.8-0.1-1.3,0.6-0.3,0.6c2,0,2.9,0.2,2.9,3.2l0.3,14.8l-17.7-18c-2.3-2.3-1.6-2.4-2,19.5c-0.1,3.8,0,4.2-2.4,4.3c-0.9,0-0.9,0.6,0,0.6h7.9c0.9,0,0.9-0.6,0-0.6c-2.3-0.1-2.6-0.2-2.8-3.9l-0.4-13.8L404.2,25.2z M446,18.9c-7.9-19.1-7.7-19.8-8.8-17.1L430.7,19l-4.3-14c-0.7-2.9-1.4-3.9,0.5-3.9c0.8,0,0.9-0.6-0.1-0.6H419c-0.7,0-0.7,0.6,0.1,0.6c1.5,0,1.9,0.8,2.5,2.6l7,21c1,3.1,1.2,1.4,8.4-16.9l6.9,16.6c1.6,3.6,1.1,2.5,8.6-19.5c0.9-2.5,1-3.7,3-3.7c0.8,0,0.7-0.7,0-0.6h-6.2c-0.9-0.1-1,0.6-0.2,0.6c2.3,0.1,1.5,1.4,1.3,2.9L446,18.9z M483,12.5c0,18.1-27,18.1-27,0.6C456-3.8,483-4.7,483,12.5zM478.4,13.7c0-13.5-17.3-18-17.8-1.7C460.2,26.1,478.4,29.7,478.4,13.7z M507.6,25.7L507.6,25.7c-6.1,0-9.5-10.4-11.5-10.4H493v4.9c0,4.2,0.2,4.8,2.9,4.8c0.7,0,0.7,0.6,0,0.6h-9c-0.7,0-0.7-0.6,0-0.6c1.9,0,2.3-0.2,2.3-4.8V3.3c0-2.9-3.3-1.6-3.3-2.4c0-0.6,1.8-0.2,5.2-0.2c3.8,0,7.6-0.8,10.7,1.3c3.7,3,2.8,8.3-2.1,11.9c3.9,4.5,7.8,11,11.3,11c1.6,0,2.2-0.3,2.2-3.5V3.1c0-1.9-1.3-1.9-2.6-2c-0.8-0.1-0.7-0.6,0.2-0.6h9c0.9-0.1,1,0.6,0.1,0.6c-1.3,0-2.6,0.1-2.5,2L517.3,19c0,4.7,0.4,4.8,5,4.8c5.6,0,3.9-3.8,4.8-3.4c0.2,0.1,0.4,5.3-1.4,5.3L507.6,25.7z M530.1,25.7c-0.9,0-0.9-0.8,0-0.8c1.4,0,2-0.3,2.1-1.9V3.1c0-1.7-1.2-2-2.7-2c-0.7,0-0.7-0.6,0-0.6l12.7,0c19.1,0.1,18.6,25.2-0.9,25.2H530.1z M536.5,3v19c0,4.2,15.3,3.7,15.3-7.6C551.8,1.3,536.5,1,536.5,3z"/>
</svg>
