<svg width="407" height="178" viewBox="0 0 407 178" fill="none" xmlns="http://www.w3.org/2000/svg">
<path d="M73.6285 23.4224H9.69971V41.6114H73.6285V23.4224Z" fill="white"/>
<path d="M73.6284 41.8771L13.8465 112.124L0 100.342L63.9999 25.1475L73.6284 33.3343V41.8771Z" fill="white"/>
<path d="M42.9271 96.8896H25.6279V146.029H42.9271V96.8896Z" fill="white"/>
<path d="M74.6782 90.4829H56.7739V156.814H74.6782V90.4829Z" fill="white"/>
<path d="M114.1 66.9722H73.6284V85.0901H114.1V66.9722Z" fill="white"/>
<path d="M74.6779 85.7847H25.6279V103.903H74.6779V85.7847Z" fill="white"/>
<path d="M71.5287 127.929H31.0571V146.047H71.5287V127.929Z" fill="white"/>
<path d="M114.099 26.4653H96.6045V125.58H114.099V26.4653Z" fill="white"/>
<path d="M75.5151 163.346L87.5463 177.05C87.5463 177.05 100.503 162.242 104.347 154.376C108.191 146.509 112.534 138.002 114.118 125.597H96.623C96.623 125.597 92.7432 148.556 75.5151 163.364V163.346Z" fill="white"/>
<path d="M168.525 9.34375H81.0142V26.465H168.525V9.34375Z" fill="white"/>
<path d="M177.192 67.0791H114.1V85.1258H177.192V67.0791Z" fill="white"/>
<path d="M156.582 26.4653H138.98V171.675H156.582V26.4653Z" fill="white"/>
<path d="M275.327 17.0322H197.445V34.9365H275.327V17.0322Z" fill="white"/>
<path d="M275.328 0H257.05V102.354H275.328V0Z" fill="white"/>
<path d="M258.495 20.3784L190.092 59.8711L198.991 75.2842L267.394 35.7915L258.495 20.3784Z" fill="white"/>
<path d="M266.206 35.8002L334.61 75.293L343.509 59.8799L275.105 20.3871L266.206 35.8002Z" fill="white"/>
<path d="M237.056 81.9673L178.104 155.604L191.998 166.726L250.95 93.0903L237.056 81.9673Z" fill="white"/>
<path d="M295.642 77.3577L232.365 158.757L246.417 169.68L309.693 88.2806L295.642 77.3577Z" fill="white"/>
<path d="M285.216 92.9624L338.153 166.388L352.59 155.979L299.653 82.5541L285.216 92.9624Z" fill="white"/>
<path d="M231.563 92.975L253.543 123.516L265.147 109.171L245.997 82.5635L231.563 92.975Z" fill="white"/>
<path d="M335.163 17.0322H269.099V34.9365H335.163V17.0322Z" fill="white"/>
<path d="M345.664 84.2363H302.255V102.141H345.664V84.2363Z" fill="white"/>
<path d="M286.291 84.0405H185.86V102.372H286.291V84.0405Z" fill="white"/>
<path d="M247.563 62.9316H228.413V169.307H247.563V62.9316Z" fill="white"/>
<path d="M304.836 62.9316H285.686V169.307H304.836V62.9316Z" fill="white"/>
<path d="M406.3 14.4692C406.335 14.6472 406.353 14.8608 406.371 15.1099C406.371 15.3413 406.389 15.5727 406.389 15.7862C406.389 15.9998 406.389 16.2312 406.371 16.4981C406.371 16.7473 406.335 16.9609 406.3 17.1389L395.942 21.4281L406.3 25.7351C406.335 25.8952 406.353 26.091 406.371 26.3046C406.371 26.536 406.389 26.7673 406.389 26.9809C406.389 27.1767 406.389 27.408 406.371 27.6572C406.371 27.9064 406.335 28.1199 406.3 28.2801L389.748 29.0632C389.713 28.8852 389.695 28.6895 389.677 28.4937C389.677 28.2979 389.659 28.1021 389.659 27.9064C389.659 27.7106 389.659 27.5148 389.677 27.319C389.677 27.1233 389.713 26.9453 389.748 26.7851L402.616 26.2512L393.183 22.1934C393.13 21.8908 393.112 21.5704 393.112 21.2501C393.112 20.9653 393.13 20.6628 393.183 20.378L402.687 16.4625L389.748 15.9286C389.713 15.7684 389.695 15.5905 389.677 15.3947C389.677 15.2167 389.659 15.0387 389.659 14.8608C389.659 14.665 389.659 14.4692 389.677 14.2912C389.677 14.1133 389.713 13.9353 389.748 13.7573L406.3 14.487V14.4692Z" fill="white"/>
<path d="M389.463 39.1722C389.463 37.9797 389.677 36.9475 390.104 36.0576C390.531 35.1855 391.119 34.4558 391.884 33.8863C392.649 33.3168 393.539 32.8718 394.589 32.6049C395.639 32.3201 396.778 32.1777 398.024 32.1777C399.27 32.1777 400.409 32.3201 401.459 32.6049C402.509 32.8896 403.399 33.3168 404.164 33.8863C404.929 34.4558 405.517 35.1855 405.944 36.0576C406.371 36.9297 406.585 37.9797 406.585 39.1722C406.585 40.3646 406.371 41.4147 405.944 42.2867C405.517 43.1588 404.912 43.8885 404.164 44.458C403.399 45.0276 402.509 45.4547 401.459 45.7395C400.409 46.0242 399.27 46.1488 398.024 46.1488C396.778 46.1488 395.639 46.0064 394.589 45.7395C393.539 45.4725 392.649 45.0454 391.884 44.458C391.119 43.8885 390.531 43.1588 390.104 42.2867C389.677 41.4147 389.463 40.3824 389.463 39.1722ZM391.492 39.1722C391.492 39.9375 391.635 40.596 391.937 41.1655C392.24 41.735 392.667 42.1977 393.236 42.5537C393.806 42.9274 394.482 43.1944 395.283 43.3902C396.084 43.5682 396.992 43.6571 398.006 43.6571C399.021 43.6571 399.911 43.5682 400.711 43.3902C401.512 43.2122 402.206 42.9274 402.758 42.5537C403.328 42.1799 403.755 41.7172 404.04 41.1655C404.342 40.6138 404.485 39.9375 404.485 39.1722C404.485 38.4069 404.342 37.7484 404.04 37.1788C403.737 36.6093 403.31 36.1466 402.758 35.7906C402.189 35.4169 401.512 35.1499 400.711 34.9541C399.911 34.7762 399.003 34.6694 398.006 34.6694C397.01 34.6694 396.084 34.7584 395.283 34.9541C394.482 35.1321 393.806 35.4169 393.236 35.7906C392.667 36.1644 392.24 36.6271 391.937 37.1788C391.635 37.7484 391.492 38.4069 391.492 39.1722Z" fill="white"/>
<path d="M406.318 49.6372C406.353 49.9753 406.371 50.2779 406.407 50.5626C406.442 50.8474 406.46 51.1144 406.496 51.3813C406.513 51.6483 406.531 51.933 406.549 52.2178C406.549 52.5026 406.567 52.8229 406.567 53.1789C406.567 53.962 406.496 54.745 406.335 55.5103C406.175 56.2756 405.908 56.9697 405.535 57.5571C405.143 58.1622 404.627 58.6427 403.986 59.0165C403.328 59.3902 402.509 59.586 401.512 59.586C400.907 59.586 400.373 59.497 399.875 59.2834C399.377 59.0876 398.949 58.8385 398.558 58.5181C398.166 58.2156 397.846 57.8596 397.561 57.4681C397.277 57.0765 397.045 56.7028 396.849 56.329L396.707 56.0621L389.73 60.8674C389.677 60.4581 389.659 59.9953 389.659 59.4614C389.659 59.0521 389.677 58.6249 389.73 58.2156L397.401 52.9119H397.49L397.543 53.0899C397.65 53.4992 397.793 53.9442 397.971 54.4069C398.149 54.8696 398.398 55.2968 398.7 55.6883C399.003 56.0799 399.359 56.4002 399.786 56.6672C400.213 56.9341 400.711 57.0587 401.317 57.0587C402.42 57.0587 403.239 56.7384 403.773 56.0799C404.307 55.4214 404.574 54.5493 404.574 53.4458C404.574 53.1789 404.574 52.9475 404.556 52.7161C404.556 52.4848 404.52 52.2356 404.485 51.9686H389.73C389.73 51.8085 389.695 51.6127 389.677 51.3991C389.677 51.1855 389.659 50.9898 389.659 50.8118C389.659 50.6338 389.659 50.4202 389.659 50.2067C389.659 49.9931 389.695 49.7973 389.713 49.6016H406.3L406.318 49.6372Z" fill="white"/>
<path d="M406.3 63.3408C406.335 63.5188 406.353 63.7146 406.371 63.9103C406.371 64.1061 406.389 64.3019 406.389 64.5155C406.389 64.729 406.389 64.907 406.371 65.1206C406.371 65.3163 406.335 65.5121 406.3 65.6901H389.748C389.713 65.5121 389.695 65.3163 389.677 65.1206C389.677 64.9248 389.659 64.729 389.659 64.5155C389.659 64.3197 389.659 64.1061 389.677 63.9103C389.677 63.6968 389.713 63.5188 389.748 63.3408H406.3Z" fill="white"/>
<path d="M367.377 23.5459V17.2634L363.55 16.1421C363.515 15.9464 363.497 15.7506 363.479 15.537C363.479 15.3413 363.461 15.1455 363.461 14.9319C363.461 14.7183 363.461 14.5048 363.479 14.2912C363.479 14.0776 363.515 13.8997 363.55 13.7217L380.102 19.1143C380.138 19.3101 380.156 19.5237 380.173 19.755C380.173 19.9864 380.191 20.2178 380.191 20.4669C380.191 20.6805 380.191 20.9119 380.173 21.1433C380.173 21.3746 380.138 21.606 380.102 21.8196L363.55 27.1944C363.515 27.0164 363.497 26.8029 363.479 26.5715C363.479 26.3401 363.461 26.1088 363.461 25.8952C363.461 25.6994 363.461 25.4858 363.479 25.2901C363.479 25.0765 363.515 24.8807 363.55 24.7028L367.377 23.5459ZM369.424 17.8863V22.923L377.877 20.3958L369.424 17.8863Z" fill="white"/>
<path d="M380.137 29.6508C380.173 29.989 380.19 30.2915 380.226 30.5763C380.262 30.8611 380.279 31.128 380.315 31.395C380.333 31.662 380.351 31.9467 380.368 32.2315C380.368 32.5162 380.386 32.8366 380.386 33.1925C380.386 33.9756 380.315 34.7587 380.155 35.524C379.995 36.2893 379.728 36.9834 379.354 37.5707C378.962 38.1758 378.446 38.6564 377.806 39.0301C377.147 39.4039 376.328 39.5997 375.332 39.5997C374.727 39.5997 374.193 39.5107 373.694 39.2971C373.196 39.1013 372.769 38.8522 372.377 38.5318C371.986 38.2292 371.665 37.8733 371.381 37.4817C371.096 37.0902 370.865 36.7165 370.669 36.3427L370.526 36.0757L363.55 40.8811C363.496 40.4717 363.479 40.009 363.479 39.4751C363.479 39.0657 363.496 38.6386 363.55 38.2292L371.22 32.9256H371.309L371.363 33.1036C371.47 33.5129 371.612 33.9578 371.79 34.4206C371.968 34.8833 372.217 35.3104 372.52 35.702C372.822 36.0935 373.178 36.4139 373.605 36.6809C374.032 36.9478 374.531 37.0724 375.136 37.0724C376.239 37.0724 377.058 36.752 377.592 36.0935C378.126 35.435 378.393 34.5629 378.393 33.4595C378.393 33.1925 378.393 32.9612 378.375 32.7298C378.375 32.5162 378.339 32.2493 378.304 31.9823H363.55C363.55 31.8221 363.514 31.6264 363.496 31.4128C363.496 31.1992 363.479 31.0034 363.479 30.8255C363.479 30.6475 363.479 30.4339 363.479 30.2204C363.479 30.0068 363.514 29.811 363.532 29.6152H380.119L380.137 29.6508Z" fill="white"/>
<path d="M365.971 53.5698C365.313 53.908 364.672 54.1215 364.067 54.2105C363.8 53.5698 363.586 52.9113 363.462 52.235C363.337 51.5587 363.284 50.829 363.284 50.0459C363.284 48.8535 363.479 47.7678 363.871 46.8068C364.263 45.8457 364.814 45.0448 365.544 44.3685C366.274 43.71 367.164 43.1939 368.196 42.8557C369.246 42.4998 370.421 42.3218 371.72 42.3218C373.019 42.3218 374.229 42.4998 375.297 42.8557C376.365 43.2117 377.273 43.71 378.02 44.3685C378.768 45.027 379.355 45.8279 379.764 46.789C380.174 47.7322 380.369 48.8001 380.369 49.9925C380.369 50.8646 380.316 51.6121 380.191 52.2528C380.067 52.8757 379.924 53.4452 379.746 53.9258C379.39 53.8902 379.07 53.8368 378.768 53.73C378.465 53.6232 378.145 53.5164 377.806 53.374C377.878 53.1427 377.949 52.9113 378.02 52.6977C378.073 52.4842 378.127 52.2528 378.18 52.0036C378.234 51.7545 378.251 51.4875 378.287 51.1849C378.305 50.8824 378.323 50.5442 378.323 50.1527C378.323 48.4797 377.753 47.1805 376.614 46.255C375.475 45.3296 373.838 44.8668 371.702 44.8668C370.616 44.8668 369.673 44.9914 368.872 45.2584C368.071 45.5253 367.413 45.8813 366.897 46.3618C366.38 46.8423 365.989 47.4119 365.722 48.0704C365.455 48.7467 365.33 49.4942 365.33 50.3129C365.33 50.9536 365.384 51.5409 365.491 52.057C365.597 52.5732 365.758 53.0715 365.953 53.5342L365.971 53.5698Z" fill="white"/>
<path d="M380.119 57.2368C380.155 57.4148 380.173 57.6106 380.19 57.8063C380.19 58.0021 380.208 58.1979 380.208 58.4115C380.208 58.625 380.208 58.803 380.19 59.0166C380.19 59.2123 380.155 59.4081 380.119 59.5861H373.303V66.6339H380.119C380.155 66.7941 380.173 66.9899 380.19 67.1856C380.19 67.3814 380.208 67.5772 380.208 67.7908C380.208 68.0043 380.208 68.2001 380.19 68.3959C380.19 68.6094 380.155 68.8052 380.119 68.9832H363.568C363.532 68.823 363.514 68.6272 363.496 68.4315C363.496 68.2357 363.479 68.0221 363.479 67.8085C363.479 67.6128 363.479 67.3992 363.496 67.2034C363.496 66.9899 363.532 66.8119 363.568 66.6339H371.238V59.5861H363.568C363.532 59.4081 363.514 59.2123 363.496 59.0166C363.496 58.8208 363.479 58.625 363.479 58.4115C363.479 58.2157 363.479 58.0021 363.496 57.8063C363.496 57.5928 363.532 57.4148 363.568 57.2368H380.119Z" fill="white"/>
<path d="M380.119 73.0225C380.155 73.2004 380.173 73.3962 380.19 73.592C380.19 73.7878 380.208 73.9835 380.208 74.1971C380.208 74.4107 380.208 74.5886 380.19 74.8022C380.19 74.998 380.155 75.1938 380.119 75.3717H363.568C363.532 75.1938 363.514 74.998 363.496 74.8022C363.496 74.6064 363.479 74.4107 363.479 74.1971C363.479 74.0013 363.479 73.7878 363.496 73.592C363.496 73.3784 363.532 73.2004 363.568 73.0225H380.119Z" fill="white"/>
<path d="M378.073 82.2959V77.9889C378.233 77.9533 378.393 77.9355 378.571 77.9177C378.749 77.9177 378.927 77.8999 379.105 77.8999C379.283 77.8999 379.443 77.8999 379.621 77.9177C379.799 77.9177 379.959 77.9533 380.119 77.9889V88.9522C379.959 88.9878 379.799 89.0056 379.639 89.0234C379.461 89.0234 379.301 89.0412 379.14 89.0412C378.98 89.0412 378.784 89.0412 378.606 89.0234C378.411 89.0234 378.251 88.9878 378.09 88.9522V84.6452H363.585C363.532 84.2892 363.514 83.9155 363.514 83.4883C363.514 83.0612 363.532 82.6518 363.585 82.2959H378.09H378.073Z" fill="white"/>
<path d="M380.12 91.5327V100.627C379.817 100.681 379.479 100.698 379.105 100.698C378.945 100.698 378.767 100.698 378.571 100.698C378.394 100.698 378.216 100.663 378.073 100.645V93.8998H373.339V99.2924C373.179 99.328 373.019 99.3458 372.841 99.3636C372.663 99.3636 372.485 99.3814 372.325 99.3814C372.164 99.3814 371.969 99.3814 371.791 99.3636C371.613 99.3636 371.435 99.328 371.292 99.2924V93.8998H365.633V100.823C365.33 100.876 364.992 100.894 364.618 100.894C364.44 100.894 364.28 100.894 364.084 100.894C363.906 100.894 363.728 100.859 363.586 100.841V91.5683H380.138L380.12 91.5327Z" fill="white"/>
<path d="M365.971 114.456C365.313 114.794 364.672 115.008 364.067 115.097C363.8 114.456 363.586 113.797 363.462 113.121C363.337 112.445 363.284 111.715 363.284 110.932C363.284 109.739 363.479 108.654 363.871 107.693C364.263 106.732 364.814 105.931 365.544 105.272C366.274 104.614 367.164 104.098 368.196 103.76C369.246 103.404 370.421 103.226 371.72 103.226C373.019 103.226 374.229 103.404 375.297 103.76C376.365 104.115 377.273 104.614 378.02 105.272C378.768 105.931 379.355 106.732 379.764 107.693C380.174 108.636 380.369 109.704 380.369 110.896C380.369 111.768 380.316 112.516 380.191 113.157C380.067 113.78 379.924 114.349 379.746 114.83C379.39 114.794 379.07 114.741 378.768 114.634C378.465 114.527 378.145 114.42 377.806 114.278C377.878 114.046 377.949 113.815 378.02 113.602C378.073 113.388 378.127 113.157 378.18 112.907C378.234 112.658 378.251 112.391 378.287 112.089C378.305 111.786 378.323 111.448 378.323 111.057C378.323 109.384 377.753 108.084 376.614 107.159C375.475 106.233 373.838 105.771 371.702 105.771C370.616 105.771 369.673 105.895 368.872 106.162C368.071 106.429 367.413 106.785 366.897 107.266C366.38 107.746 365.989 108.316 365.722 108.974C365.455 109.65 365.33 110.398 365.33 111.217C365.33 111.857 365.384 112.445 365.491 112.961C365.597 113.477 365.758 113.975 365.953 114.438L365.971 114.456Z" fill="white"/>
<path d="M378.073 120.969V116.662C378.233 116.627 378.393 116.609 378.571 116.591C378.749 116.591 378.927 116.573 379.105 116.573C379.283 116.573 379.443 116.573 379.621 116.591C379.799 116.591 379.959 116.627 380.119 116.662V127.626C379.959 127.661 379.799 127.679 379.639 127.697C379.461 127.697 379.301 127.715 379.14 127.715C378.98 127.715 378.784 127.714 378.606 127.697C378.411 127.697 378.251 127.661 378.09 127.626V123.319H363.585C363.532 122.963 363.514 122.589 363.514 122.162C363.514 121.735 363.532 121.325 363.585 120.969H378.09H378.073Z" fill="white"/>
<path d="M380.12 130.064C380.174 130.438 380.191 130.83 380.191 131.257C380.191 131.684 380.174 132.058 380.12 132.414H370.723C369.78 132.414 368.961 132.485 368.285 132.592C367.608 132.716 367.057 132.912 366.63 133.197C366.202 133.482 365.9 133.838 365.704 134.282C365.508 134.745 365.402 135.297 365.402 135.955C365.402 136.614 365.508 137.166 365.704 137.611C365.9 138.056 366.22 138.411 366.63 138.696C367.057 138.963 367.591 139.177 368.285 139.301C368.961 139.426 369.78 139.479 370.723 139.479H380.12C380.174 139.853 380.191 140.262 380.191 140.654C380.191 141.081 380.174 141.49 380.12 141.846H370.314C369.21 141.846 368.214 141.74 367.342 141.544C366.469 141.33 365.722 140.992 365.135 140.529C364.53 140.067 364.085 139.444 363.764 138.696C363.444 137.949 363.284 137.023 363.284 135.955C363.284 134.888 363.444 133.962 363.764 133.215C364.085 132.467 364.53 131.844 365.135 131.381C365.74 130.919 366.469 130.581 367.342 130.367C368.214 130.153 369.21 130.064 370.314 130.064H380.12Z" fill="white"/>
<path d="M380.137 145.797C380.173 146.135 380.19 146.438 380.226 146.722C380.262 147.007 380.279 147.274 380.315 147.541C380.333 147.808 380.351 148.093 380.368 148.377C380.368 148.662 380.386 148.983 380.386 149.339C380.386 150.122 380.315 150.905 380.155 151.67C379.995 152.435 379.728 153.129 379.354 153.717C378.962 154.322 378.446 154.802 377.806 155.176C377.147 155.55 376.328 155.746 375.332 155.746C374.727 155.746 374.193 155.657 373.694 155.443C373.196 155.247 372.769 154.998 372.377 154.678C371.986 154.375 371.665 154.019 371.381 153.628C371.096 153.236 370.865 152.862 370.669 152.489L370.526 152.222L363.55 157.027C363.496 156.618 363.479 156.155 363.479 155.621C363.479 155.212 363.496 154.785 363.55 154.375L371.22 149.072H371.309L371.363 149.25C371.47 149.659 371.612 150.104 371.79 150.567C371.968 151.029 372.217 151.456 372.52 151.848C372.822 152.24 373.178 152.56 373.605 152.827C374.032 153.094 374.531 153.218 375.136 153.218C376.239 153.218 377.058 152.898 377.592 152.24C378.126 151.581 378.393 150.709 378.393 149.605C378.393 149.339 378.393 149.107 378.375 148.876C378.375 148.644 378.339 148.395 378.304 148.128H363.55C363.55 147.968 363.514 147.772 363.496 147.559C363.496 147.345 363.479 147.149 363.479 146.971C363.479 146.793 363.479 146.58 363.479 146.366C363.479 146.153 363.514 145.957 363.532 145.761H380.119L380.137 145.797Z" fill="white"/>
<path d="M380.12 159.483V168.577C379.817 168.631 379.479 168.649 379.105 168.649C378.945 168.649 378.767 168.649 378.571 168.649C378.394 168.649 378.216 168.613 378.073 168.595V161.85H373.339V167.243C373.179 167.278 373.019 167.296 372.841 167.314C372.663 167.314 372.485 167.332 372.325 167.332C372.164 167.332 371.969 167.332 371.791 167.314C371.613 167.314 371.435 167.278 371.292 167.243V161.85H365.633V168.773C365.33 168.827 364.992 168.844 364.618 168.844C364.44 168.844 364.28 168.844 364.084 168.844C363.906 168.844 363.728 168.809 363.586 168.791V159.518H380.138L380.12 159.483Z" fill="white"/>
</svg>
