<svg width="1196" height="580" viewBox="0 0 1196 580" fill="none" xmlns="http://www.w3.org/2000/svg">
<path d="M86.44 120.04L63.43 253.63C42.96 224.18 32.82 191.2 33 154.69C32.82 121.36 41.55 87.15 59.19 52.05L48.61 11.58H281.93V78.24H162.36C175.23 81.77 191.37 84.32 210.77 85.91V99.14H289.34V120.04H210.77V144.91H273.46V264.21C268.7 262.45 260.94 261.04 250.18 259.98C238.71 258.74 228.93 258.39 220.82 258.92V238.82H96.49V144.91H158.39V120.04H86.44ZM90.14 99.14H158.39V78.24H93.58L90.14 99.14ZM232.19 57.34V31.15H101.78L97.28 57.34H232.19ZM147.8 217.91H220.81V164.74H147.8V217.91Z" fill="white"/>
<path d="M349.65 258.65V144.9L330.87 180.61C324.17 166.15 320.9 150.37 321.08 133.26C320.9 81.06 336.42 47.47 367.64 32.47L364.73 0.990005L416.84 16.86L380.34 86.43C388.98 88.02 395.24 88.9 399.12 89.08V265.26C387.12 260.85 370.64 258.65 349.65 258.65ZM564.71 155.48H517.09V229.81H582.69V251.24H405.98V229.81H464.71V155.48H420.8V134.32H464.71V83.53H412.33V62.1H480.58L459.42 42L490.63 9.46001L523.43 40.41L502.8 62.1H577.4V83.53H475.29C486.22 87.59 500.16 89.88 517.09 90.41V134.32H564.71V155.48Z" fill="white"/>
<path d="M777.39 229.03H869.98V250.46H615.5V229.03H645.13V66.6C664.18 71.54 681.02 74.01 695.66 74.01V229.03H726.61V38.83H627.68V17.4H862.58V38.83H735.34C752.8 43.59 766.82 45.97 777.4 45.97V97.82H855.17V119.25H777.4V229.03H777.39Z" fill="white"/>
<path d="M1131.33 118.45L1152.76 140.41L1135.83 156.81H1162.28V176.12H1148.52L1161.48 197.28L1133.18 209.71L1161.48 264.2C1134.32 261.03 1112.1 248.59 1094.82 226.9L1021.28 259.7C1027.45 225.14 1046.15 203.53 1077.36 194.89C1074.89 188.72 1073.3 182.46 1072.6 176.11H1008.32V183.78C1026.13 183.78 1039.8 185.37 1049.32 188.54C1034.33 192.07 1020.66 195.77 1008.32 199.65V259.7C980.63 248.94 953.74 246.56 927.64 252.56C933.63 239.51 945.72 229.9 963.88 223.73V215.27C945.18 223.03 930.81 230.53 920.76 237.76L904.09 198.08C919.26 193.32 939.18 189.53 963.87 186.7V176.12H906.73V156.81H963.87V147.02L924.19 151.52C936.71 137.76 953.11 126.04 973.39 116.34H907.52V96.24H1009.1V81.16H943.5V64.49H1009.1V51.26H923.39V33.8H978.41L967.83 22.95L989.26 2.05L1009.89 23.21L999.57 33.79H1051.95L1067.82 1.25L1106.97 12.62C1102.56 20.91 1095.68 27.96 1086.34 33.78H1148.24V51.24H1057.24V64.47H1129.72V81.14H1057.24V96.22H1161.46V116.32H1084.75L1105.91 156.79H1126.01L1109.61 139.86L1131.3 118.43L1131.33 118.45ZM1034.51 139.35L1008.32 142.26V156.81H1070.48L1044.03 128.77L1072.6 116.34H1023.66L1034.51 139.35ZM1122.07 188.29C1122.77 188.29 1123.92 188.12 1125.51 187.76C1126.92 187.76 1128.06 187.67 1128.95 187.5L1135.83 176.12H1115.73L1122.08 188.29H1122.07Z" fill="white"/>
<path d="M126.49 470.21H212.81V487.52H126.49V578.28C114.8 575.47 100.16 573.99 82.55 573.84V487.52H0V470.21H82.55V388.77H10.87V369.24H196.39V388.77H86.1C98.08 391.14 111.54 392.69 126.49 393.43V470.21ZM13.54 419.39L44.16 391.65L71.45 423.38L40.83 450.9L13.54 419.39ZM199.5 411.4C191.96 423.24 182.26 433.22 170.43 441.36C156.23 451.42 141.95 456.6 127.6 456.89L152.68 396.53L199.5 411.4Z" fill="white"/>
<path d="M371.92 533.67L381.02 541.44C396.7 540.55 408.54 541.74 416.53 544.99C427.92 550.02 438.06 560.75 446.93 577.17L343.74 559.64L356.83 533.68H314.45L332.2 559.87L228.35 573.41C235.89 562.02 243.81 553.95 252.09 549.22C263.33 542.71 277.17 540.64 293.59 543.01L299.58 533.69H256.09V459.35H420.75V533.69H371.93L371.92 533.67ZM409.64 432.26L408.53 451.57H268.95L270.95 432.26H232.34V418.28H272.5L273.39 408.07H238.33V375.67H318.88V359.25C328.05 360.88 341.29 361.69 358.6 361.69V375.67H436.93V408.07H410.97L410.53 418.28H442.26V432.26H409.64ZM400.76 390.99H274.27V398.76H400.76V390.99ZM381.01 478.64V471.76H295.13V478.64H381.01ZM295.13 498.17H381.01V490.18H295.13V498.17ZM381.01 509.71H295.13V519.92H381.01V509.71ZM323.31 432.26H304.89L304.22 439.14H322.64L323.31 432.26ZM325.31 410.51H306.67L306 418.28H324.64L325.31 410.51ZM355.49 439.14H376.35L377.02 432.26H356.16L355.49 439.14ZM358.15 410.51L357.48 418.28H378.56L379.45 410.51H358.15Z" fill="white"/>
<path d="M682.17 578.35H474.13C487.55 565.82 502.16 551 517.94 533.87C533.73 516.74 546.86 501.47 557.35 488.04C567.83 475 577 460.33 584.86 444.03C592.72 427.73 596.65 410.95 596.65 393.7C596.65 384.24 594.67 375.42 590.71 367.24C586.75 359.06 580.96 352.41 573.36 347.3C565.75 342.19 556.9 339.63 546.8 339.63C533.89 339.63 521.87 343.63 510.75 351.61C499.63 359.6 491.45 370.11 486.21 383.15H479.11C482.31 363.21 488.06 347.1 496.37 334.83C504.68 322.56 513.88 313.42 523.98 307.41C534.08 301.4 543.34 297.54 551.78 295.81C560.22 294.08 567.69 293.22 574.21 293.22C588.78 293.22 602.3 296.29 614.76 302.42C627.22 308.55 637.13 317.28 644.48 328.59C651.83 339.9 655.51 352.97 655.51 367.8C655.51 381.61 653.21 394.97 648.61 407.88C644.01 420.79 637.3 433.61 628.48 446.32C619.66 459.04 608.6 472.3 595.31 486.11C582.02 499.92 566.36 514.81 548.33 530.79C545.65 533.47 544.05 534.69 543.54 534.43V535.19H636.15C649.83 535.19 659.8 532.44 666.06 526.95C675.9 518.64 683.25 506.82 688.11 491.48H693.67L682.16 578.34L682.17 578.35Z" fill="url(#paint0_linear_3_21)" stroke="url(#paint1_linear_3_21)" stroke-width="2.45" stroke-miterlimit="10"/>
<path d="M848.37 490.84V578.05C836.24 571.24 821.96 567.99 805.54 568.29C791.93 568.29 778.69 570.58 765.82 575.17C774.7 557.86 788.31 547.73 806.65 544.77V490.85H721.66V472.88H806.65V445.36C814.49 447.14 822.77 448.32 831.5 448.91L834.83 437.37H776.91V419.4H879.43C872.77 443.37 862.71 461.19 849.25 472.88H935.8V490.85H848.37V490.84ZM768.48 441.35H727.21V386.32H804.88V360.13C813.46 362.65 827.22 363.9 846.16 363.9V386.31H928.71V440.01H887.66V404.28H768.49V441.34L768.48 441.35Z" fill="white"/>
<path d="M1010.14 474.64L1042.54 484.85C1032.92 497.87 1023.38 508.59 1013.91 517.03C1025.3 518.07 1034.18 519.99 1040.54 522.8C1012.28 527.68 986.25 543.66 962.43 570.73L950 524.8C963.61 519.33 980.25 516.59 999.93 516.59L1010.14 474.65V474.64ZM1035.44 384.55H954.22V368.13H1035.44V384.55ZM998.83 492.84L977.08 513.03L957.77 492.17L979.52 471.75L998.83 492.83V492.84ZM960.44 400.97H1036.55V467.54H960.44V400.97ZM992.84 451.12H1003.05V416.28H992.84V451.12ZM1124.88 513.48L1128.87 522.13C1139.67 522.72 1148.69 527.01 1155.94 535C1164.37 544.62 1168.59 557.93 1168.59 574.94L1098.02 534.55L1110.23 513.47H1082.49L1095.8 535.44L1029.45 577.82C1030.19 545.13 1043.35 526.86 1068.95 523.01L1072.5 513.47H1049.64V398.97H1072.94L1075.82 383.44H1046.53V367.24H1160.37V383.44H1113.55C1112.66 388.18 1111.33 393.35 1109.55 398.97H1153.27V513.47H1124.87L1124.88 513.48ZM1088.26 428.49H1114.67V415.18H1088.26V428.49ZM1114.67 443.8H1088.26V455.12H1114.67V443.8ZM1114.67 470.43H1088.26V498.17H1114.67V470.43Z" fill="white"/>
<path d="M1155.28 579.94C1177.76 579.94 1195.99 561.714 1195.99 539.23C1195.99 516.747 1177.76 498.52 1155.28 498.52C1132.8 498.52 1114.57 516.747 1114.57 539.23C1114.57 561.714 1132.8 579.94 1155.28 579.94Z" fill="white"/>
<path d="M1146.15 556.69C1149.27 557.75 1153.21 557.98 1157.92 557.98C1162.39 558.04 1177.98 558.04 1183.28 557.74C1182.22 559.39 1181.04 562.57 1180.63 564.68H1157.92C1147.04 564.68 1140.03 563.21 1135.38 556.62C1134.79 560.62 1133.91 564.09 1132.67 566.98C1131.38 566.16 1128.26 564.63 1126.79 563.98C1129.67 558.04 1130.26 548.21 1130.38 538.15L1136.79 538.62C1136.73 541.21 1136.61 543.8 1136.5 546.21C1137.32 548.8 1138.44 550.86 1139.74 552.45V534.74H1128.33V528.62H1138.27V523.15H1129.97V517.09H1138.27V511.38H1144.86V517.09H1152.69V523.15H1144.86V528.62H1154.1V534.74H1146.16V541.09H1153.63V547.15H1146.16V556.68L1146.15 556.69ZM1165.27 555.28C1158.68 555.28 1156.56 553.28 1156.56 545.81V513.51H1179.27V535.87H1163.33V545.81C1163.33 548.52 1163.68 548.99 1166.15 548.99H1173.74C1175.98 548.99 1176.39 547.64 1176.74 541.4C1178.21 542.52 1180.98 543.64 1182.86 544.11C1182.09 552.46 1180.21 555.29 1174.33 555.29H1165.27V555.28ZM1163.33 519.62V529.8H1172.57V519.62H1163.33Z" fill="#036EB7"/>
<defs>
<linearGradient id="paint0_linear_3_21" x1="470.09" y1="574.31" x2="681.29" y2="363.11" gradientUnits="userSpaceOnUse">
<stop stop-color="#A58855"/>
<stop offset="0.16" stop-color="#8B6A3B"/>
<stop offset="0.37" stop-color="#D8BF7F"/>
<stop offset="0.6" stop-color="#C5AA6D"/>
<stop offset="0.71" stop-color="#9C7C45"/>
<stop offset="0.94" stop-color="#C2A66B"/>
<stop offset="1" stop-color="#DBC9A6"/>
</linearGradient>
<linearGradient id="paint1_linear_3_21" x1="471.02" y1="435.79" x2="695.08" y2="435.79" gradientUnits="userSpaceOnUse">
<stop stop-color="#FBF9D7"/>
<stop offset="0.16" stop-color="#8B6A3B"/>
<stop offset="0.37" stop-color="#D8BF7F"/>
<stop offset="0.53" stop-color="#69461F"/>
<stop offset="0.72" stop-color="#C5AA6D"/>
<stop offset="0.84" stop-color="#816032"/>
<stop offset="0.86" stop-color="#836334"/>
<stop offset="0.88" stop-color="#8D6C3C"/>
<stop offset="0.89" stop-color="#9C7D4A"/>
<stop offset="0.9" stop-color="#B2945D"/>
<stop offset="0.91" stop-color="#C2A66B"/>
<stop offset="1" stop-color="white"/>
</linearGradient>
</defs>
</svg>
