<svg width="450" height="297" viewBox="0 0 450 297" fill="none" xmlns="http://www.w3.org/2000/svg">
<path d="M27.6321 88.8447L42.1804 94.7481L19.4073 132.915L29.5281 140.294L44.0764 115.41L56.5239 122.374L20.8831 167.506L49.3548 167.295C48.63 164.995 47.8159 162.716 46.9441 160.462C45.7414 157.369 44.4861 153.33 41.7655 151.224C47.7267 152.521 52.8159 156.319 56.7918 160.82C60.2477 164.732 64.4756 170.063 64.2288 175.604C63.9872 181.067 57.5901 182.416 53.9977 178.929C53.5197 178.467 50.6311 174.034 50.6206 174.034L37.3327 176.986C37.3327 181.933 37.3327 186.886 37.3327 191.833C37.3327 200.573 39.3863 216.98 26.5764 217.894V179.727L14.1342 182.889L24.8905 187.106C24.8905 187.106 12.8684 212.837 0.851562 215.788C0.851562 215.788 13.2938 190.694 12.6636 184.155L10.5522 182.889L2.96291 183.945L1.27173 168.136L8.44086 168.346L21.9388 151.266L2.11732 128.703L9.07637 128.913L27.6321 88.8447Z" fill="white"/>
<path d="M42.8896 181.208C51.918 186.555 63.063 196.497 63.2521 207.779C63.3099 211.125 61.7237 214.439 58.2206 215.111C57.3802 215.274 56.4821 215.247 55.7048 214.896C53.4201 213.861 52.501 210.4 51.7342 208.22C50.626 205.053 49.7121 201.823 48.6512 198.64C46.4033 191.897 42.8896 181.208 42.8896 181.208Z" fill="white"/>
<path d="M156.55 88.8447L171.099 94.7481L148.326 132.915L158.446 140.294L172.995 115.41L185.442 122.374L149.801 167.506L178.268 167.295C177.543 164.995 176.729 162.716 175.857 160.462C174.654 157.369 173.399 153.33 170.679 151.224C176.64 152.521 181.729 156.319 185.705 160.82C189.161 164.732 193.389 170.063 193.142 175.604C192.9 181.067 186.503 182.416 182.911 178.929C182.433 178.467 179.544 174.034 179.534 174.034L166.246 176.986C166.246 181.933 166.246 186.886 166.246 191.833C166.246 200.573 168.299 216.98 155.489 217.894V179.727L143.047 182.889L153.804 187.106C153.804 187.106 141.781 212.837 129.765 215.788C129.765 215.788 142.207 190.694 141.577 184.155L139.465 182.889L131.876 183.945L130.19 168.131L137.359 168.341L150.857 151.261L131.036 128.698L137.995 128.908L156.55 88.8447Z" fill="white"/>
<path d="M171.808 181.208C180.836 186.555 191.981 196.497 192.17 207.779C192.228 211.125 190.642 214.439 187.139 215.111C186.298 215.274 185.4 215.247 184.623 214.896C182.338 213.861 181.419 210.4 180.652 208.22C179.544 205.053 178.63 201.823 177.569 198.64C175.321 191.897 171.808 181.208 171.808 181.208Z" fill="white"/>
<path d="M69.6016 129.06L74.8012 137.637H123.304V129.06H69.6016Z" fill="white"/>
<path d="M69.6016 151.424L74.8012 160.001H123.304V151.424H69.6016Z" fill="white"/>
<path d="M71.9912 174.601V217.905H105.731C105.731 217.905 124.57 218.887 124.57 200.473C124.57 182.054 124.57 174.606 124.57 174.606H71.9912V174.601ZM109.528 197.096C109.528 213.404 93.924 212.138 93.924 212.138H87.0333V182.054H109.528V197.096Z" fill="white"/>
<path d="M28.6882 229.995C26.6294 234.99 24.4077 239.927 22.1126 244.817C18.0842 253.409 13.956 262.479 7.98964 269.927C4.94867 273.724 -0.0040735 278.183 2.42765 283.651C3.88249 286.928 7.35413 287.348 10.4634 286.403C14.2502 285.253 16.8762 282.458 18.725 279.018C23.0264 270.998 24.6126 261.151 26.0569 252.264C27.1388 245.578 27.9529 238.845 28.5254 232.101C28.5727 231.508 28.4571 230.552 28.6882 229.995Z" fill="white"/>
<path d="M46.9648 229.995H62.0069V274.701H117.537C117.537 274.701 142.7 274.701 151.14 254.454C151.14 254.454 152.264 288.477 113.745 288.477C75.2264 288.477 60.1792 288.477 60.1792 288.477C60.1792 288.477 46.9648 290.305 46.9648 273.714C46.9648 257.128 46.9648 229.995 46.9648 229.995Z" fill="white"/>
<path d="M82.7578 228.682C83.9553 229.659 86.3975 229.491 87.8366 229.769C89.8482 230.158 91.844 230.946 93.74 231.707C103.787 235.746 113.026 243.346 117.122 253.582C119.139 258.624 117.306 264.507 111.004 264.265C104.486 264.018 102.553 257.737 99.927 252.963C95.8671 245.578 91.6969 237.9 85.8303 231.597C84.8639 230.557 83.8503 229.575 82.7578 228.682Z" fill="white"/>
<path d="M151.398 232.579C152.417 233.178 153.384 235.268 154.035 236.208C156.383 239.585 158.573 243.068 160.626 246.628C164.823 253.903 167.864 261.97 171.078 269.79C172.706 273.756 173.946 278.167 176.829 281.461C180.227 285.347 185.926 285.904 189.093 281.35C193.867 274.48 189.644 265.872 185.264 259.974C176.535 248.236 163.83 239.911 151.398 232.579Z" fill="white"/>
<path d="M106.571 106.697V88.8447H89.423V106.697H69.6016L74.8012 115.273H123.304V106.697H106.571Z" fill="white"/>
<path d="M248.546 90.0366C248.546 90.1837 248.62 91.2709 248.761 93.2982L240.285 94.3854V242.175C240.721 259.564 230.285 277.526 208.987 296.077L206.377 294.123C219.271 276.592 225.647 259.275 225.505 242.18V96.9904C225.211 95.6879 224.344 94.8896 222.895 94.6007L209.418 93.5135L209.203 90.252L248.546 90.0366Z" fill="white"/>
<path d="M260.936 242.39L261.151 239.349L272.453 237.826C273.903 237.684 274.77 236.739 275.064 235H275.279V97.6417H275.064C274.77 95.7614 273.903 94.7425 272.453 94.6007L261.151 93.5135L260.936 90.252L304.623 90.0366C304.623 90.1837 304.691 91.2709 304.838 93.2982L290.059 94.6007V238.046L304.838 238.918C304.838 239.065 304.764 240.152 304.623 242.18L260.936 242.39Z" fill="white"/>
<path d="M309.182 242.39L309.397 239.349L320.7 237.826C321.713 237.684 322.58 236.739 323.31 235L370.253 90.0366H384.597L434.586 238.046L449.581 238.918C449.581 239.065 449.508 240.152 449.366 242.18L405.899 242.395C405.899 241.093 405.973 240.079 406.115 239.354L417.417 237.831C418.578 237.689 419.156 236.817 419.156 235.221L407.202 199.795H339.392L327.874 237.61L353.084 238.913C353.084 239.06 353.011 240.147 352.869 242.175L309.182 242.39ZM371.776 94.1648L340.7 195.446H405.684L371.776 94.1648Z" fill="white"/>
<path d="M261.713 289.149V265.315H264.518C268.215 271.03 276.86 284.265 278.352 286.849H278.388C278.184 283.43 278.215 279.911 278.215 276.03V265.315H280.148V289.149H277.553C274.034 283.651 265.237 269.853 263.546 267.227H263.509C263.677 270.336 263.646 273.84 263.646 278.162V289.144H261.713V289.149Z" fill="#FFF100"/>
<path d="M300.332 277.463H288.195V287.39H301.493L301.215 289.144H286.288V265.31H300.947V267.064H288.195V275.704H300.332V277.463Z" fill="#FFF100"/>
<path d="M309.702 289.149L303.11 265.315H305.096C306.708 271.145 310.264 284.144 310.805 286.933H310.841C311.293 284.675 315.174 271.602 316.839 265.315H318.94C320.5 271.109 324.282 285.006 324.665 286.896H324.702C325.453 283.482 329.402 270.961 331.015 265.315H332.953L325.684 289.149H323.504C321.944 283.54 318.268 269.88 317.848 267.794H317.816C317.197 270.919 313.552 283.251 311.86 289.149H309.702Z" fill="#FFF100"/>
<path d="M344.218 265.315H346.13V275.678H360.331V265.315H362.243V289.149H360.331V277.432H346.13V289.149H344.218V265.315Z" fill="#FFF100"/>
<path d="M388.1 277.064C388.1 283.572 384.618 289.491 377.254 289.491C370.531 289.491 366.613 284.076 366.613 277.233C366.613 270.489 370.405 264.974 377.496 264.974C384.04 264.974 388.1 270.111 388.1 277.064ZM368.662 277.128C368.662 282.59 371.671 287.732 377.359 287.732C383.488 287.732 386.057 282.716 386.057 277.096C386.057 271.571 383.152 266.728 377.427 266.728C371.335 266.728 368.662 271.765 368.662 277.128Z" fill="#FFF100"/>
<path d="M394.486 265.315V279.748C394.486 286.046 398.036 287.674 401.387 287.674C405.347 287.674 408.288 286.009 408.288 279.748V265.315H410.232V279.643C410.232 287.117 406.266 289.423 401.319 289.423C396.608 289.423 392.506 286.875 392.506 279.943V265.315H394.486Z" fill="#FFF100"/>
<path d="M415.384 282.737C416.093 285.888 418.199 287.742 422.091 287.742C426.413 287.742 428.073 285.589 428.073 283.015C428.073 280.342 426.881 278.693 421.665 277.406C416.597 276.14 414.428 274.491 414.428 271.056C414.428 267.9 416.729 264.974 421.844 264.974C427.112 264.974 429.328 268.178 429.638 271.088H427.663C427.122 268.556 425.473 266.723 421.744 266.723C418.336 266.723 416.476 268.309 416.476 270.941C416.476 273.54 418.031 274.554 422.411 275.641C429.124 277.311 430.121 279.995 430.121 282.868C430.121 286.392 427.553 289.423 422.017 289.423C416.056 289.423 413.856 285.962 413.409 282.737H415.384Z" fill="#FFF100"/>
<path d="M448.499 277.463H436.362V287.39H449.66L449.382 289.144H434.455V265.31H449.114V267.064H436.362V275.704H448.499V277.463Z" fill="#FFF100"/>
<path d="M258.005 51.7805L262.133 53.4244C261.992 53.7028 261.571 53.7763 261.188 53.7396C260.033 55.1051 258.562 56.3288 256.886 57.4108C257.727 58.2143 258.567 58.6713 259.334 58.6713C260.101 58.6713 260.416 58.041 260.558 56.0452C261.33 56.7805 262.448 57.4423 263.394 57.7574C262.764 61.5337 261.645 62.374 259.124 62.374C257.06 62.3373 255.101 61.2186 253.389 59.2963C250.836 60.4833 248.037 61.4654 245.201 62.1639C244.78 61.3236 243.73 59.7847 243.1 59.0179C245.936 58.4244 248.835 57.5841 251.356 56.4286C250.726 55.2732 250.132 53.9811 249.644 52.6156L244.854 53.104L244.576 49.9213C244.434 50.0631 244.192 50.1314 243.877 50.1314C243.494 51.5652 242.827 53.6975 242.233 55.0999L239.749 54.1912C240.237 52.6524 240.831 50.2732 241.078 48.6292L244.717 49.7479L248.704 49.3278C248.389 47.9622 248.178 46.5284 248.073 45.0578L252.968 45.1996C252.968 45.5515 252.653 45.7616 252.091 45.8299C252.16 46.8803 252.301 47.9307 252.548 48.9759L257.097 48.519C256.12 47.8887 254.754 47.1902 253.635 46.77L255.841 44.811C256.051 44.8792 256.225 44.9843 256.435 45.0578V45.0211C255.458 44.5326 254.476 43.7605 253.567 42.8152C251.188 43.8971 248.599 44.7742 246.046 45.4045C245.558 44.6009 244.507 43.1986 243.84 42.5C246.466 41.9748 249.155 41.208 251.571 40.1891C250.941 39.1754 250.384 38.0883 249.891 36.9381L245.132 37.4265L245.027 36.4811L243.278 39.1754C243.173 39.0336 243.031 38.8603 242.895 38.7185V41.7963H239.465V44.3855H243.977V47.9517H239.465V55.6461L244.502 54.9791L244.712 58.477C240.059 59.2805 235.232 60.0841 232.118 60.541C232.049 60.8562 231.766 61.0662 231.487 61.1345L230.3 56.7963C231.839 56.623 233.693 56.4129 235.757 56.1293V47.9675H230.894V44.4013H235.757V41.812H232.748V41.4601L232.68 41.5284C232.049 40.6198 230.757 39.291 229.849 38.729C232.68 35.8981 234.78 32.2217 236.004 29.354L240.589 30.1576C240.521 30.4727 240.274 30.646 239.749 30.6828L239.681 30.8246C241.498 32.1166 243.562 33.729 244.927 35.021L244.822 34.1124L248.777 33.729C248.394 32.332 248.147 30.8614 248.005 29.354L252.832 29.5273C252.795 29.8425 252.517 30.0525 251.923 30.1576C251.992 31.208 252.202 32.2899 252.517 33.3404L257.59 32.8151C256.608 32.2899 255.353 31.7647 254.302 31.3813L256.156 29.4223C257.59 29.8425 259.481 30.5777 260.458 31.2395L259.197 32.6733L262.207 32.3582L262.522 35.646L253.814 36.5546C254.166 37.2217 254.549 37.8467 254.933 38.4454C256.015 37.7469 256.96 37.0116 257.695 36.208L261.65 37.8152C261.508 38.0935 261.088 38.167 260.705 38.1303C259.691 39.1439 258.467 40.0893 257.065 40.9664C257.869 41.7017 258.672 42.1219 259.339 42.1219C260.075 42.1219 260.321 41.5967 260.495 39.8845C261.193 40.583 262.244 41.25 263.152 41.5652C262.522 44.958 261.508 45.7301 259.234 45.7301C258.851 45.7301 258.326 45.7301 257.448 45.4517C258.499 45.9087 259.513 46.4654 260.18 46.9538L258.604 48.3509L262.664 47.9675L262.979 51.2553L258.005 51.7805ZM232.538 55.6618C232.364 54.0179 231.766 51.4969 231.141 49.5379L233.903 48.8026C234.602 50.6933 235.195 53.2091 235.405 54.8215L232.538 55.6618ZM242.506 38.3141C241.319 37.0221 239.534 35.4832 237.921 34.1859C237.149 35.5515 236.277 36.9486 235.264 38.3141H242.506ZM253.599 52.2007C253.951 53.0778 254.334 53.8814 254.754 54.6167C256.046 53.7763 257.133 52.8309 257.937 51.7805L253.599 52.2007Z" fill="white"/>
<path d="M284.55 31.3184H294.765L295.642 31.1765C295.679 31.2133 295.747 31.2448 298.336 32.227C298.3 32.4371 298.163 32.6471 297.984 32.7889C296.934 35.7984 295.569 39.4696 294.03 43.1776C297.107 46.7438 298.226 49.228 298.226 51.4707C298.226 58.1514 293.714 58.1146 290.458 58.0148C290.421 56.8594 289.896 55.0736 289.198 53.9234C290.18 54.0285 291.12 54.0285 291.75 54.0285C293.851 54.0285 294.024 52.5264 294.024 51.3026C294.024 49.3804 292.869 47.3163 289.723 43.9234C290.842 40.7774 291.824 37.873 292.591 35.2837H288.672V62.3583H284.544V33.3089H284.297C283.321 35.6513 282.197 37.8205 280.905 39.8845H283.457V43.5243H278.315C277.58 44.4329 276.813 45.31 276.004 46.1503H282.233V61.9959H278.279V60.7722H272.575V62.4161H268.762V51.8856C268.168 52.269 267.538 52.6209 266.908 52.936C266.488 52.0589 265.437 50.3835 264.775 49.5799C266.172 48.9129 267.506 48.1461 268.762 47.269V46.1503H270.301C271.351 45.3467 272.328 44.4696 273.237 43.5243H265.469V39.8845H271.624V36.56H266.939V32.957H271.624V29.4644L276.414 29.7427C276.377 30.0578 276.136 30.2679 275.505 30.373V32.9623H279.04V35.5516C279.739 34.2595 280.369 32.8572 280.894 31.4234L284.534 32.6104V31.3184H284.55ZM278.289 51.7806V49.4696H272.585V51.7806H278.289ZM272.591 57.3793H278.294V54.9634H272.591V57.3793ZM275.526 39.8845H276.367C277.139 38.8341 277.837 37.7154 278.499 36.56H275.526V39.8845Z" fill="white"/>
<path d="M320.789 59.16H304.245V55.9772L307.181 52.8312C312.181 47.6526 315.122 44.2597 315.122 40.6935C315.122 38.3826 313.899 36.4603 310.994 36.4603C309.072 36.4603 307.286 37.474 306.062 38.3826L304.629 34.6746C306.272 33.4141 309.004 32.2954 312.045 32.2954C317.712 32.2954 320.301 35.8984 320.301 40.1998C320.301 44.8847 317.118 48.7345 313.268 52.6158L311.062 54.7849V54.8532H320.789V59.16Z" fill="white"/>
<path d="M323.972 46.0087C323.972 37.9624 326.944 32.2954 332.89 32.2954C339.119 32.2954 341.53 38.4509 341.53 45.7986C341.53 54.5434 338.278 59.5486 332.716 59.5486C326.561 59.5486 323.972 53.3879 323.972 46.0087ZM332.785 55.452C335.164 55.452 336.351 52.0959 336.351 45.9036C336.351 39.9215 335.269 36.3868 332.816 36.3868C330.579 36.3868 329.145 39.6063 329.145 45.9036C329.145 52.1641 330.437 55.452 332.748 55.452H332.785Z" fill="white"/>
<path d="M137.769 16.7649C138.141 24.6746 138.887 32.2744 140.011 38.5664C142.191 33.7082 143.808 28.162 144.932 22.1221L151.66 23.5559C151.534 23.9918 151.035 24.3017 150.163 24.3017C148.357 32.8994 145.678 40.4992 141.818 46.7912C143.315 51.9015 145.121 55.016 147.238 55.016C148.609 55.016 149.355 51.5917 149.607 43.9288C150.788 45.2366 152.721 46.6704 154.218 47.2902C153.283 58.0675 151.413 60.8722 146.618 60.8722C142.816 60.8722 139.953 57.6946 137.774 52.5265C135.032 55.7671 131.855 58.5665 128.178 60.8722C127.369 59.7482 125.563 57.7576 124.381 56.7597L124.88 56.5129C123.698 55.3312 122.138 54.0234 120.332 52.6526C117.716 55.7671 114.102 58.4457 108.929 60.4415C108.367 59.1967 106.996 57.264 105.878 56.3291C110.552 54.7114 113.85 52.4688 116.282 49.8532C114.974 48.9814 113.604 48.1725 112.359 47.4215L111.734 48.9183L107.495 46.6127C108.614 43.745 110.048 39.8847 111.356 35.8984H107.059V31.1662H112.852C113.477 29.2334 114.034 27.3689 114.533 25.62H107.994V20.9456H130.169V25.62H120.263V25.683L121.009 25.746C120.883 26.245 120.51 26.4918 119.575 26.5549C119.139 27.9887 118.64 29.5433 118.078 31.1662H131.408V35.8984H127.112C126.366 40.1946 125.305 44.4961 123.252 48.3564C125.058 49.6641 126.739 50.9089 127.863 52.0328L125.374 56.1452C129.486 53.5927 132.91 50.2261 135.715 46.1767C133.661 38.204 132.537 27.7366 132.038 16.7754H105.5V29.4855C105.5 38.703 104.628 52.0381 99.1445 60.6936C98.2726 59.6326 95.9039 57.7682 94.6592 57.1432C99.5174 49.1704 100.016 37.8311 100.016 29.4855V11.3447H131.849C131.723 8.41932 131.66 5.42562 131.66 2.50019L139.134 2.93612C139.134 3.49809 138.635 3.80797 137.574 3.99704V11.35H147.044C145.237 9.54327 142.186 7.17457 139.57 5.4939L143.057 2.37939C145.983 4.06007 149.596 6.6126 151.34 8.48235L148.352 11.35H152.837V16.7702H137.769V16.7649ZM116.529 35.8879C115.72 38.1935 114.911 40.5622 114.039 42.8049C115.72 43.6767 117.464 44.6746 119.15 45.7303C120.767 42.6788 121.639 39.3122 122.264 35.8879H116.529Z" fill="#FFF100"/>
<path d="M218.189 31.4026H207.847C211.272 34.5171 215.258 37.0697 219.496 38.7556C218.189 39.8743 216.382 42.1169 215.51 43.6138C212.958 42.4321 210.526 40.9352 208.22 39.1915C207.91 39.3176 207.537 39.3176 207.159 39.2545C205.226 40.9352 201.739 43.6138 199.37 45.1737L195.757 42.1852C198.126 40.3155 201.487 37.327 203.42 35.0844C202.296 33.9026 201.177 32.7157 200.116 31.4079H179.633C178.451 32.9047 177.143 34.3333 175.773 35.7041C178.577 37.6369 181.813 40.2524 183.372 42.1852L179.575 45.9825C178.141 43.9867 174.843 41.0613 172.038 39.0077C169.859 40.8144 167.427 42.4951 164.811 43.992C163.877 42.6842 161.76 40.7514 160.326 39.9426C164.938 37.5108 168.798 34.6484 172.038 31.4079H161.513V26.5497H176.214C177.396 24.9951 178.456 23.3722 179.391 21.7545H168.178V17.1432H181.697C182.322 15.7093 182.879 14.2755 183.315 12.8469H164.938V8.05176H184.675C185.111 6.182 185.421 4.31225 185.673 2.44775L193.21 3.07276C193.084 3.69776 192.585 4.13368 191.65 4.19145C191.403 5.4362 191.151 6.74398 190.841 8.05176H215.137V12.8469H189.533C189.034 14.2808 188.535 15.7146 187.973 17.1432H212.705V21.7545H199.812C200.809 23.4352 201.928 24.9951 203.173 26.5497H218.183V31.4026H218.189ZM164.496 53.4562C169.228 51.9594 176.455 49.4699 183.435 47.0382L184.37 51.5865C178.514 53.9552 172.348 56.4447 168.362 57.9416C168.362 58.4405 168.052 58.8134 167.616 59.0602L164.496 53.4562ZM186.734 32.9625L193.898 33.3354C193.835 33.8344 193.525 34.2073 192.527 34.3333V55.326C192.527 60.2472 190.531 60.8722 180.878 60.8722C180.631 59.4384 179.817 57.4479 179.071 56.0771C180.752 56.1401 182.432 56.2031 183.682 56.2031C186.424 56.2031 186.734 56.2031 186.734 55.1422V32.9625ZM185.862 21.7493C185.053 23.3669 184.118 24.9898 183.12 26.5444H196.639C195.641 24.9898 194.706 23.3669 193.898 21.7493H185.862ZM211.713 59.6222C207.417 56.9437 199.565 53.0203 193.462 50.4625L196.513 46.2293C202.679 48.598 210.468 52.3953 214.827 54.827L211.713 59.6222Z" fill="#FFF100"/>
<path d="M90.7463 1.21849C90.7463 1.18172 90.741 1.12395 90.7357 1.06618C90.7147 0.992649 90.7147 0.924372 90.6832 0.861346C90.6832 0.84559 90.6832 0.835086 90.678 0.824581C90.6675 0.77206 90.6412 0.761556 90.615 0.719539C90.5887 0.651262 90.5519 0.593489 90.5047 0.530463C90.4784 0.483194 90.4469 0.446429 90.3944 0.409665C90.3418 0.357144 90.3051 0.315127 90.2526 0.267858C90.1948 0.236345 90.1528 0.210084 90.1002 0.178572C90.0687 0.157563 90.0215 0.126051 90.0005 0.115546C89.9689 0.105042 89.9427 0.105042 89.9269 0.0892859C89.8639 0.0787817 89.8114 0.0577732 89.7641 0.0420169C89.6906 0.0315127 89.6223 0.0157563 89.5435 0.0105042C89.5173 0.0105042 89.4858 0 89.4595 0H77.7368C77.4322 0 77.1328 0.0997901 76.9017 0.29937L67.8313 7.8309C67.4584 8.13552 67.3166 8.61346 67.4321 9.0704H56.3607C56.0561 9.0704 55.7567 9.18069 55.5256 9.36977L49.2861 14.5483L43.0413 9.36451C42.805 9.17544 42.5109 9.06514 42.1905 9.06514H31.1716C31.1978 8.97061 31.2083 8.88132 31.2083 8.78153C31.2083 8.3456 30.9877 7.9622 30.6516 7.74161L21.6968 0.29937C21.4552 0.0997901 21.161 0 20.8564 0H9.10745C9.07068 0 9.04968 0.0105042 9.01816 0.0105042C8.94989 0.0157563 8.87636 0.0262606 8.81333 0.0420169C8.75556 0.0525211 8.70304 0.0735296 8.65052 0.0892859C8.62425 0.094538 8.59274 0.0997901 8.57699 0.115546C8.52972 0.126051 8.4982 0.157563 8.46144 0.178572C8.40892 0.210084 8.36165 0.236345 8.31438 0.267858C8.25661 0.315127 8.21459 0.357144 8.16732 0.409665C8.13056 0.451682 8.09904 0.488446 8.05703 0.530463C8.00976 0.593489 7.97824 0.651262 7.94148 0.719539C7.93098 0.761556 7.90472 0.77206 7.88896 0.824581C7.88896 0.835086 7.88896 0.84559 7.88896 0.861346C7.8627 0.924372 7.84694 0.992649 7.84694 1.06618C7.83644 1.1187 7.82068 1.18172 7.82068 1.21849C7.82068 1.22899 7.81543 1.24475 7.81543 1.25V12.8152C7.81543 13.1828 7.97825 13.5347 8.25661 13.771L16.8018 20.8561V31.9013C16.8018 32.2637 16.9751 32.6156 17.243 32.8572L26.2976 40.373C26.534 40.5673 26.8386 40.6776 27.1432 40.6776C27.327 40.6776 27.5161 40.6408 27.6842 40.5568C28.1411 40.352 28.43 39.916 28.43 39.4171V27.8624C28.43 27.5001 28.2671 27.1534 27.9783 26.9171L19.4541 19.8162V10.0368H29.2073C29.202 10.0788 29.202 10.1103 29.1863 10.1523C29.1863 10.1996 29.1653 10.2469 29.1653 10.2941C29.1653 10.2941 29.16 10.3151 29.16 10.3204V21.8855C29.16 22.2479 29.3333 22.5998 29.6117 22.8362L38.1464 29.9265V40.9665C38.1464 41.3394 38.3197 41.6808 38.6033 41.9276L48.3932 50.1051C48.6296 50.2995 48.9342 50.4045 49.2388 50.4045C49.2598 50.4045 49.2703 50.3993 49.2913 50.3993C49.3176 50.3993 49.3334 50.4045 49.3491 50.4045C49.659 50.4045 49.9636 50.2995 50.2052 50.1051L59.9846 41.9276C60.2683 41.6808 60.4311 41.3394 60.4311 40.9665V29.9265L68.95 22.8362C69.2284 22.5998 69.4017 22.2427 69.4017 21.8855V10.3204C69.4017 10.3099 69.3964 10.2941 69.3964 10.2941C69.3964 10.2416 69.3859 10.1943 69.3702 10.1366C69.3702 10.1051 69.3702 10.0735 69.3492 10.0368H79.1076V19.8215L70.5729 26.9171C70.2893 27.1534 70.1317 27.5001 70.1317 27.8624V39.4171C70.1317 39.9213 70.4153 40.3572 70.8828 40.5568C71.0666 40.6408 71.2452 40.6776 71.429 40.6776C71.7336 40.6776 72.033 40.5673 72.2641 40.373L81.303 32.8572C81.5866 32.6156 81.7599 32.269 81.7599 31.9013V20.8666L90.3051 13.7763C90.5887 13.5399 90.762 13.1933 90.762 12.8204V1.25525C90.762 1.24475 90.7463 1.22899 90.7463 1.21849ZM40.8144 28.9129V19.1019H47.3218H51.2504H51.2609H57.7525V28.9076L49.2861 35.9927L40.8144 28.9129Z" fill="white"/>
<path d="M59.785 55.1629C59.7955 54.9686 59.8165 54.8005 59.8218 54.5747C60.0581 54.5747 60.305 54.5327 60.5308 54.4801C60.5518 54.4696 60.5676 54.4696 60.5938 54.4644C61.0193 54.3121 61.3817 54.0074 61.723 53.477C61.9069 53.1881 62.285 52.4108 62.0172 51.728C61.6548 50.7249 60.7146 50.6408 59.0182 50.478C57.2745 50.3047 56.0245 50.5358 54.9216 51.1766C54.4226 51.4602 53.9657 51.8436 53.9184 51.8908C53.8974 51.9171 53.8816 51.9329 53.8554 51.9486C52.8785 52.852 51.8858 54.27 51.9909 55.6408C52.0487 56.4129 52.4531 57.1114 53.1726 57.6051C53.2146 57.6156 53.2566 57.6261 53.2934 57.6524C53.1726 57.6156 53.0413 57.6051 52.8732 57.6051C52.8312 57.6051 52.7735 57.6051 52.7209 57.6104C51.6548 57.7207 50.4678 58.6398 50.4678 59.706C50.4678 59.7375 50.4678 59.7532 50.4678 59.7795C50.5676 61.3236 51.9961 62.332 54.0812 62.332C55.0214 62.332 55.9405 62.122 56.5917 61.7701C59.1968 60.3888 59.6537 57.8782 59.764 55.415L59.785 55.1629ZM55.5361 54.6745C55.5151 54.6482 55.4888 54.6272 55.4625 54.6062L55.6516 54.4224C55.8617 54.1965 55.9825 54.0915 56.1085 54.0232C55.9142 54.228 55.7409 54.4591 55.6201 54.706C55.6148 54.7217 55.6148 54.7375 55.6148 54.7532C55.5781 54.7217 55.5676 54.6955 55.5361 54.6745ZM54.0235 57.8362C54.4856 57.8362 54.9163 57.6366 55.2629 57.4003C55.2629 58.0883 55.2577 58.7659 54.9898 59.0337C54.8323 59.186 54.5644 59.3331 54.3701 59.4119C54.3701 59.3698 54.3596 59.3488 54.3596 59.3383C54.3018 58.9707 54.1758 57.999 53.3879 57.6997C53.5823 57.7785 53.7976 57.8362 54.0235 57.8362Z" fill="white"/>
<path d="M48.8925 57.8941C48.7034 57.8259 48.4776 57.7786 48.3043 57.7786C48.341 57.6946 48.362 57.6158 48.3935 57.5422C48.6509 56.8174 48.8925 56.1399 48.924 55.5674C48.945 55.3048 48.8715 55.0317 48.7192 54.8059C49.1709 54.349 49.4912 53.7397 49.5438 53.0779C49.5753 52.6578 49.3914 52.2586 49.0816 51.9855C48.7402 51.7229 48.2938 51.6336 47.8946 51.7544C47.8841 51.7649 47.8578 51.7649 47.7843 51.7649C47.6057 51.7649 47.3694 51.7176 47.0858 51.6494C46.508 51.5338 45.9303 51.8069 45.6729 52.3216C45.5416 52.5737 45.4051 52.8153 45.279 53.0779L45.1057 53.3931C44.8536 53.85 44.9272 54.4015 45.2685 54.7954C45.279 54.8006 45.3001 54.8059 45.3106 54.8269C45.258 54.8584 45.1898 54.8742 45.1372 54.9214C44.6435 54.4645 43.9082 54.1809 43.0627 54.1809C42.5217 54.1809 41.9965 54.3069 41.5658 54.5118C41.3242 54.6326 41.0563 54.7954 40.8042 55.0002C41.0458 53.724 40.9828 52.3847 40.3473 51.1452C40.2475 50.9403 40.0847 50.7565 39.8851 50.6357C39.7066 50.5254 39.4072 50.3941 38.9975 50.3941C38.8347 50.3941 38.6561 50.4204 38.4828 50.4676C38.4513 50.4729 38.4198 50.4887 38.383 50.4887C38.0837 50.5569 37.7528 50.6935 37.4639 50.8878C37.3168 50.725 37.1278 50.6147 36.9229 50.5097C36.55 50.3731 36.1299 50.3468 35.8463 50.3468C35.216 50.3468 34.3757 50.4834 33.8767 51.1084C33.4565 51.6126 33.3568 52.1378 33.2622 52.5422C33.2254 52.7366 33.1887 52.8889 33.1204 53.0359C33.0836 53.141 33.0364 53.2355 32.9944 53.3406C32.9208 52.3059 32.5112 51.3763 31.5028 50.7933C31.4135 50.7355 31.3242 50.6935 31.2454 50.662C31.1456 50.6147 30.967 50.5412 30.7937 50.4887C30.3578 50.3416 29.9324 50.2681 29.5332 50.2681C27.8 50.2681 26.9387 51.6494 26.6341 52.1588C26.4187 52.4845 26.2191 52.8416 26.0721 53.1935C26.0668 53.2092 26.0458 53.2355 26.0458 53.2618C25.1845 55.2943 25.9933 56.5443 27.0332 57.0643C27.0595 57.0748 27.091 57.0906 27.133 57.1063C27.3221 57.1641 27.5059 57.2061 27.716 57.2061C27.4219 58.2828 27.3116 59.4067 27.6582 60.3469C28.2885 62.0591 29.612 62.2481 30.153 62.2481C31.0406 62.2481 31.8862 61.8175 32.5584 61.308C32.8631 61.7334 33.3725 62.1588 34.2759 62.2849C34.4019 62.2901 34.5437 62.3112 34.675 62.3112C35.9986 62.3112 36.9544 61.3815 37.5217 60.8143L37.7055 60.6462C38.0311 60.3364 38.3988 59.932 38.7612 59.4488C39.0553 61.1715 40.3263 62.2429 42.0753 62.2429C42.9051 62.2429 43.7507 62.0013 44.4965 61.5601C44.7328 61.8385 45.069 62.1168 45.5574 62.2429C45.715 62.2849 45.8883 62.3112 46.0669 62.3112C47.1593 62.3112 48.1519 61.4551 48.5354 61.0664C49.0343 60.5885 49.6278 59.8269 49.612 59.0076C49.612 58.5349 49.3232 58.0937 48.8925 57.8941ZM37.0227 54.3647C37.0332 54.3385 37.049 54.3017 37.0542 54.2649L37.1803 54.6431C37.5112 56.371 36.6236 57.642 36.1036 58.2093C36.1141 58.1305 36.1299 58.0622 36.1456 58.0044L36.1666 57.8679C36.4187 56.6336 36.6551 55.5885 37.0227 54.3647Z" fill="white"/>
<path d="M71.5232 57.8417C71.6492 57.4373 71.8173 56.9541 72.0116 56.3974C72.0852 56.1978 72.1639 56.014 72.2007 55.8879C72.311 55.536 72.2532 55.1736 72.0589 54.8637C72.3057 54.5801 72.5368 54.1862 72.6786 53.6558C72.7049 53.5507 72.7154 53.4457 72.7154 53.3406V52.9992C72.7154 52.6106 72.5316 52.2429 72.2165 52.0066C71.8908 51.7702 71.4864 51.6862 71.0978 51.7965C70.8772 51.8438 70.7669 51.8385 70.4307 51.7282C69.9738 51.5969 69.4538 51.7177 69.1177 52.0539C68.6398 52.516 68.4507 53.0833 68.3036 53.5455L68.2406 53.7188C68.1566 53.9499 68.1461 54.1915 68.2143 54.4541C68.2249 54.4856 68.2459 54.5434 68.2721 54.6064C68.2774 54.6274 68.2931 54.6484 68.3036 54.6747C68.1146 54.4698 67.8572 54.3123 67.5683 54.2597C66.9328 54.1442 66.3604 54.4121 66.0032 54.6274C65.5515 54.349 65.0053 54.1967 64.3751 54.1967H64.3698C63.0305 54.1967 60.4832 55.9194 59.8267 58.1726C59.5116 59.2755 59.7112 60.4782 60.3467 61.2976C60.9507 62.0749 61.9066 62.4478 62.8782 62.3322C63.4349 62.2587 63.9076 62.0171 64.2858 61.744C64.4696 61.9646 64.6849 62.1274 64.9896 62.2324C65.0263 62.2482 65.0736 62.2482 65.1051 62.2587C65.373 62.327 65.6251 62.3533 65.8719 62.3533C66.707 62.3533 67.3005 62.0066 67.7049 61.6915C67.9097 61.9226 68.1828 62.1484 68.5662 62.3322C68.7448 62.4058 68.9339 62.4478 69.123 62.4478C69.1335 62.4478 69.1597 62.4478 69.1807 62.4478C70.6513 62.3795 72.894 60.9089 72.8677 59.1179C72.873 58.4037 72.2532 57.8207 71.5232 57.8417Z" fill="white"/>
<path d="M51.256 17.8418H39.528L30.4629 10.3208H42.1961L51.256 17.8418Z" fill="#86B629"/>
<path d="M30.4629 10.3208L39.528 17.8418V29.4122L30.4629 21.8859V10.3208Z" fill="#1A2D76"/>
<path d="M39.4434 29.4121L49.2333 37.6001V49.1495L39.4434 40.9615V29.4121Z" fill="#312549"/>
<path d="M29.9058 8.7869H18.1621L9.10742 1.25537H20.8564L29.9058 8.7869Z" fill="#349ACE"/>
<path d="M9.10742 1.25537L18.1621 8.7869V20.3468L9.10742 12.8205V1.25537Z" fill="#1A2D76"/>
<path d="M18.0986 20.3467L27.1428 27.8624V39.4118L18.0986 31.9066V20.3467Z" fill="#312549"/>
<path d="M47.3271 17.8418H59.0499L68.094 10.3208H56.3555L47.3271 17.8418Z" fill="#86B629"/>
<path d="M68.0939 10.3208L59.0498 17.8418V29.4122L68.0939 21.8859V10.3208Z" fill="#1A2D76"/>
<path d="M59.1284 29.4121L49.3438 37.6001V49.1495L59.1284 40.9615V29.4121Z" fill="#312549"/>
<path d="M68.666 8.7869H80.4097L89.4591 1.25537H77.7364L68.666 8.7869Z" fill="#349ACE"/>
<path d="M89.4595 1.25537L80.4102 8.7869V20.3468L89.4595 12.8205V1.25537Z" fill="#1A2D76"/>
<path d="M80.4627 20.3467L71.4238 27.8624V39.4118L80.4627 31.9066V20.3467Z" fill="#312549"/>
<path fill-rule="evenodd" clip-rule="evenodd" d="M58.8974 51.7228C57.4058 51.5915 56.4184 51.7701 55.5675 52.2638C55.1736 52.4844 54.785 52.8258 54.785 52.8258C53.7398 53.7764 52.5318 55.6251 53.8659 56.5443C54.1285 56.7123 54.6799 56.3342 54.869 56.0558C54.9058 55.9928 54.9058 55.9613 54.9058 55.8772C54.8848 55.7775 54.3543 55.3625 54.1705 55.0999C53.9184 54.5064 54.1967 54.0758 54.5276 53.7501C54.932 53.3405 55.2367 52.9413 55.9037 52.747C57.5213 52.2743 58.7503 53.6451 60.1946 53.2722C60.3417 53.2197 60.5203 53.0043 60.5991 52.8625C60.7094 52.6735 60.8669 52.3058 60.8091 52.1535C60.7461 51.9644 60.5675 51.8856 58.8974 51.7228Z" fill="#349ACE"/>
<path fill-rule="evenodd" clip-rule="evenodd" d="M48.2454 52.9624C47.7885 53.099 47.258 52.9782 46.8326 52.8994C46.6383 53.2513 46.444 53.619 46.2549 53.9813C47.0532 54.8637 48.1667 53.9341 48.2454 52.9624Z" fill="#349ACE"/>
<path fill-rule="evenodd" clip-rule="evenodd" d="M71.4336 53.3352C71.4336 53.2197 71.4336 53.1199 71.4336 52.9938C70.9084 53.1409 70.4935 53.0726 70.0471 52.936C69.7477 53.2196 69.6269 53.6766 69.4746 54.1125C69.4851 54.1493 69.5009 54.1808 69.5114 54.2228C70.5986 54.5694 71.1868 54.2806 71.4336 53.3352Z" fill="#349ACE"/>
<path fill-rule="evenodd" clip-rule="evenodd" d="M58.3138 54.0862C58.1825 54.1125 57.0848 54.6009 56.8117 55.1891C56.1919 56.6755 57.069 58.8078 55.9031 59.9318C55.3569 60.436 53.944 61.1713 53.2508 60.2627C53.0249 59.9528 53.0932 58.8078 52.8726 58.8394C52.2844 58.9076 51.7539 59.4539 51.7539 59.6955C51.8642 61.2868 54.7476 61.3079 55.9661 60.6671C57.8359 59.6744 58.3558 58.0043 58.4766 55.3415C58.5029 54.8898 58.5186 54.6954 58.5396 54.186C58.5449 54.0862 58.4556 54.0599 58.3138 54.0862Z" fill="#349ACE"/>
<path fill-rule="evenodd" clip-rule="evenodd" d="M46.9544 59.7429C46.8441 59.6799 46.7338 59.5644 46.676 59.4383C46.3924 58.6768 47.5846 56.4499 47.6424 55.494C47.0121 55.536 46.4922 55.6778 46.03 55.8721C45.8462 55.9141 45.6571 56.4866 45.3892 57.5686V57.5791C45.2947 57.8364 45.2369 58.0833 45.1791 58.2986C44.9901 58.8343 44.7537 59.2492 44.3756 59.5539C44.3336 59.5854 44.2915 59.6169 44.2548 59.6484C44.2285 59.6589 44.197 59.6747 44.176 59.6957H44.1655C44.113 59.7272 44.0762 59.7429 44.0237 59.7692C43.1046 60.2419 41.6445 60.0108 41.613 58.8028C42.4165 58.0045 45.0636 57.9257 44.4228 56.0454C44.113 55.4152 42.8945 55.2839 42.1592 55.6358C41.2243 56.0875 39.801 57.6841 40.0478 59.2072C40.4155 61.4551 42.8262 61.3081 44.1917 60.2471C44.3703 60.1106 44.5279 59.9478 44.6539 59.8112C44.7222 59.7377 44.8168 59.7482 44.8745 59.8112C45.2317 60.1578 45.363 60.8931 45.9092 61.0297C46.7075 61.2398 48.3462 59.7482 48.3357 59.0234C48.0626 59.223 47.8787 59.4751 47.5846 59.6116C47.406 59.6799 47.1802 59.8007 46.9544 59.7429ZM41.5762 57.8732C41.4186 57.2219 41.7233 56.6599 42.1172 56.224C42.385 55.9667 42.7894 55.8091 43.0731 55.9719C43.1151 56.0139 43.1571 56.0402 43.1991 56.0665C43.2569 56.1347 43.2936 56.2188 43.3199 56.3238C43.3462 56.5602 43.2936 56.8333 43.1886 57.0959C43.1781 57.1484 43.1571 57.1694 43.1361 57.2272C42.8997 57.7051 42.448 58.0938 41.9964 58.057C41.8493 58.036 41.6392 58.0202 41.5762 57.8732Z" fill="#349ACE"/>
<path fill-rule="evenodd" clip-rule="evenodd" d="M71.5393 59.118C71.1191 59.4279 70.9615 59.8323 70.242 59.8218C70.1895 59.8218 70.1475 59.8113 70.1265 59.7745C69.554 59.0024 70.6989 56.3186 70.9721 55.4993C70.5729 55.5518 69.4437 55.6673 69.2441 55.951C68.346 57.2587 68.8975 59.8218 66.6391 59.8218C66.6286 59.8218 66.5813 59.8218 66.5603 59.7745C66.534 59.7272 66.5183 59.6852 66.4762 59.6274C65.9825 58.472 67.5687 56.5707 67.3218 55.5045C66.8229 55.4047 66.3817 56.1033 65.7147 56.1348C65.5046 55.7461 65.1265 55.4468 64.3702 55.4625C63.6244 55.4625 61.5708 56.7808 61.0771 58.514C60.6884 59.8375 61.3817 61.2398 62.7262 61.077C63.4825 60.9825 64.0393 60.2314 64.5225 59.8218C64.5802 59.7745 64.6433 59.7745 64.68 59.8218C64.9164 60.1947 65.2 60.9772 65.4101 61.0403C66.9542 61.3921 67.1013 60.0003 68.1307 59.9373C68.4248 60.4415 68.5351 60.9195 69.1286 61.1978C70.0687 61.1505 71.5918 60.0686 71.5865 59.118C71.5865 59.0917 71.555 59.0917 71.5393 59.118ZM63.1464 59.9321C61.9227 59.5802 63.2567 56.9699 63.5666 56.5392C63.7557 56.2766 64.0445 55.9615 64.2966 55.9089C64.4752 55.8774 64.6853 55.9194 64.8376 55.9877C66.0823 56.66 64.3491 60.2682 63.1464 59.9321Z" fill="#349ACE"/>
<path fill-rule="evenodd" clip-rule="evenodd" d="M38.7973 51.6808C38.7868 51.6808 38.771 51.6966 38.7605 51.6966C38.75 51.6966 38.729 51.6966 38.708 51.7018C38.2405 51.8121 37.7626 52.206 37.8151 52.3688C38.0252 53.0306 38.2353 53.6766 38.4349 54.3384C38.8813 56.4392 37.9097 58.1777 36.938 59.1861C36.6229 59.5117 35.8928 60.4466 35.1733 60.0737C34.4117 59.7218 34.7269 58.4193 34.8949 57.6157C35.1733 56.3079 35.4044 55.2627 35.7878 54.0022C35.9979 53.2985 36.3708 52.5106 36.4706 51.6913C36.0819 51.5548 35.1523 51.5705 34.8897 51.8804C34.522 52.3531 34.5851 52.8993 34.3277 53.5138C33.6187 55.184 33.251 57.2848 32.521 58.9077C32.2794 59.4382 31.0189 60.8195 30.4569 59.6955C30.2468 59.1493 30.583 58.393 30.7143 57.9833C31.2342 56.3762 32.6418 52.8468 30.8298 51.8489C30.8088 51.8331 30.772 51.8174 30.7195 51.8069C30.6302 51.7596 30.4096 51.6913 30.3939 51.6913C28.9863 51.1871 28.2878 51.8856 27.7416 52.8153C27.5525 53.0884 27.3792 53.393 27.2426 53.7239C26.8802 54.5905 26.7909 55.5359 27.605 55.935C27.8098 56.0138 28.1775 55.7302 28.3035 55.4833C28.3246 55.4308 28.3403 55.3835 28.3298 55.3415C28.3245 54.8688 27.8886 54.5327 27.7626 54.102C27.5105 53.1987 28.7605 51.8174 29.6323 52.059C30.4884 52.4109 30.2993 53.5558 30.021 54.4434C29.6323 55.6882 28.3088 58.3983 28.8708 59.9214C29.7006 62.1483 32.0378 60.331 32.7783 59.2859C32.8361 59.2859 32.8781 59.2859 32.9359 59.2859C33.5872 59.8636 33.1933 60.851 34.4695 61.0243C35.4674 61.1766 36.3235 60.1787 36.812 59.7323C38.3456 58.2932 40.6302 54.559 39.1859 51.6861C39.1964 51.6966 39.0704 51.6283 38.7973 51.6808Z" fill="#349ACE"/>
</svg>
