<svg width="130" height="70" viewBox="0 0 130 70" xmlns="http://www.w3.org/2000/svg" fill="#231815">
<style type="text/css">
	.st1{fill:url(#SVGID_1_);}
</style>
<path  d="M0.7,60.4h0.9v7.2H0.7V60.4z M8.5,66.2v-5.8h0.9v7.2h-1l-3.3-5.9v5.9H4.2v-7.2h1L8.5,66.2z M13.6,61.2h-2.2
	v-0.8h5.3v0.8h-2.2v6.5h-0.9L13.6,61.2L13.6,61.2z M18.6,60.4h4.2v0.8h-3.3v2.3h2.8v0.8h-2.8v2.6h3.4v0.8h-4.3L18.6,60.4L18.6,60.4z
	 M30.1,67.7l-1.8-3.2c2.1-0.3,2.5-4.1-0.7-4.1h-2.5v7.2H26v-3.1h1.3l1.7,3.1L30.1,67.7L30.1,67.7z M26,61.2h1.5c2,0,2,2.7,0,2.7H26
	V61.2z M36.3,66.2v-5.8h0.9v7.2h-1l-3.3-5.9v5.9H32v-7.2h1L36.3,66.2z M43.8,67.7h1l-2.5-7.2h-1l-2.5,7.2h0.9l0.7-2.2h2.7L43.8,67.7
	z M40.7,64.7l1.1-3.5l1.1,3.5H40.7z M47.4,61.2h-2.2v-0.8h5.3v0.8h-2.2v6.5h-0.9V61.2L47.4,61.2z M52.4,60.4h0.9v7.2h-0.9V60.4z
	 M58.6,60.3c4.1,0,4.1,7.5,0,7.5S54.5,60.3,58.6,60.3z M58.6,61.1c-2.9,0-2.9,5.9,0,5.9S61.5,61.1,58.6,61.1z M68.2,66.2v-5.8h0.9
	v7.2h-1l-3.3-5.9v5.9h-0.9v-7.2h1L68.2,66.2z M75.7,67.7h1l-2.5-7.2h-1l-2.5,7.2h0.9l0.7-2.2H75L75.7,67.7z M72.6,64.7l1.1-3.5
	l1.1,3.5H72.6z M78.3,60.4h0.9v6.5h3.2v0.8h-4.1V60.4L78.3,60.4z M89.6,64.1c0-3.6,3.4-4.7,5.2-2.9l-0.5,0.6
	c-0.8-1.1-3.8-1.1-3.8,2.2c0,3.4,2.8,3.5,3.9,2.2l0.5,0.6C93.2,68.8,89.6,67.8,89.6,64.1z M97,60.4h4.2v0.8h-3.3v2.3h2.8v0.8h-2.8
	v2.6h3.4v0.8H97L97,60.4L97,60.4z M107.7,66.2v-5.8h0.9v7.2h-1l-3.3-5.9v5.9h-0.9v-7.2h1L107.7,66.2z M112.8,61.2h-2.2v-0.8h5.3v0.8
	h-2.2v6.5h-0.9L112.8,61.2L112.8,61.2z M117.8,60.4h4.2v0.8h-3.3v2.3h2.8v0.8h-2.8v2.6h3.4v0.8h-4.3L117.8,60.4L117.8,60.4z
	 M129.3,67.7l-1.8-3.2c2.1-0.3,2.5-4.1-0.7-4.1h-2.5v7.2h0.9v-3.1h1.3l1.7,3.1L129.3,67.7L129.3,67.7z M125.2,61.2h1.5
	c2,0,2,2.7,0,2.7h-1.5V61.2z"/>
<g>
	
		<linearGradient id="SVGID_1_" gradientUnits="userSpaceOnUse" x1="53.1191" y1="433.0576" x2="2.9255" y2="352.8211" gradientTransform="matrix(1 0 0 1 0 -364.2593)">
		<stop  offset="0" style="stop-color:#896532"/>
		<stop  offset="0.11" style="stop-color:#A27C47"/>
		<stop  offset="0.24" style="stop-color:#B8915B"/>
		<stop  offset="0.32" style="stop-color:#C09962"/>
		<stop  offset="0.39" style="stop-color:#C39E68"/>
		<stop  offset="0.48" style="stop-color:#CEAD7B"/>
		<stop  offset="0.58" style="stop-color:#DFC59A"/>
		<stop  offset="0.66" style="stop-color:#EFDCB6"/>
		<stop  offset="0.74" style="stop-color:#DABC8D"/>
		<stop  offset="0.81" style="stop-color:#C9A36B"/>
		<stop  offset="0.88" style="stop-color:#BD9152"/>
		<stop  offset="0.94" style="stop-color:#B58544"/>
		<stop  offset="0.99" style="stop-color:#B3823F"/>
	</linearGradient>
	<path class="st1" d="M26-0.1C-8.2-0.1-8.2,51,26,51S60.1-0.1,26-0.1z M25.1,3.3h1.7v32.1h-1.7V3.3z M21.9,5.9h2.5v29.4h-2.5V5.9z
		 M11,8.5h9.4v2.9h-7.5v1.8h7.5v2.7H11V8.5z M11,17.4h9.4v2.9h-7.5v1.8h7.5v2.8H11V17.4z M11,26.4h9.4v2.9h-7.5v1.8h7.5v2.8H11V26.4
		z M20.4,43.4h-1.9v-5.2H13v5.2h-1.9v-8.1h9.4L20.4,43.4z M30.1,43.4h-1.7v-4h-4.8v4h-1.7v-6.9h8.2V43.4z M30.1,35.4h-2.5V5.9h2.5
		V35.4L30.1,35.4z M41,43.4h-1.9v-5.2h-5.5v5.2h-1.9v-8.1h9.4L41,43.4z M41,33.9h-9.4V31h7.5v-1.8h-7.5v-2.9H41V33.9z M41,24.9h-9.4
		V22h7.5v-1.8h-7.5v-2.9H41V24.9z M41,15.9h-9.4V13h7.5v-1.8h-7.5V8.5H41V15.9z"/>
	<path d="M89.8,43.6H60.2c-0.7,0-0.9-0.3-1.6-2h12c-0.5-0.5-1.4-2.9-1.6-3.3c-0.2-0.5,0.1-0.7,0.6-0.5
		c2.1,0.7,4.1,2,2.8,3.8h5.4c0.5-1.3,0.9-2.3,1.3-4c0,0,1.5,0.8,2,1.1c1.1,0.7,0.9,0.7-1.2,2.9h8.8c0.7,0,1-0.3,1.7-1.1
		C91.8,41.5,93.2,43.6,89.8,43.6z M59.8,27.6h28c0.7,0,1.1-0.3,1.7-1c1.8,1.2,2.2,3-0.5,3H61.5C60.6,29.6,60.5,29.3,59.8,27.6
		L59.8,27.6z M61.7,26.4V10.7c1.7,0.4,2.7,0.4,2.7,1.1v11.5h9.3V9.4c2.2,0.5,2.8,0.4,2.8,1.1v12.7h9.6V10.6c2.1,0.5,2.7,0.6,2.7,1.1
		v12.6c0,1.3-1.2,2.1-2.7,1.7v-0.9H64.3C64,26.3,62.9,26.7,61.7,26.4L61.7,26.4z M67.7,19.2v-1.8h-1.4c-0.6,0-0.7-0.2-1.2-1.5h2.7
		v-2h-1.5c-0.6,0-0.8-0.2-1.3-1.5h2.8V9.6c2,0.4,2.6,0.4,2.6,1v1.8c0.8,0.1,1.2-0.2,1.6-0.9c1.6,1.1,1.6,2.4-0.3,2.4h-1.3v1.9
		c0.7,0.1,1.1-0.2,1.6-0.9c1.7,1,1.6,2.4-0.3,2.4h-1.2v1.8c0.8,0.1,1.3-0.1,1.8-0.9c1.6,1,1.6,2.4-0.4,2.4h-1.4c0,1.9-1,2.5-2.6,2.1
		v-2.1h-1.7c-0.6,0-0.7-0.2-1.3-1.5L67.7,19.2L67.7,19.2z M82.1,38.8v-1.2H68.3c-0.3,1.2-1.6,1.7-2.9,1.5v-8.4c2.1,0.4,3,0.4,3,1
		h12.1c0.7,0,1.2-0.3,1.6-0.9l2.3,0.7c1.6,0.5,0.7,1.4,0.7,2.1v3.8C85.1,39,83.2,39.1,82.1,38.8z M82.1,35.7v-2.4H68.3v2.4H82.1z
		 M80.1,19.1v-1.8h-1.9c-0.6,0-0.7-0.2-1.2-1.5h3.1v-1.9h-1.9c-0.7,0-0.8-0.2-1.2-1.5h3.2V9.6c2.1,0.5,2.6,0.4,2.6,1v1.8
		c0.8,0.1,1.2-0.1,1.8-0.9c1.6,1.1,1.6,2.4-0.3,2.4h-1.4v1.9c0.8,0.1,1.1-0.2,1.6-0.9c1.6,1,1.6,2.4-0.3,2.4H83v1.8
		c0.8,0.1,1.4,0,1.9-0.9c1.6,1,1.7,2.4-0.3,2.4H83c0,1.9-0.9,2.5-2.6,2.2v-2.2h-2.1c-0.6,0-0.8-0.2-1.2-1.5H80.1L80.1,19.1z
		 M114.3,19h-2v5.8c0,1.5-1.5,2.1-3,1.8v-1.8h-6.1c-0.3,1.2-0.8,2.5-1.3,3.8c0.4,0.1,1.3,0.2,1.4,0.6h4.7c0.7,0,1.1-0.3,1.6-0.9
		c4.8,1.2,3,1.7,3,3.1v10.2c0,1.7-1.6,2.2-3,1.9v-2.6h-6.2v1.6c0,1.7-1.8,2.2-3,1.9V31.7c-4.8,6.8-5.5,5-5.1,4.4
		c1.9-2.3,4.7-8.3,5.2-11.3h-2.7c-0.6,0-0.8-0.5-1.5-2h4.3c0.2-1.1,0.3-2.4,0.4-3.8h-4.7c-0.6,0-0.7-0.4-1.5-2h6.3
		c0.1-1.3,0.1-2.7,0.1-3.9h-3.3c-0.7,0-0.8-0.5-1.4-2h10.8c0.8,0,1.2-0.3,1.8-0.9c4.6,1.1,3,1.3,3,2.9v3.8c1.1,0.1,1.7,0,2.6-1.1
		C116.4,17,117.1,19,114.3,19z M103.3,31.2v7.6h6.2v-7.6C109.5,31.2,103.3,31.2,103.3,31.2z M109.2,19H104c-0.2,1.3-0.3,2.6-0.5,3.8
		h5.7V19z M104.2,17h5v-3.9h-4.8C104.4,14.3,104.3,15.7,104.2,17z M125.9,38.8c-1,0-2.2-1.4-4.3-2.6c-0.4-0.2-0.1-0.6,0.3-0.5
		c6.9,1.9,6-6.4,0-11.5c-0.3-0.2-0.2-0.6,0-1.1c1.1-2.5,2.3-5.8,3.3-9.3h-5.4v29.1c0,1.8-1.6,2.3-3,2.1V10.7c0.4,0.2,3,0.5,3,1.1
		h4.5c0.7,0,1-0.2,1.6-0.7c2.3,1.6,3.1,1.7,2.5,3c-1.6,3.1-4,7.6-5.3,9.6C133,29.5,129.6,38.8,125.9,38.8z"/>
</g>
</svg>
