<svg width="579" height="142" viewBox="0 0 579 142" fill="#FFF" xmlns="http://www.w3.org/2000/svg">
<path d="M357.2,132.1v2.4c0,2.3,0.2,2.6,3.1,2.9v1.4h-10.8v-1.4c2.7-0.2,2.8-0.7,2.8-3v-2.2h-9.8v-1.6
	c4-5.5,8.6-11.6,11.8-15.8h2.8v15.1h3.5v2.2H357.2z M352.3,120c-1.8,2.5-4.5,6.2-7,9.9h7V120z M380.2,115l0.2,0.4l-1.2,3.8h-9.5
	c-0.3,1.6-0.8,4.1-1.2,5.7c1.9-0.7,4-1.2,5.1-1.2c4.9,0,7.5,3.1,7.5,6.4c0,2.4-1.1,4.7-3.8,6.6c-2.1,1.5-4.9,2.5-7.2,2.5
	c-1.5,0-3.2-0.5-4-1.3c-0.8-0.6-1-1-1-1.5c0-0.6,0.5-1.5,1.2-2c0.5-0.3,1-0.3,1.5,0.2c0.9,0.8,2.5,2.4,5,2.4c2.4,0,3.5-2.1,3.5-4.8
	c0-3.4-2.2-5.7-5.7-5.7c-1.7,0-3,0.4-4,0.6l-0.2-0.2c0.8-3.5,1.7-8.3,2.2-11.9H380.2z M396.4,131.4h-9.6l0.3-3h9.6L396.4,131.4z
	 M409.6,124.1c0.9-0.5,1.9-0.7,2.5-0.7c4.1,0,7.1,2.8,7.1,7.2c0,4.8-3.7,8.6-8.8,8.6c-4.9,0-8.6-3.7-8.6-9.7
	c0-7.8,5.9-12.3,10.3-13.9c1.1-0.4,4-1,5.7-1.2l0.2,1.5c-1.1,0.3-2.7,0.7-4.1,1.4c-1.9,1-5.2,3.1-6.3,7.8L409.6,124.1z M409.8,126.1
	c-0.9,0-1.7,0.2-2.4,0.4c-0.2,0.6-0.3,2.1-0.3,3.1c0,5,1.7,7.9,4.1,7.9c2.4,0,2.9-3,2.9-5.4C414.2,128.6,412.4,126.1,409.8,126.1z
	 M432.4,114.6c4.2,0,7,2.5,7,5.9c0,1.1-0.4,2.1-1.3,2.9c-0.6,0.5-1.4,1.1-2.8,2c2.7,1.4,5.1,3.2,5.1,6.5c0,4.8-4.8,7.3-8.6,7.3
	c-5.1,0-8.3-2.6-8.3-6.4c0-1.8,0.9-2.8,1.6-3.5c0.8-0.6,2.4-1.5,3.5-2.2c-2.2-1.3-4.1-3.1-4.1-5.9
	C424.5,117.6,427.7,114.6,432.4,114.6z M432.4,137.6c2.1,0,3.4-1.3,3.4-3.8c0-2.7-1.8-4-5.6-5.9c-1.1,0.8-2,2.4-2,4.4
	C428.1,135.9,430.2,137.6,432.4,137.6z M431.8,116.2c-1.9,0-2.9,1.4-2.9,3.3c0,2.5,1.9,3.8,4.9,5.1c0.9-0.8,1.4-1.9,1.4-4
	C435.3,117.2,433.3,116.2,431.8,116.2z M452,131.4c1.1-0.3,2.4-0.7,3.5-1l0.1,0.3c-1.7,1.5-4.4,3.8-8.4,6.7
	c-0.1,0.4-0.4,0.8-0.8,0.9l-2.1-4.8c0.8-0.2,2-0.5,3.5-0.9v-9.5h-2.9l-0.2-0.8h3.1v-8.2l5.3,0.5c-0.1,0.4-0.3,0.8-1.1,0.9v6.4
	l1.4-2.5c0,0,1.9,2.1,2.8,3.3c-0.1,0.3-0.4,0.5-0.8,0.5H452V131.4z M469.8,125.9c0,0,2.6,2.1,4,3.4c-0.1,0.3-0.5,0.5-0.9,0.5h-7.5
	v11c0,0.3-1.3,1.2-3.6,1.2h-0.8v-12.2h-7.4l-0.2-0.8h7.6v-12.1h-6.5l-0.2-0.8h12.8l2.1-2.9c0,0,2.4,1.9,3.8,3.2
	c-0.1,0.3-0.4,0.5-0.9,0.5h-6.7V129h2.1L469.8,125.9z M455.9,118.5c8.1,4.5,4,11.4,0.7,7.9c0.2-2.6-0.4-5.4-1.1-7.8L455.9,118.5z
	 M466,127.2c0.6-2.3,1.2-5.9,1.6-9l5.5,1.6c-0.2,0.4-0.5,0.7-1.2,0.7c-1.5,2.7-3.4,5.2-5.4,6.9L466,127.2z M484.2,121.5
	c-0.1,0.3-0.4,0.5-0.9,0.6v18.3c-0.1,0.3-1.8,1.1-3.4,1.1h-0.8v-15.1c-0.8,0.9-1.6,1.7-2.4,2.4l-0.3-0.2c1.8-4,3.6-10.1,4.3-15.8
	l5.7,1.7c-0.2,0.4-0.5,0.6-1.2,0.6c-0.7,2.1-1.5,4-2.4,5.8L484.2,121.5z M504.6,116.2c-0.2,0.4-0.6,0.8-1.4,0.8
	c-0.9,3-2.4,6.6-4.1,10.1c9.5,7.9,6.3,17.6,2,13.4c0-1.1-0.1-2.2-0.3-3.4c-1.6,0.8-3.6,1.6-5.8,2.5c-0.3,0.6-0.6,1-1.1,1.2l-2.3-5.1
	c0,0,1.1-0.4,1.4-0.9c0.5-0.9,1-2.3,1.6-4c-0.6,0.6-1.6,0.6-2.5-0.3c0-1.4-0.4-2.9-0.8-4.2v14.2c0,0.3-1.2,1.1-3.1,1.1h-0.7v-9.8
	c-1.1,1.6-2.3,3.1-3.7,4.4l-0.3-0.3c1.7-3.3,2.8-7.9,3.4-12.1h-2.3l-0.2-0.8h3.1v-5.2c-0.9,0.1-1.9,0.2-2.8,0.2l-0.1-0.3
	c2.7-1.2,6.1-3.3,7.8-4.7l4.3,3.8c-0.4,0.3-1.1,0.4-2.1,0c-0.9,0.2-2,0.4-3.2,0.6v5.6h0.5l1.6-2.4c0,0,1.8,1.6,2.8,2.7
	c-0.1,0.3-0.4,0.5-0.8,0.5h-4.2v1.1c2.7,1.1,3.7,2.7,3.9,3.9c1.4-4.6,2.8-10.5,3.1-14.6L504.6,116.2z M500.6,135.4
	c-0.5-2.5-1.2-5.1-1.9-7.4c-1.4,2.9-3,5.6-4.5,7.7C495.8,135.6,498.1,135.5,500.6,135.4z M538.2,118.9c-0.2,0.3-0.5,0.4-1.2,0.4
	c-1.2,1.2-3.2,2.8-4.8,3.8l-0.2-0.2c0.2-1.3,0.5-3.1,0.6-4.5h-19.3c0.3,2.3-0.5,4-1.6,4.7c-1.1,0.8-2.9,0.3-3.4-1.1
	c-0.4-1.3,0.3-2.3,1.4-2.9c1.1-0.5,2.4-2,2.4-3.4h0.4c0.3,0.6,0.5,1.3,0.6,1.8h8.2c-0.2-0.1-0.4-0.2-0.5-0.4
	c0.2-1.6-0.3-3.2-1.2-4.2l0.2-0.2c6.7,0,6.8,3.4,4.9,4.7h7.7l2.2-2.2L538.2,118.9z M535.1,136.3c1.3,0.5,1.6,1,1.6,1.8
	c0,1.9-1.6,2.7-8.2,2.7h-3.8c-3.9,0-5.2-0.6-5.2-3.8v-6.4h-9.8l-0.2-0.8h10v-4.9c-2.7,0.2-5.4,0.3-7.9,0.3l-0.1-0.4
	c5.7-1.1,12.8-3.2,16.4-5l4,3.8c-0.4,0.3-1.1,0.4-2.1,0c-1.7,0.4-3.7,0.7-5.9,0.9v0.3v5h5.5l2.3-3.1c0,0,2.6,2,4.2,3.4
	c-0.1,0.3-0.4,0.5-0.9,0.5h-11.1v5.3c0,0.6,0.3,0.8,1.4,0.8h3.7c1.1,0,2.1,0,2.7-0.1c0.5,0,0.8-0.2,1.1-0.5c0.5-0.6,1.1-2.1,1.9-4.3
	h0.3L535.1,136.3z M69,116.5c-0.2,0.3-0.5,0.5-1.1,0.7V139c-0.1,0.3-2.3,1.4-4,1.4h-0.8v-2.8H52.3v1.4c0,0.6-1.9,1.7-3.9,1.7h-0.8
	v-27.1l4.9,1.9h10.2l2.1-2.4L69,116.5z M52.3,116.4v9.5h10.8v-9.5H52.3z M63.1,136.8v-10H52.3v10H63.1z M92.1,120.1
	c2.5,5.4,7.2,9.4,11.9,11.4l-0.1,0.3c-1.8,0.4-3.2,1.8-3.9,3.9c-4.4-3.3-6.9-8.4-8.5-15.5v12.4l1.9-2.9c0,0,2.3,2.1,3.6,3.4
	c-0.1,0.3-0.4,0.5-0.8,0.5h-4.7v5.9c0,0.4-1.8,1.2-3.7,1.2h-0.8v-7.1h-5.2l-0.2-0.8h5.4v-6.3c-2.7,4.1-6.6,7.4-11.8,9.8l-0.3-0.2
	c4.7-4,8.1-10.3,9.6-16.1h-8.1l-0.2-0.8h10.8v-7.1l5.9,0.6c-0.1,0.5-0.3,0.9-1.4,1v5.5h4.8l2.4-3.3c0,0,2.7,2.2,4.2,3.7
	c-0.1,0.3-0.4,0.5-0.9,0.5H92.1z M124.9,116.7c13.4,2.5,10.7,11.9,6.1,9.1c-0.4-1.1-1-2.2-1.7-3.3c-4.3,1-10.5,2.2-18.3,3.5
	c-0.4,0.4-0.8,0.6-1.1,0.8l-1.3-5c0,0,0.9-0.2,1.4-0.4c2.9-1.3,7.2-6.4,8.5-9.4l5.9,2.2c-0.1,0.3-0.5,0.6-1.2,0.6
	c-2.4,2.4-6.7,5.2-10.6,7c4,0,9.8-0.1,16-0.2c-1.2-1.8-2.7-3.4-4.1-4.7L124.9,116.7z M128.5,126.1l4.3,3.3c-0.2,0.3-0.6,0.6-1.4,0.8
	v9.5c-0.1,0.2-2.4,1-3.9,1h-0.8V138h-10.3v1.4c0,0.5-2.1,1.5-4,1.5h-0.7v-14.2l4.9,1.8h9.7L128.5,126.1z M126.7,137.1v-7.9h-10.3
	v7.9H126.7z M155.8,117.5v4h5.1l2-2.2l4,3.1c-0.2,0.2-0.5,0.5-1.2,0.6v13.2c0,2.8-0.7,4.3-5.5,4.7c-0.1-1.4-0.2-2.4-0.8-3
	c-0.5-0.6-1.1-1.1-2.7-1.4v-0.4c0,0,3.1,0.2,3.9,0.2c0.5,0,0.6-0.2,0.6-0.6v-13.4h-15v17c0,0.5-1.9,1.5-3.7,1.5h-0.7v-21.2l4.7,1.8
	h4.8v-4h-11.7l-0.2-0.8h12v-4.5l5.5,0.4c-0.1,0.4-0.2,0.7-1.1,0.9v3.2h5.1l2.4-3c0,0,2.7,2,4.3,3.4c-0.1,0.3-0.5,0.5-0.9,0.5H155.8z
	 M155.6,133.3v5.7c0,0.2-1.3,0.8-3.4,0.8h-0.8v-6.5h-4.5l-0.2-0.8h4.7v-3.6h-3.9l-0.2-0.8h6.8c0.4-1.6,0.8-3.8,1-5.4l4.6,1.3
	c-0.1,0.4-0.5,0.6-1.1,0.6c-0.9,1-2.3,2.4-3.6,3.5h1.5l1.6-1.9c0,0,1.8,1.3,3,2.3c-0.1,0.3-0.4,0.5-0.8,0.5h-4.6v3.6h0.4l1.8-2.2
	c0,0,2,1.5,3.3,2.6c-0.1,0.3-0.4,0.5-0.8,0.5H155.6z M148.1,122.9c7.8,1.2,4,7,1,4.4c0-1.5-0.6-3.2-1.3-4.2L148.1,122.9z
	 M175.1,126.3c0-1.6,1.3-2.9,2.9-2.9c1.6,0,2.9,1.3,2.9,2.9c0,1.5-1.3,2.8-2.9,2.8C176.3,129.1,175.1,127.8,175.1,126.3z M216,129.9
	c-0.2,0.3-0.6,0.4-1.2,0.2c-1,0.5-3,1.1-5,1.5c2,2.3,4.6,4,7.4,4.8l-0.1,0.3c-1.4,0.4-2.7,1.8-3.1,3.8c-2.3-1.4-4-3.2-5.3-5.7
	c-1.2,1-3.6,2.8-6.6,4.7c-0.4,0.7-0.9,1.2-1.3,1.4l-2.1-4.5c1.3-0.6,1.5-1,1.5-1.8v-18.2c-0.2,0-0.4,0.1-0.7,0.1
	c-1.1,1.9-3,4.9-4.8,6.8c3.5,1.8,5.1,5,5.1,7.6c0,3-1.3,5-5,5c0-1.1-0.1-2.8-0.4-3.4c-0.2-0.3-0.5-0.6-1.1-0.8v7.9
	c0,0.3-1.2,1.3-3.3,1.3h-0.7v-28l4.4,1.6h1.2l2.1-2l3.3,3v-2.7l4.5,1.8h5l1.9-2.1l3.8,2.9c-0.2,0.2-0.5,0.5-1.2,0.6v10
	c0,0.2-1.1,0.7-2.2,1L216,129.9z M194.8,131.3c0.3,0,0.4-0.1,0.6-0.2c0.4-0.2,0.6-0.7,0.6-1.5c0-2.1-0.5-4.4-1.9-6.3
	c0.4-2,1-5.6,1.2-8h-1.9v15.9H194.8z M204.4,115.5v4.3h5.7v-4.3H204.4z M204.4,125.2h5.7v-4.7h-5.7V125.2z M204.4,135.4
	c1.3-0.2,2.8-0.5,4.2-0.8c-1.1-2.3-1.9-5.1-2.4-8.5h-1.8V135.4z M206.7,126.1c0.5,1.7,1.4,3.3,2.4,4.7c0.8-1.1,1.6-2.4,2.1-3.4
	c-0.1,0-0.3,0-0.4,0h-0.7v-1.3H206.7z M245,136.7c0.6,0.5,2.5,1.9,3.7,3c-0.1,0.3-0.4,0.5-0.9,0.5h-27.2l-0.2-0.8h11.7v-2.7H223
	l-0.2-0.8h9.4v-2.4h-3v0.4c0,0.4-2,1.3-3.8,1.3h-0.6v-10.8l4.6,1.8h9.8l1.8-2h-19.9l-0.2-0.8h21.8l2-2.6c0,0,2.3,1.8,3.6,3
	c-0.1,0.3-0.4,0.5-0.8,0.5h-5.9l3.8,2.9c-0.2,0.3-0.6,0.6-1.3,0.8v5.6c0,0.1-0.3,0.2-0.6,0.3c0.8,0.6,2.1,1.8,3.1,2.6
	c-0.1,0.3-0.4,0.5-0.8,0.5H245z M229.5,121.5c0,0.4-1.9,1.3-3.7,1.3h-0.6v-10.3l4.5,1.7h9.3l1.9-2.1l4,3c-0.2,0.2-0.5,0.5-1.2,0.7
	v5.5c0,0.2-2.2,0.9-3.6,0.9h-0.8v-0.8h-9.8V121.5z M229.2,126.9v2.4h3v-2.4H229.2z M232.2,132.6v-2.4h-3v2.4H232.2z M229.5,115.1
	v2.2h9.8v-2.2H229.5z M239.3,120.4v-2.3h-9.8v2.3H239.3z M236.4,126.9v2.4h3.1v-2.4H236.4z M239.5,130.2h-3.1v2.4h3.1V130.2z
	 M236.4,135.9h4.2l1.4-1.8c-0.6,0.1-1.2,0.2-1.8,0.2h-0.8v-0.8h-3.1V135.9z M242.7,139.4l2-2.7h-8.3v2.7H242.7z M273.6,124.1
	c1.2,1,3.9,2.3,7.5,3v0.4c-1.8,0.5-2.7,1.3-2.8,3.5c-1.4-0.7-2.5-1.8-3.4-3.1c-0.3,0.2-0.5,0.3-1.2,0c-0.5,0.1-1.1,0.2-1.7,0.2v2.8
	h1.1l1.7-2c0,0,1.9,1.4,3.1,2.4c-0.1,0.3-0.4,0.5-0.8,0.5H272v7.9c0,0.2-1.2,1-3.1,1h-0.7v-5.9c-1.7,2.2-3.9,3.9-6.1,4.9l-0.3-0.3
	c1.2-1.7,2.5-4.4,3.4-7.2l3.1,1.3v-1.8h-4.9l-0.2-0.8h5.1v-2.6c-0.9,0-1.8,0-2.6,0c-0.9,0.8-2.1,1.6-3.3,2.2l-0.2-0.3
	c0.2-0.2,0.4-0.4,0.5-0.5h-2.8v3.8c1-0.2,2.1-0.4,3.2-0.5l0.1,0.3c-1.6,1.2-4,2.9-7.9,5.1c-0.2,0.4-0.5,0.7-0.8,0.8l-2.4-4.4
	c0.9-0.1,2.4-0.3,4.2-0.6v-4.4h-3.3l-0.2-0.8h3.6v-4.6l4.4,0.4c-0.1,0.3-0.2,0.6-0.8,0.7v3.2l1.1-1.5c0,0,1.3,1.1,2.3,2
	c1.2-1.5,2.1-3.2,2.9-5h-2.4l-0.2-0.6c-0.7,0.6-1.8,0.8-2.8-0.1c0-0.3,0-0.5-0.1-0.8c-1.7,0.7-3.8,1.6-6.2,2.4
	c-0.2,0.5-0.6,0.8-0.9,0.9l-1.6-4.2c0,0,0.7-0.2,1-0.3c0.9-0.8,2-3.4,2.4-5.2h-3.1l-0.2-0.8h8.1l1.6-2.2c0,0,1.7,1.4,2.7,2.4h3.5
	c0.1-1.1,0.2-2.2,0.2-3.3l5.5,1c-0.1,0.4-0.3,0.6-1.1,0.7c-0.1,0.5-0.2,1.1-0.3,1.6h2l1.8-2.4c0,0,2,1.6,3.2,2.7
	c-0.1,0.3-0.4,0.5-0.8,0.5h-6.4c-0.2,1-0.5,2-0.8,2.9h1.8l1.8-2.4c0,0,2,1.6,3.2,2.7c-0.1,0.3-0.4,0.5-0.8,0.5h-6.3
	c-0.4,1.1-0.8,2.1-1.3,3.1h5.8l1.8-2.5c0,0,2.1,1.7,3.2,2.8c-0.1,0.3-0.4,0.5-0.8,0.5H273.6z M266.5,123.3c0.4-1,0.7-2,0.9-3.1h-2.2
	l-0.2-0.8h2.6c0.2-1,0.4-2,0.5-2.9h-3.6l-0.1-0.3c-0.1,0-0.2,0.1-0.4,0.1h-3.7c-1.4,1.8-3.6,3.9-5.5,5.4c1.6-0.1,3.6-0.2,5.7-0.4
	c-0.3-1.1-0.8-2.1-1.4-2.9l0.3-0.2c4.9,1.1,5.4,3.8,4.5,5.2H266.5z M274.8,127.8c-1-1.3-1.6-2.7-2-3.7h-3.6
	c-0.8,1.3-1.6,2.4-2.7,3.5c2-0.8,4.2-1.9,5.4-2.7L274.8,127.8z M272.6,133.1c9.1,1.4,6.6,8,3.1,5.9c-0.6-2-2.1-4.2-3.4-5.7
	L272.6,133.1z M312.1,137.1c0.9,1.5,1.1,2.4,0.6,2.9c-1.2,1.4-3.4,0.3-4.6-0.8c-1-0.9-1.9-2-2.6-3.2c-2.1,2.1-4.5,3.6-7.4,4.8
	l-0.3-0.3c1.6-1.1,3.1-2.5,4.5-4.1h-5.7l-1,1.6l-3.1-1.9c0.2-0.2,0.6-0.5,0.9-0.8v-13.8l3.3,1.6h2l1.4-1.9c0,0,1.1,1,2.1,1.8
	c0-0.6-0.1-1.2-0.1-1.8h-9.4v5.6c0,4.3-0.3,10.3-5.1,14.2l-0.3-0.2c1.6-3.2,2-7,2.1-10.7h-1c-0.2,3.3-1,6.8-4,9.4l-0.4-0.4
	c1.6-2.8,1.7-6.1,1.7-8.9h-1.3l-0.3-0.8h5.3c0-0.8,0-1.6,0-2.4v-0.4h-0.8l-1,1.6l-3.1-1.9c0.2-0.3,0.6-0.6,0.9-0.8v-5.6l4,0.4v-1.1
	l3.8,1.4h8.8c0-0.7,0-1.4,0-2.1l4,0.4c-0.2-0.3-0.3-0.7-0.5-1c-0.9,0.4-2.3,0.5-3.7,0.2l0.2-1.6h-2.5l-0.2-0.8h2.9l0.5-3.1l5.2,0.8
	c-0.1,0.4-0.3,0.7-1.1,0.8l-0.2,1.6h1.1l1.8-2.5c0,0,2,1.7,3.1,2.8c-0.1,0.3-0.4,0.5-0.8,0.5h-5.3l-0.1,0.5c5,0.3,2.7,4.6,0.2,3
	c0-0.2-0.1-0.3-0.1-0.5c-0.2,0.1-0.4,0.2-0.7,0.2v0.9h2.7l1.7-2.3c0,0,1.9,1.6,3,2.7c-0.1,0.3-0.4,0.5-0.8,0.5h-6.6
	c0,2.9,0.2,5.7,0.8,8.2c0.8-2.1,1.4-4.4,1.7-6.9l4.6,1.6c-0.2,0.4-0.5,0.6-1.2,0.5c-0.9,3.5-2.1,6.3-3.6,8.6c0.5,1.1,1.3,2,2.1,2.8
	c0.4,0.4,0.6,0.4,0.8-0.1c0.4-0.7,1.1-2.1,1.5-3.3l0.3,0.1L312.1,137.1z M284.6,115.3h4.9l-0.4-3.1l5.3,0.3c0,0.4-0.2,0.7-0.8,0.9
	l0.2,1.9h0.5l1.8-2.5c0,0,2,1.7,3.1,2.8c-0.1,0.3-0.4,0.5-0.8,0.5h-4.5l0.2,1.5c-0.6,0.8-2.2,1.1-4.2,1.1l-0.3-2.6h-4.7L284.6,115.3
	z M289.5,125.5v-5.3c-0.2,0.2-0.5,0.4-1.1,0.5v4.8H289.5z M297.2,127.3v-3.4h-0.8v3.4H297.2z M299.6,128.1h-3.3v3.1h3.3V128.1z
	 M297.2,135.7v-3.5h-0.8v3.5H297.2z M299.6,123.9v3.1l1-1l2.1,1.5c-0.2-1.2-0.3-2.4-0.4-3.7c-0.1,0-0.2,0-0.3,0H299.6z M300.8,133.7
	c0,0,1.2,1,2.2,1.9c0.5-0.6,0.9-1.2,1.3-1.9c-0.7-1.7-1.2-3.5-1.5-5.5c-0.2,0.1-0.3,0.1-0.5,0.1v3.8c0,0.2-1.4,0.8-2.3,0.8h-0.4v2.3
	L300.8,133.7z M327.8,141.6h-1.2v-30.2h1.2V141.6z"/>
<path fill="#000" d="M156.4,70.1c-6.1,0-10.4-0.9-12.9-2.8c-2.8-1.9-4.2-5.3-4.2-10.2V19.9c0-6.4-0.3-11.7-1-15.7L149,8.4h35.5
	l1.9-2.4c0.1-0.2,0.3-0.4,0.5-0.6c0.9-1.2,1.6-1.8,1.9-1.8c0.5,0,2,1,4.6,3.1c2.5,2,3.8,3.3,3.8,3.9c-0.8,0.9-1.8,1.5-3.2,1.8v8.4
	c0.2,7.1,0.3,12.6,0.5,16.5c-0.3,0.5-1.3,1-3.1,1.6c-1.8,0.6-3.4,0.9-4.8,0.9c-1.2,0-1.8-0.5-1.8-1.5c0-0.3,0.1-0.6,0.2-1.1
	c0.1-0.4,0.1-0.7,0.2-0.9v-1.8H148v23c0,1.5,0.6,2.6,1.8,3.2c1.2,0.6,3.2,0.8,6.1,0.8h25.7c2.7,0,4.6-0.2,5.7-0.5
	c1.4-0.3,2.4-0.9,3.1-1.9c1.3-1.7,2.9-5.8,4.9-12.1h0.8l0.2,12.5c2,0.6,3.3,1.1,4,1.5c0.7,0.5,1.1,1.2,1.1,2.1
	c0,2.3-1.2,4.1-3.7,5.1c-3,1.3-8.1,1.9-15.5,1.9H156.4z M148,32.2h14.6V10.6H148V32.2z M171.2,32.2h14.2V10.6h-14.2V32.2z M210,73
	l-0.2-1c7.6-3.1,13-7.1,16.3-11.9c3-4.3,4.7-10.2,5.1-17.6h-2.1v2.4c0,0.5-0.8,1-2.4,1.7c-1.7,0.7-3.3,1.1-4.9,1.1
	c-1.1,0-1.7-0.5-1.7-1.5c0.2-2.1,0.4-4.7,0.5-7.9v-4.7c0-5.8-0.3-10.7-0.9-14.5l10,4.1h9.8v-9.8h-15c-3.6,0-7.5,0.4-11.5,1.1
	l-1.9-3.9c2.8,0.3,6.2,0.5,10.2,0.6h18.2c0-4.5-0.2-8-0.6-10.6c5.5,1.2,8.9,2.1,10.3,2.7c1,0.5,1.1,0.9,0.4,1.5l-1.3,0.8V11H263
	l2.3-3.1c0.2-0.3,0.5-0.6,0.8-1.1c1.1-1.4,1.8-2.1,2.1-2.1c0.5,0,2.1,1.1,4.7,3.3c2.6,2.2,3.9,3.5,3.9,4.1c-0.2,0.8-0.9,1.2-2.1,1.2
	h-26.5V23h9.6l1.8-2.2c0.2-0.2,0.4-0.4,0.6-0.8c0.9-1,1.5-1.5,1.8-1.5c0.5,0,2,1,4.5,2.9c2.5,1.9,3.7,3.1,3.7,3.7
	c-0.6,0.8-1.6,1.4-3,1.6v5.9c0.1,4.7,0.3,8.5,0.5,11.3c-0.3,0.6-1.3,1.3-2.9,1.9c-1.7,0.8-3.3,1.1-4.8,1.1c-1.1,0-1.7-0.5-1.7-1.5
	c0.1-0.2,0.1-0.5,0.2-0.8c0.1-0.3,0.1-0.5,0.2-0.6v-1.5h-4v0.8v18.1c0,0.6,0.2,1,0.5,1.2c0.3,0.2,1.1,0.3,2.3,0.3h6.6
	c3.1,0,4.9,0,5.7-0.1c0.8-0.1,1.4-0.4,1.8-1.1c0.6-1.1,1.6-4.4,3.2-9.7h0.8l0.2,10.1c1.1,0.5,1.8,1,2.2,1.5c0.4,0.5,0.5,1.1,0.5,2.1
	c0,1.8-1,3.1-3,3.9c-2.3,0.9-6.4,1.3-12.3,1.3h-7.7c-3.7,0-6.1-0.5-7.3-1.5c-1.2-1-1.8-3-1.8-5.9v-21h-5.7c-0.8,8.6-3.4,15.2-8,20
	C227.9,67.3,220.3,70.9,210,73z M229.1,40.2h29.4v-15h-29.4V40.2z M297.8,72.7c-0.6,0-1.1-0.2-1.5-0.5c-0.4-0.3-0.6-0.7-0.6-1.1
	c0.5-6.6,0.7-13.2,0.8-19.9V23.3h-3.5c-1.9,0-3.9,0.4-6,1.1l-2-3.8c2.8,0.3,6.2,0.5,10.2,0.6h8.8l4.4-6c2.4,2.1,4.8,4.3,7.2,6.5
	v-0.8c0-6.4-0.3-11.7-1-15.7l9,3.7h2.6c0-3.1-0.2-5.7-0.5-8c3.4,1.1,5.6,1.9,6.5,2.5c0.7,0.5,0.7,0.8,0.2,1.1l-0.8,0.5v3.9h3.3
	c0-3.1-0.2-5.8-0.5-8.1c3.5,1.1,5.8,1.9,6.7,2.5c0.7,0.5,0.7,0.8,0.2,1.1l-0.8,0.5v4h3.1l1.6-2.4c0.2-0.2,0.4-0.5,0.6-0.8
	c0.8-1.1,1.3-1.6,1.6-1.6c0.5,0,1.8,0.9,3.8,2.6c2,1.8,3,2.9,3,3.5c-0.6,0.7-1.5,1.1-2.8,1.4v17.9c0,0.4-0.7,0.7-2.1,1.1
	c1.1,0.9,3.2,2.6,6.1,5.2c-0.2,0.8-0.8,1.2-1.9,1.2h-28.2c-3.6,0.1-7.5,0.4-11.5,1.1l-2-3.9c2.8,0.3,6.2,0.5,10.2,0.6h23.3l3.1-3.9
	c-1.2,0.2-2.3,0.3-3.1,0.3h-1.3v-2.1h-21.2v1.5c0,0.4-0.5,0.7-1.6,1.1c-1.3,0.5-2.8,0.8-4.4,0.8c-1.1,0-1.6-0.5-1.6-1.5
	c0.1-0.8,0.2-1.9,0.3-3.3c0-0.7,0-1.2,0.1-1.6v-3.3c-0.4,0.3-0.9,0.5-1.6,0.5h-10.2v28.9c0.1,6.3,0.3,12.3,0.6,18
	c-0.4,0.6-1.1,1.1-2.1,1.5C301,72.3,299.5,72.7,297.8,72.7z M286.7,65.4l-1-0.8c1.6-4.9,2.5-12.9,2.5-23.8v-5.6c0-2.4-0.1-4.4-0.3-6
	c3.8,1.1,6.1,1.9,7,2.5c0.7,0.5,0.6,0.9-0.1,1.5l-1.1,0.8v7C293.5,52.1,291.2,60.3,286.7,65.4z M289,10.6l-2-3.9
	c2.8,0.3,6.2,0.5,10.2,0.6h4.9l2-2.9c0.2-0.3,0.5-0.6,0.8-1.1c0.9-1.3,1.5-1.9,1.8-1.9c0.5,0,1.9,1,4.1,3c2.2,2,3.4,3.3,3.4,3.9
	c-0.2,0.8-0.8,1.2-1.9,1.2h-11.7C296.8,9.6,293,9.9,289,10.6z M307.7,61.6c-0.5,0-0.8-0.2-1.1-0.5c-0.3-0.3-0.4-0.7-0.4-1.1
	c0.3-2.3,0.4-5.4,0.5-9.2v-5.4v-0.8c0-6.4-0.3-11.7-1-15.7c4.2,1.1,6.8,1.9,7.8,2.4c0.8,0.5,0.8,0.9,0.1,1.4l-1.2,0.8v7.6
	c0.1,6.2,0.3,12.1,0.6,17.8c-0.4,0.6-1,1.2-2.1,1.8C309.9,61.3,308.8,61.6,307.7,61.6z M312.2,72.1l-1.9-3.8
	c2.8,0.3,6.2,0.5,10.2,0.6h6.4c-0.9-0.3-1.7-0.8-2.4-1.5c0-2.9-0.6-6-2-9.5c-1.2,0.2-2.2,0.3-3.1,0.3H318v-10
	c0-4.4-0.2-7.8-0.6-10.3l9,3.8h15.8l1.6-2.4c0.2-0.2,0.4-0.5,0.6-0.8c0.8-1.1,1.3-1.6,1.6-1.6c0.5,0,1.8,0.9,3.8,2.6
	c2,1.8,3,2.9,3,3.5c-0.4,0.7-1.3,1.1-2.6,1.4v3.8c0,0.6,0,1.4,0.1,2.4c0.1,2.2,0.2,3.8,0.3,4.9c-0.3,0.4-0.9,0.8-2.1,1.2
	c-1.4,0.5-3,0.7-4.7,0.7h-1.4v-2.8h-16.8v1.8c0,0.3-0.3,0.5-0.9,0.8c3.2,1.1,5.4,2.5,6.7,4.3c1.1,1.5,1.4,3.1,0.9,4.6
	c-0.5,1.4-1.4,2.4-2.8,2.8h6.6c1.2-4.7,1.8-9,1.6-12.9c5,1.4,8.2,2.5,9.5,3.2c0.9,0.5,1,0.9,0.2,1.2l-1.4,0.5
	c-2.3,2.8-5.1,5.5-8.2,8h7.3l1.8-2.8c0.2-0.2,0.4-0.5,0.6-0.9c0.9-1.2,1.5-1.8,1.8-1.8c0.5,0,1.8,0.9,3.9,2.8
	c2.1,1.9,3.2,3.1,3.2,3.6c-0.2,0.8-0.8,1.2-1.9,1.2h-30.8C320,71.1,316.2,71.5,312.2,72.1z M322.9,17.8h3.4V11h-3.4V17.8z
	 M322.9,26.9h3.4v-7h-3.4V26.9z M325.5,52.4h16.8v-8.6h-16.8V52.4z M331.8,17.8h3.3V11h-3.3V17.8z M331.8,26.9h3.3v-7h-3.3V26.9z
	 M340.9,17.8h3.3V11h-3.3V17.8z M340.9,26.9h3.3v-7h-3.3V26.9z M391.3,27.3c5,0,8.9,0.9,11.6,2.7c3,2.1,4.9,5.2,4.9,9.7
	c0,9.6-8.2,13.6-14.9,13.6c-0.7,0-1.5-0.1-1.9-0.1l-4.1-1.1v9.4c0,5.5,0.5,5.8,6.3,6.3v2.2h-20v-2.2c5.2-0.6,5.7-0.9,5.7-6.4V36
	c0-5.7-0.7-6.1-5.7-6.5v-2.2H391.3z M386.8,49.5c0.8,0.4,2.3,0.7,4,0.7c3.5,0,8.6-1.9,8.6-10.5c0-7.3-4.3-9.9-9-9.9
	c-1.6,0-2.6,0.3-3,0.7c-0.5,0.4-0.6,1.1-0.6,2.4V49.5z M430.7,70.1v-2.2c4.2-0.6,4.4-1.3,3.5-4c-0.7-2.2-1.9-5.3-3-8.4h-13.3
	c-0.8,2.4-1.8,4.9-2.5,7.2c-1.4,4.2-0.1,4.7,5.2,5.3v2.2h-15.9v-2.2c4.2-0.5,5.2-1.1,7.5-6.7l13.7-34.3l2.8-0.5
	c4.2,11.4,8.7,23.4,12.9,34.5c2.3,6,2.9,6.5,7.3,7v2.2H430.7z M424.6,37.3c-2,5.1-4,10-5.7,15H430L424.6,37.3z M491.9,70.5
	c-0.6,0-1.3,0-2.1-0.1c-7.1-0.4-9.6-2-11.9-5.2c-2.6-3.5-4.6-7.6-6.8-11.3c-1.1-1.9-2-2.3-4.6-2.3l-1.7,0v9.9c0,5.4,0.7,5.8,5.7,6.4
	v2.2h-19.3v-2.2c5.2-0.6,5.7-1,5.7-6.4V35.8c0-5.3-0.7-5.9-5.7-6.3v-2.2h18.3c5.5,0,8.8,0.6,11.4,2.4c2.7,1.8,4.4,4.7,4.4,8.7
	c0,5.8-3.8,9.1-8.3,10.9c1.1,2,3.7,6.3,5.7,9.3c2.4,3.6,3.7,5.3,5.1,6.8c1.6,1.8,2.6,2.4,4.4,2.9L491.9,70.5z M467.1,49
	c3,0,5.2-0.5,6.7-1.8c2.3-1.9,3.3-4.4,3.3-7.8c0-7-4.3-9.5-8.4-9.5c-1.8,0-2.8,0.3-3.2,0.7c-0.5,0.4-0.7,1.2-0.7,2.6V49H467.1z
	 M494.6,27.3h19.1v2.2c-4.9,0.5-5.7,0.9-5.7,6.6v11.2c1.4-0.3,2.9-1.4,5-3.3c4.2-4.1,7.6-8,10-10.8c1.7-2.1,1.4-3.1-1.6-3.4
	l-1.5-0.2v-2.2h16.8v2.2c-4.7,0.6-6.9,0.9-11.1,5.4c-2.4,2.4-6.3,6.3-9.6,9.8c4.5,5.8,10.4,13.4,14.8,18.8c2.8,3.3,3.6,3.8,7.2,4.3v2.2h-12.2c-3.6-4.4-9.2-11.9-14.4-18.6c-1.4-1.9-2.5-2.2-3.6-2.1v12c0,5.6,0.5,5.9,5.7,6.5v2.2h-19.2v-2.2c5.1-0.5,5.7-0.9,5.7-6.5V36.1c0-5.7-0.6-6.1-5.7-6.6V27.3z"/>
<path fill="#B1B919" d="M52.9,0.4v47.7l2.6,8.9v16h-3.8V53.6l-2.5-4.8l1.2-33.3l-2.4-5.5V0.4H52.9z M76.2,0.4v65.7H75V73h4.5v-9.3h-1.8v-9.5l1.8-1.2V29.6l-1.8-3.2V10.2l1.8-4V0.4H76.2z M103,0.4V73h3.6v-4.2h-2.2V47.8l1.1-2.9V32.7l-1.3-2.1V8.7l1.7-3V0.4H103z"/>
<path fill="#46A83D" d="M72.7,9.4v-9h-2.7v10.1l-1.6,3.9V0.4H66V73h1.9V59.5h1.6V73h2V49l1.2-1.5v-13l-1.3-4.2V12.2L72.7,9.4zM68.4,37.5V22.4l1.1,2v13.7L68.4,37.5z M98.2,0.4v9.3l-1.5,2.8v32.8l1.5,2.2v19.6l-1.3,1.7V73h-1.4V5.2h-4V0.4H98.2z M120.9,33.1v27.4L119.5,73h-2.8V62.5h-1.3V46.2l1.3-2.7V0.4h1.5v5.5l0.8,2.2v14L120.9,33.1z"/>
<path fill="#6B9931" d="M113.6,0.4v4.7H113v30.2h-0.7V73h-2.1V29.9l-1-2V15.3l1.3-1.6V3.4h0.6v-3H113.6z M88,36.7V0.4h-4.5v5.8h0.7v22.3h0.7v12.2h-1.4v14.3h1.4v8.7h-1.4V73h7.9V51L88,36.7z M61.5,21.7V7.4L60.3,5V0.4h-4.7V9l3.7,13.9v50h2.2V61l-0.8-1.4V25.9L61.5,21.7z"/>
</svg>
