<svg width="87" height="116" viewBox="0 0 87 116" fill="none" xmlns="http://www.w3.org/2000/svg">
<path d="M7.38052 102.998C7.25831 102.425 7.01388 101.949 6.89778 101.778C6.69613 101.516 6.61059 101.418 5.95065 101.418H5.23571V107.286C5.23571 108.335 5.3457 108.408 6.34172 108.5V108.963H2.63872V108.5C3.58586 108.414 3.68974 108.335 3.68974 107.286V101.418H3.01147C2.38819 101.418 2.20487 101.528 1.99711 101.833C1.83824 102.071 1.68548 102.516 1.53882 103.016H1.11108C1.19052 102.108 1.26996 101.132 1.28829 100.534H1.62437C1.78936 100.821 1.92379 100.845 2.25987 100.845H6.72669C7.0261 100.845 7.18498 100.772 7.37441 100.534H7.69827C7.71049 101.058 7.75326 102.156 7.80826 102.968L7.38663 103.004L7.38052 102.998Z" fill="white"/>
<path d="M15.2753 106.835C15.2203 107.17 14.9087 108.61 14.8048 108.957H9.01813V108.506C10.0325 108.396 10.0997 108.329 10.0997 107.28V102.51C10.0997 101.449 9.96526 101.376 9.20756 101.302V100.839H12.8372C14.0105 100.839 14.4015 100.827 14.5543 100.814C14.5665 101.04 14.6215 102.065 14.6643 102.833L14.2304 102.894C14.1327 102.467 13.9432 101.955 13.7477 101.736C13.5461 101.485 13.3994 101.412 12.8311 101.412H12.104C11.6823 101.412 11.6334 101.437 11.6334 101.864V104.474H12.7272C13.3505 104.474 13.4666 104.285 13.6316 103.401H14.0654V106.182H13.6316C13.4544 105.261 13.3627 105.109 12.715 105.109H11.6334V107.256C11.6334 108.116 11.6579 108.378 12.3484 108.39H13.1428C13.766 108.39 13.9371 108.305 14.1815 107.963C14.4626 107.603 14.6826 107.14 14.8598 106.713L15.2753 106.822V106.835Z" fill="white"/>
<path d="M22.4125 106.755C22.3208 107.292 22.0092 108.616 21.9114 108.951H16.3752V108.488C17.359 108.414 17.4446 108.323 17.4446 107.274V102.516C17.4446 101.467 17.3346 101.37 16.4975 101.296V100.833H19.9805V101.296C19.1128 101.382 18.9967 101.473 18.9967 102.516V107.359C18.9967 108.042 19.0211 108.36 19.6322 108.372C19.6566 108.384 20.1699 108.384 20.2127 108.384C20.8482 108.384 21.0132 108.231 21.282 107.896C21.4959 107.646 21.7831 107.109 21.9847 106.597L22.4064 106.749L22.4125 106.755Z" fill="white"/>
<path d="M23.4941 108.951V108.488C24.3434 108.402 24.4412 108.323 24.4412 107.274V102.516C24.4412 101.467 24.3312 101.37 23.4941 101.296V100.833H26.9404V101.296C26.1033 101.382 25.9933 101.473 25.9933 102.516V107.274C25.9933 108.311 26.0911 108.384 26.9404 108.488V108.951H23.4941Z" fill="white"/>
<path d="M36.2346 101.302C35.5563 101.4 35.3424 101.565 35.3058 102.126C35.2691 102.614 35.2385 103.035 35.2385 104.12V109.085H34.6153L29.959 102.846V105.664C29.959 106.749 29.9835 107.237 30.014 107.597C30.0568 108.146 30.2951 108.433 31.12 108.482V108.945H28.3519V108.482C28.9874 108.421 29.2685 108.231 29.3357 107.646C29.3785 107.195 29.403 106.749 29.403 105.664V102.705C29.403 102.297 29.3785 102.022 29.1708 101.693C28.9691 101.382 28.7002 101.345 28.2358 101.296V100.833H30.4112L34.6641 106.365V104.12C34.6641 103.035 34.6519 102.62 34.6214 102.162C34.5908 101.626 34.4075 101.363 33.4848 101.302V100.839H36.2407V101.302H36.2346Z" fill="white"/>
<path d="M46.7875 106.646C46.7081 107.121 46.3965 108.518 46.2987 108.957H40.3042L40.2248 108.683C41.5874 106.402 43.0906 103.828 44.4777 101.431H42.7607C41.9602 101.431 41.7708 101.559 41.5325 101.979C41.398 102.205 41.2453 102.589 41.0864 103.053L40.6648 103.041C40.732 102.278 40.842 101.083 40.8786 100.534H41.2697C41.4041 100.833 41.5569 100.845 41.893 100.845H46.4026L46.482 101.071C45.1193 103.419 43.6834 105.877 42.284 108.347C42.6507 108.384 42.9745 108.384 43.6773 108.384C45.0033 108.384 45.2171 108.347 45.541 108.012C45.8098 107.737 46.1337 107.164 46.3659 106.536L46.7875 106.646Z" fill="white"/>
<path d="M56.0145 101.302C55.1468 101.4 55.0673 101.479 55.0673 102.51V107.292C55.0673 108.329 55.159 108.402 56.0145 108.488V108.951H52.5681V108.488C53.448 108.36 53.5153 108.323 53.5153 107.292V104.944H50.5028V107.292C50.5028 108.329 50.6066 108.39 51.4377 108.488V108.951H48.0035V108.488C48.8285 108.39 48.9507 108.323 48.9507 107.292V102.51C48.9507 101.473 48.8468 101.376 48.0035 101.302V100.839H51.4377V101.302C50.5883 101.388 50.5028 101.479 50.5028 102.51V104.297H53.5153V102.51C53.5153 101.473 53.4053 101.4 52.5681 101.302V100.839H56.0145V101.302Z" fill="white"/>
<path d="M63.6527 106.835C63.5977 107.17 63.286 108.61 63.1822 108.957H57.3893V108.506C58.4037 108.396 58.4709 108.329 58.4709 107.28V102.51C58.4709 101.449 58.3365 101.376 57.5788 101.302V100.839H61.2084C62.3817 100.839 62.7727 100.827 62.9255 100.814C62.9377 101.04 62.9927 102.065 63.0355 102.833L62.6016 102.894C62.4978 102.467 62.3145 101.955 62.1189 101.736C61.9173 101.485 61.7706 101.412 61.2023 101.412H60.4752C60.0474 101.412 60.0047 101.437 60.0047 101.864V104.474H61.0985C61.7217 104.474 61.8378 104.285 62.0028 103.401H62.4367V106.182H62.0028C61.8256 105.261 61.734 105.109 61.0862 105.109H60.0047V107.256C60.0047 108.116 60.0291 108.378 60.7196 108.39H61.514C62.1372 108.39 62.3083 108.305 62.5528 107.963C62.8339 107.603 63.0538 107.14 63.231 106.713L63.6466 106.822L63.6527 106.835Z" fill="white"/>
<path d="M73.8145 106.755C73.7229 107.292 73.4112 108.616 73.3135 108.951H67.7773V108.488C68.7611 108.414 68.8466 108.323 68.8466 107.274V102.516C68.8466 101.467 68.7366 101.37 67.8995 101.296V100.833H71.3825V101.296C70.5148 101.382 70.3987 101.473 70.3987 102.516V107.359C70.3987 108.042 70.4232 108.36 71.0342 108.372C71.0587 108.384 71.5719 108.384 71.6147 108.384C72.2502 108.384 72.4213 108.231 72.6841 107.896C72.8979 107.646 73.1851 107.109 73.3868 106.597L73.8145 106.749V106.755Z" fill="white"/>
<path d="M74.9022 108.951V108.488C75.7516 108.402 75.8494 108.323 75.8494 107.274V102.516C75.8494 101.467 75.7394 101.37 74.9022 101.296V100.833H78.3486V101.296C77.5114 101.382 77.4014 101.473 77.4014 102.516V107.274C77.4014 108.311 77.4992 108.384 78.3486 108.488V108.951H74.9022Z" fill="white"/>
<path d="M59.6946 53.7233L59.3716 53.3686C55.2239 48.8821 49.3509 46.31 43.2724 46.31C37.194 46.31 31.3284 48.8821 27.1733 53.3686L26.8502 53.7233L26.5272 53.3686C22.563 49.0965 20.39 43.5235 20.39 37.6771C20.39 24.9716 30.653 14.6388 43.2724 14.6388C55.8919 14.6388 66.1549 24.9716 66.1549 37.6771C66.1549 43.5161 63.9745 49.0891 60.0177 53.3686L59.6946 53.7233ZM43.2724 45.4083C49.439 45.4083 55.3927 47.9508 59.6873 52.4003C63.2845 48.3352 65.2666 43.1244 65.2666 37.6697C65.2666 25.4668 55.4001 15.5331 43.2724 15.5331C31.1448 15.5331 21.2783 25.4668 21.2783 37.6771C21.2783 43.1318 23.2531 48.3426 26.8576 52.4077C31.1522 47.9582 37.1059 45.4156 43.2724 45.4156V45.4083Z" fill="white"/>
<path d="M43.2724 91.4923C30.653 91.4923 20.39 81.1594 20.39 68.454C20.39 55.7485 30.653 45.4156 43.2724 45.4156C55.8919 45.4156 66.1549 55.7485 66.1549 68.454C66.1549 81.1594 55.8919 91.4923 43.2724 91.4923ZM43.2724 46.31C31.1448 46.31 21.2783 56.2437 21.2783 68.454C21.2783 80.6642 31.1448 90.5979 43.2724 90.5979C55.4001 90.5979 65.2666 80.6642 65.2666 68.454C65.2666 56.2437 55.4001 46.31 43.2724 46.31Z" fill="white"/>
<path d="M47.4129 52.2303C47.4496 52.7551 47.6258 53.1025 47.9194 53.2577C48.2865 53.4498 49.3142 53.5829 49.6813 53.3759C51.4652 52.356 53.0068 50.6412 54.064 48.6456C53.9759 48.6012 53.8878 48.5495 53.807 48.5051C52.7793 50.4564 51.2743 52.1194 49.5345 53.1172C49.2775 53.2577 48.3746 53.1616 48.0589 52.999C47.8607 52.8881 47.7432 52.6294 47.7065 52.2081C47.567 50.3086 48.426 48.5347 49.5418 46.7608C49.4464 46.7313 49.3436 46.7017 49.2408 46.6721C48.1176 48.4682 47.2587 50.2716 47.4055 52.2229L47.4129 52.2303Z" fill="white"/>
<path d="M52.4636 84.1676L52.493 83.7537C52.7719 79.4742 55.2386 76.7469 55.9874 76.0151C56.4939 75.5199 57.0739 75.0691 57.808 74.4925C59.2689 73.3469 61.2657 71.78 64.349 68.6092C64.8041 68.1435 65.2446 67.7444 65.6851 67.3896C65.6777 67.2048 65.663 67.0201 65.6484 66.8353C65.1271 67.2418 64.5839 67.7222 64.0333 68.2913C60.972 71.4474 58.9899 72.9995 57.5364 74.1378C56.7949 74.7217 56.2076 75.1799 55.679 75.6899C54.9009 76.4512 52.3315 79.2746 52.0452 83.7167L52.0158 84.1306C51.9351 85.3724 51.8103 87.2645 51.891 89.3045C52.0378 89.2453 52.1847 89.1788 52.3241 89.1123C52.2507 87.1536 52.3755 85.3502 52.4563 84.1602L52.4636 84.1676Z" fill="white"/>
<path d="M22.0491 75.786C22.1005 75.9338 22.1446 76.0816 22.196 76.2221C22.6291 75.0321 23.2898 73.7165 24.2221 72.2382C27.8193 66.5544 27.5256 64.5145 26.564 57.7515L26.4171 56.7315C26.2556 55.5563 26.307 54.4551 26.5126 53.4203C26.3878 53.5607 26.263 53.7085 26.1382 53.8564C25.9987 54.7729 25.984 55.7485 26.1235 56.7685L26.2703 57.7885C27.2173 64.4701 27.5036 66.4879 23.9725 72.0756C23.1063 73.443 22.4896 74.6625 22.0491 75.786Z" fill="white"/>
<path d="M28.9058 58.5941L28.8103 57.5741C28.4359 53.6494 30.5135 50.6042 32.4883 48.6456C31.6147 49.1334 30.7704 49.673 29.9702 50.2643C28.6342 52.2155 27.6431 54.699 27.9221 57.6628L28.0175 58.6902C28.6709 65.4975 28.847 67.3231 25.1251 72.6521C23.9138 74.3891 23.1063 75.9117 22.6071 77.2864C22.7759 77.6929 22.9668 78.0847 23.1576 78.4838C23.5614 76.9686 24.4056 75.2391 25.8519 73.1695C29.7647 67.567 29.5445 65.3053 28.8984 58.6015L28.9058 58.5941Z" fill="white"/>
<path d="M34.3236 84.8032C34.1474 86.3332 33.9932 87.7228 33.9345 88.994C34.0299 89.0384 34.1254 89.0827 34.2281 89.1271C34.2795 87.8336 34.441 86.4145 34.6246 84.8402C34.7787 83.532 34.9476 82.0463 35.0724 80.4646C35.5716 74.086 33.5014 66.8131 32.5837 63.9823C32.547 63.8714 32.503 63.7384 32.4516 63.5832C31.7762 61.6097 29.7133 55.6155 32.5323 49.7247C32.826 49.1038 33.2004 48.5569 33.6262 48.0617C33.4133 48.1652 33.2004 48.276 32.9875 48.3869C32.7159 48.7638 32.4663 49.163 32.2607 49.599C29.3903 55.6007 31.4752 61.691 32.1653 63.6866C32.2167 63.8418 32.2607 63.9749 32.2974 64.0784C33.2077 66.8944 35.2632 74.123 34.7714 80.4498C34.6466 82.0242 34.4777 83.5098 34.3309 84.8106L34.3236 84.8032Z" fill="white"/>
<path d="M44.5939 84.7441C44.3957 83.5689 44.1901 82.3494 44.1828 81.1816C44.1681 78.7055 45.9594 76.8651 48.4333 74.3299C49.1528 73.5908 49.975 72.7556 50.8045 71.8317C54.1741 68.1213 56.3765 62.5927 57.1693 60.3902C57.1987 60.3089 57.2354 60.198 57.2794 60.0797C57.6465 59.0006 58.5421 56.3694 60.5976 54.1077C60.5316 54.0338 60.4655 53.9525 60.3994 53.8785C58.2778 56.192 57.3675 58.875 56.9931 59.9837C56.9491 60.1019 56.9197 60.2054 56.8904 60.2941C56.1048 62.4819 53.9172 67.9661 50.5843 71.6396C49.7547 72.5561 48.9399 73.3913 48.2204 74.1304C45.6951 76.7247 43.8671 78.5947 43.8818 81.1964C43.8891 82.3863 44.0947 83.6133 44.3002 84.8032C44.6526 86.8949 45.0197 89.0532 44.2782 91.0192H44.3076C44.403 91.0192 44.4985 91.0192 44.5939 91.0192C45.3133 89.0088 44.9536 86.8506 44.5939 84.7589V84.7441Z" fill="white"/>
<path d="M43.9699 59.0302C44.2782 59.8432 45.1738 60.2276 45.9667 60.2276C46.0694 60.2276 46.1722 60.2276 46.2677 60.2054C47.1633 60.0871 47.9194 59.5771 48.6021 59.0376C51.7662 56.5615 54.064 53.2725 55.9286 49.7986C55.8479 49.7395 55.7671 49.6877 55.679 49.6286C53.8217 53.0803 51.546 56.3472 48.4113 58.8011C47.7579 59.3111 47.0458 59.7989 46.2236 59.9097C45.4895 60.0058 44.5425 59.6954 44.2488 58.9193C44.058 58.4167 44.1754 57.8624 44.3296 57.2341C45.2619 53.5607 46.2309 49.806 47.7726 46.3174C47.6698 46.2952 47.5744 46.2804 47.4716 46.2656C45.9373 49.7617 44.9756 53.5016 44.0433 57.1676C43.8744 57.8476 43.7496 58.4537 43.9699 59.0376V59.0302Z" fill="white"/>
<path d="M50.6063 80.6198L50.621 80.1985C50.7531 75.919 53.1243 73.1178 53.8438 72.3639C54.3356 71.8539 54.9009 71.3735 55.6277 70.7674C57.0739 69.5478 59.0633 67.8848 62.0879 64.5366C63.0496 63.4723 63.9672 62.7184 64.8188 62.1641C64.7307 61.8684 64.6426 61.5728 64.5472 61.2771C63.5708 61.8758 62.521 62.7184 61.4272 63.9306C58.4393 67.2344 56.4792 68.8753 55.055 70.08C54.3136 70.7009 53.7263 71.1961 53.2051 71.743C52.4269 72.5561 49.8722 75.5717 49.7327 80.1764L49.718 80.5977C49.6519 82.6672 49.5271 86.4958 50.4154 89.881C50.7017 89.7849 50.988 89.6814 51.2743 89.5706C50.4301 86.2741 50.5476 82.4676 50.6136 80.6272L50.6063 80.6198Z" fill="white"/>
<path d="M35.1311 59.4811C36.0047 63.864 37.0545 69.7548 37.1279 71.9278C37.1573 72.7039 37.238 73.7904 37.3335 75.0469C37.5317 77.6855 37.7739 80.9672 37.6565 83.1846C37.6198 83.8867 37.5243 84.7515 37.4216 85.6606C37.2601 87.0871 37.0912 88.654 37.0692 90.1545C37.3628 90.2432 37.6638 90.3171 37.9648 90.391C37.9648 88.8314 38.1557 87.1758 38.3098 85.7567C38.4126 84.8328 38.508 83.9533 38.5448 83.2289C38.6622 80.9524 38.42 77.6338 38.2217 74.973C38.1263 73.7239 38.0456 72.6448 38.0235 71.8909C37.9208 68.9566 36.2029 60.2793 36.0047 59.2963C35.6083 57.3228 35.2339 52.2894 40.2259 48.1134C41.4152 47.1156 43.2431 46.4208 45.2179 45.9404C44.5792 45.8813 43.9258 45.8517 43.2725 45.8517C42.9862 45.8517 42.7072 45.8665 42.4209 45.8739C41.3564 46.2952 40.4021 46.8052 39.6533 47.426C35.9386 50.5377 34.2428 55.039 35.1238 59.4737L35.1311 59.4811Z" fill="white"/>
<path d="M24.8387 50.013C24.8167 49.9686 22.3648 45.8295 23.7376 41.5648C24.6552 38.7118 27.0337 36.4501 30.8071 34.8463L30.8879 35.031C27.1732 36.6127 24.8314 38.8301 23.9358 41.6314C22.5923 45.8148 24.9929 49.8799 25.0149 49.9169L24.8461 50.0203L24.8387 50.013Z" fill="white"/>
<path d="M25.9326 38.0984C25.9179 38.0392 25.6536 36.6645 26.6153 34.7354L26.7915 34.8241C25.8592 36.6793 26.1234 38.0392 26.1234 38.054L25.9252 38.091L25.9326 38.0984Z" fill="white"/>
<path d="M23.6054 27.4033L23.4293 27.3073C23.4513 27.2629 25.727 23.0278 30.0657 22.0152C32.9654 21.3426 36.1148 22.2369 39.4257 24.6686L39.3082 24.8312C36.0487 22.4365 32.9581 21.5495 30.1171 22.2073C25.8665 23.1904 23.6348 27.3516 23.6128 27.3959L23.6054 27.4033Z" fill="white"/>
<path d="M34.2795 22.2813L34.1473 22.1334C34.1914 22.0965 35.2265 21.1578 37.3628 20.9952L37.3775 21.1947C35.3146 21.3426 34.2942 22.2665 34.2795 22.2739V22.2813Z" fill="white"/>
<path d="M52.603 27.7655L52.4048 27.7359C52.9921 23.7151 52.3241 20.5517 50.4154 18.327C47.5743 14.9935 42.876 14.9492 42.8246 14.9492V14.7496C42.876 14.7496 47.6551 14.794 50.5695 18.1939C52.5149 20.463 53.1977 23.6856 52.603 27.7655Z" fill="white"/>
<path d="M54.7026 24.3212C53.6088 22.5547 52.3167 22.0743 52.3094 22.0669L52.3755 21.8747C52.4342 21.8969 53.7409 22.3847 54.8715 24.2103L54.7026 24.3138V24.3212Z" fill="white"/>
<path d="M56.1929 39.7318L56.1121 39.547C59.8268 37.9653 62.1686 35.748 63.0642 32.9541C64.4076 28.7707 62.0071 24.7056 61.9851 24.6686L62.1539 24.5651C62.1759 24.6095 64.6279 28.7485 63.2551 33.0132C62.3374 35.8662 59.9589 38.1279 56.1855 39.7318H56.1929Z" fill="white"/>
<path d="M60.3847 39.8427L60.2085 39.754C61.1408 37.8988 60.8765 36.5388 60.8765 36.524L61.0748 36.4871C61.0894 36.5462 61.3537 37.9284 60.392 39.8501L60.3847 39.8427Z" fill="white"/>
<path d="M37.0398 43.5235C36.9884 45.7482 34.4924 47.3669 34.4924 47.3669C31.1008 42.267 36.1221 38.8597 36.1221 38.8597C36.2396 41.5722 37.0838 41.7496 37.0398 43.5235ZM23.4219 30.8846C23.4219 30.8846 18.1876 33.9519 21.2342 39.2662C21.2342 39.2662 23.833 37.8175 24.0312 35.6075C24.1927 33.8411 23.3558 33.6045 23.4219 30.892V30.8846ZM38.5961 31.912C38.5961 31.912 33.0976 29.362 30.5282 34.9276C30.5282 34.9276 33.2003 36.2358 35.109 35.1271C36.636 34.2402 36.3497 33.4198 38.5888 31.912H38.5961ZM25.9619 30.6702C24.9709 32.6511 26.4098 35.2676 26.4098 35.2676C31.7908 32.385 28.9645 26.9968 28.9645 26.9968C27.5917 29.3324 26.7621 29.0885 25.9693 30.6702H25.9619ZM39.0072 16.2574C39.0072 16.2574 33.7069 13.3084 30.741 18.667C30.741 18.667 33.3105 20.1674 35.2999 19.2065C36.8929 18.4378 36.658 17.5952 39.0072 16.2574ZM45.9226 29.8942C45.9226 29.8942 45.2692 23.8334 39.2128 24.469C39.2128 24.469 39.4697 27.4477 41.3931 28.5342C42.9347 29.399 43.4853 28.7337 45.9226 29.8942ZM40.4975 18.3417C38.2951 18.5044 36.8122 21.0913 36.8122 21.0913C42.0318 24.2547 45.1738 19.0439 45.1738 19.0439C42.4796 19.0587 42.2593 18.2161 40.4975 18.3417ZM59.8047 23.4638C59.8047 23.4638 59.9222 17.3661 53.829 17.2331C53.829 17.2331 53.7116 20.2191 55.4808 21.5421C56.8976 22.5991 57.529 22.0004 59.8047 23.4638ZM51.0541 35.9845C51.0541 35.9845 56.0754 32.5772 52.6838 27.4772C52.6838 27.4772 50.1878 29.0959 50.1364 31.3207C50.0924 33.0945 50.9366 33.2719 51.0541 35.9845ZM58.6669 25.7625C57.4996 23.8777 54.5338 23.7595 54.5338 23.7595C54.1887 29.8868 60.2305 30.2489 60.2305 30.2489C58.9605 27.8542 59.5992 27.2703 58.6669 25.7625ZM63.5781 43.6935C63.5781 43.6935 68.8124 40.6262 65.7658 35.3119C65.7658 35.3119 63.167 36.7606 62.9688 38.9705C62.8073 40.737 63.6442 40.9735 63.5781 43.6861V43.6935ZM48.4039 42.6661C48.4039 42.6661 53.9024 45.2161 56.4719 39.6505C56.4719 39.6505 53.7997 38.3423 51.891 39.451C50.364 40.3379 50.6503 41.1583 48.4112 42.6661H48.4039ZM61.0381 43.9078C62.0291 41.927 60.5902 39.3105 60.5902 39.3105C55.2092 42.1931 58.0355 47.5813 58.0355 47.5813C59.4083 45.2456 60.2379 45.4896 61.0307 43.9078H61.0381ZM48.0662 37.1597C48.0662 38.4162 47.0605 39.4288 45.8125 39.4288C45.8051 39.4288 45.7978 39.4288 45.7904 39.4288C45.7831 40.6779 44.7774 41.6831 43.5367 41.6831C42.2961 41.6831 41.2903 40.6779 41.283 39.4288C40.0423 39.4288 39.0439 38.4088 39.0439 37.1597C39.0439 35.9106 40.0423 34.898 41.283 34.8906C41.283 33.6341 42.2887 32.6215 43.5367 32.6215C44.7847 32.6215 45.7904 33.6341 45.7904 34.8906C45.7978 34.8906 45.8051 34.8906 45.8125 34.8906C47.0605 34.8906 48.0662 35.9032 48.0662 37.1597ZM44.8728 37.1597C44.146 37.1597 43.5587 36.5758 43.5294 35.8515C43.5073 36.5684 42.92 37.1449 42.208 37.1597C42.9347 37.1597 43.522 37.7436 43.5514 38.4679C43.5734 37.751 44.1607 37.1745 44.8728 37.1597ZM26.9457 44.5878C28.2157 46.9826 27.577 47.5665 28.5093 49.0743C28.8544 49.6286 29.3609 50.0351 29.8968 50.3234C30.6897 49.7247 31.5266 49.1851 32.3928 48.6973C31.2916 44.8687 26.9457 44.5878 26.9457 44.5878Z" fill="white"/>
</svg>
