<svg width="172" height="373" viewBox="0 0 172 373" fill="none" xmlns="http://www.w3.org/2000/svg">
<path d="M138.925 31.4803H164.283V36.5646H138.925V63.2249C135.49 62.3957 131.19 61.9675 126.014 61.9219V36.5646H101.76V31.4803H126.014V7.56257H104.958V1.82231H159.454V7.56257H127.053C130.57 8.25505 134.525 8.71063 138.916 8.9293V31.4894L138.925 31.4803ZM105.741 16.5556L114.734 8.40995L122.752 17.731L113.759 25.813L105.741 16.5556ZM160.374 14.2049C158.16 17.6855 155.308 20.6194 151.836 23.0066C147.663 25.9587 143.472 27.4804 139.253 27.5715L146.616 9.84045L160.374 14.2049Z" fill="white"/>
<path d="M143.226 117.93L145.896 120.208C150.497 119.944 153.978 120.299 156.328 121.247C159.672 122.723 162.652 125.876 165.258 130.696L134.944 125.548L138.789 117.921H126.333L131.545 125.611L101.04 129.584C103.254 126.24 105.577 123.871 108.019 122.477C111.317 120.564 115.381 119.953 120.21 120.655L121.969 117.912H109.194V96.0719H157.568V117.912H143.226V117.93ZM154.306 88.1358L153.978 93.8032H112.976L113.559 88.1358H102.215V84.0265H114.014L114.279 81.0288H103.983V71.5073H127.645V66.6873C130.342 67.1702 134.233 67.4071 139.317 67.4071V71.5164H162.333V81.0379H154.707L154.579 84.0356H163.9V88.1449H154.315L154.306 88.1358ZM151.7 76.0083H114.543V78.2862H151.7V76.0083ZM145.896 101.758V99.7348H120.666V101.758H145.896ZM120.666 107.498H145.896V105.147H120.666V107.498ZM145.896 110.887H120.666V113.885H145.896V110.887ZM128.948 88.1358H123.536L123.345 90.1585H128.757L128.948 88.1358ZM129.531 81.7486H124.055L123.864 84.0265H129.34L129.531 81.7486ZM138.397 90.1585H144.529L144.72 88.1358H138.588L138.397 90.1585ZM139.181 81.7486L138.989 84.0265H145.185L145.449 81.7486H139.19H139.181Z" fill="white"/>
<path d="M138.989 279.122V304.744C135.427 302.749 131.235 301.792 126.406 301.874C122.406 301.874 118.516 302.548 114.734 303.897C117.34 298.813 121.34 295.833 126.725 294.967V279.122H101.769V273.838H126.734V265.756C129.039 266.275 131.472 266.631 134.033 266.804L135.008 263.414H117.996V258.13H148.119C146.16 265.173 143.208 270.412 139.254 273.838H164.675V279.122H138.989ZM115.518 264.581H103.391V248.417H126.206V240.727C128.73 241.465 132.766 241.838 138.333 241.838V248.426H162.588V264.198H150.524V253.701H115.518V264.59V264.581Z" fill="white"/>
<path d="M118.716 342.165L128.238 345.163C125.413 348.99 122.607 352.142 119.828 354.611C123.172 354.912 125.778 355.477 127.654 356.306C119.354 357.737 111.7 362.438 104.703 370.384L101.049 356.889C105.049 355.286 109.933 354.475 115.718 354.475L118.716 342.156V342.165ZM126.151 315.696H102.288V310.876H126.151V315.696ZM115.399 347.514L109.012 353.445L103.345 347.313L109.732 341.318L115.399 347.514ZM104.119 320.525H126.479V340.079H104.11V320.525H104.119ZM113.641 335.259H116.639V325.026H113.641V335.259ZM152.429 353.582L153.604 356.124C156.775 356.297 159.426 357.555 161.558 359.905C164.037 362.73 165.276 366.639 165.276 371.641L144.547 359.778L148.137 353.582H139.991L143.9 360.033L124.411 372.488C124.629 362.885 128.493 357.518 136.019 356.388L137.058 353.582H130.342V319.942H137.185L138.033 315.377H129.431V310.621H162.871V315.377H149.112C148.848 316.771 148.456 318.293 147.937 319.942H160.775V353.582H152.429ZM141.677 328.616H149.431V324.707H141.677V328.616ZM149.431 333.117H141.677V336.443H149.431V333.117ZM149.431 340.944H141.677V349.09H149.431V340.944Z" fill="white"/>
<path d="M159.928 372.479C166.535 372.479 171.891 367.123 171.891 360.516C171.891 353.909 166.535 348.552 159.928 348.552C153.32 348.552 147.964 353.909 147.964 360.516C147.964 367.123 153.32 372.479 159.928 372.479Z" fill="white"/>
<path d="M157.285 365.955C158.205 366.265 159.363 366.338 160.738 366.338C162.051 366.356 166.634 366.356 168.183 366.265C167.873 366.748 167.527 367.687 167.408 368.306H160.738C157.54 368.306 155.481 367.878 154.124 365.937C153.95 367.113 153.695 368.133 153.331 368.98C152.948 368.734 152.037 368.288 151.6 368.097C152.447 366.347 152.62 363.468 152.657 360.507L154.543 360.643C154.524 361.4 154.488 362.165 154.461 362.876C154.707 363.632 155.035 364.242 155.408 364.707V359.504H152.055V357.709H154.971V356.106H152.538V354.329H154.971V352.653H156.903V354.329H159.199V356.106H156.903V357.709H159.618V359.504H157.285V361.372H159.481V363.149H157.285V365.946V365.955ZM162.907 365.536C160.975 365.536 160.347 364.953 160.347 362.757V353.272H167.016V359.842H162.333V362.766C162.333 363.559 162.433 363.696 163.162 363.696H165.394C166.05 363.696 166.169 363.295 166.278 361.463C166.707 361.791 167.527 362.119 168.073 362.256C167.845 364.707 167.299 365.536 165.568 365.536H162.907ZM162.333 355.067V358.056H165.048V355.067H162.333Z" fill="#036EB7"/>
<path d="M164.811 225.109H103.691C107.636 221.428 111.928 217.073 116.566 212.043C121.204 207.014 125.058 202.522 128.146 198.577C131.226 194.75 133.923 190.44 136.228 185.647C138.534 180.864 139.691 175.934 139.691 170.859C139.691 168.08 139.108 165.493 137.941 163.087C136.775 160.682 135.08 158.732 132.848 157.228C130.616 155.725 128.01 154.978 125.049 154.978C121.258 154.978 117.723 156.153 114.461 158.495C111.19 160.846 108.794 163.935 107.254 167.761H105.167C106.106 161.903 107.791 157.174 110.233 153.566C112.675 149.957 115.381 147.279 118.342 145.511C121.313 143.743 124.028 142.614 126.506 142.103C128.985 141.593 131.181 141.347 133.094 141.347C137.376 141.347 141.349 142.249 145.012 144.053C148.675 145.857 151.581 148.418 153.741 151.743C155.9 155.069 156.984 158.905 156.984 163.26C156.984 167.315 156.31 171.242 154.953 175.032C153.604 178.823 151.627 182.586 149.039 186.331C146.452 190.066 143.199 193.966 139.29 198.021C135.381 202.075 130.78 206.449 125.486 211.141C124.693 211.934 124.229 212.289 124.074 212.217V212.444H151.281C155.299 212.444 158.233 211.633 160.064 210.021C162.953 207.579 165.112 204.107 166.542 199.597H168.173L164.793 225.118L164.811 225.109Z" fill="url(#paint0_linear_4_133)" stroke="url(#paint1_linear_4_133)" stroke-width="0.79" stroke-miterlimit="10"/>
<path d="M18.626 35.8356L11.0178 79.981C4.25707 70.2499 0.904031 59.3525 0.967812 47.2888C0.913143 36.273 3.79239 24.9656 9.62376 13.3757L6.12494 0H83.2267V22.0317H43.7191C47.9742 23.1979 53.3044 24.0453 59.7189 24.5647V28.9382H85.6777V35.8447H59.7189V44.0633H80.4385V83.4889C78.8623 82.9058 76.3019 82.4411 72.7484 82.0857C68.958 81.6757 65.7234 81.5573 63.0446 81.7395V75.0972H21.9425V44.0633H42.3979V35.8447H18.6168L18.626 35.8356ZM19.8469 28.9291H42.3979V22.0226H20.9858L19.8469 28.9291ZM66.7895 15.116V6.46918H23.692L22.2068 15.1251H66.7895V15.116ZM38.9082 68.1724H63.0355V50.6054H38.9082V68.1724Z" fill="white"/>
<path d="M9.44153 177.802V140.217L3.23658 152.017C1.02247 147.233 -0.0526853 142.021 0.00198383 136.363C-0.0526853 119.115 5.06799 108.008 15.3914 103.06L14.4255 92.6551L31.6463 97.9034L19.5827 120.892C22.4346 121.42 24.5029 121.712 25.7876 121.766V179.989C21.8241 178.531 16.3754 177.802 9.44153 177.802ZM80.5114 143.707H64.7758V168.272H86.4521V175.351H28.0655V168.272H47.473V143.707H32.9584V136.718H47.473V119.935H30.1611V112.855H52.7122L45.7236 106.213L56.0379 95.4615L66.8806 105.694L60.0652 112.864H84.7118V119.944H50.9719C54.5891 121.284 59.1905 122.04 64.7849 122.213V136.728H80.5205V143.716L80.5114 143.707Z" fill="white"/>
<path d="M54.6348 264.161H85.2313V271.241H1.14099V264.161H10.9359V210.485C17.2319 212.116 22.79 212.936 27.6282 212.936V264.161H37.8513V201.31H5.15917V194.23H82.7803V201.31H40.7306C46.4982 202.886 51.1359 203.67 54.6257 203.67V220.8H80.3293V227.879H54.6257V264.152L54.6348 264.161Z" fill="white"/>
<path d="M75.4455 323.778L82.5251 331.031L76.9307 336.452H85.6686V342.83H81.122L85.4044 349.819L76.0559 353.928L85.4044 371.933C76.4295 370.885 69.0856 366.775 63.3727 359.605L39.0723 370.447C41.1132 359.021 47.2909 351.887 57.6051 349.035C56.7851 346.994 56.2657 344.926 56.0288 342.83H34.7898V345.363C40.6759 345.363 45.1952 345.892 48.3387 346.94C43.382 348.106 38.8718 349.327 34.7898 350.612V370.456C25.6419 366.903 16.749 366.11 8.12951 368.097C10.1067 363.787 14.0976 360.607 20.1021 358.566V355.769C13.9244 358.329 9.17734 360.807 5.85163 363.195L0.348267 350.083C5.35961 348.507 11.9472 347.258 20.1021 346.32V342.821H1.23208V336.443H20.1112V333.209L6.99968 334.694C11.1363 330.147 16.5577 326.275 23.2546 323.067H1.48721V316.425H35.0541V311.441H13.3777V305.938H35.0541V301.564H6.73545V295.797H24.9221L21.4232 292.216L28.5029 285.309L35.3183 292.298L31.9106 295.797H49.2225L54.4707 285.045L67.4091 288.799C65.9513 291.541 63.6825 293.865 60.5937 295.797H81.0491V301.564H50.981V305.938H74.9352V311.441H50.981V316.425H85.4226V323.067H60.0743L67.0629 336.443H73.7052L68.2838 330.849L75.4546 323.769L75.4455 323.778ZM43.4549 330.685L34.7989 331.65V336.461H55.3454L46.6075 327.195L56.047 323.086H39.8741L43.4549 330.694V330.685ZM72.384 346.858C72.6118 346.858 72.9945 346.803 73.5229 346.684C73.9876 346.684 74.3703 346.657 74.6619 346.593L76.9307 342.839H70.2883L72.384 346.858Z" fill="white"/>
<defs>
<linearGradient id="paint0_linear_4_133" x1="102.507" y1="223.925" x2="164.547" y2="161.875" gradientUnits="userSpaceOnUse">
<stop stop-color="#A58855"/>
<stop offset="0.16" stop-color="#8B6A3B"/>
<stop offset="0.37" stop-color="#D8BF7F"/>
<stop offset="0.6" stop-color="#C5AA6D"/>
<stop offset="0.71" stop-color="#9C7C45"/>
<stop offset="0.94" stop-color="#C2A66B"/>
<stop offset="1" stop-color="#DBC9A6"/>
</linearGradient>
<linearGradient id="paint1_linear_4_133" x1="102.78" y1="183.224" x2="168.602" y2="183.224" gradientUnits="userSpaceOnUse">
<stop stop-color="#FBF9D7"/>
<stop offset="0.16" stop-color="#8B6A3B"/>
<stop offset="0.37" stop-color="#D8BF7F"/>
<stop offset="0.53" stop-color="#69461F"/>
<stop offset="0.72" stop-color="#C5AA6D"/>
<stop offset="0.84" stop-color="#816032"/>
<stop offset="0.86" stop-color="#836334"/>
<stop offset="0.88" stop-color="#8D6C3C"/>
<stop offset="0.89" stop-color="#9C7D4A"/>
<stop offset="0.9" stop-color="#B2945D"/>
<stop offset="0.91" stop-color="#C2A66B"/>
<stop offset="1" stop-color="white"/>
</linearGradient>
</defs>
</svg>
