<?xml version="1.0" encoding="utf-8"?>
<!-- Generator: Adobe Illustrator 27.1.1, SVG Export Plug-In . SVG Version: 6.00 Build 0)  -->
<svg version="1.1" id="圖層_1" xmlns="http://www.w3.org/2000/svg" xmlns:xlink="http://www.w3.org/1999/xlink" x="0px" y="0px"
	 viewBox="0 0 87 116" style="enable-background:new 0 0 87 116;" xml:space="preserve">
<style type="text/css">
	.st0{fill:#FFFFFF;}
	.st1{clip-path:url(#SVGID_00000170984563203785917330000006535605515108072325_);}
	.st2{fill:none;}
	.st3{opacity:0.7;clip-path:url(#SVGID_00000081633133643180165370000004104232915139122609_);}
</style>
<g>
	<g>
		<path class="st0" d="M13.7,103.2c-0.1-0.4-0.3-0.8-0.4-0.9c-0.1-0.2-0.2-0.3-0.7-0.3h-0.5v4.3c0,0.8,0.1,0.8,0.8,0.9v0.3h-2.7
			v-0.3c0.7-0.1,0.8-0.1,0.8-0.9V102h-0.5c-0.5,0-0.6,0.1-0.7,0.3c-0.1,0.2-0.2,0.5-0.3,0.9H9.1c0.1-0.7,0.1-1.4,0.1-1.8h0.2
			c0.1,0.2,0.2,0.2,0.5,0.2h3.3c0.2,0,0.3-0.1,0.5-0.2H14c0,0.4,0,1.2,0.1,1.8L13.7,103.2L13.7,103.2z"/>
		<path class="st0" d="M19.5,106c0,0.2-0.3,1.3-0.3,1.6h-4.2v-0.3c0.7-0.1,0.8-0.1,0.8-0.9v-3.5c0-0.8-0.1-0.8-0.7-0.9v-0.3h2.7
			c0.9,0,1.1,0,1.3,0c0,0.2,0,0.9,0.1,1.5l-0.3,0c-0.1-0.3-0.2-0.7-0.4-0.9c-0.1-0.2-0.3-0.2-0.7-0.2h-0.5c-0.3,0-0.3,0-0.3,0.3v1.9
			h0.8c0.5,0,0.5-0.1,0.7-0.8h0.3v2h-0.3c-0.1-0.7-0.2-0.8-0.7-0.8h-0.8v1.6c0,0.6,0,0.8,0.5,0.8H18c0.5,0,0.6-0.1,0.8-0.3
			c0.2-0.3,0.4-0.6,0.5-0.9L19.5,106L19.5,106z"/>
		<path class="st0" d="M24.8,106c-0.1,0.4-0.3,1.4-0.4,1.6h-4.1v-0.3c0.7-0.1,0.8-0.1,0.8-0.9v-3.5c0-0.8-0.1-0.8-0.7-0.9v-0.3H23
			v0.3c-0.6,0.1-0.7,0.1-0.7,0.9v3.6c0,0.5,0,0.7,0.5,0.7c0,0,0.4,0,0.4,0c0.5,0,0.6-0.1,0.8-0.4c0.2-0.2,0.4-0.6,0.5-1L24.8,106
			L24.8,106z"/>
		<path class="st0" d="M25.6,107.6v-0.3c0.6-0.1,0.7-0.1,0.7-0.9v-3.5c0-0.8-0.1-0.8-0.7-0.9v-0.3h2.5v0.3c-0.6,0.1-0.7,0.1-0.7,0.9
			v3.5c0,0.8,0.1,0.8,0.7,0.9v0.3H25.6z"/>
		<path class="st0" d="M34.9,102c-0.5,0.1-0.7,0.2-0.7,0.6c0,0.4,0,0.7,0,1.5v3.6h-0.5l-3.4-4.6v2.1c0,0.8,0,1.2,0,1.4
			c0,0.4,0.2,0.6,0.8,0.6v0.3h-2v-0.3c0.5,0,0.7-0.2,0.7-0.6c0-0.3,0-0.7,0-1.5V103c0-0.3,0-0.5-0.2-0.7c-0.1-0.2-0.3-0.3-0.7-0.3
			v-0.3h1.6l3.1,4.1V104c0-0.8,0-1.1,0-1.4c0-0.4-0.2-0.6-0.8-0.6v-0.3h2L34.9,102L34.9,102z"/>
		<path class="st0" d="M42.7,105.9c-0.1,0.3-0.3,1.4-0.4,1.7h-4.4l-0.1-0.2c1-1.7,2.1-3.6,3.1-5.3h-1.3c-0.6,0-0.7,0.1-0.9,0.4
			c-0.1,0.2-0.2,0.4-0.3,0.8l-0.3,0c0-0.6,0.1-1.4,0.2-1.8h0.3c0.1,0.2,0.2,0.2,0.5,0.2h3.3l0.1,0.2c-1,1.7-2.1,3.5-3.1,5.3
			c0.3,0,0.5,0,1,0c1,0,1.1,0,1.4-0.3c0.2-0.2,0.4-0.6,0.6-1.1L42.7,105.9z"/>
		<path class="st0" d="M49.5,102c-0.6,0.1-0.7,0.1-0.7,0.9v3.5c0,0.8,0.1,0.8,0.7,0.9v0.3h-2.5v-0.3c0.6-0.1,0.7-0.1,0.7-0.9v-1.7
			h-2.2v1.7c0,0.8,0.1,0.8,0.7,0.9v0.3h-2.5v-0.3c0.6-0.1,0.7-0.1,0.7-0.9v-3.5c0-0.8-0.1-0.8-0.7-0.9v-0.3h2.5v0.3
			c-0.6,0.1-0.7,0.1-0.7,0.9v1.3h2.2v-1.3c0-0.8-0.1-0.8-0.7-0.9v-0.3h2.5V102z"/>
		<path class="st0" d="M55.1,106c0,0.2-0.3,1.3-0.3,1.6h-4.3v-0.3c0.7-0.1,0.8-0.1,0.8-0.9v-3.5c0-0.8-0.1-0.8-0.7-0.9v-0.3h2.7
			c0.9,0,1.1,0,1.3,0c0,0.2,0,0.9,0.1,1.5l-0.3,0c-0.1-0.3-0.2-0.7-0.4-0.9c-0.1-0.2-0.3-0.2-0.7-0.2h-0.5c-0.3,0-0.3,0-0.3,0.3v1.9
			h0.8c0.5,0,0.5-0.1,0.7-0.8h0.3v2h-0.3c-0.1-0.7-0.2-0.8-0.7-0.8h-0.8v1.6c0,0.6,0,0.8,0.5,0.8h0.6c0.5,0,0.6-0.1,0.8-0.3
			c0.2-0.3,0.4-0.6,0.5-0.9L55.1,106L55.1,106z"/>
		<path class="st0" d="M62.5,106c-0.1,0.4-0.3,1.4-0.4,1.6h-4.1v-0.3c0.7-0.1,0.8-0.1,0.8-0.9v-3.5c0-0.8-0.1-0.8-0.7-0.9v-0.3h2.6
			v0.3c-0.6,0.1-0.7,0.1-0.7,0.9v3.6c0,0.5,0,0.7,0.5,0.7c0,0,0.4,0,0.4,0c0.5,0,0.6-0.1,0.8-0.4c0.2-0.2,0.4-0.6,0.5-1L62.5,106
			L62.5,106z"/>
		<path class="st0" d="M63.3,107.6v-0.3c0.6-0.1,0.7-0.1,0.7-0.9v-3.5c0-0.8-0.1-0.8-0.7-0.9v-0.3h2.5v0.3c-0.6,0.1-0.7,0.1-0.7,0.9
			v3.5c0,0.8,0.1,0.8,0.7,0.9v0.3H63.3z"/>
	</g>
	<g>
		<g>
			<path class="st0" d="M37.5,58.9c-7.3,0-14.5-2.8-20.1-8.3c-11.1-11.1-11.1-29,0-40.1s29-11.1,40.1,0c11.1,11.1,11.1,29,0,40.1
				l0,0C52,56.1,44.8,58.9,37.5,58.9z M37.5,2.8c-7.1,0-14.2,2.7-19.6,8.1C7,21.8,7,39.4,17.9,50.2C28.7,61,46.3,61,57.1,50.2
				c10.8-10.8,10.8-28.4,0-39.3C51.7,5.5,44.6,2.8,37.5,2.8z"/>
		</g>
		<g>
			<defs>
				
					<ellipse id="SVGID_1_" transform="matrix(0.4697 -0.8828 0.8828 0.4697 -7.1079 49.3243)" cx="37.5" cy="30.6" rx="28.1" ry="28.1"/>
			</defs>
			<clipPath id="SVGID_00000044157391140786776580000017013086997503019169_">
				<use xlink:href="#SVGID_1_"  style="overflow:visible;"/>
			</clipPath>
			<g style="clip-path:url(#SVGID_00000044157391140786776580000017013086997503019169_);">
				<g>
					<path class="st0" d="M31.5,98.3L31.1,98c1.1-1.3,1.4-3.2,1-5.8c-0.1-0.5-0.2-1-0.3-1.5c-0.3-1.6-0.6-3.2-0.4-4.8
						c0.4-3,2.7-5.4,4.8-7.6c0.2-0.2,0.5-0.5,0.7-0.7c7.1-7.5,11.9-17.3,13.6-27.6c0.5-3.4,0.7-7,0.9-10.4c0.2-3.7,0.4-7.4,1.1-11.1
						c0.8-4.9,3.4-13.8,10.7-18.2l0.2,0.4c-7.2,4.2-9.6,13-10.5,17.9c-0.6,3.6-0.8,7.4-1,11c-0.2,3.4-0.4,7-0.9,10.4
						c-1.6,10.3-6.5,20.2-13.7,27.8c-0.2,0.2-0.5,0.5-0.7,0.7c-2.1,2.2-4.3,4.4-4.7,7.3c-0.2,1.5,0.1,3.1,0.4,4.7
						c0.1,0.5,0.2,1,0.3,1.5C33,94.8,32.6,96.9,31.5,98.3z"/>
				</g>
				<g>
					<path class="st0" d="M9.3,23.7l-0.2-0.1c2-4.8,6-8.2,9-10.2c5.4-3.6,10.9-7.8,12-15c0.4-2.5,0-5-0.4-7.4c0-0.3-0.1-0.6-0.1-0.8
						c-0.5-2.9-0.5-5.5-0.1-8.3c0.8-6,3.2-10.9,7.1-14.3l0.1,0.2c-3.8,3.4-6.3,8.2-7.1,14.2c-0.4,2.8-0.3,5.4,0.1,8.3
						c0,0.3,0.1,0.6,0.1,0.8c0.4,2.4,0.8,5,0.4,7.5C29.2,5.9,23.7,10,18.2,13.7C15.3,15.6,11.3,19,9.3,23.7z"/>
				</g>
				<g>
					<path class="st0" d="M32,61.4L31.7,61c3.8-3,6.1-7.5,7.4-10.8c1.3-3.4,2.2-6.9,3-10.2c0.2-0.8,0.4-1.6,0.6-2.4
						c1.3-5.4,3.2-11.6,6.6-17.1c3.7-5.8,8.8-9.8,13.5-10.6l0.1,0.5c-4.5,0.7-9.5,4.7-13.1,10.3c-3.4,5.4-5.3,11.6-6.6,16.9
						c-0.2,0.8-0.4,1.6-0.6,2.4c-0.8,3.4-1.7,6.9-3,10.3C38.3,53.7,35.9,58.3,32,61.4z"/>
				</g>
				<g>
					<path class="st0" d="M44.9,61.9l-0.1-0.1c2.3-2.2,4.4-5.2,6.3-8.1c1-1.5,1.9-3,2.8-4.5c1.4-2.5,2.9-5,4.8-7.3
						c4.9-6,12.3-9.5,19.6-9.2l0,0.2c-7.3-0.3-14.6,3.1-19.5,9.1c-1.8,2.2-3.3,4.8-4.8,7.3c-0.9,1.5-1.8,3.1-2.8,4.5
						C49.3,56.7,47.2,59.7,44.9,61.9z"/>
				</g>
				<g>
					<path class="st0" d="M7.9,36.7l-0.3-0.3c2.2-2,4.5-4.1,7.1-5.6c1.7-0.9,3.6-1.6,5.3-2.3c0.6-0.2,1.3-0.5,1.9-0.7
						c3.7-1.4,6.4-3,8.5-4.9c2.7-2.5,4.5-5.7,6.3-8.8c0.7-1.2,1.4-2.4,2.1-3.6c2.4-3.8,6.4-8.4,11.8-9l0,0.5
						c-5.2,0.5-9.1,5.1-11.4,8.8c-0.7,1.2-1.4,2.4-2.1,3.6c-1.8,3.2-3.7,6.4-6.4,8.9c-2.1,2-4.9,3.6-8.6,5c-0.6,0.3-1.3,0.5-1.9,0.7
						c-1.8,0.7-3.6,1.3-5.3,2.3C12.3,32.6,10.1,34.7,7.9,36.7z"/>
				</g>
				<g>
					<path class="st0" d="M8.6,37.8l-0.2,0c3.3-11.2,10.9-17.1,11-17.2c3.3-2.6,5.5-5,7-7.6c1.9-3.3,2.8-7.2,3.7-10.9
						c0.3-1.4,0.7-2.9,1-4.3c1.2-4.5,3.8-10.4,9-12.6l0.1,0.1c-5.1,2.2-7.7,8-8.9,12.5c-0.4,1.4-0.7,2.9-1,4.3
						c-0.8,3.7-1.7,7.6-3.7,10.9c-1.5,2.6-3.8,5.1-7.1,7.7C19.4,20.8,11.9,26.7,8.6,37.8z"/>
				</g>
			</g>
		</g>
		<g>
			<path class="st0" d="M40.9,94.4c-0.4,0-0.7,0-1.1,0c-0.2,0-0.3,0-0.5,0c-0.2,0-0.3,0.1-0.2,0.3c0,0,0,0.1,0.1,0.1c0,0,0,0,0,0
				c0,0-0.1-0.1-0.1-0.1c-0.5-0.5-1.2-0.7-1.9-0.5c-0.1,0-0.3,0-0.4,0.1c-0.2,0-0.4,0-0.5-0.3c-0.1-0.2-0.3-0.2-0.6-0.1
				c0.1-0.2,0.1-0.2,0.3-0.2c0.2,0,0.4,0.1,0.6,0.2c0.2,0.1,0.4,0.2,0.6,0.1c0.1,0,0.1-0.1,0.2-0.1c0.3-0.2,0.3-0.3,0.2-0.7
				c-0.2-0.5-0.4-1-0.6-1.5c-0.3-0.6-0.5-1.3-0.8-1.9c-0.2-0.5-0.6-0.8-1.1-1c-0.1-0.1-0.3-0.1-0.4-0.1c-0.5,0-1-0.1-1.5-0.1
				c-0.1,0-0.2,0-0.3,0c-0.3,0.1-0.6,0.2-0.9,0.3c0.1-0.2,0.3-0.3,0.4-0.5c-0.3,0-0.5-0.1-0.8-0.1c-0.1,0-0.3,0-0.4-0.1
				c-0.3-0.1-0.5,0-0.7,0c-1.2,0.4-2.3,0.7-3.5,1c-0.1,0-0.2,0-0.3,0.1c0,0-0.1,0-0.1,0c0.1-0.1,0.2-0.1,0.3-0.2
				c0.9-0.4,1.8-0.8,2.7-1.1c1-0.4,2.1-0.8,3.1-1.2c0.5-0.2,0.9-0.5,1.3-0.8c1-0.6,1.9-1.2,2.8-2c0.5-0.4,0.9-0.9,1.4-1.4
				c1.1-1,2.2-2,3.6-2.6c0.7-0.3,1.5-0.5,2.3-0.3c0.5,0.1,0.9,0.4,1.3,0.7c0.1,0.1,0.2,0.1,0.4,0.1c0.3,0,0.7,0,1,0
				c0.1,0,0.2,0,0.3,0.1c-0.1,0-0.1,0.1-0.2,0.1c-0.4,0.2-0.8,0.3-1.3,0.5c-0.2,0.1-0.4,0.2-0.4,0.4c-0.1,0.4-0.2,0.7-0.2,1.1
				c0,0.5,0,1,0,1.5c-0.1,1.3-0.4,2.5-1.3,3.4c-0.5,0.5-1,0.9-1.7,1.1c-0.9,0.4-1.9,0.7-2.9,1c-0.2,0-0.3,0-0.5,0.1
				c-0.1,0-0.2,0.1-0.1,0.2c0.9,0.8,1.5,2,2.4,2.8c0.2,0.1,0.3,0.3,0.5,0.4c0.2,0.1,0.4,0.2,0.7,0.2c0.3,0,0.6,0,0.9,0.1
				c0.2,0,0.3,0.1,0.4,0.3c-0.3,0-0.6-0.1-1-0.1c-0.2,0-0.4,0-0.5,0.1c-0.4,0.2-0.7,0.1-1-0.2c-0.1-0.1-0.2-0.1-0.3-0.1
				c-0.2,0-0.5,0-0.7,0c-0.1,0-0.3-0.1-0.4-0.2c-0.1-0.1-0.3-0.1-0.4-0.2c0.2,0,0.4,0.1,0.6,0.1c0.2,0,0.4,0.1,0.5,0.1
				c0.2,0,0.3-0.1,0.3-0.3c0-0.2-0.1-0.3-0.2-0.5c-0.6-0.8-1.3-1.6-2-2.3c-0.4-0.3-0.9-0.4-1.4-0.4c-0.2,0-0.3,0.2-0.3,0.4
				c0.2,0.9,0.5,1.8,0.9,2.6c0,0.1,0.1,0.2,0.2,0.3c0.3,0.5,0.6,0.8,1.2,0.8c0.6,0,1.2,0.1,1.8,0.2C40.8,94.3,40.8,94.4,40.9,94.4
				C40.9,94.4,40.9,94.4,40.9,94.4z"/>
		</g>
		<g>
			<path class="st2" d="M37.5,59.6"/>
		</g>
		<g>
			<g>
				<path class="st0" d="M45.9,45.2c0,0-1.3,4.4-5.7,3.1c0,0,0.6-2.2,2.2-2.7C43.6,45.2,43.9,45.8,45.9,45.2z"/>
			</g>
			<g>
				<path class="st0" d="M48.1,37.9c0,0-1.9,4.2-6.1,2.3c0,0,0.9-2.1,2.5-2.4C45.9,37.5,46.1,38.2,48.1,37.9z"/>
			</g>
			<g>
				<path class="st0" d="M34.7,46.6c0,0-0.7,4.6,3.9,5.2c0,0,0.4-2.2-0.8-3.4C36.8,47.6,36.3,47.9,34.7,46.6z"/>
			</g>
			<g>
				<path class="st0" d="M52.8,24.2c0,0-2,4.1-6.2,2.1c0,0,0.9-2.1,2.6-2.3C50.5,23.8,50.7,24.4,52.8,24.2z"/>
			</g>
			<g>
				<path class="st0" d="M41.1,17.8c0,0-3.2,3.3-6.5,0.2c0,0,1.5-1.7,3.2-1.4C39.1,16.7,39.1,17.4,41.1,17.8z"/>
			</g>
			<g>
				<path class="st0" d="M36.3,24.9c0,0-3.9,2.5-6.4-1.4c0,0,1.9-1.3,3.4-0.6C34.6,23.4,34.5,24,36.3,24.9z"/>
			</g>
			<g>
				<path class="st0" d="M28.1,30.3c0,0-4.1,2-6.2-2.1c0,0,2-1,3.5-0.3C26.5,28.6,26.3,29.2,28.1,30.3z"/>
			</g>
			<g>
				<path class="st0" d="M40.7,26.7c0,0-0.7,4.6,3.9,5.2c0,0,0.4-2.2-0.8-3.4C42.8,27.6,42.3,28,40.7,26.7z"/>
			</g>
			<g>
				<path class="st0" d="M45.8,16.1c0,0-1.6,4.3,2.7,6c0,0,0.8-2.1-0.1-3.5C47.7,17.5,47.1,17.7,45.8,16.1z"/>
			</g>
			<g>
				<path class="st0" d="M49.4,11.1c0,0-1.6,4.3,2.7,6c0,0,0.8-2.1-0.1-3.5C51.3,12.4,50.7,12.7,49.4,11.1z"/>
			</g>
			<g>
				<path class="st0" d="M34.5,7.9c0,0-1.6,4.3,2.7,6c0,0,0.8-2.1-0.1-3.5C36.4,9.2,35.8,9.5,34.5,7.9z"/>
			</g>
			<g>
				<path class="st0" d="M25.1,20c0,0-3,3.5,0.4,6.5c0,0,1.5-1.7,1.1-3.3C26.3,21.9,25.7,21.9,25.1,20z"/>
			</g>
			<g>
				<path class="st0" d="M31.1,13.5c0,0-1.6,4.3,2.8,5.9c0,0,0.8-2.1-0.1-3.5C33,14.9,32.4,15.1,31.1,13.5z"/>
			</g>
			<g>
				<path class="st0" d="M19.8,22.1c0,0-3,3.5,0.4,6.5c0,0,1.5-1.7,1.1-3.3C21.1,24,20.4,24.1,19.8,22.1z"/>
			</g>
		</g>
		<g>
			<path class="st0" d="M37.5,94.3C21.9,94.3,9.1,81.6,9.1,66c0-6.5,2.3-12.9,6.4-17.9l0.2-0.3l0.2,0.3c0.6,0.7,1.2,1.4,1.9,2.1
				C28.7,61,46.3,61,57.1,50.2c0.7-0.7,1.3-1.4,1.9-2.1l0.2-0.3l0.2,0.3c4.1,5,6.4,11.4,6.4,17.9C65.9,81.6,53.1,94.3,37.5,94.3z
				 M15.7,48.8c-3.9,4.9-6,11-6,17.2c0,15.3,12.5,27.8,27.8,27.8c15.3,0,27.8-12.5,27.8-27.8c0-6.2-2.1-12.3-6-17.2
				c-0.5,0.6-1.1,1.3-1.7,1.9c-11.1,11.1-29,11.1-40.1,0C16.9,50,16.3,49.4,15.7,48.8z"/>
		</g>
		<g>
			<defs>
				<path id="SVGID_00000101807850300054289340000014055957564780857519_" d="M59.3,48.3c-0.6,0.7-1.2,1.4-1.9,2.1
					c-11,11-28.7,11-39.7,0c-0.7-0.7-1.3-1.4-1.9-2.1c-3.9,4.8-6.3,11-6.3,17.7C9.4,81.5,22,94,37.5,94C53,94,65.6,81.5,65.6,66
					C65.6,59.3,63.2,53.1,59.3,48.3z"/>
			</defs>
			<clipPath id="SVGID_00000134215483392406965980000004581818437890331560_">
				<use xlink:href="#SVGID_00000101807850300054289340000014055957564780857519_"  style="overflow:visible;"/>
			</clipPath>
			<g style="opacity:0.7;clip-path:url(#SVGID_00000134215483392406965980000004581818437890331560_);">
				<g>
					<path class="st0" d="M31.6,98.3L31.2,98c1.1-1.3,1.4-3.2,1-5.8c-0.1-0.5-0.2-1-0.3-1.5c-0.3-1.6-0.6-3.2-0.4-4.8
						c0.4-3,2.7-5.4,4.8-7.6c0.2-0.2,0.5-0.5,0.7-0.7c7.1-7.5,11.9-17.3,13.6-27.6c0.5-3.4,0.7-7,0.9-10.4c0.2-3.7,0.4-7.4,1.1-11.1
						c0.8-4.9,3.4-13.8,10.7-18.2l0.2,0.4c-7.2,4.2-9.6,13-10.5,17.9c-0.6,3.6-0.8,7.4-1,11c-0.2,3.4-0.4,7-0.9,10.4
						c-1.6,10.3-6.5,20.2-13.7,27.8c-0.2,0.2-0.5,0.5-0.7,0.7c-2.1,2.2-4.3,4.4-4.7,7.3c-0.2,1.5,0.1,3.1,0.4,4.7
						c0.1,0.5,0.2,1,0.3,1.5C33.1,94.8,32.7,96.9,31.6,98.3z"/>
				</g>
				<g>
					<path class="st0" d="M81,104.6c-2.9,0-5.9-1.5-7.9-2.6c-3.2-1.6-4-1.5-13.4,0c-1,0.2-2.1,0.3-3.3,0.5c-3,0.5-5.5-0.1-7.3-1.7
						c-4.7-4.1-4.3-13.6-4.2-17.7l0-0.5c0.2-5.7,3.3-9.4,4.3-10.4c0.7-0.7,1.4-1.3,2.3-2.1c1.8-1.5,4.4-3.6,8.2-7.9
						c5.8-6.3,10.7-4.7,10.8-4.7l4.7,1.4c0.1,0,12.1,4.8,15.5,9c3.4,4.1,3.7,8.1,0.9,14.3c-2.6,5.9-1.9,12-1.9,12.1
						c0,0.1-0.5,5.9-4.3,8.9C84,104.2,82.5,104.6,81,104.6z M68.8,100.6c1.7,0,2.7,0.4,4.3,1.2c3.1,1.6,8.2,4.2,12.2,1.1
						c3.8-2.9,4.3-8.7,4.3-8.7c0,0-0.8-6.2,1.9-12.1c2.7-6.1,2.5-10-0.9-14.1c-3.4-4.1-15.2-8.8-15.5-8.9l-4.7-1.4
						c-0.1,0-4.9-1.6-10.6,4.7c-3.9,4.2-6.4,6.3-8.2,7.9c-0.9,0.8-1.7,1.4-2.3,2.1c-1,1-4.1,4.7-4.3,10.3l0,0.5
						c-0.1,4-0.5,13.5,4.1,17.6c1.8,1.6,4.2,2.2,7.2,1.7c1.2-0.2,2.3-0.4,3.3-0.5C64.4,101.1,67,100.6,68.8,100.6z"/>
				</g>
				<g>
					<path class="st0" d="M82.6,110.1c-3,0-6-1.7-8.1-2.8c-3.1-1.7-3.8-1.6-13.1-0.4c-1,0.1-2.1,0.3-3.3,0.4c-3,0.4-5.5-0.3-7.3-2
						c-4.5-4.3-3.8-13.6-3.6-17.6l0-0.5c0.4-5.6,3.6-9.2,4.6-10.2c0.7-0.6,1.4-1.2,2.4-2c1.9-1.4,4.4-3.4,8.3-7.4
						c6-6.1,10.7-4.4,10.9-4.3l4.6,1.6c0.5,0.2,11.8,5.2,15,9.4c3.3,4.2,3.4,8.2,0.4,14.2C90.8,94,91.4,100,91.4,100l0,0l0,0
						c0,0.2-0.7,5.8-4.6,8.7C85.4,109.7,84,110.1,82.6,110.1z M69.9,105.5c2,0,3.1,0.4,4.8,1.3c3.8,2.1,8.1,4.1,11.7,1.5
						c3.6-2.6,4.4-7.9,4.4-8.3c0-0.5-0.5-6.4,2.3-11.9c2.9-5.8,2.8-9.7-0.4-13.7c-3.2-4.1-14.4-9.1-14.8-9.2l-4.6-1.5
						c0,0-1.2-0.4-3-0.1c-1.7,0.3-4.4,1.3-7.4,4.3c-3.9,4-6.5,6-8.4,7.5c-0.9,0.7-1.7,1.3-2.3,1.9c-1,0.9-4.1,4.4-4.5,9.9l0,0.5
						c-0.3,3.9-0.9,13.2,3.4,17.3c1.7,1.6,4,2.2,6.9,1.9c1.2-0.1,2.3-0.3,3.3-0.4C65.7,105.8,68.2,105.5,69.9,105.5z"/>
				</g>
				<g>
					<path class="st0" d="M11.5,89.3c-2.8-4.1-3.6-8.5,1.7-16c4.9-6.9,4.6-9.5,3.8-18.1l-0.1-1.3c-0.9-9.6,9.1-15.2,9.2-15.2
						l0.1,0.1c-0.1,0.1-10,5.6-9.1,15.1l0.1,1.3c0.8,8.6,1.1,11.2-3.8,18.2C8,80.9,8.8,85.1,11.6,89.2L11.5,89.3z"/>
				</g>
				<g>
					<path class="st0" d="M11,87.8c-3-4.1-4-8.4,1-16.3c4.5-7.1,4.2-9.7,2.9-18.1l-0.2-1.3c-0.7-5,1.7-9.1,3.8-11.6
						c2.3-2.7,4.8-4.2,4.8-4.2l0.2,0.4c-0.1,0.1-9.7,6-8.4,15.3l0.2,1.3c1.2,8.6,1.6,11.2-3,18.5c-4.9,7.6-3.9,11.8-1,15.7L11,87.8z
						"/>
				</g>
				<g>
					<path class="st0" d="M39.6,107.8c-0.1,0-6.4-2.8-9.4-5.9c-2.3-2.5-1.7-7.9-1.2-12.3c0.1-1.2,0.3-2.3,0.3-3.2
						c0.1-2.9-0.2-7-0.4-10.4c-0.1-1.6-0.2-3-0.3-3.9c-0.1-2.8-1.4-10.3-2.6-15.9c-0.5-2.6-1-9.3,5.6-14.8C37,36.9,51.5,37,51.6,37
						l0,0.2c0,0,0,0-0.1,0c-1.2,0-14.7,0.1-19.7,4.3c-6.6,5.5-6.1,12.1-5.6,14.7c1.1,5.6,2.5,13.1,2.6,15.9c0,1,0.1,2.3,0.3,3.9
						c0.3,3.4,0.6,7.6,0.4,10.4c0,0.9-0.2,2-0.3,3.2c-0.5,4.4-1.1,9.8,1.2,12.2c2.9,3.1,9.3,5.8,9.3,5.9L39.6,107.8z"/>
				</g>
				<g>
					<path class="st0" d="M36.2,114c-1-3.3-3.6-5.6-6.1-8c-1.4-1.3-2.9-2.7-4.1-4.2c-2.6-3.3-2.1-7.5-1.4-13.4
						c0.2-1.7,0.4-3.5,0.6-5.5c0.6-8-2-17.2-3.2-20.8c0-0.1-0.1-0.3-0.2-0.5c-0.9-2.5-3.6-10.3,0.1-18c3.9-8.2,17.7-7.7,17.9-7.6
						l0,0.5c-0.1,0-13.6-0.5-17.4,7.4c-3.6,7.5-1,15.1-0.1,17.6c0.1,0.2,0.1,0.4,0.2,0.5c1.2,3.6,3.8,12.9,3.2,21
						c-0.2,2-0.4,3.9-0.6,5.6c-0.7,5.7-1.1,9.9,1.3,13c1.2,1.5,2.6,2.8,4.1,4.1c2.6,2.4,5.2,4.8,6.3,8.2L36.2,114z"/>
				</g>
				<g>
					<path class="st0" d="M40.3,60.8c-1,0-2.1-0.5-2.4-1.5c-0.3-0.7-0.1-1.5,0.1-2.3c1.7-6.8,3.5-13.8,7.6-19.7
						c2.2-3.1,4.9-5.9,7.6-8.5c1.8-1.8,3.6-3.6,5.3-5.5c4.4-5.1,7.7-11.5,11-17.7c3.9-7.5,8-15.2,13.8-20.8l0.1,0.1
						C77.5-9.5,73.4-1.8,69.5,5.6c-3.3,6.2-6.6,12.6-11,17.8c-1.7,1.9-3.5,3.8-5.3,5.5c-2.7,2.6-5.4,5.4-7.6,8.5
						c-4,5.9-5.8,12.9-7.5,19.6c-0.2,0.8-0.4,1.5-0.1,2.2c0.4,1,1.7,1.5,2.6,1.3c1.1-0.1,2-0.8,2.9-1.4c6.9-5.4,10.6-13.8,13.9-21.3
						c0.4-1,0.9-2.1,0.9-3.3c0-0.1,0-0.2,0-0.3c0-1,0-1.9-1.8-2.4c-0.9-0.2-2,0.2-3.2,1.2c-3.1,2.6-5.4,6-7.6,9.3
						c-1.8,2.7-3.5,5.4-3.3,8.4c0,0.6,0.2,0.9,0.5,1.1c0.4,0.2,1.6,0.4,2,0.2c4-2.3,7.1-7.3,7.4-12.3l0.2,0
						c-0.3,5-3.4,10.1-7.5,12.4c-0.4,0.2-1.7,0.1-2.2-0.1c-0.3-0.2-0.5-0.6-0.6-1.2c-0.2-3,1.4-5.7,3.3-8.5c2.2-3.3,4.5-6.7,7.6-9.3
						c1.3-1.1,2.4-1.5,3.4-1.2c1.9,0.5,1.9,1.5,1.9,2.5c0,0.1,0,0.2,0,0.3c0,1.2-0.5,2.4-0.9,3.4c-3.3,7.5-7,16-13.9,21.4
						c-0.9,0.7-1.8,1.3-2.9,1.5C40.6,60.8,40.4,60.8,40.3,60.8z"/>
				</g>
			</g>
		</g>
	</g>
</g>
</svg>
