<svg width="247" height="163" viewBox="0 0 247 163" fill="none" xmlns="http://www.w3.org/2000/svg">
<path d="M14.6826 48.7104L22.6588 51.947L10.1733 72.8724L15.7221 76.9181L23.6983 63.275L30.5228 67.0932L10.9824 91.8368L26.5922 91.7216C26.1949 90.4604 25.7485 89.2107 25.2705 87.9754C24.6111 86.2794 23.9229 84.065 22.4313 82.9103C25.6996 83.6216 28.4898 85.7035 30.6696 88.1712C32.5643 90.3164 34.8823 93.2391 34.747 96.277C34.6145 99.2717 31.1073 100.012 29.1377 98.0997C28.8757 97.8463 27.292 95.416 27.2862 95.416L20.001 97.0343C20.001 99.7468 20.001 102.462 20.001 105.175C20.001 109.966 21.1269 118.962 14.1038 119.463V98.5374L7.28227 100.271L13.1795 102.583C13.1795 102.583 6.58831 116.69 0 118.308C0 118.308 6.82155 104.55 6.47601 100.965L5.31845 100.271L1.15756 100.85L0.23036 92.1823L4.16088 92.2975L11.5612 82.9334L0.693961 70.563L4.50931 70.6782L14.6826 48.7104Z" fill="white"/>
<path d="M23.0479 99.3496C27.9977 102.281 34.108 107.732 34.2117 113.917C34.2434 115.751 33.3738 117.568 31.4531 117.937C30.9924 118.026 30.5 118.012 30.0738 117.819C28.8213 117.251 28.3173 115.354 27.8969 114.159C27.2894 112.423 26.7883 110.652 26.2067 108.907C24.9742 105.209 23.0479 99.3496 23.0479 99.3496Z" fill="white"/>
<path d="M85.3622 48.7104L93.3385 51.947L80.8529 72.8724L86.4017 76.9181L94.378 63.275L101.202 67.0932L81.6621 91.8368L97.269 91.7216C96.8716 90.4604 96.4253 89.2107 95.9473 87.9754C95.2879 86.2794 94.5997 84.065 93.1081 82.9103C96.3763 83.6216 99.1666 85.7035 101.346 88.1712C103.241 90.3164 105.559 93.2391 105.424 96.277C105.291 99.2717 101.784 100.012 99.8145 98.0997C99.5524 97.8463 97.9687 95.416 97.9629 95.416L90.6778 97.0343C90.6778 99.7468 90.6778 102.462 90.6778 105.175C90.6778 109.966 91.8037 118.962 84.7806 119.463V98.5374L77.959 100.271L83.8563 102.583C83.8563 102.583 77.2651 116.69 70.6768 118.308C70.6768 118.308 77.4983 104.55 77.1528 100.965L75.9952 100.271L71.8343 100.85L70.91 92.1795L74.8405 92.2946L82.2408 82.9305L71.3736 70.5601L75.1889 70.6753L85.3622 48.7104Z" fill="white"/>
<path d="M93.7275 99.3496C98.6774 102.281 104.788 107.732 104.891 113.917C104.923 115.751 104.053 117.568 102.133 117.937C101.672 118.026 101.18 118.012 100.754 117.819C99.5009 117.251 98.997 115.354 98.5766 114.159C97.969 112.423 97.468 110.652 96.8864 108.907C95.6539 105.209 93.7275 99.3496 93.7275 99.3496Z" fill="white"/>
<path d="M37.6924 70.7588L40.5431 75.461H67.1353V70.7588H37.6924Z" fill="white"/>
<path d="M37.6924 83.02L40.5431 87.7223H67.1353V83.02H37.6924Z" fill="white"/>
<path d="M39.0029 95.7271V119.469H57.5009C57.5009 119.469 67.8297 120.007 67.8297 109.911C67.8297 99.8131 67.8297 95.7299 67.8297 95.7299H39.0029V95.7271ZM59.5828 108.06C59.5828 117.001 51.0277 116.307 51.0277 116.307H47.2498V99.8131H59.5828V108.06Z" fill="white"/>
<path d="M15.2619 126.097C14.1331 128.836 12.9151 131.542 11.6567 134.223C9.44815 138.934 7.18486 143.907 3.91375 147.99C2.24651 150.072 -0.468862 152.517 0.864349 155.514C1.66197 157.311 3.56533 157.541 5.26999 157.023C7.34612 156.392 8.78587 154.861 9.79945 152.974C12.1578 148.577 13.0274 143.178 13.8192 138.306C14.4124 134.641 14.8587 130.949 15.1726 127.252C15.1985 126.926 15.1352 126.402 15.2619 126.097Z" fill="white"/>
<path d="M25.2822 126.097H33.5291V150.608H63.9741C63.9741 150.608 77.7698 150.608 82.3972 139.507C82.3972 139.507 83.0134 158.16 61.8951 158.16C40.7768 158.16 32.5271 158.16 32.5271 158.16C32.5271 158.16 25.2822 159.163 25.2822 150.066C25.2822 140.973 25.2822 126.097 25.2822 126.097Z" fill="white"/>
<path d="M44.9053 125.377C45.5618 125.913 46.9008 125.821 47.6898 125.974C48.7926 126.187 49.8868 126.619 50.9263 127.036C56.4348 129.25 61.4999 133.417 63.7459 139.029C64.8516 141.794 63.8467 145.019 60.3913 144.886C56.8178 144.751 55.7581 141.307 54.3184 138.689C52.0925 134.641 49.8062 130.431 46.5898 126.976C46.06 126.405 45.5042 125.867 44.9053 125.377Z" fill="white"/>
<path d="M82.5381 127.514C83.0967 127.842 83.6265 128.988 83.9836 129.503C85.2707 131.355 86.4715 133.264 87.5974 135.216C89.8981 139.204 91.5653 143.627 93.3276 147.915C94.2202 150.089 94.8998 152.508 96.4806 154.313C98.3437 156.444 101.468 156.749 103.204 154.253C105.822 150.486 103.507 145.767 101.105 142.533C96.3194 136.097 89.3539 131.533 82.5381 127.514Z" fill="white"/>
<path d="M57.9612 58.4979V48.7104H48.5596V58.4979H37.6924L40.5431 63.2001H67.1353V58.4979H57.9612Z" fill="white"/>
<path d="M135.8 49.3638C135.8 49.4444 135.841 50.0405 135.918 51.1519L131.271 51.748V132.774C131.51 142.308 125.788 152.156 114.112 162.327L112.681 161.256C119.75 151.644 123.246 142.15 123.168 132.777V53.1762C123.007 52.4621 122.531 52.0244 121.737 51.8661L114.348 51.27L114.23 49.4818L135.8 49.3638Z" fill="white"/>
<path d="M142.593 132.892L142.711 131.225L148.908 130.39C149.702 130.312 150.177 129.794 150.339 128.841H150.457V53.5333H150.339C150.177 52.5024 149.702 51.9438 148.908 51.8661L142.711 51.27L142.593 49.4818L166.545 49.3638C166.545 49.4444 166.582 50.0405 166.663 51.1519L158.56 51.8661V130.511L166.663 130.989C166.663 131.07 166.622 131.666 166.545 132.777L142.593 132.892Z" fill="white"/>
<path d="M169.044 132.892L169.162 131.225L175.359 130.39C175.914 130.312 176.39 129.794 176.79 128.841L202.527 49.3638H210.391L237.798 130.511L246.019 130.989C246.019 131.07 245.979 131.666 245.901 132.777L222.07 132.895C222.07 132.181 222.11 131.625 222.188 131.228L228.385 130.393C229.021 130.315 229.338 129.837 229.338 128.962L222.784 109.54H185.607L179.292 130.272L193.114 130.986C193.114 131.067 193.073 131.663 192.996 132.774L169.044 132.892ZM203.362 51.6271L186.324 107.155H221.952L203.362 51.6271Z" fill="white"/>
<path d="M143.019 158.529V145.461H144.556C146.583 148.594 151.323 155.851 152.141 157.267H152.161C152.049 155.393 152.066 153.464 152.066 151.336V145.461H153.126V158.529H151.703C149.774 155.514 144.951 147.949 144.024 146.51H144.003C144.095 148.214 144.078 150.135 144.078 152.505V158.526H143.019V158.529Z" fill="#FFF100"/>
<path d="M164.192 152.122H157.537V157.564H164.828L164.676 158.526H156.492V145.458H164.529V146.42H157.537V151.157H164.192V152.122Z" fill="#FFF100"/>
<path d="M169.329 158.529L165.715 145.461H166.803C167.687 148.658 169.637 155.784 169.933 157.313H169.953C170.201 156.075 172.329 148.908 173.242 145.461H174.394C175.249 148.638 177.322 156.257 177.532 157.293H177.552C177.964 155.422 180.13 148.557 181.014 145.461H182.076L178.091 158.529H176.896C176.041 155.453 174.025 147.964 173.795 146.821H173.777C173.438 148.534 171.439 155.295 170.512 158.529H169.329Z" fill="#FFF100"/>
<path d="M188.252 145.461H189.3V151.143H197.086V145.461H198.134V158.529H197.086V152.104H189.3V158.529H188.252V145.461Z" fill="#FFF100"/>
<path d="M212.311 151.903C212.311 155.471 210.402 158.716 206.365 158.716C202.679 158.716 200.531 155.747 200.531 151.995C200.531 148.298 202.61 145.274 206.498 145.274C210.085 145.274 212.311 148.091 212.311 151.903ZM201.654 151.938C201.654 154.932 203.304 157.751 206.423 157.751C209.783 157.751 211.191 155.001 211.191 151.92C211.191 148.891 209.599 146.236 206.46 146.236C203.12 146.236 201.654 148.998 201.654 151.938Z" fill="#FFF100"/>
<path d="M215.812 145.461V153.374C215.812 156.827 217.759 157.719 219.596 157.719C221.767 157.719 223.379 156.807 223.379 153.374V145.461H224.445V153.317C224.445 157.414 222.271 158.678 219.558 158.678C216.975 158.678 214.727 157.282 214.727 153.481V145.461H215.812Z" fill="#FFF100"/>
<path d="M227.269 155.013C227.658 156.741 228.813 157.757 230.946 157.757C233.316 157.757 234.226 156.576 234.226 155.166C234.226 153.7 233.572 152.796 230.713 152.09C227.934 151.396 226.745 150.492 226.745 148.609C226.745 146.878 228.006 145.274 230.811 145.274C233.699 145.274 234.914 147.031 235.084 148.626H234.002C233.705 147.238 232.801 146.233 230.756 146.233C228.887 146.233 227.868 147.103 227.868 148.546C227.868 149.971 228.72 150.527 231.122 151.123C234.802 152.038 235.349 153.51 235.349 155.085C235.349 157.017 233.941 158.679 230.906 158.679C227.638 158.679 226.431 156.781 226.187 155.013H227.269Z" fill="#FFF100"/>
<path d="M245.425 152.122H238.771V157.564H246.062L245.909 158.526H237.726V145.458H245.762V146.42H238.771V151.157H245.425V152.122Z" fill="#FFF100"/>
<path d="M140.985 28.3887L143.248 29.29C143.17 29.4426 142.94 29.483 142.73 29.4628C142.096 30.2115 141.29 30.8824 140.372 31.4756C140.832 31.9161 141.293 32.1667 141.713 32.1667C142.134 32.1667 142.307 31.8211 142.384 30.7269C142.808 31.13 143.421 31.4929 143.939 31.6656C143.594 33.736 142.98 34.1967 141.598 34.1967C140.467 34.1766 139.393 33.5632 138.454 32.5093C137.054 33.1601 135.52 33.6986 133.965 34.0815C133.734 33.6208 133.158 32.7771 132.813 32.3567C134.368 32.0313 135.957 31.5706 137.339 30.9371C136.994 30.3036 136.669 29.5953 136.401 28.8466L133.775 29.1144L133.622 27.3694C133.544 27.4472 133.412 27.4846 133.239 27.4846C133.029 28.2707 132.663 29.4398 132.338 30.2086L130.976 29.7104C131.244 28.8667 131.569 27.5623 131.704 26.661L133.7 27.2744L135.885 27.044C135.713 26.2953 135.597 25.5092 135.54 24.703L138.223 24.7807C138.223 24.9737 138.051 25.0888 137.743 25.1263C137.78 25.7022 137.858 26.2781 137.993 26.8511L140.487 26.6006C139.951 26.255 139.202 25.8721 138.589 25.6417L139.799 24.5676C139.914 24.6051 140.009 24.6627 140.124 24.703V24.6828C139.588 24.415 139.05 23.9917 138.552 23.4734C137.247 24.0666 135.828 24.5475 134.428 24.893C134.16 24.4525 133.585 23.6836 133.219 23.3007C134.659 23.0127 136.133 22.5923 137.457 22.0337C137.112 21.4779 136.807 20.8819 136.536 20.2513L133.927 20.5191L133.87 20.0008L132.911 21.4779C132.853 21.4002 132.775 21.3052 132.701 21.2274V22.9148H130.82V24.3344H133.294V26.2896H130.82V30.5081L133.582 30.1424L133.697 32.0601C131.146 32.5007 128.499 32.9412 126.792 33.1918C126.754 33.3645 126.599 33.4797 126.446 33.5171L125.795 31.1387C126.639 31.0437 127.656 30.9285 128.787 30.773V26.2982H126.121V24.343H128.787V22.9234H127.137V22.7305L127.1 22.768C126.754 22.2698 126.046 21.5413 125.548 21.2332C127.1 19.6811 128.252 17.6655 128.923 16.0933L131.436 16.5338C131.399 16.7066 131.264 16.8016 130.976 16.8218L130.938 16.8995C131.935 17.6079 133.066 18.4919 133.815 19.2002L133.757 18.7021L135.926 18.4919C135.715 17.7259 135.58 16.9197 135.502 16.0933L138.149 16.1883C138.128 16.3611 137.976 16.4762 137.65 16.5338C137.688 17.1097 137.803 17.7029 137.976 18.2788L140.757 17.9909C140.219 17.7029 139.531 17.415 138.955 17.2048L139.971 16.1307C140.757 16.3611 141.794 16.7642 142.33 17.127L141.639 17.9131L143.288 17.7403L143.461 19.5429L138.687 20.0411C138.88 20.4068 139.09 20.7494 139.3 21.0777C139.894 20.6947 140.412 20.2916 140.815 19.851L142.983 20.7321C142.906 20.8848 142.675 20.9251 142.465 20.9049C141.909 21.4607 141.238 21.979 140.469 22.4598C140.91 22.863 141.351 23.0933 141.716 23.0933C142.119 23.0933 142.255 22.8054 142.35 21.8667C142.733 22.2496 143.309 22.6153 143.807 22.7881C143.461 24.6483 142.906 25.0716 141.659 25.0716C141.448 25.0716 141.161 25.0716 140.68 24.9189C141.256 25.1695 141.811 25.4747 142.177 25.7425L141.313 26.5084L143.539 26.2982L143.712 28.1008L140.985 28.3887ZM127.022 30.5167C126.927 29.6154 126.599 28.2333 126.256 27.1592L127.771 26.7561C128.154 27.7927 128.479 29.172 128.594 30.056L127.022 30.5167ZM132.487 21.0057C131.837 20.2973 130.858 19.4536 129.974 18.7424C129.55 19.4911 129.072 20.257 128.517 21.0057H132.487ZM138.569 28.6191C138.762 29.1 138.972 29.5406 139.202 29.9437C139.911 29.483 140.507 28.9646 140.947 28.3887L138.569 28.6191Z" fill="white"/>
<path d="M155.538 17.1703H161.138L161.619 17.0925C161.639 17.1127 161.677 17.13 163.096 17.6684C163.076 17.7836 163.001 17.8988 162.903 17.9765C162.327 19.6265 161.579 21.6393 160.735 23.6722C162.423 25.6274 163.036 26.9894 163.036 28.2189C163.036 31.8817 160.562 31.8615 158.777 31.8068C158.757 31.1733 158.469 30.1943 158.086 29.5637C158.624 29.6213 159.14 29.6213 159.485 29.6213C160.637 29.6213 160.732 28.7977 160.732 28.1268C160.732 27.0729 160.099 25.9412 158.374 24.0811C158.987 22.3563 159.526 20.7639 159.946 19.3443H157.798V34.1881H155.535V18.2616H155.399C154.864 19.5459 154.248 20.7351 153.539 21.8667H154.939V23.8622H152.12C151.717 24.3604 151.296 24.8413 150.853 25.302H154.268V33.9895H152.099V33.3185H148.972V34.2198H146.882V28.4464C146.556 28.6566 146.211 28.8495 145.865 29.0223C145.635 28.5414 145.059 27.6229 144.696 27.1823C145.462 26.8166 146.194 26.3962 146.882 25.9153V25.302H147.726C148.301 24.8614 148.837 24.3806 149.335 23.8622H145.076V21.8667H148.451V20.044H145.883V18.0687H148.451V16.1538L151.077 16.3064C151.057 16.4792 150.925 16.5944 150.579 16.652V18.0716H152.517V19.4912C152.9 18.7828 153.246 18.014 153.533 17.2279L155.529 17.8786V17.1703H155.538ZM152.105 28.3888V27.1218H148.978V28.3888H152.105ZM148.981 31.4584H152.108V30.1338H148.981V31.4584ZM150.591 21.8667H151.051C151.475 21.2908 151.858 20.6775 152.22 20.044H150.591V21.8667Z" fill="white"/>
<path d="M175.406 32.4342H166.336V30.6893L167.946 28.9644C170.687 26.1252 172.299 24.2651 172.299 22.3099C172.299 21.0429 171.628 19.989 170.036 19.989C168.982 19.989 168.003 20.5448 167.332 21.0429L166.546 19.01C167.447 18.3189 168.945 17.7056 170.612 17.7056C173.719 17.7056 175.139 19.6809 175.139 22.0392C175.139 24.6077 173.394 26.7184 171.283 28.8464L170.074 30.0356V30.073H175.406V32.4342Z" fill="white"/>
<path d="M177.151 25.224C177.151 20.8126 178.781 17.7056 182.041 17.7056C185.456 17.7056 186.778 21.0803 186.778 25.1088C186.778 29.9031 184.995 32.6473 181.946 32.6473C178.571 32.6473 177.151 29.2697 177.151 25.224ZM181.983 30.4013C183.288 30.4013 183.938 28.5613 183.938 25.1664C183.938 21.8866 183.345 19.9487 182 19.9487C180.774 19.9487 179.988 21.7138 179.988 25.1664C179.988 28.5987 180.696 30.4013 181.963 30.4013H181.983Z" fill="white"/>
<path d="M75.0656 9.19116C75.2701 13.5277 75.679 17.6943 76.2952 21.144C77.4902 18.4804 78.3771 15.4397 78.9933 12.1283L82.6819 12.9144C82.6128 13.1534 82.3393 13.3233 81.8613 13.3233C80.8707 18.037 79.4022 22.2036 77.2857 25.6533C78.1064 28.4551 79.097 30.1626 80.2574 30.1626C81.0089 30.1626 81.4178 28.2852 81.5561 24.084C82.2039 24.801 83.2636 25.5871 84.0843 25.9268C83.5717 31.8356 82.5466 33.3732 79.9176 33.3732C77.8329 33.3732 76.2635 31.6311 75.0685 28.7977C73.5654 30.5744 71.8233 32.1091 69.8077 33.3732C69.3642 32.757 68.3737 31.6657 67.7258 31.1186L67.9993 30.9833C67.3514 30.3354 66.4962 29.6184 65.5057 28.8668C64.0717 30.5744 62.0906 32.0429 59.2543 33.1371C58.9462 32.4547 58.1946 31.395 57.5813 30.8825C60.144 29.9956 61.9524 28.766 63.2856 27.332C62.5686 26.854 61.817 26.4106 61.1346 25.9988L60.7919 26.8195L58.4682 25.5554C59.0815 23.9832 59.8676 21.8667 60.5846 19.6812H58.2292V17.0868H61.4053C61.7479 16.0271 62.0532 15.0049 62.3267 14.046H58.7417V11.4833H70.899V14.046H65.4683V14.0806L65.8771 14.1151C65.808 14.3887 65.6036 14.524 65.091 14.5586C64.852 15.3447 64.5785 16.197 64.2704 17.0868H71.5786V19.6812H69.2231C68.8142 22.0366 68.2326 24.395 67.1067 26.5114C68.0972 27.2284 69.0187 27.9108 69.6349 28.527L68.27 30.7817C70.5247 29.3823 72.4021 27.5365 73.9398 25.3164C72.8139 20.9453 72.1977 15.2065 71.9241 9.19692H57.374V16.1653C57.374 21.2189 56.896 28.5299 53.8898 33.2753C53.4118 32.6937 52.1131 31.6715 51.4307 31.3288C54.0942 26.9577 54.3678 20.7409 54.3678 16.1653V6.21951H71.8204C71.7513 4.61563 71.7168 2.97431 71.7168 1.37043L75.8143 1.60943C75.8143 1.91753 75.5408 2.08742 74.9591 2.19109V6.22239H80.1509C79.1603 5.23184 77.4873 3.93319 76.0533 3.01175L77.9653 1.3042C79.5692 2.22564 81.5503 3.62508 82.5063 4.65018L80.8678 6.22239H83.327V9.19404H75.0656V9.19116ZM63.4209 19.6754C62.9775 20.9395 62.534 22.2382 62.056 23.4678C62.9775 23.9457 63.9335 24.4929 64.8578 25.0716C65.7447 23.3986 66.2227 21.5529 66.5653 19.6754H63.4209Z" fill="#FFF100"/>
<path d="M119.156 17.2165H113.486C115.364 18.9241 117.549 20.3235 119.873 21.2478C119.156 21.8612 118.166 23.0907 117.688 23.9114C116.288 23.2635 114.955 22.4428 113.691 21.4868C113.521 21.5559 113.316 21.5559 113.109 21.5214C112.05 22.4428 110.138 23.9114 108.839 24.7666L106.858 23.1281C108.156 22.103 109.999 20.4646 111.059 19.235C110.443 18.5872 109.829 17.9364 109.248 17.2194H98.0177C97.3698 18.04 96.6528 18.8233 95.9012 19.5748C97.4389 20.6345 99.2127 22.0685 100.068 23.1281L97.986 25.21C97.1999 24.1158 95.3916 22.5119 93.8539 21.386C92.6589 22.3766 91.3257 23.298 89.8917 24.1187C89.3792 23.4017 88.2187 22.342 87.4326 21.8986C89.9608 20.5654 92.0773 18.996 93.8539 17.2194H88.0834V14.5558H96.1431C96.791 13.7035 97.3727 12.8137 97.8852 11.9269H91.7375V9.39865H99.1493C99.492 8.61255 99.7972 7.82644 100.036 7.04322H89.9608V4.41423H100.782C101.021 3.38913 101.191 2.36402 101.329 1.3418L105.461 1.68446C105.392 2.02712 105.119 2.26612 104.606 2.29779C104.471 2.98024 104.332 3.69723 104.163 4.41423H117.483V7.04322H103.446C103.172 7.82932 102.898 8.61543 102.59 9.39865H116.15V11.9269H109.081C109.628 12.8483 110.241 13.7035 110.924 14.5558H119.153V17.2165H119.156ZM89.7189 29.3076C92.3134 28.4869 96.2756 27.122 100.102 25.7888L100.615 28.2824C97.4043 29.5811 94.0238 30.946 91.8383 31.7667C91.8383 32.0402 91.6684 32.2446 91.4294 32.38L89.7189 29.3076ZM101.911 18.0717L105.838 18.2762C105.804 18.5497 105.634 18.7542 105.087 18.8233V30.3327C105.087 33.0308 103.993 33.3734 98.7001 33.3734C98.5648 32.5873 98.1185 31.496 97.7096 30.7444C98.631 30.779 99.5524 30.8135 100.238 30.8135C101.741 30.8135 101.911 30.8135 101.911 30.2319V18.0717ZM101.433 11.924C100.989 12.8109 100.477 13.7006 99.9297 14.553H107.342C106.794 13.7006 106.282 12.8109 105.838 11.924H101.433ZM115.606 32.6881C113.25 31.2195 108.945 29.0686 105.599 27.6662L107.272 25.3454C110.653 26.644 114.923 28.7259 117.313 30.0591L115.606 32.6881Z" fill="#FFF100"/>
<path d="M49.2838 0.668045C49.2838 0.647889 49.2809 0.616214 49.278 0.58454C49.2665 0.544227 49.2665 0.506793 49.2492 0.472239C49.2492 0.4636 49.2492 0.457841 49.2464 0.452082C49.2406 0.423287 49.2262 0.417528 49.2118 0.394492C49.1974 0.357059 49.1772 0.325384 49.1513 0.29083C49.1369 0.264915 49.1197 0.244758 49.0909 0.224601C49.0621 0.195806 49.0419 0.17277 49.0131 0.146855C48.9814 0.129578 48.9584 0.11518 48.9296 0.0979032C48.9123 0.0863852 48.8864 0.0691081 48.8749 0.0633491C48.8576 0.0575901 48.8432 0.0575901 48.8346 0.0489516C48.8 0.0431926 48.7712 0.0316746 48.7453 0.023036C48.705 0.017277 48.6676 0.00863852 48.6244 0.00575901C48.61 0.00575901 48.5927 0 48.5783 0H42.1513C41.9842 0 41.8201 0.0547106 41.6934 0.164132L36.7205 4.29334C36.5161 4.46035 36.4383 4.72239 36.5017 4.97291H30.4317C30.2647 4.97291 30.1005 5.03338 29.9738 5.13704L26.553 7.97623L23.1292 5.13416C22.9997 5.0305 22.8384 4.97003 22.6628 4.97003H16.6216C16.636 4.9182 16.6417 4.86924 16.6417 4.81453C16.6417 4.57553 16.5208 4.36533 16.3365 4.24439L11.4269 0.164132C11.2945 0.0547106 11.1332 0 10.9662 0H4.52476C4.50461 0 4.49309 0.00575901 4.47581 0.00575901C4.43838 0.00863852 4.39807 0.0143975 4.36351 0.023036C4.33184 0.0287951 4.30304 0.0403131 4.27425 0.0489516C4.25985 0.0518311 4.24257 0.0547106 4.23393 0.0633491C4.20802 0.0691081 4.19074 0.0863852 4.17059 0.0979032C4.14179 0.11518 4.11587 0.129578 4.08996 0.146855C4.05828 0.17277 4.03525 0.195806 4.00933 0.224601C3.98918 0.247637 3.9719 0.267794 3.94886 0.29083C3.92295 0.325384 3.90567 0.357059 3.88551 0.394492C3.87976 0.417528 3.86536 0.423287 3.85672 0.452082C3.85672 0.457841 3.85672 0.4636 3.85672 0.472239C3.84232 0.506793 3.83368 0.544227 3.83368 0.58454C3.82792 0.613335 3.81929 0.647889 3.81929 0.668045C3.81929 0.673804 3.81641 0.682443 3.81641 0.685322V7.02599C3.81641 7.22756 3.90567 7.42049 4.05828 7.55006L8.74324 11.4345V17.4901C8.74324 17.6888 8.83826 17.8817 8.98512 18.0142L13.9494 22.1348C14.079 22.2413 14.246 22.3018 14.413 22.3018C14.5138 22.3018 14.6174 22.2816 14.7096 22.2355C14.9601 22.1232 15.1185 21.8842 15.1185 21.6107V15.2758C15.1185 15.0771 15.0292 14.887 14.8708 14.7575L10.1974 10.8644V5.50274H15.5446C15.5418 5.52577 15.5418 5.54305 15.5331 5.56608C15.5331 5.592 15.5216 5.61792 15.5216 5.64383C15.5216 5.64383 15.5187 5.65535 15.5187 5.65823V11.9989C15.5187 12.1976 15.6137 12.3905 15.7664 12.5201L20.4455 16.4074V22.4601C20.4455 22.6646 20.5406 22.8518 20.6961 22.9871L26.0635 27.4705C26.193 27.577 26.3601 27.6346 26.5271 27.6346C26.5386 27.6346 26.5443 27.6317 26.5559 27.6317C26.5703 27.6317 26.5789 27.6346 26.5875 27.6346C26.7574 27.6346 26.9244 27.577 27.0569 27.4705L32.4185 22.9871C32.574 22.8518 32.6633 22.6646 32.6633 22.4601V16.4074L37.3338 12.5201C37.4865 12.3905 37.5815 12.1947 37.5815 11.9989V5.65823C37.5815 5.65247 37.5786 5.64383 37.5786 5.64383C37.5786 5.61504 37.5728 5.58912 37.5642 5.55745C37.5642 5.54017 37.5642 5.52289 37.5527 5.50274H42.9028V10.8673L38.2236 14.7575C38.0681 14.887 37.9817 15.0771 37.9817 15.2758V21.6107C37.9817 21.8871 38.1372 22.1261 38.3935 22.2355C38.4943 22.2816 38.5922 22.3018 38.693 22.3018C38.86 22.3018 39.0241 22.2413 39.1508 22.1348L44.1064 18.0142C44.2619 17.8817 44.357 17.6917 44.357 17.4901V11.4403L49.0419 7.55294C49.1974 7.42337 49.2924 7.23332 49.2924 7.02887V0.688202C49.2924 0.682443 49.2838 0.673804 49.2838 0.668045ZM21.9083 15.8517V10.4728H25.476H27.6299H27.6357H31.1947V15.8488L26.553 19.7333L21.9083 15.8517Z" fill="white"/>
<path d="M32.3094 30.2431C32.3152 30.1365 32.3267 30.0444 32.3296 29.9206C32.4591 29.9206 32.5945 29.8975 32.7183 29.8687C32.7298 29.863 32.7385 29.863 32.7529 29.8601C32.9861 29.7766 33.1848 29.6096 33.372 29.3188C33.4727 29.1604 33.6801 28.7342 33.5332 28.3599C33.3345 27.8099 32.8191 27.7638 31.889 27.6746C30.933 27.5795 30.2477 27.7062 29.643 28.0575C29.3694 28.213 29.1189 28.4232 29.093 28.4491C29.0815 28.4635 29.0728 28.4722 29.0585 28.4808C28.5229 28.9761 27.9786 29.7536 28.0362 30.5051C28.0679 30.9284 28.2896 31.3114 28.6841 31.582C28.7072 31.5878 28.7302 31.5936 28.7503 31.608C28.6841 31.5878 28.6121 31.582 28.52 31.582C28.4969 31.582 28.4653 31.582 28.4365 31.5849C27.8519 31.6454 27.2012 32.1493 27.2012 32.7338C27.2012 32.7511 27.2012 32.7598 27.2012 32.7742C27.2559 33.6207 28.0391 34.1736 29.1823 34.1736C29.6977 34.1736 30.2016 34.0584 30.5587 33.8655C31.9869 33.1082 32.2374 31.7318 32.2979 30.3813L32.3094 30.2431ZM29.9799 29.9753C29.9684 29.9609 29.954 29.9494 29.9396 29.9378L30.0432 29.8371C30.1584 29.7132 30.2247 29.6557 30.2938 29.6182C30.1872 29.7305 30.0922 29.8572 30.026 29.9926C30.0231 30.0012 30.0231 30.0098 30.0231 30.0185C30.0029 30.0012 29.9972 29.9868 29.9799 29.9753ZM29.1506 31.7087C29.404 31.7087 29.6401 31.5993 29.8302 31.4697C29.8302 31.847 29.8273 32.2184 29.6804 32.3653C29.594 32.4488 29.4472 32.5294 29.3406 32.5726C29.3406 32.5496 29.3349 32.538 29.3349 32.5323C29.3032 32.3307 29.2341 31.798 28.8022 31.6339C28.9087 31.6771 29.0268 31.7087 29.1506 31.7087Z" fill="white"/>
<path d="M26.3373 31.7406C26.2336 31.7032 26.1098 31.6773 26.0148 31.6773C26.0349 31.6312 26.0464 31.588 26.0637 31.5477C26.2048 31.1503 26.3373 30.7789 26.3546 30.465C26.3661 30.321 26.3258 30.1713 26.2423 30.0475C26.4899 29.7969 26.6655 29.4629 26.6943 29.1001C26.7116 28.8697 26.6108 28.6509 26.4409 28.5012C26.2538 28.3572 26.009 28.3082 25.7902 28.3745C25.7844 28.3802 25.77 28.3802 25.7297 28.3802C25.6318 28.3802 25.5022 28.3543 25.3467 28.3169C25.03 28.2535 24.7132 28.4033 24.5721 28.6855C24.5002 28.8237 24.4253 28.9561 24.3562 29.1001L24.2612 29.2729C24.1229 29.5234 24.1633 29.8257 24.3504 30.0417C24.3562 30.0446 24.3677 30.0475 24.3735 30.059C24.3447 30.0763 24.3072 30.0849 24.2784 30.1108C24.0078 29.8603 23.6046 29.7048 23.141 29.7048C22.8444 29.7048 22.5565 29.7739 22.3204 29.8862C22.1879 29.9524 22.0411 30.0417 21.9028 30.154C22.0353 29.4543 22.0007 28.72 21.6523 28.0404C21.5976 27.9281 21.5083 27.8274 21.3989 27.7611C21.301 27.7007 21.1369 27.6287 20.9123 27.6287C20.823 27.6287 20.7251 27.6431 20.6301 27.669C20.6128 27.6719 20.5955 27.6805 20.5754 27.6805C20.4113 27.7179 20.2298 27.7928 20.0715 27.8994C19.9908 27.8101 19.8872 27.7496 19.7749 27.692C19.5704 27.6172 19.3401 27.6028 19.1846 27.6028C18.839 27.6028 18.3783 27.6776 18.1048 28.0203C17.8744 28.2967 17.8197 28.5847 17.7679 28.8064C17.7477 28.9129 17.7276 28.9964 17.6901 29.0771C17.67 29.1347 17.6441 29.1865 17.621 29.2441C17.5807 28.6768 17.3561 28.1671 16.8032 27.8475C16.7543 27.8158 16.7053 27.7928 16.6621 27.7755C16.6074 27.7496 16.5095 27.7093 16.4145 27.6805C16.1755 27.5999 15.9423 27.5596 15.7234 27.5596C14.7732 27.5596 14.3009 28.3169 14.1339 28.5962C14.0159 28.7747 13.9065 28.9705 13.8258 29.1635C13.8229 29.1721 13.8114 29.1865 13.8114 29.2009C13.3392 30.3153 13.7826 31.0006 14.3528 31.2857C14.3672 31.2914 14.3845 31.3 14.4075 31.3087C14.5111 31.3404 14.6119 31.3634 14.7271 31.3634C14.5659 31.9537 14.5054 32.5699 14.6954 33.0853C15.041 34.0241 15.7666 34.1277 16.0632 34.1277C16.5498 34.1277 17.0134 33.8916 17.382 33.6123C17.549 33.8455 17.8283 34.0788 18.3236 34.1479C18.3927 34.1508 18.4705 34.1623 18.5425 34.1623C19.2681 34.1623 19.7922 33.6526 20.1031 33.3416L20.2039 33.2495C20.3825 33.0796 20.584 32.8579 20.7827 32.5929C20.944 33.5374 21.6408 34.1248 22.5997 34.1248C23.0546 34.1248 23.5182 33.9924 23.9271 33.7505C24.0567 33.9031 24.241 34.0557 24.5088 34.1248C24.5952 34.1479 24.6902 34.1623 24.7881 34.1623C25.387 34.1623 25.9313 33.6929 26.1415 33.4798C26.415 33.2178 26.7404 32.8003 26.7318 32.3511C26.7318 32.0919 26.5734 31.85 26.3373 31.7406ZM19.8296 29.8056C19.8354 29.7912 19.844 29.771 19.8469 29.7509L19.916 29.9582C20.0974 30.9056 19.6108 31.6024 19.3257 31.9134C19.3314 31.8702 19.3401 31.8328 19.3487 31.8011L19.3602 31.7262C19.4985 31.0495 19.628 30.4765 19.8296 29.8056Z" fill="white"/>
<path d="M38.7452 31.7123C38.8143 31.4905 38.9065 31.2256 39.013 30.9204C39.0533 30.811 39.0965 30.7102 39.1167 30.6411C39.1772 30.4482 39.1455 30.2495 39.0389 30.0796C39.1743 29.9241 39.301 29.7081 39.3787 29.4173C39.3931 29.3597 39.3989 29.3021 39.3989 29.2445V29.0574C39.3989 28.8443 39.2981 28.6427 39.1253 28.5131C38.9468 28.3836 38.7251 28.3375 38.512 28.398C38.3911 28.4239 38.3306 28.421 38.1463 28.3605C37.8958 28.2885 37.6107 28.3548 37.4264 28.539C37.1644 28.7924 37.0607 29.1034 36.9801 29.3568L36.9455 29.4519C36.8995 29.5785 36.8937 29.711 36.9311 29.855C36.9369 29.8723 36.9484 29.9039 36.9628 29.9385C36.9657 29.95 36.9743 29.9615 36.9801 29.9759C36.8764 29.8636 36.7353 29.7772 36.577 29.7484C36.2285 29.6851 35.9147 29.8319 35.7189 29.95C35.4712 29.7974 35.1718 29.7139 34.8262 29.7139H34.8233C34.0891 29.7139 32.6925 30.6584 32.3326 31.8937C32.1598 32.4984 32.2692 33.1578 32.6176 33.607C32.9488 34.0331 33.4729 34.2376 34.0056 34.1742C34.3108 34.1339 34.5699 34.0015 34.7773 33.8517C34.8781 33.9727 34.9961 34.0619 35.1631 34.1195C35.1833 34.1282 35.2092 34.1282 35.2265 34.1339C35.3733 34.1714 35.5115 34.1858 35.6469 34.1858C36.1047 34.1858 36.4301 33.9957 36.6518 33.8229C36.7641 33.9496 36.9139 34.0735 37.1241 34.1742C37.222 34.2146 37.3256 34.2376 37.4293 34.2376C37.4351 34.2376 37.4495 34.2376 37.461 34.2376C38.2672 34.2002 39.4968 33.3939 39.4824 32.412C39.4853 32.0204 39.1455 31.7007 38.7452 31.7123Z" fill="white"/>
<path d="M27.6343 9.78214H21.2044L16.2344 5.65869H22.6672L27.6343 9.78214Z" fill="#86B629"/>
<path d="M16.2344 5.65869L21.2044 9.78214V16.1257L16.2344 11.9994V5.65869Z" fill="#1A2D76"/>
<path d="M21.1572 16.1255L26.5246 20.6146V26.9467L21.1572 22.4575V16.1255Z" fill="#312549"/>
<path d="M15.9282 4.81769H9.48966L4.52539 0.688477H10.9668L15.9282 4.81769Z" fill="#349ACE"/>
<path d="M4.52539 0.688477L9.48966 4.81769V11.1555L4.52539 7.02915V0.688477Z" fill="#1A2D76"/>
<path d="M9.45508 11.1553L14.4136 15.2758V21.6079L9.45508 17.4931V11.1553Z" fill="#312549"/>
<path d="M25.4795 9.78214H31.9065L36.8651 5.65869H30.4294L25.4795 9.78214Z" fill="#86B629"/>
<path d="M36.8648 5.65869L31.9062 9.78214V16.1257L36.8648 11.9994V5.65869Z" fill="#1A2D76"/>
<path d="M31.9495 16.1255L26.585 20.6146V26.9467L31.9495 22.4575V16.1255Z" fill="#312549"/>
<path d="M37.1787 4.81769H43.6173L48.5787 0.688477H42.1516L37.1787 4.81769Z" fill="#349ACE"/>
<path d="M48.5796 0.688477L43.6182 4.81769V11.1555L48.5796 7.02915V0.688477Z" fill="#1A2D76"/>
<path d="M43.6461 11.1553L38.6904 15.2758V21.6079L43.6461 17.4931V11.1553Z" fill="#312549"/>
<path fill-rule="evenodd" clip-rule="evenodd" d="M31.8224 28.3578C31.0047 28.2858 30.4633 28.3837 29.9968 28.6544C29.7809 28.7753 29.5678 28.9625 29.5678 28.9625C28.9948 29.4837 28.3325 30.4973 29.0639 31.0012C29.2078 31.0933 29.5102 30.886 29.6139 30.7334C29.634 30.6988 29.634 30.6816 29.634 30.6355C29.6225 30.5808 29.3317 30.3533 29.2309 30.2093C29.0927 29.8839 29.2453 29.6478 29.4267 29.4693C29.6484 29.2447 29.8154 29.0259 30.1811 28.9193C31.068 28.6602 31.7418 29.4117 32.5337 29.2073C32.6143 29.1785 32.7122 29.0604 32.7554 28.9827C32.8159 28.879 32.9022 28.6774 32.8706 28.5939C32.836 28.4903 32.7381 28.4471 31.8224 28.3578Z" fill="#349ACE"/>
<path fill-rule="evenodd" clip-rule="evenodd" d="M25.9829 29.0375C25.7324 29.1123 25.4416 29.0461 25.2083 29.0029C25.1018 29.1959 24.9953 29.3974 24.8916 29.5961C25.3293 30.0799 25.9397 29.5702 25.9829 29.0375Z" fill="#349ACE"/>
<path fill-rule="evenodd" clip-rule="evenodd" d="M38.6961 29.2418C38.6961 29.1784 38.6961 29.1237 38.6961 29.0546C38.4082 29.1353 38.1807 29.0978 37.9359 29.0229C37.7718 29.1784 37.7056 29.429 37.6221 29.668C37.6278 29.6881 37.6365 29.7054 37.6422 29.7284C38.2383 29.9185 38.5608 29.7601 38.6961 29.2418Z" fill="#349ACE"/>
<path fill-rule="evenodd" clip-rule="evenodd" d="M31.5028 29.6537C31.4308 29.6681 30.8289 29.9359 30.6792 30.2584C30.3394 31.0733 30.8203 32.2423 30.1811 32.8586C29.8816 33.135 29.107 33.5381 28.7269 33.04C28.6031 32.8701 28.6405 32.2423 28.5196 32.2596C28.1971 32.2971 27.9062 32.5965 27.9062 32.729C27.9667 33.6015 29.5476 33.613 30.2156 33.2617C31.2407 32.7175 31.5258 31.8018 31.592 30.3419C31.6064 30.0942 31.6151 29.9877 31.6266 29.7084C31.6295 29.6537 31.5805 29.6393 31.5028 29.6537Z" fill="#349ACE"/>
<path fill-rule="evenodd" clip-rule="evenodd" d="M25.2747 32.7552C25.2143 32.7206 25.1538 32.6573 25.1221 32.5882C24.9666 32.1706 25.6203 30.9497 25.6519 30.4257C25.3064 30.4487 25.0213 30.5264 24.7679 30.633C24.6671 30.656 24.5635 30.9699 24.4166 31.5631V31.5688C24.3648 31.7099 24.3331 31.8452 24.3015 31.9633C24.1978 32.257 24.0682 32.4845 23.8609 32.6515C23.8379 32.6688 23.8148 32.6861 23.7947 32.7033C23.7803 32.7091 23.763 32.7177 23.7515 32.7293H23.7457C23.7169 32.7465 23.6968 32.7552 23.668 32.7696C23.164 33.0287 22.3635 32.902 22.3463 32.2397C22.7868 31.8021 24.2381 31.7589 23.8868 30.728C23.7169 30.3825 23.0489 30.3105 22.6457 30.5034C22.1332 30.751 21.3528 31.6264 21.4882 32.4615C21.6897 33.6939 23.0114 33.6133 23.7601 33.0316C23.858 32.9567 23.9444 32.8675 24.0135 32.7926C24.0509 32.7523 24.1028 32.7581 24.1344 32.7926C24.3302 32.9827 24.4022 33.3858 24.7017 33.4607C25.1394 33.5758 26.0378 32.7581 26.032 32.3607C25.8823 32.4701 25.7815 32.6083 25.6203 32.6832C25.5224 32.7206 25.3985 32.7868 25.2747 32.7552ZM22.3261 31.7301C22.2397 31.373 22.4067 31.0649 22.6227 30.8259C22.7696 30.6848 22.9913 30.5984 23.1468 30.6877C23.1698 30.7107 23.1928 30.7251 23.2159 30.7395C23.2476 30.777 23.2677 30.823 23.2821 30.8806C23.2965 31.0102 23.2677 31.1599 23.2101 31.3039C23.2044 31.3327 23.1928 31.3442 23.1813 31.3759C23.0517 31.6379 22.8041 31.851 22.5565 31.8309C22.4758 31.8193 22.3607 31.8107 22.3261 31.7301Z" fill="#349ACE"/>
<path fill-rule="evenodd" clip-rule="evenodd" d="M38.7538 32.4127C38.5235 32.5826 38.4371 32.8043 38.0426 32.7985C38.0138 32.7985 37.9907 32.7928 37.9792 32.7726C37.6654 32.3493 38.2931 30.8779 38.4428 30.4287C38.224 30.4575 37.6049 30.5208 37.4955 30.6763C37.0031 31.3933 37.3054 32.7985 36.0672 32.7985C36.0615 32.7985 36.0356 32.7985 36.024 32.7726C36.0096 32.7467 36.001 32.7237 35.978 32.692C35.7073 32.0585 36.5769 31.0161 36.4416 30.4316C36.168 30.3769 35.9261 30.7598 35.5604 30.7771C35.4453 30.564 35.2379 30.3999 34.8233 30.4085C34.4144 30.4085 33.2885 31.1313 33.0178 32.0815C32.8048 32.8072 33.1849 33.576 33.922 33.4867C34.3367 33.4349 34.6419 33.0231 34.9068 32.7985C34.9385 32.7726 34.973 32.7726 34.9932 32.7985C35.1228 33.003 35.2783 33.432 35.3934 33.4666C36.24 33.6595 36.3206 32.8964 36.885 32.8619C37.0463 33.1383 37.1067 33.4003 37.4321 33.5529C37.9476 33.527 38.7826 32.9339 38.7797 32.4127C38.7797 32.3983 38.7625 32.3983 38.7538 32.4127ZM34.1524 32.859C33.4814 32.6661 34.2128 31.2349 34.3827 30.9988C34.4864 30.8549 34.6448 30.6821 34.783 30.6533C34.8809 30.636 34.9961 30.659 35.0796 30.6965C35.762 31.0651 34.8118 33.0433 34.1524 32.859Z" fill="#349ACE"/>
<path fill-rule="evenodd" clip-rule="evenodd" d="M20.803 28.3349C20.7973 28.3349 20.7886 28.3435 20.7829 28.3435C20.7771 28.3435 20.7656 28.3435 20.7541 28.3464C20.4978 28.4069 20.2358 28.6228 20.2646 28.7121C20.3798 29.0749 20.4949 29.4291 20.6044 29.7919C20.8491 30.9437 20.3164 31.8968 19.7837 32.4497C19.6109 32.6282 19.2107 33.1408 18.8162 32.9363C18.3987 32.7434 18.5714 32.0293 18.6636 31.5887C18.8162 30.8717 18.9429 30.2987 19.1531 29.6076C19.2683 29.2218 19.4727 28.7898 19.5274 28.3406C19.3143 28.2658 18.8047 28.2744 18.6607 28.4443C18.4591 28.7034 18.4937 29.0029 18.3526 29.3398C17.9639 30.2555 17.7623 31.4073 17.362 32.2971C17.2296 32.5879 16.5385 33.3452 16.2304 32.729C16.1152 32.4295 16.2995 32.0149 16.3715 31.7903C16.6566 30.9091 17.4283 28.9741 16.4348 28.427C16.4233 28.4184 16.4032 28.4097 16.3744 28.404C16.3254 28.3781 16.2045 28.3406 16.1958 28.3406C15.4241 28.0642 15.0412 28.4472 14.7417 28.9568C14.638 29.1066 14.543 29.2736 14.4681 29.455C14.2694 29.9301 14.2205 30.4484 14.6668 30.6673C14.7791 30.7105 14.9807 30.555 15.0498 30.4196C15.0613 30.3908 15.0699 30.3649 15.0642 30.3419C15.0613 30.0827 14.8223 29.8984 14.7532 29.6623C14.615 29.167 15.3003 28.4097 15.7783 28.5422C16.2477 28.7351 16.144 29.3628 15.9914 29.8495C15.7783 30.5319 15.0527 32.0177 15.3608 32.8528C15.8157 34.0737 17.0971 33.0774 17.5031 32.5044C17.5348 32.5044 17.5578 32.5044 17.5895 32.5044C17.9466 32.8211 17.7306 33.3625 18.4303 33.4575C18.9774 33.541 19.4468 32.9939 19.7146 32.7491C20.5554 31.9602 21.808 29.9128 21.0161 28.3377C21.0219 28.3435 20.9528 28.3061 20.803 28.3349Z" fill="#349ACE"/>
</svg>
