<svg width="137" height="88" viewBox="0 0 137 88" fill="none" xmlns="http://www.w3.org/2000/svg">
<path d="M21.66 84.3201V86.9C21.66 86.96 21.67 87.01 21.7 87.05C21.73 87.08 21.78 87.1101 21.86 87.1301V87.23H20.61V87.1301C20.68 87.1101 20.74 87.08 20.77 87.05C20.8 87.02 20.81 86.97 20.81 86.9V83.31C20.81 83.25 20.8 83.2 20.77 83.17C20.74 83.14 20.69 83.11 20.61 83.09V82.9901H22.05V83.09C21.96 83.11 21.92 83.16 21.92 83.23C21.92 83.28 21.95 83.33 22.01 83.39L24.35 85.8201V83.31C24.35 83.25 24.34 83.2 24.31 83.17C24.28 83.14 24.23 83.11 24.15 83.09V82.9901H25.4V83.09C25.33 83.11 25.27 83.14 25.24 83.17C25.21 83.2 25.2 83.25 25.2 83.31V86.9C25.2 86.96 25.21 87.01 25.24 87.05C25.27 87.09 25.32 87.1101 25.4 87.1301V87.23H24.07V87.1301C24.16 87.1101 24.2 87.07 24.2 87C24.2 86.96 24.15 86.89 24.05 86.78L21.67 84.33L21.66 84.3201Z" fill="white"/>
<path d="M28.55 85.36V86.52H31.28C31.34 86.52 31.39 86.51 31.42 86.48C31.45 86.45 31.48 86.4 31.5 86.32H31.6V87.42H31.5C31.48 87.35 31.45 87.29 31.42 87.26C31.39 87.23 31.34 87.22 31.28 87.22H27.43V87.12C27.5 87.1 27.56 87.07 27.59 87.04C27.62 87.01 27.63 86.96 27.63 86.89V83.3C27.63 83.24 27.62 83.19 27.59 83.15C27.56 83.12 27.51 83.09 27.43 83.07V82.97H31.2C31.26 82.97 31.31 82.96 31.34 82.93C31.37 82.9 31.4 82.85 31.42 82.78H31.52V83.88H31.42C31.4 83.81 31.37 83.75 31.34 83.73C31.31 83.71 31.26 83.69 31.2 83.69H28.55V84.7H30.27C30.33 84.7 30.38 84.69 30.41 84.66C30.44 84.63 30.47 84.58 30.49 84.5H30.59V85.57H30.49C30.47 85.5 30.44 85.45 30.41 85.42C30.38 85.39 30.33 85.37 30.27 85.37H28.55V85.36Z" fill="white"/>
<path d="M36.74 84.24L35.77 86.69C35.71 86.81 35.69 86.89 35.69 86.93C35.69 87.03 35.77 87.09 35.92 87.13V87.23H34.56V87.13C34.7 87.1 34.77 87.03 34.77 86.92C34.77 86.89 34.74 86.8 34.68 86.64L33.47 83.51C33.41 83.35 33.36 83.25 33.31 83.19C33.26 83.14 33.19 83.1 33.1 83.08V82.98H34.57V83.08C34.44 83.11 34.37 83.17 34.37 83.26C34.37 83.31 34.39 83.38 34.42 83.46L35.26 85.7L36.17 83.44C36.21 83.34 36.23 83.28 36.23 83.25C36.23 83.15 36.16 83.09 36.02 83.07V82.97H37.56V83.07C37.42 83.11 37.35 83.17 37.35 83.27C37.35 83.3 37.37 83.37 37.4 83.46L38.27 85.7L39.11 83.49C39.15 83.38 39.17 83.3 39.17 83.24C39.17 83.15 39.1 83.09 38.95 83.06V82.96H40.41V83.06C40.31 83.09 40.24 83.13 40.2 83.17C40.16 83.22 40.11 83.32 40.04 83.48L38.83 86.61C38.77 86.76 38.74 86.86 38.74 86.91C38.74 87.01 38.81 87.07 38.96 87.1V87.2H37.58V87.1C37.73 87.08 37.8 87.01 37.8 86.89C37.8 86.85 37.77 86.76 37.7 86.61L36.76 84.21L36.74 84.24Z" fill="white"/>
<path d="M45.96 85.36V86.52H48.69C48.75 86.52 48.8 86.51 48.83 86.48C48.86 86.45 48.89 86.4 48.91 86.32H49.01V87.42H48.91C48.89 87.35 48.86 87.29 48.83 87.26C48.8 87.23 48.75 87.22 48.69 87.22H44.84V87.12C44.91 87.1 44.97 87.07 45 87.04C45.03 87.01 45.04 86.96 45.04 86.89V83.3C45.04 83.24 45.03 83.19 45 83.15C44.97 83.12 44.92 83.09 44.84 83.07V82.97H48.61C48.67 82.97 48.72 82.96 48.75 82.93C48.78 82.9 48.81 82.85 48.83 82.78H48.93V83.88H48.83C48.81 83.81 48.78 83.75 48.75 83.73C48.72 83.71 48.67 83.69 48.61 83.69H45.96V84.7H47.68C47.74 84.7 47.79 84.69 47.82 84.66C47.85 84.63 47.88 84.58 47.9 84.5H48V85.57H47.9C47.88 85.5 47.85 85.45 47.82 85.42C47.79 85.39 47.74 85.37 47.68 85.37H45.96V85.36Z" fill="white"/>
<path d="M52.07 85.4901V86.9C52.07 86.96 52.08 87.01 52.11 87.04C52.14 87.07 52.19 87.1 52.26 87.12V87.22H50.94V87.12C51.01 87.1 51.07 87.07 51.1 87.04C51.13 87.01 51.14 86.96 51.14 86.9V83.31C51.14 83.25 51.13 83.2 51.1 83.16C51.07 83.13 51.02 83.1 50.94 83.08V82.98H53.59C53.91 82.98 54.17 83 54.36 83.04C54.55 83.08 54.71 83.1401 54.86 83.2401C55.02 83.3501 55.15 83.49 55.23 83.68C55.31 83.86 55.34 84.05 55.34 84.25C55.34 84.94 54.96 85.3501 54.19 85.4601L55.01 86.6301C55.16 86.8301 55.26 86.97 55.33 87.03C55.4 87.09 55.48 87.1201 55.58 87.1301V87.23H54.05V87.1301C54.15 87.1101 54.21 87.08 54.21 87.0201C54.21 86.9801 54.16 86.89 54.06 86.75L53.2 85.5H52.07V85.4901ZM52.07 84.79H53.5C53.71 84.79 53.86 84.7901 53.95 84.7701C54.04 84.7601 54.12 84.73 54.19 84.69C54.35 84.61 54.43 84.45 54.43 84.23C54.43 84.01 54.35 83.8601 54.19 83.7701C54.12 83.7301 54.04 83.7 53.95 83.69C53.87 83.68 53.72 83.67 53.5 83.67H52.07V84.78V84.79Z" fill="white"/>
<path d="M60.46 86.14H58.53L58.24 86.7401C58.2 86.8201 58.18 86.89 58.18 86.94C58.18 87.03 58.25 87.0901 58.39 87.1301V87.23H56.99V87.1301C57.07 87.1101 57.14 87.08 57.18 87.04C57.22 87 57.27 86.92 57.33 86.8L58.89 83.54C58.94 83.44 58.96 83.35 58.96 83.29C58.96 83.19 58.9 83.13 58.78 83.09V82.9901H60.28V83.09C60.16 83.13 60.1 83.1901 60.1 83.2701C60.1 83.3301 60.12 83.4 60.16 83.47L61.77 86.7401C61.84 86.8801 61.9 86.9701 61.95 87.0201C62 87.0701 62.07 87.1 62.16 87.12V87.22H60.6V87.12C60.74 87.1 60.81 87.03 60.81 86.93C60.81 86.89 60.79 86.8201 60.75 86.7401L60.46 86.14ZM60.19 85.56L59.5 84.05L58.8 85.56H60.19Z" fill="white"/>
<path d="M68.99 82.91C69.73 82.91 70.32 83.11 70.75 83.51C71.21 83.93 71.44 84.47 71.44 85.13C71.44 85.54 71.33 85.91 71.11 86.27C70.68 86.96 69.98 87.3 69 87.3C68.27 87.3 67.68 87.1 67.25 86.7C67.02 86.49 66.84 86.23 66.72 85.93C66.61 85.67 66.56 85.39 66.56 85.1C66.56 84.68 66.67 84.29 66.89 83.94C67.31 83.27 68.01 82.92 68.99 82.91ZM68.99 83.63C68.59 83.63 68.25 83.75 67.98 83.99C67.66 84.27 67.5 84.64 67.5 85.1C67.5 85.56 67.66 85.93 67.98 86.21C68.25 86.45 68.59 86.57 69 86.57C69.41 86.57 69.75 86.45 70.01 86.21C70.17 86.07 70.29 85.89 70.38 85.69C70.45 85.51 70.49 85.32 70.49 85.12C70.49 84.64 70.33 84.26 70.01 83.99C69.74 83.75 69.4 83.63 68.99 83.63Z" fill="white"/>
<path d="M74.49 85.37V86.9C74.49 86.96 74.5 87.01 74.53 87.05C74.56 87.08 74.61 87.11 74.68 87.13V87.23H73.36V87.13C73.43 87.11 73.49 87.08 73.52 87.05C73.55 87.02 73.56 86.97 73.56 86.9V83.31C73.56 83.25 73.55 83.2 73.52 83.16C73.49 83.13 73.44 83.1 73.36 83.08V82.98H77.11C77.17 82.98 77.22 82.97 77.25 82.94C77.28 82.91 77.31 82.86 77.33 82.78H77.43V83.88H77.33C77.31 83.8 77.28 83.75 77.25 83.72C77.22 83.69 77.17 83.68 77.11 83.68H74.48V84.69H76.2C76.26 84.69 76.31 84.68 76.35 84.65C76.38 84.62 76.41 84.57 76.43 84.5H76.53V85.57H76.43C76.41 85.5 76.38 85.44 76.35 85.42C76.32 85.39 76.27 85.38 76.2 85.38H74.48L74.49 85.37Z" fill="white"/>
<path d="M84.35 83.68V86.89C84.35 86.95 84.36 87 84.39 87.04C84.42 87.07 84.47 87.1 84.55 87.12V87.22H83.23V87.12C83.3 87.1 83.36 87.07 83.39 87.04C83.42 87.01 83.43 86.96 83.43 86.89V83.68H82.11C82.05 83.68 82 83.69 81.97 83.72C81.94 83.75 81.91 83.8 81.89 83.88H81.79V82.78H81.89C81.91 82.86 81.94 82.91 81.97 82.94C82 82.97 82.05 82.98 82.11 82.98H85.66C85.72 82.98 85.77 82.97 85.81 82.94C85.85 82.91 85.87 82.86 85.89 82.78H85.99V83.88H85.89C85.87 83.8 85.84 83.75 85.81 83.72C85.78 83.69 85.73 83.68 85.66 83.68H84.35Z" fill="white"/>
<path d="M90.32 86.14H88.39L88.1 86.7401C88.06 86.8201 88.04 86.89 88.04 86.94C88.04 87.03 88.11 87.0901 88.25 87.1301V87.23H86.85V87.1301C86.93 87.1101 87 87.08 87.04 87.04C87.08 87 87.13 86.92 87.19 86.8L88.75 83.54C88.8 83.44 88.82 83.35 88.82 83.29C88.82 83.19 88.76 83.13 88.64 83.09V82.9901H90.14V83.09C90.02 83.13 89.96 83.1901 89.96 83.2701C89.96 83.3301 89.98 83.4 90.02 83.47L91.63 86.7401C91.7 86.8801 91.76 86.9701 91.81 87.0201C91.86 87.0701 91.93 87.1 92.02 87.12V87.22H90.46V87.12C90.6 87.1 90.67 87.03 90.67 86.93C90.67 86.89 90.65 86.8201 90.61 86.7401L90.32 86.14ZM90.05 85.56L89.36 84.05L88.66 85.56H90.05Z" fill="white"/>
<path d="M93.85 86.9V83.31C93.85 83.25 93.84 83.2 93.81 83.17C93.78 83.14 93.73 83.11 93.65 83.09V82.9901H94.97V83.09C94.9 83.11 94.84 83.14 94.81 83.17C94.78 83.2 94.77 83.25 94.77 83.31V86.9C94.77 86.96 94.78 87.01 94.81 87.05C94.84 87.08 94.89 87.1101 94.96 87.1301V87.23H93.64V87.1301C93.71 87.1101 93.77 87.08 93.8 87.05C93.83 87.02 93.84 86.97 93.84 86.9H93.85Z" fill="white"/>
<path d="M98.06 84.3201V86.9C98.06 86.96 98.07 87.01 98.1 87.05C98.13 87.08 98.18 87.1101 98.26 87.1301V87.23H97.01V87.1301C97.08 87.1101 97.14 87.08 97.17 87.05C97.2 87.02 97.21 86.97 97.21 86.9V83.31C97.21 83.25 97.2 83.2 97.17 83.17C97.14 83.14 97.09 83.11 97.01 83.09V82.9901H98.45V83.09C98.36 83.11 98.32 83.16 98.32 83.23C98.32 83.28 98.35 83.33 98.41 83.39L100.75 85.8201V83.31C100.75 83.25 100.74 83.2 100.71 83.17C100.68 83.14 100.63 83.11 100.55 83.09V82.9901H101.8V83.09C101.73 83.11 101.67 83.14 101.64 83.17C101.61 83.2 101.6 83.25 101.6 83.31V86.9C101.6 86.96 101.61 87.01 101.64 87.05C101.67 87.09 101.72 87.1101 101.8 87.1301V87.23H100.47V87.1301C100.56 87.1101 100.6 87.07 100.6 87C100.6 86.96 100.55 86.89 100.45 86.78L98.07 84.33L98.06 84.3201Z" fill="white"/>
<path d="M106.99 86.14H105.06L104.77 86.7401C104.73 86.8201 104.71 86.89 104.71 86.94C104.71 87.03 104.78 87.0901 104.92 87.1301V87.23H103.52V87.1301C103.6 87.1101 103.67 87.08 103.71 87.04C103.75 87 103.8 86.92 103.86 86.8L105.42 83.54C105.47 83.44 105.49 83.35 105.49 83.29C105.49 83.19 105.43 83.13 105.31 83.09V82.9901H106.81V83.09C106.69 83.13 106.63 83.1901 106.63 83.2701C106.63 83.3301 106.65 83.4 106.69 83.47L108.3 86.7401C108.37 86.8801 108.43 86.9701 108.48 87.0201C108.53 87.0701 108.6 87.1 108.69 87.12V87.22H107.13V87.12C107.27 87.1 107.34 87.03 107.34 86.93C107.34 86.89 107.32 86.8201 107.28 86.7401L106.99 86.14ZM106.72 85.56L106.03 84.05L105.33 85.56H106.72Z" fill="white"/>
<path d="M111.38 84.3201V86.9C111.38 86.96 111.39 87.01 111.42 87.05C111.45 87.08 111.5 87.1101 111.58 87.1301V87.23H110.33V87.1301C110.4 87.1101 110.46 87.08 110.49 87.05C110.52 87.02 110.53 86.97 110.53 86.9V83.31C110.53 83.25 110.52 83.2 110.49 83.17C110.46 83.14 110.41 83.11 110.33 83.09V82.9901H111.77V83.09C111.68 83.11 111.64 83.16 111.64 83.23C111.64 83.28 111.67 83.33 111.73 83.39L114.07 85.8201V83.31C114.07 83.25 114.06 83.2 114.03 83.17C114 83.14 113.95 83.11 113.87 83.09V82.9901H115.12V83.09C115.05 83.11 114.99 83.14 114.96 83.17C114.93 83.2 114.92 83.25 114.92 83.31V86.9C114.92 86.96 114.93 87.01 114.96 87.05C114.99 87.09 115.04 87.1101 115.12 87.1301V87.23H113.79V87.1301C113.88 87.1101 113.92 87.07 113.92 87C113.92 86.96 113.87 86.89 113.77 86.78L111.39 84.33L111.38 84.3201Z" fill="white"/>
<path d="M0.779999 57.0701V54.7001H6.92V52.2201H10.26V54.7001H16.29V52.2201H19.63V54.7001H25.77V57.0701H19.63V59.7601H16.29V57.0701H10.26V59.7601H6.92V57.0701H0.779999ZM1 76.9001V74.6401C5.09 73.6301 8.36 72.3401 10.81 70.7601C8.29 68.6801 6.1 65.4101 4.24 60.9501H8.12C9.48 64.2601 11.21 66.8801 13.29 68.8201C15.37 66.8801 17.1 64.2601 18.46 60.9501H22.23C20.58 65.1901 18.42 68.4601 15.77 70.7601C18.21 72.4101 21.48 73.7101 25.58 74.6401V76.9001C19.9 75.5301 15.81 74.1001 13.3 72.5901C10.57 74.1701 6.47 75.6101 1.02 76.9001H1Z" fill="white"/>
<path d="M29.01 70.4301V68.1701H38.92V66.2301H42.69V68.1701H52.71V70.4301H43.66C44.95 72.3701 48.15 73.8401 53.25 74.8501V76.9001C47.36 76.1801 43.23 74.6001 40.86 72.1601C38.49 74.6001 34.36 76.1801 28.47 76.9001V74.8501C33.43 73.9201 36.62 72.4401 38.06 70.4301H29.01ZM29.23 56.5301V54.2701H34.19C33.97 53.7001 33.83 53.0501 33.76 52.3301H37.32C37.39 53.1201 37.54 53.7701 37.75 54.2701H43.89C43.89 54.2001 43.93 54.0901 44 53.9501C44.22 53.3001 44.36 52.7601 44.43 52.3301H47.99C47.85 53.0501 47.67 53.7001 47.45 54.2701H52.51V56.5301H42.6V58.7901H51.11V60.9401H42.6V63.3101H53.05V65.5701H28.59V63.3101H38.93V60.9401H30.63V58.7901H38.93V56.5301H29.23Z" fill="white"/>
<path d="M55.62 75.5001V73.7801C56.91 72.6301 57.63 70.9401 57.77 68.7201H60.25C60.25 72.1001 58.7 74.3601 55.62 75.5101V75.5001ZM55.94 62.8901V60.6301H58.42C57.99 59.6201 57.7 58.5501 57.56 57.4001H60.47C60.54 58.5501 60.79 59.6301 61.22 60.6301H64.02C64.45 59.6201 64.7 58.5501 64.77 57.4001H67.68C67.54 58.5501 67.25 59.6301 66.82 60.6301H69.19V62.8901H64.34V65.3701H68.76V67.5201H64.34V73.3401C64.41 75.6401 63.3 76.7501 61 76.6801H58.95V74.5301H59.92C60.85 74.6001 61.28 74.1701 61.21 73.2401V67.5301H56.47V65.3801H61.21V62.9001H55.93L55.94 62.8901ZM56.59 56.5301V54.2701H60.9V52.4401H64.35V54.2701H68.66V56.5301H56.59ZM68.87 77.1101V75.0601C66.57 74.0501 65.35 71.9401 65.21 68.7001H67.8C67.8 70.9301 68.37 72.6201 69.52 73.7601C69.88 73.0401 70.06 71.6101 70.06 69.4501V53.6101H75.66C77.6 53.6801 79.32 53.4301 80.83 52.8601V55.2301C79.54 55.7301 78.03 55.9501 76.3 55.8801H73.07V59.7601H81.04V62.0201H78.67V76.7801H75.55V62.0201H73.07V68.8101C73.29 72.7601 71.88 75.5301 68.87 77.1101Z" fill="white"/>
<path d="M113.92 77.1101V61.5901C112.99 62.0901 111.98 62.4901 110.9 62.7801V60.8401C113.49 59.2601 115.17 56.4601 115.96 52.4401H119.52C118.87 55.0301 118.12 56.9701 117.26 58.2601V77.1201H113.92V77.1101ZM118.66 60.8401V58.4701H123.83C123.68 56.5301 123.61 54.4501 123.61 52.2201H127.27C127.34 54.5901 127.38 56.6701 127.38 58.4701H135.89V60.8401H127.49C127.71 64.0001 127.99 66.4801 128.35 68.2801C129.07 72.3701 130.36 74.4601 132.23 74.5301C133.23 74.6001 133.74 74.0301 133.74 72.8101H136.22C136.29 75.6801 134.96 77.0801 132.23 77.0101C128.57 77.0801 126.12 74.1701 124.9 68.2801C124.47 66.2001 124.15 63.7201 123.93 60.8401H118.65H118.66ZM131.16 57.2801C130.94 55.6301 130.48 54.1201 129.76 52.7501H132.56C133.35 54.4701 133.85 55.9801 134.07 57.2801H131.16Z" fill="white"/>
<path d="M93.77 71.2901V53.9401H84.4V74.6301H90.43C92.8 74.7001 93.91 73.5901 93.77 71.2901ZM87.52 56.2001H90.75V62.7701H87.52V56.2001ZM89.57 72.5801H87.52V64.9301H90.75V71.1801C90.82 72.1101 90.43 72.5801 89.56 72.5801H89.57Z" fill="white"/>
<path d="M95.7 56.7001V54.4401H99.71V52.1801H103.37V54.4401H107.42V56.7001H103.37V60.1501H108.74V62.5201H94.49V60.1501H99.71V56.7001H95.7ZM94.49 67.8001V65.6501H102.93V63.7101H106.38V65.6501H108.94V67.8001H106.38V73.4001C106.38 75.6301 105.27 76.7401 103.04 76.7401H99.59V74.4801H101.42C102.5 74.5501 103 74.1201 102.93 73.1901V67.8001H94.49ZM96.92 73.4501C96.66 72.2201 96.11 70.7701 95.27 69.0901H98.08C98.92 70.5101 99.53 71.9701 99.92 73.4501H96.92Z" fill="white"/>
<path d="M60.6 45.68C49.03 44.95 39.78 35.51 39.26 23.93C38.68 10.86 49.14 0.0500488 62.08 0.0500488C66.45 0.0500488 70.71 1.29005 74.37 3.64005C77.94 5.92004 81.4 9.89005 83.14 14.03H80.41C77.03 7.04004 69.83 2.53004 62.07 2.53004C50.78 2.53004 41.61 11.7601 41.71 23.0701C41.8 33.6901 50.17 42.5501 60.77 43.2101C69.51 43.7501 76.54 39.44 80.38 31.72H83.13C78.55 41.34 70.4 46.31 60.59 45.68H60.6Z" fill="white"/>
<path d="M75.72 45.72C63.13 45.72 52.88 35.4701 52.88 22.8801C52.88 10.2901 63.13 0.0400391 75.72 0.0400391C84.74 0.0400391 93.2 5.39005 96.82 14.0201H94.05C90.78 6.67005 83.75 2.52005 75.71 2.52005C64.48 2.52005 55.35 11.6501 55.35 22.8801C55.35 34.1101 64.48 43.2401 75.71 43.2401C83.65 43.2401 90.7 39.3501 94.25 31.7101H96.87C93.44 40.8901 84.62 45.72 75.71 45.72H75.72Z" fill="white"/>
<path d="M96.88 31.71H80.4L81.55 29.35H97.76L96.88 31.71Z" fill="white"/>
</svg>
