<svg width="410" height="310" fill="#FFF" xmlns="http://www.w3.org/2000/svg"><linearGradient id="SVGID_1_" gradientUnits="userSpaceOnUse" x1="147" y1="206" x2="270" y2="-6"><stop offset="0" style="stop-color:#95804E"/><stop offset="0.29" style="stop-color:#EFD3AD"/><stop offset="0.57" style="stop-color:#BB9362"/><stop offset="0.78" style="stop-color:#E7D1B4"/><stop offset="1" style="stop-color:#A1805D"/></linearGradient><path fill="url(#SVGID_1_)" d="M204.9,83.2c4.3-18.7,2.6-34.7-11.7-44.9c-40.9-29.1-89.7,12.8-40.7,51.4c27.6,21.7,57.4-2.7,29.7-23.9
	c-25.4-19.4-36.9-3.5-30,2.9c4.4,4.1,10.2,0.3,7.6-3.2c-2-2.7-8.1-3.4-7.1,1.3c-4-7.1,9.5-15.3,28.8,0.8
	c23.1,19.2,2.8,33.6-19.7,21.8c-50-26.3-26-74.7,23.7-51.3c16,7.5,24.5,22.3,17.6,40.4c-9.5,24.8,4.7,37.2,3.8,12.9
	c-0.7-20.1-7.3-36.9-37.9-47.8C120,26.3,132-4.7,157.1,2.6c2.4,0.7,2.1-1.2-1.8-2C128.9-4.7,118,27.2,175.1,52
	c21.3,9.3,30.8,19.3,30.2,40.7C204.8,111,200.7,101.6,204.9,83.2z M205.3,107.2c0.5,21.4-8.9,31.4-30.2,40.7
	c-57.1,24.9-46.1,56.8-19.8,51.4c3.9-0.8,4.2-2.7,1.8-2c-25.1,7.3-37.1-23.7,12-41.1c30.6-10.8,37.2-27.7,37.9-47.8
	c0.9-24.3-13.3-12-3.8,12.9c6.9,18.1-1.7,32.9-17.6,40.4c-49.7,23.4-73.7-25-23.7-51.3c22.5-11.8,42.8,2.6,19.7,21.8
	c-19.3,16-32.8,7.9-28.8,0.8c-1,4.7,5.1,4.1,7.1,1.3c2.5-3.5-3.3-7.2-7.6-3.2c-6.9,6.4,4.6,22.3,30,2.9
	c27.7-21.2-2.1-45.6-29.7-23.9c-49,38.6-0.2,80.5,40.7,51.4c14.3-10.2,16-26.2,11.7-44.9C200.7,98.3,204.8,89,205.3,107.2z
	 M212.8,92.7c-0.5-21.4,8.9-31.4,30.2-40.7c57.1-24.9,46.1-56.7,19.8-51.4c-3.9,0.8-4.2,2.7-1.8,2c25.1-7.3,37.1,23.7-12,41.1
	c-30.6,10.8-37.2,27.7-37.9,47.8c-0.9,24.3,13.3,12,3.8-12.9c-6.9-18.1,1.7-32.9,17.6-40.4c49.7-23.4,73.7,25,23.7,51.3
	c-22.5,11.8-42.8-2.6-19.7-21.8c19.3-16,32.8-7.9,28.8-0.8c1-4.7-5.1-4.1-7.1-1.3c-2.5,3.5,3.3,7.2,7.6,3.2c6.9-6.4-4.6-22.3-30-2.9
	c-27.7,21.2,2.1,45.6,29.7,23.9c49-38.6,0.2-80.5-40.7-51.4c-14.3,10.2-16,26.2-11.7,44.9C217.4,101.6,213.3,111,212.8,92.7z
	 M213.2,116.7c-4.3,18.7-2.6,34.7,11.7,44.9c40.9,29.1,89.7-12.8,40.7-51.4c-27.6-21.7-57.4,2.7-29.7,23.9
	c25.4,19.4,36.9,3.5,30-2.9c-4.4-4.1-10.2-0.3-7.6,3.2c2,2.7,8.1,3.4,7.1-1.3c4,7.1-9.5,15.3-28.8-0.8
	c-23.1-19.2-2.8-33.6,19.7-21.8c50,26.3,26,74.7-23.7,51.3c-16-7.5-24.5-22.3-17.6-40.4c9.5-24.8-4.7-37.2-3.8-12.9
	c0.7,20.1,7.3,36.9,37.9,47.8c49.1,17.4,37.1,48.4,12,41.1c-2.4-0.7-2.1,1.2,1.8,2c26.4,5.3,37.3-26.6-19.8-51.4
	c-21.3-9.3-30.8-19.3-30.2-40.7C213.3,89,217.4,98.3,213.2,116.7z"/><linearGradient id="SVGID_2_" gradientUnits="userSpaceOnUse" x1="-53" y1="-206" x2="147" y2="-6"><stop offset="0" style="stop-color:#FFF0"/><stop offset="0.4" style="stop-color:#FFFF"/><stop offset="0.6" style="stop-color:#FFFF"/><stop offset="1" style="stop-color:#FFF0"/><animate attributeName="x1" from="-53" to="1147" dur="4s" repeatCount="indefinite"/><animate attributeName="y1" from="-206" to="994" dur="4s" repeatCount="indefinite"/><animate attributeName="x2" from="47" to="1247" dur="4s" repeatCount="indefinite"/><animate attributeName="y2" from="-106" to="1094" dur="4s" repeatCount="indefinite"/></linearGradient><path fill="url(#SVGID_2_)" d="M204.9,83.2c4.3-18.7,2.6-34.7-11.7-44.9c-40.9-29.1-89.7,12.8-40.7,51.4c27.6,21.7,57.4-2.7,29.7-23.9
	c-25.4-19.4-36.9-3.5-30,2.9c4.4,4.1,10.2,0.3,7.6-3.2c-2-2.7-8.1-3.4-7.1,1.3c-4-7.1,9.5-15.3,28.8,0.8
	c23.1,19.2,2.8,33.6-19.7,21.8c-50-26.3-26-74.7,23.7-51.3c16,7.5,24.5,22.3,17.6,40.4c-9.5,24.8,4.7,37.2,3.8,12.9
	c-0.7-20.1-7.3-36.9-37.9-47.8C120,26.3,132-4.7,157.1,2.6c2.4,0.7,2.1-1.2-1.8-2C128.9-4.7,118,27.2,175.1,52
	c21.3,9.3,30.8,19.3,30.2,40.7C204.8,111,200.7,101.6,204.9,83.2z M205.3,107.2c0.5,21.4-8.9,31.4-30.2,40.7
	c-57.1,24.9-46.1,56.8-19.8,51.4c3.9-0.8,4.2-2.7,1.8-2c-25.1,7.3-37.1-23.7,12-41.1c30.6-10.8,37.2-27.7,37.9-47.8
	c0.9-24.3-13.3-12-3.8,12.9c6.9,18.1-1.7,32.9-17.6,40.4c-49.7,23.4-73.7-25-23.7-51.3c22.5-11.8,42.8,2.6,19.7,21.8
	c-19.3,16-32.8,7.9-28.8,0.8c-1,4.7,5.1,4.1,7.1,1.3c2.5-3.5-3.3-7.2-7.6-3.2c-6.9,6.4,4.6,22.3,30,2.9
	c27.7-21.2-2.1-45.6-29.7-23.9c-49,38.6-0.2,80.5,40.7,51.4c14.3-10.2,16-26.2,11.7-44.9C200.7,98.3,204.8,89,205.3,107.2z
	 M212.8,92.7c-0.5-21.4,8.9-31.4,30.2-40.7c57.1-24.9,46.1-56.7,19.8-51.4c-3.9,0.8-4.2,2.7-1.8,2c25.1-7.3,37.1,23.7-12,41.1
	c-30.6,10.8-37.2,27.7-37.9,47.8c-0.9,24.3,13.3,12,3.8-12.9c-6.9-18.1,1.7-32.9,17.6-40.4c49.7-23.4,73.7,25,23.7,51.3
	c-22.5,11.8-42.8-2.6-19.7-21.8c19.3-16,32.8-7.9,28.8-0.8c1-4.7-5.1-4.1-7.1-1.3c-2.5,3.5,3.3,7.2,7.6,3.2c6.9-6.4-4.6-22.3-30-2.9
	c-27.7,21.2,2.1,45.6,29.7,23.9c49-38.6,0.2-80.5-40.7-51.4c-14.3,10.2-16,26.2-11.7,44.9C217.4,101.6,213.3,111,212.8,92.7z
	 M213.2,116.7c-4.3,18.7-2.6,34.7,11.7,44.9c40.9,29.1,89.7-12.8,40.7-51.4c-27.6-21.7-57.4,2.7-29.7,23.9
	c25.4,19.4,36.9,3.5,30-2.9c-4.4-4.1-10.2-0.3-7.6,3.2c2,2.7,8.1,3.4,7.1-1.3c4,7.1-9.5,15.3-28.8-0.8
	c-23.1-19.2-2.8-33.6,19.7-21.8c50,26.3,26,74.7-23.7,51.3c-16-7.5-24.5-22.3-17.6-40.4c9.5-24.8-4.7-37.2-3.8-12.9
	c0.7,20.1,7.3,36.9,37.9,47.8c49.1,17.4,37.1,48.4,12,41.1c-2.4-0.7-2.1,1.2,1.8,2c26.4,5.3,37.3-26.6-19.8-51.4
	c-21.3-9.3-30.8-19.3-30.2-40.7C213.3,89,217.4,98.3,213.2,116.7z"/><path d="M1,225.3c15.5,1.1,10.3,12.5,4.3,8.5c-0.6-2.9-2.8-6.1-4.7-8.1 M17.3,222.3l0.9,0.3l0,0
	c-2.8,10.9-6.6,20.9-7.2,28.5c0.7,3.3,5.9,15.3-2.6,15.6c-7.6-1.2,2.7-17-6.7-16.8v-1.2c1.5-0.3,3.6,0.8,4.4-1.2 M5.5,211.6
	c16.3,1.5,10.9,13.5,4.6,9.2c-0.7-3.1-3-6.6-5-8.8 M50.9,258.6c0,4.4-1,6.9-8.3,7.5c-0.4-4.3-0.9-5.8-5.6-6.6v-0.8l4.8,0.3
	c2.8,0.1,2.3,0,2.3-5.5H27.2c-0.6,5-2.8,10.1-10.5,13.5l-0.5-0.5c5.4-6,4.6-11.4,4.6-30.8l7.7,2.7h15.1l3-3.5l0,0l6.8,5
	c-0.4,0.5-1.2,1-2.5,1.2 M20.8,226.8l-0.5-1.7H44l3.4-4.3l6,5c0,0.6-1.1,0.9-1.9,0.9 M38.3,232.3h8.4l3.6-4.6l6.5,5.4
	c-0.1,0.7-0.8,0.9-1.6,0.9H17.1l-0.5-1.7h14.9v-21.4l8.7,0.8c-0.1,0.8-0.5,1.3-2,1.5 M18.8,219.8l-0.5-1.7h26.8l3.6-4.6l6.5,5.3
	c-0.2,0.6-0.9,0.9-1.7,0.9 M44.1,251.7v-5H27.4c0,1.4,0,3.6-0.1,5 M44.1,245.1V240H27.4v5.1 M66.1,236.2l-0.5-1.7h45l3.5-4.4
	l6.3,5.2c-0.2,0.7-0.8,0.9-1.7,0.9 M87.9,229.3c10.7-1.8,10,5.7,3.1,6.5c0.4-1.8-1.8-5.1-3.5-6.1 M102,240.2l3.2-3.5l6.9,5.2
	c-0.4,0.4-1.2,0.9-2.4,1.2v7.8c-0.2,0.6-5.1,1.8-7.1,1.5v-2.1h-6.2v8c0,4,0,7.8-8.7,8.4c-0.3-4.4-0.8-5.6-5.7-6.5v-0.8
	c7.1,0.6,7.4,0.5,7.4-0.6v-8.5h-6.2c0,1.9-4.9,3-7,2.8v-15.7l7.4,2.8 M86.4,255.7c-0.2,0.6-0.7,1-2.1,0.8
	c-3.7,3.7-10.7,7.4-17.7,8.9l-0.4-0.7c4.6-2.9,10.1-8.7,12.2-12.8 M81.7,229v1.6c0,0.7-4.4,2.3-6.9,2v-20.9l7.3,2.9h21.6l3.2-3.5
	l6.8,5c-0.4,0.5-1.2,1.1-2.4,1.3v12.5c0,0.6-5,1.8-7,1.5V229 M104.3,220.9v-4.6H81.7v4.6 M104.3,227.3v-4.7H81.7v4.7 M102.6,248.6
	V242H83.2v6.6 M99.8,253.5L99.8,253.5c23.3,0.7,18,15.2,11.2,11.5c-1.4-2.8-5.6-7.4-11.4-10.7 M143.2,245.1l2.6,3.1c0,1.1-1.4,1-5,1
	 M137.6,240.1l5.8,0.7c-0.1,0.6-0.5,1.1-1.7,1.2l0,14.9l2.8-0.9l0.2,0.8l-6.7,7l-2.4-5.2c1.7-0.9,2-1.2,2-2.2 M151.4,244.9l2.8,3.5
	c-0.3,1.2-1.7,0.8-5.4,0.8 M145.6,240.3l5.8,0.6c-0.1,0.7-0.5,1.1-1.5,1.3V257l4.8-1.3l0,0.8l0,0L146,264l-2.4-5.2
	c1.7-0.8,2-1.2,2-2.3 M138.4,211.3c12.9-0.1,8.1,9.6,2.8,6.2c-0.4-2.1-2-4.5-3.3-5.9 M144.5,220.1h-2.3l-0.1,16.6h2.3 M136.3,227.8
	v8.9h2.2v-16.6h-2.2v6.1l13.6-0.1l2.1-2.3l4.5,3.4c-0.3,0.4-0.9,0.7-1.8,0.9v10.3c-0.1,0.6-3,1.5-4.4,1.3v-1.3h-14
	c0,8.9-0.2,19.7-7,27.2l-0.8-0.5c3-8.6,2.8-13.1,2.8-49l5.9,2.3h11.1l3-3.9l5.6,4.6c-0.2,0.8-1.1,0.9-2.7,0.9h-6l-0.1,16.7h2.1v-8.9
	 M166.5,211.4l8.1,0.8c-0.1,0.8-0.6,1.4-2.2,1.7v22.7c0,0.7-4,1.9-5.9,1.6 M154.9,235.7c1.9-2.6,4.1-7.1,5.2-10.4
	c9.6,3.3,9,4.2,5.6,3.4c-2.7,2.5-6.5,5.6-10.2,7.5 M155.8,224.6l-0.5-1.7l21.1,0.2l2.9-3.4l5.1,4.1c-0.4,0.5-0.7,0.9-2,0.9
	 M157.1,213c12.5,2.8,6.5,11.6,2,7.6c-0.1-2.5-1.2-5.5-2.6-7.2 M159.7,253.4c-0.5-1.8-2.3-4.6-4.4-5.2
	C164.6,246.1,165.4,255.6,159.7,253.4z M171.8,254.8h8l2-2.8c0,0,2.3,2.1,3.7,3.6c0,0.8-1.5,0.8-2.8,0.8h-11l-1.3,1.4l-4.5-2.5
	c0.4-0.4,0.8-0.7,1.4-1l1.8-10.8c-0.4,0.1-0.7,0.2-1.2,0.2c-1.6,8.9-5.2,17.6-14.6,22.9l-0.5-0.9c6.7-5.5,9.6-12.8,10.7-22.4h-3.1
	c-2,5.1-5.7,8.9-7,10.2l-0.9-0.5c2.5-4.6,4.6-11.3,5.5-18.1l6.5,1.6c-0.2,0.7-0.8,1.3-2.1,1.3c-0.4,1.2-0.8,2.5-1.2,3.7h1.9l2.5-2.6
	l3.4,2.8h11.3l1.7-2.5c0,0,2.2,1.9,3.5,3.4c-0.2,0.6-1.1,1-2.5,1h-9.3 M180.2,265.1c0,0.8-3.3,1.8-5,1.5V236l6.7,0.6
	c-0.1,0.7-0.6,1.1-1.7,1.3 M173.8,226.8c13.9,0.1,11.9,11.4,6.6,8.5c-1.5-2.4-4-5.7-7.1-7.8 M184,215.4c-0.3,0.7-1.1,1.1-2.3,1
	c-2.1,1.8-4.6,3.7-6.7,5l-0.9-0.5c0.8-2,1.9-5.3,2.8-8.4 M205.6,234.2c6.1,0,6.1,9.4,0,9.4S199.5,234.2,205.6,234.2z M272.7,239.5
	l3.4-3.5l6.2,5.8c-0.5,0.5-1,0.6-2.2,0.7c-2.1,1.8-5.6,4.3-8.1,5.7l-0.6-0.4c0.6-1.8,1.4-4.6,1.8-6.7h-38.7
	c1.8,13.1-14.6,8.5-5.8,1.7c1.8-1.1,3.9-3.9,3.6-6.7h0.8c0.5,1.2,0.8,2.3,1.1,3.4 M244.9,216.5v-5.8l7.6,0.7
	c-0.1,0.6-0.5,1.1-1.8,1.4v8.9c0,0.6-4,1.5-5.8,1.3v-4.9h-17.6l-0.5-1.6 M267,224.4l3.2-3.2l6.4,4.8c-0.4,0.4-1.1,0.9-2.3,1.1v8.2
	c-0.1,0.7-4.6,2.2-6.6,1.8V235h-27.4c0,2.3-3.2,3.1-6.4,3.1v-16.4l6.8,2.7 M245.5,226.1h-5.2v7.2h5.2 M247.3,257.2
	c-0.9-2.4-3.7-5.5-6.2-6.8C256.5,249,253.8,260.2,247.3,257.2z M248.7,247.9c-5.5,4-11.6,7-18.4,8.9l-0.4-0.6
	c7-3.8,13.6-10.3,16.4-15.7l9.7,2.3c-0.2,0.7-1,1.1-2.9,1.1c-0.7,0.8-1.5,1.5-2.4,2.3h10.9l3.5-3.4l6.6,5.4
	c-0.5,0.5-1.4,0.8-2.9,0.8c-7.8,10.1-19.4,15.6-39.1,17.5l-0.4-0.8C245,262,256.6,255.2,261,248 M256.6,226.1h-5.3v7.2h5.3
	 M263.4,218l0,3.3c0,0.6-4,1.5-5.8,1.3v-11.9l7.6,0.7c-0.1,0.6-0.5,1.1-1.8,1.3v3.7h9.3l3.4-4.7c0,0,4,3.2,6.2,5.4
	c-0.3,1-2.7,0.9-4.8,0.9 M267.6,226.1h-5.2v7.2h5.2 M315.7,218c-0.3,0.7-1.1,1.2-2.5,1.1c-5.2,11.3-12.6,18.9-21.5,23.7l-0.6-0.5
	c6-6.3,12-16.7,15-27.9 M322.5,235.6c-0.3,0.6-1,1.2-2.3,1.1c-4,6.7-11.9,15.7-18.8,21.3c7.5-0.2,19-1,30.6-2
	c-1.8-4.3-4.2-8.6-6.7-12l0.8-0.4l0,0c22.9,10.3,16.6,28.2,8.5,21.5c-0.3-2.4-0.9-4.9-1.8-7.4c-7.8,2.3-18.5,5-31.6,7.4
	c-0.6,0.8-1.3,1.4-2.1,1.6l-3-9.1c7.3-2.6,13.4-17.9,16.3-25.9 M318,215.8l-0.5-1.7h5.8l2.3-3.7l6.1,4.3c-0.8,0.9-2.9,1.4-5.3,1.6
	c2.7,8.5,9.8,15.9,19.8,19.4l-0.1,0.7c-3,1.1-5.5,3.9-6.3,6.8c-8.4-5.9-13-15.2-14.9-27.4 M407.1,264.1c0,0.7-4.6,2.6-7,2.3v-4.5
	h-35.5c0.8,3.5-2.5,5-6.9,4.9v-54.4l7.5,3.1h34.3l3.4-3.8l6.6,5.2c-0.4,0.5-1.2,1-2.4,1.3 M400,217h-35.5v43.3H400 M389.3,234.7
	l2.6-2.7l5.5,4c-0.3,0.4-0.9,0.7-1.7,0.9v5.7c0,1.9-4.4,2.4-5.8,2.3v-1.2h-6.1c-1.4,1.4-3,2.6-4.8,3.7v6.2l7.3-2.1l0.2,0.8
	c-2,1.6-8.1,4.9-12.1,8.1l-3.2-4.9c2.5-1.4,2.1-2.3,2.1-5.4c-2.5,1.1-5.2,2-7.9,2.7l-0.5-1c4.8-2.1,9-5,11.9-8.2H375
	c0,1-3.6,2-5.7,1.8v-13.1l5.9,2.4 M399.1,247.1c-0.4,0.5-0.9,0.6-1.9,0.2c-1.2,0.5-6.5,2.6-8.8,2.6l6.1-6.7 M382.5,245.9
	c21.8,4.9,16.6,14.7,12.3,12.1c-1.7-2.8-6.5-7.5-12.7-11.3 M368.4,225.1l-0.5-1.7h21.4l2.9-3.4c0,0,3.3,2.4,5.3,4.2
	c0,0.6-1.6,0.9-3.3,0.9 M385.2,229.4h5.9l3.2-3.6l0,0c0,0,3.4,2.6,5.5,4.4c0,0.8-3.1,0.9-7,0.9h-27l-0.5-1.7h13.8v-11.2l7.9,0.7
	c-0.1,0.7-0.5,1.2-1.7,1.4 M389.7,242v-5.5h-14.8v5.5 M92.8,283.9c8.3-0.5,19.4,0.6,19.4,12.5c0,11.6-9.7,13.6-19.4,12.8
	 M95.9,306.3L95.9,306.3c9.5,0,13.2-3.8,13.2-9.8s-3.6-9.8-13.2-9.8 M277.4,283.9c10-0.6,12.7,1.4,13.7,5.8c0.9,4.2-2,8.1-5.9,8.4
	l8,11h-3.8l-7.5-10.7h-1.3v10.7h-3.2 M280.6,295.9c6.1,0,7.7-1.6,7.7-4.6c0-2.6-1.3-4.6-7.7-4.6 M140.3,283.9h13.6v2.9h-10.4v7.1
	h10.1v2.9h-10.1v9.6h10.4v2.9h-13.6 M259.8,282.8l12.1,26.4h-3.4l-2.9-6.4H254l-2.9,6.4h-3.4 M255.3,300h9l-4.5-10.2 M118.7,283.9
	c10-0.6,12.7,1.4,13.7,5.8c0.9,4.2-2,8.1-5.9,8.4l8,11h-3.8l-7.5-10.7h-1.3v10.7h-3.2 M121.9,295.9c6.1,0,7.7-1.6,7.7-4.6
	c0-2.6-1.3-4.6-7.7-4.6 M170.6,282.8l12.1,26.4h-3.4l-2.9-6.4h-11.6l-2.9,6.4h-3.4 M166.1,300h9l-4.5-10.2 M191.3,282.8l8.7,20
	l8.7-20l5.2,26.4h-3.3l-3-16.7l-7.6,17.3l-7.6-17.3l-3,16.7h-3.3 M233.1,283.9c2,0,13.8-1.7,13.8,6.9c0,7.4-5.7,7.8-10.7,7.8v10.6
	H233 M236.3,295.8c10.3,1.3,10.7-10.3,0-9.1 M299,283.9h3.2v11l10.8-11h4.1l-11.4,11.4l11.6,13.9H313l-9.5-11.8l-1.3,1.2v10.6H299"/></svg>