<svg width="539" height="150" viewBox="0 0 539 150" fill="none" xmlns="http://www.w3.org/2000/svg">
<g filter="url(#filter0_d_1_683)">
<path d="M10.1834 99.0789L30.5743 35.7488L31.648 36.2808L28.9588 49.6974H38.0805V52.9186H78.8722V50.7711H88.5357V85.1204H78.8722V81.8993H38.0904V85.1204H28.4269V50.7711L15.0102 107.659C20.0144 115.529 22.7036 119.824 23.0582 120.543C21.2654 125.912 19.3051 130.384 17.1577 133.96C12.8628 123.577 8.38072 108.92 3.74105 89.9473L4.28284 89.4153C5.70134 91.5628 7.67147 94.784 10.1834 99.0789ZM18.7633 56.1397C17.3251 60.7991 15.5422 64.7295 13.3947 67.9507C9.80907 60.4346 6.59775 50.5938 3.7312 38.4282C7.67147 41.6494 12.6756 47.55 18.7633 56.1397ZM21.9845 36.8127C18.4087 30.0157 14.8231 20.3621 11.2473 7.83202C19.118 14.9935 24.3093 20.3621 26.8113 23.9379C25.383 29.6611 23.7773 33.956 21.9845 36.8127ZM81.0295 86.1942C80.665 98.3598 75.1289 108.92 64.3917 117.864C72.2624 122.159 81.3841 124.484 91.7667 124.838C89.6193 128.769 88.5455 133.064 88.5455 137.723C75.6609 134.502 65.1009 129.311 56.8756 122.159C49.3595 127.163 39.5187 132.354 27.3531 137.723H21.9845C33.0764 131.99 43.4491 125.557 53.1127 118.396C47.744 110.525 43.8038 102.29 41.3017 93.7102H31.6382V89.4153H69.2087V86.1942H81.0295ZM45.0647 46.4762H35.4011V5.68457H45.0647V9.97947H71.8979V5.68457H81.5614V46.4762H71.8979V43.2551H45.0647V46.4762ZM38.0904 58.2872V76.5405H45.6064V58.2872H38.0904ZM59.0231 113.027C64.3917 106.95 67.7902 100.507 69.2185 93.7004H42.3853C47.7539 101.945 53.29 108.388 59.0231 113.027ZM45.0647 29.3065V37.8963H71.8979V15.3481H45.0647V23.9379H67.603V29.3065H45.0647ZM54.7282 58.2872V76.5405H62.2442V58.2872H54.7282ZM71.366 58.2872V76.5405H78.882V58.2872H71.366Z" fill="white"/>
<path d="M122.629 70.6298C119.408 59.5478 116.364 47.7368 113.507 35.2068L114.039 34.665C116.896 38.2408 121.91 44.6831 129.071 53.992C126.559 62.5818 124.412 68.1277 122.629 70.6298ZM166.1 18.569H143.562V17.4952C160.377 13.9194 175.045 10.1663 187.575 6.22607C188.284 6.59054 191.682 9.81171 197.77 15.8896V16.4215C195.977 16.786 191.869 17.1406 185.427 17.4952C181.487 17.8597 178.63 18.0272 176.837 18.0272V45.4022H202.597V50.7708H176.837V57.2132C176.837 65.4484 172.897 72.9644 165.026 79.7515H183.812V74.3829H194.549V135.565H183.812V126.976H158.052V135.565H147.315V74.3829H158.052V79.7515H163.953C165.381 75.8211 166.1 71.8808 166.1 67.9406V50.7708H141.414L127.998 107.659C132.647 116.967 135.149 122.326 135.514 123.764C133.366 128.059 130.5 131.812 126.924 135.034C122.984 120.356 119.053 104.437 115.113 87.2676H115.655C116.009 87.9867 116.729 89.4151 117.802 91.5625C119.95 95.1383 121.378 97.4631 122.097 98.5368L145.177 28.7644L146.783 29.2964L142.488 45.4022H166.1V18.569ZM133.356 37.8861C131.918 35.0295 128.53 26.617 123.161 12.6586C121.723 9.43739 120.826 7.11263 120.472 5.68428L121.545 5.15234C124.767 8.72814 130.49 14.6385 138.725 22.8639C136.223 31.8083 134.43 36.8124 133.356 37.8861ZM158.052 85.1202V121.617H183.812V85.1202H158.052Z" fill="white"/>
<path d="M335.916 70.0977C348.436 51.4996 354.878 29.6705 355.233 4.6202H369.191C367.399 17.8595 363.468 30.7442 357.38 43.2644H361.675V136.649H350.938V52.9181C349.5 55.7846 346.643 60.0795 342.348 65.8028C340.91 67.5956 339.846 69.0239 339.127 70.0977H335.916ZM364.896 48.6232L386.903 47.0175V4.61035H397.64V46.4757L427.163 44.3283V50.7706L397.64 52.9181C397.995 84.0462 404.969 105.698 418.573 117.864L423.941 92.636H425.547L423.941 116.79C424.296 117.509 425.547 118.396 427.695 119.479V136.649C400.861 127.704 387.258 99.9748 386.903 53.4599L364.896 55.0655V48.6232ZM419.637 25.0111C417.844 30.3797 415.342 34.6746 412.121 37.8958C407.461 27.8875 404.25 19.1106 402.467 11.5945L402.999 11.0625C411.234 16.4213 416.77 21.0807 419.637 25.0111Z" fill="white"/>
<path d="M232.159 122.779H221.53V22.8242H232.159V29.2075H244.915V22.8242H255.544V116.396H244.915V110.013H232.159V122.779ZM232.159 104.693H244.915V34.517H232.159V63.2317H241.734V68.5511H232.159V104.693Z" fill="white"/>
<path d="M259.258 22.6079H282.151V4H292.642V22.6079H315.111V28.4592H292.642V50.2588H322.726V56.1101H257.219V50.2588H282.151V28.4592H259.258V22.6079ZM257.347 76.304H297.38V60.3557H307.871V76.304H321.031V82.1553H307.871V119.903C308.147 128.05 302.552 133.546 292.681 136.383C292.681 134.965 291.972 134.433 290.563 134.787L283.372 135.851L282.949 133.724C293.952 131.241 298.227 126.986 297.38 120.967V82.1553H257.347V76.304ZM285.835 102.891C284.141 108.21 280.979 112.111 279.57 114.584H279.146C275.196 106.073 271.955 97.2268 269.414 87.9967L269.837 87.4648C272.379 89.9472 276.703 92.9812 281.786 98.6453C283.195 100.074 285.264 102.182 285.835 102.891Z" fill="white"/>
<path d="M445.16 129.764V127.291C490.759 87.2878 504.422 64.9071 504.422 39.5514C504.422 21.6134 497.014 10.0881 483.026 10.0881C469.196 10.0881 461.463 22.7659 452.41 40.044L450.765 39.384L455.04 12.0582C460.97 9.75314 470.348 6.78809 483.351 6.78809C511.504 6.78809 523.512 20.6184 523.512 39.0491C523.512 63.2522 503.102 84.6479 464.418 113.284H495.861C510.844 113.284 518.084 107.029 525.492 98.9609L526.812 99.4534L517.592 129.744H445.16V129.764Z" fill="white"/>
</g>
<defs>
<filter id="filter0_d_1_683" x="0.599043" y="0.867842" width="537.698" height="148.339" filterUnits="userSpaceOnUse" color-interpolation-filters="sRGB">
<feFlood flood-opacity="0" result="BackgroundImageFix"/>
<feColorMatrix in="SourceAlpha" type="matrix" values="0 0 0 0 0 0 0 0 0 0 0 0 0 0 0 0 0 0 127 0" result="hardAlpha"/>
<feOffset dx="4.17621" dy="4.17621"/>
<feGaussianBlur stdDeviation="3.65418"/>
<feComposite in2="hardAlpha" operator="out"/>
<feColorMatrix type="matrix" values="0 0 0 0 0.408333 0 0 0 0 0.24711 0 0 0 0 0.0578472 0 0 0 0.3 0"/>
<feBlend mode="normal" in2="BackgroundImageFix" result="effect1_dropShadow_1_683"/>
<feBlend mode="normal" in="SourceGraphic" in2="effect1_dropShadow_1_683" result="shape"/>
</filter>
</defs>
</svg>
