<svg width="847" height="319" viewBox="0 0 847 319" fill="none" xmlns="http://www.w3.org/2000/svg">
<path d="M327.29 0V25.75L333.62 40.34L330.45 128.77L336.99 141.39V192.69H347.12V150.29L340.16 126.7V0H327.29Z" fill="white"/>
<path d="M392.48 23.89V0H385.23V26.69L381.09 36.97V0H374.84V192.69H379.9V156.9H384.02V192.69H389.4V129.18L392.49 125.2V90.76L389.09 79.59V31.49L392.49 23.89H392.48ZM381.08 98.44V58.39L384.01 63.72V100.19L381.08 98.45V98.44Z" fill="white"/>
<path d="M401.77 0V174.38H398.63V192.69H410.56V168.08H405.81V142.94L410.56 139.84V77.57L405.7 69.14V26.06L410.56 15.51V0H401.77Z" fill="white"/>
<path d="M442.4 0V12.88H453.01V192.69H456.75V181.52L460.23 177.07V125.05L456.22 119.15V32.06L460.23 24.72V0H442.4Z" fill="white"/>
<path d="M473.08 0V192.69H482.69V181.42H476.72V125.88L479.63 118.22V85.74L476.25 80.16V22.19L480.84 14.12V0H473.08Z" fill="white"/>
<path d="M494.63 0V7.96H492.94V35.27L489.46 39.51V73.02L492.04 78.3V192.69H497.69V92.78H499.48V12.52H501.06V0H494.63Z" fill="white"/>
<path d="M515.37 57.71V20.48L513.22 14.58V0H509.25V114.5L505.88 121.64V164.87H509.25V192.69H516.74L520.57 159.65V86.88L515.37 57.71Z" fill="white"/>
<path d="M433.28 96.35V0H421.35V15.51H423.15V74.78H424.99V107.21H421.35V145.22H424.99V168.33H421.35V192.69H442.4V134.51L433.28 96.35Z" fill="white"/>
<path d="M362.95 56.63V18.77L359.68 12.26V0H347.12V22.86L357.04 59.89V192.69H362.95V161.04L360.74 157.43V67.74L362.95 56.63Z" fill="white"/>
<path d="M9.60999 282.94V289.1C10.09 298.34 13.11 303.41 18.67 304.32C24.35 305.71 31.41 306.4 39.87 306.4C53.46 306.22 64.72 305.64 73.66 304.68V313.29C67.26 314.38 55.84 314.92 39.41 314.92C27.75 314.92 19.9 314.16 15.85 312.66C5.93999 310.42 0.98999 302.97 0.98999 290.28C0.98999 273.07 1.22999 256.15 1.70999 239.54H54C59.62 240.45 63.84 242.77 66.68 246.52C69.64 250.02 71.12 254.83 71.12 260.93C71.12 267.03 69.61 272.11 66.59 276.33C63.15 280.5 59.22 282.67 54.81 282.85L9.59999 282.94H9.60999ZM10.7 247.42C10.28 257.02 9.93999 266.08 9.69999 274.6H30.9V247.42H10.69H10.7ZM39.87 247.42V274.6H52.64C58.5 273.51 61.43 268.74 61.43 260.28C61.43 252.85 58.38 248.56 52.28 247.41H39.87V247.42Z" fill="white"/>
<path d="M85.03 242.35H118.64V235.19H127.79V242.35H161.13V251.14H127.79V259.11H143.37C148.2 259.53 151.92 261.13 154.51 263.91C157.23 266.33 158.65 269.8 158.77 274.33C158.77 279.22 157.5 282.97 154.96 285.56C151.94 288.82 148.29 290.51 144 290.63H137.57V299.87C138.05 304.64 140.2 307.03 144 307.03C153.66 307.03 159.89 306.82 162.66 306.4V314.83C160.18 315.25 153.21 315.46 141.73 315.46C133.51 314.86 129.14 309.96 128.59 300.78V290.63H116.09C113.49 304.04 103.16 313.04 85.1 317.63V308.12C97.3 305.04 104.55 299.21 106.84 290.63H90.89V259.1H118.61V251.13H85V242.34L85.03 242.35ZM99.62 282.76L141.3 282.67C146.92 282.43 149.88 279.71 150.18 274.52C149.88 270.05 147.46 267.54 142.93 267H99.62V282.76V282.76Z" fill="white"/>
<path d="M182.2 235.01H191.35V241.71H194.43C196.91 242.07 198.9 243.1 200.41 244.79C201.74 246.6 202.4 248.54 202.4 250.59C202.4 256.63 199.29 262.91 193.07 269.44C196.21 271.13 199.23 273.25 202.13 275.78V286.38C198.2 283 194.37 280.1 190.62 277.68V316.91H181.92V279.31C178.66 281.79 175.09 284.26 171.23 286.74V275.78C185.36 266.06 192.67 258.63 193.16 253.49C193.16 251.44 192.22 250.29 190.35 250.05H171.78V241.71H182.2V235.01V235.01ZM211.46 302.69H219.07C219.31 304.14 219.58 305.65 219.89 307.22H234.21C234.69 305.59 235.06 304.02 235.3 302.51H242.55C242.43 304.26 242.16 305.83 241.73 307.22H249.34V315.01H204.04V307.22H212.1C211.86 305.65 211.65 304.14 211.47 302.69H211.46ZM204.57 271.89H249.51V279.5H204.57V271.89ZM228.94 240V235.56H235.92V240C239.97 240.24 243.08 241.66 245.25 244.26C247.79 246.8 249.15 250.12 249.33 254.23C249.33 258.64 248.12 262.05 245.71 264.47C243.17 267.37 239.73 268.91 235.38 269.09H205.66V240.01H217.8V235.57H224.78V240.01H228.95L228.94 240ZM237.73 282.4C240.87 282.4 243.59 283.25 245.88 284.94C247.75 286.51 248.69 288.62 248.69 291.28C248.69 293.94 247.63 296.08 245.52 297.89C243.35 299.52 240.66 300.4 237.46 300.52H206.47V282.4H237.73ZM213.36 251.05H217.8V246.7H213.36V251.05ZM213.36 262.19H217.8V257.66H213.36V262.19ZM214.08 293.99H236.46C239.42 293.81 240.9 292.87 240.9 291.18C240.9 289.73 239.33 288.82 236.19 288.46H214.08V293.99V293.99ZM224.77 246.7V251.05H228.94V246.7H224.77ZM224.77 257.66V262.19H228.94V257.66H224.77ZM235.91 246.88V251.05H240.98C240.13 248.76 238.44 247.37 235.91 246.88ZM235.91 257.66V262.01C238.63 261.53 240.32 260.08 240.98 257.66H235.91Z" fill="white"/>
<path d="M565.2 288.72V316.45H548.22V234.98H577.55C587.6 234.98 595.24 237.13 600.45 241.44C605.67 245.75 608.27 252.05 608.27 260.33C608.27 268.61 605.39 275.87 599.62 281.01C593.86 286.15 586.34 288.71 577.08 288.71H565.19L565.2 288.72ZM565.1 247.8V275.8H569.63C578.14 275.8 583.77 274.57 586.54 272.1C589.3 269.63 590.68 265.84 590.68 260.72C590.68 256.5 589.35 253.3 586.69 251.1C584.03 248.9 578.77 247.8 570.92 247.8H565.1V247.8Z" fill="white"/>
<path d="M765.57 316.46H744.57L721.82 285.59H711.01V316.46H694.03V234.99H723.72C734.49 234.99 742.26 237 747.01 241.02C751.76 245.04 754.14 250.49 754.14 257.37C754.14 268.15 748.98 276.13 738.65 281.32L765.57 316.46ZM710.92 247.8V273.15H718.54C725.85 273.15 730.69 271.87 733.05 269.31C735.42 266.75 736.6 263.4 736.6 259.25C736.6 255.57 735.47 252.74 733.2 250.76C730.94 248.78 726.48 247.79 719.82 247.79H710.92V247.8Z" fill="white"/>
<path d="M846.86 316.46H825.86L800.33 282.73L794.57 289.6V316.47H777.69V235H794.67V273.71L825.6 235H845.36L813.66 272.84L846.85 316.47L846.86 316.46Z" fill="white"/>
<path d="M652.87 234.98H634.03L604.75 316.45H621.94L627.81 298.77L627.91 298.46C632.37 296.5 637.58 295.37 643.05 295.37C648.52 295.37 653.77 296.49 658.23 298.45L658.39 298.96L664.19 316.45H682.15L652.87 234.98ZM643.09 253.25L653.97 285.87C650.78 284.86 647.01 284.28 643.09 284.28C639.17 284.28 635.4 284.88 632.21 285.89L643.09 253.25V253.25Z" fill="white"/>
<path d="M667.1 285.88L667.19 286.13L667.1 285.88Z" fill="black"/>
<path d="M434.94 316.51H418.57L383.78 256.77V316.51H368.03V235.04H388.62L419.19 287.7V235.04H434.94V316.51V316.51Z" fill="white"/>
<path d="M505.29 316.51H451.25V235.04H505.29V248.56H468.13V265.97H502.66V279.43H468.13V303H505.29V316.52V316.51Z" fill="white"/>
<path d="M355.28 259.28C353.52 253.08 350.63 247.79 346.58 243.42C339.43 235.71 329.59 231.86 317.04 231.86C304.49 231.86 294.61 235.71 287.5 243.4C283.43 247.81 280.53 253.17 278.79 259.47V290.71C280.54 297.01 283.46 302.37 287.56 306.78C294.71 314.47 304.53 318.32 317.05 318.32C329.57 318.32 339.54 314.46 346.65 306.73C350.67 302.36 353.55 297.1 355.3 290.94V259.28H355.28ZM332.59 297.31C328.73 302.58 323.57 305.21 317.1 305.21C310.63 305.21 305.41 302.59 301.55 297.36C297.69 292.13 295.77 284.72 295.77 275.14C295.77 265.56 297.7 258.09 301.55 252.84C305.4 247.59 310.59 244.97 317.1 244.97C323.61 244.97 328.78 247.6 332.62 252.84C336.46 258.09 338.38 265.51 338.38 275.09C338.38 284.67 336.45 292.04 332.6 297.31H332.59Z" fill="white"/>
</svg>
