<svg width="579" height="125" viewBox="0 0 579 125" fill="#FFF" xmlns="http://www.w3.org/2000/svg">
<path d="M351.8,117.7c0,2.3-0.1,2.8-2.8,3v1.4h10.8v-1.4c-2.9-0.2-3.1-0.6-3.1-2.9V98.1h-2.8L342,113.9v1.6h18.2v-2.2
	h-15.5l7-9.9L351.8,117.7z M367.9,108.3c16.4-6,16.6,14.3,1.5,14.3c-7.8,0-5.2-6.9-1.5-3.9c9,7.5,12.4-12.6-2.1-8.2l-0.2-0.2
	l2.2-11.9h11.7l0.2,0.4l-1.2,3.8H369L367.9,108.3z M396,114.8h-9.6l0.3-3h9.6L396,114.8z M410,122.6c-13.2,0-11.9-23.6,7.4-24.9
	l0.2,1.5c-4.6,1.3-8.4,2.5-10.4,9.2C420.5,100.7,423.7,122.6,410,122.6z M407,109.9c-1,4-0.1,11,3.9,11
	C415.5,121,415,106.9,407,109.9z M436.9,102.5h-8c-2.6,0-2.9,0.3-4,2.6h-1.5l1-6.7h15.8l0.3,0.6l0,0l-11,23.2l-3.7,0.5l-0.3-0.5
	L436.9,102.5z M451.7,114.8c1.1-0.3,2.4-0.7,3.6-1l0.1,0.3c-1.7,1.6-4.4,3.9-8.5,6.7c-0.1,0.4-0.4,0.8-0.8,0.9l-2.1-4.8
	c0.8-0.2,2-0.5,3.5-0.9v-9.5h-2.9l-0.2-0.8h3.2v-8.2L453,98c-0.1,0.4-0.3,0.8-1.1,0.9v6.4l1.4-2.5c0,0,1.9,2.1,2.8,3.3
	c-0.1,0.3-0.4,0.5-0.8,0.5h-3.4L451.7,114.8L451.7,114.8z M467.3,112.3l2.2-3.1l0,0c0,0,2.6,2.1,4.1,3.4c-0.1,0.3-0.4,0.5-0.9,0.5
	h-19.3l-0.2-0.8H467.3z M465.3,124.2c0.2,0.4-2.7,1.4-4.4,1.2v-25.2h-6.5l-0.2-0.8H467l2.1-2.9c0,0,2.4,1.9,3.8,3.2
	c-0.1,0.3-0.4,0.5-0.9,0.5h-6.7V124.2z M455.7,101.9c8.1,4.5,4,11.5,0.7,7.9c0.2-2.6-0.4-5.5-1.1-7.8L455.7,101.9z M465.8,110.6
	c0.6-2.3,1.2-5.9,1.6-9l5.5,1.6c-0.1,0.4-0.5,0.7-1.2,0.7c-1.5,2.7-3.4,5.2-5.4,6.9L465.8,110.6L465.8,110.6z M484,104.9
	c-0.1,0.3-0.4,0.5-0.9,0.6v18.4c0,0.4-2.8,1.4-4.1,1.2V110c-0.8,0.9-1.6,1.7-2.4,2.4l-0.3-0.2c1.9-4,3.6-10.1,4.3-15.8l5.8,1.7
	c-0.1,0.4-0.5,0.6-1.2,0.6c-0.7,2.1-1.5,4.1-2.4,5.8L484,104.9L484,104.9z M504.5,99.5c-0.2,0.4-0.6,0.8-1.4,0.8
	c-0.9,3-2.4,6.7-4.1,10.1c9.5,7.9,6.4,17.7,2,13.4c0-1.1-0.1-2.2-0.3-3.4c-1.6,0.8-3.6,1.6-5.9,2.6c-0.3,0.6-0.6,1-1.1,1.2l-2.3-5.1
	c0,0,1.1-0.4,1.4-0.9c0.4-0.9,1-2.3,1.6-4c-0.6,0.6-1.6,0.6-2.5-0.3c0-1.4-0.4-2.9-0.8-4.2v14.2c0.2,0.4-2.4,1.4-3.9,1.1v-9.7
	c-1.1,1.6-2.3,3.1-3.7,4.4l-0.3-0.3c1.7-3.3,2.8-8,3.4-12.2h-2.3l-0.2-0.8h3.1v-5.2c-0.9,0.1-1.9,0.1-2.8,0.2l-0.1-0.3
	c2.7-1.2,6.1-3.3,7.9-4.7l4.3,3.9c-0.4,0.3-1.1,0.4-2.1,0c-0.9,0.2-2,0.4-3.2,0.6v5.6h0.5l1.6-2.4c0,0,1.8,1.6,2.8,2.7
	c-0.1,0.3-0.4,0.5-0.8,0.5h-4.2v1.1c2.7,1.2,3.8,2.7,3.9,3.9c1.4-4.6,2.8-10.6,3.1-14.7L504.5,99.5L504.5,99.5z M500.5,118.8
	c-0.5-2.5-1.2-5.1-1.9-7.4c-1.5,2.9-3,5.6-4.5,7.7C495.7,119,498,119,500.5,118.8L500.5,118.8z M532.3,100.9l2.2-2.2l3.7,3.6l0,0
	c-0.2,0.3-0.5,0.4-1.2,0.4c-1.2,1.2-3.2,2.9-4.8,3.8l-0.2-0.2c0.2-1.3,0.5-3.1,0.6-4.5h-19.4c0.3,2.3-0.5,4-1.6,4.7
	c-1.1,0.8-2.9,0.3-3.4-1.1c-0.4-1.3,0.3-2.3,1.5-2.9c1.1-0.6,2.4-2,2.4-3.5h0.4c0.3,0.6,0.5,1.3,0.6,1.8L532.3,100.9z M520.8,100.5
	c0.2-1.6-0.3-3.2-1.2-4.2l0.2-0.2C529.6,95.8,525.2,104.2,520.8,100.5z M523.8,119.3c0,1.1,1.4,0.8,5.1,0.8c4.3,0,3.5,0.5,5.7-4.9
	h0.3l0.1,4.5c2.6,0.5,2.8,4.5-3.6,4.5c-9.2,0-12,0.9-12-3.8v-12.2c-2.7,0.2-5.4,0.3-8,0.3l-0.1-0.4c5.8-1.1,12.9-3.2,16.4-5l4,3.8
	c-0.4,0.3-1.1,0.4-2.1,0c-1.7,0.4-3.7,0.7-5.9,0.9L523.8,119.3z M509.7,114l-0.2-0.9h19.9l2.3-3.1c0,0,2.6,2,4.2,3.4
	c-0.1,0.3-0.4,0.5-0.9,0.5L509.7,114z M69.2,99c-0.2,0.3-0.6,0.5-1.2,0.7v21.8c0,0.5-3.2,1.6-4.8,1.4v-2.8H52.5v1.4
	c0,0.7-2.8,1.9-4.6,1.7v-27l4.9,1.9H63l2.1-2.4L69.2,99z M52.5,99v9.5h10.8V99H52.5z M63.3,119.2v-9.9H52.5v9.9H63.3z M92.1,102.6
	c2.5,5.4,7.2,9.4,11.9,11.4l-0.1,0.3c-1.7,0.4-3.2,1.8-3.8,3.9c-4.4-3.3-6.9-8.3-8.4-15.4v12.4l1.9-2.9c0,0,2.3,2.1,3.6,3.4
	c-0.1,0.3-0.4,0.5-0.8,0.5h-4.7v5.9c0,0.6-3,1.4-4.5,1.2v-7.1H82l-0.2-0.8h5.4v-6.2c-2.7,4.1-6.6,7.4-11.7,9.8l-0.3-0.2
	c4.7-3.9,8.1-10.2,9.6-16h-8.1l-0.2-0.8h10.8v-7.1l5.7,0.4c-0.1,0.5-0.3,0.9-1.3,1v5.5h4.8l2.4-3.3c0,0,2.7,2.2,4.2,3.6
	c-0.1,0.3-0.4,0.5-0.9,0.5C102.2,102.6,92.1,102.6,92.1,102.6z M124.6,99.5l0.2-0.2l0,0c13.3,2.5,10.7,11.8,6.1,9.1
	C129.6,105.2,127.3,102,124.6,99.5z M133.2,104c-6.6,1.8-14.4,3.2-22.1,4.5c-0.4,0.4-0.8,0.6-1.1,0.8l-1.3-4.9
	c3.7-0.7,8.3-6.4,9.9-9.7l5.9,2.2c-0.1,0.3-0.5,0.6-1.2,0.6c-2.3,2.3-6.7,5.2-10.5,6.9C116.6,104.4,127,104.2,133.2,104z
	 M128.3,108.6l4.3,3.3c-0.2,0.3-0.6,0.6-1.4,0.8v9.3c0,0.5-3.3,1.3-4.6,1.1v-2.6h-10.2v1.3c0,0.7-2.9,1.7-4.6,1.5v-14.2l4.8,1.8h9.7
	L128.3,108.6L128.3,108.6z M126.6,119.6v-7.8h-10.2v7.8H126.6z M139.4,100.1l-0.2-0.8h21.4l2.4-3c0,0,2.7,2,4.3,3.3
	c-0.1,0.3-0.4,0.5-0.9,0.5H139.4z M155.5,104.1h5.1l2-2.2l4,3.1c-0.2,0.2-0.5,0.5-1.2,0.6v13.1c0,2.8-0.7,4.3-5.4,4.7
	c-0.2-2.8-0.5-3.7-3.5-4.4v-0.4c0,0,3,0.2,3.9,0.2c0.5,0,0.6-0.2,0.6-0.6v-13.4h-15v16.9c0,0.6-2.8,1.7-4.4,1.5v-20.9l4.7,1.8h4.8
	v-9.4l5.5,0.4c-0.1,0.4-0.2,0.7-1.1,0.9V104.1z M156.1,110.5l1.6-1.9c0,0,1.8,1.3,2.9,2.3c-0.1,0.3-0.4,0.5-0.8,0.5h-4.6v3.5h0.4
	l1.8-2.2c0,0,2,1.5,3.2,2.6c-0.1,0.3-0.4,0.5-0.8,0.5h-4.6l0,0v5.7c0,0.4-2.6,1-4.2,0.8v-6.5h-4.5l-0.2-0.8h4.7v-3.5h-3.9l-0.2-0.8
	h9.2V110.5z M153.5,111.2c0.4-1.6,1-4.5,1.2-6.1l4.6,1.3c-0.1,0.4-0.5,0.6-1.1,0.6C157.2,108,154.2,111.2,153.5,111.2z M147.8,105.4
	c7.8,1.2,4,7,1,4.4c0-1.5-0.6-3.2-1.3-4.2L147.8,105.4z M177.6,105.9c3.9,0,3.9,5.8,0,5.8C173.8,111.7,173.8,105.9,177.6,105.9z
	 M200.3,98.5c0,0.8-0.8,0.6-1.1,0.6c-1.1,1.9-3,4.9-4.8,6.8c6.2,2.9,7.1,13,0.1,12.5c0-3,0-4.4-3.6-4.6h3.5l0,0
	c2.4,0,0.8-6.1-0.8-7.9c0.4-2,1-5.6,1.2-8h-1.9v24.2c0,0.6-2.3,1.5-4,1.3V95.5l4.4,1.6h1.2l2.1-2L200.3,98.5z M199.8,95.4l4.5,1.7h5
	l1.9-2L215,98c-0.2,0.2-0.5,0.5-1.2,0.6v10c0,0.2-1.1,0.7-2.2,1l3.9,2.8l0,0c-0.2,0.3-0.6,0.4-1.2,0.2c-1,0.5-3,1.1-5,1.5
	c2,2.3,4.5,4,7.4,4.8l-0.1,0.3c-1.4,0.4-2.6,1.7-3.1,3.8c-2.3-1.4-4-3.2-5.2-5.7c-1.2,1-3.6,2.8-6.5,4.7c-0.4,0.7-0.9,1.2-1.3,1.4
	l-2.1-4.5c1.3-0.6,1.5-1,1.5-1.8L199.8,95.4L199.8,95.4z M203.9,98v4.2h5.7V98H203.9z M203.9,107.7h5.7v-4.6h-5.7V107.7z
	 M203.9,117.9c1.3-0.2,2.8-0.5,4.2-0.8c-1.1-2.3-1.9-5.1-2.4-8.5h-1.8V117.9z M206.2,108.6c0.5,1.7,1.3,3.3,2.3,4.6
	c0.8-1.1,1.6-2.4,2.1-3.4c-0.1,0-0.3,0-0.4,0h-0.7v-1.3h-3.3V108.6z M244.3,119.2c0.6,0.5,2.5,1.9,3.7,3c-0.1,0.3-0.4,0.5-0.9,0.5
	h-27l-0.2-0.8h11.7v-2.7h-9.1l-0.2-0.8h9.4V116h-3v0.4c0.1,0.5-2.8,1.5-4.4,1.3v-10.8l4.6,1.7h9.7l1.8-1.9h-19.8l-0.2-0.8H242l2-2.6
	c0,0,2.3,1.7,3.6,2.9c-0.1,0.3-0.4,0.5-0.8,0.5h-5.9l3.8,2.9c-0.2,0.3-0.6,0.6-1.3,0.8v5.6c0,0.1-0.3,0.2-0.6,0.3
	c0.8,0.6,2.1,1.7,3.1,2.6c-0.1,0.3-0.4,0.5-0.8,0.5h-0.8V119.2z M228.9,104c0,0.4-1.9,1.3-3.7,1.3h-0.6V95.1l4.5,1.7h9.2l1.9-2.1
	l4,2.9c-0.2,0.2-0.5,0.5-1.2,0.7v5.4c0,0.2-2.2,0.9-3.6,0.9h-0.8v-0.8h-9.8v0.2H228.9z M228.6,109.5v2.4h3v-2.4H228.6z M231.6,115.1
	v-2.4h-3v2.4H231.6z M228.9,97.6v2.2h9.8v-2.2H228.9z M238.7,103v-2.3h-9.8v2.3H238.7z M235.8,109.4v2.4h3.1v-2.4H235.8z
	 M238.9,112.7h-3.1v2.4h3.1V112.7z M235.8,118.3h4.2l1.4-1.8c-0.6,0.1-1.2,0.2-1.7,0.2h-0.8v-0.8h-3.1L235.8,118.3L235.8,118.3z
	 M242,121.8l2-2.7h-8.2v2.7H242L242,121.8z M268.1,116.5c-1.2,2.2-4.5,4.8-6.7,5.8l-0.3-0.3c1.2-1.7,2.5-4.4,3.3-7.1L268.1,116.5z
	 M271.2,122.2c0.2,0.3-2.3,1.2-3.8,1v-12.3c-0.9,0-1.7,0-2.6,0c-0.9,0.8-2,1.6-3.3,2.2l-0.2-0.3c0.2-0.2,0.4-0.4,0.5-0.5H259v3.8
	c1-0.2,2.1-0.4,3.2-0.5l0.1,0.3c-1.6,1.2-4,2.9-7.8,5.1c-0.1,0.4-0.5,0.7-0.8,0.8l-2.3-4.4c0.9-0.1,2.4-0.3,4.2-0.6v-4.4h-3.3
	l-0.2-0.8h3.6V107l4.4,0.4c-0.1,0.3-0.2,0.6-0.8,0.7v3.2l1.1-1.5c0,0,1.3,1.1,2.3,2c1.2-1.5,2.1-3.2,2.9-4.9H263l-0.2-0.6
	c-0.7,0.6-1.7,0.8-2.8-0.1c0-0.3,0-0.5-0.1-0.8c-1.7,0.7-3.8,1.6-6.2,2.4c-0.2,0.5-0.6,0.8-0.9,0.9l-1.6-4.2c0,0,0.7-0.2,1-0.3
	c0.9-0.8,2-3.4,2.4-5.2h-3.1l-0.2-0.8h8.1L261,96c0,0,1.6,1.4,2.7,2.4h3.5c0.1-1.1,0.2-2.2,0.2-3.3l5.5,1c-0.1,0.4-0.3,0.6-1.1,0.7
	c-0.1,0.5-0.2,1.1-0.3,1.6h2l1.8-2.4c0,0,2,1.6,3.2,2.7c-0.1,0.3-0.4,0.5-0.8,0.5h-6.4c-0.2,1-0.5,1.9-0.8,2.9h1.8l1.8-2.3
	c0,0,2,1.6,3.2,2.7c-0.1,0.3-0.4,0.5-0.8,0.5h-6.2c-0.4,1-0.8,2.1-1.3,3.1h5.7l1.8-2.5c0,0,2,1.7,3.2,2.8c-0.1,0.3-0.4,0.5-0.8,0.5
	h-6l0,0c1.2,1,3.9,2.3,7.4,3v0.4c-1.8,0.5-2.7,1.3-2.8,3.5c-1.4-0.7-2.5-1.8-3.3-3c-0.3,0.2-0.5,0.3-1.2,0c-0.5,0.1-1.1,0.2-1.7,0.2
	v11.2H271.2z M262.6,114.4l-0.2-0.8h10l1.7-2c0,0,1.9,1.4,3,2.4c-0.1,0.3-0.4,0.5-0.8,0.5L262.6,114.4L262.6,114.4z M265.7,105.8
	c0.4-1,0.7-2,0.9-3.1h-2.2l-0.2-0.8h2.6c0.2-1,0.4-2,0.4-2.9h-3.6l-0.1-0.3c-0.1,0-0.2,0.1-0.4,0.1h-3.6c-1.4,1.8-3.6,3.9-5.4,5.3
	c1.6-0.1,3.6-0.2,5.7-0.4c-0.3-1.1-0.8-2.1-1.4-2.9l0.3-0.1c4.8,1.1,5.4,3.8,4.5,5.1L265.7,105.8L265.7,105.8z M274,110.4
	c-1-1.3-1.6-2.7-2-3.7h-3.6c-0.8,1.3-1.6,2.4-2.7,3.5c2-0.8,4.2-1.9,5.3-2.7L274,110.4z M271.8,115.6c9.1,1.4,6.6,8,3.1,5.9
	c-0.6-2-2.1-4.2-3.4-5.7L271.8,115.6z M305.5,100.1c5,0.3,2.7,4.6,0.2,3c0-0.2-0.1-0.3-0.1-0.5c-0.1,0.1-0.4,0.2-0.7,0.2v0.9h2.8
	l1.7-2.3c0,0,1.9,1.6,3,2.7c-0.1,0.3-0.4,0.5-0.8,0.5H305c0,2.9,0.2,5.7,0.8,8.2c0.8-2.1,1.4-4.4,1.7-6.9l4.6,1.6
	c-0.1,0.4-0.5,0.6-1.2,0.6c-0.9,3.5-2.1,6.3-3.6,8.7c3,4.2,2.5,3.8,4.5-0.6l0.3,0.1l-0.5,4.4c3,3.8-2.4,5.8-6.6-1
	c-2.1,2.1-4.5,3.6-7.5,4.8l-0.3-0.3c1.6-1.2,3.1-2.5,4.5-4.1H296l-1,1.6l-3.1-1.9c0.2-0.2,0.6-0.5,0.9-0.8v-13.9l3.3,1.6h2l1.4-1.9
	c0,0,1.2,1,2.1,1.8c0-0.6-0.1-1.2-0.1-1.8h-9.4v5.6c0,4.3-0.3,10.3-5.1,14.2l-0.3-0.2c1.6-3.2,2-7,2.1-10.7h-1
	c-0.2,3.3-1,6.8-4.1,9.4l-0.4-0.4c1.7-2.7,2.4-5.2,1.7-9h-1.3l-0.3-0.9h5.3c0-0.8,0-1.6,0-2.4V110h-0.9l-1,1.6l-3.1-1.9
	c0.2-0.3,0.6-0.6,0.9-0.8v-5.6l4,0.4v-1.4l3.9,1.4h8.9c0-0.7,0-1.4,0-2.2l4,0.4c-0.2-0.3-0.3-0.7-0.6-1c-0.9,0.4-2.3,0.5-3.7,0.2
	l0.8-5.6l5.2,0.8c-0.1,0.4-0.3,0.7-1.1,0.8L305.5,100.1z M298.8,99.5l-0.2-0.9h8.3l1.8-2.5c0,0,2,1.7,3.2,2.8
	c-0.1,0.3-0.4,0.5-0.8,0.5L298.8,99.5z M284,99.5l-0.2-0.9l0,0h9.7l1.8-2.5c0,0,2,1.7,3.1,2.8c-0.1,0.3-0.4,0.5-0.8,0.5L284,99.5
	L284,99.5z M293.2,101.1c-0.6,0.8-2.2,1.2-4.2,1.1l-0.8-6.6l5.3,0.3c0,0.4-0.2,0.7-0.9,0.9L293.2,101.1z M288.6,108.9v-5.3
	c-0.1,0.2-0.4,0.4-1.1,0.5v4.8H288.6z M296.4,110.7v-3.4h-0.9v3.4H296.4z M298.8,111.5h-3.3v3.1h3.3V111.5z M296.4,119.1v-3.5h-0.9
	v3.5H296.4z M298.9,107.3v3.1l1-1l2.1,1.5c-0.2-1.2-0.3-2.4-0.4-3.7c-0.1,0-0.2,0-0.3,0L298.9,107.3L298.9,107.3z M300,117.1
	c0,0,1.2,1,2.2,1.9c0.5-0.6,0.9-1.2,1.3-1.9c-0.7-1.7-1.2-3.5-1.5-5.5c-0.1,0.1-0.3,0.1-0.4,0.1v3.8c0,0.2-1.4,0.8-2.3,0.8h-0.4v2.3
	L300,117.1z M327.1,125.1h-1.2V94.8h1.2V125.1z M95.2,57.4c-5,0-8.6-0.8-10.7-2.3c-2.3-1.6-3.5-4.4-3.5-8.4V15.8
	c0-5.3-0.3-9.7-0.8-13l8.9,3.5h29.4l1.6-2c0.1-0.1,0.2-0.3,0.4-0.5c0.8-1,1.3-1.5,1.6-1.5c0.4,0,1.7,0.8,3.8,2.5
	c2.1,1.7,3.2,2.8,3.2,3.2c-0.6,0.7-1.5,1.2-2.7,1.5v7c0.1,5.9,0.3,10.4,0.4,13.6c-0.3,0.4-1.1,0.9-2.5,1.3c-1.5,0.5-2.9,0.8-4,0.8
	c-1,0-1.5-0.4-1.5-1.3c0-0.2,0.1-0.5,0.1-0.9c0-0.3,0.1-0.5,0.1-0.8v-1.5H88.3v19.1c0,1.3,0.5,2.2,1.5,2.7c1,0.5,2.7,0.7,5.1,0.7
	h21.3c2.2,0,3.8-0.1,4.8-0.4c1.1-0.3,2-0.8,2.6-1.6c1.1-1.4,2.4-4.8,4.1-10h0.6l0.1,10.3c1.6,0.5,2.7,0.9,3.3,1.3
	c0.6,0.4,0.9,1,0.9,1.7c0,1.9-1,3.4-3,4.2c-2.5,1.1-6.7,1.6-12.8,1.6H95.2z M88.3,26h12.1V8.2H88.3V26z M107.5,26h11.7V8.2h-11.7V26
	z M139.7,59.8l-0.2-0.8c6.3-2.6,10.8-5.9,13.5-9.9c2.5-3.6,3.9-8.5,4.2-14.6h-1.8v2c0,0.4-0.7,0.8-2,1.4c-1.4,0.6-2.7,0.9-4.1,0.9
	c-0.9,0-1.4-0.4-1.4-1.3c0.2-1.7,0.3-3.9,0.4-6.5V27c0-4.8-0.3-8.8-0.8-12l8.2,3.4h8.1v-8.1h-12.4c-3,0-6.2,0.3-9.5,0.9l-1.6-3.2
	c2.3,0.3,5.1,0.4,8.4,0.5H164c0-3.7-0.2-6.7-0.5-8.8c4.5,1,7.4,1.7,8.5,2.2c0.8,0.4,1,0.8,0.3,1.2l-1.1,0.7v4.7h12.3l1.9-2.6
	c0.2-0.2,0.4-0.5,0.6-0.9c0.9-1.2,1.5-1.8,1.7-1.8c0.4,0,1.7,0.9,3.9,2.7c2.2,1.8,3.3,2.9,3.3,3.4c-0.2,0.7-0.8,1-1.8,1h-21.9v8.1
	h7.9l1.5-1.8c0.1-0.1,0.3-0.3,0.5-0.6c0.7-0.8,1.2-1.3,1.5-1.3c0.4,0,1.7,0.8,3.7,2.4c2,1.6,3.1,2.6,3.1,3.1
	c-0.5,0.7-1.3,1.1-2.5,1.3v4.9c0.1,3.9,0.2,7.1,0.4,9.4c-0.3,0.5-1.1,1-2.4,1.6c-1.4,0.6-2.8,1-4,1c-0.9,0-1.4-0.4-1.4-1.3
	c0-0.2,0.1-0.4,0.1-0.7c0-0.2,0.1-0.4,0.1-0.5v-1.3h-3.3v0.6v15c0,0.5,0.1,0.8,0.4,1c0.3,0.1,0.9,0.2,1.9,0.2h5.5
	c2.5,0,4.1,0,4.7-0.1c0.6,0,1.1-0.3,1.5-0.9c0.5-0.9,1.4-3.6,2.7-8h0.7l0.2,8.4c0.9,0.4,1.5,0.8,1.8,1.3c0.3,0.4,0.4,1,0.4,1.7
	c0,1.5-0.8,2.6-2.5,3.2c-1.9,0.7-5.3,1.1-10.2,1.1h-6.3c-3,0-5.1-0.4-6-1.2c-1-0.8-1.5-2.5-1.5-4.9V34.5H165
	c-0.6,7.1-2.8,12.6-6.6,16.5C154.5,55.1,148.2,58,139.7,59.8z M155.5,32.6h24.3V20.2h-24.3V32.6z M212.4,59.5
	c-0.5,0-0.9-0.1-1.2-0.4c-0.3-0.3-0.5-0.6-0.5-0.9c0.4-5.5,0.6-10.9,0.7-16.5V18.6h-2.9c-1.6,0-3.2,0.3-4.9,0.9l-1.6-3.2
	c2.3,0.3,5.1,0.4,8.4,0.5h7.3l3.6-5c2,1.8,4,3.6,6,5.4v-0.6c0-5.3-0.3-9.7-0.8-13l7.5,3h2.2c0-2.5-0.1-4.8-0.4-6.7
	c2.8,0.9,4.6,1.6,5.4,2.1c0.5,0.4,0.6,0.7,0.2,1l-0.6,0.4v3.2h2.7c0-2.6-0.1-4.8-0.4-6.7c2.9,0.9,4.8,1.6,5.6,2.1
	c0.5,0.4,0.6,0.7,0.2,1L248,3.3v3.3h2.5l1.3-2c0.1-0.2,0.3-0.4,0.5-0.7c0.6-0.9,1.1-1.3,1.3-1.3c0.4,0,1.5,0.7,3.1,2.2
	c1.6,1.5,2.5,2.4,2.5,2.9c-0.5,0.6-1.2,0.9-2.3,1.1v14.8c0,0.3-0.6,0.6-1.8,1c0.9,0.7,2.6,2.2,5.1,4.3c-0.2,0.7-0.7,1-1.6,1h-23.4
	c-3,0-6.2,0.3-9.5,0.9l-1.6-3.2c2.3,0.3,5.1,0.4,8.4,0.5h19.3l2.5-3.2c-1,0.2-1.9,0.3-2.6,0.3h-1.1v-1.7h-17.6v1.3
	c0,0.3-0.4,0.6-1.3,1c-1.1,0.4-2.3,0.6-3.7,0.6c-0.9,0-1.3-0.4-1.3-1.3c0.1-0.7,0.2-1.6,0.3-2.7c0-0.5,0-1,0.1-1.3v-2.7
	c-0.3,0.3-0.7,0.4-1.3,0.4h-8.4v24c0.1,5.2,0.3,10.2,0.5,14.9c-0.3,0.5-0.9,0.9-1.8,1.3C215,59.2,213.8,59.5,212.4,59.5z
	 M203.1,53.5l-0.8-0.7c1.4-4.1,2-10.7,2-19.7v-4.6c0-2-0.1-3.6-0.3-4.9c3.1,0.9,5.1,1.6,5.8,2.1c0.5,0.4,0.5,0.8-0.1,1.2l-1,0.6v5.8
	C208.8,42.5,206.9,49.3,203.1,53.5z M205,8.1l-1.6-3.2c2.3,0.3,5.1,0.4,8.4,0.5h4.1l1.6-2.4c0.2-0.2,0.4-0.5,0.6-0.9
	c0.7-1.1,1.2-1.6,1.5-1.6c0.4,0,1.6,0.8,3.4,2.5c1.9,1.7,2.8,2.7,2.8,3.2c-0.1,0.7-0.7,1-1.6,1h-9.7C211.5,7.2,208.4,7.5,205,8.1z
	 M220.6,50.4c-0.4,0-0.7-0.1-0.9-0.4c-0.2-0.3-0.3-0.5-0.3-0.9c0.2-1.9,0.4-4.4,0.4-7.6V37v-0.7c0-5.3-0.3-9.7-0.8-13
	c3.5,0.9,5.6,1.6,6.5,2c0.6,0.4,0.7,0.8,0.1,1.1l-1,0.6v6.3c0.1,5.2,0.3,10.1,0.5,14.7c-0.3,0.5-0.9,1-1.7,1.5
	C222.4,50.1,221.5,50.4,220.6,50.4z M224.2,59.1l-1.6-3.2c2.3,0.3,5.1,0.4,8.4,0.5h5.3c-0.7-0.2-1.4-0.6-2-1.3c0-2.4-0.5-5-1.6-7.9
	c-1,0.2-1.9,0.3-2.5,0.3h-1.1v-8.3c0-3.6-0.2-6.5-0.5-8.6l7.4,3.2h13.1l1.3-2c0.1-0.2,0.3-0.4,0.5-0.7c0.6-0.9,1.1-1.3,1.3-1.3
	c0.4,0,1.5,0.7,3.1,2.2c1.7,1.5,2.5,2.4,2.5,2.9c-0.3,0.5-1.1,0.9-2.2,1.1v3.2c0,0.5,0,1.2,0.1,2c0.1,1.8,0.2,3.2,0.3,4.1
	c-0.2,0.3-0.8,0.7-1.7,1c-1.1,0.4-2.5,0.6-3.9,0.6h-1.1v-2.3h-13.9V46c0,0.2-0.3,0.4-0.8,0.7c2.6,0.9,4.5,2.1,5.5,3.6
	c0.9,1.3,1.2,2.5,0.8,3.8c-0.4,1.2-1.1,2-2.3,2.3h5.5c1-3.9,1.5-7.5,1.3-10.7c4.1,1.2,6.8,2.1,7.9,2.7c0.8,0.4,0.8,0.8,0.1,1
	l-1.1,0.4c-1.9,2.3-4.2,4.5-6.8,6.6h6.1l1.5-2.3c0.1-0.2,0.3-0.4,0.5-0.8c0.7-1,1.2-1.5,1.5-1.5c0.4,0,1.5,0.8,3.3,2.3
	c1.8,1.5,2.6,2.5,2.6,3c-0.1,0.7-0.7,1-1.6,1h-25.5C230.7,58.2,227.6,58.5,224.2,59.1z M233.2,14h2.8V8.4h-2.8V14z M233.2,21.6h2.8
	v-5.8h-2.8V21.6z M235.3,42.7h13.9v-7.1h-13.9V42.7z M240.5,14h2.7V8.4h-2.7V14z M240.5,21.6h2.7v-5.8h-2.7V21.6z M248,14h2.7V8.4
	H248V14z M248,21.6h2.7v-5.8H248V21.6z M299.7,2.1c6.7,0,11.9,1.2,15.5,3.7c4.1,2.8,6.5,7,6.5,13c0,12.8-10.9,18.1-19.9,18.2
	c-0.9,0-2-0.1-2.5-0.2l-5.4-1.4v12.6c0,7.4,0.6,7.7,8.4,8.5v3h-26.7v-3c6.9-0.8,7.6-1.1,7.6-8.5V13.7c0-7.6-0.9-8.1-7.6-8.7v-3
	H299.7z M293.7,31.8c1.1,0.5,3,1,5.3,1c4.7,0,11.5-2.6,11.5-14c0-9.8-5.7-13.3-12-13.3c-2.1,0-3.4,0.4-4,0.9
	c-0.6,0.6-0.9,1.5-0.9,3.2V31.8z M352.3,59.3v-3c5.6-0.8,5.9-1.7,4.6-5.3c-1-2.9-2.5-7-4-11.3h-17.8c-1.1,3.2-2.4,6.5-3.4,9.6
	c-1.9,5.6-0.1,6.3,7,7v3h-21.3v-3c5.5-0.7,7-1.4,10-9l18.3-45.8l3.7-0.7c5.6,15.2,11.6,31.2,17.3,46.1c3.1,8,3.9,8.7,9.8,9.4v3
	H352.3z M344.2,15.5c-2.6,6.8-5.3,13.4-7.7,20h14.9L344.2,15.5z M434.1,59.9c-0.7,0-1.8,0-2.9-0.1c-9.5-0.5-12.8-2.6-15.9-6.9
	c-3.4-4.7-6.2-10.2-9.1-15.2c-1.5-2.5-2.7-3.1-6.1-3.1l-2.2-0.1v13.2c0,7.3,0.9,7.8,7.7,8.6v3h-25.7v-3c6.9-0.7,7.6-1.3,7.6-8.6
	V13.5c0-7.1-0.9-7.9-7.6-8.5v-3h24.5c7.3,0,11.8,0.8,15.3,3.2c3.6,2.3,5.9,6.3,5.9,11.7c0,7.7-5.1,12.1-11.1,14.6
	c1.4,2.7,5,8.5,7.6,12.5c3.1,4.8,5,7.1,6.8,9.1c2.1,2.4,3.5,3.2,5.9,3.9L434.1,59.9z M401,31.2c4.1,0,7-0.6,9-2.4
	c3.1-2.5,4.4-5.9,4.4-10.5c0-9.4-5.7-12.7-11.3-12.7c-2.4,0-3.7,0.4-4.3,0.9c-0.7,0.6-0.9,1.6-0.9,3.5v21.2H401z M437.7,2.1h25.6v3
	c-6.5,0.7-7.6,1.2-7.6,8.8v14.9c1.8-0.4,3.9-1.8,6.7-4.5c5.6-5.5,10.2-10.7,13.3-14.4c2.3-2.8,1.9-4.1-2.1-4.6l-1.9-0.2v-3h22.5v3
	c-6.3,0.8-9.2,1.2-14.8,7.3c-3.2,3.2-8.4,8.4-12.9,13.1c5.9,7.8,13.8,17.9,19.8,25.1c3.7,4.4,4.8,5.1,9.7,5.8v3h-16.3
	c-4.8-5.9-12.3-15.9-19.2-24.9c-1.9-2.6-3.4-3-4.8-2.8v16c0,7.5,0.7,7.9,7.6,8.7v3h-25.6v-3c6.8-0.7,7.6-1.2,7.6-8.7V13.8
	c0-7.6-0.8-8.2-7.6-8.8V2.1z"/>
</svg>
