<svg width="579" height="125" viewBox="0 0 579 125" fill="none" xmlns="http://www.w3.org/2000/svg">
<path d="M5.91006 33.14V37.37C6.24006 43.71 8.31006 47.2 12.1301 47.82C16.0301 48.77 20.8801 49.25 26.6901 49.25C36.0201 49.13 43.7601 48.73 49.8901 48.07V53.98C45.4901 54.73 37.6601 55.1 26.3801 55.1C18.3801 55.1 12.9801 54.58 10.2101 53.54C3.41006 52.01 0.0100607 46.88 0.0100607 38.17C6.06515e-05 26.36 0.170061 14.75 0.500061 3.35001H36.3901C40.2501 3.97001 43.1501 5.57001 45.1001 8.14001C47.1301 10.55 48.1501 13.84 48.1501 18.03C48.1501 22.22 47.1101 25.7 45.0401 28.61C42.6801 31.47 39.9801 32.96 36.9501 33.09L5.91006 33.15V33.14ZM6.66006 8.75001C6.37006 15.34 6.14006 21.56 5.98006 27.41H20.5401V8.76001H6.66006V8.75001ZM26.6901 8.75001V27.41H35.4601C39.4801 26.66 41.4901 23.39 41.4901 17.58C41.4901 12.48 39.4001 9.53001 35.2101 8.75001H26.6901Z" fill="white"/>
<path d="M57.7001 5.28H80.7801V0.360001H87.0601V5.27H109.95V11.3H87.0601V16.77H97.7601C101.08 17.06 103.63 18.16 105.41 20.07C107.28 21.73 108.25 24.11 108.33 27.22C108.33 30.58 107.46 33.15 105.72 34.93C103.65 37.17 101.14 38.33 98.1901 38.41H93.7701V44.76C94.1001 48.04 95.5701 49.68 98.1901 49.68C104.82 49.68 109.1 49.53 111 49.24V55.03C109.3 55.32 104.51 55.47 96.6301 55.47C90.9901 55.05 87.9801 51.7 87.6101 45.39V38.42H79.0201C77.24 47.63 70.1401 53.81 57.7401 56.96V50.43C66.1201 48.31 71.0901 44.31 72.6701 38.42H61.7201V16.77H80.7601V11.3H57.6801V5.27L57.7001 5.28ZM67.7201 33.03L96.34 32.97C100.2 32.8 102.23 30.94 102.44 27.37C102.23 24.3 100.57 22.58 97.4601 22.21H67.7201V33.03Z" fill="white"/>
<path d="M124.41 0.240005H130.69V4.84001H132.81C134.51 5.09001 135.88 5.79001 136.92 6.96001C137.83 8.20001 138.29 9.53001 138.29 10.94C138.29 15.09 136.15 19.4 131.88 23.88C134.04 25.04 136.11 26.49 138.1 28.23V35.51C135.4 33.19 132.77 31.2 130.2 29.54V56.48H124.23V30.66C121.99 32.36 119.54 34.06 116.89 35.76V28.23C126.59 21.55 131.61 16.45 131.94 12.93C131.94 11.52 131.3 10.73 130.01 10.57H117.26V4.85001H124.41V0.240005ZM144.5 46.71H149.73C149.9 47.71 150.08 48.74 150.29 49.82H160.12C160.45 48.7 160.7 47.62 160.87 46.59H165.85C165.77 47.79 165.58 48.87 165.29 49.82H170.52V55.17H139.42V49.82H144.96C144.79 48.74 144.65 47.71 144.52 46.71M139.79 25.56H170.65V30.79H139.79V25.56ZM156.52 3.66001V0.610005H161.31V3.66001C164.09 3.83001 166.22 4.80001 167.72 6.58001C169.46 8.32001 170.39 10.6 170.52 13.42C170.52 16.45 169.69 18.79 168.03 20.45C166.29 22.44 163.92 23.5 160.94 23.62H140.53V3.66001H148.87V0.610005H153.66V3.66001H156.52ZM162.55 32.77C164.71 32.77 166.57 33.35 168.15 34.51C169.43 35.59 170.08 37.04 170.08 38.86C170.08 40.68 169.35 42.16 167.9 43.4C166.41 44.52 164.56 45.12 162.36 45.2H141.08V32.76H162.54L162.55 32.77ZM145.82 11.25H148.87V8.26001H145.82V11.25ZM145.82 18.9H148.87V15.79H145.82V18.9ZM146.32 40.73H161.69C163.72 40.61 164.74 39.96 164.74 38.8C164.74 37.8 163.66 37.18 161.51 36.93H146.33V40.72L146.32 40.73ZM153.66 11.24H156.52V8.25001H153.66V11.24ZM153.66 18.89H156.52V15.78H153.66V18.89ZM161.31 8.38001V11.24H164.79C164.21 9.66001 163.05 8.71001 161.31 8.38001ZM161.31 15.78V18.77C163.18 18.44 164.34 17.44 164.79 15.78H161.31Z" fill="white"/>
<path d="M385.46 39.04V58.08H373.8V2.14H393.94C400.84 2.14 406.08 3.62 409.66 6.58C413.24 9.54 415.03 13.86 415.03 19.55C415.03 25.24 413.05 30.22 409.09 33.75C405.13 37.28 399.97 39.04 393.61 39.04H385.45H385.46ZM385.39 10.94V30.17H388.5C394.34 30.17 398.21 29.32 400.11 27.63C402.01 25.94 402.95 23.33 402.95 19.82C402.95 16.92 402.04 14.72 400.21 13.21C398.38 11.7 394.77 10.95 389.38 10.95H385.39V10.94Z" fill="white"/>
<path d="M523.04 58.08H508.62L493 36.89H485.58V58.08H473.92V2.14H494.31C501.71 2.14 507.04 3.52 510.3 6.28C513.56 9.04 515.19 12.78 515.19 17.51C515.19 24.91 511.64 30.39 504.55 33.95L523.03 58.08H523.04ZM485.51 10.94V28.35H490.74C495.76 28.35 499.08 27.47 500.7 25.71C502.33 23.95 503.14 21.65 503.14 18.81C503.14 16.29 502.36 14.34 500.81 12.98C499.26 11.62 496.19 10.94 491.62 10.94H485.51Z" fill="white"/>
<path d="M578.85 58.08H564.44L546.91 34.92L542.95 39.63V58.08H531.36V2.14H543.02V28.72L564.26 2.14H577.83L556.06 28.13L578.85 58.08Z" fill="white"/>
<path d="M445.66 2.14H432.73L412.62 58.08H424.42L428.45 45.94L428.52 45.73C431.58 44.39 435.16 43.61 438.91 43.61C442.66 43.61 446.27 44.38 449.33 45.73L449.44 46.08L453.42 58.09H465.75L445.64 2.15L445.66 2.14ZM438.95 14.69L446.42 37.09C444.23 36.4 441.64 36 438.95 36C436.26 36 433.67 36.42 431.48 37.11L438.95 14.7V14.69Z" fill="white"/>
<path d="M296.03 58.12H284.79L260.9 17.1V58.12H250.09V2.17999H264.22L285.21 38.34V2.17999H296.03V58.12Z" fill="white"/>
<path d="M344.33 58.12H307.23V2.17999H344.33V11.46H318.82V23.41H342.53V32.66H318.82V48.84H344.33V58.12Z" fill="white"/>
<path d="M241.33 18.83C240.12 14.57 238.13 10.94 235.36 7.94C230.45 2.65 223.69 0 215.08 0C206.47 0 199.68 2.64 194.8 7.92C192 10.94 190.01 14.62 188.82 18.95V40.4C190.02 44.72 192.02 48.4 194.84 51.44C199.75 56.72 206.5 59.36 215.09 59.36C223.68 59.36 230.53 56.71 235.41 51.4C238.17 48.4 240.15 44.79 241.35 40.56V18.82L241.33 18.83ZM225.75 44.94C223.1 48.56 219.56 50.37 215.11 50.37C210.66 50.37 207.08 48.57 204.43 44.98C201.78 41.39 200.46 36.3 200.46 29.72C200.46 23.14 201.78 18.01 204.43 14.41C207.08 10.81 210.64 9 215.11 9C219.58 9 223.13 10.8 225.77 14.41C228.4 18.01 229.72 23.11 229.72 29.69C229.72 36.27 228.4 41.33 225.75 44.95" fill="white"/>
<path d="M356.57 115.04V117.41C356.57 119.7 356.76 120.04 359.7 120.27V121.68H348.9V120.27C351.57 120.04 351.69 119.54 351.69 117.25V115.04H341.88V113.48C345.93 107.98 350.51 101.84 353.75 97.67H356.57V112.83H360.12V115.04H356.57ZM351.68 102.9C349.85 105.46 347.21 109.08 344.66 112.83H351.68V102.9ZM379.59 97.9L379.82 98.28L378.6 102.06H369.09C368.75 103.7 368.25 106.22 367.87 107.79C369.78 107.1 371.92 106.61 372.95 106.61C377.87 106.61 380.47 109.74 380.47 113.02C380.47 115.39 379.36 117.72 376.65 119.62C374.51 121.15 371.69 122.14 369.4 122.14C367.87 122.14 366.23 121.61 365.35 120.88C364.55 120.27 364.4 119.89 364.4 119.35C364.4 118.74 364.9 117.82 365.58 117.33C366.04 117.02 366.53 117.06 367.07 117.56C367.99 118.36 369.63 119.93 372.07 119.93C374.51 119.93 375.54 117.83 375.54 115.08C375.54 111.64 373.33 109.39 369.81 109.39C368.09 109.39 366.83 109.77 365.84 110.04L365.65 109.81C366.41 106.34 367.33 101.45 367.86 97.9H379.58H379.59ZM395.89 114.35H386.27L386.58 111.37H396.2L395.89 114.35ZM409.1 107.02C410.02 106.56 411.01 106.29 411.62 106.29C415.78 106.29 418.76 109.12 418.76 113.47C418.76 118.28 415.06 122.14 409.98 122.14C404.9 122.14 401.31 118.47 401.31 112.37C401.31 104.58 407.23 100 411.66 98.4C412.81 97.98 415.71 97.41 417.35 97.22L417.58 98.75C416.47 99.02 414.83 99.48 413.5 100.12C411.55 101.07 408.31 103.21 407.16 107.95L409.11 107.03L409.1 107.02ZM409.33 109.04C408.41 109.04 407.65 109.19 406.89 109.46C406.74 110.11 406.62 111.52 406.62 112.55C406.62 117.59 408.3 120.49 410.78 120.49C413.26 120.49 413.72 117.51 413.72 115.11C413.72 111.52 411.93 109.04 409.33 109.04ZM440.52 98.46C436.82 106.13 433.04 113.88 429.56 121.67L425.82 122.13L425.51 121.63C429.67 115.1 433.53 108.23 436.81 102.04H428.79C426.16 102.04 425.89 102.31 424.82 104.6H423.37C423.9 101.55 424.17 99.6 424.4 97.88H440.24L440.51 98.45L440.52 98.46Z" fill="white"/>
<path d="M451.68 114.35C452.83 114.02 454.04 113.68 455.23 113.32L455.32 113.59C453.65 115.14 450.93 117.44 446.87 120.32C446.75 120.74 446.45 121.11 446.05 121.23L443.93 116.44C444.69 116.26 445.93 115.96 447.45 115.53V106.01H444.54L444.3 105.16H447.45V96.92L452.81 97.37C452.75 97.79 452.54 98.13 451.69 98.25V104.7L453.08 102.18C453.08 102.18 454.96 104.24 455.87 105.51C455.81 105.84 455.48 105.99 455.08 105.99H451.69V114.32L451.68 114.35ZM469.53 108.8C469.53 108.8 472.11 110.86 473.59 112.22C473.5 112.55 473.14 112.71 472.71 112.71H465.22V123.77C465.19 124.04 463.89 124.95 461.64 124.95H460.82V112.71H453.43L453.19 111.86H460.83V99.71H454.34L454.1 98.86H466.92L469.04 95.98C469.04 95.98 471.43 97.92 472.83 99.22C472.74 99.55 472.41 99.7 471.95 99.7H465.22V111.85H467.28L469.52 108.79L469.53 108.8ZM455.59 101.38C463.74 105.86 459.62 112.84 456.32 109.29C456.5 106.68 455.96 103.84 455.26 101.5L455.59 101.38ZM465.74 110.11C466.35 107.81 466.98 104.2 467.32 101.08L472.8 102.72C472.65 103.11 472.26 103.39 471.56 103.39C470.07 106.12 468.2 108.6 466.14 110.3L465.75 110.12L465.74 110.11Z" fill="white"/>
<path d="M483.93 104.38C483.84 104.65 483.57 104.86 482.99 104.96V123.35C482.93 123.62 481.23 124.5 479.63 124.5H478.84V109.38C478.08 110.26 477.26 111.08 476.39 111.8L476.06 111.59C477.91 107.59 479.7 101.44 480.39 95.74L486.15 97.41C486 97.8 485.63 98.05 484.91 98.05C484.21 100.17 483.42 102.11 482.55 103.87L483.94 104.39L483.93 104.38ZM504.39 99.05C504.24 99.47 503.81 99.84 503.03 99.84C502.09 102.87 500.61 106.51 498.94 109.96C508.49 117.9 505.3 127.63 500.94 123.38C500.94 122.29 500.82 121.14 500.67 120.02C499.09 120.78 497.09 121.66 494.82 122.57C494.55 123.15 494.18 123.54 493.76 123.75L491.43 118.63C491.43 118.63 492.52 118.24 492.82 117.72C493.27 116.84 493.82 115.42 494.4 113.69C493.76 114.27 492.76 114.33 491.86 113.42C491.86 112.06 491.5 110.54 491.07 109.24V123.48C491.07 123.75 489.83 124.6 487.92 124.6H487.19V114.81C486.13 116.42 484.89 117.87 483.46 119.2L483.13 118.9C484.86 115.6 485.95 110.93 486.55 106.72H484.28L484.04 105.87H487.19V100.66C486.25 100.75 485.31 100.81 484.4 100.84L484.34 100.51C487.07 99.3 490.49 97.21 492.19 95.81L496.46 99.66C496.07 99.96 495.34 100.02 494.31 99.66C493.4 99.87 492.28 100.05 491.07 100.24V105.88H491.61L493.22 103.52C493.22 103.52 495.04 105.16 496.04 106.25C495.98 106.58 495.65 106.73 495.25 106.73H491.07V107.88C493.74 109.03 494.83 110.55 495.01 111.79C496.4 107.18 497.8 101.21 498.16 97.09L504.4 99.06L504.39 99.05ZM500.39 118.35C499.93 115.8 499.21 113.26 498.45 110.9C497 113.81 495.42 116.54 493.93 118.6C495.63 118.57 497.9 118.48 500.39 118.36V118.35Z" fill="white"/>
<path d="M538.11 101.81C537.87 102.08 537.57 102.17 536.93 102.2C535.75 103.41 533.72 105.05 532.11 105.99L531.9 105.81C532.14 104.54 532.38 102.69 532.51 101.29H513.15C513.42 103.59 512.69 105.26 511.54 106.02C510.45 106.78 508.66 106.35 508.18 104.93C507.76 103.63 508.51 102.6 509.63 102.05C510.69 101.5 512.02 100.08 512.05 98.6H512.41C512.68 99.24 512.86 99.87 512.99 100.45H521.23C521.05 100.33 520.87 100.21 520.68 100.06C520.89 98.48 520.41 96.82 519.44 95.85L519.59 95.7C526.32 95.67 526.41 99.16 524.5 100.46H532.2L534.38 98.28L538.11 101.83V101.81ZM535.05 119.23C536.32 119.68 536.66 120.2 536.66 121.05C536.66 122.93 535.08 123.72 528.45 123.72H524.6C520.66 123.72 519.42 123.08 519.42 119.93V113.48H509.6L509.36 112.63H519.42V107.69C516.75 107.9 514.03 107.99 511.45 107.99L511.39 107.6C517.15 106.54 524.24 104.39 527.81 102.6L531.78 106.39C531.42 106.69 530.69 106.75 529.66 106.36C527.99 106.72 525.96 107.03 523.78 107.27V112.63H529.26L531.59 109.57C531.59 109.57 534.23 111.6 535.77 112.99C535.71 113.32 535.35 113.47 534.89 113.47H523.77V118.8C523.77 119.44 524.07 119.62 525.22 119.62H528.92C530.01 119.62 531.04 119.59 531.65 119.56C532.19 119.53 532.47 119.41 532.74 119.04C533.19 118.4 533.8 116.92 534.62 114.74H534.92L535.04 119.22L535.05 119.23Z" fill="white"/>
<path d="M69.0901 98.54C68.8801 98.81 68.5501 99.05 67.9501 99.2V121.03C67.8901 121.36 65.6901 122.41 63.9501 122.41H63.2001V119.58H52.4401V121.02C52.4401 121.59 50.5801 122.7 48.5901 122.7H47.8401V95.7L52.7101 97.62H62.9001L65.0401 95.27L69.1001 98.52L69.0901 98.54ZM52.4301 98.48V107.98H63.1901V98.48H52.4301ZM63.1901 118.75V108.83H52.4301V118.75H63.1901Z" fill="white"/>
<path d="M92.0401 102.15C94.5101 107.56 99.2601 111.5 103.92 113.48L103.83 113.81C102.09 114.17 100.67 115.58 99.9801 117.72C95.5901 114.44 93.0901 109.39 91.5601 102.3V114.66L93.4801 111.77C93.4801 111.77 95.7901 113.84 97.0901 115.2C97.0001 115.53 96.6701 115.68 96.2501 115.68H91.5601V121.57C91.5601 121.93 89.7601 122.77 87.9201 122.77H87.0801V115.67H81.9101L81.6701 114.83H87.0801V108.61C84.3701 112.67 80.5001 115.98 75.3501 118.38L75.0801 118.14C79.8001 114.2 83.1701 107.92 84.6401 102.14H76.5501L76.3101 101.3H87.0701V94.23L92.9001 94.8C92.8401 95.31 92.5701 95.67 91.5501 95.82V101.29H96.3301L98.7101 98.01C98.7101 98.01 101.39 100.21 102.92 101.65C102.83 101.98 102.5 102.13 102.05 102.13H92.0401V102.15Z" fill="white"/>
<path d="M124.73 98.78C138.08 101.31 135.4 110.63 130.8 107.86C130.41 106.78 129.81 105.69 129.15 104.58C124.88 105.6 118.66 106.81 110.96 108.1C110.6 108.49 110.21 108.73 109.82 108.85L108.56 103.92C108.56 103.92 109.49 103.74 109.94 103.5C112.8 102.18 117.16 97.1 118.42 94.18L124.34 96.41C124.22 96.74 123.86 97.01 123.17 96.98C120.82 99.33 116.47 102.15 112.62 103.93C116.56 103.93 122.42 103.84 128.56 103.69C127.33 101.95 125.88 100.29 124.5 99L124.74 98.79L124.73 98.78ZM128.25 108.1L132.55 111.41C132.34 111.68 131.92 112.01 131.17 112.16V121.63C131.11 121.84 128.82 122.59 127.32 122.59H126.54V119.94H116.29V121.29C116.29 121.74 114.25 122.76 112.35 122.76H111.69V108.6L116.53 110.43H126.18L128.25 108.08V108.1ZM126.54 119.1V111.28H116.29V119.1H126.54Z" fill="white"/>
<path d="M155.43 99.63V103.63H160.54L162.49 101.46L166.46 104.53C166.28 104.77 165.92 105.04 165.29 105.16V118.27C165.29 121.04 164.6 122.57 159.85 122.99C159.76 121.61 159.61 120.64 159.1 120.01C158.59 119.41 157.99 118.9 156.36 118.63V118.24C156.36 118.24 159.4 118.45 160.24 118.45C160.72 118.45 160.84 118.21 160.84 117.85V104.47H145.9V121.37C145.9 121.85 144.01 122.87 142.17 122.87H141.48V101.79L146.2 103.62H151.01V99.62H139.34L139.1 98.78H151.01V94.27L156.51 94.69C156.45 95.11 156.27 95.41 155.43 95.56V98.78H160.54L162.92 95.8C162.92 95.8 165.6 97.78 167.25 99.14C167.16 99.47 166.8 99.62 166.35 99.62H155.44L155.43 99.63ZM155.19 115.29V120.94C155.16 121.09 153.93 121.75 151.76 121.75H150.98V115.29H146.5L146.26 114.45H150.98V110.9H147.07L146.83 110.06H153.59C154.01 108.47 154.4 106.24 154.61 104.71L159.21 105.97C159.09 106.33 158.73 106.57 158.07 106.54C157.17 107.53 155.82 108.92 154.52 110.06H156.02L157.61 108.17C157.61 108.17 159.41 109.46 160.56 110.43C160.47 110.76 160.17 110.91 159.75 110.91H155.18V114.46H155.6L157.37 112.27C157.37 112.27 159.38 113.77 160.62 114.83C160.53 115.16 160.23 115.31 159.81 115.31H155.18L155.19 115.29ZM147.76 104.92C155.52 106.12 151.79 111.9 148.78 109.28C148.81 107.78 148.21 106.12 147.52 105.07L147.76 104.92Z" fill="white"/>
<path d="M174.65 108.35C174.65 106.76 175.91 105.43 177.54 105.43C179.17 105.43 180.43 106.75 180.43 108.35C180.43 109.95 179.17 111.18 177.54 111.18C175.91 111.18 174.65 109.89 174.65 108.35Z" fill="white"/>
<path d="M215.42 111.95C215.21 112.28 214.79 112.31 214.19 112.13C213.2 112.58 211.21 113.24 209.23 113.63C211.21 115.95 213.77 117.6 216.6 118.44L216.54 118.77C215.1 119.19 213.89 120.51 213.44 122.53C211.12 121.12 209.44 119.31 208.21 116.88C206.98 117.87 204.6 119.71 201.69 121.57C201.33 122.29 200.82 122.74 200.37 122.95L198.3 118.47C199.56 117.84 199.77 117.48 199.77 116.64V98.57C199.59 98.6 199.35 98.63 199.08 98.63C197.97 100.52 196.07 103.5 194.33 105.43C197.85 107.26 199.38 110.42 199.38 112.95C199.38 115.96 198.12 117.94 194.39 117.97C194.39 116.83 194.27 115.14 193.97 114.6C193.79 114.27 193.43 113.97 192.89 113.76V121.64C192.89 121.94 191.69 122.9 189.64 122.9H188.92V95.03L193.28 96.65H194.45L196.52 94.64L199.77 97.62V94.97L204.25 96.71H209.21L211.1 94.67L214.89 97.59C214.71 97.83 214.35 98.07 213.72 98.22V108.2C213.72 108.41 212.67 108.92 211.52 109.19L215.43 111.96L215.42 111.95ZM194.31 113.36C194.58 113.36 194.73 113.3 194.91 113.21C195.27 112.97 195.48 112.52 195.48 111.71C195.48 109.67 194.97 107.35 193.56 105.49C193.98 103.48 194.52 99.9 194.73 97.49H192.87V113.37H194.31V113.36ZM203.84 97.54V101.78H209.49V97.54H203.84ZM203.84 107.25H209.49V102.62H203.84V107.25ZM203.84 117.41C205.16 117.17 206.61 116.9 208.05 116.6C206.94 114.31 206.19 111.52 205.67 108.09H203.84V117.41ZM206.16 108.09C206.7 109.8 207.51 111.37 208.51 112.72C209.29 111.64 210.1 110.28 210.61 109.32C210.49 109.35 210.34 109.35 210.22 109.35H209.5V108.09H206.16Z" fill="white"/>
<path d="M244.26 118.72C244.89 119.2 246.76 120.64 247.96 121.73C247.87 122.06 247.54 122.21 247.09 122.21H220.06L219.82 121.37H231.52V118.72H222.38L222.14 117.88H231.52V115.44H228.51V115.83C228.51 116.22 226.53 117.15 224.75 117.15H224.15V106.39L228.75 108.13H238.49L240.26 106.18H220.42L220.18 105.34H241.89L243.87 102.75C243.87 102.75 246.13 104.49 247.48 105.7C247.39 106.03 247.06 106.18 246.64 106.18H240.72L244.54 109.04C244.36 109.31 243.94 109.64 243.25 109.79V115.38C243.22 115.44 242.98 115.56 242.65 115.68C243.43 116.31 244.78 117.42 245.72 118.24C245.63 118.57 245.3 118.72 244.88 118.72H244.28H244.26ZM228.84 103.57C228.84 103.96 226.92 104.86 225.17 104.86H224.57V94.61L229.08 96.32H238.31L240.17 94.25L244.14 97.2C243.96 97.44 243.6 97.74 242.97 97.86V103.3C242.94 103.51 240.75 104.17 239.36 104.17H238.61V103.33H228.84V103.57ZM228.51 108.98V111.36H231.52V108.98H228.51ZM231.52 114.6V112.19H228.51V114.6H231.52ZM228.84 97.16V99.33H238.61V97.16H228.84ZM238.61 102.48V100.16H228.84V102.48H238.61ZM235.72 108.97V111.35H238.82V108.97H235.72ZM238.82 112.19H235.72V114.6H238.82V112.19ZM235.72 117.87H239.9L241.31 116.04C240.71 116.16 240.08 116.25 239.57 116.25H238.82V115.44H235.72V117.88V117.87ZM241.94 121.36L243.95 118.71H235.71V121.36H241.93H241.94Z" fill="white"/>
<path d="M272.74 106.15C273.94 107.17 276.59 108.41 280.17 109.13V109.49C278.37 109.97 277.43 110.75 277.37 113.01C276.02 112.29 274.87 111.18 274.03 109.97C273.76 110.21 273.49 110.3 272.86 110C272.35 110.09 271.75 110.18 271.15 110.24V113.07H272.29L273.97 111.06C273.97 111.06 275.83 112.44 277.01 113.44C276.92 113.77 276.62 113.92 276.2 113.92H271.15V121.77C271.15 121.98 269.98 122.76 268.05 122.76H267.36V116.93C265.65 119.12 263.48 120.81 261.29 121.83L260.96 121.56C262.19 119.88 263.49 117.14 264.3 114.43L267.37 115.75V113.92H262.5L262.26 113.08H267.37V110.49C266.5 110.52 265.63 110.52 264.75 110.52C263.82 111.33 262.71 112.08 261.47 112.72L261.23 112.42C261.41 112.24 261.59 112.06 261.77 111.88H259V115.64C260.02 115.49 261.1 115.28 262.16 115.1L262.22 115.4C260.66 116.6 258.19 118.26 254.4 120.48C254.25 120.9 253.92 121.17 253.56 121.26L251.21 116.84C252.11 116.75 253.62 116.54 255.42 116.24V111.88H252.11L251.87 111.04H255.42V106.44L259.84 106.8C259.78 107.13 259.63 107.37 259 107.46V110.62L260.14 109.09C260.14 109.09 261.46 110.17 262.46 111.1C263.66 109.63 264.59 107.94 265.32 106.17H262.97L262.79 105.57C262.13 106.2 261.05 106.32 259.99 105.45C259.99 105.18 259.96 104.91 259.93 104.61C258.25 105.33 256.14 106.17 253.77 106.99C253.53 107.47 253.2 107.77 252.84 107.92L251.22 103.74C251.22 103.74 251.91 103.59 252.18 103.44C253.08 102.6 254.16 100.01 254.62 98.27H251.55L251.31 97.43H259.4L260.96 95.26C260.96 95.26 262.61 96.64 263.7 97.67H267.22C267.34 96.56 267.4 95.44 267.43 94.36L272.9 95.35C272.81 95.71 272.57 95.98 271.79 96.07C271.7 96.58 271.58 97.12 271.49 97.66H273.47L275.24 95.28C275.24 95.28 277.25 96.9 278.46 98.02C278.37 98.35 278.07 98.5 277.65 98.5H271.28C271.07 99.46 270.8 100.45 270.5 101.42H272.33L274.1 99.07C274.1 99.07 276.08 100.66 277.26 101.78C277.17 102.11 276.87 102.26 276.45 102.26H270.2C269.84 103.31 269.39 104.33 268.88 105.33H274.62L276.39 102.86C276.39 102.86 278.43 104.54 279.61 105.69C279.52 106.02 279.22 106.17 278.8 106.17H272.76L272.74 106.15ZM265.61 105.31C265.97 104.32 266.27 103.3 266.51 102.24H264.35L264.11 101.4H266.67C266.88 100.44 267.03 99.45 267.12 98.48H263.51L263.42 98.18C263.3 98.21 263.18 98.24 263.03 98.24H259.39C258.04 100.04 255.84 102.15 253.95 103.59C255.51 103.53 257.5 103.38 259.63 103.23C259.3 102.15 258.79 101.1 258.28 100.31L258.55 100.16C263.39 101.3 263.96 103.98 263 105.3H265.62L265.61 105.31ZM273.94 109.88C272.98 108.56 272.32 107.14 271.96 106.15H268.38C267.63 107.41 266.76 108.59 265.67 109.64C267.68 108.86 269.85 107.78 271.02 106.96L273.94 109.88ZM271.71 115.08C280.76 116.49 278.26 123.08 274.84 120.94C274.24 118.99 272.71 116.73 271.44 115.26L271.71 115.08Z" fill="white"/>
<path d="M311.28 120.08C312.22 121.63 312.37 122.47 311.92 122.99C310.71 124.35 308.46 123.26 307.28 122.23C306.25 121.29 305.37 120.23 304.67 119.05C302.61 121.14 300.15 122.69 297.21 123.87L296.91 123.54C298.55 122.39 300.06 121.02 301.43 119.45H295.7L294.73 121.03L291.64 119.09C291.85 118.85 292.22 118.54 292.58 118.3V104.42L295.85 106H297.88L299.3 104.06C299.3 104.06 300.45 105.03 301.36 105.88C301.33 105.3 301.3 104.67 301.3 104.06H291.88V109.64C291.88 113.97 291.61 119.94 286.73 123.85L286.4 123.61C288.04 120.43 288.43 116.58 288.55 112.91H287.55C287.34 116.18 286.52 119.76 283.49 122.3L283.07 121.88C284.65 119.03 284.77 115.79 284.8 112.91H283.5L283.23 112.06H288.56C288.59 111.24 288.59 110.42 288.59 109.64V109.25H287.74L286.77 110.86L283.68 108.92C283.89 108.65 284.26 108.34 284.62 108.1V102.49L288.59 102.88V101.82L292.44 103.21H301.29C301.26 102.51 301.26 101.79 301.26 101.06L305.26 101.42C305.11 101.09 304.93 100.72 304.71 100.45C303.8 100.81 302.41 100.93 300.98 100.63L301.22 99.05H298.7L298.46 98.2H301.34L301.82 95.05L307.03 95.84C306.97 96.2 306.73 96.57 305.88 96.63L305.64 98.21H306.73L308.49 95.73C308.49 95.73 310.49 97.43 311.64 98.58C311.55 98.91 311.25 99.06 310.82 99.06H305.49L305.4 99.61C310.43 99.94 308.07 104.19 305.58 102.58C305.55 102.43 305.52 102.25 305.49 102.1C305.34 102.19 305.1 102.28 304.79 102.34V103.22H307.55L309.22 100.89C309.22 100.89 311.13 102.5 312.22 103.59C312.13 103.92 311.83 104.07 311.4 104.07H304.79C304.82 106.98 305.03 109.77 305.58 112.25C306.37 110.16 306.94 107.86 307.25 105.31L311.83 106.95C311.68 107.31 311.31 107.56 310.59 107.5C309.71 110.98 308.53 113.83 307.01 116.17C307.55 117.26 308.28 118.2 309.16 118.96C309.52 119.32 309.74 119.32 309.98 118.87C310.4 118.17 311.04 116.75 311.49 115.6L311.79 115.66L311.27 120.11L311.28 120.08ZM283.67 98.2H288.55L288.19 95.08L293.46 95.41C293.46 95.77 293.22 96.11 292.61 96.29L292.85 98.2H293.37L295.13 95.72C295.13 95.72 297.13 97.42 298.25 98.57C298.19 98.9 297.86 99.05 297.43 99.05H292.95L293.16 100.6C292.55 101.42 290.95 101.75 288.95 101.69L288.65 99.05H283.92L283.68 98.2H283.67ZM288.58 108.38V103.11C288.43 103.32 288.13 103.5 287.49 103.59V108.38H288.58ZM296.31 110.2V106.84H295.46V110.2H296.31ZM298.76 111.05H295.46V114.2H298.76V111.05ZM296.31 118.6V115.05H295.46V118.6H296.31ZM298.79 106.84V109.96L299.76 108.96L301.82 110.48C301.64 109.3 301.52 108.09 301.43 106.81C301.34 106.84 301.22 106.84 301.1 106.84H298.8H298.79ZM299.91 116.63C299.91 116.63 301.15 117.66 302.12 118.57C302.57 117.96 303.03 117.33 303.45 116.63C302.72 114.96 302.27 113.11 301.93 111.15C301.78 111.21 301.66 111.24 301.48 111.27V115.09C301.45 115.3 300.09 115.85 299.21 115.85H298.79V118.15L299.91 116.63Z" fill="white"/>
<path d="M327.05 124.59H325.84V94.29H327.05V124.59Z" fill="white"/>
</svg>
