<svg width="618" height="408" viewBox="0 0 618 408" fill="none" xmlns="http://www.w3.org/2000/svg">
<g clip-path="url(#clip0_2_7)">
<path d="M36.8717 122.433L56.9025 130.554L25.5194 183.133L39.4518 193.32L59.4826 159.05L76.605 168.627L27.5365 230.829L66.7538 230.547C65.7686 227.355 64.6428 224.21 63.4231 221.111C61.7812 216.839 60.0455 211.3 56.2927 208.389C64.502 210.173 71.4917 215.431 76.9803 221.628C81.7182 227.027 87.5351 234.35 87.2068 242.002C86.8784 249.513 78.0592 251.391 73.1336 246.603C72.4768 245.945 68.4894 239.843 68.4894 239.843L50.1943 243.927V264.395C50.1943 276.413 53.009 299.04 35.3706 300.308V247.729L18.2482 252.095L33.072 257.916C33.072 257.916 16.5125 293.36 -0.0469131 297.444C-0.0469131 297.444 17.0754 262.846 16.2311 253.832L13.3226 252.095L2.86154 253.551L0.516014 231.768L10.3672 232.05L28.9438 208.53L1.73569 177.359L11.3054 177.64L36.8717 122.433V122.433Z" fill="white"/>
<path d="M57.8877 249.701C70.319 257.071 85.6587 270.779 85.9402 286.318C86.034 290.919 83.8292 295.519 78.9974 296.411C77.8247 296.646 76.605 296.599 75.526 296.13C72.383 294.721 71.1164 289.933 70.0844 286.929C68.5364 282.563 67.3167 278.103 65.8625 273.737C62.7664 264.442 57.9346 249.701 57.9346 249.701H57.8877Z" fill="white"/>
<path d="M214.381 122.433L234.412 130.554L203.029 183.133L216.961 193.32L236.992 159.05L254.115 168.627L205.046 230.829L244.263 230.547C243.278 227.355 242.152 224.21 240.933 221.111C239.291 216.839 237.555 211.3 233.802 208.389C242.012 210.173 249.001 215.431 254.49 221.628C259.228 227.027 265.045 234.35 264.716 242.002C264.388 249.513 255.569 251.391 250.643 246.603C249.986 245.945 245.999 239.843 245.999 239.843L227.704 243.927V264.395C227.704 276.413 230.519 299.04 212.88 300.308V247.729L195.758 252.095L210.582 257.916C210.582 257.916 194.022 293.36 177.463 297.444C177.463 297.444 194.585 262.846 193.741 253.832L190.832 252.095L180.371 253.551L178.026 231.768L187.877 232.05L206.453 208.53L179.151 177.453L188.721 177.734L214.288 122.527L214.381 122.433Z" fill="white"/>
<path d="M235.397 249.701C247.829 257.071 263.168 270.779 263.45 286.318C263.544 290.919 261.339 295.519 256.507 296.411C255.334 296.646 254.115 296.599 253.036 296.13C249.893 294.721 248.626 289.933 247.594 286.929C246.046 282.563 244.826 278.103 243.372 273.737C240.276 264.442 235.444 249.701 235.444 249.701H235.397Z" fill="white"/>
<path d="M94.6656 177.828L101.843 189.658H168.597V177.828H94.6656Z" fill="white"/>
<path d="M94.6656 208.671L101.843 220.501H168.597V208.671H94.6656Z" fill="white"/>
<path d="M97.9493 240.594V300.261H144.391C144.391 300.261 170.332 301.622 170.332 276.225V240.594H97.9493V240.594ZM149.645 271.577C149.645 294.064 128.16 292.327 128.16 292.327H118.684V250.875H149.645V271.624V271.577Z" fill="white"/>
<path d="M38.3259 316.927C35.5113 323.827 32.4152 330.588 29.2722 337.348C23.7368 349.178 18.0606 361.665 9.80431 371.946C5.62927 377.204 -1.21968 383.307 2.15789 390.865C4.17504 395.372 8.95992 395.935 13.2288 394.668C18.4359 393.071 22.048 389.222 24.5811 384.481C30.4919 373.448 32.6967 359.881 34.6669 347.629C36.1681 338.427 37.2939 329.132 38.0445 319.837C38.0914 319.039 37.9507 317.678 38.279 316.927H38.3259Z" fill="white"/>
<path d="M63.5169 316.927H84.2514V378.518H160.716C160.716 378.518 195.383 378.519 206.969 350.633C206.969 350.633 208.518 397.531 155.462 397.531H81.7182C81.7182 397.531 63.5169 400.066 63.5169 377.204V316.973V316.927Z" fill="white"/>
<path d="M112.773 315.143C114.415 316.504 117.792 316.269 119.763 316.645C122.53 317.161 125.298 318.241 127.878 319.321C141.717 324.907 154.43 335.376 160.059 349.459C162.827 356.407 160.293 364.529 151.615 364.2C142.655 363.872 139.981 355.187 136.369 348.614C130.787 338.427 125.017 327.865 116.948 319.18C115.635 317.771 114.227 316.41 112.726 315.189L112.773 315.143Z" fill="white"/>
<path d="M207.298 320.494C208.705 321.339 210.019 324.203 210.91 325.47C214.147 330.118 217.149 334.906 219.964 339.836C225.734 349.882 229.909 360.961 234.365 371.758C236.617 377.204 238.306 383.307 242.293 387.861C246.984 393.212 254.818 393.963 259.181 387.72C265.748 378.237 259.932 366.407 253.927 358.285C241.918 342.089 224.42 330.634 207.298 320.541V320.494Z" fill="white"/>
<path d="M145.564 147.032V122.433H121.968V147.032H94.6656L101.843 158.862H168.597V147.032H145.564Z" fill="white"/>
<path d="M341.087 124.076C341.087 124.076 341.181 125.766 341.368 128.583L329.688 130.085V333.733C330.297 357.675 315.943 382.462 286.577 408L282.965 405.324C300.744 381.147 309.516 357.299 309.281 333.733V133.653C308.859 131.869 307.687 130.742 305.669 130.367L287.093 128.864L286.811 124.358L340.993 124.076H341.087Z" fill="white"/>
<path d="M358.115 334.014L358.397 329.836L373.971 327.724C375.941 327.536 377.161 326.222 377.583 323.827H377.865V134.545H377.583C377.161 131.963 375.988 130.554 373.971 130.367L358.397 128.864L358.115 124.358L418.255 124.076C418.255 124.076 418.349 125.766 418.536 128.583L398.177 130.367V328.052L418.536 329.226C418.536 329.226 418.442 330.916 418.255 333.733L358.115 334.014V334.014Z" fill="white"/>
<path d="M424.588 334.014L424.869 329.836L440.443 327.724C441.851 327.536 443.024 326.222 444.056 323.827L508.698 124.076H528.448L597.266 328.052L617.906 329.226C617.906 329.226 617.812 330.916 617.625 333.733L557.767 334.014C557.767 332.231 557.861 330.822 558.048 329.836L573.623 327.724C575.218 327.536 576.015 326.315 576.015 324.109L559.549 275.286H466.197L450.342 327.395L485.055 329.179C485.055 329.179 484.962 330.869 484.774 333.686L424.635 333.968L424.588 334.014ZM510.762 129.756L467.98 269.324H557.485L510.809 129.756H510.762Z" fill="white"/>
<path d="M359.194 398.47V365.656H363.041C368.107 373.542 380.023 391.757 382.087 395.325C381.805 390.63 381.852 385.748 381.852 380.396V365.656H384.526V398.47H380.961C376.129 390.912 364.026 371.899 361.681 368.284C361.915 372.556 361.868 377.392 361.868 383.354V398.47H359.194V398.47Z" fill="#FFF100"/>
<path d="M412.391 382.368H395.691V396.029H413.986L413.611 398.47H393.064V365.656H413.235V368.097H395.691V380.021H412.391V382.462V382.368Z" fill="#FFF100"/>
<path d="M425.291 398.47L416.191 365.656H418.912C421.116 373.683 426.042 391.616 426.746 395.419C427.355 392.32 432.703 374.293 435.002 365.656H437.91C440.068 373.636 445.275 392.79 445.791 395.372C446.823 390.677 452.265 373.401 454.47 365.656H457.144L447.152 398.47H444.149C441.992 390.724 436.925 371.946 436.362 369.036C435.518 373.355 430.498 390.349 428.153 398.47H425.198H425.291Z" fill="#FFF100"/>
<path d="M472.812 365.609H475.439V379.88H495V365.609H497.627V398.423H495V382.274H475.439V398.423H472.812V365.609Z" fill="#FFF100"/>
<path d="M533.233 381.805C533.233 390.771 528.448 398.94 518.315 398.94C509.074 398.94 503.679 391.475 503.679 382.039C503.679 372.603 508.886 365.139 518.643 365.139C527.65 365.139 533.233 372.228 533.233 381.805V381.805ZM506.447 381.899C506.447 389.41 510.575 396.498 518.409 396.498C526.853 396.498 530.371 389.597 530.371 381.852C530.371 374.106 526.384 367.58 518.503 367.58C510.106 367.58 506.447 374.528 506.447 381.899V381.899Z" fill="#FFF100"/>
<path d="M542.052 365.609V385.466C542.052 394.151 546.931 396.405 551.575 396.405C557.016 396.405 561.098 394.104 561.098 385.466V365.609H563.771V385.326C563.771 395.607 558.33 398.799 551.528 398.799C544.726 398.799 539.378 395.278 539.378 385.748V365.609H542.099H542.052Z" fill="#FFF100"/>
<path d="M570.808 389.597C571.793 393.916 574.702 396.498 580.049 396.498C586.007 396.498 588.259 393.541 588.259 389.973C588.259 386.405 586.617 384.011 579.44 382.227C572.45 380.49 569.495 378.19 569.495 373.495C569.495 369.129 572.638 365.139 579.721 365.139C586.805 365.139 590.041 369.552 590.464 373.542H587.743C586.992 370.068 584.74 367.533 579.58 367.533C574.889 367.533 572.309 369.74 572.309 373.354C572.309 376.969 574.467 378.331 580.472 379.833C589.713 382.133 591.073 385.842 591.073 389.785C591.073 394.621 587.555 398.799 579.909 398.799C571.699 398.799 568.697 394.01 568.04 389.597H570.761H570.808Z" fill="#FFF100"/>
<path d="M616.405 382.368H599.705V396.029H618L617.625 398.47H597.078V365.656H617.25V368.097H599.705V380.021H616.405V382.462V382.368Z" fill="#FFF100"/>
<path d="M354.081 71.3566L359.757 73.6099C359.57 73.9855 359.007 74.0794 358.444 74.0324C356.849 75.9102 354.832 77.6003 352.533 79.1025C353.706 80.2292 354.832 80.8395 355.911 80.8395C356.99 80.8395 357.412 79.9475 357.599 77.2247C358.678 78.2575 360.179 79.1495 361.493 79.572C360.602 84.7829 359.1 85.9565 355.629 85.9565C352.768 85.9095 350.094 84.3604 347.748 81.7314C344.23 83.3745 340.383 84.7359 336.49 85.6748C335.927 84.5012 334.472 82.3887 333.581 81.3559C337.475 80.5578 341.462 79.3842 344.933 77.788C344.089 76.1919 343.245 74.408 342.588 72.5302L335.974 73.1874L335.598 68.8215C335.598 68.8215 335.082 69.1032 334.613 69.1032C334.097 71.0749 333.159 74.0324 332.361 75.9572L328.937 74.6897C329.594 72.5771 330.438 69.291 330.767 67.0376L335.786 68.5868L341.274 68.0235C340.852 66.1457 340.571 64.174 340.43 62.1553L347.185 62.3431C347.185 62.8126 346.763 63.0942 345.966 63.1881C346.059 64.6434 346.247 66.0987 346.575 67.5071L352.814 66.8968C351.454 66.0518 349.578 65.0659 348.03 64.5026L351.079 61.7798C351.36 61.8736 351.595 62.0145 351.876 62.1084C350.516 61.4042 349.155 60.3245 347.936 59.01C344.652 60.5122 341.087 61.7328 337.569 62.5778C336.912 61.4511 335.458 59.5264 334.519 58.5875C338.131 57.8833 341.837 56.8036 345.168 55.3952C344.324 53.9869 343.526 52.4846 342.869 50.9354L336.302 51.5927L336.161 50.2782L333.769 53.9869C333.769 53.9869 333.44 53.5644 333.253 53.3766V57.6016H328.515V61.1695H334.754V66.0987H328.515V76.7083L335.458 75.7694L335.739 80.6048C329.312 81.7314 322.698 82.8112 318.382 83.4684C318.288 83.8909 317.913 84.1726 317.491 84.2665L315.849 78.3044C317.96 78.0697 320.54 77.788 323.355 77.3655V66.0987H316.646V61.1695H323.355V57.6016H319.227V57.1322L319.133 57.2261C318.288 55.9586 316.506 54.1277 315.239 53.3766C319.133 49.4801 322.041 44.4101 323.73 40.4667L330.063 41.5934C329.969 42.0159 329.641 42.2506 328.89 42.2975L328.796 42.4853C331.282 44.2692 334.144 46.4756 336.02 48.2596L335.88 46.992L341.321 46.4756C340.805 44.5509 340.477 42.5323 340.242 40.4667L346.904 40.7014C346.904 41.1239 346.482 41.4056 345.637 41.5464C345.731 43.0017 346.012 44.504 346.435 45.9123L353.424 45.2081C352.064 44.504 350.328 43.7528 348.921 43.2364L351.454 40.5136C353.424 41.077 356.051 42.1098 357.365 43.0017L355.629 44.9734L359.757 44.5509L360.179 49.1046L348.17 50.3721C348.639 51.2641 349.202 52.156 349.718 52.9541C351.22 51.9682 352.533 50.9824 353.518 49.8557L358.96 52.0621C358.772 52.4377 358.209 52.5316 357.646 52.4846C356.239 53.893 354.55 55.2074 352.627 56.3811C353.753 57.4139 354.832 57.9772 355.77 57.9772C356.802 57.9772 357.13 57.273 357.365 54.8788C358.35 55.8177 359.757 56.7566 361.024 57.1791C360.179 61.8737 358.772 62.9064 355.629 62.9064C355.113 62.9064 354.363 62.9064 353.19 62.5309C354.644 63.1412 356.051 63.9392 356.943 64.5965L354.785 66.5212L360.367 66.0048L360.789 70.5585L353.94 71.2627L354.081 71.3566ZM318.992 76.7083C318.757 74.4549 317.913 70.981 317.069 68.2582L320.868 67.2254C321.853 69.8074 322.651 73.2813 322.932 75.5347L318.992 76.7083ZM332.737 52.8132C331.095 51.0293 328.656 48.9168 326.404 47.1329C325.325 49.0107 324.152 50.9354 322.745 52.8132H332.737ZM347.983 71.9668C348.452 73.1874 349.015 74.2672 349.578 75.3C351.36 74.1263 352.861 72.8588 353.94 71.4035L347.983 71.9668V71.9668Z" fill="white"/>
<path d="M390.671 43.1426H404.744L405.964 42.9548C405.964 42.9548 406.105 43.0487 409.67 44.4101C409.67 44.6918 409.436 44.9735 409.201 45.1612C407.747 49.2924 405.87 54.3625 403.759 59.4795C407.981 64.4087 409.529 67.8357 409.529 70.8872C409.529 80.0884 403.29 80.0415 398.834 79.9006C398.834 78.3045 398.083 75.8633 397.098 74.2672C398.458 74.408 399.725 74.408 400.616 74.408C403.525 74.408 403.759 72.3425 403.759 70.6524C403.759 68.0235 402.164 65.1599 397.849 60.4653C399.397 56.1464 400.757 52.1091 401.789 48.5413H396.394V85.8627H390.718V45.9124H390.39C389.029 49.1516 387.481 52.1091 385.699 54.9728H389.217V59.9959H382.134C381.102 61.2634 380.07 62.437 378.944 63.6107H387.528V85.4402H382.087V83.7501H374.253V86.0035H368.999V71.4974C368.201 72.0138 367.31 72.5302 366.465 72.9527C365.903 71.7322 364.448 69.4319 363.51 68.3052C365.433 67.4132 367.263 66.3335 368.999 65.1129V63.5637H371.11C372.564 62.437 373.924 61.2634 375.144 59.949H364.448V54.9258H372.939V50.3252H366.465V45.349H372.939V40.5137L379.554 40.8892C379.554 41.3117 379.178 41.5934 378.287 41.7342V45.3021H383.166V48.8699C384.151 47.086 384.995 45.1612 385.699 43.1895L390.718 44.8326V43.0487L390.671 43.1426ZM382.04 71.3566V68.1643H374.206V71.3566H382.04ZM374.206 79.0556H382.04V75.7225H374.206V79.0556ZM378.24 54.9728H379.413C380.492 53.5175 381.43 51.9683 382.368 50.3721H378.287V54.9728H378.24Z" fill="white"/>
<path d="M440.537 81.5437H417.739V77.1778L421.773 72.8588C428.669 65.7232 432.703 61.0286 432.703 56.1463C432.703 52.9541 431.014 50.3252 427.027 50.3252C424.353 50.3252 421.914 51.7335 420.225 52.9541L418.255 47.8371C420.506 46.1001 424.259 44.5509 428.481 44.5509C436.268 44.5509 439.834 49.5271 439.834 55.4422C439.834 61.9206 435.471 67.2254 430.17 72.5771L427.121 75.5816V75.6755H440.49V81.5906L440.537 81.5437Z" fill="white"/>
<path d="M444.947 63.3759C444.947 52.2969 449.028 44.457 457.237 44.457C465.447 44.457 469.153 52.9541 469.153 63.0473C469.153 75.1122 464.696 82.0131 457.003 82.0131C448.512 82.0131 444.947 73.5161 444.947 63.3759V63.3759ZM457.097 76.3797C460.38 76.3797 462.022 71.7321 462.022 63.2351C462.022 54.738 460.521 50.1374 457.144 50.1374C454.047 50.1374 452.077 54.5502 452.077 63.2351C452.077 71.9199 453.86 76.3797 457.05 76.3797H457.097Z" fill="white"/>
<path d="M188.534 23.097C189.05 33.9882 190.082 44.457 191.63 53.1418C194.632 46.4287 196.884 38.8236 198.385 30.4674L207.626 32.439C207.439 33.0493 206.782 33.4718 205.562 33.4718C203.076 45.302 199.37 55.7708 194.069 64.4556C196.133 71.4974 198.619 75.7694 201.528 75.7694C203.404 75.7694 204.436 71.0279 204.812 60.5122C206.453 62.2961 209.08 64.2678 211.145 65.1598C209.878 79.9945 207.298 83.8439 200.683 83.8439C195.429 83.8439 191.489 79.4781 188.487 72.3424C184.734 76.8022 180.324 80.6517 175.258 83.8439C174.132 82.2948 171.646 79.5719 170.051 78.1636L170.755 77.835C169.113 76.1919 167.002 74.408 164.515 72.5302C160.903 76.8022 155.931 80.5108 148.8 83.2337C148.05 81.4967 146.126 78.8678 144.578 77.5533C151.005 75.2999 155.555 72.2485 158.886 68.6337C157.104 67.4132 155.18 66.3334 153.491 65.3006L152.647 67.3662L146.83 64.1739C148.378 60.2306 150.348 54.9258 152.131 49.4332H146.22V42.9078H154.195C155.039 40.2319 155.837 37.65 156.494 35.2558H147.487V28.8243H178.026V35.2558H164.375V35.3496L165.407 35.4435C165.219 36.1477 164.703 36.4763 163.436 36.5702C162.827 38.5419 162.17 40.7014 161.372 42.9078H179.714V49.4332H173.804C172.772 55.3483 171.317 61.2633 168.503 66.6151C170.989 68.399 173.288 70.136 174.836 71.6852L171.411 77.3655C177.087 73.8446 181.779 69.1971 185.625 63.6576C182.811 52.6724 181.262 38.2602 180.559 23.1439H144.015V40.6544C144.015 53.3766 142.796 71.7321 135.29 83.6562C134.07 82.2009 130.834 79.6189 129.098 78.7739C135.806 67.7887 136.463 52.156 136.463 40.6544V15.6327H180.277C180.09 11.5954 180.043 7.46425 180.043 3.42697L190.316 4.03725C190.316 4.78838 189.613 5.25783 188.158 5.49255V15.6327H201.199C198.713 13.1446 194.491 9.85845 190.926 7.55814L195.711 3.28613C199.745 5.58644 204.718 9.10733 207.11 11.6893L202.982 15.6327H209.174V23.097H188.44H188.534ZM159.308 49.4332C158.182 52.6254 157.057 55.8647 155.884 58.963C158.182 60.1836 160.622 61.545 162.92 63.0003C165.172 58.7753 166.345 54.1746 167.189 49.4332H159.308V49.4332Z" fill="#FFF100"/>
<path d="M299.243 43.2834H285.029C289.767 47.5554 295.255 51.0763 301.072 53.4235C299.29 54.9727 296.803 58.0711 295.584 60.1367C292.065 58.4936 288.735 56.428 285.545 54.0338C285.123 54.2216 284.606 54.2216 284.09 54.1277C281.417 56.428 276.632 60.1367 273.348 62.2962L268.375 58.165C271.612 55.583 276.256 51.4519 278.93 48.4004C277.382 46.7573 275.834 45.1612 274.38 43.3303H246.187C244.545 45.3959 242.762 47.3676 240.886 49.2454C244.732 51.9213 249.189 55.4891 251.347 58.165L246.093 63.4229C244.123 60.7 239.572 56.6628 235.726 53.7991C232.723 56.2872 229.393 58.5875 225.781 60.6531C224.514 58.8692 221.559 56.1933 219.588 55.0666C225.921 51.7335 231.269 47.7901 235.726 43.3303H221.23V36.6172H241.449C243.091 34.4577 244.545 32.2513 245.811 29.9979H230.378V23.6603H249.001C249.846 21.6887 250.643 19.717 251.253 17.7453H225.968V11.126H253.129C253.739 8.54402 254.162 5.96204 254.49 3.427L264.857 4.27201C264.669 5.11703 264.013 5.72731 262.699 5.8212C262.371 7.55817 261.996 9.34209 261.573 11.126H295.021V17.7453H259.791C259.087 19.717 258.43 21.6887 257.633 23.6603H291.69V29.9979H273.958C275.318 32.2982 276.866 34.4577 278.602 36.6172H299.289V43.3303L299.243 43.2834ZM225.312 73.6569C231.832 71.5913 241.777 68.1643 251.394 64.8312L252.66 71.0749C244.592 74.3141 236.101 77.7881 230.612 79.8067C230.612 80.5109 230.19 81.0273 229.58 81.3559L225.312 73.61V73.6569ZM255.944 45.4429L265.795 45.9593C265.702 46.6634 265.279 47.1799 263.919 47.3207V76.2389C263.919 82.999 261.198 83.8909 247.876 83.8909C247.547 81.9192 246.421 79.1495 245.389 77.2717C247.688 77.3656 250.033 77.4594 251.722 77.4594C255.475 77.4594 255.944 77.4595 255.944 76.0042V45.4429ZM254.724 29.9979C253.599 32.2513 252.332 34.4577 250.972 36.6172H269.595C268.235 34.4577 266.921 32.2513 265.842 29.9979H254.771H254.724ZM290.33 82.154C284.419 78.4453 273.629 73.0466 265.186 69.5257L269.407 63.7045C277.898 66.9437 288.594 72.2016 294.598 75.5347L290.33 82.154Z" fill="#FFF100"/>
<path d="M123.797 1.69002C123.797 1.69002 123.797 1.54919 123.797 1.50224C123.797 1.40835 123.797 1.31446 123.75 1.22057C123.75 1.22057 123.703 1.07974 123.656 1.03279C123.656 0.938902 123.562 0.845012 123.516 0.751122C123.516 0.704177 123.422 0.657232 123.375 0.563341C123.328 0.469451 123.234 0.422506 123.187 0.375561C123.093 0.375561 123.046 0.281671 123 0.234726C123 0.234726 122.906 0.140835 122.859 0.140835H122.765C122.671 0.140835 122.624 0.0938902 122.53 0.0938902C122.437 0.0938902 122.343 0.0938902 122.202 0.0938902H122.108H105.971C105.549 0.0938902 105.127 0.234726 104.798 0.516396L92.32 10.8913C91.804 11.3138 91.6164 11.971 91.7571 12.5813H76.5112C76.089 12.5813 75.6668 12.7221 75.3384 13.0038L66.7538 20.1395L58.1691 13.0038C57.8407 12.7221 57.4186 12.5813 56.9964 12.5813H41.8442C41.8442 12.5813 41.8912 12.3466 41.8912 12.2057C41.8912 11.5954 41.6097 11.079 41.1406 10.7974L28.7093 0.422506C28.3809 0.140835 27.9587 0 27.5365 0H11.3524C11.3524 0 11.2585 0 11.2116 0C11.1178 0 11.024 0 10.9302 0C10.8363 0 10.7894 0 10.6956 0.0469451H10.6018C10.5549 0.0469451 10.508 0.0938902 10.4611 0.140835C10.4141 0.18778 10.3203 0.234726 10.2734 0.281671C10.1796 0.328616 10.1327 0.422506 10.0858 0.469451C10.0389 0.516396 9.99195 0.563341 9.94504 0.657232C9.89813 0.751122 9.85122 0.845012 9.80431 0.938902C9.80431 0.985847 9.7574 1.03279 9.7574 1.07974C9.7574 1.07974 9.71049 1.31446 9.71049 1.40835C9.71049 1.50224 9.71049 1.54919 9.71049 1.59613V17.6514C9.71049 18.1678 9.94504 18.6372 10.3203 18.9658L22.0949 28.7304V43.9406C22.0949 44.457 22.3294 44.9265 22.7047 45.2551L35.1829 55.63C35.5113 55.9116 35.9335 56.0525 36.3557 56.0525C36.5903 56.0525 36.8717 56.0055 37.1063 55.8647C37.7161 55.583 38.1383 54.9727 38.1383 54.2685V38.3542C38.1383 37.8378 37.9038 37.3683 37.5285 37.0397L25.8008 27.2751V13.8488H39.2172C39.2172 13.8488 39.2172 13.9427 39.2172 13.9896C39.2172 14.0366 39.2172 14.1305 39.2172 14.1774V30.1388C39.2172 30.6552 39.4518 31.1246 39.8271 31.4532L51.5547 41.2178V56.428C51.5547 56.9444 51.7893 57.4139 52.1646 57.7425L65.6279 69.0093C65.9563 69.291 66.3785 69.4318 66.8007 69.4318H66.9414C67.3636 69.4318 67.7858 69.291 68.1142 69.0093L81.5775 57.7425C81.9528 57.4139 82.1873 56.9444 82.1873 56.428V41.2178L93.915 31.4532C94.2903 31.1246 94.5248 30.6552 94.5248 30.1388V14.2244C94.5248 14.2244 94.5248 14.0366 94.5248 13.9896C94.5248 13.9896 94.5248 13.8958 94.5248 13.8488H107.988V27.3221L96.2605 37.0866C95.8852 37.4153 95.6507 37.8847 95.6507 38.4011V54.3155C95.6507 55.0197 96.026 55.63 96.6827 55.9116C96.9173 56.0525 97.1987 56.0994 97.4333 56.0994C97.8555 56.0994 98.2777 55.9586 98.6061 55.6769L111.037 45.302C111.413 44.9734 111.647 44.504 111.647 43.9876V28.7774L123.422 19.0128C123.797 18.6842 124.032 18.2147 124.032 17.6983V1.73697L123.797 1.69002ZM55.0261 39.8564V26.3362H78.3407V39.8564L66.6599 49.621L54.9792 39.8564H55.0261Z" fill="white"/>
<path d="M81.1553 76.0042C81.1553 75.7225 81.1553 75.4878 81.2022 75.2061C81.5306 75.2061 81.859 75.1592 82.1873 75.0653C82.1873 75.0653 82.2342 75.0653 82.2812 75.0653C82.8441 74.8775 83.3601 74.455 83.8292 73.7039C84.0638 73.3283 84.6267 72.2486 84.2514 71.3097C83.7354 69.9482 82.4688 69.8074 80.1233 69.5727C77.7308 69.338 75.9951 69.6666 74.494 70.5116C73.7903 70.8871 73.1805 71.4505 73.1336 71.4974C73.1336 71.4974 73.0867 71.5444 73.0398 71.5913C71.6794 72.8119 70.319 74.7836 70.4597 76.6614C70.5535 77.7411 71.1164 78.68 72.1016 79.3842C72.1485 79.3842 72.1954 79.3842 72.2892 79.4312C72.1016 79.3842 71.9608 79.3842 71.7263 79.3842C71.6794 79.3842 71.5855 79.3842 71.5386 79.3842C70.0844 79.525 68.4425 80.7926 68.4425 82.2479V82.3418C68.5833 84.4543 70.5535 85.8626 73.4151 85.8626C74.7286 85.8626 75.9951 85.581 76.8864 85.0646C80.4986 83.1868 81.1084 79.7128 81.2491 76.3328V76.0042H81.1553ZM75.3384 75.3469C75.3384 75.3469 75.2915 75.3 75.2446 75.253L75.526 75.0183C75.8075 74.6897 75.9951 74.5489 76.1359 74.455C75.8544 74.7366 75.6199 75.0653 75.4791 75.3939C75.4791 75.3939 75.4322 75.3939 75.3853 75.3939L75.3384 75.3469ZM73.2743 79.7128C73.9311 79.7128 74.494 79.4312 74.9631 79.1025C74.9631 80.0414 74.9631 80.9803 74.5878 81.3559C74.3533 81.5906 74.0249 81.7784 73.7434 81.8723C73.7434 81.8254 73.7434 81.7784 73.7434 81.7784C73.6496 81.262 73.5089 79.9476 72.4299 79.5251C72.7114 79.6189 72.9929 79.7128 73.3212 79.7128H73.2743Z" fill="white"/>
<path d="M66.1439 79.7597C65.8624 79.6659 65.581 79.6189 65.3464 79.6189C65.3933 79.525 65.4403 79.3842 65.4872 79.2903C65.8624 78.3044 66.1908 77.3655 66.2377 76.5675C66.2377 76.1919 66.1908 75.8164 65.9563 75.5347C66.5661 74.9244 67.0352 74.0794 67.0821 73.1405C67.0821 72.5771 66.8945 72.0138 66.4254 71.6382C65.9563 71.2627 65.3464 71.1688 64.7835 71.3096C64.7835 71.3096 64.7366 71.3096 64.6428 71.3096C64.4082 71.3096 64.0798 71.2627 63.7046 71.1688C62.9071 71.028 62.1096 71.4035 61.7343 72.1077C61.5467 72.4363 61.359 72.7649 61.1714 73.1405L60.9368 73.563C60.6085 74.1733 60.7023 74.9713 61.1714 75.4877C61.1714 75.4877 61.1714 75.4877 61.2183 75.5347C61.1714 75.5347 61.0307 75.5816 60.9837 75.6755C60.2801 75.0652 59.295 74.6427 58.1222 74.6427C57.3716 74.6427 56.668 74.8305 56.0581 75.1122C55.7298 75.3 55.3545 75.4877 55.0261 75.7694C55.3545 74.0324 55.2607 72.1546 54.4163 70.4646C54.2755 70.1829 54.041 69.9482 53.7595 69.7604C53.525 69.6196 53.1028 69.4318 52.5398 69.4318C52.3053 69.4318 52.0707 69.4318 51.8362 69.5257C51.8362 69.5257 51.7424 69.5257 51.6955 69.5257C51.2733 69.6196 50.8511 69.8074 50.4289 70.0891C50.2412 69.8543 49.9598 69.7135 49.6783 69.5727C49.1623 69.3849 48.5994 69.3379 48.1772 69.3379C47.3328 69.3379 46.16 69.5257 45.4563 70.3707C44.8934 71.0749 44.7527 71.7791 44.612 72.3424C44.565 72.6241 44.5181 72.8119 44.4243 72.9996C44.3774 73.1405 44.3305 73.2813 44.2367 73.4222C44.1429 72.0138 43.5799 70.6993 42.1726 69.9013C42.0319 69.8074 41.9381 69.7604 41.7973 69.7135C41.6566 69.6665 41.422 69.5257 41.1875 69.4788C40.5776 69.291 40.0147 69.1501 39.4518 69.1501C37.0594 69.1501 35.8866 71.0749 35.4644 71.7791C35.1829 72.2016 34.9015 72.718 34.6669 73.1874C34.6669 73.1874 34.6669 73.2344 34.6669 73.2813C33.4941 76.098 34.62 77.788 36.0273 78.5392C36.0273 78.5392 36.1211 78.5392 36.1681 78.5861C36.4495 78.68 36.6841 78.727 36.9655 78.727C36.5433 80.2292 36.4026 81.7784 36.8717 83.0459C37.7161 85.3932 39.5456 85.6748 40.2962 85.6748C41.5159 85.6748 42.6886 85.0645 43.6268 84.3604C44.049 84.9237 44.7527 85.534 45.9724 85.7218C46.16 85.7218 46.3476 85.7218 46.5353 85.7218C48.3648 85.7218 49.6783 84.4543 50.4758 83.6562L50.7103 83.4215C51.1325 82.999 51.6485 82.4356 52.1646 81.7784C52.5868 84.1726 54.3224 85.6279 56.7149 85.6279C57.8407 85.6279 59.0135 85.2993 60.0455 84.689C60.3739 85.0645 60.843 85.4401 61.4998 85.6279C61.7343 85.6748 61.9689 85.7218 62.2034 85.7218C63.7046 85.7218 65.065 84.5481 65.581 83.9848C66.2846 83.3276 67.0821 82.2948 67.0821 81.1681C67.0821 80.5109 66.6599 79.9006 66.097 79.6189L66.1439 79.7597ZM49.819 74.8775C49.819 74.8775 49.819 74.7836 49.819 74.7366L50.0067 75.253C50.4758 77.6472 49.2561 79.3842 48.5055 80.1823C48.5055 80.0884 48.5055 79.9945 48.5524 79.9006V79.7128C48.9277 78.0228 49.2561 76.5675 49.7721 74.8775H49.819Z" fill="white"/>
<path d="M97.2925 79.7129C97.4802 79.1495 97.7147 78.4923 97.9493 77.7412C98.0431 77.4595 98.1369 77.2248 98.2307 77.037C98.3715 76.5675 98.2777 76.0511 98.0431 75.6286C98.3715 75.2531 98.6998 74.6897 98.8875 73.9856C98.8875 73.8447 98.9344 73.7039 98.9344 73.563V73.0936C98.9344 72.5772 98.6999 72.0608 98.2307 71.7322C97.8086 71.4036 97.2456 71.3097 96.6827 71.4505C96.3543 71.4975 96.2136 71.4975 95.7445 71.3566C95.1346 71.1688 94.3841 71.3566 93.915 71.8261C93.2582 72.4833 92.9768 73.2344 92.7891 73.8917L92.6953 74.1264C92.6015 74.455 92.5546 74.7836 92.6953 75.1592C92.6953 75.2061 92.6953 75.3 92.7891 75.347V75.4409C92.5546 75.1592 92.2262 74.9245 91.804 74.8775C90.9127 74.7367 90.1621 75.0653 89.6461 75.3939C89.0363 75.0183 88.2857 74.7836 87.3944 74.7836C85.5649 74.7836 82.0466 77.1778 81.1553 80.2762C80.7331 81.7784 81.0146 83.4685 81.859 84.5952C82.7033 85.6749 84.0168 86.1913 85.3303 86.0035C86.0809 85.9096 86.7377 85.581 87.2537 85.2054C87.4882 85.4871 87.8166 85.7218 88.2388 85.8627C88.2857 85.8627 88.3326 85.8627 88.3795 85.8627C88.7548 85.9566 89.0832 86.0035 89.4585 86.0035C90.6312 86.0035 91.4287 85.534 91.9916 85.1115C92.2731 85.4402 92.6484 85.7218 93.1644 86.0035C93.399 86.0974 93.6804 86.1443 93.915 86.1443H94.0088C96.026 86.0504 99.122 84.0318 99.0751 81.5437C99.0751 80.5579 98.2307 79.7598 97.1987 79.8067L97.2925 79.7129Z" fill="white"/>
<path d="M69.3807 24.5992H53.2435L40.7653 14.2244H56.9494L69.3807 24.5992Z" fill="#86B629"/>
<path d="M40.7653 14.2244L53.2435 24.5992V40.5136L40.7653 30.1388V14.2244Z" fill="#1A2D76"/>
<path d="M53.1497 40.5135L66.613 51.8273V67.7417L53.1497 56.4279V40.5135Z" fill="#312549"/>
<path d="M40.0147 12.1118H23.8306L11.3524 1.73694H27.5365L40.0147 12.1118Z" fill="#349ACE"/>
<path d="M11.3524 1.73694L23.8306 12.1118V28.0262L11.3524 17.6513V1.73694Z" fill="#1A2D76"/>
<path d="M23.7368 28.0262L36.215 38.4011V54.3155L23.7368 43.9876V28.0262Z" fill="#312549"/>
<path d="M63.986 24.5992H80.1233L92.6015 14.2244H76.4173L63.986 24.5992Z" fill="#86B629"/>
<path d="M92.6015 14.2244L80.1233 24.5992V40.5136L92.6015 30.1388V14.2244Z" fill="#1A2D76"/>
<path d="M80.264 40.5135L66.7537 51.8273V67.7417L80.264 56.4279V40.5135Z" fill="#312549"/>
<path d="M93.399 12.1118H109.536L122.014 1.73694H105.877L93.399 12.1118Z" fill="#349ACE"/>
<path d="M122.014 1.73694L109.536 12.1118V28.0262L122.014 17.6513V1.73694Z" fill="#1A2D76"/>
<path d="M109.63 28.0262L97.1987 38.4011V54.3155L109.63 43.9876V28.0262Z" fill="#312549"/>
<path fill-rule="evenodd" clip-rule="evenodd" d="M79.9356 71.2626C77.8716 71.0749 76.5112 71.3096 75.3384 72.0138C74.7755 72.2954 74.2595 72.7649 74.2595 72.7649C72.8052 74.0794 71.1634 76.6144 72.9929 77.8819C73.3682 78.1166 74.1187 77.6002 74.3533 77.2247C74.4002 77.1308 74.4002 77.0838 74.4002 76.99C74.4002 76.8491 73.6496 76.2858 73.3682 75.9102C73.0398 75.1121 73.3681 74.5019 73.8373 74.0324C74.4002 73.4691 74.8224 72.9057 75.7137 72.671C77.9185 72.0138 79.6542 73.8916 81.6244 73.3752C81.8121 73.2813 82.0466 72.9996 82.1873 72.8118C82.3281 72.5302 82.5626 72.0607 82.4688 71.826C82.375 71.5913 82.1404 71.4504 79.8418 71.2626H79.9356Z" fill="#349ACE"/>
<path fill-rule="evenodd" clip-rule="evenodd" d="M65.2526 72.9997C64.6428 73.1874 63.8922 72.9997 63.2824 72.9058C63.0009 73.3752 62.7664 73.8916 62.4849 74.408C63.5638 75.6286 65.1119 74.3611 65.2057 72.9997H65.2526Z" fill="#349ACE"/>
<path fill-rule="evenodd" clip-rule="evenodd" d="M97.1987 73.516V73.0465C96.4951 73.2343 95.8852 73.1404 95.2754 72.9526C94.8532 73.3282 94.7125 73.9854 94.4779 74.5957V74.7366C96.026 75.206 96.8234 74.8304 97.1987 73.516V73.516Z" fill="#349ACE"/>
<path fill-rule="evenodd" clip-rule="evenodd" d="M79.1382 74.5488C79.1382 74.5488 77.4494 75.253 77.0741 76.0511C76.2297 78.1166 77.4494 81.0272 75.8075 82.5764C75.0569 83.2806 73.0867 84.2664 72.1485 83.0459C71.8201 82.6234 71.9139 81.0272 71.6325 81.0742C70.835 81.1681 70.0844 81.9192 70.0844 82.2478C70.2251 84.4542 74.2125 84.4542 75.9013 83.5623C78.4814 82.2009 79.1851 79.9005 79.3727 76.2388C79.3727 75.6285 79.4196 75.3469 79.4665 74.6427C79.4665 74.5019 79.3258 74.4549 79.1382 74.5019V74.5488Z" fill="#349ACE"/>
<path fill-rule="evenodd" clip-rule="evenodd" d="M63.47 82.3417C63.47 82.3417 63.1416 82.107 63.0947 81.9192C62.7194 80.8864 64.3613 77.788 64.4082 76.4736C63.5638 76.5205 62.8133 76.7083 62.2034 76.9899C61.9689 77.0369 61.6874 77.835 61.3121 79.3372C61.1714 79.7128 61.1245 80.0414 61.0307 80.37C60.7492 81.1211 60.4677 81.6845 59.9048 82.107C59.8579 82.107 59.811 82.2009 59.7172 82.2478C59.7172 82.2478 59.6233 82.2478 59.6233 82.2948C59.6233 82.2948 59.4826 82.3417 59.4357 82.3886C58.1691 83.0459 56.152 82.7173 56.1051 81.0742C57.2309 79.9944 60.843 79.8536 59.9517 77.2716C59.5295 76.4266 57.8407 76.2388 56.8556 76.7083C55.589 77.3186 53.6188 79.525 53.9472 81.6375C54.4632 84.7359 57.7938 84.5481 59.6703 83.0928C59.9048 82.905 60.1394 82.6703 60.327 82.4825C60.4208 82.3886 60.5616 82.3886 60.6554 82.4825C61.1245 82.952 61.3121 83.9848 62.0627 84.1726C63.1416 84.4542 65.4403 82.3886 65.3933 81.4028C65.0181 81.6845 64.7835 82.0131 64.3613 82.2009C64.1268 82.2947 63.7984 82.4356 63.5169 82.3886L63.47 82.3417ZM56.0581 79.7597C55.8236 78.8678 56.2458 78.0697 56.8087 77.5063C57.184 77.1308 57.7469 76.943 58.1222 77.1777C58.1691 77.2247 58.216 77.2716 58.3099 77.3186C58.4037 77.4125 58.4506 77.5063 58.4975 77.6941C58.4975 78.0227 58.4975 78.3983 58.3099 78.7739C58.3099 78.8678 58.3099 78.8678 58.2629 78.9616C57.9346 79.6189 57.3247 80.1353 56.668 80.0883C56.4803 80.0883 56.1989 80.0414 56.1051 79.8536L56.0581 79.7597Z" fill="#349ACE"/>
<path fill-rule="evenodd" clip-rule="evenodd" d="M97.3395 81.4498C96.7765 81.8723 96.542 82.4356 95.5569 82.4356C95.5099 82.4356 95.4161 82.4356 95.4161 82.3886C94.6186 81.3089 96.2136 77.6472 96.5889 76.5205C96.026 76.5675 94.4779 76.7552 94.1964 77.1308C92.9768 78.9147 93.7273 82.4825 90.5843 82.4825C90.5843 82.4825 90.4905 82.4825 90.4905 82.4356C90.4905 82.3886 90.4436 82.2948 90.3967 82.2478C89.693 80.6517 91.8978 78.0228 91.5695 76.5675C90.8658 76.4266 90.256 77.4125 89.3647 77.4594C89.0832 76.943 88.5672 76.5205 87.5351 76.5205C86.5031 76.5205 83.6885 78.3514 82.9848 80.7456C82.4688 82.5764 83.407 84.5012 85.2365 84.2665C86.2686 84.1256 87.066 83.0928 87.7228 82.5295C87.8166 82.4825 87.9104 82.4825 87.9573 82.5295C88.2857 83.0459 88.661 84.1256 88.9425 84.2195C91.0534 84.689 91.288 82.8112 92.6953 82.7173C93.1175 83.4214 93.2582 84.0787 94.0557 84.4542C95.3692 84.4073 97.4333 82.905 97.4333 81.5906C97.4333 81.5906 97.4333 81.5906 97.3864 81.5906L97.3395 81.4498ZM85.7995 82.5764C84.1107 82.107 85.9402 78.4922 86.3624 77.8819C86.6438 77.5064 87.0191 77.0839 87.3475 76.99C87.5821 76.943 87.8635 76.99 88.0981 77.0839C89.7869 78.0228 87.4413 82.9989 85.7525 82.5295L85.7995 82.5764Z" fill="#349ACE"/>
<path fill-rule="evenodd" clip-rule="evenodd" d="M52.2584 71.2157H52.1177C51.4609 71.4035 50.8042 71.9199 50.898 72.1546C51.1794 73.0466 51.4609 73.9385 51.7424 74.8774C52.3522 77.788 51.0387 80.1822 49.6783 81.5436C49.2561 82.0131 48.2241 83.2806 47.239 82.7642C46.2069 82.2947 46.6291 80.4639 46.8637 79.3841C47.239 77.6002 47.5673 76.1449 48.0833 74.408C48.3648 73.4221 48.8808 72.3424 49.0216 71.2157C48.5055 71.0279 47.192 71.0279 46.8637 71.4974C46.3477 72.1546 46.4415 72.9057 46.0662 73.7507C45.0811 76.051 44.5651 78.9616 43.5799 81.1681C43.2516 81.9192 41.5159 83.797 40.7184 82.2478C40.4369 81.4967 40.906 80.4639 41.0937 79.9005C41.7973 77.6941 43.7676 72.8118 41.2344 71.4504C41.2344 71.4504 41.1406 71.4504 41.0937 71.4035C40.9529 71.3565 40.6715 71.2626 40.6715 71.2626C38.7481 70.5585 37.763 71.5443 37.0124 72.8118C36.731 73.1874 36.4964 73.6099 36.3088 74.0793C35.7928 75.253 35.699 76.5674 36.8248 77.1308C37.1063 77.2247 37.6223 76.8491 37.763 76.5205C37.763 76.4266 37.8099 76.3797 37.763 76.3327C37.763 75.6755 37.1532 75.206 36.9655 74.6427C36.6372 73.4221 38.3259 71.4974 39.5456 71.826C40.7184 72.2954 40.4838 73.8916 40.0616 75.1121C39.5456 76.8491 37.7161 80.5578 38.4667 82.6703C39.5925 85.7217 42.8294 83.2336 43.8614 81.7783H44.0959C44.9872 82.5764 44.4712 83.9378 46.2069 84.1725C47.5673 84.4073 48.7401 82.9989 49.4438 82.3886C51.5547 80.4169 54.6977 75.253 52.7275 71.3096C52.7275 71.3096 52.5399 71.2157 52.1646 71.3096L52.2584 71.2157Z" fill="#349ACE"/>
</g>
<defs>
<clipPath id="clip0_2_7">
<rect width="618" height="408" fill="white"/>
</clipPath>
</defs>
</svg>
