<?xml version="1.0" encoding="utf-8"?>
<!-- Generator: Adobe Illustrator 26.5.0, SVG Export Plug-In . SVG Version: 6.00 Build 0)  -->
<svg version="1.1" id="圖層_1" xmlns="http://www.w3.org/2000/svg" xmlns:xlink="http://www.w3.org/1999/xlink" x="0px" y="0px"
	 viewBox="0 0 28 19" style="enable-background:new 0 0 28 19;" xml:space="preserve">
<style type="text/css">
	.st0{fill:#FFFFFF;}
</style>
<path class="st0" d="M24.4,15.8c-0.1,0.1-0.3,0.2-0.3,0.3c-0.1,0-0.2,0.1-0.2,0.1c0.3-0.1,0.4-0.2,0.7-0.4
	C24.5,15.7,24.5,15.8,24.4,15.8L24.4,15.8z M25.1,6.6c0.1,0.1,0.1,0,0.2,0c-0.1-0.1,0-0.1-0.1-0.2C25.1,6.5,25.1,6.5,25.1,6.6z
	 M19.2,11c0.2,0,0.2-0.2,0.3-0.4C19.3,10.7,19.2,10.8,19.2,11z M23.2,9.1c-0.1,0.3,0,0.1,0.2-0.1C23.3,9,23.2,9,23.2,9.1z M22.6,6.1
	c0-0.1,0-0.1,0-0.2c-0.1,0-0.1,0-0.2,0.1C22.5,6,22.5,6,22.6,6.1L22.6,6.1z M24.7,15.7c0,0,0.1-0.1,0.1-0.1c-0.1,0-0.1,0-0.2,0
	C24.6,15.6,24.6,15.7,24.7,15.7z M20.4,7.8c0,0-0.1,0.1-0.1,0.2C20.4,8,20.5,7.9,20.4,7.8L20.4,7.8z M22.3,4.8c0,0-0.2,0.1-0.1,0.2
	C22.3,4.9,22.3,4.8,22.3,4.8z M16.8,10.8c0,0-0.1,0.2-0.1,0.2C16.8,11.1,16.8,10.9,16.8,10.8z M23.7,15.4c0.1,0,0.1,0,0.1-0.1
	C23.7,15.3,23.7,15.3,23.7,15.4L23.7,15.4z M17.2,13.4c0-0.1,0-0.3-0.1-0.1C17.2,13.2,17.1,13.3,17.2,13.4L17.2,13.4z M25,6.9
	c0,0,0.1,0,0.1,0.1c0,0,0,0,0.1-0.1C25.1,6.9,25.1,6.9,25,6.9z M23.3,8.7c0,0-0.2,0-0.2,0C23.2,8.7,23.3,8.7,23.3,8.7L23.3,8.7z
	 M22.9,6.1c0,0,0-0.1,0-0.1C22.9,6,22.9,6.1,22.9,6.1L22.9,6.1z M24.6,6.6C24.6,6.6,24.5,6.5,24.6,6.6C24.6,6.6,24.6,6.6,24.6,6.6z
	 M21.8,8.6C21.8,8.6,21.8,8.7,21.8,8.6C21.8,8.6,21.8,8.6,21.8,8.6z M21.1,9C21.1,9,21.1,9,21.1,9C21.1,9.1,21.1,9.1,21.1,9z
	 M24.8,15.6C24.8,15.6,24.8,15.6,24.8,15.6C24.8,15.6,24.8,15.6,24.8,15.6L24.8,15.6L24.8,15.6z M20.7,13.5
	C21,13.3,20.9,13.1,20.7,13.5C20.7,13.5,20.7,13.5,20.7,13.5L20.7,13.5z M19.9,16.3c0.1,0,0.1-0.1,0.1-0.1c-0.1,0-0.1,0.1-0.2,0.2
	C19.8,16.4,19.9,16.3,19.9,16.3z M20.1,16.1c0.1,0,0.1,0,0.1-0.1C20.1,16,20.1,16,20.1,16.1C20.1,16.1,20.1,16.1,20.1,16.1
	L20.1,16.1z M19.9,16.6L19.9,16.6C19.8,16.7,19.9,16.6,19.9,16.6L19.9,16.6C19.9,16.6,19.9,16.6,19.9,16.6c0-0.1,0-0.1-0.1-0.1
	C19.8,16.6,19.8,16.6,19.9,16.6C19.8,16.6,19.8,16.6,19.9,16.6L19.9,16.6z M20,16.5c0.1-0.1,0.4-0.3,0.4-0.4
	c-0.2,0.1-0.4,0.2-0.5,0.3C19.9,16.4,20,16.5,20,16.5L20,16.5C20,16.5,20,16.5,20,16.5C20,16.5,20,16.5,20,16.5L20,16.5z M21.5,11.9
	c0.2,0,0.9-0.3,0.4-0.4C21.8,11.6,21.3,12.1,21.5,11.9z M22.4,13.3c-0.1,0-0.3-0.1-0.3,0C22.2,13.3,22.3,13.5,22.4,13.3z M24.3,11.2
	c0-0.1-0.1,0-0.2,0C24.1,11.3,24.3,11.2,24.3,11.2z M21.8,15.1c0,0,0-0.1,0-0.2C21.8,14.9,21.8,15,21.8,15.1z M22.3,16.1
	c0,0-0.1,0-0.1,0C22.2,16.1,22.2,16.1,22.3,16.1z M19.8,16.7C19.8,16.7,19.8,16.7,19.8,16.7L19.8,16.7z M23,11.7c0,0,0.1-0.1,0-0.2
	c0,0,0-0.1,0.1-0.1c0,0,0,0.1,0,0.1c0.1,0,0.3-0.1,0.3-0.2c-0.2,0.1,0.1-0.2,0.1,0c0,0,0,0,0.1,0C23.5,11.6,23.1,11.7,23,11.7
	L23,11.7z M18.2,12.7c0.1,0.4,0.2,0.9,0.3,1.3C18.2,13.8,18.2,13.1,18.2,12.7z M19.1,9.1c-0.1,0.1-0.2,0.1-0.3,0.2
	C18.7,9.2,19.1,8.9,19.1,9.1z M21.2,8.7C20.7,9.3,20.6,9,21.2,8.7L21.2,8.7z M22.6,16.5C22.6,16.5,22.6,16.5,22.6,16.5
	c-0.1,0.1,0,0.2-0.1,0.2c0-0.1,0-0.1-0.1-0.2c0,0,0.1,0,0.1,0C22.3,16.2,22.5,16.4,22.6,16.5z M25.4,7.4c-0.1,0.1-0.3,0.2-0.4,0.2
	C25.1,7.5,25.2,7.5,25.4,7.4L25.4,7.4z M22.8,13.9c0-0.1,0.1-0.2,0.2-0.2C22.9,13.7,22.9,13.8,22.8,13.9
	C22.8,13.8,22.8,13.8,22.8,13.9z M23,15.3C23,15.3,23.1,15.3,23,15.3c0,0.1,0,0.1,0,0.2C22.9,15.5,23,15.4,23,15.3
	C22.9,15.3,23,15.3,23,15.3z M20.4,10.8c0,0-0.2,0.2-0.2,0.1C20.2,10.8,20.3,10.9,20.4,10.8L20.4,10.8z M23.2,13.4
	c0,0.1-0.1,0.1-0.1,0.2c0,0,0-0.1,0-0.1C23.1,13.5,23.2,13.4,23.2,13.4z M22.4,16.2C22.4,16.2,22.5,16.2,22.4,16.2
	C22.5,16.3,22.3,16.2,22.4,16.2z M21.2,13c0,0.1-0.1,0.2-0.1,0.2C21.1,13.1,21.1,13.1,21.2,13L21.2,13z M25.1,11.1
	c0,0,0,0.1-0.1,0.1C25,11.2,25,11.1,25.1,11.1z M22.4,14.3c-0.1,0-0.2,0.1-0.2,0.1C22.2,14.4,22.3,14.2,22.4,14.3z M21.9,12.5
	c0,0-0.1,0.1-0.1,0C21.9,12.5,21.9,12.5,21.9,12.5z M18.1,12.3c0,0.1,0.1,0.2,0,0.3C18.1,12.5,18.1,12.4,18.1,12.3L18.1,12.3z
	 M19.7,8.9C19.6,9.2,19.5,9,19.7,8.9L19.7,8.9z M22.3,13c0,0,0,0.1-0.1,0.1C22.2,13,22.3,13,22.3,13z M23.4,13.1
	c0,0,0.1-0.1,0.1-0.1C23.5,13.1,23.5,13.2,23.4,13.1z M21.6,12.6c0,0-0.1,0.1-0.2,0.1c0,0,0,0,0,0C21.4,12.7,21.5,12.7,21.6,12.6
	L21.6,12.6z M18.2,10.5C18.2,10.5,18.3,10.3,18.2,10.5C18.3,10.5,18.3,10.5,18.2,10.5z M27.1,12.2c0,0-0.1,0.2-0.1,0.1
	C27,12.2,27.1,12.1,27.1,12.2L27.1,12.2z M23.4,13.2c0,0-0.1,0.1-0.1,0.1C23.3,13.2,23.3,13.2,23.4,13.2z M18.3,10.4
	C18.3,10.2,18.5,10.3,18.3,10.4L18.3,10.4z M22.6,13.9c0,0,0.1,0,0.1,0c0,0,0,0,0,0C22.7,14,22.6,13.9,22.6,13.9z M27.5,11
	c0,0,0-0.1,0.1-0.1C27.6,10.9,27.5,11,27.5,11z M21.7,15.4C21.6,15.4,21.6,15.3,21.7,15.4L21.7,15.4L21.7,15.4z M20.4,10.8
	c0,0,0.1-0.1,0.1-0.1C20.5,10.8,20.4,10.8,20.4,10.8z M23,13.6C23,13.6,23.1,13.5,23,13.6C23.1,13.6,23,13.6,23,13.6z M23.9,8.5
	C23.9,8.5,23.9,8.5,23.9,8.5L23.9,8.5C23.9,8.5,23.9,8.5,23.9,8.5z M22.3,12.2C22.3,12.2,22.3,12.3,22.3,12.2
	C22.3,12.2,22.3,12.2,22.3,12.2z M21.7,8.4C21.7,8.5,21.6,8.5,21.7,8.4C21.6,8.4,21.7,8.4,21.7,8.4z M21.2,8.7
	C21.2,8.7,21.2,8.7,21.2,8.7C21.2,8.7,21.2,8.7,21.2,8.7L21.2,8.7z M24.6,14.6C24.6,14.6,24.5,14.6,24.6,14.6
	C24.5,14.6,24.5,14.6,24.6,14.6z M22.9,15.5L22.9,15.5C23,15.5,22.9,15.5,22.9,15.5z M21.2,13L21.2,13L21.2,13L21.2,13L21.2,13
	L21.2,13z M22.4,14.3C22.4,14.3,22.4,14.3,22.4,14.3C22.4,14.3,22.4,14.3,22.4,14.3z M23.3,11.5C23.3,11.5,23.3,11.5,23.3,11.5
	L23.3,11.5C23.3,11.4,23.3,11.4,23.3,11.5z M22.6,16.5C22.7,16.5,22.7,16.5,22.6,16.5C22.7,16.5,22.7,16.5,22.6,16.5z M20.4,9.9
	C20.4,9.9,20.3,9.9,20.4,9.9c-0.1-0.1,0-0.1,0.1-0.1C20.5,9.9,20.4,9.9,20.4,9.9L20.4,9.9z M23.5,7.6c0,0,0.1,0,0.1,0
	c0,0.1,0,0.1-0.1,0.1C23.6,7.7,23.5,7.7,23.5,7.6C23.5,7.6,23.5,7.6,23.5,7.6L23.5,7.6z M24.8,7.1c0,0-0.1,0.1-0.2,0
	C24.7,7.1,24.8,7.1,24.8,7.1z M24.2,7.4c0,0.1-0.1,0.1-0.1,0.1C24.1,7.4,24.1,7.4,24.2,7.4z M22.5,8.3c0,0,0,0.1-0.1,0.1
	C22.5,8.4,22.5,8.4,22.5,8.3C22.5,8.3,22.5,8.3,22.5,8.3z M21.5,9C21.5,9,21.6,9,21.5,9L21.5,9C21.6,9,21.5,9,21.5,9L21.5,9L21.5,9z
	 M21.5,9.1C21.6,9.1,21.6,9.1,21.5,9.1C21.6,9.1,21.6,9.1,21.5,9.1L21.5,9.1z M20.7,7.7C20.9,7.3,21,7.6,20.7,7.7L20.7,7.7z M21,7.2
	C21,7.3,21.1,7.3,21,7.2c0,0.1-0.2,0.3-0.2,0.2C21,7.4,20.9,7.2,21,7.2z M21.3,7c0.1,0,0,0.1-0.1,0.2C21.2,7.2,21.3,7.1,21.3,7
	L21.3,7z M21.9,6.9C21.9,6.8,21.9,6.8,21.9,6.9C22,6.8,21.9,6.9,21.9,6.9z M22.2,7C22.2,7,22.3,7,22.2,7C22.3,7.1,22.2,7,22.2,7z
	 M9.4,8.1C9.4,8.1,9.4,8.1,9.4,8.1L9.4,8.1C9.4,8.1,9.4,8.1,9.4,8.1z M6.1,8.1c0-0.2-0.2-0.2-0.4-0.2C5.5,8,5.9,8.2,6.1,8.1z
	 M9.6,8.1c0,0,0.1,0,0.1,0C9.7,8.1,9.6,8.1,9.6,8.1z M6.4,15.3c0,0,0,0.1,0,0.1c0-0.1,0-0.2,0-0.3c0.1-0.1-0.1-0.2-0.1,0
	c-0.1-0.1,0-0.2,0-0.3c0,0,0,0.1,0,0.1c-0.1,0.1-0.1,0.3-0.1,0.5c0.1-0.1,0-0.2,0.1-0.3c0,0,0,0,0,0c0,0,0,0,0,0
	C6.5,15.3,6.5,15.3,6.4,15.3L6.4,15.3z M6.2,15.2L6.2,15.2c0,0.1-0.1,0.2-0.1,0.2c0,0,0,0,0,0.1c0,0,0,0,0,0c0,0,0,0,0,0.1
	C6.1,15.4,6.1,15.3,6.2,15.2L6.2,15.2z M6.8,10.5c0,0-0.1-0.1-0.1-0.2C6.5,10.4,6.8,10.6,6.8,10.5z M6.4,15.7
	C6.4,15.7,6.4,15.6,6.4,15.7C6.4,15.6,6.4,15.6,6.4,15.7z M7.1,11.2L7.1,11.2L7.1,11.2C7.1,11.2,7.1,11.2,7.1,11.2
	C7.1,11.2,7.1,11.2,7.1,11.2z M17,12.9c0-0.1-0.1-0.1-0.1-0.2c0.2,0.3-0.2-0.5,0.1-0.3c0-0.2,0-0.4,0-0.6c0,0.1,0,0.1,0,0.2
	c0-0.1,0-0.1,0-0.1c-0.5,0.4-0.6,1.2-1.3,1.2c0,0.1,0,0.1,0,0.2c-0.3,0.4-0.6,0.3-1.1,0.2c-0.1-0.2-0.3-0.2-0.4-0.4
	c0.1-0.2-0.2-0.4,0-0.4c-0.2-0.5,0.4-0.9,0.8-1.1c0.8-0.8,2.1-1.4,1.7-2.8c-0.5,0.1-1.6,0.3-1.8-0.3c-0.1,0-0.3-0.2-0.2-0.3
	c-0.2-0.2,0.1-0.3,0-0.5c0.1-0.1,0.3-0.2,0.3-0.4c0.1,0.1,0.2,0,0.4,0c0,0,0,0,0-0.1c0.3,0.1,0.5-0.3,0.7-0.3
	c0.2-0.2,0.6-0.3,0.6-0.6c0.2-0.8-0.3-1.8,0.3-2.5c0-0.2,0-0.6,0.2-0.6c0.2-0.1,0.5,0,0.4-0.1c0.3,0,0.5,0.5,0.6,0.7
	c-0.4,0.2-0.1,0.5-0.1,0.8c0.4,0.2,0.2,0.5,0.2,0.9c0.2,0.2,1.1,0.3,0.5,0.8c0.1,0.1,0.3,0,0.2,0.2c0.2,0.1-0.2,0.2-0.2,0.3
	c-0.2,0-0.2,0.3-0.3,0.5c-0.4,0.3-0.3,0.9-0.4,1.4c0.2-0.1,0.9-0.8,1.1-0.5c0.4-0.1,0.9-0.7,1-1.1c0.2,0.2,0.6-0.4,0.6-0.6
	c0.1-0.4-0.2-0.1-0.3-0.3c-0.3-0.6,0-1.4-0.2-2.1c0.3-0.5-0.3-1.1,0.1-1.4c0,0.1,0.1,0.1,0.1,0C21.5,1.9,22.3,3,22.1,4
	c0.8,0,0.6-0.9,0.6-1.5c-0.1-0.5-0.7,0.2-1-0.1c-0.5-1,1.9-1.4,2.2-0.4c0.2,0.5-0.1,1.1-0.2,1.7c-0.1,0.7-0.1,1.5-0.2,2.1
	c0,0.2,0,0.5-0.1,0.7c0,0,0.1,0.1,0.1,0.1c0.5,0,1-0.5,1.4-0.2c0.5-0.4,0.5-0.2,0.8,0.3c0.1,0.2-0.1,0.7-0.3,0.6
	c0.1-0.2,0-0.3-0.1-0.5C25.2,7.7,24,8,23.5,8.6c0,0-0.1,0-0.1,0c0.9,0.1,2.5-0.5,3.2,0.4c0.1,0.1,0.1,0.1,0.1,0.2c0,0,0,0,0,0
	c0,0,0,0,0,0c0.4,0.3,0.9,0.8,0.9,1.3c0,0-0.1,0-0.1,0c0,0.1,0,0.1,0,0.2c-0.1-0.1-0.1-0.1-0.1-0.2c-0.1,0-0.1-0.1-0.1,0
	c0,0-0.1,0-0.1,0C27,10.4,26.8,10.9,27,11c0,0,0,0,0,0.1c0.2-0.2,0.4-0.4,0.4,0c0.4-0.1-0.5,0.9-0.3,1.1c-0.1,0.1-0.3,0.4-0.4,0.5
	c0,0.2-0.2,0.2-0.2,0.5c0,0,0.1,0,0.1-0.1c0,0,0,0.1,0,0.1c-0.6,0.4-1,1.4-1.5,2c0.1,0,0.2-0.2,0.2-0.1c0,0,0.1-0.1,0.1-0.1
	c0,0.1-0.1,0.4-0.2,0.3c0,0.3-0.6,0.5-0.7,0.6c-0.2,0.1-0.3,0.3-0.5,0.4c0,0,0-0.1-0.1,0h0c-0.1,0.1-0.6,0.6-0.6,0.3
	c-0.1-0.1-0.2,0.1-0.3,0c-0.1-0.1,0-0.2-0.2-0.2c0,0,0,0.1,0,0.1c-0.2-0.2,0.3-0.1,0-0.4c0.4-0.1-0.2-0.3,0.2-0.2
	c-0.4-0.4,0.2-0.1,0.2-0.4c0,0-0.1,0-0.1,0c0.1,0,0.1-0.3,0.3-0.2c0,0,0.1,0,0.2,0c0-0.1,0.2-0.3,0.2,0c0.1-0.1,0.2,0,0.2-0.1
	c0,0,0,0,0,0c-0.5,0,0.4-0.5,0.6-0.5c0.2,0.1,0.2-0.1,0.3-0.3c2.2-2.9,2.9-7-2.4-4.7c-0.4,0-1.1,0.3-1.4,0.7
	c-0.3,0.1-0.6,0.5-0.9,0.6h0.1c-0.1,0.2-0.4,0.2-0.6,0.2c0,0,0,0-0.1,0.1c0,0,0,0,0.1,0c-0.1,0-0.1,0.1-0.2,0.2c0,0,0,0,0.1,0
	c-0.1,0.1-0.3-0.1-0.3,0.1c0,0,0,0,0,0c0,0.2-0.2,0.2-0.2,0.3c-0.3,0-0.3-0.4-0.3-0.6c0.4-0.2,0.4-0.7,0.7-1c0.1,0,0.1-0.1,0.1-0.1
	c0-0.2,0.3-0.2,0.4-0.3c-0.1-0.1,0.3,0,0.3,0.1c-0.1,0.1-0.2,0-0.3,0.1c0,0,0,0.1,0.1,0.1c-0.2,0-0.4-0.1-0.5,0.1
	c0.2-0.1,0,0,0.1,0.1c0,0.1-0.2,0.1-0.2,0.3c0.5-0.4,1.1-0.7,1.6-1.1h-0.2c0.3-0.1,0.6-0.1,0.8-0.4c0,0-0.1,0-0.1,0
	c0-0.1,0.3,0,0.3-0.2c0,0,0.1-0.2,0.2-0.1c0.2,0,0.1-0.2,0.2-0.3c0,0.4,0.5-0.2,0.7-0.3c0.2,0,0.4-0.3,0.5-0.4
	C23.3,8,23.6,7.8,23.6,8c0.3-0.5,1.9-0.6,1.1-1.1c-0.2,0.1-0.1,0.4-0.4,0.4c-0.1,0.2-0.2,0-0.3,0.1c-0.1,0.1-0.2,0-0.3,0.1
	c0,0,0.1,0,0.1,0.1c-0.4-0.1-0.4,0.3-0.8,0.3c0.1,0.1,0.2,0.3,0,0.2V7.9c0,0-0.1,0-0.1-0.1c-0.1,0.1,0.1,0.3-0.1,0.3
	c0-0.1,0-0.2-0.1-0.1c0,0,0,0,0.1,0c-0.1,0.1-0.3,0.1-0.1,0.2c-0.1,0.1-0.1,0-0.2,0.1c-0.1-0.1-0.2,0-0.3-0.1c0.1,0.1,0.1,0.3,0,0.4
	c-0.1-0.1,0-0.2,0-0.3c-0.1,0.2-0.3,0.3-0.2,0.5c-0.1-0.3-0.1-0.1-0.4,0c0,0,0,0,0,0s0,0,0,0c0.1-0.1,0.2,0,0.2,0.1h-0.2
	c0-0.1-0.2,0.1-0.3,0.1V8.9c0,0-0.1,0.1-0.1,0.1c0.2,0-0.3,0.2-0.3,0.3c-0.1,0-0.2,0-0.1,0.1c-0.1,0-0.1,0-0.1,0.1
	c-0.3,0.1-0.5,0.3-0.8,0.3v0.1c0,0-0.1,0-0.1,0c0.2-0.2,0.5-0.3,0.7-0.4h0c0.3-0.5,1.1-0.7,1.5-1.1c0,0,0,0,0,0
	c0.3-0.2,0.7-0.4,0.9-0.6c0,0,0.1,0,0.1,0c-0.3,0.1-0.7,0.4-1,0.7c-0.4,0,0.8-0.6,1.1-0.8c0,0,0,0.1-0.1,0.1C23,7.7,23,7.5,23.1,7.5
	c-1.1,0-2.3,1.5-3.2,1.4c0,0-0.1,0-0.1,0c0.3-0.3,0.7-0.6,1.1-0.8c0-0.2-0.5,0.1-0.6,0.2C20,8.5,19.6,8.7,19.3,9
	c0,0-0.1-0.1-0.2-0.1c-0.2-0.1-0.1-0.2,0-0.4c0,0-0.1-0.1-0.1-0.1c-0.3,0.1-0.2,0.4-0.4,0.6c-0.1,0,0-0.1,0-0.2c0,0,0.1,0,0.1-0.1
	c-0.2,0-0.3,0.1-0.2,0.3c-0.1,0,0-0.1-0.1-0.1c0,0.2-0.1,0.2-0.1,0.4c-0.1,0.2-0.2,0.1-0.1-0.1c0,0,0,0-0.1,0c0,0,0.1-0.2-0.1-0.2
	C18,9.2,18,9.7,17.9,9.5c-0.2,0.1-0.1,0.3-0.1,0.5c0,0-0.1,0-0.1,0c0.2,0.1,0.5-0.6,0.6-0.4c0.3-0.1,1.1-0.9,0.8-0.4
	c-1.1,0.9-1.7,1.2-1.3,2.7c0,0,0,0,0,0c0,0.2,0.1,0.4,0.1,0.6c0.1,0,0-0.1,0.1-0.1c0.1,0.6,0.1,1.4,0.4,1.8c0,0,0-0.1,0-0.1
	c0.8,1.4-0.8,1-1.3,0.4c-0.2-0.3-0.3-0.8-0.6-1c0.1,0,0.1-0.2,0-0.2c0.1-0.2,0.3,0,0.4,0c0,0,0,0,0.1,0c0-0.1,0-0.1,0-0.2
	C16.9,13,17,13,17,12.9z M22.3,5.1c-0.1,0,0-0.1,0-0.2C22,5,22,5.4,21.7,5.4c0,0.1-0.1,0.5,0.1,0.2c0,0,0,0.1,0,0.1
	C22.2,5.8,22.2,5.4,22.3,5.1C22.3,5.1,22.3,5.1,22.3,5.1L22.3,5.1C22.3,5.1,22.3,5.1,22.3,5.1L22.3,5.1z M22.2,7c0,0-0.2,0-0.1,0.1
	h-0.1c0,0,0-0.1,0-0.1c0.2-0.1,0.3-0.4,0.5-0.5c0,0,0,0-0.1,0c-0.1-0.1,0.1-0.4-0.1-0.3c0,0,0.1-0.1,0.1-0.1
	c-0.5,0.1-0.3,0.5-0.5,0.8c0,0,0,0,0,0c0,0,0.1,0,0.1,0c-0.2,0.3-0.3,0.1-0.6,0.2c0,0,0,0,0,0c0,0,0-0.1,0-0.1
	c-0.3,0.2-0.7,0.6-0.8,0.9c0.1-0.5-0.3,0.2,0.1,0c0.8-0.4,1.5-0.8,2.3-1c-0.1,0-0.1-0.1-0.2-0.2C22.6,6.8,22.4,6.9,22.2,7L22.2,7z
	 M22.3,15.3c0.2,0,0-0.4,0.3-0.2c0,0.1,0.1,0.1,0,0.2c0,0,0,0,0-0.1c-0.1,0.2,0.1,0.2,0.2,0.3c0,0-0.1,0-0.1,0c0,0-0.1,0-0.1,0v0
	c0.2,0,0.1,0.3,0.1,0.4c-0.2,0-0.2-0.3-0.3-0.2c0,0.2,0.3,0.2,0.4,0.3c-0.1,0-0.3-0.1-0.4-0.2c0.1,0.1,0.4,0.3,0.1,0.3
	c0,0.1-0.1,0.1-0.2,0.1c0,0.1,0.1,0.1,0.1,0.2c-0.2-0.1-0.3-0.3-0.5-0.4c0.1,0,0.2,0.1,0.3,0.1c-0.1-0.1-0.3-0.1-0.4-0.3
	c0.3,0.1,0.4,0.1,0.1-0.1c0.1,0,0.1,0,0.2,0c0-0.3,0-0.2,0.2-0.3c0,0,0,0,0.1,0c-0.4-0.3-0.4-0.3-0.8,0c0,0,0.2-0.1,0.1-0.2
	c0.1,0,0.1,0,0.1-0.1c0.2-0.1-0.3,0.2-0.3,0.4c-0.2,0.1-0.3,0.3-0.4,0.4c0.2-0.1,0.7-0.8,0.4-0.3c-0.2,0.2-2.1,2.3-1.7,1.5
	c0,0,0,0,0,0c0.1-0.1,0.2-0.2,0.3-0.4c-0.1,0-0.1,0.1-0.1,0.1c0,0,0.1-0.1,0-0.1c0-0.1,0.1-0.1,0.1-0.2c0.1,0,0.1-0.1,0.1-0.1
	c-0.1,0-0.2,0.1-0.1,0.2c-0.2,0-0.4,0.2-0.4,0.4c0,0,0,0,0-0.1c-0.1,0-0.1,0-0.2,0c0,0,0.1,0,0.1,0c-0.2,0-0.1-0.2-0.1-0.3
	c0,0,0,0-0.1,0c0.7-1.4,2.1-2.4,3.2-3.5c0,0,0.1,0.1,0.1,0.1c0-0.1,0-0.1,0.1-0.1c0,0.3,0.2,0,0.3-0.1c-0.3,0.1-0.1-0.5,0-0.1
	c0.1-0.1,0.3-0.2,0.2-0.3c0.3-0.5,0.9-0.9,1.1-1.5c-0.1-0.1-0.4-0.2-0.4,0c-0.1,0.2-0.5,0.1-0.5,0.3c-0.2-0.1-0.3,0.2-0.3,0.4
	c-0.3,0.1-0.3,0.3-0.6,0.4c0,0,0,0,0.1,0c0.1,0.2-0.2,0.2-0.3,0.2c0.1,0,0.2,0,0.2-0.1c-0.1,0.1-0.5,0.2-0.3,0.3
	c-0.2,0-0.4,0-0.5,0.2c0,0.1-0.1,0.1-0.1,0.2c-0.1-0.1-0.1,0.1-0.1,0c-0.1,0.2-0.4,0.2,0.1,0.2c-0.2,0.3-0.5,0.6-0.7,0.9h0
	c-0.1-0.1-0.4-0.1-0.6-0.1v-0.1c-0.7-0.4,0.2-1.4,0.6-1.7c0.3-0.2,0.4-0.7,0.8-0.8c0-0.1,0.2-0.1,0.1-0.2c0.1,0,0.2,0,0.2-0.1
	c0.1,0,0.2,0,0.2-0.1c0,0,0,0,0,0c0,0,0,0,0,0c0.8-0.7,0.9,0.9,1.5,0.6c0.3-0.2,0.6-0.3,0.9-0.4c-0.1-0.3,0.2-0.3,0.4-0.4
	c0.4-0.5,1.3,0.2,0.6,0.5c-0.3,0.1-0.5,0.3-0.8,0.2c0,0.3-0.1,0.5-0.3,0.7c0.2,0.1,0.4-0.3,0.6-0.3c0,0,0,0,0.1,0.1
	c0.9-0.9,0.5-0.1,0,0.4c-0.9,0.7-1.8,1.7-2.6,2.5c0,0,0.1,0,0.1-0.1c0,0,0,0,0,0.1c0,0-0.1,0-0.1,0.1c0.1,0.1,0.3,0.2,0.4,0.2
	c0.1,0.1,0,0.1-0.1,0.2h0v0c0.1,0.1-0.1,0.4,0.1,0.5C22.4,15.4,22.4,15.4,22.3,15.3L22.3,15.3z M8.5,6.7c0.1-0.1,0.2-0.2,0.3-0.3
	c-0.4,0.3-0.6,0.4-0.1,0c0.4-0.4,0.6-1.1,1.2-0.5c1.7,0.4,0.2,1.2-0.6,1.5c0,0,0,0,0,0c0,0-0.1,0-0.1,0c0,0,0,0-0.1,0.1
	c0.5-0.2,1.3-0.2,1.6-0.4c0.5,0,1.1-0.3,1.4,0.2c0.2,0.1,0.6,0.3,0.4,0.6c-0.1,0.6-0.8,0.6-1.2,0.4C11.2,7.9,10.5,8,10.2,8
	C9.9,8,9.5,8.3,9.4,8.2c0.1,0,0.1,0,0.1,0c-0.1,0-0.3,0.2-0.4,0.1H9.1v0c-0.2,0-0.4,0.1-0.6,0.2c0,0,0,0,0,0C8,8.6,8.3,8.7,8.6,8.5
	C7.9,8.9,7.1,9.1,6.4,9.4C5.2,9.8,7,9.1,7.3,9c-0.5,0-1,0.4-1.6,0.4c0,0,0,0,0.1-0.1C5.6,9.5,5.2,9.4,4.9,9.6c0,0.4-0.1,0.3,0.4,0.1
	c-0.1,0-0.1,0.1-0.1,0.1c0.2,0,0.4-0.1,0.5-0.2c0,0,0,0,0,0.1c0,0,0,0,0.1,0c-0.2,0.3-0.9,0.2-1.1,0.6c-0.2,0.3-1,1-1.4,0.4h0
	c0-0.1-0.1-0.3-0.1-0.4c0.1,0,0.1-0.1,0.1-0.2c0.9-0.8,2.2-0.8,3.3-1.4c0,0-0.1,0-0.1,0C6.6,8.5,6.8,8.5,7,8.4
	C6.8,8.3,6.7,8.2,6.6,8.1C6.1,8,5.2,9,5.2,7.9c0,0.1,0,0.1,0,0.2c-0.7-0.4-0.3-1,0.3-1.1c0.3,0.2,0.8-0.4,0.4-0.5
	C5.1,7.2,4.4,6.1,4.7,5.5c-0.1-0.1-0.1-0.2,0-0.2c0-0.1,0.3-0.4,0.4-0.4c0.1,0.1,0.3,0,0.4,0.1c0.1,0,0.1,0,0.1,0c0,0,0.1,0,0.1-0.1
	c0.1,0.2,0.2-0.1,0.3,0c0-0.3,0.2-0.5,0.1-0.8c0-0.7,0.1-1.3,0.3-2c0.2-0.1,0.2-0.7,0-0.9C6.6,0.5,7.5,0.4,7.9,1
	c1.7,2.3-0.5,2.1,0.9,2.9c0.2,0.1,0.8,0,1.3,0.4c0.3,0.2,0.4,0.6,0.3,1c-0.1,0-0.2,0-0.3,0.1c-0.1-0.1-0.2,0-0.3,0
	c-0.6-0.3-2,0.3-2.1,1.1C7.7,6.9,7.7,8.2,8.2,7.7v0.1c0.2,0,0.2-0.1,0.2-0.2c0.2-0.1,0.3-0.1,0.4-0.4c-0.1,0-0.1,0-0.2,0
	c0-0.1,0-0.1-0.2-0.1c0,0,0.1-0.1,0.1-0.1C8.4,7,8.9,6.8,8.7,6.8C8.9,6.5,8.5,6.8,8.5,6.7C8.4,6.7,8.5,6.7,8.5,6.7L8.5,6.7L8.5,6.7z
	 M8.3,3.5C8.2,3.7,8.2,4,8.2,4.2C8.4,4,8.8,4.1,8.5,3.8c0,0,0.1,0,0.1,0.1C8.6,3.7,8.4,3.6,8.3,3.5L8.3,3.5z M7.4,15.8
	c0.6,0.3,1.6,1,1.4-0.2c0,0-0.1,0-0.1,0c0-0.3,0.3-1.2-0.3-1.1c-0.3-0.2-0.7,0-1-0.3c-0.2-0.2-0.3-0.7-0.1-1c0,0,0.1,0,0.1,0
	c0-0.1,0.1-0.3,0.1-0.4c0,0-0.1-0.1,0-0.1c-1.1,0.2-0.2,1.1-0.6,1.6c0,0.1,0,0.3-0.2,0.2c0.1-0.1,0.2-0.5-0.1-0.4c0,0,0,0,0-0.1
	c-0.2,0-0.1,0.2-0.1,0.3h0c0-0.1,0-0.1,0-0.1c0,0.2,0,0.3-0.1,0.5c0,0,0,0,0,0c0,0.1-0.1,0.2-0.1,0.4c0.1,0.3-0.2,0.9,0,1.3
	c0.3,0.1,0.2,0.4,0.4,0.6c-0.3,1-1.1,0.4-1.5-0.3c-0.8-1.4-0.1-3.4-0.1-5c0.1,0.2,0,0.3,0.1,0.5c0.2-0.5-0.1-0.9,0-1.5
	c0.3-0.1,0.9-0.5,1.3-0.2c0,0,0,0,0-0.1C7.4,9.9,8,9.1,8.8,8.9c0.2-0.2,1.8,0.3,1,0.8c0.7,0.5-0.3,0.2-0.3,0.5c-0.1,0-0.1,0-0.2,0
	c-0.2,0.2-0.1,0.5,0.2,0.2c0.2,0,0.2,0.2,0.4,0.1c0-0.1,0.1-0.1,0.1-0.2c0.2,0.4-0.3,0.9-0.2,1.3c0.1,0.2,0,0.4,0,0.6
	c0.1,0.2,0.1,0.4,0,0.6c0.1,1.6,0.2,3.5-0.1,5.1c-0.3,0.5-0.3,0.1-0.4-0.1c-0.4-0.1-0.8-0.5-1.2-0.9c0.1-0.1,0-0.2-0.1-0.3h0.1
	c0,0,0-0.1,0-0.1c0.1,0,0.1,0,0.2,0c-0.1-0.2-0.3-0.1-0.4-0.3c0.1,0,0.2,0,0.2,0.1c-0.1,0-0.1-0.1-0.2-0.1C7.8,16,7.2,16,7.4,15.8z
	 M7.1,10.7c0,0.4,0,0.7-0.1,1c0.4-0.2,1.5-0.4,1.7,0c0.2-0.3,0.1-0.9-0.1-1.2c-0.1-0.2,0.1-0.5-0.1-0.5C7.9,10.7,7.9,11,7.1,10.7z
	 M6.4,11.8c0.2-0.3,0.4-0.5,0.4-0.8C6.2,10.9,6.4,11.5,6.4,11.8L6.4,11.8z M8.8,13.2c0-0.2,0-0.4,0-0.5c-0.2,0-0.7,0.5-0.4,0.5
	c0-0.1,0.1-0.1,0.2-0.1C8.6,13.2,8.7,13.2,8.8,13.2z M6.2,11.9c-0.2-0.3-0.3,0-0.1,0.2C6.2,12.1,6.2,12,6.2,11.9L6.2,11.9z
	 M3.2,11.1C3.2,11.1,3.1,11.1,3.2,11.1c0.1,0.1,0.2-0.1,0.4-0.2c0,0.1,0.1,0.1,0.2,0c0.4,0.9-1.2,1.4-1.5,2.3
	c-0.3,0.3-0.4,0.5-0.4,1c-0.4,0.3-0.8,0.7-1.3,0.4c-0.2-0.5-0.9-1.2-0.1-1.6c0.3-0.1,0.3-0.4,0.6-0.5c0.5,0,0.9-0.6,1.4-0.7
	c0,0,0,0-0.1,0c0.1-0.1,0.9-0.5,0.6-0.5C3.1,11.2,3.1,11.1,3.2,11.1L3.2,11.1z M1.4,6.2c-0.1,0-0.1-0.1-0.2-0.1V6.1
	c0,0-0.1-0.1-0.1-0.1c-1.4-0.9,1.5-2.7,2-1.1C3,4.8,3.1,4.9,3.1,5C2.9,5.4,2.9,6,2.9,6.5C2.9,7.2,1.7,6.3,1.4,6.2z M2.6,5
	C3.4,4.1,1.5,5.1,2.6,5L2.6,5z M2.4,5.3c0-0.3-0.3-0.3-0.4,0C2.1,5.6,2.5,5.6,2.4,5.3z M1.6,8c1,0.3,1,0.8,1,1.6
	c-0.1,0-0.1,0.1-0.1,0.2c0,0.2-0.3,0.2-0.5,0.3c-0.3-0.2-0.6,0.1-0.8-0.2c0.1-0.1-0.1-0.1-0.1-0.3c0-0.1,0-0.3-0.2-0.3
	c0-0.2-0.2,0-0.2-0.4c0-0.5,0-0.9,0.5-1.1C1.4,7.9,1.5,7.9,1.6,8L1.6,8z M7.3,15.5c-0.1-0.1-0.2-0.2-0.2-0.3c0,0,0.1,0,0.1,0
	C7.1,15.3,7.4,15.4,7.3,15.5z M8.7,8.5c0-0.1,0.2-0.1,0.3-0.2C9,8.4,8.8,8.4,8.7,8.5L8.7,8.5z M6.9,14.5c0,0,0,0.2,0,0.2
	c0,0,0,0,0,0C6.9,14.6,6.9,14.5,6.9,14.5L6.9,14.5z M7.4,15.8c-0.1,0-0.2-0.1-0.1-0.2C7.3,15.7,7.4,15.7,7.4,15.8L7.4,15.8z
	 M7.3,15.5c0.1,0,0.1,0,0.2,0.1C7.4,15.6,7.3,15.6,7.3,15.5L7.3,15.5z M9.2,8.3c0,0,0.1-0.1,0.1,0C9.3,8.3,9.2,8.3,9.2,8.3L9.2,8.3z
	 M5.8,9.4c0,0-0.1,0.1-0.1,0.1C5.7,9.5,5.8,9.4,5.8,9.4z M6.9,14.8c0,0,0,0.1,0.1,0.1C6.9,14.9,6.9,14.8,6.9,14.8L6.9,14.8L6.9,14.8
	z M8.5,6.8C8.5,6.8,8.4,6.8,8.5,6.8C8.4,6.8,8.5,6.8,8.5,6.8C8.5,6.7,8.5,6.8,8.5,6.8z M9.5,10.1C9.5,10.1,9.5,10.1,9.5,10.1
	C9.5,10.1,9.5,10.1,9.5,10.1z M8.5,3.8C8.5,3.8,8.4,3.8,8.5,3.8C8.4,3.8,8.5,3.8,8.5,3.8z"/>
</svg>
