<?xml version="1.0" encoding="utf-8"?>
<!-- Generator: Adobe Illustrator 27.0.0, SVG Export Plug-In . SVG Version: 6.00 Build 0)  -->
<svg version="1.1" id="圖層_1" xmlns="http://www.w3.org/2000/svg" xmlns:xlink="http://www.w3.org/1999/xlink" x="0px" y="0px"
	 viewBox="0 0 375 1331.7" style="enable-background:new 0 0 375 1331.7;" xml:space="preserve">
<style type="text/css">
	.st0{opacity:0.4;clip-path:url(#SVGID_00000013188386738279789110000001811705316994247813_);}
	.st1{opacity:0.3;}
	.st2{fill:#FFFFFF;}
</style>
<g>
	<g>
		<defs>
			<rect id="SVGID_1_" y="0.9" width="375" height="665.4"/>
		</defs>
		<clipPath id="SVGID_00000101096816947909483130000000644823851197107646_">
			<use xlink:href="#SVGID_1_"  style="overflow:visible;"/>
		</clipPath>
		<g style="opacity:0.4;clip-path:url(#SVGID_00000101096816947909483130000000644823851197107646_);">
			<g class="st1">
				<path class="st2" d="M4,0.9h3.5V123H-3.8v-12.9l7.9-25V0.9H4z"/>
				<path class="st2" d="M-3.2,408.4h9.3l0.2,249H1v-36.2h-3.8v-15.4h6.2V425.2L-3.2,408.4z"/>
				<path class="st2" d="M24.1,54.3l-8.6,27.2v68.7h2.8V84.7L24.1,54.3z"/>
				<path class="st2" d="M27.9,518.3v140.1h10.3v-97.3L27.9,518.3z"/>
				<path class="st2" d="M45.9,559.5l22.2-37.8L62,658.3H45.9V559.5z"/>
				<path class="st2" d="M42.9,311.8l-18.2-44.1l-3.1-10.9h-7.8v17.3l2.1,6.2h8.7v93.6L42.9,311.8z"/>
				<path class="st2" d="M60.9,80.1L46.2,123v123.6l14.7-49.2V80.1z"/>
				<path class="st2" d="M27.6,29.4v114.2l12.8,48.1v-144L27.6,29.4z"/>
			</g>
			<g class="st1">
				<path class="st2" d="M278.6,218.6h0.2h3.8v-79.8l-3.8-10.3V8.9h-2v143h-2.3v21.4h-3.2v45.3H278.6z"/>
				<path class="st2" d="M316.8,666.3h-5.6v-77.9l-8.6-53.7h14.2V666.3z"/>
				<path class="st2" d="M285.5,666.3v-41.8l-6.7-22.2v-129l7.8-65v-2.5h-12.1V467v6.3v193H285.5z"/>
				<path class="st2" d="M214.3,642.4h-4.5v23.9h4.5V642.4z"/>
				<path class="st2" d="M185.4,622.4h-6.7v43.9h6.7V622.4z"/>
				<path class="st2" d="M142.2,666.3h-3.7V544.2h11.9v12.9l-8.2,25V666.3z"/>
				<path class="st2" d="M242.5,154.7h-6.3v85.1l6.3-13.6V154.7z"/>
				<path class="st2" d="M149.8,258.8h-9.7L140,9.8h5.5V46h3.9v15.4H143V242L149.8,258.8z"/>
				<path class="st2" d="M259.4,463.9l-5.3-18v-136h5.3V463.9z"/>
				<path class="st2" d="M121.3,613l8.9-27.2v-68.7h-2.9v65.5L121.3,613z"/>
				<path class="st2" d="M311.2,588.4l-32.4,24.5l11.4-162.2L311.2,588.4z"/>
				<path class="st2" d="M212.1,600.5l9.1-38.3v-68.4h-9.1V600.5z"/>
				<path class="st2" d="M181.9,488.1l23.1-82.2V306l-23.1,25.7V488.1z"/>
				<path class="st2" d="M212.9,88.7c1,0,23.3-22.7,23.3-22.7l-23.3-38.3V88.7L212.9,88.7z"/>
				<path class="st2" d="M166.3,197.2l36.1-30.8V82.8L166.3,0.9V197.2z"/>
				<path class="st2" d="M117.4,148.9V8.9h-10.7v97.3L117.4,148.9z"/>
				<path class="st2" d="M98.7,107.7l-23.1,37.8L81.8,8.9h16.8L98.7,107.7L98.7,107.7z"/>
				<path class="st2" d="M101.8,355.4l19,44.1l3.2,10.9h8.1v-17.3l-2.2-6.2h-9.1v-93.6L101.8,355.4z"/>
				<path class="st2" d="M83.1,587.1l15.3-42.9V420.6l-15.3,49.2V587.1z"/>
				<path class="st2" d="M117.8,637.8V523.7l-13.3-48.1v144L117.8,637.8z"/>
				<path class="st2" d="M274.5,473.4l-15.1,43.2l15.1-110.7V473.4z"/>
			</g>
			<g class="st1">
				<path class="st2" d="M377.9,0.9h-3.7V123h11.9v-12.9l-8.2-25L377.9,0.9L377.9,0.9z"/>
				<path class="st2" d="M357,54.3l8.9,27.2v68.7H363V84.7L357,54.3z"/>
				<path class="st2" d="M352.1,483.5v140.1h-10.7v-97.3L352.1,483.5z"/>
				<path class="st2" d="M322.8,326.8L299.7,289l6.3,136.6h16.8L322.8,326.8L322.8,326.8z"/>
				<path class="st2" d="M337.5,311.8l19-44.1l3.2-10.9h8.1v17.3l-2.2,6.2h-9.1v93.6L337.5,311.8z"/>
				<path class="st2" d="M318.8,80.1l15.3,42.9v123.6l-15.3-49.2V80.1z"/>
				<path class="st2" d="M353.4,29.4v114.2l-13.3,48.1v-144L353.4,29.4z"/>
			</g>
		</g>
	</g>
</g>
</svg>
