<svg width="1917" height="1078" viewBox="0 0 1917 1078" fill="none" xmlns="http://www.w3.org/2000/svg">
<g opacity="0.4">
<g opacity="0.3">
<path d="M449.937 725.113H449.603H443.731V854.272L449.603 870.909V1064.55H452.787V833.178H456.314V798.481H461.347V725.113H449.937Z" fill="white"/>
<path d="M390.539 0.62561H399.261V126.648L412.683 213.517H390.539V0.62561Z" fill="white"/>
<path d="M439.193 0.62561V68.2026L449.603 104.118V312.831L437.515 418.038V422.102H456.314V323.029V312.831V0.62561H439.193Z" fill="white"/>
<path d="M556.978 0.62561H549.933V39.3354H556.978V0.62561Z" fill="white"/>
<path d="M605.298 0.62561H594.898V71.6189H605.298V0.62561Z" fill="white"/>
<path d="M662.008 0.62561H667.718V198.213H649.263V177.398L662.008 136.91V0.62561Z" fill="white"/>
<path d="M506.14 828.618H515.954V690.899L506.14 712.857V828.618Z" fill="white"/>
<path d="M650.264 660.101H665.282L665.535 1062.99H657.065V1004.39H650.941V979.444H660.896V687.191L650.264 660.101Z" fill="white"/>
<path d="M479.802 328.16L488.019 357.243V577.348H479.802V328.16Z" fill="white"/>
<path d="M694.521 86.9479L680.675 130.992V242.193H685.203V136.275L694.521 86.9479Z" fill="white"/>
<path d="M399.261 126.648L449.603 86.9479L431.815 349.471L399.261 126.648Z" fill="white"/>
<path d="M553.461 107.065L539.281 168.99V279.76H553.461V107.065Z" fill="white"/>
<path d="M600.265 289.018L564.366 422.102V583.838L600.265 542.207V289.018Z" fill="white"/>
<path d="M552.116 935.388C550.61 935.388 515.954 972.167 515.954 972.167L552.116 1034.22V935.388Z" fill="white"/>
<path d="M624.592 759.759L568.469 809.657V944.798L624.592 1077.39V759.759Z" fill="white"/>
<path d="M700.605 837.877V1064.55H717.211V907.168L700.605 837.877Z" fill="white"/>
<path d="M729.794 904.603L765.784 843.439L755.971 1064.55H729.794V904.603Z" fill="white"/>
<path d="M724.933 503.713L695.401 432.3L690.398 414.622H677.784V442.562L681.261 452.544H695.401V604.081L724.933 503.713Z" fill="white"/>
<path d="M753.959 128.782L730.128 198.213V398.226L753.959 318.673V128.782Z" fill="white"/>
<path d="M700.1 46.676V231.424L720.738 309.262V76.1783L700.1 46.676Z" fill="white"/>
<path d="M456.314 312.831L479.802 242.981L456.314 422.102V312.831Z" fill="white"/>
</g>
<g opacity="0.3">
<path d="M1106.34 352.887H1106.69H1112.8V223.727L1106.69 207.103V13.4527H1103.37V244.822H1099.7V279.519H1094.47V352.887H1106.34Z" fill="white"/>
<path d="M1168.15 1077.37H1159.07V951.352L1145.1 864.483H1168.15V1077.37Z" fill="white"/>
<path d="M1117.51 1077.37V1009.81L1106.69 973.882V765.169L1119.26 659.962V655.898H1099.7V754.983V765.169V1077.37H1117.51Z" fill="white"/>
<path d="M1002.28 1038.68H994.946V1077.39H1002.28V1038.68Z" fill="white"/>
<path d="M955.489 1006.38H944.665V1077.37H955.489V1006.38Z" fill="white"/>
<path d="M885.651 1077.37H879.718V879.787H898.921V900.602L885.651 941.09V1077.37Z" fill="white"/>
<path d="M1047.86 249.394H1037.64V387.101L1047.86 365.155V249.394Z" fill="white"/>
<path d="M897.87 417.899H882.245L881.982 15.0275H890.805V73.6128H897.173V98.5557H886.813V390.809L897.87 417.899Z" fill="white"/>
<path d="M1075.26 749.853L1066.7 720.77V500.652H1075.26V749.853Z" fill="white"/>
<path d="M851.823 991.065L866.226 947.008V835.807H861.516V941.738L851.823 991.065Z" fill="white"/>
<path d="M1159.07 951.352L1106.69 991.065L1125.2 728.529L1159.07 951.352Z" fill="white"/>
<path d="M998.615 970.935L1013.37 909.022V798.253H998.615V970.935Z" fill="white"/>
<path d="M949.9 788.982L987.265 655.898V494.162L949.9 535.793V788.982Z" fill="white"/>
<path d="M1000.01 142.612C1001.58 142.612 1037.64 105.833 1037.64 105.833L1000.01 43.7804V142.612V142.612Z" fill="white"/>
<path d="M924.582 318.241L982.99 268.355V133.201L924.582 0.62561V318.241Z" fill="white"/>
<path d="M845.497 240.123V13.4527H828.214V170.844L845.497 240.123Z" fill="white"/>
<path d="M815.116 173.41L777.66 234.561L787.878 13.4527H815.116V173.41Z" fill="white"/>
<path d="M820.179 574.287L850.904 645.712L856.109 663.391H869.238V635.438L865.619 625.468H850.904V473.919L820.179 574.287Z" fill="white"/>
<path d="M789.97 949.218L814.762 879.787V679.774L789.97 759.327V949.218Z" fill="white"/>
<path d="M846.022 1031.34V846.576L824.545 768.738V1001.82L846.022 1031.34Z" fill="white"/>
<path d="M1099.7 765.169L1075.26 835.032L1099.7 655.898V765.169Z" fill="white"/>
</g>
<g opacity="0.3">
<path d="M1588.32 352.887H1587.96H1581.86V223.727L1587.96 207.103V13.4527H1591.29V244.822H1594.95V279.519H1600.19V352.887H1588.32Z" fill="white"/>
<path d="M1526.51 1077.37H1535.59V951.352L1549.56 864.483H1526.51V1077.37Z" fill="white"/>
<path d="M1577.14 1077.37V1009.81L1587.97 973.882V765.169L1575.4 659.962V655.898H1594.95V754.983V765.169V1077.37H1577.14Z" fill="white"/>
<path d="M1699.71 1038.68H1692.38V1077.39H1699.71V1038.68Z" fill="white"/>
<path d="M1750 1006.38H1739.17V1077.37H1750V1006.38Z" fill="white"/>
<path d="M1809.01 1077.37H1814.94V879.787H1795.74V900.602L1809.01 941.09V1077.37Z" fill="white"/>
<path d="M1646.8 249.394H1657.02V387.101L1646.8 365.155V249.394Z" fill="white"/>
<path d="M1796.79 417.899H1812.41L1812.68 15.0275H1803.85V73.6128H1797.49V98.5557H1807.85V390.809L1796.79 417.899Z" fill="white"/>
<path d="M1619.4 749.853L1627.95 720.77V500.652H1619.4V749.853Z" fill="white"/>
<path d="M1842.84 991.065L1828.43 947.008V835.807H1833.14V941.738L1842.84 991.065Z" fill="white"/>
<path d="M1535.59 951.352L1587.96 991.065L1569.46 728.529L1535.59 951.352Z" fill="white"/>
<path d="M1696.04 970.935L1681.29 909.022V798.253H1696.04V970.935Z" fill="white"/>
<path d="M1744.76 788.982L1707.39 655.898V494.162L1744.76 535.793V788.982Z" fill="white"/>
<path d="M1694.65 142.612C1693.08 142.612 1657.02 105.833 1657.02 105.833L1694.65 43.7804V142.612Z" fill="white"/>
<path d="M1770.07 318.241L1711.67 268.355V133.201L1770.07 0.62561V318.241Z" fill="white"/>
<path d="M1849.16 240.123V13.4527H1866.45V170.844L1849.16 240.123Z" fill="white"/>
<path d="M1879.54 173.41L1917 234.561L1906.78 13.4527H1879.54V173.41Z" fill="white"/>
<path d="M1874.48 574.287L1843.76 645.712L1838.55 663.391H1825.42V635.438L1829.04 625.468H1843.76V473.919L1874.48 574.287Z" fill="white"/>
<path d="M1904.69 949.218L1879.9 879.787V679.774L1904.69 759.327V949.218Z" fill="white"/>
<path d="M1848.64 1031.34V846.576L1870.11 768.738V1001.82L1848.64 1031.34Z" fill="white"/>
<path d="M1594.95 765.169L1619.39 835.032L1594.95 655.898V765.169Z" fill="white"/>
</g>
<g opacity="0.3">
<path d="M328.736 352.887H329.079H335.194V223.727L329.079 207.103V13.4527H325.764V244.822H322.096V279.519H316.86V352.887H328.736Z" fill="white"/>
<path d="M390.539 1077.37H381.463V951.352L367.495 864.483H390.539V1077.37Z" fill="white"/>
<path d="M339.904 1077.37V1009.81L329.079 973.882V765.169L341.652 659.962V655.898H322.096V754.983V765.169V1077.37H339.904Z" fill="white"/>
<path d="M224.676 1038.68H217.338V1077.39H224.676V1038.68Z" fill="white"/>
<path d="M177.881 1006.38H167.057V1077.37H177.881V1006.38Z" fill="white"/>
<path d="M108.043 1077.37H102.101V879.787H121.314V900.602L108.043 941.09V1077.37Z" fill="white"/>
<path d="M270.238 249.394H260.03V387.101L270.238 365.155V249.394Z" fill="white"/>
<path d="M120.263 417.899H104.637L104.375 15.0275H113.188V73.6128H119.565V98.5557H109.206V390.809L120.263 417.899Z" fill="white"/>
<path d="M297.657 749.853L289.097 720.77V500.652H297.657V749.853Z" fill="white"/>
<path d="M74.216 991.065L88.6182 947.008V835.807H83.9084V941.738L74.216 991.065Z" fill="white"/>
<path d="M381.463 951.352L329.079 991.065L347.585 728.529L381.463 951.352Z" fill="white"/>
<path d="M221.007 970.935L235.763 909.022V798.253H221.007V970.935Z" fill="white"/>
<path d="M172.292 788.982L209.657 655.898V494.162L172.292 535.793V788.982Z" fill="white"/>
<path d="M222.402 142.612C223.969 142.612 260.03 105.833 260.03 105.833L222.402 43.7804V142.612Z" fill="white"/>
<path d="M146.975 318.241L205.382 268.355V133.201L146.975 0.62561V318.241Z" fill="white"/>
<path d="M67.8891 240.123V13.4527H50.5964V170.844L67.8891 240.123Z" fill="white"/>
<path d="M37.5081 173.41L0.0522461 234.561L10.2702 13.4527H37.5081V173.41Z" fill="white"/>
<path d="M42.5716 574.287L73.2963 645.712L78.5013 663.391H91.63V635.438L88.0118 625.468H73.2963V473.919L42.5716 574.287Z" fill="white"/>
<path d="M12.3623 949.218L37.1543 879.787V679.774L12.3623 759.327V949.218Z" fill="white"/>
<path d="M68.4046 1031.34V846.576L46.9377 768.738V1001.82L68.4046 1031.34Z" fill="white"/>
<path d="M322.096 765.169L297.657 835.032L322.096 655.898V765.169Z" fill="white"/>
</g>
<g opacity="0.3">
<path d="M1487.75 725.113H1488.1H1494.21V854.272L1488.1 870.909V1064.55H1484.78V833.178H1481.11V798.481H1475.88V725.113H1487.75Z" fill="white"/>
<path d="M1549.56 0.62561H1540.48V126.648L1526.51 213.517H1549.56V0.62561Z" fill="white"/>
<path d="M1498.92 0.62561V68.2026L1488.1 104.118V312.831L1500.67 418.038V422.102H1481.11V323.029V312.831V0.62561H1498.92Z" fill="white"/>
<path d="M1383.69 0.62561H1376.36V39.3354H1383.69V0.62561Z" fill="white"/>
<path d="M1336.9 0.62561H1326.08V71.6189H1336.9V0.62561Z" fill="white"/>
<path d="M1267.06 0.62561H1261.12V198.213H1280.33V177.398L1267.06 136.91V0.62561Z" fill="white"/>
<path d="M1429.26 828.618H1419.05V690.899L1429.26 712.857V828.618Z" fill="white"/>
<path d="M1279.28 660.101H1263.66L1263.39 1062.99H1272.21V1004.39H1278.58V979.444H1268.21V687.191L1279.28 660.101Z" fill="white"/>
<path d="M1456.68 328.16L1448.11 357.243V577.348H1456.68V328.16Z" fill="white"/>
<path d="M1233.23 86.9479L1247.64 130.992V242.193H1242.92V136.275L1233.23 86.9479Z" fill="white"/>
<path d="M1540.48 126.648L1488.1 86.9479L1506.6 349.471L1540.48 126.648Z" fill="white"/>
<path d="M1380.03 107.065L1394.77 168.99V279.76H1380.03V107.065Z" fill="white"/>
<path d="M1331.31 289.018L1368.68 422.102V583.838L1331.31 542.207V289.018Z" fill="white"/>
<path d="M1381.42 935.388C1382.99 935.388 1419.05 972.167 1419.05 972.167L1381.42 1034.22V935.388Z" fill="white"/>
<path d="M1305.99 759.759L1364.4 809.657V944.798L1305.99 1077.37V759.759Z" fill="white"/>
<path d="M1225.33 781.501V1008.17H1208.05V850.78L1225.33 781.501Z" fill="white"/>
<path d="M1177.8 527.957L1140.34 466.794L1150.56 687.902H1177.8V527.957Z" fill="white"/>
<path d="M1201.58 503.713L1232.31 432.3L1237.51 414.622H1250.65V442.562L1247.03 452.544H1232.31V604.081L1201.58 503.713Z" fill="white"/>
<path d="M1171.38 128.782L1196.17 198.213V398.226L1171.38 318.673V128.782Z" fill="white"/>
<path d="M1227.42 46.676V231.424L1205.95 309.262V76.1783L1227.42 46.676Z" fill="white"/>
<path d="M1481.11 312.831L1456.68 242.981L1481.11 422.102V312.831Z" fill="white"/>
</g>
</g>
</svg>
