<svg width="375" height="666" viewBox="0 0 375 666" fill="none" xmlns="http://www.w3.org/2000/svg">
<g opacity="0.4">
<g opacity="0.3">
<path d="M4.04891 0.62561H7.57757V122.723H-3.82654V109.86L4.04891 84.8412V0.62561Z" fill="white"/>
<path d="M-3.20825 408.142H6.07241L6.22854 657.101H0.99493V620.89H-2.78978V605.477H3.36192V424.882L-3.20825 408.142Z" fill="white"/>
<path d="M24.1403 53.9676L15.5841 81.1841V149.9H18.382V84.4488L24.1403 53.9676Z" fill="white"/>
<path d="M27.9001 517.997V658.066H38.1613V560.815L27.9001 517.997Z" fill="white"/>
<path d="M45.9369 559.23L68.1768 521.434L62.1125 658.066H45.9369V559.23Z" fill="white"/>
<path d="M42.9329 311.504L24.6838 267.375L21.5923 256.451H13.7981V273.716L15.9465 279.884H24.6838V373.525L42.9329 311.504Z" fill="white"/>
<path d="M60.8696 79.8185L46.1429 122.723V246.319L60.8696 197.16V79.8185Z" fill="white"/>
<path d="M27.5879 29.082V143.245L40.341 191.345V47.3126L27.5879 29.082Z" fill="white"/>
</g>
<g opacity="0.3">
<path d="M278.622 218.302H278.834H282.612V138.489L278.834 128.216V8.55197H276.785V151.525H274.518V172.965H271.283V218.302H278.622Z" fill="white"/>
<path d="M316.812 665.992H311.204V588.118L302.573 534.438H316.812V665.992Z" fill="white"/>
<path d="M285.523 665.992V624.241L278.834 602.04V473.068L286.603 408.056V405.545H274.518V466.774V473.068V665.992H285.523Z" fill="white"/>
<path d="M214.319 642.08H209.785V666H214.319V642.08Z" fill="white"/>
<path d="M185.403 622.123H178.714V665.992H185.403V622.123Z" fill="white"/>
<path d="M142.247 665.992H138.581V543.895H150.447V556.757L142.247 581.777V665.992Z" fill="white"/>
<path d="M242.479 154.35H236.165V239.444L242.479 225.883V154.35Z" fill="white"/>
<path d="M149.798 258.475H140.142L139.98 9.52509H145.432V45.7273H149.367V61.1406H142.965V241.736L149.798 258.475Z" fill="white"/>
<path d="M259.417 463.603L254.127 445.632V309.612H259.417V463.603Z" fill="white"/>
<path d="M121.344 612.658L130.243 585.434V516.718H127.333V582.177L121.344 612.658Z" fill="white"/>
<path d="M311.204 588.118L278.834 612.658L290.276 450.427L311.204 588.118Z" fill="white"/>
<path d="M212.052 600.219L221.17 561.961V493.512H212.052V600.219Z" fill="white"/>
<path d="M181.949 487.783L205.038 405.545V305.602L181.949 331.327V487.783Z" fill="white"/>
<path d="M212.914 88.3649C213.882 88.3649 236.165 65.6374 236.165 65.6374L212.914 27.2927V88.3649V88.3649Z" fill="white"/>
<path d="M166.304 196.893L202.396 166.067V82.5496L166.304 0.62561V196.893Z" fill="white"/>
<path d="M117.434 148.621V8.55197H106.754V105.811L117.434 148.621Z" fill="white"/>
<path d="M98.6604 107.396L75.5149 145.184L81.829 8.55197H98.6604V107.396Z" fill="white"/>
<path d="M101.789 355.114L120.775 399.251L123.992 410.175H132.105V392.902L129.869 386.741H120.775V293.092L101.789 355.114Z" fill="white"/>
<path d="M83.1218 586.799L98.4418 543.895V420.299L83.1218 469.458V586.799Z" fill="white"/>
<path d="M117.759 637.544V523.373L104.487 475.273V619.305L117.759 637.544Z" fill="white"/>
<path d="M274.518 473.068L259.417 516.239L274.518 405.545V473.068Z" fill="white"/>
</g>
<g opacity="0.3">
<path d="M377.936 0.62561H374.264V122.723H386.136V109.86L377.936 84.8412V0.62561Z" fill="white"/>
<path d="M357.033 53.9676L365.933 81.1841V149.9H363.016V84.4488L357.033 53.9676Z" fill="white"/>
<path d="M352.149 483.16V623.229H341.469V525.97L352.149 483.16Z" fill="white"/>
<path d="M322.777 326.485L299.631 288.69L305.945 425.321H322.777V326.485Z" fill="white"/>
<path d="M337.472 311.504L356.464 267.375L359.675 256.451H367.794V273.716L365.558 279.884H356.464V373.525L337.472 311.504Z" fill="white"/>
<path d="M318.811 79.8185L334.131 122.723V246.319L318.811 197.16V79.8185Z" fill="white"/>
<path d="M353.442 29.082V143.245L340.17 191.345V47.3126L353.442 29.082Z" fill="white"/>
</g>
</g>
</svg>
