<?xml version="1.0" encoding="utf-8"?>
<!-- Generator: Adobe Illustrator 27.0.0, SVG Export Plug-In . SVG Version: 6.00 Build 0)  -->
<svg version="1.1" id="圖層_1" xmlns="http://www.w3.org/2000/svg" xmlns:xlink="http://www.w3.org/1999/xlink" x="0px" y="0px"
	 viewBox="0 0 375 666" style="enable-background:new 0 0 375 666;" xml:space="preserve">
<style type="text/css">
	.st0{opacity:0.4;clip-path:url(#SVGID_00000034788560613216652380000008651402348115308465_);}
	.st1{opacity:0.3;}
	.st2{fill:#FFFFFF;}
</style>
<g>
	<defs>
		<rect id="SVGID_1_" y="0.6" width="375" height="665.4"/>
	</defs>
	<clipPath id="SVGID_00000104677898902879749190000008788737630793469102_">
		<use xlink:href="#SVGID_1_"  style="overflow:visible;"/>
	</clipPath>
	<g style="opacity:0.4;clip-path:url(#SVGID_00000104677898902879749190000008788737630793469102_);">
		<g class="st1">
			<path class="st2" d="M4,0.6h3.5v122.1H-3.8v-12.9l7.9-25V0.6z"/>
			<path class="st2" d="M-3.2,408.1h9.3l0.2,249H1v-36.2h-3.8v-15.4h6.2V424.9L-3.2,408.1z"/>
			<path class="st2" d="M24.1,54l-8.6,27.2v68.7h2.8V84.4L24.1,54z"/>
			<path class="st2" d="M27.9,518v140.1h10.3v-97.3L27.9,518z"/>
			<path class="st2" d="M45.9,559.2l22.2-37.8l-6.1,136.6H45.9V559.2z"/>
			<path class="st2" d="M42.9,311.5l-18.2-44.1l-3.1-10.9h-7.8v17.3l2.1,6.2h8.7v93.6L42.9,311.5z"/>
			<path class="st2" d="M60.9,79.8l-14.7,42.9v123.6l14.7-49.2V79.8z"/>
			<path class="st2" d="M27.6,29.1v114.2l12.8,48.1v-144L27.6,29.1z"/>
		</g>
		<g class="st1">
			<path class="st2" d="M278.6,218.3h0.2h3.8v-79.8l-3.8-10.3V8.6h-2v143h-2.3V173h-3.2v45.3H278.6z"/>
			<path class="st2" d="M316.8,666h-5.6v-77.9l-8.6-53.7h14.2V666z"/>
			<path class="st2" d="M285.5,666v-41.8l-6.7-22.2v-129l7.8-65v-2.5h-12.1v61.2v6.3V666H285.5z"/>
			<path class="st2" d="M214.3,642.1h-4.5V666h4.5V642.1z"/>
			<path class="st2" d="M185.4,622.1h-6.7V666h6.7V622.1z"/>
			<path class="st2" d="M142.2,666h-3.7V543.9h11.9v12.9l-8.2,25V666z"/>
			<path class="st2" d="M242.5,154.4h-6.3v85.1l6.3-13.6V154.4z"/>
			<path class="st2" d="M149.8,258.5h-9.7L140,9.5h5.5v36.2h3.9v15.4H143v180.6L149.8,258.5z"/>
			<path class="st2" d="M259.4,463.6l-5.3-18v-136h5.3V463.6z"/>
			<path class="st2" d="M121.3,612.7l8.9-27.2v-68.7h-2.9v65.5L121.3,612.7z"/>
			<path class="st2" d="M311.2,588.1l-32.4,24.5l11.4-162.2L311.2,588.1z"/>
			<path class="st2" d="M212.1,600.2l9.1-38.3v-68.4h-9.1V600.2z"/>
			<path class="st2" d="M181.9,487.8l23.1-82.2v-99.9l-23.1,25.7V487.8z"/>
			<path class="st2" d="M212.9,88.4c1,0,23.3-22.7,23.3-22.7l-23.3-38.3V88.4L212.9,88.4z"/>
			<path class="st2" d="M166.3,196.9l36.1-30.8V82.5L166.3,0.6V196.9z"/>
			<path class="st2" d="M117.4,148.6V8.6h-10.7v97.3L117.4,148.6z"/>
			<path class="st2" d="M98.7,107.4l-23.1,37.8L81.8,8.6h16.8V107.4z"/>
			<path class="st2" d="M101.8,355.1l19,44.1l3.2,10.9h8.1v-17.3l-2.2-6.2h-9.1v-93.6L101.8,355.1z"/>
			<path class="st2" d="M83.1,586.8l15.3-42.9V420.3l-15.3,49.2V586.8z"/>
			<path class="st2" d="M117.8,637.5V523.4l-13.3-48.1v144L117.8,637.5z"/>
			<path class="st2" d="M274.5,473.1l-15.1,43.2l15.1-110.7V473.1z"/>
		</g>
		<g class="st1">
			<path class="st2" d="M377.9,0.6h-3.7v122.1h11.9v-12.9l-8.2-25V0.6z"/>
			<path class="st2" d="M357,54l8.9,27.2v68.7H363V84.4L357,54z"/>
			<path class="st2" d="M352.1,483.2v140.1h-10.7V526L352.1,483.2z"/>
			<path class="st2" d="M322.8,326.5l-23.1-37.8l6.3,136.6h16.8V326.5z"/>
			<path class="st2" d="M337.5,311.5l19-44.1l3.2-10.9h8.1v17.3l-2.2,6.2h-9.1v93.6L337.5,311.5z"/>
			<path class="st2" d="M318.8,79.8l15.3,42.9v123.6l-15.3-49.2V79.8z"/>
			<path class="st2" d="M353.4,29.1v114.2l-13.3,48.1v-144L353.4,29.1z"/>
		</g>
	</g>
</g>
</svg>
