<?xml version="1.0" encoding="utf-8"?>
<!-- Generator: Adobe Illustrator 26.5.0, SVG Export Plug-In . SVG Version: 6.00 Build 0)  -->
<svg version="1.1" id="圖層_1" xmlns="http://www.w3.org/2000/svg" xmlns:xlink="http://www.w3.org/1999/xlink" x="0px" y="0px"
	 viewBox="0 0 249 92" style="enable-background:new 0 0 249 92;" xml:space="preserve">
<style type="text/css">
	.st0{fill:#FFFFFF;}
	.st1{fill:#FFFFFF;stroke:#FFFFFF;stroke-width:1.68;stroke-miterlimit:10;}
	.st2{fill:#FFFFFF;stroke:#FFFFFF;stroke-width:1.35;stroke-miterlimit:10;}
	.st3{fill:none;stroke:#FFFFFF;stroke-width:1.33;stroke-miterlimit:10;}
</style>
<g>
	<path class="st0" d="M117.9,12.8h3.1v1.5h17.7V13h3.3v35.1h-3.3v-1.5H121v1.5h-3.1V12.8z M121,15.7v29.4h17.7V15.7L121,15.7
		L121,15.7z M133.7,16.3V20h2.7c-0.8-0.9-1.5-2-1.9-3.4h0.2c1.4,0.4,2.4,0.9,3.1,1.5c-0.3,0.7-0.7,1.3-1.1,1.9h1.4v1.5h-4.4
		c-0.1,1.9-0.2,4.1-0.2,6.9c0,2.5,0.1,4.4,0.3,5.7c0.8-1.8,1.2-5.4,1.1-10.5h2.8c-0.1,0.4-0.2,0.8-0.2,1.2
		c-0.1,5.4-1.1,9.4-3.1,12.1c0.4,1.1,1,2.1,1.9,3.1l1.2-4.8h0.3l-0.5,5.6l0.6,0.6v3.2c-2.3-1-4.1-2.8-5.5-5.6
		c-1.9,1.8-4.1,3.5-6.6,5.3h-1.6c3-1.9,5.6-4.1,7.7-6.6c-0.8-2.6-1.2-8-1.2-16.1H122V20h8.9v-3.7H133.7z M130.4,36.4l0.2,0.1
		c-0.9,2.2-3.7,4.1-8.3,5.6c0.5-1.3,0.4-2.5-0.3-3.8C125.4,38.8,128.2,38.2,130.4,36.4z M122.6,23.6h2.7v1.5h1.7v-1.5h2.7v12.3H127
		v-1.6h-1.7v1.8h-2.7V23.6z M127,26.6h-1.7v6.3h1.7V26.6z"/>
	<path class="st0" d="M150.8,22.6h18v1.5h-7.2l-3.4,3.2c0.3,0.2,0.6,0.4,0.9,0.6c2.1,1,3.1,2.1,3,3.4l7-5.1l1.1,1.2l-5.5,3.8
		c0.5,4.6,3.3,8.1,8.4,10.5c-1.4,1.4-1.8,2.8-1.4,4.4l-0.2,0.1c-4.4-1.8-6.9-6.6-7.7-14.5l-1.7,1.2v11.3c0.1,2-1.5,3.6-4.8,4.7
		c-0.1-0.5-0.6-0.6-1.6-0.3l-2,0.3l-0.2-0.3c4.3-1.1,6.1-2.6,5.5-4.5v-8.5c-1.1,3.9-4.8,7.6-11.1,11.3h-1.7
		c5.1-2.4,8.2-6.3,9.4-11.7c-1.5,1.6-4,3.4-7.7,5.4h-1.4c4.7-2.7,7.6-6.1,8.8-10.2h3.8c-0.2-1-0.7-1.8-1.4-2.5c-2.9,2.1-6,4.1-9.4,6
		h-1.4c5.2-3.2,8.7-6.4,10.3-9.6h-6.4L150.8,22.6L150.8,22.6z M147.5,16.5h3.1v0.9h8.8c-1-1.3-1.9-2.8-2.5-4.5v-0.1
		c1.8,0.7,3.3,1.4,4.5,2c-0.5,1.2-1,2-1.6,2.6h8.9v-1.2h3.1V22c-1.1-0.9-2.2-0.7-3.1,0.4v-3.7h-18.1v3.8h-3.1V16.5L147.5,16.5z
		 M159.1,34.9v-4.1c-0.6,1.1-1.6,2.3-2.8,3.7c-0.2,0.2-0.4,0.3-0.5,0.4H159.1z"/>
	<path class="st0" d="M182.9,14.4h4.1c-0.3,4.6-3.7,10.2-10.2,17H176C180,26.9,182.3,21.3,182.9,14.4z M191.7,28h0.8
		c3.3,5.4,6.6,10.8,9.7,16.4c-0.5,1.1-1.6,2.4-3.1,4.1c-1-2.2-1.9-4.4-2.7-6.4c-5.1,3.2-11,5.2-17.8,6c0.4-1.7,0.2-3-0.6-4.1h2.2
		c3.6-5.4,5.8-12.1,6.6-20.2h4.1c-0.8,7.4-4.1,14.2-9.7,20.3c4.6-0.1,9.6-1.1,15-2.9C194.7,37.5,193.2,33.1,191.7,28L191.7,28z
		 M192.1,12.4h0.3c1.5,7,5.1,12,10.8,14.9c-1.1,1-1.5,2.2-0.9,3.8c0.1,0.4,0.1,0.6,0,0.7c0,0.1-0.2,0-0.5-0.3
		C195.9,28.1,192.7,21.7,192.1,12.4L192.1,12.4z"/>
	<path class="st0" d="M210,13.1v1.2h17.5v-1.2h3.1v35.4h-3.1v-1.9h-17.4v1.9h-3.3V13.1H210L210,13.1z M227.5,15.7H210v29.4h17.5
		V15.7z M218.5,35.2h-0.2l-0.2,0.3v8.8h-2.8v-6.4c-1,0.8-2.3,1.7-3.8,2.8h-1.4c3.2-2.3,5.5-5,6.7-7.9h-1.1v1.2h-3v-8h3V27h6.6v-1.2
		h2.8v7.7l0.5-0.6l1.2,0.9l-4.1,4.1c1,0.8,1.8,1.4,2.3,1.8c0.2,0.2,0.4,0.3,0.5,0.3c-0.1,1.4-0.4,2.6-0.8,3.7
		c-0.3-0.2-0.7-0.6-1.1-1.2C221.4,39.6,219.6,37.1,218.5,35.2L218.5,35.2z M217.4,16.3h2.8v2.5h5.5v1.5h-5.5v3.1h6.4v1.3h-15.8v-1.3
		h6.6v-3.1h-5.6v-1.5h5.6V16.3z M222.4,28.3h-6.6v3.1h6.6V28.3z M222.4,32.7h-2.2c-0.3,0.4-0.5,0.7-0.6,0.9
		c-0.2,0.3-0.5,0.7-0.9,1.3c1,0.7,2.1,1.5,3.3,2.3l3-3.2h-2.5V32.7z"/>
	<path class="st0" d="M95.3,41.4c0,0-0.1,0.1-0.1,0.1c0,0.1,0.1,0.1,0.2,0.2c0.1-0.1,0.1-0.2,0.1-0.2C95.5,41.4,95.4,41.4,95.3,41.4
		z M98.6,17c-0.2,0.2-0.3,0.3-0.5,0.5C98.4,17.5,98.6,17.3,98.6,17z M111.1,32c-0.2-0.2-0.4-0.4-0.6-0.6c-0.2-0.2-0.4-0.4-0.7-0.4
		c0,0-0.1,0-0.1-0.1c-0.3-0.3-0.5-0.4-0.8-0.2c-0.4,0.2-0.8,0.2-1.2,0.2c-0.2,0-0.2,0.1-0.2,0.2c0,0.1,0.1,0.1,0.1,0.2
		c0.1,0.2,0.1,0.3-0.1,0.4c-0.2,0.1-0.4,0.2-0.7,0.3c-0.2-0.3-0.1-0.6-0.2-0.9c-0.2-0.9,0.2-1.3,0.9-1.7c0.3-0.2,0.4-0.5,0.5-0.7
		c0.1,0,0.2-0.1,0.3-0.1c0.1-0.2,0.3-0.4,0.4-0.7c0-0.1-0.1-0.3-0.1-0.5c0,0-0.1,0-0.1,0c-0.1,0.2-0.3,0.5-0.4,0.7
		c-0.1-0.1-0.3-0.2-0.4-0.3c-0.1-0.1-0.1-0.1,0-0.2c0.3-0.2,0.5-0.4,0.7-0.6c0.1-0.1,0.1-0.4-0.1-0.5c-0.2-0.1-0.4-0.2-0.5-0.1
		c-0.2,0.1-0.4,0.1-0.7,0.1c-0.2,0-0.2-0.1-0.2-0.2c0-0.2,0.1-0.4,0.1-0.6c0-0.2,0-0.3,0.3-0.2c0,0,0.1,0,0.1,0c0,0,0-0.1,0-0.2
		c0-0.1-0.1-0.1-0.1-0.2c0.1-0.2,0.1-0.3,0.2-0.4c0.3-0.5,0.2-0.8-0.3-1c-0.1-0.1-0.2-0.1-0.1-0.3c0.1-0.3,0-0.5-0.2-0.7
		c-0.1-0.1-0.2-0.3-0.3-0.4c-0.1-0.1-0.1-0.2-0.2-0.2c-0.2,0-0.5,0.4-0.5,0.5c0,0.1,0,0.2-0.1,0.2c-0.4,0.1-0.4,0.5-0.5,0.8
		c-0.1,0.2,0,0.5,0.1,0.7c0.2,0.3,0.2,0.6,0.2,0.9c0,0.5,0,1,0,1.4c0,0.1-0.1,0.2-0.2,0.3c-0.3,0.2-0.7,0.4-1.1,0.6
		c-0.3,0.2-0.6,0.4-0.9,0.6c-0.3,0.2-0.5,0.4-0.7,0.6c-0.4,0.4-0.8,0.9-1.3,1.3c-0.5,0.5-1,1-1.5,1.4c-0.1,0.1-0.2,0.1-0.3,0.2
		c0-0.1,0-0.2,0-0.3c0,0,0,0,0-0.1c0-0.3-0.1-0.7-0.1-1c0-0.3,0-0.6-0.2-0.9c-0.1-0.2-0.3-0.4,0-0.7c0.1-0.1,0.2-0.3,0.2-0.5
		c0-0.3,0.2-0.5,0.4-0.8c0.3-0.3,0.5-0.6,0.8-0.9c0.1-0.1,0.2-0.3,0.3-0.5c0.1-0.1,0.1-0.1,0.3-0.1c0.2,0.1,0.3-0.1,0.2-0.2
		c-0.1-0.4,0.1-0.7,0.1-1c0.2-0.6,0.6-1,1-1.4c0.3-0.2,0.6-0.3,0.8-0.4c0.4-0.2,0.8-0.3,1.2-0.5c0.2-0.1,0.4-0.1,0.6-0.2
		c0.2-0.1,0.4-0.3,0.6-0.5c0.1-0.1,0.2-0.1,0.2-0.2c0.1-0.1,0.1-0.2,0.2-0.3c0.1-0.2,0.1-0.4,0.2-0.6c0.1-0.2,0.3-0.4,0.2-0.5
		c-0.1-0.3-0.2-0.6-0.4-0.7c-0.3-0.2-0.7-0.3-1.1-0.1c-0.2,0.1-0.4,0.3-0.6,0.5c-0.1-0.1-0.1-0.1-0.1-0.2c-0.1,0.1-0.2,0.2-0.2,0.4
		c-0.1,0.2-0.2,0.1-0.3,0.1c-0.1-0.1-0.2-0.2-0.1-0.3c0-0.1,0-0.1,0.1-0.2c-0.2,0.1-0.3,0.3-0.4,0.4c0,0,0,0.1,0,0.1
		c0.1,0.4-0.2,0.6-0.4,0.8c-0.1,0.1-0.1,0.2-0.1,0.2c0,0.3,0,0.6,0,0.8c0,0.3-0.1,0.5-0.3,0.7c-0.4,0.4-0.8,0.8-1.1,1.2
		c-0.1,0.1-0.2,0.1-0.3,0.1c-0.1,0-0.1-0.2-0.1-0.2c0-0.3,0-0.5,0-0.8c0-0.4,0.1-0.6,0.4-0.8c0.2-0.1,0.4-0.3,0.7-0.5
		c-0.1-0.1-0.2-0.1-0.2-0.1c0-0.2,0.1-0.4,0-0.5c-0.1-0.1-0.3-0.1-0.4-0.1c-0.2-0.3-0.2-0.7-0.1-1.2c0.1-0.3,0.1-0.6,0.2-0.8
		c0.1-0.4,0.3-0.7,0.7-0.9c0.3-0.2,0.6-0.4,1-0.5c0.3-0.1,0.6-0.3,0.9-0.3c0.5,0.1,1-0.2,1.5-0.4c0.1,0,0.1-0.1,0.2-0.2
		c0.1-0.2,0.1-0.3-0.1-0.3c-0.1,0-0.3,0-0.4-0.1c-0.1,0-0.1-0.1-0.2-0.1c0,0,0.1-0.1,0.1-0.1c0.1-0.1,0.3-0.1,0.4-0.2
		c-0.1-0.2,0-0.4,0.2-0.5c0.1-0.1,0.1-0.2,0-0.2c-0.2-0.1-0.5-0.1-0.7-0.1c-0.3,0-0.6,0-0.9,0c-0.2,0-0.4-0.1-0.5-0.1
		c-0.1,0-0.2,0-0.4,0c0.2,0.4,0.1,0.5-0.3,0.6c0,0-0.1,0-0.1,0.1c-0.1,0.1-0.3,0.1-0.4,0.2c0,0-0.2-0.1-0.2-0.2c0-0.2,0-0.3,0-0.5
		c0-0.2,0.1-0.2,0.3-0.3c0.2,0,0.3-0.2,0.5-0.2c0.1-0.1,0.2-0.2,0.3-0.2c0.2,0.1,0.2-0.1,0.2-0.2c0-0.1,0-0.2,0.1-0.2
		c0.2-0.2,0.5-0.4,0.7-0.6c0,0,0.1-0.1,0.1-0.1c-0.1-0.2,0.1-0.3,0.2-0.5c0,0,0.1-0.1,0-0.2c-0.1-0.2,0-0.2,0.1-0.3
		c0.1-0.1,0.1-0.2,0.1-0.3c0-0.1-0.1-0.2-0.2-0.3c-0.1-0.1-0.1-0.2,0.1-0.3c0.1,0,0.2-0.1,0.1-0.2c-0.1-0.3-0.3-0.6-0.6-0.7
		c-0.4-0.2-0.8,0-1.2,0.2c-0.1,0.1-0.2,0.1-0.2,0c-0.2-0.3-0.5-0.6-0.8-0.8c0,0,0-0.1-0.1-0.1c0.1,0,0.1-0.1,0.2-0.1
		c0.2,0.1,0.5,0.2,0.7,0.3c0.1,0,0.1,0,0.2,0c0-0.2,0-0.4,0-0.6c0.1-0.2,0-0.4-0.2-0.5c-0.3-0.1-0.5-0.2-0.8-0.2
		c-0.2,0-0.3,0-0.3-0.2c0-0.1-0.1-0.3-0.2-0.4c0,0,0-0.1,0-0.1c-0.1-0.1-0.1-0.2-0.2-0.3c0,0-0.2,0-0.2,0c-0.1,0.1-0.2,0.2-0.4,0.3
		c0.1,0.1,0.2,0.2,0.3,0.3c0.1,0.1,0.3,0.2,0.5,0.3c-0.2,0.2-0.4,0.3-0.6,0.4c-0.3,0.1-0.4,0.3-0.6,0.6c0,0.1-0.1,0.2-0.2,0.2
		c-0.2,0.1-0.6,0.1-0.7,0.5c-0.2-0.3-0.3-0.4-0.1-0.7c-0.1,0-0.2-0.1-0.3-0.1c0,0.1-0.1,0.2,0,0.3c0,0.1,0,0.2,0.1,0.3
		c0,0.2,0.1,0.5,0.2,0.7c0.1-0.1,0.1-0.1,0.1-0.2c0-0.1,0-0.1,0-0.2c0.4,0,0.4,0,0.5,0.4c0.1,0.2,0.1,0.4,0.1,0.6c0,0.1,0,0.2,0,0.2
		c0.2,0.4,0,0.9-0.4,1.1c-0.5,0.3-1,0.6-1.6,0.9c-0.3,0.1-0.6,0.3-0.9,0.4c-0.2,0.1-0.3,0-0.4-0.2c-0.1-0.2-0.2-0.5-0.4-0.6
		c0,0-0.1-0.1-0.1-0.1c0,0,0.1-0.1,0.1-0.1c0.1,0,0.2,0,0.3,0c-0.1-0.2-0.2-0.3-0.4-0.4c-0.2,0-0.3-0.1-0.5-0.2
		c-0.2,0-0.4-0.1-0.5,0c-0.2,0.2-0.5,0.4-0.4,0.7c0,0.1,0,0.1-0.2,0.2c-0.2,0.1-0.4,0.2-0.6,0.3c-0.1,0.1-0.2,0.3-0.2,0.4
		c0,0.8,0.3,1.5,0.9,2c0.1,0,0.1,0.1,0.2,0.1c0.5,0,1,0.1,1.4,0.5c0.2,0.2,0.5,0.1,0.7-0.1c0.1-0.1,0.2-0.2,0.4-0.1
		c0.2,0.1,0.4,0,0.4-0.3c0-0.2,0.1-0.5,0-0.7c-0.1-0.4,0.1-0.7,0.4-0.9c0.4-0.3,0.8-0.6,1.3-0.6c0.2,0,0.5,0.1,0.5,0.3
		c0,0.3-0.1,0.6-0.3,0.8c-0.2,0.2-0.3,0.5-0.5,0.8c-0.2,0.3-0.2,0.6-0.4,0.8c-0.3,0.3-0.6,0.6-0.9,0.9c-0.4,0.4-0.9,0.7-1.4,1.1
		c0,0,0,0,0-0.1c-0.1,0-0.3-0.1-0.4-0.1c-0.1,0.1-0.3,0.3-0.3,0.4c-0.1,0.3-0.3,0.5-0.7,0.7c-0.4,0.1-0.7,0.3-1.1,0.5
		c-0.2,0.1-0.3,0.3-0.5,0.4c-0.4,0.3-0.5,0.5-0.1,0.8c0.4,0.3,0.7,0.9,1.3,0.7c0,0,0.1,0,0.1,0c0.4,0,0.7,0.1,1-0.2
		c0.1-0.1,0.2-0.3,0.4-0.4c0.2-0.2,0.3-0.3,0.5-0.4c0.2-0.1,0.4-0.2,0.5-0.2c0.1,0,0.1-0.1,0.2-0.2c0,0,0,0,0,0
		c-0.2,0.1-0.3,0.1-0.5,0.2v-0.3c-0.1,0.1-0.2,0.2-0.3,0.3c-0.1,0-0.1,0.1-0.2,0c0,0-0.1-0.1-0.1-0.1c-0.4,0.2-0.7,0.4-1.1,0.5
		c-0.3,0.1-0.4,0-0.5-0.3c0.3,0,0.5-0.1,0.7-0.3c0.1-0.1,0.2-0.1,0.2-0.2c0.2,0,0.3-0.1,0.3-0.3c0-0.2,0.2-0.3,0.4-0.2
		c0.1,0,0.1,0,0.2,0c0.1,0,0.2-0.1,0.4-0.1c0.1,0,0.1,0,0.2,0.1c0,0.1,0,0.1-0.1,0.2c-0.1,0.1-0.2,0.2-0.2,0.3c0,0,0.1,0.1,0.1,0.1
		c0.1-0.1,0.2-0.2,0.2-0.3c0.2-0.2,0.3-0.4,0.5-0.5c0.3-0.2,0.5-0.4,0.8-0.5c0.3-0.1,0.6-0.4,0.9-0.6c0,0,0.1,0,0.2,0
		c0,0.1,0,0.1,0,0.2c0,0.3-0.2,0.5-0.5,0.7c-0.1,0-0.2,0.2-0.2,0.2c0.1,0.3-0.1,0.2-0.3,0.3c0-0.1,0.1-0.1,0.1-0.3
		c-0.4,0.2-0.8,0.3-1.2,0.5c0,0,0,0,0,0.1c0.3,0,0.6-0.1,0.9-0.1c-0.1,0.1-0.3,0.2-0.4,0.3c0,0,0,0,0,0.1c0.3-0.2,0.5-0.3,0.8-0.5
		c0.1,0,0.1,0,0.2-0.1c0,0.1,0,0.1,0,0.2c-0.1,0.4-0.2,0.9-0.3,1.3c-0.1,0.3-0.1,0.6-0.2,0.8c0,0-0.1,0.1-0.2,0.1
		c-0.1-0.3-0.6-0.2-0.7-0.5c0,0-0.1,0-0.1,0c-0.3,0.1-0.6,0.1-0.9,0.2c-0.2,0.1-0.2,0.2-0.1,0.4c0,0.1,0,0.2,0,0.3
		c-0.1,0.3-0.4,0.6-0.7,0.8c-0.1,0.1-0.1,0.2-0.2,0.3c0,0.3,0,0.5,0.2,0.7c0,0,0,0.1,0,0.1c0.1,0.4,0.1,1,0.7,1.1
		c0.1,0,0.1,0.1,0.1,0.1c0.1,0.2,0.3,0.1,0.4,0c0.3-0.2,0.5-0.5,0.8-0.7c0.3-0.2,0.5-0.4,0.8-0.6c0.1,0.3,0.2,0.6,0.3,0.8
		c0.1,0.1,0,0.3-0.1,0.4c-0.2,0.2-0.5,0.4-0.7,0.6c-0.4,0.3-0.7,0.7-1,1.1c-0.1,0.2-0.2,0.4-0.4,0.4c-0.5,0.3-0.9,0.6-1.2,1.1
		c-0.2,0.4-0.5,0.8-0.8,1.2c-0.2,0.3-0.4,0.6-0.6,0.9c-0.2,0.4-0.5,0.7-0.8,1.1c-0.1,0.1-0.2,0.2-0.4,0.1c-0.4-0.1-0.8-0.2-1.1-0.3
		c-0.3,0-0.5,0-0.8-0.1c-0.4-0.1-0.7-0.2-1.1-0.1c-0.1,0-0.2-0.1-0.2-0.1c0-0.4,0-0.8,0.1-1.1c0.1-0.3,0.1-0.5,0-0.8
		c-0.1-0.2-0.2-0.4-0.3-0.7c-0.1-0.2-0.1-0.4-0.1-0.6c-0.1-0.3-0.1-0.3,0.2-0.5c0.4-0.2,0.8-0.4,1.1-0.7c0.2-0.1,0.2-0.3,0-0.5
		c-0.1-0.1-0.1-0.3-0.1-0.4c0.1-0.3,0.3-0.7,0.5-1c0.1-0.1,0.2-0.2,0.3-0.3c0.1-0.1,0.2-0.1,0.3-0.2c0.3-0.3,0.6-0.6,0.9-0.8
		c0.2-0.1,0.2-0.2,0-0.3c-0.2-0.2-0.5-0.4-0.7-0.6c-0.2-0.2-0.2-0.5-0.5-0.6c-0.3-0.2-0.5-0.5-0.8-0.7c-0.3-0.2-0.6-0.2-0.9-0.2
		c-0.2,0-0.4,0.1-0.6,0.1c-0.2,0.1-0.3,0-0.3-0.2c0-0.3,0.2-0.5,0.2-0.8c0-0.6,0.4-0.9,0.7-1.2c0,0,0.1-0.1,0.2-0.1
		c0.3-0.1,0.6-0.2,0.9-0.5c0.4-0.4,0.5-1.1,0.1-1.4c-0.3-0.3-0.6-0.6-1-0.8c-0.4-0.2-0.7-0.2-1-0.1c-0.3,0.1-0.5-0.1-0.5-0.4
		c0-0.1,0-0.1,0-0.2c-0.1-0.4-0.1-0.9-0.2-1.3c0-0.1,0-0.3,0-0.4h0c0,0.1,0,0.2-0.1,0.3c-0.3-0.2-0.3-0.7-0.1-1
		c0,0.2,0.1,0.3,0.1,0.4c0-0.1,0-0.2,0-0.3c0.1-0.2,0-0.2-0.1-0.3c-0.1-0.1-0.3-0.3-0.3-0.4c0-0.4-0.1-0.4-0.4-0.4
		c-0.1,0-0.1,0-0.2,0c-0.3-0.2-0.6-0.1-0.9,0c-0.3,0.1-0.5,0.3-0.7,0.5c-0.4,0.2-0.5,0.7-0.7,1c-0.1,0.2-0.1,0.4-0.3,0.6
		c-0.2,0.2-0.3,0.6-0.3,0.8c-0.1,0.4-0.1,0.9-0.1,1.3c0,0.2,0.1,0.4,0.1,0.5c0.1,0.2,0.1,0.5,0.2,0.7c0,0.1,0.1,0.1,0.2,0.1
		c0.3,0,0.6-0.1,0.9-0.2c0.2-0.1,0.5,0,0.7-0.3c0,0,0.2-0.1,0.2,0c0.1,0.1,0.1,0.2,0.1,0.3c0,0-0.1,0.1-0.1,0.1
		c-0.4,0.3-0.8,0.6-1.2,0.9c-0.2,0.1-0.4,0.2-0.7,0.3c-0.2,0.1-0.3,0-0.3-0.2c0-0.1,0-0.3-0.1-0.5c-0.1,0.1-0.1,0.1-0.1,0.2
		c-0.1,0.2-0.3,0.4-0.4,0.6c-0.2,0.2-0.5,0.3-0.7,0.5c-0.2,0.2-0.3,0.3-0.2,0.6c0.1,0.4,0.3,0.6,0.5,0.9c0.1,0.1,0.4,0.2,0.4,0.2
		c0.1-0.2,0.3-0.1,0.4,0c0.1,0,0.2,0,0.2-0.1c0.3-0.2,0.6-0.3,0.8-0.5c0.2-0.2,0.5-0.3,0.5-0.6c0,0,0.1-0.1,0.1-0.1
		c0,0,0.1,0.1,0.1,0.1c0,0,0,0.1,0,0.1c0.5-0.1,0.7,0.1,0.7,0.7c0.1-0.1,0.1-0.2,0.2-0.3c0,0,0.1-0.1,0.1-0.1c0,0,0.1,0.1,0.1,0.1
		c0,0.2,0,0.4,0,0.6c0,0.1,0,0.2,0,0.3c0,0.2,0,0.5,0,0.7c-0.1,0.2-0.3,0.3-0.5,0.4c-0.3,0.2-0.5,0.1-0.8-0.1
		c-0.2-0.2-0.5-0.3-0.8-0.4c-0.3-0.1-0.4-0.2-0.4-0.5c0,0,0-0.1,0-0.2c-0.2,0.1-0.3,0.2-0.5,0.3c-0.2,0.1-0.5,0.2-0.7,0.3
		c-0.5,0.3-0.7,0.8-0.9,1.3c-0.2,0.5-0.4,1-0.7,1.4c-0.5,0.8-1.1,1.6-1.7,2.5c-0.2,0.4-0.4,0.8-0.6,1.2c-0.1,0.2-0.1,0.3-0.3,0.5
		c-0.1,0.2-0.2,0.4-0.1,0.6c0.1,0.2,0,0.3,0.1,0.5c0,0.1,0,0.1,0,0.2c0.2,0.2,0.1,0.4,0,0.7c-0.1,0.5-0.3,1.1-0.4,1.6
		c-0.2,0.6-0.3,1.1-0.5,1.7c-0.2,0.6-0.5,1.2-0.7,1.8c-0.2,0.5-0.3,1-0.5,1.4c-0.1,0.4-0.2,0.8-0.3,1.2c-0.1,0.5,0,1.1-0.1,1.6
		c0,0,0,0.1,0,0.1c0.2,0.3,0.4,0.5,0.8,0.6c0.2,0,0.4,0,0.4-0.2c0-0.1,0.1-0.2,0.2-0.3c0.2-0.2,0.3-0.3,0.3-0.6
		c-0.1-1.3,0-2.5,0.5-3.7c0.1-0.3,0.2-0.5,0.3-0.8c0.2-0.4,0.3-0.9,0.5-1.3c0.1-0.2,0-0.5,0.1-0.6c0.3-0.5,0.4-0.9,0.4-1.5
		c0-0.3,0.1-0.7,0.2-1c0-0.1,0.1-0.2,0.2-0.4c0.1-0.1,0.1-0.3,0.2-0.4c0.1-0.2,0.3-0.4,0.4-0.6c0.1-0.1,0.1-0.3,0.2-0.4
		c0.3-0.3,0.7-0.7,1-1c0.3-0.3,0.6-0.5,0.9-0.8c0.2-0.2,0.4-0.3,0.7-0.4c0,0,0.2,0,0.2,0.1c0.1,0.3,0.2,0.5,0.3,0.8
		c0,0.1,0,0.2-0.1,0.3c-0.2,0.2-0.5,0.3-0.7,0.5c-0.3,0.2-0.7,0.5-1,0.7c-0.3,0.2-0.5,0.5-0.8,0.8c0,0-0.1,0.1-0.1,0.1
		c0,0.2,0.4,0.6,0.6,0.5c0.2-0.1,0.3,0,0.4,0.1c0.5,0.6,0.8,0.6,1.4,0.4c0.2-0.1,0.4-0.2,0.4-0.5c0-0.1,0-0.1,0.1-0.2
		c0.3-0.2,0.7-0.5,1-0.7c0.4-0.2,0.7-0.4,1-0.6c0.1-0.1,0.2-0.2,0.3-0.2c0.2-0.1,0.5-0.3,0.7-0.4c0.2-0.1,0.3-0.1,0.3,0.1
		c0,0.3,0,0.7,0,1c0,0.5-0.2,0.9-0.2,1.4c0,0.4,0,0.9,0.1,1.3c0,0.1,0,0.2-0.2,0.2c-0.2,0-0.4-0.1-0.4-0.3c0-0.1,0.1-0.3,0.1-0.4
		c0-0.1,0-0.2,0.1-0.3c0,0-0.1,0-0.1,0c-0.1,0.2-0.2,0.3-0.2,0.5c-0.1,0.2-0.2,0.3-0.4,0.1c-0.2-0.1-0.5-0.3-0.7-0.3
		c-0.4,0-0.8,0.1-1.2,0.4c0,0-0.2,0-0.2,0c-0.2-0.1-0.3-0.3-0.4-0.4c-0.6-0.4-1.1-0.6-1.8-0.3c-0.2,0.1-0.5,0.2-0.7,0.3
		c0,0.1,0.1,0.3,0.1,0.4c-0.1,0.3-0.2,0.7-0.3,1c0,0,0,0.1,0,0.1c0.1,0.3,0.1,0.6,0.2,0.8c0.2,0.6,0.3,1.1,0.7,1.6
		c0.4,0.6,0.9,1.2,1.5,1.6c0.2,0.1,0.3,0.1,0.4-0.1c0,0,0.1-0.1,0.1-0.1c0.2,0,0.4,0,0.6,0.1c0.2,0,0.3,0.1,0.5,0
		c0.1,0,0.3-0.2,0.3-0.3c-0.2-0.3,0.1-0.5,0.2-0.7c0-0.1,0.2-0.2,0.2-0.2c0.2,0.1,0.3-0.1,0.4-0.2c0.1-0.2,0.1-0.5,0.1-0.8
		c0-0.5,0.1-0.5,0.6-0.7c0.1,0,0.1,0,0.2,0c0.2,0,0.3,0,0.4,0.2c0.1,0.3,0.3,0.6,0.5,0.9c0.2,0.3,0.4,0.5,0.6,0.7c0,0,0.1,0,0.1,0
		c-0.1-0.2-0.2-0.5-0.3-0.7c0.1,0.1,0.2,0.1,0.3,0.1c0.3,0.2,0.7,0.4,1,0.6c0.1,0,0.1,0,0.2,0c0-0.1,0-0.1,0-0.2
		c-0.1-0.1-0.1-0.3-0.2-0.4c-0.1-0.1-0.1-0.2,0.1-0.3c0.2-0.1,0.4-0.3,0.7-0.5c0,0,0.1,0,0.1,0c0.4,0.1,0.4,0,0.6-0.3
		c0.1-0.2,0.2-0.4,0.3-0.6c0.2-0.2,0.3-0.4,0.5-0.6c0.1-0.1,0.1-0.2,0.2-0.3c0.1,0.1,0.1,0.2,0.2,0.2c0.2,0.3,0.1,0.7,0,1
		c0,0.2-0.1,0.3-0.1,0.5c0,0.1,0.1,0.2,0.3,0.2c0.2,0,0.4-0.1,0.5,0c0.4,0.1,1-0.1,1.2-0.4c0.1-0.2,0.3-0.5,0.3-0.7
		c0.1-0.3,0.5-0.4,0.5-0.8c0,0,0,0,0,0c0.3-0.1,0.3-0.4,0.5-0.6c0.2-0.3,0.4-0.6,0.7-0.9c0.1-0.2,0.3-0.3,0.4-0.5c0,0,0.1,0,0.2-0.1
		c0,0.1,0,0.1,0,0.2c-0.2,0.6-0.4,1.2-0.7,1.7c-0.1,0.3-0.3,0.7-0.5,0.9c-0.3,0.4-0.7,0.8-1,1.2c-0.5,0.6-1.1,1-1.8,1.4
		c-0.3,0.2-0.7,0.2-1,0.4c-0.1,0-0.2,0.1-0.2,0.2c0,0.3-0.1,0.7-0.1,1c0,0.1,0.1,0.2,0.1,0.2c0.3,0,0.3,0.2,0.3,0.4
		c0,0.1,0.1,0.1,0.1,0.2c0.2,0.2,0.3,0.2,0.4-0.1c0.1-0.1,0.1-0.2,0.1-0.3c0-0.2,0.1-0.2,0.3-0.1c0.5,0.2,0.8,0,1-0.4
		c0.2-0.2,0.3-0.2,0.4,0c0.1,0.3,0.3,0.5,0.5,0.7c0,0,0.1,0,0.1,0c0.1-0.2,0.1-0.4,0.2-0.6c0.1,0,0.1,0.1,0.1,0.1
		c0.1,0.2,0.3,0,0.4,0c0,0,0.1-0.1,0.1-0.2c0-0.2,0-0.4,0-0.5c0.1-0.2,0-0.4,0.1-0.6c0,0,0-0.1,0-0.1c-0.5,0.2-0.2,0.8-0.6,1.1
		c0-0.1,0-0.2,0-0.3c0-0.2,0-0.4,0.1-0.6c0.1-0.4,0.1-0.8,0.4-1.1c0.4-0.4,0.8-0.8,1.2-1.2c0.3-0.3,0.5-0.6,0.7-0.9
		c0.3-0.5,0.6-1,1.1-1.4c0.1-0.1,0.1-0.2,0.1-0.2h0h0c-0.1,0-0.2,0.1-0.4,0.2c0.2-0.4,0.5-0.6,0.8-0.8c0,0.1,0,0.2-0.1,0.3
		c-0.1,0.1-0.2,0.2-0.2,0.3h0h0c0.1,0,0.2-0.1,0.2-0.1c0.1-0.1,0.3-0.2,0.4-0.4c0.3-0.3,0.6-0.5,0.8-0.8c0.2-0.2,0.4-0.5,0.7-0.7
		c0,0,0.1,0,0.2-0.1c0,0.1,0,0.2,0,0.2c-0.3,0.6-0.6,1.2-0.8,1.9c-0.2,0.4-0.2,0.9-0.3,1.3c0,0.1,0,0.2,0,0.3c0.1,0.3,0,0.6-0.2,0.7
		c-0.1,0-0.2,0-0.3,0c-0.1,0-0.1,0-0.2,0c-0.1,0-0.2,0-0.3,0c-0.1,0-0.3,0.1-0.3,0.3c0.1,0.6,0.4,1,0.9,1.3c0.3,0.2,0.7,0.2,1,0.3
		c0.2,0,0.3,0.1,0.5,0.1c0.3-0.2,0.7-0.1,1.1-0.2c0.5-0.2,1.1-0.4,1.7-0.6c0.1,0,0.2,0,0.2,0c0.1,0,0.1,0.2,0.1,0.2
		c0,0.4,0,0.9-0.1,1.3c0,0.7,0-0.5-0.1,0.1c0,0.5-0.1,1.1-0.1,1.6c-0.1,1.5-0.2,1.2-0.3,2.8c0,0.3,0,0.6,0,0.9
		c-0.1,1.1-0.2,2.2-0.2,3.3c0,1.3-0.2,2.5-0.3,3.8c0,0.2,0,0.3,0.1,0.5c0.1,0.2,0.2,0.2,0.3,0c0.2-0.2,0.3-0.5,0.5-0.7
		c0-0.1,0.1-0.1,0.2-0.1V51c0,0,0.1,0,0.1,0c0.1-0.4,0.1-0.7,0.2-1.1c0,0-0.1-0.1-0.1-0.1c-0.1-0.2-0.2-0.3-0.4-0.2
		c-0.1-0.2,0-0.5,0.2-0.8c0,0.2,0,0.3-0.1,0.5c0.1-0.1,0.2-0.1,0.2-0.1c0.1-0.3,0.2-0.6,0.2-0.9c0.1-0.9,0.1-1.9,0.2-2.8
		c0-0.3,0-0.3-0.3-0.3c-0.1,0-0.1,0-0.1,0c-0.1,0-0.1,0-0.2-0.1c0,0,0-0.1,0-0.1c0.1,0,0.1,0,0.2,0c0.2,0.1,0.3,0,0.3-0.1
		c0.1-0.2,0.1-0.3,0.2-0.5c0-0.1,0-0.1,0-0.2c0-0.2-0.1-0.5-0.1-0.7c0,0,0-0.1,0-0.1v0c0,0,0,0,0,0c0,0,0,0,0,0
		c0-0.1,0.1-0.2,0.1-0.2c0-0.1,0-0.3,0-0.4c0,0.2-0.1,0.3-0.1,0.5c0,0,0,0,0,0.1c0-0.4,0-0.8,0-0.8c0.1,0.1,0.1,0.1,0.1,0.2
		c0-0.1,0-0.3,0.1-0.4c0.1-0.3-0.1-0.6,0.1-0.9c0.1-0.1,0-0.2,0-0.4c0-0.1,0-0.1,0-0.2c0,0,0.1-0.1,0.1-0.1c0-0.3,0-0.5,0-0.8
		c0-0.7,0.1-1.3,0.1-1.9c0-0.3,0.1-0.6,0.1-0.9c0-0.4,0,1.1,0.1,0.7c0,0,0-0.1,0-0.1c0-0.7,0.1-1.3,0.2-2c0-0.2,0.1-0.4,0.4-0.6
		c0.3-0.2,0.5-0.3,0.8-0.5c0.3-0.3,0.6-0.3,0.9-0.4c0.2,0,0.4-0.1,0.4-0.3c0.3-0.4,0.7-0.6,1.1-0.9c0.2-0.1,0.3-0.2,0.5-0.2
		C111.2,32.6,111.3,32.3,111.1,32L111.1,32z M107,28c0,0,0.1,0.1,0.2,0.1c-0.1,0.1-0.2,0.2-0.3,0.3c-0.1-0.1-0.1-0.2-0.1-0.2
		C106.9,28.1,106.9,28,107,28L107,28z M102.5,14.2c0.1-0.3,0.3-0.5,0.4-0.7c0,0,0.1-0.1,0.2-0.1c0,0.1,0.1,0.1,0.1,0.2
		c-0.1,0.2-0.2,0.3-0.3,0.5c-0.1,0.1-0.2,0.2-0.3,0.4c0,0,0,0-0.1,0C102.5,14.4,102.4,14.3,102.5,14.2L102.5,14.2z M104.7,16.5
		c0.1,0,0.2,0.1,0.2,0.2c0,0.1-0.1,0.2-0.2,0.2c-0.2,0.1-0.4,0.1-0.5-0.2c-0.1-0.1-0.2-0.2-0.3-0.3
		C104.2,16.4,104.4,16.4,104.7,16.5L104.7,16.5z M102.1,17.7c0.1-0.4,0.5-0.7,0.8-1c0.4-0.3,0.7-0.2,1,0.1c0,0.1,0.1,0.1,0.2,0.1
		c0,0,0.1,0.1,0.1,0.1c-0.1,0-0.1,0.1-0.1,0.1c-0.6,0.3-1.1,0.5-1.7,0.8c-0.1,0-0.2,0-0.3,0C102.1,17.9,102.1,17.8,102.1,17.7
		L102.1,17.7z M100.5,15.7c0-0.2-0.1-0.3-0.1-0.5C100.6,15.3,100.7,15.5,100.5,15.7z M99.6,17.4c-0.1,0.1-0.3,0.2-0.4,0.3
		c0,0-0.1,0-0.1,0c0-0.1,0-0.1,0-0.2c0.2-0.2,0.4-0.4,0.6-0.6c0.2-0.1,0.3-0.3,0.5-0.4c0,0,0.1-0.1,0.1-0.1c0,0,0.1,0.1,0.1,0.1
		c0,0.3-0.1,0.4-0.3,0.4C99.9,17.1,99.8,17.3,99.6,17.4L99.6,17.4z M87.6,26.7c-0.1,0.1-0.1,0.1-0.1,0.2c0,0.1,0,0.2-0.1,0.2
		c-0.1,0-0.3,0.1-0.4,0.1c-0.3-0.1-0.3-0.3-0.1-0.5c0.1-0.1,0.2-0.2,0.2-0.3c0.1-0.2,0.3-0.3,0.4-0.3c0.2,0,0.2,0.2,0.3,0.4
		C87.7,26.5,87.7,26.6,87.6,26.7L87.6,26.7z M85.4,36.1c-0.1,0.2-0.2,0.2-0.4,0.1c-0.5-0.4-0.7-0.9-0.7-1.5c0-0.2,0.1-0.4,0.2-0.6
		c0.2-0.2,0.4-0.4,0.6-0.5c0,0,0.2-0.1,0.2,0c0.3,0.3,0.4,0.7,0.5,1.3C85.7,35.2,85.6,35.7,85.4,36.1L85.4,36.1z M89.5,25.9
		c-0.1-0.1-0.2-0.2-0.2-0.3c0-0.4,0.3-0.9,0.7-1c0.2-0.1,0.4-0.2,0.5-0.2c0.1,0,0.1,0,0.2,0c0,0.1,0,0.1,0,0.2
		c-0.2,0.3-0.4,0.7-0.6,1C90,25.7,89.8,25.8,89.5,25.9L89.5,25.9z M90,31.2V32c0,0,0,0-0.1,0c0-0.1-0.1-0.2,0-0.3
		c0-0.4,0-0.8,0.1-1.3c0-0.3,0.2-0.5,0.2-0.8c0,0,0-0.1,0.1-0.1c0,0,0.1,0,0.1,0.1c0,0.2,0.1,0.4,0.1,0.6c0,0.3-0.1,0.6-0.1,0.9
		C90.2,31.2,90.2,31.3,90,31.2L90,31.2z M91.5,34c-0.3,0.4-0.6,0.8-0.9,1.2c0,0-0.1,0-0.1,0c-0.3-0.7,0-1.4-0.1-2.2
		c0.1,0.1,0.2,0.1,0.3,0.1c0.3,0.2,0.5,0.4,0.8,0.5C91.5,33.7,91.6,33.8,91.5,34z M105.4,33c-0.1,0.4-0.4,0.3-0.6,0.5
		c0,0-0.1,0-0.1,0c0-0.1-0.1-0.2,0-0.3c0.2-0.4,0.4-0.7,0.7-1.1c0,0,0,0,0.1,0C105.5,32.4,105.4,32.7,105.4,33L105.4,33z
		 M106.4,25.7c0,0.1-0.1,0.1-0.2,0.2c0,0-0.1,0-0.1,0c0,0.2-0.1,0.4-0.1,0.6c0,0,0,0-0.1,0c0,0-0.1-0.1-0.1-0.1c0-0.2,0-0.4,0-0.7
		c0-0.2-0.1-0.3-0.1-0.5c-0.1-0.3,0-0.4,0.3-0.4c0.1,0,0.2,0,0.3,0.2C106.6,25.2,106.5,25.4,106.4,25.7L106.4,25.7z M96.8,37.2
		c0.4,0.1,0.6-0.1,0.5-0.6C97,36.7,96.8,36.9,96.8,37.2z M98,17.5c-0.2,0-0.3,0.2-0.4,0.4c0,0,0,0,0,0C97.8,17.9,97.9,17.7,98,17.5
		C98,17.6,98,17.6,98,17.5L98,17.5z M97,27.3c0-0.2-0.1-0.2-0.2-0.2c-0.2,0-0.3,0.1-0.3,0.4c0.1,0,0.1,0.1,0.3,0.2
		C96.9,27.6,97,27.4,97,27.3L97,27.3z M106,44.1c0.1-0.2,0.1-0.3,0.2-0.5c0-0.1,0-0.2-0.1-0.2c-0.1,0-0.1-0.1-0.1-0.1c0,0,0,0,0,0
		C105.9,43.7,106,44.2,106,44.1z M73.3,41.3c-0.4-0.3-0.8-0.4-1.3-0.5c-0.2,0-0.3,0.1-0.5,0.1c-0.4,0-0.7,0.3-0.7,0.7
		c0,0.2-0.1,0.2-0.3,0.2c-0.1,0-0.3,0-0.4,0.1c-0.2,0.1-0.3,0.3-0.4,0.5c-0.1,0.2-0.1,0.4,0.1,0.5c0,0,0.1,0.1,0.1,0.1
		c0,0.1-0.1,0.3,0,0.4c0.2,0.4-0.2,0.7,0,1.1c0,0,0,0,0,0c-0.1,0.3-0.1,0.5-0.2,0.8c-0.1,0.2,0,0.4,0.1,0.6c0.3,0.5,0.8,0.7,1.3,1
		c0.2,0.1,0.5,0.2,0.7,0.2c0.2,0,0.4,0.1,0.6,0.1c0.3,0,0.2-0.3,0.3-0.5c0,0,0-0.1,0.1-0.2c0.1-0.1,0.1-0.2,0.2-0.2
		c0.4,0,0.4-0.4,0.6-0.5c0.1-0.1,0.1-0.4,0.1-0.6c0.1-0.4,0.2-0.9,0.3-1.3c0.1-0.3,0.2-0.6,0.2-0.8c-0.1-0.4-0.1-0.7-0.2-0.9
		C73.9,41.8,73.7,41.5,73.3,41.3L73.3,41.3z M53.8,46.7c-0.1,0-0.1,0.1-0.2,0.2c0.1,0.1,0.1,0.1,0.2,0.3c0.1-0.1,0.2-0.2,0.1-0.3
		C53.9,46.8,53.8,46.7,53.8,46.7L53.8,46.7z M26.9,34.5c-0.4,0.4-0.8,0.8-1.2,1.2c-0.9,0.9-1.7,1.8-2.6,2.7c-0.2,0.2-0.3,0.2-0.5,0
		c-0.3-0.4-0.5-0.8-0.7-1.2c-0.2-0.4-0.4-0.9-0.7-1.4c-0.1-0.2-0.2-0.4-0.5-0.4c0,0.2,0,0.3,0,0.4c0.1,0.4,0.2,0.8,0.2,1.1
		c0,0.4,0.2,0.9,0,1.3c-0.1,0.2-0.1,0.4-0.1,0.6c0,0.3,0.1,0.7-0.1,1c-0.2,0.3-0.3,0.7-0.4,1c-0.1,0.3-0.3,0.6-0.4,1
		c0,0.1,0,0.3,0.1,0.4c0.1,0.1,0.2,0.2,0.3,0.3c0.3,0.3,0.5,0.6,0.7,0.8c0.1,0,0.2,0,0.3,0c0.2,0.1,0.4,0.3,0.6,0.4
		c0.1,0.1,0.2,0.1,0.3,0.1c0.2-0.1,0.4,0,0.6,0c0,0,0,0,0.1,0c0.1,0,0.1,0,0.2,0c0.1,0,0.2,0,0.3,0c0.1,0,0.2,0,0.3,0
		c0.2-0.2,0.5-0.2,0.8-0.3c0.1,0,0.2-0.1,0.2-0.1c0.1-0.2,0.3-0.2,0.4-0.2c0.4,0.1,0.7-0.1,0.8-0.5c0.1-0.3,0.2-0.5,0.2-0.8
		c0-0.1,0-0.2-0.1-0.3c-0.2-0.2-0.3-0.4-0.5-0.6c-0.2-0.3-0.2-0.4,0-0.7c0-0.1,0.1-0.1,0.1-0.2c0.1-0.2,0.1-0.4,0.2-0.6
		c0.1-0.2,0.2-0.4,0.1-0.6c0,0,0-0.1,0-0.1c0.1-0.3,0.2-0.6,0.3-0.9c-0.1-0.1-0.1-0.2-0.2-0.4c-0.4,0.4-0.7,0.8-1.1,1.1c0,0,0,0,0,0
		c0.2-0.3,0.4-0.7,0.6-1c0,0-0.1,0-0.1-0.1c-0.4,0.4-0.7,0.8-1.1,1.2c0.1,0.1,0.1,0.3,0.2,0.5c-0.1,0.1-0.2,0.3-0.3,0.3
		c-0.1,0-0.3-0.2-0.4-0.3c-0.2-0.1-0.2-0.3,0-0.4c0.2-0.2,0.4-0.5,0.6-0.7c0.3-0.3,0.7-0.6,1-0.9c0.6-0.7,1.2-1.3,1.8-2
		c0,0,0.1-0.1,0.1-0.2c0-0.3,0.1-0.5,0.3-0.7c0.1-0.2,0.1-0.3,0-0.4C27.3,34.2,27,34.3,26.9,34.5L26.9,34.5z M24.3,27.4
		c-0.2-0.1-0.5-0.2-0.7-0.2c0,0-0.1,0-0.1,0.1c-0.2,0.2-0.3,0.4-0.5,0.5c0,0-0.1,0-0.1,0c0,0-0.1-0.1-0.1-0.1c0-0.2,0-0.5,0.1-0.7
		c0.1-0.4,0-0.7-0.2-1c-0.1-0.1-0.1-0.2-0.2-0.2c-0.1-0.1-0.1-0.2-0.2-0.2c-0.3,0-0.6-0.1-0.8,0.1c0,0-0.1,0-0.2,0
		c-0.1-0.1-0.1-0.2-0.1-0.3c0-0.1-0.1-0.1-0.1-0.2c0,0-0.1,0-0.1,0c0,0.2,0.1,0.4,0.1,0.6c0.1,0.2,0.1,0.4-0.1,0.6
		c-0.1,0.2-0.2,0.4-0.2,0.5c0,0.2,0.1,0.4,0.1,0.6c-0.1,0.6-0.2,1.2-0.3,1.8c-0.1,0.5-0.1,1-0.2,1.5c0,0.2,0.1,0.4,0.1,0.6
		c-0.1,0.2-0.1,0.4,0,0.6c0.1,0.2,0.1,0.5,0.2,0.7c0,0.1,0.1,0.2,0.3,0.1c0.1-0.1,0.3-0.2,0.4-0.2c0.2,0,0.4,0,0.7,0
		c0.2,0,0.5,0,0.6-0.2c0.2-0.2,0.3-0.1,0.4,0c0,0,0.1,0.1,0.2,0.1c0.4,0.1,0.8,0.1,1.2,0c0.1,0,0.2-0.1,0.3-0.1
		c0.5-0.1,0.9-0.5,0.9-1c0-0.1,0-0.2-0.1-0.3c-0.1-0.2-0.3-0.3-0.4-0.5c0.1-0.2,0.2-0.4,0.3-0.6c0-0.1,0.1-0.3,0.1-0.4
		c0.3-0.2,0.1-0.4,0-0.6c0,0,0-0.1-0.1-0.1C25.3,28.2,24.8,27.8,24.3,27.4L24.3,27.4z M65.7,30.7c0,0-0.1-0.1,0-0.2
		c0-0.2-0.1-0.2-0.2-0.3c-0.2-0.2-0.5-0.3-0.8-0.3c-0.2,0-0.3-0.1-0.3-0.4c0-0.1,0-0.3-0.1-0.4c-0.1-0.1-0.3-0.3-0.4-0.4
		c-0.1,0-0.2,0-0.3,0c-0.2,0-0.3,0.1-0.5,0.1c-0.6,0-1.2,0.1-1.7,0.4c-0.2,0.1-0.5,0.2-0.7,0.3c-0.3,0.1-0.6,0.2-0.8,0.3
		c-0.5,0.2-0.9,0.4-1.3,0.6c-0.2,0.1-0.4,0.1-0.6,0c-0.5-0.1-0.9,0.1-1.2,0.5c-0.2,0.2-0.4,0.3-0.6,0.1c-0.2-0.2-0.3-0.3-0.6-0.3
		c-0.1-0.2-0.1-0.4-0.2-0.6c0-0.1-0.2-0.2-0.2-0.1c-0.1,0-0.2,0.1-0.2,0.2c0,0.3,0,0.5,0,0.8c0,0.2,0.1,0.5-0.3,0.7
		c0,0-0.1,0.1-0.1,0.2c0,0.1-0.1,0.2-0.2,0.1c-0.2-0.1-0.3,0.1-0.5,0.1c-0.1,0.1-0.2,0.1-0.3,0.1c-0.4,0-0.5,0.1-0.5,0.5
		c0,0,0,0.1,0,0.1c-0.1,0.2,0.1,0.6,0.3,0.8c0.1,0.1,0.1,0.2,0.2,0.4c0,0.1,0,0.2,0,0.4c0,0.2,0.1,0.4,0.1,0.6
		c0.1,0.4,0.2,0.9,0.4,1.2c0.3,0.6,0.6,1.2,1,1.8c0.2,0.4,0.4,0.8,0.9,1c0.1,0,0.1,0.1,0.1,0.2c0.1,0.2,0.1,0.4,0.3,0.5
		c0.4,0.4,0.9,0.3,1.4,0.5c0,0,0,0,0,0c0.5,0,1-0.1,1.5-0.1c0.1,0,0.2-0.1,0.2-0.1c0.1-0.1,0.1-0.1,0.2-0.2c0.2-0.2,0.4-0.3,0.5-0.5
		c0.1-0.3,0.4-0.4,0.6-0.5c0.2-0.2,0.5-0.3,0.8-0.4c0.1-0.1,0.2-0.1,0.4-0.2c0.4-0.3,0.7-0.3,1,0.2c0.1,0.1,0.2,0.2,0.3,0.1
		c0,0,0.1,0,0.1,0c0.1,0,0.2,0.1,0.3,0.1c0-0.1,0-0.2,0-0.3c0.2,0.1,0.3,0.1,0.5,0.2c0,0,0-0.1,0.1-0.2c0.1-0.4,0.2-0.8,0.3-1.1
		c0.2-0.4,0.3-0.8,0.4-1.2c0.1-0.6,0.4-1.1,0.5-1.6c0.1-0.4,0.2-0.8,0.2-1.2c0-0.2,0.1-0.4,0.1-0.6c0-0.3,0.1-0.6,0.1-0.9
		C66,31.3,65.9,31,65.7,30.7L65.7,30.7z M61.9,35.5c-0.2,0.2-0.2,0.5-0.3,0.8c-0.1,0.3-0.4,0.4-0.6,0.5c-0.1,0-0.2,0.1-0.2,0.1
		c0,0-0.1,0-0.1,0c-0.2-0.1-0.4-0.3-0.5-0.4c0,0,0-0.1,0-0.1c0-0.1,0-0.2,0.1-0.3c0,0,0.1,0,0.2,0c-0.1-0.1-0.1-0.3-0.2-0.4
		c0.2-0.1,0.3-0.2,0.6-0.2c0.1,0,0.3-0.1,0.5-0.1c0.1,0.1,0.3,0,0.4,0c0.1,0,0.1,0,0.2,0C62,35.4,62,35.5,61.9,35.5L61.9,35.5z
		 M62.9,32.2c-0.2-0.1-0.3,0-0.4,0.1c-0.1,0.1-0.3,0.1-0.4,0.2c-0.2,0.1-0.5,0.1-0.7,0.2c0.1,0.3,0.1,0.3,0.4,0.1
		c0.1-0.1,0.2-0.2,0.3-0.1c0,0,0.1-0.1,0.3-0.1c0,0.1,0,0.2-0.1,0.2C62.2,33,62.1,33,62,33c-0.6,0.1-1.1,0.4-1.7,0.6
		c-0.3,0.1-0.6,0.2-0.9,0.4c-0.1,0-0.1,0.1-0.2,0.1c0,0,0,0,0,0.1c0.8-0.3,1.5-0.6,2.3-0.8c0,0,0,0,0,0c0,0.1-0.1,0.1-0.1,0.2
		c-0.3,0.2-0.6,0.4-1,0.5c-0.1,0-0.2,0-0.2,0c-0.3,0.3-0.6,0.2-0.9,0.3c-0.2,0.1-0.2-0.2-0.3-0.3c-0.1-0.1-0.1-0.2-0.2-0.2
		c-0.2-0.1-0.2-0.2,0-0.3c0.1-0.1,0.2-0.2,0.3-0.3c0.1-0.1,0.3-0.1,0.4-0.1c0.1,0,0.2,0,0.2,0c0.2-0.3,0.5-0.4,0.8-0.5
		c0.5-0.2,1-0.4,1.4-0.6c0.2-0.1,0.4-0.2,0.7-0.2c0.3-0.1,0.4,0,0.4,0.3C62.9,32.1,62.9,32.1,62.9,32.2L62.9,32.2z M63.3,29.8
		c-0.5-0.1-0.9,0.2-1.3,0.3c-0.8,0.3-1.7,0.7-2.5,1c-0.4,0.1-0.7,0.2-1.1,0.2c0-0.5,0-0.5,0.4-0.7c0.2-0.1,0.4-0.1,0.5-0.1
		c0.2,0,0.5-0.2,0.7-0.3c0.1-0.1,0.3-0.1,0.4-0.2c0.2,0,0.4-0.1,0.6-0.3c0,0,0.1,0,0.2-0.1c0.1,0,0.2-0.1,0.2-0.2
		c0-0.1,0.1-0.1,0.2-0.1c0.1,0.1,0.1,0.1,0.2,0c0.1-0.1,0.2-0.1,0.4-0.1c0,0,0.1,0,0.2,0c0.2-0.3,0.5-0.2,0.8-0.2c0,0,0.1,0,0.1,0
		c0.3,0,0.3,0,0.4,0.3C63.7,29.6,63.5,29.8,63.3,29.8L63.3,29.8z M64.2,29.8c-0.1-0.1-0.2-0.1-0.2-0.2c0,0,0-0.1,0-0.2
		c0.1,0.1,0.2,0.2,0.3,0.2C64.2,29.7,64.2,29.7,64.2,29.8z M64.3,42.3c0-0.1-0.1-0.2-0.1-0.2c-0.1-0.2-0.3-0.4-0.3-0.7
		c0-0.1-0.1-0.3-0.1-0.3c-0.3-0.1-0.3-0.3-0.4-0.5c-0.1-0.1-0.1-0.3-0.2-0.4c0,0,0-0.1-0.1-0.1c-0.1-0.2-0.3-0.3-0.4-0.5
		c-0.1,0-0.3-0.3-0.5-0.1c0,0,0,0-0.1-0.1c-0.1,0-0.2-0.1-0.3-0.1c-0.4,0.1-0.8,0.2-1.2,0.4c-0.2,0.1-0.5,0.1-0.5,0.4c0,0,0,0,0,0
		c-0.5-0.1-0.2,0.5-0.5,0.6c0,0,0,0.1,0,0.1c0,0.1,0,0.2,0,0.4c0,0.1,0,0.2,0,0.3c0,0.1,0,0.1,0,0.2c0,0.1,0.1,0.2,0.1,0.3
		c0.1,0.1,0.2,0.2,0.1,0.4c-0.2,0.3-0.3,0.7-0.7,0.9c0,0,0,0.1-0.1,0.1c-0.1,0.1-0.1,0.3-0.2,0.3c-0.2,0.1-0.4,0.2-0.6,0.3
		c-0.1,0-0.3,0-0.4-0.1c-0.3-0.2-0.5-0.3-0.8-0.3c-0.3,0-0.7-0.1-1-0.1c-0.4,0.1-0.8,0.2-1.1,0.5c0,0-0.1,0.1-0.1,0.1
		c-0.1,0.2-0.2,0.4-0.4,0.6c-0.1,0.1-0.2,0.8,0,0.9c0.2,0.2,0.1,0.4,0.1,0.6c0,0.4-0.1,0.7,0.3,1c0.1,0.1,0.2,0.4,0.3,0.5
		c0.2,0.3,0.3,0.6,0.6,0.7c0.3,0.2,0.6,0.5,1,0.7c0.3,0.1,0.3,0.1,0.5-0.1c0.1-0.2,0.3-0.4,0.6-0.4c0.2,0,0.4,0,0.5,0
		c0.2,0,0.2-0.1,0.1-0.2c0,0,0-0.1,0-0.1c-0.1-0.4-0.1-0.8-0.1-1.1c0-0.1,0.1-0.2,0.2-0.2c0.3-0.1,0.5,0,0.7,0.2
		c0.2,0.2,0.4,0.5,0.6,0.7c0,0,0.1,0,0.1,0.1c0.2,0.1,0.4,0.3,0.6,0.4c0.4,0.3,0.8,0.5,1.3,0.6c0.2,0,0.4,0,0.5,0.1c0,0,0.1,0,0.1,0
		c0.2,0,0.3-0.1,0.5-0.2c0.2-0.1,0.3-0.3,0.3-0.4c0.1-0.3,0.2-0.7,0.3-1c0.1-0.2,0.2-0.3,0.3-0.5c0.1-0.3,0.2-0.6,0.3-0.8
		c0.2-0.4,0.2-0.8,0-1.2c-0.1-0.2-0.1-0.4-0.1-0.6c0-0.1,0.1-0.2,0.1-0.2c0.2,0,0.5,0,0.7,0.1c0.1,0,0.2,0,0.2,0
		c0.2-0.3,0.1-0.5-0.1-0.9C64.5,42.8,64.4,42.5,64.3,42.3L64.3,42.3z M62.3,47.1C62.2,47,62,47,62.1,46.7c0,0,0-0.1,0-0.2
		c0-0.2,0-0.4,0.2-0.5c0,0,0.1-0.1,0.1-0.1c0.1,0,0.1-0.1,0.2-0.1c0,0.1,0,0.1,0,0.2c0,0,0,0-0.1,0.1c0.1,0,0.1,0.1,0.2,0.1
		C62.6,46.5,62.5,46.8,62.3,47.1L62.3,47.1z M21.4,22c-0.1-0.1-0.2-0.2-0.2-0.2c-0.3-0.2-0.6-0.5-0.9-0.7c0,0,0,0,0-0.1
		c-0.1-0.3-0.3-0.4-0.4-0.6c-0.1-0.1-0.3-0.3-0.1-0.5c0,0,0-0.1,0-0.2c0-0.1,0-0.2,0.1-0.2c0.2-0.2,0.5-0.4,0.7-0.6
		c0.1-0.1,0.2-0.1,0.3,0.1c0.2,0.4,0.5,0.7,0.9,0.9c0.2,0.1,0.2,0.1,0.2,0.3c-0.1,0.4-0.1,0.7,0.1,1.1c0,0.1-0.1,0.2-0.1,0.3
		c0,0.1-0.1,0.2,0,0.2c0.1,0.3,0.2,0.5,0.3,0.8c0.1,0.1,0.2,0.2,0.3,0.2c0.1,0.1,0.3,0.1,0.4,0.1c0.3,0.1,0.6,0.1,0.9-0.1
		c0.1-0.1,0.3-0.4,0.2-0.6c0-0.2-0.1-0.4,0-0.6c0.2-0.3,0.2-0.7,0.5-0.9c0,0,0.1-0.1,0.1-0.1c0.1-0.4,0.1-0.8,0.2-1.2
		c0-0.1-0.1-0.2-0.2-0.3c-0.3-0.3-0.5-0.6-0.5-1c0-0.2,0-0.4-0.1-0.5c-0.1-0.3-0.3-0.5-0.5-0.8c-0.1-0.1-0.8-0.3-0.9-0.2
		c-0.3,0.2-0.6,0.1-0.9,0c-0.4-0.1-0.7,0-1,0.1c-0.3,0.1-0.5,0.4-0.8,0.5c-0.1,0.1-0.3,0.1-0.4,0.3c-0.2,0.2-0.3,0.4-0.4,0.6
		c-0.2,0.3-0.4,0.6-0.7,0.9c-0.1,0.1-0.1,0.2-0.1,0.3c0.1,0.4,0.1,0.9,0.4,1.2c0,0,0,0.1,0,0.1c0.1,0.3,0.2,0.6,0.3,1
		c0.1,0.2,0.3,0.3,0.6,0.3c0.1,0,0.2,0,0.2,0C20.4,22.1,20.9,22.2,21.4,22L21.4,22z M70.4,24.8c-0.1,0-0.2,0-0.2-0.1
		c0,0-0.1,0-0.1,0c0.1-0.1,0.2-0.1,0.3-0.1c0.4-0.1,0.4-0.1,0.6,0.3c0.1,0.2,0.2,0.2,0.4,0.1c0.1-0.2,0.2-0.4,0.3-0.6
		c0-0.2,0.1-0.2,0.2-0.1c0,0,0.1,0,0.1,0c0-0.1-0.3-0.3-0.5-0.3c-0.4,0-0.5-0.1-0.6-0.4c0-0.1-0.1-0.2-0.1-0.2
		c-0.1,0.1-0.2,0.3-0.4,0.3c-0.4,0.1-0.7,0.1-1.1,0.2c-0.4,0.1-0.9,0.1-1.3,0.1c-0.4,0.1-0.9,0.2-1.3,0.3c-0.3,0.1-0.5,0.1-0.8,0.2
		c-0.5,0.1-0.9,0.2-1.4,0.4c-0.2,0-0.3,0.1-0.6,0.1c0.1-0.1,0.1-0.2,0.2-0.3c0.1-0.2,0.2-0.4,0.2-0.6c0-0.6,0.1-1.1,0.5-1.4
		c0.2-0.1,0.2-0.3,0.2-0.5c0-0.1,0-0.2,0-0.2c0.2-0.5,0.4-1,0.7-1.6c0.3-0.5,0.5-1,0.6-1.6c0.1-0.4,0.3-0.8,0.4-1.3
		c0.1-0.2,0.1-0.4,0.1-0.6c0-0.3-0.1-0.6-0.1-1c0-0.7-0.3-1.2-0.7-1.7c-0.1-0.1-0.2-0.2-0.4-0.3c-0.2-0.2-0.5-0.3-0.7-0.4
		c-0.2-0.1-0.4-0.1-0.6-0.2c-0.3-0.2-0.6-0.3-0.9-0.3c-0.2,0-0.3,0-0.5,0c-0.6,0-1.2,0.1-1.8,0.3c-0.7,0.2-1.4,0.6-2.1,0.9
		c-0.6,0.3-1.2,0.5-1.8,0.7c-0.3,0.1-0.6,0.2-0.8,0.3c-0.2,0.1-0.5,0.2-0.7,0.3c0,0,0,0.1,0,0.1c0,0.1-0.1,0.3-0.1,0.4
		c0,0.2-0.2,0.3-0.3,0.3c-0.2,0-0.3,0-0.5,0c-0.2,0-0.3,0-0.4,0.2c0,0.1-0.2,0.2-0.2,0.2c-0.3,0-0.5,0.2-0.7,0.4
		c-0.4,0.4-0.7,0.7-1.1,1.1c-0.1,0.1-0.2,0.2-0.3,0.4c-0.1,0.1-0.2,0.6-0.2,0.7c0,0.2,0,0.5,0.1,0.7c0,0.3-0.1,0.6,0,0.9
		c0.2,0.6,0.4,1.1,0.6,1.6c0.1,0.2,0.2,0.4,0.5,0.3c0,0,0.1,0.1,0.1,0.1c0.1,0.1,0.1,0.2,0.1,0.3c0.1,0.3,0.3,0.6,0.7,0.6
		c0.1,0,0.1,0.1,0.2,0.1c0.2,0.1,0.4,0.2,0.6,0.4c0.2,0.1,0.4,0.3,0.6,0.4c0.2,0.1,0.3,0.3,0.4,0.5c0.2,0.3,0.5,0.6,0.7,0.8
		c0,0,0,0.1,0,0.1c0.1,0.3,0.3,0.4,0.5,0.4c0.2,0,0.5,0,0.5-0.4c0,0,0-0.1,0.1-0.1c0.3-0.1,0.3-0.3,0.4-0.6c0.2-0.3,0.7-0.4,0.9-0.2
		c0.2,0.3,0.2,0.6,0.3,1c-0.2-0.1-0.3-0.2-0.4-0.4c0,0.1,0,0.2,0,0.3c0,0.1,0,0.2-0.1,0.2c0,0,0,0-0.1,0c0-0.1,0-0.2,0-0.3
		c0,0,0,0-0.1,0c0,0.1,0,0.2-0.1,0.2c0,0.1-0.1,0.2-0.1,0.2c-0.7,0.2-1.3,0.4-2,0.6c-0.6,0.2-1.2,0.4-1.8,0.5
		c-0.2,0-0.4,0.1-0.5,0.1c-0.2,0.1-0.5,0.2-0.7,0.3c-0.1,0-0.3,0.1-0.2,0.3c0,0,0,0.1,0,0.1c-0.1,0.1-0.2,0.3-0.4,0.4
		c-0.1,0-0.2,0-0.3,0c0,0-0.1-0.2,0-0.2c0.2-0.2,0-0.4-0.1-0.6c-0.1,0.3-0.2,0.5-0.2,0.8c-0.2-0.2-0.4-0.2-0.7-0.1
		c-0.2,0.1-0.4,0.1-0.6,0.1c-0.2,0-0.3-0.1-0.5-0.1c-0.1,0-0.3,0-0.4,0.1c-0.1,0.2-0.3,0.5-0.3,0.7c-0.1,0.4,0.2,0.7,0.6,0.7
		c0,0,0.1,0,0.1,0.1c0,0-0.1,0.1-0.1,0.1c-0.2,0-0.3-0.1-0.5-0.1c-0.1,0-0.2-0.1-0.4-0.2c0,0,0,0-0.1,0c0.1,0.4,0.1,0.9,0.2,1.3
		c0.1,0.2,0.3,0.3,0.4,0.5c0-0.1,0-0.2,0.1-0.2c0.2-0.3,0.1-0.8,0.6-1c0.1,0,0.2-0.1,0.4,0c0.5,0.1,0.8-0.4,1.3-0.6
		c0.4-0.1,0.5-0.6,0.9-0.7c0.1,0,0.3-0.1,0.4-0.1c0.1,0,0.1,0,0.2,0c0.4-0.1,0.8-0.3,1.2-0.4c0.8-0.2,1.7-0.5,2.5-0.7
		c0.5-0.2,1-0.3,1.5-0.5c0.4-0.1,0.9-0.3,1.3-0.4c0.7-0.1,1.4-0.4,2.1-0.6c0.3-0.1,0.5-0.2,0.8-0.3c0.4-0.1,0.8-0.2,1.2-0.3
		c0.7-0.2,1.4-0.3,2.2-0.5c1.1-0.2,2.1-0.4,3.2-0.6C70,25,70.2,24.9,70.4,24.8L70.4,24.8z M53.5,22.7c-0.1-0.1-0.3-0.1-0.4-0.3
		c-0.1-0.1-0.1-0.4-0.2-0.5c0-0.3,0-0.6,0-0.9c0-0.1,0-0.3-0.2-0.3c0,0-0.1-0.1-0.1-0.2c0,0,0,0,0,0c0.2,0.1,0.4,0.2,0.5,0.3
		c0.1,0.1,0.1,0.3,0.2,0.5c0,0.2,0,0.4,0,0.6c0,0.1,0,0.2,0.1,0.3C53.6,22.3,53.6,22.3,53.5,22.7L53.5,22.7z M56.9,19.4
		c-0.4,0.2-0.7,0.1-0.7-0.4c0-0.2-0.1-0.4-0.2-0.6c-0.2-0.4,0-1,0.5-1.1c0,0,0,0,0.1,0c0.5-0.2,0.9-0.5,1.4-0.7
		c0.5-0.2,1-0.6,1.7-0.6c0.5,0,1-0.3,1.5-0.4c0.4-0.2,0.9-0.2,1.3,0c0.1,0.1,0.2,0.3,0.2,0.4c0.1,0.2,0.1,0.5,0.1,0.6
		c0,0.4-0.1,0.5-0.4,0.6c0,0-0.1,0-0.1,0c-0.4,0.3-0.8,0.4-1.2,0.5c-0.3,0.1-0.7,0.2-1,0.3c-0.1,0-0.1,0.2-0.2,0.2
		c-0.2,0.1-0.5,0.2-0.7,0.2c-0.6,0.2-1.3,0.4-1.8,0.8C57,19.3,56.9,19.3,56.9,19.4L56.9,19.4z M60.6,21.9c-0.3,0-0.4,0.2-0.5,0.3
		c0,0-0.1,0.1-0.1,0.1c-0.2,0.1-0.4,0.3-0.6,0.4c-0.3,0.2-0.5,0.3-0.9,0.3c-0.3-0.1-0.6,0-0.9,0c-0.2,0-0.4,0-0.5-0.1
		c0.1-0.2,0.1-0.4,0.2-0.5c0,0,0.1-0.1,0.1-0.1c0.3,0.1,0.4-0.2,0.6-0.3c0.2-0.1,0.4-0.2,0.6-0.4c0.1-0.1,0.2-0.2,0.2-0.3
		c0.2-0.4,0.7-0.5,1.1-0.6c0.1,0,0.3-0.1,0.4-0.2c0.1,0,0.2,0,0.3,0c0,0,0.1,0,0.1,0c0.2-0.1,0.3-0.2,0.5-0.3
		c0.2-0.1,0.4-0.2,0.7-0.2c0.3,0,0.4,0.3,0.3,0.6c0,0.1-0.1,0.2-0.2,0.2c-0.1,0.1-0.1,0.3-0.2,0.3c-0.3,0.1-0.2,0.5-0.6,0.6
		c0,0-0.1,0.1-0.1,0.1C60.8,21.8,60.7,21.9,60.6,21.9L60.6,21.9z M62,25.2c-0.2,0-0.4,0.1-0.6,0c-0.2-0.1-0.3-0.3-0.4-0.4
		c-0.1-0.2-0.1-0.4-0.1-0.6c0-0.1,0.1-0.2,0.3-0.3c0.1,0,0.2-0.1,0.3-0.1c0.1,0,0.2,0,0.3,0.1c0.2,0.4,0.5,0.8,0.9,1.1
		c0,0,0,0,0.1,0.1C62.4,25.1,62.2,25.2,62,25.2z M41,46.4c-0.1-0.1-0.3-0.2-0.4-0.4c0,0,0,0,0-0.1c0.1,0,0.1,0,0.2,0
		c-0.1-0.1-0.1-0.3-0.2-0.4c-0.1-0.3-0.3-0.5-0.4-0.8c-0.3-0.5-0.1-1.1-0.2-1.6c0-0.3,0.1-0.7,0.1-1c0-0.1,0-0.2,0-0.3
		c0-0.3,0.1-0.7,0.1-1c0-0.3,0.2-0.5,0-0.8c0-0.1,0-0.2,0-0.3c0-0.2,0-0.4,0-0.7c0-0.4-0.1-0.7-0.1-1.1c0-0.7,0-1.4,0-2.2
		c0-0.4-0.1-0.7-0.1-1.1c0-0.9-0.1-1.8-0.1-2.7c0-0.1,0-0.3,0.1-0.5c0.2,0,0.3,0.1,0.4,0.1c0.1-0.1,0.1-0.2,0.1-0.3
		c0-0.2,0-0.4-0.1-0.6c-0.2-0.3-0.3-0.7-0.2-1c0.1-0.4-0.2-0.6-0.5-0.8c-0.1-0.1-0.2-0.2-0.3-0.3c-0.2-0.2-0.3-0.4-0.5-0.5
		c-0.1-0.1-0.2-0.2-0.2-0.4c0-0.1-0.1-0.2-0.1-0.2c-0.3-0.1-0.5-0.2-0.8-0.2c-0.3,0-0.6,0-0.9,0.1c-0.4,0.2-0.8,0.4-1.2,0.7
		c-0.1,0.1-0.3,0.2-0.4,0.3c-0.5,0.3-0.8,0.7-1.1,1.1c-0.2,0.2-0.5,0.3-0.8,0.5c-0.3,0.2-0.7,0.2-0.9,0.5c-0.1,0.2-0.2,0.3-0.3,0.5
		c0,0.3-0.2,0.6,0.1,0.9c0,0,0,0,0,0c0,0.4,0.1,0.8-0.1,1.1c0,0,0,0.1,0,0.1c0,0.2,0,0.4,0,0.5c0,0.2,0.1,0.4,0.1,0.5
		c0.1,0.2,0.2,0.5,0.1,0.7c0,0.4-0.1,0.8-0.2,1.2c-0.1,0.6-0.1,1.2-0.1,1.7c0,0.4-0.1,0.7-0.1,1.1c0,0.2-0.1,0.5,0,0.7
		c0,0.3,0,0.7,0.1,1c0,0.2,0,0.5,0,0.7c0,0.2,0,0.5-0.2,0.7c-0.1,0.1-0.1,0.3-0.1,0.4c0,0.5,0.1,1,0.1,1.5c0,0.2,0,0.4,0.1,0.5
		c0.1,0.4,0.2,0.7,0.2,1.1c0,0.1,0,0.3,0,0.4c0.2,0.4,0.4,0.8,0.6,1.2c0,0.1,0.1,0.2,0.1,0.3c0.1,0.3,0.3,0.5,0.5,0.7
		c0.3,0.2,0.7,0.4,1,0.7c0.2,0.2,0.5,0.6,1,0.5c0,0,0,0,0.1,0c0.4,0.3,0.8,0.2,1.1,0.1c0.3-0.1,0.3-0.2,0.3-0.5c0-0.1,0-0.2,0-0.3
		c-0.1-0.3-0.2-0.7-0.3-1c0-0.1-0.1-0.1-0.1-0.2c-0.2-0.1-0.2-0.2-0.2-0.4c0-0.1-0.1-0.2-0.1-0.2c0-0.3-0.3-0.6-0.1-0.9
		c0.1-0.3,0-0.5-0.2-0.8c0,0,0-0.1,0-0.1c0-0.2-0.2-0.5-0.3-0.5c-0.2,0-0.3-0.2-0.4-0.4c0-0.1-0.1-0.2-0.1-0.3
		c-0.1-0.3-0.3-0.5-0.4-0.8c-0.1-0.4-0.1-0.8-0.2-1.2c-0.1-0.4-0.2-0.8-0.2-1.1c0-0.3,0.1-0.7,0.2-1c0-0.2,0.2-0.3,0.2-0.5
		c0.1-0.3,0.1-0.6,0.1-0.8c0-0.1,0.1-0.2,0-0.4c0,0,0.1-0.1,0.1-0.2c0.1-0.1,0.1-0.2,0.2-0.3c0-0.2,0-0.4,0.1-0.5
		c0.1-0.3,0.2-0.6,0.3-0.8c0.1-0.2,0.2-0.4,0.3-0.6c0.1-0.1,0.3-0.1,0.3,0.1c0,0.3,0.3,0.5,0.2,0.9c0,0,0,0.1,0.1,0.1
		c0.1-0.2,0.1-0.3,0.1-0.4c0-0.4,0.1-0.9-0.1-1.3c0.3,0.1,0.6,0.2,0.8,0.3c0.1,0,0.1,0.1,0.1,0.2c0,0.2-0.1,0.4-0.1,0.6
		c0.1,0.7-0.2,1.4-0.3,2.1c0,0.2-0.1,0.5,0.2,0.7c-0.1,0-0.3,0.1-0.3,0c-0.1-0.1-0.1-0.2-0.1-0.4c0-0.2,0-0.3,0-0.5
		c0-0.1-0.1-0.2-0.2-0.2c-0.3-0.1-0.3-0.1-0.3-0.4c0-0.1,0-0.2,0-0.4c0,0-0.1,0-0.1,0c0,0.2-0.1,0.4-0.1,0.6c0,0.1,0,0.3,0,0.4
		c-0.1,0.3,0,0.5,0.2,0.8c0.1,0.1,0.2,0.2,0.2,0.4c-0.1,0.3-0.1,0.6-0.1,0.9c0,0.3,0.1,0.6,0.3,0.7c0.3,0.4,0.4,0.8,0.6,1.2
		c0.1,0.1,0,0.3,0.1,0.4c0.2,0.2,0.5,0.5,0.8,0.7c0.3,0.2,0.4,0.4,0.3,0.7c-0.1,0.2-0.1,0.3,0,0.5c0,0.1,0,0.2-0.1,0.3
		c0,0.1-0.1,0.2-0.1,0.3c0,0.3,0,0.3-0.3,0.4c-0.4,0.1-0.8-0.1-1.2-0.3c-0.1,0-0.2-0.1-0.3-0.1c0.1,0.2,0.3,0.4,0.3,0.6
		c0,0.2,0,0.4,0,0.6c0,0,0,0,0.1,0c0-0.2,0.4-0.3,0.3-0.7c0.1,0,0.2,0.1,0.4,0.1c-0.1,0.1-0.2,0.2-0.2,0.2c0.2,0.2,0.4,0.4,0.7,0.6
		c0.1,0.1,0.1,0.2,0.2,0.3c0.3,0.1,0.3,0.4,0.4,0.6c0.1,0.5,0.4,0.8,0.8,0.9c0.1,0,0.1,0.1,0.1,0.1c0.2,0.4,0.7,0.5,1.1,0.4
		c0.2-0.1,0.4-0.3,0.6-0.4c0.2-0.1,0.3-0.3,0.3-0.6c0,0,0-0.1,0-0.1C41.5,47.1,41.3,46.6,41,46.4L41,46.4z M37.3,34.5
		c-0.1-0.1-0.2-0.1-0.2-0.2c-0.1-0.3-0.2-0.5-0.3-0.8c0,0,0,0,0,0c0.1,0,0.1,0.1,0.2,0.1c0.1,0,0.1,0.1,0.2,0.1
		c0.1,0,0.2,0.1,0.2,0.1c0,0.2,0.1,0.4,0.1,0.6C37.4,34.5,37.3,34.5,37.3,34.5L37.3,34.5z M37.7,38.6c-0.4-0.1-0.5-0.2-0.3-0.8
		C37.7,37.8,37.9,38.2,37.7,38.6z M38,32.7c-0.1,0.2-0.2,0.3-0.3,0.4c-0.1,0.1-0.2,0-0.3-0.1c-0.1-0.3-0.3-0.6-0.6-0.6
		c-0.2,0-0.4-0.1-0.5-0.2c-0.2-0.2-0.4,0-0.6,0c-0.2,0-0.4,0.1-0.6,0.1c0-0.3,0.1-0.6,0.1-0.9c0.5-0.3,1-0.7,1.5-1.2
		c0,0,0.2-0.1,0.2-0.1c0.2,0.2,0.6,0.2,0.7,0.6c0,0.1,0.2,0.1,0.2,0.2C38.2,31.6,38.2,32.2,38,32.7z M60,33.5
		C60,33.5,60,33.6,60,33.5c0.2,0,0.4-0.1,0.6-0.2c0,0,0-0.1,0-0.1C60.4,33.3,60.2,33.4,60,33.5L60,33.5z M36.5,37v-0.5h-0.1
		C36.4,36.6,36.4,36.8,36.5,37L36.5,37z M45.1,20.8c-0.3-0.1-0.6-0.2-0.9-0.4c-0.1-0.1-0.2-0.1-0.3-0.1c-0.5-0.1-1,0.1-1.5,0.2
		c-0.6,0.1-1.1,0.3-1.7,0.5c-0.2,0.1-0.4,0.1-0.7,0.1c0,0,0-0.1,0-0.1c0.5-0.3,0.8-0.9,1.3-1.2c0.4-0.2,0.7-0.5,1-0.7
		c0.2-0.1,0.3-0.2,0.5-0.3c0,0,0.1-0.1,0.1-0.2c-0.1-0.2-0.1-0.4-0.2-0.5c-0.4-0.4-0.9-0.5-1.5-0.5c-0.3,0-0.6,0.1-0.8,0
		c-0.2-0.1-0.3,0-0.4,0.2c-0.1,0.3-0.3,0.5-0.5,0.8c-0.2,0.2-0.4,0.4-0.5,0.6c-0.1,0.1,0,0.3-0.1,0.4c-0.2,0.3-0.4,0.6-0.6,0.8
		c-0.3,0.3-0.6,0.6-0.9,1c-0.2,0.2-0.4,0.5-0.6,0.8c-0.1,0.1-0.2,0.1-0.2,0.1c0-0.1-0.1-0.1-0.1-0.2c0.1-0.2,0.1-0.5,0.2-0.7
		c0.1-0.2,0.3-0.4,0.3-0.7c0-0.2,0.1-0.4,0.2-0.5c0.1-0.2,0.3-0.3,0.6-0.3c0,0.1,0,0.2,0,0.2c0,0,0,0,0.1,0c0.1-0.2,0.4-0.2,0.6-0.5
		c-0.2,0.1-0.3,0.1-0.4,0.1c0,0,0,0-0.1,0c0.3-0.1,0.3-0.3,0.1-0.5c0-0.1-0.1-0.2-0.2-0.2C38,19,37.9,19,37.8,18.9
		c-0.1-0.3-0.2-0.6-0.1-0.9c0-0.1,0-0.2,0-0.3c0-0.3,0.1-0.5,0.3-0.7c0.1-0.2,0.2-0.4,0.2-0.5c0-0.3,0.1-0.4,0.2-0.5
		c0.1-0.1,0.2-0.1,0.3-0.3c-0.1,0-0.2,0-0.3,0.1c0-0.2,0.1-0.3,0.3-0.3c0.2,0,0.4,0,0.5,0c0.2-0.1,0.4-0.1,0.6-0.1
		c0.5,0,0.9,0,1.4-0.2c0.3-0.1,0.6-0.4,1-0.2c0,0,0,0,0,0c0,0,0-0.1,0-0.1c-0.1-0.7-0.2-1.3-0.3-2c0,0,0,0,0-0.1
		c-0.1-0.2-0.4-0.4-0.4-0.7c-0.1-0.3-0.3-0.5-0.6-0.7c-0.4-0.4-0.9-0.5-1.4-0.4C39.4,11,39.2,11,39,11c-0.1,0-0.2,0.1-0.3,0.1
		c-0.2,0-0.4,0-0.6,0.1c0,0-0.1,0-0.1-0.1c-0.1-0.1-0.2-0.1-0.3-0.2c-0.2-0.2-0.3-0.3-0.5-0.5c-0.1-0.1-0.2-0.2-0.4-0.3
		c-0.1-0.1-0.3-0.2-0.4-0.3c-0.1-0.1-0.1-0.2-0.1-0.4c0-0.3-0.2-0.4-0.5-0.6c-0.3-0.2-1-0.2-1.3,0.1c0,0-0.1,0.1-0.1,0.1
		c0,0,0,0.1-0.1,0.1c-0.3,0-0.3,0.2-0.4,0.4c0,0,0,0.1-0.1,0.1c-0.3,0.3-0.2,0.6-0.2,1c0,0.2,0.1,0.5,0.2,0.7
		c0.1,0.3,0.1,0.7,0.1,1.1c0,0.3-0.1,0.5-0.3,0.8c-0.1,0.1-0.3,0.2-0.4,0.3c-0.2,0.1-0.4,0.3-0.6,0.4c-0.2,0.1-0.5,0.2-0.7,0.4
		c-0.2,0.2-0.5,0.3-0.8,0.5c-0.3,0.3-0.7,0.5-1.1,0.7c-0.3,0.2-0.6,0.5-0.9,0.6c-0.5,0.2-0.9,0.4-1.2,0.8c-0.2,0.3-0.4,0.6-0.9,0.6
		c-0.1,0-0.2,0.1-0.2,0.2c0,0.1,0.1,0.3,0.3,0.3c0.1,0,0.2,0,0.3,0c0.1,0,0.2,0,0.2,0.1c0.2,0.2,0.3,0.5,0.5,0.8c0,0,0,0.1,0,0.2
		c0,0.4,0.2,0.7,0.4,1c0.2,0.3,0.5,0.4,0.8,0.6c0.2,0.1,0.4,0.1,0.5,0c0.1-0.1,0.3-0.2,0.4-0.4c0.1-0.2,0.2-0.5,0.4-0.7
		c0.2-0.3,0.3-0.7,0.7-0.9c0,0,0,0,0,0c0-0.2,0.2-0.3,0.3-0.4c0.2-0.2,0.4-0.3,0.6-0.4c0.2-0.1,0.5-0.2,0.7-0.3c0.1,0,0.1,0,0.2,0
		c0,0.1,0,0.2,0,0.3c0.1,0.3,0.2,0.5,0.1,0.8c0,0.1,0,0.1,0,0.2c0.1,0.3,0,0.4-0.2,0.5c-0.6,0.4-1.2,0.8-1.9,0.9
		c-0.2,0-0.3,0.1-0.2,0.3c0.1,0.2-0.1,0.6-0.2,0.8c-0.2,0.1-0.2,0.3-0.2,0.5c0.2,0.5,0.4,1,0.7,1.5c0.3,0.5,1.2,0.7,1.6,0.3
		c0.1-0.1,0.2-0.3,0.3-0.3c0.1,0,0.2,0.2,0.4,0.3c0,0,0,0,0.1,0.1c0.2,0.2,0.2,0.3-0.1,0.4c-0.1,0.1-0.3,0.1-0.3,0.3
		c-0.1,0.2-0.3,0.2-0.5,0.2c-0.1,0-0.3,0-0.3,0.1c0,0.3-0.3,0.3-0.4,0.4c-0.2,0.1-0.4,0.3-0.7,0.4c-0.1-0.1-0.3,0-0.3,0.2
		c0,0.1-0.1,0.1-0.1,0.1c-0.5,0.4-1,0.8-1.5,1.2c-0.5,0.4-0.9,0.8-1.4,1.2c-0.2,0.2-0.3,0.5-0.5,0.7C27.3,29,27,29,26.8,29.2
		c-0.3,0.2-0.5,0.5-0.5,0.9c0,0.3,0.1,0.6,0.1,0.9c0.1,0.4,0.4,0.7,0.8,0.9c0.1,0,0.2,0.1,0.3,0.1c0.1,0.1,0.2,0.1,0.4,0
		c0.1-0.1,0.2-0.1,0.3-0.1c0.3,0,0.4-0.1,0.4-0.4c0-0.1,0.1-0.4,0.1-0.4c0.4-0.1,0.4-0.4,0.4-0.6c0-0.3,0.1-0.5,0.4-0.7
		c0.1,0,0.1-0.1,0.1-0.2c0.2-0.2,0.4-0.5,0.7-0.7c1.1-0.8,2.2-1.7,3.5-2.3c0.2-0.1,0.3-0.3,0.5-0.4c0.1-0.1,0.1-0.1,0.2-0.2
		c0.5-0.2,1-0.4,1.5-0.6c0.2-0.1,0.4-0.2,0.7-0.3c0.1,0,0.3-0.1,0.4-0.1c0.3-0.2,0.5-0.4,0.8-0.7c0.5-0.4,1.1-0.8,1.7-0.9
		c-0.5-0.1-0.9,0.3-1.4,0.3c0-0.2,0.1-0.3,0.3-0.4c0.1,0,0.2-0.1,0.3-0.1c0,0,0.1,0,0.1,0c0.3,0,0.6-0.2,1-0.2c0.1,0,0.1,0,0.1-0.1
		c0.1-0.2,0.3-0.2,0.5-0.2c0.4,0,0.7-0.2,1.1-0.3c0.4-0.1,0.7-0.1,1.1-0.1c0,0,0,0.1,0,0.1c-0.2,0.1-0.5,0.1-0.7,0.2
		c-0.7,0.2-1.4,0.4-2.1,0.6c-0.2,0-0.3,0-0.4,0.2c0.1,0,0.3-0.1,0.4-0.1c0.3-0.1,0.5-0.1,0.8-0.2c0.6-0.2,1.2-0.4,1.9-0.5
		c0.5-0.1,1.1,0,1.6-0.3c0.3-0.2,0.7-0.1,0.9-0.5c0.1-0.2,0.2-0.8,0.1-1C45.2,20.9,45.1,20.8,45.1,20.8L45.1,20.8z M32.4,25.2
		C32.4,25.2,32.4,25.3,32.4,25.2c-0.3,0.3-0.7,0.6-1.1,0.8C31.3,25.8,32.1,25.2,32.4,25.2L32.4,25.2z M32.3,25.7
		c-0.2,0.1-0.4,0.2-0.5,0.3c0,0,0-0.1-0.1-0.1c0.2-0.1,0.4-0.3,0.5-0.4C32.3,25.6,32.3,25.6,32.3,25.7L32.3,25.7z M28.9,27.7
		c0.2-0.4,2-1.7,2.2-1.6C30.4,26.7,29.7,27.3,28.9,27.7z M30.6,26.8C30.6,26.8,30.6,26.8,30.6,26.8C30.6,26.8,30.6,26.8,30.6,26.8
		c-0.2,0.2-0.4,0.4-0.6,0.5c-0.1,0.1-0.2,0.1-0.3,0.1C30,27.2,30.3,27,30.6,26.8C30.6,26.8,30.6,26.8,30.6,26.8
		C30.6,26.8,30.6,26.8,30.6,26.8c0.2-0.2,0.4-0.4,0.7-0.6c0,0,0,0.1,0.1,0.1C31.1,26.5,30.9,26.7,30.6,26.8z M31.7,26.6
		c0,0,0-0.1-0.1-0.1c0.4-0.2,0.8-0.4,1.1-0.6c0,0,0,0.1,0.1,0.1C32.4,26.2,32.1,26.4,31.7,26.6z M32.5,25.6c0-0.3,0.2-0.3,0.3-0.3
		c0,0,0,0.1,0,0.1C32.8,25.4,32.7,25.5,32.5,25.6z M32.6,25c0.2-0.1,0.3-0.2,0.5-0.3c0,0,0,0.1,0,0.1C33,24.9,32.9,25.2,32.6,25z
		 M33.9,25.4c0,0,0-0.1-0.1-0.1c0.2-0.1,0.4-0.2,0.7-0.3c0,0,0,0.1,0,0.1C34.4,25.2,34.2,25.3,33.9,25.4z M39.6,19.5
		c0,0-0.1-0.1-0.2-0.1c0-0.3,0.5-0.7,0.7-0.6c0,0,0.1,0.2,0.1,0.2C40,19.2,39.8,19.4,39.6,19.5L39.6,19.5z M44.6,22.1
		c-0.1,0-0.2,0-0.3-0.1c0,0,0-0.1,0.1-0.1c0.1,0,0.3-0.1,0.4,0.1C44.7,22,44.7,22.1,44.6,22.1z"/>
</g>
<path class="st1" d="M83.1,82.8v-4.9c0-1.1,0.1-1.9,0.2-2.4c0.2-0.5,0.4-1,0.8-1.5c0.6-0.7,1.2-1.3,2-1.7c0.8-0.4,1.7-0.6,2.6-0.6
	c1.8,0,3.1,0.5,4.2,1.6c1,1.1,1.5,2.6,1.5,4.4v5c0,0.9-0.1,1.6-0.2,2.2c-0.1,0.6-0.4,1.1-0.7,1.5c-0.5,0.7-1.2,1.3-2,1.7
	c-0.8,0.4-1.7,0.6-2.7,0.6c-1,0-1.8-0.2-2.6-0.6c-0.8-0.4-1.5-0.9-2.1-1.7c-0.3-0.4-0.6-0.9-0.7-1.5C83.2,84.5,83.1,83.7,83.1,82.8z
	 M84.8,83.1c0,1.4,0.4,2.4,1.1,3.2c0.7,0.8,1.7,1.1,3,1.1c1.3,0,2.2-0.4,3-1.1c0.7-0.8,1.1-1.8,1.1-3.2v-5.7c0-1.3-0.4-2.4-1.1-3.2
	c-0.7-0.8-1.7-1.1-3-1.1c-1.3,0-2.3,0.4-3,1.1s-1.1,1.8-1.1,3.2L84.8,83.1L84.8,83.1z"/>
<path class="st1" d="M99.3,79.3c-0.6-0.4-1-0.9-1.3-1.4c-0.3-0.5-0.5-1.2-0.5-1.8c0-1.2,0.4-2.2,1.3-3.1c0.9-0.9,2-1.3,3.2-1.3
	c1.3,0,2.4,0.4,3.3,1.3c0.9,0.8,1.3,1.8,1.3,3c0,0.8-0.2,1.4-0.5,2c-0.3,0.5-0.8,1-1.4,1.4c0.9,0.5,1.5,1.1,2,1.8
	c0.4,0.7,0.6,1.5,0.6,2.4c0,1.6-0.5,2.8-1.5,3.8c-1,1-2.3,1.5-3.9,1.5c-1.5,0-2.7-0.5-3.7-1.5c-1-1-1.5-2.3-1.5-3.7
	c0-0.9,0.2-1.8,0.6-2.4C97.8,80.5,98.4,79.9,99.3,79.3z M98.5,83.8c0,1.1,0.3,1.9,1,2.6c0.7,0.7,1.5,1,2.5,1c1.1,0,2-0.4,2.7-1.1
	c0.7-0.7,1.1-1.6,1.1-2.7c0-1.1-0.3-2-1-2.7c-0.7-0.7-1.6-1-2.7-1c-1.1,0-2.1,0.3-2.7,1C98.8,81.7,98.5,82.7,98.5,83.8L98.5,83.8z
	 M99.2,75.8c0,0.8,0.3,1.5,0.8,2c0.5,0.5,1.2,0.8,2.1,0.8c1,0,1.8-0.2,2.3-0.7c0.5-0.5,0.8-1.1,0.8-2c0-0.8-0.3-1.4-0.8-1.9
	s-1.3-0.8-2.1-0.8c-0.9,0-1.6,0.3-2.1,0.8C99.5,74.5,99.2,75.1,99.2,75.8z"/>
<path class="st1" d="M109.8,82.8v-4.9c0-1.1,0.1-1.9,0.2-2.4c0.2-0.5,0.4-1,0.8-1.5c0.6-0.7,1.2-1.3,2-1.7c0.8-0.4,1.7-0.6,2.6-0.6
	c1.8,0,3.1,0.5,4.2,1.6c1,1.1,1.5,2.6,1.5,4.4v5c0,0.9-0.1,1.6-0.2,2.2c-0.1,0.6-0.4,1.1-0.7,1.5c-0.5,0.7-1.2,1.3-2,1.7
	c-0.8,0.4-1.7,0.6-2.7,0.6s-1.8-0.2-2.6-0.6c-0.8-0.4-1.5-0.9-2.1-1.7c-0.3-0.4-0.6-0.9-0.7-1.5C109.9,84.5,109.8,83.7,109.8,82.8z
	 M111.5,83.1c0,1.4,0.4,2.4,1.1,3.2c0.7,0.8,1.7,1.1,3,1.1c1.3,0,2.2-0.4,3-1.1c0.7-0.8,1.1-1.8,1.1-3.2v-5.7c0-1.3-0.4-2.4-1.1-3.2
	c-0.7-0.8-1.7-1.1-3-1.1c-1.3,0-2.3,0.4-3,1.1c-0.7,0.8-1.1,1.8-1.1,3.2L111.5,83.1L111.5,83.1z"/>
<path class="st1" d="M123.2,82.8v-4.9c0-1.1,0.1-1.9,0.2-2.4c0.2-0.5,0.4-1,0.8-1.5c0.6-0.7,1.2-1.3,2-1.7c0.8-0.4,1.7-0.6,2.6-0.6
	c1.8,0,3.1,0.5,4.2,1.6c1,1.1,1.5,2.6,1.5,4.4v5c0,0.9-0.1,1.6-0.2,2.2c-0.1,0.6-0.4,1.1-0.7,1.5c-0.5,0.7-1.2,1.3-2,1.7
	c-0.8,0.4-1.7,0.6-2.7,0.6c-1,0-1.8-0.2-2.6-0.6c-0.8-0.4-1.5-0.9-2.1-1.7c-0.3-0.4-0.6-0.9-0.7-1.5
	C123.2,84.5,123.2,83.7,123.2,82.8z M124.8,83.1c0,1.4,0.4,2.4,1.1,3.2c0.7,0.8,1.7,1.1,3,1.1c1.3,0,2.2-0.4,3-1.1
	c0.7-0.8,1.1-1.8,1.1-3.2v-5.7c0-1.3-0.4-2.4-1.1-3.2c-0.7-0.8-1.7-1.1-3-1.1c-1.3,0-2.3,0.4-3,1.1c-0.7,0.8-1.1,1.8-1.1,3.2
	L124.8,83.1L124.8,83.1z"/>
<path class="st1" d="M142,81.6v1.5h-5.4v-1.5H142z"/>
<path class="st1" d="M146,83.5v0.1c0,1.1,0.3,2,1,2.7c0.7,0.7,1.5,1.1,2.6,1.1c1.1,0,2-0.4,2.7-1.1c0.7-0.7,1.1-1.6,1.1-2.7
	c0-1.3-0.4-2.2-1.1-2.9c-0.8-0.7-1.9-1-3.3-1c-0.2,0-0.4,0-0.5,0c-0.1,0-0.2,0-0.3,0v-1.4c0.1,0,0.2,0,0.3,0c0.1,0,0.3,0,0.4,0
	c1.1,0,1.9-0.2,2.5-0.7c0.6-0.4,0.8-1.1,0.8-2c0-0.8-0.2-1.4-0.7-1.9c-0.5-0.5-1.1-0.7-1.8-0.7c-0.8,0-1.5,0.2-1.9,0.7
	c-0.5,0.5-0.7,1.2-0.7,2h-1.5c0.1-1.3,0.5-2.3,1.3-3.1c0.8-0.8,1.8-1.1,3-1.1c1.1,0,2.1,0.4,2.9,1.2c0.8,0.8,1.2,1.8,1.2,2.9
	c0,0.7-0.1,1.2-0.4,1.7c-0.3,0.5-0.7,0.9-1.2,1.3c0.9,0.5,1.6,1.1,2.1,1.9s0.7,1.7,0.7,2.8c0,1.5-0.5,2.8-1.5,3.8
	c-1,1-2.3,1.5-3.8,1.5c-1.6,0-2.9-0.5-3.9-1.4c-1-1-1.4-2.3-1.5-3.9L146,83.5L146,83.5z"/>
<path class="st1" d="M163.6,72.1h2.1l-3.9,6c0.4-0.1,0.7-0.1,1-0.2c0.3,0,0.6-0.1,0.8-0.1c1.5,0,2.8,0.5,3.8,1.6
	c1,1,1.5,2.4,1.5,3.9c0,1.6-0.5,3-1.6,4c-1.1,1.1-2.5,1.6-4.1,1.6c-1.7,0-3-0.5-4.1-1.6c-1.1-1-1.6-2.3-1.6-3.9c0-1.3,0.7-3,2.1-5.1
	c0.1-0.2,0.2-0.4,0.3-0.5L163.6,72.1L163.6,72.1z M163.2,79.2c-1.2,0-2.1,0.4-2.9,1.2c-0.8,0.8-1.2,1.8-1.2,2.9
	c0,1.1,0.4,2.1,1.2,2.9c0.8,0.8,1.8,1.2,2.9,1.2c1.1,0,2-0.4,2.8-1.2c0.7-0.8,1.1-1.8,1.1-3c0-1.2-0.4-2.2-1.1-2.9
	C165.3,79.6,164.4,79.2,163.2,79.2L163.2,79.2z"/>
<path class="st1" d="M172.7,83.5v0.1c0,1.1,0.3,2,1,2.7c0.7,0.7,1.5,1.1,2.6,1.1c1.1,0,2-0.4,2.7-1.1c0.7-0.7,1.1-1.6,1.1-2.7
	c0-1.3-0.4-2.2-1.1-2.9c-0.8-0.7-1.9-1-3.3-1c-0.2,0-0.4,0-0.5,0c-0.1,0-0.2,0-0.3,0v-1.4c0.1,0,0.2,0,0.3,0c0.1,0,0.3,0,0.4,0
	c1.1,0,1.9-0.2,2.5-0.7c0.6-0.4,0.8-1.1,0.8-2c0-0.8-0.2-1.4-0.7-1.9c-0.5-0.5-1.1-0.7-1.8-0.7c-0.8,0-1.5,0.2-1.9,0.7
	c-0.5,0.5-0.7,1.2-0.7,2h-1.5c0.1-1.3,0.5-2.3,1.3-3.1c0.8-0.8,1.8-1.1,3-1.1c1.1,0,2.1,0.4,2.9,1.2c0.8,0.8,1.2,1.8,1.2,2.9
	c0,0.7-0.1,1.2-0.4,1.7s-0.7,0.9-1.2,1.3c0.9,0.5,1.6,1.1,2.1,1.9c0.5,0.8,0.7,1.7,0.7,2.8c0,1.5-0.5,2.8-1.5,3.8
	c-1,1-2.3,1.5-3.8,1.5c-1.6,0-2.9-0.5-3.9-1.4c-1-1-1.4-2.3-1.5-3.9L172.7,83.5L172.7,83.5z"/>
<path class="st1" d="M189.6,81.6v1.5h-5.4v-1.5H189.6z"/>
<path class="st1" d="M194.6,79.3c-0.6-0.4-1-0.9-1.3-1.4c-0.3-0.5-0.5-1.2-0.5-1.8c0-1.2,0.4-2.2,1.3-3.1c0.9-0.9,2-1.3,3.2-1.3
	c1.3,0,2.4,0.4,3.3,1.3c0.9,0.8,1.3,1.8,1.3,3c0,0.8-0.2,1.4-0.5,2c-0.3,0.5-0.8,1-1.4,1.4c0.9,0.5,1.5,1.1,2,1.8
	c0.4,0.7,0.6,1.5,0.6,2.4c0,1.6-0.5,2.8-1.5,3.8c-1,1-2.3,1.5-4,1.5c-1.5,0-2.7-0.5-3.7-1.5c-1-1-1.5-2.3-1.5-3.7
	c0-0.9,0.2-1.8,0.6-2.4C193,80.5,193.7,79.9,194.6,79.3z M193.7,83.8c0,1.1,0.3,1.9,1,2.6c0.7,0.7,1.5,1,2.5,1c1.1,0,2-0.4,2.7-1.1
	c0.7-0.7,1.1-1.6,1.1-2.7c0-1.1-0.3-2-1-2.7c-0.7-0.7-1.6-1-2.7-1c-1.1,0-2.1,0.3-2.7,1C194.1,81.7,193.7,82.7,193.7,83.8
	L193.7,83.8z M194.5,75.8c0,0.8,0.3,1.5,0.8,2c0.5,0.5,1.2,0.8,2.1,0.8c1,0,1.8-0.2,2.3-0.7c0.5-0.5,0.8-1.1,0.8-2
	c0-0.8-0.3-1.4-0.8-1.9c-0.6-0.5-1.3-0.8-2.1-0.8c-0.9,0-1.6,0.3-2.1,0.8C194.7,74.5,194.5,75.1,194.5,75.8z"/>
<path class="st1" d="M207.9,79.3c-0.6-0.4-1-0.9-1.3-1.4c-0.3-0.5-0.5-1.2-0.5-1.8c0-1.2,0.4-2.2,1.3-3.1c0.9-0.9,2-1.3,3.2-1.3
	c1.3,0,2.4,0.4,3.3,1.3c0.9,0.8,1.3,1.8,1.3,3c0,0.8-0.2,1.4-0.5,2c-0.3,0.5-0.8,1-1.4,1.4c0.9,0.5,1.5,1.1,2,1.8
	c0.4,0.7,0.6,1.5,0.6,2.4c0,1.6-0.5,2.8-1.5,3.8c-1,1-2.3,1.5-4,1.5c-1.5,0-2.7-0.5-3.7-1.5c-1-1-1.5-2.3-1.5-3.7
	c0-0.9,0.2-1.8,0.6-2.4C206.4,80.5,207,79.9,207.9,79.3z M207.1,83.8c0,1.1,0.3,1.9,1,2.6c0.7,0.7,1.5,1,2.5,1c1.1,0,2-0.4,2.7-1.1
	c0.7-0.7,1.1-1.6,1.1-2.7c0-1.1-0.3-2-1-2.7c-0.7-0.7-1.6-1-2.7-1c-1.1,0-2.1,0.3-2.7,1C207.4,81.7,207.1,82.7,207.1,83.8
	L207.1,83.8z M207.8,75.8c0,0.8,0.3,1.5,0.8,2c0.5,0.5,1.2,0.8,2.1,0.8c1,0,1.8-0.2,2.3-0.7c0.5-0.5,0.8-1.1,0.8-2
	c0-0.8-0.3-1.4-0.8-1.9c-0.6-0.5-1.3-0.8-2.1-0.8c-0.9,0-1.6,0.3-2.1,0.8S207.8,75.1,207.8,75.8z"/>
<path class="st1" d="M221.3,79.3c-0.6-0.4-1-0.9-1.3-1.4c-0.3-0.5-0.5-1.2-0.5-1.8c0-1.2,0.4-2.2,1.3-3.1c0.9-0.9,2-1.3,3.2-1.3
	c1.3,0,2.4,0.4,3.3,1.3c0.9,0.8,1.3,1.8,1.3,3c0,0.8-0.2,1.4-0.5,2c-0.3,0.5-0.8,1-1.4,1.4c0.9,0.5,1.5,1.1,2,1.8
	c0.4,0.7,0.6,1.5,0.6,2.4c0,1.6-0.5,2.8-1.5,3.8c-1,1-2.3,1.5-3.9,1.5c-1.5,0-2.7-0.5-3.7-1.5c-1-1-1.5-2.3-1.5-3.7
	c0-0.9,0.2-1.8,0.6-2.4C219.7,80.5,220.4,79.9,221.3,79.3z M220.4,83.8c0,1.1,0.3,1.9,1,2.6c0.7,0.7,1.5,1,2.5,1
	c1.1,0,2-0.4,2.7-1.1c0.7-0.7,1.1-1.6,1.1-2.7c0-1.1-0.3-2-1-2.7c-0.7-0.7-1.6-1-2.7-1c-1.1,0-2.1,0.3-2.7,1
	C220.7,81.7,220.4,82.7,220.4,83.8L220.4,83.8z M221.1,75.8c0,0.8,0.3,1.5,0.8,2c0.5,0.5,1.2,0.8,2.1,0.8c1,0,1.8-0.2,2.3-0.7
	c0.5-0.5,0.8-1.1,0.8-2c0-0.8-0.3-1.4-0.8-1.9c-0.6-0.5-1.3-0.8-2.1-0.8c-0.9,0-1.6,0.3-2.1,0.8C221.4,74.5,221.1,75.1,221.1,75.8z"
	/>
<path class="st0" d="M66.2,82.5c0,0.3-0.1,0.5-0.1,0.8h4.5c0,0,0,0.4,0,0.6c-0.1,1.8-0.3,2.7-0.7,3.1c-0.3,0.3-0.7,0.4-1.1,0.5
	c-0.4,0.1-1.1,0.1-1.8,0c0-0.5-0.2-1.1-0.4-1.5C67.1,86,67.7,86,68,86c0.2,0,0.4,0,0.5-0.1c0.2-0.1,0.3-0.5,0.4-1.3h-3.2
	c-0.6,1.3-1.6,2.2-3.6,2.9c-0.2-0.4-0.6-1-0.9-1.4c-0.3,0.6-0.6,1.1-1,1.5c-0.2-0.4-0.9-1.1-1.2-1.3c1.5-1.9,1.6-4.6,1.6-6.8v-4.8
	c3.2-0.2,6.8-0.6,9-1.1l1.3,1.3c-2.4,0.6-5.6,0.9-8.6,1.1v0.5H71v3.5h-3.9c0.2,0.3,0.3,0.7,0.4,1h4.2v1.4H66.2L66.2,82.5z
	 M62.1,82.5c-0.2,1.2-0.5,2.5-1,3.6c2.5-0.7,3.1-1.9,3.3-3.6H62.1z M65.8,81.1c-0.1-0.3-0.2-0.5-0.3-0.8l1.4-0.3h-4.6
	c0,0.3,0,0.7,0,1H65.8z M62.3,77.9v0.9h7.1v-0.9H62.3z"/>
<path class="st2" d="M37.9,87.7h-9.2v-1.4l5.3-4.8c1-0.9,1.7-1.7,2.1-2.2c0.3-0.5,0.5-1.1,0.5-1.7c0-0.9-0.3-1.6-0.9-2.2
	c-0.6-0.6-1.4-0.9-2.3-0.9c-0.9,0-1.7,0.3-2.3,0.9c-0.6,0.6-0.9,1.4-0.9,2.5c0,0.1,0,0.1,0,0.2c0,0.1,0,0.1,0,0.2h-1.4V78
	c0-1.4,0.4-2.6,1.3-3.5c0.9-0.9,2-1.3,3.4-1.3c1.3,0,2.3,0.4,3.2,1.3c0.9,0.9,1.3,1.9,1.3,3.2c0,0.7-0.2,1.4-0.6,2.1
	c-0.4,0.7-1,1.4-1.8,2.1l-5,4.4h7.3L37.9,87.7L37.9,87.7z"/>
<path class="st2" d="M45,80.7V82h-4.8v-1.3H45z"/>
<path class="st2" d="M49.1,83.4v0.1c0,0.9,0.3,1.7,0.9,2.3c0.6,0.6,1.4,0.9,2.3,0.9c1,0,1.8-0.3,2.4-0.9c0.6-0.6,0.9-1.4,0.9-2.4
	c0-1.1-0.3-1.9-1-2.5c-0.7-0.6-1.6-0.8-2.9-0.8c-0.2,0-0.3,0-0.4,0c-0.1,0-0.2,0-0.3,0V79c0.1,0,0.2,0,0.2,0c0.1,0,0.2,0,0.4,0
	c1,0,1.7-0.2,2.2-0.6s0.7-1,0.7-1.7c0-0.7-0.2-1.2-0.6-1.6c-0.4-0.4-1-0.6-1.6-0.6c-0.7,0-1.3,0.2-1.7,0.6c-0.4,0.4-0.6,1-0.6,1.8
	h-1.4c0.1-1.1,0.4-2,1.1-2.6c0.7-0.7,1.6-1,2.7-1c1,0,1.9,0.3,2.6,1c0.7,0.7,1.1,1.5,1.1,2.5c0,0.6-0.1,1.1-0.3,1.5
	c-0.2,0.4-0.6,0.8-1.1,1.2c0.8,0.4,1.4,1,1.8,1.6c0.4,0.7,0.6,1.5,0.6,2.4c0,1.3-0.5,2.4-1.4,3.3c-0.9,0.9-2,1.3-3.4,1.3
	c-1.5,0-2.6-0.4-3.4-1.2c-0.8-0.8-1.3-1.9-1.3-3.4L49.1,83.4L49.1,83.4z"/>
<path class="st3" d="M77.9,70.5H20.3v20.6h57.7V70.5z"/>
</svg>
