<svg width="43" height="254" viewBox="0 0 43 254" fill="none" xmlns="http://www.w3.org/2000/svg">
<g filter="url(#filter0_d_17_573)">
<path d="M33.2577 38.9923L35.9408 35.4778L40.8111 39.1152C40.5277 39.6679 39.9986 39.8757 38.8696 39.871L10.399 39.7245L10.1628 38.8742L22.6432 38.9357L22.7188 23.8855L15.0048 23.8477C12.5106 29.9131 8.88741 35.6762 3.5353 40.0316L3.05347 39.6064C9.10943 32.2845 12.3075 22.1377 13.9325 12.4538L3.67229 12.4019L3.47389 11.5516L14.0553 11.6035C14.5985 8.29212 14.9386 5.0185 15.1559 1.99997L21.7362 2.84081C21.6134 3.43602 21.2875 3.81865 20.0735 3.97926C19.6955 6.40259 19.2798 8.99125 18.7035 11.6224L33.4466 11.698L36.1298 8.14096L41.0001 11.8208C40.6741 12.3735 40.1876 12.5814 39.016 12.5766L18.5004 12.4727C17.7163 15.9542 16.6865 19.5632 15.3354 23.0447L30.4376 23.1202L32.9601 19.7758L37.5469 23.2431C37.2635 23.7958 36.7344 23.9611 35.6054 23.9564L27.2065 23.9139L27.1309 38.964L33.2671 38.9971L33.2577 38.9923Z" fill="#4D4D4D"/>
<path d="M40.0553 52.5072C39.8522 52.8473 39.5687 53.0127 39.0444 53.0127C38.8838 53.0127 38.6807 53.0127 38.4775 52.9654C36.9376 54.2739 35.0717 55.5825 33.5317 56.343C36.8006 57.1271 37.9201 58.875 37.9154 60.2779C37.9154 60.7881 37.7879 61.2133 37.5469 61.5959L40.7214 64.8412C40.3954 65.1813 39.9939 65.3041 39.1436 65.3419C37.8445 66.4 35.6196 67.6613 33.8765 68.4171L33.9993 68.5021C33.7962 68.7572 33.3097 69.0926 32.6247 69.2202L32.6011 74.0668C32.6011 74.1519 31.4248 75.125 28.3544 75.1061V74.3408L24.1171 74.3172C23.0589 75.5029 21.7221 76.8964 20.5458 77.9545L30.806 78.0065L32.431 75.8052L37.0179 79.145C36.7722 79.4426 36.2054 79.778 35.4401 79.9433L35.407 86.363C35.407 86.448 34.3111 87.6337 31.1603 87.6148L31.1698 85.3615L12.4728 85.2671V86.1599C12.4681 86.2449 11.8162 87.6857 8.33945 87.6715L8.39614 76.0225L12.8271 77.9168L18.9256 77.9498C19.0909 76.8444 19.3035 75.399 19.431 74.2983L15.3921 74.2794C15.3921 74.3219 14.7403 75.6777 11.2257 75.6588L11.2777 65.4978L15.7086 67.3495L28.0284 67.4109L29.6156 65.3372L33.2766 67.992C33.7254 66.9291 34.2592 65.2758 34.5473 64.0003L9.18502 63.8728C9.22281 64.2554 9.2606 64.5955 9.2606 64.9356C9.24643 67.6141 7.74425 69.5178 5.60435 69.5083C4.03131 69.4989 3.26605 68.4738 3.27077 67.4157C3.2755 66.3953 4.13051 65.5497 5.0989 65.1293C6.35544 64.6664 7.61198 63.3154 7.82455 61.5723C6.77114 62.0777 5.55711 62.4981 4.18247 62.9138L3.74316 62.3139C11.5989 58.6529 11.5422 53.7638 11.6556 47.5189L16.8613 47.9298C16.8187 48.44 16.5731 48.6951 15.4819 48.8604C15.3496 51.3688 15.1323 53.7071 14.197 55.8281C14.7639 55.8753 15.2882 56.0029 15.77 56.0926L15.3685 55.7525C16.181 54.4818 17.2864 52.2758 18.2642 50.1548L22.3315 52.3844C22.1283 52.7245 21.8449 52.8899 21.3206 52.8899C21.1599 52.8899 20.9568 52.8899 20.7537 52.8426C19.2515 54.1086 17.4706 55.4171 16.011 56.1777C18.9964 56.9571 19.9979 58.5774 19.9884 59.8528C19.9837 61.0007 19.1712 61.9313 18.1603 61.9266C17.7588 61.9266 17.3525 61.7943 16.9085 61.4542C16.3936 59.8764 15.0662 58.0436 13.6585 56.8484C12.6807 58.5018 11.0982 59.9803 8.5473 61.2416C8.78822 61.8793 8.9441 62.4745 9.0622 63.0745L34.3017 63.202L35.237 62.2289L34.8355 61.9738C33.9946 60.2685 32.3507 58.3034 30.6218 56.9807C29.1149 59.3096 26.3184 61.2511 21.1411 62.758L20.7395 62.1628C28.3921 58.5018 28.3355 53.7402 28.4441 47.6181L33.9332 48.0715C33.8907 48.5817 33.6451 48.8368 32.5538 48.9596C32.4216 51.5105 32.2043 53.8913 31.1461 56.0076C32.0342 56.0548 32.842 56.1871 33.527 56.3619L33.0026 55.932C33.7773 54.6188 34.7977 52.4128 35.7377 50.2492L40.0459 52.5261L40.0553 52.5072ZM8.96772 50.2256C9.20391 51.1184 9.32201 51.9262 9.31729 52.6489C9.30312 55.3699 7.76314 56.8484 6.18538 56.8437C5.2973 56.8437 4.53204 56.3666 4.53676 55.4738C4.53676 54.7085 5.10835 54.0755 5.83582 53.7354C7.04984 53.2725 8.26859 51.8364 8.27804 50.2634L8.963 50.2256H8.96772ZM31.1981 78.8663L12.5012 78.7718L12.4728 84.4262L31.1698 84.5207L31.1981 78.8663ZM28.3591 73.5378L28.3874 68.266L15.4252 68.1998L15.3969 73.4716L28.3591 73.5378ZM25.6901 50.3532C25.9688 51.331 26.1247 52.2238 26.12 53.0316C26.1105 54.9872 25.1705 57.2358 22.9881 57.2263C21.8969 57.2216 21.3772 56.5792 21.3772 55.8139C21.3772 55.1337 21.9488 54.4582 22.6763 54.1181C23.8525 53.5701 24.991 52.0443 24.9579 50.3862L25.6854 50.3484L25.6901 50.3532Z" fill="#4D4D4D"/>
<path d="M13.8192 112.958C13.4932 113.298 12.8886 113.634 11.7549 113.842L11.6982 124.683C14.5089 127.843 17.414 128.325 24.7643 128.363C29.4079 128.386 35.7095 128.377 40.7167 128.273V128.783C39.0539 129.156 38.0808 130.469 37.8683 132.51L24.7832 132.444C17.1117 132.406 13.9231 131.197 11.1691 125.401C9.58191 127.645 7.14441 130.569 5.59971 132.26C5.6375 132.813 5.39186 133.068 5.02813 133.275L2.62842 128.287C3.88496 127.782 5.74615 126.898 7.64513 125.972L7.71127 112.878L2.86461 112.854L2.70872 111.961L7.11134 111.985L9.22762 109.019L13.8145 112.954L13.8192 112.958ZM3.93692 94.6675C9.86534 95.9713 11.7927 98.7017 11.7832 100.785C11.7738 102.358 10.64 103.586 9.34572 103.577C8.74106 103.577 8.0939 103.317 7.49397 102.674C7.1822 100.039 5.54303 96.8405 3.65821 94.9604L3.94164 94.6628L3.93692 94.6675ZM18.9493 112.939L18.8879 125.396C18.8879 125.439 18.3163 126.879 14.9246 126.865L15.0096 110.285L19.2422 112.094L24.6132 112.122L24.6368 107.786L20.9191 107.767V108.192C20.9191 108.277 20.3428 109.718 16.9511 109.704L17.0267 94.2707L21.2167 96.0752L32.1619 96.1319L33.8294 93.8881L38.3359 97.2704C38.0525 97.568 37.4856 97.9459 36.6353 98.1112L36.5834 108.272C36.5834 108.357 35.5252 109.458 32.4972 109.444L32.5067 107.828L28.6284 107.809L28.6048 112.146L34.0561 112.174L35.7236 109.93L40.1499 113.313C39.9042 113.61 39.3374 113.988 38.4918 114.153L38.4493 122.529C38.4351 124.952 37.9013 126.605 33.135 127.134C33.1491 124.371 31.8595 123.771 29.1953 123.502V122.907L33.7632 122.93C34.2876 122.93 34.4104 122.85 34.4104 122.382V121.234C34.0939 121.489 33.7254 121.612 33.3664 121.612C32.8799 121.612 32.3603 121.352 31.9162 120.753C31.9587 120.03 31.8831 119.307 31.6847 118.584C29.4976 119.383 26.3846 120.257 22.2182 121.428C22.0151 122.023 21.6088 122.274 21.2025 122.359L19.1241 117.97C20.3381 117.975 22.2749 117.942 24.5754 117.871L24.599 112.982L18.9446 112.954L18.9493 112.939ZM20.9191 106.912L24.6368 106.931L24.6604 102.297L20.9427 102.278L20.9191 106.912ZM24.684 96.9397L20.9664 96.9208L20.9427 101.47L24.6604 101.489L24.684 96.9397ZM34.4576 113.015L28.6001 112.987L28.5765 117.748L31.4438 117.635C31.0848 116.487 30.5652 115.377 30.0078 114.564L30.3715 114.309C32.4264 115.169 33.716 116.199 34.434 117.177L34.4529 113.01L34.4576 113.015ZM28.6331 106.95L32.5114 106.968L32.535 102.334L28.6568 102.315L28.6331 106.95ZM32.5587 96.9775L28.6804 96.9586L28.6568 101.508L32.535 101.527L32.5587 96.9775Z" fill="#4D4D4D"/>
<path d="M38.5342 168.648L38.4634 174.217C39.9939 174.864 40.197 175.077 40.1923 175.714C40.1828 177.33 39.0066 178.303 34.6843 178.279L28.1843 178.246C23.8242 178.223 22.8558 177.368 22.8794 173.414L22.9314 163.508L19.6625 163.489C19.4972 163.872 19.0956 164.08 18.2028 164.16C17.4423 170.958 14.2631 176.768 2.65667 179.045L2.33545 178.407C10.9517 175.729 13.5262 170.046 13.923 163.456H13.0727V164.344C13.0727 164.472 12.4964 166.082 8.78349 166.064L8.91576 139.917L13.4695 141.896L29.3416 141.977L31.132 139.563L35.7566 143.115C35.4732 143.455 34.9063 143.833 34.056 143.999L33.9521 164.491C33.9521 164.533 32.7333 165.761 29.6251 165.742L29.6345 163.532H28.4205C28.2977 163.782 27.9339 163.905 27.2065 164.028L27.1592 173.466C27.1545 174.529 27.1923 174.571 28.4441 174.576L34.7457 174.609C35.6763 174.609 35.9975 174.571 36.366 173.938C36.7722 173.301 37.3911 171.35 38.2083 168.633H38.5295L38.5342 168.648ZM13.0822 162.653L29.6392 162.738L29.6723 156.573L13.1152 156.488L13.0822 162.653ZM29.677 155.723L29.7101 149.644L13.153 149.559L13.12 155.638L29.677 155.723ZM29.7432 142.841L13.1861 142.756L13.1578 148.708L29.7148 148.793L29.7432 142.841Z" fill="#4D4D4D"/>
<path d="M12.8034 209.419C16.9935 211.181 18.3161 213.401 18.3067 215.102C18.2972 216.547 17.2863 217.605 16.1951 217.601C15.6283 217.601 14.9858 217.298 14.504 216.613C14.504 215.763 14.3906 214.743 14.1544 213.765L12.3735 214.308L12.2791 232.929C12.2791 233.185 11.0225 234.115 9.04324 234.106H8.35829L8.42914 220.581C8.22602 220.666 7.94259 220.747 7.54106 220.747C6.43096 224.781 4.79651 228.513 2.64244 230.757L2 230.412C3.06286 227.695 3.85174 223.109 4.15879 218.815L8.43387 219.774L8.45749 215.395C7.28598 215.73 6.07195 216.061 4.69731 216.396C4.45167 216.949 4.00763 217.242 3.60138 217.327L2.17006 212.896C3.18096 212.9 4.71621 212.91 6.57268 212.877C8.77398 208.635 11.1454 203.25 12.657 199.348L17.9382 201.672C17.7729 202.012 17.4895 202.22 16.9273 202.22C16.7667 202.22 16.5636 202.177 16.3227 202.13C14.2867 205.224 11.117 209.372 8.02762 212.844C9.80378 212.811 11.7831 212.778 13.8427 212.702C13.4459 211.554 12.964 210.487 12.4019 209.674L12.8081 209.419H12.8034ZM2.54797 201.289C3.88009 201.592 4.96657 201.984 5.81214 202.413C6.54906 200.122 7.41352 196.939 8.07486 194.133L13.5167 196.117C13.3514 196.627 12.9499 196.877 11.9767 196.872C10.4321 199.074 8.64172 201.36 6.93641 203.098C8.14099 203.996 8.62282 205.064 8.6181 205.956C8.61337 207.189 7.71584 208.205 6.66715 208.2C6.14281 208.2 5.61846 207.94 5.13663 207.425C4.86265 205.47 3.58249 203.037 2.2173 201.629L2.54324 201.289H2.54797ZM30.2438 211.124C30.8343 214.36 31.7082 217.001 32.79 219.174C33.8906 217.01 35.1141 214.341 35.6479 212.853L40.1544 215.725C40.0316 215.938 39.8285 216.108 39.4648 216.103C39.3042 216.103 39.1435 216.061 38.8979 215.971C37.6792 217.029 35.4117 218.843 33.3427 220.151C35.3031 223.605 37.8398 225.745 40.4568 227.289L40.334 227.757C38.7184 228.13 37.4571 229.741 36.9186 231.862C33.2246 227.719 31.1886 222.905 30.1824 214.058H30.1399L30.0643 228.853C30.0502 231.786 29.3935 233.822 25.0712 234.229C25.0854 231.125 24.443 230.27 21.9015 229.963V229.41L25.5011 229.429C25.8648 229.429 25.9877 229.264 25.9877 228.796L26.0207 222.631C24.6792 224.327 22.6857 226.864 20.0073 229.958C19.9648 230.468 19.7191 231.021 19.3129 231.229L16.6675 227.261C16.4644 227.346 16.2613 227.388 16.0629 227.384C15.496 227.384 14.9339 227.081 14.452 226.396C14.6268 224.101 13.8757 220.95 12.9168 219.032L13.3608 218.777C17.0265 220.794 18.1839 223.052 18.1791 224.752C18.1791 225.305 18.0516 225.773 17.8485 226.198C19.8325 225.187 22.9502 223.543 26.0302 221.819L26.0821 211.105L16.8329 211.058L16.6345 210.25L29.8423 210.316L30.5509 205.687L23.6871 205.654L23.2762 207.44C22.8321 207.775 22.0999 207.988 21.2119 207.983C20.6072 207.983 19.9175 207.851 19.1948 207.633C20.0167 204.407 21.4717 197.104 21.8496 194.17L27.2962 194.836C27.2111 195.432 26.8049 195.767 25.6759 195.847C25.5531 196.57 25.3452 197.718 25.0523 198.989L31.1508 199.022L32.8986 196.948L36.8005 200.241C36.5171 200.581 36.1534 200.746 35.3834 200.826L33.9615 210.34H35.133L37.0887 206.953L40.7071 210.458C40.3812 211.011 39.8568 211.176 38.7231 211.171L30.2438 211.129V211.124ZM19.2893 213.363C23.2809 214.87 24.5611 216.878 24.5563 218.451C24.5516 219.811 23.536 220.827 22.4826 220.822C21.9157 220.822 21.3536 220.52 20.8717 219.878C20.8812 217.837 20.0451 215.196 18.9633 213.618L19.2893 213.363ZM24.8917 199.83C24.5988 201.445 24.2304 203.226 23.8572 204.799L30.6831 204.832L31.4342 199.863L24.8917 199.83Z" fill="#0A7041"/>
<path d="M34.3347 240.185C37.3627 240.2 39.7718 242.765 39.7577 245.911C39.7435 249.099 37.306 251.636 34.278 251.622C31.2878 251.608 28.8787 249.043 28.8976 245.854C28.9117 242.623 31.4295 240.171 34.3394 240.185H34.3347ZM38.5059 245.901C38.52 243.52 36.6305 241.513 34.33 241.503C32.0295 241.494 30.1588 243.478 30.1494 245.859C30.1352 248.282 31.9822 250.29 34.2875 250.299C36.6683 250.313 38.4964 248.235 38.5106 245.901H38.5059Z" fill="#4D4D4D"/>
</g>
<defs>
<filter id="filter0_d_17_573" x="0" y="-3.05176e-05" width="43.0001" height="253.622" filterUnits="userSpaceOnUse" color-interpolation-filters="sRGB">
<feFlood flood-opacity="0" result="BackgroundImageFix"/>
<feColorMatrix in="SourceAlpha" type="matrix" values="0 0 0 0 0 0 0 0 0 0 0 0 0 0 0 0 0 0 127 0" result="hardAlpha"/>
<feOffset/>
<feGaussianBlur stdDeviation="1"/>
<feComposite in2="hardAlpha" operator="out"/>
<feColorMatrix type="matrix" values="0 0 0 0 0 0 0 0 0 0 0 0 0 0 0 0 0 0 0.6 0"/>
<feBlend mode="normal" in2="BackgroundImageFix" result="effect1_dropShadow_17_573"/>
<feBlend mode="normal" in="SourceGraphic" in2="effect1_dropShadow_17_573" result="shape"/>
</filter>
</defs>
</svg>
