<svg width="238" height="60" viewBox="0 0 238 60" fill="none" xmlns="http://www.w3.org/2000/svg">
<path d="M83.88 29.97C82.17 29.39 80.92 28.56 80.14 27.49V27.54C78.89 28.12 77.19 28.81 75.05 29.59C74.97 29.81 74.83 29.93 74.65 29.96L73.8 28.04C74.26 28.01 74.98 27.94 75.95 27.82V24.85H74.33C73.87 27 72.86 28.69 71.32 29.91L71.18 29.8C71.9 28.56 72.4 27.06 72.67 25.29C72.85 24.05 72.95 22.46 72.95 20.54V18.16C72.95 17.14 72.9 16.32 72.8 15.7L74.98 16.52H82.04L82.41 16.07C82.41 16.07 82.48 15.99 82.53 15.92C82.7 15.71 82.82 15.61 82.88 15.61C82.98 15.61 83.28 15.8 83.79 16.19C84.29 16.58 84.54 16.83 84.54 16.94C84.41 17.09 84.2 17.2 83.92 17.25V18.08C83.92 18.21 83.92 18.38 83.94 18.57C83.96 19.04 83.98 19.4 84 19.63C83.95 19.72 83.75 19.82 83.4 19.94C83.05 20.05 82.74 20.11 82.48 20.11H82.19V19.56H74.7V20.54C74.7 21.09 74.7 21.52 74.68 21.82H76.48C76.48 20.96 76.44 20.28 76.36 19.79C77.35 20.02 77.99 20.2 78.25 20.33C78.44 20.42 78.48 20.51 78.34 20.59L78.12 20.73V21.82H80.06C80.06 20.98 80.02 20.31 79.94 19.82C80.93 20.06 81.56 20.24 81.82 20.36C82 20.45 82.03 20.54 81.9 20.64L81.68 20.78V21.83H82.54L82.91 21.26C82.91 21.26 82.97 21.18 83.02 21.11C83.2 20.82 83.33 20.68 83.4 20.68C83.5 20.68 83.77 20.88 84.2 21.27C84.63 21.66 84.85 21.92 84.85 22.03C84.81 22.19 84.67 22.28 84.43 22.28H81.68V24.42H82.77L83.15 23.85C83.15 23.85 83.21 23.77 83.26 23.7C83.44 23.41 83.57 23.27 83.64 23.27C83.74 23.27 84.01 23.47 84.43 23.86C84.86 24.25 85.07 24.51 85.07 24.62C85.03 24.78 84.9 24.87 84.67 24.87H82.72C83.41 25.39 83.83 25.75 84 25.93C84.11 26.07 84.09 26.15 83.92 26.16L83.64 26.18C82.9 26.41 82 26.62 80.93 26.83C81.95 27.51 83.36 27.96 85.16 28.2V28.38C84.49 28.56 84.06 29.1 83.85 30L83.88 29.97ZM74.43 24.4H76.49V22.26H74.66C74.62 23.07 74.54 23.78 74.43 24.4ZM74.71 19.12H82.2V16.95H74.71V19.12ZM77.57 27.63C77.74 27.61 78.02 27.58 78.39 27.54C79.11 27.46 79.65 27.39 80.02 27.34C79.55 26.66 79.17 25.83 78.9 24.85H77.58V27.63H77.57ZM78.14 24.4H80.08V22.26H78.14V24.4ZM80.6 26.55C81.32 26 81.97 25.43 82.55 24.84H79.2C79.52 25.5 79.98 26.07 80.6 26.55Z" fill="white"/>
<path d="M90.8 29.46L90.4 28.68C90.96 28.74 91.65 28.78 92.45 28.8H93.51V22.4C93.51 21.11 93.44 20.06 93.31 19.25L95.34 20.05H99.43L99.77 19.54C99.77 19.54 99.84 19.46 99.88 19.39C100.05 19.15 100.17 19.04 100.23 19.04C100.33 19.04 100.65 19.23 101.18 19.62C101.72 20.02 102 20.27 102 20.37C101.9 20.52 101.67 20.63 101.32 20.68V28.8H101.8L102.23 28.12C102.26 28.07 102.31 27.99 102.38 27.89C102.57 27.59 102.7 27.44 102.76 27.44C102.85 27.44 103.14 27.67 103.63 28.13C104.12 28.59 104.36 28.88 104.36 28.99C104.32 29.15 104.18 29.24 103.94 29.24H93.1C92.37 29.25 91.6 29.32 90.79 29.46H90.8ZM91.32 20.59C91.02 20.53 90.81 20.37 90.7 20.09C90.61 19.84 90.62 19.61 90.75 19.38C90.85 19.17 91.02 19.01 91.26 18.87C91.57 18.68 91.83 18.38 92.06 17.98C92.31 17.54 92.42 17.08 92.41 16.61H92.61C92.71 16.89 92.8 17.24 92.89 17.66H96.46C96.46 16.78 96.41 16.03 96.32 15.41C97.45 15.64 98.16 15.81 98.44 15.93C98.65 16.02 98.67 16.12 98.52 16.24L98.26 16.42V17.65H102.03L102.45 17.19C102.45 17.19 102.51 17.12 102.56 17.07C102.77 16.84 102.9 16.73 102.98 16.73C103.07 16.73 103.34 16.95 103.79 17.4C104.24 17.85 104.46 18.13 104.46 18.24C104.37 18.34 104.17 18.41 103.88 18.44C103.23 19.06 102.5 19.57 101.66 19.98L101.54 19.89C101.8 19.2 101.99 18.6 102.11 18.09H92.96C93 18.62 92.94 19.1 92.79 19.52C92.65 19.9 92.44 20.19 92.16 20.38C91.92 20.57 91.65 20.64 91.35 20.59H91.32ZM95.2 22.91H99.58V20.49H95.2V22.91ZM95.2 25.76H99.58V23.34H95.2V25.76ZM95.2 28.81H99.58V26.21H95.2V28.81Z" fill="white"/>
<path d="M109.74 29.97L109.65 29.72C111.42 29.18 112.74 28.56 113.59 27.86C114.34 27.26 114.84 26.49 115.08 25.57H112.43C111.7 25.58 110.93 25.65 110.12 25.79L109.72 25.02C110.28 25.08 110.97 25.12 111.77 25.14H115.17C115.29 24.5 115.31 23.84 115.22 23.16C116.41 23.24 117.16 23.33 117.48 23.42C117.7 23.48 117.73 23.56 117.57 23.67L117.31 23.84C117.28 24.18 117.22 24.61 117.14 25.15H120.79L121.24 24.52C121.28 24.47 121.33 24.4 121.39 24.3C121.61 24.01 121.74 23.87 121.81 23.87C121.91 23.87 122.23 24.09 122.75 24.52C123.27 24.95 123.53 25.22 123.53 25.34C123.49 25.5 123.35 25.59 123.1 25.59H117.52C118.06 26.39 118.91 27 120.06 27.41C121.01 27.75 122.23 27.96 123.71 28.06L123.69 28.23C123.01 28.46 122.59 29.02 122.41 29.94C121.03 29.58 119.94 29.09 119.15 28.48C118.28 27.78 117.63 26.82 117.2 25.6H117.06C116.77 26.74 116.16 27.62 115.21 28.25C114.08 29.01 112.26 29.59 109.75 30L109.74 29.97ZM110.45 23.22L110.05 22.45C110.61 22.51 111.3 22.55 112.1 22.57H115.61V20.72H114.15C113.42 20.73 112.65 20.8 111.84 20.94L111.46 20.16C112.02 20.22 112.71 20.26 113.51 20.28H115.62V18.56H113.3C112.57 18.57 111.8 18.64 110.99 18.78L110.59 18C111.15 18.06 111.84 18.1 112.64 18.12H117.62C118.03 17.12 118.25 16.18 118.28 15.3C119.39 15.64 120.09 15.89 120.37 16.05C120.58 16.16 120.6 16.25 120.43 16.31L120.15 16.4C119.62 16.94 118.92 17.51 118.07 18.11H120.28L120.73 17.49C120.73 17.49 120.8 17.41 120.85 17.34C121.07 17.03 121.21 16.88 121.28 16.88C121.38 16.88 121.68 17.09 122.18 17.51C122.68 17.93 122.93 18.2 122.93 18.31C122.89 18.47 122.75 18.56 122.51 18.56H117.4V20.28H119.49L119.91 19.71C119.91 19.71 119.99 19.61 120.05 19.54C120.24 19.27 120.37 19.14 120.43 19.14C120.53 19.14 120.82 19.33 121.3 19.72C121.78 20.11 122.02 20.36 122.02 20.47C121.99 20.63 121.86 20.72 121.62 20.72H117.41V22.57H120.56L121.01 21.92C121.05 21.87 121.1 21.8 121.16 21.7C121.38 21.41 121.51 21.27 121.58 21.27C121.68 21.27 121.99 21.49 122.5 21.93C123.01 22.37 123.26 22.65 123.26 22.76C123.23 22.91 123.09 22.99 122.84 22.99H112.76C112.03 23 111.26 23.07 110.45 23.21V23.22ZM113.91 17.84C113.87 17.47 113.75 17.08 113.56 16.66C113.38 16.28 113.16 15.95 112.91 15.68L113.02 15.59C113.92 15.66 114.6 15.88 115.05 16.24C115.42 16.54 115.58 16.88 115.53 17.27C115.49 17.63 115.31 17.88 114.99 18.02C114.64 18.18 114.28 18.13 113.91 17.85V17.84Z" fill="white"/>
<path d="M129.26 23.63C129 23.45 128.89 23.19 128.92 22.88C128.96 22.53 129.18 22.25 129.57 22.03C129.8 21.91 129.99 21.71 130.14 21.45C130.3 21.13 130.38 20.77 130.37 20.36L130.54 20.34C130.71 20.69 130.84 21.03 130.91 21.36H131.13L130.98 16.18L132.33 16.46C132.85 16.07 133.24 15.71 133.48 15.37L134.66 16.43L134.71 16.38C135.11 16.39 135.49 16.44 135.85 16.53C136.1 16.16 136.27 15.82 136.36 15.5L137.74 16.33C137.68 16.46 137.52 16.5 137.26 16.44C137.19 16.54 137.05 16.69 136.86 16.89C136.82 16.93 136.79 16.96 136.77 16.98C137.01 17.17 137.14 17.39 137.17 17.61C137.21 17.83 137.16 17.99 137.02 18.11C136.88 18.23 136.69 18.25 136.47 18.16C136.38 18.02 136.22 17.83 135.99 17.61C135.46 17.98 134.94 18.27 134.44 18.47L134.41 18.42C134.37 18.53 134.26 18.59 134.07 18.59H132.56L132.61 19.77H132.95L133.18 19.4C133.18 19.4 133.23 19.32 133.27 19.26C133.38 19.1 133.47 19.01 133.53 19.01C133.62 19.01 133.81 19.14 134.08 19.4C134.36 19.66 134.5 19.85 134.5 19.96C134.46 20.12 134.34 20.21 134.13 20.21H132.61L132.66 21.35H139.01L139.04 20.21H138.64C138.43 20.22 138.22 20.29 137.99 20.43L137.59 19.65C137.88 19.71 138.22 19.75 138.61 19.77H139.07L139.12 18.59H138.7C138.49 18.6 138.28 18.67 138.05 18.81L137.63 18.04C137.92 18.1 138.27 18.14 138.68 18.16H139.14L139.2 16.96H138.69C138.43 16.97 138.17 17.04 137.89 17.18L137.49 16.4C137.79 16.46 138.15 16.5 138.57 16.52H139.06L139.35 16.12C139.35 16.12 139.41 16.04 139.46 15.98C139.6 15.81 139.71 15.72 139.77 15.72C139.87 15.72 140.15 15.9 140.59 16.25C141.04 16.6 141.26 16.84 141.26 16.95C141.16 17.06 140.99 17.13 140.75 17.17L140.55 21.22L140.89 20.84C140.89 20.84 140.96 20.77 141.01 20.72C141.17 20.55 141.29 20.46 141.35 20.46C141.44 20.46 141.71 20.69 142.17 21.14C142.62 21.6 142.85 21.88 142.85 21.99C142.75 22.09 142.56 22.15 142.3 22.16C141.61 22.59 140.9 22.98 140.16 23.31L140.04 23.2C140.07 23.11 140.12 22.94 140.19 22.69C140.32 22.28 140.42 21.98 140.47 21.8H130.99C131.14 22.76 130.88 23.4 130.21 23.71C129.85 23.86 129.54 23.84 129.27 23.65L129.26 23.63ZM134.51 29.94C134.46 29.35 134.34 28.92 134.14 28.68C133.87 28.38 133.42 28.18 132.77 28.08V27.86C133.44 27.89 134.1 27.93 134.77 27.97C134.96 27.97 135.06 27.88 135.06 27.71V26.2H131.88C131.15 26.21 130.38 26.28 129.57 26.42L129.17 25.64C129.73 25.7 130.42 25.74 131.22 25.76H135.07C135.07 25.21 135.04 24.77 134.99 24.45L136.39 24.65C136.78 24.29 137.13 23.94 137.45 23.59H134.64C133.91 23.6 133.14 23.67 132.33 23.81L131.91 23.03C132.47 23.09 133.16 23.13 133.96 23.15H137.68L138.11 22.69C138.11 22.69 138.18 22.62 138.23 22.57C138.45 22.34 138.59 22.23 138.66 22.23C138.76 22.23 139.04 22.45 139.51 22.88C139.97 23.31 140.2 23.58 140.2 23.7C140.09 23.81 139.89 23.87 139.6 23.88C138.67 24.26 137.88 24.55 137.25 24.74C137.22 24.96 137.06 25.08 136.77 25.12V25.77H139.86L140.29 25.12C140.29 25.12 140.36 25.02 140.41 24.95C140.63 24.63 140.77 24.47 140.84 24.47C140.94 24.47 141.23 24.69 141.71 25.13C142.19 25.57 142.43 25.85 142.43 25.96C142.39 26.12 142.25 26.21 142.01 26.21H136.76V27.81C136.76 28.51 136.63 29 136.38 29.29C136.06 29.65 135.44 29.87 134.5 29.95L134.51 29.94ZM134.31 18.22C134.68 17.92 135.05 17.55 135.42 17.1C135.19 16.92 134.96 16.75 134.71 16.61C134.63 16.64 134.5 16.63 134.34 16.58C133.88 16.73 133.27 16.87 132.51 16.98L132.54 18.16H132.91L133.45 17.45C133.74 17.71 134.02 17.96 134.31 18.22ZM134.25 21.25L134.14 21.02C134.66 20.67 135.12 20.27 135.52 19.82C135.22 19.55 134.92 19.32 134.61 19.13L134.76 18.98C135.28 19.03 135.7 19.11 136.02 19.23C136.25 18.94 136.42 18.61 136.54 18.23C137.64 18.77 138.03 19.07 137.71 19.11L137.48 19.13C137.36 19.3 137.16 19.51 136.9 19.76C137.14 19.99 137.27 20.23 137.3 20.48C137.32 20.71 137.25 20.88 137.1 21C136.95 21.12 136.75 21.13 136.5 21.03C136.4 20.81 136.25 20.6 136.05 20.38C135.48 20.76 134.87 21.05 134.24 21.26L134.25 21.25Z" fill="white"/>
<path d="M147.56 29.99V29.61L153.93 23.24L147.56 16.87V16.49H147.94L154.31 22.86L160.68 16.49H161.06V16.87L154.69 23.24L161.06 29.61V29.99H160.68L154.31 23.62L147.94 29.99H147.56Z" fill="white"/>
<path d="M176.49 30.21C176.49 29.8 176.41 29.51 176.24 29.35C176.05 29.13 175.65 28.97 175.04 28.84V28.61C175.83 28.68 176.35 28.72 176.61 28.72C176.8 28.72 176.96 28.66 177.07 28.55C177.23 28.37 177.35 27.7 177.41 26.57C177.46 25.65 177.5 23.97 177.52 21.54H172.35C172.06 21.97 171.73 22.38 171.35 22.77L172.09 23.11H173.06C173.06 22.54 173.03 22.04 172.97 21.63C173.78 21.85 174.3 22.01 174.52 22.14C174.67 22.23 174.69 22.31 174.58 22.39L174.4 22.5V23.12H175.23L175.49 22.8C175.49 22.8 175.54 22.74 175.58 22.69C175.7 22.55 175.8 22.47 175.86 22.47C175.96 22.47 176.19 22.6 176.54 22.87C176.89 23.14 177.06 23.33 177.06 23.44C176.96 23.56 176.81 23.64 176.61 23.67V24.36C176.62 24.51 176.63 24.7 176.64 24.93C176.65 25.24 176.66 25.47 176.67 25.64C176.63 25.73 176.48 25.83 176.23 25.93C175.98 26.03 175.76 26.08 175.56 26.08H175.34V25.76H174.39V26.93L175.36 26.84C175.27 26.62 175.13 26.39 174.96 26.13L175.08 26.04C175.8 26.22 176.32 26.5 176.65 26.86C176.93 27.16 177.04 27.47 176.99 27.8C176.94 28.1 176.78 28.29 176.51 28.38C176.23 28.48 175.96 28.41 175.68 28.15C175.68 27.85 175.62 27.53 175.51 27.2C174.33 27.66 172.97 28.16 171.42 28.69C171.33 28.88 171.19 29 171.02 29.03L170.27 27.25C170.66 27.23 171.59 27.16 173.05 27.05V25.77H172.02V25.99C172.02 26.05 171.91 26.13 171.68 26.24C171.42 26.35 171.17 26.41 170.93 26.41C170.76 26.41 170.67 26.31 170.67 26.1C170.71 25.65 170.74 25.07 170.76 24.38V23.35C170.49 23.59 170.18 23.82 169.82 24.04C169.84 26.56 169.56 28.29 168.97 29.21C168.65 29.7 168.03 29.95 167.11 29.95C167.11 29.34 167.03 28.93 166.86 28.7C166.63 28.47 166.34 28.31 165.97 28.21V27.99C166.43 28.02 166.89 28.05 167.34 28.08C167.53 28.08 167.68 28.01 167.77 27.88C168.1 27.36 168.26 26.01 168.26 23.83V23.37C167.42 24.27 166.42 25.02 165.26 25.6L165.12 25.46C165.77 24.83 166.35 24.1 166.86 23.26C167.37 22.44 167.77 21.6 168.04 20.74C167.98 20.33 167.9 19.96 167.79 19.62C167.12 20.31 166.43 20.87 165.71 21.31L165.56 21.14C166.19 20.42 166.79 19.52 167.38 18.45C167.02 17.64 166.54 16.91 165.93 16.25L166.1 16.1C166.75 16.51 167.33 17 167.84 17.58C168.18 16.89 168.41 16.19 168.53 15.46L170.53 16.61C170.53 16.29 170.51 16.01 170.48 15.75L172.02 16.46H177.08L177.37 16.04C177.37 16.04 177.44 15.96 177.49 15.89C177.62 15.72 177.72 15.63 177.78 15.63C177.88 15.63 178.13 15.8 178.53 16.14C178.92 16.48 179.12 16.7 179.12 16.82C179.05 16.94 178.89 17.03 178.66 17.08V17.97C178.66 18.1 178.66 18.28 178.68 18.51C178.7 19.02 178.72 19.41 178.74 19.66C178.7 19.75 178.53 19.85 178.24 19.96C177.95 20.07 177.69 20.12 177.46 20.12H177.2V19.67H171.92V19.89C171.92 19.89 171.9 19.94 171.86 19.97C172.55 20.16 172.97 20.32 173.14 20.43C173.26 20.52 173.24 20.6 173.06 20.66L172.78 20.77C172.7 20.93 172.63 21.06 172.56 21.14H177.31L177.69 20.69C177.69 20.69 177.76 20.61 177.81 20.55C177.99 20.34 178.12 20.24 178.18 20.24C178.28 20.24 178.54 20.43 178.96 20.81C179.38 21.19 179.59 21.44 179.59 21.55C179.47 21.69 179.27 21.79 178.99 21.83C178.97 24.63 178.92 26.52 178.84 27.49C178.75 28.63 178.55 29.37 178.24 29.71C178.05 29.93 177.79 30.07 177.47 30.16C177.22 30.22 176.88 30.25 176.44 30.25L176.49 30.21ZM169.83 23.5C170.43 22.53 170.91 21.43 171.25 20.22C171.08 20.27 170.91 20.3 170.74 20.3H170.56V16.75C170.45 16.84 170.28 16.87 170.07 16.83C169.67 17.47 169.21 18.08 168.69 18.68C169.38 19.89 169.76 21.5 169.84 23.51L169.83 23.5ZM171.95 19.21H172.93V16.87H171.95V19.21ZM172.03 25.32H173.06V23.52H172.03V25.32ZM174.15 19.21H175.06V16.87H174.15V19.21ZM174.4 25.32H175.35V23.52H174.4V25.32ZM176.28 19.21H177.23V16.87H176.28V19.21Z" fill="white"/>
<path d="M185.2 29.38L184.82 28.6C185.38 28.66 186.07 28.7 186.87 28.72H192.52C192.9 27.17 193.29 25.25 193.69 22.97C193.9 21.77 193.98 20.77 193.95 19.95L196.72 20.67C196.65 20.91 196.45 21.03 196.14 21.04C195.18 24.01 194.11 26.57 192.96 28.72H195.87L196.36 28.03C196.36 28.03 196.44 27.93 196.5 27.85C196.75 27.5 196.9 27.33 196.98 27.33C197.08 27.33 197.42 27.57 198 28.05C198.58 28.53 198.86 28.82 198.86 28.93C198.82 29.09 198.68 29.18 198.43 29.18H187.54C186.81 29.19 186.04 29.26 185.23 29.4L185.2 29.38ZM185.83 19.5L185.41 18.75C185.97 18.81 186.66 18.85 187.46 18.87H190.92V18.75C190.92 17.46 190.85 16.41 190.72 15.6C191.52 15.76 192.11 15.9 192.49 16C192.82 16.1 193.01 16.19 193.07 16.26C193.11 16.31 193.07 16.37 192.96 16.44L192.7 16.61V18.87H195.36L195.85 18.19C195.89 18.13 195.95 18.04 196.03 17.93C196.25 17.64 196.38 17.5 196.45 17.5C196.55 17.5 196.88 17.73 197.44 18.18C198 18.64 198.28 18.92 198.28 19.03C198.24 19.19 198.1 19.28 197.85 19.28H188.13C187.4 19.29 186.63 19.36 185.82 19.5H185.83ZM188.83 27.22C188.88 25.33 188.48 23.04 187.63 20.34L187.85 20.28C188.83 21.25 189.57 22.3 190.06 23.4C190.47 24.35 190.66 25.24 190.63 26.06C190.61 26.81 190.42 27.31 190.06 27.55C189.69 27.81 189.28 27.69 188.83 27.21V27.22Z" fill="white"/>
<path d="M204.16 29.97L204.04 29.79C205.09 28.86 205.87 27.62 206.38 26.08C206.08 25.43 205.84 24.66 205.64 23.76C205.28 24.55 205.03 25.07 204.9 25.31C205 25.46 204.99 25.59 204.85 25.68L203.99 24.65C204.61 24.2 205.1 23.78 205.47 23.39L205.56 22.71L206.14 22.89L205.74 23.46C205.98 24.19 206.25 24.83 206.57 25.38C206.85 24.4 207.05 23.19 207.17 21.75H206.31L205.99 22.44C205.56 22.57 205.05 22.53 204.47 22.3C205.2 20.68 205.86 19 206.47 17.27H205.76C205.36 17.28 204.95 17.35 204.53 17.49L204.13 16.71C204.57 16.77 205.1 16.81 205.73 16.83H206.47L206.81 16.4C206.81 16.4 206.88 16.32 206.93 16.26C207.08 16.07 207.19 15.97 207.25 15.97C207.35 15.97 207.63 16.17 208.09 16.56C208.55 16.95 208.77 17.21 208.77 17.32C208.65 17.45 208.42 17.55 208.09 17.6C207.75 18.49 207.22 19.73 206.49 21.31H207.04L207.41 20.86C207.41 20.86 207.47 20.79 207.52 20.74C207.7 20.51 207.83 20.4 207.9 20.4C208 20.4 208.27 20.59 208.7 20.98C209.13 21.37 209.35 21.62 209.35 21.73C209.28 21.85 209.1 21.94 208.81 21.99C208.57 23.83 208.15 25.34 207.53 26.54C208.16 27.1 208.99 27.49 210.02 27.71C210.88 27.88 212.09 27.97 213.65 27.97C215.85 27.97 217.33 27.96 218.08 27.94V28.12C217.78 28.19 217.55 28.37 217.37 28.64C217.22 28.9 217.13 29.2 217.11 29.56H213.56C211.89 29.56 210.58 29.41 209.64 29.11C208.55 28.76 207.7 28.16 207.07 27.29C206.35 28.38 205.38 29.26 204.15 29.94L204.16 29.97ZM212.01 27.72C211.72 27.72 211.58 27.62 211.58 27.41C211.6 27.24 211.62 27 211.64 26.7C211.65 26.57 211.66 26.46 211.66 26.38V25.7H210.63C210.05 25.71 209.43 25.78 208.78 25.92L208.38 25.14C208.94 25.2 209.63 25.24 210.43 25.26H211.66V23.64H210.83C210.34 23.65 209.84 23.72 209.32 23.86L208.94 23.09C209.45 23.15 210.07 23.19 210.79 23.21H211.67V21.64H210.89C210.43 21.65 209.96 21.72 209.47 21.86L209.07 21.08C209.56 21.14 210.15 21.18 210.82 21.2H211.67V19.63H210.58C209.94 19.64 209.27 19.71 208.55 19.85L208.17 19.07C208.73 19.13 209.42 19.17 210.22 19.19H211.68V17.65H210.88C210.45 17.66 209.99 17.73 209.5 17.87L209.1 17.1C209.59 17.16 210.18 17.2 210.85 17.22H211.68C211.68 16.49 211.64 15.9 211.57 15.44C212.63 15.68 213.29 15.86 213.55 15.99C213.74 16.09 213.76 16.2 213.6 16.3L213.34 16.48V17.22H214.57L214.91 16.8C214.91 16.8 214.96 16.74 215 16.69C215.17 16.47 215.3 16.37 215.37 16.37C215.47 16.37 215.75 16.55 216.19 16.91C216.64 17.27 216.86 17.5 216.86 17.62C216.76 17.76 216.57 17.87 216.31 17.93V19.19H216.39L216.7 18.61C216.7 18.61 216.75 18.53 216.78 18.46C216.94 18.17 217.06 18.03 217.13 18.03C217.22 18.03 217.44 18.23 217.79 18.63C218.14 19.03 218.31 19.29 218.31 19.4C218.28 19.56 218.15 19.65 217.93 19.65H216.31V20.36C216.31 20.47 216.31 20.62 216.33 20.79C216.35 21.2 216.37 21.5 216.39 21.7C216.34 21.8 216.15 21.91 215.84 22.02C215.52 22.13 215.24 22.19 214.99 22.19H214.71V21.67H213.34V23.24H214.85L215.23 22.67C215.27 22.62 215.32 22.55 215.38 22.45C215.55 22.21 215.67 22.1 215.73 22.1C215.83 22.1 216.1 22.29 216.54 22.68C216.98 23.06 217.19 23.31 217.19 23.43C217.16 23.59 217.03 23.68 216.79 23.68H213.33V25.3H215.01L215.46 24.68C215.46 24.68 215.53 24.6 215.58 24.53C215.8 24.22 215.94 24.07 216.01 24.07C216.11 24.07 216.41 24.28 216.9 24.7C217.39 25.12 217.64 25.39 217.64 25.5C217.6 25.66 217.46 25.75 217.22 25.75H213.33V26.27C213.34 26.38 213.35 26.52 213.35 26.69C213.37 26.93 213.39 27.1 213.4 27.21C213.37 27.33 213.21 27.46 212.92 27.58C212.63 27.7 212.34 27.76 212.03 27.76L212.01 27.72ZM213.32 19.18H214.69V17.64H213.32V19.18ZM213.32 21.2H214.69V19.63H213.32V21.2Z" fill="white"/>
<path d="M229.78 29.95C229.51 29.95 229.38 29.85 229.38 29.64C229.42 29.17 229.45 28.58 229.47 27.89V26.86C228.05 28.15 226.05 29.12 223.46 29.75L223.35 29.55C224.33 29.13 225.24 28.59 226.07 27.93C226.87 27.3 227.53 26.62 228.05 25.88H226.24C225.51 25.89 224.74 25.96 223.93 26.1L223.53 25.32C224.09 25.38 224.78 25.42 225.58 25.44H229.47V24.21C228.98 24.4 228.37 24.57 227.64 24.72L227.52 24.47C228.31 24.23 228.92 23.91 229.37 23.5C229.77 23.13 230.06 22.65 230.23 22.05H229.75C229.49 22.06 229.23 22.13 228.95 22.27L228.55 21.49C228.89 21.55 229.3 21.59 229.78 21.61H230.35C230.43 21.18 230.48 20.67 230.5 20.07H230.15C229.98 20.08 229.79 20.15 229.6 20.29L229.2 19.52C229.76 19.58 230.45 19.62 231.25 19.64H233.46L233.64 19.42C233.48 19.39 233.31 19.31 233.15 19.17C233.12 18.71 232.94 18.2 232.63 17.63H231.95C231.29 18.35 230.51 18.93 229.61 19.37L229.43 19.22C229.84 18.72 230.2 18.15 230.52 17.53C230.46 17.6 230.35 17.64 230.2 17.64H227.72C228.16 17.87 228.42 18.14 228.49 18.47C228.56 18.76 228.49 19 228.27 19.21C228.32 19.25 228.41 19.33 228.55 19.44C229 19.8 229.32 20.07 229.52 20.26C229.48 20.42 229.34 20.51 229.1 20.51H227.42V22.56C227.66 22.53 228.01 22.48 228.5 22.41C228.88 22.36 229.17 22.32 229.36 22.29L229.38 22.49C228.19 23.05 226.68 23.71 224.86 24.46C224.81 24.65 224.69 24.77 224.51 24.81L223.65 23.06C224.13 23.02 224.87 22.93 225.85 22.8V20.52H225.27C224.96 20.53 224.64 20.6 224.32 20.74L223.92 19.96C224.48 20.02 225.17 20.06 225.97 20.08H227.32L227.84 19.43C227.59 19.46 227.35 19.37 227.12 19.15C227.15 18.7 227.03 18.2 226.75 17.66H226.33C225.54 18.59 224.61 19.33 223.53 19.86L223.38 19.69C223.69 19.35 223.99 18.95 224.29 18.47C224.55 18.04 224.79 17.52 225.01 16.9C225.23 16.28 225.37 15.76 225.43 15.33C226.45 15.76 227.09 16.06 227.35 16.24C227.53 16.37 227.54 16.47 227.37 16.52L227.08 16.61C227.08 16.61 227.03 16.68 227 16.72C226.86 16.95 226.75 17.11 226.68 17.21H228.46L229.23 16.12C229.39 16.27 229.56 16.42 229.74 16.57C230.11 16.92 230.4 17.2 230.62 17.42C230.97 16.71 231.18 16.03 231.25 15.36C232.25 15.7 232.89 15.94 233.14 16.1C233.32 16.21 233.33 16.31 233.16 16.38L232.87 16.49C232.78 16.64 232.62 16.87 232.41 17.17C232.39 17.2 232.37 17.22 232.36 17.23H234.82L235.22 16.66C235.26 16.61 235.31 16.54 235.37 16.44C235.54 16.2 235.66 16.09 235.72 16.09C235.82 16.09 236.1 16.28 236.55 16.67C237 17.06 237.23 17.31 237.23 17.42C237.19 17.58 237.05 17.67 236.81 17.67H233.81C234.18 17.84 234.42 18.07 234.53 18.35C234.63 18.58 234.63 18.8 234.53 19.03C235.06 19.45 235.39 19.74 235.51 19.91C235.59 20.04 235.57 20.13 235.43 20.17L235.2 20.25V22.47C235.2 22.6 235.27 22.67 235.4 22.67H235.97C236.04 22.67 236.12 22.62 236.2 22.53C236.26 22.43 236.4 22.05 236.62 21.41C236.67 21.28 236.71 21.17 236.73 21.1H236.88L236.93 22.58C237.1 22.67 237.22 22.76 237.28 22.86C237.33 22.95 237.36 23.08 237.36 23.23C237.36 23.85 236.74 24.15 235.5 24.15H234.84C234.32 24.15 233.98 24.05 233.82 23.86C233.69 23.7 233.62 23.35 233.62 22.83V22.08C233.56 22.1 233.5 22.11 233.45 22.11H231.73C231.41 22.97 230.82 23.62 229.95 24.06C230.76 24.23 231.27 24.38 231.47 24.49C231.61 24.58 231.61 24.68 231.45 24.78L231.2 24.95V25.49H234.63L235.03 24.94C235.03 24.94 235.09 24.86 235.14 24.8C235.35 24.52 235.48 24.38 235.56 24.38C235.66 24.38 235.95 24.57 236.41 24.95C236.88 25.33 237.11 25.58 237.11 25.69C237.08 25.85 236.94 25.94 236.69 25.94H231.66C232.31 26.44 233.17 26.87 234.26 27.22C235.24 27.55 236.28 27.77 237.35 27.9L237.32 28.07C236.98 28.16 236.69 28.36 236.46 28.65C236.23 28.94 236.07 29.32 235.98 29.76C233.8 29.02 232.2 27.76 231.2 25.98V27.2C231.22 28.17 231.25 28.95 231.29 29.52C231.24 29.62 231.06 29.73 230.75 29.84C230.42 29.95 230.1 30.01 229.78 30.01V29.95ZM231.86 21.61H232.09L232.71 20.7C233.02 21 233.32 21.29 233.62 21.59V20.07H232.11C232.04 20.76 231.96 21.27 231.86 21.61Z" fill="white"/>
<path d="M34.34 42.9H32.73V52.2H34.34V42.9Z" fill="white"/>
<path d="M37.59 45.12L44.14 52.85V42.9H43.07V49.19L37.79 42.9H36.45V52.2H37.59V45.12Z" fill="white"/>
<path d="M53.32 50.89C53.74 50.42 54.07 49.93 54.32 49.39C54.51 48.88 54.62 48.32 54.67 47.69C54.62 46.19 54.07 44.99 53.01 44.11C51.93 43.3 50.43 42.89 48.53 42.89H46.24V52.19H49.63C50.37 52.15 51.05 52.02 51.66 51.81C52.27 51.6 52.82 51.29 53.32 50.88V50.89ZM52.93 47.51C52.89 48.66 52.55 49.58 51.93 50.21C51.26 50.86 50.28 51.2 49.01 51.24H47.86V43.86H48.74C50.11 43.86 51.16 44.17 51.86 44.77C52.53 45.41 52.88 46.34 52.93 47.51Z" fill="white"/>
<path d="M62.87 51.24H58.35V47.91H62.54V46.95H58.35V43.86H62.74V42.9H56.74V52.2H62.87V51.24Z" fill="white"/>
<path d="M70.79 43.56C70.12 43.13 69.16 42.9 67.95 42.9H64.98V52.2H66.59V48.09H68.29C69.42 48.05 70.29 47.8 70.87 47.36C71.47 46.9 71.8 46.28 71.85 45.47C71.8 44.65 71.44 44.01 70.78 43.55L70.79 43.56ZM66.59 43.86H67.48C68.36 43.82 69.03 43.95 69.49 44.25C69.91 44.49 70.13 44.9 70.17 45.47C70.13 46 69.93 46.37 69.54 46.63C69.14 46.92 68.51 47.07 67.67 47.07H66.59V43.86Z" fill="white"/>
<path d="M80.06 51.24H75.54V47.91H79.73V46.95H75.54V43.86H79.93V42.9H73.93V52.2H80.06V51.24Z" fill="white"/>
<path d="M88.79 49.19L83.51 42.9H82.17V52.2H83.31V45.12L89.86 52.85V42.9H88.79V49.19Z" fill="white"/>
<path d="M95.35 52.2C96.09 52.16 96.77 52.03 97.38 51.82C97.99 51.61 98.54 51.3 99.04 50.89C99.46 50.42 99.79 49.93 100.04 49.39C100.23 48.88 100.34 48.32 100.39 47.7C100.34 46.2 99.79 45 98.73 44.12C97.65 43.31 96.15 42.9 94.25 42.9H91.96V52.2H95.35ZM98.65 47.51C98.61 48.67 98.27 49.58 97.65 50.21C96.98 50.86 96 51.2 94.73 51.24H93.58V43.86H94.46C95.83 43.86 96.88 44.17 97.58 44.77C98.25 45.41 98.6 46.34 98.65 47.51Z" fill="white"/>
<path d="M108.6 51.24H104.08V47.91H108.26V46.95H104.08V43.86H108.46V42.9H102.46V52.2H108.6V51.24Z" fill="white"/>
<path d="M117.32 49.19L112.04 42.9H110.7V52.2H111.84V45.12L118.39 52.85V42.9H117.32V49.19Z" fill="white"/>
<path d="M122.86 52.2H124.47V43.86H126.83V42.9H120.5V43.86H122.86V52.2Z" fill="white"/>
<path d="M132.76 52.72H133.94L135.15 50.02H138.65L139.86 52.72H141.52L137.06 42.85L132.74 52.72H132.76ZM135.59 49.06L136.94 45.95L138.23 49.06H135.59Z" fill="white"/>
<path d="M149.57 47.87C150.12 47.41 150.43 46.83 150.48 46.12C150.43 45.27 150.08 44.58 149.42 44.07C148.75 43.64 147.81 43.41 146.64 43.41H143.47V52.71H145.08V47.92L148.73 52.71H150.76L147.43 48.53C148.34 48.47 149.06 48.25 149.57 47.87ZM145.08 44.37H146.43C147.22 44.37 147.83 44.52 148.23 44.81C148.61 45.09 148.8 45.5 148.8 46.05C148.76 46.52 148.59 46.88 148.3 47.14C147.94 47.4 147.44 47.55 146.83 47.58H145.07V44.37H145.08Z" fill="white"/>
<path d="M160.37 50.24C160.08 50.81 159.7 51.25 159.25 51.55C158.8 51.85 158.27 52.02 157.72 52.06C156.66 52.02 155.84 51.65 155.22 50.93C154.59 50.16 154.27 49.15 154.27 47.91C154.27 46.67 154.59 45.73 155.22 45.07C155.8 44.39 156.62 44.06 157.72 44.06C158.3 44.06 158.82 44.19 159.26 44.45C159.67 44.71 160.02 45.13 160.31 45.7L160.42 45.92L161.47 45.44L161.3 45.18C160.87 44.53 160.34 44.03 159.71 43.68C159.09 43.38 158.35 43.22 157.5 43.22C156.75 43.22 156.08 43.33 155.52 43.54C154.9 43.76 154.36 44.11 153.95 44.58C153.47 45.02 153.13 45.53 152.94 46.08C152.7 46.64 152.58 47.28 152.58 47.96C152.58 48.69 152.7 49.36 152.94 49.96C153.18 50.57 153.54 51.11 154.01 51.58C154.44 52.01 154.97 52.35 155.6 52.56C156.21 52.77 156.9 52.88 157.64 52.88C158.45 52.88 159.17 52.7 159.78 52.36C160.41 52.06 160.94 51.57 161.37 50.92L161.5 50.72L160.52 49.94L160.37 50.23V50.24Z" fill="white"/>
<path d="M169.77 47.46H165.1V43.41H163.49V52.72H165.1V48.48H169.77V52.72H171.38V43.41H169.77V47.46Z" fill="white"/>
<path d="M175.06 43.41H173.45V52.71H175.06V43.41Z" fill="white"/>
<path d="M177.17 44.37H179.53V52.72H181.14V44.37H183.5V43.41H177.17V44.37Z" fill="white"/>
<path d="M187.22 48.42H191.4V47.46H187.22V44.37H191.61V43.41H185.61V52.72H191.74V51.76H187.22V48.42Z" fill="white"/>
<path d="M201.64 50.24C201.35 50.81 200.97 51.25 200.52 51.55C200.07 51.85 199.54 52.02 198.99 52.06C197.93 52.02 197.11 51.65 196.49 50.93C195.86 50.16 195.54 49.15 195.54 47.91C195.54 46.67 195.86 45.73 196.49 45.07C197.07 44.39 197.89 44.06 198.99 44.06C199.57 44.06 200.09 44.19 200.53 44.45C200.94 44.71 201.29 45.13 201.58 45.7L201.69 45.92L202.74 45.44L202.57 45.18C202.14 44.53 201.61 44.03 200.98 43.68C200.36 43.38 199.62 43.22 198.77 43.22C198.02 43.22 197.35 43.33 196.79 43.54C196.17 43.76 195.63 44.11 195.21 44.58C194.73 45.02 194.39 45.53 194.2 46.08C193.96 46.64 193.84 47.28 193.84 47.96C193.84 48.69 193.96 49.36 194.2 49.96C194.44 50.57 194.8 51.11 195.27 51.58C195.7 52.01 196.23 52.35 196.86 52.56C197.47 52.77 198.16 52.88 198.9 52.88C199.71 52.88 200.43 52.7 201.04 52.36C201.66 52.06 202.2 51.57 202.63 50.92L202.76 50.72L201.78 49.94L201.63 50.23L201.64 50.24Z" fill="white"/>
<path d="M204.76 44.37H207.12V52.72H208.73V44.37H211.09V43.41H204.76V44.37Z" fill="white"/>
<path d="M219.07 49.57C219.07 50.4 218.89 51.02 218.52 51.43C218.21 51.82 217.73 52.01 217.06 52.01C216.63 51.97 216.24 51.89 215.94 51.79C215.66 51.64 215.41 51.46 215.21 51.24C214.97 50.95 214.83 50.67 214.8 50.39C214.76 50.09 214.76 49.74 214.8 49.32V43.41H213.19V49.24C213.14 49.8 213.17 50.3 213.26 50.73C213.36 51.19 213.62 51.61 214 51.96C214.35 52.32 214.78 52.57 215.27 52.71C215.74 52.84 216.33 52.9 217.03 52.9C217.99 52.86 218.76 52.56 219.3 52.03C219.84 51.49 220.14 50.75 220.19 49.82V43.42H219.05V49.57H219.07Z" fill="white"/>
<path d="M228.38 47.87C228.93 47.41 229.24 46.83 229.29 46.12C229.24 45.27 228.89 44.58 228.23 44.07C227.56 43.64 226.62 43.41 225.45 43.41H222.28V52.71H223.89V47.92L227.54 52.71H229.57L226.24 48.53C227.15 48.47 227.87 48.25 228.38 47.87ZM223.89 44.37H225.24C226.03 44.37 226.64 44.52 227.04 44.81C227.42 45.09 227.61 45.5 227.61 46.05C227.57 46.52 227.4 46.88 227.11 47.14C226.75 47.4 226.25 47.55 225.64 47.58H223.88V44.37H223.89Z" fill="white"/>
<path d="M233.01 51.76V48.42H237.19V47.46H233.01V44.37H237.4V43.41H231.4V52.72H237.53V51.76H233.01Z" fill="white"/>
<path d="M42.09 0C42.09 0 30.7 23.15 29.49 25.4C28.27 27.66 26.36 29.75 24.54 29.75C22.72 29.75 30.62 29.75 32.62 29.75C34.62 29.75 37.4 28.62 39.66 24.1C41.92 19.58 46.87 10.02 46.87 10.02L42.09 0Z" fill="white"/>
<path d="M13.15 59.5C13.15 59.5 24.54 36.35 25.75 34.1C26.97 31.84 28.88 29.75 30.7 29.75C32.52 29.75 24.62 29.75 22.62 29.75C20.62 29.75 17.84 30.88 15.58 35.4C13.32 39.92 8.37 49.48 8.37 49.48L13.15 59.5Z" fill="white"/>
<path d="M24.35 0C24.35 0 12.96 23.15 11.75 25.4C10.53 27.66 8.62 29.75 6.8 29.75C4.98 29.75 12.88 29.75 14.88 29.75C16.88 29.75 19.66 28.62 21.92 24.1C24.18 19.58 29.13 10.02 29.13 10.02L24.35 0Z" fill="white"/>
<path d="M4.39 41.29C6.17 37.71 7.61 34.82 8 34.09C9.22 31.83 11.13 29.74 12.95 29.74H4.88C3.49 29.74 1.72 30.29 -3.8147e-06 32.15L4.39 41.28V41.29Z" fill="white"/>
<path d="M50.84 17.86C48.98 21.6 47.46 24.66 47.05 25.41C45.83 27.67 43.92 29.76 42.1 29.76H50.18C51.65 29.76 53.53 29.15 55.33 27.04L50.84 17.87V17.86Z" fill="white"/>
</svg>
