<svg width="432" height="152" viewBox="0 0 432 152" fill="none" xmlns="http://www.w3.org/2000/svg">
<path d="M0.959996 66.96L0.329996 65.98C19.96 56.77 32.06 40.09 36.64 15.93H22.83C17.97 27.05 11.19 35.49 2.5 41.24L1.73 40.61C7.34 34.21 11.92 26.15 15.47 16.43C16.26 14.19 16.99 11.55 17.64 8.50999C18.29 5.37999 18.64 2.87999 18.69 1.00999C23.5 2.36999 26.52 3.38999 27.73 4.08999C28.62 4.55999 28.64 4.95999 27.8 5.27999L26.47 5.83999C25.77 8.17999 24.81 10.86 23.6 13.9H36.22L37.97 11.87C38.11 11.73 38.32 11.5 38.6 11.17C39.44 10.24 40 9.76999 40.28 9.76999C40.7 9.76999 41.88 10.73 43.82 12.64C45.76 14.56 46.73 15.77 46.73 16.29C46.35 16.85 45.37 17.23 43.79 17.41C43.28 19.79 42.43 22.97 41.27 26.94C42.3 34.18 44.49 40.33 47.86 45.38C51.74 51.27 57.32 55.97 64.61 59.47L64.54 60.31C61.22 60.87 59.24 63.04 58.58 66.83C48.3 59.96 42.18 47.6 40.21 29.75C36.94 38.68 32.4 46.08 26.61 51.97C19.97 58.65 11.42 63.65 0.949996 66.97L0.959996 66.96Z" fill="#90B295"/>
<path d="M72.53 37.17L70.71 33.66C73.28 33.94 76.39 34.13 80.03 34.22H99.03V26.58H89.57C86.25 26.63 82.75 26.95 79.05 27.56L77.23 24.05C79.8 24.33 82.91 24.52 86.55 24.61H99.03V20.19L98.26 19.56C98.35 19.42 98.48 19.23 98.65 19C98.81 18.77 98.94 18.6 99.04 18.51V17.88L99.46 17.95C100.02 17.02 100.58 16.03 101.14 15.01C102.21 12.91 103.17 10.52 104.01 7.85999C104.85 5.19999 105.36 2.90999 105.55 0.98999C109.8 2.57999 112.44 3.71999 113.47 4.41999C114.26 4.97999 114.24 5.37999 113.4 5.60999L112.07 6.02999C111.6 6.96999 110.81 8.26999 109.69 9.95999H123.29L124.9 7.64999C125.04 7.50999 125.2 7.27999 125.39 6.94999C126.18 5.87999 126.72 5.33999 127 5.33999C127.47 5.33999 128.64 6.13999 130.5 7.71999C132.37 9.30999 133.3 10.36 133.3 10.87C133.11 11.62 132.51 11.99 131.48 11.99H116.2C118.91 13.39 120.5 15.1 120.97 17.11C121.39 18.89 120.96 20.23 119.67 21.14C118.38 22.05 116.99 21.88 115.5 20.61C115.31 17.9 114.19 15.03 112.14 11.99H108.21C106.2 14.47 104.12 16.52 101.97 18.16C104.35 18.91 105.83 19.52 106.39 19.98C106.81 20.35 106.74 20.73 106.18 21.1L105.27 21.73V24.6H118.73L120.27 22.29C120.41 22.15 120.57 21.92 120.76 21.59C121.55 20.52 122.09 19.98 122.37 19.98C122.84 19.98 123.99 20.78 125.84 22.36C127.69 23.95 128.61 25 128.61 25.51C128.42 26.21 127.81 26.56 126.79 26.56H105.27V34.2H123.57L125.18 31.89C125.32 31.75 125.48 31.52 125.67 31.19C126.46 30.12 127 29.58 127.28 29.58C127.75 29.58 128.89 30.38 130.72 31.96C132.54 33.55 133.45 34.6 133.45 35.11C133.26 35.81 132.65 36.16 131.63 36.16H83.05C79.73 36.21 76.23 36.53 72.53 37.14V37.17ZM91.56 21.22C90.27 22.09 88.95 21.86 87.6 20.55C87.65 17.75 86.76 14.9 84.94 12H83.19C79.87 16.49 76.06 19.92 71.76 22.3L70.99 21.6C72.67 19.68 74.17 17.58 75.48 15.29C76.65 13.33 77.72 10.94 78.7 8.13999C79.68 5.33999 80.27 2.97999 80.45 1.05999C84.61 2.64999 87.2 3.78999 88.23 4.48999C88.98 5.04999 88.95 5.44999 88.16 5.67999L86.83 6.02999C86.41 6.96999 85.68 8.26999 84.66 9.95999H93.84L95.31 7.78999C95.4 7.64999 95.57 7.43999 95.8 7.15999C96.5 6.12999 96.99 5.61999 97.27 5.61999C97.74 5.61999 98.78 6.36999 100.39 7.85999C102 9.35999 102.81 10.36 102.81 10.87C102.67 11.62 102.11 11.99 101.13 11.99H88.16C90.82 13.44 92.39 15.19 92.86 17.25C93.28 19.03 92.85 20.35 91.56 21.21V21.22ZM108.07 66.89C107.74 64.69 107.11 63.17 106.18 62.33C104.92 61.21 102.6 60.39 99.24 59.88V58.9C102.7 59.09 106.16 59.27 109.61 59.46C110.68 59.46 111.22 58.99 111.22 58.06V46.14H85.07C81.75 46.19 78.25 46.51 74.55 47.12L72.73 43.61C75.3 43.89 78.41 44.08 82.05 44.17H111.21C111.21 40.99 111.05 38.35 110.72 36.25C114.88 37.28 117.5 38.07 118.57 38.63C119.32 39.05 119.34 39.5 118.64 39.96L117.52 40.66V44.17H122.29L123.9 41.86C123.99 41.72 124.13 41.51 124.32 41.23C125.11 40.06 125.67 39.48 126 39.48C126.47 39.48 127.61 40.29 129.43 41.9C131.25 43.51 132.16 44.58 132.16 45.09C132.02 45.79 131.43 46.14 130.41 46.14H117.51V58.48C117.51 61.19 117 63.11 115.97 64.23C114.61 65.63 111.97 66.52 108.05 66.89H108.07ZM92.23 59.67C91.9 57.66 91.01 55.49 89.57 53.15C88.21 51 86.7 49.18 85.01 47.68L85.71 47.19C89.73 48.03 92.81 49.39 94.96 51.26C96.78 52.85 97.74 54.58 97.83 56.45C97.97 58.18 97.46 59.42 96.29 60.17C95.07 60.96 93.72 60.8 92.22 59.68L92.23 59.67Z" fill="#90B295"/>
<path d="M165.41 66.68C164.99 64.3 164.24 62.68 163.17 61.84C161.77 60.72 159.1 59.88 155.18 59.32V58.27C159.25 58.5 163.29 58.74 167.31 58.97C168.52 58.97 169.13 58.46 169.13 57.43V36.26C169.13 30.37 168.83 25.58 168.22 21.89L175.09 22.87C179.81 19.18 184.41 14.86 188.9 9.89999H157.64C154.32 9.94999 150.82 10.27 147.13 10.88L145.31 7.3C147.88 7.58 150.99 7.77 154.63 7.86H189.89L191.78 5.9C191.92 5.76 192.13 5.55 192.41 5.27C193.3 4.34 193.88 3.87 194.16 3.87C194.63 3.87 195.84 4.79 197.81 6.64C199.77 8.49 200.75 9.67 200.75 10.18C200.33 10.6 199.32 10.88 197.74 11.02C190.96 15.83 184.26 19.85 177.62 23.08L178.18 23.15C178.04 24.18 177.24 24.79 175.8 24.97V57.85C175.8 60.65 175.22 62.66 174.05 63.88C172.55 65.38 169.68 66.31 165.43 66.68H165.41Z" fill="#90B295"/>
<path d="M0.889997 151.01L0.259996 150.17C4.84 147.04 9.33 142.97 13.72 137.97C17.09 134.04 19.44 130.24 20.8 126.54L25.57 129.55C29.12 131.14 30.08 132.07 28.44 132.35L27.18 132.56C24.24 136.07 20.52 139.43 16.03 142.65C11.08 146.2 6.03 148.98 0.889997 150.99V151.01ZM11.33 127.53C10.82 127.53 10.41 127.39 10.1 127.11C9.8 126.83 9.64 126.5 9.64 126.13C9.97 121.69 10.18 116.78 10.27 111.41V103.35C10.27 97.46 9.97 92.67 9.36 88.98L17.42 92.41H47.21L48.68 90.52C48.82 90.38 49.03 90.15 49.31 89.82C49.96 89.03 50.43 88.63 50.71 88.63C51.18 88.63 52.4 89.43 54.39 91.01C56.38 92.6 57.37 93.65 57.37 94.16C56.81 94.81 55.87 95.31 54.57 95.63V107.76C54.66 113.56 54.85 119.05 55.13 124.23C54.8 124.7 53.98 125.19 52.68 125.7C51.28 126.26 50.04 126.54 48.96 126.54C48.07 126.54 47.63 126.07 47.63 125.14C47.68 124.91 47.72 124.6 47.77 124.23C47.82 123.95 47.86 123.72 47.91 123.53V121.99H16.93V125.21C16.93 125.63 16.35 126.1 15.18 126.61C13.92 127.22 12.63 127.52 11.32 127.52L11.33 127.53ZM16.94 120.03H47.92V94.44H16.94V120.03ZM60.47 149.3C59.39 150.58 57.88 150.69 55.91 149.62C54.51 146.3 52.01 142.61 48.41 138.54C45.19 134.94 41.75 131.76 38.11 129.01L38.81 128.38C45.21 130.34 50.4 132.84 54.37 135.88C57.59 138.4 59.72 141.04 60.75 143.8C61.64 146.18 61.54 148.02 60.47 149.3Z" fill="#90B295"/>
<path d="M119.43 151.08C119.43 149.44 119.08 148.25 118.38 147.5C118.33 147.36 118.19 147.22 117.96 147.08C117.68 147.69 117.21 148.06 116.56 148.2C115.86 148.34 115.13 148.18 114.39 147.71C113.97 146.68 113.24 145.63 112.22 144.56C106.43 145.77 98.92 147.13 89.72 148.63C89.44 149.28 88.88 149.75 88.04 150.03L85.03 143.58C86.9 143.63 91.22 143.58 98 143.44C99.03 143.39 99.82 143.37 100.38 143.37V139.86H94.49V140.35C94.49 140.58 94.02 140.91 93.09 141.33C92.01 141.8 91.01 142.03 90.08 142.03H89.38V132.29C86.11 134.86 82.86 136.82 79.64 138.18L79.43 137.9C77.56 142.9 74.87 147.22 71.37 150.87L70.46 150.24C73.26 144.59 75.18 137.69 76.21 129.56C76.91 124 77.26 116.78 77.26 107.9V97.38C77.26 93.13 77.05 89.53 76.63 86.58L84.55 89.8H121.28L122.61 88.12C122.7 87.98 122.84 87.79 123.03 87.56C123.68 86.77 124.15 86.37 124.43 86.37C124.9 86.37 126.1 87.1 128.04 88.54C129.98 89.99 130.95 90.97 130.95 91.48C130.44 92.18 129.5 92.67 128.15 92.95V99.68C128.15 99.91 127.61 100.24 126.54 100.66C125.37 101.13 124.32 101.39 123.39 101.43C124.6 102.37 125.77 103.39 126.89 104.51C126.75 105.26 126.19 105.63 125.21 105.63H121.07C118.73 105.68 116.3 106 113.78 106.61L111.96 103.03C113.5 103.31 115.37 103.5 117.57 103.59H120.16L121.91 101.42H121.84V100.09H83.42V107.87C83.42 113.57 83.23 118.24 82.86 121.89C82.35 127.45 81.32 132.41 79.78 136.75C84.03 133.29 87.49 129.2 90.15 124.48C89.12 124.9 88.12 125.11 87.14 125.11H86.3V118.24C86.3 115.44 86.16 113.03 85.88 111.02L92.47 113.96H120.65L121.91 112.28C122.05 112.14 122.21 111.93 122.4 111.65C122.96 110.9 123.38 110.53 123.66 110.53C124.13 110.53 125.18 111.24 126.81 112.67C128.45 114.1 129.26 115.07 129.26 115.58C128.74 116.19 128.02 116.56 127.09 116.7V122.66C127.09 122.8 126.74 123.03 126.04 123.36C128.7 125.46 130.32 126.91 130.88 127.71C131.3 128.32 131.16 128.74 130.46 128.97L129.2 129.39C128.92 135.65 128.52 140.16 128.01 142.92C127.4 146.14 126.47 148.29 125.21 149.37C123.81 150.49 121.89 151.05 119.46 151.05L119.43 151.08ZM83.4 98.08H121.82V91.77H83.4V98.08ZM88.31 111.61L86.49 108.18C88.13 108.46 90.09 108.65 92.38 108.74H95.11L96.16 107.34C96.25 107.25 96.37 107.11 96.51 106.92C97.02 106.22 97.42 105.87 97.7 105.87C98.17 105.87 99 106.36 100.19 107.34C101.38 108.32 101.98 109.07 101.98 109.58C101.79 110.28 101.23 110.63 100.3 110.63H96.02C93.54 110.68 90.97 111 88.31 111.61ZM88.45 106.63L86.63 103.05C88.22 103.33 90.13 103.52 92.38 103.61H95.04L96.09 102.21C96.14 102.12 96.23 102 96.37 101.86C96.88 101.16 97.3 100.81 97.63 100.81C98.1 100.81 98.9 101.3 100.05 102.28C101.19 103.26 101.77 104.01 101.77 104.52C101.58 105.27 101.02 105.64 100.09 105.64H91.82C90.79 105.69 89.67 106.01 88.46 106.62L88.45 106.63ZM119.85 144.69C120.36 144.69 120.81 144.53 121.18 144.2C122.16 142.85 122.82 137.61 123.14 128.5H93.56C93.05 129.01 92.23 129.79 91.11 130.81L94.76 132.49H100.37C100.37 131.04 100.3 129.69 100.16 128.42C103.52 128.75 105.67 129.12 106.61 129.54C107.26 129.82 107.31 130.12 106.75 130.45L105.91 130.94V132.48H111.94L113.06 131.01C113.15 130.92 113.29 130.75 113.48 130.52C113.99 129.82 114.39 129.47 114.67 129.47C115.14 129.47 116.06 130.08 117.44 131.29C118.82 132.51 119.51 133.37 119.51 133.88C119.23 134.25 118.64 134.56 117.76 134.79V139.84C117.71 140.07 117.18 140.38 116.15 140.75C115.03 141.12 114.07 141.31 113.28 141.31H112.93C115.5 142.01 117.16 143.11 117.91 144.6C118.47 144.65 119.12 144.67 119.87 144.67L119.85 144.69ZM91.95 121.21H98.12V116.02H91.95V121.21ZM94.47 137.82H100.36V134.53H94.47V137.82ZM95.45 126.46H122.51L125.17 123.73C124 124.15 122.97 124.36 122.09 124.36H121.18V123.24H99.17L99.8 123.38C99.57 124.18 98.61 124.6 96.93 124.64C96.88 124.69 96.81 124.78 96.72 124.92C96.21 125.57 95.78 126.09 95.46 126.46H95.45ZM104.77 112.23C103.83 112.23 103.37 111.76 103.37 110.83C103.42 110.5 103.46 110.06 103.51 109.5C103.56 109.08 103.6 108.71 103.65 108.38V106.42C103.65 103.76 103.53 101.68 103.3 100.18C107.13 101.21 109.54 102 110.52 102.56C111.27 102.98 111.34 103.38 110.73 103.75L109.82 104.31V105.5C109.87 106.11 109.91 106.83 109.96 107.67C110.01 108.89 110.05 109.77 110.1 110.33C109.96 110.75 109.32 111.17 108.17 111.59C107.02 112.01 105.89 112.22 104.77 112.22V112.23ZM103.3 121.2H109.61V116.01H103.3V121.2ZM105.89 137.81H112.41V134.52H105.89V137.81ZM105.89 143.21L110.66 143.07C109.91 142.42 109.12 141.83 108.28 141.32L108.91 140.62C110.08 140.76 111.25 140.95 112.41 141.18V139.85H105.89V143.21ZM113.6 111.59L111.78 108.16C113.42 108.44 115.38 108.63 117.67 108.72H120.47L121.52 107.25C121.61 107.16 121.73 107.02 121.87 106.83C122.38 106.13 122.78 105.78 123.06 105.78C123.53 105.78 124.36 106.28 125.55 107.29C126.74 108.3 127.34 109.05 127.34 109.57C127.2 110.27 126.64 110.62 125.66 110.62H117.11C115.94 110.67 114.77 110.99 113.61 111.6L113.6 111.59ZM114.72 121.19H121.17V116H114.72V121.19Z" fill="#90B295"/>
<path d="M141.23 150.8L140.18 149.82C144.39 143.75 147.17 136.27 148.52 127.39C149.31 122.06 149.73 113.91 149.78 102.93V101.88H147.05C145.6 101.93 144.06 102.25 142.42 102.86L140.67 99.35C143.01 99.63 145.86 99.82 149.22 99.91H153.22C153.22 94.3 152.94 89.65 152.38 85.96C156.77 86.94 159.53 87.71 160.65 88.27C161.44 88.69 161.51 89.14 160.86 89.6L159.81 90.3V99.9H163.6L165.35 97.24C165.44 97.1 165.61 96.87 165.84 96.54C166.68 95.23 167.27 94.58 167.59 94.58C168.06 94.58 169.26 95.48 171.2 97.28C173.14 99.08 174.11 100.24 174.11 100.75C173.92 101.5 173.32 101.87 172.29 101.87H156.17C156.08 105.61 155.94 109.25 155.75 112.81H162.2L165.42 109.3L169.28 112.59C172.32 108.48 175.03 103.85 177.41 98.71C179.61 93.85 180.7 89.39 180.7 85.32C185.33 86.35 188.25 87.17 189.46 87.77C190.3 88.19 190.35 88.54 189.6 88.82L188.41 89.31C189.86 93.42 192.2 97.3 195.42 100.95C198.36 104.27 201.61 107 205.16 109.15L205.02 110.06C203.71 110.43 202.61 111.18 201.73 112.3C200.93 113.33 200.4 114.57 200.12 116.02C197.13 113.03 194.51 109.26 192.27 104.7C190.03 100.14 188.41 95.3 187.43 90.15C185.89 94.64 183.6 99.01 180.56 103.26C177.66 107.28 174.37 110.81 170.68 113.85L171.59 114.62C171.12 115.18 170.19 115.58 168.79 115.81C168.56 125.95 168.09 133.36 167.39 138.03C166.69 142.8 165.57 145.95 164.03 147.49C162.3 149.36 159.82 150.25 156.6 150.15C156.6 148.05 156.25 146.57 155.55 145.73C154.8 144.84 153.14 144.12 150.57 143.56L150.64 142.51C153.44 142.79 155.71 142.93 157.44 142.93C158.42 142.93 159.17 142.7 159.68 142.23C160.57 141.39 161.27 138.7 161.78 134.17C162.2 129.92 162.53 123.47 162.76 114.82H155.68C155.12 122.53 153.9 129 152.03 134.24C149.69 140.78 146.09 146.3 141.23 150.78V150.8ZM178.1 150.38L175.72 146.87L173.34 143.36C179.37 141.21 189.44 136.86 203.55 130.32L203.9 131.23C196.38 136.98 188.2 142.7 179.37 148.4C179.23 149.29 178.81 149.94 178.11 150.36L178.1 150.38ZM190.65 125.56C189.57 126.45 188.24 126.43 186.65 125.49C186.09 123.34 184.87 121.03 183 118.55C181.32 116.26 179.47 114.34 177.46 112.8L178.09 112.17C182.39 112.97 185.78 114.32 188.25 116.24C190.26 117.83 191.45 119.6 191.83 121.57C192.11 123.35 191.71 124.68 190.64 125.57L190.65 125.56Z" fill="#90B295"/>
<path d="M268.11 151.08C254.56 144.21 246.49 132.43 243.93 115.75H243.65C242.53 124.12 239.82 130.87 235.52 136.01C230.52 142.09 222.62 147.02 211.83 150.8L211.2 149.75C219.8 145.5 226.13 140.43 230.2 134.54C233.66 129.54 235.85 123.28 236.79 115.75H226.42C223.1 115.8 219.6 116.12 215.9 116.73L214.15 113.15C216.72 113.43 219.83 113.62 223.47 113.71H237C237.33 110.3 237.54 104.83 237.63 97.31V95.28H224.1C220.78 95.33 217.28 95.65 213.58 96.26L211.69 92.68C214.26 92.96 217.37 93.15 221.01 93.24H261.32L263.21 90.51C263.35 90.32 263.56 90.04 263.84 89.67C264.73 88.41 265.31 87.78 265.59 87.78C266.06 87.78 267.41 88.72 269.66 90.58C271.9 92.45 273.02 93.64 273.02 94.16C272.83 94.91 272.2 95.28 271.13 95.28H244.84C244.75 103.32 244.44 109.46 243.93 113.72H259.35L261.24 111.06C261.38 110.87 261.61 110.57 261.94 110.15C262.83 108.98 263.41 108.4 263.69 108.4C264.16 108.4 265.49 109.31 267.69 111.13C269.89 112.95 270.98 114.12 270.98 114.64C270.79 115.39 270.16 115.76 269.09 115.76H245.12C248.16 128.89 257.81 138.43 274.07 144.36L273.93 145.13C270.52 145.74 268.58 147.72 268.11 151.09V151.08Z" fill="#90B295"/>
<path d="M317.53 150.94C317.53 148.88 317.04 147.43 316.06 146.59C314.94 145.56 312.41 144.65 308.49 143.86L308.63 142.81C309.24 142.86 310.24 142.95 311.64 143.09C315.66 143.42 318.14 143.58 319.07 143.58C320.24 143.58 321.22 143.21 322.01 142.46C322.71 141.76 323.27 140.5 323.69 138.67H293.34L292.64 143.37C291.28 144.31 289.06 144.45 285.98 143.79C287.38 136.03 288.78 126.78 290.19 116.03H287.18C285.5 116.08 283.77 116.4 281.99 117.01L280.17 113.43C282.09 113.71 284.42 113.9 287.18 113.99H290.47C290.61 112.96 290.8 111.44 291.03 109.43C291.5 105.74 291.85 103.03 292.08 101.3C292.69 96.21 292.83 91.79 292.5 88.05L300.49 91.41H326.5L328.25 89.38C328.34 89.24 328.51 89.05 328.74 88.82C329.58 87.79 330.16 87.28 330.49 87.28C330.91 87.28 332.05 88.16 333.92 89.91C335.79 91.66 336.72 92.8 336.72 93.31C336.16 93.97 335.13 94.39 333.64 94.57C333.41 102.94 333.17 109.41 332.94 113.99H334.9L336.51 111.4C336.65 111.17 336.86 110.84 337.14 110.42C337.89 109.35 338.4 108.81 338.68 108.81C339.1 108.81 340.23 109.7 342.08 111.47C343.93 113.25 344.85 114.39 344.85 114.9C344.66 115.65 344.03 116.02 342.96 116.02H332.87C332.36 125.41 331.7 132.28 330.91 136.63H333.92L335.46 134.18C335.6 133.99 335.76 133.74 335.95 133.41C336.74 132.29 337.28 131.73 337.56 131.73C337.98 131.73 339.08 132.57 340.85 134.25C342.63 135.93 343.51 137.03 343.51 137.54C343.37 138.29 342.76 138.66 341.69 138.66H330.54C329.7 142.82 328.65 145.67 327.39 147.21C326.22 148.61 324.82 149.59 323.18 150.15C321.68 150.66 319.79 150.92 317.5 150.92L317.53 150.94ZM293.63 136.64H324.19C325.12 132.2 325.85 125.33 326.36 116.03H296.5C296.27 117.67 295.94 120.12 295.52 123.39C294.68 129.47 294.05 133.88 293.63 136.64ZM296.64 114H326.5C326.69 110.68 326.87 105.19 327.06 97.53C327.11 95.75 327.15 94.4 327.2 93.46H299.09C298.29 100.75 297.48 107.6 296.64 114ZM316.13 131.35C315.05 132.26 313.7 132.27 312.06 131.39C311.31 129.52 309.93 127.51 307.92 125.36C306.1 123.4 304.16 121.76 302.1 120.45L302.66 119.89C307.1 120.22 310.63 121.18 313.25 122.76C315.4 124.07 316.68 125.66 317.11 127.53C317.53 129.17 317.2 130.44 316.13 131.35ZM316.83 108.25C315.75 109.09 314.45 109.09 312.9 108.25C312.24 106.52 311.03 104.67 309.25 102.71C307.57 100.93 305.79 99.46 303.92 98.29L304.48 97.66C308.64 97.89 311.93 98.76 314.36 100.25C316.37 101.47 317.56 102.91 317.94 104.6C318.27 106.19 317.89 107.4 316.82 108.25H316.83Z" fill="#90B295"/>
<path d="M355.53 148.49C355.06 148.49 354.65 148.35 354.3 148.07C353.95 147.79 353.77 147.46 353.77 147.09C354.19 141.06 354.45 134.99 354.54 128.86V109.93C354.54 104.04 354.24 99.25 353.63 95.56L360.71 98.85H361.9C362.79 93.48 363.16 89.01 363.02 85.46C367.65 86.54 370.54 87.38 371.71 87.98C372.55 88.4 372.55 88.8 371.71 89.17L370.38 89.8C368.74 92.51 366.8 95.53 364.56 98.84H371.64L373.04 97.02C373.13 96.88 373.3 96.67 373.53 96.39C374.18 95.6 374.65 95.2 374.93 95.2C375.4 95.2 376.55 95.96 378.4 97.48C380.25 99 381.17 100.02 381.17 100.53C380.61 101.19 379.67 101.68 378.37 102V127.45C378.46 133.25 378.65 138.74 378.93 143.92C378.6 144.39 377.83 144.88 376.62 145.39C375.36 145.95 374.24 146.23 373.26 146.23C372.42 146.23 372 145.76 372 144.83C372.05 144.55 372.09 144.15 372.14 143.64C372.19 143.27 372.23 142.94 372.28 142.66V140.84H360.36V142.66C360.41 143.03 360.43 143.5 360.43 144.06C360.52 144.9 360.59 145.51 360.64 145.88C360.5 146.44 359.94 147 358.96 147.56C357.88 148.17 356.74 148.47 355.52 148.47L355.53 148.49ZM360.37 118.35H372.29V100.9H360.37V118.35ZM360.37 138.82H372.29V120.38H360.37V138.82ZM397.17 150.81C397.17 148.43 396.7 146.81 395.77 145.97C394.6 144.8 392.29 143.91 388.83 143.31L388.9 142.19C393.11 142.66 396.28 142.89 398.43 142.89C399.55 142.89 400.42 142.59 401.02 141.98C402.19 140.81 403.08 136.63 403.68 129.43C404.15 123.5 404.52 113.94 404.8 100.76H390.64C387.42 106.88 383.84 111.79 379.91 115.48L378.93 114.85C381.13 110.97 383.16 106.18 385.03 100.48C385.78 98.19 386.46 95.6 387.06 92.7C387.62 89.71 387.92 87.28 387.97 85.41C392.46 86.72 395.26 87.7 396.38 88.35C397.22 88.82 397.27 89.22 396.52 89.54L395.26 90.1C394.23 93.09 393.04 95.97 391.68 98.72H404.02L405.7 96.76C405.84 96.57 406.07 96.32 406.4 95.99C407.1 95.15 407.59 94.73 407.87 94.73C408.34 94.73 409.47 95.57 411.27 97.25C413.07 98.93 413.97 100.03 413.97 100.54C413.45 101.2 412.5 101.62 411.1 101.8C410.82 116.15 410.35 126.59 409.7 133.13C408.95 140.51 407.76 145.19 406.12 147.15C404.06 149.58 401.07 150.8 397.15 150.8L397.17 150.81ZM395.49 128.9C394.23 129.63 392.85 129.33 391.35 128.02C391.07 125.78 390.25 123.23 388.9 120.38C387.68 117.9 386.26 115.61 384.62 113.51L385.25 113.09C389.41 114.63 392.56 116.6 394.71 118.98C396.49 120.99 397.37 123.02 397.37 125.08C397.37 126.9 396.74 128.18 395.48 128.9H395.49Z" fill="#90B295"/>
<path d="M424.78 151.4C423.02 151.4 421.5 150.76 420.22 149.48C418.94 148.2 418.3 146.68 418.3 144.92C418.3 143.16 418.93 141.64 420.19 140.38C421.45 139.12 422.98 138.49 424.77 138.49C426.56 138.49 428.08 139.11 429.33 140.36C430.58 141.61 431.2 143.13 431.2 144.92C431.2 146.71 430.57 148.24 429.31 149.5C428.05 150.76 426.54 151.39 424.77 151.39L424.78 151.4ZM424.78 149.76C426.09 149.76 427.21 149.29 428.15 148.35C429.09 147.41 429.56 146.27 429.56 144.93C429.56 143.59 429.1 142.46 428.17 141.53C427.24 140.6 426.11 140.14 424.77 140.14C423.43 140.14 422.29 140.6 421.35 141.53C420.41 142.46 419.94 143.59 419.94 144.93C419.94 146.27 420.41 147.41 421.35 148.35C422.29 149.29 423.43 149.76 424.77 149.76H424.78Z" fill="#90B295"/>
</svg>
