<svg width="216" height="13" viewBox="0 0 216 13" fill="#FFF" xmlns="http://www.w3.org/2000/svg">
<path d="M33.3,3.5c-0.5,0.7-1.8,1.9-2.8,2.1L31,6.7c0.1,0,0.2-0.1,0.3-0.2l5.1-1.1c0.3,0.3,0.5,0.7,0.7,1
	c1.2,0.6,1.7-1.7-2-2.4L35,4.1c0.4,0.3,0.8,0.7,1.2,1.2l-4.5,0.2c1-0.4,2.1-1,2.7-1.4c0.2,0,0.3,0,0.4-0.1l-1.1-0.5H38
	c0.1,0,0.3,0,0.3-0.2C37.8,2.9,37,2.4,37,2.4l-0.6,0.8h-6.3l0.1,0.2H33.3z M129.5,8.7L129.5,8.7c0-0.5,0-0.7-0.1-0.9
	c-0.1-0.1-0.3-0.2-0.5-0.2h-0.5v2.3h0.5c0.2,0,0.4-0.1,0.5-0.2C129.5,9.4,129.5,9.1,129.5,8.7z M130.6,9.6c0,0.2,0.1,0.3,0.3,0.3
	c0.2,0,0.2,0,0.3-0.1c0.1-0.1,0.1-0.1,0.1-0.3V9.4h-0.4C130.7,9.4,130.6,9.5,130.6,9.6z M150.6,5.4L150.6,5.4L150.6,5.4L150.6,5.4z
	 M138.5,4.8L138.5,4.8c1-0.2,0.1-1.5-0.9-1.4C138,3.7,138,4.8,138.5,4.8z M139.2,4.9l0.1,0.3c0.3-0.1,2.7,0,3,0
	c-0.1,0.3-0.2,0.7-0.3,1h-1.1c0.6-0.3-0.1-1-0.6-0.9c0.2,0.1,0.2,0.7,0.4,0.9c-0.4,0-1,0-1.3-0.1l0.1,0.3c0.3-0.1,1.5,0,1.8,0v0.8
	c-0.4,0-1.2,0-1.5-0.1l0.1,0.3c0.3-0.1,1.1,0,1.4,0v0.8c-0.4,0-1.6,0-2-0.1l0.1,0.3c0.3-0.1,1.5,0,1.9,0c0.1,0.7-0.3,0.9,0.3,1
	c0.7,0,0.4-0.5,0.4-1c0,0,2.5,0.1,2.4-0.1c0-0.2-0.6-0.6-0.6-0.5c-0.1,0-0.1,0.1-0.4,0.4h-1.3c0-0.3,0-0.5,0-0.8
	c0.1,0,1.9,0.1,1.8-0.1c-0.3-0.4-0.5-0.7-1-0.1h-0.9V6.4c0,0,2.3,0.1,2.2-0.1c-0.4-0.5-0.5-0.8-1.1-0.1h-0.9
	c0.2-0.1,0.3-0.2,0.6-0.5c0.6-0.1,0.3-0.2-0.4-0.5c0,0,2,0.1,1.9-0.1c0-0.2-0.6-0.6-0.6-0.5c-0.1,0-0.1,0.1-0.5,0.4h-1.3V4.2
	c0,0,2.1,0.1,2-0.1c-0.4-0.4-0.6-0.7-1.1-0.1h-1V3.5c0.4-0.3,0.3-0.3-0.8-0.4c0,0.3,0,0.6,0,0.9c-0.4,0-1.3,0-1.7-0.1l0.1,0.3
	c0.3-0.1,1.2,0,1.6,0V5C140.8,5,139.6,5,139.2,4.9z M150.1,4.5c0.3,0.2,0.2,0.9,0.5,0.9C151.4,5.2,150.6,4.3,150.1,4.5z M144.5,9.2
	c-2.1,0-4.4,0.9-5.6-0.6l0,0V6.8c0.6-0.3-0.3-0.7-0.4-0.7c-0.1,0-0.1,0-0.4,0.4c-0.3,0-0.7,0-1-0.1l0.1,0.3c0.3-0.1,0.7-0.1,1-0.1v2
	c-0.3,0.2-0.8,0.4-1.1,0.5c0.3,0.8,0.7,1.4,0.7,0.6c0.4-0.4,0.6-0.7,0.9-1.2c0.5,2,3.5,1.5,5.3,1.5c0.1,0,0.2,0,0.2-0.3
	c0-0.2,0.1-0.3,0.3-0.4C144.5,9.3,144.5,9.2,144.5,9.2z M164.2,6.2c1.2-0.2,1.5-1.2,1.5-2.4h0.9c0,0.4,0,1,0,1.5
	c-0.2,1,2.9,0.8,1.7-0.2l0,0V4.5c0,0-0.1,0-0.1,0c-0.2,0.6-0.1,0.8-0.6,0.8c-0.5,0.2-0.2-1.1-0.3-1.3c0.6-0.2-0.3-0.7-0.3-0.7
	c-0.1,0-0.1,0-0.4,0.3c-0.6,0.1-1.2-0.1-1.7-0.4C165,4.4,165.1,5.4,164.2,6.2z M152.2,3.7c0.4-0.1-0.6-0.6-0.5-0.6
	c-0.1,0-0.1,0.1-0.4,0.4l0,0c-0.4,0-1.9,0.1-2.3-0.1l0.1,0.3C149.3,3.6,151.9,3.7,152.2,3.7z M134,5.2c-0.8-1.2-2.3-2-3.9-2
	c-2.2,0-4,1.5-4.5,3.5c2.2-2.1,6-2.2,7.9-1.6c-1.7-0.5-6-0.3-8,3c0.1,0.7,0.3,1.4,0.7,2h1.7V7.2h1c0.3,0,0.5,0.1,0.7,0.3
	c0.3,0.3,0.3,0.7,0.3,1.1v0.1v0.1c0,0.4,0,0.8-0.3,1.1c-0.1,0.1-0.2,0.2-0.3,0.2h1l0,0c-0.1-0.1-0.2-0.3-0.2-0.4
	c0-0.3,0.2-0.6,0.7-0.6h0.5V8.9c0-0.2-0.1-0.3-0.4-0.3h-0.6V8.2h0.7c0.5,0,0.9,0.2,0.9,0.7V10h0.4V6.7h0.5V10h0.4V8.3h0.5v1.8h0.3
	c0.4-0.7,0.7-1.5,0.7-2.4C134.7,6.8,134.4,5.9,134,5.2L134,5.2z M133.7,7.9h-0.5V7.5h0.5V7.9z M164.1,3.8c-0.1-0.2-0.6-0.6-0.7-0.6
	c-0.1,0-0.1,0.1-0.5,0.5c-0.4,0-0.9,0-1.3-0.1l0.1,0.3C162.1,3.8,163.8,4,164.1,3.8z M186.9,4.2c0.3,0.1,0.3,0.9,0.7,1
	c0.4,0,0.3-0.6,0-0.8c0.3-0.3,0.5-0.4,0.8-0.7c0.6-0.1,0.2-0.3-0.5-0.5c0,0.2-0.1,0.4-0.1,0.5l0,0c-0.1,0.2-0.2,0.4-0.2,0.6
	C187.3,4.3,186.9,4,186.9,4.2z M189.9,5.2c0.4,0,0.3-0.7,0-0.8c0.3-0.3,0.5-0.4,0.8-0.7c0.6-0.1,0.2-0.3-0.5-0.5
	c0,0.2-0.1,0.4-0.2,0.6c-0.1,0.2-0.1,0.3-0.2,0.5c-0.1,0-0.5-0.2-0.5-0.1C189.5,4.3,189.5,5.1,189.9,5.2z M190.7,8.3h-0.6V7.2
	c0.4-0.3,0.3-0.3-0.7-0.4c0.1,0.5,0,3.3,0,3.3c0,0.2,0.1,0.3,0.3,0.3c0.8-0.1,0.2-0.8,0.4-1.8h0.6v0.3c0,0.4,0.7,0.3,0.6-0.1
	c0-0.1,0-0.9,0-1.4c0.5-0.2,0.1-0.3-0.6-0.4C190.8,7.4,190.7,7.9,190.7,8.3z M194.9,6.5c0.5-0.2-0.2-0.7-0.3-0.7
	c-0.1,0-0.1,0-0.4,0.3h-0.6c0,0-0.1,0-0.1-0.1c0.3-0.6,0.5-1.3,0.5-1.9l0,0c0.1-0.1,1.8,0.2,1.1-0.3c-0.6-0.5-0.3-0.5-0.9,0.1
	c-0.4,0-1.4,0-1.8-0.1l0.1,0.3c0.3-0.1,0.6,0,0.9,0c0.3,1.2-2.1,4.9-0.4,2.9c0.1,1-0.4,3,0.2,2.9c0.5,0.1,0.3-0.6,0.4-0.9h0.8
	c0,0.2,0,0.5,0.3,0.4C195.4,9.5,194.7,7.7,194.9,6.5z M194.3,8.9h-0.8V6.3h0.8V8.9z M151.2,7.7c0,0.3,0.8,0.2,0.7-0.1
	c0,0,0-0.4,0-0.6c0.6-0.3-0.3-0.7-0.4-0.7c-0.1,0-0.1,0-0.4,0.3h-1.2V6.5c0.4-0.3,0.3-0.3-0.7-0.4c0,0.2,0,0.4,0,0.6h-1.2V6.5
	c0.4-0.3,0.3-0.3-0.7-0.4c0,0.2,0,0.4,0,0.6h-1.1c0-0.2,0-0.5,0-0.7h5.9c0.4,0-0.5-0.6-0.5-0.6c0.4-0.1,0.1-0.5,0.2-1
	c0.5-0.2-0.2-0.6-0.3-0.6c-0.1,0-0.1,0-0.3,0.3h-1.4c-0.3-0.2-0.3-0.2-0.6-0.3c0.1,0.4,0,1.3,0,1.6c-0.2-0.1-0.4-0.1-0.8-0.1
	c0-0.1,0-0.5,0-0.8c0.5-0.2-0.2-0.6-0.3-0.6c-0.1,0-0.1,0-0.3,0.3h-1.4c-0.3-0.2-0.3-0.2-0.6-0.3c0,0.4,0,1.3,0,1.5
	c0,0.3,0.7,0.3,0.6,0V4.3h1.4c0,0.4-0.2,1.6,0.6,1.1c0,0.2,0,0.3,0,0.4h-2c-0.4-0.2-0.4-0.2-0.8-0.4c0.1,2,0.2,3.1-0.6,4.8
	c0.8-0.3,1.2-1.6,1.3-2.4L151.2,7.7L151.2,7.7z M149.9,6.9h1.3v0.7h-1.3V6.9z M149.1,5.6c0.1,0,0.2-0.1,0.2-0.1
	c0.8,0.3,0.5-0.8,0.5-1.2h1.5c0.1,0.2-0.2,1.2,0.2,1.1c-0.1,0-0.2,0.1-0.4,0.4h-2L149.1,5.6L149.1,5.6z M148.1,6.9h1.2v0.7h-1.2V6.9
	z M146.3,6.9h1.1v0.7h-1.2C146.3,7.3,146.3,7.1,146.3,6.9z M187.3,6.5c0.3-0.1,0.9-0.3,1.3-0.4c-0.1,0.5,0.6,0.7,0.6,0.1
	c0.1-0.3-1.2-1.5-0.6-0.3c-0.3,0-0.6,0.1-1,0.1c0.4-0.4,0.9-0.8,1.2-1.3c0.6-0.1,0.3-0.2-0.4-0.5c-0.2,0.7-0.5,1.2-1.1,1.8
	c-0.2,0-0.2,0-0.4,0C187.1,6.7,187.2,6.9,187.3,6.5z M188.3,8.3h-0.5v-1c0.4-0.3,0.1-0.3-0.6-0.4c0.2,0.6-0.3,1.9,0.3,2
	c0.4,0,0.4-0.2,0.4-0.5h0.5c-0.1,0.8-0.5,1.3-1.2,1.7c1.6,0,2-1.7,2-3.1c0.4-0.3,0.3-0.3-0.7-0.4C188.4,7.2,188.3,7.9,188.3,8.3z
	 M148.7,3.7c0.4-0.1-0.5-0.6-0.5-0.5c-0.1,0-0.1,0.1-0.4,0.4c-0.4,0-1.9,0.1-2.3-0.1l0.1,0.3C145.8,3.6,148.4,3.7,148.7,3.7z
	 M197.6,9c0.7,0.2,1,1.2,1.5,1.2l0,0C200.3,9.9,198.8,8.8,197.6,9z M196.4,8.8c-0.4,0.6-1.1,1-1.9,1.4c0.7,0.2,1.7-0.3,2.4-0.7l0,0
	C197.7,9.5,197.2,9.2,196.4,8.8z M215.4,5.7c-0.8-0.5-0.3-0.5-1.1,0.2h-0.8c0.3-0.3,0.1-0.6-0.4-0.8c0.2-0.1,0.3-0.2,0.5-0.3
	c0.6,0,0.4-0.1-0.2-0.4c0.1,0,1.9,0.1,1.8-0.1c0-0.2-0.8-0.7-0.7-0.6c-0.1,0-0.1,0.1-0.5,0.5h-1.6V3.6c0.5-0.2,0.3-0.3-0.8-0.4
	c0.1,0.4,0,0.7,0,1c-0.5,0-2.1,0-2.6-0.1l0.1,0.3c0.2,0,0.4,0,0.6,0l0,0h3.6c-0.2,0.2-0.4,0.3-0.7,0.5c-0.4-0.1-1.6-0.5-2.2-0.3
	c0.6,0.2,1.2,0.4,1.6,0.6c-3.5,1-1.6,0.8,0.5,0.3c0.3,0.1,0.7,0.4,0.9,0.5h-3.5c-0.4-0.2-0.5-0.3-0.9-0.4c0.1,1.7,0.1,3.4-0.7,4.8
	c1.3-0.6,1.5-2.5,1.5-4.1h5.8C215.8,6,215.7,5.9,215.4,5.7z M214.8,9.3c-0.1,0-0.1,0.1-0.6,0.5h-1.5V8.7c0,0,2.1,0.1,2.1-0.1
	c0-0.2-0.7-0.6-0.7-0.6c-0.1,0-0.1,0.1-0.5,0.5h-0.9v-1c0,0,2.4,0.1,2.3-0.1c-0.1-0.2-0.6-0.6-0.7-0.6c-0.1,0-0.1,0.1-0.5,0.5h-1.2
	V6.7c0.5-0.3,0.3-0.3-0.8-0.4c0,0.4,0,0.7,0,1.1H211c0.1-0.1,0.2-0.3,0.2-0.5c0.6-0.1,0.2-0.3-0.6-0.5c0,0.8-0.7,1.7-0.8,2.2
	c0.4-0.3,0.8-0.6,1-1h1.2v1c-0.4,0-1.3,0-1.7-0.1l0.1,0.3c0.4-0.1,1.2,0,1.6,0v1.2c-0.5,0-2.2,0-2.7-0.1l0.1,0.3
	c0.1-0.2,5.9,0.1,6.1-0.1C215.6,9.8,214.8,9.3,214.8,9.3z M207.5,9.3c-0.3-0.2-0.1-0.8-0.1-1.1c0,0-0.1-0.1-0.1,0
	c-0.2,0.7-0.3,1-0.5,1.1c-0.1,0.1-0.4,0.2-1.5,0.2c-1.1,0-1.2,0-1.2-0.3V6.2l0.8-0.3c0,1.6,0,2.5,0,2.7c0,0.2,0.1,0.3,0.3,0.3
	c0.8,0,0.4-0.5,0.4-1.1c0.3,0.1,0.3,0.2,0.4,0.5c1.1,0.8,1.2-1.4,1.2-2.7c0.6-0.3-0.4-0.7-0.4-0.7s-0.1,0-0.3,0.4l-0.8,0.3V3.7
	c0.5-0.3,0.3-0.3-0.8-0.4c0,0.4,0,0.6,0,1.2l0,0v1.2L204.1,6V4.5c0.5-0.3,0.1-0.4-0.8-0.5c0.1,0.4,0.1,1.5,0.1,2.2
	c-0.3,0.1-0.6,0.2-1,0.3l0.2,0.2c0.2-0.1,0.6-0.3,0.9-0.3c0,0.8,0,1.6,0,2.8c0,0.8,0.2,0.9,2.1,0.9c1.1-0.1,1.9,0.2,2.1-0.6
	C207.7,9.4,207.7,9.4,207.5,9.3z M205.6,5.9V5.7l0.9-0.3c-0.1,1,0.4,2.5-0.9,2.2C205.6,7,205.6,6.4,205.6,5.9L205.6,5.9z M202.1,8.1
	V5.8c0.1,0,1.1,0.1,1.1-0.1c-0.3-0.4-0.6-0.8-0.9-0.1h-0.2V3.8c0.5-0.3,0.4-0.4-0.8-0.5c0.1,0.5,0,1.6,0,2.2c-0.3,0-0.7,0-1-0.1
	l0.1,0.3c0.3-0.1,0.6,0,0.9,0v2.5c-0.3,0.1-0.8,0.2-1,0.2c0.3,0.9,0.5,1.3,0.6,0.6C201.8,8.8,204.4,7.3,202.1,8.1z M199.4,3.6
	c-0.4-0.3-0.4-0.3-0.5-0.3c-0.1,0-0.1,0.1-0.5,0.5c-0.5,0-2.6,0.1-3-0.1l0.1,0.3c0.4-0.1,1.1,0,1.5,0c0,0.4-0.1,0.7-0.2,1
	c-0.5,0-0.7-0.3-1.2-0.4c0.1,1.2,0,4,0,4.1c0,0.4,0.8,0.3,0.8,0h2.1c0,0.2,0.1,0.3,0.3,0.3c0.9,0.1,0.2-2.2,0.4-3.6
	c0.6-0.2-0.3-0.7-0.4-0.7c-0.1,0-0.1,0-0.4,0.4H197c0.3-0.3,0.6-0.6,0.8-1c0.1,0,1.9,0.1,1.8-0.1C199.6,3.7,199.6,3.7,199.4,3.6z
	 M198.4,8.5h-2.1V7.4h2.1V8.5z M198.4,7.2h-2.1V6.3h2.1V7.2z M198.4,5.1v0.9h-2.1V5.1H198.4z M190.8,5.3c-0.1,0.1,0.2,0.4,0.2,0.6
	c-0.3,0-0.7,0.1-1.1,0.1c0.4-0.3,1-0.9,1.2-1.3c0.6,0,0.2-0.3-0.4-0.5c-0.1,0.2-0.2,0.4-0.2,0.6l0,0c-0.2,0.4-0.4,0.8-0.8,1.2
	c-0.1,0-0.2,0-0.3,0c0.2,0.7,0.3,1,0.4,0.5c0.3-0.1,0.8-0.2,1.3-0.4c0,0.5,0.6,0.7,0.6,0.1C191.6,5.9,191.3,5.5,190.8,5.3z
	 M161.7,6.7l0.1,0.3c0.4-0.2,2.1,0.1,2.4-0.1c0-0.2-0.7-0.6-0.6-0.5c-0.1,0-0.1,0.1-0.4,0.4l0,0C162.6,6.8,162.1,6.8,161.7,6.7z
	 M159.7,5L159.7,5l-0.1-0.6c0.3-0.3,0.3-0.2,0.1-0.5c-0.5-0.4-0.3-0.4-0.8,0.1H158V3.6c0.5-0.3,0.2-0.3-0.7-0.4c0,0.3,0,0.5,0,0.9
	c-0.4,0-1,0-1.4-0.1l0.1,0.3c0.3-0.1,1-0.1,1.3-0.1V5c-0.4,0-1.4,0-1.8-0.1l0.1,0.3c0.4-0.1,1.3,0,1.7,0v0.8c-0.4,0-1,0-1.4-0.1
	l0.1,0.3c0.3-0.1,1,0,1.3-0.1c0,0.3,0,0.5,0,0.8c-0.4,0-1.1,0-1.5-0.1l0.1,0.3c0.3-0.1,1.1,0,1.4,0c0,0.3,0,0.5,0,0.8
	c-0.4,0-1.4,0-1.9-0.1l0.1,0.3c0.4-0.1,1.4,0,1.8,0c0.1,0.5-0.2,1,0.3,1c0.6,0,0.3-0.5,0.4-1c0,0,2.5,0.1,2.4-0.1
	c-0.1-0.2-0.7-0.6-0.7-0.6c-0.1,0-0.1,0.1-0.5,0.5H158c0-0.3,0-0.5,0-0.8c0,0,2.2,0.1,2.1-0.1c0-0.2-0.7-0.6-0.7-0.5
	c-0.1,0-0.1,0.1-0.5,0.4h-1c0-0.3,0-0.5,0-0.8l0,0h1c0,0.2,0.1,0.3,0.3,0.3c0.6-0.1,0.2-0.6,0.3-1.3c0.1,0,0.9,0.1,0.9-0.1
	C160.3,4.7,160.1,4.3,159.7,5z M159,6.1h-1c0-0.3,0-0.6,0-0.8h1L159,6.1L159,6.1z M159,5h-1V4.2h1V5z M164.5,4.9
	c0-0.1-0.1-0.1-0.2-0.2c-0.7-0.5-0.3-0.5-1,0.1c-0.5,0-1.5,0-2-0.1l0.1,0.3C161.8,4.8,164.1,5.1,164.5,4.9z M154.9,8.5
	c0.3-0.6,0.5-1.3,0.7-2.3c0.6-0.2-0.3-0.7-0.3-0.7s-0.1,0-0.4,0.3l0,0h-0.4c0.3-0.5,0.4-0.8,0.9-1.7c0.7-0.1-0.2-0.7-0.3-0.7
	c-0.1,0-0.1,0-0.4,0.4c-0.3,0-1,0-1.3-0.1l0.1,0.3c0.2-0.1,0.9,0,1.2,0c-0.3,0.9-0.7,1.4-1.1,2.2c0.1,0.4,0.7,0.3,0.8-0.1h0.6
	c-0.1,0.7-0.2,1.4-0.4,1.9c-0.2-0.3-0.5-0.8-0.4-1.2c0-0.2-0.4,0-0.4,0.1c0.3,0.4,0.4,1.1,0.6,1.4c-0.3,0.6-0.7,1.2-1.2,1.7
	c0.5,0,1.2-0.9,1.5-1.2c0.8,1.3,3.4,1.4,5.3,1.2c0.4-0.1,0.1-0.6,0.6-0.7C158.7,9.3,156,9.8,154.9,8.5z M146.7,4.5
	c0.3,0.2,0.2,0.9,0.5,0.9C148,5.2,147.2,4.3,146.7,4.5z M152.1,9.4c0-0.1,0.1-0.6-0.1-0.5c-0.4,0.9-0.4,0.8-1.3,0.8
	c-1.1,0-0.9-0.1-0.9-0.6c0.6-0.1,1.6-0.2,2-0.4c0-0.1-0.2-0.3-0.7-0.6c-0.4,0.4-0.8,0.6-1.4,0.8V8.3c0.4-0.3,0.2-0.3-0.7-0.4
	c0.2,1.5-0.7,2.4,1.5,2.3C151.6,10.2,153.1,10.1,152.1,9.4z M148,8.6h-0.6V8.3c0.4-0.2,0.3-0.3-0.7-0.4c0,0.4,0,1.2,0,1.7
	c-0.3,0-0.6,0-0.8,0c0.2,0.8,0.3,1.1,0.5,0.6c1.9-0.4,4.1-1.2,0.9-0.7V8.7c0,0,1.8,0.1,1.7-0.1C148.7,8.3,148.5,7.9,148,8.6z
	 M181.9,3.4h-7.2l0.1,0.2v6.3l-0.1,0.2h2.3l-0.1-0.2V7.6c0-0.7,0.6-1.4,1.5-1.4c0.8,0,1.4,0.7,1.4,1.4v2.3l-0.1,0.2h2.3l-0.1-0.2
	V3.6L181.9,3.4z M167.8,7c0.8-0.2-0.3-0.8-0.4-0.8c-0.1,0-0.1,0-0.4,0.4c-0.4,0-2,0.1-2.5-0.1l0.1,0.3c0.2-0.1,0.4-0.1,0.6-0.1
	c0.2,0.6,0.4,1.2,0.8,1.8c-0.5,0.6-1.3,1.2-2,1.5c0.7,0.2,1.8-0.7,2.4-1.1c0.4,0.5,1.1,0.9,1.8,1.1c0.2-0.2,0.2-0.7,0.6-0.8
	c-0.4-0.3-1.5-0.4-1.9-0.8C167.2,8.2,167.5,7.6,167.8,7z M166.3,8.2c-0.4-0.4-0.7-0.9-0.9-1.4h1.7C166.8,7.3,166.6,7.7,166.3,8.2z
	 M164,8.2c0.6-0.2-0.3-0.7-0.4-0.7c-0.1,0-0.1,0-0.4,0.4c-0.6,0.1-1.1-0.1-1.6-0.4c0.2,0.8-0.3,2.8,0.3,2.8c0.4,0,0.4-0.3,0.4-0.5
	l0,0h0.9c0,0.2,0.1,0.3,0.3,0.3C164.4,10,163.8,9.1,164,8.2z M163.3,9.5h-0.9V8h0.9V9.5z M186.7,3.8c1.2,0.1,0.1-0.5-0.1-0.6
	c-0.1,0-0.1,0.1-0.4,0.4c-0.4,0-1.5,0-1.9-0.1l0.1,0.3c0.2,0,0.3,0,0.4,0v4.6c-0.1,0-0.3,0-0.4,0.1c0.3,0.8,0.4,1.2,0.6,0.6
	c0.4-0.2,0.9-0.5,1.1-0.8c0,1,0,1.5,0,1.7c0,0.5,0.8,0.3,0.7,0C186.7,8.9,186.7,5.4,186.7,3.8z M186,8.1c-0.2,0.1-0.4,0.2-0.6,0.2
	c0,0,0-1.5,0-1.5h0.6V8.1z M186,6.6h-0.6V5.3h0.6V6.6z M186,5.2h-0.6V3.8h0.6V5.2z M163.5,5.3c-0.1,0-0.1,0.1-0.4,0.4l0,0
	c-0.4,0-1,0-1.4-0.1l0.1,0.3c0.4-0.2,2.1,0.1,2.4-0.1C164.1,5.8,163.5,5.3,163.5,5.3z M4.6,6.3h3.7c0.1,0,0.3,0,0.3-0.2
	C8.1,5.7,7.3,5.2,7.3,5.2L6.7,6H4.6c0.1-0.7,0.1-1.5,0.1-2.4h3c0.1,0,0.3,0,0.3-0.2C7.5,3.1,6.8,2.6,6.8,2.6L6.2,3.3H0.7l0.1,0.3
	h2.7c0,0.9,0,1.7-0.1,2.4H0.1l0.1,0.2h3.2c-0.2,1.8-1,3.3-3.5,4.5l0.1,0.2c3.2-1,4.2-2.4,4.5-4.4c0.3,1.5,1.1,3.3,3.2,4.4
	c0.1-0.6,0.4-0.9,1-1V9.8C6.1,9,4.9,7.6,4.6,6.3z M13.7,7.3L13.7,7.3c0.2,0.5,0.5,1.1,0.5,1.6C15.2,9.7,16.3,7.9,13.7,7.3z
	 M17.8,6.2l-0.5,0.7h-0.2V6.2c0.2,0,0.3-0.1,0.3-0.2l-1.4-0.1v1.1h-3l0.1,0.2h3v2.4c0,0.4-0.3,0.2-1.4,0.1v0.1
	c0.8,0.2,1,0.4,1.1,1.1c1.2-0.1,1.4-0.5,1.4-1.2V7.1h1.3c0.1,0,0.2,0,0.3-0.2C18.4,6.6,17.8,6.2,17.8,6.2z M13.4,4h1.7v1.4h-1.6
	l0.1,0.2h4.3c0.1,0,0.2,0,0.3-0.2c-0.4-0.3-1.1-0.9-1.1-0.9l-0.6,0.7h-0.5V4h2.1c0.1,0,0.2,0,0.3-0.2c-0.4-0.3-1-0.8-1-0.8l-0.5,0.7
	h-0.8V2.8c0.3,0,0.3-0.1,0.3-0.2l-1.4-0.1v1.3h-1.7c0,0,0.1,0,0.1-0.1l-1-0.7L12,3.5h-0.7L10.2,3V10c0.4,0,1-0.2,1-0.3V8.9h0.9v0.7
	c0.3,0,1-0.2,1-0.3V3.8c0.1,0,0.2,0,0.2-0.1L13.4,4z M12.1,8.6h-0.9V6.2h0.9V8.6z M12.1,6h-0.9V3.7h0.9V6z M23.8,7.7V5.2
	c0.2,0,0.3-0.1,0.4-0.2l-1-0.7l-0.5,0.5h-1.2V3.7c0.8-0.1,1.6-0.2,2.1-0.4c0.3,0.1,0.5,0.1,0.6,0l-1.1-1c-0.4,0.3-1.1,0.7-1.7,1
	L20.5,3v2.9c0,1.6,0,3.4-0.7,4.8l0.1,0.1c1.1-1,1.4-2.3,1.6-3.6h1.3v0.5C23.2,7.9,23.8,7.8,23.8,7.7z M21.5,7.1c0-0.4,0-0.7,0-1.1V5
	h1.3v2.1H21.5z M27.1,5.4h-1.6V3.7c0.9-0.1,1.8-0.2,2.4-0.3c0.3,0.1,0.5,0.1,0.6,0l-1.1-1c-0.4,0.3-1.2,0.7-1.9,1L24.4,3v2.6
	c0,1.8-0.2,3.7-1.6,5.2l0.1,0.1c2.3-1.3,2.6-3.5,2.6-5.2h1v5.1c0.4,0.1,1.1-0.2,1.1-0.3V5.7h0.8c0.1,0,0.3,0,0.3-0.2
	c-0.4-0.3-1-0.8-1-0.8L27.1,5.4z M36.6,10.2h-1.9V8.1h2.8c0.1,0,0.2,0,0.3-0.2C37.3,7.6,36.6,7,36.6,7l-0.6,0.8h-1.3V6.7
	c0.3,0,0.3-0.1,0.3-0.2l-1.5-0.2v1.6h-2.8l0.1,0.2h2.7v2.1h-3.7l0.1,0.2h8.3c0.1,0,0.3,0,0.3-0.2c-0.5-0.4-1.2-1-1.2-1L36.6,10.2z
	 M85.8,4.7h3.1c0.1,0,0.2,0,0.3-0.2c-0.4-0.4-1.1-1-1.1-1l-0.6,0.9h-1.8V2.8c0.3,0,0.4-0.2,0.4-0.3l-1.5-0.2v2.1H81l0.1,0.2h2.7
	c-0.5,1.7-1.6,3.6-3.1,4.8l0.1,0.1c1.6-0.8,2.9-2,3.7-3.3v2.3h-1.8l0.1,0.2h1.7v2.1c0.4,0,1.1-0.2,1.1-0.3V8.7h1.6
	c0.1,0,0.2,0,0.3-0.2c-0.4-0.4-1-0.9-1-0.9l-0.5,0.8h-0.3V4.6c0.5,2.1,1.5,3.6,2.9,4.6c0.2-0.5,0.5-0.9,1-1l0-0.1
	C88,7.6,86.5,6.4,85.8,4.7z M96,2.3L96,2.3c0.2,0.4,0.5,0.9,0.5,1.4C97.4,4.4,98.4,2.6,96,2.3z M93.9,10.6l0.1,0.1
	c1.3-0.4,2.5-1,3.5-1.8c0.4,0.5,0.8,1.1,1,1.6c1,0.6,1.7-1.2-0.8-1.7c0.5-0.5,1.1-1,1.5-1.7c0.3,0,0.3,0,0.4-0.1l-1.3-0.7
	C97.2,8.4,95.7,9.7,93.9,10.6z M96.1,4.1c-0.3,0.5-0.8,1.7-1.5,1.8L95,7c0.1,0,0.2-0.1,0.3-0.2l1.5-0.5c-0.6,0.9-1.3,1.6-2.2,2.2
	l0.1,0.1C96.2,8,97.4,7,98.4,5.5c0.2,0,0.3,0,0.4-0.1l-1.2-0.6l-0.5,1l-1.6,0c0.6-0.3,1.3-0.8,1.7-1.3c0.2,0,0.3-0.1,0.3-0.2
	L96.1,4.1L99.2,4c0.1,0,0.2,0,0.3-0.2c-0.4-0.3-1-0.8-1-0.8l-0.5,0.7h-3.4L94.7,4h1.5L96.1,4.1L96.1,4.1z M91.7,2.5L91.7,2.5
	c0.2,0.3,0.5,0.8,0.6,1.3C93.3,4.4,94.2,2.6,91.7,2.5z M94.2,10.2V8c0.2,0,0.3-0.1,0.3-0.2l-0.9-0.7l-0.5,0.5h-0.9l-1-0.4v3.5
	c0.3,0,1-0.2,0.9-0.3V9.9h1v0.5C93.5,10.5,94.2,10.3,94.2,10.2z M93.2,9.7h-1V7.9h1V9.7z M94.7,4.2c-0.3-0.3-0.8-0.7-0.8-0.7
	l-0.5,0.6h-2.7l0.1,0.2h3.7C94.6,4.4,94.7,4.3,94.7,4.2z M94.4,6.6c-0.3-0.3-0.8-0.7-0.8-0.7l-0.5,0.6h-2l0.1,0.2h2.9
	C94.3,6.7,94.4,6.7,94.4,6.6z M91.1,5.3l0.1,0.2h2.9c0.1,0,0.2,0,0.3-0.2c-0.3-0.3-0.8-0.7-0.8-0.7l-0.5,0.6L91.1,5.3L91.1,5.3z
	 M104.6,4.5c0.2,0,0.3-0.1,0.4-0.2L103.6,4c0,0.3,0,0.6,0,0.9h-0.8c0.2-0.8,0.3-1.6,0.4-2.1c0.3,0,0.3-0.1,0.4-0.2l-1.4-0.2
	c0,0.5-0.2,1.5-0.4,2.5l-1.1,0l0.3,1.1c0.1,0,0.2-0.1,0.3-0.2l0.3-0.1c-0.2,0.7-0.3,1.3-0.5,1.8c0.5,0.3,1.1,0.7,1.6,1.1
	c-0.4,0.8-1.1,1.5-1.9,2.1l0.1,0.1c1.1-0.4,1.8-1,2.4-1.7c0.3,0.3,0.6,0.6,0.8,1c0.8,0.5,1.8-0.6-0.2-1.7c0.5-1,0.8-2.1,0.9-3.3
	l0.7-0.1V4.9h-0.6C104.6,4.7,104.6,4.6,104.6,4.5z M102.9,8c-0.3-0.1-0.6-0.2-1-0.4c0.2-0.6,0.4-1.4,0.5-2.1l1-0.2
	C103.5,6.3,103.3,7.2,102.9,8z M107.6,3.8h-1.2l-1.1-0.5v7.2c0.4,0,1.1-0.2,1.1-0.4V9.4h1.3v0.9c0.4,0.1,1.1-0.2,1.1-0.4V4.2
	c0.2,0,0.3-0.1,0.4-0.2l-1.1-0.8L107.6,3.8z M107.7,9.1h-1.3V4h1.3V9.1z M114.5,5.5h-0.2V2.8c0.3,0,0.3-0.1,0.3-0.2l-1.4-0.1v6.7
	l-0.7,0.2V4.8c0.2,0,0.3-0.1,0.3-0.2l-1.3-0.1v5.1l-0.8,0.2l0.8,1.2c0.1,0,0.2-0.1,0.2-0.2l3.9-2V8.6l-1.3,0.3V5.8h1.3
	c0.1,0,0.2,0,0.3-0.2c-0.3-0.4-0.8-0.9-0.8-0.9L114.5,5.5z M118.9,9.5l0-1.4h-0.1c-0.4,1.4-0.2,1.4-1.1,1.4c-0.7,0-0.9,0-0.9-0.3
	V5.8h1.9c0.1,0,0.2,0,0.3-0.2c-0.3-0.4-0.9-1-0.9-1l-0.5,0.8h-0.8V2.8c0.2,0,0.3-0.1,0.3-0.2l-1.4-0.2v7.1c0,1.2,0.6,1,2.1,1
	C119.7,10.6,119.4,9.6,118.9,9.5z M43.6,7.1h33V6h-33V7.1z"/>
</svg>
