<?xml version="1.0" encoding="utf-8"?>
<!-- Generator: Adobe Illustrator 27.8.1, SVG Export Plug-In . SVG Version: 6.00 Build 0)  -->
<svg version="1.1" id="圖層_1" xmlns="http://www.w3.org/2000/svg" xmlns:xlink="http://www.w3.org/1999/xlink" x="0px" y="0px"
	 viewBox="0 0 235.1 91" style="enable-background:new 0 0 235.1 91;" xml:space="preserve">
<style type="text/css">
	.st0{fill:#FFFFFF;}
	.st1{opacity:0.7;fill:none;stroke:#FFFFFF;stroke-width:0.5;stroke-miterlimit:10;enable-background:new    ;}
</style>
<g>
	<g>
		<g>
			<g>
				<path class="st0" d="M19.3,15.9c-1.3-0.7-2.3-1.5-3.1-2.7c-0.5-0.9-0.8-2-1.1-3.2l0,0c-0.2,1.4-0.7,2.5-1.4,3.3
					c-0.8,1.1-2,1.9-3.8,2.5l-0.1-0.2c1.4-0.7,2.5-1.5,3.2-2.5c0.6-0.8,0.9-1.9,1.1-3.1h-1.8c-0.6,0-1.2,0.1-1.8,0.1l-0.2-0.6
					c0.4,0.1,0.9,0.1,1.5,0.1h2.3c0.1-0.6,0.1-1.5,0.1-2.7c0-0.1,0-0.2,0-0.4H12c-0.6,0-1.2,0.1-1.8,0.2L10,6.3
					c0.5,0,0.9,0.1,1.5,0.1h6.7l0.2-0.4c0,0,0,0,0.1-0.1c0.1-0.2,0.2-0.4,0.2-0.4c0.1,0,0.2,0.1,0.6,0.5c0.4,0.2,0.5,0.5,0.5,0.6
					c0,0.1-0.1,0.2-0.4,0.2h-4.2c0,1.4-0.1,2.3-0.1,3.1h2.7l0.2-0.4c0,0,0-0.1,0.1-0.1c0.2-0.5,0.2-0.6,0.4-0.6
					c0.1,0,0.2,0.1,0.6,0.5c0.4,0.2,0.5,0.5,0.5,0.5c0,0.1-0.1,0.2-0.4,0.2h-3.9c0.5,2.2,2.1,3.9,4.8,4.9v0.1
					C19.6,15.1,19.4,15.5,19.3,15.9z"/>
			</g>
			<g>
				<path class="st0" d="M27.7,15.8c0-0.4-0.1-0.5-0.2-0.6c-0.2-0.1-0.6-0.2-1.2-0.4v-0.2c0,0,0.1,0,0.2,0c0.8,0.1,1.3,0.1,1.5,0.1
					c0.2,0,0.4-0.1,0.5-0.2c0.1-0.1,0.2-0.4,0.2-0.7h-5.3c0,0.1,0,0.1,0,0.4c0,0.2-0.1,0.4-0.1,0.5c-0.1,0.1-0.2,0.1-0.4,0.1
					c-0.1,0-0.4,0-0.6,0c0.2-1.2,0.5-2.7,0.7-4.6h-0.5c-0.2,0-0.6,0.1-0.8,0.1l-0.4-0.6c0.4,0,0.7,0.1,1.2,0.1h0.6
					c0-0.1,0-0.4,0.1-0.6c0.1-0.7,0.1-1.2,0.2-1.5c0.1-0.8,0.1-1.5,0.1-2.2L24.9,6h4.5l0.2-0.4c0,0,0,0,0.1-0.1
					C29.8,5.4,30,5.3,30,5.3c0.1,0,0.2,0.1,0.6,0.4C30.8,5.8,31,6.1,31,6.1c-0.1,0.1-0.2,0.2-0.5,0.2c-0.4,1.8-0.4,2.8-0.4,3.5h0.5
					l0.2-0.4c0,0,0-0.1,0.1-0.1c0.1-0.2,0.2-0.2,0.2-0.2c0.1,0,0.2,0.1,0.6,0.4s0.5,0.5,0.5,0.6c0,0.1-0.1,0.2-0.4,0.2h-1.8
					c-0.1,1.5-0.2,2.6-0.4,3.4h0.6l0.2-0.5c0,0,0,0,0-0.1c0.1-0.2,0.2-0.2,0.2-0.2c0.1,0,0.2,0.1,0.5,0.4c0.2,0.2,0.5,0.5,0.5,0.5
					c0,0.1-0.1,0.2-0.2,0.2h-1.9c-0.1,0.7-0.4,1.1-0.5,1.3C28.9,15.7,28.4,15.8,27.7,15.8z M23.6,13.6h5.3c0.1-0.8,0.2-2,0.4-3.4
					h-5.2c0,0.4-0.1,0.8-0.2,1.4C23.7,12.5,23.7,13.1,23.6,13.6z M24.1,9.8h5.2c0-1.1,0.1-2.1,0.1-3.4h-4.8
					C24.4,7.3,24.3,8.4,24.1,9.8z M27.5,12.7c-0.1,0.1-0.4,0.1-0.6,0c-0.1-0.4-0.4-0.6-0.7-0.9c-0.4-0.4-0.7-0.6-1.1-0.8l0.1-0.1
					c0.7,0.1,1.3,0.2,1.8,0.5c0.4,0.2,0.6,0.5,0.7,0.7C27.6,12.3,27.6,12.5,27.5,12.7z M27.6,8.9C27.5,9,27.3,9,27,8.9
					c-0.1-0.4-0.4-0.6-0.7-0.9c-0.4-0.4-0.6-0.6-0.9-0.7l0.1-0.1c0.7,0.1,1.2,0.2,1.6,0.5c0.4,0.2,0.6,0.5,0.6,0.7
					C27.8,8.5,27.7,8.7,27.6,8.9z"/>
			</g>
			<g>
				<path class="st0" d="M35.9,15.1c-0.5,0-0.9-0.1-1.4-0.2c-0.5-0.1-0.8-0.2-1.1-0.5l0.1-1.8h0.7l0.4,1.6c0.2,0.1,0.7,0.2,1.2,0.2
					c0.6,0,1.1-0.1,1.5-0.4c0.4-0.2,0.6-0.7,0.6-1.2c0-0.4-0.1-0.7-0.4-0.9c-0.2-0.2-0.6-0.5-1.2-0.7l-0.5-0.2
					c-0.7-0.2-1.3-0.6-1.6-0.9c-0.5-0.5-0.7-1.1-0.7-1.6c0-0.7,0.2-1.3,0.8-1.8c0.5-0.4,1.2-0.6,2-0.6c0.8,0,1.4,0.2,2.1,0.7
					l-0.1,1.6h-0.7L37.3,7c-0.2-0.1-0.6-0.2-1.1-0.2S35.4,6.9,35,7.1c-0.4,0.2-0.5,0.6-0.5,1.1c0,0.4,0.1,0.7,0.4,0.9
					c0.4,0.4,0.7,0.6,1.2,0.8l0.5,0.2c0.8,0.4,1.4,0.7,1.8,1.1c0.4,0.4,0.5,0.9,0.5,1.5c0,0.7-0.2,1.3-0.8,1.8
					C37.6,14.9,36.9,15.1,35.9,15.1z"/>
			</g>
			<g>
				<path class="st0" d="M44.3,15.1c-1.1,0-2-0.4-2.7-1.2c-0.8-0.8-1.2-1.9-1.2-3.3c0-0.9,0.2-1.6,0.6-2.3c0.4-0.7,0.8-1.2,1.4-1.5
					c0.5-0.4,1.2-0.6,1.9-0.6s1.3,0.1,1.9,0.5s1.1,0.8,1.4,1.5s0.6,1.5,0.6,2.5c0,0.9-0.2,1.6-0.6,2.3s-0.8,1.2-1.4,1.5
					S44.9,15.1,44.3,15.1z M44.3,14.5c0.8,0,1.5-0.4,1.9-1.2c0.4-0.7,0.6-1.6,0.6-2.7s-0.2-2-0.6-2.7c-0.5-0.8-1.1-1.2-1.9-1.2
					c-0.8,0-1.5,0.4-2,1.2c-0.5,0.7-0.6,1.6-0.6,2.7s0.2,2,0.6,2.7C42.7,14.2,43.3,14.5,44.3,14.5z"/>
			</g>
			<g>
				<path class="st0" d="M53.9,15.1c-1.3,0-2.3-0.5-3.1-1.3s-1.2-1.9-1.2-3.2s0.4-2.3,1.2-3.2c0.7-0.8,1.8-1.3,3.1-1.3
					c1.1,0,1.9,0.2,2.6,0.6v1.9h-0.7l-0.4-1.5C55,6.9,54.5,6.8,54,6.8c-0.9,0-1.6,0.4-2.2,1.1s-0.9,1.6-0.9,2.8s0.2,2.1,0.8,2.8
					c0.6,0.7,1.3,1.1,2.3,1.1c0.5,0,0.9-0.1,1.4-0.2v-0.5c0-0.6,0-1.3,0-2.3l-1.3-0.1v-0.5h3.3v0.5l-0.8,0.1c0,0.8,0,1.5,0,2.5v0.5
					C55.7,14.9,54.7,15.1,53.9,15.1z"/>
			</g>
			<g>
				<path class="st0" d="M62.4,15.1c-1.1,0-2-0.4-2.7-1.2c-0.8-0.8-1.2-1.9-1.2-3.3c0-0.9,0.2-1.6,0.6-2.3c0.4-0.7,0.8-1.2,1.4-1.5
					s1.2-0.6,1.9-0.6s1.3,0.1,1.9,0.5c0.6,0.4,1.1,0.8,1.4,1.5c0.4,0.7,0.6,1.5,0.6,2.5S66,12.3,65.6,13c-0.4,0.7-0.8,1.2-1.4,1.5
					C63.7,14.9,63.1,15.1,62.4,15.1z M62.4,14.5c0.8,0,1.5-0.4,1.9-1.2c0.4-0.7,0.6-1.6,0.6-2.7s-0.2-2-0.6-2.7
					c-0.5-0.8-1.1-1.2-1.9-1.2c-0.8,0-1.5,0.4-2,1.2c-0.5,0.7-0.6,1.6-0.6,2.7s0.2,2,0.6,2.7C60.9,14.2,61.5,14.5,62.4,14.5z"/>
			</g>
			<g>
				<path class="st0" d="M68,15.6L67.8,15c0.5,0,0.9,0.1,1.5,0.1h3.2v-1.4h-1.6c-0.6,0-1.2,0.1-1.8,0.1l-0.2-0.6
					c0.5,0,0.9,0.1,1.5,0.1h2.1c0-0.5,0-0.9-0.1-1.3c0.6,0.1,1.1,0.2,1.2,0.4c0.1,0.1,0.1,0.1,0,0.2l-0.2,0.1v0.5h2.1l0.2-0.4
					c0,0,0-0.1,0.1-0.1c0.1-0.2,0.2-0.2,0.2-0.2c0.1,0,0.2,0.1,0.6,0.4s0.5,0.5,0.5,0.5c0,0.1-0.1,0.2-0.4,0.2h-3.4v1.3h3.1l0.2-0.4
					c0,0,0-0.1,0.1-0.1c0.1-0.2,0.2-0.2,0.2-0.2c0.1,0,0.2,0.1,0.6,0.4C77.9,14.8,78,15,78,15c0,0.1-0.1,0.2-0.2,0.2h-8.1
					C69.2,15.4,68.6,15.5,68,15.6z M68.2,11.4L68,10.8c0.5,0,0.9,0.1,1.5,0.1h2.9V10h-1.6c-0.6,0-1.2,0.1-1.8,0.1l-0.4-0.6
					c0.5,0,0.9,0.1,1.5,0.1h2.2V8.7h-2.3V9c0,0-0.1,0.1-0.2,0.1c-0.1,0.1-0.4,0.1-0.5,0.1c-0.1,0-0.2-0.1-0.2-0.2
					c0-0.2,0-0.6,0.1-1.1V7.3c0-0.8,0-1.5-0.1-2l1.1,0.5h5.3l0.1-0.2l0,0C75.9,5.4,76,5.4,76,5.4c0.1,0,0.2,0.1,0.5,0.2
					C76.7,5.7,76.8,6,76.8,6c0,0.1-0.1,0.1-0.2,0.1v2.6c0,0-0.1,0.1-0.4,0.2c0.4,0.2,0.6,0.5,0.9,0.8c0,0.1-0.1,0.2-0.2,0.2h-3.4
					v0.9h3.1l0.2-0.4c0,0,0,0,0.1-0.1s0.2-0.2,0.2-0.2c0.1,0,0.2,0.1,0.5,0.4c0.2,0.2,0.4,0.4,0.4,0.5s-0.1,0.2-0.4,0.2H70
					C69.4,11.2,68.8,11.2,68.2,11.4z M68.5,13.4c-0.1,0-0.2-0.1-0.4-0.2c0-0.1,0-0.2,0-0.4s0.1-0.2,0.2-0.2c0.2-0.1,0.4-0.2,0.6-0.5
					c0.2-0.2,0.4-0.5,0.4-0.7h0.2c0.1,0.5,0,0.8-0.1,1.2c-0.1,0.4-0.2,0.6-0.5,0.7C68.7,13.4,68.6,13.4,68.5,13.4z M70.2,8.3h2.3
					V6.1h-2.3V8.3z M71.9,8.2c-0.1,0.1-0.2,0-0.5-0.1c-0.1-0.2-0.2-0.5-0.5-0.8c-0.2-0.2-0.4-0.5-0.6-0.7l0.1-0.1
					c0.5,0.2,0.8,0.5,1.2,0.7C71.9,7.4,72,7.6,72,7.8C72,8,72,8.1,71.9,8.2z M71.6,13c-0.1,0-0.4,0-0.5-0.1c0-0.5-0.2-0.9-0.5-1.4
					l0.1-0.1c0.5,0.2,0.8,0.4,0.9,0.7c0.1,0.2,0.2,0.5,0.1,0.6C71.9,12.9,71.9,13,71.6,13z M73.3,8.3h2.3V6.9C75.6,7,75.5,7,75.3,7
					c-0.2,0.2-0.7,0.7-1.5,1.3l-0.1-0.1c0.4-0.6,0.6-1.3,0.8-1.9l1.2,0.6V6.1h-2.3C73.3,6.1,73.3,8.3,73.3,8.3z M73.3,9.6h2.2L76,9
					c-0.1,0-0.2,0-0.2,0h-0.1V8.7h-2.3C73.3,8.7,73.3,9.6,73.3,9.6z M74.7,12.9c-0.1,0.1-0.4,0-0.5-0.1c-0.1-0.5-0.4-0.9-0.7-1.4
					l0.1,0c0.5,0.1,0.8,0.4,1.1,0.6c0.1,0.1,0.2,0.4,0.2,0.6C74.9,12.8,74.8,12.9,74.7,12.9z M77.6,13c-0.1,0.1-0.4,0.1-0.5,0
					c-0.1-0.2-0.2-0.6-0.6-0.8c-0.2-0.2-0.5-0.6-0.8-0.8l0.1-0.1c0.6,0.1,1.1,0.2,1.4,0.6c0.2,0.2,0.5,0.5,0.5,0.7
					S77.7,12.9,77.6,13z"/>
			</g>
			<g>
				<path class="st0" d="M81.1,8.8c-0.1,0.1-0.4,0.1-0.5,0c0-0.2-0.1-0.6-0.4-0.8c-0.1-0.2-0.4-0.5-0.6-0.7l0.1-0.1
					c0.4,0.1,0.6,0.2,0.8,0.4l0,0l0,0c0.2-0.8,0.5-1.5,0.6-2.3c0.6,0.2,1.1,0.4,1.2,0.5c0.1,0.1,0.1,0.1,0,0.2L82.2,6
					c-0.5,0.7-0.9,1.3-1.3,1.8c0.2,0.2,0.5,0.5,0.5,0.7C81.3,8.5,81.3,8.7,81.1,8.8z M79.9,14.9l-0.1-0.1c0.1-0.2,0.1-0.5,0.2-0.7
					c0.1-0.4,0.1-0.8,0.2-1.3c0-0.5,0.1-0.8,0-1.2l0.7,0.2c0.5,0,0.6,0.1,0.4,0.2L81,12.2C80.7,13.5,80.3,14.3,79.9,14.9z
					 M81.6,15.8c-0.1,0-0.1,0-0.2-0.1l-0.1-0.1c0.1-0.9,0.1-2,0.1-3.1v-1.8c-0.1,0-0.4,0.1-0.7,0.1c-0.1,0-0.4,0-0.4,0.1
					c-0.1,0.1-0.1,0.2-0.2,0.2l-0.4-0.9c0.1,0,0.2,0,0.6,0c0.2,0,0.5,0,0.6,0c0.2-0.5,0.6-1.1,0.8-1.6c0.5-0.8,0.7-1.5,0.8-2.2
					c0.6,0.2,0.9,0.5,1.2,0.6c0.1,0.1,0.1,0.1,0,0.2h-0.2c-0.6,0.9-1.3,1.9-2.2,2.9c0.2,0,0.7,0,1.4-0.1c0.1,0,0.2,0,0.2,0
					c-0.1-0.2-0.2-0.6-0.5-0.9L82.6,9c0.5,0.4,0.8,0.7,1.1,0.9c0.2,0.2,0.4,0.6,0.2,0.8c0,0.2-0.1,0.4-0.2,0.5s-0.4,0-0.5-0.1
					c0-0.2-0.1-0.5-0.2-0.7l-0.7,0.1v2.2c0,0.9,0,1.9,0.1,2.7c-0.1,0.1-0.1,0.1-0.2,0.2C82,15.8,81.7,15.8,81.6,15.8z M83.6,13.6
					c-0.1,0.1-0.4,0-0.5-0.1c0-0.5-0.2-1.1-0.5-1.8l0.1-0.1c0.5,0.2,0.7,0.6,0.9,0.8c0.1,0.2,0.2,0.5,0.2,0.7
					C83.8,13.4,83.7,13.6,83.6,13.6z M85.7,15.8c0-0.4-0.1-0.5-0.1-0.6c-0.1-0.1-0.4-0.2-0.8-0.4v-0.1c0.4,0,0.7,0,1.1,0.1
					c0.1,0,0.2-0.1,0.2-0.2v-2.2c0,0.1-0.1,0.1-0.2,0.4c-0.7,0.8-1.2,1.4-1.6,2c0,0.1,0,0.2-0.1,0.4l-0.8-0.8c0.5-0.2,1.4-0.9,2.8-2
					V9.5h-0.8c-0.5,0-1.1,0.1-1.5,0.1L83.5,9C84,9,84.4,9.1,85,9.1h2.3l0.1-1.1h-2.2l-0.1,0.6c-0.2,0.1-0.5,0.1-0.8,0
					c0.1-0.4,0.2-0.8,0.4-1.2C84.9,6.6,85,5.7,84.9,5c0.6,0.1,1.1,0.1,1.2,0.2c0.1,0,0.1,0.1,0,0.2l-0.2,0.1c0,0.1,0,0.2,0,0.4v0.1
					h2L88,5.8l0,0c0.1-0.1,0.1-0.1,0.2-0.1c0.1,0,0.2,0.1,0.5,0.4c0.1,0.1,0.2,0.2,0.2,0.4c-0.1,0.1-0.2,0.1-0.4,0.1l-0.4,2.6h0.5
					l0.2-0.4c0,0,0-0.1,0.1-0.1c0.1-0.1,0.2-0.2,0.2-0.2c0.1,0,0.2,0.1,0.5,0.4C90,9,90.1,9.3,90.1,9.3c0,0.1-0.1,0.2-0.2,0.2h-2.7
					c0.1,0.9,0.4,1.6,0.7,2.3c0.2-0.4,0.4-0.7,0.6-1.1c0.2-0.4,0.4-0.7,0.4-1.1c0.6,0.4,0.8,0.6,1.1,0.7c0.1,0.1,0.1,0.1,0,0.1h-0.2
					c-0.5,0.5-1.1,0.9-1.6,1.3c0.5,0.9,1.3,1.6,2.2,2.1v0.1c-0.4,0.1-0.6,0.4-0.7,0.8c-0.7-0.6-1.2-1.2-1.5-1.9
					c-0.4-0.8-0.7-1.8-0.9-3.1v4.3c0,0.4-0.1,0.7-0.2,0.8C86.5,15.7,86.3,15.8,85.7,15.8z M85.4,12.1c-0.1,0.1-0.4,0-0.5-0.1
					c-0.1-0.5-0.4-1.1-0.8-1.8h0.1c0.5,0.2,0.9,0.5,1.2,0.7c0.2,0.2,0.4,0.5,0.4,0.7C85.6,11.8,85.5,12,85.4,12.1z M85.4,7.7h2.1
					l0.2-1.2h-2.1c0,0.1,0,0.2-0.1,0.4C85.5,7.3,85.4,7.6,85.4,7.7z"/>
			</g>
			<g>
				<path class="st0" d="M91.7,9.6L91.4,9c0.4,0,0.8,0.1,1.4,0.1h0.7V8.1h-0.6c-0.2,0-0.6,0.1-0.9,0.1l-0.4-0.6
					c0.4,0,0.7,0.1,1.2,0.1h0.6V6.8h-0.6c-0.4,0-0.7,0.1-1.1,0.1l-0.2-0.6c0.4,0,0.8,0.1,1.3,0.1h0.6c0-0.5,0-0.9-0.1-1.3
					c0.6,0.1,0.9,0.2,1.2,0.4c0.1,0.1,0.1,0.1,0,0.2l-0.2,0.1v0.6h0.7l0.2-0.4c0,0,0-0.1,0.1-0.1c0.1-0.1,0.1-0.2,0.2-0.2
					s0.2,0.1,0.5,0.4c0.2,0.2,0.4,0.4,0.4,0.5c0,0.1-0.1,0.2-0.2,0.2h-1.9v0.9h0.6l0.4-0.4c0,0,0,0,0-0.1C95.2,7.1,95.4,7,95.4,7
					c0.1,0,0.2,0.1,0.5,0.4c0.2,0.2,0.4,0.4,0.4,0.5c0,0.1-0.1,0.2-0.2,0.2h-1.5v1.1h0.8l0.5-0.7c0.1,0.1,0.2,0.2,0.4,0.2
					c0.1-0.2,0.2-0.4,0.2-0.5c0.1-0.4,0.2-0.7,0.4-1.2c0.1-0.5,0.1-0.8,0.1-1.2l1.2,0.4h0.1c0.1,0,0.1,0,0.1,0
					c0.8-0.2,1.5-0.6,2.1-1.1c0.5,0.5,0.7,0.7,0.8,0.8c0.1,0.1,0,0.1-0.1,0.1h-0.2c-0.8,0.2-1.9,0.4-2.9,0.5
					c-0.4,1.1-0.9,1.9-1.6,2.3c0.1,0.1,0.2,0.2,0.5,0.4l0,0c0,0.1-0.1,0.2-0.2,0.2h-2.9C92.9,9.5,92.3,9.5,91.7,9.6z M94.9,15.8
					c0-0.2-0.1-0.5-0.2-0.6c-0.1-0.1-0.4-0.2-0.7-0.2v-0.1c0.4,0,0.6,0,0.9,0c0.1,0,0.2-0.1,0.2-0.2V13h-2.2v0.8
					c0,0.7,0,1.3,0.1,1.6c0,0.1-0.1,0.1-0.2,0.2c-0.1,0.1-0.4,0.1-0.5,0.1c0,0-0.1,0-0.1-0.1l-0.1-0.1c0-0.7,0.1-1.4,0.1-2.2v-1.2
					c0-0.9,0-1.8-0.1-2.3l0.9,0.5h2.1l0.4-0.5l0.9,0.8c0,0-0.1,0-0.1,0.1h2V9.3h-0.5c-0.2,0-0.5,0.1-0.8,0.1l-0.4-0.6
					c0.5,0,0.9,0.1,1.5,0.1h1.9l0.2-0.2c0,0,0,0,0.1-0.1c0.1-0.1,0.1-0.1,0.2-0.1s0.2,0.1,0.5,0.4c0.2,0.2,0.4,0.4,0.4,0.5
					c-0.1,0.1-0.2,0.1-0.4,0.2v1.3l0,0l0.4-0.6c0.2,0.2,0.5,0.5,0.6,0.7c0,0.1-0.1,0.1-0.2,0.1H101v0.7c0,0.1,0,0.2,0,0.5
					c0,0.5,0,0.7,0,0.9c0,0.1-0.1,0.1-0.4,0.2c-0.1,0.1-0.4,0.1-0.5,0.1s-0.2-0.1-0.2-0.2v-0.1V13v-0.2h-1.1v1.9
					c0,0.4-0.1,0.7-0.2,0.8c-0.2,0.2-0.5,0.4-0.9,0.4c0-0.2-0.1-0.5-0.2-0.6c-0.1-0.1-0.4-0.2-0.8-0.4v-0.2c0.4,0,0.7,0,1.1,0.1
					c0.1,0,0.2-0.1,0.2-0.2v-1.8h-0.5c-0.2,0-0.6,0.1-0.8,0.1l-0.4-0.6c0.4,0,0.7,0.1,1.1,0.1h0.9V11h-1.9l-0.1-0.4
					c-0.1,0.1-0.2,0.1-0.4,0.1v4c0,0.4-0.1,0.6-0.2,0.7C95.6,15.7,95.4,15.8,94.9,15.8z M92.8,12.7h0.8v-2h-0.8V12.7z M94.3,12.7
					h0.8v-2h-0.8V12.7z M99.1,8.7c-0.1,0-0.4,0-0.5-0.1c0-0.6-0.1-1.2-0.5-1.8h0.1C98.8,7,99,7.4,99.2,7.6c0.2,0.1,0.2,0.5,0.2,0.7
					C99.5,8.4,99.3,8.7,99.1,8.7z M99.1,10.7h1.1V9.3h-1.1V10.7z M99.1,12.4h1.1V11h-1.1V12.4z M101.6,8.5c-0.1,0.1-0.4,0.1-0.5,0
					c-0.1-0.4-0.2-0.7-0.5-1.1c-0.2-0.4-0.5-0.7-0.7-0.9l0.1-0.1c0.6,0.2,1.1,0.5,1.3,0.8c0.2,0.2,0.4,0.6,0.5,0.8
					C101.8,8.3,101.7,8.4,101.6,8.5z"/>
			</g>
			<g>
				<path class="st0" d="M107.6,15.6c-0.7,0-1.1,0-1.3-0.1c-0.2-0.1-0.4-0.4-0.4-0.8v-3.5c-0.7,0.7-1.5,1.3-2.6,1.6l-0.1-0.1
					c0.7-0.4,1.3-0.9,1.8-1.5c0.6-0.6,0.9-1.2,1.2-1.9h-0.8c-0.6,0-1.1,0.1-1.6,0.1l-0.4-0.6c0.5,0,0.9,0.1,1.5,0.1h1.5V7.3h-0.7
					c-0.5,0-0.8,0.1-1.3,0.1L104,6.8c0.5,0,0.9,0.1,1.5,0.1h0.8c0-0.7,0-1.3-0.1-1.8c0.6,0.1,1.1,0.2,1.2,0.4c0.1,0.1,0.1,0.1,0,0.2
					l-0.1,0.1v1.1h2.5c0-0.7,0-1.3-0.1-1.8c0.6,0.1,1.1,0.2,1.2,0.4c0.1,0.1,0.1,0.1,0,0.2l-0.1,0.1v1.1h0.8l0.2-0.4
					c0,0,0-0.1,0.1-0.1c0-0.1,0.1-0.2,0.1-0.2c0.1,0,0.2,0.1,0.6,0.4c0.4,0.2,0.5,0.5,0.5,0.5c0,0.1-0.1,0.2-0.4,0.2h-2.1v1.6h1.3
					l0.4-0.4c0,0,0-0.1,0.1-0.1c0.1-0.2,0.2-0.2,0.2-0.2c0.1,0,0.2,0.1,0.6,0.4c0.4,0.2,0.5,0.5,0.5,0.5c0,0.1-0.1,0.2-0.2,0.2h-3.1
					c0.4,0.5,0.9,0.9,1.6,1.3c0.6,0.4,1.3,0.7,2,0.8v0.1c-0.4,0.1-0.6,0.4-0.7,0.8c-0.9-0.2-1.5-0.7-2.1-1.2c-0.1,0-0.1,0-0.1,0v0.7
					c0,0.1,0,0.2,0,0.5c0,0.4,0,0.7,0,0.8c0.1,0,0,0.1-0.2,0.1c-0.2,0-0.4,0.1-0.5,0.1h-0.1v-0.5h-3.4v1.6c0,0.1,0,0.2,0.1,0.2
					c0.1,0,0.4,0.1,0.7,0.1h2c0.9,0,1.5,0,1.8,0c0.1,0,0.2,0,0.4-0.1c0.1-0.1,0.2-0.6,0.5-1.2h0.1v1.2c0.4,0.1,0.5,0.2,0.5,0.4
					c0,0.1-0.1,0.2-0.2,0.4c-0.2,0-0.5,0.1-0.9,0.1c-0.5,0-1.2,0-2.1,0H107.6z M107,10.7h3.2l0.4-0.5c-0.2-0.4-0.4-0.6-0.6-0.9h-2.7
					c-0.2,0.5-0.5,0.8-0.8,1.2L107,10.7z M106.9,12.5h3.4V11h-3.4V12.5z M107.2,9h2.5V7.3h-2.5V9z"/>
			</g>
			<g>
				<path class="st0" d="M125.8,10.4l-0.1-0.1c0.9-0.6,1.9-1.4,2.8-2.3c0.9-1.1,1.5-2,1.9-2.7l1.5,0.4c0,0.1-0.2,0.2-0.5,0.2
					c0.5,0.7,1.2,1.3,2.1,1.9c0.8,0.5,1.6,0.9,2.7,1.3v0.2c-0.2,0-0.4,0.1-0.5,0.4c-0.1,0.1-0.2,0.4-0.2,0.5
					c-0.9-0.5-1.8-1.1-2.5-1.8c-0.8-0.7-1.4-1.5-1.8-2.3c-0.6,0.8-1.3,1.6-2.3,2.5C127.8,9.3,126.8,10,125.8,10.4z M126.1,15.7
					l-0.2-0.6c0.5,0,0.9,0.1,1.5,0.1h2.9v-3.5h-1.9c-0.6,0-1.2,0.1-1.8,0.1l-0.4-0.6c0.5,0,0.9,0.1,1.5,0.1h2.5V9.5h-0.7
					c-0.5,0-0.8,0.1-1.3,0.1L128.1,9c0.5,0,0.9,0.1,1.5,0.1h2.5l0.2-0.4c0,0,0-0.1,0.1-0.1c0.1-0.1,0.2-0.2,0.2-0.2
					c0.1,0,0.2,0.1,0.6,0.4c0.2,0.2,0.5,0.4,0.5,0.5c0,0.1-0.1,0.2-0.2,0.2h-2v1.8h2.5l0.2-0.4c0,0,0-0.1,0.1-0.1
					c0.1-0.1,0.2-0.2,0.2-0.2c0.1,0,0.2,0.1,0.6,0.4c0.4,0.2,0.5,0.5,0.5,0.5c0,0.1-0.1,0.2-0.4,0.2h-3.9v3.5h2.8l0.2-0.5
					c0,0,0,0,0.1-0.1c0.1-0.2,0.2-0.4,0.2-0.4c0.1,0,0.2,0.1,0.6,0.5c0.4,0.2,0.5,0.5,0.5,0.6c0,0.1-0.1,0.1-0.4,0.1h-7.7
					C127.3,15.5,126.7,15.6,126.1,15.7z M129.1,14.7c-0.2,0.1-0.4,0-0.6-0.1c0-0.7-0.2-1.4-0.8-2.3l0.1-0.1c0.6,0.4,0.9,0.7,1.3,1.1
					c0.2,0.4,0.4,0.7,0.4,0.9C129.3,14.4,129.2,14.5,129.1,14.7z M132.2,14.8l-0.1-0.1c0.1-0.1,0.1-0.2,0.2-0.5
					c0.4-0.8,0.6-1.5,0.7-2.3l0.7,0.4c0.6,0.1,0.7,0.4,0.5,0.4l-0.2,0.1C133.4,13.6,132.8,14.3,132.2,14.8z"/>
			</g>
			<g>
				<path class="st0" d="M141.1,15.6c-0.7,0-1.3-0.1-1.5-0.4c-0.4-0.2-0.5-0.6-0.5-1.2V9c-0.5,0.5-0.9,0.8-1.4,1.1l-0.1-0.1
					c0.8-0.7,1.5-1.6,2.2-2.7c0.2-0.4,0.4-0.7,0.6-1.2c0.1-0.4,0.2-0.8,0.4-1.1c0.7,0.2,1.1,0.4,1.3,0.5c0.1,0.1,0.1,0.1,0,0.1h-0.2
					c-0.1,0.2-0.2,0.6-0.5,0.8h2.3l0.2-0.2c0,0,0,0,0.1-0.1c0.1-0.1,0.2-0.2,0.2-0.2c0.1,0,0.2,0.1,0.5,0.4c0.2,0.2,0.4,0.5,0.4,0.5
					c-0.1,0.1-0.2,0.1-0.5,0.1c-0.7,0.8-1.3,1.3-1.6,1.6h2.7l0.2-0.4c0,0,0,0,0.1-0.1c0.1-0.1,0.2-0.2,0.2-0.2
					c0.1,0,0.2,0.1,0.6,0.4c0.2,0.2,0.5,0.5,0.5,0.5c-0.1,0.1-0.2,0.2-0.5,0.2v1.1c0,0.8,0,1.5,0.1,2c0,0.1-0.1,0.1-0.4,0.2
					s-0.4,0.1-0.5,0.1s-0.1-0.1-0.1-0.2v-0.1v-0.1v0h-5.6v2.5c0,0.2,0.1,0.4,0.2,0.5c0.1,0.1,0.5,0.1,0.8,0.1h4.3c0.4,0,0.7,0,0.8,0
					c0.2,0,0.4-0.1,0.4-0.2c0.1-0.2,0.4-0.8,0.6-1.6h0.1v1.8c0.2,0.1,0.4,0.1,0.5,0.1s0.1,0.1,0.1,0.2c0,0.2-0.1,0.5-0.5,0.6
					s-1.1,0.2-2,0.2h-4.7V15.6z M140.1,8.5h2.5c0.2-0.4,0.5-0.9,0.9-1.8h-2.6c-0.4,0.6-0.8,1.1-1.2,1.5L140.1,8.5z M140,11.4h2.3
					V8.9H140V11.4z M143.1,11.4h2.5V8.9h-2.5V11.4z"/>
			</g>
			<g>
				<path class="st0" d="M150.5,15.4c-0.1,0-0.1,0-0.2-0.1l-0.1-0.1c0,0,0-0.1,0-0.2c0-0.8,0.1-1.6,0.1-2.6v-1.4
					c-0.2,0.4-0.5,0.8-0.7,1.1l-0.1-0.1c0.7-1.3,1.2-3.2,1.4-5.4h-0.5c-0.2,0-0.5,0.1-0.7,0.1L149.4,6c0.5,0,0.9,0.1,1.5,0.1h1.3
					l0.2-0.4c0,0,0-0.1,0.1-0.1c0.1-0.1,0.2-0.2,0.2-0.2c0.1,0,0.2,0.1,0.6,0.4c0.2,0.2,0.5,0.5,0.5,0.5c0,0.1-0.1,0.2-0.2,0.2h-1.8
					c-0.1,1.1-0.4,2-0.7,2.9l0.2,0.1h0.9l0.2-0.2c0,0,0,0,0-0.1c0.1-0.1,0.2-0.2,0.2-0.2c0.1,0,0.2,0.1,0.5,0.4
					c0.1,0.2,0.2,0.5,0.2,0.5c-0.1,0.1-0.2,0.2-0.5,0.2v1.8c0,0.9,0,1.9,0.1,2.7c0,0.1-0.1,0.1-0.4,0.2c-0.1,0.1-0.4,0.1-0.5,0.1
					s-0.2-0.1-0.2-0.2v-0.1c0-0.1,0-0.1,0-0.1v-0.4h-1.2v0.4c0,0.1,0,0.2,0,0.4c0,0.2,0,0.4,0,0.4c0,0.1-0.1,0.1-0.2,0.2
					C150.8,15.4,150.7,15.4,150.5,15.4z M151.1,13.6h1.2V9.8h-1.2V13.6z M152.9,15.8l-0.1-0.1c0.1-0.1,0.4-0.2,0.6-0.4
					c0.4-0.2,0.6-0.5,0.9-0.8c0.2-0.4,0.5-0.6,0.6-0.9l0.7,0.5c0.6,0.2,0.6,0.4,0.4,0.4h-0.2c-0.4,0.2-0.7,0.6-1.2,0.8
					C153.9,15.6,153.5,15.7,152.9,15.8z M153.9,14.1c-0.1,0-0.2-0.1-0.2-0.2c0-0.4,0-0.7,0.1-1.2V12c0-0.8,0-1.6-0.1-2.2l1.1,0.5
					h1.3V9.4h-0.9c-0.6,0-1.2,0.1-1.8,0.1L153,8.9c0.5,0,0.9,0.1,1.5,0.1h3.6l0.2-0.4c0,0,0,0,0.1-0.1c0.1-0.1,0.2-0.2,0.2-0.2
					c0.1,0,0.2,0.1,0.5,0.4c0.2,0.2,0.5,0.5,0.5,0.5c0,0.1-0.1,0.2-0.4,0.2h-2.7v0.9h1.4l0.1-0.2c0,0,0,0,0-0.1
					c0.1-0.1,0.1-0.2,0.2-0.2s0.2,0.1,0.5,0.4c0.2,0.2,0.4,0.4,0.4,0.5c-0.1,0.1-0.2,0.1-0.4,0.2v1.1c0,0.8,0,1.5,0.1,2
					c0,0.1-0.1,0.1-0.2,0.2c-0.1,0.1-0.4,0.1-0.5,0.1h-0.1v-0.7h-3.5v0.4c0,0,0,0.1-0.1,0.1C154.3,14.1,154.2,14.1,153.9,14.1z
					 M154.9,8.8c-0.2,0-0.2-0.1-0.2-0.2c0-0.2,0-0.6,0.1-0.9V6.9h-0.4c-0.2,0-0.5,0.1-0.7,0.1l-0.4-0.6c0.2,0,0.6,0.1,0.9,0.1h0.5
					c0-0.6,0-1.1-0.1-1.4c0.6,0.1,0.9,0.2,1.1,0.4c0.1,0.1,0.1,0.1,0,0.2l-0.2,0.1v0.7h1.8c0-0.6,0-1.1-0.1-1.4
					c0.6,0.1,0.9,0.2,1.1,0.4c0.1,0.1,0.1,0.1,0,0.2l-0.2,0.1v0.7h0.2l0.2-0.4c0,0,0-0.1,0.1-0.1c0.1-0.1,0.1-0.2,0.2-0.2
					s0.2,0.1,0.5,0.4c0.2,0.2,0.4,0.4,0.4,0.5c0,0.1-0.1,0.2-0.2,0.2h-1.4v0.5c0,0.1,0,0.2,0,0.4c0,0.2,0,0.4,0,0.5
					s-0.1,0.1-0.2,0.2c0,0.1-0.1,0.1-0.2,0.1h-0.1V8.1h-1.8v0.5c0,0-0.1,0.1-0.2,0.1C155.1,8.7,155,8.8,154.9,8.8z M154.6,11.7h1.4
					v-1.2h-1.4V11.7z M154.6,13.1h1.4v-1.1h-1.4V13.1z M155.5,7.7h1.8V6.9h-1.8V7.7z M156.9,11.7h1.4v-1.2h-1.4V11.7z M156.9,13.1
					h1.4v-1.1h-1.4V13.1z M159.5,15.7c-0.1,0.1-0.4,0.2-0.6,0.1c-0.2-0.2-0.5-0.6-0.9-0.9c-0.4-0.4-0.7-0.6-1.2-0.8l0.1-0.1
					c0.7,0.1,1.3,0.2,1.8,0.5c0.4,0.2,0.6,0.5,0.7,0.7C159.7,15.4,159.7,15.6,159.5,15.7z"/>
			</g>
			<g>
				<path class="st0" d="M162.9,9.6c-0.1,0.1-0.4,0.1-0.6,0c-0.1-0.2-0.2-0.5-0.4-0.8c-0.2-0.2-0.4-0.5-0.6-0.6l0.1-0.1
					c0.6,0.1,0.9,0.2,1.3,0.5c0.2,0.2,0.4,0.4,0.4,0.6C163.1,9.3,163.1,9.5,162.9,9.6z M162.5,15.8c-0.2,0-0.4-0.2-0.5-0.6
					c0.1-0.6,0.1-1.1,0.1-1.5s-0.1-0.7-0.2-0.8c-0.1-0.1-0.2-0.1-0.6-0.1v-0.2h0.2h0.2c0.1,0,0.1,0,0.1,0s0.1-0.1,0.1-0.2
					c0.1-0.2,0.2-0.6,0.5-0.9c0.1-0.5,0.7-1.9,1.6-4.2h0.2c-0.8,2.7-1.3,4.2-1.4,4.8c-0.1,0.5-0.1,0.8-0.1,1.1c0,0.1,0,0.4,0.1,0.7
					c0.1,0.5,0.2,0.9,0.2,1.3c0,0.2-0.1,0.5-0.2,0.6C162.9,15.8,162.7,15.8,162.5,15.8z M163.7,7c-0.1,0.1-0.4,0.1-0.6,0
					c-0.1-0.2-0.2-0.5-0.5-0.8c-0.2-0.2-0.5-0.5-0.7-0.7l0.1-0.1c0.6,0.1,1.1,0.2,1.4,0.5c0.2,0.2,0.5,0.5,0.5,0.7
					C163.9,6.7,163.9,6.9,163.7,7z M163.9,15.8l-0.1-0.1c1.5-0.6,2.6-1.4,3.1-2.5h-1.1c-0.6,0-1.2,0.1-1.8,0.1l-0.4-0.6
					c0.5,0,0.9,0.1,1.5,0.1h1.6c0.1-0.5,0.2-0.8,0.1-1.3c0.6,0.1,1.1,0.2,1.2,0.2c0.1,0,0.1,0.1,0,0.1v0.1c-0.1,0.4-0.1,0.6-0.1,0.7
					h2.2l0.2-0.4c0,0,0-0.1,0.1-0.1c0.1-0.1,0.2-0.2,0.2-0.2c0.1,0,0.2,0.1,0.6,0.4c0.2,0.2,0.5,0.4,0.5,0.5s-0.1,0.1-0.2,0.1h-3.2
					c0.6,0.8,1.8,1.4,3.5,1.8v0.1c-0.2,0-0.5,0.1-0.5,0.2c-0.1,0.1-0.2,0.4-0.2,0.6c-1.5-0.5-2.5-1.4-2.9-2.7h-0.1
					c-0.2,0.6-0.7,1.2-1.3,1.5C165.9,15.2,165,15.6,163.9,15.8z M164.5,8.9l-0.1-0.1c0.1-0.1,0.2-0.4,0.4-0.6
					c0.1-0.4,0.4-0.7,0.5-1.2c0.1-0.5,0.2-0.8,0.2-1.2l1.2,0.5c1.3-0.4,2.5-0.7,3.3-1.1l0.5,0.5l0.5,0.5c-0.1,0.1-0.4,0.1-0.6,0
					c-1.2,0.2-2.5,0.4-3.9,0.5C165.8,7.6,165.2,8.3,164.5,8.9z M164.9,12.1l-0.5-1.1c0.6,0,1.5,0,2.6-0.1c0.1-0.1,0.2-0.2,0.4-0.5
					c0.1-0.1,0.2-0.2,0.2-0.4c0.6-0.7,0.9-1.4,1.3-2c0.6,0.4,0.8,0.5,0.9,0.6c0.1,0.1,0.1,0.1,0,0.1h-0.2c-0.6,0.6-1.3,1.3-2.1,1.9
					c0.1,0,0.4,0,0.6,0c0.8,0,1.5-0.1,2-0.1c-0.2-0.4-0.6-0.6-0.8-0.7l0.1-0.1c0.6,0.1,1.2,0.4,1.5,0.6c0.4,0.2,0.5,0.5,0.6,0.7
					c0.1,0.2,0,0.5-0.1,0.6s-0.4,0.1-0.6,0c-0.1-0.2-0.2-0.5-0.5-0.8c-1.2,0.2-2.8,0.5-4.9,0.8C165.1,12.1,165,12.1,164.9,12.1z
					 M166.7,10.5c-0.1,0.1-0.4,0.1-0.5,0c-0.1-0.2-0.2-0.5-0.5-0.8c-0.2-0.2-0.5-0.5-0.7-0.7l0.1-0.1c0.4,0,0.7,0.1,1.1,0.4
					c0.4-0.6,0.6-1.1,0.7-1.6l0.8,0.5c0-0.5-0.2-0.9-0.5-1.5l0.1-0.1c0.5,0.2,0.8,0.5,1.1,0.8c0.1,0.2,0.2,0.5,0.1,0.7
					c-0.1,0.2-0.2,0.4-0.4,0.4c-0.1,0.1-0.2,0.1-0.5,0.1c-0.4,0.4-0.7,0.7-1.1,0.9c0.2,0.2,0.4,0.4,0.4,0.6
					C167,10.2,166.9,10.4,166.7,10.5z M171.1,8.4c-0.1,0.1-0.4,0.1-0.6,0c-0.1-0.4-0.2-0.7-0.6-1.1c-0.2-0.4-0.6-0.7-0.8-0.9
					l0.1-0.1c0.6,0.2,1.2,0.5,1.5,0.7s0.5,0.6,0.6,0.8C171.3,8.2,171.2,8.3,171.1,8.4z"/>
			</g>
			<g>
				<path class="st0" d="M173.8,14.7c-0.1,0-0.1,0-0.2-0.1c-0.1-0.1-0.1,0-0.1-0.1c0.1-0.9,0.1-2,0.1-3.1V8.3c0-0.9,0-1.8-0.1-2.3
					l0.9,0.5h1.9l0.2-0.2c0,0,0,0,0.1-0.1c0.1-0.1,0.1-0.1,0.2-0.1c0.1,0,0.2,0.1,0.5,0.4c0.2,0.2,0.4,0.4,0.4,0.5
					c-0.1,0.1-0.2,0.2-0.5,0.2v4.3c0,0.9,0,1.9,0.1,2.7c0,0.1-0.1,0.1-0.4,0.2c-0.1,0.1-0.2,0.1-0.5,0.1c-0.1,0-0.1-0.1-0.1-0.2
					c0,0,0-0.1,0-0.2s0-0.1,0-0.1v-0.5h-2.1v0.4c0,0.1,0,0.1,0,0.2s0,0.2,0,0.4s-0.1,0.1-0.2,0.2C174,14.7,173.9,14.7,173.8,14.7z
					 M174.4,9.6h0.7V6.7h-0.7V9.6z M174.4,13h0.7V10h-0.7V13z M175.7,9.6h0.7V6.7h-0.7V9.6z M175.7,13h0.7V10h-0.7V13z M179.9,15.8
					c-0.1,0-0.1,0-0.2-0.1l-0.1-0.1c0-0.7,0.1-1.4,0.1-2.1v-1.2h-0.8c-0.5,0-0.9,0.1-1.4,0.1l-0.2-0.6c0.5,0,0.9,0.1,1.5,0.1h0.9
					V9.7H179c-0.4,0-0.8,0.1-1.2,0.1l-0.2-0.6c0.4,0,0.8,0.1,1.4,0.1h0.7V7.5c0-0.9,0-1.8-0.1-2.3c0.6,0.1,1.1,0.4,1.2,0.4
					c0.1,0.1,0.1,0.1,0,0.2l-0.2,0.1v3.5h0.9l0.2-0.4c0,0,0-0.1,0.1-0.1c0.1-0.1,0.1-0.2,0.2-0.2c0.1,0,0.2,0.1,0.5,0.4
					c0.2,0.2,0.4,0.5,0.4,0.5c0,0.1-0.1,0.1-0.4,0.1h-2.1v2.5h1.3l0.2-0.4c0,0,0,0,0.1-0.1c0.1-0.2,0.2-0.2,0.2-0.2
					c0.1,0,0.2,0.1,0.6,0.4c0.4,0.2,0.5,0.5,0.5,0.5c0,0.1-0.1,0.2-0.2,0.2h-2.6v1.1c0,0.9,0,1.5,0.1,2c0,0.1-0.1,0.2-0.4,0.2
					C180.2,15.8,180.1,15.8,179.9,15.8z M177.5,9.1L177.4,9c0.1-0.2,0.2-0.5,0.4-0.7c0.1-0.4,0.2-0.8,0.4-1.2
					c0.1-0.5,0.2-0.8,0.2-1.2l0.7,0.2c0.6,0.1,0.7,0.2,0.4,0.4l-0.2,0.1C178.7,7.7,178.1,8.5,177.5,9.1z M183.1,8.8
					c-0.1,0.1-0.4,0.1-0.6-0.1c-0.1-0.7-0.6-1.5-1.4-2.5l0.1-0.1c0.7,0.4,1.2,0.7,1.5,1.1s0.5,0.7,0.5,0.9
					C183.3,8.4,183.2,8.7,183.1,8.8z"/>
			</g>
			<g>
				<path class="st0" d="M186.6,15.8c-0.1,0-0.1,0-0.2-0.1c-0.1-0.1,0,0,0-0.1c0.1-0.9,0.1-2,0.1-3.1V9.5c-0.4,0.6-0.8,1.2-1.3,1.6
					l-0.1-0.1c0.6-0.9,1.2-2.1,1.6-3.4c0.1-0.4,0.2-0.8,0.4-1.3c0.1-0.5,0.2-0.9,0.2-1.2c0.7,0.2,1.1,0.4,1.3,0.5
					c0.1,0.1,0.1,0.1,0,0.2L188.3,6c-0.4,0.8-0.7,1.6-1.1,2.5l0.5,0.2c0,0.1-0.1,0.1-0.4,0.2V13c0,0.9,0,1.9,0.1,2.7
					c-0.1,0.1-0.1,0.1-0.4,0.2C186.9,15.8,186.8,15.8,186.6,15.8z M187.5,15.8v-0.1c1.3-0.5,2.3-1.2,2.9-2c-0.4-0.5-0.6-0.9-0.8-1.5
					c-0.2,0.5-0.5,0.8-0.7,1.1c0,0.1,0,0.2-0.1,0.2l-0.5-0.8c0.5-0.4,0.9-0.6,1.2-0.8l0.1-0.5l0.4,0.2l-0.4,0.5l0,0
					c0.2,0.5,0.6,0.8,0.9,1.2c0.4-0.6,0.5-1.3,0.5-2.1h-1.8v0.4c0,0-0.1,0.1-0.2,0.1c-0.1,0.1-0.4,0.1-0.5,0.1s-0.2-0.1-0.2-0.2
					c0-0.2,0-0.6,0.1-1.1V9.8c0-0.8,0-1.4-0.1-2l1.1,0.5h1.6V7.1H190c-0.6,0-1.2,0.1-1.8,0.1l-0.4-0.6c0.5,0,0.9,0.1,1.5,0.1h1.5
					c0-0.7,0-1.2-0.1-1.6c0.6,0.1,1.1,0.4,1.2,0.4c0.1,0.1,0.1,0.1,0,0.2l-0.2,0.1v0.9h1.6l0.2-0.4c0,0,0,0,0.1-0.1
					c0.1-0.2,0.2-0.2,0.2-0.2c0.1,0,0.2,0.1,0.6,0.4s0.5,0.5,0.5,0.5c0,0.1-0.1,0.2-0.2,0.2h-3.1v1.3h1.6l0.2-0.4c0,0,0,0,0-0.1
					c0.1-0.1,0.1-0.2,0.2-0.2c0.1,0,0.2,0.1,0.6,0.4c0.4,0.2,0.5,0.5,0.5,0.5c-0.1,0.1-0.2,0.2-0.5,0.2v0.9c0,0.7,0,1.3,0.1,1.6
					c0,0.1-0.1,0.1-0.4,0.2s-0.4,0.1-0.5,0.1c-0.1,0-0.2-0.1-0.2-0.2c0,0,0,0,0-0.1c0,0,0,0,0-0.1v-0.1h-1.8c0,1.1-0.4,1.9-0.8,2.6
					c1.1,0.7,2.5,1.1,4.2,1.1v0.1c-0.2,0.1-0.4,0.1-0.5,0.4c-0.1,0.1-0.2,0.4-0.2,0.6c-1.8-0.2-3.1-0.8-4-1.6
					C190.1,14.9,189.1,15.5,187.5,15.8z M189.4,10.8h1.8l0,0V8.7h-1.8V10.8z M192,10.8h1.8V8.7H192V10.8L192,10.8z"/>
			</g>
			<g>
				<path class="st0" d="M196.9,9.1L196.8,9c0.4-0.5,0.8-1.1,1.3-1.8c0.5-0.8,0.7-1.5,0.8-2.2c0.6,0.2,0.9,0.5,1.2,0.5
					c0.1,0.1,0.1,0.1,0,0.2L200,5.8c0.6,0.2,0.9,0.4,1.3,0.7c0.2,0.2,0.4,0.5,0.4,0.7s-0.1,0.4-0.2,0.5c-0.1,0.1-0.4,0-0.5-0.1
					c-0.2-0.6-0.6-1.1-1.1-1.5c-0.4,0.6-0.8,1.3-1.4,1.9h1.3l0.2-0.4c0,0,0,0,0-0.1c0.1-0.1,0.2-0.2,0.2-0.2c0.1,0,0.2,0.1,0.5,0.4
					c0.2,0.2,0.4,0.4,0.4,0.5c0,0.1-0.1,0.2-0.2,0.2h-2.2L198.4,8C197.7,8.4,197.4,8.8,196.9,9.1z M197.9,15.9c-0.1,0-0.1,0-0.1-0.1
					l-0.1-0.1c0.1-0.9,0.1-2,0.1-3.1v-1.8c0-0.9,0-1.8-0.1-2.3l1.1,0.5h1.8l0.1-0.2c0,0,0,0,0-0.1c0.1-0.1,0.1-0.1,0.2-0.1
					c0.1,0,0.2,0.1,0.5,0.2c0.2,0.2,0.4,0.4,0.4,0.4c0,0.1-0.1,0.1-0.4,0.2v0.8c0,0.7,0,1.3,0.1,1.6c0,0.1-0.1,0.1-0.4,0.2
					c-0.1,0.1-0.4,0.1-0.5,0.1h-0.1v-0.4h-1.9v1.1h1.5l0.2-0.4c0,0,0,0,0.1-0.1c0.1-0.1,0.2-0.2,0.2-0.2c0.1,0,0.2,0.1,0.5,0.4
					s0.4,0.4,0.4,0.5s-0.1,0.1-0.4,0.1h-2.6v1.1h1.6l0.2-0.4c0,0,0,0,0.1-0.1c0.1-0.1,0.2-0.2,0.2-0.2c0.1,0,0.2,0.1,0.5,0.4
					c0.2,0.2,0.4,0.4,0.4,0.5s-0.1,0.2-0.2,0.2h-2.8v0.4c0,0.1,0,0.1,0,0.2c0,0.1,0,0.2,0,0.4c0,0.1-0.1,0.1-0.2,0.2
					C198.2,15.8,198,15.9,197.9,15.9z M198.4,10.3h1.9V9.4h-1.9V10.3z M198.4,11.5h1.9v-0.8h-1.9V11.5z M201.4,8
					c-0.1-0.1-0.1-0.2,0-0.4c0-0.1,0.1-0.2,0.2-0.4c0.1-0.1,0.2-0.4,0.4-0.6c0.1-0.2,0.1-0.5,0.1-0.7h0.2c0.1,0.2,0.1,0.5,0.1,0.7
					h1.3c0-0.7,0-1.2-0.1-1.5c0.6,0.1,0.9,0.2,1.2,0.4c0.1,0.1,0.1,0.1,0,0.2l-0.1,0.1v0.8h1.3l0.2-0.2c0,0,0,0,0.1-0.1
					c0.1-0.1,0.1-0.1,0.2-0.1c0.1,0,0.2,0.1,0.5,0.4c0.2,0.2,0.4,0.5,0.4,0.5c-0.1,0.1-0.2,0.1-0.5,0.1c0,0,0,0-0.1,0.1
					c-0.4,0.4-0.7,0.6-0.8,0.7l-0.1-0.1c0,0,0-0.1,0-0.2C206,7.3,206,7,206,6.9h-3.5c0,0.5-0.1,0.8-0.4,1.1
					c-0.1,0.1-0.2,0.1-0.4,0.1C201.6,8.2,201.5,8.2,201.4,8z M202.4,15.8c-0.1,0-0.1,0-0.2-0.1c-0.1-0.1-0.1-0.1-0.1-0.1
					c0.1-0.9,0.1-2,0.1-3.1v-2.3c0-0.9,0-1.8-0.1-2.3l1.1,0.5h2.1l0.2-0.2c0,0,0,0,0-0.1c0.1-0.1,0.2-0.2,0.2-0.2
					c0.1,0,0.2,0.1,0.5,0.4c0.2,0.2,0.4,0.4,0.4,0.5c-0.1,0.1-0.2,0.1-0.5,0.2v0.8c0,0.7,0,1.2,0.1,1.5c0,0.1-0.1,0.1-0.4,0.2
					c-0.1,0.1-0.4,0.1-0.5,0.1h-0.1v-0.6h-2.3v1.2h2.6l0.2-0.2c0,0,0,0,0.1-0.1c0.1-0.1,0.1-0.1,0.2-0.1c0.1,0,0.2,0.1,0.5,0.4
					s0.4,0.4,0.4,0.5s-0.2,0.1-0.4,0.2v0.9c0,0.8,0,1.4,0.1,1.9c0,0.1-0.1,0.1-0.4,0.2s-0.4,0.1-0.5,0.1c-0.1,0-0.1-0.1-0.1-0.2
					v-0.1v-0.1v-0.5h-2.6v0.2c0,0.1,0,0.1,0,0.2s0,0.1,0,0.1c0,0.1-0.1,0.1-0.2,0.2C202.8,15.8,202.6,15.8,202.4,15.8z M203,10.5
					h2.3V8.7H203V10.5z M203,14.5h2.6v-2.1H203V14.5z"/>
			</g>
			<g>
				<path class="st0" d="M210.8,15.8c-0.1,0-0.1,0-0.2-0.1c-0.1-0.1-0.1-0.1-0.1-0.1s0-0.1,0-0.2c0-0.8,0.1-1.6,0.1-2.5v-1.3
					c-0.4,0.2-0.8,0.5-1.2,0.6c0,0.1-0.1,0.2-0.2,0.4l-0.5-1.2c0.4-0.1,1.1-0.2,1.9-0.6V8.3h-0.7c-0.2,0.7-0.5,1.3-0.8,1.8l-0.1-0.1
					c0.1-0.5,0.2-0.9,0.4-1.5c0.1-0.4,0.1-0.8,0.1-1.3s0-0.9,0-1.2c0.6,0.1,0.9,0.2,1.2,0.4c0.1,0.1,0.1,0.1,0,0.2l-0.2,0.1
					c-0.1,0.5-0.2,0.9-0.4,1.4h0.7V7.5c0-0.9,0-1.8-0.1-2.3c0.6,0.1,1.1,0.4,1.2,0.4c0.1,0.1,0.1,0.1,0,0.2l-0.2,0.1V8h0.2l0.2-0.4
					c0,0,0-0.1,0.1-0.1c0.1-0.2,0.2-0.2,0.2-0.2c0.1,0,0.2,0.1,0.5,0.4s0.5,0.5,0.5,0.6s-0.1,0.2-0.2,0.2h-1.5v2.2
					c0.2-0.1,0.5-0.1,0.8-0.2s0.7-0.2,0.8-0.2v0.1c-0.1,0-0.2,0.1-0.4,0.2c-0.6,0.4-1.1,0.6-1.4,0.8V13c0,0.9,0,1.9,0.1,2.7
					c0,0.1-0.1,0.2-0.2,0.2C211.1,15.8,210.9,15.8,210.8,15.8z M212.5,9.5l-0.4-0.6c0.5,0,0.9,0.1,1.5,0.1h1.3V7.3h-0.7
					c-0.4,0-0.8,0.1-1.3,0.1l-0.2-0.6c0.5,0,0.9,0.1,1.5,0.1h0.7c0-0.7,0-1.3-0.1-1.8c0.6,0.1,1.1,0.2,1.2,0.4
					c0.1,0.1,0.1,0.1,0,0.2l-0.2,0.1v1.1h1.2l0.2-0.4c0,0,0-0.1,0.1-0.1c0.1-0.1,0.2-0.2,0.2-0.2c0.1,0,0.2,0.1,0.6,0.4
					c0.2,0.2,0.5,0.5,0.5,0.5c0,0.1-0.1,0.2-0.4,0.2h-2.5V9h1.6l0.2-0.4c0,0,0-0.1,0.1-0.1c0.1-0.1,0.2-0.2,0.2-0.2
					c0.1,0,0.2,0.1,0.6,0.4c0.2,0.2,0.5,0.5,0.5,0.6s-0.1,0.2-0.4,0.2h-4.7C213.7,9.4,213.1,9.4,212.5,9.5z M216.1,15.8
					c0-0.4-0.1-0.5-0.2-0.7c-0.2-0.1-0.6-0.2-1.1-0.4v-0.1c0.6,0,1.1,0.1,1.6,0.1c0.2,0,0.2-0.1,0.2-0.2v-3.3h-2.2
					c-0.6,0-1.2,0.1-1.8,0.1l-0.5-0.5c0.5,0,0.9,0.1,1.5,0.1h2.7c0-0.7,0-1.2-0.1-1.5c0.6,0.1,1.1,0.4,1.2,0.4
					c0.1,0.1,0.1,0.1,0,0.2l-0.2,0.1v0.7h0.4l0.2-0.4c0,0,0-0.1,0.1-0.1c0.1-0.2,0.2-0.2,0.2-0.2c0.1,0,0.2,0.1,0.5,0.4
					c0.2,0.2,0.4,0.5,0.4,0.5c0,0.1-0.1,0.2-0.2,0.2h-1.5v3.3c0,0.4-0.1,0.7-0.2,0.8C217,15.7,216.5,15.8,216.1,15.8z M214.9,13.8
					c-0.1,0.1-0.4,0.1-0.6-0.1c-0.1-0.4-0.2-0.7-0.5-1.1c-0.2-0.4-0.5-0.6-0.7-0.9l0.1-0.1c0.6,0.2,1.1,0.5,1.4,0.7
					c0.2,0.2,0.5,0.6,0.5,0.8C215.1,13.5,215.1,13.7,214.9,13.8z"/>
			</g>
			<g>
				<path class="st0" d="M221.6,15.9c-0.1,0-0.1,0-0.2-0.1l-0.1-0.1c0.1-0.9,0.1-2,0.1-3.1V8c0-0.9,0-1.8-0.1-2.3l1.2,0.5h6.5
					l0.2-0.4c0,0,0-0.1,0.1-0.1c0.1-0.1,0.2-0.2,0.2-0.2c0.1,0,0.2,0.1,0.6,0.4c0.4,0.2,0.5,0.5,0.5,0.5c0,0.1-0.1,0.1-0.4,0.1h-8
					v8.2h6.9l0.2-0.4c0,0,0-0.1,0.1-0.1c0.1-0.2,0.2-0.2,0.2-0.2c0.1,0,0.2,0.1,0.6,0.4c0.4,0.2,0.5,0.5,0.5,0.6s-0.1,0.2-0.2,0.2
					h-8.3v0.6c0,0-0.1,0.1-0.2,0.2C221.9,15.8,221.7,15.9,221.6,15.9z M223.2,14.2c0,0-0.1,0-0.1-0.1v-0.1c0-0.2,0-0.6,0.1-1.1v-0.6
					c0-0.8,0-1.4-0.1-2l0.9,0.5h1.2l0.1-0.2c0,0,0,0,0-0.1c0.1-0.1,0.1-0.2,0.2-0.2s0.2,0.1,0.5,0.4c0.2,0.2,0.4,0.4,0.4,0.5
					c-0.1,0.1-0.2,0.1-0.4,0.2v0.8c0,0.7,0,1.3,0.1,1.6c0,0.1-0.1,0.1-0.4,0.2c-0.1,0.1-0.4,0.1-0.5,0.1c-0.1,0-0.1-0.1-0.1-0.2
					c0,0,0,0,0-0.1v-0.1v-0.2h-1.3v0.6c0,0-0.1,0.1-0.2,0.1C223.5,14.2,223.3,14.2,223.2,14.2z M223.8,13.1h1.3v-2h-1.3V13.1z
					 M224.4,10.3c-0.1,0-0.2-0.1-0.2-0.2s0-0.4,0-0.6c0-0.1,0-0.2,0-0.2V8.7c0-0.7,0-1.3-0.1-1.8l1.1,0.5h2.2l0.2-0.2c0,0,0,0,0-0.1
					c0.1-0.1,0.2-0.2,0.2-0.2c0.1,0,0.2,0.1,0.5,0.4c0.2,0.2,0.4,0.4,0.4,0.5c-0.1,0.1-0.2,0.1-0.4,0.2v0.7c0,0.1,0,0.2,0,0.5
					c0,0.4,0,0.7,0,0.9c0,0.1-0.1,0.1-0.4,0.2c-0.2,0.1-0.4,0.1-0.5,0.1h0V9.6h-2.3V10c0,0-0.1,0.1-0.2,0.1
					C224.7,10.3,224.6,10.3,224.4,10.3z M225.2,9.4h2.3V7.7h-2.3V9.4z M226.9,14.1c-0.1,0-0.1-0.1-0.1-0.2s0-0.4,0-0.7
					c0-0.1,0-0.2,0-0.4v-0.5c0-0.7,0-1.4-0.1-1.9l0.9,0.5h1.2l0.2-0.2c0,0,0,0,0.1-0.1c0.1-0.1,0.1-0.2,0.2-0.2s0.2,0.1,0.5,0.4
					c0.2,0.2,0.4,0.4,0.4,0.5c-0.1,0.1-0.2,0.1-0.4,0.2v0.7c0,0.7,0,1.2,0.1,1.5c0,0.1-0.1,0.1-0.4,0.2c-0.1,0.1-0.4,0.1-0.5,0.1
					H229v-0.6h-1.5v0.4c0,0-0.1,0.1-0.2,0.1C227.1,14.1,227,14.1,226.9,14.1z M227.4,13.1h1.4v-2h-1.4V13.1z"/>
			</g>
			<g>
				<path class="st0" d="M77.4,36.7c-1.1-0.4-1.9-0.8-2.6-1.3c-0.7-0.6-1.2-1.4-1.5-2.5h-1.2v2.3c0.8-0.1,1.5-0.2,2.2-0.4v0.2
					c-1.4,0.5-2.7,0.9-4,1.3c0,0.1-0.1,0.2-0.2,0.2l-0.6-1.1c0.2,0,0.6-0.1,1.2-0.1c0.2,0,0.5-0.1,0.6-0.1V33h-1.6
					c-0.4,1.5-0.9,2.8-1.9,3.8v-0.1c0.6-0.9,0.9-2.1,1.2-3.4c0.1-0.9,0.2-2.1,0.2-3.6v-1.6c0-0.7,0-1.2-0.1-1.6l1.2,0.5h6l0.2-0.2
					c0,0,0,0,0.1-0.1s0.2-0.2,0.2-0.2c0.1,0,0.2,0.1,0.6,0.4c0.4,0.2,0.5,0.4,0.5,0.5c-0.1,0.1-0.2,0.2-0.5,0.2v0.7
					c0,0.1,0,0.2,0,0.4c0,0.4,0,0.6,0,0.8c0,0.1-0.1,0.1-0.4,0.2c-0.2,0.1-0.4,0.1-0.5,0.1h-0.1v-0.4h-6.2v0.6c0,0.5,0,0.8,0,1.1
					h1.9c0-0.6,0-1.1-0.1-1.4c0.6,0.1,0.9,0.2,1.1,0.4c0.1,0.1,0.1,0.1,0,0.2L72.9,30v0.8h1.9c0-0.6,0-1.1-0.1-1.4
					c0.6,0.1,0.9,0.2,1.1,0.4c0.1,0.1,0.1,0.1,0,0.2l-0.1,0.1v0.7h0.9l0.2-0.4c0,0,0,0,0.1-0.1s0.2-0.2,0.2-0.2
					c0.1,0,0.2,0.1,0.5,0.4c0.2,0.2,0.5,0.4,0.5,0.5c0,0.1-0.1,0.2-0.4,0.2h-2.1v1.6h1.2l0.2-0.4c0,0,0,0,0-0.1
					c0.1-0.2,0.2-0.2,0.2-0.2c0.1,0,0.2,0.1,0.5,0.4c0.2,0.2,0.5,0.5,0.5,0.5c0,0.1-0.1,0.1-0.2,0.1h-4.3c0.2,0.6,0.7,1.1,1.2,1.5
					c0.7-0.5,1.3-0.9,1.6-1.5c0.5,0.4,0.7,0.6,0.8,0.7s0,0.1-0.1,0.1h-0.2c-0.6,0.2-1.3,0.5-2,0.8c0.8,0.6,1.8,0.9,3.2,1.2V36
					C77.7,36,77.5,36.3,77.4,36.7z M69.8,32.6h2V31H70v-0.1C70,31.6,69.9,32.1,69.8,32.6z M70,28.6h6.2V27H70V28.6z M72.7,32.6h1.9
					V31h-1.9V32.6z"/>
			</g>
			<g>
				<path class="st0" d="M80,36.4l-0.4-0.6c0.5,0,0.9,0.1,1.5,0.1h0.9v-4.6c0-0.9,0-1.8-0.1-2.3l1.2,0.5h3.5l0.2-0.4
					c0,0,0-0.1,0.1-0.1c0.1-0.1,0.1-0.2,0.2-0.2c0.1,0,0.2,0.1,0.6,0.4c0.4,0.2,0.5,0.5,0.5,0.5c-0.1,0.1-0.2,0.2-0.5,0.2v6h0.7
					l0.2-0.5c0,0,0,0,0.1-0.1c0.1-0.2,0.2-0.4,0.2-0.4c0.1,0,0.2,0.1,0.6,0.5c0.4,0.2,0.5,0.5,0.5,0.6s-0.1,0.2-0.2,0.2h-8
					C81.1,36.3,80.6,36.3,80,36.4z M80.2,29.8c-0.2,0-0.4-0.1-0.4-0.2c-0.1-0.2,0-0.5,0.4-0.7c0.2-0.1,0.5-0.4,0.6-0.7
					C81,27.8,81,27.5,81,27h0.2c0.1,0.2,0.1,0.5,0.1,0.7h2.9c0-0.7,0-1.2-0.1-1.6c0.7,0.1,1.1,0.2,1.2,0.4c0.1,0.1,0.1,0.1,0,0.2
					l-0.2,0.1v0.9h3.3l0.2-0.2c0,0,0,0,0.1-0.1c0.1-0.1,0.2-0.2,0.2-0.2c0.1,0,0.2,0.1,0.5,0.4c0.2,0.2,0.4,0.5,0.4,0.6
					c-0.1,0.1-0.2,0.1-0.5,0.1c-0.5,0.5-0.9,0.9-1.4,1.2l-0.1-0.1c0.2-0.4,0.4-0.8,0.6-1.3h-7.2c0,0.4,0,0.7-0.2,1.1
					c-0.1,0.2-0.2,0.5-0.5,0.6C80.6,29.7,80.4,29.8,80.2,29.8z M82.9,31.6h3.9v-1.8h-3.9V31.6z M82.9,33.7h3.9v-1.8h-3.9V33.7z
					 M82.9,35.9h3.9V34h-3.9V35.9z"/>
			</g>
			<g>
				<path class="st0" d="M91.6,36.7l-0.1-0.1c0.8-0.7,1.4-1.5,1.8-2.6c-0.2-0.5-0.5-1.1-0.6-1.8c0,0.1-0.1,0.2-0.1,0.4
					c-0.2,0.4-0.4,0.7-0.5,0.8c0.1,0.1,0,0.2,0,0.2l-0.6-0.6c0.4-0.4,0.7-0.7,1.1-1.1l0.1-0.5l0.4,0.1l-0.2,0.5
					c0.1,0.6,0.4,1.1,0.7,1.5c0.2-0.8,0.4-1.8,0.5-2.8h-1.1l-0.2,0.6c-0.2,0.1-0.5,0-0.8-0.1c0.6-1.2,1.2-2.5,1.6-3.9h-0.6
					c-0.4,0-0.7,0.1-1.1,0.1L91.5,27c0.4,0,0.8,0.1,1.3,0.1h0.6l0.2-0.2c0,0,0,0,0.1-0.1s0.1-0.2,0.2-0.2c0.1,0,0.2,0.1,0.5,0.4
					c0.2,0.2,0.4,0.5,0.4,0.5c-0.1,0.1-0.2,0.1-0.6,0.2c-0.4,0.7-0.7,1.6-1.3,2.8h0.8l0.2-0.2c0,0,0,0,0.1-0.1s0.2-0.2,0.2-0.2
					c0.1,0,0.2,0.1,0.5,0.4s0.4,0.4,0.4,0.5s-0.2,0.1-0.4,0.1c-0.2,1.4-0.5,2.5-0.9,3.4c0.5,0.6,1.2,0.9,2,1.2
					c0.7,0.1,1.6,0.2,2.9,0.2c1.5,0,2.6,0,3.2,0v0.1c-0.1,0-0.2,0.1-0.4,0.2c-0.1,0.1-0.1,0.2-0.1,0.5h-2.6c-1.3,0-2.3-0.1-3.1-0.4
					c-0.8-0.2-1.5-0.8-2-1.5C93.1,35.4,92.4,36.1,91.6,36.7z M97.5,35.3c-0.1,0-0.2-0.1-0.2-0.2c0-0.1,0-0.4,0-0.6
					c0-0.1,0-0.2,0-0.2v-0.5h-0.8c-0.5,0-1.1,0.1-1.6,0.1l-0.4-0.6c0.5,0,0.9,0.1,1.5,0.1h1.3v-1.2h-0.7c-0.5,0-0.8,0.1-1.3,0.1
					l-0.4-0.6c0.5,0,0.9,0.1,1.5,0.1h0.8v-1.2h-0.7c-0.4,0-0.8,0.1-1.3,0.1l-0.4-0.6c0.5,0,0.9,0.1,1.5,0.1h0.7v-1.2h-0.9
					c-0.6,0-1.2,0.1-1.8,0.1l-0.4-0.6c0.5,0,0.9,0.1,1.5,0.1H97v-1.2h-0.7c-0.4,0-0.8,0.1-1.2,0.1l-0.4-0.6c0.5,0,0.9,0.1,1.5,0.1
					H97c0-0.6,0-0.9-0.1-1.3c0.6,0.1,1.1,0.4,1.2,0.4c0.1,0.1,0.1,0.1,0,0.2l-0.2,0.1v0.6h1.4l0.2-0.2c0,0,0,0,0.1-0.1
					c0.1-0.1,0.1-0.2,0.2-0.2c0.1,0,0.2,0.1,0.5,0.4c0.2,0.2,0.4,0.4,0.4,0.5c-0.1,0.1-0.2,0.2-0.5,0.2v1.1h0.5l0.2-0.4
					c0,0,0-0.1,0.1-0.1c0.1-0.1,0.1-0.2,0.2-0.2s0.2,0.1,0.5,0.4c0.2,0.2,0.4,0.5,0.4,0.5c0,0.1-0.1,0.2-0.2,0.2h-1.2v0.5
					c0,0.1,0,0.2,0,0.4c0,0.4,0,0.6,0,0.7c0,0.1-0.1,0.1-0.4,0.2c-0.1,0.1-0.4,0.1-0.5,0.1h-0.1v-0.4h-1.5v1.2h1.5l0.2-0.4
					c0,0,0,0,0-0.1c0.1-0.1,0.2-0.2,0.2-0.2c0.1,0,0.2,0.1,0.5,0.4c0.2,0.2,0.4,0.4,0.4,0.5s-0.1,0.2-0.2,0.2h-2.7v1.2h1.8l0.2-0.4
					c0,0,0-0.1,0.1-0.1c0.1-0.2,0.2-0.2,0.2-0.2c0.1,0,0.2,0.1,0.6,0.4c0.4,0.2,0.5,0.5,0.5,0.5c0,0.1-0.1,0.2-0.4,0.2h-3.2v0.5
					c0,0.1,0,0.2,0,0.4c0,0.2,0,0.4,0,0.5c0,0.1-0.1,0.1-0.2,0.2C97.8,35.3,97.7,35.3,97.5,35.3z M98.2,28.7h1.5v-1.2h-1.5V28.7z
					 M98.2,30.4h1.5v-1.2h-1.5V30.4z"/>
			</g>
			<g>
				<path class="st0" d="M108.3,36.7c-0.1,0-0.2-0.1-0.2-0.2c0-0.4,0-0.8,0.1-1.4v-0.8c-1.1,1.1-2.6,1.9-4.7,2.3l-0.1-0.2
					c1.6-0.6,2.9-1.5,3.9-2.6h-1.8c-0.6,0-1.2,0.1-1.8,0.1l-0.4-0.6c0.5,0,0.9,0.1,1.5,0.1h3.1v-1.1c-0.5,0.2-0.9,0.4-1.5,0.5
					l-0.1-0.2c0.7-0.2,1.2-0.5,1.5-0.7c0.4-0.2,0.6-0.7,0.7-1.1H108c-0.2,0-0.5,0.1-0.7,0.1l-0.4-0.6c0.2,0,0.7,0.1,1.1,0.1h0.5
					c0.1-0.4,0.1-0.7,0.1-1.2h-0.4c-0.2,0-0.4,0.1-0.6,0.1V29c0.5,0,0.9,0.1,1.5,0.1h1.9l0.1-0.1c-0.1,0-0.2,0-0.5-0.1
					c0-0.4-0.2-0.8-0.5-1.2h-0.7c-0.5,0.5-0.9,0.9-1.5,1.3l-0.1-0.1c0.2-0.2,0.4-0.4,0.5-0.6c0.2-0.4,0.5-0.7,0.6-1.2
					c0.2-0.5,0.4-0.8,0.4-1.2c0.6,0.2,0.9,0.4,1.1,0.5c0.1,0.1,0.1,0.1,0,0.2l-0.2,0.1c-0.1,0.2-0.2,0.5-0.5,0.7h2.2l0.2-0.4
					c0,0,0,0,0.1-0.1c0.1-0.1,0.2-0.2,0.2-0.2c0.1,0,0.2,0.1,0.6,0.4c0.4,0.2,0.5,0.4,0.5,0.5s-0.1,0.2-0.2,0.2h-2.5
					c0.2,0.1,0.5,0.2,0.6,0.5c0.1,0.1,0.1,0.4,0.1,0.5c0.4,0.4,0.6,0.6,0.7,0.7c0.1,0.1,0,0.1,0,0.2h-0.1v2c0,0.1,0,0.1,0,0.1h0.1
					h0.4h0.4c0.1,0,0.1,0,0.1-0.1c0-0.1,0.1-0.4,0.2-0.9c0-0.1,0-0.1,0-0.2h0.1v1.2c0.1,0.1,0.2,0.2,0.2,0.4c0,0.2-0.1,0.4-0.2,0.4
					c-0.2,0.1-0.5,0.1-0.9,0.1H112c-0.4,0-0.6,0-0.6-0.1c-0.2-0.1-0.2-0.4-0.2-0.6v-0.9c0,0.1-0.1,0.1-0.2,0.1h-1.4
					c-0.2,0.7-0.7,1.2-1.3,1.5c0.5,0.1,0.8,0.2,0.9,0.4c0.1,0.1,0.1,0.1,0,0.2l-0.2,0.1v0.5h3.1l0.2-0.4c0,0,0-0.1,0.1-0.1
					c0.1-0.1,0.2-0.2,0.2-0.2c0.1,0,0.2,0.1,0.6,0.4c0.2,0.2,0.5,0.4,0.5,0.5s-0.1,0.2-0.2,0.2h-3.9c0.5,0.4,1.2,0.7,2,1.1
					c0.8,0.2,1.5,0.5,2.3,0.6v0.1c-0.4,0.1-0.6,0.4-0.7,0.8c-0.8-0.2-1.6-0.6-2.2-1.1c-0.7-0.5-1.3-1.1-1.8-1.6l0,0v0.8
					c0,0.7,0,1.3,0.1,1.6c0,0.1-0.1,0.1-0.2,0.2C108.6,36.7,108.4,36.7,108.3,36.7z M103.5,29.2l-0.1-0.1c0.2-0.2,0.5-0.5,0.7-0.8
					c0.2-0.4,0.5-0.7,0.6-1.2c0.2-0.5,0.4-0.8,0.4-1.2c0.6,0.2,0.9,0.5,1.1,0.6c0.1,0.1,0.1,0.1,0,0.2h-0.2
					c-0.1,0.2-0.2,0.5-0.4,0.6h1.9l0.2-0.4c0,0,0-0.1,0.1-0.1c0.1-0.1,0.1-0.2,0.2-0.2s0.2,0.1,0.5,0.4s0.4,0.4,0.4,0.5
					c0,0.1-0.1,0.2-0.2,0.2h-2.1c0.4,0.2,0.6,0.5,0.6,0.7s0,0.4-0.2,0.5c-0.2,0.1-0.4,0.1-0.6-0.1c0-0.4-0.1-0.7-0.4-1.2h-0.6
					C104.7,28.3,104.2,28.9,103.5,29.2z M104,32.9l-0.5-1.1c0.2,0,0.8-0.1,1.6-0.2c0.1,0,0.1,0,0.1,0v-1.8h-0.5
					c-0.2,0-0.6,0.1-0.8,0.1l-0.4-0.6c0.5,0,0.9,0.1,1.5,0.1h1.2l0.2-0.4c0,0,0,0,0.1-0.1c0.1-0.1,0.2-0.2,0.2-0.2
					c0.1,0,0.2,0.1,0.5,0.4c0.2,0.2,0.4,0.4,0.4,0.5s-0.1,0.2-0.2,0.2h-1.4v1.6c0.2,0,0.6-0.1,0.9-0.1c0.2,0,0.5-0.1,0.6-0.1v0.1
					c-1.2,0.5-2.3,0.9-3.5,1.3C104.3,32.7,104.2,32.9,104,32.9z M111.2,30.7v-1.3h-1.4c0,0.5-0.1,0.9-0.1,1.2h0.4l0.5-0.6
					C110.6,30.3,111,30.5,111.2,30.7z"/>
			</g>
			<g>
				<path class="st0" d="M115.9,36.4c-0.1,0-0.1,0-0.2-0.1c-0.1-0.1-0.1-0.1-0.1-0.1c0.1-0.9,0.1-2,0.1-3.1V30c0-0.9,0-1.8-0.1-2.3
					l1.1,0.5h0.2c0.1-0.7,0.2-1.4,0.2-2.1c0.7,0.1,1.1,0.2,1.3,0.4c0.1,0.1,0.1,0.1,0,0.2h-0.1c-0.2,0.5-0.6,1.1-0.9,1.5h1.3
					l0.2-0.2c0,0,0,0,0.1-0.1c0.1-0.1,0.1-0.2,0.2-0.2s0.2,0.1,0.5,0.4c0.2,0.2,0.4,0.4,0.4,0.5c-0.1,0.1-0.2,0.2-0.5,0.2v4.2
					c0,0.9,0,1.9,0.1,2.7c0,0.1-0.1,0.1-0.4,0.2c-0.2,0.1-0.4,0.1-0.5,0.1s-0.1-0.1-0.1-0.2c0,0,0-0.1,0-0.2s0-0.1,0-0.1V35h-2.1
					v0.4c0,0.1,0,0.1,0,0.2s0,0.2,0,0.4s-0.1,0.1-0.2,0.2C116.3,36.3,116.1,36.4,115.9,36.4z M116.6,31.3h2.1v-2.8h-2.1V31.3z
					 M116.6,34.7h2.1v-3.1h-2.1V34.7z M122.8,36.7c0-0.4-0.1-0.6-0.2-0.7s-0.6-0.2-1.2-0.4v-0.2c0.8,0.1,1.3,0.1,1.5,0.1
					s0.4,0,0.5-0.1c0.2-0.2,0.4-0.9,0.5-2.1c0.1-1.1,0.1-2.7,0.2-4.8h-2.5c-0.5,1.1-1.1,1.8-1.6,2.5l-0.1-0.1
					c0.4-0.6,0.7-1.4,1.1-2.3c0.1-0.4,0.2-0.8,0.4-1.3c0.1-0.5,0.1-0.9,0.1-1.2c0.7,0.2,1.1,0.4,1.3,0.5c0.1,0.1,0.1,0.1,0,0.2
					l-0.2,0.1c-0.1,0.4-0.4,0.8-0.6,1.4h2.2l0.2-0.2c0,0,0,0,0-0.1c0.1-0.1,0.2-0.2,0.2-0.2c0.1,0,0.2,0.1,0.5,0.4
					c0.2,0.2,0.4,0.5,0.4,0.5c-0.1,0.1-0.2,0.1-0.5,0.2c0,2.2-0.1,4-0.2,5.2c-0.1,1.3-0.4,2-0.6,2.3
					C123.9,36.5,123.4,36.7,122.8,36.7z M122.6,33.1c-0.2,0.1-0.4,0.1-0.6-0.1c0-0.4-0.2-0.8-0.5-1.3c-0.2-0.5-0.5-0.8-0.8-1.2
					l0.1-0.1c0.7,0.2,1.2,0.6,1.5,0.9c0.2,0.4,0.5,0.7,0.5,0.9C122.8,32.7,122.7,33,122.6,33.1z"/>
			</g>
			<g>
				<path class="st0" d="M131.2,36.7c0-0.4-0.1-0.6-0.4-0.7c-0.2-0.2-0.7-0.4-1.3-0.4v-0.1c0.7,0,1.3,0.1,1.9,0.1
					c0.2,0,0.4-0.1,0.4-0.2v-2.7h-2.8c-0.6,0-1.2,0.1-1.8,0.1l-0.4-0.6c0.5,0,0.9,0.1,1.5,0.1h3.3v-2.2h-2.1c-0.6,0-1.2,0.1-1.8,0.1
					l-0.4-0.6c0.5,0,0.9,0.1,1.5,0.1h2.7v-2.1c-1.5,0.1-2.8,0.2-4.1,0.2v-0.2c1.3-0.1,2.7-0.4,4.2-0.7c1.4-0.4,2.6-0.6,3.4-0.9
					c0.5,0.5,0.7,0.7,0.8,0.8c0.1,0.1,0,0.1-0.1,0.1h-0.4c-0.9,0.2-1.9,0.4-2.9,0.5v2.2h2.3l0.2-0.4c0,0,0-0.1,0.1-0.1
					c0.1-0.2,0.2-0.2,0.2-0.2c0.1,0,0.2,0.1,0.6,0.4c0.4,0.2,0.5,0.5,0.5,0.6c0,0.1-0.1,0.2-0.4,0.2h-3.8v2.2h2.9l0.2-0.4
					c0,0,0-0.1,0.1-0.1c0.1-0.2,0.2-0.2,0.2-0.2c0.1,0,0.2,0.1,0.6,0.5c0.4,0.2,0.5,0.5,0.5,0.6s-0.1,0.2-0.4,0.2h-4.5v2.7
					c0,0.4-0.1,0.7-0.2,0.9C132.3,36.5,131.9,36.6,131.2,36.7z"/>
			</g>
			<g>
				<path class="st0" d="M139.3,35.9l-0.4-0.6c0.5,0,0.9,0.1,1.5,0.1h3.2v-7.3h-1.9c-0.6,0-1.2,0.1-1.8,0.1l-0.2-0.6
					c0.5,0,0.9,0.1,1.5,0.1h5.5l0.2-0.5c0,0,0,0,0.1-0.1c0.1-0.2,0.2-0.4,0.2-0.4c0.1,0,0.2,0.1,0.6,0.5c0.4,0.2,0.5,0.5,0.5,0.6
					s-0.1,0.2-0.4,0.2h-3.6v7.3h2.9l0.2-0.5l0.1-0.1c0.1-0.2,0.2-0.2,0.2-0.2c0.1,0,0.2,0.1,0.6,0.5c0.4,0.2,0.5,0.5,0.5,0.6
					c0,0.1-0.1,0.2-0.2,0.2h-8C140.4,35.8,139.9,35.8,139.3,35.9z"/>
			</g>
			<g>
				<path class="st0" d="M152.8,36.7c-0.1,0-0.1,0-0.2-0.1l-0.1-0.1c0-0.8,0.1-1.6,0.1-2.6v-1.4c-0.5,0.9-1.1,1.8-1.6,2.5l-0.1-0.1
					c0.7-1.2,1.3-2.6,1.6-4.3h-0.5c-0.2,0-0.5,0.1-0.8,0.1l-0.4-0.6c0.4,0,0.7,0.1,1.2,0.1h0.6v-1.8c0-0.9,0-1.8-0.1-2.3
					c0.6,0.1,1.1,0.2,1.2,0.4c0.1,0.1,0.1,0.1,0,0.2l-0.2,0.1v3.4h0.4l0.5-0.7c0.2,0.2,0.5,0.4,0.7,0.6v-0.2h2.5v-0.9h-0.7
					c-0.4,0-0.8,0.1-1.2,0.1l-0.4-0.6c0.4,0,0.9,0.1,1.4,0.1h0.7v-0.9h-2.1v-0.2c-0.1,0-0.1,0-0.2,0c-0.4,0.9-0.8,1.6-1.2,2.1
					l-0.2-0.1c0,0,0-0.1,0-0.2c0-0.1,0-0.1,0-0.1c0.2-0.8,0.4-1.6,0.4-2.5l1.3,0.5c0,0,0,0.1-0.1,0.1h2c0-0.5,0-0.9-0.1-1.3
					c0.6,0.1,0.9,0.2,1.2,0.4c0.1,0.1,0.1,0.1,0,0.2l-0.2,0.1v0.8h1.3l0.2-0.4c0,0,0,0,0.1-0.1c0.1-0.1,0.2-0.2,0.2-0.2
					c0.1,0,0.2,0.1,0.5,0.4c0.2,0.2,0.4,0.4,0.4,0.5c0,0.1-0.1,0.2-0.2,0.2h-2.1v0.8h1.2l0.2-0.4c0,0,0,0,0-0.1
					c0.1-0.1,0.2-0.2,0.2-0.2c0.1,0,0.2,0.1,0.5,0.4c0.2,0.2,0.4,0.4,0.4,0.5c0,0.1-0.1,0.2-0.2,0.2h-2.2v0.9h1.5l0.2-0.4
					c0,0,0,0,0-0.1c0.1-0.1,0.2-0.2,0.2-0.2c0.1,0,0.2,0.1,0.5,0.4c0.2,0.2,0.4,0.4,0.4,0.5c0,0.1-0.1,0.2-0.2,0.2h-5.9l0.1,0.1
					c0,0.1-0.1,0.2-0.2,0.2h-1.5v0.6c0.5,0.2,0.9,0.5,1.2,0.8c0.2,0.2,0.4,0.6,0.4,0.8c0,0.2-0.1,0.4-0.2,0.5
					c-0.1,0.1-0.4,0-0.5-0.1c-0.1-0.5-0.4-1.1-0.8-1.6v2.2c0,0.9,0,1.9,0.1,2.7c0,0.1-0.1,0.1-0.2,0.2
					C153,36.7,152.9,36.7,152.8,36.7z M151.8,29.4c-0.1,0.1-0.4,0-0.5-0.1c0-0.6-0.1-1.4-0.4-2.3h0.1c0.4,0.4,0.7,0.7,0.8,1.2
					c0.1,0.4,0.2,0.6,0.1,0.9C152.1,29.2,151.9,29.4,151.8,29.4z M155.6,36.7c-0.1,0-0.1,0-0.1-0.1l-0.1-0.1c0-0.7,0.1-1.4,0.1-2.2
					V33c0-0.9,0-1.8-0.1-2.3l1.1,0.5h2.9l0.2-0.2c0,0,0,0,0.1-0.1c0.1-0.1,0.1-0.1,0.2-0.1c0.1,0,0.2,0.1,0.6,0.4
					c0.2,0.2,0.5,0.4,0.5,0.5c-0.1,0.1-0.2,0.2-0.5,0.2v3.9c0,0.4-0.1,0.6-0.2,0.8c-0.1,0.2-0.5,0.4-1.1,0.4c0-0.2-0.1-0.5-0.2-0.6
					c-0.1-0.1-0.5-0.2-0.8-0.4v-0.2c0.4,0,0.8,0,1.2,0.1c0.1,0,0.1,0,0.2,0c0,0,0-0.1,0-0.2v-1.6h-3.2v0.8c0,0.7,0,1.3,0.1,1.6
					c0,0.1-0.1,0.1-0.2,0.2C155.9,36.6,155.8,36.7,155.6,36.7z M156.3,33.4h1.2v-2h-1.2V33.4z M158.3,33.4h1.2v-2h-1.2V33.4z"/>
			</g>
			<g>
				<path class="st0" d="M163.5,36.6c-0.1,0-0.1,0-0.1-0.1v-0.1c0-0.5,0-0.9,0.1-1.6v-0.9c0-0.9,0-1.8-0.1-2.3l1.1,0.5h2l0.2-0.2
					c0,0,0,0,0.1-0.1c0.1-0.1,0.1-0.1,0.2-0.1s0.2,0.1,0.6,0.4c0.2,0.2,0.5,0.4,0.5,0.5c-0.1,0.1-0.2,0.2-0.5,0.2v1.3
					c0,1.1,0,1.9,0.1,2.5c0,0.1-0.1,0.1-0.4,0.2c-0.2,0.1-0.4,0.1-0.5,0.1s-0.1-0.1-0.1-0.2c0,0,0-0.1,0-0.2s0-0.1,0-0.1v-0.5h-2.1
					v0.2c0,0.1,0,0.1,0,0.2s0,0.1,0,0.2s-0.1,0.1-0.2,0.2C163.8,36.6,163.6,36.6,163.5,36.6z M164.2,35.2h2.1v-3.1h-2.1V35.2z
					 M165.2,31.1c-0.1,0-0.2-0.1-0.2-0.2c0-0.4,0-0.8,0.1-1.4v-0.8c0-0.9,0-1.8-0.1-2.3l1.1,0.5h3.6l0.2-0.4c0,0,0-0.1,0.1-0.1
					c0.1-0.1,0.1-0.2,0.2-0.2c0.1,0,0.2,0.1,0.6,0.4c0.2,0.2,0.5,0.5,0.5,0.5c-0.1,0.1-0.2,0.2-0.5,0.2v1.2c0,0.9,0,1.8,0.1,2.2
					c0,0.1-0.1,0.1-0.4,0.2c-0.2,0.1-0.4,0.1-0.5,0.1c-0.1,0-0.2-0.1-0.2-0.2c0,0,0-0.1,0-0.2c0-0.1,0-0.1,0-0.1V30h-3.8v0.2
					c0,0.1,0,0.1,0,0.2s0,0.1,0,0.1c0,0.1-0.1,0.1-0.2,0.2C165.6,31,165.3,31.1,165.2,31.1z M165.9,29.8h3.8v-2.7h-3.8V29.8z
					 M168.6,36.6c-0.1,0-0.1,0-0.1-0.1v-0.1c0-0.5,0.1-0.9,0.1-1.6v-0.9c0-0.9,0-1.8-0.1-2.3l1.1,0.5h2.1l0.2-0.2c0,0,0,0,0.1-0.1
					c0.1-0.1,0.1-0.1,0.2-0.1c0.1,0,0.2,0.1,0.6,0.4c0.2,0.2,0.5,0.4,0.5,0.5c-0.1,0.1-0.2,0.2-0.5,0.2v1.3c0,1.1,0,2,0.1,2.6
					c0,0.1-0.1,0.1-0.4,0.2c-0.2,0.1-0.4,0.1-0.5,0.1c-0.1,0-0.2-0.1-0.2-0.2c0,0,0-0.1,0-0.2s0-0.1,0-0.1v-0.6h-2.2v0.2
					c0,0,0,0.1,0,0.2s0,0.2,0,0.2c0,0.1-0.1,0.1-0.2,0.2C169,36.6,168.7,36.6,168.6,36.6z M169.3,35.2h2.2v-3.1h-2.2V35.2z"/>
			</g>
		</g>
	</g>
	<g>
		<g>
			<line class="st1" x1="49.8" y1="77.8" x2="4.4" y2="77.8"/>
			<line class="st1" x1="227.7" y1="77.8" x2="183.6" y2="77.8"/>
		</g>
	</g>
	<g>
		<g>
			<g>
				<path class="st0" d="M57.7,76.5l-0.5-0.8c0.6,0.1,1.2,0.1,2,0.1h0.9v-1.5h-0.7c-0.4,0-0.8,0.1-1.2,0.2l-0.5-0.8
					c0.5,0.1,0.9,0.1,1.6,0.1h0.7v-1.4h-0.8c-0.5,0-0.9,0.1-1.4,0.2l-0.5-0.8c0.5,0.1,1.2,0.1,1.9,0.1h0.8c0-0.8,0-1.5-0.1-2
					c1.2,0.2,1.9,0.5,2.1,0.6c0.2,0.1,0.2,0.2,0.1,0.4L61.9,71V72h0.6l0.4-0.6c0,0,0.1-0.1,0.1-0.2c0.1-0.2,0.2-0.4,0.4-0.4
					c0.1,0,0.4,0.2,0.8,0.6c0.5,0.4,0.7,0.7,0.7,0.8c0,0.2-0.2,0.2-0.5,0.2h-2.5v1.4h0.4l0.4-0.5c0,0,0.1-0.1,0.1-0.2
					c0.1-0.2,0.2-0.4,0.4-0.4c0.1,0,0.4,0.1,0.7,0.5c0.4,0.4,0.6,0.6,0.6,0.7c0,0.2-0.2,0.2-0.5,0.2h-2v1.6h0.8l0.8-1.2
					c0.2,0.1,0.4,0.4,0.6,0.5c0.1-0.2,0.2-0.6,0.2-0.7c0.2-0.6,0.4-1.2,0.5-1.8c0.1-0.7,0.1-1.3,0.1-1.8l2.1,0.6
					c1.4-0.6,2.5-1.1,3.3-1.5l1.8,1.6c-0.2,0.2-0.6,0.2-0.9,0c-1.1,0.2-2.5,0.5-4.2,0.5c-0.6,1.5-1.4,2.6-2.5,3.4
					c0.1,0.1,0.1,0.1,0.4,0.4c0.1,0.1,0.2,0.2,0.4,0.4c0,0.2-0.2,0.2-0.5,0.2h-4.5C59.3,76.3,58.5,76.4,57.7,76.5z M62,85.9
					c0-0.6-0.1-0.9-0.2-1.2c-0.2-0.2-0.6-0.5-1.1-0.6v-0.2c0.5,0,0.9,0,1.4,0.1c0.2,0,0.2-0.1,0.2-0.4v-2.2h-2.8v1.3
					c0,1.1,0,1.9,0.1,2.5c0,0.1-0.2,0.2-0.5,0.5c-0.4,0.1-0.6,0.2-0.9,0.2c-0.1,0-0.2,0-0.4-0.1c-0.1-0.1-0.1-0.1-0.1-0.2
					c0.1-1.1,0.1-2.1,0.1-3.4v-2c0-1.4-0.1-2.6-0.2-3.5l1.9,0.8h2.6l0.4-0.5c0,0,0-0.1,0.1-0.1c0.2-0.2,0.4-0.4,0.4-0.4
					c0.1,0,0.5,0.2,0.9,0.6c0.5,0.4,0.8,0.7,0.8,0.8c-0.1,0.1-0.1,0.1-0.2,0.1h2.3v-2h-0.6c-0.2,0-0.6,0.1-0.8,0.2l-0.4-0.8
					c0.6,0.1,1.4,0.1,2.2,0.1h2.3l0.4-0.5l0.1-0.1c0.1-0.2,0.2-0.4,0.4-0.4c0.1,0,0.4,0.2,0.8,0.6s0.7,0.6,0.7,0.8
					c-0.1,0.1-0.2,0.2-0.5,0.2v1.8l0.6-0.9c0.1,0.1,0.2,0.2,0.4,0.5c0.2,0.4,0.5,0.6,0.6,0.8c0,0.2-0.2,0.2-0.4,0.2h-1.1v1.1
					c0,0.1,0,0.4,0,0.6c0,0.6,0,1.1,0.1,1.4c0,0.1-0.2,0.2-0.6,0.4c-0.4,0.1-0.6,0.2-0.9,0.2c-0.2,0-0.4-0.1-0.4-0.4
					c0,0,0-0.1,0-0.2v-0.1v-0.4h-1.1v2.3c0,0.7-0.1,1.3-0.4,1.5c-0.4,0.4-0.9,0.7-1.9,0.7c0-0.6-0.1-1.1-0.2-1.3
					c-0.2-0.2-0.6-0.5-1.2-0.6v-0.2c0.6,0,1.1,0.1,1.6,0.1c0.2,0,0.4-0.1,0.4-0.4v-2.3h-0.6c-0.4,0-0.7,0.1-1.1,0.2l-0.5-0.8
					c0.4,0.1,0.8,0.1,1.4,0.1h0.6v-2.1h-2.3l-0.1-0.5c-0.1,0-0.2,0.1-0.4,0.1v5.6c0,0.6-0.1,1.1-0.4,1.4
					C63.4,85.6,62.8,85.8,62,85.9z M59.5,81h0.8v-2.9h-0.8V81z M61.5,81h0.8v-2.9h-0.8V81z M67.6,74.9c0.1-0.8,0-1.8-0.4-2.6
					l0.2-0.1c0.7,0.4,1.3,0.8,1.5,1.3c0.2,0.5,0.4,0.8,0.2,1.2s-0.4,0.6-0.7,0.6C68.2,75.4,67.9,75.2,67.6,74.9z M68.7,78.2h1.1v-2
					h-1.1V78.2z M68.7,80.8h1.1v-2.1h-1.1V80.8z M71.2,75c-0.1-0.9-0.7-1.9-1.5-2.9l0.1-0.1c0.9,0.2,1.6,0.6,2.1,1.1
					c0.5,0.4,0.6,0.8,0.6,1.3c0,0.4-0.1,0.7-0.5,0.8C71.9,75.2,71.5,75.2,71.2,75z"/>
			</g>
			<g>
				<path class="st0" d="M77.2,85.8c-0.1,0-0.2,0-0.2-0.1c0-0.1-0.1-0.1-0.1-0.2c0.1-0.9,0.1-2.1,0.1-3.3v-1.9
					c-0.4,2.1-0.9,3.9-2,5.2l-0.2-0.1c0.4-1.2,0.6-2.5,0.7-4.2c0.1-0.9,0.1-2.3,0.1-4.3c0-0.1,0-0.2,0-0.2v-2.2c0-0.9,0-1.8-0.1-2.3
					l2,0.8h1.1c0-1.2,0-2.1-0.1-2.8c1.2,0.2,1.9,0.5,2.1,0.6c0.2,0.1,0.2,0.2,0.1,0.4l-0.2,0.2v0.5H81l0.4-0.5c0,0,0-0.1,0.1-0.1
					c0.2-0.2,0.4-0.4,0.4-0.4c0.1,0,0.4,0.2,0.8,0.6c0.5,0.4,0.7,0.6,0.7,0.7c0,0.2-0.1,0.2-0.5,0.2l0,0c0.6,0.6,1.1,1.1,1.2,1.2
					c0.1,0.1,0.1,0.2-0.1,0.2h-0.2c-0.7,0.5-1.2,0.8-1.5,0.9l-0.4-0.1c0.1-0.4,0.1-0.8,0.2-1.2H80c0,0.2-0.2,0.2-0.5,0.4v0.6
					l0.7-0.1l0.2-0.4c0,0,0,0,0-0.1c0.1-0.2,0.2-0.2,0.2-0.2c0.1,0,0.4,0.1,0.6,0.4c0.2,0.2,0.5,0.4,0.5,0.5c0,0.2-0.1,0.4-0.4,0.4
					h-1.9v0.2c0,0.1,0,0.1,0.1,0.2c0,0,0.1,0,0.4,0H81h0.8c0.1,0,0.2,0,0.4-0.1c0.1-0.1,0.2-0.4,0.4-0.6h0.1l0.1,0.6
					c0.2,0.1,0.4,0.1,0.4,0.2c0,0.1,0.1,0.1,0.1,0.2c0,0.2-0.1,0.4-0.2,0.4s-0.4,0.1-0.7,0.2c0.4,0.2,0.7,0.6,1.2,0.9
					c0,0.2-0.2,0.2-0.5,0.2h-0.9c0.6,0.4,0.8,0.6,0.9,0.8c0.1,0.1,0,0.2-0.1,0.2l-0.2,0.1v1.4c0,0,0,0-0.1,0.1
					c0.6,0.5,1.1,0.8,1.2,0.9c0.1,0.1,0.1,0.2-0.1,0.4l-0.4,0.1v2.7c0,0.6-0.1,0.9-0.2,1.2c-0.2,0.2-0.7,0.5-1.3,0.5
					c0-0.5-0.1-0.8-0.1-0.9c-0.1-0.2-0.4-0.4-0.6-0.4V84c0.2,0,0.5,0,0.7,0c0.1,0,0.2-0.1,0.2-0.2v-1.6c-0.1,0-0.2,0-0.6,0H81
					c-0.2,0-0.5,0-0.6-0.1s-0.1-0.2-0.1-0.6v-0.6h-0.5c-0.1,0.8-0.5,1.4-1.2,1.8l-0.4-0.1c0.4-0.4,0.6-0.9,0.6-1.5h-0.6v1.5
					c0,1.2,0,2.2,0.1,2.9c0,0.1-0.2,0.2-0.4,0.2C77.7,85.8,77.4,85.8,77.2,85.8z M78.3,80.5h3.4l0.4-0.5c-0.2,0-0.5,0.1-0.6,0.1
					h-0.2v-0.5h-2.3v0.1c0,0.1-0.1,0.1-0.2,0.2c-0.2,0.1-0.5,0.1-0.7,0.1s-0.2-0.1-0.2-0.4c0-0.1,0-0.2,0-0.4s0-0.2,0-0.2v-0.5
					c0-0.7,0-1.2-0.1-1.5l1.5,0.7h2.1l0.5-0.6H80c-0.8,0-1.6,0.1-2.6,0.2l-0.2-0.9c0.6,0.1,1.4,0.1,2.2,0.1h2.1l0.6-0.7
					c-0.4,0-0.8,0-1.2,0h-1.2c-0.6,0-0.9-0.1-1.1-0.2c-0.2-0.1-0.4-0.4-0.4-0.8v-0.4l-1.1,0.1l-0.1-0.5l1.3-0.1v-0.9h-1.3v3.4
					c0,1.3,0,2.5-0.1,3.4L78.3,80.5z M79.6,85.5c-0.2,0-0.4-0.1-0.4-0.4c0-0.1,0-0.4,0.1-0.7c0-0.1,0-0.2,0-0.4v-0.7H79
					c-0.1,0-0.2,0.1-0.4,0.2l-0.5-0.8c0.4,0.1,0.9,0.1,1.5,0.1h0.7l0.5-0.6c0.2,0.2,0.6,0.6,0.8,0.8c0,0.2-0.1,0.2-0.4,0.2h-0.8v0.6
					c0,0.1,0,0.2,0,0.5c0,0.2,0,0.5,0,0.6s-0.1,0.1-0.4,0.2C80.2,85.5,80,85.5,79.6,85.5z M79,79.2h2.3v-0.8H79V79.2z M80.2,72.8H82
					l0.7-0.8h-2.6v0.8H80.2z M81.3,81.5h0.1h0.1h0.1c0,0,0.1,0,0.2,0V81h-0.7v0.4C81.1,81.5,81.1,81.5,81.3,81.5z M83.1,85.9
					l-0.2-0.2c0.8-1.3,1.4-2.8,1.8-4.6c0.2-1.4,0.5-3.3,0.5-5.5h-0.6c-0.4,0-0.6,0.1-0.9,0.2L83.1,75c0.4,0.1,0.8,0.1,1.3,0.1H85
					c0-0.6,0-1.5,0-2.9c0-0.9,0-1.6,0-2.1c1.2,0.2,1.9,0.4,2.1,0.6c0.2,0.1,0.2,0.2,0,0.4l-0.2,0.2v4h0.6l0.4-0.6
					c0,0,0.1-0.1,0.1-0.2c0.2-0.2,0.4-0.5,0.4-0.5c0.1,0,0.4,0.2,0.8,0.6c0.5,0.5,0.7,0.7,0.7,0.8c0,0.2-0.2,0.2-0.5,0.2h-2.6
					c0.1,2.1,0.6,3.9,1.1,5.4c0.5,1.4,1.3,2.5,2.2,3.4v0.1c-0.8,0-1.4,0.5-1.8,1.4c-0.6-0.9-0.9-2.1-1.2-3.4
					c-0.2-1.2-0.4-2.7-0.5-4.6c-0.1,1.8-0.5,3.3-1.1,4.5C85.1,83.7,84.3,84.9,83.1,85.9z M88.3,73.5c0-0.5-0.1-0.8-0.2-1.4
					c-0.1-0.5-0.4-0.8-0.6-1.2l0.1-0.1c0.8,0.2,1.5,0.6,1.9,1.1c0.4,0.4,0.5,0.7,0.4,1.2c-0.1,0.4-0.2,0.6-0.6,0.7
					C88.9,73.9,88.5,73.8,88.3,73.5z"/>
			</g>
			<g>
				<path class="st0" d="M92.8,77.7c-0.4,0-0.5-0.1-0.7-0.4c-0.1-0.2-0.1-0.5-0.1-0.6c0-0.2,0.2-0.5,0.4-0.6
					c0.2-0.2,0.4-0.7,0.6-1.3c0.1-0.6,0.2-1.2,0.1-1.6h0.2c0.4,0.8,0.5,1.6,0.5,2.5c0,0.7-0.1,1.2-0.4,1.6
					C93.2,77.5,93,77.7,92.8,77.7z M94.4,85.9c-0.1,0-0.4,0-0.4-0.1s-0.1-0.1-0.1-0.2c0.1-1.4,0.1-2.9,0.2-4.3v-7.7
					c0-1.4-0.1-2.6-0.2-3.5c1.2,0.2,1.9,0.5,2.2,0.6c0.2,0.1,0.2,0.2,0.1,0.4l-0.2,0.2v1.6l0.1-0.1c0.8,0.4,1.3,0.8,1.5,1.3
					c1.3-0.1,2.7-0.4,4.1-0.6c1.4-0.2,2.6-0.6,3.4-0.9c0.7,0.7,1.2,1.1,1.3,1.3c0.1,0.2,0,0.2-0.2,0.2h-0.5
					c-0.9,0.1-1.9,0.2-3.1,0.4v1.2h2.1l0.5-0.6c0,0,0.1-0.1,0.1-0.2c0.2-0.2,0.4-0.4,0.4-0.4c0.1,0,0.5,0.2,0.9,0.6
					c0.5,0.5,0.7,0.7,0.7,0.8c0,0.2-0.2,0.2-0.5,0.2h-4.3V77h1.4l0.4-0.5l0.1-0.1c0.1-0.2,0.2-0.2,0.4-0.2c0.1,0,0.5,0.2,0.9,0.6
					c0.5,0.4,0.7,0.6,0.7,0.7c-0.1,0.1-0.4,0.2-0.6,0.4V79c0,0.9,0,1.6,0.1,2.2c-0.1,0.1-0.2,0.2-0.6,0.4c-0.4,0.1-0.7,0.2-0.9,0.2
					h-0.4v-0.5h-1.5v1.5h1.5l0.5-0.6c0,0,0.1-0.1,0.1-0.2c0.2-0.2,0.4-0.4,0.4-0.4c0.1,0,0.5,0.2,0.9,0.6c0.5,0.4,0.7,0.7,0.7,0.8
					c0,0.2-0.2,0.2-0.5,0.2h-3.6V85h2.1l0.5-0.6c0,0,0.1-0.1,0.1-0.2c0.2-0.2,0.4-0.5,0.5-0.5c0.1,0,0.5,0.2,0.9,0.6
					c0.6,0.5,0.8,0.7,0.8,0.8c0,0.2-0.2,0.2-0.5,0.2h-7.9c-0.8,0-1.6,0.1-2.6,0.2l-0.4-0.7c0.6,0.1,1.4,0.1,2.2,0.1h2.3v-1.6h-1.2
					c-0.7,0-1.4,0.1-2.1,0.2l-0.5-0.9c0.6,0.1,1.4,0.1,2.2,0.1h1.4v-1.4h-1.5c0,0.1-0.1,0.2-0.5,0.4c-0.4,0.1-0.7,0.2-1.1,0.2h-0.2
					V79c0-1.3-0.1-2.2-0.2-2.9l2,0.8h1.4v-1.1h-1.2c-0.8,0-1.5,0.1-2.5,0.2l-0.5-0.8c0.6,0.1,1.4,0.1,2.2,0.1h1.9v-1.1
					c-1.2,0-2.2,0-3.2,0c0,0.4-0.1,0.7-0.4,0.8s-0.6,0.1-0.9-0.2c0-0.7-0.1-1.4-0.5-2.1v8.5c0,1.4,0.1,2.7,0.1,4
					c-0.1,0.1-0.2,0.2-0.6,0.5C95.1,85.8,94.8,85.9,94.4,85.9z M99.2,73.2c-0.2,0-0.4-0.1-0.4-0.4c0,0,0-0.1,0-0.2
					c0-0.1,0-0.1,0-0.2v-0.4h-0.7c-0.4,0-0.8,0.1-1.2,0.2l-0.5-0.8c0.5,0.1,0.9,0.1,1.6,0.1h0.7c0-0.6,0-1.2-0.1-1.6
					c1.2,0.2,1.9,0.5,2.1,0.6c0.2,0.1,0.2,0.2,0,0.4l-0.2,0.2v0.5h1.9c0-0.7,0-1.2-0.1-1.6c1.2,0.2,1.9,0.5,2.1,0.6
					c0.2,0.1,0.2,0.2,0,0.4l-0.2,0.2v0.6h0.7l0.4-0.6c0,0,0.1-0.1,0.1-0.2c0.2-0.2,0.4-0.4,0.4-0.4c0.1,0,0.4,0.2,0.8,0.6
					c0.5,0.4,0.7,0.6,0.7,0.7c0,0.2-0.2,0.2-0.5,0.2h-2.7v0.5c0,0-0.1,0.1-0.5,0.2c-0.4,0.1-0.7,0.1-1.1,0.1h-0.4v-0.7h-1.9V73
					c0,0-0.1,0.1-0.5,0.2C99.9,73.1,99.6,73.2,99.2,73.2z M99.3,78.9h1.5v-1.5h-1.5V78.9z M99.3,80.9h1.5v-1.5h-1.5V80.9z
					 M102.6,78.9h1.5v-1.5h-1.5V78.9z M102.6,80.9h1.5v-1.5h-1.5V80.9z"/>
			</g>
			<g>
				<path class="st0" d="M123.1,85.9c-3.1-1.6-4.8-4.3-5.5-8.3c-0.4,2-1.1,3.6-2.1,4.8c-1.3,1.4-3.2,2.6-5.9,3.5l-0.1-0.2
					c2-1.1,3.5-2.2,4.5-3.8c0.8-1.2,1.3-2.7,1.5-4.6h-2.3c-0.8,0-1.6,0.1-2.6,0.2l-0.5-0.8c0.6,0.1,1.4,0.1,2.2,0.1h3.1
					c0.1-0.9,0.1-2.5,0.1-4.5h-3.1c-0.8,0-1.6,0.1-2.6,0.2l-0.5-0.8c0.6,0.1,1.4,0.1,2.2,0.1h9.5l0.5-0.7c0,0,0.1-0.1,0.2-0.2
					c0.2-0.4,0.4-0.5,0.5-0.5c0.1,0,0.5,0.2,1.1,0.7c0.6,0.5,0.9,0.8,0.9,0.9c0,0.2-0.2,0.2-0.5,0.2h-6.2c0,0.1,0,0.2,0,0.5
					c0,1.9-0.1,3.2-0.2,4h3.3l0.5-0.7c0,0,0.1-0.1,0.1-0.2c0.2-0.4,0.5-0.6,0.5-0.6c0.1,0,0.5,0.2,1.1,0.7s0.9,0.8,0.9,0.9
					c0,0.2-0.2,0.2-0.5,0.2h-5.8c0.7,3.1,3.1,5.2,6.9,6.5v0.2C123.8,84.3,123.2,84.9,123.1,85.9z"/>
			</g>
			<g>
				<path class="st0" d="M135.4,85.9c0-0.6-0.1-1.1-0.4-1.3c-0.4-0.4-0.9-0.6-1.9-0.7v-0.2c1.3,0.1,2.1,0.2,2.6,0.2
					c0.2,0,0.5-0.1,0.7-0.2c0.1-0.1,0.2-0.5,0.5-0.8H130c0,0.1,0,0.2-0.1,0.5c0,0.4-0.1,0.6-0.1,0.7c-0.2,0.1-0.5,0.2-0.7,0.2
					c-0.2,0-0.7,0-1.3-0.1c0.4-2.1,0.7-4.3,1.1-6.7h-0.7c-0.4,0-0.8,0.1-1.2,0.2l-0.5-0.8c0.5,0.1,0.9,0.1,1.6,0.1h0.7
					c0.1-0.6,0.2-1.5,0.4-2.6c0-0.2,0-0.5,0.1-0.5c0.1-1.2,0.1-2.2,0.1-3.2l2.2,0.9h5.8l0.5-0.6c0,0,0.1-0.1,0.2-0.2
					c0.2-0.2,0.4-0.4,0.5-0.4s0.5,0.2,0.9,0.7c0.5,0.5,0.8,0.8,0.8,0.9c-0.1,0.2-0.4,0.2-0.7,0.4c0,0.4,0,0.9,0,1.8
					c0,1.3-0.1,2.2-0.1,2.8h0.2l0.5-0.7c0,0,0.1-0.1,0.1-0.2c0.2-0.4,0.4-0.5,0.5-0.5s0.4,0.2,0.8,0.7s0.7,0.8,0.7,0.9
					c0,0.2-0.2,0.2-0.5,0.2h-2.3c-0.1,2-0.2,3.6-0.5,4.9h0.5l0.4-0.7c0,0,0.1-0.1,0.1-0.2c0.2-0.2,0.4-0.5,0.4-0.5
					c0.1,0,0.4,0.2,0.8,0.7c0.5,0.5,0.7,0.7,0.7,0.8c0,0.2-0.1,0.2-0.5,0.2h-2.6c-0.2,1.2-0.5,1.9-0.8,2.2c-0.2,0.4-0.7,0.6-1.1,0.7
					C136.6,85.8,136.1,85.9,135.4,85.9z M130.1,82.2h6.9c0.2-1.1,0.4-2.7,0.5-4.9h-6.8C130.6,78.6,130.3,80.3,130.1,82.2z
					 M130.8,76.8h6.7c0.1-1.1,0.1-2.7,0.2-4.9h-6.3C131.3,72.9,131,74.5,130.8,76.8z M134,81c-0.1-0.5-0.5-0.9-0.8-1.5
					c-0.4-0.5-0.8-0.8-1.3-1.2l0.1-0.1c1.2,0,2,0.2,2.6,0.6c0.5,0.4,0.8,0.7,0.8,1.2c0,0.5-0.1,0.7-0.4,1.1
					C134.8,81.2,134.5,81.2,134,81z M134.2,75.5c-0.1-0.5-0.4-0.8-0.7-1.4c-0.4-0.5-0.7-0.8-1.2-1.1l0.1-0.1c1.1,0,1.9,0.2,2.5,0.6
					c0.5,0.2,0.7,0.7,0.8,1.2c0,0.4-0.1,0.7-0.4,0.9C135,75.7,134.7,75.7,134.2,75.5z"/>
			</g>
			<g>
				<path class="st0" d="M145.1,85.2c-0.1,0-0.2,0-0.4-0.1c-0.1-0.1-0.1-0.1-0.1-0.2c0.1-1.4,0.1-2.9,0.2-4.3v-4.7
					c0-1.4-0.1-2.6-0.2-3.5l2,0.8h0.1c0.1-1.3,0.2-2.5,0.1-3.3c1.3,0.4,2.1,0.6,2.5,0.7c0.2,0.1,0.2,0.2,0,0.4L149,71
					c-0.6,0.8-1.1,1.5-1.5,2.1h1.4l0.4-0.5l0.1-0.1c0.2-0.2,0.4-0.4,0.4-0.4c0.1,0,0.5,0.2,0.9,0.6c0.5,0.4,0.8,0.7,0.8,0.8
					c-0.1,0.1-0.4,0.2-0.7,0.4v6c0,1.4,0.1,2.7,0.1,4c-0.1,0.1-0.4,0.2-0.6,0.4c-0.4,0.1-0.7,0.2-1.1,0.2c-0.2,0-0.4-0.1-0.4-0.4
					c0-0.1,0-0.1,0-0.2s0-0.2,0-0.2v-0.5h-2.5v0.5c0,0.1,0,0.2,0,0.4c0,0.2,0,0.4,0,0.5c0,0.1-0.2,0.4-0.5,0.5
					C145.8,85.2,145.5,85.2,145.1,85.2z M146.5,77.9h2.5v-4.2h-2.5V77.9z M146.5,82.9h2.5v-4.5h-2.5V82.9z M155.1,85.8
					c0-0.7-0.1-1.2-0.4-1.4c-0.4-0.4-0.9-0.6-1.8-0.7v-0.2c1.2,0.1,2,0.1,2.3,0.1c0.2,0,0.5-0.1,0.6-0.2c0.2-0.2,0.5-1.3,0.6-2.9
					c0.1-1.4,0.2-3.6,0.2-6.8h-3.1c-0.8,1.4-1.6,2.6-2.7,3.5l-0.2-0.1c0.5-0.9,0.9-2.1,1.4-3.5c0.1-0.6,0.4-1.2,0.5-1.9
					c0.1-0.7,0.2-1.3,0.2-1.8c1.3,0.4,2,0.6,2.3,0.8c0.2,0.1,0.2,0.2,0.1,0.4l-0.4,0.1c-0.2,0.7-0.6,1.4-0.9,2h2.6l0.5-0.6
					c0,0,0.1-0.1,0.2-0.2c0.2-0.2,0.4-0.4,0.4-0.4c0.1,0,0.5,0.2,0.9,0.7s0.7,0.8,0.7,0.9c-0.1,0.1-0.4,0.2-0.7,0.4
					c-0.1,3.6-0.1,6.1-0.4,7.6c-0.2,1.8-0.5,2.8-0.9,3.3C156.9,85.6,156.2,85.8,155.1,85.8z M153.5,80.3c0-0.6-0.2-1.2-0.5-1.9
					c-0.2-0.6-0.6-1.2-0.9-1.6l0.2-0.1c1.1,0.4,1.9,0.8,2.5,1.4c0.5,0.5,0.6,1.1,0.6,1.5s-0.2,0.8-0.6,0.9
					C154.3,80.8,153.9,80.6,153.5,80.3z"/>
			</g>
			<g>
				<path class="st0" d="M164,80.4c-0.4,0-0.5-0.1-0.5-0.4c0.1-0.9,0.1-1.9,0.1-2.8v-1.6c-0.6,0.7-1.3,1.3-2,1.9l-0.1-0.1
					c0.7-1.1,1.4-2.5,2-3.9c0.2-0.5,0.4-1.2,0.6-1.9c0.1-0.7,0.2-1.3,0.4-1.8c1.3,0.5,2.1,0.8,2.5,0.9c0.2,0.1,0.2,0.2,0,0.4
					l-0.4,0.1c-0.4,0.7-0.7,1.5-1.2,2.2c0.4,0.2,0.6,0.5,0.7,0.6s0,0.2-0.1,0.2l-0.2,0.1v1.6c0,1.3,0.1,2.6,0.1,3.8
					c-0.1,0.1-0.4,0.2-0.6,0.4C164.7,80.3,164.4,80.4,164,80.4z M162.3,84.8c-0.4-0.1-0.6-0.2-0.7-0.6c-0.1-0.2,0-0.6,0.1-0.8
					c0.1-0.2,0.4-0.4,0.6-0.6c0.4-0.2,0.8-0.5,1.1-0.8c0.4-0.5,0.6-0.9,0.6-1.5h0.2c0.4,1.1,0.4,1.9,0.1,2.7
					c-0.2,0.7-0.6,1.2-1.1,1.4C163,84.9,162.6,84.9,162.3,84.8z M167.7,85.5c-0.8,0-1.4-0.1-1.8-0.4c-0.2-0.2-0.4-0.7-0.4-1.3v-1.9
					c0-0.8,0-1.4-0.1-2c1.2,0.2,1.9,0.5,2.1,0.6c0.2,0.1,0.2,0.2,0.1,0.4l-0.2,0.1v2.3c0,0.1,0,0.2,0.1,0.2c0.1,0,0.2,0.1,0.6,0.1
					h1.8c0.8,0,1.3,0,1.4,0c0.2,0,0.4-0.1,0.5-0.2c0.1-0.2,0.4-0.8,0.7-1.8h0.1v1.9c0.2,0.1,0.5,0.2,0.5,0.4
					c0.1,0.1,0.1,0.2,0.1,0.5c0,0.5-0.2,0.7-0.7,0.9c-0.6,0.2-1.5,0.2-3.1,0.2h-1.8V85.5z M166.4,75.9l-0.2-0.1
					c0.4-0.7,0.8-1.4,1.1-2.3c0.2-0.6,0.4-1.2,0.5-1.9c0.1-0.7,0.2-1.3,0.2-1.8c1.3,0.4,2.1,0.7,2.3,0.8c0.2,0.1,0.2,0.2,0.1,0.4
					l-0.4,0.1c-0.1,0.2-0.2,0.6-0.5,0.9h4.3l0.5-0.5l0.1-0.1c0.2-0.2,0.4-0.4,0.5-0.4c0.1,0,0.4,0.2,0.9,0.7
					c0.5,0.5,0.7,0.8,0.7,0.9c-0.1,0.1-0.4,0.2-0.6,0.2c-0.7,0.6-1.4,1.2-2.3,1.6l-0.1-0.1c0.2-0.7,0.4-1.3,0.5-2h-4.7
					C168.6,74.1,167.6,75.1,166.4,75.9z M170.3,80.1c0-0.7-0.1-1.2-0.4-1.4c-0.2-0.4-0.6-0.6-1.2-0.6v-0.2c0.6,0,1.1,0.1,1.6,0.1
					c0.2,0,0.2-0.1,0.2-0.2v-2.5c-0.1,0.1-0.4,0.1-0.5,0.1c-0.8,1.5-2,2.7-3.4,3.4l-0.2-0.1c0.2-0.2,0.5-0.6,0.6-1.1
					c0.2-0.5,0.5-1.1,0.7-1.8c0.2-0.7,0.4-1.3,0.4-1.8l2.5,0.9c0-0.9,0-1.6-0.1-2.2c1.2,0.2,1.9,0.5,2.1,0.6
					c0.2,0.1,0.2,0.2,0.1,0.4l-0.2,0.1v4c0,0.7-0.1,1.3-0.4,1.5C171.8,79.7,171.2,79.9,170.3,80.1z M169.4,82.4
					c-0.1-0.5-0.4-0.9-0.7-1.5c-0.4-0.5-0.7-0.9-1.1-1.3l0.1-0.1c1.1,0.1,1.9,0.4,2.3,0.8c0.5,0.4,0.7,0.8,0.7,1.3
					c0,0.5-0.1,0.7-0.5,0.9C170.3,82.8,169.9,82.6,169.4,82.4z M174.8,84.4c-0.1-0.7-0.5-1.3-0.9-2.1c-0.5-0.7-0.9-1.3-1.5-1.8
					l0.1-0.1c1.3,0.2,2.3,0.6,3.1,1.3c0.6,0.5,0.9,1.1,0.9,1.6s-0.1,0.9-0.5,1.2C175.8,84.9,175.3,84.8,174.8,84.4z M174.6,78.3
					c-0.1-0.6-0.4-1.3-0.7-2.1c-0.4-0.7-0.7-1.3-1.2-1.9l0.1-0.1c1.2,0.4,2,0.9,2.6,1.5c0.5,0.6,0.7,1.1,0.7,1.6
					c0,0.5-0.1,0.8-0.5,1.1C175.4,78.8,175,78.6,174.6,78.3z"/>
			</g>
		</g>
	</g>
</g>
</svg>
