<?xml version="1.0" encoding="utf-8"?>
<!-- Generator: Adobe Illustrator 27.8.1, SVG Export Plug-In . SVG Version: 6.00 Build 0)  -->
<svg version="1.1" id="圖層_1" xmlns="http://www.w3.org/2000/svg" xmlns:xlink="http://www.w3.org/1999/xlink" x="0px" y="0px"
	 viewBox="0 0 235.1 91" style="enable-background:new 0 0 235.1 91;" xml:space="preserve">
<style type="text/css">
	.st0{fill:#FFFFFF;}
	.st1{opacity:0.7;fill:none;stroke:#FFFFFF;stroke-width:0.25;stroke-miterlimit:10;}
</style>
<g>
	<g>
		<g>
			<g>
				<path class="st0" d="M15.8,14.9c-1.4-0.7-2.4-1.6-3.1-2.8c-0.6-0.9-0.9-2-1.1-3.2h-0.1c-0.2,1.4-0.7,2.6-1.4,3.4
					c-0.8,1-2.1,1.9-3.9,2.5L6,14.6c1.5-0.7,2.6-1.6,3.3-2.6c0.6-0.8,1-1.9,1.2-3.2H8.6C8,8.9,7.4,8.9,6.8,9L6.5,8.4
					c0.4,0,1,0.1,1.6,0.1h2.4c0.1-0.6,0.1-1.5,0.1-2.8c0-0.1,0-0.2,0-0.3H8.2C7.6,5.4,7,5.5,6.4,5.6L6.1,4.9C6.5,5,7,5,7.7,5h7
					l0.3-0.4c0,0,0-0.1,0.1-0.1c0.1-0.2,0.2-0.3,0.3-0.3c0.1,0,0.3,0.1,0.6,0.4c0.3,0.3,0.5,0.5,0.5,0.6c0,0.1-0.1,0.2-0.3,0.2h-4.6
					c0,1.4-0.1,2.5-0.2,3.1h2.9l0.3-0.4c0,0,0.1-0.1,0.1-0.1c0.1-0.2,0.2-0.3,0.3-0.3c0.1,0,0.3,0.1,0.6,0.4
					c0.3,0.3,0.5,0.5,0.5,0.6c0,0.1-0.1,0.2-0.3,0.2h-4.1c0.5,2.3,2.2,4,5,5.1l0,0.1C16.1,14.1,15.9,14.4,15.8,14.9z"/>
			</g>
			<g>
				<path class="st0" d="M24.5,14.9c0-0.3-0.1-0.5-0.2-0.7c-0.2-0.2-0.6-0.3-1.3-0.4l0-0.2c0,0,0.1,0,0.2,0c0.9,0.1,1.4,0.1,1.5,0.1
					c0.2,0,0.4-0.1,0.5-0.2c0.1-0.1,0.2-0.3,0.3-0.7h-5.4c0,0.1,0,0.2,0,0.3c0,0.2-0.1,0.4-0.1,0.5c-0.1,0.1-0.2,0.1-0.3,0.1
					c-0.1,0-0.3,0-0.6-0.1c0.2-1.2,0.5-2.8,0.7-4.7h-0.5C19,9,18.7,9,18.4,9.1l-0.3-0.6c0.3,0,0.8,0.1,1.2,0.1h0.6
					c0-0.1,0-0.3,0.1-0.6c0.1-0.7,0.2-1.2,0.2-1.5c0.1-0.8,0.1-1.6,0.1-2.3l1.2,0.5h4.7l0.2-0.3c0,0,0-0.1,0.1-0.1
					c0.1-0.2,0.2-0.2,0.3-0.2c0.1,0,0.3,0.1,0.6,0.4c0.3,0.3,0.4,0.4,0.4,0.5c-0.1,0.1-0.3,0.2-0.5,0.2c0,1.5-0.1,2.6-0.1,3.4h0.5
					l0.3-0.4c0,0,0.1-0.1,0.1-0.1c0.1-0.2,0.2-0.3,0.3-0.3c0.1,0,0.3,0.1,0.6,0.4c0.3,0.3,0.4,0.5,0.4,0.6C29,8.9,28.9,9,28.8,9H27
					c-0.1,1.5-0.2,2.7-0.3,3.5h0.6l0.2-0.4c0,0,0-0.1,0.1-0.1c0.1-0.2,0.2-0.3,0.3-0.3c0.1,0,0.3,0.1,0.5,0.4s0.4,0.4,0.4,0.5
					c0,0.1-0.1,0.2-0.3,0.2h-1.9c-0.1,0.7-0.3,1.1-0.5,1.4C25.8,14.7,25.2,14.9,24.5,14.9z M20.3,12.5h5.4c0.2-0.9,0.3-2.1,0.4-3.5
					h-5.3c0,0.3-0.1,0.8-0.2,1.5C20.4,11.4,20.3,12.1,20.3,12.5z M20.8,8.6h5.3c0.1-1,0.1-2.2,0.1-3.5h-5C21.1,5.9,21,7.1,20.8,8.6z
					 M24.2,11.6c-0.2,0.2-0.4,0.2-0.6,0c-0.1-0.3-0.4-0.7-0.8-1c-0.3-0.3-0.7-0.6-1.1-0.8l0.1-0.1c0.7,0.1,1.3,0.2,1.8,0.5
					c0.4,0.2,0.6,0.5,0.7,0.8C24.4,11.2,24.4,11.4,24.2,11.6z M24.4,7.6c-0.2,0.1-0.4,0.2-0.6,0c-0.1-0.3-0.4-0.6-0.7-0.9
					c-0.3-0.3-0.6-0.6-1-0.7l0.1-0.1c0.7,0.1,1.2,0.2,1.7,0.5c0.3,0.2,0.6,0.4,0.6,0.7C24.6,7.3,24.5,7.5,24.4,7.6z"/>
			</g>
			<g>
				<path class="st0" d="M33,14.1c-0.5,0-1-0.1-1.4-0.2c-0.4-0.1-0.8-0.3-1.1-0.5l0.1-1.8h0.7l0.3,1.6c0.4,0.2,0.9,0.3,1.4,0.3
					c0.6,0,1.2-0.1,1.5-0.4c0.4-0.3,0.6-0.7,0.6-1.2c0-0.4-0.1-0.8-0.4-1c-0.2-0.2-0.7-0.5-1.3-0.7l-0.5-0.2c-0.7-0.3-1.3-0.6-1.6-1
					c-0.4-0.4-0.6-1-0.6-1.6c0-0.7,0.3-1.3,0.8-1.8c0.5-0.4,1.2-0.6,2.1-0.6c0.8,0,1.5,0.2,2.2,0.7l-0.1,1.7h-0.7l-0.3-1.6
					c-0.3-0.2-0.7-0.3-1.1-0.3c-0.5,0-1,0.1-1.3,0.4c-0.4,0.3-0.5,0.7-0.5,1.2c0,0.4,0.1,0.8,0.4,1c0.2,0.3,0.6,0.5,1.1,0.7l0.5,0.2
					c0.9,0.3,1.5,0.7,1.9,1.1c0.4,0.4,0.5,0.9,0.5,1.5c0,0.8-0.3,1.4-0.9,1.8C34.7,13.9,33.9,14.1,33,14.1z"/>
			</g>
			<g>
				<path class="st0" d="M41.6,14.1c-1.1,0-2-0.4-2.8-1.2c-0.8-0.9-1.2-2-1.2-3.4c0-0.9,0.2-1.8,0.6-2.5c0.4-0.7,0.9-1.2,1.5-1.6
					c0.6-0.4,1.3-0.6,2-0.6s1.3,0.2,1.9,0.5C44.2,5.8,44.7,6.3,45,7c0.4,0.7,0.6,1.6,0.6,2.5c0,0.9-0.2,1.8-0.6,2.5
					c-0.4,0.7-0.8,1.2-1.5,1.6C42.9,13.9,42.3,14.1,41.6,14.1z M41.6,13.5c0.9,0,1.5-0.4,2-1.2c0.4-0.7,0.6-1.7,0.6-2.8
					S44,7.4,43.6,6.7c-0.5-0.8-1.1-1.2-2-1.2c-0.9,0-1.5,0.4-2,1.2c-0.4,0.7-0.6,1.7-0.6,2.8s0.2,2.1,0.6,2.8
					C40.1,13.1,40.7,13.5,41.6,13.5z"/>
			</g>
			<g>
				<path class="st0" d="M51.6,14.1c-1.3,0-2.4-0.4-3.2-1.3s-1.2-2-1.2-3.3c0-1.3,0.4-2.4,1.3-3.3c0.8-0.9,1.9-1.3,3.2-1.3
					c1,0,1.9,0.2,2.6,0.6l0,1.9h-0.7l-0.3-1.6c-0.4-0.3-0.9-0.4-1.5-0.4c-1,0-1.7,0.4-2.3,1.1c-0.6,0.7-0.9,1.7-0.9,3
					c0,1.3,0.3,2.2,0.9,2.9c0.6,0.7,1.4,1.1,2.4,1.1c0.5,0,1-0.1,1.5-0.3v-0.5c0-0.6,0-1.4,0-2.5l-1.4-0.1V9.7h3.4v0.5l-0.8,0.1
					c0,0.8,0,1.6,0,2.5v0.6C53.5,13.8,52.5,14.1,51.6,14.1z"/>
			</g>
			<g>
				<path class="st0" d="M60.4,14.1c-1.1,0-2-0.4-2.8-1.2c-0.8-0.9-1.2-2-1.2-3.4c0-0.9,0.2-1.8,0.6-2.5c0.4-0.7,0.9-1.2,1.5-1.6
					c0.6-0.4,1.3-0.6,2-0.6s1.3,0.2,1.9,0.5C63,5.8,63.5,6.3,63.8,7c0.4,0.7,0.6,1.6,0.6,2.5c0,0.9-0.2,1.8-0.6,2.5
					c-0.4,0.7-0.8,1.2-1.5,1.6C61.8,13.9,61.1,14.1,60.4,14.1z M60.4,13.5c0.9,0,1.5-0.4,2-1.2c0.4-0.7,0.6-1.7,0.6-2.8
					s-0.2-2.1-0.6-2.8c-0.5-0.8-1.1-1.2-2-1.2c-0.9,0-1.5,0.4-2,1.2c-0.4,0.7-0.6,1.7-0.6,2.8s0.2,2.1,0.6,2.8
					C58.9,13.1,59.6,13.5,60.4,13.5z"/>
			</g>
			<g>
				<path class="st0" d="M66.2,14.6l-0.3-0.6c0.4,0,1,0.1,1.6,0.1h3.4v-1.4h-1.7c-0.6,0-1.2,0.1-1.8,0.2l-0.3-0.6
					c0.4,0,1,0.1,1.6,0.1h2.2c0-0.5,0-0.9-0.1-1.3c0.6,0.2,1,0.3,1.2,0.4c0.1,0.1,0.1,0.1,0,0.2l-0.2,0.1v0.5h2.1l0.3-0.4
					c0,0,0.1-0.1,0.1-0.1c0.1-0.2,0.2-0.3,0.3-0.3c0.1,0,0.3,0.1,0.6,0.4c0.3,0.3,0.5,0.5,0.5,0.5c0,0.1-0.1,0.2-0.3,0.2h-3.5V14
					h3.1l0.3-0.4c0,0,0.1-0.1,0.1-0.1c0.1-0.2,0.2-0.3,0.3-0.3c0.1,0,0.3,0.1,0.6,0.4c0.3,0.3,0.5,0.5,0.5,0.5
					c0,0.1-0.1,0.2-0.3,0.2H68C67.4,14.4,66.8,14.4,66.2,14.6z M66.4,10.2l-0.3-0.6c0.4,0,1,0.1,1.6,0.1h3.2V8.8h-1.7
					c-0.6,0-1.2,0.1-1.8,0.2l-0.3-0.6c0.4,0,1,0.1,1.6,0.1h2.2v-1h-2.4v0.3c0,0-0.1,0.1-0.2,0.2C68.1,8,67.9,8,67.8,8
					c-0.1,0-0.2-0.1-0.2-0.2c0-0.3,0.1-0.6,0.1-1.1V6c0-0.9,0-1.6-0.1-2.1l1.1,0.5h5.5l0.2-0.2c0,0,0,0,0-0.1C74.4,4,74.5,4,74.5,4
					c0.1,0,0.2,0.1,0.5,0.3c0.2,0.2,0.3,0.3,0.3,0.4c0,0.1-0.1,0.1-0.3,0.2v2.7c0,0.1-0.1,0.1-0.4,0.2C75,8,75.3,8.3,75.6,8.6
					c0,0.1-0.1,0.2-0.3,0.2h-3.5v0.9h3.2l0.3-0.3c0,0,0-0.1,0.1-0.1C75.4,9.1,75.5,9,75.5,9c0.1,0,0.3,0.1,0.5,0.4
					c0.3,0.2,0.4,0.4,0.4,0.5c0,0.1-0.1,0.2-0.3,0.2h-7.9C67.7,10,67.1,10.1,66.4,10.2z M66.7,12.2c-0.2,0-0.3-0.1-0.4-0.3
					c0-0.1,0-0.3,0-0.4c0.1-0.1,0.2-0.2,0.3-0.3c0.2-0.1,0.4-0.3,0.6-0.5c0.2-0.2,0.4-0.5,0.4-0.7l0.2,0c0.1,0.5,0,0.9-0.2,1.2
					c-0.1,0.3-0.3,0.6-0.6,0.7C67,12.2,66.9,12.3,66.7,12.2z M68.5,7.1H71V4.8h-2.4V7.1z M70.2,6.9c-0.1,0.1-0.3,0-0.5-0.1
					c-0.1-0.2-0.2-0.5-0.4-0.9c-0.2-0.3-0.4-0.5-0.6-0.8l0.1-0.1c0.5,0.2,0.9,0.4,1.2,0.7c0.2,0.2,0.4,0.5,0.4,0.7
					C70.4,6.7,70.4,6.8,70.2,6.9z M70.1,11.9c-0.2,0.1-0.3,0-0.5-0.1c0-0.4-0.2-1-0.5-1.5l0.1-0.1c0.4,0.2,0.7,0.4,0.9,0.7
					c0.2,0.2,0.2,0.4,0.2,0.6C70.3,11.7,70.2,11.9,70.1,11.9z M71.7,7.1h2.4V5.6c-0.1,0.1-0.2,0.1-0.4,0.1c-0.3,0.3-0.8,0.7-1.5,1.3
					l-0.1-0.1c0.4-0.6,0.7-1.3,0.9-2l1.2,0.7V4.8h-2.4V7.1z M71.8,8.4h2.3l0.5-0.6c-0.1,0-0.2,0-0.3,0h-0.1V7.4h-2.4V8.4z
					 M73.2,11.8c-0.2,0.1-0.3,0.1-0.5-0.1c-0.1-0.4-0.3-0.9-0.8-1.5l0.1-0.1c0.5,0.2,0.8,0.4,1.1,0.6c0.2,0.2,0.3,0.4,0.3,0.6
					C73.4,11.6,73.3,11.8,73.2,11.8z M76.2,12c-0.1,0.1-0.3,0.1-0.5,0c-0.1-0.3-0.3-0.6-0.6-0.9c-0.2-0.3-0.5-0.6-0.8-0.8l0.1-0.1
					c0.6,0.1,1.1,0.3,1.4,0.6c0.3,0.2,0.5,0.5,0.5,0.7C76.4,11.7,76.3,11.8,76.2,12z"/>
			</g>
			<g>
				<path class="st0" d="M79.8,7.6c-0.2,0.1-0.3,0.1-0.5-0.1c0-0.3-0.2-0.6-0.4-0.9c-0.2-0.3-0.4-0.5-0.6-0.8l0.1-0.1
					C78.8,5.9,79,6,79.3,6.1l0,0v0c0.3-0.8,0.5-1.6,0.6-2.4c0.6,0.2,1.1,0.4,1.2,0.5c0.1,0.1,0.1,0.2,0,0.2l-0.2,0.1
					c-0.5,0.8-0.9,1.4-1.3,1.8C79.8,6.5,80,6.8,80,7.1C80,7.3,80,7.5,79.8,7.6z M78.5,13.9l-0.2-0.1c0.1-0.2,0.2-0.5,0.2-0.7
					c0.1-0.4,0.2-0.8,0.2-1.3c0.1-0.5,0.1-0.9,0-1.2l0.7,0.2c0.5,0.1,0.6,0.2,0.4,0.3l-0.2,0.1C79.4,12.3,79,13.3,78.5,13.9z
					 M80.3,14.9c-0.1,0-0.1,0-0.2-0.1c-0.1,0-0.1-0.1-0.1-0.2c0.1-1,0.1-2.1,0.1-3.1v-2c-0.2,0-0.4,0.1-0.8,0.2
					c-0.2,0-0.3,0.1-0.4,0.1c-0.1,0.1-0.2,0.2-0.3,0.3l-0.4-1c0.1,0,0.3,0,0.6,0c0.2,0,0.4,0,0.6,0c0.3-0.5,0.6-1.1,0.9-1.7
					c0.4-0.9,0.7-1.6,0.9-2.3c0.6,0.3,1,0.4,1.2,0.6c0.1,0.1,0.1,0.2,0,0.2l-0.2,0.1c-0.6,1-1.3,2-2.3,3.1c0.3,0,0.8,0,1.5-0.1
					c0.1,0,0.2,0,0.3,0c-0.1-0.3-0.3-0.6-0.5-0.9l0.1-0.1c0.5,0.3,0.9,0.6,1.2,0.9c0.2,0.3,0.3,0.6,0.3,0.8c0,0.2-0.1,0.4-0.3,0.5
					c-0.2,0.1-0.3,0-0.5-0.1c0-0.2-0.1-0.5-0.2-0.8L81,9.4v2.4c0,1,0,1.9,0.1,2.8c-0.1,0.1-0.2,0.2-0.3,0.2
					C80.7,14.8,80.5,14.9,80.3,14.9z M82.4,12.5c-0.2,0.1-0.3,0-0.5-0.2c0-0.5-0.2-1.2-0.5-1.8l0.1-0.1c0.4,0.3,0.8,0.5,1,0.9
					c0.2,0.3,0.2,0.5,0.2,0.8C82.6,12.3,82.5,12.5,82.4,12.5z M84.7,14.9c0-0.3-0.1-0.5-0.2-0.6c-0.1-0.2-0.4-0.3-0.8-0.3v-0.2
					c0.4,0,0.7,0,1.1,0.1c0.2,0,0.2-0.1,0.2-0.2v-2.2c-0.1,0.1-0.1,0.2-0.3,0.3c-0.7,0.8-1.3,1.5-1.7,2c0,0.2,0,0.3-0.1,0.4
					l-0.8-0.9c0.5-0.3,1.5-1,2.9-2.1V8.3h-0.9c-0.5,0-1.1,0.1-1.6,0.2l-0.3-0.6c0.4,0,1,0.1,1.6,0.1h2.5l0.2-1.1h-2.3L84,7.4
					c-0.2,0.1-0.5,0.2-0.9,0c0.1-0.4,0.2-0.8,0.3-1.2c0.2-1,0.3-1.9,0.3-2.5c0.6,0.1,1.1,0.2,1.2,0.2c0.1,0,0.1,0.1,0,0.2l-0.2,0.1
					c0,0.1,0,0.2-0.1,0.4c0,0.1,0,0.1,0,0.1h2l0.2-0.2c0,0,0,0,0-0.1c0.1-0.1,0.2-0.2,0.2-0.2c0.1,0,0.2,0.1,0.5,0.3
					c0.2,0.2,0.4,0.4,0.4,0.4c-0.1,0.1-0.2,0.1-0.4,0.2l-0.4,2.7h0.4l0.2-0.4c0,0,0-0.1,0.1-0.1c0.1-0.2,0.2-0.3,0.2-0.3
					c0.1,0,0.2,0.1,0.5,0.4C88.9,7.8,89,8,89,8.1c0,0.1-0.1,0.2-0.3,0.2h-2.8c0.2,0.9,0.4,1.7,0.8,2.4c0.2-0.3,0.4-0.7,0.6-1.1
					c0.2-0.4,0.3-0.8,0.4-1.1c0.6,0.4,0.9,0.6,1,0.8c0.1,0.1,0.1,0.2,0,0.2l-0.2,0c-0.5,0.5-1.1,0.9-1.7,1.4
					c0.5,0.9,1.3,1.7,2.3,2.2l0,0.1c-0.4,0.1-0.6,0.4-0.7,0.9c-0.7-0.6-1.2-1.2-1.6-2c-0.4-0.8-0.7-1.9-0.9-3.1v4.5
					c0,0.4-0.1,0.7-0.2,0.8C85.5,14.7,85.2,14.8,84.7,14.9z M84.2,10.9c-0.2,0.1-0.3,0.1-0.5-0.1c-0.1-0.5-0.4-1.1-0.9-1.8L83,9
					c0.5,0.2,0.9,0.5,1.2,0.8c0.2,0.3,0.3,0.5,0.3,0.8C84.5,10.7,84.4,10.9,84.2,10.9z M84.2,6.5h2.2l0.2-1.3h-2.2
					c0,0.1,0,0.2-0.1,0.4C84.3,6,84.3,6.3,84.2,6.5z"/>
			</g>
			<g>
				<path class="st0" d="M90.8,8.4l-0.3-0.6c0.4,0,0.9,0.1,1.5,0.1h0.7V6.8h-0.6c-0.3,0-0.6,0.1-0.9,0.2l-0.3-0.6
					c0.3,0,0.8,0.1,1.2,0.1h0.6V5.5h-0.6c-0.4,0-0.7,0.1-1.1,0.2L90.7,5c0.4,0,0.8,0.1,1.4,0.1h0.7c0-0.5,0-1-0.1-1.4
					c0.6,0.2,1,0.3,1.2,0.4c0.1,0.1,0.1,0.1,0,0.2l-0.2,0.1v0.6h0.7l0.2-0.3c0,0,0.1-0.1,0.1-0.1c0.1-0.1,0.2-0.2,0.2-0.2
					c0.1,0,0.3,0.1,0.5,0.4c0.3,0.2,0.4,0.4,0.4,0.5c0,0.1-0.1,0.2-0.3,0.2h-1.9v0.9h0.6l0.2-0.3c0,0,0,0,0-0.1
					c0.1-0.2,0.2-0.2,0.2-0.2c0.1,0,0.2,0.1,0.5,0.3c0.2,0.2,0.4,0.4,0.4,0.5c0,0.1-0.1,0.2-0.3,0.2h-1.6v1.1h0.9L95,7.2
					c0.1,0.1,0.2,0.2,0.3,0.3c0.1-0.2,0.2-0.4,0.3-0.5c0.2-0.4,0.3-0.8,0.4-1.3c0.1-0.5,0.1-0.9,0.1-1.2l1.2,0.4c0,0,0.1,0,0.2-0.1
					c0.1,0,0.1,0,0.2,0c0.9-0.3,1.6-0.7,2.2-1.1c0.4,0.5,0.7,0.8,0.8,0.9c0.1,0.1,0,0.2-0.1,0.2l-0.3,0c-0.9,0.2-1.9,0.4-3,0.5
					c-0.4,1.1-0.9,1.9-1.6,2.5c0.1,0.1,0.3,0.2,0.5,0.4l0,0c0,0.1-0.1,0.2-0.3,0.2h-3C92.1,8.2,91.5,8.3,90.8,8.4z M94.1,14.9
					c0-0.3-0.1-0.5-0.2-0.6c-0.1-0.1-0.4-0.2-0.7-0.3v-0.2c0.3,0,0.7,0,1,0.1c0.1,0,0.2-0.1,0.2-0.2v-1.8H92v0.9
					c0,0.7,0,1.3,0.1,1.7c0,0.1-0.1,0.2-0.3,0.2c-0.2,0.1-0.3,0.1-0.5,0.1c-0.1,0-0.1,0-0.1-0.1c0,0-0.1-0.1-0.1-0.2
					c0-0.7,0.1-1.5,0.1-2.3v-1.3c0-1-0.1-1.8-0.2-2.5l1,0.5h2.2l0.4-0.5l1,0.8c0,0-0.1,0.1-0.1,0.1h2V8h-0.5c-0.2,0-0.5,0.1-0.8,0.2
					L96,7.6c0.4,0,1,0.1,1.6,0.1h1.9l0.2-0.3c0,0,0-0.1,0.1-0.1c0.1-0.1,0.2-0.2,0.2-0.2c0.1,0,0.2,0.1,0.5,0.3s0.4,0.4,0.4,0.5
					c-0.1,0.1-0.2,0.2-0.4,0.2v1.3h0.1l0.4-0.6c0.2,0.3,0.4,0.5,0.7,0.8c0,0.1-0.1,0.2-0.3,0.2h-0.8v0.8c0,0.1,0,0.3,0,0.5
					c0,0.4,0,0.8,0,1c0,0.1-0.1,0.1-0.3,0.2c-0.2,0.1-0.3,0.1-0.5,0.1c-0.1,0-0.2-0.1-0.2-0.2c0,0,0-0.1,0-0.1c0,0,0-0.1,0-0.1v-0.2
					h-1.1v1.9c0,0.4-0.1,0.7-0.2,0.9c-0.2,0.2-0.5,0.4-1,0.4c0-0.3-0.1-0.5-0.2-0.7c-0.1-0.2-0.4-0.3-0.8-0.3v-0.2
					c0.4,0,0.8,0.1,1.2,0.1c0.2,0,0.2-0.1,0.2-0.2v-1.9h-0.5c-0.3,0-0.6,0.1-0.9,0.2l-0.3-0.6c0.3,0,0.7,0.1,1.2,0.1h0.5V9.8h-1.9
					l-0.1-0.3c-0.1,0.1-0.2,0.1-0.3,0.1v4.1c0,0.4-0.1,0.6-0.2,0.8C94.8,14.7,94.5,14.8,94.1,14.9z M92,11.5h0.8V9.5H92V11.5z
					 M93.5,11.5h0.9V9.5h-0.9V11.5z M98.5,7.4c-0.2,0.1-0.3,0-0.5-0.2c0-0.6-0.1-1.2-0.4-1.9l0.1-0.1c0.4,0.3,0.8,0.6,0.9,0.9
					c0.2,0.3,0.2,0.5,0.2,0.8C98.8,7.2,98.7,7.4,98.5,7.4z M98.5,9.5h1.1V8h-1.1V9.5z M98.5,11.3h1.1V9.8h-1.1V11.3z M101.1,7.3
					c-0.2,0.1-0.3,0.1-0.5-0.1c-0.1-0.3-0.2-0.7-0.5-1.1c-0.2-0.4-0.5-0.7-0.7-1l0.1-0.1c0.6,0.2,1,0.5,1.4,0.8
					c0.3,0.3,0.4,0.6,0.4,0.8C101.3,7,101.2,7.2,101.1,7.3z"/>
			</g>
			<g>
				<path class="st0" d="M107.2,14.6c-0.7,0-1.1-0.1-1.3-0.2c-0.2-0.1-0.3-0.4-0.3-0.8V9.9c-0.7,0.7-1.6,1.3-2.7,1.8l-0.1-0.2
					c0.7-0.4,1.3-0.9,1.8-1.6c0.6-0.6,1-1.2,1.2-1.9h-0.9c-0.6,0-1.1,0.1-1.8,0.2l-0.3-0.6c0.4,0,1,0.1,1.6,0.1h1.6V6h-0.8
					c-0.4,0-0.9,0.1-1.4,0.2l-0.3-0.6c0.4,0,1,0.1,1.6,0.1h0.9c0-0.8,0-1.4-0.1-1.9c0.6,0.2,1,0.3,1.2,0.4c0.1,0.1,0.1,0.1,0,0.2
					l-0.2,0.1v1.1h2.5c0-0.8,0-1.4-0.1-1.9c0.6,0.2,1.1,0.3,1.2,0.4c0.1,0.1,0.1,0.1,0,0.2l-0.2,0.1v1.1h0.8l0.3-0.4
					c0,0,0.1-0.1,0.1-0.1c0.1-0.2,0.2-0.3,0.3-0.3c0.1,0,0.3,0.1,0.6,0.4c0.3,0.3,0.5,0.5,0.5,0.5c0,0.1-0.1,0.2-0.3,0.2h-2.2v1.7
					h1.4l0.3-0.4c0,0,0.1-0.1,0.1-0.1c0.1-0.2,0.2-0.3,0.3-0.3c0.1,0,0.3,0.1,0.6,0.4c0.3,0.3,0.5,0.5,0.5,0.5
					c0,0.1-0.1,0.2-0.3,0.2h-3.2c0.4,0.5,1,1,1.6,1.4c0.6,0.4,1.3,0.7,2,0.9l0,0.1c-0.4,0.1-0.6,0.4-0.7,0.8
					c-0.7-0.3-1.4-0.8-1.9-1.4c-0.1,0-0.1,0-0.1,0v0.7c0,0.1,0,0.3,0,0.4c0,0.4,0,0.7,0,0.9c0,0.1-0.1,0.1-0.3,0.2s-0.4,0.1-0.5,0.1
					H110v-0.5h-3.6v1.6c0,0.1,0,0.2,0.1,0.3c0.1,0,0.3,0.1,0.7,0.1h2.1c1,0,1.6,0,1.9,0c0.2,0,0.3-0.1,0.4-0.2
					c0.1-0.2,0.3-0.6,0.5-1.2h0.1l0,1.3c0.3,0.1,0.5,0.2,0.5,0.4c0,0.2-0.1,0.3-0.2,0.4c-0.2,0.1-0.5,0.1-1,0.2c-0.5,0-1.2,0-2.2,0
					H107.2z M106.6,9.5h3.3l0.4-0.5c-0.2-0.3-0.4-0.6-0.6-1H107c-0.2,0.5-0.5,0.9-0.9,1.2L106.6,9.5z M106.5,11.5h3.6V9.9h-3.6V11.5
					z M106.9,7.7h2.5V6h-2.5V7.7z"/>
			</g>
			<g>
				<path class="st0" d="M126.1,9.2L126,9c1-0.6,2-1.4,2.9-2.5c1-1.1,1.6-2,1.9-2.8l1.6,0.4c0,0.1-0.2,0.2-0.5,0.2
					c0.5,0.7,1.2,1.3,2.1,2c0.8,0.5,1.8,1,2.8,1.4l0,0.2c-0.2,0-0.4,0.2-0.5,0.3c-0.1,0.2-0.2,0.3-0.3,0.5c-1-0.5-1.8-1.1-2.5-1.8
					c-0.8-0.8-1.4-1.6-1.8-2.4c-0.6,0.9-1.4,1.7-2.4,2.6C128.2,8,127.2,8.7,126.1,9.2z M126.5,14.7l-0.3-0.6c0.4,0,1,0.1,1.6,0.1
					h3.1v-3.7h-2c-0.6,0-1.2,0.1-1.8,0.2l-0.3-0.6c0.4,0,1,0.1,1.6,0.1h2.5V8.3h-0.8c-0.4,0-0.9,0.1-1.4,0.2l-0.3-0.6
					c0.4,0,1,0.1,1.6,0.1h2.5l0.3-0.3c0,0,0.1-0.1,0.1-0.1c0.1-0.2,0.2-0.2,0.3-0.2c0.1,0,0.3,0.1,0.6,0.4c0.3,0.2,0.4,0.4,0.4,0.5
					c0,0.1-0.1,0.2-0.3,0.2h-2v1.9h2.5l0.3-0.4c0,0,0.1-0.1,0.1-0.1c0.1-0.2,0.2-0.3,0.3-0.3c0.1,0,0.3,0.1,0.6,0.4
					c0.3,0.3,0.5,0.5,0.5,0.5c0,0.1-0.1,0.2-0.3,0.2h-4v3.7h2.9l0.3-0.4c0,0,0-0.1,0.1-0.1c0.1-0.2,0.2-0.3,0.3-0.3
					c0.1,0,0.3,0.1,0.6,0.4c0.3,0.3,0.5,0.5,0.5,0.6c0,0.1-0.1,0.2-0.3,0.2h-8C127.7,14.5,127.1,14.6,126.5,14.7z M129.5,13.6
					c-0.2,0.1-0.4,0-0.6-0.2c0-0.7-0.3-1.5-0.8-2.4l0.1-0.1c0.6,0.3,1,0.7,1.3,1.1c0.2,0.3,0.3,0.7,0.3,1
					C129.8,13.3,129.7,13.5,129.5,13.6z M132.7,13.8l-0.2-0.1c0.1-0.1,0.2-0.3,0.2-0.4c0.4-0.8,0.6-1.6,0.8-2.4l0.8,0.4
					c0.6,0.2,0.7,0.3,0.4,0.4l-0.2,0.1C134,12.5,133.4,13.2,132.7,13.8z"/>
			</g>
			<g>
				<path class="st0" d="M142,14.6c-0.8,0-1.3-0.1-1.6-0.3c-0.4-0.2-0.5-0.6-0.5-1.2V7.8c-0.5,0.5-1,0.9-1.5,1.2l-0.1-0.1
					c0.8-0.7,1.6-1.7,2.3-2.9c0.2-0.3,0.4-0.7,0.6-1.2c0.2-0.4,0.3-0.8,0.3-1.1c0.7,0.2,1.1,0.3,1.3,0.4c0.1,0.1,0.1,0.1,0,0.2
					l-0.2,0c-0.1,0.2-0.3,0.5-0.5,0.9h2.4l0.3-0.3c0,0,0.1-0.1,0.1-0.1c0.1-0.1,0.2-0.2,0.3-0.2c0.1,0,0.2,0.1,0.5,0.4
					c0.3,0.3,0.4,0.4,0.4,0.5c-0.1,0.1-0.2,0.1-0.5,0.1c-0.7,0.8-1.3,1.4-1.8,1.7h2.8l0.2-0.3c0,0,0-0.1,0.1-0.1
					c0.1-0.2,0.2-0.2,0.2-0.2c0.1,0,0.3,0.1,0.6,0.4c0.3,0.3,0.5,0.4,0.5,0.5c-0.1,0.1-0.3,0.2-0.5,0.3v1.1c0,0.9,0.1,1.6,0.1,2.1
					c0,0.1-0.2,0.1-0.4,0.2c-0.2,0.1-0.4,0.1-0.5,0.1c-0.1,0-0.2-0.1-0.2-0.2c0,0,0-0.1,0-0.2c0,0,0-0.1,0-0.1v-0.3h-5.9v2.5
					c0,0.2,0.1,0.4,0.3,0.5c0.2,0.1,0.5,0.1,0.9,0.1h4.5c0.4,0,0.7,0,0.9-0.1c0.2,0,0.3-0.1,0.4-0.3c0.2-0.2,0.3-0.8,0.6-1.7h0.2
					l0,1.8c0.2,0.1,0.4,0.1,0.5,0.2c0.1,0,0.1,0.1,0.1,0.2c0,0.3-0.2,0.4-0.5,0.6c-0.4,0.1-1.1,0.2-2,0.2H142z M140.9,7.3h2.6
					c0.2-0.3,0.5-0.9,0.9-1.8h-2.7c-0.4,0.6-0.8,1.1-1.3,1.6L140.9,7.3z M140.8,10.2h2.4V7.7h-2.4V10.2z M144.1,10.2h2.5V7.7h-2.5
					V10.2z"/>
			</g>
			<g>
				<path class="st0" d="M151.7,14.4c-0.1,0-0.1,0-0.2-0.1c-0.1,0-0.1-0.1-0.1-0.2c0,0,0-0.1,0-0.2c0.1-0.9,0.1-1.8,0.1-2.6V9.8
					c-0.2,0.4-0.5,0.8-0.8,1.2l-0.2-0.1c0.7-1.4,1.2-3.2,1.5-5.6h-0.4c-0.2,0-0.5,0.1-0.8,0.2l-0.3-0.6c0.4,0,1,0.1,1.6,0.1h1.4
					l0.3-0.4c0,0,0.1-0.1,0.1-0.1c0.1-0.2,0.2-0.2,0.2-0.2c0.1,0,0.3,0.1,0.6,0.4c0.3,0.3,0.4,0.4,0.4,0.5c0,0.1-0.1,0.2-0.3,0.2
					h-1.8c-0.2,1.1-0.4,2.1-0.8,3l0.2,0.1h0.9l0.2-0.3c0,0,0,0,0-0.1c0.1-0.1,0.2-0.2,0.2-0.2c0.1,0,0.3,0.1,0.5,0.4
					c0.3,0.2,0.4,0.4,0.4,0.5c-0.1,0.1-0.2,0.2-0.5,0.2v1.8c0,1,0,1.9,0.1,2.8c-0.1,0.1-0.2,0.1-0.3,0.2c-0.2,0.1-0.3,0.1-0.5,0.1
					c-0.1,0-0.2-0.1-0.2-0.2c0,0,0-0.1,0-0.2c0-0.1,0-0.1,0-0.2v-0.3h-1.2v0.4c0,0.1,0,0.2,0,0.3c0,0.2,0,0.3,0,0.4
					c0,0.1-0.1,0.1-0.2,0.2C152.1,14.3,151.9,14.4,151.7,14.4z M152.4,12.5h1.2V8.6h-1.2V12.5z M154.2,14.9l-0.1-0.2
					c0.2-0.1,0.4-0.2,0.6-0.4c0.3-0.2,0.7-0.5,0.9-0.8c0.3-0.3,0.5-0.7,0.7-0.9l0.7,0.5c0.6,0.2,0.7,0.4,0.3,0.4l-0.3,0
					c-0.3,0.3-0.8,0.5-1.3,0.8C155.4,14.5,154.8,14.7,154.2,14.9z M155.4,13c-0.1,0-0.2-0.1-0.2-0.2c0-0.3,0.1-0.7,0.1-1.2v-0.7
					c0-0.9,0-1.7-0.1-2.3l1.1,0.5h1.3V8.1h-0.9c-0.6,0-1.2,0.1-1.8,0.2l-0.3-0.6c0.4,0,1,0.1,1.6,0.1h3.8l0.3-0.4c0,0,0-0.1,0.1-0.1
					c0.1-0.2,0.2-0.3,0.3-0.3c0.1,0,0.3,0.1,0.5,0.4c0.3,0.3,0.4,0.4,0.4,0.5c0,0.1-0.1,0.2-0.3,0.2h-2.8V9h1.5l0.2-0.3
					c0,0,0,0,0-0.1c0.1-0.1,0.2-0.2,0.2-0.2c0.1,0,0.2,0.1,0.5,0.3c0.2,0.2,0.4,0.4,0.4,0.5c-0.1,0.1-0.2,0.2-0.4,0.2v1.1
					c0,0.9,0,1.6,0.1,2.1c0,0.1-0.1,0.1-0.3,0.2c-0.2,0.1-0.3,0.1-0.5,0.1h-0.1v-0.4h-3.8v0.3c0,0-0.1,0.1-0.2,0.1
					C155.7,13,155.6,13,155.4,13z M156.2,7.5c-0.2,0-0.2-0.1-0.2-0.2c0-0.3,0.1-0.6,0.1-1V5.6h-0.4c-0.2,0-0.5,0.1-0.7,0.2l-0.3-0.6
					c0.3,0,0.6,0.1,1,0.1h0.5c0-0.6,0-1.1-0.1-1.5c0.6,0.2,1,0.3,1.1,0.4c0.1,0.1,0.1,0.2,0,0.2l-0.2,0.1v0.7h1.9
					c0-0.6,0-1.1-0.1-1.5c0.6,0.2,1,0.3,1.1,0.4c0.1,0.1,0.1,0.1,0,0.2l-0.2,0.1v0.7h0.3l0.2-0.3c0,0,0.1-0.1,0.1-0.1
					c0.1-0.1,0.2-0.2,0.2-0.2c0.1,0,0.3,0.1,0.5,0.4c0.3,0.2,0.4,0.4,0.4,0.5c0,0.1-0.1,0.2-0.3,0.2h-1.5v0.5c0,0.1,0,0.3,0,0.4
					c0,0.2,0,0.4,0,0.5c0,0.1-0.1,0.1-0.3,0.2c-0.2,0.1-0.3,0.1-0.5,0.1h-0.1V6.8h-1.9v0.4c0,0-0.1,0.1-0.2,0.2
					C156.5,7.5,156.4,7.5,156.2,7.5z M156.1,10.5h1.5V9.4h-1.5V10.5z M156.1,12.1h1.5v-1.2h-1.5V12.1z M156.9,6.5h1.9V5.6h-1.9V6.5z
					 M158.3,10.5h1.5V9.4h-1.5V10.5z M158.3,12.1h1.5v-1.2h-1.5V12.1z M161.1,14.8c-0.1,0.2-0.3,0.2-0.6,0.1c-0.2-0.3-0.5-0.6-0.9-1
					c-0.4-0.3-0.8-0.6-1.2-0.9l0.1-0.1c0.7,0.1,1.4,0.3,1.8,0.5c0.4,0.2,0.6,0.5,0.8,0.8C161.2,14.4,161.2,14.6,161.1,14.8z"/>
			</g>
			<g>
				<path class="st0" d="M164.6,8.3c-0.2,0.1-0.4,0.1-0.6,0c-0.1-0.2-0.2-0.5-0.4-0.8c-0.2-0.2-0.4-0.5-0.6-0.6l0.1-0.1
					c0.6,0.1,1,0.2,1.3,0.4c0.3,0.2,0.4,0.4,0.4,0.6C164.8,8.1,164.8,8.2,164.6,8.3z M164.2,14.9c-0.3,0-0.4-0.2-0.4-0.6
					c0.1-0.6,0.1-1.1,0.1-1.6c0-0.5-0.1-0.7-0.2-0.8c-0.1-0.1-0.3-0.2-0.6-0.2v-0.3h0.3h0.3c0.1,0,0.1,0,0.2,0c0,0,0.1-0.1,0.1-0.2
					c0.1-0.2,0.3-0.5,0.4-1c0.2-0.5,0.8-1.9,1.7-4.4l0.2,0.1c-0.8,2.8-1.3,4.4-1.5,5c-0.1,0.5-0.2,0.9-0.2,1.1c0,0.1,0,0.4,0.1,0.7
					c0.2,0.5,0.2,1,0.2,1.4c0,0.3-0.1,0.5-0.2,0.6C164.6,14.8,164.5,14.9,164.2,14.9z M165.4,5.7c-0.2,0.1-0.4,0.1-0.6,0
					c-0.1-0.3-0.2-0.5-0.5-0.9c-0.2-0.3-0.4-0.5-0.7-0.7l0.1-0.1c0.6,0.1,1.1,0.2,1.4,0.5c0.3,0.2,0.4,0.4,0.5,0.7
					C165.7,5.4,165.6,5.6,165.4,5.7z M165.6,14.8l-0.1-0.2c1.6-0.6,2.7-1.4,3.1-2.6h-1.1c-0.6,0-1.2,0.1-1.8,0.2l-0.3-0.6
					c0.4,0,1,0.1,1.6,0.1h1.7c0.1-0.4,0.2-0.9,0.1-1.3c0.7,0.1,1.1,0.2,1.3,0.3c0.1,0.1,0.1,0.1,0,0.2L170,11
					c-0.1,0.3-0.1,0.6-0.2,0.8h2.3l0.3-0.4c0,0,0.1-0.1,0.1-0.1c0.1-0.2,0.2-0.2,0.2-0.2c0.1,0,0.3,0.1,0.6,0.4
					c0.3,0.3,0.4,0.4,0.4,0.5c0,0.1-0.1,0.2-0.3,0.2h-3.2c0.6,0.8,1.8,1.4,3.6,1.8l0,0.2c-0.2,0-0.4,0.1-0.5,0.2
					c-0.1,0.1-0.2,0.3-0.2,0.6c-1.6-0.5-2.6-1.4-3.1-2.7h-0.2c-0.3,0.6-0.7,1.2-1.3,1.6C167.7,14.2,166.8,14.6,165.6,14.8z
					 M166.2,7.7l-0.2-0.1c0.1-0.2,0.2-0.4,0.4-0.6c0.2-0.4,0.3-0.8,0.5-1.2c0.1-0.5,0.2-0.9,0.2-1.2l1.2,0.5
					c1.4-0.4,2.5-0.7,3.4-1.1l0.5,0.5l0.5,0.5c-0.1,0.1-0.3,0.1-0.6,0c-1.2,0.2-2.5,0.4-4,0.5C167.6,6.3,167,7.1,166.2,7.7z
					 M166.6,11l-0.5-1.1c0.6,0,1.5,0,2.7-0.1c0.1-0.1,0.2-0.3,0.4-0.5c0.1-0.1,0.2-0.2,0.3-0.3c0.6-0.7,1-1.4,1.3-2.1
					c0.6,0.3,0.9,0.5,1,0.7c0.1,0.1,0.1,0.2-0.1,0.2l-0.2,0c-0.6,0.6-1.4,1.3-2.2,2c0.1,0,0.3,0,0.6,0c0.9,0,1.6-0.1,2.1-0.1
					c-0.3-0.3-0.6-0.6-0.8-0.8l0.1-0.1c0.6,0.1,1.2,0.3,1.5,0.6c0.3,0.2,0.5,0.5,0.6,0.7c0.1,0.2,0,0.4-0.1,0.6
					c-0.1,0.1-0.3,0.1-0.6,0c-0.1-0.2-0.3-0.5-0.5-0.8c-1.2,0.2-2.9,0.5-5.1,0.9C166.8,10.9,166.7,11,166.6,11z M168.6,9.3
					c-0.1,0.1-0.3,0.1-0.5,0c-0.1-0.2-0.3-0.5-0.5-0.8c-0.2-0.3-0.5-0.5-0.7-0.7l0.1-0.1c0.4,0.1,0.8,0.2,1.1,0.3
					c0.3-0.6,0.6-1.1,0.7-1.7l0.8,0.5c0-0.5-0.2-1-0.5-1.6l0.1-0.1c0.5,0.2,0.9,0.5,1.1,0.8c0.2,0.3,0.2,0.5,0.1,0.7
					c-0.1,0.2-0.2,0.3-0.4,0.3c-0.1,0.1-0.2,0.2-0.4,0.1c-0.4,0.4-0.7,0.7-1.1,1c0.2,0.2,0.4,0.4,0.4,0.6
					C168.8,9,168.8,9.2,168.6,9.3z M173.1,7.2c-0.1,0.1-0.3,0.1-0.6,0c-0.1-0.3-0.3-0.7-0.6-1.1c-0.3-0.4-0.6-0.7-0.9-1l0.1-0.1
					c0.7,0.2,1.2,0.5,1.5,0.8c0.3,0.3,0.5,0.6,0.6,0.9C173.3,6.9,173.3,7.1,173.1,7.2z"/>
			</g>
			<g>
				<path class="st0" d="M175.8,13.7c-0.1,0-0.1,0-0.2-0.1c-0.1,0-0.1-0.1-0.1-0.2c0.1-1,0.1-2.1,0.1-3.1V7c0-1-0.1-1.8-0.2-2.5
					l1,0.5h2l0.2-0.2c0,0,0,0,0.1-0.1c0.1-0.1,0.2-0.2,0.2-0.2c0.1,0,0.2,0.1,0.5,0.3c0.3,0.2,0.4,0.3,0.4,0.4
					c-0.1,0.1-0.2,0.2-0.5,0.2V10c0,1,0,1.9,0.1,2.8c-0.1,0.1-0.2,0.2-0.3,0.2c-0.2,0.1-0.3,0.1-0.4,0.1c-0.1,0-0.2-0.1-0.2-0.2
					c0,0,0-0.1,0-0.2c0-0.1,0-0.1,0-0.2v-0.3h-2.2v0.4c0,0.1,0,0.2,0,0.3c0,0.2,0,0.3,0,0.4c0,0.1-0.1,0.2-0.2,0.3
					C176.1,13.6,176,13.7,175.8,13.7z M176.5,8.4h0.7v-3h-0.7V8.4z M176.5,11.9h0.7V8.7h-0.7V11.9z M177.9,8.4h0.7v-3h-0.7V8.4z
					 M177.9,11.9h0.7V8.7h-0.7V11.9z M182.3,14.9c-0.1,0-0.2,0-0.2-0.1c0,0-0.1-0.1-0.1-0.2c0-0.7,0.1-1.5,0.1-2.2v-1.2h-0.8
					c-0.5,0-1,0.1-1.5,0.2l-0.3-0.6c0.4,0,1,0.1,1.6,0.1h1V8.5h-0.7c-0.4,0-0.8,0.1-1.2,0.2l-0.3-0.6c0.4,0,0.9,0.1,1.5,0.1h0.7v-2
					c0-1-0.1-1.8-0.2-2.5c0.7,0.2,1.1,0.3,1.2,0.4c0.1,0.1,0.1,0.1,0,0.2L183,4.5v3.7h1l0.2-0.4c0,0,0.1-0.1,0.1-0.1
					c0.1-0.2,0.2-0.2,0.2-0.2c0.1,0,0.3,0.1,0.5,0.4c0.3,0.3,0.4,0.4,0.4,0.5c0,0.1-0.1,0.2-0.3,0.2H183v2.4h1.3l0.3-0.4
					c0,0,0-0.1,0.1-0.1c0.1-0.2,0.2-0.3,0.3-0.3c0.1,0,0.3,0.1,0.6,0.4c0.3,0.3,0.4,0.4,0.4,0.5c0,0.1-0.1,0.2-0.3,0.2H183v1.1
					c0,0.9,0.1,1.6,0.1,2.1c0,0.1-0.1,0.2-0.3,0.3C182.6,14.8,182.4,14.9,182.3,14.9z M179.8,7.9l-0.2-0.1c0.1-0.3,0.2-0.5,0.3-0.7
					c0.2-0.4,0.3-0.8,0.4-1.3c0.1-0.5,0.2-0.9,0.2-1.2l0.8,0.3c0.6,0.1,0.7,0.2,0.4,0.3l-0.2,0.1C181,6.5,180.4,7.3,179.8,7.9z
					 M185.5,7.5c-0.2,0.1-0.4,0.1-0.6-0.1c-0.2-0.7-0.7-1.6-1.5-2.6l0.1-0.1c0.7,0.3,1.2,0.7,1.6,1.1c0.3,0.3,0.5,0.7,0.5,1
					C185.7,7.2,185.6,7.4,185.5,7.5z"/>
			</g>
			<g>
				<path class="st0" d="M189.2,14.9c-0.1,0-0.1,0-0.2-0.1c-0.1,0-0.1-0.1-0.1-0.2c0.1-1,0.1-2.1,0.1-3.1V8.3
					c-0.4,0.6-0.9,1.2-1.4,1.7l-0.2-0.1c0.6-1,1.2-2.1,1.7-3.6c0.1-0.4,0.3-0.8,0.4-1.3c0.1-0.5,0.2-0.9,0.2-1.3
					c0.7,0.2,1.1,0.4,1.3,0.5c0.1,0.1,0.1,0.1,0,0.2l-0.2,0.1c-0.3,0.9-0.7,1.7-1.1,2.5l0.5,0.2c0,0.1-0.2,0.2-0.3,0.2v4.2
					c0,1,0,1.9,0.1,2.8c-0.1,0.1-0.2,0.2-0.3,0.2C189.5,14.8,189.3,14.9,189.2,14.9z M190.2,14.9l-0.1-0.2c1.4-0.5,2.4-1.2,3-2
					c-0.3-0.4-0.6-0.9-0.8-1.5c-0.3,0.5-0.5,0.8-0.7,1.1c0,0.1,0,0.2-0.1,0.3l-0.5-0.8c0.5-0.3,0.9-0.6,1.2-0.8l0.1-0.5l0.4,0.2
					l-0.3,0.4l0,0c0.2,0.5,0.6,0.9,1,1.2c0.3-0.6,0.5-1.4,0.5-2.2h-1.8v0.4c0,0-0.1,0.1-0.3,0.2c-0.2,0.1-0.3,0.1-0.5,0.1
					c-0.1,0-0.2-0.1-0.2-0.2c0-0.3,0.1-0.6,0.1-1.1V8.7c0-0.8,0-1.5-0.1-2l1.1,0.5h1.8V5.8h-1.1c-0.6,0-1.2,0.1-1.8,0.2l-0.3-0.6
					c0.4,0,1,0.1,1.6,0.1h1.6c0-0.7,0-1.2-0.1-1.7c0.7,0.2,1.1,0.3,1.2,0.4c0.1,0.1,0.1,0.2,0,0.2l-0.2,0.1v0.9h1.8l0.3-0.4
					c0,0,0-0.1,0.1-0.1c0.1-0.2,0.2-0.3,0.3-0.3c0.1,0,0.3,0.1,0.6,0.4c0.3,0.3,0.5,0.5,0.5,0.5c0,0.1-0.1,0.2-0.3,0.2h-3.2v1.3h1.7
					l0.2-0.3c0,0,0-0.1,0.1-0.1c0.1-0.2,0.2-0.2,0.2-0.2c0.1,0,0.3,0.1,0.6,0.4c0.3,0.3,0.4,0.4,0.4,0.5c-0.1,0.1-0.2,0.2-0.5,0.2
					v0.9c0,0.7,0,1.3,0.1,1.7c0,0.1-0.2,0.1-0.3,0.2c-0.2,0.1-0.3,0.1-0.5,0.1c-0.1,0-0.2-0.1-0.2-0.2c0,0,0-0.1,0-0.1
					c0,0,0,0,0-0.1V9.9h-1.8c0,1.1-0.3,2-0.8,2.7c1.1,0.7,2.6,1.1,4.4,1.1v0.1c-0.2,0.1-0.4,0.2-0.5,0.3c-0.1,0.2-0.2,0.4-0.3,0.6
					c-1.8-0.2-3.2-0.8-4.1-1.7C192.8,13.9,191.7,14.5,190.2,14.9z M192.1,9.6h1.8v0V7.5h-1.8V9.6z M194.8,9.6h1.8V7.5h-1.8V9.6
					L194.8,9.6z"/>
			</g>
			<g>
				<path class="st0" d="M199.8,7.8l-0.1-0.1c0.4-0.4,0.9-1,1.3-1.8c0.5-0.8,0.8-1.6,0.9-2.3c0.6,0.2,1,0.4,1.2,0.5
					c0.1,0.1,0.1,0.2,0,0.2l-0.2,0.1c0.6,0.2,1,0.4,1.3,0.7c0.2,0.2,0.3,0.5,0.3,0.7c0,0.2-0.1,0.3-0.3,0.4c-0.2,0.1-0.3,0-0.5-0.1
					c-0.2-0.6-0.6-1.1-1.1-1.6c-0.4,0.7-0.8,1.3-1.4,1.9h1.3l0.2-0.3c0,0,0,0,0.1-0.1c0.1-0.2,0.2-0.2,0.3-0.2
					c0.1,0,0.2,0.1,0.5,0.3c0.2,0.2,0.4,0.4,0.4,0.5c0,0.1-0.1,0.2-0.3,0.2h-2.3l-0.1-0.3C200.8,7.1,200.3,7.6,199.8,7.8z
					 M200.8,14.9c-0.1,0-0.1,0-0.2-0.1c-0.1,0-0.1-0.1-0.1-0.2c0.1-1,0.1-2.1,0.1-3.1V9.7c0-1-0.1-1.8-0.2-2.5l1,0.5h1.8l0.2-0.2
					c0,0,0,0,0.1-0.1c0.1-0.1,0.2-0.2,0.2-0.2c0.1,0,0.2,0.1,0.5,0.3c0.2,0.2,0.4,0.3,0.4,0.4c-0.1,0.1-0.2,0.2-0.4,0.2v0.9
					c0,0.7,0,1.3,0.1,1.7c0,0.1-0.1,0.1-0.3,0.2c-0.2,0.1-0.3,0.1-0.4,0.1h-0.1v-0.4h-2v1.1h1.6l0.2-0.3c0,0,0-0.1,0.1-0.1
					c0.1-0.2,0.2-0.2,0.2-0.2c0.1,0,0.2,0.1,0.5,0.3c0.3,0.2,0.4,0.4,0.4,0.5c0,0.1-0.1,0.2-0.3,0.2h-2.7v1.1h1.7l0.2-0.3
					c0,0,0-0.1,0.1-0.1c0.1-0.2,0.2-0.2,0.2-0.2c0.1,0,0.3,0.1,0.5,0.4s0.4,0.4,0.4,0.5c0,0.1-0.1,0.2-0.3,0.2h-2.9V14
					c0,0.1,0,0.2,0,0.3c0,0.1,0,0.2,0,0.3c0,0.1-0.1,0.2-0.2,0.3C201.1,14.9,201,14.9,200.8,14.9z M201.5,9.1h2v-1h-2V9.1z
					 M201.5,10.4h2V9.4h-2V10.4z M204.5,6.7c-0.1-0.1-0.1-0.2,0-0.4c0-0.1,0.1-0.2,0.3-0.3c0.1-0.1,0.3-0.3,0.4-0.6
					c0.1-0.3,0.2-0.5,0.2-0.8l0.2,0c0.1,0.3,0.1,0.5,0.1,0.7h1.3c0-0.7,0-1.2-0.1-1.6c0.6,0.2,1,0.3,1.2,0.4c0.1,0.1,0.1,0.1,0,0.2
					l-0.2,0.1v0.9h1.4l0.2-0.3c0,0,0.1-0.1,0.1-0.1c0.1-0.1,0.2-0.2,0.2-0.2c0.1,0,0.2,0.1,0.5,0.4c0.3,0.3,0.4,0.5,0.4,0.5
					c-0.1,0.1-0.2,0.1-0.4,0.1c0,0-0.1,0.1-0.1,0.1c-0.4,0.4-0.7,0.6-0.9,0.8l-0.1-0.1c0,0,0-0.1,0-0.2c0.1-0.3,0.1-0.6,0.1-0.7
					h-3.7c0,0.5-0.1,0.8-0.3,1.1c-0.1,0.1-0.3,0.2-0.4,0.2C204.7,6.9,204.6,6.9,204.5,6.7z M205.6,14.9c-0.1,0-0.1,0-0.2-0.1
					c-0.1,0-0.1-0.1-0.1-0.2c0.1-1,0.1-2.1,0.1-3.1V9c0-1-0.1-1.8-0.2-2.5l1,0.5h2.2l0.2-0.3c0,0,0,0,0-0.1c0.1-0.1,0.2-0.2,0.2-0.2
					c0.1,0,0.3,0.1,0.5,0.4c0.3,0.2,0.4,0.4,0.4,0.5c-0.1,0.1-0.2,0.2-0.4,0.2v0.8c0,0.7,0,1.2,0.1,1.6c0,0.1-0.2,0.1-0.3,0.2
					c-0.2,0.1-0.3,0.1-0.5,0.1h-0.1V9.7h-2.4V11h2.6l0.2-0.2c0,0,0,0,0.1-0.1c0.1-0.1,0.2-0.2,0.2-0.2c0.1,0,0.3,0.1,0.5,0.3
					c0.3,0.2,0.4,0.4,0.4,0.4c-0.1,0.1-0.2,0.2-0.4,0.2v1c0,0.8,0,1.4,0.1,1.9c0,0.1-0.2,0.1-0.3,0.2c-0.2,0.1-0.3,0.1-0.5,0.1
					c-0.1,0-0.2-0.1-0.2-0.2c0,0,0-0.1,0-0.2c0-0.1,0-0.1,0-0.1v-0.3h-2.7v0.2c0,0.1,0,0.1,0,0.2c0,0.1,0,0.1,0,0.2
					c0,0.1-0.1,0.2-0.2,0.3C205.9,14.8,205.7,14.9,205.6,14.9z M206.2,9.4h2.4v-2h-2.4V9.4z M206.2,13.5h2.7v-2.2h-2.7V13.5z"/>
			</g>
			<g>
				<path class="st0" d="M214.2,14.9c-0.1,0-0.1,0-0.2-0.1c-0.1,0-0.1-0.1-0.1-0.2c0,0,0-0.1,0-0.2c0.1-0.8,0.1-1.7,0.1-2.5v-1.5
					c-0.4,0.2-0.8,0.4-1.2,0.6c0,0.2-0.1,0.3-0.3,0.3l-0.5-1.2c0.4-0.1,1.1-0.3,2-0.6V7h-0.9c-0.2,0.8-0.5,1.4-0.9,1.8l-0.2-0.1
					c0.2-0.5,0.3-1,0.4-1.6c0.1-0.4,0.1-0.8,0.2-1.3c0-0.5,0-0.9,0-1.2c0.6,0.1,1,0.2,1.2,0.3c0.1,0.1,0.1,0.1,0,0.2l-0.2,0.1
					c-0.1,0.5-0.2,1-0.3,1.5h0.8V6.2c0-1-0.1-1.8-0.2-2.5c0.7,0.2,1.1,0.3,1.2,0.4c0.1,0.1,0.1,0.2,0,0.2l-0.2,0.1v2.2h0.3l0.3-0.4
					c0,0,0.1-0.1,0.1-0.1c0.1-0.2,0.2-0.3,0.3-0.3c0.1,0,0.3,0.1,0.5,0.4c0.3,0.3,0.4,0.5,0.4,0.6c0,0.1-0.1,0.2-0.3,0.2h-1.5v2.3
					c0.2-0.1,0.5-0.2,0.9-0.3c0.4-0.1,0.7-0.2,0.9-0.3l0.1,0.2c-0.1,0-0.2,0.1-0.3,0.2c-0.6,0.3-1.1,0.6-1.4,0.8v1.7
					c0,1,0,1.9,0.1,2.8c0,0.1-0.1,0.2-0.3,0.3C214.5,14.8,214.4,14.9,214.2,14.9z M216,8.3l-0.3-0.6c0.4,0,1,0.1,1.6,0.1h1.4V5.9
					h-0.7c-0.4,0-0.9,0.1-1.3,0.2l-0.3-0.6c0.4,0,1,0.1,1.6,0.1h0.8c0-0.7,0-1.3-0.1-1.8c0.7,0.2,1.1,0.3,1.2,0.4
					c0.1,0.1,0.1,0.1,0,0.2l-0.2,0.1v1h1.2l0.3-0.4c0,0,0.1-0.1,0.1-0.1c0.1-0.2,0.2-0.3,0.2-0.3c0.1,0,0.3,0.1,0.6,0.4
					c0.3,0.3,0.4,0.5,0.4,0.5c0,0.1-0.1,0.2-0.3,0.2h-2.5v1.8h1.7l0.3-0.4c0,0,0.1-0.1,0.1-0.2c0.1-0.2,0.2-0.3,0.2-0.3
					c0.1,0,0.3,0.1,0.6,0.4c0.3,0.3,0.5,0.5,0.5,0.6c0,0.1-0.1,0.2-0.3,0.2h-4.8C217.2,8.1,216.6,8.2,216,8.3z M219.6,14.9
					c0-0.3-0.1-0.5-0.3-0.7c-0.2-0.2-0.6-0.3-1.1-0.3v-0.2c0.6,0,1.1,0.1,1.6,0.1c0.2,0,0.3-0.1,0.3-0.2v-3.4h-2.3
					c-0.6,0-1.2,0.1-1.8,0.2l-0.3-0.6c0.4,0,1,0.1,1.6,0.1h2.8c0-0.7,0-1.2-0.1-1.6c0.6,0.2,1,0.3,1.2,0.4c0.1,0.1,0.1,0.1,0,0.2
					l-0.2,0.1v0.8h0.3l0.2-0.4c0,0,0-0.1,0.1-0.1c0.1-0.2,0.2-0.3,0.3-0.3c0.1,0,0.2,0.1,0.5,0.4c0.3,0.3,0.4,0.5,0.4,0.5
					c0,0.1-0.1,0.2-0.3,0.2h-1.5v3.4c0,0.4-0.1,0.7-0.2,0.9C220.6,14.7,220.2,14.8,219.6,14.9z M218.5,12.7
					c-0.2,0.1-0.4,0.1-0.6-0.1c-0.1-0.3-0.2-0.7-0.5-1.1c-0.2-0.3-0.5-0.7-0.7-0.9l0.1-0.1c0.6,0.2,1.1,0.4,1.5,0.8
					c0.3,0.3,0.4,0.6,0.5,0.9C218.8,12.4,218.7,12.6,218.5,12.7z"/>
			</g>
			<g>
				<path class="st0" d="M225.3,14.9c-0.1,0-0.1,0-0.2-0.1c-0.1,0-0.1-0.1-0.1-0.2c0.1-1,0.1-2.1,0.1-3.1V6.7c0-1-0.1-1.8-0.2-2.5
					l1.2,0.5h6.7l0.3-0.4c0,0,0.1-0.1,0.1-0.1c0.1-0.2,0.2-0.3,0.3-0.3c0.1,0,0.3,0.1,0.6,0.4c0.3,0.3,0.5,0.5,0.5,0.5
					c0,0.1-0.1,0.2-0.3,0.2h-8.2v8.6h7.2l0.3-0.4c0,0,0.1-0.1,0.1-0.1c0.1-0.2,0.2-0.3,0.3-0.3c0.1,0,0.3,0.1,0.6,0.4
					c0.3,0.3,0.5,0.5,0.5,0.6c0,0.1-0.1,0.2-0.3,0.2h-8.7v0.5c0,0-0.1,0.1-0.2,0.2C225.7,14.9,225.6,14.9,225.3,14.9z M227.1,13.2
					c0,0-0.1,0-0.1-0.1c0,0-0.1-0.1-0.1-0.2c0-0.3,0.1-0.6,0.1-1.1v-0.7c0-0.8,0-1.5-0.1-2l1,0.4h1.2l0.2-0.3c0,0,0,0,0-0.1
					c0.1-0.1,0.2-0.2,0.2-0.2c0.1,0,0.2,0.1,0.5,0.3c0.2,0.2,0.4,0.3,0.4,0.4c-0.1,0.1-0.2,0.2-0.4,0.2v0.9c0,0.7,0,1.3,0.1,1.7
					c0,0.1-0.1,0.1-0.3,0.2c-0.2,0.1-0.3,0.1-0.4,0.1c-0.1,0-0.2-0.1-0.2-0.2c0,0,0,0,0-0.1c0,0,0-0.1,0-0.1v-0.2h-1.4v0.6
					c0,0-0.1,0.1-0.2,0.2C227.4,13.1,227.2,13.2,227.1,13.2z M227.8,12h1.4v-2h-1.4V12z M228.4,9.1c-0.1,0-0.2-0.1-0.2-0.2
					c0-0.2,0-0.4,0-0.6c0-0.1,0-0.2,0-0.3V7.4c0-0.7,0-1.3-0.1-1.8l1.1,0.5h2.3l0.2-0.3c0,0,0,0,0-0.1c0.1-0.1,0.2-0.2,0.2-0.2
					c0.1,0,0.3,0.1,0.5,0.3c0.3,0.2,0.4,0.4,0.4,0.5c-0.1,0.1-0.2,0.2-0.4,0.2v0.7c0,0.1,0,0.3,0,0.4c0,0.4,0,0.7,0,0.9
					c0,0.1-0.2,0.1-0.3,0.2C232,8.9,231.8,9,231.7,9h-0.1V8.4h-2.4v0.4c0,0-0.1,0.1-0.2,0.2C228.7,9.1,228.6,9.1,228.4,9.1z
					 M229.1,8.1h2.4V6.4h-2.4V8.1z M230.8,13c-0.1,0-0.2-0.1-0.2-0.2c0-0.2,0-0.4,0-0.7c0-0.1,0-0.2,0-0.3v-0.6c0-0.8,0-1.4-0.1-1.9
					l1,0.4h1.3l0.2-0.3c0,0,0,0,0.1-0.1c0.1-0.1,0.2-0.2,0.2-0.2c0.1,0,0.2,0.1,0.5,0.3c0.3,0.2,0.4,0.4,0.4,0.5
					c-0.1,0.1-0.2,0.2-0.4,0.2v0.9c0,0.7,0,1.2,0.1,1.6c0,0.1-0.1,0.1-0.3,0.2c-0.2,0.1-0.3,0.1-0.5,0.1h-0.1v-0.6h-1.4v0.4
					c0,0-0.1,0.1-0.2,0.2C231.1,13,231,13,230.8,13z M231.5,12h1.4v-2h-1.4V12z"/>
			</g>
			<g>
				<path class="st0" d="M76,36.5c-1.1-0.3-2-0.8-2.6-1.4c-0.7-0.6-1.2-1.5-1.5-2.5h-1.2V35c0.8-0.1,1.6-0.2,2.3-0.4l0,0.2
					c-1.4,0.5-2.8,1-4.2,1.4c-0.1,0.2-0.1,0.2-0.3,0.3l-0.6-1.1c0.2,0,0.6-0.1,1.2-0.2c0.2,0,0.4-0.1,0.6-0.1v-2.5H68
					c-0.3,1.6-1,2.9-1.9,3.9L66,36.3c0.6-1,0.9-2.2,1.2-3.6c0.1-1,0.2-2.2,0.2-3.8v-1.7c0-0.7,0-1.3-0.1-1.7l1.2,0.5h6.2l0.2-0.3
					c0,0,0,0,0.1-0.1c0.1-0.1,0.2-0.2,0.2-0.2c0.1,0,0.3,0.1,0.6,0.3c0.3,0.2,0.4,0.4,0.4,0.5c-0.1,0.1-0.2,0.2-0.5,0.2v0.7
					c0,0.1,0,0.2,0,0.4c0,0.4,0,0.7,0,0.9c0,0.1-0.1,0.1-0.3,0.2s-0.4,0.1-0.5,0.1h-0.1v-0.4h-6.5V29c0,0.5,0,0.9,0,1.2h1.9
					c0-0.6,0-1.1-0.1-1.5c0.6,0.2,1,0.3,1.1,0.4c0.1,0.1,0.1,0.1,0,0.2l-0.2,0.1v0.8H73c0-0.6,0-1.1-0.1-1.5c0.6,0.2,1,0.3,1.1,0.4
					c0.1,0.1,0.1,0.1,0,0.2l-0.2,0.1v0.8h1l0.2-0.4c0,0,0-0.1,0.1-0.1c0.1-0.2,0.2-0.3,0.3-0.3c0.1,0,0.3,0.1,0.5,0.4
					c0.3,0.3,0.4,0.4,0.4,0.5c0,0.1-0.1,0.2-0.3,0.2h-2.2v1.7h1.2l0.2-0.4c0,0,0-0.1,0.1-0.1c0.1-0.2,0.2-0.3,0.3-0.3
					c0.1,0,0.3,0.1,0.5,0.4c0.3,0.3,0.4,0.4,0.4,0.5c0,0.1-0.1,0.2-0.3,0.2h-4.3c0.3,0.6,0.7,1.1,1.2,1.5c0.7-0.5,1.3-1,1.7-1.6
					c0.5,0.4,0.8,0.6,0.9,0.8c0.1,0.1,0.1,0.2-0.1,0.2h-0.2c-0.6,0.3-1.3,0.5-2.1,0.8c0.8,0.6,1.9,1,3.3,1.2l0,0.1
					C76.4,35.7,76.1,36,76,36.5z M68.1,32.2h2.1v-1.7h-1.9l0-0.1C68.3,31.1,68.2,31.7,68.1,32.2z M68.3,28.1h6.5v-1.7h-6.5V28.1z
					 M71.1,32.2H73v-1.7h-1.9V32.2z"/>
			</g>
			<g>
				<path class="st0" d="M78.6,36.2l-0.3-0.6c0.4,0,1,0.1,1.6,0.1h0.9v-4.7c0-1-0.1-1.8-0.2-2.5l1.2,0.5h3.7l0.2-0.3
					c0,0,0.1-0.1,0.1-0.1c0.1-0.1,0.2-0.2,0.2-0.2c0.1,0,0.3,0.1,0.6,0.4c0.3,0.3,0.5,0.4,0.5,0.5c-0.1,0.1-0.3,0.2-0.5,0.2v6.2h0.7
					l0.3-0.4c0,0,0-0.1,0.1-0.1c0.1-0.2,0.2-0.3,0.3-0.3c0.1,0,0.3,0.1,0.6,0.4c0.3,0.3,0.5,0.5,0.5,0.6c0,0.1-0.1,0.2-0.3,0.2h-8.3
					C79.8,36,79.2,36.1,78.6,36.2z M78.9,29.3c-0.2,0-0.3-0.1-0.4-0.3c-0.1-0.3,0-0.5,0.3-0.7c0.3-0.2,0.5-0.4,0.6-0.7
					c0.2-0.4,0.3-0.8,0.3-1.2l0.2,0c0.1,0.2,0.1,0.5,0.2,0.7h3.1c0-0.7,0-1.3-0.1-1.7c0.7,0.2,1.1,0.3,1.3,0.4
					c0.1,0.1,0.1,0.1,0,0.2l-0.2,0.1v1h3.4l0.2-0.3c0,0,0-0.1,0.1-0.1c0.1-0.1,0.2-0.2,0.2-0.2c0.1,0,0.2,0.1,0.5,0.4
					c0.3,0.3,0.4,0.5,0.4,0.6c-0.1,0.1-0.2,0.1-0.4,0.1c-0.5,0.5-1,0.9-1.5,1.3L87,28.8c0.2-0.4,0.4-0.9,0.6-1.4h-7.4
					c0,0.4-0.1,0.7-0.2,1.1c-0.1,0.3-0.3,0.5-0.5,0.6C79.3,29.2,79.1,29.3,78.9,29.3z M81.7,31.1h4v-1.8h-4V31.1z M81.7,33.4h4v-1.9
					h-4V33.4z M81.7,35.7h4v-2h-4V35.7z"/>
			</g>
			<g>
				<path class="st0" d="M90.6,36.5l-0.1-0.2c0.8-0.7,1.4-1.6,1.9-2.7c-0.2-0.5-0.4-1.1-0.6-1.8c0,0.1-0.1,0.2-0.2,0.3
					c-0.2,0.4-0.4,0.7-0.4,0.8c0.1,0.1,0.1,0.2,0,0.3l-0.6-0.6c0.4-0.3,0.8-0.7,1.1-1.1l0.1-0.5l0.4,0.1l-0.3,0.4
					c0.2,0.6,0.4,1.1,0.7,1.6c0.2-0.8,0.4-1.8,0.5-2.9H92l-0.3,0.6c-0.2,0.1-0.5,0.1-0.8-0.1c0.6-1.2,1.2-2.6,1.8-4H92
					c-0.4,0-0.7,0.1-1.1,0.2l-0.3-0.6c0.4,0,0.8,0.1,1.4,0.1h0.7l0.2-0.3c0,0,0.1-0.1,0.1-0.1c0.1-0.1,0.2-0.2,0.2-0.2
					c0.1,0,0.2,0.1,0.5,0.4c0.3,0.3,0.4,0.4,0.4,0.5c-0.1,0.1-0.3,0.2-0.6,0.2c-0.3,0.7-0.8,1.7-1.3,2.9H93l0.2-0.3c0,0,0,0,0.1-0.1
					c0.1-0.1,0.2-0.2,0.2-0.2c0.1,0,0.2,0.1,0.5,0.3c0.3,0.2,0.4,0.4,0.4,0.5c-0.1,0.1-0.2,0.1-0.4,0.2c-0.2,1.4-0.5,2.6-0.9,3.5
					c0.5,0.6,1.2,1,2,1.2c0.7,0.2,1.7,0.3,3,0.3c1.6,0,2.7,0,3.2,0v0.2c-0.2,0-0.3,0.1-0.4,0.3c-0.1,0.1-0.1,0.3-0.2,0.5H98
					c-1.4,0-2.4-0.1-3.2-0.4c-0.9-0.3-1.6-0.8-2.1-1.5C92.3,35.2,91.6,35.9,90.6,36.5z M96.8,35c-0.2,0-0.2-0.1-0.2-0.2
					c0-0.1,0-0.3,0-0.6c0-0.1,0-0.2,0-0.3v-0.5h-0.9c-0.5,0-1.1,0.1-1.7,0.2L93.7,33c0.4,0,1,0.1,1.6,0.1h1.3v-1.3h-0.8
					c-0.4,0-0.9,0.1-1.4,0.2l-0.3-0.6c0.4,0,1,0.1,1.6,0.1h0.9v-1.2h-0.7c-0.4,0-0.8,0.1-1.3,0.2l-0.3-0.6c0.4,0,1,0.1,1.6,0.1h0.8
					v-1.2h-1c-0.6,0-1.2,0.1-1.8,0.2l-0.3-0.6c0.4,0,1,0.1,1.6,0.1h1.5v-1.2h-0.7c-0.4,0-0.8,0.1-1.3,0.2l-0.3-0.6
					c0.4,0,1,0.1,1.6,0.1h0.7c0-0.6,0-1-0.1-1.3c0.6,0.2,1,0.3,1.2,0.4c0.1,0.1,0.1,0.2,0,0.2l-0.2,0.1v0.6H99l0.2-0.3
					c0,0,0-0.1,0.1-0.1c0.1-0.1,0.2-0.2,0.2-0.2c0.1,0,0.3,0.1,0.5,0.4c0.3,0.2,0.4,0.4,0.4,0.5c-0.1,0.1-0.2,0.2-0.5,0.2v1.1h0.1
					l0.2-0.4c0,0,0.1-0.1,0.1-0.1c0.1-0.2,0.2-0.2,0.2-0.2c0.1,0,0.2,0.1,0.5,0.4c0.2,0.3,0.4,0.4,0.4,0.5c0,0.1-0.1,0.2-0.3,0.2
					h-1.2v0.6c0,0.1,0,0.2,0,0.3c0,0.3,0,0.6,0,0.7c0,0.1-0.1,0.1-0.3,0.2c-0.2,0.1-0.3,0.1-0.5,0.1h-0.1v-0.4h-1.5v1.2h1.5l0.2-0.4
					c0,0,0-0.1,0.1-0.1c0.1-0.2,0.2-0.3,0.3-0.3c0.1,0,0.3,0.1,0.5,0.4c0.3,0.2,0.4,0.4,0.4,0.5c0,0.1-0.1,0.2-0.3,0.2h-2.8v1.3h1.8
					l0.3-0.4c0,0,0.1-0.1,0.1-0.1c0.1-0.2,0.2-0.3,0.3-0.3c0.1,0,0.3,0.1,0.6,0.4c0.3,0.3,0.5,0.4,0.5,0.5c0,0.1-0.1,0.2-0.3,0.2
					h-3.2v0.4c0,0.1,0,0.2,0,0.4c0,0.2,0,0.4,0,0.5c0,0.1-0.1,0.2-0.3,0.2C97.2,35,97,35,96.8,35z M97.5,28.3h1.5v-1.2h-1.5V28.3z
					 M97.5,29.9h1.5v-1.2h-1.5V29.9z"/>
			</g>
			<g>
				<path class="st0" d="M107.9,36.5c-0.2,0-0.2-0.1-0.2-0.2c0-0.4,0.1-0.9,0.1-1.5v-0.9c-1.1,1.1-2.7,1.9-4.8,2.4l-0.1-0.2
					c1.7-0.7,3.1-1.5,4-2.7h-1.8c-0.6,0-1.2,0.1-1.8,0.2L103,33c0.4,0,1,0.1,1.6,0.1h3.2v-1.1c-0.4,0.2-1,0.4-1.6,0.5l-0.1-0.2
					c0.7-0.2,1.2-0.4,1.6-0.8c0.4-0.3,0.6-0.7,0.8-1.2h-0.4c-0.2,0-0.5,0.1-0.8,0.2l-0.3-0.6c0.3,0,0.7,0.1,1.1,0.1h0.5
					c0.1-0.4,0.1-0.8,0.2-1.2h-0.4c-0.2,0-0.4,0.1-0.6,0.2l-0.3-0.6c0.4,0,1,0.1,1.6,0.1h2l0.1-0.1c-0.2,0-0.3,0-0.4-0.1
					c0-0.4-0.2-0.8-0.5-1.2h-0.8c-0.5,0.5-1,1-1.5,1.3l-0.1-0.2c0.2-0.2,0.4-0.4,0.5-0.6c0.2-0.3,0.4-0.7,0.6-1.2
					c0.2-0.4,0.3-0.8,0.4-1.2c0.6,0.2,1,0.4,1.1,0.5c0.1,0.1,0.1,0.2,0,0.2l-0.2,0.1c-0.2,0.2-0.3,0.5-0.5,0.7h2.4l0.3-0.4
					c0,0,0-0.1,0.1-0.1c0.1-0.2,0.2-0.3,0.3-0.3c0.1,0,0.3,0.1,0.6,0.4s0.4,0.4,0.4,0.5c0,0.1-0.1,0.2-0.3,0.2h-2.5
					c0.3,0.1,0.4,0.3,0.6,0.5c0.1,0.2,0.1,0.3,0.1,0.5c0.4,0.3,0.7,0.6,0.7,0.7c0.1,0.1,0,0.2-0.1,0.2l-0.2,0v2.1c0,0.1,0,0.1,0,0.1
					c0,0,0.1,0,0.2,0h0.3h0.3c0.1,0,0.1,0,0.2-0.1c0-0.1,0.1-0.4,0.3-0.9c0-0.1,0-0.2,0-0.2h0.1l0,1.2c0.2,0.1,0.3,0.2,0.3,0.4
					c0,0.2-0.1,0.3-0.3,0.4c-0.2,0.1-0.5,0.1-1,0.1h-0.5c-0.3,0-0.6-0.1-0.6-0.2c-0.1-0.1-0.1-0.3-0.1-0.6v-1c0,0.1-0.1,0.2-0.3,0.2
					h-1.5c-0.2,0.7-0.7,1.2-1.3,1.5c0.5,0.1,0.9,0.2,1,0.3c0.1,0.1,0.1,0.1,0,0.2l-0.2,0.1v0.5h3.1l0.3-0.4c0,0,0.1-0.1,0.1-0.1
					c0.1-0.2,0.2-0.2,0.3-0.2c0.1,0,0.3,0.1,0.6,0.4c0.3,0.2,0.5,0.4,0.5,0.5c0,0.1-0.1,0.2-0.3,0.2h-4c0.5,0.4,1.2,0.8,2.1,1.1
					c0.8,0.3,1.6,0.5,2.5,0.6l0,0.1c-0.4,0.1-0.7,0.4-0.8,0.9c-0.9-0.3-1.6-0.6-2.4-1.1c-0.7-0.5-1.3-1-1.8-1.7h0v0.9
					c0,0.8,0,1.3,0.1,1.8c0,0.1-0.1,0.2-0.3,0.2C108.3,36.4,108.1,36.5,107.9,36.5z M103,28.7l-0.1-0.1c0.2-0.2,0.5-0.5,0.7-0.9
					c0.2-0.3,0.4-0.7,0.6-1.2c0.2-0.5,0.3-0.9,0.4-1.2c0.6,0.3,1,0.5,1.1,0.6c0.1,0.1,0.1,0.2,0,0.2l-0.2,0.1
					c-0.1,0.2-0.3,0.4-0.4,0.6h1.9l0.2-0.3c0,0,0.1-0.1,0.1-0.1c0.1-0.1,0.2-0.2,0.2-0.2c0.1,0,0.2,0.1,0.5,0.4
					c0.3,0.2,0.4,0.4,0.4,0.5c0,0.1-0.1,0.2-0.3,0.2H106c0.4,0.2,0.6,0.5,0.6,0.7c0,0.2,0,0.4-0.2,0.5c-0.2,0.1-0.4,0.1-0.6-0.1
					c0-0.4-0.1-0.8-0.4-1.2h-0.6C104.3,27.8,103.7,28.3,103,28.7z M103.6,32.5l-0.5-1c0.3,0,0.8-0.1,1.7-0.3c0.1,0,0.1,0,0.1,0v-1.9
					h-0.5c-0.3,0-0.6,0.1-0.9,0.2l-0.3-0.6c0.4,0,1,0.1,1.6,0.1h1.2l0.2-0.3c0,0,0-0.1,0.1-0.1c0.1-0.2,0.2-0.2,0.2-0.2
					c0.1,0,0.3,0.1,0.5,0.3c0.3,0.2,0.4,0.4,0.4,0.5c0,0.1-0.1,0.2-0.3,0.2h-1.4V31c0.2,0,0.6-0.1,1-0.2c0.3,0,0.5-0.1,0.6-0.1
					l0,0.2c-1.2,0.5-2.4,0.9-3.6,1.3C103.8,32.4,103.7,32.5,103.6,32.5z M111,30.3v-1.4h-1.5c0,0.5-0.1,0.9-0.2,1.2h0.4l0.4-0.6
					C110.5,29.8,110.7,30,111,30.3z"/>
			</g>
			<g>
				<path class="st0" d="M115.9,36.1c-0.1,0-0.1,0-0.2-0.1c-0.1,0-0.1-0.1-0.1-0.2c0.1-1,0.1-2.1,0.1-3.1v-3.2c0-1-0.1-1.8-0.2-2.5
					l1.1,0.5h0.3c0.2-0.8,0.2-1.5,0.3-2.2c0.7,0.2,1.1,0.3,1.3,0.4c0.1,0.1,0.1,0.1,0,0.2l-0.2,0.1c-0.3,0.5-0.6,1.1-0.9,1.6h1.3
					l0.2-0.3c0,0,0-0.1,0.1-0.1c0.1-0.1,0.2-0.2,0.2-0.2c0.1,0,0.3,0.1,0.5,0.4c0.3,0.2,0.4,0.4,0.4,0.5c-0.1,0.1-0.3,0.2-0.5,0.3
					v4.4c0,1,0,1.9,0.1,2.8c-0.1,0.1-0.2,0.2-0.3,0.2c-0.2,0.1-0.4,0.1-0.5,0.1c-0.1,0-0.2-0.1-0.2-0.2c0,0,0-0.1,0-0.2
					c0-0.1,0-0.1,0-0.2v-0.3h-2.2v0.3c0,0.1,0,0.2,0,0.3c0,0.2,0,0.3,0,0.3c0,0.1-0.1,0.2-0.3,0.3C116.3,36,116.1,36.1,115.9,36.1z
					 M116.6,30.9h2.2v-3h-2.2V30.9z M116.6,34.4h2.2v-3.2h-2.2V34.4z M123.1,36.4c0-0.4-0.1-0.6-0.2-0.7c-0.2-0.2-0.6-0.3-1.2-0.4
					l0-0.2c0.8,0.1,1.3,0.1,1.6,0.1c0.2,0,0.3-0.1,0.4-0.2c0.2-0.2,0.4-0.9,0.5-2.2c0.1-1.1,0.2-2.8,0.2-5h-2.6
					c-0.5,1-1.1,1.9-1.8,2.5l-0.2-0.1c0.4-0.6,0.7-1.5,1.1-2.4c0.1-0.4,0.3-0.8,0.4-1.3c0.1-0.5,0.2-0.9,0.2-1.3
					c0.7,0.2,1.1,0.3,1.3,0.4c0.1,0.1,0.1,0.1,0,0.2l-0.2,0.1c-0.1,0.4-0.3,0.9-0.6,1.5h2.3l0.2-0.3c0,0,0,0,0.1-0.1
					c0.1-0.2,0.2-0.2,0.3-0.2c0.1,0,0.3,0.1,0.5,0.4c0.3,0.3,0.4,0.4,0.4,0.5c-0.1,0.1-0.3,0.2-0.5,0.2c0,2.4-0.1,4.1-0.2,5.3
					c-0.1,1.3-0.3,2.1-0.6,2.4C124.2,36.2,123.7,36.4,123.1,36.4z M122.8,32.7c-0.2,0.1-0.4,0.1-0.6-0.1c0-0.4-0.2-0.8-0.5-1.3
					c-0.2-0.4-0.5-0.8-0.8-1.2L121,30c0.7,0.3,1.2,0.6,1.5,1c0.3,0.3,0.5,0.7,0.5,1C123.1,32.4,123,32.6,122.8,32.7z"/>
			</g>
			<g>
				<path class="st0" d="M131.8,36.5c0-0.3-0.2-0.6-0.4-0.7c-0.3-0.2-0.7-0.3-1.3-0.4v-0.2c0.7,0,1.3,0.1,2,0.1
					c0.2,0,0.3-0.1,0.3-0.3v-2.7h-3c-0.6,0-1.2,0.1-1.8,0.2l-0.3-0.6c0.4,0,1,0.1,1.6,0.1h3.5v-2.3h-2.2c-0.6,0-1.2,0.1-1.8,0.2
					l-0.3-0.6c0.4,0,1,0.1,1.6,0.1h2.7v-2.1c-1.6,0.2-3,0.3-4.2,0.3l0-0.2c1.4-0.1,2.8-0.4,4.3-0.7c1.5-0.3,2.7-0.7,3.5-1
					c0.5,0.5,0.8,0.8,0.9,0.9c0.1,0.1,0,0.2-0.2,0.2l-0.3,0c-1,0.2-2,0.4-3,0.5v2.3h2.5l0.3-0.4c0,0,0.1-0.1,0.1-0.1
					c0.1-0.2,0.2-0.3,0.3-0.3c0.1,0,0.3,0.1,0.6,0.4c0.3,0.3,0.5,0.5,0.5,0.6c0,0.1-0.1,0.2-0.3,0.2h-3.9v2.3h3l0.3-0.4
					c0,0,0.1-0.1,0.1-0.1c0.1-0.2,0.2-0.3,0.3-0.3c0.1,0,0.3,0.1,0.6,0.4c0.3,0.3,0.5,0.5,0.5,0.6c0,0.1-0.1,0.2-0.3,0.2h-4.6V35
					c0,0.4-0.1,0.7-0.3,0.9C132.9,36.2,132.4,36.4,131.8,36.5z"/>
			</g>
			<g>
				<path class="st0" d="M140.1,35.6l-0.3-0.6c0.4,0,1,0.1,1.6,0.1h3.3v-7.6h-2c-0.6,0-1.2,0.1-1.8,0.2l-0.3-0.6
					c0.4,0,1,0.1,1.6,0.1h5.7l0.3-0.4c0,0,0-0.1,0.1-0.1c0.1-0.2,0.2-0.3,0.3-0.3c0.1,0,0.3,0.1,0.6,0.4c0.4,0.3,0.5,0.5,0.5,0.6
					c0,0.1-0.1,0.2-0.3,0.2h-3.8v7.6h3l0.3-0.4c0,0,0.1-0.1,0.1-0.2c0.1-0.2,0.2-0.3,0.3-0.3c0.1,0,0.3,0.2,0.6,0.4
					c0.4,0.3,0.5,0.5,0.5,0.6c0,0.1-0.1,0.2-0.3,0.2h-8.3C141.3,35.5,140.7,35.5,140.1,35.6z"/>
			</g>
			<g>
				<path class="st0" d="M154,36.5c-0.1,0-0.2,0-0.2-0.1c-0.1,0-0.1-0.1-0.1-0.2c0.1-0.8,0.1-1.7,0.1-2.7v-1.5c-0.5,1-1,1.8-1.8,2.6
					l-0.2-0.1c0.8-1.2,1.3-2.7,1.7-4.5h-0.5c-0.3,0-0.5,0.1-0.8,0.2l-0.3-0.6c0.3,0,0.8,0.1,1.2,0.1h0.6v-1.9c0-1-0.1-1.8-0.2-2.5
					c0.6,0.2,1.1,0.3,1.2,0.4c0.1,0.1,0.1,0.1,0,0.2l-0.2,0.1v3.6h0.4l0.5-0.7c0.2,0.2,0.5,0.4,0.7,0.6l-0.1-0.2h2.6v-1h-0.7
					c-0.4,0-0.8,0.1-1.2,0.2l-0.3-0.6c0.4,0,0.9,0.1,1.5,0.1h0.7v-0.9h-2.1l-0.1-0.3c-0.1,0-0.2,0.1-0.3,0.1
					c-0.4,0.9-0.8,1.7-1.2,2.2L155,29c0,0,0-0.1,0-0.2c0-0.1,0-0.1,0-0.2c0.2-0.9,0.4-1.7,0.4-2.5l1.4,0.5c0,0,0,0.1-0.1,0.1h2.1
					c0-0.5,0-0.9-0.1-1.3c0.6,0.2,1,0.3,1.2,0.4c0.1,0.1,0.1,0.1,0,0.2l-0.2,0.1v0.5h1.3l0.2-0.4c0,0,0-0.1,0.1-0.1
					c0.1-0.2,0.2-0.3,0.3-0.3c0.1,0,0.3,0.1,0.5,0.4c0.3,0.3,0.4,0.4,0.4,0.5c0,0.1-0.1,0.2-0.3,0.2h-2.5V28h1.2l0.2-0.3
					c0,0,0,0,0.1-0.1c0.1-0.2,0.2-0.3,0.3-0.3c0.1,0,0.3,0.1,0.5,0.4c0.3,0.2,0.4,0.4,0.4,0.5c0,0.1-0.1,0.2-0.3,0.2h-2.4v1h1.6
					l0.3-0.4c0,0,0-0.1,0.1-0.1c0.1-0.2,0.2-0.3,0.3-0.3c0.1,0,0.3,0.1,0.5,0.4c0.3,0.3,0.4,0.4,0.4,0.5c0,0.1-0.1,0.2-0.3,0.2h-6.1
					l0.1,0.1c0,0.1-0.1,0.2-0.3,0.2h-1.6v0.6c0.5,0.2,1,0.5,1.2,0.9c0.2,0.3,0.4,0.6,0.4,0.8c0,0.2-0.1,0.4-0.2,0.5
					c-0.2,0.1-0.3,0-0.5-0.1c-0.1-0.5-0.4-1.1-0.8-1.7v2.3c0,1,0,1.9,0.1,2.8c0,0.1-0.1,0.2-0.3,0.3C154.4,36.4,154.2,36.5,154,36.5
					z M153.1,29c-0.2,0.1-0.3,0-0.5-0.2c0-0.6-0.1-1.5-0.4-2.4l0.1,0c0.4,0.4,0.7,0.8,0.9,1.2c0.1,0.3,0.2,0.7,0.1,0.9
					C153.4,28.8,153.3,28.9,153.1,29z M157.1,36.5c-0.1,0-0.1,0-0.2-0.1c0,0-0.1-0.1-0.1-0.2c0.1-0.7,0.1-1.5,0.1-2.3v-1.3
					c0-1-0.1-1.8-0.2-2.5l1.1,0.5h3.1l0.2-0.3c0,0,0-0.1,0.1-0.1c0.1-0.1,0.2-0.2,0.2-0.2c0.1,0,0.3,0.1,0.6,0.3
					c0.3,0.2,0.4,0.4,0.4,0.5c-0.1,0.1-0.3,0.2-0.5,0.2v4.1c0,0.4-0.1,0.6-0.2,0.8c-0.2,0.2-0.5,0.3-1,0.4c0-0.3-0.1-0.5-0.2-0.6
					c-0.2-0.2-0.5-0.3-0.9-0.3v-0.2c0.4,0,0.8,0.1,1.2,0.1c0.1,0,0.2,0,0.2-0.1c0,0,0-0.1,0-0.2v-1.8h-3.2v0.9c0,0.7,0,1.3,0.1,1.8
					c0,0.1-0.1,0.2-0.3,0.3C157.4,36.4,157.2,36.5,157.1,36.5z M157.8,33.1h1.2V31h-1.2V33.1z M159.8,33.1h1.2V31h-1.2V33.1z"/>
			</g>
			<g>
				<path class="st0" d="M165.2,36.4c-0.1,0-0.1,0-0.2-0.1c0,0-0.1-0.1-0.1-0.2c0-0.4,0.1-1,0.1-1.8v-1c0-1-0.1-1.8-0.2-2.5l1.1,0.5
					h2.1l0.2-0.3c0,0,0.1-0.1,0.1-0.1c0.1-0.1,0.2-0.2,0.2-0.2c0.1,0,0.3,0.1,0.6,0.3c0.3,0.2,0.4,0.4,0.4,0.5
					c-0.1,0.1-0.3,0.2-0.5,0.2v1.3c0,1.1,0.1,2,0.1,2.6c0,0.1-0.2,0.2-0.3,0.2c-0.2,0.1-0.4,0.1-0.5,0.1c-0.1,0-0.2-0.1-0.2-0.2
					c0,0,0-0.1,0-0.2c0-0.1,0-0.1,0-0.2v-0.3h-2.2v0.3c0,0.1,0,0.2,0,0.3c0,0.1,0,0.2,0,0.2c0,0.1-0.1,0.2-0.3,0.2
					C165.5,36.3,165.3,36.4,165.2,36.4z M165.9,34.9h2.2v-3.2h-2.2V34.9z M167,30.6c-0.1,0-0.2-0.1-0.2-0.2c0-0.4,0.1-0.8,0.1-1.4
					v-0.8c0-1-0.1-1.8-0.2-2.5l1.2,0.5h3.7l0.2-0.3c0,0,0.1-0.1,0.1-0.1c0.1-0.1,0.2-0.2,0.2-0.2c0.1,0,0.3,0.1,0.6,0.4
					c0.3,0.3,0.4,0.4,0.4,0.5c-0.1,0.1-0.2,0.2-0.5,0.2v1.2c0,1,0.1,1.8,0.1,2.3c0,0.1-0.2,0.2-0.3,0.2c-0.2,0.1-0.4,0.1-0.5,0.1
					c-0.1,0-0.2-0.1-0.2-0.2c0,0,0-0.1,0-0.2c0-0.1,0-0.1,0-0.2v-0.3h-3.9v0.2c0,0.1,0,0.1,0,0.2c0,0.1,0,0.1,0,0.2
					c0,0.1-0.1,0.2-0.3,0.2C167.4,30.6,167.2,30.6,167,30.6z M167.8,29.3h3.9v-2.8h-3.9V29.3z M170.5,36.4c-0.1,0-0.1,0-0.2-0.1
					c0,0-0.1-0.1-0.1-0.2c0-0.4,0.1-1,0.1-1.8v-1c0-1-0.1-1.8-0.2-2.5l1.1,0.5h2.1l0.2-0.3c0,0,0.1-0.1,0.1-0.1
					c0.1-0.1,0.2-0.2,0.2-0.2c0.1,0,0.3,0.1,0.6,0.3c0.3,0.2,0.4,0.4,0.4,0.5c-0.1,0.1-0.3,0.2-0.5,0.3v1.3c0,1.1,0.1,2,0.1,2.6
					c0,0.1-0.2,0.1-0.3,0.2c-0.2,0.1-0.4,0.1-0.5,0.1c-0.1,0-0.2-0.1-0.2-0.2c0-0.1,0-0.1,0-0.2c0-0.1,0-0.1,0-0.2v-0.3h-2.3v0.3
					c0,0.1,0,0.1,0,0.2c0,0.1,0,0.2,0,0.3c0,0.1-0.1,0.2-0.3,0.2C170.9,36.4,170.7,36.4,170.5,36.4z M171.3,34.9h2.3v-3.2h-2.3V34.9
					z"/>
			</g>
		</g>
	</g>
	<g>
		<g>
			<line class="st1" x1="47.3" y1="79.1" x2="0.3" y2="79.1"/>
			<line class="st1" x1="231.8" y1="79.1" x2="186.1" y2="79.1"/>
		</g>
	</g>
	<g>
		<g>
			<g>
				<path class="st0" d="M55.5,77.8L55,76.9c0.6,0.1,1.2,0.1,2,0.1H58v-1.6h-0.7c-0.4,0-0.8,0.1-1.3,0.2l-0.4-0.9
					c0.5,0.1,1,0.1,1.6,0.1H58v-1.4h-0.8c-0.5,0-1,0.1-1.5,0.2l-0.5-0.9c0.5,0.1,1.2,0.1,1.9,0.1H58c0-0.9,0-1.6-0.1-2.1
					c1.2,0.3,1.9,0.5,2.2,0.6c0.2,0.1,0.2,0.2,0.1,0.3L59.9,72v1h0.7l0.4-0.6c0,0,0.1-0.1,0.1-0.2c0.2-0.3,0.3-0.4,0.4-0.4
					c0.1,0,0.4,0.2,0.9,0.6c0.5,0.4,0.7,0.7,0.7,0.8c0,0.2-0.2,0.3-0.5,0.3h-2.6v1.4h0.4l0.4-0.5c0,0,0.1-0.1,0.1-0.2
					c0.2-0.2,0.3-0.4,0.3-0.4c0.1,0,0.4,0.2,0.8,0.5c0.4,0.4,0.6,0.6,0.6,0.7c0,0.2-0.2,0.3-0.4,0.3h-2.2V77h0.8l0.9-1.2
					c0.2,0.2,0.4,0.3,0.6,0.5c0.1-0.3,0.2-0.5,0.3-0.8c0.2-0.5,0.3-1.2,0.4-1.9C63,73,63,72.4,63,71.9l2.2,0.6
					c1.5-0.6,2.6-1.1,3.4-1.6l1.8,1.6c-0.2,0.2-0.6,0.2-1,0c-1.1,0.2-2.6,0.4-4.3,0.5c-0.6,1.5-1.5,2.7-2.6,3.5
					c0.1,0.1,0.2,0.2,0.3,0.3c0.2,0.1,0.3,0.2,0.3,0.3c0,0.2-0.2,0.3-0.4,0.3h-4.6C57.3,77.6,56.4,77.6,55.5,77.8z M60.1,87.5
					c0-0.6-0.1-1-0.3-1.2c-0.2-0.3-0.6-0.5-1.1-0.6v-0.2c0.5,0,1,0,1.5,0.1c0.2,0,0.3-0.1,0.3-0.3v-2.4h-2.9v1.3
					c0,1.1,0.1,1.9,0.1,2.5c-0.1,0.2-0.2,0.3-0.5,0.4c-0.3,0.2-0.6,0.2-1,0.2c-0.1,0-0.2,0-0.3-0.1c-0.1-0.1-0.1-0.2-0.1-0.2
					c0.1-1.1,0.1-2.2,0.2-3.5v-2c0-1.5-0.1-2.7-0.2-3.6l2,0.8h2.7l0.4-0.5c0,0,0.1-0.1,0.1-0.1c0.2-0.2,0.3-0.4,0.4-0.4
					c0.1,0,0.4,0.2,1,0.6s0.8,0.7,0.8,0.8c-0.1,0.1-0.2,0.1-0.2,0.2h2.5v-2.1h-0.6c-0.3,0-0.6,0.1-0.9,0.2l-0.5-0.9
					c0.6,0.1,1.4,0.1,2.3,0.1H68l0.4-0.5c0,0,0.1-0.1,0.1-0.2c0.2-0.2,0.3-0.4,0.4-0.4c0.1,0,0.4,0.2,0.9,0.6
					c0.5,0.4,0.7,0.7,0.7,0.8c-0.1,0.1-0.3,0.2-0.5,0.3v1.9l0.6-1c0.1,0.1,0.3,0.3,0.4,0.4c0.3,0.3,0.5,0.6,0.6,0.8
					c0,0.2-0.2,0.3-0.4,0.3h-1.1V81c0,0.2,0,0.4,0,0.7c0,0.6,0,1.1,0.1,1.4c-0.1,0.1-0.3,0.2-0.6,0.4c-0.4,0.1-0.7,0.2-0.9,0.2
					c-0.2,0-0.4-0.1-0.4-0.4c0-0.1,0-0.1,0-0.2c0-0.1,0-0.1,0-0.2v-0.4H67V85c0,0.7-0.1,1.3-0.4,1.6c-0.3,0.4-1,0.7-1.9,0.8
					c0-0.7-0.1-1.1-0.3-1.4c-0.2-0.3-0.6-0.5-1.3-0.6v-0.2c0.6,0,1.1,0.1,1.7,0.1c0.2,0,0.3-0.1,0.3-0.3v-2.4h-0.6
					c-0.3,0-0.7,0.1-1.1,0.2L63,81.9c0.4,0.1,0.9,0.1,1.5,0.1h0.7v-2.1h-2.5l-0.1-0.4c-0.1,0-0.2,0.1-0.4,0.1v5.8
					c0,0.7-0.1,1.1-0.4,1.4C61.5,87.2,60.9,87.4,60.1,87.5z M57.5,82.4h0.8v-3.1h-0.8V82.4z M59.6,82.4h0.9v-3.1h-0.9V82.4z
					 M65.9,76c0.1-0.9,0-1.8-0.4-2.7l0.2-0.1c0.8,0.4,1.3,0.9,1.6,1.4c0.2,0.4,0.3,0.8,0.2,1.2c-0.1,0.4-0.4,0.6-0.7,0.6
					C66.5,76.5,66.2,76.4,65.9,76z M67,79.4h1.1v-2.1H67V79.4z M67,82.1h1.1v-2.1H67V82.1z M69.5,76.1c-0.2-1-0.7-2-1.5-3.1l0.2-0.1
					c1,0.3,1.7,0.6,2.2,1.1c0.4,0.4,0.6,0.9,0.6,1.3c0,0.4-0.2,0.7-0.5,0.9C70.2,76.5,69.9,76.4,69.5,76.1z"/>
			</g>
			<g>
				<path class="st0" d="M75.7,87.4c-0.1,0-0.2,0-0.3-0.1c-0.1-0.1-0.1-0.2-0.1-0.2c0.1-1,0.1-2.2,0.2-3.4v-1.9
					c-0.3,2.2-1,4-2.1,5.3l-0.2-0.1c0.4-1.2,0.7-2.6,0.8-4.3c0.1-1,0.1-2.5,0.1-4.5c0-0.1,0-0.2,0-0.3v-2.4c0-1,0-1.8-0.1-2.4l2,0.8
					H77c0-1.2-0.1-2.2-0.2-2.9c1.2,0.3,1.9,0.5,2.2,0.6c0.2,0.1,0.2,0.2,0.1,0.3L78.9,72v0.5h0.8l0.4-0.5c0,0,0.1-0.1,0.1-0.1
					c0.2-0.3,0.3-0.4,0.4-0.4c0.1,0,0.4,0.2,0.9,0.6c0.4,0.4,0.7,0.6,0.7,0.8c0,0.2-0.2,0.3-0.4,0.3h0c0.7,0.6,1.1,1,1.2,1.3
					c0.1,0.2,0.1,0.3-0.1,0.3l-0.3,0.1c-0.7,0.5-1.2,0.8-1.6,1l-0.2-0.1c0.1-0.4,0.2-0.8,0.2-1.2h-2.2c-0.1,0.2-0.2,0.3-0.5,0.3v0.6
					l0.7-0.1l0.2-0.4c0,0,0-0.1,0.1-0.1c0.1-0.2,0.2-0.3,0.3-0.3c0.1,0,0.3,0.1,0.6,0.3c0.3,0.2,0.5,0.4,0.5,0.5
					c0,0.2-0.1,0.3-0.4,0.3l-2,0.2V76c0,0.1,0,0.2,0.1,0.2c0,0,0.2,0,0.3,0h1h0.9c0.2,0,0.3-0.1,0.3-0.1c0.1-0.1,0.2-0.3,0.4-0.6
					h0.2l0.1,0.6c0.2,0.1,0.3,0.1,0.4,0.2c0.1,0.1,0.1,0.2,0.1,0.3c0,0.2-0.1,0.3-0.2,0.4c-0.1,0.1-0.4,0.2-0.8,0.2
					c0.4,0.3,0.8,0.6,1.2,1c0,0.2-0.2,0.3-0.4,0.3h-1c0.6,0.4,0.9,0.7,1,0.8c0.1,0.1,0.1,0.2-0.1,0.3l-0.3,0.1v1.4
					c0,0,0,0.1-0.1,0.1c0.7,0.5,1.1,0.8,1.2,1c0.1,0.1,0.1,0.3-0.1,0.3L82,82.7v2.8c0,0.6-0.1,1-0.3,1.2c-0.2,0.3-0.7,0.5-1.3,0.5
					c0-0.5-0.1-0.8-0.2-1c-0.1-0.2-0.3-0.4-0.6-0.4v-0.3c0.2,0,0.5,0,0.7,0c0.1,0,0.2-0.1,0.2-0.3v-1.7c-0.1,0-0.3,0-0.6,0h-0.4
					c-0.3,0-0.5-0.1-0.6-0.2c-0.1-0.1-0.1-0.3-0.1-0.6v-0.6h-0.5c-0.1,0.8-0.5,1.4-1.2,1.8l-0.2-0.3c0.4-0.4,0.6-0.9,0.6-1.6h-0.6
					v1.6c0,1.3,0.1,2.3,0.1,3c-0.1,0.1-0.2,0.2-0.4,0.3C76.3,87.4,76,87.4,75.7,87.4z M76.9,81.9h3.5l0.4-0.5
					c-0.2,0-0.4,0.1-0.6,0.1H80V81h-2.4v0.2c0,0.1-0.1,0.1-0.3,0.2c-0.2,0.1-0.5,0.1-0.8,0.1c-0.2,0-0.3-0.1-0.3-0.4
					c0-0.1,0-0.2,0-0.4c0-0.1,0-0.2,0-0.3V80c0-0.7,0-1.2-0.1-1.6l1.6,0.7H80l0.5-0.6h-1.8c-0.8,0-1.7,0.1-2.6,0.2l-0.4-0.9
					c0.6,0.1,1.4,0.1,2.3,0.1h2.1l0.6-0.7c-0.4,0-0.8,0-1.2,0l-1.2,0c-0.6,0-0.9-0.1-1.1-0.2c-0.2-0.1-0.2-0.4-0.2-0.9v-0.4
					l-1.1,0.1l-0.2-0.5l1.3-0.1v-1h-1.4v3.5c0,1.4-0.1,2.6-0.2,3.5L76.9,81.9z M78.3,87c-0.2,0-0.3-0.1-0.3-0.4c0-0.2,0-0.4,0.1-0.7
					c0-0.1,0-0.3,0-0.3v-0.7h-0.3c-0.1,0-0.3,0.1-0.4,0.2l-0.4-0.9c0.4,0.1,0.9,0.1,1.5,0.1h0.7l0.5-0.6c0.3,0.3,0.6,0.6,0.9,0.9
					c0,0.2-0.2,0.3-0.4,0.3h-0.8v0.6c0,0.1,0,0.3,0,0.5c0,0.3,0,0.5,0.1,0.6c0,0.1-0.2,0.2-0.3,0.3C78.8,86.9,78.6,87,78.3,87z
					 M77.6,80.5H80v-0.9h-2.4V80.5z M78.9,73.8h1.9l0.8-0.8h-2.7V73.8z M79.9,82.9h0.2h0.2h0.1c0,0,0.1,0,0.2,0v-0.5h-0.8v0.3
					C79.8,82.8,79.9,82.9,79.9,82.9z M81.9,87.4l-0.2-0.2c0.9-1.3,1.5-2.9,1.9-4.7c0.3-1.5,0.4-3.4,0.5-5.8h-0.6
					c-0.3,0-0.7,0.1-1,0.2L82,76.1c0.4,0.1,0.8,0.1,1.4,0.1H84c0-0.6,0-1.6,0-3c0-1,0-1.7,0-2.2c1.2,0.2,1.9,0.4,2.2,0.6
					c0.2,0.1,0.2,0.2,0.1,0.3L86,72.1l0,4.1h0.6l0.4-0.6c0,0,0.1-0.1,0.1-0.2c0.2-0.3,0.3-0.4,0.4-0.4c0.1,0,0.4,0.2,0.9,0.7
					c0.5,0.4,0.7,0.7,0.7,0.9c0,0.2-0.2,0.3-0.5,0.3H86c0.2,2.2,0.5,4,1.1,5.5c0.5,1.4,1.3,2.6,2.3,3.6L89.3,86
					c-0.8,0.1-1.4,0.5-1.8,1.4c-0.6-1-1-2.2-1.3-3.5c-0.2-1.2-0.4-2.8-0.5-4.8c-0.2,1.8-0.5,3.4-1.1,4.6
					C84.1,85.2,83.1,86.4,81.9,87.4z M87.2,74.6c0-0.4-0.1-0.9-0.3-1.4c-0.2-0.5-0.4-0.9-0.6-1.2l0.2-0.1c0.9,0.2,1.5,0.6,1.9,1.1
					c0.4,0.4,0.5,0.8,0.4,1.2c-0.1,0.4-0.3,0.6-0.6,0.7C87.9,75,87.6,74.9,87.2,74.6z"/>
			</g>
			<g>
				<path class="st0" d="M91.9,78.9c-0.3,0-0.5-0.1-0.7-0.3C91,78.4,91,78.2,91.1,78c0.1-0.2,0.2-0.4,0.4-0.6
					c0.2-0.3,0.4-0.7,0.6-1.3c0.2-0.6,0.2-1.2,0.2-1.7h0.3c0.3,0.9,0.5,1.7,0.5,2.5c0,0.7-0.1,1.2-0.4,1.6
					C92.4,78.8,92.2,78.9,91.9,78.9z M93.6,87.4c-0.2,0-0.3,0-0.4-0.1c-0.1-0.1-0.1-0.2-0.1-0.2c0.1-1.5,0.2-3,0.2-4.6v-8
					c0-1.5-0.1-2.7-0.2-3.6c1.2,0.3,2,0.5,2.3,0.6c0.2,0.1,0.2,0.2,0.1,0.4l-0.3,0.2v1.7l0.1-0.1c0.9,0.4,1.4,0.8,1.6,1.3
					c1.4-0.1,2.8-0.3,4.3-0.6c1.5-0.3,2.6-0.6,3.5-1c0.7,0.7,1.2,1.1,1.3,1.3c0.1,0.2,0,0.3-0.2,0.2l-0.5-0.1
					c-0.9,0.2-2,0.3-3.1,0.4v1.2h2.2l0.5-0.6c0-0.1,0.1-0.1,0.2-0.2c0.2-0.3,0.3-0.4,0.4-0.4c0.1,0,0.4,0.2,1,0.6
					c0.5,0.4,0.8,0.7,0.8,0.8c0,0.2-0.2,0.3-0.5,0.3h-4.5v1.1h1.4l0.4-0.5c0,0,0.1-0.1,0.1-0.2c0.2-0.2,0.3-0.3,0.4-0.3
					c0.1,0,0.4,0.2,0.9,0.6c0.5,0.4,0.8,0.6,0.8,0.8c-0.1,0.2-0.3,0.3-0.6,0.3v1.2c0,1,0.1,1.8,0.1,2.3c-0.1,0.1-0.3,0.2-0.6,0.4
					c-0.4,0.1-0.7,0.2-1,0.2h-0.3v-0.2h-1.6v1.5h1.6l0.4-0.6c0,0,0.1-0.1,0.2-0.2c0.2-0.3,0.4-0.4,0.4-0.4c0.1,0,0.4,0.2,0.9,0.6
					c0.5,0.4,0.8,0.7,0.8,0.8c0,0.2-0.2,0.3-0.5,0.3h-3.8v1.7h2.1l0.5-0.6c0,0,0.1-0.1,0.2-0.2c0.2-0.3,0.4-0.5,0.4-0.5
					c0.1,0,0.5,0.2,1,0.7c0.5,0.4,0.8,0.7,0.8,0.9c0,0.2-0.2,0.3-0.5,0.3h-8.1c-0.8,0-1.7,0.1-2.6,0.2l-0.5-0.9
					c0.6,0.1,1.4,0.1,2.3,0.1h2.4v-1.7H99c-0.7,0-1.4,0.1-2.2,0.2l-0.5-0.9c0.6,0.1,1.4,0.1,2.3,0.1h1.5v-1.5h-1.5
					c0,0.1-0.2,0.2-0.5,0.4c-0.4,0.2-0.7,0.2-1.1,0.2h-0.2v-3c0-1.3-0.1-2.3-0.2-3.1l2.1,0.9h1.4V77h-1.4c-0.8,0-1.6,0.1-2.5,0.2
					l-0.5-0.9c0.6,0.1,1.4,0.1,2.3,0.1h2v-1.1c-1.2,0-2.3,0-3.3,0c0.1,0.4-0.1,0.7-0.4,0.9c-0.3,0.2-0.6,0.1-0.9-0.2
					c0-0.7-0.2-1.4-0.5-2.2v8.8c0,1.4,0.1,2.8,0.1,4.1c-0.1,0.2-0.3,0.3-0.6,0.4C94.3,87.4,94,87.4,93.6,87.4z M98.6,74.3
					c-0.3,0-0.4-0.1-0.4-0.4c0-0.1,0-0.1,0-0.2c0-0.1,0-0.1,0-0.2v-0.4h-0.7c-0.4,0-0.8,0.1-1.3,0.2l-0.5-0.9c0.5,0.1,1,0.1,1.7,0.1
					h0.8c0-0.6,0-1.2-0.1-1.7c1.2,0.3,1.9,0.5,2.2,0.6c0.2,0.1,0.2,0.2,0.1,0.4l-0.3,0.2v0.5h1.9c0-0.7,0-1.3-0.1-1.8
					c1.2,0.3,1.9,0.5,2.2,0.6c0.2,0.1,0.2,0.2,0.1,0.3L104,72v0.6h0.7l0.4-0.6c0,0,0.1-0.1,0.2-0.2c0.2-0.2,0.3-0.4,0.4-0.4
					c0.1,0,0.4,0.2,0.9,0.6c0.5,0.4,0.7,0.7,0.7,0.8c0,0.2-0.2,0.3-0.5,0.3H104v0.5c0,0.1-0.2,0.1-0.5,0.2c-0.4,0.1-0.7,0.1-1.1,0.1
					h-0.3v-0.8h-1.9V74c0,0.1-0.2,0.1-0.5,0.2C99.3,74.3,98.9,74.3,98.6,74.3z M98.7,80.1h1.5v-1.5h-1.5V80.1z M98.7,82.2h1.5v-1.6
					h-1.5V82.2z M102.1,80.1h1.6v-1.5h-1.6V80.1z M102.1,82.2h1.6v-1.6h-1.6V82.2z"/>
			</g>
			<g>
				<path class="st0" d="M123.3,87.5c-3.1-1.6-5-4.5-5.7-8.7c-0.3,2.1-1,3.8-2.2,5c-1.3,1.5-3.3,2.7-6.1,3.6l-0.1-0.3
					c2.1-1.1,3.7-2.4,4.7-3.8c0.8-1.3,1.4-2.8,1.6-4.7h-2.4c-0.8,0-1.7,0.1-2.6,0.2l-0.4-0.9c0.6,0.1,1.4,0.1,2.3,0.1h3.2
					c0.1-1,0.1-2.5,0.1-4.7h-3.2c-0.8,0-1.7,0.1-2.6,0.2l-0.5-0.9c0.6,0.1,1.4,0.1,2.3,0.1h9.8l0.5-0.8c0-0.1,0.1-0.1,0.2-0.3
					c0.3-0.3,0.4-0.5,0.5-0.5c0.1,0,0.5,0.3,1.1,0.8c0.6,0.5,0.9,0.9,0.9,1c0,0.2-0.2,0.3-0.5,0.3h-6.4c0,0.1,0,0.3,0,0.5
					c0,1.9-0.1,3.3-0.2,4.2h3.4l0.5-0.8c0,0,0.1-0.1,0.1-0.2c0.3-0.4,0.4-0.6,0.5-0.6c0.1,0,0.5,0.3,1.1,0.8c0.6,0.5,0.9,0.8,0.9,1
					c0,0.2-0.2,0.3-0.5,0.3h-6c0.8,3.1,3.2,5.4,7.2,6.8l0,0.2C124,85.7,123.4,86.4,123.3,87.5z"/>
			</g>
			<g>
				<path class="st0" d="M136.1,87.4c0-0.6-0.1-1.1-0.4-1.3c-0.3-0.3-0.9-0.6-1.9-0.8l0-0.3c1.3,0.1,2.2,0.2,2.6,0.2
					c0.3,0,0.5-0.1,0.7-0.3c0.1-0.1,0.3-0.4,0.4-0.9h-7.1c0,0.1,0,0.3-0.1,0.5c-0.1,0.3-0.1,0.6-0.1,0.7c-0.2,0.2-0.5,0.2-0.7,0.3
					c-0.3,0-0.7,0-1.3-0.1c0.4-2.2,0.7-4.5,1-7h-0.7c-0.4,0-0.8,0.1-1.2,0.2l-0.5-0.9c0.5,0.1,1,0.1,1.7,0.1h0.8
					c0.1-0.6,0.2-1.5,0.3-2.7c0-0.2,0.1-0.4,0.1-0.5c0.1-1.2,0.2-2.3,0.1-3.3l2.4,1h6l0.5-0.6c0,0,0.1-0.1,0.2-0.2
					c0.2-0.3,0.4-0.4,0.4-0.4c0.1,0,0.4,0.3,1,0.8c0.5,0.5,0.8,0.8,0.8,1c-0.1,0.2-0.4,0.3-0.8,0.4c0,0.4,0,1-0.1,1.8
					c0,1.4-0.1,2.3-0.1,2.9h0.2l0.4-0.7c0,0,0.1-0.1,0.1-0.2c0.2-0.4,0.4-0.5,0.4-0.5c0.1,0,0.4,0.2,0.9,0.7
					c0.5,0.5,0.8,0.8,0.8,0.9c0,0.2-0.2,0.3-0.5,0.3h-2.5c-0.1,2.1-0.3,3.8-0.5,5.1h0.5l0.4-0.7c0-0.1,0.1-0.1,0.2-0.2
					c0.2-0.3,0.3-0.4,0.4-0.4c0.1,0,0.4,0.2,0.9,0.7c0.5,0.5,0.7,0.8,0.7,0.9c0,0.2-0.2,0.3-0.4,0.3h-2.7c-0.2,1.2-0.5,1.9-0.9,2.4
					c-0.3,0.4-0.7,0.6-1.1,0.8C137.3,87.4,136.8,87.4,136.1,87.4z M130.6,83.6h7.2c0.2-1.1,0.4-2.9,0.5-5.1h-7
					C131.1,80,130.9,81.7,130.6,83.6z M131.3,78h7c0.1-1.1,0.1-2.8,0.2-5.1h-6.6C131.8,74,131.6,75.7,131.3,78z M134.7,82.4
					c-0.2-0.5-0.4-1-0.9-1.6c-0.4-0.5-0.8-0.9-1.3-1.2l0.1-0.1c1.2,0,2.1,0.2,2.7,0.7c0.5,0.3,0.8,0.8,0.9,1.3
					c0.1,0.4-0.1,0.8-0.4,1C135.5,82.7,135.1,82.7,134.7,82.4z M134.9,76.6c-0.1-0.4-0.4-0.9-0.8-1.4c-0.4-0.4-0.7-0.8-1.2-1.1
					L133,74c1.1,0,2,0.2,2.6,0.6c0.5,0.3,0.8,0.7,0.8,1.2c0,0.4-0.1,0.7-0.4,0.9C135.7,76.9,135.3,76.9,134.9,76.6z"/>
			</g>
			<g>
				<path class="st0" d="M146.1,86.8c-0.1,0-0.3,0-0.4-0.1c-0.1-0.1-0.1-0.2-0.1-0.2c0.1-1.5,0.2-3,0.2-4.6V77
					c0-1.5-0.1-2.7-0.2-3.6l2.1,0.9h0.1c0.2-1.4,0.2-2.5,0.2-3.4c1.3,0.3,2.2,0.6,2.5,0.7c0.2,0.1,0.3,0.2,0.1,0.3l-0.3,0.2
					c-0.6,0.8-1.1,1.6-1.6,2.2h1.5l0.4-0.5c0,0,0.1-0.1,0.1-0.2c0.2-0.2,0.3-0.4,0.4-0.4c0.1,0,0.4,0.2,1,0.7
					c0.5,0.4,0.8,0.7,0.8,0.9c-0.1,0.2-0.4,0.3-0.7,0.4v6.2c0,1.4,0.1,2.8,0.1,4.1c-0.1,0.1-0.3,0.3-0.7,0.4c-0.4,0.2-0.7,0.2-1,0.2
					c-0.2,0-0.4-0.1-0.4-0.4c0-0.1,0-0.2,0-0.3c0-0.1,0-0.2,0-0.3v-0.5h-2.6v0.4c0,0.1,0,0.2,0,0.3c0,0.2,0,0.3,0.1,0.4
					c0,0.2-0.2,0.3-0.5,0.5C146.9,86.7,146.5,86.8,146.1,86.8z M147.7,79.2h2.6v-4.3h-2.6V79.2z M147.7,84.3h2.6v-4.6h-2.6V84.3z
					 M156.5,87.4c0-0.7-0.1-1.2-0.4-1.4c-0.3-0.4-0.9-0.6-1.8-0.8l0-0.2c1.2,0.1,2,0.2,2.4,0.2c0.3,0,0.5-0.1,0.6-0.2
					c0.3-0.3,0.5-1.3,0.6-3c0.1-1.4,0.2-3.8,0.3-7h-3.1c-0.8,1.5-1.8,2.7-2.8,3.7l-0.2-0.1c0.5-0.9,1-2.2,1.4-3.7
					c0.2-0.6,0.3-1.2,0.5-2c0.1-0.7,0.2-1.4,0.2-1.8c1.3,0.4,2.1,0.7,2.5,0.8c0.2,0.1,0.3,0.2,0.1,0.3l-0.3,0.1
					c-0.3,0.7-0.6,1.4-0.9,2.1h2.7l0.5-0.6c0,0,0.1-0.1,0.2-0.2c0.2-0.2,0.4-0.4,0.4-0.4c0.1,0,0.4,0.2,1,0.7
					c0.5,0.5,0.8,0.8,0.8,0.9c-0.2,0.2-0.4,0.3-0.7,0.3c-0.1,3.7-0.2,6.4-0.3,7.9c-0.2,1.8-0.5,2.9-0.9,3.4
					C158.4,87.1,157.6,87.4,156.5,87.4z M154.9,81.6c0-0.6-0.2-1.2-0.5-1.9c-0.2-0.6-0.6-1.2-0.9-1.7l0.1-0.1c1.1,0.4,2,0.8,2.5,1.4
					c0.5,0.5,0.7,1,0.6,1.6c0,0.5-0.2,0.8-0.6,1C155.7,82.1,155.3,82,154.9,81.6z"/>
			</g>
			<g>
				<path class="st0" d="M165.8,81.8c-0.3,0-0.5-0.1-0.5-0.4c0.1-1,0.1-2,0.1-2.9v-1.6c-0.7,0.7-1.4,1.4-2.1,1.9l-0.2-0.1
					c0.7-1.1,1.4-2.5,2-4.1c0.2-0.5,0.4-1.2,0.6-1.9c0.2-0.7,0.3-1.3,0.3-1.8c1.3,0.5,2.2,0.8,2.5,1c0.2,0.2,0.3,0.3,0.1,0.4
					l-0.3,0.1c-0.4,0.8-0.8,1.5-1.2,2.3c0.4,0.3,0.6,0.5,0.7,0.6c0.1,0.1,0,0.2-0.1,0.3l-0.2,0.1v1.6c0,1.4,0.1,2.7,0.1,3.9
					c-0.1,0.1-0.3,0.3-0.6,0.4C166.5,81.7,166.1,81.8,165.8,81.8z M164,86.3c-0.4-0.1-0.6-0.3-0.7-0.6c-0.1-0.3,0-0.6,0.1-0.8
					c0.1-0.2,0.3-0.4,0.6-0.6c0.4-0.2,0.8-0.5,1.1-0.9c0.4-0.5,0.6-1,0.6-1.5l0.2,0c0.3,1.1,0.4,2,0.1,2.8c-0.2,0.7-0.6,1.2-1.1,1.5
					C164.7,86.3,164.3,86.4,164,86.3z M169.6,87c-0.9,0-1.5-0.1-1.8-0.3c-0.3-0.2-0.4-0.7-0.4-1.4v-1.9c0-0.8,0-1.5-0.1-2
					c1.2,0.3,1.9,0.5,2.2,0.6c0.2,0.1,0.2,0.2,0.1,0.3l-0.3,0.2v2.4c0,0.1,0,0.2,0.1,0.3c0.1,0,0.3,0.1,0.6,0.1h1.9
					c0.9,0,1.4,0,1.5,0c0.2,0,0.4-0.1,0.5-0.2c0.2-0.2,0.4-0.8,0.8-1.9h0.2l0.1,1.9c0.3,0.1,0.4,0.2,0.5,0.4
					c0.1,0.1,0.1,0.3,0.1,0.5c0,0.4-0.3,0.8-0.8,0.9c-0.6,0.2-1.6,0.3-3.1,0.3H169.6z M168.2,77.2L168,77c0.4-0.7,0.8-1.5,1.1-2.4
					c0.2-0.5,0.4-1.2,0.5-1.9c0.2-0.7,0.2-1.3,0.2-1.8c1.3,0.4,2.1,0.7,2.5,0.9c0.2,0.1,0.3,0.3,0.1,0.3l-0.3,0.1
					c-0.1,0.3-0.3,0.6-0.5,1h4.6l0.5-0.5c0,0,0.1-0.1,0.2-0.2c0.2-0.2,0.4-0.4,0.4-0.4c0.1,0,0.4,0.3,0.9,0.8c0.5,0.5,0.8,0.9,0.8,1
					c-0.1,0.1-0.3,0.2-0.7,0.2c-0.7,0.6-1.5,1.2-2.4,1.7l-0.1-0.1c0.2-0.7,0.4-1.4,0.5-2h-4.9C170.5,75.2,169.5,76.3,168.2,77.2z
					 M172.2,81.4c-0.1-0.7-0.2-1.2-0.3-1.4c-0.3-0.3-0.7-0.6-1.2-0.6v-0.2c0.6,0,1.1,0.1,1.7,0.1c0.2,0,0.3-0.1,0.3-0.3v-2.6
					c-0.1,0.1-0.3,0.1-0.5,0.1c-0.9,1.6-2,2.8-3.5,3.5l-0.2-0.2c0.2-0.3,0.4-0.6,0.7-1.1c0.3-0.5,0.5-1.1,0.7-1.8
					c0.2-0.7,0.3-1.3,0.3-1.8l2.5,1c0-1,0-1.8-0.1-2.3c1.2,0.3,1.9,0.5,2.2,0.6c0.2,0.1,0.3,0.2,0.1,0.3l-0.3,0.2V79
					c0,0.8-0.1,1.3-0.4,1.6C173.9,81,173.2,81.3,172.2,81.4z M171.4,83.8c-0.1-0.5-0.3-1-0.7-1.5c-0.3-0.5-0.7-0.9-1.1-1.3l0.1-0.1
					c1.1,0.1,1.9,0.4,2.5,0.8c0.5,0.4,0.7,0.8,0.8,1.3c0,0.4-0.1,0.7-0.5,0.9C172.2,84.1,171.8,84.1,171.4,83.8z M177,85.9
					c-0.1-0.7-0.5-1.4-0.9-2.1c-0.4-0.7-1-1.3-1.5-1.8l0.1-0.1c1.3,0.2,2.4,0.7,3.1,1.3c0.6,0.5,0.9,1.1,1,1.7
					c0.1,0.6-0.1,1-0.5,1.2C177.9,86.3,177.5,86.3,177,85.9z M176.7,79.6c-0.1-0.6-0.3-1.4-0.7-2.1c-0.3-0.7-0.7-1.3-1.2-1.9
					l0.2-0.1c1.2,0.4,2.1,0.9,2.7,1.6c0.5,0.6,0.8,1.1,0.8,1.7c0,0.5-0.2,0.9-0.5,1.1C177.5,80,177.1,80,176.7,79.6z"/>
			</g>
		</g>
	</g>
</g>
</svg>
