<svg width="345" height="49" viewBox="0 0 345 49" fill="none" xmlns="http://www.w3.org/2000/svg">
<path d="M12.94 15.55C11.15 14.66 9.78 13.4299 8.82 11.8699C8.09 10.6799 7.6 9.26995 7.34 7.61995H7.23C6.97 9.47995 6.36 10.99 5.41 12.13C4.32 13.49 2.59 14.5999 0.229996 15.4799L0.0599957 15.21C2.02 14.26 3.46 13.13 4.38 11.82C5.17 10.7 5.67 9.30995 5.9 7.61995H3.49C2.74 7.62995 1.95 7.69995 1.12 7.83995L0.689996 7.01996C1.27 7.07996 1.97 7.12995 2.79 7.14995H5.96C6.04 6.36995 6.1 5.13996 6.12 3.43996V3.02995H2.95C2.2 3.03995 1.41 3.10995 0.579996 3.24995L0.189996 2.44995C0.769996 2.50995 1.47 2.55996 2.29 2.57996H11.48L11.87 2.02995C11.87 2.02995 11.93 1.94995 11.98 1.88995C12.17 1.60995 12.3 1.45996 12.38 1.45996C12.48 1.45996 12.77 1.64995 13.22 2.03995C13.68 2.41995 13.91 2.66995 13.91 2.78995C13.87 2.95995 13.73 3.03995 13.5 3.03995H7.49C7.45 4.91995 7.38 6.29996 7.28 7.15996H11.04L11.42 6.61995C11.42 6.61995 11.49 6.51995 11.55 6.44995C11.74 6.19995 11.87 6.06996 11.93 6.06996C12.03 6.06996 12.31 6.25995 12.76 6.63995C13.21 7.01995 13.43 7.26996 13.43 7.37996C13.39 7.54996 13.25 7.62996 13.02 7.62996H7.64C8.31 10.68 10.49 12.8999 14.16 14.2899L14.13 14.46C13.47 14.55 13.08 14.92 12.96 15.55H12.94Z" fill="white"/>
<path d="M24.46 15.5C24.46 15.09 24.36 14.8 24.14 14.63C23.9 14.43 23.35 14.25 22.48 14.09L22.5 13.81C22.56 13.82 22.66 13.83 22.8 13.84C23.93 13.96 24.6 14.0099 24.84 14.0099C25.11 14.0099 25.33 13.9299 25.5 13.7599C25.65 13.6299 25.78 13.33 25.89 12.86H18.76C18.74 12.95 18.72 13.09 18.7 13.27C18.65 13.55 18.61 13.76 18.59 13.89C18.45 13.98 18.3 14.04 18.13 14.06C17.94 14.08 17.67 14.0599 17.33 13.9799C17.61 12.4299 17.93 10.36 18.29 7.74995H17.6C17.21 7.75995 16.81 7.82996 16.4 7.96996L15.99 7.16995C16.44 7.22995 16.98 7.27996 17.6 7.29996H18.36C18.38 7.11996 18.41 6.85995 18.45 6.50995C18.58 5.57995 18.67 4.90996 18.72 4.46996C18.86 3.34996 18.89 2.36995 18.83 1.49995L20.41 2.18996H26.53L26.85 1.75995C26.85 1.75995 26.91 1.68996 26.96 1.62996C27.12 1.42996 27.23 1.32996 27.29 1.32996C27.39 1.32996 27.64 1.49996 28.02 1.84996C28.4 2.19996 28.6 2.42995 28.6 2.53995C28.47 2.68995 28.25 2.77996 27.92 2.81996C27.87 4.80996 27.81 6.28996 27.75 7.26996H28.35L28.68 6.72995C28.68 6.72995 28.75 6.62995 28.81 6.55995C28.97 6.31995 29.08 6.19995 29.14 6.19995C29.23 6.19995 29.48 6.37995 29.87 6.74995C30.26 7.11995 30.45 7.35995 30.45 7.47995C30.41 7.64995 30.27 7.72995 30.04 7.72995H27.74C27.62 9.75995 27.47 11.31 27.28 12.39H28.13L28.45 11.88C28.45 11.88 28.5 11.81 28.53 11.75C28.7 11.5 28.82 11.3699 28.89 11.3699C29 11.3699 29.23 11.54 29.61 11.89C29.98 12.24 30.17 12.47 30.17 12.58C30.14 12.75 30.01 12.83 29.78 12.83H27.22C27.03 13.74 26.81 14.3399 26.56 14.6499C26.11 15.1999 25.41 15.47 24.48 15.47L24.46 15.5ZM18.84 12.41H26.01C26.23 11.26 26.39 9.70995 26.48 7.74995H19.49C19.43 8.17995 19.34 8.82996 19.22 9.70996C19.05 10.94 18.93 11.84 18.84 12.41ZM19.53 7.29996H26.51C26.58 5.91996 26.65 4.36995 26.7 2.63995H20.09C19.99 3.75995 19.8 5.30996 19.54 7.29996H19.53ZM24.09 11.17C23.89 11.37 23.62 11.39 23.28 11.22C23.1 10.8 22.76 10.35 22.27 9.87996C21.82 9.44996 21.34 9.07995 20.85 8.77995L20.98 8.64995C21.95 8.73995 22.73 8.96996 23.32 9.32996C23.79 9.61996 24.09 9.96995 24.22 10.36C24.34 10.71 24.29 10.9799 24.09 11.1799V11.17ZM24.27 5.95996C24.06 6.14996 23.8 6.15996 23.49 5.98996C23.31 5.59996 23.01 5.18995 22.57 4.75995C22.15 4.34995 21.72 4.01995 21.28 3.77995L21.41 3.61995C22.31 3.69995 23.04 3.90996 23.59 4.23996C24.04 4.49996 24.32 4.81996 24.43 5.18996C24.53 5.51996 24.49 5.76996 24.28 5.95996H24.27Z" fill="white"/>
<path d="M35.63 14.49C35 14.49 34.37 14.4 33.75 14.22C33.18 14.05 32.69 13.84 32.27 13.57L32.38 11.14H33.26L33.7 13.3C34.23 13.58 34.83 13.73 35.51 13.73C36.36 13.73 37.03 13.55 37.51 13.18C38.02 12.8 38.27 12.26 38.27 11.57C38.27 11.02 38.1 10.58 37.77 10.24C37.45 9.91997 36.9 9.60996 36.1 9.28996L35.45 9.01997C34.48 8.62997 33.76 8.17997 33.29 7.65997C32.74 7.07997 32.47 6.37997 32.47 5.55997C32.47 4.57997 32.84 3.79997 33.57 3.21997C34.29 2.65997 35.2 2.37997 36.32 2.37997C37.37 2.37997 38.32 2.68997 39.16 3.29997L39.05 5.55997H38.15L37.71 3.48997C37.31 3.25997 36.84 3.13997 36.31 3.13997C35.59 3.13997 35.02 3.30996 34.59 3.64996C34.13 4.01996 33.9 4.51997 33.9 5.16997C33.9 5.70997 34.07 6.15997 34.4 6.52997C34.72 6.87997 35.2 7.17996 35.85 7.42996L36.54 7.69997C37.69 8.14997 38.5 8.64996 38.98 9.17996C39.46 9.71996 39.7 10.39 39.7 11.2C39.7 12.21 39.32 13.02 38.56 13.61C37.82 14.19 36.84 14.48 35.62 14.48L35.63 14.49Z" fill="white"/>
<path d="M46.93 14.49C45.48 14.49 44.26 13.97 43.27 12.94C42.19 11.81 41.64 10.31 41.64 8.43996C41.64 7.21996 41.9 6.13996 42.41 5.18996C42.88 4.30996 43.53 3.61995 44.35 3.11995C45.15 2.63995 46.01 2.38995 46.92 2.38995C47.83 2.38995 48.69 2.61996 49.48 3.07996C50.3 3.56996 50.94 4.25996 51.41 5.12996C51.93 6.07996 52.18 7.17995 52.18 8.42995C52.18 9.67995 51.93 10.7299 51.42 11.6799C50.95 12.5599 50.3 13.25 49.49 13.75C48.69 14.23 47.83 14.4799 46.92 14.4799L46.93 14.49ZM46.93 13.75C48.06 13.75 48.93 13.2099 49.57 12.1199C50.12 11.1499 50.39 9.92996 50.39 8.43996C50.39 6.94996 50.12 5.73995 49.57 4.77995C48.94 3.69995 48.06 3.14995 46.93 3.14995C45.8 3.14995 44.91 3.68995 44.28 4.77995C43.71 5.74995 43.43 6.96995 43.43 8.44995C43.43 9.92995 43.71 11.1499 44.28 12.1199C44.91 13.1999 45.8 13.75 46.93 13.75Z" fill="white"/>
<path d="M60.08 14.49C58.35 14.49 56.95 13.93 55.87 12.8C54.79 11.67 54.24 10.22 54.24 8.43997C54.24 6.65997 54.79 5.23998 55.89 4.09998C56.99 2.95998 58.4 2.39996 60.13 2.39996C61.51 2.39996 62.66 2.67997 63.59 3.24997L63.62 5.80997H62.69L62.26 3.65997C61.68 3.31997 61.03 3.14996 60.3 3.14996C59.03 3.14996 58.01 3.60996 57.24 4.53996C56.43 5.49996 56.02 6.79997 56.02 8.44997C56.02 10.1 56.41 11.39 57.18 12.32C57.95 13.26 59.01 13.72 60.34 13.72C61 13.72 61.65 13.6 62.28 13.37V12.69C62.28 11.96 62.27 10.89 62.25 9.44997L60.42 9.30997V8.70998H64.92V9.30997L63.88 9.39996C63.85 10.45 63.83 11.55 63.83 12.68V13.45C62.55 14.12 61.29 14.46 60.07 14.46L60.08 14.49Z" fill="white"/>
<path d="M71.71 14.49C70.26 14.49 69.04 13.97 68.05 12.94C66.97 11.81 66.42 10.31 66.42 8.43996C66.42 7.21996 66.68 6.13996 67.19 5.18996C67.66 4.30996 68.31 3.61995 69.13 3.11995C69.93 2.63995 70.79 2.38995 71.7 2.38995C72.61 2.38995 73.47 2.61996 74.26 3.07996C75.08 3.56996 75.72 4.25996 76.19 5.12996C76.71 6.07996 76.96 7.17995 76.96 8.42995C76.96 9.67995 76.71 10.7299 76.2 11.6799C75.73 12.5599 75.08 13.25 74.27 13.75C73.47 14.23 72.61 14.4799 71.7 14.4799L71.71 14.49ZM71.71 13.75C72.84 13.75 73.71 13.2099 74.35 12.1199C74.9 11.1499 75.17 9.92996 75.17 8.43996C75.17 6.94996 74.9 5.73995 74.35 4.77995C73.72 3.69995 72.84 3.14995 71.71 3.14995C70.58 3.14995 69.69 3.68995 69.06 4.77995C68.49 5.74995 68.21 6.96995 68.21 8.44995C68.21 9.92995 68.49 11.1499 69.06 12.1199C69.69 13.1999 70.58 13.75 71.71 13.75Z" fill="white"/>
<path d="M79.32 15.09L78.93 14.2899C79.51 14.3499 80.21 14.39 81.03 14.42H85.48V12.64H83.22C82.47 12.65 81.68 12.72 80.85 12.86L80.46 12.06C81.04 12.12 81.74 12.17 82.56 12.19H85.48C85.48 11.53 85.45 10.96 85.39 10.49C86.23 10.71 86.75 10.8799 86.95 11.0099C87.11 11.0999 87.11 11.2 86.95 11.31L86.68 11.4799V12.19H89.49L89.85 11.67C89.85 11.67 89.92 11.5899 89.96 11.5099C90.14 11.2699 90.26 11.1499 90.32 11.1499C90.42 11.1499 90.68 11.33 91.09 11.69C91.49 12.05 91.7 12.2799 91.7 12.3999C91.66 12.5699 91.52 12.6499 91.29 12.6499H86.68V14.4299H90.82L91.2 13.91C91.2 13.91 91.27 13.81 91.33 13.74C91.51 13.5 91.63 13.38 91.69 13.38C91.79 13.38 92.06 13.56 92.48 13.92C92.9 14.28 93.11 14.52 93.11 14.64C93.08 14.81 92.95 14.89 92.72 14.89H81.7C80.95 14.9 80.16 14.97 79.33 15.11L79.32 15.09ZM79.62 9.35995L79.22 8.53995C79.8 8.59995 80.5 8.64995 81.32 8.66995H85.5V7.46996H83.29C82.54 7.47996 81.75 7.54996 80.92 7.68996L80.51 6.86995C81.09 6.92995 81.79 6.97995 82.61 6.99995H85.5V5.70996H82.33V6.13995C82.33 6.19995 82.23 6.27995 82.01 6.35995C81.78 6.44995 81.56 6.49995 81.35 6.49995C81.18 6.49995 81.1 6.38995 81.1 6.17995C81.14 5.80995 81.17 5.32995 81.19 4.72995V3.84996C81.19 2.69996 81.13 1.79995 81.02 1.13995L82.42 1.76996H89.68L89.92 1.48996C89.92 1.48996 89.95 1.43996 89.98 1.40996C90.1 1.26996 90.19 1.19995 90.26 1.19995C90.36 1.19995 90.57 1.31996 90.86 1.54996C91.15 1.77996 91.3 1.95996 91.3 2.06996C91.24 2.17996 91.11 2.24995 90.92 2.28995V5.88995C90.9 5.95995 90.74 6.05995 90.45 6.16995C90.9 6.51995 91.31 6.86995 91.67 7.22995C91.64 7.39995 91.51 7.47995 91.28 7.47995H86.62V8.67995H90.8L91.13 8.21996C91.13 8.21996 91.19 8.13996 91.24 8.07996C91.4 7.86996 91.51 7.75995 91.57 7.75995C91.67 7.75995 91.91 7.91996 92.27 8.23996C92.63 8.55996 92.81 8.77995 92.81 8.89995C92.78 9.06995 92.64 9.14995 92.4 9.14995H81.97C81.22 9.15995 80.43 9.22995 79.6 9.36995L79.62 9.35995ZM79.95 12.0399C79.72 12.0099 79.56 11.9 79.48 11.71C79.43 11.54 79.45 11.38 79.54 11.22C79.61 11.06 79.74 10.94 79.92 10.84C80.19 10.7 80.46 10.5 80.72 10.24C81.01 9.91996 81.2 9.60995 81.27 9.30995L81.52 9.33995C81.6 9.93995 81.54 10.48 81.31 10.97C81.13 11.39 80.88 11.6999 80.57 11.8999C80.37 12.0199 80.16 12.0599 79.94 12.0399H79.95ZM82.33 5.21996H85.55V2.20996H82.33V5.21996ZM84.59 4.97995C84.41 5.07995 84.21 5.03995 83.99 4.85995C83.91 4.53995 83.72 4.16996 83.42 3.73996C83.17 3.35996 82.9 3.01995 82.61 2.72995L82.78 2.59996C83.45 2.84996 83.97 3.15995 84.33 3.52995C84.63 3.81995 84.8 4.11995 84.82 4.42995C84.84 4.68995 84.76 4.86996 84.58 4.96996L84.59 4.97995ZM84.38 11.6199C84.17 11.6899 83.97 11.6299 83.77 11.4299C83.73 10.8399 83.51 10.18 83.11 9.43996L83.28 9.34996C83.84 9.61996 84.24 9.92995 84.5 10.28C84.71 10.57 84.79 10.86 84.74 11.13C84.71 11.38 84.59 11.5499 84.38 11.6199ZM86.57 5.22995H89.79V3.29996C89.72 3.38996 89.55 3.42995 89.3 3.38995C88.94 3.72995 88.27 4.28996 87.28 5.07996L87.12 4.93996C87.61 4.08996 87.99 3.21995 88.26 2.33995L89.79 3.20996V2.21996H86.57V5.22995ZM86.63 6.99995H89.71L90.34 6.20996C90.21 6.23996 90.09 6.25995 89.98 6.25995H89.79V5.70996H86.63V6.99995ZM88.48 11.5099C88.27 11.6199 88.06 11.5799 87.82 11.3999C87.74 10.8199 87.4 10.1599 86.81 9.42995L86.97 9.31996C87.6 9.51996 88.08 9.77995 88.41 10.11C88.67 10.38 88.81 10.67 88.81 10.96C88.8 11.22 88.69 11.4099 88.49 11.5099H88.48ZM92.42 11.6799C92.23 11.8399 91.99 11.8499 91.71 11.6799C91.57 11.3199 91.32 10.9199 90.94 10.4799C90.61 10.0799 90.26 9.72995 89.88 9.41995L90.04 9.28995C90.83 9.43995 91.46 9.67995 91.92 10.03C92.3 10.31 92.53 10.62 92.61 10.96C92.67 11.27 92.61 11.5 92.42 11.66V11.6799Z" fill="white"/>
<path d="M97.21 5.89996C97 6.03996 96.77 6.01997 96.51 5.82997C96.45 5.47997 96.28 5.09996 96.01 4.67996C95.78 4.30996 95.52 3.97997 95.22 3.68997L95.38 3.57997C95.82 3.69997 96.21 3.84996 96.53 4.03996L96.55 4.00996V3.97997C96.95 2.90997 97.21 1.84998 97.34 0.819977C98.19 1.13998 98.72 1.36996 98.93 1.50996C99.09 1.62996 99.08 1.71997 98.91 1.77997L98.63 1.88997C97.98 2.89997 97.39 3.68997 96.86 4.26997C97.22 4.55997 97.42 4.88997 97.48 5.22997C97.51 5.53997 97.42 5.75996 97.22 5.89996H97.21ZM95.48 14.26L95.24 14.13C95.34 13.81 95.44 13.51 95.52 13.21C95.65 12.68 95.75 12.11 95.82 11.49C95.89 10.85 95.91 10.31 95.87 9.87997L96.83 10.13C97.5 10.2 97.67 10.33 97.32 10.51L97.07 10.65C96.68 12.18 96.15 13.38 95.48 14.25V14.26ZM97.86 15.52C97.75 15.52 97.67 15.49 97.59 15.43C97.52 15.37 97.48 15.29 97.48 15.21C97.57 13.85 97.63 12.48 97.65 11.11V8.53996C97.44 8.58996 97.11 8.66997 96.66 8.77997C96.43 8.81997 96.26 8.85997 96.14 8.88997C96.03 9.07997 95.9 9.18997 95.75 9.21997L95.26 7.88997C95.4 7.88997 95.64 7.88996 96 7.86996C96.33 7.84996 96.58 7.83997 96.77 7.83997C97.15 7.17997 97.54 6.44996 97.94 5.64996C98.51 4.48996 98.89 3.49997 99.09 2.66997C99.92 3.00997 100.43 3.24997 100.62 3.40997C100.77 3.52997 100.75 3.60997 100.57 3.65997L100.25 3.73997C99.48 4.98997 98.48 6.34997 97.25 7.80997C97.64 7.78997 98.29 7.74997 99.19 7.69997C99.35 7.68997 99.47 7.67996 99.55 7.67996C99.39 7.30996 99.18 6.90998 98.9 6.45998L99.07 6.36996C99.75 6.70996 100.26 7.09996 100.59 7.53996C100.86 7.91996 100.99 8.27997 100.98 8.62997C100.96 8.94997 100.84 9.15996 100.62 9.25996C100.4 9.36996 100.18 9.29998 99.93 9.06998C99.9 8.75998 99.81 8.41996 99.68 8.03996L98.76 8.25996V11.35C98.78 12.65 98.82 13.89 98.89 15.06C98.81 15.17 98.68 15.27 98.53 15.36C98.32 15.47 98.09 15.52 97.84 15.52H97.86ZM100.58 12.44C100.36 12.52 100.15 12.46 99.93 12.23C99.92 11.53 99.68 10.71 99.22 9.79997L99.41 9.70998C100 10.05 100.43 10.43 100.69 10.86C100.91 11.21 101 11.54 100.96 11.87C100.93 12.16 100.8 12.35 100.59 12.44H100.58ZM103.59 15.49C103.57 15.07 103.49 14.79 103.35 14.65C103.17 14.44 102.82 14.3 102.29 14.22V13.98C102.77 14.01 103.25 14.04 103.73 14.07C103.93 14.07 104.03 13.98 104.03 13.79V10.84C103.96 10.92 103.84 11.07 103.68 11.27C102.79 12.34 102.03 13.23 101.42 13.92C101.44 14.13 101.38 14.29 101.25 14.41L100.16 13.24C100.81 12.86 102.1 11.96 104.03 10.53V6.86996H102.86C102.18 6.87996 101.47 6.94997 100.75 7.08997L100.35 6.26997C100.93 6.32997 101.63 6.37996 102.45 6.39996H105.69L105.91 4.89996H102.94L102.77 5.69997C102.49 5.88997 102.09 5.90996 101.57 5.75996C101.74 5.21996 101.88 4.67996 101.98 4.11996C102.27 2.76996 102.38 1.67997 102.31 0.839966C103.16 0.949966 103.69 1.04997 103.9 1.13997C104.06 1.19997 104.05 1.28997 103.87 1.38997L103.59 1.55997C103.58 1.66997 103.55 1.84997 103.51 2.10997C103.5 2.17997 103.49 2.23997 103.48 2.27997H106.16L106.4 1.95998C106.4 1.95998 106.43 1.90997 106.46 1.87997C106.58 1.71997 106.67 1.63997 106.74 1.63997C106.84 1.63997 107.06 1.77997 107.38 2.05997C107.7 2.33997 107.86 2.53996 107.86 2.64996C107.75 2.75996 107.59 2.81997 107.36 2.85997L106.84 6.37997H107.41L107.71 5.88997C107.71 5.88997 107.77 5.78997 107.82 5.71997C107.97 5.49997 108.07 5.38997 108.14 5.38997C108.23 5.38997 108.46 5.55997 108.81 5.90997C109.16 6.25997 109.34 6.48998 109.34 6.59998C109.31 6.76998 109.18 6.84998 108.96 6.84998H105.27C105.47 8.05998 105.81 9.12997 106.3 10.05C106.58 9.62997 106.85 9.16997 107.1 8.65997C107.35 8.12997 107.53 7.66997 107.64 7.26997C108.38 7.73997 108.83 8.06996 109.01 8.25996C109.15 8.39996 109.13 8.47997 108.96 8.49997L108.68 8.52997C107.99 9.16997 107.25 9.76997 106.47 10.31C107.18 11.53 108.2 12.49 109.53 13.2L109.48 13.36C108.98 13.5 108.65 13.89 108.5 14.54C107.59 13.77 106.9 12.91 106.4 11.95C105.84 10.88 105.44 9.49997 105.18 7.80997V13.79C105.18 14.31 105.09 14.67 104.91 14.89C104.68 15.18 104.24 15.37 103.58 15.44L103.59 15.49ZM103.04 10.34C102.83 10.46 102.6 10.41 102.36 10.2C102.28 9.47997 101.89 8.69997 101.21 7.82997L101.37 7.71997C102.06 7.98997 102.59 8.32998 102.93 8.70998C103.21 9.04998 103.36 9.37997 103.36 9.69997C103.36 10.01 103.25 10.22 103.04 10.33V10.34ZM103.04 4.43997H105.98L106.23 2.74997H103.39C103.37 2.86997 103.33 3.04997 103.28 3.29997C103.17 3.80997 103.1 4.17997 103.04 4.43997Z" fill="white"/>
<path d="M111.71 6.98996L111.3 6.18996C111.83 6.24996 112.47 6.29996 113.23 6.31996H114.16V4.84996H113.43C113.04 4.85996 112.63 4.92996 112.2 5.06996L111.79 4.26996C112.24 4.32996 112.78 4.37995 113.4 4.39995H114.16V3.14995H113.34C112.87 3.15995 112.38 3.22995 111.89 3.36995L111.49 2.54996C112 2.60996 112.59 2.65995 113.29 2.67995H114.16C114.16 1.95995 114.12 1.36995 114.05 0.899948C114.88 1.11995 115.4 1.29996 115.6 1.43996C115.75 1.52996 115.74 1.62996 115.58 1.73996L115.31 1.90996V2.67995H116.26L116.58 2.21996C116.58 2.21996 116.65 2.11996 116.71 2.04996C116.85 1.85996 116.95 1.76996 117.01 1.76996C117.11 1.76996 117.35 1.92995 117.7 2.24995C118.06 2.56995 118.24 2.78996 118.24 2.90996C118.2 3.07996 118.07 3.15996 117.85 3.15996H115.32V4.40996H116.11L116.38 3.99995C116.38 3.99995 116.42 3.93995 116.44 3.88995C116.58 3.68995 116.68 3.58995 116.76 3.58995C116.86 3.58995 117.08 3.72996 117.39 4.01996C117.71 4.29996 117.86 4.49995 117.86 4.61995C117.82 4.78995 117.69 4.86995 117.47 4.86995H115.32V6.33995H116.49L117.18 5.40996C117.33 5.52996 117.47 5.64996 117.61 5.76996C117.78 5.47996 117.9 5.23996 117.97 5.07996C118.18 4.61996 118.35 4.05995 118.47 3.41995C118.6 2.80995 118.65 2.26995 118.63 1.80995L120.18 2.29996C120.23 2.27996 120.31 2.24996 120.41 2.21996C120.51 2.18996 120.58 2.16996 120.62 2.15996C121.8 1.76996 122.75 1.29995 123.48 0.759949C124.07 1.36995 124.42 1.76996 124.52 1.95996C124.6 2.11996 124.54 2.18995 124.33 2.16995L123.95 2.13995C122.77 2.41995 121.45 2.61996 119.99 2.73996C119.47 4.19996 118.75 5.27995 117.83 5.97995C117.97 6.09995 118.17 6.26996 118.43 6.51996L118.48 6.56996C118.44 6.73996 118.31 6.81996 118.09 6.81996H114.1C113.35 6.82996 112.56 6.89995 111.73 7.03995L111.71 6.98996ZM115.97 15.5099C115.94 15.1399 115.85 14.88 115.7 14.74C115.53 14.56 115.22 14.43 114.75 14.36V14.1199C115.19 14.1399 115.63 14.17 116.06 14.2C116.23 14.2 116.31 14.11 116.31 13.92V11.5399H113.2V12.72C113.22 13.69 113.25 14.45 113.29 14.99C113.24 15.11 113.12 15.21 112.94 15.31C112.73 15.43 112.51 15.4799 112.29 15.4799C112.22 15.4799 112.15 15.45 112.09 15.39C112.03 15.33 112 15.25 112 15.17C112.06 14.19 112.1 13.2 112.13 12.2V10.5399C112.13 9.20995 112.06 8.13996 111.92 7.29996L113.26 7.91995H116.15L116.7 7.22995L118.06 8.29996C118.06 8.29996 117.97 8.36995 117.89 8.42995H120.57V6.51996H119.94C119.61 6.52996 119.27 6.59996 118.9 6.73996L118.47 5.92995C119.05 5.98995 119.75 6.03995 120.57 6.05995H123.08L123.33 5.70996C123.33 5.70996 123.38 5.63996 123.42 5.57996C123.54 5.41996 123.63 5.33995 123.69 5.33995C123.79 5.33995 124.01 5.47996 124.35 5.76996C124.68 6.05996 124.85 6.25996 124.85 6.37996C124.76 6.50996 124.58 6.59995 124.31 6.64995V8.41995H124.39L124.88 7.60995C125.17 7.94995 125.46 8.27995 125.75 8.61995C125.71 8.77995 125.58 8.85995 125.37 8.85995H124.31V9.84996C124.31 10.01 124.31 10.21 124.33 10.45C124.35 11.02 124.37 11.4399 124.39 11.7299C124.34 11.8199 124.2 11.9199 123.98 12.0099C123.76 12.0999 123.56 12.1499 123.38 12.1499C123.21 12.1499 123.13 12.04 123.13 11.83C123.14 11.79 123.15 11.73 123.16 11.66C123.17 11.61 123.18 11.57 123.19 11.53V11.21H121.72V13.74C121.72 14.27 121.63 14.64 121.45 14.88C121.21 15.19 120.76 15.3699 120.11 15.4299C120.11 15.0299 120.02 14.74 119.84 14.56C119.66 14.36 119.3 14.22 118.75 14.13V13.89C119.25 13.92 119.76 13.96 120.27 14C120.47 14 120.57 13.9 120.57 13.7V11.21H119.91C119.55 11.22 119.17 11.2899 118.77 11.4299L118.36 10.63C118.78 10.69 119.29 10.7399 119.88 10.7599H120.57V8.84996H118.01L117.88 8.40996C117.76 8.48996 117.61 8.54996 117.42 8.57996V14.0099C117.42 14.4799 117.34 14.8299 117.17 15.0399C116.96 15.2799 116.55 15.43 115.94 15.5L115.97 15.5099ZM113.21 11.07H114.3V8.36995H113.21V11.07ZM115.18 11.07H116.32V8.36995H115.18V11.07ZM121.84 5.69995C121.62 5.77995 121.4 5.69996 121.19 5.46996C121.23 4.73996 121.04 3.91996 120.62 2.98996L120.79 2.90996C121.37 3.26996 121.78 3.65995 122.02 4.08995C122.23 4.45995 122.3 4.80996 122.24 5.12996C122.19 5.41996 122.05 5.60996 121.83 5.68996L121.84 5.69995ZM121.75 8.41995H123.22V6.50995H121.75V8.41995ZM121.75 10.77H123.22V8.85995H121.75V10.77ZM125.17 5.55995C124.96 5.70995 124.73 5.67995 124.47 5.47995C124.39 5.05995 124.18 4.57995 123.85 4.03995C123.57 3.57995 123.24 3.14995 122.89 2.75995L123.05 2.64995C123.83 2.93995 124.43 3.30996 124.85 3.73996C125.2 4.10996 125.39 4.47995 125.43 4.83995C125.46 5.16995 125.37 5.39996 125.17 5.54996V5.55995Z" fill="white"/>
<path d="M133.29 15.2C132.41 15.2 131.82 15.12 131.52 14.95C131.23 14.78 131.08 14.42 131.08 13.88V9.01997C130.1 9.93997 128.92 10.71 127.54 11.34L127.41 11.12C128.29 10.56 129.1 9.87998 129.83 9.06998C130.56 8.25998 131.1 7.42997 131.47 6.57997H130.24C129.5 6.58997 128.74 6.65997 127.94 6.79997L127.53 5.98997C128.11 6.04997 128.81 6.09996 129.63 6.11996H131.68V3.84998H130.67C130.1 3.85998 129.5 3.92998 128.87 4.06998L128.44 3.24997C129.02 3.30997 129.72 3.35997 130.54 3.37997H131.68C131.68 2.36997 131.63 1.53996 131.52 0.899963C132.36 1.11996 132.89 1.28997 133.11 1.41997C133.26 1.50997 133.26 1.60997 133.13 1.71997L132.89 1.87997V3.37997H136.24C136.24 2.36997 136.19 1.53996 136.08 0.899963C136.93 1.11996 137.46 1.28997 137.67 1.41997C137.83 1.50997 137.83 1.60997 137.69 1.71997L137.45 1.87997V3.37997H138.55L138.91 2.86996C138.91 2.86996 138.98 2.78998 139.02 2.70998C139.2 2.46998 139.32 2.34998 139.38 2.34998C139.48 2.34998 139.75 2.52997 140.18 2.88997C140.61 3.24997 140.82 3.47998 140.82 3.59998C140.78 3.76998 140.64 3.84998 140.39 3.84998H137.44V6.11996H139.25L139.63 5.59998C139.63 5.59998 139.7 5.49996 139.76 5.42996C139.94 5.18996 140.06 5.06998 140.12 5.06998C140.22 5.06998 140.49 5.24997 140.93 5.60997C141.36 5.96997 141.58 6.20997 141.58 6.32997C141.55 6.49997 141.42 6.57997 141.2 6.57997H137.03C137.57 7.24997 138.29 7.85997 139.19 8.40997C140.03 8.92997 140.92 9.29997 141.84 9.54997L141.82 9.73997C141.32 9.84997 140.99 10.2 140.84 10.81C139.9 10.38 139.06 9.77997 138.31 9.02997C138.23 9.04997 138.17 9.06997 138.14 9.07997V9.99997C138.14 10.15 138.14 10.34 138.16 10.57C138.18 11.1 138.2 11.49 138.22 11.75C138.18 11.83 138.03 11.92 137.79 12.02C137.55 12.12 137.32 12.16 137.14 12.16H136.95V11.53H132.28V13.69C132.28 13.88 132.34 14 132.45 14.05C132.58 14.11 132.87 14.14 133.33 14.14H136.09C137.37 14.14 138.19 14.12 138.55 14.09C138.78 14.08 138.94 14.01 139.04 13.88C139.21 13.65 139.41 13.11 139.64 12.25H139.81L139.84 13.91C140.25 14.02 140.46 14.19 140.46 14.43C140.46 14.65 140.36 14.81 140.14 14.9C139.91 15.02 139.47 15.09 138.83 15.14C138.23 15.18 137.28 15.2 135.99 15.2H133.26H133.29ZM132.47 8.45998H136.84L137.39 7.83997C137.11 7.41997 136.86 6.98997 136.66 6.55997H133.01C132.68 7.16997 132.3 7.71997 131.86 8.19997L132.46 8.44997L132.47 8.45998ZM132.3 11.05H136.97V8.89996H132.3V11.05ZM132.9 6.10997H136.25V3.83997H132.9V6.10997Z" fill="white"/>
<path d="M158.07 8.04999L157.96 7.83998C159.26 7.03998 160.54 5.95999 161.8 4.59999C163.09 3.18999 163.94 1.93999 164.33 0.859985L166.41 1.37999C166.37 1.55999 166.15 1.65998 165.76 1.69998C166.4 2.61998 167.34 3.46999 168.59 4.26999C169.66 4.95999 170.9 5.56999 172.3 6.09999L172.27 6.34999C172.01 6.40999 171.77 6.55998 171.56 6.77998C171.37 6.98998 171.24 7.21999 171.18 7.46999C169.93 6.80999 168.81 6.00999 167.83 5.06999C166.77 4.05999 165.98 2.99998 165.48 1.89998C164.74 3.03998 163.68 4.17999 162.3 5.32999C160.92 6.47999 159.51 7.37998 158.08 8.03998L158.07 8.04999ZM158.64 15.23L158.25 14.44C158.83 14.5 159.53 14.54 160.35 14.57H164.39V9.71999H161.75C161 9.72999 160.21 9.79999 159.38 9.93999L158.97 9.11998C159.55 9.17998 160.25 9.22998 161.07 9.24998H164.38V6.79999H163.39C162.82 6.80999 162.22 6.87999 161.59 7.01999L161.2 6.19998C161.78 6.25998 162.48 6.30999 163.3 6.32999H166.6L166.95 5.86998C166.95 5.86998 167.02 5.78999 167.08 5.70999C167.24 5.49999 167.35 5.38998 167.41 5.38998C167.51 5.38998 167.76 5.54999 168.15 5.87999C168.54 6.20999 168.73 6.42998 168.73 6.53998C168.7 6.70998 168.57 6.78998 168.34 6.78998H165.66V9.23999H169.01L169.37 8.72998C169.37 8.72998 169.45 8.61998 169.51 8.53998C169.68 8.31998 169.79 8.20999 169.86 8.20999C169.96 8.20999 170.23 8.38998 170.65 8.74998C171.07 9.10998 171.28 9.33999 171.28 9.45999C171.24 9.62999 171.1 9.70999 170.87 9.70999H165.66V14.56H169.51L169.9 13.99C169.9 13.99 169.96 13.91 170.01 13.85C170.2 13.57 170.33 13.42 170.4 13.42C170.5 13.42 170.78 13.61 171.24 14C171.69 14.39 171.92 14.64 171.92 14.76C171.88 14.92 171.74 15 171.51 15H161.01C160.26 15.01 159.47 15.08 158.64 15.22V15.23ZM162.6 13.86C162.35 13.99 162.08 13.91 161.81 13.62C161.78 12.69 161.41 11.63 160.72 10.43L160.89 10.34C161.66 10.76 162.23 11.25 162.59 11.79C162.9 12.24 163.03 12.68 163 13.1C162.98 13.48 162.84 13.73 162.59 13.86H162.6ZM166.86 14.05L166.65 13.91C166.75 13.72 166.85 13.53 166.93 13.33C167.41 12.26 167.75 11.19 167.94 10.13L168.97 10.64C169.72 10.87 169.91 11.05 169.54 11.16L169.26 11.25C168.46 12.41 167.66 13.34 166.86 14.06V14.05Z" fill="white"/>
<path d="M179.05 15.12C178.06 15.12 177.36 14.98 176.94 14.71C176.47 14.42 176.23 13.9 176.23 13.16V6.17996C175.6 6.79996 174.96 7.30997 174.3 7.69997L174.13 7.50996C175.2 6.57996 176.19 5.32997 177.1 3.74997C177.36 3.30997 177.61 2.79997 177.84 2.21997C178.06 1.65997 178.21 1.15997 178.3 0.719971C179.2 0.969971 179.78 1.15996 180.02 1.28996C180.19 1.37996 180.18 1.45996 180 1.50996L179.7 1.56998C179.54 1.89998 179.32 2.28997 179.02 2.74997H182.22L182.55 2.36996C182.55 2.36996 182.62 2.29997 182.68 2.23997C182.84 2.06997 182.95 1.98997 183.01 1.98997C183.1 1.98997 183.33 2.15997 183.7 2.49997C184.06 2.83997 184.24 3.06997 184.24 3.18997C184.16 3.29997 183.96 3.34997 183.64 3.35997C182.69 4.40997 181.92 5.13997 181.34 5.54997H184.99L185.27 5.11996C185.27 5.11996 185.32 5.04997 185.36 4.98997C185.51 4.78997 185.61 4.68997 185.68 4.68997C185.78 4.68997 186.03 4.85997 186.43 5.19997C186.82 5.53997 187.02 5.76997 187.02 5.88997C186.89 6.05997 186.68 6.16997 186.37 6.23997V7.67996C186.4 8.86996 186.44 9.78997 186.48 10.44C186.42 10.53 186.26 10.63 186.01 10.74C185.76 10.85 185.53 10.9 185.32 10.9C185.16 10.9 185.08 10.79 185.08 10.58C185.09 10.53 185.1 10.46 185.11 10.37C185.12 10.31 185.13 10.25 185.14 10.2V9.84998H177.44V13.16C177.44 13.45 177.57 13.65 177.82 13.76C178.04 13.85 178.42 13.9 178.96 13.9H184.82C185.35 13.9 185.72 13.87 185.94 13.82C186.19 13.76 186.38 13.63 186.49 13.44C186.69 13.12 186.94 12.37 187.25 11.18H187.46L187.48 13.56C187.8 13.65 188 13.73 188.08 13.78C188.2 13.84 188.25 13.94 188.25 14.08C188.25 14.42 188.03 14.66 187.6 14.81C187.08 14.99 186.19 15.08 184.92 15.08H179.06L179.05 15.12ZM177.63 5.56998H180.99C181.3 5.13998 181.71 4.34997 182.22 3.21997H178.73C178.19 3.99997 177.64 4.69997 177.06 5.32997L177.63 5.56998ZM177.44 9.41997H180.64V6.00996H177.44V9.41997ZM181.83 9.41997H185.14V6.00996H181.83V9.41997Z" fill="white"/>
<path d="M191.85 14.85C191.76 14.85 191.67 14.82 191.61 14.76C191.54 14.7 191.51 14.62 191.51 14.54C191.51 14.49 191.51 14.4 191.53 14.29C191.6 13.13 191.65 11.98 191.67 10.82V8.77997C191.38 9.31997 191.04 9.81997 190.68 10.3L190.46 10.11C191.39 8.28997 192.03 5.83997 192.4 2.76997H191.82C191.49 2.77997 191.16 2.84997 190.81 2.98997L190.4 2.18997C190.98 2.24997 191.68 2.29998 192.5 2.31998H194.31L194.64 1.82997C194.64 1.82997 194.72 1.72997 194.78 1.65997C194.93 1.44997 195.03 1.33997 195.1 1.33997C195.21 1.33997 195.45 1.50998 195.84 1.84998C196.23 2.18998 196.42 2.40997 196.42 2.52997C196.38 2.69997 196.25 2.77997 196.03 2.77997H193.63C193.42 4.19997 193.09 5.51997 192.64 6.72997L192.94 6.86996H194.16L194.43 6.48997C194.43 6.48997 194.47 6.43996 194.49 6.39996C194.63 6.20996 194.73 6.11996 194.81 6.11996C194.91 6.11996 195.14 6.27997 195.5 6.58997C195.85 6.89997 196.03 7.10997 196.03 7.22997C195.91 7.38997 195.71 7.48997 195.41 7.52997V9.89996C195.43 11.2 195.47 12.44 195.54 13.61C195.47 13.7 195.32 13.8 195.1 13.89C194.87 13.98 194.67 14.03 194.5 14.03C194.33 14.03 194.25 13.93 194.25 13.71C194.26 13.65 194.27 13.57 194.28 13.47C194.29 13.39 194.3 13.32 194.31 13.26V12.88H192.76V13.43C192.77 13.56 192.78 13.7 192.79 13.87C192.8 14.12 192.81 14.31 192.82 14.42C192.78 14.51 192.68 14.61 192.52 14.7C192.32 14.81 192.1 14.86 191.87 14.86L191.85 14.85ZM192.73 12.39H194.28V7.30997H192.73V12.39ZM195.15 15.53L195.04 15.31C195.25 15.2 195.53 15.04 195.88 14.8C196.32 14.48 196.74 14.12 197.13 13.71C197.53 13.27 197.82 12.85 198 12.46L198.93 13.08C199.66 13.4 199.8 13.58 199.37 13.63L199.01 13.66C198.58 14.03 198.02 14.38 197.34 14.72C196.62 15.07 195.9 15.34 195.16 15.52L195.15 15.53ZM196.63 13.07C196.46 13.07 196.38 12.96 196.38 12.75C196.42 12.32 196.45 11.78 196.47 11.14V10.16C196.47 8.96997 196.41 7.97996 196.28 7.17996L197.68 7.79997H199.45V6.57997H198.2C197.45 6.58997 196.67 6.65997 195.86 6.79997L195.45 5.97997C196.03 6.03997 196.73 6.08997 197.55 6.10997H202.57L202.9 5.63997C202.9 5.63997 202.96 5.55997 203.01 5.49997C203.17 5.26997 203.28 5.14996 203.34 5.14996C203.44 5.14996 203.68 5.31997 204.06 5.65997C204.43 5.99997 204.62 6.21997 204.62 6.33997C204.58 6.50997 204.44 6.58997 204.21 6.58997H200.53V7.80997H202.47L202.71 7.42996C202.71 7.42996 202.74 7.37997 202.77 7.33997C202.89 7.14997 202.98 7.05997 203.05 7.05997C203.15 7.05997 203.37 7.19997 203.69 7.48997C204.01 7.76997 204.17 7.96997 204.17 8.08997C204.06 8.22997 203.88 8.31997 203.62 8.35997V9.75996C203.64 10.91 203.67 11.82 203.71 12.49C203.66 12.57 203.54 12.66 203.36 12.74C203.15 12.83 202.93 12.88 202.7 12.88H202.51V12.31H197.51V12.75C197.51 12.8 197.43 12.87 197.27 12.94C197.07 13.03 196.85 13.08 196.61 13.08L196.63 13.07ZM197.78 5.78996C197.58 5.78996 197.48 5.67997 197.48 5.46997C197.52 5.11997 197.55 4.66997 197.57 4.10997V3.25996H197.02C196.73 3.26996 196.41 3.33997 196.07 3.47997L195.66 2.67996C196.02 2.73996 196.45 2.78997 196.95 2.80997H197.57C197.57 2.02997 197.53 1.38997 197.46 0.879974C198.26 1.09997 198.75 1.26996 198.94 1.39996C199.09 1.50996 199.08 1.60997 198.92 1.69997L198.65 1.86996V2.79997H201.13C201.13 2.01997 201.09 1.37996 201.02 0.869965C201.82 1.08996 202.31 1.25997 202.5 1.38997C202.65 1.47997 202.64 1.57997 202.48 1.68997L202.21 1.85997V2.78996H202.61L202.91 2.32997C202.91 2.32997 202.98 2.22997 203.04 2.15997C203.18 1.96997 203.28 1.87997 203.34 1.87997C203.44 1.87997 203.67 2.03998 204.01 2.34998C204.35 2.65998 204.52 2.87997 204.52 2.99997C204.49 3.16997 204.36 3.24997 204.14 3.24997H202.21V3.92996C202.22 4.08996 202.23 4.26997 202.24 4.47997C202.25 4.78997 202.26 5.01997 202.27 5.16997C202.24 5.25997 202.12 5.35997 201.92 5.44997C201.72 5.53997 201.51 5.57997 201.3 5.57997H201.11V4.89996H198.63V5.43997C198.63 5.49997 198.54 5.56996 198.35 5.64996C198.14 5.72996 197.94 5.77997 197.75 5.77997L197.78 5.78996ZM197.53 9.79997H199.46V8.24997H197.53V9.79997ZM197.53 11.84H199.46V10.26H197.53V11.84ZM198.67 4.46997H201.15V3.26997H198.67V4.46997ZM200.55 9.79997H202.54V8.24997H200.55V9.79997ZM200.55 11.84H202.54V10.26H200.55V11.84ZM204.16 15.36C203.99 15.57 203.74 15.61 203.42 15.49C203.17 15.1 202.76 14.65 202.19 14.15C201.67 13.7 201.16 13.31 200.66 13L200.79 12.84C201.77 12.97 202.57 13.2 203.19 13.55C203.69 13.84 204.03 14.18 204.2 14.56C204.35 14.89 204.34 15.15 204.17 15.36H204.16Z" fill="white"/>
<path d="M208.77 6.91997C208.55 7.05997 208.3 7.03997 208.01 6.85997C207.92 6.52997 207.73 6.17997 207.46 5.79997C207.21 5.46997 206.93 5.18997 206.64 4.94997L206.78 4.81998C207.53 4.89998 208.11 5.09996 208.52 5.39996C208.86 5.63996 209.04 5.92997 209.06 6.24997C209.09 6.53997 209 6.75997 208.78 6.90997L208.77 6.91997ZM208.31 15.5C207.96 15.5 207.77 15.24 207.74 14.71C207.84 13.92 207.88 13.23 207.84 12.63C207.8 12.04 207.7 11.68 207.53 11.56C207.38 11.43 207.14 11.35 206.79 11.32V10.99H207.45C207.54 10.99 207.62 10.97 207.66 10.93C207.71 10.89 207.76 10.8 207.83 10.64C207.98 10.36 208.17 9.91998 208.41 9.31998C208.65 8.72998 209.4 6.78997 210.67 3.51997L210.95 3.59998C209.83 7.21998 209.18 9.40997 208.99 10.17C208.84 10.86 208.77 11.35 208.77 11.62C208.77 11.81 208.83 12.11 208.94 12.52C209.14 13.21 209.23 13.82 209.21 14.35C209.19 14.7 209.1 14.97 208.94 15.18C208.78 15.39 208.57 15.49 208.29 15.49L208.31 15.5ZM209.87 3.40997C209.65 3.56997 209.39 3.55997 209.1 3.37997C208.99 3.03997 208.78 2.66996 208.47 2.25996C208.19 1.90996 207.88 1.59997 207.55 1.32997L207.69 1.19997C208.48 1.28997 209.09 1.49998 209.54 1.81998C209.9 2.07998 210.1 2.37997 210.16 2.71997C210.19 3.02997 210.1 3.25997 209.88 3.40997H209.87ZM210.14 15.47L210.05 15.25C212.18 14.51 213.55 13.37 214.19 11.82H212.79C212.04 11.83 211.25 11.9 210.42 12.04L210.01 11.25C210.59 11.31 211.29 11.36 212.11 11.38H214.34C214.53 10.81 214.59 10.23 214.51 9.63997C215.38 9.76997 215.94 9.87997 216.17 9.98997C216.33 10.06 216.32 10.14 216.15 10.23L215.87 10.37C215.79 10.81 215.71 11.15 215.63 11.38H218.61L218.94 10.91C218.94 10.91 219.02 10.81 219.08 10.74C219.23 10.53 219.33 10.42 219.4 10.42C219.5 10.42 219.75 10.59 220.13 10.92C220.51 11.25 220.71 11.48 220.71 11.59C220.67 11.75 220.54 11.83 220.31 11.83H216.05C216.83 12.9 218.41 13.69 220.8 14.18L220.78 14.39C220.45 14.45 220.22 14.56 220.07 14.71C219.9 14.87 219.8 15.12 219.75 15.45C217.69 14.79 216.33 13.58 215.68 11.84H215.44C215.08 12.69 214.51 13.41 213.74 13.99C212.86 14.64 211.66 15.14 210.14 15.49V15.47ZM210.9 6.01997L210.69 5.85997C210.83 5.65997 210.99 5.37997 211.18 5.01997C211.41 4.55997 211.62 4.00997 211.8 3.37997C211.96 2.75997 212.05 2.21997 212.07 1.76997L213.66 2.38997C215.49 1.92997 216.99 1.43997 218.16 0.939972L218.78 1.56998L219.4 2.19997C219.23 2.33997 218.96 2.32997 218.58 2.16997C217.02 2.45997 215.28 2.67998 213.34 2.81998C212.73 4.21998 211.92 5.28997 210.91 6.01997H210.9ZM211.4 10.41L210.72 8.93997C211.56 8.93997 212.73 8.90998 214.22 8.84998C214.34 8.70998 214.51 8.49997 214.76 8.19997C214.91 8.01997 215.02 7.87996 215.09 7.78996C215.84 6.82996 216.42 5.92997 216.83 5.08997C217.56 5.49997 218 5.78998 218.17 5.95998C218.3 6.08998 218.27 6.16997 218.09 6.19997L217.77 6.22997C216.94 7.06997 215.96 7.92998 214.83 8.81998C215 8.80998 215.25 8.79996 215.59 8.78996C216.77 8.73996 217.67 8.69997 218.29 8.65997C217.89 8.23997 217.52 7.90997 217.19 7.66997L217.32 7.52997C218.17 7.67997 218.85 7.93997 219.36 8.29997C219.78 8.58997 220.04 8.91997 220.15 9.27997C220.23 9.60997 220.18 9.85996 219.99 10.04C219.8 10.22 219.56 10.23 219.26 10.09C219.14 9.76997 218.91 9.40997 218.57 8.98997C216.95 9.30997 214.69 9.67997 211.8 10.11C211.71 10.28 211.57 10.38 211.41 10.43L211.4 10.41ZM214.05 8.17996C213.86 8.31996 213.63 8.30997 213.37 8.15997C213.24 7.82997 213.01 7.47997 212.68 7.08997C212.39 6.74997 212.07 6.45998 211.73 6.20998L211.87 6.06998C212.42 6.13998 212.9 6.27997 213.32 6.47997C213.75 5.70997 214.06 4.96997 214.25 4.24997L215.32 4.90997C215.31 4.24997 215.07 3.55997 214.61 2.85997L214.78 2.76997C215.45 3.04997 215.92 3.40997 216.18 3.82997C216.4 4.17997 216.45 4.49997 216.34 4.80997C216.24 5.08997 216.05 5.22997 215.79 5.21997C215.7 5.39997 215.51 5.45997 215.22 5.38997C214.75 5.86997 214.25 6.32997 213.74 6.74997C214.04 6.99997 214.22 7.27998 214.26 7.56998C214.3 7.83998 214.23 8.04997 214.04 8.18997L214.05 8.17996ZM219.96 5.42996C219.77 5.59996 219.52 5.58997 219.23 5.40997C219.1 4.96997 218.83 4.46997 218.41 3.90997C218.05 3.44997 217.66 3.01996 217.23 2.61996L217.37 2.48997C218.23 2.74997 218.91 3.09997 219.41 3.51997C219.82 3.87997 220.07 4.25997 220.15 4.65997C220.22 5.00997 220.16 5.26996 219.97 5.42996H219.96Z" fill="white"/>
<path d="M223.56 13.92C223.47 13.92 223.38 13.89 223.31 13.83C223.24 13.77 223.2 13.69 223.2 13.61C223.29 12.25 223.35 10.88 223.37 9.50996V5.16997C223.37 3.83997 223.3 2.76996 223.16 1.92996L224.45 2.52997H227.05L227.3 2.20998C227.3 2.20998 227.35 2.14998 227.39 2.09998C227.51 1.95998 227.6 1.88997 227.66 1.88997C227.76 1.88997 227.99 2.01996 228.33 2.28996C228.67 2.55996 228.84 2.74996 228.84 2.86996C228.73 3.00996 228.52 3.10997 228.19 3.18997V9.07997C228.21 10.38 228.25 11.62 228.32 12.79C228.25 12.9 228.11 13 227.91 13.09C227.7 13.2 227.51 13.25 227.34 13.25C227.2 13.25 227.13 13.14 227.13 12.93C227.14 12.87 227.15 12.78 227.16 12.68C227.17 12.6 227.18 12.52 227.19 12.46V12.05H224.35V12.54C224.36 12.65 224.37 12.78 224.37 12.93C224.39 13.16 224.41 13.33 224.42 13.44C224.39 13.56 224.29 13.67 224.12 13.77C223.94 13.88 223.75 13.93 223.54 13.93L223.56 13.92ZM224.38 6.98997H225.34V2.99997H224.38V6.98997ZM224.38 11.6H225.34V7.42996H224.38V11.6ZM226.24 6.98997H227.22V2.99997H226.24V6.98997ZM226.24 11.6H227.22V7.42996H226.24V11.6ZM232.02 15.53C231.9 15.53 231.81 15.5 231.75 15.44C231.69 15.38 231.66 15.3 231.66 15.2C231.72 14.24 231.76 13.28 231.79 12.33V10.72H230.73C230.1 10.73 229.45 10.8 228.77 10.94L228.38 10.14C228.96 10.2 229.66 10.25 230.48 10.27H231.79V7.17996H230.91C230.41 7.18996 229.87 7.25996 229.3 7.39996L228.91 6.60997C229.45 6.66997 230.1 6.71997 230.87 6.73997H231.8V4.13997C231.8 2.80997 231.73 1.73996 231.59 0.899963C232.46 1.12996 233.01 1.30997 233.22 1.43997C233.38 1.52997 233.38 1.62997 233.22 1.73997L232.97 1.90997V6.73997H234.33L234.65 6.24997C234.65 6.24997 234.72 6.14997 234.78 6.07997C234.92 5.86997 235.02 5.75996 235.08 5.75996C235.18 5.75996 235.42 5.92997 235.77 6.26997C236.13 6.60997 236.31 6.82997 236.31 6.94997C236.27 7.10997 236.13 7.18997 235.9 7.18997H232.98V10.28H234.72L235.07 9.76997C235.07 9.76997 235.12 9.69997 235.16 9.63997C235.34 9.38997 235.46 9.25996 235.54 9.25996C235.65 9.25996 235.9 9.42997 236.29 9.77997C236.68 10.13 236.88 10.36 236.88 10.47C236.85 10.64 236.72 10.72 236.49 10.72H232.99V12.17C233.02 13.39 233.06 14.32 233.1 14.96C233.05 15.09 232.91 15.21 232.69 15.34C232.47 15.47 232.26 15.53 232.06 15.53H232.02ZM228.75 6.37997L228.51 6.21997C228.69 5.87997 228.84 5.56996 228.95 5.28996C229.15 4.79996 229.33 4.23996 229.49 3.61996C229.65 2.96996 229.73 2.42997 229.74 1.98997L230.75 2.37997C231.48 2.53997 231.65 2.68998 231.29 2.81998L231.02 2.92996C230.34 4.41996 229.58 5.56996 228.75 6.36996V6.37997ZM236.23 5.84998C236.01 6.00998 235.75 5.97997 235.46 5.74997C235.23 4.77997 234.58 3.63998 233.52 2.31998L233.68 2.20998C234.57 2.62998 235.27 3.11997 235.78 3.65997C236.19 4.10997 236.43 4.56997 236.49 5.01997C236.54 5.40997 236.46 5.68998 236.24 5.84998H236.23Z" fill="white"/>
<path d="M241.12 15.5C241.01 15.5 240.92 15.47 240.84 15.41C240.76 15.35 240.72 15.27 240.72 15.19C240.81 13.83 240.87 12.46 240.89 11.09V6.88997C240.33 7.72997 239.73 8.45997 239.08 9.07997L238.87 8.93997C239.7 7.68997 240.46 6.10997 241.16 4.21997C241.35 3.70997 241.52 3.13997 241.68 2.47997C241.84 1.80997 241.93 1.24998 241.96 0.819977C242.86 1.09998 243.43 1.31997 243.66 1.46997C243.83 1.57997 243.83 1.65997 243.66 1.73997L243.38 1.86996C242.97 3.02996 242.48 4.13997 241.91 5.21997L242.53 5.46997C242.48 5.61997 242.33 5.70997 242.09 5.73997V11.33C242.11 12.63 242.15 13.87 242.22 15.04C242.14 15.14 241.99 15.25 241.79 15.34C241.55 15.46 241.32 15.51 241.11 15.51L241.12 15.5ZM242.4 15.5L242.29 15.26C244.12 14.61 245.43 13.72 246.22 12.59C245.79 12.01 245.43 11.34 245.13 10.59C244.73 11.24 244.42 11.71 244.21 11.98C244.27 12.13 244.24 12.25 244.1 12.34L243.42 11.25C244.1 10.84 244.65 10.49 245.05 10.19L245.22 9.55997L245.76 9.83997L245.3 10.31L245.28 10.33C245.61 10.94 246.03 11.49 246.56 11.97C246.98 11.17 247.22 10.19 247.27 9.01997H244.9V9.52997C244.9 9.58997 244.79 9.66997 244.57 9.76997C244.34 9.87997 244.11 9.92996 243.89 9.92996C243.71 9.92996 243.62 9.81997 243.62 9.60997C243.66 9.23997 243.69 8.76998 243.71 8.20998V7.33997C243.71 6.25997 243.66 5.36997 243.55 4.66997L244.97 5.31998H247.27V3.59998H245.88C245.13 3.60998 244.34 3.67998 243.51 3.81998L243.1 3.01997C243.68 3.07997 244.38 3.12996 245.2 3.14996H247.27C247.27 2.26996 247.22 1.51997 247.13 0.909973C247.99 1.13997 248.52 1.31997 248.72 1.44997C248.88 1.55997 248.88 1.65997 248.72 1.76997L248.45 1.93997V3.15997H250.77L251.13 2.63997C251.13 2.63997 251.18 2.55997 251.22 2.49997C251.4 2.23997 251.52 2.10997 251.6 2.10997C251.71 2.10997 251.97 2.28996 252.38 2.64996C252.79 3.00996 253 3.24996 253 3.36996C252.97 3.53996 252.84 3.61996 252.61 3.61996H248.44V5.33997H250.68L250.95 4.92996C250.95 4.92996 251 4.85997 251.03 4.79997C251.17 4.59997 251.27 4.49997 251.33 4.49997C251.43 4.49997 251.68 4.66996 252.07 5.00996C252.46 5.34996 252.65 5.56997 252.65 5.68997C252.54 5.82997 252.33 5.92996 252 6.00996V7.18997C252.02 8.14997 252.05 8.89997 252.09 9.44997C252.04 9.53997 251.89 9.63997 251.65 9.73997C251.41 9.83997 251.2 9.88997 251.02 9.88997C250.84 9.88997 250.75 9.77998 250.75 9.56998C250.76 9.53998 250.78 9.48996 250.8 9.42996C250.8 9.39996 250.8 9.36997 250.82 9.33997V9.05997H248.42C248.36 10.51 248 11.7 247.35 12.61C248.78 13.52 250.72 14.01 253.17 14.09V14.26C252.91 14.34 252.69 14.5 252.51 14.72C252.33 14.94 252.22 15.2 252.18 15.51C249.78 15.19 247.98 14.46 246.78 13.3C245.83 14.28 244.36 15.02 242.36 15.53L242.4 15.5ZM244.91 8.58997H247.29V5.75996H244.91V8.58997ZM248.48 8.58997H250.86V5.75996H248.48V8.58997Z" fill="white"/>
<path d="M255.16 6.26999L254.97 6.10999C255.53 5.51999 256.1 4.73998 256.67 3.75998C257.3 2.66998 257.68 1.67998 257.81 0.789978C258.63 1.11998 259.15 1.34998 259.37 1.49998C259.53 1.61998 259.54 1.70999 259.42 1.76999L259.21 1.85999C259.98 2.10999 260.56 2.41998 260.95 2.77998C261.26 3.08998 261.41 3.38998 261.41 3.67998C261.4 3.94998 261.28 4.13999 261.06 4.23999C260.83 4.33999 260.61 4.29998 260.39 4.11998C260.06 3.37998 259.57 2.68998 258.92 2.03998C258.43 2.90998 257.8 3.75999 257.06 4.57999H258.75L259.03 4.16998C259.03 4.16998 259.08 4.10998 259.11 4.05998C259.26 3.85998 259.37 3.75998 259.44 3.75998C259.54 3.75998 259.76 3.89999 260.08 4.18999C260.4 4.47999 260.56 4.67999 260.56 4.79999C260.52 4.96999 260.39 5.04999 260.17 5.04999H257.12L257.03 4.61998C256.37 5.32998 255.75 5.86998 255.17 6.25998L255.16 6.26999ZM256.39 15.57C256.31 15.57 256.23 15.54 256.15 15.48C256.07 15.42 256.04 15.34 256.04 15.26C256.13 13.9 256.19 12.53 256.21 11.16V8.77998C256.21 7.44998 256.14 6.37998 256 5.53998L257.37 6.16998H259.74L259.98 5.88998C259.98 5.88998 260.03 5.83999 260.06 5.79999C260.18 5.65999 260.27 5.58998 260.33 5.58998C260.44 5.58998 260.65 5.70999 260.96 5.95999C261.28 6.20999 261.43 6.38998 261.43 6.49998C261.36 6.63998 261.19 6.71998 260.94 6.74998V7.91998C260.96 8.87998 260.99 9.61998 261.03 10.15C260.98 10.24 260.84 10.34 260.63 10.45C260.41 10.56 260.22 10.61 260.04 10.61H259.87V10.09H257.3V11.54H259.42L259.72 11.11C259.72 11.11 259.77 11.04 259.81 10.98C259.96 10.78 260.06 10.68 260.13 10.68C260.23 10.68 260.46 10.83 260.79 11.12C261.13 11.41 261.29 11.62 261.29 11.74C261.25 11.9 261.11 11.98 260.88 11.98H257.3V13.45H259.57L259.87 13.01C259.87 13.01 259.92 12.93 259.96 12.87C260.11 12.66 260.21 12.55 260.28 12.55C260.39 12.55 260.61 12.71 260.96 13.02C261.31 13.33 261.48 13.54 261.48 13.66C261.44 13.83 261.31 13.91 261.09 13.91H257.3V14.34C257.31 14.43 257.32 14.55 257.32 14.67C257.34 14.86 257.36 15 257.37 15.08C257.34 15.2 257.23 15.31 257.05 15.41C256.85 15.53 256.63 15.58 256.39 15.58V15.57ZM257.31 7.89998H259.88V6.63998H257.31V7.89998ZM257.31 9.59999H259.88V8.34999H257.31V9.59999ZM261.32 4.79999C261.24 4.63999 261.23 4.46998 261.29 4.28998C261.35 4.11998 261.47 3.97999 261.64 3.85999C261.83 3.68999 262 3.43999 262.14 3.09999C262.3 2.72999 262.37 2.39998 262.36 2.08998L262.61 2.10999C262.7 2.48999 262.75 2.77999 262.75 2.98999H264.49C264.49 2.10999 264.45 1.40999 264.36 0.909988C265.19 1.12999 265.71 1.29998 265.92 1.42998C266.07 1.50998 266.07 1.60999 265.94 1.70999L265.72 1.86998V2.98999H267.54L267.86 2.62999C267.86 2.62999 267.93 2.54999 267.99 2.48999C268.13 2.33999 268.23 2.26999 268.29 2.26999C268.38 2.26999 268.61 2.44998 268.96 2.80998C269.31 3.16998 269.49 3.39999 269.49 3.51999C269.41 3.59999 269.22 3.65999 268.92 3.68999C268.89 3.71999 268.84 3.75999 268.78 3.81999C268.23 4.32999 267.84 4.65998 267.6 4.80998L267.41 4.71999C267.42 4.65999 267.44 4.54998 267.47 4.39998C267.55 3.96998 267.61 3.64998 267.64 3.44998H262.78C262.77 4.05998 262.63 4.51998 262.37 4.83998C262.21 4.98998 262.03 5.05998 261.82 5.05998C261.58 5.06998 261.41 4.97998 261.33 4.78998L261.32 4.79999ZM262.68 15.52C262.59 15.52 262.5 15.49 262.43 15.43C262.36 15.37 262.32 15.29 262.32 15.21C262.41 13.85 262.47 12.48 262.49 11.11V7.83998C262.49 6.50998 262.42 5.43999 262.28 4.59999L263.65 5.22998H266.6L266.87 4.84999C266.87 4.84999 266.91 4.79998 266.93 4.75998C267.07 4.56998 267.17 4.47998 267.25 4.47998C267.35 4.47998 267.58 4.63998 267.94 4.94998C268.29 5.25998 268.47 5.46998 268.47 5.58998C268.36 5.72998 268.18 5.81998 267.9 5.86998V6.95999C267.92 7.84999 267.95 8.54998 267.99 9.03998C267.93 9.12998 267.78 9.22999 267.54 9.31999C267.3 9.40999 267.1 9.44998 266.92 9.44998H266.75V8.70999H263.58V10.41H267.04L267.29 10.09C267.29 10.09 267.34 10.03 267.38 9.97998C267.51 9.82998 267.6 9.75998 267.66 9.75998C267.76 9.75998 267.99 9.89998 268.35 10.17C268.7 10.44 268.88 10.64 268.88 10.75C268.81 10.88 268.62 10.98 268.33 11.05V12.34C268.35 13.39 268.38 14.22 268.42 14.83C268.36 14.92 268.21 15.02 267.98 15.13C267.74 15.23 267.53 15.29 267.35 15.29C267.19 15.29 267.11 15.18 267.11 14.97C267.12 14.92 267.13 14.84 267.14 14.75C267.15 14.68 267.16 14.61 267.17 14.56V14.18H263.57V14.48C263.58 14.56 263.59 14.66 263.59 14.78C263.6 14.89 263.61 14.96 263.62 15C263.6 15.12 263.49 15.23 263.3 15.33C263.1 15.45 262.89 15.5 262.67 15.5L262.68 15.52ZM263.58 8.25998H266.75V5.68999H263.58V8.25998ZM263.58 13.74H267.18V10.87H263.58V13.74Z" fill="white"/>
<path d="M274.06 15.5C273.97 15.5 273.88 15.47 273.81 15.41C273.74 15.35 273.7 15.27 273.7 15.19C273.7 15.13 273.7 15.04 273.72 14.94C273.79 13.84 273.84 12.73 273.86 11.63V9.66998C273.3 9.95998 272.77 10.24 272.25 10.49C272.19 10.7 272.08 10.84 271.92 10.9L271.24 9.34999C271.78 9.21999 272.65 8.97999 273.86 8.60999V5.21999H272.71C272.38 6.20999 272.01 6.99999 271.59 7.59999L271.35 7.46999C271.55 6.82999 271.71 6.13998 271.84 5.39998C271.93 4.86998 272 4.28998 272.05 3.64998C272.08 2.98998 272.07 2.43998 272.02 2.00998C272.85 2.17998 273.37 2.31998 273.57 2.41998C273.73 2.49998 273.72 2.58998 273.55 2.66998L273.28 2.80998C273.17 3.46998 273.03 4.11998 272.85 4.74998H273.86V4.09999C273.86 2.76999 273.79 1.69999 273.65 0.859985C274.51 1.08999 275.05 1.26998 275.26 1.39998C275.41 1.50998 275.4 1.60999 275.24 1.71999L274.97 1.88998V4.74998H275.32L275.65 4.20999C275.65 4.20999 275.72 4.10998 275.78 4.03998C275.94 3.79998 276.05 3.67998 276.11 3.67998C276.2 3.67998 276.44 3.85998 276.82 4.22998C277.2 4.59998 277.39 4.83999 277.39 4.95999C277.35 5.12999 277.22 5.20999 276.99 5.20999H274.97V8.25998C275.21 8.17998 275.59 8.04998 276.09 7.88998C276.59 7.72998 276.97 7.59999 277.23 7.51999L277.31 7.73999C277.22 7.78999 277.07 7.87999 276.87 7.98999C276.09 8.43999 275.46 8.79998 274.98 9.05998V11.24C275 12.54 275.04 13.78 275.11 14.95C275.05 15.09 274.92 15.21 274.72 15.33C274.5 15.45 274.28 15.5 274.07 15.5H274.06ZM276.4 6.84999L275.99 6.03998C276.57 6.09998 277.27 6.14998 278.09 6.16998H279.92V3.75998H278.94C278.38 3.76998 277.8 3.83998 277.2 3.97998L276.81 3.17998C277.39 3.23998 278.09 3.28998 278.91 3.30998H279.92C279.92 2.35998 279.87 1.56998 279.78 0.929977C280.65 1.14998 281.2 1.32999 281.41 1.46999C281.56 1.55999 281.55 1.65999 281.39 1.76999L281.12 1.93999V3.30998H282.7L283.05 2.78998C283.05 2.78998 283.13 2.68999 283.19 2.59999C283.34 2.37999 283.44 2.26999 283.51 2.26999C283.61 2.26999 283.86 2.44998 284.24 2.80998C284.62 3.16998 284.82 3.39999 284.82 3.51999C284.78 3.68999 284.64 3.76999 284.41 3.76999H281.13V6.17998H283.37L283.72 5.63998C283.72 5.63998 283.8 5.52998 283.86 5.42998C284.01 5.19998 284.11 5.07999 284.18 5.07999C284.28 5.07999 284.54 5.26998 284.94 5.63998C285.34 6.00998 285.54 6.25998 285.54 6.36998C285.5 6.53998 285.36 6.61998 285.13 6.61998H278.79C278.04 6.62998 277.25 6.69998 276.42 6.83998L276.4 6.84999ZM281.21 15.5C281.16 15.08 281.03 14.78 280.82 14.62C280.57 14.42 280.08 14.27 279.37 14.16V13.91C280.1 13.95 280.82 14 281.53 14.05C281.77 14.05 281.89 13.95 281.89 13.73V9.27998H278.81C278.06 9.28998 277.27 9.35998 276.44 9.49998L276.05 8.67998C276.63 8.73998 277.33 8.78998 278.15 8.80998H281.89C281.89 7.92998 281.85 7.22998 281.76 6.72998C282.61 6.95998 283.14 7.13999 283.34 7.26999C283.5 7.35999 283.5 7.45999 283.34 7.54999L283.09 7.70999V8.80998H283.5L283.82 8.29999C283.82 8.29999 283.88 8.21998 283.93 8.13998C284.09 7.89998 284.2 7.77998 284.26 7.77998C284.35 7.77998 284.58 7.95999 284.94 8.31999C285.3 8.67999 285.48 8.90998 285.48 9.02998C285.45 9.19998 285.32 9.27998 285.1 9.27998H283.1V13.81C283.1 14.35 282.99 14.73 282.78 14.96C282.51 15.24 281.99 15.42 281.22 15.5H281.21ZM279.69 12.7C279.45 12.85 279.19 12.82 278.89 12.6C278.79 12.18 278.56 11.71 278.23 11.18C277.95 10.73 277.63 10.31 277.28 9.92998L277.42 9.79999C278.27 10.04 278.92 10.38 279.38 10.81C279.76 11.17 279.97 11.54 280.01 11.93C280.03 12.29 279.92 12.54 279.69 12.7Z" fill="white"/>
<path d="M288.71 15.55C288.62 15.55 288.53 15.52 288.46 15.46C288.39 15.4 288.35 15.32 288.35 15.24C288.44 13.88 288.5 12.51 288.52 11.14V4.77995C288.52 3.44995 288.45 2.37995 288.31 1.53995L289.9 2.24995H298.68L299.04 1.72995C299.04 1.72995 299.12 1.62995 299.18 1.53995C299.35 1.31995 299.46 1.20996 299.53 1.20996C299.64 1.20996 299.9 1.38995 300.31 1.74995C300.73 2.10995 300.93 2.33996 300.93 2.45996C300.89 2.61996 300.75 2.69995 300.52 2.69995H289.71V13.99H299.21L299.59 13.45C299.59 13.45 299.66 13.35 299.72 13.28C299.9 13.04 300.02 12.92 300.08 12.92C300.18 12.92 300.45 13.1 300.88 13.47C301.31 13.84 301.53 14.08 301.53 14.2C301.5 14.37 301.37 14.45 301.15 14.45H289.71V15.14C289.71 15.2 289.62 15.29 289.44 15.39C289.22 15.51 288.97 15.56 288.7 15.56L288.71 15.55ZM290.97 13.28C290.91 13.28 290.85 13.25 290.8 13.19C290.75 13.13 290.73 13.05 290.73 12.97C290.77 12.6 290.8 12.13 290.82 11.57V10.7C290.82 9.60995 290.77 8.71996 290.66 8.04996L291.94 8.62996H293.57L293.81 8.29996C293.81 8.29996 293.84 8.24996 293.87 8.20996C293.99 8.03996 294.08 7.95996 294.15 7.95996C294.25 7.95996 294.46 8.08995 294.77 8.35995C295.08 8.62995 295.24 8.81996 295.24 8.93996C295.15 9.06996 294.98 9.15996 294.74 9.20996V10.36C294.76 11.32 294.79 12.06 294.83 12.59C294.78 12.67 294.64 12.76 294.42 12.86C294.2 12.95 294 13 293.84 13C293.7 13 293.63 12.8899 293.63 12.6799C293.64 12.6599 293.65 12.62 293.65 12.58C293.65 12.54 293.66 12.49 293.67 12.46V12.19H291.87V12.9299C291.87 12.9899 291.78 13.0699 291.59 13.1499C291.38 13.2399 291.17 13.2899 290.96 13.2899L290.97 13.28ZM291.89 11.7299H293.69V9.05995H291.89V11.7299ZM292.71 7.92995C292.54 7.92995 292.46 7.81995 292.46 7.60995C292.48 7.40995 292.5 7.13995 292.52 6.80995C292.52 6.64995 292.52 6.51995 292.54 6.41995V5.64995C292.54 4.70995 292.49 3.91995 292.4 3.27995L293.79 3.90996H296.76L297.03 3.52995C297.03 3.52995 297.07 3.47996 297.09 3.43996C297.23 3.24996 297.33 3.15996 297.41 3.15996C297.51 3.15996 297.74 3.30995 298.1 3.61995C298.45 3.92995 298.63 4.13995 298.63 4.24995C298.51 4.38995 298.33 4.48996 298.08 4.54996V5.50995C298.08 5.65995 298.08 5.84995 298.1 6.08995C298.12 6.62995 298.14 7.03996 298.16 7.31996C298.11 7.39996 297.96 7.49996 297.72 7.59996C297.48 7.69996 297.26 7.74995 297.07 7.74995H296.9V7.05995H293.73V7.56996C293.73 7.61996 293.63 7.69995 293.41 7.78995C293.18 7.89995 292.95 7.94995 292.73 7.94995L292.71 7.92995ZM293.7 6.58995H296.87V4.34996H293.7V6.58995ZM295.93 13.06C295.78 13.06 295.71 12.96 295.71 12.74C295.73 12.52 295.75 12.22 295.77 11.84C295.78 11.66 295.79 11.52 295.79 11.41V10.57C295.79 9.53996 295.74 8.68995 295.63 8.02995L296.91 8.60995H298.57L298.82 8.24995C298.82 8.24995 298.87 8.18995 298.91 8.13995C299.04 7.96995 299.13 7.88995 299.19 7.88995C299.29 7.88995 299.51 8.02996 299.85 8.31996C300.18 8.60996 300.35 8.80995 300.35 8.92995C300.23 9.06995 300.05 9.15996 299.8 9.20996V10.33C299.82 11.24 299.85 11.9499 299.89 12.4799C299.84 12.5699 299.7 12.6699 299.48 12.7599C299.26 12.8499 299.06 12.8999 298.88 12.8999H298.71V12.16H296.85V12.7C296.85 12.76 296.76 12.84 296.57 12.92C296.36 13 296.15 13.05 295.94 13.05L295.93 13.06ZM296.85 11.7299H298.71V9.05995H296.85V11.7299Z" fill="white"/>
<path d="M13.19 43.94C11.73 43.5 10.57 42.89 9.72 42.12C8.8 41.29 8.13 40.18 7.68 38.81H6.07V41.97C7.19 41.8 8.18 41.64 9.05 41.5L9.08 41.75C7.21 42.42 5.38 43.03 3.6 43.58C3.52 43.78 3.41 43.9 3.27 43.93L2.51 42.48C2.77 42.46 3.32 42.39 4.15 42.27C4.47 42.22 4.71 42.18 4.89 42.16V38.81H2.7C2.26 40.92 1.43 42.62 0.209996 43.89L-3.8147e-06 43.75C0.739996 42.46 1.25 40.9 1.53 39.08C1.72 37.8 1.81 36.15 1.81 34.14V31.93C1.81 31.04 1.76 30.27 1.67 29.64L3.26 30.32H11.45L11.73 29.96C11.73 29.96 11.78 29.9 11.82 29.85C11.97 29.68 12.07 29.6 12.14 29.6C12.24 29.6 12.49 29.75 12.88 30.06C13.27 30.37 13.46 30.58 13.46 30.69C13.35 30.84 13.14 30.94 12.83 31.01V31.89C12.83 32.03 12.83 32.21 12.85 32.43C12.87 32.92 12.89 33.3 12.91 33.55C12.87 33.64 12.72 33.74 12.47 33.83C12.22 33.92 11.99 33.97 11.79 33.97H11.6V33.42H3.07V34.15C3.07 34.81 3.06 35.32 3.04 35.67H5.55C5.55 34.84 5.51 34.18 5.42 33.68C6.22 33.9 6.72 34.07 6.92 34.2C7.07 34.29 7.07 34.38 6.94 34.47L6.7 34.61V35.67H9.26C9.26 34.85 9.22 34.19 9.13 33.7C9.93 33.92 10.43 34.09 10.63 34.22C10.78 34.31 10.78 34.41 10.65 34.5L10.41 34.64V35.67H11.7L12.02 35.2C12.02 35.2 12.08 35.12 12.13 35.06C12.29 34.83 12.4 34.71 12.46 34.71C12.57 34.71 12.8 34.88 13.18 35.21C13.55 35.54 13.74 35.77 13.74 35.88C13.7 36.05 13.56 36.13 13.33 36.13H10.41V38.39H12.05L12.37 37.9C12.37 37.9 12.42 37.83 12.45 37.77C12.62 37.52 12.74 37.39 12.81 37.39C12.91 37.39 13.15 37.56 13.53 37.9C13.9 38.24 14.09 38.47 14.09 38.59C14.06 38.75 13.93 38.83 13.7 38.83H8.02C8.38 39.61 8.91 40.28 9.61 40.85C10.57 40.18 11.32 39.49 11.88 38.8C12.5 39.31 12.88 39.65 13.02 39.83C13.12 39.98 13.09 40.05 12.93 40.05H12.65C11.86 40.41 10.95 40.76 9.92 41.09C10.97 41.84 12.4 42.36 14.2 42.67L14.18 42.86C13.67 42.98 13.35 43.34 13.2 43.96L13.19 43.94ZM2.77 38.37H5.55V36.11H3.07L3.04 35.97C2.99 36.84 2.9 37.64 2.77 38.37ZM3.07 32.96H11.62V30.78H3.07V32.96ZM6.7 38.37H9.26V36.11H6.7V38.37Z" fill="white"/>
<path d="M16.58 43.53L16.17 42.73C16.75 42.79 17.45 42.83 18.27 42.86H19.49V36.63C19.49 35.3 19.42 34.23 19.28 33.39L20.83 34.04H25.71L25.98 33.6C25.98 33.6 26.05 33.5 26.09 33.43C26.22 33.24 26.31 33.15 26.37 33.15C26.47 33.15 26.74 33.33 27.16 33.68C27.58 34.03 27.79 34.27 27.79 34.38C27.66 34.54 27.43 34.64 27.1 34.68V42.87H28.03L28.39 42.3C28.39 42.3 28.44 42.22 28.48 42.16C28.66 41.88 28.79 41.73 28.86 41.73C28.96 41.73 29.23 41.92 29.65 42.31C30.07 42.7 30.28 42.95 30.28 43.07C30.25 43.24 30.12 43.32 29.89 43.32H18.95C18.2 43.33 17.41 43.4 16.58 43.54V43.53ZM16.99 34.47C16.74 34.46 16.56 34.35 16.47 34.14C16.32 33.78 16.46 33.46 16.88 33.16C17.23 32.96 17.51 32.63 17.73 32.18C17.98 31.7 18.09 31.19 18.06 30.65L18.31 30.63C18.41 30.94 18.48 31.24 18.52 31.55H22.54C22.54 30.66 22.49 29.9 22.4 29.29C23.28 29.51 23.84 29.68 24.06 29.81C24.22 29.9 24.22 30 24.06 30.11L23.81 30.28V31.54H28.34L28.66 31.18C28.66 31.18 28.72 31.11 28.77 31.05C28.92 30.88 29.02 30.8 29.09 30.8C29.18 30.8 29.41 30.98 29.78 31.35C30.14 31.72 30.32 31.96 30.32 32.08C30.24 32.16 30.05 32.22 29.75 32.25C29.12 32.92 28.47 33.48 27.79 33.92L27.6 33.79C27.87 33.26 28.13 32.67 28.36 32.01H18.56C18.57 32.53 18.49 32.99 18.31 33.41C18.16 33.76 17.96 34.03 17.71 34.22C17.49 34.39 17.25 34.47 17 34.46L16.99 34.47ZM20.67 36.92H25.88V34.49H20.67V36.92ZM20.67 39.82H25.88V37.37H20.67V39.82ZM20.67 42.85H25.88V40.26H20.67V42.85Z" fill="white"/>
<path d="M32.45 43.93L32.32 43.71C33.4 42.82 34.22 41.63 34.77 40.14C34.46 39.54 34.18 38.75 33.92 37.76C33.87 37.85 33.79 38 33.68 38.2C33.4 38.75 33.2 39.11 33.1 39.29C33.18 39.43 33.18 39.55 33.08 39.67L32.29 38.83C32.79 38.39 33.29 37.89 33.79 37.33L33.93 36.65L34.47 36.84L34.08 37.42C34.31 38.2 34.61 38.91 34.98 39.55C35.31 38.51 35.53 37.22 35.66 35.7H34.24L33.84 36.5C33.53 36.61 33.17 36.57 32.74 36.39C33.52 34.78 34.29 33.03 35.04 31.13H34.24C33.77 31.14 33.28 31.21 32.79 31.35L32.36 30.56C32.86 30.62 33.48 30.67 34.19 30.69H35.06L35.33 30.3C35.33 30.3 35.4 30.22 35.44 30.16C35.57 29.99 35.66 29.91 35.72 29.91C35.81 29.91 36.04 30.09 36.4 30.44C36.76 30.79 36.94 31.03 36.94 31.14C36.82 31.26 36.58 31.34 36.21 31.39C35.8 32.36 35.21 33.65 34.44 35.26H35.56L35.84 34.91C35.84 34.91 35.89 34.85 35.93 34.8C36.08 34.63 36.18 34.55 36.25 34.55C36.35 34.55 36.57 34.7 36.91 35.01C37.24 35.32 37.41 35.53 37.41 35.64C37.34 35.76 37.16 35.83 36.87 35.88C36.63 37.78 36.22 39.32 35.64 40.49C36.3 41.25 37.19 41.77 38.31 42.05C39.23 42.28 40.55 42.4 42.27 42.4C44.38 42.4 45.8 42.39 46.52 42.37V42.59C46.3 42.63 46.12 42.75 45.98 42.94C45.86 43.12 45.8 43.33 45.77 43.59H42.19C40.41 43.59 39.03 43.43 38.04 43.1C36.9 42.72 36 42.05 35.33 41.08C34.64 42.26 33.68 43.21 32.46 43.94L32.45 43.93ZM40.59 42.02C40.38 42.02 40.27 41.92 40.27 41.7C40.29 41.52 40.31 41.27 40.33 40.96C40.34 40.81 40.35 40.7 40.35 40.61V39.9H39.15C38.43 39.91 37.69 39.98 36.91 40.12L36.5 39.32C37.08 39.38 37.78 39.43 38.6 39.45H40.35V37.78H39.32C38.73 37.79 38.12 37.86 37.49 38L37.08 37.2C37.66 37.26 38.36 37.31 39.18 37.33H40.35V35.7H39.4C38.86 35.71 38.3 35.78 37.7 35.92L37.27 35.13C37.85 35.19 38.54 35.24 39.35 35.26H40.34V33.62H39.03C38.28 33.63 37.49 33.7 36.66 33.84L36.25 33.04C36.83 33.1 37.53 33.15 38.35 33.17H40.34V31.56H39.41C38.87 31.57 38.32 31.64 37.74 31.78L37.31 30.96C37.88 31.02 38.56 31.07 39.36 31.09H40.34C40.34 30.36 40.3 29.77 40.23 29.32C41.07 29.55 41.59 29.73 41.79 29.86C41.94 29.97 41.93 30.07 41.77 30.18L41.5 30.35V31.09H43.36L43.63 30.71C43.63 30.71 43.68 30.64 43.72 30.58C43.86 30.41 43.96 30.33 44.02 30.33C44.12 30.33 44.36 30.49 44.72 30.8C45.08 31.12 45.26 31.33 45.26 31.45C45.16 31.6 44.95 31.7 44.64 31.77V33.17H44.83L45.11 32.68C45.11 32.68 45.18 32.58 45.22 32.51C45.35 32.3 45.44 32.19 45.5 32.19C45.59 32.19 45.8 32.36 46.12 32.7C46.44 33.04 46.6 33.26 46.6 33.38C46.57 33.55 46.44 33.63 46.21 33.63H44.63V34.39C44.63 34.51 44.63 34.66 44.65 34.85C44.67 35.27 44.69 35.59 44.71 35.8C44.66 35.89 44.52 35.99 44.29 36.09C44.06 36.19 43.86 36.24 43.67 36.24H43.48V35.72H41.48V37.35H43.5L43.82 36.88C43.82 36.88 43.87 36.81 43.9 36.75C44.07 36.52 44.19 36.4 44.26 36.4C44.36 36.4 44.6 36.56 44.97 36.89C45.34 37.22 45.52 37.44 45.52 37.55C45.49 37.72 45.36 37.8 45.13 37.8H41.48V39.47H43.89L44.25 38.96C44.25 38.96 44.32 38.88 44.36 38.8C44.54 38.56 44.66 38.44 44.72 38.44C44.82 38.44 45.09 38.62 45.5 38.97C45.92 39.32 46.12 39.56 46.12 39.67C46.08 39.84 45.94 39.92 45.71 39.92H41.46V40.5C41.47 40.63 41.48 40.78 41.48 40.97C41.5 41.23 41.52 41.43 41.53 41.57C41.5 41.69 41.38 41.79 41.18 41.89C40.97 41.98 40.76 42.03 40.54 42.03L40.59 42.02ZM41.52 33.15H43.52V31.54H41.52V33.15ZM41.52 35.25H43.52V33.61H41.52V35.25Z" fill="white"/>
<path d="M55.19 43.94C54.98 43.94 54.87 43.8299 54.87 43.6199C54.91 43.1399 54.95 42.48 54.98 41.66V40.5099C53.52 41.9599 51.4 43.03 48.63 43.71L48.52 43.46C50.8 42.6 52.56 41.43 53.79 39.97H51.45C50.7 39.98 49.91 40.05 49.08 40.19L48.67 39.39C49.25 39.45 49.95 39.5 50.77 39.52H54.97V38.13C54.38 38.4 53.68 38.6199 52.85 38.7899L52.69 38.5399C53.57 38.2999 54.26 37.97 54.76 37.55C55.23 37.15 55.57 36.65 55.77 36.03H55.19C54.86 36.04 54.53 36.11 54.18 36.25L53.77 35.45C54.17 35.51 54.65 35.56 55.22 35.58H55.9C56 35.12 56.07 34.59 56.11 33.99H55.61C55.35 34 55.08 34.07 54.82 34.21L54.41 33.42C54.99 33.48 55.69 33.53 56.51 33.55H59.1L59.26 33.36C59.06 33.4 58.87 33.34 58.68 33.19C58.64 32.68 58.41 32.15 58 31.58H56.99C56.37 32.3 55.7 32.86 54.99 33.28L54.8 33.07C55.05 32.8 55.26 32.54 55.43 32.31C55.72 31.9 56.01 31.3799 56.28 30.7599C56.53 30.1699 56.7 29.65 56.79 29.2C57.59 29.52 58.08 29.74 58.27 29.88C58.42 30 58.41 30.08 58.24 30.13L57.96 30.22C57.76 30.55 57.56 30.84 57.36 31.1H60.47L60.8 30.63C60.8 30.63 60.86 30.55 60.91 30.49C61.07 30.26 61.18 30.14 61.24 30.14C61.35 30.14 61.59 30.31 61.98 30.64C62.37 30.97 62.56 31.2 62.56 31.31C62.52 31.48 62.39 31.56 62.18 31.56H58.87C59.21 31.74 59.45 31.96 59.6 32.22C59.73 32.44 59.77 32.6599 59.73 32.8699C60.27 33.3099 60.59 33.6199 60.71 33.7899C60.79 33.9299 60.77 34.02 60.63 34.06L60.39 34.1199V36.91C60.39 36.99 60.41 37.05 60.44 37.07C60.47 37.09 60.54 37.1 60.65 37.1H61.5C61.58 37.1 61.65 37.06 61.71 36.97C61.77 36.86 61.89 36.45 62.06 35.74C62.09 35.62 62.11 35.53 62.12 35.47H62.31L62.36 37C62.59 37.09 62.71 37.25 62.71 37.47C62.71 37.71 62.58 37.89 62.33 37.99C62.07 38.11 61.62 38.16 61 38.16H60.29C59.85 38.16 59.56 38.08 59.44 37.92C59.32 37.79 59.27 37.53 59.27 37.13V35.8C59.23 35.94 59.1 36.0099 58.89 36.0099H56.95C56.63 36.8899 56.04 37.5599 55.18 38.0099C55.89 38.1899 56.32 38.34 56.49 38.45C56.62 38.54 56.61 38.6399 56.46 38.7299L56.21 38.89V39.49H60.31L60.64 39.02C60.64 39.02 60.71 38.94 60.77 38.86C60.93 38.65 61.04 38.5399 61.1 38.5399C61.2 38.5399 61.46 38.7 61.86 39.03C62.26 39.36 62.46 39.58 62.46 39.69C62.43 39.86 62.3 39.94 62.08 39.94H56.76C57.44 40.49 58.35 40.98 59.49 41.41C60.54 41.8 61.62 42.08 62.73 42.25L62.71 42.42C62.18 42.55 61.85 42.93 61.7 43.56C60.56 43.21 59.53 42.74 58.61 42.16C57.63 41.52 56.85 40.78 56.26 39.95H56.21V41.1499C56.23 42.1399 56.26 42.91 56.3 43.47C56.25 43.58 56.12 43.68 55.91 43.77C55.68 43.86 55.45 43.91 55.22 43.91L55.19 43.94ZM48.72 33.71L48.53 33.52C48.85 33.21 49.17 32.82 49.51 32.34C49.8 31.92 50.08 31.3999 50.34 30.7899C50.6 30.1799 50.77 29.65 50.85 29.2C51.65 29.56 52.15 29.81 52.35 29.96C52.5 30.09 52.48 30.17 52.3 30.21L52 30.2899C51.83 30.5799 51.66 30.86 51.5 31.11H54.03L54.33 30.67C54.33 30.67 54.4 30.57 54.46 30.5C54.6 30.31 54.7 30.22 54.76 30.22C54.86 30.22 55.09 30.38 55.42 30.69C55.76 31 55.92 31.21 55.92 31.33C55.88 31.5 55.75 31.58 55.53 31.58H52.66C53.13 31.86 53.4 32.19 53.46 32.56C53.52 32.88 53.43 33.1099 53.19 33.2599C52.95 33.4099 52.7 33.37 52.43 33.13C52.42 32.66 52.26 32.14 51.96 31.58H51.17C50.48 32.47 49.66 33.1899 48.72 33.7299V33.71ZM49.49 38.7L48.8 37.33C49.14 37.29 49.9 37.1699 51.09 36.9799C51.17 36.9699 51.24 36.96 51.28 36.95V34.47H50.62C50.26 34.48 49.88 34.55 49.48 34.69L49.07 33.89C49.65 33.95 50.35 34 51.17 34.02H52.76L53.04 33.61C53.04 33.61 53.09 33.5399 53.13 33.4799C53.28 33.2799 53.38 33.1799 53.45 33.1799C53.55 33.1799 53.78 33.32 54.13 33.61C54.48 33.9 54.65 34.1 54.65 34.22C54.64 34.39 54.51 34.47 54.27 34.47H52.41V36.74C52.69 36.7 53.14 36.62 53.74 36.5C54.11 36.44 54.38 36.39 54.56 36.36L54.61 36.6C53 37.23 51.41 37.82 49.84 38.35C49.78 38.55 49.66 38.67 49.49 38.7ZM59.24 35.7599V33.9799H57.3C57.25 34.6499 57.17 35.18 57.06 35.57H57.56L58.14 34.75C58.51 35.09 58.87 35.4199 59.23 35.7599H59.24Z" fill="white"/>
<path d="M65.7 43.42C65.6 43.42 65.51 43.39 65.43 43.33C65.36 43.27 65.32 43.19 65.32 43.11C65.41 41.75 65.47 40.38 65.49 39.01V34.83C65.49 33.5 65.42 32.43 65.28 31.59L66.68 32.25H67.07C67.27 31.24 67.38 30.26 67.4 29.3C68.32 29.52 68.89 29.69 69.12 29.81C69.29 29.9 69.29 29.99 69.12 30.08L68.84 30.21C68.45 30.92 68.05 31.6 67.62 32.26H69.39L69.67 31.9C69.67 31.9 69.72 31.83 69.76 31.77C69.9 31.6 70 31.52 70.06 31.52C70.16 31.52 70.4 31.68 70.78 31.99C71.15 32.3 71.34 32.51 71.34 32.63C71.21 32.77 71 32.88 70.69 32.96V38.75C70.71 40.05 70.75 41.29 70.82 42.46C70.75 42.57 70.59 42.67 70.36 42.78C70.11 42.9 69.89 42.95 69.7 42.95C69.55 42.95 69.48 42.84 69.48 42.63C69.49 42.57 69.5 42.48 69.51 42.36C69.52 42.28 69.53 42.2 69.54 42.14V41.73H66.6V42.16C66.61 42.25 66.62 42.37 66.62 42.49C66.64 42.69 66.66 42.83 66.67 42.92C66.64 43.04 66.53 43.15 66.34 43.27C66.13 43.39 65.91 43.44 65.68 43.44L65.7 43.42ZM66.63 36.63H69.57V32.7H66.63V36.63ZM66.63 41.25H69.57V37.08H66.63V41.25ZM75.11 43.89C75.11 43.42 75.01 43.1 74.81 42.94C74.59 42.73 74.08 42.55 73.28 42.4L73.3 42.13C74.34 42.25 75.06 42.3 75.45 42.3C75.71 42.3 75.9 42.23 76.02 42.08C76.29 41.82 76.5 40.85 76.64 39.19C76.77 37.73 76.86 35.55 76.91 32.67H73.47C72.78 34.04 72.01 35.14 71.17 35.98L70.95 35.84C71.45 34.99 71.93 33.92 72.37 32.65C72.55 32.16 72.71 31.58 72.84 30.91C72.99 30.24 73.07 29.68 73.08 29.25C73.98 29.51 74.55 29.71 74.77 29.83C74.94 29.94 74.94 30.02 74.77 30.1L74.5 30.23C74.33 30.74 74.06 31.39 73.69 32.2H76.75L77.07 31.81C77.07 31.81 77.12 31.75 77.15 31.7C77.32 31.5 77.44 31.4 77.51 31.4C77.61 31.4 77.85 31.57 78.22 31.91C78.59 32.25 78.77 32.47 78.77 32.59C78.65 32.73 78.43 32.82 78.11 32.86C78.06 35.97 77.96 38.31 77.81 39.87C77.63 41.57 77.37 42.65 77.02 43.09C76.59 43.62 75.96 43.88 75.13 43.88L75.11 43.89ZM74.75 38.98C74.51 39.14 74.23 39.09 73.93 38.84C73.87 38.33 73.66 37.76 73.31 37.12C73 36.54 72.65 36.03 72.25 35.57L72.39 35.46C73.27 35.83 73.95 36.28 74.43 36.82C74.82 37.26 75.03 37.7 75.08 38.15C75.1 38.55 74.99 38.83 74.75 38.99V38.98Z" fill="white"/>
<path d="M86.55 43.91C86.5 43.46 86.34 43.14 86.08 42.96C85.74 42.72 85.16 42.54 84.33 42.44V42.2C85.21 42.25 86.09 42.31 86.97 42.36C87.24 42.36 87.38 42.2299 87.38 41.9799V38.3699H83.5C82.75 38.3799 81.96 38.45 81.13 38.59L80.72 37.7899C81.3 37.8499 82 37.9 82.82 37.92H87.38V34.8699H84.44C83.69 34.8799 82.9 34.95 82.07 35.09L81.66 34.27C82.24 34.33 82.94 34.3799 83.76 34.3999H87.37V31.57C85.32 31.8 83.46 31.92 81.8 31.92L81.75 31.64C83.58 31.46 85.49 31.16 87.46 30.72C89.42 30.3 90.97 29.86 92.12 29.39C92.76 29.99 93.14 30.38 93.26 30.57C93.35 30.73 93.29 30.8 93.05 30.78L92.62 30.72C91.34 31 90.02 31.24 88.67 31.41V34.39H91.91L92.29 33.85C92.29 33.85 92.36 33.7499 92.42 33.6799C92.6 33.4399 92.72 33.32 92.78 33.32C92.88 33.32 93.16 33.51 93.6 33.88C94.04 34.25 94.26 34.5 94.26 34.61C94.23 34.78 94.09 34.86 93.85 34.86H88.67V37.91H92.68L93.07 37.36C93.07 37.36 93.14 37.26 93.2 37.19C93.39 36.94 93.52 36.81 93.58 36.81C93.69 36.81 93.97 37 94.42 37.38C94.88 37.76 95.11 38.0099 95.11 38.1199C95.07 38.2899 94.93 38.3699 94.68 38.3699H88.67V42.05C88.67 42.61 88.55 43.02 88.31 43.3C87.99 43.64 87.4 43.84 86.54 43.92L86.55 43.91Z" fill="white"/>
<path d="M97.46 42.84L97.03 42.04C97.61 42.1 98.31 42.15 99.13 42.17H103.45V32.23H100.83C100.08 32.24 99.29 32.31 98.46 32.45L98.07 31.64C98.65 31.7 99.35 31.75 100.17 31.77H107.73L108.13 31.2C108.13 31.2 108.19 31.12 108.24 31.06C108.43 30.78 108.56 30.63 108.63 30.63C108.73 30.63 109.02 30.82 109.48 31.21C109.94 31.6 110.17 31.85 110.17 31.97C110.13 32.14 109.99 32.22 109.74 32.22H104.75V42.16H108.68L109.07 41.59C109.11 41.54 109.16 41.46 109.23 41.37C109.41 41.13 109.53 41.01 109.59 41.01C109.69 41.01 109.98 41.21 110.44 41.6C110.9 41.99 111.13 42.25 111.13 42.37C111.1 42.54 110.97 42.62 110.74 42.62H99.8C99.05 42.63 98.26 42.7 97.43 42.84H97.46Z" fill="white"/>
<path d="M115.86 43.94C115.74 43.94 115.65 43.91 115.58 43.85C115.51 43.79 115.48 43.71 115.48 43.63C115.55 42.57 115.6 41.4 115.62 40.13V38.22C115.02 39.49 114.25 40.62 113.3 41.61L113.08 41.42C114.08 39.85 114.82 37.87 115.31 35.49H114.68C114.33 35.5 113.97 35.57 113.61 35.71L113.2 34.89C113.65 34.95 114.2 35 114.84 35.02H115.63V32.56C115.63 31.23 115.56 30.16 115.42 29.32C116.27 29.54 116.8 29.71 117.01 29.84C117.17 29.93 117.17 30.03 117.03 30.14L116.78 30.31V35.01H117.32L118.01 34.06C118.32 34.33 118.62 34.61 118.93 34.88L118.85 34.58H122.21V33.24H121.29C120.78 33.25 120.25 33.32 119.68 33.46L119.27 32.64C119.83 32.7 120.49 32.75 121.26 32.77H122.21V31.55H119.38L119.3 31.19C119.19 31.24 119.07 31.27 118.94 31.27C118.41 32.48 117.88 33.45 117.35 34.17L117.1 34.06C117.12 34.01 117.14 33.92 117.16 33.81C117.19 33.72 117.21 33.65 117.22 33.6C117.54 32.41 117.69 31.31 117.69 30.3L119.51 30.95C119.51 30.95 119.47 31.04 119.42 31.09H122.21C122.21 30.43 122.18 29.85 122.12 29.37C122.95 29.59 123.47 29.77 123.67 29.91C123.81 30 123.8 30.1 123.64 30.21L123.37 30.38V31.09H125.06L125.38 30.62C125.38 30.62 125.44 30.54 125.49 30.48C125.65 30.25 125.76 30.13 125.82 30.13C125.93 30.13 126.16 30.3 126.53 30.63C126.9 30.96 127.08 31.19 127.08 31.3C127.05 31.47 126.92 31.55 126.69 31.55H123.38V32.77H124.93L125.23 32.33C125.23 32.33 125.28 32.27 125.31 32.22C125.46 32 125.57 31.89 125.64 31.89C125.74 31.89 125.97 32.05 126.33 32.36C126.68 32.67 126.86 32.88 126.86 33C126.83 33.17 126.7 33.25 126.48 33.25H123.39V34.59H125.46L125.79 34.12C125.79 34.12 125.84 34.05 125.87 33.99C126.04 33.76 126.16 33.64 126.23 33.64C126.33 33.64 126.57 33.81 126.94 34.14C127.31 34.47 127.49 34.7 127.49 34.81C127.46 34.98 127.33 35.06 127.09 35.06H119.12L119.31 35.23C119.27 35.4 119.14 35.48 118.92 35.48H116.81V36.32C117.53 36.65 118.07 37.03 118.44 37.47C118.76 37.84 118.92 38.2 118.93 38.56C118.93 38.88 118.83 39.09 118.61 39.21C118.4 39.33 118.17 39.27 117.92 39.05C117.82 38.43 117.45 37.67 116.82 36.76V39.74C116.84 41.04 116.88 42.28 116.95 43.45C116.89 43.57 116.76 43.68 116.56 43.78C116.35 43.88 116.13 43.94 115.91 43.94H115.86ZM114.65 34.09C114.44 34.18 114.24 34.11 114.03 33.87C114.07 33.02 113.91 31.95 113.54 30.67L113.73 30.61C114.26 31.12 114.63 31.64 114.85 32.19C115.04 32.64 115.1 33.06 115.04 33.44C114.99 33.79 114.86 34.01 114.65 34.1V34.09ZM119.84 43.91C119.75 43.91 119.67 43.88 119.6 43.82C119.54 43.76 119.51 43.68 119.51 43.6C119.58 42.68 119.63 41.67 119.65 40.55V38.86C119.65 37.53 119.58 36.46 119.44 35.62L120.88 36.27H124.92L125.17 35.92C125.17 35.92 125.22 35.85 125.26 35.79C125.38 35.63 125.47 35.55 125.53 35.55C125.63 35.55 125.88 35.7 126.26 36C126.64 36.3 126.84 36.51 126.84 36.62C126.71 36.79 126.51 36.89 126.22 36.94V42.34C126.22 42.83 126.13 43.19 125.95 43.4C125.72 43.66 125.26 43.83 124.58 43.89C124.55 43.51 124.45 43.24 124.28 43.07C124.06 42.87 123.68 42.73 123.14 42.64V42.4C123.68 42.43 124.21 42.47 124.73 42.51C124.86 42.51 124.94 42.49 124.98 42.44C125.02 42.39 125.04 42.31 125.04 42.2V39.9H120.79V41.1C120.81 42.08 120.84 42.85 120.88 43.4C120.83 43.52 120.7 43.63 120.49 43.73C120.27 43.85 120.04 43.9 119.81 43.9L119.84 43.91ZM120.82 39.44H122.4V36.74H120.82V39.44ZM123.46 39.44H125.07V36.74H123.46V39.44Z" fill="white"/>
<path d="M130.49 43.82C130.4 43.82 130.32 43.79 130.27 43.73C130.22 43.67 130.19 43.59 130.19 43.51C130.23 42.94 130.27 42.17 130.3 41.21V39.9C130.3 38.57 130.23 37.5 130.09 36.66L131.54 37.29H134.24L134.51 36.94C134.51 36.94 134.58 36.86 134.62 36.8C134.75 36.65 134.84 36.58 134.9 36.58C135 36.58 135.25 36.73 135.63 37.03C136.01 37.33 136.21 37.54 136.21 37.65C136.08 37.8 135.87 37.9 135.58 37.97V39.71C135.61 41.16 135.65 42.28 135.69 43.07C135.63 43.18 135.47 43.28 135.23 43.39C134.99 43.5 134.77 43.55 134.57 43.55C134.41 43.55 134.33 43.44 134.33 43.23C134.34 43.17 134.35 43.08 134.36 42.98C134.37 42.9 134.38 42.83 134.39 42.77V42.38H131.45V42.73C131.46 42.84 131.47 42.96 131.47 43.09C131.48 43.21 131.49 43.29 131.5 43.34C131.48 43.45 131.36 43.55 131.15 43.66C130.94 43.78 130.71 43.83 130.47 43.83L130.49 43.82ZM131.47 41.91H134.41V37.74H131.47V41.91ZM132.89 36.21C132.71 36.21 132.62 36.11 132.62 35.89C132.66 35.41 132.69 34.79 132.71 34.03V32.94C132.71 31.61 132.64 30.54 132.5 29.7L134.02 30.36H138.94L139.22 29.93C139.22 29.93 139.29 29.85 139.33 29.77C139.46 29.59 139.55 29.5 139.61 29.5C139.71 29.5 139.96 29.67 140.34 30.02C140.72 30.37 140.92 30.6 140.92 30.71C140.81 30.86 140.6 30.96 140.29 31.03V32.59C140.32 33.91 140.36 34.92 140.4 35.62C140.34 35.73 140.18 35.83 139.94 35.92C139.7 36.04 139.48 36.09 139.28 36.09C139.1 36.09 139.01 35.99 139.01 35.77C139.02 35.71 139.03 35.62 139.04 35.52C139.05 35.44 139.06 35.37 139.07 35.31V34.92H133.91V35.2C133.92 35.28 133.93 35.38 133.93 35.48C133.93 35.58 133.94 35.65 133.95 35.69C133.93 35.8 133.81 35.9 133.59 36.01C133.35 36.13 133.11 36.18 132.86 36.18L132.89 36.21ZM133.93 34.47H139.09V30.82H133.93V34.47ZM137.51 43.85C137.43 43.85 137.36 43.82 137.3 43.76C137.24 43.7 137.22 43.62 137.22 43.54C137.27 42.96 137.31 42.19 137.33 41.22V39.89C137.33 38.56 137.26 37.49 137.12 36.65L138.57 37.28H141.38L141.65 36.93C141.65 36.93 141.72 36.85 141.76 36.79C141.89 36.64 141.98 36.57 142.04 36.57C142.14 36.57 142.39 36.72 142.78 37.02C143.17 37.32 143.36 37.53 143.36 37.64C143.23 37.79 143.02 37.9 142.71 37.97V39.74C142.74 41.23 142.78 42.39 142.82 43.2C142.77 43.28 142.62 43.38 142.37 43.48C142.12 43.58 141.9 43.63 141.72 43.63C141.55 43.63 141.47 43.52 141.47 43.31C141.48 43.24 141.49 43.14 141.5 43.03C141.51 42.94 141.52 42.86 141.53 42.79V42.36H138.5V42.72C138.51 42.79 138.52 42.88 138.52 42.99C138.54 43.16 138.56 43.28 138.57 43.35C138.54 43.45 138.42 43.56 138.21 43.67C137.98 43.79 137.74 43.84 137.5 43.84L137.51 43.85ZM138.52 41.91H141.55V37.74H138.52V41.91Z" fill="white"/>
<path d="M159.78 48.7L158.55 46.03C158.96 45.89 159.77 45.58 160.97 45.09V40.49H160.19C159.77 40.5 159.31 40.6 158.84 40.78L158.35 39.73C158.8 39.81 159.34 39.87 159.95 39.89H160.67L161.18 39.15C161.22 39.1 161.28 39.02 161.34 38.92C161.59 38.56 161.75 38.39 161.83 38.39C161.97 38.39 162.39 38.68 163.09 39.26C163.8 39.84 164.15 40.21 164.15 40.36C163.99 40.58 163.64 40.72 163.12 40.79V44.45C163.79 45.12 164.57 45.56 165.46 45.76C166.23 45.94 167.55 46.03 169.44 46.03C172.93 46.03 175.5 46 177.14 45.95V46.2C176.24 46.42 175.72 47.1 175.6 48.23H169.46C167.54 48.23 166.15 48.01 165.29 47.57C164.36 47.1 163.57 46.17 162.91 44.78C162.07 45.93 161.14 47.07 160.1 48.19C160.1 48.41 159.99 48.58 159.77 48.7H159.78ZM161.26 37.22C161.04 36.71 160.69 36.17 160.19 35.6C159.75 35.08 159.29 34.63 158.79 34.24L158.95 34.1C160.22 34.07 161.22 34.26 161.95 34.67C162.57 35 162.92 35.43 163 35.96C163.1 36.45 162.97 36.84 162.61 37.13C162.24 37.42 161.79 37.45 161.25 37.21L161.26 37.22ZM162 33.01C161.81 32.52 161.47 31.97 160.99 31.37C160.57 30.85 160.12 30.39 159.66 29.99L159.82 29.85C161.07 29.85 162.04 30.07 162.74 30.51C163.32 30.87 163.64 31.3 163.73 31.82C163.8 32.31 163.65 32.7 163.3 32.97C162.94 33.24 162.51 33.26 162.01 33.01H162ZM171.71 45.37C171.52 45.37 171.36 45.33 171.25 45.25C171.14 45.17 171.08 45.07 171.08 44.96C171.2 43.19 171.28 41.41 171.31 39.62V36.58H168.27C168.24 38.4 168.02 39.91 167.59 41.12C166.97 42.87 165.89 44.26 164.35 45.29L164.14 45.06C164.92 43.88 165.45 42.44 165.74 40.73C165.93 39.54 166.03 38 166.03 36.11V33.6C166.03 32.52 165.98 31.66 165.87 31.01L168.15 31.79C170.42 31.01 172.27 30.22 173.69 29.41L175.99 31.85C175.74 32.06 175.31 32.03 174.7 31.79C172.81 32.09 170.67 32.3 168.27 32.41V35.98H173.53L174.13 35.14C174.17 35.09 174.23 35.01 174.29 34.91C174.58 34.49 174.77 34.27 174.86 34.27C175 34.27 175.39 34.56 176.05 35.14C176.71 35.72 177.04 36.09 177.04 36.24C177 36.46 176.82 36.57 176.51 36.57H173.59V39.9C173.62 41.6 173.67 43.21 173.75 44.73C173.64 44.88 173.43 45.02 173.11 45.14C172.7 45.29 172.23 45.37 171.71 45.37Z" fill="white"/>
<path d="M194.46 48.7C194.42 47.89 194.28 47.34 194.05 47.06C193.75 46.69 193.22 46.44 192.45 46.3V46.01C193.19 46.04 193.93 46.07 194.67 46.11C194.94 46.11 195.08 45.97 195.08 45.7V40.79H192.27C192.11 42.45 191.71 43.87 191.08 45.06C190.3 46.51 189.14 47.71 187.59 48.65L187.38 48.47C188.74 46.95 189.62 44.99 190.03 42.6H182.88C181.91 42.61 180.88 42.71 179.8 42.89L179.27 41.86C179.65 41.94 180.1 42 180.63 42.02H181.27V33.46H180.82C180.59 33.47 180.35 33.57 180.12 33.75L179.59 32.7C179.9 32.78 180.29 32.84 180.74 32.86H181.27C181.27 31.53 181.2 30.45 181.06 29.62C182.42 29.94 183.27 30.18 183.63 30.36C183.88 30.48 183.9 30.61 183.71 30.73L183.4 30.94V32.87H185.86C185.86 31.56 185.79 30.48 185.65 29.65C187.03 29.97 187.9 30.2 188.26 30.37C188.51 30.49 188.53 30.62 188.34 30.76L188.01 30.99V32.84L188.36 32.16C188.4 32.11 188.45 32.02 188.5 31.91C188.66 31.62 188.79 31.48 188.87 31.48C188.99 31.48 189.26 31.72 189.66 32.2C190.06 32.68 190.27 32.99 190.27 33.14C190.23 33.36 190.06 33.47 189.78 33.47H188.01V41.91L188.85 40.47C189.27 40.92 189.69 41.37 190.1 41.83C190.24 40.75 190.31 39.41 190.31 37.83V33.97C190.31 32.38 190.23 31.07 190.06 30.03L192.75 31.06H194.89L195.36 30.44C195.36 30.44 195.43 30.34 195.48 30.28C195.71 29.98 195.88 29.83 195.97 29.83C196.11 29.83 196.49 30.09 197.12 30.6C197.75 31.11 198.06 31.45 198.06 31.6C197.9 31.81 197.62 31.95 197.24 32.03V45.97C197.24 46.86 197.08 47.49 196.77 47.86C196.37 48.33 195.6 48.61 194.45 48.72L194.46 48.7ZM179.61 48.76L179.38 48.58C179.79 48.07 180.17 47.52 180.53 46.92C180.87 46.35 181.18 45.65 181.46 44.83C181.74 44.01 181.91 43.31 181.96 42.74L183.62 43.5C184.29 43.73 184.69 43.92 184.83 44.05C184.94 44.16 184.88 44.25 184.65 44.32L184.24 44.42C183.1 46.34 181.56 47.79 179.6 48.77L179.61 48.76ZM183.39 35.7H185.85V33.46H183.39V35.7ZM183.39 38.76H185.85V36.3H183.39V38.76ZM183.39 42.03H185.85V39.32H183.39V42.03ZM186.74 46.55C186.67 45.99 186.49 45.39 186.19 44.74C185.93 44.17 185.61 43.64 185.25 43.18L185.44 43.06C186.62 43.32 187.49 43.73 188.07 44.29C188.55 44.76 188.77 45.26 188.73 45.79C188.69 46.28 188.47 46.62 188.07 46.8C187.65 47.01 187.21 46.92 186.76 46.55H186.74ZM192.33 40.2H195.08V36.11H192.41V37.79C192.41 38.68 192.38 39.48 192.33 40.19V40.2ZM192.41 35.54H195.08V31.64H192.41V35.54Z" fill="white"/>
<path d="M201.96 40.05C201.6 40.05 201.43 39.91 201.43 39.64C201.5 38.96 201.55 38.05 201.57 36.93V35.37C201.57 33.65 201.48 32.24 201.3 31.16L203.95 32.23H204.16C204.34 31.05 204.4 30.07 204.35 29.29L208.03 30.03C207.95 30.36 207.68 30.54 207.23 30.56C206.74 30.96 206.01 31.51 205.05 32.22H207.47L207.92 31.64C207.92 31.64 207.99 31.56 208.04 31.5C208.27 31.21 208.44 31.07 208.53 31.07C208.67 31.07 209.04 31.31 209.66 31.8C210.28 32.29 210.58 32.6 210.58 32.75C210.46 32.93 210.21 33.06 209.84 33.14V35.21C209.88 36.96 209.93 38.31 209.98 39.26C209.9 39.4 209.64 39.54 209.2 39.69C208.75 39.85 208.36 39.94 208.03 39.94H207.64V39.12H203.68V39.39C203.68 39.5 203.53 39.63 203.23 39.78C202.86 39.96 202.44 40.05 201.96 40.05ZM204.18 48.1C203.21 48.1 202.56 47.97 202.24 47.71C201.92 47.45 201.76 46.93 201.76 46.15V43.21C201.76 42.02 201.7 41.01 201.57 40.19C202.91 40.49 203.75 40.72 204.1 40.89C204.35 41.01 204.38 41.14 204.2 41.26L203.89 41.47V43.24C205.12 42.54 206.51 41.59 208.06 40.39L209.93 42.4C209.75 42.55 209.48 42.56 209.11 42.44C207.56 43.07 205.82 43.53 203.89 43.82V45.63C203.89 45.79 203.93 45.9 204.02 45.95C204.11 46 204.31 46.02 204.63 46.02H206.52C207.38 46.02 207.91 46.02 208.1 46C208.35 45.99 208.52 45.91 208.61 45.77C208.76 45.56 209.03 44.9 209.43 43.78H209.64L209.7 45.81C210 45.93 210.21 46.06 210.32 46.2C210.43 46.34 210.48 46.52 210.48 46.73C210.48 47.22 210.2 47.57 209.64 47.78C209.01 48 207.89 48.11 206.29 48.11H204.17L204.18 48.1ZM203.69 35.31H207.65V32.8H203.69V35.31ZM203.69 38.53H207.65V35.88H203.69V38.53ZM211.62 48.72C211.43 48.72 211.27 48.68 211.16 48.6C211.05 48.52 210.99 48.42 210.99 48.31C211.11 46.54 211.19 44.76 211.22 42.97V34.08C211.22 32.36 211.13 30.95 210.95 29.87L213.7 31.18H215.73L216.2 30.56C216.2 30.56 216.27 30.46 216.32 30.4C216.55 30.1 216.72 29.95 216.81 29.95C216.95 29.95 217.34 30.21 217.99 30.73C218.64 31.25 218.97 31.59 218.97 31.74C218.81 31.93 218.54 32.08 218.17 32.17V42.81C218.17 43.74 218.02 44.4 217.72 44.78C217.32 45.26 216.56 45.55 215.44 45.66C215.37 44.77 215.24 44.18 215.05 43.89C214.82 43.49 214.35 43.23 213.65 43.09V42.8C214.28 42.83 214.9 42.86 215.52 42.9C215.79 42.9 215.93 42.77 215.93 42.51V31.77H213.43V43.04C213.46 44.74 213.51 46.35 213.59 47.87C213.48 48.05 213.27 48.22 212.95 48.38C212.55 48.6 212.11 48.71 211.62 48.71V48.72Z" fill="white"/>
<path d="M226.31 48.72C226.12 48.72 225.97 48.68 225.86 48.6C225.75 48.52 225.7 48.42 225.7 48.31C225.7 48.23 225.7 48.1 225.72 47.94C225.82 46.35 225.88 44.76 225.9 43.18V40.39H224.85C224.8 42.36 224.6 43.91 224.25 45.03C223.78 46.55 222.98 47.77 221.83 48.71L221.56 48.42C222.11 47.39 222.47 46.14 222.65 44.66C222.75 43.76 222.79 42.33 222.79 40.39H222.4C222.25 40.4 222.09 40.5 221.91 40.68L221.36 39.65C222.11 39.73 223.02 39.79 224.09 39.81H225.9V36.65H224.44V37.59C224.44 37.7 224.26 37.83 223.89 37.98C223.51 38.13 223.13 38.21 222.76 38.21C222.44 38.21 222.29 38.07 222.29 37.8C222.34 37.24 222.39 36.54 222.41 35.71V34.44C222.41 32.89 222.33 31.6 222.16 30.56C223.52 30.86 224.36 31.09 224.71 31.26C224.96 31.38 224.98 31.51 224.77 31.65L224.44 31.88V36.07H225.9V33.65C225.9 31.93 225.81 30.52 225.63 29.44C227.07 29.77 227.97 30.02 228.34 30.2C228.6 30.34 228.63 30.47 228.42 30.61L228.07 30.84V43C228.1 44.7 228.15 46.31 228.23 47.83C228.13 48.04 227.89 48.23 227.51 48.43C227.1 48.65 226.7 48.76 226.3 48.76L226.31 48.72ZM228.36 39.21L228.2 38.98C232.09 37.36 234.92 35.11 236.7 32.22H233.21C232.99 32.4 232.77 32.58 232.53 32.77C233.28 32.76 233.86 32.89 234.26 33.18C234.6 33.41 234.77 33.71 234.77 34.06C234.77 34.39 234.63 34.64 234.36 34.82C234.07 35 233.74 35 233.35 34.84C233.09 34.25 232.62 33.7 231.95 33.2C231.33 33.62 230.72 34 230.1 34.33C230.98 34.41 231.63 34.64 232.05 35.01C232.41 35.31 232.56 35.65 232.52 36.04C232.48 36.4 232.29 36.64 231.97 36.78C231.63 36.93 231.27 36.87 230.9 36.6C230.86 36.24 230.73 35.86 230.51 35.45C230.29 35.07 230.04 34.75 229.77 34.51C229.29 34.76 228.83 34.96 228.37 35.11L228.21 34.93C228.85 34.46 229.54 33.81 230.26 32.96C230.71 32.44 231.13 31.83 231.51 31.13C231.92 30.43 232.19 29.81 232.33 29.26C233.78 29.74 234.71 30.09 235.1 30.31C235.39 30.46 235.4 30.56 235.14 30.6L234.75 30.66C234.52 30.95 234.22 31.28 233.85 31.65H236.87L237.38 31.08C237.38 31.08 237.48 30.98 237.57 30.9C237.82 30.64 237.98 30.51 238.06 30.51C238.2 30.51 238.58 30.78 239.2 31.32C239.82 31.86 240.13 32.21 240.13 32.36C240.01 32.52 239.69 32.63 239.19 32.67C236.84 36.04 233.22 38.23 228.35 39.24L228.36 39.21ZM234.25 48.7C234.17 47.92 233.98 47.39 233.7 47.1C233.32 46.72 232.66 46.46 231.73 46.32V46.03C232.7 46.08 233.67 46.14 234.63 46.19C234.81 46.19 234.93 46.16 234.99 46.11C235.05 46.06 235.08 45.95 235.08 45.8V40.46H231.9C230.93 40.47 229.9 40.57 228.82 40.75L228.29 39.72C229.04 39.8 229.95 39.86 231.02 39.88H235.09C235.09 38.7 235.03 37.7 234.91 36.88C236.33 37.2 237.22 37.44 237.58 37.62C237.84 37.74 237.87 37.87 237.66 38.01L237.33 38.22V39.88H237.66L238.11 39.02C238.14 38.97 238.19 38.88 238.25 38.75C238.48 38.34 238.64 38.13 238.72 38.13C238.84 38.13 239.16 38.42 239.69 39.01C240.21 39.6 240.47 39.97 240.47 40.12C240.41 40.34 240.24 40.45 239.94 40.45H237.33V45.91C237.33 46.8 237.16 47.43 236.82 47.8C236.38 48.28 235.53 48.57 234.27 48.68L234.25 48.7ZM231.29 44.55C231.24 43.99 231.04 43.38 230.71 42.72C230.42 42.13 230.08 41.6 229.68 41.12L229.86 41C231.04 41.26 231.93 41.68 232.53 42.25C233.01 42.72 233.24 43.22 233.21 43.77C233.18 44.28 232.97 44.62 232.57 44.8C232.16 45.01 231.73 44.92 231.28 44.55H231.29Z" fill="white"/>
<path d="M248.64 43.58L248.09 42.55C248.51 42.63 249.03 42.69 249.65 42.71H250.35L250.08 30.57L252.15 31.21C252.77 30.53 253.26 29.91 253.63 29.36L255.27 31.13C255.27 30.5 255.24 29.97 255.19 29.55C256.35 29.85 257.09 30.08 257.41 30.25C257.63 30.37 257.65 30.49 257.47 30.6L257.18 30.76V32.07H258.35L258.76 31.43C258.76 31.43 258.82 31.33 258.86 31.27C259.08 30.94 259.24 30.78 259.33 30.78C259.45 30.78 259.75 31 260.21 31.44C260.68 31.88 260.91 32.17 260.91 32.32C260.87 32.54 260.7 32.65 260.4 32.65H257.18V35.2H258.17L258.58 34.73C258.58 34.73 258.68 34.63 258.74 34.55C258.92 34.36 259.05 34.26 259.13 34.26C259.27 34.26 259.58 34.46 260.06 34.85C260.54 35.24 260.79 35.51 260.79 35.66C260.67 35.8 260.47 35.9 260.19 35.97V42.73H262.65L262.73 39.57H262.11C261.81 39.58 261.48 39.68 261.12 39.86L260.59 38.83C261 38.91 261.49 38.97 262.07 38.99H262.73L262.79 35.64H262.21C261.91 35.65 261.59 35.75 261.27 35.93L260.72 34.88C261.12 34.96 261.6 35.02 262.16 35.04H262.82L262.88 31.75H262.22C261.88 31.76 261.54 31.86 261.19 32.04L260.64 31.01C261.04 31.09 261.52 31.15 262.08 31.17H262.72L263.13 30.55C263.13 30.55 263.19 30.45 263.23 30.39C263.45 30.09 263.61 29.94 263.7 29.94C263.84 29.94 264.21 30.21 264.83 30.74C265.45 31.27 265.75 31.62 265.75 31.77C265.64 31.93 265.39 32.04 265.01 32.1L264.78 42.72H264.82L265.21 42C265.25 41.95 265.31 41.86 265.37 41.73C265.55 41.43 265.68 41.28 265.76 41.28C265.88 41.28 266.16 41.52 266.6 42.01C267.04 42.5 267.26 42.81 267.26 42.96C267.21 43.18 267.03 43.29 266.75 43.29H251.7C250.73 43.3 249.7 43.4 248.62 43.58H248.64ZM248.6 48.78L248.5 48.53C249.51 47.97 250.52 47.24 251.52 46.33C252.66 45.32 253.46 44.26 253.92 43.17L255.56 44.07C256.26 44.34 256.67 44.55 256.79 44.69C256.89 44.81 256.79 44.91 256.48 44.98L255.95 45.08C255.16 45.82 254.1 46.52 252.79 47.17C251.46 47.84 250.07 48.37 248.6 48.77V48.78ZM252.46 42.72H255.27V41.47C255.27 39.75 255.18 38.34 255 37.26C256.15 37.55 256.88 37.77 257.18 37.94C257.4 38.06 257.43 38.18 257.28 38.29L257.03 38.45V42.72H258.32V35.78H257.17V36.15C257.17 36.25 257 36.35 256.66 36.46C256.29 36.6 255.94 36.67 255.61 36.67C255.28 36.67 255.12 36.53 255.12 36.26C255.17 35.51 255.22 34.49 255.26 33.2V31.45C255.15 31.46 255.01 31.43 254.83 31.35C254.15 31.6 253.27 31.84 252.2 32.09L252.28 35.05H252.75L253.08 34.48C253.08 34.48 253.13 34.4 253.16 34.34C253.34 34.05 253.47 33.91 253.57 33.91C253.69 33.91 253.94 34.11 254.31 34.51C254.68 34.91 254.86 35.18 254.86 35.33C254.81 35.55 254.64 35.66 254.37 35.66H252.28L252.36 39.01H252.85L253.2 38.41C253.2 38.41 253.25 38.31 253.28 38.25C253.46 37.95 253.59 37.8 253.69 37.8C253.81 37.8 254.06 38.01 254.44 38.42C254.82 38.83 255 39.11 255 39.26C254.96 39.48 254.79 39.59 254.51 39.59H252.37L252.43 42.75L252.46 42.72ZM263.71 48.22C262.57 46.51 260.92 45.19 258.76 44.28L258.84 44.01C260.84 44.23 262.45 44.59 263.67 45.1C264.7 45.54 265.4 46.04 265.79 46.62C266.12 47.11 266.18 47.58 265.97 48.02C265.79 48.42 265.48 48.65 265.03 48.72C264.54 48.8 264.1 48.64 263.72 48.23L263.71 48.22Z" fill="white"/>
<path d="M272.52 42.08C272.14 42.08 271.95 41.94 271.95 41.67C272.03 40.52 272.09 39.37 272.11 38.22V36.29C271.33 37.17 270.51 37.92 269.65 38.55L269.44 38.39C270.3 37.05 271.09 35.47 271.8 33.65C272.06 33.02 272.3 32.28 272.51 31.42C272.72 30.56 272.85 29.85 272.89 29.27C274.45 29.83 275.43 30.23 275.83 30.46C276.1 30.64 276.12 30.78 275.89 30.87L275.5 31.01C275.09 31.93 274.61 32.82 274.06 33.68C274.51 34 274.78 34.23 274.86 34.4C274.94 34.52 274.9 34.63 274.74 34.71L274.45 34.83V36.76C274.48 38.38 274.53 39.9 274.61 41.34C274.5 41.5 274.25 41.66 273.85 41.81C273.4 41.99 272.95 42.08 272.52 42.08ZM270.45 47.4C270.04 47.29 269.77 47.04 269.65 46.66C269.55 46.3 269.6 45.98 269.77 45.67C269.92 45.4 270.17 45.18 270.51 45.01C271 44.79 271.44 44.43 271.82 43.94C272.24 43.39 272.48 42.8 272.52 42.15L272.79 42.17C273.17 43.4 273.21 44.5 272.91 45.46C272.65 46.3 272.2 46.88 271.58 47.23C271.22 47.45 270.85 47.5 270.45 47.39V47.4ZM276.98 48.28C275.93 48.28 275.23 48.15 274.91 47.89C274.58 47.63 274.42 47.1 274.42 46.29V44.05C274.42 43.09 274.37 42.3 274.28 41.69C275.64 41.99 276.49 42.22 276.85 42.39C277.1 42.51 277.13 42.64 276.95 42.76L276.64 42.97V45.78C276.64 45.93 276.69 46.03 276.78 46.08C276.88 46.13 277.09 46.15 277.44 46.15H279.62C280.62 46.15 281.21 46.15 281.39 46.13C281.65 46.12 281.84 46.03 281.97 45.86C282.15 45.61 282.45 44.89 282.87 43.68H283.08L283.14 45.9C283.44 46.02 283.65 46.16 283.78 46.31C283.89 46.45 283.94 46.63 283.94 46.84C283.94 47.36 283.64 47.72 283.04 47.93C282.37 48.16 281.16 48.28 279.41 48.28H277.01H276.98ZM275.42 36.72L275.17 36.56C275.66 35.75 276.1 34.81 276.48 33.73C276.73 33.09 276.94 32.34 277.12 31.49C277.3 30.63 277.39 29.92 277.41 29.35C278.94 29.84 279.91 30.19 280.31 30.4C280.6 30.56 280.62 30.69 280.39 30.79L280 30.93C279.85 31.29 279.66 31.66 279.45 32.06H284.79L285.34 31.42C285.34 31.42 285.44 31.31 285.52 31.21C285.78 30.92 285.95 30.78 286.03 30.78C286.15 30.78 286.52 31.09 287.14 31.7C287.76 32.32 288.06 32.7 288.06 32.85C287.92 32.99 287.66 33.08 287.28 33.12C286.49 33.87 285.53 34.54 284.43 35.11L284.29 34.99C284.54 34.18 284.73 33.4 284.89 32.63H279.12C278.08 34.37 276.85 35.73 275.42 36.72ZM280.08 41.65C280.01 40.8 279.89 40.25 279.71 39.99C279.41 39.59 278.94 39.34 278.29 39.23V38.96C278.95 39 279.6 39.04 280.26 39.08C280.48 39.08 280.59 38.98 280.59 38.77V35.71C280.43 35.82 280.22 35.87 279.97 35.85C278.96 37.73 277.59 39.08 275.86 39.92L275.63 39.74C275.88 39.41 276.14 39 276.41 38.51C276.72 37.92 277.01 37.21 277.25 36.37C277.48 35.55 277.61 34.84 277.64 34.25L280.58 35.42C280.58 34.27 280.53 33.37 280.42 32.71C281.82 33.03 282.69 33.26 283.05 33.43C283.31 33.55 283.34 33.68 283.15 33.8L282.84 34.01V38.88C282.84 39.78 282.68 40.42 282.37 40.79C281.99 41.26 281.22 41.54 280.07 41.65H280.08ZM279.14 44.5C279.02 43.92 278.75 43.32 278.34 42.69C277.96 42.1 277.54 41.6 277.09 41.19L277.25 41.03C278.52 41.17 279.5 41.5 280.17 42.02C280.73 42.46 281.03 42.96 281.05 43.52C281.06 44.03 280.88 44.4 280.5 44.63C280.09 44.88 279.64 44.84 279.14 44.51V44.5ZM285.65 46.98C285.49 46.19 285.12 45.35 284.54 44.47C284.02 43.65 283.42 42.95 282.75 42.38L282.89 42.24C284.46 42.51 285.68 43.01 286.55 43.74C287.26 44.33 287.65 44.98 287.72 45.69C287.79 46.35 287.6 46.83 287.17 47.13C286.73 47.44 286.23 47.4 285.65 46.99V46.98ZM285.32 39.53C285.21 38.78 284.93 37.94 284.48 37.02C284.1 36.23 283.64 35.48 283.12 34.78L283.33 34.66C284.71 35.13 285.76 35.75 286.47 36.53C287.07 37.19 287.37 37.86 287.37 38.54C287.37 39.16 287.16 39.58 286.75 39.81C286.3 40.06 285.82 39.96 285.31 39.52L285.32 39.53Z" fill="white"/>
<path d="M293.94 48.74C293.5 48.74 293.28 48.6 293.28 48.33C293.28 48.25 293.28 48.12 293.3 47.96C293.4 46.32 293.46 44.68 293.49 43.05V40.2C292.65 41.6 291.65 42.85 290.47 43.96L290.2 43.73C291.57 41.55 292.57 38.69 293.2 35.13H292.38C291.96 35.14 291.5 35.24 291.02 35.42L290.49 34.39C291.05 34.47 291.74 34.53 292.54 34.55H293.48V33.63C293.48 31.91 293.39 30.5 293.21 29.42C294.7 29.75 295.63 30 296 30.18C296.27 30.32 296.3 30.45 296.08 30.59L295.71 30.82V34.56H296.02L296.47 33.76C296.5 33.71 296.55 33.62 296.61 33.51C296.84 33.14 297 32.96 297.08 32.96C297.2 32.96 297.52 33.23 298.02 33.77C298.53 34.31 298.78 34.66 298.78 34.81C298.73 35.03 298.55 35.14 298.25 35.14H295.7V36.97C296.78 37.34 297.58 37.82 298.1 38.41C298.54 38.9 298.73 39.4 298.67 39.91C298.63 40.36 298.42 40.66 298.05 40.81C297.67 40.97 297.28 40.87 296.88 40.5C296.77 39.58 296.37 38.56 295.69 37.44V43.15C295.72 44.85 295.77 46.46 295.85 47.98C295.75 48.14 295.51 48.32 295.13 48.49C294.71 48.67 294.29 48.76 293.9 48.76L293.94 48.74ZM299.4 48.62C299.21 48.62 299.06 48.58 298.95 48.5C298.84 48.42 298.79 48.32 298.79 48.21C298.91 46.44 298.99 44.66 299.02 42.87V34.33C299.02 32.61 298.93 31.2 298.75 30.12L301.4 31.27H305.47L305.98 30.63C306.02 30.58 306.08 30.5 306.16 30.4C306.41 30.11 306.57 29.97 306.65 29.97C306.79 29.97 307.18 30.24 307.82 30.78C308.46 31.32 308.78 31.67 308.78 31.82C308.62 32.01 308.34 32.16 307.96 32.25V42.83C307.99 44.53 308.04 46.14 308.12 47.66C308.01 47.82 307.74 48 307.32 48.19C306.84 48.41 306.4 48.52 306.01 48.52C305.72 48.52 305.58 48.38 305.58 48.11C305.59 47.99 305.61 47.82 305.62 47.6C305.63 47.44 305.65 47.3 305.66 47.19V46.51H301.29V46.92C301.3 47.03 301.31 47.16 301.31 47.31C301.32 47.45 301.34 47.54 301.35 47.6C301.32 47.83 301.12 48.06 300.73 48.28C300.32 48.51 299.87 48.63 299.4 48.63V48.62ZM301.29 36.05H305.66V31.84H301.29V36.05ZM301.29 40.9H305.66V36.65H301.29V40.9ZM301.29 45.93H305.66V41.49H301.29V45.93Z" fill="white"/>
<path d="M312.77 48.74L311.54 46.17C312.03 45.98 312.75 45.66 313.7 45.23V40.55H313C312.62 40.56 312.23 40.66 311.85 40.84L311.38 39.79C311.76 39.87 312.23 39.93 312.78 39.95H313.42L313.91 39.21C313.95 39.16 314.01 39.08 314.07 38.98C314.32 38.62 314.48 38.45 314.56 38.45C314.7 38.45 315.11 38.74 315.81 39.31C316.51 39.89 316.86 40.25 316.86 40.4C316.63 40.63 316.29 40.78 315.83 40.85V44.51C316.5 45.21 317.29 45.67 318.21 45.89C318.99 46.07 320.35 46.16 322.3 46.16C325.89 46.16 328.51 46.13 330.16 46.08V46.33C329.28 46.55 328.78 47.21 328.66 48.3H322.31C320.35 48.3 318.93 48.08 318.04 47.64C317.08 47.17 316.27 46.25 315.6 44.87C314.97 45.86 314.12 46.98 313.05 48.24C313.06 48.46 312.97 48.63 312.76 48.75L312.77 48.74ZM314.19 37.24C313.98 36.75 313.65 36.21 313.18 35.64C312.76 35.11 312.31 34.65 311.85 34.28L312.01 34.14C313.24 34.13 314.21 34.32 314.91 34.74C315.49 35.08 315.82 35.52 315.92 36.05C315.99 36.53 315.85 36.91 315.51 37.18C315.14 37.47 314.7 37.49 314.2 37.24H314.19ZM314.93 33.03C314.75 32.52 314.44 31.98 313.99 31.39C313.59 30.87 313.17 30.42 312.72 30.03L312.88 29.89C314.08 29.9 315.03 30.12 315.71 30.55C316.27 30.91 316.59 31.34 316.65 31.86C316.7 32.34 316.56 32.72 316.22 32.99C315.85 33.26 315.42 33.28 314.93 33.03ZM326.45 45.7C326.42 45.03 326.31 44.57 326.1 44.32C325.83 44.01 325.37 43.79 324.72 43.66V43.39C325.35 43.42 325.97 43.45 326.59 43.49C326.82 43.49 326.94 43.37 326.94 43.12V42.28C326.79 42.54 326.57 42.68 326.28 42.71C325.98 42.75 325.7 42.63 325.44 42.36C325.44 41.98 325.41 41.64 325.34 41.35C324.3 41.73 322.88 42.2 321.07 42.75C320.97 42.98 320.8 43.13 320.54 43.18L319.49 40.9C320.49 40.9 321.35 40.9 322.08 40.88V38.85H319.47V40.84C319.51 42.52 319.56 43.82 319.61 44.72C319.53 44.88 319.29 45.06 318.91 45.23C318.5 45.42 318.09 45.52 317.68 45.52C317.39 45.52 317.25 45.38 317.25 45.11C317.3 44.51 317.35 43.73 317.37 42.79V41.41C317.37 39.69 317.28 38.29 317.1 37.22L319.56 38.27H322.06V36.36H320.5V36.79C320.5 36.9 320.31 37.04 319.93 37.2C319.51 37.38 319.09 37.47 318.7 37.47C318.43 37.47 318.29 37.33 318.29 37.06C318.34 36.51 318.39 35.8 318.41 34.92V33.63C318.41 32.06 318.33 30.75 318.16 29.71L320.6 30.74H325.59L326.06 30.16C326.06 30.16 326.16 30.06 326.22 29.98C326.44 29.71 326.59 29.57 326.67 29.57C326.81 29.57 327.19 29.82 327.82 30.32C328.45 30.82 328.76 31.14 328.76 31.3C328.58 31.51 328.31 31.64 327.96 31.71V33.33C327.99 34.63 328.03 35.66 328.08 36.43C328.01 36.58 327.76 36.74 327.34 36.9C326.9 37.08 326.5 37.17 326.15 37.17H325.78V36.37H324.18V38.28H326.73L327.18 37.71C327.22 37.66 327.28 37.58 327.37 37.48C327.56 37.23 327.7 37.11 327.78 37.11C327.92 37.11 328.3 37.36 328.93 37.85C329.56 38.34 329.87 38.66 329.87 38.82C329.72 39.04 329.45 39.18 329.07 39.23V43.34C329.07 44.09 328.92 44.63 328.62 44.94C328.24 45.35 327.5 45.6 326.42 45.7H326.45ZM320.52 33.34H322.08V31.35H320.52V33.34ZM320.52 35.8H322.08V33.91H320.52V35.8ZM324.22 33.34H325.82V31.35H324.22V33.34ZM324.22 35.8H325.82V33.91H324.22V35.8ZM326.95 41V38.86H324.22V40.85L325.21 40.83C325.03 40.26 324.83 39.78 324.59 39.39L324.8 39.29C325.94 39.74 326.65 40.31 326.96 40.99L326.95 41Z" fill="white"/>
<path d="M341.82 42.02C341.03 42.02 340.34 41.73 339.77 41.16C339.2 40.59 338.91 39.9 338.91 39.11C338.91 38.32 339.19 37.64 339.76 37.07C340.33 36.5 341.02 36.22 341.82 36.22C342.62 36.22 343.31 36.5 343.87 37.06C344.43 37.62 344.71 38.31 344.71 39.11C344.71 39.91 344.43 40.61 343.86 41.17C343.29 41.74 342.61 42.02 341.82 42.02ZM341.82 41.28C342.41 41.28 342.92 41.07 343.34 40.64C343.76 40.22 343.98 39.7 343.98 39.1C343.98 38.5 343.77 37.99 343.35 37.57C342.93 37.15 342.42 36.94 341.82 36.94C341.22 36.94 340.7 37.15 340.28 37.57C339.86 37.99 339.64 38.5 339.64 39.1C339.64 39.7 339.85 40.22 340.28 40.64C340.7 41.06 341.22 41.28 341.82 41.28Z" fill="white"/>
</svg>
