<svg width="238" height="21" viewBox="0 0 238 21" fill="none" xmlns="http://www.w3.org/2000/svg">
<path d="M48 13L0 12.5077L48 12V13Z" fill="white"/>
<path d="M190 12L238 12.5077L190 13V12Z" fill="white"/>
<path d="M52.822 11.474L53.326 13.42C54.6 13.112 56.196 12.72 57.652 12.342L57.4 10.48C55.762 10.858 54.026 11.25 52.822 11.474ZM52.962 7.106V8.982H57.316V7.106H52.962ZM54.32 4.53V15.674C54.32 15.842 54.278 15.898 54.11 15.898C53.97 15.898 53.55 15.898 53.186 15.884C53.424 16.402 53.648 17.214 53.704 17.718C54.586 17.718 55.216 17.662 55.692 17.354C56.182 17.046 56.308 16.556 56.308 15.688V4.53H54.32ZM59.99 7.162V8.492H63.28V7.162H59.99ZM59.248 10.69V11.852H63.602V10.69H59.248ZM60.13 16.024V17.452H64.176V16.024H60.13ZM59.43 8.954V10.34H63.224V12.23H59.36V13.602H65.03V8.954H59.43ZM59.402 13.98V17.816H61.096V15.408H63.644V17.788H65.422V13.98H59.402ZM58.086 8.954V11.194C58.086 12.79 57.974 15.072 56.658 16.64C57.12 16.85 57.974 17.424 58.31 17.746C59.738 15.982 60.004 13.154 60.004 11.222V8.954H58.086ZM61.236 4.306C60.284 5.65 58.548 6.826 56.882 7.512C57.176 7.932 57.652 8.884 57.806 9.29C59.738 8.338 61.726 6.728 62.916 4.978L61.236 4.306ZM62.272 4.922L60.942 5.776C62.048 6.994 63.854 8.338 65.52 9.122C65.66 8.632 65.996 7.792 66.29 7.344C64.806 6.854 63.154 5.846 62.272 4.922ZM73.78 6.714H73.416L71.974 8.24V14.96H73.78V8.31H79.772V6.714H73.78ZM72.856 8.94V10.452H79.17V8.94H72.856ZM72.954 11.11V12.622H79.198V11.11H72.954ZM72.87 13.308V14.96H79.94V13.308H72.87ZM75.306 7.33V14.134H77.056V7.33H75.306ZM72.954 4.628C72.408 6.28 71.428 7.876 70.35 8.898C70.644 9.304 71.134 10.2 71.302 10.592C72.646 9.276 73.864 7.162 74.592 5.104L72.954 4.628ZM75.124 5.188C75.46 5.916 75.782 6.868 75.88 7.456L77.63 6.938C77.504 6.336 77.14 5.412 76.776 4.726L75.124 5.188ZM67.326 5.454C67.984 6.154 68.81 7.134 69.202 7.736L70.742 6.602C70.308 6.042 69.51 5.174 68.824 4.516L67.326 5.454ZM67.06 7.82V9.416H69.972V7.82H67.06ZM70.098 13.714L68.74 14.232C69.762 17.13 71.442 17.592 74.676 17.592C76.37 17.592 78.176 17.55 79.716 17.452C79.814 16.906 80.08 15.996 80.36 15.59C78.68 15.758 76.23 15.856 74.718 15.856C72.324 15.842 70.784 15.632 70.098 13.714ZM69.454 11.166V11.46C69.132 13.868 68.18 15.59 66.654 16.486C67.032 16.752 67.69 17.452 67.942 17.83C69.608 16.752 70.756 14.638 71.218 11.474L70.252 11.124L69.944 11.166H69.454ZM67.354 12.944C67.48 12.818 67.914 12.72 68.236 12.72H69.986L70 11.166H68.012L67.354 11.516V12.944ZM67.354 12.944C67.354 12.524 68.67 11.88 68.67 11.88C69.454 10.97 70.616 9.248 71.26 8.282L70.056 7.75L69.566 7.946V8.002C69.09 8.786 67.886 10.508 67.494 10.886C67.214 11.18 66.976 11.292 66.738 11.348C66.906 11.698 67.256 12.538 67.354 12.944ZM83.608 15.17V17.13H91.238V15.17H83.608ZM82.614 11.474V17.816H84.7V13.42H90.188V17.816H92.386V11.474H82.614ZM88.522 6.714C89.782 8.03 91.392 9.864 92.064 11.054L93.786 9.794C93.03 8.604 91.336 6.868 90.104 5.65L88.522 6.714ZM82.32 10.676C82.32 10.326 83.482 9.724 83.482 9.724V9.668C84.924 8.52 86.534 6.826 87.724 5.076L85.666 4.194C84.784 5.846 83.314 7.512 82.838 7.946C82.376 8.38 82.068 8.632 81.648 8.73C81.886 9.276 82.222 10.284 82.32 10.676ZM82.32 10.676C83.188 10.382 84.35 10.368 92.218 10.018C92.134 9.584 92.05 8.744 92.036 8.184L83.622 8.394L82.292 9.094L82.32 10.676ZM95.256 5.552V7.442H107.744V5.552H95.256ZM98.434 11.796V13.35H104.496V11.796H98.434ZM98.14 13.994V15.604H104.832V13.994H98.14ZM100.492 12.566V17.354H102.41V12.566H100.492ZM95.648 8.254V17.788H97.692V10.116H105.798V8.254H95.648ZM105.252 8.254V15.828C105.252 16.038 105.168 16.108 104.916 16.108C104.706 16.122 103.824 16.122 103.25 16.08C103.502 16.528 103.81 17.27 103.908 17.774C105.028 17.774 105.868 17.76 106.498 17.48C107.128 17.2 107.352 16.766 107.352 15.842V8.254H105.252ZM98.868 10.438C99.134 10.914 99.428 11.558 99.54 11.978L101.234 11.418C101.08 11.012 100.786 10.41 100.492 9.976L98.868 10.438ZM102.634 10.032C102.466 10.536 102.144 11.236 101.878 11.712L103.32 12.132C103.614 11.726 103.964 11.138 104.342 10.494L102.634 10.032ZM100.422 4.67V9.584H102.648V4.67H100.422ZM117.95 15.1C118.888 15.884 120.176 17.004 120.75 17.718L122.304 16.416C121.66 15.702 120.33 14.652 119.42 13.952L117.95 15.1ZM119.378 8.464C118.426 10.34 116.298 12.216 113.75 13.168C114.1 13.546 114.618 14.274 114.87 14.722C117.656 13.546 119.924 11.46 121.296 9.108L119.378 8.464ZM120.092 11.25C118.972 13.406 116.368 15.282 113.05 16.122C113.414 16.556 113.974 17.354 114.226 17.844C117.796 16.78 120.554 14.68 122.206 11.992L120.092 11.25ZM113.974 6.042V7.89H122.066V6.042H113.974ZM114.352 11.67C114.352 11.18 116.508 10.536 116.508 10.536C117.194 9.584 118.146 8.002 118.762 7.008H116.648C116.298 7.61 115.43 9.01 115.122 9.346C114.828 9.64 114.268 9.766 113.89 9.836C114.044 10.27 114.282 11.208 114.352 11.67ZM114.352 11.67C114.772 11.502 115.444 11.39 119.07 11.152C119.154 10.76 119.378 10.018 119.588 9.528L115.234 9.738L114.31 10.284L114.352 11.67ZM116.676 4.936C116.942 5.552 117.194 6.378 117.264 6.896L119.308 6.252C119.21 5.72 118.888 4.95 118.594 4.362L116.676 4.936ZM108.976 7.092V8.968H113.834V7.092H108.976ZM110.586 4.53V17.83H112.532V4.53H110.586ZM110.67 8.534C110.334 10.186 109.592 12.272 108.682 13.406C109.004 13.966 109.438 14.904 109.62 15.492C110.586 14.022 111.356 11.306 111.72 8.968L110.67 8.534ZM112.448 9.276L111.566 9.976C111.972 10.746 112.672 12.314 112.98 13.21L114.142 11.866C113.904 11.446 112.77 9.668 112.448 9.276ZM126.616 8.59V14.876C126.616 16.892 127.162 17.536 129.164 17.536C129.556 17.536 130.816 17.536 131.236 17.536C133.056 17.536 133.588 16.682 133.798 14.022C133.252 13.882 132.356 13.518 131.894 13.168C131.796 15.24 131.684 15.646 131.054 15.646C130.746 15.646 129.738 15.646 129.444 15.646C128.828 15.646 128.744 15.562 128.744 14.876V8.59H126.616ZM123.914 9.29C123.76 11.292 123.382 13.35 122.934 14.862L125.02 15.702C125.44 14.064 125.734 11.586 125.916 9.668L123.914 9.29ZM132.622 9.57C133.336 11.222 134.022 13.448 134.232 14.876L136.304 14.008C136.01 12.552 135.31 10.452 134.526 8.786L132.622 9.57ZM126.994 5.986C128.296 6.84 130.06 8.142 130.83 9.01L132.342 7.4C131.474 6.532 129.64 5.342 128.38 4.586L126.994 5.986ZM178.607 11.138C178.803 11.628 178.985 12.286 179.013 12.72L181.169 12.3C181.099 11.88 180.903 11.25 180.679 10.802L178.607 11.138ZM174.505 11.656V13.224H185.103V11.656H174.505ZM178.439 13.77V15.296H182.289V13.77H178.439ZM181.785 13.77V13.994C181.715 15.31 181.603 15.898 181.421 16.08C181.281 16.178 181.141 16.206 180.931 16.206C180.651 16.206 180.063 16.192 179.461 16.136C179.755 16.584 179.965 17.284 179.993 17.802C180.749 17.816 181.449 17.816 181.869 17.76C182.359 17.718 182.765 17.606 183.115 17.256C183.465 16.878 183.647 16.052 183.759 14.442C183.787 14.218 183.801 13.77 183.801 13.77H181.785ZM177.627 12.384C177.459 14.204 177.193 15.492 174.351 16.234C174.757 16.612 175.261 17.354 175.443 17.83C178.859 16.78 179.433 14.932 179.657 12.384H177.627ZM174.827 7.358V8.884H182.359V9.388H174.827V10.914H184.361V7.358H174.827ZM182.751 4.558C180.525 5.076 176.927 5.44 173.693 5.608C173.875 6 174.127 6.728 174.197 7.176C177.501 7.05 181.351 6.7 184.277 6.056L182.751 4.558ZM173.679 5.608V10.27C173.679 12.244 173.553 14.82 172.013 16.528C172.377 16.794 173.175 17.634 173.455 18.04C175.359 16.066 175.695 12.58 175.695 10.284V5.608H173.679Z" fill="white"/>
<g clip-path="url(#clip0_1275_142)">
<path d="M141.93 15.39H148.79C148.96 15.39 149.09 15.35 149.18 15.28C149.27 15.2 149.34 15.07 149.39 14.87H149.65V17.94H149.39C149.34 17.74 149.26 17.61 149.18 17.53C149.09 17.45 148.96 17.42 148.79 17.42H140.06C139.78 17.42 139.59 17.45 139.49 17.52C139.39 17.59 139.32 17.73 139.27 17.95H139C139 17.68 139 17.5 139 17.42C139 16.72 139.08 16.14 139.24 15.69C139.56 14.77 140.17 13.99 141.05 13.35C141.5 13.02 142.25 12.62 143.28 12.15L144.67 11.52C145.32 11.22 145.79 10.91 146.08 10.59C146.37 10.27 146.51 9.89 146.51 9.45C146.51 8.95 146.34 8.57 146 8.31C145.66 8.05 145.16 7.92 144.51 7.92C143.72 7.92 142.98 8.11 142.29 8.5C141.63 8.87 141.3 9.26 141.3 9.65C141.3 9.74 141.34 9.92 141.43 10.17L141.25 10.36L139.05 7.99L139.25 7.81C139.46 7.91 139.61 7.96 139.71 7.96C139.8 7.96 139.87 7.94 139.94 7.9C140.01 7.86 140.14 7.75 140.34 7.57C141.54 6.52 143.03 6 144.8 6C146.07 6 147.09 6.31 147.85 6.94C148.62 7.58 149.01 8.42 149.01 9.48C149.01 10.54 148.64 11.38 147.9 12.06C147.41 12.5 146.76 12.91 145.94 13.28L144.67 13.85C144.54 13.92 144.24 14.04 143.77 14.23C143.2 14.46 142.8 14.65 142.57 14.79C142.34 14.94 142.13 15.14 141.93 15.4V15.39Z" fill="white"/>
<path d="M155.75 11.4V14.23H155.49C155.44 14.03 155.36 13.9 155.28 13.82C155.19 13.74 155.06 13.71 154.89 13.71H152.87C152.71 13.71 152.58 13.75 152.49 13.83C152.4 13.91 152.33 14.04 152.28 14.24H152.02V11.41H152.28C152.33 11.6 152.4 11.74 152.5 11.82C152.6 11.9 152.72 11.94 152.89 11.94H154.96C155.13 11.94 155.27 11.9 155.36 11.83C155.45 11.75 155.52 11.62 155.56 11.42H155.76L155.75 11.4Z" fill="white"/>
<path d="M166.89 11.53C168.13 12 168.76 12.82 168.76 14.01C168.76 15.2 168.23 16.15 167.16 16.78C166.22 17.33 165.05 17.61 163.64 17.61C162.14 17.61 160.79 17.32 159.57 16.73C159.06 16.48 158.73 16.36 158.58 16.36C158.44 16.36 158.26 16.46 158.02 16.66L157.78 16.54L159.09 13.52L159.34 13.63C159.31 13.7 159.3 13.75 159.3 13.8C159.3 14.1 159.45 14.37 159.75 14.61C160.14 14.93 160.69 15.19 161.42 15.39C162.14 15.6 162.87 15.7 163.6 15.7C164.29 15.7 164.88 15.59 165.37 15.36C165.99 15.07 166.31 14.63 166.31 14.02C166.31 13.49 166.09 13.09 165.64 12.83C165.2 12.56 164.54 12.43 163.68 12.43C163.15 12.43 162.79 12.47 162.59 12.55C162.39 12.63 162.26 12.78 162.21 13H161.95V10.25H162.21C162.28 10.5 162.4 10.66 162.58 10.73C162.76 10.8 163.11 10.84 163.63 10.84C164.44 10.84 165.06 10.7 165.49 10.41C165.87 10.17 166.06 9.82001 166.06 9.37001C166.06 8.92001 165.85 8.55001 165.43 8.29001C165.01 8.04001 164.41 7.91001 163.62 7.91001C162.51 7.91001 161.54 8.15001 160.7 8.64001C160.29 8.88001 160.09 9.13001 160.09 9.40001C160.09 9.50001 160.13 9.63001 160.2 9.77001L159.99 9.93001L158.1 7.61001L158.31 7.45001C158.51 7.54001 158.66 7.59001 158.76 7.59001C158.87 7.59001 159.02 7.53001 159.2 7.40001C160.57 6.47001 162.11 6.01001 163.81 6.01001C164.99 6.01001 165.99 6.24001 166.8 6.71001C167.27 6.98001 167.63 7.33001 167.89 7.75001C168.16 8.19001 168.29 8.69001 168.29 9.24001C168.29 10.22 167.82 10.99 166.88 11.54L166.89 11.53Z" fill="white"/>
</g>
<defs>
<clipPath id="clip0_1275_142">
<rect width="29.75" height="11.94" fill="white" transform="translate(139 6)"/>
</clipPath>
</defs>
</svg>
