<svg width="238" height="83" viewBox="0 0 238 83" fill="none" xmlns="http://www.w3.org/2000/svg">
<path d="M11.675 55.5V58.125H23.55V55.5H11.675ZM14.6 60.1V62.7H20.1V60.1H14.6ZM13.1 60.1V65.725C13.1 68.25 12.9 71.4 10.725 73.625C11.375 73.925 12.575 74.8 13.075 75.275C15.5 72.8 15.9 68.8 15.9 65.8V60.1H13.1ZM18.475 60.1V71.225C18.475 73.075 18.65 73.65 19.05 74.1C19.475 74.55 20.1 74.75 20.7 74.75C21.025 74.75 21.5 74.75 21.875 74.75C22.375 74.75 22.925 74.65 23.25 74.35C23.625 74.1 23.875 73.65 24.025 73.075C24.15 72.475 24.25 70.975 24.275 69.75C23.625 69.55 22.775 69.125 22.275 68.675C22.275 69.925 22.25 70.925 22.225 71.375C22.2 71.825 22.15 72.025 22.075 72.1C22.025 72.2 21.925 72.225 21.825 72.225C21.75 72.225 21.65 72.225 21.575 72.225C21.475 72.225 21.4 72.2 21.35 72.1C21.325 72 21.325 71.7 21.325 71.15V60.1H18.475ZM14.95 52.5C15.65 53.925 16.35 55.825 16.575 57L19.425 56.2C19.175 54.975 18.4 53.15 17.65 51.775L14.95 52.5ZM3.55 54.8V57.125H8.825V54.8H3.55ZM8.225 54.8V72.2C8.225 72.5 8.125 72.6 7.85 72.6C7.55 72.6 6.725 72.625 5.9 72.575C6.25 73.25 6.6 74.4 6.675 75.125C8.15 75.125 9.125 75.05 9.875 74.625C10.625 74.175 10.825 73.45 10.825 72.25V54.8H8.225ZM2.375 54.8V64.2C2.375 67.325 2.25 71.3 0.575 74C1.2 74.275 2.375 75.025 2.85 75.475C4.7 72.5 4.975 67.7 4.975 64.2V54.8H2.375ZM4.925 58.375C5.4 59.45 5.95 60.9 6.175 61.85L8.05 61.05C7.8 60.15 7.25 58.75 6.725 57.675L4.925 58.375ZM5.3 51.725C5.15 52.875 4.825 54.45 4.525 55.55L6.875 56.075C7.275 55.1 7.8 53.65 8.3 52.2L5.3 51.725ZM4.85 66.075C5.425 67.225 6.1 68.775 6.375 69.775L8.25 68.925C7.925 67.975 7.225 66.475 6.625 65.325L4.85 66.075ZM0.6 63.075L0.925 65.55C4 65.075 8.175 64.425 12.1 63.8L11.925 61.575C7.775 62.15 3.45 62.775 0.6 63.075ZM36.05 66.55V73.275H39.225V66.55H36.05ZM26.525 54.375V60.525H29.5V57.1H45.325V60.025H48.425V54.375H26.525ZM29.375 65.1V67.875H46.1V65.1H29.375ZM26.575 71.875V74.725H48.55V71.875H26.575ZM34.975 52.4C35.525 53.575 36.125 55.15 36.375 56.125L39.75 55.1C39.45 54.15 38.725 52.65 38.175 51.55L34.975 52.4ZM33.725 56.425C33.55 59.9 33 61.325 26.45 61.975C26.975 62.55 27.65 63.7 27.825 64.45C35.475 63.45 36.525 61.1 36.825 56.425H33.725ZM38.825 56.375V60.1C38.825 62.8 39.625 63.775 42.625 63.775C43.225 63.775 45.825 63.775 46.5 63.775C47.45 63.775 48.525 63.725 49.05 63.55C48.95 62.85 48.85 61.7 48.8 60.9C48.25 61.05 47.125 61.1 46.4 61.1C45.725 61.1 43.25 61.1 42.675 61.1C41.925 61.1 41.8 60.85 41.8 60.15V56.375H38.825ZM59.4 56.475C58.15 58.35 55.85 60.25 52.325 61.6C52.975 62.075 53.9 63.125 54.3 63.825C58.15 62.05 60.7 59.8 62.6 57.1L59.4 56.475ZM60.225 58.15L58.2 60.4H67.7V58.15H60.225ZM66.8 58.15V58.575C64.25 62.75 57.45 65.425 50.65 66.425C51.175 67.075 51.8 68.325 52.075 69.075C59.375 67.75 66.575 64.775 69.925 59.225L67.9 58.025L67.375 58.15H66.8ZM58.9 59.85L56.3 61C59.875 65.25 65.575 67.7 72.45 68.65C72.875 67.8 73.7 66.45 74.375 65.75C67.625 65.1 61.8 63.1 58.9 59.85ZM55.325 67.425V75.25H58.275V69.875H66.725V75.2H69.825V67.425H55.325ZM57.075 72.025V74.475H68.275V72.025H57.075ZM51.725 53.825V59.35H54.675V56.525H70.225V59.35H73.275V53.825H51.725ZM60.25 52.175C60.825 53.3 61.55 54.825 61.875 55.725L65.025 54.9C64.65 53.975 63.85 52.525 63.225 51.475L60.25 52.175ZM89.2 55.425V71.575H92.125V55.425H89.2ZM86.75 63.85H94.7V64.85H86.75V63.85ZM86.75 61.15H94.7V62.125H86.75V61.15ZM84.325 59.3V66.675H97.225V59.3H84.325ZM82.975 52.55V57.4H85.725V54.75H95.3V57.4H98.175V52.55H82.975ZM85.025 56.325V58.4H96.3V56.325H85.025ZM83.275 67.725V69.95H98.475V67.725H83.275ZM76.65 53.1C77.7 54.35 79.05 56.1 79.675 57.175L82.025 55.575C81.35 54.55 80.025 52.975 78.9 51.775L76.65 53.1ZM76.05 57.65V60.05H81.275V57.65H76.05ZM81.125 68.475L79.125 69.275C80.975 74.075 84.075 74.825 89.875 74.825C92.8 74.825 96 74.775 98.625 74.6C98.775 73.8 99.15 72.45 99.575 71.85C96.725 72.125 92.6 72.275 89.925 72.275C85.4 72.25 82.45 71.85 81.125 68.475ZM80.125 63.675V64.125C79.575 68.5 78 71.65 75.525 73.325C76.1 73.725 77.075 74.75 77.475 75.325C80.125 73.35 82.025 69.6 82.75 64.125L81.5 63.625L81.025 63.675H80.125ZM76.525 66.4C76.725 66.175 77.45 66 78.05 66H81.275V63.675H77.6L76.525 64.25V66.4ZM76.525 66.4C76.525 65.725 78.525 64.75 78.525 64.75C79.925 63.125 82.05 60.025 83.2 58.3L81.375 57.475L80.625 57.8V57.875C79.775 59.25 77.575 62.45 76.85 63.15C76.375 63.675 75.975 63.85 75.55 63.95C75.825 64.5 76.35 65.775 76.525 66.4ZM105.425 59.35V61.025H119.4V59.35H105.425ZM106.625 56.75V58.4H118.375V56.75H106.625ZM111.025 55.725V60.35H113.75V55.725H111.025ZM111.225 64.35C109.825 65.45 107.175 66.3 104.8 66.825C105.225 67.225 105.925 68.075 106.225 68.475C108.675 67.775 111.55 66.55 113.2 65.075L111.225 64.35ZM117.9 65.6C117.15 66.25 115.825 67.175 114.85 67.725L116.325 68.75C117.325 68.275 118.6 67.55 119.675 66.75L117.9 65.6ZM109.2 63H115.675V64.05H109.2V63ZM106.725 61.725V65.325H118.275V61.725H106.725ZM101.775 52.725V75.275H104.575V55.425H120.25V75.275H123.2V52.725H101.775ZM103.55 71.675V74.35H121.85V71.675H103.55ZM111.875 66.55C113.95 67.85 116.6 69.75 117.85 70.925L119.775 69.775C118.35 68.55 115.65 66.75 113.675 65.55L111.875 66.55ZM108.05 71.65C108.475 71.4 109.2 71.15 113.5 70.075C113.425 69.65 113.425 68.825 113.475 68.3L108.8 69.35L107.925 70.025L108.05 71.65ZM108.05 71.65C108.05 70.975 110.35 70.075 110.35 70.075V66.125L108.225 66.1V68.725C108.225 69.65 107.75 69.925 107.4 70.1C107.625 70.425 107.95 71.2 108.05 71.65ZM136.825 58.4H140.925V60.475H136.825V58.4ZM134.025 56.45V62.45H143.9V56.45H134.025ZM133.875 65.55H135.825V68.3H133.875V65.55ZM131.45 63.525V70.3H138.375V63.525H131.45ZM141.975 65.55H144V68.3H141.975V65.55ZM139.5 63.525V70.3H146.6V63.525H139.5ZM126.4 52.65V55.3H147.75V52.65H126.4ZM127.4 52.7V68.35C127.4 72.975 129.475 74.35 133.9 74.35C135 74.35 142.1 74.35 143.8 74.35C145.825 74.35 148.05 74.325 149 74.075C148.85 73.375 148.675 72 148.6 71.25C147.55 71.475 145.55 71.6 143.95 71.6C142.15 71.6 135.125 71.6 133.65 71.6C131.075 71.6 130.325 70.75 130.325 68.575V52.7H127.4ZM224.655 63.175C225.13 64.05 225.555 65.25 225.68 66.05L228.83 65.375C228.63 64.6 228.18 63.45 227.68 62.625L224.655 63.175ZM217.18 64.425V66.775H236.155V64.425H217.18ZM224.08 68.1V70.4H231.555V68.1H224.08ZM230.78 68.1V68.45C230.58 71.125 230.33 72.275 229.98 72.625C229.73 72.825 229.48 72.85 229.08 72.85C228.605 72.85 227.48 72.825 226.355 72.725C226.78 73.4 227.105 74.45 227.13 75.2C228.48 75.25 229.73 75.25 230.43 75.175C231.255 75.1 231.88 74.925 232.455 74.375C233.08 73.725 233.43 72.25 233.68 69.15C233.73 68.8 233.755 68.1 233.755 68.1H230.78ZM223.03 65.475C222.68 69.05 221.98 71.55 216.83 72.925C217.43 73.475 218.18 74.575 218.455 75.275C224.43 73.45 225.58 70.125 226.005 65.475H223.03ZM217.63 56.675V58.95H231.705V60.45H217.63V62.725H234.68V56.675H217.63ZM232.08 51.825C228.205 52.7 221.68 53.375 215.93 53.675C216.205 54.25 216.58 55.325 216.68 56C222.53 55.75 229.38 55.125 234.355 54.025L232.08 51.825ZM215.93 53.675V61.825C215.93 65.425 215.68 70.15 213.005 73.35C213.555 73.725 214.73 74.95 215.155 75.525C218.355 71.95 218.88 65.9 218.88 61.85V53.675H215.93Z" fill="white"/>
<path d="M157.505 74H174.165V70.57H167.725C166.465 70.57 164.82 70.71 163.49 70.85C168.95 65.6 172.94 60.455 172.94 55.52C172.94 50.83 169.895 47.785 165.17 47.785C161.81 47.785 159.535 49.22 157.295 51.635L159.605 53.84C160.97 52.265 162.65 51.005 164.68 51.005C167.55 51.005 169.02 52.93 169.02 55.695C169.02 59.93 165.135 64.935 157.505 71.655V74ZM177.606 65.635H186.846V62.625H177.606V65.635ZM197.816 74.49C202.576 74.49 206.461 71.76 206.461 67.105C206.461 63.605 204.116 61.4 201.141 60.63V60.455C203.871 59.44 205.586 57.375 205.586 54.4C205.586 50.165 202.331 47.785 197.711 47.785C194.736 47.785 192.356 49.045 190.291 50.865L192.426 53.42C193.896 51.95 195.576 51.005 197.536 51.005C200.021 51.005 201.491 52.44 201.491 54.715C201.491 57.305 199.811 59.195 194.771 59.195V62.205C200.546 62.205 202.366 64.025 202.366 66.895C202.366 69.555 200.371 71.165 197.501 71.165C194.806 71.165 192.916 69.87 191.411 68.33L189.416 70.92C191.166 72.88 193.791 74.49 197.816 74.49Z" fill="#FFF100"/>
<path d="M14.2215 8.6015V12.0215H25.137V8.6015H14.2215ZM17.043 9.998C16.7865 13.19 15.5895 15.4985 12.939 16.838C13.794 17.3225 15.447 18.548 16.1025 19.2035C18.81 17.351 20.406 14.444 20.8905 10.226L17.043 9.998ZM22.971 8.6015V9.1145C22.857 13.133 22.686 14.6435 22.3725 15.071C22.1445 15.299 21.888 15.356 21.546 15.356C21.1185 15.356 20.3775 15.356 19.494 15.2705C20.0355 16.1825 20.4345 17.6645 20.4915 18.719C21.774 18.7475 22.9425 18.719 23.6835 18.605C24.4815 18.4625 25.1655 18.206 25.764 17.4935C26.448 16.6385 26.7045 14.5295 26.8755 9.941C26.904 9.5135 26.904 8.6015 26.904 8.6015H22.971ZM1.824 10.2545V13.817H13.395V10.2545H1.824ZM1.14 15.926V19.5455H13.851V15.926H1.14ZM7.923 22.1105V25.673H13.452V22.1105H7.923ZM5.7855 7.661V17.807H9.576V7.661H5.7855ZM6.4125 18.035V30.4895H10.0605V18.035H6.4125ZM4.902 23.336L1.9665 24.1625C3.99 32.627 7.866 33.995 15.3615 33.995H26.5335C26.79 32.741 27.474 30.8315 28.101 29.891C25.0515 30.062 18.012 30.062 15.39 30.0335C9.6615 30.0335 6.4125 29.3495 4.902 23.336ZM1.824 20.657C1.824 25.445 1.6245 30.0905 0.2565 32.912C1.14 33.254 2.8785 34.166 3.5625 34.6505C4.9875 31.373 5.358 26.3 5.415 20.885L1.824 20.657ZM18.6675 22.823H22.0875V25.388H18.6675V22.823ZM14.82 19.5455V28.637H26.22V19.5455H14.82ZM34.884 7.7465C33.516 11.6795 31.1505 15.6125 28.6995 18.092C29.3835 19.118 30.495 21.4265 30.8655 22.4525C33.972 19.1465 36.9645 13.8455 38.7885 8.972L34.884 7.7465ZM32.205 15.926V34.679H36.138V12.0215V11.993L32.205 15.926ZM42.066 18.0065V21.8255H55.9455V18.0065H42.066ZM52.497 7.49C49.1055 8.7725 43.8045 9.9125 38.9025 10.568C39.3585 11.423 39.9 12.905 40.071 13.817C45.1725 13.19 51.015 12.164 55.518 10.5965L52.497 7.49ZM47.1105 11.6795C47.538 24.8465 49.191 34.28 53.352 34.28C54.5205 34.28 56.0025 33.254 56.7435 28.58C56.145 28.2665 54.663 27.2405 54.036 26.471C53.922 28.5515 53.694 29.663 53.3805 29.663C52.4685 29.663 51.015 21.0275 50.844 11.6795H47.1105ZM38.9025 31.8005C39.672 31.316 40.869 30.86 47.0535 29.264C46.9395 28.409 46.911 26.8415 46.9965 25.7585L40.071 27.2975L38.532 28.466L38.9025 31.8005ZM38.9025 31.8005C38.9025 30.518 42.75 28.8365 42.75 28.8365V11.6795L38.9025 10.568V26.4425C38.9025 27.6395 38.1615 28.2665 37.506 28.58C38.0475 29.321 38.703 30.8885 38.9025 31.8005ZM41.667 30.7175V34.0235H49.3905V30.7175H41.667ZM73.644 24.3905C75.81 27.668 78.5175 32.0855 79.7145 34.85L84.018 32.5415C82.6215 29.8055 80.028 25.73 77.7195 22.538L73.644 24.3905ZM65.037 8.174C63.327 12.1925 60.3345 16.3535 57.3705 18.833C58.425 19.6595 60.2775 21.4835 61.0755 22.424C64.125 19.403 67.5735 14.3585 69.711 9.6845L65.037 8.174ZM61.218 33.9095C61.218 33.1115 64.2675 31.601 64.2675 31.601V31.487C67.7445 28.2095 71.5635 23.564 74.328 18.7475L69.3975 16.6955C67.26 21.341 63.6975 26.1005 62.4435 27.2975C61.3035 28.523 60.591 29.1785 59.5365 29.4635C60.135 30.7175 60.933 33.026 61.218 33.9095ZM61.218 33.9095C62.928 33.254 65.265 33.1115 80.7975 31.7435C80.5125 30.803 80.0565 29.036 79.857 27.782L63.7545 28.8935L61.0755 30.3755L61.218 33.9095ZM73.359 8.3165V10.568H74.1855C75.6675 14.615 78.4035 19.2605 82.308 22.2815C82.992 20.9705 84.5025 18.947 85.443 18.0065C81.852 15.8975 79.3725 12.0215 78.204 8.3165H73.359ZM70.851 8.3165V12.5915H76.6365V8.3165H70.851ZM87.666 16.382V19.46H96.615V16.382H87.666ZM87.666 20.315V23.393H96.7005V20.315H87.666ZM86.4405 12.3065V15.527H97.812V12.3065H86.4405ZM89.547 24.3335V27.5825H93.1095V29.9195H89.547V33.197H96.6435V24.3335H89.547ZM87.723 24.3335V34.337H91.2V24.3335H87.723ZM89.205 9.0005C89.889 10.283 90.7725 12.05 91.143 13.1615L94.449 11.3945C93.993 10.3115 93.1665 8.7155 92.397 7.49L89.205 9.0005ZM100.206 8.4875V12.3065H107.93V8.4875H100.206ZM97.242 19.8875V23.735H109.754V19.8875H97.242ZM108.3 19.8875V20.486C106.875 26.3285 102.458 29.6915 96.159 30.917C96.8715 31.829 97.755 33.539 98.154 34.622C105.365 32.7125 110.295 28.865 112.319 20.7995L109.725 19.745L109.041 19.8875H108.3ZM101.346 23.3075L97.812 24.533C100.605 29.7485 104.738 33.0545 110.951 34.5365C111.492 33.3965 112.604 31.6295 113.487 30.746C107.702 29.72 103.455 27.098 101.346 23.3075ZM99.465 8.4875V11.537C99.465 13.3895 99.18 15.299 96.0165 16.724C96.7575 17.294 98.1825 18.9185 98.6955 19.745C102.429 17.864 103.227 14.5865 103.227 11.6795V8.4875H99.465ZM105.878 8.4875V14.4725C105.878 17.7215 106.476 19.1465 109.611 19.1465C110.039 19.1465 110.523 19.1465 110.894 19.1465C111.521 19.1465 112.176 19.118 112.604 18.89C112.461 17.9495 112.404 16.5245 112.347 15.4985C111.977 15.641 111.264 15.7265 110.865 15.7265C110.637 15.7265 110.267 15.7265 110.039 15.7265C109.697 15.7265 109.668 15.356 109.668 14.5295V8.4875H105.878ZM132.682 10.9385V34.679H137.1V10.9385H132.682ZM123.591 9.1715V27.4115H127.866V13.133H141.831V27.4115H146.334V9.1715H123.591ZM125.529 15.641V19.5455H143.883V15.641H125.529ZM125.5 21.9965V25.958H143.854V21.9965H125.5ZM157.306 19.6595C158.161 21.512 158.931 23.9345 159.102 25.445L162.066 24.248C161.838 22.709 160.983 20.4005 160.042 18.605L157.306 19.6595ZM154.2 27.1835C154.485 29.0075 154.741 31.4015 154.77 32.969L157.705 32.1995C157.62 30.6605 157.306 28.3235 156.964 26.4995L154.2 27.1835ZM150.808 26.7275C150.694 29.036 150.438 31.5725 149.782 33.197C150.609 33.425 152.119 33.881 152.832 34.2515C153.402 32.5415 153.829 29.8055 153.972 27.2405L150.808 26.7275ZM151.065 19.3175C151.065 18.6335 153.288 17.4365 153.288 17.4365V17.351C155.14 15.1565 157.164 11.936 158.446 8.972L154.656 7.433C153.715 10.3685 152.034 13.418 151.464 14.216C150.894 15.0425 150.409 15.527 149.782 15.698C150.238 16.724 150.865 18.548 151.065 19.3175ZM151.065 19.289C151.692 19.004 152.718 18.7475 157.05 18.377C157.078 17.5505 157.278 16.097 157.477 15.0995L152.547 15.413L150.951 16.4675L151.065 19.289ZM151.293 25.9865C151.293 25.331 153.544 24.134 153.544 24.134V24.02C156.537 21.2555 159.615 17.408 161.752 13.646L158.361 11.4515C156.565 15.3845 153.459 19.46 152.433 20.486C151.464 21.5405 150.865 22.139 150.01 22.3385C150.466 23.3645 151.093 25.2455 151.293 25.9865ZM151.293 25.9865C152.034 25.559 153.259 25.2455 159.7 24.1055C159.672 23.336 159.729 21.8825 159.871 20.9135L152.632 21.968L151.065 23.0795L151.293 25.9865ZM157.192 26.585C157.677 28.0385 158.247 29.948 158.446 31.1735L161.296 30.1475C161.011 28.9505 160.441 27.098 159.9 25.673L157.192 26.585ZM160.954 8.744V12.62H170.986V8.744H160.954ZM170.017 8.744V9.143C169.789 11.138 169.219 14.729 168.649 17.522L172.44 17.9495C172.981 15.2135 173.58 11.936 173.922 8.9435L171.072 8.6015L170.445 8.744H170.017ZM164.859 16.724L164.26 20.372H173.608V16.724H164.859ZM172.44 16.724V17.465C171.528 23.678 168.592 29.1785 164.232 31.658C165.115 32.3705 166.227 33.7955 166.825 34.7645C172.012 31.4015 175.233 25.787 176.487 17.465L173.865 16.5815L173.152 16.724H172.44ZM163.092 10.3115C163.177 19.4315 162.778 27.4685 159.586 32C160.555 32.5415 162.522 33.9665 163.149 34.622C166.483 29.1785 167.025 20.543 167.11 10.34L163.092 10.3115ZM167.965 19.3175L164.659 20.0015C166.284 26.6705 168.934 31.8575 174.121 34.565C174.72 33.482 175.945 31.886 176.857 31.1165C172.069 29.0645 169.305 24.59 167.965 19.3175ZM187.716 23.165H195.354V24.134H187.716V23.165ZM183.897 20.714V26.585H199.458V20.714H183.897ZM181.816 27.4115V34.736H185.721V30.2045H198.289V34.736H202.393V27.4115H181.816ZM184.239 31.2875V34.1375H200.028V31.2875H184.239ZM179.28 16.8665V22.6235H183.241V19.9445H200.085V22.6235H204.246V16.8665H179.28ZM188.685 8.7725C188.343 9.656 187.687 10.91 187.117 11.7935L189.454 12.7055C190.138 11.993 191.022 10.91 191.991 9.7985L188.685 8.7725ZM183.726 14.1305C185.179 14.9855 187.231 16.268 188.2 17.066L190.68 14.558C189.597 13.7885 187.516 12.62 186.091 11.879L183.726 14.1305ZM183.925 7.6325C183.754 11.537 183.355 13.589 178.51 14.7575C179.223 15.413 180.135 16.7525 180.448 17.636C186.376 15.9545 187.26 12.8195 187.488 7.6325H183.925ZM201.424 8.7155C201.082 9.656 200.398 10.967 199.828 11.879L202.308 12.848C203.02 12.107 203.932 10.967 204.958 9.827L201.424 8.7155ZM196.209 14.3015C198.09 15.299 200.854 16.781 202.165 17.693L204.588 14.9C203.134 14.0165 200.313 12.6485 198.517 11.822L196.209 14.3015ZM196.266 7.6325C196.123 11.594 195.81 13.4465 190.765 14.501C191.506 15.2135 192.418 16.6385 192.703 17.522C198.945 15.983 199.771 12.9335 199.971 7.6325H196.266ZM178.852 9.827C179.593 10.7105 180.591 11.9075 181.047 12.6485L183.64 10.625C183.127 9.9125 182.073 8.801 181.303 8.003L178.852 9.827ZM190.965 9.8555C191.706 10.739 192.703 11.936 193.159 12.677L195.753 10.6535C195.24 9.941 194.185 8.8295 193.416 8.0315L190.965 9.8555ZM189.397 24.818C189.198 25.7015 188.713 26.984 188.343 27.8675L191.221 28.8365C191.677 28.0955 192.247 27.041 192.96 25.901L189.397 24.818ZM218.98 10.6535V14.1305H231.948V10.6535H218.98ZM215.674 15.812V19.2605H233.145V15.812H215.674ZM218.41 7.8605C217.726 10.283 216.415 12.7625 214.791 14.3015C215.703 14.7005 217.356 15.584 218.154 16.154C219.693 14.387 221.232 11.537 222.115 8.687L218.41 7.8605ZM222.4 7.6325V18.149H226.504V7.6325H222.4ZM207.694 9.5135C209.034 10.9385 210.715 12.9335 211.513 14.159L214.648 11.8505C213.765 10.7105 212.14 8.9435 210.744 7.604L207.694 9.5135ZM207.153 14.33V17.579H212.682V14.33H207.153ZM213.337 26.3285L210.573 27.383C212.653 33.2825 216.073 34.223 222.657 34.223C226.105 34.223 229.782 34.1375 232.917 33.938C233.116 32.8265 233.658 30.974 234.228 30.1475C230.808 30.4895 225.82 30.689 222.742 30.689C217.869 30.6605 214.734 30.233 213.337 26.3285ZM211.741 21.1415V21.74C211.114 26.6135 209.262 30.119 206.298 31.9715C207.067 32.513 208.407 33.938 208.92 34.7075C212.197 32.4845 214.42 28.1525 215.332 21.7685L213.366 21.056L212.739 21.1415H211.741ZM207.751 24.761C208.008 24.5045 208.891 24.305 209.49 24.305H212.739V21.1415H209.091L207.751 21.854V24.761ZM207.751 24.761C207.751 23.906 210.373 22.595 210.373 22.595C211.827 20.7425 213.936 17.123 215.104 15.1565L212.653 14.216L211.656 14.5865L211.684 14.7005C210.829 16.268 208.663 19.8305 207.951 20.6C207.438 21.1985 206.982 21.4265 206.497 21.569C206.868 22.253 207.552 23.9345 207.751 24.761ZM221.403 23.678H227.587V25.9295H221.403V23.678ZM217.441 20.4575V29.15H231.777V20.4575H217.441Z" fill="white"/>
</svg>
