<?xml version="1.0" encoding="utf-8"?>
<!-- Generator: Adobe Illustrator 27.8.1, SVG Export Plug-In . SVG Version: 6.00 Build 0)  -->
<svg version="1.1" id="圖層_1" xmlns="http://www.w3.org/2000/svg" xmlns:xlink="http://www.w3.org/1999/xlink" x="0px" y="0px"
	 viewBox="0 0 716 313" style="enable-background:new 0 0 716 313;" xml:space="preserve">
<style type="text/css">
	.st0{fill:#26694D;}
	.st1{fill:#251714;}
	.st2{fill:#231816;}
	.st3{fill-rule:evenodd;clip-rule:evenodd;fill:#9B2026;}
	.st4{fill:#9B2026;}
	.st5{fill:#E3DFDE;}
</style>
<g>
	<g>
		<g>
			<g>
				<path class="st0" d="M4.8,276.5c14.6-15.1,24.5-26.2,29.7-33.3s7.8-14,7.8-20.7c0-5.9-1.6-10.4-4.8-13.5
					c-3.2-3.1-7-4.6-11.4-4.6c-5.5,0-9.9,2-13.3,6c-1.9,2.2-3.7,5.6-5.4,10.1l-2.6-0.5c2-9.2,5.4-15.5,10.1-19.1
					c4.8-3.6,9.9-5.3,15.3-5.3c6.7,0,12.2,2.1,16.3,6.4c4.2,4.2,6.2,9.4,6.2,15.6c0,6.5-2.3,12.8-6.8,18.9
					c-4.5,6-14.3,16.8-29.3,32.3h27.4c3.8,0,6.5-0.5,8.1-1.4c1.6-0.9,3.3-3.1,5.3-6.7l1.6,0.7l-6.6,16.7H4.8V276.5z"/>
			</g>
			<g>
				<path class="st0" d="M73.9,227.1c-2.9-3.8-4.4-8-4.4-12.7c0-5.3,2.2-9.7,6.5-13.4c4.4-3.7,10-5.5,17-5.5
					c6.4,0,11.5,1.7,15.3,5.2c3.8,3.5,5.7,7.5,5.7,12.1c0,4.7-1.9,8.8-5.8,12.5c-2.2,2.1-5.8,4.5-10.8,7.3c6.8,5,11.6,9.4,14.5,13.1
					c2.9,3.7,4.4,8.1,4.4,13.2c0,5.7-2.2,10.6-6.5,14.5c-4.3,3.9-10.1,5.9-17.4,5.9c-6.5,0-12.1-1.8-16.7-5.4c-4.6-3.6-7-8.4-7-14.2
					c0-5.1,1.6-9.5,4.8-13.4c2.1-2.5,5.8-5.5,11-9C79.4,232.9,75.8,229.6,73.9,227.1z M103.5,272c2.3-2.5,3.5-5.7,3.5-9.5
					c0-4.3-1.2-7.8-3.7-10.5s-7.6-6.8-15.3-12.2c-3.4,2.1-5.9,4.9-7.5,8.4c-1.6,3.4-2.3,6.7-2.3,9.9c0,5.4,1.4,9.8,4.2,13
					c2.8,3.2,6.4,4.8,10.7,4.8C97.7,275.8,101.2,274.6,103.5,272z M101.7,223.6c2.5-3.1,3.7-6.8,3.7-11.1c0-3.8-1.2-7-3.5-9.6
					s-5.9-4-10.6-4c-3.7,0-6.7,1.2-9.1,3.5c-2.4,2.3-3.6,5.1-3.6,8.4c0,3.7,1.4,7.2,4.2,10.4c2.8,3.2,6.5,6.2,11.1,9
					C97.6,227.6,100.2,225.4,101.7,223.6z"/>
			</g>
			<g>
				<path class="st0" d="M141.7,271c3.6,2.3,6.7,3.4,9.2,3.4c5.6,0,9.7-1.9,12.4-5.7c2.7-3.8,4.1-7.9,4.1-12.3c0-4.3-1.1-8-3.3-11.3
					c-3.7-5.5-10-8.2-18.8-8.2c-0.5,0-1,0-1.5,0c-0.5,0-1,0.1-1.7,0.1l-0.1-1.6c6.4-2.3,11.4-5,15.1-7.9c3.7-3,5.5-6.9,5.5-11.8
					c0-4.3-1.4-7.6-4.3-9.9c-2.9-2.3-6.2-3.4-9.9-3.4c-4.4,0-8.2,1.6-11.6,4.8c-1.8,1.8-3.8,4.5-5.9,8.1l-1.9-0.4
					c1.6-6.1,4.6-10.9,8.9-14.5c4.3-3.6,9.4-5.4,15.1-5.4c6.1,0,10.8,1.7,14.1,5c3.3,3.3,5,7.2,5,11.6c0,3.9-1.4,7.4-4.1,10.6
					c-1.6,1.8-4,3.9-7.2,6.2c3.8,1.6,6.9,3.5,9.2,5.7c4.3,4.2,6.5,9.5,6.5,15.9c0,7.6-3,14.2-8.9,20c-6,5.8-14.4,8.7-25.4,8.7
					c-4.9,0-8.3-0.7-10.3-2.2c-2-1.5-3-3-3-4.7c0-1,0.3-2,1-3s1.7-1.4,3.2-1.4C135.2,267.5,138.1,268.7,141.7,271z"/>
			</g>
			<g>
				<path class="st0" d="M202.9,271c3.6,2.3,6.7,3.4,9.2,3.4c5.6,0,9.7-1.9,12.4-5.7c2.7-3.8,4.1-7.9,4.1-12.3c0-4.3-1.1-8-3.3-11.3
					c-3.7-5.5-10-8.2-18.8-8.2c-0.5,0-1,0-1.5,0c-0.5,0-1,0.1-1.7,0.1l-0.1-1.6c6.4-2.3,11.4-5,15.1-7.9c3.7-3,5.5-6.9,5.5-11.8
					c0-4.3-1.4-7.6-4.3-9.9c-2.9-2.3-6.2-3.4-9.9-3.4c-4.4,0-8.2,1.6-11.6,4.8c-1.8,1.8-3.8,4.5-5.9,8.1l-1.9-0.4
					c1.6-6.1,4.6-10.9,8.9-14.5c4.3-3.6,9.4-5.4,15.1-5.4c6.1,0,10.8,1.7,14.1,5c3.3,3.3,5,7.2,5,11.6c0,3.9-1.4,7.4-4.1,10.6
					c-1.6,1.8-4,3.9-7.2,6.2c3.8,1.6,6.9,3.5,9.2,5.7c4.3,4.2,6.5,9.5,6.5,15.9c0,7.6-3,14.2-8.9,20c-6,5.8-14.4,8.7-25.4,8.7
					c-4.9,0-8.3-0.7-10.3-2.2c-2-1.5-3-3-3-4.7c0-1,0.3-2,1-3s1.7-1.4,3.2-1.4C196.4,267.5,199.3,268.7,202.9,271z"/>
			</g>
			<g>
				<path class="st0" d="M250.2,235.9h30.2v7.6h-30.2V235.9z"/>
			</g>
			<g>
				<path class="st0" d="M336.4,270.4c-4.7,5.9-10.8,8.8-18.3,8.8c-7,0-13.4-3.3-19.1-9.9s-8.6-15.3-8.6-26.2
					c0-14.1,5.6-26.1,16.7-36.2c10-8.4,21.2-12.7,33.6-12.7l0.3,2c-5,0.9-9.3,2.2-12.9,3.7c-3.6,1.6-6.8,3.8-9.6,6.6
					c-2.9,2.9-5.6,6.5-8.2,10.9c-2.5,4.4-4.3,8.8-5.3,13.1c2.5-1.5,4.6-2.6,6.4-3.3c3.2-1.3,6.4-1.9,9.6-1.9c6.3,0,11.7,2.2,16,6.6
					c4.3,4.4,6.5,10.6,6.5,18.8C343.4,258,341,264.6,336.4,270.4z M329.9,241.2c-2.8-6.9-7.5-10.3-14.2-10.3
					c-6.2,0-10.3,1.8-12.3,5.5c-1.2,2.2-1.8,5.7-1.8,10.8c0,6.5,1.4,12.8,4.2,19.1c2.8,6.2,7.1,9.3,13.1,9.3c4.7,0,8.2-2,10.3-6.1
					c2.2-4,3.2-8.8,3.2-14.2C332.4,250,331.6,245.3,329.9,241.2z"/>
			</g>
			<g>
				<path class="st0" d="M397.5,270.4c-4.7,5.9-10.8,8.8-18.3,8.8c-7,0-13.4-3.3-19.1-9.9s-8.6-15.3-8.6-26.2
					c0-14.1,5.6-26.1,16.7-36.2c10-8.4,21.2-12.7,33.6-12.7l0.3,2c-5,0.9-9.3,2.2-12.9,3.7c-3.6,1.6-6.8,3.8-9.6,6.6
					c-2.9,2.9-5.6,6.5-8.2,10.9c-2.5,4.4-4.3,8.8-5.3,13.1c2.5-1.5,4.6-2.6,6.4-3.3c3.2-1.3,6.4-1.9,9.6-1.9c6.3,0,11.7,2.2,16,6.6
					c4.3,4.4,6.5,10.6,6.5,18.8C404.6,258,402.2,264.6,397.5,270.4z M391.1,241.2c-2.8-6.9-7.5-10.3-14.2-10.3
					c-6.2,0-10.3,1.8-12.3,5.5c-1.2,2.2-1.8,5.7-1.8,10.8c0,6.5,1.4,12.8,4.2,19.1c2.8,6.2,7.1,9.3,13.1,9.3c4.7,0,8.2-2,10.3-6.1
					c2.2-4,3.2-8.8,3.2-14.2C393.6,250,392.8,245.3,391.1,241.2z"/>
			</g>
			<g>
				<path class="st0" d="M420.1,227.1c-2.9-3.8-4.4-8-4.4-12.7c0-5.3,2.2-9.7,6.5-13.4c4.4-3.7,10-5.5,17-5.5
					c6.4,0,11.5,1.7,15.3,5.2c3.8,3.5,5.7,7.5,5.7,12.1c0,4.7-1.9,8.8-5.8,12.5c-2.2,2.1-5.8,4.5-10.8,7.3c6.8,5,11.6,9.4,14.5,13.1
					c2.9,3.7,4.4,8.1,4.4,13.2c0,5.7-2.2,10.6-6.5,14.5c-4.3,3.9-10.1,5.9-17.4,5.9c-6.5,0-12.1-1.8-16.7-5.4c-4.6-3.6-7-8.4-7-14.2
					c0-5.1,1.6-9.5,4.8-13.4c2.1-2.5,5.8-5.5,11-9C425.6,232.9,422,229.6,420.1,227.1z M449.7,272c2.3-2.5,3.5-5.7,3.5-9.5
					c0-4.3-1.2-7.8-3.7-10.5s-7.6-6.8-15.3-12.2c-3.4,2.1-5.9,4.9-7.5,8.4c-1.6,3.4-2.3,6.7-2.3,9.9c0,5.4,1.4,9.8,4.2,13
					c2.8,3.2,6.4,4.8,10.7,4.8C443.9,275.8,447.3,274.6,449.7,272z M447.8,223.6c2.5-3.1,3.7-6.8,3.7-11.1c0-3.8-1.2-7-3.5-9.6
					s-5.9-4-10.6-4c-3.7,0-6.7,1.2-9.1,3.5c-2.4,2.3-3.6,5.1-3.6,8.4c0,3.7,1.4,7.2,4.2,10.4c2.8,3.2,6.5,6.2,11.1,9
					C443.8,227.6,446.4,225.4,447.8,223.6z"/>
			</g>
			<g>
				<path class="st0" d="M481.3,227.1c-2.9-3.8-4.4-8-4.4-12.7c0-5.3,2.2-9.7,6.5-13.4c4.4-3.7,10-5.5,17-5.5
					c6.4,0,11.5,1.7,15.3,5.2c3.8,3.5,5.7,7.5,5.7,12.1c0,4.7-1.9,8.8-5.8,12.5c-2.2,2.1-5.8,4.5-10.8,7.3c6.8,5,11.6,9.4,14.5,13.1
					c2.9,3.7,4.4,8.1,4.4,13.2c0,5.7-2.2,10.6-6.5,14.5c-4.3,3.9-10.1,5.9-17.4,5.9c-6.5,0-12.1-1.8-16.7-5.4c-4.6-3.6-7-8.4-7-14.2
					c0-5.1,1.6-9.5,4.8-13.4c2.1-2.5,5.8-5.5,11-9C486.8,232.9,483.2,229.6,481.3,227.1z M510.9,272c2.3-2.5,3.5-5.7,3.5-9.5
					c0-4.3-1.2-7.8-3.7-10.5s-7.6-6.8-15.3-12.2c-3.4,2.1-5.9,4.9-7.5,8.4c-1.6,3.4-2.3,6.7-2.3,9.9c0,5.4,1.4,9.8,4.2,13
					c2.8,3.2,6.4,4.8,10.7,4.8C505,275.8,508.5,274.6,510.9,272z M509,223.6c2.5-3.1,3.7-6.8,3.7-11.1c0-3.8-1.2-7-3.5-9.6
					s-5.9-4-10.6-4c-3.7,0-6.7,1.2-9.1,3.5c-2.4,2.3-3.6,5.1-3.6,8.4c0,3.7,1.4,7.2,4.2,10.4c2.8,3.2,6.5,6.2,11.1,9
					C505,227.6,507.6,225.4,509,223.6z"/>
			</g>
		</g>
	</g>
	<g>
		<path class="st1" d="M422.5,166.5c2.4,1.5,4.4,2.3,6,2.3c3.7,0,6.4-1.2,8.2-3.7c1.8-2.5,2.7-5.2,2.7-8.1c0-2.8-0.7-5.3-2.2-7.4
			c-2.4-3.6-6.6-5.4-12.4-5.4c-0.3,0-0.7,0-1,0c-0.3,0-0.7,0-1.1,0.1l-0.1-1c4.2-1.5,7.5-3.3,9.9-5.2c2.4-2,3.6-4.6,3.6-7.8
			c0-2.9-1-5-2.9-6.5c-1.9-1.5-4.1-2.2-6.5-2.2c-2.9,0-5.4,1.1-7.6,3.2c-1.2,1.2-2.5,2.9-3.9,5.4l-1.2-0.3c1-4,3-7.2,5.9-9.6
			c2.9-2.4,6.2-3.6,9.9-3.6c4,0,7.1,1.1,9.3,3.3c2.2,2.2,3.3,4.7,3.3,7.6c0,2.5-0.9,4.9-2.7,7c-1,1.2-2.6,2.6-4.8,4.1
			c2.5,1.1,4.5,2.3,6.1,3.8c2.9,2.8,4.3,6.2,4.3,10.5c0,5-2,9.4-5.9,13.2c-3.9,3.8-9.5,5.7-16.7,5.7c-3.2,0-5.5-0.5-6.8-1.4
			c-1.3-1-1.9-2-1.9-3.1c0-0.7,0.2-1.3,0.6-2s1.1-0.9,2.1-0.9C418.2,164.3,420.1,165,422.5,166.5z"/>
		<path class="st1" d="M476.8,172.3c-0.5,0-0.8-0.1-1.1-0.3c-0.3-0.2-0.4-0.5-0.4-0.7c0-0.2,0-0.5,0.1-1c0.2-4.1,0.4-8.2,0.5-12.4
			v-7.2c-5.1,7.3-12.2,13.2-21.2,17.4l-0.5-0.7c3.9-2.7,7.6-6.1,11.1-10.3c3.2-3.9,5.8-7.9,7.8-12.2h-9c-2.5,0-5.2,0.3-8,0.7
			l-1.4-2.7c2,0.2,4.3,0.4,7.1,0.4h14.1v-9.8c0-4.5-0.2-8.1-0.7-10.9c3.4,0.8,5.6,1.5,6.4,1.9c0.6,0.4,0.7,0.7,0.1,1.1l-1,0.6v17.2
			h12.4l1.5-2c0.1-0.1,0.3-0.4,0.5-0.7c0.7-0.9,1.1-1.3,1.3-1.3c0.4,0,1.4,0.7,3.1,2.1c1.7,1.4,2.5,2.3,2.5,2.7
			c-0.1,0.6-0.6,0.9-1.4,0.9h-19c2.3,3.8,5.4,7.3,9.4,10.5c3.8,3,7.7,5.3,11.8,6.8l-0.1,0.6c-2.1,0.4-3.5,1.8-4.3,4.4
			c-3.8-2.2-7.2-5.1-10.2-8.8c-3.1-3.7-5.5-8-7.4-12.8v12.2c0.1,4.4,0.2,8.6,0.4,12.5c-0.2,0.5-0.8,0.9-1.6,1.3
			C478.6,172.1,477.7,172.3,476.8,172.3z M469.1,140.3c-1,0.6-2,0.5-3.2-0.5c-0.4-2-1.2-4.2-2.5-6.7c-1.1-2.1-2.5-4.1-4-5.9l0.6-0.4
			c3.4,1.3,6.1,3,7.9,5c1.5,1.7,2.4,3.4,2.5,5.1C470.5,138.5,470.1,139.6,469.1,140.3z M484.6,140.8l-0.6-0.5
			c0.1-0.1,0.2-0.2,0.3-0.4c1-1.5,1.7-2.8,2.2-3.7c0.9-1.6,1.8-3.4,2.7-5.4c0.9-2.1,1.6-3.8,1.9-5.3l3.8,2.3
			c1.6,0.7,2.5,1.2,2.8,1.5c0.2,0.3,0,0.6-0.6,0.7l-1.1,0.2C492.3,134.7,488.5,138.3,484.6,140.8z"/>
		<path class="st1" d="M541,166.1c-3.1,3.9-7.1,5.8-12,5.8c-4.6,0-8.8-2.2-12.6-6.5s-5.7-10.1-5.7-17.3c0-9.3,3.7-17.2,11-23.8
			c6.6-5.6,13.9-8.3,22.1-8.3l0.2,1.3c-3.3,0.6-6.1,1.4-8.5,2.5c-2.4,1-4.5,2.5-6.4,4.3c-1.9,1.9-3.7,4.3-5.4,7.2
			c-1.7,2.9-2.8,5.8-3.5,8.7c1.6-1,3-1.7,4.2-2.2c2.1-0.8,4.2-1.3,6.3-1.3c4.2,0,7.7,1.4,10.5,4.3c2.8,2.9,4.2,7,4.2,12.4
			C545.6,158,544.1,162.3,541,166.1z M536.8,146.9c-1.8-4.5-5-6.8-9.4-6.8c-4.1,0-6.8,1.2-8.1,3.6c-0.8,1.4-1.2,3.8-1.2,7.1
			c0,4.3,0.9,8.5,2.7,12.5c1.8,4.1,4.7,6.1,8.6,6.1c3.1,0,5.4-1.3,6.8-4c1.4-2.7,2.1-5.8,2.1-9.3
			C538.4,152.7,537.9,149.6,536.8,146.9z"/>
		<path class="st1" d="M556.2,135.8l-1.3-2.7c2,0.2,4.3,0.4,7.1,0.4h9.8l1.1-1.6c0.1-0.1,0.2-0.3,0.4-0.6c0.5-0.7,0.9-1.1,1.1-1.1
			c0.4,0,1.2,0.6,2.5,1.7c1.3,1.1,1.9,1.9,1.9,2.3c-0.1,0.6-0.5,0.9-1.3,0.9h-11h-3.7C560.7,135.1,558.5,135.4,556.2,135.8z
			 M558.7,172.4c-0.6,0-1-0.4-1-1.1c0.1-1.5,0.2-3.4,0.3-5.6v-3.4c0-4.1-0.2-7.6-0.6-10.3l5.3,2.3h7.1l1-1.3
			c0.1-0.1,0.2-0.2,0.3-0.4c0.5-0.6,0.9-0.9,1.1-0.9c0.4,0,1.2,0.6,2.6,1.6c1.4,1.1,2.1,1.8,2.1,2.2c-0.4,0.6-1.1,0.9-2.1,1.1v4.4
			c0.1,3.5,0.2,6.4,0.3,8.5c-0.2,0.3-0.8,0.7-1.6,1.1c-0.9,0.4-1.7,0.6-2.4,0.6c-0.6,0-0.9-0.4-0.9-1.1c0-0.2,0.1-0.4,0.1-0.7
			c0-0.2,0.1-0.5,0.1-0.6v-1.2h-7.8v1.2c0,0.3,0.1,0.7,0.1,1.1c0,0.4,0.1,0.7,0.1,0.9c-0.1,0.4-0.5,0.8-1.3,1.1
			C560.5,172.2,559.6,172.4,558.7,172.4z M558.9,129.1l-1.3-2.7c2,0.2,4.3,0.4,7.1,0.4h4.1l1.1-1.6c0.1-0.1,0.2-0.3,0.4-0.5
			c0.5-0.8,0.9-1.2,1.1-1.2c0.4,0,1.2,0.6,2.5,1.7s1.9,1.9,1.9,2.3c-0.1,0.6-0.6,0.9-1.4,0.9h-7.6
			C564.3,128.4,561.7,128.7,558.9,129.1z M558.9,142.7l-1.3-2.7c2,0.2,4.3,0.4,7.1,0.4h4.6l1.1-1.6c0.1-0.1,0.2-0.2,0.3-0.4
			c0.6-0.8,1-1.2,1.2-1.2c0.4,0,1.1,0.6,2.4,1.6c1.2,1.1,1.8,1.8,1.8,2.2c-0.1,0.5-0.6,0.8-1.3,0.8h-8.2h-2.7
			C562.2,142,560.6,142.2,558.9,142.7z M558.9,149.6l-1.3-2.7c2,0.2,4.3,0.4,7.1,0.4h4.6l1.1-1.6c0.1-0.1,0.2-0.2,0.3-0.4
			c0.6-0.8,1-1.2,1.2-1.2c0.4,0,1.1,0.6,2.4,1.6c1.2,1.1,1.8,1.8,1.8,2.2c-0.1,0.6-0.6,0.9-1.3,0.9h-7.8
			C564.3,148.9,561.7,149.1,558.9,149.6z M562.5,166h7.8v-10.2h-7.8V166z M585.9,172.6c-0.1-1.7-0.5-3-1.2-3.7
			c-1-0.9-2.5-1.5-4.7-1.8v-0.8c2.2,0.1,4.5,0.3,6.6,0.4c0.8,0,1.2-0.4,1.2-1.1v-35h-3.6c-2,0-4.1,0.3-6.4,0.7l-1.4-2.7
			c2,0.2,4.3,0.4,7.1,0.4h11.8l1.3-1.9c0.1-0.1,0.2-0.3,0.4-0.5c0.6-1,1.1-1.4,1.3-1.4c0.4,0,1.3,0.6,2.7,1.9
			c1.5,1.3,2.2,2.1,2.2,2.5c-0.1,0.6-0.6,0.9-1.4,0.9h-9.2v35.1c0,2.1-0.4,3.6-1.2,4.6C590.6,171.6,588.7,172.3,585.9,172.6z"/>
		<path class="st1" d="M616.8,172.8l-2.4-5.6c2.2-0.1,4.8-0.3,7.8-0.6v-5.3c-3.9,1.5-8.4,2.6-13.6,3.5l-0.3-0.7
			c7.1-2.1,13-5.1,17.8-8.9h-7.7c-2.5,0-5.2,0.3-8,0.7l-1.4-2.7c2,0.2,4.3,0.4,7.1,0.4h14.4c0-2-0.1-3.5-0.3-4.6
			c3.1,0.7,5,1.3,5.8,1.8c0.6,0.3,0.6,0.7,0.1,1l-0.8,0.5v1.3h12.7l2.3-3c-0.9,0.4-2.2,0.7-4,0.9c-0.2-1.4-0.6-2.4-1.2-2.9
			c-0.9-0.7-2.3-1.2-4.4-1.5v-0.7c2.1,0.1,4.3,0.2,6.4,0.4c0.7,0,1.1-0.3,1.1-1v-11.2c0-4.5-0.2-8.1-0.7-10.9c3.2,0.8,5.2,1.4,6,1.8
			c0.6,0.3,0.6,0.7,0.1,1l-0.9,0.5v18.9c0,2.2-0.6,3.6-1.6,4.4c1.9,1.5,3.5,2.8,4.8,4c-0.1,0.6-0.6,0.9-1.4,0.9h-8.1
			c2.2,1.4,3.6,2.4,4.1,3c0.4,0.4,0.4,0.7-0.2,0.7l-0.9,0.1c-2.2,1.3-4.8,2.4-7.6,3.3c3.9,2.4,8.7,4.1,14.5,5.2l-0.1,0.6
			c-1.9,0.5-3.2,2-3.9,4.5c-4.6-1.6-8.5-3.7-11.5-6.3c-3.3-2.9-5.9-6.5-7.6-10.7c-1.5,1.3-3.7,2.6-6.4,4v6.7
			c3.5-0.4,7.4-0.9,11.5-1.5l0.1,0.8c-6.3,2.4-13.2,4.5-20.4,6.5C617.8,172.3,617.4,172.7,616.8,172.8z M621.7,151.3
			c-0.7,0-1.1-0.4-1.1-1.1c0.1-1.6,0.2-3.5,0.3-6v-3.5h-4.6v2.5c0,0.4,0,0.9,0.1,1.5c0.1,1.4,0.1,2.5,0.2,3.1
			c-0.1,0.3-0.6,0.6-1.4,1c-0.8,0.4-1.6,0.5-2.4,0.5c-0.6,0-0.9-0.4-0.9-1.1c0.1-0.5,0.1-1.2,0.2-2c0-0.4,0.1-0.7,0.1-0.9v-2
			c0-2.6-0.1-4.6-0.4-6.3l4.7,2.1h4.4v-3.8h-3.8c-2.2,0-4.5,0.3-6.8,0.7l-1.4-2.7c2,0.2,4.3,0.4,7.1,0.4h4.9v-4.1h-5.4
			c-1.2,1.5-2.5,2.8-4,3.9l-0.7-0.5c0.8-1.4,1.4-3.2,1.9-5.2c0.4-1.8,0.6-3.5,0.6-5.1c2.9,1,4.7,1.7,5.4,2.2c0.5,0.4,0.5,0.6,0,0.9
			l-0.9,0.3c-0.4,0.7-0.8,1.4-1.2,2h4.3c0-2.1-0.1-4-0.3-5.5c2.9,0.8,4.7,1.4,5.4,1.8c0.5,0.3,0.5,0.7,0.1,1l-0.9,0.5v2.1h3.3
			l1.1-1.5c0.1-0.1,0.2-0.3,0.4-0.5c0.5-0.7,0.9-1.1,1.1-1.1c0.4,0,1.2,0.5,2.4,1.6c1.2,1.1,1.9,1.8,1.9,2.2
			c-0.1,0.6-0.6,0.9-1.3,0.9h-8.8v4.1h4.7l1.1-1.6c0.1-0.1,0.2-0.3,0.4-0.5c0.5-0.7,0.9-1.1,1.1-1.1c0.4,0,1.2,0.5,2.4,1.6
			c1.3,1.1,1.9,1.8,1.9,2.2c-0.1,0.6-0.6,0.9-1.3,0.9h-10.4v3.8h4.5l0.9-1.3c0.1-0.1,0.2-0.3,0.3-0.5c0.5-0.6,0.8-0.9,1-0.9
			c0.4,0,1.2,0.6,2.5,1.7c1.3,1.1,2,1.9,2,2.3c-0.5,0.5-1.2,0.9-2.1,1v2.8c0,1.4-0.3,2.4-0.9,3c-0.7,0.7-2.1,1.2-4,1.4
			c-0.1-1.1-0.2-1.9-0.5-2.2c-0.5-0.5-1.3-0.8-2.4-1v-0.8c1,0,2,0.1,3,0.2c0.5,0,0.8-0.3,0.8-0.9v-3.3h-5v3c0,0.5,0,1.1,0.1,1.9
			c0.1,1.7,0.1,3.1,0.2,3.9c-0.1,0.4-0.6,0.8-1.4,1.1C623.2,151.2,622.4,151.3,621.7,151.3z M640.3,161.2c2.3-2.2,4.1-4.3,5.4-6.2
			h-11.3C635.7,157.3,637.7,159.3,640.3,161.2z M639.2,144.3c-0.8,0-1.2-0.4-1.2-1.1c0.1-1.3,0.2-3,0.3-5.1V135c0-4-0.2-7.2-0.6-9.5
			c3,0.8,4.9,1.4,5.7,1.8c0.6,0.3,0.6,0.6,0.1,1l-0.9,0.5v4c0.1,4.3,0.2,7.6,0.4,9.9c-0.2,0.4-0.7,0.7-1.5,1
			C640.7,144.1,639.9,144.3,639.2,144.3z"/>
		<path class="st1" d="M687.9,171.6c-2.8,0-4.7-0.3-5.7-1c-1-0.7-1.5-2.1-1.5-4.1V154l-18,2.6l-0.6-1.5l18.6-2.6v-8.6
			c-5,1-9.6,1.6-13.6,2L667,145c4.9-1.1,10-2.6,15.2-4.5c5.2-1.9,9.2-3.7,12.2-5.5l4.9,4.3c1-2.1,1.8-4.3,2.6-6.6h-32.1
			c0.1,1.8-0.1,3.4-0.7,4.8c-0.5,1.2-1.2,2.2-2.1,2.9c-0.8,0.6-1.6,0.9-2.6,0.7c-0.9-0.1-1.6-0.6-1.9-1.4c-0.2-0.7-0.2-1.4,0.2-2.1
			c0.3-0.6,0.8-1.2,1.4-1.6c1.1-0.7,2.1-1.7,2.9-3.1c0.9-1.6,1.2-3.3,1.1-5h0.8c0.4,1.2,0.7,2.3,0.8,3.3h13.4c0-3.4-0.2-6.2-0.5-8.3
			c3.4,0.7,5.6,1.3,6.4,1.8c0.6,0.3,0.7,0.7,0.1,1l-1,0.6v4.9h13.7l1.3-1.4c0.1-0.1,0.3-0.3,0.5-0.5c0.5-0.6,0.9-0.9,1.1-0.9
			c0.3,0,1.2,0.7,2.6,2.1c1.4,1.4,2.1,2.3,2.1,2.7c-0.3,0.4-1,0.6-2,0.6c-2.2,2.3-4.7,4.4-7.6,6.3l-0.4-0.3
			c-0.6,0.3-1.5,0.3-2.7-0.2c-3.1,1.1-6.7,2.2-11.1,3.2v0.5v8.5l14.6-2l1.1-2.1c0.1-0.1,0.2-0.3,0.3-0.5c0.6-1.1,1-1.6,1.2-1.6
			c0.4,0,1.4,0.5,3.1,1.5c1.7,1.1,2.6,1.8,2.6,2.1c-0.1,0.6-0.5,1-1.2,1.1l-21.8,3.1v12c0,0.6,0.2,1,0.5,1.2
			c0.4,0.2,1.2,0.3,2.4,0.3h6.9c3.3,0,5.3,0,6-0.1c0.7-0.1,1.2-0.4,1.5-0.9c0.4-0.6,1.2-3.1,2.3-7.3c0-0.2,0.1-0.4,0.1-0.5h0.6
			l0.2,8.1c0.8,0.3,1.3,0.6,1.6,0.9c0.3,0.3,0.4,0.8,0.4,1.3c0,1.2-0.8,2-2.4,2.5c-1.8,0.5-5.3,0.7-10.5,0.7H687.9z"/>
	</g>
	<g>
		<g>
			<g>
				<g>
					<g>
						<g>
							<path class="st2" d="M6.1,99.3c11.6-12,19.4-20.8,23.6-26.5c4.1-5.6,6.2-11.1,6.2-16.4c0-4.7-1.3-8.2-3.8-10.7S26.5,42,23,42
								c-4.3,0-7.8,1.6-10.5,4.7c-1.5,1.7-2.9,4.4-4.3,8l-2-0.4c1.6-7.3,4.3-12.3,8-15.1c3.8-2.8,7.8-4.2,12.2-4.2
								c5.3,0,9.7,1.7,13,5c3.3,3.4,5,7.5,5,12.3c0,5.2-1.8,10.2-5.4,15c-3.6,4.8-11.3,13.4-23.3,25.6h21.8c3,0,5.2-0.4,6.4-1.1
								c1.2-0.7,2.6-2.5,4.2-5.3l1.2,0.6L44,100.3H6.1V99.3z"/>
						</g>
						<g>
							<path class="st2" d="M92.3,46.5c3.2,6.2,4.8,13.3,4.8,21.3c0,6.3-1,12.2-2.9,17.8C90.4,96,84,101.2,74.9,101.2
								c-6.2,0-11.4-2.8-15.4-8.5c-4.3-6-6.5-14.2-6.5-24.6c0-8.2,1.4-15.2,4.3-21.1c3.9-8,9.9-12,17.9-12
								C82.6,35.1,88.3,38.9,92.3,46.5z M85.1,90.9c1.7-5.1,2.6-12.5,2.6-22.1c0-7.7-0.5-13.8-1.6-18.4c-2-8.5-5.6-12.8-11-12.8
								S66,42,64,50.8c-1,4.7-1.6,10.8-1.6,18.5c0,7.2,0.5,12.9,1.6,17.2c2,8,5.8,12,11.4,12C80.1,98.5,83.3,96,85.1,90.9z"/>
						</g>
						<g>
							<path class="st2" d="M113,92.8l-3-7.5c1.7-0.4,4.8-1.4,9.5-2.9V56.7h-2.7c-1.5,0-3.1,0.4-4.7,1l-1.9-3.8
								c1.7,0.3,3.8,0.5,6.4,0.6h3v-4.7c0-6.2-0.3-11.3-1-15.2c4.2,1.1,6.9,1.9,7.8,2.5c0.7,0.5,0.7,1,0,1.5l-1.3,0.8v15.1h2.4
								l1.4-2.4c0.1-0.1,0.2-0.4,0.4-0.7c0.7-1.1,1.2-1.7,1.5-1.7c0.4,0,1.5,0.8,3.1,2.5c1.6,1.7,2.4,2.8,2.4,3.3
								c-0.1,0.8-0.8,1.2-1.8,1.2h-9.3v23.8c4.7-1.6,8.7-3,12-4.1l0.3,0.8c-8.5,5.4-16.1,9.9-22.8,13.7
								C114.3,91.8,113.8,92.5,113,92.8z M152,101c-0.4,0-0.8-0.1-1.2-0.4s-0.5-0.6-0.5-1c0-0.3,0-0.7,0.1-1.2
								c0.3-5.2,0.6-10.4,0.7-15.6v-9.2h-7.3c-3.5,0-7.2,0.4-11.1,1l-1.9-3.8c2.7,0.3,6,0.5,9.8,0.6h10.5V40.9h-5.7
								c-3.4,0-6.8,0.4-10.4,1l-1.8-3.7c2.7,0.3,6,0.5,9.8,0.6h22l1.6-2.5c0.1-0.2,0.4-0.5,0.7-1c0.7-1.1,1.2-1.6,1.5-1.6
								c0.5,0,1.7,0.9,3.5,2.6c1.9,1.7,2.8,2.9,2.8,3.4c0,0.8-0.7,1.2-1.8,1.2h-16.6v30.5h10.2l1.7-2.6c0.1-0.1,0.2-0.4,0.4-0.7
								c0.8-1.3,1.4-2,1.8-2c0.5,0,1.7,0.9,3.7,2.7c1.9,1.8,2.9,3,2.9,3.5c-0.2,0.8-0.8,1.2-1.9,1.2h-18.8v8.6
								c0.1,5.9,0.3,11.4,0.6,16.7c-0.4,0.5-1,0.9-1.8,1.3C154.5,100.7,153.3,101,152,101z M134.3,68l-1-0.7
								c1.2-2.2,2.4-4.5,3.4-6.9c0.9-2.3,1.8-4.9,2.5-7.9c0.7-3.1,1.1-5.7,1.2-7.7l5,1.9c3.5,0.8,4.5,1.6,2.8,2.2l-1.3,0.5
								C143.6,57.3,139.4,63.5,134.3,68z M172.5,65.5c-1.1,0.8-2.4,0.6-3.9-0.6c-0.7-5.2-3.4-11.4-8.1-18.4l0.9-0.4
								c4.1,2.4,7.3,5,9.5,8c1.8,2.5,2.8,4.9,3,7.2C174,63.3,173.6,64.7,172.5,65.5z"/>
						</g>
						<g>
							<path class="st2" d="M188.7,99.6c11.6-12,19.4-20.8,23.6-26.5c4.1-5.6,6.2-11.1,6.2-16.4c0-4.7-1.3-8.2-3.8-10.7
								s-5.6-3.7-9.1-3.7c-4.3,0-7.8,1.6-10.5,4.7c-1.5,1.7-2.9,4.4-4.3,8l-2-0.4c1.6-7.3,4.3-12.3,8-15.1c3.8-2.8,7.8-4.2,12.2-4.2
								c5.3,0,9.7,1.7,13,5c3.3,3.4,5,7.5,5,12.3c0,5.2-1.8,10.2-5.4,15c-3.6,4.8-11.3,13.4-23.3,25.6H220c3,0,5.2-0.4,6.4-1.1
								c1.2-0.7,2.6-2.5,4.2-5.3l1.2,0.6l-5.3,13.2h-37.9V99.6z"/>
						</g>
						<g>
							<path class="st2" d="M280.8,101.1c0-1.8-0.4-3.1-1.2-3.9c-1-0.8-3.2-1.5-6.4-2V94c0.3,0,0.9,0.1,1.8,0.1
								c4.2,0.3,6.6,0.5,7.4,0.5c1.1,0,1.9-0.2,2.4-0.6c1.4-1.1,2.4-5.1,3.1-12.1H271c-1.4,4-3.8,7.5-7.1,10.4
								c-3.9,3.4-9.4,6.3-16.4,8.7l-0.9-1.1c7.8-3.6,13.2-7.9,16.2-12.9c2.1-3.5,3.4-8.2,3.7-13.9h-15.4c-1.4,12-5.7,21.1-12.9,27.4
								l-0.9-0.7c3.6-5.2,6.1-11.5,7.5-19c1-5.4,1.4-12.2,1.4-20.6V49.6c0-4.4-0.2-8.1-0.7-11l5.9,2.5c6.5-0.6,13.4-1.6,20.9-3
								c7.3-1.3,13.2-2.6,17.7-3.9c2.7,2.8,4.3,4.6,4.8,5.4c0.4,0.7,0,1-1,0.9l-2-0.4c-12.9,1.6-26.3,2.4-40.1,2.4v6h38.1l1.3-1.7
								c0.1-0.1,0.3-0.4,0.5-0.7c0.6-0.8,1-1.2,1.3-1.2c0.5,0,1.6,0.7,3.3,2.2c1.7,1.5,2.5,2.5,2.5,3c-0.5,0.7-1.4,1.1-2.7,1.4v3.8
								c0,0.6,0,1.4,0.1,2.3c0.1,2.2,0.2,3.8,0.3,4.9c-0.2,0.4-0.9,0.9-2,1.4c-1.1,0.5-2.1,0.8-3,0.8h-0.9v-3h-38.7
								c0,3-0.1,6.1-0.4,9.3h18.3c0-3.5-0.2-6.3-0.5-8.5c3.6,1,5.9,1.8,6.9,2.4c0.6,0.4,0.7,0.8,0.1,1.2l-0.9,0.7v4.3h17.1l1.5-2.2
								c0.1-0.1,0.3-0.4,0.6-0.7c0.7-1,1.2-1.4,1.5-1.4c0.5,0,1.6,0.8,3.4,2.3c1.8,1.5,2.7,2.5,2.7,3.1c-0.2,0.8-0.8,1.2-1.8,1.2
								h-27.3c-0.2,2.6-0.7,4.9-1.2,6.7h15.7l1.3-1.5c0.1-0.1,0.2-0.3,0.4-0.5c0.7-0.7,1.2-1,1.4-1c0.5,0,1.5,0.7,3.1,2
								c1.6,1.4,2.4,2.3,2.4,2.8c-0.5,0.6-1.4,0.9-2.6,1.1c-0.8,8.9-2.6,14.4-5.4,16.3C286.3,100.4,283.9,101.1,280.8,101.1z
								 M251.8,59.6h38.7v-8.9h-38.7V59.6z"/>
						</g>
						<g>
							<path class="st2" d="M330.7,99.3c11.6-12,19.4-20.8,23.6-26.5c4.1-5.6,6.2-11.1,6.2-16.4c0-4.7-1.3-8.2-3.8-10.7
								s-5.6-3.7-9.1-3.7c-4.3,0-7.8,1.6-10.5,4.7c-1.5,1.7-2.9,4.4-4.3,8l-2-0.4c1.6-7.3,4.3-12.3,8-15.1c3.8-2.8,7.8-4.2,12.2-4.2
								c5.3,0,9.7,1.7,13,5c3.3,3.4,5,7.5,5,12.3c0,5.2-1.8,10.2-5.4,15c-3.6,4.8-11.3,13.4-23.3,25.6h21.8c3,0,5.2-0.4,6.4-1.1
								c1.2-0.7,2.6-2.5,4.2-5.3l1.2,0.6l-5.3,13.2h-37.9V99.3z"/>
						</g>
						<g>
							<path class="st2" d="M415.1,36.1v1.6l-20.6,63.6h-6.2l19.2-58h-20.7c-3.1,0-5.3,0.5-6.6,1.5c-1.3,1-3,3.1-5.1,6.4l-1.7-0.8
								c2.1-5.1,3.3-8.2,3.8-9.4c0.5-1.2,1.1-2.8,1.9-4.9H415.1z"/>
						</g>
						<g>
							<path class="st2" d="M426.9,92.8l-3-7.5c1.7-0.4,4.8-1.4,9.5-2.9V56.7h-2.7c-1.5,0-3.1,0.4-4.7,1L424,54
								c1.7,0.3,3.8,0.5,6.4,0.6h3v-4.7c0-6.2-0.3-11.3-1-15.2c4.2,1.1,6.9,1.9,7.8,2.5c0.7,0.5,0.7,1,0,1.5l-1.3,0.8v15.1h2.4
								l1.4-2.4c0.1-0.1,0.2-0.4,0.4-0.7c0.7-1.1,1.2-1.7,1.5-1.7c0.4,0,1.5,0.8,3.1,2.5c1.6,1.7,2.4,2.8,2.4,3.3
								c-0.1,0.8-0.8,1.2-1.8,1.2h-9.3v23.8c4.7-1.6,8.7-3,12-4.1l0.3,0.8c-8.5,5.4-16.1,9.9-22.8,13.7
								C428.2,91.8,427.7,92.5,426.9,92.8z M466,101c-0.4,0-0.8-0.1-1.2-0.4s-0.5-0.6-0.5-1c0-0.3,0-0.7,0.1-1.2
								c0.3-5.2,0.6-10.4,0.7-15.6v-9.2h-7.3c-3.5,0-7.2,0.4-11.1,1l-1.9-3.8c2.7,0.3,6,0.5,9.8,0.6H465V40.9h-5.7
								c-3.4,0-6.8,0.4-10.4,1l-1.8-3.7c2.7,0.3,6,0.5,9.8,0.6h22l1.6-2.5c0.1-0.2,0.4-0.5,0.7-1c0.7-1.1,1.2-1.6,1.5-1.6
								c0.5,0,1.7,0.9,3.5,2.6c1.9,1.7,2.8,2.9,2.8,3.4c0,0.8-0.7,1.2-1.8,1.2h-16.6v30.5h10.2l1.7-2.6c0.1-0.1,0.2-0.4,0.4-0.7
								c0.8-1.3,1.4-2,1.8-2c0.5,0,1.7,0.9,3.7,2.7c1.9,1.8,2.9,3,2.9,3.5c-0.2,0.8-0.8,1.2-1.9,1.2h-18.8v8.6
								c0.1,5.9,0.3,11.4,0.6,16.7c-0.4,0.5-1,0.9-1.8,1.3C468.4,100.7,467.3,101,466,101z M448.2,68l-1-0.7
								c1.2-2.2,2.4-4.5,3.4-6.9c0.9-2.3,1.8-4.9,2.5-7.9c0.7-3.1,1.1-5.7,1.2-7.7l5,1.9c3.5,0.8,4.5,1.6,2.8,2.2l-1.3,0.5
								C457.6,57.3,453.4,63.5,448.2,68z M486.4,65.5c-1.1,0.8-2.4,0.6-3.9-0.6c-0.7-5.2-3.4-11.4-8.1-18.4l0.9-0.4
								c4.1,2.4,7.3,5,9.5,8c1.8,2.5,2.8,4.9,3,7.2C488,63.3,487.5,64.7,486.4,65.5z"/>
						</g>
						<g>
							<path class="st2" d="M499.8,99.6c11.6-12,19.4-20.8,23.6-26.5c4.1-5.6,6.2-11.1,6.2-16.4c0-4.7-1.3-8.2-3.8-10.7
								s-5.6-3.7-9.1-3.7c-4.3,0-7.8,1.6-10.5,4.7c-1.5,1.7-2.9,4.4-4.3,8l-2-0.4c1.6-7.3,4.3-12.3,8-15.1c3.8-2.8,7.8-4.2,12.2-4.2
								c5.3,0,9.7,1.7,13,5c3.3,3.4,5,7.5,5,12.3c0,5.2-1.8,10.2-5.4,15c-3.6,4.8-11.3,13.4-23.3,25.6h21.8c3,0,5.2-0.4,6.4-1.1
								c1.2-0.7,2.6-2.5,4.2-5.3l1.2,0.6l-5.3,13.2h-37.9V99.6z"/>
						</g>
						<g>
							<path class="st2" d="M577.4,69.2h25.5v4.2h-25.5v25.6h-4.2V73.3h-25.7v-4.2h25.7V43.5h4.2V69.2z"/>
						</g>
						<g>
							<path class="st2" d="M628.4,35.9c0,0.1,0,0.3,0,0.5v57.1c0,2.4,0.7,4,2,4.6c1.3,0.7,3.7,1.1,7.3,1.2v1.3h-26.8v-1.4
								c3.8-0.2,6.3-0.7,7.5-1.6s1.8-2.7,1.8-5.6V48.3c0-1.5-0.2-2.7-0.6-3.5c-0.4-0.8-1.2-1.2-2.5-1.2c-0.8,0-1.9,0.2-3.2,0.7
								c-1.3,0.5-2.5,0.9-3.7,1.4v-1.3l17.4-8.9h0.6C628.3,35.7,628.4,35.8,628.4,35.9z"/>
						</g>
						<g>
							<path class="st2" d="M689.4,100.3c0-1.8-0.4-3-1.2-3.8c-1-0.8-3.1-1.5-6.3-2v-1.1c0.3,0,0.9,0.1,1.8,0.1
								c4.1,0.3,6.5,0.5,7.2,0.5c1,0,1.8-0.2,2.3-0.6c1.4-1.1,2.4-5,3.1-11.9h-16.5c-1.4,3.9-3.7,7.3-7,10.2
								c-3.8,3.4-9.2,6.2-16,8.5l-0.9-1.1c7.6-3.5,12.9-7.7,15.9-12.6c2.1-3.5,3.3-8,3.6-13.6h-15.1c-1.4,11.7-5.6,20.7-12.6,26.9
								l-0.9-0.7c3.6-5.1,6-11.3,7.3-18.6c0.9-5.3,1.4-12,1.4-20.2V49.9c0-4.3-0.2-7.9-0.6-10.8l5.8,2.4c6.3-0.6,13.2-1.6,20.5-2.9
								c7.1-1.3,12.9-2.6,17.4-3.8c2.7,2.7,4.2,4.5,4.7,5.3c0.4,0.7,0,1-1,0.9l-1.9-0.4c-12.7,1.6-25.8,2.3-39.3,2.3v5.9h37.3
								l1.3-1.7c0.1-0.1,0.3-0.4,0.5-0.6c0.6-0.8,1-1.1,1.3-1.1c0.5,0,1.5,0.7,3.2,2.2c1.7,1.4,2.5,2.4,2.5,2.9
								c-0.5,0.7-1.3,1.1-2.6,1.3v3.7c0,0.6,0,1.3,0.1,2.3c0.1,2.1,0.2,3.7,0.3,4.8c-0.2,0.4-0.9,0.9-2,1.4c-1.1,0.5-2.1,0.7-3,0.7
								h-0.9v-3h-37.9c0,2.9-0.1,6-0.4,9.1h18c0-3.4-0.2-6.2-0.5-8.4c3.6,1,5.8,1.8,6.7,2.3c0.6,0.4,0.6,0.8,0.1,1.2l-0.9,0.6v4.2
								h16.8l1.5-2.1c0.1-0.1,0.3-0.4,0.6-0.7c0.7-0.9,1.2-1.4,1.5-1.4c0.5,0,1.6,0.7,3.3,2.2c1.8,1.5,2.6,2.5,2.6,3
								c-0.2,0.8-0.8,1.1-1.8,1.1h-26.8c-0.2,2.6-0.6,4.8-1.2,6.6h15.4L697,78c0.1-0.1,0.2-0.3,0.4-0.5c0.7-0.7,1.1-1,1.4-1
								c0.5,0,1.5,0.7,3.1,2c1.6,1.3,2.4,2.2,2.4,2.8c-0.5,0.6-1.4,0.9-2.6,1.1c-0.8,8.8-2.6,14.1-5.3,16
								C694.8,99.7,692.4,100.3,689.4,100.3z M660.9,59.7h37.9v-8.7h-37.9V59.7z"/>
						</g>
					</g>
				</g>
			</g>
		</g>
	</g>
	<g>
		<g>
			<g>
				<g>
					<g>
						<g>
							<g>
								<g>
									<path class="st1" d="M19.3,137.9c-0.6,0-0.8-0.4-0.8-1.1c0.1-0.5,0.1-1.1,0.2-2c0-0.4,0.1-0.7,0.1-0.9v-2h-4.6
										c-2.5,0-5.1,0.3-7.9,0.7l-1.3-2.7c1.9,0.2,4.3,0.4,7,0.4h6.8c0-2.9-0.1-5.1-0.4-6.8c2.8,0.7,4.6,1.3,5.2,1.7
										c0.5,0.3,0.5,0.7,0,1l-0.8,0.6v3.4h11.7c0-2.9-0.1-5.1-0.4-6.8c2.9,0.7,4.6,1.3,5.3,1.7c0.5,0.3,0.5,0.7,0,1l-0.9,0.6v3.4
										h6.3l1.2-1.7c0.1-0.1,0.3-0.4,0.5-0.6c0.5-0.7,0.8-1.1,1.1-1.1c0.4,0,1.2,0.6,2.6,1.8c1.4,1.2,2,2,2,2.4
										c-0.1,0.6-0.5,0.8-1.3,0.8H38.4v1.5c0,0.3,0.1,0.7,0.1,1.2c0.1,0.7,0.1,1.2,0.2,1.6c-0.1,0.4-0.5,0.7-1.1,0.9
										c-0.7,0.3-1.5,0.5-2.4,0.5c-0.6,0-0.9-0.4-0.9-1.1c0.1-0.5,0.1-1.1,0.2-1.9c0-0.4,0.1-0.6,0.1-0.8V132H22.7v1.6
										c0,0.4,0.1,0.8,0.1,1.3c0.1,0.7,0.1,1.3,0.2,1.6c-0.1,0.4-0.5,0.7-1.2,1C20.9,137.8,20.2,137.9,19.3,137.9z M10.2,172.3
										l-4.4-4.5c2.9-2.6,5.6-5.4,8.1-8.4l0.7-4.2l2.8,0.7l-2.3,3.8l-0.2,0.4c0.7,1.1,1.5,2.2,2.5,3.1c4.2-2.3,8.3-5,12.3-8.1
										c4.2-3.3,7.5-6.5,9.9-9.7H18.7c-2.5,0-5.1,0.3-7.9,0.7l-1.4-2.6c1.9,0.2,4.3,0.4,7,0.4h10c0-3.6-0.2-6.5-0.5-8.7
										c2.8,0.7,4.5,1.3,5.3,1.7c0.5,0.3,0.5,0.6,0.1,1l-0.7,0.5v5.4h9.6l1.3-1.3c0.1-0.1,0.3-0.3,0.5-0.5
										c0.6-0.6,1.1-0.9,1.3-0.9c0.3,0,1.1,0.6,2.4,1.8c1.3,1.2,1.9,2,1.9,2.4c-0.3,0.4-1.1,0.7-2.2,0.7c-3.1,3.6-7,6.9-11.7,10.1
										c-4.8,3.1-9.8,5.7-15.2,7.7c1.7,1.2,3.9,2.1,6.6,2.5c2.3,0.4,5.5,0.6,9.6,0.6c8.8,0,14.6,0,17.3-0.1v0.7
										c-0.7,0.1-1.3,0.5-1.7,1.2c-0.4,0.6-0.6,1.3-0.6,2.2h-15c-5.6,0-9.7-0.6-12.5-1.9c-3.1-1.4-5.6-4.1-7.5-8
										c-1.4,3.2-2.8,6.3-4.2,9.1C10.8,170.9,10.7,171.6,10.2,172.3z"/>
								</g>
								<g>
									<path class="st1" d="M62.6,172.5c-0.4,0-0.7-0.1-0.9-0.3c-0.3-0.2-0.4-0.5-0.4-0.7c0.3-4.5,0.5-9.1,0.6-13.7v-10.5
										c0-4.4-0.2-8.1-0.7-10.8c3.1,0.8,5,1.4,5.8,1.9c0.5,0.4,0.5,0.7,0,1.1l-1,0.6v24.6h13.3v-28.7c0-4.4-0.2-8.1-0.7-10.8
										c3.1,0.8,5,1.4,5.8,1.8c0.6,0.4,0.6,0.7,0.1,1.1l-0.9,0.6v36.1h13.5v-17.5c0-4.4-0.2-8.1-0.7-10.8c3.1,0.8,5,1.4,5.8,1.8
										c0.6,0.4,0.6,0.7,0,1.1l-0.9,0.6v17.9c0.1,4.4,0.2,8.5,0.4,12.4c-0.2,0.4-0.7,0.8-1.5,1.2c-0.8,0.4-1.6,0.6-2.4,0.6
										c-0.7,0-1.1-0.4-1.1-1.1c0.1-0.5,0.1-1.1,0.2-1.9c0-0.4,0-0.7,0.1-0.9V166H66v1.7c0,0.4,0.1,0.8,0.1,1.4
										c0.1,0.8,0.1,1.4,0.2,1.7c-0.1,0.4-0.5,0.8-1.3,1.1C64.2,172.3,63.4,172.5,62.6,172.5z"/>
								</g>
								<g>
									<path class="st1" d="M112.2,137.6l-1.4-2.7c1.6,0.2,3.5,0.4,5.7,0.4h2.6v-0.4c0-4.4-0.2-8.1-0.7-10.8
										c3,0.7,4.8,1.3,5.6,1.7c0.5,0.3,0.5,0.7,0,1l-0.9,0.6v7.9h2.6l1.1-1.8c0.1-0.1,0.3-0.4,0.5-0.7c0.5-0.8,0.8-1.2,1.1-1.2
										c0.3,0,1.1,0.6,2.4,1.9c1.3,1.3,1.9,2.1,1.9,2.5c-0.1,0.6-0.5,0.8-1.3,0.8h-11.3C117.6,136.9,115,137.1,112.2,137.6z
										 M132.2,172.7c-0.3,0-0.6-0.1-0.8-0.3c-0.2-0.2-0.3-0.5-0.3-0.7c0.2-2.9,0.4-5.8,0.4-8.8v-4.9c-5.7,3.6-11.4,6.8-17.2,9.6
										c-0.2,0.7-0.6,1.2-1.1,1.4l-2.3-5.1c2.6-0.7,6.2-1.9,10.6-3.4c0.6-3,1.2-6.8,1.9-11.3c0.6-4.2,0.7-7.8,0.5-10.7
										c3,0.6,4.9,1.1,5.6,1.5c0.6,0.3,0.6,0.6,0,0.9l-0.9,0.5c-1.4,6.3-3.3,12.5-5.8,18.6c3.3-1.1,6.3-2.2,8.7-3.1v-4.5
										c0-2-0.1-3.6-0.3-4.7l4.9,2.2h4.2v-15.4c0-4.4-0.2-8.1-0.7-10.8c3.1,0.8,5,1.4,5.8,1.8c0.6,0.4,0.6,0.7,0,1.1l-1,0.6v9.7
										h5.7l1.2-1.9c0.1-0.1,0.2-0.3,0.4-0.6c0.6-0.9,1-1.4,1.2-1.4c0.3,0,1.2,0.7,2.5,2c1.4,1.3,2,2.2,2,2.6
										c-0.1,0.6-0.6,0.8-1.3,0.8h-11.7V150h5.7l0.8-1.2c0.1-0.1,0.1-0.2,0.2-0.3c0.5-0.6,0.8-1,1.1-1c0.4,0,1.1,0.5,2.4,1.4
										c1.2,0.9,1.8,1.6,1.8,2c-0.3,0.4-0.9,0.7-2,1v6.4c0.1,4.4,0.2,8.5,0.4,12.4c-0.2,0.3-0.7,0.6-1.4,0.9
										c-0.8,0.4-1.7,0.5-2.5,0.5c-0.6,0-0.9-0.4-0.9-1.1c0-0.2,0.1-0.4,0.1-0.7c0-0.2,0.1-0.4,0.1-0.6v-1.2h-14.8v1
										c0,0.3,0.1,0.6,0.1,0.9c0,0.3,0,0.6,0.1,0.7c-0.1,0.4-0.5,0.7-1.1,1C133.9,172.5,133.1,172.7,132.2,172.7z M117.8,158.8
										c-0.8,0.5-1.5,0.3-2.1-0.8c0.2-2.6,0.2-5.4-0.1-8.5c-0.3-3.8-0.9-7-1.9-9.6l0.8-0.3c2.1,3,3.6,6,4.3,9
										c0.7,2.5,0.8,4.7,0.5,6.7C119.1,157.1,118.6,158.2,117.8,158.8z M135.5,167h14.8v-15.5h-14.8V167z"/>
								</g>
								<g>
									<path class="st1" d="M201.8,169.7c-2.1,0-4.2-0.3-6.3-0.9c-1.9-0.6-3.6-1.3-5-2.2l0.4-8.1h3l1.5,7.2c1.8,1,3.8,1.4,6.1,1.4
										c2.9,0,5.1-0.6,6.7-1.9c1.7-1.3,2.5-3.1,2.5-5.4c0-1.8-0.6-3.3-1.7-4.4c-1.1-1.1-2.9-2.1-5.6-3.2l-2.2-0.9
										c-3.2-1.3-5.7-2.8-7.2-4.5c-1.8-1.9-2.8-4.3-2.8-7c0-3.3,1.2-5.9,3.7-7.8c2.4-1.9,5.5-2.8,9.2-2.8c3.5,0,6.7,1,9.5,3.1
										l-0.4,7.6h-3l-1.5-6.9c-1.3-0.8-2.9-1.2-4.7-1.2c-2.4,0-4.3,0.6-5.8,1.7c-1.6,1.2-2.3,2.9-2.3,5.1c0,1.8,0.6,3.3,1.7,4.5
										c1.1,1.2,2.7,2.2,4.9,3l2.3,0.9c3.8,1.5,6.6,3.2,8.2,5c1.6,1.8,2.4,4.1,2.4,6.8c0,3.4-1.3,6.1-3.8,8.1
										C209.1,168.7,205.8,169.7,201.8,169.7z"/>
								</g>
								<g>
									<path class="st1" d="M238.3,169.3c-4.9,0-9-1.7-12.3-5.2c-3.6-3.8-5.4-8.8-5.4-15.1c0-4.1,0.9-7.7,2.6-10.9
										c1.6-3,3.8-5.3,6.5-6.9c2.7-1.6,5.6-2.4,8.6-2.4c3.1,0,5.9,0.8,8.6,2.3c2.8,1.7,4.9,3.9,6.5,6.9c1.7,3.2,2.6,6.9,2.6,11.1
										c0,4.1-0.8,7.7-2.5,10.9c-1.6,3-3.7,5.3-6.5,6.9C244.2,168.5,241.4,169.3,238.3,169.3z M238.3,166.8c3.8,0,6.7-1.8,8.8-5.4
										c1.8-3.2,2.7-7.4,2.7-12.3c0-5-0.9-9.1-2.7-12.3c-2.1-3.6-5.1-5.4-8.8-5.4c-3.8,0-6.8,1.8-8.9,5.4
										c-1.9,3.2-2.9,7.3-2.9,12.3c0,5,1,9.1,2.9,12.3C231.5,165,234.5,166.8,238.3,166.8z"/>
								</g>
								<g>
									<path class="st1" d="M281,169.3c-5.8,0-10.5-1.9-14.1-5.7c-3.6-3.8-5.4-8.6-5.4-14.6c0-5.9,1.8-10.7,5.5-14.5
										c3.7-3.8,8.4-5.7,14.2-5.7c4.6,0,8.5,1,11.6,2.9l0.1,8.6h-3.1l-1.4-7.2c-1.9-1.1-4.1-1.7-6.6-1.7c-4.3,0-7.7,1.6-10.3,4.7
										c-2.7,3.2-4.1,7.6-4.1,13.1c0,5.5,1.3,9.8,3.9,13c2.6,3.1,6.1,4.7,10.6,4.7c2.2,0,4.4-0.4,6.5-1.2v-2.3c0-2.4,0-6-0.1-10.8
										l-6.1-0.5v-2h15.1v2l-3.5,0.3c-0.1,3.5-0.2,7.2-0.2,11v2.6C289.3,168.2,285.1,169.3,281,169.3z"/>
								</g>
								<g>
									<path class="st1" d="M318.7,169.3c-4.9,0-9-1.7-12.3-5.2c-3.6-3.8-5.4-8.8-5.4-15.1c0-4.1,0.9-7.7,2.6-10.9
										c1.6-3,3.8-5.3,6.5-6.9c2.7-1.6,5.6-2.4,8.6-2.4c3.1,0,5.9,0.8,8.6,2.3c2.8,1.7,4.9,3.9,6.5,6.9c1.7,3.2,2.6,6.9,2.6,11.1
										c0,4.1-0.8,7.7-2.5,10.9c-1.6,3-3.7,5.3-6.5,6.9C324.6,168.5,321.7,169.3,318.7,169.3z M318.7,166.8c3.8,0,6.7-1.8,8.8-5.4
										c1.8-3.2,2.7-7.4,2.7-12.3c0-5-0.9-9.1-2.7-12.3c-2.1-3.6-5.1-5.4-8.8-5.4c-3.8,0-6.8,1.8-8.9,5.4
										c-1.9,3.2-2.9,7.3-2.9,12.3c0,5,1,9.1,2.9,12.3C311.9,165,314.9,166.8,318.7,166.8z"/>
								</g>
								<g>
									<path class="st1" d="M344.2,148.6c-0.8-0.1-1.4-0.5-1.7-1.2c-0.5-1.4,0-2.5,1.5-3.3c0.9-0.6,1.6-1.5,2.2-2.7
										c0.6-1.3,0.9-2.6,0.8-3.9h0.8c0.4,1,0.6,2.1,0.7,3.2h9.7c-0.5-0.1-0.9-0.4-1.3-0.8c0-2.4-0.8-5-2.5-7.8l0.5-0.3
										c2.3,0.9,3.9,2.1,5,3.5c0.9,1.2,1.2,2.3,1,3.4c-0.2,1-0.7,1.7-1.6,1.9h10.6c1.1-2.4,2.1-5.3,3.1-8.8H353
										c-2.5,0-5.1,0.3-7.9,0.7l-1.4-2.7c1.9,0.2,4.3,0.4,7,0.4h12.5c0-2.7-0.1-5-0.4-6.6c2.9,0.7,4.6,1.3,5.3,1.7
										c0.5,0.3,0.5,0.6,0.1,1l-0.8,0.5v3.4h12l1.3-1.8c0.1-0.1,0.2-0.3,0.4-0.6c0.6-0.8,1-1.2,1.2-1.2c0.4,0,1.3,0.6,2.7,1.9
										c1.4,1.2,2.2,2,2.2,2.4c-0.1,0.6-0.6,0.8-1.4,0.8h-12.2c2.5,0.6,4.1,1.1,4.7,1.5c0.5,0.3,0.4,0.5-0.2,0.7l-0.9,0.3
										c-1.7,2.2-3.7,4.3-6,6.3h10.5l1.1-1.3c0.1-0.1,0.2-0.2,0.3-0.3c0.6-0.6,1-1,1.2-1c0.3,0,1.1,0.6,2.3,1.9
										c1.2,1.3,1.9,2.1,1.9,2.5c-0.2,0.3-0.9,0.5-2,0.5c-1.7,1.6-3.9,3.2-6.8,5l-0.6-0.4c0.7-1.3,1.6-3.1,2.5-5.4h-33.1
										c0,2.8-0.8,4.7-2.3,5.9C345.7,148.5,344.9,148.7,344.2,148.6z M343.1,172.8l-0.3-0.7c5.2-2.2,9.2-5,11.9-8.5
										c2.5-3.2,4.2-7.4,4.9-12.4h-6.9c-2.5,0-5.1,0.3-7.9,0.7l-1.4-2.6c1.9,0.2,4.3,0.4,7,0.4h12.9c0-3-0.1-5.3-0.4-7
										c2.9,0.7,4.8,1.3,5.5,1.7c0.5,0.3,0.5,0.6,0.1,1l-0.8,0.5v3.8h13.6l1.1-1.5c0.1-0.1,0.2-0.3,0.4-0.5
										c0.5-0.7,0.8-1.1,1.1-1.1c0.4,0,1.2,0.5,2.4,1.6c1.3,1.1,1.9,1.8,1.9,2.2c-0.1,0.6-0.6,0.8-1.3,0.8h-22.1
										c-0.5,2.2-1,4.2-1.6,5.9h12.8l1-1.3c0.1-0.1,0.2-0.2,0.3-0.4c0.5-0.6,0.8-0.9,1.1-0.9c0.3,0,1.1,0.6,2.3,1.7
										c1.2,1.1,1.8,1.9,1.8,2.3c-0.3,0.4-1,0.7-2,0.8c-0.8,6.6-2.3,10.6-4.4,12c-1.4,1-3.3,1.4-5.7,1.4c0.1-1.3-0.3-2.3-1-2.9
										c-0.8-0.7-2.5-1.2-5.1-1.6v-0.8c3.9,0.4,6.4,0.5,7.5,0.5c0.8,0,1.5-0.1,1.9-0.4c1.2-0.8,2.1-3.8,2.8-8.9h-13.7
										c-1.6,3.5-4,6.4-7.1,8.7C352.1,169.6,348.1,171.5,343.1,172.8z"/>
								</g>
							</g>
						</g>
					</g>
				</g>
			</g>
		</g>
		<circle class="st1" cx="174" cy="147.4" r="5.3"/>
	</g>
	<g>
		<g>
			<g>
				<g>
					<g>
						<path d="M591.5,274.9c-0.2,0-0.3-0.1-0.4-0.2c-0.1-0.1-0.2-0.3-0.2-0.4c0.1-1,0.2-2.3,0.2-3.9v-2.3c-0.1,0.1-0.3,0.2-0.5,0.3
							c-2,1-3.7,1.9-5.1,2.5c-0.1,0.4-0.4,0.6-0.7,0.7l-0.8-2.9c0.3,0,0.9-0.1,1.9-0.3c0.1,0,0.1,0,0.2,0v-18.1h-0.6
							c-0.3,0-0.5,0.2-0.8,0.4l-0.7-1.5c1.1,0.1,2.4,0.2,4,0.2h3.8l0.6-0.9c0-0.1,0.1-0.1,0.1-0.2c0.3-0.4,0.5-0.7,0.7-0.7
							c0.2,0,0.7,0.3,1.4,0.9c0.7,0.6,1.1,1.1,1.1,1.3c-0.1,0.3-0.3,0.4-0.8,0.4h-1.7V267c0,2.5,0.1,4.8,0.2,7
							C593.1,274.6,592.4,274.9,591.5,274.9z M588.1,255.2h3.1v-4.9h-3.1V255.2z M588.1,261.4h3.1v-5.3h-3.1V261.4z M588.1,268
							c0.6-0.1,1.5-0.3,2.7-0.6c0.2,0,0.3-0.1,0.4-0.1v-5.1h-3.1V268z M594.7,261.3l-1-2.5c0.6,0,1.5,0,2.6-0.1
							c0.4-0.7,0.8-1.4,1.1-2.1c1.1-2.1,1.8-4,2.3-5.7c1.4,0.6,2.2,1,2.5,1.3c0.3,0.2,0.2,0.4-0.1,0.5l-0.5,0.1
							c-1.2,1.8-2.7,3.7-4.4,5.8c0.6,0,1.5-0.1,2.8-0.2c-0.2-0.8-0.5-1.5-0.9-2.1l0.4-0.2c1.1,0.5,1.8,1.2,2.3,1.9
							c0.4,0.6,0.6,1.2,0.5,1.7c-0.1,0.5-0.3,0.9-0.7,1c-0.4,0.2-0.8,0.1-1.2-0.3c0-0.4-0.1-0.9-0.2-1.4c-0.2,0.1-0.6,0.2-1.2,0.4
							c-1.5,0.4-2.6,0.8-3.6,1.1C595.2,261.1,595,261.3,594.7,261.3z M597.5,255.6c-0.4,0.2-0.8,0.2-1.3-0.2
							c-0.1-0.6-0.4-1.2-0.8-1.9c-0.4-0.6-0.8-1.2-1.3-1.7l0.3-0.2c0.8,0.2,1.4,0.5,1.9,0.8c0.7-1.9,1.2-3.6,1.3-5
							c1.4,0.6,2.3,1,2.7,1.3c0.3,0.2,0.2,0.3-0.1,0.4l-0.5,0.2c-0.8,1.2-1.7,2.4-2.7,3.5c0.6,0.5,1,1.1,1,1.7
							C598,254.9,597.9,255.3,597.5,255.6z M594.6,274.9l-0.3-0.4c1.6-0.7,2.8-1.5,3.6-2.5c0.7-0.8,1.1-1.9,1.3-3.1h-2.3v1.5
							c0,0.1-0.2,0.3-0.5,0.4c-0.3,0.1-0.7,0.2-1,0.2s-0.5-0.2-0.5-0.6c0-0.4,0.1-0.9,0.1-1.6c0-0.3,0-0.5,0-0.7v-1.5
							c0-1.8-0.1-3.3-0.3-4.5c1.4,0.4,2.3,0.7,2.6,1c0.3,0.2,0.2,0.4-0.1,0.5l-0.5,0.3v4.1h2.4v-0.5v-2.8c0-1.1-0.1-2.1-0.2-3
							c1.4,0.4,2.3,0.7,2.6,1c0.3,0.2,0.2,0.4,0,0.5l-0.5,0.3v4c0,1.7-0.4,3.1-1.3,4.2C598.9,273.1,597.1,274.1,594.6,274.9z
							 M605.3,255.4c-0.4,0.3-0.8,0.2-1.3-0.2c-0.1-0.6-0.4-1.3-0.8-2c-0.4-0.7-0.8-1.2-1.3-1.7l0.3-0.2c0.7,0.2,1.3,0.4,1.8,0.7
							c0.7-1.7,1.1-3.3,1.3-4.8c1.4,0.6,2.3,1,2.7,1.3c0.3,0.2,0.2,0.4-0.1,0.5l-0.5,0.1c-0.8,1.1-1.7,2.1-2.7,3.3
							c0.7,0.5,1.1,1.1,1.1,1.7C605.9,254.8,605.7,255.1,605.3,255.4z M610.3,261.2c-0.4,0.2-0.8,0.1-1.2-0.3c0-0.6-0.1-1.1-0.3-1.7
							c-1.6,0.5-3.1,1-4.5,1.4c-0.2,0.3-0.4,0.6-0.7,0.6l-1.1-2.5c0.7,0,1.3,0,1.8,0c0.1-0.3,0.4-0.7,0.7-1.3
							c0.1-0.3,0.2-0.5,0.3-0.7c1.1-2.1,1.8-4,2.3-5.7c1.4,0.6,2.3,1.1,2.6,1.4c0.2,0.2,0.2,0.4-0.1,0.4l-0.6,0.1
							c-1.1,1.7-2.5,3.5-4.3,5.7c0.6,0,1.6-0.1,3.1-0.1c0.2,0,0.3,0,0.4,0c-0.4-0.9-0.7-1.7-1.1-2.3l0.3-0.2c1.2,0.6,2,1.3,2.6,2.1
							c0.5,0.7,0.7,1.3,0.6,1.9C610.9,260.6,610.7,261,610.3,261.2z M603.7,274.8c-0.4,0-0.6-0.2-0.6-0.6c0.1-1,0.1-2.3,0.2-4v-2.3
							c0-2.5-0.1-4.6-0.4-6.1c1.6,0.4,2.5,0.7,2.9,1c0.3,0.2,0.2,0.4-0.1,0.5l-0.5,0.3v4.5h2.6c0-2.4-0.1-4.4-0.4-6
							c1.5,0.4,2.4,0.7,2.7,1c0.3,0.2,0.2,0.3,0,0.5l-0.5,0.3v1.9c0,2,0.1,3.6,0.2,4.7c-0.1,0.2-0.3,0.3-0.7,0.5
							c-0.3,0.2-0.7,0.2-1,0.2c-0.3,0-0.5-0.2-0.5-0.6c0-0.1,0-0.3,0.1-0.5c0-0.2,0-0.3,0.1-0.4V269h-2.6v1.7c0,0.3,0,0.6,0,1.1
							c0,1,0.1,1.7,0.1,2.2c-0.1,0.2-0.3,0.4-0.6,0.6C604.5,274.8,604.1,274.8,603.7,274.8z"/>
					</g>
					<g>
						<path d="M620.4,273.6c-0.2,0-0.3-0.1-0.4-0.2c-0.1-0.1-0.2-0.3-0.2-0.4c0-0.1,0-0.3,0-0.5c0.1-2.2,0.2-4.3,0.3-6.5v-3.8
							c-0.8,1.4-1.7,2.7-2.6,3.8l-0.4-0.4c2.1-3.7,3.6-8.6,4.4-14.8h-1.3c-0.7,0-1.5,0.2-2.3,0.4l-0.8-1.5c1.1,0.1,2.4,0.2,4,0.2
							h4.1l1.4-1.9c0.7,0.6,1.4,1.2,2.1,1.8l0-0.1h11.2l0.7-0.9c0.1-0.1,0.1-0.2,0.2-0.3c0.3-0.4,0.5-0.6,0.6-0.6
							c0.2,0,0.7,0.3,1.4,1c0.8,0.7,1.1,1.1,1.1,1.3c-0.1,0.3-0.3,0.4-0.7,0.4h-6.1c-0.7,1.3-1.4,2.5-2.1,3.5h4.6l0.5-0.7
							c0,0,0.1-0.1,0.2-0.2c0.2-0.3,0.4-0.5,0.5-0.5c0.2,0,0.6,0.3,1.3,0.8c0.7,0.5,1,0.9,1,1.1c-0.2,0.3-0.6,0.4-1.2,0.5v5.9
							c0,2.5,0.1,4.8,0.2,7c-0.2,0.2-0.4,0.4-0.8,0.5c-0.4,0.2-0.9,0.3-1.3,0.3h-0.4v-1.1h-7.4v1c0,0.1-0.2,0.3-0.5,0.4
							c-0.4,0.2-0.8,0.3-1.3,0.3c-0.2,0-0.3-0.1-0.4-0.2c-0.1-0.1-0.2-0.3-0.2-0.4c0.1-1.9,0.2-4.1,0.3-6.4v-3.5
							c0-2.5-0.1-4.6-0.4-6.1l2.8,1.2h1.4c0.3-1.4,0.5-2.5,0.6-3.5h-5.4c-0.2,0.2-0.4,0.2-0.6,0.2h-4.7c-0.4,2.6-1,5.1-1.9,7.5
							l0.6,0.2h2.8l0.5-0.7c0-0.1,0.1-0.1,0.2-0.3c0.3-0.3,0.5-0.5,0.6-0.5c0.2,0,0.6,0.3,1.3,0.9c0.7,0.6,1,1,1,1.3
							c-0.2,0.3-0.6,0.5-1.2,0.6v4.1c0,2.5,0.1,4.8,0.2,7c-0.1,0.2-0.4,0.4-0.9,0.5c-0.4,0.2-0.8,0.3-1.2,0.3
							c-0.3,0-0.5-0.2-0.5-0.6c0-0.1,0-0.2,0.1-0.4c0-0.1,0-0.2,0.1-0.3v-0.7h-3.4v1.1c0,0.2,0,0.5,0,0.9c0,0.5,0.1,0.9,0.1,1.1
							c-0.1,0.2-0.3,0.4-0.6,0.6C621.3,273.5,620.9,273.6,620.4,273.6z M622.1,268.8h3.4v-9.5h-3.4V268.8z M626.2,274.9l-0.2-0.4
							c0.9-0.4,1.8-0.9,2.8-1.6c0.8-0.6,1.7-1.3,2.5-2.2c0.9-0.9,1.5-1.7,1.9-2.4l1.4,1.3c1.1,0.7,1.4,1,0.7,1.1l-0.5,0
							c-1.1,1-2.5,1.9-4.2,2.7C629.1,274,627.6,274.5,626.2,274.9z M632.3,258.2h7.4v-3.4h-7.4V258.2z M632.3,262.5h7.4v-3.4h-7.4
							V262.5z M632.3,266.9h7.4v-3.6h-7.4V266.9z M643.6,274.5c-0.3,0.4-0.8,0.4-1.5,0.1c-0.4-0.9-1.1-1.8-2.2-2.8
							c-1-0.9-2-1.7-3-2.3l0.3-0.3c1.9,0.3,3.5,0.9,4.6,1.6c1,0.6,1.6,1.3,1.9,2.1C644,273.5,643.9,274.1,643.6,274.5z"/>
					</g>
					<g>
						<path d="M655.3,274.9c-0.2,0-0.4-0.1-0.6-0.2c-0.1-0.1-0.2-0.3-0.2-0.4c0.2-2.6,0.3-5.2,0.3-7.8V261c-1.5,1.4-3,2.7-4.5,3.7
							l-0.3-0.3c1.6-1.6,3.1-3.6,4.7-5.9c1.2-1.8,2.1-3.6,2.5-5.2c1.6,0.9,2.5,1.5,2.9,1.9c0.3,0.3,0.3,0.4-0.1,0.5l-0.6,0.1
							c-0.6,0.9-1.4,1.9-2.5,3.1l1,0.4c-0.1,0.3-0.4,0.5-0.9,0.5v7.3c0,2.5,0.1,4.8,0.2,7c-0.2,0.2-0.4,0.4-0.8,0.6
							C656.1,274.8,655.7,274.9,655.3,274.9z M650.8,256l-0.3-0.3c1.1-1,2.3-2.2,3.4-3.7c1.5-1.8,2.5-3.5,3-5.1l1.8,1.2
							c1.3,0.7,1.6,1,0.9,1.1l-0.5,0.1c-1,1.1-2.2,2.3-3.6,3.4C653.9,254.2,652.4,255.2,650.8,256z M667.8,274.7
							c-0.1-0.8-0.3-1.4-0.8-1.7c-0.6-0.4-1.7-0.7-3.3-1v-0.4c1.6,0.1,3.3,0.2,4.9,0.3c0.5,0,0.8-0.2,0.8-0.7v-13.4h-4.3
							c-1.4,0-2.9,0.2-4.5,0.4l-0.8-1.5c1.1,0.1,2.4,0.2,4,0.2h9.1l0.7-1c0.1-0.1,0.1-0.2,0.3-0.4c0.3-0.4,0.5-0.6,0.6-0.6
							c0.2,0,0.7,0.3,1.5,1c0.8,0.7,1.2,1.1,1.2,1.3c-0.1,0.3-0.3,0.5-0.8,0.5h-4.6v13.5c0,1-0.2,1.8-0.7,2.3
							C670.5,274.2,669.4,274.6,667.8,274.7z M662.2,251.4l-0.8-1.6c1.1,0.1,2.4,0.2,4,0.2h6.4l0.7-1c0-0.1,0.1-0.1,0.2-0.2
							c0.3-0.5,0.6-0.7,0.7-0.7c0.2,0,0.7,0.3,1.4,1c0.8,0.7,1.1,1.1,1.1,1.3c-0.1,0.3-0.3,0.5-0.8,0.5h-8.5
							C665.3,251,663.8,251.1,662.2,251.4z"/>
					</g>
					<g>
						<path d="M684.9,274.6l-1.5-2.8c1.2-0.2,2.8-0.5,4.9-1v-9.4h-1.5c-0.8,0-1.7,0.2-2.6,0.4l-0.8-1.6c0.9,0.1,2,0.2,3.4,0.2h1.6
							v-3.8h-2.5l-0.1-0.5c-1,1.1-1.8,1.8-2.4,2.3l-0.4-0.3c1.1-1.3,2.2-3.1,3.3-5.3c1-2.1,1.6-4,1.8-5.8c1.6,0.6,2.6,1,3,1.3
							c0.3,0.2,0.3,0.4,0,0.5l-0.5,0.2c1.7,0.5,3,1.2,3.9,1.9c0.7,0.6,1.1,1.3,1.2,1.9c0.1,0.6-0.1,1-0.5,1.2
							c-0.4,0.3-0.9,0.2-1.3-0.1c-0.7-1.5-1.9-3-3.6-4.5c-1,2.2-2.4,4.3-4.1,6.2h5.3l0.5-0.9c0-0.1,0.1-0.1,0.2-0.2
							c0.3-0.4,0.5-0.7,0.6-0.7c0.2,0,0.6,0.3,1.3,0.9c0.7,0.6,1,1,1,1.2c-0.1,0.3-0.3,0.5-0.8,0.5h-3.7v3.8h1.5l0.6-0.9
							c0.1-0.1,0.1-0.2,0.2-0.3c0.3-0.4,0.5-0.6,0.6-0.6c0.2,0,0.6,0.3,1.3,1c0.7,0.6,1,1.1,1,1.3c-0.1,0.3-0.3,0.5-0.7,0.5h-4.4
							v8.9c1.1-0.3,2.8-0.7,5.2-1.3l0.1,0.4c-3.1,1.5-6.4,3-10,4.5C685.4,274.2,685.2,274.5,684.9,274.6z M686.3,269.3
							c-0.4,0.2-0.8,0-1.2-0.4c0.2-1.6-0.1-3.6-0.8-5.9l0.4-0.1c1,0.9,1.6,1.9,2,2.9c0.3,0.9,0.4,1.6,0.3,2.3
							C687,268.7,686.7,269.1,686.3,269.3z M691.6,268.7l-0.5-0.3c0.6-2.1,0.9-4.1,0.9-6.1l1.8,0.7c1.2,0.3,1.5,0.6,0.9,0.9
							l-0.5,0.2C693.3,266.1,692.4,267.6,691.6,268.7z M705,274.9c-0.1-0.8-0.2-1.4-0.6-1.7c-0.4-0.4-1.1-0.6-2.2-0.8v-0.4
							c1,0.1,2.1,0.1,3.1,0.2c0.4,0,0.6-0.2,0.6-0.6v-4.1h-7.3v2.2c0,1.8,0.1,3.2,0.2,4.3c-0.1,0.2-0.3,0.4-0.7,0.6
							c-0.4,0.2-0.8,0.3-1.3,0.3c-0.2,0-0.3-0.1-0.4-0.2c-0.1-0.1-0.2-0.3-0.2-0.4c0.2-2.6,0.3-5.2,0.3-7.8v-10.9
							c-0.8,0.8-1.5,1.5-2.2,2.1l-0.3-0.4c0.6-0.8,1.1-1.6,1.5-2.5c0.5-0.9,0.8-1.9,1.2-3c0.3-1.1,0.5-2.1,0.5-2.9
							c1.5,0.6,2.5,1.1,2.9,1.4c0.3,0.2,0.3,0.4,0,0.4l-0.5,0.1c-0.7,1.6-1.7,3.1-2.9,4.4l1.9,0.9h2.2v-2.8c0-2.5-0.1-4.6-0.4-6.1
							c1.6,0.4,2.7,0.7,3.1,1c0.3,0.2,0.3,0.4,0,0.6l-0.5,0.3v7.1h2.4l0.5-0.7c0-0.1,0.1-0.1,0.2-0.2c0.2-0.3,0.4-0.4,0.5-0.4
							c0.2,0,0.7,0.3,1.4,0.9c0.7,0.6,1.1,1,1.1,1.2c-0.2,0.3-0.6,0.5-1.2,0.6v14.4c0,1-0.2,1.7-0.5,2.1
							C707.2,274.4,706.4,274.7,705,274.9z M698.7,261.3h7.3V257h-7.3V261.3z M698.7,266.5h7.3v-4.4h-7.3V266.5z M709.7,255.5
							c-0.4,0.3-0.9,0.3-1.4-0.1c-0.3-0.9-0.8-1.9-1.6-3c-0.7-1-1.5-1.8-2.3-2.7l0.3-0.2c1.7,0.6,3.1,1.4,4,2.3
							c0.8,0.7,1.3,1.5,1.4,2.3C710.2,254.7,710.1,255.2,709.7,255.5z"/>
					</g>
				</g>
			</g>
		</g>
		<path class="st3" d="M566.8,265.3v10.8l-0.5,1h10.3l-0.5-1v-29.6l0.5-1h-32.9l0.5,1v29.6l-0.5,1h10.3l-0.5-1v-10.9
			c0-3.5,2.7-6.7,6.7-6.7C564,258.6,566.8,261.7,566.8,265.3L566.8,265.3z"/>
	</g>
	<g>
		<g>
			<rect x="543.7" y="199.9" class="st4" width="32.3" height="32.3"/>
			<g>
				<g>
					<path class="st5" d="M558.6,206.8c0.1-0.7,0.9-1.8,0-2.3c-0.4-0.2-0.8,0.1-1.1,0.1c-1.2,0-2.4,0-3.6-0.1
						c-0.8,0.1-1.5-0.2-2.1-0.1c-0.3,0.3-0.6,0.8-0.3,1.2c0.7-0.1,1.4,0,2-0.2c1.3,0.4,2.8,0.1,4.1,0l0.2,0.2c0,1.2-0.9,0.1-1.4,0.5
						c-1.6-0.1-2.9,0.1-4.6,0l-0.2,0.5c0.4,1.3,0.2,2.9,0.1,4.2c-0.4,0.5-0.8,1.1-1.6,0.9c-0.3,0-0.4-0.3-0.6-0.2
						c-0.2,0.3,0,0.7,0.1,0.8c0.4,0.4,1.2,0.7,1.7,0.4c0.2-0.1,0.5-0.3,0.7-0.2c0.6-1.4,0.6-2.8,0.7-4.4c0.2-0.4-0.3-0.7,0.1-1
						c0.5,0.3,0.9-0.2,1.4,0.1c-0.5,0.1,0,0.8-0.7,0.6c-0.2,0.3-0.5,0.3-0.5,0.7c0.1,0.2,0.4,0.3,0.6,0.3c0.1,0,0.1,0,0.2,0.1
						c0.2-0.1,0.3-0.2,0.5-0.2c0.1,0.2,0.1,0.5,0,0.7c-0.3,0-0.5,0-0.7-0.3c-0.3,0.2-0.7,0.3-0.6,0.8c-0.1,0.5,0.3,0.5,0.7,0.5
						c0.1,0.2,0,0.5,0.1,0.6c0.2,0.6-0.1,1.2-0.1,1.8c0.1,0.3,0.4,0.5,0.7,0.6c0.6-0.2,0.9-0.9,1.2-1.4c0.1,0,0.2,0.2,0.3,0.2
						c-0.1,0.4,0.5,0.6,0.5,1c0.2,0.1,0.4,0.3,0.5,0.2c0.2,0.1,0.4,0.2,0.6,0.2c0.3,0,0.5-0.3,0.7-0.1c0.3-0.2,0.2-0.5,0.5-0.7
						c-0.3,0-0.6-0.3-0.9-0.1c-0.5-0.4-1.3-0.5-1.7-1.1c0.4-0.3,0.9-0.8,1.5-0.9c0.1-0.2-0.2-0.3-0.2-0.5c0.2-0.2,0.4,0.2,0.5-0.2
						l0.1,0.1c0.3,0,0.6,0,0.7-0.1c-0.1,0-0.1,0-0.2-0.1l0.2-0.2c-0.2-0.2-0.6-0.2-1-0.2c-0.2-0.2-1,0.2-0.8-0.5
						c0-0.6,0.7-0.3,1-0.5c0.3,0.3,0.2-0.3,0.4-0.3c-0.3-0.4-0.7-0.1-1.1-0.2c-0.4-0.2,0.2-0.5-0.2-0.7c0.5,0,0.8-0.3,1.3-0.3
						C558.4,206.8,558.5,207,558.6,206.8z M554.6,211.9c0-0.5-0.3-1,0-1.4c0,0.5,0.6,0.6,0.6,1.1L554.6,211.9z M555.8,210.8
						c-0.4-0.1-0.3-0.6-0.6-0.7c0.3,0,0.7-0.1,1,0.1C556.1,210.4,556,210.6,555.8,210.8z M556.1,209.2l-1.2-0.2
						c-0.1-0.4,0.3-0.4,0.5-0.4c0.2-0.1,0.5,0.1,0.7-0.1C556.2,208.8,556.4,209,556.1,209.2z M556.1,207.7L556.1,207.7
						c-0.2,0.3-0.5,0-0.7,0.1c-0.5,0-0.5-0.4-0.8-0.6l-0.4,0c0.7,0,1.4-0.2,2.1,0C556.1,207.3,556,207.5,556.1,207.7z"/>
					<g>
						<path class="st5" d="M559.1,221.6c-0.1,0.1-0.4,0.1-0.6,0c-0.3,0.2-0.7,0-1,0.1l-0.1-0.1c-0.1-0.1-0.2,0.1-0.3,0.1
							c-0.5-0.1-1.2-0.1-1.4-0.7c0.4-0.5,1.2-0.3,1.7-0.3c0.3-0.1,0.5-0.2,0.7-0.4c-0.1-0.2-0.3-0.2-0.5-0.3c-0.2,0.4-0.5,0-0.7,0
							c-0.3,0-0.9,0-1.1,0c0.1-0.2,0-0.4,0.3-0.6c0.6,0.1,1.5,0,2-0.2l0-0.2c-0.2-0.1-0.3-0.2-0.6-0.2c-0.2-0.2-0.4,0.3-0.5-0.1
							c-0.2,0-0.4,0.4-0.6,0c-0.1,0.1-0.2,0.1-0.3,0.1c-0.1-0.1-0.2-0.2-0.2-0.3c0.2-0.1,0.3-0.2,0.6-0.2c0.3,0.1,0.6-0.2,1-0.2
							c0-0.1-0.1-0.3,0.1-0.3c-0.3-0.5,0.3-0.6,0.5-0.8c0.2,0.1,0.3,0.2,0.6,0.2c0.3-0.4,0.6,0.1,1-0.1c-0.2-0.1,0-0.4-0.2-0.5
							c-0.3,0-0.5-0.1-0.7,0c-0.1-0.1-0.3-0.1-0.4-0.1c-1,0.1,0.2-0.6-0.1-1.1c-0.5-0.9-1.1,0.4-1.9,0c-0.2-0.1-0.4-0.3-0.2-0.6
							c-0.1-0.4-0.4-0.7-0.9-0.6c-0.2,0.2-0.6,0.5-0.6,0.9c-0.4,0.3-1.1,0.2-1.6,0.1c-0.4,0.2,0.1,0.5-0.1,0.8c0.1,0,0.2,0.2,0.3,0
							l0.2,0.2c-0.3,0.2-0.5,0.3-0.7,0.6c0.1,0.2,0.1,0.5,0.3,0.6l1.5-0.3c0.1,0.2,0.2,0.3,0.2,0.5c-0.6,0.3-1.1-0.2-1.7,0.1
							c-0.3,0.4,0.2,0.6,0.1,1c0.2,0.1,0.5,0.2,0.6-0.1c0.3-0.1,0.7-0.1,1,0c-0.1,1-1.9-0.2-1.7,1.1c0.3,0.5,0.8-0.2,1.3-0.1
							c0.3,0,0.6,0,0.5,0.4c-0.3,0.2-0.8,0.3-1.1,0.1l-0.2,0.2c-0.6,0-0.6,0.7-1.3,0.5c-0.5-0.5,0.5-0.9,0.3-1.4
							c0.2-0.4,0.3-1.1,0-1.5c-0.4-0.6-1.2-0.3-1.8-0.3c-0.1,0.1-0.2,0.2-0.3,0.1l-0.2,0.2c-0.1-0.2-0.2,0-0.3,0.1
							c0,0.2-0.4,0.5,0,0.6c0.2,0.6,0.6,0,1,0c0.4,0.1,0.7-0.5,1.1-0.1c-0.1,0.6-0.2,1.2-0.5,1.8c-0.1,0.1-0.3,0.3-0.5,0.2
							c-0.2-0.1-0.5-0.1-0.6,0c0.2,0.1,0,0.4,0.2,0.5c0.2,0.4-0.6,0.5-0.8,0.8c-0.3,0.3-0.1,0.6,0.1,0.9c0.6-0.3,1.3-0.4,1.6-1.1
							c0.4-0.1,0.6,0.1,1,0.2c0.4-0.3,0.6,0.2,1,0.2c0.3,0.4,0.7,0.2,1,0.5c0.4,0,0.6,0.6,1,0.3c0.7,0.3,1.5,0.4,2.3,0.6
							c0.6-0.2,1.2-0.5,1.7-1.1c0.1-0.2,0.1-0.5,0-0.6C559.5,221.4,559.3,221.5,559.1,221.6z M557.1,216.2c-0.3,0.2-0.7,0-1,0l0-0.2
							C556.6,216,556.9,215.8,557.1,216.2z M556.9,217.1c0.2,0.7-0.6,0.3-0.9,0.4C555.8,216.9,556.6,217.2,556.9,217.1z
							 M553.7,216.2c0.2-0.2,0.6-0.3,1-0.2C554.5,216.3,554,216,553.7,216.2z M555.1,221.3c-0.4,0.1-0.6-0.2-1-0.3
							c0-0.3,0.4-0.3,0.5-0.1c0.1-0.2,0.2-0.1,0.4-0.1C555.2,220.9,555.1,221.1,555.1,221.3z"/>
						<path class="st5" d="M552.3,216.8l0.1-0.6c-0.3-0.3-0.5-0.5-0.9-0.7c-0.4,0-0.5,0.2-0.8,0.5c-0.1,0.3,0.1,0.5,0.2,0.7
							C551.3,217.1,551.8,216.8,552.3,216.8z"/>
					</g>
					<g>
						<path class="st5" d="M561.1,206.7c0.1,0.2,0,0.6,0.1,0.8l-0.1,0.1c0,0.1,0,0.1,0.1,0.2c0,0.7-0.2,1.6,0.1,2.3
							c0.2-0.3,0.5-0.4,0.7-0.6l-0.2-0.2c0.2-0.6,0-1,0.2-1.6c-0.1-0.2,0-0.6-0.1-0.7c0-0.6,0.7-0.6,1.1-0.8c1.6,0,3-0.2,4.5,0.1
							l0.2,1c0.1,1,0,2.1,0,3.1c0.4,0,0.2-0.5,0.6-0.6c0,0,0.1,0.1,0.2,0.1l0.1-1.1c0.2-1.1,0.6-2.7-0.3-3.6
							c-0.6-0.4-0.7,0.4-1.2,0.5c-0.6-0.1-0.9-0.2-1.5-0.2c-0.3-0.2-0.1-0.5-0.1-0.7c-0.1-0.9-1.1-0.6-1.5-0.4
							c0.1,0.3-0.2,0.7,0.1,1c-0.7,0.3-1.4,0-2.1,0.3c-0.1-0.3-0.4-0.3-0.6-0.3C560.5,205.4,561.6,206.1,561.1,206.7z"/>
						<path class="st5" d="M569.5,211.2c0.1,0.2-0.1,0.3-0.2,0.4l-0.1-0.1l-0.2,0.2l-0.2-0.2c-0.2-0.1-0.2,0.1-0.3,0.2
							c-0.3-0.2-0.7,0.1-1,0c-0.1,0-0.2,0-0.2,0.1l-0.1-0.1c-0.1,0-0.1,0-0.2,0.1c-0.2-0.1-0.5,0-0.6-0.3l0.3-1.8
							c-0.2-0.3,0.1-0.8,0-1.1c0.1-0.2,0.1-0.5,0.1-0.7c0.4-0.2-0.1-0.5-0.1-0.8c-0.2-0.2-0.4-0.4-0.7-0.3c-0.5,0.4-1.3,0.2-1.9,0.1
							l-0.1,0.1c-0.3-0.4-0.8-0.4-1.2-0.3c-0.2,0.3,0,0.7,0.2,1l0,3.9l-0.2,0.2c-0.5-0.1-0.9,0.2-1.4,0c-0.3,0.1-0.5,0.1-0.7,0.4
							c0,0.1,0,0.2,0.1,0.2l-0.2,0.2c0.1,1.4,1.2-0.1,1.9,0.3c0.3-0.1,0.6-0.1,0.8-0.4l0.2,0.2l0.1-0.1c0.3,0.4,0.6-0.4,0.8,0.1
							c0.7,0,1.4,0.1,2,0c0.1,0.1,0.3,0.1,0.4,0c0.6,0.2,1.3,0,1.9,0c0.5,0.2,0.7,0.1,1.1-0.1c0-0.3,0-0.5-0.2-0.7l0.3-0.3
							L569.5,211.2z M564.1,207.9c0.6,0.1,1.3-0.3,1.6,0.2l0,0.6c-0.2,0-0.5-0.2-0.6,0l-0.1-0.1c-0.4,0.3-0.5-0.2-0.9-0.2
							L564.1,207.9z M565.2,209.4c0.2,0.1,0.4,0,0.6,0.3c0,0.3,0,0.7-0.4,0.6c-0.4-0.2-0.8,0-1.2-0.2l-0.1,0.1
							C563.7,209.3,564.7,209.5,565.2,209.4z M565.2,211.6c-0.5,0.1-0.7-0.2-1.1,0.1c-0.1-0.1-0.1-0.4-0.1-0.6
							c0.6-0.1,1.2-0.1,1.7-0.3c0,0.1-0.1,0.3,0.1,0.3C565.4,211.2,565.6,211.5,565.2,211.6z"/>
					</g>
					<g>
						<path class="st5" d="M561.5,215.9c0.1,0.1,0.2,0.3,0.4,0.2l0-0.1c0.3,0,0.6-0.4,0.8,0c0,0.1,0,0.1-0.1,0.2
							c0.1,0.1,0.1,0.2,0.1,0.3c0.4,0.9-0.8,0.4-0.8,1.1c-0.1,0.2-0.1,0.7-0.1,0.9c0.3,0.1,0.7,0.1,1.1,0c0.2,0.1,0,0.4,0.2,0.5
							c-0.1,0.2-0.3,0.1-0.5,0.2c-0.2,0.1-0.4-0.2-0.4-0.3c-0.3,0.2-0.5,0.7-0.7,1c0.1,0.4,0.5,0.4,0.9,0.3c0.4,0,0.8-0.2,1.1-0.1
							c0.5-0.3,1.3,0.2,1.5-0.4c0.2-0.2-0.1-0.3-0.1-0.5c-0.4,0.1-0.9-0.1-1.3-0.2l0.1-0.5c0.1-0.4,0.4,0.1,0.6-0.2
							c0-0.1,0-0.1-0.1-0.2c0-0.4,0.5-0.4,0.6-0.8c-0.5-0.1-0.9-0.2-1.4-0.3l0.1-1.1c0.2-0.3,0.6-0.1,1-0.1c0-0.3,0.4-0.5,0.3-0.8
							l-0.1,0.1c-0.9,0.2-1-0.6-1.4-1c-0.2,0-0.4,0-0.5,0.2c-0.1,0.1-0.1,0.4-0.1,0.5l-0.2,0.2c-0.5-0.3-0.6,0.2-1.1,0.3
							C561.4,215.6,561.5,215.7,561.5,215.9z"/>
						<path class="st5" d="M565.5,215.7c0.2,0.8,0.9,0.2,1.3,0.2c0.1,0.1,0.1,0.2,0.1,0.3c0.1,0.3-0.2,1,0.5,0.9
							c0.6,0.1,0.5-0.6,0.5-1c0.3-0.4,0.6,0.1,1.1-0.1c0.2-0.2-0.1-0.4,0-0.6c-0.4-0.4-0.8,0-1.2-0.3l0.1-0.1c0-0.1,0-0.1-0.1-0.2
							c0,0,0.1-0.1,0.1-0.2c0-0.5-0.6-0.4-0.9-0.3c0,0.2-0.3,0.4-0.1,0.6c-0.2,0.1-0.6,0-0.7,0.1c-0.1-0.1-0.2-0.2-0.4-0.2
							C565.4,215.1,565.6,215.5,565.5,215.7z"/>
						<path class="st5" d="M561.5,222.9c0,0,0.1,0,0.1,0C561.6,222.9,561.6,222.9,561.5,222.9z"/>
						<path class="st5" d="M569.7,220.4c0,0.2-0.2,0.3-0.2,0.4l-3.1-0.1c-0.3-0.2-0.7,0-0.8-0.4c0.5,0,1.2,0,1.7-0.2
							c0.4,0,0.8,0.4,1.1,0c-0.3-0.8,0.6-1.3,0.4-2.2c-0.4-0.3-0.9-0.7-1.4-0.4c-0.4-0.2-0.8,0.1-1.2,0c-0.2-0.4-0.5,0-0.6,0.2
							c-0.5,0.4,0.3,0.8,0.2,1.2c-0.4,0.3-0.2,0.9-0.5,1.3c-0.1,0-0.2,0-0.2-0.1c-0.3,0.2-0.2,0.8-0.8,0.6c-0.6-0.2-1.4,0-2.1,0
							c-0.5-0.2-1.1-0.1-1.5,0.2c-0.2,0.4,0,0.8,0.1,1.1c0.4-0.2,1.1,0.2,1.3-0.4c0.4-0.1,1-0.2,1.3,0.1c-0.1,0.1-0.1,0.2-0.2,0.3
							c-0.3,0.6-0.9,0.9-1.5,0.9c0,0,0.1,0,0.1,0.1l-0.1,0.1c0.2,0,0.4,0.2,0.6,0.3c1,0.1,1.4-1.1,2.2-1.4c0-0.2,0-0.3,0.2-0.4
							c0.3,0.7,0,1.4,0.3,2.1c0.3,0,0.6,0,0.7-0.3l-0.1-0.1c0.1-0.2,0.1-0.6,0-0.9c0.1-0.5,0.1-1,0.8-0.8c0.5,0.2,0.3,0.9,0.5,1.4
							c0.5,0.6,1.1,0,1.7-0.1c0.1,0,0.3,0.2,0.4,0c0.1-0.2-0.1-0.2-0.2-0.3c-0.7,0.2-1.1-0.6-1.5-0.9c0.2-0.3,0.3,0.2,0.5-0.1
							c0.3,0.2,0.8-0.1,1,0.2l0.1-0.1c0.2,0,0.4-0.1,0.6,0.1c0.5,0.1,0.4-0.4,0.7-0.5C570.6,220.7,569.6,220.9,569.7,220.4z
							 M567.7,218.5l-0.1,0.7c-0.2,0.1-0.6,0.1-0.9,0l-0.1-0.6C567,218.6,567.4,218.4,567.7,218.5z"/>
					</g>
				</g>
				<g>
					<path class="st5" d="M550.2,227.7l2-2l0,0l-1.8,0l0-0.3l2.4,0l0,0.2l-2,2l0,0l2,0l0,0.3l-2.6,0L550.2,227.7z"/>
					<path class="st5" d="M553.6,227c0,0.4,0.4,0.6,0.9,0.6c0.3,0,0.5,0,0.7-0.1l0.1,0.2c-0.2,0.1-0.4,0.1-0.9,0.1
						c-0.8,0-1.2-0.4-1.2-0.9c0-0.6,0.5-1,1.2-1c0.8,0,1,0.5,1,0.9c0,0.1,0,0.1,0,0.2L553.6,227z M554.9,226.8
						c0-0.2-0.1-0.5-0.6-0.5c-0.5,0-0.7,0.3-0.7,0.5L554.9,226.8z"/>
					<path class="st5" d="M556,226.6c0-0.2,0-0.3,0-0.5l0.4,0l0,0.3l0,0c0.1-0.2,0.4-0.3,0.8-0.3c0.4,0,0.9,0.2,0.9,0.8l0,1.1
						l-0.5,0l0-1c0-0.3-0.1-0.5-0.6-0.5c-0.3,0-0.5,0.1-0.6,0.3c0,0,0,0.1,0,0.2l0,1.1l-0.5,0L556,226.6z"/>
					<path class="st5" d="M559.5,227.2l-0.4,0.8l-0.5,0l1.2-2.5l0.6,0l1.2,2.5l-0.5,0l-0.4-0.8L559.5,227.2z M560.6,226.9l-0.3-0.7
						c-0.1-0.2-0.1-0.3-0.2-0.5l0,0c0,0.1-0.1,0.3-0.2,0.5l-0.4,0.7L560.6,226.9z"/>
					<path class="st5" d="M562.1,226.7c0-0.2,0-0.4,0-0.6l0.4,0l0,0.4l0,0c0.1-0.2,0.4-0.4,0.7-0.4c0,0,0.1,0,0.1,0l0,0.3
						c-0.1,0-0.1,0-0.2,0c-0.3,0-0.6,0.2-0.6,0.4c0,0,0,0.1,0,0.2l0,1l-0.5,0L562.1,226.7z"/>
					<path class="st5" d="M565.6,228c-0.1,0-0.4,0.1-0.7,0.1c-0.8,0-1.3-0.4-1.3-0.9c0-0.6,0.5-1,1.4-1c0.3,0,0.5,0.1,0.6,0.1
						l-0.1,0.3c-0.1,0-0.3-0.1-0.5-0.1c-0.6,0-0.9,0.3-0.9,0.7c0,0.4,0.4,0.7,0.9,0.7c0.3,0,0.4,0,0.6-0.1L565.6,228z"/>
					<path class="st5" d="M566.1,225.4l0.5,0l0,1.1l0,0c0.1-0.1,0.2-0.2,0.3-0.2c0.1-0.1,0.3-0.1,0.5-0.1c0.3,0,0.9,0.2,0.9,0.8
						l0,1.1l-0.5,0l0-1c0-0.3-0.1-0.5-0.6-0.5c-0.3,0-0.5,0.1-0.6,0.3c0,0,0,0.1,0,0.2l0,1.1l-0.5,0L566.1,225.4z"/>
					<path class="st5" d="M569.3,225.9c-0.2,0-0.3-0.1-0.3-0.2c0-0.1,0.1-0.2,0.3-0.2c0.2,0,0.3,0.1,0.3,0.2
						C569.6,225.8,569.5,225.9,569.3,225.9L569.3,225.9z M569,228.1l0-1.8l0.5,0l0,1.8L569,228.1z"/>
				</g>
			</g>
		</g>
		<g>
			<g>
				<g>
					<path d="M609,229.5c-2.8-0.9-5-2-6.6-3.5c-1.7-1.6-3-3.7-3.8-6.3l-3.1,0l0,6c2.1-0.3,4-0.6,5.7-0.9l0.1,0.5
						c-3.6,1.3-7,2.4-10.4,3.4c-0.2,0.4-0.4,0.6-0.6,0.7l-1.4-2.8c0.5,0,1.5-0.2,3.1-0.4c0.6-0.1,1.1-0.2,1.4-0.2l0-6.4l-4.2,0
						c-0.9,4-2.5,7.2-4.8,9.6L584,229c1.4-2.5,2.4-5.4,3-8.9c0.4-2.4,0.6-5.6,0.6-9.4l0-4.2c0-1.7-0.1-3.1-0.2-4.3l3,1.3l15.6,0.1
						l0.5-0.7c0,0,0.1-0.1,0.2-0.2c0.3-0.3,0.5-0.5,0.6-0.5c0.2,0,0.7,0.3,1.4,0.9c0.7,0.6,1.1,1,1.1,1.2c-0.2,0.3-0.6,0.5-1.2,0.6
						l0,1.7c0,0.3,0,0.6,0,1c0,0.9,0.1,1.6,0.1,2.1c-0.1,0.2-0.4,0.4-0.8,0.5s-0.9,0.3-1.3,0.3l-0.4,0l0-1l-16.2-0.1l0,1.4
						c0,1.3,0,2.2-0.1,2.9l4.8,0c0-1.6-0.1-2.8-0.2-3.8c1.5,0.4,2.5,0.8,2.8,1c0.3,0.2,0.3,0.4,0,0.5l-0.5,0.3l0,2l4.9,0
						c0-1.6-0.1-2.8-0.2-3.7c1.5,0.4,2.5,0.8,2.8,1c0.3,0.2,0.3,0.4,0,0.5l-0.5,0.3l0,1.9l2.5,0l0.6-0.9c0-0.1,0.1-0.1,0.2-0.3
						c0.3-0.4,0.5-0.7,0.6-0.7c0.2,0,0.7,0.3,1.4,1c0.7,0.6,1.1,1.1,1.1,1.3c-0.1,0.3-0.3,0.5-0.8,0.5l-5.5,0l0,4.3l3.1,0l0.6-0.9
						c0-0.1,0.1-0.1,0.2-0.2c0.3-0.5,0.6-0.7,0.7-0.7c0.2,0,0.7,0.3,1.4,1c0.7,0.7,1.1,1.1,1.1,1.3c-0.1,0.3-0.3,0.4-0.8,0.4
						l-10.8-0.1c0.7,1.5,1.7,2.8,3,3.9c1.8-1.3,3.3-2.6,4.3-3.9c1.2,1,1.9,1.6,2.1,2c0.2,0.3,0.1,0.4-0.2,0.4l-0.5,0
						c-1.5,0.7-3.2,1.3-5.2,1.9c2,1.4,4.7,2.4,8.1,3l0,0.4C609.9,227.6,609.3,228.3,609,229.5z M589.3,218.8l5.3,0l0-4.3l-4.7,0
						l-0.1-0.3C589.7,215.9,589.5,217.4,589.3,218.8z M589.9,208.5l16.2,0.1l0-4.1l-16.2-0.1L589.9,208.5z M596.7,218.8l4.9,0l0-4.3
						l-4.9,0L596.7,218.8z"/>
				</g>
				<g>
					<path d="M617.7,228.7l-0.8-1.5c1.1,0.1,2.4,0.2,4,0.3l2.3,0l0.1-11.8c0-2.5-0.1-4.6-0.4-6.1l2.9,1.2l9.3,0.1l0.5-0.8
						c0.1-0.1,0.1-0.2,0.2-0.3c0.2-0.4,0.4-0.5,0.5-0.5c0.2,0,0.7,0.3,1.5,1c0.8,0.7,1.2,1.1,1.2,1.3c-0.2,0.3-0.7,0.5-1.3,0.6
						l-0.1,15.6l1.8,0l0.7-1.1c0-0.1,0.1-0.1,0.2-0.3c0.3-0.5,0.6-0.8,0.7-0.8c0.2,0,0.7,0.4,1.5,1.1c0.8,0.7,1.2,1.2,1.2,1.4
						c-0.1,0.3-0.3,0.5-0.8,0.5l-20.8-0.1C620.8,228.4,619.3,228.5,617.7,228.7z M618.6,211.5c-0.5,0-0.8-0.2-1-0.6
						c-0.3-0.7,0-1.3,0.8-1.9c0.7-0.4,1.2-1,1.6-1.8c0.5-0.9,0.7-1.9,0.6-2.9l0.5,0c0.2,0.6,0.3,1.2,0.4,1.7l7.6,0
						c0-1.7-0.1-3.1-0.2-4.3c1.7,0.4,2.7,0.8,3.1,1c0.3,0.2,0.3,0.4,0,0.6l-0.5,0.3l0,2.4l8.6,0.1l0.6-0.7c0-0.1,0.1-0.1,0.2-0.2
						c0.3-0.3,0.5-0.5,0.6-0.5c0.2,0,0.6,0.4,1.3,1.1c0.7,0.7,1,1.2,1,1.4c-0.2,0.2-0.5,0.3-1.1,0.3c-1.2,1.3-2.5,2.3-3.7,3.2
						l-0.4-0.2c0.5-1,1-2.1,1.5-3.4l-18.6-0.1c0,1-0.2,1.9-0.5,2.7c-0.3,0.7-0.7,1.2-1.1,1.5C619.5,211.4,619.1,211.6,618.6,211.5z
						 M625.5,227.5l9.9,0.1l0-4.9l-9.9-0.1L625.5,227.5z M625.5,221.7l9.9,0.1l0-4.6l-9.9-0.1L625.5,221.7z M625.5,216.2l9.9,0.1
						l0-4.6l-9.9-0.1L625.5,216.2z"/>
				</g>
				<g>
					<path d="M650.1,229.7l-0.2-0.4c2.1-1.7,3.6-3.9,4.7-6.7c-0.6-1.1-1.1-2.7-1.6-4.5c-0.1,0.2-0.3,0.5-0.5,0.8
						c-0.5,1-0.9,1.7-1.1,2.1c0.2,0.3,0.1,0.5,0,0.7l-1.5-1.6c1-0.8,1.9-1.8,2.9-2.8l0.3-1.3l1,0.4l-0.8,1.1c0.4,1.5,1,2.8,1.7,4.1
						c0.6-2,1.1-4.4,1.3-7.3l-2.7,0l-0.8,1.5c-0.6,0.2-1.3,0.1-2.1-0.2c1.5-3,3-6.4,4.4-10l-1.5,0c-0.9,0-1.8,0.1-2.8,0.4l-0.8-1.5
						c1,0.1,2.1,0.2,3.5,0.3l1.6,0l0.5-0.7c0.1-0.1,0.1-0.1,0.2-0.3c0.2-0.3,0.4-0.5,0.5-0.5c0.2,0,0.6,0.3,1.3,1
						c0.7,0.7,1,1.1,1,1.3c-0.2,0.2-0.7,0.4-1.4,0.5c-0.8,1.8-1.9,4.3-3.4,7.3l2.1,0l0.5-0.7c0,0,0.1-0.1,0.2-0.2
						c0.3-0.3,0.5-0.5,0.6-0.5c0.2,0,0.6,0.3,1.2,0.9c0.6,0.6,0.9,1,0.9,1.2c-0.1,0.2-0.5,0.4-1,0.4c-0.5,3.6-1.3,6.5-2.4,8.7
						c1.3,1.4,2.9,2.4,5,3c1.7,0.4,4.2,0.7,7.5,0.7c4,0,6.7,0,8.1,0l0,0.4c-0.4,0.1-0.8,0.3-1,0.7c-0.2,0.3-0.4,0.7-0.4,1.2l-6.8,0
						c-3.4,0-6-0.3-7.9-1c-2.2-0.7-3.9-2-5.1-3.9C654.2,226.5,652.4,228.3,650.1,229.7z M665.6,226.1c-0.4,0-0.6-0.2-0.6-0.6
						c0-0.3,0.1-0.8,0.1-1.4c0-0.3,0-0.5,0-0.7l0-1.3l-2.3,0c-1.4,0-2.8,0.1-4.3,0.4l-0.8-1.5c1.1,0.1,2.4,0.2,4,0.3l3.3,0l0-3.2
						l-1.9,0c-1.1,0-2.3,0.1-3.5,0.4l-0.8-1.5c1.1,0.1,2.4,0.2,4,0.3l2.2,0l0-3.1l-1.8,0c-1,0-2.1,0.1-3.2,0.4l-0.8-1.5
						c1.1,0.1,2.4,0.2,4,0.3l1.9,0l0-3.1l-2.5,0c-1.4,0-2.9,0.1-4.5,0.4l-0.8-1.5c1.1,0.1,2.4,0.2,4,0.3l3.8,0l0-3.1l-1.8,0
						c-1,0-2.1,0.1-3.2,0.4l-0.8-1.6c1.1,0.1,2.4,0.2,3.9,0.3l1.9,0c0-1.4-0.1-2.5-0.2-3.4c1.6,0.4,2.6,0.8,3,1
						c0.3,0.2,0.3,0.4,0,0.6l-0.5,0.3l0,1.4l3.5,0l0.5-0.7c0-0.1,0.1-0.1,0.2-0.2c0.3-0.3,0.5-0.5,0.6-0.5c0.2,0,0.6,0.3,1.3,0.9
						c0.7,0.6,1,1,1,1.2c-0.2,0.3-0.6,0.5-1.2,0.6l0,2.7l0.4,0l0.5-0.9c0.1-0.1,0.1-0.2,0.2-0.3c0.2-0.4,0.4-0.6,0.5-0.6
						c0.2,0,0.6,0.3,1.2,1c0.6,0.6,0.9,1.1,0.9,1.3c-0.1,0.3-0.3,0.5-0.8,0.5l-3,0l0,1.4c0,0.2,0,0.5,0,0.9c0,0.8,0.1,1.4,0.1,1.8
						c-0.1,0.2-0.4,0.4-0.8,0.5c-0.4,0.2-0.8,0.3-1.2,0.3l-0.4,0l0-1l-3.8,0l0,3.1l3.8,0l0.6-0.9c0-0.1,0.1-0.1,0.2-0.2
						c0.3-0.4,0.6-0.7,0.7-0.7c0.2,0,0.6,0.3,1.3,0.9c0.7,0.6,1,1,1,1.3c-0.1,0.3-0.3,0.5-0.8,0.5l-6.9,0l0,3.2l4.6,0l0.7-1
						c0.1-0.1,0.1-0.2,0.2-0.3c0.3-0.5,0.6-0.7,0.7-0.7c0.2,0,0.7,0.3,1.5,1c0.8,0.7,1.2,1.1,1.2,1.3c-0.1,0.3-0.3,0.5-0.8,0.5
						l-8.1,0l0,1.1c0,0.2,0,0.5,0,0.9c0,0.5,0.1,0.9,0.1,1.1c-0.1,0.2-0.3,0.4-0.7,0.6C666.4,226.1,666,226.1,665.6,226.1z
						 M667.4,213.3l3.8,0l0-3.1l-3.8,0L667.4,213.3z M667.4,209.3l3.8,0l0-3.1l-3.8,0L667.4,209.3z"/>
				</g>
				<g>
					<path d="M695.5,230c-0.4,0-0.6-0.2-0.6-0.6c0.1-0.9,0.2-2.2,0.2-3.7l0-2.2c-2.8,2.7-6.8,4.7-12.1,6l-0.2-0.5
						c4.3-1.6,7.7-3.8,10.1-6.6l-4.4,0c-1.4,0-2.9,0.1-4.5,0.4l-0.8-1.5c1.1,0.1,2.4,0.2,4,0.3l8,0l0-2.6c-1.1,0.5-2.5,0.9-4,1.2
						l-0.3-0.5c1.7-0.4,3-1.1,3.9-1.9c0.9-0.8,1.5-1.7,1.9-2.9l-1.1,0c-0.6,0-1.3,0.2-1.9,0.4l-0.8-1.5c0.8,0.1,1.7,0.2,2.8,0.3
						l1.3,0c0.2-0.9,0.3-1.9,0.4-3l-1,0c-0.5,0-1,0.2-1.5,0.4l-0.8-1.5c1.1,0.1,2.4,0.2,4,0.3l4.9,0l0.3-0.4c-0.4,0.1-0.7,0-1.1-0.3
						c-0.1-1-0.5-2-1.3-3.1l-1.9,0c-1.2,1.4-2.5,2.4-3.8,3.2l-0.4-0.4c0.5-0.5,0.9-1,1.2-1.4c0.6-0.8,1.1-1.8,1.6-2.9
						c0.5-1.1,0.8-2.1,1-3c1.5,0.6,2.5,1,2.8,1.3c0.3,0.2,0.3,0.4-0.1,0.5l-0.5,0.2c-0.4,0.6-0.8,1.2-1.1,1.7l5.9,0l0.6-0.9
						c0-0.1,0.1-0.1,0.2-0.3c0.3-0.4,0.5-0.7,0.6-0.7c0.2,0,0.7,0.3,1.4,1c0.7,0.6,1.1,1.1,1.1,1.3c-0.1,0.3-0.3,0.5-0.7,0.5l-6.3,0
						c0.6,0.3,1.1,0.8,1.4,1.3c0.2,0.4,0.3,0.8,0.2,1.2c1,0.8,1.6,1.4,1.8,1.7c0.2,0.3,0.1,0.4-0.2,0.5l-0.5,0.1l0,5.3
						c0,0.2,0,0.3,0.1,0.3c0.1,0,0.2,0.1,0.4,0.1l0.8,0l0.8,0c0.2,0,0.3-0.1,0.4-0.2c0.1-0.2,0.3-1,0.7-2.3c0.1-0.2,0.1-0.4,0.1-0.5
						l0.4,0l0.1,2.9c0.4,0.2,0.7,0.5,0.7,0.9c0,0.5-0.2,0.8-0.7,1c-0.5,0.2-1.3,0.3-2.5,0.3l-1.3,0c-0.8,0-1.4-0.2-1.6-0.5
						c-0.2-0.2-0.3-0.7-0.3-1.5l0-2.5c-0.1,0.3-0.3,0.4-0.7,0.4l-3.7,0c-0.6,1.7-1.7,2.9-3.4,3.8c1.3,0.3,2.2,0.6,2.5,0.9
						c0.2,0.2,0.2,0.4-0.1,0.5l-0.5,0.3l0,1.1l7.8,0l0.6-0.9c0.1-0.1,0.1-0.2,0.2-0.3c0.3-0.4,0.5-0.6,0.6-0.6
						c0.2,0,0.7,0.3,1.4,0.9c0.8,0.6,1.1,1,1.1,1.3c-0.1,0.3-0.3,0.5-0.7,0.5l-10.1-0.1c1.3,1,3,2,5.2,2.8c2,0.8,4,1.3,6.1,1.6
						l0,0.3c-1,0.2-1.6,0.9-1.9,2.1c-2.2-0.7-4.1-1.6-5.9-2.7c-1.9-1.2-3.3-2.6-4.4-4.2l-0.1,0l0,2.3c0,1.9,0.1,3.3,0.2,4.4
						c-0.1,0.2-0.4,0.4-0.8,0.6C696.4,229.9,696,230,695.5,230z M683.3,210.5l-0.4-0.4c0.6-0.6,1.2-1.3,1.9-2.2
						c0.6-0.8,1.1-1.8,1.6-2.9c0.5-1.2,0.8-2.2,1-3c1.5,0.7,2.5,1.2,2.8,1.5c0.3,0.2,0.2,0.4-0.1,0.5l-0.6,0.1
						c-0.3,0.6-0.6,1.1-1,1.6l4.8,0l0.6-0.8c0.1-0.1,0.1-0.2,0.2-0.3c0.3-0.4,0.5-0.5,0.6-0.5c0.2,0,0.6,0.3,1.3,0.9
						c0.6,0.6,1,1,1,1.2c-0.1,0.3-0.3,0.5-0.8,0.5l-5.5,0c0.9,0.5,1.4,1.2,1.5,1.9c0.1,0.6-0.1,1-0.5,1.3c-0.5,0.3-0.9,0.2-1.4-0.3
						c0-0.9-0.3-1.9-0.9-2.9l-1.5,0C686.7,208.1,685.1,209.5,683.3,210.5z M684.8,220l-1.3-2.6c0.6-0.1,2.1-0.3,4.4-0.6
						c0.2,0,0.3,0,0.4-0.1l0-4.7l-1.3,0c-0.7,0-1.4,0.2-2.2,0.4l-0.8-1.5c1.1,0.1,2.4,0.2,4,0.3l3,0l0.5-0.8c0-0.1,0.1-0.1,0.2-0.2
						c0.3-0.4,0.5-0.6,0.6-0.6c0.2,0,0.6,0.3,1.3,0.8c0.7,0.6,1,0.9,1,1.2c0,0.3-0.3,0.5-0.7,0.5l-3.5,0l0,4.3
						c0.5-0.1,1.4-0.2,2.5-0.4c0.7-0.1,1.2-0.2,1.6-0.3l0.1,0.5c-3.1,1.2-6.1,2.3-9.1,3.3C685.3,219.7,685.1,219.9,684.8,220z
						 M703.3,214.5l0-3.4l-3.7,0c-0.1,1.3-0.3,2.3-0.5,3l1,0l1.1-1.6C702,213.2,702.6,213.8,703.3,214.5z"/>
				</g>
			</g>
		</g>
	</g>
	<circle cx="318.3" cy="68.9" r="5.3"/>
</g>
</svg>
