<?xml version="1.0" encoding="utf-8"?>
<!-- Generator: Adobe Illustrator 27.6.1, SVG Export Plug-In . SVG Version: 6.00 Build 0)  -->
<svg version="1.1" id="圖層_1" xmlns="http://www.w3.org/2000/svg" xmlns:xlink="http://www.w3.org/1999/xlink" x="0px" y="0px"
	 viewBox="0 0 300 130" style="enable-background:new 0 0 300 130;" xml:space="preserve">
<style type="text/css">
	.st0{fill-rule:evenodd;clip-rule:evenodd;fill:#902C2B;}
	.st1{fill:#902C2B;}
	.st2{fill:#E4E1E0;}
	.st3{fill:#39684F;}
</style>
<path d="M247.9,116.5c-0.1,0-0.1,0-0.2-0.1c0-0.1-0.1-0.1-0.1-0.2c0-0.4,0.1-0.9,0.1-1.6v-0.9c-0.1,0-0.1,0.1-0.2,0.1
	c-0.9,0.4-1.6,0.8-2.2,1c-0.1,0.2-0.2,0.3-0.3,0.3l-0.3-1.2c0.1,0,0.4-0.1,0.8-0.1c0,0,0,0,0.1,0v-7.5h-0.2c-0.1,0-0.2,0.1-0.3,0.2
	l-0.3-0.6c0.5,0.1,1,0.1,1.7,0.1h1.6l0.3-0.4c0,0,0-0.1,0.1-0.1c0.1-0.2,0.2-0.3,0.3-0.3c0.1,0,0.3,0.1,0.6,0.4
	c0.3,0.3,0.5,0.4,0.5,0.5c0,0.1-0.1,0.2-0.3,0.2h-0.7v6.9c0,1,0.1,2,0.1,2.9C248.6,116.4,248.3,116.5,247.9,116.5L247.9,116.5z
	 M246.4,108.4h1.3v-2h-1.3V108.4z M246.4,110.9h1.3v-2.2h-1.3V110.9z M246.4,113.6c0.2,0,0.6-0.1,1.1-0.2c0.1,0,0.1,0,0.2,0v-2.1
	h-1.3V113.6z M249.3,110.9l-0.4-1c0.3,0,0.6,0,1.1,0c0.2-0.3,0.3-0.6,0.5-0.9c0.5-0.9,0.8-1.7,1-2.4c0.6,0.2,0.9,0.4,1.1,0.5
	c0.1,0.1,0.1,0.2,0,0.2l-0.2,0.1c-0.5,0.7-1.1,1.5-1.9,2.4c0.2,0,0.7,0,1.2-0.1c-0.1-0.3-0.2-0.6-0.4-0.9l0.2-0.1
	c0.5,0.2,0.8,0.5,1,0.8c0.2,0.2,0.2,0.5,0.2,0.7c0,0.2-0.1,0.4-0.3,0.4c-0.2,0.1-0.3,0-0.5-0.1c0-0.2,0-0.4-0.1-0.6
	c-0.1,0-0.3,0.1-0.5,0.2c-0.6,0.2-1.1,0.3-1.5,0.4C249.5,110.8,249.4,110.9,249.3,110.9z M250.4,108.5c-0.2,0.1-0.3,0.1-0.5-0.1
	c0-0.2-0.2-0.5-0.3-0.8c-0.2-0.3-0.3-0.5-0.5-0.7l0.1-0.1c0.3,0.1,0.6,0.2,0.8,0.3c0.3-0.8,0.5-1.5,0.5-2.1c0.6,0.2,1,0.4,1.1,0.5
	c0.1,0.1,0.1,0.1,0,0.2l-0.2,0.1c-0.3,0.5-0.7,1-1.2,1.5c0.3,0.2,0.4,0.4,0.4,0.7C250.7,108.2,250.6,108.4,250.4,108.5z
	 M249.2,116.5l-0.1-0.2c0.7-0.3,1.2-0.6,1.5-1c0.3-0.3,0.5-0.8,0.5-1.3h-1v0.6c0,0-0.1,0.1-0.2,0.2c-0.1,0.1-0.3,0.1-0.4,0.1
	s-0.2-0.1-0.2-0.2c0-0.2,0-0.4,0.1-0.6c0-0.1,0-0.2,0-0.3v-0.6c0-0.7,0-1.4-0.1-1.9c0.6,0.2,1,0.3,1.1,0.4c0.1,0.1,0.1,0.1,0,0.2
	l-0.2,0.1v1.7h1v-1.4c0-0.5,0-0.9-0.1-1.2c0.6,0.2,1,0.3,1.1,0.4c0.1,0.1,0.1,0.1,0,0.2l-0.2,0.1v1.6c0,0.7-0.2,1.3-0.5,1.7
	C251,115.7,250.3,116.2,249.2,116.5z M253.8,108.4c-0.2,0.1-0.4,0.1-0.5-0.1c0-0.2-0.2-0.5-0.3-0.8c-0.2-0.3-0.4-0.5-0.6-0.7
	l0.1-0.1c0.3,0.1,0.5,0.2,0.8,0.3c0.3-0.7,0.5-1.4,0.5-2c0.6,0.2,1,0.4,1.1,0.5c0.1,0.1,0.1,0.2,0,0.2l-0.2,0.1
	c-0.3,0.4-0.7,0.9-1.2,1.3c0.3,0.2,0.5,0.5,0.5,0.7C254,108.2,253.9,108.3,253.8,108.4z M255.9,110.8c-0.2,0.1-0.3,0-0.5-0.1
	c0-0.2,0-0.5-0.1-0.7c-0.7,0.2-1.3,0.4-1.9,0.6c-0.1,0.1-0.2,0.2-0.3,0.3l-0.5-1c0.3,0,0.5,0,0.8,0c0.1-0.1,0.2-0.3,0.3-0.5
	c0.1-0.1,0.1-0.2,0.1-0.3c0.5-0.9,0.8-1.7,1-2.4c0.6,0.3,1,0.5,1.1,0.6c0.1,0.1,0.1,0.2-0.1,0.2l-0.2,0c-0.5,0.7-1.1,1.5-1.8,2.3
	c0.3,0,0.7,0,1.3,0c0.1,0,0.1,0,0.2,0c-0.2-0.4-0.3-0.7-0.5-0.9l0.1-0.1c0.5,0.2,0.9,0.5,1.1,0.9c0.2,0.3,0.3,0.5,0.3,0.8
	C256.2,110.6,256.1,110.8,255.9,110.8z M253.1,116.5c-0.2,0-0.3-0.1-0.3-0.2c0-0.4,0.1-1,0.1-1.7v-1c0-1-0.1-1.9-0.2-2.5
	c0.7,0.2,1.1,0.3,1.2,0.4c0.1,0.1,0.1,0.1,0,0.2l-0.2,0.1v1.8h1.1c0-1-0.1-1.8-0.2-2.5c0.6,0.2,1,0.3,1.2,0.4c0.1,0.1,0.1,0.1,0,0.2
	l-0.2,0.1v0.8c0,0.8,0,1.5,0.1,2c0,0.1-0.1,0.1-0.3,0.2c-0.1,0.1-0.3,0.1-0.4,0.1s-0.2-0.1-0.2-0.2c0,0,0-0.1,0-0.2
	c0-0.1,0-0.1,0-0.2V114h-1.1v0.7c0,0.1,0,0.3,0,0.4c0,0.4,0,0.7,0.1,0.9c0,0.1-0.1,0.2-0.3,0.2C253.4,116.4,253.3,116.5,253.1,116.5
	L253.1,116.5z"/>
<path d="M260.2,116c-0.1,0-0.1,0-0.2-0.1c-0.1,0-0.1-0.1-0.1-0.2c0-0.1,0-0.1,0-0.2c0.1-0.9,0.1-1.8,0.1-2.7v-1.6
	c-0.3,0.6-0.7,1.1-1.1,1.6l-0.2-0.2c0.9-1.5,1.5-3.6,1.9-6.1h-0.6c-0.3,0-0.6,0.1-1,0.2l-0.3-0.6c0.5,0,1,0.1,1.7,0.1h1.8l0.6-0.8
	c0.3,0.2,0.6,0.5,0.9,0.7l0-0.1h4.8l0.3-0.4c0,0,0.1-0.1,0.1-0.1c0.1-0.2,0.2-0.3,0.3-0.3c0.1,0,0.3,0.1,0.6,0.4
	c0.3,0.3,0.5,0.5,0.5,0.5c0,0.1-0.1,0.2-0.3,0.2h-2.6c-0.3,0.5-0.6,1-0.9,1.4h1.9l0.2-0.3c0,0,0,0,0.1-0.1c0.1-0.1,0.2-0.2,0.2-0.2
	c0.1,0,0.3,0.1,0.6,0.3c0.3,0.2,0.4,0.4,0.4,0.5c-0.1,0.1-0.3,0.2-0.5,0.2v2.4c0,1,0.1,2,0.1,2.9c-0.1,0.1-0.2,0.2-0.3,0.2
	c-0.2,0.1-0.4,0.1-0.6,0.1h-0.2v-0.4h-3.2v0.4c0,0.1-0.1,0.1-0.2,0.2c-0.2,0.1-0.4,0.1-0.6,0.1c-0.1,0-0.1,0-0.2-0.1
	c-0.1,0-0.1-0.1-0.1-0.2c0.1-0.8,0.1-1.7,0.1-2.6v-1.4c0-1-0.1-1.9-0.2-2.5l1.2,0.5h0.6c0.1-0.6,0.2-1,0.2-1.4h-2.3
	c-0.1,0.1-0.2,0.1-0.3,0.1h-2c-0.2,1.1-0.4,2.1-0.8,3.1l0.2,0.1h1.2l0.2-0.3c0,0,0-0.1,0.1-0.1c0.1-0.1,0.2-0.2,0.2-0.2
	c0.1,0,0.3,0.1,0.6,0.4c0.3,0.3,0.4,0.4,0.4,0.5c-0.1,0.1-0.2,0.2-0.5,0.2v1.7c0,1,0.1,2,0.1,2.9c-0.1,0.1-0.2,0.1-0.4,0.2
	c-0.2,0.1-0.4,0.1-0.5,0.1c-0.1,0-0.2-0.1-0.2-0.2c0,0,0-0.1,0-0.2c0,0,0-0.1,0-0.1v-0.3h-1.4v0.4c0,0.1,0,0.2,0,0.4
	c0,0.2,0,0.4,0,0.5c0,0.1-0.1,0.2-0.2,0.2C260.6,115.9,260.4,116,260.2,116L260.2,116z M260.9,114h1.4v-3.9h-1.4V114z M262.7,116.5
	l-0.1-0.2c0.4-0.2,0.8-0.4,1.2-0.7c0.3-0.2,0.7-0.5,1.1-0.9s0.6-0.7,0.8-1l0.6,0.5c0.5,0.3,0.6,0.4,0.3,0.4l-0.2,0
	c-0.5,0.4-1.1,0.8-1.8,1.1C263.9,116.1,263.3,116.3,262.7,116.5z M265.2,109.6h3.2v-1.4h-3.2V109.6z M265.2,111.4h3.2V110h-3.2
	V111.4z M265.2,113.2h3.2v-1.5h-3.2V113.2z M270.1,116.3c-0.1,0.2-0.4,0.2-0.6,0c-0.2-0.4-0.5-0.7-0.9-1.2c-0.4-0.4-0.8-0.7-1.3-1
	l0.1-0.1c0.8,0.1,1.5,0.4,2,0.7c0.4,0.3,0.7,0.6,0.8,0.9C270.2,115.9,270.2,116.1,270.1,116.3L270.1,116.3z"/>
<path d="M275,116.5c-0.1,0-0.2,0-0.2-0.1c-0.1,0-0.1-0.1-0.1-0.2c0.1-1.1,0.1-2.1,0.1-3.2v-2.3c-0.6,0.6-1.3,1.1-1.9,1.5l-0.1-0.1
	c0.7-0.7,1.3-1.5,2-2.4c0.5-0.8,0.9-1.5,1.1-2.2c0.7,0.4,1.1,0.6,1.2,0.8c0.1,0.1,0.1,0.2,0,0.2l-0.2,0c-0.2,0.4-0.6,0.8-1.1,1.3
	l0.4,0.2c-0.1,0.1-0.2,0.2-0.4,0.2v3c0,1,0.1,2,0.1,2.9c-0.1,0.1-0.2,0.2-0.4,0.2C275.4,116.4,275.2,116.5,275,116.5L275,116.5z
	 M273.2,108.7l-0.1-0.1c0.5-0.4,1-0.9,1.5-1.5c0.6-0.7,1.1-1.4,1.3-2.1l0.8,0.5c0.6,0.3,0.7,0.4,0.4,0.5l-0.2,0
	c-0.4,0.5-0.9,0.9-1.5,1.4C274.5,107.9,273.8,108.4,273.2,108.7z M280.4,116.4c0-0.3-0.1-0.6-0.4-0.7c-0.2-0.2-0.7-0.3-1.4-0.4v-0.2
	c0.7,0,1.4,0.1,2.1,0.1c0.2,0,0.3-0.1,0.3-0.3v-5.5h-1.8c-0.6,0-1.2,0.1-1.9,0.2L277,109c0.5,0,1,0.1,1.7,0.1h3.9l0.3-0.4
	c0,0,0.1-0.1,0.1-0.1c0.1-0.2,0.2-0.3,0.3-0.3c0.1,0,0.3,0.1,0.6,0.4c0.3,0.3,0.5,0.5,0.5,0.6c0,0.1-0.1,0.2-0.3,0.2h-2v5.5
	c0,0.4-0.1,0.7-0.3,1C281.5,116.2,281,116.4,280.4,116.4L280.4,116.4z M278,106.8l-0.3-0.6c0.5,0,1,0.1,1.7,0.1h2.7l0.3-0.4
	c0,0,0-0.1,0.1-0.1c0.1-0.2,0.2-0.3,0.3-0.3c0.1,0,0.3,0.1,0.6,0.4c0.3,0.3,0.5,0.5,0.5,0.5c0,0.1-0.1,0.2-0.3,0.2h-3.6
	C279.3,106.6,278.7,106.7,278,106.8L278,106.8z"/>
<path d="M287.6,116.3l-0.7-1.2c0.5-0.1,1.2-0.2,2.1-0.4v-3.9h-0.6c-0.4,0-0.7,0.1-1.1,0.2l-0.3-0.6c0.4,0.1,0.9,0.1,1.4,0.1h0.7
	v-1.6H288l-0.1-0.2c-0.4,0.4-0.8,0.8-1,1l-0.2-0.1c0.5-0.5,0.9-1.3,1.4-2.2c0.4-0.9,0.7-1.6,0.8-2.4c0.7,0.2,1.1,0.4,1.3,0.5
	c0.1,0.1,0.1,0.1,0,0.2l-0.2,0.1c0.7,0.2,1.3,0.5,1.6,0.8c0.3,0.3,0.5,0.5,0.5,0.8c0,0.2-0.1,0.4-0.2,0.5c-0.2,0.1-0.4,0.1-0.6,0
	c-0.3-0.6-0.8-1.2-1.5-1.8c-0.4,0.9-1,1.8-1.7,2.6h2.2l0.2-0.4c0,0,0-0.1,0.1-0.1c0.1-0.2,0.2-0.3,0.3-0.3c0.1,0,0.3,0.1,0.5,0.4
	c0.3,0.3,0.4,0.4,0.4,0.5c0,0.1-0.1,0.2-0.3,0.2h-1.6v1.6h0.6l0.2-0.4c0,0,0.1-0.1,0.1-0.1c0.1-0.2,0.2-0.2,0.2-0.2
	c0.1,0,0.3,0.1,0.5,0.4c0.3,0.3,0.4,0.4,0.4,0.5c0,0.1-0.1,0.2-0.3,0.2h-1.9v3.7c0.5-0.1,1.2-0.3,2.2-0.5l0,0.2
	c-1.3,0.6-2.7,1.2-4.3,1.8C287.9,116.2,287.8,116.3,287.6,116.3L287.6,116.3z M288.3,114.2c-0.2,0.1-0.3,0-0.5-0.2
	c0.1-0.7,0-1.5-0.3-2.4l0.2-0.1c0.4,0.4,0.7,0.8,0.9,1.2c0.1,0.4,0.2,0.7,0.1,1C288.5,113.9,288.4,114.1,288.3,114.2z M290.5,113.9
	l-0.2-0.1c0.3-0.8,0.4-1.7,0.4-2.5l0.8,0.3c0.5,0.1,0.6,0.2,0.4,0.4l-0.2,0.1C291.2,112.8,290.8,113.5,290.5,113.9z M296.2,116.5
	c0-0.3-0.1-0.6-0.2-0.7c-0.2-0.1-0.5-0.3-0.9-0.3v-0.2c0.4,0,0.9,0.1,1.3,0.1c0.2,0,0.3-0.1,0.3-0.2v-1.7h-3.1v0.9
	c0,0.8,0,1.3,0.1,1.8c0,0.1-0.1,0.2-0.3,0.3c-0.2,0.1-0.3,0.1-0.5,0.1c-0.1,0-0.1,0-0.2-0.1c-0.1-0.1-0.1-0.1-0.1-0.2
	c0.1-1.1,0.1-2.1,0.1-3.2v-4.5c-0.3,0.3-0.6,0.6-0.9,0.9l-0.1-0.2c0.2-0.3,0.5-0.7,0.7-1.1c0.2-0.4,0.4-0.8,0.5-1.2
	c0.1-0.4,0.2-0.8,0.2-1.2c0.7,0.3,1.1,0.5,1.3,0.6c0.1,0.1,0.1,0.1,0,0.2l-0.2,0c-0.3,0.7-0.7,1.3-1.2,1.8l0.8,0.4h1v-1.2
	c0-1-0.1-1.9-0.2-2.5c0.7,0.2,1.1,0.3,1.3,0.4c0.1,0.1,0.1,0.2,0,0.2l-0.2,0.1v2.9h1l0.2-0.3c0,0,0-0.1,0.1-0.1
	c0.1-0.1,0.2-0.2,0.2-0.2c0.1,0,0.3,0.1,0.6,0.4s0.5,0.4,0.5,0.5c-0.1,0.1-0.3,0.2-0.5,0.3v5.9c0,0.4-0.1,0.7-0.2,0.9
	C297.2,116.3,296.8,116.4,296.2,116.5L296.2,116.5z M293.5,110.9h3.1v-1.8h-3.1V110.9z M293.5,113h3.1v-1.8h-3.1V113z M298.2,108.5
	c-0.2,0.1-0.4,0.1-0.6,0c-0.1-0.4-0.3-0.8-0.7-1.2c-0.3-0.4-0.6-0.8-1-1.1l0.1-0.1c0.7,0.3,1.3,0.6,1.7,0.9c0.3,0.3,0.5,0.6,0.6,0.9
	C298.4,108.2,298.4,108.4,298.2,108.5z"/>
<path class="st0" d="M237.4,112.5v4.5l-0.2,0.4h4.4l-0.2-0.4v-12.2l0.2-0.4h-14l0.2,0.4V117l-0.2,0.4h4.4l-0.2-0.4v-4.5
	c0-1.4,1.1-2.8,2.8-2.8C236.2,109.8,237.4,111.1,237.4,112.5L237.4,112.5z"/>
<path class="st1" d="M241.3,85.5h-13.7v13.3h13.7V85.5z"/>
<path class="st2" d="M233.9,88.4c0-0.3,0.4-0.8,0-1c-0.2-0.1-0.3,0-0.5,0.1c-0.5,0-1,0-1.5-0.1c-0.3,0-0.6-0.1-0.9,0
	c-0.1,0.1-0.3,0.3-0.1,0.5c0.3,0,0.6,0,0.9-0.1c0.6,0.1,1.2,0,1.8,0l0.1,0.1c0,0.5-0.4,0-0.6,0.2c-0.7,0-1.2,0.1-2,0l-0.1,0.2
	c0.2,0.5,0.1,1.2,0,1.7c-0.2,0.2-0.4,0.4-0.7,0.4c-0.1,0-0.2-0.1-0.2-0.1c-0.1,0.1,0,0.3,0.1,0.3c0.2,0.1,0.5,0.3,0.7,0.1
	c0.1,0,0.2-0.1,0.3-0.1c0.2-0.6,0.2-1.2,0.3-1.8c0.1-0.2-0.1-0.3,0-0.4c0.2,0.1,0.4-0.1,0.6,0c-0.2,0,0,0.3-0.3,0.2
	c-0.1,0.1-0.2,0.1-0.2,0.3c0.1,0.1,0.2,0.1,0.2,0.1c0,0,0,0,0.1,0c0.1,0,0.1-0.1,0.2-0.1c0.1,0.1,0,0.2,0,0.3c-0.1,0-0.2,0-0.3-0.1
	c-0.1,0.1-0.3,0.1-0.2,0.3c0,0.2,0.1,0.2,0.3,0.2c0.1,0.1,0,0.2,0,0.3c0.1,0.2,0,0.5,0,0.7c0.1,0.1,0.2,0.2,0.3,0.2
	c0.3-0.1,0.4-0.4,0.5-0.6c0.1,0,0.1,0.1,0.1,0.1c0,0.2,0.2,0.2,0.2,0.4c0.1,0,0.1,0.1,0.2,0.1c0.1,0,0.2,0.1,0.3,0.1
	c0.1,0,0.2-0.1,0.3-0.1c0.1-0.1,0.1-0.2,0.2-0.3c-0.1,0-0.2-0.1-0.4,0c-0.2-0.2-0.5-0.2-0.7-0.4c0.2-0.1,0.4-0.3,0.6-0.4
	c0-0.1-0.1-0.1-0.1-0.2c0.1-0.1,0.1,0.1,0.2-0.1l0,0c0.1,0,0.3,0,0.3-0.1c0,0,0,0-0.1,0l0.1-0.1c-0.1-0.1-0.3-0.1-0.4-0.1
	c-0.1-0.1-0.4,0.1-0.3-0.2c0-0.2,0.3-0.1,0.4-0.2c0.1,0.1,0.1-0.1,0.2-0.1c-0.1-0.2-0.3,0-0.5-0.1c-0.2-0.1,0.1-0.2-0.1-0.3
	c0.2,0,0.3-0.1,0.6-0.1C233.8,88.4,233.9,88.5,233.9,88.4L233.9,88.4z M232.2,90.5c0-0.2-0.1-0.4,0-0.6c0,0.2,0.3,0.3,0.3,0.5
	L232.2,90.5z M232.7,90c-0.2,0-0.1-0.2-0.2-0.3c0.1,0,0.3,0,0.4,0C232.8,89.9,232.8,90,232.7,90L232.7,90z M232.8,89.4l-0.5-0.1
	c0-0.2,0.1-0.2,0.2-0.2c0.1,0,0.2,0,0.3,0C232.9,89.2,232.9,89.3,232.8,89.4L232.8,89.4z M232.8,88.8L232.8,88.8
	c-0.1,0.1-0.2,0-0.3,0c-0.2,0-0.2-0.2-0.3-0.2H232c0.3,0,0.6-0.1,0.9,0C232.8,88.6,232.8,88.7,232.8,88.8z"/>
<path class="st2" d="M234.1,94.5c-0.1,0-0.2,0-0.2,0c-0.1,0.1-0.3,0-0.4,0l0,0c-0.1,0-0.1,0-0.1,0c-0.2,0-0.5,0-0.6-0.3
	c0.2-0.2,0.5-0.1,0.7-0.1c0.1,0,0.2-0.1,0.3-0.2c-0.1-0.1-0.1-0.1-0.2-0.1c-0.1,0.1-0.2,0-0.3,0c-0.1,0-0.4,0-0.5,0
	c0-0.1,0-0.2,0.1-0.2c0.3,0,0.6,0,0.9-0.1v-0.1c-0.1,0-0.1-0.1-0.2-0.1c-0.1-0.1-0.2,0.1-0.2,0c-0.1,0-0.2,0.1-0.2,0
	c0,0.1-0.1,0-0.1,0c0,0-0.1-0.1-0.1-0.1c0.1,0,0.1-0.1,0.2-0.1c0.1,0,0.3-0.1,0.4-0.1c0,0,0-0.1,0-0.1c-0.1-0.2,0.1-0.2,0.2-0.3
	c0.1,0,0.1,0.1,0.2,0.1c0.1-0.2,0.3,0,0.4-0.1c-0.1,0,0-0.2-0.1-0.2c-0.1,0-0.2,0-0.3,0c0-0.1-0.1,0-0.2,0c-0.4,0,0.1-0.2,0-0.4
	c-0.2-0.4-0.5,0.2-0.8,0c-0.1,0-0.2-0.1-0.1-0.2c0-0.2-0.2-0.3-0.4-0.2c-0.1,0.1-0.3,0.2-0.2,0.4c-0.2,0.1-0.5,0.1-0.7,0
	c-0.2,0.1,0,0.2,0,0.3c0,0,0.1,0.1,0.1,0l0.1,0.1c-0.1,0.1-0.2,0.1-0.3,0.3c0,0.1,0,0.2,0.1,0.2l0.7-0.1c0,0.1,0.1,0.1,0.1,0.2
	c-0.2,0.1-0.5-0.1-0.7,0c-0.1,0.2,0.1,0.2,0.1,0.4c0.1,0,0.2,0.1,0.3,0c0.1,0,0.3,0,0.4,0c-0.1,0.4-0.8-0.1-0.7,0.5
	c0.1,0.2,0.3-0.1,0.5,0c0.1,0,0.3,0,0.2,0.2c-0.1,0.1-0.3,0.1-0.5,0.1l-0.1,0.1c-0.2,0-0.3,0.3-0.6,0.2c-0.2-0.2,0.2-0.4,0.1-0.6
	c0.1-0.2,0.1-0.5,0-0.6c-0.2-0.2-0.5-0.1-0.8-0.1c0,0-0.1,0.1-0.1,0l-0.1,0.1c0-0.1-0.1,0-0.1,0c0,0.1-0.2,0.2,0,0.3
	c0.1,0.3,0.2,0,0.4,0c0.2,0,0.3-0.2,0.4,0c0,0.3-0.1,0.5-0.2,0.7c-0.1,0.1-0.1,0.1-0.2,0.1c-0.1,0-0.2,0-0.3,0c0.1,0,0,0.2,0.1,0.2
	c0.1,0.2-0.2,0.2-0.3,0.3c-0.1,0.1-0.1,0.3,0,0.4c0.2-0.1,0.6-0.2,0.7-0.5c0.2,0,0.3,0.1,0.4,0.1c0.2-0.1,0.3,0.1,0.4,0.1
	c0.1,0.2,0.3,0.1,0.4,0.2c0.2,0,0.2,0.2,0.4,0.1c0.3,0.1,0.7,0.2,1,0.3c0.3-0.1,0.5-0.2,0.7-0.5c0.1-0.1,0.1-0.2,0-0.3
	C234.3,94.4,234.2,94.5,234.1,94.5L234.1,94.5z M233.3,92.3c-0.1,0.1-0.3,0-0.4,0l0-0.1C233,92.2,233.1,92.1,233.3,92.3L233.3,92.3z
	 M233.2,92.7c0.1,0.3-0.2,0.1-0.4,0.2C232.7,92.6,233,92.7,233.2,92.7z M231.8,92.3c0.1-0.1,0.3-0.1,0.4-0.1
	C232.2,92.3,231.9,92.2,231.8,92.3z M232.4,94.4c-0.2,0-0.3-0.1-0.4-0.1c0-0.1,0.2-0.1,0.2,0c0-0.1,0.1,0,0.2,0
	C232.4,94.2,232.4,94.3,232.4,94.4L232.4,94.4z"/>
<path class="st2" d="M231.2,92.5l0-0.3c-0.1-0.1-0.2-0.2-0.4-0.3c-0.2,0-0.2,0.1-0.3,0.2c0,0.1,0,0.2,0.1,0.3
	C230.8,92.6,231,92.5,231.2,92.5L231.2,92.5z"/>
<path class="st2" d="M234.9,88.4c0.1,0.1,0,0.3,0,0.3l0,0c0,0,0,0,0,0.1c0,0.3-0.1,0.7,0.1,0.9c0.1-0.1,0.2-0.2,0.3-0.2l-0.1-0.1
	c0.1-0.2,0-0.4,0.1-0.7c-0.1-0.1,0-0.2,0-0.3c0-0.3,0.3-0.3,0.5-0.3c0.7,0,1.3-0.1,1.9,0l0.1,0.4c0.1,0.4,0,0.9,0,1.3
	c0.2,0,0.1-0.2,0.2-0.2c0,0,0,0,0.1,0l0-0.5c0.1-0.5,0.2-1.1-0.1-1.5c-0.3-0.2-0.3,0.2-0.5,0.2c-0.2-0.1-0.4-0.1-0.7-0.1
	c-0.1-0.1,0-0.2-0.1-0.3c-0.1-0.4-0.5-0.2-0.7-0.2c0,0.1-0.1,0.3,0.1,0.4c-0.3,0.1-0.6,0-0.9,0.1c0-0.1-0.2-0.1-0.3-0.1
	C234.7,87.8,235.2,88.1,234.9,88.4L234.9,88.4z"/>
<path class="st2" d="M238.5,90.2c0,0.1,0,0.1-0.1,0.2l0,0l-0.1,0.1l-0.1-0.1c-0.1,0-0.1,0-0.1,0.1c-0.1-0.1-0.3,0-0.4,0
	c0,0-0.1,0-0.1,0l0,0c0,0,0,0-0.1,0c-0.1-0.1-0.2,0-0.3-0.1l0.1-0.7c-0.1-0.1,0-0.3,0-0.4c0.1-0.1,0-0.2,0-0.3c0.2-0.1,0-0.2,0-0.3
	c-0.1-0.1-0.2-0.2-0.3-0.1c-0.2,0.2-0.6,0.1-0.8,0.1l0,0c-0.1-0.2-0.3-0.2-0.5-0.1c-0.1,0.1,0,0.3,0.1,0.4v1.6l-0.1,0.1
	c-0.2-0.1-0.4,0.1-0.6,0c-0.1,0-0.2,0-0.3,0.2c0,0,0,0.1,0,0.1l-0.1,0.1c0,0.6,0.5-0.1,0.8,0.1c0.1,0,0.3,0,0.3-0.2l0.1,0.1l0,0
	c0.1,0.2,0.2-0.2,0.3,0c0.3,0,0.6,0,0.9,0c0.1,0,0.1,0,0.2,0c0.3,0.1,0.5,0,0.8,0c0.2,0.1,0.3,0.1,0.5-0.1c0-0.1,0-0.2-0.1-0.3
	l0.1-0.1L238.5,90.2L238.5,90.2z M236.2,88.9c0.2,0,0.5-0.1,0.7,0.1v0.2c-0.1,0-0.2-0.1-0.3,0l0,0c-0.1,0.1-0.2-0.1-0.4-0.1
	L236.2,88.9L236.2,88.9z M236.7,89.5c0.1,0,0.2,0,0.2,0.1c0,0.1,0,0.3-0.2,0.3c-0.2-0.1-0.3,0-0.5-0.1l0,0
	C236,89.4,236.5,89.5,236.7,89.5z M236.7,90.4c-0.2,0-0.3-0.1-0.5,0c-0.1-0.1,0-0.2,0-0.2c0.2,0,0.5,0,0.7-0.1c0,0,0,0.1,0,0.1
	C236.8,90.2,236.9,90.3,236.7,90.4L236.7,90.4z"/>
<path class="st2" d="M235.1,92.2c0.1,0,0.1,0.1,0.2,0.1v0c0.1,0,0.3-0.1,0.3,0c0,0,0,0,0,0.1c0.1,0,0,0.1,0,0.1
	c0.2,0.4-0.3,0.2-0.4,0.5c-0.1,0.1,0,0.3,0,0.4c0.1,0.1,0.3,0.1,0.4,0c0.1,0,0,0.1,0.1,0.2c0,0.1-0.1,0.1-0.2,0.1
	c-0.1,0-0.1-0.1-0.2-0.1c-0.1,0.1-0.2,0.3-0.3,0.4c0.1,0.2,0.2,0.2,0.4,0.1c0.2,0,0.3-0.1,0.5-0.1c0.2-0.1,0.5,0.1,0.7-0.2
	c0.1-0.1,0-0.1,0-0.2c-0.2,0-0.4,0-0.5-0.1l0-0.2c0.1-0.2,0.2,0,0.2-0.1c0,0,0,0,0-0.1c0-0.2,0.2-0.2,0.2-0.3
	c-0.2,0-0.4-0.1-0.6-0.1l0-0.5c0.1-0.1,0.3,0,0.4-0.1c0-0.1,0.2-0.2,0.1-0.3l0,0c-0.4,0.1-0.4-0.2-0.6-0.4c-0.1,0-0.2,0-0.2,0.1
	c-0.1,0.1-0.1,0.2,0,0.2l-0.1,0.1c-0.2-0.1-0.3,0.1-0.5,0.1C235.1,92,235.1,92.1,235.1,92.2L235.1,92.2z"/>
<path class="st2" d="M236.8,92.1c0.1,0.3,0.4,0.1,0.5,0.1c0.1,0,0,0.1,0,0.1c0,0.1-0.1,0.4,0.2,0.4c0.3,0,0.2-0.3,0.2-0.4
	c0.1-0.2,0.3,0,0.4,0c0.1-0.1,0-0.1,0-0.3c-0.2-0.1-0.3,0-0.5-0.1l0,0c0,0,0,0,0-0.1c0,0,0,0,0-0.1c0-0.2-0.2-0.2-0.4-0.1
	c0,0.1-0.1,0.2,0,0.3c-0.1,0.1-0.2,0-0.3,0c-0.1,0-0.1-0.1-0.2-0.1C236.8,91.8,236.9,92,236.8,92.1z"/>
<path class="st2" d="M238.6,94c0,0.1-0.1,0.1-0.1,0.2l-1.3,0c-0.1-0.1-0.3,0-0.3-0.2c0.2,0,0.5,0,0.7-0.1c0.2,0,0.3,0.2,0.5,0
	c-0.1-0.3,0.3-0.5,0.2-0.9c-0.2-0.1-0.4-0.3-0.6-0.2c-0.2-0.1-0.3,0-0.5,0c-0.1-0.2-0.2,0-0.3,0.1c-0.2,0.2,0.1,0.3,0.1,0.5
	c-0.2,0.1-0.1,0.4-0.2,0.5c0,0-0.1,0-0.1,0c-0.1,0.1-0.1,0.3-0.3,0.2c-0.3-0.1-0.6,0-0.9,0c-0.2-0.1-0.5,0-0.6,0.1
	c-0.1,0.2,0,0.3,0.1,0.5c0.2-0.1,0.5,0.1,0.6-0.2c0.2,0,0.4-0.1,0.5,0c0,0-0.1,0.1-0.1,0.1c-0.1,0.2-0.4,0.4-0.6,0.4c0,0,0,0,0.1,0
	l0,0c0.1,0,0.2,0.1,0.3,0.1c0.4,0.1,0.6-0.4,0.9-0.6c0-0.1,0-0.1,0.1-0.2c0.1,0.3,0,0.6,0.1,0.9c0.1,0,0.3,0,0.3-0.1l0,0
	c0.1-0.1,0.1-0.3,0-0.4c0-0.2,0.1-0.4,0.3-0.3c0.2,0.1,0.1,0.4,0.2,0.6c0.2,0.2,0.5,0,0.7,0c0.1,0,0.1,0.1,0.2,0
	c0-0.1,0-0.1-0.1-0.1c-0.3,0.1-0.5-0.2-0.6-0.4c0.1-0.1,0.1,0.1,0.2,0c0.1,0.1,0.3,0,0.4,0.1l0,0c0.1,0,0.2,0,0.2,0
	c0.2,0,0.2-0.2,0.3-0.2C239,94.1,238.6,94.2,238.6,94L238.6,94z M237.8,93.2l0,0.3c-0.1,0-0.3,0-0.4,0l0-0.2
	C237.5,93.3,237.7,93.2,237.8,93.2z"/>
<path class="st2" d="M230.3,97l0.8-0.8l-0.8,0v-0.1l1,0v0.1l-0.8,0.8l0.8,0v0.1L230.3,97L230.3,97z"/>
<path class="st2" d="M231.8,96.8c0,0.2,0.2,0.3,0.4,0.3c0.1,0,0.2,0,0.3,0l0,0.1c-0.1,0-0.2,0-0.4,0c-0.3,0-0.5-0.2-0.5-0.4
	c0-0.2,0.2-0.4,0.5-0.4c0.4,0,0.4,0.2,0.4,0.4c0,0,0,0,0,0.1L231.8,96.8L231.8,96.8z M232.3,96.7c0-0.1-0.1-0.2-0.3-0.2
	c-0.2,0-0.3,0.1-0.3,0.2L232.3,96.7z"/>
<path class="st2" d="M232.8,96.6c0-0.1,0-0.1,0-0.2h0.2l0,0.1c0.1-0.1,0.2-0.1,0.4-0.1c0.1,0,0.4,0.1,0.4,0.3v0.4h-0.2v-0.4
	c0-0.1-0.1-0.2-0.2-0.2c-0.1,0-0.2,0.1-0.3,0.1c0,0,0,0,0,0.1v0.5h-0.2L232.8,96.6L232.8,96.6z"/>
<path class="st2" d="M234.3,96.8l-0.2,0.3h-0.2l0.5-1h0.2l0.5,1.1h-0.2l-0.2-0.3L234.3,96.8L234.3,96.8z M234.8,96.7l-0.1-0.3
	c0-0.1-0.1-0.1-0.1-0.2h0c0,0.1,0,0.1-0.1,0.2l-0.2,0.3H234.8z"/>
<path class="st2" d="M235.4,96.6c0-0.1,0-0.2,0-0.2h0.2l0,0.1h0c0.1-0.1,0.2-0.2,0.3-0.2c0,0,0,0,0.1,0v0.1c0,0,0,0-0.1,0
	c-0.1,0-0.2,0.1-0.3,0.2c0,0,0,0,0,0.1v0.4h-0.2L235.4,96.6L235.4,96.6z"/>
<path class="st2" d="M236.9,97.1c-0.1,0-0.2,0-0.3,0c-0.3,0-0.5-0.2-0.5-0.4c0-0.2,0.2-0.4,0.6-0.4c0.1,0,0.2,0,0.3,0l0,0.1
	c0,0-0.1,0-0.2,0c-0.2,0-0.4,0.1-0.4,0.3c0,0.2,0.2,0.3,0.4,0.3c0.1,0,0.2,0,0.2,0L236.9,97.1z"/>
<path class="st2" d="M237.1,96.1h0.2l0,0.5c0,0,0.1-0.1,0.1-0.1c0.1,0,0.1,0,0.2,0c0.1,0,0.4,0.1,0.4,0.3v0.4h-0.2v-0.4
	c0-0.1-0.1-0.2-0.2-0.2c-0.1,0-0.2,0.1-0.3,0.1c0,0,0,0,0,0.1v0.5h-0.2L237.1,96.1L237.1,96.1z"/>
<path class="st2" d="M238.4,96.3c-0.1,0-0.1,0-0.1-0.1c0,0,0.1-0.1,0.1-0.1c0.1,0,0.1,0,0.1,0.1C238.6,96.3,238.5,96.3,238.4,96.3
	L238.4,96.3z M238.3,97.2l0-0.7h0.2l0,0.7H238.3z"/>
<path d="M255.3,97.8c-1.2-0.4-2.1-0.8-2.8-1.4c-0.7-0.7-1.3-1.5-1.6-2.6l-1.3,0l0,2.5c0.9-0.1,1.7-0.2,2.4-0.4l0,0.2
	c-1.5,0.5-3,1-4.4,1.4c-0.1,0.2-0.2,0.2-0.3,0.3l-0.6-1.1c0.2,0,0.7-0.1,1.3-0.2c0.3,0,0.5-0.1,0.6-0.1l0-2.6l-1.8,0
	c-0.4,1.7-1,3-2,4l-0.2-0.1c0.6-1,1-2.2,1.3-3.7c0.2-1,0.2-2.3,0.3-3.9l0-1.7c0-0.7,0-1.3-0.1-1.8l1.3,0.5l6.6,0l0.2-0.3
	c0,0,0,0,0.1-0.1c0.1-0.1,0.2-0.2,0.3-0.2c0.1,0,0.3,0.1,0.6,0.4c0.3,0.2,0.5,0.4,0.5,0.5c-0.1,0.1-0.3,0.2-0.5,0.2v0.7
	c0,0.1,0,0.2,0,0.4c0,0.4,0,0.7,0,0.9c0,0.1-0.2,0.1-0.4,0.2c-0.2,0.1-0.4,0.1-0.5,0.1h-0.2v-0.4l-6.9,0V90c0,0.5,0,0.9,0,1.2l2,0
	c0-0.7,0-1.2-0.1-1.6c0.6,0.2,1,0.3,1.2,0.4c0.1,0.1,0.1,0.1,0,0.2l-0.2,0.1v0.8l2.1,0c0-0.6,0-1.2-0.1-1.5c0.6,0.2,1,0.3,1.2,0.4
	c0.1,0.1,0.1,0.1,0,0.2l-0.2,0.1v0.8l1,0l0.3-0.4c0,0,0-0.1,0.1-0.1c0.1-0.2,0.2-0.3,0.3-0.3c0.1,0,0.3,0.1,0.6,0.4
	c0.3,0.3,0.5,0.4,0.5,0.5c0,0.1-0.1,0.2-0.3,0.2l-2.4,0l0,1.8l1.3,0l0.3-0.4c0,0,0-0.1,0.1-0.1c0.1-0.2,0.2-0.3,0.3-0.3
	c0.1,0,0.3,0.1,0.6,0.4c0.3,0.3,0.5,0.4,0.5,0.5c0,0.1-0.1,0.2-0.3,0.2l-4.6,0c0.3,0.6,0.7,1.1,1.3,1.6c0.8-0.5,1.4-1.1,1.8-1.6
	c0.5,0.4,0.8,0.7,0.9,0.8c0.1,0.1,0.1,0.2-0.1,0.2h-0.2c-0.6,0.3-1.4,0.5-2.2,0.8c0.8,0.6,2,1,3.5,1.3l0,0.1
	C255.7,97,255.5,97.3,255.3,97.8L255.3,97.8z M247,93.3l2.2,0l0-1.8l-2,0l0-0.1C247.1,92.1,247.1,92.8,247,93.3L247,93.3z
	 M247.2,89.1l6.9,0l0-1.7l-6.9,0L247.2,89.1z M250.1,93.4l2.1,0l0-1.8l-2.1,0L250.1,93.4z"/>
<path d="M259,97.5l-0.3-0.6c0.5,0.1,1,0.1,1.7,0.1h1l0-4.9c0-1,0-1.9-0.1-2.5l1.2,0.5l3.9,0l0.2-0.3c0,0,0.1-0.1,0.1-0.1
	c0.1-0.1,0.2-0.2,0.2-0.2c0.1,0,0.3,0.1,0.6,0.4c0.3,0.3,0.5,0.5,0.5,0.6c-0.1,0.1-0.3,0.2-0.6,0.2l0,6.4h0.8l0.3-0.4
	c0,0,0-0.1,0.1-0.1c0.1-0.2,0.2-0.3,0.3-0.3c0.1,0,0.3,0.2,0.6,0.5c0.3,0.3,0.5,0.5,0.5,0.6c0,0.1-0.1,0.2-0.3,0.2l-8.8,0
	C260.4,97.3,259.7,97.3,259,97.5L259,97.5z M259.4,90.4c-0.2,0-0.3-0.1-0.4-0.3c-0.1-0.3,0-0.5,0.3-0.8c0.3-0.2,0.5-0.4,0.7-0.8
	c0.2-0.4,0.3-0.8,0.3-1.2l0.2,0c0.1,0.2,0.1,0.5,0.2,0.7l3.3,0c0-0.7,0-1.3-0.1-1.8c0.7,0.2,1.2,0.3,1.3,0.4c0.1,0.1,0.1,0.2,0,0.2
	l-0.2,0.1v1l3.7,0l0.3-0.3c0,0,0-0.1,0.1-0.1c0.1-0.1,0.2-0.2,0.3-0.2c0.1,0,0.3,0.1,0.6,0.4c0.3,0.3,0.4,0.5,0.4,0.6
	c-0.1,0.1-0.2,0.1-0.5,0.1c-0.5,0.5-1,1-1.6,1.3l-0.2-0.1c0.2-0.4,0.4-0.9,0.6-1.4l-7.9,0c0,0.4-0.1,0.8-0.2,1.1
	c-0.1,0.3-0.3,0.5-0.5,0.6C259.8,90.3,259.6,90.4,259.4,90.4L259.4,90.4z M262.4,96.9l4.2,0l0-2l-4.2,0L262.4,96.9z M262.4,94.6
	l4.2,0l0-1.9l-4.2,0L262.4,94.6z M262.4,92.3l4.2,0l0-1.9l-4.2,0L262.4,92.3z"/>
<path d="M272.8,97.8l-0.1-0.2c0.9-0.7,1.5-1.6,2-2.8c-0.2-0.5-0.5-1.1-0.7-1.9c0,0.1-0.1,0.2-0.2,0.3c-0.2,0.4-0.4,0.7-0.5,0.8
	c0.1,0.1,0.1,0.2,0,0.3l-0.6-0.7c0.4-0.3,0.8-0.7,1.2-1.2l0.1-0.5l0.4,0.2l-0.3,0.5c0.2,0.6,0.4,1.2,0.7,1.7c0.3-0.8,0.5-1.8,0.6-3
	l-1.1,0L274,92c-0.2,0.1-0.5,0-0.9-0.1c0.6-1.3,1.3-2.6,1.9-4.1h-0.7c-0.4,0-0.8,0.1-1.2,0.2l-0.3-0.6c0.4,0.1,0.9,0.1,1.5,0.1h0.7
	l0.2-0.3c0,0,0.1-0.1,0.1-0.1c0.1-0.1,0.2-0.2,0.2-0.2c0.1,0,0.3,0.1,0.5,0.4s0.4,0.5,0.4,0.6c-0.1,0.1-0.3,0.2-0.6,0.2
	c-0.3,0.8-0.8,1.8-1.4,3h0.9l0.2-0.3c0,0,0,0,0.1-0.1c0.1-0.1,0.2-0.2,0.3-0.2c0.1,0,0.3,0.1,0.5,0.4c0.3,0.2,0.4,0.4,0.4,0.5
	c-0.1,0.1-0.2,0.2-0.4,0.2c-0.2,1.5-0.5,2.7-1,3.6c0.5,0.6,1.2,1,2.1,1.2c0.7,0.2,1.8,0.3,3.2,0.3c1.7,0,2.9,0,3.4,0v0.2
	c-0.2,0-0.3,0.1-0.4,0.3c-0.1,0.1-0.1,0.3-0.2,0.5l-2.9,0c-1.4,0-2.6-0.1-3.4-0.4c-0.9-0.3-1.6-0.8-2.2-1.6
	C274.6,96.5,273.8,97.3,272.8,97.8L272.8,97.8z M279.4,96.4c-0.2,0-0.3-0.1-0.3-0.2c0-0.1,0-0.3,0.1-0.6c0-0.1,0-0.2,0-0.3v-0.6
	l-1,0c-0.6,0-1.2,0.1-1.8,0.2l-0.3-0.6c0.5,0.1,1,0.1,1.7,0.1l1.4,0l0-1.3h-0.8c-0.5,0-1,0.1-1.5,0.2l-0.3-0.6
	c0.5,0.1,1,0.1,1.7,0.1h0.9l0-1.3h-0.8c-0.4,0-0.9,0.1-1.4,0.2l-0.3-0.6c0.5,0.1,1,0.1,1.7,0.1h0.8l0-1.3h-1.1
	c-0.6,0-1.2,0.1-1.9,0.2l-0.3-0.6c0.5,0.1,1,0.1,1.7,0.1l1.6,0l0-1.3h-0.8c-0.4,0-0.9,0.1-1.4,0.2l-0.3-0.6c0.5,0.1,1,0.1,1.7,0.1
	h0.8c0-0.6,0-1-0.1-1.4c0.7,0.2,1.1,0.3,1.3,0.4c0.1,0.1,0.1,0.2,0,0.2l-0.2,0.1v0.6l1.5,0l0.2-0.3c0,0,0-0.1,0.1-0.1
	c0.1-0.1,0.2-0.2,0.2-0.2c0.1,0,0.3,0.1,0.6,0.4c0.3,0.2,0.4,0.4,0.4,0.5c-0.1,0.1-0.3,0.2-0.5,0.2l0,1.1h0.2l0.2-0.4
	c0,0,0.1-0.1,0.1-0.1c0.1-0.2,0.2-0.2,0.2-0.2c0.1,0,0.2,0.1,0.5,0.4c0.3,0.3,0.4,0.4,0.4,0.5c0,0.1-0.1,0.2-0.3,0.2l-1.3,0v0.6
	c0,0.1,0,0.2,0,0.4c0,0.3,0,0.6,0,0.7c0,0.1-0.2,0.1-0.3,0.2c-0.2,0.1-0.4,0.1-0.5,0.1h-0.2v-0.4l-1.6,0l0,1.3l1.6,0l0.3-0.4
	c0,0,0-0.1,0.1-0.1c0.1-0.2,0.2-0.3,0.3-0.3c0.1,0,0.3,0.1,0.6,0.4c0.3,0.3,0.4,0.4,0.4,0.5c0,0.1-0.1,0.2-0.3,0.2l-2.9,0l0,1.3l2,0
	l0.3-0.4c0,0,0.1-0.1,0.1-0.1c0.1-0.2,0.2-0.3,0.3-0.3c0.1,0,0.3,0.1,0.6,0.4c0.3,0.3,0.5,0.5,0.5,0.6c0,0.1-0.1,0.2-0.3,0.2l-3.4,0
	v0.5c0,0.1,0,0.2,0,0.4c0,0.2,0,0.4,0,0.5c0,0.1-0.1,0.2-0.3,0.2C279.8,96.3,279.6,96.4,279.4,96.4L279.4,96.4z M280.2,91.1l1.6,0
	l0-1.3l-1.6,0L280.2,91.1z M280.2,89.4l1.6,0l0-1.3l-1.6,0L280.2,89.4z"/>
<path d="M292.2,98c-0.2,0-0.3-0.1-0.3-0.2c0-0.4,0.1-0.9,0.1-1.5v-0.9c-1.2,1.1-2.9,2-5.1,2.5l-0.1-0.2c1.9-0.7,3.3-1.6,4.3-2.7
	l-1.9,0c-0.6,0-1.2,0.1-1.9,0.2l-0.3-0.6c0.5,0.1,1,0.1,1.7,0.1l3.4,0l0-1.1c-0.5,0.2-1,0.4-1.7,0.5l-0.1-0.2
	c0.7-0.2,1.3-0.4,1.7-0.8c0.4-0.3,0.7-0.7,0.8-1.2h-0.5c-0.3,0-0.5,0.1-0.8,0.2l-0.3-0.6c0.3,0,0.7,0.1,1.2,0.1h0.5
	c0.1-0.4,0.1-0.8,0.2-1.2h-0.4c-0.2,0-0.4,0.1-0.6,0.2l-0.3-0.6c0.5,0.1,1,0.1,1.7,0.1l2.1,0l0.1-0.1c-0.2,0-0.3,0-0.5-0.1
	c0-0.4-0.2-0.8-0.5-1.3h-0.8c-0.5,0.6-1,1-1.6,1.3l-0.2-0.2c0.2-0.2,0.4-0.4,0.5-0.6c0.2-0.3,0.5-0.7,0.7-1.2
	c0.2-0.5,0.3-0.9,0.4-1.2c0.6,0.3,1,0.4,1.2,0.5c0.1,0.1,0.1,0.2,0,0.2l-0.2,0.1c-0.2,0.3-0.3,0.5-0.5,0.7l2.5,0l0.3-0.4
	c0,0,0-0.1,0.1-0.1c0.1-0.2,0.2-0.3,0.3-0.3c0.1,0,0.3,0.1,0.6,0.4c0.3,0.3,0.5,0.4,0.5,0.5c0,0.1-0.1,0.2-0.3,0.2l-2.7,0
	c0.3,0.1,0.5,0.3,0.6,0.5c0.1,0.2,0.1,0.3,0.1,0.5c0.4,0.4,0.7,0.6,0.8,0.7c0.1,0.1,0,0.2-0.1,0.2l-0.2,0l0,2.2c0,0.1,0,0.1,0,0.1
	c0,0,0.1,0,0.2,0h0.4h0.3c0.1,0,0.1,0,0.2-0.1c0.1-0.1,0.1-0.4,0.3-1c0-0.1,0-0.2,0.1-0.2h0.2l0,1.2c0.2,0.1,0.3,0.2,0.3,0.4
	c0,0.2-0.1,0.3-0.3,0.4c-0.2,0.1-0.6,0.1-1.1,0.1h-0.6c-0.4,0-0.6-0.1-0.7-0.2c-0.1-0.1-0.1-0.3-0.1-0.6v-1c0,0.1-0.1,0.2-0.3,0.2
	l-1.6,0c-0.3,0.7-0.7,1.2-1.4,1.6c0.6,0.1,0.9,0.3,1.1,0.4c0.1,0.1,0.1,0.1,0,0.2L293,94v0.5l3.3,0l0.3-0.4c0,0,0.1-0.1,0.1-0.1
	c0.1-0.2,0.2-0.2,0.3-0.2c0.1,0,0.3,0.1,0.6,0.4c0.3,0.3,0.5,0.4,0.5,0.5c0,0.1-0.1,0.2-0.3,0.2l-4.3,0c0.5,0.4,1.3,0.8,2.2,1.2
	c0.9,0.3,1.7,0.5,2.6,0.7l0,0.1c-0.4,0.1-0.7,0.4-0.8,0.9c-0.9-0.3-1.7-0.6-2.5-1.1c-0.8-0.5-1.4-1.1-1.9-1.7h0l0,0.9
	c0,0.8,0,1.4,0.1,1.8c0,0.1-0.1,0.2-0.3,0.2C292.5,97.9,292.4,98,292.2,98L292.2,98z M287,89.9l-0.2-0.1c0.3-0.2,0.5-0.5,0.8-0.9
	c0.2-0.3,0.5-0.7,0.7-1.2c0.2-0.5,0.4-0.9,0.4-1.2c0.6,0.3,1,0.5,1.2,0.6c0.1,0.1,0.1,0.2,0,0.2l-0.2,0.1c-0.1,0.2-0.3,0.4-0.4,0.6
	l2,0l0.2-0.3c0,0,0.1-0.1,0.1-0.1c0.1-0.1,0.2-0.2,0.2-0.2c0.1,0,0.3,0.1,0.5,0.4c0.3,0.2,0.4,0.4,0.4,0.5c0,0.1-0.1,0.2-0.3,0.2
	l-2.3,0c0.4,0.2,0.6,0.5,0.6,0.8c0.1,0.2,0,0.4-0.2,0.5c-0.2,0.1-0.4,0.1-0.6-0.1c0-0.4-0.1-0.8-0.4-1.2H289
	C288.4,89,287.7,89.5,287,89.9L287,89.9z M287.6,93.8l-0.6-1.1c0.3,0,0.9-0.1,1.9-0.3c0.1,0,0.1,0,0.2,0l0-1.9h-0.5
	c-0.3,0-0.6,0.1-0.9,0.2l-0.3-0.6c0.5,0.1,1,0.1,1.7,0.1l1.3,0l0.2-0.3c0,0,0-0.1,0.1-0.1c0.1-0.2,0.2-0.2,0.3-0.2
	c0.1,0,0.3,0.1,0.5,0.3c0.3,0.2,0.4,0.4,0.4,0.5c0,0.1-0.1,0.2-0.3,0.2l-1.5,0l0,1.8c0.2,0,0.6-0.1,1.1-0.2c0.3,0,0.5-0.1,0.7-0.1
	l0,0.2c-1.3,0.5-2.6,0.9-3.9,1.4C287.8,93.7,287.7,93.8,287.6,93.8L287.6,93.8z M295.5,91.6l0-1.4l-1.6,0c0,0.5-0.1,0.9-0.2,1.2h0.4
	l0.5-0.6C294.9,91,295.2,91.3,295.5,91.6z"/>
<path class="st3" d="M200.1,43.2v-2.5c2.4-2.7,4.7-5.4,6.5-7.5c4-4.6,5.7-7.2,5.7-10.7c0-3.7-1.8-5.8-5-5.8c-1.2,0-2.5,0.3-3.8,1.1
	l1.6-1l-0.9,3.8c-0.4,1.9-1.2,2.4-2.2,2.4c-0.9,0-1.6-0.5-1.9-1.3c0.4-4,4.3-6.1,8.5-6.1c5.3,0,7.9,2.8,7.9,7.2
	c0,3.6-2.7,6.4-8.8,12c-1.2,1.1-3.5,3.5-5.8,5.8l0.4-1.3v0.6h15.2v3.3H200.1z M230.9,28.5c1.4,1.2,2.4,1.9,3.8,1.9
	c1.6,0,2.7-1,3-4.1l1.7,0.2c-0.2,3.8-2.1,5.6-4.8,5.6c-1.9,0-3-0.7-4.7-2.2c-1.6-1.3-2.4-1.9-3.7-1.9c-1.7,0-2.8,1.1-3.1,4.1
	l-1.7-0.2c0.1-3.8,2.1-5.7,4.9-5.7C228,26.2,229.2,27.1,230.9,28.5z M251,43.8c-4.8,0-7.6-2-8.2-5.7c0.3-0.9,1-1.4,1.9-1.4
	c1.1,0,1.8,0.6,2.1,2.4l0.9,3.7l-1.6-1.1c1.2,0.6,2.2,1,3.7,1c4,0,6.3-2.4,6.3-6.4c0-4.2-2.2-6.5-6.4-6.5h-1.6v-1.3h1.4
	c3.5,0,5.9-2.1,5.9-6.2c0-3.5-1.8-5.5-4.8-5.5c-1.3,0-2.5,0.3-3.9,0.9l1.9-1l-0.9,3.5c-0.3,1.5-1.1,2-2.2,2c-0.7,0-1.4-0.3-1.7-1
	c0.4-4,4-5.6,7.8-5.6c5.1,0,7.9,2.7,7.9,6.5c0,3.6-2.6,6.6-8.3,7.2v-0.5c6.5,0.3,9.1,3.3,9.1,7.5C260.4,40.8,256.6,43.8,251,43.8z
	 M281.2,26.1c7.7,0.4,5,6,2,4.1c-0.3-1.3-1.4-3-2.3-3.9L281.2,26.1z M293,24.4v1.1h-22.8v-1.1H293z M295.2,15.5
	c-0.4,0.3-1.1,0.3-2.2-0.1c-6,0.7-15.2,1.2-23,1.1l-0.1-0.6c7.4-0.7,16.9-2.5,21.9-3.9L295.2,15.5z M267.5,15.7v-1.2l4.1,1.6H271
	v9.5c0,6.4-0.4,15-6.8,20.7l-0.4-0.3c3.5-6,3.8-13.6,3.8-20.4V15.7z M292.5,19.1v1.1h-22.6v-1.1H292.5z M290.8,19.1l1.7-1.9l3.7,2.8
	c-0.2,0.3-0.7,0.6-1.4,0.7v5.2c0,0.3-1.8,1-3,1h-0.6v-7.8H290.8z M281.7,31c-0.5,5.8-1.7,11.5-12.2,15.3l-0.4-0.6
	c8-4.4,8.4-9.7,8.6-14.8H281.7z M289.7,35.3l1.9-1.7l3.4,2.8c-0.3,0.3-0.7,0.5-1.4,0.6c-0.4,4.3-1.3,7.1-2.9,8.2c-1,0.7-2.4,1-4.1,1
	c0-1-0.1-1.9-0.7-2.3c-0.6-0.5-1.8-0.9-3.3-1.2V42c1.4,0.1,4,0.3,4.7,0.3c0.6,0,1-0.1,1.3-0.3c0.7-0.6,1.3-3.1,1.7-6.8H289.7z
	 M291.5,35.3v1.1h-12.2l0.4-1.1H291.5z M293.7,28.1c0,0,2.2,1.7,3.6,2.9c-0.1,0.4-0.5,0.6-1,0.6h-23.8l-0.3-1.1h19.5L293.7,28.1z
	 M2.9,45.3c5.4-5.6,9.1-9.8,11-12.4s2.9-5.2,2.9-7.7c0-2.2-0.6-3.9-1.8-5c-1.2-1.1-2.6-1.7-4.2-1.7c-2,0-3.7,0.7-4.9,2.2
	c-0.7,0.8-1.4,2.1-2,3.7l-1-0.2c0.7-3.4,2-5.8,3.8-7.1c1.8-1.3,3.7-2,5.7-2c2.5,0,4.5,0.8,6.1,2.4c1.5,1.6,2.3,3.5,2.3,5.8
	c0,2.4-0.8,4.8-2.5,7c-1.7,2.2-5.3,6.3-10.9,12h10.2c1.4,0,2.4-0.2,3-0.5c0.6-0.3,1.2-1.2,2-2.5l0.6,0.3l-2.5,6.2H2.9V45.3z
	 M40.8,20.6c1.5,2.9,2.2,6.2,2.2,9.9c0,2.9-0.5,5.7-1.4,8.3c-1.7,4.9-4.7,7.4-9,7.4c-2.9,0-5.3-1.3-7.2-4c-2-2.8-3-6.7-3-11.5
	c0-3.8,0.7-7.1,2-9.9c1.8-3.7,4.6-5.6,8.4-5.6C36.3,15.3,38.9,17.1,40.8,20.6z M37.4,41.4c0.8-2.4,1.2-5.8,1.2-10.3
	c0-3.6-0.2-6.5-0.7-8.6c-0.9-4-2.6-6-5.2-6c-2.5,0-4.2,2.1-5.2,6.2c-0.5,2.2-0.7,5.1-0.7,8.7c0,3.4,0.3,6,0.8,8.1
	c0.9,3.8,2.7,5.6,5.3,5.6C35.1,45,36.6,43.8,37.4,41.4z M55.5,45.3c5.4-5.6,9.1-9.8,11-12.4s2.9-5.2,2.9-7.7c0-2.2-0.6-3.9-1.8-5
	c-1.2-1.1-2.6-1.7-4.2-1.7c-2,0-3.7,0.7-4.9,2.2c-0.7,0.8-1.4,2.1-2,3.7l-1-0.2c0.7-3.4,2-5.8,3.8-7.1c1.8-1.3,3.7-2,5.7-2
	c2.5,0,4.5,0.8,6.1,2.4c1.5,1.6,2.3,3.5,2.3,5.8c0,2.4-0.8,4.8-2.5,7c-1.7,2.2-5.3,6.3-10.9,12h10.2c1.4,0,2.4-0.2,3-0.5
	c0.6-0.3,1.2-1.2,2-2.5l0.6,0.3l-2.5,6.2H55.5V45.3z M95,15.7v0.7l-9.6,29.8h-2.9l9-27.2h-9.7c-1.4,0-2.5,0.2-3.1,0.7
	c-0.6,0.5-1.4,1.5-2.4,3l-0.8-0.4c1-2.4,1.6-3.8,1.8-4.4c0.2-0.6,0.5-1.3,0.9-2.3H95z M113.4,43.3c1.3,0.9,2.5,1.3,3.4,1.3
	c2.1,0,3.6-0.7,4.6-2.1c1-1.4,1.5-2.9,1.5-4.6c0-1.6-0.4-3-1.2-4.2c-1.4-2-3.7-3-7-3c-0.2,0-0.4,0-0.6,0c-0.2,0-0.4,0-0.6,0.1l0-0.6
	c2.4-0.9,4.2-1.8,5.6-3c1.4-1.1,2-2.6,2-4.4c0-1.6-0.5-2.8-1.6-3.7c-1.1-0.8-2.3-1.3-3.7-1.3c-1.6,0-3.1,0.6-4.3,1.8
	c-0.7,0.7-1.4,1.7-2.2,3l-0.7-0.2c0.6-2.3,1.7-4,3.3-5.4c1.6-1.3,3.5-2,5.6-2c2.3,0,4,0.6,5.3,1.9c1.2,1.2,1.9,2.7,1.9,4.3
	c0,1.4-0.5,2.8-1.5,4c-0.6,0.7-1.5,1.4-2.7,2.3c1.4,0.6,2.6,1.3,3.4,2.1c1.6,1.6,2.4,3.5,2.4,5.9c0,2.8-1.1,5.3-3.3,7.4
	c-2.2,2.1-5.4,3.2-9.5,3.2c-1.8,0-3.1-0.3-3.8-0.8c-0.7-0.5-1.1-1.1-1.1-1.7c0-0.4,0.1-0.8,0.4-1.1c0.2-0.4,0.6-0.5,1.2-0.5
	C111,42,112,42.4,113.4,43.3z M145.7,43.1c-1.7,2.2-4,3.3-6.8,3.3c-2.6,0-5-1.2-7.1-3.7c-2.1-2.4-3.2-5.7-3.2-9.7
	c0-5.2,2.1-9.7,6.2-13.5c3.7-3.1,7.9-4.7,12.5-4.7l0.1,0.7c-1.9,0.3-3.4,0.8-4.8,1.4c-1.3,0.6-2.5,1.4-3.6,2.5
	c-1.1,1.1-2.1,2.4-3,4.1c-0.9,1.6-1.6,3.3-2,4.9c0.9-0.6,1.7-1,2.4-1.2c1.2-0.5,2.4-0.7,3.6-0.7c2.4,0,4.3,0.8,5.9,2.4
	c1.6,1.6,2.4,4,2.4,7C148.4,38.4,147.5,40.9,145.7,43.1z M143.4,32.2c-1-2.5-2.8-3.8-5.3-3.8c-2.3,0-3.8,0.7-4.6,2
	c-0.4,0.8-0.7,2.1-0.7,4c0,2.4,0.5,4.8,1.5,7.1c1,2.3,2.7,3.5,4.9,3.5c1.8,0,3-0.8,3.8-2.3c0.8-1.5,1.2-3.3,1.2-5.3
	C144.3,35.5,144,33.7,143.4,32.2z M156.7,41.7l-1.4-3.5c0.8-0.2,2.3-0.7,4.4-1.3v-12h-1.3c-0.7,0-1.5,0.2-2.2,0.5l-0.9-1.8
	c0.8,0.1,1.8,0.2,3,0.3h1.4v-2.2c0-2.9-0.2-5.3-0.5-7.1c2,0.5,3.2,0.9,3.7,1.2c0.3,0.2,0.3,0.5,0,0.7l-0.6,0.4v7.1h1.1l0.7-1.1
	c0-0.1,0.1-0.2,0.2-0.3c0.3-0.5,0.6-0.8,0.7-0.8c0.2,0,0.7,0.4,1.4,1.2c0.7,0.8,1.1,1.3,1.1,1.6c-0.1,0.4-0.4,0.6-0.9,0.6h-4.4V36
	c2.2-0.7,4.1-1.4,5.6-1.9l0.1,0.4c-4,2.5-7.5,4.6-10.7,6.4C157.3,41.3,157.1,41.6,156.7,41.7z M175,45.6c-0.2,0-0.4-0.1-0.6-0.2
	c-0.2-0.1-0.2-0.3-0.2-0.5c0-0.1,0-0.3,0-0.6c0.2-2.4,0.3-4.9,0.3-7.3v-4.3h-3.4c-1.6,0-3.4,0.2-5.2,0.5l-0.9-1.8
	c1.3,0.1,2.8,0.2,4.6,0.3h4.9V17.5h-2.7c-1.6,0-3.2,0.2-4.8,0.5l-0.9-1.7c1.3,0.1,2.8,0.2,4.6,0.3h10.3l0.8-1.2
	c0.1-0.1,0.2-0.2,0.3-0.4c0.3-0.5,0.6-0.8,0.7-0.8c0.2,0,0.8,0.4,1.7,1.2c0.9,0.8,1.3,1.3,1.3,1.6c0,0.4-0.3,0.6-0.9,0.6h-7.8v14.3
	h4.8l0.8-1.2c0-0.1,0.1-0.2,0.2-0.3c0.4-0.6,0.7-0.9,0.8-0.9c0.2,0,0.8,0.4,1.7,1.3c0.9,0.8,1.4,1.4,1.4,1.6
	c-0.1,0.4-0.4,0.6-0.9,0.6h-8.8v4c0,2.7,0.1,5.4,0.3,7.8c-0.2,0.2-0.5,0.4-0.8,0.6C176.1,45.4,175.6,45.6,175,45.6z M166.7,30.1
	l-0.5-0.3c0.6-1,1.1-2.1,1.6-3.3c0.4-1.1,0.8-2.3,1.2-3.7c0.3-1.5,0.5-2.7,0.6-3.6l2.4,0.9c1.7,0.4,2.1,0.7,1.3,1l-0.6,0.2
	C171,25.1,169.1,28,166.7,30.1z M184.5,29c-0.5,0.4-1.1,0.3-1.8-0.3c-0.3-2.4-1.6-5.3-3.8-8.6l0.4-0.2c1.9,1.1,3.4,2.4,4.5,3.7
	c0.9,1.2,1.3,2.3,1.4,3.4C185.3,27.9,185.1,28.6,184.5,29z M52.8,30.6c0,1.2-1,2.2-2.2,2.2s-2.2-1-2.2-2.2c0-1.2,1-2.2,2.2-2.2
	S52.8,29.3,52.8,30.6z M103,30.6c0,1.2-1,2.2-2.2,2.2s-2.2-1-2.2-2.2c0-1.2,1-2.2,2.2-2.2S103,29.3,103,30.6z"/>
<path class="st3" d="M17.9,55c0,0.2-0.2,0.4-0.6,0.5v5.3c0,0.2-0.9,0.5-1.7,0.5h-0.4v-6.5L17.9,55z M8.5,55c0,0.2-0.2,0.4-0.6,0.5
	v5.4c0,0.2-0.9,0.5-1.7,0.5H5.9v-6.7L8.5,55z M15.6,63.1l1.5-1.3l2.2,2c-0.2,0.2-0.4,0.3-1,0.3c-2.6,2.9-6.9,5.3-11.4,6.7l-0.2-0.3
	c3.4-1.8,7.3-4.7,9.1-7.4H15.6z M17.4,63.1v0.6H4l-0.2-0.6H17.4z M6.9,70.2c0.4,0,0.6,0.1,0.8,0.3c1.6,1.5,4,1.9,8.1,1.9
	c2.2,0,4.1,0,6.4-0.1v0.3c-0.9,0.2-1.4,1-1.5,2c-1.5,0-3.7,0-5.6,0c-4.1,0-5.9-0.9-7.7-3.2c-0.3-0.4-0.5-0.3-0.8,0
	c-0.4,0.7-1.4,2-2.1,3.1c0.1,0.2,0,0.4-0.2,0.5l-1.6-2.4C4.2,71.7,6.4,70.2,6.9,70.2z M9.6,59.7c5.1,0.9,3.2,4.7,1.3,3.3
	c-0.1-1.1-0.8-2.4-1.6-3.1L9.6,59.7z M20,56.2c0,0,1.3,1.1,2.1,1.9c-0.1,0.2-0.3,0.4-0.6,0.4h-8.9l-0.2-0.6h6.4L20,56.2z M9.9,56.2
	c0,0,1.3,1.1,2.1,1.8c-0.1,0.2-0.3,0.4-0.6,0.4H1.8l-0.2-0.6h7.2L9.9,56.2z M27.4,60.4l0.6,0.3V73h0.2l-0.8,1l-2.4-1.3
	c0.3-0.3,0.8-0.7,1.2-0.8l-0.4,0.8V60.4H27.4z M28.7,60c0,0.3-0.3,0.5-0.8,0.6v0.7h-2.2v-1.7L28.7,60z M44,60c0,0.3-0.2,0.5-0.8,0.6
	v13.8c0,0.2-0.9,0.7-1.8,0.7H41V59.7L44,60z M36.3,55.4c0,0.3-0.2,0.5-0.8,0.6v16.6h-2.2V55.2L36.3,55.4z M42,72.4V73H26.7v-0.6H42z
	 M65.2,58.5c0,0,1.3,1.1,2.1,1.8c0,0.2-0.3,0.4-0.6,0.4h-5.9V60H64L65.2,58.5z M56.1,64.3l2.3,0.9h5.1l1-1.2l2,1.6
	c-0.2,0.2-0.4,0.3-0.9,0.4v8.4c0,0.1-0.7,0.5-1.7,0.5h-0.4v-9.1h-5.5v8.7c0,0.2-0.6,0.6-1.6,0.6h-0.4V64.3z M62.7,55
	c0,0.3-0.2,0.5-0.8,0.6v10h-2V54.7L62.7,55z M64.2,72.7v0.6h-6.9v-0.6H64.2z M49.5,54.7c5.1,2.1,3,5.9,1.1,4.2
	c-0.1-1.4-0.8-3-1.4-4.1L49.5,54.7z M55.8,62.1c-0.1,0.3-0.3,0.5-0.8,0.5c-0.7,2.4-1.9,6.1-3.1,9h-0.4c0.6-3,1.2-7.3,1.5-10.2
	L55.8,62.1z M48.1,61.6c4.8,5.2,2,9.5,0.8,7.5c0-1.8-0.1-5-1.1-7.3L48.1,61.6z M46.8,71.6c1.5-0.3,5.2-1.1,8.9-2l0.1,0.3
	c-1.6,0.9-4,2.1-7.3,3.6c-0.1,0.3-0.3,0.5-0.5,0.6L46.8,71.6z M54.7,58.2c0,0,1.3,1.2,2.1,2c-0.1,0.2-0.3,0.4-0.6,0.4H47l-0.2-0.6
	h6.7L54.7,58.2z M72.4,66.9c-0.9,0-1.6-0.7-1.6-1.6c0-0.9,0.7-1.6,1.6-1.6c0.9,0,1.6,0.7,1.6,1.6C74.1,66.2,73.4,66.9,72.4,66.9z
	 M82.7,73.7c-1.8,0-3.7-0.5-4.8-1.3l0.1-3.5h1.1l0.9,3.9l-1.2-0.5l-0.2-0.8c1.4,1,2.4,1.3,3.9,1.3c2.3,0,3.7-1.1,3.7-3
	c0-1.6-0.7-2.4-2.9-3.3l-1-0.4c-2.8-1.2-4.2-2.6-4.2-5c0-2.8,2.3-4.4,5.5-4.4c1.7,0,3,0.5,4.2,1.2l-0.1,3.3h-1.1l-0.9-3.8L87,58
	l0.1,0.8c-1.2-0.9-2-1.3-3.2-1.3c-2,0-3.4,1-3.4,2.8c0,1.6,1,2.5,2.6,3.2l1.1,0.5c3.3,1.4,4.4,2.7,4.4,5
	C88.6,71.8,86.4,73.7,82.7,73.7z M98.9,73.7c-4,0-7.4-3-7.4-8.5c0-5.4,3.4-8.5,7.4-8.5c4,0,7.4,3,7.4,8.5
	C106.3,70.6,102.9,73.7,98.9,73.7z M98.9,72.9c3.1,0,4.6-3.4,4.6-7.7c0-4.3-1.5-7.7-4.6-7.7c-3.1,0-4.6,3.4-4.6,7.7
	C94.2,69.5,95.8,72.9,98.9,72.9z M117.9,73.7c-5,0-8.3-3.3-8.3-8.5c0-5.1,3.4-8.4,8.4-8.4c1.9,0,3.4,0.5,4.8,1.3v3.7h-1.1l-1-4.1
	L122,58v0.9c-1.3-1-2.3-1.4-3.7-1.4c-3.4,0-6,2.7-6,7.7c0,4.8,2.4,7.7,5.8,7.7c1.2,0,2.3-0.3,3.4-0.8l-0.9,0.7v-1.7
	c0-1.9,0-3.7-0.1-5.6h2.7c0,1.8-0.1,3.5-0.1,5.7v1.1C121.4,73.2,119.9,73.7,117.9,73.7z M118,66.1v-0.7h6.6v0.7l-2.5,0.3h-1
	L118,66.1z M134.4,73.7c-4,0-7.4-3-7.4-8.5c0-5.4,3.4-8.5,7.4-8.5c4,0,7.4,3,7.4,8.5C141.8,70.6,138.4,73.7,134.4,73.7z M134.4,72.9
	c3.1,0,4.6-3.4,4.6-7.7c0-4.3-1.5-7.7-4.6-7.7c-3.1,0-4.6,3.4-4.6,7.7C129.7,69.5,131.3,72.9,134.4,72.9z M153,62.7
	c4.7,0.6,2.8,4,0.9,2.6c-0.1-0.9-0.7-1.9-1.1-2.5L153,62.7z M152.8,54.7c4.9,0.3,3.3,4,1.3,2.8c-0.1-0.9-0.9-2-1.5-2.6L152.8,54.7z
	 M146.9,60.9c0.6,1.9,0.2,3.3-0.5,3.9c-0.5,0.4-1.5,0.4-1.8-0.3c-0.2-0.6,0.1-1.2,0.7-1.5c0.6-0.4,1.3-1.3,1.3-2L146.9,60.9z
	 M153.7,66c-0.3,3.5-1.2,6.9-8.7,9.1l-0.2-0.3c5.9-2.6,6.3-5.7,6.4-8.8H153.7z M158.3,68.5l1.1-1.1l2,1.7c-0.1,0.2-0.4,0.3-0.9,0.4
	c-0.2,2.9-0.6,4.6-1.6,5.3c-0.6,0.4-1.4,0.6-2.5,0.6c0-0.6-0.1-1.1-0.4-1.4c-0.3-0.3-1.1-0.6-2-0.7v-0.3c0.9,0.1,2.4,0.2,2.8,0.2
	c0.4,0,0.5,0,0.7-0.2c0.4-0.4,0.7-1.9,0.9-4.4H158.3z M149.8,58.5c4.6,1.1,2.6,4.4,0.9,2.9c-0.1-1-0.6-2.1-1.1-2.8L149.8,58.5z
	 M160.4,59.3c-0.1,0.2-0.4,0.4-0.8,0.4c-0.7,0.7-1.8,1.7-2.8,2.5h-0.4c0.4-1.1,0.8-2.7,1-3.8L160.4,59.3z M161.4,61.9l1.2-1.1l2,2
	c-0.2,0.2-0.4,0.2-0.9,0.2c-0.8,0.5-2.2,1.3-3,1.8l-0.2-0.1c0.3-0.7,0.9-2,1.1-2.7H161.4z M159.4,68.5v0.6h-7.3l0.3-0.6H159.4z
	 M161.8,56.1c0,0,1.5,1.1,2.3,1.9c0,0.2-0.3,0.4-0.6,0.4h-18.1l-0.2-0.6h15.3L161.8,56.1z M161.8,64.3c0,0,1.3,1,2.1,1.7
	c-0.1,0.2-0.3,0.4-0.6,0.4h-18l-0.2-0.6h15.5L161.8,64.3z M162.7,61.9v0.6h-16.3v-0.6H162.7z M179.9,73.7c-3.6,0-5.8-1.5-6.2-4.3
	c0.2-0.7,0.8-1,1.4-1c0.8,0,1.3,0.4,1.6,1.8l0.7,2.8l-1.2-0.9c0.9,0.5,1.7,0.7,2.8,0.7c3,0,4.7-1.8,4.7-4.8c0-3.2-1.7-5-4.8-5h-1.2
	v-1h1.1c2.6,0,4.5-1.6,4.5-4.7c0-2.7-1.3-4.1-3.6-4.1c-1,0-1.9,0.2-3,0.7l1.4-0.8l-0.7,2.6c-0.3,1.1-0.9,1.5-1.7,1.5
	c-0.6,0-1-0.3-1.3-0.8c0.3-3,3-4.2,5.9-4.2c3.9,0,6,2,6,4.9c0,2.7-1.9,5-6.3,5.5v-0.4c4.9,0.3,6.9,2.5,6.9,5.7
	C187,71.4,184.2,73.7,179.9,73.7z M197.7,66.8c-1.5,2.4-4.1,5.3-7.3,7l-0.2-0.2c2.4-2.2,4.7-5.9,5.5-8.4l2.9,1.2
	C198.5,66.6,198.3,66.8,197.7,66.8z M202.9,65.5c8.8,3.5,7.5,8.7,5,7.1c-0.9-2.2-3.3-5.1-5.2-6.9L202.9,65.5z M209.3,57.2
	c-0.1,0.2-0.4,0.4-0.9,0.3c-1.5,1.8-3.4,3.5-5.1,4.5l-0.2-0.2c1.1-1.4,2.5-3.7,3.4-6L209.3,57.2z M192.5,56.2
	c6.9,2.6,5.4,7.1,3.3,5.6c-0.6-1.8-2.2-4-3.5-5.4L192.5,56.2z M202.4,55c-0.1,0.3-0.2,0.5-0.8,0.6v18.8c0,0.2-0.9,0.7-1.8,0.7h-0.5
	V54.7L202.4,55z M208,61.4c0,0,1.6,1.3,2.6,2.1c-0.1,0.2-0.3,0.4-0.6,0.4h-19.2l-0.2-0.6h16L208,61.4z M220.5,73.7
	c-4.3,0-7-3.2-7-8.3c0-6.6,5-12.3,12.7-13.1l0.1,0.6c-6.3,1.4-9.5,6.1-9.5,12c0,5.2,1.5,7.9,3.8,7.9c1.9,0,3.4-1.8,3.4-5.5
	c0-3.4-1.3-5.2-3.5-5.2c-1.4,0-2.7,0.5-4,2l-0.5-0.4h0.2c1.4-2,3.2-2.9,5.5-2.9c3.5,0,5.5,2.5,5.5,6.2
	C227.1,70.9,224.4,73.7,220.5,73.7z M244.7,56.2l1-1.1l1.9,1.6c-0.1,0.2-0.4,0.2-0.8,0.3v4c0,0.2,0.1,0.3,0.4,0.3h0.7
	c0.3,0,0.5,0,0.7,0c0.1,0,0.3,0,0.4,0c0.1,0,0.3,0,0.4-0.1h0.2l0.1,0c0.5,0.2,0.7,0.4,0.7,0.8c0,0.7-0.7,1.1-2.7,1.1h-1.1
	c-1.5,0-1.7-0.4-1.7-1.6v-5.4H244.7z M246,56.2v0.6h-4.6v-0.6H246z M240.2,56v-0.7l2.2,0.9h-0.3V58c0,1.9-0.4,4.8-4,6.5l-0.2-0.3
	c2-1.9,2.3-4.2,2.3-6.2V56z M240.4,64.9c1.4,4.7,5.2,7,10.1,8l0,0.3c-0.9,0.2-1.5,0.8-1.8,1.8c-4.6-1.7-7.4-4.4-8.6-9.8L240.4,64.9z
	 M246,64.8l1.2-1.2l2,1.8c-0.2,0.2-0.4,0.3-0.9,0.3c-1.8,4.5-5.4,7.8-11.7,9.3l-0.2-0.3c5.2-2,8.5-5.5,9.9-10H246z M247.2,64.8v0.6
	h-8.3l-0.2-0.6H247.2z M232.5,54.9c5.1,0.7,3.4,4.5,1.4,3.1c-0.2-1.1-0.9-2.3-1.6-3L232.5,54.9z M236.7,72.3V73h-4.5v-0.6H236.7z
	 M235.8,67.5l0.9-1l2,1.5c-0.1,0.2-0.4,0.3-0.9,0.4v5.2c0,0.2-0.9,0.6-1.6,0.6H236v-6.7H235.8z M233.1,74.4c0,0.2-0.8,0.6-1.6,0.6
	h-0.3v-8.3l2,0.8h3.6v0.6h-3.7V74.4z M237.7,57.4c0,0,1.2,0.9,1.9,1.6c-0.1,0.2-0.3,0.4-0.6,0.4h-8.7l-0.2-0.6h6.5L237.7,57.4z
	 M236.7,63.3c0,0,1.1,0.9,1.8,1.5c-0.1,0.2-0.3,0.4-0.6,0.4h-6.9l-0.2-0.6h4.8L236.7,63.3z M236.7,60.4c0,0,1.1,0.9,1.8,1.5
	c-0.1,0.2-0.3,0.4-0.6,0.4h-6.9l-0.2-0.6h4.8L236.7,60.4z M270.9,61.1c0,0,1.3,1.1,2.1,1.8c-0.1,0.2-0.3,0.4-0.6,0.4h-9.8l-0.2-0.6
	h7.2L270.9,61.1z M269,55.1c0,0.3-0.2,0.5-0.8,0.6v18.6c0,0.3-0.9,0.8-1.7,0.8h-0.4V54.8L269,55.1z M255.9,54.8
	c5.2,0.7,3.4,4.7,1.4,3.3c-0.1-1.1-0.9-2.4-1.6-3.2L255.9,54.8z M260.4,72.3v0.6h-5.2v-0.6H260.4z M259.6,67.4l1-1.1l2.1,1.6
	c-0.1,0.2-0.5,0.3-0.9,0.4v5.1c0,0.2-1,0.6-1.6,0.6h-0.3v-6.6H259.6z M255.9,74.2c0,0.2-0.8,0.6-1.6,0.6H254v-8.2l2,0.9h4.4v0.6
	h-4.5V74.2z M261.6,57.2c0,0,1.3,1,2.1,1.7c-0.1,0.2-0.3,0.4-0.6,0.4h-10.1l-0.2-0.6h7.7L261.6,57.2z M260.6,63c0,0,1.3,1,2,1.7
	c-0.1,0.2-0.3,0.4-0.6,0.4h-8.1l-0.2-0.6h5.8L260.6,63z M260.6,60.2c0,0,1.3,0.9,2,1.7c-0.1,0.2-0.3,0.4-0.6,0.4h-8.1l-0.2-0.6h5.8
	L260.6,60.2z M281.6,74.5c0,0.1-0.6,0.6-1.6,0.6h-0.4v-8.4h2V74.5z M291.8,61.6c-0.1,0.3-0.3,0.5-0.9,0.5c-0.3,4.9-0.7,9.5-6.6,13.1
	l-0.3-0.4c4.5-4,4.9-8.6,5-13.9L291.8,61.6z M290.9,61.7c0.3,5.1,1.4,8.9,5.1,11.1l0,0.3c-1,0.2-1.6,0.9-1.8,2.1
	c-2.8-2.5-3.4-7.7-3.6-13.4L290.9,61.7z M290.9,55.3c-0.1,0.3-0.3,0.5-0.8,0.5c-0.9,3.5-2.3,6.6-4.3,8.7l-0.3-0.2
	c1.2-2.5,2.1-6.1,2.5-9.7L290.9,55.3z M293.1,58.7l1.1-1.1l1.9,1.8c-0.2,0.2-0.4,0.2-0.9,0.2c-0.7,1.2-1.9,3-2.9,4.1l-0.3-0.2
	c0.5-1.4,1-3.7,1.3-5H293.1z M294.4,58.7v0.6h-6.5l0.2-0.6H294.4z M279.5,68.9c-0.1,0.3-0.3,0.5-0.8,0.5c-0.8,2-1.9,3.6-3.3,4.7
	l-0.3-0.2c0.8-1.4,1.5-3.5,1.8-5.7L279.5,68.9z M282.4,54.9c0,0.3-0.2,0.5-0.8,0.6v5.3h-2v-6.2L282.4,54.9z M284.5,65.1
	c0,0,1.3,1,2.1,1.7c-0.1,0.2-0.3,0.4-0.6,0.4h-10.5l-0.2-0.6h8L284.5,65.1z M283.2,62.1c0,0,1.2,0.9,2,1.6c0,0.2-0.3,0.4-0.5,0.4
	h-8.1l-0.2-0.6h5.7L283.2,62.1z M283.8,59.3c0,0,1.2,0.9,1.9,1.6c-0.1,0.2-0.3,0.4-0.6,0.4h-8.9l-0.2-0.6h6.7L283.8,59.3z
	 M284.4,55.9c0,0,1.3,1,2,1.7c-0.1,0.2-0.3,0.4-0.6,0.4h-10.3l-0.2-0.6h7.9L284.4,55.9z M282.5,68.4c5,1.6,3.2,5.2,1.4,3.7
	c-0.1-1.2-0.9-2.7-1.6-3.6L282.5,68.4z"/>
<path class="st3" d="M5.7,117.5v-2.9c2.8-3.2,5.5-6.4,7.7-8.9c4.8-5.5,6.7-8.5,6.7-12.8c0-4.4-2.2-7-5.9-7c-1.5,0-2.9,0.4-4.6,1.3
	l1.9-1.2l-1.1,4.5C10,92.7,9,93.3,7.9,93.3c-1,0-1.8-0.6-2.2-1.6c0.5-4.8,5.1-7.2,10.1-7.2c6.3,0,9.4,3.3,9.4,8.6
	c0,4.3-3.2,7.6-10.5,14.3c-1.5,1.4-4.2,4.1-6.9,6.9l0.4-1.5v0.7h18.1v4H5.7z M40.8,118.2c-6.6,0-9.9-3.2-9.9-7.7
	c0-4,2.8-6.8,8.2-8.8v-0.3l0.8,0.6c-3.4,2.3-4.8,4.5-4.8,7.9c0,4.4,2.2,6.8,6,6.8s5.9-2.2,5.9-5.7c0-3.3-1.8-5.9-7.9-8.5
	c-5.1-2.2-7.4-5.5-7.4-9.7c0-5.1,4.2-8.3,9.6-8.3c5.9,0,9,3.3,9,7.4c0,3.1-2,6.1-7.5,8.3v0.2l-0.7-0.5c2.9-2.3,4.1-4.7,4.1-8.1
	c0-3.3-1.8-5.9-5.1-5.9c-2.8,0-5.2,2-5.2,5.4c0,2.9,1.4,5.7,7,8.1c6,2.6,8.5,5.7,8.5,10C51.5,114.7,47.5,118.2,40.8,118.2z
	 M65.7,118.2c-5.7,0-9.1-2.4-9.8-6.8c0.4-1.1,1.2-1.6,2.2-1.6c1.3,0,2.1,0.7,2.5,2.9l1.1,4.4l-1.9-1.4c1.4,0.7,2.6,1.1,4.4,1.1
	c4.8,0,7.4-2.8,7.4-7.6c0-5-2.6-7.8-7.6-7.8h-1.9v-1.6h1.7c4.1,0,7-2.5,7-7.4c0-4.2-2.1-6.5-5.7-6.5c-1.5,0-2.9,0.3-4.7,1.1l2.2-1.2
	l-1.1,4.1c-0.4,1.8-1.4,2.4-2.6,2.4c-0.9,0-1.6-0.4-2-1.2c0.5-4.7,4.7-6.6,9.3-6.6c6.1,0,9.4,3.2,9.4,7.7c0,4.3-3,7.8-9.9,8.6v-0.6
	c7.7,0.4,10.9,3.9,10.9,9C76.8,114.6,72.4,118.2,65.7,118.2z M91.1,118.2c-5.7,0-9.1-2.4-9.8-6.8c0.4-1.1,1.2-1.6,2.2-1.6
	c1.3,0,2.1,0.7,2.5,2.9l1.1,4.4l-1.9-1.4c1.4,0.7,2.6,1.1,4.4,1.1c4.8,0,7.4-2.8,7.4-7.6c0-5-2.6-7.8-7.6-7.8h-1.9v-1.6h1.7
	c4.1,0,7-2.5,7-7.4c0-4.2-2.1-6.5-5.7-6.5c-1.5,0-2.9,0.3-4.7,1.1l2.2-1.2l-1.1,4.1c-0.4,1.8-1.4,2.4-2.6,2.4c-0.9,0-1.6-0.4-2-1.2
	c0.5-4.7,4.7-6.6,9.3-6.6c6.1,0,9.4,3.2,9.4,7.7c0,4.3-3,7.8-9.9,8.6v-0.6c7.7,0.4,10.9,3.9,10.9,9
	C102.2,114.6,97.8,118.2,91.1,118.2z M106.8,106.7v-2.6h11.9v2.6H106.8z M133.8,118.2c-6.8,0-11-5-11-13.1
	c0-10.4,7.8-19.4,19.9-20.6l0.2,1c-9.9,2.2-15,9.6-15,18.8c0,8.2,2.3,12.4,5.9,12.4c3,0,5.3-2.9,5.3-8.7c0-5.3-2-8.1-5.5-8.1
	c-2.2,0-4.3,0.8-6.3,3.1l-0.8-0.6h0.4c2.2-3.1,5.1-4.6,8.6-4.6c5.5,0,8.6,4,8.6,9.8C144.1,113.7,139.9,118.2,133.8,118.2z
	 M159.3,118.2c-6.8,0-11-5-11-13.1c0-10.4,7.8-19.4,19.9-20.6l0.2,1c-9.9,2.2-15,9.6-15,18.8c0,8.2,2.3,12.4,5.9,12.4
	c3,0,5.3-2.9,5.3-8.7c0-5.3-2-8.1-5.5-8.1c-2.2,0-4.3,0.8-6.3,3.1l-0.8-0.6h0.4c2.2-3.1,5.1-4.6,8.6-4.6c5.5,0,8.6,4,8.6,9.8
	C169.6,113.7,165.4,118.2,159.3,118.2z M183.9,118.2c-6.6,0-9.9-3.2-9.9-7.7c0-4,2.8-6.8,8.2-8.8v-0.3l0.8,0.6
	c-3.4,2.3-4.8,4.5-4.8,7.9c0,4.4,2.2,6.8,6,6.8s5.9-2.2,5.9-5.7c0-3.3-1.8-5.9-7.9-8.5c-5.1-2.2-7.4-5.5-7.4-9.7
	c0-5.1,4.2-8.3,9.6-8.3c5.9,0,9,3.3,9,7.4c0,3.1-2,6.1-7.5,8.3v0.2l-0.7-0.5c2.9-2.3,4.1-4.7,4.1-8.1c0-3.3-1.8-5.9-5.1-5.9
	c-2.8,0-5.2,2-5.2,5.4c0,2.9,1.4,5.7,7,8.1c6,2.6,8.5,5.7,8.5,10C194.7,114.7,190.7,118.2,183.9,118.2z M209.4,118.2
	c-6.6,0-9.9-3.2-9.9-7.7c0-4,2.8-6.8,8.2-8.8v-0.3l0.8,0.6c-3.4,2.3-4.8,4.5-4.8,7.9c0,4.4,2.2,6.8,6,6.8s5.9-2.2,5.9-5.7
	c0-3.3-1.8-5.9-7.9-8.5c-5.1-2.2-7.4-5.5-7.4-9.7c0-5.1,4.2-8.3,9.6-8.3c5.9,0,9,3.3,9,7.4c0,3.1-2,6.1-7.5,8.3v0.2l-0.7-0.5
	c2.9-2.3,4.1-4.7,4.1-8.1c0-3.3-1.8-5.9-5.1-5.9c-2.8,0-5.2,2-5.2,5.4c0,2.9,1.4,5.7,7,8.1c6,2.6,8.5,5.7,8.5,10
	C220.1,114.7,216.1,118.2,209.4,118.2z"/>
</svg>
