<svg width="300" height="130" viewBox="0 0 300 130" fill="none" xmlns="http://www.w3.org/2000/svg">
<path d="M247.913 116.47C247.845 116.47 247.79 116.445 247.747 116.396C247.705 116.346 247.683 116.289 247.683 116.223C247.717 115.827 247.747 115.287 247.773 114.603V113.663C247.722 113.688 247.645 113.729 247.543 113.786C246.675 114.215 245.955 114.561 245.385 114.825C245.334 114.982 245.232 115.081 245.078 115.122L244.734 113.935C244.853 113.918 245.117 113.877 245.525 113.811C245.551 113.803 245.572 113.799 245.589 113.799V106.321H245.347C245.236 106.329 245.125 106.387 245.015 106.494L244.695 105.863C245.164 105.913 245.73 105.946 246.394 105.962H248.028L248.296 105.591C248.313 105.567 248.335 105.534 248.36 105.492C248.496 105.311 248.594 105.22 248.654 105.22C248.739 105.22 248.935 105.348 249.245 105.608C249.556 105.868 249.709 106.041 249.709 106.131C249.684 106.255 249.573 106.317 249.377 106.317H248.649V113.213C248.667 114.236 248.701 115.205 248.752 116.12C248.564 116.351 248.283 116.466 247.909 116.466L247.913 116.47ZM246.445 108.362H247.773V106.321H246.445V108.362ZM246.445 110.909H247.773V108.72H246.445V110.909ZM246.445 113.63C246.692 113.589 247.075 113.51 247.594 113.395C247.671 113.378 247.73 113.366 247.773 113.358V111.268H246.445V113.63ZM249.254 110.872L248.807 109.858C249.071 109.858 249.445 109.846 249.931 109.821C250.101 109.516 250.254 109.227 250.39 108.955C250.85 108.081 251.174 107.294 251.361 106.593C251.94 106.84 252.297 107.022 252.433 107.137C252.544 107.228 252.531 107.294 252.395 107.335L252.165 107.397C251.654 108.131 251.033 108.935 250.301 109.808C250.548 109.792 250.952 109.767 251.514 109.734C251.412 109.413 251.28 109.128 251.118 108.881L251.271 108.807C251.723 109.029 252.05 109.289 252.255 109.586C252.425 109.833 252.497 110.072 252.472 110.303C252.438 110.518 252.34 110.658 252.169 110.724C252.003 110.79 251.837 110.744 251.667 110.588C251.667 110.406 251.642 110.217 251.591 110.019C251.488 110.052 251.318 110.105 251.08 110.179C250.458 110.361 249.952 110.509 249.56 110.625C249.484 110.781 249.382 110.864 249.254 110.872ZM250.441 108.51C250.28 108.609 250.101 108.584 249.905 108.436C249.863 108.197 249.748 107.929 249.56 107.632C249.399 107.376 249.216 107.146 249.011 106.939L249.126 106.84C249.458 106.931 249.726 107.038 249.931 107.162C250.246 106.379 250.424 105.69 250.467 105.097C251.071 105.328 251.45 105.501 251.603 105.616C251.714 105.699 251.706 105.76 251.578 105.802L251.361 105.876C251.02 106.371 250.633 106.857 250.199 107.335C250.471 107.549 250.62 107.78 250.646 108.028C250.671 108.25 250.603 108.411 250.441 108.51ZM249.216 116.482L249.101 116.322C249.782 116.05 250.292 115.707 250.633 115.295C250.922 114.949 251.101 114.524 251.169 114.021H250.186V114.64C250.186 114.689 250.114 114.743 249.973 114.801C249.833 114.858 249.692 114.887 249.56 114.887C249.428 114.887 249.356 114.805 249.356 114.64C249.373 114.483 249.39 114.269 249.407 113.997C249.416 113.873 249.42 113.77 249.42 113.688V113.082C249.42 112.34 249.382 111.717 249.305 111.214C249.909 111.387 250.284 111.523 250.429 111.622C250.539 111.696 250.531 111.771 250.403 111.845L250.186 111.969V113.663H251.208V112.29C251.208 111.82 251.182 111.412 251.131 111.066C251.727 111.239 252.093 111.375 252.229 111.474C252.34 111.548 252.335 111.622 252.216 111.696L252.025 111.82V113.453C252.016 114.17 251.833 114.751 251.476 115.196C251.033 115.74 250.28 116.169 249.216 116.482ZM253.77 108.444C253.6 108.547 253.417 108.522 253.221 108.378C253.178 108.131 253.068 107.859 252.889 107.562C252.719 107.29 252.531 107.059 252.327 106.869L252.455 106.77C252.744 106.853 252.995 106.952 253.208 107.067C253.515 106.35 253.693 105.69 253.744 105.089C254.357 105.336 254.74 105.517 254.894 105.633C255.004 105.723 254.996 105.789 254.868 105.831L254.651 105.892C254.327 106.329 253.94 106.779 253.489 107.24C253.778 107.455 253.94 107.694 253.974 107.958C254.008 108.18 253.94 108.341 253.77 108.444ZM255.902 110.843C255.732 110.922 255.558 110.872 255.379 110.703C255.379 110.472 255.34 110.241 255.264 110.01C254.591 110.225 253.949 110.419 253.336 110.592C253.268 110.732 253.17 110.818 253.042 110.851L252.557 109.825C252.855 109.825 253.106 109.825 253.31 109.813C253.37 109.697 253.468 109.52 253.604 109.281C253.663 109.157 253.71 109.066 253.744 109.009C254.204 108.135 254.528 107.348 254.715 106.647C255.311 106.911 255.681 107.104 255.826 107.228C255.928 107.319 255.911 107.38 255.775 107.413L255.532 107.463C255.064 108.147 254.451 108.926 253.693 109.8C253.957 109.792 254.396 109.776 255.008 109.751C255.085 109.743 255.145 109.738 255.187 109.738C255.034 109.351 254.872 109.038 254.702 108.799L254.842 108.724C255.345 108.972 255.711 109.26 255.941 109.59C256.136 109.862 256.222 110.126 256.196 110.381C256.17 110.612 256.073 110.765 255.902 110.843ZM253.106 116.462C252.936 116.462 252.851 116.379 252.851 116.214C252.885 115.811 252.914 115.258 252.94 114.557V113.593C252.94 112.554 252.885 111.709 252.774 111.058C253.438 111.231 253.851 111.367 254.012 111.466C254.123 111.54 254.115 111.614 253.987 111.688L253.757 111.824V113.667H254.881C254.881 112.678 254.83 111.857 254.728 111.206C255.349 111.379 255.736 111.515 255.89 111.614C256 111.68 255.996 111.754 255.877 111.837L255.672 111.96V112.727C255.69 113.552 255.715 114.203 255.749 114.681C255.707 114.755 255.609 114.825 255.464 114.891C255.315 114.957 255.174 114.99 255.038 114.99C254.902 114.99 254.834 114.908 254.834 114.743C254.842 114.693 254.851 114.623 254.86 114.533C254.868 114.467 254.877 114.409 254.885 114.359V114.038H253.761V114.755C253.761 114.871 253.761 115.019 253.774 115.2C253.791 115.613 253.808 115.922 253.825 116.128C253.791 116.21 253.702 116.285 253.557 116.355C253.412 116.425 253.263 116.458 253.11 116.458L253.106 116.462Z" fill="black"/>
<path d="M260.189 115.963C260.12 115.963 260.061 115.939 260.006 115.889C259.95 115.84 259.925 115.782 259.925 115.716C259.925 115.666 259.925 115.592 259.937 115.493C259.997 114.603 260.035 113.713 260.052 112.822V111.239C259.712 111.825 259.342 112.344 258.941 112.797L258.763 112.637C259.674 111.12 260.299 109.083 260.64 106.519H260.078C259.763 106.527 259.439 106.585 259.107 106.692L258.775 106.074C259.244 106.123 259.81 106.156 260.474 106.173H262.236L262.849 105.381C263.155 105.629 263.457 105.876 263.755 106.123L263.743 106.062H268.501L268.782 105.678C268.808 105.645 268.842 105.6 268.884 105.542C269.012 105.369 269.101 105.283 269.152 105.283C269.238 105.283 269.438 105.419 269.757 105.691C270.076 105.963 270.234 106.144 270.234 106.235C270.208 106.358 270.106 106.42 269.927 106.42H267.322C267.016 106.964 266.714 107.447 266.416 107.867H268.357L268.561 107.583C268.561 107.583 268.603 107.537 268.637 107.496C268.74 107.364 268.816 107.298 268.867 107.298C268.952 107.298 269.135 107.41 269.421 107.624C269.706 107.842 269.846 107.995 269.846 108.086C269.753 108.193 269.587 108.267 269.348 108.308V110.732C269.365 111.754 269.399 112.723 269.45 113.638C269.382 113.721 269.276 113.795 269.131 113.861C268.952 113.943 268.761 113.985 268.557 113.985H268.391V113.539H265.237V113.972C265.237 114.022 265.169 114.075 265.032 114.133C264.862 114.207 264.671 114.244 264.458 114.244C264.39 114.244 264.33 114.22 264.279 114.17C264.228 114.121 264.202 114.063 264.202 113.997C264.262 113.197 264.3 112.315 264.317 111.35V109.904C264.317 108.865 264.262 108.02 264.151 107.368L265.364 107.863H265.977C266.096 107.302 266.177 106.82 266.22 106.416H263.921C263.853 106.482 263.764 106.515 263.653 106.515H261.649C261.487 107.603 261.21 108.634 260.819 109.607L261.061 109.706H262.236L262.453 109.397C262.47 109.372 262.496 109.335 262.53 109.285C262.64 109.145 262.721 109.075 262.772 109.075C262.857 109.075 263.049 109.203 263.347 109.458C263.645 109.714 263.794 109.887 263.794 109.978C263.726 110.085 263.555 110.167 263.283 110.225V111.907C263.3 112.929 263.334 113.898 263.385 114.813C263.326 114.887 263.202 114.962 263.015 115.036C262.828 115.11 262.662 115.147 262.517 115.147C262.381 115.147 262.313 115.065 262.313 114.9C262.321 114.859 262.33 114.805 262.338 114.739C262.347 114.69 262.355 114.648 262.364 114.615V114.343H260.921V114.788C260.929 114.887 260.933 115.007 260.933 115.147C260.95 115.353 260.963 115.506 260.972 115.605C260.938 115.687 260.857 115.765 260.729 115.84C260.567 115.922 260.384 115.963 260.18 115.963H260.189ZM260.929 113.985H262.372V110.056H260.929V113.985ZM262.653 116.47L262.564 116.285C262.938 116.112 263.33 115.893 263.738 115.629C264.087 115.399 264.445 115.102 264.811 114.739C265.177 114.376 265.449 114.046 265.628 113.75L266.241 114.269C266.726 114.549 266.829 114.698 266.548 114.714L266.331 114.727C265.854 115.139 265.258 115.51 264.543 115.84C263.904 116.128 263.274 116.338 262.653 116.47ZM265.245 109.611H268.399V108.226H265.245V109.611ZM265.245 111.355H268.399V109.957H265.245V111.355ZM265.245 113.185H268.399V111.713H265.245V113.185ZM270.063 116.305C269.914 116.466 269.706 116.479 269.433 116.347C269.255 115.992 268.944 115.609 268.501 115.197C268.084 114.809 267.659 114.488 267.224 114.232L267.339 114.096C268.156 114.228 268.816 114.45 269.318 114.764C269.736 115.028 270.008 115.32 270.136 115.642C270.238 115.922 270.212 116.141 270.063 116.301V116.305Z" fill="black"/>
<path d="M275.03 116.47C274.937 116.47 274.86 116.446 274.796 116.396C274.733 116.347 274.703 116.289 274.703 116.223C274.779 115.159 274.826 114.088 274.843 113.008V110.732C274.222 111.326 273.579 111.833 272.915 112.253L272.787 112.117C273.451 111.458 274.12 110.646 274.792 109.681C275.32 108.922 275.682 108.201 275.877 107.517C276.541 107.888 276.954 108.143 277.116 108.284C277.244 108.391 277.235 108.457 277.091 108.481L276.848 108.518C276.601 108.873 276.244 109.302 275.775 109.805L276.197 109.965C276.137 110.081 276.014 110.155 275.826 110.188V113.205C275.843 114.228 275.877 115.197 275.929 116.112C275.86 116.194 275.741 116.272 275.571 116.347C275.384 116.429 275.205 116.47 275.035 116.47H275.03ZM273.153 108.708L273.026 108.572C273.511 108.152 274 107.649 274.494 107.063C275.124 106.321 275.55 105.625 275.771 104.973L276.524 105.48C277.078 105.752 277.21 105.909 276.92 105.95L276.69 105.975C276.256 106.445 275.741 106.915 275.145 107.385C274.464 107.929 273.8 108.37 273.153 108.708ZM280.389 116.408C280.364 116.07 280.245 115.831 280.032 115.691C279.793 115.518 279.325 115.386 278.627 115.295V115.11C279.325 115.151 280.023 115.192 280.721 115.234C280.951 115.234 281.066 115.143 281.066 114.962V109.45H279.24C278.636 109.458 277.997 109.516 277.325 109.623L276.993 108.993C277.461 109.042 278.027 109.075 278.691 109.091H282.568L282.849 108.683C282.875 108.65 282.913 108.601 282.964 108.535C283.084 108.362 283.169 108.275 283.22 108.275C283.305 108.275 283.509 108.415 283.837 108.696C284.165 108.976 284.326 109.162 284.326 109.252C284.301 109.384 284.194 109.45 284.007 109.45H282.053V114.999C282.053 115.427 281.956 115.745 281.76 115.951C281.504 116.206 281.045 116.359 280.381 116.408H280.389ZM277.989 106.783L277.669 106.14C278.138 106.189 278.704 106.222 279.368 106.239H282.088L282.368 105.843C282.385 105.818 282.411 105.785 282.445 105.744C282.59 105.546 282.692 105.447 282.752 105.447C282.837 105.447 283.037 105.583 283.356 105.86C283.675 106.136 283.833 106.317 283.833 106.408C283.807 106.54 283.696 106.606 283.501 106.606H279.904C279.3 106.614 278.661 106.672 277.989 106.779V106.783Z" fill="black"/>
<path d="M287.638 116.347L286.986 115.184C287.489 115.102 288.178 114.962 289.055 114.764V110.872H288.417C288.059 110.881 287.685 110.938 287.293 111.046L286.961 110.402C287.353 110.452 287.829 110.485 288.391 110.501H289.055V108.918H287.97L287.906 108.721C287.489 109.158 287.144 109.475 286.872 109.673L286.706 109.549C287.174 109.013 287.646 108.284 288.123 107.36C288.557 106.503 288.808 105.711 288.876 104.986C289.549 105.217 289.974 105.39 290.153 105.505C290.272 105.588 290.272 105.654 290.153 105.703L289.962 105.79C290.677 106.012 291.226 106.28 291.609 106.593C291.924 106.849 292.094 107.113 292.12 107.385C292.145 107.616 292.069 107.781 291.898 107.884C291.724 107.987 291.537 107.97 291.332 107.843C291.017 107.224 290.502 106.61 289.787 106C289.345 106.923 288.766 107.781 288.051 108.572H290.298L290.528 108.201C290.545 108.176 290.566 108.143 290.592 108.102C290.711 107.921 290.8 107.83 290.86 107.83C290.945 107.83 291.128 107.954 291.409 108.205C291.69 108.457 291.83 108.626 291.83 108.716C291.805 108.848 291.698 108.914 291.511 108.914H289.94V110.497H290.566L290.809 110.114C290.834 110.081 290.868 110.036 290.911 109.978C291.022 109.813 291.102 109.731 291.153 109.731C291.23 109.731 291.409 109.867 291.694 110.13C291.979 110.398 292.12 110.576 292.12 110.666C292.094 110.798 291.992 110.864 291.813 110.864H289.936V114.545C290.396 114.438 291.136 114.261 292.158 114.014L292.196 114.199C290.877 114.809 289.451 115.423 287.923 116.042C287.872 116.198 287.778 116.297 287.642 116.339L287.638 116.347ZM288.251 114.158C288.08 114.232 287.914 114.17 287.753 113.972C287.829 113.321 287.719 112.505 287.421 111.524L287.587 111.474C287.995 111.862 288.285 112.266 288.455 112.686C288.591 113.041 288.634 113.362 288.583 113.651C288.532 113.915 288.421 114.084 288.251 114.158ZM290.498 113.911L290.306 113.799C290.57 112.95 290.702 112.117 290.702 111.301L291.456 111.586C291.975 111.701 292.103 111.821 291.839 111.944L291.622 112.031C291.222 112.839 290.847 113.465 290.498 113.911ZM296.227 116.47C296.202 116.141 296.121 115.906 295.984 115.766C295.814 115.617 295.503 115.502 295.052 115.419V115.234C295.495 115.258 295.938 115.287 296.38 115.32C296.551 115.32 296.636 115.238 296.636 115.073V113.379H293.52V114.306C293.537 115.056 293.563 115.646 293.597 116.075C293.554 116.165 293.456 116.252 293.303 116.334C293.141 116.417 292.962 116.458 292.767 116.458C292.699 116.458 292.635 116.433 292.575 116.384C292.516 116.334 292.486 116.277 292.486 116.211C292.562 115.147 292.609 114.075 292.626 112.999V108.527C292.303 108.873 291.996 109.162 291.707 109.393L291.566 109.232C291.805 108.91 292.022 108.56 292.218 108.181C292.413 107.81 292.579 107.401 292.716 106.952C292.852 106.503 292.928 106.107 292.945 105.761C293.601 106.025 294.018 106.214 294.197 106.33C294.324 106.42 294.324 106.478 294.197 106.503L293.992 106.54C293.677 107.199 293.269 107.81 292.767 108.37L293.584 108.741H294.542V107.566C294.542 106.528 294.486 105.682 294.376 105.031C295.074 105.204 295.508 105.34 295.678 105.439C295.806 105.513 295.81 105.592 295.691 105.674L295.499 105.81V108.741H296.508L296.712 108.457C296.729 108.432 296.755 108.399 296.789 108.358C296.883 108.234 296.955 108.172 297.006 108.172C297.091 108.172 297.291 108.288 297.606 108.523C297.921 108.758 298.079 108.918 298.079 109.009C297.993 109.133 297.827 109.219 297.581 109.269V115.188C297.581 115.592 297.504 115.881 297.351 116.054C297.163 116.277 296.789 116.417 296.227 116.475V116.47ZM293.52 110.872H296.636V109.092H293.52V110.872ZM293.52 113.024H296.636V111.219H293.52V113.024ZM298.189 108.502C298.019 108.634 297.815 108.618 297.576 108.453C297.466 108.09 297.236 107.674 296.887 107.204C296.58 106.808 296.248 106.441 295.891 106.103L296.031 106.004C296.763 106.26 297.334 106.573 297.742 106.944C298.083 107.249 298.287 107.562 298.355 107.884C298.415 108.164 298.355 108.37 298.189 108.502Z" fill="black"/>
<path fill-rule="evenodd" clip-rule="evenodd" d="M237.383 112.534V117.006L237.166 117.423H241.554L241.337 117.01V104.808L241.554 104.392H227.572L227.789 104.808V117.006L227.572 117.423H231.96L231.743 117.01V112.538C231.743 111.107 232.888 109.788 234.587 109.784C236.183 109.784 237.387 111.05 237.387 112.538L237.383 112.534Z" fill="#902C2B"/>
<path d="M241.273 85.5492H227.546V98.8435H241.273V85.5492Z" fill="#902C2B"/>
<path d="M233.884 88.4265C233.931 88.1255 234.284 87.6762 233.867 87.4619C233.701 87.3588 233.544 87.4907 233.386 87.5196C232.871 87.5031 232.373 87.5278 231.841 87.4619C231.522 87.4948 231.224 87.3794 230.947 87.4124C230.837 87.5155 230.675 87.7463 230.837 87.9112C231.122 87.8782 231.441 87.9318 231.696 87.8246C232.258 87.973 232.884 87.87 233.45 87.8246L233.518 87.8906C233.518 88.3646 233.126 87.94 232.931 88.1132C232.258 88.0637 231.688 88.1668 230.973 88.1132L230.866 88.311C231.037 88.8305 230.943 89.49 230.905 90.0424C230.734 90.2403 230.547 90.4917 230.211 90.4299C230.104 90.4464 230.041 90.2856 229.973 90.3598C229.892 90.467 229.96 90.6319 230.036 90.6937C230.202 90.838 230.543 90.9905 230.756 90.838C230.841 90.7885 230.956 90.7102 231.032 90.7432C231.275 90.1496 231.279 89.5848 231.339 88.917C231.403 88.7645 231.215 88.6285 231.381 88.5172C231.577 88.6326 231.773 88.4471 231.964 88.5625C231.764 88.5914 231.943 88.9005 231.684 88.7892C231.577 88.9005 231.484 88.9335 231.471 89.086C231.526 89.1767 231.658 89.1932 231.709 89.1891C231.739 89.1808 231.756 89.2056 231.777 89.2221C231.845 89.1891 231.918 89.1561 231.986 89.1273C232.037 89.2097 232.033 89.3499 231.982 89.4282C231.858 89.4447 231.756 89.4076 231.675 89.3251C231.556 89.4199 231.386 89.4653 231.428 89.6549C231.403 89.8404 231.569 89.8816 231.735 89.861C231.794 89.927 231.756 90.0795 231.764 90.129C231.854 90.3722 231.73 90.6195 231.718 90.8627C231.769 90.9905 231.905 91.0565 232.024 91.1018C232.279 91.0276 232.411 90.7226 232.552 90.5123C232.616 90.5123 232.646 90.5824 232.688 90.6154C232.658 90.7926 232.918 90.8545 232.922 91.0194C232.99 91.0441 233.071 91.1307 233.126 91.0895C233.22 91.1142 233.288 91.1843 233.399 91.1595C233.505 91.1472 233.62 91.0524 233.71 91.0977C233.854 91.0317 233.812 90.8875 233.922 90.8009C233.795 90.7885 233.676 90.6731 233.544 90.7597C233.344 90.5948 232.999 90.5453 232.829 90.3145C232.999 90.1784 233.216 90.0053 233.454 89.96C233.493 89.8651 233.348 89.8363 233.356 89.758C233.424 89.6549 233.505 89.8404 233.565 89.6961L233.599 89.7291C233.714 89.7415 233.85 89.725 233.91 89.6673C233.88 89.6755 233.863 89.6508 233.842 89.6343L233.948 89.5354C233.854 89.4364 233.697 89.4364 233.535 89.4612C233.437 89.3581 233.088 89.5354 233.195 89.255C233.199 89.0118 233.48 89.1396 233.612 89.0613C233.752 89.185 233.676 88.9211 233.786 88.9294C233.641 88.7769 233.505 88.8964 233.305 88.8552C233.118 88.7727 233.395 88.6367 233.207 88.5543C233.412 88.5666 233.552 88.4223 233.761 88.4306C233.807 88.4265 233.859 88.5089 233.897 88.4306L233.884 88.4265ZM232.194 90.4958C232.194 90.3062 232.045 90.0919 232.203 89.9311C232.203 90.1496 232.471 90.1826 232.471 90.401L232.194 90.4958ZM232.684 90.0383C232.531 90.0053 232.573 89.8116 232.45 89.7662C232.586 89.7786 232.748 89.7456 232.863 89.8074C232.812 89.8858 232.769 89.9682 232.688 90.0383H232.684ZM232.833 89.4076L232.318 89.3334C232.288 89.1726 232.437 89.152 232.526 89.1726C232.599 89.1355 232.748 89.2179 232.837 89.1437C232.858 89.2427 232.943 89.3251 232.833 89.4117V89.4076ZM232.846 88.7727L232.88 88.8057C232.765 88.9047 232.628 88.7521 232.535 88.8016C232.318 88.8181 232.339 88.6491 232.194 88.5625H232.024C232.326 88.5419 232.611 88.4677 232.918 88.5419C232.841 88.5955 232.769 88.6944 232.846 88.7727Z" fill="#E4E1E0"/>
<path d="M234.118 94.511C234.059 94.5605 233.935 94.5563 233.876 94.5069C233.752 94.5811 233.569 94.4945 233.463 94.5316L233.429 94.4986C233.369 94.4739 233.344 94.5357 233.293 94.5275C233.075 94.4821 232.778 94.4904 232.714 94.2513C232.88 94.0287 233.212 94.1359 233.437 94.1317C233.565 94.1111 233.654 94.0575 233.714 93.971C233.663 93.8885 233.578 93.8803 233.51 93.8349C233.425 93.9833 233.305 93.8349 233.199 93.8308C233.08 93.8308 232.833 93.8267 232.718 93.8226C232.752 93.7484 232.718 93.6412 232.824 93.5917C233.088 93.6123 233.45 93.5876 233.684 93.5052V93.4392C233.612 93.4021 233.548 93.3485 233.446 93.3691C233.356 93.3073 233.254 93.4928 233.241 93.332C233.161 93.332 233.058 93.4804 233.003 93.3279C232.978 93.3856 232.909 93.3485 232.867 93.3568C232.829 93.3155 232.778 93.2867 232.799 93.2207C232.875 93.1836 232.944 93.1342 233.041 93.1589C233.186 93.2042 233.314 93.0929 233.454 93.0641C233.467 93.0229 233.429 92.9528 233.493 92.9322C233.344 92.7425 233.612 92.7054 233.705 92.6024C233.782 92.6271 233.842 92.6972 233.944 92.6725C234.071 92.5199 234.216 92.7219 234.357 92.6148C234.293 92.5653 234.357 92.4622 234.293 92.4128C234.182 92.4293 234.063 92.3674 233.982 92.4086C233.948 92.3468 233.867 92.3839 233.812 92.3715C233.386 92.421 233.897 92.1283 233.786 91.9387C233.578 91.5842 233.331 92.1036 232.995 91.9263C232.897 91.8975 232.82 91.7821 232.897 91.6914C232.867 91.5224 232.722 91.4028 232.522 91.4523C232.441 91.543 232.254 91.6501 232.275 91.815C232.088 91.9222 231.794 91.881 231.586 91.8356C231.424 91.9263 231.611 92.0376 231.543 92.1695C231.59 92.1654 231.641 92.2479 231.679 92.1695L231.748 92.2355C231.62 92.3056 231.547 92.3757 231.467 92.4952C231.509 92.5735 231.505 92.7013 231.599 92.7302L232.254 92.6065C232.288 92.6725 232.331 92.7261 232.318 92.8085C232.075 92.9157 231.837 92.7219 231.594 92.8291C231.462 92.9816 231.688 93.0764 231.654 93.229C231.722 93.2702 231.879 93.3073 231.931 93.2001C232.05 93.1506 232.228 93.1548 232.343 93.2084C232.292 93.6082 231.556 93.13 231.611 93.6618C231.718 93.8556 231.956 93.5959 232.16 93.6371C232.28 93.6206 232.429 93.6536 232.365 93.8061C232.224 93.8762 232.041 93.9421 231.884 93.8638L231.816 93.9298C231.577 93.9298 231.552 94.2389 231.262 94.1194C231.071 93.9009 231.467 93.7649 231.411 93.5217C231.518 93.3526 231.522 93.06 231.424 92.8909C231.262 92.656 230.9 92.7673 230.671 92.7796C230.628 92.8044 230.564 92.8786 230.534 92.8085L230.466 92.8745C230.432 92.8085 230.368 92.8827 230.33 92.9033C230.33 92.994 230.173 93.1012 230.326 93.1713C230.42 93.4268 230.568 93.1713 230.739 93.1795C230.909 93.2207 231.041 92.961 231.186 93.1548C231.164 93.4227 231.092 93.6618 230.964 93.8844C230.905 93.938 230.854 94.0122 230.756 93.9792C230.679 93.9545 230.556 93.9504 230.479 93.9751C230.556 94.0246 230.471 94.1565 230.543 94.1771C230.607 94.3379 230.309 94.3956 230.194 94.5027C230.083 94.6182 230.143 94.7583 230.224 94.8696C230.458 94.7542 230.781 94.7006 230.883 94.4162C231.045 94.3873 231.156 94.4739 231.296 94.4904C231.471 94.3667 231.569 94.5893 231.743 94.5646C231.85 94.7254 232.062 94.6553 232.186 94.7707C232.365 94.7501 232.424 94.9974 232.629 94.9109C232.939 95.0345 233.284 95.0922 233.62 95.1623C233.897 95.0922 234.14 94.9397 234.352 94.7089C234.403 94.6429 234.408 94.511 234.357 94.4409C234.259 94.4203 234.191 94.4698 234.114 94.5027L234.118 94.511ZM233.263 92.2973C233.135 92.3839 232.965 92.3056 232.837 92.2973L232.85 92.2273C233.02 92.219 233.148 92.1242 233.263 92.3015V92.2973ZM233.186 92.6642C233.254 92.9404 232.948 92.7838 232.803 92.825C232.688 92.5777 233.046 92.689 233.186 92.6642ZM231.816 92.2726C231.896 92.1778 232.075 92.1654 232.228 92.1778C232.16 92.3097 231.931 92.1902 231.816 92.2726ZM232.394 94.3791C232.224 94.4162 232.126 94.309 231.986 94.2719C231.969 94.1565 232.148 94.14 232.19 94.2266C232.224 94.1647 232.288 94.1771 232.343 94.1812C232.437 94.2183 232.377 94.3172 232.39 94.3791H232.394Z" fill="#E4E1E0"/>
<path d="M231.194 92.5279L231.232 92.2642C231.1 92.1241 231.024 92.0582 230.858 91.9923C230.696 92.0129 230.628 92.0623 230.509 92.1859C230.475 92.3137 230.551 92.3919 230.607 92.4867C230.781 92.6392 230.981 92.5444 231.19 92.5279H231.194Z" fill="#E4E1E0"/>
<path d="M234.948 88.3771C235.012 88.4678 234.961 88.6368 234.978 88.711L234.944 88.744C234.931 88.7728 234.961 88.7893 234.978 88.8099C234.995 89.082 234.906 89.4695 235.029 89.7416C235.118 89.6303 235.238 89.589 235.344 89.5148L235.276 89.4159C235.357 89.1727 235.276 88.9913 235.357 88.7522C235.297 88.6698 235.336 88.509 235.327 88.4513C235.34 88.1916 235.638 88.1998 235.812 88.1256C236.51 88.1091 237.093 88.0597 237.736 88.1586L237.834 88.5585C237.889 88.9583 237.843 89.4448 237.847 89.824C238.013 89.8116 237.928 89.6138 238.094 89.5932C238.115 89.6096 238.132 89.6385 238.162 89.6261L238.204 89.1603C238.272 88.7027 238.443 88.0432 238.094 87.6598C237.83 87.4826 237.779 87.8123 237.574 87.8824C237.328 87.8206 237.2 87.8 236.923 87.8041C236.795 87.7423 236.881 87.6021 236.859 87.5032C236.795 87.128 236.4 87.2764 236.208 87.3259C236.229 87.4578 236.144 87.631 236.268 87.7258C235.965 87.8659 235.672 87.7052 235.37 87.8453C235.348 87.7134 235.204 87.7175 235.097 87.7093C234.689 87.8329 235.153 88.1339 234.948 88.373V88.3771Z" fill="#E4E1E0"/>
<path d="M238.528 90.2362C238.553 90.3145 238.481 90.3434 238.455 90.4011L238.421 90.3681L238.353 90.4341L238.285 90.3681C238.221 90.3475 238.187 90.397 238.145 90.4341C238.013 90.3434 237.843 90.4712 237.732 90.4259C237.694 90.4259 237.651 90.4135 237.63 90.4588L237.596 90.4259C237.566 90.4176 237.549 90.4423 237.528 90.4588C237.451 90.397 237.306 90.4794 237.255 90.3558L237.37 89.6261C237.302 89.4942 237.408 89.3087 237.379 89.1933C237.442 89.115 237.408 88.9954 237.417 88.8924C237.591 88.7934 237.391 88.6739 237.387 88.5585C237.306 88.4595 237.217 88.3936 237.081 88.4183C236.868 88.5873 236.51 88.5008 236.255 88.4719L236.221 88.5049C236.106 88.34 235.872 88.3482 235.706 88.3977C235.612 88.5379 235.706 88.6863 235.804 88.7976V90.397L235.74 90.463C235.523 90.4094 235.348 90.5578 235.157 90.4547C235.046 90.4877 234.927 90.5001 234.846 90.6155C234.846 90.6526 234.838 90.6938 234.88 90.7144L234.812 90.7804C234.846 91.3781 235.31 90.7268 235.599 90.8917C235.719 90.8463 235.863 90.8711 235.944 90.7309L236.012 90.7969L236.046 90.7639C236.178 90.9205 236.285 90.6031 236.391 90.801C236.676 90.7969 236.987 90.8381 237.251 90.7804C237.31 90.8133 237.362 90.8175 237.421 90.7804C237.694 90.8752 237.97 90.768 238.247 90.7598C238.46 90.8298 238.545 90.8216 238.728 90.702C238.736 90.5949 238.728 90.4959 238.63 90.4341L238.77 90.3022L238.532 90.2321L238.528 90.2362ZM236.212 88.8635C236.451 88.9089 236.753 88.7316 236.898 88.9418V89.1768C236.808 89.1603 236.698 89.1067 236.617 89.1727L236.583 89.1397C236.434 89.2634 236.353 89.0408 236.204 89.0655V88.8635H236.212ZM236.685 89.4695C236.761 89.5025 236.872 89.4695 236.923 89.5725C236.94 89.7045 236.91 89.8529 236.744 89.8364C236.553 89.758 236.421 89.8364 236.229 89.7622L236.195 89.7951C236.042 89.4324 236.498 89.5272 236.685 89.4695ZM236.702 90.3681C236.51 90.397 236.383 90.2857 236.221 90.3929C236.161 90.3352 236.2 90.2362 236.191 90.1579C236.434 90.1167 236.693 90.1249 236.915 90.0384C236.923 90.0796 236.885 90.1497 236.949 90.1703C236.791 90.2032 236.859 90.331 236.706 90.3681H236.702Z" fill="#E4E1E0"/>
<path d="M235.123 92.1614C235.182 92.1943 235.208 92.2974 235.293 92.2644V92.2314C235.408 92.2314 235.549 92.0872 235.638 92.2356C235.646 92.2644 235.621 92.2809 235.604 92.3015C235.663 92.3262 235.625 92.3922 235.638 92.4334C235.825 92.7879 235.31 92.6148 235.285 92.8951C235.221 92.9941 235.255 93.1796 235.242 93.262C235.37 93.3156 235.561 93.3156 235.689 93.2702C235.757 93.3197 235.689 93.4186 235.753 93.4722C235.71 93.5547 235.625 93.5341 235.544 93.5341C235.459 93.5588 235.395 93.4599 235.374 93.398C235.229 93.4887 235.148 93.666 235.093 93.8267C235.148 94.0081 235.314 93.9875 235.468 93.9669C235.629 93.9463 235.812 93.8803 235.949 93.9092C236.149 93.8061 236.498 94.0081 236.604 93.7525C236.698 93.6866 236.583 93.6206 236.574 93.5506C236.413 93.5753 236.208 93.5011 236.025 93.4764L236.064 93.2785C236.119 93.1218 236.238 93.3032 236.306 93.2167C236.315 93.1878 236.289 93.1713 236.272 93.1507C236.276 92.9817 236.498 92.9899 236.519 92.8209C236.315 92.7962 236.127 92.7302 235.936 92.6766L235.978 92.2108C236.076 92.0913 236.255 92.1737 236.391 92.1531C236.383 92.0253 236.553 91.9305 236.502 91.8233L236.468 91.8563C236.102 91.9264 236.059 91.609 235.855 91.4482C235.766 91.4317 235.663 91.4606 235.646 91.543C235.595 91.5966 235.591 91.7038 235.608 91.7409L235.54 91.8068C235.327 91.6667 235.276 91.9017 235.089 91.9305C235.063 92.0212 235.127 92.083 235.119 92.1655L235.123 92.1614Z" fill="#E4E1E0"/>
<path d="M236.842 92.0914C236.906 92.417 237.221 92.1779 237.391 92.1656C237.451 92.1903 237.413 92.2562 237.425 92.2975C237.455 92.4376 237.353 92.7303 237.625 92.6685C237.894 92.6973 237.821 92.4046 237.838 92.2398C237.97 92.0831 238.111 92.2727 238.285 92.215C238.358 92.112 238.255 92.0666 238.289 91.9471C238.119 91.8028 237.945 91.9471 237.774 91.8069L237.808 91.7739C237.821 91.7451 237.791 91.7286 237.774 91.708C237.791 91.6874 237.821 91.6709 237.808 91.642C237.8 91.4318 237.566 91.4771 237.434 91.5349C237.421 91.6255 237.302 91.708 237.396 91.8028C237.31 91.8605 237.149 91.8234 237.085 91.8317C237.025 91.8069 236.996 91.7368 236.915 91.7616C236.787 91.8275 236.868 91.9842 236.842 92.0914Z" fill="#E4E1E0"/>
<path d="M238.596 94.0164C238.583 94.0823 238.515 94.1235 238.49 94.1812L237.149 94.1565C237.038 94.0864 236.834 94.1689 236.808 93.9834C237.026 94.004 237.311 93.9751 237.532 93.8968C237.694 93.8968 237.873 94.0535 238.013 93.9051C237.881 93.567 238.285 93.3692 238.2 93.0105C238.026 92.9033 237.804 92.7178 237.617 92.8333C237.451 92.7426 237.285 92.858 237.102 92.825C237.013 92.6643 236.881 92.8415 236.825 92.8869C236.6 93.0682 236.94 93.2002 236.919 93.3898C236.753 93.5258 236.821 93.7608 236.702 93.9174C236.664 93.9174 236.621 93.9215 236.6 93.8803C236.464 93.9793 236.493 94.1936 236.251 94.107C236 94.0122 235.655 94.1194 235.357 94.1235C235.153 94.0535 234.906 94.0823 234.736 94.2142C234.655 94.3709 234.723 94.5481 234.795 94.68C234.961 94.5811 235.276 94.7749 235.349 94.5234C235.51 94.4863 235.757 94.4533 235.898 94.5646C235.851 94.6017 235.842 94.6512 235.825 94.6965C235.689 94.9315 235.425 95.0469 235.183 95.051C235.204 95.051 235.221 95.0634 235.234 95.084L235.2 95.117C235.302 95.1294 235.378 95.1953 235.472 95.2201C235.889 95.2736 236.047 94.779 236.413 94.6347C236.404 94.5646 236.421 94.5069 236.485 94.4698C236.625 94.7625 236.464 95.0469 236.608 95.3396C236.74 95.352 236.881 95.3478 236.919 95.2118L236.885 95.1788C236.94 95.0799 236.94 94.915 236.894 94.812C236.923 94.6182 236.945 94.3832 237.243 94.4863C237.464 94.5852 237.375 94.8655 237.438 95.0552C237.651 95.2901 237.924 95.051 238.162 95.0346C238.213 95.051 238.29 95.1046 238.332 95.0346C238.354 94.9727 238.302 94.9397 238.264 94.8985C237.953 94.9851 237.796 94.6594 237.617 94.5193C237.69 94.4121 237.753 94.5976 237.826 94.4904C237.958 94.577 238.175 94.4657 238.273 94.5646L238.307 94.5316C238.388 94.544 238.49 94.5069 238.545 94.5687C238.749 94.6058 238.703 94.3874 238.86 94.375C238.983 94.1153 238.583 94.206 238.592 94.004L238.596 94.0164ZM237.783 93.2373L237.745 93.5382C237.668 93.5876 237.468 93.5835 237.366 93.5299L237.336 93.295C237.485 93.2744 237.655 93.2084 237.783 93.2373Z" fill="#E4E1E0"/>
<path d="M230.317 97.0137L231.164 96.1765L230.398 96.1641V96.0527L231.419 96.0651V96.1476L230.577 96.9807L231.419 96.993V97.1044L230.317 97.092V97.0137Z" fill="#E4E1E0"/>
<path d="M231.752 96.7578C231.752 96.9434 231.922 97.0218 232.118 97.0218C232.258 97.0218 232.347 97.0094 232.42 96.9888L232.454 97.0836C232.386 97.1042 232.262 97.129 232.092 97.129C231.76 97.129 231.56 96.9681 231.565 96.7454C231.565 96.5186 231.764 96.3413 232.079 96.3454C232.432 96.3454 232.522 96.564 232.522 96.7042C232.522 96.7331 232.522 96.7537 232.513 96.7702L231.756 96.7619L231.752 96.7578ZM232.33 96.6671C232.33 96.5805 232.279 96.4444 232.062 96.4403C231.862 96.4403 231.773 96.564 231.756 96.6588L232.33 96.6671Z" fill="#E4E1E0"/>
<path d="M232.765 96.5722C232.765 96.4939 232.765 96.432 232.756 96.3702H232.931L232.939 96.4939C232.995 96.4238 233.122 96.3578 233.301 96.3578C233.45 96.3578 233.684 96.4238 233.68 96.6795V97.129H233.475V96.696C233.484 96.5764 233.42 96.4733 233.233 96.4691C233.105 96.4691 233.003 96.531 232.969 96.6052C232.961 96.6217 232.956 96.6465 232.956 96.6671V97.1207H232.752L232.761 96.5722H232.765Z" fill="#E4E1E0"/>
<path d="M234.259 96.8079L234.097 97.1338H233.897L234.421 96.0941H234.655L235.157 97.1462H234.948L234.791 96.812H234.255L234.259 96.8079ZM234.757 96.7089L234.612 96.4076C234.582 96.3375 234.561 96.2756 234.54 96.2178H234.531C234.51 96.2797 234.484 96.3416 234.455 96.4076L234.301 96.7089H234.757Z" fill="#E4E1E0"/>
<path d="M235.374 96.6341C235.374 96.5475 235.374 96.4691 235.37 96.399H235.54L235.549 96.5475H235.557C235.608 96.4485 235.731 96.3867 235.863 96.3867C235.885 96.3867 235.897 96.3867 235.919 96.3908V96.5186C235.893 96.5186 235.876 96.5186 235.846 96.5186C235.706 96.5186 235.608 96.5887 235.578 96.6877C235.574 96.7083 235.57 96.729 235.57 96.7537V97.1537H235.37L235.378 96.6382L235.374 96.6341Z" fill="#E4E1E0"/>
<path d="M236.859 97.1372C236.808 97.1537 236.693 97.1785 236.548 97.1785C236.221 97.1785 236.012 97.0176 236.012 96.7867C236.012 96.5557 236.246 96.3908 236.6 96.3949C236.714 96.3949 236.821 96.4155 236.872 96.4361L236.825 96.5392C236.778 96.5227 236.706 96.5021 236.595 96.5021C236.349 96.5021 236.212 96.6258 236.208 96.7825C236.208 96.9558 236.366 97.063 236.583 97.0671C236.693 97.0671 236.77 97.0506 236.825 97.0341L236.859 97.1372Z" fill="#E4E1E0"/>
<path d="M237.102 96.0693H237.298L237.294 96.539C237.323 96.5019 237.374 96.4648 237.434 96.4442C237.493 96.4195 237.562 96.4071 237.634 96.4071C237.779 96.4071 238.012 96.4731 238.008 96.7326V97.1776H237.804V96.7491C237.813 96.6255 237.749 96.5266 237.562 96.5225C237.434 96.5225 237.336 96.5802 237.298 96.6543C237.285 96.6708 237.285 96.6914 237.285 96.7203V97.1735H237.081L237.094 96.0734L237.102 96.0693Z" fill="#E4E1E0"/>
<path d="M238.439 96.296C238.366 96.296 238.315 96.2548 238.315 96.2054C238.315 96.1559 238.366 96.1188 238.443 96.1188C238.519 96.1188 238.566 96.16 238.566 96.2054C238.566 96.2548 238.515 96.2919 238.439 96.2919V96.296ZM238.332 97.1819L238.341 96.432H238.536L238.528 97.1819H238.332Z" fill="#E4E1E0"/>
<path d="M255.345 97.7553C254.166 97.4008 253.229 96.9226 252.544 96.3167C251.808 95.6612 251.263 94.7955 250.914 93.7114L249.611 93.7031L249.599 96.1765C250.501 96.0487 251.305 95.9292 252.012 95.8179L252.038 96.0157C250.518 96.5351 249.041 97.0051 247.602 97.4255C247.534 97.5822 247.445 97.6729 247.334 97.6976L246.73 96.5558C246.943 96.5393 247.385 96.4898 248.058 96.4032C248.313 96.362 248.513 96.3373 248.658 96.3208L248.675 93.699L246.9 93.6908C246.534 95.3438 245.853 96.6671 244.861 97.6605L244.695 97.5492C245.295 96.5393 245.717 95.3232 245.955 93.8969C246.113 92.8911 246.198 91.6049 246.206 90.0302L246.215 88.2989C246.215 87.5981 246.185 87.0003 246.108 86.5057L247.394 87.0457L254.017 87.0828L254.247 86.7984C254.247 86.7984 254.289 86.753 254.323 86.7118C254.442 86.5799 254.528 86.5139 254.579 86.5139C254.664 86.5139 254.864 86.6335 255.174 86.8767C255.489 87.1158 255.643 87.2848 255.643 87.3755C255.558 87.4909 255.387 87.5733 255.132 87.6187V88.3112C255.128 88.4184 255.132 88.5586 255.136 88.7317C255.149 89.1192 255.166 89.4119 255.183 89.6097C255.149 89.6839 255.03 89.7581 254.825 89.8282C254.621 89.8983 254.438 89.9354 254.276 89.9354H254.123V89.5026L247.207 89.4655V90.0343C247.202 90.5537 247.19 90.9495 247.173 91.2215L249.203 91.2339C249.203 90.5826 249.177 90.0632 249.109 89.6757C249.756 89.853 250.156 89.989 250.318 90.092C250.437 90.1662 250.441 90.2363 250.331 90.3023L250.139 90.4136V91.2422L252.199 91.2545C252.199 90.6114 252.174 90.0962 252.106 89.7087C252.753 89.8859 253.153 90.022 253.314 90.125C253.434 90.1992 253.438 90.2734 253.327 90.3476L253.136 90.4589V91.2628L254.178 91.2669L254.434 90.8959C254.451 90.8712 254.481 90.8341 254.523 90.7846C254.651 90.6032 254.74 90.5125 254.791 90.5125C254.877 90.5125 255.068 90.6444 255.37 90.9041C255.672 91.1638 255.821 91.3411 255.821 91.4318C255.787 91.5637 255.677 91.6296 255.489 91.6296L253.127 91.6173L253.114 93.3857L254.442 93.394L254.702 93.0106C254.719 92.9859 254.74 92.9529 254.766 92.9117C254.902 92.7138 255 92.6149 255.06 92.6149C255.145 92.6149 255.336 92.7509 255.638 93.0189C255.941 93.2868 256.09 93.4682 256.09 93.5589C256.064 93.6825 255.958 93.7444 255.77 93.7444L251.178 93.7196C251.463 94.3297 251.889 94.8615 252.459 95.3067C253.238 94.7832 253.851 94.2514 254.306 93.7114C254.804 94.1112 255.111 94.3792 255.221 94.5194C255.306 94.6348 255.281 94.6925 255.145 94.6925H254.915C254.276 94.9687 253.536 95.2366 252.702 95.4963C253.549 96.0858 254.698 96.5063 256.153 96.7536L256.141 96.902C255.732 96.9886 255.468 97.2771 255.345 97.7636V97.7553ZM246.951 93.3445L249.199 93.3569L249.211 91.5884L247.207 91.5761L247.181 91.4648C247.134 92.1491 247.058 92.7756 246.951 93.3404V93.3445ZM247.219 89.1068L254.136 89.1439L254.144 87.4373L247.228 87.4002L247.219 89.1068ZM250.126 93.361L252.195 93.3734L252.208 91.6049L250.139 91.5925L250.126 93.361Z" fill="black"/>
<path d="M259.048 97.4543L258.72 96.8236C259.188 96.8772 259.754 96.9102 260.418 96.9308H261.401L261.431 92.0542C261.436 91.0153 261.389 90.1703 261.282 89.519L262.529 90.0343L266.471 90.0549L266.688 89.7086C266.713 89.6756 266.743 89.6303 266.777 89.5726C266.879 89.4242 266.956 89.35 267.007 89.35C267.092 89.35 267.305 89.4901 267.641 89.7663C267.978 90.0425 268.148 90.228 268.148 90.3187C268.046 90.4424 267.858 90.5207 267.586 90.5495L267.548 96.9638H268.301L268.599 96.5227C268.616 96.498 268.642 96.4609 268.676 96.4114C268.82 96.1888 268.922 96.0775 268.982 96.0775C269.067 96.0775 269.28 96.23 269.616 96.5392C269.953 96.8442 270.123 97.0462 270.123 97.1369C270.097 97.2688 269.991 97.3348 269.804 97.3348L260.959 97.2853C260.354 97.2894 259.716 97.343 259.043 97.4461L259.048 97.4543ZM259.422 90.364C259.218 90.3558 259.078 90.2692 259.001 90.1002C258.882 89.8199 258.997 89.5643 259.337 89.3376C259.618 89.1809 259.852 88.9295 260.031 88.575C260.239 88.1957 260.329 87.8 260.308 87.3795L260.512 87.3671C260.597 87.6062 260.648 87.8453 260.674 88.0844L263.926 88.1009C263.926 87.4001 263.896 86.8106 263.819 86.3325C264.534 86.5097 264.977 86.6499 265.156 86.7488C265.283 86.823 265.283 86.9013 265.156 86.9838L264.951 87.1198V88.1092L268.608 88.1298L268.863 87.8453C268.88 87.8206 268.91 87.7876 268.952 87.7464C269.071 87.6145 269.157 87.5485 269.208 87.5485C269.284 87.5485 269.467 87.6928 269.761 87.9855C270.055 88.274 270.199 88.4678 270.199 88.5585C270.131 88.6244 269.978 88.6698 269.74 88.6904C269.225 89.2139 268.697 89.6468 268.152 89.993L267.999 89.8941C268.224 89.4819 268.429 89.0202 268.62 88.5008L260.695 88.4554C260.699 88.8594 260.631 89.2263 260.482 89.5561C260.363 89.8281 260.197 90.0384 259.993 90.1827C259.814 90.3146 259.622 90.3723 259.418 90.364H259.422ZM262.355 96.9432L266.564 96.9679L266.577 94.9397L262.368 94.915L262.355 96.9432ZM262.368 94.5687L266.577 94.5935L266.59 92.6766L262.38 92.6519L262.368 94.5687ZM262.38 92.2932L266.59 92.318L266.603 90.4135L262.393 90.3888L262.38 92.2932Z" fill="black"/>
<path d="M272.826 97.842L272.723 97.6689C273.604 96.9722 274.268 96.0447 274.72 94.8863C274.477 94.4164 274.251 93.7939 274.043 93.0148C274 93.089 273.936 93.2045 273.847 93.3611C273.617 93.7898 273.455 94.0701 273.37 94.2103C273.438 94.3175 273.434 94.4164 273.358 94.5071L272.723 93.8475C273.132 93.5054 273.541 93.1138 273.941 92.6809L274.06 92.1492L274.494 92.3017L274.171 92.7551C274.354 93.3652 274.592 93.9217 274.89 94.4288C275.158 93.6126 275.345 92.6109 275.456 91.4154L274.307 91.4072L273.983 92.0337C273.736 92.1162 273.438 92.0832 273.089 91.9431C273.728 90.6858 274.358 89.3172 274.975 87.8373H274.324C273.941 87.8373 273.549 87.895 273.149 87.998L272.809 87.3797C273.217 87.4333 273.711 87.4663 274.29 87.4869H274.992L275.209 87.1818C275.235 87.1571 275.264 87.12 275.298 87.0705C275.401 86.9386 275.477 86.8727 275.528 86.8727C275.605 86.8727 275.788 87.0128 276.073 87.289C276.358 87.5652 276.503 87.7507 276.503 87.8414C276.409 87.9321 276.214 87.998 275.916 88.0351C275.579 88.7895 275.098 89.7995 274.468 91.0568H275.375L275.605 90.7929C275.622 90.7765 275.648 90.7476 275.682 90.7064C275.801 90.5745 275.886 90.5085 275.937 90.5085C276.022 90.5085 276.197 90.6281 276.465 90.8713C276.733 91.1104 276.865 91.2794 276.865 91.3659C276.805 91.4566 276.661 91.5185 276.431 91.5473C276.226 93.0396 275.886 94.2392 275.413 95.1502C275.945 95.7479 276.661 96.1601 277.563 96.3869C278.303 96.5724 279.368 96.6672 280.764 96.6754C282.475 96.6837 283.62 96.6837 284.194 96.6713V96.8444C284.016 96.8774 283.871 96.9681 283.756 97.1124C283.662 97.2525 283.607 97.4215 283.586 97.6194L280.687 97.6029C279.248 97.5947 278.133 97.4586 277.333 97.1989C276.418 96.898 275.686 96.3662 275.15 95.6036C274.583 96.5229 273.805 97.2649 272.813 97.8255L272.826 97.842ZM279.419 96.3827C279.248 96.3827 279.163 96.3003 279.163 96.1354C279.18 95.9952 279.197 95.8015 279.219 95.5542C279.227 95.4387 279.231 95.348 279.231 95.2821V94.7256L278.265 94.7215C277.686 94.7256 277.082 94.7792 276.452 94.8822L276.124 94.2515C276.592 94.3051 277.159 94.3381 277.823 94.3587L279.24 94.3669L279.248 93.0561H278.418C277.942 93.0561 277.448 93.1138 276.937 93.2168L276.609 92.5861C277.078 92.6397 277.644 92.6727 278.308 92.6933H279.253L279.261 91.4236H278.495C278.061 91.4236 277.601 91.4814 277.116 91.5844L276.775 90.9661C277.244 91.0197 277.805 91.0526 278.461 91.0733H279.265L279.274 89.7912H278.214C277.61 89.7912 276.971 89.8448 276.299 89.9479L275.971 89.3172C276.439 89.3708 277.005 89.4037 277.669 89.4244L279.278 89.4326L279.287 88.1712H278.533C278.099 88.1712 277.648 88.2289 277.18 88.332L276.839 87.6889C277.299 87.7425 277.852 87.7754 278.499 87.7961H279.291C279.291 87.2313 279.265 86.7696 279.21 86.4151C279.891 86.6006 280.308 86.7408 280.47 86.8438C280.589 86.9263 280.585 87.0087 280.457 87.0912L280.24 87.2272V87.8084L281.743 87.8167L281.96 87.5199C281.977 87.4951 282.002 87.4622 282.036 87.4209C282.147 87.289 282.228 87.2231 282.279 87.2231C282.364 87.2231 282.551 87.3467 282.845 87.5982C283.139 87.8455 283.283 88.0187 283.283 88.1093C283.198 88.2248 283.032 88.3072 282.785 88.3526L282.777 89.4532H282.93L283.164 89.074C283.19 89.041 283.22 88.9956 283.254 88.9379C283.356 88.773 283.432 88.6906 283.483 88.6906C283.56 88.6906 283.726 88.8225 283.986 89.0904C284.245 89.3543 284.373 89.5315 284.373 89.6222C284.348 89.7541 284.241 89.8201 284.054 89.8201L282.777 89.8118V90.4055C282.777 90.4961 282.777 90.6157 282.785 90.7641C282.802 91.0939 282.815 91.3412 282.832 91.5061C282.79 91.5803 282.675 91.6545 282.492 91.7328C282.309 91.8111 282.138 91.8482 281.985 91.8482H281.832V91.4401L280.21 91.4319L280.202 92.7057L281.836 92.7139L282.096 92.3429C282.113 92.3182 282.134 92.2852 282.16 92.244C282.296 92.0626 282.394 91.9719 282.453 91.9719C282.539 91.9719 282.73 92.0997 283.024 92.3594C283.322 92.615 283.466 92.7922 283.466 92.8829C283.441 93.0148 283.335 93.0808 283.147 93.0808L280.198 93.0643L280.189 94.3752L282.143 94.3876L282.441 93.9918C282.466 93.9671 282.496 93.9259 282.53 93.8682C282.675 93.6785 282.773 93.5837 282.824 93.5837C282.909 93.5837 283.117 93.7239 283.454 94.0001C283.79 94.2763 283.956 94.4618 283.956 94.5524C283.922 94.6844 283.811 94.7503 283.624 94.7503L280.193 94.7297V95.1873C280.198 95.2862 280.202 95.4099 280.202 95.5583C280.219 95.7644 280.227 95.921 280.236 96.0282C280.21 96.1189 280.112 96.2014 279.946 96.2756C279.78 96.3498 279.606 96.3869 279.427 96.3827H279.419ZM280.202 91.0856L281.823 91.0939L281.832 89.8077L280.21 89.7995L280.202 91.0856ZM280.21 89.4408L281.832 89.4491L281.841 88.1877L280.219 88.1794L280.21 89.4408Z" fill="black"/>
<path d="M292.171 97.9615C292 97.9615 291.915 97.879 291.915 97.7141C291.949 97.3349 291.983 96.8237 292.013 96.1807V95.2779C290.83 96.4074 289.115 97.236 286.876 97.7595L286.786 97.5616C288.638 96.8979 290.064 95.9952 291.064 94.8533L289.174 94.8409C288.57 94.845 287.931 94.8986 287.259 95.0017L286.931 94.371C287.399 94.4246 287.965 94.4576 288.629 94.4782L292.022 94.4988L292.03 93.4105C291.554 93.6207 290.983 93.7939 290.319 93.9217L290.191 93.7238C290.907 93.5383 291.464 93.2827 291.868 92.9529C292.252 92.6438 292.528 92.248 292.69 91.7698H292.218C291.954 91.774 291.681 91.8317 291.4 91.9347L291.073 91.304C291.396 91.3535 291.788 91.3906 292.247 91.4112H292.796C292.881 91.0526 292.941 90.6362 292.971 90.1663H292.562C292.349 90.1704 292.137 90.2281 291.924 90.3353L291.596 89.7169C292.064 89.7705 292.63 89.8035 293.294 89.8241L295.388 89.8365L295.516 89.6881C295.354 89.7211 295.197 89.6757 295.044 89.5479C295.014 89.1522 294.831 88.7317 294.503 88.2824H293.686C293.179 88.8348 292.639 89.2759 292.056 89.6015L291.903 89.4408C292.107 89.2264 292.281 89.0327 292.418 88.8513C292.656 88.5297 292.89 88.1299 293.116 87.6435C293.324 87.1818 293.46 86.7778 293.533 86.4233C294.18 86.6747 294.576 86.852 294.729 86.9633C294.848 87.054 294.839 87.1199 294.703 87.1611L294.473 87.2353C294.312 87.4909 294.146 87.7218 293.984 87.9238L296.499 87.9361L296.768 87.5651C296.785 87.5404 296.814 87.5033 296.857 87.4538C296.985 87.2724 297.074 87.1818 297.125 87.1818C297.21 87.1818 297.41 87.3137 297.721 87.5734C298.036 87.8331 298.189 88.0103 298.189 88.101C298.155 88.2329 298.053 88.2989 297.883 88.2989L295.201 88.2824C295.474 88.4226 295.665 88.5998 295.784 88.8059C295.886 88.9791 295.916 89.1481 295.882 89.313C296.312 89.6634 296.576 89.9025 296.67 90.0344C296.738 90.1415 296.716 90.2116 296.606 90.2446L296.414 90.2941L296.402 92.483C296.402 92.5489 296.414 92.5902 296.44 92.6067C296.465 92.6231 296.521 92.6314 296.606 92.6314H296.963H297.295C297.363 92.6314 297.419 92.5984 297.461 92.5325C297.512 92.45 297.61 92.1285 297.747 91.572C297.772 91.4813 297.789 91.4112 297.798 91.3617H297.951L297.981 92.5613C298.168 92.6355 298.262 92.7592 298.257 92.9323C298.257 93.1219 298.155 93.258 297.947 93.3404C297.734 93.4311 297.376 93.4723 296.874 93.4723H296.299C295.942 93.4682 295.712 93.4023 295.61 93.2786C295.516 93.1797 295.474 92.9735 295.474 92.6602V91.6214C295.444 91.7286 295.342 91.7822 295.171 91.7822L293.601 91.774C293.341 92.4665 292.86 92.9859 292.162 93.3363C292.733 93.4806 293.086 93.596 293.218 93.6867C293.32 93.7609 293.311 93.8351 293.192 93.9093L292.988 94.033V94.5029L296.304 94.5235L296.576 94.1525C296.602 94.1278 296.636 94.0865 296.678 94.0288C296.806 93.8639 296.895 93.7815 296.946 93.7815C297.031 93.7815 297.236 93.9093 297.555 94.169C297.878 94.4246 298.036 94.6018 298.036 94.6925C298.01 94.8244 297.908 94.8904 297.729 94.8904L293.431 94.8657C293.98 95.2985 294.716 95.686 295.631 96.0281C296.482 96.3373 297.351 96.5599 298.245 96.6959L298.232 96.832C297.806 96.9268 297.534 97.2236 297.41 97.7183C296.495 97.4421 295.661 97.0711 294.916 96.6052C294.129 96.0982 293.499 95.517 293.026 94.8657H292.988L292.984 95.8055C292.996 96.5805 293.018 97.1865 293.047 97.6234C293.005 97.7059 292.899 97.7842 292.728 97.8584C292.541 97.9326 292.354 97.9656 292.166 97.9656L292.171 97.9615ZM286.986 89.9231L286.833 89.7747C287.089 89.5356 287.357 89.2305 287.629 88.8513C287.867 88.5215 288.093 88.1175 288.306 87.6393C288.519 87.157 288.659 86.7448 288.727 86.3985C289.37 86.683 289.774 86.8808 289.936 87.0004C290.055 87.0993 290.043 87.1653 289.898 87.1982L289.655 87.2601C289.519 87.4909 289.379 87.7053 289.242 87.899L291.285 87.9114L291.528 87.5651C291.554 87.5322 291.588 87.4868 291.63 87.4291C291.741 87.2807 291.822 87.2065 291.873 87.2065C291.958 87.2065 292.137 87.3302 292.405 87.5734C292.677 87.8166 292.809 87.9856 292.809 88.0763C292.775 88.2082 292.669 88.2742 292.49 88.2742L290.166 88.2618C290.549 88.4844 290.762 88.7441 290.813 89.0327C290.864 89.28 290.787 89.4614 290.592 89.5809C290.396 89.7005 290.191 89.6634 289.979 89.4737C289.974 89.1027 289.847 88.6988 289.604 88.2618H288.966C288.4 88.9543 287.736 89.5108 286.978 89.9272L286.986 89.9231ZM287.587 93.831L287.033 92.7509C287.306 92.718 287.923 92.6314 288.885 92.4912C288.953 92.483 289.004 92.4747 289.038 92.4665L289.051 90.5249H288.514C288.225 90.5249 287.919 90.5826 287.595 90.6898L287.267 90.0591C287.736 90.1127 288.302 90.1457 288.966 90.1663L290.255 90.1745L290.485 89.853C290.502 89.8283 290.528 89.7953 290.562 89.7541C290.681 89.5974 290.766 89.5191 290.817 89.5191C290.902 89.5191 291.085 89.6345 291.362 89.8612C291.643 90.088 291.779 90.2487 291.779 90.3394C291.771 90.4713 291.668 90.5373 291.473 90.5373L289.966 90.529L289.957 92.3099C290.187 92.2769 290.545 92.2192 291.03 92.1285C291.328 92.079 291.549 92.046 291.694 92.0213L291.732 92.2068C290.426 92.6932 289.14 93.1425 287.872 93.5589C287.821 93.7155 287.727 93.8062 287.591 93.831H287.587ZM295.486 91.5761L295.495 90.1786L293.924 90.1704C293.877 90.698 293.814 91.1144 293.724 91.4194H294.133L294.61 90.7805C294.908 91.0443 295.197 91.3123 295.486 91.5761Z" fill="black"/>
<path d="M5.10856 43.2184V40.7394C7.47656 38.0384 9.77056 35.3374 11.5836 33.2284C15.5796 28.6034 17.2446 26.0504 17.2446 22.4984C17.2446 18.7614 15.3946 16.6524 12.2496 16.6524C11.0286 16.6524 9.77056 16.9484 8.40156 17.7254L10.0296 16.7264L9.14156 20.5004C8.77156 22.3504 7.92056 22.8684 6.95856 22.8684C6.10756 22.8684 5.40456 22.3504 5.10856 21.5364C5.55256 17.5404 9.40056 15.4684 13.5816 15.4684C18.9096 15.4684 21.4996 18.2804 21.4996 22.6834C21.4996 26.3094 18.7986 29.0844 12.6936 34.7084C11.4726 35.8554 9.17856 38.1864 6.88456 40.5174L7.25456 39.2594V39.8884H22.4616V43.2184H5.10856ZM26.6463 43.2184V42.1454L31.7153 41.5164H35.4893L40.1513 42.2194V43.2924L26.6463 43.2184ZM31.3453 43.2184C31.4193 40.3694 31.4563 37.4464 31.4563 34.6344V18.2064L26.5353 18.9464V17.7624L35.2303 15.6164L35.7853 16.0234L35.6373 21.9434V34.6344C35.6373 37.4464 35.7113 40.3694 35.7853 43.2184H31.3453ZM47.6909 32.4884C46.1369 32.4884 44.9899 31.2674 44.9899 29.7874C44.9899 28.3074 46.1369 27.0864 47.6909 27.0864C49.2449 27.0864 50.3919 28.3074 50.3919 29.7874C50.3919 31.2674 49.2449 32.4884 47.6909 32.4884ZM56.1281 43.2184V40.7394C58.4961 38.0384 60.7901 35.3374 62.6031 33.2284C66.5991 28.6034 68.2641 26.0504 68.2641 22.4984C68.2641 18.7614 66.4141 16.6524 63.2691 16.6524C62.0481 16.6524 60.7901 16.9484 59.4211 17.7254L61.0491 16.7264L60.1611 20.5004C59.7911 22.3504 58.9401 22.8684 57.9781 22.8684C57.1271 22.8684 56.4241 22.3504 56.1281 21.5364C56.5721 17.5404 60.4201 15.4684 64.6011 15.4684C69.9291 15.4684 72.5191 18.2804 72.5191 22.6834C72.5191 26.3094 69.8181 29.0844 63.7131 34.7084C62.4921 35.8554 60.1981 38.1864 57.9041 40.5174L58.2741 39.2594V39.8884H73.4811V43.2184H56.1281ZM80.8479 43.2184L80.5519 42.9224L92.7249 18.0954L92.2809 20.0194V19.3904H77.4069V16.0234H94.0569V18.1694L84.3999 43.2184H80.8479ZM102.541 32.4884C100.987 32.4884 99.8395 31.2674 99.8395 29.7874C99.8395 28.3074 100.987 27.0864 102.541 27.0864C104.095 27.0864 105.242 28.3074 105.242 29.7874C105.242 31.2674 104.095 32.4884 102.541 32.4884ZM118.563 43.8104C113.79 43.8104 110.941 41.7754 110.349 38.0754C110.645 37.1504 111.385 36.7064 112.199 36.7064C113.309 36.7064 113.975 37.2984 114.308 39.1114L115.196 42.7744L113.605 41.6274C114.789 42.2564 115.825 42.5894 117.305 42.5894C121.301 42.5894 123.558 40.2214 123.558 36.2254C123.558 32.0074 121.375 29.6764 117.194 29.6764H115.603V28.3444H117.009C120.487 28.3444 122.892 26.2354 122.892 22.1284C122.892 18.6134 121.116 16.6524 118.082 16.6524C116.824 16.6524 115.603 16.9114 114.16 17.5774L116.047 16.5784L115.159 20.0564C114.826 21.5734 114.012 22.0544 112.976 22.0544C112.236 22.0544 111.607 21.7214 111.311 21.0554C111.755 17.0964 115.27 15.4684 119.155 15.4684C124.298 15.4684 127.073 18.1324 127.073 21.9804C127.073 25.6064 124.52 28.5664 118.748 29.1954V28.7144C125.223 29.0474 127.887 31.9704 127.887 36.2624C127.887 40.7764 124.187 43.8104 118.563 43.8104ZM142.543 43.8474V35.5224V18.2434H142.025L143.357 17.7254L138.177 25.7914L132.59 34.4494L132.923 33.0804V33.6724H150.572V36.4474H131.332V34.1904L143.431 15.5794H146.28V43.8474H142.543ZM164.12 15.2834H181.066L183.138 12.5824C183.138 12.5824 185.469 14.4694 186.875 15.7644C186.764 16.1714 186.394 16.3564 185.876 16.3564H164.416L164.12 15.2834ZM162.936 31.0454H181.695L183.841 28.2334C183.841 28.2334 186.283 30.1574 187.726 31.5264C187.615 31.9334 187.245 32.1184 186.727 32.1184H163.232L162.936 31.0454ZM173.259 15.2834H176.811V45.5494C176.774 45.8084 175.664 46.5854 173.888 46.5854H173.259V15.2834ZM166.414 18.5764C174.295 24.6074 170.965 31.4154 167.968 28.2704C168.005 25.1994 166.932 21.4624 165.933 18.7244L166.414 18.5764ZM181.066 18.3914L186.024 19.9824C185.839 20.3894 185.395 20.7224 184.618 20.7224C182.99 23.8304 180.881 27.0864 178.846 29.2694L178.291 29.0104C179.216 26.2724 180.326 22.0544 181.066 18.3914ZM152.761 23.1274H161.345L163.084 20.3894C163.084 20.3894 165.045 22.3134 166.118 23.6084C166.044 24.0154 165.674 24.2004 165.193 24.2004H153.057L152.761 23.1274ZM157.238 13.3594L162.048 13.8404C161.974 14.3584 161.678 14.7284 160.716 14.8394V36.7434L157.238 37.8164V13.3594ZM152.317 38.0384C154.574 37.4464 160.272 35.5964 165.896 33.5984L166.081 34.0424C163.639 35.7444 160.05 38.1864 155.092 41.1834C154.981 41.6644 154.685 42.0714 154.278 42.2194L152.317 38.0384ZM200.081 43.2184V40.7394C202.449 38.0384 204.743 35.3374 206.556 33.2284C210.552 28.6034 212.217 26.0504 212.217 22.4984C212.217 18.7614 210.367 16.6524 207.222 16.6524C206.001 16.6524 204.743 16.9484 203.374 17.7254L205.002 16.7264L204.114 20.5004C203.744 22.3504 202.893 22.8684 201.931 22.8684C201.08 22.8684 200.377 22.3504 200.081 21.5364C200.525 17.5404 204.373 15.4684 208.554 15.4684C213.882 15.4684 216.472 18.2804 216.472 22.6834C216.472 26.3094 213.771 29.0844 207.666 34.7084C206.445 35.8554 204.151 38.1864 201.857 40.5174L202.227 39.2594V39.8884H217.434V43.2184H200.081ZM230.869 28.4554C232.238 29.6764 233.311 30.3054 234.643 30.3054C236.234 30.3054 237.307 29.2694 237.603 26.2354L239.268 26.4574C239.083 30.2684 237.159 32.0444 234.421 32.0444C232.571 32.0444 231.387 31.3414 229.685 29.8244C228.131 28.4924 227.28 27.9744 226.022 27.9744C224.32 27.9744 223.21 29.0844 222.914 32.0814L221.249 31.8594C221.397 28.0114 223.395 26.1984 226.133 26.1984C227.983 26.1984 229.241 27.0864 230.869 28.4554ZM251.026 43.8104C246.253 43.8104 243.404 41.7754 242.812 38.0754C243.108 37.1504 243.848 36.7064 244.662 36.7064C245.772 36.7064 246.438 37.2984 246.771 39.1114L247.659 42.7744L246.068 41.6274C247.252 42.2564 248.288 42.5894 249.768 42.5894C253.764 42.5894 256.021 40.2214 256.021 36.2254C256.021 32.0074 253.838 29.6764 249.657 29.6764H248.066V28.3444H249.472C252.95 28.3444 255.355 26.2354 255.355 22.1284C255.355 18.6134 253.579 16.6524 250.545 16.6524C249.287 16.6524 248.066 16.9114 246.623 17.5774L248.51 16.5784L247.622 20.0564C247.289 21.5734 246.475 22.0544 245.439 22.0544C244.699 22.0544 244.07 21.7214 243.774 21.0554C244.218 17.0964 247.733 15.4684 251.618 15.4684C256.761 15.4684 259.536 18.1324 259.536 21.9804C259.536 25.6064 256.983 28.5664 251.211 29.1954V28.7144C257.686 29.0474 260.35 31.9704 260.35 36.2624C260.35 40.7764 256.65 43.8104 251.026 43.8104ZM281.222 26.0874C288.881 26.5314 286.217 32.0814 283.183 30.1944C282.85 28.8624 281.74 27.2344 280.889 26.3094L281.222 26.0874ZM292.951 24.3854V25.4584H270.196V24.3854H292.951ZM295.208 15.5424C294.801 15.8754 294.061 15.8754 292.988 15.3944C286.957 16.0974 277.744 16.6154 270.011 16.5044L269.9 15.8754C277.263 15.1354 286.772 13.3964 291.767 11.9904L295.208 15.5424ZM267.532 15.6534V14.4694L271.602 16.0234H271.01V25.4954C271.01 31.9334 270.64 40.4804 264.202 46.2154L263.758 45.9194C267.236 39.8884 267.532 32.3404 267.532 25.4954V15.6534ZM292.47 19.0574V20.1304H269.9V19.0574H292.47ZM290.842 19.0574L292.507 17.2074L296.207 19.9824C295.985 20.2414 295.467 20.5374 294.764 20.6854V25.9024C294.727 26.1614 292.951 26.8644 291.767 26.8644H291.175V19.0574H290.842ZM281.74 31.0084C281.259 36.7804 280.001 42.4784 269.567 46.3264L269.16 45.7714C277.115 41.3314 277.559 36.0404 277.744 31.0084H281.74ZM289.732 35.3004L291.582 33.5614L294.986 36.3364C294.727 36.6324 294.283 36.8174 293.543 36.8914C293.136 41.2204 292.285 44.0324 290.657 45.0684C289.658 45.7344 288.289 46.1044 286.55 46.1044C286.55 45.1424 286.439 44.2544 285.847 43.7734C285.292 43.2554 283.997 42.8484 282.554 42.5894V42.0344C283.997 42.1824 286.513 42.3674 287.216 42.3674C287.845 42.3674 288.178 42.2934 288.474 42.0714C289.214 41.5164 289.806 38.9634 290.139 35.3004H289.732ZM291.545 35.3004V36.3734H279.335L279.742 35.3004H291.545ZM293.691 28.1224C293.691 28.1224 295.874 29.7874 297.243 31.0454C297.132 31.4524 296.762 31.6374 296.244 31.6374H272.49L272.194 30.5644H291.73L293.691 28.1224Z" fill="#39684F"/>
<path d="M17.8863 54.9835C17.8423 55.2255 17.6883 55.4015 17.2703 55.4455V60.7255C17.2703 60.8795 16.3243 61.2535 15.5763 61.2535H15.1803V54.7195L17.8863 54.9835ZM8.5363 55.0055C8.4923 55.2475 8.3603 55.4235 7.9203 55.4895V60.9015C7.9203 61.0555 6.9963 61.4295 6.2263 61.4295H5.8523V54.7635L8.5363 55.0055ZM15.5763 63.0575L17.0283 61.7815L19.2723 63.7395C19.0963 63.9595 18.8763 64.0035 18.3043 64.0255C15.7303 66.8855 11.4183 69.3715 6.9303 70.7135L6.7543 70.4275C10.1643 68.6455 14.0143 65.6975 15.8403 63.0575H15.5763ZM17.4023 63.0575V63.6955H4.0043L3.8063 63.0575H17.4023ZM6.8643 70.1855C7.2603 70.1855 7.4143 70.2515 7.7003 70.4715C9.3503 71.9675 11.7043 72.3415 15.7743 72.3415C18.0183 72.3415 19.9103 72.3195 22.1763 72.2095V72.4735C21.2743 72.6495 20.7903 73.5075 20.6803 74.4535C19.1623 74.4535 16.9623 74.4535 15.0703 74.4535C10.9783 74.4535 9.1523 73.5075 7.3923 71.2195C7.0843 70.8235 6.8643 70.8895 6.6223 71.2195C6.1823 71.8795 5.1923 73.2435 4.5323 74.3435C4.5983 74.5415 4.5103 74.6955 4.3343 74.8055L2.7063 72.4075C4.1583 71.6815 6.3583 70.1855 6.8643 70.1855ZM9.6143 59.6695C14.7183 60.5495 12.8483 64.3335 10.9563 62.9255C10.8463 61.8255 10.1203 60.5495 9.3943 59.8235L9.6143 59.6695ZM19.9763 56.1935C19.9763 56.1935 21.3183 57.2935 22.1103 58.0635C22.0443 58.3055 21.8243 58.4155 21.5163 58.4155H12.6063L12.4303 57.7775H18.7883L19.9763 56.1935ZM9.9003 56.2375C9.9003 56.2375 11.1983 57.3155 11.9683 58.0635C11.9023 58.3055 11.6823 58.4155 11.3743 58.4155H1.7603L1.5843 57.7775H8.7783L9.9003 56.2375ZM27.3683 60.4175L27.9183 60.7475V73.0015H28.0723L27.3023 74.0355L24.9043 72.7595C25.1903 72.4515 25.7403 72.0775 26.1143 71.9455L25.7183 72.7375V60.4175H27.3683ZM28.7323 60.0435C28.6883 60.3735 28.4683 60.5935 27.9183 60.6815V61.4295H25.7183V59.7355L28.7323 60.0435ZM43.9783 60.0215C43.9343 60.3295 43.7583 60.5495 43.1643 60.6375V74.4315C43.1643 74.6735 42.2183 75.1355 41.3823 75.1355H40.9643V59.7135L43.9783 60.0215ZM36.3003 55.4455C36.2563 55.7755 36.0803 55.9735 35.5083 56.0615V72.6935H33.2643V55.1595L36.3003 55.4455ZM42.0423 72.3635V73.0015H26.6643V72.3635H42.0423ZM65.1863 58.4815C65.1863 58.4815 66.5063 59.5375 67.2763 60.3075C67.2323 60.5495 67.0123 60.6595 66.7043 60.6595H60.7863V60.0215H64.0203L65.1863 58.4815ZM56.0783 64.3335L58.3443 65.2135H63.4703L64.4823 64.0255L66.5283 65.6095C66.3743 65.7855 66.1543 65.9175 65.6703 66.0055V74.3875C65.6703 74.4975 64.9443 74.9155 63.9323 74.9155H63.5583V65.8515H58.0803V74.5635C58.0803 74.7395 57.4643 75.1135 56.4303 75.1135H56.0783V64.3335ZM62.6783 54.9615C62.6343 55.2695 62.4363 55.4895 61.8643 55.5775V65.5435H59.8183V54.6975L62.6783 54.9615ZM64.1963 72.7375V73.3755H57.3323V72.7375H64.1963ZM49.5443 54.7415C54.6263 56.8755 52.5363 60.6595 50.6883 58.9875C50.5783 57.6235 49.8963 55.9955 49.3023 54.8515L49.5443 54.7415ZM55.7703 62.0675C55.6823 62.3315 55.4623 62.5295 54.9343 62.5295C54.2743 64.9275 53.0203 68.6455 51.8103 71.4835H51.4363C51.9863 68.4695 52.6023 64.2235 52.9323 61.2755L55.7703 62.0675ZM48.1363 61.5615C52.9763 66.7975 50.1603 71.0655 48.9503 69.0195C48.9723 67.2375 48.8183 64.0035 47.8283 61.6935L48.1363 61.5615ZM46.7943 71.5935C48.3123 71.3295 52.0083 70.4715 55.7263 69.5475L55.7923 69.8335C54.1643 70.6915 51.8103 71.9455 48.4663 73.4415C48.3783 73.7055 48.1803 73.9255 47.9383 73.9915L46.7943 71.5935ZM54.6703 58.1735C54.6703 58.1735 56.0123 59.3615 56.7383 60.1535C56.6723 60.3955 56.4743 60.5055 56.1663 60.5055H47.0143L46.8383 59.8675H53.5263L54.6703 58.1735ZM72.4463 66.8855C71.5223 66.8855 70.8403 66.1595 70.8403 65.2795C70.8403 64.3995 71.5223 63.6735 72.4463 63.6735C73.3703 63.6735 74.0523 64.3995 74.0523 65.2795C74.0523 66.1595 73.3703 66.8855 72.4463 66.8855ZM82.743 73.6615C80.939 73.6615 79.091 73.1335 77.925 72.3855L78.057 68.8875H79.113L80.037 72.8255L78.827 72.2975L78.651 71.5275C80.081 72.5395 81.005 72.8035 82.523 72.8035C84.833 72.8035 86.263 71.7475 86.263 69.7895C86.263 68.2275 85.559 67.4135 83.403 66.4895L82.413 66.0715C79.663 64.8835 78.233 63.4755 78.233 61.0775C78.233 58.2395 80.565 56.6995 83.689 56.6995C85.383 56.6995 86.725 57.1615 87.847 57.9315L87.715 61.2315H86.637L85.757 57.4695L87.011 58.0415L87.143 58.8335C85.955 57.8875 85.185 57.5575 83.931 57.5575C81.929 57.5575 80.521 58.5255 80.521 60.3515C80.521 61.9575 81.489 62.8375 83.161 63.5415L84.217 64.0035C87.539 65.4335 88.639 66.6875 88.639 69.0195C88.639 71.8355 86.395 73.6615 82.743 73.6615ZM98.8891 73.6615C94.9071 73.6615 91.4751 70.6475 91.4751 65.1915C91.4751 59.8015 94.9071 56.6995 98.8891 56.6995C102.893 56.6995 106.325 59.7355 106.325 65.1915C106.325 70.6035 102.893 73.6615 98.8891 73.6615ZM98.8891 72.8695C101.991 72.8695 103.531 69.4815 103.531 65.1915C103.531 60.9235 101.991 57.5135 98.8891 57.5135C95.8091 57.5135 94.2471 60.9235 94.2471 65.1915C94.2471 69.4815 95.8091 72.8695 98.8891 72.8695ZM117.875 73.6615C112.903 73.6615 109.559 70.3395 109.559 65.1475C109.559 60.0435 112.991 56.6995 117.985 56.6995C119.921 56.6995 121.373 57.1615 122.737 57.9535V61.6495H121.593L120.625 57.5135L122.033 58.0415V58.8995C120.779 57.9095 119.767 57.5135 118.293 57.5135C114.861 57.5135 112.331 60.1975 112.331 65.1915C112.331 69.9435 114.751 72.8695 118.161 72.8695C119.393 72.8695 120.427 72.6055 121.527 72.0555L120.581 72.7155V71.0655C120.581 69.1735 120.559 67.3695 120.493 65.4555H123.155C123.111 67.2155 123.067 68.9975 123.067 71.1315V72.2315C121.373 73.2435 119.855 73.6615 117.875 73.6615ZM118.029 66.1375V65.4555H124.629V66.1375L122.099 66.4455H121.109L118.029 66.1375ZM134.369 73.6615C130.387 73.6615 126.955 70.6475 126.955 65.1915C126.955 59.8015 130.387 56.6995 134.369 56.6995C138.373 56.6995 141.805 59.7355 141.805 65.1915C141.805 70.6035 138.373 73.6615 134.369 73.6615ZM134.369 72.8695C137.471 72.8695 139.011 69.4815 139.011 65.1915C139.011 60.9235 137.471 57.5135 134.369 57.5135C131.289 57.5135 129.727 60.9235 129.727 65.1915C129.727 69.4815 131.289 72.8695 134.369 72.8695ZM153.011 62.7055C157.719 63.3435 155.761 66.7095 153.957 65.3455C153.869 64.4655 153.297 63.4315 152.813 62.8375L153.011 62.7055ZM152.769 54.6975C157.697 54.9615 156.025 58.7015 154.111 57.4475C153.979 56.5235 153.253 55.4235 152.571 54.8515L152.769 54.6975ZM146.895 60.9235C147.445 62.8155 147.071 64.2015 146.367 64.7955C145.883 65.1915 144.871 65.1475 144.585 64.4655C144.365 63.8495 144.695 63.2775 145.267 62.9475C145.817 62.5955 146.543 61.6715 146.543 60.9015L146.895 60.9235ZM153.693 66.0275C153.363 69.5695 152.483 72.9135 145.003 75.1575L144.783 74.8275C150.723 72.2095 151.075 69.0855 151.207 66.0275H153.693ZM158.335 68.4695L159.435 67.3915L161.481 69.0855C161.349 69.2615 161.063 69.3715 160.623 69.4375C160.447 72.3635 159.985 74.0575 159.061 74.7175C158.467 75.1135 157.697 75.3115 156.597 75.3115C156.597 74.7395 156.509 74.2335 156.157 73.9035C155.827 73.5955 155.035 73.3315 154.177 73.1775V72.8695C155.057 72.9355 156.553 73.0455 156.971 73.0455C157.323 73.0455 157.499 73.0015 157.675 72.8915C158.093 72.5395 158.401 70.9555 158.555 68.4695H158.335ZM149.843 58.5035C154.441 59.5595 152.483 62.8595 150.745 61.4295C150.679 60.4615 150.129 59.3175 149.623 58.6355L149.843 58.5035ZM160.425 59.3395C160.315 59.5815 160.051 59.7575 159.589 59.6915C158.885 60.4395 157.785 61.4295 156.751 62.1775H156.399C156.795 61.1215 157.213 59.4935 157.433 58.3935L160.425 59.3395ZM161.415 61.8695L162.603 60.7255L164.627 62.6835C164.451 62.8375 164.209 62.8815 163.769 62.9035C162.977 63.4095 161.613 64.2455 160.755 64.6635L160.513 64.5315C160.843 63.8495 161.393 62.5515 161.657 61.8695H161.415ZM159.391 68.4695V69.1075H152.131L152.461 68.4695H159.391ZM161.789 56.1055C161.789 56.1055 163.241 57.2275 164.099 58.0195C164.055 58.2615 163.835 58.3715 163.505 58.3715H145.399L145.223 57.7335H160.513L161.789 56.1055ZM161.833 64.3115C161.833 64.3115 163.153 65.3015 163.967 66.0275C163.901 66.2695 163.681 66.3795 163.373 66.3795H145.377L145.201 65.7415H160.667L161.833 64.3115ZM162.735 61.8695V62.5075H146.411V61.8695H162.735ZM179.927 73.7135C176.315 73.7135 174.159 72.1735 173.711 69.3735C173.935 68.6735 174.495 68.3375 175.111 68.3375C175.951 68.3375 176.455 68.7855 176.707 70.1575L177.379 72.9295L176.175 72.0615C177.071 72.5375 177.855 72.7895 178.975 72.7895C181.999 72.7895 183.707 70.9975 183.707 67.9735C183.707 64.7815 182.055 63.0175 178.891 63.0175H177.687V62.0095H178.751C181.383 62.0095 183.203 60.4135 183.203 57.3055C183.203 54.6455 181.859 53.1615 179.563 53.1615C178.611 53.1615 177.687 53.3575 176.595 53.8615L178.023 53.1055L177.351 55.7375C177.099 56.8855 176.483 57.2495 175.699 57.2495C175.139 57.2495 174.663 56.9975 174.439 56.4935C174.775 53.4975 177.435 52.2655 180.375 52.2655C184.267 52.2655 186.367 54.2815 186.367 57.1935C186.367 59.9375 184.435 62.1775 180.067 62.6535V62.2895C184.967 62.5415 186.983 64.7535 186.983 68.0015C186.983 71.4175 184.183 73.7135 179.927 73.7135ZM197.691 66.7535C196.217 69.1735 193.555 72.0775 190.431 73.7495L190.211 73.5295C192.609 71.3735 194.875 67.5895 195.689 65.1475L198.637 66.3135C198.549 66.5775 198.307 66.7535 197.691 66.7535ZM202.905 65.5215C211.661 69.0195 210.407 74.2335 207.877 72.6055C206.997 70.3835 204.533 67.5455 202.663 65.6975L202.905 65.5215ZM209.307 57.2275C209.175 57.4475 208.867 57.6235 208.383 57.5355C206.887 59.3615 205.017 60.9895 203.235 62.0015L202.993 61.7815C204.093 60.3955 205.479 58.0415 206.425 55.7975L209.307 57.2275ZM192.477 56.1935C199.341 58.7895 197.911 63.2555 195.755 61.7595C195.205 59.9995 193.511 57.7995 192.235 56.3475L192.477 56.1935ZM202.377 55.0275C202.311 55.3355 202.157 55.5335 201.563 55.6215V74.4095C201.563 74.6515 200.617 75.1575 199.759 75.1575H199.297V54.6975L202.377 55.0275ZM208.031 61.4075C208.031 61.4075 209.615 62.6615 210.583 63.5195C210.517 63.7615 210.297 63.8715 209.967 63.8715H190.805L190.607 63.2335H206.623L208.031 61.4075ZM220.539 73.7135C216.227 73.7135 213.539 70.5495 213.539 65.3975C213.539 58.7615 218.523 53.0775 226.195 52.2655L226.335 52.9095C220.035 54.2815 216.787 59.0135 216.787 64.8935C216.787 70.1295 218.243 72.7895 220.567 72.7895C222.471 72.7895 223.955 70.9695 223.955 67.2455C223.955 63.8855 222.667 62.0935 220.455 62.0935C219.027 62.0935 217.739 62.6255 216.451 64.0815L215.919 63.7175H216.143C217.515 61.7575 219.363 60.7775 221.603 60.7775C225.075 60.7775 227.091 63.2975 227.091 66.9935C227.091 70.8575 224.431 73.7135 220.539 73.7135ZM244.732 56.2155L245.744 55.1595L247.636 56.7435C247.504 56.8975 247.218 56.9855 246.822 57.0515V61.0995C246.822 61.3195 246.888 61.4295 247.196 61.4295H247.9C248.164 61.4295 248.428 61.4075 248.582 61.4075C248.692 61.4075 248.868 61.3855 248.978 61.3855C249.11 61.3635 249.286 61.3415 249.418 61.2975H249.616L249.704 61.3195C250.21 61.5395 250.386 61.7155 250.386 62.0895C250.386 62.8375 249.726 63.2335 247.658 63.2335H246.602C245.15 63.2335 244.952 62.8155 244.952 61.6055V56.2155H244.732ZM245.986 56.2155V56.8535H241.344V56.2155H245.986ZM240.2 55.9955V55.3355L242.444 56.2155H242.114V57.9755C242.114 59.8455 241.74 62.7495 238.11 64.4655L237.912 64.2015C239.958 62.3095 240.2 59.9555 240.2 57.9755V55.9955ZM240.354 64.8835C241.762 69.5695 245.524 71.8575 250.408 72.8695L250.364 73.1335C249.506 73.2875 248.89 73.9255 248.604 74.8935C243.984 73.2435 241.212 70.5155 240.002 65.0595L240.354 64.8835ZM245.964 64.8175L247.196 63.6515L249.154 65.4555C249 65.6755 248.758 65.7415 248.23 65.7635C246.382 70.2515 242.818 73.5515 236.504 75.0915L236.35 74.7835C241.586 72.8255 244.886 69.2835 246.228 64.8175H245.964ZM247.218 64.8175V65.4555H238.946L238.748 64.8175H247.218ZM232.456 54.9395C237.582 55.6215 235.844 59.4055 233.886 58.0855C233.71 57.0295 232.94 55.7975 232.258 55.0715L232.456 54.9395ZM236.724 72.3415V72.9795H232.236V72.3415H236.724ZM235.8 67.4795L236.746 66.4675L238.748 68.0075C238.616 68.1835 238.308 68.3375 237.89 68.4255V73.6175C237.868 73.7715 236.966 74.1895 236.328 74.1895H236.02V67.4795H235.8ZM233.05 74.3655C233.05 74.5635 232.258 74.9815 231.466 74.9815H231.18V66.6655L233.138 67.4795H236.702V68.1175H233.05V74.3655ZM237.67 57.3595C237.67 57.3595 238.858 58.2835 239.584 58.9655C239.518 59.2075 239.298 59.3175 238.99 59.3175H230.278L230.102 58.6795H236.614L237.67 57.3595ZM236.702 63.3215C236.702 63.3215 237.824 64.2015 238.506 64.8615C238.44 65.1035 238.242 65.2135 237.934 65.2135H231.07L230.894 64.5755H235.734L236.702 63.3215ZM236.702 60.3955C236.702 60.3955 237.824 61.2535 238.506 61.9135C238.44 62.1555 238.242 62.2655 237.934 62.2655H231.07L230.894 61.6275H235.734L236.702 60.3955ZM270.868 61.0775C270.868 61.0775 272.21 62.1335 273.002 62.9035C272.936 63.1455 272.716 63.2555 272.408 63.2555H262.64L262.464 62.6175H269.702L270.868 61.0775ZM269.042 55.0715C268.998 55.3795 268.822 55.5995 268.25 55.6875V74.2995C268.25 74.5635 267.37 75.0695 266.578 75.0695H266.182V54.7855L269.042 55.0715ZM255.908 54.8075C261.1 55.5335 259.274 59.5155 257.272 58.1075C257.14 56.9855 256.414 55.6875 255.71 54.9395L255.908 54.8075ZM260.44 72.2535V72.8915H255.226V72.2535H260.44ZM259.56 67.4135L260.528 66.3355L262.596 67.9415C262.464 68.0955 262.134 68.2715 261.694 68.3595V73.4855C261.672 73.6395 260.726 74.0575 260.088 74.0575H259.78V67.4135H259.56ZM255.908 74.1895C255.908 74.3875 255.094 74.8055 254.28 74.8055H254.016V66.5555L256.018 67.4135H260.374V68.0515H255.908V74.1895ZM261.562 57.2275C261.562 57.2275 262.86 58.2395 263.652 58.9655C263.586 59.2075 263.366 59.3175 263.058 59.3175H252.938L252.762 58.6795H260.418L261.562 57.2275ZM260.572 63.0355C260.572 63.0355 261.826 64.0035 262.574 64.7075C262.508 64.9495 262.288 65.0595 262.002 65.0595H253.906L253.73 64.4215H259.494L260.572 63.0355ZM260.572 60.1755C260.572 60.1755 261.826 61.1215 262.574 61.8475C262.508 62.0895 262.288 62.1995 262.002 62.1995H253.906L253.73 61.5615H259.494L260.572 60.1755ZM281.648 74.5195C281.648 74.6515 281.032 75.1135 280.02 75.1135H279.668V66.6875H281.648V74.5195ZM291.812 61.5615C291.746 61.8475 291.482 62.0675 290.954 62.0455C290.668 66.9295 290.272 71.5935 284.376 75.1795L284.09 74.8275C288.622 70.8455 288.996 66.1815 289.084 60.9235L291.812 61.5615ZM290.91 61.7155C291.218 66.8635 292.34 70.5815 295.97 72.7815L295.926 73.0455C294.936 73.2875 294.342 73.9255 294.144 75.1575C291.372 72.6715 290.734 67.4575 290.536 61.7815L290.91 61.7155ZM290.888 55.3355C290.822 55.5995 290.558 55.7975 290.074 55.8195C289.172 59.3615 287.786 62.4415 285.806 64.5095L285.498 64.3115C286.664 61.8255 287.632 58.1735 288.006 54.6095L290.888 55.3355ZM293.132 58.6795L294.232 57.6015L296.146 59.4495C295.97 59.6035 295.728 59.6695 295.288 59.6915C294.628 60.8795 293.374 62.6835 292.428 63.7835L292.142 63.6295C292.604 62.2655 293.176 59.9555 293.396 58.6795H293.132ZM294.364 58.6795V59.3175H287.83L288.028 58.6795H294.364ZM279.536 68.9095C279.47 69.1735 279.206 69.3715 278.722 69.3715C277.952 71.3515 276.786 73.0015 275.422 74.0355L275.114 73.8595C275.928 72.4295 276.61 70.3175 276.918 68.2055L279.536 68.9095ZM282.418 54.9175C282.396 55.2255 282.198 55.4235 281.626 55.5115V60.8355H279.624V54.6535L282.418 54.9175ZM284.486 65.0595C284.486 65.0595 285.784 66.0715 286.598 66.7975C286.532 67.0395 286.312 67.1495 286.004 67.1495H275.51L275.334 66.5115H283.342L284.486 65.0595ZM283.188 62.0675C283.188 62.0675 284.42 63.0135 285.168 63.7175C285.124 63.9595 284.904 64.0695 284.618 64.0695H276.522L276.346 63.4315H282.088L283.188 62.0675ZM283.782 59.2515C283.782 59.2515 284.97 60.1755 285.718 60.8575C285.652 61.0995 285.432 61.2095 285.124 61.2095H276.214L276.038 60.5715H282.726L283.782 59.2515ZM284.354 55.9295C284.354 55.9295 285.608 56.9195 286.4 57.6455C286.334 57.8875 286.114 57.9975 285.806 57.9975H275.554L275.378 57.3595H283.232L284.354 55.9295ZM282.506 68.3595C287.478 69.9435 285.674 73.5735 283.914 72.0995C283.848 70.8675 283.034 69.4155 282.264 68.5135L282.506 68.3595Z" fill="#39684F"/>
<path d="M5.684 117.472V114.524C8.5 111.312 11.228 108.1 13.384 105.592C18.136 100.092 20.116 97.0564 20.116 92.8324C20.116 88.3884 17.916 85.8804 14.176 85.8804C12.724 85.8804 11.228 86.2324 9.6 87.1564L11.536 85.9684L10.48 90.4564C10.04 92.6564 9.028 93.2724 7.884 93.2724C6.872 93.2724 6.036 92.6564 5.684 91.6884C6.212 86.9364 10.788 84.4724 15.76 84.4724C22.096 84.4724 25.176 87.8164 25.176 93.0524C25.176 97.3644 21.964 100.664 14.704 107.352C13.252 108.716 10.524 111.488 7.796 114.26L8.236 112.764V113.512H26.32V117.472H5.684ZM40.8005 118.176C34.2445 118.176 30.9005 115.008 30.9005 110.52C30.9005 106.472 33.7165 103.7 39.0845 101.72V101.456L39.8765 102.072C36.4445 104.404 35.0805 106.604 35.0805 109.948C35.0805 114.348 37.3245 116.724 41.1085 116.724C44.8925 116.724 47.0045 114.524 47.0045 111.004C47.0045 107.748 45.2005 105.108 39.1285 102.468C34.0245 100.268 31.7365 96.9244 31.7365 92.7884C31.7365 87.6844 35.9165 84.4724 41.3285 84.4724C47.2245 84.4724 50.3045 87.7284 50.3045 91.9084C50.3045 95.0324 48.3245 98.0244 42.8245 100.224V100.4L42.1645 99.9164C45.1125 97.5844 46.3005 95.2084 46.3005 91.7764C46.3005 88.4764 44.4965 85.9244 41.2405 85.9244C38.4685 85.9244 36.0045 87.9484 36.0045 91.2924C36.0045 94.2404 37.3685 96.9684 43.0445 99.4324C49.0285 102.072 51.5365 105.108 51.5365 109.42C51.5365 114.7 47.5325 118.176 40.8005 118.176ZM65.6649 118.176C59.9889 118.176 56.6009 115.756 55.8969 111.356C56.2489 110.256 57.1289 109.728 58.0969 109.728C59.4169 109.728 60.2089 110.432 60.6049 112.588L61.6609 116.944L59.7689 115.58C61.1769 116.328 62.4089 116.724 64.1689 116.724C68.9209 116.724 71.6049 113.908 71.6049 109.156C71.6049 104.14 69.0089 101.368 64.0369 101.368H62.1449V99.7844H63.8169C67.9529 99.7844 70.8129 97.2764 70.8129 92.3924C70.8129 88.2124 68.7009 85.8804 65.0929 85.8804C63.5969 85.8804 62.1449 86.1884 60.4289 86.9804L62.6729 85.7924L61.6169 89.9284C61.2209 91.7324 60.2529 92.3044 59.0209 92.3044C58.1409 92.3044 57.3929 91.9084 57.0409 91.1164C57.5689 86.4084 61.7489 84.4724 66.3689 84.4724C72.4849 84.4724 75.7849 87.6404 75.7849 92.2164C75.7849 96.5284 72.7489 100.048 65.8849 100.796V100.224C73.5849 100.62 76.7529 104.096 76.7529 109.2C76.7529 114.568 72.3529 118.176 65.6649 118.176ZM91.1024 118.176C85.4264 118.176 82.0384 115.756 81.3344 111.356C81.6864 110.256 82.5664 109.728 83.5344 109.728C84.8544 109.728 85.6464 110.432 86.0424 112.588L87.0984 116.944L85.2064 115.58C86.6144 116.328 87.8464 116.724 89.6064 116.724C94.3584 116.724 97.0424 113.908 97.0424 109.156C97.0424 104.14 94.4464 101.368 89.4744 101.368H87.5824V99.7844H89.2544C93.3904 99.7844 96.2504 97.2764 96.2504 92.3924C96.2504 88.2124 94.1384 85.8804 90.5304 85.8804C89.0344 85.8804 87.5824 86.1884 85.8664 86.9804L88.1104 85.7924L87.0544 89.9284C86.6584 91.7324 85.6904 92.3044 84.4584 92.3044C83.5784 92.3044 82.8304 91.9084 82.4784 91.1164C83.0064 86.4084 87.1864 84.4724 91.8064 84.4724C97.9224 84.4724 101.222 87.6404 101.222 92.2164C101.222 96.5284 98.1864 100.048 91.3224 100.796V100.224C99.0224 100.62 102.19 104.096 102.19 109.2C102.19 114.568 97.7904 118.176 91.1024 118.176ZM106.772 106.692V104.096H118.696V106.692H106.772ZM133.804 118.176C127.028 118.176 122.804 113.204 122.804 105.108C122.804 94.6804 130.636 85.7484 142.692 84.4724L142.912 85.4844C133.012 87.6404 127.908 95.0764 127.908 104.316C127.908 112.544 130.196 116.724 133.848 116.724C136.84 116.724 139.172 113.864 139.172 108.012C139.172 102.732 137.148 99.9164 133.672 99.9164C131.428 99.9164 129.404 100.752 127.38 103.04L126.544 102.468H126.896C129.052 99.3884 131.956 97.8484 135.476 97.8484C140.932 97.8484 144.1 101.808 144.1 107.616C144.1 113.688 139.92 118.176 133.804 118.176ZM159.285 118.176C152.509 118.176 148.285 113.204 148.285 105.108C148.285 94.6804 156.117 85.7484 168.173 84.4724L168.393 85.4844C158.493 87.6404 153.389 95.0764 153.389 104.316C153.389 112.544 155.677 116.724 159.329 116.724C162.321 116.724 164.653 113.864 164.653 108.012C164.653 102.732 162.629 99.9164 159.153 99.9164C156.909 99.9164 154.885 100.752 152.861 103.04L152.025 102.468H152.377C154.533 99.3884 157.437 97.8484 160.957 97.8484C166.413 97.8484 169.581 101.808 169.581 107.616C169.581 113.688 165.401 118.176 159.285 118.176ZM183.929 118.176C177.373 118.176 174.029 115.008 174.029 110.52C174.029 106.472 176.845 103.7 182.213 101.72V101.456L183.005 102.072C179.573 104.404 178.209 106.604 178.209 109.948C178.209 114.348 180.453 116.724 184.237 116.724C188.021 116.724 190.133 114.524 190.133 111.004C190.133 107.748 188.329 105.108 182.257 102.468C177.153 100.268 174.865 96.9244 174.865 92.7884C174.865 87.6844 179.045 84.4724 184.457 84.4724C190.353 84.4724 193.433 87.7284 193.433 91.9084C193.433 95.0324 191.453 98.0244 185.953 100.224V100.4L185.293 99.9164C188.241 97.5844 189.429 95.2084 189.429 91.7764C189.429 88.4764 187.625 85.9244 184.369 85.9244C181.597 85.9244 179.133 87.9484 179.133 91.2924C179.133 94.2404 180.497 96.9684 186.173 99.4324C192.157 102.072 194.665 105.108 194.665 109.42C194.665 114.7 190.661 118.176 183.929 118.176ZM209.41 118.176C202.854 118.176 199.51 115.008 199.51 110.52C199.51 106.472 202.326 103.7 207.694 101.72V101.456L208.486 102.072C205.054 104.404 203.69 106.604 203.69 109.948C203.69 114.348 205.934 116.724 209.718 116.724C213.502 116.724 215.614 114.524 215.614 111.004C215.614 107.748 213.81 105.108 207.738 102.468C202.634 100.268 200.346 96.9244 200.346 92.7884C200.346 87.6844 204.526 84.4724 209.938 84.4724C215.834 84.4724 218.914 87.7284 218.914 91.9084C218.914 95.0324 216.934 98.0244 211.434 100.224V100.4L210.774 99.9164C213.722 97.5844 214.91 95.2084 214.91 91.7764C214.91 88.4764 213.106 85.9244 209.85 85.9244C207.078 85.9244 204.614 87.9484 204.614 91.2924C204.614 94.2404 205.978 96.9684 211.654 99.4324C217.638 102.072 220.146 105.108 220.146 109.42C220.146 114.7 216.142 118.176 209.41 118.176Z" fill="#39684F"/>
</svg>
