<svg width="716" height="313" viewBox="0 0 716 313" fill="none" xmlns="http://www.w3.org/2000/svg">
<path d="M591.85 282.01C591.69 282.01 591.56 281.95 591.46 281.83C591.36 281.71 591.31 281.57 591.31 281.41C591.39 280.45 591.46 279.14 591.52 277.48V275.2C591.4 275.26 591.22 275.36 590.98 275.5C588.94 276.54 587.25 277.38 585.91 278.02C585.79 278.4 585.55 278.64 585.19 278.74L584.38 275.86C584.66 275.82 585.28 275.72 586.24 275.56C586.3 275.54 586.35 275.53 586.39 275.53V257.39H585.82C585.56 257.41 585.3 257.55 585.04 257.81L584.29 256.28C585.39 256.4 586.72 256.48 588.28 256.52H592.12L592.75 255.62C592.79 255.56 592.84 255.48 592.9 255.38C593.22 254.94 593.45 254.72 593.59 254.72C593.79 254.72 594.25 255.03 594.98 255.66C595.71 256.29 596.07 256.71 596.07 256.93C596.01 257.23 595.75 257.38 595.29 257.38H593.58V274.11C593.62 276.59 593.7 278.94 593.82 281.16C593.38 281.72 592.72 282 591.84 282L591.85 282.01ZM588.4 262.34H591.52V257.39H588.4V262.34ZM588.4 268.52H591.52V263.21H588.4V268.52ZM588.4 275.12C588.98 275.02 589.88 274.83 591.1 274.55C591.28 274.51 591.42 274.48 591.52 274.46V269.39H588.4V275.12ZM595 268.43L593.95 265.97C594.57 265.97 595.45 265.94 596.59 265.88C596.99 265.14 597.35 264.44 597.67 263.78C598.75 261.66 599.51 259.75 599.95 258.05C601.31 258.65 602.15 259.09 602.47 259.37C602.73 259.59 602.7 259.75 602.38 259.85L601.84 260C600.64 261.78 599.18 263.73 597.46 265.85C598.04 265.81 598.99 265.75 600.31 265.67C600.07 264.89 599.76 264.2 599.38 263.6L599.74 263.42C600.8 263.96 601.57 264.59 602.05 265.31C602.45 265.91 602.62 266.49 602.56 267.05C602.48 267.57 602.25 267.91 601.85 268.07C601.46 268.23 601.07 268.12 600.67 267.74C600.67 267.3 600.61 266.84 600.49 266.36C600.25 266.44 599.85 266.57 599.29 266.75C597.83 267.19 596.64 267.55 595.72 267.83C595.54 268.21 595.3 268.41 595 268.43ZM597.79 262.7C597.41 262.94 596.99 262.88 596.53 262.52C596.43 261.94 596.16 261.29 595.72 260.57C595.34 259.95 594.91 259.39 594.43 258.89L594.7 258.65C595.48 258.87 596.11 259.13 596.59 259.43C597.33 257.53 597.75 255.86 597.85 254.42C599.27 254.98 600.16 255.4 600.52 255.68C600.78 255.88 600.76 256.03 600.46 256.13L599.95 256.31C599.15 257.51 598.24 258.69 597.22 259.85C597.86 260.37 598.21 260.93 598.27 261.53C598.33 262.07 598.17 262.46 597.79 262.7ZM594.91 282.04L594.64 281.65C596.24 280.99 597.44 280.16 598.24 279.16C598.92 278.32 599.34 277.29 599.5 276.07H597.19V277.57C597.19 277.69 597.02 277.82 596.69 277.96C596.36 278.1 596.03 278.17 595.72 278.17C595.41 278.17 595.24 277.97 595.24 277.57C595.28 277.19 595.32 276.67 595.36 276.01C595.38 275.71 595.39 275.46 595.39 275.26V273.79C595.39 271.99 595.3 270.48 595.12 269.26C596.54 269.68 597.42 270.01 597.76 270.25C598.02 270.43 598 270.61 597.7 270.79L597.19 271.09V275.2H599.59V271.87C599.59 270.73 599.53 269.74 599.41 268.9C600.81 269.32 601.67 269.65 601.99 269.89C602.25 270.07 602.24 270.25 601.96 270.43L601.51 270.73V274.69C601.49 276.43 601.06 277.84 600.22 278.92C599.18 280.24 597.41 281.28 594.91 282.04ZM605.61 262.54C605.21 262.79 604.78 262.73 604.32 262.38C604.22 261.78 603.96 261.12 603.54 260.4C603.14 259.74 602.7 259.18 602.22 258.72L602.52 258.48C603.2 258.68 603.79 258.92 604.29 259.2C605.01 257.46 605.43 255.86 605.55 254.4C606.99 255 607.89 255.44 608.25 255.72C608.51 255.94 608.49 256.1 608.19 256.2L607.68 256.35C606.92 257.41 606.01 258.5 604.95 259.62C605.63 260.14 606.01 260.72 606.09 261.36C606.17 261.9 606.01 262.29 605.61 262.54ZM610.62 268.36C610.22 268.55 609.81 268.43 609.39 268.02C609.39 267.46 609.3 266.9 609.12 266.34C607.54 266.86 606.03 267.33 604.59 267.75C604.43 268.09 604.2 268.3 603.9 268.38L602.76 265.89C603.46 265.89 604.05 265.89 604.53 265.86C604.67 265.58 604.9 265.15 605.22 264.57C605.36 264.27 605.47 264.05 605.55 263.91C606.63 261.79 607.39 259.88 607.83 258.18C609.23 258.82 610.1 259.29 610.44 259.59C610.68 259.81 610.64 259.96 610.32 260.04L609.75 260.16C608.65 261.82 607.21 263.71 605.43 265.83C606.05 265.81 607.08 265.77 608.52 265.71C608.7 265.69 608.84 265.68 608.94 265.68C608.58 264.74 608.2 263.98 607.8 263.4L608.13 263.22C609.31 263.82 610.17 264.52 610.71 265.32C611.17 265.98 611.37 266.62 611.31 267.24C611.25 267.8 611.02 268.17 610.62 268.36ZM604.05 281.99C603.65 281.99 603.45 281.79 603.45 281.39C603.53 280.41 603.6 279.07 603.66 277.37V275.03C603.66 272.51 603.53 270.46 603.27 268.88C604.83 269.3 605.8 269.63 606.18 269.87C606.44 270.05 606.42 270.23 606.12 270.41L605.58 270.74V275.21H608.22C608.22 272.81 608.1 270.82 607.86 269.24C609.32 269.66 610.23 269.99 610.59 270.23C610.85 270.39 610.84 270.57 610.56 270.77L610.08 271.07V272.93C610.12 274.93 610.18 276.51 610.26 277.67C610.16 277.85 609.93 278.02 609.59 278.18C609.24 278.34 608.91 278.42 608.59 278.42C608.27 278.42 608.11 278.22 608.11 277.82C608.13 277.7 608.15 277.53 608.17 277.31C608.19 277.15 608.21 277.01 608.23 276.89V276.11H605.59V277.85C605.59 278.13 605.59 278.49 605.62 278.93C605.66 279.93 605.7 280.68 605.74 281.18C605.66 281.38 605.45 281.56 605.11 281.73C604.77 281.9 604.42 281.98 604.06 281.98L604.05 281.99Z" fill="black"/>
<path d="M620.69 280.78C620.53 280.78 620.39 280.72 620.26 280.6C620.13 280.48 620.07 280.34 620.07 280.18C620.07 280.06 620.07 279.88 620.1 279.64C620.24 277.48 620.33 275.32 620.37 273.16V269.32C619.57 270.74 618.7 272 617.76 273.1L617.34 272.71C619.48 269.03 620.95 264.09 621.75 257.87H620.43C619.69 257.89 618.93 258.03 618.15 258.29L617.37 256.79C618.47 256.91 619.8 256.99 621.36 257.03H625.5L626.94 255.11C627.66 255.71 628.37 256.31 629.07 256.91L629.04 256.76H640.22L640.88 255.83C640.94 255.75 641.02 255.64 641.12 255.5C641.42 255.08 641.63 254.87 641.75 254.87C641.95 254.87 642.42 255.2 643.17 255.86C643.92 256.52 644.29 256.96 644.29 257.18C644.23 257.48 643.99 257.63 643.57 257.63H637.45C636.73 258.95 636.02 260.12 635.32 261.14H639.88L640.36 260.45C640.36 260.45 640.46 260.34 640.54 260.24C640.78 259.92 640.96 259.76 641.08 259.76C641.28 259.76 641.71 260.03 642.38 260.55C643.05 261.08 643.38 261.45 643.38 261.67C643.16 261.93 642.77 262.11 642.21 262.21V268.09C642.25 270.57 642.33 272.92 642.45 275.14C642.29 275.34 642.04 275.52 641.7 275.68C641.28 275.88 640.83 275.98 640.35 275.98H639.96V274.9H632.55V275.95C632.55 276.07 632.39 276.2 632.07 276.34C631.67 276.52 631.22 276.61 630.72 276.61C630.56 276.61 630.42 276.55 630.3 276.43C630.18 276.31 630.12 276.17 630.12 276.01C630.26 274.07 630.35 271.93 630.39 269.59V266.08C630.39 263.56 630.26 261.51 630 259.93L632.85 261.13H634.29C634.57 259.77 634.76 258.6 634.86 257.62H629.46C629.3 257.78 629.09 257.86 628.83 257.86H624.12C623.74 260.5 623.09 263 622.17 265.36L622.74 265.6H625.5L626.01 264.85C626.05 264.79 626.11 264.7 626.19 264.58C626.45 264.24 626.64 264.07 626.76 264.07C626.96 264.07 627.41 264.38 628.11 265C628.81 265.62 629.16 266.04 629.16 266.26C629 266.52 628.6 266.72 627.96 266.86V270.94C628 273.42 628.08 275.77 628.2 277.99C628.06 278.17 627.77 278.35 627.33 278.53C626.89 278.71 626.5 278.8 626.16 278.8C625.84 278.8 625.68 278.6 625.68 278.2C625.7 278.1 625.72 277.97 625.74 277.81C625.76 277.69 625.78 277.59 625.8 277.51V276.85H622.41V277.93C622.43 278.17 622.44 278.46 622.44 278.8C622.48 279.3 622.51 279.67 622.53 279.91C622.45 280.11 622.26 280.3 621.96 280.48C621.58 280.68 621.15 280.78 620.67 280.78H620.69ZM622.43 275.98H625.82V266.45H622.43V275.98ZM626.48 282.01L626.27 281.56C627.15 281.14 628.07 280.61 629.03 279.97C629.85 279.41 630.69 278.69 631.55 277.81C632.41 276.93 633.05 276.13 633.47 275.41L634.91 276.67C636.05 277.35 636.29 277.71 635.63 277.75L635.12 277.78C634 278.78 632.6 279.68 630.92 280.48C629.42 281.18 627.94 281.69 626.48 282.01ZM632.57 265.37H639.98V262.01H632.57V265.37ZM632.57 269.6H639.98V266.21H632.57V269.6ZM632.57 274.04H639.98V270.47H632.57V274.04ZM643.89 281.61C643.54 282 643.05 282.03 642.41 281.71C641.99 280.85 641.26 279.92 640.22 278.92C639.24 277.98 638.24 277.2 637.22 276.58L637.49 276.25C639.41 276.57 640.96 277.11 642.14 277.87C643.12 278.51 643.76 279.22 644.06 280C644.3 280.68 644.24 281.21 643.89 281.6V281.61Z" fill="black"/>
<path d="M655.56 282.01C655.34 282.01 655.16 281.95 655.01 281.83C654.86 281.71 654.79 281.57 654.79 281.41C654.97 278.83 655.08 276.23 655.12 273.61V268.09C653.66 269.53 652.15 270.76 650.59 271.78L650.29 271.45C651.85 269.85 653.42 267.88 655 265.54C656.24 263.7 657.09 261.95 657.55 260.29C659.11 261.19 660.08 261.81 660.46 262.15C660.76 262.41 660.74 262.57 660.4 262.63L659.83 262.72C659.25 263.58 658.41 264.62 657.31 265.84L658.3 266.23C658.16 266.51 657.87 266.69 657.43 266.77V274.09C657.47 276.57 657.55 278.92 657.67 281.14C657.51 281.34 657.23 281.53 656.83 281.71C656.39 281.91 655.97 282.01 655.57 282.01H655.56ZM651.15 263.18L650.85 262.85C651.99 261.83 653.14 260.61 654.3 259.19C655.78 257.39 656.78 255.7 657.3 254.12L659.07 255.35C660.37 256.01 660.68 256.39 660 256.49L659.46 256.55C658.44 257.69 657.23 258.83 655.83 259.97C654.23 261.29 652.67 262.36 651.15 263.18ZM668.15 281.86C668.09 281.04 667.81 280.46 667.31 280.12C666.75 279.7 665.65 279.38 664.01 279.16V278.71C665.65 278.81 667.29 278.91 668.93 279.01C669.47 279.01 669.74 278.79 669.74 278.35V264.98H665.45C664.03 265 662.53 265.14 660.95 265.4L660.17 263.87C661.27 263.99 662.6 264.07 664.16 264.11H673.27L673.93 263.12C673.99 263.04 674.08 262.92 674.2 262.76C674.48 262.34 674.68 262.13 674.8 262.13C675 262.13 675.48 262.47 676.25 263.15C677.02 263.83 677.4 264.28 677.4 264.5C677.34 264.82 677.09 264.98 676.65 264.98H672.06V278.44C672.06 279.48 671.83 280.25 671.37 280.75C670.77 281.37 669.69 281.74 668.13 281.86H668.15ZM662.51 258.51L661.76 256.95C662.86 257.07 664.19 257.15 665.75 257.19H672.14L672.8 256.23C672.84 256.17 672.9 256.09 672.98 255.99C673.32 255.51 673.56 255.27 673.7 255.27C673.9 255.27 674.37 255.6 675.12 256.27C675.87 256.94 676.24 257.38 676.24 257.6C676.18 257.92 675.92 258.08 675.46 258.08H667.01C665.59 258.1 664.09 258.24 662.51 258.5V258.51Z" fill="black"/>
<path d="M685.18 281.71L683.65 278.89C684.83 278.69 686.45 278.35 688.51 277.87V268.43H687.01C686.17 268.45 685.29 268.59 684.37 268.85L683.59 267.29C684.51 267.41 685.63 267.49 686.95 267.53H688.51V263.69H685.96L685.81 263.21C684.83 264.27 684.02 265.04 683.38 265.52L682.99 265.22C684.09 263.92 685.2 262.15 686.32 259.91C687.34 257.83 687.93 255.91 688.09 254.15C689.67 254.71 690.67 255.13 691.09 255.41C691.37 255.61 691.37 255.77 691.09 255.89L690.64 256.1C692.32 256.64 693.61 257.29 694.51 258.05C695.25 258.67 695.65 259.31 695.71 259.97C695.77 260.53 695.59 260.93 695.19 261.18C694.78 261.43 694.34 261.39 693.86 261.08C693.12 259.58 691.91 258.09 690.23 256.61C689.19 258.85 687.83 260.93 686.15 262.85H691.43L691.97 261.95C692.01 261.89 692.06 261.81 692.12 261.71C692.4 261.27 692.61 261.05 692.75 261.05C692.95 261.05 693.38 261.35 694.04 261.96C694.7 262.57 695.03 262.98 695.03 263.2C694.97 263.52 694.72 263.68 694.28 263.68H690.59V267.52H692.06L692.63 266.59C692.69 266.51 692.77 266.4 692.87 266.26C693.13 265.86 693.32 265.66 693.44 265.66C693.62 265.66 694.04 265.99 694.71 266.63C695.38 267.28 695.71 267.71 695.71 267.93C695.65 268.25 695.41 268.41 694.99 268.41H690.58V277.34C691.66 277.08 693.4 276.65 695.8 276.05L695.89 276.5C692.79 277.98 689.44 279.47 685.85 280.97C685.73 281.35 685.51 281.59 685.19 281.69L685.18 281.71ZM686.62 276.4C686.22 276.58 685.83 276.43 685.45 275.95C685.63 274.37 685.37 272.39 684.67 270.01L685.06 269.89C686.02 270.83 686.7 271.81 687.1 272.83C687.42 273.69 687.52 274.47 687.4 275.17C687.28 275.81 687.02 276.22 686.62 276.4ZM691.9 275.8L691.45 275.53C692.07 273.47 692.38 271.45 692.38 269.47L694.15 270.16C695.37 270.44 695.67 270.73 695.05 271.03L694.54 271.24C693.6 273.2 692.72 274.72 691.9 275.8ZM705.36 282.01C705.3 281.21 705.11 280.64 704.79 280.3C704.39 279.94 703.66 279.66 702.6 279.46V279.01C703.64 279.07 704.68 279.14 705.72 279.22C706.12 279.22 706.32 279.02 706.32 278.62V274.51H699V276.76C699.04 278.58 699.1 280.01 699.18 281.05C699.08 281.27 698.85 281.48 698.49 281.68C698.11 281.88 697.69 281.98 697.23 281.98C697.07 281.98 696.92 281.92 696.78 281.8C696.64 281.68 696.57 281.54 696.57 281.38C696.75 278.8 696.86 276.2 696.9 273.59V262.74C696.14 263.58 695.42 264.28 694.74 264.84L694.41 264.45C694.97 263.67 695.48 262.82 695.94 261.9C696.4 261 696.79 260.01 697.11 258.92C697.43 257.83 697.61 256.87 697.65 256.03C699.19 256.67 700.17 257.13 700.59 257.41C700.89 257.63 700.89 257.77 700.59 257.83L700.11 257.92C699.37 259.52 698.41 261 697.23 262.36L699.15 263.26H701.4V260.41C701.4 257.89 701.27 255.84 701.01 254.26C702.65 254.68 703.67 255.01 704.07 255.25C704.37 255.43 704.38 255.62 704.1 255.82L703.65 256.15V263.26H706.02L706.5 262.57C706.54 262.51 706.6 262.43 706.68 262.33C706.9 262.03 707.07 261.88 707.19 261.88C707.39 261.88 707.86 262.16 708.6 262.73C709.34 263.3 709.71 263.69 709.71 263.91C709.51 264.21 709.12 264.42 708.54 264.54V278.9C708.54 279.88 708.36 280.58 708 281C707.56 281.54 706.68 281.88 705.36 282.02V282.01ZM699 268.43H706.32V264.11H699V268.43ZM699 273.65H706.32V269.27H699V273.65ZM709.97 262.68C709.57 263 709.09 262.96 708.53 262.56C708.27 261.68 707.73 260.67 706.91 259.53C706.19 258.57 705.41 257.68 704.57 256.86L704.9 256.62C706.62 257.24 707.96 258 708.92 258.9C709.72 259.64 710.2 260.4 710.36 261.18C710.5 261.86 710.36 262.36 709.97 262.68Z" fill="black"/>
<path fill-rule="evenodd" clip-rule="evenodd" d="M567.11 272.46V283.31L566.6 284.32H576.91L576.4 283.32V253.72L576.91 252.71H544.06L544.57 253.72V283.31L544.06 284.32H554.37L553.86 283.32V272.47C553.86 269 556.55 265.8 560.54 265.79C564.29 265.79 567.12 268.86 567.12 272.47L567.11 272.46Z" fill="#902C2B"/>
<path d="M576.25 207H544V239.25H576.25V207Z" fill="#902C2B"/>
<path d="M558.89 213.98C559 213.25 559.83 212.16 558.85 211.64C558.46 211.39 558.09 211.71 557.72 211.78C556.51 211.74 555.34 211.8 554.09 211.64C553.34 211.72 552.64 211.44 551.99 211.52C551.73 211.77 551.35 212.33 551.73 212.73C552.4 212.65 553.15 212.78 553.75 212.52C555.07 212.88 556.54 212.63 557.87 212.52L558.03 212.68C558.03 213.83 557.11 212.8 556.65 213.22C555.07 213.1 553.73 213.35 552.05 213.22L551.8 213.7C552.2 214.96 551.98 216.56 551.89 217.9C551.49 218.38 551.05 218.99 550.26 218.84C550.01 218.88 549.86 218.49 549.7 218.67C549.51 218.93 549.67 219.33 549.85 219.48C550.24 219.83 551.04 220.2 551.54 219.83C551.74 219.71 552.01 219.52 552.19 219.6C552.76 218.16 552.77 216.79 552.91 215.17C553.06 214.8 552.62 214.47 553.01 214.2C553.47 214.48 553.93 214.03 554.38 214.31C553.91 214.38 554.33 215.13 553.72 214.86C553.47 215.13 553.25 215.21 553.22 215.58C553.35 215.8 553.66 215.84 553.78 215.83C553.85 215.81 553.89 215.87 553.94 215.91C554.1 215.83 554.27 215.75 554.43 215.68C554.55 215.88 554.54 216.22 554.42 216.41C554.13 216.45 553.89 216.36 553.7 216.16C553.42 216.39 553.02 216.5 553.12 216.96C553.06 217.41 553.45 217.51 553.84 217.46C553.98 217.62 553.89 217.99 553.91 218.11C554.12 218.7 553.83 219.3 553.8 219.89C553.92 220.2 554.24 220.36 554.52 220.47C555.12 220.29 555.43 219.55 555.76 219.04C555.91 219.04 555.98 219.21 556.08 219.29C556.01 219.72 556.62 219.87 556.63 220.27C556.79 220.33 556.98 220.54 557.11 220.44C557.33 220.5 557.49 220.67 557.75 220.61C558 220.58 558.27 220.35 558.48 220.46C558.82 220.3 558.72 219.95 558.98 219.74C558.68 219.71 558.4 219.43 558.09 219.64C557.62 219.24 556.81 219.12 556.41 218.56C556.81 218.23 557.32 217.81 557.88 217.7C557.97 217.47 557.63 217.4 557.65 217.21C557.81 216.96 558 217.41 558.14 217.06L558.22 217.14C558.49 217.17 558.81 217.13 558.95 216.99C558.88 217.01 558.84 216.95 558.79 216.91L559.04 216.67C558.82 216.43 558.45 216.43 558.07 216.49C557.84 216.24 557.02 216.67 557.27 215.99C557.28 215.4 557.94 215.71 558.25 215.52C558.58 215.82 558.4 215.18 558.66 215.2C558.32 214.83 558 215.12 557.53 215.02C557.09 214.82 557.74 214.49 557.3 214.29C557.78 214.32 558.11 213.97 558.6 213.99C558.71 213.98 558.83 214.18 558.92 213.99L558.89 213.98ZM554.92 219C554.92 218.54 554.57 218.02 554.94 217.63C554.94 218.16 555.57 218.24 555.57 218.77L554.92 219ZM556.07 217.89C555.71 217.81 555.81 217.34 555.52 217.23C555.84 217.26 556.22 217.18 556.49 217.33C556.37 217.52 556.27 217.72 556.08 217.89H556.07ZM556.42 216.36L555.21 216.18C555.14 215.79 555.49 215.74 555.7 215.79C555.87 215.7 556.22 215.9 556.43 215.72C556.48 215.96 556.68 216.16 556.42 216.37V216.36ZM556.45 214.82L556.53 214.9C556.26 215.14 555.94 214.77 555.72 214.89C555.21 214.93 555.26 214.52 554.92 214.31H554.52C555.23 214.26 555.9 214.08 556.62 214.26C556.44 214.39 556.27 214.63 556.45 214.82Z" fill="#E4E1E0"/>
<path d="M559.44 228.74C559.3 228.86 559.01 228.85 558.87 228.73C558.58 228.91 558.15 228.7 557.9 228.79L557.82 228.71C557.68 228.65 557.62 228.8 557.5 228.78C556.99 228.67 556.29 228.69 556.14 228.11C556.53 227.57 557.31 227.83 557.84 227.82C558.14 227.77 558.35 227.64 558.49 227.43C558.37 227.23 558.17 227.21 558.01 227.1C557.81 227.46 557.53 227.1 557.28 227.09C557 227.09 556.42 227.08 556.15 227.07C556.23 226.89 556.15 226.63 556.4 226.51C557.02 226.56 557.87 226.5 558.42 226.3V226.14C558.25 226.05 558.1 225.92 557.86 225.97C557.65 225.82 557.41 226.27 557.38 225.88C557.19 225.88 556.95 226.24 556.82 225.87C556.76 226.01 556.6 225.92 556.5 225.94C556.41 225.84 556.29 225.77 556.34 225.61C556.52 225.52 556.68 225.4 556.91 225.46C557.25 225.57 557.55 225.3 557.88 225.23C557.91 225.13 557.82 224.96 557.97 224.91C557.62 224.45 558.25 224.36 558.47 224.11C558.65 224.17 558.79 224.34 559.03 224.28C559.33 223.91 559.67 224.4 560 224.14C559.85 224.02 560 223.77 559.85 223.65C559.59 223.69 559.31 223.54 559.12 223.64C559.04 223.49 558.85 223.58 558.72 223.55C557.72 223.67 558.92 222.96 558.66 222.5C558.17 221.64 557.59 222.9 556.8 222.47C556.57 222.4 556.39 222.12 556.57 221.9C556.5 221.49 556.16 221.2 555.69 221.32C555.5 221.54 555.06 221.8 555.11 222.2C554.67 222.46 553.98 222.36 553.49 222.25C553.11 222.47 553.55 222.74 553.39 223.06C553.5 223.05 553.62 223.25 553.71 223.06L553.87 223.22C553.57 223.39 553.4 223.56 553.21 223.85C553.31 224.04 553.3 224.35 553.52 224.42L555.06 224.12C555.14 224.28 555.24 224.41 555.21 224.61C554.64 224.87 554.08 224.4 553.51 224.66C553.2 225.03 553.73 225.26 553.65 225.63C553.81 225.73 554.18 225.82 554.3 225.56C554.58 225.44 555 225.45 555.27 225.58C555.15 226.55 553.42 225.39 553.55 226.68C553.8 227.15 554.36 226.52 554.84 226.62C555.12 226.58 555.47 226.66 555.32 227.03C554.99 227.2 554.56 227.36 554.19 227.17L554.03 227.33C553.47 227.33 553.41 228.08 552.73 227.79C552.28 227.26 553.21 226.93 553.08 226.34C553.33 225.93 553.34 225.22 553.11 224.81C552.73 224.24 551.88 224.51 551.34 224.54C551.24 224.6 551.09 224.78 551.02 224.61L550.86 224.77C550.78 224.61 550.63 224.79 550.54 224.84C550.54 225.06 550.17 225.32 550.53 225.49C550.75 226.11 551.1 225.49 551.5 225.51C551.9 225.61 552.21 224.98 552.55 225.45C552.5 226.1 552.33 226.68 552.03 227.22C551.89 227.35 551.77 227.53 551.54 227.45C551.36 227.39 551.07 227.38 550.89 227.44C551.07 227.56 550.87 227.88 551.04 227.93C551.19 228.32 550.49 228.46 550.22 228.72C549.96 229 550.1 229.34 550.29 229.61C550.84 229.33 551.6 229.2 551.84 228.51C552.22 228.44 552.48 228.65 552.81 228.69C553.22 228.39 553.45 228.93 553.86 228.87C554.11 229.26 554.61 229.09 554.9 229.37C555.32 229.32 555.46 229.92 555.94 229.71C556.67 230.01 557.48 230.15 558.27 230.32C558.92 230.15 559.49 229.78 559.99 229.22C560.11 229.06 560.12 228.74 560 228.57C559.77 228.52 559.61 228.64 559.43 228.72L559.44 228.74ZM557.43 223.37C557.13 223.58 556.73 223.39 556.43 223.37L556.46 223.2C556.86 223.18 557.16 222.95 557.43 223.38V223.37ZM557.25 224.26C557.41 224.93 556.69 224.55 556.35 224.65C556.08 224.05 556.92 224.32 557.25 224.26ZM554.03 223.31C554.22 223.08 554.64 223.05 555 223.08C554.84 223.4 554.3 223.11 554.03 223.31ZM555.39 228.42C554.99 228.51 554.76 228.25 554.43 228.16C554.39 227.88 554.81 227.84 554.91 228.05C554.99 227.9 555.14 227.93 555.27 227.94C555.49 228.03 555.35 228.27 555.38 228.42H555.39Z" fill="#E4E1E0"/>
<path d="M552.57 223.93L552.66 223.29C552.35 222.95 552.17 222.79 551.78 222.63C551.4 222.68 551.24 222.8 550.96 223.1C550.88 223.41 551.06 223.6 551.19 223.83C551.6 224.2 552.07 223.97 552.56 223.93H552.57Z" fill="#E4E1E0"/>
<path d="M561.39 213.86C561.54 214.08 561.42 214.49 561.46 214.67L561.38 214.75C561.35 214.82 561.42 214.86 561.46 214.91C561.5 215.57 561.29 216.51 561.58 217.17C561.79 216.9 562.07 216.8 562.32 216.62L562.16 216.38C562.35 215.79 562.16 215.35 562.35 214.77C562.21 214.57 562.3 214.18 562.28 214.04C562.31 213.41 563.01 213.43 563.42 213.25C565.06 213.21 566.43 213.09 567.94 213.33L568.17 214.3C568.3 215.27 568.19 216.45 568.2 217.37C568.59 217.34 568.39 216.86 568.78 216.81C568.83 216.85 568.87 216.92 568.94 216.89L569.04 215.76C569.2 214.65 569.6 213.05 568.78 212.12C568.16 211.69 568.04 212.49 567.56 212.66C566.98 212.51 566.68 212.46 566.03 212.47C565.73 212.32 565.93 211.98 565.88 211.74C565.73 210.83 564.8 211.19 564.35 211.31C564.4 211.63 564.2 212.05 564.49 212.28C563.78 212.62 563.09 212.23 562.38 212.57C562.33 212.25 561.99 212.26 561.74 212.24C560.78 212.54 561.87 213.27 561.39 213.85V213.86Z" fill="#E4E1E0"/>
<path d="M569.8 218.37C569.86 218.56 569.69 218.63 569.63 218.77L569.55 218.69L569.39 218.85L569.23 218.69C569.08 218.64 569 218.76 568.9 218.85C568.59 218.63 568.19 218.94 567.93 218.83C567.84 218.83 567.74 218.8 567.69 218.91L567.61 218.83C567.54 218.81 567.5 218.87 567.45 218.91C567.27 218.76 566.93 218.96 566.81 218.66L567.08 216.89C566.92 216.57 567.17 216.12 567.1 215.84C567.25 215.65 567.17 215.36 567.19 215.11C567.6 214.87 567.13 214.58 567.12 214.3C566.93 214.06 566.72 213.9 566.4 213.96C565.9 214.37 565.06 214.16 564.46 214.09L564.38 214.17C564.11 213.77 563.56 213.79 563.17 213.91C562.95 214.25 563.17 214.61 563.4 214.88V218.76L563.25 218.92C562.74 218.79 562.33 219.15 561.88 218.9C561.62 218.98 561.34 219.01 561.15 219.29C561.15 219.38 561.13 219.48 561.23 219.53L561.07 219.69C561.15 221.14 562.24 219.56 562.92 219.96C563.2 219.85 563.54 219.91 563.73 219.57L563.89 219.73L563.97 219.65C564.28 220.03 564.53 219.26 564.78 219.74C565.45 219.73 566.18 219.83 566.8 219.69C566.94 219.77 567.06 219.78 567.2 219.69C567.84 219.92 568.49 219.66 569.14 219.64C569.64 219.81 569.84 219.79 570.27 219.5C570.29 219.24 570.27 219 570.04 218.85L570.37 218.53L569.81 218.36L569.8 218.37ZM564.36 215.04C564.92 215.15 565.63 214.72 565.97 215.23V215.8C565.76 215.76 565.5 215.63 565.31 215.79L565.23 215.71C564.88 216.01 564.69 215.47 564.34 215.53V215.04H564.36ZM565.47 216.51C565.65 216.59 565.91 216.51 566.03 216.76C566.07 217.08 566 217.44 565.61 217.4C565.16 217.21 564.85 217.4 564.4 217.22L564.32 217.3C563.96 216.42 565.03 216.65 565.47 216.51ZM565.51 218.69C565.06 218.76 564.76 218.49 564.38 218.75C564.24 218.61 564.33 218.37 564.31 218.18C564.88 218.08 565.49 218.1 566.01 217.89C566.03 217.99 565.94 218.16 566.09 218.21C565.72 218.29 565.88 218.6 565.52 218.69H565.51Z" fill="#E4E1E0"/>
<path d="M561.8 223.04C561.94 223.12 562 223.37 562.2 223.29V223.21C562.47 223.21 562.8 222.86 563.01 223.22C563.03 223.29 562.97 223.33 562.93 223.38C563.07 223.44 562.98 223.6 563.01 223.7C563.45 224.56 562.24 224.14 562.18 224.82C562.03 225.06 562.11 225.51 562.08 225.71C562.38 225.84 562.83 225.84 563.13 225.73C563.29 225.85 563.13 226.09 563.28 226.22C563.18 226.42 562.98 226.37 562.79 226.37C562.59 226.43 562.44 226.19 562.39 226.04C562.05 226.26 561.86 226.69 561.73 227.08C561.86 227.52 562.25 227.47 562.61 227.42C562.99 227.37 563.42 227.21 563.74 227.28C564.21 227.03 565.03 227.52 565.28 226.9C565.5 226.74 565.23 226.58 565.21 226.41C564.83 226.47 564.35 226.29 563.92 226.23L564.01 225.75C564.14 225.37 564.42 225.81 564.58 225.6C564.6 225.53 564.54 225.49 564.5 225.44C564.51 225.03 565.03 225.05 565.08 224.64C564.6 224.58 564.16 224.42 563.71 224.29L563.81 223.16C564.04 222.87 564.46 223.07 564.78 223.02C564.76 222.71 565.16 222.48 565.04 222.22L564.96 222.3C564.1 222.47 564 221.7 563.52 221.31C563.31 221.27 563.07 221.34 563.03 221.54C562.91 221.67 562.9 221.93 562.94 222.02L562.78 222.18C562.28 221.84 562.16 222.41 561.72 222.48C561.66 222.7 561.81 222.85 561.79 223.05L561.8 223.04Z" fill="#E4E1E0"/>
<path d="M565.84 222.87C565.99 223.66 566.73 223.08 567.13 223.05C567.27 223.11 567.18 223.27 567.21 223.37C567.28 223.71 567.04 224.42 567.68 224.27C568.31 224.34 568.14 223.63 568.18 223.23C568.49 222.85 568.82 223.31 569.23 223.17C569.4 222.92 569.16 222.81 569.24 222.52C568.84 222.17 568.43 222.52 568.03 222.18L568.11 222.1C568.14 222.03 568.07 221.99 568.03 221.94C568.07 221.89 568.14 221.85 568.11 221.78C568.09 221.27 567.54 221.38 567.23 221.52C567.2 221.74 566.92 221.94 567.14 222.17C566.94 222.31 566.56 222.22 566.41 222.24C566.27 222.18 566.2 222.01 566.01 222.07C565.71 222.23 565.9 222.61 565.84 222.87Z" fill="#E4E1E0"/>
<path d="M569.96 227.54C569.93 227.7 569.77 227.8 569.71 227.94L566.56 227.88C566.3 227.71 565.82 227.91 565.76 227.46C566.27 227.51 566.94 227.44 567.46 227.25C567.84 227.25 568.26 227.63 568.59 227.27C568.28 226.45 569.23 225.97 569.03 225.1C568.62 224.84 568.1 224.39 567.66 224.67C567.27 224.45 566.88 224.73 566.45 224.65C566.24 224.26 565.93 224.69 565.8 224.8C565.27 225.24 566.07 225.56 566.02 226.02C565.63 226.35 565.79 226.92 565.51 227.3C565.42 227.3 565.32 227.31 565.27 227.21C564.95 227.45 565.02 227.97 564.45 227.76C563.86 227.53 563.05 227.79 562.35 227.8C561.87 227.63 561.29 227.7 560.89 228.02C560.7 228.4 560.86 228.83 561.03 229.15C561.42 228.91 562.16 229.38 562.33 228.77C562.71 228.68 563.29 228.6 563.62 228.87C563.51 228.96 563.49 229.08 563.45 229.19C563.13 229.76 562.51 230.04 561.94 230.05C561.99 230.05 562.03 230.08 562.06 230.13L561.98 230.21C562.22 230.24 562.4 230.4 562.62 230.46C563.6 230.59 563.97 229.39 564.83 229.04C564.81 228.87 564.85 228.73 565 228.64C565.33 229.35 564.95 230.04 565.29 230.75C565.6 230.78 565.93 230.77 566.02 230.44L565.94 230.36C566.07 230.12 566.07 229.72 565.96 229.47C566.03 229 566.08 228.43 566.78 228.68C567.3 228.92 567.09 229.6 567.24 230.06C567.74 230.63 568.38 230.05 568.94 230.01C569.06 230.05 569.24 230.18 569.34 230.01C569.39 229.86 569.27 229.78 569.18 229.68C568.45 229.89 568.08 229.1 567.66 228.76C567.83 228.5 567.98 228.95 568.15 228.69C568.46 228.9 568.97 228.63 569.2 228.87L569.28 228.79C569.47 228.82 569.71 228.73 569.84 228.88C570.32 228.97 570.21 228.44 570.58 228.41C570.87 227.78 569.93 228 569.95 227.51L569.96 227.54ZM568.05 225.65L567.96 226.38C567.78 226.5 567.31 226.49 567.07 226.36L567 225.79C567.35 225.74 567.75 225.58 568.05 225.65Z" fill="#E4E1E0"/>
<path d="M550.51 234.81L552.5 232.78L550.7 232.75V232.48L553.1 232.51V232.71L551.12 234.73L553.1 234.76V235.03L550.51 235V234.81Z" fill="#E4E1E0"/>
<path d="M553.88 234.19C553.88 234.64 554.28 234.83 554.74 234.83C555.07 234.83 555.28 234.8 555.45 234.75L555.53 234.98C555.37 235.03 555.08 235.09 554.68 235.09C553.9 235.09 553.43 234.7 553.44 234.16C553.44 233.61 553.91 233.18 554.65 233.19C555.48 233.19 555.69 233.72 555.69 234.06C555.69 234.13 555.69 234.18 555.67 234.22L553.89 234.2L553.88 234.19ZM555.24 233.97C555.24 233.76 555.12 233.43 554.61 233.42C554.14 233.42 553.93 233.72 553.89 233.95L555.24 233.97Z" fill="#E4E1E0"/>
<path d="M556.26 233.74C556.26 233.55 556.26 233.4 556.24 233.25H556.65L556.67 233.55C556.8 233.38 557.1 233.22 557.52 233.22C557.87 233.22 558.42 233.38 558.41 234V235.09H557.93V234.04C557.95 233.75 557.8 233.5 557.36 233.49C557.06 233.49 556.82 233.64 556.74 233.82C556.72 233.86 556.71 233.92 556.71 233.97V235.07H556.23L556.25 233.74H556.26Z" fill="#E4E1E0"/>
<path d="M559.77 234.31L559.39 235.1H558.92L560.15 232.58H560.7L561.88 235.13H561.39L561.02 234.32H559.76L559.77 234.31ZM560.94 234.07L560.6 233.34C560.53 233.17 560.48 233.02 560.43 232.88H560.41C560.36 233.03 560.3 233.18 560.23 233.34L559.87 234.07H560.94Z" fill="#E4E1E0"/>
<path d="M562.39 233.89C562.39 233.68 562.39 233.49 562.38 233.32H562.78L562.8 233.68H562.82C562.94 233.44 563.23 233.29 563.54 233.29C563.59 233.29 563.62 233.29 563.67 233.3V233.61C563.61 233.61 563.57 233.61 563.5 233.61C563.17 233.61 562.94 233.78 562.87 234.02C562.86 234.07 562.85 234.12 562.85 234.18V235.15H562.38L562.4 233.9L562.39 233.89Z" fill="#E4E1E0"/>
<path d="M565.88 235.11C565.76 235.15 565.49 235.21 565.15 235.21C564.38 235.21 563.89 234.82 563.89 234.26C563.89 233.7 564.44 233.3 565.27 233.31C565.54 233.31 565.79 233.36 565.91 233.41L565.8 233.66C565.69 233.62 565.52 233.57 565.26 233.57C564.68 233.57 564.36 233.87 564.35 234.25C564.35 234.67 564.72 234.93 565.23 234.94C565.49 234.94 565.67 234.9 565.8 234.86L565.88 235.11Z" fill="#E4E1E0"/>
<path d="M566.45 232.52H566.91L566.9 233.66C566.97 233.57 567.09 233.48 567.23 233.43C567.37 233.37 567.53 233.34 567.7 233.34C568.04 233.34 568.59 233.5 568.58 234.13V235.21H568.1V234.17C568.12 233.87 567.97 233.63 567.53 233.62C567.23 233.62 567 233.76 566.91 233.94C566.88 233.98 566.88 234.03 566.88 234.1V235.2H566.4L566.43 232.53L566.45 232.52Z" fill="#E4E1E0"/>
<path d="M569.59 233.07C569.42 233.07 569.3 232.97 569.3 232.85C569.3 232.73 569.42 232.64 569.6 232.64C569.78 232.64 569.89 232.74 569.89 232.85C569.89 232.97 569.77 233.06 569.59 233.06V233.07ZM569.34 235.22L569.36 233.4H569.82L569.8 235.22H569.34Z" fill="#E4E1E0"/>
<path d="M609.31 236.61C606.54 235.75 604.34 234.59 602.73 233.12C601 231.53 599.72 229.43 598.9 226.8L595.84 226.78L595.81 232.78C597.93 232.47 599.82 232.18 601.48 231.91L601.54 232.39C597.97 233.65 594.5 234.79 591.12 235.81C590.96 236.19 590.75 236.41 590.49 236.47L589.07 233.7C589.57 233.66 590.61 233.54 592.19 233.33C592.79 233.23 593.26 233.17 593.6 233.13L593.64 226.77L589.47 226.75C588.61 230.76 587.01 233.97 584.68 236.38L584.29 236.11C585.7 233.66 586.69 230.71 587.25 227.25C587.62 224.81 587.82 221.69 587.84 217.87L587.86 213.67C587.86 211.97 587.79 210.52 587.61 209.32L590.63 210.63L606.19 210.72L606.73 210.03C606.73 210.03 606.83 209.92 606.91 209.82C607.19 209.5 607.39 209.34 607.51 209.34C607.71 209.34 608.18 209.63 608.91 210.22C609.65 210.8 610.01 211.21 610.01 211.43C609.81 211.71 609.41 211.91 608.81 212.02V213.7C608.8 213.96 608.81 214.3 608.82 214.72C608.85 215.66 608.89 216.37 608.93 216.85C608.85 217.03 608.57 217.21 608.09 217.38C607.61 217.55 607.18 217.64 606.8 217.64H606.44V216.59L590.19 216.5V217.88C590.18 219.14 590.15 220.1 590.11 220.76L594.88 220.79C594.88 219.21 594.82 217.95 594.66 217.01C596.18 217.44 597.12 217.77 597.5 218.02C597.78 218.2 597.79 218.37 597.53 218.53L597.08 218.8V220.81L601.92 220.84C601.92 219.28 601.86 218.03 601.7 217.09C603.22 217.52 604.16 217.85 604.54 218.1C604.82 218.28 604.83 218.46 604.57 218.64L604.12 218.91V220.86L606.57 220.87L607.17 219.97C607.21 219.91 607.28 219.82 607.38 219.7C607.68 219.26 607.89 219.04 608.01 219.04C608.21 219.04 608.66 219.36 609.37 219.99C610.08 220.62 610.43 221.05 610.43 221.27C610.35 221.59 610.09 221.75 609.65 221.75L604.1 221.72L604.07 226.01L607.19 226.03L607.8 225.1C607.84 225.04 607.89 224.96 607.95 224.86C608.27 224.38 608.5 224.14 608.64 224.14C608.84 224.14 609.29 224.47 610 225.12C610.71 225.77 611.06 226.21 611.06 226.43C611 226.73 610.75 226.88 610.31 226.88L599.52 226.82C600.19 228.3 601.19 229.59 602.53 230.67C604.36 229.4 605.8 228.11 606.87 226.8C608.04 227.77 608.76 228.42 609.02 228.76C609.22 229.04 609.16 229.18 608.84 229.18H608.3C606.8 229.85 605.06 230.5 603.1 231.13C605.09 232.56 607.79 233.58 611.21 234.18L611.18 234.54C610.22 234.75 609.6 235.45 609.31 236.63V236.61ZM589.59 225.91L594.87 225.94L594.9 221.65L590.19 221.62L590.13 221.35C590.02 223.01 589.84 224.53 589.59 225.9V225.91ZM590.22 215.63L606.47 215.72L606.49 211.58L590.24 211.49L590.22 215.63ZM597.05 225.95L601.91 225.98L601.94 221.69L597.08 221.66L597.05 225.95Z" fill="black"/>
<path d="M618.01 235.88L617.24 234.35C618.34 234.48 619.67 234.56 621.23 234.61H623.54L623.61 222.78C623.62 220.26 623.51 218.21 623.26 216.63L626.19 217.88L635.45 217.93L635.96 217.09C636.02 217.01 636.09 216.9 636.17 216.76C636.41 216.4 636.59 216.22 636.71 216.22C636.91 216.22 637.41 216.56 638.2 217.23C638.99 217.9 639.39 218.35 639.39 218.57C639.15 218.87 638.71 219.06 638.07 219.13L637.98 234.69H639.75L640.45 233.62C640.49 233.56 640.55 233.47 640.63 233.35C640.97 232.81 641.21 232.54 641.35 232.54C641.55 232.54 642.05 232.91 642.84 233.66C643.63 234.4 644.03 234.89 644.03 235.11C643.97 235.43 643.72 235.59 643.28 235.59L622.5 235.47C621.08 235.48 619.58 235.61 618 235.86L618.01 235.88ZM618.89 218.68C618.41 218.66 618.08 218.45 617.9 218.04C617.62 217.36 617.89 216.74 618.69 216.19C619.35 215.81 619.9 215.2 620.32 214.34C620.81 213.42 621.02 212.46 620.97 211.44L621.45 211.41C621.65 211.99 621.77 212.57 621.83 213.15L629.47 213.19C629.47 211.49 629.4 210.06 629.22 208.9C630.9 209.33 631.94 209.67 632.36 209.91C632.66 210.09 632.66 210.28 632.36 210.48L631.88 210.81V213.21L640.47 213.26L641.07 212.57C641.11 212.51 641.18 212.43 641.28 212.33C641.56 212.01 641.76 211.85 641.88 211.85C642.06 211.85 642.49 212.2 643.18 212.91C643.87 213.61 644.21 214.08 644.21 214.3C644.05 214.46 643.69 214.57 643.13 214.62C641.92 215.89 640.68 216.94 639.4 217.78L639.04 217.54C639.57 216.54 640.05 215.42 640.5 214.16L621.88 214.05C621.89 215.03 621.73 215.92 621.38 216.72C621.1 217.38 620.71 217.89 620.23 218.24C619.81 218.56 619.36 218.7 618.88 218.68H618.89ZM625.78 234.64L635.67 234.7L635.7 229.78L625.81 229.72L625.78 234.64ZM625.81 228.88L635.7 228.94L635.73 224.29L625.84 224.23L625.81 228.88ZM625.84 223.36L635.73 223.42L635.76 218.8L625.87 218.74L625.84 223.36Z" fill="black"/>
<path d="M650.38 236.82L650.14 236.4C652.21 234.71 653.77 232.46 654.83 229.65C654.26 228.51 653.73 227 653.24 225.11C653.14 225.29 652.99 225.57 652.78 225.95C652.24 226.99 651.86 227.67 651.66 228.01C651.82 228.27 651.81 228.51 651.63 228.73L650.14 227.13C651.1 226.3 652.06 225.35 653 224.3L653.28 223.01L654.3 223.38L653.54 224.48C653.97 225.96 654.53 227.31 655.23 228.54C655.86 226.56 656.3 224.13 656.56 221.23L653.86 221.21L653.1 222.73C652.52 222.93 651.82 222.85 651 222.51C652.5 219.46 653.98 216.14 655.43 212.55H653.9C653 212.55 652.08 212.69 651.14 212.94L650.34 211.44C651.3 211.57 652.46 211.65 653.82 211.7H655.47L655.98 210.96C656.04 210.9 656.11 210.81 656.19 210.69C656.43 210.37 656.61 210.21 656.73 210.21C656.91 210.21 657.34 210.55 658.01 211.22C658.68 211.89 659.02 212.34 659.02 212.56C658.8 212.78 658.34 212.94 657.64 213.03C656.85 214.86 655.72 217.31 654.24 220.36H656.37L656.91 219.72C656.95 219.68 657.01 219.61 657.09 219.51C657.37 219.19 657.57 219.03 657.69 219.03C657.89 219.03 658.3 219.32 658.93 219.91C659.56 220.49 659.87 220.9 659.87 221.11C659.73 221.33 659.39 221.48 658.85 221.55C658.37 225.17 657.57 228.08 656.46 230.29C657.71 231.74 659.39 232.74 661.51 233.29C663.25 233.74 665.75 233.97 669.03 233.99C673.05 234.01 675.74 234.01 677.09 233.98V234.4C676.67 234.48 676.33 234.7 676.06 235.05C675.84 235.39 675.71 235.8 675.66 236.28L668.85 236.24C665.47 236.22 662.85 235.89 660.97 235.26C658.82 234.53 657.1 233.24 655.84 231.39C654.51 233.62 652.68 235.42 650.35 236.78L650.38 236.82ZM665.87 233.28C665.47 233.28 665.27 233.08 665.27 232.68C665.31 232.34 665.35 231.87 665.4 231.27C665.42 230.99 665.43 230.77 665.43 230.61V229.26L663.16 229.25C661.8 229.26 660.38 229.39 658.9 229.64L658.13 228.11C659.23 228.24 660.56 228.32 662.12 228.37L665.45 228.39L665.47 225.21H663.52C662.4 225.21 661.24 225.35 660.04 225.6L659.27 224.07C660.37 224.2 661.7 224.28 663.26 224.33H665.48L665.5 221.25H663.7C662.68 221.25 661.6 221.39 660.46 221.64L659.66 220.14C660.76 220.27 662.08 220.35 663.62 220.4H665.51L665.53 217.29H663.04C661.62 217.29 660.12 217.42 658.54 217.67L657.77 216.14C658.87 216.27 660.2 216.35 661.76 216.4L665.54 216.42L665.56 213.36H663.79C662.77 213.36 661.71 213.5 660.61 213.75L659.81 212.19C660.89 212.32 662.19 212.4 663.71 212.45H665.57C665.57 211.08 665.51 209.96 665.38 209.1C666.98 209.55 667.96 209.89 668.34 210.14C668.62 210.34 668.61 210.54 668.31 210.74L667.8 211.07V212.48L671.33 212.5L671.84 211.78C671.88 211.72 671.94 211.64 672.02 211.54C672.28 211.22 672.47 211.06 672.59 211.06C672.79 211.06 673.23 211.36 673.92 211.97C674.61 212.57 674.95 212.99 674.95 213.21C674.75 213.49 674.36 213.69 673.78 213.8L673.76 216.47H674.12L674.67 215.55C674.73 215.47 674.8 215.36 674.88 215.22C675.12 214.82 675.3 214.62 675.42 214.62C675.6 214.62 675.99 214.94 676.6 215.59C677.21 216.23 677.51 216.66 677.51 216.88C677.45 217.2 677.2 217.36 676.76 217.36L673.76 217.34V218.78C673.76 219 673.76 219.29 673.78 219.65C673.82 220.45 673.85 221.05 673.89 221.45C673.79 221.63 673.52 221.81 673.09 222C672.66 222.19 672.26 222.28 671.9 222.28H671.54V221.29L667.73 221.27L667.71 224.36L671.55 224.38L672.16 223.48C672.2 223.42 672.25 223.34 672.31 223.24C672.63 222.8 672.86 222.58 673 222.58C673.2 222.58 673.65 222.89 674.34 223.52C675.04 224.14 675.38 224.57 675.38 224.79C675.32 225.11 675.07 225.27 674.63 225.27L667.7 225.23L667.68 228.41L672.27 228.44L672.97 227.48C673.03 227.42 673.1 227.32 673.18 227.18C673.52 226.72 673.75 226.49 673.87 226.49C674.07 226.49 674.56 226.83 675.35 227.5C676.14 228.17 676.53 228.62 676.53 228.84C676.45 229.16 676.19 229.32 675.75 229.32L667.69 229.27V230.38C667.7 230.62 667.71 230.92 667.71 231.28C667.75 231.78 667.77 232.16 667.79 232.42C667.73 232.64 667.5 232.84 667.11 233.02C666.72 233.2 666.31 233.29 665.89 233.28H665.87ZM667.71 220.43L671.52 220.45L671.54 217.33L667.73 217.31L667.71 220.43ZM667.73 216.44L671.54 216.46L671.56 213.4L667.75 213.38L667.73 216.44Z" fill="black"/>
<path d="M695.83 237.11C695.43 237.11 695.23 236.91 695.23 236.51C695.31 235.59 695.39 234.35 695.46 232.79V230.6C692.68 233.34 688.65 235.35 683.39 236.62L683.18 236.14C687.53 234.53 690.88 232.34 693.23 229.57L688.79 229.54C687.37 229.55 685.87 229.68 684.29 229.93L683.52 228.4C684.62 228.53 685.95 228.61 687.51 228.66L695.48 228.71L695.5 226.07C694.38 226.58 693.04 227 691.48 227.31L691.18 226.83C692.86 226.38 694.17 225.76 695.12 224.96C696.02 224.21 696.67 223.25 697.05 222.09H695.94C695.32 222.1 694.68 222.24 694.02 222.49L693.25 220.96C694.01 221.08 694.93 221.17 696.01 221.22H697.3C697.5 220.35 697.64 219.34 697.71 218.2H696.75C696.25 218.21 695.75 218.35 695.25 218.61L694.48 217.11C695.58 217.24 696.91 217.32 698.47 217.37L703.39 217.4L703.69 217.04C703.31 217.12 702.94 217.01 702.58 216.7C702.51 215.74 702.08 214.72 701.31 213.63H699.39C698.2 214.97 696.93 216.04 695.56 216.83L695.2 216.44C695.68 215.92 696.09 215.45 696.41 215.01C696.97 214.23 697.52 213.26 698.05 212.08C698.54 210.96 698.86 209.98 699.03 209.12C700.55 209.73 701.48 210.16 701.84 210.43C702.12 210.65 702.1 210.81 701.78 210.91L701.24 211.09C700.86 211.71 700.47 212.27 700.09 212.76L706 212.79L706.63 211.89C706.67 211.83 706.74 211.74 706.84 211.62C707.14 211.18 707.35 210.96 707.47 210.96C707.67 210.96 708.14 211.28 708.87 211.91C709.61 212.54 709.97 212.97 709.97 213.19C709.89 213.51 709.65 213.67 709.25 213.67L702.95 213.63C703.59 213.97 704.04 214.4 704.32 214.9C704.56 215.32 704.63 215.73 704.55 216.13C705.56 216.98 706.18 217.56 706.4 217.88C706.56 218.14 706.51 218.31 706.25 218.39L705.8 218.51L705.77 223.82C705.77 223.98 705.8 224.08 705.86 224.12C705.92 224.16 706.05 224.18 706.25 224.18H707.09H707.87C708.03 224.18 708.16 224.1 708.26 223.94C708.38 223.74 708.61 222.96 708.93 221.61C708.99 221.39 709.03 221.22 709.05 221.1H709.41L709.48 224.01C709.92 224.19 710.14 224.49 710.13 224.91C710.13 225.37 709.89 225.7 709.4 225.9C708.9 226.12 708.06 226.22 706.88 226.22H705.53C704.69 226.21 704.15 226.05 703.91 225.75C703.69 225.51 703.59 225.01 703.59 224.25V221.73C703.52 221.99 703.28 222.12 702.88 222.12L699.19 222.1C698.58 223.78 697.45 225.04 695.81 225.89C697.15 226.24 697.98 226.52 698.29 226.74C698.53 226.92 698.51 227.1 698.23 227.28L697.75 227.58V228.72L705.54 228.77L706.18 227.87C706.24 227.81 706.32 227.71 706.42 227.57C706.72 227.17 706.93 226.97 707.05 226.97C707.25 226.97 707.73 227.28 708.48 227.91C709.24 228.53 709.61 228.96 709.61 229.18C709.55 229.5 709.31 229.66 708.89 229.66L698.79 229.6C700.08 230.65 701.81 231.59 703.96 232.42C705.96 233.17 708 233.71 710.1 234.04L710.07 234.37C709.07 234.6 708.43 235.32 708.14 236.52C705.99 235.85 704.03 234.95 702.28 233.82C700.43 232.59 698.95 231.18 697.84 229.6H697.75L697.74 231.88C697.77 233.76 697.82 235.23 697.89 236.29C697.79 236.49 697.54 236.68 697.14 236.86C696.7 237.04 696.26 237.12 695.82 237.12L695.83 237.11ZM683.65 217.61L683.29 217.25C683.89 216.67 684.52 215.93 685.16 215.01C685.72 214.21 686.25 213.23 686.75 212.07C687.25 210.9 687.58 209.9 687.74 209.06C689.25 209.75 690.2 210.23 690.58 210.52C690.86 210.76 690.83 210.92 690.49 211L689.92 211.15C689.6 211.71 689.27 212.23 688.95 212.7L693.75 212.73L694.32 211.89C694.38 211.81 694.46 211.7 694.56 211.56C694.82 211.2 695.01 211.02 695.13 211.02C695.33 211.02 695.75 211.32 696.38 211.91C697.02 212.5 697.33 212.91 697.33 213.13C697.25 213.45 697 213.61 696.58 213.61L691.12 213.58C692.02 214.12 692.52 214.75 692.64 215.45C692.76 216.05 692.58 216.49 692.12 216.78C691.66 217.07 691.18 216.98 690.68 216.52C690.67 215.62 690.37 214.64 689.8 213.58H688.3C686.97 215.26 685.41 216.61 683.63 217.62L683.65 217.61ZM685.06 227.09L683.76 224.47C684.4 224.39 685.85 224.18 688.11 223.84C688.27 223.82 688.39 223.8 688.47 223.78L688.5 219.07H687.24C686.56 219.07 685.84 219.21 685.08 219.47L684.31 217.94C685.41 218.07 686.74 218.15 688.3 218.2L691.33 218.22L691.87 217.44C691.91 217.38 691.97 217.3 692.05 217.2C692.33 216.82 692.53 216.63 692.65 216.63C692.85 216.63 693.28 216.91 693.93 217.46C694.59 218.01 694.91 218.4 694.91 218.62C694.89 218.94 694.65 219.1 694.19 219.1L690.65 219.08L690.63 223.4C691.17 223.32 692.01 223.18 693.15 222.96C693.85 222.84 694.37 222.76 694.71 222.7L694.8 223.15C691.73 224.33 688.71 225.42 685.73 226.43C685.61 226.81 685.39 227.03 685.07 227.09H685.06ZM703.62 221.62L703.64 218.23L699.95 218.21C699.84 219.49 699.69 220.5 699.48 221.24H700.44L701.56 219.69C702.26 220.33 702.94 220.98 703.62 221.62Z" fill="black"/>
<path d="M7.429 102V96.037C13.125 89.54 18.643 83.043 23.004 77.97C32.616 66.845 36.621 60.704 36.621 52.16C36.621 43.171 32.171 38.098 24.606 38.098C21.669 38.098 18.643 38.81 15.35 40.679L19.266 38.276L17.13 47.354C16.24 51.804 14.193 53.05 11.879 53.05C9.832 53.05 8.141 51.804 7.429 49.846C8.497 40.234 17.753 35.25 27.81 35.25C40.626 35.25 46.856 42.014 46.856 52.605C46.856 61.327 40.359 68.002 25.674 81.53C22.737 84.289 17.219 89.896 11.701 95.503L12.591 92.477V93.99H49.17V102H7.429ZM59.236 102V99.419L71.429 97.906H80.507L91.721 99.597V102.178L59.236 102ZM70.539 102C70.717 95.147 70.806 88.116 70.806 81.352V41.836L58.969 43.616V40.768L79.884 35.606L81.219 36.585L80.863 50.825V81.352C80.863 88.116 81.041 95.147 81.219 102H70.539ZM109.857 76.19C106.119 76.19 103.36 73.253 103.36 69.693C103.36 66.133 106.119 63.196 109.857 63.196C113.595 63.196 116.354 66.133 116.354 69.693C116.354 73.253 113.595 76.19 109.857 76.19ZM130.152 102V96.037C135.848 89.54 141.366 83.043 145.727 77.97C155.339 66.845 159.344 60.704 159.344 52.16C159.344 43.171 154.894 38.098 147.329 38.098C144.392 38.098 141.366 38.81 138.073 40.679L141.989 38.276L139.853 47.354C138.963 51.804 136.916 53.05 134.602 53.05C132.555 53.05 130.864 51.804 130.152 49.846C131.22 40.234 140.476 35.25 150.533 35.25C163.349 35.25 169.579 42.014 169.579 52.605C169.579 61.327 163.082 68.002 148.397 81.53C145.46 84.289 139.942 89.896 134.424 95.503L135.314 92.477V93.99H171.893V102H130.152ZM189.613 102L188.901 101.288L218.182 41.569L217.114 46.197V44.684H181.336V36.585H221.386V41.747L198.157 102H189.613ZM241.792 76.19C238.054 76.19 235.295 73.253 235.295 69.693C235.295 66.133 238.054 63.196 241.792 63.196C245.53 63.196 248.289 66.133 248.289 69.693C248.289 73.253 245.53 76.19 241.792 76.19ZM280.332 103.424C268.851 103.424 261.998 98.529 260.574 89.629C261.286 87.404 263.066 86.336 265.024 86.336C267.694 86.336 269.296 87.76 270.097 92.121L272.233 100.932L268.406 98.173C271.254 99.686 273.746 100.487 277.306 100.487C286.918 100.487 292.347 94.791 292.347 85.179C292.347 75.033 287.096 69.426 277.039 69.426H273.212V66.222H276.594C284.96 66.222 290.745 61.149 290.745 51.27C290.745 42.815 286.473 38.098 279.175 38.098C276.149 38.098 273.212 38.721 269.741 40.323L274.28 37.92L272.144 46.286C271.343 49.935 269.385 51.092 266.893 51.092C265.113 51.092 263.6 50.291 262.888 48.689C263.956 39.166 272.411 35.25 281.756 35.25C294.127 35.25 300.802 41.658 300.802 50.914C300.802 59.636 294.661 66.756 280.777 68.269V67.112C296.352 67.913 302.76 74.944 302.76 85.268C302.76 96.126 293.86 103.424 280.332 103.424ZM338.015 103.513V83.488V41.925H336.769L339.973 40.679L327.513 60.081L314.074 80.907L314.875 77.614V79.038H357.328V85.713H311.048V80.284L340.151 35.517H347.004V103.513H338.015ZM389.916 34.805H430.678L435.662 28.308C435.662 28.308 441.269 32.847 444.651 35.962C444.384 36.941 443.494 37.386 442.248 37.386H390.628L389.916 34.805ZM387.068 72.719H432.191L437.353 65.955C437.353 65.955 443.227 70.583 446.698 73.876C446.431 74.855 445.541 75.3 444.295 75.3H387.78L387.068 72.719ZM411.899 34.805H420.443V107.607C420.354 108.23 417.684 110.099 413.412 110.099H411.899V34.805ZM395.434 42.726C414.391 57.233 406.381 73.609 399.172 66.044C399.261 58.657 396.68 49.668 394.277 43.082L395.434 42.726ZM430.678 42.281L442.604 46.108C442.159 47.087 441.091 47.888 439.222 47.888C435.306 55.364 430.233 63.196 425.338 68.447L424.003 67.824C426.228 61.238 428.898 51.092 430.678 42.281ZM362.593 53.673H383.241L387.424 47.087C387.424 47.087 392.141 51.715 394.722 54.83C394.544 55.809 393.654 56.254 392.497 56.254H363.305L362.593 53.673ZM373.362 30.177L384.932 31.334C384.754 32.58 384.042 33.47 381.728 33.737V86.425L373.362 89.006V30.177ZM361.525 89.54C366.954 88.116 380.66 83.666 394.188 78.86L394.633 79.928C388.759 84.022 380.126 89.896 368.2 97.105C367.933 98.262 367.221 99.241 366.242 99.597L361.525 89.54ZM476.417 102V96.037C482.113 89.54 487.631 83.043 491.992 77.97C501.604 66.845 505.609 60.704 505.609 52.16C505.609 43.171 501.159 38.098 493.594 38.098C490.657 38.098 487.631 38.81 484.338 40.679L488.254 38.276L486.118 47.354C485.228 51.804 483.181 53.05 480.867 53.05C478.82 53.05 477.129 51.804 476.417 49.846C477.485 40.234 486.741 35.25 496.798 35.25C509.614 35.25 515.844 42.014 515.844 52.605C515.844 61.327 509.347 68.002 494.662 81.53C491.725 84.289 486.207 89.896 480.689 95.503L481.579 92.477V93.99H518.158V102H476.417ZM550.474 66.489C553.767 69.426 556.348 70.939 559.552 70.939C563.379 70.939 565.96 68.447 566.672 61.149L570.677 61.683C570.232 70.85 565.604 75.122 559.018 75.122C554.568 75.122 551.72 73.431 547.626 69.782C543.888 66.578 541.841 65.332 538.815 65.332C534.721 65.332 532.051 68.002 531.339 75.211L527.334 74.677C527.69 65.421 532.496 61.06 539.082 61.06C543.532 61.06 546.558 63.196 550.474 66.489ZM598.959 103.424C587.478 103.424 580.625 98.529 579.201 89.629C579.913 87.404 581.693 86.336 583.651 86.336C586.321 86.336 587.923 87.76 588.724 92.121L590.86 100.932L587.033 98.173C589.881 99.686 592.373 100.487 595.933 100.487C605.545 100.487 610.974 94.791 610.974 85.179C610.974 75.033 605.723 69.426 595.666 69.426H591.839V66.222H595.221C603.587 66.222 609.372 61.149 609.372 51.27C609.372 42.815 605.1 38.098 597.802 38.098C594.776 38.098 591.839 38.721 588.368 40.323L592.907 37.92L590.771 46.286C589.97 49.935 588.012 51.092 585.52 51.092C583.74 51.092 582.227 50.291 581.515 48.689C582.583 39.166 591.038 35.25 600.383 35.25C612.754 35.25 619.429 41.658 619.429 50.914C619.429 59.636 613.288 66.756 599.404 68.269V67.112C614.979 67.913 621.387 74.944 621.387 85.268C621.387 96.126 612.487 103.424 598.959 103.424ZM671.594 60.793C690.017 61.861 683.609 75.211 676.311 70.672C675.51 67.468 672.84 63.552 670.793 61.327L671.594 60.793ZM699.807 56.699V59.28H645.072V56.699H699.807ZM705.236 35.428C704.257 36.229 702.477 36.229 699.896 35.072C685.389 36.763 663.228 38.009 644.627 37.742L644.36 36.229C662.071 34.449 684.944 30.266 696.959 26.884L705.236 35.428ZM638.664 35.695V32.847L648.454 36.585H647.03V59.369C647.03 74.855 646.14 95.414 630.654 109.209L629.586 108.497C637.952 93.99 638.664 75.834 638.664 59.369V35.695ZM698.65 43.883V46.464H644.36V43.883H698.65ZM694.734 43.883L698.739 39.433L707.639 46.108C707.105 46.731 705.859 47.443 704.168 47.799V60.348C704.079 60.971 699.807 62.662 696.959 62.662H695.535V43.883H694.734ZM672.84 72.63C671.683 86.514 668.657 100.22 643.559 109.476L642.58 108.141C661.715 97.461 662.783 84.734 663.228 72.63H672.84ZM692.064 82.954L696.514 78.771L704.702 85.446C704.079 86.158 703.011 86.603 701.231 86.781C700.252 97.194 698.205 103.958 694.289 106.45C691.886 108.052 688.593 108.942 684.41 108.942C684.41 106.628 684.143 104.492 682.719 103.335C681.384 102.089 678.269 101.11 674.798 100.487V99.152C678.269 99.508 684.321 99.953 686.012 99.953C687.525 99.953 688.326 99.775 689.038 99.241C690.818 97.906 692.242 91.765 693.043 82.954H692.064ZM696.425 82.954V85.535H667.055L668.034 82.954H696.425ZM701.587 65.688C701.587 65.688 706.838 69.693 710.131 72.719C709.864 73.698 708.974 74.143 707.728 74.143H650.59L649.878 71.562H696.87L701.587 65.688Z" fill="black"/>
<path d="M43.075 131.957C42.969 132.54 42.598 132.964 41.591 133.07V145.79C41.591 146.161 39.312 147.062 37.51 147.062H36.556V131.321L43.075 131.957ZM20.55 132.01C20.444 132.593 20.126 133.017 19.066 133.176V146.214C19.066 146.585 16.84 147.486 14.985 147.486H14.084V131.427L20.55 132.01ZM37.51 151.408L41.008 148.334L46.414 153.051C45.99 153.581 45.46 153.687 44.082 153.74C37.881 160.63 27.493 166.619 16.681 169.852L16.257 169.163C24.472 164.87 33.747 157.768 38.146 151.408H37.51ZM41.909 151.408V152.945H9.632L9.155 151.408H41.909ZM16.522 168.58C17.476 168.58 17.847 168.739 18.536 169.269C22.511 172.873 28.182 173.774 37.987 173.774C43.393 173.774 47.951 173.721 53.41 173.456V174.092C51.237 174.516 50.071 176.583 49.806 178.862C46.149 178.862 40.849 178.862 36.291 178.862C26.433 178.862 22.034 176.583 17.794 171.071C17.052 170.117 16.522 170.276 15.939 171.071C14.879 172.661 12.494 175.947 10.904 178.597C11.063 179.074 10.851 179.445 10.427 179.71L6.505 173.933C10.003 172.184 15.303 168.58 16.522 168.58ZM23.147 143.246C35.443 145.366 30.938 154.482 26.38 151.09C26.115 148.44 24.366 145.366 22.617 143.617L23.147 143.246ZM48.11 134.872C48.11 134.872 51.343 137.522 53.251 139.377C53.092 139.96 52.562 140.225 51.82 140.225H30.355L29.931 138.688H45.248L48.11 134.872ZM23.836 134.978C23.836 134.978 26.963 137.575 28.818 139.377C28.659 139.96 28.129 140.225 27.387 140.225H4.226L3.802 138.688H21.133L23.836 134.978ZM65.918 145.048L67.243 145.843V175.364H67.614L65.759 177.855L59.982 174.781C60.671 174.039 61.996 173.138 62.897 172.82L61.943 174.728V145.048H65.918ZM69.204 144.147C69.098 144.942 68.568 145.472 67.243 145.684V147.486H61.943V143.405L69.204 144.147ZM105.933 144.094C105.827 144.836 105.403 145.366 103.972 145.578V178.809C103.972 179.392 101.693 180.505 99.679 180.505H98.672V143.352L105.933 144.094ZM87.436 133.07C87.33 133.865 86.906 134.342 85.528 134.554V174.622H80.122V132.381L87.436 133.07ZM101.269 173.827V175.364H64.222V173.827H101.269ZM157.025 140.384C157.025 140.384 160.205 142.928 162.06 144.783C161.954 145.366 161.424 145.631 160.682 145.631H146.425V144.094H154.216L157.025 140.384ZM135.083 154.482L140.542 156.602H152.891L155.329 153.74L160.258 157.556C159.887 157.98 159.357 158.298 158.191 158.51V178.703C158.191 178.968 156.442 179.975 154.004 179.975H153.103V158.139H139.906V179.127C139.906 179.551 138.422 180.452 135.931 180.452H135.083V154.482ZM150.983 131.904C150.877 132.646 150.4 133.176 149.022 133.388V157.397H144.093V131.268L150.983 131.904ZM154.64 174.728V176.265H138.104V174.728H154.64ZM119.342 131.374C131.585 136.515 126.55 145.631 122.098 141.603C121.833 138.317 120.19 134.395 118.759 131.639L119.342 131.374ZM134.341 149.023C134.129 149.659 133.599 150.136 132.327 150.136C130.737 155.913 127.716 164.87 124.801 171.707H123.9C125.225 164.446 126.709 154.217 127.504 147.115L134.341 149.023ZM115.95 147.804C127.61 160.418 120.826 170.7 117.911 165.771C117.964 161.478 117.593 153.687 115.208 148.122L115.95 147.804ZM112.717 171.972C116.374 171.336 125.278 169.269 134.235 167.043L134.394 167.732C130.472 169.799 124.801 172.82 116.745 176.424C116.533 177.06 116.056 177.59 115.473 177.749L112.717 171.972ZM131.691 139.642C131.691 139.642 134.924 142.504 136.673 144.412C136.514 144.995 136.037 145.26 135.295 145.26H113.247L112.823 143.723H128.935L131.691 139.642ZM174.515 160.63C172.289 160.63 170.646 158.881 170.646 156.761C170.646 154.641 172.289 152.892 174.515 152.892C176.741 152.892 178.384 154.641 178.384 156.761C178.384 158.881 176.741 160.63 174.515 160.63ZM199.321 176.954C194.975 176.954 190.523 175.682 187.714 173.88L188.032 165.453H190.576L192.802 174.94L189.887 173.668L189.463 171.813C192.908 174.251 195.134 174.887 198.791 174.887C204.356 174.887 207.801 172.343 207.801 167.626C207.801 163.863 206.105 161.902 200.911 159.676L198.526 158.669C191.901 155.807 188.456 152.415 188.456 146.638C188.456 139.801 194.074 136.091 201.6 136.091C205.681 136.091 208.914 137.204 211.617 139.059L211.299 147.009H208.702L206.582 137.946L209.603 139.324L209.921 141.232C207.059 138.953 205.204 138.158 202.183 138.158C197.36 138.158 193.968 140.49 193.968 144.889C193.968 148.758 196.3 150.878 200.328 152.574L202.872 153.687C210.875 157.132 213.525 160.153 213.525 165.771C213.525 172.555 208.119 176.954 199.321 176.954ZM238.218 176.954C228.625 176.954 220.357 169.693 220.357 156.549C220.357 143.564 228.625 136.091 238.218 136.091C247.864 136.091 256.132 143.405 256.132 156.549C256.132 169.587 247.864 176.954 238.218 176.954ZM238.218 175.046C245.691 175.046 249.401 166.884 249.401 156.549C249.401 146.267 245.691 138.052 238.218 138.052C230.798 138.052 227.035 146.267 227.035 156.549C227.035 166.884 230.798 175.046 238.218 175.046ZM283.957 176.954C271.979 176.954 263.923 168.951 263.923 156.443C263.923 144.147 272.191 136.091 284.222 136.091C288.886 136.091 292.384 137.204 295.67 139.112V148.016H292.914L290.582 138.052L293.974 139.324V141.391C290.953 139.006 288.515 138.052 284.964 138.052C276.696 138.052 270.601 144.518 270.601 156.549C270.601 167.997 276.431 175.046 284.646 175.046C287.614 175.046 290.105 174.41 292.755 173.085L290.476 174.675V170.7C290.476 166.142 290.423 161.796 290.264 157.185H296.677C296.571 161.425 296.465 165.718 296.465 170.859V173.509C292.384 175.947 288.727 176.954 283.957 176.954ZM284.328 158.828V157.185H300.228V158.828L294.133 159.57H291.748L284.328 158.828ZM323.693 176.954C314.1 176.954 305.832 169.693 305.832 156.549C305.832 143.564 314.1 136.091 323.693 136.091C333.339 136.091 341.607 143.405 341.607 156.549C341.607 169.587 333.339 176.954 323.693 176.954ZM323.693 175.046C331.166 175.046 334.876 166.884 334.876 156.549C334.876 146.267 331.166 138.052 323.693 138.052C316.273 138.052 312.51 146.267 312.51 156.549C312.51 166.884 316.273 175.046 323.693 175.046ZM368.602 150.56C379.944 152.097 375.227 160.206 370.881 156.92C370.669 154.8 369.291 152.309 368.125 150.878L368.602 150.56ZM368.019 131.268C379.891 131.904 375.863 140.914 371.252 137.893C370.934 135.667 369.185 133.017 367.542 131.639L368.019 131.268ZM353.868 146.267C355.193 150.825 354.292 154.164 352.596 155.595C351.43 156.549 348.992 156.443 348.303 154.8C347.773 153.316 348.568 151.938 349.946 151.143C351.271 150.295 353.02 148.069 353.02 146.214L353.868 146.267ZM370.245 158.563C369.45 167.096 367.33 175.152 349.31 180.558L348.78 179.763C363.09 173.456 363.938 165.93 364.256 158.563H370.245ZM381.428 164.446L384.078 161.849L389.007 165.93C388.689 166.354 388 166.619 386.94 166.778C386.516 173.827 385.403 177.908 383.177 179.498C381.746 180.452 379.891 180.929 377.241 180.929C377.241 179.551 377.029 178.332 376.181 177.537C375.386 176.795 373.478 176.159 371.411 175.788V175.046C373.531 175.205 377.135 175.47 378.142 175.47C378.99 175.47 379.414 175.364 379.838 175.099C380.845 174.251 381.587 170.435 381.958 164.446H381.428ZM360.97 140.437C372.047 142.981 367.33 150.931 363.143 147.486C362.984 145.154 361.659 142.398 360.44 140.755L360.97 140.437ZM386.463 142.451C386.198 143.034 385.562 143.458 384.449 143.299C382.753 145.101 380.103 147.486 377.612 149.288H376.764C377.718 146.744 378.725 142.822 379.255 140.172L386.463 142.451ZM388.848 148.546L391.71 145.79L396.586 150.507C396.162 150.878 395.579 150.984 394.519 151.037C392.611 152.256 389.325 154.27 387.258 155.277L386.675 154.959C387.47 153.316 388.795 150.189 389.431 148.546H388.848ZM383.972 164.446V165.983H366.482L367.277 164.446H383.972ZM389.749 134.66C389.749 134.66 393.247 137.363 395.314 139.271C395.208 139.854 394.678 140.119 393.883 140.119H350.264L349.84 138.582H386.675L389.749 134.66ZM389.855 154.429C389.855 154.429 393.035 156.814 394.996 158.563C394.837 159.146 394.307 159.411 393.565 159.411H350.211L349.787 157.874H387.046L389.855 154.429ZM392.028 148.546V150.083H352.702V148.546H392.028ZM432.528 177.024C424.272 177.024 419.344 173.504 418.32 167.104C418.832 165.504 420.112 164.736 421.52 164.736C423.44 164.736 424.592 165.76 425.168 168.896L426.704 175.232L423.952 173.248C426 174.336 427.792 174.912 430.352 174.912C437.264 174.912 441.168 170.816 441.168 163.904C441.168 156.608 437.392 152.576 430.16 152.576H427.408V150.272H429.84C435.856 150.272 440.016 146.624 440.016 139.52C440.016 133.44 436.944 130.048 431.696 130.048C429.52 130.048 427.408 130.496 424.912 131.648L428.176 129.92L426.64 135.936C426.064 138.56 424.656 139.392 422.864 139.392C421.584 139.392 420.496 138.816 419.984 137.664C420.752 130.816 426.832 128 433.552 128C442.448 128 447.248 132.608 447.248 139.264C447.248 145.536 442.832 150.656 432.848 151.744V150.912C444.048 151.488 448.656 156.544 448.656 163.968C448.656 171.776 442.256 177.024 432.528 177.024ZM474.14 160.312C470.589 166.142 464.176 173.138 456.65 177.166L456.12 176.636C461.897 171.442 467.356 162.326 469.317 156.443L476.419 159.252C476.207 159.888 475.624 160.312 474.14 160.312ZM486.701 157.344C507.795 165.771 504.774 178.332 498.679 174.41C496.559 169.057 490.623 162.22 486.118 157.768L486.701 157.344ZM502.124 137.363C501.806 137.893 501.064 138.317 499.898 138.105C496.294 142.504 491.789 146.426 487.496 148.864L486.913 148.334C489.563 144.995 492.902 139.324 495.181 133.918L502.124 137.363ZM461.579 134.872C478.115 141.126 474.67 151.885 469.476 148.281C468.151 144.041 464.07 138.741 460.996 135.243L461.579 134.872ZM485.429 132.063C485.27 132.805 484.899 133.282 483.468 133.494V178.756C483.468 179.339 481.189 180.558 479.122 180.558H478.009V131.268L485.429 132.063ZM499.05 147.433C499.05 147.433 502.866 150.454 505.198 152.521C505.039 153.104 504.509 153.369 503.714 153.369H457.551L457.074 151.832H495.658L499.05 147.433ZM527.851 177.008C518.149 177.008 512.101 169.889 512.101 158.297C512.101 143.366 523.315 130.577 540.577 128.75L540.892 130.199C526.717 133.286 519.409 143.933 519.409 157.163C519.409 168.944 522.685 174.929 527.914 174.929C532.198 174.929 535.537 170.834 535.537 162.455C535.537 154.895 532.639 150.863 527.662 150.863C524.449 150.863 521.551 152.06 518.653 155.336L517.456 154.517H517.96C521.047 150.107 525.205 147.902 530.245 147.902C538.057 147.902 542.593 153.572 542.593 161.888C542.593 170.582 536.608 177.008 527.851 177.008ZM584.752 134.925L587.19 132.381L591.748 136.197C591.43 136.568 590.741 136.78 589.787 136.939V146.691C589.787 147.221 589.946 147.486 590.688 147.486H592.384C593.02 147.486 593.656 147.433 594.027 147.433C594.292 147.433 594.716 147.38 594.981 147.38C595.299 147.327 595.723 147.274 596.041 147.168H596.518L596.73 147.221C597.949 147.751 598.373 148.175 598.373 149.076C598.373 150.878 596.783 151.832 591.801 151.832H589.257C585.759 151.832 585.282 150.825 585.282 147.91V134.925H584.752ZM587.773 134.925V136.462H576.59V134.925H587.773ZM573.834 134.395V132.805L579.24 134.925H578.445V139.165C578.445 143.67 577.544 150.666 568.799 154.8L568.322 154.164C573.251 149.606 573.834 143.935 573.834 139.165V134.395ZM574.205 155.807C577.597 167.096 586.66 172.608 598.426 175.046L598.32 175.682C596.253 176.053 594.769 177.59 594.08 179.922C582.95 175.947 576.272 169.375 573.357 156.231L574.205 155.807ZM587.72 155.648L590.688 152.839L595.405 157.185C595.034 157.715 594.451 157.874 593.179 157.927C588.727 168.739 580.141 176.689 564.93 180.399L564.559 179.657C577.173 174.94 585.123 166.407 588.356 155.648H587.72ZM590.741 155.648V157.185H570.813L570.336 155.648H590.741ZM555.178 131.851C567.527 133.494 563.34 142.61 558.623 139.43C558.199 136.886 556.344 133.918 554.701 132.169L555.178 131.851ZM565.46 173.774V175.311H554.648V173.774H565.46ZM563.234 162.061L565.513 159.623L570.336 163.333C570.018 163.757 569.276 164.128 568.269 164.34V176.848C568.216 177.219 566.043 178.226 564.506 178.226H563.764V162.061H563.234ZM556.609 178.65C556.609 179.127 554.701 180.134 552.793 180.134H552.104V160.1L556.821 162.061H565.407V163.598H556.609V178.65ZM567.739 137.681C567.739 137.681 570.601 139.907 572.35 141.55C572.191 142.133 571.661 142.398 570.919 142.398H549.931L549.507 140.861H565.195L567.739 137.681ZM565.407 152.044C565.407 152.044 568.11 154.164 569.753 155.754C569.594 156.337 569.117 156.602 568.375 156.602H551.839L551.415 155.065H563.075L565.407 152.044ZM565.407 144.995C565.407 144.995 568.11 147.062 569.753 148.652C569.594 149.235 569.117 149.5 568.375 149.5H551.839L551.415 147.963H563.075L565.407 144.995ZM647.716 146.638C647.716 146.638 650.949 149.182 652.857 151.037C652.698 151.62 652.168 151.885 651.426 151.885H627.894L627.47 150.348H644.907L647.716 146.638ZM643.317 132.169C643.211 132.911 642.787 133.441 641.409 133.653V178.491C641.409 179.127 639.289 180.346 637.381 180.346H636.427V131.48L643.317 132.169ZM611.676 131.533C624.184 133.282 619.785 142.875 614.962 139.483C614.644 136.78 612.895 133.653 611.199 131.851L611.676 131.533ZM622.594 173.562V175.099H610.033V173.562H622.594ZM620.474 161.902L622.806 159.305L627.788 163.174C627.47 163.545 626.675 163.969 625.615 164.181V176.53C625.562 176.901 623.283 177.908 621.746 177.908H621.004V161.902H620.474ZM611.676 178.226C611.676 178.703 609.715 179.71 607.754 179.71H607.118V159.835L611.941 161.902H622.435V163.439H611.676V178.226ZM625.297 137.363C625.297 137.363 628.424 139.801 630.332 141.55C630.173 142.133 629.643 142.398 628.901 142.398H604.521L604.097 140.861H622.541L625.297 137.363ZM622.912 151.355C622.912 151.355 625.933 153.687 627.735 155.383C627.576 155.966 627.046 156.231 626.357 156.231H606.853L606.429 154.694H620.315L622.912 151.355ZM622.912 144.465C622.912 144.465 625.933 146.744 627.735 148.493C627.576 149.076 627.046 149.341 626.357 149.341H606.853L606.429 147.804H620.315L622.912 144.465ZM673.686 179.021C673.686 179.339 672.202 180.452 669.764 180.452H668.916V160.153H673.686V179.021ZM698.172 147.804C698.013 148.493 697.377 149.023 696.105 148.97C695.416 160.736 694.462 171.972 680.258 180.611L679.569 179.763C690.487 170.17 691.388 158.934 691.6 146.267L698.172 147.804ZM695.999 148.175C696.741 160.577 699.444 169.534 708.189 174.834L708.083 175.47C705.698 176.053 704.267 177.59 703.79 180.558C697.112 174.569 695.575 162.008 695.098 148.334L695.999 148.175ZM695.946 132.805C695.787 133.441 695.151 133.918 693.985 133.971C691.812 142.504 688.473 149.924 683.703 154.906L682.961 154.429C685.77 148.44 688.102 139.642 689.003 131.056L695.946 132.805ZM701.352 140.861L704.002 138.264L708.613 142.716C708.189 143.087 707.606 143.246 706.546 143.299C704.956 146.161 701.935 150.507 699.656 153.157L698.967 152.786C700.08 149.5 701.458 143.935 701.988 140.861H701.352ZM704.32 140.861V142.398H688.579L689.056 140.861H704.32ZM668.598 165.506C668.439 166.142 667.803 166.619 666.637 166.619C664.782 171.389 661.973 175.364 658.687 177.855L657.945 177.431C659.906 173.986 661.549 168.898 662.291 163.81L668.598 165.506ZM675.541 131.798C675.488 132.54 675.011 133.017 673.633 133.229V146.055H668.81V131.162L675.541 131.798ZM680.523 156.231C680.523 156.231 683.65 158.669 685.611 160.418C685.452 161.001 684.922 161.266 684.18 161.266H658.899L658.475 159.729H677.767L680.523 156.231ZM677.396 149.023C677.396 149.023 680.364 151.302 682.166 152.998C682.06 153.581 681.53 153.846 680.841 153.846H661.337L660.913 152.309H674.746L677.396 149.023ZM678.827 142.239C678.827 142.239 681.689 144.465 683.491 146.108C683.332 146.691 682.802 146.956 682.06 146.956H660.595L660.171 145.419H676.283L678.827 142.239ZM680.205 134.236C680.205 134.236 683.226 136.621 685.134 138.37C684.975 138.953 684.445 139.218 683.703 139.218H659.005L658.581 137.681H677.502L680.205 134.236ZM675.753 164.181C687.731 167.997 683.385 176.742 679.145 173.191C678.986 170.223 677.025 166.725 675.17 164.552L675.753 164.181Z" fill="black"/>
<path d="M6.161 284V277.233C12.625 269.86 18.887 262.487 23.836 256.73C34.744 244.105 39.289 237.136 39.289 227.44C39.289 217.239 34.239 211.482 25.654 211.482C22.321 211.482 18.887 212.29 15.15 214.411L19.594 211.684L17.17 221.986C16.16 227.036 13.837 228.45 11.211 228.45C8.888 228.45 6.969 227.036 6.161 224.814C7.373 213.906 17.877 208.25 29.29 208.25C43.834 208.25 50.904 215.926 50.904 227.945C50.904 237.843 43.531 245.418 26.866 260.77C23.533 263.901 17.271 270.264 11.009 276.627L12.019 273.193V274.91H53.53V284H6.161ZM89.7993 285.616C74.7503 285.616 67.0743 278.344 67.0743 268.042C67.0743 258.75 73.5383 252.387 85.8603 247.842V247.236L87.6783 248.65C79.8003 254.003 76.6693 259.053 76.6693 266.729C76.6693 276.829 81.8203 282.283 90.5063 282.283C99.1923 282.283 104.04 277.233 104.04 269.153C104.04 261.679 99.8993 255.619 85.9613 249.559C74.2453 244.509 68.9933 236.833 68.9933 227.339C68.9933 215.623 78.5883 208.25 91.0113 208.25C104.545 208.25 111.615 215.724 111.615 225.319C111.615 232.49 107.07 239.358 94.4453 244.408V244.812L92.9303 243.701C99.6973 238.348 102.424 232.894 102.424 225.016C102.424 217.441 98.2833 211.583 90.8093 211.583C84.4463 211.583 78.7903 216.229 78.7903 223.905C78.7903 230.672 81.9213 236.934 94.9503 242.59C108.686 248.65 114.443 255.619 114.443 265.517C114.443 277.637 105.252 285.616 89.7993 285.616ZM149.905 285.616C136.876 285.616 129.099 280.061 127.483 269.961C128.291 267.436 130.311 266.224 132.533 266.224C135.563 266.224 137.381 267.84 138.29 272.789L140.714 282.788L136.371 279.657C139.603 281.374 142.431 282.283 146.471 282.283C157.379 282.283 163.54 275.819 163.54 264.911C163.54 253.397 157.581 247.034 146.168 247.034H141.825V243.398H145.663C155.157 243.398 161.722 237.641 161.722 226.43C161.722 216.835 156.874 211.482 148.592 211.482C145.158 211.482 141.825 212.189 137.886 214.007L143.037 211.28L140.613 220.774C139.704 224.915 137.482 226.228 134.654 226.228C132.634 226.228 130.917 225.319 130.109 223.501C131.321 212.694 140.916 208.25 151.521 208.25C165.56 208.25 173.135 215.522 173.135 226.026C173.135 235.924 166.166 244.004 150.41 245.721V244.408C168.085 245.317 175.357 253.296 175.357 265.012C175.357 277.334 165.257 285.616 149.905 285.616ZM211.325 285.616C198.296 285.616 190.519 280.061 188.903 269.961C189.711 267.436 191.731 266.224 193.953 266.224C196.983 266.224 198.801 267.84 199.71 272.789L202.134 282.788L197.791 279.657C201.023 281.374 203.851 282.283 207.891 282.283C218.799 282.283 224.96 275.819 224.96 264.911C224.96 253.397 219.001 247.034 207.588 247.034H203.245V243.398H207.083C216.577 243.398 223.142 237.641 223.142 226.43C223.142 216.835 218.294 211.482 210.012 211.482C206.578 211.482 203.245 212.189 199.306 214.007L204.457 211.28L202.033 220.774C201.124 224.915 198.902 226.228 196.074 226.228C194.054 226.228 192.337 225.319 191.529 223.501C192.741 212.694 202.336 208.25 212.941 208.25C226.98 208.25 234.555 215.522 234.555 226.026C234.555 235.924 227.586 244.004 211.83 245.721V244.408C229.505 245.317 236.777 253.296 236.777 265.012C236.777 277.334 226.677 285.616 211.325 285.616ZM250.324 259.255V253.296H277.695V259.255H250.324ZM315.406 285.616C299.852 285.616 290.156 274.203 290.156 255.619C290.156 231.682 308.134 211.179 335.808 208.25L336.313 210.573C313.588 215.522 301.872 232.591 301.872 253.801C301.872 272.688 307.124 282.283 315.507 282.283C322.375 282.283 327.728 275.718 327.728 262.285C327.728 250.165 323.082 243.701 315.103 243.701C309.952 243.701 305.306 245.62 300.66 250.872L298.741 249.559H299.549C304.498 242.489 311.164 238.954 319.244 238.954C331.768 238.954 339.04 248.044 339.04 261.376C339.04 275.314 329.445 285.616 315.406 285.616ZM376.925 285.616C361.371 285.616 351.675 274.203 351.675 255.619C351.675 231.682 369.653 211.179 397.327 208.25L397.832 210.573C375.107 215.522 363.391 232.591 363.391 253.801C363.391 272.688 368.643 282.283 377.026 282.283C383.894 282.283 389.247 275.718 389.247 262.285C389.247 250.165 384.601 243.701 376.622 243.701C371.471 243.701 366.825 245.62 362.179 250.872L360.26 249.559H361.068C366.017 242.489 372.683 238.954 380.763 238.954C393.287 238.954 400.559 248.044 400.559 261.376C400.559 275.314 390.964 285.616 376.925 285.616ZM436.525 285.616C421.476 285.616 413.8 278.344 413.8 268.042C413.8 258.75 420.264 252.387 432.586 247.842V247.236L434.404 248.65C426.526 254.003 423.395 259.053 423.395 266.729C423.395 276.829 428.546 282.283 437.232 282.283C445.918 282.283 450.766 277.233 450.766 269.153C450.766 261.679 446.625 255.619 432.687 249.559C420.971 244.509 415.719 236.833 415.719 227.339C415.719 215.623 425.314 208.25 437.737 208.25C451.271 208.25 458.341 215.724 458.341 225.319C458.341 232.49 453.796 239.358 441.171 244.408V244.812L439.656 243.701C446.423 238.348 449.15 232.894 449.15 225.016C449.15 217.441 445.009 211.583 437.535 211.583C431.172 211.583 425.516 216.229 425.516 223.905C425.516 230.672 428.647 236.934 441.676 242.59C455.412 248.65 461.169 255.619 461.169 265.517C461.169 277.637 451.978 285.616 436.525 285.616ZM498.044 285.616C482.995 285.616 475.319 278.344 475.319 268.042C475.319 258.75 481.783 252.387 494.105 247.842V247.236L495.923 248.65C488.045 254.003 484.914 259.053 484.914 266.729C484.914 276.829 490.065 282.283 498.751 282.283C507.437 282.283 512.285 277.233 512.285 269.153C512.285 261.679 508.144 255.619 494.206 249.559C482.49 244.509 477.238 236.833 477.238 227.339C477.238 215.623 486.833 208.25 499.256 208.25C512.79 208.25 519.86 215.724 519.86 225.319C519.86 232.49 515.315 239.358 502.69 244.408V244.812L501.175 243.701C507.942 238.348 510.669 232.894 510.669 225.016C510.669 217.441 506.528 211.583 499.054 211.583C492.691 211.583 487.035 216.229 487.035 223.905C487.035 230.672 490.166 236.934 503.195 242.59C516.931 248.65 522.688 255.619 522.688 265.517C522.688 277.637 513.497 285.616 498.044 285.616Z" fill="#39684F"/>
</svg>
