<svg width="233" height="83" viewBox="0 0 233 83" fill="none" xmlns="http://www.w3.org/2000/svg">
<path d="M10.6388 38.6699H8.84876C8.98876 36.9799 7.99876 36.0099 6.30876 36.0099C4.71876 36.0099 3.50876 36.9199 3.50876 38.4999C3.50876 39.6499 4.28875 40.2099 5.99875 40.6199C8.48876 41.2199 9.76876 42.2899 9.76876 44.3099C9.76876 46.9499 7.47875 48.6399 4.40876 48.6399C1.64876 48.6399 -0.141245 47.1399 0.00875533 44.5599H1.80876C1.88876 46.3299 2.93876 47.3199 4.68876 47.3199C6.43876 47.3199 7.90876 46.3499 7.90876 44.5999C7.90876 43.3199 7.05875 42.6599 5.08876 42.1699C3.06876 41.6599 1.64876 40.8099 1.64876 38.9999C1.64876 36.2999 3.93876 34.6899 6.67876 34.6899C9.41876 34.6899 10.7788 36.3799 10.6388 38.6699Z" fill="#D08421"/>
<path d="M22.6087 41.53H20.8587C20.7787 39.88 20.0587 39.08 18.6587 39.08C16.5187 39.08 14.9087 41.27 14.9087 44.52C14.9087 46.5 15.8987 47.36 17.1587 47.36C18.5787 47.36 19.6887 46.58 20.2887 45.09H22.0387C21.0287 47.48 19.4387 48.64 16.9087 48.64C14.6987 48.64 13.0787 47.26 13.0787 44.58C13.0787 41.12 15.1387 37.8 18.9687 37.8C21.4387 37.8 22.5787 39.28 22.5987 41.53H22.6087Z" fill="#D08421"/>
<path d="M31.9888 37.9701L31.7588 39.2301C30.0288 39.1101 28.5388 40.1401 28.1088 42.4901L27.0788 48.3601H25.4088L27.2388 38.0601H28.9088L28.6188 39.6701L29.7988 38.2901C30.2688 38.0001 30.8288 37.8201 31.3188 37.8201C31.5888 37.8201 31.8088 37.8601 31.9988 37.9601L31.9888 37.9701Z" fill="#D08421"/>
<path d="M43.9687 42.34C43.9687 45.12 42.2387 48.63 38.0487 48.63C34.8587 48.63 33.6387 46.44 33.6387 44.08C33.6387 41.3 35.3687 37.79 39.5587 37.79C42.7487 37.79 43.9687 39.99 43.9687 42.34ZM42.1387 42.38C42.1387 40.57 41.2887 39.08 39.3387 39.08C36.7787 39.08 35.4587 41.7 35.4587 44.05C35.4587 45.86 36.3087 47.35 38.2587 47.35C40.8187 47.35 42.1387 44.73 42.1387 42.38Z" fill="#D08421"/>
<path d="M49.0988 45.4101C48.9988 45.9301 48.9588 46.1901 48.9588 46.4201C48.9588 47.1001 49.3088 47.2201 50.0888 47.1401L49.8788 48.3601C49.4888 48.4201 49.0588 48.4401 48.6788 48.4401C47.7988 48.4401 47.1788 48.1901 47.1788 47.1801C47.1788 46.8901 47.2388 46.5201 47.4288 45.4701L49.4288 34.0901H51.0988L49.0988 45.4101Z" fill="#D08421"/>
<path d="M55.8588 45.4101C55.7588 45.9301 55.7188 46.1901 55.7188 46.4201C55.7188 47.1001 56.0688 47.2201 56.8488 47.1401L56.6388 48.3601C56.2488 48.4201 55.8188 48.4401 55.4388 48.4401C54.5588 48.4401 53.9388 48.1901 53.9388 47.1801C53.9388 46.8901 53.9988 46.5201 54.1888 45.4701L56.1888 34.0901H57.8588L55.8588 45.4101Z" fill="#D08421"/>
<path d="M68.6188 45.35C68.4988 46.01 68.4788 46.24 68.4788 46.42C68.4788 47.16 69.0088 47.33 70.1288 47.14L69.8988 48.36C69.5488 48.46 69.0788 48.52 68.6588 48.52C67.4188 48.52 66.7388 48.07 66.7388 47.02C66.7388 46.75 66.7988 46.26 66.9488 45.43L68.0188 39.43H66.6588L66.8887 38.15H68.2288L68.6588 35.76H70.3288L69.8988 38.15H71.6688L71.4388 39.43H69.6688L68.6188 45.35Z" fill="#D08421"/>
<path d="M84.1788 42.34C84.1788 45.12 82.4488 48.63 78.2588 48.63C75.0688 48.63 73.8488 46.44 73.8488 44.08C73.8488 41.3 75.5788 37.79 79.7688 37.79C82.9588 37.79 84.1788 39.99 84.1788 42.34ZM82.3488 42.38C82.3488 40.57 81.4988 39.08 79.5488 39.08C76.9888 39.08 75.6688 41.7 75.6688 44.05C75.6688 45.86 76.5188 47.35 78.4688 47.35C81.0288 47.35 82.3488 44.73 82.3488 42.38Z" fill="#D08421"/>
<path d="M95.3088 45.35C95.1888 46.01 95.1688 46.24 95.1688 46.42C95.1688 47.16 95.6988 47.33 96.8188 47.14L96.5888 48.36C96.2388 48.46 95.7688 48.52 95.3488 48.52C94.1088 48.52 93.4288 48.07 93.4288 47.02C93.4288 46.75 93.4888 46.26 93.6388 45.43L94.7088 39.43H93.3488L93.5788 38.15H94.9188L95.3488 35.76H97.0188L96.5888 38.15H98.3588L98.1288 39.43H96.3588L95.3088 45.35Z" fill="#D08421"/>
<path d="M110.789 40.44C110.789 40.98 110.769 41.33 110.539 42.58L109.489 48.37H107.819L108.849 42.7C109.009 41.83 109.059 41.32 109.059 40.91C109.059 39.86 108.519 39.08 107.059 39.12C105.429 39.16 103.869 40.32 103.249 43.84L102.449 48.37H100.779L103.309 34H104.979L103.949 39.85L104.799 38.67C105.789 37.99 106.589 37.82 107.639 37.82C109.739 37.82 110.789 38.85 110.789 40.46V40.44Z" fill="#D08421"/>
<path d="M116.089 43.72C116.069 43.99 116.049 44.28 116.049 44.54C116.049 46.5 117.039 47.36 118.379 47.36C119.719 47.36 120.959 46.52 121.449 45.05H123.199C122.359 47.54 120.209 48.64 118.089 48.64C115.779 48.64 114.219 47.2 114.219 44.6C114.219 41.61 115.829 37.8 119.949 37.8C122.359 37.8 123.829 39.32 123.829 41.63C123.829 42.31 123.709 43.11 123.519 43.73H116.079L116.089 43.72ZM116.279 42.44H122.109C122.129 42.19 122.149 41.95 122.149 41.72C122.149 40.03 121.199 39.08 119.699 39.08C117.699 39.08 116.689 40.69 116.279 42.44Z" fill="#D08421"/>
<path d="M142.449 40.4401C142.449 40.9801 142.429 41.3301 142.199 42.5801L141.149 48.3701H139.479L140.509 42.7001C140.669 41.8301 140.719 41.3201 140.719 40.9101C140.719 39.8601 140.179 39.0801 138.719 39.1201C137.089 39.1601 135.529 40.3201 134.909 43.8401L134.109 48.3701H132.439L134.249 38.0701H135.919L135.609 39.8401L136.459 38.6601C137.449 37.9801 138.249 37.8101 139.299 37.8101C141.399 37.8101 142.449 38.8401 142.449 40.4501V40.4401Z" fill="#D08421"/>
<path d="M147.749 43.72C147.729 43.99 147.709 44.28 147.709 44.54C147.709 46.5 148.699 47.36 150.039 47.36C151.379 47.36 152.619 46.52 153.109 45.05H154.859C154.019 47.54 151.869 48.64 149.749 48.64C147.439 48.64 145.879 47.2 145.879 44.6C145.879 41.61 147.489 37.8 151.609 37.8C154.019 37.8 155.489 39.32 155.489 41.63C155.489 42.31 155.369 43.11 155.179 43.73H147.739L147.749 43.72ZM147.939 42.44H153.769C153.789 42.19 153.809 41.95 153.809 41.72C153.809 40.03 152.859 39.08 151.359 39.08C149.359 39.08 148.349 40.69 147.939 42.44Z" fill="#D08421"/>
<path d="M166.099 48.3601H164.119L162.139 44.4201L158.779 48.3601H156.819L161.359 43.2101L158.819 38.0601H160.799L162.589 42.0601L165.949 38.0601H167.929L163.349 43.2301L166.109 48.3601H166.099Z" fill="#D08421"/>
<path d="M171.869 45.35C171.749 46.01 171.729 46.24 171.729 46.42C171.729 47.16 172.259 47.33 173.379 47.14L173.149 48.36C172.799 48.46 172.329 48.52 171.909 48.52C170.669 48.52 169.989 48.07 169.989 47.02C169.989 46.75 170.049 46.26 170.199 45.43L171.269 39.43H169.909L170.139 38.15H171.479L171.909 35.76H173.579L173.149 38.15H174.919L174.689 39.43H172.919L171.869 45.35Z" fill="#D08421"/>
<path d="M189.815 83C189.103 83 188.375 82.7216 187.828 82.1809C186.736 81.0994 186.736 79.3298 187.828 78.2483L225.229 41.2174L188.375 4.74368C187.282 3.66218 187.282 1.89248 188.375 0.811064C189.467 -0.270355 191.255 -0.270355 192.348 0.811064L231.189 39.2511C232.282 40.3325 232.282 42.1021 231.189 43.1835L191.802 82.1806C191.255 82.7213 190.527 82.9999 189.815 82.9999L189.815 83Z" fill="#D08421"/>
</svg>
