<svg width="232" height="83" viewBox="0 0 232 83" fill="none" xmlns="http://www.w3.org/2000/svg">
<path d="M67.6388 38.6699H65.8488C65.9888 36.9799 64.9988 36.0099 63.3088 36.0099C61.7188 36.0099 60.5088 36.9199 60.5088 38.4999C60.5088 39.6499 61.2888 40.2099 62.9988 40.6199C65.4888 41.2199 66.7688 42.2899 66.7688 44.3099C66.7688 46.9499 64.4788 48.6399 61.4088 48.6399C58.6488 48.6399 56.8588 47.1399 57.0088 44.5599H58.8088C58.8888 46.3299 59.9388 47.3199 61.6888 47.3199C63.4388 47.3199 64.9088 46.3499 64.9088 44.5999C64.9088 43.3199 64.0588 42.6599 62.0888 42.1699C60.0688 41.6599 58.6488 40.8099 58.6488 38.9999C58.6488 36.2999 60.9388 34.6899 63.6788 34.6899C66.4188 34.6899 67.7788 36.3799 67.6388 38.6699Z" fill="#D08421"/>
<path d="M79.6089 41.53H77.8589C77.7789 39.88 77.0589 39.08 75.6589 39.08C73.5189 39.08 71.9089 41.27 71.9089 44.52C71.9089 46.5 72.8989 47.36 74.1589 47.36C75.5789 47.36 76.6889 46.58 77.2889 45.09H79.0389C78.0289 47.48 76.4389 48.64 73.9089 48.64C71.6989 48.64 70.0789 47.26 70.0789 44.58C70.0789 41.12 72.1389 37.8 75.9689 37.8C78.4389 37.8 79.5789 39.28 79.5989 41.53H79.6089Z" fill="#D08421"/>
<path d="M88.9887 37.9701L88.7587 39.2301C87.0287 39.1101 85.5387 40.1401 85.1087 42.4901L84.0787 48.3601H82.4087L84.2387 38.0601H85.9087L85.6187 39.6701L86.7987 38.2901C87.2687 38.0001 87.8287 37.8201 88.3187 37.8201C88.5887 37.8201 88.8087 37.8601 88.9987 37.9601L88.9887 37.9701Z" fill="#D08421"/>
<path d="M100.969 42.34C100.969 45.12 99.2387 48.63 95.0487 48.63C91.8587 48.63 90.6387 46.44 90.6387 44.08C90.6387 41.3 92.3687 37.79 96.5587 37.79C99.7487 37.79 100.969 39.99 100.969 42.34ZM99.1387 42.38C99.1387 40.57 98.2887 39.08 96.3387 39.08C93.7787 39.08 92.4587 41.7 92.4587 44.05C92.4587 45.86 93.3087 47.35 95.2587 47.35C97.8187 47.35 99.1387 44.73 99.1387 42.38Z" fill="#D08421"/>
<path d="M106.099 45.4101C105.999 45.9301 105.959 46.1901 105.959 46.4201C105.959 47.1001 106.309 47.2201 107.089 47.1401L106.879 48.3601C106.489 48.4201 106.059 48.4401 105.679 48.4401C104.799 48.4401 104.179 48.1901 104.179 47.1801C104.179 46.8901 104.239 46.5201 104.429 45.4701L106.429 34.0901H108.099L106.099 45.4101Z" fill="#D08421"/>
<path d="M112.859 45.4101C112.759 45.9301 112.719 46.1901 112.719 46.4201C112.719 47.1001 113.069 47.2201 113.849 47.1401L113.639 48.3601C113.249 48.4201 112.819 48.4401 112.439 48.4401C111.559 48.4401 110.939 48.1901 110.939 47.1801C110.939 46.8901 110.999 46.5201 111.189 45.4701L113.189 34.0901H114.859L112.859 45.4101Z" fill="#D08421"/>
<path d="M125.619 45.35C125.499 46.01 125.479 46.24 125.479 46.42C125.479 47.16 126.009 47.33 127.129 47.14L126.899 48.36C126.549 48.46 126.079 48.52 125.659 48.52C124.419 48.52 123.739 48.07 123.739 47.02C123.739 46.75 123.799 46.26 123.949 45.43L125.019 39.43H123.659L123.889 38.15H125.229L125.659 35.76H127.329L126.899 38.15H128.669L128.439 39.43H126.669L125.619 45.35Z" fill="#D08421"/>
<path d="M141.179 42.34C141.179 45.12 139.449 48.63 135.259 48.63C132.069 48.63 130.849 46.44 130.849 44.08C130.849 41.3 132.579 37.79 136.769 37.79C139.959 37.79 141.179 39.99 141.179 42.34ZM139.349 42.38C139.349 40.57 138.499 39.08 136.549 39.08C133.989 39.08 132.669 41.7 132.669 44.05C132.669 45.86 133.519 47.35 135.469 47.35C138.029 47.35 139.349 44.73 139.349 42.38Z" fill="#D08421"/>
<path d="M152.309 45.35C152.189 46.01 152.169 46.24 152.169 46.42C152.169 47.16 152.699 47.33 153.819 47.14L153.589 48.36C153.239 48.46 152.769 48.52 152.349 48.52C151.109 48.52 150.429 48.07 150.429 47.02C150.429 46.75 150.489 46.26 150.639 45.43L151.709 39.43H150.349L150.579 38.15H151.919L152.349 35.76H154.019L153.589 38.15H155.359L155.129 39.43H153.359L152.309 45.35Z" fill="#D08421"/>
<path d="M167.789 40.44C167.789 40.98 167.769 41.33 167.539 42.58L166.489 48.37H164.819L165.849 42.7C166.009 41.83 166.059 41.32 166.059 40.91C166.059 39.86 165.519 39.08 164.059 39.12C162.429 39.16 160.869 40.32 160.249 43.84L159.449 48.37H157.779L160.309 34H161.979L160.949 39.85L161.799 38.67C162.789 37.99 163.589 37.82 164.639 37.82C166.739 37.82 167.789 38.85 167.789 40.46V40.44Z" fill="#D08421"/>
<path d="M173.089 43.72C173.069 43.99 173.049 44.28 173.049 44.54C173.049 46.5 174.039 47.36 175.379 47.36C176.719 47.36 177.959 46.52 178.449 45.05H180.199C179.359 47.54 177.209 48.64 175.089 48.64C172.779 48.64 171.219 47.2 171.219 44.6C171.219 41.61 172.829 37.8 176.949 37.8C179.359 37.8 180.829 39.32 180.829 41.63C180.829 42.31 180.709 43.11 180.519 43.73H173.079L173.089 43.72ZM173.279 42.44H179.109C179.129 42.19 179.149 41.95 179.149 41.72C179.149 40.03 178.199 39.08 176.699 39.08C174.699 39.08 173.689 40.69 173.279 42.44Z" fill="#D08421"/>
<path d="M199.449 40.4401C199.449 40.9801 199.429 41.3301 199.199 42.5801L198.149 48.3701H196.479L197.509 42.7001C197.669 41.8301 197.719 41.3201 197.719 40.9101C197.719 39.8601 197.179 39.0801 195.719 39.1201C194.089 39.1601 192.529 40.3201 191.909 43.8401L191.109 48.3701H189.439L191.249 38.0701H192.919L192.609 39.8401L193.459 38.6601C194.449 37.9801 195.249 37.8101 196.299 37.8101C198.399 37.8101 199.449 38.8401 199.449 40.4501V40.4401Z" fill="#D08421"/>
<path d="M204.749 43.72C204.729 43.99 204.709 44.28 204.709 44.54C204.709 46.5 205.699 47.36 207.039 47.36C208.379 47.36 209.619 46.52 210.109 45.05H211.859C211.019 47.54 208.869 48.64 206.749 48.64C204.439 48.64 202.879 47.2 202.879 44.6C202.879 41.61 204.489 37.8 208.609 37.8C211.019 37.8 212.489 39.32 212.489 41.63C212.489 42.31 212.369 43.11 212.179 43.73H204.739L204.749 43.72ZM204.939 42.44H210.769C210.789 42.19 210.809 41.95 210.809 41.72C210.809 40.03 209.859 39.08 208.359 39.08C206.359 39.08 205.349 40.69 204.939 42.44Z" fill="#D08421"/>
<path d="M223.099 48.3601H221.119L219.139 44.4201L215.779 48.3601H213.819L218.359 43.2101L215.819 38.0601H217.799L219.589 42.0601L222.949 38.0601H224.929L220.349 43.2301L223.109 48.3601H223.099Z" fill="#D08421"/>
<path d="M228.869 45.35C228.749 46.01 228.729 46.24 228.729 46.42C228.729 47.16 229.259 47.33 230.379 47.14L230.149 48.36C229.799 48.46 229.329 48.52 228.909 48.52C227.669 48.52 226.989 48.07 226.989 47.02C226.989 46.75 227.049 46.26 227.199 45.43L228.269 39.43H226.909L227.139 38.15H228.479L228.909 35.76H230.579L230.149 38.15H231.919L231.689 39.43H229.919L228.869 45.35Z" fill="#D08421"/>
<path d="M42.1936 -2.45343e-07C42.9055 -1.83103e-07 43.6341 0.278427 44.1805 0.819138C45.2732 1.90056 45.2732 3.67025 44.1805 4.75167L6.7798 41.7826L43.6341 78.2563C44.7268 79.3378 44.7268 81.1075 43.6341 82.1889C42.5414 83.2704 40.7533 83.2704 39.6606 82.1889L0.81953 43.7489C-0.273171 42.6675 -0.273171 40.8979 0.81953 39.8165L40.207 0.819381C40.7533 0.278671 41.4818 8.36158e-05 42.1937 8.3678e-05L42.1936 -2.45343e-07Z" fill="#D08421"/>
</svg>
