<svg width="850" height="851" viewBox="0 0 850 851" fill="none" xmlns="http://www.w3.org/2000/svg">
<path d="M425 2.79004C482.04 2.79004 537.37 13.9601 589.46 35.9901C639.77 57.2701 684.95 87.73 723.76 126.54C762.56 165.34 793.03 210.53 814.31 260.84C836.34 312.93 847.51 368.26 847.51 425.29C847.51 482.32 836.34 537.66 814.31 589.75C793.03 640.06 762.57 685.24 723.76 724.05C684.96 762.85 639.77 793.32 589.46 814.6C537.37 836.63 482.04 847.8 425 847.8C367.96 847.8 312.63 836.63 260.54 814.6C210.23 793.32 165.05 762.86 126.24 724.05C87.44 685.25 56.97 640.06 35.69 589.75C13.66 537.66 2.49 482.33 2.49 425.29C2.49 368.25 13.66 312.92 35.69 260.84C56.97 210.53 87.43 165.34 126.24 126.54C165.04 87.74 210.23 57.2701 260.54 35.9901C312.63 13.9601 367.96 2.79004 425 2.79004ZM425 0.290039C190.28 0.290039 0 190.57 0 425.29C0 660.01 190.28 850.29 425 850.29C659.72 850.29 850 660.01 850 425.29C850 190.57 659.72 0.290039 425 0.290039Z" fill="url(#paint0_linear_1161_2230)"/>
<defs>
<linearGradient id="paint0_linear_1161_2230" x1="64.66" y1="650.73" x2="785.34" y2="199.84" gradientUnits="userSpaceOnUse">
<stop stop-color="#896532"/>
<stop offset="0.11" stop-color="#A27C47"/>
<stop offset="0.24" stop-color="#B8915B"/>
<stop offset="0.32" stop-color="#C09962"/>
<stop offset="0.39" stop-color="#C39E68"/>
<stop offset="0.48" stop-color="#CEAD7B"/>
<stop offset="0.58" stop-color="#DFC59A"/>
<stop offset="0.66" stop-color="#EFDCB6"/>
<stop offset="0.74" stop-color="#DABC8D"/>
<stop offset="0.81" stop-color="#C9A36B"/>
<stop offset="0.88" stop-color="#BD9152"/>
<stop offset="0.94" stop-color="#B58544"/>
<stop offset="0.99" stop-color="#B3823F"/>
</linearGradient>
</defs>
</svg>
