<svg width="328" height="21" viewBox="0 0 328 21" fill="none" xmlns="http://www.w3.org/2000/svg">
<path d="M9.52623 0.983765L18.4685 20.1572H16.3998L13.3843 13.8508H5.12598L2.13965 20.1572H0L9.05909 0.983765H9.52623ZM9.28432 5.05869L5.99769 11.999H12.5543L9.28432 5.05869Z" fill="black"/>
<path d="M21.5469 0.983765H25.3674C27.4945 0.983765 28.9376 1.07135 29.6967 1.24653C30.8354 1.50929 31.7613 2.06819 32.4745 2.92321C33.1877 3.77824 33.5422 4.83346 33.5422 6.08889C33.5422 7.1316 33.2962 8.04919 32.804 8.84165C32.3118 9.63411 31.6111 10.2305 30.6977 10.6351C29.7843 11.0397 28.5247 11.2482 26.9189 11.2566L33.8134 20.1572H31.4443L24.5499 11.2566H23.4655V20.1572H21.551V0.983765H21.5469ZM23.4613 2.86065V9.37552L26.7646 9.40055C28.0451 9.40055 28.9918 9.27959 29.605 9.03351C30.2181 8.7916 30.6977 8.39954 31.0397 7.86567C31.3817 7.3318 31.5569 6.73537 31.5569 6.0722C31.5569 5.40904 31.3817 4.84597 31.0356 4.32045C30.6894 3.79492 30.2306 3.41954 29.6634 3.19432C29.0961 2.96909 28.1577 2.85648 26.8439 2.85648H23.4613V2.86065Z" fill="black"/>
<path d="M55.4972 4.54156L53.9873 5.70105C53.1532 4.61663 52.1522 3.7908 50.9843 3.23191C49.8165 2.67301 48.5319 2.3894 47.1346 2.3894C45.6039 2.3894 44.19 2.75643 42.8845 3.4905C41.5832 4.22457 40.5697 5.20889 39.8523 6.44764C39.1349 7.68638 38.7762 9.07944 38.7762 10.6268C38.7762 12.9625 39.577 14.9145 41.1828 16.4785C42.7886 18.0426 44.8073 18.8226 47.2514 18.8226C49.9374 18.8226 52.1814 17.7715 53.9915 15.6694L55.5014 16.8164C54.5462 18.0343 53.3534 18.9727 51.9228 19.64C50.4922 20.3032 48.8947 20.6369 47.1346 20.6369C43.7813 20.6369 41.1328 19.5191 39.1975 17.2877C37.5709 15.4025 36.7617 13.1252 36.7617 10.4558C36.7617 7.64884 37.746 5.28814 39.7147 3.37372C41.6833 1.4593 44.14 0.5 47.1054 0.5C48.8947 0.5 50.513 0.854522 51.952 1.56357C53.3951 2.27261 54.5754 3.26528 55.4972 4.54156Z" fill="black"/>
<path d="M59.3184 0.983765H61.2328V9.02517H70.9967V0.983765H72.9112V20.1572H70.9967V10.9021H61.2328V20.1572H59.3184V0.983765Z" fill="black"/>
<path d="M77.3027 0.983765H79.2172V20.1572H77.3027V0.983765Z" fill="black"/>
<path d="M81.7109 2.86065V0.983765H92.2173V2.86065H87.9422V20.1572H85.9861V2.86065H81.7109Z" fill="black"/>
<path d="M94.9915 0.983765H105.977V2.86065H96.9059V8.87085H105.898V10.7477H96.9059V18.2803H105.898V20.1572H94.9873V0.983765H94.9915Z" fill="black"/>
<path d="M127.145 4.54156L125.635 5.70105C124.801 4.61663 123.8 3.7908 122.632 3.23191C121.464 2.67301 120.179 2.3894 118.782 2.3894C117.251 2.3894 115.837 2.75643 114.532 3.4905C113.231 4.22457 112.217 5.20889 111.5 6.44764C110.782 7.68638 110.424 9.07944 110.424 10.6268C110.424 12.9625 111.224 14.9145 112.83 16.4785C114.436 18.0426 116.455 18.8226 118.899 18.8226C121.585 18.8226 123.829 17.7715 125.639 15.6694L127.149 16.8164C126.194 18.0343 125.001 18.9727 123.57 19.64C122.14 20.3032 120.542 20.6369 118.782 20.6369C115.429 20.6369 112.78 19.5191 110.845 17.2877C109.218 15.4025 108.409 13.1252 108.409 10.4558C108.409 7.64884 109.393 5.28814 111.362 3.37372C113.331 1.4593 115.796 0.5 118.757 0.5C120.546 0.5 122.165 0.854522 123.604 1.56357C125.047 2.27261 126.227 3.26528 127.149 4.54156H127.145Z" fill="black"/>
<path d="M129.088 2.86065V0.983765H139.594V2.86065H135.319V20.1572H133.363V2.86065H129.088Z" fill="black"/>
<path d="M149.746 0.983765H151.702V8.17849L159.364 0.983765H161.938L152.729 9.58406L162.655 20.153H160.103L151.698 11.2232V20.153H149.742V0.983765H149.746Z" fill="black"/>
<path d="M165.532 0.983765H176.519V2.86065H167.447V8.87085H176.439V10.7477H167.447V18.2803H176.439V20.1572H165.528V0.983765H165.532Z" fill="black"/>
<path d="M179.843 20.153V0.983765H180.26L193.018 15.6818V0.983765H194.908V20.1572H194.478L181.824 5.63844V20.1572H179.843V20.153Z" fill="black"/>
<path d="M218.069 4.20372L216.584 5.61347C215.516 4.56241 214.344 3.76578 213.072 3.22357C211.8 2.68136 210.557 2.41025 209.352 2.41025C207.85 2.41025 206.416 2.78146 205.056 3.5197C203.696 4.25794 202.641 5.25894 201.894 6.52271C201.148 7.78648 200.772 9.12115 200.772 10.5309C200.772 11.9406 201.16 13.3462 201.932 14.6434C202.703 15.9405 203.775 16.9624 205.139 17.7048C206.503 18.4472 207.996 18.8184 209.623 18.8184C211.596 18.8184 213.264 18.2637 214.628 17.15C215.992 16.0364 216.801 14.5975 217.051 12.8207H210.937V10.9688H219.199C219.182 13.9301 218.302 16.2867 216.559 18.0259C214.816 19.7652 212.484 20.641 209.564 20.641C206.019 20.641 203.212 19.4315 201.144 17.0166C199.554 15.1564 198.758 13.0084 198.758 10.5643C198.758 8.74995 199.212 7.05658 200.126 5.49251C201.039 3.92844 202.291 2.70638 203.88 1.82216C205.469 0.94211 207.266 0.5 209.277 0.5C210.903 0.5 212.43 0.79196 213.865 1.38005C215.299 1.96814 216.697 2.90658 218.061 4.20372H218.069Z" fill="black"/>
<path d="M231.983 0.5C234.885 0.5 237.317 1.46764 239.273 3.40708C241.229 5.34653 242.209 7.72809 242.209 10.5643C242.209 13.4004 241.233 15.7528 239.282 17.7048C237.33 19.6567 234.948 20.6369 232.141 20.6369C229.334 20.6369 226.898 19.6651 224.942 17.7173C222.986 15.7695 222.006 13.4171 222.006 10.6519C222.006 8.80834 222.452 7.10246 223.345 5.53005C224.237 3.95764 225.451 2.72724 226.99 1.83467C228.529 0.94211 230.193 0.5 231.987 0.5L231.983 0.5ZM232.066 2.36437C230.648 2.36437 229.301 2.73558 228.033 3.47382C226.761 4.21206 225.768 5.20889 225.055 6.46015C224.342 7.7114 223.983 9.10864 223.983 10.6477C223.983 12.925 224.771 14.8519 226.352 16.4201C227.933 17.9884 229.835 18.7767 232.062 18.7767C233.551 18.7767 234.927 18.4138 236.195 17.6923C237.463 16.9707 238.447 15.9822 239.156 14.7309C239.865 13.4797 240.22 12.0866 240.22 10.5559C240.22 9.02522 239.865 7.65718 239.156 6.42678C238.447 5.19638 237.446 4.21206 236.162 3.47382C234.873 2.73558 233.509 2.36437 232.062 2.36437H232.066Z" fill="black"/>
<path d="M253.447 0.983765H255.403V8.17849L263.065 0.983765H265.638L256.429 9.58406L266.355 20.153H263.803L255.399 11.2232V20.153H253.442V0.983765H253.447Z" fill="black"/>
<path d="M269.278 0.983765H271.193V12.5579C271.193 13.9301 271.218 14.7851 271.272 15.1271C271.368 15.882 271.589 16.516 271.935 17.0249C272.281 17.5337 272.815 17.9591 273.537 18.3011C274.258 18.6432 274.984 18.8142 275.714 18.8142C276.348 18.8142 276.957 18.6807 277.541 18.4096C278.125 18.1385 278.609 17.7673 279.001 17.2876C279.393 16.808 279.676 16.2324 279.86 15.5526C279.989 15.0646 280.056 14.0677 280.056 12.5537V0.983765H281.97V12.5579C281.97 14.2679 281.803 15.6527 281.47 16.7079C281.136 17.7631 280.465 18.6807 279.464 19.4648C278.463 20.2489 277.245 20.6368 275.822 20.6368C274.275 20.6368 272.949 20.2656 271.848 19.5274C270.742 18.7891 270.004 17.8132 269.633 16.5953C269.399 15.8487 269.282 14.5015 269.282 12.5537V0.983765H269.278Z" fill="black"/>
<path d="M285.82 20.1531L288.565 0.979736H288.878L296.673 16.7122L304.393 0.979736H304.702L307.463 20.1531H305.586L303.692 6.43938L296.915 20.1531H296.427L289.566 6.33928L287.68 20.1531H285.829H285.82Z" fill="black"/>
<path d="M319.057 0.983765L328 20.1572H325.931L322.915 13.8508H314.657L311.671 20.1572H309.535L318.594 0.983765H319.061H319.057ZM318.815 5.05869L315.529 11.999H322.085L318.815 5.05869Z" fill="black"/>
</svg>
