<svg width="6" height="165" viewBox="0 0 6 165" fill="none" xmlns="http://www.w3.org/2000/svg">
<path d="M2.38989 0.64H2.13989V0H2.31989L2.38989 0.59V0.63V0.64ZM3.77989 0.43C4.24989 0.43 4.71989 0.43 5.18989 0.42V0.86C4.72989 0.85 4.24989 0.85 3.77989 0.85H3.60989C3.08989 0.85 2.60989 0.85 2.13989 0.86V0.42C2.59989 0.43 3.07989 0.43 3.54989 0.43H3.77989ZM2.94989 2.39L2.13989 2.36V0.64H2.36989V2.2L2.13989 1.99L2.94989 2.13V2.38V2.39ZM3.75989 1.52L4.23989 1.59V1.8H3.15989V1.59L3.66989 1.52H3.75989ZM3.58989 1.67V0.64H3.79989V1.67H3.58989ZM5.18989 1.9L4.95989 2.11V0.64H5.18989V2.27L4.37989 2.3V2.04L5.18989 1.9ZM5.00989 0H5.18989V0.64H4.93989V0.6L5.00989 0.01V0Z" fill="#595757"/>
<path d="M2.13987 3.07997C2.34987 3.07997 2.80987 3.08997 3.09987 3.08997H3.30987C3.55987 3.08997 3.69987 3.08997 3.87987 3.07997L3.91987 2.71997H4.07987L4.34987 3.33997L4.29987 3.40997L3.76987 3.45997H3.07987C2.79987 3.45997 2.32987 3.45997 2.11987 3.46997V3.07997H2.13987ZM2.29987 3.78997H2.13987V2.73997H2.29987L2.38987 3.23997V3.32997L2.29987 3.78997ZM3.51987 4.83997H3.09987C2.80987 4.83997 2.34987 4.83997 2.13987 4.84997V4.45997C2.34987 4.45997 2.80987 4.46997 3.09987 4.46997H3.47987C3.89987 4.46997 4.03987 4.35997 4.03987 4.08997C4.03987 3.85997 3.94987 3.66997 3.72987 3.41997V3.31997H3.93987V3.54997L3.85987 3.34997C4.14987 3.55997 4.36987 3.92997 4.36987 4.24997C4.36987 4.63997 4.12987 4.82997 3.52987 4.82997L3.51987 4.83997ZM2.38987 4.71997L2.29987 5.17997H2.13987V4.12997H2.29987L2.38987 4.62997V4.71997Z" fill="#595757"/>
<path d="M3.30998 5.82994C3.55998 5.82994 3.69998 5.82994 3.87998 5.81994L3.91998 5.44994H4.07998L4.34998 6.11994L4.29998 6.18994H3.67998L2.58998 6.17994C1.82998 6.17994 1.49998 6.14994 1.23998 5.90994C1.07998 5.76994 0.97998 5.60994 0.97998 5.33994C0.97998 5.06994 1.11998 4.93994 1.23998 4.93994C1.35998 4.97994 1.41998 5.06994 1.41998 5.19994C1.41998 5.31994 1.36998 5.40994 1.28998 5.53994L1.13998 5.74994L1.05998 5.15994H1.23998C1.17998 5.20994 1.13998 5.32994 1.13998 5.41994C1.13998 5.54994 1.16998 5.64994 1.33998 5.71994C1.52998 5.78994 1.89998 5.81994 2.59998 5.81994H3.29998L3.30998 5.82994ZM5.15998 5.70994C5.32998 5.70994 5.44998 5.83994 5.44998 6.00994C5.44998 6.17994 5.33998 6.30994 5.15998 6.30994C4.97998 6.30994 4.86998 6.17994 4.86998 6.00994C4.86998 5.83994 4.98998 5.70994 5.15998 5.70994Z" fill="#595757"/>
<path d="M3.21008 6.78003C3.97008 6.78003 4.36008 7.30003 4.36008 7.82003C4.36008 8.34003 3.97008 8.86003 3.21008 8.86003C2.45008 8.86003 2.08008 8.34003 2.08008 7.82003C2.08008 7.30003 2.45008 6.78003 3.21008 6.78003ZM3.21008 8.45003C3.82008 8.45003 4.15008 8.22003 4.15008 7.82003C4.15008 7.42003 3.82008 7.19003 3.21008 7.19003C2.60008 7.19003 2.28008 7.41003 2.28008 7.82003C2.28008 8.23003 2.59008 8.45003 3.21008 8.45003Z" fill="#595757"/>
<path d="M1.3 9.03002C1.43 9.06002 1.49 9.19002 1.49 9.33002C1.49 9.45002 1.44 9.54002 1.32 9.66002L1.18 9.80002L1.08 9.62002L1.18 9.50002C1.33 9.81002 1.64 9.99002 1.96 10.1L2.36 10.24L4.3 10.94V11.19L2.17 10.38C1.35 10.07 1 9.81002 1 9.44002C1 9.22002 1.12 9.02002 1.3 9.02002V9.03002ZM1.9 10.18L4.3 9.23002V9.65002L2.36 10.37L1.9 10.18ZM4.07 9.50002L4.14 9.05002H4.3V10.14H4.14L4.08 9.59002V9.50002H4.07ZM4.07 10.96L4.14 10.48H4.3V11.37H4.14L4.07 11.05V10.96Z" fill="#595757"/>
<path d="M3.34009 13.39C3.41009 13.58 3.49009 13.87 3.53009 14.1H3.37009C3.33009 13.89 3.24009 13.63 3.19009 13.49C3.03009 13.08 2.86009 13.03 2.73009 13.03C2.49009 13.03 2.39009 13.19 2.39009 13.4C2.39009 13.56 2.45009 13.65 2.65009 13.94L2.72009 14.03L2.62009 14.09L2.49009 13.96C2.22009 13.69 2.09009 13.53 2.09009 13.25C2.09009 12.92 2.28009 12.64 2.66009 12.64C2.92009 12.64 3.12009 12.78 3.34009 13.39ZM2.56009 13.91H3.60009C4.05009 13.91 4.16009 13.78 4.16009 13.48C4.16009 13.38 4.15009 13.24 4.08009 13.07L4.22009 13.25L3.83009 13.13C3.70009 13.09 3.62009 13.02 3.62009 12.9C3.62009 12.78 3.69009 12.7 3.80009 12.69C4.15009 12.78 4.36009 13.11 4.36009 13.57C4.36009 14.03 4.15009 14.27 3.57009 14.27H2.60009C2.39009 14.27 2.32009 14.33 2.32009 14.44C2.32009 14.52 2.36009 14.57 2.42009 14.62L2.32009 14.71C2.15009 14.6 2.09009 14.48 2.09009 14.32C2.09009 14.07 2.27009 13.9 2.56009 13.9V13.91Z" fill="#595757"/>
<path d="M1.21004 17.15H1.05004V15.98H1.21004L1.30004 16.49V16.58L1.21004 17.14V17.15ZM3.32004 16.36C3.57004 16.36 3.71004 16.36 3.89004 16.35L3.93004 15.98H4.09004L4.36004 16.6L4.31004 16.67L3.92004 16.71V16.73H2.47004L2.01004 16.72C1.69004 16.72 1.36004 16.72 1.04004 16.73V16.35C1.36004 16.35 1.68004 16.36 2.00004 16.36H3.31004H3.32004ZM4.12004 17.29C4.12004 17.12 4.04004 16.89 3.71004 16.56L3.79004 16.52C4.19004 16.78 4.36004 17.08 4.36004 17.39C4.36004 17.87 3.93004 18.26 3.23004 18.26C2.53004 18.26 2.08004 17.86 2.08004 17.33C2.08004 17.05 2.21004 16.77 2.68004 16.53L2.75004 16.57C2.45004 16.81 2.33004 17.03 2.33004 17.25C2.33004 17.6 2.60004 17.88 3.19004 17.88C3.78004 17.88 4.11004 17.64 4.11004 17.3L4.12004 17.29Z" fill="#595757"/>
<path d="M3.49007 20.5599C3.38007 20.5599 3.29007 20.5499 3.23007 20.5299V18.8499H3.42007V19.9399C3.42007 20.1599 3.53007 20.2099 3.65007 20.2099C3.91007 20.2099 4.15007 19.9899 4.15007 19.6999C4.15007 19.4099 3.90007 19.0699 3.25007 19.0699C2.67007 19.0699 2.36007 19.3599 2.36007 19.8199C2.36007 20.1099 2.49007 20.2899 2.68007 20.4599L2.60007 20.5699C2.28007 20.4099 2.07007 20.1099 2.07007 19.6999C2.07007 19.0899 2.49007 18.6899 3.19007 18.6899C3.89007 18.6899 4.35007 19.1599 4.35007 19.7299C4.35007 20.1999 4.03007 20.5699 3.48007 20.5699L3.49007 20.5599Z" fill="#595757"/>
<path d="M3.34009 21.71C3.41009 21.9 3.49009 22.19 3.53009 22.42H3.37009C3.33009 22.21 3.24009 21.95 3.19009 21.81C3.03009 21.4 2.86009 21.35 2.73009 21.35C2.49009 21.35 2.39009 21.51 2.39009 21.72C2.39009 21.88 2.45009 21.97 2.65009 22.26L2.72009 22.35L2.62009 22.41L2.49009 22.28C2.22009 22.01 2.09009 21.85 2.09009 21.57C2.09009 21.24 2.28009 20.96 2.66009 20.96C2.92009 20.96 3.12009 21.1 3.34009 21.71ZM2.56009 22.23H3.60009C4.05009 22.23 4.16009 22.1 4.16009 21.8C4.16009 21.7 4.15009 21.56 4.08009 21.39L4.22009 21.57L3.83009 21.45C3.70009 21.41 3.62009 21.34 3.62009 21.22C3.62009 21.1 3.69009 21.02 3.80009 21.01C4.15009 21.1 4.36009 21.43 4.36009 21.89C4.36009 22.35 4.15009 22.59 3.57009 22.59H2.60009C2.39009 22.59 2.32009 22.65 2.32009 22.76C2.32009 22.84 2.36009 22.89 2.42009 22.94L2.32009 23.03C2.15009 22.92 2.09009 22.8 2.09009 22.64C2.09009 22.39 2.27009 22.22 2.56009 22.22V22.23Z" fill="#595757"/>
<path d="M3.26009 23.64C2.68009 23.64 2.37009 23.95 2.37009 24.37C2.37009 24.63 2.50009 24.87 2.73009 25.01L2.68009 25.12C2.30009 25 2.09009 24.7 2.09009 24.28C2.09009 23.66 2.53009 23.26 3.23009 23.26C3.93009 23.26 4.37009 23.76 4.37009 24.3C4.37009 24.71 4.12009 25.04 3.78009 25.1C3.67009 25.08 3.61009 25.01 3.61009 24.89C3.61009 24.74 3.70009 24.68 3.82009 24.65L4.22009 24.54L4.05009 24.75C4.13009 24.59 4.16009 24.44 4.16009 24.31C4.16009 23.91 3.85009 23.63 3.26009 23.63V23.64Z" fill="#595757"/>
<path d="M3.49007 27.38C3.38007 27.38 3.29007 27.37 3.23007 27.35V25.67H3.42007V26.76C3.42007 26.98 3.53007 27.03 3.65007 27.03C3.91007 27.03 4.15007 26.81 4.15007 26.52C4.15007 26.23 3.90007 25.89 3.25007 25.89C2.67007 25.89 2.36007 26.18 2.36007 26.64C2.36007 26.93 2.49007 27.11 2.68007 27.28L2.60007 27.39C2.28007 27.23 2.07007 26.93 2.07007 26.52C2.07007 25.91 2.49007 25.51 3.19007 25.51C3.89007 25.51 4.35007 25.98 4.35007 26.55C4.35007 27.02 4.03007 27.39 3.48007 27.39L3.49007 27.38Z" fill="#595757"/>
<path d="M4.06989 28.11V27.73H4.26989L4.33989 28.24L4.26989 28.11C4.79989 28.16 5.06989 28.23 5.28989 28.43C5.49989 28.63 5.56989 28.86 5.56989 29.06C5.56989 29.26 5.49989 29.45 5.32989 29.49C5.21989 29.49 5.12989 29.38 5.12989 29.22C5.12989 29.11 5.16989 29.01 5.25989 28.9L5.42989 28.68L5.51989 29.06L5.37989 29.17C5.40989 29.12 5.42989 29.05 5.42989 28.99C5.42989 28.85 5.32989 28.7 5.16989 28.61C4.98989 28.5 4.67989 28.44 4.12989 28.47H3.09989C2.77989 28.47 2.45989 28.47 2.13989 28.48V28.09C2.45989 28.09 2.77989 28.1 3.09989 28.1H4.06989V28.11ZM2.29989 28.9H2.13989V27.73H2.29989L2.38989 28.25V28.34L2.29989 28.9ZM4.29989 29.11H4.05989V28.3H4.29989V29.11Z" fill="#595757"/>
<path d="M2.95008 29.93C2.54008 29.93 2.40008 30.05 2.40008 30.3C2.40008 30.53 2.51008 30.77 2.74008 31V31.1H2.51008V30.87L2.58008 31.03C2.23008 30.77 2.08008 30.46 2.08008 30.16C2.08008 29.79 2.30008 29.57 2.90008 29.57H4.11008L4.02008 29.68L4.11008 29.26H4.27008L4.33008 29.92L4.29008 29.96L3.65008 29.94H2.95008V29.93ZM2.11008 31.02L2.64008 30.96H4.11008L4.02008 31.07L4.11008 30.65H4.27008L4.33008 31.3L4.29008 31.35H3.65008L2.29008 31.34L2.40008 31.23L2.31008 31.65H2.15008L2.11008 31.03V31.02Z" fill="#595757"/>
<path d="M5.51989 32.61L5.47989 32.67L4.82989 32.65H3.09989C2.77989 32.65 2.45989 32.65 2.13989 32.66V32.27C2.45989 32.27 2.77989 32.28 3.09989 32.28H5.10989L5.14989 31.9H5.30989L5.51989 32.6V32.61ZM2.29989 33.03H2.13989V31.91H2.29989L2.38989 32.43V32.52L2.29989 33.04V33.03Z" fill="#595757"/>
<path d="M3.34009 35.17C3.41009 35.36 3.49009 35.65 3.53009 35.88H3.37009C3.33009 35.67 3.24009 35.41 3.19009 35.27C3.03009 34.86 2.86009 34.81 2.73009 34.81C2.49009 34.81 2.39009 34.97 2.39009 35.18C2.39009 35.34 2.45009 35.43 2.65009 35.72L2.72009 35.81L2.62009 35.87L2.49009 35.74C2.22009 35.47 2.09009 35.31 2.09009 35.03C2.09009 34.7 2.28009 34.42 2.66009 34.42C2.92009 34.42 3.12009 34.56 3.34009 35.17ZM2.56009 35.69H3.60009C4.05009 35.69 4.16009 35.56 4.16009 35.26C4.16009 35.16 4.15009 35.02 4.08009 34.85L4.22009 35.03L3.83009 34.91C3.70009 34.87 3.62009 34.8 3.62009 34.68C3.62009 34.56 3.69009 34.48 3.80009 34.47C4.15009 34.56 4.36009 34.89 4.36009 35.35C4.36009 35.81 4.15009 36.05 3.57009 36.05H2.60009C2.39009 36.05 2.32009 36.11 2.32009 36.22C2.32009 36.3 2.36009 36.35 2.42009 36.4L2.32009 36.49C2.15009 36.38 2.09009 36.26 2.09009 36.1C2.09009 35.85 2.27009 35.68 2.56009 35.68V35.69Z" fill="#595757"/>
<path d="M2.13987 37.0401C2.34987 37.0401 2.80987 37.0501 3.09987 37.0501H3.30987C3.55987 37.0501 3.69987 37.0501 3.87987 37.0401L3.91987 36.6801H4.07987L4.34987 37.3001L4.29987 37.3701L3.76987 37.4201H3.07987C2.79987 37.4201 2.32987 37.4201 2.11987 37.4301V37.0401H2.13987ZM2.29987 37.7501H2.13987V36.7001H2.29987L2.38987 37.2001V37.2901L2.29987 37.7501ZM3.51987 38.8001H3.09987C2.80987 38.8001 2.34987 38.8001 2.13987 38.8101V38.4201C2.34987 38.4201 2.80987 38.4301 3.09987 38.4301H3.47987C3.89987 38.4301 4.03987 38.3201 4.03987 38.0501C4.03987 37.8201 3.94987 37.6301 3.72987 37.3801V37.2801H3.93987V37.5101L3.85987 37.3101C4.14987 37.5201 4.36987 37.8901 4.36987 38.2101C4.36987 38.6001 4.12987 38.7901 3.52987 38.7901L3.51987 38.8001ZM2.38987 38.6801L2.29987 39.1401H2.13987V38.0901H2.29987L2.38987 38.5901V38.6801Z" fill="#595757"/>
<path d="M2.33008 40.52C2.33008 40.75 2.43008 40.91 2.70008 41.12L2.58008 41.16C2.27008 40.99 2.08008 40.77 2.08008 40.42C2.08008 39.86 2.54008 39.49 3.20008 39.49C3.86008 39.49 4.36008 39.9 4.36008 40.46C4.36008 40.72 4.26008 40.94 3.90008 41.18L3.78008 41.13C4.04008 40.87 4.11008 40.68 4.11008 40.51C4.11008 40.17 3.84008 39.87 3.21008 39.87C2.58008 39.87 2.33008 40.14 2.33008 40.51V40.52ZM2.30008 41.79H2.14008L2.09008 41.09L2.56008 41.04H3.96008L5.11008 41.05L5.15008 40.66H5.31008L5.52008 41.36L5.48008 41.42L4.83008 41.4H2.14008L2.37008 41.33L2.30008 41.78V41.79Z" fill="#595757"/>
<path d="M5.51989 43.74L5.47989 43.8L4.82989 43.78H3.09989C2.77989 43.78 2.45989 43.78 2.13989 43.79V43.4C2.45989 43.4 2.77989 43.41 3.09989 43.41H5.10989L5.14989 43.03H5.30989L5.51989 43.73V43.74ZM2.29989 44.16H2.13989V43.04H2.29989L2.38989 43.56V43.65L2.29989 44.17V44.16Z" fill="#595757"/>
<path d="M3.49007 46.37C3.38007 46.37 3.29007 46.36 3.23007 46.34V44.66H3.42007V45.75C3.42007 45.97 3.53007 46.02 3.65007 46.02C3.91007 46.02 4.15007 45.8 4.15007 45.51C4.15007 45.22 3.90007 44.88 3.25007 44.88C2.67007 44.88 2.36007 45.17 2.36007 45.63C2.36007 45.92 2.49007 46.1 2.68007 46.27L2.60007 46.38C2.28007 46.22 2.07007 45.92 2.07007 45.51C2.07007 44.9 2.49007 44.5 3.19007 44.5C3.89007 44.5 4.35007 44.97 4.35007 45.54C4.35007 46.01 4.03007 46.38 3.48007 46.38L3.49007 46.37Z" fill="#595757"/>
<path d="M2.13987 47.11C2.34987 47.11 2.80987 47.12 3.09987 47.12H3.30987C3.55987 47.12 3.69987 47.12 3.87987 47.11L3.91987 46.73H4.07987L4.34987 47.42L4.29987 47.49H3.67987L3.07987 47.48C2.79987 47.48 2.32987 47.48 2.11987 47.49V47.11H2.13987ZM2.29987 47.81H2.13987V46.76H2.29987L2.38987 47.26V47.35L2.29987 47.81ZM5.15987 46.99C5.32987 46.99 5.44987 47.12 5.44987 47.29C5.44987 47.46 5.33987 47.59 5.15987 47.59C4.97987 47.59 4.86987 47.46 4.86987 47.29C4.86987 47.12 4.98987 46.99 5.15987 46.99Z" fill="#595757"/>
<path d="M2.25006 48.19L2.75006 48.17V48.41L2.21006 48.53L2.31006 48.31H2.47006C2.35006 48.47 2.28006 48.64 2.28006 48.87C2.28006 49.22 2.42006 49.39 2.63006 49.39C2.83006 49.39 2.93006 49.25 3.03006 48.97L3.11006 48.76C3.23006 48.43 3.41006 48.21 3.72006 48.21C4.05006 48.21 4.35006 48.49 4.35006 49C4.35006 49.25 4.28006 49.44 4.16006 49.63L3.70006 49.61V49.38L4.16006 49.29L4.09006 49.45H3.97006C4.08006 49.3 4.14006 49.15 4.14006 48.99C4.14006 48.71 4.02006 48.56 3.83006 48.56C3.62006 48.56 3.55006 48.67 3.43006 48.98L3.38006 49.12C3.21006 49.58 3.00006 49.75 2.71006 49.75C2.37006 49.75 2.06006 49.45 2.06006 48.87C2.06006 48.62 2.12006 48.42 2.23006 48.2L2.25006 48.19Z" fill="#595757"/>
<path d="M2.95008 50.7301C2.54008 50.7301 2.40008 50.8501 2.40008 51.1001C2.40008 51.3301 2.51008 51.5701 2.74008 51.8001V51.9001H2.51008V51.6701L2.58008 51.8301C2.23008 51.5701 2.08008 51.2601 2.08008 50.9601C2.08008 50.5901 2.30008 50.3701 2.90008 50.3701H4.11008L4.02008 50.4801L4.11008 50.0601H4.27008L4.33008 50.7201L4.29008 50.7601L3.65008 50.7401H2.95008V50.7301ZM2.11008 51.8201L2.64008 51.7601H4.11008L4.02008 51.8701L4.11008 51.4501H4.27008L4.33008 52.1001L4.29008 52.1501H3.65008L2.29008 52.1401L2.40008 52.0301L2.31008 52.4501H2.15008L2.11008 51.8301V51.8201Z" fill="#595757"/>
<path d="M3.09987 53.13H3.30987C3.55987 53.13 3.69987 53.13 3.87987 53.12L3.91987 52.76H4.07987L4.34987 53.38L4.29987 53.45L3.72987 53.5H3.07987C2.79987 53.5 2.32987 53.5 2.11987 53.51V53.12C2.32987 53.12 2.78987 53.13 3.07987 53.13H3.09987ZM2.29987 52.79L2.38987 53.29V53.38L2.29987 53.88H2.13987V52.79H2.29987ZM3.70987 53.31V53.57L3.67987 53.46C4.09987 53.61 4.35987 53.88 4.35987 54.15C4.35987 54.28 4.29987 54.42 4.19987 54.47C3.98987 54.47 3.86987 54.39 3.86987 54.21C3.86987 54.1 3.90987 54.02 3.97987 53.94L4.08987 53.82L4.13987 54.04C3.98987 53.76 3.76987 53.59 3.40987 53.49V53.32H3.71987L3.70987 53.31Z" fill="#595757"/>
<path d="M3.49007 56.5599C3.38007 56.5599 3.29007 56.5499 3.23007 56.5299V54.8499H3.42007V55.9399C3.42007 56.1599 3.53007 56.2099 3.65007 56.2099C3.91007 56.2099 4.15007 55.9899 4.15007 55.6999C4.15007 55.4099 3.90007 55.0699 3.25007 55.0699C2.67007 55.0699 2.36007 55.3599 2.36007 55.8199C2.36007 56.1099 2.49007 56.2899 2.68007 56.4599L2.60007 56.5699C2.28007 56.4099 2.07007 56.1099 2.07007 55.6999C2.07007 55.0899 2.49007 54.6899 3.19007 54.6899C3.89007 54.6899 4.35007 55.1599 4.35007 55.7299C4.35007 56.1999 4.03007 56.5699 3.48007 56.5699L3.49007 56.5599Z" fill="#595757"/>
<path d="M5.51989 57.55L5.47989 57.61L4.82989 57.59H3.09989C2.77989 57.59 2.45989 57.59 2.13989 57.6V57.21C2.45989 57.21 2.77989 57.22 3.09989 57.22H5.10989L5.14989 56.84H5.30989L5.51989 57.54V57.55ZM2.29989 57.97H2.13989V56.85H2.29989L2.38989 57.37V57.46L2.29989 57.98V57.97Z" fill="#595757"/>
<path d="M1.3 58.05C1.43 58.08 1.49 58.21 1.49 58.35C1.49 58.47 1.44 58.56 1.32 58.68L1.18 58.82L1.08 58.64L1.18 58.52C1.33 58.83 1.64 59.01 1.96 59.12L2.36 59.26L4.3 59.96V60.21L2.17 59.4C1.35 59.09 1 58.83 1 58.46C1 58.24 1.12 58.04 1.3 58.04V58.05ZM1.9 59.2L4.3 58.25V58.67L2.36 59.39L1.9 59.2ZM4.07 58.52L4.14 58.07H4.3V59.16H4.14L4.08 58.61V58.52H4.07ZM4.07 59.98L4.14 59.5H4.3V60.39H4.14L4.07 60.07V59.98Z" fill="#595757"/>
<path d="M5.51989 62.26L5.47989 62.32L4.82989 62.3H3.09989C2.77989 62.3 2.45989 62.3001 2.13989 62.3101V61.92C2.45989 61.92 2.77989 61.93 3.09989 61.93H5.10989L5.14989 61.55H5.30989L5.51989 62.25V62.26ZM2.29989 62.68H2.13989V61.5601H2.29989L2.38989 62.0801V62.17L2.29989 62.69V62.68Z" fill="#595757"/>
<path d="M2.13987 63.3101C2.34987 63.3101 2.80987 63.3201 3.09987 63.3201H3.30987C3.55987 63.3201 3.69987 63.3201 3.87987 63.3101L3.91987 62.9301H4.07987L4.34987 63.6201L4.29987 63.6901H3.67987L3.07987 63.6801C2.79987 63.6801 2.32987 63.6801 2.11987 63.6901V63.3101H2.13987ZM2.29987 64.0101H2.13987V62.9601H2.29987L2.38987 63.4601V63.5501L2.29987 64.0101ZM5.15987 63.1901C5.32987 63.1901 5.44987 63.3201 5.44987 63.4901C5.44987 63.6601 5.33987 63.7901 5.15987 63.7901C4.97987 63.7901 4.86987 63.6601 4.86987 63.4901C4.86987 63.3201 4.98987 63.1901 5.15987 63.1901Z" fill="#595757"/>
<path d="M4.06989 64.6999V64.3199H4.26989L4.33989 64.8299L4.26989 64.6999C4.79989 64.7499 5.06989 64.8199 5.28989 65.0199C5.49989 65.2199 5.56989 65.4499 5.56989 65.6499C5.56989 65.8499 5.49989 66.0399 5.32989 66.0799C5.21989 66.0799 5.12989 65.9699 5.12989 65.8099C5.12989 65.6999 5.16989 65.5999 5.25989 65.4899L5.42989 65.2699L5.51989 65.6499L5.37989 65.7599C5.40989 65.7099 5.42989 65.6399 5.42989 65.5799C5.42989 65.4399 5.32989 65.2899 5.16989 65.1999C4.98989 65.0899 4.67989 65.0299 4.12989 65.0599H3.09989C2.77989 65.0599 2.45989 65.0599 2.13989 65.0699V64.6799C2.45989 64.6799 2.77989 64.6899 3.09989 64.6899H4.06989V64.6999ZM2.29989 65.4899H2.13989V64.3199H2.29989L2.38989 64.8399V64.9299L2.29989 65.4899ZM4.29989 65.6999H4.05989V64.8899H4.29989V65.6999Z" fill="#595757"/>
<path d="M3.49007 67.8001C3.38007 67.8001 3.29007 67.7901 3.23007 67.7701V66.09H3.42007V67.1801C3.42007 67.4001 3.53007 67.4501 3.65007 67.4501C3.91007 67.4501 4.15007 67.2301 4.15007 66.9401C4.15007 66.6501 3.90007 66.3101 3.25007 66.3101C2.67007 66.3101 2.36007 66.6001 2.36007 67.0601C2.36007 67.3501 2.49007 67.5301 2.68007 67.7001L2.60007 67.8101C2.28007 67.6501 2.07007 67.3501 2.07007 66.9401C2.07007 66.3301 2.49007 65.9301 3.19007 65.9301C3.89007 65.9301 4.35007 66.4001 4.35007 66.9701C4.35007 67.4401 4.03007 67.8101 3.48007 67.8101L3.49007 67.8001Z" fill="#595757"/>
<path d="M3.34009 70.0601C3.41009 70.2501 3.49009 70.5401 3.53009 70.7701H3.37009C3.33009 70.5601 3.24009 70.3001 3.19009 70.1601C3.03009 69.7501 2.86009 69.7001 2.73009 69.7001C2.49009 69.7001 2.39009 69.8601 2.39009 70.0701C2.39009 70.2301 2.45009 70.3201 2.65009 70.6101L2.72009 70.7001L2.62009 70.7601L2.49009 70.6301C2.22009 70.3601 2.09009 70.2001 2.09009 69.9201C2.09009 69.5901 2.28009 69.3101 2.66009 69.3101C2.92009 69.3101 3.12009 69.4501 3.34009 70.0601ZM2.56009 70.5801H3.60009C4.05009 70.5801 4.16009 70.4501 4.16009 70.1501C4.16009 70.0501 4.15009 69.9101 4.08009 69.7401L4.22009 69.9201L3.83009 69.8001C3.70009 69.7601 3.62009 69.6901 3.62009 69.5701C3.62009 69.4501 3.69009 69.3701 3.80009 69.3601C4.15009 69.4501 4.36009 69.7801 4.36009 70.2401C4.36009 70.7001 4.15009 70.9401 3.57009 70.9401H2.60009C2.39009 70.9401 2.32009 71.0001 2.32009 71.1101C2.32009 71.1901 2.36009 71.2401 2.42009 71.2901L2.32009 71.3801C2.15009 71.2701 2.09009 71.1501 2.09009 70.9901C2.09009 70.7401 2.27009 70.5701 2.56009 70.5701V70.5801Z" fill="#595757"/>
<path d="M2.13987 71.9201C2.34987 71.9201 2.80987 71.9301 3.09987 71.9301H3.30987C3.55987 71.9301 3.69987 71.9301 3.87987 71.9201L3.91987 71.5601H4.07987L4.34987 72.1801L4.29987 72.2501L3.76987 72.3001H3.07987C2.79987 72.3001 2.32987 72.3001 2.11987 72.3101V71.9201H2.13987ZM2.29987 72.6301H2.13987V71.5801H2.29987L2.38987 72.0801V72.1701L2.29987 72.6301ZM3.51987 73.6701H3.09987C2.80987 73.6701 2.34987 73.6701 2.13987 73.6801V73.2901C2.34987 73.2901 2.80987 73.3001 3.09987 73.3001H3.47987C3.89987 73.3001 4.03987 73.1901 4.03987 72.9201C4.03987 72.7001 3.94987 72.5201 3.72987 72.2601V72.1601H3.93987V72.3901L3.85987 72.1901C4.14987 72.4001 4.36987 72.7601 4.36987 73.0701C4.36987 73.4601 4.12987 73.6501 3.52987 73.6501L3.51987 73.6701ZM2.38987 73.5501L2.29987 74.0101H2.13987V72.9601H2.29987L2.38987 73.4601V73.5501ZM3.56987 75.0401H3.09987C2.80987 75.0401 2.34987 75.0401 2.13987 75.0501V74.6601C2.34987 74.6601 2.80987 74.6701 3.09987 74.6701H3.48987C3.91987 74.6701 4.03987 74.5501 4.03987 74.2801C4.03987 74.0701 3.95987 73.8801 3.72987 73.6301V73.5201H3.88987V73.7701L3.84987 73.5601C4.18987 73.8001 4.35987 74.1401 4.35987 74.4601C4.35987 74.8301 4.12987 75.0401 3.56987 75.0401ZM2.38987 74.9201L2.29987 75.3801H2.13987V74.3301H2.29987L2.38987 74.8301V74.9201Z" fill="#595757"/>
<path d="M3.21008 75.72C3.97008 75.72 4.36008 76.24 4.36008 76.76C4.36008 77.28 3.97008 77.8 3.21008 77.8C2.45008 77.8 2.08008 77.28 2.08008 76.76C2.08008 76.24 2.45008 75.72 3.21008 75.72ZM3.21008 77.39C3.82008 77.39 4.15008 77.16 4.15008 76.76C4.15008 76.36 3.82008 76.13 3.21008 76.13C2.60008 76.13 2.28008 76.35 2.28008 76.76C2.28008 77.17 2.59008 77.39 3.21008 77.39Z" fill="#595757"/>
<path d="M2.13987 78.5401C2.34987 78.5401 2.80987 78.5501 3.09987 78.5501H3.30987C3.55987 78.5501 3.69987 78.5501 3.87987 78.5401L3.91987 78.1801H4.07987L4.34987 78.8001L4.29987 78.8701L3.76987 78.9201H3.07987C2.79987 78.9201 2.32987 78.9201 2.11987 78.9301V78.5401H2.13987ZM2.29987 79.2501H2.13987V78.2001H2.29987L2.38987 78.7001V78.7901L2.29987 79.2501ZM3.51987 80.3001H3.09987C2.80987 80.3001 2.34987 80.3001 2.13987 80.3101V79.9201C2.34987 79.9201 2.80987 79.9301 3.09987 79.9301H3.47987C3.89987 79.9301 4.03987 79.8201 4.03987 79.5501C4.03987 79.3201 3.94987 79.1301 3.72987 78.8801V78.7801H3.93987V79.0101L3.85987 78.8101C4.14987 79.0201 4.36987 79.3901 4.36987 79.7101C4.36987 80.1001 4.12987 80.2901 3.52987 80.2901L3.51987 80.3001ZM2.38987 80.1801L2.29987 80.6401H2.13987V79.59H2.29987L2.38987 80.09V80.1801Z" fill="#595757"/>
<path d="M1.72004 82.6699C1.93004 82.6699 2.08004 82.5399 2.08004 82.2099V81.6699C2.08004 81.5899 2.08004 81.5099 2.09004 81.4399H2.10004C2.15004 81.2099 2.27004 81.0899 2.46004 81.0899C2.62004 81.0899 2.79004 81.1899 3.06004 81.5099L2.99004 81.6099C2.84004 81.4699 2.74004 81.4099 2.61004 81.4099C2.49004 81.4099 2.40004 81.4599 2.40004 81.6699V82.2699C2.40004 82.7599 2.19004 82.9899 1.82004 82.9899C1.43004 82.9899 1.04004 82.6199 1.04004 81.8799C1.04004 81.2199 1.27004 80.9399 1.60004 80.9399C1.82004 80.9399 1.99004 81.0799 2.19004 81.5399L2.16004 81.5599C1.98004 81.3799 1.85004 81.2999 1.67004 81.2999C1.37004 81.2999 1.25004 81.5299 1.25004 81.8899C1.25004 82.3899 1.46004 82.6599 1.72004 82.6599V82.6699ZM4.36004 81.8699C4.36004 82.3399 4.11004 82.6799 3.61004 82.6799C3.11004 82.6799 2.86004 82.3199 2.86004 81.8599C2.86004 81.3999 3.11004 81.0399 3.61004 81.0399C4.11004 81.0399 4.36004 81.3999 4.36004 81.8599V81.8699ZM3.61004 81.4099C3.28004 81.4099 3.05004 81.5699 3.05004 81.8599C3.05004 82.1499 3.29004 82.3299 3.63004 82.3299C3.97004 82.3299 4.18004 82.1699 4.18004 81.8799C4.18004 81.5899 3.94004 81.4099 3.61004 81.4099ZM4.36004 82.9599L4.31004 83.0299H4.03004V82.3599H4.15004L4.36004 82.9599Z" fill="#595757"/>
<path d="M2.31009 85.24C2.31009 85.34 2.35009 85.43 2.44009 85.55L2.32009 85.65C2.17009 85.54 2.09009 85.35 2.09009 85.12C2.09009 84.81 2.25009 84.61 2.61009 84.61C2.72009 84.61 2.82009 84.61 2.99009 84.61H4.08009V84.23H4.28009L4.35009 84.8L4.20009 84.62L4.94009 84.76V85.02L4.14009 84.98H2.65009C2.41009 84.98 2.31009 85.08 2.31009 85.24ZM4.30009 85.61H4.06009V84.8H4.30009V85.61Z" fill="#595757"/>
<path d="M5.10988 86.17L5.14988 85.79H5.30988L5.51988 86.47L5.47988 86.53L4.82988 86.51H3.79988L3.08988 86.52C2.80988 86.52 2.33988 86.52 2.12988 86.53V86.14C2.33988 86.14 2.79988 86.15 3.08988 86.15H5.09988L5.10988 86.17ZM2.29988 86.86H2.13988V85.81H2.29988L2.38988 86.31V86.4L2.29988 86.86ZM3.51988 87.94H3.09988C2.80988 87.94 2.34988 87.94 2.13988 87.95V87.56C2.34988 87.56 2.80988 87.57 3.09988 87.57H3.47988C3.89988 87.57 4.03988 87.46 4.03988 87.19C4.03988 86.96 3.95988 86.77 3.72988 86.52V86.42H3.93988V86.65L3.85988 86.44C4.14988 86.65 4.36988 87.03 4.36988 87.35C4.36988 87.74 4.12988 87.93 3.52988 87.93L3.51988 87.94ZM2.38988 87.82L2.29988 88.28H2.13988V87.23H2.29988L2.38988 87.73V87.82Z" fill="#595757"/>
<path d="M3.49007 90.51C3.38007 90.51 3.29007 90.5 3.23007 90.48V88.8H3.42007V89.89C3.42007 90.11 3.53007 90.16 3.65007 90.16C3.91007 90.16 4.15007 89.94 4.15007 89.65C4.15007 89.36 3.90007 89.02 3.25007 89.02C2.67007 89.02 2.36007 89.31 2.36007 89.77C2.36007 90.06 2.49007 90.24 2.68007 90.41L2.60007 90.52C2.28007 90.36 2.07007 90.06 2.07007 89.65C2.07007 89.04 2.49007 88.64 3.19007 88.64C3.89007 88.64 4.35007 89.11 4.35007 89.68C4.35007 90.15 4.03007 90.52 3.48007 90.52L3.49007 90.51Z" fill="#595757"/>
<path d="M2.13987 92.33C2.34987 92.33 2.80987 92.34 3.09987 92.34H3.30987C3.55987 92.34 3.69987 92.34 3.87987 92.33L3.91987 91.97H4.07987L4.34987 92.59L4.29987 92.66L3.76987 92.71H3.07987C2.79987 92.71 2.32987 92.71 2.11987 92.72V92.33H2.13987ZM2.29987 93.04H2.13987V91.99H2.29987L2.38987 92.49V92.58L2.29987 93.04ZM3.51987 94.09H3.09987C2.80987 94.09 2.34987 94.09 2.13987 94.1V93.71C2.34987 93.71 2.80987 93.72 3.09987 93.72H3.47987C3.89987 93.72 4.03987 93.61 4.03987 93.34C4.03987 93.11 3.94987 92.92 3.72987 92.67V92.57H3.93987V92.8L3.85987 92.6C4.14987 92.81 4.36987 93.18 4.36987 93.5C4.36987 93.89 4.12987 94.08 3.52987 94.08L3.51987 94.09ZM2.38987 93.97L2.29987 94.43H2.13987V93.38H2.29987L2.38987 93.88V93.97Z" fill="#595757"/>
<path d="M3.34009 95.53C3.41009 95.72 3.49009 96.01 3.53009 96.24H3.37009C3.33009 96.03 3.24009 95.77 3.19009 95.63C3.03009 95.22 2.86009 95.17 2.73009 95.17C2.49009 95.17 2.39009 95.33 2.39009 95.54C2.39009 95.7 2.45009 95.79 2.65009 96.08L2.72009 96.17L2.62009 96.23L2.49009 96.1C2.22009 95.83 2.09009 95.67 2.09009 95.39C2.09009 95.06 2.28009 94.78 2.66009 94.78C2.92009 94.78 3.12009 94.92 3.34009 95.53ZM2.56009 96.05H3.60009C4.05009 96.05 4.16009 95.92 4.16009 95.62C4.16009 95.52 4.15009 95.38 4.08009 95.21L4.22009 95.39L3.83009 95.27C3.70009 95.23 3.62009 95.16 3.62009 95.04C3.62009 94.92 3.69009 94.84 3.80009 94.83C4.15009 94.92 4.36009 95.25 4.36009 95.71C4.36009 96.17 4.15009 96.41 3.57009 96.41H2.60009C2.39009 96.41 2.32009 96.47 2.32009 96.58C2.32009 96.66 2.36009 96.71 2.42009 96.76L2.32009 96.85C2.15009 96.74 2.09009 96.62 2.09009 96.46C2.09009 96.21 2.27009 96.04 2.56009 96.04V96.05Z" fill="#595757"/>
<path d="M2.31009 97.93C2.31009 98.03 2.35009 98.12 2.44009 98.24L2.32009 98.34C2.17009 98.23 2.09009 98.04 2.09009 97.81C2.09009 97.5 2.25009 97.3 2.61009 97.3C2.72009 97.3 2.82009 97.3 2.99009 97.3H4.08009V96.92H4.28009L4.35009 97.49L4.20009 97.31L4.94009 97.45V97.71L4.14009 97.67H2.65009C2.41009 97.67 2.31009 97.77 2.31009 97.93ZM4.30009 98.3H4.06009V97.49H4.30009V98.3Z" fill="#595757"/>
<path d="M2.95008 99.16C2.54008 99.16 2.40008 99.28 2.40008 99.53C2.40008 99.76 2.51008 100 2.74008 100.23V100.33H2.51008V100.1L2.58008 100.26C2.23008 100 2.08008 99.69 2.08008 99.39C2.08008 99.02 2.30008 98.8 2.90008 98.8H4.11008L4.02008 98.91L4.11008 98.49H4.27008L4.33008 99.15L4.29008 99.19L3.65008 99.17H2.95008V99.16ZM2.11008 100.25L2.64008 100.19H4.11008L4.02008 100.3L4.11008 99.88H4.27008L4.33008 100.53L4.29008 100.58H3.65008L2.29008 100.57L2.40008 100.46L2.31008 100.88H2.15008L2.11008 100.26V100.25Z" fill="#595757"/>
<path d="M3.09987 101.56H3.30987C3.55987 101.56 3.69987 101.56 3.87987 101.55L3.91987 101.19H4.07987L4.34987 101.81L4.29987 101.88L3.72987 101.93H3.07987C2.79987 101.93 2.32987 101.93 2.11987 101.94V101.55C2.32987 101.55 2.78987 101.56 3.07987 101.56H3.09987ZM2.29987 101.22L2.38987 101.72V101.81L2.29987 102.31H2.13987V101.22H2.29987ZM3.70987 101.74V102L3.67987 101.89C4.09987 102.04 4.35987 102.31 4.35987 102.58C4.35987 102.71 4.29987 102.85 4.19987 102.9C3.98987 102.9 3.86987 102.82 3.86987 102.64C3.86987 102.53 3.90987 102.45 3.97987 102.37L4.08987 102.25L4.13987 102.47C3.98987 102.19 3.76987 102.02 3.40987 101.92V101.75H3.71987L3.70987 101.74Z" fill="#595757"/>
<path d="M3.34009 103.85C3.41009 104.04 3.49009 104.33 3.53009 104.56H3.37009C3.33009 104.35 3.24009 104.09 3.19009 103.95C3.03009 103.54 2.86009 103.49 2.73009 103.49C2.49009 103.49 2.39009 103.65 2.39009 103.86C2.39009 104.02 2.45009 104.11 2.65009 104.4L2.72009 104.49L2.62009 104.55L2.49009 104.42C2.22009 104.15 2.09009 103.99 2.09009 103.71C2.09009 103.38 2.28009 103.1 2.66009 103.1C2.92009 103.1 3.12009 103.24 3.34009 103.85ZM2.56009 104.37H3.60009C4.05009 104.37 4.16009 104.24 4.16009 103.94C4.16009 103.84 4.15009 103.7 4.08009 103.53L4.22009 103.71L3.83009 103.59C3.70009 103.55 3.62009 103.48 3.62009 103.36C3.62009 103.24 3.69009 103.16 3.80009 103.15C4.15009 103.24 4.36009 103.57 4.36009 104.03C4.36009 104.49 4.15009 104.73 3.57009 104.73H2.60009C2.39009 104.73 2.32009 104.79 2.32009 104.9C2.32009 104.98 2.36009 105.03 2.42009 105.08L2.32009 105.17C2.15009 105.06 2.09009 104.94 2.09009 104.78C2.09009 104.53 2.27009 104.36 2.56009 104.36V104.37Z" fill="#595757"/>
<path d="M5.51989 106.03L5.47989 106.09L4.82989 106.07H3.09989C2.77989 106.07 2.45989 106.07 2.13989 106.08V105.69C2.45989 105.69 2.77989 105.7 3.09989 105.7H5.10989L5.14989 105.32H5.30989L5.51989 106.02V106.03ZM2.29989 106.45H2.13989V105.33H2.29989L2.38989 105.85V105.94L2.29989 106.46V106.45Z" fill="#595757"/>
<path d="M2.13987 108.16C2.34987 108.16 2.80987 108.17 3.09987 108.17H3.30987C3.55987 108.17 3.69987 108.17 3.87987 108.16L3.91987 107.8H4.07987L4.34987 108.42L4.29987 108.49L3.76987 108.54H3.07987C2.79987 108.54 2.32987 108.54 2.11987 108.55V108.16H2.13987ZM2.29987 108.87H2.13987V107.82H2.29987L2.38987 108.32V108.41L2.29987 108.87ZM3.51987 109.91H3.09987C2.80987 109.91 2.34987 109.91 2.13987 109.92V109.53C2.34987 109.53 2.80987 109.54 3.09987 109.54H3.47987C3.89987 109.54 4.03987 109.43 4.03987 109.16C4.03987 108.94 3.94987 108.76 3.72987 108.5V108.4H3.93987V108.63L3.85987 108.43C4.14987 108.64 4.36987 109 4.36987 109.31C4.36987 109.7 4.12987 109.89 3.52987 109.89L3.51987 109.91ZM2.38987 109.79L2.29987 110.25H2.13987V109.2H2.29987L2.38987 109.7V109.79ZM3.56987 111.28H3.09987C2.80987 111.28 2.34987 111.28 2.13987 111.29V110.9C2.34987 110.9 2.80987 110.91 3.09987 110.91H3.48987C3.91987 110.91 4.03987 110.79 4.03987 110.52C4.03987 110.31 3.95987 110.12 3.72987 109.87V109.76H3.88987V110.01L3.84987 109.8C4.18987 110.04 4.35987 110.38 4.35987 110.7C4.35987 111.07 4.12987 111.28 3.56987 111.28ZM2.38987 111.16L2.29987 111.62H2.13987V110.57H2.29987L2.38987 111.07V111.16Z" fill="#595757"/>
<path d="M3.21008 111.96C3.97008 111.96 4.36008 112.48 4.36008 113C4.36008 113.52 3.97008 114.04 3.21008 114.04C2.45008 114.04 2.08008 113.52 2.08008 113C2.08008 112.48 2.45008 111.96 3.21008 111.96ZM3.21008 113.63C3.82008 113.63 4.15008 113.4 4.15008 113C4.15008 112.6 3.82008 112.37 3.21008 112.37C2.60008 112.37 2.28008 112.59 2.28008 113C2.28008 113.41 2.59008 113.63 3.21008 113.63Z" fill="#595757"/>
<path d="M2.95008 115C2.54008 115 2.40008 115.12 2.40008 115.37C2.40008 115.6 2.51008 115.84 2.74008 116.07V116.17H2.51008V115.94L2.58008 116.1C2.23008 115.84 2.08008 115.53 2.08008 115.23C2.08008 114.86 2.30008 114.64 2.90008 114.64H4.11008L4.02008 114.75L4.11008 114.33H4.27008L4.33008 114.99L4.29008 115.03L3.65008 115.01H2.95008V115ZM2.11008 116.09L2.64008 116.03H4.11008L4.02008 116.14L4.11008 115.72H4.27008L4.33008 116.37L4.29008 116.42H3.65008L2.29008 116.41L2.40008 116.3L2.31008 116.72H2.15008L2.11008 116.1V116.09Z" fill="#595757"/>
<path d="M2.13987 117.39C2.34987 117.39 2.80987 117.4 3.09987 117.4H3.30987C3.55987 117.4 3.69987 117.4 3.87987 117.39L3.91987 117.03H4.07987L4.34987 117.65L4.29987 117.72L3.76987 117.77H3.07987C2.79987 117.77 2.32987 117.77 2.11987 117.78V117.39H2.13987ZM2.29987 118.1H2.13987V117.05H2.29987L2.38987 117.55V117.64L2.29987 118.1ZM3.51987 119.15H3.09987C2.80987 119.15 2.34987 119.15 2.13987 119.16V118.77C2.34987 118.77 2.80987 118.78 3.09987 118.78H3.47987C3.89987 118.78 4.03987 118.67 4.03987 118.4C4.03987 118.17 3.94987 117.98 3.72987 117.73V117.63H3.93987V117.86L3.85987 117.66C4.14987 117.87 4.36987 118.24 4.36987 118.56C4.36987 118.95 4.12987 119.14 3.52987 119.14L3.51987 119.15ZM2.38987 119.03L2.29987 119.49H2.13987V118.44H2.29987L2.38987 118.94V119.03Z" fill="#595757"/>
<path d="M2.31009 120.65C2.31009 120.75 2.35009 120.84 2.44009 120.96L2.32009 121.06C2.17009 120.95 2.09009 120.76 2.09009 120.53C2.09009 120.22 2.25009 120.02 2.61009 120.02C2.72009 120.02 2.82009 120.02 2.99009 120.02H4.08009V119.64H4.28009L4.35009 120.21L4.20009 120.03L4.94009 120.17V120.43L4.14009 120.39H2.65009C2.41009 120.39 2.31009 120.49 2.31009 120.65ZM4.30009 121.02H4.06009V120.21H4.30009V121.02Z" fill="#595757"/>
<path d="M3.34009 122.04C3.41009 122.23 3.49009 122.52 3.53009 122.75H3.37009C3.33009 122.54 3.24009 122.28 3.19009 122.14C3.03009 121.73 2.86009 121.68 2.73009 121.68C2.49009 121.68 2.39009 121.84 2.39009 122.05C2.39009 122.21 2.45009 122.3 2.65009 122.59L2.72009 122.68L2.62009 122.74L2.49009 122.61C2.22009 122.34 2.09009 122.18 2.09009 121.9C2.09009 121.57 2.28009 121.29 2.66009 121.29C2.92009 121.29 3.12009 121.43 3.34009 122.04ZM2.56009 122.56H3.60009C4.05009 122.56 4.16009 122.43 4.16009 122.13C4.16009 122.03 4.15009 121.89 4.08009 121.72L4.22009 121.9L3.83009 121.78C3.70009 121.74 3.62009 121.67 3.62009 121.55C3.62009 121.43 3.69009 121.35 3.80009 121.34C4.15009 121.43 4.36009 121.76 4.36009 122.22C4.36009 122.68 4.15009 122.92 3.57009 122.92H2.60009C2.39009 122.92 2.32009 122.98 2.32009 123.09C2.32009 123.17 2.36009 123.22 2.42009 123.27L2.32009 123.36C2.15009 123.25 2.09009 123.13 2.09009 122.97C2.09009 122.72 2.27009 122.55 2.56009 122.55V122.56Z" fill="#595757"/>
<path d="M2.13987 123.9C2.34987 123.9 2.80987 123.91 3.09987 123.91H3.30987C3.55987 123.91 3.69987 123.91 3.87987 123.9L3.91987 123.52H4.07987L4.34987 124.21L4.29987 124.28H3.67987L3.07987 124.27C2.79987 124.27 2.32987 124.27 2.11987 124.28V123.9H2.13987ZM2.29987 124.6H2.13987V123.55H2.29987L2.38987 124.05V124.14L2.29987 124.6ZM5.15987 123.78C5.32987 123.78 5.44987 123.91 5.44987 124.08C5.44987 124.25 5.33987 124.38 5.15987 124.38C4.97987 124.38 4.86987 124.25 4.86987 124.08C4.86987 123.91 4.98987 123.78 5.15987 123.78Z" fill="#595757"/>
<path d="M2.13987 125.28C2.34987 125.28 2.80987 125.29 3.09987 125.29H3.30987C3.55987 125.29 3.69987 125.29 3.87987 125.28L3.91987 124.92H4.07987L4.34987 125.54L4.29987 125.61L3.76987 125.66H3.07987C2.79987 125.66 2.32987 125.66 2.11987 125.67V125.28H2.13987ZM2.29987 125.99H2.13987V124.94H2.29987L2.38987 125.44V125.53L2.29987 125.99ZM3.51987 127.04H3.09987C2.80987 127.04 2.34987 127.04 2.13987 127.05V126.66C2.34987 126.66 2.80987 126.67 3.09987 126.67H3.47987C3.89987 126.67 4.03987 126.56 4.03987 126.29C4.03987 126.06 3.94987 125.87 3.72987 125.62V125.52H3.93987V125.75L3.85987 125.55C4.14987 125.76 4.36987 126.13 4.36987 126.45C4.36987 126.84 4.12987 127.03 3.52987 127.03L3.51987 127.04ZM2.38987 126.92L2.29987 127.38H2.13987V126.33H2.29987L2.38987 126.83V126.92Z" fill="#595757"/>
<path d="M2.25006 127.75L2.75006 127.73V127.97L2.21006 128.09L2.31006 127.87H2.47006C2.35006 128.03 2.28006 128.2 2.28006 128.43C2.28006 128.78 2.42006 128.95 2.63006 128.95C2.83006 128.95 2.93006 128.81 3.03006 128.53L3.11006 128.32C3.23006 127.99 3.41006 127.77 3.72006 127.77C4.05006 127.77 4.35006 128.05 4.35006 128.56C4.35006 128.81 4.28006 129 4.16006 129.19L3.70006 129.17V128.94L4.16006 128.85L4.09006 129.01H3.97006C4.08006 128.86 4.14006 128.71 4.14006 128.55C4.14006 128.27 4.02006 128.12 3.83006 128.12C3.62006 128.12 3.55006 128.23 3.43006 128.54L3.38006 128.68C3.21006 129.14 3.00006 129.31 2.71006 129.31C2.37006 129.31 2.06006 129.01 2.06006 128.43C2.06006 128.18 2.12006 127.98 2.23006 127.76L2.25006 127.75Z" fill="#595757"/>
<path d="M3.34009 131.52C3.41009 131.71 3.49009 132 3.53009 132.23H3.37009C3.33009 132.02 3.24009 131.76 3.19009 131.62C3.03009 131.21 2.86009 131.16 2.73009 131.16C2.49009 131.16 2.39009 131.32 2.39009 131.53C2.39009 131.69 2.45009 131.78 2.65009 132.07L2.72009 132.16L2.62009 132.22L2.49009 132.09C2.22009 131.82 2.09009 131.66 2.09009 131.38C2.09009 131.05 2.28009 130.77 2.66009 130.77C2.92009 130.77 3.12009 130.91 3.34009 131.52ZM2.56009 132.04H3.60009C4.05009 132.04 4.16009 131.91 4.16009 131.61C4.16009 131.51 4.15009 131.37 4.08009 131.2L4.22009 131.38L3.83009 131.26C3.70009 131.22 3.62009 131.15 3.62009 131.03C3.62009 130.91 3.69009 130.83 3.80009 130.82C4.15009 130.91 4.36009 131.24 4.36009 131.7C4.36009 132.16 4.15009 132.4 3.57009 132.4H2.60009C2.39009 132.4 2.32009 132.46 2.32009 132.57C2.32009 132.65 2.36009 132.7 2.42009 132.75L2.32009 132.84C2.15009 132.73 2.09009 132.61 2.09009 132.45C2.09009 132.2 2.27009 132.03 2.56009 132.03V132.04Z" fill="#595757"/>
<path d="M2.13987 133.38C2.34987 133.38 2.80987 133.39 3.09987 133.39H3.30987C3.55987 133.39 3.69987 133.39 3.87987 133.38L3.91987 133.02H4.07987L4.34987 133.64L4.29987 133.71L3.76987 133.76H3.07987C2.79987 133.76 2.32987 133.76 2.11987 133.77V133.38H2.13987ZM2.29987 134.09H2.13987V133.04H2.29987L2.38987 133.54V133.63L2.29987 134.09ZM3.51987 135.14H3.09987C2.80987 135.14 2.34987 135.14 2.13987 135.15V134.76C2.34987 134.76 2.80987 134.77 3.09987 134.77H3.47987C3.89987 134.77 4.03987 134.66 4.03987 134.39C4.03987 134.16 3.94987 133.97 3.72987 133.72V133.62H3.93987V133.85L3.85987 133.65C4.14987 133.86 4.36987 134.23 4.36987 134.55C4.36987 134.94 4.12987 135.13 3.52987 135.13L3.51987 135.14ZM2.38987 135.02L2.29987 135.48H2.13987V134.43H2.29987L2.38987 134.93V135.02Z" fill="#595757"/>
<path d="M2.33008 136.86C2.33008 137.09 2.43008 137.25 2.70008 137.46L2.58008 137.5C2.27008 137.33 2.08008 137.11 2.08008 136.76C2.08008 136.2 2.54008 135.83 3.20008 135.83C3.86008 135.83 4.36008 136.24 4.36008 136.8C4.36008 137.06 4.26008 137.28 3.90008 137.52L3.78008 137.47C4.04008 137.21 4.11008 137.02 4.11008 136.85C4.11008 136.51 3.84008 136.21 3.21008 136.21C2.58008 136.21 2.33008 136.48 2.33008 136.85V136.86ZM2.30008 138.13H2.14008L2.09008 137.43L2.56008 137.38H3.96008L5.11008 137.39L5.15008 137H5.31008L5.52008 137.7L5.48008 137.76L4.83008 137.74H2.14008L2.37008 137.67L2.30008 138.12V138.13Z" fill="#595757"/>
<path d="M2.86007 141.04C3.16007 141.04 3.29007 140.86 3.44007 140.47L3.51007 140.3C3.69007 139.84 3.96007 139.52 4.42007 139.52C4.94007 139.52 5.26007 139.96 5.26007 140.54C5.26007 140.85 5.16007 141.09 5.02007 141.28L4.43007 141.25V140.98L5.12007 140.85L4.97007 141.14H4.74007C4.96007 140.92 5.04007 140.75 5.04007 140.51C5.04007 140.15 4.86007 139.89 4.52007 139.89C4.23007 139.89 4.06007 140.08 3.94007 140.41L3.87007 140.59C3.64007 141.19 3.37007 141.42 2.94007 141.42C2.40007 141.42 2.07007 140.97 2.07007 140.34C2.07007 140 2.18007 139.67 2.31007 139.46L2.95007 139.49V139.76L2.25007 139.88L2.38007 139.58H2.60007C2.39007 139.86 2.30007 140.02 2.30007 140.33C2.30007 140.76 2.50007 141.05 2.86007 141.05V141.04Z" fill="#595757"/>
<path d="M2.95008 142.35C2.54008 142.35 2.40008 142.47 2.40008 142.72C2.40008 142.95 2.51008 143.19 2.74008 143.42V143.52H2.51008V143.29L2.58008 143.45C2.23008 143.19 2.08008 142.88 2.08008 142.58C2.08008 142.21 2.30008 141.99 2.90008 141.99H4.11008L4.02008 142.1L4.11008 141.68H4.27008L4.33008 142.34L4.29008 142.38L3.65008 142.36H2.95008V142.35ZM2.11008 143.44L2.64008 143.38H4.11008L4.02008 143.49L4.11008 143.07H4.27008L4.33008 143.72L4.29008 143.77H3.65008L2.29008 143.76L2.40008 143.65L2.31008 144.07H2.15008L2.11008 143.45V143.44Z" fill="#595757"/>
<path d="M5.51989 145.02L5.47989 145.08L4.82989 145.06H3.09989C2.77989 145.06 2.45989 145.06 2.13989 145.07V144.68C2.45989 144.68 2.77989 144.69 3.09989 144.69H5.10989L5.14989 144.31H5.30989L5.51989 145.01V145.02ZM2.29989 145.44H2.13989V144.32H2.29989L2.38989 144.84V144.93L2.29989 145.45V145.44Z" fill="#595757"/>
<path d="M4.06989 146.11V145.73H4.26989L4.33989 146.24L4.26989 146.11C4.79989 146.16 5.06989 146.23 5.28989 146.43C5.49989 146.63 5.56989 146.86 5.56989 147.06C5.56989 147.26 5.49989 147.45 5.32989 147.49C5.21989 147.49 5.12989 147.38 5.12989 147.22C5.12989 147.11 5.16989 147.01 5.25989 146.9L5.42989 146.68L5.51989 147.06L5.37989 147.17C5.40989 147.12 5.42989 147.05 5.42989 146.99C5.42989 146.85 5.32989 146.7 5.16989 146.61C4.98989 146.5 4.67989 146.44 4.12989 146.47H3.09989C2.77989 146.47 2.45989 146.47 2.13989 146.48V146.09C2.45989 146.09 2.77989 146.1 3.09989 146.1H4.06989V146.11ZM2.29989 146.9H2.13989V145.73H2.29989L2.38989 146.25V146.34L2.29989 146.9ZM4.29989 147.11H4.05989V146.3H4.29989V147.11Z" fill="#595757"/>
<path d="M2.95008 147.93C2.54008 147.93 2.40008 148.05 2.40008 148.3C2.40008 148.53 2.51008 148.77 2.74008 149V149.1H2.51008V148.87L2.58008 149.03C2.23008 148.77 2.08008 148.46 2.08008 148.16C2.08008 147.79 2.30008 147.57 2.90008 147.57H4.11008L4.02008 147.68L4.11008 147.26H4.27008L4.33008 147.92L4.29008 147.96L3.65008 147.94H2.95008V147.93ZM2.11008 149.02L2.64008 148.96H4.11008L4.02008 149.07L4.11008 148.65H4.27008L4.33008 149.3L4.29008 149.35H3.65008L2.29008 149.34L2.40008 149.23L2.31008 149.65H2.15008L2.11008 149.03V149.02Z" fill="#595757"/>
<path d="M3.09987 150.33H3.30987C3.55987 150.33 3.69987 150.33 3.87987 150.32L3.91987 149.96H4.07987L4.34987 150.58L4.29987 150.65L3.72987 150.7H3.07987C2.79987 150.7 2.32987 150.7 2.11987 150.71V150.32C2.32987 150.32 2.78987 150.33 3.07987 150.33H3.09987ZM2.29987 149.99L2.38987 150.49V150.58L2.29987 151.08H2.13987V149.99H2.29987ZM3.70987 150.51V150.77L3.67987 150.66C4.09987 150.81 4.35987 151.08 4.35987 151.35C4.35987 151.48 4.29987 151.62 4.19987 151.67C3.98987 151.67 3.86987 151.59 3.86987 151.41C3.86987 151.3 3.90987 151.22 3.97987 151.14L4.08987 151.02L4.13987 151.24C3.98987 150.96 3.76987 150.79 3.40987 150.69V150.52H3.71987L3.70987 150.51Z" fill="#595757"/>
<path d="M3.26009 153.35C2.68009 153.35 2.37009 153.66 2.37009 154.08C2.37009 154.34 2.50009 154.58 2.73009 154.72L2.68009 154.83C2.30009 154.71 2.09009 154.41 2.09009 153.99C2.09009 153.37 2.53009 152.97 3.23009 152.97C3.93009 152.97 4.37009 153.47 4.37009 154.01C4.37009 154.42 4.12009 154.75 3.78009 154.81C3.67009 154.79 3.61009 154.72 3.61009 154.6C3.61009 154.45 3.70009 154.39 3.82009 154.36L4.22009 154.25L4.05009 154.46C4.13009 154.3 4.16009 154.15 4.16009 154.02C4.16009 153.62 3.85009 153.34 3.26009 153.34V153.35Z" fill="#595757"/>
<path d="M3.09987 155.54H3.30987C3.55987 155.54 3.69987 155.54 3.87987 155.53L3.91987 155.17H4.07987L4.34987 155.79L4.29987 155.86L3.72987 155.91H3.07987C2.79987 155.91 2.32987 155.91 2.11987 155.92V155.53C2.32987 155.53 2.78987 155.54 3.07987 155.54H3.09987ZM2.29987 155.2L2.38987 155.7V155.79L2.29987 156.29H2.13987V155.2H2.29987ZM3.70987 155.72V155.98L3.67987 155.87C4.09987 156.02 4.35987 156.29 4.35987 156.56C4.35987 156.69 4.29987 156.83 4.19987 156.88C3.98987 156.88 3.86987 156.8 3.86987 156.62C3.86987 156.51 3.90987 156.43 3.97987 156.35L4.08987 156.23L4.13987 156.45C3.98987 156.17 3.76987 156 3.40987 155.9V155.73H3.71987L3.70987 155.72Z" fill="#595757"/>
<path d="M3.49007 158.96C3.38007 158.96 3.29007 158.95 3.23007 158.93V157.25H3.42007V158.34C3.42007 158.56 3.53007 158.61 3.65007 158.61C3.91007 158.61 4.15007 158.39 4.15007 158.1C4.15007 157.81 3.90007 157.47 3.25007 157.47C2.67007 157.47 2.36007 157.76 2.36007 158.22C2.36007 158.51 2.49007 158.69 2.68007 158.86L2.60007 158.97C2.28007 158.81 2.07007 158.51 2.07007 158.1C2.07007 157.49 2.49007 157.09 3.19007 157.09C3.89007 157.09 4.35007 157.56 4.35007 158.13C4.35007 158.6 4.03007 158.97 3.48007 158.97L3.49007 158.96Z" fill="#595757"/>
<path d="M3.49007 161.29C3.38007 161.29 3.29007 161.28 3.23007 161.26V159.58H3.42007V160.67C3.42007 160.89 3.53007 160.94 3.65007 160.94C3.91007 160.94 4.15007 160.72 4.15007 160.43C4.15007 160.14 3.90007 159.8 3.25007 159.8C2.67007 159.8 2.36007 160.09 2.36007 160.55C2.36007 160.84 2.49007 161.02 2.68007 161.19L2.60007 161.3C2.28007 161.14 2.07007 160.84 2.07007 160.43C2.07007 159.82 2.49007 159.42 3.19007 159.42C3.89007 159.42 4.35007 159.89 4.35007 160.46C4.35007 160.93 4.03007 161.3 3.48007 161.3L3.49007 161.29Z" fill="#595757"/>
<path d="M5.51989 162.29L5.47989 162.35L4.82989 162.33H3.09989C2.77989 162.33 2.45989 162.33 2.13989 162.34V161.95C2.45989 161.95 2.77989 161.96 3.09989 161.96H5.10989L5.14989 161.58H5.30989L5.51989 162.28V162.29ZM2.29989 162.71H2.13989V161.59H2.29989L2.38989 162.11V162.2L2.29989 162.72V162.71ZM2.38989 163.45L2.29989 163.95H2.13989V163.35L3.34989 162.59L3.60989 162.84L2.19989 163.74L2.37989 163.45H2.38989ZM4.29989 163.64L2.76989 162.15H3.02989L4.29989 163.36V163.64ZM4.01989 163.19L4.12989 162.77H4.29989V163.83H4.12989L4.04989 163.32L4.01989 163.18V163.19Z" fill="#595757"/>
<path d="M2.40008 164.32C2.58008 164.32 2.72008 164.46 2.72008 164.64C2.72008 164.82 2.57008 164.96 2.40008 164.96C2.23008 164.96 2.08008 164.82 2.08008 164.64C2.08008 164.46 2.23008 164.32 2.40008 164.32Z" fill="#595757"/>
</svg>
