<svg width="135" height="22" viewBox="0 0 135 22" fill="none" xmlns="http://www.w3.org/2000/svg">
<path d="M4.15071 20.7867H7.37205V0.936593H5.68733C5.29855 0.936593 4.86533 0.969917 4.38028 1.03657C3.89523 1.10321 3.40647 1.29205 2.91402 1.60308C2.42156 1.9141 1.94761 2.40286 1.49218 3.06934C1.03675 3.73582 0.644268 4.6615 0.318431 5.83895H0V0.529297H17.6433V5.83895H17.3249C16.9953 4.65779 16.6028 3.73582 16.1511 3.06934C15.6957 2.40286 15.2217 1.9141 14.7293 1.60308C14.2368 1.29575 13.7481 1.10692 13.263 1.03657C12.778 0.969917 12.3448 0.936593 11.956 0.936593H10.2713V20.7867H13.4926V21.194H4.15071V20.7867Z" fill="white"/>
<path d="M20.3428 20.7867H23.5641V0.93659H20.3428V0.529294H25.8561C26.0893 0.529294 26.3189 0.525592 26.5522 0.514483C26.7854 0.503375 27.015 0.488565 27.2483 0.470051C27.4816 0.470051 27.7111 0.466349 27.9444 0.45524C28.1777 0.444132 28.4072 0.44043 28.6405 0.44043C29.7809 0.44043 30.7881 0.503375 31.6582 0.629267C32.5283 0.755158 33.3429 1.11802 34.0946 1.71786C34.7721 2.23994 35.2498 2.83237 35.5312 3.48774C35.8126 4.14682 35.9533 4.76517 35.9533 5.34649C35.9533 5.6353 35.9015 6.00927 35.7941 6.4647C35.6867 6.92013 35.4571 7.38297 35.098 7.85691C34.7388 8.33086 34.2241 8.76777 33.5466 9.16396C32.869 9.56015 31.9692 9.82674 30.8473 9.96374V10.023C31.1546 10.0637 31.5767 10.1341 32.1099 10.2414C32.6431 10.3488 33.1837 10.5266 33.7354 10.7783C34.2871 11.0301 34.7944 11.3634 35.2609 11.7781C35.7237 12.1928 36.0533 12.7297 36.2495 13.3887C36.3643 13.7775 36.4495 14.2144 36.4976 14.7106C36.5457 15.203 36.5865 15.7103 36.6124 16.2324C36.642 16.7545 36.6716 17.258 36.7012 17.7431C36.7309 18.2281 36.7827 18.6317 36.8605 18.9613C36.9752 19.4648 37.1604 19.9203 37.4122 20.3239C37.6639 20.7312 38.0712 20.9348 38.6303 20.9348C38.8821 20.9348 39.1413 20.8867 39.4153 20.7904C39.6856 20.6941 39.9263 20.5386 40.141 20.3276L40.4039 20.646C40.3077 20.7238 40.1966 20.8052 40.0707 20.8941C39.9448 20.9792 39.7856 21.0644 39.593 21.1422C39.4005 21.2199 39.1635 21.2829 38.8821 21.331C38.6007 21.3791 38.2564 21.405 37.8528 21.405C37.0789 21.405 36.4347 21.3088 35.9237 21.1162C35.409 20.9237 34.998 20.6386 34.6907 20.2609C34.3797 19.8832 34.1538 19.4204 34.0094 18.8687C33.865 18.317 33.7613 17.6727 33.7058 16.9396L33.5021 14.2996C33.4244 13.3332 33.2318 12.5778 32.9208 12.0372C32.6098 11.4967 32.2469 11.1005 31.8322 10.8487C31.4175 10.5969 30.9843 10.4488 30.54 10.4007C30.0957 10.3525 29.7069 10.3266 29.381 10.3266H26.4781V20.8015H29.6995V21.2088H20.3539V20.8015L20.3428 20.7867ZM26.467 9.9045H29.1367C29.6772 9.9045 30.1697 9.83785 30.6177 9.70085C31.0621 9.56385 31.4434 9.32688 31.7656 8.98994C32.084 8.65299 32.3321 8.19016 32.5061 7.61254C32.6801 7.03121 32.769 6.29808 32.769 5.40573C32.769 4.3986 32.6394 3.59142 32.3765 2.98418C32.1136 2.37323 31.7767 1.9141 31.362 1.60678C30.9473 1.29945 30.4807 1.09581 29.9698 0.995833C29.4588 0.899563 28.9478 0.851428 28.4443 0.851428C28.0962 0.851428 27.7444 0.855131 27.3853 0.866239C27.0261 0.877347 26.7225 0.899563 26.4707 0.940293V9.9082L26.467 9.9045Z" fill="white"/>
<path d="M41.1221 20.7868H43.6769L51.5118 0.00732422H52.2079L60.102 20.7868H62.6865V21.1941H53.7482V20.7868H56.9696L53.9223 12.7187H47.1908L44.1435 20.7868H47.3648V21.1941H41.1258V20.7868H41.1221ZM50.5528 3.86923L47.3611 12.3151H53.7445L50.5528 3.86923Z" fill="white"/>
<path d="M64.2488 20.7867H67.4702V0.936593H64.2488V0.529297H80.848V5.55014H80.5295C80.2778 4.79479 80.0075 4.13201 79.7187 3.5618C79.4298 2.99158 79.0818 2.50653 78.6745 2.11034C78.2672 1.71416 77.7858 1.41794 77.223 1.2254C76.6602 1.03286 75.9863 0.936593 75.1903 0.936593H70.3731V10.3377H72.2577C72.8946 10.3377 73.4389 10.2785 73.8832 10.1637C74.3275 10.0489 74.7089 9.83045 75.031 9.51202C75.3495 9.19359 75.6198 8.75667 75.8419 8.20497C76.0641 7.65327 76.2826 6.94235 76.4936 6.07222H76.812V15.0994H76.4936C76.3566 14.5403 76.2196 13.996 76.0715 13.4739C75.9271 12.9518 75.7235 12.489 75.4606 12.0817C75.2014 11.6744 74.8496 11.3523 74.4164 11.1079C73.9795 10.8672 73.4167 10.745 72.7206 10.745H70.3694V20.7867H73.5907V21.194H64.2451V20.7867H64.2488Z" fill="white"/>
<path d="M84.3326 20.7867H87.5539V0.936593H84.3326V0.529297H100.932V5.55014H100.613C100.362 4.79479 100.091 4.13201 99.8024 3.5618C99.5136 2.99158 99.1656 2.50653 98.7583 2.11034C98.351 1.71416 97.8696 1.41794 97.3068 1.2254C96.744 1.03286 96.0701 0.936593 95.274 0.936593H90.4568V10.3377H92.3415C92.9784 10.3377 93.5227 10.2785 93.967 10.1637C94.4113 10.0489 94.7927 9.83045 95.1148 9.51202C95.4333 9.19359 95.7036 8.75667 95.9257 8.20497C96.1479 7.65327 96.3663 6.94235 96.5774 6.07222H96.8958V15.0994H96.5774C96.4404 14.5403 96.3034 13.996 96.1553 13.4739C96.0109 12.9518 95.8072 12.489 95.5443 12.0817C95.2814 11.6744 94.9334 11.3523 94.5002 11.1079C94.0633 10.8672 93.5005 10.745 92.8006 10.745H90.4494V20.7867H93.6708V21.194H84.3252V20.7867H84.3326Z" fill="white"/>
<path d="M104.501 20.7867H107.722V0.936593H104.501V0.529297H113.847V0.936593H110.625V20.7867H113.847V21.194H104.501V20.7867Z" fill="white"/>
<path d="M135 21.1905H134.567C134.43 21.035 134.278 20.8943 134.104 20.7684C133.93 20.6425 133.66 20.5795 133.289 20.5795C133.001 20.5795 132.686 20.6314 132.345 20.7388C132.004 20.8461 131.619 20.9646 131.186 21.1016C130.749 21.2349 130.261 21.3571 129.72 21.4645C129.179 21.5719 128.58 21.6237 127.92 21.6237C126.702 21.6237 125.517 21.4015 124.366 20.9572C123.214 20.5129 122.126 19.7872 121.1 18.78C120.152 17.8321 119.36 16.7102 118.719 15.4143C118.082 14.1183 117.76 12.6188 117.76 10.9155C117.76 9.46407 118.019 8.08297 118.545 6.76481C119.067 5.45036 119.793 4.28771 120.722 3.28058C121.652 2.27345 122.744 1.47737 124.003 0.884942C125.262 0.296215 126.636 0 128.124 0C128.724 0 129.257 0.059243 129.72 0.174026C130.183 0.28881 130.601 0.422106 130.968 0.566511C131.334 0.710916 131.675 0.84051 131.982 0.958996C132.29 1.07378 132.593 1.13302 132.882 1.13302C133.267 1.13302 133.545 1.07008 133.708 0.944185C133.871 0.818294 134.022 0.677592 134.156 0.522079H134.593V6.32789H134.274C134.1 5.59106 133.878 4.86903 133.608 4.15071C133.337 3.43609 132.96 2.80293 132.475 2.25123C131.99 1.69953 131.375 1.25521 130.631 0.914564C129.887 0.577619 128.961 0.407296 127.857 0.407296C126.832 0.407296 125.951 0.566511 125.217 0.884942C124.481 1.20337 123.862 1.62918 123.359 2.16237C122.855 2.69556 122.455 3.31391 122.155 4.02112C121.855 4.72833 121.63 5.47257 121.474 6.25754C121.319 7.04251 121.219 7.83489 121.17 8.63837C121.122 9.44185 121.096 10.2009 121.096 10.9155C121.096 12.9483 121.259 14.6293 121.589 15.966C121.918 17.3027 122.378 18.3542 122.966 19.1281C123.555 19.9019 124.266 20.4425 125.099 20.7536C125.932 21.0646 126.85 21.2164 127.857 21.2164C129.153 21.2164 130.198 21.0313 130.99 20.6647C131.782 20.2981 132.423 19.8168 132.904 19.2281C133.389 18.6393 133.756 17.9691 134.008 17.2249C134.259 16.4807 134.482 15.7401 134.674 15.0033H134.993V21.1831L135 21.1905Z" fill="white"/>
</svg>
