<svg width="328" height="21" viewBox="0 0 328 21" fill="#000" xmlns="http://www.w3.org/2000/svg">
<path d="M9.5,1l8.9,19.2h-2.1l-3-6.3H5.1l-3,6.3H0L9.1,1H9.5z M9.3,5.1L6,12h6.6L9.3,5.1z M27.4,1c8.6,0,8.1,10.8-0.5,10.3l6.9,8.9
	h-2.4l-6.9-8.9h-1.1v8.9h-1.9V1L27.4,1z M23.5,9.4l4.2,0c5.1,0.1,5.2-6.5,0.1-6.5l-4.3,0V9.4z M55.5,4.5L54,5.7
	C49.9,0,38.8,1.8,38.8,10.6c0,8.6,10.7,10.7,15.2,5l1.5,1.1c-5.3,6.6-18.7,4.7-18.7-6.4C36.8,0,50.3-2.6,55.5,4.5z M59.3,1h1.9v8H71
	V1h1.9v19.2H71v-9.3h-9.8v9.3h-1.9V1z M77.3,1h1.9v19.2h-1.9V1z M81.7,2.9V1h10.5v1.9h-4.3v17.3h-2V2.9H81.7z M95,1h11v1.9h-9.1v6h9
	v1.9h-9v7.5h9v1.9H95V1z M127.1,4.5l-1.5,1.2c-4.1-5.7-15.2-3.9-15.2,4.9c0,8.6,10.7,10.7,15.2,5l1.5,1.1
	c-5.3,6.6-18.7,4.7-18.7-6.4C108.4,0,121.9-2.6,127.1,4.5z M129.1,2.9V1h10.5v1.9h-4.3v17.3h-2V2.9H129.1z M149.7,1h2v7.2l7.7-7.2
	h2.6l-9.2,8.6l9.9,10.6h-2.6l-8.4-8.9v8.9h-2L149.7,1z M165.5,1h11v1.9h-9.1v6h9v1.9h-9v7.5h9v1.9h-10.9V1z M179.8,1h0.4L193,15.7V1
	h1.9v19.2h-0.4L181.8,5.6v14.5h-2V1z M218.1,4.2l-1.5,1.4c-5.8-6-15.8-3-15.8,4.9c0,9.6,14.6,11.5,16.3,2.3h-6.1V11h8.3
	c0,13.6-20.4,12.4-20.4-0.4C198.8,0.2,211.6-2.7,218.1,4.2L218.1,4.2z M242.2,10.6c0.1,13.4-20.1,13.5-20.2,0.1
	C221.9-2.8,242.2-2.9,242.2,10.6z M224,10.6c0.1,10.9,16.3,10.8,16.2-0.1C240.2-0.4,223.9-0.3,224,10.6z M253.4,1h2v7.2l7.7-7.2h2.6
	l-9.2,8.6l9.9,10.6h-2.6l-8.4-8.9v8.9h-2L253.4,1z M269.3,1h1.9v13.6c0,5.7,8.9,5.7,8.9,0V1h1.9v13.6c0,8.1-12.7,8.1-12.7,0L269.3,1
	L269.3,1z M288.6,1h0.3l7.8,15.7L304.4,1h0.3l2.8,19.2h-1.9l-1.9-13.7l-6.8,13.7h-0.5l-6.9-13.8l-1.9,13.8h-1.9L288.6,1z M319.1,1
	l8.9,19.2h-2.1l-3-6.3h-8.3l-3,6.3h-2.1L318.6,1H319.1z M318.8,5.1l-3.3,6.9h6.6L318.8,5.1z"/>
</svg>
