<svg width="19" height="26" viewBox="0 0 19 26" fill="none" xmlns="http://www.w3.org/2000/svg">
<path fill="#FFF" d="M4.4,7.8V5.1c0-2.4,3.4-2.4,3.4,0v2.7c1.4-0.6,2.4-2.1,2.4-3.7C10.2,1.8,8.4,0,6.1,0C3.9,0,2,1.8,2,4.1C2,5.8,3,7.2,4.4,7.8z"/>
<path stroke="#FFF" stroke-width="2" stroke-linejoin="round" d="M14.5,11.8V9.9c0-2.3-3.4-2.3-3.4,0v0.7V8.5c0-2.2-3.3-2.2-3.3,0v2.1V4.7c0-2.4-3.4-2.4-3.4,0v11.1l0-3.6c0-0.6-3.3-0.6-3.3,3.5v1.2c0,4.3,3.5,7.9,7.9,7.9h3.3c3,0,5.5-2.5,5.5-5.5v-6.5C17.8,9.7,14.6,9.7,14.5,11.8z"/>
</svg>