<svg width="285" height="286" viewBox="0 0 285 286" fill="#C69E62" xmlns="http://www.w3.org/2000/svg">
<path d="M165.1,164.8c-0.4-0.4,0.2-1.5,0.7-1c0.3,1.2,2.1,0.6,2.2,1.7C167.5,166.9,165.7,165.5,165.1,164.8z
	 M186.6,122.6c-0.2,0.7,0.9,1.6,1,0.5C187.8,122.4,186.6,121.5,186.6,122.6z M167.9,152.7c0,0.5-1.3,1.2-0.6,1.5
	c1.2,0,1.9,0,2.7-0.8c0.9,0.5,2.1,0.7,2.1-0.5l0,0C170.8,153.4,169.2,153,167.9,152.7z M173.3,150.5c-0.1-0.1-0.2-0.1-0.2-0.2
	c-0.2,0.1-0.9,0.2-0.4,0.6c0.7,0.1,2.3-0.3,2.6,0.6c0.6-0.1,1,0.6,1.3,1c0,0,0,0-0.1-0.1c0.2,0,0.4-0.1,0.6-0.1c0,0.1,0,0.1-0.1,0.1
	c0.1-0.1,0-0.2,0.1-0.3c0.1-1.3,0.2-2.6,0.3-3.8c0,0.2-0.1,0.4-0.1,0.6c-0.2-0.8,0.2-1.5,0.1-2.3c-0.1,1.9-2.3,1.3-2.8,2.7
	C174.4,150,174.2,150.6,173.3,150.5z M187.1,174.4c-0.9,0.6-1.9,0.2-2.1-1c-1,0.7-1.7,1.8-2.4,2.8c1.1,1.8,2.2,0.9,2.7-0.8
	C186.4,174.8,186.2,176.5,187.1,174.4z M202.2,164.5c-0.4-0.2-1-1-1.3-0.3c-0.6,1.4,1.1,1.3,1.2,2.4l0,0
	C203.5,170.9,204.8,165.3,202.2,164.5z M201.1,171.8c-0.9,0.6,0.2,1.2,0.9,1.1C204.8,172.2,202.6,170.3,201.1,171.8z M170.9,161.7
	c0-0.5,0-1,0.1-1.4C169,157.6,169.4,165.9,170.9,161.7z M174.2,159.8L174.2,159.8c-0.9-1.6-1.5-1.2-1.8,0.5l0,0
	c-1.1,1.2-2.1,4.9,0.3,2.3c0.3-0.6,0.7-0.2,1-0.2c0,0-0.1,0-0.1-0.1c1,0.9,0.8-0.6,0.8-1.2C174.2,160.8,174.7,160.2,174.2,159.8z
	 M173.5,181.4c-0.1,1.2,2,1.4,1.4,0.1l0,0c0-0.2-0.1-0.3-0.3-0.3l0,0C174.2,180.8,173.9,180.9,173.5,181.4z M180,182.1
	c0.7-0.3,0.8-1.8,0.2-2.2C179.1,179.6,179.1,181.7,180,182.1z M178.4,168.6c-1-0.1,0.1,1.6,0.7,1.6
	C179.7,169.7,178.9,168.8,178.4,168.6z M193.3,186.1c-0.3-2.4,3.3,1.5,2.7,2.8C194.2,189.4,193.8,187.3,193.3,186.1z M189.1,178.4
	c-3.9-1.1-4.2,3.4,0,2c1.2,0,2.4,1.7,3.3,0.2l0,0c0.7,0,0.6-1.2,0.3-1.6c-0.9,0.4-1.9,1.2-3,0.4l0,0
	C189.5,179.1,189.5,178.4,189.1,178.4z M111.4,118.2c0.6,0.4,0.1,2.2,1.1,1.6c0.3-0.8,2.2-0.5,1.3-1.2c-0.4,0.1-0.5-0.6-1-0.3
	C112.3,118.6,111.8,117.8,111.4,118.2z M96.8,111.4L96.8,111.4C100.4,112.8,95.5,106.4,96.8,111.4z M87.1,181
	c-0.2-0.3-0.7-0.8-0.1-1.1c-0.5-0.3-0.4-1.3-0.1-1.7c-0.9,0.4-1.9-1.3-2,0.4c0.6,1.3-1.1,1.6-0.9,2.7c0.9,1.3,1.4-3,2.5-0.1
	C86.8,181.2,86.9,181.1,87.1,181z M91.1,185c-0.3-0.5-0.4-1-0.3-1.6c-0.7,0.1-1.4-0.1-1.8-0.7c-0.1,0.1-0.2,0.2-0.3,0.2
	c0.2,0.8-0.4,1.1-0.9,1.4C88.7,184,90,184.6,91.1,185z M91.7,178.6c-3.5-0.1-2.6-0.3-2.9,2.8C90.3,181.3,91.4,180.1,91.7,178.6z
	 M94.3,182.1L94.3,182.1c0-0.4,0.3-0.9,0.3-1.4c-0.3,0.1-0.5-0.2-0.7-0.4c-0.8,0.9-0.8,2.1-1.6,2.9c-0.5,0.5,0.7,0.8,0.7,1.5
	c0.3-0.4,0.3-1,0.9-1.2C93.5,183,93.8,182.4,94.3,182.1z M122.9,177.7C123,177.7,123,177.7,122.9,177.7c0.2,0.2,0.2,0.5,0.1,0.8
	c0.7-0.5,0.9,0,1.2,0.5c0.1-0.7,0.9-0.6,1.4-0.7c-0.7-1.2,0-2.4-1.7-1.3l0,0C123.6,177.3,123.3,177.5,122.9,177.7z M191.9,93.7
	c-1.6,4.7,9.2,0.4,2.4-3.6c-1.2-1.7-1.3-1.4-2.6,0.1C190.3,92.1,195.1,91.9,191.9,93.7z M178.2,89.3c-0.2-0.5,0.1-1.1-0.2-1.6
	c-0.2,0-0.3-0.1-0.3-0.3l0,0c-1.1-1.3-0.3-1.3,0.4-2.1c0.5-1.2,1.4-1,2,0c1.6,2.2-3.1,4.8,0.6,6.2c4.3,1.9-1.1,4.5,1.3,4.9
	c0.6-0.1,1.6-0.2,1.9,0.3c1.6,1.8-0.6,1.7-1.9,2.2c-2.8,0.8-4.6-2.3-2.5-4.4c0.5-0.5,0.4-1.7-0.5-1.4c0.1,0.6-0.2,1.2-0.6,1.6
	c-0.9,0.7-2.5,0.1-2.9-1c-0.2-0.4-0.4-0.9-0.5-1.4c-0.2-1.5,1.9-0.5,2.7-1.2c0.4-0.3,0.3-0.8,0.4-1.2l0,0
	C178.2,89.9,178.2,89.3,178.2,89.3z M176.4,82.3c-0.3-0.4-0.7,0.5-0.7,0.8c-1.4,0.9-1,4.9,0.6,3.5C176.9,85.3,177.1,83.6,176.4,82.3
	z M177,81c0.6,1.5,2.8,2.1,2.1-0.1c1.9-2.2-0.8-5-2.1-1.9C176.7,79.7,176.4,80.3,177,81 M170.4,123.7c1.1-1.6,3.4,1.3,4.1,2.2
	c0.1,0.1,0.2,0.2,0.2,0.4c0.6,1.4,1.4,1.2,2.7,0.8c1.9-0.1-0.6,1.9,2.9,1.1c1-1.6-0.9-1.4-0.8-2.8c0.5-0.3,1,1,1.6,0.2
	c0-0.1,0-0.2,0.1-0.3c0-0.8,0.1-1,0.1-1.8c-0.2-2.5-0.2-5.6,0.5-8c0.3-0.4,0.5,1.7,0.5,2.3c-0.1,1.5,1.1,8.5-0.2,8.2
	c-0.2,0.4-0.1,1.1,0.5,1.1c1.3-0.6,2,0,1.8,1.6c0.5,0,0.9,0,1.3-0.2c-0.1-0.8,0.3-1.1,1-0.9c0.9-2.7,2.4-2.9,3.3-0.1
	c0.2,0.3,0.4,0.6,0.5,0.9c2.4-4.1,4.1,3.9,1.1,1.6c-0.1,0-0.2-0.2-0.3-0.3c-0.4-0.3-0.6-0.6-0.8-1c-0.4,1.5-1,3.3-2.9,3.4
	c-1.2,1.7-2.6,8.8-5.8,4.5c0.2,0.3-0.1,1.3-0.5,1c-1.8,0.5-0.5,3.4-0.7,4.6c0.2,0.2,0.5,0.5,0.6,0.8c0,0,0,0,0-0.1
	c0.9,0.9,0,1.7-0.9,1.3l0,0c-0.2,2.9-0.3,5.7-1.2,8.5l0,0c-0.2,0.7,0.3,1.7-0.4,2.3l0,0l0,0l0,0c-0.1,0.7,0.2,1.6-0.5,2.2l0,0
	c-1.5,2.3,0,5-0.5,7.5c0.1,2,0.3,4.1,0.2,6.2v-0.1c0.1,4.1,0,8.7,0,13.1c0.3,0.6,0.2,1.4,0.2,2.1c0.9-0.4,1.4-1.5,2.2-2.1
	c0-0.1,0.2-0.6,0.4-0.3c0.7-1.4,2.9-1.6,1.1-2.9c-0.4-0.7-0.4-1.6-0.8-2.2c-0.6-0.5-1-1.3-0.4-2.1c0,0.1,0.1,0.1,0.1,0.2
	c-0.5-0.9,0.7-1.4,1.4-1.4c0.7-0.9,2.4-4.1,3.5-2.4c2,0.3,1.3-3,3.6-1c1.1-1.1,1.5-1.1,2.4,0l0,0l0,0c0.4,0.6,0.9,0.7,1-0.2
	c0.3-3.5,3.2,2.5-1.7,2.6l0,0c0,0.2-0.1,0.3-0.3,0.3c-0.2,1.6-0.9,2.1,1,1.6c0.3-0.4,0.8-0.6,1.2-0.6c1.1-0.7,2.6-1.4,2-3.1
	c0.8-0.6,1.5-1.2,1.9-2.1c-0.9-1.3-0.4-2.4,1.1-2.2c1.3-3.1,2.5,2.3,3.2-1.8c0.2,0.5,0.1,1.2,0.4,1.6c1.2,0.9,2.3,3.2-0.6,2.5
	c-0.1,0.3-0.4,1-0.6,1.4c-0.8,0.8-1.2-1.6-2.4-0.5c-0.3,1-0.3,2.5-1.1,3.2c0,0,0,0,0.1,0c-0.1,0.7-1,1.9-1.6,1.6
	c-0.1,0.2-0.2,0.4-0.4,0.6c-1,2.8-6.5,1.5-8-0.3c-0.9,2.4-2.3,4.5-3.7,6.4c0.2,0,0.5,0.1,0.5,0.4c0.2,0.1,0.2,0.2,0.2,0.4
	c0.3,0.2,0.8-0.3,1.2-0.1c0.1-0.8-0.5-3.3,1-2.3c1.3,1.8,4.1,3.6-0.3,3.8c-1.6-0.9-3.2,1.5-4.3-0.6c-0.2-0.1-0.4,0.1-0.5-0.1
	c-2.5,3-2.3,4.2-2.3,7.9c0.2,5.3-1.2,10.8-0.2,15.8c2.3-3.4,6.4-3.5,1.9,0.5c0,0,0,0,0-0.1c0,0.1-0.1,0.1-0.1,0.1s0,0,0.1,0
	c0,0.2-0.1,0.3-0.3,0.3l0,0c0,0,0,0-0.1,0.1l0,0c-0.2,0.6-0.9,0.8-1.2,1.2l0,0c-0.4,0.6-1.1,1.1-1.6,1.5c-0.2,4.5,0.8,8.8,0.5,13.2
	c0.6-0.7,1.2-1.6,2.2-1.6c-1-1.4-0.7-2.1,1.2-3.2c0.2-0.4,0.2-0.9,0.8-0.9c0.2-0.4,0.6-0.7,1-0.9l0,0c1.6-1.8,3.5-3.5,5.4-4.4
	c1.5-0.5,0.8,2.5-0.2,2.4c-1.3,1.4-2.9,2.5-4.1,3.7c-0.1,0.3-0.6,0.9-0.9,0.9c-2.3,2.9-5.8,5.8-5.1,9.8c0.4,10.2,2.9,21.3,2.1,31.3
	c1,2.7,0.9,6.3,0.8,9.4c2.4,0.4,5.3,0.3,7.3,0.7c-0.2,0-0.8,1.6-0.6,1.6c-2.7,0-7.6,0.5-17-0.3c-1.5,0.2-2.9,0.2-4.4,0
	c-2.9-0.4-7.4,1.5-9.4-0.2c-0.2-2.3,2.3-2.1,3.8-2.1c1.1-0.2,2.9-0.4,3.6,0c1.6-0.5,8.5,0,12.2,0c0.1-1,0.2-2,0.5-2.8
	c0.5-3.7,0-7.4,0-11.1c-0.7-4.2-0.1-9.2-0.6-13c-0.6,0.1,0.1-1,0-1.5c-0.1-3.5-0.6-6.8-0.5-10.2c-0.2-1.4-0.2-2.8-0.1-4.2
	c-0.5-0.8,0.6-1.6-1.2-3.1c0-1.9-1.5-2.3-1.5-2.3c-0.6,2.9-1.7-0.6-2.5-1.5c-1.4-0.2,0.4-1.2,0.9-0.3c0.1,0.1,0.4,0.1,0.6,0.3
	c0-1-1.3-1.5-0.6-2.5c-0.2,0-0.2-0.3-0.4-0.4c-2.8-4.1-4.2-3.8-4.6-4.9c-2.9-2.8-0.6-1.9,0.2-1.6c0.8,0.3,0.8-1,1.6-1.8
	c1.5-1.4,0.3-1.2,0.7-2.1c-0.7,0.4-0.3-0.6-0.4-1.5c-1.2-0.9,1-1.9,1.6-1h0.2c-1.1-2.2-3.8-2-5.1-4.2c1.6-0.6,2.5,1,3.9,0.8
	c0-0.1,0-0.4,0.1-0.2c-1.2-5.4,0.6-5.9,1.4-0.3l0,0c0.2-0.2,0.7-0.5,0.7-0.1c-0.2-0.5,0.7-0.4,1-0.4h-0.1c0.1-0.2,0.2-0.2,0.4,0
	h-0.1c0.3,0.1,0.8,0,0.9,0.4c0.3,1.6,1.5,1.2,2.6,2.5c0.4-0.8,0.1-1.6,0.3-2.3c0,0,0,0,0,0.1c-0.2-0.5,0-1.1,0.1-1.6l0,0
	c0.1-5.7-0.1-11.9,0.6-17.3l-0.1-0.1l0,0c-0.5-0.8,0-2-0.2-2.9c0,0,0,0,0,0.1c-1.4,0-2.1-0.7-1.9-2.5l0,0c-0.5-1.3-2.2-0.5-2.8-1.6
	l0,0c0.1,0,0.1-0.1,0.1-0.1c-2-0.7-4.4-0.4-6.5-1l0,0c-0.6-0.1-1.2,0-1.8-0.4l0,0c-0.5,0.1-0.9,0-1.1-0.5l0,0
	c-0.9-0.6-0.2-1.3,0.6-0.9c0.5,0,0.9,0.1,1.4,0.1c1.4,1,3.6-0.6,5,0.6c0.4,0.3,0.7,0.2,1.1-0.1c1-0.8,2.4,0.3,3.1,1l0,0
	c0.1,0.1,0.2,0.1,0.3,0.2l0,0c0.2,0,0.3,0.1,0.3,0.3l0,0l0,0c0.5,0.2,0.8,0.6,1.1,1.1c0.1,0,0.3,0.1,0.3,0.4l0,0c0,0,0,0.1,0.1,0.1
	l0,0c0.2,0,0.2,0.1,0.3,0.3c0.7-1.8,0.2-4.6,0.1-6.6c-0.2,0-0.7-0.3-0.9-0.6l0,0l-0.1-0.1c0,0,0,0.1,0.1,0.1c-2.6-2.9-4-0.4-4.4-2.1
	c0.4-1.3-0.7-1.5-1-2.2c0.8-1.2,2.3,1.9,3.6-0.1c-0.3,2,1.4,2,2,3c0,0,0,0,0-0.1c0.2,0,0.3,0.1,0.3,0.3c0,0,0,0-0.1,0
	c0,0,0,0,0.1,0.1l0,0c0,0.1,0.1,0.2,0.2,0.2c-0.1-0.1-0.1-0.2-0.2-0.3c1.3,0,0-2.3,0.4-3.2c0.3-1.6-1-0.9-1.6-1.8
	c1.7-0.5,1.2-1.3,1.6-2.8c-0.4-2.1-3.8-2.4-0.3-3.8c-0.1,0-0.2,0-0.3-0.1c0,0.7-0.9,0.7-1.3,0.3l0,0c-0.2-0.1-0.5-0.2-0.2-0.4
	c-0.1-0.4-0.7-0.3-0.9-0.5c-1.6,0.3-3.4,0.8-5.1,0.3c-0.5-0.8-1-1.1-2-0.6c-0.5,0.2-2,0.8-2-0.2c-0.2-1-6,1.8-4.2-0.7
	c1,0,0.1-1,0.8-1.3l0,0c0.1-0.1,0.1-0.3,0.1-0.3c0,0.1,0.2,0.1,0.2,0.1c-0.1,0-0.1,0.1-0.2,0.1c1.2-0.7,2-2.9,3.3-3
	c1.1,0.9-0.2,2.6-1,3.2c0.6-0.3,1.2-0.1,1.5,0.6c1.8-1.6,3.7-2.1,0.7-3.6h0.1h-0.1l0,0c-0.6-0.3-1.4-0.2-1.7-1.1
	c-0.2,0.2-0.4,0.1-0.5-0.2l0,0c-1-1-3.3-0.5-3.4-2.3c0-0.4-0.2-0.6-0.6-0.6c-1.1-0.4-2.4-0.2-3.2-1.2c-1.4-0.3-4.4,0.6-4.4-1.8l0,0
	l0,0c-2.1,1.6-5.3-3.6-1.9-2.7l0,0c1.4-0.8,2.6-0.2,3.5,1.2l0,0c0.3-0.2,0.7-0.4,1-0.6c0.5-1,2.5,0.1,3.2-1.2
	c0.1,0.5-0.1-0.5,0.4-0.2c0.1-0.5,0.6,0.5,0.6,0.7c0.5,0,0.9,0.5,1.4,0.3l0,0c0.2-0.5,0.2-1.1,0.5-1.5c0.2-3.4,2.1-0.8,1.8,1.2
	c0.1-0.1,0.1-0.1,0.2-0.2l0,0c0-2.9,1.2-3.1-1.7-5.6c-2.6-1.3-2.8-6.4,0.4-1.9l0,0c0.2,0,0.3,0.1,0.4,0.2l0,0
	c0.4,0.1,0.8,0.3,0.8,0.7c1,0.6,1-0.9,1.8-1.4c1.2-2.1,2.7,1.6,1.8,2.4l0,0c-0.3,1.1-0.8,2.2-2,2.5l0,0l0,0l0,0
	c0.1,2.8,1.3,5.7-0.2,8.4c2.7-1.1,1.2,2.1,3.7-2.7l0,0c0.2-3.7,3.4,2.6,1.1,2.7c0,0.7,0.2,1,1.1,0.7c0.5,1.6,1.4,2-0.9,2.6l0,0
	c-0.3,0.2-0.6,0.4-0.4,0.9c-0.1-0.1-0.1-0.2-0.2-0.3c0,0.1,0.1,0.2,0.1,0.3c0.7,0.1,1.5,0.3,2,0.8l0,0c0.5,0,1.2,0.3,1.3-0.4
	c0,0,0,0.1-0.1,0.1c0.1-0.9,0.2-5.7,1.4-3.5l0,0l0,0l0,0c0.4,0.2,0.5,0.6,0.6,1l0,0c0,0.1,0.1,0,0.2,0.1c1.2-1.8,0.8-4,2.4-5.8
	c-0.7-0.1-1.6,0.6-2-0.1c-0.3-0.1-0.8,0-1-0.4c-2.5,2.5-5-1-7.4-1.5c-1.5-0.8,0.8-2.2,1-3.3v0.1c-0.4-2,2.4-1.3,3.7-2.1
	c0.1-0.9,0.6-1.8,1.1-2.6c0.1-0.4,0.3-0.8,0.6-0.9c2.3-0.9,2.1,2.6,3.2,3.8l0,0c1.2,0.7,1,2.6,2.1,3.4c2.6,2.3,2.9-2.1,2.6-3.9
	c-0.1-0.1-0.2-0.2-0.2-0.4c-0.1-0.1-0.2-0.1-0.1-0.3c-0.9-4-5.7-1.4-7-4.2c-0.5-0.5-0.6-1.2-0.7-1.9c-0.7-0.3-1.8-0.5-1.9,0.6
	c-1.6,4.6-3.4-0.9-5.2-0.7c-1.2,0.3-3.8-2.8-2-3.1c1.3-0.2,3.5-1.1,4.4-0.2c0.8,0.2-0.2,2,1.1,1.4
	C168.9,125.4,169.6,124.7,170.4,123.7z M164.4,185.9c0.3,0.1,0.5,0.4,0.7,0.4c0.1-0.2,0.3-0.4,0.5-0.4l0,0c1.6-0.3,2-2.6,3.4-2.8
	l0,0c0.4,0,0.6,0.2,0.6,0.7c1.2,0.9-0.5,2.6-1.1,3.3c-0.9,0.7-2.7,1.1-3.3,1.9c4.1-2.8,2.1,3.5-0.1,3.4l0,0c0.2,0.4-0.6,0.7-0.9,0.6
	l0,0c-2,0.5-1.3-2.8-2.7-2.4c-1.6,0.8-2.4-0.8-3.9-0.6c-2,1.6-4.1,1.3-5.8,2.1c0.7,0.4,1.3,0.3,2,0.7c1.4-0.8,1.7,2.2,0.9,3.1
	c-2.4-0.1-1.3-3.5-4.5-1.4l0,0c-1.1,0.9,1.8,1.5,0.3,2.9l0,0c0,0.9-2.3,1.2-2.7,0.6c-1-0.3-0.9-1.5-1-2.4c-1.6,1.5-1.8-1.4-1.4-2.4
	c0.8-0.4,1.9-1.6,2.8-0.9c0.2-0.9,2.4,0.6,1.9-0.7c-0.8-1,0.1-1.5,1-2.2c1.7-2,2.7-1.3,2.1,1.3c2.1-1.3-0.9-1.2,1.1-2
	c2.2-1.3,4.9,0.2,7.1-0.3c1.6-0.5,4.7-0.8,1.7-2.1c-0.3,0-0.6-0.7-1.1-0.8l0,0c-6-3.8-0.2-3.1,1.8-0.5
	C164.1,184.8,164.6,185.6,164.4,185.9z M162.6,175.8L162.6,175.8L162.6,175.8c-0.1-1,1.1-1.4,1.3-0.3l0,0c0.7,1.9-0.6,2-1.7,2.9
	c0.3,1.7-4.5,1.9-2.7,0.2l0,0l0,0l0,0c0.1-0.3,0.3-0.4,0.6-0.3c0,0,0,0,0,0.1c0,0,0,0,0.1-0.1l0,0
	C160.9,177.6,161.8,176.6,162.6,175.8z M153.4,175.6c0.3-0.1,0.6-0.6,0.9-0.6l0,0c0.1-0.2,0.2-0.3,0.3-0.3l0,0
	c0.3-0.4,0.8-0.6,1.2-0.7l0,0c0.4-0.8,1.2-0.2,0.9,0.5c-0.1,1.9-2.2,1.8-3.2,2.7c0,0,0,0,0.1,0c-0.7,0.5-2.2,0.2-2.4-0.4
	C149.1,175.6,152.3,175.2,153.4,175.6z M157.6,169.9c0.6-0.3,2.4-1.3,2.1,0.2l0,0c0.1,3.5-3.6,2-4.5,0.1c-1.3-0.3-2.8-2.2-2.1-3.7
	C154.7,166.5,155.3,170.5,157.6,169.9z M160.2,166.8c-1.7,1.5-1.6,1.9,0.7,2l0,0c0.1,0.1,0,0.2,0.1,0.3c-0.1,0.2-0.2,0.4-0.1,0.6
	c0,0.6,0.4,0.7,0.8,0.7l0,0c2,0.9,1.1-2.7,0.7-3.7v0.1c0,0,0-0.1-0.1-0.1c0,0,0,0,0.1,0c0-0.4-0.2-0.7-0.3-1l0,0
	c-0.1-0.5,0-1.2-0.8-0.7l0,0l0,0l0,0c-0.3,0-0.5,0-0.6,0.3l0,0l0,0l0,0c-0.3,0.1-0.4,0.3-0.3,0.6l0,0
	C160.2,166.3,160.2,166.6,160.2,166.8L160.2,166.8z M167.1,178.7c1.7-0.4,1.9,1.1,0.5,1.7l0,0c-0.2,0-0.3,0-0.4-0.2
	c0,0,0.1,0.1,0.1,0.2c-0.3,0-0.5-0.4-0.5-0.7c0.1,0,0.1,0.1,0.1,0.1c0-0.1-0.1-0.1-0.1-0.2l0,0c-0.2-0.2-0.3-0.4-0.3-0.6l0,0
	C164.4,177,166.2,175.8,167.1,178.7z M164.1,169.3c-0.4,0.4-0.2,1.2,0.2,1.4c0.7,0.9,2.1,0.8,2.9,1.8l0,0c1.3,1.5,3.8-0.7,2.2-1.9
	c-0.3-1.2-1.1-0.6-1.9-0.7c-1.7,0.4-1-1.9-1.7-2.9C164.9,165.4,164.4,168.6,164.1,169.3L164.1,169.3z M207.1,188.4
	c0.5,0.7-0.8,1.7-1.4,0.9l0,0c-0.3,0-0.5-0.1-0.6-0.4l0,0c0,0,0,0-0.1-0.1c0,0,0,0,0,0.1c-0.2,0-0.3-0.2-0.3-0.4l0,0
	c-0.3-0.3-1.2-1.4-0.8-1.7c0.3-0.4,0.6,0.2,0.6-0.6l0,0c-0.1-0.3-0.3-0.5,0.1-0.7c-0.2-0.1,0.2-0.4,0.3-0.2
	C206.5,185.1,206.5,187.3,207.1,188.4z M202.9,187.4c0.1-0.5,0-0.9-0.5-1l0,0c-1.2-1.5-3.8-1.8-2.5,0.5c-0.8,0.1-0.7,0.9-0.1,1.2
	c-3.9,0.5,3.4,5.9,2.1,0.6C202.7,188.8,203.8,188.2,202.9,187.4z M162.3,213.2c4.2,0,0-3.5-2.3-2.3
	C158.6,211.7,161.1,213.4,162.3,213.2z M165.4,204.9c-1.8-1.5-2.1,1.2-2.3,2.4l0,0c-0.6,0.7-0.9,2.7,0.7,2l0,0
	C165.6,208.6,165.3,206.2,165.4,204.9z M164.3,201.8c0.8,2.7-7.5,4.2-2.1,0.5c-0.3,0-0.7,0.1-0.9-0.2l0,0c-1.1-5.6,4.6-3.1,1,0
	c0,0.1,0,0.1,0,0.2C162.8,201.9,163.6,201.9,164.3,201.8z M166.4,221.3c-0.4,0.2-0.8,0-1.2,0c0.8-3.1-2.7,0.6-1.1,1.8l0,0
	C165.1,225.2,168.3,221.9,166.4,221.3z M164.3,216.8c-0.2-0.3-0.2-0.8-0.6-1l0,0c-1-0.4-2.4-0.5-3.3,0.1l0,0c-0.2,0-0.4,0-0.4,0.3
	l0,0c-0.5,0.5,0.5,1.4,0.8,2c0.9,0.9,2.2-0.5,3-0.4C166.2,221.2,168.9,217,164.3,216.8z M190.5,189.4c0,0.9,1.6,1.7,0.2,2.5
	c-0.9,0-0.2,1.2,0.3,0.4c0.5-0.1,0.5,0.5,0.8,0.7l0,0c0.1,0.4,0.3,0.6,0.6,0.7l0,0c2.1,2.1,3.3-1,2.6-2.8c-0.1-0.8-1.3,0.4-1.2-0.5
	c0.4-3.9-0.7-0.4-3.4-1.8c0.1-0.3,0.1-0.9-0.5-1.6c0.4-0.8-1.1-1.5-1.1-0.4c-0.4,0.4-0.8,1.2-0.7,1.6c-0.2,0.1-0.4,0.4-0.3,0.6
	c-0.3,0.2-1,0.6-0.3,1c-0.8,1.3,3,2.1,2.6,0.2L190.5,189.4z M196.9,212.3c0.8-1.2-0.8-5-1.9-2.5c-0.6,1.8-2.3,1.8-1.6,2.4
	C194.2,212.9,195.7,213.5,196.9,212.3z M190,216.8c2.1,2,5.1-2.8,1.7-2.6C189.9,214.2,188.1,215.2,190,216.8z M188.9,211.2
	c7.8-1.5,0.9-8.1-1.7-2c-0.2,0.4-1.4,0.5-1,1.1S187.6,212.1,188.9,211.2z M187,194.7c1.3,2.2-1.3,2.3,0.6,4.3c1.1,0,3.1-0.6,3.9,0.3
	c0.2,0,0.3,0.1,0.3,0.3c0.3,1.6,3.1,2.2,0.6,3.7c-0.5,0.7-1.6,1.9-2.5,1.1c-0.9-0.2-1.8-1.7,0.1-1.8c0.8-0.6,0.3-0.7,0.6-1.1
	c0.4-0.3,0.3-0.7,0.3-0.9c-0.6,0-1.3-0.3-1.7-0.7c-1.2,0.3-1.6,1.8-2.5,2.1c-0.1,1.8-2.7,1.3-3.8,2.3c-2.7,1.5-6.3-7.1-2.4-3.7
	c0.2-0.3,0.6,0.6,0.8,1.3c0.7,1.3,2-2.4,2.7-0.9c0.9,0.1,0.2-0.9,0.6-1.5c1.6-2.5-2-1.9-1-4C183.5,194.3,186.9,193.4,187,194.7z
	 M170.7,279.5c-1.2-0.5-0.5,1.7,1.1,1.2c2.1-0.7,4.7,0.5,7.1-0.8c1-0.1,0.7-1.2-0.2-1.1C176.1,278.5,173.3,278.5,170.7,279.5z
	 M179.5,278c-2.9-0.3-5.8-0.4-8.6-1.4c-0.3,0-0.6,0-0.6-0.4l0,0c-2.4-1.7-0.1-1.9,4.8-0.8c2.1-0.1,4.6,0.4,6.2,0.8l0,0
	c0.5,0,1,0,1.5,0.4c0.5,0,1.1,0.1,1.7,0.2c0.5,1-0.4,1.7-1.2,1.2c-0.2,0.2-0.3,0.1-0.4,0C181.9,278.2,180.7,278.5,179.5,278z
	 M178.3,282.9c-1,0.8-6.1,0.2-3.7,2.1C175.7,287.3,182.2,283.9,178.3,282.9z M148.4,180.1c0.1,0.2,0,0.4,0.3,0.5
	c-0.3,0-0.2,0.5,0,0.6l0,0c0.8,0.7,2.3,0.4,3.1,0.1c3.6,0.4,3.1-4.2-0.4-2.8C150.4,178.3,147.7,178.4,148.4,180.1z M146.4,197
	c-0.3-0.3-1.2-0.2-1.1,0.4c-0.1,0-0.1,0-0.2,0l0,0c-0.4,0.3,0,0.8-0.2,1.1l0,0C144.8,203.2,148.9,198.8,146.4,197z M145.7,168.2
	c-0.2-0.6-0.5-2.8-1-1c-1.1,0.6-1.5,1.2-0.2,2.6C145.5,170.9,145.8,169.1,145.7,168.2L145.7,168.2z M97.1,274.3
	c17.2,0.7,15.1-1.8-1-0.2C96.4,274.4,96.8,274.3,97.1,274.3z M140.5,177.4c-0.3-1.4-1.5-0.1-2.3,0
	C137.2,178.9,140.8,182.3,140.5,177.4z M137,170c-5.6,1.5,1,6.2,0.1,1.4l0,0C137.4,170.9,137.1,170.5,137,170z M104.2,226.4
	c-1.4-1.3-2.5-1-2.5,0.9C100.1,229.8,107.2,228.4,104.2,226.4z M107.2,242.4c0.4,0.9,0.4,2.6,1.6,2.9c0.6,1.2,2.4,0.5,1.4-0.7
	c0.4-0.8-0.4-2.3-1.3-2.5l0,0c-0.3-0.6-1.1-0.8-1.8-0.8C107,241.6,107.3,242,107.2,242.4z M80.1,223.6h0.2c-0.2-0.6-0.3-1.8,0-2.3
	c-0.5-3.2,0.8-2.7,2.8-1.2c0.4,0.9,0.3,1.9,1.2,2.4c1.5,0.5,0.6-3.6,1.9-3.2c4.3,2.5,0.1,3.4,0.7,4.6c0.3,0.2,1.3,0.6,0.8,1.2
	c0.3,0.5,2.4,1,2.5,0c-0.3-0.1-0.5-0.7-0.2-0.7c0.2-1.3,0.8-2.4,1.2-3.5c0.4,0.1,1.3,0,1.3,0.5l0,0c3.3,1.2-0.9,2.7,1.1,4.1
	c0.6,0.8-0.9,0.5-1.2,0.5c0.4,0.4,0,0.5-0.4,0.5c-0.5,1.8-1.9,0.7-2.5-0.4c-1.7,0-4.1-0.7-5.7-0.4v-0.1
	C82.8,228,80.3,225.2,80.1,223.6z M97.3,215.8c-0.2,1.7,3.2,3.7,3.4,1.1c-0.3-1.2-1.4-1.7-2.6-1.1l0,0
	C97.8,216,97.6,215.9,97.3,215.8z M142.4,162.9c1.2-0.6,0.5-4.8-0.8-2.8V160c-1.2,1.5-2.8,2.6-3.4,4.4c-1.4,0-1.9,1.3-1.7,2.9
	c0.5,2.9,1.9-1.3,1.7,0.5c0.2,1.9-0.5,4,2.3,3.8c0.4,0.6,1.2,0.2,1.2-0.5c1-2.4-4-3.5-0.5-4.4c0.8-0.3,1-1.1,0.6-1.7
	C142,164.3,141.6,163.6,142.4,162.9z M151,157.8c-0.8,0.3-1.5,0.8-2.3,1c0.7-1-1.4-3.2-2.1-2c-0.3,0.6-0.8,1.3-1,2.1
	c-1.6,1.2-2.8,2.3-2.3,4.7c1.7,0.2,1,4.5,4.6,3.7c0.7,1.4,1.8-1,1-1.7c0.3-1.3-2.3-1.3-3.1-1.3c0-0.3,0-0.6,0-0.9l0,0
	c0-0.8,1-6.5,1.5-3.6c-0.6,1.2-0.5,2.4,0.7,2.9c0.5,0.8,0.9,2.6,2,1.7c0,0.1,0,0.1,0,0.2c1.7,0.5,1.4-2.2,0.9-3.2
	C152.4,160.9,153.6,156.4,151,157.8z M104,221.1c-0.7-0.4-1.6,0.1-1.2,0.9c-0.6,0.4,0.3,0.9,0.6,1.1c1.1,1.2,2.2-1.2,0.9-1.8l0,0
	C104.2,221.2,104.1,221.1,104,221.1z M124.8,265.9c-0.8,0.2-1.5-0.1-2.3,0.4c14.7,1.2,29.6,2.3,44.4,1.2c-1.2,0-2.4-0.2-3.5-0.3l0,0
	c-1.1-0.1-2.4,0-3.6-0.1c-4.4-0.9-9-0.7-13.6-0.9l0,0c-7-0.1-14.1-0.8-20.9-0.1C125.3,265.9,125,266,124.8,265.9z M149.6,269.9
	c0.6-0.1,1.2-0.1,1.8-0.1c-4.9,1.8-10.2,1.4-15.2,1.8c-1,1.6-3.5,0.6-5.1,1.1c-4.4,1.2-10.6,0.5-14,3.1c-2.6-0.2-5.4,1.3-8.2,1.6
	c-8.1-1-17.6,1-25.9-0.5c5.9-2.5,17.1,0.1,24.8-0.8c2.6-1.2,5.8-0.9,8.8-1.9c-0.1-0.3-0.2-0.8-0.5-0.4c-1.4-0.5,0.1-2.9-2.7-2.6
	c-1,0.3-0.4,2.2-1,2.9c-2.4,2.2-0.9-3.1-2.9-3.3c-0.8-0.1-2,0-2.4-0.6c0.6-0.5,3.9,0.7,2.2-1c-0.5-2.2-2.1,0.5-3.8,0
	c-5.9-3.7-23.8-0.5-31.9-1.5c-30.1-0.6,18.6-1.5,25.5-1.5c-0.6-0.4-2.3-1.7-1.1-2.2c-0.8,0.2-2.2,0.3-2.7-0.3
	c-0.5-0.1-1.1-0.4-1.3-0.7c-0.4,0.1-0.6-0.3-0.8-0.5l0,0c-1.9-2.1,1-1.3,2.3-1.1c0.6-0.3,1.4-0.6,2.1-0.7c1.1-1.8,0.5-5.4,3.3-2.6
	c0,1.7,1.5,0.6,2.3,1.5c0.9,0.3,1.8,1.6,0.6,2.1c-2.4,0.8,1,3.4-1.6,4.4c-0.4,1.2,7.9-0.4,5.6-2.7c-0.1,0.1-0.1,0.3-0.2,0.3
	c-0.4,1.7-2.3,2.1-3.5,1.4c-0.5-0.7,0.7-1.9,0.6-2.9c-0.3-1.2,1.3-0.3,1.1-1c-1-1.8,1.4-0.1,1.1-1.6c-0.2-3.7-2.9,0.2-4.8-1.5
	c-0.9-1.3,1.8-1.2,0.5-2.4c-0.4-1-1.7-2.3-2.7-1.8c-1.5-1.2-2.1,2.7-4.2,1.1c-1-0.8-0.7-1.4,0.2-2.1c-3.9,1.5-5.2-1-0.9-2.3
	c-0.9-0.6-2.1-0.3-3.1-0.7c-0.3-0.3-0.8-0.3-0.7-0.8c-0.6-0.2-1.4,0.1-2-0.2c0,0.3,0,0.6,0,0.9c2.1,0,0,4.1-1.3,4.2
	c-0.9,0.7-2.4,0.1-2.6-0.8c0.2-1.1,1.7-0.9,2.2-1.8c-0.8,0.4-0.6-0.4-1.1-0.6c-0.7-0.1-0.2-1.3,0-1.6c-0.5-0.9-2.2-0.4-3.1-1
	c0.1,1.4-2.6,2.3-2.4,0.8c-0.3-0.5-0.9,0.1-1.3-0.2c-0.3,0.6-0.3,1.3-1.1,1c-2-3,0.2-2.5,2.2-3.5c0.5-0.1,1.1-0.3,1.5-0.6
	c-0.3-1.2,2.1,0.2,1.8-1.4c-0.8-2.6,4.4-0.1,2.7,1.1c-0.1,0.4,0.3,0.6,0.4,1l0,0c0.7,0.2,0.2,1,0.3,1.5c0.2,0,0.4-0.1,0.6,0l0,0
	c1.1,0,3.1,0.7,3.4-0.5c0.2-1.6-0.6,0.7-1.5-0.1c-0.3,0.3-1.8-0.7-1.2-1c0.1-0.8,0.5-1.7,0.4-2.6c-1.2-2.6,3-0.5,2.9,1.9
	c0.7-1.2,1.6-0.7,2.8-0.2c1.1-1,1.3,0.4,1.2,1.2c0.3-0.3,0.1-0.8,0.5-1c0.7-3,1.9,2,3,2.2c1.4,1.2-1.7,1.5-2.3,2.4
	c0.8,0.7,2,0.4,2.5-0.4c1,0.4,0.2,1.5,0.4,2.4c0.7-0.3,0.7-1.2,1-1.6c0.9-4.5,1.9-0.8,4.6-0.9c1.1,1-0.8,2.2-0.3,3.7
	c0.2-0.1,0.6,0.1,0.6-0.2c1.7-0.7,2.4-3.1,3.8-4.2c1.5-2.8-0.3-7.8-0.3-11.3c-1.2,2.5-0.4-1.1-1.8-1.6c-0.8-0.3-1.5,1.2-2.4-0.2
	c-0.1-0.6-1-0.8-0.9-1.5c-1.4,0-2.6-1.5-3.3-2.4c-0.5-0.3-0.7,0.4-0.7,0.8c-1.1,1.4-3,0.3-3.3-1.2c-0.1-0.8,1.6-0.6,2-1.4
	c2.2,0.6,1.2-1.2-0.4-1.4c-1,1.2-2.6-0.9-3.3-1.5c-0.5,0.6-0.7,1.5-1.1,2v0.1c1.9,1.9-0.5,4.4-2.2,1.8c-0.5-0.8,1.2-1.2,0.4-1.7
	c-0.1-0.3-0.3-0.5-0.2-0.9c0.9-0.9,1-4.4,2.6-2c0.2,0.1,0.2,0.3,0.4,0.4c0.4-0.7,0.6-1.7,1.1-2.2c0.3-1.9,2-0.5,2.7,0.3
	c-0.1,1.7-0.9,1.4,0.8,2.6c-0.6,0.8,0,0.7,0.7,0.9c0.6,0.3,1.2,0.5,1.8,0.4c0.5,0.6,5.1,3.1,2,2.6c0.1,1.2,1.8,1.5,2.3,2.5
	c-0.3-3.5,1.9-2.2,1.3-4c-0.6-4.2,0.5-19.5-4.4-19.2c-0.6,0.7,0.7,1.2,0.8,2c0.2,1.1-1,1.3,0.3,1.7c0.7,0.1-0.2,0.9-0.5,0.5
	c-0.7-0.1-0.9-0.4-1.2,0.4c0.8,1.1,5.7,3.6,3.2,4.4c-0.9,0.5-1.9-0.1-2.6-0.7c1.2-1.5,0.8-1.8-1.1-2.2c-0.6-1.3-2.5-1-2.9-2.2
	c2.2-0.8,3.2-3,0.9-4.5c1.8-2.9,5.8,0.6,3.8-3.7h0.1c-0.8,0.2-1,1.8-2.1,1.8c-0.6,0.1-1.9,0-1.4-0.9c0.2-0.6,0.6-1.2,0.8-1.9
	c-1,0.6-1.5,1.8-2.5,2.3l0,0c-0.4,0.2-0.7,0.2-1.1,0l0,0c-2.1-2.7-1.6-0.4-3.9-0.7c-1.7-1.9-1.1-0.9-2.4,0.3
	c-1.1,1.3-2.3-0.9-3.1-1.4c-1.1-1.5,0.5-1.5,1.7-2c0-0.1,0.1-0.2,0.1-0.2l0,0c0.9-0.8,2-0.8,2.5,0.4c0.8-0.5,4.2-0.9,2.4-1.8
	c-1.1-0.7-0.9-0.6-1.8,0.2c-0.8,0.6-3-0.5-2.3-1.5c0-0.7,0.4-1.6,0.9-2.1c-0.1-0.2,0.1-0.7,0.3-0.6c0-0.1,0-0.1,0-0.2
	c1-0.1,1.8,1.2,2.6,1.1c2.1,0.2,2.9,2.5,3.5,3.9c0.3-1.2,0.9-2.2,1.6-3.1c-0.1-0.2,0.5-1.2,0.7-0.7c0.5,0,1,0.4,1.3,0.8l0,0
	c0.3,0.2,0.4,0.8,0.7,0.2c-0.2-0.1-0.3-0.5-0.3-0.7c-1-0.4-0.2-2.4-1.2-2.7c-1.4,0.4-1.5-2.8-3.2-1.3c-3.5,3.2-4.5-2.4-1.8-2.6
	c-0.1-0.9-1.9-0.8-2.2-1.7c-0.5,0.1-1.1-2.4-1.5-1.6c-1,1-2,4.4-3.8,3.3c0.2-1,0.5-2-0.8-2.5c-1.2-1.8,2.8-2.2,2.2-3.8
	c-0.8-0.2-1.8-0.7-2.7-0.6c0.1,1.5,0.2,5.5-2.3,4.1c-0.3-1.1-1.3-1.5-2.2-1.9c0,1.1-1.7-0.1-1.8-0.6c0.1-0.2-0.4-0.9-0.5-0.3
	c-0.1,1.2-0.9,1-1.6,1.5c-0.7,0.4-0.9,1.5-1.9,1.3c-1.6-2.3-1.3-4.2,1.5-5.3c0.9-0.7-1.5-1.6-1.8-2c0,0.5,0.3,2.1-0.7,1.5
	c-0.9-0.1-0.9-1.6-1.3-2.2c-1-0.7-1.6-2.3-0.7-3.1c-0.1-0.1-0.1-0.2-0.2-0.3l0,0c-0.2,0-0.3-0.3-0.3-0.6c-0.1-2.3-2.8-1.6,0.9-3
	c-1.3,0.7-4.1-1.3-3.9-0.6c0.9,0.8,0.3,1.5-0.4,1.8c-1.4,1.7-4.6,1.8-5.8-0.2c-0.1-1.2,2-0.9,2.6-1.5c0-0.6,2.1-1.2,2.1-0.5
	c1.8-0.7,4.5-0.1,6.4,0.3c0.3-1,1.6-0.3,1.8,0.4c1.2,0.1,2.2,0.1,3.1,0.9c1.4-0.1,2.2-1.7,3.3,0.1c0.1-0.2,0.4,0,0.5,0.1
	c0.6,0.1,1.1,0.5,1.7,0.8c0.6,0.2,2.3,0.6,1.1-0.3c0,0,0,0.1,0,0.2c-1.1-0.8-0.8-1.2,0.3-1.8c0.7-0.3,1.1-1.1,1.5-1.6
	c0.9-0.2,1.4-0.8,2.1-1.5c-1-0.5-2.5-0.9-3.2-1.7c-0.2,0-0.4-0.1-0.5-0.2c-0.1,0-0.6,0-0.5-0.3c-4.7-3.2-3.7,0.4-7.1-3.3
	c-1.3-0.4,0.4-2.2,0.5-3.1c-0.9-0.6-2.2-0.4-3.1-0.8l0,0c-0.1,0.5,0.3,0.4,0.4,0.8c1.4,3-3.2,4.4-4.7,1.9c0.3-2.3-3.4,1.5-4.9-0.4
	c-0.5-0.4-1.4-1-0.4-1.2c1.7-0.4,5.4-3.3,1.7-3.2c-0.4-0.2-0.7-0.4-1.2-0.4c-0.2,1.3-2,0.3-2.4-0.2c-0.6-0.3-0.5-1.3-1.1-1.6
	c-2.2-2-0.5-2.9,1.6-1.3c0.6,0.3,1.2,1.1,0.7,1.8c-1.4,2,5.1-0.9,5.5,1.5c0.1,0,0.2,0,0.4,0c-0.1-0.4-0.5-0.5-0.6-0.8
	c-0.9,0.2-1.4-1.8-0.1-1.1c0.6,0.6,1.6,0.8,2.1,1.5c1.2-1.6,4.5-0.7,3.3,1.8c1.1,0.3,2.2,0.5,3.3,0.7c0-0.4,0.3-0.7,0.2-1
	c-0.7-0.4-0.5-1.9-0.5-2.6c-0.4-0.8-0.5-2.1-0.5-3.1c3.4,0,3.4,5.3,3.5,7.7c2.6-0.3,4.8,0.1,7.1-1c3.3-2.8,5.5,3.6,4.9,5.4
	c-0.3,2.5-5.1,3-6.1,0.9c0.8-0.1,3.8-0.8,2.5-1.9c-1.8,0.1-2.8,1.5-4.4,2.2c1.3,0.6,3.7,2.8,5,1.8c0.3-0.9,1.4-0.4,1.8,0
	c1.8,1,0.8,2.4,0.9,3.8c1.8-1.8,3.7,0.3,2.4,2.2c-0.6,0.7-0.3,1.4-0.1,2.2c-0.7,1-0.7,1.6-2.3,1.1c-0.9,0.6-0.3,2.5-2,2.2
	c0.7,1.3,1.4,3,0.4,4.4c1.1,0.6,3.1-1.7,3.9,0.5c3.8,9.2,1.4-6.2,1.4-9.2l-0.1,0.1c-0.4-2-0.2-4.3-0.7-6.4c-2-1.4-1.1-2.2-0.3-3.5
	c-0.1,0.4-0.9,0-1-0.2c-0.9-1.4,1.2-3.5,0.5-5.4c-1.9,0.7-5.2-2-5.4-3.4c0.7-0.3,2.8-2,3.2-0.7c1.7-1.1-0.4-4.3-0.8-5.3
	c1.2-1,0.2-2.7,0.1-4c-3.9,2.6-0.1,7.4-7.4,3.3c-0.6,1.1-3,1.5-3.5,0.2c-1.2-1.2,3.9-1.6,2.1-3.2c-0.6-0.6-0.8-2.4-1.8-1.7
	c-0.1,0-0.1,0.1-0.2,0.2c0.4,3.7-3.1,3.7-5.7,2.8c-2.3-0.5-5.3-0.5-6-3.1c-0.7-0.5,0.1-1.4,0.7-0.7c0.9-0.2,2.4-0.1,2.4-1.2
	c-1.4,0.5-3.3,0.7-4.8,0.1c-3.2-1.9,7.1-2.4,7.8-1c0.4,1,1.8,0.6,2.7,0.4c1.1,0.6,2,1.3,3,1.7c0.4-0.1,0.8,0.2,1.1,0.3
	c-0.1-0.3-0.3-0.8-0.3-1c-0.8-1.1-2.3-1.4-3-2.7c-2.6-2,0.7-2.6,1.9-0.8c0.7,0.7,1.4,1.6,1.8,2.4c-0.2,0.9,0.3,3.3,1.7,2.7
	c0.5-0.8-0.9-3.4,0.8-2.9c0.8,0.3,1.5,0.8,2.1-0.1c1.7-1.8,4.7,0.7,3.1,2.6c-2.5,4.5-3.2,3.2,1.5,1.5c-0.2-2.7-0.8-5.7-1.3-8.4
	c-2.4-0.5-0.3-2.3-0.6-3.6c-2.8-1.1-1.4,5.1-4.6,3.7c-0.9-0.8-0.6-4.1-2.7-2c-1.2,1.4-4.5,0-2.8-1.6c-0.7,0.6-1.6,2.6-2.7,2.1l0,0
	c-0.1-0.1-0.2-0.1-0.3-0.2c-1.3-0.8,0.2-1.9-0.8-2.7c-1.8-1,0.6-2.2,0.6-3.4c-0.3,0.9-2.6,1.2-2.8,0.4c-0.6,0.1-1-0.8-1.2-1.2
	c-0.1-0.6,0.6-0.5,1-0.7c-0.1,0-0.1,0.1-0.2,0.1c0.7-0.1,3-1.2,3.2,0c0.4-0.1,1.3,0.3,1.5,0.7c1,0.5,1.3,2.2,2.9,1.8
	c1.3,0.2,2.4,0.9,3.5,1.6c0-0.1,0-0.1,0-0.1c0.3,0.1,0.6,0,0.8-0.2c-0.6-0.3-1-0.8-1.2-1.3c-0.3,0.2-0.3-0.5-0.2-0.7
	c0.5-0.3,2.4,0,3.1-0.6c3.4-2,2.5,3.8,5.1,1.5c0.7-0.4,1.9,0.5,2.3-0.2c1-1.1,1.7-2.2,2.6-3.4c1.4-1.8,1-3.2,3-0.4
	c-1.5,3.2-0.1,5.1,0.5,8.1c1.6-1.6,3.3,2.8,1.3,1.6c-0.5,0-0.6-0.6-0.9-0.7c0.2,1-0.9,4.2,0.7,4.4c0.2-1.3,5.2-1.9,2.7-2.6
	c-0.9-1,0-3.4,1.6-1.4c1.6-0.3,2.7-0.5,3.5,1.1c0.8-1.7-0.1-4.3,1.6-5.2c0.8,0.8,1.2,0.5,1.5-0.4c0.9-0.1-0.8-0.7,0.1-1.2
	c0.7-1.2,1.6-2.3,2.6-3.2c1.1-1.2,1.7,0,2.4-1.4c0-1.6,1.3-0.6,0.5,0.3c-0.4,0.6,0.5,2.5,1.1,2c-1-2.6,0-5.5,2-1.6
	c1,1-0.5,3.3-1.6,2.1c-0.2,0.8,0.3,2.2-0.8,2.6c-0.2,1-0.3,2-1.2,2.8c-0.6,1-2.1,1-2.7,1.6c-0.7,0.5-1.7,1.6-2.4,0.4
	c-0.6,0.7,0.2,2.3-1.1,2.6c0.1,0,0.3-0.1,0.4-0.1c-0.3,2.5-2.6,1.1-3.1,1.7c-0.8,0.8-1.1,2.2,0.3,1.2c0.2,0,0.5-0.1,0.5,0.2
	c0.2,0.2,0.3,2.6-0.6,2.5c0.1,0.1,0.3,0.2,0.4,0.3c1-1.5,0.7-5.7,3.1-2.5c1.1-1.3,1.8,0.7,3.1-0.8c1.1-1,0.5-4.5,2.5-3.3
	c0.6,0.4,0.7,1.7,1.5,1.6c-0.2-2.1,2.2-2.2,3.2-3.9c-0.1-0.8,0.7-1.3,0.8-2.2c0.2-1.8,1.3-1.2,2.3-0.3c0.6-1.4,3-1.8,4.2-3
	c1.7,0.8-0.3,4.1-1.5,5c1,0.2,1.2-0.6,2-0.7c1.7,1.4,0.2,6-2,3.5c-0.4,0.1-0.3-0.7-0.6-0.7c-0.5-0.6-0.9-1.6,0.1-2
	c-0.7,0-0.9-0.8-1.4-0.9c-0.3,1.4-0.8,2.6-2.2,3.3c-0.7,0.2-0.6,0.6-1.1,1.1c2.8,0.6,1.1-2.6,3.9,0.7c1.1,2-1.8,2.7-3.4,2.6
	c-1.2-0.4-0.9-1-1.8,0c0.3,0.4,1.1,0.9,1.6,1.3c1,1.7-0.5,2.5-1.8,0.9c-1-1-2-5.9-3.2-2.9c-0.2,1.1-1.4,1.8-2.3,0.9
	c-0.6-0.1-2.2,0.6-1.1,1.1c1.5-0.7,1.4,1.1,1.7,1.8c0.7,1.3,2.7,1.8,3.1,3.3c1.5,2.8-5.1,3.1-3.2,0.1c-4.2,0.8-0.6-2-2.4-2.8
	c-0.5,1.8-2.6,0.6-0.3-0.1c-0.5-0.1-1.3-1.5-0.6-1.5c-0.2-0.1-0.4-0.2-0.4-0.5c-1.9,1.1,0.6,8.5-3.2,3.9c-0.6,0.8,1.7,3.8-0.7,3.1
	c-0.7,0.2,0.7,1.1,0.4,1.7c0,1.2,0.8-0.1,1.3-0.2c0,0,0,0-0.1,0h0.1c2.7-3.7,2.3,2.5,3.6,1.4c1-1.2,0.9-2,1.9-0.4
	c0.3,1.2,0.5,2.5-0.8,3.4c0.7,1.2,1.2,2.4,1.3,4c1.2-0.5,3-3.3,2.5-0.9c2.2-0.5,3.1,2.6,1,3.2c-1.3,0.2,0,2-1.6,1.9
	c-4.2-0.5-2.3-0.1-1.1-2.3c-2.1-0.6-3.9,3.8-6.6,3.1c2.2,0.2,4.4-0.1,6.1,0.7c1.5,2.1,0.3,2.3-1.7,1.7l0,0c-2.4,0.9-3.3-1-5.2,1
	c-2.7,0.7-0.2-1.2,0.9-1.5c0.6-0.6-1.3-1.5-0.6-2.1c-0.5-0.9-1.4-5.7,0.6-4.6c2.2,1.5,1.5,3.5,4.3,0.9c0.1-1.1-1.6-1-1.9-2
	c0.5-3.9,0.1-1.8-1.9-4.8c-0.7,1.5-1.9,2.4-3.4,1c-1.2,4.4-1.1,9.7-1.7,14c1-1.8,4.6,1.1,2,2c-0.5,0.8-2,0.6-1.6,1.9
	c0,0.3,0.1,0.6,0.5,0.6c4.1-1.4,2.5,3.1-1.3,1.8c0.1,1.8,0.8,6.7,1.7,2.9c1.8-1.1,4-1.5,5.5-2.9l0,0c0.9-1.1-0.9-3.6,0.7-4.2
	c1,0,2-0.3,1.8,1.1c0.7,0.2,1.3-0.5,1.9-0.8c2.2-1.1,2-3.1,3.3-5c0,0.6,0.1,1,0.1,1.4c2.2-0.2,0.4-3.2,2-4.4c1-2.7,1.1,1.8,0.8,2.4
	c2.7,1.5,4.7-1.9,5.5-3.9c0.3-0.8,0.5-0.2,0.8,0.2c1.2-1,1.1-2.7,2-4c2-0.3-0.1,4.3-0.1,5.5c-0.3,0.8-0.2,1.3,0.6,1.5
	c-0.5,1.5-2.9,1.8-4.3,2.6c3.7,1.3,2.8,3.8,1.1,6.3c-1.5,0.3-3.4-3.2-3.4,0c0.7,1.7-0.7,3.3-0.8,4.9c1.1,0.1,1.1-0.7,1.7-1.4
	c0.6,1.2,2.2,1.7,2,3.3c0,0.7,0.6,0.1,0.9,0.1c3.6-1.1-1.2-4.5,0.5-7.1c1-0.9,4.6,3.1,6.5,3.4c0,0,0-0.1,0.1-0.1l-0.1-0.1
	c0.6-1.3,4.4-2.2,3.6-3.5c0.1,0,0.2-0.1,0.2-0.2c-3.8,3.2-1.2-8.6-0.4-4.3c0.5,1.1,1.4,2.1,2,3.3c0.9-5.6,2.5-0.7,1.8,1.8
	c0,0.2-0.1,0.3-0.3,0.4l0,0c-2,0.9-0.3,0.8,0.3,1.4c0.9,1.1,0,2.8-1.6,2.5c-0.1,0.4-1,0.3-1.5,0.3c0-0.1,0-0.1,0.1-0.2
	c-0.5,0.7-1.7,1-1.7,1.9c0.5,2.4-6.1,3.7-7.9,4.4l0,0c0.2,1-0.8,0.8-1.4,0.9c-0.3,0.5-0.9,0.3-1.2,0.9c0,3.9,0.4,1.6,2.1,4.1
	c0.7,1.8-1.5,3-1.4,4.8c-0.2,0-0.3,0.5-0.4,0.7c1.7-0.1,4.2-1.1,4.1-3.1c-0.3-1.5,1.7-4.2,1.7-1.3c1,0.5,1.4,0.2,1.3-0.7
	c1-1.1,2.3-3.2,3.7-3.8c2.4-2.3,1.8,2.4,0.5,3.3c-0.7,0.7-1.8,1.2-1.8,2.2c3-1.8,2.8-0.1,0.1,1c0.9,1,0.7,2.6-0.6,3.1
	c1.9,3.1-2.8,4.4-4.1,1.5c-0.3-0.3-1.5-0.2-1.2-0.7c0,0-0.1,0-0.1,0.1c-0.8-0.1-0.1-1.4-1-1.1c0.9,0.8,0.6,3.9-1,3.3l0,0
	c-1.7-2,0.9-3.9-3.1-2c1.6,1.1,0.1,2.2-0.1,3.5c-0.4,1.1-2.4,0.9-3.3,0.6c-0.5,0.1-0.7-0.1-0.5-0.5c-1,0-1-0.9-1.7-1.2
	c0.1-0.8,1.8-1.3,2.4-0.7c-0.3-1.1-0.4-0.5-1.2-0.6c-0.1,0.7-1.1,0.4-1.6,0.4c0,0.7-2.5,0.5-2.9,0.4c-0.3,0.7,0.6,1.6,0,2.4
	c0.1,0.1,0.1,0.4-0.1,0.4l0,0c-1.9,0.5-0.7,3.3-2.2,4.5c0.8,0.1-0.1,2.7,0.9,1.6c0.5-0.9,1.6,0.1,2.1,0.5c1.5,0.8,1,2.2,0.1,3.3
	c2.1-0.9,1.8-5.3,4.4-2.2c0.3,0.9-1.5,3,0.3,2.3c0.1-0.4,0.2-1.9,0.9-1.2c1-0.4,2.2-0.8,3.4-0.8c1.3-0.2,6.4-3.6,4.7-0.7
	c0.8-0.2,1.2-0.5,2-0.1c0.7-0.5,1.6-1.4,2.2-0.4c-0.1,0.5,1.5,0.7,0.9-0.2c0.1-0.4,0.7-0.4,0.6-0.9c1.4-0.5,1.1-3.3,2.8-2.9
	c3.1,1.6-2.4,4.4,0.4,4.2c1.7-1.2,1.7,2.1,0.9,2.6c-0.5,1.4-4.4,2.2-3.7-0.1c0.2-0.4,0.3-0.5-0.1-0.3c-0.5,0.7-0.8,1.4-1.4,2.1
	c-1.1-0.1-1.5,0.8-2.2,1.3c-1,0.4-2.7-1.3-1.5-1.7c-0.9-1.2-1.8-2.2-2.4-0.4c-0.7,0.8-2.1,1.2-2.2,2.4c0.3,1.6-2.5,1.3-3.5,0.9l0,0
	c-3.3-1.5-0.6-3.1-4.9-1.1c-0.5,2,2-0.7,2.5,0.2c1.2,1.2-0.2,2.9-1.5,3.1c-0.5,0.7-1.5,0-2,0.6c-3.9,0.4-0.7,1.8-3.8,3.5
	c-4.5,0-2.4,8.5-4.1,12.2l0,0c-0.2,0.6,0.1,1.3-0.1,1.9c1,1.9-0.1,5.3,0.4,7.8c0.6,0.3,0.9,1,0.7,1.8c0.8-1.3,3.3-4.8,2.9-5.7
	c-1.1,0.1-0.6,1.8-1.8,2c-0.9,0-1.9-1.4-1.1-2c0.6-1.6,2.5-2.2,2.9-3.8c-2.1-2.5-0.5-5.7,2.4-3.2c1.1,1.2,1.2-1.5,1.8-2
	c0-1.2,3.9-5.4,0.6-4.3c-0.1-1.6,0.7-5.3,2.8-5.1c0.6-0.2,1.2-1.3,0.7,0.3c0.3,0.4,0.7,1,0,1.4c-0.5,0.5-0.4,1.1-0.8,1.5
	c-0.4,0,0.5,0.2,0.4,0.5c0.7,0.1,0.4,1.7,0.4,2.4c1.7-0.1,1.9-5.3,4.4-4.4c2.6,1.6-2.4,3.3-1.3,4.9c-0.1,0,0,0.1,0,0.1
	c-0.1,0.1-0.1,0.3-0.1,0.4c1.4-0.1,3.4-1.1,4-2.1c2-1.1-2.7-0.7,2.2-4l0,0c0.4-0.3,0.7-0.3,1.1,0l0,0c1.3,1-1,2-0.6,3.1
	c0.4-0.1,1.7-0.4,1.8,0c1.2,0.6-0.6,1.3-1.3,1.1c-0.1,0.1-0.2,0.2-0.2,0.3c2.3,0,4.6-0.3,6.9-0.4c1.5-1.1,1.8,0.9,0.8,1.7
	c1.3,2.1-1.9,2.3-3.1,1.6c-2.5-0.2-5.2-1.8-7.5-1.6c-3,0.3-9.2,4.6-2.3,2.9c-0.3-0.9,0.1-1.4,1.1-1c-0.1-1.7,3.7-0.5,4.3,0.2
	c0.8,1.7-2.9,1.2-3.4,2.7c-0.7,1-2.4,0.1-3.5,0.3c1.8,2.1-1,2.3-2.7,1.8c-0.5-0.2-0.6-0.1-0.5,0.4c-0.5,1-1.7,0.2-1.5-0.6
	c-0.6-0.2,0.3-1.8-0.6-1.7c-0.4,0.5-1.5-0.1-0.5-0.7c0.7-0.5,0.2-1.6-0.6-0.8c-0.1,1-1,2-0.8,3c1.8-1.4,2.5,5.3,0.3,3.5
	c-0.8,0.4-2.6-1.5-2,0.3c0.8,0.7,2.5,0.8,2.4,2c-1.3,1.1-2.6-1.6-3.5-1.1c-0.6,1-1,2.4-1.6,3.5c-1.4,1.3-1.5,3.4-2.7,4.9
	c0.1,0.9,0.5,2.8,0,3.3c0.1,0.4,0,0.9-0.1,1.3c0,2.6,0.5,5.8,0.3,8.7c-0.1,0-0.2,0-0.2,0.1c0.2,0,0.2,0.3,0.2,0.4
	c0.5,0.8,0.2,2.5,0.1,3.4c0.6,0,1.5,0.1,1.8,0.4c2.6,0,5,0.7,7.4,0.9c0.5,0.5,1.5,0,2.2,0.2C135.4,270.2,142.8,270.3,149.6,269.9z
	 M111.7,257.9c-0.5-1.6-0.6-3.6-0.1-5.2c-1.2,1-2,2.8-3.6,3.5c1.8,0.8,2.3,3.4-0.1,2.6c0,0.2,0.1,0.5,0.1,0.7c1-0.4,2.6-0.3,3.3,0.5
	c0.2,0.1,0.2,0.2,0.3,0.4c0-0.1,0-0.3,0-0.3l0,0C111.7,259.3,111.4,258.6,111.7,257.9z M135.9,211.8L135.9,211.8
	c-0.1-0.9-1.8-1.1-2.6-0.6l0,0c0,0-0.1,0.1-0.1,0.2c-3.6,0.7-1.2,3.1,1.2,1.8C134.9,212.9,136.3,212.6,135.9,211.8z M75.3,228
	c-0.4,1.2,1.3,2.4,2.4,2.1c0.3-0.6,0.9-1.3,1.5-1.8C79.5,226,75.8,225.6,75.3,228z M107.3,229.9c1-1.4,0.4-3.5-1.5-3.7
	c-0.5,1.7-3,4.8,0.4,4.4c0.1-0.2,0.4-0.4,0.6-0.5l0,0C107,229.9,107.2,229.9,107.3,229.9z M81.5,250.6c-0.7,0.7-2.6,0.9-0.9,1.9
	c2,1.4,4.9-3.7,2.3-2.7c-0.4,0-0.4,0.3-0.7,0.3c0,0,0,0.2-0.1,0.2l0,0C81.8,250.3,81.8,250.5,81.5,250.6z M86.6,228.4
	c-0.2-1.8-3.1-2.6-3.3-0.6c-1.4-0.8-2-1.1-2.4,0.7c-0.4,1.2,1.9,2.2,2.9,1.1c1.1,0.7,2.5,0.5,2.7-1v0.1
	C86.6,228.7,86.6,228.6,86.6,228.4z M102.5,218.9c-0.5-0.6-1.1-0.5-1.9-0.5c-4.6,0.4,3,5.1,2.2,0.9c-0.1,0-0.1,0-0.2-0.1l0,0
	L102.5,218.9z M141.4,190.5c-2.8-2.2-2.4,4.2-0.7,2.5C141.2,192.4,141.8,191.4,141.4,190.5z M173.7,114.2c3.9,1.6,2.1-9.6-0.1-3.9
	c-0.9,1.7-6.6-1.8-6.1,1.1c0.7,1.4,1.8,2.3,3.3,2C171.6,114,172.7,115.1,173.7,114.2z M185,111c1.8,1.8,3.7-1.3,3.2-3.1
	C187.4,105.9,183,110.1,185,111z M181.3,107.9L181.3,107.9c-0.4,0.6,0.5,2.6-1.1,1.6l0,0c-4.3-2.1,4.4-11.7,2-3.9l0,0
	C181.2,106,182.4,107.7,181.3,107.9z M172.5,107.9c1.4,1.7,2.7-2,2-3.2l0,0c0.2-0.7-1-3-1.1-1.3c0,0.6-0.4,1-0.4,1.6l0,0
	c-0.2,0.2-0.3,0.4-0.3,0.6l0,0c-0.1,0-0.2,0.2-0.1,0.3l0,0l0,0c-0.2,0.2-0.3,0.4-0.3,0.7l0,0C171.5,107.2,172.1,107.5,172.5,107.9z
	 M190.6,93.4c0.3,1.1,0.5,2.2-0.2,3.2c-0.6,0.7-0.7,1.3-0.1,1l0,0c4-2.5,6.3,5.1,1,3.4c-0.3,0.5-1.1,0.4-1.3,1.1
	c0.2,0.2,0.8,0.1,0.8,0.5v-0.1c1.9,1.8-1,4.8-2.6,3.1l0,0c-0.2,0-0.3-0.1-0.3-0.3l0,0c-1-1.3-1.4-3.2,0.8-3.3
	c0.3-0.2,0.5-0.5,0.3-0.9l0,0c-0.4-0.4-0.6-0.8-0.8-1.3c-1.4,0.3-2.1-1.8-1.7-3.1c-0.3-1.1-0.1-1.8,0-3.1c1.2,1.4,2.2,0.3,3.2,0
	c-0.1-0.1-0.1-0.3,0.4-0.2C190.3,93.2,190.5,93,190.6,93.4z M167.1,102.5c0.9,2.9-2,1-2.7-0.4c-0.3,0.5-0.8-0.4-1.2-0.6
	c-1.2-1,2.1-4.9,2-2.2c0.1,0.2,0.1,0.1,0,0.4c0.1,1,0.8,1.1,1.4,1.7c0.2,0,0.3,0.3,0.2,0.5C167,102,167.1,102.2,167.1,102.5z
	 M198.8,118.4c0.4-0.4,0.5-0.7,0.2-1.2c0.1-0.3,0-0.6-0.2-0.8c-1-3-3.1-0.4-1.5,1.3C197.5,118.5,198.2,118.7,198.8,118.4z M204,116
	c-0.1-0.8,0.8-1.2,1-0.3c0.2,0,0.2,0.2,0.2,0.4c0.4,0.9,0.4,1.8-0.1,2.6c0,0.2-0.1,0.3-0.3,0.3c-0.8,0.8-1.3,0-1.8-0.5
	C202.9,117.6,203.5,116.8,204,116z M184.5,100.4c-0.1-0.3-0.3-0.3-0.4,0l0,0l0,0l0,0c-0.4,0.3-0.3,0.7-0.1,1.1v-0.1
	c0,0.2,0,0.3,0.1,0.4c0,0,0,0-0.1-0.1c0,0.2,0,0.4,0.2,0.5l0,0c1,2.6,2,0.5,0.6-1l0,0C184.8,100.9,184.8,100.5,184.5,100.4z
	 M162.1,103.5c-0.8-0.9-3.1,0.3-1.5,1.1c0.4,1.2,2.9,1.4,1.9-0.3C162.7,104.2,162.5,103.6,162.1,103.5z M166.8,107.6
	c-1.1,0.3-1.5,0.1-2.1-0.8c-0.4-0.5-0.7-1.1-0.8-1.9c0.6,0.1,1.5-0.2,1.9,0.2c-0.3-0.3,0.7-0.6,0.9-0.2c0.6,0.3,0.5,0.6,0.5,1.2
	C167.5,106.7,167.3,107.2,166.8,107.6z M173.8,117.3c1.9,2.1,2.6,0.1,2-1.9C173.7,113.5,170.1,115.3,173.8,117.3z M199.8,130.7
	c-0.8,1.9-1.6,3.9-2.8,5.6l0,0c-0.7,0.5,0.1,1.5,0.3,0.4c0.4-0.5,0.8-0.6,1.3-1c0,0,0,0,0,0.1c0.2,0,0.3-0.1,0.3-0.3c0,0,0,0-0.1,0
	v-0.1l0,0c0.5-0.3,1.1-0.5,1.3-1.2l0,0c0.8-1,2.6-2.6,1.1-3.9l0,0C200.7,129.6,200.3,130.3,199.8,130.7z M180.1,113.5
	c0.8-1.6-0.5-5.3-1.9-2.5C177.2,112.3,179.7,116.6,180.1,113.5z M179.8,149.8c1.6,3.2,3.5-1.3,3.9-2.7
	C182.8,147.7,179.5,148.4,179.8,149.8z M187.5,139c1.3-1,1.2-1.8,0.4-3.1c-1.2-1.4-1.5-0.2-1.9,1.1C185.1,138.6,185.2,139,187.5,139
	z M211.1,147.5c-1.2,0.6-1.6,0.5-2.5-1h0.1c-0.3,0-0.5-0.4-0.7-0.6c-1.6,0.1-3.4,0.7-4.9,1.2c-0.4,3.3-3.8,2.3-6,3.4
	c0,0,0-0.1,0.1-0.1l-0.1,0.1l0,0c-1.2,0.9-2.4,1.5-3.9,0.5c-1.4-0.7-3.5,1.9-4.8,0.1l0,0c-0.4-0.7-0.1-2.3,0.7-2.2
	c1.1-0.5,3.6-1,4.6-0.1l0,0c0.2,0.2,0.2,0.5,0.2,0.8c2-0.2,3.9-2.1,6-2.3c0.2-0.2,0.6-0.2,0.7-0.6c-1.7-1.9,1.7-1.2,2.7-0.9
	c2.1-1.2,4.5-1.2,6.6-1.5l0,0l0,0c0.3-0.4,0.8-0.4,1.2-0.6c0.3-0.4,1-0.3,0.9,0.1C212.8,145.7,212.4,146.9,211.1,147.5z
	 M186.5,155.7c-3.4,2.4-1.8,3.8,1.5,2.3C187.9,156.9,187.8,155.8,186.5,155.7z M179.6,102.2c-1.3-3.4-2.4-0.1-1.9,1.8
	C178.5,105.5,179.6,103,179.6,102.2z M190,120.2c-1.1-1.3-3.5-0.5-5-1.5c-0.9-0.5-2.3-2.8-0.2-2.3c1.4,0.3,4.1-0.6,4.9,0.4
	c0.5,0.4,0.4,1,0.3,1.6c1.3-0.2,1.7-1.6,1.5-2.8c1.2-4.3,4.4-1.2,1.1,1c0.9,0.1,2.2-0.1,1.4,1.2C194.3,120,191.5,123.8,190,120.2z
	 M195.8,123.7c0.7,2.2-1.1,1.6-0.4,2.7c-0.1,1.6-3,2.6-2,4.4l0,0c0.4,1,0.9,0,1.3-0.6c0.7-0.4,1.1-1,1-1.9c0.5-1,1.2,0.4,1.8,0.4
	c1.3,0.3,0.7-1.6,0.4-2.2C202.2,125.8,199.1,121.8,195.8,123.7z M183.6,143.6L183.6,143.6c1.1-0.7,2-0.8,2,0.8l0,0
	c0.5,0.6,0,1.3,0.8,1.7l0,0c2.1,0.8,0.4,3.7-1,1.9l0,0c-0.5-0.4-0.6-0.9-0.5-1.6c-0.4,0.4-1.4-0.3-1.5-0.8c-0.5-0.1-0.7-0.7-0.7-1.1
	l0,0l0,0C181.8,144.1,183.1,143.5,183.6,143.6z M182,115.5c0.5,0.3,1,0.5,1.5,0c2.9,1.3,7-0.3,4.7-3.9c-1.4-1.5-2.5,2.8-3,1.1
	c-0.4,0.1-0.8-0.6-1.1-0.1c-0.2,0-0.6-0.1-0.6,0.2C181.9,112.8,180.8,114,182,115.5z M205.4,137.9c0.5,1.3-1.9,2.9-0.6,3.2l0,0
	c0.4,0.1,0.8,0,1-0.2c-0.2,0.2-0.5,0.4-1.1,0.2c1.4,1.1,2.6,0.5,1.7-1.6v0.1C206.6,138.8,206.3,136.2,205.4,137.9z M201.9,124.4
	c-0.2,0.2-0.2,0.3,0,0.4c0.1,0.5,0.5,0.7,0.8,0.9c0.4,1.5,1.6-0.2,2.6,0.3C207.8,125.4,203.9,121.4,201.9,124.4z M150.5,122.7
	c0.2-2.8,3-1.3,4.6-1.9c1.3-0.6,0.9,1.6,1.5,2.3V123c0.2,0.1,0.3,0.2,0.3,0.4c2.3,1.4,1.1,3.5-0.9,1.3
	C153.9,124.2,150.9,126,150.5,122.7z M161.5,121.7L161.5,121.7c-0.2,0.4-0.8,0.7-0.6,1.3c0.2,0.5,1.1,1.3,1.6,1.1
	c0.3-0.3,0.6-0.1,0.8,0C167.2,121.6,162.9,114.9,161.5,121.7z M172.4,140.1c0.2,0.4,0.5,0.4,0.9,0.1c1.1-0.5-0.3-0.9-0.2-1.5
	c-1.2,0.6-2-0.3-2.2-1.4l0,0c0,0,0,0-0.1,0c0,0,0,0,0.1,0C166,138.5,169.1,139.6,172.4,140.1z M161.2,143.3c0.1-0.2,0.2-0.5,0.3-0.7
	c-0.2-0.1-0.2-0.3-0.2-0.5c-0.3,0.3-0.8,0.7-1.2,0.4c-0.5,0.5-1.5,1.6-2.1,0.6c-0.7,1-1.8,0-2.4,0.4c0.2-0.2,0.4,0.1,0.5,0.2
	C158.1,143.3,160.4,146.6,161.2,143.3z M174.5,221.8c0.1,0.1,0.1,0.4,0.3,0.4c0.2-0.7-0.3-1.1,0.2-1.8c-1.2-2-0.4-6.4,0.3-8.8
	c-0.7-1.7,0-3.9,0-5.7c-0.3,0.2-1.5,0.3-1.1-0.3c-0.6,0.3-0.6-1.2-1.3-0.8c0.5,0,0.6,0.8,1,1.1c3,5.5-1.9,0.9-3.8-0.4
	c-1.6,4.1,0.7,0.8,1.8,3c-0.2,1.6-1.3,0.1-1.9,2.6c2.4-0.7,3.1,2.5,0.6,2.8c1.4,1.9,0.8,1,3,1.9l0,0c1.1,1.5-0.9,2.4-2.1,2.7
	C172.8,219.1,173.7,220.4,174.5,221.8z M191.7,161.7c3.1,2.8-0.6,2.5-2.8,2.3c-1.9,0.5-5.6,2.9-7.1,1.2c-1-0.3-0.1,1.8-0.9,2.3
	c-0.8,1.1-2.4,0.2-2.4-1.1l0,0c0.7-1.8,1.3-3.7-0.2-5l0,0c-0.8-0.5-0.6-1.2-0.4-1.9c1,0.6,1.4-0.3,2-1c0.6-0.8,1,0.6,1.5-0.2l0,0
	l0,0l0,0l0,0l0,0l0,0c-0.3-0.3-1.1-1-1.3-1.5c-0.5-1.5-1.3-4.8,1-4.1c0.4-0.6,0.8-1,1.5-0.5c0.3,1.2,0.3,1.2,1.1,0.8
	c1.1-0.8,4.6-2.3,2.6,0.1c-0.9,0.8-2.9,1.1-3,2.3c0.5,0.3-0.1,1.4,0.1,2c0,0.4-0.1,1.9-0.7,1.5l0.1,0.1c-0.3,0.7-0.9,0.8-1.6,0.8
	c-0.1,0.1-0.2,0.2-0.3,0.3l0,0c-0.7,1.3,1.5,3.4-0.5,3.9c0,1.1,6.7-2.6,5.8-3.4c-0.3-0.5-0.1-0.7,0.3-0.7
	C188.6,160.1,192.1,158.5,191.7,161.7z M196.9,146.1c1.4,0.4,0.9-1.7-0.2-1.7c-3-0.6-3.5,0.9-0.4,1.6l0,0
	C196.5,146.1,196.7,146,196.9,146.1z M202.7,141.6L202.7,141.6c0.6,3.5-3.6,3.3-5.1,1l0,0c-0.3-0.4-0.7-0.5-1.1-0.4l0,0
	c-2.1,1.3-1.6-1.8-3-1.1c0,0,0,0,0.1,0c0,0.2-0.1,0.3-0.3,0.4v-0.1c-1.1,1.6-2.6-1-1.2-1.4l0,0c0.2-0.4,1.2-0.4,1.6-0.1l0,0
	c0.3-0.1,0.3,0.1,0.2,0.3l0,0v0.1c0.1-0.1,0.2,0.1,0.2,0.1c0.7-1.8,2-1.1,3.2-1.6c1.4-0.6,2.5,1.3,4.1,0.9l0,0
	C201.5,140.5,203.2,140.5,202.7,141.6z M192.1,142.9c-0.1-0.3-0.3-0.3-0.5,0l0,0l0,0c-6.1,0.7,0.7,8.8,0.4,2.7
	c0.1-0.5,0.1-1.1,0.2-1.6C192.4,143.5,192.2,143.2,192.1,142.9z M188.3,143.6c0.5-0.8,2-0.2,1.9-1.6c0.1-0.4,0.5-1.6-0.2-1.4
	c-0.9-1.5,5.3-4.2,1.3-5.5c0,0,0-0.1-0.1-0.1h0.1c-0.2-0.3-0.4-0.4-0.5,0l0,0c-0.1,0.1-0.2,0.1-0.2,0.3l0,0
	c-0.2,0.1-0.2,0.2-0.2,0.4c0,0,0,0,0.1,0c-1,1.5-2.1,3-2.5,4.8l0,0c-0.4,0.4-0.4,1.1-0.7,1.6c-1-0.1,0.2-1.9-1.3-1.7
	c-1.8-0.2-3.7,0-4.4-1.6c-0.3-1-1.4,0.9-0.7,1.3c-0.4,3.2,4.3,2.9,6.1,2C186.6,142.8,187.6,143.5,188.3,143.6z M142.1,142.9
	c0.9-0.5,1.6-1.6,2.3-0.4c1.5,0.1,3-1.4,3.1,1.2l0,0C147.7,147,139.1,145.3,142.1,142.9z M156.2,137.7c0.3-0.9,0.5-2.1-0.4-2.7
	c0,0,0,0,0.1,0c-0.1-0.3-0.2-0.6-0.6-0.7c0,0,0,0,0,0.1c-1.3-1.8-1.8,2.4-1.7,3.2c-0.5,0.2-1.4,1.1-0.7,1.6l0,0
	c0.1,1,1.5,1.1,2.1,0.5l0,0c0.4-0.1,0.6-0.5,0.7-0.9l0,0c0.4-0.2,0.3-0.7,0.4-1C156.1,137.7,156.2,137.7,156.2,137.7z M146.8,135.6
	c-0.1-1.1,0.9-0.6,1.1,0.1c0,0,0,0,0.1-0.1l0,0l0,0c-0.2,0,0.3-0.9,0.5-1c0.3-1.1,0.4-2.2,0.7-3.5c0.9,0.4,1.4,1.2,1.8,2.1
	c0.9,0.1,0.1,2.2,0.4,3c0.5-0.8,1.3-0.8,1.2,0.3c1.7,2-2.2,3.3-3.3,3.5C147.7,139.5,147.3,137.2,146.8,135.6z M160.5,152.1
	c1.6-3.4-3.9,0.1-4.1,1.8c0,0,0-0.1,0.1-0.1c-0.3,0-0.5,0.1-0.7,0.3c0,0,0,0,0.1,0c-0.2-0.1-0.3,0.1-0.5,0.2c0.1,0,0.1-0.1,0.2-0.2
	c-0.2,0-0.3,0-0.4,0.2c0.1,0,0.2,0,0.2,0c-0.2,0.1-0.4,0.1-0.5,0.3c0.1-0.1,0.1-0.1,0.1-0.1c-0.2,0-0.3,0.1-0.3,0.3l0.1-0.1
	c-0.1,0.1-0.2,0.3-0.2,0.4c1.5,0.5,3.9-1.3,5.8-1.7l0,0C160.6,152.9,160.9,152.5,160.5,152.1z M147,147.3c-2.3,1.9,1.9,2.9,3.2,1.5
	l0,0c0.6-1.8-1.4-0.8-1.9-1.7l0,0c0-0.2-0.1-0.3-0.3-0.4l0,0C147.4,146.5,147.3,147.1,147,147.3z M152.9,148c-0.9,0.7-1.7,1.2-0.5,2
	C156.6,153.7,157.7,143,152.9,148z M171,187.9c0.9,0.8,1.5,2.2,0.5,3.2c0.9,3.8-7.3,3.2-2.7,0.5l0,0c0.4-0.4,1.9-0.8,0.7-1.3
	C168.5,189.7,169.4,187.1,171,187.9z M172.3,191.1C172.3,191.2,172.3,191.2,172.3,191.1c0.6-1.2-0.4-2.6,1.6-1.5
	c2.3-1,0.9,1.9,0.5,2.9c0,0-0.1,0-0.1-0.1c2.2,1-0.2,3.4-0.6,0.8c-0.5,0.2-1.3,1.1-1.7,0c-0.7-0.2,0-0.8,0-1.2
	C171.5,191.6,172,191.4,172.3,191.1z M184,190.9c0.3-0.8-0.8-2.7-1.2-1.1c-0.5-0.3-1.2,0.1-0.7,0.7c0.3,1.1,1.8,2.2,0.5,3.3
	c-0.9,1.3-2.1,1.6-3.1,2.6c-0.6,0.5-0.7,2.1,0.8,0.4c1.5-1.7,2.9-0.9,2.9-2c1.2-1.6,5.5-1.3,3.8-4.5C186,190.2,184.7,193,184,190.9z
	 M181.6,213.1c-2.8-2,0.3,4.7,0.8,2C182.6,214.4,182.2,213.5,181.6,213.1z M183.7,210.9c-1.3,0.9-0.4,2.2-0.2,3.2
	c1.1,0.7,1.4,0.6,1.7-0.7C185.5,212.2,184.3,210.5,183.7,210.9z M187.8,205.3c1.2-1.3-0.6-2.7-1.7-1.5c-1.2-0.3-2.6,0.3-1,1.3
	c0.5,0.8-1.9,1.6,0.2,2.3c0.1,0.5,1.3,0.5,1.6-0.2C187.8,206.8,188,206.1,187.8,205.3z M107.8,123.9c0.3-2.4,1.5-4.5,2-6.6
	c0.4-0.6,0.8,0.4,1.3,0c-0.5-0.3,0-1.7,0.6-1.5c0.4,0.3,0.6,0.9,1.2,1h-0.1c0.3-1.3,1.7-1.8,2.4-2.8c2.8,1-1.6,4.4-0.6,6.2
	c0.4,0.7,0.1,2-0.3,2.5c0.5,1.4-0.1,2.7-1.4,3.2c-3.3,1.4-0.6,2.2-1.5,3.6c0.4,0,0.2,1.2-0.1,1.1c0,0.4-0.3,1.2-0.6,1.3
	c0.3,0.1-0.2,0.6-0.3,0.8c3.1,3.7-4.7,7.8-1,0.6c-2.8,0.8-1.7-1.9-1.1-3.3c-1.6,1.1-3-1.9-1.7-2.8l0,0
	C106.8,126,107.3,124.9,107.8,123.9z M95.7,97.2c0.7,1.4,0.1,3.6,1.5,4.4c1.8,1.6,1.6-6.5-1.4-5.9C95.8,96.2,95.4,96.7,95.7,97.2
	L95.7,97.2z M95.2,155.9c-0.1-1.1-3.7,0.4-4.1,1c0.5,1.1,4,0.6,3.6-0.4C95.1,156.4,95,156.1,95.2,155.9z M128.8,159.3
	c0.8,1.5,3.8,1.1,3.3-0.8c-0.8-0.9-2.2-1.6-3.6-1.3c0-0.1-0.1-0.1-0.1-0.1c1-0.2,2-1.9,1.3-2.7c0.6-0.6,0.5-2.8-0.5-2.4
	c-2.3-0.9-2.9,2.2-4.4,3.6c-0.4-0.7-0.9-0.1-1.4,0.3c-0.4-0.3-0.9-0.8-1.3-0.3c-1.6,2.3-0.1,7.3,2.1,3.8c0-0.8,0.3-1.2,0.9-0.5
	c0.1,0.2,0.6,0.2,0.4,0.5c-2,2.4,3.2,3.3,2.2,0.4c-0.2-0.8-1.3-0.7-1.6-1.2c1-0.3-0.8-2.2-0.3-2.5c0.5,0.2,0.8,0.7,1.3,0.9
	c-0.2,0.6,0.4,0.8,0.8,0.9C128.2,158.5,128.5,158.9,128.8,159.3z M65.8,183.2c0.3,0.8,0.9,2.3,2,1.6c0.8,0,1.3-0.7,2.3-0.2
	c1.4,0.1,3-0.4,4.6,0c-0.2,1-3.2,1.4-2.4,2.8c1,0.6,0.6,3.2,2.2,2.4c3.9-2.9,2.9-6.3-2.4-6.6c0.6-1.3-0.3-2.3-1.1-3.3
	c-1.4-1.9-1.8,2.3-5.1,1.2C65.2,181.6,65.6,182.5,65.8,183.2z M71.5,187.4L71.5,187.4c-0.3-1.2-1.3-1.9-2.1-0.6
	c-0.6,0.2-1.1,0.9-1.7,0.9c-1.3,0.4-2.4,0.5-1.6,2.4c0.5,2.2,2.6,1.8,3.1,0c0.7-0.6,2.4,0.1,2.2-1.2
	C71.9,188.6,71.6,187.8,71.5,187.4z M105.4,111.4c0.3-0.6-0.6-1.6-1.3-1.9c-0.7-0.5-1.3,1.1-1.8,1.5
	C100.6,112.2,104.9,113,105.4,111.4z M104.7,113.4c0.4,1.1,2.8,1.8,2.7,0c-0.2-0.7-1.5-2.6-2-1C104.8,112.6,103.7,113,104.7,113.4z
	 M134.3,157.8c0.9-0.1,2.3-0.8,2.3-1.6c0.3-0.5,0.3-0.7,0.9-0.8c0.7-0.7-0.5-2.4-1.5-2.3c-0.1-0.2-0.7-0.4-0.9-0.2
	c-0.1-0.2-0.4-0.1-0.7-0.2c-1.5,1.3-1.7,0.4-0.8,2.6c-0.3,0.7-1.8,1.1-1.2,1.8c0.5,0,0.9,0.3,1.4,0.4l0,0
	C134,157.7,134.2,157.7,134.3,157.8z M101.4,107.2c0.8,1.3,4.2,0,2.5-1.2c-0.1-0.1-0.2-0.3-0.2-0.5c0.7-0.2,1.5-0.6,1.6-1.4
	c0.5-0.5-0.5-1.8-1-2.3l0,0c-1.3-1.3-1.1,1.3-1.9,1.8l0,0c-0.6,0.7,0.1,1,0.3,1.6C102.7,106.2,101.1,106.2,101.4,107.2L101.4,107.2z
	 M91.6,107.6c1.2-0.2,5.7-1.3,6.3-0.2c0.6,1.9,1.8,0.5,3.2,0.7l0,0c2.1,2-1.8,3.1-1.3,4.2h-0.1c0.1,0.1,0.1,0,0.1,0
	c2.3-0.6,2.6,0.9,3.1,2.5c1.4-0.9,2-0.5,2.7,1c2.8-2.8,2.3,4.5-0.6,2c-1.4,0.1,0-1,0.4-1.3c-1.1-0.9-1.3,1-1.6,1.5
	c-2.1-0.3-1.1,1.2-0.8,2.4c1.2,2.9-2.5,0.1-0.4,2.9c0.7-4,4.3-1.5,2.8,0.2c-0.4,0.9-9.4,0.3-6.2-0.9c0.4-1.6,1.4-2.6,2.5-3.5
	c-2.2,1.3-2.4-0.8-3.7-1.1c-3.5,1.1-7.7-1-2.4-2.4h-0.1c0.2-0.4,0-0.8,0-1.2c-2.9-1.6,0.4-2.2-0.2-4.3c0.4-1.4-2.7,0.8-3.5-1.2
	C91.5,108.5,90.7,107.3,91.6,107.6z M113.7,112.9L113.7,112.9c0.2,0.1,0.3,0.3,0.4,0.5l0,0l0,0l0,0c2.4,0,2-5.9,0.6-6.5
	c0.1-0.2,0.1-0.3-0.1-0.4c-1.9-2.2-0.3,2.9-1,4c0.1,0,0.2,0,0.2,0C113.3,111.1,113.3,112.2,113.7,112.9z M141,144.7
	c-0.4-0.1-0.5-0.4-0.8-0.5c-0.2-0.5-1.7-0.5-1.9,0c-1.6,0.4-0.9,2-0.1,2.7c1.3,0.8,1.9-1.8,3.3,0c0.4,0.8-1.2,1.1-1.3,2
	c-0.7,1.2,1.5,1.9,2.4,1.2c0.7-1.2-0.5-2.4-0.5-3.1C142.5,145.9,141.5,145.4,141,144.7z M87.7,129.6c-0.3-2.5,3.2-0.9,4.6-1.6
	c-7.9-6.4,1.6-3,5.7-4.3c2.4,4.1,1.6,0.5,3.6,3.3c0.4,1.6-1.3,3.8-3,2.9c-0.8,0.5-2.4,1.2-3.2,0.6c-0.6,0.4-1.5-0.1-2.2,0l0,0
	c-0.4-1.2-1.7,0.6-2.7,0.3c0-0.1,0.1-0.2,0.1-0.2C90.1,131.9,87.6,131.2,87.7,129.6L87.7,129.6z M125.6,124.2
	c1.3,1.3,1.2,1.9,2.9,0.6c-0.1,0.8,1.6,4.3,2.1,3.1c1-0.2-0.3-1.9-0.5-2.4c1.7-0.6,4.8-0.3,3.7-3.2l0,0c-0.1-0.1-0.8-1-0.9-0.5
	c-1.1-0.3-2.2-0.2-3.3-0.2c0-0.6,0.8-2.1-0.4-2C127.8,120.7,124.4,121.9,125.6,124.2z M87.4,164.3c-0.7,0.5-3.2,0.7-3.3-0.1H84
	c0.1,0.2,0.1,0.4-0.1,0.4c0.2,0.6-0.3,0.9-0.7,1.1c1.4,1,2.3,1.3,3.7,0l0,0C87.1,165.3,88.1,165.1,87.4,164.3z M81.9,178.9
	c0-0.5-0.2-0.8-0.3-1.3c-0.5,0.3-1.2,0.3-1.7,0.1l0,0c0.7,0.3,0.6,1.4,0.1,1.9c-1.1,0.8-2-1.9-2.6-0.2c0.6,0.3,0.4,1,0.5,1.6
	c0.3-1.1,1.8,0,1.3,0.9C80.4,181.2,82.2,180.7,81.9,178.9z M121.3,196.2c-0.1,0-0.1,0.1-0.2,0.1c-1,1.2-0.9,0.9,0.1,2.1
	c0.3-0.7,1.2-0.3,1.2-1.2c0.3-1.5,1.7-1.1,1.7,0.2c0.2-1,0.5-1.8,0.9-2.6c-0.3-0.6-1.4-0.3-1.3-1.2c-0.7-0.3-1,0.4-1.7,0
	c0.2,0.6-0.7,0.9-0.6,1.1C121.9,195.2,121.6,195.7,121.3,196.2z M125.9,201.2c-4.6,2.4-2.9-3.4-4.8,1.5c0.5,0.1,1-0.1,1.4,0.2
	c0.2-0.4,1.4-0.6,1.3,0C124.6,202.2,126.9,202.8,125.9,201.2z M127.5,190.8c0.5,1.1-1.2,1.8-1.2,2.8c2.9,0.3,2.2,2.9,0.2,4.1
	c-0.5,2.6,2.6,1.3,4,0.3c-0.2-1.2,0.4-3.1,1.1-4.3c-1.5-0.4-1.8-1.7-1.9-3.2C129.1,189.7,127.8,189.1,127.5,190.8z M110.4,190.5
	c0,0.1,0.1,0.3,0.1,0.4c0.5-0.3,0.7,3,2.5,2.2c-1-1.2,5.2-5.3,5.7-4.1c1,2.2-1.8,3.3-3.3,4c1.3-0.2,2.8,0,3.9,0
	c-0.1-1.6,2.3-1.6,2.4-3.2c-5.6-2.1,0.1-1.6,0.5-3.8c0.1-0.8,0.1-2.2,0.8-2.6c1.4,1.8,0.2,3.7,3.7,2.6c-1.2-0.9,0.6-2.4-0.7-3.3
	c-1.4-0.6-1.4-2.5-2.8-0.9c-1,0.6-1.7,0.4-2.4-0.2c-0.5,0.9-1.5,1.8-2.7,1.5c-2-0.2-2.1,3.9-4.7,2.7c-1.6,0.2-1,1.8-1.7,2.7
	C110.7,189.5,110.1,186.7,110.4,190.5z M117.2,201.5c-1.9-3.2-1.8,0.6-3.9,0.1c-0.4,1.4-0.3,2.9,1.3,2c-0.1-0.3-0.8-0.5-0.6-0.9
	c0.8-0.4,2,0.9,3,0.4c0,0-0.1-0.2,0-0.2C116.8,202.4,116.9,201.9,117.2,201.5z M111.4,198.2L111.4,198.2c1,0.4,2.5,0.3,3.3,1.1
	c2.2-0.8,0.3-0.9,0-2.2c-0.8-0.4-1.6,0.4-2.5-0.1C112.3,197.6,112.1,198.1,111.4,198.2z M100.4,163.5c6.8-17.5-5.1-11,2.9-15.5
	c-2.6,0.1,1-3.6-3-0.6c-9.4-1.1,4.2-3,2.4-7.4c-0.7-0.9-0.7-2.5-0.3-3.5c-1.1-1-2.3-0.4-3.5-0.7c-1-0.7-1.7-1.2-2.6-0.2
	c-0.4,0.6,0.6,0.9,0.4,1.5c4-2.8,2.9,3.5,0,0.9c1.1,1.6-1.1,2.9-0.7,4.4c-0.2,1.5,1.2,3.3,0.5,4.9c2.6,1.3,5.2,0.9,1.2,4.3
	c0.8,0.8,0.6,1.8-0.1,2.6c0.5,0.7,0.2,1.6,0.4,2.4c1.5-2,2.7,1.4,1.6,2.7c0.7,1,0.8,2.2-0.3,2.9c0.1,0.4-0.2,0.8,0.1,1.1
	c0.1,0,0.2,0.1,0.2,0.1C99.7,163,100.2,163.4,100.4,163.5z M100.7,171.8c0,0.4,0.1,0.9,0,1.3c2.9,0.5,1.7,4.6,5,3.4
	c1-0.3,0.8,1.1,1.6,1c1.7-2,2.2-2.9,1.7-5.7c0.5-4.7,0.5-9.2,1.6-13.8c-4.3-2,0.1-3.6,1.9-4.5c-0.8-0.7-1.9-1.9-1.5-3.1
	c-0.4-0.3-0.6-0.8-0.1-1c-0.3-0.5-0.3-1.5,0-2c-0.2,0-0.4-0.3-0.5,0c2.3,6.3-11,8-3.3,2.7c-2-0.3-1.4-1.1-0.4-2.5
	c-0.2-1.1,0.5-2.6,1.8-1.7c-0.2-0.2-0.3-0.5-0.2-0.7c-4.4,0.1-1.1,3.6-4.6,6.3c-0.1,2.8-0.9,5.5,1,7.6c-0.1,1-1.5,0.4-1.2,1.9
	c2.6-0.4,2.2-5.4,4.9-2.9c0.8,0.7,0.8,1.1,0.1,2c-1.9,1.7,1.1,3.5-0.6,5.2c-2.4,2.9-2.8-0.7-4.7-0.8c-0.9,0.9-1,0.1-2,0.1
	c-1.4,4.4,4.3,2.8-0.9,6.9C100.6,171.3,100.7,171.6,100.7,171.8z M105.8,193.5c1.5-0.7,1.3,2.9,2.7-0.7c-0.6-4.5-0.6-9.2-1.2-13.7
	c-1.1-0.6-2.5,0.7-3.7,0.2c-0.6-0.2-1.5-0.6-1.3,0.4C104.5,183.6,102.7,190.6,105.8,193.5z M110.4,224.8c-0.6-6.3-1.3-12.7-1-19
	c0.9-2.3-0.5-4.7-0.4-7.3c-0.6-3.8-1.1-1.7-3.2-0.3c0.4,1.5,0.9,3,0.6,4.6c3.8,0.7,3.5,2.9,0.1,4.1c2.2,5.2,3.1,11.3,3.5,16.9
	c0.2,0.2,0.2,0.6,0,0.8C110.2,224.6,110.3,224.7,110.4,224.8C110.4,224.9,110.4,224.8,110.4,224.8z M114.6,231L114.6,231
	c-0.2-0.5,0.1-1,0.3-1.5c-1.7-1,0.3-4.8,0.5-6.5c1.7-5.3,1.2-10.9,3.2-15.9c0-1.2,0.7-2,0.9-3c-1.4,0.4-2.4,0.1-3.7-0.1
	c2.8,0.7,1.4,4.6-0.7,4.9c-1-0.2-1.7-0.8-2.1-1.8c-1-0.2-1.9-0.8-2.7-1.1c2.9,10.4,3.3,21.7,3.4,32.8
	C114.5,236.4,113.2,233.3,114.6,231z M123.1,272.1c-1.6-0.9-3.9-0.5-5.6-1c-0.2,0.7,0.2,1.4,0.2,2.1
	C119.4,272.7,121.3,272.6,123.1,272.1z M97.9,104.3c-0.1,0-0.1,0.1-0.2,0.1c-0.4-0.8-0.7-1.4-1-2.1c-0.8-0.7-0.8,0.7-0.4,0.9
	c-0.1,0.6,0.6,2,1.1,2.3c1.2,2.5,4.7,2.9,3.3-0.7c-0.7-0.3-1.3,0.5-2,0.1C98.6,104.6,98.4,104.2,97.9,104.3z M134.2,148.9
	c-1.7-1.3-2.3-1.7-2.6,0.9c0.1,0,0.2,0,0.2,0c-3.5,2,2,5,3.5,0.2c-0.1,2.2,4,3.1,4.1,0.4c0.8-1.4-2.7-4.8-2-1.1
	c-0.7,0.1-1.4-0.2-2.1,0C134.6,149.4,134.9,148.2,134.2,148.9z M105.4,107c-0.5,0.8-2.4,1.4-0.9,2.1c0,0.5,0.4,0.3,0.6,0.3
	c0.5,0.6,1.7-0.3,2.2-0.5C107,108.4,106.6,106.3,105.4,107z M135.3,136.7c0.6,0.9,2.3,2.3,2,0.1c0.6-0.6,1.4,2.1,3.3,1l0,0
	c0.3-0.2,0.1-0.9-0.1-0.9c0.2-1-1.9-1.6,0.1-1.5c2,0.3,1.7-2.1,0.6-2.7c-0.8-0.6-2.5,0.1-3.6-0.4c0.2-0.9-1.6-1.4-1.5-0.2
	c-0.4,0,0.1,0.8-0.1,1.1c0.2,0,0,0.3,0.2,0.3C136.7,134.7,134.7,134.9,135.3,136.7z M129.3,117.6c-0.5-1.7,0.7-3,2.1-3.5
	c0.4-1.5,1.8-0.6,1.4,0.6l0,0c-0.5,1.7-1.3,5.4-3.3,3.2C129.5,117.7,129.4,117.6,129.3,117.6z M77.5,157.3c-0.7,1.1,1.4,1.8,2.2,2.1
	c1.7,0.1-0.1-2.3-0.9-2.1l0,0C78.3,157.4,78,157.3,77.5,157.3z M89.4,229.3c1.4-1.2-0.2-2-0.9-2.8c-2-0.2-1.9,2.4-0.4,2.8l0,0
	C88.5,229.3,89,229.4,89.4,229.3z M123.3,126.7c1.6,1.7,1.3-1.9,3.2,1.9c2.7,1.9,0.9-2.4-0.7-2.8c-0.6-0.4-0.2-1.7-1.3-1.6
	C124.2,125,122.8,126.1,123.3,126.7z M73.3,172.8c0.9-0.1,6.2,1.4,5.1-0.2C78.4,171.4,70.1,171.2,73.3,172.8z M145.7,228.2
	c1.8-0.8,0.5-3.3-1.1-2.2c-0.8,1.7-2.5,2.6-4,3.7l0,0c-2.3,1.5,2.8,3,3.8-1C144.9,228.8,145.3,228.3,145.7,228.2z M151.3,233
	c0.2,0.1,0.6-0.1,0.6,0.2c2,0.1,1.7-1.9-0.1-2.2c-0.9,0.1-0.5-1.1-1.1-1.3c-1.3,0.2-4,0.2-3.6,2.1
	C148.2,233.7,150.7,230.9,151.3,233z M103.5,170.1c4.9,4.3,8.8-5,0.3-0.6C103.3,169.3,103,169.8,103.5,170.1z M114.4,217.8
	c0.1,8.1,1.9-5-0.3-7.1C114.2,213.1,114.3,215.3,114.4,217.8z"/>
</svg>
