<svg width="260" height="18" viewBox="0 0 260 18" fill="none" xmlns="http://www.w3.org/2000/svg">
<path opacity="0.29" fill="#FFF" d="M8.7,8.5c8.7,0.7,7,9.2-0.1,9.2H0v-0.3h2.2V1H0h0V0.7h8.2C15.3,0.7,15.5,7.8,8.7,8.5z M5.8,1v7.4c2.5,0,4.2-0.1,4.2-3.7C9.9,1.2,8.5,1,5.8,1z M5.8,8.7v8.6c2.1,0,4.8,0.6,4.8-4.3C10.5,8.4,7.8,8.7,5.8,8.7z M25.4,0.7V1h-2.2v11.9c0,6.6,9.2,6.1,9.2,0V1h-2.2V0.7H35V1h-2.3v11.8c0,4-2.8,5.2-6.1,5.2c-3.3,0-7-1-7-5.2V1h-2.3V0.7H25.4L25.4,0.7z M38.1,12.4c0.2,1.4,1,2.8,2,3.9c2.7,2.7,9,1.4,7.9-3.1c-0.6-2.6-6.1-2.4-8.3-4.4C35.2,4.8,40.5-2,47.3,1c0.5,0.2,1.2,0.3,1.3-0.4h0.4v4.5h-0.3C48.2,3.6,47.6,1.8,46,1c-2.1-1-5.9-0.1-6,2.6c0.2,3.5,6.9,3,9.4,5.7c3.6,4-1.5,11-9.7,7.9c-0.7-0.3-1.3-0.3-1.5,0.4h-0.4v-5.3L38.1,12.4L38.1,12.4z M54,5h-0.3V0.7H69V5h-0.3c-1.1-3.4-2.1-4-5.6-4v16.3h2.2v0.3h-8v-0.3h2.2V1C56.1,1,55.3,1.4,54,5z M79.8,0.7V1h-2.2v16.3h4c2.9,0,4.8-2.3,5.3-5.1h0.3v5.4H71.7v-0.3H74V1h-2.2V0.7H79.8L79.8,0.7z M97.8,0.7V1h-2.3v16.3h2.3v0.3h-8.1v-0.3H92V1h-2.3V0.7H97.8z M103,2.4v14.9h2.2v0.3h-4.9v-0.3h2.2V1h-2.2V0.7h5.8l8.2,11.3V1H112V0.7h4.9V1h-2.2v16.6H114L103,2.4z M133.8,5.5c-0.9-3.8-3.3-5.2-6.2-4.9c-2.9,0.4-4.3,3-4.3,6.3c0,1.7,0,2.9,0,4.4c0,3.3,1,6.3,5.1,6.3c3.4,0,3.5-2.5,3.5-6h-2.5v-0.3h7.6v0.3h-1.6v5.5h-0.4c-0.5-1.2-2.2-0.2-3.1,0.2c-5.5,2.3-12.5-1.6-12.5-8.1c0-6.1,6.3-10.4,12.1-8.5c1.7,0.6,2.1,0.6,2.3-0.1h0.4v4.9H133.8L133.8,5.5z M144.4,5h-0.3V0.7h15.3V5H159c-1.1-3.4-2.1-4-5.6-4v16.3h2.2v0.3h-8v-0.3h2.2V1C146.5,1,145.6,1.4,144.4,5zM161.9,1V0.7l8.9,0c5.7,0,7.1,7.1,0,7.8c3.9,0.7,5.3,0.7,5.5,6.1c0.1,3.8,1.8,3.1,2.6,2.1l0.2,0.2c-1,1.6-6.4,2.1-6.6-2.1c-0.2-5.5-1-6.2-4.9-6v8.6h2.2v0.3h-8v-0.3h2.2V1H161.9L161.9,1z M171.8,4.9c0-3.2-1-4.3-4.2-3.9v7.4C170.7,8.6,171.8,7.7,171.8,4.9z M180.7,17.3L188,0h0.7l7.7,17.3h2.1v0.3h-8.2v-0.3h2.3l-2.8-6.4h-5.9l-2.7,6.4h2.2v0.3h-4.6v-0.3H180.7z M184,10.6h5.6l-2.9-6.5L184,10.6z M199.4,1V0.7h14.4v4.1h-0.3c-0.7-2.1-2.1-3.7-4.6-3.7h-3.7v7.7h1.4c2.4,0,3.4-1.6,3.7-3.5h0.3v7.4h-0.3c-0.4-1.8-1.2-3.5-3.4-3.5h-1.6v8.3h2.3v0.3h-8v-0.3h2.2V1H199.4L199.4,1z M216.8,1V0.7h14.4v4.1h-0.3c-0.7-2.1-2.1-3.7-4.6-3.7h-3.7v7.7h1.4c2.4,0,3.4-1.6,3.7-3.5h0.3v7.4h-0.3c-0.4-1.8-1.2-3.5-3.4-3.5h-1.6v8.3h2.3v0.3h-8v-0.3h2.2V1H216.8L216.8,1zM242.2,0.7V1h-2.3v16.3h2.3v0.3h-8.1v-0.3h2.3V1h-2.3V0.7H242.2z M259.5,5.5c-1.2-3.9-3.3-5.5-6.9-4.8c-3.8,0.8-3.7,5.5-3.7,8.5c0,2.6,0.2,6.5,2.2,7.7c3.3,1.8,7.3,0.2,8.4-4.3h0.4v5.1h-0.4c-0.2-0.8-1.3-0.5-2.6-0.1c-5.8,1.9-12-2.4-12-8.4c0-5.9,6.2-10.4,11.9-8.5c0.8,0.3,2.5,0.9,2.6-0.1h0.4v4.9L259.5,5.5L259.5,5.5z"/>
</svg>
