<svg width="260" height="18" viewBox="0 0 260 18" fill="none" xmlns="http://www.w3.org/2000/svg">
<g clip-path="url(#clip0_2630_11358)">
<g opacity="0.29">
<path d="M0 1.00142V0.667643H3.69713C4.38188 0.667643 5.06112 0.656876 5.7293 0.632649C6.39749 0.608423 7.07673 0.597656 7.76148 0.597656C8.3993 0.597656 9.06749 0.662259 9.76881 0.788773C10.4701 0.915287 11.1107 1.13063 11.6905 1.43211C12.2704 1.73359 12.748 2.14005 13.1236 2.6488C13.4991 3.15755 13.6868 3.7955 13.6868 4.55728C13.6868 5.24099 13.5018 5.81973 13.1346 6.2881C12.7674 6.75647 12.3228 7.14409 11.801 7.44557C11.2791 7.74705 10.7352 7.97854 10.1719 8.13736C9.60867 8.29618 9.13099 8.40115 8.73892 8.44692V8.54113C9.37673 8.58958 10.0366 8.69187 10.7214 8.85068C11.4061 9.0095 12.0357 9.25984 12.6072 9.60169C13.1788 9.94355 13.6509 10.3931 14.0264 10.9503C14.402 11.5075 14.5897 12.2073 14.5897 13.0499C14.5897 13.9732 14.3495 14.7376 13.8663 15.3406C13.3859 15.9462 12.7977 16.4227 12.1019 16.7726C11.4089 17.1226 10.6689 17.3648 9.88478 17.4994C9.10062 17.634 8.3993 17.7013 7.77805 17.7013C7.09329 17.7013 6.4113 17.6932 5.73483 17.6771C5.05835 17.6609 4.37636 17.6528 3.68884 17.6528H0V17.3191H2.25307V1.00142H0ZM6.80614 8.37693C7.54059 8.37693 8.12043 8.28002 8.54564 8.0916C8.97085 7.90048 9.28838 7.64207 9.50098 7.31636C9.71359 6.99066 9.84888 6.61919 9.9041 6.20735C9.96209 5.79281 9.9897 5.37289 9.9897 4.94221C9.9897 4.24234 9.94 3.64207 9.84336 3.13871C9.74672 2.63803 9.58105 2.2235 9.35464 1.89779C9.12547 1.57208 8.8107 1.32982 8.4131 1.17101C8.01274 1.01219 7.50194 0.931438 6.88345 0.931438C6.70398 0.931438 6.5245 0.939514 6.34503 0.955664C6.16556 0.971815 5.98609 0.987966 5.80662 1.00412V8.37962H6.81166L6.80614 8.37693ZM7.22307 17.3998C7.74492 17.3998 8.2143 17.3406 8.63123 17.2222C9.04816 17.1037 9.40158 16.8749 9.69702 16.5411C9.9897 16.2073 10.2161 15.7417 10.3707 15.1441C10.5254 14.5465 10.6027 13.7632 10.6027 12.7915C10.6027 12.5223 10.5778 12.1589 10.5281 11.704C10.4784 11.2491 10.3431 10.8022 10.125 10.3554C9.9041 9.91125 9.57001 9.52363 9.11995 9.19792C8.66989 8.87222 8.03759 8.70802 7.22307 8.70802H5.80385V17.3271C6.24563 17.3756 6.71778 17.3998 7.22307 17.3998Z" fill="white"/>
<path d="M25.3941 0.66748V1.00126H23.141V11.72C23.141 12.4683 23.1769 13.1951 23.2515 13.903C23.326 14.611 23.4972 15.2435 23.765 15.8007C24.0356 16.3579 24.4332 16.8075 24.9661 17.1493C25.4963 17.4912 26.2114 17.6634 27.1088 17.6634C28.0061 17.6634 28.7295 17.5638 29.3259 17.3647C29.9223 17.1655 30.4166 16.9044 30.8086 16.576C31.2007 16.2503 31.5017 15.8842 31.7143 15.4777C31.9269 15.0712 32.0815 14.6648 32.1782 14.261C32.2748 13.8573 32.3328 13.4723 32.3493 13.1143C32.3659 12.7563 32.3742 12.4575 32.3742 12.218V1.00126H30.146V0.66748H35.0442V1.00126H32.7663V12.1964C32.7663 12.4521 32.758 12.7725 32.7414 13.1628C32.7249 13.5531 32.6586 13.9622 32.5454 14.3929C32.4322 14.8236 32.2582 15.2516 32.0318 15.6823C31.8026 16.113 31.4685 16.4979 31.0268 16.8398C30.585 17.1816 30.03 17.4616 29.3618 17.6742C28.6909 17.8896 27.8681 17.9972 26.8879 17.9972C25.303 17.9972 24.0301 17.8249 23.0665 17.4831C22.1029 17.1412 21.3656 16.6944 20.8493 16.1453C20.3357 15.5961 19.9961 14.9717 19.8332 14.2718C19.6703 13.5719 19.5875 12.864 19.5875 12.148V1.00126H17.3096V0.66748H25.3913H25.3941Z" fill="white"/>
<path d="M38.1006 12.3662C38.1338 12.5573 38.189 12.8076 38.2718 13.1172C38.3547 13.4267 38.4706 13.7605 38.628 14.1185C38.7826 14.4765 38.9787 14.8426 39.2161 15.2168C39.4536 15.5909 39.7435 15.9382 40.0859 16.2558C40.4614 16.6219 40.8231 16.8991 41.1765 17.0903C41.5272 17.2814 41.8613 17.4213 42.1816 17.5075C42.4991 17.5963 42.8028 17.6421 43.0872 17.6501C43.3716 17.6582 43.6394 17.6609 43.8824 17.6609C44.7466 17.6609 45.459 17.529 46.0112 17.2679C46.5662 17.0041 47.0025 16.6838 47.3228 16.3016C47.6403 15.9193 47.8639 15.5182 47.9965 15.0956C48.1262 14.673 48.1925 14.3042 48.1925 13.9866C48.1925 13.3971 48.0489 12.9126 47.7645 12.5304C47.4774 12.1481 47.0991 11.8305 46.627 11.5748C46.152 11.3191 45.6136 11.1064 45.0117 10.9314C44.407 10.7565 43.7885 10.5788 43.1507 10.3931C42.5129 10.21 41.8944 9.99469 41.2897 9.74974C40.685 9.5021 40.1466 9.18446 39.6745 8.79415C39.1996 8.40384 38.8213 7.92201 38.5369 7.34866C38.2497 6.77531 38.1089 6.0593 38.1089 5.20061C38.1089 4.56535 38.2553 3.95162 38.5507 3.36212C38.8434 2.77262 39.252 2.25311 39.7739 1.79819C40.2957 1.34597 40.9197 0.979888 41.6459 0.699942C42.3721 0.422688 43.159 0.282715 44.0094 0.282715C44.5478 0.282715 45.0227 0.331167 45.4286 0.42538C45.8373 0.519592 46.1962 0.619189 46.5055 0.724168C46.8147 0.829148 47.0881 0.926053 47.3255 1.02296C47.563 1.11717 47.7783 1.16562 47.9744 1.16562C48.2035 1.16562 48.3526 1.13063 48.4272 1.05795C48.5017 0.985272 48.5791 0.856066 48.6591 0.664949H49.0512V5.20061H48.7337C48.5376 4.64341 48.3306 4.09429 48.1097 3.55324C47.8888 3.01219 47.6071 2.52228 47.2648 2.08621C46.9224 1.64745 46.4889 1.29483 45.967 1.02296C45.4452 0.753778 44.7825 0.616497 43.9846 0.616497C43.3302 0.616497 42.7559 0.705326 42.2589 0.880292C41.7619 1.05526 41.3394 1.28675 40.997 1.57208C40.6547 1.85741 40.3924 2.17773 40.2129 2.52767C40.0334 2.8776 39.9423 3.23561 39.9423 3.60169C39.9423 4.15889 40.0942 4.61919 40.3951 4.98527C40.6961 5.35136 41.0937 5.6663 41.5824 5.9274C42.0711 6.19119 42.6316 6.4173 43.2612 6.60842C43.8907 6.79954 44.534 6.99873 45.1967 7.206C45.8566 7.41327 46.5027 7.63938 47.1322 7.88702C47.759 8.13467 48.3195 8.44691 48.8082 8.82915C49.2969 9.21138 49.6945 9.67168 49.9955 10.2127C50.2965 10.7538 50.4483 11.4213 50.4483 12.2181C50.4483 13.0149 50.2854 13.739 49.9596 14.4388C49.6338 15.1387 49.1727 15.7524 48.5763 16.2773C47.9799 16.8022 47.2703 17.2195 46.4447 17.5317C45.6191 17.8413 44.7025 17.9974 43.6891 17.9974C43.1838 17.9974 42.6813 17.9489 42.1843 17.8547C41.6873 17.7605 41.2207 17.6609 40.79 17.5559C40.3565 17.4536 39.9727 17.354 39.6386 17.2571C39.3045 17.1629 39.0532 17.1145 38.8903 17.1145C38.6612 17.1145 38.4982 17.1495 38.4016 17.2221C38.305 17.2948 38.2138 17.4402 38.1338 17.6636H37.7417V12.3635H38.1089L38.1006 12.3662Z" fill="white"/>
<path d="M58.6462 1.00126C58.0415 1.00126 57.5031 1.06048 57.0309 1.18161C56.5588 1.30005 56.1336 1.50732 55.758 1.80342C55.3825 2.09682 55.0484 2.50867 54.753 3.03356C54.4603 3.55846 54.1897 4.22603 53.944 5.03895H53.6265V0.66748H68.981V5.03626H68.6635C68.4177 4.22334 68.1499 3.55577 67.8545 3.03087C67.5618 2.50597 67.2249 2.09682 66.8494 1.80072C66.4739 1.50732 66.0487 1.30005 65.5766 1.17892C65.1044 1.06048 64.5632 0.998571 63.9613 0.998571H63.0805V17.327H65.3336V17.6608H57.2767V17.327H59.5297V1.00126H58.6489H58.6462Z" fill="white"/>
<path d="M79.7298 0.66748V1.00126H77.4767V17.3297H81.5162C82.0546 17.3297 82.5986 17.2435 83.1453 17.0659C83.692 16.8909 84.2055 16.6002 84.6887 16.1937C85.1692 15.7873 85.6027 15.2624 85.9865 14.619C86.3703 13.9757 86.6685 13.1897 86.8811 12.2664H87.1986V17.6608H71.6729V17.327H73.9259V1.00126H71.6729V0.66748H79.7298Z" fill="white"/>
<path d="M97.8484 0.66748V1.00126H95.5954V17.3297H97.8484V17.6634H89.7915V17.3297H92.0446V1.00126H89.7915V0.66748H97.8484Z" fill="white"/>
<path d="M106.027 0.66748L114.18 12.0295H114.23V1.00126H111.977V0.66748H116.875V1.00126H114.622V17.6634H113.962L102.942 2.36062H102.893V17.3297H105.146V17.6634H100.248V17.3297H102.501V1.00126H100.248V0.66748H106.027Z" fill="white"/>
<path d="M133.82 5.53684C133.395 3.97829 132.76 2.76429 131.91 1.89754C131.062 1.03078 129.927 0.605479 128.505 0.62163C127.379 0.62163 126.473 0.83159 125.788 1.2542C125.103 1.67681 124.576 2.22594 124.209 2.90158C123.842 3.57721 123.601 4.34976 123.485 5.21652C123.372 6.08327 123.314 6.96349 123.314 7.85447V9.93253C123.314 11.3807 123.411 12.5974 123.607 13.5853C123.803 14.5732 124.109 15.3673 124.526 15.9729C124.943 16.5786 125.482 17.0119 126.142 17.273C126.801 17.5341 127.591 17.666 128.505 17.666C129.256 17.666 129.852 17.5341 130.291 17.273C130.733 17.0092 131.07 16.6512 131.308 16.199C131.545 15.7441 131.694 15.2084 131.76 14.5866C131.827 13.9648 131.857 13.2892 131.857 12.557V11.6499H129.336V11.3161H136.902V11.6499H135.311V17.1169H134.869C134.836 16.9258 134.742 16.7858 134.588 16.6997C134.433 16.6136 134.256 16.5678 134.06 16.5678C133.668 16.5678 133.298 16.6432 132.945 16.7939C132.594 16.9446 132.213 17.1088 131.807 17.2838C131.399 17.4588 130.929 17.623 130.399 17.7737C129.869 17.9245 129.228 17.9998 128.477 17.9998C127.285 17.9998 126.133 17.7737 125.026 17.3188C123.916 16.8639 122.941 16.2448 122.099 15.4561C121.257 14.6674 120.583 13.7414 120.078 12.6755C119.573 11.6095 119.319 10.4547 119.319 9.21382C119.319 7.86254 119.6 6.63509 120.164 5.53684C120.727 4.43859 121.45 3.49915 122.331 2.72123C123.212 1.94061 124.195 1.34034 125.283 0.917727C126.368 0.495116 127.434 0.285156 128.477 0.285156C128.966 0.285156 129.441 0.333608 129.897 0.427821C130.352 0.522034 130.777 0.62163 131.17 0.72661C131.562 0.83159 131.912 0.928494 132.222 1.0254C132.531 1.11961 132.793 1.16806 133.006 1.16806C133.235 1.16806 133.398 1.13307 133.494 1.06039C133.594 0.987713 133.682 0.858508 133.765 0.66739H134.182V5.53684H133.815H133.82Z" fill="white"/>
<path d="M149.028 1.00126C148.423 1.00126 147.885 1.06048 147.413 1.18161C146.938 1.30005 146.515 1.50732 146.14 1.80342C145.764 2.09682 145.43 2.50867 145.135 3.03356C144.842 3.55846 144.572 4.22603 144.326 5.03895H144.008V0.66748H159.363V5.03626H159.045C158.8 4.22334 158.532 3.55577 158.236 3.03087C157.944 2.50597 157.607 2.09682 157.231 1.80072C156.856 1.50732 156.431 1.30005 155.958 1.17892C155.483 1.06048 154.945 0.998571 154.343 0.998571H153.462V17.327H155.715V17.6608H147.658V17.327H149.912V1.00126H149.031H149.028Z" fill="white"/>
<path d="M161.785 1.00142V0.667643H165.482C166.167 0.667643 166.846 0.656876 167.514 0.632649C168.182 0.608423 168.861 0.597656 169.546 0.597656C170.184 0.597656 170.858 0.662259 171.567 0.788773C172.277 0.915287 172.926 1.13601 173.514 1.44557C174.102 1.75513 174.588 2.17235 174.972 2.69994C175.356 3.22484 175.546 3.88433 175.546 4.6811C175.546 5.31906 175.4 5.8628 175.104 6.31502C174.812 6.76993 174.431 7.13871 173.967 7.42404C173.503 7.70937 172.984 7.93009 172.412 8.08083C171.841 8.23157 171.277 8.33117 170.722 8.37962V8.49806C171.523 8.64073 172.235 8.78339 172.865 8.92875C173.495 9.07141 174.036 9.28675 174.494 9.57208C174.95 9.85741 175.314 10.2558 175.585 10.7645C175.855 11.2733 176.021 11.957 176.087 12.8184C176.167 13.8197 176.234 14.6246 176.283 15.2302C176.333 15.8359 176.402 16.3043 176.49 16.638C176.579 16.9718 176.703 17.1952 176.858 17.3056C177.012 17.416 177.239 17.4725 177.531 17.4725C177.857 17.4725 178.128 17.381 178.34 17.1979C178.553 17.0149 178.741 16.8453 178.904 16.6838L179.149 16.8991C178.986 17.058 178.826 17.206 178.672 17.3406C178.517 17.4752 178.338 17.5909 178.133 17.6878C177.929 17.782 177.68 17.8574 177.388 17.9139C177.095 17.9705 176.728 17.9974 176.286 17.9974C175.389 17.9974 174.685 17.8574 174.179 17.5802C173.674 17.3029 173.298 16.9557 173.053 16.5411C172.807 16.1266 172.658 15.6771 172.6 15.1925C172.542 14.708 172.506 14.2504 172.489 13.8197C172.456 13.1683 172.412 12.5357 172.354 11.922C172.296 11.3083 172.161 10.7645 171.951 10.2854C171.738 9.80896 171.421 9.42673 170.996 9.13871C170.571 8.85338 169.974 8.70802 169.209 8.70802H167.594V17.3271H169.847V17.6609H161.79V17.3271H164.043V1.00142H161.79H161.785ZM168.594 8.37693C169.328 8.37693 169.908 8.28003 170.333 8.0916C170.758 7.90048 171.076 7.64207 171.288 7.31636C171.501 6.99066 171.636 6.61919 171.692 6.20735C171.75 5.79281 171.777 5.37289 171.777 4.94221C171.777 4.24234 171.727 3.64207 171.631 3.13871C171.531 2.63803 171.368 2.2235 171.142 1.89779C170.913 1.57208 170.598 1.32982 170.201 1.17101C169.8 1.01219 169.289 0.931438 168.671 0.931438C168.491 0.931438 168.312 0.939514 168.132 0.955664C167.953 0.971815 167.774 0.987966 167.594 1.00412V8.37962H168.599L168.594 8.37693Z" fill="white"/>
<path d="M180.662 17.3324L187.96 0H188.62L196.334 17.3324H198.441V17.6662H190.213V17.3324H192.491L189.649 10.9341H183.771L181.054 17.3324H183.233V17.6662H178.605V17.3324H180.662ZM183.895 10.6003H189.528L186.64 4.08345L183.898 10.6003H183.895Z" fill="white"/>
<path d="M199.322 1.00126V0.66748H213.793V4.75093H213.475C213.246 4.17757 212.998 3.66075 212.73 3.20045C212.459 2.74016 212.144 2.34447 211.788 2.01876C211.429 1.69305 211.01 1.44272 210.526 1.26775C210.046 1.09278 209.477 1.00395 208.826 1.00395H205.128V8.69171H206.501C207.105 8.69171 207.616 8.60826 208.03 8.44137C208.447 8.27448 208.792 8.03491 209.071 7.72535C209.347 7.4158 209.577 7.04164 209.756 6.60288C209.935 6.16412 210.082 5.6769 210.198 5.13585H210.515V12.5598H210.198C210.085 12.0995 209.949 11.6527 209.795 11.222C209.64 10.7913 209.43 10.4145 209.171 10.0887C208.908 9.76304 208.588 9.50463 208.204 9.31351C207.82 9.12239 207.343 9.02818 206.771 9.02818H205.131V17.335H207.409V17.6688H199.327V17.335H201.58V1.00126H199.327H199.322Z" fill="white"/>
<path d="M216.708 1.00126V0.66748H231.179V4.75093H230.862C230.633 4.17757 230.384 3.66075 230.116 3.20045C229.846 2.74016 229.531 2.34447 229.175 2.01876C228.816 1.69305 228.396 1.44272 227.913 1.26775C227.433 1.09278 226.864 1.00395 226.212 1.00395H222.515V8.69171H223.887C224.492 8.69171 225.003 8.60826 225.417 8.44137C225.834 8.27448 226.179 8.03491 226.458 7.72535C226.734 7.4158 226.963 7.04164 227.143 6.60288C227.322 6.16412 227.469 5.6769 227.585 5.13585H227.902V12.5598H227.585C227.471 12.0995 227.336 11.6527 227.181 11.222C227.027 10.7913 226.817 10.4145 226.557 10.0887C226.295 9.76304 225.975 9.50463 225.591 9.31351C225.207 9.12239 224.73 9.02818 224.158 9.02818H222.518V17.335H224.796V17.6688H216.714V17.335H218.967V1.00126H216.714H216.708Z" fill="white"/>
<path d="M242.199 0.66748V1.00126H239.946V17.3297H242.199V17.6634H234.142V17.3297H236.395V1.00126H234.142V0.66748H242.199Z" fill="white"/>
<path d="M259.536 5.53685C259.357 5.01195 259.141 4.46013 258.887 3.87871C258.633 3.29728 258.307 2.76431 257.907 2.27979C257.507 1.79526 257.01 1.39688 256.413 1.08732C255.817 0.777766 255.08 0.621642 254.196 0.621642C253.003 0.621642 252.065 0.836986 251.38 1.26498C250.695 1.69297 250.176 2.29055 249.825 3.05502C249.475 3.81949 249.251 4.72931 249.152 5.78719C249.055 6.84506 249.005 8.00253 249.005 9.2596C249.005 10.915 249.102 12.2825 249.298 13.3646C249.494 14.4467 249.8 15.3054 250.217 15.9433C250.634 16.5813 251.173 17.0254 251.833 17.2811C252.493 17.5368 253.282 17.6634 254.196 17.6634C254.931 17.6634 255.596 17.5207 256.192 17.2327C256.789 16.9473 257.313 16.5678 257.772 16.0994C258.23 15.6311 258.611 15.0927 258.923 14.4871C259.232 13.8814 259.462 13.2542 259.608 12.6001H260V17.6607H259.608C259.525 17.4696 259.428 17.3377 259.315 17.2677C259.199 17.195 259.028 17.16 258.802 17.16C258.606 17.16 258.352 17.2031 258.042 17.2919C257.733 17.3807 257.377 17.4749 256.977 17.5772C256.576 17.6795 256.14 17.7764 255.665 17.8626C255.193 17.9487 254.693 17.9945 254.171 17.9945C252.978 17.9945 251.827 17.7683 250.72 17.3134C249.61 16.8585 248.635 16.2394 247.793 15.4507C246.951 14.662 246.28 13.736 245.772 12.6701C245.267 11.6041 245.013 10.4494 245.013 9.20845C245.013 7.85717 245.294 6.62972 245.858 5.53147C246.421 4.43322 247.144 3.49378 248.025 2.71586C248.906 1.93524 249.889 1.33497 250.977 0.912356C252.062 0.489745 253.128 0.279785 254.171 0.279785C254.693 0.279785 255.179 0.328237 255.629 0.42245C256.079 0.516663 256.493 0.616259 256.877 0.721239C257.261 0.826219 257.606 0.923123 257.918 1.02003C258.227 1.11424 258.49 1.16269 258.702 1.16269C258.931 1.16269 259.103 1.13577 259.216 1.07925C259.329 1.02272 259.412 0.885438 259.462 0.662019H259.854V5.53147H259.536V5.53685Z" fill="white"/>
</g>
</g>
<defs>
<clipPath id="clip0_2630_11358">
<rect width="260" height="18" fill="white"/>
</clipPath>
</defs>
</svg>
