<svg width="120" height="241" viewBox="0 0 120 241" fill="none" xmlns="http://www.w3.org/2000/svg">
<path d="M74.79 3.84009H119.59V31.6501H115.31V8.62009H99.52V28.2501H95.24V8.62009H79.07V31.6501H74.79V3.84009Z" fill="#D68F41"/>
<path d="M74.79 45.9999C74.79 40.5899 78.31 38.1299 83.03 38.1299H119.59V42.6599H83.22C80.2 42.6599 78.69 43.6699 78.69 46.8099V49.2599H74.79V45.9899V45.9999Z" fill="#D68F41"/>
<path d="M89.0704 55.6899C82.2704 55.6899 78.3704 58.8999 78.3704 64.8099C78.3704 68.3999 79.4404 70.4699 81.8904 72.9299L79.1804 76.0099C76.0304 72.8599 74.4004 69.9699 74.4004 64.6799C74.4004 56.4999 79.3104 51.1499 90.2604 51.1499C100.26 51.1499 106.12 55.9899 106.12 63.8599C106.12 71.7299 100.33 76.5699 91.1404 76.5699H89.0604V55.6799L89.0704 55.6899ZM97.6304 71.1099C100.46 69.9099 102.29 67.1499 102.29 63.8699C102.29 60.5899 100.46 57.8299 97.6304 56.6299C95.9304 55.9399 94.9904 55.8099 92.4704 55.6899V72.0499C94.9904 71.9199 95.9304 71.7999 97.6304 71.1099Z" fill="#D68F41"/>
<path d="M74.79 123.46H93.86C99.33 123.46 102.1 120.5 102.1 115.85C102.1 111.2 99.27 108.11 94.36 108.11H74.79V103.58H93.86C99.33 103.58 102.1 100.62 102.1 95.97C102.1 91.32 99.27 88.23 93.86 88.23H74.79V83.7H105.75V88.23H102.35C104.87 90.43 106.13 93.52 106.13 96.98C106.13 101.26 104.37 104.59 100.97 106.48C104.37 108.87 106.13 112.33 106.13 116.67C106.13 120 105.06 122.77 103.24 124.66C101.1 126.86 98.21 127.99 94.62 127.99H74.8V123.46H74.79Z" fill="#D68F41"/>
<path d="M89.0704 139.31C82.2704 139.31 78.3704 142.52 78.3704 148.43C78.3704 152.02 79.4404 154.09 81.8904 156.55L79.1804 159.63C76.0304 156.48 74.4004 153.59 74.4004 148.3C74.4004 140.12 79.3104 134.77 90.2604 134.77C100.26 134.77 106.12 139.61 106.12 147.48C106.12 155.35 100.33 160.19 91.1404 160.19H89.0604V139.3L89.0704 139.31ZM97.6304 154.73C100.46 153.53 102.29 150.77 102.29 147.49C102.29 144.21 100.46 141.45 97.6304 140.25C95.9304 139.56 94.9904 139.43 92.4704 139.31V155.67C94.9904 155.54 95.9304 155.42 97.6304 154.73Z" fill="#D68F41"/>
<path d="M74.79 187.14H93.86C99.33 187.14 102.1 184.18 102.1 179.53C102.1 174.88 99.27 171.85 93.86 171.85H74.79V167.32H105.75V171.85H102.35C104.87 174.05 106.13 177.07 106.13 180.53C106.13 183.99 105.12 186.57 103.24 188.46C101.1 190.66 98.21 191.67 94.62 191.67H74.8V187.14H74.79Z" fill="#D68F41"/>
<path d="M74.79 208.85C74.79 203.56 78.5 200.92 83.1 200.92H102.1V197.02H105.56V200.92H115.25V205.45H105.56V212.06H102.1V205.45H83.22C80.39 205.45 78.69 206.77 78.69 209.67V212.06H74.79V208.85Z" fill="#D68F41"/>
<path d="M74.4102 228.29C74.4102 223.07 75.6101 218.98 78.8801 215.58L81.9002 218.6C79.3202 221.05 78.3102 224.39 78.3102 228.23C78.3102 233.33 80.1402 236.47 83.7902 236.47C86.5002 236.47 88.0102 234.9 88.3202 231.31L88.7602 226.21C89.2602 220.17 91.9702 216.96 97.0702 216.96C102.73 216.96 106.13 221.74 106.13 228.35C106.13 232.75 105.06 236.72 102.8 239.49L99.8401 236.53C101.54 234.33 102.29 231.5 102.29 228.29C102.29 223.76 100.34 221.37 97.1902 221.37C94.5502 221.37 92.9702 222.88 92.6602 226.78L92.2202 231.75C91.7202 237.16 89.6402 240.87 83.8502 240.87C78.0602 240.87 74.4102 235.77 74.4102 228.28V228.29Z" fill="#D68F41"/>
<path d="M0 15.35C0 8.62 1.7 4.22 5.92 0L9.19 3.27C5.48 6.98 4.28 10.44 4.28 15.48C4.28 22.02 7.36 26.05 12.59 26.05C14.92 26.05 16.93 25.36 18.19 23.91C19.45 22.46 19.83 21.33 20.33 18.06L21.15 12.84C21.72 9.32 22.85 6.55 24.55 4.6C26.56 2.34 29.33 1.2 32.92 1.2C40.53 1.2 45.57 6.67 45.57 15.55C45.57 21.28 44.12 25.05 40.66 28.89L37.58 25.81C40.1 23.04 41.42 20.08 41.42 15.36C41.42 9.38 38.09 5.92 33.11 5.92C30.91 5.92 29.15 6.55 27.95 7.93C26.75 9.31 25.87 11.64 25.5 13.97L24.74 18.88C24.11 23.1 23.23 25.17 21.59 27.06C19.51 29.51 16.43 30.84 12.72 30.84C4.85 30.84 0 24.67 0 15.35Z" fill="#D68F41"/>
<path d="M0.379883 46.1901C0.379883 40.9001 4.08988 38.2601 8.68988 38.2601H27.6899V34.3601H31.1499V38.2601H40.8399V42.7901H31.1499V49.4001H27.6899V42.7901H8.80988C5.97988 42.7901 4.27988 44.1101 4.27988 47.0101V49.4001H0.379883V46.1901Z" fill="#D68F41"/>
<path d="M25.4199 73.1801C27.1199 71.4801 27.6899 70.2201 27.6899 67.8301C27.6899 63.3001 24.0999 60.4001 19.3799 60.4001H0.379883V55.8701H31.3399V60.4001H27.5599C30.1399 62.1001 31.7099 65.5001 31.7099 69.0801C31.7099 72.0401 31.0199 74.3001 28.8199 76.5101L25.4199 73.1801Z" fill="#D68F41"/>
<path d="M0.38 99.42H3.84C1.32 97.22 0 94.13 0 90.67C0 87.21 1.01 84.57 2.89 82.68C5.03 80.48 7.99 79.53 11.57 79.53H31.33V84.06H12.27C6.8 84.06 4.03 86.95 4.03 91.61C4.03 96.27 6.86 99.35 12.27 99.35H31.34V103.88H0.38V99.41V99.42Z" fill="#D68F41"/>
<path d="M0 124.72C0 116.92 5.29 111 15.86 111C26.43 111 31.72 116.91 31.72 124.72C31.72 129 30.59 131.7 27.13 134.91L24.24 131.83C26.82 129.5 27.7 127.68 27.7 124.72C27.7 121.76 26.5 119.18 24.18 117.55C22.17 116.1 19.78 115.54 15.87 115.54C11.96 115.54 9.58 116.11 7.56 117.55C5.23 119.19 4.04 121.7 4.04 124.72C4.04 127.74 4.98 129.5 7.56 131.83L4.6 134.91C1.14 131.7 0.01 128.99 0.01 124.72H0Z" fill="#D68F41"/>
<path d="M0.379883 149.7C0.379883 144.41 4.08988 141.77 8.68988 141.77H27.6899V137.87H31.1499V141.77H40.8399V146.3H31.1499V152.91H27.6899V146.3H8.80988C5.97988 146.3 4.27988 147.62 4.27988 150.52V152.91H0.379883V149.7Z" fill="#D68F41"/>
<path d="M0.38 178.96H3.84C1.32 176.76 0 173.67 0 170.21C0 166.75 1.01 164.11 2.89 162.22C5.03 160.02 7.99 159.07 11.57 159.07H31.33V163.6H12.27C6.8 163.6 4.03 166.49 4.03 171.15C4.03 175.81 6.86 178.89 12.27 178.89H31.34V183.42H0.38V178.95V178.96Z" fill="#D68F41"/>
<path d="M25.4199 209.54C27.1199 207.84 27.6899 206.58 27.6899 204.19C27.6899 199.66 24.0999 196.77 19.3799 196.77H0.379883V192.24H31.3399V196.77H27.5599C30.1399 198.47 31.7099 201.87 31.7099 205.45C31.7099 208.41 31.0199 210.67 28.8199 212.88L25.4199 209.54Z" fill="#D68F41"/>
<path d="M14.66 216.9C7.86 216.9 3.96 220.11 3.96 226.02C3.96 229.61 5.03 231.68 7.48 234.14L4.78 237.22C1.63 234.07 0 231.18 0 225.89C0 217.71 4.91 212.36 15.86 212.36C25.86 212.36 31.72 217.2 31.72 225.07C31.72 232.94 25.93 237.78 16.74 237.78H14.66V216.89V216.9ZM23.22 232.32C26.05 231.12 27.88 228.36 27.88 225.08C27.88 221.8 26.06 219.04 23.22 217.84C21.52 217.15 20.58 217.02 18.06 216.9V233.26C20.58 233.13 21.52 233.01 23.22 232.32Z" fill="#D68F41"/>
</svg>
