<svg width="564" height="258" viewBox="0 0 564 258" fill="none" xmlns="http://www.w3.org/2000/svg">
<path d="M100.123 145.078V146.465H110.801V145.078H100.123ZM99.401 139.511V147.51H100.845V140.86H110.079V147.453H111.58V139.511H99.401ZM107.381 132.937C109.243 134.628 111.409 137.022 112.34 138.637L113.575 137.744C112.587 136.167 110.345 133.811 108.483 132.196L107.381 132.937ZM98.375 137.896C98.375 137.611 99.325 137.174 99.325 137.174V137.136C101.339 135.464 103.467 133.108 105.291 130.581L103.866 129.973C102.384 132.329 100.161 134.742 99.458 135.369C98.831 135.996 98.337 136.414 97.9 136.49C98.071 136.87 98.318 137.592 98.375 137.896ZM98.375 137.896C99.135 137.63 100.275 137.592 111.732 136.946C111.656 136.642 111.599 136.072 111.58 135.673L99.42 136.243L98.356 136.775L98.375 137.896ZM119.18 131.949V133.298H135.919V131.949H119.18ZM123.094 139.568V140.727H132.081V139.568H123.094ZM122.695 142.665V143.862H132.423V142.665H122.695ZM126.78 140.119V147.149H128.148V140.119H126.78ZM120.206 135.293V147.491H121.631V136.623H133.943V135.293H120.206ZM133.449 135.293V145.857C133.449 146.161 133.373 146.256 133.031 146.275C132.689 146.294 131.511 146.294 130.314 146.237C130.523 146.598 130.751 147.149 130.827 147.529C132.385 147.529 133.468 147.51 134.076 147.301C134.703 147.092 134.912 146.693 134.912 145.857V135.293H133.449ZM124.044 137.25C124.519 137.953 125.013 138.922 125.203 139.568L126.4 139.131C126.191 138.504 125.697 137.573 125.184 136.889L124.044 137.25ZM129.858 136.87C129.535 137.687 128.946 138.884 128.471 139.663L129.497 140.005C129.991 139.283 130.58 138.219 131.074 137.231L129.858 136.87ZM126.742 130.049V136.186H128.319V130.049H126.742ZM148.763 133.678V147.491H150.245V133.678H148.763ZM141.03 132.823V134.21H158.149V132.823H141.03ZM142.892 136.813V145.306H144.317V138.2H155.375V136.813H142.892ZM154.976 136.813V143.501C154.976 143.767 154.9 143.843 154.558 143.881C154.216 143.881 153.076 143.881 151.784 143.843C151.974 144.242 152.202 144.812 152.278 145.249C153.893 145.249 154.976 145.23 155.622 145.002C156.268 144.774 156.439 144.337 156.439 143.501V136.813H154.976ZM147.927 130.315C148.459 131.227 149.067 132.481 149.333 133.241L150.796 132.728C150.511 131.987 149.846 130.771 149.314 129.897L147.927 130.315ZM167.725 135.35V144.755C167.725 146.655 168.314 147.168 170.385 147.168C170.803 147.168 173.748 147.168 174.223 147.168C176.351 147.168 176.807 146.104 176.997 142.494C176.617 142.38 175.99 142.133 175.648 141.867C175.496 145.154 175.325 145.819 174.147 145.819C173.482 145.819 171.012 145.819 170.499 145.819C169.416 145.819 169.188 145.648 169.188 144.774V135.35H167.725ZM164.685 136.756C164.4 139.017 163.773 142 162.956 143.957L164.381 144.565C165.16 142.513 165.749 139.283 166.053 137.041L164.685 136.756ZM176.579 136.775C177.643 139.036 178.688 142.038 179.049 143.995L180.474 143.444C180.056 141.468 178.992 138.542 177.89 136.281L176.579 136.775ZM168.618 131.645C170.423 132.918 172.665 134.799 173.71 135.977L174.736 134.913C173.634 133.716 171.354 131.93 169.587 130.714L168.618 131.645ZM186.288 140.499V141.753H201.184V140.499H186.288ZM192.919 138.523V147.491H194.344V138.523H192.919ZM185.756 136.775V139.853H187.124V138.029H200.196V139.853H201.621V136.775H185.756ZM192.254 131.037C191.931 131.645 191.323 132.576 190.848 133.146L191.722 133.564C192.235 133.032 192.862 132.253 193.451 131.493L192.254 131.037ZM188.872 134.058C189.898 134.723 191.247 135.692 191.912 136.281L192.881 135.388C192.159 134.818 190.791 133.906 189.784 133.26L188.872 134.058ZM189.138 130.03C189.005 133.336 188.435 134.837 185.072 135.692C185.319 135.92 185.68 136.414 185.794 136.737C189.518 135.711 190.259 133.83 190.43 130.03H189.138ZM200.576 130.999C200.215 131.645 199.512 132.614 198.98 133.222L199.873 133.64C200.443 133.089 201.184 132.272 201.811 131.474L200.576 130.999ZM196.833 133.925C198.182 134.799 199.987 136.053 200.899 136.794L201.811 135.825C200.88 135.103 199.037 133.925 197.726 133.108L196.833 133.925ZM197.08 130.03C196.928 133.146 196.377 134.647 193.204 135.502C193.47 135.749 193.812 136.224 193.945 136.547C197.479 135.502 198.22 133.64 198.372 130.03H197.08ZM190.886 142.589C189.594 143.938 187.086 145.173 184.863 145.724C185.167 146.009 185.604 146.541 185.813 146.902C188.074 146.199 190.639 144.736 192.083 143.064L190.886 142.589ZM195.465 143.349C197.479 144.394 199.987 145.952 201.203 146.997L202.229 146.009C200.956 144.983 198.391 143.482 196.434 142.494L195.465 143.349ZM185.376 131.493C185.908 132.12 186.592 132.956 186.953 133.469L187.827 132.728C187.485 132.253 186.763 131.436 186.231 130.866L185.376 131.493ZM193.641 131.474C194.154 132.063 194.8 132.861 195.142 133.355L196.016 132.614C195.674 132.139 195.009 131.379 194.477 130.828L193.641 131.474ZM210.798 133.83H220.545V135.046H210.798V133.83ZM210.798 131.702H220.545V132.899H210.798V131.702ZM209.411 130.714V136.034H221.951V130.714H209.411ZM207.264 137.25V138.409H224.06V137.25H207.264ZM211.216 140.48H220.184V142.285H211.216V140.48ZM209.848 139.435V143.349H221.609V139.435H209.848ZM214.978 142.741V146.104C214.978 146.313 214.902 146.389 214.655 146.408C214.37 146.408 213.458 146.408 212.47 146.37C212.641 146.712 212.831 147.168 212.907 147.51C214.237 147.51 215.13 147.51 215.681 147.339C216.251 147.168 216.403 146.845 216.403 146.142V142.741H214.978ZM218.037 144.736C219.766 145.401 221.97 146.484 223.072 147.263L224.022 146.313C222.863 145.553 220.659 144.508 218.949 143.919L218.037 144.736ZM211.71 143.843C210.57 144.736 208.689 145.61 207.036 146.18C207.34 146.408 207.853 146.921 208.081 147.206C209.715 146.541 211.729 145.439 213.002 144.356L211.71 143.843ZM214.427 136.376C214.826 136.908 215.206 137.63 215.358 138.105L216.669 137.63C216.498 137.136 216.08 136.452 215.681 135.958L214.427 136.376ZM229.076 137.801V139.359H246.461V137.801H229.076ZM260.35 145.534V146.788H266.62V145.534H260.35ZM261.281 131.987V133.222H266.297V131.987H261.281ZM259.799 140.632V147.472H261.11V141.867H265.898V147.415H267.266V140.632H259.799ZM265.784 131.987V132.234C264.549 136.205 261.186 139.264 257.823 140.556C258.108 140.822 258.488 141.316 258.659 141.639C262.269 140.1 265.746 136.984 267.209 132.31L266.297 131.93L266.031 131.987H265.784ZM261.604 130.03C260.882 132.367 259.571 134.59 258.013 136.015C258.355 136.224 258.906 136.68 259.134 136.927C260.711 135.35 262.117 132.937 262.972 130.353L261.604 130.03ZM261.224 132.766L260.293 133.545C261.452 136.281 263.96 139.72 267.874 141.411C268.064 141.05 268.463 140.499 268.767 140.233C264.872 138.751 262.326 135.483 261.224 132.766ZM251.971 138.466V145.363H253.168V138.466H251.971ZM253.244 132.082H256.816V135.426H253.244V132.082ZM251.971 130.828V136.68H258.146V130.828H251.971ZM254.65 136.053V144.736H255.942V136.053H254.65ZM250.983 145.211L251.249 146.598C253.244 146.104 255.98 145.439 258.583 144.793L258.45 143.52C255.714 144.166 252.864 144.831 250.983 145.211ZM255.106 139.435V140.708H258.317V139.435H255.106ZM274.182 133.317V147.51H275.588V134.723H288.641V133.317H274.182ZM288.109 133.317V145.61C288.109 145.971 288.014 146.066 287.634 146.085C287.235 146.104 285.924 146.104 284.537 146.047C284.765 146.446 284.974 147.111 285.05 147.529C286.779 147.529 287.976 147.491 288.66 147.263C289.325 147.035 289.534 146.56 289.534 145.629V133.317H288.109ZM280.642 129.992C280.319 131.151 279.692 132.804 279.16 133.868L280.528 134.191C281.098 133.184 281.82 131.645 282.409 130.296L280.642 129.992ZM278.096 137.231V144.888H279.407V137.231H278.096ZM278.704 137.231V138.523H284.214V142.247H278.704V143.52H285.544V137.231H278.704ZM295.595 131.854V133.184H312.201V131.854H295.595ZM303.062 130.049V147.51H304.544V130.049H303.062ZM302.625 140.936C301.01 143.026 297.894 145.059 295.12 146.028C295.462 146.313 295.899 146.864 296.127 147.225C298.901 146.085 302.036 143.862 303.822 141.468L302.625 140.936ZM305.019 140.955L303.86 141.487C305.646 143.862 308.819 146.142 311.631 147.263C311.859 146.864 312.296 146.313 312.638 146.028C309.826 145.078 306.653 143.045 305.019 140.955ZM298.654 138.808H309.218V140.632H298.654V138.808ZM298.654 135.92H309.218V137.725H298.654V135.92ZM297.267 134.799V141.772H310.662V134.799H297.267ZM324.342 142.418C326.337 141.734 327.629 140.176 327.629 138.124C327.629 136.794 327.059 135.92 325.995 135.92C325.235 135.92 324.551 136.395 324.551 137.288C324.551 138.181 325.197 138.656 325.976 138.656C326.337 138.656 326.717 138.561 326.983 138.219L325.957 136.775L326.318 138.371C326.318 139.815 325.463 140.784 323.905 141.411L324.342 142.418ZM350.752 140.708V141.943H355.711V140.708H350.752ZM350.144 137.497V146.066L351.493 146.579V137.497H350.144ZM347.389 141.468L346.325 141.867C347.484 146.332 349.669 147.339 353.07 147.339H356.262C356.3 146.959 356.509 146.332 356.699 146.028C356.11 146.028 353.602 146.028 353.184 146.028C350.372 146.028 348.32 145.23 347.389 141.468ZM347.731 130.049C347.18 132.937 346.059 135.407 344.254 136.946C344.577 137.155 345.128 137.668 345.318 137.915C347.18 136.186 348.453 133.488 349.099 130.258L347.731 130.049ZM352.842 130.049C352.424 133.032 351.36 135.35 349.441 136.756C349.764 136.965 350.353 137.402 350.581 137.649C352.519 136.034 353.716 133.526 354.229 130.22L352.842 130.049ZM347.256 133.906C348.111 134.59 349.194 135.559 349.707 136.167L350.41 135.065C349.878 134.495 348.795 133.583 347.94 132.937L347.256 133.906ZM352.234 133.925C353.526 135.046 355.065 136.642 355.806 137.649L356.794 136.68C356.053 135.711 354.457 134.153 353.184 133.089L352.234 133.925ZM346.42 138.884C346.249 142.342 345.565 144.964 343.627 146.56C343.931 146.769 344.501 147.244 344.71 147.472C346.743 145.61 347.56 142.855 347.826 138.979L346.42 138.884ZM343.513 133.906C342.392 135.92 340.587 137.915 338.82 139.207C339.086 139.511 339.504 140.176 339.637 140.48C341.499 138.96 343.494 136.661 344.805 134.381L343.513 133.906ZM343.076 130.049C342.24 131.398 340.53 133.013 339.048 134.02C339.295 134.286 339.656 134.78 339.846 135.065C341.461 133.925 343.247 132.139 344.349 130.543L343.076 130.049ZM341.803 137.44V147.586H343.152V136.376L342.962 136.281L341.803 137.44ZM361.62 131.949V133.298H378.359V131.949H361.62ZM365.534 139.568V140.727H374.521V139.568H365.534ZM365.135 142.665V143.862H374.863V142.665H365.135ZM369.22 140.119V147.149H370.588V140.119H369.22ZM362.646 135.293V147.491H364.071V136.623H376.383V135.293H362.646ZM375.889 135.293V145.857C375.889 146.161 375.813 146.256 375.471 146.275C375.129 146.294 373.951 146.294 372.754 146.237C372.963 146.598 373.191 147.149 373.267 147.529C374.825 147.529 375.908 147.51 376.516 147.301C377.143 147.092 377.352 146.693 377.352 145.857V135.293H375.889ZM366.484 137.25C366.959 137.953 367.453 138.922 367.643 139.568L368.84 139.131C368.631 138.504 368.137 137.573 367.624 136.889L366.484 137.25ZM372.298 136.87C371.975 137.687 371.386 138.884 370.911 139.663L371.937 140.005C372.431 139.283 373.02 138.219 373.514 137.231L372.298 136.87ZM369.182 130.049V136.186H370.759V130.049H369.182ZM390.31 133.203V134.571H400.57V133.203H390.31ZM393.559 137.592V138.922H398.632V137.592H393.559ZM398.138 137.592V137.858C397.929 143.273 397.682 145.287 397.245 145.743C397.074 145.952 396.884 146.009 396.561 145.99C396.2 145.99 395.288 145.99 394.319 145.895C394.547 146.275 394.718 146.845 394.756 147.263C395.687 147.32 396.637 147.32 397.15 147.282C397.72 147.225 398.1 147.073 398.461 146.636C399.05 145.971 399.278 143.938 399.525 138.238C399.544 138.048 399.544 137.592 399.544 137.592H398.138ZM393.027 134.115C392.932 139.093 392.723 143.995 389.322 146.56C389.683 146.788 390.12 147.225 390.31 147.548C393.958 144.679 394.3 139.511 394.452 134.115H393.027ZM394.072 130.448C394.452 131.436 394.87 132.728 394.984 133.507L396.352 133.108C396.2 132.329 395.782 131.094 395.345 130.144L394.072 130.448ZM387.992 137.535C388.524 138.827 389.075 140.518 389.265 141.525L390.462 141.088C390.234 140.1 389.664 138.447 389.132 137.174L387.992 137.535ZM386.206 142.418C386.453 143.729 386.662 145.439 386.7 146.56L387.897 146.332C387.84 145.192 387.612 143.52 387.365 142.209L386.206 142.418ZM384.097 142.266C383.926 143.805 383.641 145.515 383.185 146.674C383.508 146.769 384.097 146.959 384.382 147.111C384.781 145.933 385.142 144.128 385.351 142.475L384.097 142.266ZM383.641 137.155C383.641 136.851 384.534 136.433 384.534 136.433V136.395C385.826 134.856 387.194 132.671 388.22 130.543L386.89 129.973C386.073 132.044 384.686 134.229 384.268 134.78C383.869 135.369 383.508 135.749 383.185 135.825C383.337 136.186 383.565 136.87 383.641 137.155ZM383.641 137.155C383.945 137.003 384.477 136.908 387.536 136.547C387.536 136.262 387.574 135.768 387.65 135.426L384.268 135.711L383.603 136.11L383.641 137.155ZM383.755 141.43C383.755 141.145 384.648 140.727 384.648 140.727V140.689C386.472 138.884 388.334 136.3 389.797 133.754L388.581 133.032C387.327 135.559 385.351 138.2 384.724 138.884C384.135 139.568 383.717 140.043 383.299 140.119C383.47 140.48 383.679 141.145 383.755 141.43ZM383.755 141.43C384.154 141.24 384.762 141.088 389.398 140.366C389.379 140.1 389.379 139.568 389.436 139.207L384.382 139.91L383.717 140.366L383.755 141.43ZM388.258 141.981C388.619 142.988 389.018 144.28 389.17 145.135L390.272 144.755C390.12 143.938 389.702 142.646 389.303 141.658L388.258 141.981ZM415.504 141.544L416.796 140.442C415.618 139.055 413.908 137.326 412.54 136.224L411.305 137.307C412.654 138.409 414.288 140.043 415.504 141.544ZM434.561 130.049V134.685H435.967V130.049H434.561ZM435.397 131.531V132.69H442.56V131.531H435.397ZM430.381 133.925V135.103H443.073V133.925H430.381ZM442.655 133.925V134.115C442.427 134.97 442.066 135.977 441.781 136.623L442.997 136.927C443.339 136.224 443.757 135.103 444.118 134.115L443.13 133.887L442.883 133.925H442.655ZM431.426 137.326L431.559 138.466L440.926 137.497L440.793 136.376L431.426 137.326ZM429.298 133.925V139.359C429.298 141.62 429.089 144.527 427.208 146.598C427.512 146.75 428.044 147.168 428.272 147.415C430.305 145.192 430.628 141.829 430.628 139.359V133.925H429.298ZM433.782 141.601C433.744 144.85 433.364 145.933 430.191 146.56C430.457 146.807 430.818 147.282 430.894 147.586C434.523 146.826 435.093 145.325 435.15 141.601H433.782ZM438.475 141.601V145.534C438.475 146.845 438.874 147.206 440.47 147.206C440.793 147.206 442.674 147.206 443.035 147.206C444.422 147.206 444.783 146.598 444.935 144.09C444.555 143.995 444.004 143.805 443.7 143.596C443.624 145.781 443.51 146.047 442.902 146.047C442.484 146.047 440.945 146.047 440.622 146.047C439.938 146.047 439.824 145.971 439.824 145.515V141.601H438.475ZM434.561 135.388V138.58C434.561 140.024 435.017 140.556 436.67 140.556C437.088 140.556 440.185 140.556 440.831 140.556C441.572 140.556 442.389 140.537 442.712 140.442C442.674 140.119 442.617 139.644 442.579 139.245C442.18 139.359 441.287 139.378 440.736 139.378C440.128 139.378 437.278 139.378 436.708 139.378C436.062 139.378 435.948 139.169 435.948 138.618V135.388H434.561ZM451.148 130.942V136.509C451.148 139.53 450.996 143.767 449.21 146.769C449.571 146.902 450.217 147.263 450.483 147.472C452.345 144.375 452.592 139.72 452.592 136.509V130.942H451.148ZM452.155 130.942V132.196H464.011V134.305H452.155V135.54H465.436V130.942H452.155ZM457.874 137.079V145.078C457.874 146.788 458.425 147.225 460.401 147.225C460.838 147.225 463.821 147.225 464.296 147.225C465.968 147.225 466.386 146.598 466.576 144.375C466.177 144.28 465.626 144.071 465.303 143.824C465.189 145.591 465.037 145.914 464.201 145.914C463.555 145.914 460.99 145.914 460.515 145.914C459.451 145.914 459.28 145.781 459.28 145.059V137.079H457.874ZM462.396 135.597C460.42 136.357 456.715 137.041 453.504 137.459C453.656 137.744 453.827 138.2 453.884 138.485C457.228 138.086 461.085 137.421 463.593 136.528L462.396 135.597ZM453.39 140.233L453.618 141.411L464.885 139.682L464.676 138.523L453.39 140.233ZM452.763 143.292L452.991 144.489L466.234 142.418L466.025 141.24L452.763 143.292ZM472.124 131.588V134.761H473.454V132.747H486.792V134.761H488.179V131.588H472.124ZM474.157 134.419V135.578H486.184V134.419H474.157ZM479.591 132.842C478.356 136.414 475.297 138.409 471.174 139.473C471.478 139.739 471.953 140.29 472.143 140.575C476.266 139.302 479.496 137.117 480.959 133.146L479.591 132.842ZM481.757 134.761L480.598 135.16C482.08 137.763 484.854 139.644 488.16 140.461C488.35 140.119 488.73 139.606 489.015 139.34C485.823 138.675 483.049 137.003 481.757 134.761ZM472.827 136.471C473.644 137.041 474.613 137.896 475.107 138.428L476.057 137.63C475.563 137.06 474.556 136.262 473.739 135.749L472.827 136.471ZM486.374 135.635C485.804 136.281 484.759 137.212 484.018 137.763L484.911 138.371C485.69 137.877 486.697 137.098 487.571 136.319L486.374 135.635ZM476.456 140.955H483.828V142.228H476.456V140.955ZM476.456 138.751H483.828V139.986H476.456V138.751ZM475.126 137.744V143.235H485.177V137.744H475.126ZM479.458 142.532V146.009C479.458 146.218 479.382 146.294 479.116 146.313C478.812 146.332 477.862 146.332 476.76 146.294C476.969 146.655 477.197 147.149 477.273 147.529C478.641 147.529 479.534 147.529 480.104 147.32C480.712 147.13 480.864 146.769 480.864 146.047V142.532H479.458ZM475.696 143.634C474.898 144.66 473.473 145.648 472.124 146.294C472.447 146.522 472.979 147.016 473.207 147.263C474.556 146.503 476.114 145.306 477.045 144.071L475.696 143.634ZM482.859 144.242C484.208 145.097 485.842 146.389 486.602 147.244L487.78 146.522C486.944 145.648 485.291 144.413 483.961 143.596L482.859 144.242ZM478.812 130.334C479.211 130.98 479.591 131.854 479.762 132.405L481.244 131.93C481.092 131.379 480.636 130.543 480.237 129.935L478.812 130.334ZM501.422 141.145V146.199H502.828V141.145H501.422ZM496.748 133.982V135.027H507.673V133.982H496.748ZM498.116 137.098H506.191V138.561H498.116V137.098ZM496.786 136.072V139.568H507.578V136.072H496.786ZM495.513 140.67V147.548H496.881V141.772H507.654V147.472H509.06V140.67H495.513ZM496.463 143.254V144.242H508.205V143.254H496.463ZM496.482 145.8V146.902H508.186V145.8H496.482ZM494.259 131.569V135.179H495.627V132.804H508.794V135.179H510.219V131.569H494.259ZM500.795 130.201C501.175 130.828 501.612 131.702 501.821 132.253L503.36 131.835C503.151 131.303 502.695 130.467 502.296 129.84L500.795 130.201ZM523.443 130.106C523.367 133.032 523.481 142.323 515.558 146.332C515.995 146.636 516.47 147.073 516.717 147.453C524.792 143.121 524.944 133.469 525.02 130.106H523.443ZM524.849 132.443L523.481 132.595C523.747 134.248 524.526 143.862 532.05 147.377C532.259 146.978 532.677 146.484 533.095 146.161C525.799 142.912 525.02 133.811 524.849 132.443ZM104.208 182.457H108.578V184.642H104.208V182.457ZM102.878 181.431V185.668H109.984V181.431H102.878ZM102.004 188.005H104.531V190.817H102.004V188.005ZM100.788 186.96V191.862H105.785V186.96H100.788ZM108.293 188.005H110.953V190.817H108.293V188.005ZM107.077 186.96V191.862H112.207V186.96H107.077ZM97.102 178.923V180.196H113.138V178.923H97.102ZM97.9 179.018V190.893C97.9 193.686 99.306 194.636 102.232 194.636C102.935 194.636 109.3 194.636 110.649 194.636C112.131 194.636 113.575 194.598 114.088 194.465C114.012 194.142 113.917 193.477 113.86 193.097C113.176 193.23 111.713 193.306 110.687 193.306C109.338 193.306 103.315 193.306 102.08 193.306C100.028 193.306 99.287 192.622 99.287 191.007V179.018H97.9ZM125.982 190.418C127.977 189.734 129.269 188.176 129.269 186.124C129.269 184.794 128.699 183.92 127.635 183.92C126.875 183.92 126.191 184.395 126.191 185.288C126.191 186.181 126.837 186.656 127.616 186.656C127.977 186.656 128.357 186.561 128.623 186.219L127.597 184.775L127.958 186.371C127.958 187.815 127.103 188.784 125.545 189.411L125.982 190.418ZM148.573 182.647V191.026H149.922V182.647H148.573ZM152.962 184.376V185.706H157.541V184.376H152.962ZM140.935 178.961V180.253H145.476V178.961H140.935ZM142.208 184.642V185.82H145.647V184.642H142.208ZM152.259 179.664V191.254H153.703V179.664H152.259ZM156.781 178.296C154.691 178.98 150.91 179.455 147.699 179.702C147.851 180.025 148.022 180.557 148.06 180.899C151.328 180.671 155.185 180.215 157.693 179.436L156.781 178.296ZM145.267 184.642V184.889C144.849 189.848 143.215 193.04 140.688 194.427C140.973 194.712 141.334 195.263 141.505 195.624C144.374 193.876 146.065 190.57 146.578 184.775L145.761 184.585L145.514 184.642H145.267ZM142.341 187.131L141.22 187.625C143.348 193.952 147.68 195.092 153.361 195.092H157.959C158.054 194.693 158.301 194.028 158.529 193.686C157.56 193.705 154.159 193.705 153.399 193.705C148.326 193.705 144.108 192.755 142.341 187.131ZM147.072 190.304V191.634H157.997V190.304H147.072ZM141.771 186.333C141.771 186.029 142.797 185.611 142.797 185.611V185.573C144.013 184.015 145.324 181.735 146.464 179.36L145.552 178.771L145.039 178.999V179.094C144.222 181.203 142.854 183.445 142.417 184.015C142.018 184.623 141.543 185.117 141.22 185.193C141.41 185.459 141.676 186.048 141.771 186.333ZM173.349 178.125V195.51H174.755V178.125H173.349ZM168.295 181.051V191.216H169.644V182.362H178.574V191.083H179.961V181.051H168.295ZM169.188 184.984V186.257H179.201V184.984H169.188ZM169.245 188.917V190.228H179.258V188.917H169.245ZM167.136 178.106C166.072 180.994 164.286 183.844 162.405 185.687C162.671 186.01 163.07 186.77 163.222 187.093C165.274 184.965 167.231 181.754 168.485 178.524L167.136 178.106ZM165.16 183.008V195.491H166.528V181.678L166.49 181.659L165.16 183.008ZM185.604 179.094V180.443H201.564V179.094H185.604ZM186.858 188.575V189.924H200.576V188.575H186.858ZM185.186 193.439V194.769H202.172V193.439H185.186ZM192.881 186.124V194.313H194.363V186.124H192.881ZM195.427 182.02C197.175 183.35 199.265 185.288 200.215 186.561L201.45 185.687C200.405 184.395 198.277 182.552 196.548 181.26L195.427 182.02ZM186.934 185.972C186.934 185.649 188.036 185.212 188.036 185.212V185.193C189.632 183.901 191.361 182.001 192.919 179.93L191.342 179.474C190.107 181.355 188.34 183.179 187.789 183.673C187.276 184.167 186.839 184.49 186.459 184.547C186.611 184.927 186.858 185.649 186.934 185.972ZM186.934 185.972C187.637 185.725 188.701 185.687 199.455 185.174C199.379 184.889 199.246 184.338 199.208 183.958L187.941 184.414L186.915 184.927L186.934 185.972ZM217.79 188.803C219.291 190.836 221.134 193.648 222.008 195.396L223.433 194.617C222.521 192.926 220.697 190.228 219.139 188.195L217.79 188.803ZM212.204 178.6C211.026 181.488 209.031 184.3 206.884 186.067C207.264 186.333 207.891 186.922 208.157 187.226C210.285 185.269 212.394 182.21 213.762 179.075L212.204 178.6ZM209.278 194.598C209.278 194.237 210.437 193.762 210.437 193.762V193.724C212.736 191.349 215.035 187.948 216.935 184.547L215.339 183.863C213.743 187.112 211.273 190.532 210.494 191.406C209.772 192.299 209.221 192.926 208.708 193.059C208.917 193.477 209.183 194.275 209.278 194.598ZM209.278 194.598C210.019 194.294 211.102 194.237 221.818 193.515C221.723 193.192 221.571 192.584 221.495 192.166L210.285 192.812L209.24 193.382L209.278 194.598ZM217.866 178.505V179.36H218.246C219.253 182.457 221.21 185.497 223.509 187.226C223.775 186.789 224.288 186.181 224.63 185.896C222.388 184.414 220.469 181.545 219.557 178.505H217.866ZM214.921 178.505V179.968H219.082V178.505H214.921ZM232.078 183.692V184.604H243.307V183.692H232.078ZM233.199 181.602V182.514H242.319V181.602H233.199ZM236.999 180.557V184.243H238.329V180.557H236.999ZM236.809 187.644C235.65 188.556 233.484 189.278 231.603 189.734C231.831 189.943 232.211 190.38 232.344 190.57C234.244 190.038 236.524 189.107 237.816 188.005L236.809 187.644ZM242.338 188.575C241.692 189.069 240.552 189.772 239.716 190.209L240.476 190.703C241.331 190.342 242.414 189.772 243.269 189.164L242.338 188.575ZM234.51 186.086H240.932V187.416H234.51V186.086ZM233.294 185.326V188.176H242.186V185.326H233.294ZM229.798 178.866V195.529H231.147V180.177H244.276V195.529H245.682V178.866H229.798ZM230.634 193.42V194.712H245.055V193.42H230.634ZM237.246 189.107C239.051 190.152 241.293 191.691 242.376 192.679L243.345 192.033C242.148 191.045 239.887 189.544 238.139 188.556L237.246 189.107ZM234.054 193.23C234.339 193.04 234.833 192.888 238.367 191.9C238.329 191.691 238.329 191.273 238.348 190.988L234.529 191.919L233.997 192.356L234.054 193.23ZM234.054 193.23C234.054 192.831 235.498 192.261 235.498 192.261V189.031L234.396 189.012V191.311C234.396 191.995 233.921 192.223 233.655 192.337C233.788 192.546 233.978 192.964 234.054 193.23ZM253.833 182.248C254.27 182.951 254.688 183.939 254.859 184.585L256.132 184.186C255.942 183.54 255.505 182.59 255.03 181.906L253.833 182.248ZM251.135 184.566V185.782H258.526V184.566H251.135ZM253.947 187.587V188.784H257.12V187.587H253.947ZM258.868 190V191.178H268.216V190H258.868ZM260.578 182.305C260.046 183.92 259.134 185.535 258.089 186.599C258.393 186.789 258.925 187.169 259.153 187.397C260.179 186.219 261.205 184.414 261.832 182.647L260.578 182.305ZM253.453 185.136C253.339 189.012 253.035 192.66 250.869 194.636C251.211 194.845 251.629 195.282 251.838 195.586C254.213 193.363 254.612 189.43 254.764 185.136H253.453ZM256.664 187.587V187.815C256.531 192.204 256.398 193.743 256.132 194.104C256.018 194.275 255.847 194.313 255.619 194.313C255.372 194.313 254.802 194.294 254.156 194.237C254.346 194.579 254.479 195.111 254.498 195.472C255.201 195.51 255.866 195.51 256.265 195.453C256.721 195.415 257.025 195.282 257.291 194.94C257.709 194.408 257.842 192.755 257.994 188.157C257.994 187.967 258.013 187.587 258.013 187.587H256.664ZM260.673 183.977L260.008 185.174H268.235V183.977H260.673ZM261.281 185.402C260.844 186.789 260.103 188.138 259.191 189.107C259.495 189.259 260.008 189.62 260.255 189.829C261.129 188.803 261.984 187.226 262.516 185.706L261.281 185.402ZM261.414 186.941L260.654 188.119H267.779V186.941H261.414ZM262.858 187.378V189.62C262.858 191.14 262.497 193.23 258.526 194.579C258.83 194.826 259.229 195.282 259.4 195.567C263.561 193.952 264.226 191.558 264.226 189.639V187.378H262.858ZM253.567 179.455V180.576H259.571V179.455H253.567ZM261.528 179.493V180.614H268.349V179.493H261.528ZM253.795 177.973C253.168 179.569 252.085 181.146 250.907 182.21C251.211 182.438 251.724 182.875 251.952 183.122C253.149 181.944 254.346 180.139 255.068 178.315L253.795 177.973ZM261.794 177.973C261.3 179.512 260.35 181.013 259.229 181.982C259.571 182.153 260.122 182.533 260.388 182.761C261.471 181.697 262.535 180.025 263.124 178.277L261.794 177.973ZM255.011 181.412C255.828 181.925 256.873 182.704 257.386 183.217L258.146 182.267C257.633 181.792 256.569 181.07 255.752 180.595L255.011 181.412ZM263.485 181.412C264.359 181.906 265.461 182.628 266.031 183.103L266.772 182.172C266.183 181.735 265.043 181.07 264.207 180.595L263.485 181.412ZM264.074 192.166C265.29 193.192 266.829 194.617 267.589 195.491L268.501 194.598C267.741 193.762 266.183 192.394 264.967 191.406L264.074 192.166ZM278.267 180.139V181.412H290.389V180.139H278.267ZM284.48 181.83C283.948 183.692 283.036 185.554 281.972 186.789C282.238 186.96 282.694 187.378 282.903 187.568C283.986 186.2 284.993 184.167 285.62 182.115L284.48 181.83ZM284.632 183.958H284.385L283.473 185.022V195.301H284.632V185.098H290.218V183.958H284.632ZM284.081 187.017V188.062H289.895V187.017H284.081ZM284.081 189.943V190.969H289.819V189.943H284.081ZM284.005 193.192V194.332H290.446V193.192H284.005ZM286.684 184.547V193.705H287.843V184.547H286.684ZM281.953 187.948C281.421 190.912 279.977 193.135 277.583 194.503C277.849 194.693 278.248 195.13 278.419 195.377C280.889 193.857 282.39 191.387 283.017 188.138L281.953 187.948ZM278.362 191.178C278.362 190.912 279.217 190.532 279.217 190.532V190.494C280.452 188.917 281.687 186.656 282.637 184.509L281.554 183.92C280.775 186.086 279.426 188.385 279.008 188.955C278.628 189.563 278.305 189.981 277.982 190.057C278.115 190.361 278.305 190.931 278.362 191.178ZM278.362 191.178C278.647 190.969 279.16 190.798 282.143 189.981C282.105 189.715 282.067 189.202 282.067 188.86L278.837 189.62L278.286 190.095L278.362 191.178ZM278.267 186.884C278.267 186.618 278.989 186.238 278.989 186.238V186.2C279.711 185.155 280.509 183.635 281.022 182.172L279.863 181.64C279.502 183.084 278.761 184.604 278.533 184.984C278.324 185.402 278.096 185.668 277.868 185.725C278.001 186.029 278.21 186.637 278.267 186.884ZM278.267 186.884C278.552 186.751 279.046 186.637 281.573 186.314C281.554 186.029 281.611 185.516 281.649 185.174L278.894 185.44L278.248 185.858L278.267 186.884ZM282.808 178.543C283.245 179.265 283.72 180.253 283.872 180.899L284.993 180.424C284.784 179.797 284.328 178.828 283.834 178.125L282.808 178.543ZM286.38 182.286C286.798 183.008 287.197 183.996 287.368 184.623L288.413 184.205C288.242 183.597 287.805 182.628 287.368 181.925L286.38 182.286ZM273.042 188.119L273.441 189.487C274.828 188.974 276.519 188.29 278.134 187.663L277.887 186.371C276.082 187.036 274.277 187.72 273.042 188.119ZM273.232 181.868V183.198H277.982V181.868H273.232ZM275.189 178.049V193.781C275.189 194.028 275.113 194.085 274.885 194.085C274.676 194.104 274.011 194.104 273.251 194.085C273.422 194.465 273.593 195.016 273.65 195.358C274.752 195.358 275.417 195.32 275.854 195.111C276.291 194.883 276.443 194.503 276.443 193.781V178.049H275.189ZM296.849 181.089V182.362H301.295V192.223H296.849V193.515H302.625V181.089H296.849ZM295.994 181.089V195.035H297.324V181.089H295.994ZM296.754 186.371V187.644H301.998V186.371H296.754ZM298.901 177.992C298.749 178.98 298.388 180.424 298.065 181.336L299.205 181.621C299.585 180.766 300.06 179.455 300.44 178.277L298.901 177.992ZM305.323 181.032V182.362H311.156V181.032H305.323ZM310.662 181.032V181.336C310.396 189.715 310.092 192.869 309.465 193.553C309.256 193.8 309.028 193.857 308.648 193.857C308.211 193.857 307.071 193.838 305.836 193.743C306.102 194.123 306.273 194.712 306.311 195.13C307.375 195.187 308.496 195.225 309.142 195.149C309.807 195.092 310.244 194.921 310.662 194.37C311.422 193.439 311.688 190.494 311.992 181.773C311.992 181.564 311.992 181.032 311.992 181.032H310.662ZM305.722 177.954C305.114 180.595 304.069 183.217 302.777 184.889C303.119 185.079 303.708 185.478 303.955 185.706C305.266 183.901 306.387 181.108 307.09 178.277L305.722 177.954ZM304.848 185.972C305.893 187.359 307.166 189.24 307.736 190.399L308.952 189.639C308.344 188.518 307.033 186.675 305.95 185.326L304.848 185.972ZM323.772 181.26V182.761H333.652V181.26H323.772ZM322.67 192.641V194.142H334.488V192.641H322.67ZM319.915 183.217V195.472H321.34V181.83L321.321 181.792L319.915 183.217ZM321.986 178.087C320.865 181.07 319.022 183.958 317.046 185.839C317.331 186.181 317.787 186.941 317.939 187.283C320.067 185.117 322.081 181.811 323.392 178.524L321.986 178.087ZM344.653 179.607V180.785H356.585V179.607H344.653ZM344.463 188.138V189.316H356.699V188.138H344.463ZM349.251 189.81C349.726 190.57 350.334 191.634 350.619 192.261L351.721 191.786C351.436 191.197 350.809 190.171 350.296 189.43L349.251 189.81ZM347.275 190.779V193.648C347.275 194.921 347.674 195.263 349.289 195.263C349.631 195.263 351.759 195.263 352.082 195.263C353.374 195.263 353.754 194.788 353.887 192.774C353.526 192.698 353.013 192.527 352.747 192.337C352.69 193.933 352.576 194.142 351.949 194.142C351.493 194.142 349.745 194.142 349.422 194.142C348.681 194.142 348.548 194.047 348.548 193.648V190.779H347.275ZM345.413 190.665C345.071 191.805 344.463 193.306 343.703 194.199L344.824 194.826C345.584 193.838 346.135 192.299 346.534 191.083L345.413 190.665ZM353.678 190.893C354.457 192.071 355.236 193.648 355.559 194.617L356.718 194.104C356.357 193.135 355.521 191.596 354.761 190.456L353.678 190.893ZM352.652 183.236H354.685V185.82H352.652V183.236ZM349.612 183.236H351.607V185.82H349.612V183.236ZM346.629 183.236H348.548V185.82H346.629V183.236ZM345.489 182.153V186.903H355.882V182.153H345.489ZM349.935 177.973C349.84 179.303 349.574 181.241 349.327 182.438L350.657 182.552C350.923 181.431 351.189 179.607 351.417 178.049L349.935 177.973ZM343.399 182.172C342.297 184.319 340.587 186.58 338.972 188.043C339.238 188.347 339.675 189.031 339.827 189.316C341.537 187.625 343.418 185.041 344.691 182.628L343.399 182.172ZM343.057 178.049C342.164 179.398 340.473 181.127 339.086 182.229C339.314 182.514 339.656 183.065 339.808 183.369C341.347 182.096 343.152 180.196 344.349 178.581L343.057 178.049ZM341.765 185.725V195.529H343.114V185.25L342.43 185.041L341.765 185.725ZM368.422 190.418C370.417 189.734 371.709 188.176 371.709 186.124C371.709 184.794 371.139 183.92 370.075 183.92C369.315 183.92 368.631 184.395 368.631 185.288C368.631 186.181 369.277 186.656 370.056 186.656C370.417 186.656 370.797 186.561 371.063 186.219L370.037 184.775L370.398 186.371C370.398 187.815 369.543 188.784 367.985 189.411L368.422 190.418ZM385.75 185.155V186.485H390.481V185.155H385.75ZM389.911 185.155V185.402C389.854 189.506 389.759 190.931 389.474 191.273C389.341 191.444 389.151 191.463 388.885 191.463C388.562 191.463 387.726 191.463 386.871 191.387C387.08 191.748 387.232 192.299 387.27 192.717C388.201 192.755 389.056 192.774 389.55 192.717C390.082 192.66 390.386 192.527 390.69 192.185C391.089 191.653 391.203 190.057 391.298 185.763C391.298 185.573 391.298 185.155 391.298 185.155H389.911ZM395.269 178.999C396.466 179.626 397.929 180.595 398.651 181.26L399.544 180.291C398.803 179.626 397.302 178.714 396.124 178.106L395.269 178.999ZM397.986 184.148C396.561 188.727 393.882 192.204 390.025 194.256C390.329 194.541 390.861 195.13 391.07 195.415C394.965 193.116 397.796 189.449 399.411 184.49L397.986 184.148ZM385.864 181.26V182.666H400.57V181.26H385.864ZM384.952 181.26V186.599C384.952 189.088 384.781 192.356 383.204 194.693C383.546 194.864 384.154 195.358 384.401 195.643C386.13 193.154 386.434 189.316 386.434 186.618V181.26H384.952ZM392.837 178.068C392.913 187.169 394.623 195.377 398.499 195.377C399.943 195.377 400.475 194.446 400.741 191.197C400.361 191.064 399.829 190.741 399.506 190.418C399.392 192.945 399.145 193.933 398.613 193.933C396.143 193.933 394.281 186.808 394.319 178.068H392.837ZM405.567 179.474V180.5H414.307V179.474H405.567ZM414.459 180.918V182.153H420.387V180.918H414.459ZM406.194 185.098V186.067H412.749V185.098H406.194ZM407.923 182.172H412.179V183.445H407.923V182.172ZM406.726 181.279V184.319H413.433V181.279H406.726ZM412.388 185.098V185.326C411.742 185.82 410.507 186.371 409.443 186.713C409.633 186.846 409.937 187.188 410.089 187.397C411.305 186.998 412.711 186.371 413.699 185.668L412.939 185.041L412.692 185.098H412.388ZM409.443 186.694V189.905C409.443 190.095 409.386 190.152 409.158 190.171C408.911 190.19 408.189 190.19 407.258 190.152C407.429 190.456 407.619 190.855 407.676 191.197C408.873 191.197 409.652 191.197 410.127 191.026C410.621 190.836 410.754 190.57 410.754 189.924V186.694H409.443ZM405.548 187.91L405.662 188.993C407.866 188.86 411.02 188.67 414.079 188.461L414.098 187.454C410.925 187.644 407.676 187.815 405.548 187.91ZM419.627 180.918C419.646 187.72 419.589 191.159 421.641 191.159C422.629 191.159 422.876 190.418 423.009 188.176C422.743 188.005 422.363 187.644 422.116 187.359C422.097 188.765 422.021 189.905 421.736 189.905C420.9 189.905 420.919 186.713 420.957 180.918H419.627ZM414.079 184.756C415.732 185.839 417.689 187.454 418.601 188.594L419.342 187.492C418.43 186.39 416.435 184.832 414.782 183.806L414.079 184.756ZM411.058 192.128C411.267 193.173 411.4 194.522 411.4 195.358L412.825 195.168C412.806 194.37 412.616 193.059 412.369 192.014L411.058 192.128ZM415.01 192.09C415.447 193.135 415.903 194.484 416.036 195.339L417.461 195.035C417.29 194.218 416.815 192.869 416.34 191.862L415.01 192.09ZM418.924 191.976C419.703 193.059 420.558 194.503 420.919 195.415L422.306 194.978C421.907 194.066 421.014 192.641 420.235 191.615L418.924 191.976ZM407.828 191.653C407.372 192.85 406.555 194.161 405.738 194.902L407.03 195.434C407.904 194.579 408.683 193.192 409.158 191.976L407.828 191.653ZM416.511 178.03V182.267C416.511 184.946 416.093 188.062 412.73 190.475C413.034 190.703 413.452 191.064 413.68 191.349C417.271 188.765 417.784 185.402 417.784 182.267V178.03H416.511ZM408.968 178.277C409.31 178.828 409.633 179.55 409.747 180.025L411.077 179.607C410.925 179.151 410.583 178.448 410.222 177.954L408.968 178.277ZM427.512 181.716V183.027H432.3V181.716H427.512ZM429.526 178.03V195.491H430.78V178.03H429.526ZM429.507 182.495C429.089 185.117 428.101 188.347 427.094 190.019C427.303 190.38 427.607 191.007 427.759 191.425C428.842 189.525 429.83 185.782 430.267 182.818L429.507 182.495ZM430.666 184.11L430.096 184.68C430.476 185.364 431.483 187.378 431.806 188.252L432.509 187.188C432.224 186.694 431.008 184.585 430.666 184.11ZM432.699 187.853V189.012H444.384V187.853H432.699ZM434.371 190.38C435.321 191.14 436.518 192.223 437.126 192.888L438 192.033C437.392 191.387 436.157 190.361 435.226 189.639L434.371 190.38ZM440.584 186.637C441.268 187.074 442.104 187.682 442.56 188.1L443.301 187.34C442.864 186.922 441.99 186.352 441.325 185.953L440.584 186.637ZM442.294 189.221C441.211 191.52 438.95 193.42 436.062 194.503C436.328 194.731 436.67 195.168 436.841 195.415C439.805 194.218 442.237 192.242 443.51 189.677L442.294 189.221ZM437.487 178.182C437.81 188.005 438.95 195.225 443.187 195.51C443.966 195.548 444.555 194.864 444.935 192.755C444.669 192.641 444.194 192.299 443.966 192.033C443.795 193.42 443.548 194.142 443.149 194.104C440.128 193.838 438.912 187.207 438.703 178.182H437.487ZM435.815 183.901C436.195 184.832 436.575 186.048 436.727 186.808L437.677 186.466C437.525 185.763 437.126 184.566 436.708 183.654L435.815 183.901ZM432.927 183.388C432.927 183.122 433.611 182.78 433.611 182.78V182.761C434.409 181.754 435.302 180.196 435.967 178.676L434.903 178.334C434.428 179.778 433.554 181.26 433.288 181.64C433.041 182.02 432.794 182.267 432.585 182.324C432.699 182.609 432.87 183.141 432.927 183.388ZM432.927 183.388C433.155 183.255 433.592 183.16 435.777 182.875C435.834 182.647 435.986 182.21 436.138 181.925L433.459 182.191L432.908 182.552L432.927 183.388ZM433.098 186.637C433.098 186.39 433.744 186.029 433.744 186.029V186.01C434.941 184.794 436.214 182.97 437.278 181.108L436.214 180.709C435.416 182.457 434.105 184.262 433.706 184.699C433.364 185.174 433.041 185.516 432.756 185.573C432.87 185.839 433.041 186.409 433.098 186.637ZM433.098 186.637C433.364 186.485 433.858 186.39 436.993 185.953C436.898 185.725 436.784 185.307 436.746 185.022L433.592 185.421L433.06 185.763L433.098 186.637ZM442.636 183.559C443.035 184.49 443.472 185.744 443.643 186.485L444.574 186.143C444.384 185.421 443.947 184.205 443.529 183.312L442.636 183.559ZM439.729 183.008C439.729 182.742 440.394 182.4 440.394 182.4V182.362C441.116 181.45 441.914 180.044 442.484 178.638L441.42 178.296C441.021 179.588 440.242 180.956 440.033 181.317C439.805 181.659 439.596 181.906 439.387 181.925C439.52 182.229 439.672 182.761 439.729 183.008ZM439.729 183.008C439.957 182.875 440.375 182.78 442.465 182.514C442.541 182.286 442.693 181.849 442.826 181.564L440.261 181.811L439.729 182.153V183.008ZM439.938 186.276C439.938 186.029 440.603 185.649 440.603 185.649V185.63C441.762 184.395 442.997 182.552 443.985 180.69L442.883 180.272C442.142 182.02 440.888 183.844 440.508 184.3C440.166 184.775 439.862 185.098 439.577 185.155C439.691 185.459 439.881 186.048 439.938 186.276ZM439.938 186.276C440.204 186.124 440.679 186.029 443.795 185.554C443.738 185.326 443.624 184.946 443.567 184.661L440.432 185.06L439.9 185.402L439.938 186.276ZM434.143 188.29V189.259C434.143 190.874 433.668 193.059 431.426 194.674C431.711 194.845 432.186 195.282 432.376 195.529C434.77 193.743 435.378 191.197 435.378 189.297V188.29H434.143ZM456.012 184.794V193.971C456.012 194.218 455.955 194.294 455.689 194.294C455.423 194.294 454.625 194.313 453.732 194.275C453.903 194.617 454.112 195.111 454.188 195.453C455.385 195.453 456.202 195.434 456.715 195.244C457.209 195.035 457.361 194.693 457.361 193.971V184.794H456.012ZM451.395 184.794V186.029H456.734V184.794H451.395ZM459.109 186.903V193.344C459.109 194.921 459.603 195.358 461.446 195.358C461.845 195.358 464.41 195.358 464.847 195.358C466.424 195.358 466.842 194.693 467.013 192.204C466.633 192.128 466.063 191.9 465.74 191.672C465.645 193.743 465.512 194.085 464.733 194.085C464.144 194.085 461.997 194.085 461.598 194.085C460.686 194.085 460.515 193.971 460.515 193.325V186.903H459.109ZM454.986 179.873C455.917 181.222 456.981 183.065 457.418 184.205L458.634 183.654C458.159 182.533 457.076 180.728 456.145 179.417L454.986 179.873ZM459.926 180.69V181.944H465.664V180.69H459.926ZM459.945 189.183V190.475H465.873V189.183H459.945ZM450.502 183.616C450.502 183.331 451.395 182.894 451.395 182.894V182.875C452.573 181.811 453.884 180.158 454.929 178.505L453.485 178.03C452.687 179.569 451.433 181.108 451.034 181.526C450.654 181.944 450.35 182.21 450.046 182.267C450.198 182.628 450.426 183.331 450.502 183.616ZM450.502 183.616C450.958 183.426 451.68 183.331 457.456 182.837C457.361 182.552 457.247 182.058 457.19 181.697L451.224 182.096L450.464 182.552L450.502 183.616ZM450.711 184.794V189.468C450.711 191.102 450.597 193.097 449.514 194.56C449.799 194.75 450.312 195.263 450.502 195.548C451.813 193.876 452.041 191.368 452.041 189.487V184.794H450.711ZM451.851 191.919L452.364 193.135C453.656 192.413 455.195 191.501 456.696 190.608L456.411 189.677C454.739 190.532 453.01 191.406 451.851 191.919ZM452.193 187.834C453.219 188.442 454.549 189.335 455.214 189.905L455.974 189.088C455.29 188.556 453.96 187.72 452.934 187.112L452.193 187.834ZM459.109 178.049V184.053C459.109 185.687 459.584 186.257 461.275 186.257C461.655 186.257 464.277 186.257 464.847 186.257C465.531 186.257 466.215 186.238 466.538 186.162C466.481 185.82 466.424 185.288 466.386 184.908C466.025 185.003 465.265 185.022 464.809 185.022C464.239 185.022 461.826 185.022 461.294 185.022C460.667 185.022 460.515 184.794 460.515 184.091V178.049H459.109ZM478.926 180.424V181.678H487.78V180.424H478.926ZM476.722 184.11V185.345H488.521V184.11H476.722ZM479.344 178.296C478.774 180.063 477.805 181.811 476.646 182.97C476.988 183.122 477.558 183.445 477.843 183.654C478.926 182.4 479.99 180.519 480.636 178.581L479.344 178.296ZM482.042 178.049V184.908H483.448V178.049H482.042ZM472.257 178.695C473.093 179.626 474.157 180.956 474.67 181.754L475.772 180.975C475.24 180.196 474.195 178.98 473.321 178.068L472.257 178.695ZM471.573 182.419V183.616H475.62V182.419H471.573ZM474.955 191.14L474.005 191.577C475.43 194.712 477.919 195.244 482.365 195.244C484.455 195.244 486.849 195.187 488.635 195.092C488.711 194.693 488.901 194.028 489.11 193.724C487.172 193.876 484.379 193.971 482.384 193.971C478.603 193.971 476.133 193.629 474.955 191.14ZM475.145 187.169V187.416C474.613 190.893 473.188 193.287 471.193 194.579C471.478 194.788 471.953 195.263 472.143 195.567C474.233 194.123 475.791 191.444 476.437 187.397L475.715 187.131L475.487 187.169H475.145ZM471.839 188.594C471.972 188.442 472.466 188.328 472.96 188.328H475.582V187.169H472.523L471.839 187.511V188.594ZM471.839 188.594C471.839 188.233 472.903 187.701 472.903 187.701C473.967 186.485 475.677 184.034 476.551 182.742L475.62 182.343L475.183 182.514L475.202 182.571C474.575 183.578 472.789 186.162 472.2 186.732C471.896 187.112 471.592 187.245 471.307 187.321C471.459 187.606 471.744 188.271 471.839 188.594ZM479.61 188.043H485.823V191.102H479.61V188.043ZM478.223 186.846V192.299H487.248V186.846H478.223ZM496.007 184.338H500.301V186.618H496.007V184.338ZM494.753 183.179V187.796H501.631V183.179H494.753ZM493.727 180.386V181.659H502.41V180.386H493.727ZM502.6 182.97V184.262H510.827V182.97H502.6ZM506.419 185.782V193.002C506.419 194.199 506.533 194.503 506.856 194.75C507.141 194.978 507.616 195.073 508.034 195.073C508.262 195.073 508.965 195.073 509.25 195.073C509.592 195.073 510.067 195.035 510.333 194.883C510.618 194.75 510.827 194.503 510.941 194.123C511.055 193.743 511.131 192.755 511.15 191.881C510.789 191.767 510.295 191.539 510.029 191.292C510.01 192.261 509.991 193.04 509.934 193.344C509.896 193.667 509.801 193.838 509.668 193.895C509.554 193.952 509.326 193.971 509.117 193.971C508.87 193.971 508.471 193.971 508.281 193.971C508.091 193.971 507.939 193.952 507.825 193.876C507.711 193.8 507.673 193.572 507.673 193.154V185.782H506.419ZM505.241 178.087C505.203 183.654 505.222 191.007 501.004 194.693C501.384 194.902 501.821 195.244 502.049 195.529C506.4 191.577 506.552 183.977 506.59 178.087H505.241ZM497.622 187.416V193.971C497.622 194.161 497.565 194.218 497.356 194.218C497.166 194.237 496.539 194.237 495.855 194.218C496.026 194.541 496.235 195.054 496.273 195.396C497.28 195.415 497.907 195.377 498.344 195.187C498.8 194.978 498.914 194.636 498.914 193.99V187.416H497.622ZM495.418 188.803C495.038 190.361 494.449 191.938 493.651 193.021C493.936 193.173 494.449 193.515 494.677 193.705C495.475 192.565 496.178 190.779 496.615 189.05L495.418 188.803ZM499.674 189.05C500.263 190.095 500.833 191.501 501.023 192.432L502.125 191.919C501.916 191.007 501.308 189.62 500.7 188.575L499.674 189.05ZM507.312 179.474C508.072 180.348 508.889 181.545 509.231 182.324L510.238 181.697C509.896 180.918 509.041 179.759 508.281 178.923L507.312 179.474ZM496.919 178.315C497.356 179.151 497.793 180.291 497.964 180.994L499.332 180.633C499.161 179.949 498.686 178.828 498.23 178.011L496.919 178.315ZM519.434 183.559V194.351H520.802V184.813H527.528V194.351H528.972V183.559H519.434ZM515.805 193.686V194.997H532.677V193.686H515.805ZM519.985 186.865V188.081H528.459V186.865H519.985ZM519.985 190.228V191.444H528.459V190.228H519.985ZM516.337 180.253V184.262H517.724V181.564H530.739V184.262H532.202V180.253H516.337ZM522.987 178.277C523.386 178.961 523.804 179.892 523.956 180.481L525.381 180.101C525.229 179.493 524.792 178.6 524.355 177.935L522.987 178.277ZM539.536 179.056V184.604C539.536 187.625 539.365 191.824 537.408 194.788C537.769 194.94 538.396 195.301 538.662 195.548C540.695 192.451 540.961 187.796 540.961 184.604V179.056H539.536ZM540.467 179.056V180.329H552.114V182.438H540.467V183.711H553.539V179.056H540.467ZM540.429 185.82V187.131H554.641V185.82H540.429ZM543.146 193.572V194.845H552.532V193.572H543.146ZM547.041 183.616V189.829H548.447V183.616H547.041ZM542.405 189.354V195.51H543.792V190.627H551.791V195.472H553.216V189.354H542.405ZM99.344 227.322V243.301H100.807V228.766H110.288V243.225H111.789V227.322H99.344ZM100.313 233.915V235.321H110.915V233.915H100.313ZM100.294 240.641V242.066H110.953V240.641H100.294ZM127.046 235.283V243.529H128.49V235.283H127.046ZM123.987 232.68H131.169V234.523H123.987V232.68ZM122.6 231.597V235.625H132.632V231.597H122.6ZM120.909 237.202V242.655H122.334V238.494H133.639V237.202H120.909ZM132.936 237.202V241.173C132.936 241.382 132.841 241.458 132.556 241.477C132.252 241.496 131.226 241.496 130.086 241.458C130.295 241.838 130.504 242.37 130.58 242.75C132.062 242.75 133.031 242.75 133.639 242.522C134.228 242.313 134.38 241.914 134.38 241.173V237.202H132.936ZM126.913 226.03V229.488H128.376V226.03H126.913ZM119.655 228.975V233.079H121.042V230.248H134.114V233.079H135.539V228.975H119.655ZM121.232 226.733C121.821 227.436 122.467 228.424 122.752 229.07L124.12 228.443C123.797 227.816 123.132 226.904 122.505 226.22L121.232 226.733ZM132.518 226.182C132.157 226.866 131.454 227.892 130.922 228.519L132.081 228.994C132.651 228.405 133.373 227.531 134 226.695L132.518 226.182ZM148.022 238.418C150.017 237.734 151.309 236.176 151.309 234.124C151.309 232.794 150.739 231.92 149.675 231.92C148.915 231.92 148.231 232.395 148.231 233.288C148.231 234.181 148.877 234.656 149.656 234.656C150.017 234.656 150.397 234.561 150.663 234.219L149.637 232.775L149.998 234.371C149.998 235.815 149.143 236.784 147.585 237.411L148.022 238.418ZM163.488 228.652V229.868H179.771V228.652H163.488ZM163.184 234.352V235.568H180.094V234.352H163.184ZM168.58 237.829C167.364 239.577 164.97 241.268 162.842 242.085C163.165 242.351 163.564 242.845 163.792 243.187C165.977 242.218 168.409 240.337 169.739 238.323L168.58 237.829ZM174.318 237.753L173.254 238.19C174.698 240.166 177.263 242.123 179.467 243.111C179.676 242.75 180.113 242.218 180.417 241.952C178.232 241.154 175.667 239.444 174.318 237.753ZM168.827 229.336V243.51H170.195V229.336H168.827ZM172.836 229.336V243.51H174.204V229.336H172.836ZM164.799 231.578V232.699H176.788V237.392H164.628V238.532H178.175V231.578H164.799ZM166.034 226.581C166.813 227.303 167.706 228.291 168.067 228.956L169.416 228.291C168.979 227.626 168.086 226.657 167.307 225.992L166.034 226.581ZM175.838 226.011C175.344 226.885 174.451 228.12 173.729 228.88L174.983 229.355C175.705 228.633 176.598 227.55 177.358 226.505L175.838 226.011ZM185.186 238.608V239.862H202.153V238.608H185.186ZM186.972 235.15V236.309H198.961V235.15H186.972ZM192.881 237.468V242.028C192.881 242.294 192.767 242.37 192.425 242.389C192.102 242.408 190.791 242.408 189.499 242.37C189.689 242.712 189.917 243.187 189.993 243.548C191.703 243.548 192.805 243.567 193.47 243.377C194.135 243.187 194.363 242.845 194.363 242.066V237.468H192.881ZM198.638 235.15V235.435C197.384 236.195 194.952 237.012 192.881 237.468C193.09 237.677 193.432 238.038 193.603 238.304C195.94 237.791 198.486 236.917 200.31 235.891L199.341 235.074L199.037 235.15H198.638ZM189.176 231.217H198.163V232.927H189.176V231.217ZM187.77 230.153V233.991H199.645V230.153H187.77ZM185.357 227.702V228.937H201.906V227.702H185.357ZM192.349 226.182C192.729 226.923 193.128 227.911 193.299 228.538L194.781 228.215C194.629 227.588 194.192 226.619 193.774 225.897L192.349 226.182ZM218.797 237.373C220.089 238.304 221.799 239.653 222.616 240.451L223.604 239.786C222.73 238.969 221.02 237.677 219.728 236.803L218.797 237.373ZM218.208 240.85C219.823 241.439 221.856 242.389 222.863 243.092L223.946 242.256C222.863 241.553 220.792 240.641 219.215 240.128L218.208 240.85ZM211.805 240.223C210.665 241.021 208.841 241.762 207.207 242.237C207.53 242.465 208.024 242.959 208.252 243.206C209.848 242.617 211.786 241.686 213.059 240.717L211.805 240.223ZM218.17 226.011C217.733 227.607 216.897 229.07 215.776 230.039C216.061 230.248 216.536 230.704 216.726 230.932C217.904 229.811 218.873 228.101 219.424 226.258L218.17 226.011ZM221.742 228.082C220.963 230.989 218.854 232.794 215.89 233.82C216.137 234.048 216.555 234.542 216.688 234.808C219.747 233.573 222.046 231.578 222.977 228.272L221.742 228.082ZM218.056 227.588L217.467 228.652H224.212V227.588H218.056ZM209.373 225.973C208.841 227.17 207.91 228.31 206.846 229.089C207.15 229.241 207.663 229.564 207.891 229.754C208.898 228.918 209.943 227.607 210.551 226.239L209.373 225.973ZM209.335 226.961L208.86 227.892H216.023V226.961H209.335ZM218.322 228.519L217.258 228.804C218.379 231.844 220.602 234.086 223.642 235.093C223.832 234.751 224.193 234.276 224.478 234.029C221.514 233.212 219.329 231.179 218.322 228.519ZM208.822 228.652C208.689 230.362 208.404 232.68 208.157 234.086H209.24C209.468 232.718 209.753 230.419 209.905 228.652H208.822ZM209.183 228.652V229.488H214.598V228.652H209.183ZM208.708 233.231V234.086H215.909V233.231H208.708ZM210.969 229.868C211.577 230.191 212.356 230.647 212.755 230.97L213.23 230.362C212.812 230.077 212.033 229.64 211.425 229.355L210.969 229.868ZM210.646 232.072C211.292 232.433 212.109 232.965 212.527 233.288L213.021 232.718C212.584 232.395 211.767 231.901 211.159 231.578L210.646 232.072ZM207.074 230.875V231.749H209.031V231.673H214.351V231.749H216.403V230.875H214.351V230.932H209.031V230.875H207.074ZM208.594 240.204C208.594 239.957 209.449 239.729 209.449 239.729V239.672C212.869 238.836 216.346 237.658 219.633 236.024L218.854 235.15C215.89 236.727 211.919 238.114 210.76 238.437C209.715 238.798 208.86 239.007 208.29 239.045C208.404 239.368 208.556 239.957 208.594 240.204ZM208.594 240.204C209.221 239.976 210.209 239.919 221.552 239.197C221.476 238.969 221.362 238.551 221.305 238.266L209.43 238.95L208.575 239.387L208.594 240.204ZM209.829 237.639C209.829 237.392 210.684 237.107 210.684 237.107V237.069C212.546 236.651 214.484 236.024 216.308 235.131L215.453 234.333C213.8 235.264 211.653 236.024 211.007 236.195C210.418 236.385 209.924 236.461 209.506 236.499C209.639 236.822 209.791 237.392 209.829 237.639ZM209.829 237.639C210.209 237.506 210.855 237.449 216.308 237.259C216.365 237.05 216.479 236.613 216.593 236.347L210.532 236.499L209.829 236.841V237.639ZM215.111 238.874V242.123C215.111 242.332 215.035 242.389 214.75 242.408C214.484 242.446 213.553 242.446 212.451 242.389C212.641 242.731 212.869 243.206 212.945 243.567C214.294 243.567 215.206 243.567 215.776 243.377C216.346 243.187 216.498 242.845 216.498 242.142V238.874H215.111ZM214.294 228.652V228.842C214.085 232.509 213.838 233.877 213.534 234.238C213.401 234.39 213.268 234.428 213.059 234.428C212.85 234.428 212.375 234.409 211.862 234.352C211.976 234.58 212.052 234.941 212.071 235.15C212.603 235.188 213.154 235.188 213.458 235.169C213.857 235.169 214.18 235.055 214.446 234.77C214.864 234.295 215.13 232.984 215.358 229.146C215.377 228.975 215.396 228.652 215.396 228.652H214.294ZM230.368 236.499V237.753H245.264V236.499H230.368ZM236.999 234.523V243.491H238.424V234.523H236.999ZM229.836 232.775V235.853H231.204V234.029H244.276V235.853H245.701V232.775H229.836ZM236.334 227.037C236.011 227.645 235.403 228.576 234.928 229.146L235.802 229.564C236.315 229.032 236.942 228.253 237.531 227.493L236.334 227.037ZM232.952 230.058C233.978 230.723 235.327 231.692 235.992 232.281L236.961 231.388C236.239 230.818 234.871 229.906 233.864 229.26L232.952 230.058ZM233.218 226.03C233.085 229.336 232.515 230.837 229.152 231.692C229.399 231.92 229.76 232.414 229.874 232.737C233.598 231.711 234.339 229.83 234.51 226.03H233.218ZM244.656 226.999C244.295 227.645 243.592 228.614 243.06 229.222L243.953 229.64C244.523 229.089 245.264 228.272 245.891 227.474L244.656 226.999ZM240.913 229.925C242.262 230.799 244.067 232.053 244.979 232.794L245.891 231.825C244.96 231.103 243.117 229.925 241.806 229.108L240.913 229.925ZM241.16 226.03C241.008 229.146 240.457 230.647 237.284 231.502C237.55 231.749 237.892 232.224 238.025 232.547C241.559 231.502 242.3 229.64 242.452 226.03H241.16ZM234.966 238.589C233.674 239.938 231.166 241.173 228.943 241.724C229.247 242.009 229.684 242.541 229.893 242.902C232.154 242.199 234.719 240.736 236.163 239.064L234.966 238.589ZM239.545 239.349C241.559 240.394 244.067 241.952 245.283 242.997L246.309 242.009C245.036 240.983 242.471 239.482 240.514 238.494L239.545 239.349ZM229.456 227.493C229.988 228.12 230.672 228.956 231.033 229.469L231.907 228.728C231.565 228.253 230.843 227.436 230.311 226.866L229.456 227.493ZM237.721 227.474C238.234 228.063 238.88 228.861 239.222 229.355L240.096 228.614C239.754 228.139 239.089 227.379 238.557 226.828L237.721 227.474ZM262.801 226.999V228.253H266.316V226.999H262.801ZM258.393 227.93V229.146H262.098V227.93H258.393ZM262.972 230.647V231.863H266.259V230.647H262.972ZM262.858 234.219V235.435H266.088V234.219H262.858ZM253.472 230.59V231.806H256.702V230.59H253.472ZM253.567 234.143V235.359H256.759V234.143H253.567ZM265.537 226.999C265.556 230.514 265.385 235.454 265.195 238.247H266.525C266.715 235.492 266.829 230.59 266.867 226.999H265.537ZM256.265 226.144C255.334 226.619 253.909 227.189 252.712 227.607C252.864 227.911 253.035 228.348 253.092 228.633C254.308 228.272 255.79 227.797 256.949 227.303L256.265 226.144ZM257.709 226.163V232.338H261.452V231.179H258.944V226.163H257.709ZM251.154 237.715V239.045H268.406V237.715H251.154ZM261.604 240.261C263.599 241.23 265.708 242.503 267 243.434L267.95 242.351C266.62 241.439 264.416 240.223 262.383 239.273L261.604 240.261ZM256.74 239.349C255.524 240.375 253.225 241.667 251.401 242.408C251.686 242.712 252.047 243.187 252.237 243.491C254.099 242.674 256.398 241.401 257.956 240.204L256.74 239.349ZM252.712 227.607L253.092 238.171H254.384L254.042 227.987L252.712 227.607ZM258.317 233.174C258.146 234.333 257.861 235.492 257.272 236.309C257.538 236.442 258.051 236.746 258.241 236.917C258.83 236.024 259.229 234.694 259.438 233.364L258.317 233.174ZM260.749 231.198V236.252C260.749 236.423 260.692 236.48 260.502 236.48C260.312 236.499 259.742 236.499 259.058 236.48C259.21 236.765 259.362 237.145 259.419 237.449C260.35 237.449 261.015 237.449 261.433 237.278C261.851 237.107 261.965 236.841 261.965 236.252V231.198H260.749ZM276.367 232.851V234.181H287.406V232.851H276.367ZM276.367 236.974V238.304H287.406V236.974H276.367ZM276.367 241.135V242.465H287.406V241.135H276.367ZM275.398 228.633V243.529H276.842V230.001H287.026V243.434H288.508V228.633H275.398ZM280.965 226.011C280.775 226.942 280.357 228.272 280.015 229.165L281.288 229.412C281.706 228.595 282.2 227.36 282.618 226.22L280.965 226.011ZM303.86 230.077V231.426H312.391V230.077H303.86ZM297.989 230.096C299.167 230.932 300.592 232.186 301.295 233.022L302.017 232.11C301.314 231.312 299.851 230.115 298.692 229.298L297.989 230.096ZM308.895 227.056C309.655 227.835 310.51 228.956 310.89 229.659L311.992 228.975C311.593 228.272 310.7 227.208 309.921 226.467L308.895 227.056ZM299.129 225.878C298.426 227.987 296.963 230.514 295.177 232.053C295.367 232.338 295.69 232.908 295.804 233.231C297.875 231.483 299.509 228.766 300.459 226.258L299.129 225.878ZM302.777 227.74V228.025C301.808 233.003 299.015 236.043 295.443 237.544C295.747 237.772 296.241 238.323 296.412 238.646C300.098 236.974 303.024 233.63 304.183 228.044L303.328 227.683L303.043 227.74H302.777ZM299.338 227.74L298.597 228.918H303.271V227.74H299.338ZM307.014 226.258V228.348C307.014 230.989 306.558 234.96 302.074 237.962C302.416 238.209 302.91 238.608 303.138 238.893C307.831 235.739 308.382 231.426 308.382 228.367V226.258H307.014ZM300.896 239.843C301.124 240.983 301.276 242.465 301.295 243.358L302.682 243.149C302.663 242.294 302.454 240.85 302.207 239.729L300.896 239.843ZM304.81 239.805C305.304 240.945 305.798 242.427 305.969 243.339L307.356 243.035C307.166 242.142 306.653 240.66 306.14 239.577L304.81 239.805ZM308.743 239.729C309.693 240.907 310.776 242.541 311.232 243.548L312.581 242.94C312.068 241.914 310.966 240.337 309.997 239.197L308.743 239.729ZM297.609 239.33C296.982 240.622 295.994 242.085 295.12 242.978L296.45 243.529C297.324 242.522 298.274 240.983 298.939 239.672L297.609 239.33ZM295.5 233.972L295.861 235.093C296.982 234.732 298.274 234.333 299.604 233.915L299.452 232.984C297.951 233.364 296.545 233.744 295.5 233.972ZM307.204 231.464C308.8 233.725 310.586 236.784 311.308 238.627L312.6 238.019C311.821 236.157 309.997 233.174 308.382 230.951L307.204 231.464ZM320.352 229.735V231.122H333.519V229.735H320.352ZM319.516 235.302V236.67H332.835V235.302H319.516ZM317.445 241.515V242.902H334.412V241.515H317.445ZM325.197 226.049V242.218H326.66V226.049H325.197ZM320.922 226.353C320.2 229.07 318.965 231.711 317.407 233.402C317.768 233.592 318.414 234.01 318.699 234.257C320.219 232.433 321.549 229.621 322.385 226.676L320.922 226.353ZM345.888 236.119V243.51H347.199V237.43H354.001V243.415H355.369V236.119H345.888ZM354.666 226.106C352.557 226.866 348.7 227.455 345.394 227.816C345.565 228.139 345.755 228.69 345.812 229.032C349.213 228.709 353.184 228.12 355.787 227.227L354.666 226.106ZM349.992 227.759V236.879H351.36V227.759H349.992ZM344.501 231.616V232.984H356.604V231.616H344.501ZM346.781 241.382V242.693H354.628V241.382H346.781ZM340.15 227.284C341.328 227.911 342.905 228.842 343.703 229.412L344.539 228.253C343.722 227.702 342.107 226.847 340.948 226.277L340.15 227.284ZM339.219 232.528C340.378 233.136 341.955 234.048 342.734 234.58L343.532 233.421C342.734 232.87 341.138 232.034 340.017 231.483L339.219 232.528ZM339.675 242.294L340.872 243.263C341.993 241.496 343.323 239.121 344.33 237.107L343.304 236.176C342.202 238.342 340.701 240.85 339.675 242.294ZM370.037 231.901C368.441 231.901 367.13 233.193 367.13 234.789C367.13 236.404 368.441 237.696 370.037 237.696C371.633 237.696 372.925 236.404 372.925 234.789C372.925 233.193 371.633 231.901 370.037 231.901ZM370.037 236.727C368.973 236.727 368.099 235.872 368.099 234.789C368.099 233.744 368.973 232.87 370.037 232.87C371.101 232.87 371.956 233.744 371.956 234.789C371.956 235.872 371.101 236.727 370.037 236.727Z" fill="black"/>
<path d="M99.04 13.37H96.04V11.81H99.38C99.73 10.12 99.99 8.47 100.25 6.82C99.21 7.86 98.17 8.73 97.12 9.47L96.25 8.47C98.25 6.25 99.82 3 100.86 0L104.33 1.04C103.98 1.69 103.64 2.26 103.29 2.82H118.14V4.64H102.07C101.59 5.29 101.07 5.9 100.55 6.46H114.53C114.44 7.76 114.31 9.67 114.1 11.71H117.92V13.36H113.97C113.8 14.57 113.67 15.79 113.49 16.88H117.35V18.53H113.18L113.05 19.05C112.31 22 109.45 22.61 105.58 20.53L105.93 19.32C109.14 19.84 109.71 19.71 110.05 18.54H101.03C100.86 19.1 100.73 19.62 100.55 20.15L97.38 19.54C97.99 17.5 98.55 15.42 99.03 13.38L99.04 13.37ZM110.93 35.16C106.94 37.5 101.42 39.63 96.95 40.5L96.47 39.02C100.59 37.63 104.28 35.55 107.84 32.64L110.92 35.16H110.93ZM117.62 31.34V37.68C117.62 41.24 114.54 42.63 108.2 39.03L108.63 37.51C113.36 38.59 113.88 38.16 113.88 36.64V31.69C108.54 32.17 103.11 32.51 99.03 32.65L97.99 29.31C100.55 29.44 103.29 29.53 106.07 29.57C109.28 28.48 112.54 27.05 115.49 25.4C111.76 25.96 107.81 26.31 103.6 26.53L102.77 23.4C104.9 23.62 107.07 23.75 109.24 23.83C111.24 22.53 113.49 20.75 114.97 19.01L117.84 21.05C116.49 21.96 114.28 23.05 112.28 23.87C114.36 23.87 116.4 23.83 118.31 23.7C119.83 22.74 121.22 21.7 122.43 20.66L125.77 22.57C122.25 24.96 117.65 27.3 110.49 29.52C116.18 29.43 121.82 29.13 126.6 28.7C125.69 27.79 124.78 26.96 123.95 26.27L124.82 24.97C127.51 26.23 130.94 28.36 133.11 30.22L130.55 33.17C129.9 32.26 128.9 31.09 127.82 29.96C124.95 30.48 121.35 30.96 117.62 31.35V31.34ZM110.84 13.37H102.25C101.99 14.54 101.73 15.71 101.42 16.89H107.41C106.24 16.11 104.72 15.28 103.55 14.63L103.81 13.67C105.5 13.93 107.37 14.41 109.15 15.15L108.19 16.89H110.4C110.53 15.89 110.7 14.63 110.83 13.37H110.84ZM102.55 11.76H108.67C107.41 11.07 105.76 10.24 104.5 9.63L104.76 8.63C106.15 8.76 108.15 9.19 109.97 9.89L109.06 11.76H110.97C111.1 10.46 111.19 9.16 111.27 8.11H103.25C103.03 9.28 102.82 10.5 102.56 11.76H102.55ZM116.48 10.5C118.09 8.33 119.74 4.68 120.52 0.34L123.82 1.16C123.43 2.33 123.04 3.46 122.52 4.55H132.94V6.37H129.77C129.38 9.28 128.16 12.1 126.25 14.53C128.25 15.96 130.72 17.09 133.72 17.92L131.94 21.35C128.86 20.18 126.34 18.57 124.43 16.53C122.61 18.27 120.39 19.7 117.83 20.61L117.14 19.4C119.4 18.18 121.35 16.62 122.91 14.67C121.65 12.89 120.78 10.81 120.26 8.42C119.43 9.55 118.48 10.55 117.44 11.42L116.48 10.51V10.5ZM120.17 31.99C124.64 32.99 129.85 34.9 133.37 37.29L131.16 40.55C128.08 37.99 123.74 35.43 119.61 33.39L120.17 32V31.99ZM121.65 6.29C121.48 6.64 121.26 6.94 121.09 7.25C121.7 9.38 122.74 11.2 124.22 12.76C125.3 10.89 126.04 8.77 126.3 6.34L121.65 6.3V6.29Z" fill="#D08421"/>
<path d="M172.57 19.9701V25.4001H178.95V27.3501H163.28V31.2601H177.26V33.2101H163.28V40.7601H159.29V33.2101H145.62V31.2601H159.29V27.3501H144.01V25.4001H150.35V19.9701H142.32V18.0201H150.35V13.1101H144.97V11.1601H178.18V13.1101H172.58V18.0201H180.61V19.9701H172.58H172.57ZM153.08 6.29014H143.01V4.34014H153.08V0.390137H156.9V4.34014H165.84V0.390137H169.66V4.34014H179.99V6.29014H169.66V10.0701H165.84V6.29014H156.9V10.0701H153.08V6.29014ZM153.99 13.1101V18.0201H159.29V13.1101H153.99ZM159.29 25.4001V19.9701H153.99V25.4001H159.29ZM163.28 13.1101V18.0201H168.92V13.1101H163.28ZM168.92 25.4001V19.9701H163.28V25.4001H168.92Z" fill="#D08421"/>
<path d="M227.39 34.4702L224.92 38.9002C220.75 37.5102 214.33 33.3002 209.21 26.2702V40.8102H205.22V26.7402C200.75 32.6002 194.58 36.5102 188.03 39.2402L187.34 37.8102C192.46 35.0702 198.97 29.9102 202.62 24.6602H193.33V11.1102H205.22V7.55022H189.64V5.16021H205.22V0.220215H209.21V5.17022H225.36V7.56021H209.21V11.1202H221.15V24.6202H210.08C215.81 30.0902 221.71 33.1702 227.4 34.4702H227.39ZM197.18 16.8002H205.21V13.0202H197.18V16.8002ZM197.18 22.7002H205.21V18.7102H197.18V22.7002ZM209.21 13.0202V16.8002H217.33V13.0202H209.21ZM217.33 18.6602H209.21V22.7002H217.33V18.6602Z" fill="#D08421"/>
<path d="M272.01 37.0702C270.71 38.2902 268.1 39.0702 264.24 39.2402C258.94 39.4602 251.13 39.4102 245.83 39.2402C239.19 39.0202 237.02 38.8102 237.02 31.8602V5.08016H234.28V2.91016H270.75V5.08016H241.01V31.9502C241.01 35.1602 241.36 35.5102 245.74 35.6802C251.21 35.9002 258.85 35.9402 264.32 35.6802C267.23 35.5502 268.62 35.2002 270.18 33.8602L272 37.0702H272.01ZM243.66 20.5702H255.03V32.4602H243.66V20.5702ZM247.31 30.6002H251.39V22.4402H247.31V30.6002ZM264.2 17.2302H247.66V7.81016H264.2V17.2302ZM260.47 9.68016H251.4V15.3702H260.47V9.68016ZM269.07 32.4702H257.44V20.5802H269.07V32.4702ZM265.42 22.4402H261.08V30.6002H265.42V22.4402Z" fill="#D08421"/>
<path d="M300.35 5.82018V13.9302C306.17 16.8002 310.68 19.6602 314.94 23.3102L311.51 27.3902C308.12 23.4002 304.56 19.6602 300.35 16.1002V40.7602H296.18V5.82018H281.29V3.43018H318.62V5.82018H300.34H300.35Z" fill="#D08421"/>
<path d="M363.51 17.1899V20.0099H327.35V17.1899H363.51Z" fill="#D08421"/>
<path d="M389.11 28.61L389.63 30.09C386.29 32.17 378.65 35.13 373 36.69L371.74 32.13C374.34 31.91 377.9 31.35 381.59 30.57C382.59 26.01 383.72 19.02 384.19 12.77L388.44 13.64C387.49 19.54 385.36 25.67 383.53 30.09C385.44 29.66 387.35 29.18 389.09 28.61H389.11ZM390.93 11.46H372.48V9.51004H390.93V11.46ZM374.78 13.67L376.17 13.24C378.38 18.1 380.21 23.79 380.81 28.48L376.69 29.22C376.47 24.92 375.69 18.41 374.78 13.68V13.67ZM380.21 9.16004C379.56 6.47004 378.65 3.43004 377.65 0.740039L379.08 0.0400391C381.12 2.38004 382.99 5.34004 384.03 7.72004L380.21 9.15004V9.16004ZM400.48 12.46V21.53H408.95V40.24H405.13V36.85H393.93V40.41H390.11V21.53H396.58V0.480039H400.49V10.51H410.69V12.46H400.49H400.48ZM393.93 23.49V34.91H405.13V23.49H393.93Z" fill="#D08421"/>
<path d="M100.84 77.3598L96.5 69.2898C96.54 70.4098 96.56 71.6698 96.56 72.6798V77.3598H95V67.5798H97.2L101.58 75.6998C101.55 74.5898 101.54 73.2898 101.54 72.2798V67.5698H103.07V77.3498H100.84V77.3598Z" fill="#969696"/>
<path d="M113.79 74.0299H108.39C108.52 75.8299 109.34 76.4299 110.36 76.4299C111.27 76.4299 111.98 75.8799 112.13 74.9299H113.7C113.37 76.7199 111.94 77.5699 110.3 77.5699C108.29 77.5699 106.77 76.2899 106.77 73.6299C106.77 71.2499 108.29 69.6499 110.46 69.6499C112.63 69.6499 113.82 71.2899 113.82 73.4199C113.82 73.5599 113.82 73.7699 113.79 74.0399V74.0299ZM108.4 72.9399H112.21C112.1 71.5499 111.49 70.7699 110.4 70.7699C109.31 70.7699 108.57 71.4899 108.4 72.9399Z" fill="#969696"/>
<path d="M123.4 77.3598H121.6L119.81 74.5298L118.02 77.3598H116.23L118.91 73.5499L116.33 69.8398H118.16L119.87 72.5598L121.57 69.8398H123.36L120.74 73.5398L123.39 77.3699L123.4 77.3598Z" fill="#969696"/>
<path d="M128.63 74.9201C128.63 75.1801 128.63 75.3501 128.64 75.5401C128.7 76.2801 128.98 76.4301 130 76.3301V77.4101C129.6 77.4701 129.23 77.4901 128.85 77.4901C127.67 77.4901 127.16 77.0501 127.09 76.0601C127.08 75.8101 127.08 75.4801 127.08 75.0501V70.9701H126.02V69.8801H127.08V68.0801H128.62V69.8801H130.09V70.9701H128.62V74.9101L128.63 74.9201Z" fill="#969696"/>
<path d="M143.37 68.8101V77.3601H141.82V68.8101H138.4V67.5801H146.78V68.8101H143.36H143.37Z" fill="#969696"/>
<path d="M156.2 73.5899C156.2 75.7899 154.91 77.5599 152.39 77.5599C149.87 77.5599 148.58 75.7899 148.58 73.5899C148.58 71.3899 149.86 69.6299 152.39 69.6299C154.92 69.6299 156.2 71.3899 156.2 73.5899ZM154.54 73.5899C154.54 71.8899 153.75 70.7699 152.39 70.7699C151.03 70.7699 150.22 71.8899 150.22 73.5899C150.22 75.2899 151.01 76.4199 152.39 76.4199C153.77 76.4199 154.54 75.2899 154.54 73.5899Z" fill="#969696"/>
<path d="M172.16 77.3601H165.4V67.5801H172.02V68.8101H166.96V71.8401H171.62V73.0701H166.96V76.1001H172.16V77.3501V77.3601Z" fill="#969696"/>
<path d="M180 76.2599L179.62 77.0699C179.11 77.4199 178.46 77.5499 177.75 77.5499C176.42 77.5499 175.33 76.7799 175.33 75.3799C175.33 73.7099 176.66 72.7999 179.51 72.7999H179.99V72.6199C179.99 72.3399 179.99 72.0799 179.96 71.7999C179.92 71.1899 179.54 70.7599 178.64 70.7599C177.74 70.7599 177.26 71.2699 177.18 72.2099H175.62C175.72 70.5699 176.95 69.6299 178.67 69.6299C180.61 69.6299 181.38 70.4499 181.51 71.7299C181.54 72.0399 181.55 72.4399 181.55 72.7899V75.4399C181.55 76.0099 181.58 76.5199 181.69 77.3499H180.15L180.01 76.2599H180ZM179.99 74.5299V73.8399C178.16 73.6999 176.97 74.1099 176.97 75.2599C176.97 76.0499 177.49 76.4199 178.32 76.4199C179.3 76.4199 179.99 75.7499 179.99 74.5299Z" fill="#969696"/>
<path d="M191.08 71.9801H189.49C189.33 71.1901 188.87 70.7201 188.1 70.7201C187.33 70.7201 187.01 71.1301 187.01 71.7001C187.01 72.3801 187.56 72.6601 188.68 72.9601C190.32 73.3901 191.19 74.0401 191.19 75.3701C191.19 76.8301 189.9 77.5501 188.26 77.5501C186.62 77.5501 185.35 76.8001 185.14 75.1001H186.71C186.89 76.0601 187.53 76.4501 188.31 76.4501C189.03 76.4501 189.61 76.1401 189.61 75.4901C189.61 74.8401 189.1 74.4801 187.82 74.1401C186.45 73.7901 185.42 73.2001 185.42 71.8901C185.42 70.4901 186.53 69.6401 188.2 69.6401C189.87 69.6401 190.89 70.6201 191.06 71.9901L191.08 71.9801Z" fill="#969696"/>
<path d="M196.66 74.9201C196.66 75.1801 196.66 75.3501 196.67 75.5401C196.73 76.2801 197.01 76.4301 198.03 76.3301V77.4101C197.63 77.4701 197.26 77.4901 196.88 77.4901C195.7 77.4901 195.19 77.0501 195.12 76.0601C195.11 75.8101 195.11 75.4801 195.11 75.0501V70.9701H194.05V69.8801H195.11V68.0801H196.65V69.8801H198.12V70.9701H196.65V74.9101L196.66 74.9201Z" fill="#969696"/>
<path d="M215.73 72.3501C215.73 75.2701 214 77.0101 211.73 77.3001C211.23 77.3601 211.01 77.3601 210.48 77.3601H207.38V67.5801H210.54C211.06 67.5801 211.29 67.5801 211.79 67.6401C214.06 67.9101 215.73 69.4001 215.73 72.3601V72.3501ZM214.06 72.3501C214.06 70.2901 213.08 69.1001 211.52 68.8801C211.21 68.8201 210.87 68.8101 210.4 68.8101H208.94V76.1101H210.34C210.82 76.1101 211.15 76.1101 211.46 76.0501C213.03 75.8201 214.05 74.5201 214.05 72.3501H214.06Z" fill="#969696"/>
<path d="M221.17 68.1C221.17 68.62 220.77 69.01 220.25 69.01C219.73 69.01 219.34 68.63 219.34 68.1C219.34 67.57 219.72 67.21 220.25 67.21C220.78 67.21 221.17 67.59 221.17 68.1ZM219.47 77.36V69.83H221.03V77.36H219.47Z" fill="#969696"/>
<path d="M230.58 71.9801H228.99C228.83 71.1901 228.37 70.7201 227.6 70.7201C226.83 70.7201 226.51 71.1301 226.51 71.7001C226.51 72.3801 227.06 72.6601 228.18 72.9601C229.82 73.3901 230.69 74.0401 230.69 75.3701C230.69 76.8301 229.4 77.5501 227.76 77.5501C226.12 77.5501 224.85 76.8001 224.64 75.1001H226.21C226.39 76.0601 227.03 76.4501 227.81 76.4501C228.53 76.4501 229.11 76.1401 229.11 75.4901C229.11 74.8401 228.6 74.4801 227.32 74.1401C225.95 73.7901 224.92 73.2001 224.92 71.8901C224.92 70.4901 226.03 69.6401 227.7 69.6401C229.37 69.6401 230.39 70.6201 230.56 71.9901L230.58 71.9801Z" fill="#969696"/>
<path d="M236.16 74.9201C236.16 75.1801 236.16 75.3501 236.17 75.5401C236.23 76.2801 236.51 76.4301 237.53 76.3301V77.4101C237.13 77.4701 236.77 77.4901 236.38 77.4901C235.2 77.4901 234.69 77.0501 234.62 76.0601C234.61 75.8101 234.61 75.4801 234.61 75.0501V70.9701H233.55V69.8801H234.61V68.0801H236.15V69.8801H237.62V70.9701H236.15V74.9101L236.16 74.9201Z" fill="#969696"/>
<path d="M245.21 69.7301V70.9501C243.78 70.8501 242.89 71.5901 242.89 73.4501V77.3601H241.33V69.8301H242.89V71.1101L243.53 70.0701C243.87 69.8001 244.31 69.6401 244.69 69.6401C244.9 69.6401 245.06 69.6701 245.21 69.7301Z" fill="#969696"/>
<path d="M250.29 68.1C250.29 68.62 249.89 69.01 249.37 69.01C248.85 69.01 248.46 68.63 248.46 68.1C248.46 67.57 248.84 67.21 249.37 67.21C249.9 67.21 250.29 67.59 250.29 68.1ZM248.59 77.36V69.83H250.15V77.36H248.59Z" fill="#969696"/>
<path d="M260.78 72.4399H259.21C258.98 71.2899 258.37 70.7699 257.45 70.7699C256.36 70.7699 255.49 71.6399 255.49 73.5199C255.49 75.5599 256.34 76.4299 257.39 76.4299C258.28 76.4299 258.92 75.8899 259.15 74.8699H260.74C260.39 76.6699 259.08 77.5599 257.31 77.5599C255.34 77.5599 253.85 76.3099 253.85 73.6299C253.85 70.9499 255.52 69.6299 257.49 69.6299C259.46 69.6299 260.59 70.7799 260.78 72.4399Z" fill="#969696"/>
<path d="M266.25 74.9201C266.25 75.1801 266.25 75.3501 266.26 75.5401C266.32 76.2801 266.6 76.4301 267.62 76.3301V77.4101C267.22 77.4701 266.85 77.4901 266.47 77.4901C265.29 77.4901 264.78 77.0501 264.71 76.0601C264.7 75.8101 264.7 75.4801 264.7 75.0501V70.9701H263.64V69.8801H264.7V68.0801H266.24V69.8801H267.71V70.9701H266.24V74.9101L266.25 74.9201Z" fill="#969696"/>
<line x1="1.00001" y1="3" x2="1" y2="255" stroke="#D68F41" stroke-width="2"/>
</svg>
