<svg width="295" height="165" viewBox="0 0 295 165" fill="none" xmlns="http://www.w3.org/2000/svg">
<path d="M50.93 8.63H49V7.62H51.16C51.38 6.53 51.55 5.46 51.72 4.4C51.05 5.07 50.38 5.63 49.7 6.11L49.14 5.47C50.43 4.03 51.44 1.93 52.11 0L54.35 0.67C54.13 1.09 53.9 1.45 53.68 1.82H63.26V3H52.89C52.58 3.42 52.25 3.81 51.91 4.18H60.93C60.87 5.02 60.79 6.25 60.65 7.57H63.11V8.63H60.56C60.45 9.41 60.36 10.2 60.25 10.9H62.74V11.96H60.05L59.97 12.3C59.49 14.21 57.64 14.6 55.15 13.25L55.37 12.47C57.44 12.81 57.81 12.72 58.03 11.97H52.22C52.11 12.33 52.02 12.67 51.91 13.01L49.87 12.62C50.26 11.3 50.63 9.96 50.93 8.64V8.63ZM58.61 22.69C56.03 24.2 52.47 25.58 49.59 26.14L49.28 25.19C51.94 24.29 54.32 22.95 56.62 21.07L58.61 22.69ZM62.92 20.22V24.31C62.92 26.61 60.93 27.5 56.84 25.18L57.12 24.2C60.17 24.9 60.51 24.62 60.51 23.64V20.45C57.06 20.76 53.56 20.98 50.93 21.07L50.26 18.91C51.91 18.99 53.68 19.05 55.47 19.08C57.54 18.38 59.64 17.46 61.55 16.39C59.14 16.75 56.59 16.98 53.87 17.12L53.34 15.1C54.71 15.24 56.11 15.32 57.51 15.38C58.8 14.54 60.26 13.39 61.21 12.27L63.06 13.59C62.19 14.18 60.76 14.88 59.47 15.41C60.81 15.41 62.13 15.38 63.36 15.3C64.34 14.68 65.24 14.01 66.02 13.34L68.18 14.57C65.91 16.11 62.94 17.62 58.32 19.05C61.99 18.99 65.63 18.8 68.71 18.52C68.12 17.93 67.53 17.4 67 16.95L67.56 16.11C69.3 16.92 71.51 18.3 72.91 19.5L71.26 21.4C70.84 20.81 70.2 20.06 69.5 19.33C67.65 19.67 65.33 19.97 62.92 20.23V20.22ZM58.55 8.62H53.01C52.84 9.38 52.67 10.13 52.48 10.89H56.35C55.59 10.39 54.61 9.85 53.86 9.43L54.03 8.81C55.12 8.98 56.33 9.29 57.48 9.76L56.86 10.88H58.29C58.37 10.24 58.49 9.42 58.57 8.61L58.55 8.62ZM53.2 7.58H57.15C56.34 7.13 55.27 6.6 54.46 6.21L54.63 5.57C55.53 5.65 56.82 5.93 57.99 6.38L57.4 7.58H58.63C58.71 6.74 58.77 5.9 58.83 5.23H53.65C53.51 5.99 53.37 6.77 53.2 7.58ZM62.19 6.77C63.23 5.37 64.29 3.02 64.8 0.21L66.93 0.74C66.68 1.5 66.43 2.22 66.09 2.92H72.81V4.1H70.77C70.52 5.98 69.73 7.8 68.5 9.37C69.79 10.29 71.39 11.02 73.32 11.56L72.17 13.77C70.18 13.01 68.56 11.98 67.32 10.66C66.14 11.78 64.72 12.7 63.06 13.29L62.61 12.51C64.07 11.73 65.33 10.72 66.34 9.46C65.53 8.31 64.97 6.97 64.63 5.43C64.1 6.16 63.48 6.8 62.81 7.36L62.19 6.77ZM64.57 20.64C67.46 21.28 70.82 22.52 73.09 24.06L71.66 26.16C69.67 24.51 66.87 22.85 64.21 21.54L64.57 20.64ZM65.52 4.06C65.41 4.28 65.27 4.48 65.16 4.68C65.55 6.05 66.23 7.23 67.18 8.24C67.88 7.04 68.36 5.66 68.52 4.09L65.52 4.06Z" fill="#D68F41"/>
<path d="M97.2602 12.89V16.39H101.38V17.65H91.2702V20.17H100.29V21.43H91.2702V26.3H88.6902V21.43H79.8602V20.17H88.6902V17.65H78.8302V16.39H82.9202V12.89H77.7402V11.63H82.9202V8.46H79.4502V7.2H100.88V8.46H97.2702V11.63H102.45V12.89H97.2702H97.2602ZM84.6802 4.07H78.1802V2.81H84.6802V0.25H87.1502V2.8H92.9202V0.25H95.3802V2.8H102.05V4.06H95.3802V6.5H92.9202V4.06H87.1502V6.5H84.6802V4.06V4.07ZM85.2702 8.47V11.64H88.6902V8.47H85.2702ZM88.6902 16.4V12.9H85.2702V16.4H88.6902ZM91.2702 8.47V11.64H94.9102V8.47H91.2702ZM94.9102 16.4V12.9H91.2702V16.4H94.9102Z" fill="#D68F41"/>
<path d="M131.52 22.2401L129.92 25.1001C127.23 24.2001 123.09 21.4901 119.78 16.9501V26.3301H117.2V17.2501C114.32 21.0301 110.34 23.5501 106.11 25.3201L105.66 24.4001C108.97 22.6401 113.17 19.3001 115.52 15.9101H109.52V7.17014H117.2V4.87014H107.14V3.33014H117.2V0.140137H119.78V3.33014H130.2V4.87014H119.78V7.17014H127.48V15.8801H120.34C124.04 19.4101 127.85 21.4001 131.52 22.2401ZM112.02 10.8401H117.2V8.40014H112.02V10.8401ZM112.02 14.6501H117.2V12.0701H112.02V14.6501ZM119.78 8.40014V10.8401H125.02V8.40014H119.78ZM125.02 12.0401H119.78V14.6501H125.02V12.0401Z" fill="#D68F41"/>
<path d="M159.2 23.9199C158.36 24.6999 156.68 25.2099 154.19 25.3199C150.77 25.4599 145.73 25.4299 142.31 25.3199C138.02 25.1799 136.62 25.0399 136.62 20.5599V3.27988H134.85V1.87988H158.38V3.27988H139.19V20.6199C139.19 22.6899 139.41 22.9199 142.24 23.0299C145.77 23.1699 150.7 23.1999 154.23 23.0299C156.11 22.9499 157 22.7199 158.01 21.8499L159.19 23.9199H159.2ZM140.91 13.2699H148.25V20.9499H140.91V13.2699ZM143.26 19.7399H145.89V14.4699H143.26V19.7399ZM154.16 11.1099H143.49V5.03988H154.16V11.1199V11.1099ZM151.75 6.23988H145.89V9.90988H151.75V6.23988ZM157.3 20.9499H149.79V13.2699H157.3V20.9499ZM154.95 14.4799H152.15V19.7499H154.95V14.4799Z" fill="#D68F41"/>
<path d="M176.36 3.74996V8.98996C180.11 10.84 183.03 12.69 185.77 15.04L183.56 17.67C181.37 15.09 179.08 12.68 176.36 10.39V26.3H173.67V3.74996H164.06V2.20996H188.15V3.74996H176.36Z" fill="#D68F41"/>
<path d="M216 11.0898V12.9098H192.66V11.0898H216Z" fill="#D68F41"/>
<path d="M231.4 18.46L231.74 19.41C229.58 20.75 224.65 22.66 221.01 23.67L220.2 20.73C221.88 20.59 224.18 20.23 226.56 19.72C227.2 16.78 227.93 12.27 228.24 8.23002L230.99 8.79002C230.37 12.6 229 16.55 227.82 19.41C229.05 19.13 230.29 18.82 231.41 18.46H231.4ZM232.58 7.39002H220.67V6.13002H232.58V7.39002ZM222.16 8.82002L223.06 8.54002C224.49 11.68 225.67 15.35 226.06 18.37L223.4 18.85C223.26 16.08 222.76 11.87 222.17 8.82002H222.16ZM225.66 5.91002C225.24 4.17002 224.65 2.21002 224.01 0.47002L224.93 0.0200195C226.25 1.53002 227.45 3.44002 228.12 4.98002L225.65 5.90002L225.66 5.91002ZM238.74 8.04002V13.9H244.2V25.97H241.73V23.78H234.5V26.08H232.03V13.9H236.2V0.31002H238.72V6.78002H245.3V8.04002H238.72H238.74ZM234.51 15.16V22.53H241.74V15.16H234.51Z" fill="#D68F41"/>
<path d="M94.1999 50.3404L91.3599 45.0504C91.3899 45.7804 91.3999 46.6104 91.3999 47.2704V50.3404H90.3799V43.9304H91.8199L94.6899 49.2504C94.6699 48.5304 94.6599 47.6704 94.6599 47.0104V43.9204H95.6599V50.3304H94.1999V50.3404Z" fill="#969696"/>
<path d="M102.7 48.16H99.1601C99.2401 49.34 99.7801 49.73 100.45 49.73C101.04 49.73 101.51 49.37 101.61 48.75H102.64C102.43 49.92 101.49 50.48 100.41 50.48C99.0901 50.48 98.1001 49.64 98.1001 47.9C98.1001 46.34 99.0901 45.29 100.52 45.29C101.95 45.29 102.72 46.37 102.72 47.76C102.72 47.85 102.72 47.99 102.7 48.17V48.16ZM99.1701 47.44H101.67C101.6 46.53 101.2 46.02 100.48 46.02C99.7601 46.02 99.2801 46.49 99.1701 47.44Z" fill="#969696"/>
<path d="M109 50.3402H107.82L106.65 48.4802L105.48 50.3402H104.31L106.07 47.8402L104.38 45.4102H105.58L106.7 47.1902L107.82 45.4102H108.99L107.27 47.8402L109.01 50.3502L109 50.3402Z" fill="#969696"/>
<path d="M112.43 48.7403C112.43 48.9103 112.43 49.0203 112.43 49.1503C112.47 49.6303 112.65 49.7403 113.32 49.6703V50.3803C113.06 50.4203 112.82 50.4403 112.57 50.4403C111.8 50.4403 111.46 50.1503 111.42 49.5003C111.42 49.3303 111.42 49.1203 111.42 48.8403V46.1603H110.72V45.4403H111.42V44.2603H112.43V45.4403H113.4V46.1603H112.43V48.7403Z" fill="#969696"/>
<path d="M122.09 44.7402V50.3402H121.08V44.7402H118.84V43.9302H124.33V44.7402H122.09Z" fill="#969696"/>
<path d="M130.5 47.8703C130.5 49.3103 129.65 50.4703 128 50.4703C126.35 50.4703 125.5 49.3103 125.5 47.8703C125.5 46.4303 126.34 45.2803 128 45.2803C129.66 45.2803 130.5 46.4303 130.5 47.8703ZM129.41 47.8703C129.41 46.7503 128.89 46.0203 128 46.0203C127.11 46.0203 126.58 46.7503 126.58 47.8703C126.58 48.9903 127.1 49.7303 128 49.7303C128.9 49.7303 129.41 48.9903 129.41 47.8703Z" fill="#969696"/>
<path d="M140.97 50.3402H136.54V43.9302H140.88V44.7402H137.56V46.7302H140.62V47.5402H137.56V49.5302H140.97V50.3502V50.3402Z" fill="#969696"/>
<path d="M146.11 49.63L145.86 50.16C145.53 50.39 145.1 50.48 144.63 50.48C143.76 50.48 143.04 49.98 143.04 49.06C143.04 47.96 143.91 47.37 145.78 47.37H146.1V47.25C146.1 47.06 146.1 46.9 146.08 46.71C146.05 46.31 145.8 46.03 145.22 46.03C144.64 46.03 144.32 46.36 144.26 46.98H143.24C143.3 45.9 144.11 45.29 145.24 45.29C146.51 45.29 147.01 45.83 147.1 46.67C147.12 46.87 147.13 47.13 147.13 47.37V49.11C147.13 49.48 147.15 49.82 147.22 50.36H146.21L146.12 49.64L146.11 49.63ZM146.11 48.5V48.04C144.91 47.95 144.13 48.22 144.13 48.97C144.13 49.49 144.47 49.73 145.01 49.73C145.65 49.73 146.11 49.29 146.11 48.49V48.5Z" fill="#969696"/>
<path d="M153.38 46.82H152.34C152.24 46.3 151.93 45.99 151.43 45.99C150.93 45.99 150.71 46.26 150.71 46.63C150.71 47.08 151.07 47.26 151.81 47.46C152.89 47.74 153.45 48.17 153.45 49.04C153.45 50 152.6 50.47 151.53 50.47C150.46 50.47 149.63 49.98 149.49 48.86H150.52C150.64 49.49 151.06 49.74 151.57 49.74C152.04 49.74 152.43 49.54 152.43 49.11C152.43 48.68 152.1 48.45 151.26 48.23C150.36 48 149.69 47.62 149.69 46.75C149.69 45.83 150.41 45.27 151.51 45.27C152.61 45.27 153.28 45.91 153.39 46.81L153.38 46.82Z" fill="#969696"/>
<path d="M157.04 48.7403C157.04 48.9103 157.04 49.0203 157.04 49.1503C157.08 49.6303 157.26 49.7403 157.93 49.6703V50.3803C157.67 50.4203 157.43 50.4403 157.18 50.4403C156.41 50.4403 156.07 50.1503 156.03 49.5003C156.03 49.3303 156.03 49.1203 156.03 48.8403V46.1603H155.33V45.4403H156.03V44.2603H157.04V45.4403H158.01V46.1603H157.04V48.7403Z" fill="#969696"/>
<path d="M169.54 47.0602C169.54 48.9702 168.41 50.1202 166.92 50.3002C166.59 50.3402 166.45 50.3402 166.1 50.3402H164.06V43.9302H166.13C166.47 43.9302 166.62 43.9302 166.95 43.9702C168.44 44.1502 169.53 45.1202 169.53 47.0602H169.54ZM168.44 47.0602C168.44 45.7102 167.8 44.9302 166.78 44.7802C166.57 44.7402 166.35 44.7302 166.05 44.7302H165.09V49.5202H166.01C166.33 49.5202 166.54 49.5202 166.74 49.4802C167.77 49.3302 168.44 48.4802 168.44 47.0502V47.0602Z" fill="#969696"/>
<path d="M173.11 44.2702C173.11 44.6102 172.85 44.8602 172.51 44.8602C172.17 44.8602 171.92 44.6102 171.92 44.2702C171.92 43.9302 172.17 43.6802 172.51 43.6802C172.85 43.6802 173.11 43.9302 173.11 44.2702ZM172 50.3402V45.4102H173.02V50.3402H172Z" fill="#969696"/>
<path d="M179.28 46.82H178.24C178.14 46.3 177.83 45.99 177.33 45.99C176.83 45.99 176.61 46.26 176.61 46.63C176.61 47.08 176.97 47.26 177.71 47.46C178.79 47.74 179.35 48.17 179.35 49.04C179.35 50 178.5 50.47 177.43 50.47C176.36 50.47 175.53 49.98 175.39 48.86H176.42C176.54 49.49 176.96 49.74 177.47 49.74C177.94 49.74 178.33 49.54 178.33 49.11C178.33 48.68 178 48.45 177.16 48.23C176.26 48 175.59 47.62 175.59 46.75C175.59 45.83 176.31 45.27 177.41 45.27C178.51 45.27 179.18 45.91 179.29 46.81L179.28 46.82Z" fill="#969696"/>
<path d="M182.94 48.7403C182.94 48.9103 182.94 49.0203 182.94 49.1503C182.98 49.6303 183.16 49.7403 183.83 49.6703V50.3803C183.57 50.4203 183.33 50.4403 183.08 50.4403C182.31 50.4403 181.97 50.1503 181.93 49.5003C181.93 49.3303 181.93 49.1203 181.93 48.8403V46.1603H181.23V45.4403H181.93V44.2603H182.94V45.4403H183.91V46.1603H182.94V48.7403Z" fill="#969696"/>
<path d="M188.87 45.34V46.14C187.93 46.08 187.35 46.56 187.35 47.78V50.34H186.33V45.41H187.35V46.25L187.77 45.57C187.99 45.39 188.28 45.29 188.53 45.29C188.67 45.29 188.77 45.31 188.87 45.35V45.34Z" fill="#969696"/>
<path d="M192.21 44.2702C192.21 44.6102 191.95 44.8602 191.61 44.8602C191.27 44.8602 191.02 44.6102 191.02 44.2702C191.02 43.9302 191.27 43.6802 191.61 43.6802C191.95 43.6802 192.21 43.9302 192.21 44.2702ZM191.1 50.3402V45.4102H192.12V50.3402H191.1Z" fill="#969696"/>
<path d="M199.09 47.1203H198.06C197.91 46.3703 197.51 46.0203 196.91 46.0203C196.19 46.0203 195.63 46.5903 195.63 47.8203C195.63 49.1603 196.19 49.7203 196.88 49.7203C197.46 49.7203 197.88 49.3703 198.03 48.7003H199.07C198.84 49.8803 197.98 50.4703 196.82 50.4703C195.53 50.4703 194.55 49.6503 194.55 47.9003C194.55 46.1503 195.65 45.2803 196.94 45.2803C198.23 45.2803 198.98 46.0303 199.1 47.1203H199.09Z" fill="#969696"/>
<path d="M202.68 48.7403C202.68 48.9103 202.68 49.0203 202.68 49.1503C202.72 49.6303 202.9 49.7403 203.57 49.6703V50.3803C203.31 50.4203 203.07 50.4403 202.82 50.4403C202.05 50.4403 201.71 50.1503 201.67 49.5003C201.67 49.3303 201.67 49.1203 201.67 48.8403V46.1603H200.97V45.4403H201.67V44.2603H202.68V45.4403H203.65V46.1603H202.68V48.7403Z" fill="#969696"/>
</svg>
