<svg width="469" height="102" viewBox="0 0 469 102" fill="none" xmlns="http://www.w3.org/2000/svg">
<g clip-path="url(#clip0_54_489)">
<g filter="url(#filter0_d_54_489)">
<path d="M126.18 18.81V10.56C132.78 11.22 141.47 11.55 153 11.66C153.42 6.6 153.5 2.42 153.17 0.66C155.59 1.76 161.11 2.2 162.7 1.98C163.87 1.76 164.29 2.75 162.62 4.95C162.03 5.72 161.03 8.47 160.11 11.66C172.31 11.66 181.42 11.22 188.35 10.56V18.81C181.25 18.04 171.72 17.71 158.94 17.71C158.44 20.68 157.85 23.54 157.19 26.29H163.29C171.65 26.29 178.83 26.07 185.1 25.19V33.66C178.92 32.89 171.56 32.56 163.21 32.56H155.52C154.52 35.64 153.43 38.61 152.18 41.58H168.22C177.25 41.58 183.93 41.36 191.45 40.59V48.95C185.1 48.29 179.58 47.96 172.65 47.85C176.66 55.11 185.35 60.5 195.21 61.16C193.37 65.34 192.28 68.75 191.37 72.49C186.44 70.07 182.18 67.43 178.67 64.68V85.91C178.67 90.97 178.92 95.7 179.42 100.21H171.82V95.7H143.66V101.97H136.22C136.72 97.46 136.89 94.27 136.89 89.1V65.01C133.21 69.08 128.95 73.04 124.19 77C123.02 74.14 120.68 70.95 118.51 69.08C128.04 63.14 135.89 56.21 141.57 47.85C134.55 47.96 128.87 48.29 122.43 48.95V40.59C130.12 41.36 136.3 41.58 145.33 41.58C146.83 38.72 148.09 35.75 149.09 32.56C141.32 32.56 134.63 32.89 128.87 33.66V25.19C135.14 25.96 142.24 26.4 150.76 26.29C151.35 23.65 151.85 20.68 152.26 17.71C141.06 17.82 132.62 18.15 126.19 18.81H126.18ZM142.39 58.3C146.15 58.52 151.5 58.52 157.68 58.52C163.28 58.52 168.13 58.41 171.97 58.3C169.21 55 167.29 51.59 165.95 47.85H149.07C147.15 51.48 144.89 54.89 142.38 58.3H142.39ZM171.81 73.48V64.9H143.65V73.48H171.81ZM143.65 79.86V88.99H171.81V79.86H143.65Z" fill="white"/>
<path d="M228.72 82.28C228.72 88.88 228.8 95.15 229.14 101.86H222.2C222.53 95.15 222.62 88.88 222.62 82.28V58.08C220.2 62.7 217.44 67.76 214.26 73.37C213.59 69.85 212.09 65.45 210.42 62.59C215.02 58.85 220.53 50.38 228.14 31.46H219.7C216.78 31.46 213.77 31.9 212.18 32.67V23.32C215.44 23.76 218.2 23.87 224.46 23.87C231.56 23.87 234.32 23.76 237.16 23.32C236.57 26.4 235.74 29.04 233.48 34.87C232.14 38.39 230.56 42.02 228.72 45.87V82.28ZM224.37 20.9C223.03 15.95 221.45 11.99 218.86 7.81L226.21 3.41C228.55 8.14 229.64 10.56 231.64 15.4L224.37 20.9ZM234.57 66.88C233.07 61.6 231.56 58.3 229.14 53.9L233.24 49.17C236.25 54.34 237.84 57.97 239.59 62.81L234.58 66.88H234.57ZM261.48 16.06C252.87 16.06 244.52 16.39 239.75 17.05V7.7C244.51 8.47 252.87 8.8 261.48 8.8C270.09 8.8 278.28 8.47 283.04 7.7V17.05C278.28 16.39 270.17 16.06 261.48 16.06ZM246.6 95.04V101.53H240.33C240.58 98.01 240.66 94.71 240.66 88.88V62.92C240.66 59.95 240.49 55.44 240.24 52.36C244.17 52.69 252.69 52.91 261.38 52.91C270.07 52.91 278.59 52.69 282.52 52.36C282.19 55.66 282.1 59.95 282.1 62.92V87.78C282.1 93.61 282.1 96.47 282.52 100.43H276.17V95.04H246.59H246.6ZM260.89 45.76C253.87 45.76 247.52 45.98 243.84 46.31C244.01 42.02 244.09 38.17 244.09 34.43C244.09 30.69 244.01 26.84 243.84 22.66C247.6 23.1 253.87 23.32 260.89 23.32C267.91 23.32 274.34 23.1 278.1 22.66C277.93 26.84 277.85 30.8 277.85 34.43C277.85 38.06 277.93 42.02 278.1 46.31C274.42 45.98 267.9 45.76 260.89 45.76ZM258.05 69.85V59.18H246.6V69.85H258.05ZM246.6 76.01V88.88H258.05V76.01H246.6ZM272.51 29.81H249.45V39.49H272.51V29.81ZM276.19 69.85V59.18H263.82V69.85H276.19ZM263.82 76.01V88.88H276.19V76.01H263.82Z" fill="white"/>
<path d="M304.76 56.54V47.63C309.27 48.51 315.54 48.73 327.32 48.73C329.83 41.91 331.92 34.87 333 28.49C334.67 29.7 338.51 32.01 340.35 32.78C341.69 33.33 341.6 34.43 340.77 35.53C339.6 37.07 337.09 42.24 334.17 48.73H352.8C365.33 48.73 371.77 48.62 376.45 47.63V56.54C372.77 55.77 368.01 55.44 359.82 55.44C357.48 64.9 354.31 72.49 350.79 77.88C359.82 82.61 366.17 86.68 374.27 92.51C372.18 94.27 370.18 97.35 368.42 101.53C360.98 94.05 355.97 90.31 345.44 84.26C336.67 92.73 326.39 97.57 310.09 101.53C309.09 98.34 307.75 94.93 305.91 91.41C319.2 90.42 329.64 87.12 338.42 80.41C328.14 74.8 323.96 72.93 317.03 70.84C319.54 66.88 322.21 61.49 324.72 55.44C314.69 55.66 308.93 55.99 304.75 56.54H304.76ZM334.59 2.64C338.02 1.76 339.6 1.21 342.03 0C343.37 4.95 344.54 10.78 345.29 16.61C359.91 16.61 364.84 16.39 373.12 15.51V35.64H366.02V23.76H315.38V35.42H308.44V15.51C315.63 16.39 321.39 16.61 338.61 16.61C337.77 11.88 336.19 6.27 334.6 2.64H334.59ZM331.25 55.44C329.66 59.29 328.07 63.25 326.74 66.66C332.09 68.64 336.77 70.84 344.29 74.58C348.13 69.52 350.72 62.81 352.39 55.44H331.25Z" fill="white"/>
<path d="M396.68 56.54V47.63C401.19 48.51 407.46 48.73 419.24 48.73C421.75 41.91 423.84 34.87 424.92 28.49C426.59 29.7 430.43 32.01 432.27 32.78C433.61 33.33 433.52 34.43 432.69 35.53C431.52 37.07 429.01 42.24 426.09 48.73H444.72C457.25 48.73 463.69 48.62 468.37 47.63V56.54C464.69 55.77 459.93 55.44 451.74 55.44C449.4 64.9 446.22 72.49 442.71 77.88C451.74 82.61 458.09 86.68 466.19 92.51C464.1 94.27 462.1 97.35 460.34 101.53C452.9 94.05 447.89 90.31 437.36 84.26C428.59 92.73 418.31 97.57 402.01 101.53C401.01 98.34 399.67 94.93 397.83 91.41C411.12 90.42 421.56 87.12 430.34 80.41C420.06 74.8 415.88 72.93 408.95 70.84C411.46 66.88 414.13 61.49 416.64 55.44C406.61 55.66 400.85 55.99 396.67 56.54H396.68ZM426.51 2.64C429.94 1.76 431.52 1.21 433.95 0C435.29 4.95 436.46 10.78 437.21 16.61C451.83 16.61 456.76 16.39 465.04 15.51V35.64H457.94V23.76H407.3V35.42H400.36V15.51C407.55 16.39 413.31 16.61 430.53 16.61C429.69 11.88 428.11 6.27 426.52 2.64H426.51ZM423.17 55.44C421.58 59.29 419.99 63.25 418.66 66.66C424.01 68.64 428.69 70.84 436.21 74.58C440.05 69.52 442.64 62.81 444.32 55.44H423.18H423.17Z" fill="white"/>
</g>
<path d="M1.48 73.99V80.83H5.26V82.07H0V74H1.48V73.99Z" fill="white"/>
<path d="M10.2305 82.07V74H11.7105V82.07H10.2305Z" fill="white"/>
<path d="M20.2201 80.09C20.3701 79.65 20.4801 79.34 20.5401 79.15C20.6101 78.96 20.7501 78.58 20.9601 78L22.4601 73.99H24.0201L20.8601 82.06H19.5301L16.3701 73.99H17.9401L19.4401 78C19.6501 78.58 19.7901 78.96 19.8601 79.15C19.9301 79.34 20.0301 79.65 20.1801 80.09H20.2001H20.2201Z" fill="white"/>
<path d="M30.1597 80.83H34.1297V82.07H28.6797V74H33.9097V75.24H30.1597V77.33H33.3797V78.57H30.1597V80.85V80.83Z" fill="white"/>
<path d="M47.88 82.07H46.4V75.23H43.79V73.99H50.48V75.23H47.88V82.07Z" fill="white"/>
<path d="M62.4103 78.03C62.4103 78.64 62.3203 79.21 62.1503 79.72C61.9803 80.23 61.7203 80.67 61.3803 81.05C61.0403 81.42 60.6303 81.71 60.1403 81.91C59.6503 82.12 59.0903 82.22 58.4703 82.22C57.8503 82.22 57.2903 82.12 56.8003 81.91C56.3103 81.7 55.9003 81.42 55.5603 81.05C55.2203 80.68 54.9703 80.24 54.7903 79.72C54.6103 79.21 54.5303 78.64 54.5303 78.03C54.5303 77.42 54.6203 76.85 54.7903 76.34C54.9603 75.83 55.2203 75.39 55.5603 75.02C55.9003 74.65 56.3103 74.36 56.8003 74.16C57.2903 73.96 57.8503 73.85 58.4703 73.85C59.0903 73.85 59.6503 73.95 60.1403 74.16C60.6303 74.37 61.0403 74.65 61.3803 75.02C61.7203 75.39 61.9703 75.83 62.1503 76.34C62.3303 76.85 62.4103 77.42 62.4103 78.03ZM60.8803 78.03C60.8803 77.54 60.8203 77.11 60.7003 76.74C60.5803 76.37 60.4103 76.06 60.2003 75.82C59.9903 75.58 59.7303 75.39 59.4403 75.27C59.1503 75.15 58.8203 75.09 58.4703 75.09C58.1203 75.09 57.8003 75.15 57.5003 75.27C57.2103 75.39 56.9503 75.57 56.7403 75.82C56.5303 76.07 56.3603 76.37 56.2403 76.74C56.1203 77.11 56.0603 77.54 56.0603 78.03C56.0603 78.52 56.1203 78.95 56.2403 79.32C56.3603 79.69 56.5303 79.99 56.7403 80.24C56.9503 80.48 57.2103 80.67 57.5003 80.79C57.7903 80.91 58.1203 80.97 58.4703 80.97C58.8203 80.97 59.1403 80.91 59.4403 80.79C59.7303 80.67 59.9903 80.48 60.2003 80.24C60.4103 80 60.5803 79.69 60.7003 79.32C60.8203 78.95 60.8803 78.52 60.8803 78.03Z" fill="white"/>
<path d="M76.1496 82.07H74.6696V75.23H72.0596V73.99H78.7496V75.23H76.1496V82.07Z" fill="white"/>
<path d="M84.9605 77.32H88.7005V74H90.1805V82.07H88.7005V78.56H84.9605V82.07H83.4805V74H84.9605V77.32Z" fill="white"/>
<path d="M97.1802 80.83H101.15V82.07H95.7002V74H100.93V75.24H97.1802V77.33H100.4V78.57H97.1802V80.85V80.83Z" fill="white"/>
<path d="M10.3101 96.54H14.0501V93.22H15.5301V101.29H14.0501V97.78H10.3101V101.29H8.83008V93.22H10.3101V96.54Z" fill="white"/>
<path d="M25.6698 99.24H22.6298L21.8398 101.3H20.2598L23.4598 93.23H24.8098L28.0098 101.3H26.4498L25.6598 99.24H25.6698ZM24.1398 95.17C23.8598 96.01 23.6098 96.72 23.3798 97.29L23.0998 98.01H25.1898L24.9098 97.29C24.6898 96.72 24.4398 96.01 24.1498 95.17H24.1298H24.1398Z" fill="white"/>
<path d="M34.9898 98.17C34.8598 98.17 34.7298 98.17 34.5998 98.17C34.4698 98.17 34.3498 98.16 34.2398 98.15V101.31H32.7598V93.24H35.0898C35.4798 93.24 35.8198 93.26 36.1098 93.29C36.3998 93.32 36.6598 93.38 36.8898 93.44C37.4398 93.61 37.8698 93.88 38.1598 94.25C38.4598 94.62 38.6098 95.09 38.6098 95.66C38.6098 96.05 38.5298 96.4 38.3698 96.71C38.2098 97.02 37.9698 97.29 37.6598 97.5C37.3498 97.72 36.9698 97.88 36.5298 98C36.0798 98.12 35.5698 98.18 34.9898 98.18V98.17ZM34.2398 96.9C34.3298 96.91 34.4298 96.92 34.5598 96.93C34.6898 96.93 34.8298 96.93 34.9698 96.93C35.3698 96.93 35.6998 96.9 35.9698 96.83C36.2398 96.77 36.4598 96.68 36.6198 96.56C36.7798 96.45 36.8998 96.31 36.9798 96.14C37.0498 95.98 37.0898 95.8 37.0898 95.61C37.0898 95.37 37.0398 95.17 36.9298 94.99C36.8198 94.82 36.6298 94.68 36.3598 94.59C36.2198 94.54 36.0498 94.51 35.8398 94.48C35.6298 94.46 35.3798 94.45 35.0798 94.45H34.2498V96.89L34.2398 96.9Z" fill="white"/>
<path d="M45.9898 98.17C45.8598 98.17 45.7298 98.17 45.5998 98.17C45.4698 98.17 45.3498 98.16 45.2398 98.15V101.31H43.7598V93.24H46.0898C46.4798 93.24 46.8198 93.26 47.1098 93.29C47.3998 93.32 47.6598 93.38 47.8898 93.44C48.4398 93.61 48.8698 93.88 49.1598 94.25C49.4598 94.62 49.6098 95.09 49.6098 95.66C49.6098 96.05 49.5298 96.4 49.3698 96.71C49.2098 97.02 48.9698 97.29 48.6598 97.5C48.3498 97.72 47.9698 97.88 47.5298 98C47.0798 98.12 46.5698 98.18 45.9898 98.18V98.17ZM45.2398 96.9C45.3298 96.91 45.4298 96.92 45.5598 96.93C45.6898 96.93 45.8298 96.93 45.9698 96.93C46.3698 96.93 46.6998 96.9 46.9698 96.83C47.2398 96.77 47.4598 96.68 47.6198 96.56C47.7798 96.45 47.8998 96.31 47.9798 96.14C48.0498 95.98 48.0898 95.8 48.0898 95.61C48.0898 95.37 48.0398 95.17 47.9298 94.99C47.8198 94.82 47.6298 94.68 47.3598 94.59C47.2198 94.54 47.0498 94.51 46.8398 94.48C46.6298 94.46 46.3798 94.45 46.0798 94.45H45.2498V96.89L45.2398 96.9Z" fill="white"/>
<path d="M54.7705 101.29V93.22H56.2505V101.29H54.7705Z" fill="white"/>
<path d="M65.9698 96.97C66.5498 97.8 67.0198 98.53 67.3798 99.17H67.4198C67.3698 98.12 67.3498 97.36 67.3498 96.88V93.22H68.8298V101.29H67.2798L64.6498 97.57C64.1898 96.93 63.7098 96.18 63.2098 95.33H63.1698C63.2198 96.32 63.2398 97.09 63.2398 97.63V101.29H61.7598V93.22H63.3098L65.9698 96.97Z" fill="white"/>
<path d="M75.8101 100.06H79.7801V101.3H74.3301V93.23H79.5601V94.47H75.8101V96.56H79.0301V97.8H75.8101V100.08V100.06Z" fill="white"/>
<path d="M88.9097 98.98C88.9097 98.77 88.8597 98.61 88.7597 98.48C88.6597 98.35 88.5197 98.25 88.3497 98.17C88.1797 98.09 87.9797 98.02 87.7697 97.97C87.5497 97.92 87.3297 97.87 87.0897 97.82C86.7797 97.75 86.4797 97.67 86.1897 97.58C85.8997 97.49 85.6497 97.36 85.4397 97.19C85.2197 97.02 85.0497 96.81 84.9197 96.55C84.7897 96.29 84.7297 95.97 84.7297 95.58C84.7297 95.15 84.7997 94.78 84.9497 94.47C85.0997 94.15 85.2997 93.89 85.5597 93.69C85.8197 93.48 86.1197 93.33 86.4597 93.22C86.7997 93.12 87.1897 93.07 87.6197 93.07C88.0497 93.07 88.4797 93.11 88.9197 93.2C89.3497 93.28 89.7297 93.39 90.0397 93.53V94.8C89.6197 94.64 89.2197 94.52 88.8397 94.44C88.4597 94.37 88.0897 94.33 87.7597 94.33C87.2697 94.33 86.8997 94.42 86.6297 94.6C86.3697 94.78 86.2297 95.04 86.2297 95.4C86.2297 95.61 86.2697 95.77 86.3597 95.91C86.4497 96.04 86.5597 96.15 86.7097 96.24C86.8597 96.33 87.0297 96.4 87.2197 96.45C87.4097 96.5 87.6197 96.55 87.8397 96.59C88.1797 96.66 88.5097 96.75 88.8197 96.84C89.1297 96.93 89.4097 97.07 89.6497 97.24C89.8897 97.41 90.0797 97.63 90.2197 97.9C90.3597 98.17 90.4297 98.52 90.4297 98.94C90.4297 99.36 90.3497 99.75 90.1897 100.07C90.0297 100.39 89.7997 100.65 89.4997 100.86C89.1997 101.07 88.8497 101.22 88.4197 101.32C87.9997 101.42 87.5297 101.47 87.0297 101.47C86.5897 101.47 86.1597 101.43 85.7397 101.34C85.3197 101.25 84.9597 101.13 84.6797 100.98V99.73C85.0797 99.9 85.4697 100.03 85.8397 100.11C86.2197 100.19 86.6097 100.23 87.0097 100.23C87.2397 100.23 87.4697 100.21 87.6997 100.17C87.9297 100.13 88.1297 100.07 88.3097 99.97C88.4897 99.88 88.6297 99.75 88.7397 99.59C88.8497 99.43 88.8997 99.24 88.8997 99L88.9097 98.98Z" fill="white"/>
<path d="M99.6304 98.98C99.6304 98.77 99.5804 98.61 99.4804 98.48C99.3804 98.35 99.2404 98.25 99.0704 98.17C98.9004 98.09 98.7004 98.02 98.4904 97.97C98.2704 97.92 98.0504 97.87 97.8104 97.82C97.5004 97.75 97.2004 97.67 96.9104 97.58C96.6204 97.49 96.3704 97.36 96.1604 97.19C95.9404 97.02 95.7704 96.81 95.6404 96.55C95.5104 96.29 95.4504 95.97 95.4504 95.58C95.4504 95.15 95.5204 94.78 95.6704 94.47C95.8204 94.15 96.0204 93.89 96.2804 93.69C96.5404 93.48 96.8404 93.33 97.1804 93.22C97.5204 93.12 97.9104 93.07 98.3404 93.07C98.7704 93.07 99.2004 93.11 99.6404 93.2C100.07 93.28 100.45 93.39 100.76 93.53V94.8C100.34 94.64 99.9404 94.52 99.5604 94.44C99.1804 94.37 98.8104 94.33 98.4804 94.33C97.9904 94.33 97.6204 94.42 97.3504 94.6C97.0904 94.78 96.9504 95.04 96.9504 95.4C96.9504 95.61 96.9904 95.77 97.0804 95.91C97.1704 96.04 97.2804 96.15 97.4304 96.24C97.5804 96.33 97.7504 96.4 97.9404 96.45C98.1304 96.5 98.3404 96.55 98.5604 96.59C98.9004 96.66 99.2304 96.75 99.5404 96.84C99.8504 96.93 100.13 97.07 100.37 97.24C100.61 97.41 100.8 97.63 100.94 97.9C101.08 98.17 101.15 98.52 101.15 98.94C101.15 99.36 101.07 99.75 100.91 100.07C100.75 100.39 100.52 100.65 100.22 100.86C99.9204 101.07 99.5704 101.22 99.1404 101.32C98.7204 101.42 98.2504 101.47 97.7504 101.47C97.3104 101.47 96.8804 101.43 96.4604 101.34C96.0404 101.25 95.6804 101.13 95.4004 100.98V99.73C95.8004 99.9 96.1904 100.03 96.5604 100.11C96.9404 100.19 97.3304 100.23 97.7304 100.23C97.9604 100.23 98.1904 100.21 98.4204 100.17C98.6504 100.13 98.8504 100.07 99.0304 99.97C99.2104 99.88 99.3504 99.75 99.4604 99.59C99.5704 99.43 99.6204 99.24 99.6204 99L99.6304 98.98Z" fill="white"/>
<g filter="url(#filter1_d_54_489)">
<path d="M82.7204 34.29C82.5304 34.26 82.3404 34.23 82.1504 34.19C82.3204 34.28 82.5004 34.37 82.6604 34.45C82.6804 34.39 82.6904 34.34 82.7104 34.28L82.7204 34.29Z" fill="url(#paint0_linear_54_489)"/>
<path d="M61.5908 34.27C61.6108 34.35 61.6408 34.43 61.6608 34.51C61.9108 34.39 62.1608 34.26 62.4008 34.15C62.1408 34.19 61.8608 34.23 61.5908 34.27Z" fill="url(#paint1_linear_54_489)"/>
<path d="M72.2504 41.35C72.2204 41.55 72.1804 41.75 72.1504 41.95C72.2104 41.95 72.2704 41.96 72.3404 41.97C72.3104 41.77 72.2804 41.56 72.2504 41.36V41.35Z" fill="url(#paint2_linear_54_489)"/>
<path d="M66.1906 22.54C66.0606 22.28 65.9205 22 65.7805 21.73C65.7105 21.78 65.6305 21.84 65.5605 21.89C65.7705 22.11 65.9906 22.33 66.1906 22.54Z" fill="url(#paint3_linear_54_489)"/>
<path d="M78.4004 22.57C78.5804 22.39 78.7604 22.21 78.9404 22.03C78.8804 21.99 78.8104 21.94 78.7504 21.89C78.6304 22.11 78.5104 22.34 78.4004 22.56V22.57Z" fill="url(#paint4_linear_54_489)"/>
<path d="M98.93 35.7C99.36 38.35 98.49 41.12 96.5 43.06C96.72 43.44 96.88 43.82 97 44.2C99.61 41.88 100.69 38.37 100 35.08C99.68 35.32 99.32 35.53 98.92 35.7H98.93Z" fill="url(#paint5_linear_54_489)"/>
<path d="M75.9702 57.72C75.1202 58.18 74.2002 58.5 73.2102 58.65C71.4602 58.91 69.7202 58.62 68.1802 57.83C67.8802 58.15 67.5702 58.41 67.2402 58.63C68.6802 59.46 70.2902 59.91 71.9502 59.91C72.4302 59.91 72.9102 59.87 73.3902 59.8C74.6402 59.61 75.8202 59.19 76.8802 58.56C76.5602 58.33 76.2602 58.05 75.9802 57.72H75.9702Z" fill="url(#paint6_linear_54_489)"/>
<path d="M53.24 11.4C53.66 10.5 54.23 9.67 54.96 8.95C56.3 7.64 58 6.83 59.83 6.61C59.9 6.18 60.01 5.78 60.17 5.41C57.9 5.57 55.79 6.51 54.15 8.12C53.21 9.05 52.48 10.14 52 11.33C52.4 11.31 52.82 11.33 53.25 11.4H53.24Z" fill="url(#paint7_linear_54_489)"/>
<path d="M85.0004 6.87C85.9104 7.01 86.8104 7.28 87.6504 7.72C89.3204 8.59 90.5804 9.97 91.3604 11.64C91.8004 11.55 92.2104 11.52 92.6204 11.54C91.2504 8.19 88.1404 5.99 84.6904 5.65C84.8404 6.02 84.9404 6.43 85.0004 6.87Z" fill="url(#paint8_linear_54_489)"/>
<path d="M47.8803 42.87C45.8103 40.98 44.7903 38.12 45.2703 35.27C44.8703 35.07 44.5203 34.83 44.2103 34.56C43.4103 38.11 44.7203 41.74 47.4003 43.99C47.5103 43.61 47.6703 43.24 47.8803 42.86V42.87Z" fill="url(#paint9_linear_54_489)"/>
<path d="M71.6604 30.37C70.5904 27.65 69.9703 24.83 69.3103 22.01C68.7803 19.17 68.2204 16.34 68.1104 13.41C69.1804 16.14 69.8003 18.96 70.4503 21.77C70.9703 24.61 71.5404 27.44 71.6604 30.37Z" fill="url(#paint10_linear_54_489)"/>
<path d="M69.56 13.43C69.55 14.18 68.94 14.78 68.19 14.78C67.44 14.78 66.83 14.16 66.84 13.41C66.84 12.66 67.46 12.05 68.21 12.06C68.96 12.06 69.57 12.68 69.56 13.43Z" fill="url(#paint11_linear_54_489)"/>
<path d="M72.6904 30.38C72.8604 27.46 73.4704 24.64 74.0404 21.81C74.7404 19.01 75.4104 16.2 76.5304 13.49C76.3604 16.42 75.7504 19.23 75.1804 22.06C74.4704 24.86 73.8004 27.67 72.6904 30.38Z" fill="url(#paint12_linear_54_489)"/>
<path d="M75.0703 13.48C75.0703 14.23 75.6703 14.85 76.4203 14.85C77.1703 14.85 77.7803 14.25 77.7903 13.5C77.7903 12.75 77.1903 12.13 76.4403 12.13C75.6903 12.13 75.0703 12.73 75.0703 13.48Z" fill="url(#paint13_linear_54_489)"/>
<path d="M71.3401 31.3C68.4201 31.47 65.5401 31.19 62.6701 30.95C59.8101 30.57 56.9401 30.23 54.1201 29.44C57.0401 29.27 59.9101 29.55 62.7901 29.79C65.6501 30.17 68.5201 30.51 71.3401 31.3Z" fill="url(#paint14_linear_54_489)"/>
<path d="M54.5799 28.06C55.2999 28.3 55.6799 29.07 55.4399 29.78C55.1999 30.49 54.4299 30.88 53.7199 30.64C53.0099 30.4 52.6199 29.63 52.8599 28.92C53.0999 28.21 53.8699 27.82 54.5799 28.06Z" fill="url(#paint15_linear_54_489)"/>
<path d="M71.67 30.32C68.94 29.26 66.45 27.81 63.93 26.38C61.49 24.84 59.02 23.34 56.79 21.45C59.52 22.51 62.01 23.96 64.53 25.38C66.97 26.92 69.44 28.42 71.67 30.32Z" fill="url(#paint16_linear_54_489)"/>
<path d="M56.3198 22.83C57.0298 23.07 57.8098 22.69 58.0398 21.97C58.2798 21.26 57.8898 20.49 57.1798 20.25C56.4598 20.01 55.6898 20.4 55.4498 21.11C55.2098 21.82 55.5998 22.59 56.3098 22.83H56.3198Z" fill="url(#paint17_linear_54_489)"/>
<path d="M72.1193 31.89C71.3793 34.72 70.2293 37.37 69.1093 40.03C67.8693 42.63 66.6593 45.26 65.0293 47.69C65.7693 44.86 66.9293 42.21 68.0393 39.55C69.2893 36.94 70.4993 34.32 72.1193 31.88V31.89Z" fill="url(#paint18_linear_54_489)"/>
<path d="M63.8594 46.83C64.3094 46.23 65.1594 46.1 65.7594 46.54C66.3694 46.99 66.4894 47.84 66.0494 48.45C65.5994 49.06 64.7494 49.18 64.1494 48.74C63.5394 48.29 63.4194 47.44 63.8594 46.84V46.83Z" fill="url(#paint19_linear_54_489)"/>
<path d="M71.29 31.28C69.43 33.54 67.28 35.47 65.15 37.42C62.93 39.27 60.74 41.15 58.25 42.69C60.1 40.42 62.25 38.5 64.38 36.55C66.6 34.7 68.79 32.82 71.28 31.28H71.29Z" fill="url(#paint20_linear_54_489)"/>
<path d="M59.4297 43.55C59.8697 42.95 59.7497 42.09 59.1397 41.65C58.5297 41.2 57.6797 41.33 57.2397 41.94C56.7897 42.55 56.9197 43.4 57.5297 43.84C58.1297 44.29 58.9897 44.16 59.4297 43.56V43.55Z" fill="url(#paint21_linear_54_489)"/>
<path d="M72.9297 31.33C75.3897 32.91 77.5497 34.82 79.7397 36.71C81.8397 38.7 83.9597 40.66 85.7697 42.95C83.2997 41.37 81.1397 39.46 78.9597 37.57C76.8697 35.58 74.7497 33.62 72.9297 31.33Z" fill="url(#paint22_linear_54_489)"/>
<path d="M84.5801 43.8C84.1401 43.19 84.2901 42.34 84.8901 41.9C85.5001 41.46 86.3601 41.6 86.7901 42.22C87.2301 42.83 87.0901 43.68 86.4701 44.12C85.8601 44.56 85.0101 44.41 84.5701 43.8H84.5801Z" fill="url(#paint23_linear_54_489)"/>
<path d="M72.0801 31.93C73.6601 34.39 74.8301 37.04 76.0301 39.66C77.1001 42.34 78.2101 45.01 78.9101 47.85C77.3301 45.39 76.1601 42.75 74.9601 40.12C73.8901 37.44 72.7801 34.77 72.0801 31.93Z" fill="url(#paint24_linear_54_489)"/>
<path d="M80.0897 47C79.6497 46.39 78.7997 46.25 78.1897 46.68C77.5797 47.12 77.4397 47.97 77.8797 48.58C78.3097 49.19 79.1697 49.33 79.7797 48.9C80.3897 48.46 80.5397 47.61 80.0997 47H80.0897Z" fill="url(#paint25_linear_54_489)"/>
<path d="M72.6396 30.39C74.8996 28.53 77.3896 27.07 79.8596 25.57C82.3996 24.19 84.9197 22.78 87.6597 21.77C85.3997 23.63 82.9097 25.09 80.4397 26.58C77.8997 27.96 75.3796 29.37 72.6396 30.39Z" fill="url(#paint26_linear_54_489)"/>
<path d="M88.0994 23.16C87.3794 23.39 86.6194 22.99 86.3894 22.27C86.1694 21.55 86.5594 20.79 87.2794 20.56C87.9994 20.34 88.7594 20.73 88.9894 21.45C89.2194 22.16 88.8194 22.93 88.0994 23.16Z" fill="url(#paint27_linear_54_489)"/>
<path d="M72.9492 31.38C75.7792 30.64 78.6492 30.35 81.5192 30.02C84.3992 29.83 87.2792 29.59 90.1992 29.82C87.3692 30.57 84.4992 30.86 81.6292 31.19C78.7492 31.38 75.8692 31.61 72.9492 31.39V31.38Z" fill="url(#paint28_linear_54_489)"/>
<path d="M89.7599 28.42C89.0399 28.64 88.6499 29.41 88.8699 30.13C89.0999 30.85 89.8599 31.24 90.5799 31.02C91.2999 30.79 91.6899 30.03 91.4699 29.31C91.2399 28.59 90.4799 28.19 89.7599 28.42Z" fill="url(#paint29_linear_54_489)"/>
<path d="M95.9201 36.66C98.2201 36.66 99.6601 35.9 100.5 35.19C101.69 34.19 102.41 32.69 102.47 31.08C102.57 28.5 100.89 25.6 98.2001 23.66C97.6901 23.29 97.4301 22.5 97.6401 21.9C98.7401 18.78 98.4301 15.43 96.8801 13.38C95.9001 12.1 94.4501 11.29 92.9001 11.15C91.5801 11.02 89.4701 11.36 87.0501 13.6C85.3201 15.2 82.5401 17.93 79.9001 20.53C81.6001 17.27 83.3701 13.84 84.3901 11.74C85.8201 8.78 85.5301 6.67 85.0201 5.43C84.4401 3.98 83.2301 2.83 81.7201 2.28C79.3101 1.4 76.0201 2.09 73.3501 4.05C72.8401 4.43 72.0101 4.42 71.5101 4.04C68.8701 2.04 65.6001 1.29 63.1701 2.14C61.6501 2.67 60.4301 3.79 59.8201 5.23C59.3001 6.47 58.9601 8.57 60.3401 11.55C61.3301 13.69 63.0501 17.18 64.7101 20.48C62.1401 17.86 59.4301 15.11 57.7401 13.5C55.3601 11.22 53.2701 10.84 51.9301 10.95C50.3701 11.06 48.9101 11.85 47.9201 13.11C46.3301 15.13 45.9701 18.47 47.0101 21.62C47.2101 22.22 46.9401 23.01 46.4301 23.37C43.7101 25.25 41.9901 28.13 42.0401 30.71C42.0701 32.32 42.7701 33.83 43.9501 34.85C44.8001 35.59 46.2801 36.39 48.6801 36.39C49.1301 36.39 49.6101 36.36 50.1201 36.3C52.4601 36.02 56.3101 35.46 59.9701 34.9C56.6801 36.53 53.2401 38.27 51.1801 39.37C48.2801 40.93 47.2901 42.8 46.9601 44.11C46.5801 45.62 46.8801 47.26 47.7801 48.6C49.2101 50.73 52.2401 52.09 55.5301 52.09C55.5501 52.09 55.5801 52.09 55.6001 52.09C56.2401 52.09 56.8901 52.57 57.0701 53.19C58.0201 56.36 60.2301 58.89 62.7001 59.63C63.2501 59.8 63.8101 59.88 64.3701 59.88C65.3801 59.88 66.3701 59.61 67.2301 59.09C68.3801 58.4 69.8801 56.9 70.5201 53.67C70.9801 51.36 71.6301 47.52 72.2301 43.87C72.7701 47.5 73.3501 51.32 73.7601 53.61C74.3501 56.85 75.8301 58.38 76.9701 59.09C77.8501 59.64 78.8601 59.92 79.9101 59.92C80.4301 59.92 80.9701 59.84 81.4901 59.7C83.9701 59 86.2201 56.5 87.2301 53.35C87.4201 52.75 88.0801 52.28 88.7101 52.28C88.7901 52.28 88.9001 52.28 89.0001 52.28C92.2101 52.28 95.1701 50.98 96.6001 48.92C97.5201 47.6 97.8501 45.97 97.4901 44.45C97.1901 43.14 96.2201 41.25 93.3501 39.64C91.2901 38.49 87.8401 36.68 84.5601 34.98C88.1801 35.59 91.9901 36.22 94.3001 36.53C94.8801 36.61 95.4201 36.65 95.9201 36.65V36.66ZM87.5901 14.17C89.3401 12.55 91.1601 11.79 92.8501 11.92C94.1801 12.04 95.4301 12.74 96.2801 13.85C97.6901 15.7 97.9401 18.76 96.9301 21.65C96.6101 22.58 96.9601 23.72 97.7601 24.3C100.24 26.08 101.79 28.73 101.7 31.06C101.65 32.45 101.03 33.74 100 34.6C98.7001 35.69 96.7601 36.1 94.4001 35.78C89.3701 35.09 77.2301 32.95 75.4001 32.62L74.3401 29.28H75.2801L75.3901 29.08C75.4201 29.02 76.9001 26.24 78.7101 22.81C81.7701 19.78 85.4701 16.14 87.5801 14.18L87.5901 14.17ZM61.0501 11.21C60.0501 9.05 59.8701 7.08 60.5401 5.51C61.0601 4.28 62.1201 3.31 63.4301 2.85C65.6401 2.09 68.6201 2.79 71.0501 4.64C71.8401 5.24 73.0301 5.24 73.8201 4.66C76.2801 2.85 79.2901 2.2 81.4601 3C82.7701 3.48 83.8001 4.47 84.3001 5.71C84.9401 7.29 84.7301 9.25 83.6901 11.39C81.4801 15.96 75.6901 26.85 74.8101 28.49L71.3101 28.46L71.6101 27.57L71.4501 27.4C71.4501 27.4 69.2201 25.08 66.5101 22.31C64.5701 18.46 62.2501 13.82 61.0401 11.21H61.0501ZM50.0301 35.53C47.6701 35.81 45.7401 35.37 44.4601 34.26C43.4501 33.38 42.8501 32.08 42.8201 30.69C42.7701 28.36 44.3601 25.74 46.8701 24C47.6801 23.44 48.0601 22.31 47.7501 21.37C46.7901 18.47 47.1001 15.41 48.5301 13.59C49.3901 12.49 50.6501 11.81 51.9901 11.72C52.1001 11.72 52.2101 11.71 52.3201 11.71C53.9201 11.71 55.6001 12.52 57.2101 14.06C60.8701 17.57 69.4401 26.45 70.7301 27.79L69.0901 32.71C67.2501 33 55.0701 34.95 50.0301 35.55V35.53ZM69.7601 53.53C69.3001 55.86 68.2901 57.56 66.8301 58.44C65.6801 59.13 64.2501 59.3 62.9201 58.9C60.7001 58.23 58.6901 55.9 57.8101 52.98C57.5301 52.04 56.5801 51.33 55.6001 51.33C55.5801 51.33 55.5501 51.33 55.5201 51.33C52.4901 51.33 49.7101 50.1 48.4301 48.18C47.6501 47.02 47.3901 45.62 47.7201 44.31C48.1301 42.66 49.4601 41.2 51.5501 40.07C54.0701 38.72 58.6701 36.42 62.5201 34.52C66.3201 33.93 69.3801 33.44 69.4501 33.43L69.6801 33.39L70.0201 32.36L72.9501 34.53C72.6601 36.37 70.7501 48.55 69.7601 53.53ZM92.9701 40.33C95.0401 41.49 96.3401 42.98 96.7301 44.63C97.0301 45.94 96.7501 47.34 95.9601 48.49C94.6701 50.35 91.9601 51.52 89.0001 51.52C88.9001 51.52 88.8101 51.52 88.7001 51.52C87.7301 51.52 86.7801 52.21 86.4801 53.13C85.5601 56.04 83.5101 58.33 81.2701 58.97C79.9301 59.34 78.5101 59.16 77.3801 58.45C75.9401 57.55 74.9501 55.83 74.5301 53.49C74.0301 50.68 73.2601 45.6 72.6501 41.35C73.2601 37.56 73.7401 34.49 73.7601 34.42L73.8001 34.19L70.2901 31.59L71.0701 29.25L73.5401 29.27L74.8101 33.3L75.0401 33.34C75.1101 33.35 78.2101 33.9 82.0301 34.56C85.8601 36.53 90.4701 38.93 92.9801 40.33H92.9701Z" fill="url(#paint30_linear_54_489)"/>
<path d="M77.6597 31C77.6297 34.01 75.1697 36.43 72.1697 36.4C69.1597 36.38 66.7497 33.91 66.7697 30.91C66.7897 27.9 69.2497 25.49 72.2597 25.51C75.2697 25.53 77.6897 27.99 77.6597 31Z" fill="url(#paint31_linear_54_489)"/>
</g>
</g>
<defs>
<filter id="filter0_d_54_489" x="115.68" y="-2.83" width="361.18" height="113.29" filterUnits="userSpaceOnUse" color-interpolation-filters="sRGB">
<feFlood flood-opacity="0" result="BackgroundImageFix"/>
<feColorMatrix in="SourceAlpha" type="matrix" values="0 0 0 0 0 0 0 0 0 0 0 0 0 0 0 0 0 0 127 0" result="hardAlpha"/>
<feOffset dx="2.83" dy="2.83"/>
<feGaussianBlur stdDeviation="2.83"/>
<feColorMatrix type="matrix" values="0 0 0 0 0.0823529 0 0 0 0 0.341176 0 0 0 0 0.321569 0 0 0 0.75 0"/>
<feBlend mode="normal" in2="BackgroundImageFix" result="effect1_dropShadow_54_489"/>
<feBlend mode="normal" in="SourceGraphic" in2="effect1_dropShadow_54_489" result="shape"/>
</filter>
<filter id="filter1_d_54_489" x="41.7491" y="1.50446" width="62.7155" height="60.4055" filterUnits="userSpaceOnUse" color-interpolation-filters="sRGB">
<feFlood flood-opacity="0" result="BackgroundImageFix"/>
<feColorMatrix in="SourceAlpha" type="matrix" values="0 0 0 0 0 0 0 0 0 0 0 0 0 0 0 0 0 0 127 0" result="hardAlpha"/>
<feOffset dx="0.85" dy="0.85"/>
<feGaussianBlur stdDeviation="0.57"/>
<feColorMatrix type="matrix" values="0 0 0 0 0.0823529 0 0 0 0 0.341176 0 0 0 0 0.321569 0 0 0 0.5 0"/>
<feBlend mode="normal" in2="BackgroundImageFix" result="effect1_dropShadow_54_489"/>
<feBlend mode="normal" in="SourceGraphic" in2="effect1_dropShadow_54_489" result="shape"/>
</filter>
<linearGradient id="paint0_linear_54_489" x1="82.1504" y1="34.32" x2="82.7204" y2="34.32" gradientUnits="userSpaceOnUse">
<stop offset="0.03" stop-color="#A2814F"/>
<stop offset="0.29" stop-color="#FCE0BA"/>
<stop offset="0.57" stop-color="#C9A063"/>
<stop offset="0.78" stop-color="#F4DEC1"/>
<stop offset="1" stop-color="#AE8E5E"/>
</linearGradient>
<linearGradient id="paint1_linear_54_489" x1="61.5908" y1="34.33" x2="62.4008" y2="34.33" gradientUnits="userSpaceOnUse">
<stop offset="0.03" stop-color="#A2814F"/>
<stop offset="0.29" stop-color="#FCE0BA"/>
<stop offset="0.57" stop-color="#C9A063"/>
<stop offset="0.78" stop-color="#F4DEC1"/>
<stop offset="1" stop-color="#AE8E5E"/>
</linearGradient>
<linearGradient id="paint2_linear_54_489" x1="72.1604" y1="41.65" x2="72.3404" y2="41.65" gradientUnits="userSpaceOnUse">
<stop offset="0.03" stop-color="#A2814F"/>
<stop offset="0.29" stop-color="#FCE0BA"/>
<stop offset="0.57" stop-color="#C9A063"/>
<stop offset="0.78" stop-color="#F4DEC1"/>
<stop offset="1" stop-color="#AE8E5E"/>
</linearGradient>
<linearGradient id="paint3_linear_54_489" x1="65.5605" y1="22.14" x2="66.1906" y2="22.14" gradientUnits="userSpaceOnUse">
<stop offset="0.03" stop-color="#A2814F"/>
<stop offset="0.29" stop-color="#FCE0BA"/>
<stop offset="0.57" stop-color="#C9A063"/>
<stop offset="0.78" stop-color="#F4DEC1"/>
<stop offset="1" stop-color="#AE8E5E"/>
</linearGradient>
<linearGradient id="paint4_linear_54_489" x1="78.4004" y1="22.24" x2="78.9504" y2="22.24" gradientUnits="userSpaceOnUse">
<stop offset="0.03" stop-color="#A2814F"/>
<stop offset="0.29" stop-color="#FCE0BA"/>
<stop offset="0.57" stop-color="#C9A063"/>
<stop offset="0.78" stop-color="#F4DEC1"/>
<stop offset="1" stop-color="#AE8E5E"/>
</linearGradient>
<linearGradient id="paint5_linear_54_489" x1="96.5" y1="39.64" x2="100.21" y2="39.64" gradientUnits="userSpaceOnUse">
<stop offset="0.03" stop-color="#A2814F"/>
<stop offset="0.29" stop-color="#FCE0BA"/>
<stop offset="0.57" stop-color="#C9A063"/>
<stop offset="0.78" stop-color="#F4DEC1"/>
<stop offset="1" stop-color="#AE8E5E"/>
</linearGradient>
<linearGradient id="paint6_linear_54_489" x1="67.2402" y1="58.82" x2="76.8702" y2="58.82" gradientUnits="userSpaceOnUse">
<stop offset="0.03" stop-color="#A2814F"/>
<stop offset="0.29" stop-color="#FCE0BA"/>
<stop offset="0.57" stop-color="#C9A063"/>
<stop offset="0.78" stop-color="#F4DEC1"/>
<stop offset="1" stop-color="#AE8E5E"/>
</linearGradient>
<linearGradient id="paint7_linear_54_489" x1="51.99" y1="8.4" x2="60.16" y2="8.4" gradientUnits="userSpaceOnUse">
<stop offset="0.03" stop-color="#A2814F"/>
<stop offset="0.29" stop-color="#FCE0BA"/>
<stop offset="0.57" stop-color="#C9A063"/>
<stop offset="0.78" stop-color="#F4DEC1"/>
<stop offset="1" stop-color="#AE8E5E"/>
</linearGradient>
<linearGradient id="paint8_linear_54_489" x1="84.6904" y1="8.65" x2="92.6204" y2="8.65" gradientUnits="userSpaceOnUse">
<stop offset="0.03" stop-color="#A2814F"/>
<stop offset="0.29" stop-color="#FCE0BA"/>
<stop offset="0.57" stop-color="#C9A063"/>
<stop offset="0.78" stop-color="#F4DEC1"/>
<stop offset="1" stop-color="#AE8E5E"/>
</linearGradient>
<linearGradient id="paint9_linear_54_489" x1="43.9803" y1="39.29" x2="47.8803" y2="39.29" gradientUnits="userSpaceOnUse">
<stop offset="0.03" stop-color="#A2814F"/>
<stop offset="0.29" stop-color="#FCE0BA"/>
<stop offset="0.57" stop-color="#C9A063"/>
<stop offset="0.78" stop-color="#F4DEC1"/>
<stop offset="1" stop-color="#AE8E5E"/>
</linearGradient>
<linearGradient id="paint10_linear_54_489" x1="68.1004" y1="21.9" x2="71.6604" y2="21.9" gradientUnits="userSpaceOnUse">
<stop offset="0.03" stop-color="#A2814F"/>
<stop offset="0.29" stop-color="#FCE0BA"/>
<stop offset="0.57" stop-color="#C9A063"/>
<stop offset="0.78" stop-color="#F4DEC1"/>
<stop offset="1" stop-color="#AE8E5E"/>
</linearGradient>
<linearGradient id="paint11_linear_54_489" x1="66.84" y1="13.42" x2="69.56" y2="13.42" gradientUnits="userSpaceOnUse">
<stop offset="0.03" stop-color="#A2814F"/>
<stop offset="0.29" stop-color="#FCE0BA"/>
<stop offset="0.57" stop-color="#C9A063"/>
<stop offset="0.78" stop-color="#F4DEC1"/>
<stop offset="1" stop-color="#AE8E5E"/>
</linearGradient>
<linearGradient id="paint12_linear_54_489" x1="72.6904" y1="21.94" x2="76.5304" y2="21.94" gradientUnits="userSpaceOnUse">
<stop offset="0.03" stop-color="#A2814F"/>
<stop offset="0.29" stop-color="#FCE0BA"/>
<stop offset="0.57" stop-color="#C9A063"/>
<stop offset="0.78" stop-color="#F4DEC1"/>
<stop offset="1" stop-color="#AE8E5E"/>
</linearGradient>
<linearGradient id="paint13_linear_54_489" x1="75.0703" y1="13.49" x2="77.7903" y2="13.49" gradientUnits="userSpaceOnUse">
<stop offset="0.03" stop-color="#A2814F"/>
<stop offset="0.29" stop-color="#FCE0BA"/>
<stop offset="0.57" stop-color="#C9A063"/>
<stop offset="0.78" stop-color="#F4DEC1"/>
<stop offset="1" stop-color="#AE8E5E"/>
</linearGradient>
<linearGradient id="paint14_linear_54_489" x1="54.1201" y1="30.37" x2="71.3401" y2="30.37" gradientUnits="userSpaceOnUse">
<stop offset="0.03" stop-color="#A2814F"/>
<stop offset="0.29" stop-color="#FCE0BA"/>
<stop offset="0.57" stop-color="#C9A063"/>
<stop offset="0.78" stop-color="#F4DEC1"/>
<stop offset="1" stop-color="#AE8E5E"/>
</linearGradient>
<linearGradient id="paint15_linear_54_489" x1="52.7799" y1="29.35" x2="55.5099" y2="29.35" gradientUnits="userSpaceOnUse">
<stop offset="0.03" stop-color="#A2814F"/>
<stop offset="0.29" stop-color="#FCE0BA"/>
<stop offset="0.57" stop-color="#C9A063"/>
<stop offset="0.78" stop-color="#F4DEC1"/>
<stop offset="1" stop-color="#AE8E5E"/>
</linearGradient>
<linearGradient id="paint16_linear_54_489" x1="56.79" y1="25.88" x2="71.67" y2="25.88" gradientUnits="userSpaceOnUse">
<stop offset="0.03" stop-color="#A2814F"/>
<stop offset="0.29" stop-color="#FCE0BA"/>
<stop offset="0.57" stop-color="#C9A063"/>
<stop offset="0.78" stop-color="#F4DEC1"/>
<stop offset="1" stop-color="#AE8E5E"/>
</linearGradient>
<linearGradient id="paint17_linear_54_489" x1="55.3898" y1="21.54" x2="58.1198" y2="21.54" gradientUnits="userSpaceOnUse">
<stop offset="0.03" stop-color="#A2814F"/>
<stop offset="0.29" stop-color="#FCE0BA"/>
<stop offset="0.57" stop-color="#C9A063"/>
<stop offset="0.78" stop-color="#F4DEC1"/>
<stop offset="1" stop-color="#AE8E5E"/>
</linearGradient>
<linearGradient id="paint18_linear_54_489" x1="65.0293" y1="39.79" x2="72.1193" y2="39.79" gradientUnits="userSpaceOnUse">
<stop offset="0.03" stop-color="#A2814F"/>
<stop offset="0.29" stop-color="#FCE0BA"/>
<stop offset="0.57" stop-color="#C9A063"/>
<stop offset="0.78" stop-color="#F4DEC1"/>
<stop offset="1" stop-color="#AE8E5E"/>
</linearGradient>
<linearGradient id="paint19_linear_54_489" x1="63.5894" y1="47.64" x2="66.3194" y2="47.64" gradientUnits="userSpaceOnUse">
<stop offset="0.03" stop-color="#A2814F"/>
<stop offset="0.29" stop-color="#FCE0BA"/>
<stop offset="0.57" stop-color="#C9A063"/>
<stop offset="0.78" stop-color="#F4DEC1"/>
<stop offset="1" stop-color="#AE8E5E"/>
</linearGradient>
<linearGradient id="paint20_linear_54_489" x1="58.26" y1="36.98" x2="71.29" y2="36.98" gradientUnits="userSpaceOnUse">
<stop offset="0.03" stop-color="#A2814F"/>
<stop offset="0.29" stop-color="#FCE0BA"/>
<stop offset="0.57" stop-color="#C9A063"/>
<stop offset="0.78" stop-color="#F4DEC1"/>
<stop offset="1" stop-color="#AE8E5E"/>
</linearGradient>
<linearGradient id="paint21_linear_54_489" x1="56.9697" y1="42.74" x2="59.6897" y2="42.74" gradientUnits="userSpaceOnUse">
<stop offset="0.03" stop-color="#A2814F"/>
<stop offset="0.29" stop-color="#FCE0BA"/>
<stop offset="0.57" stop-color="#C9A063"/>
<stop offset="0.78" stop-color="#F4DEC1"/>
<stop offset="1" stop-color="#AE8E5E"/>
</linearGradient>
<linearGradient id="paint22_linear_54_489" x1="72.9297" y1="37.14" x2="85.7597" y2="37.14" gradientUnits="userSpaceOnUse">
<stop offset="0.03" stop-color="#A2814F"/>
<stop offset="0.29" stop-color="#FCE0BA"/>
<stop offset="0.57" stop-color="#C9A063"/>
<stop offset="0.78" stop-color="#F4DEC1"/>
<stop offset="1" stop-color="#AE8E5E"/>
</linearGradient>
<linearGradient id="paint23_linear_54_489" x1="84.3201" y1="43.01" x2="87.0501" y2="43.01" gradientUnits="userSpaceOnUse">
<stop offset="0.03" stop-color="#A2814F"/>
<stop offset="0.29" stop-color="#FCE0BA"/>
<stop offset="0.57" stop-color="#C9A063"/>
<stop offset="0.78" stop-color="#F4DEC1"/>
<stop offset="1" stop-color="#AE8E5E"/>
</linearGradient>
<linearGradient id="paint24_linear_54_489" x1="72.0801" y1="39.89" x2="78.9101" y2="39.89" gradientUnits="userSpaceOnUse">
<stop offset="0.03" stop-color="#A2814F"/>
<stop offset="0.29" stop-color="#FCE0BA"/>
<stop offset="0.57" stop-color="#C9A063"/>
<stop offset="0.78" stop-color="#F4DEC1"/>
<stop offset="1" stop-color="#AE8E5E"/>
</linearGradient>
<linearGradient id="paint25_linear_54_489" x1="77.6197" y1="47.79" x2="80.3497" y2="47.79" gradientUnits="userSpaceOnUse">
<stop offset="0.03" stop-color="#A2814F"/>
<stop offset="0.29" stop-color="#FCE0BA"/>
<stop offset="0.57" stop-color="#C9A063"/>
<stop offset="0.78" stop-color="#F4DEC1"/>
<stop offset="1" stop-color="#AE8E5E"/>
</linearGradient>
<linearGradient id="paint26_linear_54_489" x1="72.6396" y1="26.08" x2="87.6597" y2="26.08" gradientUnits="userSpaceOnUse">
<stop offset="0.03" stop-color="#A2814F"/>
<stop offset="0.29" stop-color="#FCE0BA"/>
<stop offset="0.57" stop-color="#C9A063"/>
<stop offset="0.78" stop-color="#F4DEC1"/>
<stop offset="1" stop-color="#AE8E5E"/>
</linearGradient>
<linearGradient id="paint27_linear_54_489" x1="86.3294" y1="21.86" x2="89.0494" y2="21.86" gradientUnits="userSpaceOnUse">
<stop offset="0.03" stop-color="#A2814F"/>
<stop offset="0.29" stop-color="#FCE0BA"/>
<stop offset="0.57" stop-color="#C9A063"/>
<stop offset="0.78" stop-color="#F4DEC1"/>
<stop offset="1" stop-color="#AE8E5E"/>
</linearGradient>
<linearGradient id="paint28_linear_54_489" x1="72.9492" y1="30.59" x2="90.1992" y2="30.59" gradientUnits="userSpaceOnUse">
<stop offset="0.03" stop-color="#A2814F"/>
<stop offset="0.29" stop-color="#FCE0BA"/>
<stop offset="0.57" stop-color="#C9A063"/>
<stop offset="0.78" stop-color="#F4DEC1"/>
<stop offset="1" stop-color="#AE8E5E"/>
</linearGradient>
<linearGradient id="paint29_linear_54_489" x1="88.8099" y1="29.71" x2="91.5299" y2="29.71" gradientUnits="userSpaceOnUse">
<stop offset="0.03" stop-color="#A2814F"/>
<stop offset="0.29" stop-color="#FCE0BA"/>
<stop offset="0.57" stop-color="#C9A063"/>
<stop offset="0.78" stop-color="#F4DEC1"/>
<stop offset="1" stop-color="#AE8E5E"/>
</linearGradient>
<linearGradient id="paint30_linear_54_489" x1="42.0401" y1="30.86" x2="102.48" y2="30.86" gradientUnits="userSpaceOnUse">
<stop offset="0.03" stop-color="#A2814F"/>
<stop offset="0.29" stop-color="#FCE0BA"/>
<stop offset="0.57" stop-color="#C9A063"/>
<stop offset="0.78" stop-color="#F4DEC1"/>
<stop offset="1" stop-color="#AE8E5E"/>
</linearGradient>
<linearGradient id="paint31_linear_54_489" x1="66.7597" y1="30.96" x2="77.6597" y2="30.96" gradientUnits="userSpaceOnUse">
<stop offset="0.03" stop-color="#A2814F"/>
<stop offset="0.29" stop-color="#FCE0BA"/>
<stop offset="0.57" stop-color="#C9A063"/>
<stop offset="0.78" stop-color="#F4DEC1"/>
<stop offset="1" stop-color="#AE8E5E"/>
</linearGradient>
<clipPath id="clip0_54_489">
<rect width="468.38" height="101.97" fill="white"/>
</clipPath>
</defs>
</svg>
