<svg width="14" height="26" viewBox="0 0 14 26" fill="none" xmlns="http://www.w3.org/2000/svg">
<path d="M2.67395 4.10187e-05C2.96381 -0.000866855 3.25021 0.058076 3.5121 0.172536C3.77399 0.286996 4.00472 0.454068 4.18733 0.661472L13.5586 11.3873C13.844 11.7072 14 12.1084 14 12.5225C14 12.9366 13.844 13.3378 13.5586 13.6576L3.85749 24.3835C3.52816 24.7486 3.05491 24.9781 2.54187 25.0217C2.02882 25.0653 1.51799 24.9193 1.12177 24.6159C0.725542 24.3125 0.47637 23.8764 0.429068 23.4037C0.381766 22.931 0.540207 22.4604 0.869539 22.0953L9.54235 12.5135L1.16058 2.93178C0.923319 2.66938 0.772608 2.34985 0.726276 2.01101C0.679944 1.67216 0.73993 1.32818 0.899137 1.01976C1.05834 0.711339 1.31011 0.451396 1.62464 0.270682C1.93917 0.0899686 2.3033 -0.00394728 2.67395 4.10187e-05Z" fill="white" fill-opacity="0.8"/>
</svg>
