<?xml version="1.0" encoding="utf-8"?>
<!-- Generator: Adobe Illustrator 26.5.0, SVG Export Plug-In . SVG Version: 6.00 Build 0)  -->
<svg version="1.1" id="圖層_1" xmlns="http://www.w3.org/2000/svg" xmlns:xlink="http://www.w3.org/1999/xlink" x="0px" y="0px"
	 viewBox="0 0 801 20" style="enable-background:new 0 0 801 20;" xml:space="preserve">
<style type="text/css">
	.st0{fill:#231815;}
</style>
<path class="st0" d="M0,8.4c0-5.7,5.7-8.7,9.1-5.1l-0.8,1C5.5,1.3,1.5,3.8,1.5,8.3c0,4.8,4.2,7.2,7.2,3.9l0.8,0.9
	C5.9,17.2,0,14.4,0,8.4z M15.4,5.1c5.8,0,5.8,10,0,10S9.6,5.1,15.4,5.1z M15.4,6.3c-3.9,0-3.9,7.6,0,7.6S19.3,6.3,15.4,6.3z
	 M145.4,5.1c5.8,0,5.8,10,0,10C139.6,15.1,139.6,5.1,145.4,5.1z M145.4,6.3c-3.9,0-3.9,7.6,0,7.6C149.3,13.9,149.3,6.3,145.4,6.3z
	 M251.5,5.1c5.8,0,5.8,10,0,10S245.7,5.1,251.5,5.1z M251.5,6.3c-3.9,0-3.9,7.6,0,7.6S255.4,6.3,251.5,6.3z M23.8,18.9h-1.4V5.3h1.2
	l0.1,1.1c2-1.9,6.9-2.4,6.9,3.5c0,4.5-3.8,6.6-6.8,4V18.9z M29.1,9.9c0-4.5-3.6-4.3-5.3-2.3v5.1C26.3,15,29.1,13.6,29.1,9.9z
	 M454.5,0.8h1.4v14h-1.2l-0.1-1.1c-2,1.9-6.9,2.4-6.9-3.5c0-4.5,3.8-6.6,6.8-4V0.8z M449.2,10.2c0,4.5,3.6,4.3,5.3,2.3V7.3
	C452,5.2,449.2,6.5,449.2,10.2z M38.8,5.3h1.4l-3.6,10.4c-0.7,2.2-2.4,3.9-4.6,3.1l0.3-1.2c1.7,0.7,2.8-1.1,3.2-2.7l-3.8-9.5h1.5
	l3,8.1L38.8,5.3z M43.5,7.1c0.8-1.5,2.2-2.4,3.7-1.8l-0.3,1.2c-1.4-0.5-2.4,0-3.3,2.1v6.2h-1.4V5.3h1.2L43.5,7.1z M48.5,2.3
	c0-1.3,2.1-1.3,2.1,0C50.5,3.6,48.5,3.6,48.5,2.3z M48.8,5.3h1.4v9.5h-1.4V5.3z M54.3,11.1c-3-2.3,0.1-7.4,3.6-5.8h3.3v1.1h-2
	c2.5,2.6-1,6.7-4.1,5c-1.6,1.6,0,2.5,2.2,2.3c6.1-0.6,4.8,5.5-0.7,5.5c-5,0-4.5-3.7-2.5-4.8C52.9,13.8,53.2,11.7,54.3,11.1z
	 M60,16.2c0-2.1-3.5-0.9-4.9-1.4C51,18.5,60,19.6,60,16.2z M58.8,8.5c0.1-3.1-4.3-3.1-4.3,0C54.5,11.6,58.8,11.6,58.8,8.5z
	 M133.1,11.1c-3-2.3,0.1-7.4,3.6-5.8h3.3v1.1h-2c2.5,2.6-1,6.7-4.1,5c-1.6,1.6,0,2.5,2.2,2.3c6.1-0.6,4.8,5.5-0.7,5.5
	c-5,0-4.5-3.7-2.5-4.8C131.6,13.8,132,11.7,133.1,11.1z M138.8,16.2c0-2.1-3.5-0.9-4.9-1.4C129.8,18.5,138.8,19.6,138.8,16.2z
	 M137.5,8.5c0.1-3.1-4.3-3.1-4.3,0C133.3,11.6,137.6,11.6,137.5,8.5z M64.7,6.7c2.9-3.1,6-1.4,6,1.6v6.5h-1.4V8.6
	c0-3-2.8-2.8-4.6-0.7v6.9h-1.4v-14h1.4V6.7z M74.2,6.5h-1.4V5.4l1.5-0.1l0.2-2.7h1.2v2.7h2.6v1.2h-2.6V12c0,1.8,1,2.3,2.6,1.6
	l0.3,1.1c-3,0.9-4.3-0.2-4.3-2.7L74.2,6.5z M340,7.1c0.8-1.5,2.2-2.4,3.7-1.8l-0.3,1.2c-1.4-0.5-2.4,0-3.3,2.1v6.2h-1.4V5.3h1.2
	L340,7.1z M390.1,7.1c0.8-1.5,2.2-2.4,3.7-1.8l-0.3,1.2c-1.4-0.5-2.4,0-3.3,2.1v6.2h-1.4V5.3h1.2L390.1,7.1z M424.1,7.1
	c0.8-1.5,2.2-2.4,3.7-1.8l-0.3,1.2c-1.4-0.5-2.4,0-3.3,2.1v6.2h-1.4V5.3h1.2L424.1,7.1z M345,2.3c0-1.3,2.1-1.3,2.1,0
	C347.1,3.6,345,3.6,345,2.3z M345.3,5.3h1.4v9.5h-1.4V5.3z M350.9,11.1c-3-2.3,0.1-7.4,3.6-5.8h3.3v1.1h-2c2.5,2.6-1,6.7-4.1,5
	c-1.6,1.6,0,2.5,2.2,2.3c6.1-0.6,4.8,5.5-0.7,5.5c-5,0-4.5-3.7-2.5-4.8C349.4,13.8,349.8,11.7,350.9,11.1z M356.5,16.2
	c0-2.1-3.5-0.9-4.9-1.4C347.6,18.5,356.6,19.6,356.5,16.2z M355.3,8.5c0.1-3.1-4.3-3.1-4.3,0C351.1,11.6,355.4,11.6,355.3,8.5z
	 M361.3,6.7c2.9-3.1,6-1.4,6,1.6v6.5h-1.4V8.6c0-3-2.8-2.8-4.6-0.7v6.9h-1.4v-14h1.4V6.7z M370.7,6.5h-1.4V5.4l1.5-0.1l0.2-2.7h1.2
	v2.7h2.6v1.2h-2.6V12c0,1.8,1,2.3,2.6,1.6l0.3,1.1c-3,0.9-4.3-0.2-4.3-2.7L370.7,6.5z M281.9,6.5h-1.4V5.4l1.5-0.1l0.2-2.7h1.2v2.7
	h2.6v1.2h-2.6V12c0,1.8,1,2.3,2.6,1.6l0.3,1.1c-3,0.9-4.3-0.2-4.3-2.7L281.9,6.5z M83.6,8.5c0-8.5,12.6-8.5,12.6,0
	C96.2,17.1,83.6,17.1,83.6,8.5z M95.4,8.5c0-7.5-10.9-7.5-10.9,0C84.5,16.1,95.4,16.1,95.4,8.5z M86.5,8.5c0-3.4,4-4.9,6-2.6
	l-0.6,0.7c-5.7-4.1-5.3,8.3,0.2,3.9l0.5,0.8C90.5,13.5,86.5,12.2,86.5,8.5z M533.4,8.5c0-8.5,12.6-8.5,12.6,0
	C546,17.1,533.4,17.1,533.4,8.5z M545.2,8.5c0-7.5-10.9-7.5-10.9,0C534.2,16.1,545.1,16.1,545.2,8.5z M536.3,8.5c0-3.4,4-4.9,6-2.6
	l-0.6,0.7c-5.7-4.1-5.3,8.3,0.2,3.9l0.5,0.8C540.3,13.5,536.3,12.2,536.3,8.5z M108.5,5.3h1.6l-3.2,3.8l3.6,5.7h-1.6l-2.9-4.7
	l-1.9,2.2v2.5h-1.4v-14h1.4v9.7L108.5,5.3z M111.3,10.1c0.1-6.9,9.2-6.4,7.9,0.3h-6.5c0,3.3,3.4,4.4,5.7,2.8l0.5,1
	C115.9,16.3,111.2,14.7,111.3,10.1z M118,9.4c0.2-4.3-5-4-5.3,0H118z M287.2,10.1c0.1-6.9,9.2-6.4,7.9,0.3h-6.5
	c0,3.3,3.4,4.4,5.7,2.8l0.5,1C291.8,16.3,287.1,14.7,287.2,10.1z M293.9,9.4c0.2-4.3-5-4-5.3,0H293.9z M123,6.7
	c3-2.9,6.1-1.9,6.1,2.1v6h-1.4V9c0-3.5-2.8-3.2-4.6-1.1v6.9h-1.4V5.3h1.2L123,6.7z M177.5,6.7c3-2.9,5.9-1.9,5.9,2.1v6h-1.4V9
	c0-3.5-2.6-3.2-4.3-1.1v6.9h-1.4V5.3h1.2L177.5,6.7z M183.1,7c2.7-3.2,6-2.2,6,1.8v6h-1.4V9c0-3.5-2.8-3.3-4.5-0.8 M162,5.3h1.6
	l-3.2,3.8l3.6,5.7h-1.6l-2.9-4.7l-1.9,2.2v2.5h-1.4v-14h1.4v9.7L162,5.3z M171.6,13.4c-3,2.9-6.2,1.9-6.2-2.1v-6h1.4v5.8
	c0,3.5,2.8,3.2,4.6,1.1V5.3h1.4v9.5h-1.2L171.6,13.4z M197.8,13.7c-5.4,4.7-10.3-4.2-0.1-4.8c0-2.5-1.8-3.5-4.9-1.5l-0.6-1
	c3.2-2.1,6.9-1.8,6.9,2.5v6h-1.2L197.8,13.7z M197.6,12.6V9.8C190.2,10,193.4,16.6,197.6,12.6z M227.2,13.7
	c-5.4,4.7-10.3-4.2-0.1-4.8c0-2.5-1.8-3.5-4.9-1.5l-0.6-1c3.2-2.1,6.9-1.8,6.9,2.5v6h-1.2L227.2,13.7z M227.1,12.6V9.8
	C219.6,10,222.8,16.6,227.1,12.6z M277.5,13.7c-5.4,4.7-10.3-4.2-0.1-4.8c0-2.5-1.8-3.5-4.9-1.5l-0.6-1c3.2-2.1,6.9-1.8,6.9,2.5v6
	h-1.2L277.5,13.7z M277.4,12.6V9.8C269.9,10,273.2,16.6,277.4,12.6z M206.8,4.7c0-3.7,5.3-4.1,5.3-0.5c0,3.4-5.7,4.3-5.7,7.2
	c0,3.4,5.9,4.2,8-3.5h1.3c-2.6,9.5-10.7,8.2-10.7,3.6c0-3.6,5.8-4.6,5.8-7.3c0-2.2-2.9-1.9-2.9,0.4c0,2.9,4,7.8,7.9,9.2l-0.4,1.2h0
	C211.1,13.6,206.8,8.1,206.8,4.7z M231.2,12.8c3.1,3.3,7.8-0.7,2.6-2.3c-6.2-1.9-0.9-7.9,3.2-4.3l-0.7,0.9c-1.1-1.1-4.1-1.2-4.1,0.6
	c0,2.3,5.1,1.2,5.1,4.6c0,3.2-5.1,3.5-6.9,1.5L231.2,12.8z M297.2,12.8c3.1,3.3,7.8-0.7,2.6-2.3c-6.2-1.9-0.9-7.9,3.2-4.3l-0.7,0.9
	c-1.1-1.1-4.1-1.2-4.1,0.6c0,2.3,5.1,1.2,5.1,4.6c0,3.2-5.1,3.5-6.9,1.5L297.2,12.8z M394.4,10.1c0.1-6.9,9.2-6.4,7.9,0.3h-6.5
	c0,3.3,3.4,4.4,5.7,2.8l0.5,1C399,16.3,394.4,14.7,394.4,10.1z M401.1,9.4c0.2-4.3-5-4-5.3,0H401.1z M412.4,10.1
	c0.1-6.9,9.2-6.4,7.9,0.3h-6.5c0,3.3,3.4,4.4,5.7,2.8l0.5,1C417,16.3,412.3,14.7,412.4,10.1z M419.1,9.4c0.2-4.3-5-4-5.3,0H419.1z
	 M438.1,10.1c0.1-6.9,9.2-6.4,7.9,0.3h-6.5c0,3.3,3.4,4.4,5.7,2.8l0.5,1C442.7,16.3,438,14.7,438.1,10.1z M444.8,9.4
	c0.2-4.3-5-4-5.3,0H444.8z M404.4,12.8c3.1,3.3,7.8-0.7,2.6-2.3c-6.2-1.9-0.9-7.9,3.2-4.3l-0.7,0.9c-1.1-1.1-4.1-1.2-4.1,0.6
	c0,2.3,5.1,1.2,5.1,4.6c0,3.2-5.1,3.5-6.9,1.5L404.4,12.8z M376.3,12.8c3.1,3.3,7.8-0.7,2.6-2.3c-6.2-1.9-0.9-7.9,3.2-4.3l-0.7,0.9
	c-1.1-1.1-4-1.2-4,0.6c0,2.3,5.1,1.2,5.1,4.6c0,3.2-5.1,3.5-6.9,1.5L376.3,12.8z M239.4,12.8c3.1,3.3,7.8-0.7,2.6-2.3
	c-6.2-1.9-0.9-7.9,3.2-4.3l-0.7,0.9c-1.1-1.1-4.1-1.2-4.1,0.6c0,2.3,5.1,1.2,5.1,4.6c0,3.2-5.1,3.5-6.9,1.5L239.4,12.8z M257.7,10.1
	c-0.2-4.4,4.6-6.5,7.3-3.9l-0.8,1c-6.7-4.7-6.5,10.8,0.3,5.7l0.6,0.9C262.3,16.5,257.6,14.6,257.7,10.1L257.7,10.1z M267.1,2.3
	c0-1.3,2.1-1.3,2.1,0C269.1,3.6,267.1,3.6,267.1,2.3z M267.4,5.3h1.4v9.5h-1.4V5.3z M305.3,13.9c0-1.5,2.2-1.5,2.2,0
	C307.5,15.4,305.3,15.4,305.3,13.9z M315.5,10.8l-1.3,4.1h-1.5L317.2,2h1.6l4.4,12.9h-1.6l-1.3-4.1H315.5z M320,9.6l-2-6.4l-2.1,6.4
	H320z M324.9,0.8h1.4v12.4c0,0.7,0.3,0.7,0.8,0.6l0.2,1.1c-1.4,0.4-2.4-0.2-2.4-1.9V0.8z M329.8,0.8h1.4v12.4c0,0.7,0.3,0.7,0.8,0.6
	l0.2,1.1c-1.4,0.4-2.4-0.2-2.4-1.9V0.8z M428.5,5.3h1.5l2.8,8.3l2.9-8.3h1.4l-3.4,9.5h-1.7L428.5,5.3z M458.9,13.9
	c0-1.5,2.2-1.5,2.2,0C461.1,15.4,458.9,15.4,458.9,13.9z M468,0.6h1.1v5.9h-3.7c0,0.7,0,1.5,0,2.2h3.6v7.4h-1.1V9.8h-2.6
	c-0.1,2.3-0.4,4.7-1.3,6.5c-0.2-0.2-0.6-0.5-0.9-0.7c1.7-4.1,1-10.9,1.1-15.4h1.1v5.3h2.6L468,0.6L468,0.6z M478.6,5.7
	c-0.5,2.9-1.4,5.2-2.6,6.9c0.9,1.1,2,2,3.3,2.6l-0.8,1c-1.3-0.6-2.3-1.5-3.2-2.6c-1,1.1-2.1,2-3.2,2.6l-0.7-1
	c1.2-0.6,2.3-1.5,3.3-2.6c-1-1.7-1.8-3.7-2.3-6H472c0,3.2,0,6.9-1.5,9.7l-0.9-0.6c2-4,1.2-10,1.4-14.3h7.7v1.1H472v3.2
	c5.3,0,5.8,0.1,6,0L478.6,5.7z M473.4,6.5c0.4,1.9,1,3.7,1.9,5.1c0.9-1.4,1.6-3.1,2-5.1H473.4z M480.6,11.3c1.1-1.5,2.2-4.3,2.8-6.7
	H481V3.5h2.5V0.1h1v3.4h1.9v1.1h-1.9v0.9c0.4,0.6,1.7,2.4,2,2.9l-0.7,0.8v0c-0.2-0.5-0.8-1.5-1.3-2.4v9.2h-1V6.9
	c-0.6,2.1-1.5,4.2-2.3,5.5L480.6,11.3z M488.6,7.1l0.9,0.3c-0.2,0.4-0.5,0.9-0.7,1.3h2.4c-0.1-0.4-0.3-0.8-0.4-1.1l1-0.3
	c0.2,0.4,0.4,1,0.6,1.4h3.9v0.8h-4v5h4.3v0.9h-8.1v0.7h-1v-5.6c-0.4,0.4-0.8,0.8-1.2,1.2c-0.1-0.2-0.5-0.7-0.6-0.9
	C486.8,10,487.9,8.5,488.6,7.1z M487,7.2V3.8h3.9v3.4H487z M489.4,2.5h-3.1V1.6h3.1V0.1h1v3.3h-1V2.5z M487.9,6.3h2.1V4.6h-2.1V6.3z
	 M491.2,9.5h-2.7v1.1l7.1,0v0.8l-7.1,0v1.1l7.1,0v0.8h-7.1v1.1h2.7V9.5z M496,7.1h-4V3.8h4V7.1z M496.8,1.6v0.9h-3.3v0.9h-1V0.1h1
	v1.4H496.8z M495,4.6h-2.1v1.7h2.1V4.6z M500.5,9.6c-0.1,2.2-0.4,4.8-1.4,6.6c-0.2-0.2-0.7-0.6-0.9-0.7c1.8-3.8,1-9.4,1.2-13.5
	c2.1-0.2,4.6-0.7,6-1.4l0.8,1c-1.4,0.6-3.6,1-5.6,1.3v1.7h4.8v5H500.5L500.5,9.6z M500.5,5.6v2.9h3.6V5.6H500.5z M514.3,7.2h-2.1
	v8.9H511V7.2h-2.9c0,2.9-0.2,6.5-2.5,9c-0.2-0.2-0.7-0.6-0.9-0.8c3.3-3.6,1.9-9.2,2.2-13.5c2.2-0.3,4.8-0.9,6.2-1.6l0.8,1
	c-1.5,0.6-3.8,1.1-5.8,1.4v3.3h6.2V7.2z M522.1,3.5c-0.3,0.7-0.7,1.5-1.1,2.1h8.6v8.9c-0.2,2-1.6,1.3-3.8,1.5
	c-0.1-0.3-0.2-0.8-0.4-1.1c3.1,0.1,3.2,0.5,3-2.3h-7.7c-0.2,1.3-0.8,2.6-1.8,3.6c-0.1-0.3-0.6-0.7-0.8-0.9c2.2-2.2,1.5-5.2,1.6-7.8
	c-0.9,1.1-1.9,2.1-3,2.8c-0.1-0.3-0.5-0.7-0.7-0.9c2.1-1.4,3.7-3.6,4.8-5.9h-4.5V2.4h5c0.3-0.8,0.6-1.5,0.8-2.3l1.2,0.3
	c-0.2,0.7-0.4,1.4-0.7,2h9v1.1H522.1z M528.4,11.6v-2h-7.5c0,0.7,0,1.3,0,2H528.4z M528.4,6.7h-7.5v1.9h7.5V6.7z M557.6,1.3
	c-0.5,1.4-1.2,3.1-1.8,4.5c2.2,2.4,2.5,6.8-1.1,6.2c0-0.3-0.1-0.7-0.3-1c3.1,0.5,2.3-3.1,0.4-5c0.5-1.3,1.1-2.8,1.5-4h-2.6v14.2h-1
	V0.9c0.2,0,4.1,0.1,4.3-0.1L557.6,1.3L557.6,1.3z M567.7,11.4c-0.8,0.6-1.7,1.2-2.5,1.7c0.8,1,1.8,1.8,3,2.2
	c-0.3,0.2-0.6,0.6-0.7,0.9c-2.5-1.1-4.1-3.4-4.9-6.4h-2v4.9l3-0.7c0,0.3,0,0.8,0,1c-3.5,0.9-4,1.1-4.3,1.3c-0.1-0.3-0.3-0.9-0.5-1.1
	c0.8-0.2,0.6-1,0.6-5.3h-1.5v-1h10.1v1h-4.4c0.3,0.9,0.7,1.8,1.1,2.5c0.8-0.5,1.7-1.2,2.3-1.7L567.7,11.4z M567.2,7.3h-8.5V0.8h8.5
	V7.3z M559.8,4.5v1.9h2.7V1.8h-2.7v1.9h6.3V1.8h-2.6v4.6h2.6V4.5L559.8,4.5z M569.8,1.1h6.1v1.1h-2.8c-0.3,1.5-0.7,3-1.1,4.3h3.5
	v7.4H572v1.4h-1V8.8c-0.3,0.6-0.6,1.1-1,1.5c-0.1-0.3-0.4-0.9-0.5-1.2c1.2-1.7,2.1-4.2,2.5-7h-2.2V1.1L569.8,1.1z M574.5,7.5H572
	v5.3h2.5V7.5z M583.6,16.1h-1.1V2.2h-3v5.2h6.2v1.1h-6.2c-0.1,2.7-0.5,5.6-2.5,7.7c-0.2-0.2-0.6-0.5-0.9-0.7c1.8-1.9,2.2-4.6,2.3-7
	h-2V7.4h2V2.2h-1.5V1.1h8.4v1.1h-1.7V16.1z M603.1,7.5v1h-15.8v-1h4.5c0.2-0.7,0.5-1.6,0.7-2.5h-3V4h3.3c0.2-0.7,0.3-1.5,0.5-2.2
	h-4.5v-1h13.2v1h-7.5c-0.2,0.7-0.3,1.4-0.5,2.2c0.8,0,5.3-0.1,6,0c0,1.1-0.2,2.4-0.3,3.5L603.1,7.5L603.1,7.5z M589.6,10.3h11.2v5.9
	h-1.2v-0.9h-8.9v0.9h-1.1V10.3z M590.7,11.4v2.9h8.9v-2.9H590.7z M593.6,5c-0.2,0.9-0.5,1.8-0.7,2.5h5.5c0.1-0.8,0.2-1.8,0.2-2.5
	H593.6z M609.8,6.3c-0.3,2.5-0.8,4.5-1.5,6.2c2.7,3,8.5,2.1,12.5,2.2c-0.2,0.3-0.4,0.8-0.5,1.1c-3.9-0.1-10,0.6-12.6-2.3
	c-0.6,1.1-1.4,2-2.2,2.6c-0.2-0.2-0.6-0.7-0.9-0.8c0.9-0.7,1.7-1.6,2.3-2.7c-0.7-0.9-1.2-2-1.6-3.4l0.9-0.3c0.3,1.1,0.7,2,1.2,2.7
	c0.5-1.2,0.9-2.6,1.1-4.3h-2.8c0.8-1.3,1.8-3.2,2.5-4.9h-3.2V1.3h4.8c-0.7,1.6-1.7,3.4-2.5,4.9C608.1,6.1,609.3,6,609.8,6.3
	L609.8,6.3z M609.9,12.2v-1h10.4v1 M610.6,9.7V8.8h9v0.9 M609.7,5V4h10.8v1 M615.5,14h-1.1V0.2h1.1 M610.8,7.3V6.4h7.4V2.6h-7.3v-1
	h8.4v5.6H610.8z M625,2.1c-0.5,0.8-1.2,1.5-1.8,2c-0.1-0.2-0.6-0.6-0.8-0.8c1.1-0.8,2.1-2.1,2.7-3.3l1,0.3c-0.1,0.3-0.3,0.6-0.5,0.9
	h4.6v1H625z M622.6,11.9v-1h15.5v1 M629.8,9.8h1.1l0,6.3h-1.1 M629.4,10.1c-0.1-0.2-0.5-0.6-0.7-0.7c1.2-0.5,2-1,2.4-1.6
	c-0.6-0.3-1.2-0.6-1.8-0.8l0.5-0.7c0.5,0.2,1.1,0.5,1.7,0.7c0.2-0.5,0.1-1,0.1-1.5h-2.1V4.7h6.2c0.1,0.4-0.1,4,0.1,4.3
	c1.3,0.4,1.5-0.4,1.4-1.8c0.2,0.2,0.5,0.3,0.8,0.4c0.2,2.5-1.3,2.8-3.1,2c-0.6-0.3-0.2-3.4-0.3-4.2h-2c0,0.6,0,1.3-0.2,1.9
	c0.7,0.3,1.3,0.6,1.8,0.9l-0.4,0.8c-0.5-0.3-1.1-0.6-1.8-0.9C631.3,9.1,630.5,9.7,629.4,10.1z M628.4,12.8c-1.1,1.3-3.2,2.5-5,3
	c-0.2-0.3-0.5-0.7-0.8-0.9c1.8-0.5,3.8-1.4,4.8-2.5L628.4,12.8z M622.6,8.9c0.8-0.1,1.7-0.2,2.8-0.4V5.7h-2.5V4.8h6v0.9h-2.4v2.7
	c0.8-0.1,1.6-0.2,2.5-0.4l0,0.9c-2.2,0.4-4.5,0.7-6.2,1L622.6,8.9L622.6,8.9z M626.7,2.1c0.5,0.5,1.2,1.2,1.5,1.6l-0.8,0.6
	c-0.3-0.5-1-1.2-1.5-1.7L626.7,2.1z M638.2,1.2v1h-6.1c-0.5,0.7-1.1,1.4-1.7,1.9c-0.2-0.2-0.6-0.5-0.9-0.7c1.1-0.8,2-2,2.5-3.3
	l1.1,0.3c-0.1,0.3-0.2,0.6-0.4,0.9L638.2,1.2L638.2,1.2z M632.9,12.3c1.6,0.7,3.7,1.8,4.8,2.5l-0.8,0.9c-1-0.8-3.1-1.9-4.8-2.6
	L632.9,12.3z M635,4.3c-0.3-0.5-1-1.1-1.5-1.6l0.8-0.5c0.5,0.4,1.2,1.1,1.5,1.5L635,4.3L635,4.3z M647,9.3h-4.1v1.8h4.1V9.3z
	 M647,14v-2h-4.1v2H647z M640.8,3.3v-1l6.1,0v1c0.5-0.8,0.9-1.6,1.3-2.5l1,0.3h0c-0.7,1.6-1.6,3.1-2.7,4.5h2.4v1h-3.3
	c-0.6,0.6-1.2,1.2-1.8,1.8h4.3v7.5H647V15h-4.1v1.1h-1.1V9.9c-0.5,0.3-1,0.7-1.5,0.9c-0.1-0.2-0.5-0.7-0.8-1c1.7-0.9,3.3-2,4.6-3.3
	H640v-1h3.6V0.3h1.1l0,5.2c0,0,0.6,0,0.6,0c0.6-0.7,1.2-1.4,1.6-2.2 M656,1.6c-0.8,1.7-1.7,3.7-2.6,5.3c3.6,2.8,3.2,7.7-1.3,6.9
	c0-0.3-0.1-0.8-0.3-1.2c4.1,0.8,3.6-3.3,0.4-5.6c0.8-1.5,1.7-3.4,2.3-4.8h-3.5v13.9h-1.2v-15c0.2,0,5.2,0.1,5.4,0L656,1.6L656,1.6z
	 M666,3.9v2.5h5.7v6.2c-0.2,2-1.7,1.3-3.8,1.5c0-0.4-0.2-0.8-0.4-1.2c1.5-0.1,2.7,0.4,3-0.3c0,0,0-5,0-5H666v8.7h-1.2V7.5h-4.2v6.6
	h-1.2V6.3h5.4V3.9h-7.2V2.7h7.6C665,2,664.5,1.1,664,0.4l1.1-0.4c0.5,0.8,1.1,1.9,1.4,2.6l-0.3,0.1h7.1v1.1L666,3.9L666,3.9z
	 M681.8,4.1h-6.6v-1h6.6V4.1z M676.9,15.1v0.8h-1V10h5.2v5L676.9,15.1L676.9,15.1z M681.1,5.4v0.9h-5.1V5.4H681.1z M675.9,7.7h5.2v1
	h-5.2V7.7z M676.9,11v3.1h3.1V11H676.9z M678.4,2.9c-0.3-0.6-0.8-1.6-1.3-2.3l0.9-0.5c0.5,0.7,1.1,1.6,1.4,2.2L678.4,2.9L678.4,2.9z
	 M690.1,8.2c-0.7,2.1-1.8,3.8-3.2,5.1c1.2,0.9,2.6,1.5,4.2,1.9c-0.2,0.2-0.6,0.7-0.7,1.1c-1.7-0.5-3.2-1.2-4.4-2.2
	c-1.3,1-2.8,1.7-4.4,2.2c-0.1-0.3-0.4-0.8-0.6-1c1.5-0.4,2.9-1,4.1-1.9c-1.1-1.1-2-2.4-2.7-4L683,9h-1.4V7.9c0.2-0.1,7.5,0.1,7.7,0
	C689.3,7.8,690.1,8.1,690.1,8.2z M684.5,2.8c0,1.6-0.5,3.4-2.5,4.7c-0.2-0.2-0.6-0.7-0.8-0.8c2.7-1.6,2.1-3.6,2.2-5.8h5.2
	c0.2,0.4-0.3,4.7,0.3,4.8c0.5,0,1.4,0,1.9-0.1c0,0.3,0,0.7,0.1,1c-4.3,0.8-3.2-1.4-3.3-4.6h-3.1C684.5,1.9,684.5,2.7,684.5,2.8z
	 M683.5,9c0.6,1.3,1.5,2.5,2.5,3.5c1.1-0.9,2-2.1,2.6-3.5H683.5z M700.3,4.1h-7.2v-1h7.2V4.1z M693.8,5.4h5.7v0.9h-5.7V5.4z
	 M699.5,8.6h-5.6v-1h5.6V8.6z M699.5,15.1H695v0.8h-1V10h5.5C699.5,10,699.5,15.1,699.5,15.1z M695,11v3.1h3.5V11H695z M696.5,2.9
	c-0.2-0.6-0.8-1.6-1.3-2.3l0.9-0.5c0.5,0.7,1.1,1.6,1.4,2.2L696.5,2.9L696.5,2.9z M700.2,7.4V6.2h8.4c0,0,0,1.1,0,1.2 M704.9,16.2
	h-1.2V0.5h1.2 M714.7,15.2c3.1,0,2.9,0.4,2.9-1.7V0.1h1.2v13.4c0,2.4,0,2.7-3.7,2.7L714.7,15.2z M710.7,2.6v-1h15.2v1 M712.5,6.7v-3
	h11.5v3 M710.3,11.1v-0.9l15.8,0v0.9l0,0 M722.9,5.8V4.5h-9.2v1.3 M723.2,8.9H712V8h12.3l0,6.3h-1.2v-0.8h-11.3v-0.9h11.3 M742.2,3
	c-0.5,1.2-1.2,2.2-2.2,3c1.2,0.8,2.5,1.3,3.9,1.6c-0.2,0.2-0.6,0.7-0.8,1c-1.5-0.4-2.9-1.1-4.1-1.9c-1.1,0.8-2.4,1.4-3.9,1.9
	c-0.1-0.2-0.3-0.5-0.5-0.7c-0.3,1-0.7,2-1.1,2.7l-0.8-0.4c0.4-0.7,0.7-1.9,1-2.9h-1.8v7.4c0,1.6-1.1,1.2-2.7,1.3
	c0-0.3-0.2-0.8-0.4-1.1c1-0.1,1.8,0.3,2-0.3c0,0,0-6,0-6c-0.7,1.8-1.7,3.5-2.7,4.5c-0.1-0.3-0.4-0.8-0.6-1.1c1.1-1.1,2.2-3,2.9-4.9
	h-2.7V6.3h4.8c-0.9-0.8-2.5-1.8-4-2.5l0.7-0.8c0.6,0.2,1.2,0.5,1.8,0.9c0.7-0.5,1.4-1.2,2-1.9h-5.1V1c0.2,0,6,0.1,6.2,0l0.8,0.5
	c-0.7,1.1-1.8,2.2-2.9,3c0.6,0.4,1.1,0.8,1.5,1.1L733,6.3c0.1,0,1.5,0,1.5,0l0.7,0.3c-0.1,0.3-0.2,0.7-0.3,1
	c1.2-0.3,2.4-0.8,3.3-1.5c-0.8-0.7-1.4-1.4-1.9-2.3c-0.4,0.5-0.9,1-1.4,1.4c-0.2-0.2-0.7-0.6-1-0.7c1.4-1,2.6-2.6,3.3-4.3l1.1,0.3
	c-0.2,0.5-0.5,1-0.8,1.6h6v1C743.6,3,742.2,3,742.2,3z M743.2,9.9c-0.6,4.8-0.2,6.6-4.2,6.1c0-0.3-0.1-0.8-0.3-1.1
	c3.1,0.4,2.7,0,3.3-4h-3.1c-0.6,2.3-1.8,4.1-4.7,5.2c-0.1-0.3-0.5-0.7-0.7-0.9c2.5-0.9,3.6-2.4,4.2-4.3h-2.9v-1h3.1
	c0.1-0.6,0.2-1.2,0.2-1.8h1.2c-0.1,0.6-0.1,1.2-0.2,1.8L743.2,9.9L743.2,9.9z M737.1,3c0.5,0.9,1.2,1.7,2.1,2.4
	c0.8-0.7,1.4-1.5,1.8-2.4H737.1z M747.5,9.6c-0.1,2.2-0.4,4.8-1.4,6.6c-0.2-0.2-0.7-0.6-0.9-0.7c1.8-3.8,1-9.4,1.2-13.5
	c2.1-0.2,4.6-0.7,6-1.4l0.8,1c-1.4,0.6-3.6,1-5.6,1.3v1.7h4.8v5H747.5L747.5,9.6z M747.6,5.6v2.9h3.6V5.6H747.6z M761.4,7.2h-2.1
	v8.9h-1.1V7.2h-2.9c0,2.9-0.2,6.5-2.5,9c-0.2-0.2-0.7-0.6-0.9-0.8c3.3-3.6,1.9-9.2,2.2-13.5c2.2-0.3,4.8-0.9,6.2-1.6l0.8,1
	c-1.5,0.6-3.8,1.1-5.8,1.4v3.3h6.2V7.2z M766.9,4.8V3.7l5.3,0v1.1 M767,10.6l-0.3-1.1l5.3-1.7l0.1,1.1h0 M769.1,0.2h1.1l0,14.5
	c0,1.5-1,1.3-2.7,1.4l-0.3-1.1c1,0,2,0.2,2-0.3 M778,14.7c1.4,0.2,3.6,0.1,5.1,0.1c-0.2,0.3-0.3,0.7-0.3,1.1c-3.2,0-7.2,0.6-8.7-3
	c-0.5,1.3-1.2,2.5-2.2,3.3c-0.2-0.2-0.6-0.5-0.9-0.7c1.6-1.2,2.4-3.2,2.7-5.9l1.1,0.1c-0.1,0.7-0.2,1.3-0.4,1.9
	c0.5,1.6,1.4,2.4,2.4,2.8V8.7h-4.3v-1h10v1H778v2.2h3.7v1H778L778,14.7L778,14.7z M781.5,6.4h-8.2V0.7h8.2V6.4z M780.4,1.6h-6v1.5h6
	V1.6z M780.4,4h-6v1.5h6V4z M789.6,0.5c-0.5,1.3-1.1,2.6-1.8,3.8v11.8h-1.1v-10c-0.6,0.8-1.2,1.6-1.9,2.3c-0.1-0.3-0.4-0.9-0.7-1.1
	c1.8-1.7,3.4-4.3,4.4-7.1L789.6,0.5z M793.4,12c-0.9,1.5-2.2,3.1-3.3,4.1c-0.2-0.2-0.6-0.6-0.9-0.7c1.2-0.9,2.4-2.3,3.2-3.7
	L793.4,12L793.4,12z M789.6,5.1V3.9l10.7,0V5 M797.7,9.5h2.8l0,0v1.1h-11.4V9.5h2.8V0.3h1.1l0,9.2h3.5l0-9.2h1.1V9.5z M797.2,11.7
	c1.2,1.2,2.5,2.7,3.2,3.8l-1,0.7c-0.6-1.1-1.9-2.7-3.1-3.9L797.2,11.7L797.2,11.7z"/>
</svg>
