<?xml version="1.0" encoding="utf-8"?>
<!-- Generator: Adobe Illustrator 26.5.0, SVG Export Plug-In . SVG Version: 6.00 Build 0)  -->
<svg version="1.1" id="圖層_1" xmlns="http://www.w3.org/2000/svg" xmlns:xlink="http://www.w3.org/1999/xlink" x="0px" y="0px"
	 viewBox="0 0 774 774" style="enable-background:new 0 0 774 774;" xml:space="preserve">
<style type="text/css">
	.st0{fill:#A98063;}
	.st1{fill:none;stroke:#333333;stroke-width:1.05;stroke-miterlimit:10;}
	.st2{fill:#333333;}
</style>
<path class="st0" d="M612.2,198c-1.2,2-2.7,3.7-4.1,5c-0.3-0.4-0.9-1.1-1.3-1.5c2.2-1.7,4.2-4.5,5.4-7.4l1.7,0.5
	c-0.3,0.6-0.5,1.2-0.9,1.8h14.9v1.5L612.2,198L612.2,198z M613.4,212.1c-1.1,2-3.2,4.1-5,5.2c-0.3-0.4-0.8-1-1.1-1.4
	c1.8-0.9,3.8-2.7,4.8-4.4L613.4,212.1z M615.8,210.8v6.6h-1.7v-6.6h-6.5v-1.5h6.5v-4.4h1.7v4.4h6.3v1.5H615.8z M624.8,202.8
	c0,7.9,0.2,12.8,2.1,12.8c0.5,0,0.6-1.5,0.7-3.7c0.4,0.4,0.9,0.9,1.2,1.1c-0.2,3.3-0.5,4.4-2,4.4c-3.4,0-3.7-4.9-3.8-13.2h-13.8
	v-1.5L624.8,202.8L624.8,202.8z M610.6,205.1c0.8,1,1.7,2.3,1.9,3.2l-1.4,0.6c-0.3-0.9-1.1-2.2-1.9-3.2L610.6,205.1L610.6,205.1z
	 M611.6,201.1v-1.4H626v1.4H611.6z M617.8,211.6c1.6,1.2,3.6,2.9,4.5,4.1l-1.1,1.1c-0.9-1.2-2.9-3-4.5-4.3L617.8,211.6z
	 M620.9,205.8c-0.9,1.2-1.9,2.5-2.6,3.4l-1.2-0.5c0.7-1,1.7-2.5,2.2-3.5L620.9,205.8z M641.7,208.3c-1.5,0-2.3-0.2-2.8-0.7
	c-1.9,0.8-3.8,1.6-5.8,2.1c-0.2-0.4-0.7-1.2-1.1-1.6c2.2-0.6,4.4-1.3,6.4-2.2v-4.9h1.6v4.2c3.1-1.6,5.8-3.5,7.6-5.9l1.5,0.8
	c-2.1,2.7-5.1,4.9-8.4,6.6c0.2,0.1,0.6,0.1,0.9,0.1h4.9c1.2,0,1.4-0.4,1.5-2.8c0.4,0.3,1,0.6,1.5,0.7c-0.2,3-0.8,3.7-2.9,3.7H641.7z
	 M637.1,202.2c-0.8,1.6-1.8,3.5-3.2,4.7l-1.5-0.9c1.4-1.1,2.6-3,3.2-4.5L637.1,202.2L637.1,202.2z M634.8,201.3h-1.8v-4.9h9.4
	c-0.2-0.7-0.4-1.5-0.6-2.1l1.7-0.3c0.3,0.8,0.6,1.7,0.8,2.5h9.1v4.9h-1.8v-3.2h-16.8L634.8,201.3L634.8,201.3z M649.8,210.3h1.8v7.2
	h-1.8v-1.1h-14.7v-5.9h1.8v4h5.4v-5.4h1.8v5.4h5.7V210.3z M643.8,202.4c-0.9-0.9-2.7-2.1-4.2-2.8l0.9-1.1c1.5,0.7,3.3,1.8,4.2,2.7
	L643.8,202.4z M650.1,201.6c1.5,1.4,3.3,3.3,4.1,4.7l-1.4,1c-0.8-1.4-2.5-3.4-4-4.8L650.1,201.6L650.1,201.6z M677.5,199.8v-2.3
	h-5.8v2.4c0,0.6,0.1,0.8,0.7,0.8h3.6c0.5,0,1.6,0,2-0.1c0,0.5,0,0.9,0.2,1.3c-0.4,0.1-1.2,0.1-2,0.1H672c-1.7,0-2-0.7-2-2.1v-2.3
	h-3.1c-0.6,3-2.3,4.4-7.4,5.2c-0.2-0.4-0.5-1.1-0.8-1.5c4.5-0.5,6-1.5,6.4-3.7h-4.9v2.4h-1.7v-4h9.6c-0.2-0.6-0.4-1.1-0.6-1.6
	l1.8-0.3c0.3,0.6,0.6,1.3,0.8,1.9h9.3v3.8L677.5,199.8L677.5,199.8z M668.9,201.5c-0.4,0.7-0.8,1.3-1.3,1.9h9.5v14.1h-1.8v-1h-13
	v1.1h-1.7v-14.1h5.1c0.5-0.7,1-1.6,1.3-2.2L668.9,201.5L668.9,201.5z M675.3,205h-13v9.9h13V205z M673.2,214.3
	c-0.7-0.8-1.7-1.7-2.8-2.6c-1.7,1.1-3.8,2.2-6.1,3.1c-0.2-0.4-0.7-0.9-1.1-1.2c2.3-0.8,4.3-1.8,6-2.9c-0.6-0.5-1.3-0.9-1.9-1.4
	c-1,0.6-2,1.1-3.2,1.6c-0.2-0.4-0.7-0.9-1.1-1.1c1.1-0.4,2.1-0.8,3-1.3c-0.8-0.5-1.6-1-2.3-1.4l1.1-0.9c0.8,0.5,1.7,1,2.5,1.6
	c1-0.7,1.8-1.4,2.4-2l1.7,0.3c-0.8,0.9-1.8,1.7-2.9,2.5c0.7,0.5,1.3,0.9,1.9,1.4c1.2-0.9,2.2-1.9,2.9-2.9l1.7,0.4
	c-0.9,1.2-2.1,2.3-3.5,3.4c1.1,0.9,2,1.7,2.7,2.5L673.2,214.3L673.2,214.3z M692.5,45.3h-98.9c-8.9,0-16.1,7.2-16.1,16.1v98.9
	c0,8.9,7.2,16.1,16.1,16.1h98.9c8.9,0,16.1-7.2,16.1-16.1V61.4C708.6,52.5,701.4,45.3,692.5,45.3z M334.5,472.5
	c-0.9-0.6-2.4-1.5-3.8-2.2c0.5,3,1.5,5.1,3.6,5.3c0.3,0,0.5-0.9,0.7-2.6c0.3,0.4,0.8,0.8,1.1,1c-0.3,2.6-0.9,3.5-2.2,3.3
	c-4.1-0.5-5-5.1-5.3-10.7h-3.7v10.5h-1.8v-10.5h-4c-0.1,3.6-0.9,7.6-4.2,10.7c-0.3-0.4-0.9-1-1.3-1.3c3-2.8,3.6-6.2,3.8-9.4H314V465
	h3.5v-3.5c-0.8,0.2-1.7,0.4-2.5,0.6c-0.1-0.4-0.4-1-0.6-1.4c2.5-0.6,5.3-1.6,6.9-2.5l1.4,1.4c-1,0.5-2.2,0.9-3.5,1.4v4.1h4v-7h1.8v7
	h5.3c0,1.3,0.1,2.5,0.2,3.8l0.5,0.2c0.9-0.8,2-1.9,2.6-2.6l1.5,0.9c-0.9,0.8-1.9,1.7-2.8,2.3c1.2,0.6,2.4,1.2,3.2,1.8L334.5,472.5
	L334.5,472.5z M334.4,461.7c-0.9-0.6-2.4-1.4-3.8-2c0.6,2.4,1.6,4.1,3.6,4.3c0.3,0,0.5-0.7,0.6-2c0.3,0.4,0.8,0.8,1.1,1
	c-0.3,2.1-0.9,2.9-2.1,2.7c-3.7-0.5-4.9-4.2-5.3-8.5h-13v-1.7H330c0,0.8,0.1,1.7,0.2,2.5l0.6,0.2c0.9-0.8,1.9-1.9,2.5-2.7l1.5,0.8
	c-0.9,0.8-1.8,1.7-2.7,2.4c1.2,0.5,2.4,1.1,3.2,1.6L334.4,461.7L334.4,461.7z M346.5,461.8h5v1.8h-5v0.7c1.2,1.1,4,4.1,4.7,4.8
	l-1.1,1.5c-0.7-1-2.4-2.8-3.6-4.2v11h-1.8v-10.9c-1.3,2.9-2.9,5.7-4.6,7.5c-0.2-0.5-0.7-1.3-1-1.8c1.9-1.9,4-5.4,5.2-8.6h-4.7v-1.8
	h5.1v-4.3c-1.6,0.3-3.1,0.6-4.6,0.8c-0.1-0.5-0.3-1.1-0.6-1.5c3.6-0.6,7.7-1.4,10-2.5l1.3,1.5c-1.2,0.5-2.7,0.9-4.3,1.3L346.5,461.8
	L346.5,461.8z M355.1,471.1h-1.8v-14h1.8V471.1z M360.3,454.4v20.3c0,1.3-0.3,1.9-1.1,2.2c-0.8,0.3-2.1,0.4-4.3,0.4
	c-0.1-0.5-0.4-1.4-0.6-1.9c1.7,0,3.2,0,3.6,0c0.4,0,0.6-0.1,0.6-0.7v-20.3L360.3,454.4L360.3,454.4z M369.2,465.3
	c-1-0.8-2.9-1.9-4.4-2.7l1-1.4c1.4,0.7,3.4,1.8,4.4,2.5L369.2,465.3z M365.4,475.9c1.2-2,2.9-5.3,4.2-8.2l1.4,1.2
	c-1.2,2.7-2.7,5.9-4,8.2L365.4,475.9z M370.1,458.6c-0.9-0.8-2.9-2-4.3-2.9l1-1.3c1.4,0.8,3.3,1.9,4.3,2.7L370.1,458.6L370.1,458.6z
	 M379.8,459.4v2.4h5.8v13.5c0,1-0.2,1.5-0.9,1.8c-0.6,0.3-1.6,0.3-3.3,0.3c0-0.5-0.2-1.2-0.5-1.7c1.2,0,2.2,0,2.5,0
	c0.3,0,0.4-0.1,0.4-0.4v-3.4h-4.1v5.5h-1.7v-5.5h-4v5.5h-1.7v-15.6h5.7v-2.4h-7v-1.7h7v-3.5h1.7v3.5h7v1.7L379.8,459.4L379.8,459.4z
	 M374.1,463.5v2.5h4v-2.5H374.1z M378.1,470.3v-2.6h-4v2.6H378.1z M379.8,463.5v2.5h4.1v-2.5H379.8z M383.9,470.3v-2.6h-4.1v2.6
	H383.9z M384.8,457.6c-0.8-0.6-2.4-1.7-3.5-2.3l1-1.1c1.2,0.6,2.7,1.6,3.6,2.2L384.8,457.6L384.8,457.6z M400.4,459.5h-7.5v4.1h-1.7
	v-5.4h9.2v-1.6h-8.2v-1.4h18.2v1.4h-8.3v1.6h9.4v5.4h-1.8v-4.1h-7.6v5.8h-1.7L400.4,459.5L400.4,459.5z M409.3,475.5
	c1.3,0,1.5-0.4,1.6-3c0.4,0.3,1.1,0.5,1.6,0.6c-0.3,3.1-0.8,3.9-3.1,3.9h-5.6c-2.7,0-3.5-0.5-3.5-2.5v-0.8H395v1.3h-1.7v-8.8h16.3
	v7.5h-7.5v0.8c0,0.9,0.3,1,1.8,1H409.3L409.3,475.5z M393.3,463.9c1.5-0.1,3.6-0.5,5.7-0.8l0.1,1.2c-1.9,0.4-3.7,0.8-5.3,1.1
	L393.3,463.9z M394.5,460c1.6,0.2,3.6,0.8,4.7,1.3l-0.5,1.2c-1.1-0.5-3.1-1.1-4.7-1.5L394.5,460L394.5,460z M395,467.6v1.7h5.4v-1.7
	H395z M400.4,472.4v-1.8H395v1.8H400.4z M407.8,467.6h-5.7v1.7h5.7V467.6z M407.8,472.4v-1.8h-5.7v1.8H407.8z M408.8,465.4
	c-1.3-0.5-3.8-1.1-5.6-1.4l0.4-1.1c1.8,0.2,4.3,0.8,5.6,1.2L408.8,465.4L408.8,465.4z M408.8,461c-1.4,0.6-3.3,1.1-4.7,1.4l-0.6-1
	c1.4-0.3,3.4-1.1,4.6-1.5L408.8,461L408.8,461z M437.8,467.3h-9.9v7.6c0,1.3-0.3,1.9-1.2,2.1c-0.9,0.3-2.4,0.4-4.7,0.4
	c-0.1-0.6-0.5-1.4-0.8-1.9c2,0.1,3.7,0.1,4.3,0c0.5,0,0.6-0.1,0.6-0.6v-7.6h-10v-1.9h10v-3.7c2-1,4.4-2.5,6-4h-13.6v-1.9h15.6
	l0.4-0.1l1.4,1.1c-2.1,2.1-5.2,4.4-7.9,5.9v2.7h9.9L437.8,467.3L437.8,467.3z M450.8,474.4c-3,0.8-6.3,1.5-8.7,2.1l-0.4-1.7
	c1.1-0.2,2.5-0.5,4-0.8v-7.3H442V465h3.8v-2.8h-2.4v-1.4c-0.5,0.5-1,0.9-1.5,1.4c-0.2-0.4-0.5-1.4-0.8-1.9c2-1.5,4.1-3.8,5.3-6.3
	l1.5,0.6c-0.2,0.4-0.4,0.7-0.6,1.1c1.6,1.1,3.1,2.4,4.2,3.4l-0.9,1.5c-1-1.1-2.6-2.5-4.1-3.6c-0.9,1.3-1.8,2.5-2.8,3.5h6.3v1.7h-2.6
	v2.8h3.3v1.7h-3.3v7c1.1-0.2,2.2-0.5,3.4-0.7L450.8,474.4L450.8,474.4z M443.6,468c0.5,1.5,0.9,3.4,1,4.7l-1.3,0.4
	c-0.1-1.3-0.6-3.2-1-4.7L443.6,468L443.6,468z M448,472.3c0.4-1.2,0.9-3.3,1.2-4.6l1.4,0.4c-0.5,1.6-1,3.4-1.5,4.6L448,472.3
	L448,472.3z M456.2,473.5c-1.2,1.6-3.2,3.1-5,4.1c-0.3-0.3-0.9-0.9-1.3-1.2c1.8-0.8,3.6-2.1,4.7-3.4L456.2,473.5L456.2,473.5z
	 M453,460.1c-0.3-1.2-1.2-3.1-2-4.5l1.4-0.5c0.8,1.4,1.7,3.3,2.1,4.4L453,460.1L453,460.1z M455.9,460.5v-6.3h1.6v6.3h4.5v12h-10.4
	v-12H455.9z M460.4,462h-7.1v2h7.1V462z M460.4,465.4h-7.1v2.1h7.1V465.4z M460.4,468.9h-7.1v2.1h7.1V468.9z M459,472.9
	c1.6,1.2,3.5,2.7,4.6,3.8l-1.7,0.7c-0.9-1-2.6-2.5-4.2-3.7L459,472.9z M462.4,455.5c-0.6,1.7-1.5,3.5-2.4,4.7
	c-0.3-0.2-1-0.6-1.4-0.8c0.9-1.2,1.7-2.8,2.2-4.4L462.4,455.5L462.4,455.5z M434.9,305.5h-98.9c-8.9,0-16.1,7.2-16.1,16.1v98.9
	c0,8.9,7.2,16.1,16.1,16.1h98.9c8.9,0,16.1-7.2,16.1-16.1v-98.9C451.1,312.7,443.8,305.5,434.9,305.5z M58.7,724.6
	c-0.3-0.8-1-2.1-1.6-3.3v13.2h-1.6v-11.9c-0.7,2.7-1.6,5.2-2.5,6.8c-0.2-0.6-0.6-1.4-0.9-1.8c1.3-2.1,2.7-6.2,3.3-9.6h-2.8v-1.8h3
	v-4.9h1.6v4.9h2.6v1.8h-2.6v1.2c0.7,0.9,2.2,3.4,2.6,4.1L58.7,724.6z M62.8,721.7c-0.5,1-1.3,2.3-2.1,3.1l-1-1
	c0.8-0.7,1.6-1.9,2-2.8L62.8,721.7L62.8,721.7z M72.8,734.5c-1.3-0.7-3.2-1.4-5.2-2.2c-1.8,1.1-4.1,1.8-7.1,2.2
	c-0.1-0.5-0.4-1.1-0.7-1.5c2.4-0.3,4.4-0.7,5.9-1.5c-1.4-0.4-2.8-0.9-4.1-1.2c0.5-0.7,0.9-1.5,1.4-2.4h-3.1v-1.5h3.9
	c0.5-1,0.9-2,1.2-2.9l1.6,0.3c-0.3,0.8-0.7,1.7-1.1,2.6h4.7c0.1-0.4,0.2-0.8,0.3-1.2l1.6,0.3c-0.1,0.3-0.1,0.6-0.2,0.9h2.3v1.5h-2.8
	c-0.5,1.3-1.3,2.3-2.3,3.2c2,0.7,3.9,1.5,5.2,2.1L72.8,734.5L72.8,734.5z M66.2,720.9h-5.8V712h5.8V720.9z M64.8,713.3h-2.9v1.3h2.9
	V713.3z M64.8,715.8h-2.9v1.4h2.9V715.8z M64.8,718.3h-2.9v1.4h2.9V718.3z M64.7,728.1c-0.3,0.6-0.6,1.1-0.9,1.7
	c1.1,0.2,2.3,0.6,3.5,1c1-0.7,1.7-1.6,2.3-2.6H64.7L64.7,728.1z M64.8,721.1c0.6,0.5,1.3,1.3,1.7,1.8l-1,0.8
	c-0.4-0.5-1.1-1.3-1.7-1.9L64.8,721.1z M69.8,721.7c-0.5,1-1.3,2.3-2.2,3.1l-1-1c0.8-0.6,1.6-1.8,2.1-2.8L69.8,721.7L69.8,721.7z
	 M73.4,720.9h-6V712h6V720.9z M72,713.3h-3.2v1.3H72V713.3z M72,715.8h-3.2v1.4H72V715.8z M72,718.3h-3.2v1.4H72V718.3z M72,721
	c0.8,0.8,1.7,2,2.2,2.7l-1.1,0.8c-0.5-0.8-1.4-2-2.2-2.9L72,721L72,721z M85.8,718.6c-0.6,1.2-1.2,2.5-2,3.6v12.3h-1.8v-9.9
	c-0.9,1.2-1.9,2.1-2.9,3c-0.3-0.4-1-1-1.5-1.3c2.5-1.9,4.9-5.1,6.3-8.3L85.8,718.6L85.8,718.6z M85.9,713.8h2.5v1.8h-2.5v2.4h-1.8
	v-2.4h-5.8v-1.8h5.8v-2.6h1.8V713.8z M92,715.6h-2.7v-1.8H92v-2.6h1.8v2.6h5.7v1.8h-5.7v2.5H92V715.6z M96.8,732.4
	c1.1,0,1.3-0.6,1.4-3.9c0.4,0.4,1.1,0.7,1.7,0.8c-0.3,3.8-0.8,4.9-3,4.9h-4.4c-2.4,0-3.1-0.6-3.1-3.1v-12.8h1.8v4.2h8.2v1.8h-8.2
	v6.7c0,1,0.2,1.2,1.4,1.2H96.8L96.8,732.4z M108.5,721.3c-1.2,1.3-2.7,2.6-4.2,3.3c-0.2-0.4-0.7-0.9-1-1.2c1.7-0.6,3.5-2,4.6-3.3
	h-3.5v-4.4h4.1v-1.3h-4.8v-1.5h4.8v-1.6h1.6v1.6h4.6v1.5h-4.6v1.3h3.9v4.4h-3.9v0.9l0.7-0.9c1.2,0.6,2.5,1.5,3.3,2.1l-0.8,1.1
	c-0.7-0.7-2-1.6-3.2-2.2v3.3h-1.6V721.3L108.5,721.3z M115.3,732.2h10.1v1.6h-21.8v-1.6h4V728h1.7v4.2h4.3v-5.6h-8.4v-1.6h18.7v1.6
	h-8.5v2h6.9v1.5h-6.9L115.3,732.2L115.3,732.2z M105.9,718.7h2.6v-1.9h-2.6V718.7z M110.1,716.8v1.9h2.4v-1.9H110.1z M123.7,715.7
	c-0.6,2-1.4,3.7-2.5,5c1.2,1.1,2.6,2,4.3,2.6c-0.3,0.3-0.8,1-1,1.5c-1.7-0.7-3.2-1.7-4.4-2.9c-1.3,1.2-2.9,2.1-4.7,2.8
	c-0.2-0.3-0.7-1-1-1.3c1.9-0.6,3.4-1.5,4.7-2.7c-0.9-1.1-1.6-2.3-2.1-3.4c-0.5,0.6-0.9,1.2-1.4,1.8c-0.2-0.3-0.9-1-1.2-1.3
	c1.6-1.5,2.8-3.9,3.4-6.5l1.6,0.4c-0.2,0.8-0.5,1.7-0.8,2.5h6.7v1.6H123.7z M120.1,719.5c0.9-1.1,1.5-2.4,1.9-3.9l-4.2,0
	C118.3,717,119.1,718.3,120.1,719.5L120.1,719.5z M137.3,719.2h1v3.6h-1.1v9.8c0,0.8-0.1,1.2-0.7,1.5c-0.5,0.2-1.4,0.2-2.7,0.2
	c-0.1-0.4-0.3-1-0.5-1.5c0.9,0,1.8,0,2,0c0.3,0,0.3-0.1,0.3-0.4v-3.3c-1.1,0.7-2.2,1.4-3.2,2.1l-0.7-1.4c1-0.5,2.4-1.2,3.9-2v-4.3
	h-3.8v3.4c0,2.3-0.2,5.4-1.7,7.6c-0.3-0.3-0.9-0.8-1.3-1c1.3-1.9,1.4-4.6,1.4-6.6v-4.2h-1.2v-3.6h1v-7h7.1L137.3,719.2L137.3,719.2z
	 M136.9,720.6h-6.3v1.7h6.3V720.6z M131.6,719.2h1.5v-4h2.6v-1.6h-4.1V719.2z M134.6,727.7c-0.6-0.6-1.7-1.6-2.6-2.2l0.8-0.9
	c1,0.6,2.1,1.5,2.6,2.1L134.6,727.7L134.6,727.7z M135.8,719.2v-2.8h-1.6v2.8H135.8z M150.9,732.5v1.5h-12.5v-1.5h3.5
	c-0.2-0.8-0.5-1.7-0.8-2.4l1.4-0.4c0.4,0.9,0.8,2,1,2.8h2.3c0.4-0.9,0.8-2.1,1-2.9l1.7,0.5c-0.4,0.8-0.9,1.7-1.2,2.4H150.9
	L150.9,732.5z M150.7,723.6h-12.1v-1.4h12.1V723.6z M150.1,720.9h-10.9v-7.7h3v-1.9h1.5v1.9h1.7v-1.9h1.5v1.9h3.2V720.9z
	 M139.9,729.6v-4.7h9.7v4.7H139.9z M140.6,716.4h1.9v-1.8h-1.9V716.4z M140.6,719.5h1.9v-1.9h-1.9V719.5z M141.5,728.3h6.4v-2.1
	h-6.4V728.3z M145.5,716.4v-1.8h-1.8v1.8H145.5z M143.7,717.7v1.9h1.8v-1.9H143.7z M148.7,714.6h-2v1.8h2V714.6z M148.7,717.7h-2
	v1.9h2V717.7z M176.5,713.6v1.6h-18.8v6.1c0,3.8-0.3,9.5-2.2,13.3c-0.3-0.3-1-0.9-1.4-1.1c1.7-3.6,1.8-8.6,1.8-12.2v-7.8h9.4
	c-0.3-0.7-0.8-1.5-1.3-2.1l1.4-0.7c0.7,0.8,1.3,1.9,1.7,2.8H176.5L176.5,713.6z M166.4,728.7c-0.4,1-0.8,2-1.2,3
	c0.9-0.1,1.8-0.2,2.7-0.4l0.1,1.5c-3.4,0.5-6.9,0.9-9.5,1.3l-0.3-1.6c1.4-0.2,3.4-0.4,5.5-0.6c0.5-1,1-2.5,1.3-3.5L166.4,728.7z
	 M163.8,717.5h4v1.4h-4v1.7h3.4v1.4h-8.4v-1.4h3.4v-1.7h-3.9v-1.4h3.9v-1.7h1.6L163.8,717.5L163.8,717.5z M166.8,727.9h-7.6v-4.5
	h7.6V727.9z M160.6,731.7c-0.2-0.8-0.7-2-1.2-2.9l1.4-0.4c0.6,0.9,1.1,2.1,1.3,2.8L160.6,731.7L160.6,731.7z M165.2,724.6h-4.6v2.1
	h4.6V724.6z M174.2,720h2.2v1.6h-2.2v10.7c0,1.1-0.2,1.6-0.9,1.9c-0.7,0.3-1.8,0.3-3.6,0.3c-0.1-0.5-0.3-1.2-0.6-1.7
	c1.3,0,2.6,0,2.9,0c0.4,0,0.5-0.1,0.5-0.5v-10.7H168V720h4.6v-4.1h1.7L174.2,720L174.2,720z M170,729c-0.2-1.5-1.1-3.8-1.9-5.5
	l1.4-0.5c0.9,1.7,1.8,4,2.1,5.4L170,729L170,729z M191.1,725.5c-0.1,0.7-0.2,1.3-0.4,2h8.4c0,0,0,0.5,0,0.8
	c-0.3,3.6-0.7,5.1-1.3,5.7c-0.4,0.4-0.9,0.6-1.6,0.6c-0.6,0-1.8,0-3.1,0c-0.1-0.5-0.2-1.2-0.5-1.6c1.2,0.1,2.4,0.1,2.8,0.1
	c0.4,0,0.7,0,0.9-0.2c0.3-0.4,0.6-1.4,0.9-3.8h-7c-0.9,2.6-2.8,4.4-6.4,5.6c-0.2-0.5-0.6-1.1-1-1.5c4.7-1.4,5.9-4,6.4-7.6h-5.2
	c-0.3,3.2-1.1,6.6-2.9,9.2c-0.3-0.4-1-1.1-1.3-1.3c2.5-3.5,2.7-8.5,2.7-12.3v-7.9h0c5.4-0.3,11.9-1,15.4-1.9l1.4,1.4
	c-4,0.9-9.8,1.5-15.1,1.9v1.3H200v5.6h-15.7c0,0.7,0,1.6-0.1,2.4h7.7c-0.3-0.6-0.7-1.3-1.1-1.9l1.7-0.5c0.5,0.7,1.1,1.6,1.4,2.3h7.8
	v1.5H191.1z M184.3,717.5v2.5h13.9v-2.5H184.3z M177.9,559.3H79.1c-8.9,0-16.1,7.2-16.1,16.1v98.9c0,8.9,7.2,16.1,16.1,16.1h98.9
	c8.9,0,16.1-7.2,16.1-16.1v-98.9C194.1,566.5,186.8,559.3,177.9,559.3z M585.1,722.6c-0.9-0.8-2.7-1.9-4.2-2.7l1-1.4
	c1.4,0.7,3.3,1.8,4.2,2.5L585.1,722.6L585.1,722.6z M581.7,732.9c1-1.8,2.4-4.7,3.5-7.2l1.4,1.2c-0.9,2.4-2.2,5.1-3.3,7.3
	L581.7,732.9L581.7,732.9z M586.5,716.1c-0.9-0.9-2.9-2.3-4.4-3.2l1.1-1.3c1.5,0.9,3.4,2.2,4.4,3L586.5,716.1z M595.8,716.3
	c-0.1,0.3-0.2,0.5-0.4,0.8c2.1,3.7,4.7,5.9,7.9,7.6c-0.5,0.4-1,1-1.2,1.6c-0.6-0.4-1.2-0.7-1.7-1.1v9.2h-1.8v-0.9h-7.9v1h-1.8v-9.4
	c-0.6,0.4-1.1,0.8-1.7,1.1c-0.2-0.5-0.8-1.1-1.2-1.5c3.5-1.9,6.6-5.2,8.2-9L595.8,716.3L595.8,716.3z M593.7,712.1
	c-1.4,2.5-3.4,5-5.2,6.7c-0.3-0.3-1-0.9-1.5-1.2c1.8-1.5,3.7-3.8,4.9-6.1L593.7,712.1z M600.2,725c-2.2-1.6-4-3.5-5.6-6.1
	c-1.4,2.4-3.2,4.5-5.4,6.1H600.2z M598.6,731.8v-5.1h-7.9v5.1H598.6z M601.1,718.4c-1.1-1.5-3.3-4-5.1-5.9l1.4-1
	c1.7,1.7,4,4.1,5.1,5.7L601.1,718.4L601.1,718.4z M628.1,732.1v1.7h-21.3v-1.7h9.7v-3.4H609V727h7.5v-2.7h1.8v2.7h7.7v1.7h-7.7v3.4
	H628.1z M608.8,718h-1.7v-4.5h9.7c-0.3-0.6-0.6-1.4-0.9-2l1.7-0.5c0.4,0.8,0.9,1.8,1.2,2.5h8.9v4.5H626v-2.7h-17.1V718z
	 M624.7,725.1c-0.3-0.5-0.8-1-1.4-1.6c-11.5,0.9-12.6,1-13.4,1.4c-0.1-0.4-0.3-1.2-0.5-1.7c0.5-0.1,1-0.4,1.6-0.9
	c0.5-0.4,2-1.6,3.3-3.1h-4.9v-1.7h16v1.7h-8.7c-1.3,1.3-2.7,2.6-4.1,3.7l9.3-0.7c-0.7-0.6-1.3-1.2-2-1.8l1.3-0.9
	c1.7,1.3,3.7,3.3,4.7,4.6L624.7,725.1L624.7,725.1z M634.3,729.6v2h-1.6v-18.4h6.2v16.4H634.3z M634.3,714.9v5.5h3v-5.5H634.3z
	 M637.4,727.9v-5.8h-3v5.8H637.4z M652.2,725.4c-0.7,2.4-1.9,4.2-3.3,5.7c1.5,0.9,3.4,1.5,5.4,1.9c-0.4,0.4-0.9,1.1-1.1,1.6
	c-2.1-0.5-4-1.3-5.7-2.4c-1.6,1.1-3.3,1.9-5.3,2.4c-0.2-0.4-0.7-1.1-1-1.4c1.8-0.4,3.5-1.1,4.9-2c-1.1-0.9-2.1-2-2.8-3.3
	c-0.9,2.6-2.4,5-4.8,6.7c-0.3-0.4-0.8-1-1.2-1.3c3.5-2.3,4.8-6.2,5.3-9.9h-3.3v-1.6h3.5c0.1-0.7,0.2-1.4,0.2-2h-3v-1.5h8.6
	c0.8-1.2,1.7-3,2.2-4.3l1.7,0.6c-0.7,1.2-1.5,2.6-2.2,3.7h2.9v1.5h-8.5c0,0.6-0.1,1.3-0.2,2h9.2v1.6h-9.4c-0.1,0.6-0.2,1.2-0.3,1.7
	h6.8l0.3,0L652.2,725.4L652.2,725.4z M652.9,712.8c-3.3,0.8-8.5,1.2-12.7,1.3c0-0.4-0.2-1-0.4-1.5c4.2-0.1,9.3-0.6,12.1-1.2
	L652.9,712.8L652.9,712.8z M642.2,714.5c0.5,1,1,2.3,1.2,3.1l-1.5,0.5c-0.2-0.8-0.7-2.2-1.1-3.2L642.2,714.5L642.2,714.5z
	 M644.3,726.4c0.8,1.4,1.9,2.7,3.2,3.7c1.1-1,2-2.2,2.6-3.7H644.3z M645.8,717.8c-0.1-0.9-0.4-2.3-0.7-3.5l1.5-0.2
	c0.3,1.1,0.6,2.5,0.7,3.4L645.8,717.8L645.8,717.8z M676.7,712.6c0,9.5,0,19.9,1.4,19.9c0.3,0,0.4-1.7,0.5-3.9
	c0.3,0.5,0.8,1,1.1,1.3c-0.2,3.3-0.5,4.6-1.8,4.6c-2.9,0-2.9-9-3-20.1h-13v6.4c0,4.1-0.4,9.9-3.1,13.7c-0.3-0.4-1-0.8-1.4-1.1
	c2.6-3.6,2.9-8.8,2.9-12.7v-8.2H676.7L676.7,712.6z M672.3,727.6c1.2,1.7,2.4,4,2.9,5.6l-1.5,0.6c-0.1-0.6-0.4-1.2-0.7-1.9
	c-4,0.3-8.2,0.6-11,0.8l-0.1-1.7c1.5-0.1,3.5-0.2,5.6-0.4V727h-4.2v-6.9h4.2v-2.5h-4.5v-1.6h10.8v1.6H669v2.5h4.3v6.9H669v3.5
	l3.1-0.2c-0.4-0.7-0.8-1.5-1.3-2.1L672.3,727.6L672.3,727.6z M667.4,725.5v-3.9h-2.7v3.9H667.4z M669,721.6v3.9h2.8v-3.9H669z
	 M688.5,724.8c-0.2-0.7-0.8-1.9-1.3-3v12.6h-1.6v-12.1c-0.6,2.6-1.4,5.1-2.3,6.7c-0.1-0.5-0.6-1.4-0.8-1.8c1.2-2.1,2.3-6,2.9-9.3
	h-2.4v-1.8h2.6v-4.9h1.6v4.9h1.9v1.8h-1.9v1.7c0.5,0.9,1.8,3.3,2.1,3.9L688.5,724.8z M703.4,726.7c-0.8,1.5-1.7,2.9-3,4.1
	c0.7,1.1,1.5,1.7,2.5,1.8c0.5,0,0.8-0.9,1-2.8c0.3,0.4,0.9,0.8,1.2,1c-0.5,2.8-1.2,3.7-2.2,3.6c-1.6-0.1-2.8-1-3.8-2.6
	c-1.3,1-2.7,1.8-4.2,2.5c-0.2-0.3-0.6-0.9-1-1.2c1.7-0.7,3.2-1.6,4.5-2.6c-0.6-1.3-1-2.9-1.4-4.7h-3.9v0.4c0,0.2,0,0.4,0,0.6
	c1.2,0.9,2.6,2.2,3.3,3l-1.1,1.2c-0.6-0.6-1.5-1.6-2.4-2.4c-0.4,2-1.4,4.2-3.6,5.9c-0.2-0.4-0.9-0.9-1.2-1.1c2.8-2.2,3.4-5,3.4-7.2
	v-0.4h-1.8v-1.5h7.1c-0.6-3.6-0.9-8-1-12.9h1.5c0.1,5,0.5,9.4,1.1,12.9h3.5c-0.6-0.5-1.4-1.2-2.1-1.6l0.9-0.9c0.8,0.5,2,1.3,2.5,1.8
	l-0.6,0.7h2v1.5h-5.8c0.3,1.3,0.6,2.5,1,3.5c0.9-1,1.7-2.1,2.2-3.2L703.4,726.7L703.4,726.7z M694.8,722.9c-0.1-0.3-0.2-0.7-0.3-1.1
	c-3.5,0.6-4,0.7-4.4,0.9c-0.1-0.3-0.2-1-0.4-1.4c0.3-0.1,0.8-0.5,1.2-1.2c0.2-0.3,0.9-1.2,1.5-2.3c-1.9,0.3-2.4,0.4-2.6,0.5
	c0-0.3-0.3-1-0.4-1.4c0.3-0.1,0.6-0.4,0.9-0.9c0.3-0.5,1.4-2.5,2-4.4l1.4,0.5c-0.7,1.7-1.5,3.3-2.4,4.6l1.9-0.2
	c0.3-0.6,0.6-1.1,0.8-1.7l1.3,0.5c-1.1,2-2.3,4-3.6,5.6l2.4-0.3c-0.2-0.6-0.4-1.1-0.6-1.6l1.1-0.3c0.5,1.2,1,2.8,1.2,3.8
	L694.8,722.9L694.8,722.9z M703.5,722.5c-0.1-0.3-0.2-0.7-0.3-1.1c-3.5,0.6-4.1,0.7-4.4,0.9c-0.1-0.3-0.3-1.1-0.5-1.5
	c0.4-0.1,0.8-0.5,1.2-1.1c0.3-0.3,0.8-1.2,1.5-2.3c-1.8,0.2-2.2,0.4-2.4,0.5c-0.1-0.3-0.3-1-0.5-1.4c0.3,0,0.6-0.4,0.9-0.8
	c0.3-0.4,1.3-2.3,1.7-4l1.4,0.4c-0.6,1.5-1.4,3-2.1,4.2l1.8-0.2c0.3-0.6,0.6-1.2,0.8-1.8l1.4,0.5c-1,2.1-2.3,4.1-3.5,5.7l2.4-0.4
	c-0.2-0.5-0.4-1-0.6-1.5l1.1-0.3c0.5,1.2,1.1,2.8,1.4,3.8L703.5,722.5L703.5,722.5z M692.5,562.5h-98.9c-8.9,0-16.1,7.2-16.1,16.1
	v98.9c0,8.9,7.2,16.1,16.1,16.1h98.9c8.9,0,16.1-7.2,16.1-16.1v-98.9C708.6,569.7,701.4,562.5,692.5,562.5z M516,0H258v258h258V0z
	 M258,774h258V516H258V774z M774,258H516v258h258V258z M0,258v258h258V258H0z M177.9,45.6H79.1c-8.9,0-16.1,7.2-16.1,16.1v98.9
	c0,8.9,7.2,16.1,16.1,16.1h98.9c8.9,0,16.1-7.2,16.1-16.1V61.7C194.1,52.8,186.8,45.6,177.9,45.6z M85.3,205.1c-0.5,1-1,2.1-1.7,3.1
	v14.4H82v-11.9c-0.7,1-1.4,1.8-2.1,2.6c-0.2-0.4-0.8-1.3-1.1-1.7c1.8-1.8,3.7-4.5,4.9-7.2L85.3,205.1L85.3,205.1l2.5-0.1
	c0.2-0.7,0.3-1.4,0.4-2.2H86v-1.4h2.5c0.1-0.7,0.2-1.4,0.3-2l1.5,0.1c-0.1,0.6-0.2,1.2-0.3,1.9H94v3.6h1.6v1.5H85.3V205.1
	L85.3,205.1z M84.9,200c-1.2,2-3.1,4.3-4.8,5.8c-0.2-0.4-0.7-1.1-1-1.4c1.5-1.3,3.2-3.4,4.1-5.1L84.9,200z M92,219.6v3.1h-1.7v-3.1
	h-4.9c0.2-1,0.4-2.6,0.6-3.9h-1v-1.4h5.2v-1.5h-4.1v-5.1h8.4v5.1H92v1.5h3.3v1.4H92v2.4h3.8v1.4H92z M90.3,218.1v-2.4h-2.8
	c-0.1,0.8-0.2,1.6-0.4,2.4H90.3z M87.6,211.4h5.5v-2.4h-5.5V211.4z M89.8,202.8c-0.2,0.8-0.3,1.6-0.4,2.2h3v-2.2H89.8L89.8,202.8z
	 M101.6,209.5h-2.1v10.7c0,1-0.2,1.6-0.9,1.9c-0.6,0.3-1.7,0.3-3.3,0.3c0-0.5-0.3-1.3-0.5-1.8c1.2,0,2.2,0,2.5,0
	c0.3,0,0.4-0.1,0.4-0.4v-10.7h-2.6v-1.8h6.4L101.6,209.5L101.6,209.5z M101.2,202.7h-5.6v-1.7h5.6V202.7z M109.2,210.7
	c-0.9-0.8-2.7-1.9-4.2-2.7l1-1.4c1.4,0.7,3.3,1.8,4.2,2.5L109.2,210.7L109.2,210.7z M105.8,221c1-1.8,2.4-4.7,3.5-7.2l1.4,1.1
	c-0.9,2.4-2.2,5.2-3.3,7.3L105.8,221L105.8,221z M110.6,204.2c-0.9-0.9-2.9-2.3-4.4-3.2l1.1-1.3c1.5,0.9,3.4,2.2,4.4,3L110.6,204.2z
	 M119.9,204.4c-0.1,0.3-0.2,0.5-0.4,0.8c2.1,3.7,4.7,5.9,7.9,7.6c-0.5,0.4-1,1-1.2,1.5c-0.6-0.4-1.2-0.7-1.7-1.1v9.2h-1.8v-0.9h-7.9
	v1H113v-9.4c-0.6,0.4-1.1,0.8-1.7,1.1c-0.2-0.5-0.8-1.1-1.2-1.5c3.5-1.9,6.6-5.2,8.2-9L119.9,204.4L119.9,204.4z M117.7,200.2
	c-1.4,2.4-3.4,5-5.2,6.6c-0.3-0.3-1-0.9-1.5-1.1c1.8-1.5,3.7-3.9,4.9-6.1L117.7,200.2z M124.2,213.1c-2.2-1.6-4-3.5-5.6-6.1
	c-1.4,2.4-3.2,4.5-5.4,6.1H124.2z M122.7,219.9v-5.1h-7.9v5.1H122.7z M125.2,206.5c-1.1-1.5-3.3-4.1-5.1-5.9l1.4-1
	c1.7,1.7,4,4.1,5.1,5.7L125.2,206.5L125.2,206.5z M138.2,216.2c-1.4,2-3.6,4.1-5.4,5.4c-0.3-0.3-1.1-0.9-1.6-1.2
	c1.9-1.2,3.9-3.1,5.2-4.8L138.2,216.2z M142.6,214.1v6.2c0,1.1-0.2,1.6-1,1.9c-0.8,0.3-2,0.3-3.8,0.3c-0.1-0.5-0.4-1.3-0.7-1.9
	c1.4,0.1,2.8,0.1,3.1,0c0.4,0,0.5-0.1,0.5-0.4v-6c-6.6,0.5-7.6,0.7-8.2,0.9c-0.1-0.4-0.3-1.3-0.5-1.8c0.8-0.1,1.9-0.5,3.3-1.2
	c0.9-0.4,3-1.5,5.3-2.9c-5.4,0.3-6.3,0.5-6.8,0.6c-0.1-0.4-0.3-1.3-0.6-1.8c0.6-0.1,1.2-0.3,2-0.8c0.9-0.4,3.6-2.1,5.6-4
	c-2.9,0.8-5.9,1.4-8.8,2c-0.1-0.5-0.3-1.2-0.5-1.6c5.4-1,11.6-2.6,15-4.3l1.3,1.5c-1.9,0.9-4.4,1.7-7,2.5l1.5,1
	c-1.6,1.3-3.4,2.6-5.1,3.5l5.9-0.3c1-0.6,1.9-1.3,2.8-2l1.4,1.2c-3.3,2.4-6.7,4.4-10.1,6l10.3-0.7c-0.8-0.9-1.6-1.8-2.3-2.5l1.4-0.8
	c1.8,1.7,3.9,4.1,4.9,5.6l-1.5,1c-0.3-0.5-0.8-1.1-1.3-1.8L142.6,214.1L142.6,214.1z M146.2,215.3c1.9,1.5,4.3,3.6,5.5,5l-1.5,1.1
	c-1.2-1.4-3.5-3.6-5.4-5.1L146.2,215.3z M158.4,215.9c-0.2,2.2-0.7,4.6-1.2,6.1c-0.3-0.2-1-0.4-1.4-0.6c0.6-1.6,0.9-3.8,1.2-5.9
	L158.4,215.9z M163.3,214.4c-0.1-0.4-0.2-0.8-0.3-1.3c-5.3,0.9-6.1,1.1-6.5,1.4c-0.1-0.4-0.4-1.3-0.6-1.8c0.5-0.1,1.1-0.8,1.8-1.7
	c0.4-0.4,1.1-1.5,2-2.8c-2.6,0.3-3.1,0.4-3.4,0.6c-0.1-0.4-0.4-1.3-0.6-1.7c0.4-0.1,0.8-0.6,1.3-1.4c0.5-0.7,2.2-3.7,3.3-6.4
	l1.6,0.7c-1.1,2.5-2.5,4.9-3.9,6.9l2.5-0.2c0.7-1.1,1.4-2.4,1.9-3.6l1.5,0.9c-1.6,3-3.5,6-5.5,8.4l3.9-0.6c-0.3-0.8-0.6-1.7-0.9-2.4
	l1.3-0.5c0.8,1.6,1.4,3.8,1.7,5.1L163.3,214.4L163.3,214.4z M160.9,215.5c0.3,1.7,0.6,3.9,0.6,5.4l-1.4,0.4
	c-0.1-1.5-0.3-3.7-0.6-5.4L160.9,215.5z M163.5,219.9c-0.2-1.2-0.8-3.2-1.3-4.6l1.3-0.5c0.6,1.5,1.1,3.3,1.4,4.6L163.5,219.9
	L163.5,219.9z M175.9,220.5c0.5,0,0.6-0.5,0.7-3.4c0.4,0.3,1.1,0.6,1.6,0.7c-0.2,3.4-0.6,4.3-2.1,4.3H174c-1.7,0-2.1-0.6-2.1-2.4
	v-8.9l-2.3,0.3c-0.2,6-0.9,9.6-5.1,11.6c-0.2-0.5-0.7-1.1-1.1-1.5c3.8-1.7,4.4-4.7,4.5-9.9c-1.6,0.2-2,0.4-2.4,0.5
	c-0.1-0.4-0.4-1.3-0.6-1.9c0.5-0.1,1-0.8,1.7-1.9c0.4-0.6,1.2-2,2.1-3.7H165v-1.8h4.4c0.5-1,0.9-2.1,1.3-3.2l1.9,0.6
	c-0.4,0.9-0.8,1.8-1.2,2.6h6.2v1.8h-7.1c-1,1.9-2,3.7-3.1,5.2l7.1-0.7c-0.5-1-1.1-2-1.6-2.8l1.5-0.7c1.2,1.9,2.8,4.5,3.4,6.1
	l-1.6,0.8c-0.2-0.5-0.5-1.2-0.9-1.9l-1.8,0.2v9.1c0,0.7,0.1,0.8,0.6,0.8L175.9,220.5L175.9,220.5z"/>
<path class="st1" d="M693.5,302.3h-98.9c-8.9,0-16.1,7.2-16.1,16.1v98.9c0,8.9,7.2,16.1,16.1,16.1h98.9c8.9,0,16.1-7.2,16.1-16.1
	v-98.9C709.6,309.5,702.4,302.3,693.5,302.3z M179,302.3H80.1c-8.9,0-16.1,7.2-16.1,16.1v98.9c0,8.9,7.2,16.1,16.1,16.1H179
	c8.9,0,16.1-7.2,16.1-16.1v-98.9C195.1,309.5,187.9,302.3,179,302.3z M436.4,559.3h-98.9c-8.9,0-16.1,7.2-16.1,16.1v98.9
	c0,8.9,7.2,16.1,16.1,16.1h98.9c8.9,0,16.1-7.2,16.1-16.1v-98.9C452.5,566.5,445.3,559.3,436.4,559.3z M436.4,45.3h-98.9
	c-8.9,0-16.1,7.2-16.1,16.1v98.9c0,8.9,7.2,16.1,16.1,16.1h98.9c8.9,0,16.1-7.2,16.1-16.1V61.4C452.5,52.5,445.3,45.3,436.4,45.3z"
	/>
<path class="st2" d="M619.1,379c1.7,0,2,0,2.5,1.1C621.1,379,620.8,379,619.1,379c-0.2,0-0.5,0-0.7,0C618.6,379,618.8,379,619.1,379
	L619.1,379z M648.1,372.4c0-4.6,0-9.1,0-13.7c0-0.4-0.1-0.7-0.2-1c-0.5-1-0.1-1.6,1-1.6c1.3,0,2.6,0,3.9,0c2.4,0,4.8,0,7.3,0.1
	c0.6,0,1.1-0.1,1.1-0.9c0-2.9,0.1-5.7,0.2-8.6c0-1.2-0.3-1.5-1.5-1.6c-3.6-0.1-7.1-0.2-10.7-0.2c0,0,0,0,0,0.1c-2,0-4,0-6,0
	c-0.6,0-1-0.1-0.9-0.9c0-0.1-0.3-0.5-0.5-0.5c-2-0.1-4-0.2-5.9-0.3c-0.6,0-1.3,0.2-1.7,0.5c-1.1,1-2.3,1.2-3.6,1.1
	c-0.3,0-0.6-0.1-0.9,0c-0.6,0-1,0.4-1,1c0,3,0,5.9,0,8.9c0,0.3,0.3,0.8,0.6,0.9c0.7,0.2,1.5,0.3,2.2,0.3c2.3,0,4.6,0,6.9,0
	c0.3,0,1,0.3,1,0.4c0,0.6-0.5,0.5-1,0.6c-0.7,0.1-1.3,0.1-2,0.2c-2.3,0.3-4.6,0.7-6.9,1c-0.5,0.1-0.8,0.3-0.8,0.8c0,0.8,0,1.5,0,2.3
	c0,1,0.4,1.3,1.4,1.1c1.8-0.3,3.7-0.6,5.5-0.9c1.2-0.2,2.4-0.3,3.6-0.5c1.3-0.2,2.1,0.3,2.1,1.6c0,0.9,0,1.9,0,2.8
	c-0.1,2.2-0.1,4.4-0.2,6.6c0,0.9,0.2,1.1,1.1,1.1c1.8,0,3.7,0,5.5,0C647.8,373.2,648.1,373,648.1,372.4L648.1,372.4z M651,350.5
	c-0.1-2.1,1.2-3,3.2-2.2c0.3,0.1,0.6,0.6,0.7,1c0.1,0.3,0,0.8,0,1.2c0,2.1-0.1,2.2-2.3,2.3c-1.3,0-1.5-0.2-1.7-1.5
	C650.9,351,651,350.8,651,350.5z M639.1,351.1c0,0.3-0.1,0.7-0.3,0.9c-0.3,0.6-1.8,0.9-2.9,0.5c-0.7-0.2-0.9-0.8-0.9-1.5
	c0-0.5,0-1,0-1.5c0-1.2,0.3-1.5,1.5-1.5c0.2,0,0.4,0,0.5,0c1.7,0,2,0.3,2,2C639.1,350.4,639.1,350.8,639.1,351.1z M646.9,351.7
	c0,0.2-0.1,0.4-0.2,0.6c-0.8,0.9-1.9,0.4-2.8,0.3c-0.3-0.1-0.8-0.6-0.8-1c-0.1-0.8-0.1-1.5,0-2.3c0.1-0.9,0.5-1.1,2-1.1
	c0.3,0,0.7-0.1,1,0c0.3,0.1,0.8,0.5,0.8,0.8C646.9,349.9,646.9,350.8,646.9,351.7z M615.5,372.6c0.2,0.2,0.5,0.4,0.8,0.4
	c2.1,0,4.2,0,6.3,0c0.2,0,0.5-0.2,0.6-0.3c0.1-0.1-0.1-0.4-0.2-0.6c-0.6-0.6-1.2-1.2-1.8-1.9c-0.2-0.2-0.3-0.7-0.3-1
	c0-0.2,0.5-0.3,0.8-0.3c1.2-0.1,1.5-0.4,1.5-1.6c0-3.1,0-6.2,0.1-9.4c0-0.9,0-1.8,0-2.6c0-0.5-0.4-0.8-0.9-0.8
	c-0.9,0-1.8-0.1-2.6-0.1c-4.5-0.1-9-0.2-13.5-0.3c-2.1,0-4.1,0-6.2,0c-2,0-4,0-6,0c-1,0-1.5,0.4-1.5,1.2c-0.1,3.8-0.1,7.7-0.1,11.5
	c0,1.4,0.1,1.5,1.5,1.9c0.2,0.1,0.5,0.2,0.7,0.4c0.1,0.1-0.2,0.5-0.3,0.6c-0.4,0.4-0.8,0.7-1.2,1.1c-0.4,0.4-0.7,0.9-1.1,1.3
	c0.6,0.2,1.1,0.5,1.7,0.5c1.6,0.1,3.1,0.1,4.7,0c0.8-0.1,1.6-0.5,2.2-0.9c0.8-0.6,1.4-1.4,2.1-2c0.6-0.4,1.3-0.9,2-0.9
	c2.2-0.1,4.4,0,6.6,0.1c0.7,0,1.2,0.3,1.6,0.8C613.6,370.7,614.5,371.6,615.5,372.6L615.5,372.6z M600.5,356.8
	c0.1-0.1,0.4-0.1,0.6-0.1c4.5,0.1,9,0.2,13.5,0.3c0.5,0,1,0.1,1,0.8c0,0.6-0.5,0.8-1.1,0.8c-1,0-2.1,0-2.7,0
	c-3.6-0.1-6.8-0.2-10-0.2c-0.4,0-0.7,0.1-1.1,0c-0.3-0.1-0.8-0.4-0.8-0.6C600,357.4,600.3,357,600.5,356.8L600.5,356.8z M600.6,361
	c0.4-0.1,0.8,0,1.2,0c3.8,0,7.6,0,11.5,0c0.6,0,1.1,0.1,1.7,0.3c0.3,0.1,0.4,0.5,0.7,0.8c-0.3,0.2-0.6,0.5-0.9,0.5c-2.3,0-4.6,0-7,0
	v0c-2.2,0-4.4,0-6.6,0c-0.3,0-0.6,0-0.8-0.1c-0.2-0.2-0.5-0.6-0.4-0.8C599.9,361.4,600.3,361.1,600.6,361L600.6,361z M601.2,366.2
	c-0.2,0-0.4,0-0.5,0c-0.5,0-0.9-0.2-0.9-0.8c0-0.6,0.4-0.8,0.9-0.8c1.5,0,2.9,0,4.4,0c0,0.1,0,0.1,0,0.2c3.1,0,6.3,0,9.4,0
	c0.5,0,1,0,1,0.7c0,0.7-0.5,0.8-1.1,0.8c-1.1,0-2.2-0.1-3.3-0.1C607.9,366.2,604.5,366.2,601.2,366.2z M696.1,365.6
	c-0.5,0-1.1,0-1.6,0c-1,0-1.6-0.5-1.6-1.5c0-0.6,0-1.1,0-1.7c0-1.1,0.4-1.4,1.4-1.5c0.2,0,0.5,0,0.7,0c1.5,0,1.8-0.3,1.8-1.8
	c0-2.3,0-4.6,0-7c0-1.6,0-3.2,0-4.9c0-0.9-0.3-1.2-1.1-1.2c-2.1,0-4.2,0.1-6.3,0.1c-0.3,0-0.8-0.1-0.9-0.3c-0.1-0.2,0-0.7,0.2-1
	c0.3-0.6,0.3-0.8-0.4-0.8c-1.1,0-2.3,0.1-3.4,0c-1.4-0.2-2.5,0.3-3.5,1.3c-0.4,0.4-1,0.6-1.5,0.6c-0.9,0.1-1.3,0.3-1.3,1.3
	c0,2,0,4.1,0,6.1h0c0,2,0,4,0,5.9c0,1.2,0.3,1.5,1.4,1.5c0.1,0,0.2,0,0.3,0c0.8,0.1,1.1,0.5,0.7,1.2c-0.1,0.2-0.3,0.5-0.5,0.7
	c-1.3,1.5-2.4,3.1-2,5.2c0,0.1,0,0.1,0,0.2c-0.1,1.2,0.1,1.4,1.4,1.4c1.9,0,3.9,0,5.8,0c1.3,0,1.7,0.4,1.7,1.7c0,0.6,0,1.3,0,1.9
	c0,0.5,0.3,0.9,0.9,0.9c1.3,0,2.5,0,3.8,0c0.5,0,0.8-0.2,0.7-0.8c0-0.8,0-1.6,0-2.3c0-0.8,0.4-1.2,1.1-1.3c0.6,0,1.2,0,1.9,0
	c0.8,0,1.2-0.4,1.3-1.2c0-0.6,0-1.1,0-1.7C697,366,696.8,365.6,696.1,365.6L696.1,365.6z M683,350.1c0.1-0.2,0.3-0.5,0.4-0.6
	c0.7-0.1,1.3-0.2,2-0.1c0.2,0,0.5,0.7,0.5,1s-0.3,0.7-0.6,1c-0.1,0.1-0.5,0.1-0.5,0.1C683.2,351.5,682.7,351,683,350.1L683,350.1z
	 M683,355.8c0.1-0.3,0.4-0.6,0.7-0.8c0.2-0.1,0.5-0.1,0.8-0.1c0.2,0.1,0.6,0,0.9,0.2c0.3,0.2,0.6,0.7,0.6,1c0.1,0.5-0.2,1-0.7,1
	c-0.7,0-1.4-0.1-2.1-0.3C683,356.7,682.9,356.1,683,355.8L683,355.8z M687.3,363.5c0,1.7-0.4,2.1-1.6,2c-0.8,0-1.1-0.6-0.7-1.3
	c0.3-0.5,0.7-1,1.2-1.4c0.2-0.2,0.6-0.2,0.9-0.3c0.1,0.3,0.2,0.5,0.3,0.8C687.3,363.5,687.3,363.6,687.3,363.5L687.3,363.5z
	 M692.7,356.6c-0.3,0.8-1,0.7-1.7,0.7c-0.6,0-1.1-0.1-1.3-0.8c-0.2-0.9,0.2-1.4,1.6-1.5c0.4,0.2,0.9,0.2,1.2,0.5
	C692.7,355.7,692.8,356.2,692.7,356.6z M692.7,350.9c-0.2,0.7-0.9,0.6-1.3,0.6c-1.3,0-1.7-0.3-1.7-1.1c0-0.1,0-0.2,0-0.2
	c0.1-0.7,1.3-1.2,2.3-0.9C692.6,349.5,692.9,350.2,692.7,350.9z M676.1,343.7c-0.9,0-1.8,0-2.6,0c-0.8,0-1.1,0.2-1.1,1
	c0,2.5-0.1,4.9-0.1,7.3c0,0.5-0.1,1-0.6,1.2c-0.9,0.4-1.5,0-1.5-1c0-2.5,0-5,0-7.4c0-1-0.1-1.1-1.2-1.2c-0.8,0-1.7,0-2.5,0
	c-1,0-1.3,0.2-1.3,1.3c0,4.2,0,8.4,0,12.7c0,4.9-0.1,9.8-0.2,14.8c0,0.9,0.3,1.3,1.3,1.3c0.8,0,1.7,0,2.5,0c0.6,0,0.9-0.3,1-0.8
	c0.1-0.3,0.1-0.7,0.1-1c0-1.4-0.1-2.9,0-4.3c0-0.8,0.1-1.6,0.2-2.5c0.1-0.6,0.6-0.8,1.2-0.7c0.5,0.1,0.7,0.4,0.7,0.9
	c0,1.1,0,2.2,0,3.2c0,1.3,0,2.6,0,3.9c0,0.9,0.3,1.1,1.2,1.1c1,0,1.9,0,2.9,0c0.6,0,0.9-0.3,0.9-0.9c0-1.9,0-3.9,0-5.8
	c0,0,0.1,0,0.1,0c0-1.9,0-3.7,0-5.6c0-1.5-0.3-1.9-1.9-1.9c-1.4,0-2.8,0-4.2,0c-0.7,0-1.1-0.5-0.8-1.1c0.2-0.3,0.6-0.5,0.9-0.5
	c1.6-0.1,3.2,0,4.8,0c0.9,0,1-0.1,1-1c0.1-1.8,0.2-3.5,0.2-5.3c0-2.3,0-4.5,0-6.8C677.2,344,676.8,343.7,676.1,343.7z M592.7,348.2
	c1.2,0.1,1.5,0.6,0.9,1.6c-0.3,0.7-0.7,1.4-1.1,2.1c-0.4,0.7-0.1,1.1,0.7,1.1c0.7,0,1.3,0,2,0c2.5,0,2.5,0,3.5-2.3
	c0.3-0.7,0.7-1.5,1.2-2.1c0.5-0.6,1.8-0.6,2.3,0c0.5,0.5,0.5,1.5-0.2,2.1c-0.3,0.3-0.8,0.4-1.2,0.5c-0.8,0.2-0.7,0.8-0.7,1.3
	c0,0.2,0.5,0.5,0.8,0.5c0.6,0.1,1.2,0,1.8,0c0,0,0-0.1,0-0.1c1,0.1,1.9,0.2,2.9,0.3c1,0.1,1.5-0.1,1.7-1.1c0.5-2.3,0.9-4.6,1.3-6.9
	c0.1-0.6-0.2-0.9-0.8-0.9c-1.5,0-3,0-4.5,0c-0.6,0-1-0.2-1.3-0.7c-0.1-0.2-0.5-0.4-0.7-0.5c-1.3-0.1-2.5-0.2-3.8-0.1
	c-0.4,0-0.9,0.3-1.2,0.5c-0.5,0.4-0.9,0.7-1.6,0.7c-0.8,0-1.7,0-2.5,0c-0.8,0-1.1,0.4-1.1,1.1c0,0.6,0,1.3,0,1.9
	c0,0.6,0.3,0.9,0.9,0.9C592.3,348.2,592.5,348.1,592.7,348.2L592.7,348.2z M611.8,353.6c1.9,0,3.8,0,5.7,0v0c1.9,0,3.9,0,5.8,0
	c0.7,0,1-0.3,1-1c0-2.4,0.1-4.8,0.1-7.2c0-1.1-0.2-1.3-1.2-1.5c-0.3,0-0.6,0-0.8,0c-3.6,0-7.2,0-10.8,0c-0.8,0-1.2,0.3-1.3,1.2
	c0,1.3,0,2.6,0,3.9c0,1-0.2,2.1-0.1,3.1C610.2,353,610.8,353.6,611.8,353.6L611.8,353.6z M615.7,347.4c0.6,0,1.1,0,1.7,0
	c0.5,0,1,0,1.5,0c0.9,0,1.2,0.4,1.2,1.3c0,0.8-0.3,1.2-1.1,1.3c-1.1,0-2.2,0-3.3,0c-0.9-0.1-1.1-0.4-1.1-1.5
	C614.6,347.6,615.1,347.5,615.7,347.4L615.7,347.4z M670.6,379.1c-1.9-0.4-3.9-0.4-5.8,0.4c-2.5,1-4.5,3.6-4.3,6.3
	c-0.1,3.1,1.4,5.2,4.1,6.3c2.3,1,4.6,0.9,6.9,0.1c3.8-1.4,5.7-5.8,3.5-9.7C674,380.6,672.5,379.4,670.6,379.1L670.6,379.1z
	 M672.8,386.2c-0.1,1.3-1.4,3.4-3,3.8c-2,0.5-3.9,0.3-5.3-1.3c-0.9-1-1.4-3-0.8-4.3c1-2.2,2.1-3,4.5-3
	C671.1,381.2,673,383.6,672.8,386.2L672.8,386.2z M660.9,371.9c-0.4-1.5-0.8-3.1-1.3-4.6c-0.3-1-0.7-1.9-0.9-2.9
	c-0.2-1.3-1.2-2.6-0.2-4.1c0.3-0.5,0-1-0.7-1c-1.1,0-2.2,0-3.3,0c-0.6,0-1,0.3-1.1,1c-0.2,1-0.5,1.9-0.7,2.8c-0.3,1.1-0.7,2.1-1,3.1
	c-0.6,2-1.1,4.1-1.7,6.1c-0.2,0.7,0,1,0.7,1c1.1,0,2.3,0,3.4,0c0.3,0,0.8-0.3,0.9-0.6c0.3-0.5,0.4-1.2,0.6-1.7
	c0.1-0.2,0.3-0.4,0.5-0.5c0.1,0,0.4,0.2,0.5,0.4c0.2,0.5,0.5,0.9,0.6,1.4c0.1,0.8,0.6,1.1,1.3,1c0.3,0,0.6,0,0.8,0
	c0.2,0,0.4,0,0.5,0C661,373.4,661.2,373.1,660.9,371.9L660.9,371.9z M657.3,383.8c0-1,0-2.1,0-3.1c0-1.2-0.6-1.8-1.8-1.8
	c-1,0-1.3,0.3-1.3,1.3c0,2.1,0,4.3,0,6.4c0,1.2-0.4,2.2-1.5,2.8c-0.7,0.3-1.5,0.5-2.3,0.5c-2.1,0.1-3.7-1.3-3.7-3.6
	c0-1.9,0-3.7,0-5.6c0-1.9,0-1.9-1.8-1.9c-0.8,0-1.1,0.3-1.2,1.1c0,0.8,0,1.6,0,2.5c0.1,2,0.1,4.1,0.3,6.2c0.2,2.3,2.4,3.5,4.3,3.8
	c1.2,0.2,2.4,0.1,3.6,0c3-0.1,5.2-2.5,5.2-5.4C657.3,386,657.3,384.9,657.3,383.8L657.3,383.8z M622,381c-0.2-0.4-0.3-0.7-0.4-0.9
	c-0.5-1.1-0.8-1.1-2.5-1.1c-0.2,0-0.5,0-0.7,0c-0.1,0-0.2,0-0.2,0c-1-0.2-1.5,0.5-1.9,1.2c-0.3,0.5-0.4,1-0.6,1.6
	c-0.8,1.9-1.5,3.9-2.3,5.8c-0.6,1.4-1.2,2.9-1.7,4.4c-0.1,0.2,0.1,0.6,0.3,0.7c1.2,0.7,2.8,0,3.3-1.4c0.4-1.2,0.9-2.4,1.4-3.6
	c0.6-1.4,1.1-2.8,1.7-4.2c0.1-0.3,0.4-0.6,0.6-0.6c0.2,0,0.6,0.3,0.7,0.5c0.3,0.5,0.5,1.1,0.7,1.7c0.9,2.3,1.8,4.5,2.7,6.8
	c0.2,0.5,0.6,0.9,1.2,0.9c0.4,0,0.7,0,1.1,0c1.1,0,1.3-0.3,0.9-1.3C624.8,387.9,623.4,384.5,622,381L622,381z M635.7,381.6
	c1.5,0,3,0.1,4.4,0.9c0.1,0.1,0.5,0,0.6-0.1c0.5-0.6,0.2-2.3-0.6-2.6c-1-0.4-2.1-0.7-3.2-0.8c-1.7-0.1-3.3-0.2-5,0.5
	c-1.3,0.6-2.4,1.3-3.1,2.5c-1,1.8-1.3,3.7-0.7,5.9c0.7,2.6,2.6,4.1,5,4.6c2,0.4,4.2,0.5,6.2-0.4c1.3-0.6,1.6-1,1.5-2.4
	c-0.1-0.7-0.3-0.8-1-0.6c-1.2,0.4-2.3,0.7-3.5,1.1c0-0.1,0-0.1-0.1-0.2c-2.2,0-3.3-0.4-4.5-1.7c-0.9-0.9-1.2-3.2-0.6-4.2
	C632.2,382.4,633.8,381.6,635.7,381.6z M636.9,363.8c-0.9,0-1.8,0-2.7,0c-0.9-0.1-1.5,0.3-1.9,1.1c-0.5,1.2-1,2.3-1.5,3.5
	c-0.6,1.3-1.1,2.6-1.7,3.8c-0.3,0.6-0.2,0.9,0.6,0.9c1.1,0,2.1,0,3.2,0c0.6,0,0.9-0.1,1.2-0.7c0.1-0.2,0.4-0.5,0.6-0.5
	c0.2,0,0.5,0.3,0.6,0.5c0.2,0.5,0.6,0.7,1.1,0.8c0.4,0,0.8,0,1.2,0c0.4,0,0.8,0,1.2,0c0.6,0,0.8-0.3,0.6-0.9
	c-0.6-2.1-1.2-4.2-1.9-6.4c-0.2-0.5-0.2-0.9,0-1.4C637.8,364,637.6,363.8,636.9,363.8L636.9,363.8z M636.3,373.2c0.4,0,0.8,0,1.2,0
	c0.4,0,0.8,0,1.2,0c-0.4,0-0.8,0-1.2,0C637.1,373.2,636.7,373.2,636.3,373.2z M619.2,387.7c-0.1,0-0.2,0-0.3-0.1
	c-0.5,1.1-1.1,2.1-1.2,3.3c0,0.4,0.3,1,0.7,1.2c0.3,0.2,1,0.1,1.3-0.2c0.3-0.3,0.6-0.9,0.5-1.3C620,389.6,619.6,388.7,619.2,387.7z
	 M611.5,465.6c-0.9-0.9-2.7-2-4.2-2.7l0.9-1.4c1.5,0.6,3.3,1.7,4.3,2.6L611.5,465.6L611.5,465.6z M607.7,475.9
	c1.2-1.9,2.9-5.1,4.2-7.9l1.2,1.2c-1.2,2.6-2.8,5.6-4.1,7.9L607.7,475.9L607.7,475.9z M612.6,458.9c-0.9-0.9-2.7-2.2-4.2-3l0.9-1.4
	c1.5,0.7,3.3,1.9,4.2,2.8L612.6,458.9L612.6,458.9z M629.5,467.7h-2v3.9h-5.7v3.5c0,1.1-0.2,1.6-0.9,1.9c-0.7,0.3-1.9,0.3-3.8,0.3
	c-0.1-0.5-0.3-1.2-0.6-1.7c1.4,0,2.7,0,3.1,0c0.4,0,0.5-0.1,0.5-0.5v-3.5h-5.5V470h5.5v-2.3h-6.8V466h6.8v-2.3h-5.4v-1.6h12.7v3.9h2
	V467.7L629.5,467.7z M627.7,455.7c-3.5,1-8.8,1.7-13.3,2c0-0.4-0.3-1.1-0.4-1.4c4.4-0.4,9.6-1.1,12.4-1.9L627.7,455.7z M616.1,462
	c-0.2-0.9-0.7-2.2-1.3-3.2l1.3-0.5c0.6,0.9,1.2,2.2,1.4,3.1L616.1,462z M620.7,461.7c-0.2-0.9-0.7-2.4-1.2-3.5l1.4-0.4
	c0.5,1.1,1.1,2.5,1.3,3.4L620.7,461.7z M621.9,466h4.1v-2.3h-4.1V466z M626,467.7h-4.1v2.3h4.1V467.7z M624.1,461.1
	c0.7-1,1.5-2.8,1.9-4l1.6,0.6c-0.7,1.4-1.4,2.9-2.1,3.9L624.1,461.1z M639.3,473.1v4.4h-1.5v-4.4H633v-1.7h4.7v-2.1H634v-8.8h3.8
	v-1.9h-4.5V457h4.5v-2.8h1.5v2.8h4.3v1.7h-4.3v1.9h3.7v8.8h-3.7v2.1h4.7v1.7H639.3z M635.3,464.2h2.5V462h-2.5V464.2z M635.3,467.9
	h2.5v-2.3h-2.5V467.9z M641.6,462h-2.4v2.2h2.4V462z M641.6,465.6h-2.4v2.3h2.4V465.6z M655.4,475.9c-0.4,0.4-0.9,1.1-1.2,1.6
	c-2.5-1.5-4.1-4.4-5.1-7.9c-0.8,2.7-2.3,5.5-5.6,7.9c-0.3-0.4-0.9-1.1-1.4-1.4c5.5-3.9,5.9-9.1,5.9-12.5v-1.1h1.8v1.2
	c0,0.6,0,1.2,0,1.9C650.5,470.1,652.3,474.2,655.4,475.9L655.4,475.9z M646.8,460.6c-0.6,1.8-1.2,3.5-2,4.8c-0.3-0.3-1.1-0.8-1.5-1
	c1.6-2.4,2.5-6.2,3-10.1l1.8,0.2c-0.2,1.5-0.5,3-0.8,4.4h6.1l0.3-0.1l1.2,0.4c-0.5,2.3-1,5.1-1.6,6.8l-1.5-0.4
	c0.4-1.2,0.8-3.2,1-4.9L646.8,460.6L646.8,460.6z M667.3,461.1c-1.2,6.6-4,11.3-7.4,13.9c-0.3-0.4-1-1.1-1.4-1.4
	c3.1-2.1,5.5-5.9,6.7-11h-5.9v-1.9h6.5l0.4-0.1L667.3,461.1L667.3,461.1z M678.7,460.2c-1.6,1.9-3.7,4.2-5.4,5.7
	c2.1,3.1,4.7,5.8,7.6,7.2c-0.4,0.4-1,1.1-1.3,1.7c-3.8-2.1-6.9-6.1-9.1-10.7v10.8c0,1.2-0.3,1.9-1,2.2c-0.7,0.4-1.9,0.4-3.8,0.4
	c-0.1-0.6-0.4-1.5-0.7-2.1c1.4,0,2.6,0,3,0c0.4,0,0.6-0.1,0.6-0.6v-20.6h1.9v6.1c0.5,1.4,1.2,2.8,1.9,4.1c1.6-1.6,3.5-3.8,4.7-5.6
	L678.7,460.2L678.7,460.2z M72.2,456v21.1h-1.9v-1.5h-12v1.7h-1.8V456H72.2L72.2,456z M58.3,457.8v6.9h12v-6.9H58.3z M70.3,473.7
	v-7.1h-12v7.1H70.3z M100.5,474.5v1.9H79.1v-1.9h11.7c1.3-3.3,2.8-8.5,3.6-12.3l2,0.4c-1,3.8-2.4,8.6-3.7,11.9H100.5L100.5,474.5z
	 M99.5,460.9H80.1V459h19.4V460.9z M85.7,473.5c-0.3-2.9-1.3-7.4-2.3-10.7l1.8-0.5c0.9,3.4,2,7.8,2.4,10.7L85.7,473.5L85.7,473.5z
	 M89.2,458.8c-0.2-1.1-0.7-2.8-1.2-4.1l1.7-0.5c0.5,1.3,1,3,1.3,4L89.2,458.8z M112.6,464.8c-1.2,5.2-4,9-7.1,11.1
	c-0.3-0.4-1-1.1-1.4-1.4c2.7-1.7,5-4.6,6.2-8.3h-5.8v-1.8h6.5l0.3-0.1L112.6,464.8L112.6,464.8z M125.6,462.5
	c-1.9,1.9-4.4,4-6.4,5.5c1.8,2.8,4.2,5,7.2,6.2c-0.4,0.4-1,1.1-1.2,1.7c-4.1-1.9-7-5.3-8.9-9.8v9c0,1.1-0.3,1.7-1,2
	c-0.8,0.3-2.1,0.3-4.1,0.3c-0.1-0.5-0.4-1.4-0.6-1.9c1.5,0.1,2.9,0.1,3.3,0.1c0.4,0,0.6-0.1,0.6-0.6v-13.8h-6.7v-1.8h8.5v1.9
	c0.5,1.9,1.2,3.7,2.1,5.3c1.9-1.5,4.2-3.7,5.6-5.3L125.6,462.5L125.6,462.5z M118.8,459.3c-2-1.2-5.9-2.7-8.9-3.5l0.9-1.6
	c2.9,0.7,6.9,2.1,8.9,3.3L118.8,459.3L118.8,459.3z M142.3,463.5c1.7,5.6,4.8,10.2,9.5,12.2c-0.4,0.4-1,1.2-1.4,1.8
	c-4.7-2.3-7.7-6.8-9.6-12.6c-1.2,4.9-3.8,9.8-9.7,12.6c-0.3-0.5-0.8-1.2-1.4-1.5c6-2.8,8.4-7.6,9.4-12.5h-8.9v-1.9h9.2
	c0.4-2.7,0.3-5.2,0.4-7.2h1.9c0,2,0,4.6-0.4,7.2h10v1.9H142.3L142.3,463.5z M165.4,459.6h-7.5v4.1h-1.7v-5.4h9.2v-1.6h-8.2v-1.4
	h18.2v1.4h-8.3v1.6h9.4v5.4h-1.8v-4.1h-7.7v5.8h-1.7L165.4,459.6L165.4,459.6z M174.2,475.6c1.3,0,1.5-0.4,1.6-3
	c0.4,0.3,1.1,0.5,1.6,0.6c-0.3,3.1-0.8,3.9-3.1,3.9h-5.6c-2.7,0-3.5-0.5-3.5-2.5v-0.8h-5.4v1.3h-1.7v-8.8h16.3v7.5H167v0.8
	c0,0.9,0.3,1,1.8,1L174.2,475.6L174.2,475.6z M158.3,464c1.5-0.1,3.6-0.5,5.7-0.8l0.1,1.2c-1.9,0.4-3.7,0.8-5.3,1.1L158.3,464z
	 M159.4,460.1c1.6,0.2,3.6,0.8,4.7,1.3l-0.5,1.2c-1.1-0.5-3.1-1.1-4.7-1.5L159.4,460.1L159.4,460.1z M159.9,467.7v1.7h5.3v-1.7
	H159.9z M165.3,472.5v-1.8h-5.3v1.8H165.3z M172.7,467.7H167v1.7h5.7V467.7z M172.7,472.5v-1.8H167v1.8H172.7z M173.8,465.5
	c-1.3-0.5-3.8-1.1-5.6-1.4l0.4-1.1c1.8,0.2,4.3,0.8,5.6,1.2L173.8,465.5L173.8,465.5z M173.8,461c-1.4,0.6-3.3,1.1-4.7,1.4l-0.6-1
	c1.4-0.3,3.4-1.1,4.6-1.5L173.8,461L173.8,461z M187.8,467.8c-0.3-0.8-1.1-2.3-1.7-3.6v13.2h-1.7v-12.4c-0.8,2.8-1.9,5.5-3,7.2
	c-0.2-0.5-0.6-1.4-0.9-1.8c1.5-2.1,3-6.2,3.8-9.6H181v-1.8h3.5v-4.9h1.7v4.9h2.6v1.8h-2.6v1c0.6,0.9,2.4,3.8,2.8,4.6L187.8,467.8z
	 M202.6,467.5c0,0,0,0.5-0.1,0.8c-0.2,4-0.4,5.7-0.9,6.3c-0.3,0.4-0.7,0.6-1.2,0.6c-0.4,0.1-1.3,0.1-2.1,0c-0.1-0.5-0.2-1.3-0.4-1.8
	c0.8,0.1,1.5,0.1,1.8,0.1c0.3,0,0.5,0,0.6-0.2c0.2-0.3,0.4-1.5,0.6-4.3h-4.4v8.4h-1.7v-6.8c-1.6,2.3-3.8,4.4-5.9,5.6
	c-0.3-0.4-0.8-1.1-1.1-1.4c2.3-1.1,4.7-3.4,6.2-5.8h-4.7c0.2-1.6,0.5-4.1,0.7-6h4.7V460h-5.6v-1.6h3.3c-0.3-1-1-2.4-1.7-3.5l1.4-0.6
	c0.8,1.1,1.6,2.7,1.9,3.7l-0.8,0.4h3.9c0.7-1.1,1.5-2.9,1.9-4.1l1.8,0.5c-0.6,1.2-1.3,2.6-1.9,3.6h2.9v6.3h-5.3v2.8L202.6,467.5
	L202.6,467.5z M191.5,464.7c-0.1,0.9-0.2,1.9-0.3,2.8h3.6v-2.8H191.5z M196.5,463.1h3.7V460h-3.7V463.1z M88.4,365.7v-5.8h3.9v15.5
	h-3.9v-6.6H78.3v6.6h-3.8v-15.5h3.8v5.8L88.4,365.7L88.4,365.7z M173.2,368.7h-9.9v6.7h-4v-15.5h4v5.9h9.9v-5.9h3.7v15.5h-3.7
	L173.2,368.7L173.2,368.7z M156.2,369.2c-0.2,1.5-0.6,2.8-1.5,4c-1.2,1.6-2.8,2.5-4.7,3c-2.7,0.7-5.3,0.5-7.8-0.5
	c-2.2-0.9-3.6-2.5-4.3-4.8c-0.6-1.9-0.6-3.9,0-5.8c0.6-2.2,2-3.7,4-4.7c3.4-1.5,6.8-1.5,10.1,0c2.2,1,3.6,2.6,4.2,4.9
	c0,0.1,0,0.1,0.1,0.2c-0.2,0-0.4,0-0.7,0c-1.2,0-2.3,0.1-3.5,0.1c-0.2,0-0.3-0.1-0.3-0.3c-0.2-0.8-0.6-1.6-1.2-2.3
	c-0.6-0.7-1.4-1.1-2.3-1.3c-1-0.2-1.9-0.2-2.9,0.1c-1.3,0.3-2.3,1.1-2.8,2.4c-0.9,2.3-1,4.7-0.1,7c0.9,2.2,2.9,3.2,5.2,3
	c2.1-0.2,3.3-1.6,3.9-3.5c0.1-0.4,0.2-0.8,0.2-1.1c0-0.1,0.1-0.2,0.2-0.2C153.4,369.2,154.8,369.2,156.2,369.2L156.2,369.2z
	 M136.3,375.5c-1.3,0-2.5,0-3.7,0c-0.1,0-0.2-0.1-0.3-0.2c-0.4-0.8-0.9-1.7-1.3-2.5c-0.1-0.2-0.2-0.2-0.4-0.2
	c-2.3,0-4.6,0.1-6.9,0.1c-0.2,0-0.3,0.1-0.4,0.2c-0.4,0.8-0.8,1.6-1.2,2.4c0,0.1-0.2,0.2-0.3,0.2c-1.2,0-2.5,0-3.7,0c0,0,0,0-0.1,0
	c0-0.1,0.1-0.2,0.1-0.3c2.3-5,4.6-10,6.9-15c0.1-0.2,0.2-0.3,0.4-0.3c1.1,0,2.3,0,3.4,0c0.2,0,0.3,0,0.4,0.2c2.3,5,4.6,10,6.9,15.1
	C136.2,375.2,136.3,375.3,136.3,375.5L136.3,375.5z M129.8,369.4c-0.9-1.7-1.7-3.3-2.5-5.1c-0.8,1.7-1.6,3.4-2.4,5.1H129.8z
	 M109.6,375.4v-12.5h-6.4v-3.4H120v3.4h-6.4v12.5H109.6z M96.8,359.9h3.9v15.5h-3.9V359.9z M180.8,359.8h3.8v15.6h-3.8V359.8z
	 M418.3,357.9c0.2,0,0.5,0,0.7,0.1c1.4,0.1,2.8,0.3,4.2,0.8c1.4,0.5,2.6,1.4,3.3,2.7c0.5,0.8,0.7,1.7,0.8,2.6
	c0.1,1.2,0.1,2.4-0.2,3.6c-0.6,2.2-2.1,3.7-4.2,4.5c-1.1,0.4-2.2,0.6-3.4,0.7c-0.9,0-1.9,0-2.8,0c-0.2,0-0.3,0-0.3,0.3
	c0,1.4,0,2.7,0,4c0,0.2,0,0.3-0.2,0.3c-1.8,0-3.5,0-5.3,0c-0.2,0-0.2,0-0.2-0.2c0-6.2,0-12.4,0-18.6c0-0.2,0.1-0.2,0.2-0.3
	c1-0.1,1.9-0.2,2.8-0.2c0.9-0.1,1.8-0.1,2.8-0.1c0.2,0,0.4,0,0.6,0H418.3L418.3,357.9z M416.4,365.5c0,1.3,0,2.5,0,3.8
	c0,0.2,0,0.2,0.2,0.2c0.7,0,1.4,0,2-0.1c1.3-0.2,2.3-0.9,2.8-2.2c0.3-0.8,0.3-1.6,0.2-2.5c-0.2-1.6-1-2.6-2.6-3
	c-0.8-0.2-1.6-0.2-2.4-0.2c-0.2,0-0.3,0.1-0.3,0.3C416.4,363,416.4,364.3,416.4,365.5L416.4,365.5z M342.9,357.9
	c0.2,0,0.5,0,0.7,0.1c1.4,0.1,2.8,0.3,4.2,0.8c1.4,0.5,2.6,1.4,3.3,2.7c0.5,0.8,0.7,1.7,0.8,2.6c0.1,1.2,0.1,2.4-0.2,3.6
	c-0.6,2.2-2.1,3.7-4.2,4.5c-1.1,0.4-2.2,0.7-3.4,0.7c-0.9,0-1.9,0-2.8,0c-0.2,0-0.3,0-0.3,0.3c0,1.3,0,2.7,0,4
	c0,0.2-0.1,0.3-0.3,0.3c-1.8,0-3.5,0-5.2,0c-0.1,0-0.2,0-0.3,0v-19.1c0.4,0,0.8-0.1,1.2-0.1c1-0.1,2-0.2,3-0.2c0.6,0,1.3,0,1.9-0.1
	c0.1,0,0.1,0,0.2,0L342.9,357.9L342.9,357.9z M341,365.5c0,1.2,0,2.5,0,3.8c0,0.1,0,0.2,0.2,0.2c0.7,0,1.4,0,2-0.1
	c1.2-0.2,2.1-0.8,2.7-2c0.4-0.9,0.5-1.8,0.3-2.8c-0.2-1.5-1-2.5-2.5-2.9c-0.8-0.2-1.6-0.2-2.4-0.2c-0.3,0-0.3,0-0.3,0.4
	C341,363,341,364.3,341,365.5L341,365.5z M437.6,357.9c0.2,0,0.4,0,0.5,0c1.4,0,2.7,0.2,4.1,0.5c0.2,0,0.2,0.1,0.3,0.3
	c0.1,1,0.2,2.1,0.4,3.1c0,0.2,0.1,0.5,0.1,0.7c-0.3-0.1-0.6-0.2-0.9-0.3c-1.1-0.3-2.3-0.5-3.4-0.6c-0.8,0-1.5,0-2.3,0.1
	c-0.2,0.1-0.4,0.1-0.6,0.3c-0.7,0.4-0.9,1.3-0.4,2c0.3,0.4,0.8,0.7,1.2,0.9c0.9,0.4,1.8,0.7,2.6,1c0.8,0.3,1.6,0.6,2.4,1.1
	c1.5,0.9,2.4,2.1,2.6,3.8c0.1,1.6-0.1,3.1-1.2,4.4c-0.8,1-1.8,1.6-3,2c-1,0.4-2,0.6-3.1,0.6c-1,0-2,0.1-2.9,0
	c-1.6-0.1-3.1-0.3-4.6-0.8c-0.2-0.1-0.2-0.2-0.2-0.3c-0.2-1.1-0.3-2.3-0.5-3.4c0-0.2-0.1-0.4-0.1-0.7c0.3,0.1,0.6,0.2,0.9,0.4
	c1.3,0.5,2.7,0.8,4.1,1c0.6,0.1,1.3,0.1,1.9,0.1c0.6,0,1.1-0.1,1.7-0.3c0.6-0.2,1-0.6,1.1-1.2c0.1-0.7-0.1-1.2-0.7-1.6
	c-0.6-0.5-1.3-0.7-2-1c-1.1-0.4-2.3-0.8-3.4-1.4c-0.8-0.4-1.5-1-2.1-1.7c-0.8-1.1-1-2.3-0.9-3.7c0.1-1.4,0.6-2.5,1.7-3.4
	c0.7-0.6,1.6-1,2.5-1.3c1-0.3,2-0.4,3-0.5c0.1,0,0.2,0,0.3,0L437.6,357.9L437.6,357.9z M354.4,367.9c0-3.1,0-6.2,0-9.3
	c0-0.2,0.1-0.3,0.3-0.3c1.7,0,3.5,0,5.2,0c0.2,0,0.3,0.1,0.3,0.3c0,2.3,0,4.7,0,7c0,0.2,0.1,0.3,0.3,0.3c1.9,0,3.7,0,5.5,0
	c0.3,0,0.3,0,0.3-0.3c0-2.4,0-4.7,0-7c0-0.2,0.1-0.3,0.3-0.3c1.8,0,3.5,0,5.3,0c0.2,0,0.3,0.1,0.3,0.3c0,6.2,0,12.4,0,18.6
	c0,0.2-0.1,0.3-0.3,0.3c-1.8,0-3.5,0-5.3,0c-0.2,0-0.2-0.1-0.2-0.2c0-2.3,0-4.6,0-7c0-0.2-0.1-0.3-0.3-0.3c-1.9,0-3.7,0-5.6,0
	c-0.3,0-0.3,0-0.3,0.3c0,2.3,0,4.6,0,7c0,0.2-0.1,0.3-0.3,0.3c-1.8,0-3.5,0-5.2,0c-0.2,0-0.3-0.1-0.3-0.3
	C354.4,374.1,354.4,371,354.4,367.9L354.4,367.9z M386.7,367.9c0-3.1,0-6.2,0-9.3c0-0.2,0.1-0.3,0.3-0.3c1.8,0,3.5,0,5.3,0
	c0.2,0,0.3,0.1,0.3,0.3c0,4.9,0,9.8,0,14.7c0,0.2,0.1,0.3,0.3,0.3c1.7,0,3.3,0,5,0c0.3,0,0.3,0,0.2,0.3c-0.2,1.1-0.5,2.2-0.8,3.3
	c0,0.1-0.1,0.2-0.2,0.2c-3.4,0-6.8,0-10.1,0c-0.2,0-0.2-0.1-0.2-0.2C386.7,374.1,386.7,371,386.7,367.9L386.7,367.9z M376.5,367.9
	c0-3.1,0-6.2,0-9.3c0-0.2,0.1-0.3,0.3-0.3c1.8,0,3.5,0,5.3,0c0.2,0,0.3,0.1,0.3,0.3c0,6.2,0,12.4,0,18.6c0,0.2-0.1,0.3-0.3,0.3
	c-1.8,0-3.5,0-5.3,0c-0.2,0-0.2-0.1-0.2-0.2C376.5,374.1,376.5,371,376.5,367.9z M400.3,367.9v-9.3c0-0.2,0.1-0.3,0.3-0.3
	c1.8,0,3.5,0,5.3,0c0.2,0,0.3,0,0.3,0.3c0,6.2,0,12.4,0,18.6c0,0.2,0,0.3-0.3,0.3c-1.8,0-3.5,0-5.3,0c-0.2,0-0.3-0.1-0.3-0.3
	C400.3,374.1,400.3,371,400.3,367.9L400.3,367.9z M172.4,616h3.8l8,17.6l0,0h-3.9c-0.6-1.4-1.2-2.7-1.9-4.1h-8.2
	c-0.6,1.4-1.2,2.7-1.8,4.1h-7.4c-2.6-3.3-5.2-6.7-7.8-10.1c2.3-0.1,4.7,0.1,6.9-0.2c0.4-0.4,0.7-0.7,1.1-1.1c0.2-4.3-6-2-8.7-2.5
	v13.9h-3.7v-17.6c4.6,0.5,10.5-1.5,14.4,1.4c3.7,3.1,1.9,8.2-2.2,9.7c1.3,1.8,2.6,3.5,4,5.3L172.4,616z M174.3,620.4
	c-0.8,1.8-1.5,3.5-2.3,5.4c0,0,4.6,0,4.6,0 M90.4,616v3.7H79.8c-4.7,5.9,9.2,1.4,10.8,5.3c1.7,1.7,1.1,4.6,0.1,6.6
	c-3.4,4.1-10.2,1.5-14.9,2.1v-3.5c3.8-0.4,8,0.8,11.6-0.6c2.3-4.6-5.4-2.8-7.9-3.1c-3.8-0.2-5.8-5.2-3.5-8.1
	C79.3,614.2,85.8,616.7,90.4,616L90.4,616z M128.8,616h3.7c0.1,0.1,0.2,0.2,0.3,0.3c0.6,4.2-1.4,9.9,1.1,13.4
	c1.2,0.7,2.8,0.3,4.1,0.5c7,0.6,3-9.8,4-14.1h4c-0.6,5.9,2.6,16.6-5.8,17.7C126.6,635.6,128.8,625.6,128.8,616L128.8,616z
	 M116.8,625.8c-0.1,2.4,0,5.2,0,7.8h-3.9v0V616h3.9v6.8l6.1-6.8h4.8l-7.2,8.3c2.5,3.2,5.2,6.2,7.8,9.3c-1.4,0.3-3.1,0-4.7,0.1
	L116.8,625.8z M100,616h3.8c2.8,5.8,5.3,11.7,7.9,17.5c-1,0.5-2.7,0-3.9,0.2c-0.6-1.4-1.2-2.8-1.8-4.1h-8.2
	c-0.6,1.4-1.1,2.7-1.7,4.1h-4C94.7,627.8,97.3,621.9,100,616L100,616z M104.4,625.8c-1-1.8-1.6-3.6-2.6-5.4
	c-0.7,1.9-1.9,3.7-2.2,5.5C101.3,625.6,102.7,625.8,104.4,625.8z M593,633c-0.1,0-0.2,0-0.2,0c-1.5,0-3.1,0-4.6,0
	c-0.2,0-0.2-0.1-0.2-0.2c0-5.4,0-10.8,0-16.2c0-0.2,0-0.2,0.2-0.2c2.8,0,5.5,0,8.2,0c0.9,0,1.8,0.1,2.7,0.4c1.9,0.8,3.1,2.3,3.5,4.3
	c0.4,2.1-0.2,3.9-1.8,5.3c-0.9,0.8-1.9,1.2-3,1.3c-1.2,0.2-2.4,0.1-3.5,0.1c-0.3,0-0.7,0-1,0c-0.2,0-0.2,0.1-0.2,0.2
	c0,1.5,0,3,0,4.5L593,633L593,633z M593,620.3c0,0.1,0,0.2,0,0.2c0,1.1,0,2.1,0,3.2c0,0.2,0,0.2,0.2,0.2c0.9,0,1.8,0,2.7,0
	c0.9,0,1.6-0.6,1.7-1.4c0.2-1.2-0.6-2.2-1.8-2.2c-0.8,0-1.6,0-2.4,0H593L593,620.3z M673.4,633c-0.1,0-0.2,0-0.2,0
	c-1.4,0-2.7,0-4.1,0c-0.2,0-0.3,0-0.3-0.2c0-3.8,0-7.6,0-11.4c0-0.2,0-0.3,0.2-0.3c1.3,0,2.5,0,3.8,0c0.2,0,0.3,0.1,0.3,0.3
	c0,0.3,0,0.6,0.1,1c0.1-0.1,0.2-0.1,0.2-0.2c0.9-0.7,1.8-1.3,3-1.5c1.6-0.3,3.7,0.3,4.6,2c0.4,0.8,0.6,1.6,0.6,2.4
	c0,2.5,0,5.1,0,7.6c0,0.2,0,0.2-0.2,0.2c-1.4,0-2.9,0-4.3,0c-0.2,0-0.2-0.1-0.2-0.2c0-2.2,0-4.3,0-6.5c0-0.2,0-0.4-0.1-0.6
	c-0.2-1.3-1.8-1.5-2.7-0.8c-0.5,0.4-0.7,0.9-0.7,1.5c0,2.1,0,4.2,0,6.3L673.4,633L673.4,633z M615.9,633v-0.3c0-3.8,0-7.5,0-11.3
	c0-0.2,0.1-0.3,0.3-0.3c1.2,0,2.5,0,3.7,0c0.2,0,0.3,0.1,0.3,0.3c0,0.3,0,0.6,0.1,1c0.1-0.1,0.2-0.1,0.2-0.2c0.9-0.7,1.9-1.3,3-1.4
	c1.7-0.3,3.9,0.3,4.7,2.3c0.3,0.6,0.4,1.2,0.4,1.9c0,2.6,0,5.2,0,7.8c0,0.1,0,0.2-0.2,0.2c-1.5,0-2.9,0-4.4,0c0,0-0.1,0-0.1,0v-0.3
	c0-2.2,0-4.3,0-6.5c0-0.2,0-0.3,0-0.5c-0.1-0.7-0.5-1.1-1.1-1.2c-0.7-0.2-1.3,0-1.8,0.6c-0.3,0.4-0.5,0.9-0.5,1.4c0,2.1,0,4.2,0,6.2
	c0,0.2-0.1,0.3-0.3,0.3c-1.3,0-2.6,0-4,0C616.1,633,616,633,615.9,633L615.9,633z M607,625.2c-0.2,0-0.5,0-0.7,0
	c-1,0-2.1-0.1-3.1-0.1c-0.1,0-0.2,0-0.2-0.2c0-0.3,0-0.7,0-1c0.3-1.4,1.2-2.3,2.6-2.7c0.7-0.2,1.4-0.3,2.2-0.4c1.4-0.1,2.7,0,4,0.3
	c0.4,0.1,0.8,0.3,1.2,0.5c0.9,0.5,1.4,1.4,1.6,2.4c0.2,0.9,0.2,1.8,0.2,2.7c0,1.5,0.1,2.9,0.1,4.4c0,0.4,0.1,0.8,0.1,1.3
	c0,0.2,0.1,0.4,0.2,0.6H615c-1.3,0-2.6,0-3.9,0c-0.2,0-0.4-0.1-0.4-0.3c-0.1-0.2-0.2-0.4-0.2-0.7c0-0.1-0.1-0.2-0.1-0.3
	c-0.1,0-0.1,0.1-0.1,0.1c-0.8,0.9-1.9,1.3-3,1.5c-0.9,0.1-1.7,0-2.5-0.3c-1.3-0.5-2.1-1.4-2.3-2.8c-0.2-1.2,0.2-2.2,1.1-3
	c0.5-0.4,1.1-0.7,1.7-0.8c1.1-0.2,2.2-0.4,3.2-0.7c0.4-0.1,0.8-0.2,1.2-0.3c0.6-0.2,0.7-0.8,0.4-1.3c-0.1-0.2-0.3-0.3-0.5-0.4
	c-0.6-0.2-1.2-0.2-1.8,0c-0.5,0.2-0.7,0.6-0.8,1.1C607,625,607,625.1,607,625.2L607,625.2z M610.4,627.7c0,0-0.1,0-0.1,0
	c-0.8,0.3-1.6,0.5-2.3,0.8c-0.3,0.1-0.7,0.2-0.9,0.4c-0.5,0.3-0.6,0.8-0.2,1.3c0.2,0.2,0.4,0.4,0.6,0.5c0.4,0.2,0.8,0.1,1.1,0
	c0.8-0.1,1.4-0.5,1.7-1.3C610.5,628.8,610.5,628.3,610.4,627.7L610.4,627.7z M642.1,633c-1.4,0-2.8,0-4.2,0c-0.1,0-0.2-0.1-0.2-0.2
	c-0.1-0.2-0.2-0.5-0.3-0.7c0-0.1-0.1-0.2-0.1-0.3c0,0-0.1,0-0.1,0c-0.7,0.8-1.6,1.2-2.7,1.4c-1.1,0.2-2.2,0.1-3.2-0.3
	c-1.3-0.5-1.9-1.6-2-3c-0.1-2,1.2-3,2.5-3.4c1.1-0.3,2.3-0.5,3.4-0.8c0.4-0.1,0.8-0.2,1.2-0.3c0,0,0.1,0,0.1,0
	c0.4-0.1,0.7-0.3,0.7-0.8c0-0.4-0.2-0.8-0.6-1c-0.7-0.3-1.4-0.3-2,0.1c-0.4,0.2-0.6,0.6-0.6,1c0,0.1,0,0.2,0,0.3c-0.3,0-0.6,0-0.9,0
	c-0.9,0-1.9,0-2.8-0.1c-0.3,0-0.3,0-0.3-0.3c0-1.4,0.6-2.5,1.8-3.2c0.7-0.4,1.5-0.6,2.4-0.7c0.9-0.1,1.7-0.2,2.6-0.1
	c1.1,0.1,2.2,0.2,3.3,0.8c1,0.5,1.5,1.4,1.7,2.5c0.2,0.9,0.1,1.8,0.2,2.8c0,1.1,0,2.3,0.1,3.4c0,0.7,0.1,1.3,0.1,2
	C641.9,632.5,642,632.8,642.1,633L642.1,633z M637.3,627.7c-0.1,0-0.1,0-0.1,0c-0.8,0.3-1.5,0.5-2.3,0.8c-0.3,0.1-0.7,0.2-1,0.4
	c-0.3,0.2-0.4,0.4-0.4,0.8c0,0.4,0.3,0.8,0.8,1c0.4,0.1,0.8,0.1,1.1,0.1c0.7-0.1,1.2-0.4,1.6-1C637.3,629,637.3,628.4,637.3,627.7
	L637.3,627.7z M668.2,627.1c-0.1,2.5-1.2,4.5-3.5,5.7c-1,0.5-2,0.7-3.1,0.7c-1.3,0-2.5-0.2-3.6-0.9c-1.7-1-2.7-2.5-3-4.4
	c-0.2-1.4-0.1-2.7,0.5-3.9c1-1.8,2.5-2.9,4.5-3.3c1.5-0.3,3-0.2,4.3,0.4c2,0.9,3.3,2.4,3.7,4.6c0,0.1,0,0.3,0,0.4
	C668.1,626.5,668.1,626.8,668.2,627.1L668.2,627.1z M659.4,627.1c0,0.8,0.1,1.5,0.4,2.2c0.4,0.9,1.4,1.3,2.3,1
	c0.6-0.2,1-0.7,1.2-1.3c0.3-1,0.4-2,0.2-3.1c-0.1-0.5-0.2-1-0.6-1.4c-0.6-0.8-1.7-0.9-2.4-0.4c-0.4,0.3-0.6,0.6-0.8,1
	C659.5,625.8,659.4,626.5,659.4,627.1L659.4,627.1z M654,624.5h-4.2c-0.1-0.8-0.5-1.1-1.3-1.2c-0.3,0-0.6,0-0.9,0.1
	c-0.3,0.1-0.5,0.2-0.6,0.4c-0.2,0.4-0.1,0.7,0.3,0.9c0.4,0.1,0.8,0.2,1.1,0.3c1.1,0.2,2.3,0.4,3.4,0.8c0.7,0.2,1.2,0.6,1.8,1
	c0.6,0.5,0.9,1.2,1,2c0.2,1.8-0.9,3.2-2.5,3.9c-0.9,0.4-1.8,0.5-2.8,0.6c-1.3,0.1-2.7-0.1-4-0.5c-1.4-0.5-2.4-1.4-2.8-2.9
	c0-0.1-0.1-0.3-0.1-0.4c0-0.2,0-0.3,0-0.5c0.1,0,0.1,0,0.2,0c1.3,0,2.6,0,3.9,0c0.2,0,0.2,0,0.2,0.2c0.1,0.9,0.7,1.3,1.4,1.5
	c0.4,0.1,0.8,0.1,1.2-0.1c0.6-0.2,0.8-0.7,0.7-1.2c-0.1-0.3-0.3-0.5-0.6-0.6c-0.6-0.1-1.1-0.2-1.7-0.4c-1-0.2-2-0.3-3-0.7
	c-1.3-0.5-2-1.4-2.2-2.7c-0.2-1.3,0.3-2.3,1.3-3.1c0.7-0.6,1.6-0.9,2.5-1c1.6-0.3,3.2-0.2,4.8,0.2c0.6,0.1,1.1,0.4,1.6,0.8
	c0.7,0.5,1,1.2,1.1,2C654,624.1,654,624.3,654,624.5L654,624.5z M700,625.6c-0.2,0-0.2,0-0.3,0c-1.2,0-2.4,0-3.5,0
	c-0.2,0-0.3,0-0.3-0.2c-0.2-0.7-0.6-1.2-1.3-1.4c-0.9-0.3-1.8,0.2-2.1,1.1c-0.5,1.2-0.5,2.5,0,3.7c0.2,0.5,0.5,0.9,0.9,1.2
	c1,0.7,2.3,0.1,2.5-1.1c0-0.2,0.1-0.5,0.1-0.8c0.1,0,0.2,0,0.3,0c1.2,0,2.5,0,3.7,0c0.2,0,0.3,0.1,0.3,0.3c0,1.4-0.6,2.5-1.6,3.4
	c-1,0.9-2.2,1.4-3.5,1.5c-1.1,0.1-2.1,0.1-3.1-0.2c-2.4-0.9-3.9-2.5-4.3-5.1c-0.3-2.2,0.3-4.1,1.9-5.6c0.8-0.8,1.9-1.2,3-1.4
	c1.5-0.3,3-0.2,4.4,0.4c1.4,0.6,2.4,1.7,2.8,3.2C699.9,624.8,700,625.2,700,625.6L700,625.6z M686.9,633h-4.4v-11.9h4.4V633z
	 M686.9,616.4v3.1h-4.4v-3.1H686.9z M359,713.9v1.6h-21.1v-1.6h9.9c-0.2-0.7-0.5-1.6-0.8-2.3l1.7-0.4c0.3,0.9,0.7,1.9,1,2.8H359z
	 M358.2,732.5c0,0.9-0.2,1.3-0.9,1.5c-0.6,0.2-1.7,0.2-3.2,0.2c-0.1-0.4-0.4-1-0.6-1.4c1,0,2.1,0,2.4,0c0.3,0,0.4-0.1,0.4-0.4V725
	h-15.9v9.4h-1.7v-11.1h19.4L358.2,732.5L358.2,732.5z M355.6,717v5.1h-14V717H355.6z M353.4,731.8h-8.5v1.2h-1.7v-6.5h10.2V731.8z
	 M353.8,718.4h-10.4v2.3h10.4V718.4z M344.9,728v2.4h6.9V728H344.9z M371.3,731c-0.6-1-2.1-3.1-3.1-4.6c-0.6,2.8-1.7,5.6-4,7.7
	c-0.2-0.4-0.8-1-1.3-1.3c2.9-2.5,3.8-6.4,4-9.8H363v-1.7h4c0-0.6,0-1.1,0-1.6v-2.5h-3.5v-1.7h3.5v-4h1.7v4h3.4v1.7h-3.4v2.5
	c0,0.5,0,1.1,0,1.6h3.9v1.7h-3.9c0,0.5-0.1,0.9-0.1,1.4c0.9,1.1,3.5,4.3,4,5.1L371.3,731L371.3,731z M383.1,732.4
	c0.4,0,0.6-0.2,0.6-2c0.3,0.3,1,0.6,1.5,0.7c-0.2,2.4-0.7,3-1.9,3h-2c-1.6,0-2-0.5-2-2.3v-5.5h-1.7c-0.5,3.8-1.7,6.6-5.8,8.2
	c-0.2-0.4-0.7-1.1-1-1.4c3.6-1.3,4.7-3.6,5.1-6.8h-2.3v-14.1h10.3v14.1h-2.9v5.5c0,0.5,0.1,0.6,0.6,0.6H383.1L383.1,732.4z
	 M375.1,716.4h6.9V714h-6.9V716.4z M375.1,720.5h6.9V718h-6.9V720.5z M375.1,724.6h6.9v-2.5h-6.9V724.6z M395.5,720.1
	c-0.4,3.6-1.1,6.6-2.1,8.9c2.4,2.5,5.7,3.1,9.8,3.1c0.9,0,6.1,0,7.4,0c-0.3,0.4-0.6,1.2-0.7,1.8h-6.8c-4.5,0-8-0.7-10.5-3.2
	c-0.9,1.6-1.9,2.8-3,3.7c-0.3-0.4-0.9-1-1.3-1.3c1.2-0.9,2.3-2.2,3.2-3.8c-0.9-1.3-1.6-2.9-2.2-4.9l1.3-0.6c0.4,1.5,0.9,2.8,1.6,3.8
	c0.6-1.7,1.1-3.7,1.4-6h-3.9c1-1.9,2.4-4.6,3.5-7.1H389v-1.7h6.8c-1,2.2-2.3,4.9-3.4,7.1h1.7l0.3,0L395.5,720.1L395.5,720.1z
	 M401.6,714.9H397v-1.5h4.6v-2.1h1.7v2.1h5.2v3.4h1.7v1.5h-1.7v3.4h-5.2v1.9h5.7v1.4h-5.7v2.1h6.6v1.5h-6.6v2.5h-1.7v-2.5h-6v-1.5h6
	v-2.1h-5v-1.4h5v-1.9h-4.8v-1.5h4.8v-1.9h-6.2v-1.5h6.2V714.9L401.6,714.9z M403.3,714.9v1.9h3.6v-1.9H403.3z M406.9,718.4h-3.6v1.9
	h3.6V718.4z M423,725.5c-0.5-0.9-1.8-2.7-2.8-4.1v13h-1.8v-12.2c-1,3-2.4,5.9-3.9,7.6c-0.2-0.5-0.6-1.3-1-1.8
	c1.8-2.1,3.7-6.1,4.6-9.6h-3.8v-1.8h4v-5.5h1.8v5.5h3.3v1.8h-3.3v0.7c0.9,1,3.3,4,3.9,4.7L423,725.5z M436,718.5h-2.5v13.4
	c0,1.3-0.3,1.9-1.1,2.2c-0.8,0.3-2.2,0.4-4.3,0.4c-0.1-0.5-0.4-1.4-0.6-1.9c1.6,0,3.1,0,3.6,0c0.4,0,0.6-0.1,0.6-0.6v-10.9
	c-1.9,3.7-4.7,7.3-7.3,9.4c-0.3-0.5-0.8-1.2-1.3-1.5c3-2.2,6.2-6.4,8-10.4h-6.6v-1.8h7.2v-5.4h1.8v5.4h2.5L436,718.5L436,718.5z
	 M358.8,622v31.6h22.1v-22.9h12.7v22.9h22.1V622h0l-28.4-16.4L358.8,622L358.8,622z M424.1,617.6l-10.3-5.9v-13.8h-7.8v9.3l-19.1-11
	l-0.1,0.1l-37.1,21.4l2.3,4l34.9-20.2l34.8,20.1L424.1,617.6z M360.1,203.9c-0.9-1.2-2.4-2.6-4-3.8c-0.8,1.2-1.6,2.4-2.5,3.4h5.8
	v1.6H357v2.8h3.2v1.6H357v7.6c1.1-0.2,2.3-0.5,3.5-0.7l0.1,1.6c-2.8,0.7-5.8,1.3-8.1,1.8l-0.4-1.7c0.9-0.2,2.1-0.4,3.3-0.6v-7.9
	h-3.2v-1.6h3.2v-2.8h-2.1v-1.4c-0.3,0.4-0.7,0.7-1,1c-0.1-0.4-0.5-1.4-0.8-1.8c1.7-1.3,3.4-3.5,4.5-5.8l1.3,0.6
	c-0.1,0.4-0.3,0.7-0.5,1c1.6,1.1,3.2,2.5,4.1,3.7L360.1,203.9L360.1,203.9z M353.9,210.9c0.5,1.5,0.9,3.5,0.9,4.8l-1.3,0.4
	c-0.1-1.3-0.4-3.3-0.9-4.8L353.9,210.9z M357.7,215.2c0.3-1.2,0.7-3.3,0.9-4.6l1.4,0.4c-0.4,1.5-0.8,3.4-1.1,4.6L357.7,215.2
	L357.7,215.2z M373.5,218.3c0,1.1-0.2,1.6-0.9,1.9c-0.7,0.3-1.8,0.3-3.6,0.3c-0.1-0.5-0.3-1.2-0.5-1.7c1.4,0.1,2.6,0.1,3,0
	c0.4,0,0.5-0.1,0.5-0.6V200h-9.2v20.5h-1.5v-22.2h12.3V218.3L373.5,218.3z M364.2,208.4h1.1v5.9h1.5v-7.5h-3.2v-1.5h4.5
	c0.4-1.4,0.9-3.4,1.1-4.8l1.3,0.4c-0.4,1.4-0.8,3.1-1.2,4.4h1.9v1.5h-3.2v7.5h1.6v-5.9h1.1v7.3h-6.4L364.2,208.4L364.2,208.4z
	 M365.3,200.6c0.6,1.2,1.1,2.9,1.3,3.9l-1.2,0.4c-0.1-1-0.6-2.7-1.2-3.9L365.3,200.6z M390.3,205.4c2.2,4.3,6,8.6,9.6,10.8
	c-0.4,0.4-1.1,1.1-1.4,1.6c-3.3-2.2-6.6-6.2-9-10.4v13.2h-1.9v-13.1c-2.3,4.3-5.6,8.3-9,10.4c-0.3-0.5-0.9-1.2-1.4-1.6
	c3.7-2.1,7.4-6.4,9.5-10.9h-8.6v-1.9h9.5v-6.2h1.9v6.2h9.5v1.9L390.3,205.4L390.3,205.4z M412.9,207.7h-6.8v12.8h-1.8v-22.1h8.6
	L412.9,207.7L412.9,207.7z M406.1,200v2.2h5.1V200H406.1z M411.2,206.1v-2.5h-5.1v2.5H411.2z M424.1,217.9c0,1.3-0.3,1.9-1.1,2.2
	c-0.9,0.3-2.3,0.4-4.5,0.4c-0.1-0.5-0.4-1.4-0.6-2c1.6,0.1,3.3,0.1,3.8,0.1c0.4,0,0.6-0.2,0.6-0.7v-10.1h-7.1v-9.3h8.9L424.1,217.9
	L424.1,217.9z M416.9,200v2.2h5.4V200H416.9z M422.2,206.2v-2.5h-5.4v2.5H422.2z M369.1,72.1v80.5h35.6V72.1H369.1z M372.6,75.8
	h12.6v17.4h-12.6V75.8z M372.6,96.4h12.6v17.4h-12.6V96.4z M370.3,117.2c0-0.9,0.7-1.6,1.6-1.6c0.9,0,1.6,0.7,1.6,1.6
	c0,0.9-0.7,1.6-1.6,1.6C371,118.8,370.3,118.1,370.3,117.2z M401.3,113.8h-12.6V96.4h12.6V113.8z M401.3,93.1h-12.6V75.8h12.6V93.1z
	 M366.1,69.1v83.6h2.1h0.5v-81h36.5v81h0.5h2.1V69.1H366.1z M183.6,108.5c0,0.4-0.1,0.8-0.1,1.2c-0.4,3.2-1.7,5.8-4.2,7.9
	c-1,0.8-2.3,1.3-3.5,1.7c-2,0.6-4.1,0.8-6.2,0.7c-1.6-0.1-3.3-0.4-4.8-0.8c-2.3-0.7-4.1-2.1-5.4-4.1c-1.1-1.7-1.7-3.5-1.9-5.5
	c-0.2-2.2-0.1-4.3,0.6-6.4c0.8-2.2,2-4.1,3.9-5.5c1-0.7,2.1-1.2,3.3-1.5c2.2-0.6,4.4-0.8,6.7-0.7c1.6,0.1,3.1,0.4,4.6,0.9
	c2.3,0.8,4,2.3,5.3,4.3c1,1.5,1.5,3.3,1.8,5.1c0.1,0.4,0.1,0.8,0.1,1.2V108.5L183.6,108.5z M163.6,107.6c0,1.8,0.2,3.5,0.8,5.2
	c0.4,1.3,1.2,2.4,2.4,3.2c1.4,0.9,2.9,1.2,4.5,1c2.4-0.3,4.1-1.5,5-3.8c0.5-1.4,0.8-2.9,0.9-4.3c0.1-2.1-0.1-4.2-0.7-6.2
	c-0.4-1.4-1.2-2.5-2.4-3.3c-1.4-0.9-2.8-1.2-4.4-1c-2.4,0.3-4.2,1.6-5,3.9C163.8,104.1,163.6,105.9,163.6,107.6L163.6,107.6z
	 M115.6,95.4c1.6,0,3.5,0.3,5.3,0.8c2.4,0.7,4.2,2.1,5.6,4.2c1.1,1.6,1.7,3.4,1.9,5.3c0.3,2.3,0.1,4.5-0.6,6.7
	c-0.8,2.3-2.2,4.2-4.2,5.6c-1.1,0.7-2.3,1.2-3.5,1.5c-1.9,0.5-3.8,0.7-5.7,0.6c-1.8-0.1-3.6-0.4-5.3-1c-2.3-0.8-3.9-2.3-5.2-4.2
	c-1-1.6-1.6-3.4-1.8-5.3c-0.2-2.1-0.1-4.2,0.6-6.3c0.8-2.4,2.2-4.3,4.2-5.7c1.1-0.8,2.3-1.2,3.6-1.5
	C112.1,95.6,113.8,95.4,115.6,95.4L115.6,95.4z M122.1,107.8c0-1.8-0.2-3.5-0.8-5.1c-0.4-1.4-1.2-2.5-2.4-3.3
	c-1.4-0.9-2.8-1.2-4.4-1c-2.4,0.3-4.1,1.6-5,3.9c-0.5,1.2-0.7,2.4-0.8,3.7c-0.2,2.3,0,4.6,0.7,6.8c0.4,1.2,1,2.2,2.1,3
	c1.5,1.1,3.2,1.5,5.1,1.2c2.3-0.4,3.9-1.6,4.7-3.8C121.8,111.4,122,109.6,122.1,107.8L122.1,107.8z M130.6,96.5h24.6v8.7h-3.1
	c0-0.4,0-0.8-0.1-1.2c-0.1-1.2-0.4-2.2-1.1-3.2c-0.7-0.9-1.7-1.4-2.8-1.5c-0.8-0.1-1.5,0-2.3,0c0,0,0,0-0.1,0v0.2
	c0,5.1,0,10.3,0,15.4c0,0.2,0,0.4,0.1,0.6c0.2,0.5,0.6,0.8,1.3,0.8c1,0,2,0,3,0c0.1,0,0.2,0,0.2,0v2.8h-15v-2.8h0.2c1,0,1.9,0,2.9,0
	c0.2,0,0.5,0,0.7-0.1c0.5-0.1,0.7-0.5,0.8-0.9c0-0.1,0-0.3,0-0.4c0-5.1,0-10.2,0-15.3v-0.2c0,0,0,0-0.1,0c-0.9,0-1.8-0.1-2.7,0.1
	c-1.7,0.3-2.8,1.4-3.3,3.1c-0.2,0.8-0.3,1.6-0.3,2.4c0,0.1,0,0.2,0,0.3h-3.1V96.5z M80.3,116.4h0.2c0.9,0,1.9,0,2.8,0
	c0.2,0,0.4,0,0.6,0c0.6-0.1,1-0.5,1.1-1.1c0-0.1,0-0.2,0-0.3c0-5.1,0-10.2,0-15.3v-0.2c0,0-0.1,0-0.1,0c-0.9,0-1.8,0-2.7,0.1
	c-1.5,0.2-2.6,1.2-3.1,2.6c-0.4,0.9-0.5,1.9-0.5,2.9c0,0.1,0,0.2,0,0.3h-3.1v-8.7h24.7v8.7h-3.1c0-0.4,0-0.8-0.1-1.2
	c-0.1-1-0.3-1.9-0.9-2.8c-0.7-1.1-1.8-1.7-3.1-1.8c-0.8-0.1-1.6,0-2.4,0v0.2c0,5.1,0,10.3,0,15.4c0,0.2,0,0.5,0.1,0.7
	c0.2,0.5,0.7,0.7,1.3,0.7c1,0,2,0,3,0c0.1,0,0.1,0,0.2,0v2.8H80.3L80.3,116.4L80.3,116.4z M620.8,114.8h-9.5c0.3-2.1,0.4-4,0.9-5.9
	c0.6-2.5,2.4-4,4.8-4.6c6.2-1.5,12.4-2,18.7-0.4c4.5,1.1,6.7,3.9,6.8,8.6c0,9,0,18,0,27c0,1.2-0.3,1.6-1.5,1.6c-7.3-0.1-14.7,0-22,0
	c-4.2,0-6.8-1.7-7.6-5.9c-0.6-2.8-0.7-5.8-0.5-8.7c0.3-3.4,2.5-5.7,5.8-6.9c4.2-1.4,8.4-1.3,12.7-0.9c1,0.1,1.3,0.5,1.2,1.5
	c-0.1,1.5,0,3,0,4.5c0,0.9-0.3,1.2-1.3,1.2c-1.9-0.1-3.7,0-5.6,0c-1.5,0-2.7,0.6-3.4,1.9c-0.7,1.5-0.6,3,0.3,4.3
	c0.5,0.6,1.5,1.2,2.3,1.2c3,0.1,6,0,8.9,0.1c0.9,0,1.2-0.3,1.2-1.2c0-6.1,0-12.2,0-18.3c0-1.4-0.7-2.4-2.1-2.5
	c-2.4-0.2-4.8-0.3-7.2-0.1C621.9,111.2,620.8,112.6,620.8,114.8L620.8,114.8z M647.4,122.5c0-5.5,0-10.9,0-16.4
	c0-1.4,0.7-2.1,2.2-2.1c6.2,0,12.4,0.1,18.7,0c6.4-0.2,8.7,3.3,9.5,7.9c0.8,4.1,0.8,8.3-0.4,12.4c-1.1,4.1-4.2,6.5-8.4,6.6
	c-2.8,0.1-5.7,0-8.5,0c-1,0-1.3-0.4-1.3-1.3c0.1-1.6,0.1-3.2,0-4.9c0-1,0.4-1.3,1.4-1.3c1.9,0,3.7-0.1,5.6-0.2c1.6,0,2.6-1,2.7-2.4
	c0.2-2.3,0.2-4.7,0.1-7.1c-0.1-1.5-1.3-2.3-2.9-2.3c-2.6,0-5.3,0.1-7.9,0c-1.5-0.1-1.8,0.5-1.8,1.8c0,8.5,0,17.1,0,25.6
	c0,1.4-0.7,2-2.1,2c-1.7,0-3.4-0.1-5.1,0c-1.4,0.1-1.8-0.3-1.8-1.8C647.5,133.6,647.4,128.1,647.4,122.5L647.4,122.5z M663.6,85.6
	c1.2-1.8,2.6-3.6,3.5-5.6c1.6-3.4,4-4.9,7.7-4.2c0.6,0.1,1.3,0,2.2,0c-2.3,3.4-4.4,6.6-6.6,9.8c1.1,0.2,1.9,0.2,2.8,0.4
	c2.2,0.5,3.4,2.1,3.4,4.3c0,3.1,0,6.1,0,9.3h-6.2c0-2.4,0-4.7,0-7.1c0-1.9-0.2-2.2-2.2-2.2c-1.3,0-2.6,0-3.9,0
	c-1.1,0-1.4,0.4-1.4,1.4c0.1,2.1,0,4.1,0,6.2c0,1.1-0.2,1.6-1.4,1.5c-1.5-0.1-3.5,0.5-4.4-0.3c-0.8-0.7-0.4-2.8-0.4-4.3
	c0-5.8,0-11.5,0-17.3v-1.9c1.9,0,3.7-0.1,5.5,0.1c0.3,0,0.7,0.8,0.7,1.2c0.1,2.3,0,4.5,0,6.8c0,0.5,0.1,1,0.1,1.5
	C663.4,85.6,663.5,85.6,663.6,85.6L663.6,85.6z M648.2,100c0-2.4,0-4.6,0-6.8c0-2.3-0.3-2.5-2.5-2.5c-0.2,0-0.4,0-0.6,0
	c-3,0-4.5,1.5-4.5,4.4c0,1.2,0,2.3,0,3.5c0,0.9-0.3,1.3-1.2,1.2c-1.2-0.1-2.3-0.1-3.5,0c-1,0-1.2-0.4-1.2-1.2c0-7.1,0-14.2,0-21.2
	c0-1,0.2-1.4,1.3-1.3c1.5,0.1,2.9,0,4.6,0v9.6c0.1,0,0.2,0.1,0.4,0.1c0.3-0.4,0.7-0.8,0.9-1.2c1.6-2.4,3.1-4.8,4.6-7.3
	c0.5-0.9,1.2-1.2,2.2-1.2c1.8,0.1,3.6,0,5.8,0c-2.3,3.4-4.4,6.5-6.6,9.8c1.2,0.2,2.2,0.3,3.2,0.5c1.7,0.4,2.9,1.9,2.9,3.7
	c0.1,3,0,6,0,8.9c0,0.7-0.2,1.1-1,1.1C651.5,99.9,650,100,648.2,100z M625,99.9h-6c0-2.3,0.1-4.6,0-6.8c0-1-0.3-2-0.8-2.8
	c-2.4-4.2-4.8-8.3-7.3-12.4c-0.3-0.6-0.6-1.1-1.1-1.9c2.2,0,4.1-0.1,6.1,0c0.4,0,0.9,0.6,1.1,1c1.4,2.5,2.7,5,4,7.5
	c0.2,0.5,0.5,0.9,1,1.7c1.5-2.9,3-5.6,4.3-8.3c0.7-1.5,1.6-2.1,3.2-2c1.4,0.2,2.8,0,4.5,0c-1.5,2.8-3,5.3-4.4,7.9
	c-0.2,0.3-0.3,0.6-0.5,0.9c-3,4.3-4.8,8.9-4,14.3C625.1,99.2,625,99.4,625,99.9L625,99.9z M673.3,134.5c-1.9,0-3.4,1.5-3.4,3.4
	s1.5,3.4,3.4,3.4s3.4-1.5,3.4-3.4S675.2,134.5,673.3,134.5z M674.2,140.1l-1-1.8h-0.7v1.8H672v-4.2h1.2c0.8,0,1.4,0.3,1.4,1.2
	c0,0.7-0.4,1-0.9,1.2l1,1.8H674.2z M674.1,137.1c0-0.5-0.3-0.7-1-0.7h-0.7v1.5h0.7C673.8,137.9,674.1,137.6,674.1,137.1z"/>
<g>
	<path class="st0" d="M771,3v768H3V3H771 M774,0H0v774h774V0L774,0z"/>
</g>
</svg>
