<svg width="375" height="667" viewBox="0 0 375 667" fill="none" xmlns="http://www.w3.org/2000/svg">
<g clip-path="url(#clip0_8_294)">
<rect width="375" height="667" fill="#9FA0A0"/>
<line x1="0.435525" y1="-0.245597" x2="375.436" y2="664.754" stroke="black"/>
<line x1="375.436" y1="0.245038" x2="0.435856" y2="667.245" stroke="black"/>
<path d="M145.14 344.75L144.51 345.17C147.1 348.39 150.18 353.36 151.16 357.56C158.37 362.6 164.53 348.67 145.14 344.75ZM175.38 333.83L164.81 332.85V360.99C164.81 361.9 164.46 362.32 163.2 362.32C161.45 362.32 152.07 361.76 152.07 361.76V362.67C156.27 363.3 158.16 364.14 159.49 365.26C160.89 366.45 161.31 368.2 161.59 370.51C171.53 369.74 172.93 366.73 172.93 361.27V335.65C174.54 335.44 175.24 334.88 175.38 333.83ZM166.91 305.41L156.48 304.5V330.82H164.6V307.23C166.28 306.95 166.77 306.32 166.91 305.41ZM177.9 335.72L173.77 341.25H139.47L140.03 343.21H183.5C184.55 343.21 185.18 342.86 185.39 342.09C182.66 339.5 177.9 335.72 177.9 335.72ZM175.1 324.38L170.97 329.77H142.9L143.46 331.8H180.77C181.75 331.8 182.52 331.45 182.73 330.68C179.86 328.09 175.1 324.38 175.1 324.38ZM176.57 311.36L172.3 317.03H140.38L140.94 318.99H182.59C183.57 318.99 184.27 318.64 184.48 317.87C181.47 315.21 176.57 311.36 176.57 311.36ZM141.85 310.31L132.33 304.64C129.81 310.17 124.35 318.71 118.89 324.17L119.59 324.94C127.22 321.3 134.57 315.63 139.12 311.08C140.8 311.36 141.5 310.94 141.85 310.31ZM142.76 324.17L132.82 318.85C130.16 325.78 124.42 336.91 118.54 344.19L119.24 344.89C127.78 339.36 135.34 331.24 140.03 325.15C141.78 325.36 142.41 324.94 142.76 324.17ZM138 333.69L130.3 330.82L127.85 333.97V370.37H129.39C132.82 370.37 135.83 368.27 135.83 367.57V335.02C137.23 334.81 137.79 334.32 138 333.69ZM240.48 305.48L239.78 305.9C241.39 307.65 242.72 310.59 242.79 313.25C248.18 317.87 254.83 307.58 240.48 305.48ZM222.07 367.22V326.62H244.96V324.59H222.49L215.21 321.51V369.67H216.33C219.34 369.67 222.07 367.99 222.07 367.22ZM242.65 324.59H243.35V361.13C243.35 361.9 243.14 362.25 242.3 362.25C241.53 362.25 238.8 362.04 238.8 362.04V363.02C240.55 363.44 241.39 364.14 241.88 365.05C242.37 366.03 242.51 367.71 242.51 369.81C249.23 369.18 250.07 366.59 250.07 361.76V327.74C251.47 327.46 252.52 326.9 252.94 326.34L245.8 320.88L242.65 324.59ZM238.59 305.69L228.93 304.71V369.32H230.26C232.92 369.32 236 367.57 236 366.73V307.65C237.82 307.37 238.38 306.67 238.59 305.69ZM246.29 348.32H218.29V350.28H246.29V348.32ZM246.08 336.21H218.5V338.17H246.08V336.21ZM248.18 311.85L244.68 316.54H211.29L211.85 318.57H252.87C253.85 318.57 254.55 318.22 254.76 317.45C252.31 315.14 248.18 311.85 248.18 311.85ZM216.89 332.99L210.31 328.72C209.19 332.22 207.79 335.72 206.32 337.89L207.3 338.59C209.89 337.33 212.2 335.44 214.09 333.62C215.35 334.04 216.4 333.69 216.89 332.99ZM194.21 305.69L193.65 306.11C195.75 308.49 198.34 312.41 199.18 315.91C206.74 320.6 212.97 306.39 194.21 305.69ZM205.13 367.92V333.69L197.92 339.71V370.16H199.18C202.82 370.16 205.13 368.41 205.13 367.92ZM204.71 336.35L203.94 336.77C205.9 339.64 208 344.05 208.42 347.76C213.95 352.52 220.18 341.6 204.71 336.35ZM203.38 320.53H204.29C202.19 329.28 196.31 340.55 189.38 348.25L190.08 348.88C199.32 342.93 207.3 332.92 211.15 323.96C212.76 323.89 213.6 323.68 214.16 323.12L207.44 316.61L203.38 320.53ZM208.98 320.53H189.66L190.29 322.49H208.98V320.53Z" fill="black"/>
</g>
<defs>
<clipPath id="clip0_8_294">
<rect width="375" height="667" fill="white"/>
</clipPath>
</defs>
</svg>
