<svg width="1920" height="1080" viewBox="0 0 1920 1080" fill="none" xmlns="http://www.w3.org/2000/svg">
<g clip-path="url(#clip0_1_565)">
<rect width="1920" height="1080" fill="#9FA0A0"/>
<line x1="0.245131" y1="-0.435788" x2="1920.25" y2="1079.56" stroke="black"/>
<line x1="1920.25" y1="0.435788" x2="0.245088" y2="1080.44" stroke="black"/>
<path d="M833.407 572.575L831.495 573.849C839.356 583.622 848.704 598.707 851.678 611.454C873.561 626.751 892.257 584.472 833.407 572.575ZM925.188 539.432L893.107 536.457V621.864C893.107 624.626 892.045 625.901 888.221 625.901C882.909 625.901 854.44 624.201 854.44 624.201V626.963C867.188 628.875 872.924 631.425 876.961 634.824C881.21 638.436 882.484 643.747 883.334 650.758C913.503 648.421 917.752 639.286 917.752 622.714V544.955C922.639 544.318 924.763 542.618 925.188 539.432ZM899.481 453.175L867.825 450.413V530.296H892.47V458.699C897.569 457.849 899.056 455.937 899.481 453.175ZM932.836 545.168L920.301 561.952H816.198L817.898 567.901H949.833C953.02 567.901 954.932 566.838 955.569 564.501C947.283 556.641 932.836 545.168 932.836 545.168ZM924.338 510.75L911.803 527.109H826.609L828.308 533.27H941.547C944.521 533.27 946.858 532.208 947.496 529.871C938.785 522.01 924.338 510.75 924.338 510.75ZM928.8 471.233L915.84 488.442H818.96L820.66 494.391H947.071C950.045 494.391 952.17 493.329 952.807 490.992C943.672 482.918 928.8 471.233 928.8 471.233ZM823.422 468.047L794.528 450.838C786.879 467.622 770.308 493.541 753.736 510.113L755.861 512.45C779.019 501.402 801.326 484.193 815.136 470.384C820.235 471.233 822.359 469.959 823.422 468.047ZM826.184 510.113L796.015 493.966C787.942 514.999 770.52 548.78 752.674 570.875L754.799 573C780.718 556.216 803.663 531.571 817.898 513.087C823.209 513.725 825.121 512.45 826.184 510.113ZM811.737 539.007L788.367 530.296L780.931 539.857V650.333H785.605C796.015 650.333 805.151 643.96 805.151 641.835V543.043C809.4 542.406 811.099 540.919 811.737 539.007ZM1122.77 453.387L1120.65 454.662C1125.53 459.973 1129.57 468.896 1129.78 476.97C1146.14 490.992 1166.33 459.761 1122.77 453.387ZM1066.9 640.773V517.549H1136.37V511.387H1068.17L1046.08 502.039V648.209H1049.47C1058.61 648.209 1066.9 643.11 1066.9 640.773ZM1129.36 511.387H1131.48V622.289C1131.48 624.626 1130.84 625.689 1128.3 625.689C1125.96 625.689 1117.67 625.051 1117.67 625.051V628.026C1122.98 629.3 1125.53 631.425 1127.02 634.187C1128.51 637.161 1128.93 642.26 1128.93 648.634C1149.33 646.722 1151.88 638.861 1151.88 624.201V520.948C1156.13 520.098 1159.31 518.399 1160.59 516.699L1138.92 500.127L1129.36 511.387ZM1117.04 454.024L1087.72 451.05V647.147H1091.75C1099.83 647.147 1109.17 641.835 1109.17 639.286V459.973C1114.7 459.123 1116.4 456.999 1117.04 454.024ZM1140.41 583.41H1055.42V589.359H1140.41V583.41ZM1139.77 546.655H1056.06V552.604H1139.77V546.655ZM1146.14 472.721L1135.52 486.955H1034.18L1035.88 493.116H1160.38C1163.35 493.116 1165.48 492.054 1166.11 489.717C1158.68 482.706 1146.14 472.721 1146.14 472.721ZM1051.17 536.882L1031.2 523.922C1027.8 534.545 1023.55 545.168 1019.09 551.754L1022.07 553.879C1029.93 550.054 1036.94 544.318 1042.68 538.794C1046.5 540.069 1049.69 539.007 1051.17 536.882ZM982.339 454.024L980.639 455.299C987.013 462.523 994.873 474.42 997.423 485.043C1020.37 499.278 1039.28 456.149 982.339 454.024ZM1015.48 642.898V539.007L993.599 557.278V649.696H997.423C1008.47 649.696 1015.48 644.385 1015.48 642.898ZM1014.21 547.08L1011.87 548.355C1017.82 557.065 1024.19 570.45 1025.47 581.71C1042.25 596.157 1061.16 563.014 1014.21 547.08ZM1010.17 499.065H1012.93C1006.56 525.622 988.712 559.827 967.679 583.197L969.804 585.11C997.848 567.051 1022.07 536.67 1033.75 509.475C1038.64 509.263 1041.19 508.626 1042.89 506.926L1022.49 487.168L1010.17 499.065ZM1027.17 499.065H968.529L970.441 505.014H1027.17V499.065Z" fill="black"/>
</g>
<defs>
<clipPath id="clip0_1_565">
<rect width="1920" height="1080" fill="white"/>
</clipPath>
</defs>
</svg>
