<svg width="136" height="403" viewBox="0 0 136 403" fill="none" xmlns="http://www.w3.org/2000/svg">
<path d="M90.6301 17.43V0H135.43V16.86C135.43 24.66 130.96 30.07 123.47 30.07C118.75 30.07 115.04 27.24 113.65 23.46C112.08 27.74 108.36 30.76 103.02 30.76C94.9001 30.76 90.6201 25.35 90.6201 17.42L90.6301 17.43ZM111.33 16.99V4.78H94.9101V16.99C94.9101 22.53 98.1201 25.99 103.15 25.99C108.18 25.99 111.33 22.53 111.33 16.99ZM131.15 16.49V4.78H115.61V16.48C115.61 21.45 118.06 25.29 123.41 25.29C128.76 25.29 131.15 21.45 131.15 16.48V16.49Z" fill="#D68F41"/>
<path d="M104.92 44.05C98.13 44.05 94.22 47.26 94.22 53.17C94.22 56.76 95.29 58.83 97.74 61.29L95.03 64.37C91.88 61.22 90.25 58.33 90.25 53.04C90.25 44.86 95.16 39.51 106.11 39.51C116.11 39.51 121.97 44.35 121.97 52.22C121.97 60.09 116.18 64.93 106.99 64.93H104.91V44.04L104.92 44.05ZM113.48 59.47C116.31 58.27 118.14 55.51 118.14 52.23C118.14 48.95 116.32 46.19 113.48 44.99C111.78 44.3 110.84 44.17 108.32 44.05V60.41C110.84 60.28 111.78 60.16 113.48 59.47Z" fill="#D68F41"/>
<path d="M90.6299 83.2499C90.6299 77.9599 94.3399 75.3199 98.9399 75.3199H117.94V71.4199H121.4V75.3199H131.09V79.8499H121.4V86.4599H117.94V79.8499H99.0599C96.2299 79.8499 94.5299 81.1699 94.5299 84.0699V86.4599H90.6299V83.2499Z" fill="#D68F41"/>
<path d="M90.6299 124.91V120.69L114.67 112.57L90.6299 104.52V100.3L121.59 90.48V95.39L96.7299 102.5L121.59 110.62V114.52L96.7299 122.7L121.59 129.75V134.66L90.6299 124.91Z" fill="#D68F41"/>
<path d="M104.92 143.53C98.13 143.53 94.22 146.74 94.22 152.65C94.22 156.24 95.29 158.31 97.74 160.77L95.03 163.85C91.88 160.7 90.25 157.81 90.25 152.52C90.25 144.34 95.16 138.99 106.11 138.99C116.11 138.99 121.97 143.83 121.97 151.7C121.97 159.57 116.18 164.41 106.99 164.41H104.91V143.52L104.92 143.53ZM113.48 158.95C116.31 157.75 118.14 154.99 118.14 151.71C118.14 148.43 116.32 145.67 113.48 144.47C111.78 143.78 110.84 143.65 108.32 143.53V159.89C110.84 159.76 111.78 159.64 113.48 158.95Z" fill="#D68F41"/>
<path d="M104.92 176.88C98.13 176.88 94.22 180.09 94.22 186C94.22 189.59 95.29 191.66 97.74 194.12L95.03 197.2C91.88 194.05 90.25 191.16 90.25 185.87C90.25 177.69 95.16 172.34 106.11 172.34C116.11 172.34 121.97 177.18 121.97 185.05C121.97 192.92 116.18 197.76 106.99 197.76H104.91V176.87L104.92 176.88ZM113.48 192.3C116.31 191.1 118.14 188.34 118.14 185.06C118.14 181.78 116.32 179.02 113.48 177.82C111.78 177.13 110.84 177 108.32 176.88V193.24C110.84 193.11 111.78 192.99 113.48 192.3Z" fill="#D68F41"/>
<path d="M90.6299 227.22H109.7C115.17 227.22 117.94 224.26 117.94 219.61C117.94 214.96 115.11 211.93 109.7 211.93H90.6299V207.4H121.59V211.93H118.19C120.71 214.13 121.97 217.15 121.97 220.61C121.97 224.07 120.96 226.65 119.08 228.54C116.94 230.74 114.04 231.75 110.46 231.75H90.6399V227.22H90.6299Z" fill="#D68F41"/>
<path d="M18.3805 26.68C15.6705 23.97 14.2305 20.01 14.2305 15.35V0H59.0305V15.35C59.0305 20.01 57.5805 23.97 54.8805 26.68C50.2205 31.34 43.3605 31.08 37.1305 31.08C30.9005 31.08 23.0305 31.33 18.3805 26.68ZM51.4805 23.34C53.8705 21.01 54.7505 17.99 54.7505 14.53V4.78H18.5005V14.53C18.5005 17.99 19.3805 21.01 21.7705 23.34C24.9805 26.42 31.6505 26.3 37.1205 26.3C42.5905 26.3 48.2605 26.43 51.4705 23.34H51.4805Z" fill="#D68F41"/>
<path d="M28.5098 44.3601C21.7098 44.3601 17.8098 47.5701 17.8098 53.4801C17.8098 57.0701 18.8798 59.1401 21.3298 61.6001L18.6198 64.6801C15.4698 61.5301 13.8398 58.6401 13.8398 53.3501C13.8398 45.1701 18.7498 39.8201 29.6998 39.8201C39.7098 39.8201 45.5598 44.6601 45.5598 52.5301C45.5598 60.4001 39.7698 65.2401 30.5798 65.2401H28.4998V44.3501L28.5098 44.3601ZM37.0698 59.7801C39.8998 58.5801 41.7298 55.8201 41.7298 52.5401C41.7298 49.2601 39.9098 46.5001 37.0698 45.3001C35.3698 44.6101 34.4298 44.4801 31.9098 44.3601V60.7201C34.4298 60.5901 35.3698 60.4701 37.0698 59.7801Z" fill="#D68F41"/>
<path d="M13.8398 84.6299C13.8398 79.4099 15.0398 75.3199 18.3098 71.9199L21.3298 74.9399C18.7498 77.3899 17.7398 80.7299 17.7398 84.5699C17.7398 89.6699 19.5598 92.8099 23.2098 92.8099C25.9198 92.8099 27.4198 91.2399 27.7398 87.6499L28.1798 82.5499C28.6798 76.5099 31.3898 73.2999 36.4898 73.2999C42.1498 73.2999 45.5498 78.0799 45.5498 84.6899C45.5498 89.0899 44.4798 93.0599 42.2198 95.8299L39.2598 92.8699C40.9598 90.6699 41.7198 87.8299 41.7198 84.6299C41.7198 80.0999 39.7698 77.7099 36.6198 77.7099C33.9798 77.7099 32.3998 79.2199 32.0898 83.1199L31.6498 88.0899C31.1498 93.4999 29.0698 97.2099 23.2798 97.2099C17.4898 97.2099 13.8398 92.1099 13.8398 84.6199V84.6299Z" fill="#D68F41"/>
<path d="M14.2197 106.09H45.1797V110.62H14.2197V106.09ZM53.9897 105.84H59.0897V110.94H53.9897V105.84Z" fill="#D68F41"/>
<path d="M0 131.95C0 127.29 1.2 124.71 4.15 121.44L7.04 124.4C5.03 126.67 3.96 128.24 3.96 131.83C3.96 137.81 8.17 140.33 13.46 140.33H18.3C15.09 137.81 14.27 134.98 14.27 131.65C14.27 128.5 15.4 125.8 17.04 124.16C20.12 121.08 24.91 120.38 29.94 120.38C34.97 120.38 39.76 121.07 42.84 124.16C44.47 125.8 45.55 128.57 45.55 131.71C45.55 135.11 44.8 137.88 41.52 140.39H45.17V144.86H13.28C5.6 144.86 0 140.08 0 131.96V131.95ZM41.53 132.64C41.53 125.91 35.74 124.9 29.95 124.9C24.16 124.9 18.37 125.91 18.37 132.64C18.37 139.37 24.16 140.32 29.95 140.32C35.74 140.32 41.53 139.38 41.53 132.64Z" fill="#D68F41"/>
<path d="M14.2197 176H33.2897C38.7597 176 41.5297 173.04 41.5297 168.39C41.5297 163.74 38.6997 160.71 33.2897 160.71H14.2197V156.18H45.1797V160.71H41.7797C44.2997 162.91 45.5597 165.93 45.5597 169.39C45.5597 172.85 44.5497 175.43 42.6697 177.32C40.5297 179.52 37.6397 180.53 34.0497 180.53H14.2197V176Z" fill="#D68F41"/>
<path d="M14.2198 224.76H17.1798C14.6598 222.24 13.8398 219.98 13.8398 215.82C13.8398 211.66 14.6598 209.02 16.6698 207.07C18.1798 205.56 20.5098 204.74 22.9598 204.74C28.3698 204.74 31.8998 208.52 31.8998 215.44V224.75H34.8598C39.3898 224.75 41.6598 222.49 41.6598 216.82C41.6598 212.86 40.7098 210.84 38.1298 209.02L40.9598 205.94C44.5498 208.71 45.5498 211.85 45.5498 216.89C45.5498 225.2 41.9598 229.29 35.2298 229.29H14.2198V224.76ZM28.5098 224.76V216.08C28.5098 211.42 26.6198 209.16 23.0398 209.16C19.4598 209.16 17.7498 211.36 17.7498 216.27C17.7498 218.91 17.9398 221.24 19.8298 223.19C20.8398 224.26 22.5998 224.76 25.1798 224.76H28.5198H28.5098Z" fill="#D68F41"/>
<path d="M14.2197 260.13H33.2897C38.7597 260.13 41.5297 257.17 41.5297 252.52C41.5297 247.87 38.6997 244.84 33.2897 244.84H14.2197V240.31H45.1797V244.84H41.7797C44.2997 247.04 45.5597 250.06 45.5597 253.52C45.5597 256.98 44.5497 259.56 42.6697 261.45C40.5297 263.65 37.6397 264.66 34.0497 264.66H14.2197V260.13Z" fill="#D68F41"/>
<path d="M14.2198 294.17H17.9298C14.6598 291.65 13.8398 288.76 13.8398 285.36C13.8398 282.21 14.9098 279.45 16.5498 277.81C19.6998 274.66 24.8598 274.03 29.6998 274.03C34.5398 274.03 39.7098 274.66 42.8498 277.81C44.4798 279.45 45.5598 282.22 45.5598 285.36C45.5598 288.76 44.8098 291.59 41.5998 294.11H59.0298V298.64H14.2198V294.17ZM41.5298 286.37C41.5298 279.64 35.7398 278.57 29.6998 278.57C23.6598 278.57 17.8698 279.64 17.8698 286.37C17.8698 293.1 23.6598 294.11 29.6998 294.11C35.7398 294.11 41.5298 293.1 41.5298 286.37Z" fill="#D68F41"/>
<path d="M14.2197 352.56L24.3497 348.97V329.4L14.2197 325.81V320.71L59.0197 337.2V341.23L14.2197 357.65V352.55V352.56ZM52.1697 339.28L28.5097 330.85V347.59L52.1697 339.28Z" fill="#D68F41"/>
<path d="M39.2697 381.38C40.9697 379.68 41.5397 378.42 41.5397 376.03C41.5397 371.5 37.9497 368.6 33.2297 368.6H14.2197V364.07H45.1797V368.6H41.3997C43.9797 370.3 45.5497 373.7 45.5497 377.28C45.5497 380.24 44.8597 382.5 42.6597 384.71L39.2597 381.38H39.2697Z" fill="#D68F41"/>
<path d="M14.2197 399.25C14.2197 393.96 17.9297 391.32 22.5297 391.32H41.5297V387.42H44.9897V391.32H54.6797V395.85H44.9897V402.46H41.5297V395.85H22.6497C19.8197 395.85 18.1197 397.17 18.1197 400.07V402.46H14.2197V399.25Z" fill="#D68F41"/>
</svg>
