<svg width="240" height="31" viewBox="0 0 240 31" fill="none" xmlns="http://www.w3.org/2000/svg">
<path d="M69.8399 14.74C68.8299 17.28 67.0999 18.95 64.5199 19.65C59.9699 20.88 55.3699 18.06 54.4599 13.44C53.5599 8.86998 56.78 4.62998 61.13 4.01998C65.41 3.41998 69.2599 6.13998 70.1799 10.36C70.3599 11.19 70.3399 12.03 70.2799 12.88C70.2599 13.17 70.09 13.17 69.87 13.17C65.83 13.17 61.79 13.17 57.74 13.17C57.43 13.17 57.33 13.21 57.4299 13.55C58.4999 17.03 62.6 18.35 65.44 16.12C65.85 15.8 66.19 15.41 66.48 14.98C66.55 14.87 66.61 14.75 66.79 14.75C67.78 14.75 68.7799 14.75 69.8399 14.75V14.74ZM67.08 10.26C66.7 8.75998 64.79 6.72998 62.08 6.80998C59.54 6.88998 57.8899 8.65998 57.5099 10.25C57.8199 10.29 66.72 10.29 67.08 10.25V10.26Z" fill="#D68F41"/>
<path d="M5.6001 18.1901C5.5101 18.3701 5.5401 18.5701 5.5601 18.7501C5.5901 19.0501 5.4701 19.2301 5.2101 19.3401C4.9101 19.4701 4.6101 19.6101 4.3101 19.7301C4.1601 19.7901 4.0701 19.7501 4.0801 19.5601C4.0801 19.4901 4.0801 19.4101 4.0801 19.3301C4.0801 13.1001 4.0801 6.86009 4.0801 0.630088C4.0801 0.323422 4.2201 0.220088 4.5001 0.320088C4.5001 0.320088 4.5201 0.320088 4.5401 0.320088C5.5301 0.680088 5.5501 0.710088 5.5501 1.77009C5.5501 2.92009 5.5501 4.06009 5.5501 5.21009V5.70009C7.6901 4.01009 10.0501 3.58009 12.6001 4.14009C14.4001 4.54009 15.8401 5.53009 16.9401 7.01009C19.1801 10.0401 18.9701 14.5001 16.6001 17.2601C14.1901 20.0701 9.0401 21.1101 5.6001 18.1801V18.1901ZM10.4701 17.2501C10.7901 17.2601 11.1701 17.2101 11.5501 17.1201C14.9901 16.2301 16.5501 12.2601 14.6301 9.26009C13.4401 7.39009 11.2901 6.49009 9.3001 7.01009C6.6201 7.72009 4.9401 10.5001 5.5601 13.2101C6.1101 15.6201 8.0601 17.2501 10.4801 17.2501H10.4701Z" fill="#D68F41"/>
<path d="M28.5901 19.93C24.1501 19.93 20.5601 16.35 20.5401 11.95C20.5201 7.54998 24.2501 3.84998 28.6601 3.92998C32.5901 3.98998 36.5301 7.18998 36.5501 11.89C36.5701 16.48 33.0901 19.94 28.5801 19.93H28.5901ZM23.4301 11.93C23.4101 14.78 25.7201 17.19 28.4901 17.21C31.3601 17.23 33.6101 14.92 33.6401 11.93C33.6701 9.19999 31.3101 6.83998 28.5401 6.81998C25.6501 6.79998 23.4601 8.98998 23.4301 11.93Z" fill="#D68F41"/>
<path d="M78.24 5.51998C79.05 4.82998 79.9 4.28998 80.91 4.08998C84.14 3.43998 87.73 4.94998 88.42 9.15998C88.51 9.69998 88.53 10.23 88.53 10.78C88.53 13.4 88.53 16.02 88.53 18.64C88.53 18.93 88.43 19.13 88.22 19.33C87.48 20.01 86.58 20.02 85.66 19.98C85.54 19.98 85.52 19.89 85.52 19.8C85.52 19.66 85.52 19.52 85.52 19.38C85.52 16.57 85.52 13.76 85.52 10.96C85.52 10.34 85.46 9.72998 85.29 9.12998C84.93 7.89998 84.17 7.04998 82.88 6.78998C81.49 6.50998 80.25 6.80998 79.28 7.90998C78.46 8.83998 78.21 9.96998 78.21 11.17C78.21 13.65 78.19 16.13 78.22 18.61C78.22 19.06 78.06 19.28 77.69 19.47C76.73 19.94 76.74 19.95 76.74 18.92C76.74 14.12 76.74 9.31998 76.74 4.52998C76.74 4.03998 76.74 4.03998 77.22 4.20998C78.11 4.52998 78.15 4.56998 78.24 5.54998V5.51998Z" fill="#D68F41"/>
<path d="M46.9001 14.9901C47.4601 13.6101 48.0301 12.2301 48.5901 10.8601C49.3601 8.9801 50.1301 7.1001 50.9001 5.2101C50.9901 5.0001 51.1101 4.8601 51.3201 4.7701C52.1301 4.4201 52.9601 4.3301 53.8201 4.5201C54.1501 4.5901 54.2101 4.7001 54.0701 5.0201C52.6201 8.5101 51.1801 12.0001 49.7401 15.4901C49.2801 16.6001 48.8101 17.7101 48.3701 18.8301C48.1701 19.3301 47.7201 19.4201 47.3101 19.5901C47.1201 19.6701 47.1201 19.4301 47.0701 19.3201C46.3201 17.5401 45.5901 15.7501 44.8401 13.9701C43.5901 10.9601 42.3301 7.9401 41.0801 4.9301C41.0201 4.8001 40.9301 4.6701 40.9501 4.4801C41.6401 4.6601 42.2401 4.9801 42.7801 5.4101C42.8801 5.4901 42.9201 5.6501 42.9701 5.7701C44.2101 8.7601 45.4501 11.7501 46.7001 14.7401C46.7401 14.8301 46.7401 14.9401 46.8801 15.0001L46.9001 14.9901Z" fill="#D68F41"/>
<path d="M1.5 10.03C1.5 13.14 1.5 16.25 1.5 19.36C1.5 19.81 1.5 19.81 1.06 19.65C0.353333 19.3967 0 18.9034 0 18.17C0 12.54 0.01 6.91002 0 1.29002C0 0.970025 0.11 0.800025 0.38 0.640025C1.5 0.0200246 1.5 0.0100245 1.5 1.27002V10.03Z" fill="#D68F41"/>
<path d="M44.09 19.8201C43.55 19.6901 43.04 19.4901 42.57 19.1901C42.47 19.1201 42.44 19.0101 42.4 18.9101C40.51 14.3701 38.63 9.8201 36.73 5.2801C36.63 5.0401 36.65 4.9101 36.9 4.8301C37.15 4.7501 37.4 4.6501 37.63 4.5401C37.88 4.4201 37.98 4.5201 38.07 4.7501C40.06 9.5501 42.05 14.3501 44.04 19.1401C44.11 19.3001 44.17 19.4601 44.24 19.6301C44.31 19.8001 44.26 19.8701 44.08 19.8301L44.09 19.8201Z" fill="#D68F41"/>
<path d="M74.21 4.06006V4.44006C74.21 9.42006 74.21 14.4001 74.21 19.3901C74.21 19.6767 74.0733 19.7701 73.8 19.6701C72.74 19.2901 72.73 19.2801 72.73 18.1501C72.73 13.8201 72.73 9.49006 72.73 5.17006C72.73 4.81006 72.83 4.58006 73.16 4.44006C73.49 4.29006 73.81 4.12006 74.21 4.06006Z" fill="#D68F41"/>
<path d="M3.24003 9.98998C3.24003 13.16 3.24003 16.34 3.24003 19.51C3.24003 19.66 3.34003 19.88 3.12003 19.93C2.89003 19.99 2.65003 19.98 2.41003 19.93C2.35003 19.91 2.35003 19.83 2.35003 19.77C2.35003 19.68 2.35003 19.59 2.35003 19.51C2.35003 13.18 2.35003 6.83998 2.35003 0.509984C2.35003 0.359984 2.25003 0.129984 2.44003 0.0699842C2.66003 -0.0100158 2.92003 -1.57654e-05 3.15003 0.0699842C3.32003 0.129984 3.24003 0.309984 3.24003 0.439984C3.24003 3.62998 3.24003 6.80998 3.24003 9.99998V9.98998Z" fill="#D68F41"/>
<path d="M39.4501 4.25005C39.7901 4.15005 39.9501 4.35005 40.1001 4.71005C42.1301 9.63005 44.1801 14.5401 46.2201 19.4601C46.3901 19.8701 46.3901 19.8701 45.9701 19.9401C45.5568 20.0001 45.2734 19.8401 45.1201 19.4601C43.0901 14.5801 41.0601 9.70005 39.0301 4.82005C38.8701 4.44005 39.0134 4.25005 39.4601 4.25005H39.4501Z" fill="#D68F41"/>
<path d="M75.94 11.9401C75.94 14.4801 75.93 17.0301 75.95 19.5701C75.95 19.9901 75.75 19.9701 75.47 19.9701C75.2 19.9701 75.02 19.9801 75.02 19.5901C75.04 14.4801 75.04 9.37006 75.02 4.26006C75.02 3.88006 75.19 3.87006 75.47 3.88006C75.76 3.88006 75.95 3.88006 75.95 4.28006C75.93 6.84006 75.94 9.39006 75.94 11.9501V11.9401Z" fill="#D68F41"/>
<path d="M48.32 29.1399C48.61 29.0699 48.79 29.1399 48.97 29.3799C49.36 29.9299 49.95 29.9499 50.54 29.8299C51.08 29.7199 51.38 29.3199 51.45 28.7199C51.47 28.5499 51.45 28.3799 51.45 28.1399C50.98 28.6399 50.46 28.8999 49.82 28.8099C49.39 28.7499 49.04 28.5399 48.75 28.2199C48.06 27.4499 48.09 26.1099 48.81 25.3499C49.53 24.5899 50.34 24.6099 51.46 25.4699C51.46 25.3099 51.46 25.1799 51.46 25.0399C51.46 24.8599 51.57 24.8799 51.69 24.8799C51.81 24.8799 51.92 24.8799 51.91 25.0399C51.88 26.2999 52 27.5599 51.85 28.8099C51.74 29.7699 51.22 30.2399 50.32 30.3299C49.36 30.4299 48.67 30.0299 48.31 29.1199L48.32 29.1399ZM51.48 26.8599C51.48 26.0099 51.04 25.3999 50.33 25.2699C49.67 25.1599 49 25.5999 48.8 26.3299C48.62 26.9799 48.7 27.5799 49.24 28.0499C49.68 28.4199 50.18 28.4599 50.69 28.2399C51.27 27.9799 51.49 27.4699 51.49 26.8599H51.48Z" fill="#D68F41"/>
<path d="M85.7 25.0501C85.58 25.2501 85.47 25.3001 85.27 25.2801C84.97 25.2601 84.77 25.4901 84.65 25.7501C84.43 26.1901 84.45 26.6801 84.43 27.1501C84.41 27.6201 84.43 28.0801 84.43 28.5501C84.43 28.7001 84.43 28.8101 84.22 28.8201C84.01 28.8201 83.97 28.7301 83.97 28.5501C83.97 27.4401 83.97 26.3301 83.97 25.2301C83.97 25.0701 83.9 24.8701 84.2 24.8701C84.52 24.8701 84.39 25.0901 84.42 25.2301C84.42 25.2501 84.42 25.2801 84.43 25.3001C84.54 25.3401 84.55 25.2401 84.59 25.1901C84.94 24.7801 85.58 24.6401 86.06 24.8801C86.17 24.9401 86.18 25.0701 86.22 25.1701C86.58 26.0701 86.94 26.9601 87.32 27.9201C87.69 26.9801 88.06 26.1001 88.38 25.2001C88.49 24.9001 88.64 24.8001 88.97 24.9101C88.74 25.5001 88.5 26.0901 88.27 26.6801C87.84 27.7801 87.41 28.8801 86.98 29.9701C86.93 30.1001 86.92 30.2401 86.72 30.2401C86.5 30.2401 86.36 30.2201 86.51 29.9601C86.51 29.9501 86.51 29.9301 86.52 29.9201C87.14 28.9501 87.01 28.0101 86.5 27.0301C86.18 26.4101 85.97 25.7401 85.68 25.0301L85.7 25.0501Z" fill="#D68F41"/>
<path d="M38.3201 25.4099C39.3701 24.4999 40.0701 24.5799 40.6201 25.6699C40.7001 25.5499 40.7801 25.4399 40.8601 25.3299C41.2001 24.8999 41.6501 24.6899 42.1901 24.8199C42.7301 24.9499 42.9901 25.3799 43.0601 25.8999C43.1701 26.7999 43.1001 27.7099 43.1101 28.6199C43.1101 28.7899 43.0201 28.8199 42.8701 28.8299C42.7001 28.8299 42.6601 28.7499 42.6601 28.5999C42.6601 28.0299 42.6601 27.4699 42.6601 26.8999C42.6601 26.6199 42.6501 26.3499 42.6201 26.0699C42.5601 25.3799 41.9101 25.0599 41.3201 25.4299C40.9101 25.6899 40.7601 26.0899 40.7201 26.5499C40.6601 27.1999 40.6901 27.8599 40.6801 28.5099C40.6801 28.6799 40.6901 28.8399 40.4401 28.8299C40.1901 28.8299 40.2401 28.6599 40.2301 28.5199C40.2101 27.7299 40.2601 26.9299 40.2001 26.1399C40.1701 25.7699 40.0401 25.4799 39.6801 25.3399C39.3001 25.1899 38.9901 25.3399 38.7201 25.5899C38.3001 25.9799 38.2901 26.5099 38.2801 27.0199C38.2601 27.5099 38.2801 27.9999 38.2801 28.4899C38.2801 28.6399 38.3401 28.8299 38.0601 28.8299C37.7901 28.8299 37.8301 28.6599 37.8301 28.4999C37.8301 27.3999 37.8301 26.3099 37.8301 25.2099C37.8301 25.0599 37.7801 24.8799 38.0501 24.8699C38.3201 24.8699 38.2701 25.0399 38.2801 25.1899C38.2801 25.2599 38.2501 25.3399 38.3201 25.3999V25.4099Z" fill="#D68F41"/>
<path d="M73.91 25.5201C74.29 25.1101 74.65 24.8301 75.15 24.8001C76.31 24.7201 77.22 25.7501 77.12 27.0201C77.02 28.2601 76.1 29.0701 75 28.8901C74.55 28.8201 74.24 28.5401 73.96 28.2001C73.88 28.3401 73.91 28.4701 73.92 28.5801C73.92 28.7501 73.88 28.8201 73.69 28.8201C73.5 28.8201 73.46 28.7401 73.46 28.5701C73.46 26.9101 73.46 25.2501 73.46 23.5901C73.46 23.4101 73.52 23.3601 73.7 23.3501C73.9 23.3501 73.92 23.4401 73.92 23.6001C73.92 24.2001 73.92 24.8001 73.92 25.5001L73.91 25.5201ZM75.3 28.4401C75.54 28.4601 75.77 28.3801 75.98 28.2301C76.57 27.8101 76.73 27.2201 76.63 26.5401C76.52 25.7801 75.87 25.2101 75.2 25.2601C74.43 25.3201 73.89 26.0001 73.9 26.9101C73.91 27.7401 74.46 28.4001 75.16 28.4401C75.2 28.4401 75.24 28.4401 75.3 28.4401Z" fill="#D68F41"/>
<path d="M47.08 28.17C46.73 28.55 46.42 28.8 46.01 28.88C45.23 29.03 44.51 28.71 44.11 27.98C43.7 27.23 43.7 26.47 44.11 25.72C44.73 24.62 46.22 24.44 47.02 25.51C47.11 25.38 47.07 25.24 47.07 25.12C47.07 24.94 47.12 24.88 47.3 24.88C47.49 24.88 47.53 24.96 47.53 25.13C47.53 26.27 47.53 27.42 47.53 28.56C47.53 28.74 47.5 28.83 47.29 28.83C47.08 28.83 47.07 28.72 47.08 28.57C47.08 28.47 47.08 28.38 47.08 28.18V28.17ZM47.08 26.85C47.08 26.13 46.71 25.53 46.13 25.33C45.4 25.07 44.64 25.47 44.36 26.25C44.06 27.1 44.46 28.08 45.23 28.36C46.16 28.7 47.08 27.96 47.08 26.85Z" fill="#D68F41"/>
<path d="M82.8299 28.1799C82.4899 28.5499 82.1799 28.7999 81.7699 28.8799C80.9899 29.0399 80.2699 28.7199 79.8599 27.9899C79.4399 27.2299 79.4399 26.4599 79.8699 25.6899C80.3699 24.7999 81.7499 24.2799 82.7799 25.4899C82.8599 25.3699 82.8199 25.2499 82.8199 25.1299C82.8199 24.9699 82.8299 24.8799 83.0399 24.8699C83.2599 24.8699 83.2799 24.9699 83.2799 25.1399C83.2799 26.2599 83.2799 27.3799 83.2799 28.4999C83.2799 28.6599 83.3199 28.8199 83.0499 28.8199C82.7699 28.8199 82.8299 28.6499 82.8299 28.4899C82.8299 28.4199 82.8299 28.3399 82.8299 28.1699V28.1799ZM82.8299 26.8599C82.8299 26.1399 82.4599 25.5399 81.8799 25.3399C81.1499 25.0799 80.3899 25.4799 80.1099 26.2599C79.8099 27.1099 80.2099 28.0899 80.9799 28.3699C81.9199 28.7099 82.8299 27.9699 82.8299 26.8599Z" fill="#D68F41"/>
<path d="M66.92 26.8801C66.51 26.8801 66.09 26.9001 65.68 26.8801C65.4 26.8701 65.33 26.9701 65.37 27.2301C65.47 27.8001 65.89 28.3001 66.39 28.4201C66.95 28.5501 67.53 28.3101 67.89 27.7901C67.97 27.6801 67.99 27.4401 68.24 27.6101C68.38 27.7001 68.42 27.7701 68.34 27.9401C67.79 29.1001 66.13 29.2801 65.36 28.2601C64.74 27.4501 64.73 26.2901 65.34 25.4901C65.78 24.9101 66.37 24.7001 67.07 24.8201C67.8 24.9501 68.23 25.4401 68.45 26.1201C68.68 26.8301 68.63 26.8801 67.9 26.8801C67.57 26.8801 67.25 26.8801 66.92 26.8801ZM66.71 26.4501C67.06 26.4501 67.41 26.4501 67.77 26.4501C68.01 26.4501 68.04 26.3701 67.97 26.1601C67.78 25.6301 67.28 25.2501 66.71 25.2501C66.15 25.2501 65.65 25.6301 65.47 26.1801C65.41 26.3701 65.43 26.4601 65.66 26.4501C66.01 26.4401 66.36 26.4501 66.72 26.4501H66.71Z" fill="#D68F41"/>
<path d="M55.8201 25.5001C55.9101 25.3701 55.8801 25.2701 55.8801 25.1701C55.8801 25.0201 55.8501 24.8701 56.1001 24.8701C56.3201 24.8701 56.3401 24.9801 56.3401 25.1501C56.3401 26.2701 56.3401 27.3901 56.3401 28.5101C56.3401 28.6601 56.3701 28.8101 56.1301 28.8201C55.8701 28.8201 55.8901 28.6701 55.8901 28.5001C55.8901 28.4301 55.9101 28.3501 55.8201 28.2601C55.4201 28.6801 54.9401 28.9501 54.3401 28.9101C53.3601 28.8401 52.6101 27.9201 52.6101 26.8301C52.6101 25.6501 53.5101 24.7401 54.6101 24.7901C55.1201 24.8201 55.5001 25.0901 55.8301 25.5001H55.8201ZM54.4801 25.2601C53.6901 25.2601 53.0501 25.9901 53.0501 26.8601C53.0501 27.7401 53.6901 28.4501 54.4801 28.4501C55.2901 28.4501 55.9001 27.7501 55.9001 26.8601C55.9001 25.9601 55.2701 25.2601 54.4801 25.2701V25.2601Z" fill="#D68F41"/>
<path d="M61.5999 25.51C61.9699 25.1 62.3299 24.8 62.8499 24.79C63.5299 24.79 64.0399 25.2 64.1499 25.91C64.2899 26.81 64.1999 27.72 64.2299 28.62C64.2299 28.8 64.1399 28.82 63.9899 28.82C63.8299 28.82 63.7699 28.77 63.7699 28.6C63.7699 28 63.7699 27.39 63.7699 26.79C63.7699 26.55 63.7499 26.31 63.7099 26.08C63.5999 25.34 62.9299 25.02 62.2799 25.41C61.8199 25.69 61.6099 26.12 61.5899 26.64C61.5699 27.26 61.5899 27.87 61.5699 28.49C61.5699 28.64 61.6299 28.82 61.3499 28.83C61.0499 28.83 61.1099 28.64 61.1099 28.48C61.1099 27.41 61.1099 26.34 61.1099 25.27C61.1099 25.11 60.9899 24.87 61.3399 24.88C61.6799 24.88 61.5299 25.13 61.5599 25.28C61.5699 25.33 61.5599 25.38 61.5799 25.51H61.5999Z" fill="#D68F41"/>
<path d="M58.74 25.32C58.18 25.32 57.69 25.32 57.21 25.32C57.05 25.32 56.91 25.33 56.91 25.1C56.91 24.86 57.04 24.88 57.2 24.88C57.94 24.88 58.68 24.88 59.51 24.88C58.84 26.06 58.19 27.19 57.5 28.39C58.02 28.39 58.48 28.39 58.94 28.39C59.04 28.39 59.14 28.39 59.24 28.39C59.39 28.39 59.46 28.45 59.47 28.61C59.47 28.79 59.38 28.81 59.23 28.81C58.43 28.81 57.62 28.81 56.74 28.81C57.41 27.64 58.05 26.51 58.74 25.31V25.32Z" fill="#D68F41"/>
<path d="M78.16 25.3601C78.44 25.0301 78.7 24.7401 79.14 24.8101C79.25 24.8301 79.44 24.8201 79.39 25.0001C79.35 25.1301 79.33 25.3501 79.09 25.3101C78.69 25.2401 78.49 25.4901 78.33 25.7901C78.17 26.1001 78.14 26.4401 78.14 26.7801C78.14 27.3701 78.14 27.9601 78.14 28.5501C78.14 28.7201 78.13 28.8301 77.91 28.8401C77.67 28.8401 77.69 28.7101 77.69 28.5501C77.69 27.4401 77.69 26.3401 77.69 25.2301C77.69 25.0901 77.61 24.9001 77.89 24.8901C78.18 24.8801 78.13 25.0601 78.14 25.2301C78.14 25.2601 78.15 25.3001 78.17 25.3801L78.16 25.3601Z" fill="#D68F41"/>
<path d="M71.3701 26.0999C71.3701 26.9099 71.3701 27.7099 71.3701 28.5199C71.3701 28.6699 71.3901 28.8199 71.1501 28.8199C70.9201 28.8199 70.9201 28.6899 70.9201 28.5299C70.9201 26.9099 70.9201 25.2799 70.9201 23.6599C70.9201 23.5099 70.9001 23.3599 71.1401 23.3599C71.4101 23.3599 71.3701 23.5299 71.3701 23.6899C71.3701 24.4999 71.3701 25.2999 71.3701 26.1099V26.0999Z" fill="#D68F41"/>
<path d="M60.3001 26.8599C60.3001 27.4299 60.3001 27.9899 60.3001 28.5599C60.3001 28.7099 60.3001 28.8199 60.0901 28.8199C59.8701 28.8199 59.8501 28.7299 59.8501 28.5499C59.8501 27.4199 59.8501 26.2799 59.8501 25.1499C59.8501 24.9799 59.8501 24.8699 60.0801 24.8699C60.3201 24.8699 60.3001 24.9999 60.3001 25.1599C60.3001 25.7299 60.3001 26.2899 60.3001 26.8599Z" fill="#D68F41"/>
<path d="M72.1299 26.8399C72.1299 26.2699 72.1299 25.7099 72.1299 25.1399C72.1299 24.9899 72.1299 24.8699 72.3399 24.8699C72.5599 24.8699 72.5799 24.9799 72.5799 25.1499C72.5799 26.2799 72.5799 27.4099 72.5799 28.5499C72.5799 28.6999 72.5799 28.8199 72.3699 28.8199C72.1499 28.8199 72.1299 28.7099 72.1299 28.5399C72.1299 27.9699 72.1299 27.4099 72.1299 26.8399Z" fill="#D68F41"/>
<path d="M60.08 24.11C59.86 24.07 59.71 23.95 59.7 23.71C59.7 23.47 59.8 23.29 60.06 23.28C60.3 23.28 60.4199 23.43 60.4399 23.66C60.4599 23.91 60.31 24.05 60.07 24.11H60.08Z" fill="#D68F41"/>
<path d="M72.7301 23.68C72.7101 23.93 72.5901 24.11 72.3301 24.09C72.1001 24.08 71.9801 23.9 71.9901 23.68C71.9901 23.44 72.1101 23.27 72.3801 23.28C72.6301 23.29 72.7101 23.47 72.7301 23.68Z" fill="#D68F41"/>
<path d="M125.8 24.1099V25.3999H116.39V27.5299H113.93L113.96 12.8499C113.57 13.4699 113.18 14.0799 112.76 14.6399L111.97 14.0499C112.31 13.3499 112.61 12.6799 112.87 11.9799L111.55 13.1799C111.13 12.3099 110.63 11.3899 110.01 10.5199C109.51 11.5799 108.86 12.6199 108.19 13.5499H108.67V16.1799H113.32V17.4399H108.67V18.4499C110.35 19.3999 111.95 20.3799 113.13 21.4999L111.48 23.3499C110.7 22.1699 109.52 20.7699 108.68 19.7899V27.6899H106.27V20.3499C105.21 21.9499 103.33 24.1299 101.03 25.7799L100.44 24.9699C102.46 22.9499 104.36 20.4899 105.68 17.4299H101.06V16.1699H106.27V13.5399H107C108.15 11.4699 108.74 8.91989 109.04 6.36989L111.31 6.92989C111.17 7.68989 110.89 8.49989 110.55 9.36989C111.53 10.0099 112.43 10.7099 113.07 11.4699C114.05 8.60989 114.39 5.58989 114.81 1.49989L117.36 1.99989C117.19 3.84989 116.86 5.63989 116.35 7.34989H125.45V8.60989H121.53V12.3599H124.75V13.6199H121.53V17.9899H124.78V19.2499H121.53V24.0999H125.82L125.8 24.1099ZM101.48 14.8099L100.72 14.1699C102.04 12.0399 103.02 8.98989 103.52 6.26989L105.79 6.79989C105.65 7.49989 105.34 8.30989 104.98 9.17989C106.04 9.90989 106.97 10.6899 107.67 11.5099L106.07 13.0199C105.62 12.1199 105.09 11.1699 104.5 10.2499C103.66 11.9599 102.54 13.6999 101.47 14.8199L101.48 14.8099ZM113.25 6.06989H101.18V4.80989H107.43C106.42 3.73989 105.41 2.87989 104.35 2.00989L104.74 1.13989C106.31 1.58989 108.21 2.39989 109.39 3.23989L108.27 4.80989H113.26V6.06989H113.25ZM119.11 8.61989H116.39V12.3699H119.11V8.61989ZM119.11 13.6299H116.39V17.9999H119.11V13.6299ZM119.11 19.2599H116.39V24.1099H119.11V19.2599ZM119.84 6.95989C119.62 5.80989 118.97 3.36989 118.38 1.80989L119.28 1.35989C120.43 2.61989 121.63 4.80989 122.14 6.08989L119.84 6.95989Z" fill="#D68F41"/>
<path d="M138.71 7.5198H129.38V6.2598H133.67C132.75 4.6598 131.71 2.9298 131.06 1.9998L131.76 1.2998C133.08 2.1698 134.93 3.6798 136.07 5.1398L134.61 6.2598H138.7V7.5198H138.71ZM130.19 11.3298V10.1498H138.06V11.3298H130.19ZM138.06 15.1998H130.19V14.0198H138.06V15.1998ZM140.81 17.7998L141.79 17.9998C141.62 20.9698 140.98 23.4398 139.69 25.1398L137.81 23.7398V27.1298H135.68V25.4798H132.46V27.5198H130.27V17.9098H137.81V23.4598C139.24 21.9998 140.33 20.3198 140.81 17.7998ZM135.65 19.1498H132.46V24.2498H135.65V19.1498ZM145.06 7.5198H139.29V6.2598H145.06V1.5598H147.58V6.2698H153.46V7.52981H147.58V12.3798H153.1V13.6398H139.88V12.3798H145.06V7.52981V7.5198ZM150.05 20.5498C151.34 25.1398 151.56 26.9398 147.19 26.9398C143.1 26.9398 142.54 26.6298 142.54 23.6098V16.3298H145.01V23.1698C145.01 24.2898 145.26 24.6498 147.03 24.6498C149.05 24.6498 149.08 24.2898 149.05 20.5598H150.06L150.05 20.5498ZM144.56 13.7098C145.93 14.2998 148.48 15.6998 149.55 16.7898L147.9 18.6698C146.92 17.4398 145.15 15.5598 144.06 14.5198L144.56 13.7098ZM154.48 22.6998L152.27 23.7898C151.57 21.5498 150.84 19.6198 149.92 17.7098L150.71 17.1798C152.28 18.7998 153.57 20.6798 154.49 22.6998H154.48Z" fill="#D68F41"/>
<path d="M159.29 2.78979H181.14V27.4398H178.67V26.0998H161.75V27.5298H159.28V2.78979H159.29ZM178.68 24.8398V4.0498H161.76V24.8398H178.68ZM162.35 11.1098H169.02V9.53979H164.82V5.24979H175.41V9.53979H171.43V11.1098H178.13V12.3698H162.36V11.1098H162.35ZM163.39 13.7198H176.98V23.1898H163.39V13.7198ZM174.62 21.9298V14.9798H165.74V21.9298H174.62ZM173.11 8.36979V6.4398H167.11V8.36979H173.11ZM167.17 16.1298H173.17V20.4998H167.17V16.1298ZM171.15 19.4398V17.1998H169.19V19.4398H171.15Z" fill="#D68F41"/>
<path d="M199.99 11.0299V12.6299H208.79V13.8399H199.99V15.5999H210.75V16.8599H187.08V15.5999H197.42V13.8399H188.79V12.6299H197.42V11.0299H189.55V9.76989H197.42V7.91989H186.75V6.65989H197.42V5.00989H189.88V3.74989H197.42V1.38989H200V3.73989H207.68V6.64989H211.1V7.90989H207.68V11.0199H200L199.99 11.0299ZM190.41 18.5399H207.33V27.4499H204.86V26.0799H192.87V27.5399H190.4V18.5499L190.41 18.5399ZM192.88 21.6499H204.87V19.7699H192.88V21.6499ZM192.88 24.8399H204.87V22.8499H192.88V24.8399ZM200 6.65989H205.27V5.00989H200V6.65989ZM200 9.76989H205.27V7.91989H200V9.76989Z" fill="#D68F41"/>
<path d="M229.8 15.8998V18.8398H238.18V27.2998H235.77V25.3098H229.8V27.6398H227.39V10.5198H225.96V7.06978L224.34 8.24978C223.75 6.98978 222.86 5.52978 221.79 4.07978C221.45 4.69978 221.09 5.27978 220.67 5.83978C221.62 6.56978 222.66 7.57978 223.36 8.46978L221.54 9.78978C221.06 8.74978 220.5 7.68978 219.97 6.81978C218.54 8.66978 216.92 10.2398 215.52 11.1298L214.93 10.3198C217.23 8.01977 218.99 4.93978 220.17 1.26978L222.75 2.16978C222.61 2.50978 222.47 2.83978 222.3 3.14978C223.81 4.20978 225.13 5.33978 225.97 6.42978V5.55978H232.5C231.44 4.40978 230.01 3.20978 228.86 2.16978L229.34 1.29978C230.91 1.88978 232.67 2.69978 234.44 3.90978L233.18 5.55978H239.12V10.6598H237.3V15.8998H229.82H229.8ZM226.94 25.1498L224.61 26.4098C224.33 25.5398 223.94 24.5298 223.46 23.5198C221.19 25.0298 218.11 26.1298 216.15 26.6598L215.31 24.0498C215.95 23.9698 216.74 23.8498 217.55 23.7098V10.0398H225.39V18.4198H219.84V23.2698C220.93 23.0498 222.03 22.7698 222.98 22.4598C222.53 21.5398 222.06 20.6398 221.61 19.8798L222.34 19.3198C224.11 21.0298 226.07 23.5198 226.93 25.1498H226.94ZM219.85 11.3098V13.5198H223.1V11.3098H219.85ZM223.1 17.1698V14.7898H219.85V17.1698H223.1ZM236.86 9.88978V6.83978H228.2V9.88978H236.86ZM234.98 11.1498H229.8V14.6498H234.98V11.1498ZM229.8 20.1098V24.0598H235.77V20.1098H229.8Z" fill="#D68F41"/>
</svg>
