<svg width="282" height="87" viewBox="0 0 282 87" fill="none" xmlns="http://www.w3.org/2000/svg">
<path d="M253.36 75.8501H249.03V75.0101H251.04C250.87 74.5901 250.53 73.9401 250.22 73.4801L251.05 73.0601C251.36 73.5401 251.73 74.1401 251.89 74.5501L251.06 75.0101H253.36V75.8501ZM252.88 77.0201C254.06 76.3601 254.24 75.5001 254.24 74.7401V73.5201H257.82V76.0701C257.82 76.3901 257.84 76.5001 257.99 76.5001H258.57C258.71 76.5001 258.95 76.4801 259.08 76.4301C259.1 76.7001 259.12 77.0801 259.16 77.3101C259.02 77.3701 258.79 77.3801 258.57 77.3801H257.9C257.03 77.3801 256.85 77.0101 256.85 76.0301V74.4901H255.21V74.7601C255.21 75.8001 254.9 77.0301 253.53 77.8201C253.41 77.6201 253.09 77.2501 252.9 77.0701V77.3401H249.52V76.5101H252.89V77.0101L252.88 77.0201ZM258.8 78.2901C258.42 79.6601 257.75 80.7301 256.9 81.5701C257.63 82.0101 258.48 82.3401 259.42 82.5401C259.2 82.7601 258.91 83.2001 258.76 83.4901C257.73 83.2301 256.83 82.8101 256.05 82.2501C255.24 82.8201 254.31 83.2201 253.33 83.5201C253.24 83.2801 253.07 82.9501 252.9 82.7001V82.8601H250.43V83.3701H249.52V79.5401H252.9V82.5601C253.74 82.3501 254.53 82.0201 255.24 81.5601C254.58 80.9101 254.04 80.1301 253.63 79.2401L254.24 79.0201H253.22V78.0301H257.98L258.16 78.0001L258.81 78.2801L258.8 78.2901ZM249.51 78.0301H252.9V78.8501H249.51V78.0301ZM251.97 80.4001H250.42V82.0201H251.97V80.4001ZM254.55 79.0301C254.9 79.7701 255.4 80.4001 256.04 80.9501C256.63 80.4201 257.12 79.7801 257.47 79.0301H254.56H254.55Z" fill="black"/>
<path d="M265.25 75.8501H260.57V75.0101H262.67C262.5 74.5901 262.16 73.9401 261.85 73.4801L262.68 73.0601C263 73.5401 263.36 74.1401 263.53 74.5501L262.69 75.0101H265.25V75.8501ZM261.05 77.3501V76.5201H264.77V77.3501H261.05ZM264.73 78.8401H261.05V78.0201H264.73V78.8401ZM264.78 82.8801H262.02V83.3901H261.11V79.5601H264.77V82.8801H264.78ZM262.02 80.4101V82.0301H263.86V80.4101H262.02ZM270.63 77.9901H268.41V83.5301H267.32V77.9901H265.22V76.9601H267.32V73.3401H268.41V76.9601H270.63V77.9901Z" fill="black"/>
<path d="M273.03 78.9301H275.65V82.4101H273.03V83.1601H272.09V74.7901H273.03C273.2 74.2601 273.36 73.6001 273.44 73.1001L274.6 73.2401C274.41 73.7601 274.19 74.3301 273.98 74.7901H275.56V78.0201H273.04V78.9301H273.03ZM274.61 75.6901H273.03V77.1301H274.61V75.6901ZM273.03 79.8401V81.5201H274.71V79.8401H273.03ZM279.42 74.6401V75.8601H281.64V80.7901C281.64 81.2301 281.57 81.5201 281.29 81.6701C281 81.8201 280.61 81.8301 280.02 81.8301C279.99 81.5701 279.87 81.1701 279.75 80.9201C280.1 80.9301 280.42 80.9301 280.52 80.9201C280.63 80.9201 280.67 80.8901 280.67 80.7701V76.7901H279.42V83.4901H278.43V76.7901H277.28V81.8001H276.32V75.8501H278.43V74.6301H275.92V73.6701H281.95V74.6301H279.41L279.42 74.6401Z" fill="black"/>
<path d="M104.61 77.0699C104.44 78.6799 104.13 80.0199 103.67 81.0799C104.75 82.0899 106.24 82.3199 108.04 82.3199C108.57 82.3199 110.95 82.3199 111.61 82.3099C111.46 82.5399 111.28 82.9899 111.23 83.2699H108.02C106.01 83.2699 104.43 83.0099 103.25 81.9399C102.88 82.5799 102.43 83.0699 101.92 83.4699C101.77 83.2699 101.39 82.9099 101.16 82.7699C101.72 82.3799 102.19 81.8499 102.57 81.1599C102.17 80.5899 101.84 79.8799 101.57 78.9899L102.35 78.6999C102.53 79.2999 102.73 79.7999 103 80.2299C103.25 79.5499 103.44 78.7599 103.57 77.8599H101.76C102.24 77.0299 102.84 75.8099 103.32 74.6999H101.47V73.7799H104.78C104.33 74.7799 103.76 75.9699 103.27 76.9399H103.84L104.03 76.9099L104.62 77.0699H104.61ZM107.24 74.8699H105.19V74.0399H107.24V73.1599H108.23V74.0399H110.69V75.5499H111.39V76.3799H110.69V77.8999H108.23V78.5999H110.86V79.3899H108.23V80.1499H111.25V80.9999H108.23V81.9599H107.24V80.9999H104.59V80.1499H107.24V79.3899H105.04V78.5999H107.24V77.8999H105.12V77.0699H107.24V76.3799H104.51V75.5499H107.24V74.8699ZM108.23 74.8699V75.5499H109.75V74.8699H108.23ZM109.75 76.3799H108.23V77.0699H109.75V76.3799Z" fill="black"/>
<path d="M114.4 74.56C114.05 75.02 113.64 75.46 113.25 75.78C113.1 75.6 112.75 75.24 112.55 75.07C113.22 74.56 113.88 73.79 114.24 73.01L115.17 73.3C115.1 73.45 115.02 73.59 114.94 73.74H117.63V74.56H115.68C116 74.85 116.34 75.23 116.52 75.47L115.81 76.04C115.62 75.73 115.19 75.26 114.86 74.92L115.34 74.57H114.41L114.4 74.56ZM116.54 81.39C115.83 82.25 114.57 83 113.38 83.35C113.22 83.09 112.92 82.7 112.68 82.49C113.81 82.24 115.05 81.7 115.67 81.06L116.54 81.39ZM118.23 80.05H122.8V80.89H118.23V83.5H117.22V80.89H112.7V80.05H117.22V79.45C117.05 79.29 116.82 79.09 116.67 78.99C117.35 78.75 117.76 78.47 118.02 78.17C117.66 78 117.31 77.83 116.99 77.69L117.38 77.08C117.67 77.19 118.01 77.34 118.35 77.49C118.37 77.37 118.38 77.24 118.38 77.12V76.77H117.18V76.04H121.27V78.31C121.27 78.5 121.27 78.62 121.32 78.66C121.35 78.69 121.41 78.7 121.47 78.7H121.72C121.79 78.7 121.86 78.69 121.9 78.67C121.93 78.64 121.98 78.57 122 78.43C122.02 78.31 122.03 77.99 122.04 77.6C122.22 77.75 122.52 77.89 122.75 77.97C122.73 78.39 122.68 78.87 122.61 79.04C122.54 79.22 122.43 79.35 122.27 79.43C122.13 79.51 121.91 79.53 121.73 79.53H121.2C120.96 79.53 120.68 79.46 120.52 79.31C120.34 79.15 120.28 78.94 120.28 78.29V76.76H119.25V77.13C119.25 77.37 119.23 77.62 119.16 77.86C119.56 78.04 119.91 78.22 120.17 78.37L119.78 79.07C119.54 78.92 119.2 78.75 118.83 78.56C118.61 78.85 118.31 79.13 117.88 79.35H118.23V80.04V80.05ZM112.75 78.66C113.2 78.6 113.76 78.54 114.37 78.46V76.87H112.89V76.11H116.78V76.87H115.34V78.33C115.8 78.26 116.3 78.19 116.78 78.13L116.81 78.93C115.42 79.15 113.96 79.35 112.88 79.51L112.76 78.66H112.75ZM122.87 73.76V74.58H120.65C120.94 74.85 121.25 75.17 121.41 75.41L120.66 75.95C120.47 75.66 120.07 75.21 119.73 74.88L120.19 74.57H119.04C118.73 75.03 118.37 75.45 118.01 75.77C117.84 75.6 117.45 75.28 117.23 75.14C117.89 74.63 118.47 73.85 118.77 73.02L119.73 73.27C119.66 73.44 119.59 73.59 119.51 73.76H122.85H122.87ZM119.63 80.98C120.62 81.4 121.93 82.05 122.62 82.52L121.87 83.27C121.24 82.79 119.93 82.09 118.92 81.65L119.62 80.98H119.63Z" fill="black"/>
<path d="M125.27 78.9301H127.89V82.4101H125.27V83.1601H124.33V74.7901H125.27C125.44 74.2601 125.6 73.6001 125.68 73.1001L126.84 73.2401C126.65 73.7601 126.43 74.3301 126.22 74.7901H127.8V78.0201H125.28V78.9301H125.27ZM126.85 75.6901H125.27V77.1301H126.85V75.6901ZM125.27 79.8401V81.5201H126.95V79.8401H125.27ZM131.66 74.6401V75.8601H133.88V80.7901C133.88 81.2301 133.81 81.5201 133.53 81.6701C133.24 81.8201 132.85 81.8301 132.26 81.8301C132.23 81.5701 132.11 81.1701 131.99 80.9201C132.34 80.9301 132.66 80.9301 132.76 80.9201C132.87 80.9201 132.91 80.8901 132.91 80.7701V76.7901H131.66V83.4901H130.67V76.7901H129.53V81.8001H128.57V75.8501H130.68V74.6301H128.17V73.6701H134.2V74.6301H131.66V74.6401Z" fill="black"/>
<path d="M143.13 73.5801H144.04L140.89 84.6701H139.98L143.13 73.5801Z" fill="#D68F41"/>
<path d="M161.71 66.2801C162 66.5301 162.16 66.7201 162.37 66.8301C163.75 67.5501 164.63 68.7701 164.55 70.2201C164.47 71.8801 163.01 72.7001 161.6 73.3301C161.2 73.5101 160.71 73.6001 160.27 73.5701C159.43 73.5101 159.28 73.9701 159.44 74.6001C159.82 76.0901 159.54 77.6101 159.69 79.1001C159.78 79.9701 159.79 80.8501 159.82 81.7301C159.83 82.1001 159.98 82.5901 159.4 82.6301C158.8 82.6601 158.88 82.1401 158.78 81.7301C158.44 80.2701 158.61 78.8001 158.6 77.3301C158.58 75.4301 158.2 73.5901 157.84 71.7401C157.74 71.2201 157.4 70.4501 158.1 70.3001C158.74 70.1701 158.86 71.0101 158.97 71.5201C159.27 72.8901 159.57 73.0701 160.84 72.5101C161.55 72.1901 162.2 71.7801 162.74 71.2201C163.86 70.0501 163.62 68.4301 162.16 67.7401C161.45 67.4001 160.72 67.0101 159.87 67.0501C159.4 67.0701 159.02 66.9101 159 66.3601C158.98 65.7701 159.46 66.0001 159.76 65.9301C161.84 65.4201 163.81 64.6201 165.58 63.4101C166.58 62.7301 166.52 62.2901 165.37 61.8801C163.63 61.2601 161.86 61.5801 160.08 61.7501C156.98 62.0501 154.19 63.3001 151.36 64.4701C151.01 64.6201 150.64 64.7901 150.36 65.0401C149.83 65.5201 149.4 65.2301 149.15 64.8301C148.83 64.3201 149.1 63.9001 149.66 63.6901C151.29 63.0901 152.92 62.5001 154.55 61.9101C157.31 60.9201 160.17 60.5201 163.08 60.5301C164.49 60.5301 165.88 60.8301 166.9 61.9601C167.31 62.4101 167.65 62.9101 167.25 63.6301C168.17 63.6401 168.98 63.3101 169.72 62.9201C170.32 62.6101 169.92 61.9201 169.9 61.4001C169.87 60.8301 169.23 60.0201 170.02 59.7901C170.69 59.6001 170.92 60.5601 171.24 61.1201C171.43 61.4601 171.24 61.8301 171.29 62.2501C172.69 61.7301 174.02 61.2501 175.35 60.7401C176.08 60.4601 176.6 60.6201 176.97 61.4401C175.34 61.7601 173.97 62.6001 172.44 63.0601C172.11 63.1601 171.8 63.3301 171.52 63.5301C171.27 63.7101 171.24 64.0001 171.36 64.2901C171.5 64.6101 171.69 64.3901 171.87 64.3601C172.81 64.2401 173.76 64.2801 174.71 64.2801C175.69 64.2801 176 64.9001 176.12 65.6601C176.36 67.2601 175.34 68.4301 173.72 68.5201C173.58 68.5201 173.44 68.5401 173.3 68.5501C173.607 69.3435 173.087 70.1135 171.74 70.8601C172.83 70.9001 173.78 70.7701 174.72 70.4801C174.94 70.4101 175.25 70.0601 175.45 70.4401C175.67 70.8601 175.31 71.0501 174.99 71.2301C174.12 71.7201 173.15 71.8701 172.2 72.0801C171.33 72.2701 171.38 72.9301 171.7 73.3001C172.6 74.3601 173.33 75.5501 174.3 76.5701C176.01 78.3701 178.22 79.1801 180.42 80.0801C180.77 80.2201 181.2 80.2701 181.35 80.6801C181.44 80.9301 181.5 81.2701 181.31 81.4901C181.08 81.7601 180.8 81.5201 180.55 81.4301C177.31 80.2001 174.37 78.5301 172.15 75.7701C172.07 75.6701 171.95 75.5901 171.75 75.4101C171.5 76.9001 171.85 78.2501 171.97 79.6101C171.99 79.8501 172.14 80.1101 172.08 80.3201C172 80.6301 172.49 81.0501 171.98 81.2001C171.45 81.3701 171.21 80.8701 171.1 80.4901C170.63 78.9701 170.91 77.3601 170.49 75.7501C169.19 76.3401 168.22 77.4601 167.03 78.2701C165.91 79.0301 164.7 79.6501 163.43 80.1001C162.99 80.2601 162.42 80.2701 162.13 79.7301C161.81 79.1301 162.31 78.8401 162.67 78.5401C163.1 78.1801 163.57 77.8801 164.03 77.5601C164.3 77.3701 164.66 77.2001 164.87 77.5001C165.07 77.7901 164.63 77.9301 164.48 78.1501C164.39 78.2801 164.15 78.2801 164.21 78.5901C165.77 77.8201 167.02 76.6601 168.33 75.5801C168.57 75.3801 168.83 75.1901 169.04 74.9601C169.51 74.4501 169.98 74.2501 170.46 74.9401C170.55 74.8201 170.62 74.7701 170.62 74.7201C170.687 73.1468 169.957 72.5601 168.43 72.9601C167.78 73.1301 167.12 73.1901 166.45 73.1701C166.01 73.1501 165.7 72.9101 165.61 72.5201C165.5 72.0501 165.91 71.9901 166.24 71.8601C167.51 71.3801 168.77 70.8801 170.01 70.3601C170.26 70.2501 170.69 70.2201 170.59 69.7501C170.5 69.3201 170.15 69.4001 169.84 69.3701C169.15 69.3001 168.44 69.5601 167.78 69.1701C167.47 68.9901 167.15 68.8301 167.24 68.3801C167.34 67.8801 167.78 68.0301 168.09 67.9501C168.2 67.9201 168.35 68.0401 168.49 68.0501C170.5 68.3001 170.69 68.1001 170.33 66.0201C169.21 66.3001 168.2 66.8201 167.21 67.4101C166.28 67.9601 166.25 68.6601 166.63 69.5201C166.71 69.7101 166.8 69.9101 166.84 70.1201C166.91 70.4701 167 70.8801 166.55 71.0101C166.19 71.1101 165.96 70.7801 165.85 70.4901C165.6 69.8501 165.32 69.2001 165.23 68.5301C165.12 67.7201 165.23 66.9901 166.14 66.4801C167.24 65.8601 168.36 65.3201 169.56 64.9301C169.87 64.8301 170.41 64.8301 170.23 64.3601C170.05 63.8901 169.75 64.4001 169.5 64.4701C168.9 64.6301 168.31 64.8101 167.73 65.0301C167.48 65.1201 167.21 65.2101 167.04 65.0501C166.18 64.2201 165.41 64.8201 164.62 65.1601C163.73 65.5401 162.88 66.0301 161.76 66.2801H161.71ZM171.47 66.7401C171.47 67.1701 171.47 67.4901 171.47 67.8001C171.47 68.1401 171.86 68.2701 171.95 68.1701C172.45 67.6501 173.13 67.9001 173.7 67.6801C174.25 67.4601 175.25 66.0301 175 65.6001C174.67 65.0401 174.06 65.4301 173.57 65.3801C173.27 65.3501 172.95 65.4901 172.64 65.4801C171.67 65.4601 171.19 65.8401 171.47 66.7401Z" fill="black"/>
<path d="M184.13 67.5301C185.2 67.4501 186.41 67.5201 187.49 68.2201C187.78 68.4101 187.83 68.2801 188.03 68.0601C189.85 66.0401 191.6 63.9601 193 61.6201C193.34 61.0501 193.88 60.9701 194.33 61.3501C194.81 61.7501 194.41 62.1801 194.11 62.5201C192.85 63.9701 191.78 65.5801 190.43 66.9601C190.25 67.1501 190.07 67.3701 190.03 67.6801C189.92 68.6601 190.13 68.8601 191.06 68.5701C192.39 68.1601 193.71 67.7101 195.04 67.3001C195.6 67.1301 195.85 66.8201 195.77 66.2201C195.66 65.5001 195.11 65.8901 194.77 65.8401C194.33 65.7801 193.86 65.9701 193.42 65.7801C193.18 65.6801 193 65.5101 193.02 65.2301C193.04 64.9501 193.22 64.7901 193.51 64.7701C194.45 64.6901 195.4 64.5601 196.34 64.5601C197.28 64.5601 197.53 64.9901 197.17 65.8501C197.1 66.0101 196.99 66.1901 197.1 66.3401C197.25 66.5301 197.46 66.4501 197.67 66.3701C198.74 65.9701 199.84 65.6201 200.9 65.1701C201.37 64.9701 201.78 64.9601 201.97 65.3801C202.18 65.8201 201.66 65.9201 201.38 66.0701C200.04 66.8101 198.79 67.6901 197.52 68.5401C197.03 68.8601 196.9 69.2901 197.1 69.6901C197.27 70.0401 197.71 69.8001 198.04 69.7201C198.79 69.5401 199.54 69.3001 200.32 69.4301C200.68 69.4901 201.14 69.5901 201.21 70.0201C201.28 70.4001 200.84 70.4801 200.58 70.6201C199.64 71.1601 198.71 71.7101 197.74 72.1801C197.25 72.4201 197.13 72.7801 197.29 73.1901C197.46 73.6301 197.88 73.4301 198.2 73.3401C199.04 73.1101 199.86 73.1901 200.68 73.4101C201.28 73.5701 201.89 73.8401 201.98 74.4801C202.05 74.9901 201.57 75.4101 201.15 75.7201C200.26 76.3801 199.35 76.9901 198.45 77.6301C198.17 77.8301 197.74 77.8701 197.99 78.4701C198.19 78.9601 198.42 78.9701 198.84 78.9201C201.44 78.6001 204.04 78.3001 206.63 78.0001C206.8 77.9801 206.98 77.9601 207.15 77.9501C207.55 77.9201 208.06 77.9201 208.12 78.3401C208.2 78.8601 207.62 78.6801 207.33 78.7501C205.26 79.2301 203.12 79.2701 201.03 79.7101C198.37 80.2601 195.68 80.7001 193 81.1701C192.49 81.2601 191.97 81.3801 191.47 81.0801C191.25 80.9501 191.04 80.8101 191.04 80.5301C191.04 80.2101 191.33 80.1301 191.54 80.0701C193.14 79.6401 194.54 78.8001 196.01 78.0701C196.52 77.8201 196.8 77.5601 196.6 76.9801C196.56 76.8501 196.56 76.7101 196.53 76.5701C196.44 75.9901 196.54 75.2501 196.22 74.8701C195.9 74.4801 195.19 75.0001 194.63 74.9201C194.28 74.8701 193.93 74.8801 193.62 74.7001C193 74.3401 192.75 73.9901 193.56 73.5301C194.29 73.1201 194.99 72.6501 195.71 72.2101C195.9 72.1001 196.1 72.0001 195.99 71.7401C195.88 71.4701 195.7 71.5801 195.48 71.6601C194.6 71.9601 193.67 72.0901 192.81 72.4901C192.31 72.7201 191.8 72.6801 191.58 72.1001C191.35 71.5001 191.9 71.4601 192.27 71.2901C193.42 70.7601 194.38 69.9401 195.41 69.2301C195.66 69.0501 195.86 68.8101 195.71 68.5301C195.54 68.2101 195.29 68.5001 195.07 68.5401C193.55 68.8201 192.22 69.6301 190.76 70.0601C190.48 70.1401 190.46 70.2901 190.52 70.5201C191.12 72.9701 190.8 75.5401 191.5 77.9901C191.58 78.2901 191.87 78.8001 191.25 78.9301C190.7 79.0401 190.37 78.6801 190.28 78.2001C190.1 77.1401 189.93 76.0601 189.85 74.9901C189.71 73.1701 189.58 71.3601 189.1 69.5901C189.04 69.3801 189.12 68.8201 188.61 69.0101C188.48 69.0601 187.55 69.1801 188.32 69.7901C188.56 69.9801 188.24 70.1801 188.07 70.2401C186.37 70.7801 184.96 71.9001 183.35 72.6101C182.86 72.8201 182.54 72.7101 182.23 72.4401C181.9 72.1601 181.94 71.8201 182.31 71.5701C182.49 71.4501 182.45 71.3901 182.31 71.2901C181.33 70.5801 181.67 69.4401 181.42 68.4901C181.27 67.9201 181.61 67.5501 182.23 67.5401C182.79 67.5301 183.36 67.5401 184.09 67.5401L184.13 67.5301ZM182.87 69.5901C182.93 69.9701 182.98 70.3501 183.07 70.7201C183.11 70.9101 183.17 71.2201 183.45 71.0801C184.49 70.5501 185.72 70.3401 186.46 69.3001C186.85 68.7501 186.49 68.6101 186.05 68.6001C185.25 68.6001 184.46 68.5901 183.66 68.6801C182.97 68.7601 182.83 69.0101 182.87 69.5901ZM200.78 74.3701C199.69 73.9501 198.7 74.3101 197.72 74.4101C197.34 74.4501 197.15 74.7101 197.27 75.0701C197.48 75.6801 197.33 76.3901 197.79 76.9201C197.82 76.9601 198.1 76.8101 198.24 76.7101C199.16 76.0701 200 75.3501 200.79 74.3701H200.78Z" fill="black"/>
<path d="M223.54 62.5301C223.08 62.3701 222.69 62.0801 222.71 61.6001C222.73 61.1601 223.21 61.0801 223.55 60.9301C224.34 60.5801 225.12 60.2001 225.9 59.8201C226.21 59.6701 226.57 59.5501 226.29 59.0501C226.16 58.8201 226.31 58.5601 226.57 58.4501C226.88 58.3201 227.11 58.4801 227.29 58.7301C227.35 58.8101 227.42 58.9001 227.45 59.0001C227.63 59.7301 228.61 59.1101 228.76 59.7401C228.91 60.3801 227.9 60.3501 227.91 61.0501C227.92 61.6601 228.16 62.2101 228.17 62.8001C228.17 63.1201 228.42 63.1501 228.7 63.0801C229.28 62.9401 229.87 62.8601 230.45 62.7201C231.24 62.5301 231.97 62.6001 232.73 63.1601C231.91 63.6801 230.98 63.5501 230.16 63.8201C228.52 64.3601 228.29 64.7201 228.61 66.4001C228.77 67.2801 229.04 67.7201 229.98 67.2601C230.13 67.1901 230.32 67.1201 230.48 67.1401C230.71 67.1601 231.01 67.1901 231.07 67.4501C231.13 67.7101 230.83 67.7901 230.66 67.8401C229.48 68.1601 228.38 68.7001 227.26 69.1701C226.87 69.3301 226.26 69.3401 226.29 69.9501C226.32 70.6101 226.49 71.3401 226.74 72.2001C226.79 72.3601 226.82 72.3801 226.87 72.5101C227.85 75.5001 230.77 76.6401 233.17 78.2601C235.71 79.9701 238.73 80.5901 241.5 81.7901C241.63 81.8401 241.78 81.8301 241.91 81.8801C242.39 82.1001 242.81 82.5701 242.63 83.0001C242.37 83.6201 241.84 83.1601 241.48 82.9601C239.55 81.8901 237.42 81.3201 235.43 80.4001C232.08 78.8501 229.18 76.7401 226.74 73.8601C226.25 77.2701 227.34 80.5201 227.35 83.9601C226.7 83.4401 226.56 82.7501 226.52 82.1601C226.27 78.3601 225.45 74.6201 225.23 70.8201C225.19 70.2101 225.04 70.1001 224.48 70.3501C223.08 70.9601 221.69 71.5601 220.14 71.7601C219.51 71.8401 219.07 71.7201 218.92 71.1801C218.72 70.4701 219.47 70.5001 219.8 70.4701C221.35 70.3201 222.73 69.6301 224.19 69.1801C224.63 69.0401 224.88 68.8601 224.79 68.3801C224.64 67.5601 224.29 66.7801 224.36 65.9201C224.39 65.5301 224.03 65.6501 223.82 65.6101C222.28 65.3101 222.04 64.7601 222.9 63.4901C223.11 63.1701 223.33 62.8601 223.57 62.5101L223.54 62.5301ZM225.06 65.5701C225.8 65.6101 226.25 65.6701 225.92 66.6001C225.73 67.1401 225.57 67.9201 226 68.2801C226.37 68.6001 227.01 68.1101 227.54 67.9701C227.61 67.9501 227.68 67.9401 227.74 67.9101C228.04 67.7901 228.19 67.6401 228.02 67.2801C227.66 66.5001 227.57 65.6501 227.45 64.7901C226.61 65.0701 225.83 65.3201 225.06 65.5801V65.5701ZM226.78 61.6601C225.72 62.5901 224.4 63.0501 223.92 64.4601C224.33 64.4101 224.67 64.3801 225 64.3201C226.99 63.9801 227.18 63.7201 226.78 61.6501V61.6601Z" fill="black"/>
<path d="M216.15 65.8401C216.38 67.5301 216.64 69.2201 216.84 70.9101C217.05 72.6401 217.22 74.3801 217.36 76.1201C217.39 76.4201 217.62 76.9901 216.96 76.9701C216.51 76.9601 216.13 76.7301 216.13 76.2001C216.13 74.6901 215.81 73.2101 215.71 71.7201C215.55 69.4301 215 67.2101 214.58 64.8501C212.49 67.1401 210.31 69.1501 207.84 70.8201C207.24 71.2301 206.56 71.6801 205.94 70.5901C207.39 70.6901 208.13 69.6101 209.04 68.8501C211.51 66.8201 213.72 64.5401 215.49 61.8601C215.85 61.3101 216.21 60.7401 216.45 60.1401C216.62 59.7201 216.61 59.1201 217.27 59.4901C217.76 59.7701 217.87 60.2201 217.55 60.8101C216.92 61.9601 216.17 63.0101 215.29 63.9801C215.17 64.1101 215.08 64.2601 214.94 64.4601C215.74 64.6201 215.86 65.3201 216.17 65.8701L216.14 65.8301L216.15 65.8401Z" fill="black"/>
<path d="M216.18 65.8799C216.04 65.2099 216.13 64.5699 216.74 64.2099C217.73 63.6099 218.22 62.6799 218.63 61.6699C218.84 61.1699 218.94 60.4699 219.71 60.7299C220.64 61.0499 220.22 61.6699 219.92 62.2199C219.87 62.3099 219.86 62.4199 219.8 62.5999C220.39 62.7099 220.99 62.6299 221.57 62.9599C222.32 63.3999 222.49 64.0999 222.2 64.6199C221.35 66.1699 220.5 67.7499 218.89 68.7099C218.51 68.9399 218.22 69.0199 217.86 68.7099C217.46 68.3699 217.64 67.9299 217.63 67.5299C217.63 67.3699 217.77 67.2499 217.91 67.3199C219.01 67.9499 218.97 66.6899 219.53 66.3699C218.34 66.4799 217.21 66.3999 216.17 65.8299L216.2 65.8699L216.18 65.8799ZM218.25 65.1199C219.86 65.5899 220.39 65.3199 220.96 63.7599C219.83 63.7299 218.94 64.1099 218.25 65.1199Z" fill="black"/>
<path d="M218.18 78.74C217.87 78.76 217.66 78.74 217.6 78.48C217.55 78.28 217.71 78.19 217.86 78.08C220.11 76.44 221.98 74.45 223.35 72.01C223.58 71.61 223.86 71.32 224.35 71.67C224.8 71.99 224.84 72.32 224.52 72.81C223.05 75.07 221.17 76.9 218.98 78.43C218.73 78.6 218.4 78.66 218.18 78.74Z" fill="black"/>
<path d="M22.97 86.3098C22.85 86.3098 22.73 86.2598 22.61 86.1498C22.5 86.0498 22.44 85.9498 22.44 85.8298C22.44 85.6398 22.58 85.4898 22.69 85.3698C22.72 85.3398 22.76 85.2998 22.78 85.2698C25.15 82.1298 26.65 78.7498 27.24 75.2098L27.28 74.9798C27.54 73.4598 27.8 71.8798 26.82 70.4598L26.79 70.4098C26.63 70.1698 26.46 69.9298 26.26 69.9298C26.08 69.9598 26.06 70.0398 26.07 70.3598C26.07 70.4498 26.07 70.5498 26.07 70.6298C26.04 70.9098 26.04 71.1898 26.03 71.4698C26.02 72.0798 26.01 72.7198 25.76 73.3598C24.98 75.3898 23.5 76.4998 21.59 76.4998C21.47 76.4998 21.35 76.4998 21.22 76.4898C19.92 76.3898 18.89 75.6098 18.16 74.1698C17.63 73.1198 17.84 71.8698 18.74 70.8498C20.22 69.1598 22.05 68.2698 24.18 68.2098C24.37 68.2098 24.53 68.2098 24.59 68.1398C24.64 68.0898 24.64 67.9798 24.63 67.8898C24.55 67.0798 24.48 66.2598 24.41 65.4498C24.36 64.8798 24.31 64.3098 24.26 63.7498C24.24 63.5498 24.19 63.5498 24.17 63.5498C24.11 63.5498 24.01 63.5898 23.92 63.6298L23.85 63.6598C22.39 64.2498 20.86 64.6598 19.38 65.0598C18.8 65.2198 18.23 65.3698 17.65 65.5398C14.97 66.3198 12.58 66.9198 10.35 67.3798C9.93004 67.4698 9.62004 67.5498 9.51004 67.7498C9.42004 67.9098 9.46004 68.1798 9.62004 68.5698L9.82004 69.0498C10.42 70.4798 11.04 71.9598 11.35 73.5398C11.46 74.0998 11.49 74.4898 11.31 74.7098C11.21 74.8298 11.06 74.8898 10.84 74.8898C10.67 74.8898 10.45 74.8498 10.14 74.7698C8.35004 74.2998 6.95004 73.1798 5.93004 72.2598C5.60004 71.9598 5.29004 71.7198 4.93004 71.5598C4.93004 72.0898 5.05004 72.5998 5.17004 73.0998C5.24004 73.3798 5.30004 73.6598 5.35004 73.9398C5.39004 74.1998 5.55004 74.2898 5.76004 74.4098C5.84004 74.4498 5.91004 74.4998 5.98004 74.5498C7.79004 75.9098 8.89004 78.8598 8.40004 80.9898V81.0598C8.36004 81.1898 8.33004 81.4098 8.03004 81.4398C8.00004 81.4398 7.96004 81.4398 7.93004 81.4398C7.60004 81.4398 7.32004 81.2798 7.15004 81.0098C6.79004 80.4098 6.49004 79.8698 6.24004 79.3398C5.64004 78.0698 5.02004 76.7798 4.63004 75.4098C4.48004 74.8698 4.08004 74.6398 3.55004 74.3798C1.69004 73.4498 0.56004 71.9598 0.0700402 69.8198C-0.17996 68.7198 0.41004 68.4498 1.03004 68.2598C2.89004 67.6898 4.83004 67.3598 6.65004 67.0798H6.73004C7.30004 66.9998 7.64004 66.9198 7.72004 66.7698C7.80004 66.6198 7.70004 66.2998 7.52004 65.8698C6.91004 64.4298 6.21004 62.9998 5.53004 61.6098L5.34004 61.2298C5.31004 61.1698 5.28004 61.1198 5.24004 61.0598C5.12004 60.8598 5.00004 60.6498 5.06004 60.4298C5.09004 60.3198 5.17004 60.2198 5.30004 60.1498C5.38004 60.1098 5.46004 60.0798 5.54004 60.0798C5.90004 60.0798 6.14004 60.5098 6.27004 60.7398C7.11004 62.2398 7.88004 63.9198 8.63004 65.8898C8.79004 66.3198 8.91004 66.4298 9.19004 66.4298C9.29004 66.4298 9.41004 66.4098 9.55004 66.3798C14.03 65.3598 18.41 64.1498 22.87 62.8898C24.05 62.5598 24.35 61.9698 24 60.6498C23.94 60.4398 23.87 60.2398 23.8 60.0398C23.74 59.8798 23.58 59.4598 24.02 59.1898C24.13 59.1198 24.24 59.0898 24.35 59.0898C24.55 59.0898 24.74 59.2098 24.88 59.4198C25.43 60.2598 26.29 60.4598 27.28 60.6098C27.64 60.6598 27.86 60.8698 28.08 61.0598C28.15 61.1198 28.22 61.1798 28.29 61.2398C28.61 61.4898 28.52 61.7698 28.44 61.9998L28.42 62.0798C28.34 62.3398 28.19 62.4598 27.95 62.4598C27.89 62.4598 27.83 62.4598 27.76 62.4398C27.7 62.4398 27.64 62.4298 27.58 62.4298C27.22 62.4298 26.9 62.5798 26.55 62.7398C26.36 62.8298 26.16 62.9198 25.96 62.9898C25.73 63.0598 25.66 63.1998 25.68 63.4998C25.74 64.2398 25.81 64.9798 25.87 65.7198C25.94 66.5398 26.01 67.3598 26.08 68.1798C26.09 68.3198 26.12 68.3498 26.31 68.4298C27.69 69.0198 28.41 70.1698 28.55 72.0398C28.79 75.1698 27.8 77.9998 26.69 80.5998C25.95 82.3198 24.93 84.0398 23.56 85.8398L23.52 85.8998C23.39 86.0798 23.23 86.2998 22.98 86.2998L22.97 86.3098ZM5.92004 75.8598C6.09004 76.7298 6.47004 77.4298 6.84004 78.1098C6.92004 78.2598 7.00004 78.3998 7.07004 78.5398C7.00004 77.4698 6.64004 76.6298 5.92004 75.8498V75.8598ZM24.27 69.7198C24.16 69.7198 24.04 69.7298 23.89 69.7498C22.5 69.9698 21.2 70.6398 20.03 71.7298C19.42 72.2998 18.93 73.1998 19.29 73.8198C19.66 74.4598 20.13 75.1098 20.84 75.1098C20.96 75.1098 21.09 75.0898 21.21 75.0498C21.22 75.0498 21.24 75.0498 21.25 75.0498C21.25 75.0498 21.26 75.0498 21.27 75.0498C21.36 75.0598 21.44 75.0698 21.53 75.0698C23.14 75.0698 24.69 73.1598 24.79 71.6498C24.79 71.5098 24.76 71.3598 24.73 71.2098C24.68 70.9998 24.62 70.7698 24.68 70.5098C24.75 70.1698 24.74 69.9398 24.65 69.8298C24.58 69.7498 24.46 69.7098 24.26 69.7098L24.27 69.7198ZM4.12004 69.9098C4.40004 69.9098 4.63004 70.1098 4.86004 70.2998C4.98004 70.3998 5.09004 70.4998 5.20004 70.5598C5.46004 70.6998 5.69004 70.8998 5.91004 71.0798C5.98004 71.1398 6.05004 71.1998 6.12004 71.2498C7.13004 72.0598 8.13004 72.8298 9.30004 73.3198C9.36004 73.3498 9.42004 73.3798 9.49004 73.4098C9.65004 73.4898 9.81004 73.5698 9.95004 73.5698C10.01 73.5698 10.07 73.5498 10.11 73.5098C10.24 73.3998 10.19 73.1898 10.11 72.8898C10.09 72.8198 10.07 72.7598 10.06 72.6898C9.85004 71.7998 9.50004 70.9398 9.17004 70.1098C8.95004 69.5798 8.73004 69.0198 8.54004 68.4698C8.40004 68.0498 8.25004 67.9698 7.98004 67.9698C7.89004 67.9698 7.78004 67.9798 7.66004 67.9998C6.91004 68.0998 6.20004 68.3498 5.50004 68.5998C4.86004 68.8298 4.19004 69.0698 3.50004 69.1798C3.01004 69.2598 2.56004 69.4298 2.09004 69.6098L1.75004 69.7398C1.36004 69.8798 1.32004 70.0198 1.39004 70.3898C1.65004 71.7898 2.47004 72.6998 4.04004 73.2998C3.99004 73.0598 3.93004 72.8198 3.87004 72.5998C3.78004 72.2498 3.69004 71.9298 3.65004 71.5798C3.64004 71.4598 3.61004 71.3198 3.58004 71.1898C3.49004 70.7798 3.39004 70.3098 3.75004 70.0498C3.87004 69.9598 3.99004 69.9198 4.12004 69.9198V69.9098Z" fill="black"/>
<path d="M56.2503 79.5899C56.0903 79.5899 55.9403 79.5699 55.7803 79.5299C55.6203 79.4899 55.4503 79.4499 55.2703 79.4099C54.4403 79.2299 53.4903 79.0299 53.2803 77.7999C53.2603 77.6699 53.1903 77.5399 53.1203 77.4099C53.0403 77.2599 52.9703 77.1099 52.9303 76.9399C52.8003 76.2599 52.9103 75.6499 53.2403 75.1999C53.5803 74.7299 54.1503 74.4299 54.8703 74.3399C55.1703 74.2999 55.4703 74.2299 55.7603 74.1599C56.2203 74.0499 56.6903 73.9399 57.1803 73.9399H57.3103C57.4603 73.9399 57.5703 73.8899 57.6103 73.8299C57.5403 73.5499 57.5203 73.2999 57.5003 73.0599C57.4603 72.6299 57.4203 72.2199 57.0603 71.9299C56.0103 71.1099 55.5303 69.9499 55.0603 68.8299C54.9503 68.5599 54.8403 68.2999 54.7203 68.0399C54.5403 67.6399 54.5303 67.1499 54.7103 66.7199C55.2103 65.4699 55.7303 64.2399 56.2703 62.9799C56.4203 62.6199 56.7103 62.4099 56.9903 62.2099C57.0803 62.1399 57.1703 62.0799 57.2603 62.0099C56.6003 62.0999 55.9403 62.1199 55.3003 62.1499C54.2403 62.1899 53.1503 62.2299 52.1203 62.5499C51.6403 62.6999 51.1303 62.7399 50.6503 62.7799C50.3003 62.8099 49.9403 62.8399 49.6003 62.8999C48.9003 63.0399 48.2803 63.3299 47.6703 63.6099C47.3703 63.7499 47.0703 63.8899 46.7603 64.0099C45.9903 64.3099 45.8303 64.6899 46.0603 65.6799C46.2303 66.4099 46.5203 67.0999 46.9403 67.7899C47.8903 69.3399 48.1503 71.0899 47.6903 72.9899C47.2303 74.9199 46.6403 76.9199 44.9103 78.4199C44.0303 79.1899 43.0703 79.5899 42.1503 79.5899C40.9003 79.5899 39.8003 78.8699 38.9903 77.5199C37.4803 75.0099 36.8103 72.2799 37.0003 69.4099C37.1403 67.2999 37.4003 65.0899 38.9703 63.3599C39.0103 63.3199 39.0403 63.2699 39.0803 63.2299C39.2003 63.0799 39.3303 62.9199 39.5303 62.9199C39.6603 62.9199 39.7903 62.9799 39.9503 63.1199C40.3403 63.4599 40.3703 63.7799 40.0603 64.1999C37.4703 67.7599 37.4203 71.7499 39.9203 76.7399C40.4503 77.7999 41.2103 78.3599 42.1303 78.3599C43.0503 78.3599 43.9903 77.8199 44.7403 76.9199C45.8903 75.5399 46.5703 73.7199 46.8203 71.3599C46.9103 70.5099 46.5803 69.7399 46.2703 68.9899C46.0803 68.5299 45.8303 68.0899 45.5903 67.6599C45.1703 66.9099 44.7303 66.1299 44.5703 65.2299C44.3603 64.0799 44.8803 63.0999 45.9703 62.5899C46.1603 62.4999 46.3503 62.4099 46.5403 62.3199C47.7103 61.7599 48.9203 61.1899 50.2603 61.1399C50.8703 61.1199 51.4803 61.0099 52.0703 60.8999C52.6403 60.7899 53.2303 60.6899 53.8203 60.6599C55.7803 60.5699 58.0803 60.4099 60.3303 59.8899C60.4503 59.8599 60.5603 59.8499 60.6603 59.8499C61.0203 59.8499 61.2703 60.0299 61.3803 60.3599C61.5403 60.8599 61.2103 61.0999 60.8903 61.3399C60.1503 61.8799 59.3803 62.4099 58.6303 62.9199L58.2603 63.1699C56.7303 64.2199 56.2003 66.0499 56.0203 67.3899C55.8803 68.4999 56.7403 69.7999 57.5203 70.5799C58.1403 71.1999 58.8003 71.9599 58.7703 73.1299C58.7703 73.2799 58.7903 73.4899 58.9203 73.6299C59.0203 73.7299 59.1603 73.7799 59.3503 73.7799C59.3903 73.7799 59.4403 73.7799 59.4903 73.7799C59.5903 73.7699 59.7003 73.7599 59.8003 73.7599C60.3303 73.7599 60.9003 73.8999 61.5903 74.1899C61.8003 74.2799 61.9703 74.4999 61.9003 74.7499C61.8503 74.9099 61.7203 75.0099 61.5503 75.0099C61.4503 75.0099 61.3603 74.9799 61.3003 74.9499C61.1603 74.8899 61.0003 74.8599 60.8203 74.8599C60.6603 74.8599 60.4903 74.8799 60.3303 74.8999C60.1503 74.9199 59.9803 74.9499 59.8003 74.9499C59.6603 74.9499 59.5403 74.9399 59.4203 74.9099C59.3803 74.9099 59.3503 74.8999 59.3203 74.8999C59.2403 74.8999 59.2003 74.9299 59.1803 74.9499C59.1203 75.0199 59.1003 75.1699 59.1303 75.3399C59.3203 76.4599 58.7803 77.3199 58.2603 78.1499L58.0603 78.4699C57.6403 79.1599 56.9503 79.5899 56.2603 79.5899H56.2503ZM57.5403 75.1899C57.2003 75.2399 56.8703 75.2999 56.5803 75.4199C56.3103 75.5399 56.0303 75.5599 55.7703 75.5699C55.5103 75.5899 55.2603 75.5999 55.0303 75.7099C54.5403 75.9499 54.2603 76.1599 54.1703 76.5699C54.0903 76.9499 54.2803 77.0699 54.7503 77.2399C54.9303 77.3099 55.0803 77.5399 55.1103 77.7099C55.1603 77.9899 55.2803 78.0399 55.4803 78.0399C55.5703 78.0399 55.6603 78.0299 55.7503 78.0199H55.8103C57.1203 77.8499 57.9403 76.6799 57.8403 75.1299C57.7403 75.1499 57.6503 75.1599 57.5503 75.1799L57.5403 75.1899Z" fill="black"/>
<path d="M83.8299 76.1599C82.6099 76.1599 81.3899 75.9799 80.2099 75.7999C80.0799 75.7799 79.9399 75.7599 79.8099 75.7399C79.0099 75.6399 78.1899 75.5299 77.4599 74.9099C77.4099 74.8699 77.3899 74.7999 77.4199 74.7399C77.4399 74.6899 77.4999 74.6499 77.5599 74.6499L78.6399 74.7999C79.4499 74.9099 80.2699 75.0199 81.0799 75.1199C81.9999 75.2299 82.6999 75.2799 83.3599 75.2799C84.4599 75.2799 85.4199 75.1299 86.2899 74.8199C87.6899 74.3299 88.5699 73.6599 89.1299 72.6699C89.5899 71.8599 89.6399 71.0499 89.2799 70.1899C88.9499 69.3999 88.4199 68.6999 87.9099 68.0299C87.5999 67.6199 87.2999 67.4499 86.9299 67.4499C86.7099 67.4499 86.4499 67.5099 86.1499 67.6399C85.3399 67.9899 84.5399 68.1599 83.7799 68.1599C83.2399 68.1599 82.7099 68.0699 82.1999 67.8999C81.3799 67.6299 80.9599 67.0399 80.9899 66.2099C81.0299 65.1899 81.5599 64.6299 82.5799 64.5399C82.7599 64.5199 82.9299 64.5199 83.1099 64.5199C84.3199 64.5199 85.4999 64.8999 86.6899 65.6699C86.8599 65.7799 86.9899 65.8699 87.1399 65.8699C87.2199 65.8699 87.2999 65.8499 87.3999 65.7999C88.6799 65.1499 89.6699 63.0599 89.3699 61.6499C89.1599 60.6799 88.4799 60.2999 87.9299 60.1399C86.8599 59.8299 85.7999 59.6799 84.7899 59.6799C84.4199 59.6799 84.0499 59.6999 83.6899 59.7399C82.5199 59.8699 81.5699 60.3899 80.8499 61.2899C80.6399 61.5499 80.3899 61.6899 80.1099 61.6899C80.0699 61.6899 80.0299 61.6899 79.9899 61.6899C79.6399 61.6399 79.5399 61.2799 79.4899 61.0799C79.4099 60.7699 79.5099 60.4999 79.7899 60.2699C81.3099 59.0299 83.0299 58.3999 84.9099 58.3999C86.0099 58.3999 87.1999 58.6199 88.4399 59.0399C89.2399 59.3099 89.8799 59.9699 90.2299 60.8999C90.6799 62.0599 90.5999 63.4299 90.0199 64.4899C89.5999 65.2599 89.1299 65.8499 88.5999 66.2999C88.3399 66.5199 88.2299 66.6699 88.2199 66.7999C88.2199 66.9299 88.3099 67.0999 88.5299 67.3299C89.4199 68.2499 89.9499 69.0899 90.2099 69.9799C90.8999 72.3499 89.7999 74.4799 87.3399 75.5299C86.2999 75.9699 85.1599 76.1899 83.8599 76.1899L83.8299 76.1599ZM82.9299 65.7899C82.8399 65.7899 82.7499 65.7899 82.6699 65.8099C82.2599 65.8699 82.0799 65.9999 82.0399 66.2699C81.9999 66.5499 82.1599 66.6499 82.5099 66.7699L82.5699 66.7899C82.9699 66.9399 83.3699 67.0099 83.8099 67.0099C84.3399 67.0099 84.9199 66.8999 85.5699 66.6699L85.6399 66.6499C85.8399 66.5899 85.8399 66.5599 85.8299 66.4999C85.8299 66.4599 85.7899 66.4399 85.6699 66.3899C85.6299 66.3799 85.5999 66.3599 85.5699 66.3499C85.0399 66.0999 84.3299 65.7999 83.5499 65.7999C83.4999 65.7999 83.3899 65.7999 83.3799 65.7999C83.2999 65.7999 83.2199 65.7999 83.1399 65.7999C83.0599 65.7999 82.9899 65.7999 82.9099 65.7999L82.9299 65.7899Z" fill="black"/>
<path d="M78.76 84.76C76.81 84.76 74.96 84.05 73.23 83.32C71.09 82.42 69.07 81.12 67.25 79.47L67.14 79.38C67 79.26 66.85 79.13 66.76 78.96C66.58 78.64 66.58 78.35 66.76 78.1C66.86 77.95 66.99 77.88 67.12 77.88C67.28 77.88 67.41 77.98 67.51 78.06C67.54 78.08 67.57 78.11 67.6 78.12C68.21 78.46 68.88 78.64 69.53 78.64C70.27 78.64 70.97 78.41 71.53 77.97C72.48 77.23 72.83 75.7 72.37 74.34C71.88 72.9 71.14 71.66 70.16 70.66C69.89 70.39 69.65 70.1 69.41 69.81C68.87 69.17 68.36 68.56 67.62 68.16C67.43 68.06 67.11 67.84 67.04 67.51C67.01 67.38 67.02 67.17 67.2 66.95C67.32 66.8 67.47 66.72 67.63 66.72C67.92 66.72 68.18 66.97 68.35 67.13L68.39 67.17C70.45 69.11 72.68 71.54 73.57 74.87C73.99 76.43 73.04 78.79 71.24 79.37C70.89 79.48 70.54 79.62 70.16 79.76C70.05 79.8 69.95 79.84 69.84 79.88C72.19 81.54 75.32 83.38 78.91 83.44C79.03 83.44 79.14 83.44 79.26 83.44C82.67 83.44 85.24 82.53 87.12 80.65C87.36 80.41 87.5 80.12 87.65 79.81C87.72 79.67 87.78 79.53 87.86 79.4C87.95 79.24 88.06 79.04 88.28 79.04C88.35 79.04 88.41 79.06 88.48 79.1C88.7 79.22 88.65 79.45 88.61 79.59C88.61 79.62 88.6 79.65 88.59 79.68C88.34 81.15 87.45 82.23 85.8 83.06C83.64 84.15 81.33 84.72 78.94 84.77H78.79L78.76 84.76Z" fill="black"/>
<path d="M85.6402 11.82C84.4302 10.17 82.8902 8.49005 81.7202 7.23005L82.2502 6.39005C83.8502 7.15005 85.9202 8.43005 87.4302 9.75005L85.6402 11.82ZM86.0302 13.39L87.0102 13.64C86.5602 17.2 85.5002 22.4401 84.7102 25.2901L81.9602 24.17C83.4202 21.17 84.9002 17.05 86.0202 13.38L86.0302 13.39ZM86.2802 5.60005C85.3002 3.95005 84.1502 2.41005 83.0302 1.06005L83.6502 0.300049C85.0502 1.06005 86.8702 2.29005 88.2402 3.77005L86.2802 5.59005V5.60005ZM107.43 21.93L105.75 24.59C104.41 24.06 100.48 21.37 98.3302 17.22V26.35H95.8102V17.7801C94.0202 20.5301 90.4302 23.33 87.6902 24.56L87.1902 23.6901C89.6602 22.0401 92.7102 19.66 94.7302 15.82H88.1202V14.56H95.8202V11.2H98.3402V14.56H106.27V15.82H98.7102C101.15 19.46 105.35 21.14 107.45 21.93H107.43ZM94.1002 3.58005H91.8002V7.95005H89.3902V2.33005H105.44V7.82005H103.03V3.59005H100.82V8.41005C100.82 9.39005 100.85 9.84005 102.53 9.84005C103.71 9.84005 104.57 9.76005 105.44 9.00005L106.53 10.93C105.69 11.74 104.12 11.99 102.41 11.99C98.5702 11.99 98.4602 10.87 98.4602 8.60005V3.59005H96.5002C96.4202 10.03 94.3402 12.16 88.9902 13.45L88.6302 12.5C93.4802 10.93 94.0602 7.93005 94.0902 3.59005L94.1002 3.58005Z" fill="#D68F41"/>
<path d="M111.69 13.9499H121.55V26.1899H119.08V23.8599H114.21V26.3199H111.69V13.9399V13.9499ZM119.09 22.6099V15.2099H114.22V22.6099H119.09ZM115.56 1.6499H130.02V10.8699H115.56V1.6499ZM127.44 9.6099V2.9099H118.14V9.6099H127.44ZM124.19 13.9499H134.11V26.1899H131.59V23.8599H126.66V26.3499H124.19V13.9399V13.9499ZM131.59 22.6099V15.2099H126.66V22.6099H131.59Z" fill="#D68F41"/>
<path d="M164.05 22.7801L163.1 25.7501C158.14 26.0901 152.01 26.1401 148.73 25.1301C146.88 24.5701 145.23 23.6201 143.88 22.1601C142.65 23.9801 141.13 25.4901 139.34 26.6701L138.72 25.8601C140.01 24.8001 141.47 23.1401 142.67 20.6501C141.63 19.0501 140.88 17.0601 140.43 14.5401L141.41 14.2601C141.89 16.0801 142.5 17.6501 143.4 18.9701C144.13 16.9801 144.72 14.5401 145.02 11.5501H142.58C142.13 12.3601 141.71 13.0601 141.38 13.4801L139.39 12.6401C140.71 10.4801 142.64 6.70014 143.87 3.54014H139.25V2.34014H146.98C146.22 4.41014 144.65 7.72014 143.28 10.3001H144.96L145.41 9.85014L147.62 10.6901C147.26 14.4401 146.33 17.8101 144.79 20.6401C145.66 21.4501 146.69 22.0701 147.93 22.5501C151.57 23.9201 158.6 23.4501 164.04 22.8001L164.05 22.7801ZM153.43 7.60014H147.29V6.40014H153.43V4.16014H148.61V2.90014H153.43V0.390137H155.84V2.88014H161.3V6.38014H163.57V7.58014H161.3V11.3601H155.84V13.5701H161.56V14.8301H155.84V17.4401H162.84V18.7001H155.84V22.4001H153.43V18.7001H147.27V17.4401H153.43V14.8301H148.27V13.5701H153.43V11.3601H148.47V10.1001H153.43V7.58014V7.60014ZM155.84 6.40014H159.09V4.16014H155.84V6.40014ZM155.84 10.1301H159.09V7.61014H155.84V10.1301Z" fill="#D68F41"/>
<path d="M167.85 8.35L167.26 7.57C169.47 5.5 170.9 3.28 171.85 0.09L174.54 0.85C174.26 1.49 173.84 2.25 173.28 3.03H180.45V4.29H175.66C176.33 4.93 177.06 5.83 177.73 6.81L175.66 7.57C175.32 6.48 174.93 5.38 174.37 4.29H172.33C171.12 5.75 169.58 7.23 167.85 8.35ZM192.84 22.75L191.35 25.52C188.52 25.07 183.79 22.64 181.24 18.91V26.45H178.83V19C176.84 21.94 171.85 24.44 167.65 25.42L167.31 24.52C171.43 22.98 174.31 21.27 176.53 18.61H168.13V17.35H178.83V14.97C178.16 15.42 177.37 15.78 176.48 16.15L176 15.25C177.23 14.49 178.02 13.82 178.49 13.04C176.31 13.99 171.91 15.22 168.88 15.7L168.24 13.37C169.84 13.29 171.21 13.17 172.5 13.03V9.3H168.61V8.04H178.75V9.3H174.86V12.72C176.04 12.52 177.24 12.3 178.56 11.99L178.73 12.61C179.29 11.4 179.29 9.95 179.29 7.76H188.25V11.96C188.25 13 188.64 13.16 189.57 13.16C190.78 13.16 190.8 12.91 190.78 10.05H191.79C192.99 14.45 192.27 15.15 189.52 15.18C186.72 15.21 185.93 14.62 185.93 12.24V9.02H181.64C181.64 11.9 180.74 13.59 179.06 14.79H181.24V17.34H192V18.6H182.25C185.39 21.32 188.92 22.13 192.84 22.75ZM178.86 6.67C180.6 4.82 181.8 2.52 182.59 0L185.17 0.87C184.81 1.6 184.36 2.33 183.88 3H192.34V4.26H186.91C187.64 4.85 188.28 5.55 188.95 6.47L186.91 7.31C186.49 6.27 186.1 5.32 185.48 4.26H182.9C181.72 5.63 180.46 6.72 179.51 7.4L178.87 6.67H178.86ZM182.14 9.92L182.98 9.58C183.9 10.98 184.66 12.58 185.05 14.01L183.03 14.54C182.89 13.22 182.53 11.46 182.13 9.92H182.14Z" fill="#D68F41"/>
</svg>
