<svg width="564" height="259" viewBox="0 0 564 259" fill="none" xmlns="http://www.w3.org/2000/svg">
<path d="M102.441 146.99H104.075V133.063H102.156L96.361 142.012V143.152H105.937V141.784H98.185L101.358 137.034C101.738 136.35 102.118 135.647 102.46 134.963H102.555C102.498 135.685 102.441 136.806 102.441 137.509V146.99ZM115.298 147.256C117.445 147.256 119.288 145.432 119.288 142.734C119.288 139.808 117.768 138.364 115.412 138.364C114.291 138.364 112.999 139.048 112.144 140.169L112.201 141.556C113.132 140.169 114.253 139.637 115.146 139.637C116.818 139.637 117.654 140.834 117.654 142.734C117.654 144.615 116.628 145.888 115.298 145.888C113.341 145.888 112.258 143.931 112.258 140.359C112.258 135.799 113.892 134.26 115.849 134.26C116.685 134.26 117.54 134.659 118.072 135.305L119.041 134.241C118.281 133.424 117.217 132.816 115.773 132.816C113.075 132.816 110.624 134.906 110.624 140.359C110.624 144.957 112.619 147.256 115.298 147.256ZM134.748 141.803C136.249 143.836 138.092 146.648 138.966 148.396L140.391 147.617C139.479 145.926 137.655 143.228 136.097 141.195L134.748 141.803ZM129.162 131.6C127.984 134.488 125.989 137.3 123.842 139.067C124.222 139.333 124.849 139.922 125.115 140.226C127.243 138.269 129.352 135.21 130.72 132.075L129.162 131.6ZM126.236 147.598C126.236 147.237 127.395 146.762 127.395 146.762V146.724C129.694 144.349 131.993 140.948 133.893 137.547L132.297 136.863C130.701 140.112 128.231 143.532 127.452 144.406C126.73 145.299 126.179 145.926 125.666 146.059C125.875 146.477 126.141 147.275 126.236 147.598ZM126.236 147.598C126.977 147.294 128.06 147.237 138.776 146.515C138.681 146.192 138.529 145.584 138.453 145.166L127.243 145.812L126.198 146.382L126.236 147.598ZM134.824 131.505V132.36H135.204C136.211 135.457 138.168 138.497 140.467 140.226C140.733 139.789 141.246 139.181 141.588 138.896C139.346 137.414 137.427 134.545 136.515 131.505H134.824ZM131.879 131.505V132.968H136.04V131.505H131.879ZM152.608 131.923V133.158H163.191V131.923H152.608ZM154.926 139.01H161.177V140.853H154.926V139.01ZM154.926 141.917H161.177V143.779H154.926V141.917ZM154.926 136.122H161.177V137.946H154.926V136.122ZM153.577 135.001V144.881H162.583V135.001H153.577ZM157.244 132.531C157.092 133.443 156.788 134.754 156.503 135.628L157.795 135.875C158.118 135.077 158.536 133.842 158.878 132.74L157.244 132.531ZM155.591 145.204C154.641 146.021 152.684 146.971 151.05 147.484C151.335 147.769 151.753 148.206 151.943 148.491C153.634 147.94 155.61 146.971 156.826 146.002L155.591 145.204ZM158.745 146.059C160.056 146.762 161.728 147.826 162.526 148.529L163.666 147.674C162.792 146.952 161.101 145.926 159.809 145.28L158.745 146.059ZM147.326 145.66C147.706 145.318 148.314 144.995 152.95 143C152.874 142.696 152.76 142.145 152.741 141.765L147.763 143.798L147.174 144.368L147.326 145.66ZM147.535 131.657V143.076C147.535 143.798 146.984 144.235 146.623 144.387C146.87 144.691 147.193 145.318 147.326 145.66L148.922 144.311V131.657H147.535ZM148.276 136.255V137.49H152.798V136.255H148.276ZM179.588 130.935V143.209H180.994V132.246H185.573V130.935H179.588ZM190.418 132.949V134.298H207.157V132.949H190.418ZM194.332 140.568V141.727H203.319V140.568H194.332ZM193.933 143.665V144.862H203.661V143.665H193.933ZM198.018 141.119V148.149H199.386V141.119H198.018ZM191.444 136.293V148.491H192.869V137.623H205.181V136.293H191.444ZM204.687 136.293V146.857C204.687 147.161 204.611 147.256 204.269 147.275C203.927 147.294 202.749 147.294 201.552 147.237C201.761 147.598 201.989 148.149 202.065 148.529C203.623 148.529 204.706 148.51 205.314 148.301C205.941 148.092 206.15 147.693 206.15 146.857V136.293H204.687ZM195.282 138.25C195.757 138.953 196.251 139.922 196.441 140.568L197.638 140.131C197.429 139.504 196.935 138.573 196.422 137.889L195.282 138.25ZM201.096 137.87C200.773 138.687 200.184 139.884 199.709 140.663L200.735 141.005C201.229 140.283 201.818 139.219 202.312 138.231L201.096 137.87ZM197.98 131.049V137.186H199.557V131.049H197.98ZM219.108 134.203V135.571H229.368V134.203H219.108ZM222.357 138.592V139.922H227.43V138.592H222.357ZM226.936 138.592V138.858C226.727 144.273 226.48 146.287 226.043 146.743C225.872 146.952 225.682 147.009 225.359 146.99C224.998 146.99 224.086 146.99 223.117 146.895C223.345 147.275 223.516 147.845 223.554 148.263C224.485 148.32 225.435 148.32 225.948 148.282C226.518 148.225 226.898 148.073 227.259 147.636C227.848 146.971 228.076 144.938 228.323 139.238C228.342 139.048 228.342 138.592 228.342 138.592H226.936ZM221.825 135.115C221.73 140.093 221.521 144.995 218.12 147.56C218.481 147.788 218.918 148.225 219.108 148.548C222.756 145.679 223.098 140.511 223.25 135.115H221.825ZM222.87 131.448C223.25 132.436 223.668 133.728 223.782 134.507L225.15 134.108C224.998 133.329 224.58 132.094 224.143 131.144L222.87 131.448ZM216.79 138.535C217.322 139.827 217.873 141.518 218.063 142.525L219.26 142.088C219.032 141.1 218.462 139.447 217.93 138.174L216.79 138.535ZM215.004 143.418C215.251 144.729 215.46 146.439 215.498 147.56L216.695 147.332C216.638 146.192 216.41 144.52 216.163 143.209L215.004 143.418ZM212.895 143.266C212.724 144.805 212.439 146.515 211.983 147.674C212.306 147.769 212.895 147.959 213.18 148.111C213.579 146.933 213.94 145.128 214.149 143.475L212.895 143.266ZM212.439 138.155C212.439 137.851 213.332 137.433 213.332 137.433V137.395C214.624 135.856 215.992 133.671 217.018 131.543L215.688 130.973C214.871 133.044 213.484 135.229 213.066 135.78C212.667 136.369 212.306 136.749 211.983 136.825C212.135 137.186 212.363 137.87 212.439 138.155ZM212.439 138.155C212.743 138.003 213.275 137.908 216.334 137.547C216.334 137.262 216.372 136.768 216.448 136.426L213.066 136.711L212.401 137.11L212.439 138.155ZM212.553 142.43C212.553 142.145 213.446 141.727 213.446 141.727V141.689C215.27 139.884 217.132 137.3 218.595 134.754L217.379 134.032C216.125 136.559 214.149 139.2 213.522 139.884C212.933 140.568 212.515 141.043 212.097 141.119C212.268 141.48 212.477 142.145 212.553 142.43ZM212.553 142.43C212.952 142.24 213.56 142.088 218.196 141.366C218.177 141.1 218.177 140.568 218.234 140.207L213.18 140.91L212.515 141.366L212.553 142.43ZM217.056 142.981C217.417 143.988 217.816 145.28 217.968 146.135L219.07 145.755C218.918 144.938 218.5 143.646 218.101 142.658L217.056 142.981ZM237.386 132.607V148.472H238.773V132.607H237.386ZM234.175 136.388V137.737H241.585V136.388H234.175ZM237.462 136.901C236.778 139.257 235.258 142.221 233.89 143.741C234.137 144.064 234.479 144.653 234.612 145.052C236.075 143.285 237.595 139.96 238.355 137.281L237.462 136.901ZM240.426 131.296C238.982 131.942 236.493 132.493 234.346 132.835C234.498 133.158 234.688 133.633 234.764 133.956C236.93 133.652 239.552 133.139 241.3 132.455L240.426 131.296ZM238.697 137.984L238.032 138.573C238.602 139.314 240.084 141.575 240.54 142.487L241.433 141.366C241.015 140.796 239.191 138.497 238.697 137.984ZM247.836 131.03V148.491H249.242V131.03H247.836ZM241.357 143.399L241.566 144.748L251.693 143.095L251.465 141.765L241.357 143.399ZM242.896 133.196C244.017 133.956 245.347 135.096 245.955 135.894L246.943 134.963C246.297 134.165 244.948 133.082 243.808 132.36L242.896 133.196ZM242.136 138.136C243.371 138.915 244.815 140.112 245.518 140.948L246.468 139.998C245.765 139.181 244.264 138.041 243.029 137.3L242.136 138.136ZM262.561 134.032V135.362H273.03V134.032H262.561ZM262.96 138.212V139.523H271.339V138.212H262.96ZM267.045 131.03V138.953H268.451V131.03H267.045ZM264.803 139.181L263.511 139.561C265.164 144.026 268.242 147.18 272.802 148.529C273.011 148.168 273.41 147.598 273.733 147.313C269.287 146.135 266.228 143.171 264.803 139.181ZM271.225 138.212V138.459C269.838 143.152 265.829 146.097 261.478 147.218C261.744 147.522 262.105 148.13 262.238 148.51C266.893 147.104 271.035 144.007 272.65 138.554L271.757 138.155L271.491 138.212H271.225ZM256.082 141.1L256.5 142.468C258.191 141.974 260.395 141.328 262.466 140.701L262.295 139.409C260.034 140.055 257.678 140.701 256.082 141.1ZM256.329 134.868V136.217H262.295V134.868H256.329ZM258.78 131.049V146.8C258.78 147.066 258.666 147.161 258.419 147.161C258.172 147.18 257.336 147.18 256.443 147.161C256.633 147.541 256.842 148.111 256.88 148.472C258.191 148.472 258.989 148.434 259.483 148.206C259.996 147.997 260.186 147.598 260.186 146.8V131.049H258.78ZM281.276 136.692V137.604H292.505V136.692H281.276ZM282.397 134.602V135.514H291.517V134.602H282.397ZM286.197 133.557V137.243H287.527V133.557H286.197ZM286.007 140.644C284.848 141.556 282.682 142.278 280.801 142.734C281.029 142.943 281.409 143.38 281.542 143.57C283.442 143.038 285.722 142.107 287.014 141.005L286.007 140.644ZM291.536 141.575C290.89 142.069 289.75 142.772 288.914 143.209L289.674 143.703C290.529 143.342 291.612 142.772 292.467 142.164L291.536 141.575ZM283.708 139.086H290.13V140.416H283.708V139.086ZM282.492 138.326V141.176H291.384V138.326H282.492ZM278.996 131.866V148.529H280.345V133.177H293.474V148.529H294.88V131.866H278.996ZM279.832 146.42V147.712H294.253V146.42H279.832ZM286.444 142.107C288.249 143.152 290.491 144.691 291.574 145.679L292.543 145.033C291.346 144.045 289.085 142.544 287.337 141.556L286.444 142.107ZM283.252 146.23C283.537 146.04 284.031 145.888 287.565 144.9C287.527 144.691 287.527 144.273 287.546 143.988L283.727 144.919L283.195 145.356L283.252 146.23ZM283.252 146.23C283.252 145.831 284.696 145.261 284.696 145.261V142.031L283.594 142.012V144.311C283.594 144.995 283.119 145.223 282.853 145.337C282.986 145.546 283.176 145.964 283.252 146.23ZM307.686 135.457H312.056V137.642H307.686V135.457ZM306.356 134.431V138.668H313.462V134.431H306.356ZM305.482 141.005H308.009V143.817H305.482V141.005ZM304.266 139.96V144.862H309.263V139.96H304.266ZM311.771 141.005H314.431V143.817H311.771V141.005ZM310.555 139.96V144.862H315.685V139.96H310.555ZM300.58 131.923V133.196H316.616V131.923H300.58ZM301.378 132.018V143.893C301.378 146.686 302.784 147.636 305.71 147.636C306.413 147.636 312.778 147.636 314.127 147.636C315.609 147.636 317.053 147.598 317.566 147.465C317.49 147.142 317.395 146.477 317.338 146.097C316.654 146.23 315.191 146.306 314.165 146.306C312.816 146.306 306.793 146.306 305.558 146.306C303.506 146.306 302.765 145.622 302.765 144.007V132.018H301.378ZM328.149 148.624V136.35H326.743V147.313H322.164V148.624H328.149ZM354.502 142.544L355.794 141.442C354.616 140.055 352.906 138.326 351.538 137.224L350.303 138.307C351.652 139.409 353.286 141.043 354.502 142.544ZM370.595 147.256C373.084 147.256 375.079 145.755 375.079 143.285C375.079 141.366 373.749 140.131 372.115 139.732V139.656C373.597 139.124 374.585 138.003 374.585 136.312C374.585 134.089 372.875 132.816 370.538 132.816C368.942 132.816 367.707 133.519 366.662 134.469L367.593 135.59C368.372 134.792 369.36 134.222 370.481 134.222C371.925 134.222 372.818 135.096 372.818 136.426C372.818 137.946 371.849 139.086 368.98 139.086V140.435C372.191 140.435 373.312 141.537 373.312 143.209C373.312 144.805 372.134 145.812 370.481 145.812C368.885 145.812 367.84 145.052 367.023 144.197L366.149 145.337C367.061 146.344 368.41 147.256 370.595 147.256ZM381.799 147.256C382.502 147.256 383.072 146.705 383.072 145.926C383.072 145.128 382.502 144.596 381.799 144.596C381.115 144.596 380.564 145.128 380.564 145.926C380.564 146.705 381.115 147.256 381.799 147.256ZM392.502 147.256C394.991 147.256 396.986 145.755 396.986 143.285C396.986 141.366 395.656 140.131 394.022 139.732V139.656C395.504 139.124 396.492 138.003 396.492 136.312C396.492 134.089 394.782 132.816 392.445 132.816C390.849 132.816 389.614 133.519 388.569 134.469L389.5 135.59C390.279 134.792 391.267 134.222 392.388 134.222C393.832 134.222 394.725 135.096 394.725 136.426C394.725 137.946 393.756 139.086 390.887 139.086V140.435C394.098 140.435 395.219 141.537 395.219 143.209C395.219 144.805 394.041 145.812 392.388 145.812C390.792 145.812 389.747 145.052 388.93 144.197L388.056 145.337C388.968 146.344 390.317 147.256 392.502 147.256ZM406.385 147.256C408.988 147.256 410.755 145.679 410.755 143.646C410.755 141.746 409.615 140.682 408.399 139.979V139.884C409.235 139.238 410.261 138.003 410.261 136.521C410.261 134.393 408.817 132.873 406.442 132.873C404.257 132.873 402.604 134.279 402.604 136.388C402.604 137.851 403.478 138.915 404.504 139.618V139.694C403.231 140.378 401.939 141.67 401.939 143.551C401.939 145.698 403.82 147.256 406.385 147.256ZM407.335 139.447C405.701 138.801 404.2 138.06 404.2 136.388C404.2 135.058 405.131 134.146 406.404 134.146C407.905 134.146 408.779 135.248 408.779 136.616C408.779 137.661 408.285 138.611 407.335 139.447ZM406.423 145.945C404.751 145.945 403.497 144.862 403.497 143.38C403.497 142.05 404.276 140.948 405.416 140.226C407.373 141.024 409.083 141.727 409.083 143.589C409.083 144.976 408.019 145.945 406.423 145.945ZM423.441 135.438V145.603H424.809V135.438H423.441ZM419.318 138.269H429.008V139.637H419.318V138.269ZM419.318 135.913H429.008V137.281H419.318V135.913ZM417.95 134.887V140.663H430.433V134.887H417.95ZM430.338 141.841V147.047C430.338 147.256 430.281 147.313 430.034 147.332C429.806 147.351 429.084 147.351 428.191 147.332C428.362 147.674 428.552 148.149 428.609 148.491C429.844 148.491 430.642 148.491 431.117 148.301C431.611 148.073 431.725 147.731 431.725 147.066V141.841H430.338ZM419.299 145.261L419.394 146.515C421.655 146.401 424.942 146.23 428.115 146.04L428.134 144.881C424.847 145.052 421.484 145.185 419.299 145.261ZM426.329 143.703C427.165 144.767 427.982 146.211 428.267 147.161L429.388 146.781C429.103 145.812 428.248 144.387 427.412 143.361L426.329 143.703ZM420.059 131.03V134.621H421.446V131.03H420.059ZM426.747 131.03V134.621H428.134V131.03H426.747ZM415.784 132.208V133.424H423.783V132.208H415.784ZM424.505 132.208V133.424H432.485V132.208H424.505ZM415.955 141.841V143.038H430.984V141.841H415.955ZM416.734 141.138V148.51H418.102V141.138H416.734ZM443.087 140.378V141.727H454.943V140.378H443.087ZM443.638 131.999V133.367H454.411V131.999H443.638ZM448.274 132.322V148.51H449.718V132.322H448.274ZM452.473 134.336C452.188 135.78 451.637 137.889 451.143 139.143L452.245 139.466C452.758 138.231 453.347 136.274 453.822 134.659L452.473 134.336ZM444.36 134.735C444.873 136.236 445.329 138.174 445.443 139.466L446.678 139.124C446.526 137.87 446.07 135.932 445.519 134.45L444.36 134.735ZM437.653 135.609V136.958H442.916V135.609H437.653ZM439.762 131.258V143.589H441.073V131.258H439.762ZM437.349 144.102L437.862 145.546C439.439 144.919 441.434 144.102 443.315 143.285L443.087 142.012C440.978 142.81 438.793 143.627 437.349 144.102ZM471.093 130.935V143.209H472.499V132.246H477.078V130.935H471.093ZM481.999 133.405V134.792H498.586V133.405H481.999ZM485.742 137.604H494.9V140.663H485.742V137.604ZM484.336 136.35V141.917H496.401V136.35H484.336ZM493.779 143.836C495.052 145.109 496.572 146.895 497.294 147.997L498.529 147.142C497.769 146.078 496.192 144.349 494.938 143.114L493.779 143.836ZM489.58 141.461V146.838C489.58 147.104 489.504 147.199 489.162 147.199C488.801 147.218 487.623 147.218 486.331 147.18C486.521 147.579 486.73 148.149 486.806 148.548C488.497 148.548 489.58 148.548 490.226 148.339C490.891 148.111 491.081 147.712 491.081 146.876V141.461H489.58ZM485.229 143.133C484.507 144.406 483.044 146.002 481.752 147.047C482.056 147.237 482.55 147.655 482.797 147.921C484.165 146.8 485.647 145.128 486.616 143.627L485.229 143.133ZM488.649 131.334C489.219 132.208 489.846 133.386 490.131 134.127L491.575 133.595C491.271 132.873 490.587 131.714 490.017 130.897L488.649 131.334ZM503.83 135.685V136.996H508.979V135.685H503.83ZM505.825 131.258V143.988H507.174V131.258H505.825ZM503.602 144.539L504.058 145.964C505.559 145.356 507.459 144.615 509.264 143.874L509.017 142.582C507.022 143.342 504.97 144.102 503.602 144.539ZM510.309 133.956V135.267H520.911V133.956H510.309ZM510.556 137.832V139.048H514.071V137.832H510.556ZM509.777 133.956V139.865C509.777 142.335 509.587 145.47 507.687 147.693C507.991 147.864 508.523 148.301 508.732 148.567C510.784 146.211 511.107 142.582 511.107 139.884V133.956H509.777ZM513.52 137.832V138.06C513.463 142.259 513.387 143.684 513.178 143.988C513.064 144.14 512.931 144.178 512.684 144.178C512.456 144.178 511.867 144.178 511.202 144.121C511.392 144.444 511.506 144.957 511.544 145.337C512.209 145.375 512.893 145.356 513.273 145.318C513.729 145.28 513.995 145.147 514.242 144.805C514.603 144.33 514.679 142.772 514.736 138.402C514.755 138.231 514.755 137.832 514.755 137.832H513.52ZM515.496 131.03C515.572 140.226 516.427 148.32 519.372 148.32C520.626 148.32 521.044 147.427 521.253 144.577C520.911 144.444 520.455 144.14 520.189 143.836C520.113 146.04 519.923 146.971 519.543 146.971C517.909 146.971 516.788 139.96 516.864 131.03H515.496ZM517.225 131.771C518.061 132.436 519.011 133.367 519.448 133.994L520.474 133.291C520.018 132.664 519.03 131.771 518.194 131.144L517.225 131.771ZM519.277 137.376C518.194 141.917 516.085 145.394 512.722 147.465C513.007 147.674 513.52 148.187 513.729 148.453C517.111 146.135 519.353 142.506 520.588 137.623L519.277 137.376ZM528.568 140.682V148.51H529.955V141.86H538.809V148.472H540.272V140.682H528.568ZM529.366 143.646V144.748H539.341V143.646H529.366ZM527.846 132.607V133.766H533.907V132.607H527.846ZM525.794 135.59V136.749H534.401V135.59H525.794ZM529.366 146.629V147.807H539.341V146.629H529.366ZM529.746 133.025V134.887C529.746 136.388 529.461 138.611 525.623 140.131C525.946 140.359 526.345 140.815 526.535 141.1C530.563 139.295 531.114 136.749 531.114 134.906V133.025H529.746ZM527.941 130.973C527.523 132.417 526.763 133.842 525.794 134.811C526.117 134.944 526.687 135.305 526.934 135.495C527.865 134.45 528.739 132.873 529.233 131.239L527.941 130.973ZM530.696 137.034L529.765 137.661C530.582 138.174 532.558 139.58 533.261 140.169L534.249 139.181C533.698 138.801 531.38 137.395 530.696 137.034ZM536.529 133.861H540.481V137.908H536.529V133.861ZM535.199 132.588V139.219H541.887V132.588H535.199ZM97.501 180.037V180.987H104.835V180.037H97.501ZM97.862 181.899V182.83H104.569V181.899H97.862ZM100.522 179.049V185.718H101.852V179.049H100.522ZM105.576 180.037V180.987H113.423V180.037H105.576ZM105.481 183.799V184.73H113.708V183.799H105.481ZM97.33 183.799V184.73H105.044V183.799H97.33ZM106.013 181.88V182.811H113.1V181.88H106.013ZM108.711 179.049V185.718H110.06V179.049H108.711ZM101.643 192.045V194.534C101.643 195.959 102.156 196.32 104.151 196.32C104.569 196.32 107.457 196.32 107.894 196.32C109.452 196.32 109.87 195.845 110.041 193.831C109.68 193.736 109.091 193.546 108.787 193.337C108.711 194.857 108.559 195.066 107.761 195.066C107.134 195.066 104.721 195.066 104.265 195.066C103.22 195.066 103.049 194.99 103.049 194.515V192.045H101.643ZM103.505 191.76C104.607 192.273 105.861 193.109 106.469 193.774L107.419 192.9C106.792 192.216 105.5 191.437 104.417 190.962L103.505 191.76ZM109.794 192.653C111.105 193.603 112.473 194.99 113.043 196.016L114.259 195.256C113.651 194.23 112.226 192.881 110.915 191.969L109.794 192.653ZM99.287 192.121C98.812 193.318 97.938 194.553 96.722 195.275L97.862 196.073C99.173 195.237 99.971 193.869 100.522 192.577L99.287 192.121ZM98.755 185.984V186.972H110.573V190.259H98.641V191.228H111.96V185.984H98.755ZM97.102 188.131V189.062H113.936V188.131H97.102ZM121.878 184.692V185.604H133.107V184.692H121.878ZM122.999 182.602V183.514H132.119V182.602H122.999ZM126.799 181.557V185.243H128.129V181.557H126.799ZM126.609 188.644C125.45 189.556 123.284 190.278 121.403 190.734C121.631 190.943 122.011 191.38 122.144 191.57C124.044 191.038 126.324 190.107 127.616 189.005L126.609 188.644ZM132.138 189.575C131.492 190.069 130.352 190.772 129.516 191.209L130.276 191.703C131.131 191.342 132.214 190.772 133.069 190.164L132.138 189.575ZM124.31 187.086H130.732V188.416H124.31V187.086ZM123.094 186.326V189.176H131.986V186.326H123.094ZM119.598 179.866V196.529H120.947V181.177H134.076V196.529H135.482V179.866H119.598ZM120.434 194.42V195.712H134.855V194.42H120.434ZM127.046 190.107C128.851 191.152 131.093 192.691 132.176 193.679L133.145 193.033C131.948 192.045 129.687 190.544 127.939 189.556L127.046 190.107ZM123.854 194.23C124.139 194.04 124.633 193.888 128.167 192.9C128.129 192.691 128.129 192.273 128.148 191.988L124.329 192.919L123.797 193.356L123.854 194.23ZM123.854 194.23C123.854 193.831 125.298 193.261 125.298 193.261V190.031L124.196 190.012V192.311C124.196 192.995 123.721 193.223 123.455 193.337C123.588 193.546 123.778 193.964 123.854 194.23ZM148.288 183.457H152.658V185.642H148.288V183.457ZM146.958 182.431V186.668H154.064V182.431H146.958ZM146.084 189.005H148.611V191.817H146.084V189.005ZM144.868 187.96V192.862H149.865V187.96H144.868ZM152.373 189.005H155.033V191.817H152.373V189.005ZM151.157 187.96V192.862H156.287V187.96H151.157ZM141.182 179.923V181.196H157.218V179.923H141.182ZM141.98 180.018V191.893C141.98 194.686 143.386 195.636 146.312 195.636C147.015 195.636 153.38 195.636 154.729 195.636C156.211 195.636 157.655 195.598 158.168 195.465C158.092 195.142 157.997 194.477 157.94 194.097C157.256 194.23 155.793 194.306 154.767 194.306C153.418 194.306 147.395 194.306 146.16 194.306C144.108 194.306 143.367 193.622 143.367 192.007V180.018H141.98ZM168.751 196.624V184.35H167.345V195.313H162.766V196.624H168.751ZM192.102 191.418C194.097 190.734 195.389 189.176 195.389 187.124C195.389 185.794 194.819 184.92 193.755 184.92C192.995 184.92 192.311 185.395 192.311 186.288C192.311 187.181 192.957 187.656 193.736 187.656C194.097 187.656 194.477 187.561 194.743 187.219L193.717 185.775L194.078 187.371C194.078 188.815 193.223 189.784 191.665 190.411L192.102 191.418ZM210.855 186.725V187.751H212.603V186.725H210.855ZM214.902 180.835V196.434H216.289V180.835H214.902ZM208.176 183.97V196.472H209.544V185.3H222.616V183.97H208.176ZM221.913 183.97V194.838C221.913 195.123 221.837 195.199 221.533 195.218C221.229 195.237 220.241 195.237 219.215 195.199C219.405 195.56 219.614 196.111 219.69 196.472C221.039 196.472 222.008 196.453 222.578 196.244C223.129 196.016 223.319 195.636 223.319 194.857V183.97H221.913ZM212.223 186.725C212.223 188.891 212.394 191.684 214.085 193.698C214.256 193.508 214.655 193.185 214.883 193.052C213.249 191.152 213.097 188.72 213.097 186.725H212.223ZM212.071 187.561C211.786 189.917 211.121 191.855 209.829 193.109C210.057 193.261 210.456 193.565 210.627 193.736C211.957 192.349 212.736 190.259 213.059 187.694L212.071 187.561ZM218.74 187.466C218.474 189.765 217.809 191.703 216.536 192.976C216.783 193.128 217.182 193.432 217.353 193.603C218.645 192.216 219.405 190.126 219.747 187.599L218.74 187.466ZM217.467 186.725V187.751H219.405V186.725H217.467ZM218.892 186.725C218.892 188.891 219.101 191.665 220.887 193.641C221.058 193.47 221.476 193.166 221.723 193.052C219.956 191.171 219.823 188.739 219.823 186.725H218.892ZM207.511 180.17V181.576H223.965V180.17H207.511ZM229.418 184.502V185.946H246.119V184.502H229.418ZM238.671 185.072L237.246 185.414C238.671 190.525 241.255 194.534 245.359 196.472C245.606 196.073 246.081 195.465 246.442 195.142C242.49 193.508 239.906 189.67 238.671 185.072ZM236.999 179.049C236.961 183.609 237.113 191.798 229.038 195.313C229.437 195.598 229.893 196.111 230.121 196.491C238.424 192.691 238.462 184.027 238.538 179.049H236.999ZM251.268 194.743V195.921H268.311V194.743H251.268ZM251.363 182.412V183.59H268.197V182.412H251.363ZM252.674 191.969V193.109H267.095V191.969H252.674ZM258.982 180.493V195.313H260.407V180.493H258.982ZM265.594 179.144C262.592 179.695 257.215 180.037 252.788 180.151C252.921 180.455 253.092 180.949 253.092 181.291C257.538 181.196 262.953 180.873 266.354 180.246L265.594 179.144ZM254.669 188.15H264.948V189.613H254.669V188.15ZM254.669 185.756H264.948V187.2H254.669V185.756ZM253.282 184.73V190.639H266.392V184.73H253.282ZM280.148 180.835V182.013H289.781V180.835H280.148ZM280.167 188.131V189.347H289.819V188.131H280.167ZM281.953 182.336C282.219 183.058 282.504 184.027 282.599 184.635L283.891 184.331C283.777 183.761 283.473 182.811 283.15 182.108L281.953 182.336ZM287.197 182.032C286.969 182.849 286.532 184.065 286.152 184.825L287.349 185.072C287.71 184.35 288.166 183.286 288.565 182.298L287.197 182.032ZM279.939 184.464V187.504H281.212V185.623H288.926V187.485H290.256V184.464H279.939ZM283.131 191.152V192.349H288.28V191.152H283.131ZM287.824 191.152V191.342C287.634 193.85 287.425 194.838 287.121 195.123C286.988 195.275 286.817 195.294 286.532 195.294C286.228 195.294 285.411 195.294 284.594 195.199C284.784 195.541 284.917 196.054 284.936 196.415C285.81 196.472 286.665 196.472 287.102 196.434C287.596 196.415 287.938 196.301 288.242 195.997C288.679 195.541 288.926 194.401 289.154 191.703C289.173 191.513 289.192 191.152 289.192 191.152H287.824ZM282.979 188.568C282.789 191.95 282.257 194.23 279.217 195.446C279.502 195.693 279.863 196.187 280.015 196.491C283.397 195.066 284.081 192.425 284.309 188.568H282.979ZM284.1 179.068C284.347 179.866 284.594 180.911 284.651 181.538L286.019 181.291C285.943 180.683 285.677 179.657 285.411 178.897L284.1 179.068ZM284.081 186.402C284.328 187.105 284.556 188.036 284.632 188.606L286.019 188.34C285.943 187.789 285.677 186.877 285.411 186.193L284.081 186.402ZM273.175 180.056V181.367H279.445V180.056H273.175ZM275.113 185.908V187.181H277.944V192.843H275.113V194.116H279.084V185.908H275.113ZM275.664 180.683C275.17 183.856 274.277 186.82 272.852 188.758C273.08 189.138 273.384 189.955 273.479 190.278C275.17 188.017 276.253 184.559 276.918 180.968L275.664 180.683ZM274.486 185.908V195.655H275.645V185.908H274.486ZM299.129 187.447V188.625H308.553V187.447H299.129ZM298.768 190.696V191.912H308.952V190.696H298.768ZM305.095 187.827V196.168H306.387V187.827H305.095ZM301.2 187.884V191.342C301.2 192.387 300.801 194.401 298.882 195.579C299.205 195.769 299.642 196.168 299.832 196.434C301.979 194.99 302.435 192.501 302.435 191.342V187.884H301.2ZM296.773 182.488V183.514H302.112V182.488H296.773ZM305.532 182.488V183.514H310.909V182.488H305.532ZM310.358 179.847V194.667C310.358 194.952 310.263 195.066 309.959 195.066C309.655 195.085 308.629 195.085 307.584 195.047C307.793 195.446 307.983 196.111 308.04 196.491C309.484 196.491 310.434 196.472 311.004 196.225C311.574 195.978 311.764 195.522 311.764 194.667V179.847H310.358ZM296.887 179.847V180.949H301.637V185.167H296.887V186.25H302.986V179.847H296.887ZM311.042 179.847H304.658V186.269H311.042V185.186H306.026V180.949H311.042V179.847ZM296.032 179.847V196.529H297.438V179.847H296.032ZM326.603 184.749V185.87H330.555V184.749H326.603ZM325.197 190.259V191.285H331.771V190.259H325.197ZM319.022 179.847V181.006H324.342V179.847H319.022ZM323.943 179.847V180.075C322.784 182.659 319.763 184.692 316.913 185.547C317.179 185.794 317.521 186.288 317.692 186.611C320.77 185.547 323.905 183.419 325.33 180.227L324.437 179.79L324.19 179.847H323.943ZM326.945 179.068L325.786 179.429C327.325 182.754 330.232 185.262 333.861 186.383C334.07 186.041 334.431 185.547 334.735 185.262C331.201 184.331 328.313 182.013 326.945 179.068ZM330.821 179.163C330.137 179.942 328.883 181.006 328.009 181.652L328.845 182.317C329.757 181.69 330.954 180.778 331.885 179.904L330.821 179.163ZM333.101 181.082C332.398 181.823 331.106 182.887 330.194 183.514L331.068 184.179C331.999 183.59 333.234 182.678 334.146 181.804L333.101 181.082ZM319.82 184.806V185.946H322.993V189.062H324.285V184.806H319.82ZM319.193 187.941C319.041 189.29 318.775 191.019 318.528 192.14H319.763C319.972 191.057 320.219 189.347 320.39 187.941H319.193ZM322.993 191.038V191.228C322.803 193.698 322.594 194.705 322.252 194.99C322.1 195.142 321.91 195.161 321.549 195.161C321.188 195.161 320.162 195.142 319.117 195.047C319.326 195.389 319.497 195.902 319.535 196.282C320.561 196.339 321.568 196.358 322.062 196.32C322.632 196.282 322.993 196.168 323.335 195.845C323.791 195.389 324.019 194.249 324.266 191.608C324.285 191.418 324.304 191.038 324.304 191.038H322.993ZM326.09 184.749V186.231C326.09 187.143 325.843 188.188 324.323 189.005C324.589 189.176 325.045 189.632 325.235 189.898C326.926 188.91 327.325 187.485 327.325 186.25V184.749H326.09ZM331.467 190.259V190.449C330.365 193.166 327.439 194.819 324.304 195.484C324.532 195.75 324.817 196.225 324.95 196.529C328.389 195.674 331.448 193.888 332.759 190.525L331.942 190.202L331.714 190.259H331.467ZM319.744 187.941L319.554 189.062H323.468V187.941H319.744ZM319.174 191.038L318.965 192.14H323.354V191.038H319.174ZM318.509 182.108C319.402 182.659 320.447 183.476 320.941 184.065L321.815 183.191C321.302 182.64 320.219 181.842 319.345 181.329L318.509 182.108ZM329.909 184.749V187.732C329.909 188.891 330.156 189.328 331.296 189.328C331.543 189.328 332.626 189.328 332.892 189.328C333.272 189.328 333.652 189.328 333.861 189.252C333.823 188.967 333.785 188.549 333.785 188.245C333.557 188.302 333.12 188.321 332.854 188.321C332.626 188.321 331.676 188.321 331.448 188.321C331.182 188.321 331.125 188.188 331.125 187.751V184.749H329.909ZM325.197 192.235C327.515 193.546 330.593 195.446 332.132 196.567L332.873 195.636C331.277 194.515 328.18 192.691 325.9 191.456L325.197 192.235ZM347.161 189.043V196.51H348.605V189.043H347.161ZM339.96 180.455V183.21H341.29V181.671H354.628V183.21H355.996V180.455H339.96ZM339.637 183.856V185.015H356.281V183.856H339.637ZM339.428 190.62V191.855H356.471V190.62H339.428ZM351.911 182.526C350.562 186.668 346.99 188.074 339.618 188.378C339.827 188.701 340.017 189.176 340.131 189.594C347.845 189.119 351.74 187.561 353.298 182.868L351.911 182.526ZM342.031 186.877C347.161 187.675 351.892 188.758 354.647 189.784L356.053 188.834C353.013 187.827 348.054 186.706 343.209 186.003L342.031 186.877ZM346.629 179.353C347.009 179.942 347.484 180.759 347.712 181.272L349.194 180.835C348.947 180.341 348.453 179.562 348.035 178.992L346.629 179.353ZM342.031 186.877H343.608C344.862 185.794 346.705 183.932 347.845 182.298L346.458 181.861C345.394 183.514 343.494 185.585 342.031 186.877ZM344.197 192.254C343.19 193.356 341.385 194.344 339.675 194.971C340.017 195.199 340.568 195.674 340.834 195.94C342.506 195.199 344.444 194.002 345.622 192.729L344.197 192.254ZM350.087 192.957C351.835 193.793 354.001 195.104 355.065 196.035L356.11 194.99C354.989 194.078 352.785 192.824 351.056 192.045L350.087 192.957ZM361.62 179.391V180.474H370.835V179.391H361.62ZM363.748 181.519V182.45H368.821V181.519H363.748ZM363.748 183.457V184.369H368.821V183.457H363.748ZM370.93 180.17V181.367H377.01V180.17H370.93ZM368.175 179.828V187.276H369.486V179.828H368.175ZM376.573 180.17V180.417C375.509 183.039 372.621 185.053 369.904 185.908C370.17 186.174 370.531 186.63 370.721 186.953C373.685 185.889 376.668 183.761 377.96 180.55L377.067 180.113L376.82 180.17H376.573ZM361.259 185.87L361.43 186.972C363.463 186.744 366.237 186.44 368.935 186.136V185.11C366.104 185.414 363.197 185.718 361.259 185.87ZM370.55 182.64C372.944 183.837 375.889 185.699 377.314 186.991L378.302 185.984C376.82 184.692 373.818 182.906 371.481 181.766L370.55 182.64ZM375.414 187.048C372.26 187.656 366.826 188.112 362.665 188.15C362.931 188.454 363.292 189.138 363.463 189.442C367.51 189.252 373.02 188.739 376.497 188.017L375.414 187.048ZM363.102 179.828V186.288L364.394 186.136V179.828H363.102ZM369.258 188.91V196.491H370.683V188.435L369.98 188.188L369.258 188.91ZM364.527 191.893C365.496 192.729 366.693 193.945 367.282 194.705L368.099 193.85C367.529 193.128 366.294 191.988 365.306 191.171L364.527 191.893ZM365.192 189.841C364.546 191.684 363.178 193.09 361.639 193.964C361.848 194.268 362.114 194.971 362.209 195.275C363.995 194.173 365.515 192.368 366.275 190.145L365.192 189.841ZM374.844 189.081C374.198 191.171 372.83 192.786 371.234 193.774C371.424 194.078 371.709 194.781 371.804 195.085C373.647 193.85 375.148 191.874 375.927 189.385L374.844 189.081ZM375.243 190.601L374.217 190.962C374.92 192.463 376.25 194.021 377.599 194.8C377.808 194.477 378.207 194.021 378.511 193.793C377.2 193.166 375.889 191.855 375.243 190.601ZM387.954 178.973C386.871 181.481 385.066 183.875 383.109 185.395C383.432 185.623 384.002 186.136 384.249 186.383C386.187 184.711 388.125 182.127 389.36 179.391L387.954 178.973ZM392.495 182.412V190.962H393.92V182.412H392.495ZM387.004 184.578V185.737H398.86V184.578H387.004ZM387.004 187.371V188.53H398.917V187.371H387.004ZM389.018 192.881C389.246 194.021 389.398 195.503 389.398 196.396L390.804 196.187C390.785 195.332 390.576 193.888 390.329 192.767L389.018 192.881ZM392.951 192.843C393.445 193.983 393.92 195.465 394.091 196.377L395.497 196.073C395.307 195.18 394.794 193.698 394.281 192.615L392.951 192.843ZM396.827 192.729C397.777 193.907 398.841 195.541 399.297 196.548L400.703 196.054C400.19 195.028 399.088 193.432 398.138 192.292L396.827 192.729ZM385.75 192.349C385.256 193.66 384.42 195.142 383.565 195.978L384.876 196.529C385.788 195.579 386.605 194.04 387.099 192.691L385.75 192.349ZM391.811 179.429C392.305 180.284 392.818 181.424 393.027 182.127L394.338 181.538C394.129 180.854 393.597 179.771 393.084 178.954L391.811 179.429ZM386.795 190.316V191.532H399.791V190.316H386.795ZM387.498 181.69H387.004L386.092 182.602V192.216H387.498V182.925H400V181.69H387.498ZM411.932 182.26V183.761H421.812V182.26H411.932ZM410.83 193.641V195.142H422.648V193.641H410.83ZM408.075 184.217V196.472H409.5V182.83L409.481 182.792L408.075 184.217ZM410.146 179.087C409.025 182.07 407.182 184.958 405.206 186.839C405.491 187.181 405.947 187.941 406.099 188.283C408.227 186.117 410.241 182.811 411.552 179.524L410.146 179.087ZM432.813 180.607V181.785H444.745V180.607H432.813ZM432.623 189.138V190.316H444.859V189.138H432.623ZM437.411 190.81C437.886 191.57 438.494 192.634 438.779 193.261L439.881 192.786C439.596 192.197 438.969 191.171 438.456 190.43L437.411 190.81ZM435.435 191.779V194.648C435.435 195.921 435.834 196.263 437.449 196.263C437.791 196.263 439.919 196.263 440.242 196.263C441.534 196.263 441.914 195.788 442.047 193.774C441.686 193.698 441.173 193.527 440.907 193.337C440.85 194.933 440.736 195.142 440.109 195.142C439.653 195.142 437.905 195.142 437.582 195.142C436.841 195.142 436.708 195.047 436.708 194.648V191.779H435.435ZM433.573 191.665C433.231 192.805 432.623 194.306 431.863 195.199L432.984 195.826C433.744 194.838 434.295 193.299 434.694 192.083L433.573 191.665ZM441.838 191.893C442.617 193.071 443.396 194.648 443.719 195.617L444.878 195.104C444.517 194.135 443.681 192.596 442.921 191.456L441.838 191.893ZM440.812 184.236H442.845V186.82H440.812V184.236ZM437.772 184.236H439.767V186.82H437.772V184.236ZM434.789 184.236H436.708V186.82H434.789V184.236ZM433.649 183.153V187.903H444.042V183.153H433.649ZM438.095 178.973C438 180.303 437.734 182.241 437.487 183.438L438.817 183.552C439.083 182.431 439.349 180.607 439.577 179.049L438.095 178.973ZM431.559 183.172C430.457 185.319 428.747 187.58 427.132 189.043C427.398 189.347 427.835 190.031 427.987 190.316C429.697 188.625 431.578 186.041 432.851 183.628L431.559 183.172ZM431.217 179.049C430.324 180.398 428.633 182.127 427.246 183.229C427.474 183.514 427.816 184.065 427.968 184.369C429.507 183.096 431.312 181.196 432.509 179.581L431.217 179.049ZM429.925 186.725V196.529H431.274V186.25L430.59 186.041L429.925 186.725ZM456.582 191.418C458.577 190.734 459.869 189.176 459.869 187.124C459.869 185.794 459.299 184.92 458.235 184.92C457.475 184.92 456.791 185.395 456.791 186.288C456.791 187.181 457.437 187.656 458.216 187.656C458.577 187.656 458.957 187.561 459.223 187.219L458.197 185.775L458.558 187.371C458.558 188.815 457.703 189.784 456.145 190.411L456.582 191.418ZM477.596 182.032C478.812 183.438 480.047 185.395 480.541 186.706L481.909 185.965C481.358 184.673 480.142 182.792 478.869 181.405L477.596 182.032ZM471.345 192.976L471.858 194.458C473.967 193.546 476.855 192.273 479.496 191.057L479.173 189.67C476.323 190.924 473.283 192.216 471.345 192.976ZM482.745 190.468C484.569 192.33 486.849 194.895 487.913 196.472L489.129 195.351C488.008 193.793 485.652 191.323 483.847 189.537L482.745 190.468ZM485.386 180.018C484.531 188.283 482.517 192.938 475.943 195.332C476.304 195.636 476.874 196.263 477.083 196.567C483.733 193.793 485.956 188.948 486.925 180.17L485.386 180.018ZM473.663 180.075L473.986 192.634L475.449 192.577L475.126 180.018L473.663 180.075ZM497.679 195.256C500.016 195.256 502.239 193.508 502.239 190.468C502.239 187.39 500.358 186.022 498.04 186.022C497.204 186.022 496.577 186.231 495.95 186.573L496.311 182.545H501.574V181.063H494.791L494.354 187.58L495.285 188.169C496.083 187.637 496.672 187.333 497.603 187.333C499.332 187.333 500.472 188.53 500.472 190.525C500.472 192.539 499.161 193.812 497.508 193.812C495.912 193.812 494.886 193.071 494.107 192.254L493.233 193.394C494.183 194.344 495.513 195.256 497.679 195.256ZM513.671 195.256C515.552 195.256 517.072 194.572 517.984 193.641V187.789H513.405V189.252H516.35V192.9C515.818 193.394 514.849 193.698 513.842 193.698C510.859 193.698 509.206 191.513 509.206 187.998C509.206 184.521 511.011 182.355 513.823 182.355C515.229 182.355 516.122 182.944 516.825 183.666L517.794 182.526C516.977 181.69 515.704 180.816 513.785 180.816C510.099 180.816 507.401 183.552 507.401 188.036C507.401 192.558 510.023 195.256 513.671 195.256ZM533.383 190.544L534.675 189.442C533.497 188.055 531.787 186.326 530.419 185.224L529.184 186.307C530.533 187.409 532.167 189.043 533.383 190.544ZM96.057 242.99H97.843L100.294 235.2C100.807 233.642 101.244 232.122 101.7 230.507H101.776C102.232 232.122 102.669 233.642 103.163 235.2L105.614 242.99H107.457L102.745 229.063H100.769L96.057 242.99ZM98.527 238.734H104.949V237.347H98.527V238.734ZM112.5 242.99H114.267V229.063H112.5V242.99ZM123.196 237.157V238.411H136.135V237.157H123.196ZM120.745 230.298V231.609H133.171V230.298H120.745ZM126.103 233.718V234.991H134.805V233.718H126.103ZM135.527 237.157V237.385C135.223 241.166 134.862 242.667 134.425 243.104C134.254 243.256 134.064 243.294 133.703 243.294C133.342 243.294 132.43 243.294 131.48 243.18C131.708 243.56 131.86 244.111 131.879 244.51C132.867 244.548 133.817 244.567 134.292 244.529C134.862 244.491 135.223 244.358 135.584 243.997C136.192 243.37 136.553 241.793 136.895 237.784C136.933 237.575 136.952 237.157 136.952 237.157H135.527ZM131.309 239.437C131.879 240.235 132.468 241.337 132.715 242.021L133.76 241.584C133.513 240.9 132.924 239.836 132.316 239.057L131.309 239.437ZM123.101 227.6C123.842 228.398 124.64 229.519 124.963 230.26L126.293 229.652C125.913 228.93 125.077 227.847 124.336 227.087L123.101 227.6ZM125.685 239.912C126.008 241.147 126.217 242.705 126.179 243.731L127.433 243.56C127.433 242.534 127.224 240.957 126.844 239.76L125.685 239.912ZM128.478 239.741C128.953 240.786 129.409 242.173 129.542 243.085L130.72 242.762C130.568 241.869 130.093 240.52 129.599 239.475L128.478 239.741ZM123.253 239.475C122.873 240.938 122.151 242.629 121.087 243.636L122.189 244.415C123.348 243.256 124.013 241.451 124.45 239.874L123.253 239.475ZM128.858 227.03C127.414 231.951 124.488 236.815 119.776 239.494C120.023 239.798 120.384 240.368 120.555 240.71C125.59 237.727 128.573 232.711 130.302 227.391L128.858 227.03ZM132.848 230.298C132.639 231.514 132.316 233.034 132.05 234.041L133.304 234.212C133.589 233.186 133.931 231.609 134.197 230.298H132.848ZM134.273 233.718C134.083 234.934 133.76 236.473 133.475 237.499L134.767 237.651C135.033 236.625 135.356 235.029 135.622 233.718H134.273ZM143.184 230.83V232.236H158.289V230.83H143.184ZM144.058 236.416V237.803H157.491V236.416H144.058ZM142.31 242.477V243.883H159.239V242.477H142.31ZM149.967 231.951V243.199H151.506V231.951H149.967ZM148.333 227.904C149.587 228.835 151.088 230.184 151.772 231.077L153.007 230.184C152.266 229.272 150.727 227.98 149.492 227.106L148.333 227.904ZM172.71 231.096V244.529H173.945V232.388H179.683V244.396H180.975V231.096H172.71ZM173.299 236.454V237.746H180.253V236.454H173.299ZM173.299 242.173V243.465H180.253V242.173H173.299ZM176.073 227.049V231.704H176.111V242.933H177.365V231.704H177.422V227.049H176.073ZM164.217 229.101V230.374H172.083V229.101H164.217ZM164.027 239.931V241.204H172.311V239.931H164.027ZM167.542 227.049V232.236H168.834V227.049H167.542ZM167.656 232.312V237.841H167.542V244.548H168.834V237.841H168.701V232.312H167.656ZM165.832 235.58H170.62V237.328H165.832V235.58ZM165.832 232.844H170.62V234.554H165.832V232.844ZM164.73 231.78V238.392H171.741V231.78H164.73ZM187.815 230.089V231.362H192.261V241.223H187.815V242.515H193.591V230.089H187.815ZM186.96 230.089V244.035H188.29V230.089H186.96ZM187.72 235.371V236.644H192.964V235.371H187.72ZM189.867 226.992C189.715 227.98 189.354 229.424 189.031 230.336L190.171 230.621C190.551 229.766 191.026 228.455 191.406 227.277L189.867 226.992ZM196.289 230.032V231.362H202.122V230.032H196.289ZM201.628 230.032V230.336C201.362 238.715 201.058 241.869 200.431 242.553C200.222 242.8 199.994 242.857 199.614 242.857C199.177 242.857 198.037 242.838 196.802 242.743C197.068 243.123 197.239 243.712 197.277 244.13C198.341 244.187 199.462 244.225 200.108 244.149C200.773 244.092 201.21 243.921 201.628 243.37C202.388 242.439 202.654 239.494 202.958 230.773C202.958 230.564 202.958 230.032 202.958 230.032H201.628ZM196.688 226.954C196.08 229.595 195.035 232.217 193.743 233.889C194.085 234.079 194.674 234.478 194.921 234.706C196.232 232.901 197.353 230.108 198.056 227.277L196.688 226.954ZM195.814 234.972C196.859 236.359 198.132 238.24 198.702 239.399L199.918 238.639C199.31 237.518 197.999 235.675 196.916 234.326L195.814 234.972ZM211.394 228.607V244.472H212.781V228.607H211.394ZM208.183 232.388V233.737H215.593V232.388H208.183ZM211.47 232.901C210.786 235.257 209.266 238.221 207.898 239.741C208.145 240.064 208.487 240.653 208.62 241.052C210.083 239.285 211.603 235.96 212.363 233.281L211.47 232.901ZM214.434 227.296C212.99 227.942 210.501 228.493 208.354 228.835C208.506 229.158 208.696 229.633 208.772 229.956C210.938 229.652 213.56 229.139 215.308 228.455L214.434 227.296ZM212.705 233.984L212.04 234.573C212.61 235.314 214.092 237.575 214.548 238.487L215.441 237.366C215.023 236.796 213.199 234.497 212.705 233.984ZM221.844 227.03V244.491H223.25V227.03H221.844ZM215.365 239.399L215.574 240.748L225.701 239.095L225.473 237.765L215.365 239.399ZM216.904 229.196C218.025 229.956 219.355 231.096 219.963 231.894L220.951 230.963C220.305 230.165 218.956 229.082 217.816 228.36L216.904 229.196ZM216.144 234.136C217.379 234.915 218.823 236.112 219.526 236.948L220.476 235.998C219.773 235.181 218.272 234.041 217.037 233.3L216.144 234.136ZM236.569 230.032V231.362H247.038V230.032H236.569ZM236.968 234.212V235.523H245.347V234.212H236.968ZM241.053 227.03V234.953H242.459V227.03H241.053ZM238.811 235.181L237.519 235.561C239.172 240.026 242.25 243.18 246.81 244.529C247.019 244.168 247.418 243.598 247.741 243.313C243.295 242.135 240.236 239.171 238.811 235.181ZM245.233 234.212V234.459C243.846 239.152 239.837 242.097 235.486 243.218C235.752 243.522 236.113 244.13 236.246 244.51C240.901 243.104 245.043 240.007 246.658 234.554L245.765 234.155L245.499 234.212H245.233ZM230.09 237.1L230.508 238.468C232.199 237.974 234.403 237.328 236.474 236.701L236.303 235.409C234.042 236.055 231.686 236.701 230.09 237.1ZM230.337 230.868V232.217H236.303V230.868H230.337ZM232.788 227.049V242.8C232.788 243.066 232.674 243.161 232.427 243.161C232.18 243.18 231.344 243.18 230.451 243.161C230.641 243.541 230.85 244.111 230.888 244.472C232.199 244.472 232.997 244.434 233.491 244.206C234.004 243.997 234.194 243.598 234.194 242.8V227.049H232.788ZM255.284 232.692V233.604H266.513V232.692H255.284ZM256.405 230.602V231.514H265.525V230.602H256.405ZM260.205 229.557V233.243H261.535V229.557H260.205ZM260.015 236.644C258.856 237.556 256.69 238.278 254.809 238.734C255.037 238.943 255.417 239.38 255.55 239.57C257.45 239.038 259.73 238.107 261.022 237.005L260.015 236.644ZM265.544 237.575C264.898 238.069 263.758 238.772 262.922 239.209L263.682 239.703C264.537 239.342 265.62 238.772 266.475 238.164L265.544 237.575ZM257.716 235.086H264.138V236.416H257.716V235.086ZM256.5 234.326V237.176H265.392V234.326H256.5ZM253.004 227.866V244.529H254.353V229.177H267.482V244.529H268.888V227.866H253.004ZM253.84 242.42V243.712H268.261V242.42H253.84ZM260.452 238.107C262.257 239.152 264.499 240.691 265.582 241.679L266.551 241.033C265.354 240.045 263.093 238.544 261.345 237.556L260.452 238.107ZM257.26 242.23C257.545 242.04 258.039 241.888 261.573 240.9C261.535 240.691 261.535 240.273 261.554 239.988L257.735 240.919L257.203 241.356L257.26 242.23ZM257.26 242.23C257.26 241.831 258.704 241.261 258.704 241.261V238.031L257.602 238.012V240.311C257.602 240.995 257.127 241.223 256.861 241.337C256.994 241.546 257.184 241.964 257.26 242.23ZM281.694 231.457H286.064V233.642H281.694V231.457ZM280.364 230.431V234.668H287.47V230.431H280.364ZM279.49 237.005H282.017V239.817H279.49V237.005ZM278.274 235.96V240.862H283.271V235.96H278.274ZM285.779 237.005H288.439V239.817H285.779V237.005ZM284.563 235.96V240.862H289.693V235.96H284.563ZM274.588 227.923V229.196H290.624V227.923H274.588ZM275.386 228.018V239.893C275.386 242.686 276.792 243.636 279.718 243.636C280.421 243.636 286.786 243.636 288.135 243.636C289.617 243.636 291.061 243.598 291.574 243.465C291.498 243.142 291.403 242.477 291.346 242.097C290.662 242.23 289.199 242.306 288.173 242.306C286.824 242.306 280.801 242.306 279.566 242.306C277.514 242.306 276.773 241.622 276.773 240.007V228.018H275.386ZM303.468 239.418C305.463 238.734 306.755 237.176 306.755 235.124C306.755 233.794 306.185 232.92 305.121 232.92C304.361 232.92 303.677 233.395 303.677 234.288C303.677 235.181 304.323 235.656 305.102 235.656C305.463 235.656 305.843 235.561 306.109 235.219L305.083 233.775L305.444 235.371C305.444 236.815 304.589 237.784 303.031 238.411L303.468 239.418ZM324.672 236.796V238.069H335.749V236.796H324.672ZM329.004 228.645L328.358 229.69H333.925L334.267 228.645H329.004ZM331.911 234.117V242.648C331.911 242.895 331.835 242.971 331.531 242.971C331.208 242.99 330.182 243.009 329.061 242.971C329.251 243.37 329.441 243.94 329.498 244.339C331.018 244.339 331.968 244.32 332.519 244.092C333.108 243.864 333.279 243.446 333.279 242.648V234.117H331.911ZM329.859 227.011C328.757 228.569 326.648 230.165 324.368 231.077C324.634 231.305 325.052 231.723 325.261 231.97C327.598 230.906 329.878 229.234 331.246 227.429L329.859 227.011ZM326.059 239.171C327.009 240.121 328.073 241.451 328.529 242.325L329.688 241.584C329.213 240.729 328.111 239.456 327.161 238.544L326.059 239.171ZM327.731 230.089C328.89 231.02 330.144 232.35 330.695 233.262L331.664 232.559C331.075 231.628 329.783 230.336 328.643 229.462L327.731 230.089ZM319.732 232.521V233.775H323.38V232.521H319.732ZM318.326 236.587V237.841H323.323V236.587H318.326ZM322.715 227.049V244.51H324.045V227.049H322.715ZM319.143 227.79V233.775H320.416V227.79H319.143ZM319.371 237.062V238.259C319.371 239.741 319.2 242.116 318.155 243.864C318.497 243.997 319.01 244.32 319.257 244.548C320.435 242.648 320.625 239.95 320.625 238.297V237.062H319.371ZM333.754 228.645V228.892C332.329 232.407 328.472 234.706 324.729 235.58C324.976 235.865 325.299 236.34 325.432 236.663C329.46 235.542 333.45 233.167 335.141 229.025L334.267 228.588L334.02 228.645H333.754ZM324.767 232.711L324.995 233.775C326.154 233.623 327.484 233.433 328.871 233.224L328.795 232.217C327.256 232.426 325.831 232.616 324.767 232.711ZM351.918 229.139V239.646H353.248V229.139H351.918ZM355.509 227.125V242.629C355.509 242.952 355.376 243.047 355.053 243.066C354.749 243.085 353.723 243.085 352.564 243.047C352.754 243.465 352.963 244.092 353.039 244.472C354.597 244.472 355.547 244.434 356.098 244.206C356.649 243.959 356.877 243.522 356.877 242.629V227.125H355.509ZM342.76 235.2V236.15H349.125V235.2H342.76ZM343.634 242.477V243.598H349.505V242.477H343.634ZM341.943 232.92V235.485C341.943 237.651 341.753 240.786 340.233 243.104C340.594 243.237 341.183 243.503 341.449 243.731C342.988 241.318 343.273 237.86 343.273 235.485V232.92H341.943ZM342.741 232.92V233.984H348.422V237.461H342.665V238.525H349.733V232.92H342.741ZM343.083 239.399V244.396H344.318V240.463H348.916V244.358H350.189V239.399H343.083ZM345.648 227.182C344.489 229.082 342.38 230.716 340.271 231.723C340.518 232.027 340.917 232.73 341.069 233.034C343.311 231.818 345.61 229.899 346.959 227.657L345.648 227.182ZM345.211 228.74C346.826 229.728 349.011 231.172 350.094 232.084L350.854 230.906C349.771 230.032 347.529 228.664 345.952 227.733L345.211 228.74ZM344.014 231.02V231.97H348.023V231.02H344.014ZM369.892 229.424V230.678H378.746V229.424H369.892ZM367.688 233.11V234.345H379.487V233.11H367.688ZM370.31 227.296C369.74 229.063 368.771 230.811 367.612 231.97C367.954 232.122 368.524 232.445 368.809 232.654C369.892 231.4 370.956 229.519 371.602 227.581L370.31 227.296ZM373.008 227.049V233.908H374.414V227.049H373.008ZM363.223 227.695C364.059 228.626 365.123 229.956 365.636 230.754L366.738 229.975C366.206 229.196 365.161 227.98 364.287 227.068L363.223 227.695ZM362.539 231.419V232.616H366.586V231.419H362.539ZM365.921 240.14L364.971 240.577C366.396 243.712 368.885 244.244 373.331 244.244C375.421 244.244 377.815 244.187 379.601 244.092C379.677 243.693 379.867 243.028 380.076 242.724C378.138 242.876 375.345 242.971 373.35 242.971C369.569 242.971 367.099 242.629 365.921 240.14ZM366.111 236.169V236.416C365.579 239.893 364.154 242.287 362.159 243.579C362.444 243.788 362.919 244.263 363.109 244.567C365.199 243.123 366.757 240.444 367.403 236.397L366.681 236.131L366.453 236.169H366.111ZM362.805 237.594C362.938 237.442 363.432 237.328 363.926 237.328H366.548V236.169H363.489L362.805 236.511V237.594ZM362.805 237.594C362.805 237.233 363.869 236.701 363.869 236.701C364.933 235.485 366.643 233.034 367.517 231.742L366.586 231.343L366.149 231.514L366.168 231.571C365.541 232.578 363.755 235.162 363.166 235.732C362.862 236.112 362.558 236.245 362.273 236.321C362.425 236.606 362.71 237.271 362.805 237.594ZM370.576 237.043H376.789V240.102H370.576V237.043ZM369.189 235.846V241.299H378.214V235.846H369.189ZM397.86 228.816V242.439C397.86 242.838 397.727 242.971 397.309 242.99C396.853 243.009 395.314 243.028 393.775 242.952C394.003 243.37 394.288 244.073 394.383 244.491C396.264 244.491 397.594 244.472 398.354 244.225C399.095 243.997 399.342 243.503 399.342 242.477V228.816H397.86ZM386.688 232.616V241.223H388.075V232.616H386.688ZM387.277 232.616V233.965H393.053V238.335H387.277V239.703H394.478V232.616H387.277ZM384.731 228.379V229.823H401.679V228.379H384.731ZM408.899 237.955V238.962H414.96V237.955H408.899ZM408.899 240.14V241.128H415.074V240.14H408.899ZM408.747 242.477V243.522H415.321V242.477H408.747ZM411.502 236.454V242.724H412.661V236.454H411.502ZM408.082 231.704H409.735V233.357H408.082V231.704ZM407.189 230.849V234.212H410.666V230.849H407.189ZM412.585 231.704H414.276V233.338H412.585V231.704ZM411.673 230.83V234.193H415.188V230.83H411.673ZM409.127 235.77H409.013L408.025 236.967V244.51H409.127V236.815H415.359V235.77H409.127ZM408.899 234.307C408.31 235.846 407.341 237.328 406.315 238.373C406.524 238.601 406.885 239.114 406.999 239.323C408.101 238.164 409.203 236.378 409.887 234.63L408.899 234.307ZM411.122 234.782C411.464 235.295 411.806 235.979 411.939 236.454L412.889 235.96C412.775 235.523 412.395 234.839 412.034 234.364L411.122 234.782ZM406.41 228.227V229.329H409.754V228.227H406.41ZM409.184 227.049V230.488H410.343V227.049H409.184ZM412.091 227.049V230.488H413.269V227.049H412.091ZM412.642 228.227V229.31H415.796V228.227H412.642ZM417.373 232.084H421.933V233.965H417.373V232.084ZM417.373 235.143H421.933V237.043H417.373V235.143ZM417.373 229.025H421.933V230.906H417.373V229.025ZM416.138 227.752V238.335H423.206V227.752H416.138ZM420.242 237.803V242.686C420.242 243.959 420.489 244.339 421.572 244.339C421.8 244.339 422.37 244.339 422.598 244.339C423.548 244.339 423.871 243.712 423.947 241.052C423.624 240.957 423.092 240.748 422.864 240.539C422.826 242.876 422.769 243.123 422.446 243.123C422.313 243.123 421.857 243.123 421.743 243.123C421.458 243.123 421.439 243.066 421.439 242.667V237.803H420.242ZM417.829 237.841C417.658 240.368 417.107 242.363 414.789 243.484C415.093 243.712 415.492 244.225 415.663 244.548C418.209 243.199 418.874 240.862 419.121 237.841H417.829ZM438.178 227.429C438.805 228.436 439.489 229.766 439.755 230.602L441.123 230.051C440.838 229.215 440.116 227.923 439.47 226.954L438.178 227.429ZM433.181 227.106C432.098 229.994 430.331 232.844 428.431 234.687C428.697 235.029 429.134 235.789 429.267 236.131C431.338 234.003 433.295 230.754 434.549 227.543L433.181 227.106ZM431.148 232.008V244.491H432.592V230.602L432.554 230.583L431.148 232.008ZM434.207 230.754V232.122H445.759V230.754H434.207ZM434.853 236.321V237.689H445.208V236.321H434.853ZM433.713 242.496V243.864H446.044V242.496H433.713ZM439.242 231.229V243.313H440.686V231.229H439.242ZM452.542 228.056V233.604C452.542 236.625 452.371 240.824 450.414 243.788C450.775 243.94 451.402 244.301 451.668 244.548C453.701 241.451 453.967 236.796 453.967 233.604V228.056H452.542ZM453.473 228.056V229.329H465.12V231.438H453.473V232.711H466.545V228.056H453.473ZM453.435 234.82V236.131H467.647V234.82H453.435ZM456.152 242.572V243.845H465.538V242.572H456.152ZM460.047 232.616V238.829H461.453V232.616H460.047ZM455.411 238.354V244.51H456.798V239.627H464.797V244.472H466.222V238.354H455.411ZM474.107 227.847V228.93H488.528V227.847H474.107ZM480.567 228.208V235.656H481.973V228.208H480.567ZM473.271 230.336V234.44H474.639V231.457H487.996V234.44H489.421V230.336H473.271ZM474.981 234.725L475.399 235.827C476.634 235.599 478.078 235.295 479.56 234.991L479.522 234.079C477.812 234.345 476.178 234.592 474.981 234.725ZM475.456 232.559C476.71 232.806 478.306 233.3 479.142 233.661L479.56 232.806C478.705 232.426 477.109 232.008 475.874 231.799L475.456 232.559ZM486.609 231.704C485.697 232.046 484.082 232.616 482.999 232.863L483.512 233.604C484.614 233.357 486.153 232.996 487.255 232.521L486.609 231.704ZM482.752 234.858C484.253 235.067 486.191 235.523 487.236 235.884L487.54 234.915C486.495 234.554 484.576 234.136 483.094 233.984L482.752 234.858ZM473.062 236.226V237.385H489.668V236.226H473.062ZM478.705 239.494V244.377H480.035V239.494H478.705ZM482.923 239.494V244.377H484.234V239.494H482.923ZM474.544 238.753V244.491H475.893V239.931H487.578V238.753H474.544ZM487.217 238.753V243.085C487.217 243.256 487.16 243.313 486.951 243.332C486.742 243.351 486.096 243.351 485.336 243.332C485.507 243.674 485.716 244.168 485.773 244.51C486.818 244.51 487.521 244.529 487.996 244.301C488.49 244.092 488.585 243.75 488.585 243.104V238.753H487.217ZM480.605 236.663C480.472 237.442 480.13 238.582 479.845 239.361L481.099 239.494C481.422 238.791 481.821 237.746 482.163 236.72L480.605 236.663ZM495.102 230.222V231.609H511.727V230.222H495.102ZM503.956 231.457L502.835 231.799C504.393 236.72 507.205 240.995 511.195 242.933C511.442 242.534 511.898 241.983 512.24 241.679C508.307 240.007 505.381 235.941 503.956 231.457ZM509.675 232.483C508.668 233.87 506.882 235.713 505.59 236.796L506.597 237.575C507.927 236.511 509.656 234.801 510.91 233.357L509.675 232.483ZM505.837 228.056C507.034 228.683 508.554 229.652 509.295 230.336L510.207 229.31C509.409 228.664 507.889 227.752 506.692 227.163L505.837 228.056ZM496.09 233.49C497.306 234.573 498.655 236.093 499.244 237.138L500.403 236.283C499.795 235.257 498.389 233.775 497.192 232.749L496.09 233.49ZM502.607 227.087V242.591C502.607 242.952 502.474 243.047 502.132 243.066C501.752 243.085 500.517 243.085 499.187 243.047C499.415 243.484 499.643 244.149 499.719 244.548C501.391 244.548 502.531 244.529 503.177 244.263C503.804 244.035 504.07 243.598 504.07 242.591V227.087H502.607ZM494.684 241.318L495.596 242.591C497.762 241.337 500.726 239.57 503.424 237.898L503.006 236.701C500.023 238.411 496.698 240.273 494.684 241.318ZM525.483 232.901C523.887 232.901 522.576 234.193 522.576 235.789C522.576 237.404 523.887 238.696 525.483 238.696C527.079 238.696 528.371 237.404 528.371 235.789C528.371 234.193 527.079 232.901 525.483 232.901ZM525.483 237.727C524.419 237.727 523.545 236.872 523.545 235.789C523.545 234.744 524.419 233.87 525.483 233.87C526.547 233.87 527.402 234.744 527.402 235.789C527.402 236.872 526.547 237.727 525.483 237.727Z" fill="black"/>
<path d="M96.56 25.74L95.91 24.31C100.16 22.14 103.64 19.88 105.2 14.46H97.3V12.51H105.68C105.9 11.21 106.07 9.73004 106.11 8.08004H102.94C101.72 9.73004 100.42 11.21 99.25 12.2L98.17 11.12C99.99 8.38004 101.55 4.52004 102.25 1.04004L106.42 2.12004C105.9 3.34004 105.12 4.73004 104.25 6.11004H116.67V8.06004H110.12C110.03 9.67004 109.9 11.14 109.64 12.49H117.63V14.44H109.11C108.98 14.87 108.81 15.31 108.68 15.74C111.85 16.74 114.97 18.13 117.1 19.52L114.8 22.95C113.06 21.26 110.63 19.3 107.9 17.39C105.64 21.56 101.74 23.99 96.57 25.72L96.56 25.74ZM103.38 23.66H127.86V41.5H124.04V38.72H107.2V41.72H103.38V23.66ZM107.2 29.87H124.04V25.62H107.2V29.87ZM107.2 36.77H124.04V31.82H107.2V36.77ZM132.9 5.34004V21.88H129.17V18.93H122.18V22.32H118.45V5.34004H132.91H132.9ZM129.17 16.97V7.29004H122.18V16.97H129.17Z" fill="#D08421"/>
<path d="M148.26 29.8704L149.74 30.3004C149.18 34.1604 147.61 37.9404 145.31 40.5904L142.01 37.5904C144.75 35.6804 147.13 33.5104 148.26 29.8604V29.8704ZM171.83 24.2704H142.53V22.3204H171.83V20.2804H146.74V18.5004H175.57V22.3204H180.48V24.2704H175.57V28.3504H146.48V26.5704H171.83V24.2704ZM150.6 14.8104H143.31V13.0304H150.6V10.6004H144.78V8.82043H150.6V6.56043H143.83V4.78043H150.6V1.69043H154.25V4.78043H159.98V6.56043H154.25V8.82043H159.5V10.6004H154.25V13.0304H159.98V14.8104H154.25V17.4104H150.6V14.8104ZM170.96 31.5704C172.91 38.1204 171.26 39.9504 167.66 40.3804C165.1 40.6804 161.5 40.7704 158.8 40.5504C154.81 40.2504 152.24 39.8604 152.24 36.6404V29.6104H156.06V34.6004C156.06 36.3404 156.67 36.9004 159.1 37.0704C162.01 37.2904 164.92 37.2004 166.78 36.9404C168.91 36.6404 169.34 36.1604 169.38 31.5604H170.94L170.96 31.5704ZM158.28 30.7904L158.84 29.3604C161.14 29.8404 163.92 30.4904 166.87 32.2304L164.74 35.6204C162.92 33.9704 160.49 32.1904 158.27 30.8004L158.28 30.7904ZM167.96 14.8204H161.62V13.0404H167.96V10.6104H162.49V8.83043H167.96V6.57043H161.62V4.79043H167.96V1.69043H171.61V4.78043H178.69V6.56043H171.61V8.82043H178.04V10.6004H171.61V13.0304H179.69V14.8104H171.61V17.4104H167.96V14.8104V14.8204ZM180.85 36.8704L177.42 39.4704C175.86 36.1304 174.42 33.7004 172.47 30.7004L173.6 29.7904C175.77 31.3104 178.51 33.6504 180.85 36.8704Z" fill="#D08421"/>
<path d="M199.35 20.3202V41.9402H195.62V23.0502C194.01 26.7802 191.84 30.4302 188.67 33.8602L187.59 32.8602C190.93 28.0402 193.41 21.5702 194.88 15.2402H188.37V13.2902H195.62V6.99023C193.23 7.42023 190.89 7.73023 188.89 7.90023L188.59 6.42023C193.45 5.29023 198.01 3.82023 202.44 0.990234L205.52 4.38023C203.7 5.07023 201.57 5.68023 199.36 6.20023V13.2802H205.52V15.2302H199.36V17.7902C201.66 19.4402 204.66 21.9602 206.09 23.6102L203.01 26.4802C202.14 24.7902 200.71 22.4402 199.36 20.3202H199.35ZM220.88 27.6602V41.5102H217.06V28.5302C212.41 29.5702 207.73 30.6102 203.08 31.5702L202.43 29.6202C207.29 28.6202 212.2 27.5802 217.06 26.5002V1.61023H220.88V25.6102C222.66 25.1802 224.48 24.7902 226.26 24.3502L226.78 26.2602C224.83 26.7402 222.83 27.2202 220.88 27.6502V27.6602ZM206.51 16.2902C209.59 18.1102 211.98 19.9402 214.5 22.7602L211.2 25.6702C209.42 22.5402 207.6 20.2402 205.43 17.4202L206.51 16.2902ZM212.2 14.2502C210.16 11.3802 208.42 9.26023 206.12 6.70023L207.08 5.53023C210.08 7.14023 212.59 8.79024 215.16 11.3502L212.21 14.2602L212.2 14.2502Z" fill="#D08421"/>
<path d="M244.4 24.7504L244.36 37.9004C244.36 41.6804 241.36 43.3703 234.81 39.1604L235.24 37.7304C239.8 38.8104 240.71 38.5603 240.71 36.5103V26.3104C238.93 27.0004 237.15 27.5704 235.33 28.1304L234.07 23.8804C236.46 23.5303 238.63 23.2304 240.71 22.8004V13.6304H234.5V11.6804H240.71V1.61035H244.44L244.4 11.6804H249.57V13.6304H244.4V22.0104C245.66 21.7104 246.96 21.3204 248.26 20.9304L248.82 22.4104C247.34 23.2804 245.87 24.0604 244.39 24.7504H244.4ZM270.53 41.4203C266.36 39.9903 262.67 38.0304 259.63 35.1304C256.03 38.1704 251.38 40.2504 245.09 41.8204L244.57 40.3404C250.43 38.2604 254.51 35.7403 257.46 32.7404C254.9 29.4804 253.03 25.3204 251.99 19.8504H249.08V17.9004H257.24V10.7404H248.56V8.79035H257.24V1.61035H261.15V8.77035H271.13V10.7204H261.15V17.8804H264.23L265.27 17.1904L269.22 19.1404C267.35 24.8304 265.23 29.1704 262.27 32.5104C265.18 34.4204 268.74 35.7204 273.17 36.8904L270.52 41.4004L270.53 41.4203ZM259.55 30.3504C261.85 27.3104 263.28 23.7904 264.41 19.8404H253.56C254.95 24.4904 256.86 27.8304 259.55 30.3504Z" fill="#D08421"/>
<path d="M319.24 33.8204L316.29 38.9004C311.6 36.5104 304.96 31.0004 301.49 23.7504V42.0303H297.32V23.9204C293.89 30.0004 287.16 35.6003 280.74 38.8503L279.87 37.4203C286.99 32.6003 291.68 27.1304 294.8 21.4004H281.3V19.0104H297.32V12.1504H284.34V9.98035H297.32V1.61035H301.49V9.99035H314.3V12.1604H301.49V19.0204H317.6V21.4104H302.28C306.58 27.6203 313.57 31.8304 319.25 33.8204H319.24Z" fill="#D08421"/>
<path d="M364.38 34.3005L361.51 39.0805C355.78 35.7805 350.96 31.3105 347.31 24.5805V41.9005H343.32V26.1405C339.93 30.7805 334.2 35.9905 327.13 39.1605L326.44 37.7305C331.74 34.7805 338.16 28.5305 341.55 22.9705L339.16 24.6205C338.34 22.4905 337.38 20.5005 336.56 18.8505C335.13 22.5805 332.91 25.8805 328.96 29.0105L327.92 27.8405C332.04 22.9805 333.61 18.1205 334.13 11.4705L338.25 12.2505C337.99 13.7705 337.69 15.2005 337.29 16.5905C339.03 18.2005 340.98 20.1505 342.15 21.9305C342.63 21.0605 343.02 20.2405 343.32 19.4605V10.2505H328V7.86047H343.32V1.48047H347.31V7.86047H362.81V10.2505H347.31V21.1005C347.87 21.8805 348.44 22.6205 349 23.2705C351.34 19.7505 352.47 16.5005 353.17 11.3805L357.25 12.4205C356.77 14.0305 356.25 15.5005 355.64 16.8505C358.2 18.6705 360.59 20.8905 362.02 22.5405L358.98 25.3605C357.72 23.1005 356.2 20.7105 354.73 18.7205C353.47 21.1105 351.99 23.0205 350.17 24.6705C354.34 29.3605 358.68 32.0505 364.37 34.3105L364.38 34.3005Z" fill="#D08421"/>
<path d="M405 39.72C403.52 38.46 402.35 36.68 401.4 34.51C398.66 37.64 395.23 40.02 390.94 41.72L390.24 40.37C394.62 38.07 397.79 34.94 400.23 31.17C398.49 25.14 398.06 17.5 397.93 10.85H389.55V17.62H397.02C397.02 21.01 397.24 26.91 396.8 30.25C396.28 34.42 393.15 34.85 389.03 31.68L389.51 30.42C392.46 31.11 392.9 31.2 393.2 29.81C393.33 29.25 393.5 25.34 393.46 19.57H389.55V21.78C389.55 30.9 386.64 36.93 381.34 41.75L380.26 40.71C383.52 37.11 385.08 31.81 385.6 26.38C381.74 29.29 378.39 31.33 373.44 33.85L371.7 29.64C373.13 29.34 374.87 28.86 376.82 28.21V15.59H372.26V13.64H376.82V2.61002L380.55 2.57002V13.59L384.93 13.63V15.58L380.55 15.54V26.91C381.94 26.35 383.33 25.74 384.67 25.09L385.58 26.39C385.71 24.83 385.8 23.26 385.8 21.74V8.90002H397.91V1.52002H401.47V8.90002H406.33C405.51 7.25002 404.16 5.25002 402.77 3.47002L403.81 2.26002C405.94 3.47002 408.06 5.13002 409.71 6.69002L407.06 8.90002H409.97V10.85H401.5C401.54 15.97 401.85 21.53 402.67 26.26C404.19 22.66 405.23 18.62 405.97 14.24L409.83 15.37C408.53 21.66 406.66 26.92 403.88 31.17C404.4 32.73 405.05 34.08 405.79 35.16C407.87 38.24 408.79 36.42 408.79 30.69H410.18C412.87 38.98 409.66 43.67 404.97 39.72H405Z" fill="#D08421"/>
<path d="M95 78.4006V68.6206H96.56V78.4006H95Z" fill="#969696"/>
<path d="M107.52 74.1602V78.4002H105.96V74.3302C105.96 73.9802 105.96 73.6501 105.93 73.2701C105.86 72.4201 105.41 71.8202 104.34 71.8202C103.27 71.8202 102.38 72.6701 102.38 75.0201V78.3902H100.82V70.8602H102.38V72.1102L102.89 71.2402C103.49 70.7902 104.04 70.6602 104.79 70.6602C106.41 70.6602 107.33 71.5002 107.47 72.8102C107.5 73.1902 107.51 73.5302 107.51 74.1402L107.52 74.1602Z" fill="#969696"/>
<path d="M113.54 75.9604C113.54 76.2204 113.54 76.3904 113.55 76.5804C113.61 77.3204 113.89 77.4704 114.91 77.3704V78.4504C114.51 78.5104 114.14 78.5404 113.76 78.5404C112.58 78.5404 112.07 78.1004 112 77.1104C111.99 76.8604 111.99 76.5304 111.99 76.1004V72.0204H110.93V70.9304H111.99V69.1304H113.53V70.9304H115V72.0204H113.53V75.9604H113.54Z" fill="#969696"/>
<path d="M124.98 75.0704H119.58C119.71 76.8704 120.53 77.4704 121.55 77.4704C122.46 77.4704 123.17 76.9204 123.32 75.9704H124.89C124.56 77.7604 123.13 78.6104 121.49 78.6104C119.48 78.6104 117.96 77.3304 117.96 74.6704C117.96 72.2904 119.48 70.6904 121.65 70.6904C123.82 70.6904 125.01 72.3304 125.01 74.4604C125.01 74.6004 125.01 74.8104 124.98 75.0804V75.0704ZM119.59 73.9804H123.4C123.29 72.5904 122.68 71.8104 121.59 71.8104C120.5 71.8104 119.76 72.5304 119.59 73.9804Z" fill="#969696"/>
<path d="M130.26 76.1005C130.26 76.3605 130.26 76.5805 130.27 76.8105C130.3 77.2405 130.5 77.3805 131.16 77.3205V78.4105C130.85 78.4505 130.49 78.4805 130.14 78.4805C129.32 78.4805 128.77 78.1805 128.71 77.2205C128.7 76.9405 128.7 76.6005 128.7 76.1405V67.9805H130.26V76.1005Z" fill="#969696"/>
<path d="M136.24 76.1005C136.24 76.3605 136.24 76.5805 136.25 76.8105C136.28 77.2405 136.48 77.3805 137.14 77.3205V78.4105C136.83 78.4505 136.47 78.4805 136.12 78.4805C135.3 78.4805 134.75 78.1805 134.69 77.2205C134.68 76.9405 134.68 76.6005 134.68 76.1405V67.9805H136.24V76.1005Z" fill="#969696"/>
<path d="M142.42 69.1405C142.42 69.6605 142.02 70.0505 141.5 70.0505C140.98 70.0505 140.59 69.6705 140.59 69.1405C140.59 68.6105 140.97 68.2505 141.5 68.2505C142.03 68.2505 142.42 68.6305 142.42 69.1405ZM140.72 78.4005V70.8705H142.28V78.4005H140.72Z" fill="#969696"/>
<path d="M153.46 76.5304C153.46 77.0004 153.46 77.5804 153.45 77.9904C153.37 80.2704 151.95 81.4204 149.68 81.4204C147.41 81.4204 146.36 80.5104 146.21 78.9004V78.7604H147.73V78.8904C147.84 79.7004 148.54 80.2504 149.7 80.2504C151.06 80.2504 151.84 79.5104 151.9 78.1704C151.91 77.8404 151.91 77.5804 151.91 77.3104V77.1504L151.34 77.9704C150.91 78.3104 150.18 78.5404 149.41 78.5404C147.24 78.5404 145.98 76.9504 145.98 74.7404C145.98 71.9904 147.68 70.6904 149.62 70.6904C150.24 70.6904 151.02 70.8604 151.41 71.1604L151.91 71.9104V70.8904H153.47V76.5504L153.46 76.5304ZM151.9 74.6404V74.3104C151.9 72.4804 150.79 71.8004 149.79 71.8004C148.56 71.8004 147.62 72.7104 147.62 74.5804C147.62 76.2104 148.37 77.3904 149.72 77.3904C150.9 77.3904 151.9 76.6504 151.9 74.6404Z" fill="#969696"/>
<path d="M164.18 75.0704H158.78C158.91 76.8704 159.73 77.4704 160.75 77.4704C161.66 77.4704 162.37 76.9204 162.52 75.9704H164.09C163.76 77.7604 162.33 78.6104 160.69 78.6104C158.68 78.6104 157.16 77.3304 157.16 74.6704C157.16 72.2904 158.68 70.6904 160.85 70.6904C163.02 70.6904 164.21 72.3304 164.21 74.4604C164.21 74.6004 164.21 74.8104 164.18 75.0804V75.0704ZM158.79 73.9804H162.6C162.49 72.5904 161.88 71.8104 160.79 71.8104C159.7 71.8104 158.96 72.5304 158.79 73.9804Z" fill="#969696"/>
<path d="M174.65 74.1602V78.4002H173.09V74.3302C173.09 73.9802 173.09 73.6501 173.06 73.2701C172.99 72.4201 172.54 71.8202 171.47 71.8202C170.4 71.8202 169.51 72.6701 169.51 75.0201V78.3902H167.95V70.8602H169.51V72.1102L170.02 71.2402C170.62 70.7902 171.17 70.6602 171.92 70.6602C173.54 70.6602 174.46 71.5002 174.6 72.8102C174.63 73.1902 174.64 73.5302 174.64 74.1402L174.65 74.1602Z" fill="#969696"/>
<path d="M185.18 73.4804H183.61C183.38 72.3304 182.77 71.8104 181.85 71.8104C180.76 71.8104 179.89 72.6804 179.89 74.5604C179.89 76.6004 180.74 77.4704 181.79 77.4704C182.68 77.4704 183.32 76.9304 183.55 75.9104H185.14C184.79 77.7104 183.48 78.6004 181.71 78.6004C179.74 78.6004 178.25 77.3504 178.25 74.6704C178.25 71.9904 179.92 70.6704 181.89 70.6704C183.86 70.6704 184.99 71.8204 185.18 73.4804Z" fill="#969696"/>
<path d="M195.25 75.0704H189.85C189.98 76.8704 190.8 77.4704 191.82 77.4704C192.73 77.4704 193.44 76.9204 193.59 75.9704H195.16C194.83 77.7604 193.4 78.6104 191.76 78.6104C189.75 78.6104 188.23 77.3304 188.23 74.6704C188.23 72.2904 189.75 70.6904 191.92 70.6904C194.09 70.6904 195.28 72.3304 195.28 74.4604C195.28 74.6004 195.28 74.8104 195.25 75.0804V75.0704ZM189.86 73.9804H193.67C193.56 72.5904 192.95 71.8104 191.86 71.8104C190.77 71.8104 190.03 72.5304 189.86 73.9804Z" fill="#969696"/>
<path d="M208.61 69.8506V78.4006H207.06V69.8506H203.64V68.6206H212.02V69.8506H208.6H208.61Z" fill="#969696"/>
<path d="M220.83 75.0704H215.43C215.56 76.8704 216.38 77.4704 217.4 77.4704C218.31 77.4704 219.02 76.9204 219.17 75.9704H220.74C220.41 77.7604 218.98 78.6104 217.34 78.6104C215.33 78.6104 213.81 77.3304 213.81 74.6704C213.81 72.2904 215.33 70.6904 217.5 70.6904C219.67 70.6904 220.86 72.3304 220.86 74.4604C220.86 74.6004 220.86 74.8104 220.83 75.0804V75.0704ZM215.44 73.9804H219.25C219.14 72.5904 218.53 71.8104 217.44 71.8104C216.35 71.8104 215.61 72.5304 215.44 73.9804Z" fill="#969696"/>
<path d="M230.98 73.4804H229.41C229.18 72.3304 228.57 71.8104 227.65 71.8104C226.56 71.8104 225.69 72.6804 225.69 74.5604C225.69 76.6004 226.54 77.4704 227.59 77.4704C228.48 77.4704 229.12 76.9304 229.35 75.9104H230.94C230.59 77.7104 229.28 78.6004 227.51 78.6004C225.54 78.6004 224.05 77.3504 224.05 74.6704C224.05 71.9904 225.72 70.6704 227.69 70.6704C229.66 70.6704 230.79 71.8204 230.98 73.4804Z" fill="#969696"/>
<path d="M241.28 74.1604V78.4004H239.72V74.3304C239.72 73.9804 239.72 73.6504 239.69 73.2704C239.62 72.4204 239.17 71.8104 238.1 71.8204C237.02 71.8504 236.14 72.6704 236.14 75.0204V78.3904H234.58V67.9004H236.14V72.1104L236.65 71.2404C237.25 70.7904 237.8 70.6604 238.55 70.6604C240.17 70.6604 241.09 71.5004 241.23 72.8104C241.26 73.1904 241.27 73.5304 241.27 74.1404L241.28 74.1604Z" fill="#969696"/>
<path d="M252.14 74.1602V78.4002H250.58V74.3302C250.58 73.9802 250.58 73.6501 250.55 73.2701C250.48 72.4201 250.03 71.8202 248.96 71.8202C247.89 71.8202 247 72.6701 247 75.0201V78.3902H245.44V70.8602H247V72.1102L247.51 71.2402C248.11 70.7902 248.66 70.6602 249.41 70.6602C251.03 70.6602 251.95 71.5002 252.09 72.8102C252.12 73.1902 252.13 73.5302 252.13 74.1402L252.14 74.1602Z" fill="#969696"/>
<path d="M263.36 74.6304C263.36 76.8304 262.07 78.6004 259.55 78.6004C257.03 78.6004 255.74 76.8304 255.74 74.6304C255.74 72.4304 257.02 70.6704 259.55 70.6704C262.08 70.6704 263.36 72.4304 263.36 74.6304ZM261.7 74.6304C261.7 72.9304 260.91 71.8104 259.55 71.8104C258.19 71.8104 257.38 72.9304 257.38 74.6304C257.38 76.3304 258.17 77.4604 259.55 77.4604C260.93 77.4604 261.7 76.3304 261.7 74.6304Z" fill="#969696"/>
<path d="M268.51 76.1005C268.51 76.3605 268.51 76.5805 268.52 76.8105C268.55 77.2405 268.75 77.3805 269.41 77.3205V78.4105C269.1 78.4505 268.74 78.4805 268.39 78.4805C267.57 78.4805 267.02 78.1805 266.96 77.2205C266.95 76.9405 266.95 76.6005 266.95 76.1405V67.9805H268.51V76.1005Z" fill="#969696"/>
<path d="M280.04 74.6304C280.04 76.8304 278.75 78.6004 276.23 78.6004C273.71 78.6004 272.42 76.8304 272.42 74.6304C272.42 72.4304 273.7 70.6704 276.23 70.6704C278.76 70.6704 280.04 72.4304 280.04 74.6304ZM278.38 74.6304C278.38 72.9304 277.59 71.8104 276.23 71.8104C274.87 71.8104 274.06 72.9304 274.06 74.6304C274.06 76.3304 274.85 77.4604 276.23 77.4604C277.61 77.4604 278.38 76.3304 278.38 74.6304Z" fill="#969696"/>
<path d="M290.6 76.5304C290.6 77.0004 290.6 77.5804 290.59 77.9904C290.51 80.2704 289.09 81.4204 286.82 81.4204C284.55 81.4204 283.5 80.5104 283.35 78.9004V78.7604H284.87V78.8904C284.98 79.7004 285.68 80.2504 286.84 80.2504C288.2 80.2504 288.98 79.5104 289.04 78.1704C289.05 77.8404 289.05 77.5804 289.05 77.3104V77.1504L288.48 77.9704C288.05 78.3104 287.32 78.5404 286.55 78.5404C284.38 78.5404 283.12 76.9504 283.12 74.7404C283.12 71.9904 284.82 70.6904 286.76 70.6904C287.38 70.6904 288.16 70.8604 288.55 71.1604L289.05 71.9104V70.8904H290.61V76.5504L290.6 76.5304ZM289.04 74.6404V74.3104C289.04 72.4804 287.93 71.8004 286.93 71.8004C285.7 71.8004 284.76 72.7104 284.76 74.5804C284.76 76.2104 285.51 77.3904 286.86 77.3904C288.04 77.3904 289.04 76.6504 289.04 74.6404Z" fill="#969696"/>
<path d="M298.4 78.8803C297.71 80.6703 296.9 81.3704 295.54 81.3704C295.23 81.3704 295.03 81.3704 294.8 81.3304V80.1804C294.98 80.1904 295.14 80.1904 295.3 80.1904C296.01 80.1904 296.49 79.8904 296.83 79.0104L296.94 78.7403L293.91 70.8604H295.65L297.72 77.2304L299.78 70.8604H301.47L298.41 78.8704L298.4 78.8803Z" fill="#969696"/>
<path d="M318.41 71.7704V71.9104H316.88L316.85 71.7704C316.58 70.4504 315.77 69.6104 314.3 69.6104C312.49 69.6104 311.34 71.1704 311.34 73.4804C311.34 75.9004 312.5 77.4104 314.23 77.4104C315.7 77.4104 316.51 76.5404 316.78 75.2304L316.81 75.0904H318.36V75.2304C318.15 77.1404 316.72 78.6004 314.16 78.6004C311.37 78.6004 309.65 76.5304 309.65 73.5504C309.65 70.5704 311.58 68.4204 314.33 68.4204C316.88 68.4204 318.21 69.8404 318.41 71.7704Z" fill="#969696"/>
<path d="M323.94 69.1405C323.94 69.6605 323.54 70.0505 323.02 70.0505C322.5 70.0505 322.11 69.6705 322.11 69.1405C322.11 68.6105 322.49 68.2505 323.02 68.2505C323.55 68.2505 323.94 68.6305 323.94 69.1405ZM322.24 78.4005V70.8705H323.8V78.4005H322.24Z" fill="#969696"/>
<path d="M329.92 75.9604C329.92 76.2204 329.92 76.3904 329.93 76.5804C329.99 77.3204 330.27 77.4704 331.29 77.3704V78.4504C330.89 78.5104 330.52 78.5404 330.14 78.5404C328.96 78.5404 328.45 78.1004 328.38 77.1104C328.37 76.8604 328.37 76.5304 328.37 76.1004V72.0204H327.31V70.9304H328.37V69.1304H329.91V70.9304H331.38V72.0204H329.91V75.9604H329.92Z" fill="#969696"/>
<path d="M338.61 78.8803C337.92 80.6703 337.11 81.3704 335.75 81.3704C335.44 81.3704 335.24 81.3704 335.01 81.3304V80.1804C335.19 80.1904 335.35 80.1904 335.51 80.1904C336.22 80.1904 336.7 79.8904 337.04 79.0104L337.15 78.7403L334.12 70.8604H335.86L337.93 77.2304L339.99 70.8604H341.68L338.62 78.8704L338.61 78.8803Z" fill="#969696"/>
<line x1="1.00001" y1="4" x2="1" y2="256" stroke="#D68F41" stroke-width="2"/>
</svg>
