<svg width="295" height="165" viewBox="0 0 295 165" fill="none" xmlns="http://www.w3.org/2000/svg">
<path d="M4.068 102.98H5.1V94.1845H3.888L0.228 99.8365V100.556H6.276V99.6925H1.38L3.384 96.6925C3.624 96.2605 3.864 95.8165 4.08 95.3845H4.14C4.104 95.8405 4.068 96.5485 4.068 96.9925V102.98ZM12.1883 103.148C13.5443 103.148 14.7083 101.996 14.7083 100.292C14.7083 98.4445 13.7483 97.5325 12.2603 97.5325C11.5523 97.5325 10.7363 97.9645 10.1963 98.6725L10.2323 99.5485C10.8203 98.6725 11.5283 98.3365 12.0923 98.3365C13.1483 98.3365 13.6763 99.0925 13.6763 100.292C13.6763 101.48 13.0283 102.284 12.1883 102.284C10.9523 102.284 10.2683 101.048 10.2683 98.7925C10.2683 95.9125 11.3003 94.9405 12.5363 94.9405C13.0643 94.9405 13.6043 95.1925 13.9403 95.6005L14.5523 94.9285C14.0723 94.4125 13.4003 94.0285 12.4883 94.0285C10.7843 94.0285 9.23625 95.3485 9.23625 98.7925C9.23625 101.696 10.4963 103.148 12.1883 103.148ZM24.4725 99.7045C25.4205 100.988 26.5845 102.764 27.1365 103.868L28.0365 103.376C27.4605 102.308 26.3085 100.604 25.3245 99.3205L24.4725 99.7045ZM20.9445 93.2605C20.2005 95.0845 18.9405 96.8605 17.5845 97.9765C17.8245 98.1445 18.2205 98.5165 18.3885 98.7085C19.7325 97.4725 21.0645 95.5405 21.9285 93.5605L20.9445 93.2605ZM19.0965 103.364C19.0965 103.136 19.8285 102.836 19.8285 102.836V102.812C21.2805 101.312 22.7325 99.1645 23.9325 97.0165L22.9245 96.5845C21.9165 98.6365 20.3565 100.796 19.8645 101.348C19.4085 101.912 19.0605 102.308 18.7365 102.392C18.8685 102.656 19.0365 103.16 19.0965 103.364ZM19.0965 103.364C19.5645 103.172 20.2485 103.136 27.0165 102.68C26.9565 102.476 26.8605 102.092 26.8125 101.828L19.7325 102.236L19.0725 102.596L19.0965 103.364ZM24.5205 93.2005V93.7405H24.7605C25.3965 95.6965 26.6325 97.6165 28.0845 98.7085C28.2525 98.4325 28.5765 98.0485 28.7925 97.8685C27.3765 96.9325 26.1645 95.1205 25.5885 93.2005H24.5205ZM22.6605 93.2005V94.1245H25.2885V93.2005H22.6605ZM35.7525 93.4645V94.2445H42.4365V93.4645H35.7525ZM37.2165 97.9405H41.1645V99.1045H37.2165V97.9405ZM37.2165 99.7765H41.1645V100.952H37.2165V99.7765ZM37.2165 96.1165H41.1645V97.2685H37.2165V96.1165ZM36.3645 95.4085V101.648H42.0525V95.4085H36.3645ZM38.6805 93.8485C38.5845 94.4245 38.3925 95.2525 38.2125 95.8045L39.0285 95.9605C39.2325 95.4565 39.4965 94.6765 39.7125 93.9805L38.6805 93.8485ZM37.6365 101.852C37.0365 102.368 35.8005 102.968 34.7685 103.292C34.9485 103.472 35.2125 103.748 35.3325 103.928C36.4005 103.58 37.6485 102.968 38.4165 102.356L37.6365 101.852ZM39.6285 102.392C40.4565 102.836 41.5125 103.508 42.0165 103.952L42.7365 103.412C42.1845 102.956 41.1165 102.308 40.3005 101.9L39.6285 102.392ZM32.4165 102.14C32.6565 101.924 33.0405 101.72 35.9685 100.46C35.9205 100.268 35.8485 99.9205 35.8365 99.6805L32.6925 100.964L32.3205 101.324L32.4165 102.14ZM32.5485 93.2965V100.508C32.5485 100.964 32.2005 101.24 31.9725 101.336C32.1285 101.528 32.3325 101.924 32.4165 102.14L33.4245 101.288V93.2965H32.5485ZM33.0165 96.2005V96.9805H35.8725V96.2005H33.0165ZM52.7925 92.8405V100.592H53.6805V93.6685H56.5725V92.8405H52.7925ZM59.6325 94.1125V94.9645H70.2045V94.1125H59.6325ZM62.1045 98.9245V99.6565H67.7805V98.9245H62.1045ZM61.8525 100.88V101.636H67.9965V100.88H61.8525ZM64.4325 99.2725V103.712H65.2965V99.2725H64.4325ZM60.2805 96.2245V103.928H61.1805V97.0645H68.9565V96.2245H60.2805ZM68.6445 96.2245V102.896C68.6445 103.088 68.5965 103.148 68.3805 103.16C68.1645 103.172 67.4205 103.172 66.6645 103.136C66.7965 103.364 66.9405 103.712 66.9885 103.952C67.9725 103.952 68.6565 103.94 69.0405 103.808C69.4365 103.676 69.5685 103.424 69.5685 102.896V96.2245H68.6445ZM62.7045 97.4605C63.0045 97.9045 63.3165 98.5165 63.4365 98.9245L64.1925 98.6485C64.0605 98.2525 63.7485 97.6645 63.4245 97.2325L62.7045 97.4605ZM66.3765 97.2205C66.1725 97.7365 65.8005 98.4925 65.5005 98.9845L66.1485 99.2005C66.4605 98.7445 66.8325 98.0725 67.1445 97.4485L66.3765 97.2205ZM64.4085 92.9125V96.7885H65.4045V92.9125H64.4085ZM77.7525 94.9045V95.7685H84.2325V94.9045H77.7525ZM79.8045 97.6765V98.5165H83.0085V97.6765H79.8045ZM82.6965 97.6765V97.8445C82.5645 101.264 82.4085 102.536 82.1325 102.824C82.0245 102.956 81.9045 102.992 81.7005 102.98C81.4725 102.98 80.8965 102.98 80.2845 102.92C80.4285 103.16 80.5365 103.52 80.5605 103.784C81.1485 103.82 81.7485 103.82 82.0725 103.796C82.4325 103.76 82.6725 103.664 82.9005 103.388C83.2725 102.968 83.4165 101.684 83.5725 98.0845C83.5845 97.9645 83.5845 97.6765 83.5845 97.6765H82.6965ZM79.4685 95.4805C79.4085 98.6245 79.2765 101.72 77.1285 103.34C77.3565 103.484 77.6325 103.76 77.7525 103.964C80.0565 102.152 80.2725 98.8885 80.3685 95.4805H79.4685ZM80.1285 93.1645C80.3685 93.7885 80.6325 94.6045 80.7045 95.0965L81.5685 94.8445C81.4725 94.3525 81.2085 93.5725 80.9325 92.9725L80.1285 93.1645ZM76.2885 97.6405C76.6245 98.4565 76.9725 99.5245 77.0925 100.16L77.8485 99.8845C77.7045 99.2605 77.3445 98.2165 77.0085 97.4125L76.2885 97.6405ZM75.1605 100.724C75.3165 101.552 75.4485 102.632 75.4725 103.34L76.2285 103.196C76.1925 102.476 76.0485 101.42 75.8925 100.592L75.1605 100.724ZM73.8285 100.628C73.7205 101.6 73.5405 102.68 73.2525 103.412C73.4565 103.472 73.8285 103.592 74.0085 103.688C74.2605 102.944 74.4885 101.804 74.6205 100.76L73.8285 100.628ZM73.5405 97.4005C73.5405 97.2085 74.1045 96.9445 74.1045 96.9445V96.9205C74.9205 95.9485 75.7845 94.5685 76.4325 93.2245L75.5925 92.8645C75.0765 94.1725 74.2005 95.5525 73.9365 95.9005C73.6845 96.2725 73.4565 96.5125 73.2525 96.5605C73.3485 96.7885 73.4925 97.2205 73.5405 97.4005ZM73.5405 97.4005C73.7325 97.3045 74.0685 97.2445 76.0005 97.0165C76.0005 96.8365 76.0245 96.5245 76.0725 96.3085L73.9365 96.4885L73.5165 96.7405L73.5405 97.4005ZM73.6125 100.1C73.6125 99.9205 74.1765 99.6565 74.1765 99.6565V99.6325C75.3285 98.4925 76.5045 96.8605 77.4285 95.2525L76.6605 94.7965C75.8685 96.3925 74.6205 98.0605 74.2245 98.4925C73.8525 98.9245 73.5885 99.2245 73.3245 99.2725C73.4325 99.5005 73.5645 99.9205 73.6125 100.1ZM73.6125 100.1C73.8645 99.9805 74.2485 99.8845 77.1765 99.4285C77.1645 99.2605 77.1645 98.9245 77.2005 98.6965L74.0085 99.1405L73.5885 99.4285L73.6125 100.1ZM76.4565 100.448C76.6845 101.084 76.9365 101.9 77.0325 102.44L77.7285 102.2C77.6325 101.684 77.3685 100.868 77.1165 100.244L76.4565 100.448ZM89.2965 93.8965V103.916H90.1725V93.8965H89.2965ZM87.2685 96.2845V97.1365H91.9485V96.2845H87.2685ZM89.3445 96.6085C88.9125 98.0965 87.9525 99.9685 87.0885 100.928C87.2445 101.132 87.4605 101.504 87.5445 101.756C88.4685 100.64 89.4285 98.5405 89.9085 96.8485L89.3445 96.6085ZM91.2165 93.0685C90.3045 93.4765 88.7325 93.8245 87.3765 94.0405C87.4725 94.2445 87.5925 94.5445 87.6405 94.7485C89.0085 94.5565 90.6645 94.2325 91.7685 93.8005L91.2165 93.0685ZM90.1245 97.2925L89.7045 97.6645C90.0645 98.1325 91.0005 99.5605 91.2885 100.136L91.8525 99.4285C91.5885 99.0685 90.4365 97.6165 90.1245 97.2925ZM95.8965 92.9005V103.928H96.7845V92.9005H95.8965ZM91.8045 100.712L91.9365 101.564L98.3325 100.52L98.1885 99.6805L91.8045 100.712ZM92.7765 94.2685C93.4845 94.7485 94.3245 95.4685 94.7085 95.9725L95.3325 95.3845C94.9245 94.8805 94.0725 94.1965 93.3525 93.7405L92.7765 94.2685ZM92.2965 97.3885C93.0765 97.8805 93.9885 98.6365 94.4325 99.1645L95.0325 98.5645C94.5885 98.0485 93.6405 97.3285 92.8605 96.8605L92.2965 97.3885ZM105.197 94.7965V95.6365H111.809V94.7965H105.197ZM105.449 97.4365V98.2645H110.741V97.4365H105.449ZM108.029 92.9005V97.9045H108.917V92.9005H108.029ZM106.613 98.0485L105.797 98.2885C106.841 101.108 108.785 103.1 111.665 103.952C111.797 103.724 112.049 103.364 112.253 103.184C109.445 102.44 107.513 100.568 106.613 98.0485ZM110.669 97.4365V97.5925C109.793 100.556 107.261 102.416 104.513 103.124C104.681 103.316 104.909 103.7 104.993 103.94C107.933 103.052 110.549 101.096 111.569 97.6525L111.005 97.4005L110.837 97.4365H110.669ZM101.105 99.2605L101.369 100.124C102.437 99.8125 103.829 99.4045 105.137 99.0085L105.029 98.1925C103.601 98.6005 102.113 99.0085 101.105 99.2605ZM101.261 95.3245V96.1765H105.029V95.3245H101.261ZM102.809 92.9125V102.86C102.809 103.028 102.737 103.088 102.581 103.088C102.425 103.1 101.897 103.1 101.333 103.088C101.453 103.328 101.585 103.688 101.609 103.916C102.437 103.916 102.941 103.892 103.253 103.748C103.577 103.616 103.697 103.364 103.697 102.86V92.9125H102.809ZM117.016 96.4765V97.0525H124.108V96.4765H117.016ZM117.724 95.1565V95.7325H123.484V95.1565H117.724ZM120.124 94.4965V96.8245H120.964V94.4965H120.124ZM120.004 98.9725C119.272 99.5485 117.904 100.004 116.716 100.292C116.86 100.424 117.1 100.7 117.184 100.82C118.384 100.484 119.824 99.8965 120.64 99.2005L120.004 98.9725ZM123.496 99.5605C123.088 99.8725 122.368 100.316 121.84 100.592L122.32 100.904C122.86 100.676 123.544 100.316 124.084 99.9325L123.496 99.5605ZM118.552 97.9885H122.608V98.8285H118.552V97.9885ZM117.784 97.5085V99.3085H123.4V97.5085H117.784ZM115.576 93.4285V103.952H116.428V94.2565H124.72V103.952H125.608V93.4285H115.576ZM116.104 102.62V103.436H125.212V102.62H116.104ZM120.28 99.8965C121.42 100.556 122.836 101.528 123.52 102.152L124.132 101.744C123.376 101.12 121.948 100.172 120.844 99.5485L120.28 99.8965ZM118.264 102.5C118.444 102.38 118.756 102.284 120.988 101.66C120.964 101.528 120.964 101.264 120.976 101.084L118.564 101.672L118.228 101.948L118.264 102.5ZM118.264 102.5C118.264 102.248 119.176 101.888 119.176 101.888V99.8485L118.48 99.8365V101.288C118.48 101.72 118.18 101.864 118.012 101.936C118.096 102.068 118.216 102.332 118.264 102.5ZM133.696 95.6965H136.456V97.0765H133.696V95.6965ZM132.856 95.0485V97.7245H137.344V95.0485H132.856ZM132.304 99.2005H133.9V100.976H132.304V99.2005ZM131.536 98.5405V101.636H134.692V98.5405H131.536ZM136.276 99.2005H137.956V100.976H136.276V99.2005ZM135.508 98.5405V101.636H138.748V98.5405H135.508ZM129.208 93.4645V94.2685H139.336V93.4645H129.208ZM129.712 93.5245V101.024C129.712 102.788 130.6 103.388 132.448 103.388C132.892 103.388 136.912 103.388 137.764 103.388C138.7 103.388 139.612 103.364 139.936 103.28C139.888 103.076 139.828 102.656 139.792 102.416C139.36 102.5 138.436 102.548 137.788 102.548C136.936 102.548 133.132 102.548 132.352 102.548C131.056 102.548 130.588 102.116 130.588 101.096V93.5245H129.712ZM146.62 104.012V96.2605H145.732V103.184H142.84V104.012H146.62ZM163.264 100.172L164.08 99.4765C163.336 98.6005 162.256 97.5085 161.392 96.8125L160.612 97.4965C161.464 98.1925 162.496 99.2245 163.264 100.172ZM173.429 103.148C175.001 103.148 176.261 102.2 176.261 100.64C176.261 99.4285 175.421 98.6485 174.389 98.3965V98.3485C175.325 98.0125 175.949 97.3045 175.949 96.2365C175.949 94.8325 174.869 94.0285 173.393 94.0285C172.385 94.0285 171.605 94.4725 170.945 95.0725L171.533 95.7805C172.025 95.2765 172.649 94.9165 173.357 94.9165C174.269 94.9165 174.833 95.4685 174.833 96.3085C174.833 97.2685 174.221 97.9885 172.409 97.9885V98.8405C174.437 98.8405 175.145 99.5365 175.145 100.592C175.145 101.6 174.401 102.236 173.357 102.236C172.349 102.236 171.689 101.756 171.173 101.216L170.621 101.936C171.197 102.572 172.049 103.148 173.429 103.148ZM180.505 103.148C180.949 103.148 181.309 102.8 181.309 102.308C181.309 101.804 180.949 101.468 180.505 101.468C180.073 101.468 179.725 101.804 179.725 102.308C179.725 102.8 180.073 103.148 180.505 103.148ZM187.265 103.148C188.837 103.148 190.097 102.2 190.097 100.64C190.097 99.4285 189.257 98.6485 188.225 98.3965V98.3485C189.161 98.0125 189.785 97.3045 189.785 96.2365C189.785 94.8325 188.705 94.0285 187.229 94.0285C186.221 94.0285 185.441 94.4725 184.781 95.0725L185.369 95.7805C185.861 95.2765 186.485 94.9165 187.193 94.9165C188.105 94.9165 188.669 95.4685 188.669 96.3085C188.669 97.2685 188.057 97.9885 186.245 97.9885V98.8405C188.273 98.8405 188.981 99.5365 188.981 100.592C188.981 101.6 188.237 102.236 187.193 102.236C186.185 102.236 185.525 101.756 185.009 101.216L184.457 101.936C185.033 102.572 185.885 103.148 187.265 103.148ZM196.033 103.148C197.677 103.148 198.793 102.152 198.793 100.868C198.793 99.6685 198.073 98.9965 197.305 98.5525V98.4925C197.833 98.0845 198.481 97.3045 198.481 96.3685C198.481 95.0245 197.569 94.0645 196.069 94.0645C194.689 94.0645 193.645 94.9525 193.645 96.2845C193.645 97.2085 194.197 97.8805 194.845 98.3245V98.3725C194.041 98.8045 193.225 99.6205 193.225 100.808C193.225 102.164 194.413 103.148 196.033 103.148ZM196.633 98.2165C195.601 97.8085 194.653 97.3405 194.653 96.2845C194.653 95.4445 195.241 94.8685 196.045 94.8685C196.993 94.8685 197.545 95.5645 197.545 96.4285C197.545 97.0885 197.233 97.6885 196.633 98.2165ZM196.057 102.32C195.001 102.32 194.209 101.636 194.209 100.7C194.209 99.8605 194.701 99.1645 195.421 98.7085C196.657 99.2125 197.737 99.6565 197.737 100.832C197.737 101.708 197.065 102.32 196.057 102.32ZM206.805 95.6845V102.104H207.669V95.6845H206.805ZM204.201 97.4725H210.321V98.3365H204.201V97.4725ZM204.201 95.9845H210.321V96.8485H204.201V95.9845ZM203.337 95.3365V98.9845H211.221V95.3365H203.337ZM211.161 99.7285V103.016C211.161 103.148 211.125 103.184 210.969 103.196C210.825 103.208 210.369 103.208 209.805 103.196C209.913 103.412 210.033 103.712 210.069 103.928C210.849 103.928 211.353 103.928 211.653 103.808C211.965 103.664 212.037 103.448 212.037 103.028V99.7285H211.161ZM204.189 101.888L204.249 102.68C205.677 102.608 207.753 102.5 209.757 102.38L209.769 101.648C207.693 101.756 205.569 101.84 204.189 101.888ZM208.629 100.904C209.157 101.576 209.673 102.488 209.853 103.088L210.561 102.848C210.381 102.236 209.841 101.336 209.313 100.688L208.629 100.904ZM204.669 92.9005V95.1685H205.545V92.9005H204.669ZM208.893 92.9005V95.1685H209.769V92.9005H208.893ZM201.969 93.6445V94.4125H207.021V93.6445H201.969ZM207.477 93.6445V94.4125H212.517V93.6445H207.477ZM202.077 99.7285V100.484H211.569V99.7285H202.077ZM202.569 99.2845V103.94H203.433V99.2845H202.569ZM219.213 98.8045V99.6565H226.701V98.8045H219.213ZM219.561 93.5125V94.3765H226.365V93.5125H219.561ZM222.489 93.7165V103.94H223.401V93.7165H222.489ZM225.141 94.9885C224.961 95.9005 224.613 97.2325 224.301 98.0245L224.997 98.2285C225.321 97.4485 225.693 96.2125 225.993 95.1925L225.141 94.9885ZM220.017 95.2405C220.341 96.1885 220.629 97.4125 220.701 98.2285L221.481 98.0125C221.385 97.2205 221.097 95.9965 220.749 95.0605L220.017 95.2405ZM215.781 95.7925V96.6445H219.105V95.7925H215.781ZM217.113 93.0445V100.832H217.941V93.0445H217.113ZM215.589 101.156L215.913 102.068C216.909 101.672 218.169 101.156 219.357 100.64L219.213 99.8365C217.881 100.34 216.501 100.856 215.589 101.156ZM236.901 92.8405V100.592H237.789V93.6685H240.681V92.8405H236.901ZM243.789 94.4005V95.2765H254.265V94.4005H243.789ZM246.153 97.0525H251.937V98.9845H246.153V97.0525ZM245.265 96.2605V99.7765H252.885V96.2605H245.265ZM251.229 100.988C252.033 101.792 252.993 102.92 253.449 103.616L254.229 103.076C253.749 102.404 252.753 101.312 251.961 100.532L251.229 100.988ZM248.577 99.4885V102.884C248.577 103.052 248.529 103.112 248.313 103.112C248.085 103.124 247.341 103.124 246.525 103.1C246.645 103.352 246.777 103.712 246.825 103.964C247.893 103.964 248.577 103.964 248.985 103.832C249.405 103.688 249.525 103.436 249.525 102.908V99.4885H248.577ZM245.829 100.544C245.373 101.348 244.449 102.356 243.633 103.016C243.825 103.136 244.137 103.4 244.293 103.568C245.157 102.86 246.093 101.804 246.705 100.856L245.829 100.544ZM247.989 93.0925C248.349 93.6445 248.745 94.3885 248.925 94.8565L249.837 94.5205C249.645 94.0645 249.213 93.3325 248.853 92.8165L247.989 93.0925ZM257.577 95.8405V96.6685H260.829V95.8405H257.577ZM258.837 93.0445V101.084H259.689V93.0445H258.837ZM257.433 101.432L257.721 102.332C258.669 101.948 259.869 101.48 261.009 101.012L260.853 100.196C259.593 100.676 258.297 101.156 257.433 101.432ZM261.669 94.7485V95.5765H268.365V94.7485H261.669ZM261.825 97.1965V97.9645H264.045V97.1965H261.825ZM261.333 94.7485V98.4805C261.333 100.04 261.213 102.02 260.013 103.424C260.205 103.532 260.541 103.808 260.673 103.976C261.969 102.488 262.173 100.196 262.173 98.4925V94.7485H261.333ZM263.697 97.1965V97.3405C263.661 99.9925 263.613 100.892 263.481 101.084C263.409 101.18 263.325 101.204 263.169 101.204C263.025 101.204 262.653 101.204 262.233 101.168C262.353 101.372 262.425 101.696 262.449 101.936C262.869 101.96 263.301 101.948 263.541 101.924C263.829 101.9 263.997 101.816 264.153 101.6C264.381 101.3 264.429 100.316 264.465 97.5565C264.477 97.4485 264.477 97.1965 264.477 97.1965H263.697ZM264.945 92.9005C264.993 98.7085 265.533 103.82 267.393 103.82C268.185 103.82 268.449 103.256 268.581 101.456C268.365 101.372 268.077 101.18 267.909 100.988C267.861 102.38 267.741 102.968 267.501 102.968C266.469 102.968 265.761 98.5405 265.809 92.9005H264.945ZM266.037 93.3685C266.565 93.7885 267.165 94.3765 267.441 94.7725L268.089 94.3285C267.801 93.9325 267.177 93.3685 266.649 92.9725L266.037 93.3685ZM267.333 96.9085C266.649 99.7765 265.317 101.972 263.193 103.28C263.373 103.412 263.697 103.736 263.829 103.904C265.965 102.44 267.381 100.148 268.161 97.0645L267.333 96.9085ZM273.201 98.9965V103.94H274.077V99.7405H279.669V103.916H280.593V98.9965H273.201ZM273.705 100.868V101.564H280.005V100.868H273.705ZM272.745 93.8965V94.6285H276.573V93.8965H272.745ZM271.449 95.7805V96.5125H276.885V95.7805H271.449ZM273.705 102.752V103.496H280.005V102.752H273.705ZM273.945 94.1605V95.3365C273.945 96.2845 273.765 97.6885 271.341 98.6485C271.545 98.7925 271.797 99.0805 271.917 99.2605C274.461 98.1205 274.809 96.5125 274.809 95.3485V94.1605H273.945ZM272.805 92.8645C272.541 93.7765 272.061 94.6765 271.449 95.2885C271.653 95.3725 272.013 95.6005 272.169 95.7205C272.757 95.0605 273.309 94.0645 273.621 93.0325L272.805 92.8645ZM274.545 96.6925L273.957 97.0885C274.473 97.4125 275.721 98.3005 276.165 98.6725L276.789 98.0485C276.441 97.8085 274.977 96.9205 274.545 96.6925ZM278.229 94.6885H280.725V97.2445H278.229V94.6885ZM277.389 93.8845V98.0725H281.613V93.8845H277.389ZM0.948 120.536V121.136H5.58V120.536H0.948ZM1.176 121.712V122.3H5.412V121.712H1.176ZM2.856 119.912V124.124H3.696V119.912H2.856ZM6.048 120.536V121.136H11.004V120.536H6.048ZM5.988 122.912V123.5H11.184V122.912H5.988ZM0.84 122.912V123.5H5.712V122.912H0.84ZM6.324 121.7V122.288H10.8V121.7H6.324ZM8.028 119.912V124.124H8.88V119.912H8.028ZM3.564 128.12V129.692C3.564 130.592 3.888 130.82 5.148 130.82C5.412 130.82 7.236 130.82 7.512 130.82C8.496 130.82 8.76 130.52 8.868 129.248C8.64 129.188 8.268 129.068 8.076 128.936C8.028 129.896 7.932 130.028 7.428 130.028C7.032 130.028 5.508 130.028 5.22 130.028C4.56 130.028 4.452 129.98 4.452 129.68V128.12H3.564ZM4.74 127.94C5.436 128.264 6.228 128.792 6.612 129.212L7.212 128.66C6.816 128.228 6 127.736 5.316 127.436L4.74 127.94ZM8.712 128.504C9.54 129.104 10.404 129.98 10.764 130.628L11.532 130.148C11.148 129.5 10.248 128.648 9.42 128.072L8.712 128.504ZM2.076 128.168C1.776 128.924 1.224 129.704 0.456 130.16L1.176 130.664C2.004 130.136 2.508 129.272 2.856 128.456L2.076 128.168ZM1.74 124.292V124.916H9.204V126.992H1.668V127.604H10.08V124.292H1.74ZM0.696 125.648V126.236H11.328V125.648H0.696ZM16.344 123.476V124.052H23.436V123.476H16.344ZM17.052 122.156V122.732H22.812V122.156H17.052ZM19.452 121.496V123.824H20.292V121.496H19.452ZM19.332 125.972C18.6 126.548 17.232 127.004 16.044 127.292C16.188 127.424 16.428 127.7 16.512 127.82C17.712 127.484 19.152 126.896 19.968 126.2L19.332 125.972ZM22.824 126.56C22.416 126.872 21.696 127.316 21.168 127.592L21.648 127.904C22.188 127.676 22.872 127.316 23.412 126.932L22.824 126.56ZM17.88 124.988H21.936V125.828H17.88V124.988ZM17.112 124.508V126.308H22.728V124.508H17.112ZM14.904 120.428V130.952H15.756V121.256H24.048V130.952H24.936V120.428H14.904ZM15.432 129.62V130.436H24.54V129.62H15.432ZM19.608 126.896C20.748 127.556 22.164 128.528 22.848 129.152L23.46 128.744C22.704 128.12 21.276 127.172 20.172 126.548L19.608 126.896ZM17.592 129.5C17.772 129.38 18.084 129.284 20.316 128.66C20.292 128.528 20.292 128.264 20.304 128.084L17.892 128.672L17.556 128.948L17.592 129.5ZM17.592 129.5C17.592 129.248 18.504 128.888 18.504 128.888V126.848L17.808 126.836V128.288C17.808 128.72 17.508 128.864 17.34 128.936C17.424 129.068 17.544 129.332 17.592 129.5ZM33.024 122.696H35.784V124.076H33.024V122.696ZM32.184 122.048V124.724H36.672V122.048H32.184ZM31.632 126.2H33.228V127.976H31.632V126.2ZM30.864 125.54V128.636H34.02V125.54H30.864ZM35.604 126.2H37.284V127.976H35.604V126.2ZM34.836 125.54V128.636H38.076V125.54H34.836ZM28.536 120.464V121.268H38.664V120.464H28.536ZM29.04 120.524V128.024C29.04 129.788 29.928 130.388 31.776 130.388C32.22 130.388 36.24 130.388 37.092 130.388C38.028 130.388 38.94 130.364 39.264 130.28C39.216 130.076 39.156 129.656 39.12 129.416C38.688 129.5 37.764 129.548 37.116 129.548C36.264 129.548 32.46 129.548 31.68 129.548C30.384 129.548 29.916 129.116 29.916 128.096V120.524H29.04ZM45.948 131.012V123.26H45.06V130.184H42.168V131.012H45.948ZM60.696 127.724C61.956 127.292 62.772 126.308 62.772 125.012C62.772 124.172 62.412 123.62 61.74 123.62C61.26 123.62 60.828 123.92 60.828 124.484C60.828 125.048 61.236 125.348 61.728 125.348C61.956 125.348 62.196 125.288 62.364 125.072L61.716 124.16L61.944 125.168C61.944 126.08 61.404 126.692 60.42 127.088L60.696 127.724ZM72.54 124.76V125.408H73.644V124.76H72.54ZM75.096 121.04V130.892H75.972V121.04H75.096ZM70.848 123.02V130.916H71.712V123.86H79.968V123.02H70.848ZM79.524 123.02V129.884C79.524 130.064 79.476 130.112 79.284 130.124C79.092 130.136 78.468 130.136 77.82 130.112C77.94 130.34 78.072 130.688 78.12 130.916C78.972 130.916 79.584 130.904 79.944 130.772C80.292 130.628 80.412 130.388 80.412 129.896V123.02H79.524ZM73.404 124.76C73.404 126.128 73.512 127.892 74.58 129.164C74.688 129.044 74.94 128.84 75.084 128.756C74.052 127.556 73.956 126.02 73.956 124.76H73.404ZM73.308 125.288C73.128 126.776 72.708 128 71.892 128.792C72.036 128.888 72.288 129.08 72.396 129.188C73.236 128.312 73.728 126.992 73.932 125.372L73.308 125.288ZM77.52 125.228C77.352 126.68 76.932 127.904 76.128 128.708C76.284 128.804 76.536 128.996 76.644 129.104C77.46 128.228 77.94 126.908 78.156 125.312L77.52 125.228ZM76.716 124.76V125.408H77.94V124.76H76.716ZM77.616 124.76C77.616 126.128 77.748 127.88 78.876 129.128C78.984 129.02 79.248 128.828 79.404 128.756C78.288 127.568 78.204 126.032 78.204 124.76H77.616ZM70.428 120.62V121.508H80.82V120.62H70.428ZM84.264 123.356V124.268H94.812V123.356H84.264ZM90.108 123.716L89.208 123.932C90.108 127.16 91.74 129.692 94.332 130.916C94.488 130.664 94.788 130.28 95.016 130.076C92.52 129.044 90.888 126.62 90.108 123.716ZM89.052 119.912C89.028 122.792 89.124 127.964 84.024 130.184C84.276 130.364 84.564 130.688 84.708 130.928C89.952 128.528 89.976 123.056 90.024 119.912H89.052ZM98.064 129.824V130.568H108.828V129.824H98.064ZM98.124 122.036V122.78H108.756V122.036H98.124ZM98.952 128.072V128.792H108.06V128.072H98.952ZM102.936 120.824V130.184H103.836V120.824H102.936ZM107.112 119.972C105.216 120.32 101.82 120.536 99.024 120.608C99.108 120.8 99.216 121.112 99.216 121.328C102.024 121.268 105.444 121.064 107.592 120.668L107.112 119.972ZM100.212 125.66H106.704V126.584H100.212V125.66ZM100.212 124.148H106.704V125.06H100.212V124.148ZM99.336 123.5V127.232H107.616V123.5H99.336ZM116.304 121.04V121.784H122.388V121.04H116.304ZM116.316 125.648V126.416H122.412V125.648H116.316ZM117.444 121.988C117.612 122.444 117.792 123.056 117.852 123.44L118.668 123.248C118.596 122.888 118.404 122.288 118.2 121.844L117.444 121.988ZM120.756 121.796C120.612 122.312 120.336 123.08 120.096 123.56L120.852 123.716C121.08 123.26 121.368 122.588 121.62 121.964L120.756 121.796ZM116.172 123.332V125.252H116.976V124.064H121.848V125.24H122.688V123.332H116.172ZM118.188 127.556V128.312H121.44V127.556H118.188ZM121.152 127.556V127.676C121.032 129.26 120.9 129.884 120.708 130.064C120.624 130.16 120.516 130.172 120.336 130.172C120.144 130.172 119.628 130.172 119.112 130.112C119.232 130.328 119.316 130.652 119.328 130.88C119.88 130.916 120.42 130.916 120.696 130.892C121.008 130.88 121.224 130.808 121.416 130.616C121.692 130.328 121.848 129.608 121.992 127.904C122.004 127.784 122.016 127.556 122.016 127.556H121.152ZM118.092 125.924C117.972 128.06 117.636 129.5 115.716 130.268C115.896 130.424 116.124 130.736 116.22 130.928C118.356 130.028 118.788 128.36 118.932 125.924H118.092ZM118.8 119.924C118.956 120.428 119.112 121.088 119.148 121.484L120.012 121.328C119.964 120.944 119.796 120.296 119.628 119.816L118.8 119.924ZM118.788 124.556C118.944 125 119.088 125.588 119.136 125.948L120.012 125.78C119.964 125.432 119.796 124.856 119.628 124.424L118.788 124.556ZM111.9 120.548V121.376H115.86V120.548H111.9ZM113.124 124.244V125.048H114.912V128.624H113.124V129.428H115.632V124.244H113.124ZM113.472 120.944C113.16 122.948 112.596 124.82 111.696 126.044C111.84 126.284 112.032 126.8 112.092 127.004C113.16 125.576 113.844 123.392 114.264 121.124L113.472 120.944ZM112.728 124.244V130.4H113.46V124.244H112.728ZM128.292 125.216V125.96H134.244V125.216H128.292ZM128.064 127.268V128.036H134.496V127.268H128.064ZM132.06 125.456V130.724H132.876V125.456H132.06ZM129.6 125.492V127.676C129.6 128.336 129.348 129.608 128.136 130.352C128.34 130.472 128.616 130.724 128.736 130.892C130.092 129.98 130.38 128.408 130.38 127.676V125.492H129.6ZM126.804 122.084V122.732H130.176V122.084H126.804ZM132.336 122.084V122.732H135.732V122.084H132.336ZM135.384 120.416V129.776C135.384 129.956 135.324 130.028 135.132 130.028C134.94 130.04 134.292 130.04 133.632 130.016C133.764 130.268 133.884 130.688 133.92 130.928C134.832 130.928 135.432 130.916 135.792 130.76C136.152 130.604 136.272 130.316 136.272 129.776V120.416H135.384ZM126.876 120.416V121.112H129.876V123.776H126.876V124.46H130.728V120.416H126.876ZM135.816 120.416H131.784V124.472H135.816V123.788H132.648V121.112H135.816V120.416ZM126.336 120.416V130.952H127.224V120.416H126.336ZM145.644 123.512V124.22H148.14V123.512H145.644ZM144.756 126.992V127.64H148.908V126.992H144.756ZM140.856 120.416V121.148H144.216V120.416H140.856ZM143.964 120.416V120.56C143.232 122.192 141.324 123.476 139.524 124.016C139.692 124.172 139.908 124.484 140.016 124.688C141.96 124.016 143.94 122.672 144.84 120.656L144.276 120.38L144.12 120.416H143.964ZM145.86 119.924L145.128 120.152C146.1 122.252 147.936 123.836 150.228 124.544C150.36 124.328 150.588 124.016 150.78 123.836C148.548 123.248 146.724 121.784 145.86 119.924ZM148.308 119.984C147.876 120.476 147.084 121.148 146.532 121.556L147.06 121.976C147.636 121.58 148.392 121.004 148.98 120.452L148.308 119.984ZM149.748 121.196C149.304 121.664 148.488 122.336 147.912 122.732L148.464 123.152C149.052 122.78 149.832 122.204 150.408 121.652L149.748 121.196ZM141.36 123.548V124.268H143.364V126.236H144.18V123.548H141.36ZM140.964 125.528C140.868 126.38 140.7 127.472 140.544 128.18H141.324C141.456 127.496 141.612 126.416 141.72 125.528H140.964ZM143.364 127.484V127.604C143.244 129.164 143.112 129.8 142.896 129.98C142.8 130.076 142.68 130.088 142.452 130.088C142.224 130.088 141.576 130.076 140.916 130.016C141.048 130.232 141.156 130.556 141.18 130.796C141.828 130.832 142.464 130.844 142.776 130.82C143.136 130.796 143.364 130.724 143.58 130.52C143.868 130.232 144.012 129.512 144.168 127.844C144.18 127.724 144.192 127.484 144.192 127.484H143.364ZM145.32 123.512V124.448C145.32 125.024 145.164 125.684 144.204 126.2C144.372 126.308 144.66 126.596 144.78 126.764C145.848 126.14 146.1 125.24 146.1 124.46V123.512H145.32ZM148.716 126.992V127.112C148.02 128.828 146.172 129.872 144.192 130.292C144.336 130.46 144.516 130.76 144.6 130.952C146.772 130.412 148.704 129.284 149.532 127.16L149.016 126.956L148.872 126.992H148.716ZM141.312 125.528L141.192 126.236H143.664V125.528H141.312ZM140.952 127.484L140.82 128.18H143.592V127.484H140.952ZM140.532 121.844C141.096 122.192 141.756 122.708 142.068 123.08L142.62 122.528C142.296 122.18 141.612 121.676 141.06 121.352L140.532 121.844ZM147.732 123.512V125.396C147.732 126.128 147.888 126.404 148.608 126.404C148.764 126.404 149.448 126.404 149.616 126.404C149.856 126.404 150.096 126.404 150.228 126.356C150.204 126.176 150.18 125.912 150.18 125.72C150.036 125.756 149.76 125.768 149.592 125.768C149.448 125.768 148.848 125.768 148.704 125.768C148.536 125.768 148.5 125.684 148.5 125.408V123.512H147.732ZM144.756 128.24C146.22 129.068 148.164 130.268 149.136 130.976L149.604 130.388C148.596 129.68 146.64 128.528 145.2 127.748L144.756 128.24ZM158.628 126.224V130.94H159.54V126.224H158.628ZM154.08 120.8V122.54H154.92V121.568H163.344V122.54H164.208V120.8H154.08ZM153.876 122.948V123.68H164.388V122.948H153.876ZM153.744 127.22V128H164.508V127.22H153.744ZM161.628 122.108C160.776 124.724 158.52 125.612 153.864 125.804C153.996 126.008 154.116 126.308 154.188 126.572C159.06 126.272 161.52 125.288 162.504 122.324L161.628 122.108ZM155.388 124.856C158.628 125.36 161.616 126.044 163.356 126.692L164.244 126.092C162.324 125.456 159.192 124.748 156.132 124.304L155.388 124.856ZM158.292 120.104C158.532 120.476 158.832 120.992 158.976 121.316L159.912 121.04C159.756 120.728 159.444 120.236 159.18 119.876L158.292 120.104ZM155.388 124.856H156.384C157.176 124.172 158.34 122.996 159.06 121.964L158.184 121.688C157.512 122.732 156.312 124.04 155.388 124.856ZM156.756 128.252C156.12 128.948 154.98 129.572 153.9 129.968C154.116 130.112 154.464 130.412 154.632 130.58C155.688 130.112 156.912 129.356 157.656 128.552L156.756 128.252ZM160.476 128.696C161.58 129.224 162.948 130.052 163.62 130.64L164.28 129.98C163.572 129.404 162.18 128.612 161.088 128.12L160.476 128.696ZM167.76 120.128V120.812H173.58V120.128H167.76ZM169.104 121.472V122.06H172.308V121.472H169.104ZM169.104 122.696V123.272H172.308V122.696H169.104ZM173.64 120.62V121.376H177.48V120.62H173.64ZM171.9 120.404V125.108H172.728V120.404H171.9ZM177.204 120.62V120.776C176.532 122.432 174.708 123.704 172.992 124.244C173.16 124.412 173.388 124.7 173.508 124.904C175.38 124.232 177.264 122.888 178.08 120.86L177.516 120.584L177.36 120.62H177.204ZM167.532 124.22L167.64 124.916C168.924 124.772 170.676 124.58 172.38 124.388V123.74C170.592 123.932 168.756 124.124 167.532 124.22ZM173.4 122.18C174.912 122.936 176.772 124.112 177.672 124.928L178.296 124.292C177.36 123.476 175.464 122.348 173.988 121.628L173.4 122.18ZM176.472 124.964C174.48 125.348 171.048 125.636 168.42 125.66C168.588 125.852 168.816 126.284 168.924 126.476C171.48 126.356 174.96 126.032 177.156 125.576L176.472 124.964ZM168.696 120.404V124.484L169.512 124.388V120.404H168.696ZM172.584 126.14V130.928H173.484V125.84L173.04 125.684L172.584 126.14ZM169.596 128.024C170.208 128.552 170.964 129.32 171.336 129.8L171.852 129.26C171.492 128.804 170.712 128.084 170.088 127.568L169.596 128.024ZM170.016 126.728C169.608 127.892 168.744 128.78 167.772 129.332C167.904 129.524 168.072 129.968 168.132 130.16C169.26 129.464 170.22 128.324 170.7 126.92L170.016 126.728ZM176.112 126.248C175.704 127.568 174.84 128.588 173.832 129.212C173.952 129.404 174.132 129.848 174.192 130.04C175.356 129.26 176.304 128.012 176.796 126.44L176.112 126.248ZM176.364 127.208L175.716 127.436C176.16 128.384 177 129.368 177.852 129.86C177.984 129.656 178.236 129.368 178.428 129.224C177.6 128.828 176.772 128 176.364 127.208ZM184.392 119.864C183.708 121.448 182.568 122.96 181.332 123.92C181.536 124.064 181.896 124.388 182.052 124.544C183.276 123.488 184.5 121.856 185.28 120.128L184.392 119.864ZM187.26 122.036V127.436H188.16V122.036H187.26ZM183.792 123.404V124.136H191.28V123.404H183.792ZM183.792 125.168V125.9H191.316V125.168H183.792ZM185.064 128.648C185.208 129.368 185.304 130.304 185.304 130.868L186.192 130.736C186.18 130.196 186.048 129.284 185.892 128.576L185.064 128.648ZM187.548 128.624C187.86 129.344 188.16 130.28 188.268 130.856L189.156 130.664C189.036 130.1 188.712 129.164 188.388 128.48L187.548 128.624ZM189.996 128.552C190.596 129.296 191.268 130.328 191.556 130.964L192.444 130.652C192.12 130.004 191.424 128.996 190.824 128.276L189.996 128.552ZM183 128.312C182.688 129.14 182.16 130.076 181.62 130.604L182.448 130.952C183.024 130.352 183.54 129.38 183.852 128.528L183 128.312ZM186.828 120.152C187.14 120.692 187.464 121.412 187.596 121.856L188.424 121.484C188.292 121.052 187.956 120.368 187.632 119.852L186.828 120.152ZM183.66 127.028V127.796H191.868V127.028H183.66ZM184.104 121.58H183.792L183.216 122.156V128.228H184.104V122.36H192V121.58H184.104ZM199.536 121.94V122.888H205.776V121.94H199.536ZM198.84 129.128V130.076H206.304V129.128H198.84ZM197.1 123.176V130.916H198V122.3L197.988 122.276L197.1 123.176ZM198.408 119.936C197.7 121.82 196.536 123.644 195.288 124.832C195.468 125.048 195.756 125.528 195.852 125.744C197.196 124.376 198.468 122.288 199.296 120.212L198.408 119.936ZM212.724 120.896V121.64H220.26V120.896H212.724ZM212.604 126.284V127.028H220.332V126.284H212.604ZM215.628 127.34C215.928 127.82 216.312 128.492 216.492 128.888L217.188 128.588C217.008 128.216 216.612 127.568 216.288 127.1L215.628 127.34ZM214.38 127.952V129.764C214.38 130.568 214.632 130.784 215.652 130.784C215.868 130.784 217.212 130.784 217.416 130.784C218.232 130.784 218.472 130.484 218.556 129.212C218.328 129.164 218.004 129.056 217.836 128.936C217.8 129.944 217.728 130.076 217.332 130.076C217.044 130.076 215.94 130.076 215.736 130.076C215.268 130.076 215.184 130.016 215.184 129.764V127.952H214.38ZM213.204 127.88C212.988 128.6 212.604 129.548 212.124 130.112L212.832 130.508C213.312 129.884 213.66 128.912 213.912 128.144L213.204 127.88ZM218.424 128.024C218.916 128.768 219.408 129.764 219.612 130.376L220.344 130.052C220.116 129.44 219.588 128.468 219.108 127.748L218.424 128.024ZM217.776 123.188H219.06V124.82H217.776V123.188ZM215.856 123.188H217.116V124.82H215.856V123.188ZM213.972 123.188H215.184V124.82H213.972V123.188ZM213.252 122.504V125.504H219.816V122.504H213.252ZM216.06 119.864C216 120.704 215.832 121.928 215.676 122.684L216.516 122.756C216.684 122.048 216.852 120.896 216.996 119.912L216.06 119.864ZM211.932 122.516C211.236 123.872 210.156 125.3 209.136 126.224C209.304 126.416 209.58 126.848 209.676 127.028C210.756 125.96 211.944 124.328 212.748 122.804L211.932 122.516ZM211.716 119.912C211.152 120.764 210.084 121.856 209.208 122.552C209.352 122.732 209.568 123.08 209.664 123.272C210.636 122.468 211.776 121.268 212.532 120.248L211.716 119.912ZM210.9 124.76V130.952H211.752V124.46L211.32 124.328L210.9 124.76ZM227.736 127.724C228.996 127.292 229.812 126.308 229.812 125.012C229.812 124.172 229.452 123.62 228.78 123.62C228.3 123.62 227.868 123.92 227.868 124.484C227.868 125.048 228.276 125.348 228.768 125.348C228.996 125.348 229.236 125.288 229.404 125.072L228.756 124.16L228.984 125.168C228.984 126.08 228.444 126.692 227.46 127.088L227.736 127.724ZM241.008 121.796C241.776 122.684 242.556 123.92 242.868 124.748L243.732 124.28C243.384 123.464 242.616 122.276 241.812 121.4L241.008 121.796ZM237.06 128.708L237.384 129.644C238.716 129.068 240.54 128.264 242.208 127.496L242.004 126.62C240.204 127.412 238.284 128.228 237.06 128.708ZM244.26 127.124C245.412 128.3 246.852 129.92 247.524 130.916L248.292 130.208C247.584 129.224 246.096 127.664 244.956 126.536L244.26 127.124ZM245.928 120.524C245.388 125.744 244.116 128.684 239.964 130.196C240.192 130.388 240.552 130.784 240.684 130.976C244.884 129.224 246.288 126.164 246.9 120.62L245.928 120.524ZM238.524 120.56L238.728 128.492L239.652 128.456L239.448 120.524L238.524 120.56ZM253.692 130.148C255.168 130.148 256.572 129.044 256.572 127.124C256.572 125.18 255.384 124.316 253.92 124.316C253.392 124.316 252.996 124.448 252.6 124.664L252.828 122.12H256.152V121.184H251.868L251.592 125.3L252.18 125.672C252.684 125.336 253.056 125.144 253.644 125.144C254.736 125.144 255.456 125.9 255.456 127.16C255.456 128.432 254.628 129.236 253.584 129.236C252.576 129.236 251.928 128.768 251.436 128.252L250.884 128.972C251.484 129.572 252.324 130.148 253.692 130.148ZM263.792 130.148C264.98 130.148 265.94 129.716 266.516 129.128V125.432H263.624V126.356H265.484V128.66C265.148 128.972 264.536 129.164 263.9 129.164C262.016 129.164 260.972 127.784 260.972 125.564C260.972 123.368 262.112 122 263.888 122C264.776 122 265.34 122.372 265.784 122.828L266.396 122.108C265.88 121.58 265.076 121.028 263.864 121.028C261.536 121.028 259.832 122.756 259.832 125.588C259.832 128.444 261.488 130.148 263.792 130.148ZM276.242 127.172L277.058 126.476C276.314 125.6 275.234 124.508 274.37 123.812L273.59 124.496C274.442 125.192 275.474 126.224 276.242 127.172ZM0.036 156.98H1.164L2.712 152.06C3.036 151.076 3.312 150.116 3.6 149.096H3.648C3.936 150.116 4.212 151.076 4.524 152.06L6.072 156.98H7.236L4.26 148.184H3.012L0.036 156.98ZM1.596 154.292H5.652V153.416H1.596V154.292ZM10.4208 156.98H11.5368V148.184H10.4208V156.98ZM17.1764 153.296V154.088H25.3484V153.296H17.1764ZM15.6284 148.964V149.792H23.4764V148.964H15.6284ZM19.0124 151.124V151.928H24.5084V151.124H19.0124ZM24.9644 153.296V153.44C24.7724 155.828 24.5444 156.776 24.2684 157.052C24.1604 157.148 24.0404 157.172 23.8124 157.172C23.5844 157.172 23.0084 157.172 22.4084 157.1C22.5524 157.34 22.6484 157.688 22.6604 157.94C23.2844 157.964 23.8844 157.976 24.1844 157.952C24.5444 157.928 24.7724 157.844 25.0004 157.616C25.3844 157.22 25.6124 156.224 25.8284 153.692C25.8524 153.56 25.8644 153.296 25.8644 153.296H24.9644ZM22.3004 154.736C22.6604 155.24 23.0324 155.936 23.1884 156.368L23.8484 156.092C23.6924 155.66 23.3204 154.988 22.9364 154.496L22.3004 154.736ZM17.1164 147.26C17.5844 147.764 18.0884 148.472 18.2924 148.94L19.1324 148.556C18.8924 148.1 18.3644 147.416 17.8964 146.936L17.1164 147.26ZM18.7484 155.036C18.9524 155.816 19.0844 156.8 19.0604 157.448L19.8524 157.34C19.8524 156.692 19.7204 155.696 19.4804 154.94L18.7484 155.036ZM20.5124 154.928C20.8124 155.588 21.1004 156.464 21.1844 157.04L21.9284 156.836C21.8324 156.272 21.5324 155.42 21.2204 154.76L20.5124 154.928ZM17.2124 154.76C16.9724 155.684 16.5164 156.752 15.8444 157.388L16.5404 157.88C17.2724 157.148 17.6924 156.008 17.9684 155.012L17.2124 154.76ZM20.7524 146.9C19.8404 150.008 17.9924 153.08 15.0164 154.772C15.1724 154.964 15.4004 155.324 15.5084 155.54C18.6884 153.656 20.5724 150.488 21.6644 147.128L20.7524 146.9ZM23.2724 148.964C23.1404 149.732 22.9364 150.692 22.7684 151.328L23.5604 151.436C23.7404 150.788 23.9564 149.792 24.1244 148.964H23.2724ZM24.1724 151.124C24.0524 151.892 23.8484 152.864 23.6684 153.512L24.4844 153.608C24.6524 152.96 24.8564 151.952 25.0244 151.124H24.1724ZM29.8004 149.3V150.188H39.3404V149.3H29.8004ZM30.3524 152.828V153.704H38.8364V152.828H30.3524ZM29.2484 156.656V157.544H39.9404V156.656H29.2484ZM34.0844 150.008V157.112H35.0564V150.008H34.0844ZM33.0524 147.452C33.8444 148.04 34.7924 148.892 35.2244 149.456L36.0044 148.892C35.5364 148.316 34.5644 147.5 33.7844 146.948L33.0524 147.452ZM48.4484 149.468V157.952H49.2284V150.284H52.8524V157.868H53.6684V149.468H48.4484ZM48.8204 152.852V153.668H53.2124V152.852H48.8204ZM48.8204 156.464V157.28H53.2124V156.464H48.8204ZM50.5724 146.912V149.852H50.5964V156.944H51.3884V149.852H51.4244V146.912H50.5724ZM43.0844 148.208V149.012H48.0524V148.208H43.0844ZM42.9644 155.048V155.852H48.1964V155.048H42.9644ZM45.1844 146.912V150.188H46.0004V146.912H45.1844ZM45.2564 150.236V153.728H45.1844V157.964H46.0004V153.728H45.9164V150.236H45.2564ZM44.1044 152.3H47.1284V153.404H44.1044V152.3ZM44.1044 150.572H47.1284V151.652H44.1044V150.572ZM43.4084 149.9V154.076H47.8364V149.9H43.4084ZM57.9884 148.832V149.636H60.7964V155.864H57.9884V156.68H61.6364V148.832H57.9884ZM57.4484 148.832V157.64H58.2884V148.832H57.4484ZM57.9284 152.168V152.972H61.2404V152.168H57.9284ZM59.2844 146.876C59.1884 147.5 58.9604 148.412 58.7564 148.988L59.4764 149.168C59.7164 148.628 60.0164 147.8 60.2564 147.056L59.2844 146.876ZM63.3404 148.796V149.636H67.0244V148.796H63.3404ZM66.7124 148.796V148.988C66.5444 154.28 66.3524 156.272 65.9564 156.704C65.8244 156.86 65.6804 156.896 65.4404 156.896C65.1644 156.896 64.4444 156.884 63.6644 156.824C63.8324 157.064 63.9404 157.436 63.9644 157.7C64.6364 157.736 65.3444 157.76 65.7524 157.712C66.1724 157.676 66.4484 157.568 66.7124 157.22C67.1924 156.632 67.3604 154.772 67.5524 149.264C67.5524 149.132 67.5524 148.796 67.5524 148.796H66.7124ZM63.5924 146.852C63.2084 148.52 62.5484 150.176 61.7324 151.232C61.9484 151.352 62.3204 151.604 62.4764 151.748C63.3044 150.608 64.0124 148.844 64.4564 147.056L63.5924 146.852ZM63.0404 151.916C63.7004 152.792 64.5044 153.98 64.8644 154.712L65.6324 154.232C65.2484 153.524 64.4204 152.36 63.7364 151.508L63.0404 151.916ZM72.8804 147.896V157.916H73.7564V147.896H72.8804ZM70.8524 150.284V151.136H75.5324V150.284H70.8524ZM72.9284 150.608C72.4964 152.096 71.5364 153.968 70.6724 154.928C70.8284 155.132 71.0444 155.504 71.1284 155.756C72.0524 154.64 73.0124 152.54 73.4924 150.848L72.9284 150.608ZM74.8004 147.068C73.8884 147.476 72.3164 147.824 70.9604 148.04C71.0564 148.244 71.1764 148.544 71.2244 148.748C72.5924 148.556 74.2484 148.232 75.3524 147.8L74.8004 147.068ZM73.7084 151.292L73.2884 151.664C73.6484 152.132 74.5844 153.56 74.8724 154.136L75.4364 153.428C75.1724 153.068 74.0204 151.616 73.7084 151.292ZM79.4804 146.9V157.928H80.3684V146.9H79.4804ZM75.3884 154.712L75.5204 155.564L81.9164 154.52L81.7724 153.68L75.3884 154.712ZM76.3604 148.268C77.0684 148.748 77.9084 149.468 78.2924 149.972L78.9164 149.384C78.5084 148.88 77.6564 148.196 76.9364 147.74L76.3604 148.268ZM75.8804 151.388C76.6604 151.88 77.5724 152.636 78.0164 153.164L78.6164 152.564C78.1724 152.048 77.2244 151.328 76.4444 150.86L75.8804 151.388ZM88.7804 148.796V149.636H95.3924V148.796H88.7804ZM89.0324 151.436V152.264H94.3244V151.436H89.0324ZM91.6124 146.9V151.904H92.5004V146.9H91.6124ZM90.1964 152.048L89.3804 152.288C90.4244 155.108 92.3684 157.1 95.2484 157.952C95.3804 157.724 95.6324 157.364 95.8364 157.184C93.0284 156.44 91.0964 154.568 90.1964 152.048ZM94.2524 151.436V151.592C93.3764 154.556 90.8444 156.416 88.0964 157.124C88.2644 157.316 88.4924 157.7 88.5764 157.94C91.5164 157.052 94.1324 155.096 95.1524 151.652L94.5884 151.4L94.4204 151.436H94.2524ZM84.6884 153.26L84.9524 154.124C86.0204 153.812 87.4124 153.404 88.7204 153.008L88.6124 152.192C87.1844 152.6 85.6964 153.008 84.6884 153.26ZM84.8444 149.324V150.176H88.6124V149.324H84.8444ZM86.3924 146.912V156.86C86.3924 157.028 86.3204 157.088 86.1644 157.088C86.0084 157.1 85.4804 157.1 84.9164 157.088C85.0364 157.328 85.1684 157.688 85.1924 157.916C86.0204 157.916 86.5244 157.892 86.8364 157.748C87.1604 157.616 87.2804 157.364 87.2804 156.86V146.912H86.3924ZM100.6 150.476V151.052H107.692V150.476H100.6ZM101.308 149.156V149.732H107.068V149.156H101.308ZM103.708 148.496V150.824H104.548V148.496H103.708ZM103.588 152.972C102.856 153.548 101.488 154.004 100.3 154.292C100.444 154.424 100.684 154.7 100.768 154.82C101.968 154.484 103.408 153.896 104.224 153.2L103.588 152.972ZM107.08 153.56C106.672 153.872 105.952 154.316 105.424 154.592L105.904 154.904C106.444 154.676 107.128 154.316 107.668 153.932L107.08 153.56ZM102.136 151.988H106.192V152.828H102.136V151.988ZM101.368 151.508V153.308H106.984V151.508H101.368ZM99.1604 147.428V157.952H100.012V148.256H108.304V157.952H109.192V147.428H99.1604ZM99.6884 156.62V157.436H108.796V156.62H99.6884ZM103.864 153.896C105.004 154.556 106.42 155.528 107.104 156.152L107.716 155.744C106.96 155.12 105.532 154.172 104.428 153.548L103.864 153.896ZM101.848 156.5C102.028 156.38 102.34 156.284 104.572 155.66C104.548 155.528 104.548 155.264 104.56 155.084L102.148 155.672L101.812 155.948L101.848 156.5ZM101.848 156.5C101.848 156.248 102.76 155.888 102.76 155.888V153.848L102.064 153.836V155.288C102.064 155.72 101.764 155.864 101.596 155.936C101.68 156.068 101.8 156.332 101.848 156.5ZM117.28 149.696H120.04V151.076H117.28V149.696ZM116.44 149.048V151.724H120.928V149.048H116.44ZM115.888 153.2H117.484V154.976H115.888V153.2ZM115.12 152.54V155.636H118.276V152.54H115.12ZM119.86 153.2H121.54V154.976H119.86V153.2ZM119.092 152.54V155.636H122.332V152.54H119.092ZM112.792 147.464V148.268H122.92V147.464H112.792ZM113.296 147.524V155.024C113.296 156.788 114.184 157.388 116.032 157.388C116.476 157.388 120.496 157.388 121.348 157.388C122.284 157.388 123.196 157.364 123.52 157.28C123.472 157.076 123.412 156.656 123.376 156.416C122.944 156.5 122.02 156.548 121.372 156.548C120.52 156.548 116.716 156.548 115.936 156.548C114.64 156.548 114.172 156.116 114.172 155.096V147.524H113.296ZM131.032 154.724C132.292 154.292 133.108 153.308 133.108 152.012C133.108 151.172 132.748 150.62 132.076 150.62C131.596 150.62 131.164 150.92 131.164 151.484C131.164 152.048 131.572 152.348 132.064 152.348C132.292 152.348 132.532 152.288 132.7 152.072L132.052 151.16L132.28 152.168C132.28 153.08 131.74 153.692 130.756 154.088L131.032 154.724ZM144.424 153.068V153.872H151.42V153.068H144.424ZM147.16 147.92L146.752 148.58H150.268L150.484 147.92H147.16ZM148.996 151.376V156.764C148.996 156.92 148.948 156.968 148.756 156.968C148.552 156.98 147.904 156.992 147.196 156.968C147.316 157.22 147.436 157.58 147.472 157.832C148.432 157.832 149.032 157.82 149.38 157.676C149.752 157.532 149.86 157.268 149.86 156.764V151.376H148.996ZM147.7 146.888C147.004 147.872 145.672 148.88 144.232 149.456C144.4 149.6 144.664 149.864 144.796 150.02C146.272 149.348 147.712 148.292 148.576 147.152L147.7 146.888ZM145.3 154.568C145.9 155.168 146.572 156.008 146.86 156.56L147.592 156.092C147.292 155.552 146.596 154.748 145.996 154.172L145.3 154.568ZM146.356 148.832C147.088 149.42 147.88 150.26 148.228 150.836L148.84 150.392C148.468 149.804 147.652 148.988 146.932 148.436L146.356 148.832ZM141.304 150.368V151.16H143.608V150.368H141.304ZM140.416 152.936V153.728H143.572V152.936H140.416ZM143.188 146.912V157.94H144.028V146.912H143.188ZM140.932 147.38V151.16H141.736V147.38H140.932ZM141.076 153.236V153.992C141.076 154.928 140.968 156.428 140.308 157.532C140.524 157.616 140.848 157.82 141.004 157.964C141.748 156.764 141.868 155.06 141.868 154.016V153.236H141.076ZM150.16 147.92V148.076C149.26 150.296 146.824 151.748 144.46 152.3C144.616 152.48 144.82 152.78 144.904 152.984C147.448 152.276 149.968 150.776 151.036 148.16L150.484 147.884L150.328 147.92H150.16ZM144.484 150.488L144.628 151.16C145.36 151.064 146.2 150.944 147.076 150.812L147.028 150.176C146.056 150.308 145.156 150.428 144.484 150.488ZM161.632 148.232V154.868H162.472V148.232H161.632ZM163.9 146.96V156.752C163.9 156.956 163.816 157.016 163.612 157.028C163.42 157.04 162.772 157.04 162.04 157.016C162.16 157.28 162.292 157.676 162.34 157.916C163.324 157.916 163.924 157.892 164.272 157.748C164.62 157.592 164.764 157.316 164.764 156.752V146.96H163.9ZM155.848 152.06V152.66H159.868V152.06H155.848ZM156.4 156.656V157.364H160.108V156.656H156.4ZM155.332 150.62V152.24C155.332 153.608 155.212 155.588 154.252 157.052C154.48 157.136 154.852 157.304 155.02 157.448C155.992 155.924 156.172 153.74 156.172 152.24V150.62H155.332ZM155.836 150.62V151.292H159.424V153.488H155.788V154.16H160.252V150.62H155.836ZM156.052 154.712V157.868H156.832V155.384H159.736V157.844H160.54V154.712H156.052ZM157.672 146.996C156.94 148.196 155.608 149.228 154.276 149.864C154.432 150.056 154.684 150.5 154.78 150.692C156.196 149.924 157.648 148.712 158.5 147.296L157.672 146.996ZM157.396 147.98C158.416 148.604 159.796 149.516 160.48 150.092L160.96 149.348C160.276 148.796 158.86 147.932 157.864 147.344L157.396 147.98ZM156.64 149.42V150.02H159.172V149.42H156.64ZM172.984 148.412V149.204H178.576V148.412H172.984ZM171.592 150.74V151.52H179.044V150.74H171.592ZM173.248 147.068C172.888 148.184 172.276 149.288 171.544 150.02C171.76 150.116 172.12 150.32 172.3 150.452C172.984 149.66 173.656 148.472 174.064 147.248L173.248 147.068ZM174.952 146.912V151.244H175.84V146.912H174.952ZM168.772 147.32C169.3 147.908 169.972 148.748 170.296 149.252L170.992 148.76C170.656 148.268 169.996 147.5 169.444 146.924L168.772 147.32ZM168.34 149.672V150.428H170.896V149.672H168.34ZM170.476 155.18L169.876 155.456C170.776 157.436 172.348 157.772 175.156 157.772C176.476 157.772 177.988 157.736 179.116 157.676C179.164 157.424 179.284 157.004 179.416 156.812C178.192 156.908 176.428 156.968 175.168 156.968C172.78 156.968 171.22 156.752 170.476 155.18ZM170.596 152.672V152.828C170.26 155.024 169.36 156.536 168.1 157.352C168.28 157.484 168.58 157.784 168.7 157.976C170.02 157.064 171.004 155.372 171.412 152.816L170.956 152.648L170.812 152.672H170.596ZM168.508 153.572C168.592 153.476 168.904 153.404 169.216 153.404H170.872V152.672H168.94L168.508 152.888V153.572ZM168.508 153.572C168.508 153.344 169.18 153.008 169.18 153.008C169.852 152.24 170.932 150.692 171.484 149.876L170.896 149.624L170.62 149.732L170.632 149.768C170.236 150.404 169.108 152.036 168.736 152.396C168.544 152.636 168.352 152.72 168.172 152.768C168.268 152.948 168.448 153.368 168.508 153.572ZM173.416 153.224H177.34V155.156H173.416V153.224ZM172.54 152.468V155.912H178.24V152.468H172.54ZM190.648 148.028V156.632C190.648 156.884 190.564 156.968 190.3 156.98C190.012 156.992 189.04 157.004 188.068 156.956C188.212 157.22 188.392 157.664 188.452 157.928C189.64 157.928 190.48 157.916 190.96 157.76C191.428 157.616 191.584 157.304 191.584 156.656V148.028H190.648ZM183.592 150.428V155.864H184.468V150.428H183.592ZM183.964 150.428V151.28H187.612V154.04H183.964V154.904H188.512V150.428H183.964ZM182.356 147.752V148.664H193.06V147.752H182.356ZM197.62 153.8V154.436H201.448V153.8H197.62ZM197.62 155.18V155.804H201.52V155.18H197.62ZM197.524 156.656V157.316H201.676V156.656H197.524ZM199.264 152.852V156.812H199.996V152.852H199.264ZM197.104 149.852H198.148V150.896H197.104V149.852ZM196.54 149.312V151.436H198.736V149.312H196.54ZM199.948 149.852H201.016V150.884H199.948V149.852ZM199.372 149.3V151.424H201.592V149.3H199.372ZM197.764 152.42H197.692L197.068 153.176V157.94H197.764V153.08H201.7V152.42H197.764ZM197.62 151.496C197.248 152.468 196.636 153.404 195.988 154.064C196.12 154.208 196.348 154.532 196.42 154.664C197.116 153.932 197.812 152.804 198.244 151.7L197.62 151.496ZM199.024 151.796C199.24 152.12 199.456 152.552 199.54 152.852L200.14 152.54C200.068 152.264 199.828 151.832 199.6 151.532L199.024 151.796ZM196.048 147.656V148.352H198.16V147.656H196.048ZM197.8 146.912V149.084H198.532V146.912H197.8ZM199.636 146.912V149.084H200.38V146.912H199.636ZM199.984 147.656V148.34H201.976V147.656H199.984ZM202.972 150.092H205.852V151.28H202.972V150.092ZM202.972 152.024H205.852V153.224H202.972V152.024ZM202.972 148.16H205.852V149.348H202.972V148.16ZM202.192 147.356V154.04H206.656V147.356H202.192ZM204.784 153.704V156.788C204.784 157.592 204.94 157.832 205.624 157.832C205.768 157.832 206.128 157.832 206.272 157.832C206.872 157.832 207.076 157.436 207.124 155.756C206.92 155.696 206.584 155.564 206.44 155.432C206.416 156.908 206.38 157.064 206.176 157.064C206.092 157.064 205.804 157.064 205.732 157.064C205.552 157.064 205.54 157.028 205.54 156.776V153.704H204.784ZM203.26 153.728C203.152 155.324 202.804 156.584 201.34 157.292C201.532 157.436 201.784 157.76 201.892 157.964C203.5 157.112 203.92 155.636 204.076 153.728H203.26ZM216.112 147.152C216.508 147.788 216.94 148.628 217.108 149.156L217.972 148.808C217.792 148.28 217.336 147.464 216.928 146.852L216.112 147.152ZM212.956 146.948C212.272 148.772 211.156 150.572 209.956 151.736C210.124 151.952 210.4 152.432 210.484 152.648C211.792 151.304 213.028 149.252 213.82 147.224L212.956 146.948ZM211.672 150.044V157.928H212.584V149.156L212.56 149.144L211.672 150.044ZM213.604 149.252V150.116H220.9V149.252H213.604ZM214.012 152.768V153.632H220.552V152.768H214.012ZM213.292 156.668V157.532H221.08V156.668H213.292ZM216.784 149.552V157.184H217.696V149.552H216.784ZM225.184 147.548V151.052C225.184 152.96 225.076 155.612 223.84 157.484C224.068 157.58 224.464 157.808 224.632 157.964C225.916 156.008 226.084 153.068 226.084 151.052V147.548H225.184ZM225.772 147.548V148.352H233.128V149.684H225.772V150.488H234.028V147.548H225.772ZM225.748 151.82V152.648H234.724V151.82H225.748ZM227.464 156.716V157.52H233.392V156.716H227.464ZM229.924 150.428V154.352H230.812V150.428H229.924ZM226.996 154.052V157.94H227.872V154.856H232.924V157.916H233.824V154.052H226.996ZM238.804 147.416V148.1H247.912V147.416H238.804ZM242.884 147.644V152.348H243.772V147.644H242.884ZM238.276 148.988V151.58H239.14V149.696H247.576V151.58H248.476V148.988H238.276ZM239.356 151.76L239.62 152.456C240.4 152.312 241.312 152.12 242.248 151.928L242.224 151.352C241.144 151.52 240.112 151.676 239.356 151.76ZM239.656 150.392C240.448 150.548 241.456 150.86 241.984 151.088L242.248 150.548C241.708 150.308 240.7 150.044 239.92 149.912L239.656 150.392ZM246.7 149.852C246.124 150.068 245.104 150.428 244.42 150.584L244.744 151.052C245.44 150.896 246.412 150.668 247.108 150.368L246.7 149.852ZM244.264 151.844C245.212 151.976 246.436 152.264 247.096 152.492L247.288 151.88C246.628 151.652 245.416 151.388 244.48 151.292L244.264 151.844ZM238.144 152.708V153.44H248.632V152.708H238.144ZM241.708 154.772V157.856H242.548V154.772H241.708ZM244.372 154.772V157.856H245.2V154.772H244.372ZM239.08 154.304V157.928H239.932V155.048H247.312V154.304H239.08ZM247.084 154.304V157.04C247.084 157.148 247.048 157.184 246.916 157.196C246.784 157.208 246.376 157.208 245.896 157.196C246.004 157.412 246.136 157.724 246.172 157.94C246.832 157.94 247.276 157.952 247.576 157.808C247.888 157.676 247.948 157.46 247.948 157.052V154.304H247.084ZM242.908 152.984C242.824 153.476 242.608 154.196 242.428 154.688L243.22 154.772C243.424 154.328 243.676 153.668 243.892 153.02L242.908 152.984ZM252.064 148.916V149.792H262.564V148.916H252.064ZM257.656 149.696L256.948 149.912C257.932 153.02 259.708 155.72 262.228 156.944C262.384 156.692 262.672 156.344 262.888 156.152C260.404 155.096 258.556 152.528 257.656 149.696ZM261.268 150.344C260.632 151.22 259.504 152.384 258.688 153.068L259.324 153.56C260.164 152.888 261.256 151.808 262.048 150.896L261.268 150.344ZM258.844 147.548C259.6 147.944 260.56 148.556 261.028 148.988L261.604 148.34C261.1 147.932 260.14 147.356 259.384 146.984L258.844 147.548ZM252.688 150.98C253.456 151.664 254.308 152.624 254.68 153.284L255.412 152.744C255.028 152.096 254.14 151.16 253.384 150.512L252.688 150.98ZM256.804 146.936V156.728C256.804 156.956 256.72 157.016 256.504 157.028C256.264 157.04 255.484 157.04 254.644 157.016C254.788 157.292 254.932 157.712 254.98 157.964C256.036 157.964 256.756 157.952 257.164 157.784C257.56 157.64 257.728 157.364 257.728 156.728V146.936H256.804ZM251.8 155.924L252.376 156.728C253.744 155.936 255.616 154.82 257.32 153.764L257.056 153.008C255.172 154.088 253.072 155.264 251.8 155.924ZM271.252 150.608C270.244 150.608 269.416 151.424 269.416 152.432C269.416 153.452 270.244 154.268 271.252 154.268C272.26 154.268 273.076 153.452 273.076 152.432C273.076 151.424 272.26 150.608 271.252 150.608ZM271.252 153.656C270.58 153.656 270.028 153.116 270.028 152.432C270.028 151.772 270.58 151.22 271.252 151.22C271.924 151.22 272.464 151.772 272.464 152.432C272.464 153.116 271.924 153.656 271.252 153.656Z" fill="black"/>
<path d="M49.42 15.96L49 15.04C51.75 13.64 53.99 12.18 55 8.68002H49.9V7.42002H55.3C55.44 6.58002 55.55 5.63002 55.58 4.56002H53.54C52.76 5.63002 51.92 6.58002 51.16 7.22002L50.46 6.52002C51.63 4.75002 52.64 2.26002 53.09 0.0200195L55.78 0.72002C55.44 1.51002 54.94 2.40002 54.38 3.30002H62.39V4.56002H58.16C58.1 5.60002 58.02 6.55002 57.85 7.42002H63.01V8.68002H57.52C57.44 8.96002 57.32 9.24002 57.24 9.52002C59.29 10.16 61.3 11.06 62.67 11.96L61.19 14.17C60.07 13.08 58.5 11.82 56.74 10.58C55.28 13.27 52.76 14.84 49.43 15.96H49.42ZM53.82 14.62H69.62V26.13H67.15V24.34H56.28V26.27H53.82V14.61V14.62ZM56.28 18.63H67.15V15.88H56.28V18.63ZM56.28 23.08H67.15V19.89H56.28V23.08ZM72.87 2.79002V13.47H70.46V11.56H65.95V13.75H63.54V2.79002H72.87ZM70.46 10.3V4.05002H65.95V10.3H70.46Z" fill="#D68F41"/>
<path d="M81.6601 18.6199L82.6101 18.8999C82.2501 21.3899 81.2401 23.8299 79.7501 25.5399L77.6201 23.6099C79.3801 22.3799 80.9301 20.9799 81.6501 18.6199H81.6601ZM96.8701 15.0099H77.9601V13.7499H96.8701V12.4299H80.6801V11.2799H99.2801V13.7499H102.45V15.0099H99.2801V17.6399H80.5101V16.4899H96.8701V15.0099ZM83.1701 8.89994H78.4601V7.74994H83.1701V6.17994H79.4201V5.02994H83.1701V3.56994H78.8001V2.41994H83.1701V0.439941H85.5201V2.42994H89.2201V3.57994H85.5201V5.03994H88.9101V6.18994H85.5201V7.75994H89.2201V8.90994H85.5201V10.5899H83.1701V8.90994V8.89994ZM96.3101 19.7099C97.5701 23.9399 96.5101 25.1199 94.1801 25.3999C92.5301 25.5999 90.2001 25.6499 88.4701 25.5099C85.8901 25.3099 84.2401 25.0599 84.2401 22.9899V18.4499H86.7101V21.6699C86.7101 22.7899 87.1001 23.1499 88.6701 23.2699C90.5501 23.4099 92.4201 23.3499 93.6301 23.1899C95.0001 22.9899 95.2801 22.6899 95.3101 19.7199H96.3201L96.3101 19.7099ZM88.1301 19.2099L88.4901 18.2899C89.9701 18.5999 91.7701 19.0199 93.6701 20.1399L92.3001 22.3199C91.1201 21.2599 89.5501 20.1099 88.1301 19.2099ZM94.3801 8.89994H90.2901V7.74994H94.3801V6.17994H90.8501V5.02994H94.3801V3.56994H90.2901V2.41994H94.3801V0.439941H96.7301V2.42994H101.3V3.57994H96.7301V5.03994H100.88V6.18994H96.7301V7.75994H101.94V8.90994H96.7301V10.5899H94.3801V8.90994V8.89994ZM102.7 23.1299L100.49 24.8099C99.4801 22.6499 98.5601 21.0799 97.3001 19.1499L98.0301 18.5599C99.4301 19.5399 101.19 21.0499 102.71 23.1299H102.7Z" fill="#D68F41"/>
<path d="M113.51 12.46V26.41H111.1V14.22C110.06 16.63 108.66 18.98 106.62 21.2L105.92 20.56C108.08 17.45 109.67 13.28 110.63 9.19H106.43V7.93H111.11V3.86C109.57 4.14 108.06 4.34 106.77 4.45L106.57 3.5C109.71 2.77 112.65 1.82 115.51 0L117.5 2.19C116.32 2.64 114.95 3.03 113.52 3.37V7.92H117.5V9.18H113.52V10.83C115 11.9 116.94 13.52 117.86 14.58L115.87 16.43C115.31 15.34 114.39 13.82 113.52 12.45L113.51 12.46ZM127.41 17.2V26.14H124.94V17.76C121.94 18.43 118.92 19.1 115.92 19.72L115.5 18.46C118.64 17.82 121.8 17.14 124.94 16.44V0.38H127.41V15.87C128.56 15.59 129.74 15.34 130.88 15.06L131.22 16.29C129.96 16.6 128.67 16.91 127.41 17.19V17.2ZM118.14 9.86C120.13 11.04 121.67 12.21 123.3 14.03L121.17 15.91C120.02 13.89 118.84 12.41 117.44 10.59L118.14 9.86ZM121.81 8.54C120.49 6.69 119.37 5.32 117.89 3.66L118.51 2.9C120.44 3.94 122.07 5 123.72 6.65L121.81 8.53V8.54Z" fill="#D68F41"/>
<path d="M141.46 15.3099L141.43 23.7999C141.43 26.2399 139.5 27.3299 135.27 24.6099L135.55 23.6899C138.49 24.3899 139.08 24.2199 139.08 22.9099V16.3299C137.93 16.7799 136.78 17.1399 135.61 17.5099L134.8 14.7599C136.34 14.5399 137.74 14.3399 139.09 14.0599V8.14988H135.08V6.88988H139.09V0.379883H141.5L141.47 6.87988H144.8V8.13988H141.47V13.5499C142.28 13.3499 143.12 13.0999 143.96 12.8499L144.32 13.7999C143.37 14.3599 142.41 14.8599 141.46 15.3099ZM158.33 26.0699C155.64 25.1499 153.26 23.8899 151.3 22.0099C148.97 23.9699 145.98 25.3199 141.91 26.3199L141.57 25.3699C145.35 24.0299 147.99 22.3999 149.89 20.4699C148.24 18.3699 147.03 15.6799 146.36 12.1499H144.48V10.8899H149.75V6.26988H144.15V5.00988H149.75V0.379883H152.27V4.99988H158.71V6.25988H152.27V10.8799H154.26L154.93 10.4299L157.48 11.6899C156.28 15.3599 154.9 18.1599 153 20.3199C154.88 21.5499 157.17 22.3899 160.03 23.1499L158.32 26.0599L158.33 26.0699ZM151.24 18.9299C152.73 16.9699 153.65 14.6999 154.38 12.1499H147.38C148.28 15.1499 149.51 17.2999 151.25 18.9299H151.24Z" fill="#D68F41"/>
<path d="M188.63 21.1699L186.72 24.4499C183.69 22.9099 179.41 19.3499 177.17 14.6699V26.4599H174.48V14.7799C172.27 18.6999 167.92 22.3199 163.78 24.4199L163.22 23.4999C167.81 20.3899 170.84 16.8599 172.86 13.1599H164.15V11.6199H174.49V7.18988H166.11V5.78988H174.49V0.379883H177.18V5.78988H185.44V7.18988H177.18V11.6199H187.57V13.1599H177.68C180.45 17.1699 184.96 19.8799 188.63 21.1699Z" fill="#D68F41"/>
<path d="M216.64 21.4798L214.79 24.5598C211.09 22.4298 207.98 19.5498 205.63 15.1998V26.3798H203.05V16.2098C200.86 19.2098 197.17 22.5698 192.6 24.6198L192.15 23.6998C195.57 21.7898 199.71 17.7598 201.9 14.1698L200.36 15.2298C199.83 13.8598 199.21 12.5698 198.68 11.4998C197.76 13.9098 196.33 16.0398 193.78 18.0598L193.11 17.2998C195.77 14.1598 196.78 11.0198 197.12 6.7398L199.78 7.2398C199.61 8.2198 199.42 9.1498 199.16 10.0398C200.28 11.0798 201.54 12.3398 202.3 13.4898C202.61 12.9298 202.86 12.3998 203.06 11.8898V5.9598H193.17V4.4198H203.06V0.299805H205.64V4.4198H215.64V5.9598H205.64V12.9598C206 13.4598 206.37 13.9398 206.73 14.3598C208.24 12.0898 208.97 9.98981 209.42 6.6798L212.05 7.3498C211.74 8.3898 211.41 9.3398 211.01 10.2098C212.66 11.3898 214.2 12.8198 215.13 13.8798L213.17 15.6998C212.36 14.2398 211.38 12.6998 210.42 11.4098C209.61 12.9498 208.65 14.1798 207.48 15.2498C210.17 18.2798 212.97 20.0098 216.64 21.4698V21.4798Z" fill="#D68F41"/>
<path d="M241.74 24.9801C240.79 24.1701 240.03 23.0201 239.41 21.6201C237.65 23.6401 235.43 25.1801 232.66 26.2701L232.21 25.4001C235.04 23.9201 237.09 21.9001 238.65 19.4601C237.53 15.5701 237.25 10.6401 237.17 6.35008H231.76V10.7201H236.58C236.58 12.9001 236.72 16.7201 236.44 18.8701C236.1 21.5601 234.09 21.8401 231.43 19.7901L231.74 18.9801C233.64 19.4301 233.92 19.4801 234.12 18.5901C234.2 18.2301 234.32 15.7001 234.29 11.9801H231.77V13.4101C231.77 19.2901 229.89 23.1901 226.48 26.3001L225.78 25.6301C227.88 23.3001 228.89 19.8901 229.23 16.3901C226.74 18.2701 224.58 19.5801 221.39 21.2101L220.27 18.4901C221.19 18.2901 222.31 17.9901 223.58 17.5701V9.40008H220.64V8.14008H223.58V1.03008L225.99 1.00008V8.12008L228.82 8.15008V9.41008L225.99 9.38008V16.7201C226.89 16.3601 227.78 15.9601 228.65 15.5401L229.24 16.3801C229.32 15.3701 229.38 14.3601 229.38 13.3801V5.09008H237.2V0.330078H239.5V5.09008H242.64C242.11 4.02008 241.24 2.74008 240.34 1.59008L241.01 0.800078C242.38 1.59008 243.76 2.65008 244.82 3.66008L243.11 5.09008H244.99V6.35008H239.53C239.56 9.66008 239.75 13.2401 240.29 16.3001C241.27 13.9701 241.94 11.3701 242.42 8.54008L244.91 9.27008C244.07 13.3301 242.86 16.7201 241.07 19.4701C241.41 20.4801 241.83 21.3501 242.3 22.0501C243.64 24.0401 244.23 22.8601 244.23 19.1701H245.13C246.87 24.5201 244.79 27.5501 241.77 25.0001L241.74 24.9801Z" fill="#D68F41"/>
<path d="M66.3398 50.3602V43.9502H67.3598V50.3602H66.3398Z" fill="#969696"/>
<path d="M74.5499 47.58V50.36H73.5299V47.69C73.5299 47.46 73.5299 47.24 73.5099 46.99C73.4599 46.43 73.1699 46.04 72.4699 46.04C71.7699 46.04 71.1899 46.6 71.1899 48.14V50.35H70.1699V45.42H71.1899V46.24L71.5199 45.67C71.9099 45.37 72.2699 45.29 72.7699 45.29C73.8299 45.29 74.4299 45.84 74.5299 46.7C74.5499 46.95 74.5599 47.17 74.5599 47.57L74.5499 47.58Z" fill="#969696"/>
<path d="M78.5 48.76C78.5 48.93 78.5 49.04 78.5 49.17C78.54 49.65 78.72 49.76 79.39 49.69V50.4C79.13 50.44 78.89 50.46 78.64 50.46C77.87 50.46 77.53 50.17 77.49 49.52C77.49 49.35 77.49 49.14 77.49 48.86V46.18H76.79V45.47H77.49V44.29H78.5V45.47H79.47V46.18H78.5V48.76Z" fill="#969696"/>
<path d="M85.9999 48.1801H82.4599C82.5399 49.3601 83.0799 49.7501 83.7499 49.7501C84.3399 49.7501 84.8099 49.3901 84.9099 48.7701H85.9399C85.7299 49.9401 84.7899 50.5001 83.7099 50.5001C82.3899 50.5001 81.3999 49.6601 81.3999 47.9201C81.3999 46.3601 82.3899 45.3101 83.8199 45.3101C85.2499 45.3101 86.0199 46.3901 86.0199 47.7801C86.0199 47.8701 86.0199 48.0101 85.9999 48.1901V48.1801ZM82.4699 47.4601H84.9699C84.8999 46.5501 84.4999 46.0401 83.7799 46.0401C83.0599 46.0401 82.5799 46.5101 82.4699 47.4601Z" fill="#969696"/>
<path d="M89.4699 48.8503C89.4699 49.0203 89.4699 49.1703 89.4699 49.3103C89.4899 49.5903 89.6199 49.6803 90.0499 49.6503V50.3703C89.8499 50.4003 89.6099 50.4203 89.3799 50.4203C88.8399 50.4203 88.4799 50.2303 88.4399 49.5903C88.4399 49.4003 88.4399 49.1803 88.4399 48.8803V43.5303H89.4599V48.8603L89.4699 48.8503Z" fill="#969696"/>
<path d="M93.3896 48.8503C93.3896 49.0203 93.3896 49.1703 93.3896 49.3103C93.4096 49.5903 93.5396 49.6803 93.9796 49.6503V50.3703C93.7796 50.4003 93.5396 50.4203 93.3096 50.4203C92.7696 50.4203 92.4096 50.2303 92.3696 49.5903C92.3696 49.4003 92.3696 49.1803 92.3696 48.8803V43.5303H93.3896V48.8603V48.8503Z" fill="#969696"/>
<path d="M97.44 44.2902C97.44 44.6302 97.18 44.8802 96.84 44.8802C96.5 44.8802 96.25 44.6302 96.25 44.2902C96.25 43.9502 96.5 43.7002 96.84 43.7002C97.18 43.7002 97.44 43.9502 97.44 44.2902ZM96.33 50.3602V45.4302H97.35V50.3602H96.33Z" fill="#969696"/>
<path d="M104.68 49.13C104.68 49.44 104.68 49.82 104.68 50.09C104.62 51.59 103.69 52.34 102.21 52.34C100.73 52.34 100.04 51.75 99.93 50.69V50.6H100.92V50.68C101 51.21 101.45 51.57 102.21 51.57C103.1 51.57 103.61 51.09 103.65 50.2C103.65 49.99 103.65 49.81 103.65 49.63V49.53L103.28 50.07C103 50.29 102.52 50.44 102.02 50.44C100.6 50.44 99.77 49.4 99.77 47.95C99.77 46.15 100.89 45.29 102.16 45.29C102.57 45.29 103.08 45.4 103.33 45.6L103.66 46.09V45.42H104.68V49.13ZM103.66 47.89V47.68C103.66 46.48 102.94 46.03 102.28 46.03C101.47 46.03 100.86 46.62 100.86 47.85C100.86 48.92 101.35 49.69 102.24 49.69C103.01 49.69 103.67 49.21 103.67 47.89H103.66Z" fill="#969696"/>
<path d="M111.71 48.1801H108.17C108.25 49.3601 108.79 49.7501 109.46 49.7501C110.05 49.7501 110.52 49.3901 110.62 48.7701H111.65C111.44 49.9401 110.5 50.5001 109.42 50.5001C108.1 50.5001 107.11 49.6601 107.11 47.9201C107.11 46.3601 108.1 45.3101 109.53 45.3101C110.96 45.3101 111.73 46.3901 111.73 47.7801C111.73 47.8701 111.73 48.0101 111.71 48.1901V48.1801ZM108.18 47.4601H110.68C110.61 46.5501 110.21 46.0401 109.49 46.0401C108.77 46.0401 108.29 46.5101 108.18 47.4601Z" fill="#969696"/>
<path d="M118.58 47.58V50.36H117.56V47.69C117.56 47.46 117.56 47.24 117.54 46.99C117.49 46.43 117.2 46.04 116.5 46.04C115.8 46.04 115.22 46.6 115.22 48.14V50.35H114.2V45.42H115.22V46.24L115.56 45.67C115.95 45.37 116.31 45.29 116.81 45.29C117.87 45.29 118.47 45.84 118.57 46.7C118.59 46.95 118.6 47.17 118.6 47.57L118.58 47.58Z" fill="#969696"/>
<path d="M125.48 47.13H124.45C124.3 46.38 123.9 46.03 123.3 46.03C122.58 46.03 122.02 46.6 122.02 47.83C122.02 49.17 122.58 49.73 123.27 49.73C123.85 49.73 124.27 49.38 124.42 48.71H125.46C125.23 49.89 124.37 50.48 123.21 50.48C121.92 50.48 120.94 49.66 120.94 47.91C120.94 46.16 122.04 45.29 123.33 45.29C124.62 45.29 125.37 46.04 125.49 47.13H125.48Z" fill="#969696"/>
<path d="M132.08 48.1801H128.54C128.62 49.3601 129.16 49.7501 129.83 49.7501C130.42 49.7501 130.89 49.3901 130.99 48.7701H132.02C131.81 49.9401 130.87 50.5001 129.79 50.5001C128.47 50.5001 127.48 49.6601 127.48 47.9201C127.48 46.3601 128.47 45.3101 129.9 45.3101C131.33 45.3101 132.1 46.3901 132.1 47.7801C132.1 47.8701 132.1 48.0101 132.08 48.1901V48.1801ZM128.55 47.4601H131.05C130.98 46.5501 130.58 46.0401 129.86 46.0401C129.14 46.0401 128.66 46.5101 128.55 47.4601Z" fill="#969696"/>
<path d="M140.85 44.7602V50.3602H139.84V44.7602H137.6V43.9502H143.09V44.7602H140.85Z" fill="#969696"/>
<path d="M148.86 48.1801H145.32C145.4 49.3601 145.94 49.7501 146.61 49.7501C147.2 49.7501 147.67 49.3901 147.77 48.7701H148.8C148.59 49.9401 147.65 50.5001 146.57 50.5001C145.25 50.5001 144.26 49.6601 144.26 47.9201C144.26 46.3601 145.25 45.3101 146.68 45.3101C148.11 45.3101 148.88 46.3901 148.88 47.7801C148.88 47.8701 148.88 48.0101 148.86 48.1901V48.1801ZM145.33 47.4601H147.83C147.76 46.5501 147.36 46.0401 146.64 46.0401C145.92 46.0401 145.44 46.5101 145.33 47.4601Z" fill="#969696"/>
<path d="M155.51 47.13H154.48C154.33 46.38 153.93 46.03 153.33 46.03C152.61 46.03 152.05 46.6 152.05 47.83C152.05 49.17 152.61 49.73 153.3 49.73C153.88 49.73 154.3 49.38 154.45 48.71H155.49C155.26 49.89 154.4 50.48 153.24 50.48C151.95 50.48 150.97 49.66 150.97 47.91C150.97 46.16 152.07 45.29 153.36 45.29C154.65 45.29 155.4 46.04 155.52 47.13H155.51Z" fill="#969696"/>
<path d="M162.27 47.5802V50.3602H161.25V47.6902C161.25 47.4602 161.25 47.2402 161.23 46.9902C161.18 46.4302 160.89 46.0302 160.19 46.0402C159.48 46.0602 158.91 46.6002 158.91 48.1402V50.3502H157.89V43.4702H158.91V46.2302L159.25 45.6602C159.64 45.3602 160 45.2802 160.5 45.2802C161.56 45.2802 162.16 45.8302 162.26 46.6902C162.28 46.9402 162.29 47.1602 162.29 47.5602L162.27 47.5802Z" fill="#969696"/>
<path d="M169.39 47.58V50.36H168.37V47.69C168.37 47.46 168.37 47.24 168.35 46.99C168.3 46.43 168.01 46.04 167.31 46.04C166.61 46.04 166.03 46.6 166.03 48.14V50.35H165.01V45.42H166.03V46.24L166.37 45.67C166.76 45.37 167.12 45.29 167.62 45.29C168.68 45.29 169.28 45.84 169.38 46.7C169.4 46.95 169.41 47.17 169.41 47.57L169.39 47.58Z" fill="#969696"/>
<path d="M176.75 47.8903C176.75 49.3303 175.9 50.4903 174.25 50.4903C172.6 50.4903 171.75 49.3303 171.75 47.8903C171.75 46.4503 172.59 45.3003 174.25 45.3003C175.91 45.3003 176.75 46.4503 176.75 47.8903ZM175.66 47.8903C175.66 46.7703 175.14 46.0403 174.25 46.0403C173.36 46.0403 172.83 46.7703 172.83 47.8903C172.83 49.0103 173.35 49.7503 174.25 49.7503C175.15 49.7503 175.66 49.0103 175.66 47.8903Z" fill="#969696"/>
<path d="M180.12 48.8503C180.12 49.0203 180.12 49.1703 180.12 49.3103C180.14 49.5903 180.27 49.6803 180.71 49.6503V50.3703C180.51 50.4003 180.27 50.4203 180.04 50.4203C179.5 50.4203 179.14 50.2303 179.1 49.5903C179.1 49.4003 179.1 49.1803 179.1 48.8803V43.5303H180.12V48.8603V48.8503Z" fill="#969696"/>
<path d="M187.69 47.8903C187.69 49.3303 186.84 50.4903 185.19 50.4903C183.54 50.4903 182.69 49.3303 182.69 47.8903C182.69 46.4503 183.53 45.3003 185.19 45.3003C186.85 45.3003 187.69 46.4503 187.69 47.8903ZM186.6 47.8903C186.6 46.7703 186.08 46.0403 185.19 46.0403C184.3 46.0403 183.77 46.7703 183.77 47.8903C183.77 49.0103 184.29 49.7503 185.19 49.7503C186.09 49.7503 186.6 49.0103 186.6 47.8903Z" fill="#969696"/>
<path d="M194.61 49.13C194.61 49.44 194.61 49.82 194.61 50.09C194.55 51.59 193.62 52.34 192.14 52.34C190.66 52.34 189.97 51.75 189.86 50.69V50.6H190.85V50.68C190.93 51.21 191.38 51.57 192.14 51.57C193.03 51.57 193.54 51.09 193.58 50.2C193.58 49.99 193.58 49.81 193.58 49.63V49.53L193.21 50.07C192.93 50.29 192.45 50.44 191.95 50.44C190.53 50.44 189.7 49.4 189.7 47.95C189.7 46.15 190.82 45.29 192.09 45.29C192.5 45.29 193.01 45.4 193.26 45.6L193.59 46.09V45.42H194.61V49.13ZM193.59 47.89V47.68C193.59 46.48 192.87 46.03 192.21 46.03C191.4 46.03 190.79 46.62 190.79 47.85C190.79 48.92 191.28 49.69 192.17 49.69C192.94 49.69 193.6 49.21 193.6 47.89H193.59Z" fill="#969696"/>
<path d="M199.73 50.6804C199.27 51.8504 198.74 52.3204 197.85 52.3204C197.64 52.3204 197.52 52.3204 197.37 52.2904V51.5404C197.49 51.5404 197.59 51.5404 197.7 51.5404C198.16 51.5404 198.48 51.3404 198.7 50.7704L198.77 50.5904L196.78 45.4204H197.92L199.28 49.5904L200.63 45.4204H201.74L199.73 50.6704V50.6804Z" fill="#969696"/>
<path d="M212.85 46.0103V46.1003H211.85L211.83 46.0103C211.65 45.1503 211.12 44.6003 210.16 44.6003C208.97 44.6003 208.22 45.6203 208.22 47.1403C208.22 48.7303 208.98 49.7103 210.12 49.7103C211.09 49.7103 211.62 49.1403 211.79 48.2803L211.81 48.1903H212.82V48.2803C212.68 49.5303 211.74 50.4903 210.07 50.4903C208.24 50.4903 207.11 49.1303 207.11 47.1803C207.11 45.2303 208.37 43.8203 210.18 43.8203C211.85 43.8203 212.73 44.7503 212.86 46.0103H212.85Z" fill="#969696"/>
<path d="M216.47 44.2902C216.47 44.6302 216.21 44.8802 215.87 44.8802C215.53 44.8802 215.28 44.6302 215.28 44.2902C215.28 43.9502 215.53 43.7002 215.87 43.7002C216.21 43.7002 216.47 43.9502 216.47 44.2902ZM215.36 50.3602V45.4302H216.38V50.3602H215.36Z" fill="#969696"/>
<path d="M220.4 48.76C220.4 48.93 220.4 49.04 220.4 49.17C220.44 49.65 220.62 49.76 221.29 49.69V50.4C221.03 50.44 220.79 50.46 220.54 50.46C219.77 50.46 219.43 50.17 219.39 49.52C219.39 49.35 219.39 49.14 219.39 48.86V46.18H218.69V45.47H219.39V44.29H220.4V45.47H221.37V46.18H220.4V48.76Z" fill="#969696"/>
<path d="M226.09 50.6804C225.63 51.8504 225.1 52.3204 224.21 52.3204C224 52.3204 223.88 52.3204 223.73 52.2904V51.5404C223.85 51.5404 223.95 51.5404 224.06 51.5404C224.52 51.5404 224.84 51.3404 225.06 50.7704L225.13 50.5904L223.14 45.4204H224.28L225.64 49.5904L226.99 45.4204H228.1L226.09 50.6704V50.6804Z" fill="#969696"/>
</svg>
