<svg width="295" height="165" viewBox="0 0 295 165" fill="none" xmlns="http://www.w3.org/2000/svg">
<path d="M49.42 15.96L49 15.04C51.75 13.64 53.99 12.18 55 8.68002H49.9V7.42002H55.3C55.44 6.58002 55.55 5.63002 55.58 4.56002H53.54C52.76 5.63002 51.92 6.58002 51.16 7.22002L50.46 6.52002C51.63 4.75002 52.64 2.26002 53.09 0.0200195L55.78 0.72002C55.44 1.51002 54.94 2.40002 54.38 3.30002H62.39V4.56002H58.16C58.1 5.60002 58.02 6.55002 57.85 7.42002H63.01V8.68002H57.52C57.44 8.96002 57.32 9.24002 57.24 9.52002C59.29 10.16 61.3 11.06 62.67 11.96L61.19 14.17C60.07 13.08 58.5 11.82 56.74 10.58C55.28 13.27 52.76 14.84 49.43 15.96H49.42ZM53.82 14.62H69.62V26.13H67.15V24.34H56.28V26.27H53.82V14.61V14.62ZM56.28 18.63H67.15V15.88H56.28V18.63ZM56.28 23.08H67.15V19.89H56.28V23.08ZM72.87 2.79002V13.47H70.46V11.56H65.95V13.75H63.54V2.79002H72.87ZM70.46 10.3V4.05002H65.95V10.3H70.46Z" fill="#D68F41"/>
<path d="M81.6601 18.6199L82.6101 18.8999C82.2501 21.3899 81.2401 23.8299 79.7501 25.5399L77.6201 23.6099C79.3801 22.3799 80.9301 20.9799 81.6501 18.6199H81.6601ZM96.8701 15.0099H77.9601V13.7499H96.8701V12.4299H80.6801V11.2799H99.2801V13.7499H102.45V15.0099H99.2801V17.6399H80.5101V16.4899H96.8701V15.0099ZM83.1701 8.89994H78.4601V7.74994H83.1701V6.17994H79.4201V5.02994H83.1701V3.56994H78.8001V2.41994H83.1701V0.439941H85.5201V2.42994H89.2201V3.57994H85.5201V5.03994H88.9101V6.18994H85.5201V7.75994H89.2201V8.90994H85.5201V10.5899H83.1701V8.90994V8.89994ZM96.3101 19.7099C97.5701 23.9399 96.5101 25.1199 94.1801 25.3999C92.5301 25.5999 90.2001 25.6499 88.4701 25.5099C85.8901 25.3099 84.2401 25.0599 84.2401 22.9899V18.4499H86.7101V21.6699C86.7101 22.7899 87.1001 23.1499 88.6701 23.2699C90.5501 23.4099 92.4201 23.3499 93.6301 23.1899C95.0001 22.9899 95.2801 22.6899 95.3101 19.7199H96.3201L96.3101 19.7099ZM88.1301 19.2099L88.4901 18.2899C89.9701 18.5999 91.7701 19.0199 93.6701 20.1399L92.3001 22.3199C91.1201 21.2599 89.5501 20.1099 88.1301 19.2099ZM94.3801 8.89994H90.2901V7.74994H94.3801V6.17994H90.8501V5.02994H94.3801V3.56994H90.2901V2.41994H94.3801V0.439941H96.7301V2.42994H101.3V3.57994H96.7301V5.03994H100.88V6.18994H96.7301V7.75994H101.94V8.90994H96.7301V10.5899H94.3801V8.90994V8.89994ZM102.7 23.1299L100.49 24.8099C99.4801 22.6499 98.5601 21.0799 97.3001 19.1499L98.0301 18.5599C99.4301 19.5399 101.19 21.0499 102.71 23.1299H102.7Z" fill="#D68F41"/>
<path d="M113.51 12.46V26.41H111.1V14.22C110.06 16.63 108.66 18.98 106.62 21.2L105.92 20.56C108.08 17.45 109.67 13.28 110.63 9.19H106.43V7.93H111.11V3.86C109.57 4.14 108.06 4.34 106.77 4.45L106.57 3.5C109.71 2.77 112.65 1.82 115.51 0L117.5 2.19C116.32 2.64 114.95 3.03 113.52 3.37V7.92H117.5V9.18H113.52V10.83C115 11.9 116.94 13.52 117.86 14.58L115.87 16.43C115.31 15.34 114.39 13.82 113.52 12.45L113.51 12.46ZM127.41 17.2V26.14H124.94V17.76C121.94 18.43 118.92 19.1 115.92 19.72L115.5 18.46C118.64 17.82 121.8 17.14 124.94 16.44V0.38H127.41V15.87C128.56 15.59 129.74 15.34 130.88 15.06L131.22 16.29C129.96 16.6 128.67 16.91 127.41 17.19V17.2ZM118.14 9.86C120.13 11.04 121.67 12.21 123.3 14.03L121.17 15.91C120.02 13.89 118.84 12.41 117.44 10.59L118.14 9.86ZM121.81 8.54C120.49 6.69 119.37 5.32 117.89 3.66L118.51 2.9C120.44 3.94 122.07 5 123.72 6.65L121.81 8.53V8.54Z" fill="#D68F41"/>
<path d="M141.46 15.3099L141.43 23.7999C141.43 26.2399 139.5 27.3299 135.27 24.6099L135.55 23.6899C138.49 24.3899 139.08 24.2199 139.08 22.9099V16.3299C137.93 16.7799 136.78 17.1399 135.61 17.5099L134.8 14.7599C136.34 14.5399 137.74 14.3399 139.09 14.0599V8.14988H135.08V6.88988H139.09V0.379883H141.5L141.47 6.87988H144.8V8.13988H141.47V13.5499C142.28 13.3499 143.12 13.0999 143.96 12.8499L144.32 13.7999C143.37 14.3599 142.41 14.8599 141.46 15.3099ZM158.33 26.0699C155.64 25.1499 153.26 23.8899 151.3 22.0099C148.97 23.9699 145.98 25.3199 141.91 26.3199L141.57 25.3699C145.35 24.0299 147.99 22.3999 149.89 20.4699C148.24 18.3699 147.03 15.6799 146.36 12.1499H144.48V10.8899H149.75V6.26988H144.15V5.00988H149.75V0.379883H152.27V4.99988H158.71V6.25988H152.27V10.8799H154.26L154.93 10.4299L157.48 11.6899C156.28 15.3599 154.9 18.1599 153 20.3199C154.88 21.5499 157.17 22.3899 160.03 23.1499L158.32 26.0599L158.33 26.0699ZM151.24 18.9299C152.73 16.9699 153.65 14.6999 154.38 12.1499H147.38C148.28 15.1499 149.51 17.2999 151.25 18.9299H151.24Z" fill="#D68F41"/>
<path d="M188.63 21.1699L186.72 24.4499C183.69 22.9099 179.41 19.3499 177.17 14.6699V26.4599H174.48V14.7799C172.27 18.6999 167.92 22.3199 163.78 24.4199L163.22 23.4999C167.81 20.3899 170.84 16.8599 172.86 13.1599H164.15V11.6199H174.49V7.18988H166.11V5.78988H174.49V0.379883H177.18V5.78988H185.44V7.18988H177.18V11.6199H187.57V13.1599H177.68C180.45 17.1699 184.96 19.8799 188.63 21.1699Z" fill="#D68F41"/>
<path d="M216.64 21.4798L214.79 24.5598C211.09 22.4298 207.98 19.5498 205.63 15.1998V26.3798H203.05V16.2098C200.86 19.2098 197.17 22.5698 192.6 24.6198L192.15 23.6998C195.57 21.7898 199.71 17.7598 201.9 14.1698L200.36 15.2298C199.83 13.8598 199.21 12.5698 198.68 11.4998C197.76 13.9098 196.33 16.0398 193.78 18.0598L193.11 17.2998C195.77 14.1598 196.78 11.0198 197.12 6.7398L199.78 7.2398C199.61 8.2198 199.42 9.1498 199.16 10.0398C200.28 11.0798 201.54 12.3398 202.3 13.4898C202.61 12.9298 202.86 12.3998 203.06 11.8898V5.9598H193.17V4.4198H203.06V0.299805H205.64V4.4198H215.64V5.9598H205.64V12.9598C206 13.4598 206.37 13.9398 206.73 14.3598C208.24 12.0898 208.97 9.98981 209.42 6.6798L212.05 7.3498C211.74 8.3898 211.41 9.3398 211.01 10.2098C212.66 11.3898 214.2 12.8198 215.13 13.8798L213.17 15.6998C212.36 14.2398 211.38 12.6998 210.42 11.4098C209.61 12.9498 208.65 14.1798 207.48 15.2498C210.17 18.2798 212.97 20.0098 216.64 21.4698V21.4798Z" fill="#D68F41"/>
<path d="M241.74 24.9801C240.79 24.1701 240.03 23.0201 239.41 21.6201C237.65 23.6401 235.43 25.1801 232.66 26.2701L232.21 25.4001C235.04 23.9201 237.09 21.9001 238.65 19.4601C237.53 15.5701 237.25 10.6401 237.17 6.35008H231.76V10.7201H236.58C236.58 12.9001 236.72 16.7201 236.44 18.8701C236.1 21.5601 234.09 21.8401 231.43 19.7901L231.74 18.9801C233.64 19.4301 233.92 19.4801 234.12 18.5901C234.2 18.2301 234.32 15.7001 234.29 11.9801H231.77V13.4101C231.77 19.2901 229.89 23.1901 226.48 26.3001L225.78 25.6301C227.88 23.3001 228.89 19.8901 229.23 16.3901C226.74 18.2701 224.58 19.5801 221.39 21.2101L220.27 18.4901C221.19 18.2901 222.31 17.9901 223.58 17.5701V9.40008H220.64V8.14008H223.58V1.03008L225.99 1.00008V8.12008L228.82 8.15008V9.41008L225.99 9.38008V16.7201C226.89 16.3601 227.78 15.9601 228.65 15.5401L229.24 16.3801C229.32 15.3701 229.38 14.3601 229.38 13.3801V5.09008H237.2V0.330078H239.5V5.09008H242.64C242.11 4.02008 241.24 2.74008 240.34 1.59008L241.01 0.800078C242.38 1.59008 243.76 2.65008 244.82 3.66008L243.11 5.09008H244.99V6.35008H239.53C239.56 9.66008 239.75 13.2401 240.29 16.3001C241.27 13.9701 241.94 11.3701 242.42 8.54008L244.91 9.27008C244.07 13.3301 242.86 16.7201 241.07 19.4701C241.41 20.4801 241.83 21.3501 242.3 22.0501C243.64 24.0401 244.23 22.8601 244.23 19.1701H245.13C246.87 24.5201 244.79 27.5501 241.77 25.0001L241.74 24.9801Z" fill="#D68F41"/>
<path d="M66.3398 50.3602V43.9502H67.3598V50.3602H66.3398Z" fill="#969696"/>
<path d="M74.5499 47.58V50.36H73.5299V47.69C73.5299 47.46 73.5299 47.24 73.5099 46.99C73.4599 46.43 73.1699 46.04 72.4699 46.04C71.7699 46.04 71.1899 46.6 71.1899 48.14V50.35H70.1699V45.42H71.1899V46.24L71.5199 45.67C71.9099 45.37 72.2699 45.29 72.7699 45.29C73.8299 45.29 74.4299 45.84 74.5299 46.7C74.5499 46.95 74.5599 47.17 74.5599 47.57L74.5499 47.58Z" fill="#969696"/>
<path d="M78.5 48.76C78.5 48.93 78.5 49.04 78.5 49.17C78.54 49.65 78.72 49.76 79.39 49.69V50.4C79.13 50.44 78.89 50.46 78.64 50.46C77.87 50.46 77.53 50.17 77.49 49.52C77.49 49.35 77.49 49.14 77.49 48.86V46.18H76.79V45.47H77.49V44.29H78.5V45.47H79.47V46.18H78.5V48.76Z" fill="#969696"/>
<path d="M85.9999 48.1801H82.4599C82.5399 49.3601 83.0799 49.7501 83.7499 49.7501C84.3399 49.7501 84.8099 49.3901 84.9099 48.7701H85.9399C85.7299 49.9401 84.7899 50.5001 83.7099 50.5001C82.3899 50.5001 81.3999 49.6601 81.3999 47.9201C81.3999 46.3601 82.3899 45.3101 83.8199 45.3101C85.2499 45.3101 86.0199 46.3901 86.0199 47.7801C86.0199 47.8701 86.0199 48.0101 85.9999 48.1901V48.1801ZM82.4699 47.4601H84.9699C84.8999 46.5501 84.4999 46.0401 83.7799 46.0401C83.0599 46.0401 82.5799 46.5101 82.4699 47.4601Z" fill="#969696"/>
<path d="M89.4699 48.8503C89.4699 49.0203 89.4699 49.1703 89.4699 49.3103C89.4899 49.5903 89.6199 49.6803 90.0499 49.6503V50.3703C89.8499 50.4003 89.6099 50.4203 89.3799 50.4203C88.8399 50.4203 88.4799 50.2303 88.4399 49.5903C88.4399 49.4003 88.4399 49.1803 88.4399 48.8803V43.5303H89.4599V48.8603L89.4699 48.8503Z" fill="#969696"/>
<path d="M93.3896 48.8503C93.3896 49.0203 93.3896 49.1703 93.3896 49.3103C93.4096 49.5903 93.5396 49.6803 93.9796 49.6503V50.3703C93.7796 50.4003 93.5396 50.4203 93.3096 50.4203C92.7696 50.4203 92.4096 50.2303 92.3696 49.5903C92.3696 49.4003 92.3696 49.1803 92.3696 48.8803V43.5303H93.3896V48.8603V48.8503Z" fill="#969696"/>
<path d="M97.44 44.2902C97.44 44.6302 97.18 44.8802 96.84 44.8802C96.5 44.8802 96.25 44.6302 96.25 44.2902C96.25 43.9502 96.5 43.7002 96.84 43.7002C97.18 43.7002 97.44 43.9502 97.44 44.2902ZM96.33 50.3602V45.4302H97.35V50.3602H96.33Z" fill="#969696"/>
<path d="M104.68 49.13C104.68 49.44 104.68 49.82 104.68 50.09C104.62 51.59 103.69 52.34 102.21 52.34C100.73 52.34 100.04 51.75 99.93 50.69V50.6H100.92V50.68C101 51.21 101.45 51.57 102.21 51.57C103.1 51.57 103.61 51.09 103.65 50.2C103.65 49.99 103.65 49.81 103.65 49.63V49.53L103.28 50.07C103 50.29 102.52 50.44 102.02 50.44C100.6 50.44 99.77 49.4 99.77 47.95C99.77 46.15 100.89 45.29 102.16 45.29C102.57 45.29 103.08 45.4 103.33 45.6L103.66 46.09V45.42H104.68V49.13ZM103.66 47.89V47.68C103.66 46.48 102.94 46.03 102.28 46.03C101.47 46.03 100.86 46.62 100.86 47.85C100.86 48.92 101.35 49.69 102.24 49.69C103.01 49.69 103.67 49.21 103.67 47.89H103.66Z" fill="#969696"/>
<path d="M111.71 48.1801H108.17C108.25 49.3601 108.79 49.7501 109.46 49.7501C110.05 49.7501 110.52 49.3901 110.62 48.7701H111.65C111.44 49.9401 110.5 50.5001 109.42 50.5001C108.1 50.5001 107.11 49.6601 107.11 47.9201C107.11 46.3601 108.1 45.3101 109.53 45.3101C110.96 45.3101 111.73 46.3901 111.73 47.7801C111.73 47.8701 111.73 48.0101 111.71 48.1901V48.1801ZM108.18 47.4601H110.68C110.61 46.5501 110.21 46.0401 109.49 46.0401C108.77 46.0401 108.29 46.5101 108.18 47.4601Z" fill="#969696"/>
<path d="M118.58 47.58V50.36H117.56V47.69C117.56 47.46 117.56 47.24 117.54 46.99C117.49 46.43 117.2 46.04 116.5 46.04C115.8 46.04 115.22 46.6 115.22 48.14V50.35H114.2V45.42H115.22V46.24L115.56 45.67C115.95 45.37 116.31 45.29 116.81 45.29C117.87 45.29 118.47 45.84 118.57 46.7C118.59 46.95 118.6 47.17 118.6 47.57L118.58 47.58Z" fill="#969696"/>
<path d="M125.48 47.13H124.45C124.3 46.38 123.9 46.03 123.3 46.03C122.58 46.03 122.02 46.6 122.02 47.83C122.02 49.17 122.58 49.73 123.27 49.73C123.85 49.73 124.27 49.38 124.42 48.71H125.46C125.23 49.89 124.37 50.48 123.21 50.48C121.92 50.48 120.94 49.66 120.94 47.91C120.94 46.16 122.04 45.29 123.33 45.29C124.62 45.29 125.37 46.04 125.49 47.13H125.48Z" fill="#969696"/>
<path d="M132.08 48.1801H128.54C128.62 49.3601 129.16 49.7501 129.83 49.7501C130.42 49.7501 130.89 49.3901 130.99 48.7701H132.02C131.81 49.9401 130.87 50.5001 129.79 50.5001C128.47 50.5001 127.48 49.6601 127.48 47.9201C127.48 46.3601 128.47 45.3101 129.9 45.3101C131.33 45.3101 132.1 46.3901 132.1 47.7801C132.1 47.8701 132.1 48.0101 132.08 48.1901V48.1801ZM128.55 47.4601H131.05C130.98 46.5501 130.58 46.0401 129.86 46.0401C129.14 46.0401 128.66 46.5101 128.55 47.4601Z" fill="#969696"/>
<path d="M140.85 44.7602V50.3602H139.84V44.7602H137.6V43.9502H143.09V44.7602H140.85Z" fill="#969696"/>
<path d="M148.86 48.1801H145.32C145.4 49.3601 145.94 49.7501 146.61 49.7501C147.2 49.7501 147.67 49.3901 147.77 48.7701H148.8C148.59 49.9401 147.65 50.5001 146.57 50.5001C145.25 50.5001 144.26 49.6601 144.26 47.9201C144.26 46.3601 145.25 45.3101 146.68 45.3101C148.11 45.3101 148.88 46.3901 148.88 47.7801C148.88 47.8701 148.88 48.0101 148.86 48.1901V48.1801ZM145.33 47.4601H147.83C147.76 46.5501 147.36 46.0401 146.64 46.0401C145.92 46.0401 145.44 46.5101 145.33 47.4601Z" fill="#969696"/>
<path d="M155.51 47.13H154.48C154.33 46.38 153.93 46.03 153.33 46.03C152.61 46.03 152.05 46.6 152.05 47.83C152.05 49.17 152.61 49.73 153.3 49.73C153.88 49.73 154.3 49.38 154.45 48.71H155.49C155.26 49.89 154.4 50.48 153.24 50.48C151.95 50.48 150.97 49.66 150.97 47.91C150.97 46.16 152.07 45.29 153.36 45.29C154.65 45.29 155.4 46.04 155.52 47.13H155.51Z" fill="#969696"/>
<path d="M162.27 47.5802V50.3602H161.25V47.6902C161.25 47.4602 161.25 47.2402 161.23 46.9902C161.18 46.4302 160.89 46.0302 160.19 46.0402C159.48 46.0602 158.91 46.6002 158.91 48.1402V50.3502H157.89V43.4702H158.91V46.2302L159.25 45.6602C159.64 45.3602 160 45.2802 160.5 45.2802C161.56 45.2802 162.16 45.8302 162.26 46.6902C162.28 46.9402 162.29 47.1602 162.29 47.5602L162.27 47.5802Z" fill="#969696"/>
<path d="M169.39 47.58V50.36H168.37V47.69C168.37 47.46 168.37 47.24 168.35 46.99C168.3 46.43 168.01 46.04 167.31 46.04C166.61 46.04 166.03 46.6 166.03 48.14V50.35H165.01V45.42H166.03V46.24L166.37 45.67C166.76 45.37 167.12 45.29 167.62 45.29C168.68 45.29 169.28 45.84 169.38 46.7C169.4 46.95 169.41 47.17 169.41 47.57L169.39 47.58Z" fill="#969696"/>
<path d="M176.75 47.8903C176.75 49.3303 175.9 50.4903 174.25 50.4903C172.6 50.4903 171.75 49.3303 171.75 47.8903C171.75 46.4503 172.59 45.3003 174.25 45.3003C175.91 45.3003 176.75 46.4503 176.75 47.8903ZM175.66 47.8903C175.66 46.7703 175.14 46.0403 174.25 46.0403C173.36 46.0403 172.83 46.7703 172.83 47.8903C172.83 49.0103 173.35 49.7503 174.25 49.7503C175.15 49.7503 175.66 49.0103 175.66 47.8903Z" fill="#969696"/>
<path d="M180.12 48.8503C180.12 49.0203 180.12 49.1703 180.12 49.3103C180.14 49.5903 180.27 49.6803 180.71 49.6503V50.3703C180.51 50.4003 180.27 50.4203 180.04 50.4203C179.5 50.4203 179.14 50.2303 179.1 49.5903C179.1 49.4003 179.1 49.1803 179.1 48.8803V43.5303H180.12V48.8603V48.8503Z" fill="#969696"/>
<path d="M187.69 47.8903C187.69 49.3303 186.84 50.4903 185.19 50.4903C183.54 50.4903 182.69 49.3303 182.69 47.8903C182.69 46.4503 183.53 45.3003 185.19 45.3003C186.85 45.3003 187.69 46.4503 187.69 47.8903ZM186.6 47.8903C186.6 46.7703 186.08 46.0403 185.19 46.0403C184.3 46.0403 183.77 46.7703 183.77 47.8903C183.77 49.0103 184.29 49.7503 185.19 49.7503C186.09 49.7503 186.6 49.0103 186.6 47.8903Z" fill="#969696"/>
<path d="M194.61 49.13C194.61 49.44 194.61 49.82 194.61 50.09C194.55 51.59 193.62 52.34 192.14 52.34C190.66 52.34 189.97 51.75 189.86 50.69V50.6H190.85V50.68C190.93 51.21 191.38 51.57 192.14 51.57C193.03 51.57 193.54 51.09 193.58 50.2C193.58 49.99 193.58 49.81 193.58 49.63V49.53L193.21 50.07C192.93 50.29 192.45 50.44 191.95 50.44C190.53 50.44 189.7 49.4 189.7 47.95C189.7 46.15 190.82 45.29 192.09 45.29C192.5 45.29 193.01 45.4 193.26 45.6L193.59 46.09V45.42H194.61V49.13ZM193.59 47.89V47.68C193.59 46.48 192.87 46.03 192.21 46.03C191.4 46.03 190.79 46.62 190.79 47.85C190.79 48.92 191.28 49.69 192.17 49.69C192.94 49.69 193.6 49.21 193.6 47.89H193.59Z" fill="#969696"/>
<path d="M199.73 50.6804C199.27 51.8504 198.74 52.3204 197.85 52.3204C197.64 52.3204 197.52 52.3204 197.37 52.2904V51.5404C197.49 51.5404 197.59 51.5404 197.7 51.5404C198.16 51.5404 198.48 51.3404 198.7 50.7704L198.77 50.5904L196.78 45.4204H197.92L199.28 49.5904L200.63 45.4204H201.74L199.73 50.6704V50.6804Z" fill="#969696"/>
<path d="M212.85 46.0103V46.1003H211.85L211.83 46.0103C211.65 45.1503 211.12 44.6003 210.16 44.6003C208.97 44.6003 208.22 45.6203 208.22 47.1403C208.22 48.7303 208.98 49.7103 210.12 49.7103C211.09 49.7103 211.62 49.1403 211.79 48.2803L211.81 48.1903H212.82V48.2803C212.68 49.5303 211.74 50.4903 210.07 50.4903C208.24 50.4903 207.11 49.1303 207.11 47.1803C207.11 45.2303 208.37 43.8203 210.18 43.8203C211.85 43.8203 212.73 44.7503 212.86 46.0103H212.85Z" fill="#969696"/>
<path d="M216.47 44.2902C216.47 44.6302 216.21 44.8802 215.87 44.8802C215.53 44.8802 215.28 44.6302 215.28 44.2902C215.28 43.9502 215.53 43.7002 215.87 43.7002C216.21 43.7002 216.47 43.9502 216.47 44.2902ZM215.36 50.3602V45.4302H216.38V50.3602H215.36Z" fill="#969696"/>
<path d="M220.4 48.76C220.4 48.93 220.4 49.04 220.4 49.17C220.44 49.65 220.62 49.76 221.29 49.69V50.4C221.03 50.44 220.79 50.46 220.54 50.46C219.77 50.46 219.43 50.17 219.39 49.52C219.39 49.35 219.39 49.14 219.39 48.86V46.18H218.69V45.47H219.39V44.29H220.4V45.47H221.37V46.18H220.4V48.76Z" fill="#969696"/>
<path d="M226.09 50.6804C225.63 51.8504 225.1 52.3204 224.21 52.3204C224 52.3204 223.88 52.3204 223.73 52.2904V51.5404C223.85 51.5404 223.95 51.5404 224.06 51.5404C224.52 51.5404 224.84 51.3404 225.06 50.7704L225.13 50.5904L223.14 45.4204H224.28L225.64 49.5904L226.99 45.4204H228.1L226.09 50.6704V50.6804Z" fill="#969696"/>
</svg>
