<svg width="496" height="333" viewBox="0 0 496 333" fill="none" xmlns="http://www.w3.org/2000/svg">
<line x1="253.5" y1="2.18557e-08" x2="253.5" y2="109" stroke="#25292B"/>
<g filter="url(#filter0_d_103_512)">
<path d="M132.662 260.391C156.98 236.073 156.98 196.646 132.662 172.328C108.344 148.01 68.9169 148.01 44.5989 172.328C20.281 196.646 20.281 236.073 44.5989 260.391C68.9169 284.709 108.344 284.709 132.662 260.391Z" fill="#BABABA"/>
</g>
<path d="M69.01 195.46C70.83 190.84 73.19 187.25 76.08 184.69C78.97 182.13 82.62 180.79 87.03 180.68C92.47 180.54 96.69 182.21 99.68 185.67C101.95 188.25 103.12 191.04 103.2 194.05C103.32 198.99 100.35 204.17 94.27 209.61C98.48 211.14 101.7 213.4 103.91 216.38C106.12 219.36 107.28 222.91 107.39 227.01C107.54 232.88 105.8 238.02 102.17 242.42C97.44 248.15 90.45 251.13 81.2 251.37C76.63 251.49 73.5 251 71.82 249.9C70.14 248.81 69.28 247.61 69.25 246.31C69.23 245.34 69.6 244.48 70.36 243.73C71.13 242.98 72.06 242.58 73.16 242.56C73.99 242.54 74.85 242.65 75.72 242.9C76.29 243.05 77.59 243.63 79.62 244.63C81.65 245.63 83.05 246.22 83.82 246.4C85.06 246.74 86.39 246.89 87.79 246.85C91.2 246.76 94.12 245.37 96.58 242.67C99.03 239.97 100.21 236.82 100.12 233.21C100.05 230.57 99.4 228.02 98.17 225.54C97.25 223.69 96.27 222.3 95.21 221.36C93.74 220.06 91.74 218.9 89.21 217.88C86.68 216.86 84.11 216.38 81.51 216.45L79.91 216.49L79.87 214.99C82.5 214.59 85.12 213.57 87.73 211.94C90.34 210.3 92.22 208.37 93.37 206.14C94.52 203.91 95.06 201.47 94.99 198.84C94.9 195.4 93.76 192.65 91.55 190.59C89.34 188.53 86.64 187.53 83.43 187.61C78.26 187.74 74 190.62 70.67 196.25L69 195.49L69.01 195.46Z" fill="white"/>
<path d="M12.17 235.408C19.97 270.498 51.28 296.738 88.72 296.738C126.16 296.738 156.98 270.908 165.08 236.228" stroke="#BABABA" stroke-width="2" stroke-miterlimit="10"/>
<path d="M10.06 236.028C9.77 234.818 10.52 233.598 11.73 233.308C12.94 233.018 14.16 233.768 14.45 234.978C14.74 236.188 13.99 237.408 12.78 237.698C11.57 237.988 10.35 237.238 10.06 236.028Z" fill="#BABABA"/>
<path d="M167.17 236.858C167.47 235.648 166.74 234.428 165.53 234.118C164.32 233.818 163.1 234.548 162.79 235.758C162.49 236.968 163.22 238.188 164.43 238.498C165.64 238.798 166.86 238.068 167.17 236.858Z" fill="#BABABA"/>
<path d="M117.86 247.628C117.86 247.628 118.84 248.348 119.41 248.878C119.38 249.038 119.22 249.118 119.02 249.118H113.86V252.638C113.86 252.728 113.45 253.008 112.81 253.008H112.58V249.108H105.73L105.61 248.678H108.2V244.138L109.64 244.718H112.58V241.888H109.33C108.27 243.368 107.02 244.578 105.72 245.398L105.53 245.238C106.94 243.848 108.44 241.478 109.32 238.988L111.13 239.688C111.06 239.848 110.86 239.988 110.52 239.938C110.25 240.458 109.95 240.968 109.63 241.448H116.53L117.37 240.418C117.37 240.418 118.3 241.088 118.91 241.648C118.87 241.808 118.71 241.888 118.49 241.888H113.86V244.718H116.2L116.98 243.728C116.98 243.728 117.86 244.418 118.42 244.908C118.39 245.058 118.22 245.138 118.01 245.138H113.86V248.678H117.02L117.86 247.628ZM112.58 248.678V245.138H109.46V248.678H112.58Z" fill="white"/>
<path d="M41.1199 321.108C40.8299 323.658 40.3099 325.748 39.5699 327.418C41.3199 329.178 43.7999 329.578 46.8599 329.578C47.5599 329.578 51.4299 329.578 52.3499 329.558C52.1499 329.868 51.9199 330.438 51.8499 330.798H46.8299C43.4999 330.798 40.8899 330.328 39.0399 328.518C38.3899 329.618 37.6499 330.478 36.8099 331.148C36.5899 330.878 36.1299 330.408 35.8199 330.228C36.7399 329.578 37.5299 328.658 38.1799 327.528C37.5099 326.628 36.9899 325.498 36.5599 324.078L37.5499 323.678C37.8599 324.738 38.2499 325.618 38.7199 326.338C39.2099 325.128 39.5699 323.728 39.7999 322.108H36.8899C37.6599 320.798 38.6499 318.848 39.4599 317.128H36.3099V315.938H41.3599C40.5999 317.518 39.6499 319.428 38.8599 320.918H40.1399L40.3699 320.878L41.1299 321.098L41.1199 321.108ZM45.6499 317.438H42.1999V316.378H45.6499V314.898H46.9099V316.378H50.8099V318.748H52.0499V319.848H50.8099V322.258H46.9099V323.608H51.1599V324.638H46.9099V326.098H51.8199V327.198H46.9099V328.978H45.6499V327.198H41.1899V326.098H45.6499V324.638H41.9399V323.608H45.6499V322.258H42.0699V321.178H45.6499V319.848H41.0299V318.748H45.6499V317.438ZM46.9099 317.438V318.748H49.6099V317.438H46.9099ZM49.6099 319.848H46.9099V321.178H49.6099V319.848Z" fill="#173868"/>
<path d="M60.63 324.909C60.23 324.259 59.3 322.999 58.56 322.029V331.219H57.23V322.579C56.46 324.679 55.43 326.739 54.37 327.959C54.23 327.579 53.88 327.019 53.63 326.699C55 325.209 56.36 322.419 57.03 319.939H54.24V318.659H57.23V314.809H58.56V318.659H61.01V319.939H58.56V320.409C59.23 321.129 61.02 323.229 61.47 323.759L60.62 324.909H60.63ZM70.27 319.959H68.42V329.419C68.42 330.339 68.19 330.749 67.59 330.949C67 331.179 65.93 331.219 64.42 331.219C64.35 330.839 64.13 330.229 63.93 329.849C65.1 329.889 66.25 329.869 66.59 329.869C66.91 329.849 67.04 329.759 67.04 329.439V321.779C65.62 324.369 63.57 326.909 61.59 328.399C61.36 328.059 60.96 327.589 60.64 327.319C62.89 325.789 65.25 322.789 66.58 319.959H61.69V318.679H67.05V314.849H68.42V318.679H70.27V319.959Z" fill="#173868"/>
<path d="M78.79 318.968H71.99V317.868H78.79V318.968ZM87.33 323.038C86.66 325.218 85.55 326.908 84.13 328.218C85.35 329.048 86.77 329.658 88.38 330.018C88.11 330.308 87.73 330.848 87.55 331.228C85.86 330.778 84.37 330.058 83.09 329.088C81.76 330.078 80.25 330.798 78.63 331.278C78.5 330.938 78.25 330.468 78.02 330.158H73.92V331.008H72.75V324.968H78.06V330.038C79.48 329.658 80.87 329.048 82.07 328.218C80.95 327.118 80.04 325.768 79.39 324.238L80.16 323.968H78.6V322.708H86.26L86.49 322.658L87.34 323.038H87.33ZM78.05 320.228V321.288H72.76V320.228H78.05ZM72.76 322.568H78.07V323.628H72.76V322.568ZM76.86 326.078H73.91V329.048H76.86V326.078ZM75.28 317.668C75.01 317.018 74.43 316.008 73.93 315.258L74.97 314.738C75.49 315.478 76.07 316.408 76.35 317.058L75.27 317.668H75.28ZM81.57 317.478C81.57 319.098 81.1 321.008 78.96 322.268C78.78 321.998 78.33 321.498 78.1 321.298C80.02 320.198 80.33 318.728 80.33 317.448V315.468H85.8V319.638C85.8 320.138 85.84 320.308 86.09 320.308H87.15C87.38 320.308 87.73 320.268 87.94 320.218C87.96 320.558 88.01 321.068 88.03 321.368C87.85 321.438 87.49 321.458 87.15 321.458H85.98C84.81 321.458 84.56 320.958 84.56 319.608V316.728H81.57V317.488V317.478ZM80.55 323.968C81.14 325.298 82.01 326.448 83.09 327.408C84.15 326.478 85.03 325.338 85.63 323.968H80.56H80.55Z" fill="#173868"/>
<path d="M94.55 315.169C94.15 316.389 93.69 317.669 93.17 318.859V331.219H91.87V321.379C91.42 322.149 90.93 322.859 90.45 323.479C90.32 323.169 89.96 322.449 89.73 322.109C91.21 320.309 92.52 317.579 93.33 314.809L94.55 315.169ZM98.38 320.879C98.07 321.369 97.71 321.849 97.34 322.279H105.2V329.889C105.2 330.479 105.09 330.769 104.68 330.989C104.3 331.169 103.69 331.189 102.88 331.189C102.83 330.869 102.65 330.419 102.48 330.109C103.02 330.129 103.54 330.129 103.7 330.109C103.88 330.109 103.92 330.059 103.92 329.879V328.549H101.11V330.829H99.89V328.549H96.8C96.58 329.559 96.24 330.549 95.61 331.339C95.39 331.109 94.85 330.669 94.55 330.529C95.63 329.109 95.74 327.219 95.74 325.729V323.819C95.24 324.219 94.7 324.589 94.19 324.899C94.05 324.649 93.63 324.089 93.4 323.839C94.73 323.139 96.04 322.099 96.94 320.889H94.33V319.649H97.55V317.899H94.83V316.679H97.55V314.919H98.83V316.679H101.83V314.919H103.13V316.679H105.56V317.899H103.13V319.649H106.03V320.889H98.38V320.879ZM99.89 327.519V325.959H97.03C97.03 326.449 96.99 326.989 96.94 327.519H99.89ZM97.03 324.919H99.89V323.409H97.03V324.919ZM98.83 319.639H101.83V317.889H98.83V319.639ZM103.92 323.409H101.11V324.919H103.92V323.409ZM103.92 327.519V325.959H101.11V327.519H103.92Z" fill="#173868"/>
<path d="M113.34 315.247C112.82 316.557 112.17 317.877 111.45 319.077V331.197H110.17V321.017C109.58 321.847 108.93 322.597 108.3 323.247C108.16 322.957 107.78 322.257 107.54 321.947C109.32 320.237 111.05 317.577 112.07 314.857L113.33 315.237L113.34 315.247ZM116.56 325.967C115.71 327.477 114.53 329.227 113.52 330.377C113.29 330.157 112.76 329.787 112.48 329.607C113.51 328.567 114.62 326.977 115.38 325.597L116.57 325.977L116.56 325.967ZM119.15 324.707V331.257H117.82V324.707H112.62V323.487H117.82V321.347H113.93V315.667H123.2V321.347H119.15V323.487H124.24V324.707H119.15ZM115.19 320.157H121.86V316.867H115.19V320.157ZM121.18 325.567C122.33 326.847 123.64 328.517 124.29 329.597L123.21 330.267C122.6 329.167 121.29 327.407 120.15 326.127L121.18 325.567Z" fill="#173868"/>
<path d="M141.45 315.658V331.288H140.08V330.438H128.06V331.288H126.75V315.658H141.45ZM140.08 329.208V316.918H128.06V329.208H140.08ZM134.72 320.838V322.888H137.96V327.588H130.37V322.888H133.45V320.838H129.22V319.718H133.45V317.668H134.73V319.718H139.12V320.838H134.73H134.72ZM136.71 323.948H131.56V326.518H136.71V323.948Z" fill="#173868"/>
<g filter="url(#filter1_d_103_512)">
<path d="M312.672 233.997C321.805 200.841 302.33 166.559 269.174 157.427C236.018 148.294 201.736 167.769 192.604 200.925C183.471 234.081 202.946 268.362 236.102 277.495C269.258 286.628 303.54 267.153 312.672 233.997Z" fill="#BABABA"/>
</g>
<path d="M271.98 182.641L268.29 191.251L247.86 191.771L243.63 201.001C252.51 202.081 259.6 205.191 264.91 210.331C269.46 214.761 271.82 220.041 271.97 226.181C272.06 229.751 271.42 233.071 270.04 236.151C268.66 239.221 266.9 241.861 264.75 244.051C262.6 246.241 260.19 248.021 257.52 249.391C253.73 251.321 249.81 252.341 245.77 252.441C241.7 252.541 238.72 251.921 236.83 250.591C234.94 249.251 233.98 247.751 233.94 246.081C233.92 245.151 234.28 244.311 235.03 243.571C235.78 242.831 236.74 242.451 237.91 242.421C238.78 242.401 239.54 242.511 240.2 242.761C240.86 243.011 241.98 243.671 243.58 244.731C246.13 246.401 248.69 247.211 251.26 247.141C255.17 247.041 258.56 245.481 261.44 242.451C264.32 239.421 265.71 235.791 265.6 231.551C265.5 227.441 264.08 223.651 261.35 220.161C258.62 216.671 254.92 214.021 250.23 212.201C246.55 210.791 241.58 210.051 235.29 209.971L247.64 183.261L271.97 182.651L271.98 182.641Z" fill="white"/>
<path d="M176.17 200.33C183.96 165.24 215.27 139 252.71 139C290.15 139 320.97 164.83 329.07 199.51" stroke="#BABABA" stroke-width="2" stroke-miterlimit="10"/>
<path d="M178.45 200.761C178.16 201.971 176.94 202.721 175.73 202.431C174.52 202.141 173.77 200.921 174.06 199.711C174.35 198.501 175.57 197.751 176.78 198.041C177.99 198.331 178.74 199.551 178.45 200.761Z" fill="#BABABA"/>
<path d="M326.8 199.969C327.1 201.179 328.33 201.909 329.54 201.609C330.75 201.309 331.48 200.079 331.18 198.869C330.88 197.659 329.65 196.929 328.44 197.229C327.23 197.529 326.5 198.759 326.8 199.969Z" fill="#BABABA"/>
<path d="M281.86 248.72C281.86 248.72 282.84 249.44 283.4 249.97C283.37 250.13 283.21 250.21 283.01 250.21H277.85V253.73C277.85 253.82 277.44 254.1 276.8 254.1H276.57V250.2H269.72L269.6 249.77H272.19V245.23L273.63 245.81H276.57V242.98H273.32C272.26 244.46 271.01 245.67 269.71 246.49L269.52 246.33C270.93 244.94 272.43 242.57 273.31 240.08L275.12 240.78C275.05 240.94 274.85 241.08 274.51 241.03C274.24 241.55 273.94 242.06 273.62 242.54H280.52L281.36 241.51C281.36 241.51 282.29 242.18 282.9 242.74C282.86 242.9 282.7 242.98 282.48 242.98H277.85V245.81H280.19L280.97 244.82C280.97 244.82 281.85 245.51 282.41 246C282.38 246.15 282.21 246.23 282 246.23H277.85V249.77H281.01L281.85 248.72H281.86ZM276.58 249.77V246.23H273.46V249.77H276.58Z" fill="white"/>
<path d="M224.08 317.159C223.52 318.669 222.8 320.559 222.17 322.019C223.56 323.549 223.88 324.859 223.88 325.999C223.88 326.969 223.66 327.759 223.14 328.099C222.87 328.299 222.53 328.409 222.17 328.459C221.77 328.499 221.27 328.499 220.86 328.479C220.84 328.119 220.73 327.619 220.52 327.259C220.97 327.299 221.33 327.299 221.65 327.299C221.88 327.279 222.1 327.229 222.26 327.119C222.55 326.919 222.64 326.419 222.64 325.879C222.64 324.869 222.3 323.629 220.93 322.189C221.47 320.859 222.06 319.149 222.46 317.889H219.82V332.349H218.56V316.679H222.99L223.19 316.629L224.09 317.169L224.08 317.159ZM227.9 320.179C227.88 321.119 227.83 322.009 227.76 322.899H233.03V323.509C232.81 329.049 232.63 331.049 232.08 331.679C231.76 332.109 231.41 332.239 230.86 332.289C230.34 332.359 229.37 332.329 228.41 332.289C228.37 331.879 228.25 331.339 228.01 330.959C228.98 331.049 229.92 331.069 230.28 331.069C230.6 331.069 230.77 331.029 230.95 330.839C231.33 330.439 231.53 328.719 231.71 324.129H227.66C227.25 327.619 226.15 330.549 223.05 332.299C222.87 331.989 222.46 331.539 222.15 331.309C226.13 329.169 226.49 324.979 226.59 320.189H223.75V318.929H234.09V320.189H227.9V320.179ZM229.05 315.939C229.36 316.769 229.77 317.879 229.93 318.529L228.65 318.929C228.49 318.249 228.15 317.089 227.82 316.229L229.04 315.939H229.05Z" fill="#173868"/>
<path d="M242.37 320.779C241.51 325.459 239.4 328.789 236.87 330.569C236.67 330.279 236.13 329.759 235.81 329.559C238.09 328.069 239.91 325.369 240.77 321.819H236.38V320.489H241.24L241.51 320.439L242.37 320.779ZM250.88 320.129C249.69 321.499 248.13 323.119 246.87 324.179C248.4 326.389 250.34 328.259 252.5 329.269C252.19 329.539 251.74 330.079 251.51 330.479C248.72 328.999 246.4 326.159 244.76 322.919V330.509C244.76 331.389 244.54 331.819 244.02 332.059C243.48 332.309 242.58 332.349 241.21 332.349C241.16 331.949 240.92 331.289 240.71 330.889C241.74 330.929 242.67 330.929 242.94 330.929C243.25 330.909 243.35 330.819 243.35 330.519V315.969H244.75V320.289C245.15 321.279 245.63 322.269 246.19 323.199C247.4 322.079 248.8 320.499 249.66 319.279L250.87 320.139L250.88 320.129Z" fill="#173868"/>
<path d="M259.28 316.329C258.76 317.639 258.11 318.959 257.39 320.159V332.279H256.11V322.099C255.52 322.929 254.87 323.679 254.24 324.329C254.1 324.039 253.72 323.339 253.48 323.029C255.26 321.319 256.99 318.659 258.01 315.939L259.27 316.319L259.28 316.329ZM262.5 327.059C261.65 328.569 260.47 330.319 259.46 331.469C259.23 331.249 258.7 330.879 258.42 330.699C259.45 329.659 260.56 328.069 261.32 326.689L262.51 327.069L262.5 327.059ZM265.09 325.799V332.349H263.76V325.799H258.56V324.579H263.76V322.439H259.87V316.759H269.13V322.439H265.08V324.579H270.17V325.799H265.08H265.09ZM261.14 321.249H267.81V317.959H261.14V321.249ZM267.13 326.659C268.28 327.939 269.59 329.609 270.24 330.689L269.16 331.359C268.55 330.259 267.23 328.499 266.1 327.219L267.13 326.659Z" fill="#173868"/>
<path d="M287.39 316.75V332.38H286.02V331.53H274V332.38H272.69V316.75H287.39ZM286.02 330.3V318.01H274V330.3H286.02ZM280.66 321.93V323.98H283.9V328.68H276.31V323.98H279.39V321.93H275.16V320.81H279.39V318.76H280.67V320.81H285.06V321.93H280.67H280.66ZM282.66 325.04H277.51V327.61H282.66V325.04Z" fill="#173868"/>
<g filter="url(#filter2_d_103_512)">
<path d="M476.666 232.907C485.799 199.751 466.324 165.47 433.168 156.337C400.012 147.204 365.731 166.679 356.598 199.835C347.465 232.991 366.94 267.273 400.096 276.405C433.252 285.538 467.534 266.063 476.666 232.907Z" fill="#BABABA"/>
</g>
<path d="M417.99 234.631L414.1 246.211L378.92 247.101L378.88 245.471C388.99 235.771 396.08 227.881 400.15 221.791C404.22 215.701 406.19 210.181 406.07 205.231C405.97 201.451 404.74 198.371 402.36 196.001C399.98 193.631 397.18 192.481 393.96 192.561C391.03 192.631 388.42 193.561 386.13 195.331C383.84 197.101 382.18 199.661 381.15 203.001L379.52 203.041C380.12 197.601 381.9 193.391 384.86 190.411C387.82 187.431 391.57 185.881 396.12 185.771C400.96 185.651 405.03 187.101 408.35 190.131C411.67 193.161 413.38 196.781 413.49 201.001C413.57 204.021 412.94 207.061 411.61 210.111C409.56 214.911 406.17 220.031 401.44 225.461C394.34 233.621 389.9 238.541 388.13 240.231L403.7 239.841C406.87 239.761 409.08 239.591 410.35 239.321C411.62 239.051 412.76 238.551 413.77 237.801C414.78 237.061 415.65 236.011 416.38 234.681L418.01 234.641L417.99 234.631Z" fill="white"/>
<path d="M454.2 185.541L450.96 193.101L433.02 193.551L429.31 201.651C437.11 202.601 443.34 205.331 448 209.851C452 213.741 454.07 218.381 454.2 223.771C454.28 226.911 453.71 229.831 452.51 232.521C451.3 235.221 449.75 237.531 447.87 239.461C445.98 241.391 443.87 242.951 441.52 244.151C438.19 245.851 434.75 246.741 431.2 246.831C427.62 246.921 425.01 246.381 423.35 245.201C421.69 244.031 420.84 242.701 420.81 241.241C420.79 240.421 421.11 239.691 421.77 239.041C422.43 238.391 423.27 238.061 424.3 238.031C425.06 238.011 425.73 238.111 426.31 238.331C426.89 238.551 427.88 239.131 429.28 240.061C431.52 241.531 433.76 242.231 436.02 242.181C439.45 242.091 442.43 240.721 444.96 238.061C447.49 235.401 448.71 232.211 448.61 228.491C448.52 224.881 447.28 221.551 444.88 218.491C442.48 215.431 439.23 213.101 435.11 211.501C431.88 210.261 427.51 209.611 421.99 209.541L432.84 186.081L454.21 185.541H454.2Z" fill="white"/>
<path d="M340.17 235.41C347.97 270.5 379.28 296.74 416.72 296.74C454.16 296.74 484.98 270.91 493.08 236.23" stroke="#BABABA" stroke-width="2" stroke-miterlimit="10"/>
<path d="M338.06 236.03C337.77 234.82 338.52 233.6 339.73 233.31C340.94 233.02 342.16 233.77 342.45 234.98C342.74 236.19 341.99 237.41 340.78 237.7C339.57 237.99 338.35 237.24 338.06 236.03Z" fill="#BABABA"/>
<path d="M495.17 236.86C495.47 235.65 494.74 234.43 493.53 234.12C492.32 233.82 491.1 234.55 490.79 235.76C490.49 236.97 491.22 238.19 492.43 238.5C493.64 238.8 494.86 238.07 495.17 236.86Z" fill="#BABABA"/>
<path d="M462.25 247.63C462.25 247.63 463.23 248.35 463.79 248.88C463.76 249.04 463.6 249.12 463.4 249.12H458.24V252.64C458.24 252.73 457.83 253.01 457.19 253.01H456.96V249.11H450.11L449.99 248.68H452.58V244.14L454.02 244.72H456.96V241.89H453.71C452.64 243.37 451.4 244.58 450.1 245.4L449.91 245.24C451.32 243.85 452.82 241.48 453.7 238.99L455.51 239.69C455.44 239.85 455.24 239.99 454.9 239.94C454.63 240.46 454.33 240.97 454.01 241.45H460.91L461.75 240.42C461.75 240.42 462.68 241.09 463.29 241.65C463.25 241.81 463.09 241.89 462.87 241.89H458.24V244.72H460.58L461.36 243.73C461.36 243.73 462.24 244.42 462.8 244.91C462.77 245.06 462.6 245.14 462.39 245.14H458.24V248.68H461.4L462.24 247.63H462.25ZM456.97 248.68V245.14H453.85V248.68H456.97Z" fill="white"/>
<path d="M369.33 321.58C369.83 322.77 370.34 324.35 370.54 325.29L369.46 325.67C369.41 325.36 369.32 325 369.23 324.63C365.16 325.22 364.61 325.35 364.25 325.55C364.2 325.28 363.98 324.65 363.84 324.31C364.22 324.24 364.65 323.79 365.19 323.14C365.48 322.82 366.07 322.06 366.75 321.09C364.81 321.31 364.39 321.4 364.14 321.5C364.07 321.25 363.87 320.64 363.73 320.31C364.04 320.24 364.36 319.86 364.76 319.34C365.14 318.8 366.45 316.73 367.22 314.77L368.42 315.29C367.59 316.98 366.59 318.73 365.56 320.09L367.52 319.91C368.01 319.17 368.46 318.38 368.87 317.59L370 318.27C368.83 320.32 367.39 322.35 365.92 323.97L368.94 323.57C368.76 322.99 368.54 322.4 368.35 321.88L369.34 321.57L369.33 321.58ZM365.71 326.51C365.49 328.09 365.15 329.87 364.79 330.97C364.54 330.86 364 330.68 363.71 330.59C364.14 329.46 364.41 327.82 364.59 326.31L365.71 326.51ZM367.6 326.26C367.85 327.56 368.07 329.21 368.14 330.33L367.08 330.55C367.03 329.43 366.81 327.76 366.61 326.47L367.6 326.27V326.26ZM369.37 325.82C369.8 326.94 370.25 328.36 370.45 329.29L369.44 329.65C369.26 328.7 368.83 327.22 368.45 326.11L369.37 325.82ZM375.84 318.47V321.29H379.55V322.53H371.09V321.29H374.49V318.47H370.55V317.21H374.49V314.82H375.84V317.21H380.05V318.47H375.84ZM371.45 324.39H379.04V331.17H377.74V330.49H372.7V331.25H371.44V324.4L371.45 324.39ZM372.71 325.61V329.26H377.75V325.61H372.71Z" fill="#173868"/>
<path d="M387.15 325.319C386.9 324.739 386.27 323.649 385.75 322.769V331.229H384.53V322.829C383.94 324.789 383.16 326.679 382.34 327.849C382.2 327.509 381.87 326.999 381.66 326.699C382.78 325.209 383.87 322.399 384.39 319.949H382.02V318.709H384.54V314.819H385.76V318.709H387.81V319.949H385.76V321.189C386.26 321.859 387.6 323.849 387.9 324.339L387.16 325.329L387.15 325.319ZM398.41 328.309H397.26V329.839C397.26 330.469 397.13 330.809 396.65 331.009C396.18 331.189 395.41 331.189 394.22 331.189C394.17 330.879 393.99 330.419 393.84 330.109C394.7 330.149 395.48 330.129 395.73 330.129C395.95 330.109 396.02 330.039 396.02 329.819V328.309H389.89V331.189H388.67V328.309H387.45V327.269H388.67V322.749H392.27V321.689H387.77V320.659H390.25V319.449H388.54V318.459H390.25V317.289H388.18V316.279H390.25V314.799H391.47V316.279H394.37V314.799H395.63V316.279H397.86V317.289H395.63V318.459H397.59V319.449H395.63V320.659H398.22V321.689H393.49V322.749H397.27V327.269H398.42V328.309H398.41ZM389.88 323.759V324.999H392.26V323.759H389.88ZM389.88 327.259H392.26V325.949H389.88V327.259ZM391.46 318.469H394.36V317.299H391.46V318.469ZM391.46 320.659H394.36V319.449H391.46V320.659ZM393.48 323.759V324.999H396.02V323.759H393.48ZM396.02 327.259V325.949H393.48V327.259H396.02Z" fill="#173868"/>
<path d="M405.18 321.059C404.95 323.699 404.46 325.789 403.7 327.449C405.97 329.229 409.04 329.539 412.26 329.549C412.96 329.549 415.44 329.549 416.38 329.509C416.16 329.849 415.93 330.459 415.86 330.839H412.21C408.72 330.839 405.54 330.439 403.12 328.539C402.4 329.749 401.48 330.659 400.4 331.329C400.24 330.989 399.9 330.469 399.63 330.199C400.64 329.639 401.48 328.799 402.17 327.659C401.32 326.719 400.6 325.559 400.03 324.059L401.06 323.569C401.49 324.779 402.05 325.749 402.73 326.499C403.27 325.279 403.65 323.769 403.86 322.019H400.41C401.27 320.649 402.41 318.659 403.31 316.889H399.89V315.669H405.21C404.36 317.329 403.25 319.359 402.35 320.909H404.2L404.42 320.869L405.18 321.049V321.059ZM415.9 327.969H405.84V326.729H407.06V319.079H408.34V326.729H410.59V317.199C409.26 317.379 407.87 317.509 406.6 317.599C406.55 317.259 406.38 316.789 406.24 316.469C409.28 316.239 412.81 315.799 414.79 315.139L415.65 316.219C414.61 316.539 413.29 316.809 411.93 317.029V320.859H415.49V322.099H411.93V326.739H415.91V327.979L415.9 327.969Z" fill="#173868"/>
<path d="M433.21 325.519C432.08 326.349 430.62 327.229 429.32 327.879C430.69 328.869 432.4 329.549 434.41 329.929C434.14 330.239 433.76 330.759 433.58 331.119C429.48 330.219 426.67 328.029 425.13 324.639H422.25V329.459L427.11 328.289C427.09 328.629 427.06 329.169 427.07 329.459C422.03 330.739 421.15 330.989 420.74 331.199L420.67 331.249C420.56 330.929 420.29 330.279 420.06 329.939C420.42 329.759 420.94 329.379 420.94 328.659V324.629H418.03V323.429H421.18V315.529H432.24V316.659H422.53V318.209H431.71V319.309H422.53V320.799H431.71V321.879H422.53V323.429H433.99V324.629H426.49C426.99 325.579 427.62 326.429 428.41 327.149C429.69 326.469 431.18 325.509 432.1 324.779L433.22 325.519H433.21Z" fill="#173868"/>
<path d="M441.26 315.249C440.74 316.559 440.09 317.879 439.37 319.079V331.199H438.09V321.019C437.5 321.849 436.85 322.599 436.22 323.249C436.08 322.959 435.7 322.259 435.46 321.949C437.24 320.239 438.97 317.579 439.99 314.859L441.25 315.239L441.26 315.249ZM444.48 325.969C443.63 327.479 442.45 329.229 441.44 330.379C441.21 330.159 440.68 329.789 440.4 329.609C441.43 328.569 442.54 326.979 443.3 325.599L444.49 325.979L444.48 325.969ZM447.07 324.709V331.259H445.74V324.709H440.54V323.489H445.74V321.349H441.85V315.669H451.11V321.349H447.06V323.489H452.15V324.709H447.06H447.07ZM443.12 320.159H449.79V316.869H443.12V320.159ZM449.11 325.569C450.26 326.849 451.57 328.519 452.22 329.599L451.14 330.269C450.53 329.169 449.22 327.409 448.08 326.129L449.11 325.569Z" fill="#173868"/>
<path d="M469.37 315.66V331.29H468V330.44H455.98V331.29H454.67V315.66H469.37ZM468 329.21V316.92H455.98V329.21H468ZM462.64 320.84V322.89H465.88V327.59H458.29V322.89H461.37V320.84H457.14V319.72H461.37V317.67H462.65V319.72H467.04V320.84H462.65H462.64ZM464.64 323.95H459.49V326.52H464.64V323.95Z" fill="#173868"/>
<defs>
<filter id="filter0_d_103_512" x="16.3605" y="152.09" width="136.54" height="136.539" filterUnits="userSpaceOnUse" color-interpolation-filters="sRGB">
<feFlood flood-opacity="0" result="BackgroundImageFix"/>
<feColorMatrix in="SourceAlpha" type="matrix" values="0 0 0 0 0 0 0 0 0 0 0 0 0 0 0 0 0 0 127 0" result="hardAlpha"/>
<feOffset dx="-4" dy="4"/>
<feGaussianBlur stdDeviation="3"/>
<feColorMatrix type="matrix" values="0 0 0 0 0 0 0 0 0 0 0 0 0 0 0 0 0 0 0.3 0"/>
<feBlend mode="normal" in2="BackgroundImageFix" result="effect1_dropShadow_103_512"/>
<feBlend mode="normal" in="SourceGraphic" in2="effect1_dropShadow_103_512" result="shape"/>
</filter>
<filter id="filter1_d_103_512" x="180.352" y="153.176" width="136.571" height="136.57" filterUnits="userSpaceOnUse" color-interpolation-filters="sRGB">
<feFlood flood-opacity="0" result="BackgroundImageFix"/>
<feColorMatrix in="SourceAlpha" type="matrix" values="0 0 0 0 0 0 0 0 0 0 0 0 0 0 0 0 0 0 127 0" result="hardAlpha"/>
<feOffset dx="-4" dy="4"/>
<feGaussianBlur stdDeviation="3"/>
<feColorMatrix type="matrix" values="0 0 0 0 0 0 0 0 0 0 0 0 0 0 0 0 0 0 0.3 0"/>
<feBlend mode="normal" in2="BackgroundImageFix" result="effect1_dropShadow_103_512"/>
<feBlend mode="normal" in="SourceGraphic" in2="effect1_dropShadow_103_512" result="shape"/>
</filter>
<filter id="filter2_d_103_512" x="344.346" y="152.086" width="136.571" height="136.57" filterUnits="userSpaceOnUse" color-interpolation-filters="sRGB">
<feFlood flood-opacity="0" result="BackgroundImageFix"/>
<feColorMatrix in="SourceAlpha" type="matrix" values="0 0 0 0 0 0 0 0 0 0 0 0 0 0 0 0 0 0 127 0" result="hardAlpha"/>
<feOffset dx="-4" dy="4"/>
<feGaussianBlur stdDeviation="3"/>
<feColorMatrix type="matrix" values="0 0 0 0 0 0 0 0 0 0 0 0 0 0 0 0 0 0 0.3 0"/>
<feBlend mode="normal" in2="BackgroundImageFix" result="effect1_dropShadow_103_512"/>
<feBlend mode="normal" in="SourceGraphic" in2="effect1_dropShadow_103_512" result="shape"/>
</filter>
</defs>
</svg>
