<svg width="564" height="258" viewBox="0 0 564 258" fill="none" xmlns="http://www.w3.org/2000/svg">
<path d="M97.824 133.621V135.046H113.214V133.621H97.824ZM97.007 145.287V146.712H113.974V145.287H97.007ZM100.465 136.414C101.187 138.941 101.985 142.285 102.27 144.451L103.771 144.09C103.448 141.886 102.65 138.637 101.871 136.072L100.465 136.414ZM109.129 136.091C108.464 138.979 107.229 143.159 106.146 145.591L107.552 145.895C108.597 143.482 109.87 139.492 110.725 136.357L109.129 136.091ZM104.132 130.296C104.493 131.284 104.892 132.576 105.044 133.412L106.507 132.975C106.317 132.139 105.899 130.904 105.5 129.935L104.132 130.296ZM127.54 140.385V141.734H134.798V140.385H127.54ZM123.284 141.202L122.106 141.677C123.816 146.294 126.989 147.263 131.606 147.263H135.824C135.9 146.864 136.128 146.218 136.337 145.876C135.52 145.895 132.29 145.895 131.682 145.895C127.711 145.895 124.652 145.135 123.284 141.202ZM126.894 137.041V146.009L128.357 146.484V137.041H126.894ZM122.638 132.329H132.765V136.072H122.638V132.329ZM121.232 130.98V137.44H134.247V130.98H121.232ZM122.334 138.865C122.049 141.601 121.118 144.831 118.857 146.56C119.161 146.769 119.636 147.244 119.883 147.529C122.315 145.648 123.379 142.152 123.835 139.036L122.334 138.865ZM147.452 133.26V134.761H157.332V133.26H147.452ZM146.35 144.641V146.142H158.168V144.641H146.35ZM143.595 135.217V147.472H145.02V133.83L145.001 133.792L143.595 135.217ZM145.666 130.087C144.545 133.07 142.702 135.958 140.726 137.839C141.011 138.181 141.467 138.941 141.619 139.283C143.747 137.117 145.761 133.811 147.072 130.524L145.666 130.087ZM168.333 131.607V132.785H180.265V131.607H168.333ZM168.143 140.138V141.316H180.379V140.138H168.143ZM172.931 141.81C173.406 142.57 174.014 143.634 174.299 144.261L175.401 143.786C175.116 143.197 174.489 142.171 173.976 141.43L172.931 141.81ZM170.955 142.779V145.648C170.955 146.921 171.354 147.263 172.969 147.263C173.311 147.263 175.439 147.263 175.762 147.263C177.054 147.263 177.434 146.788 177.567 144.774C177.206 144.698 176.693 144.527 176.427 144.337C176.37 145.933 176.256 146.142 175.629 146.142C175.173 146.142 173.425 146.142 173.102 146.142C172.361 146.142 172.228 146.047 172.228 145.648V142.779H170.955ZM169.093 142.665C168.751 143.805 168.143 145.306 167.383 146.199L168.504 146.826C169.264 145.838 169.815 144.299 170.214 143.083L169.093 142.665ZM177.358 142.893C178.137 144.071 178.916 145.648 179.239 146.617L180.398 146.104C180.037 145.135 179.201 143.596 178.441 142.456L177.358 142.893ZM176.332 135.236H178.365V137.82H176.332V135.236ZM173.292 135.236H175.287V137.82H173.292V135.236ZM170.309 135.236H172.228V137.82H170.309V135.236ZM169.169 134.153V138.903H179.562V134.153H169.169ZM173.615 129.973C173.52 131.303 173.254 133.241 173.007 134.438L174.337 134.552C174.603 133.431 174.869 131.607 175.097 130.049L173.615 129.973ZM167.079 134.172C165.977 136.319 164.267 138.58 162.652 140.043C162.918 140.347 163.355 141.031 163.507 141.316C165.217 139.625 167.098 137.041 168.371 134.628L167.079 134.172ZM166.737 130.049C165.844 131.398 164.153 133.127 162.766 134.229C162.994 134.514 163.336 135.065 163.488 135.369C165.027 134.096 166.832 132.196 168.029 130.581L166.737 130.049ZM165.445 137.725V147.529H166.794V137.25L166.11 137.041L165.445 137.725ZM192.368 134.457H196.738V136.642H192.368V134.457ZM191.038 133.431V137.668H198.144V133.431H191.038ZM190.164 140.005H192.691V142.817H190.164V140.005ZM188.948 138.96V143.862H193.945V138.96H188.948ZM196.453 140.005H199.113V142.817H196.453V140.005ZM195.237 138.96V143.862H200.367V138.96H195.237ZM185.262 130.923V132.196H201.298V130.923H185.262ZM186.06 131.018V142.893C186.06 145.686 187.466 146.636 190.392 146.636C191.095 146.636 197.46 146.636 198.809 146.636C200.291 146.636 201.735 146.598 202.248 146.465C202.172 146.142 202.077 145.477 202.02 145.097C201.336 145.23 199.873 145.306 198.847 145.306C197.498 145.306 191.475 145.306 190.24 145.306C188.188 145.306 187.447 144.622 187.447 143.007V131.018H186.06ZM217.79 140.803C219.291 142.836 221.134 145.648 222.008 147.396L223.433 146.617C222.521 144.926 220.697 142.228 219.139 140.195L217.79 140.803ZM212.204 130.6C211.026 133.488 209.031 136.3 206.884 138.067C207.264 138.333 207.891 138.922 208.157 139.226C210.285 137.269 212.394 134.21 213.762 131.075L212.204 130.6ZM209.278 146.598C209.278 146.237 210.437 145.762 210.437 145.762V145.724C212.736 143.349 215.035 139.948 216.935 136.547L215.339 135.863C213.743 139.112 211.273 142.532 210.494 143.406C209.772 144.299 209.221 144.926 208.708 145.059C208.917 145.477 209.183 146.275 209.278 146.598ZM209.278 146.598C210.019 146.294 211.102 146.237 221.818 145.515C221.723 145.192 221.571 144.584 221.495 144.166L210.285 144.812L209.24 145.382L209.278 146.598ZM217.866 130.505V131.36H218.246C219.253 134.457 221.21 137.497 223.509 139.226C223.775 138.789 224.288 138.181 224.63 137.896C222.388 136.414 220.469 133.545 219.557 130.505H217.866ZM214.921 130.505V131.968H219.082V130.505H214.921ZM238.994 136.471V137.858H246.423V136.471H238.994ZM242.794 137.402V147.453H244.2V137.402H242.794ZM230.102 131.911V138.561C230.102 141.05 229.988 144.318 228.772 146.655C229.095 146.807 229.684 147.301 229.931 147.548C231.318 145.059 231.489 141.259 231.489 138.561V131.911H230.102ZM245.112 130.277C243.554 130.999 240.761 131.607 238.386 131.949C238.557 132.272 238.747 132.804 238.823 133.146C241.255 132.823 244.2 132.272 246.081 131.474L245.112 130.277ZM230.881 134.818V136.11H235.251V139.15H230.881V140.442H236.638V134.818H230.881ZM236.6 130.429C235.118 131.132 232.382 131.645 230.102 131.911C230.273 132.253 230.463 132.747 230.52 133.089C232.857 132.861 235.726 132.405 237.531 131.626L236.6 130.429ZM238.386 131.949V138.276C238.386 140.917 238.158 144.261 235.897 146.598C236.22 146.788 236.79 147.282 237.018 147.548C239.469 145.078 239.83 141.164 239.83 138.295V131.949H238.386ZM252.522 136.072V147.472H253.89V137.269H266.525V136.072H252.522ZM265.765 136.072V145.933C265.765 146.218 265.651 146.294 265.347 146.313C265.043 146.332 263.941 146.351 262.763 146.313C262.934 146.617 263.124 147.073 263.181 147.415C264.815 147.415 265.784 147.396 266.335 147.225C266.905 147.016 267.095 146.674 267.095 145.933V136.072H265.765ZM256.968 140.727V141.81H262.022V144.014H256.968V145.078H263.238V140.727H256.968ZM256.227 140.727V145.971H257.462V140.727H256.227ZM251.439 132.082V133.336H268.14V132.082H251.439ZM255.486 133.773C255.904 134.476 256.417 135.426 256.664 136.015L257.918 135.483C257.671 134.951 257.12 134.039 256.702 133.355L255.486 133.773ZM262.782 133.45C262.44 134.324 261.737 135.578 261.186 136.357L262.288 136.68C262.877 135.958 263.618 134.799 264.226 133.792L262.782 133.45ZM258.678 130.296C258.982 131.075 259.362 132.139 259.533 132.804L260.92 132.386C260.73 131.74 260.35 130.733 259.989 129.954L258.678 130.296ZM257.253 136.661C257.101 138.561 256.455 139.435 253.928 139.891C254.194 140.119 254.498 140.594 254.612 140.879C257.519 140.233 258.317 139.036 258.526 136.661H257.253ZM260.616 136.699V138.466C260.616 139.625 260.844 140.119 262.022 140.119C262.307 140.119 263.656 140.119 264.036 140.119C264.435 140.119 264.91 140.1 265.138 140.024C265.1 139.72 265.062 139.321 265.043 138.998C264.777 139.055 264.283 139.074 263.998 139.074C263.713 139.074 262.554 139.074 262.288 139.074C261.946 139.074 261.908 138.922 261.908 138.485V136.699H260.616ZM279.16 139.53V140.442H283.72V139.53H279.16ZM278.628 139.53V143.273C278.628 144.508 279.122 144.793 280.813 144.793C281.174 144.793 283.967 144.793 284.366 144.793C285.658 144.793 286.019 144.375 286.152 142.703C285.829 142.627 285.392 142.494 285.126 142.304C285.05 143.634 284.917 143.843 284.252 143.843C283.663 143.843 281.326 143.843 280.889 143.843C279.977 143.843 279.787 143.729 279.787 143.254V139.53H278.628ZM283.302 139.53V139.663C283.264 141.031 283.207 141.544 283.074 141.696C282.979 141.81 282.846 141.829 282.656 141.81C282.466 141.81 281.915 141.81 281.288 141.753C281.44 141.981 281.535 142.361 281.554 142.589C282.143 142.646 282.789 142.646 283.074 142.627C283.492 142.608 283.758 142.513 283.948 142.304C284.195 142.019 284.271 141.392 284.347 139.948C284.347 139.777 284.347 139.53 284.347 139.53H283.302ZM284.86 132.823C284.613 133.526 284.1 134.571 283.72 135.236L284.632 135.54C285.05 134.913 285.544 134.02 286 133.165L284.86 132.823ZM277.545 133.241C278.001 133.754 278.438 134.457 278.59 134.97L279.559 134.571C279.407 134.077 278.932 133.374 278.476 132.88L277.545 133.241ZM273.878 130.809V147.491H275.227V132.044H288.394V147.491H289.8V130.809H273.878ZM274.714 145.534V146.75H289.135V145.534H274.714ZM276.044 137.231V138.2H287.653V137.231H276.044ZM276.918 135.046V135.977H286.95V135.046H276.918ZM281.345 132.5C280.566 136.414 278.704 139.036 275.493 140.518C275.759 140.746 276.139 141.259 276.291 141.506C279.616 139.758 281.649 136.965 282.561 132.633L281.345 132.5ZM282.827 138.105C284.252 139.036 285.943 140.461 286.76 141.392L287.596 140.67C286.76 139.739 285.05 138.39 283.606 137.478L282.827 138.105ZM302.302 142.418C304.297 141.734 305.589 140.176 305.589 138.124C305.589 136.794 305.019 135.92 303.955 135.92C303.195 135.92 302.511 136.395 302.511 137.288C302.511 138.181 303.157 138.656 303.936 138.656C304.297 138.656 304.677 138.561 304.943 138.219L303.917 136.775L304.278 138.371C304.278 139.815 303.423 140.784 301.865 141.411L302.302 142.418ZM325.083 133.678V147.491H326.565V133.678H325.083ZM317.35 132.823V134.21H334.469V132.823H317.35ZM319.212 136.813V145.306H320.637V138.2H331.695V136.813H319.212ZM331.296 136.813V143.501C331.296 143.767 331.22 143.843 330.878 143.881C330.536 143.881 329.396 143.881 328.104 143.843C328.294 144.242 328.522 144.812 328.598 145.249C330.213 145.249 331.296 145.23 331.942 145.002C332.588 144.774 332.759 144.337 332.759 143.501V136.813H331.296ZM324.247 130.315C324.779 131.227 325.387 132.481 325.653 133.241L327.116 132.728C326.831 131.987 326.166 130.771 325.634 129.897L324.247 130.315ZM340.264 133.431V142.475H341.689V134.837H354.096V142.38H355.578V133.431H340.264ZM341.024 139.891V141.278H354.951V139.891H341.024ZM347.142 130.03V147.491H348.624V130.03H347.142ZM366.085 135.35V144.755C366.085 146.655 366.674 147.168 368.745 147.168C369.163 147.168 372.108 147.168 372.583 147.168C374.711 147.168 375.167 146.104 375.357 142.494C374.977 142.38 374.35 142.133 374.008 141.867C373.856 145.154 373.685 145.819 372.507 145.819C371.842 145.819 369.372 145.819 368.859 145.819C367.776 145.819 367.548 145.648 367.548 144.774V135.35H366.085ZM363.045 136.756C362.76 139.017 362.133 142 361.316 143.957L362.741 144.565C363.52 142.513 364.109 139.283 364.413 137.041L363.045 136.756ZM374.939 136.775C376.003 139.036 377.048 142.038 377.409 143.995L378.834 143.444C378.416 141.468 377.352 138.542 376.25 136.281L374.939 136.775ZM366.978 131.645C368.783 132.918 371.025 134.799 372.07 135.977L373.096 134.913C371.994 133.716 369.714 131.93 367.947 130.714L366.978 131.645ZM391.298 131.512V136.908H392.704V131.512H391.298ZM384.458 130.923V132.101H398.955V130.923H384.458ZM398.575 130.923V131.132C398.271 132.101 397.758 133.279 397.34 134.02L398.575 134.343C399.069 133.564 399.639 132.253 400.095 131.151L399.069 130.847L398.822 130.923H398.575ZM392.077 133.659V134.704H397.226V133.659H392.077ZM387.954 133.944L386.985 134.324C388.391 137.155 390.785 137.668 394.87 137.668H400.228C400.304 137.288 400.532 136.68 400.741 136.376C399.734 136.414 395.649 136.414 394.889 136.414C391.393 136.414 389.094 136.072 387.954 133.944ZM386.776 140.442H397.226V142.323H386.776V140.442ZM385.427 139.321V143.444H398.651V139.321H385.427ZM391.317 138.086V146.085H392.742V138.086H391.317ZM383.774 145.572L383.888 146.94C387.536 146.826 393.084 146.598 398.271 146.351L398.328 145.211C392.894 145.382 387.175 145.534 383.774 145.572ZM395.155 144.185C396.675 145.249 398.651 146.788 399.715 147.738L400.646 146.826C399.62 145.952 397.606 144.432 396.086 143.387L395.155 144.185ZM387.327 132.633C386.624 134.913 385.085 136.699 383.166 137.725C383.413 138.067 383.736 138.789 383.85 139.112C386.054 137.801 387.802 135.616 388.676 132.937L387.327 132.633ZM415.979 145.287C418.107 145.99 420.273 146.864 421.546 147.51L422.8 146.56C421.375 145.914 419.057 145.059 416.948 144.375L415.979 145.287ZM406.479 131.474V132.614H421.774V131.474H406.479ZM405.529 135.958V137.212H422.61V135.958H405.529ZM413.281 138.58V144.052H414.706V138.58H413.281ZM409.101 141.715H419.152V143.273H409.101V141.715ZM409.101 139.169H419.152V140.708H409.101V139.169ZM407.733 138.124V144.318H420.577V138.124H407.733ZM410.925 144.375C409.69 145.173 407.258 146.066 405.301 146.56C405.624 146.826 406.08 147.282 406.308 147.548C408.227 147.054 410.64 146.123 412.198 145.192L410.925 144.375ZM410.032 130.011V135.008H418.202V130.011H416.758V133.963H411.4V130.011H410.032ZM434.808 134.457H439.178V136.642H434.808V134.457ZM433.478 133.431V137.668H440.584V133.431H433.478ZM432.604 140.005H435.131V142.817H432.604V140.005ZM431.388 138.96V143.862H436.385V138.96H431.388ZM438.893 140.005H441.553V142.817H438.893V140.005ZM437.677 138.96V143.862H442.807V138.96H437.677ZM427.702 130.923V132.196H443.738V130.923H427.702ZM428.5 131.018V142.893C428.5 145.686 429.906 146.636 432.832 146.636C433.535 146.636 439.9 146.636 441.249 146.636C442.731 146.636 444.175 146.598 444.688 146.465C444.612 146.142 444.517 145.477 444.46 145.097C443.776 145.23 442.313 145.306 441.287 145.306C439.938 145.306 433.915 145.306 432.68 145.306C430.628 145.306 429.887 144.622 429.887 143.007V131.018H428.5ZM450.084 139.91V140.974H457.57V139.91H450.084ZM449.457 142.171V143.292H458.064V142.171H449.457ZM449.533 131.265V132.386H458.026V131.265H449.533ZM453.162 134.058V138.238H454.34V134.058H453.162ZM451.224 136.129H456.259V137.82H451.224V136.129ZM450.084 135.141V138.789H457.437V135.141H450.084ZM453.105 138.219V140.898C453.105 142.57 452.763 145.002 449.381 146.541C449.685 146.769 450.103 147.187 450.293 147.472C453.979 145.667 454.435 142.988 454.435 140.917V138.219H453.105ZM453.105 144.128C454.359 144.964 455.917 146.199 456.658 146.997L457.456 146.047C456.696 145.268 455.1 144.09 453.884 143.311L453.105 144.128ZM451.224 130.087V134.324H456.468V130.087H455.138V133.374H452.497V130.087H451.224ZM459.337 137.516V138.751H466.5V137.516H459.337ZM459.356 141.335V142.589H466.519V141.335H459.356ZM459.28 145.211V146.541H466.804V145.211H459.28ZM460.249 130.049C459.546 132.614 458.444 135.198 457.076 136.889C457.399 137.079 457.931 137.554 458.159 137.782C459.527 135.958 460.762 133.146 461.56 130.353L460.249 130.049ZM460.268 133.659H460.23L458.976 135.008V147.472H460.268V134.951H466.709V133.659H460.268ZM462.776 134.248V145.895H464.068V134.248H462.776ZM462.054 130.714C462.567 131.569 463.099 132.728 463.327 133.469L464.6 132.975C464.372 132.234 463.821 131.113 463.27 130.277L462.054 130.714ZM479.819 134.267H486.108V135.825H479.819V134.267ZM479.819 131.702H486.108V133.241H479.819V131.702ZM478.451 130.619V136.908H487.533V130.619H478.451ZM477.273 138.219V139.416H488.445V138.219H477.273ZM476.836 141.05V142.304H488.787V141.05H476.836ZM484.512 139.264V145.914C484.512 146.161 484.436 146.237 484.132 146.256C483.847 146.275 482.897 146.275 481.814 146.237C482.004 146.617 482.232 147.149 482.289 147.529C483.714 147.529 484.626 147.529 485.196 147.301C485.766 147.092 485.937 146.712 485.937 145.952V139.264H484.512ZM478.489 143.273C479.344 144.109 480.37 145.287 480.826 146.047L481.909 145.249C481.415 144.508 480.37 143.387 479.496 142.589L478.489 143.273ZM475.791 134.267C474.651 136.243 472.808 138.2 471.079 139.454C471.326 139.777 471.725 140.537 471.839 140.822C473.72 139.34 475.753 137.041 477.045 134.78L475.791 134.267ZM475.43 130.087C474.613 131.436 472.903 133.013 471.383 134.001C471.63 134.286 471.991 134.837 472.143 135.16C473.834 134.039 475.658 132.253 476.798 130.619L475.43 130.087ZM474.081 137.63V147.51H475.468V136.319L475.411 136.281L474.081 137.63ZM493.898 135.502V136.946H510.599V135.502H493.898ZM503.151 136.072L501.726 136.414C503.151 141.525 505.735 145.534 509.839 147.472C510.086 147.073 510.561 146.465 510.922 146.142C506.97 144.508 504.386 140.67 503.151 136.072ZM501.479 130.049C501.441 134.609 501.593 142.798 493.518 146.313C493.917 146.598 494.373 147.111 494.601 147.491C502.904 143.691 502.942 135.027 503.018 130.049H501.479ZM516.66 130.809V132.082H525.229V130.809H516.66ZM516.033 134.704V135.977H525.647V134.704H516.033ZM515.653 145.534V146.864H532.848V145.534H515.653ZM517.629 141.81V143.102H530.853V141.81H517.629ZM522.132 131.341V140.043H523.462V131.341H522.132ZM523.633 139.682V146.446H525.077V139.682H523.633ZM526.825 131.132V137.497H528.136V131.132H526.825ZM530.359 130.163V138.637C530.359 138.903 530.283 138.979 529.998 138.979C529.694 139.017 528.763 139.017 527.661 138.979C527.87 139.359 528.079 139.891 528.136 140.271C529.504 140.271 530.416 140.252 530.986 140.043C531.556 139.815 531.727 139.454 531.727 138.656V130.163H530.359ZM518.446 131.36V134.552C518.446 136.205 518.142 138.143 515.862 139.53C516.128 139.739 516.622 140.252 516.812 140.537C519.282 138.998 519.776 136.566 519.776 134.59V131.36H518.446ZM549.568 140.689C550.898 141.563 552.513 142.855 553.273 143.748L554.375 142.969C553.577 142.095 551.943 140.841 550.613 140.024L549.568 140.689ZM548.884 144.356C550.48 145.154 552.532 146.389 553.52 147.225L554.622 146.332C553.558 145.496 551.487 144.337 549.929 143.577L548.884 144.356ZM542.348 143.577C541.208 144.622 539.365 145.629 537.674 146.294C537.997 146.503 538.529 146.997 538.757 147.263C540.41 146.503 542.367 145.306 543.659 144.09L542.348 143.577ZM545.559 130.011V136.775H546.984V130.011H545.559ZM538.776 131.436V132.519H553.938V131.436H538.776ZM539.84 133.735V134.837H552.817V133.735H539.84ZM537.826 136.072V137.212H554.831V136.072H537.826ZM538.985 143.444C538.985 143.178 539.916 142.931 539.916 142.931V142.874C543.545 141.924 547.307 140.537 550.86 138.618L549.853 137.706C546.756 139.511 542.5 141.107 541.265 141.506C540.125 141.905 539.289 142.133 538.643 142.19C538.776 142.551 538.947 143.159 538.985 143.444ZM538.985 143.444C539.669 143.216 540.695 143.159 552.38 142.513C552.285 142.266 552.19 141.829 552.152 141.506L539.878 142.114L538.985 142.57V143.444ZM540.448 140.423C540.448 140.138 541.303 139.834 541.303 139.834V139.796C542.956 139.283 544.628 138.523 546.186 137.554L545.179 136.756C543.811 137.763 541.949 138.58 541.398 138.808C540.885 139.017 540.467 139.15 540.068 139.207C540.22 139.53 540.391 140.157 540.448 140.423ZM540.448 140.423C540.885 140.252 541.569 140.195 547.782 139.853C547.82 139.625 547.934 139.188 548.029 138.884L541.17 139.207L540.448 139.587V140.423ZM545.882 142.152V145.857C545.882 146.066 545.806 146.142 545.502 146.142C545.198 146.161 544.172 146.161 543.013 146.123C543.222 146.503 543.469 147.035 543.545 147.453C544.951 147.453 545.882 147.434 546.49 147.225C547.117 147.016 547.269 146.636 547.269 145.895V142.152H545.882ZM96.988 182.609V183.958H102.688V182.609H96.988ZM99.268 178.258V190.589H100.617V178.258H99.268ZM96.627 190.912L97.197 192.337C98.869 191.596 100.997 190.627 103.011 189.696L102.707 188.423C100.465 189.373 98.147 190.342 96.627 190.912ZM108.065 178.03V191.273H109.414V178.03H108.065ZM102.08 185.877L102.631 187.131L112.853 182.78L112.321 181.564L102.08 185.877ZM104.132 179.816V192.508C104.132 194.579 104.778 195.092 106.963 195.092C107.438 195.092 111.124 195.092 111.637 195.092C113.632 195.092 114.088 194.256 114.316 191.634C113.917 191.558 113.366 191.33 113.024 191.102C112.891 193.287 112.701 193.8 111.58 193.8C110.82 193.8 107.628 193.8 107.001 193.8C105.728 193.8 105.5 193.572 105.5 192.527V179.816H104.132ZM111.941 182.02C111.827 184.661 111.542 188.157 111.162 190.19L112.34 190.532C112.834 188.366 113.157 184.851 113.328 182.153L113.404 181.906L112.321 181.564L111.732 182.02H111.941ZM125.982 190.418C127.977 189.734 129.269 188.176 129.269 186.124C129.269 184.794 128.699 183.92 127.635 183.92C126.875 183.92 126.191 184.395 126.191 185.288C126.191 186.181 126.837 186.656 127.616 186.656C127.977 186.656 128.357 186.561 128.623 186.219L127.597 184.775L127.958 186.371C127.958 187.815 127.103 188.784 125.545 189.411L125.982 190.418ZM148.326 180.424V181.678H157.18V180.424H148.326ZM146.122 184.11V185.345H157.921V184.11H146.122ZM148.744 178.296C148.174 180.063 147.205 181.811 146.046 182.97C146.388 183.122 146.958 183.445 147.243 183.654C148.326 182.4 149.39 180.519 150.036 178.581L148.744 178.296ZM151.442 178.049V184.908H152.848V178.049H151.442ZM141.657 178.695C142.493 179.626 143.557 180.956 144.07 181.754L145.172 180.975C144.64 180.196 143.595 178.98 142.721 178.068L141.657 178.695ZM140.973 182.419V183.616H145.02V182.419H140.973ZM144.355 191.14L143.405 191.577C144.83 194.712 147.319 195.244 151.765 195.244C153.855 195.244 156.249 195.187 158.035 195.092C158.111 194.693 158.301 194.028 158.51 193.724C156.572 193.876 153.779 193.971 151.784 193.971C148.003 193.971 145.533 193.629 144.355 191.14ZM144.545 187.169V187.416C144.013 190.893 142.588 193.287 140.593 194.579C140.878 194.788 141.353 195.263 141.543 195.567C143.633 194.123 145.191 191.444 145.837 187.397L145.115 187.131L144.887 187.169H144.545ZM141.239 188.594C141.372 188.442 141.866 188.328 142.36 188.328H144.982V187.169H141.923L141.239 187.511V188.594ZM141.239 188.594C141.239 188.233 142.303 187.701 142.303 187.701C143.367 186.485 145.077 184.034 145.951 182.742L145.02 182.343L144.583 182.514L144.602 182.571C143.975 183.578 142.189 186.162 141.6 186.732C141.296 187.112 140.992 187.245 140.707 187.321C140.859 187.606 141.144 188.271 141.239 188.594ZM149.01 188.043H155.223V191.102H149.01V188.043ZM147.623 186.846V192.299H156.648V186.846H147.623ZM164.191 182.894V184.11H168.998V182.894H164.191ZM163.203 186.2V187.435H169.53V186.2H163.203ZM163.545 188.689C163.868 189.81 164.153 191.273 164.229 192.242L165.198 191.938C165.103 191.007 164.78 189.544 164.457 188.442L163.545 188.689ZM162.994 193.591L163.298 194.864C165.046 194.446 167.478 193.857 169.739 193.287L169.644 192.147C167.174 192.698 164.628 193.249 162.994 193.591ZM168.39 188.214C168.238 189.259 167.915 190.779 167.63 191.71L168.466 192.033C168.77 191.14 169.131 189.734 169.454 188.575L168.39 188.214ZM165.958 183.426V193.629L167.155 193.458V183.426H165.958ZM166.433 177.935C165.578 179.835 164.115 181.621 162.671 182.761C162.88 183.122 163.184 183.882 163.279 184.186C164.856 182.799 166.509 180.633 167.497 178.429L166.433 177.935ZM165.977 179.892C167.212 180.766 168.599 181.963 169.416 182.856L170.043 181.716C169.207 180.861 167.82 179.721 166.528 178.866L165.977 179.892ZM172.988 192.052C172 192.869 170.499 193.762 169.226 194.37C169.511 194.655 169.986 195.263 170.176 195.529C171.468 194.807 173.121 193.629 174.261 192.641L172.988 192.052ZM175.933 192.907C177.13 193.724 178.65 194.902 179.391 195.605L180.284 194.446C179.524 193.781 178.042 192.736 176.807 191.938L175.933 192.907ZM170.423 179.873V181.051H179.942V179.873H170.423ZM169.853 190.703V191.938H180.379V190.703H169.853ZM171.791 184.471V185.326H178.574V184.471H171.791ZM171.772 186.466V187.359H178.669V186.466H171.772ZM171.791 188.537V189.43H178.498V188.537H171.791ZM171.107 182.248V191.045H172.342V183.255H177.928V191.045H179.163V182.248H171.107ZM174.527 178.068C174.356 179.512 173.976 181.621 173.634 182.913L174.831 183.065C175.211 181.83 175.61 179.835 175.952 178.163L174.527 178.068ZM189.613 189.411V193.173C189.613 194.712 190.164 195.13 192.216 195.13C192.634 195.13 195.617 195.13 196.054 195.13C197.821 195.13 198.258 194.484 198.448 191.9C198.049 191.805 197.46 191.577 197.137 191.349C197.042 193.496 196.89 193.8 195.959 193.8C195.294 193.8 192.805 193.8 192.311 193.8C191.247 193.8 191.057 193.724 191.057 193.173V189.411H189.613ZM191.38 188.689C192.805 189.449 194.515 190.646 195.332 191.482L196.339 190.513C195.484 189.658 193.736 188.518 192.311 187.815L191.38 188.689ZM198.239 189.62C199.341 191.102 200.424 193.097 200.842 194.389L202.21 193.781C201.792 192.47 200.614 190.532 199.512 189.107L198.239 189.62ZM187.162 189.316C186.744 190.798 186.022 192.679 185.072 193.857L186.345 194.541C187.295 193.306 187.979 191.33 188.416 189.753L187.162 189.316ZM188.264 183.749H198.828V186.2H188.264V183.749ZM188.264 180.139H198.828V182.552H188.264V180.139ZM186.915 178.885V187.454H200.234V178.885H186.915ZM192.9 179.417V186.903H194.287V179.417H192.9ZM216.004 185.174V186.466H223.68V185.174H216.004ZM216.023 188.917V190.209H223.699V188.917H216.023ZM215.909 192.831V194.161H224.307V192.831H215.909ZM219.443 181.925V193.553H220.735V181.925H219.443ZM216.631 181.469H216.137L215.32 182.362V195.529H216.631V182.78H224.041V181.469H216.631ZM216.84 178.144C216.194 180.329 214.921 183.103 213.439 184.851C213.667 185.174 214.009 185.782 214.161 186.124C215.871 184.11 217.315 181.127 218.208 178.524L216.84 178.144ZM218.778 178.638C219.234 179.493 219.804 180.614 220.032 181.355L221.305 180.766C221.039 180.063 220.469 178.98 219.975 178.144L218.778 178.638ZM211.767 185.516C212.318 186.732 212.869 188.366 213.059 189.354L214.161 188.936C213.952 187.967 213.382 186.39 212.774 185.155L211.767 185.516ZM209.886 190.399C210.114 191.691 210.304 193.382 210.361 194.484L211.463 194.237C211.406 193.116 211.178 191.463 210.931 190.19L209.886 190.399ZM207.834 190.266C207.663 191.805 207.378 193.515 206.922 194.674C207.226 194.75 207.777 194.94 208.024 195.073C208.423 193.895 208.784 192.109 208.974 190.456L207.834 190.266ZM207.397 185.155C207.397 184.87 208.252 184.452 208.252 184.452V184.433C209.506 182.913 210.779 180.69 211.729 178.581L210.513 178.049C209.753 180.12 208.423 182.305 208.005 182.875C207.625 183.445 207.302 183.844 206.979 183.92C207.112 184.262 207.321 184.889 207.397 185.155ZM207.397 185.155C207.701 185.003 208.214 184.908 211.235 184.566C211.235 184.3 211.273 183.825 211.349 183.483L208.005 183.768L207.378 184.167L207.397 185.155ZM207.53 189.43C207.53 189.164 208.385 188.765 208.385 188.765V188.727C210.171 186.827 211.995 184.148 213.439 181.526L212.299 180.861C211.064 183.464 209.107 186.2 208.499 186.903C207.91 187.625 207.492 188.119 207.093 188.195C207.245 188.537 207.454 189.164 207.53 189.43ZM207.53 189.43C207.891 189.24 208.518 189.088 213.268 188.366C213.249 188.1 213.249 187.625 213.306 187.302L208.138 188.005L207.473 188.442L207.53 189.43ZM211.995 190.019C212.413 191.178 212.888 192.717 213.078 193.743L214.123 193.382C213.914 192.394 213.42 190.874 212.964 189.696L211.995 190.019ZM231.565 189.24V190.513H243.839V189.24H231.565ZM232.401 185.041V186.333H243.098V185.041H232.401ZM229.684 193.705V194.997H245.872V193.705H229.684ZM236.923 185.573V194.427H238.424V185.573H236.923ZM232.648 178.562V179.892H238.329V178.562H232.648ZM236.885 178.562V179.379H237.341C239.279 182.115 242.509 184.832 245.606 186.295C245.815 185.915 246.29 185.326 246.575 185.041C243.554 183.768 240.267 181.203 238.481 178.562H236.885ZM237.151 178.562C235.403 181.032 231.831 183.901 228.943 185.269C229.266 185.573 229.646 186.067 229.836 186.428C232.743 184.851 236.315 181.868 238.196 179.284L237.151 178.562ZM258.488 182.457H262.858V184.642H258.488V182.457ZM257.158 181.431V185.668H264.264V181.431H257.158ZM256.284 188.005H258.811V190.817H256.284V188.005ZM255.068 186.96V191.862H260.065V186.96H255.068ZM262.573 188.005H265.233V190.817H262.573V188.005ZM261.357 186.96V191.862H266.487V186.96H261.357ZM251.382 178.923V180.196H267.418V178.923H251.382ZM252.18 179.018V190.893C252.18 193.686 253.586 194.636 256.512 194.636C257.215 194.636 263.58 194.636 264.929 194.636C266.411 194.636 267.855 194.598 268.368 194.465C268.292 194.142 268.197 193.477 268.14 193.097C267.456 193.23 265.993 193.306 264.967 193.306C263.618 193.306 257.595 193.306 256.36 193.306C254.308 193.306 253.567 192.622 253.567 191.007V179.018H252.18ZM273.536 181.203V182.476H280.3V181.203H273.536ZM273.137 185.592V186.903H280.68V185.592H273.137ZM276.272 178.239V184.813C276.272 187.758 276.139 191.938 273.023 194.256C273.346 194.522 273.802 194.997 273.992 195.301C277.336 192.603 277.64 188.157 277.64 184.794V178.239H276.272ZM277.317 187.872L276.443 188.556C277.203 189.373 279.103 191.691 279.768 192.679L280.737 191.615C280.224 191.007 277.963 188.461 277.317 187.872ZM282.713 183.122H288.147V185.003H282.713V183.122ZM282.713 186.181H288.147V188.081H282.713V186.181ZM282.713 180.063H288.147V181.925H282.713V180.063ZM281.364 178.79V189.373H289.515V178.79H281.364ZM285.924 188.803V193.42C285.924 194.769 286.228 195.187 287.52 195.187C287.786 195.187 288.812 195.187 289.078 195.187C290.218 195.187 290.56 194.541 290.674 191.938C290.313 191.843 289.743 191.634 289.477 191.387C289.42 193.629 289.344 193.914 288.945 193.914C288.717 193.914 287.9 193.914 287.729 193.914C287.311 193.914 287.273 193.857 287.273 193.401V188.803H285.924ZM282.922 189.069C282.656 191.577 281.915 193.439 278.875 194.427C279.16 194.674 279.54 195.187 279.692 195.491C283.036 194.294 283.948 192.109 284.29 189.069H282.922ZM306.824 180.329V190.855H308.154V180.329H306.824ZM310.434 178.391V193.724C310.434 194.028 310.32 194.123 310.016 194.142C309.712 194.161 308.724 194.161 307.622 194.123C307.812 194.522 308.002 195.149 308.059 195.51C309.598 195.529 310.491 195.472 311.042 195.244C311.574 195.016 311.802 194.617 311.802 193.724V178.391H310.434ZM295.139 181.108V182.096H306.102V181.108H295.139ZM296.165 184.87V185.782H305.19V184.87H296.165ZM295.253 186.656V187.663H305.988V186.656H295.253ZM300.041 188.784V192.413H301.257V188.784H300.041ZM299.889 178.049V187.283H301.181V178.049H299.889ZM295.12 193.895L295.234 195.054C297.951 194.94 302.112 194.712 306.045 194.503L306.083 193.382C302.017 193.61 297.78 193.8 295.12 193.895ZM296.355 179.265V180.177H303.689V183.122H296.298V184.034H304.943V179.265H296.355ZM297.552 190.969H303.708V191.9H297.552V190.969ZM297.552 189.278H303.708V190.19H297.552V189.278ZM296.393 188.48V192.698H304.924V188.48H296.393ZM325.957 183.901C324.361 183.901 323.05 185.193 323.05 186.789C323.05 188.404 324.361 189.696 325.957 189.696C327.553 189.696 328.845 188.404 328.845 186.789C328.845 185.193 327.553 183.901 325.957 183.901ZM325.957 188.727C324.893 188.727 324.019 187.872 324.019 186.789C324.019 185.744 324.893 184.87 325.957 184.87C327.021 184.87 327.876 185.744 327.876 186.789C327.876 187.872 327.021 188.727 325.957 188.727ZM339.751 179.379V180.823H356.11V179.379H339.751ZM349.061 184.908C351.322 186.447 354.172 188.67 355.502 190.133L356.661 189.05C355.255 187.587 352.348 185.44 350.125 183.996L349.061 184.908ZM348.7 179.873C346.933 183.445 343.399 187.093 339.276 189.164C339.561 189.468 340.017 190.038 340.245 190.399C344.539 188.138 348.092 184.376 350.258 180.443L348.7 179.873ZM347.142 183.673V195.491H348.681V182.153L347.142 183.673ZM366.636 179.797V180.899H378.663V179.797H366.636ZM367.168 189.145V190.228H378.074V189.145H367.168ZM367.586 191.539V192.622H377.656V191.539H367.586ZM366.389 194.066V195.187H378.72V194.066H366.389ZM371.88 182.723V194.674H373.286V182.723H371.88ZM368.821 185.193H376.44V186.979H368.821V185.193ZM367.51 184.167V188.005H377.808V184.167H367.51ZM369.201 178.03V183.236H376.06V178.03H374.673V182.229H370.55V178.03H369.201ZM365.496 178.106C364.432 180.994 362.646 183.844 360.765 185.687C361.031 186.01 361.43 186.77 361.582 187.093C363.634 184.965 365.591 181.754 366.845 178.524L365.496 178.106ZM363.52 183.008V195.491H364.888V181.678L364.85 181.659L363.52 183.008ZM387.46 186.105V187.112H396.542V186.105H387.46ZM398.366 189.297C397.283 190.19 395.383 191.406 394.015 192.109L394.927 192.907C396.333 192.185 398.081 191.14 399.449 190.114L398.366 189.297ZM387.384 183.654V184.737H395.972V188.48H387.384V189.582H397.397V183.654H387.384ZM392.457 178.676L391.336 179.265C393.369 181.469 396.96 183.559 399.962 184.547C400.171 184.186 400.608 183.616 400.931 183.312C397.872 182.476 394.3 180.595 392.457 178.676ZM391.83 177.916C390.101 180.348 386.681 182.343 383.318 183.35C383.66 183.673 384.04 184.186 384.23 184.547C387.745 183.331 391.127 181.222 393.122 178.543L391.83 177.916ZM386.51 195.377C386.51 194.883 387.973 193.952 387.973 193.952V183.654H386.586V192.907C386.586 193.705 386.149 194.104 385.845 194.294C386.073 194.541 386.396 195.073 386.51 195.377ZM386.51 195.377C386.928 195.149 387.631 194.997 392.666 194.028C392.647 193.743 392.647 193.192 392.685 192.831L387.232 193.762L386.453 194.256L386.51 195.377ZM390.937 191.064C393.388 192.356 396.542 194.275 398.119 195.453L399.126 194.484C397.473 193.287 394.281 191.463 391.887 190.247L390.937 191.064ZM389.417 181.811V182.837H394.756V181.811H389.417ZM405.7 181.127V182.495H422.42V181.127H405.7ZM420.767 184.129C419.589 185.573 417.594 187.435 416.131 188.537L417.157 189.392C418.658 188.252 420.558 186.504 421.964 184.984L420.767 184.129ZM415.257 181.83L413.927 182.077C414.877 187.853 416.625 191.71 421.907 195.035C422.078 194.598 422.534 194.066 422.914 193.781C417.879 190.874 416.15 187.34 415.257 181.83ZM413.376 181.488C411.837 184.129 408.569 186.789 405.187 188.29C405.434 188.575 405.833 189.164 405.985 189.506C409.576 187.834 412.882 185.041 414.82 182.039L413.376 181.488ZM409.215 195.472C409.709 195.111 410.45 194.845 416.435 192.945C416.321 192.622 416.169 192.052 416.112 191.634L409.804 193.572L409.101 194.142L409.215 195.472ZM412.73 178.391C413.224 179.265 413.737 180.443 413.927 181.222L415.428 180.709C415.238 179.968 414.687 178.809 414.155 177.954L412.73 178.391ZM409.215 195.472C409.215 194.902 410.925 193.743 410.925 193.743V185.953H409.481V192.66C409.481 193.572 408.816 194.104 408.455 194.332C408.702 194.598 409.082 195.149 409.215 195.472ZM437.012 178.429C437.639 179.436 438.323 180.766 438.589 181.602L439.957 181.051C439.672 180.215 438.95 178.923 438.304 177.954L437.012 178.429ZM432.015 178.106C430.932 180.994 429.165 183.844 427.265 185.687C427.531 186.029 427.968 186.789 428.101 187.131C430.172 185.003 432.129 181.754 433.383 178.543L432.015 178.106ZM429.982 183.008V195.491H431.426V181.602L431.388 181.583L429.982 183.008ZM433.041 181.754V183.122H444.593V181.754H433.041ZM433.687 187.321V188.689H444.042V187.321H433.687ZM432.547 193.496V194.864H444.878V193.496H432.547ZM438.076 182.229V194.313H439.52V182.229H438.076ZM456.905 179.189V180.557H466.234V179.189H456.905ZM462.453 184.851V193.667C462.453 193.99 462.339 194.066 461.959 194.085C461.617 194.104 460.344 194.104 458.995 194.066C459.204 194.484 459.394 195.073 459.451 195.472C461.313 195.472 462.396 195.453 463.042 195.244C463.688 195.016 463.897 194.579 463.897 193.686V184.851H462.453ZM456.069 184.433V185.782H466.785V184.433H456.069ZM452.269 185.896V195.567H453.694V184.737L453.523 184.661L452.269 185.896ZM454.473 182.096C453.162 184.281 451.072 186.485 449.096 187.891C449.4 188.157 449.894 188.784 450.103 189.069C452.098 187.473 454.34 185.022 455.822 182.609L454.473 182.096ZM453.694 178.03C452.725 179.398 450.882 181.108 449.305 182.172C449.552 182.457 449.932 183.008 450.141 183.312C451.832 182.096 453.789 180.253 455.062 178.581L453.694 178.03ZM471.82 179.892V181.165H488.54V179.892H471.82ZM482.061 181.659C483.676 182.799 485.614 184.471 486.526 185.573L487.742 184.737C486.754 183.635 484.778 182.039 483.182 180.956L482.061 181.659ZM473.796 184.946C473.796 184.661 474.765 184.262 474.765 184.262V184.224C476.874 182.78 479.135 180.709 481.13 178.391L479.705 177.802C478.052 179.93 475.715 182.039 474.974 182.59C474.29 183.141 473.796 183.521 473.359 183.578C473.511 183.958 473.72 184.661 473.796 184.946ZM473.796 184.946C474.442 184.718 475.449 184.68 485.652 184.186C485.595 183.92 485.481 183.407 485.443 183.065L474.708 183.502L473.796 183.977V184.946ZM485.044 185.63V193.857C485.044 194.123 484.93 194.237 484.607 194.237C484.284 194.256 483.011 194.256 481.814 194.218C482.004 194.579 482.175 195.073 482.213 195.453C483.904 195.453 485.025 195.453 485.671 195.263C486.336 195.092 486.564 194.712 486.564 193.857V185.63H485.044ZM474.993 185.63V186.846H485.595V185.63H474.993ZM474.176 185.63V189.031C474.176 190.817 473.948 193.097 472.238 194.769C472.561 194.921 473.15 195.396 473.378 195.662C475.24 193.819 475.563 191.102 475.563 189.069V185.63H474.176ZM476.076 191.805L476.532 193.116C479.078 192.641 482.536 191.938 485.785 191.254L485.728 190.247C482.194 190.836 478.394 191.463 476.076 191.805ZM476.19 188.537C478.565 188.917 481.586 189.715 483.163 190.418L483.6 189.373C481.985 188.689 478.983 187.929 476.627 187.625L476.19 188.537ZM493.708 188.708V189.943H510.713V188.708H493.708ZM501.498 187.568V195.491H502.923V187.568H501.498ZM500.985 183.977H503.436V185.972H500.985V183.977ZM500.985 180.956H503.436V182.913H500.985V180.956ZM499.731 179.854V187.074H504.728V179.854H499.731ZM501.669 177.954C501.593 178.6 501.384 179.588 501.175 180.234L502.163 180.481C502.41 179.911 502.714 179.018 503.018 178.201L501.669 177.954ZM508.851 184.756C509.174 185.706 509.535 186.941 509.668 187.777L510.694 187.435C510.523 186.637 510.162 185.421 509.801 184.471L508.851 184.756ZM497.698 184.376C497.964 185.402 498.268 186.713 498.363 187.606L499.389 187.321C499.275 186.466 498.99 185.155 498.686 184.148L497.698 184.376ZM494.354 183.635C494.354 183.369 495.133 183.008 495.133 183.008V182.97C495.969 181.868 496.881 180.196 497.527 178.581L496.368 178.163C495.912 179.702 495 181.336 494.734 181.735C494.468 182.172 494.221 182.457 493.974 182.514C494.107 182.818 494.278 183.388 494.354 183.635ZM494.354 183.635C494.601 183.502 495.076 183.407 497.546 183.084C497.546 182.856 497.565 182.438 497.622 182.134L494.924 182.4L494.335 182.761L494.354 183.635ZM494.316 187.378C494.316 187.131 495.038 186.77 495.038 186.77V186.732C496.52 185.212 498.04 183.065 499.237 180.918L498.173 180.348C497.204 182.438 495.589 184.661 495.114 185.212C494.639 185.782 494.278 186.181 493.936 186.257C494.088 186.561 494.278 187.131 494.316 187.378ZM494.316 187.378C494.639 187.226 495.171 187.093 498.781 186.599C498.762 186.371 498.781 185.934 498.819 185.63L494.905 186.124L494.297 186.504L494.316 187.378ZM505.374 183.825C505.374 183.559 506.153 183.179 506.153 183.179V183.141C507.027 181.982 507.958 180.234 508.623 178.543L507.445 178.144C506.951 179.74 506.039 181.45 505.754 181.868C505.488 182.305 505.241 182.647 504.994 182.685C505.127 182.989 505.317 183.578 505.374 183.825ZM505.374 183.825C505.659 183.692 506.134 183.578 508.946 183.217C508.965 182.97 508.984 182.514 509.041 182.21L505.944 182.552L505.355 182.913L505.374 183.825ZM505.583 187.587C505.583 187.321 506.324 186.96 506.324 186.96V186.922C507.806 185.421 509.326 183.255 510.542 181.127L509.44 180.538C508.471 182.628 506.837 184.813 506.362 185.383C505.906 185.972 505.526 186.352 505.203 186.428C505.336 186.732 505.526 187.34 505.583 187.587ZM505.583 187.587C505.887 187.435 506.438 187.321 510.048 186.865C510.029 186.637 510.067 186.2 510.124 185.896L506.191 186.314L505.545 186.694L505.583 187.587ZM499.313 190.57C498.04 191.919 495.532 193.154 493.328 193.705C493.651 193.971 494.069 194.503 494.278 194.883C496.539 194.18 499.104 192.717 500.51 191.045L499.313 190.57ZM504.158 191.349C506.115 192.394 508.585 193.952 509.782 194.997L510.675 193.933C509.421 192.907 506.913 191.406 504.994 190.437L504.158 191.349ZM518.085 189.24V190.513H530.359V189.24H518.085ZM518.921 185.041V186.333H529.618V185.041H518.921ZM516.204 193.705V194.997H532.392V193.705H516.204ZM523.443 185.573V194.427H524.944V185.573H523.443ZM519.168 178.562V179.892H524.849V178.562H519.168ZM523.405 178.562V179.379H523.861C525.799 182.115 529.029 184.832 532.126 186.295C532.335 185.915 532.81 185.326 533.095 185.041C530.074 183.768 526.787 181.203 525.001 178.562H523.405ZM523.671 178.562C521.923 181.032 518.351 183.901 515.463 185.269C515.786 185.573 516.166 186.067 516.356 186.428C519.263 184.851 522.835 181.868 524.716 179.284L523.671 178.562ZM538.624 187.967V189.221H547.535V187.967H538.624ZM542.367 185.915V193.268H543.716V185.915H542.367ZM537.978 193.211L538.301 194.56C540.79 194.085 544.419 193.382 547.801 192.717L547.725 191.463C544.153 192.147 540.372 192.831 537.978 193.211ZM538.13 179.284V180.557H547.915V179.284H538.13ZM544.001 181.792C545.046 183.103 546.281 184.889 546.832 185.991L547.915 185.269C547.364 184.186 546.091 182.457 545.027 181.165L544.001 181.792ZM548.979 179.683V191.197H550.309V179.683H548.979ZM552.741 178.353V193.287C552.741 193.61 552.646 193.705 552.323 193.724C551.981 193.724 550.936 193.724 549.834 193.686C550.043 194.085 550.29 194.731 550.347 195.111C551.734 195.111 552.741 195.073 553.349 194.845C553.9 194.617 554.128 194.18 554.128 193.287V178.353H552.741ZM539.042 185.649C539.042 185.345 539.935 184.908 539.935 184.908V184.889C540.98 183.673 542.12 181.887 542.937 180.158L541.55 179.607C540.923 181.279 539.84 183.008 539.498 183.464C539.156 183.92 538.871 184.262 538.586 184.319C538.757 184.68 538.966 185.345 539.042 185.649ZM539.042 185.649C539.517 185.44 540.277 185.364 546.775 184.737C546.604 184.452 546.319 183.996 546.167 183.635L539.783 184.167L539.023 184.623L539.042 185.649ZM102.992 229.488V230.875H113.347V229.488H102.992ZM104.246 232.319C104.835 234.979 105.386 238.475 105.538 240.47L106.963 240.071C106.754 238.133 106.165 234.694 105.538 232.034L104.246 232.319ZM110.706 231.882C110.326 234.827 109.528 239.045 108.806 241.591L110.06 241.895C110.801 239.349 111.656 235.283 112.207 232.129L110.706 231.882ZM102.194 241.363V242.731H114.126V241.363H102.194ZM106.811 226.258C107.172 227.208 107.571 228.481 107.723 229.279L109.129 228.88C108.939 228.063 108.521 226.847 108.16 225.897L106.811 226.258ZM101.434 226.106C100.351 228.994 98.584 231.844 96.703 233.687C96.969 234.01 97.387 234.77 97.52 235.093C99.591 232.965 101.529 229.754 102.764 226.524L101.434 226.106ZM99.401 231.008V243.491H100.826V229.602V229.583L99.401 231.008ZM125.982 238.418C127.977 237.734 129.269 236.176 129.269 234.124C129.269 232.794 128.699 231.92 127.635 231.92C126.875 231.92 126.191 232.395 126.191 233.288C126.191 234.181 126.837 234.656 127.616 234.656C127.977 234.656 128.357 234.561 128.623 234.219L127.597 232.775L127.958 234.371C127.958 235.815 127.103 236.784 125.545 237.411L125.982 238.418ZM141.296 227.056V228.348H157.845V227.056H141.296ZM148.953 227.607V234.96C148.953 238.114 148.364 240.907 140.954 242.275C141.258 242.617 141.657 243.225 141.809 243.529C149.428 241.914 150.435 238.646 150.435 234.979V227.607H148.953ZM144.393 234.181H155.223V236.119H144.393V234.181ZM144.393 231.141H155.223V233.041H144.393V231.141ZM143.044 229.944V237.316H156.667V229.944H143.044ZM144.868 237.468L143.652 237.962C146.198 242.275 150.872 243.168 157.864 243.453C157.94 242.997 158.225 242.389 158.472 242.047C151.613 241.876 147.281 241.23 144.868 237.468ZM163.108 241.42V242.788H180.151V241.42H163.108ZM164.476 236.423V237.791H178.859V236.423H164.476ZM170.841 226.277V241.952H172.304V226.277H170.841ZM166.737 226.923C166.11 230.134 164.837 232.832 162.823 234.485C163.127 234.713 163.697 235.226 163.944 235.492C166.015 233.611 167.44 230.704 168.162 227.151L166.737 226.923ZM166.129 231.008C167.25 232.091 168.675 233.63 169.34 234.58L170.309 233.554C169.625 232.642 168.2 231.179 167.06 230.115L166.129 231.008ZM176.047 226.98C175.439 229.982 174.166 232.509 172.171 234.067C172.494 234.295 173.064 234.808 173.273 235.055C175.325 233.288 176.75 230.552 177.472 227.208L176.047 226.98ZM175.097 231.008C176.522 232.338 178.289 234.238 179.125 235.397L180.132 234.371C179.258 233.25 177.453 231.445 176.066 230.134L175.097 231.008ZM190.107 228.139V229.412H202.229V228.139H190.107ZM196.32 229.83C195.788 231.692 194.876 233.554 193.812 234.789C194.078 234.96 194.534 235.378 194.743 235.568C195.826 234.2 196.833 232.167 197.46 230.115L196.32 229.83ZM196.472 231.958H196.225L195.313 233.022V243.301H196.472V233.098H202.058V231.958H196.472ZM195.921 235.017V236.062H201.735V235.017H195.921ZM195.921 237.943V238.969H201.659V237.943H195.921ZM195.845 241.192V242.332H202.286V241.192H195.845ZM198.524 232.547V241.705H199.683V232.547H198.524ZM193.793 235.948C193.261 238.912 191.817 241.135 189.423 242.503C189.689 242.693 190.088 243.13 190.259 243.377C192.729 241.857 194.23 239.387 194.857 236.138L193.793 235.948ZM190.202 239.178C190.202 238.912 191.057 238.532 191.057 238.532V238.494C192.292 236.917 193.527 234.656 194.477 232.509L193.394 231.92C192.615 234.086 191.266 236.385 190.848 236.955C190.468 237.563 190.145 237.981 189.822 238.057C189.955 238.361 190.145 238.931 190.202 239.178ZM190.202 239.178C190.487 238.969 191 238.798 193.983 237.981C193.945 237.715 193.907 237.202 193.907 236.86L190.677 237.62L190.126 238.095L190.202 239.178ZM190.107 234.884C190.107 234.618 190.829 234.238 190.829 234.238V234.2C191.551 233.155 192.349 231.635 192.862 230.172L191.703 229.64C191.342 231.084 190.601 232.604 190.373 232.984C190.164 233.402 189.936 233.668 189.708 233.725C189.841 234.029 190.05 234.637 190.107 234.884ZM190.107 234.884C190.392 234.751 190.886 234.637 193.413 234.314C193.394 234.029 193.451 233.516 193.489 233.174L190.734 233.44L190.088 233.858L190.107 234.884ZM194.648 226.543C195.085 227.265 195.56 228.253 195.712 228.899L196.833 228.424C196.624 227.797 196.168 226.828 195.674 226.125L194.648 226.543ZM198.22 230.286C198.638 231.008 199.037 231.996 199.208 232.623L200.253 232.205C200.082 231.597 199.645 230.628 199.208 229.925L198.22 230.286ZM184.882 236.119L185.281 237.487C186.668 236.974 188.359 236.29 189.974 235.663L189.727 234.371C187.922 235.036 186.117 235.72 184.882 236.119ZM185.072 229.868V231.198H189.822V229.868H185.072ZM187.029 226.049V241.781C187.029 242.028 186.953 242.085 186.725 242.085C186.516 242.104 185.851 242.104 185.091 242.085C185.262 242.465 185.433 243.016 185.49 243.358C186.592 243.358 187.257 243.32 187.694 243.111C188.131 242.883 188.283 242.503 188.283 241.781V226.049H187.029ZM212.641 235.701C213.135 236.195 213.686 236.879 213.952 237.335L214.788 236.746C214.541 236.328 213.952 235.644 213.477 235.207L212.641 235.701ZM207.112 237.164V238.38H215.434V237.164H207.112ZM207.131 230.248V231.426H215.244V230.248H207.131ZM213.8 226.733C213.553 227.436 213.078 228.481 212.717 229.146L213.667 229.488C214.085 228.88 214.56 227.968 214.997 227.113L213.8 226.733ZM210.646 226.125V235.017H211.9V226.125H210.646ZM207.549 227.113C208.043 227.835 208.48 228.785 208.651 229.412L209.715 228.975C209.544 228.348 209.069 227.417 208.575 226.733L207.549 227.113ZM210.627 239.957C211.843 240.755 213.42 241.914 214.199 242.617L214.997 241.629C214.199 240.945 212.584 239.843 211.406 239.064L210.627 239.957ZM212.964 232.072L212.223 232.623C212.793 233.117 214.199 234.504 214.674 235.093L215.472 234.143C215.092 233.763 213.458 232.395 212.964 232.072ZM209.24 231.996C208.746 233.06 207.758 234.257 206.808 234.808C207.074 235.017 207.473 235.435 207.663 235.739C208.651 234.998 209.639 233.611 210.152 232.338L209.24 231.996ZM215.491 226.942V228.196H224.364V226.942H215.491ZM217.562 234.01H222.255V235.834H217.562V234.01ZM217.562 236.898H222.255V238.779H217.562V236.898ZM217.562 231.122H222.255V232.927H217.562V231.122ZM216.251 230.001V239.9H223.623V230.001H216.251ZM219.044 227.55C218.911 228.443 218.607 229.735 218.341 230.571L219.557 230.818C219.88 230.039 220.26 228.861 220.583 227.759L219.044 227.55ZM218.227 240.299C217.562 241.097 216.156 242.085 214.902 242.617C215.206 242.883 215.624 243.301 215.852 243.567C217.125 242.997 218.588 241.971 219.462 241.021L218.227 240.299ZM220.355 241.04C221.457 241.781 222.882 242.845 223.547 243.548L224.668 242.75C223.908 242.028 222.502 241.021 221.381 240.337L220.355 241.04ZM210.551 235.435V237.316C210.551 238.988 210.209 240.945 206.865 242.351C207.112 242.617 207.473 243.092 207.606 243.396C211.349 241.762 211.805 239.425 211.805 237.354V235.435H210.551ZM229.228 241.743V242.921H246.271V241.743H229.228ZM229.323 229.412V230.59H246.157V229.412H229.323ZM230.634 238.969V240.109H245.055V238.969H230.634ZM236.942 227.493V242.313H238.367V227.493H236.942ZM243.554 226.144C240.552 226.695 235.175 227.037 230.748 227.151C230.881 227.455 231.052 227.949 231.052 228.291C235.498 228.196 240.913 227.873 244.314 227.246L243.554 226.144ZM232.629 235.15H242.908V236.613H232.629V235.15ZM232.629 232.756H242.908V234.2H232.629V232.756ZM231.242 231.73V237.639H244.352V231.73H231.242ZM262.744 228.329V238.855H264.074V228.329H262.744ZM266.354 226.391V241.724C266.354 242.028 266.24 242.123 265.936 242.142C265.632 242.161 264.644 242.161 263.542 242.123C263.732 242.522 263.922 243.149 263.979 243.51C265.518 243.529 266.411 243.472 266.962 243.244C267.494 243.016 267.722 242.617 267.722 241.724V226.391H266.354ZM251.059 229.108V230.096H262.022V229.108H251.059ZM252.085 232.87V233.782H261.11V232.87H252.085ZM251.173 234.656V235.663H261.908V234.656H251.173ZM255.961 236.784V240.413H257.177V236.784H255.961ZM255.809 226.049V235.283H257.101V226.049H255.809ZM251.04 241.895L251.154 243.054C253.871 242.94 258.032 242.712 261.965 242.503L262.003 241.382C257.937 241.61 253.7 241.8 251.04 241.895ZM252.275 227.265V228.177H259.609V231.122H252.218V232.034H260.863V227.265H252.275ZM253.472 238.969H259.628V239.9H253.472V238.969ZM253.472 237.278H259.628V238.19H253.472V237.278ZM252.313 236.48V240.698H260.844V236.48H252.313ZM283.606 235.15V236.404H290.427V235.15H283.606ZM273.65 231.369V232.452H281.991V231.369H273.65ZM273.213 239.71V240.831H282.105V239.71H273.213ZM275.094 236.499H280.566V237.677H275.094V236.499ZM275.094 234.523H280.566V235.682H275.094V234.523ZM273.954 233.611V238.589H281.725V233.611H273.954ZM286.798 235.625V243.51H288.128V235.625H286.798ZM277.165 230.096V234.067H277.26V238.038H278.343V234.067H278.438V230.096H277.165ZM277.165 238.057V243.51H278.438V238.057H277.165ZM274.258 226.524V229.735H289.344V226.524H287.862V228.538H275.683V226.524H274.258ZM281.06 226.03V229.374H282.523V226.03H281.06ZM289.154 230.324C287.691 230.837 285.145 231.217 283.036 231.445C283.169 231.768 283.34 232.224 283.378 232.547C285.525 232.376 288.147 232.015 289.876 231.464L289.154 230.324ZM283.036 231.445V235.473C283.036 237.62 282.865 240.565 281.497 242.693C281.744 242.845 282.295 243.301 282.523 243.548C284.024 241.268 284.309 237.848 284.309 235.473V231.445H283.036ZM305.703 232.452V233.782H312.562V232.452H305.703ZM295.519 228.025V229.241H303.898V228.025H295.519ZM295.31 235.568V236.803H303.993V235.568H295.31ZM295.215 232.376V233.592H304.202V232.376H295.215ZM309.085 233.022V243.434H310.472V233.022H309.085ZM296.754 229.621C297.096 230.457 297.381 231.578 297.476 232.3L298.692 231.958C298.597 231.255 298.274 230.172 297.913 229.355L296.754 229.621ZM301.523 229.336C301.257 230.286 300.782 231.711 300.383 232.585L301.561 232.87C301.96 232.034 302.435 230.742 302.834 229.621L301.523 229.336ZM311.08 226.372C309.712 226.961 307.28 227.512 305.133 227.873C305.304 228.177 305.513 228.652 305.589 228.956C307.831 228.633 310.434 228.101 312.239 227.436L311.08 226.372ZM298.426 226.296C298.863 227.094 299.338 228.158 299.547 228.823L301.01 228.386C300.801 227.74 300.288 226.695 299.832 225.935L298.426 226.296ZM305.133 227.873V234.447C305.133 236.993 305 240.261 303.385 242.56C303.689 242.731 304.24 243.168 304.468 243.434C306.216 240.945 306.463 237.183 306.463 234.447V227.873H305.133ZM301.39 238.209C301.96 239.159 302.644 240.47 302.948 241.287L303.955 240.698C303.67 239.881 302.986 238.646 302.359 237.696L301.39 238.209ZM297.001 237.81C296.583 239.064 295.937 240.375 295.196 241.268C295.481 241.42 295.975 241.781 296.184 241.971C296.925 241.002 297.704 239.501 298.16 238.133L297.001 237.81ZM299.129 233.003V243.434H300.516V233.003H299.129ZM322.29 228.443V229.659H328.712V228.443H322.29ZM329.567 227.151V228.443H334.374V227.151H329.567ZM329.396 232.262V233.554H334.621V232.262H329.396ZM321.891 232.224V233.478H329.073V232.224H321.891ZM324.817 226.03V232.946H326.166V226.03H324.817ZM322.005 236.233V237.487H328.94V236.233H322.005ZM324.798 233.877V241.116L326.147 240.85V233.877H324.798ZM321.492 240.812L321.644 242.142C323.734 241.876 326.641 241.515 329.434 241.135L329.415 239.881C326.489 240.261 323.487 240.622 321.492 240.812ZM331.448 232.775V241.762C331.448 242.028 331.372 242.085 331.087 242.104C330.783 242.123 329.89 242.123 328.845 242.085C329.035 242.503 329.206 243.13 329.282 243.51C330.65 243.51 331.562 243.491 332.132 243.263C332.683 243.035 332.835 242.598 332.835 241.781V232.775H331.448ZM320.371 226.049C319.668 227.341 318.281 228.899 316.97 229.868C317.217 230.134 317.578 230.628 317.768 230.932C319.193 229.811 320.751 228.082 321.682 226.524L320.371 226.049ZM319.231 233.611V243.529H320.561V232.528L320.39 232.471L319.231 233.611ZM320.922 229.868C319.953 231.958 318.338 233.991 316.704 235.321C316.97 235.625 317.388 236.29 317.54 236.575C319.288 235.036 321.093 232.661 322.214 230.305L320.922 229.868ZM342.525 230.628V231.692H350.049V230.628H342.525ZM342.943 236.575V237.563H348.909V236.575H342.943ZM350.809 230.096V243.548H352.063V231.274H355.54V230.096H350.809ZM344.463 233.421H348.206V234.827H344.463V233.421ZM343.342 232.566V235.663H349.384V232.566H343.342ZM342.107 239.463L342.202 240.603C344.311 240.47 347.332 240.28 350.239 240.071V239.026C347.199 239.216 344.102 239.387 342.107 239.463ZM345.736 238.513V242.028C345.736 242.218 345.66 242.275 345.432 242.294C345.223 242.313 344.444 242.313 343.589 242.275C343.722 242.579 343.912 242.997 343.95 243.301C345.147 243.301 345.888 243.301 346.363 243.149C346.857 242.959 346.971 242.674 346.971 242.066V238.513H345.736ZM348.415 236.556V236.803C347.826 237.373 346.724 238.095 345.736 238.513C345.907 238.665 346.192 238.95 346.325 239.159C347.56 238.684 348.852 237.924 349.764 237.107L349.023 236.499L348.757 236.556H348.415ZM341.309 227.645V228.88H356.471V227.645H341.309ZM340.511 227.645V233.516C340.511 236.252 340.397 240.052 339.048 242.75C339.352 242.902 339.922 243.32 340.15 243.567C341.613 240.698 341.841 236.423 341.841 233.516V227.645H340.511ZM355.084 230.096V230.419C354.628 231.654 353.868 233.592 353.089 235.169C354.609 236.556 355.027 237.715 355.027 238.684C355.027 239.235 354.913 239.691 354.59 239.9C354.419 239.995 354.191 240.052 353.944 240.071C353.602 240.09 353.165 240.071 352.671 240.033C352.899 240.394 353.032 240.926 353.051 241.287C353.545 241.306 354.077 241.306 354.495 241.268C354.894 241.211 355.236 241.116 355.521 240.907C356.11 240.508 356.338 239.767 356.338 238.779C356.338 237.677 355.92 236.461 354.419 235.017C355.122 233.649 355.901 231.977 356.49 230.571L355.559 230.039L355.331 230.096H355.084ZM347.237 226.334C347.636 226.98 348.035 227.854 348.187 228.405L349.631 227.949C349.46 227.398 349.023 226.562 348.624 225.935L347.237 226.334ZM345.071 229.355C345.432 229.982 345.831 230.799 345.983 231.35L347.351 230.913C347.199 230.381 346.762 229.564 346.382 228.975L345.071 229.355ZM370.037 231.901C368.441 231.901 367.13 233.193 367.13 234.789C367.13 236.404 368.441 237.696 370.037 237.696C371.633 237.696 372.925 236.404 372.925 234.789C372.925 233.193 371.633 231.901 370.037 231.901ZM370.037 236.727C368.973 236.727 368.099 235.872 368.099 234.789C368.099 233.744 368.973 232.87 370.037 232.87C371.101 232.87 371.956 233.744 371.956 234.789C371.956 235.872 371.101 236.727 370.037 236.727Z" fill="black"/>
<path d="M106.2 11.2302V41.1402H102.21V18.0502C100.52 20.5202 98.69 22.7402 96.83 24.5602L95.74 23.3902C100.04 17.7502 103.85 8.89016 105.68 0.160156L110.06 1.38016C109.02 4.90016 107.72 8.20016 106.2 11.2302ZM134.76 34.7202V37.3202H108.15V34.7202H134.76ZM132.33 11.4902H111.02V9.06016H132.34V11.4902H132.33Z" fill="#D08421"/>
<path d="M150.56 18.3498V40.9198H146.83V23.1298C145.53 24.5598 144.09 25.8598 142.62 26.9098L141.67 25.6998C145.32 21.5798 148.66 15.1098 150.48 9.11979L154.73 10.8598C153.73 13.1198 152.34 15.7698 150.56 18.3698V18.3498ZM142.66 14.3098L141.7 13.0898C145.04 9.39979 147.39 4.75979 148.95 0.279785L153.12 2.09979C150.65 6.56979 146.61 11.6498 142.66 14.2998V14.3098ZM157.03 28.2898C157.2 32.2798 156.51 36.5398 155.25 39.1398L151.39 37.1898C153.43 34.8898 154.82 32.0198 155.51 28.1198L157.03 28.2898ZM180.6 24.5598H153.16V22.6098H180.6V24.5598ZM164.54 7.36979H153.73V5.41979H164.54V0.769785H168.36V5.41979H179.82V7.36979H168.36V10.4498H177.69V20.5198H155.77V10.4498H164.54V7.36979ZM173.79 30.7298C176.39 38.2398 174.14 39.5398 170.75 39.7598C168.75 39.8898 166.37 39.8898 164.33 39.7998C160.08 39.6298 158.95 39.1498 158.95 35.3298V26.8698H162.68V34.4198C162.68 35.9798 163.03 36.3298 164.89 36.4598C166.5 36.5898 168.93 36.5498 170.53 36.3298C172.01 36.1098 172.4 35.7698 172.22 30.7298H173.78H173.79ZM162.16 12.4098H159.42V18.5698H162.16V12.4098ZM164.72 24.9998C166.72 26.0898 169.67 28.2998 171.41 30.3398L168.5 32.9398C167.02 30.4198 165.46 28.2498 163.72 26.1198L164.72 24.9898V24.9998ZM165.2 18.5798H168.02V12.4198H165.2V18.5798ZM171.06 18.5798H174.06V12.4198H171.06V18.5798ZM181.22 36.1598L177.62 37.6398C176.84 34.7698 175.36 30.8698 174.02 27.8698L175.37 27.1298C177.93 29.7798 180.06 33.3398 181.23 36.1598H181.22Z" fill="#D08421"/>
<path d="M209.46 9.5V16.62H222.01V32.12C222.01 36.76 217.28 37.55 211.55 33.55L211.98 32.07C217.23 33.2 218.01 32.81 218.01 30.86V18.57H209.46V41.27H205.38V18.57H197V37.28H193.01V16.62H205.38V9.5H188.41V7.33H207.51C205.47 5.16 203.08 2.99 201.26 1.43L201.95 0C204.9 0.96 208.55 2.78 211.15 4.6L209.02 7.34H226.34V9.51H209.45L209.46 9.5Z" fill="#D08421"/>
<path d="M255.08 31.5901C249.87 34.2401 240.23 37.4501 235.07 38.7101L233.59 34.3701C234.63 34.2801 235.85 34.1101 237.19 33.8901V13.6201H240.66V33.3301C241.79 33.1601 242.92 32.9401 244.09 32.7201V6.94008H235.19V4.99008H255.2V6.94008H247.91V16.6201H252.64V18.5701H247.91V31.9001C250.38 31.3401 252.69 30.7301 254.47 30.1201L255.08 31.6001V31.5901ZM273.31 37.3201L270.44 41.4001C266.49 38.7101 263.41 35.8001 261.15 32.2001C257.76 35.9301 253.21 38.8801 247.3 41.2701L246.56 39.8801C252.46 36.8801 256.68 33.4601 259.54 29.2401C257.93 25.8101 256.89 21.7701 256.46 16.8701C255.24 19.3001 253.94 21.6001 252.51 23.5101L251.16 22.6801C254.37 17.0401 256.28 7.62008 256.89 0.580078L261.4 1.27008C260.97 4.05008 260.19 7.09008 259.14 10.1301H271.6V12.0801H268.65C268.17 19.0701 266.48 24.7101 263.4 29.2701C265.87 32.5701 269.17 35.0401 273.3 37.3001L273.31 37.3201ZM261.33 26.1201C263.33 22.1701 264.37 17.5701 264.76 12.1001H258.47C258.25 12.7101 258.04 13.2701 257.77 13.8401C258.38 18.8801 259.59 22.8701 261.33 26.1301V26.1201Z" fill="#D08421"/>
<path d="M318.32 36.7599V39.1499H280.38V36.7599H286.89V14.4899H290.88V36.7599H298.95V6.10994H282.54V3.93994H316.7V6.10994H303.11V19.3499H314.92V21.2999H303.11V36.7499H318.3L318.32 36.7599Z" fill="#D08421"/>
<path d="M336.77 17.9201V41.2301H333.04V20.8701C331.69 24.3401 329.35 28.6001 326.79 31.5101L325.62 30.4701C327.88 27.1301 330.96 20.1401 332.44 12.5901H326.67V10.6401H333.05V0.690098H336.78V10.6301H342.55V12.6301H336.78V15.0201C338.86 17.0601 341.21 19.4901 342.77 22.4901L339.43 24.4401C338.69 22.4001 337.69 19.9701 336.78 17.9301L336.77 17.9201ZM361.6 41.5401C360.17 38.9801 357.91 35.7201 355.35 32.5501C350.71 36.9801 345.32 40.0601 339.16 41.6201L338.55 40.1901C347.36 36.9301 354.22 30.3401 359.26 20.5701L363.17 22.8301C361.22 26.0001 359.05 28.8201 356.7 31.2501C360.17 33.5501 363.04 36.0201 365.03 38.5001L361.6 41.5401ZM349.18 9.8501H341.41V7.9001H352.96C351.53 5.9001 349.62 3.4701 347.88 1.6101L348.84 0.350098C351.53 1.7801 354.4 3.6101 356.44 5.6001L354.18 7.9001H364.69V9.8501H353.66C351.71 12.8501 349.28 15.7501 347.49 17.4901C349.75 17.5301 351.87 17.4501 354.26 17.2701C355.04 15.9201 355.78 14.4901 356.47 12.9301L360.46 15.0101C355.08 24.1701 348.52 29.7701 340.62 32.8101L339.88 31.4201C344.87 28.8201 349.39 24.8701 353.03 19.2201C348.65 20.4401 345.39 20.9601 343 21.2601L342.04 17.1401C343.3 17.2701 344.47 17.3601 345.6 17.4001C346.73 15.4901 348.2 12.4501 349.16 9.8501H349.18Z" fill="#D08421"/>
<path d="M378.56 16.1798L380.12 16.3998C380.03 23.6498 378.86 28.9498 376.73 33.1998L372 30.5998C375.08 26.8198 376.99 23.3898 378.55 16.1898L378.56 16.1798ZM383.77 33.3698V10.1098H387.94V32.5498C387.94 34.8098 388.37 35.3298 390.81 35.4998C392.46 35.6298 394.37 35.6698 396.28 35.4998C399.45 35.2398 400.01 34.5398 399.97 26.2998H401.62C404.66 36.1998 403.57 38.7998 397.67 39.3698C395.02 39.6298 392.55 39.5398 390.16 39.3698C384.95 38.9798 383.78 38.7198 383.78 33.3798L383.77 33.3698ZM385.72 2.02977L386.55 0.509766C391.8 2.41977 396.19 4.84977 399.79 7.92977L396.36 11.8398C392.76 7.71977 389.85 5.10977 385.72 2.02977ZM401.04 15.6198L402.47 14.7498C406.2 18.9998 409.46 24.2098 411.28 28.7698L406.46 30.7698C404.98 25.3898 403.42 20.6098 401.03 15.6198H401.04Z" fill="#D08421"/>
<path d="M102.41 77.6897H100.7C100.44 77.0497 100.32 76.4397 100.2 75.3597C100.07 74.3297 99.69 73.6697 98.8 73.6197C98.56 73.6097 98.32 73.6097 98.08 73.6097H96.56V77.6897H95V67.9097H98.37C98.89 67.9097 99.25 67.9097 99.72 67.9697C101.14 68.1497 102.2 68.9097 102.2 70.5797C102.2 71.8597 101.42 72.6097 100.39 72.9197C101.27 73.2997 101.64 74.1497 101.74 75.1697C101.85 76.3997 102.02 77.1497 102.42 77.6897H102.41ZM98.19 72.3997C98.59 72.3997 98.83 72.3997 99.07 72.3697C99.92 72.2897 100.56 71.7997 100.56 70.7697C100.56 69.7397 100.04 69.3097 99.2 69.1997C98.95 69.1597 98.69 69.1397 98.29 69.1397H96.56V72.3997H98.19Z" fill="#969696"/>
<path d="M112.35 74.36H106.95C107.08 76.16 107.9 76.76 108.92 76.76C109.83 76.76 110.54 76.21 110.69 75.26H112.26C111.93 77.05 110.5 77.9 108.86 77.9C106.85 77.9 105.33 76.62 105.33 73.96C105.33 71.58 106.85 69.98 109.02 69.98C111.19 69.98 112.38 71.62 112.38 73.75C112.38 73.89 112.38 74.1 112.35 74.37V74.36ZM106.96 73.27H110.77C110.66 71.88 110.05 71.1 108.96 71.1C107.87 71.1 107.13 71.82 106.96 73.27Z" fill="#969696"/>
<path d="M122.82 73.46V77.7H121.26V73.63C121.26 73.28 121.26 72.95 121.23 72.57C121.16 71.72 120.71 71.12 119.64 71.12C118.57 71.12 117.68 71.97 117.68 74.32V77.69H116.12V70.16H117.68V71.41L118.19 70.54C118.78 70.09 119.34 69.96 120.09 69.96C121.71 69.96 122.63 70.8 122.77 72.11C122.8 72.49 122.81 72.83 122.81 73.44L122.82 73.46Z" fill="#969696"/>
<path d="M140.89 72.6899C140.89 75.6099 139.16 77.3499 136.89 77.6399C136.39 77.6999 136.17 77.6999 135.64 77.6999H132.54V67.9199H135.7C136.22 67.9199 136.45 67.9199 136.95 67.9799C139.22 68.2499 140.89 69.7399 140.89 72.6999V72.6899ZM139.22 72.6899C139.22 70.6299 138.24 69.4399 136.68 69.2199C136.37 69.1599 136.03 69.1499 135.56 69.1499H134.1V76.4499H135.5C135.98 76.4499 136.31 76.4499 136.62 76.3899C138.19 76.1599 139.21 74.8599 139.21 72.6899H139.22Z" fill="#969696"/>
<path d="M151.08 74.36H145.68C145.81 76.16 146.63 76.76 147.65 76.76C148.56 76.76 149.27 76.21 149.42 75.26H150.99C150.66 77.05 149.23 77.9 147.59 77.9C145.58 77.9 144.06 76.62 144.06 73.96C144.06 71.58 145.58 69.98 147.75 69.98C149.92 69.98 151.11 71.62 151.11 73.75C151.11 73.89 151.11 74.1 151.08 74.37V74.36ZM145.69 73.27H149.5C149.39 71.88 148.78 71.1 147.69 71.1C146.6 71.1 145.86 71.82 145.69 73.27Z" fill="#969696"/>
<path d="M168.53 71.06V71.2H167L166.97 71.06C166.7 69.74 165.89 68.9 164.42 68.9C162.61 68.9 161.46 70.46 161.46 72.77C161.46 75.19 162.62 76.7 164.35 76.7C165.82 76.7 166.63 75.83 166.9 74.52L166.93 74.38H168.47V74.52C168.26 76.43 166.83 77.89 164.27 77.89C161.48 77.89 159.76 75.82 159.76 72.84C159.76 69.86 161.69 67.71 164.44 67.71C166.99 67.71 168.32 69.13 168.52 71.06H168.53Z" fill="#969696"/>
<path d="M174.06 68.4398C174.06 68.9598 173.66 69.3498 173.14 69.3498C172.62 69.3498 172.23 68.9698 172.23 68.4398C172.23 67.9098 172.61 67.5498 173.14 67.5498C173.67 67.5498 174.06 67.9298 174.06 68.4398ZM172.36 77.6998V70.1698H173.92V77.6998H172.36Z" fill="#969696"/>
<path d="M180.04 75.2597C180.04 75.5197 180.04 75.6897 180.05 75.8797C180.11 76.6197 180.39 76.7697 181.41 76.6697V77.7497C181.01 77.8097 180.64 77.8397 180.26 77.8397C179.08 77.8397 178.57 77.3997 178.5 76.4097C178.49 76.1597 178.49 75.8297 178.49 75.3997V71.3197H177.43V70.2297H178.49V68.4297H180.03V70.2297H181.5V71.3197H180.03V75.2597H180.04Z" fill="#969696"/>
<path d="M188.73 78.1797C188.03 79.9697 187.23 80.6697 185.87 80.6697C185.56 80.6697 185.36 80.6697 185.13 80.6297V79.4797C185.31 79.4897 185.47 79.4897 185.63 79.4897C186.34 79.4897 186.82 79.1897 187.16 78.3097L187.27 78.0397L184.24 70.1597H185.98L188.05 76.5297L190.11 70.1597H191.8L188.74 78.1697L188.73 78.1797Z" fill="#969696"/>
<path d="M208.74 71.06V71.2H207.21L207.18 71.06C206.91 69.74 206.1 68.9 204.63 68.9C202.82 68.9 201.67 70.46 201.67 72.77C201.67 75.19 202.83 76.7 204.56 76.7C206.03 76.7 206.84 75.83 207.11 74.52L207.14 74.38H208.68V74.52C208.47 76.43 207.04 77.89 204.48 77.89C201.69 77.89 199.97 75.82 199.97 72.84C199.97 69.86 201.9 67.71 204.65 67.71C207.2 67.71 208.53 69.13 208.73 71.06H208.74Z" fill="#969696"/>
<path d="M219.02 74.36H213.62C213.75 76.16 214.57 76.76 215.59 76.76C216.5 76.76 217.21 76.21 217.36 75.26H218.93C218.6 77.05 217.17 77.9 215.53 77.9C213.52 77.9 212 76.62 212 73.96C212 71.58 213.52 69.98 215.69 69.98C217.86 69.98 219.05 71.62 219.05 73.75C219.05 73.89 219.05 74.1 219.02 74.37V74.36ZM213.63 73.27H217.44C217.33 71.88 216.72 71.1 215.63 71.1C214.54 71.1 213.8 71.82 213.63 73.27Z" fill="#969696"/>
<path d="M229.49 73.46V77.7H227.93V73.63C227.93 73.28 227.93 72.95 227.9 72.57C227.83 71.72 227.38 71.12 226.31 71.12C225.24 71.12 224.35 71.97 224.35 74.32V77.69H222.79V70.16H224.35V71.41L224.86 70.54C225.46 70.09 226.01 69.96 226.76 69.96C228.38 69.96 229.3 70.8 229.44 72.11C229.47 72.49 229.48 72.83 229.48 73.44L229.49 73.46Z" fill="#969696"/>
<path d="M235.51 75.2597C235.51 75.5197 235.51 75.6897 235.52 75.8797C235.58 76.6197 235.86 76.7697 236.88 76.6697V77.7497C236.48 77.8097 236.12 77.8397 235.73 77.8397C234.55 77.8397 234.04 77.3997 233.97 76.4097C233.96 76.1597 233.96 75.8297 233.96 75.3997V71.3197H232.9V70.2297H233.96V68.4297H235.5V70.2297H236.97V71.3197H235.5V75.2597H235.51Z" fill="#969696"/>
<path d="M246.95 74.36H241.55C241.68 76.16 242.5 76.76 243.52 76.76C244.43 76.76 245.14 76.21 245.29 75.26H246.86C246.53 77.05 245.1 77.9 243.46 77.9C241.45 77.9 239.93 76.62 239.93 73.96C239.93 71.58 241.45 69.98 243.62 69.98C245.79 69.98 246.98 71.62 246.98 73.75C246.98 73.89 246.98 74.1 246.95 74.37V74.36ZM241.56 73.27H245.37C245.26 71.88 244.65 71.1 243.56 71.1C242.47 71.1 241.73 71.82 241.56 73.27Z" fill="#969696"/>
<path d="M254.62 70.07V71.29C253.19 71.19 252.29 71.93 252.29 73.79V77.7H250.73V70.17H252.29V71.45L252.93 70.41C253.27 70.14 253.71 69.98 254.09 69.98C254.3 69.98 254.46 70.01 254.61 70.07H254.62Z" fill="#969696"/>
<line x1="1" y1="3" x2="0.999989" y2="255" stroke="#D68F41" stroke-width="2"/>
</svg>
