<svg width="60" height="406" viewBox="0 0 60 406" fill="none" xmlns="http://www.w3.org/2000/svg">
<path d="M14.2202 0H59.0202V4.78H14.2202V0Z" fill="#D68F41"/>
<path d="M14.2202 36.7499H33.2902C38.7602 36.7499 41.5302 33.7899 41.5302 29.1399C41.5302 24.4899 38.7002 21.4599 33.2902 21.4599H14.2202V16.9299H45.1802V21.4599H41.7802C44.3002 23.6599 45.5602 26.6799 45.5602 30.1399C45.5602 33.5999 44.5502 36.1799 42.6702 38.0699C40.5302 40.2699 37.6402 41.2799 34.0502 41.2799H14.2202V36.7499Z" fill="#D68F41"/>
<path d="M14.2202 60.9699C14.2202 55.6799 17.9302 53.0399 22.5302 53.0399H41.5302V49.1399H44.9902V53.0399H54.6802V57.5699H44.9902V64.1799H41.5302V57.5699H22.6502C19.8202 57.5699 18.1202 58.8899 18.1202 61.7899V64.1799H14.2202V60.9699Z" fill="#D68F41"/>
<path d="M28.5098 75.51C21.7098 75.51 17.8098 78.72 17.8098 84.63C17.8098 88.22 18.8798 90.29 21.3298 92.75L18.6198 95.83C15.4698 92.68 13.8398 89.79 13.8398 84.5C13.8398 76.32 18.7498 70.97 29.6998 70.97C39.6998 70.97 45.5598 75.81 45.5598 83.68C45.5598 91.55 39.7698 96.39 30.5798 96.39H28.4998V75.5L28.5098 75.51ZM37.0698 90.93C39.8998 89.73 41.7298 86.97 41.7298 83.69C41.7298 80.41 39.8998 77.65 37.0698 76.45C35.3698 75.76 34.4298 75.63 31.9098 75.51V91.87C34.4298 91.74 35.3698 91.62 37.0698 90.93Z" fill="#D68F41"/>
<path d="M39.2702 123.33C40.9702 121.63 41.5402 120.37 41.5402 117.98C41.5402 113.45 37.9502 110.56 33.2302 110.56H14.2202V106.03H45.1802V110.56H41.4002C43.9802 112.26 45.5502 115.66 45.5502 119.24C45.5502 122.2 44.8602 124.46 42.6602 126.67L39.2602 123.34L39.2702 123.33Z" fill="#D68F41"/>
<path d="M14.2202 132.52H45.1802V137.05H14.2202V132.52ZM53.9902 132.27H59.0902V137.37H53.9902V132.27Z" fill="#D68F41"/>
<path d="M17.3701 168.32C15.2301 166.18 13.8501 163.22 13.8501 159.45C13.8501 155.68 15.2301 152.72 17.3701 150.58C20.5801 147.43 24.9201 146.8 29.7001 146.8C34.4801 146.8 38.8201 147.43 42.0301 150.58C44.1701 152.72 45.5501 155.68 45.5501 159.45C45.5501 163.22 44.1701 166.18 42.0301 168.32C38.8201 171.47 34.4801 172.1 29.7001 172.1C24.9201 172.1 20.5801 171.47 17.3701 168.32ZM39.2701 165.11C40.7201 163.66 41.5401 161.65 41.5401 159.45C41.5401 157.25 40.7201 155.3 39.2701 153.85C37.0001 151.58 33.1701 151.33 29.7101 151.33C26.2501 151.33 22.4101 151.58 20.1401 153.85C18.6901 155.3 17.8701 157.25 17.8701 159.45C17.8701 161.65 18.6901 163.67 20.1401 165.11C22.4101 167.38 26.2401 167.56 29.7101 167.56C33.1801 167.56 37.0101 167.37 39.2701 165.11Z" fill="#D68F41"/>
<path d="M39.2702 199.09C40.9702 197.39 41.5402 196.13 41.5402 193.74C41.5402 189.21 37.9502 186.32 33.2302 186.32H14.2202V181.79H45.1802V186.32H41.4002C43.9802 188.02 45.5502 191.42 45.5502 195C45.5502 197.96 44.8602 200.22 42.6602 202.43L39.2602 199.1L39.2702 199.09Z" fill="#D68F41"/>
<path d="M18.38 251.44C15.67 248.73 14.23 244.77 14.23 240.11V224.76H59.03V240.11C59.03 244.77 57.58 248.73 54.88 251.44C50.22 256.1 43.36 255.84 37.13 255.84C30.9 255.84 23.03 256.09 18.38 251.44ZM51.48 248.1C53.87 245.77 54.75 242.75 54.75 239.29V229.54H18.5V239.29C18.5 242.75 19.38 245.77 21.77 248.1C24.98 251.18 31.65 251.06 37.12 251.06C42.59 251.06 48.26 251.19 51.47 248.1H51.48Z" fill="#D68F41"/>
<path d="M28.5098 269.12C21.7098 269.12 17.8098 272.33 17.8098 278.24C17.8098 281.83 18.8798 283.9 21.3298 286.36L18.6198 289.44C15.4698 286.29 13.8398 283.4 13.8398 278.11C13.8398 269.93 18.7498 264.58 29.6998 264.58C39.6998 264.58 45.5598 269.42 45.5598 277.29C45.5598 285.16 39.7698 290 30.5798 290H28.4998V269.11L28.5098 269.12ZM37.0698 284.54C39.8998 283.34 41.7298 280.58 41.7298 277.3C41.7298 274.02 39.8998 271.26 37.0698 270.06C35.3698 269.37 34.4298 269.24 31.9098 269.12V285.48C34.4298 285.35 35.3698 285.23 37.0698 284.54Z" fill="#D68F41"/>
<path d="M13.8401 309.4C13.8401 304.18 15.0401 300.09 18.3101 296.69L21.3301 299.71C18.7501 302.16 17.7401 305.5 17.7401 309.34C17.7401 314.44 19.5701 317.58 23.2201 317.58C25.9301 317.58 27.4401 316.01 27.7501 312.42L28.1901 307.32C28.6901 301.28 31.4001 298.07 36.5001 298.07C42.1601 298.07 45.5601 302.85 45.5601 309.46C45.5601 313.86 44.4901 317.83 42.2201 320.6L39.2601 317.64C40.9601 315.44 41.7101 312.61 41.7101 309.4C41.7101 304.87 39.7601 302.48 36.6101 302.48C33.9701 302.48 32.3901 303.99 32.0801 307.89L31.6401 312.86C31.1401 318.27 29.0601 321.98 23.2701 321.98C17.4801 321.98 13.8301 316.88 13.8301 309.39L13.8401 309.4Z" fill="#D68F41"/>
<path d="M14.2202 330.85H45.1802V335.38H14.2202V330.85ZM53.9902 330.6H59.0902V335.7H53.9902V330.6Z" fill="#D68F41"/>
<path d="M0 356.71C0 352.05 1.2 349.47 4.15 346.2L7.04 349.16C5.03 351.43 3.96 353 3.96 356.59C3.96 362.57 8.18 365.09 13.46 365.09H18.3C15.09 362.57 14.27 359.74 14.27 356.41C14.27 353.26 15.4 350.56 17.04 348.92C20.12 345.84 24.91 345.14 29.94 345.14C34.97 345.14 39.76 345.83 42.84 348.92C44.48 350.56 45.55 353.33 45.55 356.47C45.55 359.87 44.8 362.64 41.52 365.15H45.17V369.62H13.28C5.6 369.62 0 364.84 0 356.72V356.71ZM41.53 357.4C41.53 350.67 35.74 349.66 29.95 349.66C24.16 349.66 18.37 350.67 18.37 357.4C18.37 364.13 24.16 365.08 29.95 365.08C35.74 365.08 41.53 364.14 41.53 357.4Z" fill="#D68F41"/>
<path d="M14.2202 400.76H33.2902C38.7602 400.76 41.5302 397.8 41.5302 393.15C41.5302 388.5 38.7002 385.47 33.2902 385.47H14.2202V380.94H45.1802V385.47H41.7802C44.3002 387.67 45.5602 390.69 45.5602 394.15C45.5602 397.61 44.5502 400.19 42.6702 402.08C40.5302 404.28 37.6402 405.29 34.0502 405.29H14.2202V400.76Z" fill="#D68F41"/>
</svg>
