<svg width="1102" height="311" viewBox="0 0 1102 311" fill="none" xmlns="http://www.w3.org/2000/svg">
<path d="M96.845 303H147.807V74.285H80.267L0.754001 208.137V245.898H172.981V204.453H52.944L79.039 159.324C85.486 146.43 91.626 133.229 97.459 120.028H98.687C98.073 134.764 96.845 156.561 96.845 170.99V303ZM238.487 307.298C285.151 307.298 328.745 268.923 328.745 186.033C328.745 103.143 286.686 70.294 243.399 70.294C202.568 70.294 168.184 99.152 168.184 147.658C168.184 196.778 196.735 219.496 235.11 219.496C249.232 219.496 270.108 209.979 281.16 193.708L278.397 158.403C269.494 174.981 256.907 181.121 245.548 181.121C230.198 181.121 217.918 172.218 217.918 147.658C217.918 121.256 230.198 111.125 244.627 111.125C261.512 111.125 279.011 126.475 279.011 186.033C279.011 244.056 259.67 263.09 234.803 263.09C221.909 263.09 207.787 255.722 200.112 247.126L171.254 279.975C185.683 294.404 207.787 307.298 238.487 307.298ZM412.057 307.298C459.949 307.298 491.877 280.589 491.877 245.284C491.877 213.97 475.299 194.936 453.502 183.577V182.042C469.159 171.297 482.36 153.184 482.36 131.387C482.36 94.24 455.037 70.294 413.899 70.294C371.84 70.294 341.447 93.933 341.447 132.001C341.447 156.254 353.42 173.753 371.226 186.954V188.489C350.043 199.541 333.772 217.654 333.772 246.205C333.772 282.431 367.235 307.298 412.057 307.298ZM425.872 168.841C403.461 159.938 389.339 150.114 389.339 132.001C389.339 115.73 400.084 108.055 412.671 108.055C428.635 108.055 438.152 118.493 438.152 135.071C438.152 146.737 434.468 158.403 425.872 168.841ZM413.285 269.23C395.479 269.23 380.436 258.485 380.436 239.758C380.436 225.329 386.576 211.514 395.786 202.611C423.723 214.584 441.222 223.18 441.222 243.135C441.222 261.248 429.249 269.23 413.285 269.23Z" fill="#D9374B"/>
<path d="M547.82 106.12V164.97H555.74V106.12H547.82ZM523.95 122.51H580.05V130.43H523.95V122.51ZM523.95 108.87H580.05V116.79H523.95V108.87ZM516.03 102.93V136.37H588.3V102.93H516.03ZM587.75 143.19V173.33C587.75 174.54 587.42 174.87 585.99 174.98C584.67 175.09 580.49 175.09 575.32 174.98C576.31 176.96 577.41 179.71 577.74 181.69C584.89 181.69 589.51 181.69 592.26 180.59C595.12 179.27 595.78 177.29 595.78 173.44V143.19H587.75ZM523.84 162.99L524.39 170.25C537.48 169.59 556.51 168.6 574.88 167.5L574.99 160.79C555.96 161.78 536.49 162.55 523.84 162.99ZM564.54 153.97C569.38 160.13 574.11 168.49 575.76 173.99L582.25 171.79C580.6 166.18 575.65 157.93 570.81 151.99L564.54 153.97ZM528.24 80.6V101.39H536.27V80.6H528.24ZM566.96 80.6V101.39H574.99V80.6H566.96ZM503.49 87.42V94.46H549.8V87.42H503.49ZM553.98 87.42V94.46H600.18V87.42H553.98ZM504.48 143.19V150.12H591.49V143.19H504.48ZM508.99 139.12V181.8H516.91V139.12H508.99ZM556.84 199.86V261.13C556.84 271.58 559.92 274.11 570.15 274.11C572.46 274.11 587.64 274.11 590.06 274.11C599.19 274.11 601.5 270.04 602.49 256.73C600.29 256.29 596.99 254.97 595.12 253.54C594.68 264.32 593.91 266.52 589.62 266.52C586.32 266.52 573.45 266.52 571.03 266.52C565.75 266.52 564.76 265.64 564.76 261.13V199.86H556.84ZM560.03 199.86V207.34H588.74V231.1H560.03V238.47H596.88V199.86H560.03ZM505.14 205.03V212.51H549.25V205.03H505.14ZM502.28 226.37V233.85H552V226.37H502.28ZM529.12 250.13V257.5H551.01V250.13H529.12ZM523.51 192.82V230.22H531.32V192.82H523.51ZM525.38 231.43V281.92H533.08V231.43H525.38ZM514.05 255.41L508 257.39C515.15 285.11 528.24 291.05 558.05 291.05H600.29C600.84 288.63 602.38 284.78 603.7 282.91C596.88 283.13 563.22 283.13 557.83 283.13C532.31 283.13 519.99 278.4 514.05 255.41ZM507.89 242.54C507.45 262.12 506.24 279.83 499.86 290.83C501.73 291.71 505.36 293.69 506.79 294.79C513.39 282.47 514.93 264.21 515.59 243.09L507.89 242.54Z" fill="#595757"/>
<path d="M652.988 248H763.412V215.9H734.308C727.032 215.9 716.118 216.97 708.2 218.04C732.596 193.43 756.136 163.256 756.136 135.864C756.136 105.476 734.736 85.788 703.92 85.788C681.236 85.788 666.684 93.706 651.062 110.398L671.82 130.942C679.524 122.81 687.87 115.534 698.784 115.534C711.624 115.534 719.542 123.452 719.542 138.004C719.542 161.116 692.792 190.006 652.988 226.172V248Z" fill="#D9374B"/>
<path d="M817.152 205.243C819.414 208.288 821.676 212.551 822.459 215.422L829.071 213.508C828.027 210.724 825.678 206.635 823.329 203.59L817.152 205.243ZM790.095 211.594V216.988H856.476V211.594H790.095ZM813.411 223.774V228.994H842.991V223.774H813.411ZM841.077 223.774V224.644C840.033 235.954 838.902 240.565 837.336 242.044C836.553 242.74 835.77 242.74 834.204 242.74C832.638 242.74 828.375 242.74 824.025 242.305C824.982 243.871 825.678 246.22 825.765 247.873C830.289 248.134 834.639 248.134 836.814 247.96C839.337 247.873 841.077 247.351 842.643 245.959C844.818 243.784 846.21 238.564 847.341 226.384C847.515 225.514 847.602 223.774 847.602 223.774H841.077ZM812.106 213.769C810.627 228.037 806.886 238.042 788.442 243.088C789.747 244.306 791.487 246.655 792.096 248.134C812.106 242.131 816.891 230.473 818.544 213.769H812.106ZM790.791 184.102V189.322H843.861V198.109H790.791V203.329H850.299V184.102H790.791ZM842.991 168.094C830.115 170.965 806.799 173.314 787.05 174.445C787.746 175.75 788.529 178.099 788.79 179.665C808.8 178.621 832.464 176.359 848.124 172.966L842.991 168.094ZM787.05 174.445V201.763C787.05 214.726 786.18 231.865 777.219 243.958C778.524 244.741 781.134 247.177 782.091 248.395C792.009 235.606 793.488 215.683 793.488 201.85V174.445H787.05Z" fill="#595757"/>
<path d="M893.988 248H1004.41V215.9H975.308C968.032 215.9 957.118 216.97 949.2 218.04C973.596 193.43 997.136 163.256 997.136 135.864C997.136 105.476 975.736 85.788 944.92 85.788C922.236 85.788 907.684 93.706 892.062 110.398L912.82 130.942C920.524 122.81 928.87 115.534 939.784 115.534C952.624 115.534 960.542 123.452 960.542 138.004C960.542 161.116 933.792 190.006 893.988 226.172V248Z" fill="#D9374B"/>
<path d="M1042.32 174.706V179.578H1065.55V190.192H1071.03V174.706H1042.32ZM1039.8 187.147V192.454H1076.68V187.147H1039.8ZM1052.24 167.92C1051.28 174.967 1049.63 184.363 1048.15 190.279H1053.98C1055.19 184.711 1056.85 175.576 1057.89 168.355L1052.24 167.92ZM1047.89 201.328H1067.72V209.506H1047.89V201.328ZM1042.84 196.63V214.117H1073.12V196.63H1042.84ZM1057.89 212.725V248.047H1063.81V212.725H1057.89ZM1076.94 173.314V179.317H1097.22V173.314H1076.94ZM1075.47 196.717V202.72H1098.78V196.717H1075.47ZM1085.04 199.24V239.695C1085.04 240.739 1084.77 241 1083.56 241.087C1082.43 241.087 1078.68 241.087 1074.33 241C1075.12 242.914 1075.9 245.437 1076.07 247.264C1081.9 247.264 1085.73 247.177 1088.08 246.133C1090.52 245.002 1091.13 243.175 1091.13 239.695V199.24H1085.04ZM1032.23 167.92C1029.09 173.662 1022.92 180.796 1017.35 185.32C1018.39 186.451 1020.13 188.887 1020.92 190.192C1027.09 184.972 1033.88 177.142 1038.14 170.182L1032.23 167.92ZM1034.05 185.407C1029.7 194.542 1022.92 203.851 1016.39 210.115C1017.52 211.42 1019.52 214.465 1020.22 215.77C1027.27 208.636 1034.84 197.674 1039.8 187.408L1034.05 185.407ZM1027.79 201.241V247.873H1033.71V195.412V195.238L1027.79 201.241ZM1038.75 219.25V224.209H1075.64V219.25H1038.75ZM1042.84 232.474L1041.62 237.52H1077.73V232.474H1042.84ZM1042.58 223.165C1041.97 227.776 1041.01 233.605 1040.06 237.52H1045.54C1046.41 233.779 1047.19 228.298 1047.89 223.6L1042.58 223.165Z" fill="#595757"/>
<path d="M898.32 277.08V279.84H931.68V277.08H898.32ZM897.08 301.64V304.4H933.04V301.64H897.08ZM913.36 273.44V310.32H916.44V273.44H913.36ZM904.16 291.72H925.8V295.88H904.16V291.72ZM904.16 285.28H925.8V289.36H904.16V285.28ZM901.28 282.76V298.36H928.8V282.76H901.28ZM950.52 280.68V283.6H972.32V280.68H950.52ZM953.16 286.64C954.4 292.24 955.56 299.6 955.88 303.8L958.88 302.96C958.44 298.88 957.2 291.64 955.88 286.04L953.16 286.64ZM966.76 285.72C965.96 291.92 964.28 300.8 962.76 306.16L965.4 306.8C966.96 301.44 968.76 292.88 969.92 286.24L966.76 285.72ZM948.84 305.68V308.56H973.96V305.68H948.84ZM958.56 273.88C959.32 275.88 960.16 278.56 960.48 280.24L963.44 279.4C963.04 277.68 962.16 275.12 961.4 273.12L958.56 273.88ZM947.24 273.56C944.96 279.64 941.24 285.64 937.28 289.52C937.84 290.2 938.72 291.8 939 292.48C943.36 288 947.44 281.24 950.04 274.44L947.24 273.56ZM942.96 283.88V310.16H945.96V280.92V280.88L942.96 283.88ZM981.36 275.12V277.4H1011.72V275.12H981.36ZM994.96 275.88V291.56H997.92V275.88H994.96ZM979.6 280.36V289H982.48V282.72H1010.6V289H1013.6V280.36H979.6ZM983.2 289.6L984.08 291.92C986.68 291.44 989.72 290.8 992.84 290.16L992.76 288.24C989.16 288.8 985.72 289.32 983.2 289.6ZM984.2 285.04C986.84 285.56 990.2 286.6 991.96 287.36L992.84 285.56C991.04 284.76 987.68 283.88 985.08 283.44L984.2 285.04ZM1007.68 283.24C1005.76 283.96 1002.36 285.16 1000.08 285.68L1001.16 287.24C1003.48 286.72 1006.72 285.96 1009.04 284.96L1007.68 283.24ZM999.56 289.88C1002.72 290.32 1006.8 291.28 1009 292.04L1009.64 290C1007.44 289.24 1003.4 288.36 1000.28 288.04L999.56 289.88ZM979.16 292.76V295.2H1014.12V292.76H979.16ZM991.04 299.64V309.92H993.84V299.64H991.04ZM999.92 299.64V309.92H1002.68V299.64H999.92ZM982.28 298.08V310.16H985.12V300.56H1009.72V298.08H982.28ZM1008.96 298.08V307.2C1008.96 307.56 1008.84 307.68 1008.4 307.72C1007.96 307.76 1006.6 307.76 1005 307.72C1005.36 308.44 1005.8 309.48 1005.92 310.2C1008.12 310.2 1009.6 310.24 1010.6 309.76C1011.64 309.32 1011.84 308.6 1011.84 307.24V298.08H1008.96ZM995.04 293.68C994.76 295.32 994.04 297.72 993.44 299.36L996.08 299.64C996.76 298.16 997.6 295.96 998.32 293.8L995.04 293.68ZM1020.24 293.8V296.52H1050.6V293.8H1020.24ZM1049.56 293.8V294.24C1049 302.72 1048.48 306.08 1047.52 306.96C1047.08 307.32 1046.68 307.36 1045.84 307.36C1044.92 307.36 1042.4 307.32 1039.84 307.12C1040.4 307.92 1040.76 309.16 1040.88 310.08C1043.36 310.2 1045.84 310.24 1047.04 310.16C1048.44 310.04 1049.36 309.8 1050.16 308.92C1051.4 307.6 1052.04 304.08 1052.6 295.16C1052.68 294.72 1052.72 293.8 1052.72 293.8H1049.56ZM1035.16 289.56C1034.28 297.96 1032.4 304.64 1019.36 307.6C1020 308.24 1020.8 309.44 1021.08 310.24C1034.88 306.8 1037.32 299.24 1038.36 289.56H1035.16ZM1026.84 278.16H1047.96V286.88H1026.84V278.16ZM1023.88 275.28V289.72H1051.08V275.28H1023.88ZM1074.48 276.88V279.16H1095.6V276.88H1074.48ZM1073.56 286.44V288.72H1096.44V286.44H1073.56ZM1073.44 301.28V303.6H1096.6V301.28H1073.44ZM1075.52 281.56V283.8H1094.92V281.56H1075.52ZM1079.36 273.44V287.36H1082.04V273.44H1079.36ZM1088 273.44V287.36H1090.68V273.44H1088ZM1083.6 287.44V302H1086.28V287.44H1083.6ZM1091.44 291.04V307.08C1091.44 307.6 1091.28 307.72 1090.72 307.76C1090.2 307.8 1088.24 307.8 1086.16 307.72C1086.52 308.44 1086.88 309.48 1087 310.16C1089.88 310.16 1091.72 310.2 1092.84 309.76C1093.88 309.32 1094.2 308.56 1094.2 307.08V291.04H1091.44ZM1076 291.04V310.24H1078.72V293.32H1092.64V291.04H1076ZM1077.4 296.2V298.28H1092.56V296.2H1077.4ZM1063.48 300.96C1062.72 303.88 1061.24 306.72 1059.44 308.64C1060.08 309.04 1061.2 309.84 1061.72 310.24C1063.56 308.12 1065.24 304.88 1066.2 301.6L1063.48 300.96ZM1068.52 301.96C1069.76 303.92 1071.12 306.6 1071.72 308.28L1074.12 307.12C1073.52 305.48 1072.08 302.88 1070.76 300.92L1068.52 301.96ZM1064.12 284.92H1070.12V290.08H1064.12V284.92ZM1064.12 292.4H1070.12V297.64H1064.12V292.4ZM1064.12 277.44H1070.12V282.56H1064.12V277.44ZM1061.48 274.92V300.12H1072.8V274.92H1061.48Z" fill="#595757"/>
<line x1="655" y1="293" x2="882" y2="293" stroke="#C8C9CA" stroke-width="2"/>
</svg>
