<svg width="251" height="117" viewBox="0 0 251 117" fill="none" xmlns="http://www.w3.org/2000/svg">
<path d="M20.1 70H30.06V25.3H16.86L1.32 51.46V58.84H34.98V50.74H11.52L16.62 41.92C17.88 39.4 19.08 36.82 20.22 34.24H20.46C20.34 37.12 20.1 41.38 20.1 44.2V70ZM47.7825 70.84C56.9025 70.84 65.4225 63.34 65.4225 47.14C65.4225 30.94 57.2025 24.52 48.7425 24.52C40.7625 24.52 34.0425 30.16 34.0425 39.64C34.0425 49.24 39.6225 53.68 47.1225 53.68C49.8825 53.68 53.9625 51.82 56.1225 48.64L55.5825 41.74C53.8425 44.98 51.3825 46.18 49.1625 46.18C46.1625 46.18 43.7625 44.44 43.7625 39.64C43.7625 34.48 46.1625 32.5 48.9825 32.5C52.2825 32.5 55.7025 35.5 55.7025 47.14C55.7025 58.48 51.9225 62.2 47.0625 62.2C44.5425 62.2 41.7825 60.76 40.2825 59.08L34.6425 65.5C37.4625 68.32 41.7825 70.84 47.7825 70.84ZM81.705 70.84C91.065 70.84 97.305 65.62 97.305 58.72C97.305 52.6 94.065 48.88 89.805 46.66V46.36C92.865 44.26 95.445 40.72 95.445 36.46C95.445 29.2 90.105 24.52 82.065 24.52C73.845 24.52 67.905 29.14 67.905 36.58C67.905 41.32 70.245 44.74 73.725 47.32V47.62C69.585 49.78 66.405 53.32 66.405 58.9C66.405 65.98 72.945 70.84 81.705 70.84ZM84.405 43.78C80.025 42.04 77.265 40.12 77.265 36.58C77.265 33.4 79.365 31.9 81.825 31.9C84.945 31.9 86.805 33.94 86.805 37.18C86.805 39.46 86.085 41.74 84.405 43.78ZM81.945 63.4C78.465 63.4 75.525 61.3 75.525 57.64C75.525 54.82 76.725 52.12 78.525 50.38C83.985 52.72 87.405 54.4 87.405 58.3C87.405 61.84 85.065 63.4 81.945 63.4Z" fill="#D9374B"/>
<path d="M111.626 29.016V41.321H113.282V29.016H111.626ZM106.635 32.443H118.365V34.099H106.635V32.443ZM106.635 29.591H118.365V31.247H106.635V29.591ZM104.979 28.349V35.341H120.09V28.349H104.979ZM119.975 36.767V43.069C119.975 43.322 119.906 43.391 119.607 43.414C119.331 43.437 118.457 43.437 117.376 43.414C117.583 43.828 117.813 44.403 117.882 44.817C119.377 44.817 120.343 44.817 120.918 44.587C121.516 44.311 121.654 43.897 121.654 43.092V36.767H119.975ZM106.612 40.907L106.727 42.425C109.464 42.287 113.443 42.08 117.284 41.85L117.307 40.447C113.328 40.654 109.257 40.815 106.612 40.907ZM115.122 39.021C116.134 40.309 117.123 42.057 117.468 43.207L118.825 42.747C118.48 41.574 117.445 39.849 116.433 38.607L115.122 39.021ZM107.532 23.68V28.027H109.211V23.68H107.532ZM115.628 23.68V28.027H117.307V23.68H115.628ZM102.357 25.106V26.578H112.04V25.106H102.357ZM112.914 25.106V26.578H122.574V25.106H112.914ZM102.564 36.767V38.216H120.757V36.767H102.564ZM103.507 35.916V44.84H105.163V35.916H103.507ZM113.512 50.198V63.009C113.512 65.194 114.156 65.723 116.295 65.723C116.778 65.723 119.952 65.723 120.458 65.723C122.367 65.723 122.85 64.872 123.057 62.089C122.597 61.997 121.907 61.721 121.516 61.422C121.424 63.676 121.263 64.136 120.366 64.136C119.676 64.136 116.985 64.136 116.479 64.136C115.375 64.136 115.168 63.952 115.168 63.009V50.198H113.512ZM114.179 50.198V51.762H120.182V56.73H114.179V58.271H121.884V50.198H114.179ZM102.702 51.279V52.843H111.925V51.279H102.702ZM102.104 55.741V57.305H112.5V55.741H102.104ZM107.716 60.709V62.25H112.293V60.709H107.716ZM106.543 48.726V56.546H108.176V48.726H106.543ZM106.934 56.799V67.356H108.544V56.799H106.934ZM104.565 61.813L103.3 62.227C104.795 68.023 107.532 69.265 113.765 69.265H122.597C122.712 68.759 123.034 67.954 123.31 67.563C121.884 67.609 114.846 67.609 113.719 67.609C108.383 67.609 105.807 66.62 104.565 61.813ZM103.277 59.122C103.185 63.216 102.932 66.919 101.598 69.219C101.989 69.403 102.748 69.817 103.047 70.047C104.427 67.471 104.749 63.653 104.887 59.237L103.277 59.122Z" fill="#595757"/>
<path d="M132.52 70H163.48V61H155.32C153.28 61 150.22 61.3 148 61.6C154.84 54.7 161.44 46.24 161.44 38.56C161.44 30.04 155.44 24.52 146.8 24.52C140.44 24.52 136.36 26.74 131.98 31.42L137.8 37.18C139.96 34.9 142.3 32.86 145.36 32.86C148.96 32.86 151.18 35.08 151.18 39.16C151.18 45.64 143.68 53.74 132.52 63.88V70Z" fill="#D9374B"/>
<path d="M193.52 71H224.48V62H216.32C214.28 62 211.22 62.3 209 62.6C215.84 55.7 222.44 47.24 222.44 39.56C222.44 31.04 216.44 25.52 207.8 25.52C201.44 25.52 197.36 27.74 192.98 32.42L198.8 38.18C200.96 35.9 203.3 33.86 206.36 33.86C209.96 33.86 212.18 36.08 212.18 40.16C212.18 46.64 204.68 54.74 193.52 64.88V71Z" fill="#D9374B"/>
<path d="M178.408 60.547C179.006 61.352 179.604 62.479 179.811 63.238L181.559 62.732C181.283 61.996 180.662 60.915 180.041 60.11L178.408 60.547ZM171.255 62.226V63.652H188.804V62.226H171.255ZM177.419 65.446V66.826H185.239V65.446H177.419ZM184.733 65.446V65.676C184.457 68.666 184.158 69.885 183.744 70.276C183.537 70.46 183.33 70.46 182.916 70.46C182.502 70.46 181.375 70.46 180.225 70.345C180.478 70.759 180.662 71.38 180.685 71.817C181.881 71.886 183.031 71.886 183.606 71.84C184.273 71.817 184.733 71.679 185.147 71.311C185.722 70.736 186.09 69.356 186.389 66.136C186.435 65.906 186.458 65.446 186.458 65.446H184.733ZM177.074 62.801C176.683 66.573 175.694 69.218 170.818 70.552C171.163 70.874 171.623 71.495 171.784 71.886C177.074 70.299 178.339 67.217 178.776 62.801H177.074ZM171.439 54.958V56.338H185.469V58.661H171.439V60.041H187.171V54.958H171.439ZM185.239 50.726C181.835 51.485 175.671 52.106 170.45 52.405C170.634 52.75 170.841 53.371 170.91 53.785C176.2 53.509 182.456 52.911 186.596 52.014L185.239 50.726ZM170.45 52.405V59.627C170.45 63.054 170.22 67.585 167.851 70.782C168.196 70.989 168.886 71.633 169.139 71.955C171.761 68.574 172.152 63.307 172.152 59.65V52.405H170.45Z" fill="#595757"/>
<path d="M235.222 53.474V54.762H241.363V57.568H242.812V53.474H235.222ZM234.555 56.763V58.166H244.307V56.763H234.555ZM237.844 51.68C237.591 53.543 237.154 56.027 236.763 57.591H238.304C238.626 56.119 239.063 53.704 239.339 51.795L237.844 51.68ZM236.694 60.512H241.938V62.674H236.694V60.512ZM235.36 59.27V63.893H243.364V59.27H235.36ZM239.339 63.525V72.863H240.903V63.525H239.339ZM244.376 53.106V54.693H249.735V53.106H244.376ZM243.985 59.293V60.88H250.149V59.293H243.985ZM246.515 59.96V70.655C246.515 70.931 246.446 71 246.124 71.023C245.825 71.023 244.836 71.023 243.686 71C243.893 71.506 244.1 72.173 244.146 72.656C245.687 72.656 246.699 72.633 247.32 72.357C247.964 72.058 248.125 71.575 248.125 70.655V59.96H246.515ZM232.554 51.68C231.726 53.198 230.093 55.084 228.621 56.28C228.897 56.579 229.357 57.223 229.564 57.568C231.197 56.188 232.991 54.118 234.118 52.278L232.554 51.68ZM233.037 56.303C231.887 58.718 230.093 61.179 228.368 62.835C228.667 63.18 229.196 63.985 229.38 64.33C231.243 62.444 233.244 59.546 234.555 56.832L233.037 56.303ZM231.381 60.489V72.817H232.945V58.948V58.902L231.381 60.489ZM234.279 65.25V66.561H244.031V65.25H234.279ZM235.36 68.746L235.038 70.08H244.583V68.746H235.36ZM235.291 66.285C235.13 67.504 234.877 69.045 234.624 70.08H236.073C236.303 69.091 236.51 67.642 236.694 66.4L235.291 66.285Z" fill="#595757"/>
<path d="M150.66 96.04V97.42H167.34V96.04H150.66ZM150.04 108.32V109.7H168.02V108.32H150.04ZM158.18 94.22V112.66H159.72V94.22H158.18ZM153.58 103.36H164.4V105.44H153.58V103.36ZM153.58 100.14H164.4V102.18H153.58V100.14ZM152.14 98.88V106.68H165.9V98.88H152.14ZM176.76 97.84V99.3H187.66V97.84H176.76ZM178.08 100.82C178.7 103.62 179.28 107.3 179.44 109.4L180.94 108.98C180.72 106.94 180.1 103.32 179.44 100.52L178.08 100.82ZM184.88 100.36C184.48 103.46 183.64 107.9 182.88 110.58L184.2 110.9C184.98 108.22 185.88 103.94 186.46 100.62L184.88 100.36ZM175.92 110.34V111.78H188.48V110.34H175.92ZM180.78 94.44C181.16 95.44 181.58 96.78 181.74 97.62L183.22 97.2C183.02 96.34 182.58 95.06 182.2 94.06L180.78 94.44ZM175.12 94.28C173.98 97.32 172.12 100.32 170.14 102.26C170.42 102.6 170.86 103.4 171 103.74C173.18 101.5 175.22 98.12 176.52 94.72L175.12 94.28ZM172.98 99.44V112.58H174.48V97.96V97.94L172.98 99.44ZM192.18 95.06V96.2H207.36V95.06H192.18ZM198.98 95.44V103.28H200.46V95.44H198.98ZM191.3 97.68V102H192.74V98.86H206.8V102H208.3V97.68H191.3ZM193.1 102.3L193.54 103.46C194.84 103.22 196.36 102.9 197.92 102.58L197.88 101.62C196.08 101.9 194.36 102.16 193.1 102.3ZM193.6 100.02C194.92 100.28 196.6 100.8 197.48 101.18L197.92 100.28C197.02 99.88 195.34 99.44 194.04 99.22L193.6 100.02ZM205.34 99.12C204.38 99.48 202.68 100.08 201.54 100.34L202.08 101.12C203.24 100.86 204.86 100.48 206.02 99.98L205.34 99.12ZM201.28 102.44C202.86 102.66 204.9 103.14 206 103.52L206.32 102.5C205.22 102.12 203.2 101.68 201.64 101.52L201.28 102.44ZM191.08 103.88V105.1H208.56V103.88H191.08ZM197.02 107.32V112.46H198.42V107.32H197.02ZM201.46 107.32V112.46H202.84V107.32H201.46ZM192.64 106.54V112.58H194.06V107.78H206.36V106.54H192.64ZM205.98 106.54V111.1C205.98 111.28 205.92 111.34 205.7 111.36C205.48 111.38 204.8 111.38 204 111.36C204.18 111.72 204.4 112.24 204.46 112.6C205.56 112.6 206.3 112.62 206.8 112.38C207.32 112.16 207.42 111.8 207.42 111.12V106.54H205.98ZM199.02 104.34C198.88 105.16 198.52 106.36 198.22 107.18L199.54 107.32C199.88 106.58 200.3 105.48 200.66 104.4L199.02 104.34ZM211.62 104.4V105.76H226.8V104.4H211.62ZM226.28 104.4V104.62C226 108.86 225.74 110.54 225.26 110.98C225.04 111.16 224.84 111.18 224.42 111.18C223.96 111.18 222.7 111.16 221.42 111.06C221.7 111.46 221.88 112.08 221.94 112.54C223.18 112.6 224.42 112.62 225.02 112.58C225.72 112.52 226.18 112.4 226.58 111.96C227.2 111.3 227.52 109.54 227.8 105.08C227.84 104.86 227.86 104.4 227.86 104.4H226.28ZM219.08 102.28C218.64 106.48 217.7 109.82 211.18 111.3C211.5 111.62 211.9 112.22 212.04 112.62C218.94 110.9 220.16 107.12 220.68 102.28H219.08ZM214.92 96.58H225.48V100.94H214.92V96.58ZM213.44 95.14V102.36H227.04V95.14H213.44ZM238.74 95.94V97.08H249.3V95.94H238.74ZM238.28 100.72V101.86H249.72V100.72H238.28ZM238.22 108.14V109.3H249.8V108.14H238.22ZM239.26 98.28V99.4H248.96V98.28H239.26ZM241.18 94.22V101.18H242.52V94.22H241.18ZM245.5 94.22V101.18H246.84V94.22H245.5ZM243.3 101.22V108.5H244.64V101.22H243.3ZM247.22 103.02V111.04C247.22 111.3 247.14 111.36 246.86 111.38C246.6 111.4 245.62 111.4 244.58 111.36C244.76 111.72 244.94 112.24 245 112.58C246.44 112.58 247.36 112.6 247.92 112.38C248.44 112.16 248.6 111.78 248.6 111.04V103.02H247.22ZM239.5 103.02V112.62H240.86V104.16H247.82V103.02H239.5ZM240.2 105.6V106.64H247.78V105.6H240.2ZM233.24 107.98C232.86 109.44 232.12 110.86 231.22 111.82C231.54 112.02 232.1 112.42 232.36 112.62C233.28 111.56 234.12 109.94 234.6 108.3L233.24 107.98ZM235.76 108.48C236.38 109.46 237.06 110.8 237.36 111.64L238.56 111.06C238.26 110.24 237.54 108.94 236.88 107.96L235.76 108.48ZM233.56 99.96H236.56V102.54H233.56V99.96ZM233.56 103.7H236.56V106.32H233.56V103.7ZM233.56 96.22H236.56V98.78H233.56V96.22ZM232.24 94.96V107.56H237.9V94.96H232.24Z" fill="#595757"/>
<line x1="8.74228e-08" y1="105" x2="142" y2="105" stroke="#C8C9CA" stroke-width="2"/>
</svg>
