<svg width="33" height="32" viewBox="0 0 33 32" fill="none" xmlns="http://www.w3.org/2000/svg">
<path d="M16.67 0.409882C8.01004 0.409882 0.97998 7.42988 0.97998 16.0999C0.97998 23.9299 6.70996 30.4199 14.21 31.5999V20.6399H10.23V16.1099H14.21V12.6499C14.21 8.71988 16.55 6.54988 20.13 6.54988C21.85 6.54988 23.64 6.85988 23.64 6.85988V10.7199H21.66C21.66 10.7199 21.5999 10.7199 21.5699 10.7199C19.8999 10.7499 19.25 11.6899 19.13 12.7599C19.13 12.7799 19.13 12.7999 19.13 12.8099C19.13 12.8299 19.13 12.8399 19.13 12.8599C19.13 12.8599 19.13 12.8599 19.13 12.8699C19.13 12.8799 19.13 12.8999 19.13 12.9099V12.9199C19.13 12.9299 19.13 12.9399 19.13 12.9599C19.13 12.9599 19.13 12.9699 19.13 12.9799C19.13 12.9999 19.13 13.0199 19.13 13.0299C19.13 13.0499 19.13 13.0599 19.13 13.0799C19.13 13.0999 19.13 13.1199 19.13 13.1399V16.0799H23.48L22.79 20.6099H19.13V31.5699C26.63 30.3899 32.36 23.9099 32.36 16.0699C32.36 7.40988 25.34 0.379883 16.67 0.379883V0.409882Z" fill="#231815"/>
</svg>
