<svg width="355" height="251" viewBox="0 0 355 251" fill="none" xmlns="http://www.w3.org/2000/svg">
<path fill-rule="evenodd" clip-rule="evenodd" d="M167.472 195.553C167.613 195.131 167.679 194.676 167.845 194.283C168.151 193.518 168.481 192.781 168.812 192.044C169.116 191.331 168.934 190.647 168.444 190.037C167.928 189.45 167.41 188.914 166.893 188.326C165.172 186.369 165.068 184.873 166.535 182.939C166.935 182.388 167.412 181.87 167.911 181.432C169.2 180.249 170.239 178.888 171.082 177.304C172.25 175.136 173.119 172.786 173.99 170.334C173.557 170.318 173.252 170.289 172.919 170.334C171.022 170.614 169.077 170.786 167.202 171.196C163.81 171.947 161.247 173.853 159.615 176.924C159.533 177.095 159.376 177.234 159.215 177.475C157.395 176.199 155.625 174.928 153.58 173.503C153.796 174.702 153.945 175.613 154.144 176.528C154.162 176.761 154.232 176.947 154.327 177.161C155.227 180.038 154.849 181.462 152.402 182.97C149.746 184.611 147.681 186.872 145.816 189.306C144.883 190.523 143.999 191.796 143.042 192.985C142.429 193.771 142.685 194.538 143.015 195.338C143.371 196.166 144.079 196.337 144.795 196.303C145.408 196.259 146.025 196.113 146.569 195.883C151.202 193.842 155.835 191.801 160.469 189.76C160.882 189.595 161.296 189.43 161.762 189.218C162.147 189.921 162.562 190.499 162.847 191.141C163.658 192.857 164.812 194.223 166.517 195.103C166.793 195.258 167.065 195.514 167.312 195.743C167.34 195.668 167.393 195.622 167.472 195.553Z" fill="#CA485D"/>
<path fill-rule="evenodd" clip-rule="evenodd" d="M154.11 69.7101C152.603 70.3455 151.064 70.9637 149.541 71.6301C148.068 72.2827 146.561 72.8388 145.104 73.5396C142.568 74.7824 140.513 76.5519 139.204 78.9857C138.671 80.0096 137.805 80.6237 136.741 81.0554C135.725 81.4732 134.677 81.8739 133.596 82.3366C133.93 82.8256 134.196 83.2009 134.413 83.5901C135.298 85.1157 135.196 86.5216 134.04 87.7735C133.65 88.2011 133.242 88.5805 132.752 88.8773C131.575 89.6054 130.878 90.7018 130.561 91.9563C129.72 95.3442 130.014 98.731 131.556 102.058C131.757 102.478 132.04 102.823 132.324 103.325C132.634 103.053 132.895 102.874 133.107 102.629C136.38 99.3247 139.637 95.9725 142.878 92.6514C143.758 91.7685 144.037 91.7165 145.176 92.3495C146.184 92.9137 147.111 93.633 148.135 94.1661C149.72 94.9916 151.197 94.6561 152.432 93.1698C149.889 91.8456 147.346 90.5213 144.704 89.1455C145.401 88.1283 146.018 87.2664 146.618 86.3561C149.327 82.3636 152.051 78.34 154.793 74.3646C155.328 73.5785 155.371 72.8514 154.985 71.98C154.683 71.2705 154.495 70.5023 154.242 69.7789C154.275 69.7961 154.176 69.7445 154.11 69.7101Z" fill="#CA485D"/>
<path fill-rule="evenodd" clip-rule="evenodd" d="M192.326 234.447C192.587 230.56 192.8 226.924 193.028 223.02C195.344 224.699 197.479 226.245 199.729 227.89C200.753 226.648 201.728 225.421 202.785 224.117C202.438 223.897 202.206 223.697 201.925 223.512C200.437 222.579 198.933 221.678 197.445 220.745C197.263 220.611 197.114 220.494 196.932 220.36C195.408 219.014 195.332 217.949 196.701 216.611C198.298 215.076 200.261 214.048 202.239 212.83C203.948 216.481 205.624 220.035 207.417 223.768C208.099 222.941 208.487 222.196 208.661 221.379C208.865 220.342 208.987 219.301 209.158 218.247C209.266 217.475 209.374 216.703 209.515 215.948C209.859 213.998 211.24 212.232 214.097 211.906C215.392 213.29 216.72 214.691 218.163 216.192C219.181 214.237 220.166 212.345 221.168 210.421C219.354 209.713 217.605 209.039 215.725 208.297C216.53 206.428 217.253 204.636 218.042 202.799C220.507 202.741 222.889 202.681 225.486 202.613C225.204 202.348 225.136 202.155 224.971 202.069C222.874 201.016 220.809 199.823 218.631 198.925C215.595 197.66 212.905 198.231 210.64 200.404C210.428 200.569 210.216 200.735 210.103 200.952C209.47 201.924 208.617 202.111 207.415 201.84C206.031 201.514 204.633 201.378 203.266 201.1C202.46 200.956 201.853 201.073 201.448 201.77C203.192 203.743 204.002 206.137 205.241 208.596C203.383 208.535 201.673 208.513 199.98 208.459C198.911 208.415 197.859 208.341 196.807 208.345C194.605 208.381 192.887 209.341 192.017 211.254C191.453 212.498 190.455 213.044 189.159 213.276C187.994 213.497 186.828 213.64 185.68 213.83C185.269 213.893 184.876 214.003 184.367 214.093C184.665 214.327 184.798 214.475 184.98 214.61C186.617 215.738 187.058 217.23 186.581 218.953C186.358 219.784 186.07 220.58 185.649 221.307C184.646 223.073 184.761 224.868 185.55 226.738C186.709 229.431 188.667 231.556 190.936 233.407C191.317 233.724 191.714 234.01 192.326 234.447Z" fill="#CA485D"/>
<path fill-rule="evenodd" clip-rule="evenodd" d="M297.154 214.413C295.195 213.984 293.268 213.572 291.357 213.13C290.764 212.979 290.271 212.958 290.097 213.775C290.329 213.975 290.529 214.236 290.794 214.453C291.787 215.207 292.436 216.137 292.956 217.235C293.726 218.82 293.987 220.336 293.278 221.938C292.827 222.966 292.656 224.099 292.453 225.216C292.096 227.515 292.723 229.616 294.268 231.486C295.016 232.388 295.879 233.231 296.757 234.043C298.282 235.389 299.871 236.69 301.561 238.122C301.573 237.695 301.587 237.426 301.585 237.188C301.463 236.375 301.423 235.566 301.218 234.749C300.531 231.552 301.146 228.599 302.401 225.703C302.578 225.283 302.739 224.893 302.965 224.379C304.877 224.981 306.884 225.237 308.394 226.773C308.427 226.79 308.444 226.838 308.477 226.855C310.43 228.346 311.911 228.565 313.432 225.886C313.626 225.514 313.606 225.148 313.324 224.883C312.778 224.402 312.231 223.92 311.619 223.562C310.678 223.032 309.655 222.657 308.73 222.176C306.848 221.196 306.129 219.914 306.243 217.923C306.241 217.685 306.288 217.433 306.335 217.182C306.787 214.459 307.994 213.431 310.87 213.391C311.806 213.366 312.76 213.389 313.663 213.268C314.828 213.125 315.628 212.477 315.797 211.185C312.59 209.12 309.147 208.314 305.453 208.796C301.677 209.275 298.783 210.962 297.154 214.413Z" fill="#CA485D"/>
<path fill-rule="evenodd" clip-rule="evenodd" d="M278.458 186.379C274.786 187.385 270.996 188.212 268.543 191.312C267.681 192.401 267.184 193.759 266.505 194.983C266.101 195.759 265.747 196.6 265.244 197.324C263.784 199.403 261.832 199.925 259.31 199.045C258.848 198.884 258.353 198.705 257.778 198.681C258.027 199.008 258.293 199.305 258.575 199.649C260.371 201.925 260.571 204.04 259.179 206.392C258.694 207.243 258.191 208.046 257.607 208.846C256.422 210.477 255.748 212.335 255.47 214.32C255.317 215.502 255.212 216.67 255.141 217.856C255.037 219.103 254.966 220.368 254.863 221.615C255.424 221.907 255.953 222.183 256.613 222.527C260.303 218.02 264.011 213.561 267.701 209.054C269.762 209.772 271.741 210.487 273.835 211.223C274.094 210.806 274.353 210.388 274.677 209.847C273.233 208.267 271.821 206.704 270.36 205.075C273.115 198.898 275.853 192.752 278.625 186.623C278.591 186.527 278.508 186.444 278.458 186.379Z" fill="#CA485D"/>
<path fill-rule="evenodd" clip-rule="evenodd" d="M63.6964 67.9464C65.8555 66.7832 67.718 65.5445 68.8826 63.4691C69.2226 62.8968 69.6448 62.3279 70.1499 61.8416C71.5346 60.4724 73.3566 60.1985 75.2708 61.0375C75.8155 61.2817 76.3601 61.5258 76.8562 61.863C78.1458 62.6923 79.5793 63.0838 81.2103 63.4992C80.8904 62.6622 80.6535 61.9078 80.2528 61.2259C80.0855 60.9022 79.64 60.7096 79.2436 60.5033C78.368 60.0079 77.3947 59.6194 76.5676 59.031C75.0292 57.9539 74.4401 56.4245 74.9674 54.7667C75.3832 53.4845 76.0954 52.2779 76.6924 51.0506C76.9663 50.444 77.3885 49.875 77.5634 49.2167C77.8484 48.0243 78.0182 46.8112 78.1719 45.6292C78.2476 44.9194 78.2243 44.1579 78.2332 43.3344C77.1182 43.6214 76.1014 43.8807 75.0847 44.1401C74.0519 44.4305 72.9691 44.6554 71.9699 45.0422C70.4305 45.6604 69.5707 46.9086 69.4537 48.504C69.3822 49.6894 68.745 50.1069 67.7114 50.318C66.4973 50.5535 65.2508 50.8509 64.0204 51.1174C63.8729 51.1588 63.7092 51.2313 63.4801 51.3487C64.2448 52.299 64.9758 53.1529 65.7405 54.1032C65.1456 55.5682 64.5669 57.0021 64.0051 58.4842C63.3309 60.2628 62.7389 62.0448 62.0317 63.8062C61.6946 64.6955 61.8493 65.4465 62.4481 66.2316C62.8473 66.7549 63.2304 67.3093 63.6964 67.9464Z" fill="#CA485D"/>
<path fill-rule="evenodd" clip-rule="evenodd" d="M92.4863 135.417C90.6022 134.278 88.8054 133.698 86.9622 133.448C82.3708 132.832 78.2372 133.756 74.6956 136.526C73.9284 137.112 73.0438 137.44 72.0748 137.527C70.5964 137.625 69.1173 137.644 67.6389 137.742C67.1133 137.784 66.5877 137.825 65.8485 137.874C69.4046 143.946 72.877 149.855 76.3831 155.861C76.9073 155.661 77.3822 155.475 78.0048 155.247C77.9229 153.469 77.841 151.691 77.7085 149.768C78.8455 150.084 79.8504 150.331 80.8061 150.592C81.5474 150.781 82.2888 150.97 83.0463 151.128C83.5733 151.245 83.9829 151.103 84.1592 150.603C84.2877 150.276 84.4655 149.934 84.5609 149.59C84.8144 148.539 84.4299 147.826 83.3905 147.403C82.8789 147.176 82.3519 147.059 81.808 146.894C81.1981 146.695 80.5558 146.558 79.9782 146.296C79.0042 145.829 78.8846 145.333 79.5351 144.567C80.4617 143.433 81.4052 142.346 82.3648 141.229C83.7958 139.529 85.5592 138.239 87.672 137.406C88.8348 136.947 89.9977 136.488 91.1275 136.011C91.5041 135.852 91.8807 135.693 92.4863 135.417Z" fill="#CA485D"/>
<path fill-rule="evenodd" clip-rule="evenodd" d="M83.3078 6.96541C82.2713 6.85954 81.3494 6.69499 80.4289 6.68894C79.8864 6.68254 79.3285 6.78642 78.8373 7.00394C77.0696 7.81874 75.3517 8.69896 73.6339 9.57918C70.2635 11.2948 67.5889 13.6093 66.3726 17.2352C66.1971 17.8143 65.7566 18.1765 65.1664 18.3424C64.4124 18.5808 63.6416 18.7711 62.8709 18.9613C61.8541 19.2206 60.8206 19.4318 59.6724 19.7016C60.5068 21.0825 61.2252 22.3637 62.0096 23.6792C61.5727 24.4377 61.1021 25.0997 60.7144 25.8443C59.4543 28.2643 59.6241 30.6796 61.3384 33.0314C62.5037 34.6636 63.9951 35.9922 65.7169 37.3621C66.1545 36.6829 66.5591 35.9865 66.9806 35.3383C67.6774 34.2419 68.3082 33.1112 69.0549 32.0802C69.9963 30.7562 71.405 30.2278 73.1175 30.5673C74.5826 30.8175 76.0477 31.0677 77.5135 31.3971C78.1888 31.5516 78.6315 31.4271 78.9877 30.8238C79.3431 30.1412 79.338 29.5865 78.7413 29.0392C77.9296 28.3404 77.0856 27.7038 76.1924 27.0809C75.3322 26.4753 74.4228 25.8834 73.4804 25.2744C73.5281 25.1021 73.5267 24.9436 73.5913 24.8195C75.5026 21.7132 77.3978 18.6379 79.26 15.5454C80.2153 13.9526 81.2036 12.377 82.1259 10.7671C82.822 9.59146 82.9911 8.29918 83.3078 6.96541Z" fill="#CA485D"/>
</svg>
