<svg width="358" height="59" viewBox="0 0 358 59" fill="#fff" xmlns="http://www.w3.org/2000/svg">
<path d="M1.2,40.5C2,45,4.3,49.8,7.7,53.2c8.9,9,29.5,4.5,26-10.1c-2-8.5-20-7.8-27.3-14.4c-14.5-13,2.8-35.3,25-25.4c1.8,0.8,3.8,0.9,4.4-1.2H37V17h-1c-1.9-5.2-3.7-11-9.1-13.7C20.2,0,7.6,2.9,7.2,11.8C7.8,23.4,29.9,21.5,38,30.5c11.8,13.1-4.8,36.1-31.8,26c-2.2-0.8-4.2-1.1-4.9,1.3H0V40.5L1.2,40.5L1.2,40.5z M333.6,2.2v1.1h-7.3v53.3h13.2c9.6,0,15.7-7.7,17.5-16.5h1v17.6h-50.6v-1.1h7.3V3.3h-7.3V2.2H333.6L333.6,2.2z M100.7,18.1C96.7,5.4,89.8,0.2,78.2,2.5c-12.3,2.5-12,18.1-12,27.8c0,8.6,0.7,21.4,7.2,25.1c10.7,6.1,24,0.8,27.5-14.2h1.3v16.6h-1.3c-0.6-2.5-4.2-1.7-8.6-0.3c-19,6.1-39.2-7.9-39.2-27.4c0-19.4,20.4-34,38.8-27.8c2.6,0.9,8,2.9,8.5-0.2h1.3v15.9L100.7,18.1L100.7,18.1z M205.4,0.9c16.1,0,29.5,12.5,29.5,28.5c0,15.5-14.1,28.6-29.5,28.5c-15.3,0-29.5-12.6-29.5-28.3C175.8,12.1,191.4,0.9,205.4,0.9z M205.4,56.9C221.4,56.9,222,44,222,29c0-14.3-1-27-16.6-27c-15.6,0-16.7,13.6-16.7,27.7C188.7,46.7,190.6,56.9,205.4,56.9z M272.5,0.9c16.1,0,29.5,12.5,29.5,28.5c0,15.5-14.1,28.6-29.5,28.5C257.2,58,243,45.3,243,29.7C243,12.1,258.6,0.9,272.5,0.9z M272.5,56.9c16.1,0,16.6-12.9,16.6-27.9c0-14.3-1-27-16.6-27c-15.6,0-16.7,13.6-16.7,27.7C255.8,46.7,257.8,56.9,272.5,56.9z M168.9,3.3V2.2h-26.4v1.1h7.4v24.9h-22.7V3.3h7.4V2.2h-26.4v1.1h7.4v53.5h-7.4v1.1h26.4v-1.1h-7.4V29.2h22.7v27.5h-7.4v1.1h26.4v-1.1h-7.4V3.3H168.9z"/>
</svg>
