<svg width="358" height="59" viewBox="0 0 358 59" fill="none" xmlns="http://www.w3.org/2000/svg">
<path d="M0 40.37H0.86C1.43 43.19 2.18 45.57 3.09 47.5C4 49.43 5.01 51.03 6.11 52.28C7.21 53.53 8.36 54.5 9.56 55.18C10.76 55.86 11.98 56.36 13.2 56.67C14.43 56.98 15.6 57.17 16.73 57.22C17.85 57.27 18.91 57.3 19.9 57.3C22.67 57.3 24.94 56.88 26.72 56.05C28.5 55.22 29.91 54.16 30.95 52.88C31.99 51.6 32.73 50.22 33.14 48.73C33.56 47.24 33.77 45.87 33.77 44.62C33.77 42.79 33.43 41.22 32.75 39.92C32.07 38.61 31.21 37.5 30.16 36.59C29.11 35.68 27.98 34.93 26.75 34.36C25.52 33.79 24.36 33.34 23.26 33.03L14.25 30.29C10.02 28.98 6.82 27.26 4.65 25.12C2.48 22.98 1.4 20.1 1.4 16.5C1.4 14.15 1.82 11.97 2.65 9.95999C3.49 7.94999 4.66 6.20999 6.18 4.74999C7.69 3.28999 9.51 2.13999 11.63 1.29999C13.75 0.459988 16.06 0.0499878 18.57 0.0499878C20.4 0.0499878 21.93 0.209988 23.15 0.519988C24.38 0.829988 25.44 1.18999 26.32 1.57999C27.21 1.96999 28 2.31999 28.71 2.63999C29.41 2.94999 30.13 3.10999 30.87 3.10999C31.55 3.10999 32.01 3.01999 32.24 2.83999C32.48 2.65999 32.8 2.19999 33.22 1.46999H34.32V15.66H33.38C33.07 13.78 32.53 11.96 31.77 10.21C31.01 8.45999 30.03 6.91999 28.83 5.58999C27.63 4.25999 26.18 3.18999 24.48 2.37999C22.78 1.56999 20.81 1.16999 18.56 1.16999C17.31 1.16999 15.92 1.33999 14.41 1.67999C12.89 2.01999 11.48 2.60999 10.18 3.43999C8.87 4.27999 7.79 5.36999 6.93 6.72999C6.07 8.08999 5.64 9.80999 5.64 11.9C5.64 13.57 5.98 15 6.66 16.17C7.34 17.35 8.21 18.34 9.29 19.15C10.36 19.96 11.56 20.64 12.9 21.19C14.23 21.74 15.58 22.22 16.94 22.64L26.42 25.62C27.41 25.93 28.67 26.35 30.18 26.87C31.69 27.39 33.17 28.18 34.61 29.22C36.05 30.27 37.27 31.65 38.29 33.37C39.31 35.09 39.82 37.29 39.82 39.95C39.82 42.41 39.36 44.74 38.45 46.96C37.54 49.18 36.22 51.14 34.49 52.84C32.77 54.54 30.68 55.9 28.22 56.92C25.76 57.94 22.99 58.45 19.91 58.45C18.81 58.45 17.84 58.44 17.01 58.41C16.17 58.38 15.39 58.32 14.66 58.21C13.93 58.1 13.2 57.99 12.47 57.86C11.74 57.73 10.93 57.53 10.04 57.27C8.99 56.96 7.87 56.59 6.67 56.17C5.47 55.75 4.42 55.54 3.54 55.54C2.76 55.54 2.22 55.7 1.93 56.01C1.64 56.32 1.39 56.74 1.18 57.26H0V40.41V40.37Z" fill="white"/>
<path d="M100.95 57.22H99.78C99.41 56.8 99 56.42 98.53 56.08C98.06 55.74 97.33 55.57 96.33 55.57C95.55 55.57 94.7 55.71 93.78 56C92.86 56.29 91.82 56.61 90.65 56.98C89.47 57.35 88.15 57.67 86.69 57.96C85.23 58.25 83.61 58.39 81.83 58.39C78.54 58.39 75.34 57.79 72.23 56.59C69.12 55.39 66.18 53.43 63.41 50.71C60.85 48.15 58.71 45.12 56.98 41.62C55.26 38.12 54.39 34.07 54.39 29.47C54.39 25.55 55.09 21.82 56.51 18.26C57.92 14.71 59.88 11.57 62.39 8.86C64.9 6.14 67.85 3.99 71.25 2.39C74.65 0.8 78.36 0 82.38 0C84 0 85.44 0.16 86.69 0.47C87.94 0.78 89.07 1.14 90.06 1.53C91.05 1.92 91.97 2.27 92.8 2.59C93.63 2.9 94.45 3.06 95.23 3.06C96.27 3.06 97.02 2.89 97.46 2.55C97.9 2.21 98.31 1.83 98.67 1.41H99.85V17.09H98.99C98.52 15.1 97.92 13.15 97.19 11.21C96.46 9.28 95.44 7.57 94.13 6.08C92.82 4.59 91.16 3.39 89.15 2.47C87.14 1.56 84.64 1.1 81.66 1.1C78.89 1.1 76.51 1.53 74.53 2.39C72.54 3.25 70.87 4.4 69.51 5.84C68.15 7.28 67.07 8.95 66.26 10.86C65.45 12.77 64.84 14.78 64.42 16.89C64 19.01 63.73 21.15 63.6 23.32C63.47 25.49 63.4 27.54 63.4 29.47C63.4 34.96 63.84 39.5 64.73 43.11C65.62 46.72 66.86 49.56 68.45 51.65C70.04 53.74 71.96 55.2 74.21 56.04C76.46 56.88 78.94 57.29 81.66 57.29C85.16 57.29 87.98 56.79 90.12 55.8C92.26 54.81 93.99 53.51 95.29 51.92C96.6 50.33 97.59 48.52 98.27 46.51C98.95 44.5 99.55 42.5 100.07 40.51H100.93V57.2L100.95 57.22Z" fill="white"/>
<path d="M109.25 56.13H117.95V2.51998H109.25V1.41998H134.49V2.51998H125.79V28.15H151.89V2.51998H143.19V1.41998H168.43V2.51998H159.73V56.13H168.43V57.23H143.19V56.13H151.89V29.25H125.79V56.13H134.49V57.23H109.25V56.13Z" fill="white"/>
<path d="M178.07 29.24C178.07 25.06 178.89 21.19 180.54 17.64C182.19 14.09 184.3 11.01 186.89 8.39001C189.48 5.78001 192.39 3.73001 195.63 2.24001C198.87 0.75001 202.11 0.0100098 205.35 0.0100098C208.8 0.0100098 212.16 0.75001 215.42 2.24001C218.68 3.73001 221.6 5.78001 224.16 8.39001C226.72 11 228.77 14.09 230.31 17.64C231.85 21.19 232.62 25.06 232.62 29.24C232.62 32.9 231.91 36.48 230.5 39.98C229.09 43.48 227.16 46.59 224.7 49.31C222.24 52.03 219.36 54.22 216.04 55.89C212.72 57.56 209.16 58.4 205.34 58.4C201.52 58.4 197.79 57.59 194.45 55.97C191.11 54.35 188.22 52.2 185.79 49.5C183.36 46.81 181.47 43.7 180.11 40.17C178.75 36.64 178.07 33 178.07 29.24ZM187.08 29.24C187.08 33.94 187.39 38.05 188.02 41.55C188.65 45.05 189.69 47.98 191.15 50.33C192.61 52.68 194.49 54.43 196.79 55.58C199.09 56.73 201.94 57.3 205.33 57.3C208.72 57.3 211.51 56.73 213.83 55.58C216.15 54.43 218.05 52.68 219.51 50.33C220.97 47.98 222.02 45.05 222.65 41.55C223.28 38.05 223.59 33.95 223.59 29.24C223.59 25.64 223.35 22.15 222.88 18.78C222.41 15.41 221.51 12.41 220.18 9.77001C218.85 7.13001 216.99 5.03001 214.61 3.46001C212.23 1.89001 209.14 1.11001 205.32 1.11001C201.5 1.11001 198.41 1.89001 196.03 3.46001C193.65 5.03001 191.8 7.13001 190.47 9.77001C189.14 12.41 188.24 15.41 187.77 18.78C187.3 22.15 187.07 25.64 187.07 29.24H187.08Z" fill="white"/>
<path d="M245.23 29.24C245.23 25.06 246.05 21.19 247.7 17.64C249.35 14.09 251.46 11.01 254.05 8.39001C256.64 5.78001 259.55 3.73001 262.79 2.24001C266.03 0.75001 269.27 0.0100098 272.51 0.0100098C275.96 0.0100098 279.32 0.75001 282.58 2.24001C285.84 3.73001 288.76 5.78001 291.32 8.39001C293.88 11 295.93 14.09 297.47 17.64C299.01 21.19 299.78 25.06 299.78 29.24C299.78 32.9 299.07 36.48 297.66 39.98C296.25 43.48 294.32 46.59 291.86 49.31C289.4 52.03 286.52 54.22 283.2 55.89C279.88 57.56 276.32 58.4 272.5 58.4C268.68 58.4 264.95 57.59 261.61 55.97C258.27 54.35 255.38 52.2 252.95 49.5C250.52 46.81 248.63 43.7 247.27 40.17C245.91 36.64 245.23 33 245.23 29.24ZM254.24 29.24C254.24 33.94 254.55 38.05 255.18 41.55C255.81 45.05 256.85 47.98 258.31 50.33C259.77 52.68 261.65 54.43 263.95 55.58C266.25 56.73 269.1 57.3 272.49 57.3C275.88 57.3 278.67 56.73 280.99 55.58C283.31 54.43 285.21 52.68 286.67 50.33C288.13 47.98 289.18 45.05 289.81 41.55C290.44 38.05 290.75 33.95 290.75 29.24C290.75 25.64 290.51 22.15 290.04 18.78C289.57 15.41 288.67 12.41 287.34 9.77001C286.01 7.13001 284.15 5.03001 281.77 3.46001C279.39 1.89001 276.3 1.11001 272.48 1.11001C268.66 1.11001 265.57 1.89001 263.19 3.46001C260.81 5.03001 258.96 7.13001 257.63 9.77001C256.3 12.41 255.4 15.41 254.93 18.78C254.46 22.15 254.22 25.64 254.22 29.24H254.24Z" fill="white"/>
<path d="M309.42 56.13H318.12V2.51998H309.42V1.41998H334.66V2.51998H325.96V56.13H339.91C344.51 56.13 348.11 54.69 350.73 51.82C353.34 48.95 355.25 45.03 356.45 40.06H357.31V57.22H309.42V56.12V56.13Z" fill="white"/>
</svg>
