<svg width="317" height="599" viewBox="0 0 317 599" fill="none" xmlns="http://www.w3.org/2000/svg">
<g clip-path="url(#clip0_2630_10505)">
<g opacity="0.3">
<path d="M4.61999 2.5H311.23L216.66 225.15C250.59 248.05 275.25 273.14 290.66 300.43C306.07 327.72 313.77 360.01 313.77 397.33C313.77 453.03 293.27 500.03 252.28 538.34C211.28 576.65 160.82 595.8 100.88 595.8C67.8 595.8 35 589.58 2.48999 577.14V413.44C27.09 428.71 48.43 436.34 66.53 436.34C86.32 436.34 102.93 429.28 116.36 415.14C129.78 401.01 136.5 383.48 136.5 362.55C136.5 338.52 126.46 319.37 106.39 305.09C86.31 290.82 59.46 283.67 25.81 283.67L68.64 169.59H4.61999V2.5Z" stroke="#C4B797" stroke-width="5" stroke-miterlimit="10"/>
</g>
</g>
<defs>
<clipPath id="clip0_2630_10505">
<rect width="316.28" height="598.3" fill="white"/>
</clipPath>
</defs>
</svg>
