<svg width="425" height="357" viewBox="0 0 425 357" fill="#474747" xmlns="http://www.w3.org/2000/svg">
<path d="M323.4,93.3c-0.1,1.4,2.5,6,1,6.3c-1.7-1.2-2.1,0.1-0.6,1.1c-2.6,3,1.6-1.4,2.7,1c-1.7,0.9,1.2,1.2,0.8,0.1
	c-0.3-1.2-1.8-0.8-1.8-2c-1.1-7.6,4.2-1.2-1.7-9.1c0.7-0.6,3.7-1,2-2.3c-0.4-0.3-0.7-0.5-0.8-1.1c-0.1-0.5,0-0.6,0.4-0.8
	c1.3-0.6-0.9-2.5-0.9-3.6c-1.6-6.4,7.9-0.3,3.1-7.7c2.5,6.7-1.6,1.4-3.6,5.4c-0.2-0.7,0.3-2.3,1.2-2.2c0.5,0.1,0.9-0.4,1-1
	c0-1-0.4-1.8,0-2.8c-1.3,0.8,0.3,2.9-1.1,3.3c-2.3,0.7-1,4.5-1.4,6.4c-0.5,0-0.5-0.9-1-0.8c-0.2,1.3,1.4,2.7,1.7,0.5
	c2.5,2.7-1.9,2.2,1.2,5c-4.9,2.4-1.2,2.2,0.4,5.5c0.2,0.4,0.2,0.5-0.2,0.7c-0.6,0.2-0.6,0.8-0.9,1.3
	C324.2,95.4,324.1,94.2,323.4,93.3L323.4,93.3L323.4,93.3z M335.2,71.3c-0.2-1.8,1.5-4,0.3-5.6c-0.4-0.3-0.4-0.7-0.3-1.2
	c0.4-2.5-3.2-2.6-1.3-4.8c0.8-1.1,1.5-2.1,0.4-3.3c-0.1-0.2,0-0.4,0.2-0.4c0.8,0,0.9-1,1.6-1.3c1.5-0.6,0.5-3.1-0.3-3.9
	c-0.2,1,1.6,3.2-0.3,3.6c-0.6,0-0.4,1-1.1,1c-1.7,0.9,1.7,1.5-1.7,5c-0.9,1.9,3.6,2.2,1.2,4.8c0.1,0.2,0.2,0.5,0.5,0.5
	c2.4,1.1-0.5,4.6,0.2,6.7c0.1,1.6,2.5,1.2,2.4-0.3c0.4-5.6,4.9-2.4,6.9,0.1c-0.8-2.7-5.9-6-7-1.8C337.1,72.3,335.1,74.1,335.2,71.3
	C335.2,71.3,335.2,71.3,335.2,71.3z M327.3,38.6c0.3,1.8,6,6.2,0.6,4.4c-0.7-0.4-1,0.5-0.7,1c0.3,1,1.3,1.6,2.2,1.9
	c2.3,1.6-2.2,0.4-0.5,4.4c0.2,0.8-1.2,0.3-0.9,1.1c0.1,0.2,0.2,0.1,0.4,0.1c3.1,0-0.9-3,1.4-3.8c3.5-1-1.4-2.5-2-3.6
	c-0.4-0.8,0.8-0.3,1.2-0.3c1.1,0.5,2.4-0.1,1.7-1.5c-0.8-1.5-2.6-2.2-3.2-3.8C327.4,38.5,327.4,38.6,327.3,38.6L327.3,38.6z
	 M350.2,63.6c0.4,0.9,1.9,2.2,1.3,3.1c-1,0.6-1.4,2.4-2.7,2.5c-2.5,0-2.8,4.6-0.9,5.6c-1.2-1.1-1-6.2,1-4.5c0.2,0.2,0.5,0.3,0.5,0
	c0.6-1.2,1.3-2.8,2.6-3.2C352.7,66.2,351,64.3,350.2,63.6L350.2,63.6z M335.7,25.9c-3.2,1.4-3.8,2.7-1.9,5.8
	c0.2,0.5,1.2,1.4,0.6,1.8c-2.2,0.5-2.3,4.3-4.5,4.3c1.6,1.5,2.8-4,5.1-3.9c0.3-0.2,0.4-0.4,0.1-0.7c-0.9-1.4-2.1-2.8-2-4.5
	C333.2,27,335.6,27.7,335.7,25.9z M329.5,52.6c0.9,1.8,5.2,7.7,0.7,7.3c4.2,2.5,1.8-7.6,1.9-9.5c-0.2,2,0.2,3.6-0.1,5.7
	C331.3,54.8,330.6,53.5,329.5,52.6z M343,39.8c2.4,1.8,2-2.6,0.2-2.5c-1.1,0.2-2-0.5-2.1-1.6c-0.1-1.2,1.9-0.9,0.9-2.4
	c-0.2-0.6-0.9-0.8-0.7-1.5c0.1-0.4,0.3-0.9,0-1.3c-1.7,2.1,1.2,2.9,0.2,3.9c-0.6,0.1-0.8,0.3-0.8,1c0.1,2.2,1.6,2.2,3.2,2.6
	C344.8,39,344.6,40.4,343,39.8z M352,89.5c-1.9,2.5-3.8-2-6-0.6c-1.5,0.3-1.7,1.8-2.5,2.8c-0.1,0.3-0.5,0.8-0.2,1.1
	c1.4-1.8,2.4-5.5,5.4-2.9C349.5,90.8,352.3,91.1,352,89.5L352,89.5z M336.1,109c-0.5-1.3-1.2-2.4-2.4-2.9c-0.4-0.4,0.5-0.9,0-1.2
	c0-0.1-0.1-0.1-0.1-0.1c-0.5,0.3-0.6-0.6-1.1-0.6c-0.5,2.1,2.6,3.2,3.5,4.9C336,109,336.1,109,336.1,109L336.1,109z M334.3,15.1
	c0.5,0.1,0.2,0.7,0.4,1c0.3-0.1,0.3-0.5,0.5-0.8c0.3-1.1,0.9,0.3,1,0.8c0-0.5,0.2-1,0-1.5c-0.3-0.2-0.2-0.4-0.1-0.6
	c0.3-0.9,0.8-1.7,0.3-2.6C336.6,13.2,335.6,14.1,334.3,15.1L334.3,15.1z M334.5,23.7c1.2,0,1.1-4.8,0.1-5.2c-0.3,0.1-0.1,0.5,0,0.8
	C335.3,20.6,334.7,22.2,334.5,23.7z M338.4,31.6c-1.3,0.4-1.1-2.5-0.4-3.3c0.2-0.2,1-0.5,0.5-0.9C336.4,27.7,337.5,35.3,338.4,31.6z
	 M321.4,88.8c-0.4,1,0.5,3.5,1.5,3.9C322.8,91.4,321.8,90.2,321.4,88.8L321.4,88.8z M330.8,22.2c1.8-0.5,1.8-2.3,1.7-3.8
	C332.2,19.8,332.1,21.2,330.8,22.2z M352.6,86.7c0.5-0.6,1.6-1.4,1.2-2.3C353.6,85.3,352.7,85.7,352.6,86.7z M250.3,136.9
	c6.7,0.8,14.4-0.8,21.4-0.4c-0.8,0.4-1.7,0.5-2.6,1c6.3-1.1,12.8-2.1,19.3-1.5c-6.3,0.8-13.5,1.3-20,2.1c0.1-0.1,0.2-0.2,0.4-0.5
	c-1.5,0-2.7,0.9-4,1.4c-1.7,0.1-5.9,1.9-1.5,1.5c-0.4-0.1-0.8,0-1.1-0.4c0.1-0.1,0.2-0.3,0.3-0.3c1,0.1,2.1-1.1,3.1-0.2
	c5,1.1,10.6-0.6,15.8-0.3c8-0.2,16,0.6,24,0.2c4.2,0.3,3.2-1.6-0.4-0.9c0.4,0.1,1,0,1.3,0.2c-7.1,1.1-14.9-0.1-22.3,0.2
	c-5.8-0.6-12.6,1.7-18,0.2c16-3.4,32.8-2.9,49-1.3c-1.4,0.6-3.3-0.2-4.5,0.4c3.4,0.6,7.4-0.4,11.1,0c-0.2,0.2-0.4,0.2-0.5,0.3
	c1.5,0.6,4.6-0.4,5.4,0.9c0.3-0.5,1.7-0.7,1.9-0.1c0,0.3,0.4,0.5,0.5,0.1c1.4-6.3,1.8-13.2,2.7-19.9c1.1,2.9,0.1,5.7,0.1,8.6
	c1.6-2.9,0-8.5,2.8-10.2c0.2,6.1-1.2,12.5,0,18.4c0.8-0.8-0.4-3.2,1-3.3c3,0,6.1,0.3,9.1,0.5c7.4,0.3,14.7,1.3,22.1,0
	c-9.1,0.7-19.2,0.2-28.3-1c15.7-1.9,32-2.3,47.4-5.8c0.2-0.3-0.1-0.9-0.4-0.4c-0.4,0.8-1.3,0.4-2,0.6c-1.7,1-3.8,0.7-5.7,1.1
	c-14.1,1.9-28.4,3.1-42.6,4.2c-1.1-2.7-0.3-7-0.1-10.1c0.1-0.3-0.1-0.8,0.2-1c0.7,0.2,0.4,2.4,1.2,2c0.8-0.9,1.4-2.1,2.4-2.8
	c0.2,0.4,0.5,0.6,0.9,0.4c1.7-0.1,3.2,1.5,4.4,2.6c0.9,0.7,1.5-1.4,2.5-1.4c1-0.2,1.5-1.6,2.5-1.6c0.3,0,0.5,0,0.6-0.4
	c0-0.2,0.2-0.1,0.3-0.1c0.5,0.3,1.1,0.4,1.6,0.1c3-2,6.9,4.1,8.7-0.9c0.2-1.4-3.6-0.5-4.6-2.6c-4.2-4.7,3.5-2.5,1-7.4
	c-1-2.9,2-2.8,3.8-3.5c1.4-0.4,1-2.6,2.7-2.5c-1.5-2.5-6.3-4.2-8.5-6.8c-0.7-1,0.6-1,1.2-1.2c5.1-1.7,6.2-7.4,0.8-9.8
	c-1.1-0.3-0.3-1.6-1.1-2c-1.2-1.2-3.2-1.9-3.4-3.8c-0.2-0.4-0.6-0.9-1-1.1c0.4,2.3,2.1,3.6,3.8,4.9c0.7,0.4-0.2,1.4,0.6,1.8
	c6.4,2.5,5.1,9-1.4,9.6c-2.1,2.5,6.5,5.8,7.9,7.9c-0.5,0.3-0.9,0.5-0.9,1.3c-0.4,2.5-4.5,1.2-5.1,3.5c-0.6,1.5,1.5,3.7,0,4.7
	c-4.7,0.7-0.8,6.2,2.1,6.6c1.8-0.2,1.4,1.3,0.2,1.9c-2.3,0.6-4.2-2.5-6.6-1.3c-1.6,1.5-4.5-2.6-4.5,0.2c0.2,0.8-1.1,1.4-1.1,0.6
	c0.7-2-0.8-0.6-1.2,0.3c-0.8,1.3-2.3,0-3.5,0.3c-1.4-0.1-0.1-1.8-1.9-2.1c1.7-0.8-0.5-1.8-0.8-2.8c0.3,0,1.4,0.2,1-0.3
	c-0.6-0.1-1.1,0.1-1.5-0.5c3.1-2.1,7.2-0.4,3.9-5.4c2.9-0.8,3.5-0.9,3.8-4.3c-0.9,1.9-1.2,4-3.8,3.6c-0.4,0-0.8,0.2-0.9,0.7
	c0.4,0.7,2.5,2.5,1.4,3.5c-1.6,0.3-3.3,1-4.8,1.5c-1.1,0.8-0.4-1.4-2.8,0.2c0,0,0,0,0,0c-1.1,0.4-1.8-0.7-2.1-1.7
	c-1.5,2.2-0.9-1.7-1.7-2c-0.4,0.5,0.7,1.4,0.2,1.9c-0.5,0.5,0.4,0.6,0.3,1.1c-0.8,0-1.6,1.9-2,0.2c0.3-0.2,0.6,0.1,0.7-0.3
	c0.2-0.4,0.5-0.6,0.4-1c-0.5-1-0.6-2.4-1.4-3.1c0.2,0.7,0.3,1.4,0.5,2.2c-0.8-0.3-1.8-1.9-1.4-2.7c0.6-0.8,0-1.7,0.4-2.5
	c0.5-1.1-0.9-0.5-1-1.4c-0.2-0.6-0.1-1.4-0.6-1.7c0.2-0.7,1.6-0.9,1-1.7c-0.6-0.9-0.2-1.8,0.1-2.6c1-2.7,5.9-0.1,4-4.2
	c-0.6-1-0.9-2.6-2.2-2.9c-0.6,0-1.4-1.2-0.8-1.7c0.4-0.3,1.3-0.1,1.3-0.7c-0.1-0.4-0.4-0.2-0.6-0.1c-1.8,0.2-1.9,2.5-0.3,3.1
	c-0.7,0.5,0.1,0.9,0.6,0.7c0.2,0,0.5-0.3,0.7,0c3.7,6.5-3.2,1.4-3.8,7.1c-2.2-1.8,1.3-3,0.4-4.5c-1.9,2.8-2.2,2.7-0.5,5.6
	c0.1,0.4,0.1,0.7-0.2,0.9c-0.5,0.4-0.3,1.1-0.2,1.7c-0.5-0.4-0.9-0.8-1.4-0.2c-0.4,0.5-1,0.6-1.5,0.8c-1.8-2-2.6-1.9-2.9,1.1
	c-0.3-0.5-0.4-0.6-0.9-0.5c-0.7,0.1-0.8-1-1.5-1c-0.7-0.8,1.2-2.2,1.5-3.1c0.3-0.5,0.7,0,1.1,0.2c0-0.4-0.2-0.4-0.3-0.6
	c-0.5-0.9,0.5-2,0.8-2.8c0.3-1.2-1.4-3.7-1.8-1.4c0.1,0.8,0.8,0.4,0.6-0.3c0.4,0.5,0.8,1.8-0.2,1.3c-0.2-0.1-0.5-0.1-0.6,0.2
	c-0.3,0.6-1,0.1-1.5,0.2c-0.4,0-0.7,0.1-0.9,0.6c-0.3,0.7-1,0.4-1.5,0.5c-0.9-0.3,0.6-1.7,0.8-2.3c0.4,0.4,0.7,0.5,0.8,0.5
	c-0.8-1-1.1-2.2-2-3.2c-0.6-0.8,0.4-2,0.2-3c0.4-1.2,2.3,1.9,3,0.3c0.1-0.5-0.2-1.2-0.5-1.5c0.1,2.2-0.9,0.9-2.1,0.3
	c-1.9-1.9,1.5-5.4,3.7-4.7c0.1,0.9-1.1,1.4-1.6,2.1c-0.8,2.1,3,3.1,3.1,5.4c-5.5-2.1-4.4,0.4-1,2.5c-1.6-2.4-3.8-3.2,1.1-2
	c2-0.7-2-4-2.8-4.9c-0.5-1.3,2.2-1.7,1.9-3.2c0-1.1,1.4,0.3,2,0.3c-0.2-0.9-1.4-1-1.7-1.8c0-0.6-1.2-1.9-0.5-2.2
	c0.4,0.1,1.6,0.7,1.2-0.2c-0.2-0.2-0.3-0.4-0.1-0.8c-0.2-0.8-0.9-1.5-1.2-2.3c3.3,0.5,3.4-1.2,2-3.8c3.1,0.7-1-5.4,1.8-5.2
	c1.4,0.1,5,1.7,3.3-1.1c-0.1-0.2-0.1-0.5,0.2-0.4c2.7,1.2,2.4-0.9,1.8-2.8c-0.2-0.4-0.1-2.3-0.8-1.2c-0.1-1.6-1.7-2.3-2.2-3.7
	c0.1-1.3-1.8-3.8-0.1-4.3c1.3-0.6,1,1.6,1.5,2.4c0.5,1,0.5,2.2,0.1,3.2c2.4,0-0.8-4.5-0.6-5.8c0.5-2.4-1.6-4.5-1.7-6.6
	c2,0.9,0.4-2.7,1.2-3.5c0.4-1.2-1.2-2.1-1.4-3.3c-0.3-0.8,0.7-1.3,0.4-2.1c0-0.2-0.1-0.5,0.1-0.7c0.4-0.6,0-1.5,0-2.2
	c-0.4-1.4,0.6-3.1,1.4-1c-0.9,0.4-0.8,0.3-0.5,1.4c-0.2-1.2,0.9-0.8,1.7-1.1c0.6-0.6-0.5-1.8-0.9-2.3c-0.9-0.9,0.9-1.6,1.1-2.5
	c-1.6,1.1-2.2,2-0.8,3.6c0.4,0.4,0.1,1.6-0.3,0.6c-0.3-1.1-2.6-2.5-1.1-3.6c0.8-0.8,2.2-0.7,2.2-2.1c0.1-1.6-1.5-4.8,0.1-5.8
	c0.1,0.4-0.2,0.6-0.2,1c2-2.3-1.2-2.2-0.8,0.4c0,0.7,0.6,1.4,0.2,2.2c-0.4-0.6-0.9-0.9-0.9-1.6c0-0.3-0.1-0.4-0.3-0.5
	c-0.6-0.1-0.9-0.5-0.6-1.2c0.7-1.6-1.2-4,1-4.7c5.1-1,2.9-3,5.4-4c2.4-1.4-0.4-5.3,1.6-7.4c0.3-1-2-1.1-0.9-2.4
	c2.5-3,6.8-3.8,5.3,1.5c-0.1,2.3,0.5,4.8,0.3,7.3c0.4,3.3-0.2,9.3,3.1,10.9c0.6,0.1,1.5-0.3,1.7,0.5c-0.3,4.3,0.2,2.6,3,4.9
	c0.7,0.8-0.1,1.6-0.8,2c-2.4,3,5.8,3.9,4.9,6.9c-1.6,7.8-3.9,6.1,2.6,12c0.1,2.2-2.8,3.7-2.7,6.3c-1.1,1.7-3.4,0.7-1.2,3.9
	c-1.2-3.6,0.5-1.5,1.6-3.5c0.4-1.1,0.3-2.7,1.3-3.4c0.5-0.3,0.9-0.8,1.1-1.4c1.7-2.4,0.3-1.8-1.2-3.6c-0.9-1.3-3.8-2.8-2.4-4.5
	c0.5-0.1,0.6-0.5,0.6-1c0.1-1.5,0.2-3.3,1-4.6c0.3-0.3,0.3-0.5,0.1-1c-0.8-2.4-6-3.2-5.3-5.7c2.6-1.5,0.7-3.8-1.4-4.4
	c-1.2-0.6-0.3-2.3-0.5-3.4c-1.8-1.9-3.4,1.9-4.3-4.8c0.8,0.7,0.7,1.7,1.4,2.4c-0.2-1.2-0.7-2.3-1.2-3.4c-1.5-2.8,0-6.7,0.2-9.8
	c0-0.5-0.4-0.5-0.7-0.8c-0.9-1.3,0.1-3.3-0.3-4.9c-1.1-0.8-0.7-3.1-1.9-3.7c-0.8,0.6,0.6,2.5-0.8,2.5c-1.5,0.4-5.1,1.8-4,3.9
	c0.3,0.5,1.1,1,0.7,1.5c-1.1,1.7-0.3,3.9-0.5,5.7c0,1.5-1.6,0.1-1.8,1.5c-0.5,2.7-3.1,2.7-5,3.9c-1.4,1,0.1,3-0.4,4.3
	c-0.4,1.1-0.6,2.8-1.9,3.1c-0.4-0.1-0.6,0.2-0.8,0.6c-2,6.2,1.1,12.5,2.6,18.3c0,0.9-1.2,1.3-0.8,2.2c0.3,1.6-1.6,2.9-0.5,4.6
	c1.1,2.1,0.1,4.6,1.1,6.8c0,0.5-0.6,0.7-0.2,1.2c1,1.4-0.3,2.3-0.6,3.7c-0.1,0.5-0.1,0.5-0.5,0.6c-0.5,0.1-0.9,0.4-0.8,1
	c0.5,2.7-3.5,1.7-3,5.1c0,0.5-0.1,0.9-0.5,1.2c-8.1,9.9,6.6,7.6-6.4,11.8c-4.5,2.5-1.3,1.8-2.3,4.6c-1.1,2.7-1.5,5.8-3,8.4
	c-0.7,1.2-0.9,2.5,0.7,3c1.3,0.8,2.2,2.3,3.5,3c0.7,0.4-0.1,1.3-0.2,1.8c0,1.9,2.4,3.8,3.4,5.6c1.7,0-3.6-4.3-2.6-5.6
	c0.5,0.2,0.5,1.1,1.1,1.2c0.5,0,0-0.5,0.2-0.8c0.7,0.2,0.9,1.2,1.2,1.8c0.9,0.5,1.1,2.7,2.1,2.7c1.3-0.5,1.5,0.8,2.9-0.8
	c0.7-0.2,0.9,1,1.4,1.4c1.5,1.4,1.6-2.8,2.3-1.8c2.5,6.9,5.7,13.7,3.2,21c-0.4,1.8-2.7,0.9-4,1.4c-11-0.4-22.1-1.9-33.2-2.1
	c9.5,1.1,19.9,0.5,28.9,2.7c2.5-0.2,4.9,0,7.4,0.5c0.8,0.6-0.2,1.9,0,2.7c-0.1,0.8-0.6-0.2-0.9,0c-1.3,0.6-2.8-0.1-4.2,0.3
	c-1.8-0.1-4.1,0.1-5.6-0.6c-15.6-4.2-33-4.1-49-1.2c4.3-0.4,9-1.9,12.9-0.8c0.7-1.2,6.2-0.7,8-0.9c3.1,0.1,6.3,0.1,9.4,0.5
	c0,0,0.1,0.1,0.1,0.1c0,0.5,0.2,0.4,0.5,0.4c1.6-0.1,3.2,0.2,4.5-0.5c0.8,0.1,8.5,0.8,5.8,1.6c-0.5-0.2-0.6,0.4-1.2,0.3
	c-0.3,0.1-0.3-0.4-0.6-0.5c-6.4,1.1-13.8-0.5-20.6,0.3c-8.2,0.1-16.5-1.1-24.3,0.4c3.3,0,6.9,0,10.1,0.4c-6.3,0.8-12.6,0.6-19,0.9
	c0.2-0.2,0.3-0.3,0.5-0.4c-0.9,0.1-2.1-0.1-2.6,0.6L250.3,136.9z M324.7,40.8c0-0.4,0.5-0.4,0.7-0.2c0.4,0.5-0.1,1-0.3,1.5
	C324.8,41.7,324.8,41.2,324.7,40.8z M325.8,32.4c-0.1-0.2-0.5-0.5-0.5-0.1c0.2,0.8-0.4,1.5-0.3,2.4c0,0.8,0.7,1.9,0,2.6
	c-1.1,0.9,0.9,2.5-0.7,3c-0.5-3.6-2-8.4-0.2-11.5c0.9,0.1,1.3-0.9,1.8-1.6c1.1-0.6,2.7,2.3,2.5,3.6
	C328.4,31.7,326.2,33.3,325.8,32.4L325.8,32.4z M325.6,39.4c-0.6-0.3-0.9-1.8-0.1-1.9C325.6,38.2,326.1,38.9,325.6,39.4z M325,53.6
	c-0.4-0.7-0.1-2.7,0.7-2.6c0.4,1.3,2.8,4.9,0.2,4.9C325.6,55.1,325.3,54.4,325,53.6L325,53.6z M316.8,108.7c0.5,0,0.6,0.9,1,0.7
	c0.1-1.1-0.4-1.5,1.1-2c0.6-0.1,0.3,1.4,0.2,1.8C318,110.8,317.3,110.5,316.8,108.7L316.8,108.7z M310.8,93.9c-0.5,2.1-1,4.4,0,6.5
	c0.5,0.4,1.1,0.3,1.2,1.1c0.2,1.1,1,0.2,1.7,0.4c-0.7,1.1,0.6,1.8-0.2,2.8c-0.2-0.5-0.1-0.9-0.6-1c-6.7-4.7-4.2-3.5-2.1-10.2
	C310.9,93.7,310.8,93.8,310.8,93.9z M327.5,65.9c-3.2,0.3-1.6-0.2-1-2.3C326.9,64.4,327.1,65.1,327.5,65.9L327.5,65.9z M326.9,67.2
	c0.7-0.1,1.2,1.4,1.8,0.9c-0.4-1.5-1.4-1.1,0.3-2.8C330.2,67.9,329.1,70.2,326.9,67.2L326.9,67.2z M322.8,70.5
	c-0.3,0.7-1.2,0.7-1.6,1.5c-0.2-2.7,2.4-2,3.7-3.5c0.5,1.9,1.3,0.9,1.3-0.5C329.8,73.3,323.8,67.8,322.8,70.5z M320.3,77.5
	c0.2-1.4,2.5-8.3,2.6-3.6c0.2,1.4-1-0.2-1.4,0.5c-0.2,1.1,2.6,4.1,0.3,4.3C321.2,78.4,319.9,78.5,320.3,77.5L320.3,77.5z
	 M318.9,81.1c-2.1-2.3,0.1-5.5,1.8-7.3c-0.4,1.8-2.2,3.8-1.8,5.7C320.2,80.5,321.6,82.9,318.9,81.1L318.9,81.1z M315.1,88.5
	c-0.3,0.3-0.4-0.4-0.5-0.6c0,0-0.1,0-0.1,0.1c0.3,0.5,1.2,3.3,0.1,2.3c0.2,5,0.4,2.1-2.3,5.2c-0.6,1.7,1.2,2.5-1.1,3.1
	c-0.3,0.2-0.3,0.2-0.4-0.2c-0.5-1.7,0.5-3.6,0.2-5.3c-0.5-0.1,0.1-0.6,0.2-0.9c0.1-1.2,1.3,0,1.2-1.1c0-0.4-0.3-0.9,0-1.3
	c0.3-0.3,0.3-0.4-0.1-0.7c-0.4-0.3-0.4-1-0.6-1.4c1.2-2.7,5-2.5,7.3-4c0.1,0.6,0.2,1.2,0.6,1.5c0.1,0.1,0.1,0.3-0.1,0.4
	C317.5,85.6,316.3,86.9,315.1,88.5L315.1,88.5z M316.2,101.9c0,0,0,0.1-0.1,0.1c-4.4-2.2-0.5-2.8-1.4-4.6c-1.2,0.5-0.9,2.8-2.3,2.9
	c-0.4,0-0.5-0.5-0.7-0.8c-0.5-1.4,2.2-0.1,1.3-1.8c-0.6-0.9-0.6-3.1,0.8-2.8c0.2,0.3,0.4,0.2,0.6,0.1c0.8-0.9,1.3,0.1,1.5,1
	c-0.4-0.1-0.8-0.2-1.2-0.3c0,0.1,0,0.1,0,0.2C319,97.2,312.8,99.6,316.2,101.9L316.2,101.9z M316.1,105.4c-0.6,0.8-2.5-1.1-1.5-1.3
	C315.1,104.2,316.6,104.7,316.1,105.4L316.1,105.4z M317.9,101.4c-0.1,1.4-1.9-0.8-1.3-1.1C317.3,100.1,317.8,100.5,317.9,101.4z
	 M318.8,103.7c-0.7,0.7-0.5-0.6-0.4-1c0.2-0.6,1.1-0.6,0.7-1.4c-0.3-0.8-1.7-2.3,0.2-2c0.8,0.2-0.3,0.9,0,1.4c0.4-0.4,0.7-0.8,1-1.1
	C321.4,101.1,319.4,102.4,318.8,103.7z M319.3,106.3c-0.2,0.7-2.2,1.7-2.6,0.7c0.5-0.4,1-0.4,1.2-1.2
	C318,104.8,319.4,105.6,319.3,106.3L319.3,106.3z M322.3,110.8c0.8-0.9,1.3-1.7,1.2-3c0.1,0,0.1,0,0.2,0
	C324.1,108.4,322.9,111.9,322.3,110.8L322.3,110.8z M323.6,106.2c-0.6-0.1-1.3,0.6-1.4-0.6c0-0.3,0.1-1.3,0.7-1.1
	C323.4,104.5,324.6,106.1,323.6,106.2L323.6,106.2z M348.3,119.5c0.1-0.4,0.7-0.2,0.8,0.1c0,0.4-0.4,0.4-0.8,0.6
	C348.4,120,348.3,119.7,348.3,119.5L348.3,119.5z M344.8,122.2c0.2-0.1,0.3-0.1,0.5-0.2c0.5,0.1,0,0.6-0.2,0.8
	C344.7,123.1,344.3,122.3,344.8,122.2z M337.6,119.2c-1.5,0.3-1.1-3.5-0.4-4c1.1,0.3,2.4,1.8,2.8,2.9
	C339.2,118.1,338.4,118.6,337.6,119.2L337.6,119.2z M336,120.5c0.5,0.4,1.2,0.2,1.5,0.7C337,123,336.1,121.9,336,120.5L336,120.5z
	 M335,115.5c0.2-0.2,0.5-0.2,0.6-0.6c1.4,0.1,0.8,1.6,0.6,2.6C335.8,117.2,335.1,116,335,115.5z M326.7,109.1
	C330.2,113.1,324.9,110.2,326.7,109.1L326.7,109.1z M328,109.8c-0.5-0.4-0.8-0.8-0.9-1.4C328.2,108,328.2,109,328,109.8z
	 M329.2,115.2c-0.1,0.4,0,0.9,0,1.5c-0.7-1.1-1.9-4.3-1.9-5C328.8,111.8,329.4,113.9,329.2,115.2z M329.8,126.5
	c0.2-0.4,0.4-0.8,0.6-1.3c0.2,0.7,0.1,1.6-0.1,2.1C330.2,127.1,330,126.8,329.8,126.5z M329.9,130c0.2,1.9-0.2,3.3-0.6,5.1
	C329,133.3,329.3,131.7,329.9,130z M328.7,130.3c-0.2,1.5-0.2,3.2-0.8,4.6c0-2.4,0.5-4.8,1-7.2C329.7,128.4,328.8,129.5,328.7,130.3
	L328.7,130.3z M327.8,137.2c0,0,0-0.1-0.1-0.2c0.6-0.4,0.2-1.3,0.9-1.8C328.5,136.1,329.2,138,327.8,137.2z M323.7,137.8
	c0.6-0.7,1.9,0,2.7,0.1l0,0.2C325.6,138,324.2,138.4,323.7,137.8L323.7,137.8z M309.7,136.6c4.1-0.5,8.3,0,12.4,0.5
	c0,0.1,0,0.1,0,0.2c-3.9,0.7-8-0.4-11.9-0.3C309.9,137.1,309.8,136.9,309.7,136.6L309.7,136.6z M306.2,136.6c1-0.3,2-0.2,2.9,0
	c0,0.1,0,0.1,0,0.2C308.2,136.9,307.2,136.8,306.2,136.6L306.2,136.6z M299.7,136c0.3-1,8.4-0.9,8.7,0.1c-2.8,0.4-5.8,0.3-8.7,0.1
	C299.7,136.1,299.7,136,299.7,136L299.7,136z M287.9,135.4c0.7-0.3,3.5-0.3,4.8-0.1C291.1,135.9,289.5,135.6,287.9,135.4
	L287.9,135.4z M271.8,135.3c-0.5,0.1-1,0.1-1.4-0.2c2.1,0,4.4-0.4,6.4,0.2C275.1,135.8,273.4,135.1,271.8,135.3L271.8,135.3z
	 M327,88.8c0.6,0.7,1.3,0.7,2,0.7C328.5,89.1,327.6,89.1,327,88.8z M338.9,33.6c0.7,0,0.8-0.4,0.6-1.4
	C339.5,33,339.5,33.2,338.9,33.6z M213.5,101.9c-0.1,1,2.5,4.5,1,4.7c-1.7-0.9-2.1,0.1-0.6,0.8c-2.6,2.3,1.6-1,2.7,0.7
	c-1.7,0.7,1.2,0.9,0.8,0c-0.3-0.9-1.8-0.6-1.8-1.5c-1.1-5.7,4.2-0.9-1.7-6.8c0.7-0.5,3.7-0.7,2-1.7c-0.4-0.2-0.7-0.4-0.8-0.8
	c-0.1-0.4,0-0.5,0.4-0.6c1.3-0.5-0.9-1.9-0.9-2.7c-1.6-4.8,7.9-0.2,3.1-5.8c2.5,5-1.6,1-3.6,4c-0.2-0.6,0.3-1.7,1.2-1.6
	c0.5,0.1,0.9-0.3,1-0.7c0-0.7-0.4-1.4,0-2.1c-1.3,0.6,0.3,2.2-1.1,2.5c-2.3,0.5-1,3.4-1.4,4.8c-0.5,0-0.5-0.7-1-0.6
	c-0.2,1,1.4,2,1.7,0.4c2.5,2.1-1.9,1.7,1.2,3.8c-4.9,1.8-1.2,1.6,0.4,4.1c0.2,0.3,0.2,0.4-0.2,0.5c-0.6,0.1-0.6,0.6-0.9,1
	C214.3,103.5,214.2,102.5,213.5,101.9L213.5,101.9L213.5,101.9z M225.2,85.4c-0.2-1.4,1.5-3,0.3-4.2c-0.4-0.3-0.4-0.5-0.3-0.9
	c0.4-1.9-3.2-1.9-1.3-3.6c0.8-0.9,1.5-1.5,0.4-2.5c-0.1-0.1,0-0.3,0.2-0.3c0.8,0,0.9-0.8,1.6-1c1.5-0.5,0.5-2.3-0.3-2.9
	c-0.2,0.8,1.6,2.4-0.3,2.7c-0.6,0-0.4,0.8-1.1,0.8c-1.7,0.7,1.7,1.1-1.7,3.8c-0.9,1.4,3.6,1.7,1.2,3.6c0.1,0.2,0.2,0.4,0.5,0.4
	c2.4,0.8-0.5,3.4,0.2,5c0.1,1.2,2.5,0.9,2.4-0.2c0.4-4.2,4.9-1.8,6.9,0.1c-0.8-2-5.9-4.5-7-1.3C227.1,86.1,225.2,87.5,225.2,85.4
	C225.3,85.4,225.2,85.4,225.2,85.4z M217.4,60.9c0.3,1.4,6,4.7,0.6,3.3c-0.7-0.3-1,0.4-0.7,0.8c0.3,0.7,1.3,1.2,2.2,1.4
	c2.3,1.2-2.2,0.3-0.5,3.3c0.2,0.6-1.2,0.2-0.9,0.8c0.1,0.2,0.2,0.1,0.4,0.1c3.1,0-0.9-2.3,1.4-2.8c3.5-0.7-1.4-1.8-2-2.7
	c-0.4-0.6,0.8-0.3,1.2-0.2c1.1,0.4,2.4,0,1.7-1.1c-0.8-1.1-2.6-1.6-3.2-2.9C217.5,60.8,217.5,60.9,217.4,60.9L217.4,60.9z
	 M240.2,79.6c0.4,0.7,1.9,1.6,1.3,2.4c-1,0.5-1.4,1.8-2.7,1.9c-2.5,0-2.8,3.4-0.9,4.2c-1.2-0.8-1-4.7,1-3.4c0.2,0.2,0.5,0.2,0.5,0
	c0.6-0.9,1.3-2.1,2.6-2.4C242.7,81.5,241.1,80.2,240.2,79.6L240.2,79.6z M225.8,51.4c-3.2,1.1-3.8,2-1.9,4.3c0.2,0.4,1.2,1,0.6,1.3
	c-2.2,0.4-2.3,3.2-4.5,3.2c1.6,1.1,2.8-3,5.1-2.9c0.3-0.1,0.4-0.3,0.1-0.5c-0.9-1-2.1-2.1-2-3.4C223.3,52.2,225.6,52.7,225.8,51.4z
	 M219.6,71.4c0.9,1.4,5.2,5.7,0.7,5.5c4.2,1.9,1.8-5.7,1.9-7.1c-0.2,1.5,0.2,2.7-0.1,4.3C221.3,73,220.7,72.1,219.6,71.4z M233,61.8
	c2.4,1.3,2-1.9,0.2-1.9c-1.1,0.2-2-0.4-2.1-1.2c-0.1-0.9,1.9-0.7,0.9-1.8c-0.2-0.5-0.9-0.6-0.7-1.1c0.1-0.3,0.3-0.7,0-1
	c-1.7,1.6,1.2,2.2,0.2,2.9c-0.6,0.1-0.8,0.2-0.8,0.8c0.1,1.6,1.6,1.6,3.2,1.9C234.9,61.2,234.7,62.2,233,61.8z M242.1,99
	c-1.9,1.9-3.8-1.5-6-0.5c-1.5,0.2-1.7,1.4-2.5,2.1c-0.1,0.2-0.5,0.6-0.2,0.8c1.4-1.3,2.4-4.1,5.4-2.2
	C239.6,100,242.3,100.2,242.1,99L242.1,99z M226.2,113.6c-0.5-1-1.2-1.8-2.4-2.2c-0.4-0.3,0.5-0.6,0-0.9c0,0-0.1-0.1-0.1-0.1
	c-0.5,0.2-0.6-0.5-1.1-0.4c-0.5,1.6,2.6,2.4,3.5,3.7C226.1,113.7,226.2,113.6,226.2,113.6L226.2,113.6z M224.4,43.3
	c0.5,0,0.2,0.5,0.4,0.8c0.3-0.1,0.3-0.4,0.5-0.6c0.3-0.9,0.9,0.2,1,0.6c0-0.3,0.2-0.8,0-1.1c-0.3-0.1-0.2-0.3-0.1-0.5
	c0.3-0.6,0.8-1.3,0.3-2C226.6,41.9,225.6,42.6,224.4,43.3L224.4,43.3z M224.5,49.7c1.2,0,1.1-3.6,0.1-3.9c-0.3,0.1-0.1,0.4,0,0.6
	C225.4,47.4,224.8,48.6,224.5,49.7z M228.5,55.7c-1.3,0.3-1.1-1.9-0.4-2.4c0.2-0.2,1-0.4,0.5-0.6C226.5,52.8,227.6,58.4,228.5,55.7z
	 M211.5,98.5c-0.4,0.7,0.5,2.6,1.5,2.9C212.8,100.4,211.9,99.6,211.5,98.5L211.5,98.5z M220.8,48.6c1.8-0.4,1.8-1.7,1.7-2.8
	C222.3,46.8,222.2,47.9,220.8,48.6z M242.7,96.9c0.5-0.5,1.6-1.1,1.2-1.7C243.6,95.9,242.7,96.2,242.7,96.9z M140.4,134.6
	c6.7,0.6,14.4-0.6,21.4-0.3c-0.8,0.3-1.7,0.4-2.6,0.7c6.3-0.8,12.8-1.6,19.3-1.1c-6.3,0.6-13.5,1-20,1.6c0.1-0.1,0.2-0.2,0.4-0.4
	c-1.5,0-2.7,0.7-4,1c-1.7,0.1-5.9,1.4-1.5,1.1c-0.4-0.1-0.8,0-1.1-0.3c0.1-0.1,0.2-0.2,0.3-0.2c1,0.1,2.1-0.8,3.1-0.1
	c5,0.8,10.6-0.5,15.8-0.3c8-0.1,16,0.4,24,0.1c4.2,0.2,3.2-1.2-0.4-0.7c0.4,0.1,1,0,1.3,0.2c-7.1,0.8-14.9,0-22.3,0.2
	c-5.8-0.4-12.6,1.2-18,0.2c16-2.6,32.8-2.1,49-1c-1.4,0.5-3.3-0.1-4.5,0.3c3.4,0.5,7.4-0.3,11.1,0c-0.2,0.1-0.4,0.2-0.5,0.3
	c1.5,0.4,4.6-0.3,5.4,0.7c0.3-0.3,1.7-0.5,1.9-0.1c0,0.2,0.4,0.4,0.5,0.1c1.4-4.7,1.8-9.9,2.7-14.9c1.1,2.2,0.1,4.2,0.1,6.4
	c1.6-2.2,0-6.3,2.8-7.6c0.2,4.6-1.2,9.4,0,13.8c0.8-0.6-0.4-2.4,1-2.5c3,0,6.1,0.3,9.1,0.4c7.4,0.2,14.7,1,22.1,0
	c-9.1,0.5-19.2,0.2-28.3-0.7c15.7-1.4,32-1.7,47.4-4.3c0.2-0.2-0.1-0.7-0.4-0.3c-0.4,0.6-1.3,0.3-2,0.4c-1.7,0.7-3.8,0.5-5.7,0.8
	c-14.1,1.4-28.4,2.3-42.6,3.2c-1.1-2-0.3-5.2-0.1-7.6c0.1-0.2-0.1-0.6,0.2-0.8c0.7,0.1,0.4,1.8,1.2,1.5c0.8-0.7,1.4-1.5,2.4-2.1
	c0.2,0.3,0.5,0.5,0.9,0.3c1.7-0.1,3.2,1.2,4.4,2c0.9,0.5,1.5-1,2.5-1.1c1-0.2,1.5-1.2,2.5-1.2c0.3,0,0.5,0,0.6-0.3
	c0-0.2,0.2-0.1,0.3-0.1c0.5,0.2,1.1,0.3,1.6,0.1c3-1.5,6.9,3.1,8.7-0.7c0.2-1.1-3.6-0.4-4.6-2c-4.2-3.5,3.5-1.9,1-5.5
	c-1-2.2,2-2.1,3.8-2.7c1.4-0.3,1-1.9,2.7-1.9c-1.5-1.9-6.3-3.2-8.5-5.1c-0.7-0.7,0.6-0.7,1.2-0.9c5.1-1.3,6.2-5.6,0.8-7.4
	c-1.1-0.2-0.3-1.2-1.1-1.5c-1.2-0.9-3.2-1.4-3.4-2.8c-0.2-0.3-0.6-0.7-1-0.8c0.4,1.7,2.1,2.7,3.8,3.7c0.7,0.3-0.2,1,0.6,1.4
	c6.4,1.9,5.1,6.8-1.4,7.2c-2.1,1.9,6.5,4.3,7.9,5.9c-0.5,0.2-0.9,0.4-0.9,1c-0.4,1.8-4.5,0.9-5.1,2.6c-0.6,1.1,1.5,2.7,0,3.5
	c-4.7,0.5-0.8,4.7,2.1,4.9c1.8-0.1,1.4,1,0.2,1.4c-2.3,0.5-4.2-1.9-6.6-1c-1.6,1.1-4.5-1.9-4.5,0.2c0.2,0.6-1.1,1-1.1,0.4
	c0.7-1.5-0.8-0.5-1.2,0.2c-0.8,1-2.3,0-3.5,0.2c-1.4-0.1-0.1-1.3-1.9-1.5c1.7-0.6-0.5-1.3-0.8-2.1c0.3,0,1.4,0.1,1-0.2
	c-0.6-0.1-1.1,0-1.5-0.4c3.1-1.6,7.2-0.3,3.9-4c2.9-0.6,3.5-0.7,3.8-3.2c-0.9,1.4-1.2,3-3.8,2.7c-0.4,0-0.8,0.1-0.9,0.5
	c0.4,0.6,2.5,1.9,1.4,2.6c-1.6,0.3-3.3,0.7-4.8,1.1c-1.1,0.6-0.4-1.1-2.8,0.2c0,0,0,0,0,0c-1.1,0.3-1.8-0.6-2.1-1.2
	c-1.5,1.7-0.9-1.3-1.7-1.5c-0.4,0.3,0.7,1.1,0.2,1.4c-0.5,0.4,0.4,0.5,0.3,0.8c-0.8,0-1.6,1.4-2,0.1c0.3-0.1,0.6,0.1,0.7-0.2
	c0.2-0.3,0.5-0.4,0.4-0.7c-0.5-0.7-0.6-1.8-1.4-2.3c0.2,0.5,0.3,1.1,0.5,1.6c-0.8-0.2-1.8-1.4-1.4-2.1c0.6-0.6,0-1.3,0.4-1.9
	c0.5-0.9-0.9-0.4-1-1.1c-0.2-0.5-0.1-1-0.6-1.3c0.2-0.6,1.6-0.7,1-1.3c-0.6-0.7-0.2-1.3,0.1-1.9c1-2,5.9-0.1,4-3.1
	c-0.6-0.8-0.9-2-2.2-2.2c-0.6,0-1.4-0.9-0.8-1.2c0.4-0.2,1.3-0.1,1.3-0.6c-0.1-0.3-0.4-0.1-0.6-0.1c-1.8,0.1-1.9,1.9-0.3,2.3
	c-0.7,0.3,0.1,0.7,0.6,0.5c0.2,0,0.5-0.2,0.7,0c3.7,4.9-3.2,1.1-3.8,5.4c-2.2-1.3,1.3-2.2,0.4-3.4c-1.9,2.1-2.2,2-0.5,4.2
	c0.1,0.3,0.1,0.5-0.2,0.7c-0.5,0.3-0.3,0.8-0.2,1.3c-0.5-0.3-0.9-0.6-1.4-0.1c-0.4,0.4-1,0.4-1.5,0.6c-1.8-1.5-2.6-1.4-2.9,0.8
	c-0.3-0.4-0.4-0.5-0.9-0.4c-0.7,0.1-0.8-0.7-1.5-0.7c-0.7-0.6,1.2-1.6,1.5-2.3c0.3-0.4,0.7,0,1.1,0.1c0-0.3-0.2-0.3-0.3-0.4
	c-0.5-0.6,0.5-1.5,0.8-2.1c0.3-0.9-1.4-2.7-1.8-1c0.1,0.6,0.8,0.3,0.6-0.2c0.4,0.4,0.8,1.4-0.2,1c-0.2-0.1-0.5-0.1-0.6,0.2
	c-0.3,0.4-1,0.1-1.5,0.1c-0.4,0-0.7,0.1-0.9,0.4c-0.3,0.6-1,0.3-1.5,0.4c-0.9-0.2,0.6-1.3,0.8-1.7c0.4,0.3,0.7,0.4,0.8,0.4
	c-0.8-0.8-1.1-1.7-2-2.4c-0.6-0.6,0.4-1.5,0.2-2.3c0.4-0.9,2.3,1.4,3,0.2c0.1-0.4-0.2-0.9-0.5-1.2c0.1,1.7-0.9,0.7-2.1,0.2
	c-1.9-1.5,1.5-4,3.7-3.5c0.1,0.7-1.1,1-1.6,1.5c-0.8,1.5,3,2.3,3.1,4c-5.5-1.5-4.4,0.3-1,1.9c-1.6-1.8-3.8-2.4,1.1-1.5
	c2-0.5-2-3-2.8-3.7c-0.5-1,2.2-1.3,1.9-2.4c0-0.8,1.4,0.2,2,0.2c-0.2-0.7-1.4-0.7-1.7-1.4c0-0.4-1.2-1.4-0.5-1.6
	c0.4,0.1,1.6,0.5,1.2-0.1c-0.2-0.2-0.3-0.3-0.1-0.6c-0.2-0.6-0.9-1.1-1.2-1.7c3.3,0.4,3.4-0.9,2-2.8c3.1,0.5-1-4,1.8-3.9
	c1.4,0.1,5,1.3,3.3-0.8c-0.1-0.2-0.1-0.3,0.2-0.3c2.7,0.9,2.4-0.6,1.8-2.1c-0.2-0.3-0.1-1.7-0.8-0.9c-0.1-1.2-1.7-1.7-2.2-2.8
	c0.1-1-1.8-2.9-0.1-3.2c1.3-0.5,1,1.2,1.5,1.8c0.5,0.8,0.5,1.7,0.1,2.4c2.4,0-0.8-3.4-0.6-4.4c0.5-1.8-1.6-3.4-1.7-4.9
	c2,0.7,0.4-2,1.2-2.6c0.4-0.9-1.2-1.6-1.4-2.5c-0.3-0.6,0.7-0.9,0.4-1.6c0-0.2-0.1-0.4,0.1-0.5c0.4-0.5,0-1.1,0-1.6
	c-0.4-1,0.6-2.3,1.4-0.8c-0.9,0.3-0.8,0.2-0.5,1c-0.2-0.9,0.9-0.6,1.7-0.8c0.6-0.4-0.5-1.3-0.9-1.7c-0.9-0.6,0.9-1.2,1.1-1.9
	c-1.6,0.8-2.2,1.5-0.8,2.7c0.4,0.3,0.1,1.2-0.3,0.4c-0.3-0.8-2.6-1.9-1.1-2.7c0.8-0.6,2.2-0.5,2.2-1.6c0.1-1.2-1.5-3.6,0.1-4.3
	c0.1,0.3-0.2,0.4-0.2,0.7c2-1.7-1.2-1.6-0.8,0.3c0,0.6,0.6,1.1,0.2,1.6c-0.4-0.4-0.9-0.7-0.9-1.2c0-0.2-0.1-0.3-0.3-0.4
	c-0.6-0.1-0.9-0.3-0.6-0.9c0.7-1.2-1.2-3,1-3.5c5.1-0.8,2.9-2.3,5.4-3c2.4-1-0.4-4,1.6-5.5c0.3-0.7-2-0.9-0.9-1.8
	c2.5-2.2,6.8-2.9,5.3,1.1c-0.1,1.7,0.5,3.6,0.3,5.5c0.4,2.5-0.2,6.9,3.1,8.2c0.6,0.1,1.5-0.3,1.7,0.3c-0.3,3.2,0.2,1.9,3,3.6
	c0.7,0.6-0.1,1.2-0.8,1.5c-2.4,2.3,5.8,2.9,4.9,5.2c-1.6,5.8-3.9,4.6,2.6,9c0.1,1.7-2.8,2.8-2.7,4.7c-1.1,1.3-3.4,0.6-1.2,3
	c-1.2-2.7,0.5-1.1,1.6-2.6c0.4-0.8,0.3-2,1.3-2.5c0.5-0.2,0.9-0.6,1.1-1c1.7-1.8,0.3-1.4-1.2-2.7c-0.9-0.9-3.8-2.1-2.4-3.4
	c0.5-0.1,0.6-0.4,0.6-0.8c0.1-1.1,0.2-2.5,1-3.4c0.3-0.2,0.3-0.4,0.1-0.7c-0.8-1.8-6-2.4-5.3-4.2c2.6-1.1,0.7-2.9-1.4-3.3
	c-1.2-0.4-0.3-1.7-0.5-2.6c-1.8-1.4-3.4,1.4-4.3-3.6c0.8,0.5,0.7,1.3,1.4,1.8c-0.2-0.9-0.7-1.8-1.2-2.5c-1.5-2.1,0-5,0.2-7.4
	c0-0.4-0.4-0.4-0.7-0.6c-0.9-1,0.1-2.5-0.3-3.6c-1.1-0.6-0.7-2.3-1.9-2.8c-0.8,0.4,0.6,1.9-0.8,1.9c-1.5,0.3-5.1,1.4-4,2.9
	c0.3,0.3,1.1,0.7,0.7,1.1c-1.1,1.3-0.3,2.9-0.5,4.3c0,1.1-1.6,0.1-1.8,1.2c-0.5,2-3.1,2-5,2.9c-1.4,0.8,0.1,2.2-0.4,3.3
	c-0.4,0.8-0.6,2.1-1.9,2.3c-0.4,0-0.6,0.1-0.8,0.4c-2,4.7,1.1,9.4,2.6,13.7c0,0.7-1.2,1-0.8,1.6c0.3,1.2-1.6,2.2-0.5,3.4
	c1.1,1.6,0.1,3.5,1.1,5.1c0,0.4-0.6,0.5-0.2,0.9c1,1.1-0.3,1.7-0.6,2.7c-0.1,0.4-0.1,0.4-0.5,0.5c-0.5,0-0.9,0.3-0.8,0.8
	c0.5,2-3.5,1.2-3,3.8c0,0.4-0.1,0.7-0.5,0.9c-8.1,7.4,6.6,5.7-6.4,8.9c-4.5,1.9-1.3,1.4-2.3,3.4c-1.1,2-1.5,4.3-3,6.3
	c-0.7,0.9-0.9,1.9,0.7,2.3c1.3,0.6,2.2,1.7,3.5,2.3c0.7,0.3-0.1,1-0.2,1.3c0,1.4,2.4,2.8,3.4,4.2c1.7,0-3.6-3.2-2.6-4.2
	c0.5,0.1,0.5,0.8,1.1,0.9c0.5,0,0-0.4,0.2-0.6c0.7,0.2,0.9,0.9,1.2,1.3c0.9,0.4,1.1,2,2.1,2c1.3-0.4,1.5,0.6,2.9-0.6
	c0.7-0.1,0.9,0.8,1.4,1c1.5,1,1.6-2.1,2.3-1.4c2.5,5.1,5.7,10.3,3.2,15.8c-0.4,1.4-2.7,0.7-4,1c-11-0.3-22.1-1.4-33.2-1.6
	c9.5,0.8,19.9,0.3,28.9,2c2.5-0.2,4.9,0,7.4,0.4c0.8,0.4-0.2,1.4,0,2c-0.1,0.6-0.6-0.2-0.9,0c-1.3,0.4-2.8-0.1-4.2,0.2
	c-1.8-0.1-4.1,0.1-5.6-0.5c-15.6-3.2-33-3.1-49-0.9c4.3-0.3,9-1.4,12.9-0.6c0.7-0.9,6.2-0.5,8-0.7c3.1,0.1,6.3,0.1,9.4,0.4
	c0.1,0,0.1,0.1,0.1,0.1c0,0.4,0.2,0.3,0.5,0.3c1.6-0.1,3.2,0.2,4.5-0.4c0.8,0.1,8.5,0.6,5.8,1.2c-0.5-0.1-0.6,0.3-1.2,0.3
	c-0.3,0.1-0.3-0.3-0.6-0.3c-6.4,0.8-13.8-0.4-20.6,0.2c-8.2,0-16.5-0.8-24.3,0.3c3.3,0,6.9,0,10.1,0.3c-6.3,0.6-12.6,0.5-19,0.7
	c0.2-0.1,0.3-0.2,0.5-0.3c-0.9,0.1-2.1,0-2.6,0.5L140.4,134.6z M214.8,62.6c0-0.3,0.5-0.3,0.7-0.2c0.4,0.4-0.1,0.7-0.3,1.2
	C214.9,63.2,214.8,62.9,214.8,62.6z M215.8,56.2c-0.1-0.2-0.5-0.4-0.5-0.1c0.2,0.6-0.4,1.2-0.3,1.8c0,0.6,0.7,1.4,0,1.9
	c-1.1,0.7,0.9,1.9-0.7,2.3c-0.5-2.7-2-6.3-0.2-8.6c0.9,0,1.3-0.7,1.8-1.2c1.1-0.4,2.7,1.7,2.5,2.7C218.4,55.7,216.3,56.9,215.8,56.2
	L215.8,56.2z M215.7,61.5c-0.6-0.2-0.9-1.3-0.1-1.4C215.7,60.6,216.2,61.1,215.7,61.5z M215.1,72.2c-0.4-0.5-0.1-2,0.7-1.9
	c0.4,1,2.8,3.7,0.2,3.7C215.6,73.3,215.4,72.7,215.1,72.2L215.1,72.2z M206.8,113.4c0.5,0,0.6,0.6,1,0.5c0.1-0.9-0.4-1.1,1.1-1.5
	c0.6-0.1,0.3,1.1,0.2,1.3C208.1,115,207.3,114.8,206.8,113.4L206.8,113.4z M200.9,102.4c-0.5,1.6-1,3.3,0,4.8
	c0.5,0.3,1.1,0.2,1.2,0.8c0.2,0.8,1,0.2,1.7,0.3c-0.7,0.8,0.6,1.3-0.2,2.1c-0.2-0.3-0.1-0.7-0.6-0.8c-6.7-3.6-4.2-2.6-2.1-7.7
	C200.9,102.2,200.9,102.3,200.9,102.4z M217.5,81.3c-3.2,0.2-1.6-0.2-1-1.7C216.9,80.3,217.2,80.8,217.5,81.3L217.5,81.3z
	 M216.9,82.4c0.7-0.1,1.2,1,1.8,0.7c-0.4-1.1-1.4-0.8,0.3-2.1C220.3,82.9,219.2,84.6,216.9,82.4L216.9,82.4z M212.9,84.8
	c-0.3,0.5-1.2,0.5-1.6,1.1c-0.2-2,2.4-1.5,3.7-2.6c0.5,1.4,1.3,0.7,1.3-0.4C219.9,86.9,213.9,82.7,212.9,84.8z M210.4,90.1
	c0.2-1.1,2.5-6.2,2.6-2.7c0.2,1.1-1-0.1-1.4,0.4c-0.2,0.8,2.6,3.1,0.3,3.2C211.3,90.7,210,90.8,210.4,90.1L210.4,90.1z M209,92.7
	c-2.1-1.7,0.1-4.1,1.8-5.5c-0.4,1.4-2.2,2.9-1.8,4.3C210.3,92.3,211.6,94.1,209,92.7L209,92.7z M205.2,98.3
	c-0.3,0.2-0.4-0.3-0.5-0.4c0,0-0.1,0-0.1,0c0.3,0.3,1.2,2.5,0.1,1.7c0.2,3.7,0.4,1.6-2.3,3.9c-0.6,1.2,1.2,1.9-1.1,2.3
	c-0.3,0.1-0.3,0.1-0.4-0.1c-0.5-1.3,0.5-2.7,0.2-3.9c-0.5-0.1,0.1-0.5,0.2-0.7c0.1-0.9,1.3,0,1.2-0.8c0-0.3-0.3-0.7,0-0.9
	c0.3-0.3,0.3-0.3-0.1-0.5c-0.4-0.2-0.4-0.7-0.6-1.1c1.2-2,5-1.8,7.3-3c0.1,0.5,0.2,0.9,0.6,1.1c0.1,0.1,0.1,0.2-0.1,0.3
	C207.5,96.1,206.4,97.1,205.2,98.3L205.2,98.3z M206.3,108.3C206.3,108.3,206.3,108.4,206.3,108.3c-4.4-1.6-0.6-2-1.5-3.3
	c-1.2,0.3-0.9,2.1-2.3,2.2c-0.4,0-0.5-0.4-0.7-0.6c-0.5-1,2.2-0.1,1.3-1.4c-0.6-0.7-0.6-2.3,0.8-2.1c0.2,0.2,0.4,0.1,0.6,0.1
	c0.8-0.7,1.3,0,1.5,0.7c-0.4-0.1-0.8-0.1-1.2-0.2c0,0,0,0.1,0,0.1C209.1,104.8,202.9,106.6,206.3,108.3L206.3,108.3z M206.2,111
	c-0.6,0.6-2.5-0.8-1.5-1C205.2,110.1,206.6,110.4,206.2,111L206.2,111z M207.9,107.9c-0.1,1-1.9-0.6-1.3-0.8
	C207.4,107,207.9,107.3,207.9,107.9z M208.8,109.7c-0.7,0.6-0.5-0.5-0.4-0.8c0.2-0.5,1.1-0.4,0.7-1.1c-0.3-0.6-1.7-1.7,0.2-1.5
	c0.8,0.1-0.3,0.7,0,1.1c0.4-0.3,0.7-0.6,1-0.9C211.5,107.7,209.5,108.7,208.8,109.7z M209.3,111.6c-0.2,0.6-2.2,1.3-2.6,0.5
	c0.5-0.3,1-0.3,1.2-0.9C208.1,110.5,209.5,111.1,209.3,111.6L209.3,111.6z M212.4,115c0.8-0.7,1.3-1.3,1.2-2.3c0.1,0,0.1,0,0.2,0
	C214.2,113.2,212.9,115.8,212.4,115L212.4,115z M213.7,111.6c-0.6,0-1.3,0.4-1.4-0.5c0-0.2,0.1-1,0.7-0.8
	C213.5,110.3,214.6,111.5,213.7,111.6L213.7,111.6z M238.4,121.5c0.1-0.3,0.7-0.1,0.8,0.1c0,0.3-0.4,0.3-0.8,0.5
	C238.4,121.9,238.4,121.7,238.4,121.5L238.4,121.5z M234.8,123.5c0.2,0,0.3-0.1,0.5-0.1c0.5,0.1,0,0.5-0.2,0.6
	C234.8,124.2,234.3,123.6,234.8,123.5z M227.7,121.3c-1.5,0.2-1.1-2.6-0.4-3c1.1,0.3,2.4,1.3,2.8,2.1
	C229.2,120.5,228.5,120.9,227.7,121.3L227.7,121.3z M226,122.3c0.5,0.3,1.2,0.2,1.5,0.5C227,124.2,226.2,123.3,226,122.3L226,122.3z
	 M225,118.5c0.2-0.1,0.5-0.1,0.6-0.4c1.4,0.1,0.8,1.2,0.6,1.9C225.8,119.8,225.2,118.9,225,118.5z M216.8,113.7
	C220.3,116.7,215,114.5,216.8,113.7L216.8,113.7z M218.1,114.3c-0.5-0.3-0.8-0.6-0.9-1C218.3,112.9,218.3,113.6,218.1,114.3z
	 M219.3,118.3c-0.1,0.3,0,0.7,0,1.1c-0.7-0.8-1.9-3.2-1.9-3.7C218.9,115.7,219.4,117.3,219.3,118.3z M219.9,126.8
	c0.2-0.3,0.4-0.6,0.6-1c0.2,0.5,0.1,1.2-0.1,1.6C220.3,127.2,220.1,127,219.9,126.8z M219.9,129.4c0.2,1.4-0.2,2.5-0.6,3.9
	C219,131.9,219.4,130.7,219.9,129.4z M218.8,129.6c-0.2,1.1-0.2,2.4-0.8,3.5c0-1.8,0.5-3.6,1-5.4C219.7,128.2,218.9,129,218.8,129.6
	L218.8,129.6z M217.9,134.8c0,0,0-0.1-0.1-0.1c0.6-0.3,0.2-1,0.9-1.3C218.6,134,219.3,135.4,217.9,134.8z M213.8,135.2
	c0.6-0.5,1.9,0,2.7,0.1l0,0.2C215.7,135.4,214.3,135.7,213.8,135.2L213.8,135.2z M199.7,134.3c4.1-0.4,8.3,0,12.4,0.4
	c0,0.1,0,0.1,0,0.2c-3.9,0.5-8-0.3-11.9-0.2C200,134.7,199.9,134.5,199.7,134.3L199.7,134.3z M196.3,134.3c1-0.2,2-0.2,2.9,0
	c0,0,0,0.1,0,0.1C198.3,134.5,197.2,134.5,196.3,134.3L196.3,134.3z M189.8,133.9c0.3-0.8,8.4-0.7,8.7,0.1c-2.8,0.3-5.8,0.2-8.7,0.1
	C189.8,133.9,189.8,133.9,189.8,133.9L189.8,133.9z M177.9,133.4c0.7-0.2,3.5-0.2,4.8-0.1C181.2,133.8,179.6,133.6,177.9,133.4
	L177.9,133.4z M161.8,133.4c-0.5,0-1,0-1.4-0.2c2.1,0,4.4-0.3,6.4,0.1C165.2,133.7,163.5,133.2,161.8,133.4L161.8,133.4z M217,98.5
	c0.6,0.6,1.3,0.5,2,0.6C218.6,98.7,217.7,98.7,217,98.5z M228.9,57.2c0.7,0,0.8-0.3,0.6-1C229.5,56.7,229.5,56.8,228.9,57.2z
	 M128.1,91.9c-0.1,1.4,2.4,6,0.9,6.3c-1.7-1.2-2.1,0.1-0.6,1.1c-2.6,3,1.6-1.4,2.6,1c-1.7,0.9,1.2,1.2,0.8,0.1
	c-0.3-1.2-1.8-0.8-1.8-2c-0.9-7.6,4.1-1.1-1.5-9.2c0.7-0.6,3.7-0.9,2-2.2c-0.3-0.3-0.7-0.6-0.8-1.1c-0.1-0.5,0.1-0.6,0.4-0.8
	c1.3-0.6-0.8-2.5-0.8-3.7c-1.5-6.5,7.8-0.1,3.2-7.7c2.3,6.7-1.6,1.3-3.6,5.3c-0.2-0.7,0.3-2.3,1.2-2.2c0.5,0.1,0.9-0.4,1-1
	c0-1-0.3-1.8,0.1-2.8c-1.3,0.8,0.3,2.9-1.2,3.3c-2.3,0.7-1,4.5-1.5,6.4c-0.5,0-0.5-0.9-0.9-0.8c-0.2,1.3,1.3,2.7,1.6,0.5
	c2.4,2.8-1.9,2.2,1.1,5c-4.9,2.3-1.2,2.2,0.2,5.5c0.2,0.4,0.1,0.5-0.2,0.7c-0.6,0.2-0.6,0.8-0.9,1.3C128.8,94,128.8,92.8,128.1,91.9
	L128.1,91.9L128.1,91.9z M140,70c-0.2-1.8,1.6-4,0.4-5.6c-0.3-0.4-0.4-0.7-0.3-1.2c0.5-2.5-3.1-2.7-1.2-4.9c0.8-1.1,1.5-2,0.5-3.3
	c-0.1-0.2,0-0.4,0.2-0.4c0.8,0,0.9-1,1.6-1.2c1.5-0.6,0.6-3.1-0.2-3.9c-0.2,1,1.5,3.2-0.3,3.6c-0.6,0-0.4,1-1.1,1
	c-1.7,0.9,1.7,1.6-1.7,5c-0.9,1.9,3.5,2.3,1.1,4.8c0.1,0.2,0.2,0.5,0.5,0.5c2.3,1.2-0.6,4.6,0.1,6.7c0.1,1.6,2.4,1.3,2.4-0.2
	c0.5-5.6,4.8-2.4,6.8,0.3c-0.8-2.7-5.6-6.2-6.9-1.9C141.9,71.1,139.9,72.8,140,70C140,70,140,70,140,70z M132.9,37
	c0.2,1.9,5.7,6.3,0.5,4.5c-0.6-0.4-1,0.5-0.7,1c0.3,1,1.2,1.6,2.1,2c2.3,1.7-2.2,0.3-0.6,4.4c0.2,0.8-1.1,0.3-0.9,1.1
	c0.1,0.2,0.2,0.1,0.4,0.1c3,0.1-0.8-3.1,1.4-3.8c3.4-0.9-1.3-2.5-1.9-3.7c-0.4-0.8,0.8-0.3,1.2-0.3c1.1,0.5,2.4,0,1.7-1.5
	c-0.8-1.5-2.5-2.2-3.1-3.9C133,37,133,37,132.9,37L132.9,37z M154.9,62.6c0.4,0.9,1.8,2.2,1.2,3.2c-1,0.6-1.4,2.4-2.7,2.5
	c-2.4-0.1-2.8,4.6-0.9,5.6c-1.1-1.1-0.9-6.3,1.1-4.5c0.2,0.2,0.5,0.3,0.5,0c0.6-1.2,1.4-2.8,2.7-3.1
	C157.3,65.2,155.6,63.3,154.9,62.6L154.9,62.6z M141.4,24.5c-3.2,1.4-3.8,2.6-2,5.8c0.2,0.5,1.2,1.4,0.5,1.8
	c-2.2,0.5-2.3,4.2-4.4,4.2c1.6,1.5,2.8-4,5-3.8c0.3-0.2,0.4-0.4,0.1-0.7c-0.9-1.4-2-2.8-1.8-4.6C138.9,25.6,141.2,26.3,141.4,24.5z
	 M134.8,51.2c0.9,1.9,4.9,7.8,0.6,7.4c4,2.6,1.9-7.6,2.1-9.5c-0.2,2,0.1,3.7-0.2,5.7C136.5,53.4,135.9,52.1,134.8,51.2z M148.3,38.6
	c2.3,1.8,2-2.6,0.3-2.5c-1,0.2-2-0.6-2-1.7c-0.1-1.2,1.9-0.9,0.9-2.4c-0.2-0.6-0.9-0.8-0.6-1.5c0.1-0.4,0.3-0.9,0-1.3
	c-1.7,2.1,1.1,3,0.1,3.9c-0.6,0.1-0.8,0.3-0.8,1c0.1,2.2,1.6,2.2,3.1,2.7C150.1,37.8,149.9,39.2,148.3,38.6z M156.2,88.6
	c-2,2.5-3.6-2-5.9-0.7c-1.4,0.2-1.7,1.8-2.5,2.8c-0.1,0.3-0.5,0.8-0.2,1.1c1.4-1.7,2.5-5.5,5.3-2.8
	C153.7,89.9,156.4,90.2,156.2,88.6L156.2,88.6z M140.2,107.8c-0.5-1.3-1.1-2.4-2.3-3c-0.4-0.4,0.5-0.8,0-1.2c0-0.1-0.1-0.1-0.1-0.1
	c-0.5,0.3-0.6-0.7-1-0.6C136.2,105,139.3,106.1,140.2,107.8C140.2,107.9,140.2,107.8,140.2,107.8L140.2,107.8z M140.2,13.7
	c0.5,0.1,0.2,0.7,0.3,1c0.3-0.1,0.4-0.5,0.5-0.8c0.3-1.1,0.9,0.3,1,0.8c0-0.5,0.2-1,0.1-1.5c-0.3-0.2-0.1-0.4,0-0.6
	c0.3-0.9,0.8-1.7,0.3-2.6C142.5,11.8,141.5,12.7,140.2,13.7L140.2,13.7z M140.2,22.3c1.2,0,1.1-4.8,0.2-5.2c-0.3,0.1-0.2,0.5,0,0.8
	C141.1,19.2,140.5,20.8,140.2,22.3z M143.9,30.3c-1.3,0.3-1-2.5-0.3-3.3c0.2-0.2,1-0.5,0.5-0.8C142,26.4,143,34,143.9,30.3z
	 M126.2,87.3c-0.4,1,0.4,3.5,1.3,4C127.5,89.9,126.5,88.7,126.2,87.3L126.2,87.3z M136.6,20.7c1.8-0.5,1.8-2.2,1.7-3.8
	C138.1,18.4,138,19.8,136.6,20.7z M156.9,85.8c0.5-0.6,1.6-1.4,1.2-2.3C157.8,84.4,156.9,84.8,156.9,85.8z M55.6,134.3
	c6.5,0.9,14.2-0.5,21,0c-0.8,0.4-1.7,0.4-2.6,0.9c6.2-1,12.6-1.9,19-1.2c-6.2,0.7-13.2,1.1-19.7,1.7c0.1-0.1,0.2-0.2,0.4-0.5
	c-1.5,0-2.6,0.9-4,1.3c-1.6,0.1-5.8,1.8-1.5,1.4c-0.4-0.1-0.8,0-1-0.4c0.1-0.1,0.2-0.3,0.3-0.3c1,0.1,2.1-1,3-0.1
	c4.9,1.2,10.4-0.4,15.5-0.1c7.8,0,15.7,0.9,23.5,0.6c4.2,0.4,3.1-1.6-0.3-0.9c0.4,0.1,0.9,0,1.3,0.3c-7,1-14.6-0.3-21.8-0.2
	c-5.7-0.7-12.3,1.4-17.6-0.1c15.7-3.2,32.3-2.3,48.1-0.4c-1.4,0.6-3.2-0.3-4.4,0.3c3.3,0.7,7.3-0.3,10.9,0.2
	c-0.2,0.2-0.4,0.2-0.5,0.3c1.4,0.6,4.5-0.4,5.3,1.1c0.3-0.4,1.6-0.6,1.8-0.1c0,0.3,0.4,0.5,0.5,0.1c1.5-6.3,2-13.2,3.1-19.9
	c1,2.9,0,5.7-0.1,8.6c1.6-2.9,0.2-8.5,2.9-10.1c0.1,6.2-1.4,12.5-0.4,18.5c0.8-0.8-0.3-3.2,1-3.3c3,0.1,6,0.5,8.9,0.6
	c7.3,0.4,14.3,1.6,21.6,0.4c-8.9,0.5-18.8-0.1-27.7-1.5c15.5-1.6,31.4-1.7,46.6-4.9c0.2-0.3-0.1-0.9-0.4-0.4c-0.4,0.8-1.3,0.4-2,0.6
	c-1.6,1-3.8,0.6-5.7,1c-13.9,1.7-27.9,2.6-41.8,3.4c-1-2.7-0.1-7,0.1-10.1c0.1-0.3-0.1-0.8,0.2-1c0.7,0.2,0.3,2.4,1.2,2
	c0.8-0.9,1.5-2,2.4-2.7c0.2,0.4,0.5,0.7,0.9,0.4c1.6-0.1,3.1,1.6,4.3,2.7c0.9,0.7,1.5-1.3,2.4-1.4c1-0.2,1.5-1.6,2.5-1.5
	c0.3,0,0.5,0,0.6-0.4c0.1-0.2,0.2-0.1,0.3-0.1c0.5,0.3,1.1,0.4,1.6,0.1c2.9-1.9,6.7,4.3,8.6-0.7c0.2-1.4-3.5-0.6-4.4-2.7
	c-4-4.8,3.4-2.4,1.2-7.4c-0.9-2.9,2-2.7,3.8-3.5c1.4-0.4,1-2.5,2.7-2.5c-1.5-2.5-6.1-4.3-8.3-7c-0.7-1,0.6-0.9,1.2-1.1
	c5.1-1.7,6.2-7.3,1-9.8c-1-0.3-0.2-1.6-1-2c-1.2-1.2-3.1-1.9-3.3-3.9c-0.2-0.4-0.6-0.9-1-1.2c0.4,2.3,2,3.6,3.7,5
	c0.7,0.4-0.3,1.4,0.6,1.8c6.2,2.6,4.9,9.1-1.5,9.6c-2.1,2.5,6.2,5.9,7.6,8.1c-0.5,0.3-0.9,0.5-0.9,1.3c-0.5,2.5-4.4,1.1-5,3.4
	c-0.6,1.5,1.4,3.7,0,4.7c-4.6,0.6-0.9,6.2,1.9,6.6c1.7-0.1,1.4,1.3,0.2,1.9c-2.2,0.6-4-2.6-6.4-1.4c-1.6,1.5-4.3-2.6-4.4,0.1
	c0.2,0.8-1.1,1.3-1.1,0.5c0.7-2-0.8-0.7-1.2,0.3c-0.8,1.3-2.3-0.1-3.4,0.2c-1.4-0.1-0.1-1.8-1.8-2.1c1.7-0.8-0.4-1.8-0.7-2.8
	c0.3,0,1.4,0.2,1-0.3c-0.5-0.1-1,0-1.5-0.5c3.1-2,7.1-0.2,3.9-5.3c2.9-0.7,3.4-0.9,3.8-4.3c-1,1.8-1.2,4-3.8,3.5
	c-0.4,0-0.8,0.2-0.9,0.7c0.4,0.7,2.4,2.5,1.3,3.5c-1.6,0.3-3.3,0.9-4.8,1.4c-1.1,0.8-0.4-1.5-2.8,0.2c0,0,0,0,0,0
	c-1.1,0.4-1.7-0.8-2.1-1.7c-1.5,2.2-0.9-1.7-1.7-2.1c-0.4,0.5,0.6,1.4,0.1,1.9c-0.5,0.5,0.4,0.6,0.3,1.1c-0.8,0-1.6,1.9-2,0.2
	c0.3-0.2,0.6,0.1,0.7-0.3c0.2-0.4,0.5-0.5,0.4-1c-0.4-1-0.5-2.4-1.3-3.2c0.1,0.7,0.3,1.4,0.4,2.2c-0.8-0.3-1.7-1.9-1.3-2.8
	c0.6-0.8,0.1-1.7,0.4-2.5c0.5-1.1-0.9-0.5-1-1.4c-0.2-0.6,0-1.4-0.5-1.8c0.2-0.7,1.6-0.8,1-1.7c-0.6-0.9-0.2-1.8,0.2-2.6
	c1-2.7,5.8,0,4-4.1c-0.5-1-0.9-2.6-2.1-2.9c-0.6,0-1.4-1.3-0.7-1.7c0.4-0.3,1.3-0.1,1.3-0.7c-0.1-0.4-0.4-0.2-0.6-0.1
	c-1.7,0.2-1.9,2.5-0.4,3.1c-0.7,0.4,0.1,0.9,0.6,0.7c0.2,0,0.5-0.3,0.7,0c3.5,6.6-3.2,1.4-3.8,7.1c-2.1-1.8,1.3-3,0.5-4.5
	c-1.9,2.8-2.2,2.7-0.5,5.7c0.1,0.4,0.1,0.7-0.3,0.9c-0.5,0.4-0.3,1.1-0.2,1.7c-0.5-0.4-0.9-0.8-1.3-0.2c-0.4,0.5-1,0.5-1.5,0.8
	c-1.7-2-2.5-1.9-2.8,1.1c-0.2-0.5-0.4-0.6-0.9-0.5c-0.7,0.1-0.8-1-1.5-1c-0.7-0.8,1.2-2.2,1.5-3.1c0.3-0.5,0.7,0,1.1,0.2
	c0-0.4-0.2-0.4-0.3-0.6c-0.5-0.9,0.5-2,0.8-2.8c0.3-1.2-1.4-3.7-1.7-1.4c0.1,0.8,0.7,0.5,0.6-0.3c0.4,0.5,0.8,1.8-0.2,1.3
	c-0.2-0.1-0.5-0.1-0.6,0.2c-0.3,0.6-1,0.1-1.5,0.1c-0.4,0-0.7,0.1-0.9,0.6c-0.3,0.7-1,0.3-1.5,0.5c-0.9-0.3,0.6-1.7,0.8-2.3
	c0.4,0.4,0.7,0.5,0.8,0.5c-0.7-1.1-1.1-2.3-1.9-3.2c-0.5-0.9,0.4-2,0.2-3c0.4-1.2,2.3,2,2.9,0.4c0.2-0.5-0.2-1.2-0.5-1.6
	c0,2.2-0.9,0.9-2.1,0.3c-1.9-2,1.5-5.3,3.7-4.6c0.1,0.9-1.1,1.4-1.6,2c-0.9,2,2.9,3.2,2.9,5.4c-5.4-2.2-4.4,0.3-1,2.5
	c-1.5-2.5-3.7-3.3,1.1-2c2-0.7-1.9-4.1-2.6-5c-0.5-1.3,2.1-1.6,1.9-3.1c0.1-1.1,1.3,0.3,2,0.3c-0.2-0.9-1.4-1-1.6-1.8
	c0-0.6-1.2-2-0.4-2.2c0.4,0.1,1.5,0.7,1.2-0.2c-0.2-0.2-0.3-0.4-0.1-0.8c-0.2-0.8-0.9-1.5-1.2-2.4c3.3,0.6,3.4-1.1,2.1-3.7
	c3,0.7-0.9-5.4,1.8-5.2c1.4,0.1,4.9,1.8,3.3-1c-0.1-0.2-0.1-0.5,0.2-0.4c2.7,1.3,2.4-0.8,1.9-2.8c-0.2-0.4-0.1-2.3-0.8-1.2
	c-0.1-1.6-1.7-2.4-2.1-3.8c0.2-1.3-1.7-3.9,0-4.3c1.3-0.6,0.9,1.6,1.5,2.4c0.4,1.1,0.4,2.2,0,3.2c2.4,0.1-0.7-4.6-0.5-5.8
	c0.5-2.4-1.5-4.5-1.6-6.6c1.9,0.9,0.5-2.7,1.2-3.5c0.5-1.2-1.2-2.1-1.3-3.3c-0.3-0.8,0.7-1.3,0.4-2.1c0-0.3-0.1-0.5,0.1-0.7
	c0.4-0.6,0.1-1.5,0-2.2c-0.3-1.4,0.6-3,1.4-1c-0.9,0.4-0.8,0.3-0.5,1.4c-0.2-1.2,0.9-0.8,1.7-1c0.6-0.6-0.5-1.8-0.8-2.3
	c-0.9-0.9,1-1.6,1.2-2.5c-1.6,1-2.2,1.9-0.9,3.6c0.4,0.4,0.1,1.7-0.3,0.6c-0.3-1.1-2.5-2.6-1-3.6c0.8-0.8,2.1-0.7,2.2-2.1
	c0.1-1.6-1.4-4.9,0.2-5.8c0.1,0.4-0.2,0.6-0.2,1c2-2.3-1.2-2.2-0.8,0.3c0,0.7,0.6,1.5,0.2,2.2c-0.4-0.6-0.9-1-0.8-1.7
	c0-0.3-0.1-0.4-0.3-0.5c-0.6-0.1-0.8-0.5-0.6-1.2c0.7-1.6-1.1-4,1-4.7c5-1,2.9-3,5.4-4c2.4-1.3-0.3-5.4,1.7-7.4
	c0.3-1-1.9-1.2-0.9-2.5c2.5-3,6.7-3.7,5.2,1.6c-0.2,2.3,0.4,4.9,0.2,7.4c0.4,3.4-0.4,9.3,2.9,11c0.6,0.1,1.5-0.3,1.6,0.5
	c-0.3,4.3,0.1,2.6,2.8,4.9c0.7,0.8-0.1,1.6-0.8,2c-2.4,3,5.6,4,4.7,7c-1.7,7.8-4,6,2.4,12c0.1,2.3-2.8,3.7-2.8,6.2
	c-1.1,1.7-3.4,0.7-1.3,3.9c-1.1-3.7,0.6-1.5,1.6-3.5c0.4-1,0.3-2.7,1.3-3.4c0.5-0.3,0.8-0.8,1.1-1.3c1.7-2.4,0.4-1.8-1.1-3.6
	c-0.8-1.3-3.7-2.9-2.3-4.6c0.4-0.1,0.6-0.5,0.6-1c0.2-1.5,0.3-3.3,1.1-4.6c0.3-0.3,0.3-0.5,0.1-1c-0.7-2.4-5.8-3.3-5.1-5.8
	c2.6-1.4,0.8-3.8-1.3-4.5c-1.1-0.6-0.2-2.3-0.4-3.4c-1.7-1.9-3.3,1.9-4.2-4.9c0.7,0.7,0.6,1.7,1.3,2.5c-0.1-1.2-0.6-2.4-1.1-3.4
	c-1.5-2.9,0.2-6.8,0.4-9.9c0.1-0.5-0.4-0.5-0.7-0.8c-0.9-1.3,0.2-3.3-0.2-4.9c-1.1-0.8-0.6-3.1-1.8-3.8c-0.8,0.5,0.5,2.5-0.9,2.5
	c-1.5,0.3-5,1.8-4,3.8c0.3,0.5,1.1,1,0.6,1.5c-1.1,1.7-0.3,3.9-0.6,5.7c-0.1,1.5-1.6,0.1-1.8,1.5c-0.5,2.7-3.1,2.6-4.9,3.8
	c-1.4,1,0,3-0.5,4.3c-0.4,1.1-0.6,2.8-1.9,3.1c-0.4-0.1-0.6,0.2-0.8,0.6c-2.1,6.2,0.9,12.6,2.2,18.4c0,0.9-1.2,1.3-0.8,2.2
	c0.3,1.6-1.6,2.9-0.6,4.6c1.1,2.1,0,4.6,0.9,6.9c0,0.5-0.6,0.7-0.2,1.2c1,1.5-0.3,2.3-0.6,3.7c-0.1,0.5-0.1,0.5-0.5,0.6
	c-0.5,0-0.9,0.4-0.8,1c0.5,2.7-3.5,1.6-3,5c0,0.5-0.2,0.9-0.5,1.2c-8.1,9.8,6.3,7.8-6.5,11.8c-4.4,2.4-1.3,1.8-2.3,4.5
	c-1.1,2.7-1.6,5.8-3.1,8.3c-0.7,1.2-0.9,2.5,0.6,3c1.2,0.8,2.1,2.3,3.3,3.1c0.6,0.4-0.1,1.3-0.3,1.8c0,1.9,2.3,3.8,3.2,5.6
	c1.7,0-3.5-4.4-2.4-5.7c0.5,0.2,0.5,1.1,1,1.2c0.5,0,0.1-0.5,0.2-0.8c0.7,0.2,0.8,1.2,1.2,1.8c0.9,0.5,1,2.7,2,2.7
	c1.3-0.5,1.4,0.8,2.9-0.8c0.7-0.1,0.8,1.1,1.3,1.4c1.4,1.4,1.6-2.8,2.3-1.8c2.3,6.9,5.3,13.8,2.8,21.2c-0.4,1.8-2.7,0.9-4,1.3
	c-10.8-0.6-21.7-2.3-32.5-2.7c9.3,1.3,19.5,0.8,28.3,3.2c2.4-0.2,4.8,0.1,7.2,0.7c0.8,0.6-0.2,1.9-0.1,2.7c-0.1,0.8-0.6-0.2-0.9,0
	c-1.2,0.6-2.7-0.1-4.1,0.2c-1.7-0.2-4,0-5.4-0.8c-15.2-4.5-32.3-4.7-48.1-2.1c4.2-0.3,8.8-1.7,12.7-0.5c0.7-1.2,6.1-0.6,7.8-0.8
	c3.1,0.2,6.2,0.2,9.2,0.7c0,0,0.1,0.1,0.1,0.1c0,0.5,0.2,0.4,0.5,0.4c1.5-0.1,3.1,0.3,4.5-0.4c0.8,0.1,8.4,1,5.6,1.7
	c-0.5-0.2-0.6,0.4-1.1,0.3c-0.3,0.1-0.3-0.4-0.6-0.5c-6.3,0.9-13.5-0.8-20.2,0c-8-0.1-16.1-1.4-23.8,0c3.3,0.1,6.7,0.2,9.9,0.5
	c-6.2,0.7-12.3,0.4-18.6,0.5c0.2-0.2,0.3-0.3,0.5-0.4C57.4,133.9,56.2,133.7,55.6,134.3L55.6,134.3z M130.3,39.3
	c0-0.4,0.5-0.4,0.7-0.2c0.4,0.5-0.1,1-0.3,1.5C130.4,40.1,130.4,39.7,130.3,39.3z M131.5,30.8c-0.1-0.2-0.4-0.5-0.5-0.1
	c0.2,0.9-0.4,1.5-0.3,2.4c-0.1,0.8,0.7,1.9-0.1,2.6c-1.1,0.9,0.9,2.5-0.7,3c-0.4-3.6-1.8-8.4,0-11.5c0.9,0.1,1.3-0.9,1.7-1.5
	c1.1-0.6,2.6,2.4,2.4,3.7C134.1,30.2,132,31.7,131.5,30.8L131.5,30.8z M131.2,37.9c-0.5-0.3-0.8-1.8-0.1-1.9
	C131.3,36.6,131.7,37.4,131.2,37.9z M130.4,52.1c-0.4-0.7,0-2.7,0.7-2.5c0.3,1.3,2.7,5,0.1,4.9C130.9,53.6,130.6,52.9,130.4,52.1
	L130.4,52.1z M121.3,107.2c0.5,0,0.6,0.9,1,0.7c0.1-1.1-0.3-1.5,1.1-2c0.6-0.1,0.3,1.4,0.2,1.8C122.5,109.3,121.7,109,121.3,107.2
	L121.3,107.2z M115.7,92.3c-0.5,2.1-1,4.4-0.1,6.5c0.5,0.4,1.1,0.3,1.1,1.1c0.2,1.1,1,0.3,1.6,0.5c-0.7,1.1,0.6,1.8-0.2,2.8
	c-0.2-0.5-0.1-0.9-0.6-1c-6.5-4.9-4-3.6-1.8-10.3C115.7,92,115.7,92.1,115.7,92.3z M132.6,64.5c-3.2,0.3-1.6-0.3-0.9-2.3
	C132,63,132.3,63.7,132.6,64.5L132.6,64.5z M131.9,65.8c0.7-0.1,1.2,1.4,1.7,0.9c-0.3-1.5-1.3-1.1,0.3-2.8
	C135.2,66.6,134.1,68.8,131.9,65.8L131.9,65.8z M127.9,69c-0.4,0.7-1.2,0.6-1.6,1.4c-0.2-2.7,2.4-1.9,3.7-3.5
	c0.4,1.9,1.2,0.9,1.3-0.5C134.7,72,129,66.3,127.9,69z M125.3,76c0.3-1.4,2.6-8.2,2.6-3.6c0.2,1.5-1-0.2-1.4,0.5
	c-0.2,1.1,2.5,4.1,0.2,4.3C126.2,76.9,124.9,77,125.3,76L125.3,76z M123.9,79.5c-2.1-2.3,0.2-5.5,1.9-7.3c-0.5,1.8-2.2,3.8-1.9,5.7
	C125.2,78.9,126.5,81.4,123.9,79.5L123.9,79.5z M120,86.9c-0.3,0.3-0.4-0.4-0.5-0.6c0,0-0.1,0-0.1,0.1c0.3,0.5,1.1,3.3,0,2.3
	c0.1,5,0.3,2.1-2.3,5.2c-0.7,1.7,1.2,2.5-1.1,3.1c-0.3,0.2-0.3,0.2-0.4-0.2c-0.4-1.8,0.5-3.6,0.3-5.3c-0.5-0.1,0.2-0.6,0.2-0.9
	c0.1-1.2,1.2,0,1.2-1.1c0-0.4-0.3-0.9,0.1-1.3c0.3-0.3,0.3-0.4-0.1-0.7c-0.4-0.3-0.4-1-0.5-1.4c1.2-2.7,4.9-2.4,7.2-3.9
	c0.1,0.6,0.2,1.2,0.6,1.5c0.1,0.1,0.1,0.3-0.1,0.4C122.4,84.1,121.2,85.3,120,86.9L120,86.9z M120.9,100.4c0,0,0,0.1-0.1,0.1
	c-4.2-2.3-0.5-2.8-1.3-4.6c-1.1,0.4-0.9,2.8-2.3,2.9c-0.4,0-0.5-0.5-0.7-0.8c-0.4-1.4,2.2-0.1,1.3-1.8c-0.6-0.9-0.5-3.1,0.8-2.8
	c0.2,0.3,0.4,0.2,0.6,0.1c0.8-0.9,1.2,0.1,1.5,1c-0.4-0.1-0.8-0.2-1.1-0.3c0,0.1,0,0.1,0,0.1C123.7,95.7,117.6,98,120.9,100.4
	L120.9,100.4z M120.7,103.9c-0.6,0.8-2.5-1.1-1.4-1.3C119.7,102.7,121.2,103.1,120.7,103.9L120.7,103.9z M122.5,99.9
	c-0.1,1.4-1.8-0.8-1.2-1.1C122,98.6,122.5,99,122.5,99.9z M123.3,102.2c-0.7,0.7-0.5-0.6-0.4-1c0.2-0.6,1-0.5,0.7-1.4
	c-0.3-0.8-1.6-2.3,0.2-2c0.8,0.2-0.3,0.9,0,1.4c0.4-0.4,0.7-0.7,1-1.1C125.9,99.6,124,100.9,123.3,102.2z M123.8,104.8
	c-0.2,0.7-2.2,1.7-2.5,0.6c0.5-0.4,1-0.4,1.2-1.2C122.6,103.3,123.9,104.1,123.8,104.8L123.8,104.8z M126.7,109.4
	c0.8-0.9,1.3-1.7,1.3-3c0.1,0,0.1,0,0.2,0C128.5,107,127.2,110.5,126.7,109.4L126.7,109.4z M128,104.8c-0.6-0.1-1.3,0.5-1.3-0.7
	c0.1-0.3,0.2-1.3,0.7-1.1C127.9,103.1,128.9,104.8,128,104.8L128,104.8z M152,118.6c0.1-0.4,0.7-0.1,0.8,0.2c0,0.4-0.4,0.4-0.7,0.6
	C152,119,152,118.8,152,118.6L152,118.6z M148.5,121.2c0.1-0.1,0.3-0.1,0.5-0.2c0.5,0.1,0,0.6-0.2,0.8
	C148.4,122.1,148,121.3,148.5,121.2z M141.5,118.1c-1.4,0.2-1-3.5-0.3-4c1.1,0.4,2.3,1.8,2.7,2.9C143.1,117,142.3,117.5,141.5,118.1
	L141.5,118.1z M139.8,119.4c0.5,0.4,1.2,0.3,1.5,0.7C140.8,121.9,140,120.7,139.8,119.4L139.8,119.4z M139,114.3
	c0.2-0.2,0.5-0.2,0.6-0.5c1.3,0.2,0.7,1.7,0.5,2.6C139.7,116,139.1,114.8,139,114.3z M131,107.7C134.3,111.9,129.2,108.8,131,107.7
	L131,107.7z M132.3,108.5c-0.4-0.4-0.7-0.8-0.8-1.4C132.5,106.7,132.5,107.7,132.3,108.5z M133.4,114c-0.1,0.4,0,0.9,0,1.5
	c-0.6-1.1-1.8-4.4-1.8-5C133,110.5,133.5,112.7,133.4,114z M133.7,125.3c0.2-0.4,0.4-0.8,0.6-1.3c0.1,0.7,0.1,1.6-0.1,2.1
	C134.1,125.9,133.9,125.6,133.7,125.3z M133.7,128.8c0.2,1.9-0.3,3.3-0.7,5.2C132.8,132.1,133.1,130.5,133.7,128.8z M132.6,129.1
	c-0.2,1.5-0.3,3.2-0.9,4.6c0-2.5,0.6-4.8,1.1-7.2C133.6,127.2,132.7,128.3,132.6,129.1L132.6,129.1z M131.5,136c0,0,0-0.1-0.1-0.2
	c0.6-0.4,0.2-1.3,0.9-1.8C132.3,134.9,132.9,136.8,131.5,136z M127.5,136.5c0.6-0.7,1.9,0,2.7,0.2l0,0.2
	C129.4,136.7,128,137.1,127.5,136.5L127.5,136.5z M113.8,135c4-0.4,8.1,0.1,12.1,0.7c0,0.1,0,0.2,0,0.2c-3.9,0.6-7.8-0.6-11.7-0.5
	C114,135.5,113.9,135.3,113.8,135L113.8,135z M110.4,134.9c1-0.3,1.9-0.2,2.9,0.1c0,0.1,0,0.1,0,0.2
	C112.4,135.3,111.3,135.2,110.4,134.9L110.4,134.9z M104,134.2c0.3-1,8.3-0.7,8.6,0.3c-2.8,0.3-5.7,0.2-8.5-0.1
	C104.1,134.3,104,134.2,104,134.2L104,134.2z M92.4,133.4c0.7-0.3,3.4-0.3,4.7,0C95.6,133.9,94,133.6,92.4,133.4L92.4,133.4z
	 M76.6,133.1c-0.5,0-1,0-1.4-0.3c2,0,4.3-0.3,6.3,0.3C79.9,133.6,78.3,132.8,76.6,133.1L76.6,133.1z M131.6,87.4
	c0.6,0.8,1.3,0.7,1.9,0.8C133.1,87.7,132.3,87.7,131.6,87.4z M144.4,32.3c0.6,0,0.8-0.3,0.6-1.4C144.9,31.7,144.9,31.9,144.4,32.3z
	 M74,106c-0.1,1,2.6,4.5,1,4.7c-1.7-0.9-2.2,0.1-0.6,0.8c-2.6,2.3,1.6-1,2.8,0.7c-1.8,0.7,1.2,0.9,0.8,0c-0.3-0.9-1.8-0.6-1.9-1.5
	c-1.1-5.7,4.2-0.9-1.7-6.9c0.8-0.5,3.8-0.7,2.1-1.7c-0.4-0.2-0.7-0.4-0.8-0.8c-0.1-0.4,0-0.5,0.4-0.6c1.4-0.5-0.9-1.9-0.9-2.7
	c-1.7-4.8,8-0.2,3.1-5.8c2.5,5-1.6,1-3.6,4c-0.2-0.6,0.3-1.7,1.2-1.7c0.5,0.1,0.9-0.3,1-0.8c0-0.8-0.4-1.4,0-2.1
	c-1.3,0.6,0.3,2.2-1.2,2.5c-2.4,0.5-1,3.4-1.4,4.8c-0.5,0-0.5-0.7-1-0.6c-0.2,1,1.4,2,1.7,0.4c2.5,2.1-2,1.7,1.2,3.8
	c-5,1.8-1.2,1.7,0.4,4.2c0.2,0.3,0.2,0.4-0.2,0.5c-0.6,0.1-0.6,0.6-0.9,1C74.8,107.6,74.7,106.7,74,106L74,106L74,106z M85.9,89.4
	c-0.2-1.4,1.5-3,0.3-4.2c-0.4-0.3-0.4-0.5-0.3-0.9c0.4-1.9-3.2-2-1.3-3.6c0.8-0.9,1.6-1.6,0.4-2.5c-0.1-0.1,0-0.3,0.2-0.3
	c0.8,0,0.9-0.8,1.6-1c1.5-0.5,0.5-2.3-0.3-2.9c-0.2,0.8,1.6,2.4-0.3,2.7c-0.6,0-0.4,0.8-1.1,0.8c-1.7,0.7,1.8,1.1-1.7,3.8
	c-0.9,1.5,3.7,1.7,1.2,3.6c0.1,0.2,0.2,0.4,0.5,0.4c2.4,0.8-0.5,3.5,0.2,5c0.1,1.2,2.5,0.9,2.5-0.2c0.4-4.2,4.9-1.8,7,0.1
	c-0.8-2-5.9-4.5-7.1-1.3C87.8,90.2,85.8,91.5,85.9,89.4C85.9,89.4,85.9,89.4,85.9,89.4z M78,64.7c0.3,1.4,6,4.7,0.6,3.3
	c-0.7-0.3-1,0.4-0.7,0.8c0.3,0.7,1.3,1.2,2.2,1.4c2.4,1.2-2.3,0.3-0.5,3.3c0.3,0.6-1.2,0.2-1,0.8c0.1,0.2,0.2,0.1,0.4,0.1
	c3.1,0-0.9-2.3,1.4-2.9c3.5-0.7-1.4-1.8-2-2.7c-0.4-0.6,0.8-0.3,1.2-0.2c1.1,0.4,2.5,0,1.8-1.1c-0.8-1.1-2.7-1.6-3.2-2.9
	C78,64.7,78,64.7,78,64.7L78,64.7z M101.1,83.6c0.5,0.7,1.9,1.6,1.3,2.4c-1,0.5-1.4,1.8-2.7,1.9c-2.5,0-2.8,3.5-0.9,4.3
	c-1.2-0.8-1-4.7,1-3.4c0.2,0.2,0.5,0.2,0.6,0c0.6-0.9,1.4-2.1,2.7-2.4C103.6,85.5,101.9,84.2,101.1,83.6L101.1,83.6z M86.4,55.2
	c-3.3,1.1-3.8,2-2,4.4c0.2,0.4,1.2,1,0.6,1.3c-2.3,0.4-2.3,3.2-4.5,3.2c1.6,1.1,2.8-3,5.1-2.9c0.4-0.1,0.4-0.3,0.1-0.5
	c-0.9-1-2.1-2.1-2-3.4C83.9,56,86.3,56.5,86.4,55.2z M80.2,75.3c0.9,1.4,5.2,5.8,0.7,5.5c4.2,1.9,1.9-5.7,2-7.2
	c-0.2,1.5,0.2,2.7-0.1,4.3C81.9,77,81.3,76,80.2,75.3z M93.8,65.7c2.4,1.3,2-1.9,0.2-1.9c-1.1,0.2-2-0.4-2.1-1.2
	c-0.1-0.9,1.9-0.7,0.9-1.8c-0.2-0.5-1-0.6-0.7-1.2c0.1-0.3,0.3-0.7,0-1c-1.7,1.6,1.2,2.2,0.2,2.9c-0.6,0.1-0.8,0.2-0.8,0.8
	c0.1,1.6,1.7,1.6,3.2,2C95.7,65,95.5,66.1,93.8,65.7z M102.9,103.1c-2,1.9-3.8-1.5-6.1-0.5c-1.5,0.2-1.7,1.4-2.5,2.1
	c-0.1,0.2-0.5,0.6-0.2,0.8c1.4-1.3,2.5-4.2,5.4-2.2C100.4,104.2,103.2,104.4,102.9,103.1L102.9,103.1z M86.8,117.8
	c-0.5-1-1.2-1.8-2.5-2.2c-0.4-0.3,0.5-0.6,0-0.9c0,0-0.1-0.1-0.1-0.1c-0.5,0.2-0.6-0.5-1.1-0.4c-0.5,1.6,2.7,2.4,3.6,3.7
	C86.8,117.9,86.8,117.8,86.8,117.8L86.8,117.8z M85,47c0.5,0,0.2,0.5,0.4,0.8c0.3-0.1,0.4-0.4,0.5-0.6c0.3-0.9,1,0.2,1,0.6
	c0-0.3,0.2-0.8,0-1.1c-0.3-0.2-0.2-0.3-0.1-0.5c0.3-0.7,0.8-1.3,0.3-2C87.3,45.6,86.3,46.3,85,47L85,47z M85.2,53.5
	c1.2,0,1.1-3.6,0.1-3.9c-0.3,0.1-0.1,0.4,0,0.6C86.1,51.2,85.4,52.4,85.2,53.5z M89.2,59.5c-1.3,0.3-1.1-1.9-0.4-2.5
	c0.2-0.2,1-0.4,0.5-0.6C87.1,56.6,88.3,62.3,89.2,59.5z M72,102.6c-0.4,0.7,0.5,2.7,1.5,3C73.3,104.5,72.3,103.7,72,102.6L72,102.6z
	 M81.4,52.4c1.9-0.4,1.8-1.7,1.7-2.9C82.9,50.6,82.8,51.7,81.4,52.4z M103.6,101c0.5-0.5,1.6-1.1,1.2-1.8
	C104.5,99.9,103.6,100.3,103.6,101z M0,138.9c6.8,0.6,14.6-0.6,21.7-0.3c-0.8,0.3-1.7,0.4-2.6,0.7c6.4-0.8,12.9-1.6,19.5-1.1
	c-6.4,0.6-13.7,1-20.3,1.6c0.1-0.1,0.2-0.2,0.4-0.4c-1.5,0-2.7,0.7-4.1,1c-1.7,0.1-6,1.5-1.5,1.1c-0.4-0.1-0.8,0-1.1-0.3
	c0.1-0.1,0.2-0.2,0.3-0.2c1,0.1,2.1-0.8,3.1-0.1c5.1,0.9,10.7-0.5,16-0.3c8.1-0.1,16.2,0.4,24.3,0.1c4.3,0.2,3.2-1.2-0.4-0.7
	c0.4,0.1,1,0,1.4,0.2c-7.2,0.8-15.1,0-22.5,0.2c-5.9-0.4-12.7,1.3-18.2,0.2c16.2-2.6,33.3-2.2,49.6-1c-1.4,0.5-3.3-0.1-4.6,0.3
	c3.5,0.5,7.5-0.3,11.2,0c-0.3,0.1-0.4,0.2-0.5,0.3c1.5,0.4,4.6-0.3,5.5,0.7c0.3-0.3,1.7-0.5,1.9-0.1c0,0.2,0.4,0.4,0.5,0.1
	c1.5-4.8,1.8-9.9,2.8-15c1.1,2.2,0.2,4.3,0.1,6.5c1.6-2.2,0-6.4,2.8-7.7c0.3,4.6-1.2,9.4,0,13.9c0.8-0.6-0.4-2.4,1-2.5
	c3.1,0,6.2,0.3,9.2,0.4c7.5,0.2,14.8,1,22.3,0c-9.2,0.5-19.4,0.2-28.7-0.7c15.9-1.4,32.4-1.7,48-4.3c0.2-0.2-0.1-0.7-0.4-0.3
	c-0.4,0.6-1.3,0.3-2,0.4c-1.7,0.7-3.9,0.5-5.8,0.8c-14.3,1.4-28.7,2.3-43.1,3.2c-1.1-2-0.3-5.3-0.1-7.6c0.1-0.2-0.1-0.6,0.2-0.8
	c0.8,0.1,0.4,1.8,1.3,1.5c0.9-0.7,1.5-1.6,2.5-2.1c0.2,0.3,0.5,0.5,1,0.3c1.7-0.1,3.2,1.2,4.4,2c0.9,0.5,1.5-1,2.5-1.1
	c1-0.2,1.5-1.2,2.5-1.2c0.3,0,0.5,0,0.6-0.3c0.1-0.2,0.2-0.1,0.3-0.1c0.5,0.2,1.1,0.3,1.7,0.1c3-1.5,7,3.1,8.8-0.7
	c0.2-1.1-3.7-0.4-4.6-2c-4.3-3.5,3.5-1.9,1.1-5.6c-1-2.2,2-2.1,3.8-2.7c1.4-0.3,1-1.9,2.8-1.9c-1.6-1.9-6.4-3.2-8.7-5.2
	c-0.7-0.7,0.6-0.7,1.2-0.9c5.2-1.3,6.3-5.6,0.9-7.4c-1.1-0.2-0.3-1.2-1.1-1.5c-1.3-0.9-3.2-1.4-3.4-2.9c-0.2-0.3-0.6-0.7-1-0.9
	c0.4,1.7,2.1,2.7,3.9,3.7c0.8,0.3-0.2,1,0.6,1.4c6.5,1.9,5.2,6.8-1.4,7.2c-2.1,1.9,6.5,4.3,8,6c-0.6,0.3-0.9,0.4-0.9,1
	c-0.4,1.9-4.5,0.9-5.1,2.6c-0.6,1.1,1.6,2.8,0,3.6c-4.7,0.5-0.8,4.7,2.1,5c1.8-0.1,1.4,1,0.2,1.4c-2.3,0.5-4.2-1.9-6.7-1
	c-1.6,1.1-4.5-1.9-4.5,0.2c0.2,0.6-1.1,1-1.1,0.4c0.7-1.5-0.8-0.5-1.2,0.2c-0.8,1-2.4,0-3.5,0.2c-1.4-0.1-0.1-1.3-1.9-1.6
	c1.7-0.6-0.5-1.3-0.8-2.1c0.3,0,1.4,0.1,1-0.2c-0.6-0.1-1.1,0-1.5-0.4c3.2-1.6,7.3-0.3,4-4.1c3-0.6,3.5-0.7,3.8-3.3
	c-0.9,1.4-1.2,3-3.9,2.7c-0.4,0-0.9,0.1-0.9,0.5c0.4,0.6,2.5,1.9,1.4,2.6c-1.7,0.3-3.3,0.7-4.9,1.1c-1.1,0.6-0.4-1.1-2.9,0.2
	c0,0,0,0,0,0c-1.1,0.3-1.8-0.6-2.2-1.2c-1.5,1.7-0.9-1.3-1.8-1.5c-0.4,0.3,0.7,1.1,0.2,1.4c-0.5,0.4,0.4,0.5,0.3,0.8
	c-0.8,0-1.7,1.4-2,0.2c0.3-0.1,0.6,0.1,0.7-0.2c0.2-0.3,0.5-0.4,0.4-0.7c-0.5-0.7-0.6-1.8-1.4-2.4c0.2,0.5,0.3,1.1,0.5,1.6
	c-0.8-0.2-1.8-1.4-1.4-2.1c0.6-0.6,0-1.3,0.4-1.9c0.5-0.9-0.9-0.4-1-1.1c-0.3-0.5-0.1-1-0.6-1.3c0.2-0.6,1.6-0.7,1-1.3
	c-0.6-0.7-0.2-1.3,0.1-1.9c1-2,6-0.1,4-3.2c-0.6-0.8-0.9-2-2.2-2.2c-0.6,0-1.5-0.9-0.8-1.3c0.4-0.2,1.3-0.1,1.4-0.6
	c-0.1-0.3-0.4-0.1-0.6-0.1c-1.8,0.2-1.9,1.9-0.3,2.4c-0.7,0.3,0.1,0.7,0.6,0.5c0.3,0,0.5-0.2,0.8,0c3.7,4.9-3.2,1.1-3.8,5.4
	c-2.2-1.3,1.3-2.3,0.4-3.4c-2,2.1-2.2,2-0.5,4.3c0.1,0.3,0.1,0.5-0.2,0.7c-0.5,0.3-0.3,0.8-0.2,1.3c-0.5-0.3-1-0.6-1.4-0.1
	c-0.4,0.4-1,0.4-1.5,0.6c-1.8-1.5-2.6-1.4-2.9,0.8c-0.3-0.4-0.4-0.5-0.9-0.4c-0.7,0.1-0.8-0.7-1.5-0.7c-0.7-0.6,1.2-1.6,1.5-2.3
	c0.3-0.4,0.7,0,1.1,0.1c0-0.3-0.2-0.3-0.3-0.4c-0.5-0.6,0.5-1.5,0.8-2.1c0.3-0.9-1.5-2.8-1.8-1c0.1,0.6,0.8,0.3,0.6-0.2
	c0.4,0.4,0.8,1.4-0.2,1c-0.3-0.1-0.5-0.1-0.6,0.2c-0.3,0.4-1,0.1-1.6,0.1c-0.4,0-0.7,0.1-0.9,0.4c-0.3,0.6-1,0.3-1.6,0.4
	c-0.9-0.2,0.6-1.3,0.8-1.7c0.4,0.3,0.7,0.4,0.8,0.4c-0.8-0.8-1.2-1.7-2-2.4c-0.6-0.6,0.4-1.5,0.2-2.3c0.4-0.9,2.4,1.5,3,0.2
	c0.1-0.4-0.2-0.9-0.5-1.2c0.1,1.7-0.9,0.7-2.2,0.2c-2-1.5,1.5-4,3.7-3.5c0.1,0.7-1.1,1-1.6,1.6c-0.8,1.5,3,2.3,3.1,4
	c-5.6-1.6-4.5,0.3-1,1.9c-1.6-1.8-3.8-2.4,1.1-1.5c2.1-0.5-2-3-2.8-3.7c-0.5-1,2.2-1.3,1.9-2.4c0-0.8,1.4,0.2,2,0.2
	c-0.3-0.7-1.4-0.7-1.7-1.4c0-0.4-1.2-1.5-0.5-1.6c0.4,0.1,1.6,0.5,1.2-0.1c-0.2-0.2-0.3-0.3-0.1-0.6c-0.2-0.6-0.9-1.1-1.2-1.8
	c3.4,0.4,3.5-0.9,2.1-2.8c3.1,0.5-1.1-4.1,1.8-3.9c1.4,0.1,5,1.3,3.4-0.8c-0.1-0.2-0.1-0.3,0.2-0.3c2.8,0.9,2.5-0.6,1.9-2.1
	c-0.3-0.3-0.1-1.7-0.8-0.9c-0.1-1.2-1.8-1.7-2.2-2.8c0.1-1-1.8-2.9-0.1-3.3c1.3-0.5,1,1.2,1.6,1.8c0.5,0.8,0.5,1.7,0.1,2.4
	c2.4,0-0.8-3.4-0.6-4.4c0.5-1.8-1.6-3.4-1.7-4.9c2,0.7,0.4-2,1.2-2.7c0.5-0.9-1.2-1.6-1.4-2.5c-0.3-0.6,0.7-1,0.4-1.6
	c-0.1-0.2-0.1-0.4,0.1-0.5c0.4-0.5,0.1-1.1-0.1-1.6c-0.4-1.1,0.6-2.3,1.4-0.8c-0.9,0.3-0.8,0.2-0.5,1.1c-0.2-0.9,0.9-0.6,1.7-0.8
	c0.6-0.5-0.5-1.3-0.9-1.7c-0.9-0.7,1-1.2,1.2-1.9c-1.6,0.8-2.3,1.5-0.8,2.7c0.4,0.3,0.1,1.2-0.3,0.4c-0.3-0.9-2.6-1.9-1.1-2.7
	c0.8-0.6,2.2-0.5,2.2-1.6c0.1-1.2-1.5-3.6,0.1-4.4c0.1,0.3-0.2,0.4-0.2,0.8c2-1.8-1.3-1.6-0.8,0.3c0,0.6,0.6,1.1,0.2,1.6
	c-0.4-0.4-0.9-0.7-0.9-1.2c0-0.2-0.1-0.3-0.3-0.4c-0.6-0.1-0.9-0.3-0.6-0.9c0.7-1.2-1.2-3,1-3.6c5.1-0.8,3-2.3,5.5-3
	c2.4-1-0.4-4,1.7-5.6c0.3-0.8-2-0.9-0.9-1.8c2.6-2.3,6.8-2.9,5.4,1.1c-0.1,1.8,0.6,3.7,0.3,5.5c0.4,2.5-0.3,7,3.2,8.2
	c0.6,0.1,1.6-0.3,1.7,0.3c-0.3,3.2,0.2,2,3,3.7c0.7,0.6-0.1,1.2-0.8,1.5c-2.4,2.3,5.8,2.9,4.9,5.2c-1.6,5.9-4,4.6,2.7,9
	c0.1,1.7-2.8,2.8-2.8,4.7c-1.1,1.3-3.5,0.6-1.2,3c-1.2-2.7,0.5-1.1,1.6-2.6c0.4-0.8,0.3-2,1.3-2.5c0.5-0.2,0.9-0.6,1.1-1
	c1.7-1.8,0.3-1.4-1.2-2.7c-0.9-1-3.9-2.1-2.4-3.4c0.5-0.1,0.6-0.4,0.6-0.8c0.1-1.1,0.2-2.5,1-3.4c0.3-0.2,0.3-0.4,0.1-0.7
	c-0.8-1.8-6-2.4-5.3-4.3c2.6-1.1,0.7-2.9-1.4-3.3c-1.2-0.4-0.3-1.8-0.5-2.6c-1.8-1.4-3.4,1.4-4.4-3.6c0.8,0.5,0.7,1.3,1.4,1.8
	c-0.2-0.9-0.7-1.8-1.2-2.5c-1.6-2.1,0-5.1,0.2-7.4c0-0.4-0.4-0.4-0.7-0.6c-0.9-1,0.1-2.5-0.3-3.7c-1.1-0.6-0.7-2.3-1.9-2.8
	c-0.8,0.4,0.6,1.9-0.8,1.9c-1.5,0.3-5.1,1.4-4,2.9c0.3,0.3,1.1,0.7,0.7,1.1c-1.1,1.3-0.3,2.9-0.5,4.3c0,1.2-1.7,0.1-1.9,1.2
	c-0.5,2-3.1,2-5,2.9c-1.5,0.8,0.1,2.3-0.4,3.3c-0.4,0.8-0.6,2.1-1.9,2.3c-0.4,0-0.6,0.1-0.8,0.4c-2,4.7,1.2,9.4,2.6,13.8
	c0,0.7-1.2,1-0.8,1.6c0.3,1.2-1.6,2.2-0.6,3.4c1.1,1.6,0.1,3.5,1.1,5.1c0,0.4-0.6,0.5-0.2,0.9c1,1.1-0.3,1.8-0.6,2.8
	c-0.1,0.4-0.1,0.4-0.5,0.5c-0.5,0-0.9,0.3-0.8,0.8c0.6,2.1-3.6,1.3-3,3.8c0,0.4-0.1,0.7-0.5,0.9c-8.2,7.5,6.7,5.7-6.5,8.9
	c-4.5,1.9-1.3,1.4-2.3,3.4c-1.1,2-1.5,4.3-3,6.3c-0.7,0.9-0.9,1.9,0.7,2.3c1.3,0.6,2.2,1.7,3.5,2.3c0.7,0.3-0.1,1-0.3,1.3
	c0,1.5,2.4,2.8,3.4,4.2c1.8,0-3.6-3.3-2.6-4.2c0.5,0.1,0.5,0.8,1.1,0.9c0.5,0,0-0.4,0.2-0.6c0.7,0.2,0.9,0.9,1.3,1.3
	c0.9,0.4,1.1,2,2.2,2c1.3-0.4,1.5,0.6,3-0.6c0.7-0.1,0.9,0.8,1.4,1c1.5,1,1.6-2.1,2.3-1.4c2.5,5.2,5.7,10.3,3.3,15.9
	c-0.4,1.4-2.8,0.7-4.1,1.1c-11.1-0.3-22.4-1.4-33.6-1.6c9.6,0.8,20.2,0.3,29.2,2c2.5-0.2,5,0,7.5,0.4c0.8,0.4-0.2,1.4-0.1,2.1
	c-0.1,0.6-0.6-0.2-0.9,0c-1.3,0.4-2.8-0.1-4.2,0.2c-1.8-0.1-4.2,0.1-5.6-0.5c-15.8-3.2-33.4-3.1-49.6-0.9c4.3-0.3,9.1-1.4,13.1-0.6
	c0.7-0.9,6.3-0.5,8.1-0.7c3.2,0.1,6.4,0.1,9.5,0.4c0.1,0,0.1,0.1,0.1,0.1c0,0.4,0.2,0.3,0.5,0.3c1.6-0.1,3.2,0.2,4.6-0.4
	c0.8,0.1,8.6,0.6,5.9,1.2c-0.5-0.1-0.6,0.3-1.2,0.3c-0.3,0.1-0.3-0.3-0.6-0.3c-6.5,0.8-14-0.4-20.9,0.2c-8.3,0-16.7-0.8-24.6,0.3
	c3.4,0,7,0,10.2,0.3c-6.4,0.6-12.7,0.5-19.2,0.7c0.2-0.1,0.3-0.2,0.5-0.3c-0.9,0.1-2.1,0-2.6,0.5L0,138.9z M75.3,66.4
	c0-0.3,0.5-0.3,0.7-0.2c0.4,0.4-0.1,0.7-0.3,1.2C75.4,67.1,75.4,66.8,75.3,66.4z M76.3,60.1c-0.1-0.2-0.5-0.4-0.5-0.1
	c0.2,0.6-0.4,1.2-0.3,1.8c0,0.6,0.7,1.4,0,1.9c-1.1,0.7,1,1.9-0.7,2.3c-0.5-2.7-2-6.3-0.2-8.7c0.9,0,1.3-0.7,1.8-1.2
	c1.1-0.4,2.7,1.8,2.5,2.7C79,59.5,76.8,60.8,76.3,60.1L76.3,60.1z M76.2,65.4c-0.6-0.2-0.9-1.3-0.1-1.4C76.2,64.4,76.7,65,76.2,65.4
	z M75.6,76.1c-0.4-0.5-0.1-2,0.7-1.9c0.4,1,2.8,3.7,0.2,3.7C76.2,77.2,75.9,76.7,75.6,76.1L75.6,76.1z M67.2,117.6
	c0.5,0,0.6,0.7,1.1,0.5c0.1-0.9-0.4-1.1,1.1-1.5c0.6-0.1,0.3,1.1,0.2,1.3C68.5,119.2,67.8,119,67.2,117.6L67.2,117.6z M61.2,106.5
	c-0.5,1.6-1,3.3,0,4.9c0.5,0.3,1.1,0.2,1.2,0.8c0.2,0.8,1,0.2,1.7,0.3c-0.7,0.8,0.7,1.3-0.2,2.1c-0.2-0.4-0.1-0.7-0.6-0.8
	c-6.8-3.6-4.2-2.7-2.1-7.7C61.3,106.3,61.2,106.4,61.2,106.5z M78.1,85.3c-3.3,0.2-1.6-0.2-1-1.7C77.5,84.3,77.8,84.8,78.1,85.3
	L78.1,85.3z M77.5,86.4c0.7-0.1,1.2,1.1,1.8,0.7c-0.4-1.1-1.4-0.8,0.3-2.1C80.9,86.9,79.8,88.6,77.5,86.4L77.5,86.4z M73.4,88.8
	c-0.3,0.5-1.2,0.5-1.6,1.1c-0.2-2,2.5-1.5,3.7-2.7c0.5,1.4,1.3,0.7,1.3-0.4C80.4,91,74.4,86.7,73.4,88.8z M70.8,94.1
	c0.2-1.1,2.5-6.2,2.7-2.7c0.2,1.1-1-0.1-1.4,0.4c-0.2,0.8,2.6,3.1,0.3,3.2C71.7,94.8,70.4,94.9,70.8,94.1L70.8,94.1z M69.4,96.8
	c-2.2-1.7,0.1-4.2,1.9-5.5c-0.4,1.4-2.2,2.9-1.8,4.3C70.7,96.3,72.1,98.2,69.4,96.8L69.4,96.8z M65.6,102.4
	c-0.3,0.2-0.4-0.3-0.5-0.4c0,0-0.1,0-0.1,0c0.3,0.3,1.2,2.5,0.1,1.7c0.2,3.8,0.4,1.6-2.3,3.9c-0.6,1.3,1.3,1.9-1.1,2.3
	c-0.3,0.1-0.4,0.1-0.4-0.1c-0.5-1.3,0.5-2.7,0.2-4c-0.5-0.1,0.1-0.5,0.2-0.7c0.1-0.9,1.3,0,1.2-0.8c0-0.3-0.3-0.7,0-0.9
	c0.3-0.3,0.3-0.3-0.1-0.5c-0.4-0.2-0.4-0.7-0.6-1.1c1.2-2.1,5-1.8,7.4-3c0.1,0.5,0.2,0.9,0.6,1.1c0.2,0.1,0.1,0.2-0.1,0.3
	C68,100.2,66.8,101.2,65.6,102.4L65.6,102.4z M66.7,112.5C66.7,112.5,66.7,112.5,66.7,112.5c-4.5-1.6-0.6-2-1.5-3.4
	c-1.2,0.4-0.9,2.1-2.3,2.2c-0.4,0-0.5-0.4-0.7-0.6c-0.5-1,2.2-0.1,1.3-1.4c-0.6-0.7-0.6-2.4,0.8-2.1c0.2,0.2,0.4,0.1,0.6,0.1
	c0.9-0.7,1.3,0,1.5,0.7c-0.4-0.1-0.8-0.1-1.2-0.2c0,0,0,0.1,0,0.1C69.6,109,63.2,110.7,66.7,112.5L66.7,112.5z M66.6,115.1
	c-0.6,0.6-2.6-0.8-1.5-1C65.6,114.3,67.1,114.6,66.6,115.1L66.6,115.1z M68.4,112.1c-0.1,1-1.9-0.6-1.3-0.8
	C67.8,111.2,68.3,111.5,68.4,112.1z M69.3,113.9c-0.7,0.6-0.5-0.5-0.4-0.8c0.2-0.5,1.1-0.4,0.7-1.1c-0.3-0.6-1.7-1.7,0.2-1.5
	c0.8,0.1-0.3,0.7,0,1.1c0.4-0.3,0.7-0.6,1-0.9C71.9,111.9,70,112.9,69.3,113.9z M69.8,115.8c-0.2,0.6-2.2,1.3-2.6,0.5
	c0.5-0.3,1.1-0.3,1.2-0.9C68.5,114.7,69.9,115.3,69.8,115.8L69.8,115.8z M72.9,119.2c0.8-0.7,1.3-1.3,1.3-2.3c0.1,0,0.1,0,0.2,0
	C74.7,117.4,73.4,120.1,72.9,119.2L72.9,119.2z M74.2,115.8c-0.6,0-1.4,0.4-1.4-0.5c0-0.3,0.2-1,0.7-0.8
	C74,114.5,75.1,115.7,74.2,115.8L74.2,115.8z M99.2,125.8c0.1-0.3,0.8-0.1,0.8,0.1c0,0.3-0.4,0.3-0.8,0.5
	C99.2,126.1,99.2,125.9,99.2,125.8L99.2,125.8z M95.6,127.8c0.2,0,0.3-0.1,0.5-0.1c0.5,0.1,0,0.5-0.2,0.6
	C95.6,128.5,95.1,127.9,95.6,127.8z M88.4,125.5c-1.5,0.2-1.1-2.7-0.4-3c1.2,0.3,2.5,1.3,2.8,2.2C89.9,124.7,89.2,125.1,88.4,125.5
	L88.4,125.5z M86.7,126.5c0.5,0.3,1.2,0.2,1.6,0.5C87.7,128.4,86.9,127.6,86.7,126.5L86.7,126.5z M85.7,122.7
	c0.2-0.2,0.5-0.1,0.6-0.4c1.4,0.1,0.8,1.2,0.6,1.9C86.5,124,85.8,123.1,85.7,122.7z M77.3,117.9C80.9,121,75.5,118.7,77.3,117.9
	L77.3,117.9z M78.6,118.4c-0.5-0.3-0.8-0.6-0.9-1C78.8,117.1,78.9,117.8,78.6,118.4z M79.9,122.6c-0.1,0.3,0,0.7,0,1.1
	c-0.7-0.8-1.9-3.2-1.9-3.7C79.5,119.9,80,121.6,79.9,122.6z M80.5,131.1c0.2-0.3,0.4-0.6,0.6-1c0.2,0.5,0.1,1.2-0.1,1.6
	C80.9,131.5,80.7,131.3,80.5,131.1z M80.5,133.7c0.2,1.4-0.2,2.5-0.6,3.9C79.6,136.2,80,135,80.5,133.7z M79.4,133.9
	c-0.2,1.2-0.2,2.4-0.9,3.5c0-1.8,0.5-3.6,1-5.4C80.3,132.5,79.4,133.3,79.4,133.9L79.4,133.9z M78.4,139.1c0,0,0-0.1-0.1-0.1
	c0.6-0.3,0.2-1,0.9-1.3C79.1,138.3,79.9,139.7,78.4,139.1z M74.3,139.5c0.6-0.5,2,0,2.8,0.1l0,0.2C76.2,139.7,74.8,140,74.3,139.5
	L74.3,139.5z M60.1,138.7c4.2-0.4,8.4,0,12.5,0.4c0,0.1,0,0.1,0,0.2c-4,0.5-8.1-0.3-12.1-0.2C60.3,139,60.2,138.9,60.1,138.7
	L60.1,138.7z M56.6,138.6c1-0.2,2-0.2,3,0c0,0,0,0.1,0,0.1C58.6,138.9,57.5,138.8,56.6,138.6L56.6,138.6z M50,138.2
	c0.3-0.8,8.5-0.7,8.8,0.1c-2.8,0.3-5.9,0.2-8.8,0.1C50,138.3,50,138.2,50,138.2L50,138.2z M38,137.7c0.7-0.2,3.5-0.2,4.9-0.1
	C41.3,138.1,39.6,137.9,38,137.7L38,137.7z M21.7,137.7c-0.5,0-1,0-1.4-0.2c2.1,0,4.4-0.3,6.5,0.1C25.1,138.1,23.4,137.5,21.7,137.7
	L21.7,137.7z M77.6,102.6c0.6,0.6,1.3,0.5,2,0.6C79.1,102.8,78.3,102.8,77.6,102.6z M89.6,61c0.7,0,0.8-0.3,0.6-1
	C90.2,60.5,90.2,60.7,89.6,61z M344.5,353.7c0.5,0.9,0.5,1.8,2.2,2.1c0.2-0.3,0.5-0.6,0.6-1c0.2-1,0.4-2.1,0.6-3.1
	c0.2-0.9,0.2-1.9,0.4-2.8c0-0.2,0.2-0.4,0.4-0.7c0.1,0,0.2,0,0.4,0c0.2,0.5,0.3,1.1,0.5,1.6c0.8-1,0.8-2.2,2-3.1
	c0.1,0.7,0.4,1.4,0.4,2.2c0,0.8-0.3,1.5-0.3,2.3c1.1-1.5,2-2.9,3.5-4.2c0.9,0.4,0.9,0.9,1,1.3c0.2,1.3,0.4,2.6,0.6,3.9
	c0,0.2,0,0.5,0.1,0.7c0.2,0.7,0.7,0.8,1.5,0.5c0.4-0.2,0.8-0.4,1.4-0.5c-0.5,0.4-0.9,0.8-1.5,1.1c-1.1,0.6-2,0.3-2.2-0.5
	c-0.3-1.2-0.4-2.4-0.6-3.7c-0.1-0.5-0.2-1.1-0.5-1.6c-2.9,2.3-2.9,5.2-3.4,8c-0.9-0.1-1-0.5-1-0.9c-0.1-1-0.8-1.7-1.9-2.5
	c-0.2,0.8-0.4,1.5-0.7,2.2c-0.1,0.3-0.1,0.6-0.4,0.8c-0.3,0.2-0.8,0.5-1.2,0.4c-0.9,0-1.4-0.5-1.8-1
	C343.9,354.7,343.9,354.5,344.5,353.7L344.5,353.7z M299.6,331.5c0.2,0.4,0.4,0.9,0.5,1.3c0.4,2.2,0.7,4.4,1.2,6.5
	c0.1,0.6,0.6,1.2,0.8,1.8c0.2,0.4,0.4,0.9,0.5,1.3c0.4,1.2,0.7,2.5,1,3.8c0.5,0,0.9,0.1,1.3,0.1c0.2,0.4,0.3,0.7,0.5,1.1
	c0.2,0.6,0.1,1.3,1.2,1.6c0.9,1.2,1.6,2.5,1.3,4c-1.2,0-1.8-0.6-2.6-1c-0.2,1.2,0.7,2.3,0.4,3.5c-0.9-0.2-0.9-0.6-1-0.9
	c-0.5-1.7-0.9-3.4-1.4-5.1c-0.7-2.4-1.5-4.8-2-7.1c-0.8-3.5-1.4-7-2-10.4c0-0.1,0-0.3,0.1-0.4C299.4,331.5,299.5,331.5,299.6,331.5
	L299.6,331.5z M386.9,355.8c0.4-0.5,0.8-0.8,0.9-1.2c0.3-0.9,0.4-1.9,0.6-2.9c0.1-0.3,0.1-0.7,0.7-0.9c0.1,0.3,0.2,0.5,0.3,0.8
	c0.1,0.8,0.8,1.3,1.8,1.7c1,0.4,2,0.3,2.6-0.1c0.6-0.5,0.5-1-0.4-1.7c-0.1-0.1-0.1-0.2-0.2-0.3c0.6-0.3,1.2-0.1,1.8,0
	c4.5,0.7,9.1,1.4,13.6,2.1c2.8,0.5,5.5,0.5,8.4,0.2c2.4-0.3,4.9-0.2,7.4,0.3c-0.2,0-0.4,0.1-0.5,0c-2.9-0.3-5.7-0.1-8.6,0.2
	c-2.2,0.3-4.4,0-6.5-0.4c-4.2-0.6-8.4-1.2-12.5-1.8c-0.3,0-0.6,0-1.1-0.1c-0.1,1-0.3,1.9-2.1,2.2c-1.5,0.3-2.5-0.4-3.9-0.8
	c-0.3,0.6-0.5,1.2-0.8,1.7c-0.2,0.5-0.4,1-1.2,1.1c-0.9,0.1-1.5-0.3-1.9-0.7c-1-0.9-1.8-1.9-1.9-3.1c-0.1-1.7-0.3-3.4-0.2-5.1
	c0.2-2.4,0.6-4.8,1-7.1c0.2-1.4,1.1-2.7,2.1-4.1c0.5,0.3,0.4,0.6,0.1,0.8c-1.5,1.9-2,4-2.2,6.1c-0.2,2.5-0.4,5.1-0.4,7.6
	c0,1.5,0.2,3,1.7,4.3C385.7,355,386.2,355.3,386.9,355.8L386.9,355.8z M342.7,355.3c-0.2-0.3-0.4-0.6-0.5-1
	c-0.8-2.1-0.9-4.2-1.1-6.3c-0.2-2-0.4-4-0.5-6c0-1.2,0.1-2.3,0.2-3.5c0.2-2.4,0.4-4.8,0.6-7.1c0.1-0.8,0.5-1.6,0.8-2.4
	c0.1-0.2,0.4-0.5,0.9-0.6c-0.1,0.2-0.1,0.5-0.2,0.7c-0.6,1.4-0.9,2.8-0.8,4.2c0,0.6-0.1,1.3-0.2,1.9c-0.5,3.6-0.3,7.3,0,11
	c0.1,1.1,0.1,2.2,0.2,3.4c0.1,1.6,0.4,3.3,1.1,4.9c0.1,0.3,0.1,0.6,0.2,0.9C343,355.3,342.9,355.3,342.7,355.3z M284.7,350.6
	c0.6,1.1,1.1,2.1,1.7,3.1c0.1,0,0.2,0,0.4-0.1c-0.7-1.7-1.4-3.4-2-5c-0.6-1.7-1.2-3.5-1.5-5.3c0.2,0.3,0.6,0.7,0.7,1
	c0.5,1.1,0.8,2.2,1.3,3.2c0.9,2.1,1.3,4.2,2.8,6.2c0.3,0.5,0.5,1,0.7,1.5c0.1,0.3-0.1,0.5-0.1,0.9
	C286.7,355.7,284.8,352.8,284.7,350.6L284.7,350.6z M289.1,343.4h2.3c0,0.1,0,0.1,0,0.2c-0.2,0-0.4,0.1-0.6,0.1
	c-1.1,0.1-1.2,0.3-0.9,1c0.3,0.7,0.6,1.5,1.1,2.1c1.3,1.8,2.7,3.5,4.1,5.3c0.3,0.4,0.4,0.4,0.4,1
	C293.3,352.2,288.9,345.7,289.1,343.4L289.1,343.4z M272.2,342.7c0.1,0.3,0.2,0.5,0.2,0.8c0.3,2.6,0.8,5.2,1.8,7.7
	c0.3,0.8,0.5,1.7,0.7,2.5c0.1,0.6,0.1,0.6-0.8,1.1c1.1-2-0.6-3.8-1-5.6c-0.4-2-0.9-4-1.3-6.1c0-0.2,0.1-0.3,0.1-0.5
	C272,342.8,272.1,342.8,272.2,342.7L272.2,342.7z M376.5,346.4c0.1,0.6,0.2,1.2,0.3,1.9c0,1.1,0,2.2,0,3.3c0,0.2,0,0.4,0.1,0.7
	c0.2,1.1,0.7,1.2,2.4,0.7c-0.3,0.5-0.8,0.8-1.5,0.8c-0.7,0-1.1-0.4-1.3-0.8c-0.2-0.3-0.3-0.7-0.3-1.1c0-1.8,0-3.6,0-5.4
	C376.2,346.5,376.4,346.4,376.5,346.4L376.5,346.4z M277.8,353c-0.2-3.3-0.5-10.4-0.7-13.8c0.1,0,0.2,0,0.4,0
	c0.6,3.3,0.4,10.4,0.8,13.8C278,353,277.9,353,277.8,353z M116.4,269c-1.6,0.5-2.9,1-4.2,1.4c-1.7,0.5-3.4,0.7-5.2,0.4
	c-1.4-0.2-2.8-0.3-4.2-0.5c-1.5-0.2-3-0.5-4.3-1.4c-0.5-0.4-1.1-0.6-1.6-1.1c-1.5-1.6-3.3-2.9-4.5-4.8c-0.9-1.4-1.8-2.8-2.6-4.2
	c-0.3-0.5-0.6-0.7-1-1c-1.4-0.7-2.6-1.8-3.5-3c-0.8-1.1-0.9-2.4-0.1-3.5c0.2-0.2,0.4-0.5,0.5-0.7c0.2-0.9,0.8-1.5,1.5-2.1
	c1.4-1.2,1.4-1.3,3.1-1.1c0.1-0.1,0.2-0.1,0.3-0.3c0.2-0.6,0.7-0.8,1.3-0.8c0.6,0,1.2,0.1,1.6,0.6c0.2,0.2,0.3,0.5,0.5,0.7
	c0.3,0.6,0.7,1.1,1.4,1.4c0.3,0.2,0.6,0.5,0.7,0.9c0.4,0.8,0.8,1.6,0.7,2.6c-0.1,0.7,0.2,1.4,0.5,2.1c0.8,1.8,2,3.4,3.4,4.8
	c1.5,1.4,3.2,2.2,5.4,1.6c1.9-0.5,3.4-1.5,4.5-3.1c0.9-1.4,1.7-2.8,2.5-4.3c0.7-1.2,1.3-2.4,2-3.6c1.2-2.1,2.9-3.7,4.9-5.2
	c1-0.7,1.8-1.5,2.8-2.2c0.5-0.4,0.7-0.9,0.8-1.5c0.1-1.6-0.4-3-1.4-4.2c-0.5-0.6-1.1-0.9-1.9-0.9c-0.5,0-1,0.1-1.5,0.1
	c-1,0-1.9-0.4-2.5-1.2c-0.8-1.1-0.7-2.4,0.3-3.3c0.6-0.5,1.2-0.9,1.8-1.3c0.8-0.5,1.5-1.1,1.9-2.1c-0.3,0-0.5,0-0.7,0.1
	c-0.7,0.4-1.4,0.8-2.1,1.3c-0.8,0.5-1.6,0.6-2.5,0.5c-0.7-0.1-1.2-0.4-1.4-1.1c-0.2-0.4-0.3-0.9-0.5-1.5c-0.4,0.1-0.7,0.2-1,0.3
	c-1.1,0.2-1.9-0.6-1.7-1.7c0.2-0.9,0.6-1.6,1.2-2.2c1.3-1.3,1.7-2.9,1.6-4.7c0-2.3,0.4-4.5,0.9-6.7c-0.5-0.5-0.9-0.9-1.3-1.4
	c-0.4-0.5-0.8-1-0.8-1.7c0.5-0.1,1-0.2,1.5-0.3c0-0.1,0-0.2-0.1-0.4c-0.3-0.9-0.2-1,0.7-1.1c0.2,0,0.5,0,0.8,0
	c0.1-0.2,0.2-0.4,0.2-0.6c0.1-0.3,0.4-0.4,0.7-0.4c0.2,0,0.4,0.1,0.6,0.2c1.1,0.3,2.2,0.4,3.3,0.4c2.7,0.1,5.4,0.2,7.9,1.4
	c1.9,0.9,3.8,2,5.1,3.8c0.6,0.9,1.3,1.8,1.5,3c0,0.2,0.2,0.3,0.3,0.5c0.4,0.6,0.5,1.2,0.5,1.9c0,0.9,0.1,1.9,0.1,2.8
	c-0.2,2.5-0.7,4.9-1.5,7.3c-0.4,1.3-0.7,2.8-0.9,4.1c-0.1,0.5-0.3,0.9-0.9,1c0.4,1.4,1,2.6,1.9,3.6c1,1.2,2.3,1.9,3.8,2.4
	c4.2,1.2,7.8,3.4,11.1,6.3c2.4,2.1,4.2,4.5,5.7,7.2c0.9,1.7,1.8,3.3,2.6,5.1c1.1,2.5,1.9,5.2,2.3,8c0.2,1.4,0.4,2.8,0.2,4.2
	c-0.1,0.7-0.2,1.5-0.3,2.2c-0.2,1.1-0.5,2.1-1.6,2.6c-0.7,1.1-1.9,1.4-3.1,1.7c-0.9,0.2-1.7,0.6-2.7,0.7c-0.4,0-0.9,0.3-1.3,0.5
	c-0.1,2.3-0.2,4.6-0.2,6.8c0,0.6,0,1.2-0.4,1.8c-0.2,0.2-0.2,0.6-0.3,1c-0.3,1.6-0.5,3.3-0.9,4.9c-0.6,2.4-1.4,4.8-2.2,7.1
	c-1,3-2.4,5.8-3.8,8.6c-1.1,2.3-2.1,4.6-3,7c-0.5,1.2-0.8,2.5-1.1,3.8c-0.4,1.7-0.1,2.5,1.9,2.5c2.1,0,4.2-0.3,6.3-0.4
	c1.3-0.1,2.6-0.4,3.9-0.5c0.9-0.1,1.7,0,2.7,0c0.8,0.4,1,1.1,0.8,2c-0.3,1.3-0.4,2.6-1,3.8c-0.4,0.9-0.6,1.9-0.8,2.8
	c-0.2,1.1-0.8,2-1.4,2.9c-0.1,0.2-0.4,0.3-0.6,0.4c-0.7-0.7-1.3-1.4-1.2-2.4c0-0.8-0.1-1.6-0.3-2.6c-0.6,0.3-1.2,0.5-1.7,0.8
	c-2.4,1-4.9,1.9-7.3,3c-1.3,0.5-2.5,0.9-3.9,1.3c-1.9,0.5-3.8,0.8-5.8,0.4c-2.1-0.4-3.7-1.5-4.8-3.3c-1.7-2.7-2.3-5.5-2.2-8.7
	c0.1-1.5,0.1-2.9,0.1-4.4c0-1.8,0.2-3.5,0.5-5.2c0.3-1.7,0.5-3.5,0.7-5.3c-0.7,0-1.2,0.4-1.8,0.6c-0.6,0.3-1.3,0.5-1.9,0.7
	c-0.9,0.3-1.7,0.6-2.6,1c-2.9,1.1-5.7,2.5-8.2,4.5c-1.3,1-2.5,2-3.4,3.4c-0.5,0.8-0.9,1.6-1.4,2.4c-0.9,1.5-1.3,3.2-1.7,5
	c-0.6,3.1-1.2,6.2-1.7,9.3c-0.4,2.3-0.6,4.6-0.8,6.8c0,0.4,0,0.8,0,1.2c0.6,0.3,1.1,0.5,1.7,0.8c-0.1,0.4-0.5,0.5-0.8,0.5
	c-0.6,0-1.2,0.1-1.4,0.4c-1.3-0.1-2.4-0.2-3.5-0.4c-0.4-0.1-0.9-0.1-1.3-0.3c-1.3-0.4-2.6-0.6-3.8-1c-1.1-0.4-2.4-0.5-3.6-0.7
	c-1.9-0.3-3-1.5-3.7-3.2c-0.2-0.4,0-1,0.5-1.1c0.4-0.1,0.9-0.1,1.3-0.1c1.3,0.1,2.6,0.2,3.9,0.4c0.4,0,0.8-0.1,1.2-0.1
	c0.2-1.5,0.4-2.8,0.6-4.2c0.2-1.7,0.4-3.5,0.5-5.2c0.2-2,0.3-4,0.4-6c0.1-1,0.2-1.9,0.3-2.9c0.3-2.6,0.5-5.2,1.2-7.8
	c0.5-1.8,1.1-3.6,2.1-5.3c1.2-2,2.8-3.5,4.5-4.9c1.7-1.5,3.7-2.4,5.7-3.5c0.9-0.5,1.8-1.1,2.7-1.8c1.9-1.4,3.7-2.8,5.2-4.7
	c1.1-1.5,2-3.2,2.5-5.1c0.2-0.7,0.2-1.6,0.2-2.3c-0.1-1.9-0.4-3.7-0.6-5.5c-0.2-2-0.3-4,0-6C116.4,270.1,116.4,269.5,116.4,269
	L116.4,269z M140.9,286.8c-0.4,0.2-0.8,0.4-1.2,0.6c-0.2-0.6-0.4-1.2-0.6-1.8c-0.5-0.1-1.1-0.3-1.6,0c-0.1,0.4-0.1,0.9-0.1,1.4
	c-1.1-0.1-0.7-0.9-0.9-1.5c-1,0-1.9-0.1-2.9-0.1c-0.1,0.5-0.1,0.9-0.2,1.3c-0.8-0.3-0.6-1.1-0.9-1.5c-0.8-0.1-1.6-0.5-2.4-0.1
	c-0.2,0.4,0.1,0.9-0.2,1.2c-0.8-0.2-0.5-0.9-0.9-1.3h-3v1c-0.9,0-0.6-0.8-0.9-1.2c-0.5-0.1-1.1-0.2-1.7-0.3c0,0.4,0,0.7-0.1,0.9
	c-0.4-0.1-0.7-0.5-0.9-1.1c-1.9-0.4-2.2-0.4-2.5-0.2c0,0.3,0.1,0.6,0.1,1c-1.1,0-1-0.9-1.2-1.4c-1.1-0.1-1.1-0.1-1.2,0.8
	c-0.1,0.6-0.2,1.2-0.3,1.7c-0.8,2.8-2.5,5-4.7,6.9c-0.9,0.8-1.8,1.5-2.5,2.5c0.2,0.6,0.3,1.2,0.6,1.8c0.6,1.5,1.3,3,2.2,4.4
	c0.5,0.8,0.9,1.6,1.4,2.4c0.5,0.9,1,1.6,1.9,2.3c2.8-0.7,5.3-1.8,7.8-2.9c0.3-3.6,0.7-5.2,1.7-6c-0.2,1.1-0.4,2-0.5,3
	c-0.1,0.6-0.2,1.3-0.1,1.9c0.3,1.1,0.3,2.2,0.1,3.3c-0.1,0.8-0.3,1.6-0.4,2.5c-0.1,0.7-0.2,1.3,0.1,2.1c2.2,0.4,4.4,0.7,6.6-0.3
	c1.6-0.7,3.2-1.4,3.9-3.2c0-0.1,0.2-0.1,0.3-0.2c-0.1,0.4-0.1,0.8-0.2,1.1c0.4,0.5,0.8,1,1.1,1.4c0.6,0.7,1.2,1.2,2.1,0.8
	c0.2-0.1,0.4,0,0.5-0.1c0.6-1.4,1.1-2.8,1.8-4.1c1.2-2.3,2.3-4.7,3.2-7.2c1.3-3.5,2.5-7,3.4-10.6c0.1-0.5,0.4-0.9,0.1-1.5
	c-0.5-0.2-1-0.4-1.7-0.2c0.1,0.3,0.1,0.5,0.1,0.7c0.2,0.4,0.1,0.8-0.3,1c-0.3,0.2-0.8-0.2-0.9-0.8c-0.1-0.4-0.1-0.8-0.1-1.2
	c-2-0.4-3.6-0.4-4.5,0C140.5,286.4,140.7,286.6,140.9,286.8L140.9,286.8L140.9,286.8z M147.4,268.5c-0.1-0.2-0.1-0.3-0.2-0.4
	c-1.9-2.3-3.3-4.9-4.8-7.5c-0.6-1-1.3-2.1-1.9-3.2c0.1-0.3,0.2-0.8,0.4-1.2c0.3,0.1,0.5,0.2,0.6,0.3c0.7,0.7,1.3,1.4,2,2.2
	c0.4,0.5,0.8,1.1,1.3,1.4c3.2-1.3,5.5-3.6,8.1-5.6c-1.8-4.7-8.2-11-14.5-13.2c-0.5,1.3-1.5,2.2-2.5,3.1c-0.2,0.2-0.4,0.3-0.5,0.5
	c-1,1.1-2.3,1.8-3.7,2.2c-0.2,0.1-0.5,0.1-0.7,0.2c-1.8,1-3.7,1.1-5.7,0.6c-1.2-0.3-2.1-1-2.8-2c-0.2-0.3-0.3-0.6-0.5-0.9
	c-1,0.6-2.1,1-2.9,1.8c-1.5,1.6-3,3.3-3.9,5.5c-0.8,1.8-1.5,3.7-2.6,5.4c-0.2,0.3-0.3,0.7-0.5,1c0.2,0.2,0.4,0.4,0.6,0.5
	c1.3,1,2.5,2,3.8,3c0.1,0.1,0.3,0,0.4,0c0.3-1.6,0.5-3.2,0.8-4.8c0.1-0.6,0.2-1.2,0.2-1.7c0.1-0.7,0.2-1.4,0.4-2.2
	c0.1-0.5,0.2-0.9,0.3-1.4c0-0.1,0.2-0.3,0.4-0.6c0,1.1,0.1,1.9,0,2.8c-0.2,2.2-0.4,4.5-0.6,6.7c-0.1,1-0.1,2-0.1,2.9
	c0,2.1,0,4.1,0,6.1c0,2.1-0.3,4.2-0.2,6.3c0.1,2.1,0.2,4.2,0,6.3c0,0,0.1,0.1,0.2,0.3c0.3,0.1,0.8,0.2,1.3,0.3
	c1.4,0.2,2.8,0.3,4.2,0.6c1.4,0.3,2.9,0.3,4.4,0.3c1,0,2,0.1,3.1,0.1c3.2,0.2,6.4,0.5,9.6,0.7c1.7,0.1,3.3,0.2,4.9,0.5
	c0.4,0.1,0.9,0.1,1.3,0.1c0.7,0,1-0.3,1.1-0.9c0.2-1.5,0.3-3,0.2-4.5c-0.3,0-0.6-0.1-0.8-0.1c-1.3,0-2.6,0.1-3.9-0.1
	c-1.4-0.2-2.8-0.3-4.2-0.2c-0.9,0-1.7-0.2-2.4-0.7c-0.6-0.4-1.2-0.5-1.9-0.5c-1.1-0.1-2.1-0.1-3.2-0.3c-0.6-0.1-1.2-0.4-1.7-0.8
	c-0.4-0.3-0.9-0.6-1.4-0.8c-0.9-0.4-1.2-1.1-0.9-2c0.1-0.4,0.3-0.7,0.4-0.8c-0.2-0.8-0.5-1.4-0.5-2c0-0.8,0.8-1.1,1.2-1.6
	c0-0.1,0-0.3,0-0.4c0.1-1.4,0.4-1.8,1.8-2c0.5-0.1,1.1-0.1,1.4-0.2c0.4-0.5,0.6-0.9,1-1.2c0.7-0.6,1.2-0.6,1.9,0.2
	c0.8,1.1,1.8,2.1,2.2,3.3c3.2,0.4,6.2-0.1,9.2-0.5C146.8,268.8,147.1,268.6,147.4,268.5L147.4,268.5z M137,240.7
	c-0.2-0.1-0.4-0.2-0.5-0.3c-1.7-0.6-3-1.8-4.3-3c-0.5-0.4-0.9-1-1.2-1.6c-1.3-2.4-2.1-4.9-2.3-7.6c-0.1-1.4-0.1-2.8,0.9-4
	c0.4-0.5,0.5-1.1,0.4-1.8c-0.1-0.6-0.2-0.8-0.8-0.8c-0.2,0-0.4,0-0.6,0c-0.9-0.1-1.4-0.6-1.7-1.4c-0.1-0.4-0.2-0.9-0.3-1.3
	c-0.2-0.7-0.3-1.4-0.6-2.1c-0.5-1.4-1.5-2.3-2.9-2.6c-0.8-0.2-1.7-0.3-2.6-0.3c-0.9-0.1-1.8,0-2.6-0.1c-0.5,0-1.1-0.1-1.6-0.1
	c-0.6-0.1-1.1-0.2-1.7-0.4c-0.1,0.3-0.2,0.4-0.3,0.6c-0.2,1.6-0.6,3.1-0.5,4.6c0,0.8,0,1.6,0,2.3c0,1.7-0.4,3.2-1.7,4.3
	c-0.2,0.2-0.3,0.4-0.5,0.6c-0.2,0.3-0.3,0.7-0.2,1.1c0.2,0,0.3,0,0.5,0c1.3,0,1.5,0.1,1.9,1.3c0.2,0.4,0.3,0.8,0.5,1.1
	c0.8,0.3,1.4,0.2,2.1-0.1c0.7-0.4,1.5-0.7,2.2-1.1c0.3-0.1,0.5-0.2,0.8-0.3c0.8-0.1,1.2,0.3,1,1.1c-0.3,1.4-1.2,2.3-2.3,3
	c-0.4,0.2-0.7,0.5-1.1,0.8c-0.5,0.4-0.6,0.9-0.4,1.4c0.2,0.7,0.6,1.1,1.4,1.1c0.3,0,0.6,0,0.9,0c1.3,0.1,2.5,0.3,3.6,1.1
	c1.7,1.3,2.1,3.1,2.3,5c0,0.3-0.1,0.6-0.3,0.8c-0.3,0.4-0.7,0.8-1.1,1.1c-0.5,0.4-0.9,0.8-1,1.3c0.6,1.2,1.3,1.9,2.2,2.2
	c1.5,0.5,3.1,0.6,4.6,0.1c2-0.6,3.9-1.4,5.5-3C135.6,242.8,136.5,241.9,137,240.7L137,240.7z M100,330.5c0.1-0.4,0.2-0.7,0.3-1.1
	c0.4-1.9,0.8-3.8,1.2-5.7c0.5-2.2,1.1-4.5,2.2-6.5c0.4-0.8,0.7-1.6,1.1-2.4c0.2-0.4,0.4-0.8,0.7-1.1c1.2-1.2,2.4-2.3,3.6-3.4
	c0.4-0.3,0.8-0.5,1.2-0.8c0.4-0.2,0.8-0.4,1.1-0.6c1-0.7,1.9-1.3,3.1-1.7c0.1,0,0.1-0.1,0.2-0.3c-1.6-1.3-2.4-3.2-3.4-5
	c-1-1.8-1.7-3.7-2.3-5.8c-0.8,0.5-1.5,1-2.3,1.4c-2.1,1.2-4.1,2.6-6,4.2c-2.5,2-4.1,4.6-5,7.6c-0.8,2.6-1.5,5.4-1.6,8.2
	c0,0.2-0.1,0.5-0.1,0.7c-0.1,1.4-0.3,2.8-0.4,4.2c-0.1,1.3-0.2,2.5-0.2,3.8c0,1.1-0.2,2.1,0,3.3C95.7,329.9,97.7,330.2,100,330.5
	L100,330.5z M149.4,269.1c-1.4,1.1-1.4,1.2-2.1,1.3c-1.5,0.2-3,0.4-4.5,0.5c-0.3,0-0.6,0-0.9,0c-1.1-0.1-2.2-0.2-3.3-0.2
	c-0.9,0-1.7-0.2-2.5-0.8c0.2-1.2-0.8-1.8-1.3-2.6c-0.3-0.4-1-0.1-1.1,0.4c-0.1,0.4-0.1,0.7-0.1,1.2c-0.3-0.1-0.6-0.2-0.8-0.3
	c-0.8-0.1-1.5-0.3-2.3-0.3c-0.6,0-0.8,0.6-0.5,1.1c0.3,0.4,0.6,0.8,0.6,1.3c-0.2,0-0.3,0.1-0.5,0.1c-0.2,0-0.4,0-0.6,0
	c-0.4,0.1-0.8,0.5-0.9,0.9c-0.1,0.5,0.2,0.8,0.6,0.9c0.2,0.1,0.5,0.1,0.7,0.2c0.2,0.1,0.4,0.4,0.6,0.7c-0.4,0.1-0.7,0.1-0.9,0.3
	c-0.2,0.1-0.5,0.3-0.7,0.5c-0.4,0.4-0.2,1,0.4,1.1c0.5,0.1,1,0.1,1.6,0.1c0.1,0.4,0.3,0.8,0.4,1.3c1,0.1,1.9,0.3,2.9,0.3
	c3.7,0.1,7.3-0.1,11-0.3c1-0.1,2-0.3,3-0.5c1.3-0.3,2.6-0.6,3.8-0.9c0.6-0.1,1.2-0.2,1.7-0.5c2-0.8,3.4-2,3.6-4.3
	c0-0.3,0.1-0.7,0.1-1c-0.2-3.8-0.8-7.6-2.3-11.1c-0.2-0.5-0.5-1-0.7-1.4c-0.2-0.5-0.5-0.9-0.8-1.4c-0.6,0.3-1.1,0.6-1.6,0.9
	c-0.4,0.2-0.7,0.6-1,0.8c-1.5,1-3.1,2-4.6,3.1c-0.3,0.2-0.5,0.4-0.7,0.7c0.9,1.1,1.7,2.1,2.5,3C149.2,265.5,149.8,267.1,149.4,269.1
	L149.4,269.1z M124.6,311.6c-0.1,0.7-0.2,1.4-0.3,2c-0.1,3.7-0.2,7.4,0.3,11.1c0.3,1.9,0.9,3.7,2.3,5.1c0.9,0.9,1.9,1.5,3.2,1.6
	c1.4,0.1,2.8,0,4.2-0.3c2.8-0.6,5.4-1.7,8.1-2.6c0.2-0.1,0.4-0.2,0.6-0.3c0-1.1,0-2,0-3c0-0.9,0.5-1.9,0.2-2.8c-0.9,0-1.8,0-2.6,0
	c-0.6,0-1.3-0.1-1.9-0.2c-1.7-0.4-2.4-1.4-2.4-3.2c0-1.2,0.3-2.3,0.7-3.4c0.4-1.1,0.9-2.3,1.3-3.4c0.1-0.2,0.1-0.5,0.1-0.8
	c-1.3-0.4-2.1-1.2-3-2.2c-0.4,0.3-0.7,0.5-1,0.7c-1.5,1.3-3.3,1.8-5.3,1.9C127.6,312.1,126.2,311.7,124.6,311.6L124.6,311.6z
	 M92.4,251.8c0.2,0.4,0.3,0.7,0.4,1c0.2,0.4,0.1,0.8-0.3,1c-0.3,0.3-0.7,0.3-1.1,0.1c-0.7-0.4-1.1-1-0.9-1.8
	c0.2-0.8,0.5-1.5,0.7-2.2c-0.7-1.1-1-1.3-1.5-1.4c-0.5-0.1-1.1-0.1-1.5,0.5c0.2,0.7,0.5,1.4,0.9,2.4c-0.8-0.4-1.1-0.9-1.5-1.3
	c-0.1-0.1-0.3-0.1-0.5-0.2c-0.2,0.3-0.5,0.6-0.7,0.9c0.3,0.7,0.7,1.4,1,2c0.1,0.1,0,0.3,0,0.7c-0.6-0.5-1-0.8-1.4-1.2
	c-0.6,1-0.6,1.7,0.1,2.4c0.7,0.6,1.4,1.2,2.1,1.8c0.3,0.2,0.7,0.4,1.1,0.4c0.6,0.1,0.9,0.4,1.1,1c0.4,1.1,1,2,1.7,2.9
	c1.1,1.7,2.4,3.3,4,4.6c0.1,0.1,0.2,0.2,0.3,0.3c0.6,0.7,1.4,1.2,2.2,1.7c1.5,0.8,3.1,1.2,4.7,1.5c2.3,0.4,4.6,0.6,7,0.1
	c1.7-0.3,3.2-0.8,4.6-1.7c0.6-0.4,1.1-0.7,1.8-1.1c0-0.5,0.1-0.9,0.1-1.4c0-0.4,0-0.8,0-1.3c-0.8-0.7-1.7-1.4-2.6-2.1
	c-0.9-0.7-1.5-1.6-2.6-2c-0.5,0.4-0.9,0.8-1.3,1.2c-1.3,1.2-2.8,2.2-4.6,2.2c-0.5,0-1.1-0.1-1.6-0.1c-0.5,0-1.1,0-1.6-0.2
	c-0.9-0.5-1.8-1.1-2.6-1.9c-1.6-1.6-2.7-3.6-3.7-5.6c-0.6-1.2-1-2.4-0.9-3.8c0.1-0.9-0.4-1.4-1.3-1.2c-1.2,0.2-2.3,0.7-2.6,2
	c0,0.1,0.1,0.2,0.1,0.3C91.7,252.1,92,251.9,92.4,251.8L92.4,251.8z M93.4,330.6c-0.4,2-0.4,4-0.5,6.1c1,0.4,2,0.6,3,0.8
	c1,0.2,2,0.6,3,0.9c0.5-1.4,1-5.4,0.9-6.8C97.6,331.3,95.5,331,93.4,330.6z M144.1,322.2v5.6c1.6-0.5,3-1.1,4.4-1.9
	c-0.3-1.5,0.6-2.8,1.1-4.4C147.7,321.8,145.9,322,144.1,322.2z M123.5,212.6c-0.8-0.9-1.6-1.2-2.6-1.2c-0.6,0-1.2,0-2-0.5
	c0.8,0,1.3,0,1.9-0.1c1.2-0.2,2.2,0.1,3.2,0.6c0.9,0.4,1.8,0.8,2.7,1.2c0.1-0.4,0.2-0.7,0.3-1c-1.2-1.8-2.3-2.4-3.8-2
	c1,0.6,2.2,1,3.1,2.1c-1.3-0.4-2.3-0.8-3.4-1.1c-1.2-0.4-2.4-0.7-3.3-1.7c-0.9,0.2-1.6,0.5-2.4,0.7c0.1,0.3,0.2,0.5,0.3,0.8
	c-0.8,0.1-1.6,0.2-2.3,0.1c-1.6-0.2-1.6-0.2-2.3,0.1c0,0,0,0.1,0,0.1c0.1,0.1,0.1,0.2,0.2,0.2c1.3,0.7,2.6,1.3,4.1,1.3
	c0.8,0,1.7,0,2.5,0c0.4,0,0.9,0,1.3,0.1C121.7,212.4,122.5,212.5,123.5,212.6L123.5,212.6z M98.5,339.8c-0.8-0.8-1-1-1.8-1.1
	c-1.1-0.2-2.2-0.5-3.2-0.8c-0.9-0.2-1.8-0.2-2.7,0.1C93.2,338.8,95.8,339.4,98.5,339.8L98.5,339.8z M91.8,249.5
	c0.5-0.3,1-0.5,1.5-0.8c-0.2-0.3-0.3-0.7-0.5-0.8c-0.2-0.2-0.6-0.2-0.8-0.2c-0.4,0-0.6,0.6-0.5,1.2
	C91.6,249.2,91.7,249.3,91.8,249.5z M126.3,213.6c1.2,1.5,1.2,1.5,2.4,1.9C128.2,214.2,127.9,214,126.3,213.6z M168.9,237.8
	c0.1-0.9,0.6-1.3,1.5-1.4c-0.3-0.5-0.5-0.9-0.8-1.3c0.2-0.8,0.8-1,1.4-1.2c-0.2-0.5-0.4-1-0.5-1.4c0.4-0.9,1.2-0.2,1.7-0.6
	c-0.1-0.4-0.2-0.8,0.3-1.1c0.5-0.2,0.9-0.1,1.2,0.2c1.1,0.9,2.1,1.8,3.1,2.6c0.6,0.5,1.1,1,1.9,1.2c-0.3-0.7-0.6-1.3-0.9-2
	c-0.2-0.7-0.3-1.4,0-2.1c0.4-0.9,1.5-1.1,2.1-0.3c0.3,0.4,0.6,0.8,0.8,1.2c0.5,1.2,0.9,2.4,1.2,3.6c0.2,0.6,0.4,1.1,1,1.5
	c0.8,0.4,1.4,1.1,2,1.7c0.5,0.4,1,0.8,1.5,1.2c1.9,1.6,4.2,2.7,6.3,3.9c0.7,0.4,1.3,0.8,2,1.2c0.2,0.1,0.4,0.3,0.6,0.4
	c2.1,1,4.2,2.1,6.3,3.1c2.7,1.2,5.5,2.3,8.4,3.1c1.6,0.4,3.3,0.7,5,1.1c0,0,0.1,0,0.1,0c1.9,0.9,3.9,0.7,5.9,0.6
	c1,0,1.9-0.3,2.8-0.8c0.6-0.4,1-0.9,0.8-1.6c-0.2-1-0.5-2.1-0.9-3.1c-0.2-0.6-0.7-1-1.5-0.8c-0.9,0.2-1.7,0-2.6-0.3
	c-1.5-0.6-2.2-1.7-2.3-3.2c0-0.4-0.1-0.9-0.1-1.3c0-0.6,0.1-0.9,0.7-1.1c0.6-0.2,1.3-0.4,1.9-0.6c0.7-0.2,1.3-0.5,1.8-1.1
	c-0.3-0.1-0.4-0.2-0.7-0.2c-0.8,0-1.5,0.1-2.3,0c-0.4,0-0.9-0.1-1.3-0.2c-1.2-0.2-1.7-0.5-1.7-1.8c0-0.4-0.2-0.8-0.3-1.3
	c-0.5-0.2-1-0.4-1.4-0.6c-0.6-0.2-0.9-0.7-0.9-1.4c0-0.7,0.4-1.2,1-1.4c0.1-0.1,0.3-0.1,0.4-0.1c0.9-0.2,1.6-0.7,2-1.6
	c0.5-0.9,1-1.9,1.5-2.9c0.2-0.4,0.4-0.8,0.7-1.1c0.1-0.1,0.2-0.2,0.4-0.4c-0.8,2-1.5,3.8-2.2,5.7c-0.3,0.8-1,1.3-1.9,1.4
	c-0.5,0-1,0.1-1.2,0.8c0.3,0.2,0.6,0.5,0.9,0.6c1,0.3,1.4,1.1,1.6,2.1c0.1,0.4,0.1,0.8,0.4,1c0.3,0.2,0.7,0.3,1.1,0.3
	c0.9,0.1,1.8,0,2.6,0c0.3,0,0.7,0,1,0c0.5,0.1,0.7,0.3,0.6,0.8c-0.1,0.6-0.3,1.1-0.9,1.4c-0.7,0.3-1.4,0.6-2.2,0.9
	c-0.4,0.1-0.7,0.3-1.1,0.4c0.1,0.8,0.1,1.5,0.2,2.2c0.1,0.6,0.4,1.1,1,1.4c0.7,0.4,1.4,0.6,2.2,0.5c0.7-0.1,1.5-0.2,2.1,0.3
	c0.8,0.6,1.2,1.4,1.5,2.3c0.3,0.8,0.5,1.7,0.7,2.5c-0.4,0.8-0.8,1.6-1.2,2.4c0.6,2,1.8,3.3,3.7,4.1c1.2,0.5,2.4,0.9,3.7,0.9
	c0.7,0,1.3,0,1.9-0.2c1.4-0.6,2.7-1.3,3.6-2.6c0.9-1.4,0.9-3.5-0.1-4.8c-0.2-0.3-0.5-0.5-0.8-0.6c-2.4-1.1-3.3-3.3-3.6-5.6
	c-0.2-1.5-0.1-3-0.1-4.5c0-0.9,0.4-1.7,0.8-2.5c0.3-0.5,0.5-1.1,0.7-1.6c0.2-1.2-0.4-1.7-1.6-1.5c-0.5,0.1-1,0.3-1.7,0.1
	c0-0.3,0.1-0.6,0.1-0.9c-0.2-0.2-0.4-0.4-0.6-0.7c0.6-0.7,1.3-1,2.3-0.9c-0.1,0.3-0.2,0.5-0.3,0.7c-0.1,0.2-0.3,0.4-0.5,0.6
	c0.7,0.1,1.2,0.2,1.8,0.4c0.9,0.2,1.4,0.8,1.6,1.7c0.2,0.8,0.2,1.6-0.2,2.3c-0.7,1.3-1.1,2.6-1.3,4c-0.1,0.4-0.2,0.8-0.2,1.3
	c0.2-0.2,0.4-0.4,0.6-0.6c0.7-0.8,1.6-1.4,2.6-1.9c1.1-0.4,1.8-1.3,2.5-2.2c0.7-0.9,1.2-1.9,1.5-3c0.2-0.8,0.5-1.7,0.9-2.5
	c0.1-0.4,0.4-0.8,0.8-1.1c0,0.2,0.1,0.4,0,0.6c-0.3,1.7-0.5,3.4-0.9,5c-0.4,1.8-1.2,3.3-2.8,4.3c-0.9,0.5-1.7,1.1-2.7,1.4
	c-0.9,0.3-1.6,0.9-2.4,1.4c0.3,1.7,0.8,3.2,2.3,4.1c1.3,0.9,2.7,1.5,4.3,1.8c2.5,0.4,5,1,7.2,2.3c1.8,1,3.3,2.4,4.5,4.1
	c1.3,1.7,2.2,3.7,3,5.7c0.4,1,0.9,2.1,1.3,3.1c0.1,0.2,0.2,0.4,0.2,0.5c0.5,1.8,1,3.7,1.5,5.5c0,0.1,0.1,0.3,0.1,0.4
	c0.1,1.7,0.4,3.4,0.8,5c0.6,2.4-1,4.9-3.2,5.7c-1.8,0.7-3.6,0.8-5.5,0.6c-0.2,0-0.4,0-0.6-0.1c-0.1,0.2-0.2,0.3-0.2,0.4
	c0.3,4.1-0.1,8.2-0.8,12.2c-0.3,1.9-0.5,3.8-0.8,5.6c-0.3,2.1-0.6,4.2-0.8,6.4c-0.3,3.1-0.5,6.1-0.5,9.2c-0.1,2.1,0.3,4.3,0.7,6.4
	c0.1,0.5,0.1,1.2,0.9,1.5c1-0.4,1.9-1,2.7-1.8c2-2,4.2-3.9,6.4-5.8c2.4-2,4.8-4.2,7.2-6.3c1.2-0.1,2.2,0.5,2.9,1.6
	c0.5,0.8,1,1.7,1.5,2.5c0.1,0.1,0.1,0.3,0.2,0.4c1.2,1.4,1.9,3.1,2.8,4.8c0.3,0.6,0.6,1.3,0.9,2c0.2,0.5,0.2,0.5-0.2,1.4
	c-1.2-0.1-2-1.1-3-1.7c-1-0.6-2-1.2-3.1-1.9c-0.6,0.2-1.3,0.7-1.9,1.2c-2.2,2-4.5,4-6.3,6.5c-0.8,1-1.8,1.8-2.7,2.7
	c-1.4,1.4-2.9,2.7-4.4,4.1c-1.4,1.3-2.7,2.7-4.6,3.3c-0.3,0.1-0.6,0.3-1,0.3c-2,0.3-3.9,0.1-5.7-0.6c-1.5-0.6-2.5-1.7-3.4-3
	c-1.9-2.7-3.6-5.5-4.9-8.6c-1.2-2.9-2.1-5.9-2.9-8.9c-0.4-1.4-0.7-2.8-1.1-4.2c-0.1-0.3-0.2-0.5-0.3-0.9c-0.3,0-0.6,0-0.7,0.1
	c-0.9,0.8-2.1,0.8-3.1,1.4c-1,0.6-2.1,1.2-3.2,1.8c-1,0.6-2,1.3-2.9,1.9c-1.5,1-3.1,2-4.6,3.1c-2.1,1.5-3.8,3.3-5.6,5.2
	c-0.4,0.4-0.7,0.8-1.1,1.2c-1.2,1.1-2.1,2.4-2.9,3.8c-1.2,1.9-2.3,3.9-3.5,5.9c-1.5,2.5-2.8,5.1-4.6,7.5c-0.2,0.3-0.4,0.6-0.6,1
	c-0.9,1.8-1.9,3.5-3.3,4.9c-0.5,0.5-0.8,1.1-1.4,1.5c-0.8,0.6-1.5,0.6-2.3,0.3c-1.6-0.7-3.3-1.1-4.8-2.2c-0.9-0.6-1.9-0.9-2.9-1.3
	c-0.9-0.3-1.8-0.7-2.4-1.6c-0.2-0.4-0.4-0.8-0.5-1.2c-0.1-0.7,0.4-1.2,1-1.1c1,0.2,1.9,0.4,2.9,0.6c1.1,0.2,2.2,0.5,3.3,0.7
	c0.5-0.4,0.8-1,1-1.6c0.8-2.5,1.9-4.9,3-7.3c1.1-2.3,2-4.6,3-7c1.1-2.6,2.2-5.1,3.3-7.7c1.2-2.8,2.8-5.4,4.7-7.8
	c2.4-2.8,4.8-5.6,7.9-7.8c2-1.4,3.5-3.2,5.2-4.9c0.5-0.5,0.9-1,1.4-1.5c1.3-1.4,2.3-3.1,3.3-4.8c0.7-1.3,1.4-2.6,2.1-3.9
	c0.9-1.7,1.4-3.6,1.8-5.4c0.2-1,0.1-2.2,0-3.3c-0.1-1-0.3-1.9-0.5-2.9c-0.5-3.2-1-6.4-1.5-9.5c-0.3-1.7-0.6-3.5-0.9-5.2
	c-0.1-0.8-0.6-1.1-1.3-1.4c-3.9-1.2-7.8-2.4-11.7-3.7c-1-0.3-1.9-0.7-2.9-1.1c-3.3-1.6-6.6-3.1-9.8-5c-2.8-1.7-5.4-3.5-8.1-5.2
	c-1.7-1.1-3.4-2.3-5.1-3.3c-0.9-0.5-1.8-0.9-2.8-1.3c-1.2-0.4-2.2-1.1-3.1-1.9c-0.8-0.8-1.7-1.6-2.7-2.2
	C169.9,239.1,169.3,238.4,168.9,237.8L168.9,237.8z M236.6,277.1c-0.5-0.1-1.1,0-1.6-0.2c-0.9-0.3-1.7-0.7-2.6-1
	c-1.6-0.7-2.2-2.1-1.7-3.7c-0.1-0.1-0.1-0.2-0.2-0.4c-0.5-1-0.5-1.8,0.4-2.6c0.2-0.2,0.3-0.6,0.4-0.9c0.1-0.5,0.3-1,0.8-1.2
	c0.6-0.2,0.9-0.6,1.3-1.1c0.5-0.6,0.9-0.5,1.5-0.1c0.3,0.2,0.7,0.5,1,0.8c0.4-0.3,0.8-0.6,1.1-0.9c0.7-0.4,1.3-0.2,1.7,0.6
	c0.2,0.3,0.3,0.6,0.4,1c0.3,0.8,0.8,1.4,1.6,1.8c1.8,1,3.5,2,5.4,2.5c0.6,0.2,1.2,0.4,1.8,0.7c0.4,0.2,0.8,0.3,1.4,0.2
	c-0.4-1.3-1.1-2.4-1.6-3.6c-0.5-1.3-0.9-2.5-1-4.1c0.4,0.2,0.6,0.3,0.7,0.5c0.2,0.5,0.4,1,0.6,1.5c0.4,0.8,1,1.5,1.6,2.1
	c1.3-0.5,4.2-2.1,5.5-3c0.1-0.9-0.2-1.7-0.6-2.5c-0.2-0.4-0.5-0.9-0.6-1.3c-0.5-1.8-1.5-3.4-2.4-5c-1.5-2.4-3.5-4.3-6.3-5.1
	c-1.9-0.5-3.8-0.9-5.7-1.4c-0.1,0-0.1,0.1-0.3,0.2c0.1,0.4,0.2,0.8,0.3,1.2c0.3,1.9-0.1,3.5-1.7,4.7c-0.8,0.6-1.7,1.2-2.5,1.8
	c-0.4,0.3-1,0.4-1.5,0.6c-0.9,0.4-1.8,0.2-2.7,0c-3.3-0.7-5.9-2.3-7-5.7c-0.2,0.1-0.4,0.1-0.5,0.1c-1.4,0.5-2.8,0.7-4.3,0.5
	c-0.2,0-0.4-0.1-0.6,0c-1.2,0.1-2.4-0.1-3.5-0.7c-0.5-0.3-1-0.2-1.6-0.1c-0.2,2-0.4,3.8-0.6,5.7c0,0.2,0,0.4,0,0.6
	c0,0.6,0.3,1.1,1,1.3c0.8,0.2,1.5,0.5,2.2,0.8c0.3,0.1,0.6,0.1,0.9,0.2c0.4-0.7-0.1-1.6,0.6-2.1c0.1,0.1,0.2,0.2,0.3,0.4
	c0.1,0.3,0.2,0.6,0.2,1c0.1,0.9,0.4,1.7,0.6,2.6c0.1,1,0.5,1.9,0.7,2.8c0.2,0.9,0.5,1.7,0.6,2.5c0.4,2.1,0.8,4.3,1.4,6.4
	c0.4,1.2,0.8,2.3,0.7,3.6c0,0.1,0.1,0.3,0.1,0.4c0.1,0.9,0.3,1.8,0.3,2.6c-0.1,2-0.3,4-0.9,6c0.8,0.4,1.6,0.4,2.4,0.5
	c2.9,0.2,5.8,0.4,8.6,0.5c3.1,0.1,6.2,0.1,9.4,0.1c2,0,4,0.1,6.1,0.1c0.6-2.9,0.8-5.5,0.5-6.7c-0.6-0.2-1.3-0.4-1.9-0.7
	c-2-1-4.1-1.7-6.1-2.5c-1.5-0.6-2.9-1.4-4.1-2.4c0.4,0.1,0.9,0.2,1.3,0.3c1.2,0.5,2.3,1,3.5,1.4c1.5,0.5,3,0.9,4.4,1.4
	c1.6,0.6,3.2,1.1,5,1.2c1.8,0.2,3.6,0.1,5.3-0.6c1.6-0.7,2.1-1.6,1.8-3.2c-0.2-1.2-0.5-2.5-0.8-3.7c-0.4-1.9-0.8-3.8-1.3-5.7
	c-0.1-0.3-0.2-0.5-0.3-0.9c-1.8,0.9-3.5,1.8-5.3,2.7c0.9,1.3,1.8,2.6,2.6,3.8c-0.4,0.6-0.9,1-1.6,1.3c-1.9-0.8-3.8-1.5-5.6-2.3
	c-0.2-0.1-0.4-0.1-0.6-0.2c-2-0.6-3.8-1.7-5.5-2.9c-0.9-0.6-1.4-1.3-1.6-2.3c-0.1-0.3-0.2-0.6-0.4-0.9c-0.1,0.1-0.2,0.1-0.2,0.1
	c-0.1,0.2-0.2,0.3-0.2,0.5c-0.4,0.9-0.6,0.9-1.4,0.4c-0.5-0.3-1-0.6-1.4-0.9c0,0.2-0.1,0.3-0.1,0.3c0,0.1,0.2,0.3,0.2,0.4
	c0.1,0.5-0.3,0.8-0.7,0.6c-0.4-0.1-0.8-0.6-1.2-0.2c-0.5,0.4,0.1,0.9,0.2,1.3c0.2,0.5-0.1,0.9-0.6,0.9c-0.3,0-0.5-0.1-0.9-0.1
	c-0.3,1.1,0.8,1.5,0.9,2.3c-0.2,0.3-0.4,0.7-0.6,1c0.6,0.9,1.5,1.4,2.4,1.7c0.8,0.3,1.7,0.5,2.5,0.8
	C236.3,276.4,236.4,276.8,236.6,277.1L236.6,277.1z M255.1,320.6c-0.7,0.7-1.3,1.3-1.9,1.9c-0.9,1-1.8,2-3,2.8
	c-1.2,0.8-2.3,0.7-3.2-0.5c-0.4-0.5-0.7-1.2-0.9-1.8c-0.6-1.9-0.7-3.8-0.8-5.8c-0.2-2.2,0.1-4.5,0.3-6.7c0.3-3.8,0.9-7.5,1.4-11.3
	c0.3-2.5,0.7-5,1.1-7.5c0.1-0.6,0-1.1-0.1-1.6c-1.1,0-2.1,0.1-3,0c-3.2-0.3-6.3-0.5-9.5-0.4c-1.8,0.1-3.6-0.1-5.4-0.2
	c-1.1,0-2.1-0.1-3.2-0.1c-1.2-0.1-2.4-0.1-3.6-0.1c-0.6,0-1.2,0-1.9,0c-0.3,0.9-0.6,1.7-0.9,2.4c-0.7,1.6-1.4,3.2-2.3,4.7
	c-1.4,2.3-2.9,4.6-4.9,6.5c-1.6,1.6-3.1,3.2-4.8,4.7c-3.9,3.3-7.5,6.8-10.1,11.2c-0.6,1-1.2,1.9-1.6,3c-1.3,3-2.5,6-3.8,9
	c-1,2.3-2,4.6-3,7c-0.1,0.2-0.1,0.4-0.2,0.5c1.2,0.9,4.9,2.5,6.2,2.6c1.1-1.7,2.2-3.4,3.2-5.1c0.3-0.5,0.4-1.1,0.6-1.6
	c0.3-0.5,0.8-0.9,1.1-1.5c1.2-2.1,2.5-4.2,3.9-6.1c0.4-0.6,1-1,1.5-1.6c0.9-1,1.8-2.1,2.7-3c0.9-0.9,1.8-1.7,2.8-2.4
	c1.6-1.1,3.2-2,4.8-3c3.2-2.1,6.6-3.5,9.8-5.5c0.5-0.3,1.1-0.7,1.7-0.5c1.1,1.7,1.6,3.5,2.1,5.3c0.8,2.7,1.7,5.3,2.7,7.9
	c0.6,1.6,1.2,3.1,1.9,4.6c1.1,2.2,2.4,4.2,4,6.1c1.2,1.6,2.9,2.2,4.9,2.2c1.9,0,3.5-0.9,5-1.9c1.1-0.8,2.3-1.7,3.3-2.6
	c1.8-1.6,3.6-3.3,5.4-5c0.5-0.4,0.8-1,1.1-1.5C257.2,323.9,256.2,322.4,255.1,320.6L255.1,320.6z M212.3,253.1
	c-0.7-0.2-1.4-0.4-2-0.6c-1.1-0.3-2.2-0.5-3.2-0.8c-1.3-0.4-2.7-0.9-4-1.5c-1.6-0.7-3.2-1.1-4.7-2.1c-1.4-0.9-2.9-1.6-4.4-2.3
	c-0.3-0.2-0.7-0.4-1-0.6c-1.2-0.8-2.4-1.7-3.6-2.4c-2.3-1.4-4.4-3-6.4-4.8c-0.9-0.9-1.6-1.8-1.9-3c-0.3-1.1-0.8-2.2-1.2-3.3
	c-0.2-0.4-0.4-0.9-1-1c-0.1,0.2-0.2,0.4-0.2,0.7c0,0.9,0.3,1.7,0.8,2.5c0.4,0.6,0.6,1.2,0.4,1.9c-0.2,1.2,0,2.2,0.6,3.2
	c0.1,0.2,0.2,0.5,0.4,1c-0.5-0.2-0.8-0.2-0.9-0.3c-0.7-0.8-1.1-1.8-1-2.8c0.1-0.8-0.1-1.2-0.9-1.3c-0.2-0.1-0.5-0.3-0.7-0.5
	c-1.3-1.1-2.5-2.3-3.8-3.4c-0.1-0.1-0.3-0.1-0.7-0.2c0.7,1.1,1.6,1.7,2.1,2.7c-0.7,0.3-0.7,0.3-0.9,0.1c-0.5-0.4-1-0.7-1.6-1.1
	c-0.2-0.1-0.4-0.1-0.9-0.1c0.6,0.7,1,1.2,1.5,1.6c0.5,0.5,1.1,1,1.6,1.5c0.1,0.1,0,0.2,0.1,0.3c-0.2,0.1-0.5,0.3-0.7,0.4
	c-1.2-0.3-1.8-1.6-3.3-1.4c1.2,1.2,2.3,2.2,3.4,3.2c-0.8,0.9-0.8,0.9-1.5,0.3c-0.5-0.4-1-0.8-1.5-1.1c-0.2-0.1-0.5-0.1-0.9-0.1
	c0.2,0.5,0.6,0.8,0.9,1c1.6,1,3.2,2,4.5,3.4c0.3,0.3,0.8,0.5,1.2,0.7c0.7,0.3,1.4,0.5,2,0.9c2.8,1.6,5.6,3.3,8.4,5
	c1.8,1.1,3.5,2.2,5.2,3.2c2.9,1.6,5.9,3.1,8.9,4.5c3.1,1.5,6.4,2.6,9.7,3.7c0.2,0.1,0.4,0.1,0.8,0.1
	C211.6,257.8,212.2,255.6,212.3,253.1L212.3,253.1z M189.1,339.2c-0.4,1-0.7,1.8-1.1,2.6c-0.3,0.8-0.6,1.6-1,2.4
	c0.2,0.2,0.3,0.3,0.5,0.4c1.2,0.6,2.3,1.2,3.5,1.8c0.8,0.4,1,0.4,1.5-0.3c0.7-1,1.2-2,1.9-3c0.2-0.4,0.4-0.8,0.6-1.2
	c-1.6-0.8-3.2-1.6-4.7-2.3C190,339.4,189.6,339.3,189.1,339.2z M256,319.9c0.1,0.3,0.2,0.5,0.3,0.7c0.8,1.2,1.6,2.4,2.4,3.7
	c0.1,0.1,0.1,0.1,0.2,0.2c0.1,0.1,0.2,0.1,0.3,0.1c1-0.8,3.2-2.9,3.8-3.8c-0.6-0.6-1.3-1.1-1.9-1.8c-0.6-0.7-1.2-1.4-1.8-2.1
	C258.2,317.9,257.1,318.9,256,319.9L256,319.9z M260,316.2c1.3,1.4,2.4,2.9,4,4c0.7-0.6,1.4-1.3,2.1-1.9c-0.5-0.8-1-1.6-1.5-2.4
	c-0.5-0.8-0.9-1.6-1.4-2.5C262,314,261.1,315.2,260,316.2L260,316.2z M186,346.7c0.8,0.3,1.5,0.4,2.2,0.8c0.7,0.3,1.4,0.8,2.1,1.2
	c0.5-0.3,0.8-0.7,0.9-1.3c-0.2-0.2-0.5-0.4-0.8-0.6c-0.7-0.4-1.5-0.8-2.2-1.1c-0.3-0.1-0.5-0.3-0.8-0.4c-0.5-0.2-0.9-0.1-1.1,0.4
	C186.1,346,186.1,346.3,186,346.7L186,346.7z M222.3,223.7c-0.2,0.1-0.4,0.1-0.6,0.2c-0.3,0.1-0.5,0.1-0.6-0.2
	c-0.1-0.2,0-0.5,0.1-0.6c0.6-0.5,1.3-0.9,1.9-1.3c0.4-0.3,0.9-0.4,1.3-0.7c1.1-0.7,2.2-1,3.4-1.1c1.4-0.2,2.9-0.4,4.4-0.5
	c0.7,0,1.3,0.1,2,0.2c0.7-1.6,1.2-3.2,1.5-4.9c0.3-1.9,1.5-3.2,3.3-4c2.5-1,5-1.9,7.5-2.9c0.8-0.3,1.7-0.6,2.5-0.8
	c0.5-0.1,1-0.1,1.5-0.1c0.7,1.2,0.7,1.4,0,2.2c-0.6,0.6-1.2,1.1-1.8,1.7c-0.9,0.8-1.7,1.7-2.1,2.8c-0.1,0.3-0.3,0.5-0.5,0.7
	c-0.7,0.4-1.4,0.9-2.2,1.2c-1.4,0.4-2.9,0.7-4.4,1c-0.4,0.1-0.9,0.2-1.2,0.4c-0.8,0.4-1.6,1-2.3,1.5c-0.6,0.4-0.8,1.1-0.9,1.8
	c0.3,0.1,0.6,0.2,0.8,0.2c2.2,0.1,4.1,1.1,5.8,2.5c0.9,0.7,1.3,1.8,1.8,2.8c0.2,0.4,0.3,0.8,0.5,1.2c0.6,0,0.9-0.4,1.3-0.7
	c1.4-1,2.9-1.8,4.6-2.1c1.6-0.3,3.2,0.4,4,1.8c0.6,1.1,1.2,2.2,1.7,3.4c0.9,1.9,2,3.6,3.4,5.1c0.9,0.9,0.9,1.3,0.6,2.6
	c-1.8,0-3.8-0.4-5.3-1.1c-0.2-0.1-0.4-0.2-0.7-0.2c-0.8-0.2-1.3-0.7-1.7-1.4c-0.8-1.4-1.7-2.7-2.5-4.1c-0.2-0.2-0.3-0.5-0.5-0.7
	c-0.6-0.6-1.2-0.9-2.1-0.6c-0.8,0.3-1.6,0.5-1.9,1.4c-0.1,0.1-0.2,0.3-0.3,0.3c-0.3,0-0.6,0.1-0.8,0c-0.2-0.1-0.3-0.4-0.3-0.6
	c0-0.4,0.2-0.8,0.3-1c-0.2-0.6-0.4-1.2-0.5-1.8c-0.2-1.1-0.6-2-1.3-2.9c-0.9-1.1-2-1.9-3.2-2.7c-1.1-0.6-2.3-0.8-3.5-0.9
	c-1.5-0.1-3-0.1-4.5,0.2c-0.6,0.1-1.3,0.2-1.9,0.2c-1.6,0-3,0.7-4.5,1.2c-0.7,0.2-1.4,0.4-1.8,1.2L222.3,223.7L222.3,223.7z
	 M249.6,208.7c-0.1-0.1-0.1-0.2-0.2-0.2c-0.4,0.1-0.8,0.2-1.2,0.4c-2.7,1.1-5.3,2.3-8.1,3.2c-1.1,0.3-2,1-2.7,2
	c-0.4,0.5-0.7,1-0.5,1.8c1-0.4,1.9-0.9,2.9-1c1.2-0.1,2.4-0.3,3.6-0.6c1-0.3,2.1-0.7,2.7-1.6c0.6-1,1.3-1.7,2.1-2.5
	C248.7,209.7,249.2,209.2,249.6,208.7L249.6,208.7z M257.2,234.4c-1.1-1.6-1.9-3.2-2.6-4.9c-0.4-0.9-0.9-1.6-1.2-2.5
	c-0.4-1-1.3-1.4-2.2-1.3c-1,0.1-1.9,0.6-2.6,1.3c0.5,0.5,1,0.9,1.4,1.4c0.9,1.1,1.7,2.2,2.5,3.4c0.7,1,1.5,1.8,2.7,2
	c0.4,0.1,0.8,0.3,1.2,0.4C256.6,234.3,256.9,234.4,257.2,234.4z M193.9,308.2c-0.1,0.5-0.1,0.9-0.3,1.2c-1.9,3.1-3.3,6.4-4.5,9.8
	c-0.1,0.3-0.2,0.5-0.5,0.7c0.1-0.3,0.1-0.7,0.1-1c0.5-1.7,1-3.3,1.6-5c0.5-1.6,1.2-3.2,2.1-4.6C192.7,308.7,193.1,308.4,193.9,308.2
	z M192.9,258.2c-4.1-1.4-7.3-4-10.3-7c0.2,0.1,0.5,0.1,0.7,0.2c1.1,0.7,2.2,1.2,3.2,2.1c1.9,1.5,3.8,3,5.9,4.3
	C192.5,257.9,192.7,258,192.9,258.2L192.9,258.2z M98.8,292.1c0,1-0.5,1.5-0.9,2c-1.2,1.4-2.3,2.8-3.5,4.1c-0.1,0.1-0.2,0.1-0.4,0.1
	c0.4-1.5,1.3-2.6,2.1-3.7C96.9,293.8,97.6,292.9,98.8,292.1z M156.8,246c0.8,0.4,1,1.2,1.4,1.9c0.8,1.3,1.6,3.8,1.6,5.1
	c-1.1-2.4-2.2-4.6-3.3-6.8C156.6,246.2,156.7,246.1,156.8,246L156.8,246z M226.6,225.9c1.2-1.1,2.4-1.2,3.5-1.5
	c0.8-0.2,1.7-0.7,2.7-0.2c0.1,0.4-0.2,0.5-0.4,0.5c-0.9,0.2-1.9,0.5-2.8,0.7c-0.7,0.2-1.3,0.3-2,0.5
	C227.4,226,227.2,226,226.6,225.9L226.6,225.9z M100.2,293.1c-0.2,0.4-0.4,0.7-0.6,1.1c-1,1.4-2,2.9-3,4.3c-0.3,0.4-0.6,0.8-1.4,0.8
	c1.6-2.3,3.2-4.4,4.9-6.4C100.1,293,100.2,293.1,100.2,293.1L100.2,293.1z M188.4,310.8c0.1,0.3,0.1,0.5,0.1,0.6
	c0,0.2,0,0.4-0.1,0.6c-0.7,1.7-1.4,3.4-2.2,5.1c-0.2-0.7-0.1-1.5,0.6-3.6C187.1,312.5,187.2,311.4,188.4,310.8L188.4,310.8z
	 M99.6,229.8c1.9-0.8,3.6-1.7,5.7-1.9c-0.9,1.1-2,1.5-3,1.8C101.5,229.9,100.7,230.3,99.6,229.8z M198.6,243.1
	c-2.7-0.6-5.1-1.8-7.2-3.7c0.3,0.1,0.6,0.1,0.8,0.3c1.4,0.8,2.7,1.5,4.1,2.3C197,242.4,197.8,242.7,198.6,243.1L198.6,243.1z
	 M227.7,227.1c0.1-0.2,0.2-0.6,0.3-0.6c1.4-0.2,2.9-0.6,4.3-0.3c0.2,0,0.3,0.2,0.6,0.3c-0.5,0.3-0.9,0.4-1.4,0.5
	C230.3,227,229.1,227.5,227.7,227.1z M237.8,206.2c0.3-0.8,0.9-0.9,1.4-1.2c1.3-0.6,4-1.7,5.9-1.7c-0.9,0.5-1.8,0.6-2.5,0.9
	c-0.8,0.3-1.5,0.7-2.3,1C239.5,205.5,238.8,206,237.8,206.2z M157.8,254.1c-0.5-1-1-2-1.5-3c-0.5-0.9-1.2-1.7-1.7-2.7
	c0.9,0.4,1.4,1.2,2,2C157.2,251.5,157.8,252.7,157.8,254.1L157.8,254.1z M80.2,258c-0.7-1.6-0.9-3.8-0.7-5.6
	c0.1,0.1,0.3,0.2,0.3,0.2C80.2,254.4,80.5,256,80.2,258L80.2,258z M193.2,236.9c1.9,0.7,3.4,1.7,5,3.2c-0.4,0-0.5,0-0.6-0.1
	c-1.1-0.7-2.1-1.4-3.2-2.1C194.1,237.6,193.7,237.2,193.2,236.9z M233.7,228.9c-2.6,0.3-3.9,0.2-5-0.5c0-0.3,0.2-0.3,0.4-0.2
	C230.5,228.4,232,228.1,233.7,228.9L233.7,228.9z M219.5,230.4c0.2-0.2,0.5-0.5,0.8-0.7c0.4-0.3,0.9-0.3,1.2,0
	c0.4,0.2,0.6,0.6,0.9,1c0.2,0.4,0.5,0.8,0.1,1.4c-0.2-0.3-0.4-0.5-0.7-0.8c-0.2-0.2-0.3-0.5-0.5-0.7
	C220.8,230.3,220.5,230.3,219.5,230.4z M228.9,230c1.4-0.1,2.5-0.4,3.6-0.1c-0.3,0.8-1.1,0.7-1.7,0.8
	C230.2,230.9,229.5,230.9,228.9,230z M104.4,231.7c-1,1.1-2,1.7-3.4,1.7c0-0.5,0.3-0.6,0.6-0.8C102.5,232.2,103.2,231.6,104.4,231.7
	L104.4,231.7z M105.1,237.5c0.5-1.1,1.3-1.8,2.3-2.4c0.1,0.3,0.2,0.6,0.1,0.7c-0.4,0.8-1,1.4-1.8,1.7
	C105.5,237.5,105.3,237.5,105.1,237.5L105.1,237.5z M76.9,253.1c0.7,1.3,1.1,2.9,1.2,4.4C77.2,256,76.8,254.7,76.9,253.1z
	 M101.1,224.8h3c-0.4,0.5-0.8,0.5-1.3,0.6C102.2,225.5,102.1,225.5,101.1,224.8z M225.1,229.3c-1.1-0.8-2-1.6-3-2.3
	C223.3,226.8,224.4,227.6,225.1,229.3z M102.7,220.9c0.7-0.1,1.4-0.3,2.1,0C103.7,221.5,103.7,221.5,102.7,220.9z M114.7,221.6
	c0.6-1.2,1.5-1.8,2.5-1.7c0.4,0,0.7,0.3,1,0.5c0.2,0.1,0.3,0.3,0.5,0.5c0.2,0.3,0.4,0.6,0.7,1c-0.4,0-0.6,0-0.7-0.1
	c-0.2-0.1-0.5-0.4-0.6-0.6c-0.5-0.7-1.1-0.8-1.9-0.3c-0.3,0.2-0.5,0.5-0.8,0.6C115.2,221.7,114.9,221.6,114.7,221.6L114.7,221.6z
	 M118.6,217.1c-0.3,0-0.4,0.1-0.5,0c-0.9-0.7-1.8-0.7-2.7-0.1c-0.2,0.1-0.4,0-0.8,0c0.3-1,1-1.2,1.8-1.2
	C117.4,215.7,118.2,216,118.6,217.1z M96.6,314.3c-0.3-1.5,0-2.9,0.8-4.4c0.2,0.6,0,1-0.1,1.5c-0.1,0.5-0.2,1-0.4,1.6
	C96.9,313.3,96.7,313.8,96.6,314.3L96.6,314.3z M100.3,312c0.3,1.1-0.2,2.1-0.4,3.5c-0.2-0.4-0.4-0.6-0.4-0.7
	C99.5,313.8,99.6,312.8,100.3,312L100.3,312z M133.8,318.2c0.9,1.8,1.2,3.5,1.8,5.2C134.3,322.5,133.6,320.4,133.8,318.2z
	 M133.4,323.9c-0.9-1.3-1.3-2.6-1.4-4.1C132.8,320.4,133.3,321.9,133.4,323.9z M201.8,321.1c1.1,1.8,1.4,3.7,1,6
	C202.4,324.9,202.1,323,201.8,321.1z M213.4,305.3c1.7,0.8,3.5,1.4,4.9,2.8c-0.2,0-0.3,0-0.5-0.1c-1.1-0.5-2.2-1-3.3-1.5
	c-0.5-0.2-0.9-0.6-1.3-0.9c0,0,0-0.1,0-0.1C213.3,305.4,213.3,305.3,213.4,305.3L213.4,305.3z M235.7,325.1c0.4-1.4,1.2-2.2,2.5-2.8
	c0.3,0.4,0.1,0.6-0.2,0.9C237.2,323.9,236.4,324.5,235.7,325.1z M200,327.3c0.6,1.9,0,3.6-0.2,5.5C199.4,331,199.5,328.4,200,327.3z
	 M236.2,318.2c0,1.5-1.1,1.9-2.2,2.5C234.5,319.5,235,318.9,236.2,318.2z M208.2,317.4c-1.1-0.9-2.2-1.8-3.4-2.8
	c0.6-0.1,1,0.2,1.3,0.4C207.1,315.6,207.8,316.5,208.2,317.4L208.2,317.4z M244.9,327.4c-0.6-1.8-0.5-2.6,0.4-3.5
	C245.4,325.1,245.1,326.2,244.9,327.4z M226.1,305c0.6,1.3,1.3,2.6,1.6,4.3C226.7,307.9,226.3,306.5,226.1,305z M213.9,310.2
	c-1.2-0.4-2.3-0.9-3.5-1.3c0-0.4,0.2-0.3,0.4-0.2C211.9,309,213,309.4,213.9,310.2L213.9,310.2z M242.1,290.4c1,0.3,1.1,0.5,0.9,1.2
	c-0.1,0.1-0.2,0.4-0.3,0.4c-0.2,0-0.5-0.1-0.6-0.3C241.8,291.3,241.8,290.9,242.1,290.4z M244.2,290.4c0.5,0.2,0.8,0.5,0.8,1
	c0,0.4-0.3,0.8-0.7,0.8c-0.3,0-0.6-0.4-0.5-0.7C243.9,291.1,244.1,290.7,244.2,290.4L244.2,290.4z M236.3,292.4
	c-0.3-0.1-0.5-0.2-0.6-0.4c-0.2-0.5-0.2-0.6,0.3-1.3C236.7,291.1,236.6,291.7,236.3,292.4L236.3,292.4z M223.3,291.5
	c-0.6-0.6-0.3-1.1-0.1-1.7c0.5-0.1,0.7,0.1,0.7,0.5C223.9,290.8,223.7,291,223.3,291.5z M245.9,290.9c0.6,0.4,0.8,0.8,0.5,1.3
	c-0.1,0.1-0.2,0.2-0.4,0.2c-0.1,0-0.3-0.1-0.3-0.2C245.5,291.7,245.5,291.3,245.9,290.9L245.9,290.9z M239.4,290.8
	c0.3,0.5,0.5,0.7,0.5,1c0.1,0.3-0.2,0.6-0.4,0.6c-0.4,0-0.5-0.3-0.5-0.6C239,291.5,239.2,291.3,239.4,290.8z M243.4,305.8
	c-0.5,0.1-1,0.1-1.4-0.5C242.6,305.1,243,305.4,243.4,305.8z M226.3,224.2c1.7-0.8,2.3-0.9,3.7-0.9
	C229.1,223.9,228.4,224,226.3,224.2z M212,278.8c0.8,0.9,1.2,2,1.2,3.2C212.7,281,212.2,280,212,278.8z M141.4,264.4
	c-1.4-1.4-2-3.2-2.5-5.3C139.7,260,140.5,261.7,141.4,264.4z M122.5,253.6c0.5,1.5-0.3,2.8-0.6,4.1
	C121.9,256.3,122,254.9,122.5,253.6z M116,259.2c-0.6-1.3-0.4-2.7-0.5-4.3c0.3,0.2,0.4,0.3,0.5,0.5C116.2,256.7,116.2,258,116,259.2
	L116,259.2z M129.9,298.4c0.2-0.1,0.4-0.2,0.6-0.2c0.8-0.2,1.6-0.3,2.4-0.4C132,298.5,131.1,298.8,129.9,298.4L129.9,298.4z
	 M133.7,293.2c-0.9,0.8-1.7,0.7-2.7,0.6c0.4-0.2,0.5-0.4,0.7-0.5C132.2,293.2,132.8,293.2,133.7,293.2L133.7,293.2z M188.4,355.7
	c2.7,0.6,5.4,0.1,7.9,0c-1.8,0.6-8.3,0.8-10,0.2c0.4-0.2,0.8-0.4,1.1-0.5c1.5-0.3,3.1-0.5,4.6-0.7c9-1.5,18.2-2.2,27.3-3.1
	c3.9-0.4,7.9-0.4,11.8-0.6c3.5-0.1,7-0.1,10.5-0.1c1.3,0,2.5,0,3.2-0.9c-0.1,0.2-0.2,0.4-0.3,0.6c0.7,0.4,1.6,0.3,2.4,0.3
	c0.8,0,1.5,0,2.3,0.1c-0.7,0.6-1.7,0.1-2.4,0.4c-1,0.4-1.6-0.5-2.6-0.2c0,0.2,0,0.4,0.1,0.8c-1-1.1-2.3-1-3.6-0.9
	c-5,0.1-9.9,0.1-14.9,0.3c-3.8,0.2-7.6,0.6-11.4,0.9c-3,0.2-5.9,0.5-8.9,0.8c-3.9,0.5-7.8,1-11.8,1.5c-1.5,0.2-3,0.4-4.5,0.6
	C189.1,355.5,188.8,355.6,188.4,355.7L188.4,355.7z M300.2,349.8c0.2,0.7,0.3,1.5,0.5,2.2c0.1,0,0.2,0,0.3,0c0.1-0.3,0.3-0.5,0.5-1
	c0.1,1.6,0.3,2.9,0.4,4.3c0,0.1-0.2,0.2-0.4,0.4c-0.3-0.3-0.6-0.5-0.7-0.8c-0.5-1.7-1.4-3.3-1.2-5.1
	C299.8,349.8,300,349.8,300.2,349.8L300.2,349.8z M319.8,353.5c-0.3,0.6-0.5,1.2-0.9,1.7c-0.4,0.5-1.3,0.5-1.7-0.1
	c0,0-0.1-0.1-0.1-0.1c-0.3-1.3-0.2-2.5,0.4-3.8c0.7,1.1-0.3,2.4,0.7,3.7c0.5-0.6,0.9-1.1,1.3-1.5
	C319.6,353.5,319.7,353.5,319.8,353.5z M270.1,353.2c0.2-0.3,0.5-0.6,0.9-1.1c0.1,0.3,0.4,0.5,0.3,0.6c-0.2,0.3-0.6,0.5-0.9,0.7
	C270.3,353.3,270.2,353.2,270.1,353.2z M150.3,321.4c-0.2,1.1-0.5,2.1-0.7,3c-0.1,0.2-0.1,0.5,0,0.7c0,0.1,0.2,0.3,0.4,0.3
	c0.1,0,0.3-0.1,0.4-0.2c0.1-0.1,0.1-0.2,0.2-0.4c0.4-1,0.7-2,1.1-3c0.1-0.2,0-0.4,0-0.7C151,321.2,150.6,321.3,150.3,321.4
	L150.3,321.4z M267.9,318.6c0.1-0.1,0.1-0.1,0.2-0.2c-1-2-2.1-4-3.1-6.1c-0.3,0.1-0.6,0.2-0.9,0.3c0.8,2.1,2.4,3.6,3.3,5.4
	C267.5,318.2,267.7,318.4,267.9,318.6z M227.2,336.6c1.4,1.2,2.7,2.5,4.1,3.6c1.5,1.1,3.1,2,4.9,3.1c-0.4-0.1-0.7-0.1-0.9-0.1
	c-1.6-0.6-3.1-1.4-4.6-2.2c-1.5-0.9-2.6-2.1-3.5-3.5c-0.1-0.2-0.1-0.4-0.2-0.5C227.1,336.8,227.2,336.7,227.2,336.6L227.2,336.6z
	 M238.2,341.9c-1.5-0.2-2.7-0.9-3.9-1.9c-1.5-1.3-2.8-2.8-3.4-4.6c-0.1-0.4-0.2-0.8-0.3-1.3c0-0.1,0.2-0.3,0.3-0.5
	c1.1,2.9,3.4,5.7,6,7.4C237.3,341.4,237.8,341.6,238.2,341.9L238.2,341.9z M250.6,213c0.9-2.5,2.3-5,3.3-5.9c0.5,1-0.3,1.7-0.5,2.4
	c0.1,0.1,0.2,0.3,0.5,0.5C252.9,211.1,251.9,212.1,250.6,213L250.6,213z M252.8,248.7c0.2,0.1,0.4,0.3,0.5,0.4c0.6,1,1.4,2,1.8,3.2
	c0.6,1.6,1.3,3,2,4.6c0.1,0.3,0.2,0.6,0.1,1c-0.1-0.2-0.3-0.4-0.4-0.6c-0.8-1.6-1.7-3.2-2.5-4.8c-0.5-1-0.9-2-1.4-3.1
	c-0.1-0.2-0.1-0.4-0.2-0.6C252.7,248.8,252.8,248.7,252.8,248.7L252.8,248.7z M250.5,250.3c0.8,0.3,1.1,0.8,1.5,1.3
	c1.5,1.9,2.4,4.2,3.3,6.4c0.1,0.3,0.1,0.6,0,1C253.8,256.2,252.2,253.3,250.5,250.3L250.5,250.3z M222.3,223.7l0.1-0.1
	c2.3-0.8,5.3-1.3,7.1-1.1c-0.4,0.2-0.6,0.5-0.9,0.6c-1.9,0.3-3.9,0.6-5.9,0.9C222.6,224.1,222.3,224.1,222.3,223.7L222.3,223.7z
	 M214.2,272.4c0.8,0.3,1,0.9,1.2,1.4c0.6,1.5,0.7,3.1,0.8,4.8c-0.2-0.1-0.4-0.1-0.4-0.2C215.3,276.4,214.8,274.5,214.2,272.4z
	 M153.9,286c0.1-2,0.2-3.8,0.5-5.6c0-0.1,0.1-0.1,0.2-0.1C155.2,282.5,155,284.7,153.9,286L153.9,286z M156.1,285.8
	c-0.6-0.7-0.4-1.4-0.4-2.1c0-0.5,0-0.5,0.5-1.1C156.6,283.6,156.6,284.6,156.1,285.8z M115.3,294.5c1.1,1,2,2.9,2.7,5.7
	C116.9,299.4,115.6,296.5,115.3,294.5z M121.8,301.9c-0.7-1-0.9-2.2-1.3-3.2c-0.5-1-0.9-2-1.4-3.1
	C120.3,296.3,121.8,299.8,121.8,301.9z M140.9,286.9c0.5-0.1,1-0.2,1.6-0.4c0.2,0.4,0.5,0.9,0.8,1.4c-0.3,0.1-0.6,0.2-0.9,0.4
	c-0.2-0.4-0.4-0.8-0.6-1.1C141.5,287,141.2,286.9,140.9,286.9L140.9,286.9L140.9,286.9z"/>
</svg>
