<svg width="42" height="36" viewBox="0 0 42 36" fill="none" xmlns="http://www.w3.org/2000/svg">
<g clip-path="url(#clip0_85_444)">
<path d="M11.4676 11.5765V11.8454C10.4943 12.6201 9.37383 13.2732 7.37611 13.3949C3.6176 13.6318 0.371311 11.506 0.0319562 7.57464C-0.333011 3.62403 2.48428 0.86437 6.21718 0.525015C7.3569 0.435374 8.79756 0.704297 9.84124 0.960414C10.7633 1.17811 11.1602 1.22934 11.1602 0.00637817H11.2499V4.55246H11.1602C11.1602 3.38072 10.0589 1.86323 8.97685 1.23574C8.09324 0.768326 7.12 0.550627 6.21718 0.621059C3.47673 0.870773 1.51103 3.90576 1.81837 7.42097C2.12571 10.917 4.52041 13.3885 7.3569 13.3181C9.07289 13.2796 10.4559 12.5049 11.4676 11.5893V11.5765Z" fill="white"/>
<path d="M21.405 10.2254L20.6494 13.2732H11.9222V13.1836C12.9531 13.1836 13.0556 12.5369 13.0556 11.2179V2.7212C13.0556 1.4022 12.9467 0.736293 11.9222 0.736293V0.646652H15.764V0.736293C14.7331 0.736293 14.6435 1.4022 14.6307 2.7212V11.2179C14.6499 12.5369 14.7395 13.1836 15.764 13.1836H17.8193C19.6378 13.1836 20.7967 11.3972 21.3153 10.2254H21.405Z" fill="white"/>
<path d="M31.7906 0.646652V0.736293C30.7597 0.736293 30.6573 1.38299 30.6573 2.7212V9.34183C30.6573 12.4985 28.6019 13.4525 26.5466 13.4525C24.4912 13.4525 22.0005 12.4985 22.0005 9.34183V2.7212C22.0005 1.38939 21.8917 0.736293 20.8672 0.736293V0.646652H24.7089V0.736293C23.6781 0.736293 23.5884 1.38299 23.5756 2.7212V9.55312C23.5756 11.8774 24.8562 13.3244 26.553 13.3244C29.3511 13.3244 30.574 11.7365 30.574 9.34183V2.7212C30.574 1.38939 30.4652 0.736293 29.4343 0.736293V0.646652H31.797H31.7906Z" fill="white"/>
<path d="M41.984 10.0782C41.984 12.3512 39.9671 13.2732 38.0014 13.2732H32.2516V13.1836C33.2825 13.1836 33.3721 12.5177 33.3849 11.1987V2.7212C33.3657 1.4022 33.2761 0.736293 32.2516 0.736293V0.646652H37.3163C39.0643 0.646652 41.1004 1.53026 41.1004 3.8033C41.1004 5.66014 39.7494 6.58217 38.1807 6.85109C39.9287 6.85109 41.984 7.80512 41.984 10.0782ZM36.0869 0.736293C35.0561 0.736293 34.9536 1.4022 34.9536 2.7212V6.85109H36.8809C38.2319 6.85109 39.3716 6.07633 39.3716 3.8033C39.3716 1.53026 37.931 0.736293 36.8809 0.736293H36.0869ZM40.236 10.0782C40.236 7.80512 38.6673 6.94073 37.6236 6.94073H34.9536V11.1987C34.9536 12.5177 35.0625 13.1836 36.0869 13.1836H37.6172C38.7506 13.1836 40.2296 12.3512 40.2296 10.0846L40.236 10.0782Z" fill="white"/>
<path d="M14.7843 20.054H27.2252V20.8864H14.7843V20.054Z" fill="white"/>
<path d="M8.36228 31.3807C8.75285 32.1811 9.17545 32.7894 9.62365 33.1992C10.0526 32.8086 10.4624 32.1811 10.8594 31.3231L11.2436 31.5024C10.8338 32.386 10.4048 33.0391 9.9502 33.4681C10.5201 33.9547 11.5445 34.3709 13.03 34.7038C13.0108 34.7231 12.9916 34.7615 12.9724 34.8191C12.9532 34.8575 12.902 34.9536 12.8251 35.1136C11.3588 34.723 10.2896 34.2748 9.62365 33.7626C8.95775 34.2748 7.86925 34.7423 6.36456 35.1713L6.15967 34.7615C7.7668 34.3517 8.81048 33.9227 9.30351 33.4681C8.89372 33.0775 8.46472 32.45 8.01011 31.592L8.36228 31.3871V31.3807ZM9.41876 28.2113H9.82855V29.2357H13.0556V29.6455H6.21729V29.2357H9.41876V28.2113ZM8.45192 30.0873L8.77206 30.4075C7.85004 31.1502 7.12011 31.7009 6.56946 32.053C6.49262 31.9378 6.39017 31.8161 6.27492 31.7009C7.07529 31.2142 7.79882 30.6764 8.44551 30.0873H8.45192ZM12.6778 31.9058C11.9543 31.3743 11.218 30.8685 10.4752 30.3819L10.7378 30.0873C11.5189 30.574 12.2553 31.067 12.9404 31.5536L12.6778 31.9058Z" fill="white"/>
<path d="M15.9945 29.8248H13.6447V29.5047H15.9945V29.8248ZM15.764 30.8813H13.8559V30.5292H15.764V30.8813ZM15.764 31.9378H13.8559V31.5856H15.764V31.9378ZM13.9136 35.1393V32.6421H15.764V35.0496H15.4119V34.7551H14.2657V35.1393H13.9136ZM15.5591 28.826H14.0608V28.5058H15.5591V28.826ZM14.2657 32.9943V34.4029H15.4119V32.9943H14.2657ZM16.9678 30.3499H19.9643V34.5502H20.7007V34.9024H16.2122V34.5502H16.9742V30.3499H16.9678ZM18.2548 28.1537H18.6389V29.1205H20.515V30.177H20.1308V29.4727H16.7565V30.177H16.4043V29.1205H18.2548V28.1537ZM17.3455 30.702V31.7905H19.5738V30.702H17.3455ZM17.3455 32.1107V33.1992H19.5738V32.1107H17.3455ZM17.3455 33.5257V34.5502H19.5738V33.5257H17.3455Z" fill="white"/>
<path d="M27.9424 30.1449C27.3341 29.9528 26.8155 29.7543 26.3865 29.5558V29.8183H22.8905V29.5814C22.4615 29.7799 21.9492 29.9848 21.3666 30.1961C21.3474 30.1769 21.3154 30.1385 21.2769 30.0808C21.1809 29.9464 21.1233 29.8632 21.0977 29.8439C22.6023 29.3957 23.7997 28.8195 24.6769 28.1087L25.1443 28.1664C25.0867 28.2048 25.0291 28.256 24.965 28.3136C25.823 28.9795 26.8923 29.4662 28.1665 29.7799C28.0897 29.8952 28.0128 30.0168 27.9296 30.1321L27.9424 30.1449ZM21.8084 30.3498H27.5006V32.2578H21.8084V30.3498ZM22.1926 30.6763V31.9377H24.4528V30.6763H22.1926ZM22.3398 32.7893H26.9755V35.1648H26.5914V34.9023H22.7176V35.1968H22.3334V32.7893H22.3398ZM22.7176 33.1094V33.7241H26.5914V33.1094H22.7176ZM22.7176 34.0187V34.5757H26.5914V34.0187H22.7176ZM22.8393 31.0541L23.0762 30.8172C23.3899 31.0925 23.646 31.3294 23.8381 31.5215L23.5436 31.7584C23.4475 31.6432 23.2811 31.4639 23.0441 31.227C22.9481 31.1501 22.8777 31.0925 22.8393 31.0477V31.0541ZM24.6833 28.5313C24.1967 28.8835 23.6588 29.2036 23.0698 29.4982H26.2712C25.6822 29.2229 25.1571 28.9027 24.6833 28.5313ZM27.1228 30.6763H24.8306V31.9377H27.1228V30.6763ZM26.5081 31.0541C26.4505 31.1117 26.3417 31.2142 26.188 31.3486C25.9895 31.5471 25.855 31.6816 25.7782 31.7584L25.4837 31.5215C25.7974 31.2462 26.0535 31.0157 26.2456 30.8172L26.5081 31.0541Z" fill="white"/>
<path d="M28.5635 34.8446C28.858 34.4348 29.0437 34.025 29.1205 33.6088C29.1974 33.2183 29.2358 32.5523 29.2358 31.6111V28.7042C29.9977 28.6658 30.8045 28.5761 31.6433 28.4417L31.7906 28.8258C31.7137 28.8258 31.6049 28.8386 31.4704 28.8579C30.7469 28.9539 30.1322 29.0243 29.62 29.0628V30.3241H31.56V32.642H29.62C29.6007 33.5832 29.3574 34.4156 28.8836 35.1391C28.73 34.9791 28.6211 34.883 28.5635 34.8446ZM31.1759 30.6763H29.62V32.2898H31.1759V30.6763ZM31.1759 34.8702C31.6625 34.3836 31.9762 33.8714 32.1171 33.3463C32.2964 32.7957 32.3796 32.0145 32.3796 30.9964V28.7682C33.5514 28.6914 34.5694 28.5825 35.4338 28.4481L35.5811 28.8322C34.992 28.9091 34.2237 28.9923 33.2632 29.0692C33.0455 29.0884 32.879 29.1076 32.7638 29.1268V30.8876H35.7604V31.2397H34.6142V35.1711H34.2301V31.2397H32.7638C32.8022 32.9813 32.3796 34.2939 31.5024 35.1711C31.368 35.0367 31.2591 34.9342 31.1823 34.8766L31.1759 34.8702Z" fill="white"/>
</g>
<defs>
<clipPath id="clip0_85_444">
<rect width="41.984" height="35.1969" fill="white"/>
</clipPath>
</defs>
</svg>
