<svg width="775" height="55" viewBox="0 0 775 55" fill="none" xmlns="http://www.w3.org/2000/svg">
<path d="M49.72 42.9302L46.65 48.4202C41.48 46.7002 33.51 41.4702 27.15 32.7502V50.7902H22.19V33.3402C16.64 40.6102 8.99 45.4602 0.86 48.8502L0 47.0702C6.36 43.6802 14.44 37.2702 18.96 30.7502H7.43V13.9502H22.19V9.53018H2.85V6.57018H22.19V0.430176H27.15V6.57018H47.19V9.53018H27.15V13.9502H41.96V30.7002H28.23C35.34 37.4902 42.67 41.3102 49.72 42.9302ZM12.23 21.0102H22.19V16.3202H12.23V21.0102ZM12.23 28.3402H22.19V23.3802H12.23V28.3402ZM27.15 16.3302V21.0202H37.22V16.3302H27.15ZM37.22 23.3302H27.15V28.3402H37.22V23.3302Z" fill="white"/>
<path d="M102.93 46.16C101.31 47.67 98.08 48.64 93.29 48.85C86.72 49.12 77.02 49.07 70.45 48.85C62.21 48.58 59.52 48.31 59.52 39.69V6.46002H56.13V3.77002H101.38V6.46002H64.48V39.81C64.48 43.8 64.91 44.23 70.35 44.44C77.14 44.71 86.62 44.76 93.4 44.44C97.01 44.28 98.73 43.85 100.67 42.18L102.93 46.17V46.16ZM67.76 25.69H81.87V40.45H67.76V25.69ZM72.28 38.13H77.34V28H72.28V38.13ZM93.23 21.54H72.71V9.86002H93.23V21.55V21.54ZM88.6 12.17H77.34V19.23H88.6V12.17ZM99.26 40.45H84.82V25.69H99.26V40.45ZM94.74 28.01H89.35V38.14H94.74V28.01Z" fill="white"/>
<path d="M159.53 42.4999L157.7 48.3699C148.17 49.0199 136.37 49.1799 130.07 47.1799C126.68 46.0999 123.61 44.3799 121.02 41.7899C118.43 45.3999 115.2 48.3099 111.49 50.4099L110.31 48.7899C113.7 46.1499 116.56 42.8699 118.77 38.9299C116.62 35.8599 115 31.8699 114.14 26.8099L116.03 26.2699C117 30.0399 118.35 33.2699 120.28 35.9099C122.06 31.8199 123.19 27.1799 123.57 22.0699H118.4C117.81 23.1499 117.27 24.0099 116.84 24.6599L112.64 23.7399C115.23 19.5899 118.4 12.9699 120.72 6.71986H111.99V4.39986H126.91C125.29 8.59986 122.22 14.9599 119.75 19.6399H123.25L124.06 18.7199L128.53 20.1199C127.83 27.3899 125.89 33.6399 122.98 38.7599C124.54 40.1099 126.37 41.1799 128.58 41.9899C135.58 44.6299 149.1 43.7099 159.55 42.4699L159.53 42.4999ZM129.47 9.15986L129.25 7.21986C137.76 6.29986 148.43 3.17986 152.52 0.859863L156.18 5.00986C153.92 5.86986 150.2 6.72986 146.05 7.42986V19.3299H155.96V21.7499H146.05V36.3499H157.58V38.7699H127.52V36.3499H131.61V16.3199H135.49V36.3599H141.85V8.07986C137.43 8.66986 132.96 9.09986 129.46 9.15986H129.47Z" fill="white"/>
<path d="M181.18 1.55992C180.21 6.13992 178.81 10.2299 177.19 13.8899V50.4699H172.56V22.2999C170.41 25.5299 168.2 28.0599 166.26 29.7899L164.86 28.3899C168.52 23.3799 173.42 14.2199 175.74 0.169922L181.18 1.56992V1.55992ZM211.13 10.3899V37.8099H206.39V34.2499H198.9V50.4599H193.94V34.2499H186.45V38.1299H181.82V10.3999H193.94V0.919922H198.9V10.3999H211.13V10.3899ZM186.46 20.7299H193.95V12.8099H186.46V20.7299ZM193.95 31.8299V23.1599H186.46V31.8299H193.95ZM206.39 12.8199H198.9V20.7399H206.39V12.8199ZM206.39 23.1599H198.9V31.8299H206.39V23.1599Z" fill="white"/>
<path d="M226.69 34.63C226.8 40.99 225.94 46.59 224.75 50.09L219.85 47.99C221.84 44.76 223.78 40.18 224.81 34.42L226.69 34.64V34.63ZM249.85 28.92C247.7 36.84 242.69 44.11 235.15 48.47L234.02 46.91C240.81 41.47 243.18 35.01 244.47 30.16H240.11C240.22 30.48 240.38 30.81 240.49 31.13L236.24 32.64C235.97 31.4 235.65 30 235.27 28.55C230.48 30.33 225.14 31.73 222.02 32.21L220.78 27.25C222.02 27.3 223.26 27.36 224.55 27.36C226.54 24.94 229.02 21.65 231.23 17.61C228.16 18.58 224.82 19.44 222.29 19.82L221.32 15.13C222.51 15.24 223.58 15.29 224.61 15.35C226.55 11.36 228.33 6.35 229.46 0.65L234.36 2.27C232.37 7.17 229.4 12.13 226.98 15.47C228.76 15.47 230.48 15.42 232.47 15.31C233.44 13.37 234.3 11.27 235.05 9.06L239.63 11.05C236.83 16.65 231.66 23.22 227.03 27.32C229.56 27.21 232.09 27 234.68 26.67C234.25 25.27 233.82 23.82 233.39 22.58L235.11 21.72C236.57 23.66 238.02 25.92 239.15 28.13H244.37L245.45 27.05L249.87 28.94L249.85 28.92ZM230.35 33.82C231.97 37.97 233.31 42.55 233.8 45.78L228.95 46.7C229.16 43.31 229 38.62 228.57 34.31L230.35 33.83V33.82ZM235.95 42.06C234.98 38.67 234.07 36.3 232.66 32.96L234.17 32.04C236.38 34.52 238.21 36.83 239.77 39.85L235.95 42.06ZM269.35 43.84L265.31 48.96C261.43 46.27 257.45 40.02 255.35 32.59V45.14C255.35 50.69 251.1 53.92 242.48 47.51L243.13 45.68C250.29 47.78 250.72 46.43 250.72 44.01V24.45H241.08V7.11H248.67C249.48 4.63 249.91 2.48 250.34 0L255.73 1.4C254.28 3.61 252.82 5.49 251.26 7.11H264.51V24.45H255.35V24.99C255.84 27.74 256.7 30.27 257.94 32.53C259.72 30.54 261.12 28.71 262.52 25.96L266.83 29.03C264.3 31.4 261.66 32.91 258.97 34.31C261.72 38.57 265.49 41.8 269.37 43.84H269.35ZM245.6 14.38H259.98V9.53H245.6V14.38ZM245.6 22.03H259.98V16.7H245.6V22.03Z" fill="white"/>
<path d="M294.88 44.33V1.02002H300.05V19.55H316.8V22.24H300.05V44.32H323.05V47.28H276.35V44.32H294.88V44.33Z" fill="white"/>
<path d="M331.39 52.8499C335.48 51.2299 337.8 47.7899 338.23 44.2299C337.85 44.4499 336.72 44.4999 336.4 44.4999C333.87 44.4999 332.09 42.8299 332.09 40.1899C332.09 37.5499 333.92 35.8799 336.45 35.8799C339.74 35.8799 341.89 37.8699 341.89 41.9099C341.89 47.8899 338.07 53.2199 332.52 54.3499L331.39 52.8399V52.8499Z" fill="white"/>
<path d="M416.22 43.1399L414.28 48.3099C408.52 48.6899 399.41 48.8499 392.9 48.5799C381.86 48.1499 378.79 45.6199 376.53 41.4199C374.75 45.2399 372.71 48.2099 370.28 50.9499L366.99 47.6099C369.41 45.7299 372.16 43.2499 373.99 40.6599V27.9999H367.69V25.5799H378.62V40.5499C381.58 44.9699 388.37 44.3199 393.16 44.3199C400.16 44.3199 410.02 43.9399 416.21 43.1399H416.22ZM367.85 13.3499L368.87 11.6799C371.89 13.0299 375.93 15.4999 378.78 18.1399L375.33 21.9599C373.5 19.4799 370.37 15.7699 367.84 13.3399L367.85 13.3499ZM370.54 2.68988L371.51 1.12988C374.47 2.31988 378.57 4.62988 381.42 7.10988L378.03 10.9299C376.04 8.33988 373.34 5.37988 370.54 2.68988ZM387.35 42.0599H382.83V23.1099H395.27V18.7999H385.52V3.06988H410.03V18.7999H399.9V23.1099H412.99L413.04 37.0599C413.04 41.0999 409.48 45.4599 401.67 38.6799L402.42 36.8999C407.48 38.6799 408.51 38.4099 408.51 35.8799V25.5399H399.89V30.8199C400.64 30.7099 401.45 30.6599 402.31 30.5499C401.99 29.5799 401.61 28.6599 401.18 27.7499L402.8 26.7299C404.9 29.2099 406.46 31.5199 407.65 33.8899L403.83 35.6699C403.61 34.6499 403.29 33.5699 402.97 32.4899C398.12 34.3799 393.81 35.3399 390.26 35.7799L389.4 31.0899C391.5 31.1999 393.39 31.1999 395.27 31.1399V25.5399H387.35V42.0799V42.0599ZM389.99 5.48988L390.04 9.68988H395.26V5.48988H389.98H389.99ZM395.27 16.3699V11.9499H390.05V16.3699H395.27ZM399.9 9.68988H405.5V5.48988H399.9V9.68988ZM399.9 16.3699H405.5V11.9499H399.9V16.3699Z" fill="white"/>
<path d="M463.78 49.1202C458.99 49.5502 458.61 49.5502 454.62 49.2302C449.34 48.8002 447.51 47.8802 447.51 43.7402V32.0502H443.96C443.1 39.2702 439 47.9402 422.9 51.4902L422.15 49.6602C433.78 46.0002 438.2 38.4602 438.9 32.0502H429.85V2.91016H461.25V32.0502H452.47V42.0102C452.47 44.1602 453.28 44.5402 455.7 44.7002C458.07 44.8602 459.09 44.8602 461.62 44.6502C464.74 44.3802 465.44 43.5702 465.34 34.2002H467.28C469.54 44.2202 469.81 48.5802 463.78 49.1202ZM434.69 11.6802H456.4V5.33016H434.69V11.6902V11.6802ZM434.69 20.6202H456.4V14.1002H434.69V20.6202ZM434.69 29.6202H456.4V23.0502H434.69V29.6202Z" fill="white"/>
<path d="M486.67 20.95V50.57H482.25V26.02C480.74 27.47 479.02 28.82 477.19 30.01L476.01 28.45C480.91 24.14 484.36 17.95 486.84 11.7L490.18 13.37V5.27996H494.17V16.21H496.49V1.01996H500.69V16.21H503.28V5.32996H507.27V18.63H490.2V15.34C489.18 17.28 487.99 19.16 486.7 20.94L486.67 20.95ZM478.32 16.32L477.08 14.81C481.07 10.45 484.14 5.00996 485.7 0.209961L490.22 2.14996C487.15 7.58996 484.56 11.9 478.32 16.32ZM492.11 27.42H496.63C496.47 39 495.01 43.79 489.47 48.53L488.18 47.24C491.95 42.45 492.33 38.41 492.11 27.42ZM507.03 22.2V24.62H489.36V22.2H507.03ZM499.6 46.71L496.75 42.13C497.72 41.86 499.07 41.38 500.52 40.73V27.37H504.94V38.57C506.88 37.49 508.71 36.36 510.06 35.23L511.14 36.58C507.96 40.57 503.54 43.85 499.61 46.71H499.6ZM521.04 50.64C518.56 47.84 516.57 44.88 515.01 41.38C512.32 45.26 508.82 48.49 504.18 50.91L503.1 49.29C507.41 46.44 510.91 42.72 513.5 37.49C511.94 32.86 511.08 27.42 510.75 20.58C510 21.82 509.19 22.95 508.33 24.03L507.04 23.06C510.33 16.54 510.97 10.19 511.56 0.809961L516.19 1.39996C515.76 5.16996 515.11 8.72996 514.25 12.01H524.75V14.43H522.17C521.95 22.78 520.66 30.64 517.43 37.21C519.85 41.41 522.82 43.89 525.4 46.15L521.04 50.62V50.64ZM515.33 32.87C516.95 27.91 517.86 21.94 517.97 14.45H513.5C513.18 15.37 512.8 16.28 512.42 17.14C512.8 23.93 513.87 28.94 515.33 32.87Z" fill="white"/>
<path d="M553.56 36.0301C558.62 37.8101 564.44 40.9901 567.94 43.1901L564.82 47.5001C561.43 44.3801 557.66 41.2501 553.56 38.3401L553.51 50.6201H548.88V38.8201C545.16 42.4801 538.92 46.3601 532.4 48.3501L531.7 46.7301C537.36 44.1401 543.55 39.7801 547.21 34.7701L534.77 34.8201V32.4001H548.88V21.7901H553.51V32.4001L566.81 32.5101V34.8301L553.56 34.7801V36.0201V36.0301ZM534.12 19.3301L533.04 17.7701C538.43 12.9801 541.28 7.3701 543.38 0.100098L548.82 1.6101C548.17 3.1201 547.53 4.4601 546.83 5.7601H575.92V8.1801H545.43C542.47 12.9201 539.02 16.2601 534.12 19.3301ZM571.55 47.3901C567.89 42.0601 567.94 30.5801 567.94 20.5701H537.61V18.1501H572.73C572.73 25.7401 572.19 36.0901 573.86 41.2601C576.07 48.1501 576.61 44.0101 576.61 35.7701H578.55C582.16 48.2701 577.31 55.7501 571.55 47.4001V47.3901ZM546.77 29.4001L542.73 32.1501C541.28 28.8601 539.44 25.6901 537.88 23.1501L539.28 21.9601C541.65 23.5801 545.04 26.9201 546.77 29.3901V29.4001ZM544.4 14.2101V11.8901H572.14V14.2101H544.4ZM557 31.9301L555.6 30.6901C556.95 28.5401 558.99 24.6001 560.02 21.7501L564.49 24.3401C562.77 26.7101 559.1 30.3201 557 31.9401V31.9301Z" fill="white"/>
<path d="M596.75 14.4399V50.6899H592.23V23.4799C590.94 25.4699 589.48 27.4099 587.76 29.2999L586.47 28.1099C591.43 20.6199 594.28 9.03986 595.3 0.859863L600.31 1.71986C599.45 5.64986 598.42 10.0099 596.75 14.4299V14.4399ZM604.45 44.5499H600.25V9.20986H604.45V44.5499ZM635.04 46.1099L631.49 51.2799C629.6 50.6299 622.66 44.8699 620.23 35.1199C617.54 44.8199 611.18 48.6899 602.94 51.1199L602.13 49.3399C610.1 46.3799 613.93 41.2099 615.6 34.4699H605.9V32.0499H616.13C616.56 29.5699 616.72 26.8799 616.78 24.0199H613.17C611.39 26.7699 609.24 29.1399 607.25 30.7499L605.9 29.3499C608.32 26.5999 611.12 20.1899 611.82 15.2899L616.72 16.4799C616.24 18.1999 615.54 19.9299 614.62 21.5999H631.43V24.0199H621.68C621.63 27.0399 621.36 29.6799 620.93 32.0499H633.48V34.4699H622.17C625.02 42.0599 633.54 45.6199 635.04 46.0999V46.1099ZM634.02 14.8699H606.33V12.4499H622.22C622.49 10.2999 622.7 8.13986 622.97 5.87986H608.37V3.44986H622.86L623.94 2.47986L628.14 4.09986C627.71 6.89986 627.28 9.75986 626.9 12.4499H634.01V14.8699H634.02Z" fill="white"/>
<path d="M690.52 43.2498L689.17 48.6898C683.41 49.1698 672.04 49.1698 667.14 48.9098C658.9 48.4298 655.34 47.2398 651.52 40.9898C649.58 44.4398 647.1 48.1498 644.3 51.0098L641.23 47.8298C644.03 45.7298 647.32 42.7698 648.88 40.3398V28.2198H641.77V25.7398H653.62V39.9098C656.8 44.3298 660.35 44.4298 667.41 44.5998C674.41 44.7598 684.32 44.1198 690.52 43.2498ZM650.23 21.5398C648.45 19.1698 645.17 15.3498 642.9 12.9798L643.98 11.3598C646.67 12.7098 650.82 15.0198 653.73 17.5498L650.23 21.5398ZM646.14 2.35984L647.16 0.739844C649.8 1.91984 654.32 4.23984 657.07 6.65984L653.62 10.5898C651.52 7.83984 648.83 4.87984 646.13 2.34984L646.14 2.35984ZM659.5 18.0898L657.99 16.9598C660.79 11.8398 661.65 6.66984 662.35 1.65984L667.41 2.67984C667.14 4.23984 666.39 6.60984 665.31 9.13984H670.37V0.589844H675.33V9.15984H685.83V11.5798H675.33V19.1198H688.69V21.5398H656.75V19.1198H670.38V11.5798H664.13C662.89 13.9498 661.33 16.2698 659.5 18.0998V18.0898ZM680.45 41.3598V38.0698H665.37V41.4598H660.63V25.5198H685.19V41.3598H680.45ZM680.45 35.6498V27.9498H665.37V35.6498H680.45Z" fill="white"/>
<path d="M716.64 43.0399C712.71 44.7599 703.44 47.9999 698.11 49.0699L696.6 44.0099C699.13 43.7899 702.09 43.4699 705 43.0399V26.1799H697.24V23.7599H705V17.7299H700.21V16.9799C699.19 17.8999 698.16 18.8099 697.14 19.6199L695.95 18.1099C700.1 13.5299 703.76 6.63992 705.75 0.169922L710.65 1.83992C710.33 2.58992 710 3.34992 709.63 4.09992C712.54 5.92992 716.15 8.67992 718.73 11.2599L715.23 14.5999C713.24 11.5799 710.54 8.13992 708.61 5.92992C706.83 9.15992 704.46 12.4499 701.82 15.2999H715.02V17.7199H709.42V23.7499H717.45V26.1699H709.42V42.3799C712.06 41.9499 714.38 41.5199 716.1 41.1399L716.64 43.0299V43.0399ZM703.77 39.2199L699.68 40.2399C699.46 36.8999 698.87 33.0199 698.12 29.1999L699.79 28.7199C701.51 32.0099 702.97 35.8799 703.78 39.2199H703.77ZM716.97 29.5199C715.95 32.5899 714.22 36.6299 712.07 39.8099L710.51 39.2199C711.53 35.7199 712.29 32.0599 712.67 28.3399L716.98 29.5199H716.97ZM724.24 40.6699L729.03 43.4699C724.61 46.9699 715.94 50.4199 711.52 51.3899L710.77 49.5599C715.08 47.7299 719.77 45.0899 724.24 40.6699ZM727.74 8.34992H717.4V5.92992H728.01L728.5 0.329922L733.13 0.709922L732.65 5.93992H744.18V8.35992H732.38C732.22 9.80992 732 11.3199 731.79 12.7199H740.79V37.5499H744.51V39.9699H716.12V37.5499H719.46V12.7099H727.27C727.49 11.2599 727.65 9.79992 727.75 8.34992H727.74ZM736.36 15.1399H723.86V18.5899H736.36V15.1399ZM736.36 21.0099H723.86V24.6699H736.36V21.0099ZM736.36 27.0999H723.86V31.0299H736.36V27.0999ZM736.36 33.4599H723.86V37.5499H736.36V33.4599ZM745.95 46.7099L743.1 51.2299C739.11 47.9399 734.43 45.1399 730.44 42.5599L731.3 40.7299C735.66 41.9199 741.64 44.0199 745.95 46.7099Z" fill="white"/>
<path d="M760.32 43.75C760.32 41.76 760.97 40.03 762.31 38.63C763.71 37.18 765.33 36.48 767.21 36.48C771.09 36.48 774.1 39.71 774.1 43.75C774.1 47.79 771.08 51.02 767.21 51.02C763.34 51.02 760.32 47.73 760.32 43.75ZM771.47 43.75C771.47 41.27 769.58 39.28 767.22 39.28C764.86 39.28 762.96 41.27 762.96 43.75C762.96 44.99 763.39 46.01 764.25 46.93C765.06 47.79 766.03 48.22 767.21 48.22C769.58 48.22 771.46 46.23 771.46 43.75H771.47Z" fill="white"/>
</svg>
