<?xml version="1.0" encoding="utf-8"?>
<!-- Generator: Adobe Illustrator 26.5.0, SVG Export Plug-In . SVG Version: 6.00 Build 0)  -->
<svg version="1.1" id="圖層_1" xmlns="http://www.w3.org/2000/svg" xmlns:xlink="http://www.w3.org/1999/xlink" x="0px" y="0px"
	 viewBox="0 0 1920 1080" style="enable-background:new 0 0 1920 1080;" xml:space="preserve">
<style type="text/css">
	.st0{fill:#FFFFFF;}
</style>
<g>
	<path class="st0" d="M802.4,396.9l12,10.4c-0.6,1-1.8,1.8-3.6,2.3v80.9c0,0.2-3.2,4.4-12.3,4.4v-8.2h-53.4v3.4
		c0,0.4-1.5,5.9-12,5.9v-97.9l13.1,6.2h51.4L802.4,396.9z M745.1,485.1h53.4v-79h-53.4V485.1z M794.9,437.2
		c-0.5,0.7-1.4,1.5-2.9,1.8v28.2c-0.1,0.6-2.7,1.9-5.5,2.7c7.4,1.7,9.9,4.7,9.9,7.4c0,3.2-3.3,6.1-7,6.1c-1.8,0-3.7-0.7-5.1-2.5
		c-1.8-3.6-5.3-8-11.5-10.9l0.4-1.3c3,0,5.6,0.2,7.9,0.4v-2.9h-18l11.3,7.3c-0.5,1-1.4,1.5-3.1,1.5c-0.5,0-1.2-0.1-1.9-0.2
		c-5.1,3.9-13.6,7.5-22.5,9.1l-0.5-1.2c5.1-3.5,10.4-9.1,13.6-14h-0.1c-3.4,2.1-6,2.1-8.6,2.1v-41.4l3.2,1.5v-21.6l10.9,5h11.9
		l3.7-5.7l10.7,8.4c-0.5,0.7-1.4,1.5-2.9,1.8v9.3c-0.1,0.4-1.5,1.1-3.3,1.7L794.9,437.2z M765.2,426.9c0,0.7-2.9,4.2-9.8,4.2
		l7.3,3.4h17.6l2.6-4c-1.4,0.3-1.8,0.3-4.6,0.3v-3.9H765.2z M781.2,444.3v-8.1h-19v8.1H781.2z M762.2,446v8.3h19V446H762.2z
		 M762.2,464.4h19V456h-19V464.4z M778.4,415.9h-13.2v9.2h13.2V415.9z M895.1,440l10.6,11.8c-0.7,1-1.5,1.2-3.4,1.4
		c-3.3,3.2-8.7,7.8-12.7,10.3l-0.7-0.6c0.5-3.5,0.9-9.7,1.2-13.9h-33.9l12.2,3.3c-0.4,1.5-1.5,2.2-4.7,2.3c-1.4,1.6-3,3.3-4.7,4.9
		h10.8l6.1-7.2l12,11c-0.7,1.1-2.1,1.6-4.3,1.8c-11.8,18.7-25.6,28.5-55.7,31l-0.4-1.6c10.4-3,19.1-7.2,26.1-13
		c-0.9-0.2-1.9-0.7-2.8-1.7c-0.9-3.7-2.9-8-5.2-10.8c-5.1,2.8-10.6,5.1-16.4,6.6l-0.5-0.8c9.6-5.8,17.6-16.7,21.8-25.8h-16.5
		c0.3,1.7,0.5,3.3,0.5,4.7c0,6.9-3.2,11.4-8,11.4c-3.4,0-6.9-2.2-6.9-6.7c0-3.6,2.4-6.3,5.2-7.4c2.9-1.1,6.4-4.4,6.4-8.2h1.1
		c0.5,1.6,1,3.1,1.4,4.6h55.6L895.1,440z M841.7,408.5H820l-0.4-1.7h22v-11.7l15.7,1.4c-0.2,1.5-0.8,2.2-3.3,2.7v7.6h15.8v-11.7
		l16,1.4c-0.1,1.6-0.8,2.3-3.3,2.8v7.5h6.6l5.6-9L905,407c-0.6,1.2-1.6,1.5-3.9,1.5h-18.6v6.2c0,0.1-1.4,3.2-12.6,3.2v-9.3H854v6.8
		c0,0.1-1.4,3.2-12.4,3.2V408.5z M892.1,439.7c-0.1,1-6,3.7-10,3.7H880v-4.1h-35.7c-0.5,1.5-4.9,4.7-10,4.7h-1.7v-29.3l12.5,5.5h34
		l4.3-6.7l12,9.7c-0.5,0.7-1.5,1.6-3.3,2V439.7z M848.9,421.9h-4.6v15.7h4.6V421.9z M857,461.2c-2.5,2.1-5.3,4.2-8.4,6.1
		c8.8,0.6,11.6,4.7,11.4,8.3c3.9-4.1,7.1-8.9,9.8-14.3H857z M864.3,421.9h-4.9v15.7h4.9V421.9z M875,437.6h5v-15.7h-5V437.6z
		 M939,456.7v21.6c5.5,1.3,12.2,1.6,20.4,1.6c8,0,28,0,36.7-0.3v1.3c-4.5,1.3-6.7,6.5-6.9,12h-30.1c-20.4,0-31.5-4.5-37.8-22.5
		c-1.9,10.1-5.2,19.4-11.3,25.7l-1.2-1.3c4-12.6,4.2-36.2,4.2-52.2l14.2,0.7c-0.1,1.5-0.8,2.3-3.3,2.7c-0.4,6.2-0.8,12.9-1.7,19.3
		c1.5,2.8,3.3,5.1,5.1,6.9v-37.6h-17.5l-0.4-1.7h17.2v-18.6h-13.4l-0.4-1.7h13.7v-17.5l15.4,1.7c-0.2,1.2-0.8,1.9-3,2.2v13.6h0.3
		l5.4-8.6l9.8,8.8c-0.6,1.2-2,1.5-4.2,1.5H939v18.6h1l5.6-9l10,9v-6.8l13.2,5.7h7.5v-24.6H953l-0.5-1.7h22.8l4.7-7.2l12.4,10.3
		c-0.6,1-1.9,2-3.9,2.4v26.2c0,0.1-3.4,3.1-12.2,3.1v-6.8h-8.7v23.9c0,2.5,0,2.7,2.3,2.7h10.8c1.7,0,2.9-0.1,3.9-1.4
		c1.1-1.5,2.7-5.1,4.8-11.8h0.5v12.2c4,1.9,4.4,2.5,4.4,4.5c0,5-3,8.5-13.4,8.5H969c-10.8,0-13.4-3.1-13.4-14.8v-23.9
		c-0.7,1-2,1.2-4.1,1.2h-11.2l0.9,0.1c-0.1,1-0.6,1.5-2.3,1.8V455h1.2l5.2-9.5l9.4,9.7c-0.6,1.2-2,1.5-4.2,1.5H939z M1009.7,471.3
		c1.4,5,2.2,9.2,2.2,12.7c0,1.8,0,11.4-7.1,11.4c-3.4,0-5.3-2.4-5.3-5.6c0-2.5,1.4-5,3.4-6.5c2.3-2.2,5.6-7.5,5.6-12.1L1009.7,471.3
		z M1044.5,457.1c-7.9,3.4-19.9,7.6-37.5,13.1c-0.6,1.4-1.7,2.2-2.8,2.3l-4-15.3c3.6,0,9.7-0.1,17-0.3v-9.9h-14.9l-0.5-1.7h15.4
		v-11.2h-4.2v1.1c0,0.2-1.4,4.1-9.8,4.1V397l10.2,4.9h18.8l3.8-5.8l10.4,8.5c-0.5,0.9-1.7,1.7-3.3,2v28.6c-0.1,0.7-4.4,2.8-7.7,3
		l9.2,7.4c-0.6,1.3-2,1.5-4.2,1.5h-11.8v9.5c5.1-0.2,10.6-0.4,16-0.7V457.1z M1019,403.6h-6v5.1l0.2-0.1c3.3,3.5,5.1,6.9,5.9,9.9
		V403.6z M1019,425.3c-0.5,1.6-1.5,2.5-2.6,2.5c-0.8,0-1.6-0.5-2.3-1.7c0.1-0.6,0.1-1.4,0.1-2.1c0-3.3-0.5-7.2-1.2-10.6v19.1h6
		V425.3z M1014,470.8c6.9,4.8,9.2,9.9,9.2,13.8c0,4.2-2.8,7.3-5.6,7.3c-1.5,0-3.2-1-4.2-3.2c0.5-2.4,0.8-5.2,0.8-8
		c0-3.5-0.5-6.9-1.2-9.6L1014,470.8z M1021.9,469.4c9.3,3.3,12.4,8.4,12.4,12.5c0,3.6-2.4,6.4-5.1,6.4c-1.3,0-2.6-0.6-3.8-2.3
		c0.2-5.3-1.6-12-4.3-15.9L1021.9,469.4z M1033,403.6h-6.3v28.9h6.3v-16.6c-1.4,3.8-3.2,8.6-4.9,12.2l-1.2-0.4
		c0.7-5.9,1.5-15.1,1.7-19.7l4.3,1.3V403.6z M1028.5,434.2v11.2h1.4l4.9-7.2h-1.8v-3.9H1028.5z M1086.9,423.3
		c-0.7,1.2-2.1,1.5-4.4,1.5h-13.7v25.1h1l4.8-7.4l11.5,9.9c-0.6,0.8-1.5,1.5-3.6,1.9V492c0,0.6-3.7,3.2-9.8,3.2h-2.1V487h-14.1v5.2
		c0,1-3.4,3.8-9.2,3.8h-2.1v-15.9c-0.5,2.8-2.6,4.8-4.9,4.8c-1.3,0-2.6-0.6-3.8-2.1c-0.1-5-2.4-10.9-5.4-14.3l0.6-0.7
		c8.9,1.6,12.6,5.5,13.5,9.2v-32.5l11.4,5v-53.5l15.8,1.8c-0.2,1.4-1,2.2-3.6,2.7V423h2.6l5.6-10L1086.9,423.3z M1070.6,451.5h-14.1
		v33.8h14.1V451.5z M1114,422.2h13.3v-5.5c-1.1,1.7-2.9,2.8-4.7,2.8c-1.7,0-3.4-0.9-4.8-3.1c0.1-0.9,0.1-1.8,0.1-2.8
		c0-5-1.2-10.8-3.2-14.6l0.8-0.5c6.4,2.5,10,5.6,11.7,8.8v-12.1l11.9,1.3c-0.2,1.1-0.7,1.5-2.4,1.8v23.9h2.8v-27l12.4,1.4
		c-0.1,1.2-0.7,1.7-2.8,2.1v16.4c1.3-4.9,2.8-11.3,4.1-17l14,6.6c-0.5,1.6-1.9,2-3.7,1.8c-4.5,4.7-9.7,9.6-14.2,12.7l-0.2-0.1v3.1
		h3.1l5.2-8.2l9.8,8.4c-0.7,1.3-2,1.5-4.2,1.5h-48.6L1114,422.2z M1162,443.7c-0.5-1.5-0.9-2.8-1.5-3.9l0.7-0.5
		c11.8,5.1,15.8,11.9,15.8,17.4c0,5.3-3.6,9.2-7.4,9.2c-2,0-4.2-1.2-5.8-3.8c0.2-1.6,0.3-3.2,0.3-4.9c0-4.4-0.6-8.9-1.8-12.9
		c-0.7,1-2,1.2-4.1,1.2h-13.6v14.1h1.2l5.3-8.4l9.9,8.6c-0.7,1.2-2,1.5-4.2,1.5h-12.2v13.1c5.5-0.5,11.3-1.3,17.2-1.9l0.1,1.2
		c-7.9,4.6-20.1,10.3-39,18c-0.6,1.4-1.7,2.2-2.8,2.5l-5.7-17c3.8-0.2,10-0.7,17.6-1.5v-14.3h-11.4l-0.4-1.7h11.7v-14.1h-14.7
		l-0.5-1.7h10.4c-1.1-0.5-2.2-1.5-3-3c0.2-1.4,0.3-2.8,0.3-4.2c0-4.1-0.7-8.5-2.2-11.5l0.8-0.5c9.1,3.7,12.2,8.6,12.2,12.6
		c0,3.1-1.9,5.6-4.2,6.6h11.5c0.6-5.8,1.2-13.8,1.4-19.3l15.2,3.6c-0.2,1.3-1.1,1.9-3.3,2c-2.7,4-7,9.3-11.1,13.7h3.6l5-7.5
		L1162,443.7z M1194.3,418.8l7.7,9.2c-0.6,1.2-2,1.5-4.2,1.5h-7.1v48.9c0,9.2-1.8,16.1-15.4,17.6c0-9.9-2.3-13.2-10.3-14.4v-1.4
		h11.9c1,0,1.4-0.5,1.4-1.7v-49h-18.4l-0.4-1.7h18.8v-31.6l16,1.6c-0.2,1.4-0.5,2.2-3.6,2.8v26L1194.3,418.8z M1238.2,401.2
		c-0.4,1.4-1.3,2.2-3.8,2.2c-2.3,7-4.8,13.5-7.6,19.4l3.8,1.6c-0.3,1.1-1,1.7-2.8,2.1v65.1c-0.2,1.1-5.5,4.4-10.7,4.4h-2.4v-52.6
		c-3.2,4.2-6.6,8.2-10.2,11.6l-1-0.7c6.5-13.5,13.5-37.4,17.1-59.3L1238.2,401.2z M1280,410.9l11.2,12.4c-0.7,1-1.6,1.3-3.5,1.4
		c-3.3,4.2-8.8,10-13.5,13.3l-0.6-0.6c0.5-4.4,0.8-11.9,1-17.1h-6.5v58.2c0,9.6-2.1,16.4-15.5,17.4c0-10.8-2.4-13.6-9.8-14.9v-1.2
		h11.4c0.7,0,1.1-0.5,1.1-1.5v-58.1h-7.3c-5.1,9.5-11.1,17.1-18,22.9l-1-0.9c5.2-10.6,10.5-29.4,13.1-47.1l17.1,6.1
		c-0.4,1.4-1.3,2.2-3.8,2.2c-2,5.4-4.1,10.4-6.5,15h24.7L1280,410.9z M1230.1,477.6c3.7-8.6,7.2-23.8,9-37.8l15.8,5.4
		c-0.4,1.4-1.3,2.1-3.7,2.2c-5.1,13.4-11.9,24-20,31L1230.1,477.6z M1270.4,440.9c15.4,8,20.5,18.4,20.5,26c0,6.3-3.4,10.8-7.5,10.8
		c-1.9,0-4-1.1-5.9-3.5c0-10.6-3.2-24.2-7.9-32.8L1270.4,440.9z M1364.5,442l11.8,11.3c-0.5,1.2-1.3,1.6-3.2,1.9
		c-1.7,7.2-4.4,14-8.5,20c5,2.7,10.3,4.7,15.6,6.2l-0.1,1.2c-5.1,1.4-8.8,6.2-10.5,13.5c-5.1-3.3-9.5-6.9-13.2-11.5
		c-4.6,4-10.1,7.5-16.7,10.2l-0.4-1.2c5.3-4.2,9.4-9.7,12.4-15.8c-3.8-6.7-6.7-15-8.5-25.9h-5.1v41.2c0,0.7-3.7,3.3-10.1,3.3h-2.3
		v-19.1c-4.8,3.1-11.6,6.8-21.3,11.8c-0.6,1.4-1.6,2.1-2.6,2.4l-7.1-15.7c2.4,0,6.2-0.1,10.7-0.3v-36.2h-10.2l-0.4-1.7h67.7
		l6.4-10.5l11.6,10.7c-0.6,1.2-1.8,1.5-4.4,1.5h-37.9V450h19.7L1364.5,442z M1321.4,427.1v0.6c0,0.3-1.8,5.4-12.8,5.4v-36.6
		l13.6,6.1h30.3l4.7-7.3l12.8,10.4c-0.5,0.8-1.6,1.9-3.5,2.3v20.5c0,0.1-3.7,3.2-13.1,3.2v-4.6H1321.4z M1325.8,439.1h-8.1v10.4h8.1
		V439.1z M1317.6,451.2v10.7h8.1v-10.7H1317.6z M1317.6,474.7l8.1-0.4v-10.6h-8.1V474.7z M1353.5,404.2h-32.1v9.6h32.1V404.2z
		 M1321.4,425.4h32.1v-9.9h-32.1V425.4z M1344.6,451.7c2.4,7,6.1,12.4,10.7,16.7c1.6-5.3,2.7-10.9,3.4-16.7H1344.6z M1461,433.9
		l10.7,10.2c-0.6,1.2-2,1.5-4.4,1.5h-16.5v32.2c0,9.8-1.9,16.8-15.6,18.3c0-10.1-1.8-13.9-9.5-15.2v-1.4h10.8c0.9,0,1.2-0.4,1.2-1.5
		v-32.4h-17.8c-1,5.9-2.3,11.8-4.3,17.2c6.5,4.2,9,9.7,9,14.1c0,4.7-2.7,8.3-6.1,8.3c-1.4,0-2.8-0.5-4.3-1.8
		c-0.9-3.1-2.3-6.2-4.1-9.2c-5.3,8.9-13.1,16.5-24.6,22l-0.5-1.3c9.5-7.6,15.4-17.8,19-29.5c-1.5-1.9-3.3-3.6-5-5.2l-1,5.8
		c-1.3,1.2-3.5,1.8-6.1,1.8c-1.9,0-4.1-0.3-6.2-1c2-10.2,4.9-28.2,7-44.1h-7.5l-0.5-1.7h8.2c1.4-10.6,2.6-20.3,3.1-25.8l15.4,1.9
		c-0.2,1.4-0.9,2.3-3.5,2.7l-3,21.2h4l6-7.5l10.7,10.9c-0.6,1.3-1.4,1.7-3.5,2.1c-0.5,5.8-1,11.7-1.8,17.3h17.4v-18.6l10.4,0.8
		c2.3-5.5,4.7-13.7,6.1-18.9h-31.1l-0.5-1.7h30.9l6-7.1l10.4,11.6c-0.7,1-1.7,1.2-3.6,1.4c-4.1,4.6-10,10.6-15.6,15l3.3,0.3
		c-0.1,1.3-0.5,2.1-3.3,2.5v14.7h4.2L1461,433.9z M1404.8,422.7c-1.6,11.4-3.6,24.2-5.2,34.4c2.3,0.3,4.4,0.8,6.4,1.4
		c2.5-11,3.5-23.2,4-35.8H1404.8z M726.9,529.2h739.4 M728.5,612.4v-5.6h16.9c0.5-0.8,1.1-2,1.8-3.6c1.4-2.4,2.3-4.3,2.9-5.6
		l6.8,1.8c-0.3,0.5-0.8,1.3-1.4,2.5c-1.2,2.1-2.1,3.8-2.7,5h30.3v5.6H773c-2.1,5.6-5,9.9-8.8,13.1c2.6,0.9,6.2,2.4,11.1,4.5
		c2.4,0.9,4.1,1.5,5.2,1.8l-2.9,5.9c-6.6-3.2-12.9-5.9-18.8-8.1c-6.3,3.5-15,6.2-26,8.4c-0.3-0.8-0.8-1.8-1.4-3.2
		c-0.6-1.2-1.1-2.1-1.4-2.7c9.8-1.2,17-3,21.7-5.4c-3.2-1.4-6.2-2.6-9-3.6c-0.2,0.2-0.5,0.5-0.9,1.1c-0.3,0.5-0.6,0.8-0.9,1.1
		l-5.6-3.4c2.3-3,4.5-6.2,6.8-9.5H728.5z M731.2,602v-11.3h21.9v-6.6h6.3v6.6h21.2V602h-6.3v-5.6h-37v5.6H731.2z M745.6,618.5
		c3.6,1.2,7.7,2.7,12.2,4.5c3.8-3,6.6-6.6,8.4-10.6h-16.7C748.1,614.3,746.8,616.4,745.6,618.5z M785.7,594.5v-5.2h23.7v-5.4h6.1
		v5.4h23.9v5.2h-23.9v5H837v30.9c0,4.4-2.3,6.6-6.8,6.8c-1.7,0.1-4.7,0.2-9,0.2c-0.2-0.5-0.3-1.1-0.5-2c-0.3-1.7-0.6-2.9-0.9-3.6
		c2.1,0,4.4,0,7,0c3,0.1,4.4-0.9,4.1-3.2v-24.2h-36.6v33h-5.9v-38h21v-5H785.7z M797.9,617.1v-4.5h6.8c-0.2-0.1-0.4-0.5-0.7-0.9
		c-1.7-2.7-2.6-4.3-2.9-4.7l5.4-1.1c0.5,0.5,1.4,1.8,2.9,4.1c0.6,1.1,1,1.7,1.1,1.8l-2.3,0.9h5.9c0.6-0.9,1.7-2.6,3.2-5
		c0.8-1.1,1.2-1.7,1.4-2l5.4,1.1c-0.2,0.2-0.3,0.4-0.5,0.7c-1.4,2.3-2.4,4-3.2,5.2h6.8v4.5h-11.7v4.7h13.1v4.7h-13.1v9.7h-5.9v-9.7
		h-12.9v-4.7h12.9v-4.7H797.9z M844.3,594.3v-5h10.2v-5.4h5.4v5.4h10.4v5h-19.4c0.6,0.9,1.5,2.3,2.7,4.1c0.8,1.1,1.4,1.9,1.8,2.5
		l-3.4,1.8h6.6c1.7-2.7,3.2-5.4,4.5-8.1l5.2,1.8c-1.4,2.3-2.7,4.4-4.1,6.3h7.2v5h-11.3v5.2h10.2v5h-10.2v2.9l2.3-1.8
		c1.8,1.4,4.6,4.1,8.4,8.4l-3.8,3.4c-0.3-0.3-0.8-0.9-1.6-1.8c-2.4-3-4.1-5-5.2-6.1V637h-5.6v-14.5c-2.4,4.4-5.5,8.1-9.3,11.1
		l-3.4-4.1c4.7-3.5,8.2-7.4,10.6-11.7h-8.4v-5h10.4v-5.2h-11.7v-5h7.7c-1.4-2.1-2.7-4.1-4.1-6.1l4.3-2.3H844.3z M885.9,637.2v-28
		h-6.8v0.9c0.3,12.1-1.8,21.2-6.3,27.6c-0.5-0.3-1.3-0.8-2.5-1.6c-1.1-0.8-1.9-1.4-2.5-1.8c4.1-5.3,5.9-13.5,5.6-24.6v-21.5
		c0.3,0,0.8-0.1,1.6-0.2c8.9-0.6,15.4-1.3,19.7-2l1.8,5.4c-0.8,0.2-1.8,0.3-3.2,0.5c-5.9,0.6-10.6,1.1-14.2,1.4v10.6h18.3v5.4h-6.1
		v28H885.9z M900,599.9v-5.4h6.6v-10.6h5.6v10.6h5.6v5.4h-5.6v5.9c2.9,2.1,5.3,4,7.5,5.6l-2.7,5l-4.7-4.3v25.8h-5.6v-26.2
		c-1.5,4.7-3.5,9-6.1,12.9c-0.2-1.2-0.5-3.1-1.1-5.6c-0.2-1.1-0.3-1.8-0.5-2.3c3.3-4.8,5.8-10.4,7.5-16.7H900z M918.9,596.3v-5.4
		h14.2v-7h5.9v7h14.5v5.4h-16.7c-1.1,1.4-2.6,3.3-4.5,5.9c-1.4,1.7-2.3,2.9-2.9,3.6l5,4.1c2.9-3.2,5.4-6.6,7.7-10.4l5,2.5
		c-6.5,11.1-15.4,19.4-26.9,24.8c-1.2-1.7-2.4-3.5-3.6-5.4c5.1-2.1,9.6-4.7,13.6-7.7c-3-2.6-7.1-5.9-12.2-9.9l3.6-4.1l3.8,2.9
		c1.7-2,3.2-4.1,4.5-6.3H918.9z M949.9,637.2c-3.8-3.3-7.5-6.3-11.1-9c-4.4,3.5-10.2,6.8-17.6,9.9c-0.5-0.8-1.4-2-2.7-3.8
		c-0.5-0.6-0.8-1.1-0.9-1.4c13.1-4.4,23.2-12.2,30.3-23.5l5,3.2c-3.2,4.4-6.4,8.4-9.7,12c0.6,0.5,1.5,1.1,2.7,2
		c3.5,2.7,6.2,4.7,8.1,5.9L949.9,637.2z M961.2,624.6c-0.8-0.5-2.1-1-4.1-1.6c-0.9-0.3-1.5-0.5-1.8-0.7c2.7-8.1,4.7-15.3,6.1-21.5
		l6.1,1.8C965.6,610.2,963.5,617.5,961.2,624.6z M979.3,635.9c-6.3,0.1-9.4-2.8-9.3-8.8v-31.2h6.6v29.8c-0.2,3.3,1.4,4.9,4.7,4.7h7
		c3.2,0.2,5-1.4,5.6-4.5c0-0.5,0.1-1.3,0.2-2.5c0.3-2.1,0.5-3.8,0.7-5c0.8,0.2,1.8,0.5,3.2,1.1c1.5,0.5,2.6,0.8,3.2,1.1
		c-0.5,3.3-1,6.3-1.6,9c-0.8,4.2-4.1,6.2-10.2,6.1H979.3z M988.1,601.1c-2.7-3.2-6.9-7.5-12.7-13.1l4.3-4.3
		c5.1,4.5,9.4,8.7,12.9,12.4L988.1,601.1z M1004.8,621c-2.7-5.6-5.9-11.7-9.5-18.5l5.4-2.9c2.7,4.8,6,10.9,9.9,18.3L1004.8,621z
		 M1029.1,582.1v57.4h-2.9v-57.4H1029.1z M1046.6,602.9c-0.2-0.6-0.5-1.5-0.9-2.7c-0.5-1.2-0.8-2.1-0.9-2.7
		c3.2-3.9,5.6-8.4,7.5-13.6l5,0.9c-0.6,1.7-1.3,3.2-2,4.5h5.4c0.3-0.6,0.6-1.4,0.9-2.5c0.6-1.2,1.1-2.1,1.4-2.7l4.5,0.9l-2.3,4.3
		h6.3v3.8h-6.3v3.8h5.4v3.6h-5.4v3.6h5.4v3.6h-5.4v3.8h6.8v3.8H1054v1.8h-5v-17.8C1048.3,600.6,1047.5,601.7,1046.6,602.9z
		 M1096.9,637.4c-10.1-0.9-18.2-2.3-24.4-4.3c-6.6,2-14.9,3.6-24.8,5c-0.2-0.2-0.3-0.5-0.5-0.9c-0.9-1.8-1.7-3.2-2.3-4.1
		c7.5-0.8,14.2-1.6,19.9-2.5c-3.5-1.8-7.1-4.4-10.8-7.7h-5v-4.1h44.3v4.5c-4.1,2.9-8.4,5.3-12.9,7.2c6.3,0.8,12.7,1.3,19.2,1.6
		C1098.6,634.1,1097.7,635.8,1096.9,637.4z M1054,593.2v3.8h6.1v-3.8H1054z M1054,600.6v3.6h6.1v-3.6H1054z M1054,607.9v3.8h6.1
		v-3.8H1054z M1084.3,623h-22.6c3.3,2.4,6.9,4.3,10.6,5.6C1076.8,627.1,1080.8,625.2,1084.3,623z M1072.3,602.2
		c-0.2-0.6-0.4-1.5-0.7-2.7c-0.5-1.2-0.8-2-0.9-2.5c3.3-4.2,5.6-8.6,7-13.1l5,0.7c-0.2,0.8-0.6,1.8-1.4,3.2
		c-0.3,0.8-0.5,1.3-0.7,1.6h5.4c0.9-1.8,1.7-3.5,2.5-5.2l4.3,0.9l-2,4.3h7.5v3.8h-7.5v3.8h6.6v3.6h-6.6v3.6h6.6v3.6h-6.6v3.8h8.1
		v3.8h-19.7v1.8h-4.7v-17.8C1074,600.4,1073.2,601.3,1072.3,602.2z M1079.3,593.2v3.8h6.8v-3.8H1079.3z M1079.3,600.6v3.6h6.8v-3.6
		H1079.3z M1079.3,607.9v3.8h6.8v-3.8H1079.3z M1106.2,615.3c-0.5-0.8-1.4-2-2.7-3.6c-0.6-0.8-1.1-1.4-1.4-1.8
		c7.1-5.3,12-11.3,14.9-18.1l5.9,2.5C1118.7,602.7,1113.2,609.7,1106.2,615.3z M1107.4,635.4l-1.6-5.4c0.6,0,1.5-0.1,2.7-0.2
		c1.2,0,2,0,2.5,0c5.9-8.1,11-16.5,15.4-25.1l6.3,2.9c-4.2,6.8-9,14-14.2,21.7l23-1.4c-1.1-1.4-2.6-3.2-4.5-5.6
		c-1.4-2-2.4-3.4-3.2-4.3l4.7-3.2c2.7,3.3,6.9,8.5,12.7,15.6c1.5,1.7,2.6,2.9,3.4,3.8l-5.4,3.6l-3.8-5c-5.7,0.3-14.6,0.9-26.7,1.8
		C1113.7,635,1109.9,635.3,1107.4,635.4z M1154.1,613.3c-8.9-5.9-15.1-13.4-18.8-22.6h-14v-4.7h18.5c3.8,9.3,9.8,16.5,18.1,21.5
		c-0.2,0.2-0.4,0.5-0.7,0.9C1155.9,610.6,1154.9,612.2,1154.1,613.3z M1162.6,637.9v-51.7h49.7v51.7h-5.6v-2.5h-38.4v2.5H1162.6z
		 M1168.3,590.7v40.7h38.4v-40.7H1168.3z M1173.7,616.4v-9.7h27.3v9.5c0.1,0,0.2-0.1,0.2-0.2h0.2l2.9,2.7c-1.7,1.2-3.4,2.5-5.2,3.8
		l5.9,2.9l-2.5,3.4c-3.6-2.1-8.1-4.4-13.6-7l2.3-3.2l4.3,2c1.1-0.8,2.6-2,4.5-3.8c0.3-0.1,0.5-0.3,0.7-0.5h-11.7
		c-0.8,0.9-1.5,1.6-2.3,2v7.5c0.1,0,0.4,0,0.7,0c1.7-0.1,3.7-0.5,6.1-0.9c-0.2,0.9-0.2,2-0.2,3.4c-7.4,0.8-12.8,1.4-16.3,2l-0.7-3.4
		c1.8-0.3,3.6-0.5,5.4-0.7v-4.3c-3,1.8-6.4,3.5-10.2,5c-0.2-0.1-0.4-0.5-0.7-1.1c-0.8-1.4-1.4-2.3-1.8-2.9c5.6-1.7,10.2-3.8,14-6.6
		H1173.7z M1173,597.9v-3.4h11.7v-3.6h5.2v3.6h11.7v3.4H1190v2.9h14.5v3.4h-33.9v-3.4h14.2v-2.9H1173z M1178.9,609.9v3.4h17.2v-3.4
		H1178.9z M1233.7,582.1v57.4h-2.9v-57.4H1233.7z M1257.5,640.6c14.5-15.1,24.4-26.1,29.6-33.2c5.2-7,7.8-13.9,7.8-20.6
		c0-5.9-1.6-10.3-4.8-13.4c-3.2-3.1-7-4.6-11.4-4.6c-5.4,0-9.8,2-13.2,5.9c-1.9,2.2-3.6,5.5-5.4,10l-2.6-0.5c2-9.1,5.3-15.4,10.1-19
		c4.7-3.5,9.8-5.3,15.3-5.3c6.7,0,12.1,2.1,16.3,6.3c4.1,4.2,6.2,9.4,6.2,15.5c0,6.5-2.2,12.8-6.7,18.8c-4.5,6-14.2,16.7-29.2,32.1
		h27.3c3.8,0,6.5-0.5,8-1.4c1.5-0.9,3.3-3.1,5.2-6.7l1.5,0.7l-6.6,16.6h-47.5V640.6z M1341.3,608.6h-24.4V601h24.4V608.6z
		 M1356.8,635c3.6,2.3,6.6,3.4,9.1,3.4c5.5,0,9.7-1.9,12.4-5.6c2.7-3.8,4-7.8,4-12.2c0-4.2-1.1-8-3.3-11.2
		c-3.7-5.4-9.9-8.2-18.7-8.2c-0.5,0-1,0-1.5,0c-0.5,0-1,0.1-1.7,0.1l-0.1-1.5c6.3-2.3,11.3-4.9,15-7.9c3.6-3,5.5-6.9,5.5-11.8
		c0-4.3-1.4-7.6-4.3-9.9c-2.9-2.3-6.2-3.4-9.8-3.4c-4.4,0-8.2,1.6-11.5,4.8c-1.8,1.7-3.8,4.4-5.9,8.1l-1.8-0.4
		c1.6-6,4.5-10.8,8.9-14.5c4.3-3.6,9.3-5.4,15-5.4c6.1,0,10.8,1.7,14.1,5c3.3,3.3,5,7.2,5,11.5c0,3.8-1.4,7.4-4.1,10.6
		c-1.5,1.8-3.9,3.9-7.2,6.1c3.8,1.6,6.9,3.5,9.2,5.7c4.3,4.2,6.5,9.4,6.5,15.8c0,7.5-3,14.2-8.9,19.9c-5.9,5.7-14.4,8.6-25.3,8.6
		c-4.9,0-8.3-0.7-10.3-2.2c-2-1.4-2.9-3-2.9-4.7c0-1,0.3-2,1-3c0.7-1,1.7-1.4,3.2-1.4C1350.3,631.6,1353.2,632.7,1356.8,635z
		 M1416.1,607.4v1.1c0,1.7,0,3.2,0,4.5h18.1v-4.5h5.4v4.5h19.4v4.3h-27.3c0,0.5-0.1,1.1-0.2,2c0,1.1-0.1,1.8-0.2,2.3h23
		c-0.2,0.9-0.3,2.4-0.5,4.5c-0.2,1.7-0.2,2.9-0.2,3.6c-0.3,5.1-3.2,7.5-8.6,7.2c-1.7,0.1-4.7,0.2-9,0.2c-0.2-0.6-0.5-1.8-0.9-3.6
		c-0.2-0.6-0.3-1.1-0.5-1.4c2.9,0,5.6,0,8.1,0c3.3,0.1,5-0.9,5-3.2c0.1-0.8,0.2-1.8,0.2-3.2h-17.4c-1.1,4.4-4.9,8.6-11.5,12.7
		c-2-2-3.5-3.3-4.5-4.1c7.8-3.9,11.5-9.6,11.1-17.2h-9.7c-0.5,7.8-2.8,14.7-7,20.6c-1.8-1.5-3.4-2.9-4.7-4.3c2.6-3.8,4.2-7.2,5-10.4
		c0.8-3.3,1.1-8.1,1.1-14.5v-21.5c15.7-0.5,30.4-1.3,44.3-2.5l2,4.7c-10.8,0.9-24.3,1.7-40.4,2.3v2.9h40.2v12.7H1416.1z M1450.4,599
		h-34.3v4.1h34.3V599z M1741.3,1012.4c0.3,0,0.5,0.1,0.5,0.2c0,0.1-0.1,0.2-0.4,0.4v0.5h7v3.8h-1.7v-2.3h-12.6v2.3h-1.7v-3.8h7.2
		v-1.3L1741.3,1012.4z M1746.9,1022.4v7h-1.7v-0.7h-9.7v0.7h-1.7v-7H1746.9z M1746.1,1016v1.3h-11.3v-1.3H1746.1z M1745.4,1018.1
		v3.6h-10.1v-3.6H1745.4z M1739.5,1024.9v-1.1h-4v1.1H1739.5z M1739.5,1027.3v-1.2h-4v1.2H1739.5z M1743.8,1019.4h-6.8v1.1h6.8
		V1019.4z M1741.2,1024.9h4.1v-1.1h-4.1V1024.9z M1745.2,1027.3v-1.2h-4.1v1.2H1745.2z M1753.7,1012.5c0.3,0,0.4,0.1,0.4,0.2
		c0,0.1-0.1,0.2-0.3,0.4v2.2h1c0.1-0.2,0.2-0.3,0.3-0.3l0.9,0.7c0.1,0.1,0.2,0.2,0.2,0.3c0,0.1-0.1,0.2-0.3,0.3
		c-0.7,1.4-1.3,2.6-1.9,3.5v0.2c0.9,1.5,2,2.8,3.2,3.9l-1.2,1c-0.8-0.9-1.4-1.7-2-2.5v7h-1.6v-7.3c-0.5,0.6-1,1.1-1.6,1.7l-1-1.4
		c0.9-0.9,1.6-1.6,2.1-2.3c0.5-0.7,1.3-1.8,2.1-3.4h-3.7v-1.5h1.8v-3L1753.7,1012.5z M1757.1,1018.8c0.2,0.1,0.2,0.2,0.2,0.2
		c0,0.1-0.1,0.2-0.3,0.3l-1.3,1.6l-1.1-0.5l1.4-2.1L1757.1,1018.8z M1763.2,1016.3c0.2,0,0.3,0.1,0.3,0.2c0,0.1-0.1,0.3-0.4,0.5
		c-0.1,0.2-0.2,0.3-0.3,0.4c0.9,1.1,1.7,1.8,2.4,2.4c0.6,0.5,1.5,1.1,2.7,1.7l-1.3,1.3c-1.1-0.7-2-1.3-2.6-2c-0.5-0.4-1.2-1.2-2-2.2
		c-1.2,1.6-2.7,3-4.4,4.3l-1.5-1c2.5-1.5,4.4-3.5,5.8-6L1763.2,1016.3z M1761.3,1013.2c0.2,0.1,0.3,0.2,0.3,0.2
		c0,0.1-0.1,0.1-0.2,0.2c-0.2,0-0.4,0.4-0.8,1c-0.6,1-1.3,1.9-2.2,2.8l-1.6-0.9c1.2-1.1,2.2-2.3,3-3.9L1761.3,1013.2z
		 M1765.8,1022.5v7h-1.6v-1.2h-4.2v1.2h-1.6v-7H1765.8z M1764.2,1026.8v-2.9h-4.2v2.9H1764.2z M1767.6,1016.1l-1.6,1.2
		c-1-1-2-2.2-3-3.7l1.3-0.8C1765.2,1014,1766.3,1015.1,1767.6,1016.1z M1775.4,1013.6v1.3h-2.4l-1.5,3.7c0.8-0.1,1.7-0.2,2.4-0.3
		c-0.2-0.6-0.4-1.2-0.7-1.8l1.2-0.3c0.6,1.2,1,2.3,1.3,3.4v-1.2h2.6c0.1-0.2,0.2-0.4,0.3-0.5c0.1-0.2,0.2-0.4,0.3-0.6h-2.1v-1.2h2.5
		c0.1-0.3,0.1-0.7,0.2-1h-3.2v-1.3h3.4c0-0.5,0.1-1,0.1-1.5l1.5,0.2c0.2,0,0.4,0.1,0.4,0.2c0,0.1-0.1,0.2-0.4,0.4
		c0,0.2-0.1,0.5-0.1,0.7h4.5v1.3h-4.7c-0.1,0.4-0.1,0.7-0.2,1h4.4v1.2h-1.9c0.1,0.5,0.3,0.9,0.4,1.2h2.3v1.3h-1.7
		c0.1,0.1,0.1,0.2,0.2,0.3c0.5,0.7,1.2,1.4,2.1,2.1l-1.5,1.1c-0.9-0.9-1.6-1.8-2.1-2.6c-0.2-0.3-0.3-0.5-0.4-0.9h-3.3
		c-0.4,0.6-0.8,1.2-1.3,1.7c0.7-0.1,1.4-0.1,2-0.2c0.8-0.1,1.6-0.3,2.3-0.5l1,1.1c0.1,0.1,0.2,0.2,0.2,0.3c0,0.1-0.1,0.2-0.2,0.2
		l-0.4-0.1c-0.2,0-0.3,0-0.6,0.1c-0.3,0-0.6,0.1-0.8,0.1v1.4h3.9v1.3h-3.5c0.8,0.7,1.4,1.1,1.9,1.3c0.7,0.4,1.6,0.8,2.6,1.2
		l-1.4,1.3c-1-0.5-1.8-1.1-2.4-1.6c-0.3-0.3-0.7-0.6-1-1v3.1h-1.5v-3c-0.3,0.3-0.5,0.5-0.8,0.8c-0.6,0.6-1.5,1.2-2.7,1.8l-1.1-1.3
		c1.1-0.4,2-0.9,2.7-1.4c0.4-0.3,0.9-0.7,1.4-1.3h-3.5v-1.3h3.9v-1.2c-0.6,0.1-1.2,0.1-1.8,0.2l-0.5-1c-0.4,0.5-0.9,0.9-1.3,1.3
		l-1.3-1c1-0.8,1.8-1.6,2.4-2.4h-1.7c0.1,0.3,0.1,0.6,0.2,0.8l-1.3,0.3c-0.1-0.4-0.2-0.8-0.3-1.2c-1.1,0.2-2.6,0.5-4.5,0.9
		c-0.1,0.2-0.2,0.2-0.4,0.2c-0.1,0-0.2-0.1-0.2-0.2l-0.3-1.5c0.3,0,0.6-0.1,1-0.1l1.6-3.9h-2.3v-1.3H1775.4z M1771.5,1022.7v-2.3
		l1.4,0.1c0.3,0,0.4,0.1,0.4,0.2c0,0.1-0.1,0.2-0.3,0.4v1.6h2v1.4h-2v2.6c0.8-0.2,1.5-0.3,2.3-0.6v1.3c-1.2,0.3-3,0.8-5.6,1.4
		c-0.1,0.2-0.2,0.3-0.4,0.3c-0.1,0-0.2-0.1-0.2-0.2l-0.3-1.5c0.9-0.1,1.7-0.2,2.6-0.4v-2.9h-2.3v-1.4H1771.5z M1781.7,1017.3h-1.3
		c-0.2,0.5-0.3,0.9-0.4,1.2h2.1C1781.9,1018.1,1781.7,1017.7,1781.7,1017.3z M1801.3,1015.5v1.8h3.2v1.4h-3.2v1.7h-10.1v-1.7h-3.6
		v-1.4h3.6v-1.8H1801.3z M1796.9,1012.5c0.3,0,0.5,0.1,0.5,0.2c0,0.1-0.1,0.2-0.4,0.4v0.3h7.3v3h-1.7v-1.6h-12.7v1.7h-1.7v-3h7.1
		v-1.1L1796.9,1012.5z M1802.2,1020.9v6.4h-1.3c1.1,0.4,2.2,0.8,3.2,1.3l-1.3,1.2c-1.5-0.8-3.2-1.3-5-1.8l0.8-0.7h-4.2l0.2,0.1
		c0.1,0.1,0.2,0.2,0.2,0.3c0,0.1-0.2,0.2-0.5,0.3c-0.8,0.4-1.4,0.7-2,0.9c-0.7,0.2-1.7,0.5-2.9,0.8l-1.2-1.2c1-0.2,1.7-0.4,2.3-0.6
		c0.5-0.2,0.9-0.3,1.3-0.5c0.1-0.1,0.3-0.1,0.4-0.2h-1.8v-6.4H1802.2z M1800.5,1022.7v-0.7h-8.4v0.7H1800.5z M1800.5,1024.5v-0.7
		h-8.4v0.7H1800.5z M1800.5,1025.5h-8.4v0.7h8.4V1025.5z M1795.5,1017.4v-0.7h-2.6v0.7H1795.5z M1795.5,1018.5h-2.6v0.7h2.6V1018.5z
		 M1799.6,1017.4v-0.7h-2.5v0.7H1799.6z M1799.6,1018.5h-2.5v0.7h2.5V1018.5z M1813.5,1012.3c0.3,0,0.4,0.1,0.4,0.2
		c0,0.1-0.1,0.3-0.3,0.5v2.3h1.8v-3l1.4,0.1c0.3,0,0.4,0.1,0.4,0.2c0,0.1-0.1,0.3-0.3,0.5v2.3h1.1l1.6-2.8l1.2,0.6
		c0.2,0.1,0.3,0.2,0.3,0.2c0,0.2-0.1,0.3-0.3,0.4l-1,1.5h2.7v1.5h-3.8l-0.7,1.6h3.4v1.5h-6v1.1h5.4v1.4h-5.4v1h7.4v1.5h-6.5
		c0.9,0.6,1.8,1.1,2.7,1.4c1,0.4,2.4,0.8,4.3,1.2l-1.8,1.6c-1.5-0.5-2.7-1-3.6-1.6c-0.9-0.5-1.8-1.1-2.6-1.9v4h-1.7v-4
		c-0.9,0.8-1.9,1.5-2.9,2c-1,0.5-2.3,1-3.7,1.4l-1.5-1.5c1.8-0.4,3.3-0.9,4.6-1.5c0.7-0.3,1.5-0.8,2.3-1.3h-6.4v-1.5h7.5v-1h-5.4
		v-1.4h5.4v-1.1h-6.1v-1.5h3.4l-0.5-1.6h-4v-1.5h2.9c-0.4-0.7-0.9-1.2-1.3-1.7l1.1-1c0.7,0.8,1.4,1.7,2,2.8h0.9v-3L1813.5,1012.3z
		 M1816.1,1018.3l0.7-1.6h-4.6l0.5,1.6H1816.1z M1830.3,1014.9c0.4-0.8,0.7-1.7,1.1-2.6l1.3,0.5c0.2,0.1,0.4,0.2,0.4,0.4
		c0,0.1-0.1,0.2-0.4,0.2c-0.2,0.5-0.4,1-0.6,1.5h9v1.5h-9.7c-0.4,0.8-0.8,1.4-1.2,2h8.6v9.3c0,0.8-0.4,1.3-1.3,1.6
		c-0.6,0.2-1.3,0.3-1.9,0.3l-0.7-1.6l1.6,0c0.4,0,0.7-0.2,0.7-0.7v-1h-7.2v3.3h-1.6v-8.8c-0.9,0.9-2,1.6-3.2,2.3l-1.1-1.6
		c1.4-0.5,2.8-1.6,4.2-3.1c0.5-0.5,0.9-1.1,1.3-1.7h-5.1v-1.5H1830.3z M1837.1,1021.6v-1.8h-7.2v1.8H1837.1z M1837.1,1024.8v-1.7
		h-7.2v1.7H1837.1z M1849.6,1013.9l-2.3,4.9c1.3,1.4,1.9,2.7,1.9,3.9c0,1.3-0.3,2.3-1,3c-0.7,0.7-1.5,1.1-2.6,1.1l-0.7-1.6
		c1.1-0.2,1.8-0.5,2.1-0.9c0.3-0.4,0.5-0.9,0.5-1.7c0-0.9-0.6-2.1-1.9-3.6l1.8-4.4h-2.7v15.2h-1.6V1013h4.8c0.1-0.2,0.2-0.2,0.2-0.2
		L1849.6,1013.9z M1858.4,1013.1v7.6h-3c0.2,1.1,0.5,2,0.9,2.8c0.9-0.6,1.6-1.3,2.3-2l1.2,1.1c0.1,0.1,0.1,0.2,0.1,0.3
		c0,0.1-0.2,0.2-0.5,0.2c-0.8,0.6-1.6,1.2-2.4,1.7c0.6,1.1,1.7,2.3,3.2,3.4l-1.7,1.3c-0.9-1-1.7-1.9-2.2-2.7c-0.6-1-1.1-1.9-1.5-2.9
		c-0.3-0.8-0.6-1.8-0.9-3.1h-2.1v6.3c1.1-0.3,2.1-0.6,3.2-0.9v1.4c-1.2,0.5-3,1.1-5.6,1.9c-0.1,0.2-0.3,0.3-0.4,0.3
		c-0.1,0-0.2-0.1-0.2-0.3l-0.4-1.7c0.6-0.1,1.1-0.2,1.7-0.3v-14.3H1858.4z M1856.8,1016.2v-1.7h-5v1.7H1856.8z M1856.8,1019.3v-1.7
		h-5v1.7H1856.8z M1867,1015.4c0.2,0.1,0.3,0.2,0.3,0.3c0,0.2-0.2,0.3-0.5,0.5c-0.5,1.4-1,2.5-1.5,3.3c-0.6,1-1.6,2-2.8,3l-1.4-1.2
		c1.2-0.9,2.2-1.9,2.8-2.9c0.5-0.7,0.9-1.8,1.4-3.3L1867,1015.4z M1869.6,1019.5c0.2,0.1,0.4,0.2,0.4,0.3c0,0.1-0.2,0.2-0.4,0.4
		c-0.8,2-1.8,4.2-3,6.6c2.4-0.1,4.6-0.3,6.7-0.6c-0.7-1-1.4-2-2.1-2.8l1.3-1c1.5,1.6,3,3.6,4.4,6.1l-1.6,1.1c-0.3-0.7-0.7-1.3-1-1.9
		l-10.7,1.3c-0.2,0.3-0.4,0.5-0.6,0.5c-0.2,0-0.3-0.1-0.4-0.3l-0.7-2.1c1,0,1.9,0,2.9-0.1c0.6-1.1,1.1-2.1,1.4-3.1
		c0.7-1.7,1.3-3.3,1.8-5L1869.6,1019.5z M1873.2,1013.1c0.2,2,0.8,3.7,1.7,4.9c0.7,0.9,1.8,2,3.4,3.2l-1.7,1.2c-1.8-1.4-3-2.8-3.8-4
		c-0.7-1-1.1-2.2-1.3-3.8h-4.5v-1.6H1873.2z M1894.3,1013.2v14.3c0,0.9-0.5,1.4-1.5,1.7c-0.8,0.2-1.6,0.3-2.4,0.3l-0.7-1.8l2,0
		c0.6,0,0.9-0.2,0.9-0.7v-12.2h-12.8v-1.6H1894.3z M1890.3,1016.7v1.6h-9.8v-1.6H1890.3z M1889.4,1020.2v6.1h-6.5v1.3h-1.7v-7.3
		H1889.4z M1887.8,1024.7v-3h-4.9v3H1887.8z M1684.9,1034c-0.1,0.1-0.1,0.3,0,0.4c0.1,0.1,0.3,0.1,0.4,0l3.1-3.5h18.1v7.9l0,0.1
		c2.4,0,4.4-2.1,4.4-4.5v-2.1v-28.4v0L1684.9,1034z M1697.7,1030.3c-3.3-0.5-4.9-3.7-3.1-6.5l12-13.9v20.4H1697.7z M1723.6,1001.3
		h-4h-3.7h-16.2c-0.2,0-0.3,0.1-0.3,0.3c0,0.2,0.1,0.3,0.3,0.3h12.6v36.9l0,0.1c2.4,0,4.4-2.1,4.4-4.5v-26.2
		C1717,1001.7,1723.6,1001.3,1723.6,1001.3z"/>
</g>
</svg>
