<?xml version="1.0" encoding="utf-8"?>
<!-- Generator: Adobe Illustrator 27.6.1, SVG Export Plug-In . SVG Version: 6.00 Build 0)  -->
<svg version="1.1" id="圖層_1" xmlns="http://www.w3.org/2000/svg" xmlns:xlink="http://www.w3.org/1999/xlink" x="0px" y="0px"
	 viewBox="0 0 1440 700" style="enable-background:new 0 0 1440 700;" xml:space="preserve">
<style type="text/css">
	.st0{fill:#FFFFFF;}
	.st1{fill:url(#SVGID_1_);}
</style>
<g>
	<g>
		<path class="st0" d="M594.5,224.9c0-5.5,1.5-10,4.2-14.3l2.6,1.1c-2.3,4-3.4,8.7-3.4,13.2c0,4.6,1.1,9.2,3.4,13.3l-2.6,1.1
			C596,235,594.5,230.5,594.5,224.9z"/>
		<path class="st0" d="M629.3,231v3.4H605V231H629.3z M627.8,212.9v3.3h-21.2v-3.3H627.8z M625.6,221.7v3.3h-17.1v-3.3H625.6z"/>
		<path class="st0" d="M646.9,226.7c-0.1,0.5-0.2,1-0.3,1.5h9.1c0,0,0,0.7-0.1,1.1c-0.3,3.4-0.7,5.1-1.4,5.8
			c-0.6,0.6-1.3,0.8-2.3,0.9c-0.8,0.1-2.2,0.1-3.7,0.1c0-0.9-0.4-2-0.9-2.7c1.3,0.1,2.5,0.2,3.1,0.2c0.4,0,0.7-0.1,1-0.2
			c0.3-0.3,0.5-1,0.7-2.5h-6.4c-1.1,2.4-3.2,4.2-7.2,5.4c-0.3-0.8-1.1-1.9-1.8-2.5c-0.5,1.1-1.1,2-1.9,2.9c-0.5-0.7-1.8-2-2.4-2.4
			c3-3.5,3.3-8.7,3.3-12.7v-9c6.4-0.4,13.6-1.1,17.9-2l2.5,2.4c-4.8,1.1-11.3,1.7-17.2,2v0.9h17.6v6.6H649c0.3,0.6,0.6,1.3,0.9,1.9
			h8.5v2.6H646.9z M638.8,226.7c-0.3,2.3-0.9,4.7-1.9,6.8c5-1.4,6.2-3.6,6.7-6.8H638.8z M646.2,224.2c-0.2-0.5-0.4-1-0.6-1.4
			l2.7-0.5h-9.1c0,0.6-0.1,1.2-0.1,1.9H646.2z M639.1,218.1v1.6h14.3v-1.6H639.1z"/>
		<path class="st0" d="M671.7,212.4c-0.7,2.3-1.6,5.1-2.4,7.2c1.7,2.2,2,4.1,2,5.8c0,1.8-0.4,3-1.3,3.6c-0.4,0.3-1,0.5-1.6,0.6
			c-0.5,0.1-1.2,0.1-1.8,0.1c0-0.8-0.3-2-0.7-2.8c0.5,0,0.9,0.1,1.2,0c0.3,0,0.6-0.1,0.8-0.2c0.3-0.2,0.5-0.9,0.5-1.6
			c0-1.4-0.4-3.1-2-5.1c0.5-1.7,1.1-3.9,1.6-5.8h-2.7V236h-2.9v-24.7h6.7l0.4-0.1L671.7,212.4z M686.8,226.6c-1.2,0.9-2.7,2-3.9,2.8
			c1.2,1.6,2.7,2.9,4.5,3.7c-0.7,0.6-1.7,1.9-2.2,2.9c-4.2-2.3-6.4-6.5-7.7-12h-1.7v7.8l3.9-0.9c0,0.9,0,2.3,0.1,3
			c-5.5,1.4-6.5,1.8-7.2,2.2c-0.3-0.7-1-2-1.4-2.6c0.6-0.4,1.3-1.1,1.3-2.4v-19.8h12.6V224h-4.8c0.3,1.1,0.7,2.1,1.1,3
			c1.1-0.9,2.4-1.9,3.2-2.7L686.8,226.6z M675.8,214.1v2.2h6.1v-2.2H675.8z M675.8,221.2h6.1V219h-6.1V221.2z"/>
		<path class="st0" d="M704.5,232.2c1,0.1,2.1,0.2,3.3,0.2c1.5,0,6.1,0,8-0.1c-0.5,0.8-1,2.4-1.2,3.3h-7c-5.2,0-9.1-0.9-11.6-4.9
			c-0.9,2.2-2.2,4-3.7,5.3c-0.5-0.6-2-1.7-2.7-2.2c3-2.2,4.4-6.1,4.9-10.8l3.4,0.3c-0.1,1.2-0.4,2.3-0.6,3.3
			c0.8,2.3,2.1,3.6,3.7,4.4v-9.4h-6v-3.2h15.4v3.2h-6v3.3h7.7v3.1h-7.7V232.2z M694.1,220.1h-3.3v-6.9h10.4c-0.3-0.8-0.6-1.6-1-2.3
			l3.4-0.9c0.6,1,1.1,2.2,1.5,3.2h9.7v6.9h-3.4v-3.8h-17.2V220.1z"/>
		<path class="st0" d="M718.7,238.2c2.3-4,3.4-8.7,3.4-13.3c0-4.5-1.1-9.2-3.4-13.2l2.5-1.1c2.7,4.3,4.2,8.8,4.2,14.3
			c0,5.6-1.5,10-4.2,14.3L718.7,238.2z"/>
	</g>
	<g>
		<g>
			<g>
				<g>
					<path class="st0" d="M612.2,46.3V43c2.7,0.3,6.3,0.4,11,0.4c0.2-2.1,0.2-3.8,0.1-4.5c1,0.4,3.2,0.6,3.9,0.5
						c0.5-0.1,0.6,0.3,0,1.2c-0.2,0.3-0.6,1.4-1,2.7c5,0,8.7-0.2,11.5-0.4v3.4c-2.9-0.3-6.8-0.4-12-0.4c-0.2,1.2-0.4,2.4-0.7,3.5
						h2.5c3.4,0,6.4-0.1,8.9-0.4v3.5c-2.5-0.3-5.5-0.4-9-0.4h-3.1c-0.4,1.3-0.9,2.5-1.4,3.7h6.6c3.7,0,6.4-0.1,9.5-0.4v3.4
						c-2.6-0.3-4.9-0.4-7.7-0.4c1.6,3,5.2,5.2,9.2,5.4c-0.8,1.7-1.2,3.1-1.6,4.6c-2-1-3.8-2.1-5.2-3.2v8.7c0,2.1,0.1,4,0.3,5.8h-3.1
						v-1.8h-11.5v2.6h-3c0.2-1.8,0.3-3.1,0.3-5.3v-9.8c-1.5,1.7-3.2,3.3-5.2,4.9c-0.5-1.2-1.4-2.5-2.3-3.2c3.9-2.4,7.1-5.3,9.4-8.7
						c-2.9,0-5.2,0.2-7.8,0.4v-3.4c3.1,0.3,5.7,0.4,9.4,0.4c0.6-1.2,1.1-2.4,1.5-3.7c-3.2,0-5.9,0.1-8.3,0.4v-3.5
						c2.6,0.3,5.5,0.5,9,0.4c0.2-1.1,0.4-2.3,0.6-3.5C618.3,45.9,614.9,46.1,612.2,46.3z M618.8,62.5c1.5,0.1,3.7,0.1,6.3,0.1
						c2.3,0,4.3,0,5.8-0.1c-1.1-1.3-1.9-2.7-2.5-4.3h-6.9C620.8,59.7,619.9,61.1,618.8,62.5z M630.9,68.7v-3.5h-11.5v3.5H630.9z
						 M619.4,71.3V75h11.5v-3.7H619.4z"/>
					<path class="st0" d="M654.1,72.3c0,2.7,0,5.3,0.2,8h-2.8c0.1-2.7,0.2-5.3,0.2-8v-9.9c-1,1.9-2.1,4-3.4,6.3
						c-0.3-1.4-0.9-3.2-1.6-4.4c1.9-1.5,4.1-5,7.2-12.7h-3.5c-1.2,0-2.4,0.2-3.1,0.5v-3.8c1.3,0.2,2.5,0.2,5,0.2c2.9,0,4,0,5.2-0.2
						c-0.2,1.3-0.6,2.3-1.5,4.7c-0.5,1.4-1.2,2.9-1.9,4.5V72.3z M652.4,47.2c-0.5-2-1.2-3.6-2.3-5.4l3-1.8c1,1.9,1.4,2.9,2.2,4.9
						L652.4,47.2z M656.5,66c-0.6-2.2-1.2-3.5-2.2-5.3l1.7-1.9c1.2,2.1,1.9,3.6,2.6,5.6L656.5,66z M667.5,45.2
						c-3.5,0-6.9,0.1-8.9,0.4v-3.8c1.9,0.3,5.4,0.4,8.9,0.4c3.6,0,6.9-0.1,8.8-0.4v3.8C674.4,45.3,671.1,45.2,667.5,45.2z
						 M661.4,77.5v2.7h-2.6c0.1-1.4,0.1-2.8,0.1-5.2V64.4c0-1.2-0.1-3.1-0.2-4.3c1.6,0.1,5.1,0.2,8.6,0.2s7-0.1,8.6-0.2
						c-0.1,1.3-0.2,3.1-0.2,4.3v10.2c0,2.4,0,3.6,0.2,5.2h-2.6v-2.2H661.4z M667.3,57.4c-2.9,0-5.5,0.1-7,0.2
						c0.1-1.8,0.1-3.3,0.1-4.9c0-1.5,0-3.1-0.1-4.8c1.5,0.2,4.1,0.3,7,0.3c2.9,0,5.5-0.1,7-0.3c-0.1,1.7-0.1,3.3-0.1,4.8
						c0,1.5,0,3.1,0.1,4.9C672.8,57.4,670.2,57.4,667.3,57.4z M666.1,67.2v-4.4h-4.7v4.4H666.1z M661.4,69.7V75h4.7v-5.3H661.4z
						 M672,50.8h-9.4v4h9.4V50.8z M673.5,67.2v-4.4h-5.1v4.4H673.5z M668.5,69.7V75h5.1v-5.3H668.5z"/>
					<path class="st0" d="M685.2,61.8v-3.6c1.8,0.4,4.4,0.4,9.2,0.4c1-2.8,1.9-5.7,2.3-8.3c0.7,0.5,2.3,1.4,3,1.8
						c0.5,0.2,0.5,0.7,0.2,1.1c-0.5,0.6-1.5,2.7-2.7,5.4h7.6c5.1,0,7.8,0,9.7-0.4v3.6c-1.5-0.3-3.5-0.4-6.8-0.4
						c-1,3.9-2.3,7-3.7,9.2c3.7,1.9,6.3,3.6,9.6,6c-0.9,0.7-1.7,2-2.4,3.7c-3-3.1-5.1-4.6-9.4-7.1c-3.6,3.5-7.8,5.4-14.5,7.1
						c-0.4-1.3-1-2.7-1.7-4.1c5.4-0.4,9.7-1.8,13.3-4.5c-4.2-2.3-5.9-3.1-8.7-3.9c1-1.6,2.1-3.8,3.1-6.3
						C689.3,61.4,686.9,61.5,685.2,61.8z M697.4,39.7c1.4-0.4,2-0.6,3-1.1c0.5,2,1,4.4,1.3,6.8c6,0,8-0.1,11.4-0.4v8.2h-2.9v-4.9
						h-20.7v4.8h-2.8V45c2.9,0.4,5.3,0.4,12.3,0.4C698.7,43.5,698.1,41.2,697.4,39.7z M696.1,61.3c-0.6,1.6-1.3,3.2-1.8,4.6
						c2.2,0.8,4.1,1.7,7.2,3.2c1.6-2.1,2.6-4.8,3.3-7.8H696.1z"/>
					<path class="st0" d="M722.8,61.8v-3.6c1.8,0.4,4.4,0.4,9.2,0.4c1-2.8,1.9-5.7,2.3-8.3c0.7,0.5,2.3,1.4,3,1.8
						c0.5,0.2,0.5,0.7,0.2,1.1c-0.5,0.6-1.5,2.7-2.7,5.4h7.6c5.1,0,7.8,0,9.7-0.4v3.6c-1.5-0.3-3.5-0.4-6.8-0.4
						c-1,3.9-2.3,7-3.7,9.2c3.7,1.9,6.3,3.6,9.6,6c-0.9,0.7-1.7,2-2.4,3.7c-3-3.1-5.1-4.6-9.4-7.1c-3.6,3.5-7.8,5.4-14.5,7.1
						c-0.4-1.3-1-2.7-1.7-4.1c5.4-0.4,9.7-1.8,13.3-4.5c-4.2-2.3-5.9-3.1-8.7-3.9c1-1.6,2.1-3.8,3.1-6.3
						C726.9,61.4,724.5,61.5,722.8,61.8z M735,39.7c1.4-0.4,2-0.6,3-1.1c0.5,2,1,4.4,1.3,6.8c6,0,8-0.1,11.4-0.4v8.2h-2.9v-4.9
						h-20.7v4.8h-2.8V45c2.9,0.4,5.3,0.4,12.3,0.4C736.3,43.5,735.6,41.2,735,39.7z M733.6,61.3c-0.6,1.6-1.3,3.2-1.8,4.6
						c2.2,0.8,4.1,1.7,7.2,3.2c1.6-2.1,2.6-4.8,3.3-7.8H733.6z"/>
				</g>
			</g>
			<linearGradient id="SVGID_1_" gradientUnits="userSpaceOnUse" x1="555.1821" y1="60.4306" x2="599.3646" y2="60.4306">
				<stop  offset="2.631580e-02" style="stop-color:#A1804E"/>
				<stop  offset="0.2947" style="stop-color:#FBDFB9"/>
				<stop  offset="0.5737" style="stop-color:#C79F62"/>
				<stop  offset="0.7842" style="stop-color:#F3DDC0"/>
				<stop  offset="1" style="stop-color:#AD8C5D"/>
			</linearGradient>
			<path class="st1" d="M596.2,55.2c-0.4-0.3-0.6-0.8-0.4-1.3c0.8-2.3,0.6-4.7-0.6-6.2c-0.7-0.9-1.8-1.5-2.9-1.6c-0.1,0-0.2,0-0.4,0
				c-1-2.2-3-3.6-5.3-4c0-0.1,0-0.1-0.1-0.2c-0.4-1.1-1.3-1.9-2.4-2.3c-1.8-0.6-4.2-0.1-6.1,1.3c-0.4,0.3-1,0.3-1.3,0
				c-1.9-1.5-4.3-2-6.1-1.4c-1.1,0.4-2,1.2-2.4,2.3c0,0.1,0,0.1-0.1,0.2c-1.5,0.2-3,0.8-4.1,1.9c-0.6,0.6-1.1,1.3-1.4,2.1
				c-0.1,0-0.1,0-0.2,0c-1.1,0.1-2.2,0.7-2.9,1.6c-1.2,1.5-1.4,3.9-0.7,6.2c0.1,0.4,0,1-0.4,1.3c-2,1.4-3.2,3.5-3.2,5.4
				c0,1.2,0.5,2.3,1.4,3c0,0,0.1,0.1,0.1,0.1c-0.4,2.4,0.4,4.8,2.2,6.4c0,0.1-0.1,0.2-0.1,0.3c-0.3,1.1-0.1,2.3,0.6,3.3
				c1,1.6,3.3,2.6,5.7,2.6c0,0,0,0,0.1,0c0.5,0,0.9,0.4,1.1,0.8c0.7,2.3,2.3,4.2,4.1,4.7c0.4,0.1,0.8,0.2,1.2,0.2
				c0.7,0,1.5-0.2,2.1-0.6c0.1-0.1,0.2-0.1,0.3-0.2c1,0.5,2,0.8,3.1,0.8c0.3,0,0.7,0,1.1-0.1c0.8-0.1,1.6-0.4,2.3-0.8
				c0.1,0.1,0.2,0.2,0.4,0.3c0.6,0.4,1.4,0.6,2.1,0.6c0.4,0,0.8-0.1,1.2-0.2c1.8-0.5,3.5-2.3,4.2-4.6c0.1-0.4,0.6-0.8,1.1-0.8
				c0.1,0,0.1,0,0.2,0c2.3,0,4.5-1,5.6-2.5c0.7-1,0.9-2.2,0.7-3.3c0-0.1-0.1-0.3-0.1-0.4c1.7-1.6,2.4-3.9,2-6.1
				c0.1-0.1,0.2-0.2,0.3-0.2c0.9-0.7,1.4-1.8,1.4-3C599.4,58.7,598.2,56.6,596.2,55.2z M588.5,43.5c1.1,0.6,2,1.5,2.6,2.6
				c-0.9,0.2-1.9,0.7-3,1.7c-1.3,1.2-3.3,3.2-5.2,5.1c1.2-2.4,2.5-4.9,3.3-6.4c0.7-1.5,0.8-2.6,0.7-3.5
				C587.4,43.1,588,43.2,588.5,43.5z M570.8,40c1.6-0.6,3.8,0,5.6,1.3c0.6,0.4,1.4,0.4,2,0c1.8-1.3,4-1.8,5.6-1.2
				c1,0.4,1.7,1.1,2.1,2c0.5,1.2,0.3,2.6-0.4,4.2c-1.3,2.7-4.4,8.6-5.8,11.3c-0.3-0.3-0.7-0.5-1.1-0.7c0.3-0.9,0.5-1.9,0.7-2.8
				c0.4-1.7,0.7-3.5,0.9-5.3c0,0,0,0,0,0c0.5,0,1-0.4,1-1c0-0.6-0.4-1-1-1c-0.5,0-1,0.4-1,1c0,0.5,0.3,0.8,0.7,1
				c-0.6,1.7-1,3.4-1.5,5.1c-0.2,0.9-0.4,1.9-0.5,2.8c-0.2-0.1-0.5-0.1-0.8-0.1c-0.3,0-0.6,0-0.8,0.1c-0.2-0.9-0.3-1.9-0.5-2.8
				c-0.4-1.7-0.8-3.5-1.4-5.2c0.4-0.1,0.7-0.5,0.7-0.9c0-0.6-0.4-1-1-1c-0.5,0-1,0.4-1,1c0,0.5,0.4,1,1,1c0,0,0,0,0,0
				c0.1,1.8,0.5,3.5,0.8,5.3c0.2,0.9,0.4,1.9,0.7,2.8c0,0-0.1,0-0.1,0.1c-0.7-0.7-1.6-1.6-2.6-2.7c-1.4-2.8-3.1-6.2-4-8.1
				c-0.7-1.6-0.9-3-0.4-4.2C569.1,41,569.9,40.3,570.8,40z M564.6,44.4c0.9-0.9,2-1.5,3.3-1.7c-0.1,0.9,0,2.1,0.7,3.6
				c0.7,1.6,2,4.1,3.2,6.5c-1.9-1.9-3.9-3.9-5.1-5.1c-1.2-1.1-2.3-1.6-3.2-1.8C563.8,45.4,564.2,44.9,564.6,44.4z M555.8,60.3
				c0-1.7,1.1-3.6,3-4.9c0.6-0.4,0.9-1.2,0.6-1.9c-0.7-2.1-0.5-4.4,0.6-5.7c0.6-0.8,1.5-1.3,2.5-1.4c0.1,0,0.2,0,0.2,0
				c1.2,0,2.4,0.6,3.6,1.7c2.2,2.1,6.7,6.8,8.9,9c-0.4,0.2-0.7,0.5-1,0.9c-0.8-0.5-1.7-1.1-2.5-1.6c-1.6-0.9-3.1-1.8-4.7-2.5
				c0,0,0,0,0,0c0.2-0.5-0.1-1.1-0.6-1.3c-0.5-0.2-1.1,0.1-1.3,0.6c-0.2,0.5,0.1,1.1,0.6,1.3c0.4,0.1,0.9,0,1.1-0.4
				c1.4,1.1,2.9,2,4.4,3c0.9,0.5,1.7,1,2.6,1.4c-0.2,0.4-0.4,0.9-0.5,1.5c-1-0.2-2-0.3-2.9-0.4c-1.8-0.1-3.5-0.3-5.3-0.3
				c0-0.4-0.2-0.8-0.7-1c-0.5-0.2-1.1,0.1-1.3,0.6c-0.2,0.5,0.1,1.1,0.6,1.3c0.5,0.2,1.1-0.1,1.3-0.6c0,0,0,0,0,0
				c1.7,0.4,3.5,0.6,5.3,0.9c1,0.1,2,0.2,3,0.2c0,0.4,0.1,0.9,0.3,1.3c-3,0.5-9.5,1.5-12.5,1.9c-1.7,0.2-3.1-0.1-4.1-0.9
				C556.2,62.3,555.8,61.3,555.8,60.3z M557.5,64c0.6,0.3,1.4,0.5,2.5,0.5c0.3,0,0.7,0,1.1-0.1c1.7-0.2,4.5-0.6,7.2-1
				c-2.4,1.2-4.9,2.5-6.4,3.3c-1.4,0.7-2.2,1.6-2.6,2.3C558,67.7,557.3,65.8,557.5,64z M573.3,80.6c-0.8,0.5-1.9,0.6-2.9,0.3
				c-1.6-0.5-3.1-2.2-3.7-4.3c-0.2-0.7-0.9-1.2-1.6-1.2c0,0,0,0-0.1,0c-2.2,0-4.2-0.9-5.2-2.3c-0.6-0.8-0.8-1.9-0.5-2.8
				c0.3-1.2,1.3-2.3,2.8-3.1c1.8-1,5.2-2.7,8-4.1c1.4-0.2,2.7-0.4,3.7-0.6c0,0,0,0.1,0.1,0.1c-0.8,0.6-1.6,1.3-2.4,1.9
				c-1.3,1.2-2.6,2.4-3.8,3.7c0,0,0,0,0,0c-0.4-0.3-1.1-0.2-1.4,0.2c-0.3,0.4-0.2,1.1,0.2,1.4c0.4,0.3,1.1,0.2,1.4-0.2
				c0.3-0.4,0.2-0.9,0-1.2c1.5-1,2.8-2.2,4.2-3.3c0.7-0.7,1.5-1.4,2.2-2.1c0.3,0.4,0.8,0.7,1.2,0.9c-0.5,0.9-0.9,1.8-1.3,2.7
				c-0.7,1.6-1.4,3.3-1.9,5c-0.4-0.2-0.9,0-1.1,0.3c-0.3,0.4-0.2,1.1,0.2,1.4c0.4,0.3,1.1,0.2,1.4-0.2c0.3-0.4,0.2-1.1-0.2-1.4
				c0,0,0,0,0,0c0.9-1.5,1.7-3.1,2.5-4.8c0.4-0.9,0.8-1.9,1.2-2.8c0.3,0.1,0.7,0.2,1.1,0.2c0.1,0,0.2,0,0.4,0
				c-0.5,3-1.5,9.5-2.1,12.5C575.1,78.7,574.4,80,573.3,80.6z M578,80.7c-1.2,0.2-2.3,0-3.4-0.5c0.6-0.7,1.1-1.6,1.4-3.2
				c0.3-1.7,0.8-4.5,1.3-7.2c0.4,2.7,0.8,5.4,1.1,7.1c0.3,1.5,0.8,2.5,1.3,3.1C579.2,80.5,578.6,80.7,578,80.7z M594.6,73.3
				c-0.9,1.4-2.9,2.2-5.1,2.2c-0.1,0-0.1,0-0.2,0c-0.7,0-1.4,0.5-1.6,1.2c-0.7,2.1-2.2,3.8-3.8,4.3c-1,0.3-2,0.1-2.8-0.4
				c-1.1-0.7-1.8-1.9-2.1-3.6c-0.4-2.1-0.9-5.8-1.4-8.9c0.2-1.5,0.4-2.8,0.6-3.7c0.3,0.9,0.7,1.9,1.1,2.8c0.7,1.6,1.5,3.2,2.4,4.8
				c0,0,0,0,0,0c-0.4,0.3-0.6,0.9-0.2,1.4c0.3,0.4,0.9,0.6,1.4,0.2c0.4-0.3,0.6-0.9,0.2-1.4c-0.3-0.4-0.7-0.5-1.1-0.4
				c-0.5-1.7-1.2-3.4-1.8-5c-0.4-0.9-0.8-1.8-1.3-2.7c0.5-0.2,0.9-0.5,1.3-0.9c0.7,0.7,1.4,1.4,2.1,2c1.3,1.2,2.7,2.3,4.1,3.4
				c-0.3,0.3-0.3,0.8,0,1.2c0.3,0.4,0.9,0.6,1.4,0.2c0.4-0.3,0.6-0.9,0.2-1.4c-0.3-0.4-0.9-0.6-1.4-0.2c0,0,0,0,0,0
				c-1.2-1.4-2.5-2.6-3.8-3.8c-0.7-0.6-1.5-1.3-2.2-1.9c0.1-0.1,0.1-0.2,0.2-0.3c0.9,0.2,2.3,0.4,3.7,0.6c2.8,1.4,6.2,3.2,8,4.2
				c1.5,0.8,2.5,1.9,2.7,3.1C595.4,71.5,595.2,72.5,594.6,73.3z M595.2,69.1c-0.4-0.7-1.2-1.5-2.5-2.3c-1.5-0.8-4-2.2-6.4-3.4
				c2.6,0.4,5.4,0.9,7.1,1.1c0.4,0.1,0.8,0.1,1.2,0.1c0.9,0,1.7-0.2,2.2-0.4C597,66,596.4,67.8,595.2,69.1z M597.6,63.2
				c-1,0.8-2.4,1.1-4.1,0.9c-3-0.4-9.5-1.5-12.5-2.1c0.1-0.4,0.2-0.7,0.3-1.1c1,0,1.9-0.1,2.9-0.2c1.8-0.2,3.5-0.4,5.3-0.8
				c0,0,0,0,0,0c0.2,0.5,0.7,0.8,1.2,0.6c0.5-0.2,0.8-0.7,0.6-1.2c-0.2-0.5-0.7-0.8-1.2-0.6c-0.4,0.1-0.7,0.5-0.7,1
				c-1.8-0.1-3.6,0.1-5.3,0.2c-0.9,0.1-1.9,0.2-2.8,0.3c0-0.5-0.2-1.1-0.4-1.5c0.8-0.4,1.7-0.9,2.5-1.3c1.5-0.9,3-1.8,4.5-2.9
				c0.2,0.4,0.7,0.5,1.1,0.4c0.5-0.2,0.8-0.7,0.6-1.2c-0.2-0.5-0.7-0.8-1.2-0.7c-0.5,0.2-0.8,0.7-0.7,1.2c0,0,0,0,0,0
				c-1.7,0.7-3.2,1.6-4.8,2.4c-0.8,0.5-1.6,1-2.4,1.5c0-0.1-0.1-0.1-0.2-0.2c0.4-0.8,1.1-2,1.8-3.3c2.2-2.2,4.9-4.9,6.5-6.3
				c1.3-1.2,2.6-1.7,3.8-1.6c1,0.1,1.9,0.6,2.5,1.4c1,1.4,1.2,3.6,0.5,5.7c-0.2,0.7,0,1.5,0.6,1.9c1.8,1.3,2.9,3.2,2.9,4.9
				C598.8,61.6,598.3,62.5,597.6,63.2z"/>
		</g>
		<g>
			<path class="st0" d="M873.4,134.1c2.2,1.3,4.6,2.6,6,3.6l-2.8,4c-1.7-1.4-5.1-3.7-7.8-5.3l2-2.3h-6.6l2.9,1.3
				c-2.5,2.1-6.3,4.6-9.2,6.1c-0.6-1-2.1-3-3.1-4l0.3-0.1c-4.4,1-8.9,2.1-12.5,2.8l-0.9-4.3c1.6-0.2,3.6-0.6,5.7-1v-10.1h-5.2v-4.1
				h5.2v-2.9h-3v-1.9c-0.7,0.6-1.3,1.3-2,1.8c-0.2-1-1.1-3.7-1.7-4.9c2.9-2.2,6.1-5.7,7.9-9.4l3.4,1.6c-0.2,0.5-0.5,1-0.8,1.5
				c2.3,1.4,4.6,3.1,6,4.4l-1.9,3.9c-0.2-0.3-0.5-0.6-0.9-0.8v3.8h-3.3v2.9h4.6v4.1h-4.6v9.4l4.8-0.9l0.2,3.6
				c1.9-0.8,3.9-1.8,5.5-2.8h-5.3V130h2.5v-17.3h5.7c0.1-0.6,0.2-1.1,0.3-1.7h-7.2v-3.8h7.7c0.1-1.2,0.2-2.3,0.3-3.3l4.7,0.2
				c-0.2,1-0.4,2.1-0.5,3.1h8.6v3.8h-9.4l-0.4,1.7h8.2V130h2.3v4.1H873.4z M845.4,126.3c0.6,2.2,1.2,5.1,1.4,6.9l-3,0.9
				c-0.2-1.9-0.7-4.8-1.3-7L845.4,126.3z M854.4,113.8c-1.4-1.3-3.3-2.7-5.1-3.9c-0.9,1.4-2,2.7-2.9,3.9H854.4z M851.5,132.7
				c0.5-1.8,1.1-4.7,1.3-6.8l3.3,0.9c-0.7,2.3-1.4,5-2,6.7L851.5,132.7z M862.8,115.7v1.7h9.9v-1.7H862.8z M872.8,119.9h-9.9v1.6
				h9.9V119.9z M862.8,125.7h9.9V124h-9.9V125.7z M862.8,130h9.9v-1.7h-9.9V130z"/>
			<path class="st0" d="M912.2,124.2c-0.9,2.9-2.2,5.4-3.8,7.5c4.4,1.8,8.4,3.7,11.3,5.5l-3.6,4.2c-2.8-1.9-6.9-4-11.5-6
				c-4.2,3.2-9.9,5-17.7,6.1c-0.4-1.3-2-3.6-3-4.8c6.4-0.6,11.3-1.7,15-3.6c-3.5-1.5-7.1-2.7-10.4-3.8c1.1-1.5,2.2-3.2,3.3-5.1h-7.9
				v-4.5h10.4c1.1-2.1,2-4.3,2.7-6.3l5.7,1c-0.7,1.7-1.4,3.4-2.3,5.2h7.2c0.2-1.1,0.3-2.4,0.4-3.7l5.9,0.4v-3.9h-24.3v4.5h-4.9v-9
				h14.5c-0.4-1.2-1-2.4-1.4-3.5l5.5-1.3c0.7,1.5,1.5,3.3,2.1,4.8h13.7v9h-5.1c-0.2,0.9-0.3,1.8-0.5,2.7h6.4v4.5H912.2z
				 M898.1,124.2c-0.6,1-1.2,2-1.8,3c2.3,0.7,4.6,1.6,7,2.5c1.3-1.5,2.3-3.3,3.1-5.4H898.1z"/>
			<path class="st0" d="M961.9,136.4v3.8h-37v-3.8h15.8v-2.1h-12.8v-3.6h12.8v-1.8h-11.5v-12.8h11.5v-1.5h-15.6v-3.8h15.6V109
				c-3.9,0.2-7.9,0.3-11.6,0.3c0-1.1-0.6-2.7-1-3.7c9.5-0.2,20.5-0.9,27.4-2l2.2,3.7c-3.5,0.6-7.8,1-12.2,1.3v2.1h16v3.8h-16v1.5
				h12.1v12.8h-12.1v1.8h13.6v3.6h-13.6v2.1H961.9z M934,121.1h6.8v-1.8H934V121.1z M940.8,125.8v-1.8H934v1.8H940.8z M945.7,119.3
				v1.8h7.1v-1.8H945.7z M952.8,123.9h-7.1v1.8h7.1V123.9z"/>
			<path class="st0" d="M987.1,109.7h2.2v2.9h-2.2v4h-7.5v1.2h7.9v2.6h-7.9v1.2h9.5v3h-22.7v-3h8.9v-1.2h-7.2v-2.6h7.2v-1.2h-7.1
				v-2.6h7.1v-1.5h-9.2v-2.9h9.2v-1.3h-7v-2.6h7v-2.2h4.3v2.2h7.5V109.7z M966.1,136.7c5.8-0.2,14.7-0.4,23.1-0.8l-0.1,3.6
				c-8.2,0.4-16.8,0.7-22.6,0.9L966.1,136.7z M987.3,125.9v9.2h-19.1v-9.2H987.3z M972,129.5h3.8v-1.3H972V129.5z M972,132.9h3.8
				v-1.3H972V132.9z M979.6,109.7h3.4v-1.3h-3.4V109.7z M983,112.6h-3.4v1.5h3.4V112.6z M983.3,128.1h-3.6v1.3h3.6V128.1z
				 M983.3,131.6h-3.6v1.3h3.6V131.6z M994.8,131.3h-4.4v-22.7h4.4V131.3z M1002.7,104.5v31.3c0,2.5-0.5,3.8-2,4.6
				c-1.5,0.8-3.7,1-6.9,0.9c-0.2-1.3-0.8-3.3-1.5-4.7c2.2,0.1,4.2,0.1,4.9,0.1c0.7,0,0.9-0.2,0.9-0.8v-31.3H1002.7z"/>
			<path class="st0" d="M1037,135.5c2.6,0,5.8-0.2,7.5-0.5c0.2,1.2,0.4,3.3,0.7,4.5c-1.5,0.4-5.2,0.4-8.4,0.4h-16.1
				c-7.2,0-10.6-2.2-10.6-9.6v-21h-1.6v-4.2h34.7v4.2h-28.3v21.3c0,3.5,1.2,4.9,5.4,4.9H1037z M1016.8,122.6h11.3v10.9h-11.3V122.6z
				 M1020.7,130.2h3.2v-4.4h-3.2V130.2z M1036.9,120.8h-16v-9.6h16V120.8z M1032.1,114.3h-6.7v3.3h6.7V114.3z M1041.3,133.4h-11.5
				v-10.9h11.5V133.4z M1037.1,125.8h-3.3v4.4h3.3V125.8z"/>
			<path class="st0" d="M857.3,163.1c-3,6.6-7.7,13.4-12.1,17.7c-0.9-1-3.1-3.1-4.3-4.1c4.3-3.6,8.6-9.4,11-15.3L857.3,163.1z
				 M868.8,181.6c3.3,4.4,7.1,10.2,9.1,13.9l-5,2.6c-0.5-1.2-1.3-2.5-2.1-4c-19.7,1.5-22.5,1.8-24.5,2.5c-0.3-1-1.3-3.7-2-5.1
				c1.3-0.4,2.4-1.5,4.1-3.2c1.7-1.7,6.8-8.6,10-15.3l5.7,2.3c-3.1,5.4-7.1,10.9-11,15.2l15-1c-1.3-2-2.7-4.1-3.9-5.9L868.8,181.6z
				 M869.5,161.4c1.8,5.7,5.5,11.3,10.5,14.4c-1.1,1-2.9,3.3-3.7,4.8c-4.6-3.5-8.3-8.9-10.6-14.2h-6.5v-5H869.5z"/>
			<path class="st0" d="M919.2,162v36.2h-4.7v-1.5H889v1.5h-4.6V162H919.2z M914.4,192.4v-26.1H889v26.1H914.4z M903.4,187
				c-0.1,0.9-0.1,2.2,0,2.9c-6.9,1.7-8.1,2.1-8.8,2.5c-0.2-0.7-0.7-2-1.1-2.5c0.6-0.3,1.3-0.7,1.3-2.3v-1.5
				c-1.1,0.4-2.2,0.8-3.2,1.1c-0.5-0.6-1.6-2-2.3-2.7c2.6-0.5,5.5-1.4,7.7-2.4h-4.6v-5.8h18.8v5.8h-8.8c-1.1,0.9-2.6,1.8-4.1,2.5
				v3.4L903.4,187z M913,175.3h-22.7v-2.7h9.1v-1.6h-7.2v-2.6h7.2v-1.7h4.4v1.7h7.5v2.6h-7.5v1.6h9.2V175.3z M896.5,180.2H907v-1.7
				h-10.5V180.2z M913.5,184.5c-1.1,0.8-2.2,1.5-3.4,2.1c1.4,1,2.7,1.9,3.6,2.7l-3.1,1.8c-2-1.9-6.3-5-9.7-7l2.9-1.6
				c1.1,0.7,2.4,1.5,3.8,2.4c1.1-0.8,2.3-1.6,3.1-2.3L913.5,184.5z"/>
			<path class="st0" d="M934.6,178.9c1-1.2,2.2-2.8,2.8-3.9l2.9,2.6c-1.3,1.2-2.5,2.4-3.5,3.3c1.2,1.3,2.4,2.5,2.9,3l-2.5,3.8
				c-0.7-1.1-1.9-2.9-3.2-4.5v14.8h-4.4v-14.4c-1.3,1.5-2.5,2.7-3.8,3.8c-0.3-1.3-1.4-3.9-2-4.8c3.5-2.5,7.1-6.7,9.3-11.1h-8v-4.3
				h6.5c-0.8-1.5-2-3.4-3-4.9l3.5-2.1c1.2,1.6,2.7,3.7,3.4,5.1l-2.8,1.9h2.9l0.8-0.2l2.4,1.9c-1.2,3.1-2.7,6.2-4.6,9v0.2
				L934.6,178.9z M962.1,193v4.2h-23.2V193h9.1v-4.1h-7.5v-4.2h7.5v-3.1h-7.7v-19.3h20.3v19.3h-8.1v3.1h8.4v4.2h-8.4v4.1H962.1z
				 M944.6,170h3.4v-3.7h-3.4V170z M948,177.5v-3.8h-3.4v3.8H948z M956,166.3h-3.5v3.7h3.5V166.3z M956,173.8h-3.5v3.8h3.5V173.8z"
				/>
			<path class="st0" d="M1003,166.7c0,0,0,1.6,0,2.2c-0.5,18-1,24.5-2.6,26.6c-1.1,1.5-2.3,1.9-3.9,2.2c-1.5,0.2-4,0.2-6.4,0.1
				c-0.1-1.3-0.7-3.3-1.6-4.7c2.6,0.2,5,0.2,6.1,0.2c0.8,0,1.3-0.2,1.8-0.7c1.2-1.3,1.7-7.3,2.2-21.6h-8.7c-1.1,2.4-2.3,4.6-3.6,6.4
				c-0.7-0.6-2-1.5-3.1-2.3V194h-10.9v2.9h-4.4v-30h4.6c0.5-2,1-4.6,1.2-6.5l5.3,0.7c-0.7,2-1.4,4-2.1,5.8h6.3v6.5
				c2.4-3.4,4.3-8.3,5.5-13l4.6,1c-0.4,1.7-1,3.4-1.6,5.1H1003z M978.6,171.2h-6.5v6.5h6.5V171.2z M978.6,189.8v-7.9h-6.5v7.9H978.6
				z M992.1,187.6c-1.1-2.4-3.7-6.4-5.7-9.3l3.8-2.1c2,2.8,4.7,6.6,6,9L992.1,187.6z"/>
			<path class="st0" d="M1041.7,178.1c-1.6,1.3-3.5,2.5-5.3,3.8c1.6,4.8,4.9,8.8,9.5,10.6c-1.1,0.9-2.5,2.7-3.2,3.9
				c-4.9-2.3-8.1-6.6-10.1-12.1c-0.4,0.3-0.9,0.5-1.3,0.8c1.1,4.8,0.2,9.5-1.9,11.2c-1.4,1.5-2.7,1.9-4.9,1.9c-0.9,0-2.1,0-3.3,0
				c-0.1-1.3-0.5-3.2-1.3-4.6c1.4,0.2,2.7,0.2,3.7,0.2c1,0,1.6-0.1,2.2-1c0.7-0.6,1.2-2.1,1.2-4.1c-4.6,3.1-11,6.1-16.5,7.7
				c-0.5-1.2-1.6-2.9-2.5-4c6.4-1.4,14.3-4.8,18.3-8.2c-0.2-0.5-0.4-1-0.6-1.5c-4.1,2.5-10,5.2-14.7,6.6c-0.5-1.1-1.5-2.7-2.4-3.7
				c5-1,11.7-3.6,15.2-5.9c-0.4-0.4-0.7-0.9-1.1-1.3c-3.5,1.9-7.5,3.2-11.3,4.2c-0.4-0.9-1.7-2.8-2.5-3.8c4.6-0.9,9.5-2.5,13.1-4.4
				h-7v-4.1h22.8v4.1h-9.1c-0.7,0.6-1.5,1.3-2.4,1.9c1.6,1.5,2.8,3.1,3.6,4.9c2.8-1.9,5.7-4.2,7.7-6.1L1041.7,178.1z M1013.8,172.8
				h-4.8v-9.1h14.8c-0.3-0.8-0.7-1.5-1-2.1l5.1-1.5c0.7,1.1,1.3,2.4,1.8,3.6h14.5v9.1h-5V168h-25.4V172.8z"/>
		</g>
		<path class="st0" d="M480.4,115.7h-23.4c0.6-13.6,4.9-24.3,12.8-32.1c7.9-7.8,18.1-11.7,30.5-11.7c7.7,0,14.4,1.6,20.3,4.8
			c5.9,3.2,10.5,7.9,14.1,14c3.5,6.1,5.3,12.3,5.3,18.5c0,7.5-2.1,15.5-6.4,24.2c-4.3,8.6-12,18.8-23.4,30.6L496,178.9h44.9v22.2
			h-87.3v-11.5l39-39.8c9.4-9.5,15.7-17.2,18.8-23c3.1-5.8,4.7-11,4.7-15.7c0-4.9-1.6-8.9-4.8-12c-3.2-3.2-7.4-4.8-12.5-4.8
			c-5.1,0-9.4,1.9-12.9,5.7C482.5,103.9,480.7,109.1,480.4,115.7z"/>
		<path class="st0" d="M646.3,169.9h-39.1v15.8c0,6.7-1.6,10.1-6.7,12c-5,2-11.7,2.1-20.3,2.1c-0.8-3.8-3.3-9.3-5.5-12.7
			c6.5,0.2,14.4,0.2,16.5,0.2c2.1,0,2.7-0.4,2.7-1.9v-15.5h-38.9v-11.8h38.9v-5.6c4.4-2.2,8.8-5.3,12.8-8.6h-33.8v-11.6h46.3
			l2.8-0.6l8.3,6.5c-6.1,6.4-14.4,13.1-23.2,18.1v1.8h39.1V169.9z M567.7,136h-12.3v-24h39.2c-1.3-2.4-2.6-4.9-4.1-6.9l12.5-3.8
			c2.5,3.1,5,7.3,6.4,10.7h36.1v24h-12.9v-12.3h-64.9V136z"/>
		<path class="st0" d="M701.7,185.3c-14.7,3.6-30.7,7.3-42.7,10.1l-2.8-11.6c7.1-1.3,16.7-3.1,26.7-5.2l-2.5-0.6
			c1.5-5.9,3.1-14.8,3.7-21.4l12.2,2.6c-1.8,6.1-3.6,12.6-5.2,17.7l9.6-2L701.7,185.3z M700.2,118.3H658v-11.4h42.2V118.3z
			 M697.9,155h-37v-29.4h37V155z M665.6,178.6c-0.1-4.9-1.5-12.8-3.5-18.7l10-2.5c2.2,5.9,3.8,13.4,4.1,18.4L665.6,178.6z
			 M686.7,135.4h-15.4v9.9h15.4V135.4z M725.2,186.2c-5.7,5.3-15.2,10.9-23.3,13.9c-1.8-2.2-5.5-5.8-8.2-8
			c7.9-2.7,16.9-8.1,21.3-12.5L725.2,186.2z M718.9,123.8c0.4-2.3,0.7-4.7,1-7h-17.3v-10.5h50.5v10.5h-19.6c-0.7,2.4-1.5,4.8-2.2,7
			h19.5v55.4h-45.7v-55.4H718.9z M739,133h-22.4v6.6H739V133z M739,148.1h-22.4v6.6H739V148.1z M739,163.4h-22.4v6.7H739V163.4z
			 M739,180.5c5.6,3.7,13.4,9.2,17.5,13l-10,6.6c-3.6-3.8-11.2-9.8-17-13.7L739,180.5z"/>
		<path class="st0" d="M804.1,98.6v104.9h-4.8V98.6H804.1z"/>
		<g>
			<path class="st0" d="M420,134c-0.1,0.9-0.3,1.8-0.5,2.6h16c0,0,0,1.3-0.1,2c-0.5,6.1-1.2,9-2.4,10.2c-1.1,1.1-2.4,1.4-4,1.5
				c-1.4,0.2-3.8,0.2-6.4,0.1c0-1.5-0.7-3.5-1.5-4.9c2.3,0.2,4.4,0.3,5.4,0.3c0.7,0,1.2-0.1,1.7-0.4c0.5-0.5,0.9-1.8,1.3-4.4h-11.2
				c-2,4.2-5.6,7.4-12.7,9.6c-0.5-1.4-2-3.4-3.1-4.5c-0.9,1.9-2,3.5-3.4,5.1c-0.8-1.2-3.1-3.5-4.2-4.3c5.3-6.3,5.8-15.5,5.8-22.5
				v-16c11.3-0.6,24-1.9,31.6-3.6l4.5,4.3c-8.5,1.9-19.8,3.1-30.3,3.6v1.5h30.9v11.8h-13.6c0.5,1,1.1,2.3,1.6,3.4h15v4.6H420z
				 M405.8,134c-0.6,4.1-1.6,8.3-3.4,12c8.8-2.4,10.9-6.4,11.8-12H405.8z M418.8,129.5c-0.3-0.9-0.7-1.8-1.1-2.5l4.8-0.9h-16.1
				c0,1.1-0.1,2.2-0.1,3.4H418.8z M406.4,118.7v2.9h25.2v-2.9H406.4z"/>
			<path class="st0" d="M409.2,158.5c-1,3.2-2.3,6.4-3.7,9.6v34.7h-5.6v-24.6c-1,1.5-2,2.9-3.1,4c-0.4-1.4-1.9-4.8-2.8-6.3
				c3.9-4.6,7.6-11.8,9.7-19L409.2,158.5z M431.2,195.5c3.8,1.3,7.9,2.9,10.4,4.1l-5,3.3c-2.4-1.4-6.5-3.3-10.6-4.7l3.2-2.7h-9.6
				l3.2,2.3c-3.2,2.3-8.2,4-12.5,5c-0.7-1.2-2-3-3.1-4c3.6-0.7,7.7-2,10.4-3.3h-6.9v-18.4h27.9v18.4H431.2z M430.5,163.2v2.1h8.5
				v10.1h-29.1v-10.1h8.1v-2.1h-9V159h31.5v4.2H430.5z M415,172.1h3v-3.3h-3V172.1z M416.1,182.3h16.7v-1.8h-16.7V182.3z
				 M416.1,187.2h16.7v-1.8h-16.7V187.2z M416.1,192.2h16.7v-1.9h-16.7V192.2z M425.8,163.2h-3.2v2.1h3.2V163.2z M422.6,172.1h3.2
				v-3.3h-3.2V172.1z M430.5,168.8v3.3h3.2v-3.3H430.5z"/>
		</g>
	</g>
</g>
</svg>
