<svg id="圖層_3" data-name="圖層 3" xmlns="http://www.w3.org/2000/svg" viewBox="0 0 1440 700"><defs><style>.cls-1{fill:#fff;}.cls-2{fill:#1b4a99;}.cls-3{fill:#a58046;}</style></defs><path class="cls-1" d="M481.63,469.78h-2V419.23h2Z"/><path class="cls-1" d="M543.54,431.31c-.4.45-.89.6-2,.65a42.39,42.39,0,0,1-8.52,5.67l-.3-.31a66.5,66.5,0,0,0,1.44-6.87H503.92c.79,3.79-.05,6.57-1.69,7.93a3.64,3.64,0,0,1-5.55-1.61,4.05,4.05,0,0,1,2.28-5c1.34-1,3.12-3.54,2.83-6h.59a25.23,25.23,0,0,1,1.19,3.18h13.77a5.92,5.92,0,0,1-1-.71,9.34,9.34,0,0,0-2.13-7.28l.25-.25c11.29,0,11.39,6,8.12,8.24h11.19l3.62-3.64Zm-7.33,7.58s4.06,3,6.54,5.16c-.15.55-.7.81-1.44.81h-10a27,27,0,0,1-5.69,12.08C545.07,462,536,471,530,467.76a51.44,51.44,0,0,0-9.71-6.22c-5.1,3.28-12.33,5.66-22.64,7l-.24-.55c8.12-2.33,13.82-5.36,17.73-8.8a93.63,93.63,0,0,0-12.63-4.4c1.29-2.42,3-6.11,4.56-9.9h-9.61l-.4-1.42h10.6a103.24,103.24,0,0,0,4.16-11.37l9.56,2.78c-.15.55-.59,1.06-2.28,1.06-.89,1.92-2.13,4.6-3.56,7.53h7.82a53,53,0,0,0,.5-6.32l10.2,1.82c-.15.81-.74,1.26-1.93,1.26-.15,1.12-.3,2.18-.5,3.24h1Zm-21.3,6c-1.63,3.28-3.37,6.72-5,9.55,3.22.3,6.09.66,8.67,1.06a24.27,24.27,0,0,0,4.55-10.61Z"/><path class="cls-1" d="M587.12,437.73s4,3.38,6.29,5.61c-.15.55-.69.81-1.44.81H577.51v6.92h3l3.12-3.48,6.39,5a3.46,3.46,0,0,1-2,1.11V466c0,.45-3.42,1.87-5.8,1.87H581v-3.54H566.51v1.57c0,.65-3,2.17-5.79,2.17h-1V448.29l7.18,2.78h3.57v-6.92H559c-.64,8.49-3.07,18-11.88,24.46l-.4-.3c4.9-9.45,5.25-21.43,5.25-31.59v-16l8.32,3.34h20.51l3.12-3.54,6.59,5a3.07,3.07,0,0,1-1.94,1.07v9.55c-.09.35-3.71,1.52-6,1.52h-1.29V434.8h-22v1.92c0,1.87,0,3.89-.15,6h11.35v-7.18l8.66.71c-.1.66-.39,1.11-1.63,1.32v5.15h6.09Zm-27.84-12.24v7.89h22v-7.89Zm7.23,27V463H581V452.49Z"/><path class="cls-1" d="M644.57,431.31c-.4.45-.9.6-2,.65a42.1,42.1,0,0,1-8.52,5.67l-.29-.31a66.54,66.54,0,0,0,1.43-6.87H604.94c.79,3.79-.05,6.57-1.68,7.93a3.64,3.64,0,0,1-5.55-1.61,4.05,4.05,0,0,1,2.28-5c1.34-1,3.12-3.54,2.82-6h.6a25.11,25.11,0,0,1,1.18,3.18h13.77a6.88,6.88,0,0,1-1-.71,9.27,9.27,0,0,0-2.13-7.28l.25-.25c11.29,0,11.39,6,8.12,8.24h11.2l3.61-3.64Zm-7.34,7.58s4.07,3,6.54,5.16c-.15.55-.69.81-1.43.81h-10a27,27,0,0,1-5.69,12.08C646.1,462,637,471,631,467.76a51,51,0,0,0-9.7-6.22c-5.11,3.28-12.34,5.66-22.64,7l-.25-.55c8.13-2.33,13.82-5.36,17.73-8.8a92.67,92.67,0,0,0-12.63-4.4c1.29-2.42,3-6.11,4.56-9.9H598.5l-.39-1.42h10.6a105.38,105.38,0,0,0,4.16-11.37l9.56,2.78c-.15.55-.6,1.06-2.28,1.06-.89,1.92-2.13,4.6-3.57,7.53h7.83a55.13,55.13,0,0,0,.49-6.32l10.2,1.82c-.14.81-.74,1.26-1.93,1.26-.15,1.12-.29,2.18-.49,3.24h1Zm-21.29,6c-1.64,3.28-3.37,6.72-5,9.55,3.22.3,6.1.66,8.67,1.06a24.17,24.17,0,0,0,4.56-10.61Z"/><path class="cls-1" d="M675.07,429.44v6.72h8.42l3.22-3.64,6.54,5.16a3.07,3.07,0,0,1-1.94,1.06v22c0,4.65-1.14,7.23-9,7.94-.15-2.33-.4-4-1.24-5s-1.83-1.87-4.51-2.32v-.66s5,.35,6.39.35c.8,0,1-.4,1-1V437.58H659.37V466c0,.8-3.12,2.52-6.14,2.52h-1.14V433.08l7.77,3.08h7.93v-6.72H648.57l-.4-1.42h19.62v-7.58l9.06.71c-.1.7-.39,1.21-1.78,1.46V428h8.42l3.91-5s4.41,3.33,7.13,5.61c-.14.55-.74.81-1.48.81Zm-.4,26.33v9.51c0,.25-2.08,1.36-5.64,1.36h-1.29V455.77h-7.38l-.4-1.41h7.78v-6H661.3l-.4-1.41h11.15a88.5,88.5,0,0,0,1.68-9l7.58,2.12c-.2.61-.79,1-1.88,1a82.4,82.4,0,0,1-5.85,5.92h2.48l2.62-3.19s3,2.18,4.86,3.8c-.15.55-.65.8-1.34.8h-7.53v6h.7l2.92-3.69s3.32,2.53,5.35,4.3c-.15.55-.65.8-1.34.8Zm-12.23-17.44c12.78,2,6.64,11.73,1.68,7.33a13.61,13.61,0,0,0-2.08-7.07Z"/><path class="cls-1" d="M757.54,428.78s2.68,3.08,3.92,5c-.1.56-.6.81-1.24.81H756v26.19c0,4.5-.94,6.92-7.83,7.53-.1-2.07-.34-3.64-1-4.65s-1.58-1.67-3.86-2.12v-.66s4.36.25,5.35.25c.69,0,.94-.2.94-.81v-10c-1.14.71-2.68.51-4-1.06a32.68,32.68,0,0,0-.55-8.79,2.37,2.37,0,0,1-1.24.65v7.69c-.05.35-3,1.41-4.8,1.41h-.69l7.23,2.28c-.2.61-.79,1-1.88,1-1.19,1.36-2.93,3.34-4.61,5.1,2.43-.4,5-.8,7.68-1.21l.05.56a137.62,137.62,0,0,1-15,8.19,1.88,1.88,0,0,1-1.34,1.26l-4-7.13c2.13-.2,6-.7,10.5-1.36.45-2.68.94-6.17,1.19-8.65h-.2V448.9h-3.32v.3c0,.36-1.63,1.27-3.52,1.57,9.51,4,3.42,11.17-.44,7a18.14,18.14,0,0,0-.84-6.88h-.65v-3.59c-.94,1-2.42,1.11-3.76-.3a17.72,17.72,0,0,0-1.09-7.18v26.44c0,.66-2.68,2.22-5,2.22h-1.19V450.62a42.84,42.84,0,0,1-4.56,5.86l-.64-.55c2.72-5.82,4.16-13.75,5-21.13h-4.11l-.4-1.42h4.76V420.59l8,.81c-.1.71-.49,1.21-1.83,1.41v9.51l1.83-3.09s2.87,2.89,4.41,4.76l0,.15h2.82V429h-5.64l-.4-1.41h6V421l7.38.66c0,.56-.34,1-1.38,1.16v4.76h.59l2.63-3.69s3,2.52,4.75,4.29c-.1.56-.59.81-1.29.81h-6.68v5.16l2.37-3.29s1.29,1.06,2.58,2.28h5.3V421.4l8.22.81c-.1.76-.59,1.21-1.78,1.41v8.19Zm-8,5.76h-3.81l.19.2a1.18,1.18,0,0,1-1.28.81h-16.4l-.2-.75h-3.76v3.33a11.37,11.37,0,0,1,4.85,4v-5.26l5.65,2.27h2.72l2.48-2.63,5,3.74c-.15-.75-.34-1.51-.49-2.22l.54-.2a15.84,15.84,0,0,1,4.51,4Zm-11.64,12.94v-6.92h-3.32v6.92Z"/><path class="cls-1" d="M790.72,434.14v1.31c22.14.2,21.3,14.21,13.82,12.39-3.12-3.84-8.87-8.29-13.82-11v7.83c0,.36-2.13,1.82-5.74,1.82h-1.29v-8a40.6,40.6,0,0,1-10.4,7.07l6.83,2.68h14.12l3.12-3.54,6.49,5a3.05,3.05,0,0,1-1.94,1.11v16c0,.41-3.61,1.67-5.94,1.67h-1.24V465h-15v1.22c0,.71-3.08,2.27-6,2.27h-1V445.82a63.84,63.84,0,0,1-8.72,3.33l-.34-.55a42.8,42.8,0,0,0,14.91-14.46H764.62l-.4-1.42h19.47v-4.65c-5.35.31-10.9.41-16,.31l-.1-.76c10.45-1.47,24-4.65,30.91-7.23l6.09,6.32c-.6.5-1.83.55-3.52-.15-3,.4-6.54.8-10.4,1.11v5.05h10.2l3.42-4.29s3.87,2.88,6.24,4.9c-.15.56-.69.81-1.43.81Zm-11,15.47v6h15v-6Zm15,13.95V457h-15v6.52Z"/><path class="cls-2" d="M843.21,463.71H816.75v-6q3.36-2.71,6-5.13c1.78-1.61,3.34-3.14,4.7-4.59a26.58,26.58,0,0,0,3.82-5,9,9,0,0,0,1.18-4.42,5,5,0,0,0-1.5-3.93,5.93,5.93,0,0,0-4.18-1.37,9.55,9.55,0,0,0-2.6.34,20.63,20.63,0,0,0-2.48.89,15.33,15.33,0,0,0-2.1,1.16l-1.31.89h-.7v-8a25.66,25.66,0,0,1,4.77-1.52,26.63,26.63,0,0,1,6.23-.78q6.42,0,9.71,2.92t3.3,8.19a14.59,14.59,0,0,1-1.5,6.38,25.86,25.86,0,0,1-5,6.7q-2.17,2.2-4.23,3.91c-1.37,1.15-2.36,2-3,2.44h15.26Z"/><path class="cls-2" d="M864.31,450.93h-16v-6.87h16Z"/><path class="cls-2" d="M897.18,452.58a12.09,12.09,0,0,1-1,4.91,10.23,10.23,0,0,1-2.87,3.78,13.72,13.72,0,0,1-4.48,2.38,20.78,20.78,0,0,1-6.28.83,31.48,31.48,0,0,1-7.22-.72,25.93,25.93,0,0,1-4.89-1.6v-8h.87a21.85,21.85,0,0,0,4.65,2.23,15,15,0,0,0,4.87.93,18.36,18.36,0,0,0,2.84-.23,5.55,5.55,0,0,0,2.58-1,4.67,4.67,0,0,0,1.32-1.51,5.41,5.41,0,0,0,.49-2.56,3.54,3.54,0,0,0-2.56-3.77,8.9,8.9,0,0,0-2.78-.47c-1.08,0-2,0-2.85,0h-1.55v-6.47h1.43a28.11,28.11,0,0,0,3-.15,7.41,7.41,0,0,0,2.34-.59,3.67,3.67,0,0,0,1.52-1.31,4.14,4.14,0,0,0,.54-2.27,3,3,0,0,0-.51-1.81,3.59,3.59,0,0,0-1.26-1.1,5.82,5.82,0,0,0-2-.59,15.72,15.72,0,0,0-2-.15,12.14,12.14,0,0,0-2.71.32,20.23,20.23,0,0,0-2.68.81,17.13,17.13,0,0,0-2.13,1c-.74.42-1.29.73-1.64.95h-.75v-7.88a30.87,30.87,0,0,1,5-1.56,27.89,27.89,0,0,1,6.45-.76,23.93,23.93,0,0,1,5.57.57,12.85,12.85,0,0,1,4,1.66,7.47,7.47,0,0,1,2.75,2.95,8.58,8.58,0,0,1,.92,4,8.89,8.89,0,0,1-1.77,5.49,8,8,0,0,1-4.68,3.05v.35a12.3,12.3,0,0,1,2.5.66,7.87,7.87,0,0,1,2.38,1.53,7.39,7.39,0,0,1,1.8,2.48A8.41,8.41,0,0,1,897.18,452.58Z"/><path class="cls-1" d="M913.91,439.75c0,9.05-.59,21.08-11.74,28.61l-.44-.3c4.8-8.34,5.15-19,5.15-28.31V424.23l6.58,2.27a169.16,169.16,0,0,0,25.26-5.91l6.34,6.57c-.64.51-1.88.56-3.61-.15a234.54,234.54,0,0,1-27.54.76v3.49h22.14l3.12-3.49,6.59,5a3,3,0,0,1-1.93,1.06v6c-.05.4-3.62,1.67-6,1.67h-1.29V439.7H913.91Zm27.64,2.58s3.56,2.78,5.74,4.75c-.15.56-.69.81-1.38.81H929.16a31.79,31.79,0,0,1-.84,4.95h7.38l3.47-3.23,5.94,4.95a2.76,2.76,0,0,1-1.93.91c-.59,6.27-1.68,9.61-4.16,11.07a11.88,11.88,0,0,1-6.44,1.42c0-1.92-.15-3.59-.94-4.55a7.28,7.28,0,0,0-4.16-2.18v-.55c1.73.15,4.51.3,5.45.3a2.59,2.59,0,0,0,1.44-.3c.74-.56,1.28-2.78,1.68-6.42h-8.12c-1.89,5.61-6.34,10.56-18,14.05l-.4-.61c10.75-6.16,11.29-12.94,11.54-19.81h-6.24l-.4-1.42h13.43a2,2,0,0,1-.45-.25,12.25,12.25,0,0,0-2.47-5.31l.29-.25c9.46-1,9.36,4.2,6.49,5.81h6.69Zm-27.64-9.66v5.61h22.63v-5.61Z"/><path class="cls-1" d="M965.37,469.78h-2V419.23h2Z"/><path class="cls-1" d="M577.6,247.9v-11c8.8.88,20.39,1.32,35.77,1.46.56-6.74.67-12.32.23-14.67,3.23,1.47,10.58,2.06,12.7,1.76,1.56-.29,2.12,1-.11,4-.78,1-2.12,4.7-3.34,9,16.27,0,28.42-.58,37.67-1.46v11c-9.48-1-22.18-1.47-39.23-1.47q-1,5.94-2.34,11.45h8.13c11.15,0,20.73-.3,29.09-1.47V267.7a243.79,243.79,0,0,0-29.2-1.46H616.72c-1.34,4.1-2.79,8.07-4.46,12h21.4a289.69,289.69,0,0,0,31-1.32V288.1c-8.47-.88-15.82-1.32-25.07-1.47,5.34,9.68,16.94,16.87,30.09,17.75a87.91,87.91,0,0,0-5.13,15.11,96.21,96.21,0,0,1-16.94-10.41v28.31a171.73,171.73,0,0,0,1,19.07H638.45v-6H600.89v8.36H591a137.82,137.82,0,0,0,.89-17.17V309.52a163.89,163.89,0,0,1-16.94,16,30.69,30.69,0,0,0-7.58-10.57c12.71-7.92,23.19-17.16,30.76-28.31-9.36.15-16.94.59-25.52,1.47V277a283.79,283.79,0,0,0,30.54,1.32,72.4,72.4,0,0,0,5-12,208.3,208.3,0,0,0-27,1.46V256.41a215,215,0,0,0,29.2,1.47c.78-3.53,1.45-7.49,2-11.45C597.43,246.58,586.18,247,577.6,247.9Zm21.62,52.67c5,.29,12.15.29,20.39.29,7.47,0,13.94-.15,19.06-.29a44.76,44.76,0,0,1-8-13.94H608.14A113.57,113.57,0,0,1,599.22,300.57Zm39.23,20.24V309.37H600.89v11.44Zm-37.56,8.51V341.5h37.56V329.32Z"/><path class="cls-1" d="M714.35,332.55c0,8.8.11,17.16.56,26.11h-9.25c.44-9,.56-17.31.56-26.11V300.27c-3.24,6.17-6.91,12.91-11.15,20.4a50,50,0,0,0-5.13-14.38c6.13-5,13.49-16.29,23.63-41.52H702.31c-3.9,0-7.91.59-10,1.61V253.91c4.35.59,8,.74,16.39.74,9.47,0,13.15-.15,16.94-.74-.78,4.11-1.9,7.63-4.91,15.41-1.78,4.69-3.9,9.54-6.35,14.67Zm-5.79-81.86a62.37,62.37,0,0,0-7.36-17.46l9.81-5.87c3.12,6.31,4.57,9.54,7.24,16ZM722.15,312a74.24,74.24,0,0,0-7.24-17.31l5.46-6.31a101.44,101.44,0,0,1,8.47,18.19ZM758,244.23c-11.48,0-22.62.44-29,1.32V233.08c6.36,1,17.5,1.47,29,1.47s22.4-.44,28.76-1.47v12.47C780.44,244.67,769.63,244.23,758,244.23ZM738.2,349.57v8.65h-8.36c.34-4.69.45-9.09.45-16.87V306.73c0-4-.22-10-.56-14.08,5.24.44,16.61.73,28.2.73s23-.29,28.2-.73c-.45,4.4-.56,10.12-.56,14.08v33.16a146.29,146.29,0,0,0,.56,16.87h-8.47v-7.19Zm19.06-65.73c-9.36,0-17.83.3-22.73.74.22-5.72.33-10.86.33-15.85s-.11-10.12-.33-15.7a223.11,223.11,0,0,0,22.73.88,228.23,228.23,0,0,0,23-.88c-.22,5.58-.33,10.86-.33,15.7s.11,10.13.33,15.85C775.32,284.14,766.62,283.84,757.26,283.84ZM753.47,316V301.74H738.2V316Zm-15.27,8.22v17.16h15.27V324.19Zm34.55-61.62H742v12.91h30.76Zm4.91,53.4V301.74h-16.5V316Zm-16.5,8.22v17.16h16.5V324.19Z"/><path class="cls-1" d="M815.77,298.22V286.34c6,1.17,14.38,1.46,30.1,1.46a157.73,157.73,0,0,0,7.58-27,69.69,69.69,0,0,0,9.8,5.72c1.79.73,1.67,2.2.56,3.67-1.56,2.05-4.9,8.95-8.8,17.6h24.85c16.72,0,25.3-.14,31.54-1.46v11.88c-4.9-1-11.26-1.47-22.18-1.47-3.12,12.62-7.35,22.74-12,29.93a240.54,240.54,0,0,1,31.32,19.51c-2.78,2.35-5.46,6.46-7.8,12-9.92-10-16.61-15-30.65-23-11.7,11.3-25.41,17.75-47.14,23a82.41,82.41,0,0,0-5.58-13.5c17.73-1.31,31.66-5.72,43.36-14.66-13.71-7.49-19.28-10-28.53-12.77a140.3,140.3,0,0,0,10.25-20.54C829,297.05,821.35,297.49,815.77,298.22Zm39.79-71.89a42.24,42.24,0,0,0,9.92-3.52A169.57,169.57,0,0,1,869.83,245c19.5,0,26.08-.3,37.11-1.47v26.84h-9.47V254.5H829.93v15.55h-9.25V243.5c9.58,1.17,17.27,1.47,40.23,1.47A91.35,91.35,0,0,0,855.56,226.33Zm-4.46,70.42c-2.11,5.14-4.23,10.42-6,15,7.13,2.64,13.37,5.57,23.4,10.56,5.13-6.75,8.58-15.7,10.81-25.53Z"/><path class="cls-1" d="M938.37,298.22V286.34c6,1.17,14.38,1.46,30.1,1.46a156.76,156.76,0,0,0,7.57-27,70.36,70.36,0,0,0,9.81,5.72c1.78.73,1.67,2.2.56,3.67-1.56,2.05-4.91,8.95-8.81,17.6h24.86c16.72,0,25.3-.14,31.54-1.46v11.88c-4.9-1-11.26-1.47-22.18-1.47-3.12,12.62-7.36,22.74-12,29.93a240.54,240.54,0,0,1,31.32,19.51c-2.79,2.35-5.46,6.46-7.8,12-9.92-10-16.61-15-30.65-23-11.7,11.3-25.41,17.75-47.14,23a83.3,83.3,0,0,0-5.58-13.5c17.72-1.31,31.66-5.72,43.36-14.66-13.71-7.49-19.28-10-28.53-12.77A140.3,140.3,0,0,0,965,296.75C951.64,297.05,944,297.49,938.37,298.22Zm39.79-71.89a42.24,42.24,0,0,0,9.92-3.52A173,173,0,0,1,992.43,245c19.5,0,26.08-.3,37.11-1.47v26.84h-9.47V254.5H952.53v15.55h-9.25V243.5c9.58,1.17,17.27,1.47,40.23,1.47A91.35,91.35,0,0,0,978.16,226.33Zm-4.46,70.42c-2.11,5.14-4.23,10.42-6,15,7.13,2.64,13.37,5.57,23.4,10.56,5.13-6.75,8.58-15.7,10.81-25.53Z"/><path class="cls-1" d="M410,320.44v9.17h5.07v1.66H408V320.44Z"/><path class="cls-1" d="M421.73,331.27V320.44h2v10.83Z"/><path class="cls-1" d="M435.13,328.62c.2-.58.34-1,.43-1.25s.28-.77.56-1.55l2-5.38h2.1L436,331.27h-1.78L430,320.44h2.11l2,5.38c.28.78.47,1.29.56,1.55s.23.67.43,1.25Z"/><path class="cls-1" d="M448.48,329.61h5.33v1.66H446.5V320.44h7v1.66h-5v2.8h4.32v1.66h-4.32Z"/><path class="cls-1" d="M472.25,331.27h-2V322.1h-3.5v-1.66h9v1.66h-3.49Z"/><path class="cls-1" d="M491.75,325.86a7.16,7.16,0,0,1-.35,2.27,4.94,4.94,0,0,1-1,1.77,4.48,4.48,0,0,1-1.66,1.16,5.63,5.63,0,0,1-2.24.41,5.7,5.7,0,0,1-2.24-.41,4.57,4.57,0,0,1-1.66-1.16,4.92,4.92,0,0,1-1-1.77,7.37,7.37,0,0,1,0-4.55,4.92,4.92,0,0,1,1-1.77,4.57,4.57,0,0,1,1.66-1.16,5.7,5.7,0,0,1,2.24-.42,5.63,5.63,0,0,1,2.24.42,4.48,4.48,0,0,1,1.66,1.16,4.94,4.94,0,0,1,1,1.77A7.17,7.17,0,0,1,491.75,325.86Zm-2.05,0a5.6,5.6,0,0,0-.24-1.73,3.58,3.58,0,0,0-.67-1.24,2.85,2.85,0,0,0-1-.74,3.46,3.46,0,0,0-1.3-.24,3.37,3.37,0,0,0-1.29.24,2.68,2.68,0,0,0-1,.74,3.59,3.59,0,0,0-.68,1.24,6.32,6.32,0,0,0,0,3.45,3.45,3.45,0,0,0,.68,1.23,2.58,2.58,0,0,0,1,.74,3.19,3.19,0,0,0,1.29.25,3.27,3.27,0,0,0,1.3-.25,2.73,2.73,0,0,0,1-.74,3.44,3.44,0,0,0,.67-1.23A5.58,5.58,0,0,0,489.7,325.86Z"/><path class="cls-1" d="M510.19,331.27h-2V322.1h-3.5v-1.66h9v1.66h-3.49Z"/><path class="cls-1" d="M522,324.9h5v-4.46h2v10.83h-2v-4.71h-5v4.71h-2V320.44h2Z"/><path class="cls-1" d="M538.4,329.61h5.33v1.66h-7.31V320.44h7v1.66h-5v2.8h4.33v1.66H538.4Z"/><path class="cls-1" d="M421.84,350.7h5v-4.46h2v10.83h-2v-4.71h-5v4.71h-2V346.24h2Z"/><path class="cls-1" d="M442.45,354.31h-4.08l-1.06,2.76h-2.12l4.3-10.83h1.82l4.3,10.83h-2.1Zm-2.06-5.46c-.38,1.13-.72,2.08-1,2.84l-.37,1h2.8l-.37-1c-.3-.77-.64-1.72-1-2.84Z"/><path class="cls-1" d="M455,352.88h-.53l-.48,0v4.23h-2V346.24h3.13a11,11,0,0,1,1.37.07,5.94,5.94,0,0,1,1.05.2,3.41,3.41,0,0,1,1.71,1.09,2.91,2.91,0,0,1,.6,1.89,3,3,0,0,1-.33,1.42,3,3,0,0,1-.94,1.06,4.67,4.67,0,0,1-1.53.67A7.93,7.93,0,0,1,455,352.88Zm-1-1.71.43,0h.55a6.26,6.26,0,0,0,1.34-.13,2.78,2.78,0,0,0,.88-.36,1.31,1.31,0,0,0,.47-.56,1.72,1.72,0,0,0,.15-.72,1.46,1.46,0,0,0-.22-.82,1.38,1.38,0,0,0-.76-.55,3.59,3.59,0,0,0-.7-.14,10,10,0,0,0-1,0h-1.12Z"/><path class="cls-1" d="M469.72,352.88h-.53l-.48,0v4.23h-2V346.24h3.13a11,11,0,0,1,1.37.07,5.94,5.94,0,0,1,1,.2A3.41,3.41,0,0,1,474,347.6a2.91,2.91,0,0,1,.6,1.89,3.12,3.12,0,0,1-.32,1.42,3.09,3.09,0,0,1-.95,1.06,4.67,4.67,0,0,1-1.53.67A7.93,7.93,0,0,1,469.72,352.88Zm-1-1.71.43,0h.55a6.26,6.26,0,0,0,1.34-.13,2.78,2.78,0,0,0,.88-.36,1.31,1.31,0,0,0,.47-.56,1.72,1.72,0,0,0,.15-.72,1.46,1.46,0,0,0-.22-.82,1.38,1.38,0,0,0-.76-.55,3.59,3.59,0,0,0-.7-.14,10,10,0,0,0-1,0h-1.12Z"/><path class="cls-1" d="M481.49,357.07V346.24h2v10.83Z"/><path class="cls-1" d="M496.52,351.27c.78,1.11,1.41,2.09,1.9,3h.05c-.07-1.41-.1-2.43-.1-3.08v-4.9h2v10.83h-2.08l-3.53-5c-.62-.86-1.26-1.86-1.93-3h-.05c.07,1.33.1,2.36.1,3.09v4.9h-2V346.24H493Z"/><path class="cls-1" d="M509.74,355.41h5.33v1.66h-7.32V346.24h7v1.66h-5v2.8h4.32v1.66h-4.32Z"/><path class="cls-1" d="M527.31,354a1.06,1.06,0,0,0-.2-.66,1.47,1.47,0,0,0-.55-.42,3.66,3.66,0,0,0-.79-.26c-.28-.07-.59-.14-.91-.2s-.82-.21-1.2-.33a3.23,3.23,0,0,1-1-.53,2.32,2.32,0,0,1-.7-.85,3,3,0,0,1-.26-1.3,3.45,3.45,0,0,1,.3-1.49,2.85,2.85,0,0,1,.81-1.05,3.58,3.58,0,0,1,1.21-.63,5.35,5.35,0,0,1,1.56-.21,8.57,8.57,0,0,1,1.74.18,7.57,7.57,0,0,1,1.51.43v1.7a9.44,9.44,0,0,0-1.62-.48,7.68,7.68,0,0,0-1.45-.15,2.65,2.65,0,0,0-1.51.36,1.19,1.19,0,0,0-.53,1.07,1.21,1.21,0,0,0,.17.68,1.42,1.42,0,0,0,.47.44,3.11,3.11,0,0,0,.69.28c.26.07.54.13.83.19.46.1.9.21,1.31.34a3.73,3.73,0,0,1,1.12.53,2.47,2.47,0,0,1,.77.89,3,3,0,0,1,.28,1.39,3.41,3.41,0,0,1-.32,1.52,2.91,2.91,0,0,1-.92,1.05,4.08,4.08,0,0,1-1.45.62,7.8,7.8,0,0,1-1.86.2,8.42,8.42,0,0,1-1.74-.17,4.81,4.81,0,0,1-1.42-.49v-1.68a7.52,7.52,0,0,0,3.13.67,5.64,5.64,0,0,0,.93-.08,2.85,2.85,0,0,0,.81-.26,1.5,1.5,0,0,0,.58-.51A1.32,1.32,0,0,0,527.31,354Z"/><path class="cls-1" d="M541.69,354a1.06,1.06,0,0,0-.2-.66,1.47,1.47,0,0,0-.55-.42,3.57,3.57,0,0,0-.78-.26l-.92-.2q-.63-.15-1.2-.33a3.23,3.23,0,0,1-1-.53,2.32,2.32,0,0,1-.7-.85,3,3,0,0,1-.26-1.3,3.45,3.45,0,0,1,.3-1.49,2.85,2.85,0,0,1,.81-1.05,3.58,3.58,0,0,1,1.21-.63A5.35,5.35,0,0,1,540,346a8.57,8.57,0,0,1,1.74.18,7.38,7.38,0,0,1,1.51.43v1.7a9.19,9.19,0,0,0-1.62-.48,7.6,7.6,0,0,0-1.45-.15,2.65,2.65,0,0,0-1.51.36,1.19,1.19,0,0,0-.53,1.07,1.21,1.21,0,0,0,.17.68,1.52,1.52,0,0,0,.47.44,3.11,3.11,0,0,0,.69.28c.26.07.54.13.83.19.46.1.9.21,1.31.34a3.73,3.73,0,0,1,1.12.53,2.47,2.47,0,0,1,.77.89,3,3,0,0,1,.28,1.39,3.41,3.41,0,0,1-.32,1.52,2.91,2.91,0,0,1-.92,1.05,4.08,4.08,0,0,1-1.45.62,7.74,7.74,0,0,1-1.86.2,8.42,8.42,0,0,1-1.74-.17,4.81,4.81,0,0,1-1.42-.49v-1.68a7.61,7.61,0,0,0,3.14.67,5.62,5.62,0,0,0,.92-.08,2.85,2.85,0,0,0,.81-.26,1.44,1.44,0,0,0,.58-.51A1.32,1.32,0,0,0,541.69,354Z"/><path class="cls-3" d="M519,267.16l-.76-.13.69.35A1.87,1.87,0,0,1,519,267.16Z"/><path class="cls-3" d="M490.65,267.13l.09.33,1-.49Z"/><path class="cls-3" d="M505,276.63c0,.26-.09.54-.13.8l.25,0Z"/><path class="cls-3" d="M496.83,251.4l-.55-1.09-.3.22Z"/><path class="cls-3" d="M513.21,251.44l.73-.73-.26-.18Z"/><path class="cls-3" d="M540.76,269.05a11.32,11.32,0,0,1-3.26,9.88,8,8,0,0,1,.67,1.52,12.87,12.87,0,0,0,4-12.23A7.22,7.22,0,0,1,540.76,269.05Z"/><path class="cls-3" d="M509.94,298.6a11.17,11.17,0,0,1-10.46.15,7,7,0,0,1-1.26,1.08,12.8,12.8,0,0,0,6.32,1.71,12.55,12.55,0,0,0,1.93-.15,12.84,12.84,0,0,0,4.68-1.66A8,8,0,0,1,509.94,298.6Z"/><path class="cls-3" d="M479.44,236.45a11.22,11.22,0,0,1,8.84-6.44,6.83,6.83,0,0,1,.46-1.61,12.82,12.82,0,0,0-11,7.95A7.38,7.38,0,0,1,479.44,236.45Z"/><path class="cls-3" d="M522.07,230.36a11.07,11.07,0,0,1,8.53,6.41,7.1,7.1,0,0,1,1.69-.14,12.85,12.85,0,0,0-10.64-7.9A7.34,7.34,0,0,1,522.07,230.36Z"/><path class="cls-3" d="M472.26,278.68a11.29,11.29,0,0,1-3.51-10.19,8.17,8.17,0,0,1-1.42-.95,12.87,12.87,0,0,0,4.28,12.66A7.1,7.1,0,0,1,472.26,278.68Z"/><path class="cls-3" d="M504.16,261.9A80.92,80.92,0,0,1,501,250.69a79.35,79.35,0,0,1-1.62-11.54,88,88,0,0,1,4.77,22.75Z"/><path class="cls-3" d="M501.35,239.17a1.83,1.83,0,1,1-1.82-1.84A1.84,1.84,0,0,1,501.35,239.17Z"/><path class="cls-3" d="M505.55,261.91a80.49,80.49,0,0,1,1.81-11.5,78.94,78.94,0,0,1,3.34-11.16,87.61,87.61,0,0,1-5.15,22.66Z"/><path class="cls-3" d="M508.74,239.23a1.83,1.83,0,1,0,1.84-1.81A1.82,1.82,0,0,0,508.74,239.23Z"/><path class="cls-3" d="M503.73,263.15a82.06,82.06,0,0,1-11.64-.47,80.57,80.57,0,0,1-11.47-2,80.66,80.66,0,0,1,11.64.46A82,82,0,0,1,503.73,263.15Z"/><path class="cls-3" d="M481.24,258.8a1.82,1.82,0,1,1-2.31,1.15A1.82,1.82,0,0,1,481.24,258.8Z"/><path class="cls-3" d="M504.17,261.83a80.93,80.93,0,0,1-10.38-5.28,80,80,0,0,1-9.58-6.62,80.3,80.3,0,0,1,10.38,5.28A81.68,81.68,0,0,1,504.17,261.83Z"/><path class="cls-3" d="M483.58,251.78a1.82,1.82,0,1,0,1.16-3.46,1.82,1.82,0,0,0-1.16,3.46Z"/><path class="cls-3" d="M504.78,263.94a86.39,86.39,0,0,1-9.51,21.21,81.07,81.07,0,0,1,4-10.92A82.49,82.49,0,0,1,504.78,263.94Z"/><path class="cls-3" d="M493.69,284a1.83,1.83,0,1,1,.39,2.55A1.83,1.83,0,0,1,493.69,284Z"/><path class="cls-3" d="M503.67,263.12a83.24,83.24,0,0,1-8.24,8.24,81.41,81.41,0,0,1-9.26,7.07,85.92,85.92,0,0,1,17.5-15.31Z"/><path class="cls-3" d="M487.75,279.59a1.83,1.83,0,1,0-2.56.38A1.84,1.84,0,0,0,487.75,279.59Z"/><path class="cls-3" d="M505.86,263.19a79,79,0,0,1,9.14,7.22,80.13,80.13,0,0,1,8.09,8.38,81.25,81.25,0,0,1-9.14-7.22A83.23,83.23,0,0,1,505.86,263.19Z"/><path class="cls-3" d="M521.5,279.92a1.82,1.82,0,1,1,2.55.43A1.81,1.81,0,0,1,521.5,279.92Z"/><path class="cls-3" d="M504.73,264a82.47,82.47,0,0,1,5.3,10.38,81.59,81.59,0,0,1,3.86,11,79.74,79.74,0,0,1-5.3-10.37A81.73,81.73,0,0,1,504.73,264Z"/><path class="cls-3" d="M515.48,284.22a1.82,1.82,0,1,0-.43,2.55A1.83,1.83,0,0,0,515.48,284.22Z"/><path class="cls-3" d="M505.48,261.93a80.88,80.88,0,0,1,9.69-6.47,79.77,79.77,0,0,1,10.47-5.1,87.58,87.58,0,0,1-20.16,11.57Z"/><path class="cls-3" d="M526.23,252.23a1.83,1.83,0,1,1,1.19-2.29A1.84,1.84,0,0,1,526.23,252.23Z"/><path class="cls-3" d="M505.89,263.25A87.24,87.24,0,0,1,529,261.14a79.32,79.32,0,0,1-11.5,1.84A83.77,83.77,0,0,1,505.89,263.25Z"/><path class="cls-3" d="M528.45,259.28a1.82,1.82,0,1,0,2.29,1.19A1.83,1.83,0,0,0,528.45,259.28Z"/><path class="cls-3" d="M536.71,270.35a9.21,9.21,0,0,0,6.15-2,7.55,7.55,0,0,0,2.65-5.51c.13-3.46-2.11-7.36-5.72-10a2.2,2.2,0,0,1-.75-2.36c1.47-4.19,1.06-8.68-1-11.44a7.58,7.58,0,0,0-5.34-3c-1.77-.17-4.61.29-7.85,3.28-2.32,2.15-6.06,5.81-9.6,9.3,2.29-4.37,4.66-9,6-11.79,1.93-4,1.53-6.81.85-8.47a7.55,7.55,0,0,0-4.43-4.23c-3.24-1.18-7.65-.26-11.23,2.37a2.2,2.2,0,0,1-2.47,0c-3.54-2.69-7.93-3.7-11.2-2.56a7.52,7.52,0,0,0-4.49,4.15c-.71,1.66-1.16,4.48.7,8.49,1.32,2.86,3.64,7.55,5.87,12-3.45-3.52-7.09-7.2-9.35-9.36-3.19-3.06-6-3.58-7.81-3.42a7.54,7.54,0,0,0-5.38,2.9c-2.13,2.72-2.61,7.2-1.22,11.42a2.18,2.18,0,0,1-.78,2.34c-3.65,2.53-6,6.4-5.89,9.86a7.51,7.51,0,0,0,2.56,5.56,9.36,9.36,0,0,0,6.35,2.07,17.08,17.08,0,0,0,1.94-.12c3.13-.37,8.3-1.13,13.21-1.88-4.42,2.2-9,4.52-11.8,6-3.89,2.09-5.23,4.61-5.66,6.36a7.55,7.55,0,0,0,1.09,6c1.92,2.86,6,4.69,10.4,4.69h.1a2.15,2.15,0,0,1,2,1.47c1.28,4.25,4.25,7.65,7.56,8.65a7.84,7.84,0,0,0,2.24.33,7.39,7.39,0,0,0,3.84-1.05c1.54-.93,3.56-2.94,4.42-7.28.61-3.09,1.48-8.25,2.29-13.14.72,4.87,1.51,10,2.06,13.07.79,4.35,2.77,6.4,4.3,7.36a7.5,7.5,0,0,0,3.94,1.11,7.7,7.7,0,0,0,2.12-.3c3.33-.94,6.35-4.29,7.7-8.52a2.2,2.2,0,0,1,2-1.44h.39c4.31,0,8.28-1.76,10.2-4.52a7.59,7.59,0,0,0,1.2-6c-.4-1.76-1.7-4.3-5.55-6.45-2.76-1.54-7.39-4-11.8-6.25,4.86.82,10,1.66,13.07,2.08A15.63,15.63,0,0,0,536.71,270.35Zm-11.18-30.18c2.35-2.17,4.79-3.19,7.06-3a6.49,6.49,0,0,1,4.59,2.58c1.89,2.49,2.23,6.59.88,10.46a3.21,3.21,0,0,0,1.12,3.56c3.33,2.39,5.41,5.94,5.29,9.06a6.5,6.5,0,0,1-2.28,4.75c-1.75,1.47-4.35,2-7.51,1.59-6.75-.93-23-3.8-25.5-4.24l-1.42-4.48H509l.15-.28c0-.08,2-3.81,4.45-8.41C517.73,247.68,522.7,242.8,525.53,240.17Zm-35.61-4c-1.34-2.9-1.57-5.54-.68-7.64a6.52,6.52,0,0,1,3.87-3.58c3-1,7-.08,10.22,2.41a3.2,3.2,0,0,0,3.73,0c3.3-2.42,7.33-3.3,10.25-2.22a6.48,6.48,0,0,1,3.82,3.64c.86,2.11.58,4.75-.81,7.62-3,6.14-10.74,20.75-11.92,22.95l-4.7,0,.41-1.2-.22-.23c-.06-.06-3-3.11-6.63-6.83C494.65,245.93,491.54,239.7,489.92,236.2Zm-14.78,32.64c-3.18.37-5.76-.22-7.48-1.71a6.5,6.5,0,0,1-2.2-4.79c-.07-3.12,2.07-6.64,5.44-9a3.2,3.2,0,0,0,1.18-3.53c-1.29-3.9-.87-8,1.05-10.44a6.52,6.52,0,0,1,4.64-2.51l.44,0c2.15,0,4.41,1.08,6.56,3.15,4.92,4.71,16.41,16.62,18.15,18.42l-2.21,6.6C498.24,265.42,481.9,268,475.14,268.84ZM501.61,293c-.62,3.13-2,5.41-3.93,6.59a6.52,6.52,0,0,1-5.24.61c-3-.9-5.68-4-6.86-7.95a3.19,3.19,0,0,0-3-2.21h-.1c-4.07,0-7.8-1.66-9.52-4.23a6.5,6.5,0,0,1-1-5.19c.55-2.21,2.33-4.18,5.14-5.68,3.38-1.82,9.56-4.9,14.72-7.45,5.1-.79,9.21-1.45,9.3-1.46l.31-.05.46-1.38,3.93,2.91C505.5,270,502.93,286.3,501.61,293Zm31.15-17.71c2.78,1.55,4.53,3.55,5,5.77a6.59,6.59,0,0,1-1,5.18c-1.73,2.49-5.37,4.06-9.34,4.06H527a3.21,3.21,0,0,0-3,2.16c-1.25,3.91-4,7-7,7.83a6.53,6.53,0,0,1-5.23-.69c-1.93-1.21-3.26-3.51-3.82-6.66-.68-3.77-1.7-10.59-2.53-16.29.82-5.09,1.47-9.21,1.48-9.3l0-.31-4.71-3.48,1.05-3.14,3.31,0,1.71,5.41.3.05c.09,0,4.25.76,9.39,1.64C523.21,270.17,529.39,273.39,532.76,275.27Z"/><path class="cls-3" d="M512.21,262.75a7.31,7.31,0,1,1-7.25-7.37A7.32,7.32,0,0,1,512.21,262.75Z"/></svg>