<?xml version="1.0" encoding="utf-8"?>
<!-- Generator: Adobe Illustrator 26.5.0, SVG Export Plug-In . SVG Version: 6.00 Build 0)  -->
<svg version="1.1" id="圖層_1" xmlns="http://www.w3.org/2000/svg" xmlns:xlink="http://www.w3.org/1999/xlink" x="0px" y="0px"
	 viewBox="0 0 1125 2436" style="enable-background:new 0 0 1125 2436;" xml:space="preserve">
<style type="text/css">
	.st0{fill:#FFFFFF;}
	.st1{fill:#A18046;}
	.st2{fill:none;stroke:#FFFFFF;stroke-width:2;stroke-miterlimit:10;}
	.st3{fill:#FFF000;}
</style>
<g>
	<path class="st0" d="M294.5,988.3v-13.2c10.6,1.1,24.5,1.6,43,1.8c0.7-8.1,0.8-14.8,0.3-17.6c3.9,1.8,12.7,2.5,15.3,2.1
		c1.9-0.4,2.5,1.2-0.1,4.8c-0.9,1.2-2.5,5.6-4,10.8c19.5,0,34.1-0.7,45.3-1.8v13.2c-11.4-1.2-26.6-1.8-47.1-1.8
		c-0.8,4.8-1.7,9.3-2.8,13.7h9.8c13.4,0,24.9-0.3,35-1.8v13.6c-11.6-1.3-23.4-1.9-35.1-1.8h-12.4c-1.6,4.9-3.4,9.7-5.4,14.5h25.7
		c12.4,0.1,24.9-0.4,37.2-1.6v13.4c-10.2-1.1-19-1.6-30.1-1.8c6.4,11.6,20.4,20.3,36.1,21.3c-2.6,5.9-4.6,11.9-6.1,18.1
		c-7.2-3.5-14-7.6-20.4-12.5v34c0,7.7,0.4,15.3,1.2,22.9h-12.2v-7.2h-45.1v10h-11.9c0.8-6.8,1.1-13.7,1.1-20.6v-38.5
		c-6.3,6.9-13.1,13.3-20.4,19.2c-2.1-4.8-5.2-9.2-9.1-12.7c15.3-9.5,27.9-20.6,37-34c-11.2,0.2-20.4,0.7-30.7,1.8v-13.4
		c12.2,1.2,24.4,1.7,36.7,1.6c2.4-4.6,4.4-9.5,6-14.5c-10.8-0.1-21.6,0.5-32.4,1.8v-13.6c11.6,1.4,23.4,2,35.1,1.8
		c0.9-4.2,1.7-9,2.4-13.7C318.4,986.7,304.8,987.2,294.5,988.3z M320.5,1051.6c6,0.3,14.6,0.3,24.5,0.3c9,0,16.7-0.2,22.9-0.3
		c-4.2-5-7.5-10.6-9.6-16.7h-27.1C328.1,1040.6,324.5,1046.2,320.5,1051.6L320.5,1051.6z M367.6,1075.9v-13.8h-45.1v13.8H367.6z
		 M322.5,1086.1v14.6h45.1v-14.6H322.5z"/>
	<path class="st0" d="M458.8,1090c0,10.6,0.1,20.6,0.7,31.4h-11.1c0.5-10.8,0.7-20.8,0.7-31.4v-38.8c-3.9,7.4-8.3,15.5-13.4,24.5
		c-1.2-6-3.2-11.9-6.2-17.3c7.4-6,16.2-19.6,28.4-49.9h-13.5c-4.7,0-9.5,0.7-12,1.9v-15c5.2,0.7,9.6,0.9,19.7,0.9
		c11.4,0,15.8-0.2,20.4-0.9c-0.9,4.9-2.3,9.2-5.9,18.5c-2.1,5.6-4.7,11.5-7.6,17.6V1090z M451.8,991.6c-1.8-7.4-4.8-14.5-8.8-21
		l11.8-7c3.8,7.6,5.5,11.5,8.7,19.2L451.8,991.6z M468.1,1065.3c-2-7.3-4.9-14.3-8.7-20.8l6.6-7.6c4.1,6.9,7.5,14.3,10.2,21.9
		L468.1,1065.3z M511.3,983.9c-13.8,0-27.2,0.5-34.8,1.6v-15c7.6,1.2,21,1.8,34.8,1.8s26.9-0.5,34.5-1.8v15
		C538.2,984.4,525.2,983.9,511.3,983.9L511.3,983.9z M487.5,1110.4v10.4h-10c0.4-5.6,0.5-10.9,0.5-20.3V1059c0-4.8-0.3-12-0.7-16.9
		c6.3,0.5,20,0.9,33.9,0.9c13.9,0,27.6-0.3,33.9-0.9c-0.5,5.3-0.7,12.2-0.7,16.9v39.8c0,9.3,0,13.9,0.7,20.3h-10.2v-8.7H487.5z
		 M510.3,1031.4c-11.2,0-21.4,0.3-27.3,0.9c0.3-6.9,0.4-13,0.4-19c0-5.8-0.1-12.2-0.4-18.9c9.1,0.8,18.2,1.2,27.3,1.1
		c11.2,0,21.6-0.4,27.6-1.1c-0.3,6.7-0.4,13-0.4,18.9c0,6,0.1,12.2,0.4,19C532,1031.8,521.6,1031.5,510.3,1031.4L510.3,1031.4z
		 M505.8,1070V1053h-18.3v17.1L505.8,1070z M487.5,1079.9v20.6h18.3v-20.6L487.5,1079.9z M529,1005.9h-37v15.5h37L529,1005.9z
		 M534.8,1070V1053H515v17.1L534.8,1070z M515,1079.9v20.6h19.8v-20.6H515z"/>
	<path class="st0" d="M580.6,1048.7v-14.3c7.2,1.4,17.3,1.8,36.2,1.8c4-10.5,7-21.4,9.1-32.4c3.7,2.6,7.7,4.9,11.8,6.9
		c2.1,0.9,2,2.7,0.7,4.4c-1.9,2.5-5.9,10.8-10.6,21.2h29.9c20.1,0,30.4-0.2,37.9-1.8v14.3c-5.9-1.2-13.5-1.8-26.7-1.8
		c-3.8,15.2-8.8,27.3-14.5,36c13.1,6.8,25.7,14.7,37.6,23.4c-3.3,2.8-6.6,7.8-9.4,14.4c-11.9-12-20-18-36.8-27.7
		c-14,13.6-30.5,21.3-56.6,27.7c-1.8-5.6-4-11-6.7-16.2c21.3-1.6,38-6.9,52.1-17.6c-16.5-9-23.2-12-34.3-15.3
		c4.8-7.9,8.9-16.1,12.3-24.7C596.6,1047.4,587.3,1047.9,580.6,1048.7z M628.4,962.4c4.1-0.9,8.1-2.3,11.9-4.2
		c2.3,8.7,4.1,17.6,5.2,26.6c23.4,0,31.3-0.4,44.6-1.8v32.2h-11.4v-19h-81.1v18.7h-11.1V983c11.5,1.4,20.8,1.8,48.3,1.8
		C633.5,977.1,631.4,969.6,628.4,962.4z M623.1,1047c-2.5,6.2-5.1,12.5-7.2,18c8.6,3.2,16.1,6.7,28.1,12.7
		c6.2-8.1,10.3-18.8,13-30.7L623.1,1047z"/>
	<path class="st0" d="M727.9,1048.7v-14.3c7.2,1.4,17.3,1.8,36.2,1.8c4-10.5,7-21.4,9.1-32.4c3.7,2.6,7.7,4.9,11.8,6.9
		c2.1,0.9,2,2.7,0.7,4.4c-1.9,2.5-5.9,10.8-10.6,21.2h29.8c20.1,0,30.4-0.2,37.9-1.8v14.3c-5.9-1.2-13.5-1.8-26.6-1.8
		c-3.8,15.2-8.8,27.3-14.5,35.9c13.1,6.8,25.7,14.7,37.6,23.5c-3.3,2.8-6.6,7.8-9.4,14.4c-11.9-12-20-18-36.8-27.7
		c-14.1,13.6-30.5,21.3-56.6,27.7c-1.8-5.6-4-11-6.7-16.2c21.3-1.6,38-6.9,52.1-17.6c-16.5-9-23.2-12-34.3-15.3
		c4.8-7.9,8.9-16.1,12.3-24.7C743.8,1047.4,734.6,1047.9,727.9,1048.7z M775.7,962.4c4.1-0.9,8.1-2.3,11.9-4.2
		c2.3,8.7,4.1,17.6,5.2,26.6c23.4,0,31.3-0.4,44.6-1.8v32.2h-11.4v-19h-81.1v18.7h-11.1V983c11.5,1.4,20.8,1.8,48.3,1.8
		C780.8,977.1,778.6,969.6,775.7,962.4z M770.4,1047c-2.5,6.2-5.1,12.5-7.2,18c8.6,3.2,16.1,6.7,28.1,12.7
		c6.2-8.1,10.3-18.8,13-30.7L770.4,1047z"/>
	<path class="st0" d="M366.9,1150.5v13.2h7.3v2.4H364v-15.6H366.9z"/>
	<path class="st0" d="M383.8,1166.1v-15.6h2.9v15.6H383.8z"/>
	<path class="st0" d="M403.1,1162.3c0.3-0.8,0.5-1.5,0.6-1.8l0.8-2.2l2.9-7.8h3l-6.1,15.6h-2.6l-6.1-15.6h3l2.9,7.8l0.8,2.2
		c0.1,0.4,0.3,1,0.6,1.8H403.1z"/>
	<path class="st0" d="M422.3,1163.7h7.7v2.4h-10.5v-15.6h10.1v2.4h-7.3v4h6.2v2.4h-6.2L422.3,1163.7z"/>
	<path class="st0" d="M456.5,1166.1h-2.9v-13.2h-5v-2.4h12.9v2.4h-5L456.5,1166.1z"/>
	<path class="st0" d="M484.6,1158.3c0,1.1-0.2,2.2-0.5,3.3c-0.3,1-0.8,1.8-1.5,2.6c-0.7,0.7-1.5,1.3-2.4,1.7c-2.1,0.8-4.4,0.8-6.5,0
		c-0.9-0.4-1.7-0.9-2.4-1.7c-0.7-0.7-1.2-1.6-1.5-2.6c-0.7-2.1-0.7-4.4,0-6.5c0.3-0.9,0.8-1.8,1.5-2.6c0.7-0.7,1.5-1.3,2.4-1.7
		c2.1-0.8,4.4-0.8,6.5,0c0.9,0.4,1.7,0.9,2.4,1.7c0.7,0.7,1.2,1.6,1.5,2.6C484.5,1156.1,484.7,1157.2,484.6,1158.3z M481.7,1158.3
		c0-0.8-0.1-1.7-0.4-2.5c-0.2-0.7-0.6-1.3-1-1.8c-0.4-0.5-0.9-0.8-1.5-1.1c-1.2-0.5-2.5-0.5-3.7,0c-0.6,0.2-1.1,0.6-1.5,1.1
		c-0.4,0.5-0.8,1.1-1,1.8c-0.5,1.6-0.5,3.4,0,5c0.2,0.7,0.6,1.3,1,1.8c0.4,0.5,0.9,0.8,1.5,1.1c1.2,0.5,2.5,0.5,3.7,0
		c0.6-0.2,1.1-0.6,1.5-1.1c0.5-0.5,0.8-1.1,1-1.8C481.6,1160,481.7,1159.1,481.7,1158.3L481.7,1158.3z"/>
	<path class="st0" d="M511.2,1166.1h-2.9v-13.2h-5v-2.4h12.9v2.4h-5L511.2,1166.1z"/>
	<path class="st0" d="M528.2,1156.9h7.2v-6.4h2.9v15.6h-2.9v-6.8h-7.2v6.8h-2.8v-15.6h2.8V1156.9z"/>
	<path class="st0" d="M551.9,1163.7h7.7v2.4H549v-15.6h10.1v2.4h-7.2v4h6.2v2.4h-6.2V1163.7z"/>
	<path class="st0" d="M585.4,1156.9h7.2v-6.4h2.9v15.6h-2.9v-6.8h-7.2v6.8h-2.8v-15.6h2.8V1156.9z"/>
	<path class="st0" d="M615.1,1162.1h-5.9l-1.5,4h-3l6.2-15.6h2.6l6.2,15.6h-3L615.1,1162.1z M612.1,1154.2c-0.5,1.6-1,3-1.5,4.1
		l-0.5,1.4h4l-0.5-1.4C613.1,1157.2,612.7,1155.9,612.1,1154.2L612.1,1154.2z"/>
	<path class="st0" d="M633.1,1160h-0.8c-0.2,0-0.5,0-0.7,0v6.1h-2.8v-15.7h4.5c0.7,0,1.3,0,2,0.1c0.5,0.1,1,0.1,1.5,0.3
		c1,0.3,1.8,0.8,2.5,1.6c0.6,0.8,0.9,1.7,0.9,2.7c0,0.7-0.1,1.4-0.5,2c-0.3,0.6-0.8,1.1-1.4,1.5c-0.7,0.5-1.4,0.8-2.2,1
		C635.1,1159.9,634.1,1160.1,633.1,1160z M631.6,1157.6c0.2,0,0.4,0,0.6,0.1h0.8c0.6,0,1.3,0,1.9-0.2c0.4-0.1,0.9-0.3,1.3-0.5
		c0.3-0.2,0.5-0.5,0.7-0.8c0.1-0.3,0.2-0.7,0.2-1c0-0.4-0.1-0.8-0.3-1.2c-0.3-0.4-0.7-0.7-1.1-0.8c-0.3-0.1-0.7-0.2-1-0.2
		c-0.4,0-0.9-0.1-1.5-0.1h-1.6L631.6,1157.6z"/>
	<path class="st0" d="M654.4,1160h-0.8c-0.2,0-0.5,0-0.7,0v6.1h-2.9v-15.7h4.5c0.7,0,1.3,0,2,0.1c0.5,0.1,1,0.1,1.5,0.3
		c1,0.3,1.8,0.8,2.5,1.6c1,1.4,1.1,3.2,0.4,4.8c-0.3,0.6-0.8,1.1-1.4,1.5c-0.7,0.5-1.4,0.8-2.2,1
		C656.4,1160,655.4,1160.1,654.4,1160z M652.9,1157.6c0.2,0,0.4,0,0.6,0.1h0.8c0.7,0,1.3,0,1.9-0.2c0.4-0.1,0.9-0.3,1.3-0.5
		c0.3-0.2,0.5-0.5,0.7-0.8c0.1-0.3,0.2-0.7,0.2-1c0-0.4-0.1-0.8-0.3-1.2c-0.3-0.4-0.6-0.7-1.1-0.8c-0.3-0.1-0.7-0.2-1-0.2
		c-0.4,0-0.9-0.1-1.5-0.1h-1.6L652.9,1157.6z"/>
	<path class="st0" d="M671.3,1166.1v-15.6h2.9v15.6H671.3z"/>
	<path class="st0" d="M693,1157.7c1.1,1.6,2,3,2.7,4.2h0.1c-0.1-2-0.1-3.5-0.1-4.4v-7.1h2.9v15.6h-3l-5.1-7.2
		c-0.9-1.2-1.8-2.7-2.8-4.3h-0.1c0.1,1.9,0.1,3.4,0.1,4.4v7.1h-2.9v-15.6h3L693,1157.7z"/>
	<path class="st0" d="M712,1163.7h7.7v2.4h-10.5v-15.6h10.1v2.4H712v4h6.2v2.4H712V1163.7z"/>
	<path class="st0" d="M737.3,1161.6c0-0.4-0.1-0.7-0.3-1c-0.2-0.3-0.5-0.5-0.8-0.6c-0.4-0.2-0.7-0.3-1.1-0.4
		c-0.4-0.1-0.8-0.2-1.3-0.3c-0.6-0.1-1.2-0.3-1.7-0.5c-0.5-0.2-1-0.4-1.5-0.8c-0.4-0.3-0.8-0.7-1-1.2c-0.3-0.6-0.4-1.2-0.4-1.9
		c0-0.7,0.1-1.5,0.4-2.2c0.3-0.6,0.7-1.1,1.2-1.5c0.5-0.4,1.1-0.7,1.7-0.9c0.7-0.2,1.5-0.3,2.2-0.3c0.8,0,1.7,0.1,2.5,0.2
		c0.7,0.1,1.5,0.3,2.2,0.6v2.4c-0.7-0.3-1.5-0.5-2.3-0.7c-0.7-0.1-1.4-0.2-2.1-0.2c-0.8,0-1.5,0.1-2.2,0.5c-0.5,0.3-0.8,0.9-0.8,1.5
		c0,0.4,0.1,0.7,0.2,1c0.2,0.3,0.4,0.5,0.7,0.6c0.3,0.2,0.6,0.3,1,0.4c0.4,0.1,0.8,0.2,1.2,0.3c0.7,0.1,1.3,0.3,1.9,0.5
		c0.6,0.2,1.1,0.4,1.6,0.8c0.5,0.3,0.8,0.8,1.1,1.3c0.3,0.6,0.4,1.3,0.4,2c0,0.8-0.1,1.5-0.5,2.2c-0.3,0.6-0.8,1.1-1.3,1.5
		c-0.6,0.4-1.3,0.7-2.1,0.9c-0.9,0.2-1.8,0.3-2.7,0.3c-0.8,0-1.7-0.1-2.5-0.2c-0.7-0.1-1.4-0.4-2-0.7v-2.4c0.7,0.3,1.5,0.6,2.2,0.7
		c0.7,0.1,1.5,0.2,2.3,0.2c0.4,0,0.9,0,1.3-0.1c0.4-0.1,0.8-0.2,1.2-0.4c0.3-0.2,0.6-0.4,0.8-0.7
		C737.2,1162.4,737.4,1162,737.3,1161.6z"/>
	<path class="st0" d="M758.1,1161.6c0-0.4-0.1-0.7-0.3-1c-0.2-0.3-0.5-0.5-0.8-0.6c-0.4-0.2-0.7-0.3-1.1-0.4
		c-0.4-0.1-0.8-0.2-1.3-0.3c-0.6-0.1-1.2-0.3-1.7-0.5c-0.5-0.2-1-0.4-1.5-0.8c-0.4-0.3-0.8-0.7-1-1.2c-0.3-0.6-0.4-1.2-0.4-1.9
		c0-0.7,0.1-1.5,0.4-2.2c0.3-0.6,0.7-1.1,1.2-1.5c0.5-0.4,1.1-0.7,1.7-0.9c0.7-0.2,1.5-0.3,2.2-0.3c0.8,0,1.7,0.1,2.5,0.2
		c0.7,0.1,1.5,0.3,2.2,0.6v2.4c-0.8-0.3-1.5-0.5-2.3-0.7c-0.7-0.1-1.4-0.2-2.1-0.2c-0.8,0-1.5,0.1-2.2,0.5c-0.5,0.3-0.8,0.9-0.8,1.5
		c0,0.4,0.1,0.7,0.2,1c0.2,0.3,0.4,0.5,0.7,0.6c0.3,0.2,0.7,0.3,1,0.4c0.4,0.1,0.8,0.2,1.2,0.3c0.6,0.1,1.3,0.3,1.9,0.5
		c0.6,0.2,1.1,0.4,1.6,0.8c0.5,0.3,0.9,0.8,1.1,1.3c0.3,0.6,0.4,1.3,0.4,2c0,0.8-0.1,1.5-0.5,2.2c-0.3,0.6-0.8,1.1-1.3,1.5
		c-0.6,0.4-1.3,0.7-2.1,0.9c-0.9,0.2-1.8,0.3-2.7,0.3c-0.8,0-1.7-0.1-2.5-0.2c-0.7-0.1-1.4-0.4-2-0.7v-2.4c0.7,0.3,1.5,0.6,2.3,0.7
		c0.7,0.1,1.5,0.2,2.3,0.2c0.4,0,0.9,0,1.3-0.1c0.4-0.1,0.8-0.2,1.2-0.4c0.3-0.2,0.6-0.4,0.8-0.7
		C758,1162.4,758.1,1162,758.1,1161.6z"/>
	<path class="st1" d="M597.9,842.5l-1.9-0.3l1.7,0.9C597.8,842.9,597.9,842.7,597.9,842.5z"/>
	<path class="st1" d="M526.3,842.5c0.1,0.3,0.2,0.5,0.2,0.8l2.5-1.2L526.3,842.5z"/>
	<path class="st1" d="M562.5,866.4l-0.3,2c0.2,0,0.4,0,0.6,0C562.7,867.8,562.6,867.1,562.5,866.4z"/>
	<path class="st1" d="M542,802.7l-1.4-2.7c-0.2,0.2-0.5,0.4-0.8,0.6L542,802.7z"/>
	<path class="st1" d="M583.3,802.8l1.8-1.8l-0.6-0.5C584.1,801.3,583.7,802.1,583.3,802.8z"/>
	<path class="st1" d="M652.9,847.3c1.5,9.2-1.6,18.5-8.2,24.9c0.7,1.2,1.3,2.5,1.7,3.8c8.7-7.7,12.5-19.5,10.2-30.9
		C655.4,846,654.2,846.7,652.9,847.3z"/>
	<path class="st1" d="M575.1,921.9c-8.2,4.5-18.1,4.6-26.4,0.4c-1,1-2,1.9-3.2,2.7c4.8,2.8,10.3,4.3,16,4.4c1.6,0,3.3-0.1,4.9-0.4
		c4.2-0.6,8.2-2,11.8-4.2C577,923.9,576,923,575.1,921.9z"/>
	<path class="st1" d="M498,765c4.1-8.9,12.6-15.1,22.3-16.2c0.2-1.4,0.6-2.8,1.2-4.1c-12.3,0.9-23,8.7-27.7,20.1
		C495.2,764.6,496.7,764.7,498,765z"/>
	<path class="st1" d="M605.7,749.6c3.1,0.5,6.2,1.4,9,2.9c5.6,2.9,10,7.6,12.6,13.3c1.4-0.3,2.8-0.4,4.3-0.3
		c-4.6-11.1-14.9-18.8-26.9-20C605.1,746.8,605.5,748.2,605.7,749.6z"/>
	<path class="st1" d="M479.9,871.6c-7.1-6.5-10.4-16.2-8.8-25.7c-1.3-0.7-2.5-1.5-3.6-2.4c-2.7,11.8,1.5,24.2,10.8,32
		C478.7,874.1,479.2,872.8,479.9,871.6z"/>
	<path class="st1" d="M560.5,829.2c-3.6-9.2-5.7-18.8-8-28.3c-1.8-9.6-3.7-19.2-4.1-29.1c3.6,9.2,5.7,18.8,7.9,28.3
		C558.1,809.7,560,819.4,560.5,829.2z"/>
	<path class="st1" d="M553.4,771.9c0,2.6-2.1,4.6-4.7,4.6c-2.6,0-4.6-2.1-4.6-4.7c0-2.6,2.1-4.6,4.7-4.6
		C551.3,767.2,553.4,769.3,553.4,771.9C553.4,771.9,553.4,771.9,553.4,771.9z"/>
	<path class="st1" d="M564,829.3c0.6-9.9,2.6-19.5,4.6-29c2.4-9.5,4.7-19,8.4-28.2c-0.6,9.9-2.6,19.5-4.6,29
		C570,810.6,567.7,820.1,564,829.3z"/>
	<path class="st1" d="M572,772c0,2.6,2,4.6,4.6,4.7c2.6,0,4.6-2,4.7-4.6c0-2.6-2-4.6-4.6-4.7c0,0,0,0,0,0
		C574.1,767.4,572,769.4,572,772C572,772,572,772,572,772z"/>
	<path class="st1" d="M559.4,832.4c-9.9,0.6-19.6-0.4-29.4-1.2c-9.7-1.3-19.4-2.4-29-5.1c9.9-0.6,19.6,0.4,29.4,1.2
		C540.1,828.6,549.8,829.7,559.4,832.4z"/>
	<path class="st1" d="M502.6,821.4c2.4,0.8,3.7,3.4,2.9,5.8c-0.8,2.4-3.4,3.7-5.8,2.9c-2.4-0.8-3.7-3.4-2.9-5.8
		C497.6,821.9,500.2,820.6,502.6,821.4C502.6,821.4,502.6,821.4,502.6,821.4z"/>
	<path class="st1" d="M560.5,829.1c-9.2-3.6-17.7-8.5-26.2-13.3c-8.3-5.2-16.6-10.3-24.2-16.7c9.2,3.6,17.7,8.5,26.2,13.3
		C544.6,817.5,552.9,822.6,560.5,829.1z"/>
	<path class="st1" d="M508.5,803.7c2.4,0.8,5-0.5,5.8-2.9s-0.5-5-2.9-5.8c-2.4-0.8-5,0.5-5.8,2.9
		C504.8,800.3,506.1,802.9,508.5,803.7C508.5,803.7,508.5,803.7,508.5,803.7z"/>
	<path class="st1" d="M562,834.4c-2.5,9.6-6.4,18.6-10.2,27.6c-4.2,8.8-8.3,17.7-13.8,26c2.5-9.6,6.4-18.6,10.2-27.6
		C552.4,851.5,556.5,842.7,562,834.4z"/>
	<path class="st1" d="M534,885c1.5-2.1,4.4-2.5,6.5-1c2.1,1.5,2.5,4.4,1,6.5c-1.5,2.1-4.4,2.5-6.5,1C532.9,890,532.5,887.1,534,885
		C534,885,534,885,534,885z"/>
	<path class="st1" d="M559.2,832.3c-6.3,7.7-13.6,14.2-20.8,20.8c-7.5,6.3-14.9,12.6-23.4,17.8c6.3-7.7,13.6-14.2,20.8-20.8
		C543.3,843.9,550.8,837.5,559.2,832.3z"/>
	<path class="st1" d="M519,873.9c1.5-2.1,1.1-4.9-1-6.4c-2.1-1.5-4.9-1.1-6.4,1c-1.5,2.1-1.1,4.9,1,6.4
		C514.6,876.4,517.5,875.9,519,873.9z"/>
	<path class="st1" d="M564.8,832.5c8.3,5.3,15.7,11.8,23.1,18.2c7.1,6.7,14.3,13.4,20.4,21.2c-8.3-5.3-15.7-11.8-23.1-18.2
		C578.1,846.9,570.9,840.3,564.8,832.5z"/>
	<path class="st1" d="M604.2,874.7c-1.5-2.1-1-5,1.1-6.4s5-1,6.4,1.1c1.5,2.1,1,5-1.1,6.4C608.6,877.3,605.7,876.8,604.2,874.7z"/>
	<path class="st1" d="M561.9,834.5c5.4,8.3,9.3,17.3,13.4,26.2c3.6,9.1,7.4,18.1,9.8,27.8c-5.4-8.3-9.3-17.3-13.4-26.2
		C568,853.2,564.2,844.2,561.9,834.5z"/>
	<path class="st1" d="M589,885.6c-1.5-2.1-4.4-2.6-6.4-1.1c-2.1,1.5-2.6,4.4-1.1,6.4c1.5,2.1,4.4,2.6,6.4,1.1
		C590,890.5,590.5,887.7,589,885.6z"/>
	<path class="st1" d="M563.8,829.3c7.7-6.3,16.1-11.3,24.5-16.3c8.6-4.7,17.1-9.5,26.4-12.9c-7.7,6.3-16.1,11.3-24.5,16.3
		C581.6,821.1,573.1,825.9,563.8,829.3z"/>
	<path class="st1" d="M616.2,804.8c-2.4,0.8-5-0.6-5.8-3c-0.8-2.4,0.6-5,3-5.8c2.4-0.8,5,0.6,5.8,3c0,0,0,0,0,0
		C619.9,801.4,618.6,804,616.2,804.8z"/>
	<path class="st1" d="M564.8,832.6c9.6-2.5,19.3-3.5,29-4.6c9.8-0.7,19.5-1.4,29.4-0.7c-9.6,2.5-19.3,3.5-29,4.6
		C584.5,832.6,574.7,833.4,564.8,832.6z"/>
	<path class="st1" d="M621.8,822.6c-2.4,0.8-3.8,3.4-3,5.8c0.8,2.4,3.4,3.8,5.8,3c2.4-0.8,3.8-3.4,3-5.8
		C626.8,823.2,624.2,821.8,621.8,822.6C621.8,822.6,621.8,822.6,621.8,822.6z"/>
	<path class="st1" d="M642.7,850.6c7.8,0,12.7-2.6,15.5-5c4.1-3.5,6.5-8.5,6.7-13.9c0.3-8.7-5.3-18.6-14.5-25.1
		c-1.8-1.4-2.5-3.8-1.9-6c3.7-10.6,2.7-21.9-2.6-28.9c-3.2-4.3-8.1-7-13.5-7.5c-4.5-0.4-11.6,0.7-19.8,8.3
		c-5.8,5.4-15.3,14.7-24.2,23.5c5.8-11,11.8-22.7,15.2-29.8c4.9-10,3.8-17.2,2.1-21.4c-2.1-5-6.1-8.9-11.2-10.7
		c-8.2-3-19.3-0.7-28.4,6c-1.9,1.3-4.4,1.3-6.2,0c-8.9-6.8-20-9.3-28.3-6.5c-5.1,1.7-9.2,5.5-11.3,10.5c-1.8,4.2-2.9,11.3,1.8,21.4
		c3.3,7.2,9.2,19.1,14.8,30.3c-8.7-8.9-17.9-18.2-23.6-23.7c-8-7.7-15.1-9-19.7-8.6c-5.4,0.4-10.3,3.1-13.6,7.3
		c-5.4,6.8-6.6,18.2-3.1,28.8c0.6,2.2-0.2,4.6-2,5.9c-9.2,6.4-15,16.1-14.9,24.9c0.1,5.4,2.4,10.4,6.5,14c2.9,2.5,7.9,5.2,16,5.2
		c1.6,0,3.3-0.1,4.9-0.3c7.9-0.9,21-2.8,33.4-4.7c-11.1,5.5-22.8,11.4-29.8,15.2c-9.8,5.3-13.2,11.6-14.3,16
		c-1.3,5.2-0.3,10.8,2.8,15.2c4.8,7.2,15.1,11.8,26.2,11.8c0.1,0,0.2,0,0.2,0c2.3,0.1,4.3,1.6,5,3.7c3.2,10.7,10.7,19.3,19.1,21.8
		c1.8,0.6,3.7,0.8,5.7,0.8c3.4,0,6.8-0.9,9.7-2.7c3.9-2.3,9-7.4,11.2-18.4c1.5-7.8,3.8-20.8,5.8-33.2c1.8,12.3,3.8,25.2,5.2,33
		c2,11,7,16.2,10.9,18.6c3,1.8,6.4,2.8,9.9,2.8c1.8,0,3.6-0.3,5.3-0.8c8.4-2.4,16-10.8,19.4-21.5c0.8-2.1,2.7-3.6,5-3.6h1
		c10.9,0,20.9-4.4,25.8-11.4c3.1-4.4,4.2-9.9,3-15.2c-1-4.4-4.3-10.9-14-16.3c-7-3.9-18.7-10-29.8-15.8c12.3,2.1,25.2,4.2,33,5.3
		C639,850.4,640.8,850.5,642.7,850.6z M614.4,774.4c5.9-5.5,12.1-8.1,17.8-7.6c4.6,0.4,8.8,2.8,11.6,6.5c4.8,6.3,5.6,16.6,2.2,26.4
		c-1.1,3.3,0.1,6.9,2.8,9c8.4,6,13.7,15,13.4,22.9c-0.1,4.6-2.2,9-5.8,12c-4.4,3.7-11,5.1-19,4c-17-2.3-58.2-9.6-64.4-10.7
		l-3.6-11.3h3.2l0.4-0.7c0.1-0.2,5.1-9.6,11.2-21.2C594.7,793.4,607.3,781,614.4,774.4z M524.5,764.4c-3.4-7.3-4-14-1.7-19.3
		c1.9-4.2,5.4-7.5,9.8-9c7.5-2.6,17.6-0.2,25.8,6.1c2.8,2,6.6,2,9.4,0.1c8.3-6.1,18.5-8.3,25.9-5.6c4.4,1.6,7.9,4.9,9.6,9.2
		c2.2,5.3,1.5,12-2.1,19.2c-7.5,15.5-27.1,52.4-30.1,57.9l-11.9-0.1l1-3l-0.6-0.6c-0.2-0.2-7.6-7.9-16.7-17.3
		C536.5,788.9,528.6,773.2,524.5,764.4z M487.2,846.8c-8,1-14.5-0.5-18.9-4.3c-3.5-3.1-5.5-7.5-5.5-12.1
		c-0.2-7.9,5.2-16.8,13.7-22.7c2.8-2,4-5.6,3-8.9c-3.3-9.8-2.2-20.2,2.6-26.4c2.8-3.7,7.1-6,11.7-6.3c0.4,0,0.7,0,1.1,0
		c5.4,0,11.1,2.7,16.6,7.9c12.4,11.9,41.4,42,45.8,46.5l-5.6,16.7C545.5,838.1,504.3,844.7,487.2,846.8L487.2,846.8z M554,907.8
		c-1.6,7.9-5,13.7-9.9,16.6c-4,2.4-8.8,2.9-13.2,1.5c-7.5-2.3-14.3-10.2-17.3-20.1c-1.1-3.3-4.1-5.5-7.5-5.6h-0.3
		c-10.3,0-19.7-4.2-24-10.7c-2.6-3.8-3.5-8.6-2.4-13.1c1.4-5.6,5.9-10.5,13-14.4c8.5-4.6,24.1-12.4,37.2-18.8
		c12.9-2,23.2-3.7,23.5-3.7l0.8-0.1l1.2-3.5l9.9,7.3C563.9,849.6,557.4,890.8,554,907.8L554,907.8z M632.7,863
		c7,3.9,11.4,9,12.7,14.6c1,4.5,0.1,9.3-2.6,13.1c-4.4,6.3-13.6,10.3-23.6,10.3c-0.3,0-0.7,0-1,0c-3.4,0.1-6.4,2.2-7.5,5.4
		c-3.1,9.9-10.1,17.6-17.7,19.8c-4.4,1.3-9.2,0.6-13.2-1.8c-4.9-3-8.2-8.9-9.7-16.8c-1.7-9.5-4.3-26.8-6.4-41.1
		c2.1-12.8,3.7-23.2,3.8-23.5l0.1-0.8l-11.9-8.8l2.6-7.9l8.4,0.1l4.3,13.7l0.8,0.1c0.2,0,10.7,1.9,23.7,4.1
		C608.5,850.1,624.2,858.2,632.7,863L632.7,863z"/>
	<path class="st1" d="M580.8,831.4c-0.1,10.2-8.4,18.4-18.6,18.3c-10.2-0.1-18.4-8.4-18.3-18.6c0.1-10.2,8.4-18.4,18.6-18.3
		C572.7,812.9,580.9,821.2,580.8,831.4z"/>
	<line class="st2" x1="562" y1="1237.4" x2="562" y2="1369.4"/>
	<g>
		<path class="st0" d="M451.1,1442.6c-1,1.2-2,2.4-3,3.6c-0.8-2-3.2-6.2-4.7-8c5-5.3,9.5-13.4,11.9-21.8l7.6,2.3
			c-0.7,2.4-1.6,4.8-2.6,7.2h6.3c-0.7-2.3-1.6-4.7-2.5-6.9l8.1-2.5c1.2,2.9,2.8,6.6,3.7,9.4h6.1v7h-8.6v3.6h7v0.2
			c4.3-5.4,8.1-12.9,10.4-20.4l7.7,2.4c-0.7,2.4-1.7,4.8-2.7,7.2h6.4c-0.7-2.3-1.6-4.7-2.4-6.7l8.1-2.5c1.2,2.8,2.7,6.4,3.7,9.2h7.5
			v7h-10.3v3.6h8.1v6.5h-8.1v3.6h8.1v6.6h-8.1v3.6h11.3v7h-33.3v-21c-1,1.4-2.1,2.7-3,3.9c-0.7-1.2-2.1-3.4-3.4-5.3v1.7h-7v3.6h7
			v6.6h-7v3.6h9.4v7h-31.6V1442.6z M512.3,1471.8c-4,7.1-9.5,12.8-16.1,17.3c7.5,1.8,15.6,3,24.2,3.7c-2.2,2.6-4.8,7.5-6.2,10.6
			c-11.5-1.2-22-3.6-31.2-7.4c-10.4,4.1-22.1,6.7-34.3,8.1c-0.7-3-2.4-7.4-4-10.1c9.1-0.8,17.9-2.2,26-4.3c-4.7-3.1-8.8-6.9-12.5-11
			l3.8-2h-12.7v-9h54.4l1.7-0.5L512.3,1471.8z M465.4,1433h-6v3.6h6V1433z M465.4,1443h-6v3.6h6V1443z M465.4,1453.2h-6v3.6h6
			V1453.2z M469.9,1476.7c3.7,3.3,8.2,5.9,13.6,8.2c4.7-2.3,8.8-4.9,12.2-8.2H469.9z M500.9,1433H495v3.6h5.8V1433z M500.9,1443H495
			v3.6h5.8V1443z M500.9,1453.2H495v3.6h5.8V1453.2z"/>
		<path class="st0" d="M558.2,1422.3c-6.1,15.4-15.8,31.3-24.8,41.1c-1.9-2.4-6.3-7.3-8.8-9.6c8.8-8.4,17.5-22,22.5-35.6
			L558.2,1422.3z M581.5,1465.4c6.7,10.3,14.4,23.7,18.5,32.4l-10.2,6.1c-1.1-2.7-2.6-5.8-4.3-9.2c-40.2,3.6-45.8,4.1-49.9,5.8
			c-0.7-2.3-2.6-8.6-4.1-11.9c2.7-0.8,5-3.4,8.3-7.5c3.5-4,13.9-20,20.5-35.6l11.6,5.4c-6.4,12.7-14.4,25.3-22.4,35.4l30.5-2.3
			c-2.7-4.7-5.4-9.6-8-13.7L581.5,1465.4z M583.1,1418.4c3.6,13.2,11.1,26.4,21.4,33.4c-2.2,2.4-5.8,7.8-7.5,11.3
			c-9.5-8.2-16.9-20.8-21.5-33.2h-13.3v-11.6H583.1z"/>
		<path class="st0" d="M681,1419.7v84.3h-9.6v-3.4h-52v3.4h-9.3v-84.3H681z M671.4,1490.6v-60.8h-52v60.8H671.4z M648.9,1477.9
			c-0.2,2.1-0.2,5.2,0,6.8c-14.1,3.9-16.5,4.9-18,5.8c-0.3-1.7-1.4-4.6-2.2-5.7c1.2-0.7,2.7-1.7,2.7-5.3v-3.4
			c-2.2,0.9-4.5,1.8-6.6,2.5c-1-1.5-3.3-4.7-4.7-6.2c5.4-1.2,11.1-3.2,15.8-5.6h-9.5v-13.4h38.3v13.4h-17.9
			c-2.3,2.2-5.2,4.1-8.4,5.8v8L648.9,1477.9z M668.5,1450.7h-46.2v-6.2h18.5v-3.7h-14.6v-6h14.6v-3.9h9v3.9h15.3v6h-15.3v3.7h18.7
			V1450.7z M634.7,1462h21.4v-3.9h-21.4V1462z M669.4,1472.1c-2.2,1.9-4.6,3.5-7,5c2.9,2.3,5.5,4.5,7.3,6.4l-6.3,4.2
			c-4.2-4.4-12.9-11.6-19.9-16.3l6-3.8c2.3,1.6,5,3.6,7.7,5.5c2.3-1.8,4.7-3.8,6.3-5.4L669.4,1472.1z"/>
	</g>
	<g>
		<path class="st0" d="M406.2,1532.6c-0.4,0.6-0.8,1.2-1.2,1.8c7.6,7.5,21.3,14,34.5,16.9c-2.1,2-4.9,5.9-6.2,8.5
			c-1.7-0.5-3.4-1.1-5.2-1.7v24.2h-57.8v-23.7c-1.7,0.7-3.5,1.3-5.2,1.8c-1-2.1-3.7-6.6-5.3-8.6c15.3-4,30.1-11.8,37.7-22.7
			L406.2,1532.6z M425,1557c-3.9-1.6-7.6-3.6-11.3-5.7v2.4h-29.2v-1.9c-3.2,1.9-6.6,3.7-10.1,5.2H425z M374.9,1585.5h48.9v31.8
			h-10.1v-2.3h-29v2.5h-9.7V1585.5z M384.3,1575.7c-0.4-2.9-1.5-6.8-2.8-9.8l6.4-2.1h-9.4v11.8H384.3z M384.6,1592.8v3.8h29v-3.8
			H384.6z M413.7,1607.7v-3.8h-29v3.8H413.7z M394.8,1563.8h-6.5c1.5,3.2,2.8,7.2,3.3,10l-5.3,1.9h8.5V1563.8z M406.8,1546.4
			c-2.5-2-4.9-4-7-6.1c-2.2,2.1-4.6,4.1-7.1,6.1H406.8z M402.8,1563.8v11.8h7.7l-5-1.6c1.2-2.8,2.5-7.1,3.2-10.2H402.8z
			 M419.2,1563.8h-8.6l6.5,1.8c-1.7,3.8-3.2,7.4-4.6,10.1h6.7V1563.8z"/>
		<path class="st0" d="M467.8,1592.8h-14.5v7.7h-8.6v-61.3h23.1V1592.8z M453.2,1549.4v33h5.7v-33H453.2z M518.9,1585.5H499v19.4
			c0,5.9-1.2,8.8-4.5,10.5c-3.2,1.8-8,2.2-14.8,2.1c-0.5-3-2.1-7.8-3.5-10.8c4.6,0.3,9.4,0.3,10.9,0.2c1.5,0,2-0.5,2-2.1v-19.3
			h-18.9V1575h18.9v-29.5c-5.8,0.8-11.6,1.2-17,1.6c-0.3-2.7-1.6-6.9-2.7-9.3c14.5-1.1,30.8-3.5,40.8-6.8l6.7,9.1
			c-5.4,1.7-11.5,3-18,4v30.8h19.9V1585.5z M479.3,1549.4c3,6.4,5.5,14.8,6.2,20.7l-8.7,3.4c-0.5-5.7-2.7-14.5-5.6-20.9
			L479.3,1549.4z M501.1,1570.6c2.5-6.1,5.5-15.6,7-22.6l9.6,3c-2.8,8-6.1,16.8-8.8,22.4L501.1,1570.6z"/>
		<path class="st0" d="M534.8,1594.6v7.3H526v-64.7h24.3v57.4H534.8z M534.8,1547.6v36.7h6.7v-36.7H534.8z M599.4,1563
			c-2.3,14.5-6.7,26-12.6,35c4.5,4.4,9.6,8.1,15.5,10.5c-2.2,2.2-5,6.3-6.4,9.1c-5.9-2.9-11.1-6.8-15.5-11.6
			c-4.7,4.9-10,8.7-15.8,11.5c-1.2-2.6-4.3-7.2-6.2-9.1c5.9-2.4,11.1-5.9,15.6-10.5c-3.6-5.4-6.7-11.6-9.1-18.3
			c-2.4,15.1-6.9,29.1-15.4,38.1c-1.4-2-4.8-5.6-6.9-7.3c13.4-14.3,15.2-42.4,15.5-65.4h-5.5V1535h31l1.6-0.5l6.9,1
			c-0.8,7.9-2.2,17-3.7,25.3h3.4l1.7-0.4L599.4,1563z M567.8,1545c-0.2,5.1-0.4,10.4-0.8,15.8h11.9c0.9-5.2,1.8-10.8,2.6-15.8H567.8
			z M570.9,1571c2.2,7,5.4,13.5,9.3,19.2c3.5-5.4,6.2-11.7,8.1-19.2H570.9z"/>
		<path class="st0" d="M680.3,1544.4c0,0,0,3.8-0.1,5.1c-1.1,42-2,56.9-5.4,61.9c-2.3,3.5-4.7,4.5-8,5.2c-3.2,0.5-8.1,0.4-13.1,0.2
			c-0.2-3.1-1.5-7.8-3.2-10.9c5.3,0.6,10.2,0.6,12.4,0.6c1.7,0,2.6-0.4,3.7-1.6c2.4-3,3.5-17.1,4.4-50.3h-17.8
			c-2.2,5.6-4.7,10.8-7.3,14.8c-1.3-1.4-4.2-3.6-6.4-5.3v43.9h-22.2v6.9h-9V1545h9.4c1.1-4.7,2.1-10.7,2.4-15.1l10.8,1.7
			c-1.4,4.7-2.9,9.4-4.3,13.4h12.9v15.2c4.8-7.9,8.8-19.3,11.2-30.2l9.4,2.4c-0.8,4-2,8-3.2,11.9H680.3z M630.5,1554.8h-13.2v15.2
			h13.2V1554.8z M630.5,1598.1v-18.4h-13.2v18.4H630.5z M658.1,1593c-2.3-5.6-7.5-14.8-11.6-21.7l7.7-5c4.2,6.5,9.6,15.4,12.2,20.9
			L658.1,1593z"/>
		<path class="st0" d="M755.9,1571c-3.3,2.9-7.1,5.9-10.7,8.7c3.2,11.1,9.9,20.4,19.5,24.7c-2.2,2.1-5.2,6.4-6.6,9.1
			c-10-5.4-16.5-15.4-20.6-28.2c-0.8,0.7-1.7,1.2-2.6,1.8c2.3,11.3,0.3,22.1-3.9,26c-2.9,3.4-5.6,4.3-9.9,4.4
			c-1.8,0.1-4.3,0-6.7-0.1c-0.2-3.1-1-7.5-2.7-10.6c2.9,0.4,5.6,0.5,7.5,0.5c2,0,3.3-0.3,4.5-2.3c1.4-1.5,2.4-5,2.4-9.5
			c-9.5,7.3-22.5,14.3-33.6,18c-1.1-2.7-3.2-6.8-5.2-9.3c13.1-3.2,29.1-11.3,37.3-19.2c-0.3-1.1-0.7-2.3-1.2-3.6
			c-8.3,5.9-20.5,12-29.9,15.3c-1.1-2.5-3.2-6.3-4.9-8.6c10.2-2.4,23.9-8.4,31.1-13.8c-0.7-1-1.5-2.1-2.3-3.1
			c-7.2,4.3-15.3,7.5-23.1,9.9c-0.9-2.2-3.4-6.6-5.1-8.7c9.4-2.2,19.3-5.7,26.8-10.3h-14.3v-9.5h46.5v9.5h-18.5
			c-1.5,1.5-3.2,3-5,4.3c3.2,3.4,5.7,7.3,7.3,11.4c5.7-4.3,11.7-9.7,15.7-14.2L755.9,1571z M699.1,1558.6h-9.7v-21.2h30.1
			c-0.6-1.8-1.3-3.6-2-5l10.5-3.4c1.3,2.5,2.7,5.6,3.6,8.4h29.6v21.2h-10.1v-11.1h-51.9V1558.6z"/>
	</g>
	<g>
		<g>
			<g>
				<path class="st0" d="M290.6,1685.9c-0.9,2.8-2.1,5.2-3.6,7.2c4.1,1.7,8,3.6,10.7,5.3l-3.4,4.1c-2.6-1.8-6.5-3.8-10.9-5.8
					c-4,3.1-9.5,4.8-16.8,5.8c-0.4-1.2-1.9-3.5-2.9-4.6c6.1-0.5,10.8-1.6,14.2-3.4c-3.3-1.4-6.8-2.6-9.8-3.6c1-1.4,2.1-3.1,3.1-4.9
					h-7.6v-4.3h9.9c1-2.1,1.9-4.1,2.6-6l5.4,1c-0.6,1.6-1.4,3.3-2.2,5h6.8c0.2-1.1,0.3-2.3,0.4-3.5l5.6,0.3v-3.8h-23.1v4.3h-4.7
					v-8.6h13.8c-0.4-1.1-0.9-2.3-1.4-3.4l5.2-1.2c0.7,1.4,1.5,3.1,2,4.6h13.1v8.6h-4.9c-0.2,0.9-0.3,1.7-0.5,2.6h6.1v4.3H290.6z
					 M277.1,1685.9c-0.6,1-1.1,1.9-1.7,2.9c2.2,0.7,4.4,1.5,6.7,2.4c1.2-1.4,2.2-3.2,2.9-5.2H277.1z"/>
				<path class="st0" d="M320.7,1673.7c-0.2,1-0.3,2-0.5,2.9h14.2v21c0,2.2-0.5,3.3-2.1,4c-1.5,0.6-3.8,0.7-6.9,0.7
					c-0.2-1.2-0.9-2.8-1.5-3.9c1.9,0.1,4.3,0.1,4.9,0.1c0.7,0,0.9-0.2,0.9-0.8v-16.8h-7.4l3.9,0.8c-0.5,1.4-1.1,2.8-1.6,4.1h2.8v3.6
					h-6.5v2.5h7.4v3.7h-7.4v5.7h-4.3v-5.7h-7.2v-3.7h7.2v-2.5H310v-3.6h3c-0.3-1.2-0.9-2.7-1.5-3.9l3.6-0.9c0.7,1.3,1.4,3.1,1.7,4.2
					l-2.1,0.6h5.7c0.6-1.5,1.2-3.4,1.5-4.8h-14.3v21.4H303v-25.7h12.6c0.2-0.9,0.3-1.9,0.4-2.9h-14.5v-4.3h14.9
					c0.1-1.2,0.2-2.2,0.2-3.3l5.1,0.5c-0.1,0.9-0.3,1.9-0.4,2.8h14.4v4.3H320.7z"/>
				<path class="st0" d="M358.9,1675.9v4.3h12.5v13.1c0,2.3-0.5,3.6-2.1,4.3c-1.6,0.7-3.8,0.8-6.8,0.8c-0.2-1.4-0.9-3.3-1.5-4.5
					c1.9,0.1,4.2,0.1,4.8,0.1c0.7,0,0.9-0.2,0.9-0.7v-8.5h-7.7v17.4h-4.8v-17.4h-7.2v13.6h-4.6v-18.1h11.8v-4.3H339v-4.5h15.5
					c-0.6-1.4-1.3-3-2-4.3l4.6-1.4c1,1.8,2.2,4.1,2.9,5.7h14.3v4.5H358.9z"/>
				<path class="st0" d="M384.2,1680.3c-0.5,5-1.5,11.7-2.8,16.1l-4.6-1.9c1.4-4.1,2.5-9.9,3-15.1L384.2,1680.3z M391.5,1677.2v18
					c0,1.8,0.3,2.1,2.2,2.1h5.5c1.9,0,2.3-1.2,2.6-7.3c1.1,0.8,3.1,1.6,4.3,1.9c-0.5,7.4-1.8,9.6-6.5,9.6h-6.4c-5,0-6.4-1.5-6.4-6.4
					v-18H391.5z M391.2,1666.8c3.5,2.2,8.4,5.6,10.7,8l-3.4,3.6c-2.1-2.4-6.9-6-10.5-8.5L391.2,1666.8z M408.1,1678.2
					c2.2,4.6,4.2,10.4,5,14.4l-4.7,1.9c-0.6-4-2.6-10.1-4.6-14.6L408.1,1678.2z"/>
				<path class="st0" d="M427.3,1664.9v38.7h-1.8v-38.7H427.3z"/>
				<path class="st0" d="M444.7,1692.3c-0.3,3.1-1,6.8-1.5,9.1c-0.9-0.4-2.5-0.8-3.4-1c0.6-2.3,1.1-5.8,1.4-8.8L444.7,1692.3z
					 M451.5,1690.1c-0.1-0.5-0.3-1-0.4-1.7c-7.4,1.2-8.8,1.5-9.6,2c-0.2-0.8-0.9-2.8-1.3-3.9c0.9-0.2,1.8-1.1,3-2.6
					c0.5-0.5,1.4-1.7,2.4-3.3c-2.9,0.4-3.8,0.6-4.4,0.9c-0.2-0.9-0.9-2.8-1.3-3.9c0.7-0.2,1.3-0.9,2-2.1c0.7-1.1,3-5.3,4.2-9.3
					l4.1,1.6c-1.3,3.2-3,6.5-4.8,9.2l2.6-0.2c1-1.7,2-3.5,2.8-5.3l3.6,2.2c-2.2,4.1-5.1,8.4-8,11.9l3.8-0.5c-0.3-1-0.7-2.1-1-2.9
					l2.9-1c1,2.4,2.1,5.7,2.6,7.7L451.5,1690.1z M448.4,1691.3c0.5,2.6,0.9,5.8,1.1,8.1l-3.3,0.9c-0.1-2.2-0.5-5.6-0.9-8.1
					L448.4,1691.3z M474.2,1699c-1.6-1.4-4.6-3.4-7.3-5.2v4.2c0,1.9-0.3,3-1.6,3.6c-1.2,0.6-2.8,0.7-5,0.7c-0.1-1.1-0.7-2.8-1.2-3.9
					c1.3,0,2.6,0,3,0c0.5,0,0.6-0.1,0.6-0.5v-3.9c-2.3,1.7-4.6,3.3-6.7,4.6l-2-3.1c0.2,0.7,0.3,1.3,0.5,1.8l-3.1,1.2
					c-0.3-2-1.3-5.1-2.1-7.4l2.9-1c0.6,1.5,1.2,3.2,1.6,4.8c2.3-1.2,5.6-3.1,8.9-5.2v-5.6h-9.1v-4h13l0.4-1.7h-11.4
					c1-3.2,2.4-8.4,3.2-12.4l4.3,0.4c-0.2,0.9-0.4,1.8-0.7,2.8h6.8l0.7-0.2l3.1,0.4c-0.5,3.3-1.3,7.2-2,10.6h5.4v4h-9.3v5.2l0.9,0.5
					c1.3-1.5,2.8-3.7,3.7-5.3l3.7,2.1c-1.5,1.8-3.1,3.6-4.5,5c2.3,1.4,4.6,2.8,5.9,3.9L474.2,1699z M458.8,1691.6
					c-0.9-1.2-2.9-3.1-4.4-4.4l2.4-2.4c1.5,1.2,3.6,2.9,4.5,4.1L458.8,1691.6z M467.7,1675l0.4-2.2h-6.7c-0.2,0.8-0.4,1.5-0.6,2.2
					H467.7z"/>
				<path class="st0" d="M484.3,1684.9c-1.3-1.4-4.2-3.4-6.4-4.6l2.7-3.1c2.2,1.2,5.1,2.9,6.6,4.3L484.3,1684.9z M488.2,1689.1
					c-1.5,4.1-3.4,8.4-5.2,12.2l-4.2-2.7c1.6-2.9,4-7.7,5.7-12.2L488.2,1689.1z M485.4,1675.3c-1.2-1.5-3.6-3.7-5.5-5.2l3.1-2.8
					c1.9,1.4,4.5,3.4,5.7,4.8L485.4,1675.3z M512.8,1690.8c-1.6,1.3-3.6,2.5-5.3,3.5c1.8,1.7,4.1,2.9,6.9,3.7c-1,0.9-2.3,2.8-2.9,4
					c-6.9-2.4-10.6-7.4-12.8-14.5h-4.4v8.8l6.4-1.9c0.1,1.3,0.4,3.1,0.7,4c-8.6,2.7-10.1,3.3-11.1,4.1c-0.4-1-1.7-2.7-2.4-3.4
					c0.8-0.7,1.8-2.1,1.8-4.1v-24.9h8.9c-0.3-1.1-0.9-2.3-1.3-3.3l4.3-1.1c0.7,1.4,1.4,3.1,1.9,4.4h7.9v17.3H503
					c0.5,1.4,1.2,2.7,1.9,3.9c1.7-1,3.7-2.4,4.9-3.6L512.8,1690.8z M494.2,1674.2v2.7h12.5v-2.7H494.2z M494.2,1683.5h12.5v-2.8
					h-12.5V1683.5z"/>
				<path class="st0" d="M516.4,1695.7c7.8-7,12.4-12.4,12.4-16.8c0-2.9-1.6-4.6-4.3-4.6c-2.1,0-3.8,1.4-5.3,2.9l-3.1-3.1
					c2.6-2.8,5.2-4.3,9.1-4.3c5.4,0,9,3.5,9,8.8c0,5.2-4.3,10.8-9.5,15.9c1.4-0.2,3.3-0.3,4.6-0.3h6.2v4.8h-19.2V1695.7z"/>
				<path class="st0" d="M538.7,1685.8h10.6v4.1h-10.6V1685.8z"/>
				<path class="st0" d="M551.4,1695.5l2.7-3.6c1.7,1.7,3.8,2.9,6.4,2.9c2.9,0,4.9-1.4,4.9-4c0-2.8-1.7-4.6-7.9-4.6v-4.1
					c5.3,0,7-1.8,7-4.4c0-2.2-1.4-3.6-3.8-3.6c-2.1,0-3.7,1-5.4,2.6l-2.9-3.5c2.5-2.2,5.2-3.5,8.6-3.5c5.5,0,9.3,2.7,9.3,7.6
					c0,3.1-1.7,5.3-4.8,6.5v0.2c3.3,0.9,5.7,3.3,5.7,7.1c0,5.3-4.6,8.3-10.1,8.3C556.4,1699.5,553.4,1697.8,551.4,1695.5z"/>
				<path class="st0" d="M593.4,1689.3c-0.1,0.7-0.2,1.4-0.4,2.1h12.6c0,0,0,1-0.1,1.6c-0.4,4.8-0.9,7.1-1.9,8.1
					c-0.9,0.9-1.9,1.1-3.1,1.2c-1.1,0.2-3,0.2-5.1,0.1c0-1.2-0.5-2.8-1.2-3.8c1.8,0.2,3.5,0.2,4.3,0.2c0.6,0,1-0.1,1.3-0.3
					c0.4-0.4,0.7-1.4,1-3.5h-8.8c-1.5,3.3-4.4,5.8-10,7.5c-0.4-1.1-1.5-2.7-2.4-3.6c-0.7,1.5-1.6,2.8-2.7,4
					c-0.7-0.9-2.4-2.8-3.3-3.4c4.1-5,4.5-12.2,4.5-17.7v-12.6c8.9-0.5,18.9-1.5,24.9-2.9l3.5,3.4c-6.7,1.5-15.6,2.4-23.8,2.9v1.2
					H607v9.3h-10.7c0.4,0.8,0.9,1.8,1.2,2.7h11.8v3.6H593.4z M582.2,1689.3c-0.5,3.2-1.3,6.5-2.7,9.5c6.9-1.9,8.6-5.1,9.3-9.5H582.2
					z M592.4,1685.7c-0.3-0.7-0.5-1.4-0.9-2l3.8-0.7h-12.7c0,0.9-0.1,1.7-0.1,2.7H592.4z M582.7,1677.2v2.3h19.8v-2.3H582.7z"/>
				<path class="st0" d="M622.9,1664.9v38.7h-1.8v-38.7H622.9z"/>
			</g>
		</g>
		<g>
			<g>
				<path class="st3" d="M645.7,1672.9c1.9,0,3.5,0.5,4.9,1.4c1.4,1,2.4,2.4,3.2,4.4c0.7,2,1.1,4.7,1.1,8.2c0,3.5-0.4,6.3-1.1,8.3
					c-0.8,2-1.8,3.4-3,4.3c-1.3,0.9-2.9,1.4-4.8,1.4c-1.9,0-3.6-0.5-4.9-1.4c-1.3-0.9-2.4-2.3-3.1-4.2c-0.7-1.9-1.1-4.6-1.1-8.1
					c0-4.9,0.7-8.4,2.2-10.6C640.5,1674.1,642.8,1672.9,645.7,1672.9z M645.8,1677.7c-0.8,0-1.6,0.3-2.2,0.8
					c-0.6,0.5-1.1,1.5-1.5,2.8c-0.3,1.3-0.5,3.3-0.5,5.9c0,3.4,0.4,5.7,1.2,7c0.8,1.3,1.8,1.9,3,1.9c1.2,0,2.1-0.6,2.8-1.8
					c0.9-1.5,1.3-3.9,1.3-7.4c0-3.5-0.4-5.9-1.1-7.2C648,1678.4,647,1677.7,645.8,1677.7z"/>
				<path class="st3" d="M664.8,1672.9l4.2,2.2l-4.5,9c2.2,0,4.1,0.8,5.6,2.4c1.5,1.6,2.3,3.6,2.3,6c0,2.3-0.8,4.3-2.4,5.9
					c-1.6,1.6-3.5,2.4-5.7,2.4c-2.3,0-4.3-0.8-5.8-2.5c-1.6-1.7-2.3-3.6-2.3-5.7c0-0.8,0.1-1.6,0.4-2.5c0.2-0.8,0.8-2.1,1.7-3.8
					L664.8,1672.9z M664.2,1688.9c-0.9,0-1.7,0.3-2.3,1c-0.6,0.7-0.9,1.5-0.9,2.6c0,1,0.3,1.9,1,2.6c0.7,0.7,1.4,1,2.3,1
					c0.9,0,1.7-0.3,2.4-1c0.7-0.7,1-1.6,1-2.6c0-1-0.3-1.9-1-2.6C666,1689.3,665.2,1688.9,664.2,1688.9z"/>
				<path class="st3" d="M688.2,1678.1h-5.9c0.2-3.5,1.2-6.3,3.2-8.3c2-2,4.5-3,7.7-3c1.9,0,3.6,0.4,5.1,1.3c1.5,0.8,2.7,2,3.5,3.6
					c0.9,1.6,1.3,3.2,1.3,4.8c0,1.9-0.5,4-1.6,6.3c-1.1,2.2-3,4.9-5.9,7.9l-3.6,3.9h11.3v5.7h-22v-3l9.8-10.3c2.4-2.5,3.9-4.5,4.7-6
					c0.8-1.5,1.2-2.9,1.2-4.1c0-1.3-0.4-2.3-1.2-3.1c-0.8-0.8-1.9-1.2-3.1-1.2c-1.3,0-2.4,0.5-3.2,1.5
					C688.7,1675,688.2,1676.4,688.2,1678.1z"/>
				<path class="st3" d="M723.2,1682.5c1.4,0.9,2.5,2.2,3.3,3.7c0.8,1.5,1.2,3.1,1.2,4.8c0,1.9-0.5,3.6-1.4,5.2
					c-0.9,1.6-2.1,2.8-3.7,3.6c-1.5,0.8-3.5,1.2-5.9,1.2c-2.6,0-4.6-0.4-6.1-1.2c-1.5-0.8-2.7-2-3.6-3.5s-1.4-3.4-1.4-5.3
					c0-1.7,0.4-3.3,1.1-4.7c0.7-1.4,1.8-2.7,3.3-3.8c-0.9-1-1.7-2-2.1-3.2c-0.5-1.1-0.7-2.3-0.7-3.5c0-1.7,0.4-3.2,1.2-4.6
					c0.8-1.4,1.9-2.5,3.4-3.3c1.4-0.8,3.1-1.2,5-1.2c1.9,0,3.5,0.4,4.9,1.2c1.4,0.8,2.5,1.9,3.3,3.3c0.8,1.4,1.2,3,1.2,4.6
					c0,1.2-0.2,2.2-0.6,3.2C725.1,1680.2,724.3,1681.3,723.2,1682.5z M716.7,1685.8c-1.5,0-2.7,0.5-3.7,1.4c-1,0.9-1.5,2-1.5,3.3
					c0,1.3,0.5,2.4,1.4,3.3c0.9,0.9,2.2,1.4,3.7,1.4c1.5,0,2.8-0.4,3.7-1.3c0.9-0.9,1.4-1.9,1.4-3.3s-0.5-2.5-1.4-3.4
					C719.3,1686.3,718.2,1685.8,716.7,1685.8z M716.5,1672.7c-1,0-1.8,0.3-2.4,1c-0.6,0.7-1,1.5-1,2.6c0,1,0.3,1.9,1,2.6
					c0.7,0.7,1.5,1.1,2.5,1.1c1,0,1.9-0.3,2.5-1c0.7-0.7,1-1.6,1-2.7c0-1-0.3-1.9-1-2.6C718.4,1673.1,717.6,1672.7,716.5,1672.7z"/>
				<path class="st3" d="M736.5,1675.6h-5.8c0.3-2.4,1.1-4.3,2.5-5.8c1.9-2,4.3-3.1,7.3-3.1c2.6,0,4.8,0.9,6.5,2.6
					c1.8,1.7,2.6,3.7,2.6,6.1c0,1.4-0.4,2.8-1.2,4c-0.8,1.2-1.9,2.2-3.4,2.9c1.9,0.6,3.4,1.6,4.5,3.1c1.1,1.5,1.6,3.2,1.6,5.2
					c0,2.9-1,5.4-3.1,7.4c-2.1,2-4.8,3.1-8,3.1c-3.1,0-5.6-1-7.5-2.9c-1.9-1.9-3-4.5-3.2-7.8h6c0.3,1.7,0.8,2.9,1.7,3.8
					c0.9,0.8,2,1.2,3.4,1.2c1.4,0,2.6-0.5,3.5-1.4c0.9-0.9,1.4-2.1,1.4-3.4c0-1.5-0.6-2.7-1.9-3.7s-3.1-1.5-5.4-1.6v-5.3
					c1.5-0.1,2.5-0.4,3.2-0.7c0.7-0.3,1.3-0.8,1.7-1.4c0.4-0.6,0.6-1.2,0.6-1.9c0-0.9-0.3-1.6-0.9-2.2c-0.6-0.6-1.4-0.9-2.4-0.9
					c-0.9,0-1.6,0.3-2.3,0.8C737.3,1674.1,736.8,1674.8,736.5,1675.6z"/>
				<path class="st3" d="M755.8,1685.4h10.9v5.6h-10.9V1685.4z"/>
				<path class="st3" d="M777,1667.6h14.8v5.7h-10.3l-1.3,5.9c0.4-0.1,0.7-0.2,1.1-0.2c0.3-0.1,0.7-0.1,1-0.1c2.9,0,5.3,1,7.2,3
					c1.9,2,2.9,4.6,2.9,7.8c0,3.2-1.1,5.9-3.2,8c-2.1,2.2-4.7,3.3-7.7,3.3c-2.7,0-5-0.8-7-2.4c-1.9-1.6-3.2-3.7-3.8-6.5h6.3
					c0.5,1,1.1,1.8,1.9,2.3c0.8,0.5,1.7,0.8,2.6,0.8c1.3,0,2.5-0.5,3.4-1.5c0.9-1,1.4-2.3,1.4-3.8c0-1.5-0.4-2.7-1.3-3.7
					c-0.9-1-1.9-1.5-3.2-1.5c-0.7,0-1.3,0.2-1.9,0.5c-0.6,0.3-1.3,0.9-1.9,1.5l-4.9-1.1L777,1667.6z"/>
				<path class="st3" d="M812.3,1682.5c1.4,0.9,2.5,2.2,3.3,3.7c0.8,1.5,1.2,3.1,1.2,4.8c0,1.9-0.5,3.6-1.4,5.2
					c-0.9,1.6-2.1,2.8-3.7,3.6c-1.5,0.8-3.5,1.2-5.9,1.2c-2.6,0-4.6-0.4-6.1-1.2c-1.5-0.8-2.7-2-3.6-3.5s-1.4-3.4-1.4-5.3
					c0-1.7,0.4-3.3,1.1-4.7c0.7-1.4,1.8-2.7,3.3-3.8c-0.9-1-1.7-2-2.1-3.2c-0.5-1.1-0.7-2.3-0.7-3.5c0-1.7,0.4-3.2,1.2-4.6
					c0.8-1.4,1.9-2.5,3.4-3.3c1.4-0.8,3.1-1.2,5-1.2c1.9,0,3.5,0.4,4.9,1.2c1.4,0.8,2.5,1.9,3.3,3.3c0.8,1.4,1.2,3,1.2,4.6
					c0,1.2-0.2,2.2-0.6,3.2C814.2,1680.2,813.4,1681.3,812.3,1682.5z M805.9,1685.8c-1.5,0-2.7,0.5-3.7,1.4c-1,0.9-1.5,2-1.5,3.3
					c0,1.3,0.5,2.4,1.4,3.3c0.9,0.9,2.2,1.4,3.7,1.4c1.5,0,2.8-0.4,3.7-1.3c0.9-0.9,1.4-1.9,1.4-3.3s-0.5-2.5-1.4-3.4
					C808.5,1686.3,807.3,1685.8,805.9,1685.8z M805.6,1672.7c-1,0-1.8,0.3-2.4,1c-0.6,0.7-1,1.5-1,2.6c0,1,0.3,1.9,1,2.6
					c0.7,0.7,1.5,1.1,2.5,1.1c1,0,1.9-0.3,2.5-1c0.7-0.7,1-1.6,1-2.7c0-1-0.3-1.9-1-2.6C807.6,1673.1,806.7,1672.7,805.6,1672.7z"/>
				<path class="st3" d="M830.1,1666.8l5.1,2.6l-5.5,11.1c2.7,0,5,1,6.9,3c1.9,2,2.8,4.4,2.8,7.4c0,2.8-1,5.2-2.9,7.2
					c-1.9,2-4.3,3-7,3c-2.9,0-5.2-1-7.1-3.1c-1.9-2-2.9-4.4-2.9-7c0-1,0.1-2,0.4-3c0.3-1,1-2.6,2-4.7L830.1,1666.8z M829.3,1686.4
					c-1.1,0-2.1,0.4-2.8,1.3c-0.8,0.8-1.1,1.9-1.1,3.1c0,1.3,0.4,2.3,1.2,3.2c0.8,0.9,1.7,1.3,2.8,1.3c1.1,0,2.1-0.4,2.9-1.3
					c0.8-0.8,1.2-1.9,1.2-3.2c0-1.3-0.4-2.3-1.2-3.1C831.5,1686.8,830.5,1686.4,829.3,1686.4z"/>
				<path class="st3" d="M853.9,1666.8l5.1,2.6l-5.5,11.1c2.7,0,5,1,6.9,3c1.9,2,2.8,4.4,2.8,7.4c0,2.8-1,5.2-2.9,7.2
					c-1.9,2-4.3,3-7,3c-2.9,0-5.2-1-7.1-3.1c-1.9-2-2.9-4.4-2.9-7c0-1,0.1-2,0.4-3c0.3-1,1-2.6,2-4.7L853.9,1666.8z M853.2,1686.4
					c-1.1,0-2.1,0.4-2.8,1.3c-0.8,0.8-1.1,1.9-1.1,3.1c0,1.3,0.4,2.3,1.2,3.2c0.8,0.9,1.7,1.3,2.8,1.3c1.1,0,2.1-0.4,2.9-1.3
					c0.8-0.8,1.2-1.9,1.2-3.2c0-1.3-0.4-2.3-1.2-3.1C855.3,1686.8,854.3,1686.4,853.2,1686.4z"/>
			</g>
		</g>
	</g>
</g>
</svg>
