<?xml version="1.0" encoding="utf-8"?>
<!-- Generator: Adobe Illustrator 27.6.1, SVG Export Plug-In . SVG Version: 6.00 Build 0)  -->
<svg version="1.1" id="圖層_1" xmlns="http://www.w3.org/2000/svg" xmlns:xlink="http://www.w3.org/1999/xlink" x="0px" y="0px"
	 viewBox="0 0 1125 1259.2" style="enable-background:new 0 0 1125 1259.2;" xml:space="preserve">
<style type="text/css">
	.st0{fill:#E4007F;}
	.st1{fill:#FFFFFF;}
</style>
<rect x="1470.6" class="st0" width="1216.3" height="1281.2"/>
<g>
	<g>
		<path class="st1" d="M377.9,549.4c5.8,3.2,11.9,6.7,15.4,9.4l-7.3,10.4c-4.4-3.7-13.2-9.6-20.2-13.7l5.1-6.1h-17.2l7.4,3.5
			c-6.4,5.4-16.4,11.9-23.8,15.8c-1.6-2.5-5.5-7.8-7.9-10.4l0.7-0.3c-11.4,2.7-23.1,5.3-32.3,7.3l-2.3-11.1
			c4.1-0.6,9.3-1.6,14.9-2.5v-26.1h-13.5V515h13.5v-7.6h-7.7v-4.9c-1.7,1.7-3.4,3.2-5.1,4.7c-0.6-2.7-3-9.6-4.3-12.7
			c7.6-5.6,15.7-14.9,20.4-24.5l8.9,4.2c-0.6,1.4-1.3,2.6-2,4c6,3.7,11.9,8.1,15.6,11.5l-5,10c-0.6-0.7-1.4-1.5-2.2-2.2v9.8h-8.6
			v7.6h11.9v10.6h-11.9v24.3l12.4-2.3l0.6,9.2c4.9-2.1,10.1-4.7,14.2-7.3h-13.8v-10.6h6.5V494H355c0.2-1.5,0.5-2.9,0.7-4.5h-18.6
			v-9.9h20c0.3-3,0.6-6,0.8-8.6l12.3,0.4c-0.4,2.7-1,5.4-1.4,8.2H391v9.9h-24.3l-0.9,4.5H387v44.9h6v10.6L377.9,549.4L377.9,549.4z
			 M305.1,529.2c1.6,5.6,3.2,13.2,3.7,17.9l-7.8,2.4c-0.4-5-1.8-12.4-3.3-18.1L305.1,529.2z M328.4,497c-3.6-3.3-8.5-7-13.1-10.1
			c-2.4,3.7-5.1,7-7.6,10.1H328.4z M321.1,545.9c1.4-4.7,2.9-12.2,3.5-17.6l8.6,2.4c-1.9,6.1-3.6,13.1-5.2,17.5L321.1,545.9z
			 M350.4,501.8v4.4h25.8v-4.4H350.4z M376.2,512.6h-25.8v4.2h25.8V512.6z M350.4,527.7h25.8v-4.3h-25.8V527.7z M350.4,538.8h25.8
			v-4.5h-25.8V538.8z"/>
		<path class="st1" d="M478.3,523.9c-2.4,7.6-5.7,14.1-9.8,19.5c11.3,4.7,21.8,9.6,29.2,14.2l-9.3,11c-7.2-4.8-17.9-10.2-29.7-15.6
			c-10.9,8.3-25.8,12.9-45.7,15.7c-1.2-3.3-5.2-9.4-7.8-12.6c16.7-1.5,29.4-4.3,38.8-9.3c-9.1-3.8-18.5-7.1-26.8-9.7
			c2.7-3.8,5.7-8.3,8.6-13.2H405v-11.7h27c2.9-5.5,5.2-11.1,7-16.2l14.7,2.7c-1.7,4.3-3.7,8.9-5.9,13.5h18.6
			c0.5-2.9,0.8-6.2,1.2-9.5l15.2,0.9v-10.1h-62.9v11.7H407V482h37.5c-1.2-3-2.5-6.3-3.7-9.1l14.2-3.2c1.8,3.8,4,8.5,5.5,12.3h35.6
			v23.2h-13.3c-0.4,2.4-0.8,4.7-1.3,7h16.6v11.7L478.3,523.9L478.3,523.9z M441.7,523.9c-1.6,2.7-3.1,5.2-4.6,7.7
			c5.9,1.9,11.9,4.1,18.2,6.4c3.4-3.9,6-8.6,8-14.1L441.7,523.9L441.7,523.9z"/>
		<path class="st1" d="M607.2,555.6v9.8h-95.8v-9.8h41V550h-33.3v-9.3h33.3V536h-29.8v-33.2h29.8v-4H512v-9.7h40.4v-4.6
			c-10.1,0.4-20.5,0.7-30,0.8c-0.1-2.8-1.5-7-2.5-9.5c24.6-0.5,53.2-2.3,71.1-5.2l5.8,9.6c-9.2,1.5-20.2,2.6-31.7,3.5v5.4h41.4v9.7
			h-41.4v4h31.4V536h-31.4v4.7h35.3v9.3h-35.3v5.5L607.2,555.6L607.2,555.6z M534.9,515.7h17.5V511h-17.5V515.7z M552.4,527.9v-4.7
			h-17.5v4.7H552.4z M565.1,511v4.7h18.5V511H565.1z M583.5,523.2H565v4.7h18.5V523.2z"/>
		<path class="st1" d="M672.4,486.3h5.6v7.5h-5.6v10.5H653v3.1h20.6v6.8H653v3.1h24.5v7.8h-58.8v-7.8h23.1v-3.1h-18.6v-6.8h18.6
			v-3.1h-18.4v-6.7h18.4v-3.8H618v-7.5h23.8V483h-18.1v-6.7h18.1v-5.6H653v5.6h19.4V486.3z M618,556.3c15-0.4,38.1-1.2,59.8-2.1
			l-0.3,9.3c-21.1,0.9-43.6,1.9-58.6,2.4L618,556.3z M672.9,528.3v24h-49.4v-24H672.9z M633.2,537.5h9.7V534h-9.7V537.5z
			 M633.2,546.4h9.7V543h-9.7V546.4z M653,486.3h8.9V483H653V486.3z M661.8,493.9H653v3.8h8.9v-3.8H661.8z M662.7,534h-9.3v3.5h9.3
			V534z M662.7,543h-9.3v3.3h9.3V543z M692.4,542.2H681v-58.9h11.4V542.2z M712.7,472.7v81.2c0,6.6-1.4,9.9-5.2,11.8
			c-3.8,2-9.5,2.5-17.9,2.4c-0.4-3.3-2.1-8.7-3.8-12.2c5.6,0.2,10.8,0.2,12.6,0.2c1.7,0,2.3-0.5,2.3-2.2v-81.2H712.7z"/>
		<path class="st1" d="M801.8,553.2c6.7,0,15.1-0.5,19.4-1.4c0.4,3,1.2,8.7,1.8,11.6c-4,1-13.4,1.1-21.9,1.1h-41.6
			c-18.6,0-27.4-5.6-27.4-24.9v-54.4H728v-11h89.8v11h-73.2v55.2c0,9.1,3.1,12.7,13.9,12.7h43.3V553.2z M749.3,519.6h29.2v28.1
			h-29.2V519.6z M759.4,539.4h8.2V528h-8.2V539.4z M801.6,515h-41.5v-24.9h41.5V515z M789.1,498.3h-17.3v8.6h17.3V498.3z
			 M812.9,547.7h-29.8v-28.1h29.8V547.7z M802,528h-8.6v11.4h8.6V528z"/>
		<path class="st1" d="M336.1,611.4c-7.7,17.2-20.1,34.8-31.5,45.8c-2.4-2.7-8-8.2-11.2-10.7c11.2-9.3,22.3-24.5,28.6-39.6
			L336.1,611.4z M365.7,659.4c8.6,11.5,18.3,26.4,23.5,36.1l-13,6.8c-1.4-3-3.3-6.5-5.5-10.2c-51,4-58.2,4.6-63.4,6.5
			c-0.8-2.6-3.3-9.6-5.2-13.3c3.5-0.9,6.3-3.8,10.6-8.4c4.4-4.5,17.6-22.3,26-39.6l14.7,6.1c-8.1,14.1-18.3,28.1-28.5,39.4l38.8-2.5
			c-3.4-5.2-6.9-10.7-10.1-15.3L365.7,659.4z M367.7,607.1c4.5,14.6,14.2,29.4,27.1,37.2c-2.9,2.7-7.4,8.7-9.5,12.6
			c-12-9.1-21.4-23.1-27.4-36.9H341v-12.9L367.7,607.1L367.7,607.1z"/>
		<path class="st1" d="M496.4,608.6v93.8h-12.3v-3.8h-66v3.8h-11.8v-93.8H496.4z M484.1,687.5v-67.7h-66v67.7H484.1z M455.6,673.3
			c-0.3,2.3-0.2,5.8,0,7.5c-18,4.4-21,5.4-22.8,6.5c-0.4-1.9-1.8-5.1-2.9-6.4c1.6-0.7,3.5-1.9,3.5-5.9v-3.8c-2.9,1-5.7,2-8.3,2.8
			c-1.3-1.7-4.2-5.2-6-6.9c6.9-1.4,14.2-3.6,20.1-6.3h-12v-15h48.7v15h-22.7c-3,2.4-6.7,4.6-10.7,6.5v8.9L455.6,673.3z M480.4,643.1
			h-58.7v-6.9h23.6v-4.1h-18.6v-6.7h18.6V621h11.4v4.4h19.4v6.7h-19.4v4.1h23.8L480.4,643.1L480.4,643.1z M437.6,655.7h27.3v-4.3
			h-27.3V655.7z M481.6,667c-2.7,2.1-5.8,3.9-8.9,5.5c3.7,2.6,7,5,9.3,7.1l-8,4.7c-5.3-4.9-16.4-12.9-25.2-18.2l7.6-4.2
			c3,1.8,6.3,4,9.8,6.2c3-2,6-4.2,8-6L481.6,667z"/>
		<path class="st1" d="M536.3,652.5c2.6-3,5.7-7.2,7.3-10l7.4,6.8c-3.4,3-6.5,6.2-9.2,8.7c3.2,3.3,6.2,6.6,7.4,7.8l-6.6,9.7
			c-1.8-2.9-5-7.5-8.2-11.7v38.4h-11.3v-37.3c-3.3,3.8-6.6,7-9.9,9.7c-0.8-3.5-3.7-10-5.3-12.3c9.1-6.5,18.3-17.5,24-28.8h-20.8
			v-11.2h16.8c-2-3.9-5.2-8.9-7.8-12.8l9-5.4c3.2,4.1,7,9.6,8.9,13.2l-7.2,5h7.4l2-0.5l6.2,5c-3.1,8.1-7.1,16-11.9,23.3v0.6
			L536.3,652.5z M607.7,689v11h-60.1v-11h23.5v-10.7h-19.4v-10.9h19.4v-8.2H551v-49.9h52.7v49.9h-20.9v8.2h21.7v10.9h-21.7V689
			H607.7z M562.2,629.4h8.9v-9.5h-8.9V629.4z M571.1,648.9v-9.7h-8.9v9.7H571.1z M591.9,619.9h-9.1v9.5h9.1V619.9z M591.9,639.1
			h-9.1v9.7h9.1V639.1z"/>
		<path class="st1" d="M713.6,620.7c0,0,0,4.2-0.1,5.6c-1.4,46.8-2.5,63.4-6.9,68.9c-3,3.9-5.9,5-10.1,5.8c-4,0.5-10.4,0.4-16.6,0.2
			c-0.2-3.5-1.9-8.7-4.1-12.1c6.8,0.6,13,0.6,15.7,0.6c2.1,0,3.3-0.4,4.6-1.8c3.1-3.3,4.4-19,5.6-56h-22.6c-2.7,6.3-6,12-9.3,16.5
			c-1.7-1.6-5.3-4-8.1-5.9v48.8h-28.2v7.6h-11.4v-77.7H634c1.4-5.2,2.6-11.9,3.1-16.8l13.7,1.9c-1.8,5.2-3.7,10.5-5.5,15h16.4v16.9
			c6.1-8.8,11.2-21.4,14.3-33.7l11.9,2.7c-1.1,4.5-2.5,8.9-4.1,13.3h29.8V620.7z M650.3,632.3h-16.8v16.9h16.8V632.3z M650.3,680.5
			V660h-16.8v20.5H650.3z M685.4,674.9c-3-6.3-9.5-16.5-14.7-24.2l9.8-5.5c5.3,7.2,12.3,17.2,15.5,23.2L685.4,674.9z"/>
		<path class="st1" d="M814,650.3c-4.2,3.2-9,6.6-13.6,9.7c4.1,12.3,12.6,22.7,24.7,27.5c-2.9,2.3-6.5,7.1-8.3,10.1
			c-12.7-6-21-17.2-26.2-31.4c-1.1,0.7-2.2,1.4-3.3,2c3,12.5,0.4,24.6-5,29c-3.7,3.8-7.1,4.8-12.6,4.9c-2.3,0.1-5.5,0-8.6-0.1
			c-0.2-3.5-1.3-8.4-3.4-11.8c3.7,0.4,7.1,0.5,9.5,0.5c2.5,0,4.2-0.3,5.7-2.5c1.8-1.7,3.1-5.5,3.1-10.6c-12,8.2-28.6,15.9-42.7,20.1
			c-1.4-3-4.1-7.5-6.5-10.4c16.7-3.6,37-12.5,47.4-21.3c-0.4-1.3-1-2.6-1.6-4c-10.6,6.6-26,13.4-38,17c-1.4-2.8-4-7-6.2-9.6
			c13-2.7,30.3-9.3,39.5-15.4c-1-1.2-1.9-2.3-3-3.5c-9.2,4.8-19.4,8.4-29.4,11c-1.2-2.4-4.3-7.3-6.4-9.7c11.9-2.4,24.5-6.4,34-11.5
			H745v-10.6h59v10.6h-23.5c-1.9,1.7-4,3.3-6.3,4.8c4.1,3.8,7.2,8.2,9.3,12.7c7.3-4.8,14.9-10.8,20-15.8L814,650.3z M741.7,636.5
			h-12.4v-23.6h38.2c-0.7-2-1.7-4-2.5-5.5l13.3-3.8c1.7,2.8,3.5,6.3,4.5,9.3h37.6v23.6h-12.9v-12.3h-65.9v12.3H741.7z"/>
	</g>
	<path class="st1" d="M825,439.1H293v-5.4h532V439.1z"/>
	<g>
		<path class="st1" d="M418.9,268.4h-34.4c0.9-20,7.2-35.8,18.9-47.2C415,209.7,430,204,448.3,204c11.3,0,21.2,2.4,29.8,7.1
			c8.6,4.8,15.5,11.6,20.7,20.6s7.8,18.1,7.8,27.3c0,11-3.1,22.9-9.4,35.6s-17.7,27.7-34.4,45l-20.8,22h66v32.7H379.4v-16.9
			l57.4-58.5c13.9-14,23.1-25.3,27.7-33.9c4.6-8.5,6.9-16.3,6.9-23.2c0-7.1-2.4-13.1-7.1-17.7c-4.8-4.7-10.9-7-18.4-7
			c-7.6,0-13.9,2.8-18.9,8.5C421.9,251.1,419.3,258.7,418.9,268.4z"/>
		<path class="st1" d="M663.1,348.2h-57.6v23.3c0,9.9-2.3,14.8-9.9,17.6c-7.4,2.9-17.3,3.1-30,3.1c-1.2-5.6-4.8-13.7-8-18.7
			c9.6,0.3,21.2,0.3,24.2,0.3c3.1,0,4-0.6,4-2.8v-22.9h-57.3v-17.4h57.3v-8.2c6.5-3.2,13-7.9,18.8-12.7H555v-17.1h68.3l4.2-0.9
			l12.2,9.6c-9,9.4-21.2,19.3-34.1,26.7v2.6h57.6v17.5H663.1z M547.5,298.4h-18.1V263h57.8c-1.9-3.6-3.9-7.3-6-10.2l18.4-5.6
			c3.7,4.6,7.4,10.8,9.4,15.8h53v35.4h-19v-18.1h-95.6L547.5,298.4L547.5,298.4z"/>
		<path class="st1" d="M744.8,370.9c-21.6,5.3-45.2,10.8-62.8,14.8l-4.2-17.1c10.5-1.9,24.6-4.6,39.4-7.7l-3.7-0.9
			c2.2-8.6,4.6-21.8,5.4-31.5l17.9,3.9c-2.6,9-5.3,18.5-7.7,26.1l14.2-2.9L744.8,370.9z M742.5,272.3h-62.1v-16.8h62.1V272.3z
			 M739.1,326.3h-54.5v-43.2h54.5V326.3z M691.5,361c-0.2-7.3-2.2-18.8-5.1-27.5l14.7-3.7c3.2,8.6,5.6,19.8,6,27L691.5,361z
			 M722.7,297.4H700v14.5h22.7V297.4z M779.4,372.2c-8.3,7.9-22.4,16.1-34.3,20.5c-2.6-3.2-8-8.5-12-11.7
			c11.6-4,24.9-11.9,31.3-18.4L779.4,372.2z M770.1,280.3c0.6-3.4,1.1-6.9,1.5-10.3h-25.5v-15.4h74.4V270h-28.9
			c-1.1,3.6-2.2,7.1-3.2,10.3h28.7v81.5h-67.3v-81.5H770.1z M799.6,293.9h-33v9.7h33V293.9z M799.6,316.1h-33v9.7h33V316.1z
			 M799.6,338.7h-33v9.9h33V338.7z M799.6,363.8c8.2,5.4,19.8,13.6,25.8,19.1l-14.7,9.7c-5.3-5.6-16.5-14.4-25-20.2L799.6,363.8z"/>
		<path class="st1" d="M330,295.4c-0.2,1.4-0.4,2.6-0.7,3.8h23.5c0,0-0.1,2-0.2,3c-0.7,8.9-1.7,13.3-3.6,15.1
			c-1.6,1.6-3.5,2.1-5.9,2.2c-2,0.3-5.6,0.3-9.5,0.1c-0.1-2.2-1-5.2-2.2-7.2c3.3,0.4,6.5,0.4,8,0.4c1.1,0,1.8-0.1,2.5-0.7
			c0.8-0.7,1.4-2.7,1.9-6.5h-16.5c-2.9,6.2-8.2,10.9-18.6,14.1c-0.8-2-2.9-5-4.6-6.7c-1.4,2.8-3,5.2-5,7.5c-1.2-1.7-4.6-5.1-6.2-6.3
			c7.8-9.3,8.5-22.8,8.5-33.2v-23.5c16.6-0.9,35.4-2.8,46.5-5.4l6.6,6.4c-12.5,2.8-29.2,4.5-44.6,5.4v2.2h45.5v17.4h-20.1
			c0.8,1.5,1.7,3.3,2.3,5h22v6.7H330V295.4z M308.9,295.4c-0.9,6-2.4,12.3-5,17.7c12.9-3.6,16.1-9.5,17.3-17.7H308.9z M328.1,288.7
			c-0.5-1.3-1-2.6-1.6-3.7l7-1.3h-23.7c-0.1,1.6-0.1,3.3-0.2,5H328.1z M309.8,272.9v4.3h37.1v-4.3H309.8z"/>
		<path class="st1" d="M313.9,331.5c-1.5,4.6-3.4,9.4-5.5,14.1v51.1h-8.2v-36.3c-1.4,2.2-3,4.2-4.5,5.9c-0.7-2-2.8-7-4.1-9.3
			c5.8-6.7,11.2-17.3,14.4-28L313.9,331.5z M346.4,386c5.6,1.9,11.7,4.3,15.3,6.1l-7.4,4.9c-3.5-2.1-9.6-4.9-15.6-7l4.6-4h-14.2
			l4.8,3.4c-4.7,3.3-12,5.9-18.4,7.4c-1-1.7-3-4.4-4.6-5.9c5.4-1,11.3-2.9,15.4-4.9h-10.2v-27h41v27H346.4z M345.4,338.4v3.1h12.5
			v14.9H315v-14.9h11.9v-3.1h-13.2v-6.2H360v6.2H345.4z M322.5,351.5h4.4v-4.9h-4.4V351.5z M324.1,366.5h24.7v-2.6h-24.7V366.5z
			 M324.1,373.7h24.7v-2.6h-24.7V373.7z M324.1,381.1h24.7v-2.8h-24.7V381.1z M338.5,338.4h-4.7v3.1h4.7V338.4z M333.7,351.5h4.7
			v-4.9h-4.7V351.5z M345.4,346.5v4.9h4.6v-4.9H345.4z"/>
	</g>
</g>
<g>
	<path class="st1" d="M855,254.7c6.2,0,11.2,1.7,16,4.6l-1.2,2.8c-4.5-2.6-9.8-3.8-14.8-3.8c-5.1,0-10.3,1.2-14.8,3.8l-1.2-2.8
		C843.7,256.4,848.8,254.7,855,254.7z"/>
	<path class="st1" d="M870.1,288.1v3.8h-26.9v-3.8H870.1z M868.4,267.8v3.7h-23.5v-3.7H868.4z M865.9,277.7v3.7H847v-3.7H865.9z"/>
	<path class="st1" d="M858,314.3c-0.1,0.6-0.2,1.1-0.3,1.6h10c0,0,0,0.8-0.1,1.3c-0.3,3.8-0.7,5.7-1.5,6.4c-0.7,0.7-1.5,0.9-2.5,1
		c-0.9,0.1-2.4,0.1-4.1,0.1c0-1-0.4-2.2-1-3.1c1.4,0.2,2.8,0.2,3.4,0.2c0.5,0,0.8-0.1,1.1-0.3c0.3-0.3,0.6-1.1,0.8-2.8h-7.1
		c-1.2,2.6-3.5,4.6-8,6c-0.3-0.9-1.2-2.1-1.9-2.8c-0.6,1.2-1.3,2.2-2.1,3.2c-0.5-0.7-2-2.2-2.6-2.7c3.3-4,3.6-9.7,3.6-14.2v-10
		c7.1-0.4,15.1-1.2,19.9-2.3l2.8,2.7c-5.3,1.2-12.5,1.9-19,2.3v1h19.4v7.4h-8.6c0.3,0.6,0.7,1.4,1,2.1h9.4v2.9L858,314.3L858,314.3z
		 M849,314.3c-0.4,2.6-1,5.2-2.1,7.6c5.5-1.5,6.9-4.1,7.4-7.6H849z M857.2,311.4c-0.2-0.6-0.4-1.1-0.7-1.6l3-0.6h-10.1
		c0,0.7-0.1,1.4-0.1,2.1h7.9V311.4z M849.4,304.6v1.8h15.8v-1.8H849.4z"/>
	<path class="st1" d="M853.9,329.2c-0.8,2.6-1.8,5.7-2.7,8.1c1.9,2.4,2.2,4.6,2.2,6.4c0,2-0.4,3.3-1.4,4.1c-0.5,0.4-1.1,0.6-1.7,0.7
		c-0.6,0.1-1.3,0.1-2,0.1c0-0.9-0.3-2.3-0.8-3.2c0.5,0,1,0.1,1.3,0c0.3,0,0.6-0.1,0.8-0.2c0.4-0.3,0.6-1,0.6-1.8
		c0-1.5-0.4-3.5-2.2-5.7c0.6-1.9,1.3-4.4,1.8-6.4h-3v24.4h-3.2V328h7.4l0.5-0.2L853.9,329.2z M870.6,345.1c-1.3,1.1-2.9,2.2-4.3,3.1
		c1.3,1.8,3,3.2,5,4.1c-0.8,0.7-1.9,2.2-2.4,3.2c-4.6-2.5-7.1-7.3-8.5-13.4h-1.9v8.7l4.3-1c0,1.1,0,2.6,0.2,3.3
		c-6,1.5-7.2,2-7.9,2.5c-0.3-0.8-1.1-2.3-1.6-2.9c0.7-0.4,1.4-1.2,1.4-2.7v-22h14v14.2h-5.4c0.3,1.2,0.7,2.3,1.2,3.4
		c1.3-1,2.6-2.1,3.5-3.1L870.6,345.1z M858.4,331.2v2.4h6.8v-2.4H858.4z M858.4,339h6.8v-2.5h-6.8V339z"/>
	<path class="st1" d="M858.6,382.3c1.1,0.2,2.4,0.2,3.7,0.2c1.6,0,6.8,0,8.9-0.1c-0.6,0.9-1.1,2.6-1.3,3.7H862c-5.8,0-10-1-12.8-5.4
		c-1,2.4-2.4,4.4-4.2,5.9c-0.6-0.7-2.2-2-3-2.4c3.3-2.5,4.9-6.8,5.4-12.1l3.7,0.3c-0.2,1.3-0.4,2.6-0.7,3.7c0.9,2.5,2.4,4,4.1,5
		v-10.5h-6.6v-3.5h17v3.5h-6.6v3.7h8.5v3.5h-8.5v4.5H858.6z M847.1,368.8h-3.6V361H855c-0.3-0.9-0.7-1.8-1.1-2.6l3.7-1
		c0.6,1.1,1.3,2.5,1.6,3.6h10.7v7.7h-3.8v-4.3h-19L847.1,368.8L847.1,368.8z"/>
	<path class="st1" d="M840.1,389.3c4.5,2.6,9.7,3.8,14.8,3.8c5,0,10.3-1.2,14.8-3.8l1.2,2.8c-4.8,2.9-9.8,4.6-16,4.6
		s-11.2-1.7-16-4.6L840.1,389.3z"/>
</g>
</svg>
