<?xml version="1.0" encoding="utf-8"?>
<!-- Generator: Adobe Illustrator 27.6.1, SVG Export Plug-In . SVG Version: 6.00 Build 0)  -->
<svg version="1.1" id="圖層_1" xmlns="http://www.w3.org/2000/svg" xmlns:xlink="http://www.w3.org/1999/xlink" x="0px" y="0px"
	 viewBox="0 0 1125 1393.3" style="enable-background:new 0 0 1125 1393.3;" xml:space="preserve">
<style type="text/css">
	.st0{fill:#FFFFFF;}
</style>
<g>
	<path class="st0" d="M575.5,142.4c0-9.2,2.6-16.8,6.9-23.9l4.3,1.8c-3.9,6.7-5.7,14.5-5.7,22.1c0,7.6,1.8,15.4,5.7,22.1l-4.3,1.8
		C578,159.2,575.5,151.7,575.5,142.4z"/>
	<path class="st0" d="M633.6,152.6v5.6h-40.5v-5.6H633.6z M631.1,122.3v5.5h-35.4v-5.5H631.1z M627.4,137.1v5.6h-28.4v-5.6H627.4z"
		/>
	<path class="st0" d="M663,145.5c-0.1,0.9-0.3,1.7-0.5,2.4h15.1c0,0,0,1.2-0.1,1.9c-0.5,5.7-1.1,8.4-2.3,9.6c-1,1-2.2,1.3-3.8,1.4
		c-1.3,0.2-3.6,0.2-6.1,0.1c0-1.4-0.7-3.3-1.4-4.6c2.1,0.2,4.2,0.3,5.1,0.3c0.7,0,1.2-0.1,1.6-0.4c0.5-0.5,0.9-1.7,1.2-4.2h-10.6
		c-1.9,3.9-5.3,6.9-12,9c-0.5-1.3-1.9-3.2-2.9-4.2c-0.9,1.8-1.9,3.3-3.2,4.8c-0.8-1.1-2.9-3.3-4-4c5-5.9,5.5-14.5,5.5-21.1v-15
		c10.7-0.6,22.8-1.8,29.9-3.4l4.2,4.1c-8,1.8-18.8,2.9-28.7,3.4v1.4h29.3V138h-12.9c0.5,1,1.1,2.1,1.5,3.2H682v4.3H663z
		 M649.4,145.5c-0.6,3.8-1.5,7.8-3.2,11.3c8.3-2.3,10.4-6,11.1-11.3H649.4z M661.8,141.2c-0.3-0.8-0.7-1.7-1-2.4l4.5-0.8H650
		c0,1-0.1,2.1-0.1,3.2H661.8z M650,131.1v2.7h23.8v-2.7H650z"/>
	<path class="st0" d="M704.4,121.6c-1.2,3.9-2.8,8.5-4,12.1c2.8,3.6,3.4,6.9,3.4,9.6c0,3-0.6,4.9-2.1,6c-0.7,0.6-1.6,0.8-2.6,1
		c-0.8,0.1-2,0.1-3,0.1c0-1.3-0.5-3.4-1.2-4.7c0.8,0,1.5,0.1,2,0c0.5,0,0.9-0.1,1.3-0.4c0.6-0.4,0.8-1.4,0.8-2.7
		c0-2.3-0.6-5.2-3.3-8.4c0.9-2.8,1.9-6.6,2.7-9.6h-4.5v36.3h-4.9v-41.2H700l0.7-0.2L704.4,121.6z M729.5,145.3
		c-2,1.6-4.4,3.3-6.5,4.7c2,2.6,4.5,4.8,7.6,6.2c-1.2,1.1-2.9,3.2-3.7,4.8c-6.9-3.8-10.7-10.9-12.9-19.9h-2.8v13l6.5-1.4
		c0,1.6,0,3.8,0.2,5c-9.1,2.3-10.8,3-11.9,3.7c-0.4-1.2-1.6-3.4-2.4-4.3c1-0.6,2.1-1.8,2.1-4v-33.1h21.1v21.2h-8.1
		c0.5,1.8,1.1,3.5,1.9,5c1.9-1.4,4-3.1,5.3-4.6L729.5,145.3z M711.2,124.5v3.6h10.3v-3.6H711.2z M711.2,136.2h10.3v-3.7h-10.3V136.2
		z"/>
	<path class="st0" d="M759,154.6c1.7,0.2,3.5,0.3,5.5,0.3c2.5,0,10.2,0,13.3-0.1c-0.8,1.3-1.7,3.9-2,5.6h-11.6
		c-8.7,0-15.1-1.4-19.4-8.1c-1.5,3.6-3.6,6.6-6.2,8.9c-0.9-1-3.3-2.9-4.5-3.6c5-3.7,7.4-10.2,8.2-18l5.6,0.5c-0.2,1.9-0.6,3.8-1,5.6
		c1.4,3.8,3.5,6,6.2,7.4v-15.7h-9.9V132h25.7v5.3H759v5.4h12.8v5.2H759V154.6z M741.6,134.3h-5.5v-11.5h17.3c-0.5-1.3-1-2.6-1.6-3.8
		l5.6-1.5c0.9,1.6,1.9,3.7,2.4,5.4h16.2v11.5h-5.7V128h-28.7V134.3z"/>
	<path class="st0" d="M782.8,164.5c3.9-6.7,5.7-14.5,5.7-22.1c0-7.5-1.8-15.3-5.7-22.1l4.2-1.8c4.4,7.1,7,14.7,7,23.9
		c0,9.3-2.6,16.8-7,23.9L782.8,164.5z"/>
</g>
<g>
	<g>
		<path class="st0" d="M381.7,491.3c5.9,3.3,12.1,6.8,15.7,9.6l-7.4,10.5c-4.5-3.7-13.4-9.8-20.5-13.9l5.2-6.2h-17.5l7.5,3.5
			c-6.5,5.5-16.6,12.1-24.1,16c-1.6-2.5-5.6-8-8.1-10.5l0.8-0.3c-11.6,2.8-23.5,5.4-32.8,7.4l-2.4-11.3c4.2-0.6,9.4-1.6,15.1-2.5
			v-26.6h-13.7v-10.7h13.7v-7.8h-7.8v-5c-1.7,1.7-3.4,3.3-5.2,4.8c-0.6-2.8-3-9.8-4.4-12.9c7.7-5.7,16-15.1,20.7-24.9l9,4.3
			c-0.6,1.4-1.3,2.7-2,4c6.1,3.7,12.1,8.2,15.9,11.7l-5,10.2c-0.6-0.7-1.4-1.5-2.3-2.2v10h-8.7v7.8h12.1v10.7h-12.1v24.7l12.6-2.3
			l0.6,9.4c4.9-2.1,10.3-4.8,14.4-7.4h-14.1v-10.7h6.7V435h14.9c0.2-1.5,0.5-3,0.8-4.6h-18.9v-10.1h20.3c0.3-3.1,0.6-6.1,0.9-8.7
			l12.5,0.4c-0.4,2.8-1,5.5-1.4,8.3H395v10.1h-24.7l-1,4.6h21.6v45.6h6.1v10.7H381.7z M307.8,470.8c1.6,5.7,3.2,13.4,3.8,18.2
			l-7.9,2.4c-0.4-5.1-1.8-12.6-3.3-18.4L307.8,470.8z M331.5,438.1c-3.6-3.4-8.6-7.1-13.3-10.3c-2.5,3.7-5.1,7.1-7.7,10.3H331.5z
			 M324.1,487.7c1.4-4.8,2.9-12.4,3.5-17.9l8.7,2.4c-1.9,6.2-3.6,13.3-5.3,17.7L324.1,487.7z M353.8,443v4.5H380V443H353.8z
			 M380,453.9h-26.2v4.3H380V453.9z M353.8,469.2H380v-4.4h-26.2V469.2z M353.8,480.6H380V476h-26.2V480.6z"/>
		<path class="st0" d="M483.8,465.4c-2.5,7.8-5.8,14.3-10,19.8c11.5,4.8,22.1,9.8,29.6,14.4l-9.4,11.2c-7.3-4.9-18.1-10.4-30.2-15.8
			c-11.1,8.4-26.2,13.1-46.5,15.9c-1.2-3.4-5.3-9.6-7.9-12.8c17-1.5,29.8-4.4,39.4-9.5c-9.2-3.8-18.8-7.2-27.3-9.9
			c2.8-3.8,5.8-8.4,8.7-13.4h-20.9v-11.9h27.4c2.9-5.6,5.3-11.3,7.1-16.5l14.9,2.8c-1.7,4.4-3.8,9-6,13.7h18.9
			c0.5-3,0.9-6.3,1.2-9.7l15.5,1v-10.3h-63.9v11.9h-13v-23.6h38.1c-1.2-3.1-2.6-6.4-3.8-9.2l14.4-3.3c1.8,3.8,4.1,8.6,5.6,12.5h36.2
			v23.6h-13.5c-0.4,2.4-0.9,4.8-1.3,7.1h16.8v11.9H483.8z M446.5,465.4c-1.6,2.8-3.1,5.3-4.7,7.9c6,1.9,12.1,4.1,18.5,6.5
			c3.4-3.9,6.1-8.7,8.2-14.3H446.5z"/>
		<path class="st0" d="M614.7,497.6v10h-97.3v-10H559V492h-33.8v-9.5H559v-4.8h-30.3v-33.7H559v-4h-41v-9.9h41v-4.7
			c-10.3,0.4-20.8,0.7-30.5,0.8c-0.1-2.9-1.5-7.1-2.6-9.7c25-0.5,54.1-2.3,72.2-5.3l5.9,9.8c-9.3,1.5-20.5,2.7-32.2,3.5v5.5h42.1
			v9.9h-42.1v4h31.9v33.7h-31.9v4.8h35.8v9.5h-35.8v5.6H614.7z M541.2,457.1H559v-4.8h-17.8V457.1z M559,469.5v-4.8h-17.8v4.8H559z
			 M571.9,452.4v4.8h18.8v-4.8H571.9z M590.7,464.7h-18.8v4.8h18.8V464.7z"/>
		<path class="st0" d="M680.9,427.3h5.7v7.7h-5.7v10.6h-19.7v3.2h20.9v6.9h-20.9v3.2h24.9v8h-59.8v-8h23.5v-3.2h-18.9v-6.9h18.9
			v-3.2h-18.7v-6.8h18.7v-3.8h-24.1v-7.7h24.1v-3.4h-18.4v-6.8h18.4v-5.7h11.4v5.7h19.7V427.3z M625.6,498.4
			c15.2-0.4,38.7-1.2,60.7-2.1l-0.3,9.5c-21.5,1-44.3,1.9-59.6,2.4L625.6,498.4z M681.5,469.9v24.3h-50.2v-24.3H681.5z M641.1,479.2
			h9.9v-3.5h-9.9V479.2z M641.1,488.3h9.9v-3.4h-9.9V488.3z M661.2,427.3h9v-3.4h-9V427.3z M670.2,434.9h-9v3.8h9V434.9z M671,475.7
			h-9.4v3.5h9.4V475.7z M671,484.9h-9.4v3.4h9.4V484.9z M701.2,484h-11.6v-59.8h11.6V484z M721.9,413.5v82.5c0,6.7-1.4,10.1-5.3,12
			c-3.9,2-9.7,2.5-18.1,2.4c-0.4-3.4-2.1-8.8-3.9-12.4c5.7,0.2,10.9,0.2,12.8,0.2c1.7,0,2.4-0.5,2.4-2.2v-82.5H721.9z"/>
		<path class="st0" d="M812.4,495.2c6.8,0,15.3-0.5,19.7-1.4c0.4,3.1,1.2,8.8,1.8,11.8c-4.1,1.1-13.6,1.2-22.2,1.2h-42.3
			c-18.9,0-27.8-5.7-27.8-25.3v-55.3h-4.3v-11.2h91.2v11.2h-74.4v56.1c0,9.2,3.1,12.9,14.2,12.9H812.4z M759,461.1h29.6v28.6H759
			V461.1z M769.4,481.1h8.4v-11.6h-8.4V481.1z M812.2,456.4H770v-25.3h42.2V456.4z M799.5,439.4h-17.6v8.7h17.6V439.4z M823.7,489.6
			h-30.3v-28.6h30.3V489.6z M812.6,469.6h-8.7v11.6h8.7V469.6z"/>
		<path class="st0" d="M339.3,554.3c-7.8,17.4-20.4,35.4-32,46.5c-2.5-2.8-8.2-8.3-11.4-10.8c11.4-9.5,22.6-24.9,29.1-40.3
			L339.3,554.3z M369.4,603.1c8.7,11.7,18.6,26.8,23.8,36.7l-13.2,6.9c-1.4-3.1-3.3-6.6-5.6-10.4c-51.8,4-59.1,4.7-64.4,6.6
			c-0.9-2.7-3.3-9.8-5.3-13.5c3.5-1,6.4-3.8,10.7-8.5c4.5-4.6,17.9-22.6,26.4-40.3l14.9,6.2c-8.3,14.3-18.6,28.6-29,40.1l39.4-2.5
			c-3.4-5.3-7-10.8-10.3-15.5L369.4,603.1z M371.4,550c4.6,14.9,14.4,29.9,27.6,37.8c-2.9,2.8-7.5,8.8-9.7,12.8
			c-12.2-9.2-21.8-23.5-27.8-37.5h-17.2V550H371.4z"/>
		<path class="st0" d="M502.1,551.5v95.3h-12.4V643h-67.1v3.8h-12v-95.3H502.1z M489.7,631.6v-68.7h-67.1v68.7H489.7z M460.7,617.2
			c-0.3,2.3-0.2,5.8,0,7.6c-18.2,4.5-21.4,5.5-23.2,6.6c-0.4-1.9-1.8-5.2-2.9-6.5c1.6-0.7,3.5-1.9,3.5-5.9v-3.8
			c-2.9,1.1-5.8,2-8.5,2.9c-1.3-1.7-4.3-5.3-6.1-7c7-1.4,14.4-3.6,20.4-6.4h-12.2v-15.2h49.5v15.2h-23.1c-3,2.4-6.8,4.7-10.8,6.6v9
			L460.7,617.2z M485.9,586.5h-59.7v-7h23.9v-4.1h-18.9v-6.8h18.9v-4.5h11.6v4.5h19.7v6.8h-19.7v4.1h24.1V586.5z M442.3,599.3H470
			v-4.4h-27.7V599.3z M487.1,610.8c-2.8,2.1-5.9,3.9-9,5.6c3.8,2.7,7.1,5.1,9.4,7.2l-8.2,4.8c-5.4-5-16.6-13.1-25.7-18.5l7.7-4.3
			c3,1.8,6.4,4,10,6.3c3-2,6.1-4.3,8.2-6.1L487.1,610.8z"/>
		<path class="st0" d="M542.7,596.1c2.7-3.1,5.8-7.3,7.4-10.2l7.5,6.9c-3.4,3.1-6.7,6.3-9.3,8.8c3.2,3.4,6.3,6.7,7.5,8l-6.7,9.9
			c-1.8-3-5-7.6-8.4-11.9v39h-11.5v-37.9c-3.3,3.8-6.7,7.1-10.1,9.9c-0.9-3.5-3.8-10.2-5.4-12.5c9.2-6.6,18.6-17.7,24.4-29.2H517
			v-11.4h17.1c-2-3.9-5.3-9-7.9-13l9.1-5.5c3.2,4.1,7.1,9.8,9,13.4l-7.3,5.1h7.5l2-0.5l6.3,5.1c-3.1,8.2-7.2,16.3-12.1,23.7v0.6
			L542.7,596.1z M615.2,633.2v11.2h-61.1v-11.2H578v-10.8h-19.7v-11.1H578V603h-20.4v-50.7h53.6V603h-21.2v8.3h22v11.1h-22v10.8
			H615.2z M569,572.6h9v-9.7h-9V572.6z M578,592.4v-9.9h-9v9.9H578z M599.1,562.9h-9.2v9.7h9.2V562.9z M599.1,582.5h-9.2v9.9h9.2
			V582.5z"/>
		<path class="st0" d="M722.8,563.8c0,0,0,4.3-0.1,5.7c-1.4,47.5-2.6,64.4-7,70c-3,3.9-6,5.1-10.3,5.8c-4.1,0.5-10.5,0.4-16.8,0.2
			c-0.2-3.5-1.9-8.8-4.2-12.3c6.9,0.6,13.2,0.6,16,0.6c2.1,0,3.3-0.4,4.7-1.8c3.1-3.4,4.5-19.3,5.7-56.8h-23
			c-2.8,6.4-6.1,12.2-9.4,16.8c-1.7-1.6-5.4-4-8.3-5.9v49.6h-28.7v7.8h-11.6v-78.9H642c1.4-5.3,2.7-12.1,3.1-17.1l14,1.9
			c-1.8,5.3-3.8,10.6-5.6,15.2h16.6v17.2c6.2-8.9,11.4-21.8,14.5-34.2l12.1,2.8c-1.1,4.6-2.6,9-4.2,13.5H722.8z M658.5,575.6h-17.1
			v17.2h17.1V575.6z M658.5,624.6v-20.8h-17.1v20.8H658.5z M694.1,618.8c-3-6.4-9.7-16.8-14.9-24.5l10-5.6
			c5.4,7.3,12.4,17.4,15.8,23.6L694.1,618.8z"/>
		<path class="st0" d="M824.7,593.9c-4.3,3.3-9.1,6.7-13.8,9.9c4.2,12.5,12.8,23.1,25.1,27.9c-2.9,2.3-6.7,7.2-8.5,10.3
			c-12.9-6.1-21.4-17.4-26.6-31.9c-1.1,0.7-2.3,1.4-3.3,2c3,12.7,0.4,25-5,29.4c-3.8,3.8-7.2,4.9-12.8,5c-2.4,0.1-5.6,0-8.7-0.1
			c-0.2-3.5-1.3-8.5-3.4-12c3.8,0.4,7.2,0.5,9.7,0.5c2.6,0,4.3-0.3,5.8-2.5c1.8-1.7,3.1-5.6,3.1-10.7c-12.2,8.3-29.1,16.2-43.4,20.4
			c-1.4-3.1-4.2-7.7-6.7-10.5c17-3.6,37.6-12.7,48.2-21.7c-0.4-1.3-1-2.7-1.6-4c-10.7,6.7-26.4,13.6-38.6,17.3
			c-1.4-2.9-4.1-7.1-6.3-9.8c13.2-2.8,30.8-9.5,40.1-15.6c-1-1.2-1.9-2.3-3-3.5c-9.3,4.9-19.7,8.5-29.8,11.2
			c-1.2-2.4-4.4-7.4-6.5-9.9c12.1-2.4,24.9-6.5,34.6-11.7h-18.5v-10.7h60v10.7h-23.8c-1.9,1.7-4.1,3.4-6.4,4.9
			c4.2,3.8,7.3,8.3,9.4,12.9c7.4-4.9,15.1-10.9,20.3-16L824.7,593.9z M751.3,579.8h-12.6v-24h38.8c-0.8-2-1.7-4-2.6-5.6l13.5-3.8
			c1.7,2.9,3.5,6.4,4.6,9.5h38.2v24h-13.1v-12.5h-67V579.8z"/>
	</g>
	<path class="st0" d="M836,379.3H295.4v-5.5H836V379.3z"/>
	<g>
		<path class="st0" d="M423.4,205.9h-35c0.9-20.3,7.3-36.3,19.2-48c11.8-11.7,27-17.5,45.6-17.5c11.4,0,21.6,2.4,30.3,7.2
			c8.8,4.8,15.8,11.8,21,20.9c5.3,9.1,7.9,18.4,7.9,27.7c0,11.2-3.2,23.2-9.6,36.1c-6.4,12.9-18,28.2-34.9,45.8l-21.2,22.3h67.2
			v33.2H383.3v-17.2l58.3-59.5c14.1-14.3,23.5-25.7,28.1-34.4c4.7-8.7,7-16.5,7-23.5c0-7.3-2.4-13.3-7.2-18
			c-4.8-4.7-11-7.1-18.6-7.1c-7.7,0-14.1,2.9-19.2,8.6C426.5,188.3,423.7,196,423.4,205.9z"/>
		<path class="st0" d="M671.5,287H613v23.7c0,10-2.4,15.1-10,17.9c-7.5,3-17.6,3.1-30.4,3.1c-1.3-5.6-4.9-14-8.2-19
			c9.7,0.3,21.5,0.3,24.6,0.3c3.1,0,4.1-0.6,4.1-2.8V287h-58.2v-17.7h58.2v-8.3c6.6-3.3,13.2-8,19.1-12.9h-50.5v-17.4H631l4.2-0.9
			l12.4,9.7c-9.1,9.6-21.5,19.6-34.7,27.1v2.7h58.5V287z M554,236.3h-18.4v-35.9h58.7c-1.9-3.6-3.9-7.4-6.1-10.4l18.7-5.6
			c3.8,4.7,7.5,11,9.6,16h54v35.9h-19.3v-18.4H554V236.3z"/>
		<path class="st0" d="M754.5,310c-22,5.3-46,11-63.8,15.1l-4.2-17.4c10.7-1.9,24.9-4.7,40-7.8l-3.8-0.9c2.2-8.8,4.7-22.1,5.5-32
			l18.2,3.9c-2.7,9.1-5.3,18.8-7.8,26.5l14.4-3L754.5,310z M752.1,209.8h-63.1v-17.1h63.1V209.8z M748.7,264.7h-55.4v-43.9h55.4
			V264.7z M700.4,300c-0.2-7.4-2.2-19.1-5.2-27.9l14.9-3.8c3.3,8.8,5.6,20.1,6.1,27.5L700.4,300z M732,235.4H709v14.7H732V235.4z
			 M789.6,311.3c-8.5,8-22.7,16.3-34.8,20.9c-2.7-3.3-8.2-8.6-12.2-11.9c11.8-4.1,25.3-12.1,31.8-18.7L789.6,311.3z M780.2,217.9
			c0.6-3.5,1.1-7.1,1.6-10.5h-25.9v-15.7h75.6v15.7h-29.3c-1.1,3.6-2.2,7.2-3.3,10.5H828v82.8h-68.4v-82.8H780.2z M810.2,231.7
			h-33.6v9.9h33.6V231.7z M810.2,254.3h-33.6v9.9h33.6V254.3z M810.2,277.2h-33.6v10h33.6V277.2z M810.2,302.8
			c8.3,5.5,20.1,13.8,26.2,19.5l-14.9,9.9c-5.3-5.6-16.8-14.6-25.4-20.5L810.2,302.8z"/>
		<path class="st0" d="M333,233.3c-0.2,1.4-0.4,2.7-0.7,3.9h23.9c0,0-0.1,2-0.2,3c-0.7,9.1-1.8,13.5-3.6,15.3
			c-1.6,1.6-3.5,2.1-6,2.3c-2.1,0.3-5.7,0.3-9.7,0.1c-0.1-2.3-1-5.3-2.3-7.3c3.4,0.4,6.6,0.4,8.1,0.4c1.1,0,1.8-0.1,2.5-0.7
			c0.8-0.7,1.4-2.7,1.9-6.6h-16.8c-2.9,6.3-8.3,11-18.9,14.3c-0.8-2.1-2.9-5.1-4.6-6.8c-1.4,2.8-3,5.3-5.1,7.6
			c-1.3-1.8-4.6-5.2-6.3-6.4c7.9-9.4,8.6-23.1,8.6-33.7v-23.9c16.9-1,35.9-2.8,47.3-5.5l6.7,6.5c-12.7,2.9-29.7,4.6-45.3,5.5v2.3
			h46.3v17.7h-20.4c0.8,1.5,1.7,3.4,2.4,5.1h22.4v6.9H333z M311.7,233.3c-0.9,6.1-2.4,12.4-5.1,18c13.1-3.6,16.4-9.6,17.6-18H311.7z
			 M331.1,226.5c-0.5-1.3-1-2.7-1.6-3.8l7.1-1.3h-24.1c-0.1,1.6-0.1,3.3-0.2,5.1H331.1z M312.6,210.4v4.3h37.6v-4.3H312.6z"/>
		<path class="st0" d="M316.8,269.9c-1.5,4.7-3.5,9.6-5.6,14.3v51.9h-8.3v-36.8c-1.5,2.2-3,4.3-4.6,6c-0.7-2.1-2.8-7.1-4.2-9.4
			c5.9-6.9,11.3-17.6,14.6-28.4L316.8,269.9z M349.8,325.3c5.7,1.9,11.9,4.3,15.5,6.2l-7.5,4.9c-3.5-2.1-9.8-5-15.8-7.1l4.7-4.1
			h-14.4l4.9,3.5c-4.8,3.4-12.2,6-18.7,7.5c-1-1.8-3-4.4-4.6-6c5.5-1,11.5-2.9,15.6-5H319v-27.5h41.7v27.5H349.8z M348.7,277v3.2
			h12.7v15.2h-43.5v-15.2h12.1V277h-13.4v-6.3h47.1v6.3H348.7z M325.4,290.2h4.5v-5h-4.5V290.2z M327.1,305.5h25v-2.7h-25V305.5z
			 M327.1,312.9h25v-2.7h-25V312.9z M327.1,320.4h25v-2.8h-25V320.4z M341.6,277h-4.8v3.2h4.8V277z M336.9,290.2h4.8v-5h-4.8V290.2z
			 M348.7,285.2v5h4.7v-5H348.7z"/>
	</g>
</g>
</svg>
