<svg width="122" height="302" viewBox="0 0 122 302" fill="none" xmlns="http://www.w3.org/2000/svg">
<path d="M76.4102 16.11C76.4102 9.38 78.1102 4.97 82.3302 0.75L85.6002 4.02C81.8902 7.73 80.6902 11.19 80.6902 16.23C80.6902 22.77 83.7702 26.8 89.0002 26.8C91.3302 26.8 93.3402 26.11 94.6002 24.66C95.8602 23.21 96.2402 22.08 96.7402 18.81L97.5602 13.59C98.1301 10.07 99.2602 7.3 100.96 5.35C102.97 3.09 105.74 1.95 109.33 1.95C116.94 1.95 121.98 7.42 121.98 16.3C121.98 22.03 120.53 25.8 117.07 29.64L113.99 26.56C116.51 23.79 117.83 20.83 117.83 16.11C117.83 10.13 114.5 6.67 109.52 6.67C107.32 6.67 105.56 7.3 104.36 8.68C103.16 10.06 102.28 12.39 101.91 14.72L101.15 19.63C100.52 23.85 99.6402 25.92 98.0002 27.81C95.9202 30.26 92.8401 31.59 89.1301 31.59C81.2601 31.59 76.4202 25.42 76.4202 16.11H76.4102Z" fill="#D68F41"/>
<path d="M76.7891 40.77H107.749V45.3H76.7891V40.77ZM116.559 40.52H121.659V45.62H116.559V40.52Z" fill="#D68F41"/>
<path d="M76.7891 64.4301C76.7891 59.0201 80.3091 56.5601 85.0291 56.5601H121.589V61.0901H85.2191C82.1991 61.0901 80.6891 62.1001 80.6891 65.2401V67.6901H76.7891V64.4201V64.4301Z" fill="#D68F41"/>
<path d="M76.7891 95.7699L92.6491 85.9499L85.7291 79.9099H76.7891V75.3799H121.589V79.9099H91.6391L107.749 93.8799V99.5399L95.9191 89.0299L76.7891 101.36V95.7599V95.7699Z" fill="#D68F41"/>
<path d="M76.4102 118.86C76.4102 113.64 77.6101 109.55 80.8801 106.15L83.9002 109.17C81.3202 111.62 80.3102 114.96 80.3102 118.8C80.3102 123.9 82.1402 127.04 85.7902 127.04C88.5002 127.04 90.0102 125.47 90.3202 121.88L90.7602 116.78C91.2602 110.74 93.9702 107.53 99.0702 107.53C104.73 107.53 108.13 112.31 108.13 118.92C108.13 123.32 107.06 127.29 104.8 130.06L101.84 127.1C103.54 124.9 104.29 122.07 104.29 118.86C104.29 114.33 102.34 111.94 99.1902 111.94C96.5502 111.94 94.9702 113.45 94.6602 117.35L94.2202 122.32C93.7202 127.73 91.6402 131.44 85.8502 131.44C80.0602 131.44 76.4102 126.34 76.4102 118.85V118.86Z" fill="#D68F41"/>
<path d="M95.2291 173.48V161.59H76.7891V156.81H121.589V173.49C121.589 181.67 116.489 187.33 108.439 187.33C100.389 187.33 95.2291 181.67 95.2291 173.49V173.48ZM117.319 173.04V161.59H99.5091V173.04C99.5091 178.64 102.529 182.54 108.449 182.54C114.369 182.54 117.319 178.64 117.319 173.04Z" fill="#D68F41"/>
<path d="M76.7891 203.37C76.7891 197.96 80.3091 195.5 85.0291 195.5H121.589V200.03H85.2191C82.1991 200.03 80.6891 201.04 80.6891 204.18V206.63H76.7891V203.36V203.37Z" fill="#D68F41"/>
<path d="M76.7902 231.87H79.7502C77.2302 229.35 76.4102 227.09 76.4102 222.93C76.4102 218.77 77.2302 216.14 79.2402 214.18C80.7502 212.67 83.0802 211.85 85.5302 211.85C90.9402 211.85 94.4702 215.63 94.4702 222.55V231.86H97.4302C101.96 231.86 104.23 229.6 104.23 223.93C104.23 219.97 103.29 217.95 100.71 216.13L103.54 213.05C107.13 215.82 108.13 218.97 108.13 224C108.13 232.31 104.54 236.4 97.8102 236.4H76.7902V231.87ZM91.0702 231.87V223.19C91.0702 218.53 89.1802 216.27 85.6002 216.27C82.0202 216.27 80.3102 218.47 80.3102 223.38C80.3102 226.02 80.5002 228.35 82.3902 230.3C83.4002 231.37 85.1602 231.87 87.7402 231.87H91.0802H91.0702Z" fill="#D68F41"/>
<path d="M76.4102 259.43C76.4102 251.63 81.7001 245.71 92.2701 245.71C102.84 245.71 108.13 251.62 108.13 259.43C108.13 263.71 107 266.42 103.54 269.63L100.65 266.55C103.23 264.22 104.11 262.4 104.11 259.44C104.11 256.48 102.91 253.9 100.59 252.27C98.5801 250.82 96.1902 250.26 92.2802 250.26C88.3702 250.26 85.9902 250.83 83.9702 252.27C81.6402 253.91 80.4501 256.42 80.4501 259.44C80.4501 262.46 81.3902 264.22 83.9702 266.55L81.0102 269.63C77.5502 266.42 76.4202 263.71 76.4202 259.43H76.4102Z" fill="#D68F41"/>
<path d="M91.0704 280.13C84.2704 280.13 80.3704 283.34 80.3704 289.25C80.3704 292.84 81.4404 294.91 83.8904 297.37L81.1804 300.45C78.0304 297.3 76.4004 294.41 76.4004 289.12C76.4004 280.94 81.3104 275.59 92.2604 275.59C102.26 275.59 108.12 280.43 108.12 288.3C108.12 296.17 102.33 301.01 93.1404 301.01H91.0604V280.12L91.0704 280.13ZM99.6304 295.55C102.46 294.35 104.29 291.59 104.29 288.31C104.29 285.03 102.46 282.27 99.6304 281.07C97.9304 280.38 96.9904 280.25 94.4704 280.12V296.48C96.9904 296.36 97.9304 296.23 99.6304 295.54V295.55Z" fill="#D68F41"/>
<path d="M40.9009 17.75H0.380859V12.97H40.9109V0H45.1909V30.71H40.9109V17.75H40.9009Z" fill="#D68F41"/>
<path d="M0.38 51.03H3.34C0.82 48.51 0 46.25 0 42.09C0 37.93 0.82 35.3 2.83 33.34C4.34 31.83 6.67 31.01 9.12 31.01C14.53 31.01 18.06 34.79 18.06 41.71V51.02H21.02C25.55 51.02 27.82 48.76 27.82 43.09C27.82 39.13 26.88 37.11 24.3 35.29L27.13 32.21C30.72 34.98 31.72 38.13 31.72 43.16C31.72 51.47 28.13 55.56 21.4 55.56H0.38V51.03ZM14.66 51.03V42.35C14.66 37.69 12.77 35.43 9.19 35.43C5.61 35.43 3.9 37.63 3.9 42.54C3.9 45.18 4.09 47.51 5.98 49.46C6.99 50.53 8.75 51.03 11.33 51.03H14.66Z" fill="#D68F41"/>
<path d="M0.380859 66.5701H31.3409V71.1001H0.380859V66.5701ZM40.1509 66.3201H45.2509V71.4201H40.1509V66.3201Z" fill="#D68F41"/>
<path d="M0.380859 102.31H19.4509C24.9209 102.31 27.6909 99.35 27.6909 94.69C27.6909 90.03 24.8609 87.01 19.4509 87.01H0.380859V82.48H31.3409V87.01H27.9409C30.4609 89.21 31.7209 92.23 31.7209 95.69C31.7209 99.15 30.7109 101.73 28.8309 103.62C26.6909 105.82 23.8009 106.83 20.2109 106.83H0.380859V102.3V102.31Z" fill="#D68F41"/>
<path d="M0.38 135.41H3.34C0.82 132.89 0 130.63 0 126.47C0 122.31 0.82 119.67 2.83 117.72C4.34 116.21 6.67 115.39 9.12 115.39C14.53 115.39 18.06 119.17 18.06 126.09V135.4H21.02C25.55 135.4 27.82 133.13 27.82 127.47C27.82 123.51 26.88 121.49 24.3 119.67L27.13 116.59C30.72 119.36 31.72 122.5 31.72 127.54C31.72 135.85 28.13 139.94 21.4 139.94H0.38V135.41ZM14.66 135.41V126.73C14.66 122.07 12.77 119.81 9.19 119.81C5.61 119.81 3.9 122.01 3.9 126.92C3.9 129.56 4.09 131.89 5.98 133.84C6.99 134.91 8.75 135.41 11.33 135.41H14.66Z" fill="#D68F41"/>
<path d="M0.380859 170.78H19.4509C24.9209 170.78 27.6909 167.82 27.6909 163.16C27.6909 158.5 24.8609 155.48 19.4509 155.48H0.380859V150.95H31.3409V155.48H27.9409C30.4609 157.68 31.7209 160.7 31.7209 164.16C31.7209 167.62 30.7109 170.2 28.8309 172.09C26.6909 174.29 23.8009 175.3 20.2109 175.3H0.380859V170.77V170.78Z" fill="#D68F41"/>
</svg>
