<svg width="408" height="45" viewBox="0 0 408 45" fill="none" xmlns="http://www.w3.org/2000/svg">
<path d="M21.58 17.6601V19.7301H16.55C18.25 21.2201 19.73 22.7101 20.93 24.1801L19.33 25.8501C18.88 25.2401 18.41 24.6401 17.85 24.0301C12.85 24.6401 7.65 25.0401 2.24 25.2701L1.64 23.3501C2.22 23.2501 2.74 23.0201 3.19 22.7201C3.89 22.1101 4.84 21.1301 5.99 19.7401H0V17.6701H21.58V17.6601ZM20.55 3.11011V5.11011H11.92V6.25011H21.5V11.7001H19.17V8.16011H11.92V13.3901H9.62V8.16011H2.38V11.7001H0.05V6.25011H9.63V5.11011H0.98V3.11011H20.56H20.55ZM19.6 14.4001V16.4201H1.95V14.4001H19.61H19.6ZM8.52 12.8301C7.52 13.1801 5.82 13.4901 3.47 13.7401L3.02 12.1501C5.32 12.0001 7 11.7201 8.02 11.3701L8.52 12.8301ZM8.47 9.50011L7.89 10.9401C6.39 10.6901 4.84 10.4901 3.19 10.3301L3.94 8.87011C5.52 9.02011 7.02 9.22011 8.47 9.50011ZM5.64 23.1101C9.77 22.8801 13.27 22.6001 16.17 22.2801C15.57 21.7001 14.94 21.1201 14.27 20.5601L15.12 19.7301H8.72C7.82 20.9401 6.79 22.0801 5.64 23.1101ZM18.52 12.2301L17.89 13.7701C16.29 13.3401 14.64 13.0101 12.94 12.7601L13.64 11.4001C15.34 11.5801 16.97 11.8601 18.52 12.2301ZM13.07 9.40011C14.75 9.27011 16.25 9.00011 17.57 8.54011L18.15 10.1601C16.8 10.5101 15.2 10.7701 13.37 10.9401L13.07 9.40011Z" fill="#221815"/>
<path d="M34.7292 22.0099C32.4292 22.8699 29.9492 23.5699 27.2992 24.1599L26.6992 21.7799C28.1492 21.5499 29.5792 21.2499 30.9792 20.8999C31.4792 17.3099 31.8592 13.5199 32.0992 9.52988L34.2292 9.82988C33.9292 13.5899 33.5292 17.0799 32.9992 20.3099L34.7292 19.6999V21.9999V22.0099ZM29.8292 6.34988C29.4992 5.13988 29.1492 4.04988 28.7492 3.03988L31.1292 2.63988C31.4592 3.72988 31.7792 4.95988 32.0792 6.34988H34.8292V8.61988H26.7792V6.34988H29.8292ZM30.4292 19.6099L28.5292 20.0899C28.1992 16.7599 27.7992 13.5199 27.2992 10.4199L29.2492 9.78988C29.6992 12.6399 30.0792 15.9299 30.4192 19.6099H30.4292ZM49.5592 10.7499V12.9699H43.2092C43.0592 13.6299 42.8592 14.2599 42.6592 14.8899H49.0092V23.4499C49.0092 24.8399 48.4092 25.5499 47.2092 25.5499H46.0892L45.5092 23.3999L46.5092 23.4999C46.7592 23.4999 46.8892 23.3199 46.8892 22.9999V17.0199H45.1592V25.0999H43.1792V17.0199H41.6492V25.1299H39.6692V17.0199H37.9892V25.5599H35.8592V14.8999H40.3092C40.5292 14.2699 40.7092 13.6399 40.8592 12.9799H35.3092V10.7599H49.5392L49.5592 10.7499ZM46.2592 3.37988H48.5092V9.13988H36.2092V3.36988H38.4892V7.02988H41.1892V2.37988H43.4892V7.02988H46.2692V3.36988L46.2592 3.37988Z" fill="#221815"/>
<path d="M56.6093 8.61996L54.5293 7.30996C55.9793 5.73996 57.0093 4.02996 57.6293 2.20996L59.9093 2.70996C59.7593 3.13996 59.5893 3.56996 59.4393 3.96996H65.7393V6.06996H61.9893C62.4393 6.69996 62.8393 7.30996 63.1393 7.88996L60.9593 8.71996C60.5393 7.80996 60.0593 6.92996 59.5093 6.06996H58.4093C57.8593 6.97996 57.2593 7.83996 56.6093 8.61996ZM76.5393 13.92H74.2093V11.12H57.3493V13.92H55.0193V9.09996H64.6993C64.4993 8.58996 64.2793 8.13996 64.0493 7.72996L66.1493 7.37996L65.7193 7.09996C66.8693 5.57996 67.7193 3.96996 68.2193 2.22996L70.4993 2.72996C70.3493 3.15996 70.2193 3.55996 70.0693 3.96996H77.0193V6.06996H72.9393C73.3393 6.61996 73.6593 7.17996 73.9393 7.68996L71.8393 8.46996C71.4393 7.65996 70.9593 6.84996 70.4093 6.06996H69.1293C68.7093 6.89996 68.2293 7.68996 67.6993 8.38996L66.4993 7.60996C66.6993 8.05996 66.8793 8.56996 67.0793 9.09996H76.5093V13.92H76.5393ZM73.0893 17.56H60.9093V18.9H74.2593V25.64H71.8793V24.73H60.8993V25.61H58.5193V12.25H73.0793V17.55L73.0893 17.56ZM70.7593 15.64V14.18H60.9093V15.64H70.7593ZM71.8793 22.61V20.79H60.8993V22.61H71.8793Z" fill="#221815"/>
<path d="M100.72 8.51993V10.7399H95.1705C94.5705 11.1399 94.0005 11.5199 93.4405 11.8799C94.3205 12.8399 95.0205 13.8999 95.5205 15.0099C97.5205 14.1999 99.4205 12.9899 101.22 11.3499L102.87 12.9699C101.17 14.4899 99.2705 15.6999 97.1405 16.5599C99.0905 18.7099 101.64 20.5199 104.79 22.0399L103.54 24.1899C100.66 22.6199 98.3105 20.7799 96.5105 18.6099C96.5605 19.0899 96.6105 19.5699 96.6105 20.0699C96.6105 22.1099 96.3105 23.4999 95.7605 24.2599C95.1105 25.1399 93.6605 25.5999 91.3805 25.5999H90.5805L89.7805 23.4999H91.0605C92.4605 23.4799 93.3405 23.2699 93.6905 22.9199C94.0905 22.4199 94.3205 21.4799 94.3205 20.0699C94.3205 19.8199 94.2905 19.5599 94.2905 19.3399C91.5905 21.3799 88.0405 23.0799 83.6605 24.4399L82.4805 22.3899C87.3605 20.9999 91.1605 19.2099 93.8805 17.0299C93.7305 16.5299 93.5305 16.0199 93.3305 15.5699C90.9805 17.3399 87.8505 18.7799 83.9805 19.9099L82.8005 17.8399C86.9005 16.7799 90.0805 15.4399 92.3305 13.8199C92.0805 13.4699 91.8505 13.1599 91.6005 12.8599C91.5005 12.9099 91.4305 12.9399 91.3505 12.9899C89.7205 13.7699 87.4205 14.6099 84.4705 15.4899L83.2705 13.4899C85.5705 13.0099 87.7205 12.3499 89.7205 11.5199C90.3205 11.2699 90.9005 11.0099 91.4505 10.7399H85.8505V8.51993H100.71H100.72ZM94.6405 4.34993H104.02V9.04993H101.64V6.57993H84.9305V9.04993H82.5505V4.34993H92.2305C91.9805 3.68993 91.7005 3.10993 91.4005 2.57993L93.8505 2.17993C94.1205 2.83993 94.3805 3.53993 94.6305 4.34993H94.6405Z" fill="#221815"/>
<path d="M166.78 19.74L162.5 22.65C161.56 20.77 160.43 18.7 159.12 16.54C151.51 18.14 139.62 19.88 129.61 20.77L128.25 15.6C130.41 15.69 132.57 15.74 134.78 15.74C138.4 11.23 141.59 4.88 143.62 0L148.51 2.35C145.55 6.67 141.65 11.94 137.56 15.74C145.08 15.69 152.51 15.22 158.05 14.75C156.55 12.45 154.9 10 153.02 7.51L154.38 6.33C158.94 10.04 164.67 16.39 166.79 19.72L166.78 19.74ZM133.32 24.58H161.19V43.99H156.77V40.51H137.74V43.94H133.32V24.58ZM137.74 38.35H156.77V26.69H137.74V38.35Z" fill="black"/>
<path d="M197.279 8.64992V13.8199H213.309V39.3399C213.309 44.0899 209.269 45.6399 201.699 40.9399L202.169 39.2999C208.049 40.7099 209.079 40.2899 209.079 37.9399V15.9299H181.679V43.8899H177.449V13.8199H192.909V8.64992H174.529V6.52992H192.909V0.419922H197.329V6.52992H215.939V8.64992H197.279ZM207.709 32.9499H197.319V42.3499H193.179V32.9499H183.119V30.8399H193.179V26.2299H183.689V24.1199H189.849C188.859 21.8199 187.499 19.3199 186.089 17.3999L187.359 16.2699C189.659 17.8699 191.919 20.1199 193.749 22.5199L191.349 24.1199H196.799C197.879 22.0999 199.289 18.7599 199.999 16.1299L204.319 18.2499C202.439 20.7399 200.469 22.7099 199.009 24.1299H207.089V26.2399H197.309V30.8499H207.699V32.9599L207.709 32.9499Z" fill="black"/>
<path d="M241.181 22.4201V43.4301H237.141V40.4201H228.681V43.7101H224.641V22.4201H241.181ZM237.141 24.5401H228.681V30.1301H237.141V24.5401ZM237.141 32.2501H228.681V38.3101H237.141V32.2501ZM254.861 2.3601V18.4301H231.881V2.3501H254.861V2.3601ZM250.821 4.4701H235.921V9.3101H250.821V4.4701ZM250.821 11.4301H235.921V16.3201H250.821V11.4301ZM261.771 22.4301V43.4401H257.731V40.3401H249.271V43.7201H245.231V22.4301H261.771ZM257.731 24.5501H249.271V30.1401H257.731V24.5501ZM257.731 32.2601H249.271V38.2301H257.731V32.2601Z" fill="black"/>
<path d="M312.861 39.0999L310.231 44.1299C303.741 42.9999 295.001 38.1099 291.951 29.7999H291.901C289.691 36.3299 283.911 41.8799 270.701 44.4599L270.141 42.9099C281.091 39.6699 285.601 34.8699 287.431 29.7999H271.221V27.6799H277.281V16.0299H288.701V10.1099H293.161V16.0299H304.821V27.6799H311.161V29.7999H293.771C298.051 35.9099 304.481 38.2099 312.851 39.1099L312.861 39.0999ZM281.751 7.93991H270.381V5.81991H281.751V0.659912H285.891V5.82991L296.041 5.77991V0.659912H300.181V5.77991H311.741V7.89991H300.181V13.0699H296.041V7.89991L285.891 7.94991V13.0699H281.751V7.94991V7.93991ZM288.051 27.6799C288.661 25.1899 288.711 22.6999 288.711 20.2999V18.1399H281.431V27.6799H288.061H288.051ZM293.171 18.1399V21.2899C293.171 23.4499 292.981 25.6099 292.511 27.6799H300.691V18.1399H293.171Z" fill="black"/>
<path d="M323.9 20.82C322.4 18.42 319.95 14.9 318.07 12.45L319.15 11.13C321.78 12.73 325.02 14.98 327.37 17.48L323.89 20.82H323.9ZM326.86 22.09L328.46 22.75C326.91 29.42 324.98 37.6 323.29 41.83L318.68 39.29C321.17 34.92 324.37 27.96 326.86 22.09ZM319.86 0.280029C322.21 1.50003 326.35 4.04003 328.6 6.25003L325.45 9.68003C323.62 7.19003 320.47 3.43003 318.87 1.64003L319.86 0.280029ZM349.37 5.26003V11.79H357.08V43.7H352.94V40.13H335.46V43.94H331.32V11.79H338.98V5.26003H329.25V3.14003H359.52V5.26003H349.37ZM335.46 13.81V30.77H352.94V25.51H349.51C347.39 25.51 345.51 24.34 345.51 21.85V13.81H342.83V15.5C342.83 22.13 341.14 25.51 337.24 28.61L336.07 27.39C338.61 24.29 338.98 21.19 338.98 14.75V13.81H335.45H335.46ZM352.94 38.01V32.89H335.46V38.01H352.94ZM345.51 5.25003H342.83V11.78H345.51V5.25003ZM349.36 13.8V20.66C349.36 21.84 349.83 21.93 351.57 21.93H352.93V13.8H349.36Z" fill="black"/>
<path d="M407.18 6.62V8.74H374.8V18.14C374.8 32.57 372.22 38.91 367.8 44.08L366.48 43C369.21 37.97 370.57 33.69 370.52 18.14L370.47 6.62H389.46C386.73 4.65 383.91 3.05 381.24 1.64L381.71 0C385.05 0.52 389.04 1.5 392.28 3.05L390.35 6.62H407.17H407.18ZM391.58 17.15H406.48V19.27H391.58V26.88H403.19V43.24H399.05V40H381.57V43.48H377.43V26.89H387.35V10.34H391.58V17.15ZM381.57 28.99V37.87H399.05V28.99H381.57Z" fill="black"/>
</svg>
