<svg width="247" height="27" viewBox="0 0 247 27" fill="none" xmlns="http://www.w3.org/2000/svg">
<path d="M4.22 15.2599C6.62 15.2599 8.86 15.1399 10.77 14.9499C10.36 14.5099 9.94 14.0999 9.49 13.6699L9.85 13.1799C11.21 13.8399 12.91 14.8499 14.24 16.1799L12.93 17.5399C12.4 16.8299 11.87 16.1799 11.33 15.5699C8.88 16.1999 5.02 16.8299 1.41 17.0699L0.93 15.1999C1.71 15.2299 2.48 15.2499 3.24 15.2699C3.85 14.4399 4.35 13.5699 4.7 12.7499H0V11.9799H14.5V12.7499H6.74C5.99 13.7399 5.17 14.5199 4.22 15.2699V15.2599ZM1.65 7.56994H0.22V4.23994H6.5V2.95994H1.38V2.18994H13.17V2.95994H8V4.23994H14.33V7.56994H12.9V4.99994H8V9.46994H6.5V4.99994H1.65V7.56994ZM1.92 9.99994H12.43V10.7699H1.92V9.99994ZM5.88 6.72994H2.21V6.01994H5.88V6.72994ZM2.21 7.91994H5.88V8.62994H2.21V7.91994ZM12.28 6.00994V6.71994H8.62V6.00994H12.28ZM8.62 7.87994H12.33V8.58994H8.62V7.87994Z" fill="#D68F41"/>
<path d="M22.13 12.5301L22.28 13.0901C21.16 13.7901 18.91 14.8301 16.94 15.3901L16.48 13.7101C17.52 13.6101 18.66 13.4201 19.78 13.1701C20.1 11.3001 20.46 8.63011 20.55 6.23011L22.11 6.52011C21.82 8.75011 21.09 11.3501 20.49 13.0001C21.03 12.8601 21.58 12.7101 22.12 12.5401L22.13 12.5301ZM22.83 5.69011H16.64V4.92011H19.28C19.04 3.90011 18.68 2.64011 18.29 1.65011L18.83 1.39011C19.66 2.34011 20.41 3.70011 20.75 4.59011L19.83 4.91011H22.82V5.68011L22.83 5.69011ZM17.78 12.4801C17.85 10.8101 17.69 8.67011 17.39 6.58011L17.97 6.44011C18.72 8.60011 19.26 10.4701 19.33 12.3301L17.78 12.4801ZM27.48 8.31011C27.19 8.92011 26.87 9.50011 26.53 10.0101H31.46V16.0001C31.46 17.3401 30.29 17.5801 28.53 16.6501L28.58 16.3301H27.63V10.7801H26.37V16.4401H25.21V10.7801H24V17.3001H22.64V10.0201H25.63C25.75 9.48011 25.83 8.93011 25.9 8.32011H22.24V7.55011H31.87V8.32011H27.46L27.48 8.31011ZM30.88 6.39011L23.16 6.41011V2.21011H24.56V5.65011H26.3V1.36011H27.76V5.63011H29.51V2.21011H30.89V6.40011L30.88 6.39011ZM28.79 10.7801V16.0401C29.95 16.2101 30.08 15.9701 30.08 15.4601V10.7801H28.79Z" fill="#D68F41"/>
<path d="M33.93 6.9201L33.52 6.4401C34.58 5.3201 35.71 3.3101 36.24 1.3501L37.86 1.8601C37.66 2.3001 37.45 2.7101 37.25 3.0801H41.64V3.8501H38.59C39.17 4.6001 39.63 5.3801 39.87 5.9601L38.42 6.4701C38.34 5.8601 38.1 4.8501 37.77 3.8501H36.77C35.89 5.2301 34.88 6.2201 33.93 6.9101V6.9201ZM48.71 3.8801H45.36C45.99 4.5601 46.52 5.3101 46.76 5.8201L45.36 6.4101C45.17 5.7601 44.92 4.8101 44.51 3.8801H43.1C42.66 4.4901 42.22 4.9901 41.72 5.3901C42.13 5.6601 42.52 5.9701 42.88 6.3301L42.2 6.9801H48.34V9.9401H46.88V7.7401H35.75V9.9401H34.29V6.9801H41.5C41.02 6.3301 40.43 5.6501 39.97 5.1101L40.31 4.6001L41.16 5.0401C41.94 3.9201 42.44 2.5901 42.71 1.5001L44.26 1.9801C44.04 2.3901 43.83 2.7801 43.61 3.1201H48.71V3.8901V3.8801ZM38.21 13.0001H46.8V17.2401H45.3V16.2501H38.21V17.3201H36.71V8.8801H45.62V11.8401H38.2V13.0001H38.21ZM38.21 11.0801H44.16V9.6501H38.21V11.0801ZM38.21 13.7701V15.4901H45.3V13.7701H38.21Z" fill="#D68F41"/>
<path d="M65.7699 14.44L64.6499 16.07C62.8999 15 61.4999 13.08 60.6499 10.44C60.3399 10.58 59.9999 10.71 59.6599 10.85C60.0499 11.9 60.2699 13.01 60.2599 14C60.1899 17.71 58.1799 18.1 55.5099 16.11L55.7499 15.53C58.1099 16.28 58.6799 16.02 58.7299 13.27C58.7299 13.1 58.7299 12.91 58.7099 12.73C57.5199 13.92 55.1399 15.38 51.3399 16.34L51.1399 15.76C54.3699 14.62 56.7899 12.97 58.4199 11C58.3499 10.73 58.2799 10.46 58.1999 10.2C56.4599 11.54 53.9499 12.55 51.5299 13.16L51.3299 12.58C53.7999 11.7 56.0399 10.42 57.6199 8.79C57.5199 8.57 57.3999 8.38 57.2799 8.19C55.6999 9.09 53.7099 9.76 51.9199 10.13L51.7499 9.55C54.4199 8.65 55.7299 7.87 56.8499 6.78H53.3799V6.01H63.1999V6.78H59.1799C58.8199 7.15 58.3799 7.49 57.8999 7.82C58.4799 8.47 59.0099 9.33 59.4099 10.29C60.6699 9.41 61.4999 8.52 62.2699 7.47L63.7499 8.47C62.8999 9.17 62.0999 9.73 61.1999 10.19C62.2699 12.25 64.0599 13.75 65.7599 14.46L65.7699 14.44ZM52.7699 6.97H51.2699V3.67H58.6699C57.8199 3.09 56.6999 2.38 55.8099 1.83L56.0299 1.25C57.1199 1.45 58.9199 2 59.9099 2.51L59.2499 3.67H65.3199V6.97H63.8199V4.44H52.7599V6.97H52.7699Z" fill="#D68F41"/>
<path d="M106.39 11.77L103.84 13.51C103.28 12.39 102.61 11.16 101.82 9.87C97.2799 10.82 90.1899 11.86 84.2299 12.39L83.4199 9.31C84.7099 9.37 85.9999 9.39 87.3099 9.39C89.4699 6.7 91.3699 2.92 92.5799 0L95.4899 1.4C93.7199 3.98 91.3999 7.11 88.9599 9.38C93.4399 9.35 97.8699 9.07 101.17 8.79C100.27 7.42 99.2899 5.96 98.1699 4.48L98.9799 3.78C101.7 5.99 105.12 9.78 106.38 11.76L106.39 11.77ZM86.4399 14.66H103.05V26.23H100.42V24.16H89.0699V26.2H86.4399V14.66ZM89.0699 22.87H100.42V15.92H89.0699V22.87Z" fill="#D68F41"/>
<path d="M124.01 5.16V8.24H133.56V23.45C133.56 26.28 131.15 27.2 126.64 24.4L126.92 23.42C130.42 24.26 131.04 24.01 131.04 22.61V9.5H114.71V26.17H112.19V8.24H121.41V5.16H110.46V3.9H121.41V0.25H124.04V3.89H135.13V5.15H124.01V5.16ZM130.23 19.64H124.04V25.24H121.57V19.64H115.57V18.38H121.57V15.63H115.91V14.37H119.58C118.99 13 118.18 11.51 117.34 10.36L118.1 9.69C119.47 10.64 120.82 11.99 121.91 13.42L120.48 14.37H123.73C124.37 13.16 125.21 11.18 125.64 9.61L128.22 10.87C127.1 12.35 125.92 13.53 125.05 14.37H129.87V15.63H124.04V18.38H130.23V19.64Z" fill="#D68F41"/>
<path d="M149.61 13.3599V25.8799H147.2V24.0899H142.16V26.0499H139.75V13.3599H149.61ZM147.2 14.6199H142.16V17.9499H147.2V14.6199ZM147.2 19.2099H142.16V22.8199H147.2V19.2099ZM157.76 1.38989V10.9699H144.06V1.39989H157.76V1.38989ZM155.35 2.64989H146.47V5.52989H155.35V2.64989ZM155.35 6.79989H146.47V9.70989H155.35V6.79989ZM161.88 13.3599V25.8799H159.47V24.0299H154.43V26.0499H152.02V13.3599H161.88ZM159.47 14.6199H154.43V17.9499H159.47V14.6199ZM159.47 19.2099H154.43V22.7699H159.47V19.2099Z" fill="#D68F41"/>
<path d="M191.77 23.3099L190.2 26.3099C186.33 25.6399 181.12 22.7199 179.3 17.7699H179.27C177.95 21.6599 174.51 24.9699 166.64 26.5099L166.3 25.5899C172.83 23.6599 175.52 20.7999 176.61 17.7699H166.94V16.5099H170.56V9.55989H177.37V6.02989H180.03V9.55989H186.98V16.5099H190.76V17.7699H180.39C182.94 21.4099 186.78 22.7799 191.77 23.3199V23.3099ZM173.22 4.73989H166.44V3.47989H173.22V0.389893H175.69V3.46989L181.74 3.43989V0.389893H184.2V3.43989H191.09V4.69989H184.2V7.77989H181.74V4.69989L175.69 4.72989V7.77989H173.22V4.72989V4.73989ZM176.97 16.5099C177.33 15.0299 177.36 13.5399 177.36 12.1099V10.8199H173.02V16.5099H176.97ZM180.02 10.8199V12.6999C180.02 13.9899 179.91 15.2799 179.63 16.5099H184.51V10.8199H180.03H180.02Z" fill="#D68F41"/>
<path d="M197.78 12.4099C196.88 10.9799 195.43 8.87992 194.31 7.41992L194.95 6.63992C196.52 7.58992 198.45 8.93992 199.85 10.4199L197.78 12.4099ZM199.55 13.1699L200.5 13.5599C199.58 17.5399 198.43 22.4099 197.42 24.9299L194.67 23.4199C196.15 20.8099 198.06 16.6699 199.55 13.1699ZM195.37 0.169922C196.77 0.899922 199.24 2.40992 200.58 3.72992L198.7 5.76992C197.61 4.27992 195.73 2.03992 194.78 0.979922L195.37 0.169922ZM212.96 3.13992V7.02992H217.56V26.0499H215.09V23.9199H204.67V26.1899H202.2V7.02992H206.77V3.13992H200.97V1.87992H219.01V3.13992H212.96ZM204.67 8.23992V18.3499H215.09V15.2099H213.05C211.79 15.2099 210.67 14.5099 210.67 13.0199V8.22992H209.07V9.23992C209.07 13.1899 208.06 15.2099 205.74 17.0599L205.04 16.3299C206.55 14.4799 206.78 12.6299 206.78 8.78992V8.22992H204.68L204.67 8.23992ZM215.09 22.6699V19.6199H204.67V22.6699H215.09ZM210.66 3.13992H209.06V7.02992H210.66V3.13992ZM212.96 8.23992V12.3299C212.96 13.0299 213.24 13.0899 214.28 13.0899H215.09V8.23992H212.96Z" fill="#D68F41"/>
<path d="M246.86 3.95V5.21H227.56V10.81C227.56 19.41 226.02 23.19 223.39 26.27L222.61 25.63C224.23 22.63 225.05 20.08 225.02 10.81L224.99 3.95H236.31C234.69 2.77 233 1.82 231.41 0.98L231.69 0C233.68 0.31 236.06 0.9 237.99 1.82L236.84 3.95H246.87H246.86ZM237.56 10.23H246.44V11.49H237.56V16.03H244.48V25.78H242.02V23.85H231.6V25.92H229.14V16.03H235.05V6.16H237.57V10.22L237.56 10.23ZM231.59 17.29V22.58H242.01V17.29H231.59Z" fill="#D68F41"/>
</svg>
