<svg id="圖層_3" data-name="圖層 3" xmlns="http://www.w3.org/2000/svg" viewBox="0 0 1440 1400"><defs><style>.cls-1{fill:#1b4a99;}.cls-2{fill:none;stroke:#1b4a99;stroke-miterlimit:10;}</style></defs><path d="M264.72,74.91a25.93,25.93,0,0,0-2.6-6.21c-1.6-2.86-2.86-3.53-7.56-3.53h-9c-2.44,0-2.69.25-2.69,2.69v19.4H253.3c6.05,0,6.47-1,7.73-6.89h2.52V97.93h-2.61c-1.09-5.88-1.68-7.23-7.64-7.23H242.88v15c0,7.31.84,7.64,8.49,8.32v2.35H228v-2.35c6.81-.51,7.56-1.1,7.56-8.32V72.48c0-7.31-.84-7.65-7.56-8.32V61.81h26.63c7.56,0,10.42-.09,11.85-.17.08,3,.42,8.9.84,12.94Z"/><path d="M299.67,116.41v-2.35c5.46-.68,6.13-1.52,4.95-4.71s-2.77-7.47-4.53-12.77H281.94c-1.34,3.78-2.6,7.06-3.78,10.5-1.85,5.46-.67,6.14,6.22,7v2.35H265v-2.35c5.3-.68,6.64-1.26,9.58-8.82l17.39-44.1,2.69-.51C299.92,75,305.71,90.87,311,105.4c2.68,7.31,3.44,8,9.4,8.66v2.35Zm-8.4-44.77c-2.69,7.22-5.55,14.86-8.07,21.5h15.71Z"/><path d="M373.67,103a107,107,0,0,1-4.62,12.68,76.1,76.1,0,0,1-15.37,2c-20.08,0-30.33-13.36-30.33-28.06,0-17.13,13-29,31.84-29,7.22,0,13.1,1.51,15.87,1.93.34,3.78.93,8.82,1.6,13l-2.6.59c-1.68-5.63-3.7-9.07-8-10.83a23,23,0,0,0-8.82-1.6c-13.86,0-21.17,10.25-21.17,24.11,0,16.21,8.4,26.63,22,26.63,8.56,0,12.76-4,17-12.35Z"/><path d="M425.33,103.05c-.51,2.19-2.77,10.84-3.61,13.36H380.89v-2.35c7.81-.59,8.4-1.35,8.4-8.24V72.64c0-7.47-.92-7.89-7.22-8.48V61.81h25.7c7.9,0,11.17-.09,12.18-.17.09,2.1.42,8.4.76,12.85l-2.52.42a28.35,28.35,0,0,0-2.52-6.38c-1.35-2.77-3.28-3.36-8.32-3.36h-8c-2.6,0-2.77.25-2.77,2.69V86.42h9.32c6.3,0,6.72-1.26,7.73-7h2.61v17.3h-2.61c-1.09-6-1.76-6.89-7.81-6.89H396.6v16.72c0,5.88,1.85,6.38,6,6.47h7.81c5.12,0,6-.76,7.81-2.94a36.2,36.2,0,0,0,4.54-7.73Z"/><path d="M479.25,60.63c14.37,0,27.22,11,27.22,27.72,0,18.06-12.26,29.32-27.72,29.32-16.13,0-27.89-12.27-27.89-28.06C450.86,74.58,461.53,60.63,479.25,60.63Zm-1.68,3.11c-9.4,0-18,7.9-18,23.6s8.57,27.14,20.49,27.14c10.17,0,17.81-7.56,17.81-23.78C497.9,73.06,488.58,63.74,477.57,63.74Z"/><path d="M551.32,74.91a25.53,25.53,0,0,0-2.6-6.21c-1.6-2.86-2.86-3.53-7.56-3.53h-9c-2.43,0-2.69.25-2.69,2.69v19.4H539.9c6.05,0,6.47-1,7.73-6.89h2.52V97.93h-2.61c-1.09-5.88-1.68-7.23-7.64-7.23H529.48v15c0,7.31.84,7.64,8.49,8.32v2.35H514.62v-2.35c6.8-.51,7.56-1.1,7.56-8.32V72.48c0-7.31-.84-7.65-7.56-8.32V61.81h26.62c7.56,0,10.42-.09,11.85-.17.08,3,.42,8.9.84,12.94Z"/><path d="M608.61,116.41v-2.35c5.46-.68,6.13-1.52,5-4.71s-2.78-7.47-4.54-12.77H590.89c-1.35,3.78-2.61,7.06-3.78,10.5-1.85,5.46-.68,6.14,6.21,7v2.35h-19.4v-2.35c5.29-.68,6.63-1.26,9.57-8.82l17.39-44.1,2.69-.51C608.86,75,614.66,90.87,620,105.4c2.69,7.31,3.44,8,9.41,8.66v2.35Zm-8.4-44.77c-2.69,7.22-5.54,14.86-8.06,21.5h15.7Z"/><path d="M682.53,117.08c-1.09,0-2-.08-3.11-.17-6.13-.42-9.41-2-13.1-7.22-3.11-4.29-6.13-9.58-8.82-13.86-1.68-2.69-2.77-3.19-7.06-3.19H647.5v13.18c0,7.14.93,7.56,7.65,8.24v2.35H632.72v-2.35c7-.76,7.56-1.1,7.56-8.24V72.31c0-7.14-.93-7.39-7.56-8.15V61.81h21.42c6.13,0,10.25.75,13.44,2.85,3.44,2.19,5.71,6,5.71,11.09,0,7.23-4.62,11.76-10.84,14.45,1.52,2.6,5.13,8.23,7.65,12a77.86,77.86,0,0,0,6.63,8.65,12.12,12.12,0,0,0,6.14,3.87Zm-31-27.3c4.37,0,7.14-.67,9.24-2.44,3.28-2.43,4.62-5.79,4.62-10.33,0-9-6-12.26-12.43-12.26-2.43,0-3.86.33-4.45.84-.76.59-1,1.43-1,3.61V89.78Z"/><path d="M735.7,103a107,107,0,0,1-4.62,12.68,76.1,76.1,0,0,1-15.37,2c-20.08,0-30.33-13.36-30.33-28.06,0-17.13,13-29,31.84-29,7.22,0,13.1,1.51,15.88,1.93.33,3.78.92,8.82,1.59,13l-2.6.59c-1.68-5.63-3.7-9.07-8-10.83a23,23,0,0,0-8.82-1.6c-13.86,0-21.17,10.25-21.17,24.11,0,16.21,8.4,26.63,22,26.63,8.57,0,12.77-4,17-12.35Z"/><path d="M802.23,64.16c-7,.67-7.65,1.09-7.65,8.15V106c0,7.06.76,7.31,7.65,8.07v2.35H779.71v-2.35c7-.84,7.65-1,7.65-8.07V89.19H758.63V106c0,7,.67,7.23,7.56,8.07v2.35H743.76v-2.35c6.81-.76,7.56-1,7.56-8.07V72.31c0-7.06-.75-7.48-7.56-8.15V61.81h22.43v2.35c-6.72.59-7.56,1.18-7.56,8.15V85.66h28.73V72.31c0-7-.93-7.56-7.65-8.15V61.81h22.52Z"/><path d="M810.71,116.41v-2.35c6.89-.76,7.56-1.1,7.56-8.24V72.48c0-7.23-.67-7.56-7.56-8.32V61.81h22.51v2.35c-7,.76-7.64,1.09-7.64,8.32v33.34c0,7.23.67,7.48,7.64,8.24v2.35Z"/><path d="M885.55,75a31.46,31.46,0,0,0-2.69-7c-1.34-2.26-2.18-2.85-6.8-2.85h-8.4v40.91c0,6.55.67,7.47,8.65,8v2.35H851.87v-2.35c7.81-.51,8.48-1.35,8.48-8V65.17h-7.64c-4.62,0-6,.5-7.39,3A38.78,38.78,0,0,0,842.54,75H840c.51-5.13,1-10.42,1.26-15.12h1.94c1.26,2,2.18,1.93,4.53,1.93H881c2.35,0,3-.34,4.28-1.93h2c0,3.94.33,10,.75,14.86Z"/><path d="M938.55,103.05c-.5,2.19-2.77,10.84-3.61,13.36H894.12v-2.35c7.81-.59,8.4-1.35,8.4-8.24V72.64c0-7.47-.93-7.89-7.23-8.48V61.81H921c7.89,0,11.17-.09,12.18-.17.08,2.1.42,8.4.75,12.85l-2.52.42a27.43,27.43,0,0,0-2.52-6.38c-1.34-2.77-3.27-3.36-8.31-3.36h-8c-2.61,0-2.77.25-2.77,2.69V86.42h9.32c6.3,0,6.72-1.26,7.73-7h2.6v17.3h-2.6c-1.09-6-1.77-6.89-7.81-6.89h-9.24v16.72c0,5.88,1.84,6.38,6,6.47h7.82c5.12,0,6-.76,7.81-2.94a36.17,36.17,0,0,0,4.53-7.73Z"/><path d="M994.83,103a105.29,105.29,0,0,1-4.62,12.68,75.88,75.88,0,0,1-15.37,2c-20.07,0-30.32-13.36-30.32-28.06,0-17.13,13-29,31.83-29,7.23,0,13.11,1.51,15.88,1.93.34,3.78.92,8.82,1.6,13l-2.61.59c-1.68-5.63-3.69-9.07-8-10.83a22.93,22.93,0,0,0-8.82-1.6c-13.86,0-21.17,10.25-21.17,24.11,0,16.21,8.4,26.63,22,26.63,8.57,0,12.77-4,17-12.35Z"/><path d="M1047.16,75a32,32,0,0,0-2.68-7c-1.35-2.26-2.19-2.85-6.81-2.85h-8.4v40.91c0,6.55.67,7.47,8.65,8v2.35h-24.44v-2.35c7.81-.51,8.48-1.35,8.48-8V65.17h-7.64c-4.62,0-6,.5-7.39,3a38.12,38.12,0,0,0-2.77,6.81h-2.52c.5-5.13,1-10.42,1.26-15.12h1.93c1.26,2,2.18,1.93,4.53,1.93h33.27c2.35,0,3-.34,4.28-1.93h2c0,3.94.33,10,.75,14.86Z"/><path d="M1114.28,64.16c-5.29.34-7.22,1.68-7.39,5.54-.09,1.94-.25,5.46-.25,13.19V92c0,8.57-1,15.12-5.88,20.25-4,4.11-9.66,5.37-15.46,5.37-4.87,0-10.08-1-13.78-3.86-5-3.86-7.47-9.66-7.47-19.49V72.81c0-7.56-.67-8.06-7.39-8.65V61.81h22.09v2.35c-6.72.42-7.39,1.09-7.39,8.65v21c0,12.27,5.79,19,15.87,19,11.93,0,15.71-7.4,15.71-21.34V82.89c0-7.73-.25-10.92-.42-13.19-.25-3.78-2.18-5.2-8.4-5.54V61.81h20.16Z"/><path d="M1168.8,117.08c-1.1,0-2-.08-3.11-.17-6.13-.42-9.41-2-13.11-7.22-3.1-4.29-6.13-9.58-8.82-13.86-1.68-2.69-2.77-3.19-7-3.19h-2.94v13.18c0,7.14.92,7.56,7.64,8.24v2.35H1119v-2.35c7-.76,7.56-1.1,7.56-8.24V72.31c0-7.14-.92-7.39-7.56-8.15V61.81h21.42c6.14,0,10.25.75,13.44,2.85,3.45,2.19,5.72,6,5.72,11.09,0,7.23-4.62,11.76-10.84,14.45,1.51,2.6,5.12,8.23,7.64,12a77.66,77.66,0,0,0,6.64,8.65,12.13,12.13,0,0,0,6.13,3.87Zm-31-27.3c4.37,0,7.14-.67,9.24-2.44,3.28-2.43,4.62-5.79,4.62-10.33,0-9-6-12.26-12.43-12.26-2.44,0-3.87.33-4.45.84-.76.59-1,1.43-1,3.61V89.78Z"/><path d="M1215.67,103.05c-.51,2.19-2.78,10.84-3.62,13.36h-40.82v-2.35c7.81-.59,8.4-1.35,8.4-8.24V72.64c0-7.47-.92-7.89-7.22-8.48V61.81h25.7c7.9,0,11.17-.09,12.18-.17.08,2.1.42,8.4.76,12.85l-2.52.42a28.35,28.35,0,0,0-2.52-6.38c-1.35-2.77-3.28-3.36-8.32-3.36h-8c-2.6,0-2.77.25-2.77,2.69V86.42h9.32c6.3,0,6.72-1.26,7.73-7h2.6v17.3H1204c-1.09-6-1.76-6.89-7.81-6.89h-9.24v16.72c0,5.88,1.85,6.38,6,6.47h7.81c5.12,0,6-.76,7.81-2.94a36.2,36.2,0,0,0,4.54-7.73Z"/><path d="M276,219.59v9.17a17.05,17.05,0,0,0,4.63,3.17,5.44,5.44,0,0,0-1.08,1.25A18.88,18.88,0,0,1,276,230.7v7.09h-1.52v-8.54a21.43,21.43,0,0,1-3-3.92q-2.07,8.94-8.26,12.4a4.43,4.43,0,0,0-1.2-1.11,14.32,14.32,0,0,0,5.92-5.88,21.42,21.42,0,0,0-3.81-2.83,15.4,15.4,0,0,1-1.32,1.54,6,6,0,0,0-1.22-1,14,14,0,0,0,2.84-3.82,23.12,23.12,0,0,0,1.93-5.1l1.47.29c-.25.92-.55,1.85-.9,2.77h3.77l.27-.1,1,.38c0,.1-.11.66-.3,1.68l.79-.3a17.21,17.21,0,0,0,2,2.91v-7.61ZM270.3,224h-3.91a26.29,26.29,0,0,1-1.46,2.79,22.25,22.25,0,0,1,3.73,2.62A24.75,24.75,0,0,0,270.3,224Z"/><path d="M297.76,236.26h.92a.28.28,0,0,0,.21-.07,1.06,1.06,0,0,0,.15-.36,4.59,4.59,0,0,0,.08-.79c0-.33,0-.79,0-1.37a4.71,4.71,0,0,0,1.14.5,8.15,8.15,0,0,1-.37,2.65,1.12,1.12,0,0,1-1.1.68h-1.27a1.45,1.45,0,0,1-1.15-.37,2.26,2.26,0,0,1-.29-1.37v-4.34h-1.33a10.89,10.89,0,0,1-.93,4.1,5.09,5.09,0,0,1-2.68,2.31,4.71,4.71,0,0,0-.84-1.08l.13-.08h-6v1h-1.23v-6a9.45,9.45,0,0,1-1,1.23,6.6,6.6,0,0,0-.8-1,11.58,11.58,0,0,0,2.59-4.49h-1.58v-3.65h3.81v3.65h-1.76l.73.21c-.13.34-.33.82-.59,1.43h2.19c.34-.91.53-1.46.58-1.64h-.27v-3.65h4v3.65h-3.52l1.07.29-.64,1.35h3.2v1.09h-3.43v1.15h3v1h-3v1.19h3v1h-3v1.17h3.49v.63A3.77,3.77,0,0,0,293,234.4a9.66,9.66,0,0,0,.55-3h-1.27V220.35h7.07v11.07h-1.89v4.34a1.14,1.14,0,0,0,0,.42C297.5,236.24,297.6,236.26,297.76,236.26Zm-13.54-13V222H282v-1.08h2.18v-1.31h1.29v1.31h2.66v-1.31h1.27v1.31h2.09V222h-2.09v1.29h-1.27V222h-2.66v1.29Zm-.62,1.42v1.68h1.68v-1.68Zm3,6.54v-1.15h-2.12v1.15Zm0,2.17v-1.19h-2.12v1.19Zm-2.12,1v1.17h2.12v-1.17Zm3.78-9.71v1.68h1.8v-1.68Zm5.22-3.06v2H298v-2Zm0,3.2v2H298v-2Zm0,3.2v2.05H298v-2.05Z"/><path d="M310,230.7l.34,1.42q-2.91,1.35-8,3.54l-.55-1.54c.93-.36,1.84-.73,2.76-1.12l-.34-12.36,1.53-.06.29,11.8Zm10.38,5.92-1.23,1.15a43.92,43.92,0,0,0-4.5-5.29,14.81,14.81,0,0,1-6.85,5.41,6.16,6.16,0,0,0-1.17-1.29,15.58,15.58,0,0,0,4.29-2.33,11.13,11.13,0,0,0,2.88-3.42,18.07,18.07,0,0,0,1.73-4.44,41.77,41.77,0,0,0,1-5.81l1.6.16q-.78,6.83-2.64,10.37A48.54,48.54,0,0,1,320.34,236.62Zm-7.54-9.79-1.41.76a15.19,15.19,0,0,0-1.27-2.43,18.49,18.49,0,0,0-1.8-2.45l1.31-.66A17.08,17.08,0,0,1,312.8,226.83Z"/><path d="M334.71,226h5.16v1.35H322.15V226h5.06a9,9,0,0,0-1.17-3l1.42-.29a8.54,8.54,0,0,1,1.27,3l-1,.27h6.46l-.89-.25a16.6,16.6,0,0,0,1.34-3.05H323.3v-1.35h6.9v-1.81h1.52v1.81h7.15v1.35h-3.94l1.34.31C335.36,224.83,334.84,225.82,334.71,226Zm-9.63,11.82V229.1h12.11v8.69h-1.54v-.69h-9.08v.75Zm10.57-7.46h-9.08v2.09h9.08Zm-9.08,5.43h9.08v-2.15h-9.08Z"/><path d="M359.83,232.24h-6.76a14.22,14.22,0,0,0,3.19,2.33,18.63,18.63,0,0,0,3.94,1.6,4.05,4.05,0,0,0-1,1.25,19.07,19.07,0,0,1-4.13-1.94,15.07,15.07,0,0,1-3.39-2.77v5.08h-1.48v-5.16a15.67,15.67,0,0,1-3.34,2.88,19.08,19.08,0,0,1-4.08,2.06,4.87,4.87,0,0,0-1-1.25,18.16,18.16,0,0,0,3.81-1.68,15,15,0,0,0,3.18-2.4h-6.6v-1.31h8v-1.6h-2l.05.24-1,.37a11.46,11.46,0,0,0-.31-1.12c-2.71.41-4.25.64-4.63.71l-.18-1.29,1-.1a24.66,24.66,0,0,0,1.52-2.36,14.56,14.56,0,0,0-2.36-2.35l.62-1,.53.41a20.14,20.14,0,0,0,1.41-3.19l1.19.43c-.72,1.53-1.3,2.68-1.76,3.48.43.4.77.75,1,1,.46-.86.84-1.59,1.11-2.2l1.13.48a44.24,44.24,0,0,1-3,5.08l2-.21a14.83,14.83,0,0,0-.67-1.45l1-.31a13.72,13.72,0,0,1,1.23,2.89v-7.4H350a16.31,16.31,0,0,0,.49-2l1.47.23-.34.91-.31.81h2.56v1.58l.61-.74.28.24a2.23,2.23,0,0,1,.3.27,18.55,18.55,0,0,0,1.43-3.23l1.19.43a38.19,38.19,0,0,1-1.82,3.58,10.5,10.5,0,0,1,.94,1,25,25,0,0,0,1.13-2.26l1.2.5A54.88,54.88,0,0,1,356,228l2.23-.19c-.19-.45-.45-1-.8-1.64l1-.37a11.93,11.93,0,0,1,1.64,3.82l-1.09.45c0-.17-.16-.57-.35-1.21l-2.55.34-2.06.29-.16-1v.82H351.7v1.6h8.13Zm-10.41-9.53v2.15h3.1v-2.15Zm0,3.26v2.17h3.1V226Zm4.43,2.25.74-.06q.71-1,1.53-2.34a16.2,16.2,0,0,0-2.27-2.47Z"/><path d="M377.29,230.87h2.25q0,.44-.06.63c-.13,1.87-.28,3.24-.43,4.1a3.51,3.51,0,0,1-.65,1.72,1.68,1.68,0,0,1-1.13.51c-.74,0-1.43,0-2,0a2.57,2.57,0,0,0-.33-1.19c.5,0,1.08,0,1.73,0a.76.76,0,0,0,.59-.17c.34-.37.61-1.8.82-4.32h-12.3a12.24,12.24,0,0,1-2.74,5.3,3.55,3.55,0,0,0-1.09-.94q3-3.18,3-9.38v-2.65h5.64a7.73,7.73,0,0,0-1-2.42l1.26-.34a7.48,7.48,0,0,1,1.1,2.48l-.84.28h4.78c-.06.7-.2,1.76-.41,3.18h2.29C377.46,229.63,377.31,230.69,377.29,230.87Zm-2.31-9.1,1.14-.66q-4.75.58-10.2.8a16.53,16.53,0,0,1-2.62,4.32,6,6,0,0,0-1.23-.88,13.38,13.38,0,0,0,2.84-4.85l1,.26a88.46,88.46,0,0,0,10.92-1l1.09,1.06-1.81.27a18.49,18.49,0,0,1,3.28,3.83l-1.21.78a14.4,14.4,0,0,0-1.39-1.95A18.79,18.79,0,0,0,375,221.77Zm-8.55,16-1.09-.61a6.67,6.67,0,0,0,1.7-3.82l1.15.33A7.37,7.37,0,0,1,366.43,237.73Zm9.77-8.81h-10a16.06,16.06,0,0,1-.23,2h9.92C376,230.48,376.06,229.83,376.2,228.92Zm-1.86-3.16h-8.07v1.93h7.8C374.18,227,374.27,226.38,374.34,225.76Zm-5,8,1.07-.12a13.57,13.57,0,0,1,.41,3.46l-1.15.15A12.07,12.07,0,0,0,369.34,233.71Zm2.52-.12,1-.25a9.54,9.54,0,0,1,1,3.06l-1.07.27A11,11,0,0,0,371.86,233.59Zm4.75,1.7-1,.39a9.3,9.3,0,0,0-1.39-2.48l.92-.35A8.28,8.28,0,0,1,376.61,235.29Z"/><path d="M392.86,236.32h7.07v1.06H382.09v-1.06h2.25a3.61,3.61,0,0,0-.78-.78,6,6,0,0,0,3.06-3l1.12.18a5.75,5.75,0,0,1-.65,1.19,13.8,13.8,0,0,1,2.37,1.48l-.59.83a11,11,0,0,0-2.36-1.55,8.66,8.66,0,0,1-2.07,1.62h5.78v-3.88h-6.9v-1h15.39v1h-7.07v3.88h1.16a3.64,3.64,0,0,0-.76-.84,4.5,4.5,0,0,0,2.53-2.95l1.18.18a6,6,0,0,1-.47,1.19,14.2,14.2,0,0,1,2.73,1.51l-.56.87a12.65,12.65,0,0,0-2.68-1.56A6.3,6.3,0,0,1,392.86,236.32Zm-9-13.08v2.2H382.6v-3.12h7.62v-1h-6.41v-1h14.42v1h-6.59v1h7.76v3.12h-1.27v-2.2h-6.49V227h-1.42v-3.73Zm-.47,7.42v-3.18h4.4v3.18Zm5.88-4.82v.83h-4.86v-.83Zm-4.78,2.48v1.48h2.16v-1.48Zm.37-4.18h4.39V225h-4.39Zm8.38,3.34v3.18h-4.48v-3.18Zm-1.16,2.32v-1.48h-2.22v1.48Zm.57-5.66h4.55V225h-4.55Zm5,1.7v.83h-5v-.83Zm1.09,1.64v3.18H394.2v-3.18Zm-1.13,2.32v-1.48h-2.3v1.48Z"/><path d="M411.33,230.78l.06,0H406v-4.18h5.45v4.12a12,12,0,0,0,2.56-2.31,19,19,0,0,1-1.82-5.54H405v1.76q0,5.08-2.18,7.79a2.33,2.33,0,0,0-.48-.5,3.36,3.36,0,0,0-.6-.42c1.27-1.54,1.9-3.83,1.9-6.89v-3h8.43c-.07-.67-.13-1.34-.17-2h1.42c0,.59.07,1.27.16,2h3.63a9,9,0,0,0-2.54-1.25l.79-.88a8.58,8.58,0,0,1,2.85,1.39l-.63.74h2.21v1.25h-6.11a17.91,17.91,0,0,0,1.3,4.31,13.08,13.08,0,0,0,1.63-3.36l1.36.32a17,17,0,0,1-2.26,4.41q1.31,2.13,2.58,2.13c.24,0,.43-.21.54-.59a9.24,9.24,0,0,0,.26-1.93,3,3,0,0,0,1.15.66,6,6,0,0,1-.62,2.52,1.54,1.54,0,0,1-1.41.69c-1.2,0-2.33-.78-3.4-2.35a13.11,13.11,0,0,1-2.36,2.17A6.31,6.31,0,0,0,411.33,230.78Zm-8.26,6.64-1.21-.82a7.23,7.23,0,0,0,2.66-3.89l1.28.43A8,8,0,0,1,403.07,237.42Zm8.73-13.26v1.05h-6.09v-1.05Zm-2.07,12.09h3.65c.45,0,.73-.13.85-.37a5.06,5.06,0,0,0,.23-1.74,3.18,3.18,0,0,0,1.36.54,4.84,4.84,0,0,1-.61,2.34,2.12,2.12,0,0,1-1.71.57h-3.89a3.77,3.77,0,0,1-2.07-.39,1.83,1.83,0,0,1-.52-1.54v-3.09h1.48v3.07c0,.26.07.43.21.5A3,3,0,0,0,409.73,236.25Zm.49-6.57v-2.07h-2.93v2.07Zm-1.68,2.23,1-.82a11,11,0,0,1,3.41,2.28l-1,1A11.73,11.73,0,0,0,408.54,231.91Zm6.85,1.23,1.23-.66a16,16,0,0,1,2.09,2,10.27,10.27,0,0,1,1.45,2l-1.33.72a9.15,9.15,0,0,0-1.37-2A17.21,17.21,0,0,0,415.39,233.14Z"/><path d="M429.36,232.53l-.43-1.05c1.59-.66,2.43-1.64,2.52-2.93l-.35,0a1.59,1.59,0,0,1-1.08-.37,1.51,1.51,0,0,1,0-2.12,1.64,1.64,0,0,1,1.09-.38,1.46,1.46,0,0,1,1.25.61,2.82,2.82,0,0,1,.45,1.69,4.39,4.39,0,0,1-.93,2.79A5.41,5.41,0,0,1,429.36,232.53Z"/><path d="M450.34,225.27h5.87a6.15,6.15,0,0,0,1.55,1.86,9.55,9.55,0,0,0,2.19,1.4,4.34,4.34,0,0,0-1.06.94,6.35,6.35,0,0,1-.78-.49v2.69H446.88v-2.85a10.92,10.92,0,0,1-1,.63,7.4,7.4,0,0,0-.56-.65q-.3,5.82-2.29,8.93a5.61,5.61,0,0,0-1.29-.76,12.41,12.41,0,0,0,1.73-4.78,38.56,38.56,0,0,0,.42-5.91V220.5H458.7v4H445.36v1.79c0,.43,0,1.14,0,2.13a11,11,0,0,0,1.95-1.41,7.6,7.6,0,0,0,1.39-1.63l1.29.37a10.3,10.3,0,0,1-1.63,1.93h8.13a8.14,8.14,0,0,1-1.11-1.37h-5Zm6.87-3.58H445.36v1.59h11.85Zm-9.8,16.14v-5.39h10.13v5.35h-1.38v-.45h-7.41v.49Zm.7-9.28v2.23h3.75v-2.23Zm8.05,4.82h-7.41v1.08h7.41Zm-7.41,3h7.41v-1.11h-7.41ZM449,229l.76-.26a6,6,0,0,1,1,1.59l-.78.29A5.5,5.5,0,0,0,449,229Zm7.85,1.74v-2.23h-3.87v2.23Zm-2.17-.08-.7-.28a15.8,15.8,0,0,0,1-1.67l.91.31A13.78,13.78,0,0,1,454.63,230.7Z"/><path d="M470.34,225.27h5.87a6.15,6.15,0,0,0,1.55,1.86,9.55,9.55,0,0,0,2.19,1.4,4.34,4.34,0,0,0-1.06.94,6.35,6.35,0,0,1-.78-.49v2.69H466.88v-2.85a10.92,10.92,0,0,1-1,.63,7.4,7.4,0,0,0-.56-.65q-.3,5.82-2.29,8.93a5.61,5.61,0,0,0-1.29-.76,12.41,12.41,0,0,0,1.73-4.78,38.56,38.56,0,0,0,.42-5.91V220.5H478.7v4H465.36v1.79c0,.43,0,1.14,0,2.13a11,11,0,0,0,1.95-1.41,7.6,7.6,0,0,0,1.39-1.63l1.29.37a10.3,10.3,0,0,1-1.63,1.93h8.13a8.14,8.14,0,0,1-1.11-1.37h-5Zm6.87-3.58H465.36v1.59h11.85Zm-9.8,16.14v-5.39h10.13v5.35h-1.38v-.45h-7.41v.49Zm.7-9.28v2.23h3.75v-2.23Zm8.05,4.82h-7.41v1.08h7.41Zm-7.41,3h7.41v-1.11h-7.41ZM469,229l.76-.26a6,6,0,0,1,1,1.59l-.78.29A5.5,5.5,0,0,0,469,229Zm7.85,1.74v-2.23h-3.87v2.23Zm-2.17-.08-.7-.28a15.8,15.8,0,0,0,1-1.67l.91.31A13.78,13.78,0,0,1,474.63,230.7Z"/><path d="M496.31,236.3h3.5v1.06H482.17V236.3h3.54v-4.86h10.6Zm-6-11.32v3.94H482.7V225Zm8.73,7.36H497.7v-1.7H484.26v1.7h-1.33v-2.68h16.14Zm-15.26-6.56v.78h2.07v-.78Zm0,1.54v.82h2.07v-.82ZM497,220.17v4.1H485.08v-4.1Zm-10.57.84v.8h3.91V221Zm0,1.6v.84h3.91v-.84Zm2.79,3.95v-.78H487v.78Zm0,1.58v-.82H487v.82Zm5.73,4.2h-7.84v.8h7.84Zm0,2.38v-.8h-7.84v.8Zm-7.84.8v.78h7.84v-.78Zm8.56-13.71V221h-4v.8Zm0,1.64v-.84h-4v.84Zm3.71,1.53v3.94h-7.68V225Zm-6.56.8v.78h2.11v-.78Zm0,1.54v.82h2.11v-.82Zm5.43-.76v-.78H496v.78Zm0,1.58v-.82H496v.82Z"/><path d="M507.58,231.26v4.05a13.16,13.16,0,0,0,4.49.56c.42,0,1.77,0,4,0s3.67,0,4.21,0a5.1,5.1,0,0,0-.61,1.48h-7.62a14.87,14.87,0,0,1-5.16-.71,5.56,5.56,0,0,1-2.88-2.67,12.93,12.93,0,0,1-1.21,4.06,7.48,7.48,0,0,0-1.22-.72,9.4,9.4,0,0,0,1.07-3.47,48.57,48.57,0,0,0,.36-5.24l1.41.1c-.06,1.23-.1,2.16-.14,2.77a6.43,6.43,0,0,0,1.89,3.13V227H502v-1.33h3.82v-2.54h-3.3v-1.29h3.3V219.6h1.43v2.23h3.2v1.29h-3.2v2.54H511V227h-3.44v2.95h3.24v1.32Zm10.3,3h-3.6a2.79,2.79,0,0,1-1.89-.48,2.5,2.5,0,0,1-.51-1.84V220.87h7.23v7h-5.79V232a1.12,1.12,0,0,0,.2.79,1.46,1.46,0,0,0,.9.18h3.38a.73.73,0,0,0,.75-.44,7.15,7.15,0,0,0,.24-1.92,4.14,4.14,0,0,0,1.33.59,5.59,5.59,0,0,1-.58,2.48A1.9,1.9,0,0,1,517.88,234.27Zm-.22-12.07h-4.34v4.32h4.34Z"/><path d="M525.84,219.53l1.61.29c-.42,1.22-.77,2.21-1.06,3h3.32v13h-5.55v1.58H522.8V222.77H525A22.49,22.49,0,0,0,525.84,219.53Zm2.52,8.75V224.1h-4.2v4.18Zm-4.2,6.13h4.2V229.6h-4.2Zm15.34-11.7v.76c-.16,4.69-.33,7.93-.51,9.74a7.56,7.56,0,0,1-.86,3.43,2.16,2.16,0,0,1-1.58.8,20.9,20.9,0,0,1-3,0,3.13,3.13,0,0,0-.51-1.45q1.3.12,3,.12a1,1,0,0,0,.82-.31,6.76,6.76,0,0,0,.75-3.1q.27-2.56.46-8.6H533a17.4,17.4,0,0,1-1.87,3.51,10.56,10.56,0,0,0-1.21-.84,19.11,19.11,0,0,0,3-7.26l1.43.33c-.24,1-.52,1.93-.86,2.89Zm-3.17,9-1.25.79a31.89,31.89,0,0,0-3-4.61l1.17-.69A39.6,39.6,0,0,1,536.33,231.69Z"/><path d="M559.93,229.35v1.45h-8.25v7h-1.52v-7h-8v-1.45h8v-7h-7v-1.43h15.62v1.43h-7.11v7Zm-13-6.15,1.48.45a17.15,17.15,0,0,1-3.57,4.84,5.39,5.39,0,0,0-1.19-.84,12.29,12.29,0,0,0,1.87-2.07A12.88,12.88,0,0,0,546.94,223.2Zm6.4.62,1.21-.66a25.79,25.79,0,0,1,2.21,2.32,14.9,14.9,0,0,1,1.6,2.21l-1.31.74a13.24,13.24,0,0,0-1.56-2.25A26.16,26.16,0,0,0,553.34,223.82Z"/><path d="M567.17,223.82l1.39.53a26.26,26.26,0,0,1-2.21,3v10.53h-1.46V229a23.25,23.25,0,0,1-2.27,2.09,11.27,11.27,0,0,0-1-1.25,20.91,20.91,0,0,0,3-2.73A20.32,20.32,0,0,0,567.17,223.82Zm-.82-4.25,1.43.56a22,22,0,0,1-2.36,2.64,24.28,24.28,0,0,1-2.76,2.32,13.46,13.46,0,0,0-.88-1.19,20.34,20.34,0,0,0,2.54-2.06A15.21,15.21,0,0,0,566.35,219.57ZM580,226.25v1.42h-3v8.26a2.31,2.31,0,0,1-.2,1.07,1.17,1.17,0,0,1-.68.53,16.86,16.86,0,0,1-3.75.24,5.06,5.06,0,0,0-.49-1.45c1.53,0,2.58.05,3.12,0a.71.71,0,0,0,.39-.1.42.42,0,0,0,.1-.33v-8.24h-6.68v-1.42Zm-.58-5.47v1.4h-9.77v-1.4Z"/><path d="M598.89,226.15h-4v1h4.39v3.26h-5.55l-.68,1.2h7.15v1.19h-2.44a5.52,5.52,0,0,1-1.51,2.6,26.84,26.84,0,0,1,3.68,1.42l-.84,1.06a34.83,34.83,0,0,0-4-1.61,17.25,17.25,0,0,1-6.54,1.61,4.41,4.41,0,0,0-.61-1.14,20.79,20.79,0,0,0,5.49-1c-.6-.18-1.41-.41-2.44-.67l-.21.32-1.25-.43c.36-.51.82-1.23,1.38-2.15h-2.75v-1.19h3.46c.06-.12.29-.52.68-1.2h-3.07v-3.26h4.28v-1h-3.87V224.1h-1.31v1.17h-2.2v1.5c.62.85,1.4,2,2.32,3.48l-.8,1.09c-.21-.5-.72-1.46-1.52-2.87v9.34h-1.35v-9.14a21.06,21.06,0,0,1-2.31,5.39,6.89,6.89,0,0,0-.78-1.29,14.63,14.63,0,0,0,1.69-3.31,25.86,25.86,0,0,0,1.24-4.19h-2.52v-1.39h2.68v-4.31h1.35v4.31h2.17v-.94h1.34v-2h3.87v-1.4h1.41V221h4v2h1.37v1.16h-1.37Zm-8.36,2v1.27h3v-1.27Zm3-6.21h-2.56V223h2.56Zm-2.56,3.2h2.56V224h-2.56Zm5.43,7.66h-4c-.11.19-.37.62-.8,1.27.93.21,2,.5,3.32.88A4.32,4.32,0,0,0,596.37,232.81ZM597.56,222h-2.65V223h2.65Zm-2.65,3.2h2.65V224h-2.65Zm3,3h-3v1.27h3Z"/><path d="M610.34,225.27h5.87a6.15,6.15,0,0,0,1.55,1.86,9.55,9.55,0,0,0,2.19,1.4,4.34,4.34,0,0,0-1.06.94,6.35,6.35,0,0,1-.78-.49v2.69H606.88v-2.85a10.92,10.92,0,0,1-1,.63,7.4,7.4,0,0,0-.56-.65q-.3,5.82-2.29,8.93a5.61,5.61,0,0,0-1.29-.76,12.41,12.41,0,0,0,1.73-4.78,38.56,38.56,0,0,0,.42-5.91V220.5H618.7v4H605.36v1.79c0,.43,0,1.14,0,2.13a11,11,0,0,0,1.95-1.41,7.6,7.6,0,0,0,1.39-1.63l1.29.37a10.3,10.3,0,0,1-1.63,1.93h8.13a8.14,8.14,0,0,1-1.11-1.37h-5Zm6.87-3.58H605.36v1.59h11.85Zm-9.8,16.14v-5.39h10.13v5.35h-1.38v-.45h-7.41v.49Zm.7-9.28v2.23h3.75v-2.23Zm8,4.82h-7.41v1.08h7.41Zm-7.41,3h7.41v-1.11h-7.41ZM609,229l.76-.26a6,6,0,0,1,1,1.59l-.78.29A5.5,5.5,0,0,0,609,229Zm7.85,1.74v-2.23h-3.87v2.23Zm-2.17-.08-.7-.28a15.8,15.8,0,0,0,1-1.67l.91.31A13.78,13.78,0,0,1,614.63,230.7Z"/><path d="M623.58,231.3l1.37.28a13,13,0,0,1-2.09,4.78,5.17,5.17,0,0,0-1.14-.86A10.21,10.21,0,0,0,623.58,231.3Zm8-9.2v1.37h-9.46V222.1h4v-2.53h1.48v2.53Zm-.92,8.15h-3v5.9a2.29,2.29,0,0,1-.14.89,1,1,0,0,1-.5.47,7.94,7.94,0,0,1-2.52.26,4.86,4.86,0,0,0-.47-1.35,18.71,18.71,0,0,0,1.91,0c.21,0,.31-.11.31-.29v-5.88h-3V225h7.44Zm-6.08-4V229h4.65v-2.68Zm6.72,8.21-1.23.45a14.73,14.73,0,0,0-1.38-3.4l1.19-.41A12.61,12.61,0,0,1,631.29,234.49Zm5.33,1.29c0,.35.25.52.73.52h.82c.56,0,.87-.21.94-.64a23.16,23.16,0,0,0,0-2.42,2.87,2.87,0,0,0,1.14.62,14,14,0,0,1-.18,2.7,1.68,1.68,0,0,1-1.85,1.15H637a2.3,2.3,0,0,1-1.29-.35,2.19,2.19,0,0,1-.45-1.64v-6a14.83,14.83,0,0,1-4.3,8.17,4.35,4.35,0,0,0-1.29-.86q4.14-3.78,4.57-10.76h-2.81v-1.43h2.87c0-.25,0-.61,0-1.07v-4.18h1.45v4.16c0,.48,0,.84,0,1.09h4.31v1.43h-4.35c0,.1,0,.26,0,.47s0,.38,0,.5h1Zm3.27-12.35-1.25.61a8.4,8.4,0,0,0-.92-1.66,11.36,11.36,0,0,0-1.35-1.64l1.15-.57A10.51,10.51,0,0,1,639.89,223.43Z"/><path d="M645.71,219.68l1.36.39a33.18,33.18,0,0,1-1.56,3.89v13.87h-1.4V226.62a21.43,21.43,0,0,1-1.9,2.69,7.51,7.51,0,0,0-.76-1.5,18.78,18.78,0,0,0,2.41-3.65A26.57,26.57,0,0,0,645.71,219.68Zm13.22,8.85,1,.88a21.8,21.8,0,0,1-3.28,2.4,9.38,9.38,0,0,0,3.6,4,4.27,4.27,0,0,0-1,1.19q-3.76-2.37-5.35-9.06h-.49a10,10,0,0,1-1.27.89,7.73,7.73,0,0,1,2.27,3.11,6.53,6.53,0,0,1,.51,3.24,2.88,2.88,0,0,1-1,2.07,3.18,3.18,0,0,1-1.93.63c-.47,0-1,0-1.55-.06a2.34,2.34,0,0,0-.35-1.27c.57,0,1.11.08,1.62.08a1.78,1.78,0,0,0,1.21-.34,1.61,1.61,0,0,0,.61-1,4.29,4.29,0,0,0,0-1.65,21.08,21.08,0,0,1-3.05,2.11,21.93,21.93,0,0,1-3.38,1.62,3.86,3.86,0,0,0-.84-1.09,19.23,19.23,0,0,0,3.77-1.66,15.85,15.85,0,0,0,3.17-2.27,5.61,5.61,0,0,0-.61-1.19,20.06,20.06,0,0,1-5.18,2.81,4,4,0,0,0-.76-1,19.45,19.45,0,0,0,2.84-1.15,14.6,14.6,0,0,0,2.49-1.49,7.85,7.85,0,0,0-.87-.86,28.77,28.77,0,0,1-3.75,1.72,9.68,9.68,0,0,0-.88-1,20.7,20.7,0,0,0,5-2.18h-3.81v-3l-.59.49a3.37,3.37,0,0,0-1.09-.84,13.88,13.88,0,0,0,2.55-2.35,14.29,14.29,0,0,0,1.8-2.62l1.43.26c-.17.31-.37.64-.61,1h3.93l.25-.07.92.62a15.41,15.41,0,0,1-1.42,2.09h4.43v4.42h-4.14a22,22,0,0,0,1,2.83A19.23,19.23,0,0,0,658.93,228.53Zm-9.81-3.94v2.26h3.66v-2.26Zm5.26-2.6h-3.89a17.3,17.3,0,0,1-1.23,1.5h4A9.35,9.35,0,0,0,654.38,222Zm3.57,4.86v-2.26h-3.81v2.26Z"/><path d="M671.9,233.2v2.73a21.63,21.63,0,0,0,2.36.12c3.26,0,5.22,0,5.9,0a4,4,0,0,0-.53,1.41H674.2a15.09,15.09,0,0,1-5.12-.71A5.9,5.9,0,0,1,666,234.1a10.18,10.18,0,0,1-3.13,3.77,5.8,5.8,0,0,0-1.09-1.06q3-2,3.89-6.5l1.48.19c-.12.59-.28,1.25-.51,2a5.47,5.47,0,0,0,3.77,3.18v-6h-8.2v-1.34h17.58v1.34H671.9v2.23h6.6v1.31Zm5.7-12.81V227H664.32v-6.6Zm-1.48,2.75v-1.62H665.79v1.62Zm0,2.7v-1.61H665.79v1.61Z"/><path d="M689.59,223.16l-1,1.17a17,17,0,0,0-2.68-3.36,20.71,20.71,0,0,1-2.42,3.52h5v1.27h-2.17v2.13h2.5v1.28h-2.5V235l2.79-.52.1,1.21-4,.87-3.07.65-.33-1.37c1-.15,2-.34,3.18-.56v-6.12h-3v-1.28h3v-2.13h-2v-.82l-.74.72a3,3,0,0,0-.94-.92,13.92,13.92,0,0,0,3.65-5.15h1.31c.6.54,1.2,1.15,1.82,1.83A14.66,14.66,0,0,1,689.59,223.16Zm-7.11,7.32,1-.23a15.88,15.88,0,0,1,.82,3.75l-1,.29A16.88,16.88,0,0,0,682.48,230.48Zm5.41,3.4-1-.25a19.68,19.68,0,0,0,.8-3.62l1.11.32C688.39,232.12,688.08,233.31,687.89,233.88Zm11.66-13.46v15.69c0,.79-.24,1.29-.74,1.48a10.69,10.69,0,0,1-3,.24,4.27,4.27,0,0,0-.45-1.33c1.2,0,2,0,2.49,0a.39.39,0,0,0,.42-.43V221.75h-7.42v16.08h-1.27V220.42Zm-3.34,13.68h-3.32v1.32H692v-7.08h.87v4.6h1.2v-5.89h-2.56v-1.18h6.05v1.18H695v5.89h1.19v-4.6h.88v6.77h-.88Zm-4.35-11.6.92-.26a9.72,9.72,0,0,1,1,3l-.95.33A10.3,10.3,0,0,0,691.86,222.5Zm4.26-.36,1.15.34c-.55,1.51-1,2.56-1.25,3.16l-.88-.29A21.17,21.17,0,0,0,696.12,222.14Z"/><path d="M720.08,227h-7.5a22.56,22.56,0,0,0,7.87,3.51,8,8,0,0,0-.88,1.31A28.25,28.25,0,0,1,715,230v1h-8v-.92a30.45,30.45,0,0,1-4.59,1.92,6.06,6.06,0,0,0-.78-1.25A26,26,0,0,0,706,229a17.1,17.1,0,0,0,3.5-2.28l-3.85.52-3.54.48-.13-1.29c1-.09,2.2-.22,3.71-.39v-1.74h-2.91v-1.15h2.91v-1.52h-3.3v-1.18h7.89v1.18h-3.19v1.52h3v1.15h-3v1.56l3.21-.37,0,.71h1.11v-.37h3.2v-1.57h-3v-1.15h3v-1.48h-3.38v-1.18h8.42v1.18h-3.59v1.48h3.2v1.15h-3.2v1.57h4Zm-4.24,5.43.26-.08,1.09.35q-1.11,2.42-2.62,5.18l-1.42-.41c.56-1,1.2-2.23,1.93-3.75H704.26v-1.29Zm-8.36-2.64h7.06a18.06,18.06,0,0,1-3.64-2.38A16.27,16.27,0,0,1,707.48,229.82Z"/><path d="M728.54,229.57l-2.44.76v5.8a1.45,1.45,0,0,1-.71,1.46,9,9,0,0,1-2.63.24,4.87,4.87,0,0,0-.43-1.35l2,0c.24,0,.35-.12.35-.37v-5.37l-2.61.82-.38-1.45,3-.82v-4.37H721.9v-1.35h2.75v-4h1.45v4h2.22v1.35H726.1v3.94l2.24-.66Zm11.58-.69h-2a11,11,0,0,1-2,5,16.84,16.84,0,0,1,4,2.74l-1,1.21a18.57,18.57,0,0,0-4-2.85,14.16,14.16,0,0,1-6.58,2.89,3,3,0,0,0-.3-.63,5.67,5.67,0,0,0-.44-.64,13.17,13.17,0,0,0,6-2.29,24.24,24.24,0,0,0-2.67-1.17l-.26.63-1.36-.43q.62-1.42,1.68-4.44h-2.7v-1.35h3.16c.39-1.15.73-2.21,1-3.16l1.48.22c-.1.33-.27.84-.49,1.52l-.48,1.42h6.93Zm-10-5.21v2.54h-1.4v-3.89h4.68v-2.73h1.49v2.73h5.06v3.85h-1.47v-2.5Zm6.51,5.21H732.7c-.3.9-.66,1.9-1.09,3a27.09,27.09,0,0,1,3.28,1.33A9.21,9.21,0,0,0,736.59,228.88Z"/><path d="M751.9,226.79l.74.14a23.19,23.19,0,0,1-1.43,6.85,4.43,4.43,0,0,0,2,1.89,7.65,7.65,0,0,0,3,.52c2.3,0,3.68,0,4.15,0a3.19,3.19,0,0,0-.45,1.29h-3.75a8.87,8.87,0,0,1-3.3-.54,5,5,0,0,1-2.27-1.91,7.8,7.8,0,0,1-2.58,2.84,4.08,4.08,0,0,0-1-.88,6.36,6.36,0,0,0,1.33-1q-2.85.62-6.23,1.29l-.33-1.31,1.44-.26,1.53-.28v-6.25h-2.76v-1.27h2.76v-2.09h-1.95v-.61a6.14,6.14,0,0,1-.51.51,3.38,3.38,0,0,0-1-.92,13.49,13.49,0,0,0,3.54-5.15h1.23A17.69,17.69,0,0,1,749,223.1l-1,1a20.86,20.86,0,0,0-2.26-3.13,20.88,20.88,0,0,1-2.35,3.52h4.65v1.23h-2v2.09h2.36v1.27H746v6l2.6-.53.07,1a7.59,7.59,0,0,0,1.2-1.83,16.08,16.08,0,0,1-1.14-4l1.06-.29a17,17,0,0,0,.66,2.83,21.81,21.81,0,0,0,.84-4.2H750l-.17.55-1.21-.27c.58-1.58,1.25-3.62,2-6.12h-2v-1.33h2.54l.21,0,.86.21q-1,3.47-1.8,5.82h1.25Zm-9.49,3.67,1-.21a15.57,15.57,0,0,1,.73,3.75l-1.06.27A16.64,16.64,0,0,0,742.41,230.46Zm5.05,3.38-.89-.21a36.8,36.8,0,0,0,.72-3.62l1,.26Q747.88,232.36,747.46,233.84Zm7.72-9.94v-1.48h-2.11v-1.16h2.11v-1.64h1.25v1.64h2.77v2.58h1.08v1.33H759.2v2.64h-2.77v1.52h3v1.21h-3v1.56H760v1.25h-3.59v2.17h-1.25v-2.17h-2.83V232.1h2.83v-1.56H752.8v-1.21h2.38v-1.52h-2.07v-1.17h2.07v-1.55h-3V223.9Zm2.89-1.48h-1.64v1.48h1.64Zm-1.64,4.22h1.64v-1.55h-1.64Z"/><path d="M769.36,232.53l-.43-1.05c1.59-.66,2.43-1.64,2.52-2.93l-.35,0a1.59,1.59,0,0,1-1.08-.37,1.51,1.51,0,0,1,0-2.12,1.64,1.64,0,0,1,1.09-.38,1.46,1.46,0,0,1,1.25.61,2.82,2.82,0,0,1,.45,1.69,4.39,4.39,0,0,1-.93,2.79A5.41,5.41,0,0,1,769.36,232.53Z"/><path d="M799.89,229.37h-3.4V232h2.58v1.34h-7.41v2.47h7.91v1.36H782.48v-1.36h7.72v-2.47H783V232h2.56v-2.66h-3.44V228h3.44v-2.54h-2.4V224.1h7.05V222q-3,.21-6.54.31a3.48,3.48,0,0,0-.34-1.27c2.58-.06,5.17-.21,7.77-.43a51.8,51.8,0,0,0,6.2-.82l1.05,1.19a53.17,53.17,0,0,1-6.68.92v2.21h7.23v1.36h-2.4V228h3.4ZM787,225.46V228h3.22v-2.54Zm0,6.57h3.22v-2.66H787Zm8-6.57h-3.36V228H795Zm0,6.57v-2.66h-3.36V232Z"/><path d="M807,224.41h3c.11-.65.18-1.19.22-1.62h-7.95V221.4h8.08c.06-.68.09-1.31.12-1.89l1.7.11L812,221.4h7.75v1.39h-7.95c0,.23-.07.55-.14.94s-.1.61-.11.68h5.95v9.3H807Zm12.93,11v1.37H804.81v1.06h-1.45V225h1.45v10.46Zm-3.89-8.28v-1.6h-7.62v1.6Zm0,2.7v-1.62h-7.62v1.62Zm0,2.77v-1.68h-7.62v1.68Z"/><path d="M833.75,235.5h6.18V237H822.11V235.5h10.1a58.41,58.41,0,0,0,2.72-9.65l1.68.34A84.34,84.34,0,0,1,833.75,235.5Zm5.59-12v1.43H822.78v-1.43h7.42v-3.9h1.52v3.9Zm-10.55,10.65-1.48.37a22.47,22.47,0,0,0-.6-3.93,30.2,30.2,0,0,0-1.26-4.24l1.39-.35a27.8,27.8,0,0,1,1.31,4.16A25.5,25.5,0,0,1,828.79,234.14Z"/><path d="M859.83,222.32h-8.21c-.18.64-.44,1.47-.78,2.5h8v13h-1.48v-1.06h-12.8v1.06h-1.42v-13h6.17c.22-.79.42-1.63.59-2.5h-7.68v-1.41h17.6Zm-15.26,3.89v9.2h2.86v-9.2Zm8.42,2.2v-2.2h-4.22v2.2Zm0,3.46v-2.25h-4.22v2.25Zm-4.22,1.21v2.33H853v-2.33Zm8.6,2.33v-9.2h-3v9.2Z"/><path d="M880,229.86v1.46h-8.2v4.44a2.27,2.27,0,0,1-.24,1.17,1.46,1.46,0,0,1-.81.57,18,18,0,0,1-4.12.27,6.49,6.49,0,0,0-.65-1.49c1.51.06,2.74.06,3.69,0a.74.74,0,0,0,.49-.12.59.59,0,0,0,.14-.44v-4.42h-8.23v-1.46h8.23v-3.24H863.4v-1.41h6.88v-3.09c-2,.21-4.2.38-6.53.49a5.64,5.64,0,0,0-.37-1.33q9.51-.42,13.52-1.68l1.11,1.18a36.8,36.8,0,0,1-6.23,1.19v3.24h7.07v1.41h-7.07v3.24Z"/><path d="M886.59,227l-.8,1.25a15.36,15.36,0,0,0-3.95-2l.78-1.13A15.19,15.19,0,0,1,886.59,227Zm-.47,3.22,1.11,1c-1,2.17-2.17,4.31-3.44,6.42l-1.25-1A53.4,53.4,0,0,0,886.12,230.21Zm1.5-8.44-.84,1.21a10.79,10.79,0,0,0-1.72-1.15,15.69,15.69,0,0,0-2.17-1l.81-1.1A13.35,13.35,0,0,1,887.62,221.77Zm12.66,15.32-1.39.78a15.18,15.18,0,0,0-.84-1.7q-5.37.41-10.62.74l-.24-1.49,1.66-.07a42.42,42.42,0,0,0,2.4-6h-4.08v-1.42h5.57v-3.66h-4.55v-1.4h4.55v-3.26h1.52v3.26H899v1.4h-4.75v3.66H900v1.42H893q-1.49,3.81-2.56,5.92c1.46-.07,3.73-.2,6.82-.41A34.69,34.69,0,0,0,895.2,232l1.27-.67a32.2,32.2,0,0,1,2.23,3A19,19,0,0,1,900.28,237.09Z"/><path d="M909.36,232.53l-.43-1.05c1.59-.66,2.43-1.64,2.52-2.93l-.35,0a1.59,1.59,0,0,1-1.08-.37,1.51,1.51,0,0,1,0-2.12,1.64,1.64,0,0,1,1.09-.38,1.46,1.46,0,0,1,1.25.61,2.82,2.82,0,0,1,.45,1.69,4.39,4.39,0,0,1-.93,2.79A5.41,5.41,0,0,1,909.36,232.53Z"/><path d="M928.27,222.89v1.21h-6.43v-1.21Zm-.53,8v5.75h-3.91v1h-1.19v-6.7Zm-5.08-4.14v-1.19h5.08v1.19Zm0,2.66v-1.21h5.08v1.21Zm5-9.16v1.19h-4.92v-1.19Zm-1.19,11.85h-2.68v3.34h2.68Zm12.44.8.78.77a15.26,15.26,0,0,1-2.5,1.42,7.28,7.28,0,0,0,3.09,1.68,3.85,3.85,0,0,0-.84,1.08,8.26,8.26,0,0,1-5.28-5.26h-.33a9.78,9.78,0,0,1-1.58,1.12V236l1.53-.26,1.79-.31.08,1.12c-.37.06-1.32.23-2.85.52l-3.34.59-.38-1.19.88-.13,1-.14v-1.82a22.89,22.89,0,0,1-2.28.86,7.34,7.34,0,0,0-.75-1,14.26,14.26,0,0,0,4.18-1.66h-3.86V231.5h3v-1.11h-2.07v-1h2.07v-1h-2.44v-1h2.44v-1.08h-2v-3.34h4.42v3.34h-1.06v1.08h3v-1.08h-.88v-3.34h4.51v3.34H937v1.08h2.65v1H937v1h2.3v1H937v1.11h3v1.11h-4.59a7.08,7.08,0,0,0,1.1,1.76C937.61,233.78,938.41,233.3,939,232.92Zm1-11.95v1.12H928.52V221h4.86v-1.4h1.49V221Zm-9.52,2.85v1.55h2.11v-1.55Zm2.23,4.52v1h3v-1Zm0,2v1.11h3v-1.11Zm3.28-6.57v1.55h2.15v-1.55Z"/><path d="M946.92,226.46l.86.21a24.33,24.33,0,0,1-1.64,6.94,7.12,7.12,0,0,0,3.29,1.77,19.84,19.84,0,0,0,4.69.47h6.16a4.4,4.4,0,0,0-.63,1.46h-5.56a20.86,20.86,0,0,1-5.05-.53,8.1,8.1,0,0,1-3.57-1.89,9.12,9.12,0,0,1-2.61,3,3.78,3.78,0,0,0-1.12-1,8.76,8.76,0,0,0,2.74-3.08,13.07,13.07,0,0,1-1.88-3.91l1.15-.43a10.19,10.19,0,0,0,1.35,3,18.45,18.45,0,0,0,1.13-4.55h-2.3l-.41.78-1.37-.39q1.49-2.78,3-6.06H941.9v-1.32h4l.24-.08,1,.31q-.61,1.49-2.54,5.43h2.07Zm5.88,0V225h-5.49v-1.18h5.49v-1.44h-4.09v-1.17h4.09v-1.45h1.44v1.45h4.4v2.61h1.5V225h-1.5v2.69h-4.4v1.47h4.59v1.15h-4.59v1.58h5.45v1.21h-5.45v2.13H952.8v-2.13h-5.24v-1.21h5.24v-1.58h-4.32v-1.15h4.32v-1.47h-4.22v-1.21Zm1.44-4.1v1.44h3v-1.44Zm3,4.1V225h-3v1.48Z"/><path d="M980.2,228c0,.43,0,.75,0,1a4.11,4.11,0,0,1-.11.71,1.16,1.16,0,0,1-.26.58,1.41,1.41,0,0,1-.48.3,1.9,1.9,0,0,1-.77.13h-.92a1.54,1.54,0,0,1-1.09-.33,2.46,2.46,0,0,1-.37-1.66v-3h-2.78v.35a7.54,7.54,0,0,1-.06.94h2.09v1.07H973a4.65,4.65,0,0,1-2,2.21h.68v1.5h8.21V233h-7a14.81,14.81,0,0,0,3.36,1.81,22.07,22.07,0,0,0,4.06,1.2,5.19,5.19,0,0,0-1,1.25,22.68,22.68,0,0,1-4.15-1.52,15.47,15.47,0,0,1-3.47-2.21v4.28h-1.42v-4.3a16.13,16.13,0,0,1-3.48,2.28,20.47,20.47,0,0,1-4.12,1.53,4.38,4.38,0,0,0-.94-1.19,22.76,22.76,0,0,0,4-1.27A14.92,14.92,0,0,0,969,233h-6.88v-1.21h8.13v-1.11c-.38.18-.72.32-1,.43a3.58,3.58,0,0,0-.9-1,6,6,0,0,0,3.19-2h-2V227H972a4.61,4.61,0,0,0,.09-1v-.33h-1.7v-1.06h7.15v4.12c0,.41,0,.64.1.69a.52.52,0,0,0,.31.08h.53a.74.74,0,0,0,.45-.11.62.62,0,0,0,.18-.4c0-.17,0-.69.07-1.54A2.82,2.82,0,0,0,980.2,228Zm-14.59-5.72h-.88a13.34,13.34,0,0,1-1.7,2.07,6.46,6.46,0,0,0-1.19-.82,10.31,10.31,0,0,0,2.85-4.08l1.39.35c-.09.22-.29.64-.61,1.27h5.28v1.15a8.83,8.83,0,0,0,1.75-2.77l1.43.33a10.46,10.46,0,0,1-.63,1.29h6.57v1.21h-4.24a7.28,7.28,0,0,1,1,1.58l-1.26.45a9.22,9.22,0,0,0-1.29-2h-1.61a12.32,12.32,0,0,1-1.77,1.87,11.44,11.44,0,0,0-1.29-.72,8.51,8.51,0,0,0,1.27-1.15H967a8.06,8.06,0,0,1,.78,1.62l-1.21.37A12,12,0,0,0,965.61,222.32Zm-3.44,8L962,229.1l3.22-.41V226h-2.81v-1.09h6.91V226h-2.73v2.54l2.71-.41.06,1.17-3.73.56C964,230.07,962.82,230.24,962.17,230.35Z"/><path d="M989.38,229.76l-2.52.8v7.29h-1.39V231l-1.72.53-1.58.49-.39-1.43q2.47-.66,3.69-1v-4.46h-1.81a16.14,16.14,0,0,1-.88,2.95,5.87,5.87,0,0,0-1.14-.66,23,23,0,0,0,1.37-6.66l1.31.23c-.08.69-.2,1.59-.37,2.7h1.52v-4.06h1.39v4.06h2.07v1.44h-2.07v4.07l2.32-.71Zm9.16-6.85H1000c0,.38,0,.63,0,.75-.23,4.48-.46,7.66-.71,9.56a8.52,8.52,0,0,1-1,3.6,1.86,1.86,0,0,1-1.39.76,12.08,12.08,0,0,1-2.29,0,2.77,2.77,0,0,0-.41-1.46c.76.06,1.46.1,2.09.1a.94.94,0,0,0,.75-.36,7.19,7.19,0,0,0,.85-3.16c.22-1.74.44-4.54.63-8.4h-1a32,32,0,0,1-2.48,7.76,14.84,14.84,0,0,1-4,5.43,3.64,3.64,0,0,0-1.23-.9,13.19,13.19,0,0,0,4-5,30,30,0,0,0,2.48-7.32h-1.64a24,24,0,0,1-2,5.19,13.05,13.05,0,0,1-2.9,3.85,4,4,0,0,0-1.17-.85,11.44,11.44,0,0,0,2.82-3.43,21.5,21.5,0,0,0,2-4.76h-1.71a16.14,16.14,0,0,1-2.29,3.79,9,9,0,0,0-1.13-.86,16.26,16.26,0,0,0,3.49-7.67l1.35.27a25,25,0,0,1-.9,3.08h6.41Z"/><path d="M1002.7,237.75l-1-.63a6.42,6.42,0,0,0,1.49-3.37l1.07.35A6.91,6.91,0,0,1,1002.7,237.75Zm9.16-4.67-.94.43q-.15-.57-.21-.72l-1.94.15-1.77.14v0l-.86.35c-.08-.37-.13-.58-.14-.6-.57.05-1.35.1-2.33.15l-1.69.1-.1-1.13h1c.47-.59.82-1,1.06-1.39a12.58,12.58,0,0,0-2-1.87l.6-.82a3.82,3.82,0,0,1,.51.37,16.37,16.37,0,0,0,.92-1.82h-1.15v-5.86H1011v5.86h-1.66l.27.1c-.74,1.31-1.2,2.1-1.36,2.34a9.43,9.43,0,0,1,.78.77q.58-.87,1.17-1.92l1.07.49q-1.87,2.66-2.77,3.71l1.76-.08q-.37-.78-.57-1.11l.9-.37A9.54,9.54,0,0,1,1011.86,233.08Zm-6.9-6.7.28.1c-.8,1.37-1.26,2.15-1.41,2.36a7.75,7.75,0,0,1,.76.75c.54-.81.92-1.44,1.16-1.88l1,.45.22-.31.5.35c.38-.72.67-1.32.88-1.82Zm-.85-4.84v1.4h5.6v-1.4Zm0,2.38v1.45h5.6v-1.45Zm1.15,6.78.84-.31a12,12,0,0,1,.82,2.18l-.08-.62.47,0a14.44,14.44,0,0,0,1.11-1.43,15.85,15.85,0,0,0-1.93-1.77c-1,1.45-1.79,2.5-2.31,3.12l1.51-.06C1005.57,231.48,1005.43,231.12,1005.26,230.7Zm-.24,3.44,1-.16a17.61,17.61,0,0,1,.47,3.18l-1.12.18A19.07,19.07,0,0,0,1005,234.14Zm2.07-.16,1-.23a12.16,12.16,0,0,1,.94,2.85l-1.06.27A13.4,13.4,0,0,0,1007.09,234Zm2-.27.91-.37a12.17,12.17,0,0,1,1.37,2.36l-1,.45A13.27,13.27,0,0,0,1009.09,233.71Zm5.09.84,1.23.7a13.09,13.09,0,0,1-3.55,2.62,8.43,8.43,0,0,0-1-.92,12.67,12.67,0,0,0,1.84-1.11A8.07,8.07,0,0,0,1014.18,234.55Zm-1.73-10.88h2.38c.12-.71.2-1.32.25-1.86h-3.22v-1.29h8v1.29h-3.28c-.07.25-.15.6-.25,1.05l-.18.81h3.32V234h-7Zm5.76,3.08v-1.91h-4.53v1.91Zm0,3v-1.93h-4.53v1.93Zm0,3.07v-1.94h-4.53v1.94Zm-1.59,2.42,1.08-.68a16.43,16.43,0,0,1,2.66,2.51l-1.12.77A16.49,16.49,0,0,0,1016.62,235.27Z"/><path d="M1026.43,224l1.29.53a25,25,0,0,1-1.64,2.46v10.84h-1.47v-9.16a21.74,21.74,0,0,1-2.32,2.15,7.26,7.26,0,0,0-.78-1.41,19.51,19.51,0,0,0,2.74-2.48A15.76,15.76,0,0,0,1026.43,224Zm-.37-4.36,1.42.55a16.83,16.83,0,0,1-2.19,2.54,19.3,19.3,0,0,1-2.69,2.19,4.7,4.7,0,0,0-.78-1.19,15.77,15.77,0,0,0,2.4-1.92A11.07,11.07,0,0,0,1026.06,219.64ZM1040,231.09v1.27h-3v3.85a2,2,0,0,1-.17.92,1.09,1.09,0,0,1-.6.5,11.41,11.41,0,0,1-3,.24,5.09,5.09,0,0,0-.49-1.37c1.2,0,2,0,2.4,0a.49.49,0,0,0,.31-.09.35.35,0,0,0,.08-.26v-3.81h-8v-1.27h8v-1.7H1028V228.1h11.66v1.29H1037v1.7Zm-1.3-10.88v6.56h-9.5v-6.56Zm-9.46,13.16,1.06-.66a16.15,16.15,0,0,1,2.54,2.77l-1.14.8A15.53,15.53,0,0,0,1029.24,233.37Zm8-10.45v-1.6h-6.56v1.6Zm0,2.7V224h-6.56v1.62Z"/><path d="M1051.64,221.46h8v1.31h-17.22v-1.31h7.75v-1.89h1.5Zm7.21,7.77v6.84a2.36,2.36,0,0,1-.17,1,1.11,1.11,0,0,1-.63.52,14.47,14.47,0,0,1-3.36.22,4.73,4.73,0,0,0-.47-1.39q2.17.06,2.76,0a.46.46,0,0,0,.32-.08.37.37,0,0,0,.09-.29v-5.55h-12.72v7.35h-1.4v-8.6Zm-13.18-5.35h10.68V228h-10.68Zm9.22,3v-1.95h-7.82v1.95Zm-.1,9.1h-6.25v1h-1.33v-5.22h7.58Zm-1.33-3.14h-4.92v2h4.92Z"/><path d="M1067.6,228l.28,1.33-2.08.82v5.94a1.44,1.44,0,0,1-.7,1.46,6.48,6.48,0,0,1-2.48.28,5,5,0,0,0-.45-1.39,18.22,18.22,0,0,0,1.9,0,.36.36,0,0,0,.25-.07.37.37,0,0,0,.08-.28v-5.43l-2.38.88-.38-1.41c.25-.08.68-.23,1.3-.46l1.46-.52V225h-2.5v-1.37h2.5v-4h1.4v4h2V225h-2v3.73Zm3.5,1v-9.34h1.4v8.77c0,.87,0,1.64-.08,2.3a12.71,12.71,0,0,1-.38,2.06,7.45,7.45,0,0,1-.81,1.9,7.64,7.64,0,0,1-1.36,1.63,9.46,9.46,0,0,1-2.07,1.43,4.16,4.16,0,0,0-1-1.08,7.31,7.31,0,0,0,3.07-2.55,8.18,8.18,0,0,0,1.15-3.56c-.57.46-1.63,1.25-3.18,2.38l-.8-1.23Q1067.94,231.2,1071.1,229.06Zm-.1-2.85-1.21.66a13.53,13.53,0,0,0-2-4.24l1.11-.58A14.29,14.29,0,0,1,1071,226.21Zm5.55,10h1.81c.24,0,.4-.18.48-.55a14.07,14.07,0,0,0,.17-2.3,3.07,3.07,0,0,0,1.27.61,8.15,8.15,0,0,1-.48,2.82,1.4,1.4,0,0,1-1.36.77h-2.09a1.76,1.76,0,0,1-1.46-.48,3.18,3.18,0,0,1-.37-1.84V219.72h1.42v8.87l.37-.37a28.16,28.16,0,0,1,3.91,3.67l-1,1.05a33.44,33.44,0,0,0-3.3-3.35v5.72a1.81,1.81,0,0,0,.11.78C1076.12,236.21,1076.29,236.26,1076.55,236.26Zm1.93-14.43,1.35.67c-1.17,2.09-2,3.54-2.62,4.33l-1-.58A23.41,23.41,0,0,0,1078.48,221.83Z"/><path d="M1089.42,226a31.69,31.69,0,0,1,4.47,4.43l-1.35,1.14a30.88,30.88,0,0,0-4.41-4.44Z"/><path d="M1119.73,223.55H1109c-.41.85-.82,1.61-1.23,2.3h9.65V236a2.35,2.35,0,0,1-.19,1,1.12,1.12,0,0,1-.65.52,13.09,13.09,0,0,1-3.5.28,5.32,5.32,0,0,0-.47-1.47c.59,0,1.54,0,2.87,0,.32,0,.47-.15.47-.41v-2.09h-8.34v4h-1.46v-9.65a16.2,16.2,0,0,1-3.34,3.16,5.37,5.37,0,0,0-.94-1.13,16.61,16.61,0,0,0,5.51-6.66h-5v-1.41H1108a22,22,0,0,0,.88-2.57l1.49.35c-.29.9-.55,1.64-.79,2.22h10.18Zm-3.79,5.68v-2h-8.34v2Zm-8.34,3.38h8.34v-2.09h-8.34Z"/><path d="M1124.73,233.78V235h6.15v1.13h-6.15v1.72h-1.37v-12h2.37c.28-.76.44-1.19.47-1.29l.37,0a10.09,10.09,0,0,0-1-2.09h-.76a14.87,14.87,0,0,1-1.84,2.46,8.09,8.09,0,0,0-1.21-.82,11.76,11.76,0,0,0,2.91-4.63l1.41.35a14.48,14.48,0,0,1-.65,1.48h5.26v1.16h-3.68a8.24,8.24,0,0,1,.84,1.81l-.78.33.65.06a11.78,11.78,0,0,1-.59,1.14h3.4v5.68h-5.84v1.21h5.76v1.07Zm4.45-6.91h-4.45v1.25h4.45Zm-4.45,3.59h4.45v-1.32h-4.45Zm8.56-9.14H1140v1.16h-4.43a9,9,0,0,1,1.23,2l-1.31.49a9.49,9.49,0,0,0-1.48-2.52h-1.41a11.65,11.65,0,0,1-2.09,2.42,6.66,6.66,0,0,0-1.19-.86,10,10,0,0,0,3.24-4.55l1.43.35C1133.8,220.27,1133.57,220.76,1133.29,221.32Zm5.83,4v8.4a2.3,2.3,0,0,1-.15.94,1,1,0,0,1-.59.5,10.14,10.14,0,0,1-3,.26A3.57,3.57,0,0,0,1135,234a22,22,0,0,0,2.39,0c.23,0,.35-.1.35-.31v-7h-4.26v11.07h-1.39V225.27Z"/><path d="M1159.93,227.89h-4.5a11.48,11.48,0,0,0,4.83,3.37,4.3,4.3,0,0,0-1,1.25,12.48,12.48,0,0,1-4.06-2.81v.8h-3.73v.71c0,.22,0,.54,0,.95h5.94v1.21h-5.2c1.21,1.79,3.32,2.88,6.33,3.29a3.86,3.86,0,0,0-.82,1.21c-3.15-.58-5.39-2-6.7-4.12q-1.3,2.81-6.8,4.16a3.64,3.64,0,0,0-.88-1.08c3.35-.79,5.44-2,6.27-3.46h-5v-1.21h5.5a6,6,0,0,0,.08-1v-.67h-3.4v-.62a15.27,15.27,0,0,1-4,2.85,3.09,3.09,0,0,0-.45-.6,2.41,2.41,0,0,0-.57-.47,13.44,13.44,0,0,0,4.92-3.77h-4.53v-1.22h5.39a14.42,14.42,0,0,0,.9-1.58h-4.14V223.9h4.61a13.31,13.31,0,0,0,.49-1.54h-5.78v-1.21h6c.11-.71.17-1.23.2-1.58l1.5.11c-.08.65-.14,1.14-.19,1.47h7.58v1.21h-7.84c-.13.51-.28,1-.46,1.54h7.46v1.19h-4.2a9.76,9.76,0,0,0,.9,1.58h5.39Zm-12.66,1.42h7.6c-.54-.62-.91-1.1-1.14-1.42h-5.35A10.49,10.49,0,0,1,1147.27,229.31Zm4.94-4.22H1150c-.19.42-.45.95-.81,1.58H1153A13.69,13.69,0,0,1,1152.21,225.09Z"/><path d="M1169.36,232.53l-.43-1.05c1.59-.66,2.43-1.64,2.52-2.93l-.35,0a1.59,1.59,0,0,1-1.08-.37,1.51,1.51,0,0,1,0-2.12,1.64,1.64,0,0,1,1.09-.38,1.46,1.46,0,0,1,1.25.61,2.82,2.82,0,0,1,.45,1.69,4.39,4.39,0,0,1-.93,2.79A5.41,5.41,0,0,1,1169.36,232.53Z"/><path d="M379.22,254.2v15.37a2.5,2.5,0,0,1-.18,1.06,1.27,1.27,0,0,1-.64.56,11.75,11.75,0,0,1-3.34.28,3.88,3.88,0,0,0-.54-1.47c1.35,0,2.27.05,2.77,0,.31,0,.47-.16.47-.45V255.63h-13.5v15.86h-1.44V254.2Zm-3.14,3.5V259H366V257.7ZM375,267.4h-6.64v1.45H367v-7.77h8Zm-1.4-5h-5.24v3.76h5.24Z"/><path d="M388.27,254.47v13H384v1.62H382.6V254.47Zm-1.41,1.35H384v4.44h2.89ZM384,266.19h2.89v-4.63H384Zm16.25-5.47h-2.54V263H400v1.31h-2.32v5.37c0,.81-.27,1.31-.82,1.5a12.94,12.94,0,0,1-3.24.24,4,4,0,0,0-.47-1.39c1.31,0,2.2.05,2.65,0a.63.63,0,0,0,.35-.1.37.37,0,0,0,.08-.29V264.3h-7.55V263h7.55v-2.27h-7.65V259.4h5v-2.54h-4.16v-1.31h4.16v-2.38h1.46v2.38h4.3v1.31h-4.3v2.54h5.16Zm-10.31,5,1.19-.69a13.22,13.22,0,0,1,2.6,3.4l-1.25.8a12.71,12.71,0,0,0-1.08-1.74A18.13,18.13,0,0,0,389.91,265.69Z"/><path d="M409.07,264.79l-.88,1a28.36,28.36,0,0,0-2-2.71v8.38h-1.41v-7.72a19.75,19.75,0,0,1-2.44,2.17,4.38,4.38,0,0,0-.74-1.31,16.11,16.11,0,0,0,3.08-2.8,16.31,16.31,0,0,0,2.4-3.59h-5v-1.34h2.69v-3.62h1.41v3.62h1.68l.25-.06.8.55a19.12,19.12,0,0,1-2.4,4.35s.12.15.27.33.28.33.37.45a15.19,15.19,0,0,0,1.41-2.05l.9.65c-.77,1.05-1.32,1.77-1.66,2.14C408.49,264.07,408.92,264.59,409.07,264.79Zm9.27-3.85,1,.37a14.68,14.68,0,0,1-3.16,6.46,11.22,11.22,0,0,0,4.18,2.43,5.11,5.11,0,0,0-1,1.29,12.07,12.07,0,0,1-4.2-2.64,13.45,13.45,0,0,1-4.08,2.6,4.32,4.32,0,0,0-.86-1.23,11.82,11.82,0,0,0,4-2.45,16.21,16.21,0,0,1-2.81-5.44h-.14c-.13,4-.95,7-2.48,9.12a3.84,3.84,0,0,0-1.17-.78q2.26-3.1,2.27-9.63v-4.77h4.31v-3.08h1.41v3.08h3.28l.26-.06,1,.24a24.43,24.43,0,0,1-1.23,4l-1.27-.29a16.26,16.26,0,0,0,.74-2.52h-2.81V261h2.56Zm-4.2-3.34h-2.91V261h2.91Zm3.4,4.73h-4.8a13.13,13.13,0,0,0,2.4,4.39A12.53,12.53,0,0,0,417.54,262.33Z"/><path d="M440,264h-4.23a9.37,9.37,0,0,0,2,1.81,10.53,10.53,0,0,0,2.47,1.27,5,5,0,0,0-1,1.13,11,11,0,0,1-2.8-1.73,12.25,12.25,0,0,1-2.28-2.48H428a13.53,13.53,0,0,1-2.36,2.58,13.28,13.28,0,0,1-2.85,1.89,4.36,4.36,0,0,0-1-1.13,11,11,0,0,0,4.51-3.34H422v-1.27h4v-6.37h-3.05V255.1h3.05v-1.91h1.47v1.91h7.24v-1.91h1.51v1.91h3v1.25h-3v6.37H440Zm-8.32,3.53v2.11h6.9v1.25H423.52v-1.25h6.7v-2.11h-4.08v-1.21h4.08v-1.68h1.48v1.68h4.18v1.21Zm2.95-11.17h-7.24v1.33h7.24Zm-7.24,2.46v1.37h7.24v-1.37Zm0,2.5v1.41h7.24v-1.41Z"/><path d="M445.86,259.36v5.78l2.29-1,.29,1.33q-1.21.57-6.13,2.75l-.59-1.48c.82-.27,1.73-.63,2.74-1.08v-6.34H441.9V258h2.56V253.4h1.4V258h2.35v1.41Zm6.7,10.29h4.83a1.12,1.12,0,0,0,1.11-.54,6.93,6.93,0,0,0,.37-2.31,3.36,3.36,0,0,0,1.35.58,6.34,6.34,0,0,1-.71,2.86,2.46,2.46,0,0,1-2.08.74h-4.91a3.66,3.66,0,0,1-2.33-.54,2.81,2.81,0,0,1-.62-2.14V262l-1.58.65-.56-1.27,2.14-.92V255H451v4.84l2.68-1.13v-5.56h1.42v5l2.64-1.12.31-.29.29-.22,1,.4-.08.29a71.82,71.82,0,0,1-.19,7.48,2.09,2.09,0,0,1-.16.61.89.89,0,0,1-.37.42,4.5,4.5,0,0,1-.44.25,1.86,1.86,0,0,1-.62.12l-.63,0h-.73a4.29,4.29,0,0,0-.36-1.27c.33,0,.77,0,1.33,0a.58.58,0,0,0,.61-.52q.13-.69.14-5.88l-2.78,1.19V267h-1.42v-6.75L451,261.41v6.91a1.47,1.47,0,0,0,.29,1.07A2.11,2.11,0,0,0,452.56,269.65Z"/><path d="M466.06,262.4v5q1.37,2.12,5,2.27c3.33.09,6.37.05,9.12-.14a4.13,4.13,0,0,0-.51,1.47c-3.07.1-5.94.12-8.59.06s-4.51-.91-5.71-2.37c-.67.65-1.64,1.51-2.89,2.56l-.78-1.46a28.42,28.42,0,0,0,2.87-2.29v-3.71H462V262.4Zm.51-2.69-1,1.05a12.4,12.4,0,0,0-3.46-2.38l1-1A12.38,12.38,0,0,1,466.57,259.71Zm.56-3.91-1,1a11.28,11.28,0,0,0-3.24-2.48l1-.92A11.8,11.8,0,0,1,467.13,255.8Zm.76,12.5-.23-1.4,1.41-.24V254h9.08v7.45H474.3a10.7,10.7,0,0,0,1.09,2.26,26.8,26.8,0,0,0,3.15-2.36l1.17.86a33.74,33.74,0,0,1-3.65,2.4,8.7,8.7,0,0,0,4,2.68,4.21,4.21,0,0,0-.93,1.25q-4.45-1.74-6.14-7.09h-2.46v4.94l4.3-.78.08,1.29Q470.73,267.77,467.89,268.3Zm8.81-13h-6.21v1.86h6.21Zm-6.21,4.89h6.21v-1.9h-6.21Z"/><path d="M482.84,264.51l1.23.22a17.68,17.68,0,0,1-1.37,5.06,4.52,4.52,0,0,0-1.08-.53A14.59,14.59,0,0,0,482.84,264.51Zm8.3-6.75,1.32.33a21.17,21.17,0,0,1-1.17,3.2v10.14H490v-7.76a11.19,11.19,0,0,1-1.09,1.45,4.62,4.62,0,0,0-.8-1c.09-.1.27-.35.55-.74l-.84.37c0-.17-.1-.46-.2-.88l-1.54.1v8.42h-1.27v-8.34l-1.76.1-1.29.09-.14-1.34c.45,0,.93-.05,1.47-.06q.84-1.15,1.17-1.68a15.91,15.91,0,0,0-2.5-2.91l.8-.92.63.58a22.44,22.44,0,0,0,1.75-3.76l1.27.48a41.4,41.4,0,0,1-2.22,4.1c.43.5.77.92,1,1.27a37.75,37.75,0,0,0,2-3.59l1.23.53a52.45,52.45,0,0,1-3.84,5.82l2.75-.16c-.21-.53-.47-1.12-.78-1.78l1-.41a14.25,14.25,0,0,1,1.49,3.62A17.19,17.19,0,0,0,491.14,257.76Zm-4.44,7,1-.33a12.61,12.61,0,0,1,1,3.63l-1.11.33A11.26,11.26,0,0,0,486.7,264.75Zm3.52-8.38v2h-1.37V255.1h4.65v-1.95H495v1.95h4.81v3H498.4v-1.74Zm9.73,3.44h-3.11c-.13.52-.31,1.19-.55,2h3.19v9.49h-1.27v-.78h-4.1v.88h-1.27v-9.59H495c.16-.68.31-1.35.43-2h-2.92v-1.23H500Zm-1.74,5.7v-2.46h-4.1v2.46Zm-4.1,3.81h4.1V266.7h-4.1Z"/><path d="M505.84,253.13l1.61.29c-.42,1.22-.77,2.21-1.06,3h3.32v13h-5.55v1.58H502.8V256.37H505A22.49,22.49,0,0,0,505.84,253.13Zm2.52,8.75V257.7h-4.2v4.18Zm-4.2,6.13h4.2V263.2h-4.2Zm15.34-11.7v.76c-.16,4.69-.33,7.93-.51,9.74a7.56,7.56,0,0,1-.86,3.43,2.16,2.16,0,0,1-1.58.8,20.9,20.9,0,0,1-3,0,3.13,3.13,0,0,0-.51-1.45q1.3.12,3,.12a1,1,0,0,0,.82-.31,6.76,6.76,0,0,0,.75-3.1q.27-2.56.46-8.6H513a17.4,17.4,0,0,1-1.87,3.51,10.56,10.56,0,0,0-1.21-.84,19.11,19.11,0,0,0,3-7.26l1.43.33c-.24,1-.52,1.93-.86,2.89Zm-3.17,9-1.25.79a31.89,31.89,0,0,0-3-4.61l1.17-.69A39.6,39.6,0,0,1,516.33,265.29Z"/><path d="M526.25,258.87v1.25a41.15,41.15,0,0,1,2.41,3.55l-.82,1.1a26.26,26.26,0,0,0-1.59-2.89v9.53h-1.34v-9.34a20.11,20.11,0,0,1-2.45,5.57,7,7,0,0,0-.76-1.27,15,15,0,0,0,1.74-3.31,26.13,26.13,0,0,0,1.29-4.19h-2.64v-1.39h2.82v-4.31h1.34v4.31h2.29v1.39Zm5.71-.53h2c.06-.58.12-1.18.17-1.78h-5.09v-1.29h5.21c0-.09,0-.4,0-.92s.06-.92.07-1.16l1.5.07c-.08.94-.14,1.61-.19,2h4.47v1.29h-4.63c0,.51-.12,1.1-.21,1.78h3.8v9.06H532ZM540.24,269v1.27h-9.81v1.16h-1.34V259.57h1.34V269Zm-2.48-8v-1.55h-4.49V261Zm0,2.63v-1.56h-4.49v1.56Zm0,2.68v-1.6h-4.49v1.6Z"/><path d="M551.51,267.19l-.78,1.19c-.58-.53-1.51-1.29-2.82-2.28v5.33h-1.4v-5.65a13.14,13.14,0,0,1-3.63,4,4.87,4.87,0,0,0-1-1.12,10.67,10.67,0,0,0,2.43-2,12.71,12.71,0,0,0,2-2.72h-3.86v-1.33h4.1v-2h1.4v2h3.79v1.33h-3.79v.82A40.6,40.6,0,0,1,551.51,267.19Zm6.09-6.09,1.37.5a21.75,21.75,0,0,1-3.3,5.37c.7,2,1.53,3,2.48,3,.26,0,.45-.25.58-.75a14.94,14.94,0,0,0,.3-2.55,3.21,3.21,0,0,0,1.19.76,8.42,8.42,0,0,1-.66,3.14,1.64,1.64,0,0,1-1.55.85c-1.4,0-2.56-1.08-3.46-3.23a18.27,18.27,0,0,1-3.94,3.11,4,4,0,0,0-1.09-1.15,17,17,0,0,0,4.51-3.5,35.22,35.22,0,0,1-1.14-6.52H542v-1.35h4.51v-2.3H543v-1.33h3.54v-2h1.4v2h3.4v1.33h-3.4v2.3h4.87c-.11-1.64-.17-3.5-.2-5.59h1.51c0,1.91,0,3.77.15,5.59H560v1.35h-5.66a37.45,37.45,0,0,0,.8,5.15A19,19,0,0,0,557.6,261.1Zm2-4.28-1.09.86a14.62,14.62,0,0,0-3.12-3.28l1-.79A14.06,14.06,0,0,1,559.59,256.82Z"/><path d="M562.7,254h16.6v17.41h-1.46v-.84H564.12v.84H562.7Zm1.42,15.2h13.72V255.41H564.12Zm12.64-10.43v.9H565.3v-.9h3.41c0-.1.11-.29.2-.56s.16-.48.21-.65h-2.63v-.86h2.89c.12-.39.21-.76.29-1.11l1.27.15c0,.09-.07.25-.13.46s-.1.38-.12.5h4.2v2.07Zm0,7.58,0,.92h-4.22v1.46H571.2v-1.46h-5.79v-.92h1.47v-2.15h4.32v-.84h-4.54v-2.91h8.7v2.91h-2.8v.84h3.3v.92h-3.3v1.23Zm-8.89-5.1v1.31H574v-1.31Zm.14,5.1h3.15v-1.23h-3.15Zm5.57-8.79h-3.19c-.09.3-.22.7-.39,1.21h3.58Z"/><path d="M582,258.4h4.23v-.88l-.07,0a9.14,9.14,0,0,0-.8-1.76h-.57a13.65,13.65,0,0,1-1.78,2.11,7,7,0,0,0-1.19-.82,10.39,10.39,0,0,0,2.85-4l1.39.37c-.25.53-.44.93-.59,1.19h5.3v1.13h-3.93a7.81,7.81,0,0,1,.66,1.41l-.74.19h.86v1h4.1v1.07H582Zm18.16,11v1.25h-6.46v.76h-1.27v-9a14.32,14.32,0,0,1-1,1.33,5.37,5.37,0,0,0-.82-1.07v1.52h-3.3l-.33,1h4.16v4.86c0,.61-.19,1-.57,1.13a7.45,7.45,0,0,1-2.23.2,3.63,3.63,0,0,0-.41-1.1,11.35,11.35,0,0,0,1.74,0c.2,0,.29-.08.29-.25v-3.83h-3.28q-.23.72-.66,1.92l2.05-.14a11.6,11.6,0,0,0-.68-1.15l.82-.34a8.77,8.77,0,0,1,1.48,2.72l-.88.39a6.32,6.32,0,0,0-.31-.78c-1.13.13-2.59.27-4.38.43l-.13-1,.94,0c.2-.63.39-1.29.56-2h-1.72v5.16h-1.13v-6.17h3.11q.15-.71.21-1h-2.85v-4.34h1.09v3.36h5.26v-3.36h1.15v2.7a15.33,15.33,0,0,0,2.87-5.49l1.29.33c-.13.42-.44,1.21-.94,2.37h1.94a15.79,15.79,0,0,0,1-2.41l1.35.34L597,259.79h2.87V261h-2.78v2h2.33v1.19h-2.33v2h2.37v1.18h-2.37v2Zm-11-7.09-.72.64A13.86,13.86,0,0,0,587,261.9a10.31,10.31,0,0,1-1.8,1.13,7.81,7.81,0,0,0-.84-.61,15.11,15.11,0,0,0,1.8-1q-.95-.51-1.41-.72l.7-.57a14.91,14.91,0,0,1,1.49.72,8.35,8.35,0,0,0,1-1l1,.25a6.87,6.87,0,0,1-1.13,1.21A9.55,9.55,0,0,1,589.12,262.31Zm5-6.53h-1.51a10.35,10.35,0,0,1-1.89,2,11.13,11.13,0,0,0-1.27-.74,8.54,8.54,0,0,0,1.81-1.75,8.75,8.75,0,0,0,1.29-2.19l1.43.35c-.18.4-.38.81-.61,1.21H600v1.13h-4.31a7.12,7.12,0,0,1,.93,1.47l-1.32.41A7.85,7.85,0,0,0,594.07,255.78Zm1.79,7.17v-2h-2.18v2Zm0,3.22v-2h-2.18v2Zm-2.18,1.18v2h2.18v-2Z"/><path d="M608.19,265.18l.21,1.27q-1.89.65-6.25,2l-.43-1.39c.44-.11,1.35-.37,2.72-.76v-4.67h-2.27v-1.29h2.27V255.9H602v-1.33h6.31v1.33h-2.5v4.43h2.11v1.29h-2.11v4.28l1.27-.37Zm10.49.62,1.05.8c-.92.62-1.86,1.18-2.81,1.7a7.75,7.75,0,0,0,3.42,2,4.79,4.79,0,0,0-.9,1.2,8.63,8.63,0,0,1-3.39-2.19,10.31,10.31,0,0,1-2.22-3.58,13.3,13.3,0,0,1-1.68,1.2v2.67l3.21-.6.07,1.17-6.09,1.21-.31-1.21,1.83-.33v-2.17a17.91,17.91,0,0,1-3.28,1.38,3.41,3.41,0,0,0-.84-1,19.5,19.5,0,0,0,5.61-2.48h-3v-4.18h9.35v4.18H615a8.84,8.84,0,0,0,1.22,2A25.87,25.87,0,0,0,618.68,265.8ZM608,260.18V259h12.17v1.19Zm11.17-6.33v4.06H608.85v-4.06Zm-7.24,3v-1.86H610.1v1.86Zm-1.23,5.64v1.92h6.66v-1.92Zm4.2-5.64v-1.86H613v1.86Zm3,0v-1.86H616v1.86Z"/><path d="M622.84,264.51l1.23.22a17.68,17.68,0,0,1-1.37,5.06,4.52,4.52,0,0,0-1.08-.53A14.59,14.59,0,0,0,622.84,264.51Zm4.76-1.6-1.48.1v8.42h-1.27v-8.34l-1.76.1-1.29.09-.14-1.34c.45,0,.93-.05,1.47-.06q.84-1.15,1.17-1.68a15.91,15.91,0,0,0-2.5-2.91l.8-.92.63.58a22.44,22.44,0,0,0,1.75-3.76l1.27.48a41.4,41.4,0,0,1-2.22,4.1c.43.5.77.92,1,1.27a37.75,37.75,0,0,0,2-3.59l1.23.53a52.45,52.45,0,0,1-3.84,5.82l2.67-.14c-.15-.4-.42-1-.8-1.74l1.06-.39a16,16,0,0,1,1.58,3.69l.91-.12,1.06-.15v-1.56h-1.66v-1.12h1.66v-1.36h1.23v1.36h1.62v1.12h-1.62v1.37l1.88-.26,0,1.08-4.91.8-.15-.63-1.08.43A8.59,8.59,0,0,0,627.6,262.91Zm-.9,1.86,1-.33a12.19,12.19,0,0,1,1,3.63l-1.11.31A11,11,0,0,0,626.7,264.77Zm10.41,5.43h1.39a.44.44,0,0,0,.44-.36,9,9,0,0,0,.13-1.69,2.79,2.79,0,0,0,1.19.48,5.32,5.32,0,0,1-.41,2.2,1.25,1.25,0,0,1-1.17.56h-1.76a2,2,0,0,1-1.36-.33,2.05,2.05,0,0,1-.32-1.35v-3.38h-2a6.15,6.15,0,0,1-1.23,3.3,6.5,6.5,0,0,1-3.38,1.78,3.37,3.37,0,0,0-.8-1.14,5.84,5.84,0,0,0,3-1.34,4.44,4.44,0,0,0,1-2.6H629v-1.21h11v1.21h-3.39v3.38c0,.22,0,.36.08.41A.74.74,0,0,0,637.11,270.2Zm2.68-12.82v1.14H628.93v-1.14h4.69v-1.56H630v-1.15h3.64v-1.48H635v1.48h3.91v1.15H635v1.56Zm-5.39,5.51h2v-1.5h-1.8v-1.13h1.8v-1.35h1.25v1.35h2v1.13h-2v1.5H640V264H634.4Z"/><path d="M649.36,266.13l-.43-1.05c1.59-.66,2.43-1.64,2.52-2.93l-.35,0a1.59,1.59,0,0,1-1.08-.37,1.51,1.51,0,0,1,0-2.12,1.64,1.64,0,0,1,1.09-.38,1.46,1.46,0,0,1,1.25.61,2.82,2.82,0,0,1,.45,1.69,4.39,4.39,0,0,1-.93,2.79A5.41,5.41,0,0,1,649.36,266.13Z"/><path d="M671.7,269.53H680v1.31H662v-1.31h8.2v-2.22h-6.13V266h6.13v-1.33h1.23a5.06,5.06,0,0,0-1.11-.72,5.11,5.11,0,0,0,1.81-2.46,10.42,10.42,0,0,0,.45-3.17V254h6.62v9.32a2.26,2.26,0,0,1-.14.89,1.07,1.07,0,0,1-.54.48,8.78,8.78,0,0,1-2.62.23,4.3,4.3,0,0,0-.45-1.34c.61,0,1.29,0,2,0,.23,0,.34-.11.34-.31V261h-4.14a6.22,6.22,0,0,1-2.13,3.71h.17V266h6.23v1.29H671.7Zm-5.54-9.08v-3.3H662V255.9h9.62v1.25H667.5v3.3h2.11V258h1.27v4.32h-1.27v-.67h-2.15c-.23,1.93-1.51,3.28-3.84,4.07a3.33,3.33,0,0,0-.41-.55,4.44,4.44,0,0,0-.49-.49,6.22,6.22,0,0,0,2.46-1.3,3.1,3.1,0,0,0,.92-1.73H664v.92h-1.25V258H664v2.5Zm-2.72-6.84,1.15-.35a7.24,7.24,0,0,1,1.08,2.23l-1.17.41A8.79,8.79,0,0,0,663.44,253.61Zm5.57-.41,1.33.36c-.76,1.32-1.21,2.09-1.35,2.28l-1.17-.33A12,12,0,0,0,669,253.2Zm4.84,6.63h3.95v-1.74h-3.87v.27C673.93,258.66,673.9,259.15,673.85,259.83Zm3.95-4.57h-3.87v1.66h3.87Z"/><path d="M686.06,262.42v5q1.37,2.11,5,2.27,5,.13,9.12-.14a4.09,4.09,0,0,0-.51,1.45c-3.07.1-5.94.12-8.59.06s-4.51-.9-5.73-2.35c-.67.65-1.64,1.51-2.89,2.56l-.76-1.46c1.07-.79,2-1.55,2.85-2.29v-3.71H682v-1.39Zm.49-2.69-1,1a12.48,12.48,0,0,0-3.44-2.4l1-1A12.87,12.87,0,0,1,686.55,259.73Zm.58-3.91-1,1a12.09,12.09,0,0,0-3.24-2.5l1-.92A12.08,12.08,0,0,1,687.13,255.82ZM692.8,257h-3a14.41,14.41,0,0,1-1.52,2.11,7.35,7.35,0,0,0-1.29-.74,11.43,11.43,0,0,0,2.91-4.9l1.38.35c-.14.42-.4,1.05-.78,1.9h2.31V253.2h1.46v2.49H699V257h-4.77v2.56h5.63v1.29H687.13v-1.29h5.67Zm5.6,11.47h-1.46v-.67h-6.56v.73H689v-6.14h9.45Zm-8-1.93h6.56v-2.93h-6.56Z"/><path d="M717.29,263.19h1.5v8.2h-1.5v-1.21H704.81v1.25h-1.49v-8.24h1.49v5.54h5.33V261.9h-6v-6.84h1.46v5.41h4.59v-7.19h1.52v7.19h4.81v-5.41H718v6.84h-6.33v6.83h5.63Z"/><path d="M722.84,264.51l1.27.22a17.19,17.19,0,0,1-1.39,5.08,3.58,3.58,0,0,0-1.1-.55A14.59,14.59,0,0,0,722.84,264.51Zm5-1.6-1.59.1v8.42H725v-8.34l-3.15.19-.14-1.34,1.37-.06c.63-.81,1-1.36,1.25-1.66a15.91,15.91,0,0,0-2.48-2.89l.8-.94.61.55a28.83,28.83,0,0,0,1.77-3.75l1.29.48a34,34,0,0,1-2.28,4.1c.32.36.68.79,1.07,1.29a36.68,36.68,0,0,0,2.13-3.61l1.27.57a60.19,60.19,0,0,1-4,5.78l2.89-.14q-.36-.77-.9-1.68l1.09-.43a15,15,0,0,1,1.92,4.08l-1.17.55A7.57,7.57,0,0,0,727.84,262.91Zm-.9,1.88,1.09-.34a12.42,12.42,0,0,1,1.08,3.62l-1.18.33A11.41,11.41,0,0,0,726.94,264.79Zm6,1.54.45,1.11c-2.16,1.57-3.55,2.56-4.18,3l-.76-1.29Q729.5,268.5,732.91,266.33Zm5.79-3.89,1.13.88a26.23,26.23,0,0,1-3.07,2.64,8.16,8.16,0,0,0,3.58,3.32,6.16,6.16,0,0,0-.94,1.23,9.76,9.76,0,0,1-4.28-5.18v4.59a2,2,0,0,1-.14.87.83.83,0,0,1-.52.44,7.48,7.48,0,0,1-2.44.24,5.84,5.84,0,0,0-.41-1.29c.91,0,1.52,0,1.83,0s.31-.1.31-.3v-8.32H729v-1.25h6.89c0-.06.06-.28.14-.64s.14-.65.17-.84h-4.59l-.19.66-1.43-.23a53.59,53.59,0,0,0,1.61-6.09l1.4.17-.33,1.39h4.41l.26-.06,1,.16q-.27,2.09-1,5.48h2.62v1.25h-4.79a13.63,13.63,0,0,0,1.06,3.32A17.73,17.73,0,0,0,738.7,262.44Zm-5.79,2.72-1,.9a10.91,10.91,0,0,0-2.31-2.66l1-.8A11.79,11.79,0,0,1,732.91,265.16Zm-1-7.5h4.53c0-.22.09-.53.16-.92s.12-.66.15-.82h-4.37c0,.17-.12.45-.23.84S732,257.45,731.94,257.66Z"/><path d="M748.3,269.83h7.82a2.3,2.3,0,0,0,1.84-.56,5.09,5.09,0,0,0,.62-2.41,4.72,4.72,0,0,0,1.48.56,5.41,5.41,0,0,1-1,3,4.12,4.12,0,0,1-2.91.76H748.4a6.5,6.5,0,0,1-3.33-.59,2.69,2.69,0,0,1-.87-2.36V259.4a15.17,15.17,0,0,1-1.34,1.07,3.38,3.38,0,0,0-1.08-1.05,18.7,18.7,0,0,0,3.43-3,17.09,17.09,0,0,0,2.35-3.31l1.64.31-.7,1.11h4.94l.27-.11,1,.64a23.72,23.72,0,0,1-1.87,3.05h5.64v7.22H757v-.91H745.69v3.86a1.32,1.32,0,0,0,.5,1.24A4.55,4.55,0,0,0,748.3,269.83Zm4.32-14h-5a20.72,20.72,0,0,1-2,2.31h5.49A16.78,16.78,0,0,0,752.62,255.8Zm-6.93,3.65v3.64h4.72v-3.64ZM757,263.09v-3.64H751.9v3.64Z"/><path d="M771.8,269.36h8.11v1.44H762.17v-1.44h8.11v-5.08h-5.94v-1.43h5.94v-4.37h-4.71a17,17,0,0,1-2.09,3.26,6.42,6.42,0,0,0-1.35-.88,17.4,17.4,0,0,0,3.71-7.36l1.51.33a25,25,0,0,1-1.14,3.2h4.07v-3.84h1.52V257H779v1.45H771.8v4.37h6.43v1.43H771.8Z"/><path d="M786.43,260.88l-.86,1.23a37.7,37.7,0,0,0-3.67-2.17l.82-1.07C784.58,259.82,785.82,260.49,786.43,260.88Zm-2.81,10.29-1.23-1a50.55,50.55,0,0,0,3.77-6.39l1.07,1A65.4,65.4,0,0,1,783.62,271.17Zm3.83-15.68-.86,1.19c-.69-.49-1.93-1.23-3.71-2.21l.82-1.05A33.37,33.37,0,0,1,787.45,255.49Zm12.61,4.94h-5.49v3.28h4.18v7.62h-1.4v-.74h-7.13v.84h-1.37v-7.72h4.32v-3.28h-5.76V259h5.76v-3.25c-1.63.24-3.1.42-4.42.55a5.94,5.94,0,0,0-.39-1.27,44.63,44.63,0,0,0,9.67-1.78l1.19,1.16a29.37,29.37,0,0,1-4.65,1.13V259h5.49Zm-2.71,8.77v-4.12h-7.13v4.12Z"/><path d="M805.43,260.45h3.66c0,.3,0,.52,0,.65q-.11,5.23-.25,7.18a5.74,5.74,0,0,1-.5,2.44,1.55,1.55,0,0,1-1.17.63,11,11,0,0,1-2,0,3.17,3.17,0,0,0-.37-1.33c.69,0,1.28.08,1.76.08a.61.61,0,0,0,.56-.27,5.34,5.34,0,0,0,.37-2.09c.08-1.16.15-3.16.22-6h-2.3a29.11,29.11,0,0,1-.76,5.75,9.52,9.52,0,0,1-1.92,3.9,3.47,3.47,0,0,0-1.08-1,7.5,7.5,0,0,0,1.33-2.19,12.5,12.5,0,0,0,.75-3c.15-1.2.26-2.31.31-3.32s.08-2.38.1-4.09h-2.17v-1.36h3.32V253.2h1.42v3.23h3.23v1.36h-4.42C805.47,258.86,805.45,259.75,805.43,260.45Zm10.1,4.94v4.2a7.34,7.34,0,0,0,1.78.18c1.61,0,2.61,0,3,0a3.9,3.9,0,0,0-.43,1.35h-2.68a6.9,6.9,0,0,1-3.28-.7,5.07,5.07,0,0,1-2.11-2.57,7.49,7.49,0,0,1-1.84,3.6,2.84,2.84,0,0,0-.93-1,6.31,6.31,0,0,0,1.56-3.12,27.45,27.45,0,0,0,.53-4.85h1.33c0,.91-.13,1.94-.26,3.07a5.93,5.93,0,0,0,2,3.42v-8.38h-3.43v-1.17l-.2.24-.21.24a6.88,6.88,0,0,0-1.2-.93,12.63,12.63,0,0,0,2.88-5.82l1.44.27c-.16.61-.4,1.4-.74,2.36h7.38v1.37h-8a11.14,11.14,0,0,1-1.29,2.15h7.95l.24-.08,1,.31-.37.91c-.18.46-.32.8-.42,1s-.22.49-.37.81a8.66,8.66,0,0,1-.4.77l-1.11-.45c.4-.89.7-1.56.88-2h-2.64v3.51h3.79v1.27Z"/><path d="M826.45,257.6l1.25.51a26.12,26.12,0,0,1-1.62,2.46v10.84h-1.41v-9.16a20.14,20.14,0,0,1-2.22,2.17,8.41,8.41,0,0,0-.79-1.41,18.63,18.63,0,0,0,2.67-2.49A16.42,16.42,0,0,0,826.45,257.6Zm-.33-4.36,1.4.55a15.18,15.18,0,0,1-2.13,2.54,19.52,19.52,0,0,1-2.65,2.21,6.42,6.42,0,0,0-.78-1.21,17.83,17.83,0,0,0,2.38-1.93A10.54,10.54,0,0,0,826.12,253.24Zm12.56,9.26h-4.42v1.56H839v1.27h-4.71V267h5.67v1.31h-5.67v3.09H832.8v-3.09h-5.37V267h5.37v-1.7h-4.5v-1.27h4.5V262.5h-4.22v-1.25h4.22v-1.7h-5.08v-1.31h5.08v-1.7h-4.14v-1.27h4.14v-2.08h1.46v2.08h4.42v3h1.46v1.31h-1.46Zm-4.42-6v1.7h3v-1.7Zm0,3v1.7h3v-1.7Z"/><path d="M849.36,266.13l-.43-1.05c1.59-.66,2.43-1.64,2.52-2.93l-.35,0a1.59,1.59,0,0,1-1.08-.37,1.51,1.51,0,0,1,0-2.12,1.64,1.64,0,0,1,1.09-.38,1.46,1.46,0,0,1,1.25.61,2.82,2.82,0,0,1,.45,1.69,4.39,4.39,0,0,1-.93,2.79A5.41,5.41,0,0,1,849.36,266.13Z"/><path d="M875.8,254.77l.94.6a12.56,12.56,0,0,1-2.46,3.13,17.33,17.33,0,0,1-3.4,2.48,27.39,27.39,0,0,1-3.81,1.77,30.16,30.16,0,0,1-4,1.18,3.91,3.91,0,0,0-.7-1.31,25.25,25.25,0,0,0,7.52-2.66,19.62,19.62,0,0,0-3.52-2.26c-.75.41-1.7.86-2.83,1.34a4.17,4.17,0,0,0-1-1.09,20.69,20.69,0,0,0,4.5-2.19,14.23,14.23,0,0,0,3.06-2.61l1.66.35a14.67,14.67,0,0,1-1.33,1.35h5.12Zm2.91,7,1,.55q-3.23,7.46-15.15,9.2a4.48,4.48,0,0,0-.67-1.35,24.8,24.8,0,0,0,8.77-2.52,18.08,18.08,0,0,0-3.85-2.68,31.57,31.57,0,0,1-3.32,1.41,5.42,5.42,0,0,0-.91-1.13,23.53,23.53,0,0,0,5.25-2.37,14,14,0,0,0,3.51-2.91l1.65.37a18.94,18.94,0,0,1-1.47,1.49h5Zm-4.12-5.62h-5.72a14.78,14.78,0,0,1-1.25.85,17.18,17.18,0,0,1,3.54,2.25A13.69,13.69,0,0,0,874.59,256.1Zm3,7h-5.74c-.68.48-1.26.86-1.74,1.13a20.59,20.59,0,0,1,3.81,2.62A11.29,11.29,0,0,0,877.62,263.07Z"/><path d="M890.34,258.87h5.87a6.15,6.15,0,0,0,1.55,1.86,9.55,9.55,0,0,0,2.19,1.4,4.34,4.34,0,0,0-1.06.94,6.35,6.35,0,0,1-.78-.49v2.69H886.88v-2.85a10.92,10.92,0,0,1-1,.63,7.4,7.4,0,0,0-.56-.65q-.3,5.82-2.29,8.93a5.61,5.61,0,0,0-1.29-.76,12.41,12.41,0,0,0,1.73-4.78,38.56,38.56,0,0,0,.42-5.91V254.1H898.7v4H885.36v1.79c0,.43,0,1.14,0,2.13a11,11,0,0,0,1.95-1.41,7.6,7.6,0,0,0,1.39-1.63l1.29.37a10.3,10.3,0,0,1-1.63,1.93h8.13a8.14,8.14,0,0,1-1.11-1.37h-5Zm6.87-3.58H885.36v1.59h11.85Zm-9.8,16.14V266h10.13v5.35h-1.38v-.45h-7.41v.49Zm.7-9.28v2.23h3.75v-2.23Zm8,4.82h-7.41v1.08h7.41Zm-7.41,3h7.41v-1.11h-7.41Zm.2-7.34.76-.26a6,6,0,0,1,1,1.59l-.78.29A5.5,5.5,0,0,0,889,262.64Zm7.85,1.74v-2.23h-3.87v2.23Zm-2.17-.08-.7-.28a15.8,15.8,0,0,0,1-1.67l.91.31A13.78,13.78,0,0,1,894.63,264.3Z"/><path d="M907.52,263.17l.45,1.3q-2.87,2.1-5.39,3.79l-.78-1.42Q903.87,265.63,907.52,263.17Zm0-6.66v1.4h-5.19v-1.4Zm6.49,1.71v2.52a8.61,8.61,0,0,0,.13,1.43,10.24,10.24,0,0,0,.54,1.94,11.18,11.18,0,0,0,1.09,2.19,9.92,9.92,0,0,0,1.85,2.09,10.27,10.27,0,0,0,2.72,1.71,15.88,15.88,0,0,0-1,1.33,10.82,10.82,0,0,1-2.66-1.77,10.38,10.38,0,0,1-1.89-2.24,13.55,13.55,0,0,1-1.09-2.14,7.64,7.64,0,0,1-.51-1.76,7.36,7.36,0,0,1-.58,1.76,14.46,14.46,0,0,1-1.21,2.11,10.06,10.06,0,0,1-2.13,2.24,12.45,12.45,0,0,1-3,1.8,5.23,5.23,0,0,0-.91-1.21,12.42,12.42,0,0,0,3-1.74,10.17,10.17,0,0,0,2.07-2.1,11,11,0,0,0,1.21-2.2,10.08,10.08,0,0,0,.63-2,8.15,8.15,0,0,0,.15-1.48v-2.52H910a18.4,18.4,0,0,1-2.22,4.07,7,7,0,0,0-1.43-.84,18.35,18.35,0,0,0,3.6-8.23l1.56.28q-.37,1.51-1,3.24h8.07l.29-.08,1.09.61a24.83,24.83,0,0,1-2.2,5.27l-.58-.29a6.34,6.34,0,0,0-.65-.31,18.43,18.43,0,0,0,1.52-3.72Z"/><path d="M933.87,261.25l1.54.43a13.84,13.84,0,0,1-3.26,5.06,17.16,17.16,0,0,0,8.07,3.28,5.16,5.16,0,0,0-1,1.41,17.8,17.8,0,0,1-8.24-3.66,21.74,21.74,0,0,1-8.2,3.74,4.62,4.62,0,0,0-.94-1.41,19.48,19.48,0,0,0,8-3.36,15.59,15.59,0,0,1-3.13-5l1.43-.43a12.61,12.61,0,0,0,2.83,4.39A12.15,12.15,0,0,0,933.87,261.25Zm-6.46-3.42,1.48.57a16.8,16.8,0,0,1-2.51,2.7,21.38,21.38,0,0,1-3,2.28,7,7,0,0,0-1.23-1.17,18.19,18.19,0,0,0,3-2A13.28,13.28,0,0,0,927.41,257.83Zm12.3-2.07v1.45h-17.4v-1.45h7.91v-2.61h1.48v2.61Zm-6.35,2.87,1.18-.89c1,.7,2.06,1.46,3.06,2.27a18.81,18.81,0,0,1,2.31,2.16l-1.31,1a18.23,18.23,0,0,0-2.25-2.22C935.36,260.12,934.37,259.34,933.36,258.63Z"/><path d="M960,269.1v1.37H944.38v1h-1.47V254.1h16.61v1.35H944.38V269.1Zm-15.54-8.92.78-.84a8.07,8.07,0,0,1,2.65,1.56l-.82.94A9.25,9.25,0,0,0,944.5,260.18Zm3.2,3.16.9.82c-.68,1.4-1.42,2.76-2.23,4.1l-1-.91A35.87,35.87,0,0,0,947.7,263.34Zm1.19-5.76-.84.9a9,9,0,0,0-2.5-1.7l.82-.82A8.54,8.54,0,0,1,948.89,257.58Zm2.58,10.68h-1.33v-7.44a12.55,12.55,0,0,1-1.35,1.58c-.57-.63-.88-1-.91-1a14.12,14.12,0,0,0,3.51-5.63l1.25.33a18.6,18.6,0,0,1-.92,2.09h2.39a14.47,14.47,0,0,0,.85-2.26l1.37.37c-.13.29-.42.92-.88,1.89H959v1.14h-3.61v1.56h3.14V262h-3.14v1.65h3.14v1.07h-3.14v1.72h3.84v1.13h-7.71ZM954,260.9v-1.56h-2.56v1.56Zm0,2.7V262h-2.56v1.65Zm0,2.79v-1.72h-2.56v1.72Z"/><path d="M965.84,253.13l1.61.29c-.42,1.22-.77,2.21-1.06,3h3.32v13h-5.55v1.58H962.8V256.37H965A22.49,22.49,0,0,0,965.84,253.13Zm2.52,8.75V257.7h-4.2v4.18Zm-4.2,6.13h4.2V263.2h-4.2Zm15.34-11.7v.76c-.16,4.69-.33,7.93-.51,9.74a7.56,7.56,0,0,1-.86,3.43,2.16,2.16,0,0,1-1.58.8,20.9,20.9,0,0,1-3,0,3.13,3.13,0,0,0-.51-1.45q1.3.12,3,.12a1,1,0,0,0,.82-.31,6.76,6.76,0,0,0,.75-3.1q.27-2.56.46-8.6H973a17.4,17.4,0,0,1-1.87,3.51,10.56,10.56,0,0,0-1.21-.84,19.11,19.11,0,0,0,3-7.26l1.43.33c-.24,1-.52,1.93-.86,2.89Zm-3.17,9-1.25.79a31.89,31.89,0,0,0-3-4.61l1.17-.69A39.6,39.6,0,0,1,976.33,265.29Z"/><path d="M999.22,262.4h-7.15a10.92,10.92,0,0,0,8.17,7.68,4.36,4.36,0,0,0-1,1.39,11.66,11.66,0,0,1-5-2.7,13.21,13.21,0,0,1-3.13-4.78,9.9,9.9,0,0,1-2.66,4.28,15.17,15.17,0,0,1-5.68,3.2,3.31,3.31,0,0,0-.38-.69,3,3,0,0,0-.52-.6,18.67,18.67,0,0,0,3.55-1.61,10,10,0,0,0,2.4-1.95,9.4,9.4,0,0,0,1.36-2,8.83,8.83,0,0,0,.7-2.18h-7v-1.52H990a10.56,10.56,0,0,0,0-1.13v-3.52h-7.81v-1.52h17.44v1.52h-8.07v3.54c0,.49,0,.86,0,1.11h7.6Z"/><path d="M1005.3,265.8a.61.61,0,0,0,.64-.4,3.24,3.24,0,0,0,.16-1.18,7.24,7.24,0,0,0-1.37-4.18c.43-1.3.85-2.85,1.25-4.65h-2v16h-1.31V254h3.79l.17,0,.92.52q-1.11,4-1.6,5.41a8,8,0,0,1,1.43,4.44,4.22,4.22,0,0,1-.35,1.91,1.48,1.48,0,0,1-1.23.76,8.65,8.65,0,0,1-1.08,0,2.85,2.85,0,0,0-.29-1.29A3.74,3.74,0,0,0,1005.3,265.8Zm13.77-11.13.86.47a15.67,15.67,0,0,1-2.56,4.76,9.1,9.1,0,0,0,3,2.35,3.67,3.67,0,0,0-.9,1.11,9.18,9.18,0,0,1-2.48-1.91v1.11h-6.68v-.92a10.82,10.82,0,0,1-2.29,1.84,3.6,3.6,0,0,0-.82-1,9.1,9.1,0,0,0,2.68-2.22,16.8,16.8,0,0,0-1.82-1.49,6.51,6.51,0,0,1-.58.59,6.71,6.71,0,0,0-1-.78,11,11,0,0,0,3.38-5.36l1.21.28q-.06.2-.51,1.35h2l.24-.06.82.31a14,14,0,0,1-3.09,6.27h6.31a16,16,0,0,1-3.5-7.54l1.16-.23a16.87,16.87,0,0,0,2.14,5.33,13.08,13.08,0,0,0,1.61-3.05h-2.7v-1.11h3.26Zm-9.55,11.8,1.3.35a11.88,11.88,0,0,1-2.65,3.87,7.1,7.1,0,0,0-1.13-.77A9.63,9.63,0,0,0,1009.52,266.47Zm9.37-1h-4.55v4.37a1.92,1.92,0,0,1-.15.86.91.91,0,0,1-.55.45,8.74,8.74,0,0,1-2.64.2,4.53,4.53,0,0,0-.49-1.25l2.09,0c.22,0,.33-.11.33-.3v-4.35h-4.47v-1.23h10.43Zm-10.29-7.44a12.89,12.89,0,0,1,1.79,1.44c.13-.18.34-.52.63-1a13,13,0,0,0-1.8-1.29c-.08.12-.19.28-.34.48Zm3.51-2.19H1010a1.44,1.44,0,0,0-.15.27l-.16.3a14.29,14.29,0,0,1,1.8,1.17A15,15,0,0,0,1012.11,255.88ZM1016,267l1.11-.62a14.94,14.94,0,0,1,2.66,3.59l-1.21.69A15.2,15.2,0,0,0,1016,267Z"/><path d="M1024.14,254.26h13.64c0,2.26,0,4.16,0,5.67s0,3.13.12,4.83a26.57,26.57,0,0,0,.38,3.84c.19.85.41,1.28.69,1.28s.34-1,.39-3.1a4.91,4.91,0,0,0,.92,1.07,10.42,10.42,0,0,1-.41,2.79,1.1,1.1,0,0,1-1.06.79,1.25,1.25,0,0,1-1-.53,4.26,4.26,0,0,1-.69-1.54,19.72,19.72,0,0,1-.42-2.33c-.1-.87-.18-1.9-.22-3.08s-.08-2.39-.1-3.6,0-2.56-.05-4v-.68h-10.8v5q0,7.32-2.6,10.8a4.11,4.11,0,0,0-1.17-.84,10.07,10.07,0,0,0,1.27-2.28,11.73,11.73,0,0,0,.72-2.66c.15-.94.24-1.78.3-2.52s.07-1.58.07-2.5Zm8.83,12.17,1.15-.39a14.93,14.93,0,0,1,1.46,2.24,11.22,11.22,0,0,1,.93,2.15l-1.23.43a8.49,8.49,0,0,0-.61-1.54l-9.06.66-.12-1.37,1.27-.05,1.75-.1,1.65-.1v-2.81h-3.46v-5.43h3.46v-1.78c-1.39.13-2.6.22-3.61.26a4,4,0,0,0-.41-1.1,44.74,44.74,0,0,0,8.26-1.11l1,1.07a31.39,31.39,0,0,1-3.94.73v1.93H1035v5.43h-3.53v2.73l2.58-.15A15.31,15.31,0,0,0,1033,266.43Zm-5.08-2.07h2.27v-3h-2.27Zm5.86-3h-2.26v3h2.26Z"/><path d="M1046.84,267.56l1.37.55a21.32,21.32,0,0,1-5.18,3A6.37,6.37,0,0,0,1042,270,17.77,17.77,0,0,0,1046.84,267.56Zm12.89-6.87v1.21h-17.54v-1.21h8v-1.25h-5.7v-5.55h13v5.55h-5.78v1.25Zm-2.64,6.44h-5.35V270a1.67,1.67,0,0,1-.16.83.93.93,0,0,1-.6.4,12.3,12.3,0,0,1-2.91.2,3.77,3.77,0,0,0-.43-1.21c.68,0,1.44,0,2.29,0a.57.57,0,0,0,.26-.08.3.3,0,0,0,.07-.22v-2.83H1045V263h12.11Zm-11.15-12.23v1.27H1056V254.9Zm0,2.25v1.27H1056v-1.27Zm.45,6.89v2h9.24v-2Zm7.15,4.32,1-.84a25.68,25.68,0,0,1,5.27,2.6l-1,.92A25.1,25.1,0,0,0,1053.54,268.36Z"/><path d="M1068.91,264.47a3,3,0,0,1,0-4.29,3,3,0,1,1,0,4.29Zm.73-3.58a2,2,0,0,0-.59,1.44,1.93,1.93,0,0,0,.59,1.42,2,2,0,0,0,1.42.59,1.93,1.93,0,0,0,1.42-.59,1.89,1.89,0,0,0,.59-1.42,2,2,0,0,0-.59-1.44,1.9,1.9,0,0,0-1.42-.6A1.94,1.94,0,0,0,1069.64,260.89Z"/><path class="cls-1" d="M598.93,171.24l.34,3c-4.37,1.22-8.93,2.4-12.46,3.35l-.61-3.27,1.14-.23V160.94H590v12.5l1.9-.45V157.45h-4.33V145.86h10.68v11.59h-3.57v5.35h4v3h-4v6.53Zm-8.66-16.68h5.09v-5.81h-5.09Zm30.28,23.29H604.63v1.37h-3.15v-11.1c-.65.84-1.26,1.64-1.9,2.36a20.74,20.74,0,0,0-1.49-3.08,32.7,32.7,0,0,0,5.4-9.35l.34.16a8.63,8.63,0,0,0-.68-1.9c1.33,0,2.58,0,3,0s.53-.11.53-.49v-8h-7.18v-2.55h10v10.6c0,1.33-.23,1.94-1.14,2.39a9.3,9.3,0,0,1-3.16.42l1.56.57c-.3.65-.64,1.33-1,2H610c-.3-.84-.64-1.68-1-2.4l3-.8c.53,1,1,2.21,1.44,3.2h6.81v2.69h-6.69v2.13h5.66v2.39h-5.66v2.09h5.66V173h-5.66v2.2h7Zm-21-22.91c1.59-.72,3.8-1.86,6.12-3l.64,1.93c-1.78,1.14-3.65,2.25-5.32,3.23Zm1.71-6.76a36.12,36.12,0,0,1,4.22,2l-1.37,1.86a32.1,32.1,0,0,0-4.18-2.28Zm9.08,15.76h-5.7v2.13h5.7Zm0,4.52h-5.7v2.09h5.7Zm-5.7,6.69h5.7V173h-5.7Zm12.2-21.28c-1.75,1-3.58,2.09-5.25,3.08l-1.4-2.16c1.59-.73,3.76-1.79,6-3Zm.22-6.07h-6.72v-2.59h9.5v11c0,1.33-.27,1.94-1.18,2.36a11.77,11.77,0,0,1-4.29.41,8.38,8.38,0,0,0-.76-2.28c1.33,0,2.54,0,3,0s.49-.11.49-.49Zm-2.31,4.44a31.16,31.16,0,0,0-4.07-2.32l1.37-1.63a30.18,30.18,0,0,1,4,2.09Z"/><path class="cls-1" d="M638.75,158.4s0,1,0,1.44c-.35,11.7-.73,15.84-1.71,17.17a3.12,3.12,0,0,1-2.32,1.37,21.61,21.61,0,0,1-3.61.12,8.93,8.93,0,0,0-.87-3.2c1.21.08,2.2.12,2.77.12a1.18,1.18,0,0,0,1.1-.53c.61-.84.91-4.18,1.26-13.3h-4.26c-.46,7.33-1.6,13.37-4.9,17.48a11.15,11.15,0,0,0-2.59-2.63c3.88-4.78,4.18-12.88,4.3-22.83h-3.42v-3.27h7.18a23.1,23.1,0,0,0-2.81-5l3.15-1.25a23.6,23.6,0,0,1,3.08,5.21l-2.58,1h7.44v3.27h-8.58c0,1.63-.08,3.27-.12,4.79Zm12.39-13.34c-.23.76-.46,1.56-.76,2.32a24.94,24.94,0,0,0,8.93,9.84,14.79,14.79,0,0,0-2.58,2.85,27.55,27.55,0,0,1-7.87-9.23,26.08,26.08,0,0,1-8,9.53,11.59,11.59,0,0,0-2.47-2.85c4.41-2.73,7.79-7.6,9.46-13.41Zm-6.65,24a64.91,64.91,0,0,1,10.53,6.5l-2.36,3a59.31,59.31,0,0,0-10.45-6.88Zm6.61-2.54a45.54,45.54,0,0,0-6.49-5.4l2.31-2.24a49.25,49.25,0,0,1,6.61,5Z"/><path class="cls-1" d="M681.88,162.12a22.09,22.09,0,0,0,15.2,13.64,13.43,13.43,0,0,0-2.39,3.27c-7.3-2.43-12.16-7.22-15.24-14.06-1.9,5.32-6.11,10.52-15.2,14.1a12.52,12.52,0,0,0-2.31-3c9.27-3.57,13-8.85,14.43-13.94H663v-3.61h14a32,32,0,0,0,.19-3.69v-4.14H664.41V147h29.82v3.64h-13.3v4.18c0,1.14,0,2.4-.15,3.65h15v3.61Z"/><path class="cls-1" d="M712.17,146.92c-1,3.16-2.28,6.92-3.38,10a12.52,12.52,0,0,1,3,8c0,2.21-.45,3.8-1.52,4.64a4.29,4.29,0,0,1-2,.72,12.53,12.53,0,0,1-2.4,0,7.41,7.41,0,0,0-.76-2.93,15.28,15.28,0,0,0,1.87,0,2,2,0,0,0,1.06-.34,3.38,3.38,0,0,0,.72-2.51,11.3,11.3,0,0,0-2.92-7.33c.91-2.55,1.82-5.7,2.47-8.21h-3.92v30.06h-3V145.82h8.13l.46-.11Zm4.41,10a19.48,19.48,0,0,0,1.33-2,37.55,37.55,0,0,0-3-2.66,25.75,25.75,0,0,1-2.59,2.93,14.27,14.27,0,0,0-2.2-1.79,20.07,20.07,0,0,0,5.81-9l2.74.61c-.27.76-.57,1.48-.88,2.2h3.46l.5-.11,1.82.64-.19.8,1.86-.46v-1.71h6.57l.61-.15,2,1.14a29.49,29.49,0,0,1-4.83,8.7,16.8,16.8,0,0,0,5.55,5.32,8.48,8.48,0,0,0-2,2.47,18,18,0,0,1-4.41-4V162H717.3v-1.64a21.13,21.13,0,0,1-3.95,3.38,9.86,9.86,0,0,0-1.83-2.16,17,17,0,0,0,4.68-4.14c-1.75.3-3.27.57-4.86.79L711,156c1.59-.15,3.38-.38,5.54-.61Zm2.35,13.76a48.68,48.68,0,0,1-5.2,6.91,25.5,25.5,0,0,0-2.81-1.82,30.51,30.51,0,0,0,4.82-6.16Zm5.86-2.7V179.1h-3.35V168h-7.75v-2.89H732.5V168Zm-8.21-18.47-.46.8c1,.69,2,1.6,3,2.36a28.93,28.93,0,0,0,1.17-3.16Zm11.62,9.65a32.82,32.82,0,0,1-4.9-10.33,28.86,28.86,0,0,1-5,10.33Zm-2.09-10.41a33.69,33.69,0,0,0,1.9,4.64,28.35,28.35,0,0,0,2.51-4.64Zm3.58,20.52c1.74,1.94,4.18,4.67,5.32,6.27l-2.7,1.79a75.09,75.09,0,0,0-5.21-6.5Z"/><path class="cls-1" d="M771.71,150.19s0,1.21,0,1.67c-.54,17.14-1,23-2.51,24.93a4.24,4.24,0,0,1-3.31,1.78,40.11,40.11,0,0,1-5.73,0,8.43,8.43,0,0,0-1.14-3.42c2.43.19,4.63.23,5.58.23a1.7,1.7,0,0,0,1.6-.65c1.21-1.25,1.71-7,2.2-21.31h-9A38.48,38.48,0,0,1,756,159.8a18.26,18.26,0,0,0-2.78-2v17.44H742.88v2.88h-3.23V150.38h4.25a44.88,44.88,0,0,0,1.33-6.16l3.84.65c-.65,1.9-1.37,3.91-2,5.51h6.08v7.18c2.51-3.27,4.52-8.32,5.66-13.34l3.42.8c-.45,1.75-1,3.5-1.55,5.17Zm-28.83,3.27v7.22h7.06v-7.22Zm7.06,18.69v-8.4h-7.06v8.4Zm12.66-3a62.94,62.94,0,0,0-5.55-8.78l2.77-1.56a67.58,67.58,0,0,1,5.74,8.47Z"/><path class="cls-1" d="M795.16,159.69a55.09,55.09,0,0,0,16.07,5.74,20,20,0,0,0-2.39,3,55.63,55.63,0,0,1-8.93-3.11v2.35H785.66V166a53.29,53.29,0,0,1-7.37,2.89,16.53,16.53,0,0,0-2.47-3c6.8-1.78,13.53-4.82,17-8.17l1.6.76v-2.7h6.27v-2.35h-5.4V150.8h5.4v-2.36H794v-2.77h16.08v2.77h-5.93v2.36h5.13v2.62h-5.13v2.35h6.61v2.78H794.55l1.22.57Zm-18.43-3.8,6.39-.31v-2.12h-5.28v-2.59h5.28v-2.43H777v-2.77h15.28v2.77h-5.82v2.43h5.13v2.59h-5.13v1.93l5.85-.34,0,2.7c-5.36.49-10.91.95-15,1.22Zm26,13.14,2.74,1.6c-2.43,2.7-5.55,6-8.4,8.74l-3.19-1.86c1.75-1.71,3.72-3.69,5.36-5.44H781.18v-2.85h20.93Zm-3.49-4a45.92,45.92,0,0,1-6.31-3.42,42.35,42.35,0,0,1-5.36,3.42Z"/><path class="cls-1" d="M825.9,175c-3.91,1.1-8,2.21-11.09,3l-.57-3.15c1.37-.3,3.19-.72,5.17-1.18V163.41h-4.83v-3h4.83V156.8h-3.12v-1.37c-.42.5-.87.91-1.29,1.33a27,27,0,0,0-1.14-3.57,26.9,26.9,0,0,0,6.35-9.12l2.24,1.22c-.19.45-.42,1-.65,1.48a35.59,35.59,0,0,1,5,4.56l-1.26,3a41.19,41.19,0,0,0-5-5,46.39,46.39,0,0,1-2.93,4.52h7v3h-2.73v3.61h3.72v3h-3.72v9.65l3.83-.91Zm-8.47-9.8a54.89,54.89,0,0,1,1.22,6.69l-2,.76a49.21,49.21,0,0,0-1.11-6.88Zm5,6.27c.45-1.83,1-4.68,1.29-6.65l2.2.76c-.57,2.28-1.21,4.94-1.74,6.61ZM833.69,158a50.65,50.65,0,0,1-2.09,13.07c2.89,3.76,6.92,4.63,11.33,4.63,1,0,4.71,0,6,0a11.24,11.24,0,0,0-1,2.89h-5.24c-4.87,0-9.12-.91-12.31-4.63a14.36,14.36,0,0,1-4.3,5.32,11.66,11.66,0,0,0-1.63-2.4,11.79,11.79,0,0,0,4.14-5.58,26.45,26.45,0,0,1-2.43-6.39l2.28-.91a22.32,22.32,0,0,0,1.29,3.88,56.45,56.45,0,0,0,1.14-7.18H826c1.18-2.85,2.66-7,3.88-10.72h-3.31v-3h7.11c-1.14,3.46-2.55,7.68-3.8,11h1.74l.46-.07Zm5.13-8.1h-4.37V147.3h4.37v-3h2.78v3h5.16v5h2V155h-2v5.09H841.6v2.32h5.62v2.77H841.6v2.51H848v2.77H841.6v4.07h-2.78v-4.07h-5.28v-2.77h5.28v-2.51h-4.48v-2.77h4.48v-2.32h-4.37v-2.62h4.37V155h-5.47v-2.66h5.47Zm2.78,0v2.4h2.62v-2.4Zm2.62,5.06H841.6v2.47h2.62Z"/><line class="cls-2" x1="448" y1="161" x2="557" y2="161"/><line class="cls-2" x1="885" y1="161.5" x2="994" y2="161.5"/></svg>