<svg xmlns="http://www.w3.org/2000/svg" viewBox="0 0 1125 2558"><defs><style>.cls-1{fill:#fff;}</style></defs><g id="圖層_3" data-name="圖層 3"><path class="cls-1" d="M178.32,361.44v7.26h20.1v5h-20.1v13.38h23v5.1H149.82v-5.1h22.56V373.74h-19.8v-5h19.8v-7.26H159.84v-3.12a66.06,66.06,0,0,1-8.7,3.84,21.62,21.62,0,0,0-3.72-5.16c11.16-3.42,22-10,27.72-18.84l5.22,2.34c-.54.78-1,1.56-1.56,2.28,5.88,5.88,16,11.58,25,14.28a23.24,23.24,0,0,0-3.84,4.86,62.37,62.37,0,0,1-8.94-4.14v3.66Zm-16.62,12.9a47.1,47.1,0,0,1,5.64,10.38l-4.86,2.1a50.55,50.55,0,0,0-5.34-10.68Zm26.58-18.06a67.19,67.19,0,0,1-12.72-9.72,54.28,54.28,0,0,1-12.06,9.72Zm-5.4,28.8a56.31,56.31,0,0,0,5.82-10.74l5.4,2c-2.28,3.78-4.92,7.86-7,10.56Z"/><path class="cls-1" d="M242.28,381.24c7.08,2.52,16,5.88,20.88,8.1l-2.64,4.44c-5.22-2.58-15.78-6.9-23.4-9.72l1.86-2.82h-2.34c-2.58,5-9.18,10.08-25.68,12.78a26.2,26.2,0,0,0-3.18-4.56c12.54-1.92,18.84-5,22-8.22H208.26v-4.62h24.06a12.12,12.12,0,0,0,.18-2v-3.78H238v3.9a10,10,0,0,1-.12,1.86h11.46a39.78,39.78,0,0,0-4.38-3.48l1.92-1.86h-2.16a14.12,14.12,0,0,0-1.5-4.2c2.4.12,4.74.12,5.4.06s.9-.18.9-.84v-4.8H237.36a22.67,22.67,0,0,1,5.28,4.5l-3.6,2.94a27.28,27.28,0,0,0-6.24-5.58l2.4-1.86h-6.54v-3.78h1.86a12.18,12.18,0,0,0-2-3.12,60.32,60.32,0,0,0,16-3.72,43.5,43.5,0,0,0-5.34-5.1q-3.42,1.35-7.38,2.52a13.19,13.19,0,0,0-2.88-3.18c7.2-1.68,12.72-4.08,15.9-6.66l4.68,1.08c-.9.72-1.74,1.44-2.76,2.16h9.78l.9-.18,2.94,1.56c-5,8.88-16,12.78-28,14.64h17.22v-4.2h5.28v4.2H262v3.78h-7.2v5c0,2.4-.48,3.48-2.16,4.14a12.74,12.74,0,0,1-4.08.6,38.81,38.81,0,0,1,5,4l-1.32,1.38h10.68v4.62Zm-24.9-19.8c0,2.94-.9,8.52-4.92,11.94a30.21,30.21,0,0,0-4.32-2.52c3.66-2.82,4.26-7.26,4.26-9.6v-.18h-3.9V356.7h13v-4H211.14V340.2h4.68v8.1h5.7v-9.42h5v33.78h-5V361.08h-4.14Zm22.74-10c-3.3.36-6.36.6-9.3.9l-.48-3.12c2.76-.12,5.94-.36,9.72-.6ZM243.3,345a35.4,35.4,0,0,1,4.62,4.32,23.35,23.35,0,0,0,5.64-4.32Z"/><path class="cls-1" d="M320.76,347.52V360.9h-5.52v-8.58h-39.3v8.58H270.6V347.52h8.88a41.48,41.48,0,0,0-4.08-6.3l5-2a32.21,32.21,0,0,1,4.74,6.72l-3.54,1.56H292.8V338.7h5.76v8.82H309.3l-3.6-1.38a45.61,45.61,0,0,0,4.68-7l5.94,1.92a81.14,81.14,0,0,1-5.52,6.42Zm-3.42,38.16c0,2.7-.6,4.2-2.64,5s-5.16.84-9.66.84a23.74,23.74,0,0,0-1.86-5.1c3.18.12,6.36.12,7.2.12s1.2-.24,1.2-1v-7.2H299.1v15.36h-5.76V378.42H280.08v12.66h-5.64v-17.7h18.9V369H279.9V355.92h31.56V369H299.1v4.38h18.24Zm-32.1-20.76h20.52V360H285.24Z"/><path class="cls-1" d="M374,363.36a27.35,27.35,0,0,0,9.84,7.08,22.75,22.75,0,0,0-3.42,3.84,25.35,25.35,0,0,1-2.46-1.38c-.06.48-.06,1.26-.12,1.74-.6,10.86-1.26,15.24-2.7,16.86a5.4,5.4,0,0,1-3.72,1.68,45.56,45.56,0,0,1-6.6.06,11.09,11.09,0,0,0-1.38-4.68c2.34.24,4.56.3,5.46.3s1.44-.06,1.8-.6c.84-.9,1.38-3.84,1.86-11.1h-7.38c-1.68,7.5-5.28,13.08-13.8,16.62a14.47,14.47,0,0,0-3.12-4.2c7-2.64,10.14-6.84,11.64-12.42h-7.26v-3.9c-1,.66-2,1.26-3.12,1.86a21.59,21.59,0,0,0-2.4-2.82v15.24c0,2.52-.36,4.08-1.92,5s-3.66,1-7.08,1a18.48,18.48,0,0,0-1.44-5.16c2,.06,4,.06,4.62.06s.9-.24.9-1V371.76h-6.3c-.36,7.62-1.26,16.08-3.72,22.26a16,16,0,0,0-4.32-2.4c3.24-8.4,3.48-20.22,3.48-28.8v-21.3H347.1v29a24.55,24.55,0,0,0,9-7.2h-7.68v-4.62h10.5a36.94,36.94,0,0,0,1.8-4.74h-10.2v-4.56h11.4a87.51,87.51,0,0,0,1.26-10.62l5.16.3A97.89,97.89,0,0,1,367,349.44h5.34c-.9-.72-2-1.5-2.64-1.92a34.61,34.61,0,0,0,5.58-7.56l4.44,1.38a38.09,38.09,0,0,1-5.4,8.1h5.94V354H365.88c-.48,1.68-1,3.24-1.56,4.74h18.3v4.62Zm-31.8,3.54v-7.56h-6.12v3.42c0,1.32,0,2.7-.06,4.14Zm-6.12-20.28v7.8h6.12v-7.8Zm20,2.7a32,32,0,0,0-5.58-7.08L354.3,340a30.15,30.15,0,0,1,5.76,6.78Zm21.36,23.22a32.77,32.77,0,0,1-9-9.18H362a29,29,0,0,1-8.34,9.18h7a60.24,60.24,0,0,0,.54-6h5.16c-.12,2.1-.3,4.14-.54,6Z"/><path class="cls-1" d="M441.72,386.94H418.2v6.84h-5.46v-6.84H389.58v-5h23.16v-3.72H395.88v-20.1h16.86v-3.54h-14.4v-4.26h14.4V347h5.46v3.24h14.34v4.26H418.2v3.54h17.7v20.1H418.2v3.72h23.52Zm-46-33.18h-5.4V341.64h50.46v12.12h-5.58v-7.38H395.76Zm5.4,12.42h11.58V362.1H401.16Zm11.58,8V370H401.16v4.14Zm5.46-12.06v4.08h12.18V362.1ZM430.38,370H418.2v4.14h12.18Z"/><path class="cls-1" d="M527.28,370.2a33.48,33.48,0,0,1-8,13.8,31.28,31.28,0,0,0,11,4.86,20.13,20.13,0,0,0-3.36,4.44,35.33,35.33,0,0,1-11.52-5.82,42.28,42.28,0,0,1-11.34,6.12,15.76,15.76,0,0,0-2.94-4.32v4.5H495.9v-5.52c-7.2.78-14.34,1.62-19.8,2.28l-.48-4.92c1.62-.12,3.48-.3,5.46-.48V365.88h-4.92v-4.5h52.56v4.5h-27.6V389.1a32.81,32.81,0,0,0,10.44-5.22,34.23,34.23,0,0,1-6.36-10.08l1.44-.42h-3.48V369H523l.9-.18ZM488.58,359h-5.34V340.62h38.7V359h-5.58V344.64H488.58Zm-2.52,6.9v3.36h9.84v-3.36Zm0,10.74h9.84v-3.36h-9.84Zm0,8c3.12-.3,6.48-.66,9.84-1.08V380.7h-9.84Zm27.6-37.14V351h-22.8v-3.48Zm-22.8,6.36h22.86v3.48H490.86Zm19.26,19.5a27.94,27.94,0,0,0,5.16,7.32,26.5,26.5,0,0,0,5.28-7.32Z"/><path class="cls-1" d="M588.54,344.7v4.74H536.22V344.7H560c-.54-1.62-1.14-3.42-1.68-4.92l5.64-1.32c.78,1.92,1.74,4.32,2.34,6.24Zm-1.62,43.56c0,2.64-.66,3.66-2.52,4.38s-4.62.72-8.64.66a19,19,0,0,0-1.74-4.14c2.52.12,5.52.12,6.18.06s1.08-.24,1.08-1V372.12H543.6v21.66h-5.46V367.5h48.78Zm-6.12-35.94v12.3h-36v-12.3Zm-26.22,35.4v2.76h-5.16V375.06h25.44v12.66Zm20.34-31.5h-24.6v4.44h24.6Zm-20.34,22.86v4.62h15.36v-4.62Z"/><path class="cls-1" d="M597.48,367.5H619.2v25.86h-5.52v-2.7H602.76v3.12h-5.28Zm5.28,5.34v12.48h10.92V372.84Zm36.72-11.16H605.94V341.22h33.54Zm-5.7-15.12h-22.5v9.78h22.5Zm14.1,20.94v26H642.3v-2.82H630.42v3.12h-5.34V367.5Zm-5.58,17.82V372.84H630.42v12.48Z"/><path class="cls-1" d="M664.32,351.84a15.48,15.48,0,0,1-5.46,8.7,18.9,18.9,0,0,0-3.66-3.6c4.32-3.3,5-7.5,5-10.86v-4.56c6.24-.42,13.5-1.32,17.46-2.64l3.3,3.36a73,73,0,0,1-15.9,2.7v1.2a12.56,12.56,0,0,1-.06,1.44H681.9v4.26h-6.3v6.72h-4.92v-6.72Zm26.82,32.34A170.61,170.61,0,0,1,708.66,390L706,394a135,135,0,0,0-17.94-6.48l2.1-3.36H673.62l4,2.28a104,104,0,0,1-18.84,7.68,38.08,38.08,0,0,0-2.7-4.74,96,96,0,0,0,17.16-5.22H663.6V359.7h37.86v24.48ZM669,366.78h26.82v-3.54H669Zm0,6.84h26.82v-3.48H669Zm0,7h26.82V377H669Zm40.14-33.06v4.26H700.2v6.9l-5-.06v-6.84H688.5a14.73,14.73,0,0,1-4.2,7.8,17.43,17.43,0,0,0-4.08-2.76c3.66-3.48,4.26-7.74,4.26-11V341.4c6.54-.36,14.34-1.2,18.48-2.52l3.6,3.18c-4.56,1.44-11.28,2.34-17.4,2.76V346a15.74,15.74,0,0,1-.06,1.62Z"/><path class="cls-1" d="M737,354.3c-2.1,19.8-8.28,32.7-17.46,39.3a17.51,17.51,0,0,0-3.84-4c4.56-3.06,8.22-7.56,11-13.68a58.37,58.37,0,0,0-6-6.54,28.59,28.59,0,0,1-2.46,4.2,28.3,28.3,0,0,0-3.6-4.26c3.78-5.46,6.12-13.8,7.56-22.56h-5.88v-5.16H739.2v5.16H727.38c-.36,2.28-.84,4.56-1.32,6.78h6.84l.9-.12Zm-12.3,4.26c-.6,2.22-1.32,4.26-2,6.24,2,1.74,4.2,3.84,6.06,5.76a83.3,83.3,0,0,0,2.64-12Zm34.2,10.5c2.94,6.3,7.62,12.36,12.3,15.72a20.62,20.62,0,0,0-4,4.26c-4.08-3.6-8-9.48-10.92-15.72V394h-5.22V374c-3.84,6.48-9,12.18-14.4,15.66a20,20,0,0,0-3.78-4.32c6.06-3.3,12-9.6,15.66-16.32H737.4v-5h13.74V354.6H744.9a34.35,34.35,0,0,1-4,7.86,29.53,29.53,0,0,0-4.44-2.82c3.36-4.26,5.34-10.92,6.42-17.76l5.1.84c-.42,2.34-.9,4.62-1.5,6.78h4.62V339.06h5.22V349.5h11.28v5.1H756.36V364H769.8v5Z"/><path class="cls-1" d="M797.4,380.22c-4.38,5.16-11.94,9.6-19,11.76a21.31,21.31,0,0,0-3.72-4.62c6.84-1.56,14.28-5,18.12-8.94Zm-19.32-20.58a16.22,16.22,0,0,0-2.58-3.6c10.5-2.64,11.94-7.26,12.36-17.34h4.92a42.22,42.22,0,0,1-1.44,10.5,92.08,92.08,0,0,1,8.76,5.88l-3.66,3.42c-1.62-1.38-4.5-3.42-7.08-5.22-1.92,2.76-4.92,4.86-9.6,6.36H824c-2.4-1.86-6.18-4.5-9.6-6.72-2,2.94-5.34,5.1-10.56,6.66a13.71,13.71,0,0,0-2.82-4.14c9.9-2.64,11.4-7.32,11.82-16.74h5a42.33,42.33,0,0,1-1.44,10.08c3.84,2.34,9.06,5.64,11.82,7.68l-3.06,3.18h2.4v10h-5.58V364.5H782.94v5.16H777.6v-10Zm3.18-9.84c-1.08-1.56-3.24-4.26-5-6.24l3.36-2.4c1.68,1.86,3.9,4.38,5,5.82Zm23.94,26.46v17.4h-5.52v-17.4H779.4v-4.92h20.28v-5.46h5.52v5.46h20.94v4.92Zm-3.06-32.76c-1.86,2.34-3.78,4.8-5.28,6.42l-3.42-1.38a50.26,50.26,0,0,0,4.08-6.72Zm4.62,5.88c-1.08-1.5-3.06-4-4.62-5.82l3.3-2.4c1.62,1.74,3.66,4,4.68,5.4Zm5.46,28.68c5.82,2.88,13.56,7.38,17.46,10.5l-4.14,3.72c-3.66-3.12-11.28-7.86-17.22-11Zm16.26-34.68c-2,2.46-4.2,5-5.88,6.66l-3.42-1.5a46.19,46.19,0,0,0,4.44-6.9Z"/><path class="cls-1" d="M313.47,1137.81c-1.44,7.8-5,13.35-9.18,16.32a7.88,7.88,0,0,0-1.77-1.68c3.81-2.49,6.84-7,8.28-12.9h-7.32v-2.22h8.1l.45-.09Zm14.19-1.08a67.82,67.82,0,0,1-6.69,6.75,24.72,24.72,0,0,0,9.39,8.49,10,10,0,0,0-1.65,2c-4.65-2.46-8.52-7.2-11.25-12.6V1154c0,1.47-.36,2.19-1.23,2.58s-2.4.48-4.68.48a8.68,8.68,0,0,0-.84-2.43c1.71.06,3.27.06,3.72.06s.69-.18.69-.69v-24.27h2.34v7.2a34.79,34.79,0,0,0,2.4,4.86,46.65,46.65,0,0,0,5.79-6.54Z"/><path class="cls-1" d="M348,1139.37c-.18.24-.36.51-.57.78,3.39,3.84,7.62,6.18,12.42,8.07a8.08,8.08,0,0,0-1.44,1.89,41.66,41.66,0,0,1-3.84-1.92V1157h-2.25v-.9h-12.3v1h-2.16v-8.61a29.2,29.2,0,0,1-4,2,10.9,10.9,0,0,0-1.41-1.8c5.49-2,10.77-5.76,13.62-10.17Zm-12.06-1.5h-2.16v-5.43h11.64a22.84,22.84,0,0,0-1.2-2.43l2.28-.54a23.27,23.27,0,0,1,1.53,3h10.59v5.43H356.4v-3.39H336Zm7.32-1.29a27.17,27.17,0,0,1-7.74,6.63,13.46,13.46,0,0,0-1.56-1.68,22.93,22.93,0,0,0,7.23-5.64Zm9.06,17.52v-5h-12.3v5Zm.39-7a31,31,0,0,1-6.45-5.37,31.88,31.88,0,0,1-6.09,5.37Zm-2.46-11.16a44.17,44.17,0,0,1,7.83,5.76l-1.56,1.47a45.66,45.66,0,0,0-7.74-6Z"/><path class="cls-1" d="M374,1148.67a23.76,23.76,0,0,1-3.09,6,15.82,15.82,0,0,0-1.56-1.08,16.51,16.51,0,0,0,2.82-5.4Zm3.69-2.1V1157h-2.19v-10.41h-6v-1.92h6v-3.15h-6.12v-1.89h8.28a42.12,42.12,0,0,0,1.62-4.74l2,.42c-.54,1.44-1.11,3.06-1.68,4.32h3.81v1.89h-5.76v3.15h5.43v1.92Zm5.31-11.88H369.9v-1.86h5.88c-.39-.9-.9-1.92-1.32-2.73l2.16-.57a22.84,22.84,0,0,1,1.68,3.3H383Zm-10.05,4.8a21.34,21.34,0,0,0-1.14-4.17l1.77-.42a14.88,14.88,0,0,1,1.23,4.08Zm7.62,8.49a30.48,30.48,0,0,1,2.52,4.71l-1.59.9a31.75,31.75,0,0,0-2.46-4.8Zm16-6.15h-3.3V1157h-2.16v-15.12H387v1.05c0,4.29-.39,10.17-3.12,14.07a7.38,7.38,0,0,0-1.71-1.35c2.52-3.6,2.76-8.73,2.76-12.72v-10.32a47.34,47.34,0,0,0,9.33-2.34l1.8,1.65A48.39,48.39,0,0,1,387,1134v5.7h9.57Z"/><path class="cls-1" d="M407.61,1138v19.11h-2.19V1138H404a29.25,29.25,0,0,1-3.15,5.73,18,18,0,0,0-2-1.35c2.46-3,4.35-7.83,5.46-12.66l2.28.48a55.38,55.38,0,0,1-1.71,5.61H413V1138Zm19.05,0h-4.53v16.17c0,1.44-.3,2.13-1.26,2.46s-2.64.45-5,.45a10.1,10.1,0,0,0-.75-2.34c1.83.06,3.57.06,4.11,0s.63-.15.63-.6V1138H415.5a28.29,28.29,0,0,1-3.15,5.7,10.39,10.39,0,0,0-1.92-1.35c2.43-3,4.26-7.77,5.31-12.63l2.22.45a47.28,47.28,0,0,1-1.65,5.64h10.35Z"/><path class="cls-1" d="M433.5,1149a30.78,30.78,0,0,1-2.79,6.24,13.56,13.56,0,0,0-1.62-.93,23.64,23.64,0,0,0,2.61-5.76Zm3.48-1.86V1157h-1.92v-9.81h-5.67v-1.83h1.38v-14.52h10.32v14.52h1.38v1.83Zm-4.35-14.67v2.16h6.51v-2.16Zm6.51,3.66h-6.51v2.1h6.51Zm-6.51,5.55h6.51v-1.92h-6.51Zm0,3.63h6.51v-2.13h-6.51Zm7.14,3.06a29.91,29.91,0,0,1,2.28,4.65l-1.59.78a34.38,34.38,0,0,0-2.19-4.77Zm7-.06a28.69,28.69,0,0,1-3.36,7.11,12.61,12.61,0,0,0-1.56-.93,22.35,22.35,0,0,0,3-6.69Zm6.42-17.25c-2.58,1.8-6.57,3.24-10,4.32a7.25,7.25,0,0,0-.72-1.56c3.36-1.11,7.14-2.73,9.24-4.38Zm-2.88,15.3v8.88c0,.9-.18,1.29-.81,1.53a8.58,8.58,0,0,1-3,.27,8.09,8.09,0,0,0-.54-1.5h2c.3,0,.36-.09.36-.36v-8.67c-3.69.3-4.41.42-4.95.6a15.82,15.82,0,0,0-.57-1.86,7.25,7.25,0,0,0,2.73-1.62c.72-.54,2.46-2,4.35-3.81-5,.39-5.76.54-6.27.69-.09-.36-.36-1.26-.54-1.71a4.79,4.79,0,0,0,1.74-.84,27.53,27.53,0,0,0,4.89-4.2l1.68.84a33.06,33.06,0,0,1-4.41,3.69l4.71-.27c.72-.75,1.44-1.56,2.1-2.34l1.62,1.08a62.14,62.14,0,0,1-8.73,8.07l6.84-.42c-.54-1-1.14-2.07-1.74-3l1.53-.72a32,32,0,0,1,3.27,6l-1.62.84c-.15-.45-.39-1-.63-1.56Zm2.94,1.17c1.14,2.13,2.58,5,3.27,6.54l-1.77.84c-.66-1.68-2-4.56-3.18-6.69Z"/><path class="cls-1" d="M467.61,1138v19.11h-2.19V1138H464a29.25,29.25,0,0,1-3.15,5.73,18,18,0,0,0-2-1.35c2.46-3,4.35-7.83,5.46-12.66l2.28.48a55.38,55.38,0,0,1-1.71,5.61H473V1138Zm19.05,0h-4.53v16.17c0,1.44-.3,2.13-1.26,2.46s-2.64.45-5,.45a10.1,10.1,0,0,0-.75-2.34c1.83.06,3.57.06,4.11,0s.63-.15.63-.6V1138H475.5a28.29,28.29,0,0,1-3.15,5.7,10.39,10.39,0,0,0-1.92-1.35c2.43-3,4.26-7.77,5.31-12.63l2.22.45a47.28,47.28,0,0,1-1.65,5.64h10.35Z"/><path class="cls-1" d="M502.11,1149.69l.39,1.92c-4.29,1.86-8.94,3.81-12.39,5.16l-1-2.19c2.16-.75,5.25-1.89,8.49-3.15v-12H490v-2.19h7.59v-7h2.28v20.31Zm10,4c1.35,0,1.53-1.44,1.71-7.17a6.22,6.22,0,0,0,2.13,1.08c-.24,6.15-.78,8.28-3.66,8.28h-4c-2.58,0-3.33-.87-3.33-4v-21.63h2.25v7h8.37v2.19h-8.37v12.51c0,1.5.21,1.77,1.35,1.77Z"/><path class="cls-1" d="M534,1136.25v4h9.72v10.5c0,1.29-.3,2-1.26,2.34a18.76,18.76,0,0,1-5.25.39,8.51,8.51,0,0,0-.78-2.22c2,.06,3.84.06,4.35.06s.69-.18.69-.6v-8.28H534V1157h-2.25v-14.55h-7v11.13h-2.22V1140.3h9.24v-4H519.57v-2.19h12.78a37.11,37.11,0,0,0-2-3.93l2.13-.66a25.66,25.66,0,0,1,2.34,4.44l-.39.15h11.91v2.19Z"/><path class="cls-1" d="M326.56,1741.34a18.52,18.52,0,0,0,7.53,5.7,8.15,8.15,0,0,0-1.56,1.83,20,20,0,0,1-4.41-2.91v10h-2.34v-1.08h-11v1.2h-2.28V1746a23.94,23.94,0,0,1-4.53,3.06,5.78,5.78,0,0,0-1.53-1.77,21.81,21.81,0,0,0,7.44-5.94h-6.93v-1.95h8.28a19.56,19.56,0,0,0,1.29-2.31h-7v-1.83h7.77a20.49,20.49,0,0,0,.69-2.19h-9.45v-1.92h9.9a23.78,23.78,0,0,0,.36-2.43l2.31.21c-.09.72-.21,1.47-.36,2.22h11.13v1.92H320.35c-.21.72-.42,1.47-.69,2.19H331v1.83H319a23.55,23.55,0,0,1-1.14,2.31h15.69v1.95Zm-.78,4.23h-11v2.73h11Zm0,7.41V1750h-11V1753Zm-9.15-11.64a19,19,0,0,1-1.83,2.34h11.07a20.52,20.52,0,0,1-1.74-2.34Z"/><path class="cls-1" d="M347.65,1742.9h15.54V1756H361v-1.32H349.72v1.41h-2.07v-11.28l-1.26,1.8c-.63-.81-2.07-2.34-3.15-3.45V1756h-2.16v-11.4a28.57,28.57,0,0,1-4,3.54,10,10,0,0,0-1.14-2,26.28,26.28,0,0,0,8.61-9.84H337v-2h8.64l.42-.09,1.23.81a27.63,27.63,0,0,1-3.45,6.33c1.05.84,3.18,2.79,3.81,3.42Zm-6.06-8.91a38.89,38.89,0,0,0-2.28-4.38l1.74-.72a35.43,35.43,0,0,1,2.4,4.2Zm21.78-3.84v1.92H347.53v-1.92Zm-1.56,4V1741h-12.6v-6.87Zm-12.09,10.68v3.09h4.53v-3.09Zm4.53,8v-3.21h-4.53v3.21Zm5.46-16.92h-8.49v3.3h8.49Zm1.32,8.88h-4.77v3.09H361Zm0,8v-3.21h-4.77v3.21Z"/><path class="cls-1" d="M377.38,1737.11a26.57,26.57,0,0,1-2.52,11.37,40.38,40.38,0,0,1,3.75,3.63l-1.44,1.86a40.81,40.81,0,0,0-3.45-3.54,22.26,22.26,0,0,1-5.58,5.73,8.36,8.36,0,0,0-1.56-1.53,20.29,20.29,0,0,0,5.49-5.67c-1.59-1.41-3.3-2.79-4.83-4,.6-2,1.23-4.62,1.83-7.41l-2.37.12-.24-2.13c.87,0,1.89-.09,3-.12.42-2.28.75-4.65,1-6.69l2.19.12c-.24,2-.6,4.26-1,6.48l3.66-.21V1733h2.1V1735l1.74-.09,0,2Zm-6.15.36c-.48,2.43-1.05,4.83-1.56,6.78,1.14.87,2.34,1.8,3.48,2.79a23.35,23.35,0,0,0,2.1-9.81Zm22.68,6h-6.6v10c0,1.32-.33,2-1.26,2.31a15.28,15.28,0,0,1-4.71.36,8.85,8.85,0,0,0-.81-2.13c1.77.06,3.42.06,3.87,0s.66-.15.66-.57v-10h-6.93v-2.13h6.93v-3.42a26.92,26.92,0,0,0,4.38-5h-10v-2.07H391l.51-.12,1.53,1.11a34.61,34.61,0,0,1-5.7,6.57v2.88h6.6Z"/><path class="cls-1" d="M407.38,1737.11a26.57,26.57,0,0,1-2.52,11.37,40.38,40.38,0,0,1,3.75,3.63l-1.44,1.86a40.81,40.81,0,0,0-3.45-3.54,22.26,22.26,0,0,1-5.58,5.73,8.36,8.36,0,0,0-1.56-1.53,20.29,20.29,0,0,0,5.49-5.67c-1.59-1.41-3.3-2.79-4.83-4,.6-2,1.23-4.62,1.83-7.41l-2.37.12-.24-2.13c.87,0,1.89-.09,3-.12.42-2.28.75-4.65,1-6.69l2.19.12c-.24,2-.6,4.26-1,6.48l3.66-.21V1733h2.1V1735l1.74-.09,0,2Zm-6.15.36c-.48,2.43-1.05,4.83-1.56,6.78,1.14.87,2.34,1.8,3.48,2.79a23.35,23.35,0,0,0,2.1-9.81Zm22.68,6h-6.6v10c0,1.32-.33,2-1.26,2.31a15.28,15.28,0,0,1-4.71.36,8.85,8.85,0,0,0-.81-2.13c1.77.06,3.42.06,3.87,0s.66-.15.66-.57v-10h-6.93v-2.13h6.93v-3.42a26.92,26.92,0,0,0,4.38-5h-10v-2.07H421l.51-.12,1.53,1.11a34.61,34.61,0,0,1-5.7,6.57v2.88h6.6Z"/><path class="cls-1" d="M451.66,1732.1a48.17,48.17,0,0,1,7.92,8.7l-1.89,1.35a21,21,0,0,0-1.83-2.58c-17.13,1-18.87,1-20,1.44a16.84,16.84,0,0,0-.72-2.19,5.8,5.8,0,0,0,2.43-1.77,49.78,49.78,0,0,0,6.9-8.46l2.19,1a65.58,65.58,0,0,1-7.68,8.82l15.3-.75a55.08,55.08,0,0,0-4.35-4.41Zm-14.25,11.43h19.08V1756h-2.34v-1.56H439.66v1.62h-2.25Zm2.25,2.13v6.63h14.49v-6.63Z"/><path class="cls-1" d="M477.85,1733.78c-.15,1.11-.33,2.22-.48,3.18H488.5v16.53c0,1.32-.33,1.92-1.29,2.25a18,18,0,0,1-5.07.36,10.44,10.44,0,0,0-.81-2c1.89.09,3.72.09,4.23.06s.69-.18.69-.66V1739H467.68v17h-2.19V1737h9.75c.15-.93.27-2,.39-3.18H463.87v-2.1h12c.09-1.08.18-2.13.21-3l2.4.27c-.09.87-.21,1.83-.33,2.76h12v2.1Zm.09,16.44v5.28h-2.13v-5.28h-6.45v-1.86h6.45v-3H470v-1.83h3.15a14.35,14.35,0,0,0-1.65-3.54l1.77-.45A14,14,0,0,1,475,1743l-1.62.51h5.37a35.32,35.32,0,0,0,1.71-4.11l2,.45c-.57,1.26-1.17,2.55-1.74,3.66h3.39v1.83h-6.18v3h6.69v1.86Z"/><path class="cls-1" d="M508,1735.25v4h9.72v10.5c0,1.29-.3,2-1.26,2.34a18.76,18.76,0,0,1-5.25.39,8.51,8.51,0,0,0-.78-2.22c2,.06,3.84.06,4.35.06s.69-.18.69-.6v-8.28H508V1756h-2.25v-14.55h-7v11.13h-2.22V1739.3h9.24v-4H493.57v-2.19h12.78a37.11,37.11,0,0,0-2-3.93l2.13-.66a25.66,25.66,0,0,1,2.34,4.44l-.39.15h11.91v2.19Z"/><path class="cls-1" d="M543.82,1742.84a18,18,0,0,1-3.51,6.6,64.94,64.94,0,0,1,9.21,4.68l-1.68,2a61.68,61.68,0,0,0-9.3-4.89c-3,2.55-7.23,4-12.84,5a9.48,9.48,0,0,0-1.41-2.22c5.16-.66,9-1.8,11.82-3.81-2.79-1.17-5.7-2.22-8.31-3.06.87-1.17,1.83-2.64,2.79-4.23h-6.51v-2.13h7.68a45,45,0,0,0,2.49-5.22l2.49.45a45.06,45.06,0,0,1-2.25,4.77h7.29q.32-1.39.54-3l2.61.24c-.15,1-.33,1.89-.54,2.73h5.49v2.13Zm-16.77-4.68h-2.22v-6H536c-.42-1-1-2.13-1.47-3.06l2.37-.6c.63,1.14,1.41,2.61,1.86,3.66h10.32v6h-2.31v-3.93H527.05Zm6.27,4.68c-.69,1.17-1.35,2.25-2,3.21,2.16.69,4.44,1.56,6.69,2.43a15.24,15.24,0,0,0,3.24-5.64Z"/><path class="cls-1" d="M567.85,1733.78c-.15,1.11-.33,2.22-.48,3.18H578.5v16.53c0,1.32-.33,1.92-1.29,2.25a18,18,0,0,1-5.07.36,10.44,10.44,0,0,0-.81-2c1.89.09,3.72.09,4.23.06s.69-.18.69-.66V1739H557.68v17h-2.19V1737h9.75c.15-.93.27-2,.39-3.18H553.87v-2.1h12c.09-1.08.18-2.13.21-3l2.4.27c-.09.87-.21,1.83-.33,2.76h12v2.1Zm.09,16.44v5.28h-2.13v-5.28h-6.45v-1.86h6.45v-3H560v-1.83h3.15a14.35,14.35,0,0,0-1.65-3.54l1.77-.45A14,14,0,0,1,565,1743l-1.62.51h5.37a35.32,35.32,0,0,0,1.71-4.11l2,.45c-.57,1.26-1.17,2.55-1.74,3.66h3.39v1.83h-6.18v3h6.69v1.86Z"/><path class="cls-1" d="M605.08,1752.62a33.69,33.69,0,0,0,5-.33c.09.63.24,1.65.36,2.13a29.15,29.15,0,0,1-5.37.27h-13.2c-4.59,0-6.81-1.44-6.81-5.82v-16.8h-1.23v-2H609v2H587.23v17c0,2.55,1.17,3.6,4.38,3.6Zm-15.48-9.93h7.8v7.68h-7.8Zm1.86,6.06h4v-4.44h-4Zm12.51-8.1H592.84V1734H604Zm-2.19-5h-6.84V1739h6.84Zm5.7,14.76h-8.07v-7.68h8.07Zm-2-6.06h-4.17v4.44h4.17Z"/><path class="cls-1" d="M325.36,2348.34a18.52,18.52,0,0,0,7.53,5.7,8.15,8.15,0,0,0-1.56,1.83,20,20,0,0,1-4.41-2.91v10h-2.34v-1.08h-11v1.2h-2.28V2353a23.94,23.94,0,0,1-4.53,3.06,5.78,5.78,0,0,0-1.53-1.77,21.81,21.81,0,0,0,7.44-5.94h-6.93v-2H314a19.56,19.56,0,0,0,1.29-2.31h-7v-1.83h7.77a20.49,20.49,0,0,0,.69-2.19h-9.45v-1.92h9.9a23.78,23.78,0,0,0,.36-2.43l2.31.21c-.09.72-.21,1.47-.36,2.22h11.13v1.92H319.15c-.21.72-.42,1.47-.69,2.19h11.31v1.83h-12a23.55,23.55,0,0,1-1.14,2.31h15.69v2Zm-.78,4.23h-11v2.73h11Zm0,7.41V2357h-11V2360Zm-9.15-11.64a19,19,0,0,1-1.83,2.34h11.07a20.52,20.52,0,0,1-1.74-2.34Z"/><path class="cls-1" d="M346.45,2349.9H362V2363h-2.16v-1.32H348.52v1.41h-2.07v-11.28l-1.26,1.8c-.63-.81-2.07-2.34-3.15-3.45V2363h-2.16v-11.4a28.57,28.57,0,0,1-4,3.54,10,10,0,0,0-1.14-2,26.28,26.28,0,0,0,8.61-9.84H335.8v-2h8.64l.42-.09,1.23.81a27.63,27.63,0,0,1-3.45,6.33c1.05.84,3.18,2.79,3.81,3.42Zm-6.06-8.91a38.89,38.89,0,0,0-2.28-4.38l1.74-.72a35.43,35.43,0,0,1,2.4,4.2Zm21.78-3.84v1.92H346.33v-1.92Zm-1.56,4V2348H348v-6.87Zm-12.09,10.68v3.09h4.53v-3.09Zm4.53,8v-3.21h-4.53v3.21Zm5.46-16.92H350v3.3h8.49Zm1.32,8.88h-4.77v3.09h4.77Zm0,8v-3.21h-4.77v3.21Z"/><path class="cls-1" d="M392.38,2357.25h-12v3.45c0,1.17-.24,1.68-1.17,2a18,18,0,0,1-4.83.3,8.4,8.4,0,0,0-.78-1.89c1.86.06,3.54.06,4,.06s.63-.12.63-.54v-3.39H365.71v-1.89h12.51v-1.29a27.85,27.85,0,0,0,4.77-2.28H371.26v-1.68h14.1l.45-.12,1.35,1.11a30,30,0,0,1-6.78,3.72v.54h12Zm-23.88-5.46h-2.13v-5.43h2.4l-.6-8.91A56.15,56.15,0,0,0,374,2336l1,1.38a32.89,32.89,0,0,1-4.65,1.17l.12,1.47h4.35v1.53h-4.26l.12,1.62h4.26v1.53h-4.17l.12,1.68h16.44c.06-.54.12-1.08.18-1.68h-4.35v-1.53h4.47l.15-1.62h-4.44V2340h4.53l.09-1.62h-4.77v-1.53h6.93c-.15,3-.42,6.84-.66,9.51h2.34v5.43h-2.19v-3.72H368.5Zm12.84-5.67a16.36,16.36,0,0,0-2.16-1.74,21.23,21.23,0,0,1-3,1.95,7.74,7.74,0,0,0-1.23-1.17,18,18,0,0,0,2.85-1.65,22.05,22.05,0,0,0-2.16-1.17l1.11-1c.75.33,1.53.78,2.31,1.2a10.71,10.71,0,0,0,1.5-1.59l1.56.51a17.06,17.06,0,0,1-1.74,1.92,13.5,13.5,0,0,1,2.16,1.65Zm-.06-5.34a14.85,14.85,0,0,0-2.07-1.53,20.84,20.84,0,0,1-2.79,1.8,9.4,9.4,0,0,0-1.26-1.08,18.08,18.08,0,0,0,2.67-1.53,20,20,0,0,0-2.1-1.08l1.08-1c.72.3,1.47.69,2.25,1.11a12.78,12.78,0,0,0,1.41-1.47l1.56.42a15.41,15.41,0,0,1-1.65,1.83c.81.51,1.53,1,2.07,1.41Z"/><path class="cls-1" d="M422.38,2357.25h-12v3.45c0,1.17-.24,1.68-1.17,2a18,18,0,0,1-4.83.3,8.4,8.4,0,0,0-.78-1.89c1.86.06,3.54.06,4,.06s.63-.12.63-.54v-3.39H395.71v-1.89h12.51v-1.29a27.85,27.85,0,0,0,4.77-2.28H401.26v-1.68h14.1l.45-.12,1.35,1.11a30,30,0,0,1-6.78,3.72v.54h12Zm-23.88-5.46h-2.13v-5.43h2.4l-.6-8.91A56.15,56.15,0,0,0,404,2336l1,1.38a32.89,32.89,0,0,1-4.65,1.17l.12,1.47h4.35v1.53h-4.26l.12,1.62h4.26v1.53h-4.17l.12,1.68h16.44c.06-.54.12-1.08.18-1.68h-4.35v-1.53h4.47l.15-1.62h-4.44V2340h4.53l.09-1.62h-4.77v-1.53h6.93c-.15,3-.42,6.84-.66,9.51h2.34v5.43h-2.19v-3.72H398.5Zm12.84-5.67a16.36,16.36,0,0,0-2.16-1.74,21.23,21.23,0,0,1-3,1.95,7.74,7.74,0,0,0-1.23-1.17,18,18,0,0,0,2.85-1.65,22.05,22.05,0,0,0-2.16-1.17l1.11-1c.75.33,1.53.78,2.31,1.2a10.71,10.71,0,0,0,1.5-1.59l1.56.51a17.06,17.06,0,0,1-1.74,1.92,13.5,13.5,0,0,1,2.16,1.65Zm-.06-5.34a14.85,14.85,0,0,0-2.07-1.53,20.84,20.84,0,0,1-2.79,1.8,9.4,9.4,0,0,0-1.26-1.08,18.08,18.08,0,0,0,2.67-1.53,20,20,0,0,0-2.1-1.08l1.08-1c.72.3,1.47.69,2.25,1.11a12.78,12.78,0,0,0,1.41-1.47l1.56.42a15.41,15.41,0,0,1-1.65,1.83c.81.51,1.53,1,2.07,1.41Z"/><path class="cls-1" d="M450.46,2339.1a48.17,48.17,0,0,1,7.92,8.7l-1.89,1.35a21,21,0,0,0-1.83-2.58c-17.13,1-18.87,1-20,1.44a16.84,16.84,0,0,0-.72-2.19,5.8,5.8,0,0,0,2.43-1.77,49.78,49.78,0,0,0,6.9-8.46l2.19,1a65.58,65.58,0,0,1-7.68,8.82l15.3-.75a55.08,55.08,0,0,0-4.35-4.41Zm-14.25,11.43h19.08V2363H453v-1.56H438.46v1.62h-2.25Zm2.25,2.13v6.63H453v-6.63Z"/><path class="cls-1" d="M476.65,2340.78c-.15,1.11-.33,2.22-.48,3.18H487.3v16.53c0,1.32-.33,1.92-1.29,2.25a18,18,0,0,1-5.07.36,10.44,10.44,0,0,0-.81-2c1.89.09,3.72.09,4.23.06s.69-.18.69-.66V2346H466.48v17h-2.19V2344H474c.15-.93.27-2,.39-3.18H462.67v-2.1h12c.09-1.08.18-2.13.21-3l2.4.27c-.09.87-.21,1.83-.33,2.76h12v2.1Zm.09,16.44v5.28h-2.13v-5.28h-6.45v-1.86h6.45v-3h-5.82v-1.83h3.15a14.35,14.35,0,0,0-1.65-3.54l1.77-.45a14,14,0,0,1,1.74,3.48l-1.62.51h5.37a35.32,35.32,0,0,0,1.71-4.11l2,.45c-.57,1.26-1.17,2.55-1.74,3.66h3.39v1.83h-6.18v3h6.69v1.86Z"/><path class="cls-1" d="M506.77,2342.25v4.05h9.72v10.5c0,1.29-.3,1.95-1.26,2.34a18.76,18.76,0,0,1-5.25.39,8.51,8.51,0,0,0-.78-2.22c2,.06,3.84.06,4.35.06s.69-.18.69-.6v-8.28h-7.47V2363h-2.25v-14.55h-7v11.13h-2.22V2346.3h9.24v-4.05H492.37v-2.19h12.78a37.11,37.11,0,0,0-2-3.93l2.13-.66a25.66,25.66,0,0,1,2.34,4.44l-.39.15h11.91v2.19Z"/><path class="cls-1" d="M542.62,2349.84a18,18,0,0,1-3.51,6.6,64.94,64.94,0,0,1,9.21,4.68l-1.68,2a61.68,61.68,0,0,0-9.3-4.89c-3,2.55-7.23,4-12.84,5a9.48,9.48,0,0,0-1.41-2.22c5.16-.66,9-1.8,11.82-3.81-2.79-1.17-5.7-2.22-8.31-3.06.87-1.17,1.83-2.64,2.79-4.23h-6.51v-2.13h7.68a45,45,0,0,0,2.49-5.22l2.49.45a45.06,45.06,0,0,1-2.25,4.77h7.29q.31-1.39.54-3l2.61.24c-.15,1-.33,1.89-.54,2.73h5.49v2.13Zm-16.77-4.68h-2.22v-6h11.16c-.42-1-1-2.13-1.47-3.06l2.37-.6c.63,1.14,1.41,2.61,1.86,3.66h10.32v6h-2.31v-3.93H525.85Zm6.27,4.68c-.69,1.17-1.35,2.25-2,3.21,2.16.69,4.44,1.56,6.69,2.43a15.24,15.24,0,0,0,3.24-5.64Z"/><path class="cls-1" d="M566.65,2340.78c-.15,1.11-.33,2.22-.48,3.18H577.3v16.53c0,1.32-.33,1.92-1.29,2.25a18,18,0,0,1-5.07.36,10.44,10.44,0,0,0-.81-2c1.89.09,3.72.09,4.23.06s.69-.18.69-.66V2346H556.48v17h-2.19V2344H564c.15-.93.27-2,.39-3.18H552.67v-2.1h12c.09-1.08.18-2.13.21-3l2.4.27c-.09.87-.21,1.83-.33,2.76h12v2.1Zm.09,16.44v5.28h-2.13v-5.28h-6.45v-1.86h6.45v-3h-5.82v-1.83h3.15a14.35,14.35,0,0,0-1.65-3.54l1.77-.45a14,14,0,0,1,1.74,3.48l-1.62.51h5.37a35.32,35.32,0,0,0,1.71-4.11l2,.45c-.57,1.26-1.17,2.55-1.74,3.66h3.39v1.83h-6.18v3h6.69v1.86Z"/><path class="cls-1" d="M603.88,2359.62a33.69,33.69,0,0,0,5-.33c.09.63.24,1.65.36,2.13a29.15,29.15,0,0,1-5.37.27h-13.2c-4.59,0-6.81-1.44-6.81-5.82v-16.8h-1.23v-2h25.14v2H586V2356c0,2.55,1.17,3.6,4.38,3.6Zm-15.48-9.93h7.8v7.68h-7.8Zm1.86,6.06h4v-4.44h-4Zm12.51-8.1H591.64V2341h11.13Zm-2.19-5h-6.84V2346h6.84Zm5.7,14.76h-8.07v-7.68h8.07Zm-2-6.06h-4.17v4.44h4.17Z"/></g></svg>