<svg xmlns="http://www.w3.org/2000/svg" viewBox="0 0 1125 2558"><defs><style>.cls-1{fill:#fff;}</style></defs><g id="圖層_3" data-name="圖層 3"><path class="cls-1" d="M251.32,361.44v7.26h20.1v5h-20.1v13.38h23v5.1H222.82v-5.1h22.56V373.74h-19.8v-5h19.8v-7.26H232.84v-3.12a66.06,66.06,0,0,1-8.7,3.84,21.62,21.62,0,0,0-3.72-5.16c11.16-3.42,22-10,27.72-18.84l5.22,2.34c-.54.78-1,1.56-1.56,2.28,5.88,5.88,16,11.58,25,14.28a23.24,23.24,0,0,0-3.84,4.86,62.37,62.37,0,0,1-8.94-4.14v3.66Zm-16.62,12.9a47.1,47.1,0,0,1,5.64,10.38l-4.86,2.1a50.55,50.55,0,0,0-5.34-10.68Zm26.58-18.06a67.19,67.19,0,0,1-12.72-9.72,54.28,54.28,0,0,1-12.06,9.72Zm-5.4,28.8a56.31,56.31,0,0,0,5.82-10.74l5.4,2c-2.28,3.78-4.92,7.86-7,10.56Z"/><path class="cls-1" d="M315.28,381.24c7.08,2.52,16,5.88,20.88,8.1l-2.64,4.44c-5.22-2.58-15.78-6.9-23.4-9.72l1.86-2.82h-2.34c-2.58,5-9.18,10.08-25.68,12.78a26.2,26.2,0,0,0-3.18-4.56c12.54-1.92,18.84-5,22-8.22H281.26v-4.62h24.06a12.12,12.12,0,0,0,.18-2v-3.78H311v3.9a10,10,0,0,1-.12,1.86h11.46a39.78,39.78,0,0,0-4.38-3.48l1.92-1.86h-2.16a14.12,14.12,0,0,0-1.5-4.2c2.4.12,4.74.12,5.4.06s.9-.18.9-.84v-4.8H310.36a22.67,22.67,0,0,1,5.28,4.5l-3.6,2.94a27.28,27.28,0,0,0-6.24-5.58l2.4-1.86h-6.54v-3.78h1.86a12.18,12.18,0,0,0-2-3.12,60.32,60.32,0,0,0,16-3.72,43.5,43.5,0,0,0-5.34-5.1q-3.42,1.35-7.38,2.52a13.19,13.19,0,0,0-2.88-3.18c7.2-1.68,12.72-4.08,15.9-6.66l4.68,1.08c-.9.72-1.74,1.44-2.76,2.16h9.78l.9-.18,2.94,1.56c-5,8.88-16,12.78-28,14.64h17.22v-4.2h5.28v4.2H335v3.78h-7.2v5c0,2.4-.48,3.48-2.16,4.14a12.74,12.74,0,0,1-4.08.6,38.81,38.81,0,0,1,5,4l-1.32,1.38h10.68v4.62Zm-24.9-19.8c0,2.94-.9,8.52-4.92,11.94a30.21,30.21,0,0,0-4.32-2.52c3.66-2.82,4.26-7.26,4.26-9.6v-.18h-3.9V356.7h13v-4H284.14V340.2h4.68v8.1h5.7v-9.42h5v33.78h-5V361.08h-4.14Zm22.74-10c-3.3.36-6.36.6-9.3.9l-.48-3.12c2.76-.12,5.94-.36,9.72-.6ZM316.3,345a35.4,35.4,0,0,1,4.62,4.32,23.35,23.35,0,0,0,5.64-4.32Z"/><path class="cls-1" d="M393.76,347.52V360.9h-5.52v-8.58h-39.3v8.58H343.6V347.52h8.88a41.48,41.48,0,0,0-4.08-6.3l5-2a32.21,32.21,0,0,1,4.74,6.72l-3.54,1.56H365.8V338.7h5.76v8.82H382.3l-3.6-1.38a45.61,45.61,0,0,0,4.68-7l5.94,1.92a81.14,81.14,0,0,1-5.52,6.42Zm-3.42,38.16c0,2.7-.6,4.2-2.64,5s-5.16.84-9.66.84a23.74,23.74,0,0,0-1.86-5.1c3.18.12,6.36.12,7.2.12s1.2-.24,1.2-1v-7.2H372.1v15.36h-5.76V378.42H353.08v12.66h-5.64v-17.7h18.9V369H352.9V355.92h31.56V369H372.1v4.38h18.24Zm-32.1-20.76h20.52V360H358.24Z"/><path class="cls-1" d="M447,363.36a27.35,27.35,0,0,0,9.84,7.08,22.75,22.75,0,0,0-3.42,3.84,25.35,25.35,0,0,1-2.46-1.38c-.06.48-.06,1.26-.12,1.74-.6,10.86-1.26,15.24-2.7,16.86a5.4,5.4,0,0,1-3.72,1.68,45.56,45.56,0,0,1-6.6.06,11.09,11.09,0,0,0-1.38-4.68c2.34.24,4.56.3,5.46.3s1.44-.06,1.8-.6c.84-.9,1.38-3.84,1.86-11.1h-7.38c-1.68,7.5-5.28,13.08-13.8,16.62a14.47,14.47,0,0,0-3.12-4.2c7-2.64,10.14-6.84,11.64-12.42h-7.26v-3.9c-1,.66-2,1.26-3.12,1.86a21.59,21.59,0,0,0-2.4-2.82v15.24c0,2.52-.36,4.08-1.92,5s-3.66,1-7.08,1a18.48,18.48,0,0,0-1.44-5.16c2,.06,4,.06,4.62.06s.9-.24.9-1V371.76h-6.3c-.36,7.62-1.26,16.08-3.72,22.26a16,16,0,0,0-4.32-2.4c3.24-8.4,3.48-20.22,3.48-28.8v-21.3H420.1v29a24.55,24.55,0,0,0,9-7.2h-7.68v-4.62h10.5a36.94,36.94,0,0,0,1.8-4.74h-10.2v-4.56h11.4a87.51,87.51,0,0,0,1.26-10.62l5.16.3A97.89,97.89,0,0,1,440,349.44h5.34c-.9-.72-2-1.5-2.64-1.92a34.61,34.61,0,0,0,5.58-7.56l4.44,1.38a38.09,38.09,0,0,1-5.4,8.1h5.94V354H438.88c-.48,1.68-1,3.24-1.56,4.74h18.3v4.62Zm-31.8,3.54v-7.56h-6.12v3.42c0,1.32,0,2.7-.06,4.14Zm-6.12-20.28v7.8h6.12v-7.8Zm20,2.7a32,32,0,0,0-5.58-7.08L427.3,340a30.15,30.15,0,0,1,5.76,6.78Zm21.36,23.22a32.77,32.77,0,0,1-9-9.18H435a29,29,0,0,1-8.34,9.18h7a60.24,60.24,0,0,0,.54-6h5.16c-.12,2.1-.3,4.14-.54,6Z"/><path class="cls-1" d="M514.72,386.94H491.2v6.84h-5.46v-6.84H462.58v-5h23.16v-3.72H468.88v-20.1h16.86v-3.54h-14.4v-4.26h14.4V347h5.46v3.24h14.34v4.26H491.2v3.54h17.7v20.1H491.2v3.72h23.52Zm-46-33.18h-5.4V341.64h50.46v12.12h-5.58v-7.38H468.76Zm5.4,12.42h11.58V362.1H474.16Zm11.58,8V370H474.16v4.14Zm5.46-12.06v4.08h12.18V362.1ZM503.38,370H491.2v4.14h12.18Z"/><path class="cls-1" d="M600.28,370.2a33.48,33.48,0,0,1-8,13.8,31.28,31.28,0,0,0,11,4.86,20.13,20.13,0,0,0-3.36,4.44,35.33,35.33,0,0,1-11.52-5.82,42.28,42.28,0,0,1-11.34,6.12,15.76,15.76,0,0,0-2.94-4.32v4.5H568.9v-5.52c-7.2.78-14.34,1.62-19.8,2.28l-.48-4.92c1.62-.12,3.48-.3,5.46-.48V365.88h-4.92v-4.5h52.56v4.5h-27.6V389.1a32.81,32.81,0,0,0,10.44-5.22,34.23,34.23,0,0,1-6.36-10.08l1.44-.42h-3.48V369H596l.9-.18ZM561.58,359h-5.34V340.62h38.7V359h-5.58V344.64H561.58Zm-2.52,6.9v3.36h9.84v-3.36Zm0,10.74h9.84v-3.36h-9.84Zm0,8c3.12-.3,6.48-.66,9.84-1.08V380.7h-9.84Zm27.6-37.14V351h-22.8v-3.48Zm-22.8,6.36h22.86v3.48H563.86Zm19.26,19.5a27.94,27.94,0,0,0,5.16,7.32,26.5,26.5,0,0,0,5.28-7.32Z"/><path class="cls-1" d="M661.54,344.7v4.74H609.22V344.7H633c-.54-1.62-1.14-3.42-1.68-4.92l5.64-1.32c.78,1.92,1.74,4.32,2.34,6.24Zm-1.62,43.56c0,2.64-.66,3.66-2.52,4.38s-4.62.72-8.64.66a19,19,0,0,0-1.74-4.14c2.52.12,5.52.12,6.18.06s1.08-.24,1.08-1V372.12H616.6v21.66h-5.46V367.5h48.78Zm-6.12-35.94v12.3h-36v-12.3Zm-26.22,35.4v2.76h-5.16V375.06h25.44v12.66Zm20.34-31.5h-24.6v4.44h24.6Zm-20.34,22.86v4.62h15.36v-4.62Z"/><path class="cls-1" d="M670.48,367.5H692.2v25.86h-5.52v-2.7H675.76v3.12h-5.28Zm5.28,5.34v12.48h10.92V372.84Zm36.72-11.16H678.94V341.22h33.54Zm-5.7-15.12h-22.5v9.78h22.5Zm14.1,20.94v26H715.3v-2.82H703.42v3.12h-5.34V367.5Zm-5.58,17.82V372.84H703.42v12.48Z"/><path class="cls-1" d="M737.32,351.84a15.48,15.48,0,0,1-5.46,8.7,18.9,18.9,0,0,0-3.66-3.6c4.32-3.3,5-7.5,5-10.86v-4.56c6.24-.42,13.5-1.32,17.46-2.64l3.3,3.36a73,73,0,0,1-15.9,2.7v1.2a12.56,12.56,0,0,1-.06,1.44H754.9v4.26h-6.3v6.72h-4.92v-6.72Zm26.82,32.34A170.61,170.61,0,0,1,781.66,390L779,394a135,135,0,0,0-17.94-6.48l2.1-3.36H746.62l4,2.28a104,104,0,0,1-18.84,7.68,38.08,38.08,0,0,0-2.7-4.74,96,96,0,0,0,17.16-5.22H736.6V359.7h37.86v24.48ZM742,366.78h26.82v-3.54H742Zm0,6.84h26.82v-3.48H742Zm0,7h26.82V377H742Zm40.14-33.06v4.26H773.2v6.9l-5-.06v-6.84H761.5a14.73,14.73,0,0,1-4.2,7.8,17.43,17.43,0,0,0-4.08-2.76c3.66-3.48,4.26-7.74,4.26-11V341.4c6.54-.36,14.34-1.2,18.48-2.52l3.6,3.18c-4.56,1.44-11.28,2.34-17.4,2.76V346a15.74,15.74,0,0,1-.06,1.62Z"/><path class="cls-1" d="M810,354.3c-2.1,19.8-8.28,32.7-17.46,39.3a17.51,17.51,0,0,0-3.84-4c4.56-3.06,8.22-7.56,11-13.68a58.37,58.37,0,0,0-6-6.54,28.59,28.59,0,0,1-2.46,4.2,28.3,28.3,0,0,0-3.6-4.26c3.78-5.46,6.12-13.8,7.56-22.56h-5.88v-5.16H812.2v5.16H800.38c-.36,2.28-.84,4.56-1.32,6.78h6.84l.9-.12Zm-12.3,4.26c-.6,2.22-1.32,4.26-2,6.24,2,1.74,4.2,3.84,6.06,5.76a83.3,83.3,0,0,0,2.64-12Zm34.2,10.5c2.94,6.3,7.62,12.36,12.3,15.72a20.62,20.62,0,0,0-4,4.26c-4.08-3.6-8-9.48-10.92-15.72V394h-5.22V374c-3.84,6.48-9,12.18-14.4,15.66a20,20,0,0,0-3.78-4.32c6.06-3.3,12-9.6,15.66-16.32H810.4v-5h13.74V354.6H817.9a34.35,34.35,0,0,1-4,7.86,29.53,29.53,0,0,0-4.44-2.82c3.36-4.26,5.34-10.92,6.42-17.76l5.1.84c-.42,2.34-.9,4.62-1.5,6.78h4.62V339.06h5.22V349.5h11.28v5.1H829.36V364H842.8v5Z"/><path class="cls-1" d="M870.4,380.22c-4.38,5.16-11.94,9.6-19,11.76a21.31,21.31,0,0,0-3.72-4.62c6.84-1.56,14.28-5,18.12-8.94Zm-19.32-20.58a16.22,16.22,0,0,0-2.58-3.6c10.5-2.64,11.94-7.26,12.36-17.34h4.92a42.22,42.22,0,0,1-1.44,10.5,92.08,92.08,0,0,1,8.76,5.88l-3.66,3.42c-1.62-1.38-4.5-3.42-7.08-5.22-1.92,2.76-4.92,4.86-9.6,6.36H897c-2.4-1.86-6.18-4.5-9.6-6.72-2,2.94-5.34,5.1-10.56,6.66a13.71,13.71,0,0,0-2.82-4.14c9.9-2.64,11.4-7.32,11.82-16.74h5a42.33,42.33,0,0,1-1.44,10.08c3.84,2.34,9.06,5.64,11.82,7.68l-3.06,3.18h2.4v10h-5.58V364.5H855.94v5.16H850.6v-10Zm3.18-9.84c-1.08-1.56-3.24-4.26-5-6.24l3.36-2.4c1.68,1.86,3.9,4.38,5,5.82Zm23.94,26.46v17.4h-5.52v-17.4H852.4v-4.92h20.28v-5.46h5.52v5.46h20.94v4.92Zm-3.06-32.76c-1.86,2.34-3.78,4.8-5.28,6.42l-3.42-1.38a50.26,50.26,0,0,0,4.08-6.72Zm4.62,5.88c-1.08-1.5-3.06-4-4.62-5.82l3.3-2.4c1.62,1.74,3.66,4,4.68,5.4Zm5.46,28.68c5.82,2.88,13.56,7.38,17.46,10.5l-4.14,3.72c-3.66-3.12-11.28-7.86-17.22-11Zm16.26-34.68c-2,2.46-4.2,5-5.88,6.66l-3.42-1.5a46.19,46.19,0,0,0,4.44-6.9Z"/><path class="cls-1" d="M94.9,1030.89H87.4a42.75,42.75,0,0,1,6.06,5.34l-1.95,1A16.73,16.73,0,0,0,90,1035.6c-15.66.72-17.16.78-18.18,1.14a22,22,0,0,0-.69-2.16,3.57,3.57,0,0,0,1.68-.9,25.12,25.12,0,0,0,3.15-2.79H68.23v-1.77H94.9ZM71,1020.15h-2v-6.24H80.47v-1.65H70.66v-1.71H92.44v1.71H82.63v1.65H94.21v6.24h-2.1v-4.68H82.63v8.37H80.47v-8.37H71Zm.18,2.49c2-.6,4.83-1.59,7.65-2.58l.3,1.53c-2.49,1-5,2-7.11,2.85ZM91.39,1027H71.65v-1.71H91.39ZM73,1016.16a49,49,0,0,1,5.91,2.13l-.84,1.44a41.28,41.28,0,0,0-5.91-2.31Zm15.21,17.76c-1-.84-2-1.68-2.91-2.37l1.32-.66H79a37.23,37.23,0,0,1-4,3.57Zm3-16.26a36.52,36.52,0,0,1-6.45,2l-.87-1.26a49,49,0,0,0,6.24-2.22Zm.24,6.69a51.42,51.42,0,0,0-7.47-2.88l.75-1.38a50.7,50.7,0,0,1,7.47,2.7Z"/><path class="cls-1" d="M108.13,1029.51l.24,2.07c-3.48.9-7.11,1.86-9.93,2.52l-.48-2.16c1.5-.33,3.42-.81,5.55-1.29a112,112,0,0,0,1.77-12.12l2,.36c-.51,3.57-1.26,8.16-2,11.34Zm0-12.15h-10v-2.07h10Zm-7.77,12.45a80.41,80.41,0,0,0-1.29-10.71l1.71-.3a76.54,76.54,0,0,1,1.38,10.71Zm2.7-14.76a27.83,27.83,0,0,0-2-4.44l1.86-.6a23.58,23.58,0,0,1,2.1,4.32Zm14.55,7.41c-.3.93-.57,1.89-.87,2.73h7.71v9.87c0,.93-.15,1.41-.78,1.74a6,6,0,0,1-2.73.36,6.5,6.5,0,0,0-.66-1.8,17.38,17.38,0,0,0,1.83,0c.27,0,.33-.09.33-.33v-7.92h-2.73v9.6H118v-9.6h-2.76v9.69h-1.77v-9.69H110.8v10h-2v-11.88h5.79c.18-.84.36-1.83.54-2.73h-7.29v-2h17.28v2Zm6.48-4.17h-15v-7.11h2.07v5.13h4.14v-6.57h2.13v6.57H122v-5.13h2.13Z"/><path class="cls-1" d="M139.36,1028.67a23.76,23.76,0,0,1-3.09,6,15.82,15.82,0,0,0-1.56-1.08,16.51,16.51,0,0,0,2.82-5.4Zm3.69-2.1V1037h-2.19v-10.41h-6v-1.92h6v-3.15h-6.12v-1.89H143a42.12,42.12,0,0,0,1.62-4.74l2,.42c-.54,1.44-1.11,3.06-1.68,4.32h3.81v1.89h-5.76v3.15h5.43v1.92Zm5.31-11.88H135.22v-1.86h5.88c-.39-.9-.9-1.92-1.32-2.73l2.16-.57a22.84,22.84,0,0,1,1.68,3.3h4.74Zm-10.05,4.8a21.34,21.34,0,0,0-1.14-4.17l1.77-.42a14.88,14.88,0,0,1,1.23,4.08Zm7.62,8.49a30.48,30.48,0,0,1,2.52,4.71l-1.59.9a31.75,31.75,0,0,0-2.46-4.8Zm16-6.15h-3.3V1037h-2.16v-15.12h-4.11v1c0,4.29-.39,10.17-3.12,14.07a7.38,7.38,0,0,0-1.71-1.35c2.52-3.6,2.76-8.73,2.76-12.72v-10.32a47.34,47.34,0,0,0,9.33-2.34l1.8,1.65a48.39,48.39,0,0,1-9.06,2.16v5.7h9.57Z"/><path class="cls-1" d="M172.93,1018v19.11h-2.19V1018H169.3a29.25,29.25,0,0,1-3.15,5.73,18,18,0,0,0-2-1.35c2.46-3,4.35-7.83,5.46-12.66l2.28.48a55.38,55.38,0,0,1-1.71,5.61h8.1V1018Zm19,0h-4.53v16.17c0,1.44-.3,2.13-1.26,2.46s-2.64.45-5,.45a10.1,10.1,0,0,0-.75-2.34c1.83.06,3.57.06,4.11,0s.63-.15.63-.6V1018h-4.38a28.29,28.29,0,0,1-3.15,5.7,10.39,10.39,0,0,0-1.92-1.35c2.43-3,4.26-7.77,5.31-12.63l2.22.45a47.28,47.28,0,0,1-1.65,5.64H192Z"/><path class="cls-1" d="M198.82,1029a30.78,30.78,0,0,1-2.79,6.24,13.56,13.56,0,0,0-1.62-.93,23.64,23.64,0,0,0,2.61-5.76Zm3.48-1.86V1037h-1.92v-9.81h-5.67v-1.83h1.38v-14.52h10.32v14.52h1.38v1.83ZM198,1012.47v2.16h6.51v-2.16Zm6.51,3.66H198v2.1h6.51Zm-6.51,5.55h6.51v-1.92H198Zm0,3.63h6.51v-2.13H198Zm7.14,3.06a29.91,29.91,0,0,1,2.28,4.65l-1.59.78a34.38,34.38,0,0,0-2.19-4.77Zm7-.06a28.69,28.69,0,0,1-3.36,7.11,12.61,12.61,0,0,0-1.56-.93,22.35,22.35,0,0,0,3-6.69Zm6.42-17.25c-2.58,1.8-6.57,3.24-10,4.32a7.25,7.25,0,0,0-.72-1.56c3.36-1.11,7.14-2.73,9.24-4.38Zm-2.88,15.3v8.88c0,.9-.18,1.29-.81,1.53a8.58,8.58,0,0,1-3,.27,8.09,8.09,0,0,0-.54-1.5h2c.3,0,.36-.09.36-.36v-8.67c-3.69.3-4.41.42-4.95.6a15.82,15.82,0,0,0-.57-1.86,7.25,7.25,0,0,0,2.73-1.62c.72-.54,2.46-2,4.35-3.81-5,.39-5.76.54-6.27.69-.09-.36-.36-1.26-.54-1.71a4.79,4.79,0,0,0,1.74-.84,27.53,27.53,0,0,0,4.89-4.2l1.68.84a33.06,33.06,0,0,1-4.41,3.69L217,1018c.72-.75,1.44-1.56,2.1-2.34l1.62,1.08a62.14,62.14,0,0,1-8.73,8.07l6.84-.42c-.54-1-1.14-2.07-1.74-3l1.53-.72a32,32,0,0,1,3.27,6l-1.62.84c-.15-.45-.39-1-.63-1.56Zm2.94,1.17c1.14,2.13,2.58,5,3.27,6.54l-1.77.84c-.66-1.68-2-4.56-3.18-6.69Z"/><path class="cls-1" d="M232.93,1018v19.11h-2.19V1018H229.3a29.25,29.25,0,0,1-3.15,5.73,18,18,0,0,0-2-1.35c2.46-3,4.35-7.83,5.46-12.66l2.28.48a55.38,55.38,0,0,1-1.71,5.61h8.1V1018Zm19,0h-4.53v16.17c0,1.44-.3,2.13-1.26,2.46s-2.64.45-5,.45a10.1,10.1,0,0,0-.75-2.34c1.83.06,3.57.06,4.11,0s.63-.15.63-.6V1018h-4.38a28.29,28.29,0,0,1-3.15,5.7,10.39,10.39,0,0,0-1.92-1.35c2.43-3,4.26-7.77,5.31-12.63l2.22.45a47.28,47.28,0,0,1-1.65,5.64H252Z"/><path class="cls-1" d="M267.43,1029.69l.39,1.92c-4.29,1.86-8.94,3.81-12.39,5.16l-1-2.19c2.16-.75,5.25-1.89,8.49-3.15v-12h-7.59v-2.19h7.59v-7h2.28v20.31Zm10,4c1.35,0,1.53-1.44,1.71-7.17a6.22,6.22,0,0,0,2.13,1.08c-.24,6.15-.78,8.28-3.66,8.28h-4c-2.58,0-3.33-.87-3.33-4v-21.63h2.25v7h8.37v2.19H272.5v12.51c0,1.5.21,1.77,1.35,1.77Z"/><path class="cls-1" d="M299.29,1016.25v4H309v10.5c0,1.29-.3,2-1.26,2.34a18.76,18.76,0,0,1-5.25.39,8.51,8.51,0,0,0-.78-2.22c2,.06,3.84.06,4.35.06s.69-.18.69-.6v-8.28h-7.47V1037H297v-14.55h-7v11.13H287.8V1020.3H297v-4H284.89v-2.19h12.78a37.11,37.11,0,0,0-2-3.93l2.13-.66a25.66,25.66,0,0,1,2.34,4.44l-.39.15h11.91v2.19Z"/><path class="cls-1" d="M591.81,1020.54c2.1,6.6,6,12,11.79,14.4a11.47,11.47,0,0,0-1.68,2.1c-5.76-2.73-9.57-8-11.94-14.85-1.44,5.76-4.68,11.52-12,14.85a6.44,6.44,0,0,0-1.68-1.83c7.44-3.24,10.44-9,11.67-14.67H576.93v-2.28h11.43a63.9,63.9,0,0,0,.45-8.52h2.4a69.66,69.66,0,0,1-.48,8.52h12.39v2.28Z"/><path class="cls-1" d="M631.29,1034.91c.51,0,.6-.42.66-4.05a5.25,5.25,0,0,0,1.71.78c-.15,4.2-.63,5.16-2.16,5.16h-1.59c-1.68,0-2.07-.6-2.07-2.61v-6.81H626c-.42,4.35-1.56,7.77-5.34,9.78a6.43,6.43,0,0,0-1.29-1.65h-8.94v1.59H608.7V1027a22,22,0,0,1-1.62,2,10.57,10.57,0,0,0-1.05-1.5,18.58,18.58,0,0,0,4-6.36l1.56.48c-.24.63-.51,1.2-.78,1.83h3.6a10.33,10.33,0,0,0-.9-1.59l1.44-.63a11.21,11.21,0,0,1,1.29,2.22h3.9V1025h-4.23v1.8h3.66v1.53h-3.66v1.86h3.78v1.56h-3.78v2.1h4.17V1035c2.73-1.65,3.6-4.32,3.93-7.65h-2.64v-16.59h11.1v16.59h-2.82v6.81c0,.63.06.72.48.72Zm-20.82-21.63h-4.29v-1.71h4.29v-1.86h1.83v5.37h-1.83Zm-3.09,2.37h5.43V1021h-5.43Zm1.41,4h2.55V1017h-2.55Zm5.37,5.43h-3.75v1.8h3.75Zm0,3.33h-3.75v1.86h3.75Zm-3.75,5.52h3.75v-2.1h-3.75Zm9.51-13h-5.49v-5.28h5.49Zm-3-5.82h-1.83v-5.4h1.83v1.86h4v1.71h-4Zm1.59,1.89h-2.64v2.58h2.64Zm4.83-1.26h7.17v-2.91h-7.17Zm0,4.83h7.17v-3h-7.17Zm0,4.8h7.17v-3h-7.17Z"/><path class="cls-1" d="M660.45,1013.76V1037h-2.31v-1.53h-16v1.68h-2.22v-23.37h7.53a37.81,37.81,0,0,0,1.17-4.11l2.55.33c-.45,1.29-1,2.64-1.5,3.78Zm-18.3,2.13v4.47h16v-4.47Zm0,6.57v4.35h16v-4.35Zm16,10.89v-4.44h-16v4.44Z"/><path class="cls-1" d="M677.82,1022a26,26,0,0,1-2.52,4h15.54V1037h-2.31v-1.41H675v1.47h-2.19v-8.28a25.63,25.63,0,0,1-5.16,4A12.85,12.85,0,0,0,666,1031a23,23,0,0,0,9.33-9.06h-8.67v-2.1h9.72a24.89,24.89,0,0,0,1.32-3.45l2.22.51a28.4,28.4,0,0,1-1.11,2.94h14.4v2.1Zm-5.58-7.53H666.9v-2h5.34v-2.7h2.19v2.7h4.89v2h-4.89v3h-2.19ZM688.53,1028H675v5.64h13.5Zm-3.18-13.56h-4.8v-2h4.8v-2.7h2.19v2.7h5.67v2h-5.67v3h-2.19Z"/><path class="cls-1" d="M707.76,1028.67a23.76,23.76,0,0,1-3.09,6,15.82,15.82,0,0,0-1.56-1.08,16.51,16.51,0,0,0,2.82-5.4Zm3.69-2.1V1037h-2.19v-10.41h-6v-1.92h6v-3.15h-6.12v-1.89h8.28a42.12,42.12,0,0,0,1.62-4.74l2,.42c-.54,1.44-1.11,3.06-1.68,4.32h3.81v1.89h-5.76v3.15h5.43v1.92Zm5.31-11.88H703.62v-1.86h5.88c-.39-.9-.9-1.92-1.32-2.73l2.16-.57a22.84,22.84,0,0,1,1.68,3.3h4.74Zm-10,4.8a21.34,21.34,0,0,0-1.14-4.17l1.77-.42a14.88,14.88,0,0,1,1.23,4.08Zm7.62,8.49a30.48,30.48,0,0,1,2.52,4.71l-1.59.9a31.75,31.75,0,0,0-2.46-4.8Zm16-6.15H727V1037h-2.16v-15.12h-4.11v1c0,4.29-.39,10.17-3.12,14.07a7.38,7.38,0,0,0-1.71-1.35c2.52-3.6,2.76-8.73,2.76-12.72v-10.32a47.34,47.34,0,0,0,9.33-2.34l1.8,1.65a48.39,48.39,0,0,1-9.06,2.16v5.7h9.57Z"/><path class="cls-1" d="M741.33,1018v19.11h-2.19V1018H737.7a29.25,29.25,0,0,1-3.15,5.73,18,18,0,0,0-2-1.35c2.46-3,4.35-7.83,5.46-12.66l2.28.48a55.38,55.38,0,0,1-1.71,5.61h8.1V1018Zm19,0h-4.53v16.17c0,1.44-.3,2.13-1.26,2.46s-2.64.45-5,.45a10.1,10.1,0,0,0-.75-2.34c1.83.06,3.57.06,4.11,0s.63-.15.63-.6V1018h-4.38a28.29,28.29,0,0,1-3.15,5.7,10.39,10.39,0,0,0-1.92-1.35c2.43-3,4.26-7.77,5.31-12.63l2.22.45a47.28,47.28,0,0,1-1.65,5.64h10.35Z"/><path class="cls-1" d="M767.22,1029a30.78,30.78,0,0,1-2.79,6.24,13.56,13.56,0,0,0-1.62-.93,23.64,23.64,0,0,0,2.61-5.76Zm3.48-1.86V1037h-1.92v-9.81h-5.67v-1.83h1.38v-14.52h10.32v14.52h1.38v1.83Zm-4.35-14.67v2.16h6.51v-2.16Zm6.51,3.66h-6.51v2.1h6.51Zm-6.51,5.55h6.51v-1.92h-6.51Zm0,3.63h6.51v-2.13h-6.51Zm7.14,3.06a29.91,29.91,0,0,1,2.28,4.65l-1.59.78A34.38,34.38,0,0,0,772,1029Zm7-.06a28.69,28.69,0,0,1-3.36,7.11,12.61,12.61,0,0,0-1.56-.93,22.35,22.35,0,0,0,3-6.69Zm6.42-17.25c-2.58,1.8-6.57,3.24-10,4.32a7.25,7.25,0,0,0-.72-1.56c3.36-1.11,7.14-2.73,9.24-4.38Zm-2.88,15.3v8.88c0,.9-.18,1.29-.81,1.53a8.58,8.58,0,0,1-3,.27,8.09,8.09,0,0,0-.54-1.5h2c.3,0,.36-.09.36-.36v-8.67c-3.69.3-4.41.42-4.95.6a15.82,15.82,0,0,0-.57-1.86,7.25,7.25,0,0,0,2.73-1.62c.72-.54,2.46-2,4.35-3.81-5,.39-5.76.54-6.27.69-.09-.36-.36-1.26-.54-1.71a4.79,4.79,0,0,0,1.74-.84,27.53,27.53,0,0,0,4.89-4.2l1.68.84a33.06,33.06,0,0,1-4.41,3.69l4.71-.27c.72-.75,1.44-1.56,2.1-2.34l1.62,1.08a62.14,62.14,0,0,1-8.73,8.07l6.84-.42c-.54-1-1.14-2.07-1.74-3l1.53-.72a32,32,0,0,1,3.27,6l-1.62.84c-.15-.45-.39-1-.63-1.56Zm2.94,1.17c1.14,2.13,2.58,5,3.27,6.54l-1.77.84c-.66-1.68-2-4.56-3.18-6.69Z"/><path class="cls-1" d="M801.33,1018v19.11h-2.19V1018H797.7a29.25,29.25,0,0,1-3.15,5.73,18,18,0,0,0-2-1.35c2.46-3,4.35-7.83,5.46-12.66l2.28.48a55.38,55.38,0,0,1-1.71,5.61h8.1V1018Zm19,0h-4.53v16.17c0,1.44-.3,2.13-1.26,2.46s-2.64.45-5,.45a10.1,10.1,0,0,0-.75-2.34c1.83.06,3.57.06,4.11,0s.63-.15.63-.6V1018h-4.38a28.29,28.29,0,0,1-3.15,5.7,10.39,10.39,0,0,0-1.92-1.35c2.43-3,4.26-7.77,5.31-12.63l2.22.45a47.28,47.28,0,0,1-1.65,5.64h10.35Z"/><path class="cls-1" d="M835.83,1029.69l.39,1.92c-4.29,1.86-8.94,3.81-12.39,5.16l-1-2.19c2.16-.75,5.25-1.89,8.49-3.15v-12h-7.59v-2.19h7.59v-7h2.28v20.31Zm10,4c1.35,0,1.53-1.44,1.71-7.17a6.22,6.22,0,0,0,2.13,1.08c-.24,6.15-.78,8.28-3.66,8.28h-4c-2.58,0-3.33-.87-3.33-4v-21.63h2.25v7h8.37v2.19H840.9v12.51c0,1.5.21,1.77,1.35,1.77Z"/><path class="cls-1" d="M867.69,1016.25v4h9.72v10.5c0,1.29-.3,2-1.26,2.34a18.76,18.76,0,0,1-5.25.39,8.51,8.51,0,0,0-.78-2.22c2,.06,3.84.06,4.35.06s.69-.18.69-.6v-8.28h-7.47V1037h-2.25v-14.55h-7v11.13H856.2V1020.3h9.24v-4H853.29v-2.19h12.78a37.11,37.11,0,0,0-2-3.93l2.13-.66a25.66,25.66,0,0,1,2.34,4.44l-.39.15h11.91v2.19Z"/><path class="cls-1" d="M79.92,1758a26,26,0,0,1-2.52,4H92.94V1773H90.63v-1.41H77.13v1.47H74.94v-8.28a25.63,25.63,0,0,1-5.16,4,12.85,12.85,0,0,0-1.65-1.77,23,23,0,0,0,9.33-9.06H68.79v-2.1h9.72a24.89,24.89,0,0,0,1.32-3.45l2.22.51a28.4,28.4,0,0,1-1.11,2.94h14.4v2.1Zm-5.58-7.53H69v-2h5.34v-2.7h2.19v2.7h4.89v2H76.53v3H74.34ZM90.63,1764H77.13v5.64h13.5Zm-3.18-13.56h-4.8v-2h4.8v-2.7h2.19v2.7h5.67v2H89.64v3H87.45Z"/><path class="cls-1" d="M107.76,1747.69c-.87,2.43-1.92,5.34-2.91,7.74a9.54,9.54,0,0,1,2.64,6.48c0,1.62-.36,2.91-1.14,3.51a3.61,3.61,0,0,1-1.53.57,14,14,0,0,1-1.95,0,5,5,0,0,0-.57-2,8.63,8.63,0,0,0,1.74,0,1.46,1.46,0,0,0,.9-.27,2.64,2.64,0,0,0,.63-2.07,8.93,8.93,0,0,0-2.67-6.06c.84-2.16,1.74-4.74,2.34-6.75h-3.87V1773H99.48v-26.1h6.57l.33-.12Zm-1,24.18a17.19,17.19,0,0,0,2.4-4.95l1.71.66a21.32,21.32,0,0,1-2.34,5.1Zm15.33-9.36H108v-1.38h14.1v-1.56h-13v-1.44h15v3h1.47v1.38h-1.47v3.09h-8.28a38,38,0,0,1,3.27,2.91l-1.29,1.14c-.87-.87-2.49-2.37-3.6-3.33l.87-.72H109v-1.44H122.1Zm3.36-5.73H108.51v-1.53h7.17v-1.77H109.5V1752h6.81a29.14,29.14,0,0,0-1.35-2.79l1.65-.57c.51.84,1.14,2,1.44,2.64l-1.68.72h3.42a18.6,18.6,0,0,0,2.19-3.75l1.74.51a34.47,34.47,0,0,1-1.83,3.24h2.43v1.5h-6.57v1.77h7.71Zm-.3-9.57a91.39,91.39,0,0,1-16,1.77,4.88,4.88,0,0,0-.45-1.56c5.28-.24,11.67-.81,15.12-1.68ZM111.39,1752a22.84,22.84,0,0,0-1.41-2.31l1.65-.63a25.68,25.68,0,0,1,1.47,2.22Zm7.53,19.2c.84,0,1-.21,1.08-1.77a6.19,6.19,0,0,0,1.77.66c-.21,2.25-.81,2.82-2.58,2.82h-4.44c-2.49,0-3.12-.48-3.12-2.43v-3.6h2v3.57c0,.63.18.75,1.35.75Zm3.78-4.32a30.44,30.44,0,0,1,3,4.74l-1.74.81a46,46,0,0,0-2.94-4.92Z"/><path class="cls-1" d="M139.86,1764.67a23.76,23.76,0,0,1-3.09,6,15.82,15.82,0,0,0-1.56-1.08,16.51,16.51,0,0,0,2.82-5.4Zm3.69-2.1V1773h-2.19v-10.41h-6v-1.92h6v-3.15h-6.12v-1.89h8.28a42.12,42.12,0,0,0,1.62-4.74l2,.42c-.54,1.44-1.11,3.06-1.68,4.32h3.81v1.89h-5.76v3.15H149v1.92Zm5.31-11.88H135.72v-1.86h5.88c-.39-.9-.9-1.92-1.32-2.73l2.16-.57a22.84,22.84,0,0,1,1.68,3.3h4.74Zm-10.05,4.8a21.34,21.34,0,0,0-1.14-4.17l1.77-.42a14.88,14.88,0,0,1,1.23,4.08Zm7.62,8.49a30.48,30.48,0,0,1,2.52,4.71l-1.59.9a31.75,31.75,0,0,0-2.46-4.8Zm16-6.15h-3.3V1773H157v-15.12h-4.11v1.05c0,4.29-.39,10.17-3.12,14.07a7.38,7.38,0,0,0-1.71-1.35c2.52-3.6,2.76-8.73,2.76-12.72v-10.32a47.34,47.34,0,0,0,9.33-2.34l1.8,1.65a48.39,48.39,0,0,1-9.06,2.16v5.7h9.57Z"/><path class="cls-1" d="M173.43,1754v19.11h-2.19V1754H169.8a29.25,29.25,0,0,1-3.15,5.73,18,18,0,0,0-2-1.35c2.46-3,4.35-7.83,5.46-12.66l2.28.48a55.38,55.38,0,0,1-1.71,5.61h8.1V1754Zm19,0H188v16.17c0,1.44-.3,2.13-1.26,2.46s-2.64.45-5,.45a10.1,10.1,0,0,0-.75-2.34c1.83.06,3.57.06,4.11,0s.63-.15.63-.6V1754h-4.38a28.29,28.29,0,0,1-3.15,5.7,10.39,10.39,0,0,0-1.92-1.35c2.43-3,4.26-7.77,5.31-12.63l2.22.45a47.28,47.28,0,0,1-1.65,5.64h10.35Z"/><path class="cls-1" d="M209.79,1752.25v4h9.72v10.5c0,1.29-.3,2-1.26,2.34a18.76,18.76,0,0,1-5.25.39,8.51,8.51,0,0,0-.78-2.22c2,.06,3.84.06,4.35.06s.69-.18.69-.6v-8.28h-7.47V1773h-2.25v-14.55h-7v11.13H198.3V1756.3h9.24v-4H195.39v-2.19h12.78a37.11,37.11,0,0,0-2-3.93l2.13-.66a25.66,25.66,0,0,1,2.34,4.44l-.39.15h11.91v2.19Z"/><path class="cls-1" d="M241.71,1764.07a29,29,0,0,0,10.83,6.69,7.43,7.43,0,0,0-1.56,1.92,31.79,31.79,0,0,1-11.16-7.77v8.16h-2.25V1765a31.42,31.42,0,0,1-10.92,7.62,9.18,9.18,0,0,0-1.56-1.86,29,29,0,0,0,10.62-6.69h-7.26v-10.92h9.12v-2.52H225.84v-2.1h11.73v-2.82h2.25v2.82h12v2.1h-12v2.52h9.63v10.92Zm-11.1-6.3h7v-2.85h-7Zm0,4.56h7v-2.91h-7Zm9.21-7.41v2.85h7.38v-2.85Zm7.38,4.5h-7.38v2.91h7.38Z"/><path class="cls-1" d="M276.9,1769.62a33.69,33.69,0,0,0,5-.33c.09.63.24,1.65.36,2.13a29.15,29.15,0,0,1-5.37.27h-13.2c-4.59,0-6.81-1.44-6.81-5.82v-16.8h-1.23v-2h25.14v2H259.05v17c0,2.55,1.17,3.6,4.38,3.6Zm-15.48-9.93h7.8v7.68h-7.8Zm1.86,6.06h4v-4.44h-4Zm12.51-8.1H264.66V1751h11.13Zm-2.19-5h-6.84V1756h6.84Zm5.7,14.76h-8.07v-7.68h8.07Zm-2-6.06h-4.17v4.44h4.17Z"/><path class="cls-1" d="M591.21,1756.54c2.1,6.6,6,12,11.79,14.4a11.47,11.47,0,0,0-1.68,2.1c-5.76-2.73-9.57-8-11.94-14.85-1.43,5.76-4.67,11.52-12,14.85a6.58,6.58,0,0,0-1.68-1.83c7.43-3.24,10.43-9,11.67-14.67H576.33v-2.28h11.43a63.9,63.9,0,0,0,.45-8.52h2.41a71.92,71.92,0,0,1-.49,8.52h12.39v2.28Z"/><path class="cls-1" d="M630.69,1770.91c.51,0,.6-.42.66-4.05a5.25,5.25,0,0,0,1.71.78c-.15,4.2-.63,5.16-2.16,5.16h-1.59c-1.68,0-2.07-.6-2.07-2.61v-6.81h-1.86c-.42,4.35-1.56,7.77-5.34,9.78a6.43,6.43,0,0,0-1.29-1.65h-8.93v1.59h-1.71V1763a22,22,0,0,1-1.62,2,10.57,10.57,0,0,0-1-1.5,18.58,18.58,0,0,0,4-6.36l1.56.48c-.24.63-.52,1.2-.78,1.83h3.59a11.18,11.18,0,0,0-.89-1.59l1.44-.63a11.72,11.72,0,0,1,1.29,2.22h3.89V1761h-4.23v1.8H619v1.53h-3.67v1.86h3.79v1.56h-3.79v2.1h4.17V1771c2.73-1.65,3.6-4.32,3.93-7.65h-2.64v-16.59h11.1v16.59h-2.82v6.81c0,.63.06.72.48.72Zm-20.81-21.63h-4.3v-1.71h4.3v-1.86h1.83v5.37h-1.83Zm-3.09,2.37h5.42V1757h-5.42Zm1.41,4h2.55V1753H608.2Zm5.37,5.43h-3.75v1.8h3.75Zm0,3.33h-3.75v1.86h3.75Zm-3.75,5.52h3.75v-2.1h-3.75Zm9.51-13h-5.5v-5.28h5.5Zm-3-5.82h-1.83v-5.4h1.83v1.86h4v1.71h-4Zm1.59,1.89h-2.63v2.58h2.63Zm4.83-1.26h7.17v-2.91h-7.17Zm0,4.83h7.17v-3h-7.17Zm0,4.8h7.17v-3h-7.17Z"/><path class="cls-1" d="M640.75,1751.14a23.83,23.83,0,0,1-3.69,3.69,10.5,10.5,0,0,0-1.38-1.74,21.34,21.34,0,0,0,6.36-7.59l2,.63a25.27,25.27,0,0,1-1.76,3h19.37v2Zm21.8,12.15v2H636.16v-2h4.59v-5.1h-3.6v-2h3.6v-3.33h2v3.33h3.13v-3.33h1.91v3.33h3.48v-3.33h1.92v3.33h3.3v-3.33h2.07v3.33H662v2h-3.39v5.1Zm-25.91,9a27.87,27.87,0,0,0,3-5.73l2.1.54a31.49,31.49,0,0,1-3,6Zm6.11-9h3.13v-5.1h-3.13Zm4,3.9a34.24,34.24,0,0,1,.75,5.34l-2.2.33a31.78,31.78,0,0,0-.63-5.49Zm1-9v5.1h3.48v-5.1Zm5.1,8.76a27,27,0,0,1,2,5.4l-2.19.45a32.28,32.28,0,0,0-1.8-5.49Zm.3-8.76v5.1h3.3v-5.1Zm5.85,8.19a60.39,60.39,0,0,1,3.15,5.73L660,1773a49.62,49.62,0,0,0-3-5.85Z"/><path class="cls-1" d="M673,1761.4c-.33-.84-1-2.34-1.71-3.66V1773h-2V1759.6a33.33,33.33,0,0,1-2.91,7.41,12.9,12.9,0,0,0-1.11-2.16c1.68-2.49,3.27-7.35,4-11.4v-.09h-3.21v-2h3.21v-5.7h2v5.7h2.55v2h-2.55V1755c.73,1,2.55,4,3,4.77Zm19.89,8.34v2H673.12v-2Zm-13.94-16.53a50.25,50.25,0,0,0,1.64-4.83h-6.12v-2h18v2h-9.81c-.3,1-.66,2.1-1,3.06H685s0,.75,0,1c-.16,10.89-.31,14.34-1,15.39a2.18,2.18,0,0,1-1.67,1,18,18,0,0,1-2.86,0A4,4,0,0,0,679,1767c1.08.09,2,.09,2.5.09a.76.76,0,0,0,.8-.39c.45-.75.63-4,.75-13.44Zm-.33,12.51v-1.08H676v1.8h-1.45v-12.21h5.5v11.49Zm0-2.73v-7H676v7Zm12.47,3.81a28.94,28.94,0,0,0-1.8-3.66,13.65,13.65,0,0,1-3.33,4.29,6.18,6.18,0,0,0-1.38-1.47,12.58,12.58,0,0,0,3.57-4.74c-.84-1.35-1.77-2.67-2.64-3.81l1.35-1c.69.87,1.41,1.83,2.1,2.82a28.63,28.63,0,0,0,1.11-4.47h-4.44V1753h5l.39,0,1.11.36a31.1,31.1,0,0,1-2,7.83,29.89,29.89,0,0,1,2.43,4.53Z"/><path class="cls-1" d="M707.17,1764.67a24.1,24.1,0,0,1-3.09,6,17.28,17.28,0,0,0-1.57-1.08,16.14,16.14,0,0,0,2.82-5.4Zm3.68-2.1V1773h-2.18v-10.41h-6v-1.92h6v-3.15h-6.13v-1.89h8.29a44.14,44.14,0,0,0,1.61-4.74l2,.42c-.54,1.44-1.1,3.06-1.68,4.32h3.81v1.89h-5.76v3.15h5.43v1.92Zm5.32-11.88H703v-1.86h5.88c-.4-.9-.91-1.92-1.33-2.73l2.17-.57a21.78,21.78,0,0,1,1.67,3.3h4.75Zm-10,4.8a21.42,21.42,0,0,0-1.15-4.17l1.78-.42A15.19,15.19,0,0,1,708,1755Zm7.61,8.49a30.48,30.48,0,0,1,2.52,4.71l-1.58.9a33.71,33.71,0,0,0-2.46-4.8Zm16-6.15h-3.3V1773h-2.16v-15.12h-4.11v1.05c0,4.29-.39,10.17-3.12,14.07a7.38,7.38,0,0,0-1.71-1.35c2.52-3.6,2.76-8.73,2.76-12.72v-10.32a47.34,47.34,0,0,0,9.33-2.34l1.8,1.65a48.39,48.39,0,0,1-9.06,2.16v5.7h9.57Z"/><path class="cls-1" d="M740.73,1754v19.11h-2.19V1754H737.1a29.77,29.77,0,0,1-3.14,5.73,19,19,0,0,0-2-1.35c2.46-3,4.34-7.83,5.46-12.66l2.27.48a52.94,52.94,0,0,1-1.71,5.61h8.1V1754Zm19,0h-4.53v16.17c0,1.44-.3,2.13-1.26,2.46s-2.64.45-5,.45a10.1,10.1,0,0,0-.75-2.34c1.83.06,3.57.06,4.11,0s.63-.15.63-.6V1754h-4.38a28.29,28.29,0,0,1-3.15,5.7,10.39,10.39,0,0,0-1.92-1.35c2.43-3,4.26-7.77,5.31-12.63l2.22.45a47.28,47.28,0,0,1-1.65,5.64h10.35Z"/><path class="cls-1" d="M766.62,1765a30.24,30.24,0,0,1-2.79,6.24,12.15,12.15,0,0,0-1.62-.93,23.28,23.28,0,0,0,2.62-5.76Zm3.48-1.86V1773h-1.92v-9.81h-5.67v-1.83h1.39v-14.52h10.31v14.52h1.38v1.83Zm-4.35-14.67v2.16h6.51v-2.16Zm6.51,3.66h-6.51v2.1h6.51Zm-6.51,5.55h6.51v-1.92h-6.51Zm0,3.63h6.51v-2.13h-6.51Zm7.14,3.06a29.91,29.91,0,0,1,2.28,4.65l-1.59.78a32.19,32.19,0,0,0-2.19-4.77Zm7-.06a28.69,28.69,0,0,1-3.36,7.11,11.91,11.91,0,0,0-1.56-.93,22.35,22.35,0,0,0,3-6.69Zm6.42-17.25c-2.58,1.8-6.57,3.24-10,4.32a7.25,7.25,0,0,0-.72-1.56c3.36-1.11,7.14-2.73,9.24-4.38Zm-2.88,15.3v8.88c0,.9-.18,1.29-.81,1.53a8.58,8.58,0,0,1-3,.27,8.09,8.09,0,0,0-.54-1.5h2c.3,0,.36-.09.36-.36v-8.67c-3.69.3-4.41.42-5,.6a15.82,15.82,0,0,0-.57-1.86,7.25,7.25,0,0,0,2.73-1.62c.72-.54,2.46-2,4.35-3.81-5,.39-5.76.54-6.27.69a15.68,15.68,0,0,0-.54-1.71,4.79,4.79,0,0,0,1.74-.84,27.53,27.53,0,0,0,4.89-4.2l1.68.84a33.06,33.06,0,0,1-4.41,3.69l4.71-.27c.72-.75,1.44-1.56,2.1-2.34l1.62,1.08a62.14,62.14,0,0,1-8.73,8.07l6.84-.42c-.54-1-1.14-2.07-1.74-3l1.53-.72a32,32,0,0,1,3.27,6l-1.62.84c-.15-.45-.39-1-.63-1.56Zm2.94,1.17c1.14,2.13,2.58,5,3.27,6.54l-1.77.84c-.66-1.68-2-4.56-3.18-6.69Z"/><path class="cls-1" d="M800.73,1754v19.11h-2.19V1754H797.1a29.77,29.77,0,0,1-3.14,5.73,19,19,0,0,0-2-1.35c2.46-3,4.34-7.83,5.46-12.66l2.27.48a52.94,52.94,0,0,1-1.71,5.61h8.1V1754Zm19,0h-4.53v16.17c0,1.44-.3,2.13-1.26,2.46s-2.64.45-5,.45a10.1,10.1,0,0,0-.75-2.34c1.83.06,3.57.06,4.11,0s.63-.15.63-.6V1754h-4.38a28.29,28.29,0,0,1-3.15,5.7,10.39,10.39,0,0,0-1.92-1.35c2.43-3,4.26-7.77,5.31-12.63l2.22.45a47.28,47.28,0,0,1-1.65,5.64h10.35Z"/><path class="cls-1" d="M835.23,1765.69l.39,1.92c-4.29,1.86-8.94,3.81-12.38,5.16l-1-2.19c2.17-.75,5.25-1.89,8.5-3.15v-12h-7.59v-2.19h7.59v-7H833v20.31Zm10,4c1.35,0,1.53-1.44,1.71-7.17a6.22,6.22,0,0,0,2.13,1.08c-.24,6.15-.78,8.28-3.66,8.28h-4c-2.58,0-3.33-.87-3.33-4v-21.63h2.25v7h8.37v2.19H840.3v12.51c0,1.5.21,1.77,1.35,1.77Z"/><path class="cls-1" d="M867.09,1752.25v4h9.72v10.5c0,1.29-.3,2-1.26,2.34a18.76,18.76,0,0,1-5.25.39,8.51,8.51,0,0,0-.78-2.22c2,.06,3.84.06,4.35.06s.69-.18.69-.6v-8.28h-7.47V1773h-2.25v-14.55h-7v11.13h-2.22V1756.3h9.23v-4H852.7v-2.19h12.77a37,37,0,0,0-2-3.93l2.12-.66a25.66,25.66,0,0,1,2.34,4.44l-.39.15h11.91v2.19Z"/><path class="cls-1" d="M73.14,2348.91a30.19,30.19,0,0,0-4.74-3.09l1.2-1.47a26.37,26.37,0,0,1,4.8,2.91ZM75,2353c-1.2,3-2.73,6.57-4,9.27L69,2361a99,99,0,0,0,4.26-9.24Zm-.66-11.7a24.13,24.13,0,0,0-4.53-3.45l1.26-1.41a22.81,22.81,0,0,1,4.59,3.24Zm8.79,13.62a14.07,14.07,0,0,1-7.86,7.62,8.77,8.77,0,0,0-1.11-1.56,13.08,13.08,0,0,0,6.3-4.8h-5v-1.71h6.09l.33-.09Zm-1.59-7.08H75.72v-1.8h8.76v-1.8H77.7v-1.62h6.78v-1.77H76.71v-1.74h4.53a14.1,14.1,0,0,0-2.07-2.76l1.71-.84a13.19,13.19,0,0,1,2.4,3.06l-1.08.54h5.43a24.28,24.28,0,0,0,2.19-3.51l2,.75c-.57,1-1.26,2-1.86,2.76h4.77v1.74h-8.1v1.77h7.41v1.62H86.64v1.8h8.82v1.8h-13a41.85,41.85,0,0,1,7.8,2l-1,1.62a36.26,36.26,0,0,0-8.55-2.28ZM95,2353a53,53,0,0,1-5.49,3.84,13.81,13.81,0,0,0,6.39,3.66,7.9,7.9,0,0,0-1.35,1.77,15,15,0,0,1-8-6.3v4.86c0,1.08-.21,1.65-1,2a12.08,12.08,0,0,1-4,.33,6.67,6.67,0,0,0-.63-1.89c1.41.06,2.7.06,3.06,0s.51-.12.51-.48v-7.86H78.63v-1.77h8v1.14a12.55,12.55,0,0,0,1.83,3.21,37.06,37.06,0,0,0,5-3.78Z"/><path class="cls-1" d="M106.11,2359.08c-.54-1-1.65-2.67-2.58-4a18,18,0,0,1-3.75,8.1,8.67,8.67,0,0,0-1.5-1.47c3.63-4.41,4-10,4-15.48V2336h2v10.65a54.36,54.36,0,0,0,2-6l1.92.63c-.9,2.13-1.89,4.77-2.76,6.39l-1.14-.45a47.73,47.73,0,0,1-.33,5.49c.9,1,3.12,4.08,3.66,4.86Zm-6.81-9.27c-.12-2.13-.57-5.79-1-8.64l1.65-.24c.51,2.82,1,6.39,1.14,8.43Zm26.49,10.41v2H106.38v-2h8.67v-4h-7v-2h7v-2.37h2.19v2.37h7.41v2h-7.41v4Zm-13-21.45h-5.61v-1.95h18.42v1.95h-6.15v2.91h5.22v9.39H108.09v-9.39h4.68Zm9.81,10.53v-1.59h-3c-1.71,0-2.1-.6-2.1-2.49v-1.77h-2.7v.39c0,1.47-.6,3.45-3.54,4.62a7,7,0,0,0-1.14-1.17c2.55-1,3-2.43,3-3.51v-.33h-3v5.85Zm-5.13-10.53h-2.7v2.91h2.7Zm5.13,4.68H119v1.83c0,.75.09.93.54.93h3.06Z"/><path class="cls-1" d="M133.56,2348.82a31.75,31.75,0,0,0-5.28-3.21l1.29-1.62a34.12,34.12,0,0,1,5.28,3Zm2.07,4.23c-1.35,3.15-3.12,6.87-4.65,9.63l-1.95-1.35a88.25,88.25,0,0,0,4.89-9.6Zm-.57-12a30.78,30.78,0,0,0-5.16-3.45l1.26-1.59a27.63,27.63,0,0,1,5.19,3.24Zm18.48,6.9a22.45,22.45,0,0,1-5.07,9.48,19.89,19.89,0,0,0,7.5,3.78,8.18,8.18,0,0,0-1.47,1.92,21,21,0,0,1-7.59-4.2,23.79,23.79,0,0,1-7.35,4.26,8.59,8.59,0,0,0-1.44-1.86,22.46,22.46,0,0,0,7.23-3.9,25,25,0,0,1-4.77-8h-.75c-.15,4.41-.93,9.87-3.87,13.71a7.18,7.18,0,0,0-1.86-1.14c3.27-4.14,3.6-10,3.6-14.37V2340h7.23v-4.32h2.19V2340h6.6l.36-.09,1.59.45a41.91,41.91,0,0,1-2.55,6l-1.89-.6c.48-1,1-2.34,1.53-3.69h-5.64v5.25h4.62l.42-.09Zm-13.68-5.82v5.25h5.07v-5.25Zm2.82,7.26a20.48,20.48,0,0,0,4.2,6.6,18.32,18.32,0,0,0,3.93-6.6Z"/><path class="cls-1" d="M183.48,2339.1a48.17,48.17,0,0,1,7.92,8.7l-1.89,1.35a21,21,0,0,0-1.83-2.58c-17.13,1-18.87,1-20,1.44a16.84,16.84,0,0,0-.72-2.19,5.8,5.8,0,0,0,2.43-1.77,49.78,49.78,0,0,0,6.9-8.46l2.19,1a65.58,65.58,0,0,1-7.68,8.82l15.3-.75a55.08,55.08,0,0,0-4.35-4.41Zm-14.25,11.43h19.08V2363H186v-1.56H171.48v1.62h-2.25Zm2.25,2.13v6.63H186v-6.63Z"/><path class="cls-1" d="M209.67,2340.78c-.15,1.11-.33,2.22-.48,3.18h11.13v16.53c0,1.32-.33,1.92-1.29,2.25a18,18,0,0,1-5.07.36,10.44,10.44,0,0,0-.81-2c1.89.09,3.72.09,4.23.06s.69-.18.69-.66V2346H199.5v17h-2.19V2344h9.75c.15-.93.27-2,.39-3.18H195.69v-2.1h12c.09-1.08.18-2.13.21-3l2.4.27c-.09.87-.21,1.83-.33,2.76h12v2.1Zm.09,16.44v5.28h-2.13v-5.28h-6.45v-1.86h6.45v-3h-5.82v-1.83H205a14.35,14.35,0,0,0-1.65-3.54l1.77-.45a14,14,0,0,1,1.74,3.48l-1.62.51h5.37a35.32,35.32,0,0,0,1.71-4.11l2,.45c-.57,1.26-1.17,2.55-1.74,3.66h3.39v1.83h-6.18v3h6.69v1.86Z"/><path class="cls-1" d="M239.79,2342.25v4.05h9.72v10.5c0,1.29-.3,1.95-1.26,2.34a18.76,18.76,0,0,1-5.25.39,8.51,8.51,0,0,0-.78-2.22c2,.06,3.84.06,4.35.06s.69-.18.69-.6v-8.28h-7.47V2363h-2.25v-14.55h-7v11.13H228.3V2346.3h9.24v-4.05H225.39v-2.19h12.78a37.11,37.11,0,0,0-2-3.93l2.13-.66a25.66,25.66,0,0,1,2.34,4.44l-.39.15h11.91v2.19Z"/><path class="cls-1" d="M265.5,2348.19a21.4,21.4,0,0,1-8.82,13,9.26,9.26,0,0,0-1.74-1.68,18.27,18.27,0,0,0,7.74-9.78h-7.14v-2.13h8.1l.39-.09Zm16.05-2.76a78.88,78.88,0,0,1-7.89,6.51,18.7,18.7,0,0,0,8.91,7.26,9,9,0,0,0-1.53,2c-5-2.19-8.64-6.24-11-11.55v10.62c0,1.35-.33,2-1.29,2.4a17.08,17.08,0,0,1-5,.39,7.68,7.68,0,0,0-.81-2.22c1.83.09,3.6.09,4.08.06s.72-.18.72-.66V2344h-8.25v-2.16H270v2.22a30.32,30.32,0,0,0,2.58,6.24,54.73,54.73,0,0,0,6.93-6.3Zm-8.4-3.75a52.37,52.37,0,0,0-11-4.11l1.08-1.83a53.13,53.13,0,0,1,11,3.87Z"/><path class="cls-1" d="M301.59,2355.54c.69.27,1.38.51,2.13.81a36.47,36.47,0,0,0,5-3.72l1.68,1.29a53.47,53.47,0,0,1-4.77,3.24,60,60,0,0,1,6.21,2.91l-1,1.65a80.28,80.28,0,0,0-9.24-4.38v3.18c0,1.41-.36,1.92-1.29,2.25a19.3,19.3,0,0,1-5.07.33,8.34,8.34,0,0,0-.72-1.92c1.83.09,3.66.06,4.14,0s.72-.18.72-.69v-3.15c-3.18,1.41-6.45,2.82-9,3.9l-.9-1.83c2.46-.87,6.24-2.37,9.9-3.84v-3.36h-7.92v-1.62h7.92v-2.43h-9.09v-1.68h9.09v-2.31h-7.65v-1.62h7.65v-2.28h-9.81v6.84c0,4.65-.39,11.43-2.91,16a7.85,7.85,0,0,0-1.8-1.2c2.34-4.32,2.58-10.41,2.58-14.76v-8.82h11.76a23.86,23.86,0,0,0-1.32-2.28l2.13-.63a28,28,0,0,1,1.77,2.91h10.35v2H301.59v2.28h7.92v3.78h2.94v1.95h-2.94v3.93h-7.92Zm-9.27-3.09a35,35,0,0,1,4.41,3.06l-1.29,1.38a29.66,29.66,0,0,0-4.38-3.21Zm9.27-5.94h5.79v-2.31h-5.79Zm0,4.11h5.79v-2.43h-5.79Z"/><path class="cls-1" d="M336.9,2359.62a33.69,33.69,0,0,0,5-.33c.09.63.24,1.65.36,2.13a29.15,29.15,0,0,1-5.37.27h-13.2c-4.59,0-6.81-1.44-6.81-5.82v-16.8h-1.23v-2h25.14v2H319.05V2356c0,2.55,1.17,3.6,4.38,3.6Zm-15.48-9.93h7.8v7.68h-7.8Zm1.86,6.06h4v-4.44h-4Zm12.51-8.1H324.66V2341h11.13Zm-2.19-5h-6.84V2346h6.84Zm5.7,14.76h-8.07v-7.68h8.07Zm-2-6.06h-4.17v4.44h4.17Z"/><path class="cls-1" d="M595.68,2348.34a18.52,18.52,0,0,0,7.53,5.7,8.15,8.15,0,0,0-1.56,1.83,20,20,0,0,1-4.41-2.91v10H594.9v-1.08h-11v1.2h-2.28V2353a24.35,24.35,0,0,1-4.54,3.06,5.62,5.62,0,0,0-1.52-1.77,21.91,21.91,0,0,0,7.44-5.94h-6.93v-2h8.27a17.07,17.07,0,0,0,1.29-2.31h-7v-1.83h7.77c.26-.72.5-1.47.68-2.19h-9.44v-1.92h9.89a21.36,21.36,0,0,0,.37-2.43l2.3.21c-.09.72-.21,1.47-.35,2.22H601v1.92H589.47c-.21.72-.42,1.47-.68,2.19h11.3v1.83h-12a23.46,23.46,0,0,1-1.13,2.31h15.68v2Zm-.78,4.23h-11v2.73h11Zm0,7.41V2357h-11V2360Zm-9.15-11.64a18.07,18.07,0,0,1-1.83,2.34H595a19.5,19.5,0,0,1-1.75-2.34Z"/><path class="cls-1" d="M632.73,2359.44v2.22H606v-2.22H617.2v-23.28h2.34v9.18h11.15v2.22H619.54v11.88Z"/><path class="cls-1" d="M655.68,2348.34a18.52,18.52,0,0,0,7.53,5.7,8.15,8.15,0,0,0-1.56,1.83,20,20,0,0,1-4.41-2.91v10H654.9v-1.08h-11v1.2h-2.28V2353a24.35,24.35,0,0,1-4.54,3.06,5.62,5.62,0,0,0-1.52-1.77,21.91,21.91,0,0,0,7.44-5.94h-6.93v-2h8.27a17.07,17.07,0,0,0,1.29-2.31h-7v-1.83h7.77c.26-.72.5-1.47.68-2.19h-9.44v-1.92h9.89a21.36,21.36,0,0,0,.37-2.43l2.3.21c-.09.72-.21,1.47-.35,2.22H661v1.92H649.47c-.21.72-.42,1.47-.68,2.19h11.3v1.83h-12a23.46,23.46,0,0,1-1.13,2.31h15.68v2Zm-.78,4.23h-11v2.73h11Zm0,7.41V2357h-11V2360Zm-9.15-11.64a18.07,18.07,0,0,1-1.83,2.34H655a19.5,19.5,0,0,1-1.75-2.34Z"/><path class="cls-1" d="M676.78,2349.9h15.53V2363h-2.16v-1.32H678.84v1.41h-2.06v-11.28l-1.27,1.8c-.63-.81-2.06-2.34-3.14-3.45V2363h-2.16v-11.4a28.57,28.57,0,0,1-4,3.54,10,10,0,0,0-1.14-2,26.28,26.28,0,0,0,8.61-9.84h-7.54v-2h8.64l.42-.09,1.24.81a27.29,27.29,0,0,1-3.46,6.33c1,.84,3.18,2.79,3.82,3.42Zm-6.07-8.91a37.12,37.12,0,0,0-2.27-4.38l1.73-.72a34.26,34.26,0,0,1,2.41,4.2Zm21.78-3.84v1.92H676.66v-1.92Zm-1.56,4V2348h-12.6v-6.87Zm-12.09,10.68v3.09h4.54v-3.09Zm4.54,8v-3.21h-4.54v3.21Zm5.45-16.92h-8.49v3.3h8.49Zm1.32,8.88h-4.77v3.09h4.77Zm0,8v-3.21h-4.77v3.21Z"/><path class="cls-1" d="M720.78,2339.1a48.17,48.17,0,0,1,7.92,8.7l-1.89,1.35a21,21,0,0,0-1.83-2.58c-17.13,1-18.86,1-20,1.44a17,17,0,0,0-.73-2.19,5.81,5.81,0,0,0,2.44-1.77,49.85,49.85,0,0,0,6.89-8.46l2.19,1a64.2,64.2,0,0,1-7.68,8.82l15.3-.75a55.08,55.08,0,0,0-4.35-4.41Zm-14.24,11.43h19.07V2363h-2.34v-1.56H708.79v1.62h-2.25Zm2.25,2.13v6.63h14.48v-6.63Z"/><path class="cls-1" d="M747,2340.78c-.15,1.11-.33,2.22-.48,3.18h11.13v16.53c0,1.32-.33,1.92-1.29,2.25a18,18,0,0,1-5.07.36,10.44,10.44,0,0,0-.81-2c1.89.09,3.72.09,4.23.06s.69-.18.69-.66V2346H736.8v17h-2.18V2344h9.74c.15-.93.27-2,.39-3.18H733v-2.1h12c.09-1.08.18-2.13.21-3l2.4.27c-.09.87-.21,1.83-.33,2.76h12v2.1Zm.09,16.44v5.28h-2.13v-5.28h-6.44v-1.86h6.44v-3h-5.81v-1.83h3.14a14.3,14.3,0,0,0-1.64-3.54l1.76-.45a14,14,0,0,1,1.74,3.48l-1.62.51h5.37a35.32,35.32,0,0,0,1.71-4.11l2,.45c-.57,1.26-1.17,2.55-1.74,3.66h3.39v1.83h-6.18v3h6.69v1.86Z"/><path class="cls-1" d="M777.09,2342.25v4.05h9.72v10.5c0,1.29-.3,1.95-1.26,2.34a18.76,18.76,0,0,1-5.25.39,8.51,8.51,0,0,0-.78-2.22c2,.06,3.84.06,4.35.06s.69-.18.69-.6v-8.28h-7.47V2363h-2.25v-14.55h-7v11.13h-2.22V2346.3h9.23v-4.05H762.7v-2.19h12.77a37,37,0,0,0-2-3.93l2.12-.66a25.66,25.66,0,0,1,2.34,4.44l-.39.15h11.91v2.19Z"/><path class="cls-1" d="M802.8,2348.19a21.39,21.39,0,0,1-8.81,13,9.58,9.58,0,0,0-1.74-1.68,18.26,18.26,0,0,0,7.73-9.78h-7.14v-2.13h8.1l.39-.09Zm16.05-2.76a78.88,78.88,0,0,1-7.89,6.51,18.7,18.7,0,0,0,8.91,7.26,9,9,0,0,0-1.53,2c-5-2.19-8.64-6.24-11-11.55v10.62c0,1.35-.33,2-1.29,2.4a17,17,0,0,1-5,.39,7.4,7.4,0,0,0-.81-2.22c1.83.09,3.6.09,4.08.06s.73-.18.73-.66V2344h-8.25v-2.16h10.58v2.22a30.32,30.32,0,0,0,2.58,6.24,54.73,54.73,0,0,0,6.93-6.3Zm-8.4-3.75a52.37,52.37,0,0,0-11-4.11l1.08-1.83a53.13,53.13,0,0,1,11,3.87Z"/><path class="cls-1" d="M838.89,2355.54c.69.27,1.38.51,2.13.81a36.47,36.47,0,0,0,5-3.72l1.68,1.29a53.47,53.47,0,0,1-4.77,3.24,60,60,0,0,1,6.21,2.91l-1,1.65a80.28,80.28,0,0,0-9.24-4.38v3.18c0,1.41-.36,1.92-1.29,2.25a19.25,19.25,0,0,1-5.06.33,8.39,8.39,0,0,0-.73-1.92c1.83.09,3.66.06,4.14,0s.72-.18.72-.69v-3.15c-3.17,1.41-6.45,2.82-9,3.9l-.89-1.83c2.46-.87,6.23-2.37,9.89-3.84v-3.36h-7.92v-1.62h7.92v-2.43h-9.09v-1.68h9.09v-2.31H829v-1.62h7.65v-2.28h-9.8v6.84c0,4.65-.4,11.43-2.91,16a8.07,8.07,0,0,0-1.8-1.2c2.34-4.32,2.58-10.41,2.58-14.76v-8.82h11.75a23.86,23.86,0,0,0-1.32-2.28l2.13-.63a28,28,0,0,1,1.77,2.91h10.35v2H838.89v2.28h7.92v3.78h2.94v1.95h-2.94v3.93h-7.92Zm-9.27-3.09a35,35,0,0,1,4.41,3.06l-1.28,1.38a30.77,30.77,0,0,0-4.38-3.21Zm9.27-5.94h5.79v-2.31h-5.79Zm0,4.11h5.79v-2.43h-5.79Z"/><path class="cls-1" d="M874.2,2359.62a33.69,33.69,0,0,0,5-.33c.09.63.24,1.65.36,2.13a29.15,29.15,0,0,1-5.37.27H861c-4.59,0-6.8-1.44-6.8-5.82v-16.8h-1.23v-2h25.13v2H856.35V2356c0,2.55,1.18,3.6,4.38,3.6Zm-15.48-9.93h7.8v7.68h-7.8Zm1.86,6.06h4v-4.44h-4Zm12.51-8.1H862V2341h11.13Zm-2.19-5h-6.84V2346h6.84Zm5.7,14.76h-8.07v-7.68h8.07Zm-2-6.06h-4.17v4.44h4.17Z"/></g></svg>