<svg width="192" height="27" viewBox="0 0 192 27" fill="none" xmlns="http://www.w3.org/2000/svg">
<g clip-path="url(#clip0_7_7835)">
<path d="M106.36 10.4541C106.36 9.19514 105.526 8.67334 103.739 8.67334H101.976V12.4503H103.739C105.551 12.4473 106.36 11.6646 106.36 10.4541Z" fill="white"/>
<path d="M104.095 15.5841H101.973V19.8586H104.095C106.144 19.8586 107.195 19.1214 107.195 17.6015C107.195 16.1544 106.172 15.5841 104.095 15.5841Z" fill="white"/>
<path d="M0.856934 0V27H191.143V0H0.856934ZM25.5362 8.95551H20.7197V23.1108H16.4543V8.95551H11.6621V5.44247H25.5362V8.95551ZM50.2277 23.1138H46.0079V15.8451H40.1684V23.1138H35.903V5.44247H40.1684V12.1652H46.0079V5.44247H50.2277V23.1138ZM73.4913 23.1138H61.9767V5.44247H73.2264V8.95854H66.2421V12.2349H72.1791V15.7965H66.2421V19.5492H73.4882V23.1138H73.4913ZM104.406 23.1138H97.7078V5.44247H103.907C107.578 5.44247 110.51 6.41629 110.51 9.81404C110.51 11.3825 109.627 13.0904 108.199 13.6365V13.7306C109.987 14.2069 111.344 15.5356 111.344 17.8867C111.341 21.4969 108.266 23.1138 104.406 23.1138ZM133.415 23.1138H121.9V5.44247H133.15V8.95854H126.165V12.2349H132.102V15.7965H126.165V19.5492H133.411V23.1138H133.415ZM150.05 23.4445C147.739 23.4445 145.258 22.589 143.422 20.9022L145.83 17.9808C147.094 19.0487 148.738 19.7858 150.144 19.7858C151.719 19.7858 152.455 19.1912 152.455 18.2417C152.455 17.2193 151.478 16.8887 149.953 16.2455L147.687 15.296C145.827 14.5588 144.089 13.0146 144.089 10.4511C144.089 7.48112 146.759 5.10573 150.525 5.10573C152.574 5.10573 154.745 5.88843 156.294 7.43258L154.172 10.0931C153.003 9.21337 151.907 8.74011 150.525 8.74011C149.213 8.74011 148.403 9.26191 148.403 10.2115C148.403 11.1853 149.523 11.5645 151.097 12.1834L153.314 13.0631C155.506 13.9429 156.818 15.4143 156.818 17.908C156.821 20.8567 154.343 23.4445 150.05 23.4445ZM179.369 8.95551H174.556V23.1108H170.287V8.95551H165.495V5.44247H179.369V8.95551Z" fill="white"/>
</g>
<defs>
<clipPath id="clip0_7_7835">
<rect width="190.286" height="27" fill="white" transform="translate(0.856934)"/>
</clipPath>
</defs>
</svg>
