<svg width="63" height="51" viewBox="0 0 63 51" fill="none" xmlns="http://www.w3.org/2000/svg">
<path d="M15.178 47.3655C15.178 47.3655 22.1127 42.5931 27.2549 43.2296C27.2549 43.2296 49.627 47.145 52.5396 29.6698C52.7956 28.1442 53.2792 25.0681 55.2743 23.8234C56.2914 23.1904 57.881 21.6719 58.2722 19.8973C58.9728 19.4457 59.7018 18.9443 59.7018 18.9443C59.8405 18.8163 59.7871 18.5459 59.7871 18.5459C60.2601 18.1619 62.3689 17.4542 62.3689 17.4542C61.0425 16.5901 58.7203 16.4585 57.3725 16.4621C56.3518 15.0716 53.9087 13.1299 49.2714 16.5545C47.8205 17.6249 46.8034 18.8944 45.2316 19.9577C44.154 14.7443 42.6462 5.05017 45.2316 0.807617C45.2316 0.807617 41.6789 2.05937 39.0971 8.15115C39.0971 8.15115 38.3254 6.63269 38.681 5.6974C38.681 5.6974 35.9747 8.11915 35.5444 12.5964C35.5444 12.5964 34.7301 9.8902 35.0075 9.28209C35.0075 9.28209 32.4897 16.014 33.112 22.1769C26.3837 22.2871 15.868 22.2515 11.7926 21.1171C11.7926 21.1171 11.1275 25.1996 18.9974 26.5474C18.9974 26.5474 17.2442 26.8604 15.8893 26.3981C15.8893 26.3981 18.5529 29.6769 22.2834 29.9756C22.2834 29.9756 20.4377 30.4273 19.7976 30.2317C19.7976 30.2317 22.4469 32.6001 24.6731 32.7068C24.6731 32.7068 22.8559 36.704 19.3744 38.13L1.49018 43.8306C1.49018 43.8306 4.44184 46.0746 9.97885 45.0788C9.97885 45.0788 6.13104 48.5853 0.828735 50.4025C0.828735 50.4025 6.58979 52.3086 15.1816 47.3655H15.178Z" fill="white"/>
</svg>
