<svg width="375" height="862" viewBox="0 0 375 862" fill="none" xmlns="http://www.w3.org/2000/svg">
<rect width="375" height="819" fill="#397968" fill-opacity="0.5"/>
<line x1="42.5" y1="347" x2="332.5" y2="347" stroke="#FFF"/>
<path fill="#FFF" d="M149,328.5l0.1,0.3h10.5c0.2,0,0.3-0.1,0.3-0.2c-0.5-0.4-1.3-1.1-1.3-1.1l-0.7,0.9H149z M152.4,331.6l0.1,0.3
	h6.2c0.2,0,0.3-0.1,0.3-0.2c-0.5-0.4-1.3-1-1.3-1l-0.7,0.9H152.4z M150.9,336.2l0.1,0.3h8.7c0.2,0,0.3-0.1,0.3-0.2
	c-0.5-0.5-1.4-1.1-1.4-1.1l-0.7,0.9H150.9z M152.9,325.9c-0.3,3.4-1.3,7.7-4,10.5l0.1,0.1c3.5-2.5,4.6-6.7,5.2-10
	c0.4,0,0.5-0.1,0.5-0.3L152.9,325.9z M154.7,331.6v4.7h1.2v-4.7H154.7z M162.1,328.6l0.1,0.3H173c0.2,0,0.3-0.1,0.3-0.2
	c-0.5-0.4-1.4-1.1-1.4-1.1l-0.7,0.9H162.1z M166.4,325.9c-0.5,2.8-1.7,6.2-4.3,8.3l0.1,0.1c3.2-1.8,4.7-5,5.4-7.8
	c0.3,0,0.4-0.1,0.5-0.3L166.4,325.9z M164.9,331.7v5.3h0.2c0.6,0,1-0.2,1-0.3v-4.6h4.6v4.8h0.2c0.6,0,1-0.2,1-0.3v-4.5
	c0.3,0,0.4-0.1,0.5-0.2l-1.1-0.9l-0.6,0.7h-4.4l-1.3-0.5V331.7z M165.6,335.6v0.3h5.7v-0.3H165.6z M180.5,332.4l0,0.2
	c1.2,0.1,2.3,0.5,2.8,0.7C184.3,333.4,184.2,331.6,180.5,332.4z M180.6,334.2l0.5,1.2c0.1,0,0.2-0.1,0.3-0.3c1.3-0.6,2.2-1,2.9-1.3
	l0-0.2C182.7,333.9,181.3,334.2,180.6,334.2z M184.4,331.2h-3.9v0.3h3.9V331.2z M179.7,331.1v1.5c0,1.4-0.1,3-1.2,4.4l0.1,0.1
	c1.9-1.2,2.1-3.2,2.1-4.5v-1.4h0.2l-1.3-0.5V331.1z M181.9,327.5v2.4h0.9V328h0.2L181.9,327.5z M184.3,328h-2v0.3h2V328z
	 M185.1,329.8h0.1c-0.1,0.4-0.2,1.1-0.3,1.4l0.2,0.1c0.3-0.2,0.8-0.7,1.1-1c0.2,0,0.4,0,0.5-0.1l-1-1L185.1,329.8z M179.3,329.2
	l-0.2,0c-0.1,0.8-0.4,1.3-0.8,1.5C177.4,331.9,180.2,332.4,179.3,329.2z M179.9,326.1v3.8h1v-3h3v3h1V327c0.3,0,0.4-0.1,0.5-0.2
	l-1.2-0.9l-0.5,0.6H181L179.9,326.1z M183.8,331.2h0.1v4.3c0,0.2-0.1,0.2-0.3,0.2c-0.2,0-1.4-0.1-1.4-0.1v0.2c0.5,0.1,0.8,0.2,1,0.4
	c0.2,0.2,0.2,0.4,0.2,0.8c1.3-0.1,1.5-0.6,1.5-1.4v-3.9c0.2,0,0.4-0.1,0.5-0.2l-1.2-0.9L183.8,331.2z M185.5,329.8h-6.3v0.3h6.3
	V329.8z M175.9,333.5c-0.1,0-0.5,0-0.5,0v0.3c0.3,0,0.4,0.1,0.6,0.2c0.3,0.2,0.3,1.2,0.1,2.5c0.1,0.4,0.3,0.6,0.5,0.6
	c0.5,0,0.8-0.4,0.8-0.9c0-1-0.4-1.5-0.4-2.1c0-0.3,0.1-0.7,0.2-1.1c0.2-0.6,1-3.4,1.5-4.8l-0.2-0.1c-2.1,4.8-2.1,4.8-2.3,5.2
	C176.1,333.5,176.1,333.5,175.9,333.5z M175.4,328.8l-0.1,0.1c0.4,0.3,0.9,0.9,1,1.5C177.3,331.1,178.2,329.1,175.4,328.8z
	 M176.1,325.9L176,326c0.5,0.4,1,1.1,1.2,1.7C178.2,328.4,179.1,326.3,176.1,325.9z M188.5,328.2l0.1,0.3h6c0.2,0,0.3-0.1,0.3-0.2
	c-0.4-0.4-1.1-0.9-1.1-0.9l-0.6,0.8H188.5z M188.7,333.8l0.1,0.3h5.5c0.2,0,0.3-0.1,0.3-0.2c-0.4-0.4-1.1-0.9-1.1-0.9l-0.6,0.7
	H188.7z M188.5,335.5l0.5,1.4c0.1,0,0.3-0.1,0.3-0.3c2.4-0.6,4-1.2,5.2-1.6l0-0.2C192,335.2,189.6,335.4,188.5,335.5z M189.5,330.9
	v0.3h4.2v-0.3H189.5z M189.5,332.3v0.3h4.2v-0.3H189.5z M193.5,325.8c-1.1,0.4-3.3,1-5,1.3l0,0.2c1.8,0,3.9-0.2,5.3-0.4
	c0.3,0.1,0.6,0.1,0.7,0L193.5,325.8z M191.1,326.9v8.8h0.2c0.5,0,0.8-0.2,0.8-0.3v-8.7L191.1,326.9z M189,329.4v3.8h0.2
	c0.5,0,0.8-0.2,0.8-0.3v-3.2h3.3v3.2h0.2c0.5,0,0.9-0.2,0.9-0.3v-2.9c0.3,0,0.4-0.1,0.4-0.2l-1-0.8l-0.5,0.6h-3.1L189,329V329.4z
	 M194.5,328.8l0.1,0.3h4v-0.3H194.5z M195.8,326c0,5.1,0.3,8.5-2.5,10.8l0.1,0.2c3.7-2.1,3.4-5.6,3.5-10.5c0.3,0,0.4-0.2,0.4-0.3L195.8,326z M198.2,328.8c-0.1,4.2-0.2,6.3-0.6,6.6c-0.1,0.1-0.2,0.1-0.4,0.1c-0.2,0-0.8,0-1.2-0.1v0.2c0.4,0.1,0.7,0.2,0.9,0.4c0.1,0.2,0.2,0.4,0.2,0.8c0.5,0,1-0.2,1.4-0.6c0.6-0.6,0.7-2.4,0.8-7c0.3,0,0.4-0.1,0.5-0.2l-1.1-0.9l-0.6,0.6H198.2z M203.8,327h-2.1l0.1,0.3h2V327z M207.3,326.4l-0.5,0.6h-1.4l0.1,0.3h2.3c0.2,0,0.3-0.1,0.3-0.2C207.8,326.8,207.3,326.4,207.3,326.4zM206.6,325.9l-1.4-0.1v2.3h0.2c0.4,0,0.8-0.2,0.8-0.3v-1.7C206.5,326.2,206.6,326.1,206.6,325.9z M204.7,326l-1.4-0.1v2.3h0.2c0.4,0,0.8-0.2,0.8-0.3v-1.7C204.6,326.2,204.7,326.1,204.7,326z M204.6,330.5l-0.1,0.1c0.2,0.3,0.4,0.7,0.4,1.1C205.6,332.3,206.7,331,204.6,330.5z M206.6,328.6L206.6,328.6l0.1,2.1h0.1c0.3,0,0.7-0.2,0.7-0.2V329c0.2,0,0.3-0.1,0.4-0.2l-0.9-0.7L206.6,328.6z M205.1,328.2v2.6h0.1c0.4,0,0.7-0.2,0.7-0.3v-1.9h0.2L205.1,328.2z M207,330h-1.6v0.3h1.6V330z M207,328.6h-1.6v0.3h1.6V328.6z M203.6,328.6L203.6,328.6l0.1,2.1h0.1c0.3,0,0.7-0.2,0.7-0.2V329c0.2,0,0.3-0.1,0.4-0.2l-0.9-0.7L203.6,328.6zM202.2,328.2v2.7h0.1c0.4,0,0.7-0.2,0.7-0.3v-2h0.2L202.2,328.2z M204.3,331l-1.3-0.4c-0.3,1.3-0.8,2.5-1.3,3.4l0.2,0.1c0.8-0.7,1.5-1.7,2-2.8C204.1,331.3,204.2,331.2,204.3,331z M205.7,331.9h-1v4.1h1V331.9z M203.6,336.7v-4.9h0.2l-0.5-0.2l-0.6,0.9v4.5h0.2C203.3,337,203.6,336.8,203.6,336.7z M206.9,335.1l-0.5,0.7H203v0.3h4.6c0.2,0,0.3-0.1,0.3-0.2C207.5,335.5,206.9,335.1,206.9,335.1z M206.7,333.8l-0.5,0.6H203v0.3h4.3c0.2,0,0.3-0.1,0.3-0.2C207.2,334.2,206.7,333.8,206.7,333.8z M206.7,332.5l-0.5,0.6H203v0.3h4.2c0.2,0,0.3-0.1,0.3-0.2C207.2,332.9,206.7,332.5,206.7,332.5z M206.9,331.2l-0.5,0.6H203v0.3h4.5c0.2,0,0.3-0.1,0.3-0.2C207.4,331.6,206.9,331.2,206.9,331.2z M204.1,330h-1.6v0.3h1.6V330z M204.1,328.6h-1.6v0.3h1.6V328.6z M209.8,332.6h-1c0,2-0.3,3.2-2,4.2l0.1,0.2C209.1,336.2,209.7,334.9,209.8,332.6z M211.3,332.6h-1v3.3c0,0.6,0.1,0.8,0.9,0.8h0.5c1,0,1.4-0.2,1.4-0.6c0-0.2,0-0.3-0.3-0.4l0-1.3h-0.1c-0.1,0.6-0.3,1.1-0.4,1.3c0,0.1-0.1,0.1-0.2,0.1c-0.1,0-0.2,0-0.3,0h-0.3c-0.2,0-0.2,0-0.2-0.2V333C211.3,332.9,211.3,332.7,211.3,332.6z M208,326.1v7.4h0.2c0.5,0,0.9-0.2,0.9-0.3v-6.3h2.1v6.3h0.2c0.5,0,0.9-0.2,0.9-0.3v-6c0.3,0,0.4-0.1,0.5-0.2l-1.1-0.8l-0.5,0.6h-1.9L208,326.1z M211.7,332.5h-3.2v0.3h3.2V332.5z M211.7,330.6h-3.2v0.3h3.2V330.6z M211.7,328.7h-3.2v0.3h3.2V328.7z M215,330l0.1,0.3h10.6c0.2,0,0.3-0.1,0.3-0.2c-0.5-0.4-1.3-1-1.3-1l-0.7,0.9H215z M215.9,328.5l0.1,0.3h8.9c0.2,0,0.3-0.1,0.3-0.2c-0.5-0.4-1.2-1-1.2-1l-0.7,0.8H215.9z M219,331.4h0.2l-0.9-0.3l-0.4,0.6v5.3h0.2c0.6,0,0.9-0.3,0.9-0.4V331.4z M218.4,332.8v0.3h5.4v-0.3H218.4z M218.4,334.3v0.3h5.4v-0.3H218.4z M218.4,335.8v0.3h5.4v-0.3H218.4z M224,325.9c-1.9,0.6-5.5,1.2-8.4,1.4l0,0.2c3,0,6.5-0.3,8.7-0.6c0.3,0.2,0.6,0.2,0.7,0L224,325.9z M219.4,327.1c-0.6,2.8-2.1,5.4-4.5,7l0.1,0.1c3.1-1.5,4.8-4,5.6-7v-0.2H219.4z M218.4,331.4v0.3h5.4v-0.3H218.4z M223.3,331.4v5.6h0.2c0.4,0,1-0.2,1-0.3v-4.8c0.2,0,0.4-0.1,0.4-0.2l-1.1-0.9l-0.6,0.6H223.3z"/>
</svg>
