<svg width="374" height="666" viewBox="0 0 374 666" fill="none" xmlns="http://www.w3.org/2000/svg">
<rect width="375" height="666" fill="#007282" fill-opacity="0.5"/>
<line x1="42.5" y1="358" x2="332.5" y2="358" stroke="white"/>
<path d="M149.04 339.524L149.148 339.872H159.684C159.852 339.872 159.984 339.812 160.008 339.68C159.504 339.236 158.664 338.588 158.664 338.588L157.92 339.524H149.04ZM152.448 342.632L152.544 342.98H158.784C158.952 342.98 159.084 342.92 159.108 342.788C158.628 342.356 157.824 341.756 157.824 341.756L157.116 342.632H152.448ZM150.936 347.18L151.032 347.516H159.708C159.876 347.516 160.008 347.456 160.044 347.336C159.528 346.88 158.676 346.256 158.676 346.256L157.932 347.18H150.936ZM152.856 336.872C152.532 340.316 151.524 344.6 148.836 347.324L148.98 347.432C152.436 344.924 153.588 340.748 154.14 337.4C154.512 337.364 154.608 337.268 154.644 337.1L152.856 336.872ZM154.716 342.632V347.3H155.916V342.632H154.716ZM162.108 339.608L162.216 339.956H172.956C173.136 339.956 173.256 339.896 173.292 339.764C172.776 339.32 171.924 338.672 171.924 338.672L171.18 339.608H162.108ZM166.368 336.86C165.888 339.704 164.652 343.1 162.072 345.176L162.192 345.296C165.42 343.484 166.872 340.28 167.604 337.532C167.94 337.52 168.036 337.424 168.084 337.268L166.368 336.86ZM164.928 342.728V348.008H165.132C165.72 348.008 166.092 347.792 166.092 347.72V343.076H170.652V347.924H170.856C171.456 347.924 171.852 347.696 171.852 347.624V343.16C172.128 343.112 172.248 343.04 172.32 342.932L171.192 342.056L170.604 342.728H166.224L164.928 342.212V342.728ZM165.552 346.592V346.928H171.264V346.592H165.552ZM180.528 343.448L180.516 343.64C181.716 343.76 182.832 344.096 183.336 344.348C184.284 344.396 184.188 342.572 180.528 343.448ZM180.612 345.224L181.116 346.376C181.236 346.352 181.344 346.244 181.404 346.088C182.676 345.536 183.624 345.08 184.272 344.768L184.248 344.6C182.748 344.9 181.26 345.152 180.612 345.224ZM184.356 342.188H180.432V342.536H184.356V342.188ZM179.664 342.068V343.568C179.664 344.972 179.556 346.604 178.512 347.924L178.632 348.056C180.576 346.82 180.756 344.876 180.756 343.568V342.188H180.936L179.664 341.696V342.068ZM181.884 338.54V340.916H182.784V338.972H182.94L181.884 338.54ZM184.284 338.972H182.304V339.32H184.284V338.972ZM185.088 340.76H185.22C185.16 341.132 185.004 341.852 184.932 342.2L185.088 342.272C185.4 342.032 185.928 341.576 186.204 341.3C186.444 341.288 186.576 341.264 186.66 341.168L185.652 340.196L185.088 340.76ZM179.28 340.16L179.112 340.148C179.04 340.916 178.74 341.432 178.332 341.648C177.408 342.86 180.24 343.4 179.28 340.16ZM179.868 337.1V340.904H180.864V337.904H183.912V340.904H184.944V338.012C185.244 337.964 185.388 337.916 185.484 337.784L184.272 336.932L183.78 337.556H180.996L179.868 337.1ZM183.84 342.188H183.96V346.496C183.96 346.664 183.9 346.736 183.696 346.736C183.468 346.736 182.34 346.652 182.34 346.652V346.832C182.868 346.916 183.132 347.036 183.312 347.216C183.468 347.384 183.528 347.648 183.552 347.996C184.872 347.876 185.028 347.408 185.028 346.628V342.704C185.268 342.656 185.436 342.572 185.508 342.476L184.344 341.6L183.84 342.188ZM185.472 340.76H179.22V341.108H185.472V340.76ZM175.908 344.504C175.776 344.504 175.38 344.504 175.38 344.504V344.756C175.632 344.78 175.824 344.816 175.98 344.936C176.256 345.116 176.316 346.172 176.124 347.42C176.184 347.828 176.4 348.032 176.628 348.032C177.12 348.032 177.444 347.672 177.468 347.108C177.504 346.076 177.084 345.572 177.072 344.972C177.06 344.684 177.144 344.288 177.24 343.904C177.408 343.292 178.284 340.544 178.752 339.08L178.56 339.02C176.46 343.832 176.46 343.832 176.232 344.252C176.112 344.504 176.064 344.504 175.908 344.504ZM175.38 339.776L175.272 339.872C175.68 340.22 176.16 340.82 176.28 341.372C177.312 342.068 178.188 340.076 175.38 339.776ZM176.1 336.932L175.992 337.028C176.448 337.424 176.988 338.096 177.144 338.708C178.224 339.416 179.112 337.34 176.1 336.932ZM188.52 339.152L188.616 339.5H194.616C194.784 339.5 194.904 339.44 194.94 339.308C194.508 338.912 193.812 338.396 193.812 338.396L193.2 339.152H188.52ZM188.7 344.792L188.796 345.14H194.28C194.448 345.14 194.556 345.08 194.592 344.948C194.184 344.588 193.536 344.084 193.536 344.084L192.972 344.792H188.7ZM188.544 346.496L189.072 347.9C189.204 347.876 189.336 347.78 189.408 347.624C191.784 346.976 193.44 346.436 194.604 346.028L194.58 345.848C192.036 346.16 189.576 346.436 188.544 346.496ZM189.492 341.864V342.212H193.692V341.864H189.492ZM189.492 343.34V343.676H193.692V343.34H189.492ZM193.548 336.848C192.42 337.28 190.26 337.856 188.568 338.12L188.604 338.324C190.428 338.3 192.552 338.096 193.932 337.892C194.232 338.024 194.484 338.024 194.604 337.916L193.548 336.848ZM191.064 337.94V346.712H191.232C191.736 346.712 192.072 346.484 192.072 346.4V337.736L191.064 337.94ZM188.952 340.4V344.18H189.12C189.624 344.18 189.936 343.988 189.936 343.916V340.748H193.248V343.964H193.428C193.932 343.964 194.28 343.76 194.28 343.7V340.82C194.532 340.772 194.652 340.7 194.724 340.604L193.704 339.836L193.212 340.4H190.068L188.952 339.956V340.4ZM194.508 339.848L194.616 340.196H198.612V339.848H194.508ZM195.804 337.016C195.804 342.08 196.08 345.476 193.272 347.864L193.416 348.056C197.1 345.908 196.86 342.5 196.908 337.508C197.196 337.46 197.316 337.352 197.352 337.172L195.804 337.016ZM198.216 339.848C198.156 344.048 198.024 346.112 197.652 346.496C197.532 346.604 197.436 346.64 197.232 346.64C197.004 346.64 196.404 346.592 196.02 346.556V346.748C196.416 346.832 196.764 346.976 196.92 347.132C197.064 347.3 197.1 347.564 197.1 347.924C197.64 347.924 198.132 347.756 198.48 347.372C199.044 346.748 199.212 344.936 199.284 340.364C199.548 340.34 199.704 340.256 199.776 340.16L198.684 339.212L198.084 339.848H198.216ZM203.808 337.976H201.696L201.804 338.324H203.808V337.976ZM207.3 337.352L206.844 337.976H205.488L205.584 338.324H207.84C208.008 338.324 208.128 338.264 208.152 338.132C207.84 337.796 207.3 337.352 207.3 337.352ZM206.616 336.944L205.248 336.812V339.14H205.428C205.8 339.14 206.244 338.96 206.244 338.876V337.22C206.496 337.196 206.592 337.088 206.616 336.944ZM204.732 336.956L203.364 336.824V339.164H203.544C203.916 339.164 204.348 338.996 204.348 338.912V337.232C204.612 337.196 204.708 337.1 204.732 336.956ZM204.612 341.504L204.492 341.564C204.66 341.84 204.864 342.308 204.888 342.692C205.644 343.34 206.652 341.96 204.612 341.504ZM206.568 339.596H206.664V341.696H206.796C207.048 341.696 207.456 341.528 207.468 341.456V340.016C207.648 339.992 207.804 339.908 207.864 339.836L206.976 339.164L206.568 339.596ZM205.092 339.188V341.768H205.224C205.632 341.768 205.884 341.564 205.884 341.504V339.596H206.04L205.092 339.188ZM207.048 341.024H205.452V341.372H207.048V341.024ZM207.048 339.596H205.452V339.944H207.048V339.596ZM203.64 339.596H203.736V341.744H203.868C204.12 341.744 204.528 341.576 204.528 341.504V340.016C204.708 339.992 204.864 339.908 204.912 339.836L204.048 339.176L203.64 339.596ZM202.164 339.2V341.888H202.296C202.704 341.888 202.956 341.696 202.956 341.636V339.596H203.112L202.164 339.2ZM204.288 342.02L202.992 341.6C202.704 342.86 202.188 344.144 201.672 344.96L201.84 345.08C202.62 344.42 203.328 343.388 203.832 342.248C204.096 342.26 204.24 342.152 204.288 342.02ZM205.728 342.896H204.768V346.952H205.728V342.896ZM203.604 347.672V342.788H203.76L203.268 342.596L202.62 343.532V347.984H202.788C203.292 347.984 203.604 347.756 203.604 347.672ZM206.928 346.088L206.4 346.748H202.98V347.096H207.612C207.78 347.096 207.888 347.036 207.924 346.904C207.54 346.544 206.928 346.088 206.928 346.088ZM206.652 344.804L206.184 345.392H202.98V345.74H207.24C207.396 345.74 207.516 345.68 207.528 345.548C207.192 345.224 206.652 344.804 206.652 344.804ZM206.652 343.484L206.184 344.072H202.98V344.42H207.228C207.396 344.42 207.504 344.36 207.528 344.228C207.192 343.904 206.652 343.484 206.652 343.484ZM206.88 342.164L206.364 342.788H203.004V343.136H207.504C207.672 343.136 207.792 343.076 207.816 342.944C207.444 342.608 206.88 342.164 206.88 342.164ZM204.12 341.024H202.56V341.372H204.12V341.024ZM204.12 339.596H202.56V339.944H204.12V339.596ZM209.808 343.616H208.764C208.74 345.572 208.464 346.82 206.736 347.852L206.808 348.032C209.052 347.228 209.724 345.92 209.808 343.616ZM211.26 343.604H210.252V346.868C210.252 347.468 210.36 347.708 211.116 347.708H211.632C212.676 347.708 213.024 347.528 213.024 347.156C213.024 346.976 212.976 346.868 212.724 346.736L212.676 345.44H212.544C212.4 345.992 212.268 346.556 212.184 346.7C212.136 346.796 212.1 346.808 212.016 346.82C211.956 346.82 211.86 346.82 211.728 346.82H211.44C211.284 346.82 211.26 346.784 211.26 346.652V343.964C211.26 343.88 211.26 343.736 211.26 343.604ZM208.02 337.052V344.432H208.188C208.716 344.432 209.04 344.216 209.04 344.132V337.856H211.092V344.204H211.272C211.788 344.204 212.16 343.988 212.16 343.928V337.94C212.424 337.904 212.556 337.832 212.64 337.724L211.572 336.884L211.044 337.508H209.184L208.02 337.052ZM211.716 343.52H208.476V343.868H211.716V343.52ZM211.716 341.576H208.476V341.924H211.716V341.576ZM211.716 339.656H208.476V340.004H211.716V339.656ZM215.028 341.036L215.124 341.372H225.72C225.888 341.372 226.02 341.312 226.044 341.18C225.564 340.76 224.784 340.184 224.784 340.184L224.1 341.036H215.028ZM215.916 339.548L216.012 339.884H224.88C225.048 339.884 225.168 339.824 225.204 339.692C224.736 339.284 223.968 338.708 223.968 338.708L223.296 339.548H215.916ZM218.952 342.356H219.108L218.256 342.032L217.824 342.68V348.02H218.028C218.592 348.02 218.952 347.756 218.952 347.66V342.356ZM218.388 343.796V344.144H223.812V343.796H218.388ZM218.4 345.296V345.644H223.824V345.296H218.4ZM218.4 346.832V347.18H223.824V346.832H218.4ZM223.956 336.884C222.084 337.46 218.484 338.096 215.592 338.312L215.616 338.528C218.64 338.564 222.072 338.264 224.316 337.904C224.652 338.06 224.904 338.06 225.024 337.952L223.956 336.884ZM219.408 338.06C218.808 340.82 217.32 343.424 214.896 345.08L215.028 345.224C218.1 343.676 219.876 341.24 220.644 338.252V338.06H219.408ZM218.376 342.356V342.692H223.812V342.356H218.376ZM223.284 342.356V347.996H223.464C223.848 347.996 224.424 347.756 224.436 347.672V342.86C224.64 342.824 224.796 342.728 224.868 342.644L223.728 341.756L223.176 342.356H223.284Z" fill="white"/>
</svg>
