<svg width="25" height="38" viewBox="0 0 25 38" fill="none" xmlns="http://www.w3.org/2000/svg">
<circle cx="12.5" cy="6.5" r="6" fill="white"/>
<path d="M19.1971 22.9206L19.8077 20.6347C19.92 20.136 20.2115 19.696 20.6267 19.3983C20.8506 19.2558 21.1032 19.1645 21.3665 19.1309C21.6297 19.0974 21.8971 19.1224 22.1496 19.2042C22.4105 19.2593 22.6571 19.3682 22.8736 19.524C23.09 19.6798 23.2717 19.879 23.4069 20.109C23.5421 20.339 23.6279 20.5947 23.6588 20.8597C23.6897 21.1247 23.665 21.3933 23.5863 21.6483L21.2373 30.4612C20.9959 31.3444 20.6358 32.1908 20.1669 32.9771C16.0938 39.9499 6.19472 38.3469 3.32126 30.8998C2.60289 29.0883 1.33857 18.8807 1.33857 18.8807C1.31043 18.5984 1.3454 18.3134 1.44097 18.0463C1.53654 17.7792 1.69031 17.5367 1.89112 17.3365C2.09194 17.1362 2.33477 16.9832 2.602 16.8885C2.86924 16.7938 3.15419 16.7598 3.4362 16.7889C3.95259 16.7851 4.45147 16.9761 4.83352 17.3238C5.21558 17.6714 5.45278 18.1503 5.4979 18.6651L6.53235 23.7688L10.6773 8.24191C10.8059 7.72716 11.1336 7.28457 11.5883 7.01159C12.043 6.7386 12.5874 6.65756 13.1018 6.78625C13.6162 6.91493 14.0585 7.2428 14.3313 7.69778C14.6041 8.15276 14.6851 8.69758 14.5565 9.21233L11.446 20.8503L12.7247 16.0557C12.7907 15.8001 12.9066 15.56 13.0655 15.3493C13.2245 15.1386 13.4235 14.9614 13.6511 14.8278C13.8787 14.6943 14.1304 14.6069 14.3918 14.5709C14.6532 14.5349 14.9191 14.5509 15.1743 14.618C15.6892 14.7532 16.1295 15.0871 16.3988 15.5466C16.6681 16.006 16.7444 16.5535 16.611 17.0692L15.3323 21.8711L16.2878 18.2769C16.3557 18.023 16.4729 17.7849 16.6328 17.5763C16.7926 17.3677 16.992 17.1926 17.2195 17.0611C17.4469 16.9296 17.6981 16.8443 17.9585 16.8099C18.219 16.7755 18.4836 16.7928 18.7374 16.8608C18.9911 16.9288 19.2291 17.046 19.4375 17.206C19.646 17.366 19.8209 17.5655 19.9523 17.7931C20.0837 18.0207 20.169 18.2721 20.2034 18.5327C20.2378 18.7933 20.2205 19.0581 20.1526 19.3121L19.8077 20.6203L19.1971 22.9206Z" fill="#33564A" stroke="white" stroke-linecap="round" stroke-linejoin="round"/>
</svg>
