<svg width="175" height="18" viewBox="0 0 175 18" fill="none" xmlns="http://www.w3.org/2000/svg">
<path d="M1.78042 10.0528V11.3237C1.88021 13.2355 2.5052 14.2806 3.65538 14.4697C4.82658 14.7585 6.28663 14.9003 8.03554 14.9003C10.8454 14.8636 13.172 14.7428 15.0207 14.5432V16.3236C13.6972 16.5495 11.339 16.6598 7.94101 16.6598C5.53034 16.6598 3.90748 16.5022 3.07241 16.1923C1.02414 15.7302 0 14.1861 0 11.5653C0 8.00974 0.0472679 4.51192 0.152308 1.08237H10.9557C12.1163 1.27144 12.9882 1.74937 13.5764 2.52666C14.1856 3.25144 14.4955 4.24406 14.4955 5.50454C14.4955 6.76502 14.1856 7.81542 13.5606 8.68725C12.8516 9.54857 12.0376 10.0002 11.1237 10.037L1.78042 10.058V10.0528ZM2.00626 2.71048C1.91698 4.69574 1.8487 6.56544 1.80143 8.33011H6.18159V2.71048H2.00101H2.00626ZM8.03554 2.71048V8.33011H10.6773C11.8905 8.10428 12.4945 7.1169 12.4945 5.37324C12.4945 3.83966 11.8642 2.95208 10.6038 2.71574H8.0408L8.03554 2.71048Z" fill="#808080"/>
<path d="M17.3682 1.6601H24.3165V0.184296H26.2073V1.66536H33.0979V3.48254H26.2073V5.13167H29.4267C30.4246 5.22095 31.1914 5.55183 31.7324 6.1243C32.2943 6.62323 32.5884 7.34276 32.6147 8.27761C32.6147 9.29125 32.3521 10.0633 31.8269 10.599C31.2019 11.2712 30.4456 11.6231 29.5633 11.6494H28.2345V13.5611C28.3343 14.5485 28.7755 15.0422 29.5633 15.0422C31.559 15.0422 32.8458 15.0002 33.4182 14.9109V16.6545C32.9088 16.7438 31.4645 16.7858 29.0906 16.7858C27.3942 16.6598 26.4856 15.6514 26.3753 13.7502V11.6546H23.7913C23.2556 14.4277 21.1181 16.2869 17.3892 17.2323V15.268C19.9101 14.6325 21.4069 13.4246 21.8849 11.6546H18.5866V5.13692H24.3165V3.4878H17.3682V1.67061V1.6601ZM20.3828 10.0108L28.9961 9.98976C30.1568 9.94249 30.766 9.38053 30.829 8.30387C30.766 7.37952 30.267 6.85957 29.3322 6.74928H20.3828V10.0055V10.0108Z" fill="#808080"/>
<path d="M37.4515 0.147522H39.3422V1.53405H39.9777C40.4871 1.60757 40.902 1.82291 41.2119 2.16954C41.485 2.54243 41.6216 2.94158 41.6216 3.36699C41.6216 4.61696 40.9808 5.91421 39.6941 7.26397C40.3453 7.61585 40.9651 8.05177 41.569 8.57696V10.767C40.755 10.0685 39.9672 9.4698 39.1899 8.97086V17.0799H37.3937V9.30699C36.7214 9.81643 35.9809 10.3311 35.1826 10.8406V8.57696C38.1027 6.56545 39.6153 5.03187 39.7151 3.97097C39.7151 3.54556 39.5208 3.30922 39.1321 3.26195H35.2929V1.5393H37.4462V0.147522H37.4515ZM43.5018 14.1336H45.0721C45.1194 14.4329 45.1772 14.7428 45.2402 15.0684H48.197C48.2968 14.7323 48.3704 14.4067 48.4229 14.0968H49.9197C49.8934 14.4592 49.8409 14.7848 49.7516 15.0684H51.322V16.6808H41.9577V15.0684H43.6226C43.57 14.7428 43.528 14.4329 43.4913 14.1336H43.5018ZM42.0785 7.76816H51.364V9.34375H42.0785V7.76816ZM47.1151 1.17691V0.257814H48.5594V1.17691C49.3945 1.22943 50.0405 1.51829 50.4869 2.05925C51.0121 2.58444 51.2905 3.27246 51.3272 4.11803C51.3272 5.03187 51.0751 5.73564 50.5762 6.23458C50.051 6.8333 49.342 7.15368 48.4439 7.19044H42.3043V1.17691H44.8148V0.257814H46.2591V1.17691H47.1204H47.1151ZM48.9323 9.94248C49.5836 9.94248 50.1455 10.1158 50.6182 10.4677C51.0069 10.7933 51.2012 11.2292 51.2012 11.7807C51.2012 12.3321 50.9806 12.7733 50.5447 13.1462C50.093 13.4823 49.5416 13.6661 48.8798 13.6871H42.4776V9.94248H48.9376H48.9323ZM43.8957 3.46153H44.8148V2.56344H43.8957V3.46153ZM43.8957 5.76715H44.8148V4.8323H43.8957V5.76715ZM44.048 12.3374H48.675C49.2842 12.3006 49.5941 12.1063 49.5941 11.7544C49.5941 11.4551 49.2685 11.266 48.6225 11.1925H44.0532V12.3321L44.048 12.3374ZM46.2591 2.56344V3.46153H47.1204V2.56344H46.2591ZM46.2591 4.82704V5.7619H47.1204V4.82704H46.2591ZM48.5647 2.6002V3.46153H49.6151C49.4418 2.98885 49.0899 2.69999 48.5647 2.6002ZM48.5647 4.82704V5.72513C49.1267 5.62535 49.4733 5.32598 49.6151 4.82704H48.5647Z" fill="#808080"/>
<path d="M116.027 11.8227V17.5526H112.519V0.720001H118.579C120.659 0.720001 122.235 1.16642 123.311 2.05401C124.388 2.94684 124.929 4.24409 124.929 5.96149C124.929 7.67889 124.336 9.1757 123.143 10.2366C121.951 11.2975 120.402 11.828 118.485 11.828H116.027V11.8227ZM116.006 3.367V9.1547H116.941C118.7 9.1547 119.866 8.89735 120.433 8.38791C121.006 7.87846 121.289 7.09592 121.289 6.03501C121.289 5.16318 121.016 4.50143 120.465 4.04451C119.913 3.59284 118.826 3.36175 117.203 3.36175H116.001L116.006 3.367Z" fill="#808080"/>
<path d="M157.438 17.5579H153.1L148.4 11.1767H146.168V17.5579H142.659V0.720001H148.799C151.026 0.720001 152.627 1.13491 153.61 1.96472C154.592 2.79454 155.08 3.92371 155.08 5.347C155.08 7.57385 154.014 9.22297 151.876 10.2944L157.438 17.5579ZM146.141 3.367V8.60849H147.717C149.229 8.60849 150.227 8.34589 150.716 7.81544C151.204 7.28499 151.451 6.59172 151.451 5.73565C151.451 4.97411 151.215 4.39114 150.747 3.98149C150.28 3.57183 149.355 3.367 147.979 3.367H146.141Z" fill="#808080"/>
<path d="M174.24 17.5579H169.902L164.629 10.5832L163.437 12.0013V17.5526H159.949V0.720001H163.458V8.71878L169.849 0.720001H173.935L167.381 8.54021L174.24 17.5579Z" fill="#808080"/>
<path d="M134.146 0.720001H130.254L124.204 17.5579H127.754L128.968 13.9025L128.989 13.8395C129.908 13.4351 130.984 13.1987 132.119 13.1987C133.253 13.1987 134.335 13.4298 135.254 13.8342L135.286 13.9393L136.483 17.5526H140.196L134.146 0.720001ZM132.124 4.49618L134.372 11.2397C133.71 11.0297 132.933 10.9089 132.124 10.9089C131.315 10.9089 130.533 11.0349 129.876 11.2397L132.124 4.49618Z" fill="#808080"/>
<path d="M137.087 11.2345L137.108 11.287L137.087 11.2345Z" fill="#808080"/>
<path d="M89.1049 17.5684H85.7226L78.5326 5.22095V17.5684H75.2764V0.730499H79.5305L85.8486 11.6126V0.730499H89.1049V17.5684Z" fill="#808080"/>
<path d="M103.647 17.5684H92.4814V0.730499H103.647V3.52456H95.9688V7.12217H103.106V9.90572H95.9688V14.7796H103.647V17.5736V17.5684Z" fill="#808080"/>
<path d="M72.6399 5.74087C72.2775 4.45939 71.6788 3.36697 70.8437 2.46363C69.3679 0.872277 67.3302 0.0739746 64.7357 0.0739746C62.1412 0.0739746 60.0982 0.867025 58.6276 2.45838C57.7873 3.36697 57.1886 4.47514 56.8262 5.77763V12.2323C57.1886 13.5348 57.7925 14.643 58.6381 15.5516C60.1139 17.1429 62.1464 17.936 64.7304 17.936C67.3144 17.936 69.3784 17.1377 70.849 15.5411C71.6788 14.6377 72.2775 13.5506 72.6347 12.2796V5.73562L72.6399 5.74087ZM67.9499 13.5978C67.1516 14.685 66.0854 15.2312 64.7462 15.2312C63.4069 15.2312 62.3303 14.6903 61.532 13.6083C60.7337 12.5264 60.3345 10.9981 60.3345 9.01811C60.3345 7.03811 60.7337 5.49403 61.532 4.40687C62.3303 3.3197 63.4017 2.77875 64.7462 2.77875C66.0907 2.77875 67.1621 3.3197 67.9551 4.40687C68.7482 5.49403 69.1473 7.02236 69.1473 9.00236C69.1473 10.9824 68.7482 12.5054 67.9499 13.5926V13.5978Z" fill="#808080"/>
</svg>
