<?xml version="1.0" encoding="utf-8"?>
<!-- Generator: Adobe Illustrator 26.5.0, SVG Export Plug-In . SVG Version: 6.00 Build 0)  -->
<svg version="1.1" id="圖層_1" xmlns="http://www.w3.org/2000/svg" xmlns:xlink="http://www.w3.org/1999/xlink" x="0px" y="0px"
	 viewBox="0 0 175 18" style="enable-background:new 0 0 175 18;" xml:space="preserve">
<style type="text/css">
	.st0{fill:#B1B919;}
	.st1{fill:#46A83D;}
	.st2{fill:#6B9931;}
</style>
<path d="M53.3,17.3c-1.5,0-2.6-0.2-3.2-0.7c-0.7-0.5-1-1.3-1-2.5V4.8c0-1.6-0.1-2.9-0.2-3.9l2.7,1h8.8l0.5-0.6c0,0,0.1-0.1,0.1-0.1
	c0.2-0.3,0.4-0.4,0.5-0.4c0.1,0,0.5,0.2,1.1,0.8c0.6,0.5,0.9,0.8,0.9,1C63.2,2.8,63,2.9,62.6,3v2.1c0,1.8,0.1,3.1,0.1,4.1
	c-0.1,0.1-0.3,0.2-0.8,0.4s-0.8,0.2-1.2,0.2c-0.3,0-0.4-0.1-0.4-0.4c0-0.1,0-0.1,0-0.3c0-0.1,0-0.2,0-0.2V8.5h-9.2v5.7
	c0,0.4,0.1,0.6,0.4,0.8c0.3,0.1,0.8,0.2,1.5,0.2h6.4c0.7,0,1.1,0,1.4-0.1c0.3-0.1,0.6-0.2,0.8-0.5c0.3-0.4,0.7-1.4,1.2-3h0.2l0,3.1
	c0.5,0.1,0.8,0.3,1,0.4c0.2,0.1,0.3,0.3,0.3,0.5c0,0.6-0.3,1-0.9,1.3c-0.7,0.3-2,0.5-3.8,0.5H53.3z M51.2,7.9h3.6V2.5h-3.6V7.9z
	 M57,7.9h3.5V2.5H57V7.9z M66.6,18l0-0.2c1.9-0.8,3.2-1.8,4-3c0.7-1.1,1.2-2.5,1.3-4.4h-0.5V11c0,0.1-0.2,0.2-0.6,0.4
	c-0.4,0.2-0.8,0.3-1.2,0.3c-0.3,0-0.4-0.1-0.4-0.4c0-0.5,0.1-1.2,0.1-2V8.2c0-1.4-0.1-2.7-0.2-3.6l2.5,1h2.4V3.2h-3.7
	c-0.9,0-1.9,0.1-2.9,0.3l-0.5-1c0.7,0.1,1.5,0.1,2.5,0.1h4.5c0-1.1,0-2-0.1-2.6c1.4,0.3,2.2,0.5,2.6,0.7c0.2,0.1,0.3,0.2,0.1,0.4
	l-0.3,0.2v1.3h3.6l0.6-0.8c0-0.1,0.1-0.1,0.2-0.3C80.8,1.2,81,1.1,81,1.1c0.1,0,0.5,0.3,1.2,0.8c0.6,0.5,1,0.9,1,1
	c0,0.2-0.2,0.3-0.5,0.3h-6.6v2.4h2.4l0.4-0.5C78.9,5,79,5,79,4.9c0.2-0.2,0.4-0.4,0.4-0.4c0.1,0,0.5,0.2,1.1,0.7
	c0.6,0.5,0.9,0.8,0.9,0.9c-0.1,0.2-0.4,0.3-0.7,0.4V8c0,1.2,0.1,2.1,0.1,2.8c-0.1,0.1-0.3,0.3-0.7,0.5c-0.4,0.2-0.8,0.3-1.2,0.3
	c-0.3,0-0.4-0.1-0.4-0.4c0,0,0-0.1,0-0.2s0-0.1,0-0.1v-0.4h-1v0.2v4.5c0,0.1,0,0.2,0.1,0.3c0.1,0,0.3,0.1,0.6,0.1H80
	c0.8,0,1.2,0,1.4,0c0.2,0,0.3-0.1,0.4-0.3c0.1-0.3,0.4-1.1,0.8-2.4h0.2l0,2.5c0.3,0.1,0.4,0.2,0.5,0.4s0.1,0.3,0.1,0.5
	c0,0.4-0.2,0.8-0.7,1c-0.6,0.2-1.6,0.3-3,0.3h-1.9c-0.9,0-1.5-0.1-1.8-0.4c-0.3-0.2-0.4-0.7-0.4-1.5v-5.2h-1.4c-0.2,2.1-0.8,3.8-2,5
	C71,16.6,69.1,17.5,66.6,18z M71.3,9.9h7.3V6.1h-7.3V9.9z M88.4,17.9c-0.1,0-0.3,0-0.4-0.1c-0.1-0.1-0.1-0.2-0.1-0.3
	c0.1-1.6,0.2-3.3,0.2-4.9V5.7h-0.9c-0.5,0-1,0.1-1.5,0.3L85.2,5c0.7,0.1,1.5,0.1,2.5,0.1h2.2L91,3.7c0.6,0.5,1.2,1.1,1.8,1.6V5.1
	c0-1.6-0.1-2.9-0.2-3.9l2.2,0.9h0.6c0-0.8,0-1.4-0.1-2c0.8,0.3,1.4,0.5,1.6,0.6c0.2,0.1,0.2,0.2,0,0.3l-0.2,0.1v1h0.8
	c0-0.8,0-1.4-0.1-2c0.9,0.3,1.4,0.5,1.7,0.6c0.2,0.1,0.2,0.2,0,0.3L99,1.1v1h0.8l0.4-0.6c0,0,0.1-0.1,0.1-0.2
	c0.2-0.3,0.3-0.4,0.4-0.4c0.1,0,0.4,0.2,0.9,0.6c0.5,0.4,0.7,0.7,0.7,0.9c-0.1,0.2-0.4,0.3-0.7,0.3v4.4c0,0.1-0.2,0.2-0.5,0.3
	c0.3,0.2,0.8,0.6,1.5,1.3c0,0.2-0.2,0.3-0.5,0.3h-7c-0.9,0-1.9,0.1-2.9,0.3l-0.5-1c0.7,0.1,1.5,0.1,2.5,0.1h5.8l0.8-1
	c-0.3,0-0.6,0.1-0.8,0.1h-0.3V7.1h-5.3v0.4c0,0.1-0.1,0.2-0.4,0.3C93.8,7.9,93.5,8,93.1,8c-0.3,0-0.4-0.1-0.4-0.4
	c0-0.2,0-0.5,0.1-0.8c0-0.2,0-0.3,0-0.4V5.6c-0.1,0.1-0.2,0.1-0.4,0.1h-2.5v7.2c0,1.6,0.1,3,0.1,4.5c-0.1,0.1-0.3,0.3-0.5,0.4
	C89.2,17.8,88.8,17.9,88.4,17.9z M85.6,16.1l-0.2-0.2c0.4-1.2,0.6-3.2,0.6-5.9V8.6c0-0.6,0-1.1-0.1-1.5c0.9,0.3,1.5,0.5,1.7,0.6
	c0.2,0.1,0.1,0.2,0,0.4l-0.3,0.2v1.7C87.3,12.8,86.7,14.9,85.6,16.1z M86.2,2.5l-0.5-1c0.7,0.1,1.5,0.1,2.5,0.1h1.2L89.9,1
	c0-0.1,0.1-0.1,0.2-0.3c0.2-0.3,0.4-0.5,0.4-0.5c0.1,0,0.5,0.2,1,0.7s0.8,0.8,0.8,1c0,0.2-0.2,0.3-0.5,0.3h-2.9
	C88.1,2.3,87.2,2.4,86.2,2.5z M90.8,15.2c-0.1,0-0.2,0-0.3-0.1c-0.1-0.1-0.1-0.2-0.1-0.3c0.1-0.6,0.1-1.3,0.1-2.3v-1.3V11
	c0-1.6-0.1-2.9-0.2-3.9c1,0.3,1.7,0.5,1.9,0.6c0.2,0.1,0.2,0.2,0,0.3L92,8.2v1.9c0,1.5,0.1,3,0.1,4.4c-0.1,0.1-0.2,0.3-0.5,0.4
	C91.4,15.1,91.1,15.2,90.8,15.2z M91.9,17.8l-0.5-0.9C92.2,16.9,93,17,94,17h1.6c-0.2-0.1-0.4-0.2-0.6-0.4c0-0.7-0.1-1.5-0.5-2.4
	c-0.3,0-0.5,0.1-0.8,0.1h-0.3v-2.5c0-1.1,0-1.9-0.1-2.6l2.2,0.9h3.9l0.4-0.6c0,0,0.1-0.1,0.1-0.2c0.2-0.3,0.3-0.4,0.4-0.4
	c0.1,0,0.4,0.2,0.9,0.6c0.5,0.4,0.7,0.7,0.7,0.9c-0.1,0.2-0.3,0.3-0.6,0.3v0.9c0,0.1,0,0.3,0,0.6c0,0.5,0,0.9,0.1,1.2
	c-0.1,0.1-0.2,0.2-0.5,0.3c-0.3,0.1-0.7,0.2-1.2,0.2h-0.3v-0.7h-4.2v0.4c0,0.1-0.1,0.1-0.2,0.2c0.8,0.3,1.3,0.6,1.7,1.1
	c0.3,0.4,0.3,0.8,0.2,1.1c-0.1,0.3-0.3,0.6-0.7,0.7h1.6c0.3-1.2,0.4-2.2,0.4-3.2c1.2,0.3,2,0.6,2.4,0.8c0.2,0.1,0.2,0.2,0,0.3
	l-0.3,0.1c-0.6,0.7-1.3,1.4-2,2h1.8l0.4-0.7c0,0,0.1-0.1,0.1-0.2c0.2-0.3,0.4-0.4,0.4-0.4c0.1,0,0.4,0.2,1,0.7
	c0.5,0.5,0.8,0.8,0.8,0.9c0,0.2-0.2,0.3-0.5,0.3h-7.6C93.9,17.5,92.9,17.6,91.9,17.8z M94.6,4.3h0.8V2.6h-0.8V4.3z M94.6,6.6h0.8
	V4.8h-0.8V6.6z M95.2,12.9h4.2v-2.1h-4.2V12.9z M96.8,4.3h0.8V2.6h-0.8V4.3z M96.8,6.6h0.8V4.8h-0.8V6.6z M99,4.3h0.8V2.6H99V4.3z
	 M99,6.6h0.8V4.8H99V6.6z M111.5,6.7c1.2,0,2.2,0.2,2.9,0.7c0.7,0.5,1.2,1.3,1.2,2.4c0,2.4-2,3.4-3.7,3.4c-0.2,0-0.4,0-0.5,0l-1-0.3
	v2.3c0,1.4,0.1,1.4,1.6,1.6v0.5h-5v-0.5c1.3-0.1,1.4-0.2,1.4-1.6V8.8c0-1.4-0.2-1.5-1.4-1.6V6.7H111.5z M110.4,12.2
	c0.2,0.1,0.6,0.2,1,0.2c0.9,0,2.1-0.5,2.1-2.6c0-1.8-1.1-2.5-2.2-2.5c-0.4,0-0.6,0.1-0.7,0.2c-0.1,0.1-0.1,0.3-0.1,0.6V12.2z
	 M121.3,17.3v-0.5c1-0.1,1.1-0.3,0.9-1c-0.2-0.5-0.5-1.3-0.7-2.1h-3.3c-0.2,0.6-0.4,1.2-0.6,1.8c-0.3,1,0,1.2,1.3,1.3v0.5h-3.9v-0.5
	c1-0.1,1.3-0.3,1.9-1.7l3.4-8.5l0.7-0.1c1,2.8,2.2,5.8,3.2,8.6c0.6,1.5,0.7,1.6,1.8,1.7v0.5L121.3,17.3L121.3,17.3z M119.8,9.1
	c-0.5,1.3-1,2.5-1.4,3.7h2.8L119.8,9.1z M136.5,17.4c-0.1,0-0.3,0-0.5,0c-1.8-0.1-2.4-0.5-3-1.3c-0.6-0.9-1.1-1.9-1.7-2.8
	c-0.3-0.5-0.5-0.6-1.1-0.6h-0.4v2.5c0,1.3,0.2,1.4,1.4,1.6v0.5h-4.8v-0.5c1.3-0.1,1.4-0.2,1.4-1.6V8.8c0-1.3-0.2-1.5-1.4-1.6V6.7
	h4.5c1.4,0,2.2,0.1,2.8,0.6c0.7,0.4,1.1,1.2,1.1,2.2c0,1.4-0.9,2.3-2.1,2.7c0.3,0.5,0.9,1.6,1.4,2.3c0.6,0.9,0.9,1.3,1.3,1.7
	c0.4,0.4,0.6,0.6,1.1,0.7L136.5,17.4z M130.3,12c0.7,0,1.3-0.1,1.7-0.4c0.6-0.5,0.8-1.1,0.8-1.9c0-1.7-1.1-2.4-2.1-2.4
	c-0.4,0-0.7,0.1-0.8,0.2c-0.1,0.1-0.2,0.3-0.2,0.6V12H130.3z M137.2,6.7h4.7v0.5c-1.2,0.1-1.4,0.2-1.4,1.6v2.8
	c0.3-0.1,0.7-0.3,1.2-0.8c1-1,1.9-2,2.5-2.7c0.4-0.5,0.3-0.8-0.4-0.8l-0.4,0V6.7h4.2v0.5c-1.2,0.1-1.7,0.2-2.8,1.3
	c-0.6,0.6-1.6,1.6-2.4,2.4c1.1,1.4,2.6,3.3,3.7,4.7c0.7,0.8,0.9,0.9,1.8,1.1v0.5h-3c-0.9-1.1-2.3-3-3.6-4.6
	c-0.3-0.5-0.6-0.5-0.9-0.5v3c0,1.4,0.1,1.5,1.4,1.6v0.5h-4.8v-0.5c1.3-0.1,1.4-0.2,1.4-1.6V8.9c0-1.4-0.1-1.5-1.4-1.6L137.2,6.7
	L137.2,6.7z"/>
<path class="st0" d="M27.6,0v11.8l0.6,2.2v4h-0.9v-4.8L26.7,12L27,3.7l-0.6-1.4V0H27.6z M33.4,0v16.3h-0.3V18h1.1v-2.3h-0.4v-2.4
	l0.4-0.3V7.2l-0.4-0.8v-4l0.4-1V0H33.4z M40.1,0v18H41v-1h-0.5v-5.2l0.3-0.7V8l-0.3-0.5V2.1l0.4-0.7V0H40.1z"/>
<path class="st1" d="M32.6,2.2V0h-0.7v2.5l-0.4,1V0h-0.6v18h0.5v-3.3h0.4V18h0.5v-6l0.3-0.4V8.5l-0.3-1V2.9L32.6,2.2z M31.5,9.2V5.5
	L31.8,6v3.4L31.5,9.2z M38.9,0v2.3L38.5,3v8.1l0.4,0.5v4.9L38.6,17v1h-0.3V1.2h-1V0H38.9z M44.5,8.1v6.8L44.2,18h-0.7v-2.6h-0.3v-4
	l0.3-0.7V0h0.4v1.4L44,1.9v3.5L44.5,8.1z"/>
<path class="st2" d="M42.7,0v1.2h-0.1v7.5h-0.2V18h-0.5V7.3l-0.2-0.5V3.7l0.3-0.4V0.7h0.1V0C42.1,0,42.7,0,42.7,0z M36.3,9V0h-1.1
	v1.4h0.2V7h0.2v3h-0.3v3.5h0.3v2.2h-0.3V18h2v-5.5L36.3,9z M29.8,5.3V1.7l-0.3-0.6V0h-1.2v2.1l0.9,3.4V18h0.5v-3l-0.2-0.3V6.3
	L29.8,5.3z"/>
</svg>
