<svg width="175" height="18" viewBox="0 0 175 18" fill="#888" xmlns="http://www.w3.org/2000/svg">
<path d="M29.9,17.3c-1.5,0-2.6-0.2-3.2-0.7c-0.7-0.5-1-1.3-1-2.5V4.8c0-1.6-0.1-2.9-0.2-3.9l2.7,1h8.8l0.5-0.6
	c0,0,0.1-0.1,0.1-0.2C37.7,1,37.9,0.8,38,0.8c0.1,0,0.5,0.3,1.1,0.8c0.6,0.5,0.9,0.8,0.9,1c-0.2,0.2-0.5,0.4-0.8,0.4v2.1
	c0,1.8,0.1,3.1,0.1,4.1c-0.1,0.1-0.3,0.3-0.8,0.4c-0.5,0.2-0.9,0.2-1.2,0.2c-0.3,0-0.4-0.1-0.4-0.4c0-0.1,0-0.2,0-0.3
	c0-0.1,0-0.2,0-0.2V8.4h-9.2v5.7c0,0.4,0.2,0.6,0.5,0.8c0.3,0.1,0.8,0.2,1.5,0.2h6.4c0.7,0,1.1,0,1.4-0.1c0.3-0.1,0.6-0.2,0.8-0.5
	c0.3-0.4,0.7-1.4,1.2-3h0.2l0,3.1c0.5,0.2,0.8,0.3,1,0.4c0.2,0.1,0.3,0.3,0.3,0.5c0,0.6-0.3,1-0.9,1.3c-0.7,0.3-2,0.5-3.8,0.5H29.9z
	 M27.9,7.9h3.6V2.6h-3.6V7.9z M33.6,7.9h3.5V2.6h-3.5V7.9z M43.2,18l-0.1-0.2c1.9-0.8,3.2-1.8,4-3c0.7-1.1,1.2-2.5,1.3-4.4h-0.5V11
	c0,0.1-0.2,0.3-0.6,0.4c-0.4,0.2-0.8,0.3-1.2,0.3c-0.3,0-0.4-0.1-0.4-0.4c0.1-0.5,0.1-1.2,0.1-1.9V8.2c0-1.4-0.1-2.6-0.2-3.6l2.5,1
	h2.4V3.2h-3.7c-0.9,0-1.8,0.1-2.8,0.3l-0.5-1C44.1,2.6,45,2.6,46,2.6h4.5c0-1.1-0.1-2-0.2-2.6c1.4,0.3,2.2,0.5,2.5,0.7
	c0.3,0.1,0.3,0.2,0.1,0.4l-0.3,0.2v1.4h3.7l0.6-0.8C56.9,1.8,57,1.7,57,1.6c0.3-0.4,0.4-0.5,0.5-0.5c0.1,0,0.5,0.3,1.2,0.8
	c0.6,0.5,1,0.9,1,1c-0.1,0.2-0.2,0.3-0.5,0.3h-6.5v2.4H55l0.5-0.5c0,0,0.1-0.1,0.2-0.2C55.8,4.6,56,4.5,56,4.5
	c0.1,0,0.5,0.2,1.1,0.7c0.6,0.5,0.9,0.8,0.9,0.9c-0.2,0.2-0.4,0.3-0.7,0.4V8c0,1.2,0.1,2.1,0.1,2.8c-0.1,0.2-0.3,0.3-0.7,0.5
	c-0.4,0.2-0.8,0.3-1.2,0.3c-0.3,0-0.4-0.1-0.4-0.4c0-0.1,0-0.1,0-0.2c0-0.1,0-0.1,0-0.2v-0.4h-1v0.2v4.5c0,0.2,0,0.2,0.1,0.3
	c0.1,0,0.3,0.1,0.6,0.1h1.6c0.8,0,1.2,0,1.4,0c0.2,0,0.3-0.1,0.5-0.3c0.1-0.3,0.4-1.1,0.8-2.4h0.2l0.1,2.5c0.3,0.1,0.4,0.2,0.5,0.4
	c0.1,0.1,0.1,0.3,0.1,0.5c0,0.5-0.2,0.8-0.7,1c-0.6,0.2-1.6,0.3-3,0.3h-1.9c-0.9,0-1.5-0.1-1.8-0.4c-0.3-0.2-0.4-0.7-0.4-1.5v-5.2
	h-1.4c-0.2,2.1-0.8,3.8-2,4.9C47.6,16.6,45.7,17.4,43.2,18z M47.9,9.9h7.3V6.2h-7.3V9.9z M64.9,17.9c-0.2,0-0.3,0-0.4-0.1
	c-0.1-0.1-0.1-0.2-0.1-0.3c0.1-1.6,0.2-3.3,0.2-4.9V5.7h-0.9c-0.5,0-1,0.1-1.5,0.3L61.8,5c0.7,0.1,1.5,0.1,2.5,0.2h2.2l1.1-1.5
	c0.6,0.5,1.2,1.1,1.8,1.6V5.1c0-1.6-0.1-2.9-0.2-3.9l2.2,0.9h0.6c0-0.8,0-1.4-0.1-2c0.8,0.3,1.4,0.5,1.6,0.6
	c0.2,0.1,0.2,0.2,0.1,0.3l-0.2,0.1v1h0.8c0-0.8,0-1.4-0.1-2c0.9,0.3,1.4,0.5,1.7,0.6c0.2,0.1,0.2,0.2,0.1,0.3l-0.2,0.1v1h0.8
	l0.4-0.6c0-0.1,0.1-0.1,0.2-0.2C77,1,77.2,0.9,77.2,0.9c0.1,0,0.4,0.2,0.9,0.7c0.5,0.4,0.7,0.7,0.7,0.9c-0.1,0.2-0.4,0.3-0.7,0.3
	v4.4c0,0.1-0.2,0.2-0.5,0.3c0.3,0.2,0.8,0.6,1.5,1.3C79.2,9,79,9.1,78.7,9.1h-7c-0.9,0-1.8,0.1-2.8,0.3l-0.5-1
	c0.7,0.1,1.5,0.1,2.5,0.2h5.8l0.8-1c-0.3,0.1-0.6,0.1-0.8,0.1h-0.3V7.1h-5.2v0.4c0,0.1-0.1,0.2-0.4,0.3C70.4,7.9,70,8,69.6,8
	c-0.3,0-0.4-0.1-0.4-0.4c0-0.2,0.1-0.5,0.1-0.8c0-0.2,0-0.3,0-0.4V5.6c-0.1,0.1-0.2,0.1-0.4,0.1h-2.5v7.2c0,1.6,0.1,3,0.2,4.4
	c-0.1,0.1-0.3,0.3-0.5,0.4C65.7,17.8,65.3,17.9,64.9,17.9z M62.1,16.1l-0.2-0.2c0.4-1.2,0.6-3.2,0.6-5.9V8.6c0-0.6,0-1.1-0.1-1.5
	c0.9,0.3,1.5,0.5,1.7,0.6c0.2,0.1,0.2,0.2,0,0.4l-0.3,0.2V10C63.8,12.8,63.3,14.8,62.1,16.1z M62.7,2.5l-0.5-1
	c0.7,0.1,1.5,0.1,2.5,0.2h1.2L66.4,1c0.1-0.1,0.1-0.2,0.2-0.3c0.2-0.3,0.4-0.5,0.4-0.5c0.1,0,0.5,0.2,1,0.7c0.6,0.5,0.8,0.8,0.8,1
	c0,0.2-0.2,0.3-0.5,0.3h-2.9C64.6,2.3,63.7,2.4,62.7,2.5z M67.3,15.2c-0.1,0-0.2,0-0.3-0.1C67,15,67,14.9,67,14.8
	c0.1-0.6,0.1-1.3,0.1-2.3v-1.3V11c0-1.6-0.1-2.9-0.2-3.9c1,0.3,1.7,0.5,1.9,0.6C69,7.8,69,7.9,68.8,8l-0.3,0.2v1.9
	c0,1.5,0.1,3,0.2,4.4c-0.1,0.2-0.3,0.3-0.5,0.5C67.9,15.1,67.6,15.2,67.3,15.2z M68.4,17.8L68,16.8c0.7,0.1,1.5,0.1,2.5,0.2h1.6
	c-0.2-0.1-0.4-0.2-0.6-0.4c0-0.7-0.2-1.5-0.5-2.3c-0.3,0.1-0.6,0.1-0.8,0.1h-0.3v-2.5c0-1.1-0.1-1.9-0.2-2.6l2.2,0.9h3.9l0.4-0.6
	c0-0.1,0.1-0.1,0.2-0.2C76.6,9.2,76.7,9,76.8,9c0.1,0,0.4,0.2,0.9,0.7c0.5,0.4,0.7,0.7,0.7,0.9c-0.1,0.2-0.3,0.3-0.6,0.3v0.9
	c0,0.2,0,0.3,0,0.6c0,0.5,0.1,0.9,0.1,1.2c-0.1,0.1-0.2,0.2-0.5,0.3c-0.3,0.1-0.7,0.2-1.2,0.2h-0.3v-0.7h-4.2v0.4
	c0,0.1-0.1,0.1-0.2,0.2c0.8,0.3,1.3,0.6,1.6,1.1c0.3,0.4,0.4,0.8,0.2,1.1c-0.1,0.4-0.3,0.6-0.7,0.7h1.6c0.3-1.2,0.4-2.2,0.4-3.2
	c1.2,0.4,2,0.6,2.3,0.8c0.2,0.1,0.2,0.2,0,0.3L76.8,15c-0.6,0.7-1.3,1.3-2,2h1.8l0.4-0.7c0-0.1,0.1-0.1,0.2-0.2
	c0.2-0.3,0.4-0.5,0.4-0.5c0.1,0,0.5,0.2,1,0.7c0.5,0.5,0.8,0.8,0.8,0.9c0,0.2-0.2,0.3-0.5,0.3h-7.6C70.4,17.5,69.4,17.6,68.4,17.8z
	 M71.1,4.3h0.8V2.6h-0.8V4.3z M71.1,6.6h0.8V4.8h-0.8V6.6z M71.8,12.9h4.2v-2.1h-4.2V12.9z M73.3,4.3h0.8V2.6h-0.8V4.3z M73.3,6.6
	h0.8V4.8h-0.8V6.6z M75.5,4.3h0.8V2.6h-0.8V4.3z M75.5,6.6h0.8V4.8h-0.8V6.6z M91,0.7c2,0,3.6,0.4,4.6,1.1c1.2,0.8,1.9,2.1,1.9,3.9
	c0,3.8-3.3,5.4-6,5.4c-0.3,0-0.6,0-0.8-0.1l-1.6-0.4v3.8c0,2.2,0.2,2.3,2.5,2.5v0.9h-8v-0.9c2.1-0.2,2.3-0.3,2.3-2.5V4.2
	c0-2.3-0.3-2.4-2.3-2.6V0.7H91z M89.2,9.6c0.3,0.2,0.9,0.3,1.6,0.3c1.4,0,3.4-0.8,3.4-4.2c0-2.9-1.7-4-3.6-4c-0.6,0-1,0.1-1.2,0.3
	c-0.2,0.2-0.3,0.4-0.3,1V9.6z M106.7,17.8v-0.9c1.7-0.2,1.7-0.5,1.4-1.6c-0.3-0.9-0.7-2.1-1.2-3.4h-5.3c-0.3,0.9-0.7,2-1,2.9
	c-0.6,1.7,0,1.9,2.1,2.1v0.9h-6.3v-0.9c1.7-0.2,2.1-0.4,3-2.7l5.5-13.7l1.1-0.2c1.7,4.5,3.5,9.3,5.2,13.8c0.9,2.4,1.2,2.6,2.9,2.8
	v0.9H106.7z M104.3,4.8c-0.8,2-1.6,4-2.3,6h4.4L104.3,4.8z M131.1,18c-0.2,0-0.5,0-0.9,0c-2.8-0.1-3.8-0.8-4.7-2.1
	c-1-1.4-1.9-3-2.7-4.5c-0.4-0.8-0.8-0.9-1.8-0.9l-0.7,0v3.9c0,2.2,0.3,2.3,2.3,2.6v0.9h-7.7v-0.9c2.1-0.2,2.3-0.4,2.3-2.6V4.2
	c0-2.1-0.3-2.3-2.3-2.5V0.7h7.3c2.2,0,3.5,0.3,4.6,1c1.1,0.7,1.8,1.9,1.8,3.5c0,2.3-1.5,3.6-3.3,4.3c0.4,0.8,1.5,2.5,2.3,3.7
	c0.9,1.4,1.5,2.1,2,2.7c0.6,0.7,1,0.9,1.7,1.2L131.1,18z M121.2,9.4c1.2,0,2.1-0.2,2.7-0.7c0.9-0.7,1.3-1.8,1.3-3.1
	c0-2.8-1.7-3.8-3.4-3.8c-0.7,0-1.1,0.1-1.3,0.3c-0.2,0.2-0.3,0.5-0.3,1v6.3H121.2z M132.2,0.7h7.6v0.9c-1.9,0.2-2.3,0.4-2.3,2.6v4.5
	c0.5-0.1,1.2-0.5,2-1.3c1.7-1.6,3-3.2,4-4.3c0.7-0.8,0.6-1.2-0.6-1.4l-0.6-0.1V0.7h6.7v0.9c-1.9,0.2-2.7,0.4-4.4,2.2
	c-0.9,1-2.5,2.5-3.8,3.9c1.8,2.3,4.1,5.3,5.9,7.5c1.1,1.3,1.4,1.5,2.9,1.7v0.9h-4.9c-1.4-1.8-3.7-4.7-5.7-7.4
	c-0.6-0.8-1-0.9-1.4-0.8v4.8c0,2.3,0.2,2.4,2.3,2.6v0.9h-7.6v-0.9c2-0.2,2.3-0.4,2.3-2.6V4.3c0-2.3-0.2-2.4-2.3-2.6V0.7z"/>
</svg>
