<svg width="582" height="129" viewBox="0 0 582 129" fill="none" xmlns="http://www.w3.org/2000/svg">
<style type="text/css">
	.st0{fill:none;stroke:url(#SVGID_1_);stroke-width:3;stroke-miterlimit:10;}
	.st1{fill:#FFFFFF;stroke:#DBB07A;stroke-miterlimit:10;}
	.st2{fill:#FFFFFF;}
	.st3{fill:#666666;}
	.st4{fill:url(#SVGID_00000152258805698827360550000017776964164691439761_);}
	.st5{fill:#333333;}
</style>
<linearGradient id="SVGID_1_" gradientUnits="userSpaceOnUse" x1="240.4067" y1="157.1254" x2="358.112" y2="-38.769">
	<stop  offset="0" style="stop-color:#EBC87D"/>
	<stop  offset="0.19" style="stop-color:#E3BF7E"/>
	<stop  offset="0.6" style="stop-color:#C38503"/>
	<stop  offset="0.8" style="stop-color:#DFB35E"/>
	<stop  offset="0.87" style="stop-color:#EAC580"/>
	<stop  offset="1" style="stop-color:#EFE3CA"/>
</linearGradient>
<path class="st0" d="M19.7,23h346.6l-54.1,72.3h266.5"/>
<path class="st1" d="M39.1,39.2c8.9-8.9,8.9-23.3,0-32.3C30.2-2,15.8-2,6.9,6.9C-2,15.8-2,30.3,6.9,39.2S30.2,48.1,39.1,39.2z
	 M122.2,39.2c8.9-8.9,8.9-23.3,0-32.3C113.3-2,98.9-2,90,6.9c-8.9,8.9-8.9,23.3,0,32.3C98.9,48.1,113.3,48.1,122.2,39.2z
	 M211.4,28.3c2.9-12.3-4.7-24.5-16.9-27.4s-24.5,4.7-27.4,17c-2.9,12.3,4.7,24.5,16.9,27.4C196.2,48.1,208.5,40.5,211.4,28.3z
	 M294.5,28.3c2.9-12.3-4.7-24.5-16.9-27.4c-12.2-2.9-24.5,4.7-27.4,17c-2.9,12.3,4.7,24.5,16.9,27.4
	C279.3,48.1,291.6,40.5,294.5,28.3z M377.5,28.3c2.9-12.3-4.7-24.5-16.9-27.4c-12.2-2.9-24.5,4.7-27.4,17
	c-2.9,12.3,4.7,24.5,16.9,27.4C362.4,48.1,374.7,40.5,377.5,28.3z"/>
<path class="st2" d="M52.7,16.6c1.8-1.6,2.7-2.7,2.7-3.7c0-0.7-0.4-1.1-1-1.1c-0.5,0-0.9,0.3-1.2,0.7l-0.5-0.5
	c0.5-0.6,1-0.9,1.8-0.9c1.1,0,1.8,0.7,1.8,1.8c0,1.2-0.9,2.4-2.2,3.6c0.3,0,0.7-0.1,1-0.1h1.5v0.8h-3.9L52.7,16.6L52.7,16.6z
	 M57.6,12.7h0.8l0.1,0.6h0c0.4-0.4,0.8-0.7,1.4-0.7c0.7,0,1,0.3,1.2,0.8c0.4-0.5,0.9-0.8,1.5-0.8c0.9,0,1.4,0.6,1.4,1.8v2.8H63v-2.7
	c0-0.8-0.2-1.1-0.8-1.1c-0.3,0-0.6,0.2-1,0.6v3.2h-0.9v-2.7c0-0.8-0.2-1.1-0.8-1.1c-0.3,0-0.6,0.2-1,0.6v3.2h-0.9L57.6,12.7
	L57.6,12.7z M65.2,11.3c0-0.3,0.3-0.6,0.6-0.6c0.3,0,0.6,0.2,0.6,0.6s-0.3,0.6-0.6,0.6C65.4,11.8,65.2,11.6,65.2,11.3z M65.3,12.7
	h0.9v4.5h-0.9V12.7z M67.7,12.7h0.8l0.1,0.6h0c0.4-0.4,0.9-0.7,1.5-0.7c1,0,1.4,0.6,1.4,1.8v2.8h-0.9v-2.7c0-0.8-0.2-1.1-0.8-1.1
	c-0.4,0-0.7,0.2-1.1,0.6v3.2h-0.9L67.7,12.7L67.7,12.7z M72.3,16.6l0.4-0.6c0.4,0.3,0.8,0.5,1.3,0.5c0.5,0,0.8-0.3,0.8-0.6
	c0-0.4-0.5-0.6-1-0.8c-0.6-0.2-1.3-0.5-1.3-1.3c0-0.8,0.6-1.3,1.6-1.3c0.6,0,1.1,0.2,1.5,0.5l-0.4,0.6c-0.3-0.2-0.6-0.4-1-0.4
	c-0.5,0-0.7,0.2-0.7,0.6c0,0.4,0.5,0.5,1,0.7c0.6,0.2,1.3,0.5,1.3,1.4c0,0.8-0.6,1.4-1.7,1.4C73.3,17.3,72.7,17,72.3,16.6L72.3,16.6
	z M134.5,16.6c1.8-1.6,2.7-2.7,2.7-3.7c0-0.7-0.4-1.1-1-1.1c-0.5,0-0.9,0.3-1.2,0.7l-0.5-0.5c0.5-0.6,1-0.9,1.8-0.9
	c1.1,0,1.8,0.7,1.8,1.8c0,1.2-0.9,2.4-2.2,3.6c0.3,0,0.7-0.1,1-0.1h1.5v0.8h-3.9V16.6L134.5,16.6z M139.5,12.7h0.8l0.1,0.6h0
	c0.4-0.4,0.8-0.7,1.4-0.7c0.7,0,1,0.3,1.2,0.8c0.4-0.5,0.9-0.8,1.5-0.8c0.9,0,1.4,0.6,1.4,1.8v2.8h-0.9v-2.7c0-0.8-0.2-1.1-0.8-1.1
	c-0.3,0-0.6,0.2-1,0.6v3.2h-0.9v-2.7c0-0.8-0.2-1.1-0.8-1.1c-0.3,0-0.6,0.2-1,0.6v3.2h-0.9L139.5,12.7L139.5,12.7z M147,11.3
	c0-0.3,0.2-0.6,0.6-0.6s0.6,0.2,0.6,0.6s-0.3,0.6-0.6,0.6S147,11.6,147,11.3z M147.1,12.7h0.9v4.5h-0.9V12.7z M149.5,12.7h0.8
	l0.1,0.6h0c0.4-0.4,0.9-0.7,1.5-0.7c0.9,0,1.4,0.6,1.4,1.8v2.8h-0.9v-2.7c0-0.8-0.2-1.1-0.8-1.1c-0.4,0-0.7,0.2-1.1,0.6v3.2h-0.9
	V12.7z M154.1,16.6l0.4-0.6c0.4,0.3,0.8,0.5,1.3,0.5c0.5,0,0.8-0.3,0.8-0.6c0-0.4-0.5-0.6-1-0.8c-0.6-0.2-1.3-0.5-1.3-1.3
	c0-0.8,0.6-1.3,1.6-1.3c0.6,0,1.1,0.2,1.5,0.5l-0.4,0.6c-0.3-0.2-0.6-0.4-1-0.4c-0.5,0-0.7,0.2-0.7,0.6c0,0.4,0.5,0.5,0.9,0.7
	c0.6,0.2,1.3,0.5,1.3,1.4c0,0.8-0.6,1.4-1.7,1.4C155.2,17.3,154.5,17,154.1,16.6L154.1,16.6z M218.8,16.6c1.8-1.6,2.7-2.7,2.7-3.7
	c0-0.7-0.4-1.1-1-1.1c-0.5,0-0.9,0.3-1.2,0.7l-0.5-0.5c0.5-0.6,1-0.9,1.8-0.9c1.1,0,1.8,0.7,1.8,1.8c0,1.2-0.9,2.4-2.2,3.6
	c0.3,0,0.7-0.1,1-0.1h1.5v0.8h-3.9V16.6L218.8,16.6z M223.8,12.7h0.8l0.1,0.6h0c0.4-0.4,0.8-0.7,1.4-0.7c0.7,0,1,0.3,1.2,0.8
	c0.4-0.5,0.9-0.8,1.5-0.8c0.9,0,1.4,0.6,1.4,1.8v2.8h-0.9v-2.7c0-0.8-0.2-1.1-0.8-1.1c-0.3,0-0.6,0.2-1,0.6v3.2h-0.9v-2.7
	c0-0.8-0.2-1.1-0.8-1.1c-0.3,0-0.6,0.2-1,0.6v3.2h-0.9L223.8,12.7L223.8,12.7z M231.3,11.3c0-0.3,0.2-0.6,0.6-0.6
	c0.3,0,0.6,0.2,0.6,0.6s-0.3,0.6-0.6,0.6S231.3,11.6,231.3,11.3z M231.4,12.7h0.9v4.5h-0.9V12.7z M233.8,12.7h0.8l0.1,0.6h0
	c0.4-0.4,0.9-0.7,1.5-0.7c0.9,0,1.4,0.6,1.4,1.8v2.8h-0.9v-2.7c0-0.8-0.2-1.1-0.8-1.1c-0.4,0-0.7,0.2-1.1,0.6v3.2h-0.9V12.7z
	 M238.4,16.6l0.4-0.6c0.4,0.3,0.8,0.5,1.3,0.5c0.5,0,0.8-0.3,0.8-0.6c0-0.4-0.5-0.6-1-0.8c-0.6-0.2-1.3-0.5-1.3-1.3
	c0-0.8,0.6-1.3,1.6-1.3c0.6,0,1.1,0.2,1.5,0.5l-0.4,0.6c-0.3-0.2-0.6-0.4-1-0.4c-0.5,0-0.7,0.2-0.7,0.6c0,0.4,0.5,0.5,0.9,0.7
	c0.6,0.2,1.3,0.5,1.3,1.4c0,0.8-0.6,1.4-1.7,1.4C239.4,17.3,238.8,17,238.4,16.6L238.4,16.6z M302,16.4l0.4-0.6
	c0.3,0.3,0.8,0.6,1.4,0.6c0.7,0,1.2-0.5,1.2-1.3s-0.5-1.3-1.1-1.3c-0.4,0-0.6,0.1-1,0.3l-0.5-0.3l0.2-2.8h3v0.8h-2.2l-0.1,1.5
	c0.2-0.1,0.5-0.2,0.8-0.2c1,0,1.8,0.6,1.8,1.9c0,1.3-1,2.1-2,2.1C303,17.2,302.4,16.9,302,16.4L302,16.4z M307.1,12.7h0.8l0.1,0.6h0
	c0.4-0.4,0.8-0.7,1.4-0.7c0.7,0,1,0.3,1.2,0.8c0.4-0.5,0.9-0.8,1.5-0.8c0.9,0,1.4,0.6,1.4,1.8v2.8h-0.9v-2.7c0-0.8-0.2-1.1-0.8-1.1
	c-0.3,0-0.6,0.2-1,0.6v3.2h-0.9v-2.7c0-0.8-0.2-1.1-0.8-1.1c-0.3,0-0.6,0.2-1,0.6v3.2h-0.9L307.1,12.7L307.1,12.7z M314.6,11.3
	c0-0.3,0.2-0.6,0.6-0.6s0.6,0.2,0.6,0.6s-0.3,0.6-0.6,0.6S314.6,11.6,314.6,11.3z M314.7,12.7h0.9v4.5h-0.9V12.7z M317.1,12.7h0.8
	l0.1,0.6h0c0.4-0.4,0.9-0.7,1.5-0.7c1,0,1.4,0.6,1.4,1.8v2.8h-0.9v-2.7c0-0.8-0.2-1.1-0.8-1.1c-0.4,0-0.7,0.2-1.1,0.6v3.2h-0.9V12.7
	z M321.7,16.6l0.4-0.6c0.4,0.3,0.8,0.5,1.3,0.5c0.5,0,0.8-0.3,0.8-0.6c0-0.4-0.5-0.6-1-0.8c-0.6-0.2-1.3-0.5-1.3-1.3
	c0-0.8,0.6-1.3,1.6-1.3c0.6,0,1.1,0.2,1.5,0.5l-0.4,0.6c-0.3-0.2-0.6-0.4-1-0.4c-0.5,0-0.7,0.2-0.7,0.6c0,0.4,0.5,0.5,1,0.7
	c0.6,0.2,1.3,0.5,1.3,1.4c0,0.8-0.6,1.4-1.7,1.4C322.8,17.3,322.1,17,321.7,16.6L321.7,16.6z M339.1,106.4h1.3v-4.2h-1.1v-0.6
	c0.6-0.1,1-0.2,1.3-0.5h0.7v5.2h1.2v0.8h-3.4V106.4z M343.5,104.1c0-2.1,0.8-3.1,1.9-3.1c1.2,0,1.9,1,1.9,3.1c0,2.1-0.8,3.1-1.9,3.1
	S343.5,106.2,343.5,104.1z M346.5,104.1c0-1.7-0.4-2.3-1-2.3c-0.6,0-1,0.6-1,2.3c0,1.7,0.4,2.4,1,2.4
	C346,106.5,346.5,105.8,346.5,104.1z M348.4,102.6h0.8l0.1,0.6h0c0.4-0.4,0.8-0.7,1.4-0.7c0.7,0,1,0.3,1.2,0.8
	c0.4-0.5,0.9-0.8,1.5-0.8c0.9,0,1.4,0.6,1.4,1.8v2.8h-0.9v-2.7c0-0.8-0.2-1.1-0.8-1.1c-0.3,0-0.6,0.2-1,0.6v3.2h-0.9v-2.7
	c0-0.8-0.2-1.1-0.8-1.1c-0.3,0-0.6,0.2-1,0.6v3.2h-0.9L348.4,102.6L348.4,102.6z M356,101.3c0-0.3,0.2-0.6,0.6-0.6
	c0.3,0,0.6,0.2,0.6,0.6c0,0.3-0.3,0.6-0.6,0.6C356.2,101.8,356,101.6,356,101.3z M356.1,102.6h0.9v4.5h-0.9V102.6z M358.4,102.6h0.8
	l0.1,0.6h0c0.4-0.4,0.9-0.7,1.5-0.7c0.9,0,1.4,0.6,1.4,1.8v2.8h-0.9v-2.7c0-0.8-0.2-1.1-0.8-1.1c-0.4,0-0.7,0.2-1.1,0.6v3.2h-0.9
	L358.4,102.6L358.4,102.6z M363,106.6l0.4-0.6c0.4,0.3,0.8,0.5,1.3,0.5c0.5,0,0.8-0.3,0.8-0.6c0-0.4-0.5-0.6-1-0.8
	c-0.6-0.2-1.3-0.5-1.3-1.3c0-0.8,0.6-1.3,1.6-1.3c0.6,0,1.1,0.2,1.5,0.5l-0.4,0.6c-0.3-0.2-0.6-0.4-1-0.4c-0.5,0-0.7,0.2-0.7,0.6
	c0,0.4,0.5,0.5,0.9,0.7c0.6,0.2,1.3,0.5,1.3,1.4c0,0.8-0.6,1.4-1.7,1.4C364.1,107.2,363.5,107,363,106.6L363,106.6z M422.1,106.4
	h1.3v-4.2h-1.1v-0.6c0.6-0.1,1-0.2,1.3-0.5h0.7v5.2h1.2v0.8h-3.4V106.4z M426.4,106.6c1.8-1.6,2.7-2.7,2.7-3.7c0-0.7-0.4-1.1-1-1.1
	c-0.5,0-0.9,0.3-1.2,0.7l-0.5-0.5c0.5-0.6,1-0.9,1.8-0.9c1.1,0,1.8,0.7,1.8,1.8c0,1.2-0.9,2.4-2.2,3.6c0.3,0,0.7-0.1,1-0.1h1.5v0.8
	h-3.9L426.4,106.6L426.4,106.6z M431.4,102.6h0.8l0.1,0.6h0c0.4-0.4,0.8-0.7,1.4-0.7c0.7,0,1,0.3,1.2,0.8c0.4-0.5,0.9-0.8,1.5-0.8
	c0.9,0,1.4,0.6,1.4,1.8v2.8h-0.9v-2.7c0-0.8-0.2-1.1-0.8-1.1c-0.3,0-0.6,0.2-1,0.6v3.2h-0.9v-2.7c0-0.8-0.2-1.1-0.8-1.1
	c-0.3,0-0.6,0.2-1,0.6v3.2h-0.9L431.4,102.6L431.4,102.6z M438.9,101.3c0-0.3,0.2-0.6,0.6-0.6c0.3,0,0.6,0.2,0.6,0.6
	c0,0.3-0.3,0.6-0.6,0.6C439.2,101.8,438.9,101.6,438.9,101.3z M439,102.6h0.9v4.5H439V102.6z M441.4,102.6h0.8l0.1,0.6h0
	c0.4-0.4,0.9-0.7,1.5-0.7c0.9,0,1.4,0.6,1.4,1.8v2.8h-0.9v-2.7c0-0.8-0.2-1.1-0.8-1.1c-0.4,0-0.7,0.2-1.1,0.6v3.2h-0.9L441.4,102.6
	L441.4,102.6z M446,106.6l0.4-0.6c0.4,0.3,0.8,0.5,1.3,0.5c0.5,0,0.8-0.3,0.8-0.6c0-0.4-0.5-0.6-1-0.8c-0.6-0.2-1.3-0.5-1.3-1.3
	c0-0.8,0.6-1.3,1.6-1.3c0.6,0,1.1,0.2,1.5,0.5l-0.4,0.6c-0.3-0.2-0.6-0.4-1-0.4c-0.5,0-0.7,0.2-0.7,0.6c0,0.4,0.5,0.5,1,0.7
	c0.6,0.2,1.3,0.5,1.3,1.4c0,0.8-0.6,1.4-1.7,1.4C447,107.2,446.4,107,446,106.6L446,106.6z M503.4,106.6c1.8-1.6,2.7-2.7,2.7-3.7
	c0-0.7-0.4-1.1-1-1.1c-0.5,0-0.9,0.3-1.2,0.7l-0.5-0.5c0.5-0.6,1-0.9,1.8-0.9c1.1,0,1.8,0.7,1.8,1.8c0,1.2-0.9,2.4-2.2,3.6
	c0.3,0,0.7-0.1,1-0.1h1.5v0.8h-3.9L503.4,106.6L503.4,106.6z M508.1,104.1c0-2.1,0.8-3.1,1.9-3.1c1.2,0,1.9,1,1.9,3.1
	c0,2.1-0.8,3.1-1.9,3.1C508.9,107.2,508.1,106.2,508.1,104.1z M511.1,104.1c0-1.7-0.4-2.3-1-2.3c-0.6,0-1,0.6-1,2.3
	c0,1.7,0.4,2.4,1,2.4C510.6,106.5,511.1,105.8,511.1,104.1z M513.1,102.6h0.8l0.1,0.6h0c0.4-0.4,0.8-0.7,1.4-0.7
	c0.7,0,1,0.3,1.2,0.8c0.4-0.5,0.9-0.8,1.5-0.8c0.9,0,1.4,0.6,1.4,1.8v2.8h-0.9v-2.7c0-0.8-0.2-1.1-0.8-1.1c-0.3,0-0.6,0.2-1,0.6v3.2
	h-0.9v-2.7c0-0.8-0.2-1.1-0.8-1.1c-0.3,0-0.6,0.2-1,0.6v3.2H513L513.1,102.6L513.1,102.6z M520.6,101.3c0-0.3,0.2-0.6,0.6-0.6
	s0.6,0.2,0.6,0.6c0,0.3-0.3,0.6-0.6,0.6S520.6,101.6,520.6,101.3z M520.7,102.6h0.9v4.5h-0.9V102.6z M523.1,102.6h0.8l0.1,0.6h0
	c0.4-0.4,0.9-0.7,1.5-0.7c1,0,1.4,0.6,1.4,1.8v2.8h-0.9v-2.7c0-0.8-0.2-1.1-0.8-1.1c-0.4,0-0.7,0.2-1.1,0.6v3.2h-0.9V102.6z
	 M527.7,106.6l0.4-0.6c0.4,0.3,0.8,0.5,1.3,0.5c0.5,0,0.8-0.3,0.8-0.6c0-0.4-0.5-0.6-1-0.8c-0.6-0.2-1.3-0.5-1.3-1.3
	c0-0.8,0.6-1.3,1.6-1.3c0.6,0,1.1,0.2,1.5,0.5l-0.4,0.6c-0.3-0.2-0.6-0.4-1-0.4c-0.5,0-0.7,0.2-0.7,0.6c0,0.4,0.5,0.5,1,0.7
	c0.6,0.2,1.3,0.5,1.3,1.4c0,0.8-0.6,1.4-1.7,1.4C528.7,107.2,528.1,107,527.7,106.6L527.7,106.6z"/>
<path class="st3" d="M20.4,24.2c0.6,0.7,1.5,1.2,2.4,1.6c-0.2,0.2-0.5,0.6-0.7,0.8c-1.1-0.5-2.2-1.4-2.9-2.4h-3.4
	c-0.3,0.4-0.6,0.8-1,1.2H17v-0.9H18v0.9h2.3v0.8H18v1h3.8v0.9h-8.6v-0.9H17v-1h-2.2v-0.8c-0.6,0.5-1.2,0.9-1.9,1.3
	c-0.2-0.3-0.5-0.6-0.7-0.8c0.9-0.3,1.8-1,2.5-1.7h-2.3v-0.9h2.2v-3.5h-1.7v-0.9h1.7v-1h1.1v1h3.9v-1h1.1v1h1.6v0.9h-1.6v3.5h2.1v0.9
	H20.4L20.4,24.2z M15.6,19.8v0.6h3.9v-0.6H15.6z M15.6,21.8h3.9v-0.7h-3.9V21.8z M15.6,23.3h3.9v-0.7h-3.9V23.3z M27.2,24l0.3,0.9
	c-1.2,0.6-2.5,1.2-3.5,1.6l-0.4-1.1c0.4-0.2,0.9-0.4,1.5-0.6v-3.3h-1.3v-1h1.3V18h1v2.5h1.2v1h-1.2v2.9L27.2,24L27.2,24z M32.4,27.2
	c0.6,0,0.7-0.3,0.8-1.5c0.2,0.2,0.7,0.3,0.9,0.4c-0.1,1.6-0.5,2.1-1.7,2.1h-2.6c-1.4,0-1.8-0.4-1.8-1.7v-3.3l-0.8,0.3l-0.4-0.9
	l1.2-0.5v-3h1v2.6l1.3-0.5v-3.1h1v2.7l1.5-0.7l0.8,0.3l0,0.2c-0.1,1.6-0.3,3.7-0.5,5l-0.9-0.2c0.2-1,0.3-2.6,0.4-4l-1.2,0.5v4.1h-1
	v-3.7l-1.3,0.5v3.7c0,0.6,0.1,0.8,0.9,0.8L32.4,27.2L32.4,27.2z M95.9,23.5c-0.1,1-0.3,1.9-1,2.7c1.4,0.7,3.3,0.9,5.7,1
	c-0.2,0.3-0.4,0.7-0.5,1.1c-2.5-0.1-4.5-0.4-6.1-1.3c-0.8,0.5-1.8,1-3.3,1.4c-0.1-0.3-0.4-0.7-0.6-0.9c1.4-0.3,2.3-0.6,3-1.1
	c-0.7-0.6-1.2-1.3-1.6-2.2l1-0.4c0.4,0.8,0.9,1.4,1.5,1.9c0.5-0.6,0.7-1.4,0.8-2.1H91v-3.9h3.8v-1.7h1.1v1.7h3.8v3.9L95.9,23.5
	L95.9,23.5z M92.1,22.5h2.7v-1.9h-2.7V22.5z M95.9,20.6v1.9h2.7v-1.9H95.9z M103.9,21.8v6.6h-1v-6.6h-1.3v-1h1.3v-2.9h1v2.9h1.2v1
	H103.9z M111.9,25.8h-1.6v1.5c0,0.5-0.1,0.8-0.5,0.9c-0.4,0.1-0.9,0.2-1.7,0.2c0-0.3-0.2-0.7-0.3-0.9c0.6,0,1.2,0,1.3,0
	c0.2,0,0.2,0,0.2-0.2v-1.5h-2.7c0.5,0.4,1.1,0.8,1.4,1.1l-0.7,0.7c-0.4-0.4-1.1-0.9-1.7-1.3l0.4-0.4h-1.5v-0.9h4.7v-0.5h0.9v0.5h1.6
	L111.9,25.8L111.9,25.8z M107.9,19.9h-2.8v-0.8h2.8v-1.2h1v1.2h1.7c-0.4-0.2-0.8-0.4-1.2-0.6l0.5-0.6c0.5,0.2,1.3,0.6,1.7,0.8
	l-0.3,0.4h0.6v0.8h-2.9v0.5h2.5v3.3c0,0.4-0.1,0.5-0.4,0.7c-0.3,0.1-0.7,0.1-1.2,0.1c-0.1-0.2-0.2-0.5-0.3-0.7c0.4,0,0.7,0,0.8,0
	c0.1,0,0.1,0,0.1-0.1v-0.3h-1.5v0.8h-1v-0.8h-1.5v1h-0.9v-4h2.4L107.9,19.9L107.9,19.9z M106.4,21.1v0.5h1.5v-0.5H106.4z
	 M107.9,22.7v-0.5h-1.5v0.5H107.9z M108.9,21.1v0.5h1.5v-0.5H108.9z M110.4,22.7v-0.5h-1.5v0.5H110.4z M122.3,21.1V20h-4.1v0.9h4.1
	v2.9h-3.4v0.8h3.9v3.6h-0.9v-0.4h-2.9v0.4H118v-7.2h-0.7v-1.7l-0.4,0.8c-0.4-0.3-1-0.7-1.6-1c-0.2,0.3-0.5,0.6-0.8,0.9h1.9v0.7h-2
	v-0.6c-0.4,0.4-0.8,0.7-1.2,0.9c-0.1-0.2-0.3-0.7-0.4-0.9c0.9-0.5,1.8-1.4,2.3-2.3l0.8,0.3c-0.1,0.1-0.1,0.3-0.2,0.4
	c0.5,0.3,1.2,0.7,1.6,0.9v-0.2h2.6c-0.1-0.3-0.3-0.7-0.5-1l0.9-0.4c0.2,0.4,0.5,0.9,0.6,1.2l-0.4,0.2h2.6v1.9L122.3,21.1L122.3,21.1
	z M116.1,25.4c0.4,0.7,0.9,1.7,1.1,2.3l-0.8,0.4c-0.1-0.2-0.2-0.5-0.4-0.8c-2.1,0.8-2.5,1-2.7,1.2c0-0.2-0.2-0.7-0.3-0.9
	c0.2-0.1,0.4-0.2,0.4-0.7v-5.5h3.4v3.9h-2.4v1.7l1.3-0.5c-0.1-0.3-0.2-0.5-0.4-0.7L116.1,25.4L116.1,25.4z M114.5,22.1v0.8h1.5v-0.8
	H114.5z M116,24.4v-0.8h-1.5v0.8H116z M118.9,21.8V23h2.5v-1.2H118.9z M118.9,25.6V27h2.9v-1.4H118.9z M188.7,16.4v0.8h-8.5v-0.8
	h2.7v-1.5h-2.1v-3.3h2.1v-1.4h-2.5V9.5h8.1v0.8h-2.6v1.3h2.1v3.3h-2.1v1.5H188.7L188.7,16.4z M183.8,14.1v2.3h1.2v-2.3h2.1v-1.8H185
	v-2.1h-1.2v2.1h-2.1v1.7H183.8z M194.7,12.3c0.6,2.1,1.8,3.8,3.7,4.6c-0.2,0.2-0.5,0.6-0.7,0.8c-1.8-0.9-3-2.6-3.7-4.7
	c-0.2,0.9-0.6,1.7-1.1,2.5l0.3-0.2c0.6,0.5,1.4,1.3,1.8,1.8l-0.8,0.6c-0.3-0.5-1-1.2-1.6-1.7c-0.6,0.7-1.4,1.3-2.4,1.8
	c-0.1-0.2-0.4-0.6-0.7-0.7c2.4-1,3.3-2.8,3.7-4.7h-3.4v-0.9h3.6c0.1-0.9,0.1-1.7,0.1-2.5h1c0,0.7,0,1.6-0.1,2.5h3.9v0.9H194.7
	L194.7,12.3z M182.7,25c-0.1-0.3-0.3-0.8-0.6-1.2v4.8h-0.8v-3.9c-0.2,0.8-0.6,1.6-0.9,2.2c-0.1-0.2-0.3-0.6-0.4-0.8
	c0.5-0.8,1-2.2,1.2-3.3h-1v-0.8h1.1v-2h0.8v2h0.9v0.8h-0.9v0.1c0.2,0.2,0.9,1.3,1.1,1.6L182.7,25L182.7,25z M187.4,23.8
	c0.4,0.6,0.9,1.2,1.5,1.6c-0.2,0.1-0.4,0.4-0.6,0.6c-0.7-0.5-1.3-1.3-1.7-2.2h-1.4c-0.2,0.4-0.5,0.8-0.8,1.1h1v-0.8h0.9v0.8h1v0.7
	h-1v0.8h1.8v0.7h-1.8v1.5h-0.9v-1.5h-2v-0.7h2v-0.8h-1.1v-0.5c-0.3,0.3-0.7,0.7-1.1,0.9c-0.1-0.2-0.3-0.6-0.4-0.7
	c0.6-0.4,1.1-0.9,1.5-1.5h-1.1v-0.7h1.6c0.1-0.2,0.2-0.4,0.2-0.6h-1.3v-0.7h1.6c0-0.2,0.1-0.4,0.1-0.6h-2v-0.7h2.1
	c0-0.2,0.1-0.5,0.1-0.7l0.9,0.1c0,0.2-0.1,0.4-0.1,0.6h2v0.7h-2.2c0,0.2-0.1,0.4-0.2,0.6h2.1v0.7h-2.3c-0.1,0.2-0.1,0.4-0.2,0.6h3
	v0.7H187.4z M198.2,23.1c-0.5,0.7-1.1,1.4-1.6,2c0.4,0.9,1,1.5,1.9,2.1c-0.2,0.2-0.4,0.4-0.5,0.7c-0.9-0.7-1.6-1.5-2-2.5v2.1
	c0,0.5-0.1,0.7-0.4,0.9c-0.3,0.2-0.7,0.2-1.5,0.2c0-0.2-0.2-0.6-0.3-0.8c0.5,0,1,0,1.1,0c0.2,0,0.2-0.1,0.2-0.2v-1.9
	c-0.7,0.7-1.5,1.4-2.1,2l-0.5-0.8l0.1-0.1c-1,0.3-2,0.6-2.8,0.9l-0.2-0.8c0.3-0.1,0.8-0.2,1.2-0.3V24h-1v-0.8h1v-1.9h-1.1v-0.8h2.9
	v0.8h-1v1.9h0.9V24h-0.9v2.2l1.1-0.3l0.1,0.7c0.6-0.5,1.5-1.2,2.3-1.9v-2.4h-2.3v-0.8h2.3v-1.6h0.9v1.6h2.4v0.8h-2.4v0.4
	c0.1,0.6,0.2,1.2,0.4,1.7c0.4-0.5,0.9-1.1,1.1-1.6L198.2,23.1L198.2,23.1z M193.6,22.8c0.4,0.5,0.8,1.2,1,1.7l-0.7,0.4
	c-0.1-0.5-0.6-1.2-0.9-1.7L193.6,22.8L193.6,22.8z M197.4,21.4c-0.2-0.3-0.7-0.7-1.1-1l0.5-0.5c0.4,0.3,0.9,0.7,1.1,1L197.4,21.4z
	 M188.3,32.4v4.6h-0.9v-0.5h-2.5v3H184v-3h-2.5V37h-0.9v-4.6h3.3v-1.7h0.9v1.7H188.3L188.3,32.4z M184,35.5v-2.3h-2.5v2.3H184z
	 M187.4,35.5v-2.3h-2.5v2.3H187.4z M191.3,34.2c-0.1,1.2-0.4,2.8-0.8,3.8l-0.9-0.4c0.4-1,0.7-2.4,0.8-3.6L191.3,34.2L191.3,34.2z
	 M192.9,33.4v4.5c0,0.4,0.1,0.5,0.6,0.5h1.6c0.5,0,0.6-0.3,0.7-1.9c0.2,0.2,0.6,0.3,0.8,0.4c-0.1,1.8-0.4,2.3-1.5,2.3h-1.8
	c-1.1,0-1.4-0.3-1.4-1.4v-4.5L192.9,33.4L192.9,33.4z M193,31c0.9,0.6,2,1.4,2.6,2l-0.7,0.7c-0.5-0.6-1.7-1.5-2.5-2.1L193,31z
	 M197.1,33.7c0.5,1.1,1.1,2.6,1.3,3.5l-0.9,0.4c-0.2-1-0.7-2.5-1.2-3.6L197.1,33.7L197.1,33.7z M265.6,13.3h1.8v1h-1.8v0.3
	c0.4,0.4,1.6,1.7,1.8,2.1l-0.6,0.9c-0.2-0.4-0.8-1.1-1.2-1.7v4.6h-1.1v-4.6c-0.5,1.2-1.2,2.4-1.8,3.1c-0.1-0.3-0.4-0.7-0.6-1
	c0.8-0.8,1.7-2.3,2.1-3.6h-1.9v-1h2.1v-1.7c-0.6,0.1-1.2,0.2-1.8,0.2c0-0.2-0.2-0.6-0.3-0.8c1.5-0.2,3.2-0.6,4.2-1l0.7,0.8
	c-0.5,0.2-1.2,0.4-1.8,0.5V13.3L265.6,13.3z M272.2,11v8.8h-1.1V19h-2.2v0.9h-1V11H272.2z M271.1,18V12h-2.2V18H271.1z M274.2,10.4
	h0.9v4.7c0,2-0.1,3.8-0.9,5.3c-0.1-0.2-0.5-0.5-0.7-0.6c0.6-1.3,0.7-2.9,0.7-4.7V10.4L274.2,10.4z M275.8,11.2h0.8v7.7h-0.8V11.2z
	 M278.2,19.7c0.7-0.3,1.6-0.9,2-1.3L281,19c-0.6,0.6-1.5,1.2-2.2,1.5C278.6,20.3,278.4,20,278.2,19.7V20h-0.9v-9.7h0.9V19.7
	L278.2,19.7z M280.6,12.3c0.1-0.3,0.1-0.6,0.2-0.9h-2.2v-0.9h5.4v0.9H282c-0.1,0.3-0.2,0.6-0.3,0.9h2.1v5.9H279v-5.9H280.6z
	 M282.7,13.1h-2.8V14h2.8V13.1z M282.7,14.8h-2.8v1h2.8V14.8z M282.7,16.5h-2.8v1h2.8V16.5z M282.5,18.5c0.6,0.4,1.4,1,1.8,1.4
	l-0.8,0.6c-0.4-0.4-1.2-1-1.8-1.5L282.5,18.5L282.5,18.5z M265.7,30.2h1.3V31h-1.3v1.5c0,0.5-0.1,0.7-0.5,0.8
	c-0.4,0.2-0.9,0.2-1.6,0.2c0-0.3-0.2-0.6-0.3-0.9c0.5,0,1.1,0,1.2,0c0.2,0,0.2-0.1,0.2-0.2V31h-2.1c0.4,0.4,0.8,0.9,1,1.3l-0.8,0.5
	c-0.2-0.4-0.6-1-1-1.4l0.7-0.4h-1.2v0.6h-1.8v1.9h-0.9v-1.9h-1.9v-0.9h1.9v-0.8H257v-4h1.5v-0.7h-1.8v-0.9h1.8V23h0.9v1.2h1.7v0.9
	h-1.7v0.7h1.6v4h-1.6v0.8h1.8v-0.5h3.5v-0.5h1V30.2z M257.8,27.5h0.9v-0.9h-0.9V27.5z M257.8,29.1h0.9v-0.9h-0.9V29.1z M260.2,26.6
	h-0.9v0.9h0.9V26.6z M260.2,28.2h-0.9v0.9h0.9V28.2z M261.3,28.8c0.6,0,1.5,0,2.4,0v-0.7h-2v-3h2v-0.5h-2.3v-0.8h2.3V23h0.9v0.8h2.4
	v0.8h-2.4v0.5h2.1v3H266c0.4,0.4,0.9,1,1.1,1.4l-0.8,0.4c-0.1-0.1-0.2-0.3-0.3-0.4c-1.7,0-3.5,0.1-4.8,0.1L261.3,28.8L261.3,28.8z
	 M262.5,26.3h1.2v-0.6h-1.2V26.3z M263.7,27.5v-0.6h-1.2v0.6H263.7z M264.6,25.8v0.6h1.2v-0.6H264.6z M265.8,26.9h-1.2v0.6h1.2V26.9
	z M264.6,28.8l1,0c-0.1-0.2-0.3-0.3-0.4-0.4l0.4-0.2h-1L264.6,28.8L264.6,28.8z M270.9,28.5c-0.2,1-0.5,2-0.8,2.9
	c0.2,0.1,0.4,0.3,0.8,0.5c0.8,0.5,1.8,0.5,3.2,0.5c1.3,0,3.3-0.1,4.6-0.3c-0.1,0.3-0.3,0.8-0.3,1.1c-0.9,0.1-3,0.1-4.3,0.1
	c-1.5,0-2.5-0.1-3.3-0.6c-0.5-0.3-0.9-0.7-1.1-0.7c-0.3,0-0.7,0.7-1,1.4l-0.7-1c0.4-0.5,0.8-1,1.2-1.2c0.3-0.6,0.5-1.4,0.7-2.2h-1.5
	c0.3-0.7,0.6-1.6,0.9-2.5h-1.2v-1h2.5c-0.3,0.8-0.6,1.7-0.9,2.5h0.4l0.2,0L270.9,28.5L270.9,28.5z M269.3,25.2
	c-0.1-0.5-0.4-1.3-0.6-1.9l0.9-0.3c0.2,0.6,0.5,1.3,0.6,1.8L269.3,25.2z M272,25.5H271v-2.1h7.1v2.1h-1v-1.3H272v0.9h2.1v-0.5h1v0.5
	h1.9v0.8h-1.9v0.6h2.4v3.3h-2.4v0.6h3v0.8h-3v0.9h-1v-0.9h-3v-0.8h3v-0.6h-2.4v-3.3h2.4v-0.6H272V25.5L272,25.5z M272.6,27.8h1.5
	v-0.6h-1.5V27.8z M274.1,29v-0.6h-1.5V29H274.1z M275.1,27.1v0.6h1.5v-0.6H275.1z M276.6,28.4h-1.5V29h1.5V28.4z M283.9,30.4l0.1,1
	c-1.5,0.4-3.1,0.8-4.2,1.1l-0.2-1.1c0.7-0.1,1.5-0.3,2.4-0.5c0.3-1.2,0.6-3.1,0.7-4.4l1,0.2c-0.2,1.3-0.5,2.9-0.8,4L283.9,30.4
	L283.9,30.4z M279.6,25.1h4.4v1h-4.4V25.1z M280.9,26.5c0.3,1.3,0.5,2.8,0.5,3.9l-0.9,0.2c0-1.1-0.3-2.7-0.5-3.9L280.9,26.5z
	 M281.6,25.1c-0.1-0.5-0.4-1.2-0.7-1.7l0.9-0.3c0.3,0.5,0.6,1.2,0.8,1.7L281.6,25.1L281.6,25.1z M287.1,26.3v2.1h2.3v5h-1.1v-0.5
	h-3.1v0.5h-1v-5.1h1.8V23h1.1v2.2h2.8v1H287.1z M288.3,29.4h-3.1v2.6h3.1V29.4z M346.3,17.5c-0.3,0.9-0.7,1.7-1.2,2.3
	c1.3,0.5,2.5,1.1,3.3,1.7l-0.8,0.9c-0.8-0.5-2-1.2-3.4-1.8c-1.2,0.9-2.8,1.5-4.9,1.8c-0.1-0.3-0.4-0.8-0.7-1.1
	c1.9-0.2,3.3-0.6,4.4-1.3c-1-0.4-2.1-0.8-3.1-1.1c0.3-0.4,0.7-1,1-1.5h-2.3v-1h2.9c0.3-0.6,0.6-1.3,0.9-1.9l1.2,0.2
	c-0.2,0.5-0.5,1.1-0.8,1.7h2.4c0.1-0.3,0.1-0.7,0.2-1.1l1.3,0.1c-0.1,0.3-0.1,0.7-0.2,1h1.9v1H346.3L346.3,17.5z M340,15.6h-1.1
	v-2.4h4.1c-0.1-0.3-0.3-0.8-0.5-1.1l1.2-0.3c0.2,0.4,0.5,1,0.7,1.4h3.9v2.4h-1.1v-1.4H340V15.6L340,15.6z M342.4,17.5
	c-0.2,0.4-0.4,0.7-0.6,1c0.7,0.3,1.5,0.5,2.3,0.8c0.5-0.5,0.8-1.1,1.1-1.9L342.4,17.5L342.4,17.5z M353.1,15.3h1.8v1h-1.8v0.3
	c0.4,0.4,1.6,1.7,1.8,2.1l-0.6,0.9c-0.2-0.4-0.8-1.1-1.2-1.7v4.6H352v-4.6c-0.5,1.2-1.2,2.4-1.8,3.1c-0.1-0.3-0.4-0.7-0.6-1
	c0.8-0.8,1.7-2.3,2.1-3.6h-1.9v-1h2.1v-1.7c-0.6,0.1-1.2,0.2-1.8,0.2c0-0.2-0.2-0.6-0.3-0.8c1.5-0.2,3.2-0.6,4.2-1l0.7,0.8
	c-0.5,0.2-1.2,0.4-1.8,0.5V15.3L353.1,15.3z M359.6,13v8.8h-1.1V21h-2.2v0.9h-1V13H359.6z M358.5,20V14h-2.2V20H358.5z M370.9,13.3
	c-0.4,1.2-0.9,2.2-1.6,3c0.7,0.6,1.5,1.2,2.5,1.5c-0.2,0.2-0.5,0.6-0.6,0.9l-0.2-0.1v3.7h-1V22h-2.5v0.4h-1v-3.7
	c-0.2,0.1-0.3,0.2-0.5,0.2c-0.1-0.1-0.2-0.3-0.3-0.5v0h-1.3v1.8l1.4-0.3l0.1,0.9c-1.6,0.4-3.2,0.8-4.4,1.1l-0.2-1
	c0.2,0,0.4-0.1,0.5-0.1v-3.8h0.9v3.7l0.8-0.2V16h-1.6v-3.6h3.8v2.9c0.9-0.8,1.6-2.1,2-3.4l1,0.3c-0.1,0.3-0.2,0.6-0.3,0.9h1.9l0.2,0
	L370.9,13.3L370.9,13.3z M362.7,15.1h1.9v-1.8h-1.9V15.1z M365.6,18c0.9-0.4,1.7-0.9,2.4-1.6c-0.4-0.4-0.6-0.9-0.9-1.3
	c-0.3,0.4-0.6,0.8-0.9,1.1c-0.2-0.2-0.5-0.4-0.7-0.6V16h-1.2v1.5h1.3V18L365.6,18z M370.2,18.3c-0.6-0.3-1.1-0.8-1.6-1.2
	c-0.5,0.5-1,0.9-1.6,1.2H370.2z M369.9,21.1v-1.9h-2.5v1.9H369.9z M367.7,14l-0.1,0.2c0.3,0.5,0.6,1,1,1.5c0.4-0.5,0.8-1.1,1-1.7
	H367.7z M354.3,27.1h-6.7c0.2,0.4,0.5,0.9,0.7,1.2l-0.8,0.3h2.7c0.3-0.4,0.6-1.1,0.7-1.5l1.1,0.2c-0.2,0.4-0.5,0.9-0.8,1.3h2.5v5.8
	c0,0.5-0.1,0.7-0.5,0.9c-0.4,0.1-1,0.2-1.9,0.2c0-0.3-0.2-0.6-0.3-0.8c0.7,0,1.3,0,1.5,0c0.2,0,0.3-0.1,0.3-0.2v-4.9h-2.1V30
	c0,0.3,0,0.3,0.2,0.3h0.8c0.2,0,0.5,0,0.7-0.1c0,0.3,0,0.5,0.1,0.7c-0.1,0-0.4,0.1-0.7,0.1h-1.1c-0.8,0-0.9-0.4-0.9-1.1v-0.5h-1.1
	c-0.2,1.1-0.7,1.7-2.2,2.1c-0.1-0.2-0.3-0.5-0.5-0.7v4.6h-1v-6.9h2.4c-0.1-0.3-0.4-0.9-0.6-1.3l0.8-0.3h-3.1v-0.9h4.6
	c-0.1-0.3-0.2-0.7-0.4-1l1-0.3c0.2,0.4,0.3,0.9,0.5,1.2h4.3L354.3,27.1L354.3,27.1z M345.9,30.8c1.2-0.2,1.7-0.6,1.8-1.4h-1.8V30.8z
	 M348,34v0.5h-0.9v-3.2h4.3V34H348L348,34z M348,32.1v1.1h2.5v-1.1H348z M365.5,25.4v10h-1V35h-7.5v0.4h-1v-10H365.5z M364.5,34.2
	v-7.8h-7.5v7.8H364.5z M364.1,30h-1.5c0.6,0.4,1.2,0.9,1.5,1.3l-0.6,0.5c-0.4-0.5-1.3-1.3-2.1-1.8h-1.5c-0.2,0.2-0.4,0.5-0.6,0.7
	h2.9v0.3c0,0.8-0.1,1.2-0.2,1.4c-0.1,0.1-0.3,0.2-0.5,0.2c-0.2,0-0.5,0-0.9,0c0-0.2-0.1-0.4-0.2-0.6c0.3,0,0.6,0,0.7,0
	c0.1,0,0.2,0,0.2-0.1c0-0.1,0.1-0.2,0.1-0.6h-1.8v1.5c0,0.3,0.1,0.3,0.6,0.3h1.8c0.4,0,0.4-0.1,0.5-0.9c0.2,0.1,0.5,0.2,0.7,0.3
	c-0.1,1-0.3,1.2-1.1,1.2h-2c-1.1,0-1.4-0.2-1.4-1v-1.7c-0.4,0.3-0.8,0.6-1.2,0.8c-0.1-0.2-0.4-0.5-0.6-0.7c0.7-0.3,1.2-0.7,1.7-1.2
	h-1.4v-0.7h1.9c0.1-0.2,0.3-0.4,0.4-0.6h-1.8V28h0.9c-0.1-0.3-0.3-0.7-0.6-1l0.7-0.3c0.3,0.3,0.5,0.7,0.6,1l-0.7,0.3h1.2
	c0.2-0.4,0.3-0.9,0.4-1.4l0.9,0.1c-0.1,0.5-0.2,0.9-0.4,1.3h1c0.2-0.4,0.4-0.9,0.5-1.3l0.8,0.2c-0.2,0.4-0.4,0.7-0.6,1.1h1.1v0.7
	h-3.1c-0.1,0.2-0.2,0.4-0.3,0.6h3.8V30L364.1,30z"/>
<linearGradient id="SVGID_00000030449642403200788680000010485017052924037544_" gradientUnits="userSpaceOnUse" x1="294.9256" y1="62.1373" x2="568.512" y2="126.7532">
	<stop  offset="0" style="stop-color:#EDE9E5"/>
	<stop  offset="6.251296e-02" style="stop-color:#CDB69C"/>
	<stop  offset="0.1653" style="stop-color:#BB9E7F"/>
	<stop  offset="0.2847" style="stop-color:#EDE9E5"/>
	<stop  offset="0.3517" style="stop-color:#CDB69C"/>
	<stop  offset="0.4501" style="stop-color:#BB9E7F"/>
	<stop  offset="0.5515" style="stop-color:#EDE9E5"/>
	<stop  offset="0.6307" style="stop-color:#CDB69C"/>
	<stop  offset="0.7428" style="stop-color:#BB9E7F"/>
	<stop  offset="0.8407" style="stop-color:#EDE9E5"/>
	<stop  offset="0.9162" style="stop-color:#CDB69C"/>
	<stop  offset="1" style="stop-color:#BB9E7F"/>
</linearGradient>
<path style="fill:url(#SVGID_00000030449642403200788680000010485017052924037544_);" d="M410.9,111.9c9.2-9.2,9.2-24,0-33.2
	c-9.2-9.2-24-9.2-33.2,0c-9.2,9.2-9.2,24,0,33.2C386.9,121.1,401.8,121.1,410.9,111.9z M499.3,100.7c3-12.6-4.8-25.3-17.4-28.3
	c-12.6-3-25.2,4.8-28.2,17.5c-3,12.6,4.8,25.3,17.4,28.3C483.6,121.2,496.3,113.3,499.3,100.7z M575.1,111.9c9.2-9.2,9.2-24,0-33.2
	c-9.2-9.2-24-9.2-33.2,0c-9.2,9.2-9.2,24,0,33.2C551.1,121.1,566,121.1,575.1,111.9z M335.1,100.7c3-12.6-4.8-25.3-17.4-28.3
	c-12.6-3-25.2,4.8-28.2,17.5c-3,12.6,4.8,25.3,17.4,28.3C319.5,121.2,332.1,113.3,335.1,100.7z"/>
<path class="st5" d="M389.6,87.2c0,0.3-0.1,0.6-0.1,0.9h3.7v5.5c0,0.5-0.1,0.7-0.5,0.9c-0.4,0.1-0.9,0.1-1.7,0.1
	c-0.1-0.2-0.2-0.6-0.3-0.8c0.6,0,1.2,0,1.4,0c0.2,0,0.2-0.1,0.2-0.2V89h-6v5.6h-0.9v-6.5h3.3c0-0.3,0.1-0.6,0.1-0.9h-3.9v-0.9h3.9
	c0-0.3,0.1-0.7,0.1-0.9l1,0.1c0,0.3-0.1,0.6-0.1,0.8h3.9v0.9H389.6z M389.7,92.8v1.7h-0.9v-1.7h-2V92h2v-0.9H387v-0.7h0.9
	c-0.1-0.3-0.3-0.8-0.5-1.1l0.7-0.2c0.2,0.4,0.4,0.8,0.5,1.1l-0.5,0.2h1.7c0.2-0.4,0.4-1,0.5-1.3l0.8,0.2c-0.2,0.4-0.3,0.8-0.5,1.1h1
	v0.7h-1.9V92h2.1v0.8H389.7L389.7,92.8z M399.4,87.6c-0.2,0.6-0.5,1.2-0.7,1.6h1.3v0.8h-5.2v-0.8h1.4c-0.1-0.4-0.3-1.1-0.6-1.6
	l0.8-0.2c0.3,0.5,0.5,1.2,0.6,1.6l-0.7,0.2h1.5c0.2-0.5,0.5-1.3,0.7-1.9L399.4,87.6L399.4,87.6z M399.8,87.4h-4.7v-0.8h2
	c-0.1-0.3-0.2-0.7-0.4-1l0.8-0.2c0.2,0.4,0.4,0.9,0.5,1.2h1.8V87.4z M395.3,90.9h4.3v3.6h-0.9v-0.4h-2.5v0.5h-0.9V90.9L395.3,90.9z
	 M396.2,91.8v1.6h2.5v-1.6H396.2z M403.8,86.3c-0.4,0.9-0.8,2.1-1.2,3c0.9,0.9,1,1.7,1,2.4s-0.1,1.1-0.5,1.4
	c-0.2,0.1-0.4,0.2-0.6,0.2c-0.2,0-0.5,0-0.8,0c0-0.2-0.1-0.6-0.2-0.9c0.3,0,0.5,0,0.7,0c0.1,0,0.3,0,0.4-0.1
	c0.2-0.1,0.2-0.4,0.2-0.7c0-0.6-0.2-1.3-1.1-2.2c0.3-0.8,0.7-1.9,0.9-2.6h-1.4v7.9h-0.8v-8.7h2.6l0.1,0L403.8,86.3L403.8,86.3z
	 M377.9,104.6c-0.1-0.3-0.5-0.9-0.8-1.3v4.4h-0.9v-4.1c-0.4,0.9-0.8,1.8-1.3,2.3c-0.1-0.2-0.3-0.6-0.4-0.9c0.6-0.7,1.2-1.9,1.6-3
	h-1.5v-0.9h1.6v-1.3c-0.4,0.1-0.9,0.1-1.3,0.2c0-0.2-0.2-0.5-0.3-0.7c1.1-0.2,2.4-0.5,3.2-0.8l0.5,0.8c-0.4,0.2-0.8,0.3-1.3,0.4v1.5
	h1.4v0.9h-1.4v0.1c0.3,0.3,1.2,1.3,1.3,1.6L377.9,104.6z M382.6,105.1v2.6h-0.9v-2.4l-3.2,0.5l-0.1-0.9l3.3-0.6v-5.9h0.9v5.7
	l1.1-0.2l0.1,0.9L382.6,105.1L382.6,105.1z M380.4,103.7c-0.3-0.4-1.1-1.1-1.7-1.5l0.6-0.5c0.6,0.4,1.4,1,1.7,1.4L380.4,103.7
	L380.4,103.7z M380.7,101.1c-0.3-0.4-1-1-1.6-1.5l0.6-0.5c0.6,0.4,1.3,1,1.6,1.4L380.7,101.1L380.7,101.1z M393.7,105.8h-3.9v1
	c0,0.4-0.1,0.7-0.5,0.8c-0.4,0.1-0.9,0.1-1.7,0.1c-0.1-0.2-0.2-0.6-0.3-0.8c0.6,0,1.1,0,1.3,0c0.2,0,0.2,0,0.2-0.2v-0.9h-4.1V105
	h4.1v-0.4c0.4-0.2,0.9-0.4,1.4-0.7h-3.6v-0.7h4.6l0.2,0l0.5,0.5c-0.6,0.5-1.4,0.9-2.1,1.2v0.1h3.9V105.8L393.7,105.8z M385.9,103.9
	H385V102h0.8l-0.2-3c0.6-0.1,1.4-0.4,2-0.5l0.4,0.6c-0.4,0.2-1,0.3-1.5,0.4l0,0.4h1.4v0.6h-1.3l0,0.5h1.4v0.6
	c0.3-0.1,0.6-0.3,0.8-0.5c-0.2-0.1-0.4-0.3-0.7-0.4l0.5-0.4c0.2,0.1,0.5,0.2,0.7,0.4c0.2-0.2,0.3-0.3,0.5-0.5l0.6,0.2
	c-0.2,0.2-0.3,0.4-0.6,0.6c0.3,0.2,0.5,0.3,0.7,0.5L390,102c-0.2-0.2-0.4-0.3-0.7-0.5c-0.3,0.2-0.6,0.4-0.9,0.6h3.5
	c0-0.1,0-0.3,0-0.5h-1.3v-0.6h1.4l0-0.5h-1.4v-0.6h1.4l0-0.5h-1.5v-0.6h2.4c0,1-0.1,2.3-0.2,3.2h0.8v1.9h-0.9v-1.2h-6.8V103.9
	L385.9,103.9z M386.6,102h1.7c-0.1-0.1-0.3-0.4-0.5-0.5h-1.3L386.6,102L386.6,102z M389.9,100.2c-0.2-0.2-0.4-0.3-0.6-0.5
	c-0.3,0.2-0.6,0.4-0.9,0.6c-0.1-0.1-0.4-0.3-0.5-0.4c0.3-0.1,0.6-0.3,0.8-0.5c-0.2-0.1-0.4-0.2-0.6-0.3l0.5-0.4
	c0.2,0.1,0.5,0.2,0.7,0.4c0.2-0.1,0.3-0.3,0.4-0.4l0.6,0.2c-0.1,0.2-0.3,0.4-0.5,0.6c0.2,0.2,0.5,0.3,0.6,0.4L389.9,100.2z
	 M403.5,98.9v8.8h-0.9v-0.4H396v0.4h-0.9v-8.8H403.5L403.5,98.9z M402.6,106.5v-6.7H396v6.7H402.6z M399.7,105.2c0,0.2,0,0.4,0,0.6
	c-1.8,0.5-2.1,0.6-2.2,0.7c0-0.2-0.1-0.4-0.2-0.5c0.1-0.1,0.4-0.2,0.4-0.5v-0.6c-0.3,0.1-0.6,0.2-1,0.3c-0.1-0.1-0.3-0.4-0.5-0.5
	c0.7-0.2,1.5-0.4,2.1-0.7H397v-1.5h4.6v1.5h-2.3c-0.3,0.2-0.7,0.5-1.1,0.6v1L399.7,105.2L399.7,105.2z M402.1,102h-5.7v-0.6h2.4
	v-0.5H397v-0.5h1.9v-0.5h0.8v0.5h2v0.5h-2v0.5h2.5L402.1,102L402.1,102z M397.8,103.4h3v-0.6h-3V103.4z M402.2,104.3
	c-0.3,0.2-0.7,0.4-1,0.6c0.4,0.3,0.8,0.6,1,0.8l-0.6,0.4c-0.6-0.5-1.7-1.3-2.6-1.8l0.6-0.3c0.3,0.2,0.7,0.4,1,0.6
	c0.3-0.2,0.7-0.4,0.9-0.6L402.2,104.3z M412,106.4c0.6,0,1.4,0,1.7-0.1c0,0.2,0.1,0.7,0.1,0.9c-0.3,0.1-1.1,0.1-1.9,0.1h-4.2
	c-1.6,0-2.4-0.5-2.4-2.1v-5.4H405v-0.8h8.4v0.8h-7.1v5.5c0,0.9,0.3,1.2,1.4,1.2L412,106.4L412,106.4z M406.9,103.1h2.7v2.6h-2.7
	V103.1z M407.7,105.1h1.1v-1.3h-1.1V105.1z M411.8,102.6H408v-2.3h3.8V102.6z M410.9,100.9h-2v1h2V100.9z M412.9,105.8h-2.7v-2.6
	h2.7V105.8z M412.1,103.8H411v1.3h1.2V103.8z M555.5,86.4c0.9,0.9,2.1,2.1,2.6,2.9l-0.8,0.6c-0.1-0.3-0.4-0.5-0.6-0.8
	c-5.5,0.3-6.2,0.3-6.6,0.5c0-0.2-0.2-0.7-0.3-0.9c0.2,0,0.5-0.3,0.8-0.6c0.3-0.3,1.5-1.6,2.2-2.8l0.9,0.4c-0.7,1-1.6,2-2.4,2.8
	l4.7-0.2c-0.4-0.5-0.9-1-1.3-1.4L555.5,86.4L555.5,86.4z M550.6,90.4h6.5v4.3h-1v-0.5h-4.6v0.5h-0.9V90.4L550.6,90.4z M551.5,91.3v2
	h4.6v-2H551.5z M564.3,87.2c0,0.3-0.1,0.6-0.1,0.9h3.7v5.5c0,0.5-0.1,0.7-0.5,0.9c-0.4,0.1-0.9,0.1-1.7,0.1
	c-0.1-0.2-0.2-0.6-0.3-0.8c0.6,0,1.2,0,1.4,0c0.2,0,0.2-0.1,0.2-0.2V89h-6v5.6H560v-6.5h3.3c0-0.3,0.1-0.6,0.1-0.9h-3.9v-0.9h3.9
	c0-0.3,0.1-0.7,0.1-0.9l1,0.1c0,0.3-0.1,0.6-0.1,0.8h3.9v0.9L564.3,87.2L564.3,87.2z M564.3,92.8v1.7h-0.9v-1.7h-2V92h2v-0.9h-1.8
	v-0.7h0.9c-0.1-0.3-0.3-0.8-0.5-1.1l0.7-0.2c0.2,0.4,0.4,0.8,0.5,1.1l-0.5,0.2h1.7c0.2-0.4,0.4-1,0.5-1.3l0.8,0.2
	c-0.2,0.4-0.3,0.8-0.5,1.1h1v0.7h-1.9V92h2.1v0.8H564.3L564.3,92.8z M553.2,99.5v0.8h-8.8v-0.8h4c-0.1-0.3-0.2-0.6-0.3-0.8l0.9-0.2
	c0.1,0.3,0.3,0.7,0.4,1H553.2z M552.9,106.8c0,0.4-0.1,0.6-0.4,0.7c-0.3,0.1-0.8,0.1-1.4,0.1c0-0.2-0.2-0.5-0.3-0.7c0.4,0,0.9,0,1,0
	c0.1,0,0.2,0,0.2-0.2V104h-6.3v3.6h-0.9v-4.4h8.2L552.9,106.8L552.9,106.8z M551.9,100.7v2.1h-6v-2.1H551.9z M547.5,106.7v0.5h-0.9
	v-2.6h4.3v2.1L547.5,106.7L547.5,106.7z M550.9,101.4h-4.1v0.7h4.1V101.4z M547.5,105.2v0.8h2.6v-0.8H547.5z M563.4,102.5
	c-0.3,1.2-0.7,2.3-1.2,3.2c0.1,0.7,0.3,1,0.5,1c0.2,0,0.3-0.3,0.3-1.5c0.2,0.2,0.4,0.4,0.6,0.5c-0.1,1.6-0.4,1.9-1,1.9
	c-0.4,0-0.8-0.3-1-1c-0.3,0.4-0.6,0.8-1,1.1c-0.1-0.2-0.4-0.5-0.6-0.6c0.1-0.1,0.3-0.2,0.4-0.3c-1,0.2-2,0.3-2.8,0.4l-0.1-0.6
	c-1.1,0.3-2.2,0.6-3,0.7l-0.2-0.8c0.4-0.1,0.9-0.2,1.4-0.3v-2.8h-1.3v-0.8h1.3v-1h-0.8v-0.5c-0.1,0.2-0.3,0.3-0.4,0.4
	c0-0.2-0.2-0.7-0.3-0.9c0.7-0.6,1.4-1.4,1.8-2.3l0.6,0.3c-0.1,0.1-0.1,0.3-0.2,0.4c0.5,0.4,1.1,0.8,1.4,1.2l-0.2,0.5h1.3V100h-1
	v-0.7h1v-0.8h0.8v0.8h1v0.7h-1v0.7h1.3c0-0.7,0-1.5,0-2.3h0.9c0,0.8,0,1.6,0,2.3h1.7v0.7h-1.7c0,1.2,0.1,2.1,0.2,2.9
	c0.3-0.6,0.5-1.3,0.6-2L563.4,102.5z M555.1,104c0.1,0.6,0.3,1.3,0.3,1.8l-0.6,0.2c0-0.5-0.2-1.2-0.3-1.8L555.1,104L555.1,104z
	 M560.8,106.5c0.2-0.3,0.4-0.5,0.6-0.8c-0.2-1-0.3-2.4-0.4-4.1h-3.5v-0.6l-0.1,0.1c-0.3-0.4-0.9-0.9-1.4-1.3
	c-0.3,0.4-0.6,0.8-0.9,1.2h2v0.8h-0.8v1h1.1v0.8h-1.1v2.6l1.1-0.2l0,0.7c0.4,0,0.8-0.1,1.3-0.2v-0.5h-1v-0.6h1v-0.5
	c-0.4,0-0.7,0-1.1,0c0-0.2-0.1-0.4-0.2-0.6c1,0,2.1-0.2,2.7-0.3l0.5,0.5c-0.4,0.1-0.8,0.2-1.2,0.2v0.6h1v0.6h-1v0.4l1.1-0.2
	L560.8,106.5L560.8,106.5z M556.6,105.6c0.1-0.5,0.3-1.2,0.4-1.8l0.6,0.2c-0.2,0.6-0.3,1.3-0.5,1.8L556.6,105.6z M557.9,101.9h2.8
	v1.9h-2.8V101.9z M558.6,103.2h1.4v-0.7h-1.4V103.2z M562.8,100.6c-0.1-0.4-0.5-1.1-0.8-1.6l0.7-0.3c0.4,0.5,0.7,1.1,0.9,1.5
	L562.8,100.6z M568.3,104.9l0.1,0.9c-1.3,0.3-2.7,0.7-3.7,0.9l-0.2-0.9c0.6-0.1,1.3-0.3,2.1-0.5c0.3-1,0.5-2.7,0.6-3.9l0.9,0.2
	c-0.2,1.1-0.5,2.6-0.7,3.6L568.3,104.9L568.3,104.9z M564.5,100.3h3.9v0.9h-3.9V100.3z M565.6,101.5c0.2,1.1,0.4,2.5,0.5,3.5
	l-0.8,0.2c0-0.9-0.2-2.4-0.4-3.5L565.6,101.5L565.6,101.5z M566.3,100.2c-0.1-0.4-0.4-1-0.6-1.5l0.8-0.2c0.3,0.5,0.6,1.1,0.7,1.5
	L566.3,100.2z M571.1,101.3v1.9h2v4.5h-0.9v-0.4h-2.7v0.5h-0.9v-4.5h1.6v-4.7h1v2h2.4v0.9H571.1z M572.2,104.1h-2.7v2.3h2.7V104.1z
	 M472.9,85.8c0.9,0.8,1.9,1.9,2.4,2.7l-0.7,0.5c-0.1-0.2-0.3-0.5-0.5-0.8c-5.1,0.3-5.7,0.3-6.1,0.4c0-0.2-0.2-0.6-0.3-0.8
	c0.2,0,0.5-0.2,0.8-0.5c0.3-0.3,1.4-1.4,2-2.6l0.9,0.4c-0.7,0.9-1.4,1.8-2.2,2.6l4.3-0.2c-0.4-0.4-0.8-0.9-1.2-1.3L472.9,85.8
	L472.9,85.8z M468.4,89.4h6v3.9h-0.9v-0.5h-4.2v0.5h-0.9L468.4,89.4L468.4,89.4z M469.3,90.2V92h4.2v-1.8H469.3z M481,86.5
	c0,0.3-0.1,0.6-0.1,0.8h3.4v5c0,0.5-0.1,0.7-0.4,0.8c-0.3,0.1-0.9,0.1-1.6,0.1c-0.1-0.2-0.2-0.5-0.3-0.7c0.5,0,1.1,0,1.2,0
	c0.2,0,0.2,0,0.2-0.2v-4.2h-5.5v5.2H477v-6h3c0-0.3,0.1-0.5,0.1-0.8h-3.5v-0.8h3.6c0-0.3,0-0.6,0.1-0.9l0.9,0.1
	c0,0.3-0.1,0.5-0.1,0.8h3.6v0.8L481,86.5L481,86.5z M481,91.6v1.5h-0.8v-1.5h-1.9v-0.7h1.9v-0.8h-1.7v-0.7h0.9
	c-0.1-0.3-0.3-0.7-0.4-1l0.7-0.2c0.2,0.3,0.4,0.8,0.5,1.1l-0.5,0.1h1.5c0.2-0.4,0.4-0.9,0.4-1.2l0.8,0.2c-0.2,0.4-0.3,0.7-0.5,1.1
	h0.9v0.7H481v0.8h1.9v0.7L481,91.6L481,91.6z M467.3,98c0,1.2,0,2.4-0.2,3.6c0.5,2,1.7,3.4,3.9,4c-0.2,0.2-0.4,0.6-0.6,0.8
	c-1.9-0.5-3-1.7-3.7-3.3c-0.5,1.4-1.5,2.7-3.5,3.4c-0.1-0.2-0.4-0.5-0.6-0.7c3.9-1.4,3.7-4.5,3.7-7.7H467.3L467.3,98z M464,102.7
	c-0.2-0.7-0.6-1.9-0.9-2.8l0.8-0.3c0.3,0.9,0.8,2.1,0.9,2.7L464,102.7z M470.6,100.1c-0.4,0.9-0.9,1.9-1.3,2.6l-0.7-0.3
	c0.4-0.7,0.9-1.8,1.1-2.6L470.6,100.1z M480.1,105.1h-3.7v1.3h-0.9v-1.3h-3.6v-0.8h3.6v-0.6h-2.7V100h2.7v-0.6h-3.4v-0.8h3.4v-0.8
	h0.9v0.8h3.4v0.8h-3.4v0.6h2.8v3.6h-2.8v0.6h3.7V105.1z M473.6,101.5h1.9v-0.8h-1.9V101.5z M475.5,102.9v-0.8h-1.9v0.8H475.5z
	 M476.4,100.7v0.8h1.9v-0.8H476.4z M478.3,102.2h-1.9v0.8h1.9V102.2z M484.6,103.8l0.1,0.8c-1.2,0.3-2.5,0.6-3.4,0.9l-0.2-0.9
	c0.5-0.1,1.2-0.2,1.9-0.4c0.2-0.9,0.5-2.5,0.6-3.6l0.8,0.1c-0.2,1.1-0.4,2.4-0.6,3.3L484.6,103.8L484.6,103.8z M481.1,99.5h3.6v0.8
	h-3.6V99.5z M482.2,100.7c0.2,1,0.4,2.3,0.4,3.2l-0.7,0.1c0-0.9-0.2-2.2-0.4-3.2L482.2,100.7z M482.8,99.5c-0.1-0.4-0.4-1-0.6-1.4
	l0.7-0.2c0.3,0.4,0.5,1,0.6,1.3L482.8,99.5z M487.2,100.5v1.7h1.9v4.1h-0.9v-0.4h-2.5v0.4h-0.8v-4.1h1.4v-4.4h0.9v1.8h2.2v0.8
	L487.2,100.5L487.2,100.5z M488.2,103h-2.5v2.1h2.5V103z M306.2,88.8c-0.5,2.1-1.6,3.6-2.9,4.4c-0.2-0.2-0.5-0.6-0.7-0.7
	c1-0.6,1.9-1.7,2.4-3.1h-2.2v-0.9h2.6l0.2,0L306.2,88.8L306.2,88.8z M311.5,88c-0.8,0.7-1.8,1.5-2.6,2.1c0.7,1,1.7,1.9,2.9,2.3
	c-0.2,0.2-0.5,0.6-0.7,0.8c-1.6-0.7-2.7-1.9-3.5-3.5v3c0,0.5-0.1,0.8-0.5,1c-0.4,0.2-0.9,0.2-1.8,0.2c0-0.3-0.2-0.7-0.3-0.9
	c0.6,0,1.2,0,1.3,0c0.2,0,0.2-0.1,0.2-0.2v-5.2h-2.7v-0.9h3.7v0.8c0.2,0.7,0.5,1.3,0.8,1.9c0.8-0.6,1.6-1.4,2.1-2L311.5,88L311.5,88
	z M308.6,86.7c-0.8-0.5-2.4-1.1-3.7-1.4l0.5-0.8c1.2,0.3,2.8,0.8,3.7,1.3L308.6,86.7z M318.4,91.2c0.2,0.1,0.4,0.2,0.6,0.2
	c0.5-0.3,1.2-0.8,1.6-1.2l0.7,0.6c-0.5,0.3-1,0.7-1.5,1c0.8,0.3,1.5,0.7,2,0.9l-0.4,0.7c-0.7-0.4-1.9-1-2.9-1.4v0.9
	c0,0.5-0.1,0.7-0.5,0.8c-0.4,0.1-0.9,0.1-1.8,0.1c0-0.2-0.2-0.6-0.3-0.8c0.6,0,1.2,0,1.3,0c0.2,0,0.2-0.1,0.2-0.2v-0.9
	c-1,0.5-2,0.9-2.8,1.3l-0.4-0.8c0.8-0.3,2-0.8,3.2-1.2v-1h-2.2c0.5,0.3,1.1,0.7,1.4,0.9l-0.5,0.6c-0.3-0.3-1-0.7-1.4-1l0.5-0.5h-0.3
	v-0.7h2.5v-0.7h-2.9v-0.7h2.9v-0.7H315v-0.7h2.4v-0.6h-3.1v2.1c0,1.6-0.1,3.9-1,5.5c-0.2-0.2-0.6-0.4-0.8-0.5c0.8-1.4,0.9-3.5,0.9-5
	v-2.9h3.9c-0.1-0.2-0.3-0.5-0.4-0.7l0.9-0.2c0.2,0.3,0.4,0.6,0.5,0.9h3.4v0.8h-3.4v0.6h2.6v1.2h0.9v0.8h-0.9v1.3h-2.6L318.4,91.2
	L318.4,91.2z M318.4,88.1h1.7v-0.7h-1.7V88.1z M318.4,89.5h1.7v-0.7h-1.7V89.5z M304.6,102.1c-0.4,1-0.9,1.8-1.6,2.5
	c1,0.7,2.3,1.2,3.8,1.4c-0.2,0.2-0.5,0.6-0.6,0.8c-1.6-0.3-2.9-0.9-4-1.7c-1.1,0.8-2.4,1.4-4,1.7c-0.1-0.2-0.4-0.6-0.6-0.8
	c1.5-0.3,2.8-0.8,3.8-1.5c-0.6-0.7-1.1-1.5-1.6-2.4l0.8-0.3c0.3,0.8,0.8,1.5,1.4,2.1c0.6-0.6,1.1-1.3,1.4-2.1L304.6,102.1
	L304.6,102.1z M301.2,100.4c-0.7,0.9-1.8,1.8-2.6,2.3c-0.2-0.2-0.5-0.5-0.7-0.7c0.9-0.5,1.9-1.2,2.5-2L301.2,100.4z M306.5,99.9
	h-8.7v-0.9h4.1c-0.1-0.3-0.4-0.8-0.6-1.1l0.9-0.3c0.3,0.4,0.6,1,0.7,1.3l-0.3,0.1h3.9L306.5,99.9L306.5,99.9z M304,100
	c0.9,0.6,2,1.5,2.6,2.1l-0.8,0.6c-0.5-0.6-1.6-1.6-2.5-2.2L304,100L304,100z M309.5,102.3c-0.4-0.4-1.2-0.8-1.8-1.1l0.5-0.7
	c0.6,0.3,1.5,0.7,1.9,1L309.5,102.3L309.5,102.3z M310.4,103.5c-0.5,1-1.2,2.2-1.8,3.2l-0.8-0.6c0.5-0.8,1.3-2,1.9-3.2L310.4,103.5
	L310.4,103.5z M309.8,99.6c-0.3-0.4-1.1-0.9-1.7-1.2l0.5-0.7c0.6,0.3,1.4,0.8,1.8,1.2L309.8,99.6z M311.3,102.4h0.8v1
	c0,1.1-0.2,2.4-1.4,3.4c-0.1-0.2-0.5-0.5-0.7-0.6c1.1-0.8,1.3-2,1.3-2.8V102.4L311.3,102.4z M316,102.4c-0.1-0.2-0.3-0.4-0.5-0.7
	c-3.9,0.3-4.4,0.3-4.7,0.4c0-0.2-0.2-0.6-0.3-0.9c0.2-0.1,0.5-0.3,0.7-0.6c0.1-0.2,0.4-0.5,0.7-0.9h-1.5v-0.8h2.1
	c0.2-0.4,0.5-0.8,0.7-1.3l0.9,0.4c-0.2,0.3-0.4,0.6-0.5,0.9h3v0.8h-3.6c-0.4,0.5-0.7,1-1.1,1.4l3.1-0.2c-0.2-0.3-0.4-0.5-0.6-0.8
	l0.7-0.4c0.6,0.7,1.3,1.6,1.7,2.1L316,102.4L316,102.4z M313,102.4h0.8v4H313V102.4z M316.3,105.9c0.1,0,0.3,0,0.5-0.1
	c0,0.2,0,0.5,0.1,0.7c-0.1,0.1-0.3,0.1-0.5,0.1h-0.6c-0.8,0-0.9-0.3-0.9-1.1v-3.1h0.9v3.2c0,0.3,0,0.4,0.1,0.4L316.3,105.9
	L316.3,105.9z M320.3,102.3c-0.2,0.9-0.5,1.8-0.8,2.6c0.2,0.1,0.4,0.3,0.7,0.5c0.7,0.4,1.6,0.5,2.8,0.5c1.2,0,2.9-0.1,4-0.2
	c-0.1,0.3-0.3,0.7-0.3,1c-0.8,0-2.6,0.1-3.8,0.1c-1.3,0-2.2-0.1-2.9-0.5c-0.4-0.2-0.8-0.6-1-0.6c-0.2,0-0.6,0.7-0.8,1.3l-0.6-0.9
	c0.4-0.5,0.7-0.8,1-1c0.3-0.5,0.5-1.3,0.7-2H318c0.2-0.6,0.5-1.4,0.8-2.2h-1V100h2.2c-0.2,0.7-0.5,1.5-0.8,2.2h0.6l0.1,0
	L320.3,102.3L320.3,102.3z M318.8,99.6c-0.1-0.4-0.4-1.1-0.5-1.7l0.8-0.3c0.2,0.5,0.4,1.2,0.6,1.6L318.8,99.6z M322.8,100.3
	c0.1-0.2,0.1-0.4,0.2-0.7h-2.5v-0.8h1.5c-0.1-0.3-0.4-0.7-0.6-0.9l0.7-0.3c0.3,0.3,0.6,0.8,0.7,1.1l-0.4,0.2h1.7
	c0.2-0.4,0.5-0.9,0.7-1.3l0.9,0.3c-0.2,0.3-0.5,0.7-0.7,1h1.8v0.8H324c-0.1,0.2-0.2,0.5-0.3,0.7h2.3v4.8h-4.7v-4.8H322.8
	L322.8,100.3z M325,101h-2.9v0.7h2.9V101z M325,102.3h-2.9v0.7h2.9V102.3z M325,103.7h-2.9v0.7h2.9V103.7z"/>
</svg>
