<svg width="582" height="129" viewBox="0 0 582 129" fill="none" xmlns="http://www.w3.org/2000/svg">
<path d="M312.259 95.3193H578.776" stroke="url(#paint0_linear_2638_8642)" stroke-width="3" stroke-miterlimit="10"/>
<path d="M19.7427 23.0371H353.104" stroke="url(#paint1_linear_2638_8642)" stroke-width="3" stroke-miterlimit="10"/>
<path d="M39.0993 39.1658C47.9921 30.2582 47.9921 15.8161 39.0993 6.90842C30.2065 -1.9992 15.7885 -1.9992 6.89573 6.90842C-1.99704 15.8161 -1.99704 30.2582 6.89573 39.1658C15.7885 48.0734 30.2065 48.0734 39.0993 39.1658Z" fill="white" stroke="#DBB07A" stroke-miterlimit="10"/>
<path d="M122.232 39.1648C131.124 30.2572 131.124 15.8151 122.232 6.90745C113.339 -2.00018 98.9208 -2.00018 90.0281 6.90745C81.1353 15.8151 81.1353 30.2572 90.0281 39.1648C98.9208 48.0724 113.339 48.0724 122.232 39.1648Z" fill="white" stroke="#DBB07A" stroke-miterlimit="10"/>
<path d="M211.374 28.2733C214.263 16.0129 206.682 3.728 194.442 0.834275C182.202 -2.05945 169.938 5.53377 167.049 17.7942C164.16 30.0546 171.741 42.3395 183.981 45.2332C196.221 48.1269 208.485 40.5337 211.374 28.2733Z" fill="white" stroke="#DBB07A" stroke-miterlimit="10"/>
<path d="M294.476 28.2762C297.365 16.0158 289.784 3.73093 277.544 0.837205C265.304 -2.05652 253.04 5.5367 250.151 17.7971C247.262 30.0575 254.842 42.3424 267.082 45.2361C279.322 48.1299 291.587 40.5366 294.476 28.2762Z" fill="white" stroke="#DBB07A" stroke-miterlimit="10"/>
<path d="M377.542 28.2733C380.431 16.0129 372.851 3.728 360.611 0.834275C348.371 -2.05945 336.107 5.53377 333.218 17.7942C330.329 30.0546 337.909 42.3395 350.149 45.2332C362.389 48.1269 374.654 40.5337 377.542 28.2733Z" fill="white" stroke="#DBB07A" stroke-miterlimit="10"/>
<path d="M20.4113 24.1666C21.048 24.8272 21.9485 25.4103 22.8262 25.7201C22.5988 25.916 22.2896 26.2895 22.1304 26.5401C21.0344 26.0617 19.952 25.1597 19.2607 24.1666H15.8634C15.5905 24.5675 15.2358 24.9639 14.8629 25.3192H16.9503V24.4628H18.0236V25.3192H20.2794V26.162H18.0236V27.1778H21.853V28.057H13.2711V27.1778H16.9503V26.162H14.7719V25.4103C14.2034 25.9251 13.5394 26.3578 12.8936 26.6676C12.7435 26.4171 12.4388 26.039 12.2114 25.8567C13.1119 25.5151 14.0215 24.8773 14.6718 24.1666H12.3251V23.2874H14.5354V19.7615H12.8845V18.8959H14.5354V17.9028H15.5951V18.8959H19.4699V17.9165H20.5523V18.8959H22.1804V19.7615H20.5523V23.2874H22.6943V24.1666H20.4158H20.4113ZM15.5905 19.7615V20.3992H19.4653V19.7615H15.5905ZM15.5905 21.8251H19.4653V21.1737H15.5905V21.8251ZM15.5905 23.2874H19.4653V22.6041H15.5905V23.2874Z" fill="#656464"/>
<path d="M27.2379 23.9709L27.4881 24.9048C26.292 25.4742 25.014 26.071 24.0226 26.5129L23.5996 25.4515C24.0089 25.3011 24.5319 25.0961 25.1141 24.8592V21.5702H23.8134V20.568H25.1141V18.0351H26.1055V20.568H27.2561V21.5702H26.1055V24.4447L27.2334 23.9664L27.2379 23.9709ZM32.4225 27.178C33.0502 27.178 33.1639 26.891 33.2548 25.6473C33.4959 25.8068 33.9052 25.9799 34.1871 26.0346C34.0371 27.6108 33.7187 28.1255 32.4908 28.1255H29.8712C28.4704 28.1255 28.0702 27.7702 28.0702 26.4036V23.1054L27.2834 23.447L26.8832 22.4995L28.0702 21.9984V18.9735H29.0707V21.5747L30.3487 21.0372V17.8984H31.3401V20.6135L32.8682 19.9621L33.655 20.2263L33.6096 20.3994C33.5186 21.9847 33.3458 24.0757 33.0638 25.374L32.1997 25.1326C32.3725 24.1531 32.4953 22.5633 32.5544 21.1738L31.3447 21.6977V25.7931H30.3532V22.1168L29.0753 22.6635V26.4081C29.0753 27.0459 29.2026 27.1734 29.9303 27.1734H32.4271L32.4225 27.178Z" fill="#656464"/>
<path d="M52.6604 16.5914C54.425 15.0243 55.3391 13.8581 55.3391 12.8741C55.3391 12.2227 54.9889 11.7717 54.3204 11.7717C53.8474 11.7717 53.4563 12.0723 53.1379 12.4413L52.6104 11.9175C53.1243 11.3617 53.6518 11.02 54.4341 11.02C55.5347 11.02 56.2396 11.7352 56.2396 12.824C56.2396 13.9811 55.3209 15.1792 54.0475 16.3955C54.3567 16.3636 54.7297 16.3363 55.0253 16.3363H56.5215V17.1335H52.6558V16.5868L52.6604 16.5914Z" fill="white"/>
<path d="M57.6494 12.6554H58.4134L58.4862 13.2841H58.5089C58.891 12.8786 59.3412 12.5415 59.8915 12.5415C60.56 12.5415 60.933 12.8513 61.1285 13.366C61.5697 12.8923 62.0245 12.5415 62.5839 12.5415C63.5207 12.5415 63.9573 13.1793 63.9573 14.3182V17.138H63.0205V14.432C63.0205 13.6576 62.7749 13.3478 62.2701 13.3478C61.9608 13.3478 61.6333 13.5528 61.2604 13.9583V17.138H60.3236V14.432C60.3236 13.6576 60.0871 13.3478 59.5732 13.3478C59.273 13.3478 58.9364 13.5528 58.5635 13.9583V17.138H57.6357V12.6554H57.6494Z" fill="white"/>
<path d="M65.1899 11.2613C65.1899 10.9288 65.4401 10.7056 65.7857 10.7056C66.1314 10.7056 66.386 10.9242 66.386 11.2613C66.386 11.5984 66.1268 11.8171 65.7857 11.8171C65.4446 11.8171 65.1899 11.5893 65.1899 11.2613ZM65.3218 12.6553H66.2496V17.1379H65.3218V12.6553Z" fill="white"/>
<path d="M67.6546 12.6554H68.4187L68.4914 13.2749H68.5142C68.928 12.8741 69.3828 12.5415 69.9968 12.5415C70.9473 12.5415 71.3702 13.1793 71.3702 14.3182V17.138H70.4334V14.432C70.4334 13.6576 70.206 13.3478 69.6739 13.3478C69.26 13.3478 68.9735 13.5619 68.5733 13.9583V17.138H67.6455V12.6554H67.6546Z" fill="white"/>
<path d="M72.2619 16.6231L72.703 16.0217C73.1032 16.3406 73.4943 16.5365 73.9719 16.5365C74.5085 16.5365 74.7632 16.2769 74.7632 15.9352C74.7632 15.5252 74.2584 15.3475 73.7718 15.1608C73.176 14.933 72.4938 14.6141 72.4938 13.8579C72.4938 13.1017 73.0941 12.5459 74.081 12.5459C74.6814 12.5459 75.1725 12.7919 75.5364 13.0743L75.0952 13.6529C74.786 13.4251 74.4676 13.2611 74.0947 13.2611C73.608 13.2611 73.3761 13.5071 73.3761 13.8169C73.3761 14.1995 73.84 14.3453 74.3266 14.5275C74.9542 14.7644 75.6455 15.0423 75.6455 15.8896C75.6455 16.6413 75.0497 17.2517 73.9446 17.2517C73.3261 17.2517 72.6894 16.9921 72.2573 16.6322L72.2619 16.6231Z" fill="white"/>
<path d="M134.491 16.5914C136.256 15.0243 137.17 13.8581 137.17 12.8741C137.17 12.2227 136.819 11.7717 136.151 11.7717C135.678 11.7717 135.287 12.0723 134.968 12.4413L134.441 11.9175C134.955 11.3617 135.482 11.02 136.265 11.02C137.365 11.02 138.07 11.7352 138.07 12.824C138.07 13.9811 137.151 15.1792 135.883 16.3955C136.192 16.3636 136.565 16.3363 136.86 16.3363H138.357V17.1335H134.491V16.5868V16.5914Z" fill="white"/>
<path d="M139.48 12.6554H140.244L140.317 13.2841H140.339C140.722 12.8786 141.172 12.5415 141.722 12.5415C142.391 12.5415 142.764 12.8513 142.959 13.366C143.4 12.8923 143.855 12.5415 144.414 12.5415C145.351 12.5415 145.788 13.1793 145.788 14.3182V17.138H144.851V14.432C144.851 13.6576 144.605 13.3478 144.101 13.3478C143.791 13.3478 143.464 13.5528 143.091 13.9583V17.138H142.154V14.432C142.154 13.6576 141.918 13.3478 141.404 13.3478C141.104 13.3478 140.767 13.5528 140.394 13.9583V17.138H139.466V12.6554H139.48Z" fill="white"/>
<path d="M147.016 11.2613C147.016 10.9288 147.266 10.7056 147.612 10.7056C147.958 10.7056 148.212 10.9242 148.212 11.2613C148.212 11.5984 147.953 11.8171 147.612 11.8171C147.271 11.8171 147.016 11.5893 147.016 11.2613ZM147.148 12.6553H148.076V17.1379H147.148V12.6553Z" fill="white"/>
<path d="M149.485 12.6554H150.249L150.322 13.2749H150.345C150.759 12.8741 151.214 12.5415 151.828 12.5415C152.778 12.5415 153.206 13.1793 153.206 14.3182V17.138H152.269V14.432C152.269 13.6576 152.041 13.3478 151.514 13.3478C151.1 13.3478 150.813 13.5619 150.413 13.9583V17.138H149.485V12.6554Z" fill="white"/>
<path d="M154.092 16.6231L154.534 16.0217C154.934 16.3406 155.325 16.5365 155.802 16.5365C156.339 16.5365 156.594 16.2769 156.594 15.9352C156.594 15.5252 156.089 15.3475 155.602 15.1608C155.007 14.933 154.324 14.6141 154.324 13.8579C154.324 13.1017 154.925 12.5459 155.912 12.5459C156.512 12.5459 157.003 12.7919 157.367 13.0743L156.926 13.6529C156.617 13.4251 156.298 13.2611 155.925 13.2611C155.439 13.2611 155.207 13.5071 155.207 13.8169C155.207 14.1995 155.671 14.3453 156.157 14.5275C156.785 14.7644 157.476 15.0423 157.476 15.8896C157.476 16.6413 156.88 17.2517 155.775 17.2517C155.157 17.2517 154.52 16.9921 154.088 16.6322L154.092 16.6231Z" fill="white"/>
<path d="M218.782 16.5914C220.547 15.0243 221.461 13.8581 221.461 12.8741C221.461 12.2227 221.11 11.7717 220.442 11.7717C219.969 11.7717 219.578 12.0723 219.259 12.4413L218.732 11.9175C219.246 11.3617 219.773 11.02 220.556 11.02C221.656 11.02 222.361 11.7352 222.361 12.824C222.361 13.9811 221.442 15.1792 220.174 16.3955C220.483 16.3636 220.856 16.3363 221.151 16.3363H222.648V17.1335H218.782V16.5868V16.5914Z" fill="white"/>
<path d="M223.775 12.6554H224.539L224.612 13.2841H224.635C225.017 12.8786 225.467 12.5415 226.017 12.5415C226.686 12.5415 227.059 12.8513 227.255 13.366C227.696 12.8923 228.15 12.5415 228.71 12.5415C229.647 12.5415 230.083 13.1793 230.083 14.3182V17.138H229.146V14.432C229.146 13.6576 228.901 13.3478 228.396 13.3478C228.087 13.3478 227.759 13.5528 227.386 13.9583V17.138H226.45V14.432C226.45 13.6576 226.213 13.3478 225.699 13.3478C225.399 13.3478 225.062 13.5528 224.689 13.9583V17.138H223.762V12.6554H223.775Z" fill="white"/>
<path d="M231.312 11.2613C231.312 10.9288 231.562 10.7056 231.907 10.7056C232.253 10.7056 232.508 10.9242 232.508 11.2613C232.508 11.5984 232.248 11.8171 231.907 11.8171C231.566 11.8171 231.312 11.5893 231.312 11.2613ZM231.443 12.6553H232.371V17.1379H231.443V12.6553Z" fill="white"/>
<path d="M233.776 12.6554H234.54L234.613 13.2749H234.636C235.05 12.8741 235.509 12.5415 236.119 12.5415C237.069 12.5415 237.497 13.1793 237.497 14.3182V17.138H236.56V14.432C236.56 13.6576 236.332 13.3478 235.805 13.3478C235.391 13.3478 235.104 13.5619 234.704 13.9583V17.138H233.776V12.6554Z" fill="white"/>
<path d="M238.383 16.6231L238.825 16.0217C239.225 16.3406 239.616 16.5365 240.093 16.5365C240.63 16.5365 240.885 16.2769 240.885 15.9352C240.885 15.5252 240.38 15.3475 239.893 15.1608C239.298 14.933 238.615 14.6141 238.615 13.8579C238.615 13.1017 239.216 12.5459 240.203 12.5459C240.803 12.5459 241.294 12.7919 241.658 13.0743L241.217 13.6529C240.908 13.4251 240.589 13.2611 240.216 13.2611C239.73 13.2611 239.498 13.5071 239.498 13.8169C239.498 14.1995 239.962 14.3453 240.448 14.5275C241.076 14.7644 241.767 15.0423 241.767 15.8896C241.767 16.6413 241.171 17.2517 240.066 17.2517C239.448 17.2517 238.811 16.9921 238.379 16.6322L238.383 16.6231Z" fill="white"/>
<path d="M301.954 16.4455L302.4 15.8351C302.741 16.1767 303.173 16.4774 303.801 16.4774C304.478 16.4774 304.988 15.9945 304.988 15.1973C304.988 14.4001 304.533 13.94 303.851 13.94C303.469 13.94 303.241 14.0539 302.891 14.2816L302.436 13.981L302.614 11.1338H305.652V11.9264H303.428L303.291 13.4662C303.541 13.3341 303.787 13.2521 304.114 13.2521C305.115 13.2521 305.938 13.8489 305.938 15.1609C305.938 16.4728 304.969 17.2382 303.919 17.2382C302.973 17.2382 302.382 16.8555 301.959 16.441L301.954 16.4455Z" fill="white"/>
<path d="M307.08 12.6554H307.844L307.916 13.2841H307.939C308.321 12.8786 308.771 12.5415 309.322 12.5415C309.99 12.5415 310.363 12.8513 310.559 13.366C311 12.8923 311.455 12.5415 312.014 12.5415C312.951 12.5415 313.388 13.1793 313.388 14.3182V17.138H312.451V14.432C312.451 13.6576 312.205 13.3478 311.7 13.3478C311.391 13.3478 311.064 13.5528 310.691 13.9583V17.138H309.754V14.432C309.754 13.6576 309.517 13.3478 309.003 13.3478C308.703 13.3478 308.367 13.5528 307.994 13.9583V17.138H307.066V12.6554H307.08Z" fill="white"/>
<path d="M314.615 11.2613C314.615 10.9288 314.865 10.7056 315.211 10.7056C315.557 10.7056 315.811 10.9242 315.811 11.2613C315.811 11.5984 315.552 11.8171 315.211 11.8171C314.87 11.8171 314.615 11.5893 314.615 11.2613ZM314.747 12.6553H315.675V17.1379H314.747V12.6553Z" fill="white"/>
<path d="M317.085 12.6554H317.849L317.922 13.2749H317.944C318.358 12.8741 318.818 12.5415 319.427 12.5415C320.378 12.5415 320.805 13.1793 320.805 14.3182V17.138H319.868V14.432C319.868 13.6576 319.641 13.3478 319.113 13.3478C318.699 13.3478 318.413 13.5619 318.013 13.9583V17.138H317.085V12.6554Z" fill="white"/>
<path d="M321.692 16.6231L322.133 16.0217C322.533 16.3406 322.925 16.5365 323.402 16.5365C323.939 16.5365 324.193 16.2769 324.193 15.9352C324.193 15.5252 323.689 15.3475 323.202 15.1608C322.606 14.933 321.924 14.6141 321.924 13.8579C321.924 13.1017 322.524 12.5459 323.511 12.5459C324.112 12.5459 324.603 12.7919 324.967 13.0743L324.525 13.6529C324.216 13.4251 323.898 13.2611 323.525 13.2611C323.038 13.2611 322.806 13.5071 322.806 13.8169C322.806 14.1995 323.27 14.3453 323.757 14.5275C324.384 14.7644 325.076 15.0423 325.076 15.8896C325.076 16.6413 324.48 17.2517 323.375 17.2517C322.756 17.2517 322.12 16.9921 321.688 16.6322L321.692 16.6231Z" fill="white"/>
<path d="M339.146 106.357H340.456V102.184H339.383V101.587C339.947 101.483 340.343 101.341 340.684 101.132H341.393V106.357H342.567V107.131H339.146V106.357Z" fill="white"/>
<path d="M343.472 104.107C343.472 102.029 344.227 101.018 345.409 101.018C346.592 101.018 347.347 102.038 347.347 104.107C347.347 106.175 346.582 107.236 345.409 107.236C344.236 107.236 343.472 106.193 343.472 104.107ZM346.451 104.107C346.451 102.385 346.019 101.761 345.409 101.761C344.8 101.761 344.368 102.389 344.368 104.107C344.368 105.824 344.8 106.494 345.409 106.494C346.019 106.494 346.451 105.842 346.451 104.107Z" fill="white"/>
<path d="M348.433 102.649H349.197L349.27 103.278H349.293C349.675 102.872 350.125 102.535 350.675 102.535C351.344 102.535 351.717 102.845 351.912 103.36C352.353 102.886 352.808 102.535 353.368 102.535C354.304 102.535 354.741 103.173 354.741 104.312V107.132H353.804V104.426C353.804 103.651 353.559 103.341 353.054 103.341C352.744 103.341 352.417 103.546 352.044 103.952V107.132H351.107V104.426C351.107 103.651 350.871 103.341 350.357 103.341C350.057 103.341 349.72 103.546 349.347 103.952V107.132H348.419V102.649H348.433Z" fill="white"/>
<path d="M355.974 101.255C355.974 100.922 356.224 100.699 356.569 100.699C356.915 100.699 357.17 100.918 357.17 101.255C357.17 101.592 356.911 101.811 356.569 101.811C356.228 101.811 355.974 101.583 355.974 101.255ZM356.106 102.649H357.033V107.132H356.106V102.649Z" fill="white"/>
<path d="M358.439 102.649H359.203L359.275 103.269H359.298C359.712 102.868 360.171 102.535 360.781 102.535C361.731 102.535 362.159 103.173 362.159 104.312V107.132H361.222V104.426C361.222 103.651 360.995 103.341 360.462 103.341C360.049 103.341 359.762 103.556 359.362 103.952V107.132H358.434V102.649H358.439Z" fill="white"/>
<path d="M363.046 106.617L363.487 106.015C363.887 106.334 364.278 106.53 364.756 106.53C365.292 106.53 365.547 106.271 365.547 105.929C365.547 105.523 365.042 105.341 364.555 105.154C363.96 104.927 363.278 104.608 363.278 103.852C363.278 103.095 363.878 102.54 364.865 102.54C365.465 102.54 365.956 102.786 366.32 103.068L365.879 103.647C365.57 103.419 365.251 103.255 364.878 103.255C364.392 103.255 364.16 103.501 364.16 103.811C364.16 104.193 364.624 104.339 365.11 104.521C365.738 104.758 366.429 105.036 366.429 105.883C366.429 106.635 365.833 107.245 364.728 107.245C364.11 107.245 363.473 106.986 363.041 106.626L363.046 106.617Z" fill="white"/>
<path d="M422.091 106.357H423.401V102.184H422.328V101.587C422.892 101.483 423.287 101.341 423.629 101.132H424.338V106.357H425.511V107.131H422.091V106.357Z" fill="white"/>
<path d="M426.389 106.585C428.154 105.018 429.068 103.852 429.068 102.868C429.068 102.216 428.718 101.765 428.049 101.765C427.576 101.765 427.185 102.066 426.871 102.435L426.344 101.911C426.858 101.355 427.385 101.014 428.167 101.014C429.268 101.014 429.973 101.729 429.973 102.818C429.973 103.975 429.054 105.173 427.785 106.389C428.095 106.357 428.468 106.33 428.763 106.33H430.259V107.127H426.394V106.58L426.389 106.585Z" fill="white"/>
<path d="M431.378 102.649H432.142L432.215 103.278H432.237C432.619 102.872 433.07 102.535 433.62 102.535C434.289 102.535 434.661 102.845 434.857 103.36C435.298 102.886 435.753 102.535 436.312 102.535C437.249 102.535 437.686 103.173 437.686 104.312V107.132H436.749V104.426C436.749 103.651 436.503 103.341 435.999 103.341C435.689 103.341 435.362 103.546 434.989 103.952V107.132H434.052V104.426C434.052 103.651 433.816 103.341 433.302 103.341C433.002 103.341 432.665 103.546 432.292 103.952V107.132H431.364V102.649H431.378Z" fill="white"/>
<path d="M438.914 101.255C438.914 100.922 439.164 100.699 439.51 100.699C439.855 100.699 440.115 100.918 440.115 101.255C440.115 101.592 439.855 101.811 439.51 101.811C439.164 101.811 438.914 101.583 438.914 101.255ZM439.046 102.649H439.974V107.132H439.046V102.649Z" fill="white"/>
<path d="M441.379 102.649H442.143L442.216 103.269H442.238C442.652 102.868 443.111 102.535 443.721 102.535C444.671 102.535 445.094 103.173 445.094 104.312V107.132H444.157V104.426C444.157 103.651 443.93 103.341 443.398 103.341C442.984 103.341 442.698 103.556 442.297 103.952V107.132H441.37V102.649H441.379Z" fill="white"/>
<path d="M445.986 106.617L446.427 106.015C446.827 106.334 447.218 106.53 447.696 106.53C448.233 106.53 448.487 106.271 448.487 105.929C448.487 105.523 447.982 105.341 447.496 105.154C446.9 104.927 446.218 104.608 446.218 103.852C446.218 103.095 446.818 102.54 447.805 102.54C448.405 102.54 448.897 102.786 449.26 103.068L448.819 103.647C448.51 103.419 448.192 103.255 447.819 103.255C447.332 103.255 447.1 103.501 447.1 103.811C447.1 104.193 447.564 104.339 448.051 104.521C448.678 104.758 449.369 105.036 449.369 105.883C449.369 106.635 448.774 107.245 447.669 107.245C447.05 107.245 446.413 106.986 445.986 106.626V106.617Z" fill="white"/>
<path d="M503.431 106.585C505.195 105.018 506.109 103.852 506.109 102.868C506.109 102.216 505.759 101.765 505.091 101.765C504.618 101.765 504.227 102.066 503.913 102.435L503.385 101.911C503.899 101.355 504.427 101.014 505.209 101.014C506.31 101.014 507.014 101.729 507.014 102.818C507.014 103.975 506.096 105.173 504.827 106.389C505.136 106.357 505.509 106.33 505.805 106.33H507.301V107.127H503.435V106.58L503.431 106.585Z" fill="white"/>
<path d="M508.092 104.107C508.092 102.029 508.847 101.018 510.03 101.018C511.212 101.018 511.967 102.038 511.967 104.107C511.967 106.175 511.203 107.236 510.03 107.236C508.856 107.236 508.092 106.193 508.092 104.107ZM511.071 104.107C511.071 102.385 510.639 101.761 510.03 101.761C509.42 101.761 508.988 102.389 508.988 104.107C508.988 105.824 509.42 106.494 510.03 106.494C510.639 106.494 511.071 105.842 511.071 104.107Z" fill="white"/>
<path d="M513.059 102.649H513.823L513.895 103.278H513.918C514.3 102.872 514.75 102.535 515.301 102.535C515.969 102.535 516.342 102.845 516.538 103.36C516.979 102.886 517.434 102.535 517.993 102.535C518.93 102.535 519.367 103.173 519.367 104.312V107.132H518.43V104.426C518.43 103.651 518.184 103.341 517.679 103.341C517.37 103.341 517.043 103.546 516.67 103.952V107.132H515.733V104.426C515.733 103.651 515.496 103.341 514.982 103.341C514.682 103.341 514.346 103.546 513.973 103.952V107.132H513.045V102.649H513.059Z" fill="white"/>
<path d="M520.594 101.255C520.594 100.922 520.844 100.699 521.19 100.699C521.536 100.699 521.795 100.918 521.795 101.255C521.795 101.592 521.536 101.811 521.19 101.811C520.844 101.811 520.594 101.583 520.594 101.255ZM520.726 102.649H521.654V107.132H520.726V102.649Z" fill="white"/>
<path d="M523.064 102.649H523.828L523.901 103.269H523.924C524.337 102.868 524.797 102.535 525.406 102.535C526.357 102.535 526.784 103.173 526.784 104.312V107.132H525.847V104.426C525.847 103.651 525.62 103.341 525.092 103.341C524.678 103.341 524.392 103.556 523.992 103.952V107.132H523.064V102.649Z" fill="white"/>
<path d="M527.671 106.617L528.112 106.015C528.512 106.334 528.903 106.53 529.381 106.53C529.918 106.53 530.172 106.271 530.172 105.929C530.172 105.523 529.667 105.341 529.181 105.154C528.585 104.927 527.903 104.608 527.903 103.852C527.903 103.095 528.503 102.54 529.49 102.54C530.09 102.54 530.582 102.786 530.945 103.068L530.504 103.647C530.195 103.419 529.877 103.255 529.504 103.255C529.017 103.255 528.785 103.501 528.785 103.811C528.785 104.193 529.249 104.339 529.736 104.521C530.363 104.758 531.055 105.036 531.055 105.883C531.055 106.635 530.459 107.245 529.354 107.245C528.735 107.245 528.098 106.986 527.671 106.626V106.617Z" fill="white"/>
<path d="M95.8744 23.5155C95.8062 24.495 95.5651 25.4334 94.9193 26.2306C96.3201 26.9139 98.1893 27.1189 100.641 27.1873C100.445 27.4515 100.231 27.9162 100.149 28.2852C97.6071 28.1485 95.6152 27.8524 94.0871 26.9959C93.3366 27.5426 92.2633 28.0118 90.758 28.3672C90.6443 28.1166 90.3578 27.661 90.1304 27.4196C91.4993 27.1463 92.468 26.7909 93.1593 26.3445C92.4998 25.7842 91.9632 25.0644 91.5175 24.1396L92.4862 23.7843C92.8864 24.5724 93.3958 25.1783 93.9779 25.6566C94.5237 25.028 94.7192 24.2991 94.7738 23.511H91.0263V19.5841H94.7965V17.9077H95.8926V19.5841H99.7219V23.511H95.8698L95.8744 23.5155ZM92.0678 22.4997H94.8011V20.6046H92.0678V22.4997ZM95.8971 20.6046V22.4997H98.6304V20.6046H95.8971Z" fill="#656464"/>
<path d="M103.86 21.7617V28.3352H102.823V21.7617H101.5V20.7913H102.823V17.8713H103.86V20.7913H105.034V21.7617H103.86ZM111.937 25.7887H110.364V27.2829C110.364 27.7749 110.273 28.0346 109.895 28.1849C109.541 28.3216 108.995 28.3352 108.176 28.3352C108.131 28.071 108.017 27.6838 107.89 27.4333C108.472 27.456 109.04 27.456 109.2 27.4469C109.372 27.4333 109.418 27.4014 109.418 27.2738V25.7887H106.716C107.217 26.144 107.799 26.5632 108.131 26.841L107.471 27.5608C107.094 27.1964 106.344 26.6269 105.784 26.2124L106.207 25.7887H104.693V24.9323H109.422V24.4312H110.368V24.9323H111.942V25.7887H111.937ZM107.917 19.9121H105.07V19.0785H107.917V17.8667H108.895V19.0785H110.546C110.159 18.8735 109.714 18.632 109.35 18.4498L109.841 17.8667C110.378 18.1081 111.119 18.4589 111.505 18.6867L111.21 19.0739H111.815V19.9076H108.899V20.3859H111.374V23.6522C111.374 24.0531 111.292 24.1988 111.019 24.3127C110.732 24.4175 110.346 24.4175 109.786 24.4175C109.727 24.2125 109.591 23.9483 109.491 23.7661C109.855 23.7752 110.173 23.7752 110.287 23.7661C110.4 23.7661 110.437 23.7296 110.437 23.6294V23.3424H108.899V24.1852H107.922V23.3424H106.394V24.3811H105.493V20.3859H107.922V19.9076L107.917 19.9121ZM106.389 21.1011V21.625H107.917V21.1011H106.389ZM107.917 22.732V22.2536H106.389V22.732H107.917ZM108.895 21.1011V21.625H110.432V21.1011H108.895ZM110.432 22.732V22.2536H108.895V22.732H110.432Z" fill="#656464"/>
<path d="M122.289 21.0963V20.0121H118.187V20.9141H122.243V23.857H118.891V24.6998H122.753V28.2713H121.82V27.8704H118.891V28.3168H117.968V21.0918H117.309V19.3698L116.863 20.1579C116.508 19.8846 115.835 19.4746 115.258 19.1329C115.017 19.429 114.766 19.7251 114.507 19.9894H116.363V20.7182H114.412V20.0805C114.048 20.4358 113.639 20.7638 113.247 21.028C113.193 20.823 112.961 20.3082 112.815 20.0805C113.693 19.5429 114.616 18.6774 115.13 17.7617L115.963 18.0578C115.903 18.1854 115.835 18.3084 115.758 18.4223C116.304 18.732 116.954 19.0965 117.318 19.3334V19.1603H119.915C119.787 18.8505 119.596 18.4405 119.437 18.158L120.36 17.7708C120.588 18.158 120.838 18.6592 120.974 18.9826L120.611 19.1648H123.198V21.0918H122.289V21.0963ZM116.149 25.3785C116.558 26.0846 117.05 27.0686 117.277 27.6289L116.513 28.007C116.422 27.7656 116.285 27.4832 116.149 27.1643C114.016 28.007 113.675 28.1665 113.461 28.3305C113.416 28.089 113.257 27.6699 113.12 27.4422C113.302 27.3602 113.543 27.2007 113.543 26.7816V21.3013H116.895V25.2145H114.457V26.9137L115.803 26.4354C115.667 26.1712 115.553 25.9206 115.426 25.6929L116.154 25.3831L116.149 25.3785ZM114.453 22.0803V22.8457H115.958V22.0803H114.453ZM115.958 24.4219V23.611H114.453V24.4219H115.958ZM118.896 21.7751V23.0188H121.347V21.7751H118.896ZM118.896 25.5881V26.9821H121.825V25.5881H118.896Z" fill="#656464"/>
<path d="M188.702 16.4499V17.2608H180.207V16.4499H182.949V14.9147H180.866V11.6347H182.949V10.2817H180.429V9.47998H188.516V10.2817H185.891V11.6256H188.033V14.9056H185.891V16.4499H188.707H188.702ZM183.79 14.1448V16.4499H185.027V14.1448H187.128V12.3909H185.027V10.2863H183.799V12.4001H181.726V14.1448H183.79Z" fill="#656464"/>
<path d="M194.742 12.2768C195.387 14.3541 196.579 16.0716 198.416 16.8597C198.207 17.051 197.902 17.42 197.761 17.6797C195.942 16.7822 194.773 15.124 194.059 12.9738C193.841 13.8303 193.509 14.6685 192.977 15.4338L193.245 15.2516C193.864 15.7755 194.646 16.518 195.024 17.0237L194.232 17.6068C193.918 17.1376 193.232 16.4178 192.645 15.8711C192.054 16.5863 191.276 17.1968 190.23 17.6706C190.098 17.4337 189.821 17.1193 189.575 16.928C191.999 15.8985 192.904 14.0899 193.259 12.2768H189.825V11.3703H193.391C193.477 10.4956 193.468 9.65287 193.477 8.91943H194.437C194.428 9.66198 194.419 10.5002 194.332 11.3703H198.184V12.2768H194.751H194.742Z" fill="#656464"/>
<path d="M182.717 24.9501C182.603 24.654 182.367 24.1666 182.135 23.7384V28.5626H181.352V24.6176C181.107 25.4649 180.793 26.2667 180.456 26.7997C180.37 26.5537 180.179 26.1983 180.038 25.9888C180.543 25.228 181.016 23.834 181.239 22.645H180.279V21.8251H181.352V19.8252H182.135V21.8251H183.067V22.645H182.135V22.7043C182.326 22.9412 183.031 24.0481 183.19 24.3032L182.712 24.9501H182.717ZM187.428 23.7703C187.801 24.408 188.37 25.0094 188.943 25.3419C188.761 25.474 188.506 25.7519 188.383 25.9432C187.706 25.4649 187.069 24.6176 186.683 23.7703H185.245C185.036 24.1711 184.782 24.5538 184.495 24.8955H185.464V24.0755H186.319V24.8955H187.278V25.6016H186.319V26.3623H188.079V27.1049H186.319V28.5626H185.464V27.1049H183.485V26.3623H185.464V25.6016H184.322V25.0868C184.008 25.4285 183.658 25.7519 183.24 26.0207C183.153 25.8202 182.944 25.4695 182.803 25.2963C183.422 24.8955 183.908 24.3716 184.295 23.7703H183.153V23.055H184.713C184.8 22.8637 184.886 22.6633 184.959 22.4628H183.635V21.7841H185.195C185.241 21.6018 185.3 21.4196 185.345 21.2328H183.358V20.5358H185.5C185.546 20.299 185.587 20.0484 185.623 19.8115L186.478 19.9436C186.442 20.1441 186.401 20.3354 186.364 20.5358H188.411V21.2328H186.205C186.16 21.4242 186.11 21.6064 186.05 21.7841H188.142V22.4628H185.832C185.755 22.6633 185.682 22.8546 185.605 23.055H188.629V23.7703H187.428Z" fill="#656464"/>
<path d="M198.216 23.0918C197.711 23.7569 197.102 24.5405 196.606 25.0552C197.025 25.9299 197.607 26.5904 198.462 27.1918C198.262 27.3558 198.016 27.6291 197.921 27.8797C196.988 27.1736 196.351 26.4037 195.906 25.4015V27.5243C195.906 28.0027 195.792 28.2486 195.506 28.3899C195.21 28.5402 194.764 28.5721 194.032 28.5721C193.996 28.3443 193.841 27.9525 193.727 27.7248C194.241 27.743 194.696 27.7339 194.842 27.7339C194.992 27.7248 195.051 27.6747 195.051 27.5243V25.5791C194.319 26.3126 193.568 27.0278 192.941 27.6018L192.399 26.8319L192.531 26.7271C191.553 27.0506 190.526 27.374 189.725 27.6245L189.534 26.7772C189.866 26.6907 190.285 26.5677 190.735 26.4356V23.9574H189.716V23.1374H190.735V21.2423H189.652V20.4223H192.59V21.2423H191.553V23.1374H192.449V23.9574H191.553V26.185L192.636 25.8525L192.75 26.5586C193.377 26.0529 194.241 25.3195 195.051 24.6225V22.2308H192.795V21.4108H195.051V19.8301H195.906V21.4108H198.312V22.2308H195.906V22.6226C196.01 23.2695 196.142 23.8253 196.306 24.3173C196.715 23.8116 197.161 23.192 197.448 22.6955L198.216 23.0964V23.0918ZM193.582 22.7502C193.982 23.274 194.41 23.9801 194.573 24.4448L193.841 24.7956C193.7 24.3172 193.291 23.5929 192.9 23.0508L193.586 22.7456L193.582 22.7502ZM197.388 21.3972C197.161 21.092 196.683 20.6546 196.283 20.3585L196.779 19.903C197.188 20.1809 197.684 20.5908 197.921 20.8733L197.388 21.3972Z" fill="#656464"/>
<path d="M188.284 32.3711V36.9266H187.36V36.4118H184.886V39.4412H183.963V36.4118H181.498V36.9722H180.611V32.3711H183.959V30.7129H184.882V32.3711H188.279H188.284ZM183.963 35.5463V33.2412H181.498V35.5463H183.963ZM187.36 35.5463V33.2412H184.886V35.5463H187.36Z" fill="#656464"/>
<path d="M191.308 34.1706C191.167 35.3414 190.889 36.954 190.526 37.9927L189.639 37.6191C190.012 36.6397 190.316 35.191 190.439 34.0066L191.303 34.1706H191.308ZM192.945 33.3688V37.9152C192.945 38.3617 193.05 38.4391 193.554 38.4391H195.164C195.706 38.4391 195.792 38.1248 195.86 36.5531C196.069 36.7171 196.461 36.8766 196.688 36.9358C196.583 38.7261 196.329 39.2728 195.223 39.2728H193.463C192.349 39.2728 192.035 38.9676 192.035 37.9198V33.3734H192.95L192.945 33.3688ZM193.022 30.959C193.896 31.5421 195.06 32.3985 195.619 32.9999L194.964 33.6786C194.441 33.0864 193.309 32.1616 192.422 31.5512L193.022 30.959ZM197.143 33.7333C197.693 34.8676 198.198 36.3071 198.398 37.2775L197.511 37.651C197.338 36.6807 196.833 35.1819 196.32 34.0567L197.138 33.7333H197.143Z" fill="#656464"/>
<path d="M265.63 13.3246H267.463V14.304H265.63V14.5682C266.076 15.0147 267.204 16.313 267.463 16.6547L266.826 17.5202C266.599 17.1102 266.076 16.3768 265.63 15.7754V20.4221H264.57V15.8347C264.057 17.0464 263.406 18.2081 262.738 18.9278C262.624 18.6317 262.374 18.2217 262.178 17.9484C263.01 17.1148 263.829 15.6524 264.307 14.3086H262.451V13.3291H264.57V11.6299C263.979 11.7347 263.374 11.803 262.815 11.8714C262.769 11.6436 262.633 11.2883 262.519 11.0514C264.011 10.8464 265.735 10.4911 266.749 10.0947L267.454 10.9147C266.917 11.1197 266.29 11.2928 265.63 11.4158V13.3337V13.3246ZM272.161 11.0286V19.8389H271.078V18.9962H268.855V19.9209H267.831V11.0286H272.161ZM271.078 17.9803V12.0445H268.855V17.9803H271.078Z" fill="#656464"/>
<path d="M274.244 10.3769H275.108V15.101C275.108 17.1327 275.026 18.9367 274.253 20.4082C274.117 20.2259 273.775 19.9162 273.571 19.7795C274.185 18.4766 274.244 16.8822 274.244 15.0873V10.3724V10.3769ZM275.804 11.1878H276.554V18.8456H275.804V11.1878ZM278.173 19.7476C278.892 19.4287 279.724 18.8684 280.147 18.4128L281.002 18.9504C280.434 19.5198 279.533 20.1257 278.755 20.4583C278.628 20.2852 278.378 20.0255 278.173 19.8296V20.0483H277.309V10.3359H278.173V19.7522V19.7476ZM280.634 12.3039C280.702 12.0078 280.77 11.6753 280.829 11.37H278.642V10.4589H284.022V11.37H281.957C281.853 11.6889 281.752 12.0078 281.648 12.3039H283.708V18.2488H278.969V12.3039H280.634ZM282.708 13.1011H279.929V14.0487H282.708V13.1011ZM282.708 14.7912H279.929V15.7479H282.708V14.7912ZM282.708 16.4904H279.929V17.4607H282.708V16.4904ZM282.48 18.4538C283.094 18.8547 283.917 19.4469 284.327 19.8569L283.508 20.44C283.13 20.03 282.335 19.4014 281.698 18.9686L282.485 18.4538H282.48Z" fill="#656464"/>
<path d="M265.739 30.1709H267.072V30.9817H265.739V32.5215C265.739 32.9998 265.634 33.2413 265.284 33.3643C264.92 33.5146 264.397 33.5146 263.643 33.5146C263.597 33.2504 263.461 32.8996 263.333 32.649C263.856 32.6718 264.393 32.6718 264.552 32.6718C264.711 32.6627 264.757 32.6126 264.757 32.4896V30.9817H262.637C263.06 31.3598 263.479 31.8701 263.674 32.2482L262.901 32.7493C262.706 32.3484 262.296 31.7698 261.878 31.369L262.551 30.9817H261.309V31.5967H259.463V33.4918H258.517V31.5967H256.593V30.6492H258.517V29.852H256.989V25.8477H258.517V25.1051H256.752V24.1804H258.517V23.0142H259.463V24.1804H261.159V25.1051H259.463V25.8477H261.046V29.852H259.463V30.6492H261.273V30.1709H264.761V29.6333H265.739V30.1709ZM257.753 27.4649H258.631V26.6085H257.753V27.4649ZM257.753 29.073H258.631V28.2074H257.753V29.073ZM260.25 26.6085H259.349V27.4649H260.25V26.6085ZM260.25 28.2074H259.349V29.073H260.25V28.2074ZM261.273 28.8224C261.923 28.8088 262.756 28.7996 263.656 28.786V28.1345H261.619V25.1461H263.656V24.6086H261.387V23.8114H263.656V23.0142H264.566V23.8114H266.926V24.6086H264.566V25.1461H266.685V28.1345H266.048C266.48 28.5673 266.912 29.1049 267.144 29.5057L266.394 29.9157C266.326 29.7791 266.235 29.6288 266.121 29.4693C264.379 29.5149 262.601 29.5604 261.346 29.5969L261.278 28.8224H261.273ZM262.469 26.3351H263.656V25.7657H262.469V26.3351ZM263.656 27.5241V26.9319H262.469V27.5241H263.656ZM264.566 25.7657V26.3351H265.798V25.7657H264.566ZM265.798 26.9319H264.566V27.5241H265.798V26.9319ZM264.566 28.7678L265.557 28.7541C265.43 28.5947 265.293 28.458 265.171 28.3213L265.548 28.1391H264.57V28.7678H264.566Z" fill="#656464"/>
<path d="M270.928 28.5034C270.755 29.4737 270.473 30.5215 270.109 31.3688C270.305 31.4827 270.532 31.6649 270.873 31.8699C271.669 32.3482 272.706 32.4166 274.039 32.4166C275.371 32.4166 277.345 32.3118 278.609 32.1524C278.482 32.4393 278.323 32.9632 278.3 33.2502C277.413 33.3094 275.326 33.3778 273.993 33.3778C272.502 33.3778 271.519 33.2502 270.701 32.7719C270.246 32.5077 269.823 32.1113 269.582 32.1113C269.318 32.1113 268.931 32.8539 268.627 33.5509L267.908 32.5715C268.318 32.0248 268.74 31.5556 269.141 31.3506C269.427 30.7356 269.664 29.911 269.814 29.1685H268.345C268.64 28.4943 268.995 27.5695 269.277 26.6812H268.09V25.7245H270.61C270.337 26.5354 270.018 27.4693 269.723 28.2574H270.146L270.305 28.2255L270.933 28.5125L270.928 28.5034ZM269.277 25.2371C269.15 24.736 268.868 23.9251 268.686 23.3192L269.618 23.0459C269.823 23.6381 270.096 24.3943 270.246 24.8818L269.277 25.2371ZM271.956 25.5241H271.046V23.3876H278.155V25.5241H277.14V24.1984H272.024V25.1095H274.121V24.5857H275.144V25.1095H277.09V25.8749H275.144V26.4443H277.573V29.7106H275.144V30.2709H278.186V31.0681H275.144V31.9337H274.121V31.0681H271.124V30.2709H274.121V29.7106H271.692V26.4443H274.121V25.8749H271.956V25.5195V25.5241ZM272.606 27.7517H274.121V27.1367H272.606V27.7517ZM274.121 29.0318V28.4032H272.606V29.0318H274.121ZM275.144 27.1367V27.7517H276.627V27.1367H275.144ZM276.627 28.4032H275.144V29.0318H276.627V28.4032Z" fill="#656464"/>
<path d="M283.872 30.3758L283.976 31.3553C282.507 31.7197 280.925 32.1206 279.738 32.4076L279.51 31.3553C280.161 31.2186 281.002 31.0455 281.902 30.8314C282.189 29.6652 282.471 27.761 282.598 26.4126L283.59 26.5857C283.371 27.8885 283.076 29.4966 282.794 30.6264L283.876 30.3758H283.872ZM279.619 25.0778H284.054V26.0572H279.619V25.0778ZM280.861 26.5264C281.125 27.7838 281.339 29.3554 281.407 30.4396L280.529 30.6127C280.484 29.5376 280.265 27.9295 280.029 26.6859L280.861 26.5264ZM281.634 25.055C281.507 24.5995 281.188 23.8797 280.906 23.3422L281.816 23.0779C282.134 23.5927 282.453 24.276 282.589 24.7316L281.634 25.0505V25.055ZM287.092 26.2531V28.376H289.406V33.4189H288.333V32.9406H285.245V33.4645H284.222V28.376H286.009V23.0005H287.092V25.2372H289.848V26.2531H287.092ZM288.333 29.3691H285.245V31.9475H288.333V29.3691Z" fill="#656464"/>
<path d="M346.342 17.4792C346.046 18.4131 345.659 19.1784 345.132 19.8208C346.419 20.3674 347.615 20.9642 348.447 21.4881L347.651 22.422C346.856 21.8753 345.646 21.233 344.3 20.6408C343.135 21.5746 341.544 22.1122 339.402 22.4447C339.297 22.1714 338.969 21.6566 338.742 21.3833C340.62 21.1646 342.048 20.7911 343.094 20.1169C342.057 19.6932 340.998 19.3197 340.043 19.0099C340.352 18.5771 340.702 18.0532 341.034 17.4792H338.688V16.477H341.603C341.944 15.8393 342.239 15.1741 342.458 14.5819L343.667 14.8097C343.463 15.3473 343.199 15.9167 342.917 16.477H345.346C345.414 16.1445 345.473 15.7709 345.518 15.3928L346.805 15.4976C346.746 15.8393 346.692 16.1718 346.624 16.477H348.57V17.4792H346.346H346.342ZM340.015 15.6069H338.942V13.2107H343.081C342.931 12.8691 342.749 12.4591 342.603 12.1356L343.768 11.8486C343.986 12.2723 344.259 12.8053 344.427 13.2062H348.288V15.6024H347.16V14.1993H340.015V15.6024V15.6069ZM342.362 17.4792C342.144 17.8573 341.939 18.2081 341.735 18.527C342.476 18.7776 343.249 19.0509 344.004 19.347C344.482 18.8459 344.823 18.2263 345.077 17.4747H342.367L342.362 17.4792Z" fill="#656464"/>
<path d="M353.091 15.2971H354.923V16.2765H353.091V16.5407C353.536 16.9872 354.664 18.2855 354.923 18.6317L354.287 19.4972C354.059 19.0873 353.536 18.3538 353.091 17.7525V22.3991H352.031V17.8117C351.517 19.0235 350.867 20.1851 350.198 20.9049C350.084 20.6088 349.834 20.1988 349.639 19.9255C350.471 19.0918 351.29 17.6295 351.772 16.2856H349.916V15.3062H352.035V13.607C351.444 13.7118 350.839 13.7801 350.28 13.8484C350.234 13.6206 350.098 13.2653 349.984 13.0284C351.476 12.8234 353.2 12.4681 354.209 12.0718L354.914 12.8918C354.378 13.0968 353.75 13.2699 353.091 13.3929V15.3107V15.2971ZM359.621 13.0011V21.8114H358.539V20.9687H356.315V21.8934H355.292V13.0011H359.621ZM358.539 19.9528V14.017H356.315V19.9528H358.539Z" fill="#656464"/>
<path d="M370.937 13.3108C370.582 14.4998 370.014 15.5157 369.309 16.3585C370.005 16.9871 370.823 17.511 371.792 17.8527C371.587 18.0485 371.278 18.4676 371.142 18.7319L370.914 18.6408V22.3489H369.9V21.9845H367.358V22.3854H366.389V18.6544C366.216 18.7364 366.057 18.8139 365.889 18.8822C365.82 18.7455 365.707 18.5724 365.593 18.413V18.4267H364.261V20.2306L365.675 19.8981L365.78 20.832C364.22 21.2328 362.564 21.6292 361.336 21.9162L361.154 20.8912C361.327 20.8547 361.509 20.8228 361.7 20.7864V16.9416H362.564V20.6042L363.315 20.4311V15.9803H361.732V12.3952H365.493V15.3152C366.348 14.4816 367.067 13.2516 367.462 11.9351L368.486 12.1856C368.381 12.4817 368.267 12.7778 368.144 13.0648H370.082L370.264 13.0193L370.937 13.3063V13.3108ZM362.655 15.0692H364.511V13.3108H362.655V15.0692ZM365.593 17.9574C366.448 17.593 367.28 17.0463 367.999 16.3357C367.635 15.9029 367.349 15.4565 367.098 15.0237C366.826 15.4246 366.516 15.789 366.221 16.0988C366.061 15.9257 365.73 15.6523 365.493 15.4701V15.9849H364.261V17.4928H365.593V17.962V17.9574ZM370.218 18.2763C369.627 17.9347 369.1 17.511 368.645 17.0646C368.167 17.5338 367.631 17.9438 367.071 18.2763H370.218ZM369.9 21.0734V19.1783H367.358V21.0734H369.9ZM367.721 13.9759L367.617 14.1809C367.881 14.6729 368.199 15.1604 368.608 15.6432C369.018 15.1421 369.359 14.5818 369.622 13.9759H367.721Z" fill="#656464"/>
<path d="M354.31 27.055H347.656C347.883 27.4422 348.17 27.957 348.316 28.2668L347.483 28.5856H350.207C350.471 28.1392 350.776 27.5105 350.949 27.0778L352.008 27.3055C351.758 27.7383 351.485 28.1939 351.213 28.5856H353.732V34.3848C353.732 34.9087 353.605 35.1273 353.241 35.264C352.877 35.4007 352.286 35.4143 351.34 35.4143C351.294 35.1638 351.158 34.8312 351.022 34.6035C351.681 34.6262 352.331 34.6262 352.491 34.6126C352.686 34.6126 352.754 34.5533 352.754 34.3848V29.4421H350.68V29.9887C350.68 30.2393 350.703 30.3304 350.908 30.3304H351.717C351.89 30.3304 352.209 30.3213 352.368 30.2712C352.39 30.5217 352.404 30.7723 352.436 31.0137C352.286 31.0593 351.99 31.0729 351.74 31.0729H350.68C349.894 31.0729 349.748 30.7176 349.748 29.9751V29.4375H348.666C348.493 30.5582 347.984 31.1823 346.419 31.5285C346.342 31.3007 346.133 30.9818 345.942 30.8087V35.4417H344.941V28.5811H347.356C347.219 28.2394 346.933 27.6928 346.728 27.3147L347.492 27.0504H344.345V26.1484H348.939C348.834 25.8296 348.698 25.4651 348.584 25.169L349.598 24.9185C349.757 25.3057 349.939 25.784 350.053 26.153H354.314V27.055H354.31ZM345.932 30.7996C347.174 30.5718 347.583 30.1846 347.72 29.4421H345.932V30.7996ZM348.038 34.0431V34.5442H347.151V31.3827H351.404V34.0431H348.043H348.038ZM348.038 32.148V33.2778H350.535V32.148H348.038Z" fill="#656464"/>
<path d="M365.488 25.4238V35.455H364.465V35.0314H356.943V35.455H355.951V25.4238H365.488ZM364.465 34.1567V26.3258H356.943V34.1567H364.465ZM364.078 29.9657H362.55C363.141 30.3984 363.724 30.8768 364.078 31.2549L363.473 31.756C363.028 31.2412 362.15 30.4987 361.363 29.9657H359.849C359.676 30.1934 359.485 30.4212 359.28 30.6262H362.209V30.9132C362.164 31.7332 362.118 32.1341 361.959 32.2935C361.823 32.4302 361.672 32.4985 361.422 32.5122C361.24 32.5213 360.877 32.535 360.535 32.4985C360.522 32.3163 360.454 32.0749 360.354 31.9154C360.686 31.9519 360.981 31.9519 361.095 31.9519C361.199 31.9519 361.277 31.9382 361.336 31.8699C361.381 31.8015 361.418 31.6284 361.44 31.264H359.64V32.7582C359.64 33.0452 359.744 33.0999 360.267 33.0999H362.091C362.468 33.0999 362.537 32.986 362.582 32.2434C362.778 32.3801 363.082 32.4849 363.31 32.5304C363.219 33.5235 362.969 33.7741 362.182 33.7741H360.19C359.117 33.7741 358.812 33.5782 358.812 32.7719V31.059C358.457 31.3688 358.048 31.6193 357.602 31.8562C357.488 31.674 357.216 31.3095 357.043 31.1364C357.716 30.8403 358.284 30.4394 358.753 29.9611H357.361V29.2778H359.298C359.435 29.0728 359.549 28.8769 359.662 28.6491H357.839V27.9977H358.725C358.648 27.7107 358.416 27.3007 358.166 27.0046L358.825 26.7404C359.076 27.0365 359.339 27.4374 359.417 27.7335L358.757 27.9977H359.944C360.117 27.5512 360.24 27.0729 360.344 26.549L361.209 26.6538C361.131 27.1458 361.004 27.5877 360.854 28.0022H361.845C362.05 27.6241 362.277 27.1139 362.391 26.7358L363.201 26.9545C363.005 27.3189 362.823 27.697 362.632 28.0068H363.705V28.6582H360.604C360.513 28.8769 360.408 29.0819 360.294 29.2869H364.078V29.9702V29.9657Z" fill="#656464"/>
<path d="M410.94 111.927C420.097 102.755 420.097 87.8829 410.94 78.7102C401.782 69.5375 386.935 69.5375 377.778 78.7102C368.62 87.8829 368.62 102.755 377.778 111.927C386.935 121.1 401.782 121.1 410.94 111.927Z" fill="url(#paint2_linear_2638_8642)"/>
<path d="M499.254 100.71C502.229 88.0844 494.423 75.434 481.819 72.4542C469.215 69.4743 456.585 77.2935 453.611 89.9187C450.636 102.544 458.442 115.194 471.046 118.174C483.65 121.154 496.28 113.335 499.254 100.71Z" fill="url(#paint3_linear_2638_8642)"/>
<path d="M575.132 111.929C584.289 102.756 584.289 87.8844 575.132 78.7117C565.974 69.539 551.127 69.5389 541.97 78.7116C532.812 87.8843 532.812 102.756 541.97 111.929C551.127 121.102 565.974 121.102 575.132 111.929Z" fill="url(#paint4_linear_2638_8642)"/>
<path d="M350.275 44.7759L312.241 95.3192" stroke="url(#paint5_linear_2638_8642)" stroke-width="3" stroke-miterlimit="10"/>
<path d="M389.637 87.2149C389.597 87.5384 389.546 87.8482 389.496 88.1306H393.185V93.62C393.185 94.1256 393.053 94.3534 392.703 94.4855C392.353 94.6268 391.766 94.6267 390.975 94.6267C390.915 94.3944 390.774 94.0436 390.643 93.8204C391.216 93.8523 391.83 93.8386 392.002 93.8295C392.184 93.8295 392.234 93.7794 392.234 93.62V88.9961H386.263V94.6267H385.326V88.1306H388.596C388.628 87.8573 388.678 87.5384 388.705 87.2149H384.853V86.3403H388.796C388.828 86.0077 388.846 85.6843 388.855 85.4019L389.878 85.5021C389.847 85.7754 389.81 86.0578 389.769 86.3403H393.64V87.2149H389.637ZM389.656 92.7544V94.4081H388.769V92.7544H386.75V91.9982H388.769V91.1327H386.959V90.3992H387.882C387.8 90.0667 387.6 89.6157 387.409 89.2831L388.141 89.0918C388.364 89.4426 388.573 89.93 388.664 90.2398L388.132 90.3992H389.783C389.956 89.9984 390.165 89.4426 390.265 89.0599L391.111 89.2513C390.938 89.643 390.77 90.0485 390.597 90.3992H391.552V91.1327H389.651V91.9982H391.743V92.7544H389.651H389.656Z" fill="#3E3A39"/>
<path d="M399.411 87.5977C399.188 88.1535 398.938 88.7548 398.715 89.2377H400.043V90.0851H394.794V89.2377H396.213C396.122 88.7958 395.881 88.1307 395.64 87.6251L396.454 87.4155C396.718 87.9212 396.968 88.5817 397.068 89.0282L396.336 89.2377H397.823C398.073 88.7047 398.346 87.9394 398.487 87.3836L399.411 87.5932V87.5977ZM399.811 87.3882H395.063V86.55H397.055C396.955 86.2357 396.814 85.8758 396.682 85.5842L397.528 85.3428C397.719 85.7254 397.919 86.1992 398.033 86.55H399.811V87.3882ZM395.317 90.9142H399.602V94.5312H398.678V94.1394H396.204V94.6041H395.317V90.9187V90.9142ZM396.204 91.7615V93.324H398.678V91.7615H396.204ZM403.845 86.2812C403.495 87.2196 403.049 88.3676 402.649 89.2742C403.504 90.1898 403.695 90.9779 403.695 91.643C403.695 92.3081 403.554 92.7728 403.213 93.0142C403.04 93.1372 402.821 93.2056 402.59 93.2375C402.348 93.2694 402.048 93.2694 401.757 93.2557C401.748 93.0142 401.666 92.6225 401.525 92.3674C401.789 92.3992 402.03 92.3993 402.198 92.3993C402.348 92.3901 402.489 92.3583 402.59 92.299C402.781 92.176 402.84 91.8981 402.84 91.5519C402.84 90.9597 402.599 90.2445 401.762 89.3881C402.094 88.5817 402.467 87.534 402.708 86.7595H401.321V94.6178H400.497V85.9168H403.053L403.194 85.8758L403.849 86.2903L403.845 86.2812Z" fill="#3E3A39"/>
<path d="M377.899 104.608C377.758 104.307 377.417 103.742 377.117 103.278V107.678H376.212V103.601C375.839 104.517 375.389 105.373 374.925 105.947C374.834 105.697 374.616 105.314 374.475 105.082C375.066 104.398 375.712 103.2 376.085 102.13H374.606V101.255H376.216V99.9065C375.784 99.9885 375.352 100.048 374.948 100.107C374.916 99.9065 374.788 99.5739 374.684 99.3826C375.812 99.2004 377.099 98.9088 377.881 98.5672L378.413 99.3325C378.031 99.4828 377.59 99.6058 377.117 99.7152V101.255H378.527V102.13H377.117V102.271C377.417 102.585 378.272 103.61 378.463 103.874L377.899 104.608ZM382.615 105.1V107.678H381.692V105.259L378.527 105.792L378.386 104.895L381.692 104.339V98.4351H382.615V104.184L383.711 104.002L383.852 104.877L382.615 105.086V105.1ZM380.423 103.742C380.091 103.309 379.359 102.663 378.745 102.243L379.336 101.701C379.941 102.102 380.705 102.708 381.055 103.132L380.423 103.747V103.742ZM380.673 101.095C380.373 100.672 379.686 100.057 379.113 99.6332L379.727 99.1002C380.3 99.4919 380.996 100.075 381.328 100.499L380.673 101.091V101.095Z" fill="#3E3A39"/>
<path d="M393.717 105.788H389.806V106.754C389.806 107.195 389.706 107.419 389.355 107.537C388.992 107.669 388.482 107.669 387.695 107.669C387.645 107.428 387.514 107.095 387.395 106.872C387.95 106.89 388.532 106.89 388.682 106.89C388.842 106.89 388.892 106.849 388.892 106.717V105.779H384.767V105.013H388.892V104.649C389.333 104.467 389.828 104.225 390.251 103.966H386.649V103.282H391.206L391.407 103.232L391.939 103.715C391.356 104.166 390.57 104.603 389.806 104.936V105.018H393.717V105.783V105.788ZM385.854 103.943H384.967V102.02H385.731L385.549 99.0411C386.131 98.9409 386.995 98.6904 387.518 98.5264L387.918 99.0821C387.486 99.2416 386.94 99.3828 386.44 99.4739L386.472 99.8748H387.85V100.481H386.504L386.536 100.945H387.896V101.538C388.178 101.405 388.478 101.246 388.741 101.064C388.532 100.932 388.3 100.804 388.087 100.699L388.541 100.308C388.764 100.417 389.014 100.549 389.246 100.69C389.428 100.531 389.578 100.367 389.697 100.198L390.329 100.399C390.17 100.608 389.988 100.813 389.774 101.014C390.047 101.196 390.265 101.364 390.438 101.528L389.965 101.961C389.806 101.802 389.574 101.62 389.292 101.428C389.001 101.661 388.678 101.852 388.387 102.02H391.898C391.907 101.87 391.93 101.72 391.948 101.556H390.611V100.941H391.989L392.03 100.476H390.661V99.8702H392.071L392.089 99.4192H390.611V98.8043H393.003C392.953 99.8201 392.862 101.109 392.78 102.016H393.544V103.938H392.621V102.717H385.854V103.938V103.943ZM386.608 102.02H388.328C388.228 101.888 387.996 101.656 387.855 101.556H386.586L386.604 102.02H386.608ZM389.938 100.166C389.787 100.016 389.565 99.852 389.315 99.6926C389.033 99.9021 388.732 100.107 388.45 100.248C388.341 100.148 388.1 99.9158 387.936 99.8156C388.218 99.6926 388.51 99.5331 388.76 99.3509C388.56 99.2279 388.337 99.1095 388.127 99.0184L388.582 98.6266C388.791 98.7268 389.037 98.8498 389.255 98.9774C389.428 98.8361 389.569 98.6767 389.678 98.5355L390.31 98.7086C390.16 98.909 389.988 99.1095 389.787 99.3008C390.029 99.4511 390.242 99.6015 390.401 99.7427L389.938 100.166Z" fill="#3E3A39"/>
<path d="M403.495 98.8682V107.692H402.58V107.3H395.986V107.692H395.113V98.8682H403.499H403.495ZM402.58 106.453V99.7155H395.986V106.453H402.58ZM399.656 105.155C399.638 105.314 399.638 105.588 399.665 105.729C397.873 106.212 397.605 106.285 397.441 106.394C397.4 106.234 397.3 105.97 397.209 105.861C397.359 105.802 397.573 105.688 397.573 105.319V104.745C397.25 104.868 396.932 104.977 396.618 105.068C396.536 104.927 396.295 104.654 396.163 104.526C396.877 104.367 397.682 104.102 398.283 103.802H396.996V102.339H401.621V103.802H399.338C399.038 104.043 398.665 104.253 398.26 104.449V105.487L399.647 105.164L399.656 105.155ZM402.148 101.993H396.418V101.437H398.842V100.914H396.95V100.371H398.842V99.8795H399.688V100.371H401.68V100.914H399.688V101.437H402.153V101.993H402.148ZM397.782 103.351H400.798V102.786H397.782V103.351ZM402.185 104.326C401.862 104.558 401.512 104.768 401.18 104.941C401.58 105.223 401.953 105.496 402.226 105.724L401.612 106.098C401.057 105.606 399.943 104.809 399.047 104.285L399.62 103.952C399.943 104.143 400.316 104.367 400.666 104.594C401.007 104.394 401.371 104.153 401.603 103.961L402.185 104.326Z" fill="#3E3A39"/>
<path d="M412.013 106.403C412.595 106.403 413.368 106.362 413.755 106.28C413.786 106.521 413.846 106.954 413.896 107.168C413.586 107.25 412.768 107.269 411.986 107.269H407.774C406.137 107.269 405.373 106.754 405.373 105.132V99.6927H404.973V98.8682H413.409V99.6927H406.292V105.2C406.292 106.057 406.633 106.398 407.688 106.398H412.022L412.013 106.403ZM406.924 103.128H409.589V105.756H406.924V103.128ZM407.688 105.091H408.784V103.793H407.688V105.091ZM411.79 102.554H407.988V100.267H411.79V102.554ZM410.867 100.9H408.857V101.907H410.867V100.9ZM412.927 105.756H410.18V103.128H412.927V105.756ZM412.113 103.793H410.958V105.091H412.113V103.793Z" fill="#3E3A39"/>
<path d="M555.5 86.4362C556.446 87.2927 557.623 88.5318 558.142 89.3563L557.36 89.9394C557.21 89.6889 557.009 89.4064 556.778 89.1149C551.247 89.4064 550.601 89.4292 550.151 89.5887C550.11 89.3973 549.951 88.9327 549.851 88.673C550.092 88.632 550.342 88.4224 550.674 88.099C551.024 87.7664 552.161 86.5274 552.898 85.311L553.835 85.7119C553.112 86.7278 552.257 87.7072 551.434 88.4908L556.109 88.2994C555.677 87.8166 555.213 87.3337 554.781 86.9282L555.504 86.4362H555.5ZM550.601 90.354H557.119V94.6225H556.123V94.1077H551.547V94.6407H550.601V90.3494V90.354ZM551.547 91.2514V93.2057H556.123V91.2514H551.547Z" fill="#3E3A39"/>
<path d="M564.309 87.2105C564.268 87.534 564.218 87.8438 564.168 88.1262H567.856V93.6156C567.856 94.1212 567.724 94.349 567.374 94.4811C567.024 94.6223 566.437 94.6224 565.646 94.6224C565.587 94.39 565.446 94.0392 565.314 93.816C565.887 93.8479 566.501 93.8343 566.674 93.8251C566.856 93.8251 566.906 93.775 566.906 93.6156V88.9918H560.934V94.6224H559.997V88.1262H563.267C563.299 87.8529 563.349 87.534 563.376 87.2105H559.524V86.3359H563.467C563.499 86.0033 563.517 85.6799 563.527 85.3975L564.554 85.4977C564.523 85.771 564.482 86.0534 564.445 86.3313H568.315V87.206H564.313L564.309 87.2105ZM564.327 92.75V94.4037H563.44V92.75H561.421V91.9938H563.44V91.1283H561.63V90.3948H562.553C562.471 90.0623 562.271 89.6113 562.08 89.2787L562.813 89.0874C563.035 89.4382 563.245 89.9256 563.336 90.2354L562.803 90.3948H564.454C564.627 89.994 564.836 89.4382 564.936 89.0555L565.782 89.2469C565.61 89.6386 565.441 90.0441 565.268 90.3948H566.223V91.1283H564.322V91.9938H566.414V92.75H564.322H564.327Z" fill="#3E3A39"/>
<path d="M553.194 99.4511V100.248H544.425V99.4511H548.418C548.327 99.1778 548.227 98.8771 548.136 98.6265L549.082 98.4033C549.214 98.7268 549.373 99.1276 549.473 99.4511H553.194ZM552.921 106.763C552.921 107.205 552.812 107.378 552.498 107.496C552.184 107.605 551.725 107.619 551.052 107.605C551.002 107.396 550.87 107.113 550.761 106.908C551.184 106.927 551.684 106.927 551.797 106.918C551.929 106.918 551.979 106.877 551.979 106.758V104.048H545.667V107.683H544.753V103.273H552.93V106.758L552.921 106.763ZM551.898 100.731V102.795H545.862V100.731H551.898ZM547.504 106.672V107.136H546.64V104.549H550.902V106.676H547.504V106.672ZM550.915 101.383H546.79V102.13H550.915V101.383ZM547.504 105.218V105.993H550.078V105.218H547.504Z" fill="#3E3A39"/>
<path d="M563.386 102.545C563.113 103.752 562.722 104.85 562.199 105.779C562.34 106.453 562.521 106.786 562.712 106.786C562.863 106.786 562.963 106.444 563.003 105.305C563.176 105.497 563.436 105.679 563.636 105.756C563.526 107.369 563.272 107.66 562.631 107.66C562.199 107.66 561.867 107.328 561.625 106.672C561.334 107.073 560.993 107.437 560.639 107.752C560.507 107.592 560.207 107.296 560.025 107.159C560.157 107.05 560.284 106.95 560.407 106.827C559.402 106.986 558.396 107.118 557.592 107.241L557.501 106.626C556.445 106.9 555.34 107.182 554.503 107.373L554.331 106.535C554.704 106.467 555.186 106.362 555.709 106.262V103.51H554.44V102.713H555.709V101.756H554.945V101.251C554.804 101.401 554.663 101.542 554.522 101.665C554.481 101.465 554.312 100.941 554.199 100.718C554.872 100.162 555.568 99.2965 555.977 98.3809L556.623 98.6952C556.564 98.8273 556.5 98.9685 556.432 99.087C556.964 99.4696 557.487 99.9252 557.801 100.285L557.578 100.759H558.856V100.012H557.851V99.2783H558.856V98.4401H559.693V99.2783H560.657V100.012H559.693V100.759H560.971C560.952 100.035 560.939 99.2601 560.93 98.4401H561.816C561.807 99.2646 561.807 100.044 561.807 100.759H563.526V101.506H561.826C561.857 102.663 561.917 103.62 561.998 104.399C562.249 103.775 562.453 103.1 562.59 102.385L563.386 102.545ZM555.122 103.975C555.272 104.54 555.422 105.273 555.472 105.756L554.89 105.948C554.849 105.456 554.717 104.699 554.576 104.125L555.117 103.975H555.122ZM560.752 106.485C560.975 106.225 561.175 105.952 561.357 105.647C561.166 104.631 561.057 103.242 560.993 101.506H557.505V100.923L557.432 101.055C557.109 100.672 556.577 100.18 556.063 99.7839C555.791 100.208 555.509 100.608 555.199 100.973H557.241V101.756H556.427V102.713H557.523V103.51H556.427V106.098L557.541 105.856L557.582 106.522C557.955 106.481 558.387 106.421 558.86 106.362V105.847H557.814V105.205H558.86V104.731C558.487 104.763 558.115 104.772 557.764 104.781C557.746 104.631 557.655 104.39 557.573 104.226C558.551 104.185 559.684 104.066 560.32 103.893L560.861 104.435C560.498 104.517 560.088 104.585 559.643 104.645V105.2H560.598V105.843H559.643V106.266L560.739 106.116L560.748 106.481L560.752 106.485ZM556.559 105.638C556.691 105.155 556.859 104.399 556.932 103.875L557.555 104.066C557.373 104.672 557.214 105.374 557.064 105.829L556.559 105.638ZM557.855 101.911H560.67V103.784H557.855V101.911ZM558.56 103.182H559.947V102.517H558.56V103.182ZM562.794 100.554C562.653 100.13 562.321 99.4651 561.98 98.9731L562.653 98.6724C563.017 99.1462 563.376 99.7794 563.517 100.212L562.794 100.554Z" fill="#3E3A39"/>
<path d="M568.275 104.941L568.366 105.806C567.07 106.13 565.669 106.481 564.627 106.731L564.427 105.806C565 105.683 565.746 105.533 566.537 105.342C566.788 104.312 567.042 102.631 567.151 101.442L568.025 101.593C567.834 102.74 567.574 104.162 567.32 105.159L568.275 104.936V104.941ZM564.523 100.267H568.434V101.132H564.523V100.267ZM565.619 101.547C565.851 102.654 566.042 104.043 566.101 105L565.328 105.15C565.287 104.203 565.096 102.781 564.887 101.684L565.619 101.542V101.547ZM566.301 100.249C566.192 99.8478 565.91 99.21 565.66 98.7362L566.465 98.5039C566.747 98.9594 567.029 99.5608 567.147 99.9662L566.301 100.249ZM571.117 101.306V103.178H573.159V107.629H572.213V107.205H569.489V107.67H568.584V103.178H570.162V98.4355H571.117V100.408H573.55V101.306H571.117ZM572.213 104.057H569.489V106.335H572.213V104.057Z" fill="#3E3A39"/>
<path d="M472.877 85.7799C473.746 86.5634 474.824 87.7023 475.302 88.4585L474.583 88.996C474.447 88.7637 474.26 88.5086 474.046 88.2398C468.975 88.5086 468.384 88.5268 467.97 88.6726C467.934 88.4949 467.784 88.0713 467.693 87.8298C467.916 87.7934 468.143 87.5975 468.448 87.3014C468.771 86.9962 469.812 85.8619 470.485 84.7412L471.345 85.1102C470.681 86.0441 469.899 86.9415 469.139 87.6613L473.428 87.4836C473.032 87.0417 472.605 86.5953 472.209 86.2263L472.873 85.7753L472.877 85.7799ZM468.384 89.3742H474.36V93.2919H473.446V92.8227H469.248V93.3101H468.38V89.3742H468.384ZM469.253 90.1941V91.9845H473.451V90.1941H469.253Z" fill="#3E3A39"/>
<path d="M480.955 86.4906C480.918 86.7867 480.873 87.0737 480.827 87.3333H484.211V92.3672C484.211 92.8273 484.093 93.0414 483.77 93.1598C483.447 93.2874 482.91 93.2874 482.183 93.2874C482.128 93.0733 481.996 92.7498 481.878 92.5494C482.406 92.5767 482.965 92.5676 483.124 92.5585C483.288 92.5585 483.338 92.5129 483.338 92.3626V88.1214H477.858V93.2874H476.998V87.3288H479.995C480.023 87.0782 480.068 86.7821 480.095 86.486H476.562V85.6842H480.177C480.204 85.379 480.223 85.0829 480.232 84.8232L481.173 84.9144C481.146 85.1649 481.109 85.4246 481.073 85.6797H484.625V86.4814H480.955V86.4906ZM480.973 91.5699V93.0869H480.163V91.5699H478.308V90.8775H480.163V90.0849H478.503V89.4106H479.354C479.281 89.1054 479.095 88.6909 478.922 88.3856L479.595 88.208C479.8 88.5314 479.991 88.9733 480.072 89.2603L479.586 89.4061H481.1C481.255 89.0371 481.45 88.5269 481.541 88.1761L482.315 88.3538C482.16 88.7136 482.001 89.0826 481.846 89.4061H482.724V90.0803H480.982V90.873H482.901V91.5654H480.982L480.973 91.5699Z" fill="#3E3A39"/>
<path d="M467.293 97.9658C467.284 99.1776 467.275 100.394 467.079 101.524C467.625 103.574 468.794 104.968 470.963 105.496C470.768 105.683 470.522 106.052 470.39 106.289C468.516 105.742 467.42 104.626 466.729 102.945C466.201 104.375 465.196 105.596 463.204 106.362C463.086 106.138 462.836 105.815 462.604 105.642C466.461 104.23 466.311 101.182 466.329 97.9658H467.288H467.293ZM463.982 102.658C463.827 101.947 463.427 100.754 463.104 99.8518L463.937 99.5557C464.287 100.444 464.701 101.606 464.878 102.28L463.982 102.658ZM470.604 100.061C470.199 100.941 469.681 101.975 469.267 102.622L468.53 102.307C468.926 101.624 469.408 100.526 469.671 99.7015L470.604 100.061Z" fill="#3E3A39"/>
<path d="M480.136 105.059H476.402V106.371H475.515V105.059H471.873V104.284H475.515V103.646H472.814V100.025H475.515V99.4507H472.141V98.6672H475.515V97.8745H476.402V98.6672H479.831V99.4507H476.402V100.025H479.167V103.646H476.402V104.284H480.136V105.059ZM473.642 101.501H475.515V100.735H473.642V101.501ZM475.515 102.94V102.157H473.642V102.94H475.515ZM476.402 100.731V101.496H478.312V100.731H476.402ZM478.312 102.152H476.402V102.936H478.312V102.152Z" fill="#3E3A39"/>
<path d="M484.588 103.833L484.67 104.626C483.479 104.922 482.201 105.246 481.241 105.478L481.055 104.626C481.582 104.517 482.264 104.376 482.992 104.202C483.224 103.259 483.451 101.72 483.556 100.626L484.356 100.763C484.184 101.815 483.943 103.118 483.711 104.034L484.588 103.829V103.833ZM481.15 99.5467H484.738V100.339H481.15V99.5467ZM482.155 100.722C482.369 101.738 482.542 103.013 482.596 103.893L481.887 104.029C481.851 103.159 481.673 101.856 481.482 100.85L482.155 100.722ZM482.783 99.5285C482.683 99.1595 482.424 98.5764 482.192 98.1436L482.928 97.9295C483.188 98.3441 483.447 98.8998 483.556 99.2688L482.783 99.5285ZM487.199 100.499V102.216H489.073V106.298H488.204V105.911H485.703V106.334H484.87V102.216H486.317V97.8657H487.194V99.6743H489.427V100.494H487.194L487.199 100.499ZM488.204 103.023H485.703V105.109H488.204V103.023Z" fill="#3E3A39"/>
<path d="M335.069 100.708C338.044 88.0824 330.238 75.432 317.634 72.4522C305.03 69.4723 292.4 77.2915 289.426 89.9168C286.451 102.542 294.257 115.192 306.861 118.172C319.465 121.152 332.095 113.333 335.069 100.708Z" fill="url(#paint6_linear_2638_8642)"/>
<path d="M306.161 88.7822C305.656 90.855 304.551 92.3765 303.304 93.1919C303.145 92.9915 302.781 92.6271 302.559 92.4858C303.586 91.8708 304.491 90.7957 304.974 89.4336H302.781V88.5453H305.374L305.533 88.5134L306.156 88.7731L306.161 88.7822ZM311.541 87.9668C310.768 88.6911 309.79 89.4974 308.985 90.0532C309.708 91.0918 310.663 91.9073 311.891 92.3719C311.682 92.5633 311.386 92.9459 311.236 93.1965C309.658 92.4995 308.53 91.2741 307.757 89.6796V92.6726C307.757 93.2056 307.634 93.4789 307.275 93.6293C306.902 93.7887 306.338 93.8024 305.515 93.8024C305.474 93.5427 305.324 93.119 305.183 92.8639C305.738 92.8822 306.347 92.8822 306.52 92.8822C306.702 92.873 306.752 92.8229 306.752 92.6498V87.493H304.096V86.5956H307.757V87.4019C307.966 88.0989 308.221 88.7503 308.539 89.338C309.294 88.764 310.135 87.9804 310.681 87.3427L311.536 87.9668H311.541ZM308.625 86.7277C307.821 86.263 306.192 85.6708 304.964 85.3565L305.428 84.582C306.624 84.8554 308.275 85.3884 309.117 85.853L308.625 86.7277Z" fill="#3E3A39"/>
<path d="M318.376 91.1875C318.567 91.2695 318.758 91.3378 318.959 91.4198C319.482 91.1055 320.177 90.5953 320.578 90.2217L321.273 90.7775C320.791 91.1191 320.246 91.4745 319.754 91.7524C320.509 92.0758 321.232 92.4175 321.705 92.6771L321.282 93.3422C320.628 92.9596 319.422 92.3856 318.376 91.9437V92.832C318.376 93.3468 318.244 93.5563 317.894 93.6793C317.53 93.8114 316.989 93.8206 316.143 93.8206C316.102 93.5882 315.984 93.2466 315.852 93.037C316.416 93.0689 317.03 93.0552 317.189 93.0461C317.371 93.0461 317.43 92.9869 317.43 92.8229V91.9346C316.434 92.3856 315.398 92.8502 314.583 93.2056L314.22 92.4402C315.015 92.1578 316.239 91.6749 317.426 91.2011V90.1853H315.266C315.739 90.4586 316.362 90.8686 316.685 91.1237L316.152 91.7068C315.843 91.4152 315.197 90.9825 314.715 90.6773L315.188 90.1853H314.906V89.5202H317.43V88.8368H314.556V88.1535H317.43V87.4975H314.997V86.8415H317.43V86.2265H314.333V88.3221C314.333 89.9119 314.192 92.2717 313.328 93.7932C313.169 93.6338 312.773 93.3696 312.573 93.2784C313.369 91.8571 313.437 89.8026 313.437 88.3221V85.402H317.308C317.176 85.1605 317.044 84.9191 316.926 84.705L317.849 84.4727C318.04 84.746 318.24 85.1059 318.39 85.3974H321.746V86.222H318.367V86.837H320.923V88.0761H321.86V88.8824H320.923V90.1807H318.367V91.1875H318.376ZM318.376 88.1444H320.045V87.4884H318.376V88.1444ZM318.376 89.5156H320.045V88.8323H318.376V89.5156Z" fill="#3E3A39"/>
<path d="M304.551 102.057C304.151 103.045 303.605 103.852 302.923 104.512C303.928 105.218 305.197 105.701 306.743 105.952C306.543 106.143 306.288 106.526 306.17 106.79C304.542 106.489 303.245 105.934 302.209 105.118C301.122 105.934 299.785 106.476 298.238 106.858C298.138 106.635 297.856 106.225 297.674 106.011C299.202 105.71 300.499 105.227 301.517 104.499C300.885 103.824 300.371 103.027 299.966 102.08L300.812 101.82C301.135 102.626 301.608 103.332 302.222 103.915C302.827 103.332 303.286 102.626 303.609 101.77L304.555 102.052L304.551 102.057ZM301.203 100.426C300.508 101.282 299.443 102.189 298.57 102.745C298.411 102.562 298.047 102.212 297.838 102.061C298.725 101.578 299.707 100.822 300.289 100.075L301.203 100.426ZM306.511 99.8519H297.843V98.9454H301.895C301.745 98.6037 301.513 98.1619 301.304 97.8065L302.19 97.5059C302.463 97.9204 302.782 98.4807 302.923 98.8361L302.632 98.9454H306.515V99.8519H306.511ZM303.996 100.043C304.892 100.635 306.029 101.542 306.57 102.171L305.788 102.786C305.283 102.162 304.178 101.214 303.264 100.581L303.996 100.048V100.043Z" fill="#3E3A39"/>
<path d="M309.467 102.257C309.085 101.893 308.28 101.433 307.625 101.15L308.116 100.444C308.762 100.695 309.576 101.128 309.985 101.46L309.462 102.257H309.467ZM310.431 103.528C309.899 104.576 309.235 105.774 308.63 106.731L307.848 106.098C308.38 105.332 309.153 104.052 309.74 102.904L310.436 103.528H310.431ZM309.785 99.6426C309.444 99.2599 308.68 98.736 308.066 98.4126L308.589 97.7293C309.203 98.0299 309.976 98.5265 310.349 98.8955L309.785 99.6426ZM311.295 102.362H312.141V103.378C312.141 104.485 311.982 105.824 310.695 106.813C310.554 106.622 310.24 106.321 310.04 106.198C311.177 105.351 311.295 104.244 311.295 103.355V102.358V102.362ZM316.043 102.362C315.92 102.171 315.752 101.929 315.561 101.679C311.65 101.939 311.168 101.98 310.845 102.112C310.795 101.92 310.645 101.478 310.545 101.237C310.768 101.187 311 100.955 311.291 100.604C311.432 100.453 311.682 100.139 311.973 99.7155H310.463V98.8682H312.555C312.796 98.4673 313.06 98.0299 313.26 97.6108L314.174 97.9753C314.001 98.2759 313.81 98.5812 313.633 98.8727H316.68V99.72H313.051C312.678 100.226 312.305 100.686 311.936 101.109L315.002 100.927C314.779 100.668 314.57 100.403 314.388 100.162L315.093 99.761C315.657 100.426 316.43 101.342 316.812 101.888L316.048 102.371L316.043 102.362ZM313.037 102.444H313.86V106.421H313.037V102.444ZM316.293 105.911C316.412 105.911 316.625 105.893 316.748 105.852C316.757 106.084 316.789 106.385 316.816 106.576C316.684 106.626 316.484 106.635 316.302 106.635H315.711C314.929 106.635 314.774 106.303 314.774 105.496V102.362H315.638V105.515C315.638 105.806 315.657 105.906 315.788 105.906H316.293V105.911Z" fill="#3E3A39"/>
<path d="M320.3 102.348C320.109 103.246 319.836 104.193 319.486 104.945C319.668 105.045 319.886 105.218 320.209 105.419C320.914 105.842 321.828 105.902 323.006 105.902C324.184 105.902 325.921 105.811 327.04 105.669C326.931 105.92 326.776 106.385 326.767 106.635C325.985 106.685 324.143 106.744 322.965 106.744C321.646 106.744 320.782 106.635 320.05 106.211C319.65 105.979 319.286 105.628 319.063 105.628C318.84 105.628 318.499 106.284 318.217 106.899L317.585 106.034C317.935 105.583 318.29 105.186 318.599 104.986C318.872 104.444 319.104 103.715 319.263 103.032H317.976C318.217 102.44 318.517 101.62 318.772 100.836H317.758V99.9887H319.932C319.709 100.704 319.427 101.528 319.177 102.225H319.741L319.882 102.184L320.305 102.344L320.3 102.348ZM318.804 99.5695C318.681 99.1277 318.44 98.4216 318.281 97.8886L319.095 97.638C319.286 98.1619 319.518 98.8361 319.65 99.2689L318.804 99.5695ZM322.806 100.303C322.865 100.093 322.915 99.8611 322.965 99.6379H320.432V98.8726H321.951C321.819 98.5901 321.587 98.2074 321.387 97.9341L322.119 97.6335C322.378 97.9569 322.674 98.4079 322.792 98.6903L322.392 98.8726H324.093C324.343 98.499 324.634 97.9842 324.789 97.6152L325.703 97.8658C325.471 98.2075 325.239 98.5719 325.021 98.8726H326.781V99.6379H323.984C323.893 99.8702 323.784 100.089 323.684 100.303H325.967V105.059H321.232V100.303H322.811H322.806ZM325.048 101H322.101V101.697H325.048V101ZM325.048 102.321H322.101V103.027H325.048V102.321ZM325.048 103.66H322.101V104.376H325.048V103.66Z" fill="#3E3A39"/>
<defs>
<linearGradient id="paint0_linear_2638_8642" x1="-nan" y1="-nan" x2="-nan" y2="-nan" gradientUnits="userSpaceOnUse">
<stop stop-color="#EBC87D"/>
<stop offset="0.19" stop-color="#E3BF7E"/>
<stop offset="0.6" stop-color="#C38503"/>
<stop offset="0.8" stop-color="#DFB35E"/>
<stop offset="0.87" stop-color="#EAC580"/>
<stop offset="1" stop-color="#EFE3CA"/>
</linearGradient>
<linearGradient id="paint1_linear_2638_8642" x1="-nan" y1="-nan" x2="-nan" y2="-nan" gradientUnits="userSpaceOnUse">
<stop stop-color="#EBC87D"/>
<stop offset="0.19" stop-color="#E3BF7E"/>
<stop offset="0.6" stop-color="#C38503"/>
<stop offset="0.8" stop-color="#DFB35E"/>
<stop offset="0.87" stop-color="#EAC580"/>
<stop offset="1" stop-color="#EFE3CA"/>
</linearGradient>
<linearGradient id="paint2_linear_2638_8642" x1="372.848" y1="74.7098" x2="407.563" y2="107.861" gradientUnits="userSpaceOnUse">
<stop stop-color="#EDE9E5"/>
<stop offset="0.54" stop-color="#CDB69C"/>
<stop offset="1" stop-color="#BB9E7F"/>
</linearGradient>
<linearGradient id="paint3_linear_2638_8642" x1="288.272" y1="71.6495" x2="432.189" y2="89.7073" gradientUnits="userSpaceOnUse">
<stop stop-color="#EDE9E5"/>
<stop offset="0.54" stop-color="#CDB69C"/>
<stop offset="1" stop-color="#BB9E7F"/>
</linearGradient>
<linearGradient id="paint4_linear_2638_8642" x1="289.568" y1="61.4638" x2="433.489" y2="79.5216" gradientUnits="userSpaceOnUse">
<stop stop-color="#EDE9E5"/>
<stop offset="0.54" stop-color="#CDB69C"/>
<stop offset="1" stop-color="#BB9E7F"/>
</linearGradient>
<linearGradient id="paint5_linear_2638_8642" x1="311.7" y1="70.0498" x2="350.821" y2="70.0498" gradientUnits="userSpaceOnUse">
<stop stop-color="#EBC87D"/>
<stop offset="0.19" stop-color="#E3BF7E"/>
<stop offset="0.6" stop-color="#C38503"/>
<stop offset="0.8" stop-color="#DFB35E"/>
<stop offset="0.87" stop-color="#EAC580"/>
<stop offset="1" stop-color="#EFE3CA"/>
</linearGradient>
<linearGradient id="paint6_linear_2638_8642" x1="285.686" y1="74.1455" x2="326.424" y2="106.533" gradientUnits="userSpaceOnUse">
<stop stop-color="#EDE9E5"/>
<stop offset="0.54" stop-color="#CDB69C"/>
<stop offset="1" stop-color="#BB9E7F"/>
</linearGradient>
</defs>
</svg>
