<svg width="148" height="704" viewBox="0 0 148 704" fill="none" xmlns="http://www.w3.org/2000/svg">
<g clip-path="url(#clip0_6_155)">
<path d="M145.374 0V42.1569H33.6185V109.713L2.62644 105.161V0H145.374Z" fill="#D9374B"/>
<path d="M74.1313 247.4C33.7498 247.4 0 222.989 0 173.839C0 124.689 33.5528 102.324 73.9343 102.324C114.316 102.324 148 127.922 148 176.017C148 221.208 116.811 247.4 74.1313 247.4ZM74.5253 145.669C48.3265 145.669 30.0728 154.443 30.0728 175.225C30.0728 197.062 49.4428 204.253 73.7374 204.253C99.7391 204.253 117.796 196.6 117.796 174.631C117.796 154.245 101.052 145.669 74.4596 145.669H74.5253Z" fill="#D9374B"/>
<path d="M145.374 254.986V297.143H91.9255V340.884H145.308V383.106H2.62644V340.884H60.9991V297.143H2.62644V254.986H145.374Z" fill="#D9374B"/>
<path d="M30.4011 433.312L2.62644 424.999V384.096L145.308 429.42V483.781L2.62644 530.886V487.014L30.4011 478.306V433.312ZM61.3931 470.917C83.7835 464.187 103.744 458.646 117.665 455.413V454.819C102.3 451.521 81.945 446.045 61.3931 440.239V470.917Z" fill="#D9374B"/>
<path d="M45.8971 564.071C33.4871 566.446 28.2343 575.22 28.2343 588.811C28.2343 601.544 32.6335 607.349 40.9725 607.349C50.362 607.349 53.9077 601.016 59.2919 578.321C69.4694 536.032 84.8341 527.588 104.073 527.588C128.039 527.588 148.066 545.268 148.066 585.182C148.066 625.096 127.12 643.634 104.598 645.614V605.04C112.28 603.919 120.028 599.96 120.028 585.116C120.028 575.484 116.417 569.613 108.669 569.613C100.921 569.613 97.9006 574.89 92.5164 596.991C81.551 641.193 65.7267 649.968 45.3718 649.968C18.5821 649.968 -0.0656586 629.186 -0.0656586 587.095C-0.0656586 547.446 18.3851 526.466 45.8314 523.299V564.203L45.8971 564.071Z" fill="#D9374B"/>
<path d="M2.6921 662.239H42.2201V702.153H2.6921V662.239ZM57.0594 666.461L121.013 660.986H145.308V704H120.816L57.0594 698.722V666.395V666.461Z" fill="#D9374B"/>
</g>
<defs>
<clipPath id="clip0_6_155">
<rect width="148" height="704" fill="white"/>
</clipPath>
</defs>
</svg>
