<svg width="375" height="108" viewBox="0 0 375 108" fill="none" xmlns="http://www.w3.org/2000/svg">
<path d="M0 13.5244L265.5 51.0002L375 18.5002V108H0V13.5244Z" fill="#055C4E"/>
<g clip-path="url(#clip0_2630_11534)">
<path d="M375 0C375 0 316.184 58.345 191.531 38.7067C191.531 38.7067 14.7626 6.24439 0 5.45561V16.4502C0 16.4502 65.9991 17.7603 102.868 25.1791C102.868 25.1791 281.083 66.9906 342.97 47.3524C342.97 47.3524 374.559 39.1428 374.998 30.8518V0H375Z" fill="url(#paint0_linear_2630_11534)"/>
<path d="M374.877 27.8089V39.4489C374.877 39.4489 349.885 71.1999 236.652 51.6276C236.652 51.6276 148.973 40.7532 98.3046 29.4466C98.3046 29.4466 5.33805 19.4424 0.0507812 21.1828V16.3977C0.0507812 16.3977 25.2239 15.8628 57.8828 18.7893C83.3273 21.0703 114.145 26.0414 135.755 31.185C135.755 31.185 220.79 52.0617 287.321 50.7574C287.321 50.7574 362.858 53.5714 374.877 27.8089Z" fill="url(#paint1_linear_2630_11534)"/>
</g>
<defs>
<linearGradient id="paint0_linear_2630_11534" x1="187.499" y1="0" x2="187.499" y2="52.6006" gradientUnits="userSpaceOnUse">
<stop stop-color="#EDE9E5"/>
<stop offset="0.54" stop-color="#CDB69C"/>
<stop offset="1" stop-color="#BB9E7F"/>
</linearGradient>
<linearGradient id="paint1_linear_2630_11534" x1="187.464" y1="16.3589" x2="187.464" y2="57.9999" gradientUnits="userSpaceOnUse">
<stop stop-color="#BB9E7F"/>
<stop offset="0.46" stop-color="#CDB69C"/>
<stop offset="1" stop-color="#EDE9E5"/>
</linearGradient>
<clipPath id="clip0_2630_11534">
<rect width="375" height="58" fill="white"/>
</clipPath>
</defs>
</svg>
