<svg width="375" height="108" viewBox="0 0 375 108" fill="none" xmlns="http://www.w3.org/2000/svg">
<linearGradient id="SVG1" x1="187.499" y1="0" x2="187.499" y2="52.6006" gradientUnits="userSpaceOnUse">
<stop stop-color="#EDE9E5"/>
<stop offset="0.54" stop-color="#CDB69C"/>
<stop offset="1" stop-color="#BB9E7F"/>
</linearGradient>
<path  fill="url(#SVG1)" d="M375,62.1V0l0,0c0,0-64.1,56.4-188.7,36.7c0,0-171.5-30.4-186.3-31.2v56.7H375z"/>
<path d="M0,18.1l181.1,22.2l88.4,13.8l79.4-2.7L375,31.1V108H0V18.1z" fill="#055C4E"/>
<linearGradient id="SVG2" x1="187.464" y1="16.3589" x2="187.464" y2="57.9999" gradientUnits="userSpaceOnUse">
<stop stop-color="#BB9E7F"/>
<stop offset="0.46" stop-color="#CDB69C"/>
<stop offset="1" stop-color="#EDE9E5"/>
</linearGradient>
<path fill="url(#SVG2)" d="M375,27.9v11.7c-17.1,14.9-41.7,19.1-100.3,17.3C215.9,54.9,83.8,22,0,21.2v-4.8c102.1-3.6,190,35.3,287.4,34.4C310,50.6,361.5,51.4,375,27.9z"/>
</svg>
