<svg width="175" height="37" viewBox="0 0 175 37" fill="#fff" xmlns="http://www.w3.org/2000/svg">
<path d="M77.1,10.1h-0.6V1.4h28.3v8.7h-0.6c-2-6.9-3.9-8.1-10.4-8.1v32.9H98v0.6H83.2v-0.6h4.1V2
	C81,2,79.5,2.8,77.1,10.1z M45.2,34.9L58.7,0H60l14.3,34.9h3.9v0.6H63v-0.6h4.3L62.1,22H51.1l-5,12.9h4.1v0.6h-8.5v-0.6H45.2z
	 M51.3,21.4h10.4L56.3,8.3L51.3,21.4z M138.2,25.1v10.5h-28.8v-0.7h4.1V2.2h-4.1V1.5h27v8h-0.7c-1.1-3.9-4.1-7.5-8.6-7.5H120v14.6
	h2.5c4.3,0,6.3-3.2,6.8-7.1h0.7v15.1h-0.7c-0.7-3.6-2.3-7.1-6.3-7.1H120v17.3h7.4c4.9,0,9.2-3.6,10.1-9.7H138.2z M13.9,1.4v0.7h-3.4
	l8.1,25.3l4.7-14.3L19.8,2.2h-2.5V1.4h13.5v0.7h-4.3l8.1,25.3l8.3-25.3h-3.4V1.4h8.3v0.7h-3.6L32.6,36.7h-1.3l-7.4-22.6l-7.6,22.6
	h-1.3L3.6,2.2H0V1.4H13.9z M143.2,2.1V1.4h16.3c10.5,0,13,14.1,0,15.6c7.2,1.5,9.8,1.5,10.1,12.2c0.2,7.5,3.4,6.1,4.9,4.1l0.4,0.5
	c-1.8,3.2-11.6,4.1-12.1-4.1c-0.4-10.9-1.8-12.4-9.2-12.2v17.3h4v0.7H143v-0.7h4V2.1H143.2L143.2,2.1z M161.6,9.9
	c0-6.3-1.8-8.5-7.6-7.8v14.6C159.6,17.2,161.6,15.5,161.6,9.9z"/>
</svg>
