<svg width="175" height="37" viewBox="0 0 175 37" fill="none" xmlns="http://www.w3.org/2000/svg">
<g clip-path="url(#clip0_2630_11638)">
<path d="M13.8072 1.34265V2.01599H10.5118L18.6346 27.3006H18.7256L23.4658 13.0032L19.9467 2.01599H17.5083V1.34265H31.0008V2.01599H26.8029L34.9712 27.349H35.0622L43.4125 2.01599H39.5331V1.34265H47.8379V2.01599H44.1823L32.5859 36.8H31.2776L23.8754 14.1039H23.7843L16.2038 36.8H14.8956L3.70114 2.01599H0V1.34265H13.8072Z" fill="white"/>
<path d="M45.4411 34.8324L58.888 0H60.1053L74.3183 34.8324H78.1976V35.5057H63.0366V34.8324H67.2345L62.0014 21.9744H51.171L46.1616 34.8324H50.1775V35.5057H41.6489V34.8324H45.4411ZM51.3985 21.301H61.7776L56.4535 8.20107L51.3985 21.301Z" fill="white"/>
<path d="M85.786 2.01599C84.6711 2.01599 83.6814 2.13695 82.8092 2.37484C81.937 2.61273 81.1558 3.03206 80.4619 3.62073C79.7679 4.21343 79.1536 5.03596 78.6113 6.09234C78.069 7.14872 77.5722 8.49138 77.121 10.1243H76.5332V1.34265H104.826V10.1243H104.239C103.787 8.49138 103.291 7.14872 102.748 6.09234C102.206 5.03596 101.588 4.21343 100.898 3.62073C100.204 3.02802 99.4226 2.61273 98.5504 2.37484C97.6782 2.13292 96.6847 2.01599 95.5736 2.01599H93.9505V34.8364H98.1029V35.5098H83.2567V34.8364H87.4091V2.01599H85.786Z" fill="white"/>
<path d="M136.369 1.34265V9.54776H135.782C135.63 9.00344 135.376 8.30994 135.016 7.45918C134.655 6.61247 134.151 5.78994 133.502 4.98757C132.854 4.18924 132.02 3.4917 131 2.899C129.976 2.3063 128.728 2.01196 127.253 2.01196H120.078V16.8376H122.604C123.715 16.8376 124.655 16.6683 125.425 16.3336C126.191 15.9989 126.832 15.5191 127.344 14.8942C127.856 14.2692 128.277 13.5193 128.607 12.6403C128.937 11.7613 129.21 10.7775 129.418 9.68888H130.006V24.6113H129.418C129.206 23.6839 128.959 22.7888 128.675 21.926C128.391 21.0631 128.004 20.3011 127.526 19.6479C127.044 18.9947 126.449 18.4706 125.744 18.0875C125.038 17.7045 124.159 17.5109 123.104 17.5109H120.082V34.8324H127.484C128.868 34.8324 130.116 34.5864 131.231 34.0905C132.342 33.5946 133.328 32.9011 134.185 32.0019C135.042 31.1068 135.755 30.0585 136.328 28.861C136.9 27.6635 137.336 26.3733 137.636 24.9984H138.224V35.5057H109.388V34.8324H113.541V2.01599H109.388V1.34265H136.373H136.369Z" fill="white"/>
<path d="M143.002 2.016V1.34266H149.816C151.079 1.34266 152.327 1.31847 153.563 1.27009C154.796 1.2217 156.043 1.19751 157.31 1.19751C158.481 1.19751 159.725 1.32653 161.034 1.58055C162.342 1.8386 163.536 2.27808 164.621 2.89901C165.706 3.52397 166.6 4.36262 167.306 5.41901C168.011 6.47539 168.368 7.80191 168.368 9.40262C168.368 10.6808 168.098 11.7775 167.556 12.6887C167.014 13.5999 166.316 14.3458 165.459 14.9184C164.602 15.495 163.646 15.9344 162.592 16.2368C161.538 16.5392 160.503 16.7408 159.479 16.8376V17.0795C160.954 17.3658 162.27 17.6561 163.426 17.9424C164.583 18.2286 165.584 18.6641 166.426 19.2366C167.268 19.8132 167.939 20.6116 168.436 21.6357C168.933 22.6598 169.24 24.0347 169.361 25.7604C169.513 27.7764 169.63 29.3892 169.721 30.6069C169.812 31.8245 169.938 32.764 170.104 33.4373C170.271 34.1107 170.495 34.5582 170.783 34.78C171.068 35.0058 171.481 35.1146 172.023 35.1146C172.626 35.1146 173.123 34.9292 173.514 34.5623C173.904 34.1953 174.249 33.8526 174.553 33.5301L175.004 33.9615C174.704 34.28 174.409 34.5784 174.124 34.8485C173.84 35.1187 173.506 35.3525 173.131 35.5461C172.755 35.7396 172.296 35.8888 171.754 36.0017C171.212 36.1146 170.537 36.171 169.725 36.171C168.072 36.171 166.775 35.8888 165.846 35.3324C164.913 34.7719 164.223 34.0784 163.772 33.2438C163.32 32.4132 163.043 31.51 162.937 30.5343C162.831 29.5585 162.763 28.6393 162.732 27.7764C162.672 26.466 162.588 25.1919 162.486 23.9621C162.38 22.7324 162.133 21.6357 161.743 20.6761C161.352 19.7165 160.764 18.9504 159.983 18.3738C159.202 17.7972 158.102 17.511 156.688 17.511H153.711V34.8324H157.863V35.5057H143.017V34.8324H147.17V2.016H143.017H143.002ZM155.546 16.8416C156.9 16.8416 157.966 16.6481 158.751 16.2651C159.532 15.882 160.12 15.3619 160.51 14.7047C160.901 14.0475 161.147 13.3056 161.254 12.475C161.36 11.6444 161.413 10.7977 161.413 9.93081C161.413 8.52364 161.322 7.31404 161.144 6.31008C160.962 5.30208 160.662 4.47149 160.241 3.81427C159.82 3.16109 159.24 2.66919 158.504 2.35066C157.769 2.03213 156.828 1.87085 155.683 1.87085C155.353 1.87085 155.019 1.88698 154.689 1.91924C154.359 1.95149 154.026 1.98375 153.696 2.016V16.8416H155.546Z" fill="white"/>
</g>
<defs>
<clipPath id="clip0_2630_11638">
<rect width="175" height="36.8" fill="white"/>
</clipPath>
</defs>
</svg>
