<svg width="769" height="38" viewBox="0 0 769 38" fill="none" xmlns="http://www.w3.org/2000/svg">
<rect width="218" height="38" rx="6" fill="#6C6D6E"/>
<path d="M20.428 15.464V16.928H29.572V15.464H20.428ZM21.256 19.328V20.78H28.612V19.328H21.256ZM19.744 23.384V24.86H30.208V23.384H19.744ZM31.528 17.096V18.452H35.284V17.096H31.528ZM32.812 14.48V22.436H34.156V14.48H32.812ZM31.264 22.232L31.84 23.684C32.932 23.18 34.288 22.532 35.536 21.92L35.212 20.648C33.772 21.248 32.248 21.884 31.264 22.232ZM38.404 14.312V22.784H39.76V14.312H38.404ZM34.852 19.136L35.392 20.408L41.596 17.72L41.068 16.496L34.852 19.136ZM36.04 15.476V23.24C36.04 24.908 36.496 25.34 38.14 25.34C38.512 25.34 40.312 25.34 40.708 25.34C42.112 25.34 42.544 24.776 42.724 23.072C42.34 23 41.776 22.772 41.464 22.556C41.368 23.792 41.248 24.056 40.588 24.056C40.216 24.056 38.62 24.056 38.26 24.056C37.516 24.056 37.408 23.96 37.408 23.252V15.476H36.04ZM40.72 16.832C40.696 18.512 40.588 20.756 40.408 22.04L41.584 22.376C41.872 20.924 42.028 18.728 42.1 17.048L42.16 16.832L41.068 16.496L40.588 16.832H40.72ZM46.084 19.652V20.792H51.904V19.652H46.084ZM45.904 21.704V22.88H52.096V21.704H45.904ZM49.504 20.012V25.364H50.764V20.012H49.504ZM47.164 20.06V22.352C47.164 22.964 46.9 24.128 45.88 24.752C46.18 24.944 46.612 25.328 46.804 25.58C48.064 24.716 48.388 23.132 48.388 22.364V20.06H47.164ZM44.656 16.412V17.348H47.68V16.412H44.656ZM50.224 16.412V17.348H53.26V16.412H50.224ZM52.696 14.768V23.888C52.696 24.068 52.636 24.14 52.444 24.14C52.264 24.14 51.664 24.14 51.136 24.116C51.328 24.488 51.52 25.16 51.556 25.544C52.48 25.556 53.104 25.52 53.548 25.28C53.98 25.04 54.112 24.632 54.112 23.912V14.768H52.696ZM44.788 14.768V15.8H47.236V18.008H44.788V19.04H48.592V14.768H44.788ZM53.428 14.768H49.372V19.064H53.428V18.032H50.74V15.8H53.428V14.768ZM43.936 14.768V25.58H45.352V14.768H43.936ZM61.552 17.9V18.98H63.976V17.9H61.552ZM60.604 21.404V22.364H64.564V21.404H60.604ZM56.56 14.732V15.86H59.848V14.732H56.56ZM59.476 14.732V14.936C58.828 16.472 57.076 17.732 55.252 18.272C55.504 18.524 55.852 19.016 56.02 19.328C58.072 18.584 59.956 17.216 60.844 15.116L59.944 14.684L59.716 14.732H59.476ZM62.032 14.36L60.88 14.696C61.852 16.88 63.508 18.476 65.86 19.22C66.052 18.884 66.424 18.368 66.712 18.092C64.492 17.516 62.836 16.136 62.032 14.36ZM63.832 14.384C63.46 14.828 62.8 15.44 62.332 15.8L63.16 16.436C63.652 16.1 64.3 15.608 64.864 15.116L63.832 14.384ZM65.38 15.584C64.996 16.028 64.312 16.64 63.82 17L64.684 17.636C65.188 17.312 65.848 16.808 66.412 16.304L65.38 15.584ZM57.112 17.96V19.052H58.864V20.96H60.148V17.96H57.112ZM56.728 19.904C56.62 20.852 56.44 22.04 56.26 22.832H57.46C57.604 22.064 57.772 20.888 57.892 19.904H56.728ZM58.852 21.788V21.956C58.768 23.384 58.648 24.008 58.456 24.176C58.348 24.272 58.216 24.284 58.012 24.284C57.76 24.284 57.16 24.272 56.56 24.224C56.776 24.56 56.944 25.052 56.968 25.436C57.616 25.46 58.24 25.46 58.576 25.424C58.984 25.388 59.272 25.292 59.548 25.016C59.848 24.692 59.992 23.924 60.112 22.28C60.136 22.112 60.148 21.788 60.148 21.788H58.852ZM61 17.9V18.752C61 19.316 60.88 19.952 59.98 20.468C60.22 20.636 60.7 21.116 60.88 21.368C61.96 20.684 62.2 19.664 62.2 18.776V17.9H61ZM64.276 21.404V21.56C63.676 23.24 62.02 24.188 59.944 24.536C60.16 24.8 60.424 25.28 60.544 25.58C62.932 25.052 64.756 23.948 65.536 21.632L64.744 21.368L64.528 21.404H64.276ZM57.244 19.904L57.052 20.96H59.296V19.904H57.244ZM56.908 21.788L56.704 22.832H59.212V21.788H56.908ZM56.164 16.628C56.644 16.904 57.28 17.324 57.568 17.612L58.42 16.772C58.096 16.496 57.46 16.112 56.968 15.872L56.164 16.628ZM63.304 17.9V19.676C63.304 20.66 63.508 21.068 64.516 21.068C64.696 21.068 65.116 21.068 65.272 21.068C65.524 21.068 65.788 21.056 65.956 20.996C65.92 20.72 65.884 20.3 65.872 20.012C65.716 20.06 65.428 20.072 65.248 20.072C65.128 20.072 64.78 20.072 64.66 20.072C64.504 20.072 64.48 19.976 64.48 19.688V17.9H63.304ZM60.412 22.94C61.876 23.72 63.904 24.896 64.876 25.592L65.608 24.644C64.564 23.948 62.5 22.844 61.096 22.124L60.412 22.94ZM67.528 17.096V18.452H71.284V17.096H67.528ZM68.812 14.48V22.436H70.156V14.48H68.812ZM67.264 22.232L67.84 23.684C68.932 23.18 70.288 22.532 71.536 21.92L71.212 20.648C69.772 21.248 68.248 21.884 67.264 22.232ZM74.404 14.312V22.784H75.76V14.312H74.404ZM70.852 19.136L71.392 20.408L77.596 17.72L77.068 16.496L70.852 19.136ZM72.04 15.476V23.24C72.04 24.908 72.496 25.34 74.14 25.34C74.512 25.34 76.312 25.34 76.708 25.34C78.112 25.34 78.544 24.776 78.724 23.072C78.34 23 77.776 22.772 77.464 22.556C77.368 23.792 77.248 24.056 76.588 24.056C76.216 24.056 74.62 24.056 74.26 24.056C73.516 24.056 73.408 23.96 73.408 23.252V15.476H72.04ZM76.72 16.832C76.696 18.512 76.588 20.756 76.408 22.04L77.584 22.376C77.872 20.924 78.028 18.728 78.1 17.048L78.16 16.832L77.068 16.496L76.588 16.832H76.72ZM81.004 18.476V19.64H90.436V18.476H81.004ZM80.404 15.272V16.4H90.1V15.272H80.404ZM82.996 20.6V21.716H89.812V20.6H82.996ZM82.864 22.34V23.432H89.464V22.34H82.864ZM81.772 24.128V25.292H90.628V24.128H81.772ZM85.42 19.856V24.932H86.836V19.856H85.42ZM80.284 18.476V20.624C80.284 21.884 80.188 23.588 79.216 24.788C79.516 24.956 80.116 25.46 80.332 25.712C81.46 24.344 81.688 22.148 81.688 20.648V18.476H80.284ZM83.008 19.736C82.696 20.612 82.156 21.44 81.532 21.992C81.748 22.304 82.084 23.036 82.18 23.312C83.044 22.556 83.776 21.32 84.22 20.108L83.008 19.736ZM81.796 16.916C84.052 17.348 86.86 18.116 88.444 18.68L89.344 17.924C87.664 17.384 84.892 16.652 82.72 16.22L81.796 16.916ZM87.976 16.172C86.5 16.916 83.584 17.588 81.316 17.924C81.544 18.116 81.916 18.476 82.108 18.704C84.292 18.308 87.112 17.636 88.924 16.76L87.976 16.172ZM84.148 14.636C84.496 15.08 84.88 15.692 85.036 16.088L86.068 15.56C85.888 15.164 85.468 14.588 85.108 14.168L84.148 14.636ZM93.808 26.924L94.9 26.468C93.892 24.716 93.436 22.688 93.436 20.72C93.436 18.764 93.892 16.736 94.9 14.984L93.808 14.516C92.668 16.364 92.008 18.332 92.008 20.72C92.008 23.12 92.668 25.076 93.808 26.924ZM97.3592 14.732V16.028H99.8072V14.732H97.3592ZM96.5312 14.732V19.1C96.5312 20.864 96.4952 23.276 95.8472 24.944C96.1712 25.052 96.7592 25.376 97.0112 25.58C97.7072 23.792 97.8152 20.996 97.8152 19.088V14.732H96.5312ZM99.0272 14.732V23.948C99.0272 24.092 98.9792 24.14 98.8592 24.152C98.7272 24.152 98.3552 24.152 97.9832 24.14C98.1512 24.5 98.2952 25.124 98.3312 25.484C99.0512 25.484 99.5192 25.448 99.8672 25.22C100.227 24.992 100.323 24.596 100.323 23.984V14.732H99.0272ZM101.979 14.744V16.076H105.351V14.744H101.979ZM100.731 19.52V20.864H105.651V19.52H100.731ZM105.375 19.52V19.736C104.739 22.172 102.795 23.696 100.275 24.272C100.539 24.572 100.875 25.148 101.019 25.508C103.875 24.692 105.987 23.024 106.827 19.808L105.903 19.472L105.651 19.52H105.375ZM102.243 20.672L100.995 21.056C102.027 23.3 103.731 24.86 106.239 25.556C106.443 25.184 106.851 24.608 107.175 24.308C104.799 23.78 103.071 22.46 102.243 20.672ZM101.775 14.744V16.04C101.775 16.844 101.607 17.72 100.227 18.368C100.479 18.56 100.983 19.088 101.151 19.352C102.747 18.548 103.083 17.228 103.083 16.076V14.744H101.775ZM104.499 14.744V17.372C104.499 18.524 104.727 19.004 105.879 19.004C106.035 19.004 106.335 19.004 106.503 19.004C106.743 19.004 107.007 18.992 107.175 18.92C107.139 18.608 107.103 18.128 107.079 17.78C106.923 17.828 106.647 17.864 106.479 17.864C106.371 17.864 106.131 17.864 106.011 17.864C105.867 17.864 105.843 17.732 105.843 17.384V14.744H104.499ZM97.5752 20.816L98.1032 22.148C98.6912 21.776 99.3152 21.38 99.9632 20.972L99.7592 20.012C98.9192 20.336 98.1392 20.636 97.5752 20.816ZM97.3112 17.9C97.7552 18.344 98.2952 18.98 98.5592 19.364L99.4232 18.644C99.1592 18.272 98.6072 17.708 98.1512 17.276L97.3112 17.9ZM109.251 26.924C110.379 25.076 111.039 23.12 111.039 20.72C111.039 18.332 110.379 16.364 109.251 14.516L108.147 14.984C109.155 16.736 109.623 18.764 109.623 20.72C109.623 22.688 109.155 24.716 108.147 26.468L109.251 26.924ZM114.878 26.924L115.97 26.468C114.962 24.716 114.506 22.688 114.506 20.72C114.506 18.764 114.962 16.736 115.97 14.984L114.878 14.516C113.738 16.364 113.078 18.332 113.078 20.72C113.078 23.12 113.738 25.076 114.878 26.924ZM118.429 14.732V16.028H120.877V14.732H118.429ZM117.601 14.732V19.1C117.601 20.864 117.565 23.276 116.917 24.944C117.241 25.052 117.829 25.376 118.081 25.58C118.777 23.792 118.885 20.996 118.885 19.088V14.732H117.601ZM120.097 14.732V23.948C120.097 24.092 120.049 24.14 119.929 24.152C119.797 24.152 119.425 24.152 119.053 24.14C119.221 24.5 119.365 25.124 119.401 25.484C120.121 25.484 120.589 25.448 120.937 25.22C121.297 24.992 121.393 24.596 121.393 23.984V14.732H120.097ZM123.049 14.744V16.076H126.421V14.744H123.049ZM121.801 19.52V20.864H126.721V19.52H121.801ZM126.445 19.52V19.736C125.809 22.172 123.865 23.696 121.345 24.272C121.609 24.572 121.945 25.148 122.089 25.508C124.945 24.692 127.057 23.024 127.897 19.808L126.973 19.472L126.721 19.52H126.445ZM123.313 20.672L122.065 21.056C123.097 23.3 124.801 24.86 127.309 25.556C127.513 25.184 127.921 24.608 128.245 24.308C125.869 23.78 124.141 22.46 123.313 20.672ZM122.845 14.744V16.04C122.845 16.844 122.677 17.72 121.297 18.368C121.549 18.56 122.053 19.088 122.221 19.352C123.817 18.548 124.153 17.228 124.153 16.076V14.744H122.845ZM125.569 14.744V17.372C125.569 18.524 125.797 19.004 126.949 19.004C127.105 19.004 127.405 19.004 127.573 19.004C127.813 19.004 128.077 18.992 128.245 18.92C128.209 18.608 128.173 18.128 128.149 17.78C127.993 17.828 127.717 17.864 127.549 17.864C127.441 17.864 127.201 17.864 127.081 17.864C126.937 17.864 126.913 17.732 126.913 17.384V14.744H125.569ZM118.645 20.816L119.173 22.148C119.761 21.776 120.385 21.38 121.033 20.972L120.829 20.012C119.989 20.336 119.209 20.636 118.645 20.816ZM118.381 17.9C118.825 18.344 119.365 18.98 119.629 19.364L120.493 18.644C120.229 18.272 119.677 17.708 119.221 17.276L118.381 17.9ZM136.129 23.492C137.065 24.032 138.265 24.848 138.817 25.388L139.957 24.584C139.321 24.02 138.097 23.264 137.185 22.772L136.129 23.492ZM130.597 19.916V21.008H138.613V19.916H130.597ZM129.169 21.512V22.652H140.053V21.512H129.169ZM129.337 14.708V15.836H139.813V14.708H129.337ZM131.557 22.748C131.005 23.408 130.033 24.044 129.097 24.452C129.409 24.668 129.937 25.148 130.165 25.412C131.101 24.896 132.193 24.056 132.877 23.204L131.557 22.748ZM131.377 17.504H137.761V18.392H131.377V17.504ZM130.045 16.472V19.436H139.189V16.472H130.045ZM132.577 15.14V19.016H133.897V15.14H132.577ZM135.157 15.14V19.016H136.501V15.14H135.157ZM133.873 21.812V25.592H135.301V21.812H133.873ZM144.673 18.356L144.889 19.736L152.185 18.752L151.981 17.384L144.673 18.356ZM149.197 15.068C149.809 15.68 150.541 16.532 150.841 17.084L151.993 16.34C151.657 15.776 150.901 14.972 150.277 14.396L149.197 15.068ZM144.013 14.408C143.269 16.22 142.009 18.008 140.713 19.124C140.965 19.472 141.373 20.24 141.517 20.588C143.017 19.208 144.481 16.988 145.381 14.864L144.013 14.408ZM142.765 17.852V25.556H144.253V16.412L144.241 16.388L142.765 17.852ZM146.917 14.492C147.133 21.032 147.841 25.292 150.685 25.556C151.357 25.592 152.005 25.04 152.317 22.712C152.053 22.58 151.405 22.196 151.129 21.896C151.045 23.216 150.889 23.84 150.613 23.816C149.161 23.612 148.465 19.628 148.381 14.492H146.917ZM154.537 15.776H156.121V17.192H154.537V15.776ZM153.517 14.756V18.2H157.201V14.756H153.517ZM152.965 18.86V20.096H157.453V18.86H152.965ZM153.997 19.412C153.853 20.264 153.625 21.308 153.421 22.028H154.657C154.825 21.344 155.041 20.3 155.197 19.412H153.997ZM154.333 20.912L154.081 22.028H156.325V20.912H154.333ZM155.821 20.912V21.092C155.713 23.156 155.593 23.96 155.389 24.164C155.293 24.272 155.185 24.296 155.005 24.296C154.813 24.296 154.405 24.284 153.973 24.248C154.177 24.572 154.297 25.064 154.309 25.424C154.825 25.448 155.317 25.436 155.593 25.4C155.953 25.352 156.181 25.256 156.409 24.992C156.733 24.632 156.877 23.672 157.021 21.404C157.033 21.236 157.045 20.912 157.045 20.912H155.821ZM160.789 14.96V16.1H163.837V14.96H160.789ZM158.485 16.628V17.756H163.441V16.628H158.485ZM157.825 16.628V19.736C157.825 21.26 157.753 23.36 156.841 24.824C157.129 24.956 157.681 25.352 157.897 25.58C158.905 23.972 159.073 21.464 159.073 19.736V16.628H157.825ZM159.253 18.548L159.373 19.508L162.649 19.208L162.553 18.26L159.253 18.548ZM163.093 16.628V16.784C163.033 17.468 162.925 18.32 162.829 18.848L163.885 19.1C164.041 18.512 164.221 17.576 164.341 16.772L163.465 16.58L163.261 16.628H163.093ZM159.673 21.236C159.613 22.82 159.469 23.972 158.413 24.668C158.689 24.884 159.025 25.328 159.169 25.628C160.525 24.716 160.789 23.216 160.849 21.236H159.673ZM161.473 21.236V24.008C161.473 24.692 161.521 24.896 161.725 25.1C161.917 25.304 162.229 25.376 162.529 25.376C162.685 25.376 162.985 25.376 163.177 25.376C163.405 25.376 163.669 25.316 163.837 25.22C164.029 25.088 164.149 24.92 164.233 24.668C164.305 24.428 164.365 23.84 164.389 23.276C164.065 23.168 163.621 22.928 163.405 22.724C163.417 23.228 163.393 23.66 163.369 23.84C163.357 23.948 163.309 24.032 163.273 24.068C163.237 24.116 163.153 24.128 163.081 24.128C163.009 24.128 162.925 24.128 162.865 24.128C162.805 24.128 162.733 24.104 162.709 24.056C162.661 24.032 162.661 23.96 162.661 23.888V21.236H161.473ZM160.165 14.312V17.144H161.533V14.312H160.165ZM160.213 17.66V19.364C160.213 20.348 160.429 20.84 161.449 20.84C161.689 20.84 162.469 20.84 162.721 20.84C163.033 20.84 163.405 20.816 163.609 20.744C163.561 20.432 163.537 20.084 163.501 19.724C163.333 19.784 162.901 19.808 162.661 19.808C162.469 19.808 161.869 19.808 161.701 19.808C161.449 19.808 161.425 19.676 161.425 19.388V17.66H160.213ZM165.577 24.5H170.929V23.072H169.261V15.62H167.953C167.377 15.968 166.777 16.196 165.877 16.364V17.456H167.497V23.072H165.577V24.5ZM175.716 24.5H177.36V15.62H175.236L171.936 20.996V22.208H178.416V20.852H173.652L175.02 18.644C175.272 18.164 175.512 17.672 175.74 17.192H175.788C175.764 17.72 175.716 18.524 175.716 19.04V24.5ZM182.038 24.668C183.742 24.668 185.17 23.732 185.17 22.1C185.17 20.924 184.402 20.192 183.394 19.904V19.844C184.342 19.484 184.87 18.776 184.87 17.828C184.87 16.304 183.706 15.464 181.99 15.464C180.958 15.464 180.106 15.884 179.338 16.544L180.238 17.636C180.766 17.144 181.282 16.844 181.918 16.844C182.674 16.844 183.106 17.264 183.106 17.96C183.106 18.752 182.578 19.304 180.946 19.304V20.576C182.878 20.576 183.394 21.116 183.394 21.992C183.394 22.784 182.782 23.24 181.87 23.24C181.066 23.24 180.43 22.832 179.902 22.316L179.062 23.432C179.686 24.152 180.634 24.668 182.038 24.668ZM189.368 24.668C191.156 24.668 192.356 23.648 192.356 22.304C192.356 21.08 191.684 20.372 190.868 19.928V19.868C191.444 19.448 192.008 18.716 192.008 17.828C192.008 16.412 191 15.476 189.428 15.476C187.88 15.476 186.74 16.388 186.74 17.816C186.74 18.752 187.244 19.436 187.916 19.928V19.976C187.1 20.408 186.404 21.164 186.404 22.304C186.404 23.696 187.664 24.668 189.368 24.668ZM189.932 19.436C188.996 19.064 188.3 18.644 188.3 17.816C188.3 17.108 188.78 16.712 189.392 16.712C190.124 16.712 190.568 17.216 190.568 17.948C190.568 18.476 190.364 18.98 189.932 19.436ZM189.404 23.42C188.576 23.42 187.916 22.904 187.916 22.1C187.916 21.44 188.252 20.84 188.744 20.456C189.884 20.936 190.712 21.308 190.712 22.232C190.712 23 190.172 23.42 189.404 23.42ZM194.634 26.924C195.762 25.076 196.422 23.12 196.422 20.72C196.422 18.332 195.762 16.364 194.634 14.516L193.53 14.984C194.538 16.736 195.006 18.764 195.006 20.72C195.006 22.688 194.538 24.716 193.53 26.468L194.634 26.924Z" fill="white"/>
<rect x="432" width="159" height="38" rx="6" fill="#6C6D6E"/>
<path d="M451.672 15.308V16.652H462.328V15.308H451.672ZM454.3 20.468V21.584H459.676V20.468H454.3ZM454.048 22.376V23.528H459.94V22.376H454.048ZM456.268 21.008V25.232H457.636V21.008H456.268ZM452.116 17.552V25.556H453.568V18.872H460.804V17.552H452.116ZM460.396 17.552V24.104C460.396 24.284 460.336 24.344 460.12 24.356C459.928 24.368 459.172 24.368 458.584 24.332C458.776 24.656 458.992 25.184 459.064 25.556C460.036 25.556 460.744 25.544 461.224 25.34C461.716 25.136 461.884 24.812 461.884 24.116V17.552H460.396ZM454.756 19.196C455.008 19.616 455.284 20.18 455.392 20.564L456.592 20.156C456.46 19.796 456.184 19.244 455.908 18.86L454.756 19.196ZM458.14 18.884C457.984 19.34 457.672 20 457.42 20.444L458.44 20.744C458.716 20.36 459.04 19.796 459.364 19.22L458.14 18.884ZM456.22 14.384V18.476H457.804V14.384H456.22ZM467.812 16.232V17.768H474.148V16.232H467.812ZM467.152 23.324V24.86H474.616V23.324H467.152ZM464.992 17.84V25.556H466.444V16.436L466.42 16.412L464.992 17.84ZM466.192 14.36C465.52 16.148 464.38 17.888 463.192 19.004C463.456 19.364 463.888 20.168 464.032 20.528C465.436 19.136 466.78 16.916 467.62 14.816L466.192 14.36ZM479.632 14.696V20.36H480.94V14.696H479.632ZM478.084 16.652V17.948H482.308V16.652H478.084ZM483.28 14.708V15.992H485.68V14.708H483.28ZM478.42 19.784V24.752H479.656V19.784H478.42ZM479.068 19.784V21.032H480.832V22.7H479.068V23.936H482.08V19.784H479.068ZM482.668 14.708V19.544C482.668 21.272 482.56 23.444 481.3 24.908C481.6 25.04 482.152 25.412 482.368 25.628C483.724 24.056 483.916 21.452 483.916 19.544V14.708H482.668ZM485.044 14.708V24.068C485.044 24.224 484.984 24.272 484.84 24.284C484.684 24.284 484.24 24.284 483.808 24.26C483.988 24.584 484.18 25.124 484.228 25.46C484.972 25.472 485.476 25.424 485.836 25.22C486.208 25.004 486.328 24.668 486.328 24.08V14.708H485.044ZM475.804 15.464C476.464 15.788 477.292 16.316 477.676 16.7L478.516 15.572C478.096 15.188 477.256 14.72 476.596 14.456L475.804 15.464ZM475.348 18.668C476.02 18.956 476.848 19.46 477.232 19.82L478.048 18.692C477.628 18.32 476.788 17.888 476.128 17.636L475.348 18.668ZM475.528 24.716L476.824 25.46C477.328 24.284 477.844 22.892 478.252 21.596L477.088 20.852C476.62 22.256 475.984 23.78 475.528 24.716ZM483.688 21.02L484.168 22.172C484.684 21.644 485.2 21.104 485.704 20.564L485.308 19.796C484.696 20.288 484.108 20.744 483.688 21.02ZM483.508 17.936C483.928 18.368 484.432 18.992 484.672 19.364L485.428 18.764C485.176 18.392 484.684 17.84 484.24 17.42L483.508 17.936ZM489.808 26.924L490.9 26.468C489.892 24.716 489.436 22.688 489.436 20.72C489.436 18.764 489.892 16.736 490.9 14.984L489.808 14.516C488.668 16.364 488.008 18.332 488.008 20.72C488.008 23.12 488.668 25.076 489.808 26.924ZM493.359 14.732V16.028H495.807V14.732H493.359ZM492.531 14.732V19.1C492.531 20.864 492.495 23.276 491.847 24.944C492.171 25.052 492.759 25.376 493.011 25.58C493.707 23.792 493.815 20.996 493.815 19.088V14.732H492.531ZM495.027 14.732V23.948C495.027 24.092 494.979 24.14 494.859 24.152C494.727 24.152 494.355 24.152 493.983 24.14C494.151 24.5 494.295 25.124 494.331 25.484C495.051 25.484 495.519 25.448 495.867 25.22C496.227 24.992 496.323 24.596 496.323 23.984V14.732H495.027ZM497.979 14.744V16.076H501.351V14.744H497.979ZM496.731 19.52V20.864H501.651V19.52H496.731ZM501.375 19.52V19.736C500.739 22.172 498.795 23.696 496.275 24.272C496.539 24.572 496.875 25.148 497.019 25.508C499.875 24.692 501.987 23.024 502.827 19.808L501.903 19.472L501.651 19.52H501.375ZM498.243 20.672L496.995 21.056C498.027 23.3 499.731 24.86 502.239 25.556C502.443 25.184 502.851 24.608 503.175 24.308C500.799 23.78 499.071 22.46 498.243 20.672ZM497.775 14.744V16.04C497.775 16.844 497.607 17.72 496.227 18.368C496.479 18.56 496.983 19.088 497.151 19.352C498.747 18.548 499.083 17.228 499.083 16.076V14.744H497.775ZM500.499 14.744V17.372C500.499 18.524 500.727 19.004 501.879 19.004C502.035 19.004 502.335 19.004 502.503 19.004C502.743 19.004 503.007 18.992 503.175 18.92C503.139 18.608 503.103 18.128 503.079 17.78C502.923 17.828 502.647 17.864 502.479 17.864C502.371 17.864 502.131 17.864 502.011 17.864C501.867 17.864 501.843 17.732 501.843 17.384V14.744H500.499ZM493.575 20.816L494.103 22.148C494.691 21.776 495.315 21.38 495.963 20.972L495.759 20.012C494.919 20.336 494.139 20.636 493.575 20.816ZM493.311 17.9C493.755 18.344 494.295 18.98 494.559 19.364L495.423 18.644C495.159 18.272 494.607 17.708 494.151 17.276L493.311 17.9ZM511.059 23.492C511.995 24.032 513.195 24.848 513.747 25.388L514.887 24.584C514.251 24.02 513.027 23.264 512.115 22.772L511.059 23.492ZM505.527 19.916V21.008H513.543V19.916H505.527ZM504.099 21.512V22.652H514.983V21.512H504.099ZM504.267 14.708V15.836H514.743V14.708H504.267ZM506.487 22.748C505.935 23.408 504.963 24.044 504.027 24.452C504.339 24.668 504.867 25.148 505.095 25.412C506.031 24.896 507.123 24.056 507.807 23.204L506.487 22.748ZM506.307 17.504H512.691V18.392H506.307V17.504ZM504.975 16.472V19.436H514.119V16.472H504.975ZM507.507 15.14V19.016H508.827V15.14H507.507ZM510.087 15.14V19.016H511.431V15.14H510.087ZM508.803 21.812V25.592H510.231V21.812H508.803ZM519.603 18.356L519.819 19.736L527.115 18.752L526.911 17.384L519.603 18.356ZM524.127 15.068C524.739 15.68 525.471 16.532 525.771 17.084L526.923 16.34C526.587 15.776 525.831 14.972 525.207 14.396L524.127 15.068ZM518.943 14.408C518.199 16.22 516.939 18.008 515.643 19.124C515.895 19.472 516.303 20.24 516.447 20.588C517.947 19.208 519.411 16.988 520.311 14.864L518.943 14.408ZM517.695 17.852V25.556H519.183V16.412L519.171 16.388L517.695 17.852ZM521.847 14.492C522.063 21.032 522.771 25.292 525.615 25.556C526.287 25.592 526.935 25.04 527.247 22.712C526.983 22.58 526.335 22.196 526.059 21.896C525.975 23.216 525.819 23.84 525.543 23.816C524.091 23.612 523.395 19.628 523.311 14.492H521.847ZM529.467 15.776H531.051V17.192H529.467V15.776ZM528.447 14.756V18.2H532.131V14.756H528.447ZM527.895 18.86V20.096H532.383V18.86H527.895ZM528.927 19.412C528.783 20.264 528.555 21.308 528.351 22.028H529.587C529.755 21.344 529.971 20.3 530.127 19.412H528.927ZM529.263 20.912L529.011 22.028H531.255V20.912H529.263ZM530.751 20.912V21.092C530.643 23.156 530.523 23.96 530.319 24.164C530.223 24.272 530.115 24.296 529.935 24.296C529.743 24.296 529.335 24.284 528.903 24.248C529.107 24.572 529.227 25.064 529.239 25.424C529.755 25.448 530.247 25.436 530.523 25.4C530.883 25.352 531.111 25.256 531.339 24.992C531.663 24.632 531.807 23.672 531.951 21.404C531.963 21.236 531.975 20.912 531.975 20.912H530.751ZM535.719 14.96V16.1H538.767V14.96H535.719ZM533.415 16.628V17.756H538.371V16.628H533.415ZM532.755 16.628V19.736C532.755 21.26 532.683 23.36 531.771 24.824C532.059 24.956 532.611 25.352 532.827 25.58C533.835 23.972 534.003 21.464 534.003 19.736V16.628H532.755ZM534.183 18.548L534.303 19.508L537.579 19.208L537.483 18.26L534.183 18.548ZM538.023 16.628V16.784C537.963 17.468 537.855 18.32 537.759 18.848L538.815 19.1C538.971 18.512 539.151 17.576 539.271 16.772L538.395 16.58L538.191 16.628H538.023ZM534.603 21.236C534.543 22.82 534.399 23.972 533.343 24.668C533.619 24.884 533.955 25.328 534.099 25.628C535.455 24.716 535.719 23.216 535.779 21.236H534.603ZM536.403 21.236V24.008C536.403 24.692 536.451 24.896 536.655 25.1C536.847 25.304 537.159 25.376 537.459 25.376C537.615 25.376 537.915 25.376 538.107 25.376C538.335 25.376 538.599 25.316 538.767 25.22C538.959 25.088 539.079 24.92 539.163 24.668C539.235 24.428 539.295 23.84 539.319 23.276C538.995 23.168 538.551 22.928 538.335 22.724C538.347 23.228 538.323 23.66 538.299 23.84C538.287 23.948 538.239 24.032 538.203 24.068C538.167 24.116 538.083 24.128 538.011 24.128C537.939 24.128 537.855 24.128 537.795 24.128C537.735 24.128 537.663 24.104 537.639 24.056C537.591 24.032 537.591 23.96 537.591 23.888V21.236H536.403ZM535.095 14.312V17.144H536.463V14.312H535.095ZM535.143 17.66V19.364C535.143 20.348 535.359 20.84 536.379 20.84C536.619 20.84 537.399 20.84 537.651 20.84C537.963 20.84 538.335 20.816 538.539 20.744C538.491 20.432 538.467 20.084 538.431 19.724C538.263 19.784 537.831 19.808 537.591 19.808C537.399 19.808 536.799 19.808 536.631 19.808C536.379 19.808 536.355 19.676 536.355 19.388V17.66H535.143ZM542.847 24.668C544.479 24.668 545.955 23.528 545.955 21.56C545.955 19.616 544.707 18.74 543.219 18.74C542.811 18.74 542.499 18.824 542.151 18.98L542.319 17.096H545.547V15.62H540.795L540.543 19.928L541.359 20.456C541.875 20.12 542.163 19.988 542.691 19.988C543.579 19.988 544.179 20.564 544.179 21.596C544.179 22.652 543.543 23.24 542.607 23.24C541.791 23.24 541.155 22.832 540.663 22.34L539.835 23.456C540.507 24.116 541.443 24.668 542.847 24.668ZM549.673 24.668C551.437 24.668 553.081 23.216 553.081 19.856C553.081 16.784 551.569 15.464 549.877 15.464C548.365 15.464 547.093 16.592 547.093 18.428C547.093 20.312 548.149 21.212 549.637 21.212C550.261 21.212 551.065 20.816 551.545 20.156L551.449 18.956C551.017 19.688 550.465 19.964 549.961 19.964C549.205 19.964 548.701 19.46 548.701 18.428C548.701 17.324 549.241 16.784 549.913 16.784C550.777 16.784 551.461 17.588 551.461 19.856C551.461 22.4 550.609 23.24 549.565 23.24C549.037 23.24 548.497 22.964 548.161 22.592L547.225 23.66C547.765 24.212 548.557 24.668 549.673 24.668ZM557.231 24.668C559.031 24.668 560.231 23.096 560.231 20.024C560.231 16.964 559.031 15.464 557.231 15.464C555.419 15.464 554.219 16.964 554.219 20.024C554.219 23.096 555.419 24.668 557.231 24.668ZM557.231 23.288C556.463 23.288 555.887 22.52 555.887 20.024C555.887 17.54 556.463 16.82 557.231 16.82C557.999 16.82 558.563 17.54 558.563 20.024C558.563 22.52 557.999 23.288 557.231 23.288ZM564.082 24.668C565.714 24.668 567.19 23.528 567.19 21.56C567.19 19.616 565.942 18.74 564.454 18.74C564.046 18.74 563.734 18.824 563.386 18.98L563.554 17.096H566.782V15.62H562.03L561.778 19.928L562.594 20.456C563.11 20.12 563.398 19.988 563.926 19.988C564.814 19.988 565.414 20.564 565.414 21.596C565.414 22.652 564.778 23.24 563.842 23.24C563.026 23.24 562.39 22.832 561.898 22.34L561.07 23.456C561.742 24.116 562.678 24.668 564.082 24.668ZM569.564 26.924C570.692 25.076 571.352 23.12 571.352 20.72C571.352 18.332 570.692 16.364 569.564 14.516L568.46 14.984C569.468 16.736 569.936 18.764 569.936 20.72C569.936 22.688 569.468 24.716 568.46 26.468L569.564 26.924Z" fill="white"/>
<rect x="228" width="193" height="38" rx="6" fill="#6C6D6E"/>
<path d="M246.66 17.156V18.596H250.224V17.156H246.66ZM252.528 14.516V23.036C252.528 24.716 252.924 25.22 254.256 25.22C254.508 25.22 255.444 25.22 255.696 25.22C257.052 25.22 257.4 24.26 257.52 21.752C257.136 21.668 256.5 21.368 256.14 21.08C256.068 23.252 255.996 23.804 255.552 23.804C255.372 23.804 254.652 23.804 254.484 23.804C254.088 23.804 254.028 23.708 254.028 23.048V14.516H252.528ZM249.444 14.504V23.48H250.944V14.504H249.444ZM246.24 23.936L246.888 25.412C248.316 24.86 250.164 24.116 251.88 23.396L251.616 22.1C249.684 22.796 247.536 23.552 246.24 23.936ZM253.308 17.144V18.572H257.184V17.144H253.308ZM259.02 15.224V16.388H269.028V15.224H259.02ZM259.464 24.068V25.244H268.644V24.068H259.464ZM261.528 16.904V17.912H266.424V16.904H261.528ZM261.528 18.44V19.448H266.424V18.44H261.528ZM258.384 19.976V21.152H269.604V19.976H258.384ZM261.108 22.16V23.288H266.904V22.16H261.108ZM260.676 14.312V20.624H262.128V14.312H260.676ZM265.908 14.324V20.624H267.372V14.324H265.908ZM263.232 21.404V24.752H264.708V21.404H263.232ZM261.42 20.312C260.784 21.284 259.524 22.208 258.276 22.664C258.576 22.928 258.984 23.432 259.188 23.768C260.556 23.156 261.852 22.028 262.62 20.756L261.42 20.312ZM266.628 20.312L265.488 20.744C266.244 21.944 267.492 23.084 268.788 23.66C269.004 23.324 269.424 22.808 269.736 22.544C268.5 22.1 267.264 21.236 266.628 20.312ZM272.64 17.324V18.332H279.336V17.324H272.64ZM277.464 16.676C277.86 16.904 278.34 17.24 278.58 17.504L279.24 16.82C279 16.556 278.508 16.244 278.1 16.052L277.464 16.676ZM277.956 18.668C277.488 20.504 276.456 21.932 274.956 22.784C275.196 22.976 275.592 23.432 275.736 23.648C277.308 22.64 278.472 21.008 279.072 18.884L277.956 18.668ZM272.508 21.908L272.64 22.952C273.6 22.808 274.776 22.628 275.94 22.448L275.904 21.488C274.644 21.656 273.384 21.812 272.508 21.908ZM273.876 19.616H274.68V20.384H273.876V19.616ZM272.952 18.848V21.14H275.64V18.848H272.952ZM275.856 16.292C276.036 19.748 276.396 22.94 277.896 23.42C278.688 23.78 279.336 23.324 279.516 21.836C279.276 21.716 278.844 21.38 278.628 21.152C278.568 21.86 278.472 22.328 278.34 22.292C277.548 22.1 277.14 19.28 277.056 16.292H275.856ZM270.852 14.828V25.616H272.208V16.124H279.708V25.616H281.136V14.828H270.852ZM271.704 23.828V25.112H280.488V23.828H271.704ZM282.78 14.78V25.544H284.004V16.064H285.516V14.78H282.78ZM285.072 14.78V15.164C284.916 15.932 284.58 17.492 284.256 18.56C284.892 19.424 285.024 20.204 285.024 20.78C285.024 21.128 284.952 21.416 284.82 21.524C284.748 21.596 284.64 21.62 284.52 21.62C284.376 21.62 284.232 21.62 284.028 21.608C284.22 21.944 284.316 22.46 284.328 22.784C284.592 22.808 284.868 22.796 285.072 22.772C285.312 22.724 285.54 22.652 285.72 22.508C286.08 22.232 286.224 21.704 286.224 20.936C286.224 20.228 286.092 19.376 285.42 18.428C285.732 17.48 286.104 16.256 286.38 15.224L285.492 14.732L285.3 14.78H285.072ZM287.976 18.968V20.108H291.504V18.968H287.976ZM286.872 20.924V22.088H292.704V20.924H286.872ZM287.412 15.188V16.124H289.224V15.188H287.412ZM286.968 16.832C287.424 17.18 287.988 17.672 288.264 17.996L288.888 17.264C288.6 16.964 288 16.496 287.568 16.184L286.968 16.832ZM291 22.988C291.528 23.624 292.248 24.512 292.584 25.028L293.7 24.32C293.328 23.804 292.584 22.964 292.056 22.364L291 22.988ZM288.924 15.188V15.392C288.528 17.288 287.388 18.98 286.044 19.772C286.284 19.976 286.608 20.372 286.752 20.636C288.3 19.64 289.512 17.852 290.028 15.416L289.308 15.14L289.116 15.188H288.924ZM290.592 14.948V15.896H292.632V14.948H290.592ZM287.4 14.324C287.052 15.428 286.404 16.46 285.588 17.12C285.828 17.288 286.26 17.648 286.44 17.84C287.268 17.072 288.024 15.86 288.468 14.564L287.4 14.324ZM292.236 14.948V15.164C292.044 15.884 291.624 16.868 291.156 17.456C291.384 17.636 291.756 17.996 291.924 18.248C292.548 17.54 293.148 16.4 293.508 15.332L292.728 14.888L292.488 14.948H292.236ZM287.256 22.508C286.884 23.156 286.308 23.9 285.78 24.392C286.104 24.56 286.644 24.908 286.92 25.124C287.424 24.572 288.108 23.672 288.54 22.928L287.256 22.508ZM290.808 15.44L289.74 15.692C290.328 17.84 291.348 19.664 292.932 20.624C293.1 20.312 293.472 19.856 293.748 19.628C292.308 18.86 291.3 17.24 290.808 15.44ZM289.128 21.416V25.556H290.484V21.416H289.128ZM285.9 17.996L286.044 18.884C286.572 18.788 287.04 18.704 287.604 18.596L287.58 17.828C286.92 17.9 286.392 17.96 285.9 17.996ZM296.808 26.924L297.9 26.468C296.892 24.716 296.436 22.688 296.436 20.72C296.436 18.764 296.892 16.736 297.9 14.984L296.808 14.516C295.668 16.364 295.008 18.332 295.008 20.72C295.008 23.12 295.668 25.076 296.808 26.924ZM300.359 14.732V16.028H302.807V14.732H300.359ZM299.531 14.732V19.1C299.531 20.864 299.495 23.276 298.847 24.944C299.171 25.052 299.759 25.376 300.011 25.58C300.707 23.792 300.815 20.996 300.815 19.088V14.732H299.531ZM302.027 14.732V23.948C302.027 24.092 301.979 24.14 301.859 24.152C301.727 24.152 301.355 24.152 300.983 24.14C301.151 24.5 301.295 25.124 301.331 25.484C302.051 25.484 302.519 25.448 302.867 25.22C303.227 24.992 303.323 24.596 303.323 23.984V14.732H302.027ZM304.979 14.744V16.076H308.351V14.744H304.979ZM303.731 19.52V20.864H308.651V19.52H303.731ZM308.375 19.52V19.736C307.739 22.172 305.795 23.696 303.275 24.272C303.539 24.572 303.875 25.148 304.019 25.508C306.875 24.692 308.987 23.024 309.827 19.808L308.903 19.472L308.651 19.52H308.375ZM305.243 20.672L303.995 21.056C305.027 23.3 306.731 24.86 309.239 25.556C309.443 25.184 309.851 24.608 310.175 24.308C307.799 23.78 306.071 22.46 305.243 20.672ZM304.775 14.744V16.04C304.775 16.844 304.607 17.72 303.227 18.368C303.479 18.56 303.983 19.088 304.151 19.352C305.747 18.548 306.083 17.228 306.083 16.076V14.744H304.775ZM307.499 14.744V17.372C307.499 18.524 307.727 19.004 308.879 19.004C309.035 19.004 309.335 19.004 309.503 19.004C309.743 19.004 310.007 18.992 310.175 18.92C310.139 18.608 310.103 18.128 310.079 17.78C309.923 17.828 309.647 17.864 309.479 17.864C309.371 17.864 309.131 17.864 309.011 17.864C308.867 17.864 308.843 17.732 308.843 17.384V14.744H307.499ZM300.575 20.816L301.103 22.148C301.691 21.776 302.315 21.38 302.963 20.972L302.759 20.012C301.919 20.336 301.139 20.636 300.575 20.816ZM300.311 17.9C300.755 18.344 301.295 18.98 301.559 19.364L302.423 18.644C302.159 18.272 301.607 17.708 301.151 17.276L300.311 17.9ZM312.251 26.924C313.379 25.076 314.039 23.12 314.039 20.72C314.039 18.332 313.379 16.364 312.251 14.516L311.147 14.984C312.155 16.736 312.623 18.764 312.623 20.72C312.623 22.688 312.155 24.716 311.147 26.468L312.251 26.924ZM320.597 26.924L321.689 26.468C320.681 24.716 320.225 22.688 320.225 20.72C320.225 18.764 320.681 16.736 321.689 14.984L320.597 14.516C319.457 16.364 318.797 18.332 318.797 20.72C318.797 23.12 319.457 25.076 320.597 26.924ZM324.148 14.732V16.028H326.596V14.732H324.148ZM323.32 14.732V19.1C323.32 20.864 323.284 23.276 322.636 24.944C322.96 25.052 323.548 25.376 323.8 25.58C324.496 23.792 324.604 20.996 324.604 19.088V14.732H323.32ZM325.816 14.732V23.948C325.816 24.092 325.768 24.14 325.648 24.152C325.516 24.152 325.144 24.152 324.772 24.14C324.94 24.5 325.084 25.124 325.12 25.484C325.84 25.484 326.308 25.448 326.656 25.22C327.016 24.992 327.112 24.596 327.112 23.984V14.732H325.816ZM328.768 14.744V16.076H332.14V14.744H328.768ZM327.52 19.52V20.864H332.44V19.52H327.52ZM332.164 19.52V19.736C331.528 22.172 329.584 23.696 327.064 24.272C327.328 24.572 327.664 25.148 327.808 25.508C330.664 24.692 332.776 23.024 333.616 19.808L332.692 19.472L332.44 19.52H332.164ZM329.032 20.672L327.784 21.056C328.816 23.3 330.52 24.86 333.028 25.556C333.232 25.184 333.64 24.608 333.964 24.308C331.588 23.78 329.86 22.46 329.032 20.672ZM328.564 14.744V16.04C328.564 16.844 328.396 17.72 327.016 18.368C327.268 18.56 327.772 19.088 327.94 19.352C329.536 18.548 329.872 17.228 329.872 16.076V14.744H328.564ZM331.288 14.744V17.372C331.288 18.524 331.516 19.004 332.668 19.004C332.824 19.004 333.124 19.004 333.292 19.004C333.532 19.004 333.796 18.992 333.964 18.92C333.928 18.608 333.892 18.128 333.868 17.78C333.712 17.828 333.436 17.864 333.268 17.864C333.16 17.864 332.92 17.864 332.8 17.864C332.656 17.864 332.632 17.732 332.632 17.384V14.744H331.288ZM324.364 20.816L324.892 22.148C325.48 21.776 326.104 21.38 326.752 20.972L326.548 20.012C325.708 20.336 324.928 20.636 324.364 20.816ZM324.1 17.9C324.544 18.344 325.084 18.98 325.348 19.364L326.212 18.644C325.948 18.272 325.396 17.708 324.94 17.276L324.1 17.9ZM341.848 23.492C342.784 24.032 343.984 24.848 344.536 25.388L345.676 24.584C345.04 24.02 343.816 23.264 342.904 22.772L341.848 23.492ZM336.316 19.916V21.008H344.332V19.916H336.316ZM334.888 21.512V22.652H345.772V21.512H334.888ZM335.056 14.708V15.836H345.532V14.708H335.056ZM337.276 22.748C336.724 23.408 335.752 24.044 334.816 24.452C335.128 24.668 335.656 25.148 335.884 25.412C336.82 24.896 337.912 24.056 338.596 23.204L337.276 22.748ZM337.096 17.504H343.48V18.392H337.096V17.504ZM335.764 16.472V19.436H344.908V16.472H335.764ZM338.296 15.14V19.016H339.616V15.14H338.296ZM340.876 15.14V19.016H342.22V15.14H340.876ZM339.592 21.812V25.592H341.02V21.812H339.592ZM350.392 18.356L350.608 19.736L357.904 18.752L357.7 17.384L350.392 18.356ZM354.916 15.068C355.528 15.68 356.26 16.532 356.56 17.084L357.712 16.34C357.376 15.776 356.62 14.972 355.996 14.396L354.916 15.068ZM349.732 14.408C348.988 16.22 347.728 18.008 346.432 19.124C346.684 19.472 347.092 20.24 347.236 20.588C348.736 19.208 350.2 16.988 351.1 14.864L349.732 14.408ZM348.484 17.852V25.556H349.972V16.412L349.96 16.388L348.484 17.852ZM352.636 14.492C352.852 21.032 353.56 25.292 356.404 25.556C357.076 25.592 357.724 25.04 358.036 22.712C357.772 22.58 357.124 22.196 356.848 21.896C356.764 23.216 356.608 23.84 356.332 23.816C354.88 23.612 354.184 19.628 354.1 14.492H352.636ZM360.256 15.776H361.84V17.192H360.256V15.776ZM359.236 14.756V18.2H362.92V14.756H359.236ZM358.684 18.86V20.096H363.172V18.86H358.684ZM359.716 19.412C359.572 20.264 359.344 21.308 359.14 22.028H360.376C360.544 21.344 360.76 20.3 360.916 19.412H359.716ZM360.052 20.912L359.8 22.028H362.044V20.912H360.052ZM361.54 20.912V21.092C361.432 23.156 361.312 23.96 361.108 24.164C361.012 24.272 360.904 24.296 360.724 24.296C360.532 24.296 360.124 24.284 359.692 24.248C359.896 24.572 360.016 25.064 360.028 25.424C360.544 25.448 361.036 25.436 361.312 25.4C361.672 25.352 361.9 25.256 362.128 24.992C362.452 24.632 362.596 23.672 362.74 21.404C362.752 21.236 362.764 20.912 362.764 20.912H361.54ZM366.508 14.96V16.1H369.556V14.96H366.508ZM364.204 16.628V17.756H369.16V16.628H364.204ZM363.544 16.628V19.736C363.544 21.26 363.472 23.36 362.56 24.824C362.848 24.956 363.4 25.352 363.616 25.58C364.624 23.972 364.792 21.464 364.792 19.736V16.628H363.544ZM364.972 18.548L365.092 19.508L368.368 19.208L368.272 18.26L364.972 18.548ZM368.812 16.628V16.784C368.752 17.468 368.644 18.32 368.548 18.848L369.604 19.1C369.76 18.512 369.94 17.576 370.06 16.772L369.184 16.58L368.98 16.628H368.812ZM365.392 21.236C365.332 22.82 365.188 23.972 364.132 24.668C364.408 24.884 364.744 25.328 364.888 25.628C366.244 24.716 366.508 23.216 366.568 21.236H365.392ZM367.192 21.236V24.008C367.192 24.692 367.24 24.896 367.444 25.1C367.636 25.304 367.948 25.376 368.248 25.376C368.404 25.376 368.704 25.376 368.896 25.376C369.124 25.376 369.388 25.316 369.556 25.22C369.748 25.088 369.868 24.92 369.952 24.668C370.024 24.428 370.084 23.84 370.108 23.276C369.784 23.168 369.34 22.928 369.124 22.724C369.136 23.228 369.112 23.66 369.088 23.84C369.076 23.948 369.028 24.032 368.992 24.068C368.956 24.116 368.872 24.128 368.8 24.128C368.728 24.128 368.644 24.128 368.584 24.128C368.524 24.128 368.452 24.104 368.428 24.056C368.38 24.032 368.38 23.96 368.38 23.888V21.236H367.192ZM365.884 14.312V17.144H367.252V14.312H365.884ZM365.932 17.66V19.364C365.932 20.348 366.148 20.84 367.168 20.84C367.408 20.84 368.188 20.84 368.44 20.84C368.752 20.84 369.124 20.816 369.328 20.744C369.28 20.432 369.256 20.084 369.22 19.724C369.052 19.784 368.62 19.808 368.38 19.808C368.188 19.808 367.588 19.808 367.42 19.808C367.168 19.808 367.144 19.676 367.144 19.388V17.66H365.932ZM373.852 24.668C375.64 24.668 376.84 23.648 376.84 22.304C376.84 21.08 376.168 20.372 375.352 19.928V19.868C375.928 19.448 376.492 18.716 376.492 17.828C376.492 16.412 375.484 15.476 373.912 15.476C372.364 15.476 371.224 16.388 371.224 17.816C371.224 18.752 371.728 19.436 372.4 19.928V19.976C371.584 20.408 370.888 21.164 370.888 22.304C370.888 23.696 372.148 24.668 373.852 24.668ZM374.416 19.436C373.48 19.064 372.784 18.644 372.784 17.816C372.784 17.108 373.264 16.712 373.876 16.712C374.608 16.712 375.052 17.216 375.052 17.948C375.052 18.476 374.848 18.98 374.416 19.436ZM373.888 23.42C373.06 23.42 372.4 22.904 372.4 22.1C372.4 21.44 372.736 20.84 373.228 20.456C374.368 20.936 375.196 21.308 375.196 22.232C375.196 23 374.656 23.42 373.888 23.42ZM380.462 24.668C382.226 24.668 383.87 23.216 383.87 19.856C383.87 16.784 382.358 15.464 380.666 15.464C379.154 15.464 377.882 16.592 377.882 18.428C377.882 20.312 378.938 21.212 380.426 21.212C381.05 21.212 381.854 20.816 382.334 20.156L382.238 18.956C381.806 19.688 381.254 19.964 380.75 19.964C379.994 19.964 379.49 19.46 379.49 18.428C379.49 17.324 380.03 16.784 380.702 16.784C381.566 16.784 382.25 17.588 382.25 19.856C382.25 22.4 381.398 23.24 380.354 23.24C379.826 23.24 379.286 22.964 378.95 22.592L378.014 23.66C378.554 24.212 379.346 24.668 380.462 24.668ZM384.984 24.5H390.936V23.012H389.016C388.596 23.012 388.008 23.072 387.564 23.12C389.184 21.536 390.528 19.808 390.528 18.188C390.528 16.532 389.4 15.464 387.732 15.464C386.52 15.464 385.716 15.932 384.9 16.808L385.872 17.768C386.328 17.264 386.844 16.844 387.504 16.844C388.356 16.844 388.824 17.396 388.824 18.284C388.824 19.652 387.408 21.32 384.984 23.492V24.5ZM393.779 24.5H395.567C395.723 21.032 395.987 19.208 398.051 16.688V15.62H392.159V17.096H396.155C394.451 19.448 393.947 21.428 393.779 24.5ZM400.353 26.924C401.481 25.076 402.141 23.12 402.141 20.72C402.141 18.332 401.481 16.364 400.353 14.516L399.249 14.984C400.257 16.736 400.725 18.764 400.725 20.72C400.725 22.688 400.257 24.716 399.249 26.468L400.353 26.924Z" fill="white"/>
<rect x="601" width="168" height="38" rx="6" fill="#6C6D6E"/>
<path d="M618.148 15.428V16.64H628.792V15.428H618.148ZM621.184 18.068H625.852V18.716H621.184V18.068ZM619.744 17.096V19.688H627.376V17.096H619.744ZM618.484 20.168V25.58H619.876V21.344H628.108V20.168H618.484ZM627.076 20.168V24.26C627.076 24.416 627.004 24.452 626.836 24.464C626.68 24.464 626.032 24.476 625.552 24.44C625.72 24.728 625.912 25.16 625.984 25.484C626.824 25.496 627.472 25.484 627.916 25.328C628.372 25.16 628.528 24.884 628.528 24.26V20.168H627.076ZM622.504 14.588C622.684 15.116 622.936 15.836 623.032 16.268L624.592 15.836C624.472 15.428 624.196 14.732 623.98 14.228L622.504 14.588ZM621.58 21.776V22.772H624.772V23.468H621.58V24.464H626.044V21.776H621.58ZM620.788 21.776V24.956H622.12V21.776H620.788ZM630.832 14.852C631.168 15.416 631.588 16.184 631.78 16.652L632.932 16.076C632.74 15.62 632.32 14.912 631.972 14.36L630.832 14.852ZM636.928 20.78V24.776H638.212V20.78H636.928ZM636.292 17.612H638.98V18.464H636.292V17.612ZM635.02 16.52V19.556H640.312V16.52H635.02ZM634.408 20.084V25.568H635.74V21.236H639.448V25.556H640.828V20.084H634.408ZM635.176 22.04V23.108H640.168V22.04H635.176ZM635.188 23.936V25.088H640.18V23.936H635.188ZM634.348 14.816V16.028H640.876V14.816H634.348ZM630.088 16.532V17.828H633.676V16.532H630.088ZM633.064 19.34L632.26 20.024C632.668 20.456 633.484 21.356 633.856 21.872L634.696 20.72C634.444 20.48 633.4 19.556 633.064 19.34ZM633.148 16.532V16.796C632.56 18.548 631.132 20.312 629.632 21.212C629.848 21.476 630.196 22.196 630.316 22.58C631.972 21.44 633.64 19.316 634.468 16.988L633.676 16.484L633.436 16.532H633.148ZM631.528 20.636V25.58H632.932V18.944L631.528 20.636ZM647.14 14.528V23.168C647.14 24.824 647.56 25.304 649.048 25.304C649.348 25.304 650.74 25.304 651.064 25.304C652.54 25.304 652.888 24.452 653.056 22.136C652.684 22.052 652.108 21.788 651.772 21.536C651.676 23.528 651.568 24.02 650.956 24.02C650.656 24.02 649.468 24.02 649.204 24.02C648.616 24.02 648.532 23.9 648.532 23.192V14.528H647.14ZM644.86 14.36C644.164 16.088 642.976 17.792 641.752 18.86C641.992 19.22 642.376 20.012 642.508 20.36C643.936 19.004 645.34 16.856 646.204 14.816L644.86 14.36ZM643.66 17.612V25.568H645.04V16.268L645.028 16.256L643.66 17.612ZM647.98 17.612V18.98H652.732V17.612H647.98ZM654.7 15.56V17.06H664.324V15.56H654.7ZM654.028 23.3V24.752H665.008V23.3H654.028ZM658.624 16.376V23.876H660.268V16.376H658.624ZM668.308 26.924L669.4 26.468C668.392 24.716 667.936 22.688 667.936 20.72C667.936 18.764 668.392 16.736 669.4 14.984L668.308 14.516C667.168 16.364 666.508 18.332 666.508 20.72C666.508 23.12 667.168 25.076 668.308 26.924ZM671.859 14.732V16.028H674.307V14.732H671.859ZM671.031 14.732V19.1C671.031 20.864 670.995 23.276 670.347 24.944C670.671 25.052 671.259 25.376 671.511 25.58C672.207 23.792 672.315 20.996 672.315 19.088V14.732H671.031ZM673.527 14.732V23.948C673.527 24.092 673.479 24.14 673.359 24.152C673.227 24.152 672.855 24.152 672.483 24.14C672.651 24.5 672.795 25.124 672.831 25.484C673.551 25.484 674.019 25.448 674.367 25.22C674.727 24.992 674.823 24.596 674.823 23.984V14.732H673.527ZM676.479 14.744V16.076H679.851V14.744H676.479ZM675.231 19.52V20.864H680.151V19.52H675.231ZM679.875 19.52V19.736C679.239 22.172 677.295 23.696 674.775 24.272C675.039 24.572 675.375 25.148 675.519 25.508C678.375 24.692 680.487 23.024 681.327 19.808L680.403 19.472L680.151 19.52H679.875ZM676.743 20.672L675.495 21.056C676.527 23.3 678.231 24.86 680.739 25.556C680.943 25.184 681.351 24.608 681.675 24.308C679.299 23.78 677.571 22.46 676.743 20.672ZM676.275 14.744V16.04C676.275 16.844 676.107 17.72 674.727 18.368C674.979 18.56 675.483 19.088 675.651 19.352C677.247 18.548 677.583 17.228 677.583 16.076V14.744H676.275ZM678.999 14.744V17.372C678.999 18.524 679.227 19.004 680.379 19.004C680.535 19.004 680.835 19.004 681.003 19.004C681.243 19.004 681.507 18.992 681.675 18.92C681.639 18.608 681.603 18.128 681.579 17.78C681.423 17.828 681.147 17.864 680.979 17.864C680.871 17.864 680.631 17.864 680.511 17.864C680.367 17.864 680.343 17.732 680.343 17.384V14.744H678.999ZM672.075 20.816L672.603 22.148C673.191 21.776 673.815 21.38 674.463 20.972L674.259 20.012C673.419 20.336 672.639 20.636 672.075 20.816ZM671.811 17.9C672.255 18.344 672.795 18.98 673.059 19.364L673.923 18.644C673.659 18.272 673.107 17.708 672.651 17.276L671.811 17.9ZM689.559 23.492C690.495 24.032 691.695 24.848 692.247 25.388L693.387 24.584C692.751 24.02 691.527 23.264 690.615 22.772L689.559 23.492ZM684.027 19.916V21.008H692.043V19.916H684.027ZM682.599 21.512V22.652H693.483V21.512H682.599ZM682.767 14.708V15.836H693.243V14.708H682.767ZM684.987 22.748C684.435 23.408 683.463 24.044 682.527 24.452C682.839 24.668 683.367 25.148 683.595 25.412C684.531 24.896 685.623 24.056 686.307 23.204L684.987 22.748ZM684.807 17.504H691.191V18.392H684.807V17.504ZM683.475 16.472V19.436H692.619V16.472H683.475ZM686.007 15.14V19.016H687.327V15.14H686.007ZM688.587 15.14V19.016H689.931V15.14H688.587ZM687.303 21.812V25.592H688.731V21.812H687.303ZM698.103 18.356L698.319 19.736L705.615 18.752L705.411 17.384L698.103 18.356ZM702.627 15.068C703.239 15.68 703.971 16.532 704.271 17.084L705.423 16.34C705.087 15.776 704.331 14.972 703.707 14.396L702.627 15.068ZM697.443 14.408C696.699 16.22 695.439 18.008 694.143 19.124C694.395 19.472 694.803 20.24 694.947 20.588C696.447 19.208 697.911 16.988 698.811 14.864L697.443 14.408ZM696.195 17.852V25.556H697.683V16.412L697.671 16.388L696.195 17.852ZM700.347 14.492C700.563 21.032 701.271 25.292 704.115 25.556C704.787 25.592 705.435 25.04 705.747 22.712C705.483 22.58 704.835 22.196 704.559 21.896C704.475 23.216 704.319 23.84 704.043 23.816C702.591 23.612 701.895 19.628 701.811 14.492H700.347ZM707.967 15.776H709.551V17.192H707.967V15.776ZM706.947 14.756V18.2H710.631V14.756H706.947ZM706.395 18.86V20.096H710.883V18.86H706.395ZM707.427 19.412C707.283 20.264 707.055 21.308 706.851 22.028H708.087C708.255 21.344 708.471 20.3 708.627 19.412H707.427ZM707.763 20.912L707.511 22.028H709.755V20.912H707.763ZM709.251 20.912V21.092C709.143 23.156 709.023 23.96 708.819 24.164C708.723 24.272 708.615 24.296 708.435 24.296C708.243 24.296 707.835 24.284 707.403 24.248C707.607 24.572 707.727 25.064 707.739 25.424C708.255 25.448 708.747 25.436 709.023 25.4C709.383 25.352 709.611 25.256 709.839 24.992C710.163 24.632 710.307 23.672 710.451 21.404C710.463 21.236 710.475 20.912 710.475 20.912H709.251ZM714.219 14.96V16.1H717.267V14.96H714.219ZM711.915 16.628V17.756H716.871V16.628H711.915ZM711.255 16.628V19.736C711.255 21.26 711.183 23.36 710.271 24.824C710.559 24.956 711.111 25.352 711.327 25.58C712.335 23.972 712.503 21.464 712.503 19.736V16.628H711.255ZM712.683 18.548L712.803 19.508L716.079 19.208L715.983 18.26L712.683 18.548ZM716.523 16.628V16.784C716.463 17.468 716.355 18.32 716.259 18.848L717.315 19.1C717.471 18.512 717.651 17.576 717.771 16.772L716.895 16.58L716.691 16.628H716.523ZM713.103 21.236C713.043 22.82 712.899 23.972 711.843 24.668C712.119 24.884 712.455 25.328 712.599 25.628C713.955 24.716 714.219 23.216 714.279 21.236H713.103ZM714.903 21.236V24.008C714.903 24.692 714.951 24.896 715.155 25.1C715.347 25.304 715.659 25.376 715.959 25.376C716.115 25.376 716.415 25.376 716.607 25.376C716.835 25.376 717.099 25.316 717.267 25.22C717.459 25.088 717.579 24.92 717.663 24.668C717.735 24.428 717.795 23.84 717.819 23.276C717.495 23.168 717.051 22.928 716.835 22.724C716.847 23.228 716.823 23.66 716.799 23.84C716.787 23.948 716.739 24.032 716.703 24.068C716.667 24.116 716.583 24.128 716.511 24.128C716.439 24.128 716.355 24.128 716.295 24.128C716.235 24.128 716.163 24.104 716.139 24.056C716.091 24.032 716.091 23.96 716.091 23.888V21.236H714.903ZM713.595 14.312V17.144H714.963V14.312H713.595ZM713.643 17.66V19.364C713.643 20.348 713.859 20.84 714.879 20.84C715.119 20.84 715.899 20.84 716.151 20.84C716.463 20.84 716.835 20.816 717.039 20.744C716.991 20.432 716.967 20.084 716.931 19.724C716.763 19.784 716.331 19.808 716.091 19.808C715.899 19.808 715.299 19.808 715.131 19.808C714.879 19.808 714.855 19.676 714.855 19.388V17.66H713.643ZM722.067 24.5H723.711V15.62H721.587L718.287 20.996V22.208H724.767V20.852H720.003L721.371 18.644C721.623 18.164 721.863 17.672 722.091 17.192H722.139C722.115 17.72 722.067 18.524 722.067 19.04V24.5ZM727.333 24.5H729.121C729.277 21.032 729.541 19.208 731.605 16.688V15.62H725.713V17.096H729.709C728.005 19.448 727.501 21.428 727.333 24.5ZM734.411 24.5H736.199C736.355 21.032 736.619 19.208 738.683 16.688V15.62H732.791V17.096H736.787C735.083 19.448 734.579 21.428 734.411 24.5ZM742.546 24.668C744.25 24.668 745.678 23.732 745.678 22.1C745.678 20.924 744.91 20.192 743.902 19.904V19.844C744.85 19.484 745.378 18.776 745.378 17.828C745.378 16.304 744.214 15.464 742.498 15.464C741.466 15.464 740.614 15.884 739.846 16.544L740.746 17.636C741.274 17.144 741.79 16.844 742.426 16.844C743.182 16.844 743.614 17.264 743.614 17.96C743.614 18.752 743.086 19.304 741.454 19.304V20.576C743.386 20.576 743.902 21.116 743.902 21.992C743.902 22.784 743.29 23.24 742.378 23.24C741.574 23.24 740.938 22.832 740.41 22.316L739.57 23.432C740.194 24.152 741.142 24.668 742.546 24.668ZM748.064 26.924C749.192 25.076 749.852 23.12 749.852 20.72C749.852 18.332 749.192 16.364 748.064 14.516L746.96 14.984C747.968 16.736 748.436 18.764 748.436 20.72C748.436 22.688 747.968 24.716 746.96 26.468L748.064 26.924Z" fill="white"/>
</svg>
