<svg id="圖層_3" data-name="圖層 3" xmlns="http://www.w3.org/2000/svg" viewBox="0 0 1440 700"><defs><style>.cls-1{fill:#333;}.cls-2{fill:#006837;}.cls-3{fill:none;stroke:#006837;stroke-miterlimit:10;stroke-width:3px;}</style></defs><path class="cls-1" d="M198.6,471.65v4.52c0,.6-.13.91-.51,1.09a4.68,4.68,0,0,1-1.86.2,4.16,4.16,0,0,0-.33-1h1.41c.18,0,.26-.05.26-.27V472l-1.79.59-.28-1.08c.57-.15,1.29-.38,2.07-.62V467.8h-1.88v-1h1.88v-3h1v3h1.61v1H198.6v2.76c.5-.15,1-.32,1.49-.48l.15,1Zm6.57.42v1.31h3.39v.9h-3.39v2a10.1,10.1,0,0,0,1.38.09h2.93a3.25,3.25,0,0,0-.35,1h-2.61c-2.31,0-3.87-.45-4.92-2.22a6.7,6.7,0,0,1-1.56,2.42,4.19,4.19,0,0,0-.84-.63,7.28,7.28,0,0,0,2.06-4.58l1,.14c-.08.51-.17,1-.29,1.45a3.48,3.48,0,0,0,2.15,2.13v-4h-3v-.88h3v-1.25h-3.92V469h3.92V467.9h-3V467h3v-1h-3.71v-.91h3.71v-1.34h1v1.34h4V466h-4v1h3.24v2h1.08v.91h-1.08v2.13Zm0-3h2.21V467.9h-2.21Zm0,2.16h2.21v-1.25h-2.21Z"/><path class="cls-1" d="M214.61,471.05a16.22,16.22,0,0,1-1.13,3.78c.29.18.62.45,1.14.75a7.94,7.94,0,0,0,4.19.75c1.93,0,4.35-.15,6-.31a3.92,3.92,0,0,0-.35,1.15c-1.11.08-3.94.17-5.73.17a8.23,8.23,0,0,1-4.38-.83c-.6-.36-1.17-.87-1.5-.87s-.84.95-1.27,1.89l-.77-1a5.78,5.78,0,0,1,1.64-1.76,12.66,12.66,0,0,0,.94-3h-2c.42-.88.93-2.16,1.35-3.34h-1.74v-1h3.16c-.39,1.08-.88,2.34-1.3,3.38h.84l.16,0Zm-2-4.45c-.18-.65-.51-1.67-.76-2.45l1-.28c.25.78.6,1.75.79,2.4Zm3.35.4h-1v-2.7h9.3V467h-1.08v-1.81H216Zm3.09,8.55v-1.24H215v-.86h4.05v-.91h-3.27v-4.25h3.27v-.9h-2.94v-.84h2.94v-.76h1.08v.76H223v.84h-2.82v.9h3.31v4.25h-3.31v.91h4.2v.86h-4.2v1.24Zm-2.28-5.5h2.28v-1h-2.28Zm2.28,1.72v-1h-2.28v1Zm1.08-2.71v1h2.29v-1Zm2.29,1.72h-2.29v1h2.29Z"/><path class="cls-1" d="M228.27,473.54a23.79,23.79,0,0,1-1,3.6,5.54,5.54,0,0,0-1-.34,16.16,16.16,0,0,0,1-3.47Zm3.18-1q-.06-.31-.18-.75c-3.73.6-4.24.69-4.54.87a7.85,7.85,0,0,0-.38-1.08c.35-.06.71-.43,1.22-1,.27-.26.81-.89,1.45-1.68a9.3,9.3,0,0,0-2.37.37,10.12,10.12,0,0,0-.36-1c.27-.06.56-.37.93-.79a22.32,22.32,0,0,0,2.36-3.75l1.06.46a24.53,24.53,0,0,1-2.71,3.93l1.81-.15A23.09,23.09,0,0,0,231,466l1,.62a32,32,0,0,1-3.69,4.68L231,471c-.17-.49-.33-1-.51-1.42l.93-.24a17.24,17.24,0,0,1,1,3Zm-1.56.66a25.7,25.7,0,0,1,.48,3.11l-1,.25a27.79,27.79,0,0,0-.43-3.13Zm1.62-.42a18.43,18.43,0,0,1,.78,2.25l-.9.33a15.89,15.89,0,0,0-.75-2.28Zm8.45,2.69v1.08h-8v-1.08h3.6V466h-3v-1.09h7.21V466h-3.07v9.5Z"/><path class="cls-1" d="M245.82,472.87c0-.26-.09-.56-.15-.86-3,.44-3.45.54-3.72.69a11.11,11.11,0,0,0-.36-1.06c.32-.08.65-.44,1.1-1a19.3,19.3,0,0,0,1.23-1.67,8.83,8.83,0,0,0-2.06.36c-.06-.22-.24-.73-.36-1,.26-.06.51-.36.8-.82a19.13,19.13,0,0,0,1.92-3.75l1,.43a23.82,23.82,0,0,1-2.26,4l1.56-.15a21.48,21.48,0,0,0,1.11-2l1,.57a29.61,29.61,0,0,1-3.35,4.84l2.16-.28c-.13-.51-.28-1-.45-1.49l.86-.22a21.16,21.16,0,0,1,.87,3.18Zm-2.7.63a19.58,19.58,0,0,1-.76,3.69,6.68,6.68,0,0,0-.86-.32,15,15,0,0,0,.72-3.52Zm1.4-.18c.16,1,.33,2.32.37,3.19l-.88.17a28,28,0,0,0-.33-3.21Zm1.33-.36a16.27,16.27,0,0,1,.75,2.4l-.82.27a19.1,19.1,0,0,0-.71-2.45Zm4.52-.92a7.25,7.25,0,0,1-3.36,4.73,3.86,3.86,0,0,0-.65-.8,5.93,5.93,0,0,0,2.75-3.19h-1.94v-.93h2.37l.18-.05Zm4.62-.24c-.68.62-1.44,1.31-2.1,1.8a6.42,6.42,0,0,0,2.44,2.34,4.29,4.29,0,0,0-.73.89,8.06,8.06,0,0,1-2.84-3.41v2.82c0,.57-.12.87-.52,1.05a5.39,5.39,0,0,1-2,.2,4.34,4.34,0,0,0-.33-1c.7,0,1.33,0,1.51,0s.26-.06.26-.24V470.6h-3v-5.25H250a11.2,11.2,0,0,0,.51-1.59l1.24.26c-.21.45-.43.93-.63,1.33h3.38v5.25h-2.75v.54a9.26,9.26,0,0,0,.71,1.73,19.2,19.2,0,0,0,1.68-1.74Zm-6.23-4.26h4.67v-1.3h-4.67Zm0,2.18h4.67v-1.34h-4.67Z"/><path class="cls-1" d="M261.36,469a16.17,16.17,0,0,1-1.23,5.32c1.89,1.49,4.46,1.74,7.14,1.76.59,0,2.66,0,3.44,0a3.79,3.79,0,0,0-.44,1.11h-3c-2.91,0-5.57-.33-7.58-1.92a6.71,6.71,0,0,1-2.26,2.32,4,4,0,0,0-.65-.94,5.74,5.74,0,0,0,2.12-2.12,9.33,9.33,0,0,1-1.79-3l.86-.4a7.23,7.23,0,0,0,1.39,2.44,13.44,13.44,0,0,0,.95-3.73h-2.88c.72-1.14,1.66-2.81,2.41-4.28H257v-1h4.44c-.7,1.38-1.63,3.08-2.38,4.37h1.54l.18,0Zm8.94,5.76h-8.38v-1h1v-6.37H264v6.37h1.88v-7.95c-1.11.15-2.27.26-3.33.33a4.67,4.67,0,0,0-.3-.94,35.79,35.79,0,0,0,7.12-1.11l.72.9a23.07,23.07,0,0,1-3.1.67v3.2h3v1h-3v3.87h3.31Z"/><path class="cls-1" d="M276.84,464.14a23.1,23.1,0,0,1-1.54,3.21v10.09h-1.08V469a15,15,0,0,1-1.5,1.83,6,6,0,0,0-.63-1.09,17.07,17.07,0,0,0,3.7-6Zm8.4,1.63V474h-1.06v-.74h-2.57v4.2h-1.12v-4.2H278v.81h-1v-8.31h3.51v-2h1.12v2Zm-7.23,1V469h2.48v-2.17Zm2.48,5.43V470H278v2.24Zm1.12-5.43V469h2.57v-2.17Zm2.57,5.43V470h-2.57v2.24Z"/><path class="cls-1" d="M291.72,472.87c0-.26-.09-.56-.15-.86-3,.44-3.45.54-3.72.69a11.11,11.11,0,0,0-.36-1.06c.32-.08.65-.44,1.1-1a19.3,19.3,0,0,0,1.23-1.67,8.83,8.83,0,0,0-2.06.36c-.06-.22-.24-.73-.36-1,.26-.06.51-.36.8-.82a19.13,19.13,0,0,0,1.92-3.75l1,.43a23.82,23.82,0,0,1-2.26,4l1.56-.15a21.48,21.48,0,0,0,1.11-2l1,.57a29.61,29.61,0,0,1-3.35,4.84l2.16-.28c-.13-.51-.28-1-.45-1.49l.86-.22a21.16,21.16,0,0,1,.87,3.18Zm-2.7.63a19.58,19.58,0,0,1-.76,3.69,6.68,6.68,0,0,0-.86-.32,15,15,0,0,0,.72-3.52Zm1.4-.18c.16,1,.33,2.32.37,3.19l-.88.17a28,28,0,0,0-.33-3.21Zm1.33-.36a16.27,16.27,0,0,1,.75,2.4l-.82.27a19.1,19.1,0,0,0-.71-2.45Zm4.52-.92a7.25,7.25,0,0,1-3.36,4.73,3.86,3.86,0,0,0-.65-.8,5.93,5.93,0,0,0,2.75-3.19h-1.94v-.93h2.37l.18-.05Zm4.62-.24c-.68.62-1.44,1.31-2.1,1.8a6.42,6.42,0,0,0,2.44,2.34,4.29,4.29,0,0,0-.73.89,8.06,8.06,0,0,1-2.84-3.41v2.82c0,.57-.12.87-.52,1.05a5.39,5.39,0,0,1-2,.2,4.34,4.34,0,0,0-.33-1c.7,0,1.33,0,1.51,0s.26-.06.26-.24V470.6h-3v-5.25h2.3a11.2,11.2,0,0,0,.51-1.59l1.24.26c-.21.45-.43.93-.63,1.33h3.38v5.25h-2.75v.54a9.26,9.26,0,0,0,.71,1.73,19.2,19.2,0,0,0,1.68-1.74Zm-6.23-4.26h4.67v-1.3h-4.67Zm0,2.18h4.67v-1.34h-4.67Z"/><path class="cls-1" d="M307.82,471.34l-1.88.55v4.23c0,.65-.15.95-.52,1.13a5,5,0,0,1-2,.21,4.14,4.14,0,0,0-.34-1h1.5c.21,0,.28-.06.28-.29v-3.88c-.66.18-1.29.37-1.86.54l-.3-1.14c.6-.14,1.35-.33,2.16-.56v-3.21h-1.95v-1.09h1.95v-3h1.11v3h1.74v1.09h-1.74v2.9l1.74-.5Zm7.89-4.89v10.87h-1.13v-.72h-5v.83h-1.09v-11H311a18.94,18.94,0,0,0,.64-2.66l1.28.15c-.24.84-.54,1.77-.81,2.51Zm-6.14,1.06V471h5v-3.44Zm5,8V472h-5v3.54Z"/><path class="cls-1" d="M322.91,472.78a24.59,24.59,0,0,0-1.37-2.16v6.82h-1.06v-7.08a15.62,15.62,0,0,1-2,4.31,6.25,6.25,0,0,0-.57-1,16.62,16.62,0,0,0,2.44-5.65h-2.1v-1h2.24v-3.21h1.06V467h1.94v1h-1.94v1.3c.47.53,1.76,2.18,2.06,2.58Zm8.47-4.08a13.38,13.38,0,0,1-2.43,5.74,8.14,8.14,0,0,0,3,2.12,4.85,4.85,0,0,0-.75.93,8.71,8.71,0,0,1-2.91-2.24,9.89,9.89,0,0,1-3,2.19,4,4,0,0,0-.69-.88,8.64,8.64,0,0,0,3-2.15,15.54,15.54,0,0,1-2.19-4.87h-.08c-.06,2.46-.4,5.68-2.07,7.87a4.4,4.4,0,0,0-.88-.66c1.71-2.29,1.87-5.52,1.87-7.89v-4.18h7.31v1h-6.23v2.81h5.19l.2,0Zm-5,.84a13.22,13.22,0,0,0,1.87,4,11.64,11.64,0,0,0,1.88-4Z"/><path class="cls-1" d="M340,468.65h-6.51v-1h2.84v-1.42H334v-1h2.28v-1.55h1.05v1.55h2.17v1h-2.17v1.42H340Zm-2.61,5.79v3h-1.05v-3h-2.85v-1h2.85v-1.56H334v-1h3.51a16.5,16.5,0,0,0,.72-2.19l1,.24c-.26.66-.51,1.38-.75,1.95h1.29v1h-2.3v1.56h2.67v1Zm-2.16-3.52a7.93,7.93,0,0,0-.75-1.94l.8-.27a6.7,6.7,0,0,1,.79,1.89Zm10.34-4.23c-.06,5-.11,9.33.75,9.54a6,6,0,0,0,.25-2.15,4,4,0,0,0,.68.72c-.11,2.24-.57,2.75-1.29,2.49-1.5-.45-1.49-4.51-1.46-9.55H342.9v.58a21.62,21.62,0,0,1-.22,3.36,10.88,10.88,0,0,1,1.65,1.82l-.68.85a9.93,9.93,0,0,0-1.21-1.44,9.2,9.2,0,0,1-2.55,4.61,5.59,5.59,0,0,0-.86-.68,8.57,8.57,0,0,0,2.51-4.78,14.82,14.82,0,0,0-1.73-1.44l.63-.74c.42.29.87.63,1.29,1a20.15,20.15,0,0,0,.12-2.54v-.58h-1.69v-1.05h1.69v-2.91h1v2.91Z"/><path class="cls-1" d="M353.69,467.35a20,20,0,0,1-1.65,2.26v7.89h-1.11v-6.66a16,16,0,0,1-1.7,1.56,10.4,10.4,0,0,0-.78-.93,16.18,16.18,0,0,0,4.2-4.51Zm-.59-3.17a18.06,18.06,0,0,1-3.84,3.72,8.08,8.08,0,0,0-.66-.88,14.74,14.74,0,0,0,3.44-3.26Zm9.2,5.66H360V476c0,.69-.16,1-.66,1.22a11.68,11.68,0,0,1-2.82.16,3.71,3.71,0,0,0-.36-1.08c1.07,0,2.06,0,2.34,0s.38-.08.38-.33v-6.18h-5v-1.07h8.4Zm-.44-4.11h-7.32v-1.05h7.32Z"/><path class="cls-1" d="M365.51,472.7a2.62,2.62,0,0,0,1.89-2.2h-.26a1,1,0,0,1-1.12-1.06,1,1,0,0,1,1.14-1.08c.82,0,1.27.67,1.27,1.72a3.59,3.59,0,0,1-2.59,3.41Z"/><path class="cls-1" d="M379.82,471a15,15,0,0,0,5.73,4.71,4.67,4.67,0,0,0-.81.95,16.68,16.68,0,0,1-5.57-4.85v5.67H378v-5.61a16.45,16.45,0,0,1-5.52,4.77,6.42,6.42,0,0,0-.81-.91,14.94,14.94,0,0,0,5.7-4.73h-5.3V469.9H378v-2.58h-4.85v-1.1H378v-2.44h1.15v2.44h5v1.1h-5v2.58h6V471Z"/><path class="cls-1" d="M394.44,470.5a13.38,13.38,0,0,0,6.39,5.32,4.8,4.8,0,0,0-.82,1,14.66,14.66,0,0,1-5.57-4.54v5.19H393.3v-5.15a15.52,15.52,0,0,1-5.49,4.46,4.54,4.54,0,0,0-.78-.93,14.38,14.38,0,0,0,6.27-5.24v-3.66h-5.74v-1.09h5.74v-2.07h1.14v2.07h6v1.09h-6Zm-3.19-3a11.48,11.48,0,0,1-.59,1.77,23,23,0,0,1,1.7,1.65l-.77.77a19.06,19.06,0,0,0-1.39-1.46,8.13,8.13,0,0,1-1.89,2.36,6.36,6.36,0,0,0-.89-.72,7.62,7.62,0,0,0,2.73-4.56Zm7,0a10.7,10.7,0,0,1-.51,1.77,29.12,29.12,0,0,1,2.7,2.31l-.79.76a25.28,25.28,0,0,0-2.34-2.14,7.11,7.11,0,0,1-1.32,1.77,5.49,5.49,0,0,0-.93-.6,7.13,7.13,0,0,0,2.13-4Z"/><path class="cls-1" d="M199.11,489.1h1v13.68h-1v-5.23h-1.63v.36a10.07,10.07,0,0,1-1.08,4.9,2.84,2.84,0,0,0-.86-.54,8.92,8.92,0,0,0,1-4.39v-.33h-.81v-1h3.43v-2.21h-2.8v-4.68h1v3.71h1.81Zm9.72,1.55c-1.3,3.24-4.44,5.1-7.59,6a3.24,3.24,0,0,0-.55-.83,12.28,12.28,0,0,0,4.51-2.08,10.94,10.94,0,0,0-1.89-2,13.63,13.63,0,0,1-2.2,1.24l-.69-.69a10.21,10.21,0,0,0,4.29-3.18l1.08.32a7.52,7.52,0,0,1-.86,1h3l.2-.05Zm.5,7.08h-1.94v3.58c0,.63-.13.95-.58,1.13a7.57,7.57,0,0,1-2.37.19,4,4,0,0,0-.36-1.06c.9,0,1.71,0,1.93,0s.32-.06.32-.27v-3.57h-5.67v-1h5.67v-2.12h1.06v2.12h1.94Zm-5.39-3.8c-1.09.17-2.13.3-3,.44l-.2-.84c.86-.08,2-.23,3.18-.38Zm-1.35,4.16a10.92,10.92,0,0,1,2,2.4l-.91.57a11.65,11.65,0,0,0-1.92-2.46Zm1.43-6.92,0,0a12,12,0,0,1,1.91,1.93,7.13,7.13,0,0,0,1.56-1.95Z"/><path class="cls-1" d="M224.58,498.24v1H211.07v-1h1.51l-.28-7.92a23.61,23.61,0,0,0,2.77-1.16l.54.92c-.69.28-1.51.57-2.28.81l.06,1.75h2v1h-2l.06,1.83h2v1h-1.93l.06,1.85h8.5c0-.53.08-1.16.11-1.8h-1.95v-.95h2c0-.6,0-1.21.07-1.84h-2v-1h2c0-.65,0-1.28,0-1.88h-2.16v-1h3.18c0,2.62-.09,6.18-.23,8.4Zm-8.19,1.95a23.68,23.68,0,0,1-4.47,2.56c-.15-.22-.45-.6-.66-.84a16.78,16.78,0,0,0,4.17-2.4Zm1.16-5.37a7.51,7.51,0,0,1-.92,2.8,5.21,5.21,0,0,0-.78-.48,5.83,5.83,0,0,0,.83-2.47Zm1-.8H216.2v-4.84h1v1.39h2.48v.95h-2.48v1.6h2v0h.4v3.94c0,.47-.09.66-.42.81a4.64,4.64,0,0,1-1.57.14,3.28,3.28,0,0,0-.29-.77c.53,0,1,0,1.13,0s.19-.06.19-.2Zm1.29,5.45a36.84,36.84,0,0,1,4.37,2.4l-.74.84a34.89,34.89,0,0,0-4.24-2.48Z"/><path class="cls-1" d="M235.47,490.78a24.23,24.23,0,0,1,4,4.35l-.94.68a10.24,10.24,0,0,0-.92-1.29c-8.56.48-9.43.51-10,.72a7.77,7.77,0,0,0-.36-1.1,3,3,0,0,0,1.22-.88,24.89,24.89,0,0,0,3.45-4.23l1.09.49a32.14,32.14,0,0,1-3.84,4.41l7.65-.37a28.44,28.44,0,0,0-2.17-2.21Zm-7.12,5.72h9.54v6.24h-1.17V502h-7.25v.81h-1.12Zm1.12,1.06v3.32h7.25v-3.32Z"/><path class="cls-1" d="M248.87,491.62c-.08.56-.17,1.11-.24,1.59h5.56v8.27c0,.66-.16,1-.64,1.12a9,9,0,0,1-2.54.18,4.75,4.75,0,0,0-.4-1c.94,0,1.86,0,2.11,0s.35-.09.35-.33v-7.23h-9.29v8.52h-1.09v-9.56h4.87c.08-.46.14-1,.2-1.59h-5.88v-1.05h6c0-.54.09-1.06.11-1.51l1.2.13c0,.44-.11.92-.17,1.38h6v1.05Zm0,8.22v2.64h-1.06v-2.64h-3.23v-.93h3.23V497.4h-2.91v-.92h1.57a7.32,7.32,0,0,0-.82-1.77l.88-.22a6.73,6.73,0,0,1,.87,1.74l-.81.25h2.69a17.9,17.9,0,0,0,.85-2.05l1,.22c-.29.63-.59,1.28-.87,1.83H252v.92h-3.09v1.51h3.35v.93Z"/><path class="cls-1" d="M260.78,489.45a29.3,29.3,0,0,1-1.2,3v10.33h-1v-8.43a14.14,14.14,0,0,1-1.41,2,9.26,9.26,0,0,0-.58-1.12,17.83,17.83,0,0,0,3.21-6Zm9.1,3.49a18.93,18.93,0,0,1-1.59,6.2,7.09,7.09,0,0,0,2.45,2.76,4,4,0,0,0-.69.88,7.62,7.62,0,0,1-2.31-2.67A8.87,8.87,0,0,1,265,502.8a5.63,5.63,0,0,0-.71-.77,7.59,7.59,0,0,0,2.93-2.94,17.18,17.18,0,0,1-1.13-4.2,9.48,9.48,0,0,1-.72,1.35l-.27-.37v5.26h-3.39v1h-1v-6.27h1.68V493h-2.07v-1h2.07v-2.73h1.07V492h1.93v1h-1.93v2.84h1.6a3.2,3.2,0,0,0-.4-.45,16.53,16.53,0,0,0,2-6.3l1,.16a27.34,27.34,0,0,1-.57,2.72h3.49v1Zm-5.76,3.87h-2.4v3.35h2.4Zm2.7-3.87c0,.11-.06.2-.09.29a19.67,19.67,0,0,0,1,4.74,18.51,18.51,0,0,0,1.12-5Z"/><path class="cls-1" d="M285,496.11v4.8h-1.18v-.6h-4.23v2.46h-1.17v-2.46h-4.13v.63h-1.12v-4.83h5.25v-1.25h-4.67v-4.05h4.67v-1.72h1.17v1.72h4.75v4.05h-4.75v1.25Zm-6.58,3.19v-2.16h-4.13v2.16Zm0-5.43V491.8h-3.54v2.07Zm1.17-2.07v2.07h3.57V491.8Zm4.23,7.5v-2.16h-4.23v2.16Z"/><path class="cls-1" d="M291.93,490.74v12h-1V500c-1.2.19-2.35.4-3.31.58l-.23-1,.92-.14v-8.71h-.75v-1h4.92v1Zm-1,0h-1.69v2.1H291Zm0,3h-1.69v2.15H291Zm0,5.27v-2.19h-1.69v2.44Zm5-5.37a22.79,22.79,0,0,1,.77,2.44l-.74.24c0-.21-.12-.48-.19-.78a13.09,13.09,0,0,0-3.23.53,6.46,6.46,0,0,0-.27-1,1.87,1.87,0,0,0,.87-.72,15.81,15.81,0,0,0,1-1.35,4.1,4.1,0,0,0-1.51.24,8.75,8.75,0,0,0-.29-1c.21,0,.39-.24.6-.52a10.26,10.26,0,0,0,1.38-2.51l.84.39a15,15,0,0,1-1.66,2.72l1.17-.06c.25-.41.52-.87.75-1.31l.79.42a24.13,24.13,0,0,1-2.65,3.69l1.95-.19c-.11-.35-.23-.69-.33-1Zm-.64,2.77h1v2.31a4.26,4.26,0,0,1-2.6,4.14,3,3,0,0,0-.61-.76,3.4,3.4,0,0,0,2.14-2.39h-2.08v-3.3H294v2.34h1.28v-2.34Zm5-3c.36.8.78,1.88,1,2.51l-.72.28a7.64,7.64,0,0,0-.27-.81A14,14,0,0,0,297,496a6.24,6.24,0,0,0-.25-1c.24,0,.49-.31.81-.7.16-.21.54-.74,1-1.41a5.33,5.33,0,0,0-1.61.24,8.88,8.88,0,0,0-.27-1,1.24,1.24,0,0,0,.59-.5,11.48,11.48,0,0,0,1.33-2.44l.78.36a13.52,13.52,0,0,1-1.53,2.58l1.17-.06c.21-.38.44-.8.62-1.2l.79.4a21.45,21.45,0,0,1-2.31,3.6l1.92-.22c-.12-.36-.27-.71-.4-1Zm-.78,3.09h.93v3.74h-.93v-.57h-1.27v3.07h-1v-6.37h1v2.32h1.27Z"/><path class="cls-1" d="M304.31,498a2.62,2.62,0,0,0,1.89-2.2h-.26a1,1,0,0,1-1.12-1.06,1,1,0,0,1,1.14-1.08c.82,0,1.27.67,1.27,1.72a3.59,3.59,0,0,1-2.59,3.41Z"/><path class="cls-1" d="M313.76,494.47c.4.56,1.48,2.22,1.74,2.61l-.6.83c-.21-.48-.72-1.41-1.14-2.16v7h-1V495.9A16.89,16.89,0,0,1,311,500a7.42,7.42,0,0,0-.58-1,16.5,16.5,0,0,0,2.2-5.62h-1.89v-1h2v-3.24h1v3.24h1.65v1h-1.65Zm7.9-2a7.67,7.67,0,0,0,2.78,2.27,3.72,3.72,0,0,0-.71.81,8.08,8.08,0,0,1-1.56-1.16v1.77h-4.78V494.4a9.17,9.17,0,0,1-1.61,1.18,2.3,2.3,0,0,0-.69-.73,7.63,7.63,0,0,0,2.69-2.39h-2.22v-.88h2.73a6.74,6.74,0,0,0,.37-1c-.88.06-1.77.09-2.58.1a3,3,0,0,0-.25-.76,42.61,42.61,0,0,0,6.73-.66l.66.75a28.73,28.73,0,0,1-3.46.49,10.88,10.88,0,0,1-.38,1h4.71v.88Zm2.18,9.15c0,.53-.11.81-.5,1a6.21,6.21,0,0,1-1.93.16,3.8,3.8,0,0,0-.36-.93c.7,0,1.32,0,1.51,0s.26-.06.26-.23v-3.88h-6.05v5h-1v-5.93h8.1Zm-5.13-.3V502h-.84v-3.43h3.82v2.77Zm.22-8.85a7.62,7.62,0,0,1-.6.92h2.91a9.36,9.36,0,0,1-.63-.92Zm2.25,1.65h-2.83v1.31h2.83Zm-2.47,5.15v1.32h2.13v-1.32Z"/><path class="cls-1" d="M332.12,500.59c-2.12.51-4.37,1-6,1.35l-.29-1c1.13-.21,2.69-.53,4.34-.87l-.75-.23a23.52,23.52,0,0,0,.67-3l1.07.27c-.29,1-.59,2.18-.87,3l1.74-.36Zm-.2-9.67h-5.86v-1h5.86Zm-.34,5.43h-5.12v-4h5.12Zm-4.19,3.57a9.43,9.43,0,0,0-.57-2.78l.9-.22a9.15,9.15,0,0,1,.63,2.76Zm3.17-6.66h-3.12v2.17h3.12Zm4.6,7.56a10.3,10.3,0,0,1-3.28,2,7.33,7.33,0,0,0-.74-.73,8.91,8.91,0,0,0,3.05-1.79Zm-.3-8.64c.11-.45.23-1,.3-1.43h-2.83v-1h7.18v1h-3.12c-.15.5-.28,1-.43,1.43H339V500h-6.25v-7.77Zm3.12.87h-4.17v1.45H338Zm0,2.25h-4.17v1.47H338Zm0,2.29h-4.17v1.49H338Zm-.72,2.75a17.43,17.43,0,0,1,2.57,1.84l-.89.6a17.72,17.72,0,0,0-2.52-1.9Z"/><path class="cls-1" d="M354.74,500.59h-6.2v2.22h-1.12v-2.22h-6.06v-1h6.06v-1.23h-4.5v-5.81h4.5v-1.09h-5.61v-1h5.61v-1.35h1.12v1.35h5.69v1h-5.69v1.09h4.62v5.81h-4.62v1.23h6.2ZM344,495h3.44v-1.53H344Zm3.44,2.43V495.9H344v1.54Zm1.12-4V495h3.51v-1.53Zm3.51,2.42h-3.51v1.54h3.51Z"/><path class="cls-1" d="M362.36,498.84l.1,1-5.62,1.42-.27-1.09c.87-.2,2-.44,3.24-.74a53.15,53.15,0,0,0,1-6l1.05.2c-.3,1.75-.7,4-1.09,5.61Zm-5.61-7h5.79v1h-5.79Zm1.48,1.72a43.47,43.47,0,0,1,.77,5.34l-.95.18a37.64,37.64,0,0,0-.72-5.35Zm1.26-1.87a12.81,12.81,0,0,0-1-2.28l.93-.29a9.72,9.72,0,0,1,1.07,2.22Zm6.89,1.51v3h3.15v6.51H368.4v-.65h-4.5v.71h-1.08V496.2h2.43v-7.13h1.13v3.11h3.78v1.06Zm2,4h-4.5V501h4.5Z"/><path class="cls-1" d="M382.13,501.25c1.63,0,1.87-.49,2.08-2.91a3.3,3.3,0,0,0,1.13.45c-.29,2.75-.78,3.56-3.23,3.56H376.5c-2.4,0-3.15-.42-3.15-2.27v-7.5h1.13V495h7.83v-3.93h-9.75V490h10.89v6.87h-1.14v-.75h-7.83v4c0,.94.33,1.15,1.95,1.15Z"/><path class="cls-1" d="M391.55,498.09a7.33,7.33,0,0,0-.17-.8c-3.18.48-3.63.59-3.93.74a6.46,6.46,0,0,0-.36-1c.33-.07.68-.45,1.11-1,.23-.27.69-.9,1.23-1.69a8.37,8.37,0,0,0-2.07.34c-.06-.22-.22-.7-.34-1,.25-.06.51-.36.82-.82a20,20,0,0,0,2-3.78l1,.4a24.81,24.81,0,0,1-2.28,4l1.55-.12c.37-.63.76-1.32,1.08-2l1,.57a29.87,29.87,0,0,1-3.33,4.83l2.35-.32c-.16-.49-.33-1-.51-1.47l.86-.22a19,19,0,0,1,1,3.07Zm-2.88.75a18.87,18.87,0,0,1-.77,3.67c-.19-.1-.66-.25-.88-.34a17.26,17.26,0,0,0,.72-3.5Zm1.45-.2a23.59,23.59,0,0,1,.42,3.15l-.9.15a25.94,25.94,0,0,0-.37-3.15Zm1.4-.39a16.66,16.66,0,0,1,.76,2.51l-.82.28a20,20,0,0,0-.74-2.53Zm9.15,3.15v1h-8.54v-1h3.81v-2.85h-3v-1h7.11v1h-3v2.85ZM394.26,497a15.09,15.09,0,0,0-1.78-3,26.33,26.33,0,0,0,1.57-2.76l1,.26c-.41.76-1,1.72-1.47,2.47a17.79,17.79,0,0,1,1.65,2.6Zm6.27-6.2h-7.9v-1h7.9Zm-2.92.75c-.42.75-1,1.71-1.5,2.45a19.18,19.18,0,0,1,1.69,2.55l-.91.42a14.13,14.13,0,0,0-1.88-2.94,27.52,27.52,0,0,0,1.62-2.73Zm1.93,5.45a15.94,15.94,0,0,0-2-3,25.63,25.63,0,0,0,1.68-2.76l1,.27c-.44.77-1.05,1.71-1.55,2.46a17.2,17.2,0,0,1,1.8,2.55Z"/><path class="cls-1" d="M209.28,523.54v1H195.77v-1h1.51l-.28-7.92a25.5,25.5,0,0,0,2.77-1.15l.54.91c-.69.29-1.51.57-2.28.81l.06,1.76h2v1h-2l.06,1.83h2v1h-1.93l.06,1.84h8.5c0-.52.08-1.15.11-1.8h-2v-.94h2c0-.6,0-1.22.07-1.85h-2v-1h2c0-.64,0-1.27,0-1.87h-2.16v-1h3.18c0,2.63-.09,6.18-.23,8.4Zm-8.19,2a23.72,23.72,0,0,1-4.47,2.57,9.28,9.28,0,0,0-.66-.84,17.43,17.43,0,0,0,4.17-2.4Zm1.16-5.37a7.56,7.56,0,0,1-.92,2.81,4,4,0,0,0-.78-.48,5.83,5.83,0,0,0,.83-2.48Zm1-.79H200.9v-4.85h1v1.4h2.48v.94h-2.48v1.61h2.37v3.95c0,.46-.09.66-.42.81a5,5,0,0,1-1.57.13,3.05,3.05,0,0,0-.29-.76,8.56,8.56,0,0,0,1.13,0c.16,0,.19-.06.19-.19Zm1.29,5.44a36.84,36.84,0,0,1,4.37,2.4l-.74.84a33.69,33.69,0,0,0-4.24-2.47Z"/><path class="cls-1" d="M220.17,516.09a23.58,23.58,0,0,1,4,4.35l-.94.67a11,11,0,0,0-.92-1.29c-8.56.48-9.43.51-10,.72a7.67,7.67,0,0,0-.36-1.09,2.91,2.91,0,0,0,1.22-.89,24.89,24.89,0,0,0,3.45-4.23l1.09.5a32.75,32.75,0,0,1-3.84,4.41l7.65-.38a26.61,26.61,0,0,0-2.17-2.2Zm-7.12,5.71h9.54V528h-1.17v-.78h-7.25v.81h-1.12Zm1.12,1.07v3.31h7.25v-3.31Z"/><path class="cls-1" d="M239.69,520.41a18.88,18.88,0,0,1-1.74,4.77c.27,1.21.58,1.8.93,1.8s.4-.5.46-2.19a2.89,2.89,0,0,0,.78.54c-.13,2.26-.48,2.68-1.33,2.7-.66,0-1.16-.59-1.53-1.73a10.51,10.51,0,0,1-1.65,1.86,4.5,4.5,0,0,0-.74-.7,11.37,11.37,0,0,0,.87-.83c-1.63.27-3.3.54-4.56.72l-.13-.87c.6-.07,1.35-.18,2.16-.3v-.93h-1.7v-.79h1.7v-.86c-.6.06-1.22.09-1.8.11a2.31,2.31,0,0,0-.24-.68,25.72,25.72,0,0,0,4.2-.49l.67.63a13.92,13.92,0,0,1-1.86.33v1h1.55v.79h-1.55v.81l1.76-.27v.59a9,9,0,0,0,1-1.35,44,44,0,0,1-.57-6.21H231v-.68a17.07,17.07,0,0,0-2.1-2,15,15,0,0,1-1.49,2h3.23l0,1h-1.3v1.62h1.72v1h-1.72v4.14l1.75-.4.06.91-4.59,1.17-.22-1c.58-.11,1.33-.27,2.14-.47v-4.35h-2v-1h2v-1.62h-1.26v-.74c-.22.23-.42.44-.64.63a7,7,0,0,0-.44-1.12,10.33,10.33,0,0,0,2.73-3.62l.78.39c-.09.2-.19.41-.3.62a14.22,14.22,0,0,1,2.13,1.9l-.34.69h2.08v-1.29h-1.65v-.9h1.65v-1.33h1v1.33h1.6v.9h-1.6v1.29h2.1c0-1.08-.06-2.26-.08-3.52h1.07c0,1.27,0,2.46,0,3.52H240v.92h-2.62c.07,1.92.19,3.49.34,4.74a18.51,18.51,0,0,0,1-3.33Zm-12.26,2.13a20,20,0,0,1,.54,2.74l-.73.24a18.76,18.76,0,0,0-.5-2.79Zm2.22,2.56a24.78,24.78,0,0,0,.62-2.73l.76.27c-.25.92-.52,2-.76,2.72Zm6.15-2.83h-4.21v-2.76h4.21Zm-.88-2h-2.48v1.23h2.48Zm4.17-2.82a11.43,11.43,0,0,0-1.32-2.4l.81-.36A10,10,0,0,1,240,517Z"/><path class="cls-1" d="M244.76,519.78c.4.55,1.48,2.22,1.74,2.61l-.6.82c-.21-.48-.72-1.41-1.14-2.16v7h-1V521.2a16.54,16.54,0,0,1-1.73,4,7.31,7.31,0,0,0-.58-1,16.64,16.64,0,0,0,2.2-5.63h-1.89v-1h2v-3.24h1v3.24h1.65v1h-1.65Zm7.9-2a7.64,7.64,0,0,0,2.78,2.26,3.72,3.72,0,0,0-.71.81,8,8,0,0,1-1.56-1.15v1.77h-4.78V519.7a8.73,8.73,0,0,1-1.61,1.19,2.34,2.34,0,0,0-.69-.74,7.51,7.51,0,0,0,2.69-2.38h-2.22v-.89h2.73a5.93,5.93,0,0,0,.37-1c-.88.06-1.77.09-2.58.11a3.15,3.15,0,0,0-.25-.77,41.45,41.45,0,0,0,6.73-.66l.66.75a28.55,28.55,0,0,1-3.46.5,10.71,10.71,0,0,1-.38,1h4.71v.89Zm2.18,9.15c0,.52-.11.81-.5,1a6.14,6.14,0,0,1-1.93.17,3.65,3.65,0,0,0-.36-.93c.7,0,1.32,0,1.51,0s.26-.06.26-.22V523h-6v5h-1v-5.92h8.1Zm-5.13-.3v.66h-.84v-3.44h3.82v2.78Zm.22-8.85a8.39,8.39,0,0,1-.6.91h2.91a10.59,10.59,0,0,1-.63-.91Zm2.25,1.65h-2.83v1.3h2.83Zm-2.47,5.14v1.32h2.13v-1.32Z"/><path class="cls-1" d="M263.12,525.9c-2.12.51-4.37,1-6,1.35l-.29-1c1.13-.21,2.69-.52,4.34-.87l-.75-.22a23.52,23.52,0,0,0,.67-3l1.07.27c-.29,1-.59,2.17-.87,2.95L263,525Zm-.2-9.68h-5.86v-1h5.86Zm-.34,5.43h-5.12v-4h5.12Zm-4.19,3.57a9.31,9.31,0,0,0-.57-2.77l.9-.23a9.22,9.22,0,0,1,.63,2.76Zm3.17-6.66h-3.12v2.18h3.12Zm4.6,7.56a10.14,10.14,0,0,1-3.28,2,7.38,7.38,0,0,0-.74-.74,8.9,8.9,0,0,0,3.05-1.78Zm-.3-8.64c.11-.45.23-1,.3-1.42h-2.83v-1h7.18v1h-3.12c-.15.49-.28,1-.43,1.42H270v7.77h-6.25v-7.77Zm3.12.87h-4.17v1.46H269Zm0,2.25h-4.17v1.47H269Zm0,2.3h-4.17v1.48H269Zm-.72,2.74a18.2,18.2,0,0,1,2.57,1.85l-.89.6a17.72,17.72,0,0,0-2.52-1.91Z"/><path class="cls-1" d="M285.74,525.9h-6.2v2.22h-1.12V525.9h-6.06v-1h6.06v-1.23h-4.5v-5.8h4.5v-1.1h-5.61v-1h5.61v-1.35h1.12v1.35h5.69v1h-5.69v1.1h4.62v5.8h-4.62v1.23h6.2ZM275,520.32h3.44v-1.53H275Zm3.44,2.43V521.2H275v1.55Zm1.12-4v1.53h3.51v-1.53Zm3.51,2.41h-3.51v1.55h3.51Z"/><path class="cls-1" d="M293.36,524.14l.1,1-5.62,1.43-.27-1.1c.87-.19,2-.43,3.24-.73a53.52,53.52,0,0,0,1-6l1.05.19c-.3,1.76-.7,4-1.09,5.61Zm-5.61-7h5.79v1h-5.79Zm1.48,1.73a43.47,43.47,0,0,1,.77,5.34l-.95.18a38,38,0,0,0-.72-5.36Zm1.26-1.88a13.47,13.47,0,0,0-1-2.28l.93-.28a9.52,9.52,0,0,1,1.07,2.22Zm6.89,1.52v3h3.15V528H299.4v-.64h-4.5v.7h-1.08V521.5h2.43v-7.12h1.13v3.1h3.78v1.07Zm2,4h-4.5v3.77h4.5Z"/><path class="cls-1" d="M316.4,522.16v1.08H302.91v-1.08h3.45v-3.54h-2.85v-1.08h2.85v-3h1.13v3h4.26v-3h1.14v3h3v1.08h-3v3.54Zm-8.16,2.4A17.22,17.22,0,0,1,304,528.1a10,10,0,0,0-.89-.79,13,13,0,0,0,4-3.2Zm-.75-2.4h4.26v-3.54h-4.26Zm4.39,1.94a46.56,46.56,0,0,1,4.19,3.3l-1.05.69a45,45,0,0,0-4.1-3.42Z"/><path class="cls-1" d="M322.53,523.14a24,24,0,0,0-1.17-2.13v7h-1v-7a15.54,15.54,0,0,1-1.83,4.19,5.78,5.78,0,0,0-.57-1,16.25,16.25,0,0,0,2.28-5.63h-2v-1h2.1v-3.24h1v3.24h1.71v1h-1.71v1c.42.55,1.53,2.22,1.79,2.62Zm9.39,2.49h-1v1.27c0,.53-.1.81-.51,1a6.76,6.76,0,0,1-2,.15,4.4,4.4,0,0,0-.32-.9c.72,0,1.37,0,1.58,0s.24-.07.24-.25v-1.26h-5.12V528h-1v-2.4h-1v-.87h1V521h3v-.88H323v-.86h2.07v-1h-1.42v-.83h1.42v-1h-1.72v-.84h1.72v-1.23h1v1.23h2.42v-1.23h1.05v1.23h1.86v.84H329.6v1h1.63v.83H329.6v1h2.16v.86h-3.95V521H331v3.77h1Zm-7.11-3.8v1h2v-1Zm0,2.93h2v-1.1h-2Zm1.32-7.34h2.42v-1h-2.42Zm0,1.83h2.42v-1h-2.42Zm1.68,2.58v1h2.12v-1Zm2.12,2.93v-1.1h-2.12v1.1Z"/><path class="cls-1" d="M334.91,523.32a2.63,2.63,0,0,0,1.89-2.21,1.14,1.14,0,0,1-.26,0,1,1,0,0,1-1.12-1.07,1.05,1.05,0,0,1,1.14-1.08c.82,0,1.27.68,1.27,1.73a3.56,3.56,0,0,1-2.59,3.4Z"/><path class="cls-1" d="M354.78,523.54v1H341.27v-1h1.51l-.28-7.92a25.5,25.5,0,0,0,2.77-1.15l.54.91c-.69.29-1.51.57-2.28.81l.06,1.76h2v1h-2l.06,1.83h2v1h-1.93l.06,1.84h8.5c0-.52.08-1.15.11-1.8h-1.95v-.94h2c0-.6,0-1.22.07-1.85h-2v-1h2c0-.64,0-1.27,0-1.87h-2.16v-1h3.18c0,2.63-.09,6.18-.23,8.4Zm-8.19,2a23.72,23.72,0,0,1-4.47,2.57,9.28,9.28,0,0,0-.66-.84,17.43,17.43,0,0,0,4.17-2.4Zm1.16-5.37a7.56,7.56,0,0,1-.92,2.81,4,4,0,0,0-.78-.48,5.83,5.83,0,0,0,.83-2.48Zm1-.79H346.4v-4.85h1v1.4h2.48v.94h-2.48v1.61h2.37v3.95c0,.46-.09.66-.42.81a5,5,0,0,1-1.57.13,3.05,3.05,0,0,0-.29-.76,8.56,8.56,0,0,0,1.13,0c.16,0,.19-.06.19-.19Zm1.29,5.44a36.84,36.84,0,0,1,4.37,2.4l-.74.84a33.69,33.69,0,0,0-4.24-2.47Z"/><path class="cls-1" d="M366.9,522.49a8.31,8.31,0,0,0,3.38,2.31,4.27,4.27,0,0,0-.74.86,9.21,9.21,0,0,1-3.81-3.17H361a10.19,10.19,0,0,1-3.92,3.36,3.62,3.62,0,0,0-.72-.85,8.65,8.65,0,0,0,3.39-2.51h-3.24v-.94h3v-4.79h-2.28v-.93h2.28v-1.44h1.1v1.44h5.44v-1.44h1.13v1.44h2.25v.93h-2.25v4.79h2.89v.94Zm-3.06,4.23H369v.95H357.71v-.95h5v-1.57h-3.06v-.92h3.06V523h1.11v1.26H367v.92h-3.14Zm-3.22-10v1h5.44v-1Zm0,2.88h5.44v-1h-5.44Zm0,1.91h5.44v-1.07h-5.44Z"/><path class="cls-1" d="M374.79,523.23l1.65-.71.23,1c-1.58.74-3.26,1.49-4.56,2.07l-.44-1.11c.57-.19,1.29-.49,2.07-.82V519h-1.8V518h1.8v-3.4h1.05V518h1.62V519h-1.62Zm8.61,3.51c.87,0,1-.41,1.13-2.13a2.74,2.74,0,0,0,1,.42c-.18,2.05-.52,2.71-2.08,2.71h-3.69c-1.7,0-2.21-.4-2.21-2V521l-1.18.49-.44-1,1.62-.68v-4.08h1.07v3.62l2-.84v-4.17h1.06v3.72l2.28-1,.86.28-.06.18a54.15,54.15,0,0,1-.78,6.57l-.92-.27a51.7,51.7,0,0,0,.57-5.47l-1.95.82v5.51h-1.06V519.7l-2,.86v5.17c0,.81.19,1,1.17,1Z"/><path class="cls-1" d="M393.3,525.87l-6.1,1.48-.23-1.08.83-.18V521h.94v4.91l1.11-.26v-6.06H387.8V515h4.95v4.57h-1.89v2.16h2.19v1h-2.19v2.67c.76-.16,1.54-.34,2.32-.54Zm-4.51-7.26h2.92V516h-2.92Zm12,7.74v1.09h-7.53v-1.09h.57v-10h-.67v-1.08h7.39v1.08h-5.64v2.18h5v5.28h-5v2.55Zm-5.88-6.8v3.21h3.95v-3.21Z"/><path class="cls-1" d="M209.37,552.62h-5v.75h-1V545a6.32,6.32,0,0,1-.48.77,4.24,4.24,0,0,0-.64-.56v1.29h-2.46l-.24,1h3.12v4.82c0,.48-.09.72-.47.87a5.34,5.34,0,0,1-1.8.15,3.15,3.15,0,0,0-.27-.84,12.71,12.71,0,0,0,1.38,0c.18,0,.23,0,.23-.21v-3.91h-2.4c-.2.75-.36,1.47-.54,2.07l1.56-.27c-.18-.38-.36-.77-.54-1.1l.67-.22a25.49,25.49,0,0,1,1.17,2.55l-.7.27c-.08-.21-.18-.5-.3-.8l-3,.59-.27-.8.46-.07c.18-.63.39-1.41.59-2.22h-1.32v5h-1v-5h-.39v-.89h.39V547h1v.51h1.53c.07-.36.16-.69.22-1h-2.35v-4.06h.87v3.24h3.93v-3.24h.9v2.4a17,17,0,0,0,2.07-5.12l1,.24a23.7,23.7,0,0,1-.81,2.6h4.78v1h-2.11v2h1.9v1h-1.9v2h1.93v1h-1.93v2.07h2.2Zm-6.55-10.71h-6.95V541H199c-.13-.37-.3-.78-.45-1.12l1-.21c.19.39.4.93.55,1.33h2.81Zm-2.15,3.3c-.27-.26-.64-.62-1.06-1-.44.41-.87.8-1.26,1.1-.14-.12-.44-.36-.62-.48a14.21,14.21,0,0,0,1.32-1.08c-.39-.3-.78-.62-1.14-.87l.5-.45c.36.25.75.55,1.14.85a9.76,9.76,0,0,0,.82-.91l.71.25c-.29.36-.63.74-1,1.1.42.36.81.7,1.07,1Zm5.49-1.65h-1.8v2h1.8Zm0,3h-1.8v2h1.8Zm-1.8,5.09h1.8v-2.07h-1.8Zm2.24-9.2a18.09,18.09,0,0,0-1-2.2l1-.33a16.63,16.63,0,0,1,1,2.13Z"/><path class="cls-1" d="M215.36,540.06a21.88,21.88,0,0,1-1.55,3.24v10.05h-1.05v-8.41a15,15,0,0,1-1.51,1.84,6.31,6.31,0,0,0-.63-1.08,17,17,0,0,0,3.7-6Zm9.31,12.2v.87H215v-.87h4.31V551.1h-3.38v-.82h3.38v-1h-3.69v-.85h3.69v-.89H215.9v-3h3.42v-.72h-2.1v-1.83h-2v-.87h2v-1.38h1v1.38h3.24v-1.38h1.1v1.38h2v.87h-2v1.83H220.4v.72H224v3H220.4v.89h3.76v.85H220.4v1h3.45v.82H220.4v1.16Zm-5.35-5.57V545.3H216.9v1.39ZM218.25,543h3.24v-1h-3.24Zm2.15,2.33v1.39h2.47V545.3Z"/><path class="cls-1" d="M232.5,551.18l-6.1,1.48-.23-1.08.83-.18v-5.1h.94v4.91l1.11-.26v-6.06H227v-4.57H232v4.57h-1.89v2.16h2.19v1h-2.19v2.67c.76-.16,1.54-.34,2.32-.54ZM228,543.92h2.92v-2.63H228Zm12,7.74v1.09h-7.53v-1.09H233v-10h-.67v-1.08h7.39v1.08h-5.64v2.18h5v5.28h-5v2.55Zm-5.88-6.8v3.21h3.95v-3.21Z"/><path class="cls-1" d="M243.56,549.48a23.32,23.32,0,0,1-1,3.59,6.79,6.79,0,0,0-1-.35,16,16,0,0,0,1-3.45Zm3.34-.93q-.06-.36-.18-.81c-3.87.59-4.39.71-4.69.89-.06-.23-.24-.77-.36-1.07.33,0,.7-.4,1.23-.93.27-.27.84-.93,1.51-1.77a10.43,10.43,0,0,0-2.46.41,6.63,6.63,0,0,0-.36-1,2.18,2.18,0,0,0,.93-.81,20,20,0,0,0,2.34-3.78l1,.45a23.92,23.92,0,0,1-2.69,3.94l1.95-.18c.41-.58.84-1.2,1.19-1.81l1,.6a31.85,31.85,0,0,1-3.71,4.6l2.84-.42c-.15-.46-.33-1-.5-1.39l.89-.23a17.4,17.4,0,0,1,1,3Zm-1.65.62a29.52,29.52,0,0,1,.5,3.28l-.95.24a31.55,31.55,0,0,0-.45-3.3Zm1.76-.32a19.64,19.64,0,0,1,1,2.85l-.88.32a20.91,20.91,0,0,0-.93-2.9Zm7.75-5.8c-.21,6.66-.37,8.91-.93,9.63a1.53,1.53,0,0,1-1.2.61,18,18,0,0,1-2.2,0,2.46,2.46,0,0,0-.36-1.11c.94.07,1.78.07,2.14.07a.64.64,0,0,0,.6-.22c.45-.48.66-2.72.83-8.51h-4.29a14.23,14.23,0,0,1-1.23,2.18,6.93,6.93,0,0,0-1-.63,14.34,14.34,0,0,0,2.35-5.36l1.08.21a18.06,18.06,0,0,1-.82,2.55h5Zm-3.31,6.33a15.45,15.45,0,0,0-2.6-3.3l.78-.57a15.28,15.28,0,0,1,2.64,3.22Z"/><path class="cls-1" d="M257.54,551.1H260v-8.2h-2V542a7,7,0,0,0,2.28-.78h1.05v9.85h2.21v1.14h-6Z"/><path class="cls-1" d="M265.94,551.4a1,1,0,1,1,2,0,1,1,0,1,1-2,0Z"/><path class="cls-1" d="M277.16,549.21H275.7v3h-1.3v-3h-4.79v-.9l4.58-7.06h1.51v6.87h1.46Zm-2.76-1.09v-3.38c0-.54.06-1.42.09-2h-.06c-.27.54-.57,1.08-.89,1.62l-2.5,3.75Z"/><path class="cls-1" d="M283.92,540.51a20,20,0,0,1-4.39,6.38,7.93,7.93,0,0,0-1-.9,15.7,15.7,0,0,0,4.17-5.85Zm4.22,7.13a47.81,47.81,0,0,1,3.36,5l-1.11.61c-.22-.42-.5-.9-.81-1.44-7.77.54-8.6.59-9.18.8a7.17,7.17,0,0,0-.44-1.19c.41-.09.84-.58,1.41-1.29a32.87,32.87,0,0,0,3.78-5.91l1.25.53a39,39,0,0,1-4.4,6.43l6.93-.39c-.58-.93-1.26-1.9-1.86-2.7Zm.31-7.56a10.89,10.89,0,0,0,4,5.77,5.88,5.88,0,0,0-.86,1,12.47,12.47,0,0,1-3.95-5.69h-2.79v-1.12Z"/><path class="cls-1" d="M307.41,551.87V553h-13.3v-1.09h6.06V549.8h-5.06v-1.1h5.06V547h-4.58v-6.75H306.1V547h-4.69v1.68h5.19v1.1h-5.19v2.07Zm-10.68-8.73h3.51v-1.82h-3.51Zm0,2.83h3.51v-1.84h-3.51Zm8.19-4.65h-3.59v1.82h3.59Zm0,2.81h-3.59V546h3.59Z"/><path class="cls-1" d="M310.73,548.63a2.63,2.63,0,0,0,1.89-2.21,1.14,1.14,0,0,1-.26,0,1,1,0,0,1-1.12-1.07,1.05,1.05,0,0,1,1.14-1.08c.82,0,1.27.68,1.27,1.73a3.56,3.56,0,0,1-2.59,3.4Z"/><path class="cls-1" d="M323.72,543c-.29,6.51-.53,8.73-1.07,9.42a1.24,1.24,0,0,1-1,.57,8.52,8.52,0,0,1-1.63,0,3.05,3.05,0,0,0-.33-1.14c.63.06,1.2.07,1.47.07a.57.57,0,0,0,.52-.25c.42-.48.69-2.55.93-8.18h-2.11c-.18,3.75-.74,7.49-2.61,9.81a3.81,3.81,0,0,0-.89-.75c1.76-2.08,2.25-5.56,2.4-9.06h-2.07v-1.09h2.1c0-.92,0-1.83,0-2.69h1.11c0,.87,0,1.77,0,2.69h3.21Zm6.26-1.44v11.51h-1.14v-1h-2.9v1.09h-1.1V541.56ZM328.84,551v-8.36h-2.9V551Z"/><path class="cls-1" d="M345.82,551.57v1.11H332.46v-1.11h5.6V539.93h1.17v4.59h5.57v1.11h-5.57v5.94Z"/><path class="cls-1" d="M351.66,546.83a18.79,18.79,0,0,1-1.48,4c.27.18.58.42,1.06.71a7.82,7.82,0,0,0,4.14.75c1.91,0,4.32-.14,6-.32a4.66,4.66,0,0,0-.33,1.16c-1.11.07-3.92.16-5.67.16a8.16,8.16,0,0,1-4.35-.82c-.6-.36-1.14-.87-1.48-.87s-.86.93-1.29,1.89l-.77-1a5.48,5.48,0,0,1,1.74-1.79,14,14,0,0,0,1.19-3H348.3c.41-.88.9-2.14,1.32-3.3h-2v-1H351c-.37,1.06-.87,2.31-1.29,3.33H351l.18,0Zm-2.26-4.22c-.17-.63-.51-1.63-.75-2.4l1-.28c.27.75.62,1.74.81,2.35Zm4.92,2.52a11,11,0,0,1-1.62,5.64,4.5,4.5,0,0,0-.93-.67c1.32-1.85,1.47-4.43,1.47-6.32v-3.19a32.8,32.8,0,0,0,6.52-.89l.91.83a31,31,0,0,1-6.32.94v2.63h6.74v1h-2.68v6.21h-1.12v-6.21Z"/><path class="cls-1" d="M369.23,541.67v11.68h-1.08v-2.71c-1.89.31-3.81.6-5.24.84l-.19-1.13c.42,0,.91-.1,1.45-.18v-8.5H363v-1h7.27v1Zm-1.08,0h-2.93v2h2.93Zm0,3h-2.93v2.09h2.93ZM365.22,550c.92-.12,1.92-.27,2.93-.42v-1.84h-2.93Zm11-8.11a18.05,18.05,0,0,1-2.43,7.6,8.41,8.41,0,0,0,3.09,2.79,4.68,4.68,0,0,0-.79.92,9.47,9.47,0,0,1-3-2.72,10.44,10.44,0,0,1-3.06,2.67,4.23,4.23,0,0,0-.73-.9,9,9,0,0,0,3.15-2.77,20.66,20.66,0,0,1-2.23-6.41l1.06-.19a19.47,19.47,0,0,0,1.84,5.55,16.6,16.6,0,0,0,1.87-5.61H369.9v-1.1h5.35l.21,0Z"/><path class="cls-1" d="M381.87,546.86a18.66,18.66,0,0,1-1.24,3.87c.3.16.66.45,1.21.78a8,8,0,0,0,4.19.75c1.92,0,4.35-.15,6-.32a4.66,4.66,0,0,0-.33,1.16c-1.13.07-4,.16-5.73.16a8.26,8.26,0,0,1-4.38-.82c-.6-.36-1.15-.87-1.5-.87s-.84.94-1.26,1.89l-.78-1a6.82,6.82,0,0,1,1.5-1.66,13,13,0,0,0,1.07-3.12h-2a31.56,31.56,0,0,0,1.29-3.35H378.3v-1h3.12c-.36,1.08-.84,2.34-1.26,3.37h1l.18,0Zm-2-4.34c-.18-.64-.54-1.66-.78-2.44l1-.3c.28.78.63,1.77.84,2.41Zm9.7,1a13.07,13.07,0,0,1-2.87-2.55,13.35,13.35,0,0,1-4.34,3.6,3.53,3.53,0,0,0-.75-.85,11.14,11.14,0,0,0,4.86-4.2l1,.4c-.06.11-.13.21-.19.3a11.27,11.27,0,0,0,4.79,3.3,5.32,5.32,0,0,0-.76.92,10.86,10.86,0,0,1-1.66-.9v.91h-2.39v1.35h4.29v1h-4.29v4.44h-1.09v-4.44h-3.74v-1h3.74v-1.35h-2v-.93Zm-4.63,4.13a10.68,10.68,0,0,1-2.16,3,8.32,8.32,0,0,0-.85-.56,8.21,8.21,0,0,0,2-2.67Zm5.61,3a12.94,12.94,0,0,0-2-2.83l.87-.42a12.74,12.74,0,0,1,2.1,2.77Z"/><path class="cls-1" d="M200.15,574a7.21,7.21,0,0,0-.17-.79c-3.18.48-3.63.58-3.93.73a6.72,6.72,0,0,0-.36-1c.33-.08.68-.45,1.11-1,.23-.27.69-.9,1.23-1.7a7.52,7.52,0,0,0-2.07.35,9,9,0,0,0-.34-1c.25-.06.51-.36.82-.83a19.72,19.72,0,0,0,2-3.78l1,.41a25.71,25.71,0,0,1-2.28,4l1.55-.12c.37-.63.76-1.32,1.08-2l1,.57a29.87,29.87,0,0,1-3.33,4.83l2.35-.31c-.16-.5-.33-1-.51-1.47l.86-.23a19.45,19.45,0,0,1,1,3.08Zm-2.88.75a19.15,19.15,0,0,1-.77,3.68c-.19-.11-.66-.26-.88-.35a17.16,17.16,0,0,0,.72-3.49Zm1.45-.19a23.59,23.59,0,0,1,.42,3.15l-.9.15a25.71,25.71,0,0,0-.37-3.15Zm1.4-.39a16.56,16.56,0,0,1,.76,2.5l-.82.29a20.59,20.59,0,0,0-.74-2.54Zm9.15,3.15v1h-8.54v-1h3.81v-2.85h-3v-1h7.11v1h-3v2.85ZM202.86,573a15.06,15.06,0,0,0-1.78-3,28.53,28.53,0,0,0,1.57-2.76l1,.25c-.41.77-1,1.73-1.47,2.48a18.3,18.3,0,0,1,1.65,2.59Zm6.27-6.19h-7.9v-1h7.9Zm-2.92.75c-.42.75-1,1.71-1.5,2.44a19.85,19.85,0,0,1,1.69,2.55l-.91.42a14.39,14.39,0,0,0-1.88-2.94,26.42,26.42,0,0,0,1.62-2.73Zm1.93,5.44a15.59,15.59,0,0,0-2-3,27.74,27.74,0,0,0,1.68-2.76l1,.27c-.44.76-1,1.71-1.55,2.46a16.7,16.7,0,0,1,1.8,2.55Z"/><path class="cls-1" d="M212.46,574.72a20.27,20.27,0,0,1-.76,3.82,5.11,5.11,0,0,0-.81-.28,17.62,17.62,0,0,0,.73-3.68Zm2.21-.56q0-.36-.15-.84a16.88,16.88,0,0,0-3.18.62,5.76,5.76,0,0,0-.3-.92c.27-.06.57-.46,1-1,.18-.27.6-.9,1.05-1.73a6.37,6.37,0,0,0-1.8.32,5.62,5.62,0,0,0-.32-.92c.24-.06.44-.39.71-.84a20.26,20.26,0,0,0,1.54-3.85l.93.37a22.47,22.47,0,0,1-1.87,4.11l1.3-.12a18.84,18.84,0,0,0,.93-2.1l.87.47a28.81,28.81,0,0,1-2.85,5l1.86-.24c-.15-.54-.3-1.11-.46-1.61l.72-.16a18.55,18.55,0,0,1,.82,3.19Zm-1,.39c.18,1.13.34,2.54.39,3.51l-.78.15a29.74,29.74,0,0,0-.38-3.54Zm1.14-.33a24.46,24.46,0,0,1,.81,2.9l-.74.22a23.7,23.7,0,0,0-.76-2.94Zm3.63-5.76a20.63,20.63,0,0,1-.93,2.18v8h-.93v-6.45a12.48,12.48,0,0,1-.8,1c-.12-.18-.36-.51-.51-.69a12.89,12.89,0,0,0,2.31-4.3Zm.16-3.1a14.09,14.09,0,0,1-2.43,4.06,6.06,6.06,0,0,0-.58-.69,11.53,11.53,0,0,0,2.08-3.64Zm6.24,12a3.46,3.46,0,0,0-.31,1h-.72a4.27,4.27,0,0,1-4.23-2.59,9.14,9.14,0,0,1-1.1,2.65,8,8,0,0,0-.75-.55c1.08-1.65,1.37-4.53,1.47-6.5l1,.08c-.07.87-.18,1.89-.36,2.92a4.65,4.65,0,0,0,1.38,2.19v-5.92h1v2h2.13v.93h-2.13v3.59a5,5,0,0,0,1.65.25ZM221,569.32a13.69,13.69,0,0,0-.86-1.26,10.51,10.51,0,0,1-1.12,2.53,5.39,5.39,0,0,0-.71-.55,12.77,12.77,0,0,0,1.52-4.95l1,.16c-.1.57-.24,1.2-.39,1.83.45.53,1,1.19,1.22,1.58Zm3,1.12a18.92,18.92,0,0,0-1.11-2.2,9.75,9.75,0,0,1-1,2.26,3.76,3.76,0,0,0-.75-.46,12.43,12.43,0,0,0,1.53-5l.93.15c-.11.59-.23,1.23-.38,1.89a21.28,21.28,0,0,1,1.53,2.75Z"/><path class="cls-1" d="M239.81,567.08V568h-2.1l-.14,1.61h-9.13l.21-1.61h-2.21v-.93h2.33l.21-1.53h8.92l-.12,1.53Zm-7.94,9.86a21.87,21.87,0,0,1-4.57,1.8,8.2,8.2,0,0,0-.83-.84,17.48,17.48,0,0,0,4.4-1.44Zm6.2-.63h-9.71v-6h9.71ZM237,571h-7.52v1H237Zm0,1.73h-7.52v1H237Zm0,1.75h-7.52v1.05H237Zm-7.37-5.65h2.9c0-.29.07-.6.12-.93h-2.9Zm.35-2.58-.12.87h2.88c0-.3.06-.59.09-.87Zm6.6,2.58.07-.93h-3c0,.33-.09.64-.12.93Zm.21-2.58h-2.93l-.09.87h2.94Zm-1.52,10.2a47.57,47.57,0,0,1,4.53,1.63l-1.14.6a36.29,36.29,0,0,0-4.26-1.65Z"/><path class="cls-1" d="M254.93,566.57v1H241.86v-1H248c-.14-.43-.32-.94-.47-1.36l1.08-.26c.21.51.44,1.14.6,1.62Zm-.48,10.95c0,.54-.14.77-.54.92a6.81,6.81,0,0,1-2,.13,3.52,3.52,0,0,0-.36-.82c.64,0,1.33,0,1.51,0s.26-.06.26-.24v-4.39h-9.86v5.56H242.4v-6.51h12Zm-1.62-9.15v3h-8.7v-3Zm-1.35,8.72H246.2v.73h-1V574h6.32Zm.21-7.89h-6.47v1.35h6.47Zm-5.49,5.65v1.4h4.27v-1.4Z"/><path class="cls-1" d="M260,568.64a19.19,19.19,0,0,1-2.45,7.16,5.5,5.5,0,0,0-.93-.66,15.65,15.65,0,0,0,2.3-6.5h-1.76v-1.06h1.92c.12-.84.23-1.7.3-2.58l1.1.09c-.09.85-.2,1.68-.32,2.49h3v1.06Zm2.26,4.61a35.18,35.18,0,0,1,1.22,4.57l-.92.32c0-.33-.12-.72-.19-1.11-3.14.6-3.62.7-3.89.87a5.07,5.07,0,0,0-.34-1c.27-.08.49-.54.79-1.2a27.5,27.5,0,0,0,1.73-5.4l1.06.28a33.47,33.47,0,0,1-2.16,6l2.58-.43c-.22-.89-.48-1.82-.73-2.61Zm8.16,4.68H265v.75h-1v-8.94A14.64,14.64,0,0,1,263,571.3a4.73,4.73,0,0,0-.68-.84,15.38,15.38,0,0,0,2.67-5.39l1,.24a21.71,21.71,0,0,1-.94,2.52h5.25v1h-2v2h2v1h-2v2h2v1h-2v2.07h2.23ZM265,568.82v2h2.13v-2Zm2.13,3H265v2h2.13ZM265,576.91h2.13v-2.07H265Zm2.44-9.14a11.67,11.67,0,0,0-1-2.23l1-.33a11.82,11.82,0,0,1,1.08,2.17Z"/><path class="cls-1" d="M279.47,567.55c-.08.55-.17,1.11-.24,1.59h5.56v8.26c0,.66-.16,1-.64,1.13a9,9,0,0,1-2.54.18,5.05,5.05,0,0,0-.4-1c.94,0,1.86,0,2.11,0s.35-.09.35-.33v-7.23h-9.29v8.52h-1.09v-9.55h4.87c.08-.47.14-1,.2-1.59h-5.88v-1h6c.05-.54.09-1.07.11-1.52l1.2.14c0,.43-.11.91-.17,1.38h6v1Zm0,8.22v2.64h-1.06v-2.64h-3.23v-.93h3.23v-1.52h-2.91v-.91h1.57a7,7,0,0,0-.82-1.77l.88-.23a6.89,6.89,0,0,1,.87,1.74l-.81.26h2.69a17.31,17.31,0,0,0,.85-2.06l1,.23c-.29.63-.59,1.27-.87,1.83h1.69v.91h-3.09v1.52h3.35v.93Z"/><path class="cls-1" d="M293.9,575l.19,1c-2.14.93-4.47,1.91-6.19,2.58l-.51-1.09c1.08-.38,2.62-1,4.24-1.58v-6h-3.79v-1.1h3.79v-3.51h1.14v10.16Zm5,2c.68,0,.77-.72.86-3.58a3.23,3.23,0,0,0,1.06.54c-.12,3.07-.39,4.14-1.83,4.14h-2c-1.29,0-1.66-.44-1.66-2V565.3h1.12v3.48h4.19v1.09h-4.19v6.26c0,.75.11.88.68.88Z"/><path class="cls-1" d="M307,565.19c-.26.74-.53,1.56-.78,2.21h2.49v9.73h-4.17v1.19h-1V567.4h1.68a20.49,20.49,0,0,0,.6-2.43Zm.69,3.21h-3.15v3.14h3.15Zm0,7.73v-3.6h-3.15v3.6Zm8.35-8.21c-.24,6.84-.43,9.15-1,9.89a1.52,1.52,0,0,1-1.19.6,15.18,15.18,0,0,1-2.22,0,2.53,2.53,0,0,0-.37-1.09c1,.09,1.87.09,2.22.09s.46,0,.61-.23c.5-.52.72-2.8.92-8.77h-3.81a12.82,12.82,0,0,1-1.41,2.62,8.76,8.76,0,0,0-.92-.63,15.15,15.15,0,0,0,2.3-5.44l1.06.25a21.57,21.57,0,0,1-.64,2.16H316Zm-3.31,6.77a27.24,27.24,0,0,0-2.28-3.47l.87-.51a30.13,30.13,0,0,1,2.35,3.39Z"/><path class="cls-1" d="M327.27,566.71a23.58,23.58,0,0,1,4,4.35l-.94.67a11,11,0,0,0-.92-1.29c-8.56.48-9.43.51-10,.72a7.67,7.67,0,0,0-.36-1.09,2.91,2.91,0,0,0,1.22-.89,24.89,24.89,0,0,0,3.45-4.23l1.09.5a32.75,32.75,0,0,1-3.84,4.41l7.65-.38a26.61,26.61,0,0,0-2.17-2.2Zm-7.12,5.71h9.54v6.24h-1.17v-.78h-7.25v.81h-1.12Zm1.12,1.07v3.31h7.25v-3.31Z"/><path class="cls-1" d="M334,576.41h2.44v-8.2h-2v-.87a7,7,0,0,0,2.28-.78h1.05v9.85h2.21v1.14h-6Z"/><path class="cls-1" d="M346.25,574.1c0-.25-.09-.55-.15-.85-3,.43-3.45.54-3.72.69a11.24,11.24,0,0,0-.36-1.07c.31-.07.64-.43,1.09-1a15.32,15.32,0,0,0,1.23-1.66,7.54,7.54,0,0,0-2,.36,9.75,9.75,0,0,0-.36-1c.25-.06.51-.36.79-.83a18,18,0,0,0,1.92-3.75l1,.44a25,25,0,0,1-2.27,4l1.56-.15a18.53,18.53,0,0,0,1.11-2l1,.57a29.24,29.24,0,0,1-3.34,4.85l2.16-.29c-.14-.51-.29-1-.45-1.48l.85-.23a21.82,21.82,0,0,1,.87,3.18Zm-2.7.63a20.17,20.17,0,0,1-.77,3.69,6,6,0,0,0-.85-.31,15.48,15.48,0,0,0,.72-3.53Zm1.39-.18c.17,1,.33,2.33.38,3.2l-.89.16a24.13,24.13,0,0,0-.33-3.21Zm1.34-.36a18.47,18.47,0,0,1,.75,2.4l-.83.27a18.41,18.41,0,0,0-.7-2.44Zm4.51-.91a7.19,7.19,0,0,1-3.36,4.72,3.47,3.47,0,0,0-.64-.79,5.9,5.9,0,0,0,2.74-3.2H347.6v-.93H350l.18,0Zm4.62-.24c-.67.61-1.44,1.3-2.1,1.8a6.59,6.59,0,0,0,2.45,2.34,4.26,4.26,0,0,0-.74.88,8,8,0,0,1-2.83-3.4v2.82c0,.57-.12.87-.53,1a5.45,5.45,0,0,1-2,.19,4.41,4.41,0,0,0-.33-1c.71,0,1.34,0,1.52,0s.25-.06.25-.24v-5.62h-3v-5.25h2.29a10.39,10.39,0,0,0,.51-1.59l1.25.25-.63,1.34h3.37v5.25h-2.74v.54a8.87,8.87,0,0,0,.7,1.72,16.82,16.82,0,0,0,1.68-1.74Zm-6.22-4.26h4.66v-1.31h-4.66Zm0,2.17h4.66v-1.33h-4.66Z"/><path class="cls-1" d="M358.83,573.94a2.6,2.6,0,0,0,1.89-2.21,1.06,1.06,0,0,1-.25,0,1,1,0,0,1-1.13-1.07,1.06,1.06,0,0,1,1.14-1.08c.83,0,1.28.68,1.28,1.73a3.56,3.56,0,0,1-2.6,3.4Z"/><path class="cls-1" d="M371.61,571.87v6.82h-1.08v-6.82H368.1c-.06,2.5-.43,5-2.22,6.93a3.53,3.53,0,0,0-.84-.75c1.62-1.77,1.95-4,2-6.18h-1.93v-1h1.95V567h-1.73v-1.05H373V567h-1.41v3.85h1.64v1Zm-1.08-1V567h-2.41v3.85Zm8.39,3a13.25,13.25,0,0,1-5.7,4.9,4.6,4.6,0,0,0-.78-.88,11.87,11.87,0,0,0,5.43-4.43Zm-.78-8.1a14.77,14.77,0,0,1-4.28,3.52,5,5,0,0,0-.81-.78,12.5,12.5,0,0,0,4.05-3.18Zm.42,4.09a16.71,16.71,0,0,1-4.56,3.78,5.81,5.81,0,0,0-.78-.79,14.23,14.23,0,0,0,4.32-3.42Z"/><path class="cls-1" d="M393.05,570.08a16.91,16.91,0,0,1-2.64,5.07c.55,1.47,1.24,2.33,2,2.33.41,0,.6-.78.7-2.78a2.61,2.61,0,0,0,1,.6c-.21,2.55-.61,3.29-1.75,3.29s-2.06-.92-2.75-2.46a13.57,13.57,0,0,1-3.09,2.49,5.53,5.53,0,0,0-.81-.89,12,12,0,0,0,3.45-2.77,29.26,29.26,0,0,1-1.09-6.32h-5.18v2h3.83v.48c-.08,3.36-.17,4.62-.48,5a1.17,1.17,0,0,1-.9.44,17.41,17.41,0,0,1-1.79,0,2.22,2.22,0,0,0-.31-1c.69.06,1.33.07,1.59.07s.36,0,.45-.16.28-1.17.34-3.75h-2.73v.12c0,2.1-.22,5.11-1.57,7.06a5.1,5.1,0,0,0-.93-.75c1.23-1.83,1.36-4.39,1.36-6.33v-4.18H388c-.06-.83-.08-1.67-.09-2.52H389q0,1.31.06,2.52H394v1.09h-4.77a27.54,27.54,0,0,0,.82,5.21,14.85,14.85,0,0,0,1.92-4.05Zm-2.6-5a15.07,15.07,0,0,1,2.69,1.71l-.69.77a15,15,0,0,0-2.66-1.8Z"/><path class="cls-1" d="M206.57,593.51a11.51,11.51,0,0,1-5,3h5.82v7.44h-1.1v-.63h-6.73V604h-1.08v-6.66c-.72.15-1.44.29-2.16.39a8.29,8.29,0,0,0-.69-1A27.66,27.66,0,0,0,202,595.3h-.15v-5h1.09v4.56a7.74,7.74,0,0,0,2.61-1.85Zm-6.45-2a12.35,12.35,0,0,1-3,3.82,5.61,5.61,0,0,0-1-.66,9.28,9.28,0,0,0,2.83-3.46Zm6.16,5.91h-6.73v1.09h6.73Zm-6.73,3.06h6.73v-1.16h-6.73Zm6.73,2v-1.17h-6.73v1.17Zm-.43-11.35a18.79,18.79,0,0,1,3.31,3.19l-.94.63a17.9,17.9,0,0,0-3.26-3.27Z"/><path class="cls-1" d="M214.64,597.47a18.46,18.46,0,0,1-1.23,3.87c.28.17.64.45,1.2.78a8,8,0,0,0,4.2.75c1.92,0,4.35-.15,6-.31a3.92,3.92,0,0,0-.35,1.15c-1.11.08-3.94.17-5.73.17a8.19,8.19,0,0,1-4.38-.83c-.61-.36-1.17-.87-1.5-.87s-.84,1-1.29,1.89l-.76-1a7.11,7.11,0,0,1,1.5-1.67,12.87,12.87,0,0,0,1.08-3.12h-1.95c.4-.88.87-2.16,1.27-3.34h-1.66v-1h3.07c-.37,1.08-.84,2.34-1.23,3.38h1l.2,0Zm-2-4.33c-.18-.65-.51-1.68-.76-2.46l1-.29c.25.78.6,1.76.79,2.4Zm6,1.27c.12-.37.24-.81.33-1.2h-4v-.93h2.51a8.43,8.43,0,0,0-1-1.57l.89-.36a7.3,7.3,0,0,1,1,1.63l-.63.3h2.68a12.57,12.57,0,0,0,1.16-2l1.08.31c-.36.54-.74,1.16-1.1,1.65h2.79v.93h-4.27c-.17.42-.35.83-.5,1.2h3.51v7h-7v-7Zm3.48.84h-4.82v1.23h4.82Zm0,2h-4.82v1.26h4.82Zm0,2h-4.82v1.26h4.82Z"/><path class="cls-1" d="M239.88,599.47v1H226.37v-1h1.51l-.28-7.92a23.61,23.61,0,0,0,2.77-1.16l.54.92c-.69.28-1.51.57-2.28.81l.06,1.75h2v1h-2l.06,1.83h2v1h-1.93l.06,1.85h8.5c0-.53.08-1.16.11-1.8h-1.95v-.95h2c0-.6,0-1.21.07-1.84h-2v-1h2c0-.65,0-1.28,0-1.88h-2.16v-1h3.18c0,2.62-.09,6.18-.23,8.4Zm-8.19,1.95a23.68,23.68,0,0,1-4.47,2.56c-.15-.22-.45-.6-.66-.84a16.78,16.78,0,0,0,4.17-2.4Zm1.16-5.37a7.51,7.51,0,0,1-.92,2.8,5.21,5.21,0,0,0-.78-.48,5.83,5.83,0,0,0,.83-2.47Zm1-.8H231.5v-4.84h1v1.39H235v1h-2.48v1.6h2v0h.4v3.94c0,.47-.09.66-.42.81a4.64,4.64,0,0,1-1.57.14,3.28,3.28,0,0,0-.29-.77c.53,0,1,0,1.13,0s.19-.06.19-.2Zm1.29,5.45a36.84,36.84,0,0,1,4.37,2.4l-.74.84a34.89,34.89,0,0,0-4.24-2.48Z"/><path class="cls-1" d="M244.5,598.19v4.52c0,.6-.13.91-.51,1.09a4.68,4.68,0,0,1-1.86.2,4.16,4.16,0,0,0-.33-1h1.41c.18,0,.26-.05.26-.27v-4.19l-1.79.59L241.4,598c.57-.15,1.29-.38,2.07-.62v-3.07h-1.88v-1h1.88v-3h1v3h1.61v1H244.5v2.76c.5-.15,1-.32,1.49-.48l.15,1Zm6.57.42v1.31h3.39v.9h-3.39v2a10.1,10.1,0,0,0,1.38.09h2.93a3.25,3.25,0,0,0-.35,1h-2.61c-2.31,0-3.87-.45-4.92-2.22a6.7,6.7,0,0,1-1.56,2.42,4.19,4.19,0,0,0-.84-.63,7.28,7.28,0,0,0,2.06-4.58l1,.14c-.08.51-.17,1-.29,1.45a3.48,3.48,0,0,0,2.15,2.13v-4h-3v-.88h3v-1.25h-3.92v-.91H250v-1.13h-3v-.88h3v-1h-3.71v-.91H250V590.3h1v1.34h4v.91h-4v1h3.24v2h1.08v.91h-1.08v2.13Zm0-3h2.21v-1.13h-2.21Zm0,2.16h2.21v-1.25h-2.21Z"/><path class="cls-1" d="M260.51,597.59a16.22,16.22,0,0,1-1.13,3.78c.29.18.62.45,1.14.75a7.94,7.94,0,0,0,4.19.75c1.93,0,4.35-.15,6-.31a3.92,3.92,0,0,0-.35,1.15c-1.11.08-3.94.17-5.73.17a8.23,8.23,0,0,1-4.38-.83c-.6-.36-1.17-.87-1.5-.87s-.84,1-1.27,1.89l-.77-1a5.78,5.78,0,0,1,1.64-1.76,12.66,12.66,0,0,0,.94-3h-2c.42-.88.93-2.16,1.35-3.34H257v-1h3.16c-.39,1.08-.88,2.34-1.3,3.38h.84l.16,0Zm-2-4.45c-.18-.65-.51-1.67-.76-2.45l1-.28c.25.78.6,1.75.79,2.4Zm3.35.4h-1v-2.7h9.3v2.7h-1.08v-1.81h-7.2Zm3.09,8.55v-1.24H260.9V600H265v-.91h-3.27v-4.25H265v-.9H262v-.84H265v-.76H266v.76h2.82v.84H266v.9h3.31v4.25H266V600h4.2v.86H266v1.24Zm-2.28-5.5H265v-1h-2.28Zm2.28,1.72v-1h-2.28v1ZM266,595.6v1h2.29v-1Zm2.29,1.72H266v1h2.29Z"/><path class="cls-1" d="M277,600.22a16.14,16.14,0,0,1-3.34,3.18,6.5,6.5,0,0,0-1-.72,11.84,11.84,0,0,0,3.19-2.85Zm2.76-1.22v3.65c0,.63-.13.94-.63,1.11a7.57,7.57,0,0,1-2.32.19,3.66,3.66,0,0,0-.42-1.09,17.81,17.81,0,0,0,1.95,0c.25,0,.3-.06.3-.24v-3.54c-4.08.3-4.68.39-5.1.56a8.48,8.48,0,0,0-.33-1.07,7.53,7.53,0,0,0,2.05-.72,35.18,35.18,0,0,0,3.3-1.72,23.58,23.58,0,0,0-4.2.37,9.64,9.64,0,0,0-.34-1,3.24,3.24,0,0,0,1.21-.46,19,19,0,0,0,3.47-2.36c-1.79.47-3.68.86-5.46,1.17a4.48,4.48,0,0,0-.33-.93,43.74,43.74,0,0,0,9.33-2.55l.82.87a29.08,29.08,0,0,1-4.32,1.44l.95.6a22.94,22.94,0,0,1-3.17,2.07l3.68-.19c.6-.36,1.17-.77,1.71-1.17l.87.73a38.69,38.69,0,0,1-6.24,3.56l6.39-.42c-.48-.53-1-1-1.43-1.47l.9-.47a23.54,23.54,0,0,1,3.06,3.29l-.94.58c-.21-.3-.5-.66-.8-1Zm2.22.69a31,31,0,0,1,3.44,2.93l-.93.66a29.62,29.62,0,0,0-3.38-3Z"/><path class="cls-1" d="M289,600.05a19.15,19.15,0,0,1-.75,3.62,5.36,5.36,0,0,0-.85-.33,17.17,17.17,0,0,0,.72-3.45Zm3.06-.87c0-.21-.1-.48-.18-.76-3.3.55-3.75.66-4,.82a8.38,8.38,0,0,0-.35-1c.32-.08.66-.45,1.11-1a17.34,17.34,0,0,0,1.25-1.66,7.94,7.94,0,0,0-2.1.34c-.06-.22-.24-.75-.35-1,.24-.06.51-.37.83-.82a20.16,20.16,0,0,0,2-3.78l1,.43a24.37,24.37,0,0,1-2.4,4.07l1.58-.15c.42-.68.84-1.41,1.2-2.13l.94.55a26.86,26.86,0,0,1-3.42,4.92l2.45-.34c-.18-.5-.36-1-.57-1.43l.81-.3a15.36,15.36,0,0,1,1.06,3Zm-1.51.63a28.28,28.28,0,0,1,.4,3.15l-.87.21a26.16,26.16,0,0,0-.37-3.18Zm1.6,2.6a19,19,0,0,0-.79-2.7l.78-.27a18.65,18.65,0,0,1,.84,2.7Zm7.68.34c.32,0,.39-.28.42-2a2.91,2.91,0,0,0,1,.44c-.11,2-.38,2.53-1.28,2.53h-1.29c-1.05,0-1.3-.33-1.3-1.44v-5.25l-1.41.17c-.12,3.54-.57,5.62-3.2,6.85a2.74,2.74,0,0,0-.69-.87c2.36-1,2.72-2.76,2.81-5.85a6,6,0,0,0-1.47.3,11.64,11.64,0,0,0-.39-1.11c.3-.07.63-.48,1-1.09a23.21,23.21,0,0,0,1.29-2.19h-2.22v-1h2.73c.3-.62.59-1.26.83-1.89l1.2.36c-.23.51-.48,1-.74,1.53H301v1h-4.4a27.82,27.82,0,0,1-1.92,3.09l4.41-.44c-.33-.57-.67-1.15-1-1.65l.91-.4a23.83,23.83,0,0,1,2.1,3.6l-1,.48a11.09,11.09,0,0,0-.54-1.14l-1.14.13v5.36c0,.39.05.46.38.46Z"/><path class="cls-1" d="M307.23,592v12h-1v-2.77c-1.2.19-2.35.4-3.31.58l-.23-1,.92-.14V592h-.75v-1h4.92v1Zm-1,0h-1.69v2.1h1.69Zm0,3h-1.69v2.15h1.69Zm0,5.27v-2.19h-1.69v2.44Zm5-5.37a22.79,22.79,0,0,1,.77,2.44l-.74.24c0-.21-.12-.48-.19-.78a13.09,13.09,0,0,0-3.23.53,6.46,6.46,0,0,0-.27-1,1.87,1.87,0,0,0,.87-.72,15.81,15.81,0,0,0,1.05-1.35,4.1,4.1,0,0,0-1.51.24,8.75,8.75,0,0,0-.29-1c.21,0,.39-.24.6-.52a10.26,10.26,0,0,0,1.38-2.51l.84.39a15,15,0,0,1-1.66,2.72l1.17-.06c.25-.41.52-.87.75-1.31l.79.42a24.13,24.13,0,0,1-2.65,3.69l1.95-.19c-.11-.35-.23-.69-.33-1Zm-.64,2.77h1V600a4.26,4.26,0,0,1-2.6,4.14,3,3,0,0,0-.61-.76A3.4,3.4,0,0,0,310.5,601h-2.08v-3.3h.91V600h1.28v-2.34Zm5-3c.36.8.78,1.88,1,2.51l-.72.28a7.64,7.64,0,0,0-.27-.81,14,14,0,0,0-3.26.57,6.24,6.24,0,0,0-.25-1c.24,0,.49-.31.81-.7.16-.21.54-.74,1-1.41a5.33,5.33,0,0,0-1.61.24,8.88,8.88,0,0,0-.27-1,1.24,1.24,0,0,0,.59-.5,11.48,11.48,0,0,0,1.33-2.44l.78.36a13.52,13.52,0,0,1-1.53,2.58l1.17-.06c.21-.38.44-.8.62-1.2l.79.4a21.45,21.45,0,0,1-2.31,3.6l1.92-.22c-.12-.36-.27-.71-.4-1Zm-.78,3.09h.93v3.74h-.93V601h-1.27V604h-1v-6.37h1V600h1.27Z"/><path class="cls-1" d="M325.47,598a11.53,11.53,0,0,0,6.35,4.62,4.67,4.67,0,0,0-.71.93,12.34,12.34,0,0,1-5.64-4V604h-1.14v-4.41a12.14,12.14,0,0,1-5.62,3.94,5.53,5.53,0,0,0-.72-.91,11.47,11.47,0,0,0,6.34-4.58v-3.58h-5.91v-1h5.91v-1.37c-1.54.11-3.12.18-4.56.21a3.35,3.35,0,0,0-.25-.94,71.41,71.41,0,0,0,10.17-1l.51,1c-1.28.25-2.94.45-4.73.61v1.46h5.93v1h-5.93Zm-7.06,1.07c.87-.2,2-.5,3.3-.83v-1.41h-2.87v-.91h2.87v-1h1V598l.66-.18.12.83L318.69,600Zm9.72-4.19v1H331v.91h-2.91v1.1c0,.4.07.52.37.52h1.86a7.28,7.28,0,0,0,1-.07c0,.28,0,.64.09.9a4.86,4.86,0,0,1-1,.07h-2c-1.11,0-1.37-.4-1.37-1.42v-3.05Z"/><path class="cls-1" d="M337.55,590.5c-.26.73-.53,1.56-.78,2.2h2.49v9.74h-4.17v1.18h-1V592.7h1.68a20,20,0,0,0,.6-2.43Zm.69,3.21h-3.15v3.13h3.15Zm0,7.72v-3.6h-3.15v3.6Zm8.35-8.2c-.24,6.84-.43,9.15-1,9.88a1.49,1.49,0,0,1-1.19.6,16.49,16.49,0,0,1-2.22,0,2.61,2.61,0,0,0-.37-1.1c1,.09,1.87.09,2.22.09s.46,0,.61-.22c.5-.53.72-2.81.92-8.78h-3.81a12.92,12.92,0,0,1-1.41,2.63,8.76,8.76,0,0,0-.92-.63,15.12,15.12,0,0,0,2.3-5.45l1.06.26c-.18.73-.39,1.45-.64,2.16h4.48ZM343.28,600a27.19,27.19,0,0,0-2.28-3.46l.87-.51a28.42,28.42,0,0,1,2.35,3.39Z"/><path class="cls-1" d="M352.61,601.4V604h-1v-2.6h-2.89v-1h2.89v-1.2h-2.32V594h2.32V592.9h-2.68v-1h2.68v-1.6h1.05v1.6h2.64v1h-2.64V594H355v5.17h-2.43v1.2h2.83v1Zm-2.48-5.19h1.52v-1.33h-1.52Zm0,2.16h1.52V597h-1.52Zm4-3.49h-1.59v1.33h1.59Zm0,2.13h-1.59v1.36h1.59Zm7.21,5.82a.44.44,0,0,0,.29-.09,1,1,0,0,0,.15-.41c0-.3,0-1,0-1.86a2.07,2.07,0,0,0,.82.45c0,.77-.07,1.73-.12,2.06a1,1,0,0,1-.39.72,1.36,1.36,0,0,1-.72.19h-.67a1.09,1.09,0,0,1-.81-.28c-.23-.21-.27-.47-.27-1.23v-7.85H358V595c0,3.12-.27,6.5-3,9.06a4.87,4.87,0,0,0-.86-.7c2.55-2.4,2.81-5.48,2.81-8.36v-.48h-1.64v-1H357v-3.21h1v3.21h2.62v8.89a.34.34,0,0,0,.09.27.32.32,0,0,0,.24.11Z"/><path class="cls-1" d="M367.64,597.47a18.46,18.46,0,0,1-1.23,3.87c.28.17.64.45,1.2.78a8,8,0,0,0,4.2.75c1.92,0,4.35-.15,6-.31a3.92,3.92,0,0,0-.35,1.15c-1.11.08-3.94.17-5.73.17a8.19,8.19,0,0,1-4.38-.83c-.61-.36-1.17-.87-1.5-.87s-.84,1-1.29,1.89l-.76-1a7.11,7.11,0,0,1,1.5-1.67,12.87,12.87,0,0,0,1.08-3.12h-2c.4-.88.87-2.16,1.27-3.34h-1.66v-1h3.07c-.37,1.08-.84,2.34-1.23,3.38h1l.2,0Zm-2-4.33c-.18-.65-.51-1.68-.76-2.46l1-.29c.25.78.6,1.76.79,2.4Zm6,1.27c.12-.37.24-.81.33-1.2H368v-.93h2.51a8.43,8.43,0,0,0-1-1.57l.89-.36a7.3,7.3,0,0,1,1.05,1.63l-.63.3h2.68a12.57,12.57,0,0,0,1.16-2l1.08.31c-.36.54-.74,1.16-1.1,1.65h2.79v.93h-4.27c-.17.42-.35.83-.5,1.2h3.51v7h-7v-7Zm3.48.84h-4.82v1.23h4.82Zm0,2h-4.82v1.26h4.82Zm0,2h-4.82v1.26h4.82Z"/><path class="cls-1" d="M383.75,599.32a7.33,7.33,0,0,0-.17-.8c-3.18.48-3.63.59-3.93.74a6.46,6.46,0,0,0-.36-1c.33-.07.68-.45,1.11-1,.23-.27.69-.9,1.23-1.69a8.37,8.37,0,0,0-2.07.34c-.06-.22-.22-.7-.34-1,.25-.06.51-.36.82-.82a20,20,0,0,0,2-3.78l1,.4a24.81,24.81,0,0,1-2.28,4l1.55-.12c.37-.63.76-1.32,1.08-2l1,.57A29.87,29.87,0,0,1,381,598l2.35-.32c-.16-.49-.33-1-.51-1.47l.86-.22a19,19,0,0,1,1,3.07Zm-2.88.75a18.87,18.87,0,0,1-.77,3.67c-.19-.1-.66-.25-.88-.34a17.26,17.26,0,0,0,.72-3.5Zm1.45-.2a23.59,23.59,0,0,1,.42,3.15l-.9.15a25.94,25.94,0,0,0-.37-3.15Zm1.4-.39a16.66,16.66,0,0,1,.76,2.51l-.82.28a20,20,0,0,0-.74-2.53Zm9.15,3.15v1h-8.54v-1h3.81v-2.85h-3v-1h7.11v1h-3v2.85Zm-6.41-4.36a15.09,15.09,0,0,0-1.78-3,26.33,26.33,0,0,0,1.57-2.76l1,.26c-.41.76-1,1.72-1.47,2.47a17.79,17.79,0,0,1,1.65,2.6Zm6.27-6.2h-7.9v-1h7.9Zm-2.92.75c-.42.75-1,1.71-1.5,2.45a19.18,19.18,0,0,1,1.69,2.55l-.91.42a14.13,14.13,0,0,0-1.88-2.94,27.52,27.52,0,0,0,1.62-2.73Zm1.93,5.45a15.94,15.94,0,0,0-2-3,25.63,25.63,0,0,0,1.68-2.76l1,.27c-.44.77-1.05,1.71-1.55,2.46a17.2,17.2,0,0,1,1.8,2.55Z"/><path class="cls-1" d="M196.14,619.93a12.07,12.07,0,0,1,2.36,1.56l-.59.78a11.86,11.86,0,0,0-2.31-1.66Zm-.39,8.58a42.71,42.71,0,0,0,2-4.71l.74.56c-.54,1.54-1.28,3.36-1.89,4.71Zm2.42-10.12a11.34,11.34,0,0,0-2.16-2l.6-.64a11.66,11.66,0,0,1,2.19,1.87Zm8.47,4.56h1.05v6.39h-1.05V627h-5.43a4.27,4.27,0,0,1-1.69,2.38,3.27,3.27,0,0,0-.84-.6,4.32,4.32,0,0,0,1.77-3.79v-2h1v1h5.16Zm-4-3.77s0,.23,0,.36c-.06,1.91-.11,2.64-.33,2.9a.72.72,0,0,1-.6.28,5.2,5.2,0,0,1-.81,0,2.14,2.14,0,0,0-.2-.75c.32,0,.56,0,.68,0a.26.26,0,0,0,.27-.11,6.85,6.85,0,0,0,.19-2H201a4.13,4.13,0,0,1-1.73,3.06,2.56,2.56,0,0,0-.49-.63,3.34,3.34,0,0,0,1.42-2.43h-.85v-.77Zm6.45-1.21h-9.85v-.92h4.26a10,10,0,0,0-.35-1.41l1-.13a10.73,10.73,0,0,1,.44,1.54h4.48Zm-2.49,8.1v-1.23h-5.16V625a7,7,0,0,1-.07,1.1Zm-3.54-6.53a4.54,4.54,0,0,0-.66-1.24l.63-.27a4.69,4.69,0,0,1,.71,1.17Zm2.76-1.26a17.65,17.65,0,0,1-1.42,1.44v3.17h-.86v-3.17a11.61,11.61,0,0,0,1.47-1.74Zm2.76.9a7.26,7.26,0,0,1-1,.42,4.71,4.71,0,0,0,1.52,2.61,2.75,2.75,0,0,0-.53.6,5.52,5.52,0,0,1-1.59-3l-.87.24v1.89l1.2-.35a4.72,4.72,0,0,0,.12.63,7.9,7.9,0,0,0-2,.78h0a6.49,6.49,0,0,0-.38-.74c.15-.1.33-.33.33-.9v-1.81a10.23,10.23,0,0,0,2.46-.92Z"/><path class="cls-1" d="M212.51,624.55a2.62,2.62,0,0,0,1.89-2.2h-.26A1,1,0,0,1,213,621.3a1,1,0,0,1,1.14-1.08c.82,0,1.27.67,1.27,1.72a3.59,3.59,0,0,1-2.59,3.41Z"/><path class="cls-1" d="M223.76,623.11s0,.35,0,.5c-.21,3.39-.42,4.66-.83,5.13a1.28,1.28,0,0,1-1,.43,14.54,14.54,0,0,1-1.74,0,2.32,2.32,0,0,0-.3-1c.67.06,1.32.06,1.57.06a.62.62,0,0,0,.51-.15c.29-.29.48-1.32.66-3.92h-3.75c.2-1.12.44-2.91.56-4.27h3.13v-2.4h-3.52v-1h4.56v4.46h-3.27c-.09.76-.18,1.54-.29,2.23Zm7.83,6.3c-.11-.3-.26-.63-.44-1-2.58.21-5.26.4-7.15.54l-.15-1.08c1,0,2.25-.12,3.63-.21v-2.24h-3v-3.94h3V620h1.08v1.46h3.12v3.94h-3.12v2.16l2.05-.13c-.28-.45-.58-.93-.88-1.32l.91-.41a13.16,13.16,0,0,1,1.92,3.23Zm-.17-8.8a8.93,8.93,0,0,0-.66-1c-5.23.47-5.85.53-6.22.68a10.17,10.17,0,0,0-.36-1c.24,0,.49-.28.78-.63a14.3,14.3,0,0,0,1.92-2.94L228,616a22.48,22.48,0,0,1-2.24,3.12l4.37-.36c-.38-.45-.77-.92-1.14-1.31l.79-.49a17.45,17.45,0,0,1,2.46,3.09Zm-3.94,3.88v-2.08h-2v2.08Zm1.08-2.08v2.08h2.08v-2.08Z"/><path class="cls-1" d="M239.15,616a23.19,23.19,0,0,1-1.5,2.83v10.47h-1.08v-8.88a17.65,17.65,0,0,1-2,2.28,7.81,7.81,0,0,0-.63-1.11,16.68,16.68,0,0,0,4.2-5.94Zm6.33,11.77c.84,0,1-.66,1.08-3.22a3.2,3.2,0,0,0,1,.51c-.18,2.77-.48,3.73-2.05,3.73h-2.85c-1.49,0-1.95-.43-1.95-2V615.85h1.08v4.08h5.32V621h-5.32v5.81c0,.79.16,1,.94,1Z"/><path class="cls-1" d="M252.56,621c.4.56,1.48,2.22,1.74,2.61l-.6.83c-.21-.48-.72-1.41-1.14-2.16v7h-1v-6.85a16.89,16.89,0,0,1-1.73,4,7.42,7.42,0,0,0-.58-1,16.5,16.5,0,0,0,2.2-5.62h-1.89v-1h2v-3.24h1v3.24h1.65v1h-1.65Zm7.9-2a7.67,7.67,0,0,0,2.78,2.27,3.72,3.72,0,0,0-.71.81,8.08,8.08,0,0,1-1.56-1.16v1.77h-4.78v-1.75a9.17,9.17,0,0,1-1.61,1.18,2.3,2.3,0,0,0-.69-.73,7.63,7.63,0,0,0,2.69-2.39h-2.22v-.88h2.73a6.74,6.74,0,0,0,.37-1c-.88.06-1.77.09-2.58.1a3,3,0,0,0-.25-.76,42.61,42.61,0,0,0,6.73-.66l.66.75a28.73,28.73,0,0,1-3.46.49,10.88,10.88,0,0,1-.38,1h4.71V619Zm2.18,9.15c0,.53-.11.81-.5,1a6.21,6.21,0,0,1-1.93.16,3.8,3.8,0,0,0-.36-.93c.7,0,1.32,0,1.51,0s.26-.06.26-.23v-3.88h-6.05v5h-1v-5.93h8.1Zm-5.13-.3v.66h-.84v-3.43h3.82v2.77Zm.22-8.85a7.62,7.62,0,0,1-.6.92H260a9.36,9.36,0,0,1-.63-.92Zm2.25,1.65h-2.83V622H260Zm-2.47,5.15v1.32h2.13V625.8Z"/><path class="cls-1" d="M270.92,627.13c-2.12.51-4.37,1-6,1.35l-.29-1c1.13-.21,2.69-.53,4.34-.87l-.75-.23a23.52,23.52,0,0,0,.67-3l1.07.27c-.29,1-.59,2.18-.87,3l1.74-.36Zm-.2-9.67h-5.86v-1h5.86Zm-.34,5.43h-5.12v-4h5.12Zm-4.19,3.57a9.43,9.43,0,0,0-.57-2.78l.9-.22a9.15,9.15,0,0,1,.63,2.76Zm3.17-6.66h-3.12V622h3.12Zm4.6,7.56a10.3,10.3,0,0,1-3.28,2,7.33,7.33,0,0,0-.74-.73A8.91,8.91,0,0,0,273,626.8Zm-.3-8.64c.11-.45.23-1,.3-1.43h-2.83v-1h7.18v1h-3.12c-.15.5-.28,1-.43,1.43h3.07v7.77h-6.25v-7.77Zm3.12.87h-4.17V621h4.17Zm0,2.25h-4.17v1.47h4.17Zm0,2.29h-4.17v1.49h4.17Zm-.72,2.75a17.43,17.43,0,0,1,2.57,1.84l-.89.6a17.72,17.72,0,0,0-2.52-1.9Z"/><path class="cls-1" d="M284.4,624.51c0-.23-.12-.51-.21-.83-3.16.62-3.6.74-3.87.9a7.78,7.78,0,0,0-.31-.93c.3-.06.63-.43,1.06-1a19.9,19.9,0,0,0,1.32-1.84,8.07,8.07,0,0,0-2.17.37,8.75,8.75,0,0,0-.32-.94c.23-.06.48-.36.77-.83a19.67,19.67,0,0,0,1.77-3.78l.94.41a22.8,22.8,0,0,1-2.08,4l1.65-.15A17.46,17.46,0,0,0,284,618l.86.48a31.68,31.68,0,0,1-3.27,4.88l2.37-.41c-.15-.45-.3-.91-.47-1.32l.72-.19a18.16,18.16,0,0,1,.95,2.88Zm-2.82.84a18.86,18.86,0,0,1-.87,3.57,5.6,5.6,0,0,0-.76-.26,15.12,15.12,0,0,0,.84-3.46Zm1.34-.17a28.47,28.47,0,0,1,.4,3.18l-.79.18a27.58,27.58,0,0,0-.36-3.19Zm1.45-.3a20.21,20.21,0,0,1,.89,2.88l-.75.24a23.26,23.26,0,0,0-.84-2.89Zm7.32,3.39c.81,0,.95-.33,1-2a3.35,3.35,0,0,0,1,.41c-.17,2-.5,2.55-1.95,2.55h-3.48c-1.58,0-2.07-.35-2.07-1.76v-6.57l-.51.21a6.23,6.23,0,0,0-.62-.78,5,5,0,0,0,3.15-3H285.6v-1H293l0,.45c-.18,1.87-.33,2.67-.66,3a1.11,1.11,0,0,1-.81.33,11.46,11.46,0,0,1-1.45,0,2.28,2.28,0,0,0-.27-.93,11.69,11.69,0,0,0,1.27.06.59.59,0,0,0,.44-.12,4,4,0,0,0,.4-1.82h-2.55a6,6,0,0,1-2.35,3.08h6.18v4.87h-1v-.55h-4.93v2.73c0,.63.18.76,1.11.76Zm-4.48-6.82v2.34h2v-2.34Zm4.93,0h-2v2.34h2Z"/><path class="cls-1" d="M299.72,616a26.78,26.78,0,0,1-1.46,3.29v10.06h-1.09v-8.25a19.23,19.23,0,0,1-1.26,1.65,8.54,8.54,0,0,0-.63-1.09,17.3,17.3,0,0,0,3.39-6ZM309,627.69v1.08h-9.89v-1.08h4.44v-2.51H300v-1h3.54v-1.72h1.11v1.72h3.62v1h-3.62v2.51Zm-5.45-9.06h-3.22v-1h3.22v-2h1.11v2H308v1h-3.36v2.13h4v1.06h-9.11v-1.06h4Z"/><path class="cls-1" d="M320.81,622.08a10.69,10.69,0,0,1-2.51,3.79,13,13,0,0,0,5.93,2.34,4.2,4.2,0,0,0-.69,1,13.5,13.5,0,0,1-6.08-2.63,15.88,15.88,0,0,1-6.12,2.76,4.86,4.86,0,0,0-.67-1,14.57,14.57,0,0,0,6-2.49,10.92,10.92,0,0,1-2.43-3.71l1-.3a9.31,9.31,0,0,0,2.25,3.32,8.84,8.84,0,0,0,2.21-3.41Zm3-3.3H311v-1.1h6.22a14,14,0,0,0-1-1.84l1-.36a12,12,0,0,1,1.11,1.93l-.68.27h6.17Zm-8.06.88a17.35,17.35,0,0,1-3.9,3.47,7.5,7.5,0,0,0-.85-.84,13.55,13.55,0,0,0,3.69-3Zm4.26-.45a22.09,22.09,0,0,1,3.86,3.24l-.92.72a20.34,20.34,0,0,0-3.79-3.31Z"/><path class="cls-1" d="M329.55,622.78a18.47,18.47,0,0,1-1.24,3.87c.3.17.64.45,1.21.78a7.94,7.94,0,0,0,4.19.75c1.93,0,4.35-.15,6-.31a3.88,3.88,0,0,0-.33,1.15c-1.13.08-4,.17-5.75.17a8.23,8.23,0,0,1-4.38-.83c-.6-.36-1.17-.87-1.5-.87s-.84,1-1.26,1.89l-.78-1a6.69,6.69,0,0,1,1.5-1.67,12.87,12.87,0,0,0,1.07-3.12h-1.95c.4-.88.88-2.16,1.29-3.34H326v-1H329c-.36,1.08-.84,2.34-1.23,3.38h1l.18,0Zm-2-4.33c-.16-.65-.51-1.68-.76-2.46l1-.29c.27.78.6,1.77.79,2.42Zm4.23,8.64h-1.06v-7.73H335c-.9-.43-2-.91-2.87-1.24l.71-.62c.64.21,1.38.51,2.08.81a12.14,12.14,0,0,0,2.06-1.18h-6.26v-.89H338l.23-.06.67.53a12.4,12.4,0,0,1-3,2c.44.23.84.42,1.16.6h1.89V626c0,.56-.12.81-.51,1a6.19,6.19,0,0,1-2,.18,3.16,3.16,0,0,0-.3-.93c.71,0,1.34,0,1.52,0s.25-.06.25-.25v-1.37h-2.61V627h-1v-2.45h-2.51Zm0-6.87v1.32h2.51v-1.32Zm2.51,3.51v-1.37h-2.51v1.37Zm3.61-3.51h-2.61v1.32h2.61Zm0,3.51v-1.37h-2.61v1.37Z"/><path class="cls-1" d="M345.89,616a21.54,21.54,0,0,1-1.52,3.18v10.12h-1.11v-8.38a15.07,15.07,0,0,1-1.48,1.81,5.49,5.49,0,0,0-.63-1.09,16.76,16.76,0,0,0,3.69-6Zm8.88,11.64v1.08h-9.33v-1.08h5.23a66.07,66.07,0,0,0,1.43-7.43l1.15.21c-.39,2.3-1,5.22-1.54,7.22Zm-.62-8.22h-8.08v-1.08h8.08Zm-6.09,7.53a52.76,52.76,0,0,0-1-6.39l1-.23a62.3,62.3,0,0,1,1.11,6.3Zm1.7-8.78a16,16,0,0,0-.71-2.38l1.05-.27a21.93,21.93,0,0,1,.75,2.32Z"/><path class="cls-1" d="M370,628v.84H356.73V628h2v-6.25h3.48c.06-.29.12-.57.18-.9h-5.49V620h5.64c.05-.29.09-.59.12-.86h-5v-3h11.56v3h-5.41c0,.27-.11.57-.17.86h6v.87h-6.18c-.08.33-.14.61-.21.9h4.66V628Zm-8.9-11h-2.37v1.35h2.37Zm-1.29,5.54v.84h7v-.84Zm7,1.51h-7v.86h7Zm-7,2.42h7v-.9h-7Zm0,1.57h7v-.91h-7Zm2.33-9.69h2.46V617h-2.46Zm3.48,0h2.52V617h-2.52Z"/><path class="cls-1" d="M373.67,627.06a1.2,1.2,0,1,1,1.2,1.18A1.15,1.15,0,0,1,373.67,627.06Zm.34-8.34,0-1.77h1.8l0,1.77-.38,5.82h-1Z"/><path class="cls-1" d="M210,372.85c9.74,2.49,8.08,9,5,7.12a12.39,12.39,0,0,0-1.34-2.56c-3.53.72-8.67,1.58-14.91,2.47a1.38,1.38,0,0,1-.72.5l-1-3.24a4,4,0,0,0,1-.29c2.47-1.32,6-5.35,7.18-7.65l3.91,1.56c-.09.26-.41.45-1,.41a36.39,36.39,0,0,1-8.4,6c3.22-.05,8.23-.2,13.47-.39a23.41,23.41,0,0,0-3.46-3.77Zm2.85,7.46,2.95,2.28a1.8,1.8,0,0,1-1.1.58v7.73a5.47,5.47,0,0,1-2.5.67h-.48v-2H202.5v1.23c0,.28-1.32,1-2.54,1h-.43V380.67l3.14,1.22h8.72Zm-1.13,8.57v-6.29H202.5v6.29Z"/><path class="cls-1" d="M236.27,387.17c-1.39.77-3.5,1.76-6.57,3.08a.83.83,0,0,1-.58.57l-1.46-2.71c.67-.07,1.8-.22,3.14-.38v-2h-2.64L228,385h2.83v-1.68c-.84.05-1.7.05-2.5.05l-.09-.41a27.67,27.67,0,0,0,5.83-1.92,2.1,2.1,0,0,1-.43.05h-.34v-.77H230.8v.56a2.63,2.63,0,0,1-1.78.62h-.28v-1.7a.63.63,0,0,1-.63.31H225.5v7.05l3.38-.76.07.28c-1.56.89-3.89,2.19-7.1,3.75a1,1,0,0,1-.63.65l-1-2.86c.62-.1,1.7-.31,3-.58v-7.53H220.5l-.19-.7h2.91V376h-1.54a13,13,0,0,1-1.3,1.18l-.24-.17a25.81,25.81,0,0,0,2.79-8l3.41.89c-.08.27-.32.46-.94.51l0,.07c5.28,1.92,2.28,4.94.81,3.29a9.5,9.5,0,0,0-1.08-2.72,19.18,19.18,0,0,1-2.81,4.25h2.19l1.17-1.51s1.35,1.06,2.14,1.8c-.07.26-.31.38-.65.38H225.5v3.41h.09l1.15-1.7s1.25,1.15,2,2v-3.82l2.16.89h2.16l1-1,2.14,1.6a1.4,1.4,0,0,1-.87.44v2.8c0,.12-.52.34-1.05.46l1.92,2.09a1.34,1.34,0,0,1-1.3-.1c-.53.07-1.13.12-1.8.19V385h.48l1-1.22a24.19,24.19,0,0,1,1.9,1.54.59.59,0,0,1-.63.38h-2.76v1.68l3.15-.5ZM220.89,381c3.55,3.17,1.53,6.36.17,4.7a13.37,13.37,0,0,0-.51-4.61Zm7.94.69c-.09.29-.41.48-.89.48a14,14,0,0,1-1.82,3.82l-.41-.17a34.72,34.72,0,0,0,.55-5Zm14.26-3.26c-.1.29-.31.46-1,.46a24,24,0,0,1-2.47,6.62,8.31,8.31,0,0,0,1.15,2.45c.22.38.34.33.53-.1a21.4,21.4,0,0,0,1.08-2.78l.26,0-.45,4c.6,1.27.72,2,.36,2.3-1,.89-2.5-.14-3.22-1.1a13.69,13.69,0,0,1-1.32-2.43,14.56,14.56,0,0,1-5.11,3.92l-.24-.29a14.76,14.76,0,0,0,4.77-5.38,45.27,45.27,0,0,1-1.15-10.54H228l-.19-.69h2.95v-2.11h-1.94l-.19-.7h2.13v-2.54l3.12.28c0,.29-.21.51-.76.6V372h.19l1-1.34s1.16.93,1.88,1.65a.59.59,0,0,1-.63.39h-2.49v2.11h3.21c0-1.75,0-3.58,0-5.5l3.29.36c-.05.31-.24.6-.87.7,0,1.49-.05,3-.07,4.44h.77l.89-1.23a1.48,1.48,0,0,1-.27-.19,6,6,0,0,0-.86-2.85l.19-.15c3.5.91,3.17,2.95,2,3.36.48.41,1.08.94,1.51,1.37-.07.26-.31.38-.65.38h-3.62a58.57,58.57,0,0,0,.36,6.82,30.22,30.22,0,0,0,1-4.8Zm-9.82,1.25v-2.16H230.8v2.16Z"/><path class="cls-2" d="M254.66,389.65l-2.07-3.58c-.84-1.37-1.37-2.26-1.87-3.19h-.05c-.45.93-.91,1.8-1.75,3.21L247,389.65h-2.4l4.94-8.19-4.75-8h2.42l2.14,3.79c.6,1.06,1,1.87,1.49,2.74h.07c.45-1,.86-1.71,1.46-2.74l2.21-3.79H257L252,381.34l5,8.31Z"/><path class="cls-1" d="M264.35,388.57c0,1.92-.36,2.95-3.29,3.24a3.7,3.7,0,0,0-.43-1.92,2.47,2.47,0,0,0-1.75-.89v-.34s1.92.12,2.33.12.48-.09.48-.41v-5.61l-1.37.84a.91.91,0,0,1-.6.65l-1.15-3.2c.65-.14,1.75-.4,3.12-.74v-4.7h-2.57l-.19-.68h2.76v-5.71l3.55.36c-.05.34-.29.58-.89.67v4.68h0l1.18-2s1.29,1.42,1.94,2.28c0,.27-.29.39-.6.39h-2.57v4c.89-.24,1.8-.48,2.71-.74l.08.26c-.72.53-1.66,1.16-2.79,1.92Zm10.08,0c.77.07,1.61.1,2.55.1s3.57,0,4.82,0v.29c-.81.19-1.2,1.18-1.17,2.31h-3.8c-4,0-6.33-.94-7.68-4.56a9.19,9.19,0,0,1-4.61,5.18l-.28-.24a13.72,13.72,0,0,0,2.93-8.9l3.64.62c-.07.31-.33.53-.88.58a16.53,16.53,0,0,1-.56,2.08,4.9,4.9,0,0,0,2.31,1.95v-6.24h-4.06l-.22-.67h4.28v-2.55h-5.45l-.19-.69h5.64v-2.38h-4l-.22-.7h4.18v-1.94h-5.16l-.2-.7h5.36v-2.68l3.57.36c0,.33-.21.57-.84.67v1.65h2.67l1.46-2s1.63,1.34,2.62,2.28c-.07.26-.34.38-.67.38h-6.08v1.94h1.88l1.2-1.24,2.44,1.84a1.54,1.54,0,0,1-.84.44v2h0l1-1.59a25.5,25.5,0,0,1,1.75,1.9c0,.26-.28.38-.6.38h-2.16v3.31a3.77,3.77,0,0,1-2.13.72h-.43v-.81h-2.12v2.9h1.71l1.41-1.92s1.59,1.32,2.52,2.21c-.07.26-.33.38-.67.38h-5Zm0-10.77h2.12v-2.38h-2.12Zm0,3.24h2.12v-2.55h-2.12Z"/><path class="cls-1" d="M291.64,381.39a1.51,1.51,0,0,1-.77.17,13.07,13.07,0,0,1-3.21,5.09,1.84,1.84,0,0,1,.38.21c1.9,1.54,4.78,1.9,10,1.87,2.81,0,5.12,0,7.95-.16v.28a2.63,2.63,0,0,0-1.95,2.36h-7c-5.18,0-7.32-1-9.38-3.48-.34-.44-.6-.39-.82,0-.41.72-1,2-1.56,3.25a.39.39,0,0,1-.19.48l-1.92-2.74c1.13-.58,2.76-1.75,3.53-2.11a18.36,18.36,0,0,0,1.63-5.26H287l-.84.74-2.06-1.48a4.07,4.07,0,0,1,1-.48c.77-1.08,1.78-2.69,2.45-3.87h-3.6l-.22-.69h3.89l1.1-1.13,2.26,2a2.07,2.07,0,0,1-1.18.38c-.64,1-1.7,2.67-2.49,3.82h1l1.27-1.27,2.11,1.68v-5.45l2.62,1.05h1.85V375h-5l-.19-.67h5.19V372.1l3.43.34c-.07.33-.27.57-.89.67v1.25h1.94l1.32-1.61.12.1c.05-.44.1-.89.15-1.3h-9.41a2.59,2.59,0,0,1-1.3,2.5,1.44,1.44,0,0,1-2-.8,1.45,1.45,0,0,1,1.08-1.7,2.24,2.24,0,0,0,1.36-2.11h.37a6,6,0,0,1,.4,1.44H302l1.32-1.37,2.37,2.26c-.19.19-.43.24-.91.28a18.54,18.54,0,0,1-1.87,1.42c.48.36,1.05.82,1.51,1.18-.07.26-.31.38-.65.38h-5.11v1.7h1.78l1.2-1.29,2.52,1.92a2,2,0,0,1-1,.48v5.28c0,.07-.19.19-.43.31.34.26,1.66,1.25,2.5,2-.05.27-.32.39-.68.39h-5.9v2c0,.24-1.1.77-2.06.77h-.48v-2.78h-5.36l-.19-.7h5.55v-2.06h-2v.4c0,.27-1.08.8-2.11.8h-.36Zm-6.82-11.95c6.22,1.08,3.92,5.61,1.59,3.84a7.79,7.79,0,0,0-1.8-3.7Zm9.29,8v2.13h2v-2.13Zm2,4.94v-2.14h-2v2.14Zm2.54-4.94v2.13h2v-2.13Zm2,2.8h-2v2.14h2Zm1.84,3.32a4.47,4.47,0,0,1-1.44.31h-.4v-.79h-2v2.06h2.57Z"/><path class="cls-1" d="M310.29,385.06c1,2.52.77,4.42,0,5.38a1.43,1.43,0,0,1-2.28-.19,1.53,1.53,0,0,1,.67-1.95,4.51,4.51,0,0,0,1.2-3.24Zm-2.23-3.12a3,3,0,0,0,.88-.31,20.09,20.09,0,0,0,3.89-4.22c-.86.33-1.89.72-2.95,1.1a1.45,1.45,0,0,1-.67.62L308,376.18a3.3,3.3,0,0,0,.75-.26,18.77,18.77,0,0,0,3.5-6.63l3.29,1.71a.74.74,0,0,1-.82.33,26.24,26.24,0,0,1-4.75,4.88c1,0,2.33,0,3.7,0a20.57,20.57,0,0,0,1.46-2.66l3,2.06a1,1,0,0,1-1,.27,34,34,0,0,1-6.79,6.07c1.51-.1,3.55-.22,5.64-.39a12.49,12.49,0,0,0-1.2-2.4l.26-.12c5.5,2.14,3.41,6.17,1.42,4.47a8.43,8.43,0,0,0-.31-1.42c-1.47.6-3.77,1.49-6.39,2.35a1.38,1.38,0,0,1-.64.53Zm4.41,2.74c4.2,3.09,1.44,6.7-.21,4.61a13.2,13.2,0,0,0-.08-4.54Zm2.57-.43c5.07,1.87,2.79,5.78.89,4.05a8.08,8.08,0,0,0-1.18-3.93ZM328,387.63s1.73,1.42,2.76,2.38c-.07.26-.33.38-.69.38H316.36l-.19-.69h5.33V373.13h-4.25l-.19-.67H326l1.47-2s1.7,1.36,2.66,2.3c0,.26-.29.38-.65.38h-5V389.7h2Z"/><path class="cls-1" d="M334.6,384.7c.91,2.47.77,4.32.07,5.28a1.34,1.34,0,0,1-2.16-.14,1.46,1.46,0,0,1,.63-1.9,4.69,4.69,0,0,0,1.1-3.24Zm20.11-2a.77.77,0,0,1-.93.12,29.7,29.7,0,0,1-2.93,1.56,11,11,0,0,0,4.25,3.27l-.07.26a3,3,0,0,0-2,2.38c-2.09-2.07-3.39-4.47-4.16-8.62v7c0,1.69-.4,2.81-3.21,3a2.84,2.84,0,0,0-.43-1.7,2.79,2.79,0,0,0-1.85-.82v-.33s2.06.16,2.52.16.45-.16.45-.43v-5.73h0a12.44,12.44,0,0,1-6.63,7.77l-.19-.31a13.24,13.24,0,0,0,4.34-7.73H341.1l0-.09a1.12,1.12,0,0,1-2,.79,8.19,8.19,0,0,0-.15-1.06c-1.22.51-2.9,1.18-4.7,1.83a1.45,1.45,0,0,1-.67.48l-.94-2.81a3,3,0,0,0,.82-.29,17.4,17.4,0,0,0,3.36-4.2c-.72.31-1.54.65-2.4,1a1.38,1.38,0,0,1-.67.65l-1.16-2.83a2.72,2.72,0,0,0,.7-.26,18.5,18.5,0,0,0,3.12-6.48l3.22,1.56c-.1.21-.39.38-.87.33a27,27,0,0,1-4.39,4.9c.91,0,2,0,3.14,0a21.69,21.69,0,0,0,1.13-2.31l2.83,1.92a.8.8,0,0,1-.91.24,31.55,31.55,0,0,1-5.93,5.81c1.16-.05,2.62-.14,4.16-.26a14.78,14.78,0,0,0-.94-2.28l.29-.12c1.8.86,2.64,1.92,2.85,2.81h2.69l1.28-1.28,1.36,1.18v-2.23h-1.77v.5c0,.17-.75.6-2,.6h-.43v-9.45l2.69,1h.94c.12-.91.24-2.31.31-3.22l3.84.58c-.07.38-.38.57-.94.62-.55.55-1.51,1.39-2.2,2h3.62l1.18-1.37,2.35,1.78a1.36,1.36,0,0,1-.91.45v6.58a2.84,2.84,0,0,1-2.09.6h-.43v-.72h-1.64v.74a12,12,0,0,0,1.59,3.48,34,34,0,0,0,1.63-3.29Zm-18.21,1.68c4,3,1.34,6.49-.2,4.52a10.43,10.43,0,0,0-.14-4.44Zm2.2-.38c4.59,1.66,2.5,5.09.82,3.55a7.26,7.26,0,0,0-1.08-3.43Zm5.84-11v2.62h5.93V373Zm5.93,6v-2.64h-5.93V379Z"/><path class="cls-2" d="M366.76,389.65l-2.06-3.58c-.84-1.37-1.37-2.26-1.88-3.19h0c-.46.93-.92,1.8-1.76,3.21l-1.94,3.56h-2.4l4.94-8.19-4.75-8h2.43l2.13,3.79c.6,1.06,1.06,1.87,1.49,2.74H363c.46-1,.87-1.71,1.47-2.74l2.21-3.79h2.4l-4.92,7.87,5,8.31Z"/><path class="cls-1" d="M385.19,372.85c9.75,2.49,8.09,9,5,7.12a12.39,12.39,0,0,0-1.34-2.56c-3.53.72-8.67,1.58-14.91,2.47a1.46,1.46,0,0,1-.72.5l-1-3.24a4,4,0,0,0,1-.29c2.47-1.32,6.05-5.35,7.18-7.65l3.91,1.56c-.1.26-.41.45-1,.41a36.39,36.39,0,0,1-8.4,6c3.22-.05,8.23-.2,13.46-.39A23.37,23.37,0,0,0,385,373Zm2.86,7.46,2.95,2.28a1.87,1.87,0,0,1-1.1.58v7.73a5.51,5.51,0,0,1-2.5.67h-.48v-2h-9.17v1.23c0,.28-1.32,1-2.54,1h-.43V380.67l3.14,1.22h8.71Zm-1.13,8.57v-6.29h-9.17v6.29Z"/><path class="cls-1" d="M407.06,388.9v.75h-10.3v-.75l3.55-.43c.05-1.49.07-3,.07-4.46v-9.75l-3.12.31v-.88l6.05-1.44.34.26-.1,3.86V384c0,1.48,0,3,.07,4.46Z"/><path class="cls-1" d="M412.24,384.7c.91,2.47.77,4.32.07,5.28a1.34,1.34,0,0,1-2.16-.14,1.46,1.46,0,0,1,.63-1.9,4.69,4.69,0,0,0,1.1-3.24Zm20.11-2a.77.77,0,0,1-.93.12,29.7,29.7,0,0,1-2.93,1.56,11,11,0,0,0,4.25,3.27l-.07.26a3,3,0,0,0-2,2.38c-2.09-2.07-3.39-4.47-4.16-8.62v7c0,1.69-.4,2.81-3.21,3a2.84,2.84,0,0,0-.43-1.7,2.79,2.79,0,0,0-1.85-.82v-.33s2.06.16,2.52.16.45-.16.45-.43v-5.73h0a12.44,12.44,0,0,1-6.63,7.77l-.19-.31a13.24,13.24,0,0,0,4.34-7.73h-2.68l0-.09a1.12,1.12,0,0,1-2,.79,6.76,6.76,0,0,0-.15-1.06c-1.22.51-2.9,1.18-4.7,1.83a1.45,1.45,0,0,1-.67.48l-.94-2.81a3,3,0,0,0,.82-.29,17.4,17.4,0,0,0,3.36-4.2c-.72.31-1.54.65-2.4,1a1.38,1.38,0,0,1-.67.65l-1.16-2.83a2.72,2.72,0,0,0,.7-.26,18.5,18.5,0,0,0,3.12-6.48l3.22,1.56c-.1.21-.39.38-.87.33a27,27,0,0,1-4.39,4.9c.91,0,2,0,3.14,0a21.69,21.69,0,0,0,1.13-2.31l2.83,1.92a.8.8,0,0,1-.91.24,31.55,31.55,0,0,1-5.93,5.81c1.16-.05,2.62-.14,4.16-.26a14.78,14.78,0,0,0-.94-2.28l.29-.12c1.8.86,2.64,1.92,2.85,2.81h2.69l1.28-1.28,1.36,1.18v-2.23h-1.77v.5c0,.17-.75.6-2,.6h-.44v-9.45l2.69,1h.94c.12-.91.24-2.31.31-3.22l3.84.58c-.07.38-.38.57-.94.62-.55.55-1.51,1.39-2.2,2H428l1.18-1.37,2.35,1.78a1.36,1.36,0,0,1-.91.45v6.58a2.84,2.84,0,0,1-2.09.6h-.43v-.72h-1.64v.74a12,12,0,0,0,1.59,3.48,34,34,0,0,0,1.63-3.29Zm-18.21,1.68c4,3,1.34,6.49-.2,4.52a10.43,10.43,0,0,0-.14-4.44Zm2.2-.38c4.59,1.66,2.5,5.09.82,3.55a7.26,7.26,0,0,0-1.08-3.43Zm5.84-11v2.62h5.93V373Zm5.93,6v-2.64h-5.93V379Z"/><path class="cls-1" d="M206.47,411.89c-1.06.65-2.41,1.46-4.09,2.42v7.23c0,2-.4,3.22-3.62,3.55a4.07,4.07,0,0,0-.58-2.18,3,3,0,0,0-2.13-1v-.34s2.52.17,3.07.17.53-.15.53-.46v-5.42c-.77.4-1.59.84-2.45,1.27a1.17,1.17,0,0,1-.62.67l-1.13-3.29c.84-.17,2.35-.53,4.2-1v-4.56H196l-.19-.69h3.82v-5.67l3.62.34c-.05.36-.29.6-.89.7v4.63H203l1.25-1.87s1.44,1.29,2.26,2.18a.6.6,0,0,1-.65.38h-3.44v3.84l4-1.12Zm9.28-8.5s1.76,1.44,2.79,2.43c-.07.26-.34.38-.67.38H214v15.05c0,1.95-.55,3.36-4.2,3.63a2.74,2.74,0,0,0-.84-2.12,5.68,5.68,0,0,0-3-1v-.31s3.74.24,4.49.24c.43,0,.6-.22.6-.53V406.2h-6.7l-.19-.69h10Z"/><path class="cls-1" d="M228.88,414.87a2.83,2.83,0,0,1-.58.09,12.49,12.49,0,0,1-3.52,5,2.09,2.09,0,0,1,.28.17c1.88,1.56,4.76,1.92,10,1.9,2.78,0,5.11,0,7.89-.17v.29a2.58,2.58,0,0,0-1.94,2.35h-6.87c-5.18,0-7.32-1-9.36-3.5-.33-.44-.6-.39-.81,0-.41.75-1.11,2.05-1.64,3.27a.41.41,0,0,1-.21.48l-1.9-2.74c1.15-.6,2.83-1.77,3.63-2.11a18,18,0,0,0,1.68-5.18h-1.37l-.89.81L221,414a4.76,4.76,0,0,1,1-.48c.79-1.11,1.82-2.71,2.49-3.89h-3.72l-.21-.7h4l1.23-1.22,2.4,2.21a1.91,1.91,0,0,1-1.28.38c-.64,1-1.65,2.64-2.44,3.79h.91l1.39-1.41,2.16,1.73v-6.48l2.69,1.1h2.62a2.5,2.5,0,0,1-.24-.22,6.77,6.77,0,0,0-3.22-2.47l.12-.31a14,14,0,0,1,4.25.67,23.77,23.77,0,0,0,1.94-2.09h-8.3l-.22-.69h8.76l1.49-1.44,2.52,2.37c-.22.22-.46.27-1,.29a26.84,26.84,0,0,1-4.51,1.9c1.13.69.91,1.56.26,2H238l1.13-1.34,2.59,2a1.5,1.5,0,0,1-1,.48v8.57c0,1.61-.31,2.48-2.86,2.72a3.35,3.35,0,0,0-.24-1.57,1.56,1.56,0,0,0-1.22-.69v-.34s1.08.1,1.44.1.38-.15.38-.41v-2H236v3.84a2.78,2.78,0,0,1-2,.55h-.41V416.5H231.4v4c0,.26-1.05.86-2.13.86h-.39ZM221.44,403c6.84.31,4.8,5.52,2.11,3.84a8,8,0,0,0-2.3-3.69Zm10,6.72v2.71h2.21v-2.71Zm2.21,6.15v-2.76H231.4v2.76Zm2.38-6.15v2.71h2.2v-2.71Zm2.2,6.15v-2.76H236v2.76Z"/><path class="cls-1" d="M262.51,413.71c-.12.27-.39.41-1,.36a18.75,18.75,0,0,1-3.68,5.09,29.29,29.29,0,0,0,9.65,3.15l0,.28a3.24,3.24,0,0,0-2.54,2.5,21.94,21.94,0,0,1-8.71-4.49,24.47,24.47,0,0,1-11.36,4.49l-.14-.31a22.66,22.66,0,0,0,9.94-5.71A17.66,17.66,0,0,1,251.3,413l.31-.24a12.92,12.92,0,0,0,4.18,5.11,17.54,17.54,0,0,0,3.16-5.64Zm-17.26-5.95-.19-.67H262.7l1.61-2.33s1.82,1.59,2.88,2.62c-.08.26-.34.38-.68.38Zm.41,7.56a18.59,18.59,0,0,0,5.32-7.39l3.51,1.78c-.1.24-.34.4-.91.33a17.49,17.49,0,0,1-7.76,5.55Zm7.24-12.77c7.11.51,5,5.88,2.26,4.16a8.69,8.69,0,0,0-2.45-4Zm5.48,5.84c9.65,1.53,8.21,7.92,5.09,6.26a17.07,17.07,0,0,0-5.28-6.07Z"/><path class="cls-1" d="M277.84,414.87a2.83,2.83,0,0,1-.58.09,12.49,12.49,0,0,1-3.52,5,2.09,2.09,0,0,1,.28.17c1.88,1.56,4.76,1.92,10,1.9,2.78,0,5.11,0,7.89-.17v.29a2.58,2.58,0,0,0-1.94,2.35h-6.87c-5.18,0-7.32-1-9.36-3.5-.33-.44-.6-.39-.81,0-.41.75-1.11,2.05-1.64,3.27a.41.41,0,0,1-.21.48l-1.9-2.74c1.15-.6,2.83-1.77,3.63-2.11a18,18,0,0,0,1.68-5.18h-1.37l-.89.81L270,414a4.76,4.76,0,0,1,1-.48c.79-1.11,1.82-2.71,2.49-3.89H269.7l-.21-.7h4l1.23-1.22,2.4,2.21a1.91,1.91,0,0,1-1.28.38c-.64,1-1.65,2.64-2.44,3.79h.91l1.39-1.41,2.16,1.73v-6.48l2.69,1.1h2.62a2.5,2.5,0,0,1-.24-.22,6.77,6.77,0,0,0-3.22-2.47l.12-.31a14,14,0,0,1,4.25.67,23.77,23.77,0,0,0,1.94-2.09h-8.3l-.22-.69h8.76l1.49-1.44,2.52,2.37c-.22.22-.46.27-1,.29a26.84,26.84,0,0,1-4.51,1.9c1.13.69.91,1.56.26,2h1.87l1.13-1.34,2.59,2a1.5,1.5,0,0,1-1,.48v8.57c0,1.61-.31,2.48-2.86,2.72a3.35,3.35,0,0,0-.24-1.57,1.56,1.56,0,0,0-1.22-.69v-.34s1.08.1,1.44.1.38-.15.38-.41v-2H285v3.84a2.78,2.78,0,0,1-2,.55h-.41V416.5h-2.21v4c0,.26-1.05.86-2.13.86h-.39ZM270.4,403c6.84.31,4.8,5.52,2.11,3.84a8,8,0,0,0-2.3-3.69Zm10,6.72v2.71h2.21v-2.71Zm2.21,6.15v-2.76h-2.21v2.76Zm2.38-6.15v2.71h2.2v-2.71Zm2.2,6.15v-2.76H285v2.76Z"/><path class="cls-1" d="M301.89,403.68c-.1.31-.41.51-1,.51a29.59,29.59,0,0,1-2.38,5.13l1.15.43c-.07.2-.28.34-.74.44v14.06a3.39,3.39,0,0,1-2.3.82h-.53V412.73a19.8,19.8,0,0,1-2.26,2.23l-.26-.19a42.41,42.41,0,0,0,4.17-12.24Zm11.78,7.87s1.64,1.37,2.62,2.28c-.07.27-.34.39-.67.39H309V423h2.52l1.44-2s1.63,1.39,2.59,2.33c-.07.26-.31.38-.64.38H300.69l-.19-.67h5.69v-8.76H300l-.2-.67h6.37v-7.4h-4.66l-.19-.67h9.53l1.44-2s1.63,1.39,2.59,2.33c-.07.26-.31.38-.65.38H309v7.4h3.17Z"/><path class="cls-1" d="M335,413.21l2.64,2a1.59,1.59,0,0,1-.86.45v8.52a4.26,4.26,0,0,1-2.35.72h-.48V423.6h-8.86v.6c0,.29-1.2.92-2.35.92h-.44V413.43l1,.38v-3.6a1.1,1.1,0,0,1-.6.07A11.32,11.32,0,0,1,318.5,414l-.29-.24a15,15,0,0,0,2.42-5l2.59,1v-1.42h-4.46l-.19-.67h4.49v-5.06l3.45.29c-.05.33-.24.57-.89.67V405h1l1.25-1.61s1.42,1.13,2.26,1.92c-.07.26-.31.38-.63.38h-3.84v1.92h1.88l1.32-1.73s1.51,1.18,2.42,2c-.07.26-.31.38-.65.38h-4.8v5.14a3.33,3.33,0,0,1-2.11.5h-.1l1.64.65h8.45Zm-9.91,2.09v2.06h8.86V415.3Zm0,2.73v2.07h8.86V418Zm8.86,4.88v-2.14h-8.86v2.14Zm-7.59-14c5.83,1.05,3.6,5.18,1.39,3.52A9.12,9.12,0,0,0,326.1,409Zm13.8-3.63c-.14.24-.38.31-.89.36a13.23,13.23,0,0,1-2.9,4.51,19.21,19.21,0,0,0,4.34,1.61l0,.24a3,3,0,0,0-2.14,2.33,13.08,13.08,0,0,1-4-2.71,18.21,18.21,0,0,1-6.38,2.61l-.15-.31a14.34,14.34,0,0,0,5.45-3.6,14.11,14.11,0,0,1-2.11-5.06h-1l-.21-.7h6.07l1.46-1.44Zm-8.28,0a8.91,8.91,0,0,0,2.71,3.69,12.25,12.25,0,0,0,1.73-3.69Z"/><path class="cls-1" d="M360,420.7l1.82-2.4s2,1.61,3.29,2.71c-.07.26-.36.39-.7.39H343.1l-.2-.7Zm-2.31-13.49,1.78-2.35s2,1.58,3.21,2.64c-.07.26-.36.38-.69.38H345.42l-.19-.67Z"/><path class="cls-1" d="M375.26,422.21c0,1.63-.32,2.52-2.81,2.76a3.08,3.08,0,0,0-.41-1.56,2.46,2.46,0,0,0-1.61-.74v-.36s1.78.12,2.16.12.46-.15.46-.46v-7.3c-.39.53-.84,1.13-1.3,1.78a.93.93,0,0,1-.43.72l-.89-1.66c-.21,3.34-.91,6.89-3.29,9.63l-.33-.19c1.56-3.92,1.53-8.86,1.53-13.32v-8.48l2.57,1h1.92l1-1.23,2.29,1.78a1.61,1.61,0,0,1-.89.46Zm-4.73-10.63c0,1,0,2,0,3,.65-.29,1.56-.74,2.57-1.27v-2.59a1.31,1.31,0,0,1-.63,0,8.13,8.13,0,0,0-1.89-1.34Zm0-6.75v3.68a3.83,3.83,0,0,1,2.52.26v-3.94Zm9,7.56c0,4.11-.19,9.22-4.37,12.73l-.31-.27c2.09-3.67,2.23-8.21,2.23-12.5v-8.09l2.67,1.17a39,39,0,0,0,7.13-2.71l2.71,2.45a1.6,1.6,0,0,1-1.51,0,58.31,58.31,0,0,1-8.55,1Zm10.18.15a.8.8,0,0,1-.94,0,36.92,36.92,0,0,1-3.6,1.92c.91,3.38,2.38,6.24,4.71,7.63l-.05.26a3.47,3.47,0,0,0-1.9,2.48c-3.19-3.32-3.89-8.38-4.13-16l-1.1.08v12.62c.7-.21,1.44-.45,2.18-.7l.12.29c-.67.63-2.11,1.9-3.72,3.17a1.77,1.77,0,0,1-.74.75l-1.25-2.57c.89-.44,1-.65,1-1.18V407.55l2.16.52a22.82,22.82,0,0,0,4-2l2.49,2.3a1.56,1.56,0,0,1-1.41,0,29.88,29.88,0,0,1-3.34.48,35.31,35.31,0,0,0,.79,5c.84-1.27,1.76-2.9,2.19-3.74Z"/><line class="cls-3" x1="195.02" y1="443.5" x2="320.02" y2="443.5"/></svg>