<svg id="圖層_3" data-name="圖層 3" xmlns="http://www.w3.org/2000/svg" viewBox="0 0 1440 700"><defs><style>.cls-1{fill:#b5b5b6;}</style></defs><path class="cls-1" d="M109.65,313.21l-.08.75h1.2v.47h-1.25l-.08.74H105l.11-.74H104V314h1.2l.12-.75Zm.11,2.32v2.55h-1.49a14.18,14.18,0,0,1,2.33.58l-.18.46a15,15,0,0,0-2.42-.7l.17-.34h-1.65l.24.33a8.67,8.67,0,0,1-2.44.71l-.27-.45a9.85,9.85,0,0,0,2.37-.59H105v-2.55Zm.91-1.9h-.55v-.83h-5.51v.83h-.55v-1.29h3a4.86,4.86,0,0,0-.23-.51l.57-.1c.08.18.16.38.24.61h3Zm-1.45,2.64v-.4h-3.7v.4Zm0,.71v-.38h-3.7V317Zm0,.33h-3.7v.39h3.7ZM107,314.82l.07-.45h-1.43l-.08.45Zm.12-.79.08-.46h-1.43l-.08.46Zm.38.79H109l.05-.45h-1.44Zm.13-.79h1.42l.06-.46h-1.4Z"/><path class="cls-1" d="M114.1,317.88a6.37,6.37,0,0,1-2,1.12l-.32-.47a5.73,5.73,0,0,0,2-1ZM118,312v2.28h-2.48a3.9,3.9,0,0,1,.2.47h3.16v.48h-7v-.48h3.27a5.19,5.19,0,0,0-.25-.47h-2.14V312Zm-.08,3.66v1.61h-2.18v1.14c0,.44-.21.66-.62.66h-1l-.12-.53c.31,0,.6,0,.88,0s.24-.11.24-.31v-1h-2.3v-1.61Zm-.48-2.74v-.46h-4.15v.46Zm0,.43h-4.15v.48h4.15Zm-.08,2.76h-3.93v.71h3.93Zm1.63,2.37-.2.53a10.35,10.35,0,0,0-2.27-1l.24-.46A10,10,0,0,1,119,318.47Z"/><path class="cls-1" d="M122.4,315.5c-.3.16-.6.32-.91.45v2.36a.64.64,0,0,1-.72.72h-.69l-.13-.56.62,0a.3.3,0,0,0,.34-.34v-2c-.34.13-.7.26-1,.37l-.13-.58a9.5,9.5,0,0,0,1.18-.37v-1.83h-1.1v-.56h1.1v-1.44h.58v1.44h.88v.56h-.88v1.59c.32-.14.62-.3.91-.46Zm4.19,3.51H126v-.36h-2.58V319h-.58V313h1.21a8.4,8.4,0,0,0,.24-1.27l.59.08a9.53,9.53,0,0,1-.26,1.19h2ZM126,315.5v-2h-2.58v2Zm0,2.59v-2h-2.58v2Z"/><path class="cls-1" d="M128,319l-.12-.54c.2,0,.39,0,.57,0s.25-.11.25-.33v-2.13l-.83.3-.13-.56q.49-.14,1-.3v-1.84h-.85v-.56h.85v-1.31h.56v1.31H130v.56h-.78v1.6a6.8,6.8,0,0,0,.76-.39v.57c-.25.14-.5.26-.76.38v2.51c0,.46-.2.69-.62.69Zm2.17-3.15v-.45h2.29v.45h-.21v3.24h-.47v-.63c-.53.09-1.09.17-1.68.23l-.12-.44.47,0v-2.35Zm4.5-3.82v.44h-.56v1.91h.69v.45h-.69v.35h-.53v-.35h-3.28v-.45H131v-1.91h-.53v-.44Zm-3.76,3.82v.49h.87v-.49Zm.87,1.33v-.46h-.87v.46Zm0,.85v-.48h-.87v.6Q131.35,318.13,131.77,318.05Zm1.8-5.14v-.42h-2.08v.42Zm0,.73v-.38h-2.08v.38Zm0,.76V314h-2.08v.41Zm-.92,1.47v-.45h2.28v.45h-.27V318H135v.46h-.33v.63h-.47v-.63h-1.68V318h.37v-2.15Zm.67,0v.48h.87v-.48Zm.87,1.3v-.45h-.87v.45Zm0,.85v-.48h-.87V318Z"/></svg>