<svg id="圖層_3" data-name="圖層 3" xmlns="http://www.w3.org/2000/svg" viewBox="0 0 1440 700"><defs><style>.cls-1{fill:#fff;}.cls-2{fill:#b5b5b6;}</style></defs><path class="cls-1" d="M796.64,18.49l-.08.75h1.2v.47h-1.25l-.08.74H792l.11-.74H791v-.47h1.21l.12-.75Zm.11,2.32v2.55h-1.49a15.56,15.56,0,0,1,2.33.58l-.18.46a15.09,15.09,0,0,0-2.43-.7l.18-.34H793.5l.25.33a8.67,8.67,0,0,1-2.44.71L791,24a10,10,0,0,0,2.37-.59H792V20.81Zm.9-1.9h-.54v-.83h-5.52v.83h-.54V17.62h3c-.07-.18-.15-.35-.23-.51l.57-.1c.08.19.16.39.23.61h3Zm-1.44,2.64v-.4h-3.7v.4Zm0,.71v-.38h-3.7v.38Zm0,.33h-3.7V23h3.7ZM794,20.1l.08-.45h-1.44l-.07.45Zm.13-.79.07-.46h-1.42l-.08.46Zm.38.79h1.45l.06-.45h-1.44Zm.13-.79H796l.06-.46h-1.4Z"/><path class="cls-1" d="M801.09,23.16a6.19,6.19,0,0,1-2,1.12l-.32-.47a5.73,5.73,0,0,0,2-1Zm3.9-5.88v2.27h-2.48c.07.15.14.31.2.47h3.16v.48h-7V20h3.28c-.08-.17-.17-.32-.25-.47h-2.14V17.28Zm-.08,3.65v1.61h-2.18v1.14c0,.44-.21.66-.62.66h-1l-.12-.53c.3,0,.6,0,.88,0s.24-.11.24-.31v-1h-2.3V20.93Zm-.48-2.74v-.46h-4.15v.46Zm0,.43h-4.15v.48h4.15Zm-.08,2.76h-3.93v.71h3.93ZM806,23.75l-.2.53a10.55,10.55,0,0,0-2.26-1l.24-.46A9.73,9.73,0,0,1,806,23.75Z"/><path class="cls-1" d="M809.39,20.79c-.3.16-.6.31-.91.44v2.36a.64.64,0,0,1-.72.72h-.69l-.13-.56.62,0a.3.3,0,0,0,.34-.34v-2c-.35.13-.7.26-1,.37l-.14-.58c.4-.1.8-.22,1.19-.36V19.07h-1.11v-.56h1.11V17.07h.58v1.44h.88v.56h-.88v1.6c.31-.15.62-.31.91-.47Zm4.18,3.51H813v-.37h-2.57v.39h-.58V18.26H811a11.73,11.73,0,0,0,.24-1.26l.58.08a8.19,8.19,0,0,1-.25,1.18h2ZM813,20.78v-2h-2.57v2Zm0,2.59v-2h-2.57v2Z"/><path class="cls-1" d="M815,24.3l-.12-.54c.2,0,.39,0,.57,0s.25-.11.25-.33V21.34l-.83.3-.14-.56c.34-.09.66-.19,1-.3V18.94h-.85v-.56h.85V17.07h.56v1.31H817v.56h-.78v1.61a7.88,7.88,0,0,0,.76-.4v.57a7.69,7.69,0,0,1-.76.38v2.51c0,.46-.21.69-.62.69Zm2.17-3.15V20.7h2.29v.45h-.21v3.24h-.47v-.63c-.53.09-1.1.17-1.69.23l-.12-.44.47-.05V21.15Zm4.5-3.82v.44h-.56v1.91h.69v.45h-.69v.35h-.53v-.35h-3.28v-.45H818V17.77h-.54v-.44Zm-3.76,3.82v.49h.87v-.49Zm.87,1.33V22h-.87v.46Zm0,.85v-.48h-.87v.61Zm1.8-5.14v-.42h-2.08v.42Zm0,.73v-.38h-2.08v.38Zm0,.76v-.41h-2.08v.41Zm-.92,1.47V20.7h2.28v.45h-.27V23.3H822v.46h-.33v.63h-.47v-.63H819.5V23.3h.36V21.15Zm.67,0v.48h.87v-.48Zm.87,1.3V22h-.87v.45Zm0,.85v-.48h-.87v.48Z"/><path class="cls-2" d="M1343.28,332.27l-.08.75h1.2v.46h-1.24l-.08.75h-4.46l.11-.75h-1.13V333h1.21l.12-.75Zm.12,2.32v2.55h-1.5a13.35,13.35,0,0,1,2.34.58l-.19.46a14.68,14.68,0,0,0-2.42-.7l.18-.34h-1.66l.25.32a8.49,8.49,0,0,1-2.45.72l-.26-.45a9.88,9.88,0,0,0,2.36-.59h-1.44v-2.55Zm.9-1.91h-.54v-.82h-5.52v.82h-.54V331.4h3a5.06,5.06,0,0,0-.23-.52l.58-.09a5.24,5.24,0,0,1,.23.61h3Zm-1.45,2.65v-.4h-3.7v.4Zm0,.71v-.38h-3.7V336Zm0,.33h-3.7v.39h3.7Zm-2.22-2.5.07-.44h-1.43l-.08.44Zm.13-.79.07-.45h-1.42l-.08.45Zm.37.79h1.46l.06-.44h-1.44Zm.13-.79h1.43l0-.45h-1.4Z"/><path class="cls-2" d="M1347.73,336.94a6.21,6.21,0,0,1-2,1.12l-.32-.48a5.67,5.67,0,0,0,2-1Zm3.91-5.89v2.28h-2.48c.07.14.13.3.2.46h3.16v.48h-7v-.48h3.28a5,5,0,0,0-.26-.46h-2.13v-2.28Zm-.08,3.66v1.61h-2.19v1.14c0,.44-.2.66-.61.66h-1l-.12-.54c.3,0,.6,0,.88,0s.24-.1.24-.3v-1h-2.31v-1.61Zm-.48-2.74v-.46h-4.15V332Zm0,.43h-4.15v.48h4.15Zm-.08,2.76h-3.94v.71H1351Zm1.62,2.37-.2.53a10.53,10.53,0,0,0-2.26-1l.24-.45A9.92,9.92,0,0,1,1352.62,337.53Z"/><path class="cls-2" d="M1356,334.56l-.91.45v2.36a.64.64,0,0,1-.72.72h-.7l-.13-.56.63,0a.3.3,0,0,0,.33-.34v-2l-1,.37-.14-.58a9.5,9.5,0,0,0,1.18-.37v-1.84h-1.1v-.55h1.1v-1.45h.59v1.45h.88v.55h-.88v1.6c.31-.14.61-.3.91-.46Zm4.18,3.51h-.59v-.37h-2.58v.4h-.57V332h1.21a11.92,11.92,0,0,0,.24-1.27l.58.08a8,8,0,0,1-.26,1.19h2Zm-.59-3.52v-2h-2.58v2Zm0,2.59v-2h-2.58v2Z"/><path class="cls-2" d="M1361.62,338.08l-.12-.54c.2,0,.4,0,.57,0s.26-.12.26-.33v-2.14c-.28.12-.56.21-.83.31l-.14-.56a9.17,9.17,0,0,0,1-.31v-1.83h-.86v-.56h.86v-1.32h.56v1.32h.77v.56h-.77v1.6c.25-.12.51-.25.76-.39v.57c-.26.13-.51.26-.76.37v2.51c0,.47-.21.7-.63.7Zm2.17-3.15v-.46h2.29v.46h-.2v3.24h-.47v-.63c-.53.08-1.1.16-1.69.23l-.12-.44.47-.05v-2.35Zm4.5-3.82v.44h-.56v1.91h.7v.45h-.7v.35h-.53v-.35h-3.27v-.45h.68v-1.91h-.54v-.44Zm-3.76,3.82v.49h.88v-.49Zm.88,1.33v-.47h-.88v.47Zm0,.84v-.48h-.88v.61Zm1.79-5.14v-.41h-2.07V332Zm0,.74v-.38h-2.07v.38Zm0,.76v-.41h-2.07v.41Zm-.91,1.47v-.46h2.27v.46h-.27v2.14h.34v.47h-.34v.63h-.46v-.63h-1.69v-.47h.37v-2.14Zm.67,0v.48h.87v-.48Zm.87,1.3v-.45H1367v.45Zm0,.84v-.47H1367v.47Z"/></svg>