<svg id="圖層_3" data-name="圖層 3" xmlns="http://www.w3.org/2000/svg" viewBox="0 0 1440 700"><defs><style>.cls-1{fill:#333;}.cls-2{fill:none;stroke:#006837;stroke-miterlimit:10;stroke-width:3px;}</style></defs><path class="cls-1" d="M944.55,429.48a1.69,1.69,0,0,1-1,.5v16.59c0,1.87-.48,2.93-3.92,3.21a2.5,2.5,0,0,0-.74-1.8,5,5,0,0,0-2.66-.91v-.36s3.24.19,3.91.19c.48,0,.62-.19.62-.55V429.53H927.05v19.15c0,.36-1.1,1.06-2.28,1.06h-.48V427.61l3,1.22h13.27l1.3-1.49Zm-7.68,14.73H931l-.82,1.11L927.63,444a4.46,4.46,0,0,1,.91-.7v-6.09l2.88.26c0,.27-.19.46-.62.53v5.57h1.77v-7.85H927.7l-.19-.7h7.08a38,38,0,0,0,1.34-5l3.53,1.06c-.09.29-.38.48-.91.46a33.74,33.74,0,0,1-3.43,3.52H937l1.29-1.6s1.49,1.12,2.38,1.92c-.07.26-.31.38-.65.38h-4.87v7.85h1.75V437l3,.29c0,.27-.22.48-.72.55v7.23c0,.24-1.06.72-1.92.72h-.41ZM929,430.15c6.15,1.39,3.91,5.88,1.61,4.13a10.23,10.23,0,0,0-1.85-4Z"/><path class="cls-1" d="M969,433.2c0,.33-.24.57-.89.67v15.05c0,.26-1.3.89-2.45.89h-.53V447.5H951.75l-.94,1.3-3.09-1.54a4.21,4.21,0,0,1,.91-.79V432.84l3.86.38c-.07.36-.28.58-.88.67v12.92h5.2V427.7l3.89.39c-.05.33-.24.57-.89.67v18.05h5.33v-14Z"/><path class="cls-1" d="M971.53,448.39a16.83,16.83,0,0,0,6.64-5.74l3.22,2c-.17.27-.46.36-1,.27-2.28,2.25-5.9,3.41-8.76,3.72Zm19.72-8.86s1.81,1.35,2.86,2.28c-.05.27-.31.39-.65.39h-9v6.86c0,.22-1.3.72-2.48.72h-.52V442.2h-9.58l-.22-.7h9.8v-2.16l3.88.36c0,.31-.24.55-.88.65v1.15h5.18Zm-19.51-1.89a4.07,4.07,0,0,0,.7-.24,16.81,16.81,0,0,0,2.88-3.72c-.6.29-1.27.62-2,.93a1.11,1.11,0,0,1-.43.36l-1.08-2.37a2.7,2.7,0,0,0,.58-.24,14.41,14.41,0,0,0,2.45-5.07l3,1.35a.74.74,0,0,1-.81.33,20.86,20.86,0,0,1-3.51,3.6l2.4-.14a17.08,17.08,0,0,0,.94-2l2.4,1.44v-2.66l2.3,1c.08-.82.12-2,.15-2.88l3.17.41c-.08.38-.36.6-.87.65-.43.5-1.08,1.24-1.61,1.82h1.4L985,429l2.26,1.73a1.59,1.59,0,0,1-.8.4v7.49a3.39,3.39,0,0,1-2,.65h-.39v-.94h-2.52v.6c0,.22-1,.72-1.89.72h-.34v-7.32a1,1,0,0,1-.55,0,30.75,30.75,0,0,1-5.11,5.21c1-.08,2.18-.2,3.48-.29a10.47,10.47,0,0,0-.56-2.21l.29-.07c4.06,2.59,1.8,5.9.29,4.15a6,6,0,0,0,0-1.2c-1,.46-2.42,1.08-3.88,1.66a1.61,1.61,0,0,1-.51.48Zm9.84-6.79v3h2.52v-3Zm2.52,6.79v-3.1h-2.52v3.1Zm1.47,6.41c9.07-1.25,9.29,5.42,5.93,4.39a18.45,18.45,0,0,0-6-4.13Zm8.73-12a.79.79,0,0,1-.88.31,31.15,31.15,0,0,1-4.95,5.14c.94,0,2.11-.15,3.36-.27a15,15,0,0,0-.5-2.18l.29-.1c4.15,2.67,1.82,5.93.31,4.18a8.14,8.14,0,0,0,0-1.3c-1,.46-2.35,1.11-3.79,1.71a1.52,1.52,0,0,1-.55.53l-1.08-2.43a2.64,2.64,0,0,0,.67-.26,16.46,16.46,0,0,0,2.81-3.7c-.6.29-1.27.63-1.92.91a1,1,0,0,1-.48.41l-1.06-2.45a2.46,2.46,0,0,0,.58-.21,14.76,14.76,0,0,0,2.45-5.07l3.09,1.35a.79.79,0,0,1-.84.38,22,22,0,0,1-3.53,3.58l2.41-.15c.38-.74.69-1.46.91-2Z"/><path class="cls-1" d="M1001.07,443.78c5.69,1.78,3.31,6.12,1.2,4.25a7.68,7.68,0,0,0-.79-2.95c-.15.19-.36.31-.87.26a13.82,13.82,0,0,1-4.36,4.44l-.27-.26a15.46,15.46,0,0,0,2.43-5.4,3.84,3.84,0,0,1-.8.07h-.4V427.94l2.64,1h1.68l1.22-1.44,2.35,1.88a1.59,1.59,0,0,1-1,.48v13.22a2.77,2.77,0,0,1-2.09.7h-.43v-1.16h-2v.87c0,.09-.17.24-.45.38l2.28,1a7.54,7.54,0,0,0-.6-1Zm-1.49-14.11v3.55h2v-3.55Zm2,7.9v-3.65h-2v3.65Zm0,4.39v-3.72h-2V442Zm15.8.41s1.12,1.15,1.7,1.92c0,.26-.26.36-.6.36h-1.92v2.16c0,1.7-.31,2.69-3.1,2.95a3.2,3.2,0,0,0-.45-1.75,2.6,2.6,0,0,0-1.76-.82v-.36s2,.14,2.4.14.48-.14.48-.45v-1.87H1008V449c0,.24-1,.79-2,.79h-.36v-5.16h-1.39L1004,444h1.58v-7.32l2.52,1.06h1.75V436h-5.3l-.17-.68h2.93v-2h-2.14l-.19-.69h2.33V430.8h-2.45l-.19-.7h2.64v-2.64l3.17.29c0,.29-.19.5-.72.6v1.75h2.47v-2.64l3.19.29c0,.31-.21.5-.74.6v1.75h.48l1.17-1.56s1.3,1.08,2.09,1.87c0,.27-.28.39-.62.39h-3.12v1.85h.41l1-1.32s1.12,1,1.82,1.63c-.07.26-.29.38-.62.38h-2.62v2h.7l1.12-1.56s1.32,1.11,2.12,1.85c0,.27-.29.39-.63.39h-5.78v1.7h1.73l1.1-1.3,2.5,1.9a1.55,1.55,0,0,1-.94.43v4.92Zm-9.46-4v2.4h1.89v-2.4Zm0,5.56h1.89v-2.49H1008Zm1.8-11.32h2.47V430.8h-2.47Zm0,2.68h2.47v-2h-2.47Zm2.45,3.08v2.4h2v-2.4Zm2,5.56v-2.49h-2V444Z"/><path class="cls-1" d="M1030.64,435.36c-.1.29-.36.53-.94.53a84.37,84.37,0,0,1-3.12,8.44c1.2-.26,2.45-.55,3.72-.84l0,.27c-1.68,1-4.2,2.47-7.87,4.25a1,1,0,0,1-.63.65l-1.39-3.1c1-.17,3-.55,5.31-1.06.5-3.21,1-7.22,1.27-10.1Zm-9.91-1.71-.2-.69h7.13l1.37-2.14s1.58,1.49,2.45,2.45c-.07.26-.31.38-.65.38Zm1.15,1.08c6.05,5.81,2.21,10.73.69,8.09a20.4,20.4,0,0,0-1-7.94Zm1.41-7.44c6.41,2.07,3.6,6.82,1.2,4.64a13,13,0,0,0-1.41-4.54Zm17.26,4s1.63,1.32,2.59,2.23c0,.27-.31.39-.64.39h-5.17v4.82h1.16l1.34-1.53,2.55,2a1.41,1.41,0,0,1-.94.48v9.25a3.39,3.39,0,0,1-2.35.64h-.48v-1.8h-5.28v1.35c0,.21-.84.69-2.24.69h-.48V437.61l3,1.13h1V427.27l3.6.31c0,.34-.22.58-.87.67v5h1.8Zm-7.22,8.14v7.61h5.28v-7.61Z"/><path class="cls-1" d="M1064.72,429.89s1.87,1.44,3,2.4c-.07.26-.33.38-.65.38h-21.74l-.19-.67h12.84a38.82,38.82,0,0,0,1.75-4.71l4,1c-.1.31-.39.5-.94.5a36.41,36.41,0,0,1-4,3.22h4.4ZM1054,433.77l2.66,2.07a1.49,1.49,0,0,1-1,.48v10.39c0,1.78-.36,2.79-3.12,3a3.86,3.86,0,0,0-.36-1.8,2,2,0,0,0-1.42-.82v-.31s1.4.1,1.83.1.41-.17.41-.43v-3.12h-3.29a8,8,0,0,1-4,6.55l-.21-.22c1.58-2.4,1.63-5.52,1.63-8.61v-7l3.1,1.1h2.52Zm-1,8.86v-3.17h-3.2v1.59c0,.52,0,1.05,0,1.58Zm-3.2-6.74v2.88h3.2v-2.88Zm.41-8.5c6.82.6,4.54,5.81,1.85,4a8,8,0,0,0-2-3.81Zm10.08,17.26c0,.21-1.1.62-2.09.62h-.48V434.66l3.46.31c0,.34-.22.58-.89.68Zm2.21-10.73,3.53.33c0,.34-.29.56-.84.63v11.73c0,1.88-.43,2.91-3.58,3.17a2.94,2.94,0,0,0-.57-1.84,3.7,3.7,0,0,0-2.19-.89v-.32s2.64.15,3.15.15.5-.1.5-.41Z"/><path class="cls-1" d="M1074.13,436.53c0,4.16-.2,9.56-4.44,13.18l-.27-.19c1.9-3.82,2-8.67,2-13v-7.68l3.17,1.13H1081l0,0a5.59,5.59,0,0,0-1.64-2.64l.17-.15c4.37-.28,4.56,2,3.39,2.81h5.35l1.46-2s1.64,1.35,2.6,2.28c0,.27-.32.39-.65.39h-17.52Zm-1.42,12.92a23.2,23.2,0,0,0,7-3.94l2.76,2.06c-.24.24-.65.29-1.34.13a32.54,32.54,0,0,1-8.35,2.06Zm17-13.83s1.56,1.2,2.5,2.07c-.07.26-.31.38-.65.38H1088l2.5,1.82a1.22,1.22,0,0,1-.77.41v5.26a4.19,4.19,0,0,1-2.28.69h-.46v-.79h-8.57v.39c0,.24-1.17.81-2.23.81h-.38v-8.45l2.78,1.11h8.19l1.17-1.25h-13.49l-.19-.67h14.14Zm-5.47,1.35v-.92h-4.1v.6a3.54,3.54,0,0,1-1.92.44h-.51v-3.32h-2.61l-.2-.67h2.81V431l3.17.29c0,.27-.22.48-.74.55v1.25h4.1V431l3.15.29c-.05.27-.2.48-.73.55v1.25h.75l1.32-1.65s1.49,1.12,2.38,1.94c0,.26-.32.38-.65.38h-3.8v2.76a3.45,3.45,0,0,1-1.92.44Zm-5.86,3v2h2.93v-2Zm0,4.78h2.93v-2.14h-2.93Zm5.86-9.39v-1.61h-4.1v1.61Zm-1.2,10.95c13.15.38,7.92,4.82,5.5,3.12a19.91,19.91,0,0,0-5.6-2.81Zm1-6.34v2h2.9v-2Zm2.9,4.78v-2.14H1084v2.14Z"/><path class="cls-1" d="M1102.42,439.63a77.68,77.68,0,0,1-6.53,5.23.93.93,0,0,1-.55.75l-1.51-3.12,2.81-1v-7h-2.28l-.19-.7h2.47v-6.29l3.6.34c0,.33-.22.57-.89.65v5.11l1.08-1.83a30.19,30.19,0,0,1,2.09,2.33c-.07.27-.29.39-.63.39h-2.54v6c1-.36,2-.77,3-1.15Zm11.81-.74,2.45,2a1.52,1.52,0,0,1-1,.4c-.37,4.54-1,6.77-2.28,7.66a4.71,4.71,0,0,1-2.86.77,2.8,2.8,0,0,0-.41-1.75,3.18,3.18,0,0,0-1.78-.87v-.31a17.6,17.6,0,0,1-4.75,2.95l-.19-.31a15,15,0,0,0,6.12-8.57h-.74a17.1,17.1,0,0,1-8.38,7.23l-.26-.34a17.37,17.37,0,0,0,6.07-6.89h-.79a17.2,17.2,0,0,1-6.44,4.37l-.21-.31a15.57,15.57,0,0,0,5.21-6.6h-3l-.19-.7h11.8l1.49-1.89s1.68,1.29,2.72,2.2c-.08.27-.32.39-.68.39h-8.9a13.78,13.78,0,0,1-1.2,1.87h6.84Zm-8.26-2.81c0,.24-1.17.84-2.3.84h-.38v-9.36l2.8,1.1h5l1.29-1.39,2.62,2a1.61,1.61,0,0,1-.91.48v5.85a3.59,3.59,0,0,1-2.28.87h-.48v-1H1106Zm0-6.75v2.38h5.36v-2.38Zm5.36,5.5v-2.42H1106v2.42Zm1,6.07a14,14,0,0,1-4,5.91c.77.07,2,.14,2.45.14a1.39,1.39,0,0,0,.81-.19c.58-.48,1.06-2.43,1.37-5.86Z"/><path class="cls-1" d="M931.54,470c-.81.58-1.85,1.32-3.14,2.19v7.6c0,1.95-.36,3.05-3.29,3.32a4,4,0,0,0-.46-2,2.46,2.46,0,0,0-1.77-.94v-.34s2,.13,2.45.13.45-.13.45-.41v-5.64c-.53.33-1,.67-1.63,1a1.26,1.26,0,0,1-.6.7l-1-3.17c.65-.14,1.82-.48,3.26-.89v-4.58H922.9l-.17-.7h3v-5.61l3.51.33c0,.36-.29.6-.89.68v4.6h.36l1.13-1.82s1.29,1.3,2,2.14c-.07.26-.29.38-.62.38H928.4v3.79c1-.31,2-.62,3.05-1Zm13.9,2.45a1.58,1.58,0,0,1-1,.41c-.15,6.41-.44,8.71-1.52,9.67a4.45,4.45,0,0,1-3,.75,1.79,1.79,0,0,0-.38-1.37,4.08,4.08,0,0,0-1.9-.77v-.34c.77.07,2,.15,2.47.15a1,1,0,0,0,.77-.24c.55-.48.79-3.1.93-8.26h-5l2.45,1c-.12.26-.29.41-.87.38q-.25.48-.57,1c4.41.6,2.92,3.81,1.1,2.71a7.18,7.18,0,0,0-1.49-2.21,8.86,8.86,0,0,1-3.33,2.79l-.2-.32a10.56,10.56,0,0,0,2.4-5.3h-2.11a20.22,20.22,0,0,1-2.16,1.7l2.5.24c0,.29-.27.51-.72.58v3.17c0,.29.07.36.74.36h3.7l.62-.07a2.24,2.24,0,0,0,.65-.12h.22l.09,0c.68.27.89.44.89.87,0,1-.91,1.25-4.49,1.25H934c-2.16,0-2.54-.43-2.54-1.92v-4a16.32,16.32,0,0,1-2.09,1.17l-.22-.21a20,20,0,0,0,3.87-5.23,4.52,4.52,0,0,1-.53,0H932V461l2.86,1.1h5.71l1.27-1.46,2.45,1.87a1.24,1.24,0,0,1-.89.45v6.44a3.39,3.39,0,0,1-2.25.57h-.48v-.86h-6.05v.21l2.42.92c-.12.21-.31.31-1,.19a10.87,10.87,0,0,1-1.2,1.29h6.7l1.42-1.36Zm-10.8-9.65v2.59h6.05v-2.59Zm6.05,5.64V466h-6.05v2.37Z"/><path class="cls-1" d="M962.43,473.73a20.18,20.18,0,0,0,7.32,2l0,.26a2.82,2.82,0,0,0-1.75,2.38,12.62,12.62,0,0,1-2.09-.92l-.31.08v1.85c0,1.65-.37,2.64-3.2,2.88a3.26,3.26,0,0,0-.41-1.73,2.31,2.31,0,0,0-1.58-.8v-.31s1.63.12,2.14.12c.31,0,.4-.14.4-.43v-2h-3.21v5.35c0,.22-1.18.65-2.23.65H957v-6h-2.88v4.15c0,.2-.82.8-2.16.8h-.46v-4.9a21.83,21.83,0,0,1-4.29,1.46l-.17-.26a20.6,20.6,0,0,0,6.38-4.61H948.2L948,473h6a14.33,14.33,0,0,0,1.47-2.13h-1.44v.21c0,.24-1.23.84-2.38.84h-.38V464.2l.79.29-.19-1.32h-4.2l-.19-.67h4.32l-.27-2,3.53.24c0,.28-.22.55-.67.69l.14,1.06h.6l1.25-1.73s1.42,1.2,2.23,2c0,.26-.29.38-.62.38H954.7l.12.89a2.87,2.87,0,0,1-2,.69l1.47.58h8.28l.64-.65a5.1,5.1,0,0,1-1.68-.07l.29-1.44h-2.4l-.19-.67h2.71l.39-2,3.5.6c-.07.29-.29.55-.94.6l-.19.82h1.23l1.25-1.73s1.41,1.2,2.23,2c-.07.26-.31.38-.65.38h-4.2l-.27,1.1,0,0,2.21,1.63a1.61,1.61,0,0,1-.89.48v4.39a4,4,0,0,1-2.3.77h-.48v-.67h-6.46l3,.79c-.12.31-.41.46-1.2.46-.24.28-.5.6-.79.88h7.92l1.37-1.68s1.58,1.16,2.54,2a.57.57,0,0,1-.62.38Zm.26,2.66.6-.67a9.4,9.4,0,0,1-1.75-2h-4.92a19.16,19.16,0,0,1-3.07,2.33l.91.33H957V474l3.48.31c0,.29-.22.5-.79.6v1.46ZM954.08,466v1.87h8.69V466Zm0,4.23h8.69v-1.68h-8.69Z"/><path class="cls-1" d="M983.19,477.67l0,.24a93.48,93.48,0,0,1-9,4.41,1.07,1.07,0,0,1-.69.63l-1.39-3.6c1.2-.12,3.52-.46,6.28-.89v-9.41h-5.47l-.21-.67h5.68v-7.3l3.65.36c0,.34-.21.58-.86.67V478Zm10.11,1.63c.76.34,1,.67,1,1.18,0,1.22-1.1,1.75-4.87,1.75h-2.14c-2.4,0-3.12-.58-3.12-2.67V461.11l3.65.4c0,.32-.24.58-.84.68v6.21h3.24l1.25-2.21s1.41,1.54,2.13,2.5c-.07.26-.28.38-.62.38h-6v9.68c0,.57.21.74,1,.74h1.73c.67,0,1.22,0,1.53,0a.78.78,0,0,0,.63-.31,22.53,22.53,0,0,0,1.13-3.44h.24Z"/><path class="cls-1" d="M1015.5,461.54s1.92,1.39,3.07,2.37c-.07.27-.34.39-.67.39H996.56l-.22-.67h10.2a6.05,6.05,0,0,0-2-3l.16-.14c4.59-.24,5,2.18,3.89,3.1h5.26Zm0,9.41,2.79,2.06a1.62,1.62,0,0,1-1,.5V480c0,1.8-.4,2.84-3.53,3.08a3.22,3.22,0,0,0-.5-1.83,2.89,2.89,0,0,0-1.92-.89v-.31s2.11.15,2.67.15c.36,0,.45-.17.45-.46V473h-14v9.15c0,.29-1.22.91-2.37.91h-.41v-11.9l3,1.17h13.56Zm-4.75.5v-1.08h-6.62v.53a3.55,3.55,0,0,1-2.4.81h-.39V465l2.93,1.15h6.24l1.27-1.41,2.74,2.06a1.58,1.58,0,0,1-.94.51v3.52a5.24,5.24,0,0,1-2.35.58Zm1.08,8.16a3.83,3.83,0,0,1-2.16.7h-.43v-1.18h-3.77v.77a3.23,3.23,0,0,1-2.21.77h-.36v-6.8l2.67,1.06H1009l1.2-1.25,2.52,1.85a1.51,1.51,0,0,1-.89.48Zm-1.08-9.91v-2.81h-6.62v2.81Zm-1.51,8.76v-2.83h-3.77v2.83Z"/><path class="cls-1" d="M1026.39,466.12c-.7,5.19-2.11,11.16-5.59,15.46l-.31-.17c2-4.34,2.92-10.13,3.26-15.29h-2.9l-.2-.67h3.15c.09-1.73.12-3.36.12-4.85l3.86.27c0,.31-.21.57-.93.67-.1,1.2-.22,2.52-.39,3.91h1.71l1.29-1.82s1.54,1.24,2.45,2.11c-.07.26-.31.38-.65.38Zm1.58,8c5.72,4.08,3.39,9,1.18,6.77a11.06,11.06,0,0,0-.22-2.33,37.19,37.19,0,0,1-3.45,2.26,1.67,1.67,0,0,1-.82.93l-1.29-3.12a2.88,2.88,0,0,0,.79-.33,40.28,40.28,0,0,0,2.66-10.13l3.39.69a.84.84,0,0,1-.87.58,45.19,45.19,0,0,1-4.29,9,36.17,36.17,0,0,0,3.74-.6,32.41,32.41,0,0,0-1.1-3.62Zm13,4.49s1.54,1.3,2.45,2.16c-.05.26-.31.38-.65.38h-8.07v1.18c0,.19-.81.77-2.16.77h-.45V469.75a17.83,17.83,0,0,1-2.11,2.52l-.29-.22A36.16,36.16,0,0,0,1033,460.6l3.53.94c-.17-.36-.34-.67-.51-1l.24-.15c5.84,1.8,3,6.2.87,4.11a6.45,6.45,0,0,0-.51-2.76c-.12.19-.33.29-.76.31a33.27,33.27,0,0,1-1.3,3.29l.46.17h4.37l1.34-1.78s1.46,1.22,2.38,2.09a.6.6,0,0,1-.65.38H1039v4.13h.51l1.17-1.66s1.32,1.16,2.11,2c0,.27-.28.39-.62.39H1039v4.22h.55l1.2-1.63s1.32,1.13,2.09,1.94c0,.27-.29.39-.62.39H1039v4.46h.58Zm-6.27-12.34v4.13h1.83v-4.13Zm1.83,4.83h-1.83v4.22h1.83Zm-1.83,9.38h1.83V476h-1.83Z"/><path class="cls-1" d="M1061.12,474.64c6,.94,4.44,5.16,2.26,3.84a6.34,6.34,0,0,0-.75-1.53c-1.25.24-2.74.5-4.44.79v2.66c0,1.68-.43,2.57-3.36,2.79a2.53,2.53,0,0,0-.41-1.56,2.8,2.8,0,0,0-1.7-.72v-.32s1.82.13,2.28.13.43-.15.43-.37v-2.18l-3.41.53,2.33,1c-.12.24-.31.36-.84.32a20,20,0,0,1-7.1,2.92l-.24-.28a21.34,21.34,0,0,0,4.84-3.8l-1.6.19a1,1,0,0,1-.48.46l-1.2-2.5a5.84,5.84,0,0,0,1-.14,31.17,31.17,0,0,0,5-1.66c-1,.17-2,.32-3.12.46a.89.89,0,0,1-.41.41l-1-1.9a4.74,4.74,0,0,0,.58-.14,12.72,12.72,0,0,0,3.19-1.42,8.57,8.57,0,0,1-1.41.1,1.08,1.08,0,0,0-.29-.87,2.48,2.48,0,0,0-1.3-.5V471c.58,0,1.47.1,1.87.1a.78.78,0,0,0,.65-.2,1,1,0,0,0,.15-.19H1049l-.88,1-2.19-1.44a5.3,5.3,0,0,1,1-.53c.12-.53.27-1.1.41-1.77h-1.61l-.19-.7h1.94c.2-1,.39-2,.51-2.83a13.94,13.94,0,0,1-2.28,1.41l-.22-.21a16.67,16.67,0,0,0,2.86-5.07l3.43.75c-.07.26-.26.36-.89.33a9.37,9.37,0,0,1-1,1.18h4.68l1.22-1.51s1.39,1.05,2.26,1.82c0,.27-.29.39-.63.39H1049l-.33.31,1.89.81h2.74l1-1.05,2,1.65a1.35,1.35,0,0,1-.94.36c0,.6-.07,1.16-.09,1.66h.24l.89-1.44s1,1,1.63,1.75c0,.27-.27.39-.58.39h-2.25a18.79,18.79,0,0,1-.29,2h.14l.87-1.13s1,.81,1.6,1.44c0,.26-.28.38-.6.38h-2.18a3.41,3.41,0,0,1-.43,1c.36-.24.67-.51.91-.7l1.78,2a.86.86,0,0,1-1-.07,31.38,31.38,0,0,1-4.18,1.42l4-.08a31.77,31.77,0,0,0,4.68-2.61l2.42,1.89c-.14.22-.55.34-1.1.12A64.26,64.26,0,0,1,1051.4,477c2.83-.12,6.77-.31,10.89-.58a12.19,12.19,0,0,0-1.41-1.61Zm-8.19-4.65a10.93,10.93,0,0,0,.36-2h-3.86c-.17.72-.31,1.41-.48,2Zm-3-4.68c-.1.57-.24,1.24-.39,1.94h3.8c.07-.58.12-1.22.16-1.94Zm-.15,2.85a2.69,2.69,0,0,1,2.43.46.8.8,0,1,1-1.27,1,3,3,0,0,0-1.28-1.17Zm.44-2.57a2.66,2.66,0,0,1,2.35.34.77.77,0,1,1-1.15,1,3.29,3.29,0,0,0-1.3-1.08Zm15.36-1a9.6,9.6,0,0,1-2.55,4.24,15.13,15.13,0,0,0,4.44,1.3l0,.26a2.53,2.53,0,0,0-1.56,2.33,9.55,9.55,0,0,1-4.4-2.61,15.7,15.7,0,0,1-4.65,2.08l-.15-.28a12.28,12.28,0,0,0,3.91-3,14.14,14.14,0,0,1-1.65-3.57,11.93,11.93,0,0,1-1.35,1.15l-.33-.22a20.24,20.24,0,0,0,1.56-5.73l3.29.86a.85.85,0,0,1-.89.51,12.9,12.9,0,0,1-1.11,2h3.46l1.37-1.84s1.54,1.24,2.45,2.13c-.07.27-.31.39-.63.39Zm-6,0a3.26,3.26,0,0,1-.34.4,8,8,0,0,0,2.14,2.84,10.14,10.14,0,0,0,1.27-3.24Zm.19,14.35c8.19-.31,7,4.68,4.59,3.77a14.11,14.11,0,0,0-4.68-3.46Z"/><path class="cls-1" d="M1073.89,464h-4.18l-.19-.69h4.29l-.31-2.64,3.53.24c0,.26-.19.53-.67.67l.21,1.73h.75l1.29-1.8s1.47,1.25,2.33,2.11c0,.26-.31.38-.65.38h-3.62l.22,1.61c-.39.53-1.42.77-2.72.72Zm15.36,9.56s1.46,1.12,2.37,1.94c-.07.26-.31.38-.67.38h-8.86v2.64h4.4l1.49-1.84s1.7,1.24,2.71,2.13c-.07.27-.34.39-.67.39h-7.93v3.12c0,.17-.84.72-2.28.72h-.5v-3.84h-7.8l-.19-.68h8v-2.64h-8.83l-.22-.67h9v-3.5a1.44,1.44,0,0,1-.31.05h-3.12v2.28c0,.19-.94.55-1.71.55h-.4v-2.83h-3.58l-.19-.7h3.77v-2.74l2.83.27c0,.26-.19.48-.72.55v1.92h.55l1.15-1.54s1,.8,1.73,1.52v-3.46h-8.23l-.17-.67h16.22l1.37-1.63s1.54,1.1,2.48,1.92c-.08.26-.34.38-.68.38h-8.21v7.63h5.84Zm.6-12s1.44,1.25,2.33,2.11a.6.6,0,0,1-.65.38h-5l-.29,1.83a3.76,3.76,0,0,1-2.76.33l.34-2.16h-2.28l-.19-.69H1084l.4-2.64,3.48.57c0,.32-.26.58-.93.63l-.22,1.44h1.83Zm-.08,7.92s1.35,1.15,2.12,1.94c-.05.27-.29.39-.6.39H1087v2.06c0,.17-.94.53-1.71.53h-.4v-2.59h-2.16l-.2-.7h2.36v-2.74l2.83.27c0,.26-.19.48-.72.55v1.92h1.56Z"/><path class="cls-1" d="M929,529.77l.2,1c-2.15.93-4.47,1.9-6.2,2.58l-.51-1.1c1.08-.37,2.63-.94,4.25-1.57v-6H923v-1.09h3.8v-3.51h1.14V530.2Zm5,2c.67,0,.76-.72.85-3.59a3,3,0,0,0,1.07.54c-.12,3.08-.39,4.14-1.83,4.14h-2c-1.29,0-1.67-.43-1.67-2V520.06h1.13v3.48h4.18v1.1h-4.18v6.25c0,.75.1.89.67.89Z"/><path class="cls-1" d="M951.25,521.34v1H938.19v-1h6.13c-.13-.44-.31-1-.46-1.37l1.08-.25c.21.51.43,1.14.6,1.62Zm-.48,10.95c0,.54-.13.76-.54.91a6.69,6.69,0,0,1-2,.14,3.21,3.21,0,0,0-.36-.83c.65,0,1.34,0,1.52,0s.25-.06.25-.24v-4.4h-9.85v5.57h-1.08V527h12Zm-1.62-9.15v3h-8.7v-3Zm-1.35,8.71h-5.28v.74h-1v-3.81h6.31ZM948,524h-6.46v1.35H948Zm-5.49,5.66V531h4.28v-1.39Z"/><path class="cls-1" d="M956.32,523.41a19,19,0,0,1-2.44,7.15,7.63,7.63,0,0,0-.93-.66,15.6,15.6,0,0,0,2.29-6.49h-1.75v-1.07h1.92c.12-.84.22-1.69.3-2.58l1.09.09c-.09.86-.19,1.68-.31,2.49h3v1.07Zm2.27,4.6a35.61,35.61,0,0,1,1.21,4.58l-.91.31c0-.33-.12-.72-.2-1.11-3.13.6-3.61.71-3.88.87a5.39,5.39,0,0,0-.35-1c.27-.07.5-.54.8-1.2a28.13,28.13,0,0,0,1.72-5.4l1.07.29a34.56,34.56,0,0,1-2.16,6l2.58-.44c-.23-.88-.48-1.81-.74-2.61Zm8.16,4.68h-5.39v.75h-1V524.5a13.72,13.72,0,0,1-1.07,1.56,5,5,0,0,0-.67-.84,15.59,15.59,0,0,0,2.67-5.38l1,.24a20.68,20.68,0,0,1-1,2.52h5.25v1h-2v2h2v1h-2v2h2v1h-2v2.07h2.24Zm-5.39-9.1v2h2.13v-2Zm2.13,3h-2.13v2h2.13Zm-2.13,5.07h2.13V529.6h-2.13Zm2.45-9.13a12.39,12.39,0,0,0-1-2.24l.94-.33a11.56,11.56,0,0,1,1.08,2.18Z"/><path class="cls-1" d="M975.85,523.05v2h4.86v5.25c0,.65-.15,1-.63,1.17a9.31,9.31,0,0,1-2.62.2,4.31,4.31,0,0,0-.39-1.11c1,0,1.92,0,2.17,0s.35-.09.35-.3v-4.14h-3.74v7.27h-1.12v-7.27h-3.51v5.56h-1.11v-6.66h4.62v-2h-6.08V522H975a18,18,0,0,0-1-2l1.07-.33a12.65,12.65,0,0,1,1.17,2.22l-.2.07h6v1.1Z"/><path class="cls-1" d="M990.18,526.44v7h-1V532c-1.85.24-3.68.45-5.09.63l-.1-1,1.42-.13v-5h-1.29v-.93h13.11v.93Zm-3.27-1.67h-1.07v-4.51h9.66v4.51h-1.09v-3.69h-7.5Zm2.22,1.67h-2.76v1h2.76Zm0,1.86h-2.76v1h2.76Zm-2.76,3.09,2.76-.33v-.9h-2.76Zm7.26-8.7h-6.06V522h6.06Zm-6,1.59v-.74h6v.74Zm9.2,3.34a8.47,8.47,0,0,1-2.16,3.48,8,8,0,0,0,2.91,1.35,4.29,4.29,0,0,0-.66.89,8.71,8.71,0,0,1-3-1.58,10.51,10.51,0,0,1-3,1.62,3.46,3.46,0,0,0-.6-.87,9.1,9.1,0,0,0,2.89-1.44,8.81,8.81,0,0,1-1.75-2.73l.25-.07h-.85v-.9h5.14l.2,0Zm-4.46.65a7.15,7.15,0,0,0,1.52,2.17,6.75,6.75,0,0,0,1.57-2.17Z"/><path class="cls-1" d="M1006.87,525.19c1,3.3,3,6,5.9,7.2a5.7,5.7,0,0,0-.84,1.05c-2.88-1.36-4.79-4-6-7.42a10.48,10.48,0,0,1-6,7.42,3,3,0,0,0-.84-.91,9.75,9.75,0,0,0,5.84-7.34h-5.54v-1.14h5.72a31.79,31.79,0,0,0,.22-4.26h1.2a33.81,33.81,0,0,1-.24,4.26h6.2v1.14Z"/><path class="cls-1" d="M1021.77,521.67c-.18.76-.38,1.54-.57,2.22h5v9.6h-1.15v-1h-7.55v1h-1.11v-9.6h3.62c.15-.66.31-1.49.43-2.22h-5.74v-1.1h13v1.1Zm3.33,3.27h-7.55v2.71h7.55Zm0,6.54v-2.81h-7.55v2.81Z"/><path class="cls-1" d="M1032.48,522.42a16.61,16.61,0,0,1-1.91,1.12,8.79,8.79,0,0,0-.82-.78,12.69,12.69,0,0,0,4.39-3.07l1,.39a12.31,12.31,0,0,1-1.6,1.53v3h-1.08Zm2.85,9.27a20.71,20.71,0,0,1-4.59,1.81,8.32,8.32,0,0,0-.84-.84,18.58,18.58,0,0,0,4.41-1.42Zm-3.54-6.63h9.7v6h-9.7Zm1.08,1.77h7.51v-1h-7.51Zm0,1.74h7.51v-1h-7.51Zm0,1.77h7.51v-1.05h-7.51Zm5.22-5.91c-1.35,0-1.7-.45-1.7-1.62v-3h1.11V521h4.83v.93h-4.83v.9c0,.48.11.66.65.66h3.31a11.15,11.15,0,0,0,1.49-.09c0,.31.07.67.12.93a8.71,8.71,0,0,1-1.53.09Zm.61,6.75a35,35,0,0,1,4.41,1.63l-1,.65a30.1,30.1,0,0,0-4.17-1.67Z"/><path class="cls-1" d="M1058.4,521.38v1h-13.08v-1h6.19c-.15-.45-.34-1-.52-1.41l1-.27c.21.53.48,1.19.65,1.68Zm-.83,10.85c0,.58-.15.84-.58,1a10.21,10.21,0,0,1-2.48.15,3,3,0,0,0-.34-.85c.93,0,1.8,0,2,0s.33-.08.33-.32v-6.78h-3v1c0,.33,0,.45.28.45h1.35a5.59,5.59,0,0,0,.83-.06c0,.25,0,.55.07.79a2.7,2.7,0,0,1-.87.08h-1.57c-.92,0-1.1-.39-1.1-1.28v-1h-1.69c-.23,1.56-.93,2.39-3,2.85a2.28,2.28,0,0,0-.54-.78c1.75-.31,2.34-.91,2.55-2.07h-2.58v8h-1.07V524.5h6.93a13.58,13.58,0,0,0,1.1-2l1.12.26c-.36.6-.76,1.26-1.15,1.78h3.4Zm-8.13-9.84a17.86,17.86,0,0,1,1,1.66l-1,.39c-.21-.43-.62-1.18-.93-1.74Zm.6,9.16v.69h-1v-4.09h5.47v3.4Zm0-2.56v1.74h3.57V529Z"/><path class="cls-1" d="M1064.77,529.81c-1.42.6-2.92,1.17-4.09,1.64l-.36-1.1c.49-.16,1.09-.37,1.75-.61v-5.3h-1.57v-1h1.57v-3.47h1v3.47h1.42v1h-1.42v4.92l1.45-.54Zm8.85-4.89a16.85,16.85,0,0,1-2.1,5.06c.36,1.44.8,2.28,1.31,2.28.28,0,.43-.74.49-2.46a2.42,2.42,0,0,0,.83.57c-.17,2.25-.48,2.94-1.46,2.94s-1.47-.84-1.93-2.25a11,11,0,0,1-2.51,2.35,4,4,0,0,0-.78-.76,10,10,0,0,0,3-2.84,40.29,40.29,0,0,1-.72-6.72h-3.51v2h2.86s0,.32,0,.45c0,3.42-.11,4.62-.39,5a1,1,0,0,1-.77.42,9.93,9.93,0,0,1-1.35,0,2.57,2.57,0,0,0-.25-1c.51.05,1,.05,1.17.05s.3,0,.36-.15.22-1.19.27-3.87h-1.89v.66c0,2.1-.26,4.95-1.86,6.81a4,4,0,0,0-.83-.71c1.5-1.72,1.65-4.18,1.65-6.12v-4.63h4.52c0-.75,0-1.52,0-2.3h1.07c0,.78,0,1.56,0,2.3h2a10.69,10.69,0,0,0-1.72-1.71l.75-.48a8.78,8.78,0,0,1,1.78,1.68l-.75.51h1.1v1h-3.14a50.58,50.58,0,0,0,.48,5.4,15.24,15.24,0,0,0,1.37-3.73Z"/><path class="cls-1" d="M1087.89,526.17v1H1077v-1Z"/><path class="cls-1" d="M1104,532c0,.65-.18.93-.61,1.11a8.32,8.32,0,0,1-2.45.18,4,4,0,0,0-.36-1c.89,0,1.73,0,2,0s.36-.09.36-.35V521.61H1092.7v11.86h-1.08V520.56H1104Zm-8.73-5.31v3.5h2v-4.61h-3.77v-1h5.21a21.12,21.12,0,0,0,1.32-2.77l1.11.28c-.42.83-.93,1.74-1.38,2.49h2.56v1h-4v4.61h2v-3.5h1v4.46h-7v-4.46Zm.21-4.8a20.79,20.79,0,0,1,1.13,2.28l-1,.38a17.66,17.66,0,0,0-1.08-2.36Z"/><path class="cls-1" d="M1118.89,522.85v10.56h-1.14V532.3h-10.54v-9.43h1.14v8.31h4.11V519.94h1.14v11.24h4.15v-8.33Z"/><path class="cls-1" d="M1127,530a11.27,11.27,0,0,1-4.87,3,4.52,4.52,0,0,0-.74-.93,10.38,10.38,0,0,0,4.68-2.46Zm8-1.81v.94h-6.1v4.35h-1.11v-4.35h-6.11v-.94h6.11v-.92h1.11v.92Zm-9.69-.89c0-.21,0-.46-.1-.73a13,13,0,0,0-3,.57,5.49,5.49,0,0,0-.3-.89c.27,0,.54-.36.92-.82.19-.23.63-.81,1.12-1.56a6,6,0,0,0-1.72.33c0-.18-.2-.65-.3-.89.19,0,.39-.25.58-.6a12.66,12.66,0,0,0,1.31-2.8l.88.33a17.41,17.41,0,0,1-1.53,2.95l1.29-.13c.27-.47.54-1,.78-1.44l.81.45a25.72,25.72,0,0,1-2.77,4l1.83-.22c-.08-.36-.17-.74-.26-1l.77-.18a17.73,17.73,0,0,1,.55,2.47Zm5-.4h-3.92v-5.67h1.23a8.94,8.94,0,0,0,.3-1.49l1,.2c-.14.42-.3.9-.45,1.29h1.8Zm-1-4.8h-2v1.54h2Zm0,2.37h-2V526h2Zm1.21,5a30.92,30.92,0,0,1,4.46,2.76l-.69.84a27.13,27.13,0,0,0-4.44-2.87Zm3.68-2.07c0-.2-.09-.41-.15-.65a14.94,14.94,0,0,0-3.06.5,6.08,6.08,0,0,0-.32-.89c.27-.06.57-.37.93-.82.2-.24.65-.84,1.16-1.59a8,8,0,0,0-2,.36,7.12,7.12,0,0,0-.29-.9c.2,0,.38-.27.59-.63a12.66,12.66,0,0,0,1.33-2.93l.93.3a19.79,19.79,0,0,1-1.57,3.09l1.48-.13c.27-.45.51-.92.74-1.38l.84.46a25.07,25.07,0,0,1-2.79,4l1.78-.19c-.1-.35-.21-.68-.3-1l.75-.22a21.57,21.57,0,0,1,.69,2.32Z"/><path class="cls-1" d="M1139.17,530.25a8.91,8.91,0,0,1-1.66,3.22,8.26,8.26,0,0,0-.84-.6,6.6,6.6,0,0,0,1.5-2.85Zm2.48-.54h-4.22v-9.38h4.22Zm-1-8.45h-2.23v1.91h2.23Zm0,2.78h-2.23V526h2.23Zm0,2.8h-2.23v1.95h2.23Zm.24,3.17a12.37,12.37,0,0,1,1.25,2.31l-.89.42a12.23,12.23,0,0,0-1.2-2.36Zm9.62,1h-.9v1.3c0,.54-.12.83-.5,1a7.72,7.72,0,0,1-2.17.15,3.75,3.75,0,0,0-.32-.9c.78,0,1.5,0,1.71,0s.26-.06.26-.26V531h-4.74v2.47h-1V531h-1v-.86h1v-3.81h2.84v-.87h-3.75v-.84h2.16v-1h-1.43v-.82h1.43v-.9h-1.82v-.84h1.82v-1.29h1v1.29h2.22v-1.29h1v1.29h1.83v.84h-1.83v.9h1.59v.82h-1.59v1h2.15v.84h-3.78v.87h2.94v3.81h.9Zm-6.66-3.83v1.07h1.83v-1.07Zm0,3h1.83V529h-1.83Zm1.23-7.33h2.22v-.9h-2.22Zm0,1.81h2.22v-1h-2.22Zm1.59,2.55v1.07h1.92v-1.07Zm1.92,3V529h-1.92v1.12Z"/><path class="cls-1" d="M1158,529.53l.11,1c-2,.51-4.07,1-5.63,1.42l-.27-1.09c.87-.2,2-.44,3.24-.74a55.44,55.44,0,0,0,1-6l1,.2c-.3,1.75-.71,4-1.1,5.61Zm-5.61-7h5.79v1h-5.79Zm1.49,1.72a45.36,45.36,0,0,1,.76,5.34l-.94.18a39.14,39.14,0,0,0-.72-5.35Zm1.26-1.87a12.81,12.81,0,0,0-1-2.28l.93-.29a9.65,9.65,0,0,1,1.06,2.22Zm6.88,1.51v3h3.15v6.51H1164v-.65h-4.5v.71h-1.08v-6.57h2.43v-7.13H1162v3.11h3.78v1.06Zm2,4h-4.5v3.76h4.5Z"/><path class="cls-1" d="M1174,532.18c0,.57-.14.86-.54,1a6.13,6.13,0,0,1-2.09.18,4.85,4.85,0,0,0-.36-1c.75,0,1.43,0,1.62,0s.29-.08.29-.27v-2h-3.42a7.38,7.38,0,0,1-1.17,3.35,2.86,2.86,0,0,0-.84-.65,8.41,8.41,0,0,0,1.11-4.83v-3.55h5.4Zm6.93-10v1H1167.6v-1h3.67a10.38,10.38,0,0,0-1.36-2l1-.39a10.44,10.44,0,0,1,1.5,2.1l-.74.28h4.47a16.92,16.92,0,0,0,1.41-2.43l1.17.39c-.4.69-.9,1.43-1.33,2Zm-8,7.16v-1.5h-3.3V528c0,.41,0,.81,0,1.25Zm-3.3-3.89v1.52h3.3V525.4Zm7.23,5.33h-1v-6.09h1Zm2-6.54h1.09v7.87c0,.68-.15,1-.6,1.16a7.22,7.22,0,0,1-2.37.19,4.59,4.59,0,0,0-.4-1.06c.91,0,1.72,0,2,0s.33-.07.33-.3Z"/><path class="cls-1" d="M1185.07,525.31c0,2.37-.21,5.75-1.57,8a3.8,3.8,0,0,0-.93-.57c1.3-2.18,1.44-5.24,1.44-7.46V521h5.74c-.1-.38-.24-.75-.37-1.1l1.12-.22c.18.39.36.91.5,1.32h5.22v1h-11.15Zm4.61,6.53c-1.29.58-3,1.23-4.16,1.68a4.53,4.53,0,0,0-.58-.8,33.52,33.52,0,0,0,3.85-1.59Zm6.63-6.29v.72h-10.83v-.72Zm-8.6-.46V523.8h-1.89v-.71h1.89v-.87h1.07v.87h3.85v-.87h1.11v.87h1.91v.71h-1.91v1.29Zm7.53,6h-9v-4.26h9Zm-8-2.5h2.94v-1h-2.94Zm0,1.77h2.94v-1.07h-2.94Zm1.5-6.54v.7h3.85v-.7Zm5.4,3.73h-2.91v1h2.91Zm0,1.74h-2.91v1.07h2.91Zm-1.94,1.86c1.43.51,3,1.13,4,1.59l-.56.8a39.76,39.76,0,0,0-3.87-1.65Z"/><path class="cls-1" d="M1202.74,528.57c-1.51.76-3.15,1.56-4.41,2.16l-.43-1.1,2-.88v-4.7h-1.76v-1h1.76v-3.12h1V523h1.62v1H1201v4.22l1.53-.69Zm2.79-1.73a8.66,8.66,0,0,1-.64,1h6.45s0,.3,0,.45c-.22,3.09-.46,4.26-.88,4.7a1.23,1.23,0,0,1-.84.37c-.33,0-.89,0-1.49,0a1.87,1.87,0,0,0-.25-.9c.55,0,1.05.06,1.27.06s.35,0,.45-.17c.26-.27.48-1.21.68-3.57h-1.17a10.45,10.45,0,0,1-3.06,4.7,3.45,3.45,0,0,0-.8-.65,8.83,8.83,0,0,0,2.93-4h-1.46a11.23,11.23,0,0,1-3.64,4,3.06,3.06,0,0,0-.74-.69,9.78,9.78,0,0,0,3.38-3.36h-1.52a10,10,0,0,1-2,1.71,5.08,5.08,0,0,0-.76-.69,8.54,8.54,0,0,0,3-3h-2.1v-.94h9.39v.94Zm5.1-1.78h-6.85v-4.85h6.85Zm-1-4h-4.8v1.19h4.8Zm0,2h-4.8v1.2h4.8Z"/><path class="cls-1" d="M1226.83,531.72v1.09h-13.35v-1.09h2v-7h1.13v7h3.3V522h-5.9v-1.08h12.29V522h-5.25v4h4.68V527h-4.68v4.68Z"/><path class="cls-1" d="M1237.71,523.65c.37,5,1.54,8.68,3,8.68.4,0,.58-.82.67-2.82a3.16,3.16,0,0,0,1,.62c-.19,2.59-.61,3.36-1.75,3.36-2.43,0-3.68-4.31-4.08-9.84h-7.74v-1.1h7.66c0-.88-.06-1.8-.07-2.71h1.17c0,.93,0,1.83.06,2.71h4.44v1.1Zm-4.59,7.41c1.05-.23,2.13-.44,3.21-.68l.09,1c-2.54.6-5.28,1.23-7.19,1.65l-.34-1.09,3.13-.63V527h-2.67v-1.08h6.57V527h-2.8Zm7.57-8.69a12.77,12.77,0,0,0-2.13-1.87l.75-.62a12.83,12.83,0,0,1,2.16,1.79Z"/><path class="cls-1" d="M924.42,550.73v8h-1.1V545.72h5.43v5Zm0-4.16v1.22h3.28v-1.22Zm3.28,3.3v-1.29h-3.28v1.29Zm3.72,5.28v3.35h-1v-3.35H928.3a4.79,4.79,0,0,1-2,3.54,3.89,3.89,0,0,0-.73-.66,3.77,3.77,0,0,0,1.77-2.88h-1.88v-.94h1.91v-1.62h-1.62v-.92h7.39v.92h-1.71v1.62h2v.94Zm-1-.94v-1.62h-2.1v1.62Zm5.21,3.12c0,.66-.15,1-.59,1.21a7.05,7.05,0,0,1-2.32.2,3.78,3.78,0,0,0-.36-1.11c.82,0,1.63,0,1.86,0s.31-.09.31-.33v-6.57h-4.47v-5h5.57Zm-4.5-10.76v1.22h3.4v-1.22Zm3.4,3.32v-1.31h-3.4v1.31Z"/><path class="cls-1" d="M948.06,553.76a10,10,0,0,0,3.63,1.78,3.14,3.14,0,0,0-.66.84,8.25,8.25,0,0,1-1.83-.81v1.77c0,.5-.09.74-.47.9a6.18,6.18,0,0,1-1.86.14,3.52,3.52,0,0,0-.3-.86c.63,0,1.17,0,1.32,0s.23,0,.23-.21V555.8h-2.88v3h-1.1v-3H941.5v2.62h-1.06v-2.95a16.87,16.87,0,0,1-2,1,3.3,3.3,0,0,0-.63-.83,11.56,11.56,0,0,0,3.34-1.84h-3.12v-.9h4a8.74,8.74,0,0,0,.62-.81h-2.88v-4.11h9.88v4.11H944a6.71,6.71,0,0,1-.54.81h8v.9ZM941.7,547h-3.48v-.9h3.48v-1h1.08v1h1.77v.9h-1.77v.71H941.7Zm-.77,2.61h7.73v-1h-7.73Zm0,1.7h7.73v-1h-7.73Zm7.25,3.58a7.13,7.13,0,0,1-1.32-1.15h-4.22a11,11,0,0,1-1.35,1.15h2.85V554h1.1v.91ZM946.63,547H945v-.9h1.6v-1h1.1v1h3.58v.9h-3.58v.71h-1.1Z"/><path class="cls-1" d="M954.73,554a2.59,2.59,0,0,0,1.89-2.2h-.25a1,1,0,0,1-1.13-1.06,1.05,1.05,0,0,1,1.14-1.08c.83,0,1.28.67,1.28,1.72a3.58,3.58,0,0,1-2.6,3.41Z"/><path class="cls-1" d="M962.82,550.73v8h-1.1V545.72h5.43v5Zm0-4.16v1.22h3.28v-1.22Zm3.28,3.3v-1.29h-3.28v1.29Zm3.72,5.28v3.35h-1v-3.35H966.7a4.79,4.79,0,0,1-2,3.54A3.89,3.89,0,0,0,964,558a3.77,3.77,0,0,0,1.77-2.88h-1.88v-.94h1.91v-1.62h-1.62v-.92h7.39v.92h-1.71v1.62h2v.94Zm-1-.94v-1.62h-2.1v1.62Zm5.21,3.12c0,.66-.15,1-.59,1.21a7.05,7.05,0,0,1-2.32.2,3.78,3.78,0,0,0-.36-1.11c.82,0,1.63,0,1.86,0s.31-.09.31-.33v-6.57h-4.47v-5H974Zm-4.5-10.76v1.22h3.4v-1.22Zm3.4,3.32v-1.31h-3.4v1.31Z"/><path class="cls-1" d="M981.91,554.48a3.68,3.68,0,0,1,0,.45c-.18,2.08-.38,3-.74,3.31a1.37,1.37,0,0,1-1,.38c-.37,0-1.17,0-2,0a2.16,2.16,0,0,0-.33-1c.81.07,1.64.09,1.92.09s.42,0,.54-.14.39-.81.53-2.23h-3.44c.18-.89.39-2.22.53-3.29h3v-1.57h-2.51v-.18a10.44,10.44,0,0,1-1.66.7,3.39,3.39,0,0,0-.6-.82,11.25,11.25,0,0,0,2.95-1.41,11.07,11.07,0,0,0-1.69-1.29l.64-.62a9.29,9.29,0,0,1,1.79,1.34,7.66,7.66,0,0,0,1.44-1.59h-3.48v-.92h4.06l.2,0,.69.36a8.6,8.6,0,0,1-3.15,3.58h2.32v3.33h-3.16c-.08.53-.15,1.07-.23,1.55Zm6.6-.41a6.7,6.7,0,0,1-1.93,2.72c.79.48,1.51.93,2,1.3l-.55.72c-.54-.4-1.34-.93-2.21-1.47a11.17,11.17,0,0,1-3.43,1.46,3.2,3.2,0,0,0-.51-.83A10.51,10.51,0,0,0,985,556.8c-.81-.48-1.63-1-2.37-1.38l.54-.61c.8.43,1.71,1,2.6,1.47a5.85,5.85,0,0,0,1.45-1.61H982.6v-.81h5.12l.18,0Zm1.11-6.82a15.79,15.79,0,0,1-2.11,1.65,11.19,11.19,0,0,0,2.56,1.08,3.92,3.92,0,0,0-.67.85,10.58,10.58,0,0,1-2.15-.9v2c0,.35,0,.44.26.44h1.11a5.94,5.94,0,0,0,.72-.05,6.65,6.65,0,0,0,.06.78,2.82,2.82,0,0,1-.77.06H987.4c-.91,0-1.09-.36-1.09-1.24v-1.46h-2v.3a3.1,3.1,0,0,1-1.64,2.84,3.62,3.62,0,0,0-.72-.69,2.3,2.3,0,0,0,1.4-2.18v-1.17h3.33a10,10,0,0,1-3.57-4.17l.88-.27a8.05,8.05,0,0,0,1.17,1.82,19.28,19.28,0,0,0,1.89-1.74l.83.58a21.11,21.11,0,0,1-2.16,1.74,7.67,7.67,0,0,0,1.09.92,18,18,0,0,0,2-1.74Z"/><path class="cls-1" d="M998.91,547.14c-.18.63-.39,1.31-.59,1.88h6v9.76h-1.13V558h-9.58v.79h-1.08V549h4.63c.17-.57.32-1.26.44-1.88h-5.75v-1.06h13.19v1.06ZM993.63,557h2.13v-6.9h-2.13Zm6.31-6.9h-3.16v1.65h3.16Zm0,2.57h-3.16v1.68h3.16ZM996.78,557h3.16v-1.74h-3.16Zm6.43-6.9H1001V557h2.25Z"/><path class="cls-1" d="M1011.75,554.1a18.41,18.41,0,0,0-1.32-1.81v6.45h-1.08v-6.56a15.37,15.37,0,0,1-2.12,3.86,5.94,5.94,0,0,0-.57-1,15.37,15.37,0,0,0,2.6-4.76h-2.21v-1h2.3V547c-.69.12-1.4.24-2,.31a3.4,3.4,0,0,0-.35-.85,22.44,22.44,0,0,0,4.58-1.11l.78.84a14.23,14.23,0,0,1-1.89.57v2.5h1.62V549h3.64v-.81h-2.85v-.72h2.85v-.78h-3.18v-.75h3.18v-.82h1.11v.82h3.41v.75h-3.41v.78h3v.72h-3V549h3.78v.77h-8.46v.52h-1.69v.92c.46.45,1.69,1.71,2,2Zm3.91,2.91a11.55,11.55,0,0,1-3.55,1.82,6.12,6.12,0,0,0-.72-.72,10.11,10.11,0,0,0,3.34-1.65Zm-2.61-.63V550.5h6.68v5.88Zm1-4.18h4.61v-1h-4.61Zm0,1.71h4.61v-1h-4.61Zm0,1.72h4.61v-1h-4.61Zm3.77.87c1,.57,2.16,1.26,2.86,1.74l-1,.54c-.6-.45-1.68-1.15-2.64-1.72Z"/><path class="cls-1" d="M1025.88,552.24a20.15,20.15,0,0,1-1.23,3.87c.28.17.64.44,1.2.78a7.92,7.92,0,0,0,4.18.75c1.92,0,4.35-.15,6-.31a3.9,3.9,0,0,0-.34,1.15c-1.11.08-4,.17-5.73.17a8.23,8.23,0,0,1-4.38-.83c-.6-.36-1.16-.87-1.5-.87s-.83.95-1.26,1.89l-.78-1a6.69,6.69,0,0,1,1.5-1.67,13.18,13.18,0,0,0,1.08-3.12h-2c.42-.88.89-2.16,1.31-3.34h-1.68v-1h3.07c-.37,1.08-.84,2.36-1.24,3.38h1l.2-.05Zm-2-4.33c-.18-.63-.52-1.67-.76-2.45l1-.3c.27.78.62,1.77.8,2.42Zm4.76,1.12h-2.54v-.85h4.22v-1.11H1027v-.84h3.3v-1.14h1.09v1.14h3.33v.84h-3.33v1.11h4.32V549h-2.62l.66.2c-.29.51-.56,1-.81,1.44h2.58v.85h-4.13v1h3.56v.83h-3.56v1.11h4.2v.87h-4.2v1.51h-1.09v-1.51h-4v-.87h4v-1.11h-3.39v-.83h3.39v-1h-3.9v-.85h2.16a4.7,4.7,0,0,0-.66-1.46Zm3.34,1.49a9.92,9.92,0,0,0,.66-1.49h-3.72a4.8,4.8,0,0,1,.69,1.49l-.55.15h3.4Z"/><path class="cls-1" d="M1044.69,554.6h-1.46v3h-1.3v-3h-4.79v-.9l4.58-7.07h1.51v6.87h1.46Zm-2.76-1.1v-3.37c0-.54.06-1.43.09-2H1042c-.27.54-.57,1.08-.89,1.62l-2.5,3.75Z"/><path class="cls-1" d="M1046.56,556.79a1,1,0,1,1,2,0,1,1,0,1,1-2,0Z"/><path class="cls-1" d="M1050.6,556.82c3.45-3,5-5.21,5-7.1a1.93,1.93,0,0,0-2-2.17,3.07,3.07,0,0,0-2.28,1.27l-.79-.78a4.21,4.21,0,0,1,3.24-1.62,3,3,0,0,1,3.19,3.26c0,2.19-1.72,4.42-4.3,6.87.57,0,1.24-.11,1.8-.11h3v1.19h-6.91Z"/><path class="cls-1" d="M1064.55,545.9a19.86,19.86,0,0,1-4.4,6.37,8.79,8.79,0,0,0-1-.9,15.54,15.54,0,0,0,4.17-5.85Zm4.21,7.12a46.77,46.77,0,0,1,3.36,5l-1.11.62c-.21-.42-.49-.9-.81-1.44-7.77.54-8.59.58-9.18.79a6.67,6.67,0,0,0-.43-1.18c.4-.09.84-.59,1.41-1.29a34,34,0,0,0,3.78-5.91l1.24.52a39.71,39.71,0,0,1-4.39,6.44l6.93-.39c-.59-.93-1.27-1.91-1.86-2.7Zm.32-7.56a10.84,10.84,0,0,0,4,5.78,5.85,5.85,0,0,0-.87,1,12.4,12.4,0,0,1-3.94-5.68h-2.79v-1.13Z"/><path class="cls-1" d="M1079.85,553.49a5.23,5.23,0,0,0,.15,1,27.79,27.79,0,0,0-4.35,2l-.06,0a5.89,5.89,0,0,0-.54-1,1.19,1.19,0,0,0,.69-1v-8.94h1.09v3.6h3.05v1h-3.05v4.56Zm3.18,3.33a14.24,14.24,0,0,1-3.81,1.95c-.17-.23-.5-.57-.71-.8a11.28,11.28,0,0,0,3.56-1.77Zm-.09-8.63c.12-.45.25-1,.34-1.45h-3.54v-1H1088v1h-3.49c-.15.49-.33,1-.5,1.45h3.51V556h-7.06v-7.76Zm3.51.87h-4.92v1.44h4.92Zm0,2.25h-4.92v1.47h4.92Zm0,2.3h-4.92v1.47h4.92Zm-1.08,2.65a18.75,18.75,0,0,1,3,1.86l-.88.68a18.08,18.08,0,0,0-3-1.94Z"/><path class="cls-1" d="M1091.35,554a2.59,2.59,0,0,0,1.89-2.2H1093a1,1,0,0,1-1.13-1.06,1.05,1.05,0,0,1,1.14-1.08c.83,0,1.28.67,1.28,1.72a3.58,3.58,0,0,1-2.6,3.41Z"/><path class="cls-1" d="M1100.83,553.14v4.22c0,.63-.16.93-.55,1.09a5.43,5.43,0,0,1-2,.21,5,5,0,0,0-.34-1c.72,0,1.36,0,1.54,0s.29-.07.29-.28v-3.87l-1.89.55-.33-1.08c.61-.15,1.38-.36,2.22-.6v-3.22h-2v-1h2v-3h1.09v3h1.86v1h-1.86v2.92l1.4-.4.15,1Zm9.41-1.2a9.39,9.39,0,0,1-2.93,4.29,12.3,12.3,0,0,0,4,1.55,3.81,3.81,0,0,0-.71,1,11.77,11.77,0,0,1-4.2-1.88,13.78,13.78,0,0,1-4.39,1.89,3.74,3.74,0,0,0-.56-1,12.88,12.88,0,0,0,4-1.59,10.5,10.5,0,0,1-2.44-3.43l.15-.06h-.59v-1.05h6.71l.21,0Zm-5.13-4.65a4.34,4.34,0,0,1-2.25,4,5.72,5.72,0,0,0-.72-.83,3.34,3.34,0,0,0,1.92-3.21v-1.65h4.72v3.47c0,.42,0,.57.29.57h1.15a3.52,3.52,0,0,0,.75-.08c0,.29,0,.71.09,1a3.12,3.12,0,0,1-.81.08H1109c-1,0-1.27-.44-1.27-1.55v-2.4h-2.61Zm-1,5.42a8.7,8.7,0,0,0,2.28,2.86,8.22,8.22,0,0,0,2.34-2.86Z"/><path class="cls-1" d="M1117.33,549.2H1113v-.9h4.29Zm1.19,7.74a20.57,20.57,0,0,1-4.58,1.83,6.49,6.49,0,0,0-.82-.84,18.09,18.09,0,0,0,4.39-1.44Zm-1.56-10.1h-3.59V546H1117Zm-2,3.53h9.7v6H1115Zm1.08,1.77h7.51v-1h-7.51Zm0,1.74h7.51v-1h-7.51Zm0,1.77h7.51v-1h-7.51Zm3.6-8.69a7.1,7.1,0,0,1-1.13,1.5,5.15,5.15,0,0,0-.84-.57,6.36,6.36,0,0,0,1.73-2.85l1,.23c-.09.28-.21.55-.31.82h5l.18,0,.75.25a13,13,0,0,1-1.26,2.16l-.88-.31a9.13,9.13,0,0,0,.7-1.19h-2.38v.2a3,3,0,0,1,0,.49,6.76,6.76,0,0,0,4.4,1.65,4,4,0,0,0-.63.89,7.19,7.19,0,0,1-4.08-1.76c-.5.74-1.68,1.43-4.32,1.83a3.76,3.76,0,0,0-.6-.82c3.88-.53,4.24-1.55,4.24-2.33V547Zm2.25,9.51a42.79,42.79,0,0,1,4.41,1.62l-1,.65a35.83,35.83,0,0,0-4.2-1.67Z"/><path class="cls-1" d="M1132.29,556.83a9.72,9.72,0,0,0,3.54.48c.73,0,5.29,0,6.22,0a3.64,3.64,0,0,0-.47,1.11h-5.73c-3.19,0-5-.49-6-2.53a8.92,8.92,0,0,1-.89,2.94,6.62,6.62,0,0,0-.88-.54c.85-1.5,1-3.84,1-6.47l1,.06c0,.74,0,1.46-.09,2.13a5,5,0,0,0,1.29,2.24v-5.51h-2.88v-1h2.67v-1.84h-2.38v-1h2.38v-1.8h1v1.8h2.34v1h-2.34v1.84h2.64v.65a4.52,4.52,0,0,0,2.25-3.71h-2.09v-1h6.55s0,.32,0,.47c-.14,2.67-.27,3.72-.6,4.09a1.18,1.18,0,0,1-.87.38,12.41,12.41,0,0,1-1.63,0,3,3,0,0,0-.29-1c.62.06,1.2.06,1.42.06a.51.51,0,0,0,.46-.14c.19-.22.33-1,.43-2.94h-2.29a5.74,5.74,0,0,1-2.84,4.58,4.21,4.21,0,0,0-.6-.53h-2.35v2.13h2.32v1h-2.32Zm3.12-5.37h5.71v4.62h-5.71Zm1,3.69H1140v-2.76h-3.56Z"/><path class="cls-1" d="M1147.18,552.24a19.07,19.07,0,0,1-1.23,3.87c.29.17.65.45,1.2.78a8,8,0,0,0,4.2.75c1.92,0,4.35-.15,6-.31a3.9,3.9,0,0,0-.34,1.15c-1.11.08-4,.17-5.73.17a8.31,8.31,0,0,1-4.4-.83c-.6-.36-1.15-.87-1.48-.87s-.84.95-1.29,1.89l-.77-1a7.11,7.11,0,0,1,1.5-1.67,12.46,12.46,0,0,0,1.08-3.12h-2c.42-.88.88-2.16,1.29-3.34h-1.67v-1h3.08c-.38,1.08-.84,2.34-1.25,3.38h1l.19-.05Zm-2-4.33c-.18-.65-.51-1.68-.77-2.46l1-.29c.26.78.6,1.76.78,2.42Zm3.84,8.77h-1V550.2h1.15v-4.59h6.15v4.59h1.16v5.37c0,.53-.09.78-.47.95a5.24,5.24,0,0,1-1.83.16,3.81,3.81,0,0,0-.3-.9c.63,0,1.19,0,1.34,0s.24-.08.24-.23v-4.48H1149Zm1.15-6.48h1.41v-2.5h2.73v-1.22h-4.14Zm4,5h-3v.58h-.87v-3.75h3.88Zm-.87-2.37h-2.14v1.59h2.14Zm1-2.66v-1.72h-1.86v1.72Z"/><path class="cls-1" d="M1158.82,556.82c3.45-3,5-5.21,5-7.1a1.93,1.93,0,0,0-2-2.17,3.07,3.07,0,0,0-2.28,1.27l-.8-.78a4.23,4.23,0,0,1,3.24-1.62,3,3,0,0,1,3.2,3.26c0,2.19-1.73,4.42-4.31,6.87.57,0,1.25-.11,1.8-.11h3v1.19h-6.92Z"/><path class="cls-1" d="M1167.52,552.09c0-3.82,1.34-5.67,3.44-5.67s3.42,1.86,3.42,5.67-1.34,5.73-3.42,5.73S1167.52,555.92,1167.52,552.09Zm5.52,0c0-3.21-.84-4.56-2.08-4.56s-2.1,1.35-2.1,4.56.84,4.64,2.1,4.64S1173,555.33,1173,552.09Z"/><path class="cls-1" d="M1180.48,545.45a24.07,24.07,0,0,1-1.56,3.43v9.87h-1.07v-8.16a16.29,16.29,0,0,1-1.25,1.59,8.54,8.54,0,0,0-.63-1.09,17.42,17.42,0,0,0,3.47-6Zm-.84,12.46a11.69,11.69,0,0,0,1.2-2.43l.87.38a14.56,14.56,0,0,1-1.19,2.53Zm6.28-9a12.22,12.22,0,0,0,.62-1.46h-6v-.87h3.75c-.15-.4-.33-.91-.52-1.3l1-.2a14.49,14.49,0,0,1,.65,1.5h3.87v.87h-2.63l1,.26c-.24.4-.47.84-.68,1.2h2.79v.91h-10v-.91h2.68a4.35,4.35,0,0,0-.55-1.22l1-.21a4.74,4.74,0,0,1,.59,1.23l-.75.2Zm2.67,5.8h-4.32a10.79,10.79,0,0,1,1.94,1.49l-.71.61a16.34,16.34,0,0,0-2.12-1.68l.54-.42h-2.84v-4.11h7.51Zm-1.09-3.36h-5.35v1h5.35Zm0,1.65h-5.35v1h5.35Zm-1.26,4.86c.48,0,.58-.13.61-1.12a3.39,3.39,0,0,0,.93.36c-.12,1.33-.43,1.66-1.42,1.66h-2.46c-1.34,0-1.68-.27-1.68-1.29v-2h1v2c0,.35.09.39.75.39Zm1.81-2.53a15.22,15.22,0,0,1,1.79,2.64l-.92.45a14.69,14.69,0,0,0-1.75-2.72Z"/><path class="cls-1" d="M1192.9,554a2.62,2.62,0,0,0,1.89-2.2h-.26a1,1,0,0,1-1.12-1.06,1,1,0,0,1,1.14-1.08c.82,0,1.27.67,1.27,1.72a3.59,3.59,0,0,1-2.59,3.41Z"/><path class="cls-1" d="M1203.73,545.43a21.13,21.13,0,0,1-1.53,3.09v10.23h-1v-8.62a16.06,16.06,0,0,1-1.66,2,7.55,7.55,0,0,0-.63-1.08,16.91,16.91,0,0,0,3.84-5.91Zm4.63,3.8v2.92h3.54v6.45h-1.12v-.79h-5.59v.88h-1.09v-6.54h3.15v-7h1.11v3.06h4.4v1.07Zm2.42,4h-5.59v3.58h5.59Z"/><path class="cls-1" d="M1217.48,553.92c.54-.24,1.1-.46,1.65-.7l.23,1c-1.58.73-3.26,1.48-4.56,2.07l-.43-1.11c.57-.2,1.28-.5,2.07-.83v-4.62h-1.8v-1.06h1.8v-3.41h1v3.41h1.62v1.06h-1.62Zm8.61,3.51c.87,0,1-.4,1.13-2.13a2.44,2.44,0,0,0,1,.42c-.18,2.06-.52,2.72-2.08,2.72h-3.69c-1.7,0-2.21-.41-2.21-2V551.7l-1.18.5-.44-1,1.62-.67v-4.08h1.07v3.61l2-.84v-4.17h1.06v3.72l2.28-1,.86.29-.06.18a54.64,54.64,0,0,1-.78,6.57l-.92-.27a52.21,52.21,0,0,0,.57-5.48l-1.95.83v5.5h-1.06V550.4l-2,.85v5.18c0,.81.19,1,1.17,1Z"/><path class="cls-1" d="M923.26,581.79h2.45v-8.2h-2v-.87a7.13,7.13,0,0,0,2.28-.78h1.05v9.85h2.2v1.14h-6Z"/><path class="cls-1" d="M931.66,582.09a1,1,0,1,1,2,0,1,1,0,1,1-2,0Z"/><path class="cls-1" d="M935.7,582.12c3.45-3,5-5.2,5-7.09a1.94,1.94,0,0,0-2-2.18,3.09,3.09,0,0,0-2.28,1.28l-.79-.78a4.18,4.18,0,0,1,3.24-1.62,3,3,0,0,1,3.19,3.25c0,2.19-1.72,4.43-4.3,6.87.57,0,1.24-.1,1.8-.1h3v1.18H935.7Z"/><path class="cls-1" d="M944.08,581.67l.68-.9a3.61,3.61,0,0,0,2.7,1.22,2.38,2.38,0,0,0,2.34-2.6,2.22,2.22,0,0,0-2.28-2.5,3,3,0,0,0-1.83.64l-.74-.45.35-5.14h5.35v1.17H946.5l-.27,3.18a3.31,3.31,0,0,1,4.95,3.06,3.57,3.57,0,0,1-3.6,3.78A4.68,4.68,0,0,1,944.08,581.67Z"/><path class="cls-1" d="M956.58,572.25h-3.35v-.94h3.35v-.93h1.09v.93h1.83v.94h-1.83v.93h-1.09Zm9.13,10.7c0,.52-.09.78-.48,1a5.92,5.92,0,0,1-2,.16,4,4,0,0,0-.33-.91h1.44c.18,0,.24-.06.24-.23v-3.15H960.3v1.56l1.87-.07a8.06,8.06,0,0,0-.66-1l.83-.27a8.6,8.6,0,0,1,1.54,2.67L963,583a4.3,4.3,0,0,0-.36-.88c-2.41.16-4.87.28-6.57.37l-.09-1,3.24-.12v-1.64h-4.18v4.29H954v-4.29h-.6v-.93h.6v-.54h1.08v.54h4.18v-.91h-4.3v-4.55h9.76v4.55H960.3v.91h5.41ZM956,575.28h3.24V574.2H956Zm3.24,1.85v-1.08H956v1.08Zm7.08-5.82v.94h-3.4v1h-1.1v-1h-1.75v-.94h1.75v-.93h1.1v.93Zm-2.71,2.89h-3.3v1.08h3.3Zm0,1.85h-3.3v1.08h3.3Z"/><path class="cls-1" d="M972.67,579l.17,1c-1.47.63-3.05,1.27-4.26,1.77l-.41-1.13c.53-.16,1.17-.39,1.88-.66V575H968.4V574h1.65v-3.4h1V574h1.44V575h-1.44v4.56Zm9.25-.24h-4.09v5.31h-1.1v-5.31h-4.07V577.7h4.07v-5.49h-3.64v-1.07h8.43v1.07h-3.69v5.49h4.09Zm-7.36-5.7a18.89,18.89,0,0,1,.9,3.66l-1,.26a18.21,18.21,0,0,0-.84-3.69Zm4.4,3.68a28.06,28.06,0,0,0,1-3.77l1,.24c-.37,1.28-.84,2.82-1.24,3.77Z"/><path class="cls-1" d="M985.08,579.32a2.6,2.6,0,0,0,1.88-2.21,1,1,0,0,1-.25,0,1,1,0,0,1-1.13-1.07,1.06,1.06,0,0,1,1.15-1.08c.82,0,1.27.68,1.27,1.73a3.56,3.56,0,0,1-2.6,3.4Z"/><path class="cls-1" d="M997,577.77c-.74.23-1.49.47-2.22.68v4.15c0,.65-.15.93-.54,1.11a5.09,5.09,0,0,1-2,.21,4.36,4.36,0,0,0-.36-1c.72,0,1.36,0,1.54,0s.3-.08.3-.3v-3.8l-2,.6-.33-1.12,2.37-.62v-3.19h-2.23v-1.07h2.23v-3h1.1v3h2.07v1.07H994.8v2.86l2.08-.58Zm8-5h-2.65v9.7c0,.77-.2,1.14-.74,1.32a9.56,9.56,0,0,1-2.88.23,5,5,0,0,0-.46-1.2c1.09,0,2.19,0,2.5,0s.41-.11.41-.39v-9.69h-4.28v-1.1h8.1Z"/><path class="cls-1" d="M1010.71,577.52a20.63,20.63,0,0,1-1.48,4c.25.16.58.4,1,.69a7.88,7.88,0,0,0,4.15.75c1.9,0,4.32-.14,6-.3a4.28,4.28,0,0,0-.32,1.14c-1.12.07-3.91.16-5.68.16a8.18,8.18,0,0,1-4.36-.82c-.6-.36-1.14-.87-1.49-.87s-.84.93-1.29,1.89l-.76-1a5.2,5.2,0,0,1,1.75-1.77,13.62,13.62,0,0,0,1.17-3.05h-2.08c.42-.88.91-2.14,1.32-3.3h-2v-1H1010c-.38,1.06-.86,2.32-1.29,3.33H1010l.18-.05Zm-2.26-4.2c-.17-.63-.53-1.65-.75-2.42l1-.28c.27.75.61,1.74.81,2.35Zm4.12-.08a9.24,9.24,0,0,1-1.14,1.56,7.43,7.43,0,0,0-1-.54,9.05,9.05,0,0,0,2.18-3.67l1,.25a13.79,13.79,0,0,1-.58,1.43h1.72v-1.86h1.1v1.86h3.57v1h-3.57v1.91h4.22v1h-9.56v-1h4.24v-1.91Zm5.34,8.6v-.5h-5v.54h-1.09v-4.6H1019v4.56Zm0-1.46v-2.19h-5v2.19Z"/><path class="cls-1" d="M1035.48,576.92v1h-6.26a9.89,9.89,0,0,1-.18,1.15h6.19v1h-6.46c-.7,2.05-2.31,3.33-6.24,4a3.77,3.77,0,0,0-.58-1c3.46-.5,4.93-1.46,5.61-3h-5v-1h5.35a9.82,9.82,0,0,0,.2-1.15h-5.88v-1h6v-1.26h-4.66v-1h4.66v-1.21h-5.49v-1h3.17a8.63,8.63,0,0,0-1.16-1.74l1-.39a7.24,7.24,0,0,1,1.32,1.89l-.54.24h4a17,17,0,0,0,1.29-2.13l1.13.35a18.36,18.36,0,0,1-1.19,1.78h3.19v1h-5.52v1.21h4.8v1h-4.8v1.26Zm-6.14,3.28a37.22,37.22,0,0,1,6.12,3l-.52,1a35.31,35.31,0,0,0-6.08-3.1Z"/><path class="cls-1" d="M1046.35,574.26c.38,5,1.55,8.69,3,8.69.4,0,.58-.83.67-2.82a3.32,3.32,0,0,0,1,.61c-.19,2.6-.61,3.36-1.75,3.36-2.43,0-3.67-4.3-4.08-9.84h-7.74v-1.09h7.67c-.05-.89-.06-1.8-.08-2.72h1.17c0,.93,0,1.83.06,2.72h4.44v1.09Zm-4.59,7.41c1-.22,2.13-.43,3.21-.67l.09,1c-2.53.6-5.28,1.23-7.18,1.65l-.35-1.1,3.14-.63v-4.35H1038v-1.08h6.56v1.08h-2.8Zm7.57-8.68a12.64,12.64,0,0,0-2.12-1.88l.75-.61a12.71,12.71,0,0,1,2.15,1.78Z"/><path class="cls-1" d="M1056.94,579.86c-.24-.42-.79-1.19-1.27-1.83v6h-1v-5.92a14.42,14.42,0,0,1-1.74,1.87,3.6,3.6,0,0,0-.6-1,14.85,14.85,0,0,0,3.71-4.92h-3.4v-1h3.94l.21,0,.61.43a17.74,17.74,0,0,1-1.69,3.3v0a6.13,6.13,0,0,1,.49.55,14.57,14.57,0,0,0,1.08-1.44l.72.65c-.45.46-.9,1-1.29,1.36.41.48.81.93.95,1.13Zm-1.8-7a15,15,0,0,0-1.06-2l.87-.41a12.71,12.71,0,0,1,1.11,2Zm10.23,6.42a7.55,7.55,0,0,1-2.57,2.76,13.65,13.65,0,0,0,3.47,1,4.57,4.57,0,0,0-.68,1,12.78,12.78,0,0,1-3.84-1.38,16.18,16.18,0,0,1-4.33,1.42,4,4,0,0,0-.55-.91,15.77,15.77,0,0,0,3.9-1.11,10.14,10.14,0,0,1-1.52-1.32,12,12,0,0,1-1.38,1,8.21,8.21,0,0,0-.79-.75,9,9,0,0,0,1.52-1,10.12,10.12,0,0,1-.75-1.17l.94-.32a7.31,7.31,0,0,0,.52.84,6.63,6.63,0,0,0,1-1.29h-1.78v-3.66c-.16.21-.33.39-.48.57a8.15,8.15,0,0,0-.94-.64,11,11,0,0,0,2.41-4l1.08.29a11.46,11.46,0,0,1-.51,1.23H1066v1h-6.38c-.19.34-.4.64-.6,1h6.14v4.27h-3.63a7,7,0,0,1-.59.93h3.51l.2,0Zm-5.76-3.79h4.45v-1h-4.45Zm0,1.77h4.45v-1h-4.45Zm.6,2.56-.24.26a9.46,9.46,0,0,0,1.84,1.44,7,7,0,0,0,2-1.7Z"/><path class="cls-1" d="M1075.9,570.83a8.12,8.12,0,0,1-.48.67,17.75,17.75,0,0,0,6.23,4.1,3.27,3.27,0,0,0-.77,1,23.39,23.39,0,0,1-2.43-1.33v1h-7.51v-.77a22.08,22.08,0,0,1-2.3,1.22,4.31,4.31,0,0,0-.81-1,15.52,15.52,0,0,0,7.1-5.41Zm-5.74,7.26h9.24V584h-1.16v-.78h-7v.84h-1.12Zm1.12,1v3.1h7v-3.1Zm7.14-3.83a17.14,17.14,0,0,1-3.64-3,16.86,16.86,0,0,1-3.44,3Z"/><path class="cls-1" d="M1096.72,582.53v1.05h-13.47v-1.05h6.25v-1.89h-4.7v-1h4.7v-1.68h1.13v1.68h4.53v1h-4.53v1.89ZM1086.4,575a4.77,4.77,0,0,1-2.25,3.58,5.36,5.36,0,0,0-.73-.78,3.89,3.89,0,0,0,1.95-2.8h-1.82v-1h1.89V572h-1.39v-1h6.72v1h-1.4V574h1.69v1h-1.69v3.21h-1V575Zm.08-1h1.84V572h-1.84V574Zm6.55,2.19h-1v-5h1Zm2.8.93c0,.61-.12.9-.57,1.08a7.72,7.72,0,0,1-2.23.18,3.53,3.53,0,0,0-.38-1,17.34,17.34,0,0,0,1.83,0c.23,0,.29-.06.29-.27v-6.65h1.06Z"/><path class="cls-1" d="M1111.84,572v1h-13.08v-1h6.2c-.15-.45-.35-1-.53-1.41l1-.27c.21.52.48,1.18.64,1.68Zm-.82,10.84c0,.59-.15.84-.59,1a10.72,10.72,0,0,1-2.47.15,3.05,3.05,0,0,0-.35-.86c.93,0,1.8,0,2,0s.33-.07.33-.31v-6.78h-3v1c0,.33,0,.45.29.45h1.35a4.46,4.46,0,0,0,.82-.06c0,.26,0,.56.08.8a3.07,3.07,0,0,1-.87.07H1107c-.91,0-1.09-.39-1.09-1.27v-1h-1.7c-.22,1.56-.93,2.38-3,2.85a2.28,2.28,0,0,0-.54-.78c1.76-.32,2.34-.92,2.55-2.07h-2.58v8h-1.06v-8.94h6.93a13.5,13.5,0,0,0,1.09-2l1.13.25c-.36.6-.77,1.26-1.16,1.79H1111Zm-8.13-9.84a15.69,15.69,0,0,1,.94,1.67l-1,.39c-.21-.44-.61-1.19-.93-1.74Zm.6,9.17v.69h-1v-4.1H1108v3.41Zm0-2.57v1.74h3.57V579.6Z"/><path class="cls-1" d="M1118.49,579.18c-1.52.77-3.15,1.56-4.41,2.16l-.44-1.09c.57-.24,1.28-.54,2-.89v-4.69h-1.75v-1h1.75V570.5h1v3.12h1.62v1h-1.62v4.21l1.53-.69Zm2.78-1.72a8.66,8.66,0,0,1-.64,1h6.45s0,.3,0,.45c-.22,3.09-.46,4.26-.88,4.69a1.24,1.24,0,0,1-.84.38c-.33,0-.89,0-1.48,0a1.91,1.91,0,0,0-.26-.9c.55,0,1,.06,1.28.06s.34,0,.44-.16c.26-.27.48-1.22.68-3.57h-1.17a10.42,10.42,0,0,1-3.06,4.69,3.35,3.35,0,0,0-.79-.64,8.89,8.89,0,0,0,2.92-4h-1.45a11.43,11.43,0,0,1-3.65,4,3,3,0,0,0-.73-.69,10,10,0,0,0,3.37-3.36h-1.51a10.63,10.63,0,0,1-2,1.71,4.72,4.72,0,0,0-.77-.69,8.45,8.45,0,0,0,3-3h-2.1v-1h9.39v1Zm5.11-1.79h-6.86v-4.84h6.86Zm-1-4h-4.8v1.18h4.8Zm0,2h-4.8v1.2h4.8Z"/><path class="cls-1" d="M1142.65,579.54v1h-13.51v-1h1.51l-.28-7.92a26.36,26.36,0,0,0,2.77-1.15l.54.91c-.69.29-1.51.57-2.28.81l.06,1.76h2v1h-2l.06,1.83h2v1h-1.93l.06,1.84h8.5c0-.52.07-1.15.1-1.8h-2v-.94h2c0-.6,0-1.22.08-1.85h-2v-1h2c0-.64,0-1.27,0-1.87h-2.16v-1h3.18c0,2.63-.09,6.18-.22,8.4Zm-8.19,2a23.72,23.72,0,0,1-4.47,2.57,9.28,9.28,0,0,0-.66-.84,17.43,17.43,0,0,0,4.17-2.4Zm1.15-5.37a7.56,7.56,0,0,1-.91,2.81,4,4,0,0,0-.78-.48,5.83,5.83,0,0,0,.83-2.48Zm1-.79h-2.38v-4.85h1v1.4h2.47v.94h-2.47v1.61h2.37v3.95c0,.46-.09.66-.42.81a5.05,5.05,0,0,1-1.58.13,2.68,2.68,0,0,0-.28-.76,8.57,8.57,0,0,0,1.13,0c.16,0,.19-.06.19-.19Zm1.29,5.44a35.86,35.86,0,0,1,4.36,2.4l-.73.84a33.88,33.88,0,0,0-4.25-2.47Z"/><path class="cls-1" d="M1152.94,574.58a40.48,40.48,0,0,1,5.19,2.91l-.82.76a37.21,37.21,0,0,0-5.61-3.24v2.46h-1.1v-2.85a14.33,14.33,0,0,1-5.67,3.9,5.08,5.08,0,0,0-.72-.9,13.6,13.6,0,0,0,5.1-3h-4.62v-1h5.91v-1.48c-1.63.13-3.31.24-4.86.3a3.61,3.61,0,0,0-.27-.92,63.81,63.81,0,0,0,9.88-1l.84.85a35.09,35.09,0,0,1-4.49.69v1.59h6v1Zm3.66,5s0,.33,0,.48c-.23,2.18-.46,3.12-.86,3.5a1.56,1.56,0,0,1-1.1.4,20.47,20.47,0,0,1-2.12,0,2.59,2.59,0,0,0-.36-1c.88.09,1.77.11,2.1.11a.79.79,0,0,0,.58-.14c.26-.21.43-.85.6-2.31H1152c.18-.48.39-1.11.57-1.72h-2.67a6.07,6.07,0,0,1-4.53,5.32,3.4,3.4,0,0,0-.64-.91,5.11,5.11,0,0,0,4-4.41h-2.19v-1h7.32c-.15.55-.33,1.18-.51,1.72Z"/><path class="cls-1" d="M1169.6,577a9.18,9.18,0,0,0,3.87,2.47,4.11,4.11,0,0,0-.73.92,10.4,10.4,0,0,1-4.41-3.39h-3.9a12.84,12.84,0,0,1-4,3.54,3,3,0,0,0-.82-.77,11.58,11.58,0,0,0,3.46-2.77h-3.3v-1h4a13.18,13.18,0,0,0,.75-1.24h-3.18v-.9h3.58c.16-.38.31-.78.44-1.17h-4.77v-.92h5a13.42,13.42,0,0,0,.25-1.41l1.17.11c-.08.42-.15.87-.27,1.3h5.7v.92h-5.94a10.16,10.16,0,0,1-.41,1.17h5.72v.9h-6.12A8.37,8.37,0,0,1,1165,576h8.11v1Zm.68,2.37c-.47.52-1,1.09-1.5,1.57,1.18.59,2.37,1.22,3.15,1.68l-.66.86a36.2,36.2,0,0,0-4.2-2.27v1.68c0,.57-.13.81-.55,1a7.23,7.23,0,0,1-2.1.15,3.56,3.56,0,0,0-.35-.92c.76,0,1.45,0,1.64,0s.27-.06.27-.26v-1.35c-1.67.66-3.41,1.34-4.76,1.83l-.52-.93c1.32-.43,3.34-1.14,5.28-1.84v-3.06h1.09v2.64c.27.12.53.25.81.36a20.11,20.11,0,0,0,1.5-1.7Zm-6.13,1.72a8.38,8.38,0,0,0-1.61-1.59l.75-.58a7.91,7.91,0,0,1,1.64,1.54Z"/><path class="cls-1" d="M1177.59,581a8.62,8.62,0,0,1-1.62,2.46,9.27,9.27,0,0,0-.8-.61,6.5,6.5,0,0,0,1.47-2.13Zm5.58-4.21h-8v-.9h3.49l-.34-.68,1-.25a6.35,6.35,0,0,1,.51.93h3.27Zm-.51-1.86H1176v-4.05h6.71Zm-2.87,5.46v2.47c0,.54-.1.78-.48.93a4.69,4.69,0,0,1-1.75.17,3.56,3.56,0,0,0-.35-.92,12.63,12.63,0,0,0,1.28,0c.18,0,.21-.06.21-.19v-2.46h-2.61v-2.85h6.4v2.85Zm1.77-8.75H1177v.89h4.54Zm0,1.62H1177v.92h4.54Zm-4.44,6.33h4.28v-1.26h-4.28Zm4.22,1.11a12.91,12.91,0,0,1,1.41,2.16l-.84.44a14.67,14.67,0,0,0-1.35-2.22Zm7.33-1.33a12.92,12.92,0,0,1-5.17,4.59,4.82,4.82,0,0,0-.78-.86,11.23,11.23,0,0,0,4.93-4.14Zm-.78-8.28a15.08,15.08,0,0,1-3.93,3.51,4.6,4.6,0,0,0-.81-.77,12.09,12.09,0,0,0,3.7-3.18Zm.46,4a14.57,14.57,0,0,1-4.4,3.72,4.47,4.47,0,0,0-.78-.79,12.42,12.42,0,0,0,4.18-3.35Z"/><path class="cls-1" d="M1194.72,580.43c-1.43.6-2.93,1.17-4.1,1.63l-.36-1.09,1.76-.62v-5.29h-1.58v-1H1192v-3.46h1V574h1.43v1h-1.43V580l1.46-.54Zm8.84-4.89a16.68,16.68,0,0,1-2.1,5.05c.36,1.44.8,2.28,1.31,2.28.28,0,.44-.73.5-2.46a2.25,2.25,0,0,0,.82.57c-.17,2.25-.48,2.94-1.46,2.94s-1.46-.84-1.93-2.25a11,11,0,0,1-2.5,2.36,4.74,4.74,0,0,0-.78-.77,10.18,10.18,0,0,0,2.95-2.83,40.53,40.53,0,0,1-.72-6.72h-3.51v2H1199s0,.31,0,.45c0,3.42-.1,4.62-.39,5a.93.93,0,0,1-.77.42,9.79,9.79,0,0,1-1.34,0,2.48,2.48,0,0,0-.26-.94c.51,0,1,0,1.17,0s.3,0,.36-.15.22-1.18.27-3.87h-1.89v.66c0,2.1-.25,4.95-1.86,6.81a3.46,3.46,0,0,0-.82-.7c1.5-1.73,1.64-4.19,1.64-6.12v-4.64h4.52c0-.75,0-1.51,0-2.29h1.06c0,.78,0,1.56,0,2.29h2a11.22,11.22,0,0,0-1.73-1.71l.75-.48a9.13,9.13,0,0,1,1.79,1.68l-.75.51h1.09v1h-3.13a45.84,45.84,0,0,0,.48,5.4,15.31,15.31,0,0,0,1.36-3.74Z"/><path class="cls-1" d="M1207.08,579.32a2.6,2.6,0,0,0,1.88-2.21,1,1,0,0,1-.25,0,1,1,0,0,1-1.13-1.07,1.06,1.06,0,0,1,1.15-1.08c.82,0,1.27.68,1.27,1.73a3.56,3.56,0,0,1-2.6,3.4Z"/><path class="cls-1" d="M1217,573.11c-.13,1.06-.72,2.2-2.64,2.95a4.33,4.33,0,0,0-.63-.75c1.64-.52,2.1-1.42,2.22-2.2h-2.32v-.92H1216V570.6h1v1.59h1.26v-1.57h1v1.57h1.86v-1.57h1v1.57h1.32v-1.62h1v1.62h2.3v.92h-2.3v1.14c0,.4,0,.52.3.52H1226a3.78,3.78,0,0,0,.76-.06,8,8,0,0,0,.09.87,3.91,3.91,0,0,1-.83.06h-1.3c-1,0-1.23-.39-1.23-1.41v-1.12h-1.32v2.4h-3.87v-2.4Zm-3.09,3.13h12.68v2.88h-1.08v-2H1215v2h-1Zm11.24,5.78c0,.57-.12.85-.56,1a8.2,8.2,0,0,1-2.29.16,4,4,0,0,0-.36-1c.84,0,1.61,0,1.82,0s.29-.08.29-.24v-2.4h-3.34v4.44h-1.1v-4.44h-3.13v3.58h-1.1v-4.5h4.23v-1.24h1.1v1.24h4.44Zm-5.87-8.91v1.53h1.86v-1.53Z"/><path class="cls-1" d="M1242,573.86s0,.42,0,.57c-.16,6.28-.3,8.37-.8,9a1.18,1.18,0,0,1-1,.55,9.93,9.93,0,0,1-1.82,0,3.16,3.16,0,0,0-.31-1.05c.72.06,1.38.08,1.66.08a.57.57,0,0,0,.54-.24c.35-.44.53-2.42.68-7.86h-2.15c-.18,4-.86,7.26-3.51,9.24a3.67,3.67,0,0,0-.82-.8,6.87,6.87,0,0,0,.66-.52c-2.28.27-4.6.52-6.28.7l-.17-1,3.26-.3V581h-2.84v-.86h2.84v-.91h-2.81v-4.46h2.81v-.94h-3.24v-.87h3.24v-1c-1,.07-1.94.13-2.82.16a3.43,3.43,0,0,0-.27-.82,45.87,45.87,0,0,0,6.46-.74l.56.86a28.68,28.68,0,0,1-2.93.43v1.1h3.18v.87h-3.18v.94h2.91v4.46h-2.91v.91h2.94V581h-2.94v1.18c1-.09,2-.19,3-.31v.07c1.31-1.77,1.69-4.18,1.83-7H1236v-1h1.78c0-1.05,0-2.15,0-3.29h1c0,1.13,0,2.24,0,3.29Zm-12,2.73h1.89v-1.08H1230Zm1.89,1.83v-1.1H1230v1.1Zm1-2.91v1.08h2v-1.08Zm2,1.81h-2v1.1h2Z"/><path class="cls-1" d="M935.1,608.05c0,.69-.2,1-.66,1.15a8.63,8.63,0,0,1-2.58.2,4.16,4.16,0,0,0-.39-1c1,0,1.89,0,2.14,0s.38-.1.38-.36V602.3h-8.7c-.08,2.34-.47,5.21-1.92,7.19a3.44,3.44,0,0,0-.89-.72c1.58-2.16,1.73-5.22,1.73-7.55v-4.81H935.1Zm-9.8-10.59v1.41H929v-1.41Zm0,3.9H929v-1.58H925.3v1.58Zm2.15,5.92v.83h-1v-4.74h6.23v3.91Zm0-3v2.11h4.12v-2.11Zm6.54-6.81h-4v1.41h4Zm0,3.9v-1.58h-4v1.58Z"/><path class="cls-1" d="M941.46,602.86a18.93,18.93,0,0,1-1.22,3.88c.33.15.66.47,1.26.83a8.11,8.11,0,0,0,4.2.73c1.95,0,4.38-.13,6-.28a3.45,3.45,0,0,0-.32,1.08c-1.12.07-4,.16-5.76.16a8.24,8.24,0,0,1-4.38-.82c-.63-.36-1.17-.87-1.5-.87s-.82.93-1.29,1.87l-.72-.93a7.54,7.54,0,0,1,1.43-1.63,15.4,15.4,0,0,0,1.06-3.2h-1.86c.44-.9,1-2.19,1.44-3.37H938v-1h3.33c-.42,1.08-.94,2.37-1.39,3.39h.85l.18-.05Zm-1.55-4.32c-.25-.65-.73-1.7-1.08-2.48l.92-.27c.36.78.87,1.77,1.09,2.4Zm2.84,4.33h-1v-1.48h4.16c-.08-.21-.18-.45-.27-.65h-2.84v-4.15h2.64a9.88,9.88,0,0,0,.42-.93l1.16.16c-.18.29-.36.53-.53.77h3.63v4.15h-3.36c.12.21.23.45.32.65h4.09v1.39h-1V602H948.4v.71c0,.27,0,.36.32.36H950a6.67,6.67,0,0,0,.92-.06c0,.22,0,.36.07.6a4.12,4.12,0,0,1-.94.06h-1.7c-.76,0-.88-.33-.88-1V602H945.9c-.47,1.08-1.5,1.58-3.54,1.91a1.82,1.82,0,0,0-.45-.6c1.69-.23,2.56-.6,3-1.31h-2.13Zm2.94,2c-.05.19-.09.36-.15.52h4.23a3.28,3.28,0,0,1,0,.38c-.19,1-.4,1.51-.72,1.74a1.21,1.21,0,0,1-.82.24,13.66,13.66,0,0,1-1.58,0,1.78,1.78,0,0,0-.22-.69,11.15,11.15,0,0,0,1.42.08c.24,0,.36,0,.45-.11a1.55,1.55,0,0,0,.42-.91h-3.45a4.48,4.48,0,0,1-2.79,1.83,2.15,2.15,0,0,0-.55-.75c1.81-.44,2.53-1.2,2.83-2.28H942v-.71h4c-.12-.27-.26-.57-.39-.82l.91-.2c.18.3.38.71.53,1h4v.71Zm-1.82-7.08h5.18v-.63h-5.18Zm0,1.18h5.18v-.63h-5.18Zm0,1.2h5.18v-.64h-5.18Z"/><path class="cls-1" d="M966.25,608c0,.64-.18.93-.61,1.11a8.69,8.69,0,0,1-2.45.18,3.86,3.86,0,0,0-.36-1c.89,0,1.73,0,2,0s.36-.09.36-.34V597.53H955V609.4h-1.08V596.48h12.33Zm-8.73-5.31v3.49h2v-4.6h-3.77v-1h5.21a20.64,20.64,0,0,0,1.32-2.78l1.11.29c-.42.82-.93,1.74-1.38,2.49h2.56v1h-4v4.6h2v-3.49h1v4.45h-7v-4.45Zm.21-4.8a19.17,19.17,0,0,1,1.13,2.28l-1,.37a17,17,0,0,0-1.08-2.35Z"/><path class="cls-1" d="M981.19,598.78v10.56h-1.14v-1.11H969.51v-9.44h1.14v8.31h4.11V595.87h1.14V607.1h4.15v-8.32Z"/><path class="cls-1" d="M989.07,603.86l-1,.86a25.48,25.48,0,0,0-3.32-3.33l1-.86A28.52,28.52,0,0,1,989.07,603.86Z"/><path class="cls-1" d="M994.78,601.09c.41.55,1.49,2.22,1.74,2.61l-.6.82c-.21-.48-.72-1.41-1.14-2.16v7h-1v-6.86a16.56,16.56,0,0,1-1.72,4,8.64,8.64,0,0,0-.59-1,16.64,16.64,0,0,0,2.21-5.63h-1.89v-1h2v-3.24h1v3.24h1.65v1h-1.65Zm7.91-2a7.53,7.53,0,0,0,2.77,2.26,3.68,3.68,0,0,0-.7.81,7.45,7.45,0,0,1-1.56-1.15v1.77h-4.79V601a8.64,8.64,0,0,1-1.6,1.19,2.34,2.34,0,0,0-.69-.74,7.39,7.39,0,0,0,2.68-2.38h-2.22v-.89h2.73a6,6,0,0,0,.38-1c-.89.06-1.77.09-2.58.11a2.8,2.8,0,0,0-.26-.77,41.47,41.47,0,0,0,6.74-.66l.66.75a28.45,28.45,0,0,1-3.47.5,8.49,8.49,0,0,1-.37,1h4.71v.89Zm2.17,9.15c0,.52-.1.81-.49,1a6.21,6.21,0,0,1-1.94.17,3.65,3.65,0,0,0-.36-.93c.71,0,1.32,0,1.52,0s.25-.06.25-.22v-3.89h-6v5h-1v-5.92h8.1Zm-5.13-.3v.66h-.84v-3.44h3.83v2.78Zm.23-8.85a10.19,10.19,0,0,1-.6.91h2.91a8.73,8.73,0,0,1-.63-.91Zm2.25,1.65h-2.84V602h2.84Zm-2.48,5.14v1.32h2.13v-1.32Z"/><path class="cls-1" d="M1013.14,607.21c-2.11.51-4.36,1-6,1.35l-.28-1c1.12-.21,2.68-.52,4.33-.87l-.75-.22a23.52,23.52,0,0,0,.68-3l1.06.27c-.28,1-.58,2.17-.87,3l1.74-.36Zm-.19-9.68h-5.87v-1H1013Zm-.35,5.43h-5.11v-4h5.11Zm-4.18,3.57a9.64,9.64,0,0,0-.57-2.77l.9-.23a9.22,9.22,0,0,1,.63,2.76Zm3.16-6.66h-3.12v2.18h3.12Zm4.61,7.56a10.19,10.19,0,0,1-3.29,2,6.32,6.32,0,0,0-.73-.74,8.76,8.76,0,0,0,3-1.78Zm-.3-8.64c.1-.45.22-1,.3-1.42h-2.84v-1h7.19v1h-3.12c-.15.49-.29,1-.44,1.42h3.08v7.77h-6.26v-7.77Zm3.12.87h-4.17v1.46H1019Zm0,2.25h-4.17v1.47H1019Zm0,2.3h-4.17v1.48H1019Zm-.72,2.74a18.07,18.07,0,0,1,2.56,1.85l-.88.6a18.31,18.31,0,0,0-2.52-1.91Z"/><path class="cls-1" d="M1026.67,604.7c0-.21-.09-.49-.16-.79-3.18.48-3.63.58-3.93.73a8,8,0,0,0-.36-1c.33-.08.67-.45,1.11-1,.22-.27.69-.9,1.23-1.7a7.4,7.4,0,0,0-2.07.35,9.2,9.2,0,0,0-.35-1c.26-.06.51-.36.83-.83a21,21,0,0,0,2-3.78l1,.41a25.71,25.71,0,0,1-2.28,4l1.54-.12a20.19,20.19,0,0,0,1.08-2l1,.57a29.87,29.87,0,0,1-3.33,4.83l2.36-.31c-.17-.5-.33-1-.51-1.47l.85-.23a18.57,18.57,0,0,1,1,3.08Zm-2.88.75a19.19,19.19,0,0,1-.76,3.68c-.2-.11-.66-.26-.89-.35a16.5,16.5,0,0,0,.72-3.49Zm1.46-.19a27.38,27.38,0,0,1,.42,3.15l-.9.15a25.84,25.84,0,0,0-.38-3.15Zm1.39-.39a16.67,16.67,0,0,1,.77,2.5l-.83.29a20.45,20.45,0,0,0-.73-2.54Zm9.15,3.15v1h-8.53v-1h3.81v-2.85h-3v-1h7.11v1h-3V608Zm-6.4-4.37a15.16,15.16,0,0,0-1.79-2.95,31.16,31.16,0,0,0,1.58-2.76l1,.25a28.81,28.81,0,0,1-1.47,2.48,18.3,18.3,0,0,1,1.65,2.59Zm6.27-6.19h-7.91v-1h7.91Zm-2.93.75c-.42.75-1,1.71-1.5,2.44a21.18,21.18,0,0,1,1.7,2.55l-.92.42a14.29,14.29,0,0,0-1.87-2.94,28.35,28.35,0,0,0,1.62-2.73Zm1.94,5.44a15.7,15.7,0,0,0-2-2.95,26,26,0,0,0,1.68-2.76l1,.27c-.43.76-1,1.71-1.54,2.46a17.43,17.43,0,0,1,1.8,2.55Z"/><path class="cls-1" d="M1038,600a10.9,10.9,0,0,1,2.35,1.56l-.58.78a12.65,12.65,0,0,0-2.31-1.67Zm-.39,8.58a48,48,0,0,0,2-4.71l.73.55c-.54,1.55-1.27,3.36-1.89,4.71Zm2.41-10.13a11,11,0,0,0-2.16-2l.6-.65a11.68,11.68,0,0,1,2.19,1.88Zm8.48,4.56h1v6.39h-1V607H1043a4.31,4.31,0,0,1-1.7,2.39,3,3,0,0,0-.84-.6,4.3,4.3,0,0,0,1.77-3.8v-2h1v1h5.16Zm-4-3.76s0,.22,0,.36c-.06,1.9-.1,2.64-.33,2.89a.73.73,0,0,1-.6.29,4.24,4.24,0,0,1-.81,0,2.13,2.13,0,0,0-.19-.75,6.67,6.67,0,0,0,.67,0,.23.23,0,0,0,.27-.1,6.33,6.33,0,0,0,.2-2h-.86a4.09,4.09,0,0,1-1.72,3.06,2.82,2.82,0,0,0-.5-.63,3.32,3.32,0,0,0,1.43-2.43h-.86v-.76ZM1051,598h-9.86v-.91h4.26a8.52,8.52,0,0,0-.34-1.41l1-.14a9.59,9.59,0,0,1,.43,1.55H1051Zm-2.49,8.1v-1.23h-5.16v.14a6.91,6.91,0,0,1-.08,1.09Zm-3.54-6.52a5.05,5.05,0,0,0-.66-1.25l.63-.27a4.81,4.81,0,0,1,.7,1.17Zm2.76-1.26a19.48,19.48,0,0,1-1.43,1.44V603h-.85V599.8a12.23,12.23,0,0,0,1.47-1.74Zm2.76.9a9.82,9.82,0,0,1-1,.42,4.73,4.73,0,0,0,1.51,2.61,2.32,2.32,0,0,0-.52.6,5.49,5.49,0,0,1-1.59-3l-.87.24V602l1.2-.34a2.94,2.94,0,0,0,.12.63,7.86,7.86,0,0,0-2,.78v0a5,5,0,0,0-.37-.73c.15-.11.33-.33.33-.9V599.6a10.41,10.41,0,0,0,2.46-.91Z"/><path class="cls-1" d="M1055.58,602.39c-.62-.42-1.85-1.14-2.76-1.62l.61-.81c.87.44,2.12,1.1,2.78,1.52Zm-2.4,6.05a44.3,44.3,0,0,0,2.83-4.8l.81.73a55.06,55.06,0,0,1-2.71,4.82Zm3.15-10.11a31.52,31.52,0,0,0-2.78-1.65l.62-.8a28.83,28.83,0,0,1,2.8,1.55Zm6,2.8v2.46h3.13v5.72h-1.06v-.56h-5.34v.63h-1v-5.79h3.22v-2.46h-4.32v-1.08h4.32v-2.43c-1.09.17-2.23.3-3.3.41a4.76,4.76,0,0,0-.3-.95,36.85,36.85,0,0,0,7.26-1.33l.89.87a25.08,25.08,0,0,1-3.48.84v2.59h4.11v1.08Zm2.07,3.5h-5.34v3.09h5.34Z"/><path class="cls-1" d="M1081.47,599.17s0,.42,0,.57c-.16,6.28-.3,8.37-.81,9a1.15,1.15,0,0,1-1,.55,9.93,9.93,0,0,1-1.82,0,3.16,3.16,0,0,0-.31-1c.72.06,1.38.08,1.66.08a.57.57,0,0,0,.54-.24c.35-.44.53-2.42.68-7.86h-2.15c-.18,4-.87,7.26-3.51,9.24a3.67,3.67,0,0,0-.82-.8,6.87,6.87,0,0,0,.66-.52c-2.28.27-4.61.52-6.29.7l-.16-1,3.25-.3v-1.29h-2.83v-.86h2.83v-.91h-2.8v-4.46h2.8v-.94h-3.24v-.87h3.24v-1c-1,.07-1.93.13-2.82.16a3,3,0,0,0-.27-.82,46.21,46.21,0,0,0,6.47-.74l.55.86a28.88,28.88,0,0,1-2.92.43v1.1h3.18v.87h-3.18v.94h2.91v4.46h-2.91v.91h2.94v.86h-2.94v1.18c1-.09,2-.19,3-.31v.07c1.3-1.77,1.69-4.18,1.83-7h-1.76v-1.05h1.79c0-1,0-2.15,0-3.29h1c0,1.13,0,2.24,0,3.29Zm-12,2.73h1.89v-1.08h-1.89Zm1.89,1.83v-1.1h-1.89v1.1Zm1-2.91v1.08h2v-1.08Zm2,1.81h-2v1.1h2Z"/><path class="cls-1" d="M1084.93,604.63a2.6,2.6,0,0,0,1.89-2.21,1.06,1.06,0,0,1-.25,0,1,1,0,0,1-1.13-1.07,1.06,1.06,0,0,1,1.14-1.08c.83,0,1.28.68,1.28,1.73a3.56,3.56,0,0,1-2.6,3.4Z"/><path class="cls-1" d="M1091.08,609a4.93,4.93,0,0,0,1-2.73l.8.21a5.17,5.17,0,0,1-1,2.92Zm.24-4.29,2.81-.14v-1.17h-2.48v-.88h2.48v-1h-2.37v-5.22h5.88v5.22h-2.51v1h2.6v.88h-2.6v1.11c.92,0,1.88-.1,2.84-.16l0,.9c-2.39.18-4.83.33-6.56.42Zm1.31-4h1.62v-3.6h-1.62Zm.76-3a9,9,0,0,1,.51,2.26l-.6.17a9.22,9.22,0,0,0-.46-2.28Zm.68,8.58a10.41,10.41,0,0,1,.4,2.58l-.76.1a12.26,12.26,0,0,0-.36-2.61Zm1.41-.15a11.13,11.13,0,0,1,.78,2.4l-.77.16a9.58,9.58,0,0,0-.72-2.41Zm1.26-9H1095v3.6h1.73Zm-1.5,2.93a21,21,0,0,0,.64-2.39l.66.24c-.27.78-.55,1.74-.81,2.34Zm1.65,5.76a10.49,10.49,0,0,1,1.29,2.23l-.75.33a10.28,10.28,0,0,0-1.23-2.28Zm4.83-5.75v2.78h2.59v6.54h-1v-.65h-3.78v.71h-1v-6.6h2.16v-7h1.1v3.22h3.19v1Zm1.54,3.81h-3.78v3.86h3.78Z"/><path class="cls-1" d="M1111.89,604.54c-.17,3-.9,4.23-4.74,4.87a3.48,3.48,0,0,0-.57-.94c3.49-.5,4-1.41,4.17-3.93Zm8-7.53v1h-13.12v-1h6.46a7.19,7.19,0,0,0-.61-1.13l1.11-.24a10.41,10.41,0,0,1,.76,1.37Zm-12.93,5.8h12.72v2.7h-1v-1.8H1108v1.82h-1Zm10.88-4v3.06h-9v-3.06Zm-1.16.81H1110v1.44h6.7Zm1.52,8.58c.43,0,.51-.24.57-1.64a3.64,3.64,0,0,0,1,.44c-.12,1.72-.43,2.19-1.48,2.19h-2c-1.33,0-1.65-.33-1.65-1.44v-3.24h1.17v3.24c0,.39.11.45.63.45Z"/><path class="cls-1" d="M1128.22,605.69l.2,1c-2.15.93-4.47,1.91-6.2,2.58l-.51-1.09c1.08-.38,2.63-.95,4.25-1.58v-6h-3.8v-1.1h3.8V596h1.14v10.16Zm5,2c.67,0,.76-.72.85-3.58a3.18,3.18,0,0,0,1.07.54c-.12,3.07-.39,4.14-1.83,4.14h-2c-1.29,0-1.67-.44-1.67-2V596h1.13v3.48h4.18v1.09h-4.18v6.26c0,.75.1.88.67.88Z"/><path class="cls-1" d="M1150.45,597.26v1h-13.06v-1h6.13c-.13-.43-.31-.94-.46-1.36l1.08-.26c.21.51.43,1.14.6,1.62Zm-.48,11c0,.54-.13.77-.54.92a6.78,6.78,0,0,1-2,.13,3.15,3.15,0,0,0-.36-.82c.65,0,1.34,0,1.52,0s.25-.06.25-.24v-4.39H1139v5.56h-1.08v-6.51h12Zm-1.62-9.15v3h-8.7v-3Zm-1.35,8.72h-5.28v.73h-1V604.7H1147Zm.21-7.89h-6.46v1.35h6.46Zm-5.49,5.65v1.4H1146v-1.4Z"/><path class="cls-1" d="M1155.52,599.33a19,19,0,0,1-2.44,7.16,5.94,5.94,0,0,0-.93-.66,15.65,15.65,0,0,0,2.29-6.5h-1.75v-1.06h1.92q.18-1.26.3-2.58l1.09.09c-.09.85-.19,1.68-.31,2.49h3v1.06Zm2.27,4.61a35.06,35.06,0,0,1,1.21,4.57l-.91.32c0-.33-.12-.72-.2-1.11-3.13.6-3.61.7-3.88.87a5.14,5.14,0,0,0-.35-1c.27-.08.5-.54.8-1.2a28.39,28.39,0,0,0,1.72-5.4l1.07.28a34.26,34.26,0,0,1-2.16,6l2.58-.43c-.23-.89-.48-1.82-.74-2.61Zm8.16,4.68h-5.39v.75h-1v-8.94a14.68,14.68,0,0,1-1.07,1.56,4.66,4.66,0,0,0-.67-.84,15.73,15.73,0,0,0,2.67-5.39l1,.24a20.07,20.07,0,0,1-1,2.52h5.25v1h-2v2h2v1h-2v2h2v1h-2v2.07H1166Zm-5.39-9.11v2h2.13v-2Zm2.13,3h-2.13v2h2.13Zm-2.13,5.07h2.13v-2.07h-2.13Zm2.45-9.14a12.32,12.32,0,0,0-1-2.23l.94-.33a11.21,11.21,0,0,1,1.08,2.17Z"/><path class="cls-1" d="M1180.17,597.76a7.18,7.18,0,0,1-1.61,2.7,7.23,7.23,0,0,0,2.87,1.5,3.78,3.78,0,0,0-.65.84,8,8,0,0,1-2.89-1.7,9.76,9.76,0,0,1-2.57,1.46,3.74,3.74,0,0,0-.61-.74V602h-.89a1.08,1.08,0,0,1-.27.53.61.61,0,0,1-.24.19c.36-.16.71-.33,1-.51l.67.62a20.82,20.82,0,0,1-2.58,1l2.64-.07c.66-.3,1.32-.6,1.94-.93l.61.69a37.31,37.31,0,0,1-5.37,2.14l5.72-.33c-.33-.27-.69-.52-1-.75l.72-.43a27.78,27.78,0,0,1,3,2.32l-.77.51c-.27-.27-.67-.6-1.11-1l-3.69.24v2.07c0,.55-.12.81-.57,1a8.23,8.23,0,0,1-2.22.16,3,3,0,0,0-.39-.93,14.07,14.07,0,0,0,1.82,0c.22,0,.28-.06.28-.23v-2c-4.2.27-4.75.33-5.11.47,0-.2-.17-.65-.26-.9a10.45,10.45,0,0,0,2-.47c.42-.13,1.35-.43,2.46-.87a15.45,15.45,0,0,0-3.2.23,6.84,6.84,0,0,0-.25-.89,4.46,4.46,0,0,0,1.15-.24,15.1,15.1,0,0,0,2.27-.85,1.14,1.14,0,0,1-.33.06c-.24,0-.66,0-1.08,0a2,2,0,0,0-.18-.62l.94,0a.47.47,0,0,0,.39-.14.62.62,0,0,0,.08-.12h-4.29c.09-.49.18-1.15.27-1.84h-1.13v-.68h1.2c.06-.54.12-1.08.17-1.57a6.25,6.25,0,0,1-.74.72,5.43,5.43,0,0,0-.81-.54,6.15,6.15,0,0,0,2-2.45l.92.21a6.1,6.1,0,0,1-.29.57h4.58v.72h-5a6.74,6.74,0,0,1-.47.62h5l0,.37q0,.76-.09,1.35h.91v.68h-1c-.05.48-.11.85-.15,1.17h.72v.48a9,9,0,0,0,2.55-1.37,7.89,7.89,0,0,1-1.14-1.77,6.54,6.54,0,0,1-.77.87,5.43,5.43,0,0,0-.73-.7,6.48,6.48,0,0,0,1.87-3.15l1,.18a10,10,0,0,1-.36,1h4.13v.84Zm-7.7,9.45a15.69,15.69,0,0,1-3.76,1.93,6.91,6.91,0,0,0-.83-.75,13.14,13.14,0,0,0,3.62-1.59Zm-2.71-7.1c0,.44-.11.84-.15,1.22H1172c-.36-.26-.93-.63-1.38-.92l.29-.3Zm.18-1.71c0,.36-.08.75-.12,1.13h2.38a9.74,9.74,0,0,0-1.36-.84l.28-.29Zm3.18,2.93a10.55,10.55,0,0,0,.16-1.22h-2.13a14.53,14.53,0,0,1,1.31.83l-.33.39Zm.22-1.8c0-.33.06-.71.09-1.13h-2a13,13,0,0,1,1.21.69l-.34.44Zm4,7.2a21.1,21.1,0,0,1,3.71,1.68l-.84.64a19.59,19.59,0,0,0-3.66-1.74Zm-.63-8.93a6.6,6.6,0,0,0,1.25,2,5.51,5.51,0,0,0,1.23-2h-2.46Z"/><path class="cls-1" d="M1190.34,605.21v1.26h5.37v.95h-5.37v2h-1.1v-2h-5.34v-.95h5.34v-1.26h-6.09v-1h6.09v-4h-5.71v-.94h12.66v.94h-5.85v4h6.21v1Zm-3.65-7.44h-3.4v-1h3.4V595.7h1.08v1.08h1.77v1h-1.77v1.14h-1.08Zm0,2.9v1.06h1.82v1h-1.82v1.14h-1v-1.14h-2.15v-1h2.15v-1.06Zm5.1-2.9h-1.72v-1h1.72V595.7h1.08v1.08h3.47v1h-3.47v1.14h-1.08Zm1.17,6.08v-1.19h-1.86v-1H1193v-1h1v1h2.08v1H1194v1.19Z"/><path class="cls-1" d="M1200.69,605.18a11.68,11.68,0,0,1-1.55,3,6.69,6.69,0,0,0-.78-.54,8.26,8.26,0,0,0,1.41-2.7Zm1.84-1v5.21h-1.09v-5.21h-3v-1h3V601.6h-3.06v-1h4.14a22.11,22.11,0,0,0,.81-2.37l1,.21c-.27.72-.56,1.53-.84,2.16h1.9v1h-2.88v1.57h2.72v1Zm2.66-5.94h-6.57v-.93h2.94c-.2-.45-.45-1-.66-1.36l1.08-.29a12.85,12.85,0,0,1,.84,1.65h2.37Zm-5,2.4a10.06,10.06,0,0,0-.57-2.08l.89-.21a7.32,7.32,0,0,1,.61,2Zm3.81,4.25a14.79,14.79,0,0,1,1.26,2.35l-.79.45a16.11,16.11,0,0,0-1.23-2.4Zm8-3.08h-1.65v7.56h-1.08v-7.56h-2.06v.53c0,2.14-.19,5.08-1.56,7a3.64,3.64,0,0,0-.85-.67c1.26-1.8,1.38-4.37,1.38-6.36v-5.16a23.52,23.52,0,0,0,4.66-1.17l.9.82a23.72,23.72,0,0,1-4.53,1.08v2.85H1212Z"/><path class="cls-1" d="M1220.91,597.76c-.18.63-.39,1.3-.59,1.87h6v9.77h-1.13v-.8h-9.58v.8h-1.08v-9.77h4.63c.17-.57.32-1.26.44-1.87h-5.75v-1.07h13.19v1.07Zm-5.28,9.81h2.13v-6.9h-2.13Zm6.31-6.9h-3.16v1.65h3.16Zm0,2.56h-3.16v1.68h3.16Zm-3.16,4.34h3.16v-1.74h-3.16Zm6.43-6.9H1223v6.9h2.25Z"/><path class="cls-1" d="M1234.23,596.44a16.3,16.3,0,0,1-4.89,2.08,3.51,3.51,0,0,0-.57-.79,16.22,16.22,0,0,0,4.78-2Zm.79,2.47a11.27,11.27,0,0,1-2.31,1.82c2.13,2.64,2,7.08.87,8.08a1.82,1.82,0,0,1-1.45.59l-1.2,0a2.19,2.19,0,0,0-.24-1c.48,0,.94.06,1.2.06a1,1,0,0,0,.88-.32,4.24,4.24,0,0,0,.56-2.92,17.27,17.27,0,0,1-3.92,2.77,3.18,3.18,0,0,0-.61-.82,12.64,12.64,0,0,0,4.38-3.08,8.23,8.23,0,0,0-.32-1.15,17.41,17.41,0,0,1-3.28,2.17,4.19,4.19,0,0,0-.59-.81,13.07,13.07,0,0,0,3.53-2.16,5.62,5.62,0,0,0-.59-.93,19,19,0,0,1-2.41,1.14,7.11,7.11,0,0,0-.59-.75c.56-.22,1.11-.46,1.68-.75a9.82,9.82,0,0,0-1.14-1.83l.77-.36a9,9,0,0,1,1.17,1.77c.37-.22.75-.45,1.09-.67a7.67,7.67,0,0,0-.91-1.58l.73-.36a7,7,0,0,1,.9,1.43,8.64,8.64,0,0,0,1.08-1Zm6.32,9.3c.31,0,.36-.27.4-1.9a2.61,2.61,0,0,0,.9.4c-.07,1.92-.33,2.42-1.18,2.42h-1.17c-1,0-1.23-.32-1.23-1.35v-4.23h-1.29c-.17,2.85-.71,4.75-3,5.85a3.05,3.05,0,0,0-.68-.87c2.09-.9,2.52-2.51,2.66-5h-1.5v-6.08h2.47a12.83,12.83,0,0,0,.41-1.8l1.27.18c-.19.56-.39,1.14-.57,1.62h3.14v6.08h-1.85v4.24c0,.38.06.42.36.42Zm-5.06-8.16h4.56V598.4h-4.56Zm0,2.57h4.56v-1.68h-4.56Z"/><path class="cls-1" d="M1247.34,600.28a2.28,2.28,0,1,1-2.28,2.28A2.28,2.28,0,0,1,1247.34,600.28Zm0,3.79a1.52,1.52,0,0,0,0-3,1.52,1.52,0,1,0,0,3Z"/><line class="cls-2" x1="924" y1="501.5" x2="1049" y2="501.5"/></svg>