<svg id="圖層_3" data-name="圖層 3" xmlns="http://www.w3.org/2000/svg" viewBox="0 0 1440 1400"><defs><style>.cls-1{fill:#fff;}</style></defs><path class="cls-1" d="M340.66,1157.26l-.08.76h1.2v.46h-1.25l-.08.74H336l.11-.74H335V1158h1.21l.11-.76Zm.11,2.32v2.55h-1.49a14.19,14.19,0,0,1,2.33.59l-.18.45a16,16,0,0,0-2.42-.69l.17-.35h-1.65l.25.33a8.22,8.22,0,0,1-2.45.71l-.26-.44a10.31,10.31,0,0,0,2.36-.6H336v-2.55Zm.91-1.9h-.55v-.82h-5.51v.82h-.55v-1.29h3c-.07-.18-.15-.35-.23-.51l.58-.1c.08.19.16.39.23.61h3Zm-1.45,2.65v-.4h-3.7v.4Zm0,.71v-.39h-3.7v.39Zm0,.33h-3.7v.39h3.7Zm-2.22-2.5.07-.45h-1.43l-.08.45Zm.13-.79.07-.46h-1.43l-.08.46Zm.37.79H340l0-.45h-1.44Zm.13-.79h1.42l.06-.46h-1.4Z"/><path class="cls-1" d="M345.11,1161.93a6.09,6.09,0,0,1-2,1.12l-.32-.47a5.73,5.73,0,0,0,2-1Zm3.9-5.88v2.28h-2.47c.07.14.13.3.2.46h3.15v.48h-7v-.48h3.28a4,4,0,0,0-.26-.46h-2.13v-2.28Zm-.08,3.65v1.62h-2.18v1.13c0,.44-.21.67-.61.67h-1l-.12-.54c.31,0,.6,0,.88,0s.24-.1.24-.3v-1h-2.3v-1.62Zm-.48-2.73v-.47H344.3v.47Zm0,.42H344.3v.48h4.15Zm-.08,2.77h-3.93v.7h3.93Zm1.63,2.36-.2.53a11,11,0,0,0-2.26-1l.23-.45A9.34,9.34,0,0,1,350,1162.52Z"/><path class="cls-1" d="M353.42,1159.56c-.31.16-.61.31-.92.45v2.36a.63.63,0,0,1-.71.71h-.7l-.13-.56c.22,0,.43,0,.63,0s.33-.12.33-.35v-2c-.34.13-.69.26-1.05.37l-.13-.57c.4-.11.8-.23,1.18-.37v-1.84h-1.1v-.55h1.1v-1.45h.58v1.45h.88v.55h-.88v1.6l.92-.46Zm4.18,3.51H357v-.37h-2.58v.39h-.57V1157h1.2a8.27,8.27,0,0,0,.24-1.26l.59.08a9.77,9.77,0,0,1-.26,1.18h2Zm-.59-3.52v-2h-2.58v2Zm0,2.59v-2h-2.58v2Z"/><path class="cls-1" d="M359,1163.08l-.12-.55a3.82,3.82,0,0,0,.57,0c.17,0,.26-.11.26-.32v-2.14l-.84.3-.13-.56c.33-.08.65-.19,1-.3v-1.84h-.86v-.56h.86v-1.31h.55v1.31H361v.56h-.78v1.61c.26-.12.52-.25.76-.39v.56a7.69,7.69,0,0,1-.76.38v2.51c0,.46-.2.7-.62.7Zm2.17-3.15v-.46h2.29v.46h-.2v3.23h-.48v-.63c-.52.09-1.09.17-1.68.23l-.12-.43.47,0v-2.35Zm4.5-3.83v.44h-.56v1.92h.7v.44h-.7v.35h-.53v-.35H361.3v-.44H362v-1.92h-.53v-.44Zm-3.76,3.83v.48h.87v-.48Zm.87,1.32v-.46h-.87v.46Zm0,.85v-.48h-.87v.61Zm1.8-5.14v-.42H362.5v.42Zm0,.74v-.39H362.5v.39Zm0,.76v-.41H362.5v.41Zm-.92,1.47v-.46h2.28v.46h-.27v2.14H366v.46h-.34v.63h-.46v-.63h-1.69v-.46h.37v-2.14Zm.67,0v.48h.88v-.48Zm.88,1.29v-.45h-.88v.45Zm0,.85v-.47h-.88v.47Z"/></svg>