<?xml version="1.0" encoding="utf-8"?>
<!-- Generator: Adobe Illustrator 26.0.0, SVG Export Plug-In . SVG Version: 6.00 Build 0)  -->
<svg version="1.1" id="圖層_3" xmlns="http://www.w3.org/2000/svg" xmlns:xlink="http://www.w3.org/1999/xlink" x="0px" y="0px"
	 viewBox="0 0 1440 1400" style="enable-background:new 0 0 1440 1400;" xml:space="preserve">
<style type="text/css">
	.st0{fill:#666666;}
	.st1{fill:#333333;}
	.st2{fill:none;stroke:#006837;stroke-width:3;stroke-miterlimit:10;}
	.st3{fill:#006837;}
</style>
<path class="st0" d="M566.2,103.6v2.4h-18.4v17.2h18.4v2.3h-18.4v17.2h18.4v2.3h-20.7v-41.4H566.2z"/>
<path class="st0" d="M575.6,103.6l27.5,38.6v-38.6h2.3V145h-3.6L575,107.4V145h-2.3v-41.4H575.6z"/>
<path class="st0" d="M637.5,103.6h2.5L625,145h-1.4l-14.9-41.4h2.5l13.2,37.2L637.5,103.6z"/>
<path class="st0" d="M645.8,103.6V145h-2.3v-41.4H645.8z"/>
<path class="st0" d="M662.8,130.7H655V145h-2.3v-41.4h10.9c3.1,0.4,5.9,1.8,8,4c5.3,5.3,5.3,13.9-0.1,19.2c-1.7,1.7-3.9,2.9-6.2,3.5
	l9.6,14.6H672L662.8,130.7z M655,106v22.3h7c6.2,0.2,11.3-4.7,11.5-10.8s-4.7-11.3-10.8-11.5c-0.2,0-0.4,0-0.7,0H655z"/>
<path class="st0" d="M715.6,109.2c8.3,8.3,8.3,21.8,0,30.1s-21.8,8.3-30.1,0c-8.3-8.3-8.3-21.8,0-30.1c4-4,9.4-6.2,15.1-6.2
	C706.2,102.9,711.7,105.2,715.6,109.2z M700.6,105.4c-10.4,0-18.9,8.5-18.9,18.9c0,5,2,9.8,5.5,13.3c7.4,7.4,19.3,7.4,26.7,0
	s7.4-19.3,0-26.7C710.5,107.3,705.6,105.3,700.6,105.4L700.6,105.4z"/>
<path class="st0" d="M729.8,103.6l27.5,38.6v-38.6h2.3V145h-3.6l-26.9-37.7V145h-2.3v-41.4H729.8z"/>
<path class="st0" d="M802.4,103.6V145h-2.3v-38.9l-16,21l-16.1-21V145h-2.3v-41.4h3.3l15,19.6l15-19.6H802.4z"/>
<path class="st0" d="M829.1,103.6v2.4h-18.4v17.2h18.4v2.3h-18.4v17.2h18.4v2.3h-20.7v-41.4H829.1z"/>
<path class="st0" d="M838.5,103.6l27.5,38.6v-38.6h2.3V145h-3.6l-26.9-37.7V145h-2.3v-41.4H838.5z"/>
<path class="st0" d="M885.4,106v39H883v-39h-10.5v-2.3h23.3v2.3H885.4z"/>
<path class="st1" d="M616.9,180.9c-0.3,0.3-0.6,0.5-1,0.5v18.7c-0.6,0.6-1.4,0.9-2.2,0.9h-0.4v-1.5h-14.9v0.7c0,0.3-1,1-2.1,1h-0.5
	v-22.1l2.8,1.2H613l1.3-1.5L616.9,180.9z M613.2,198.8v-17.8h-14.9v17.8L613.2,198.8z M598.9,197.9c1.7-0.8,3.3-2.1,4.5-3.6l2.8,1.6
	c-0.2,0.2-0.6,0.3-1.2,0.2c-1.8,1-3.8,1.7-5.9,2L598.9,197.9z M602.8,194.6c0,0.2-1,0.8-2,0.8h-0.4V186l0.9,0.4v-4.8l2.4,1h4.1
	l1-1.1l2.3,1.7c-0.2,0.2-0.5,0.4-0.8,0.4v2.2c0,0.1-0.2,0.2-0.5,0.3l2.1,1.6c-0.2,0.2-0.5,0.4-0.8,0.4v6.5c-0.6,0.4-1.3,0.6-2,0.6
	h-0.4v-0.9h-6L602.8,194.6z M603.6,185.9c-0.5,0.4-1.1,0.7-1.8,0.7l1.1,0.4h5.7l0.8-0.9c-0.3,0.1-0.7,0.2-1,0.2H608v-0.8h-4.4
	L603.6,185.9z M608.8,187.7h-6v1.5h6V187.7z M602.8,191.4h6v-1.5h-6V191.4z M608.8,193.6V192h-6v1.6L608.8,193.6z M603.6,183.2v1.6
	h4.4v-1.6H603.6z M606.4,194.9c9.5,0.4,5.4,4.6,3.5,2.8c-0.9-1.2-2.2-2-3.6-2.4L606.4,194.9z"/>
<path class="st1" d="M622.3,185.9c1.8,4.4,1.1,7.4,0,9c-0.5,0.9-1.6,1.3-2.5,0.8c-0.1-0.1-0.3-0.1-0.4-0.2c-0.5-0.7-0.4-1.7,0.2-2.2
	c1.2-1.1,2.4-4.1,2.4-7.3L622.3,185.9z M628.7,183.3c0,0.3-0.2,0.6-0.8,0.6v12.4c0,0.6,0.3,0.8,1.4,0.8h2.9c1.1,0,2,0,2.4-0.1
	c0.3,0,0.6-0.2,0.8-0.4c0.6-1.2,1-2.5,1.3-3.8h0.3l0.1,3.9c0.9,0.3,1.1,0.7,1.1,1.2c0,1.3-1.2,1.9-6.2,1.9h-3.1
	c-2.9,0-3.8-0.5-3.8-2.8V183L628.7,183.3z M631.9,185.7c-0.6-2.4-1.8-4.7-3.4-6.6l0.2-0.1C637.2,181.8,634.9,187.9,631.9,185.7
	L631.9,185.7z M638.8,195.2c-0.2-2.3-0.8-6-2.7-8.6l0.2-0.2C645,191.6,641.1,198.2,638.8,195.2L638.8,195.2z"/>
<path class="st1" d="M662.9,197.1c0,0,1.9,1.5,3.1,2.5c-0.1,0.3-0.3,0.4-0.7,0.4h-21.7l-0.2-0.7h9.6v-7.2h-6.6l-0.2-0.7h6.8v-6.1
	h-4.2c-1.3,2.3-3.2,4.3-5.3,5.9l-0.3-0.2c2.2-3.5,3.7-7.4,4.5-11.4l4,1.2c-0.1,0.3-0.4,0.5-0.9,0.5c-0.4,1.2-1,2.3-1.6,3.4h3.9v-5.8
	l4,0.4c-0.1,0.4-0.2,0.6-0.9,0.7v4.7h3.8l1.7-2c0,0,1.8,1.4,3,2.3c-0.1,0.3-0.3,0.4-0.7,0.4h-7.8v6.1h3l1.7-2.1c0,0,1.9,1.4,3.1,2.4
	c-0.1,0.3-0.4,0.4-0.7,0.4h-7.1v7.2h5L662.9,197.1z"/>
<path class="st1" d="M668.1,184.3c6.5,0.3,4.6,5.2,2.1,3.6c-0.4-1.3-1.2-2.5-2.3-3.4L668.1,184.3z M675.6,183.7
	c-1,2.7-2.8,7.9-3.1,9.1c-0.2,0.7-0.4,1.5-0.4,2.3c0,1.2,1,2.1,1,4.1c0,1.1-0.9,2-2,2c0,0,0,0-0.1,0c-0.6,0-1.1-0.4-1.3-1.2
	c0.5-2.5,0.4-4.7-0.2-5c-0.4-0.2-0.8-0.4-1.3-0.4v-0.4h1.1c0.4,0,0.5,0,0.8-0.5c0.5-0.9,0.5-0.9,5.2-10L675.6,183.7z M669.9,179
	c6.7,0.3,5,5.3,2.3,3.8c-0.5-1.4-1.4-2.6-2.5-3.6L669.9,179z M688,184.5c0,0,1.7,1.4,2.7,2.4c-0.1,0.3-0.3,0.4-0.7,0.4h-6.2v4.6h2
	l1.3-1.4l2.7,2.1c-0.3,0.3-0.6,0.4-1,0.5v7.2c-0.7,0.5-1.5,0.8-2.3,0.8H686v-2h-7.3v1.2c0,0.3-1.2,0.9-2.4,0.9H676v-10.4l2.9,1.1h2
	v-4.6h-6l-0.2-0.7h6.3v-4.1c-1.9,0.2-4,0.3-5.8,0.4v-0.4c4.1-0.8,8-2.1,11.9-3.6l2.8,2.7c-0.5,0.3-1.1,0.3-1.6,0
	c-1.2,0.2-2.7,0.5-4.3,0.7v4.4h2.7L688,184.5z M678.8,192.5v5.8h7.3v-5.8H678.8z"/>
<path class="st1" d="M696.5,187.1v13c0,0.4-1,1-2.3,1h-0.5v-21.9l2.8,1.2h3.3l1.2-1.3l2.5,1.9c-0.2,0.2-0.5,0.4-0.9,0.5v6.3
	c-0.6,0.4-1.4,0.6-2.1,0.6h-0.4v-1.3H696.5z M696.5,181.2v2.3h3.6v-2.3H696.5z M700.1,186.4v-2.4h-3.6v2.4H700.1z M714.7,181.1
	c-0.3,0.3-0.6,0.4-1,0.5v16.2c0,1.9-0.4,3-3.4,3.3c0-0.7-0.1-1.4-0.5-2c-0.5-0.5-1.1-0.9-1.8-0.9v-0.1c-0.6,0.3-1.2,0.4-1.8,0.5
	h-0.5v-1.4h-4.2v0.9c0,0.2-1.1,0.8-2.2,0.8H699v-10l2.6,1.1h3.8l1.2-1.3l2.5,1.9c-0.2,0.2-0.5,0.4-0.9,0.4v6.9
	c0.6,0.1,1.8,0.1,2.1,0.1s0.5-0.2,0.5-0.5v-10.4h-3.7v0.5c0,0.2-1.2,0.8-2.3,0.8h-0.4v-9l2.7,1.1h3.4l1.3-1.5L714.7,181.1z
	 M701.5,190.6v2.6h4.2v-2.6H701.5z M705.7,196.6v-2.7h-4.2v2.7H705.7z M707.2,181.1v2.3h3.7v-2.3H707.2z M710.9,186.4v-2.4h-3.7v2.4
	H710.9z"/>
<path class="st1" d="M745,192.2c-0.3,0.3-0.7,0.5-1.1,0.6v7.3c-0.7,0.5-1.6,0.8-2.5,0.8H741v-1.9h-8v1.3c0,0.2-0.9,0.9-2.4,0.9h-0.6
	v-8c-2.1,0.9-4.3,1.6-6.6,2l-0.2-0.3c6.9-2.6,12.8-7.1,15.8-12.4h-6.3c-0.5,0.7-1.2,1.3-1.8,2c5.7,1.5,3.2,5.8,0.8,3.9
	c-0.2-1.2-0.7-2.3-1.4-3.3c-1.9,1.9-4.1,3.5-6.4,4.8l-0.2-0.2c3.5-3.1,6.2-6.9,8-11.2l3.9,1.1c-0.1,0.3-0.3,0.4-1,0.3
	c-0.4,0.6-0.8,1.3-1.3,1.9h5.7l1.8-1.6l2.7,2.6c-0.2,0.3-0.5,0.4-1.1,0.4c-2.3,3.5-5.4,6.4-9.1,8.4h7.2l1.4-1.5L745,192.2z
	 M741,198.4v-6.1h-8v6.1H741z"/>
<path class="st1" d="M760.5,179.4c0,0.4-0.3,0.6-0.9,0.7c0.5,9.2,2.8,14.8,11,17.9v0.3c-1.4,0.2-2.6,1.4-2.8,2.8
	c-6-3.2-7.8-8.9-8.5-16.5c-0.4,6.2-2.2,12.3-11.2,16.6l-0.3-0.3c8.8-6.4,8.5-14.2,8.6-21.8L760.5,179.4z"/>
<path class="st1" d="M792.5,185c0,0,1.7,1.4,2.7,2.4c0,0.3-0.3,0.4-0.7,0.4h-2.1v12.6c0,0.2-0.8,0.8-2.3,0.8h-0.5v-13.3h-2.3v0.9
	c0,4.3-0.4,9.3-5.8,12.4l-0.3-0.3c3-3.4,3.3-7.8,3.3-12.2V188c-0.1,0.1-0.3,0.2-0.5,0.2h-4.6v2.8h1.1l1.2-1.7c0,0,1.4,1.2,2.2,2
	c-0.1,0.3-0.3,0.4-0.6,0.4h-4v8.8c0,0.1-0.8,0.6-2.2,0.6h-0.5v-7h-0.1c-1,2-2.4,3.8-4.1,5.3l-0.2-0.3c1.1-2.1,1.8-4.4,2.1-6.8l2.3,1
	v-1.8H773l-0.2-0.7h4.1v-2.9h-4.3l-0.2-0.7h6.4c0.5-1.5,0.8-3,1.1-4.5h-5.1c4.9,2.2,2.4,5.8,0.6,4c-0.1-1.4-0.4-2.7-1-3.9h0.1h-1.6
	l-0.2-0.7h5c-0.2-0.1-0.4-0.2-0.6-0.3c-0.1-1.2-0.6-2.3-1.3-3.2l0.2-0.1c4.3,0.6,4.1,3.1,2.8,3.7h1.5l1.2-1.7c0,0,1.4,1.2,2.3,2
	c-0.1,0.3-0.4,0.4-0.6,0.4h-3l2.9,0.9c-0.1,0.3-0.4,0.5-0.9,0.4c-0.9,1.1-1.8,2.2-2.8,3.2h1.7l1.3-1.8c0,0,1.3,1.1,2.2,2v-7.1
	l2.8,0.9c1.5-0.8,3-1.8,4.3-2.9l3,2.4c-0.3,0.2-0.7,0.3-1.5,0.1c-1.9,0.6-3.9,1-5.9,1.2v4.9h3.5L792.5,185z M780,192.7
	c5.3,2.2,3,6.4,1,4.5c-0.1-1.6-0.5-3.1-1.3-4.4L780,192.7z"/>
<path class="st1" d="M816.8,184.4c0,0,1.7,1.2,2.7,2.1c-0.1,0.3-0.3,0.4-0.7,0.4h-21.7l-0.2-0.7h9.8v-1.8h-3.5v0.6
	c-0.6,0.5-1.4,0.8-2.2,0.8h-0.4v-6l2.8,1.1h3.3v-2.2l3.6,0.3c0,0.3-0.2,0.6-0.9,0.7v1.2h3.5l1.2-1.3l2.6,2c-0.3,0.3-0.6,0.4-1,0.5
	v2.7c-0.6,0.5-1.4,0.8-2.2,0.8h-0.5v-1h-3.7v1.8h5.8L816.8,184.4z M797.4,200.8c2.9-0.9,5.6-2.3,7.9-4.2l3,2.1
	c-0.2,0.2-0.7,0.3-1.4,0.1c-3,1.3-6.2,2-9.4,2.2L797.4,200.8z M812.7,197.4v-0.8h-8.9v0.4c0,0.3-1.2,0.9-2.4,0.9H801v-10.7l3,1.2
	h8.5l1.3-1.4l2.6,2c-0.2,0.2-0.5,0.4-0.9,0.5v7.3c-0.7,0.4-1.5,0.7-2.4,0.7L812.7,197.4z M806.7,183.7v-2.2h-3.5v2.2H806.7z
	 M803.8,189v1.8h8.9V189H803.8z M812.7,191.5h-8.9v1.9h8.9V191.5z M812.7,195.9V194h-8.9v1.9L812.7,195.9z M809.3,197.5
	c13.6,0.1,8.5,5,5.9,3.2c-1.8-1.3-3.8-2.3-6-2.9L809.3,197.5z M809.5,181.5v2.2h3.7v-2.2H809.5z"/>
<path class="st1" d="M843.6,181c-0.3,0.3-0.6,0.5-1,0.5v18.6c-0.7,0.6-1.5,0.9-2.4,0.9h-0.4v-1.8h-14.3v0.9c0,0.4-1.1,1-2.3,1h-0.5
	v-22l3,1.2h13.9l1.4-1.5L843.6,181z M825.4,181.1v11.6c1.4-1,2.6-2.3,3.5-3.8h-3.2l-0.2-0.7h3.8c0.3-0.6,0.6-1.3,0.9-1.9h-3.8
	l-0.2-0.7h4.2c0.5-1.4,0.8-2.8,1-4.3l3.3,0.6c-0.1,0.4-0.4,0.6-0.9,0.6c-0.3,1.1-0.6,2.1-1,3.1h2.7l1.2-1.3c0,0,1.3,0.9,2.2,1.6
	c-0.1,0.3-0.3,0.4-0.6,0.4h-5.7c-0.3,0.7-0.7,1.3-1.1,1.9h5.1l1.1-1.3c0,0,1.2,0.9,2.1,1.5v-7.4L825.4,181.1z M839.8,198.5v-9.9
	c-0.1,0.2-0.4,0.3-0.6,0.3h-3.2c4.7,1.4,3.8,4.6,2,3.8c-1-1.4-2.2-2.7-3.6-3.8h-3.4c-0.4,0.5-0.8,0.9-1.2,1.3l1.3,0.5h2.6l1-1l2,1.6
	c-0.2,0.2-0.5,0.3-0.8,0.3c0,1.9-0.2,2.6-0.9,3.1c-0.6,0.3-1.2,0.5-1.9,0.4c0.1-0.4,0-0.8-0.3-1.1c-0.3-0.3-0.6-0.4-1-0.5v-0.4h1.4
	c0.3,0,0.4,0,0.5-0.1s0.2-0.6,0.2-1.7h-3.1v3.9c0,0.3,0.1,0.4,0.8,0.4h2.1c0.8,0,1.6,0,1.8,0c0.2,0,0.4-0.1,0.5-0.2
	c0.3-0.6,0.6-1.3,0.8-2h0.3l0.1,2.1c0.7,0.2,0.8,0.5,0.8,0.9c0,0.9-0.9,1.2-4.6,1.2H831c-2.1,0-2.5-0.4-2.5-1.9v-4.5
	c-0.9,0.7-1.9,1.3-3,1.8l-0.2-0.2v5.7L839.8,198.5z M827.1,181.8c4.7,1.1,2.6,4.4,0.8,2.9c-0.1-1-0.5-2-1.1-2.8L827.1,181.8z
	 M834.2,184.9c0.5-1,0.8-2.1,1.2-3.2l2.6,1.1c-0.1,0.3-0.4,0.4-0.9,0.4c-0.8,0.7-1.7,1.3-2.6,1.9L834.2,184.9z"/>
<path class="st1" d="M486.8,235.8c-0.3,0.6-0.6,1.2-1,1.7v8.4h-1v-7.1c-0.4,0.5-0.9,1-1.4,1.4c-0.2-0.4-0.4-0.7-0.6-1
	c1.2-1.1,2.3-2.4,3.1-3.8L486.8,235.8z M486.5,232.7c-0.8,1.3-1.8,2.4-3,3.4c-0.2-0.3-0.4-0.6-0.6-0.8c1-0.8,1.9-1.9,2.5-3
	L486.5,232.7z M495.9,244.7c0,0.6-0.1,0.9-0.6,1.1c-0.8,0.2-1.6,0.2-2.4,0.2c-0.1-0.3-0.2-0.7-0.4-1c0.9,0,1.7,0,1.9,0
	s0.3-0.1,0.3-0.3v-6.8h-6.4v8.1h-1v-9.1h3.7v-4.6h1.1v4.6h3.7L495.9,244.7z M489.2,236.2c-0.5-1.1-1.1-2.1-1.8-3l0.9-0.4
	c0.7,0.9,1.4,1.9,1.9,2.9L489.2,236.2z M490.7,243.2v0.8h-0.9v-4.8h3.9v4L490.7,243.2z M490.7,240v2.3h2V240H490.7z M496.2,233.1
	c-0.7,1.1-1.4,2.1-2.2,3.1l-0.8-0.4c0.8-1,1.4-2,2-3.1L496.2,233.1z"/>
<path class="st1" d="M502.6,236c-0.4,0.6-0.8,1.3-1.2,1.9v8.1h-1.1v-6.8c-0.5,0.6-1,1.1-1.6,1.6c-0.2-0.4-0.4-0.7-0.6-1.1
	c1.4-1.1,2.6-2.4,3.5-4L502.6,236z M502.4,232.7c-1,1.4-2.1,2.6-3.5,3.6c-0.2-0.3-0.4-0.6-0.6-0.9c1.2-0.8,2.3-1.9,3.1-3.1
	L502.4,232.7z M511.8,242.4h-3.8v3.6h-1.1v-3.6h-4.2v-1h4.2v-2.1h-3.2v-1h3.2v-2h-3.6v-1h5.2c0.6-0.9,1-1.9,1.4-2.9l1.1,0.4
	c-0.4,0.8-0.9,1.8-1.3,2.5h1.9v1h-3.5v2h3.1v1h-3.1v2.1h3.8L511.8,242.4z M505.4,235.1c-0.3-0.9-0.8-1.7-1.3-2.4l1-0.4
	c0.5,0.7,1,1.5,1.3,2.3L505.4,235.1z"/>
<path class="st1" d="M518.5,241.2c-0.3-0.5-0.9-1.5-1.4-2.2v6.9H516v-6.6c-0.5,1.4-1.3,2.7-2.2,3.9c-0.1-0.4-0.3-0.7-0.5-1
	c1.1-1.4,2-3,2.6-4.7h-2.4v-1h2.5v-2.3c-0.7,0.1-1.4,0.2-2.1,0.3c-0.1-0.3-0.2-0.6-0.3-0.9c1.6-0.2,3.2-0.6,4.8-1.2l0.7,0.9
	c-0.7,0.2-1.3,0.4-2,0.6v2.5h2.2v1H517v0.3c0.5,0.5,1.8,2.2,2.1,2.6L518.5,241.2z M525.3,242v3.9h-1.1v-3.7l-4.9,0.8l-0.2-1.1
	l5.1-0.8v-8.9h1.1v8.7l1.8-0.3l0.2,1L525.3,242z M522.4,240c-0.8-0.8-1.7-1.6-2.6-2.2l0.7-0.7c1,0.6,1.9,1.3,2.7,2.1L522.4,240z
	 M522.7,236c-0.7-0.8-1.5-1.5-2.4-2.1l0.7-0.6c0.9,0.5,1.7,1.2,2.4,2L522.7,236z"/>
<path class="st1" d="M533.7,239.8l-1.8,0.5v4.2c0,0.6-0.2,0.9-0.6,1.1c-0.6,0.2-1.3,0.3-2,0.2c-0.1-0.3-0.2-0.7-0.4-1h1.5
	c0.2,0,0.3-0.1,0.3-0.3v-3.9l-1.8,0.5l-0.3-1.1c0.6-0.1,1.3-0.3,2.1-0.5v-3.3h-1.9v-1.1h1.9v-3h1.1v3h1.7v1.1h-1.7v3l1.7-0.5
	L533.7,239.8z M541.7,238.2c-0.6,1.9-1.6,3.6-3,4.9c1.1,0.9,2.5,1.6,3.9,1.9c-0.3,0.3-0.5,0.6-0.7,1c-1.5-0.4-2.8-1.2-4-2.2
	c-1.3,1-2.7,1.7-4.3,2.1c-0.2-0.4-0.4-0.7-0.6-1c1.5-0.4,2.8-1,4.1-1.9c-1.1-1.2-1.9-2.6-2.5-4.1h0h-0.5v-1h3.2v-2.2h-3.5v-1h3.5
	v-2.4h1.1v2.4h3.6v1h-3.6v2.2h2.4h0.2L541.7,238.2z M535.7,238.9c0.5,1.3,1.2,2.5,2.2,3.4c1.1-0.9,1.9-2.1,2.4-3.4H535.7z"/>
<path class="st1" d="M557.6,233.5v1h-11.5v3.6c0,2.3-0.2,5.6-1.3,7.9c-0.2-0.3-0.5-0.5-0.8-0.6c1-2.1,1.1-5.1,1.1-7.2v-4.6h5.9
	c-0.1-0.4-0.3-0.8-0.4-1.1l1-0.2c0.2,0.4,0.4,0.9,0.6,1.3L557.6,233.5z M550.6,241.6c0.7,1,1.3,2.1,1.8,3.2l-0.9,0.4
	c-0.1-0.4-0.3-0.7-0.5-1.1c-1.4,0.4-2.7,0.8-4,1.4c-0.1-0.3-0.3-0.6-0.5-0.8c0.4-0.3,0.6-0.7,0.6-1.2v-7.4h2.1
	c-0.1-0.4-0.3-0.8-0.4-1.1l1-0.2c0.2,0.4,0.4,0.9,0.5,1.3h1.6v5h-3.8v2.9l2.5-0.7c-0.3-0.5-0.5-1-0.8-1.4L550.6,241.6z M548.2,237
	v1.2h2.8V237H548.2z M551,240.3V239h-2.8v1.3L551,240.3z M557.5,235.9c-0.5,1.1-1.1,2.4-1.6,3.5c0.9,0.7,1.5,1.8,1.5,3
	c0.1,0.6-0.1,1.2-0.6,1.6c-0.2,0.2-0.5,0.3-0.8,0.3c-0.4,0-0.7,0-1.1,0c0-0.3-0.1-0.6-0.3-0.9c0.3,0,0.7,0,1,0c0.2,0,0.4,0,0.5-0.1
	c0.3-0.3,0.4-0.6,0.3-1c-0.1-1.1-0.6-2.1-1.5-2.8c0.5-1,1-2.1,1.3-3h-2.1v9.5h-1v-10.4h3.5l0.2-0.1L557.5,235.9z"/>
<path class="st1" d="M563,235c-0.1,1.1-0.7,2.2-2.6,3c-0.2-0.3-0.4-0.5-0.6-0.8c1.6-0.5,2.1-1.4,2.2-2.2h-2.3v-0.9h2.4v-1.6h1v1.6
	h1.2v-1.6h1v1.6h1.9v-1.6h1v1.6h1.3v-1.6h1v1.6h2.3v0.9h-2.3v1.1c0,0.4,0,0.5,0.3,0.5h1.3c0.3,0,0.5,0,0.8-0.1c0,0.2,0,0.6,0.1,0.9
	c-0.3,0-0.5,0.1-0.8,0.1h-1.3c-1,0-1.2-0.4-1.2-1.4V235h-1.3v2.4h-3.9V235H563z M559.9,238.1h12.7v2.9h-1.1v-1.9H561v1.9h-1
	L559.9,238.1z M571.1,243.9c0,0.6-0.1,0.9-0.6,1c-0.8,0.2-1.5,0.2-2.3,0.2c-0.1-0.3-0.2-0.7-0.4-1h1.8c0.2,0,0.3-0.1,0.3-0.2v-2.4
	h-3.3v4.4h-1.1v-4.4h-3.1v3.6h-1.1v-4.5h4.2v-1.2h1.1v1.2h4.4V243.9z M565.3,235v1.5h1.9V235H565.3z"/>
<path class="st1" d="M576.2,241.2c1-0.3,1.8-1.2,1.9-2.2h-0.3c-0.5,0.1-1-0.3-1.1-0.9c0,0,0-0.1,0-0.1c0-0.6,0.4-1,0.9-1.1
	c0.1,0,0.2,0,0.2,0c0.8,0,1.3,0.7,1.3,1.7c0,1.6-1.1,3-2.6,3.4L576.2,241.2z"/>
<path class="st1" d="M587,237.5c-0.1,1.8-0.5,3.6-1.2,5.3c1.9,1.5,4.5,1.7,7.1,1.8c0.6,0,2.7,0,3.4,0c-0.2,0.3-0.4,0.7-0.4,1.1h-3
	c-2.9,0-5.6-0.3-7.6-1.9c-0.6,0.9-1.4,1.7-2.3,2.3c-0.2-0.3-0.4-0.7-0.6-0.9c0.9-0.5,1.6-1.2,2.1-2.1c-0.8-0.9-1.4-1.9-1.8-3
	l0.8-0.4c0.3,0.9,0.8,1.7,1.4,2.4c0.5-1.2,0.8-2.4,0.9-3.7H583c0.7-1.1,1.7-2.8,2.4-4.3h-2.8v-1h4.4c-0.7,1.4-1.6,3.1-2.4,4.4h1.5
	h0.2L587,237.5z M595.9,243.2h-8.4v-1h1v-6.4h1.1v6.4h1.9v-7.9c-1.1,0.1-2.3,0.3-3.3,0.3c-0.1-0.3-0.2-0.6-0.3-0.9
	c2.4-0.1,4.8-0.5,7.1-1.1l0.7,0.9c-1,0.3-2.1,0.5-3.1,0.7v3.2h3v1h-3v3.9h3.3L595.9,243.2z"/>
<path class="st1" d="M599.3,242c-0.2,1.3-0.4,2.6-0.8,3.9c-0.2-0.1-0.6-0.2-0.9-0.3c0.4-1.2,0.6-2.4,0.8-3.7L599.3,242z
	 M601.9,241.4c0-0.2-0.1-0.6-0.2-0.9c-2.9,0.4-3.4,0.5-3.6,0.7c-0.1-0.3-0.2-0.7-0.3-1c0.3-0.1,0.6-0.4,1-1c0.4-0.5,0.8-1.1,1.2-1.7
	c-0.7,0-1.4,0.1-2,0.3c-0.1-0.2-0.2-0.7-0.3-0.9c0.2-0.1,0.5-0.4,0.8-0.8c0.7-1.2,1.3-2.5,1.8-3.8l1,0.4c-0.6,1.4-1.3,2.7-2.1,4
	l1.5-0.1c0.4-0.6,0.7-1.4,1.1-2l0.9,0.5c-0.9,1.7-1.9,3.4-3.1,4.9l2.2-0.3c-0.1-0.5-0.3-1-0.4-1.5l0.8-0.2c0.4,1,0.7,2.1,0.8,3.2
	L601.9,241.4z M600.6,241.8c0.2,1.1,0.3,2.3,0.4,3.4l-0.9,0.1c0-1.2-0.2-2.3-0.4-3.5L600.6,241.8z M601.9,241.4
	c0.3,0.9,0.6,1.8,0.8,2.8l-0.8,0.3c-0.2-0.9-0.5-1.9-0.8-2.8L601.9,241.4z M608.3,243.8c1.1,0.4,2.3,0.9,3,1.3l-0.5,0.8
	c-0.8-0.4-2-1-3.2-1.4l0.4-0.7h-2.6l0.8,0.7c-1.1,0.5-2.6,1.1-3.6,1.5c-0.1-0.3-0.3-0.5-0.5-0.8c1.1-0.4,2.2-0.9,3.2-1.4h-2.3v-4.4
	h7.4v4.4H608.3z M606.4,233.8h-3.8v-0.8h3.8v-0.8h1.1v0.8h3.7v0.8h-3.7v0.8h3.1v0.8h-7.3v-0.8h3.2V233.8z M602.7,236h8.3v2.8h-8.3
	V236z M603.7,238h1.7v-1.2h-1.7V238z M604.2,240.7h5.3v-0.6h-5.3V240.7z M604.2,241.9h5.3v-0.6h-5.3V241.9z M604.2,243.1h5.3v-0.7
	h-5.3V243.1z M607.8,238v-1.2h-1.6v1.2H607.8z M610.1,236.8h-1.4v1.2h1.4V236.8z"/>
<path class="st1" d="M622.2,234c1.5,1.3,2.9,2.7,4,4.4l-0.9,0.7c-0.3-0.5-0.6-0.9-0.9-1.3c-8.6,0.5-9.4,0.5-10,0.7
	c-0.1-0.4-0.2-0.7-0.4-1.1c0.5-0.2,0.9-0.5,1.2-0.9c1.3-1.3,2.5-2.7,3.5-4.2l1.1,0.5c-1.1,1.6-2.4,3.1-3.8,4.4l7.6-0.4
	c-0.7-0.8-1.4-1.5-2.2-2.2L622.2,234z M615.1,239.7h9.5v6.2h-1.2v-0.8h-7.2v0.8h-1.1V239.7z M616.3,240.8v3.3h7.2v-3.3H616.3z"/>
<path class="st1" d="M633.2,241.3c-0.4-0.6-0.8-1.2-1.3-1.8v6.4h-1.1v-6.6c-0.5,1.4-1.2,2.7-2.1,3.9c-0.2-0.4-0.3-0.7-0.6-1
	c1.1-1.4,2-3,2.6-4.8h-2.2v-1h2.3v-2.3c-0.7,0.1-1.4,0.2-2,0.3c-0.1-0.3-0.2-0.6-0.3-0.9c1.6-0.2,3.1-0.6,4.6-1.1l0.8,0.8
	c-0.6,0.2-1.2,0.4-1.9,0.6v2.5h1.6v-0.2h3.7v-0.8h-2.9v-0.7h2.8v-0.8H634v-0.8h3.2v-0.8h1.1v0.8h3.4v0.8h-3.4v0.8h3v0.7h-3v0.8h3.7
	v0.8h-8.5v0.5h-1.7v0.9c0.5,0.4,1.7,1.7,2,2L633.2,241.3z M637.1,244.2c-1.1,0.8-2.3,1.4-3.6,1.8c-0.2-0.3-0.5-0.5-0.7-0.7
	c1.2-0.3,2.3-0.9,3.3-1.6L637.1,244.2z M634.5,243.6v-5.9h6.7v5.9H634.5z M635.5,239.4h4.6v-0.9h-4.6V239.4z M635.5,241.1h4.6v-1
	h-4.6V241.1z M635.5,242.8h4.6v-1h-4.6V242.8z M639.3,243.7c1,0.6,2.2,1.3,2.9,1.7l-1,0.5c-0.6-0.4-1.7-1.1-2.6-1.7L639.3,243.7z"/>
<path class="st1" d="M649.3,241.7c0,0.1,0,0.3,0,0.4c-0.2,2.1-0.4,3-0.7,3.3c-0.3,0.3-0.6,0.4-1,0.4c-0.4,0-1.2,0-2,0
	c0-0.4-0.1-0.7-0.3-1c0.8,0.1,1.6,0.1,1.9,0.1s0.4,0,0.5-0.1s0.4-0.8,0.5-2.2h-3.4c0.2-0.9,0.4-2.2,0.5-3.3h3v-1.6h-2.5v-0.2
	c-0.5,0.3-1.1,0.5-1.7,0.7c-0.2-0.3-0.4-0.6-0.6-0.8c1.1-0.3,2.1-0.8,3-1.4c-0.5-0.5-1.1-0.9-1.7-1.3l0.6-0.6
	c0.6,0.4,1.2,0.8,1.8,1.3c0.6-0.5,1-1,1.4-1.6h-3.5v-0.9h4.1h0.2l0.7,0.4c-0.7,1.5-1.8,2.7-3.1,3.6h2.3v3.3h-3.2
	c-0.1,0.5-0.2,1.1-0.2,1.6L649.3,241.7z M655.9,241.3c-0.4,1.1-1.1,2-1.9,2.7c0.8,0.5,1.5,0.9,2,1.3l-0.6,0.7
	c-0.5-0.4-1.3-0.9-2.2-1.5c-1.1,0.7-2.2,1.2-3.4,1.5c-0.1-0.3-0.3-0.6-0.5-0.8c1.1-0.2,2.1-0.6,3.1-1.2c-0.8-0.5-1.6-1-2.4-1.4
	l0.5-0.6c0.8,0.4,1.7,1,2.6,1.5c0.6-0.4,1.1-1,1.5-1.6H650v-0.8h5.1h0.2L655.9,241.3z M657,234.4c-0.7,0.6-1.4,1.2-2.1,1.6
	c0.8,0.5,1.7,0.8,2.6,1.1c-0.3,0.3-0.5,0.5-0.7,0.9c-0.7-0.2-1.5-0.5-2.1-0.9v2c0,0.4,0,0.4,0.2,0.4h1.1c0.2,0,0.5,0,0.7,0
	c0,0.3,0,0.5,0.1,0.8c-0.2,0.1-0.5,0.1-0.8,0.1h-1.2c-0.9,0-1.1-0.4-1.1-1.2v-1.5h-2v0.3c0,1.2-0.6,2.3-1.6,2.8
	c-0.2-0.3-0.4-0.5-0.7-0.7c0.9-0.4,1.4-1.2,1.4-2.2v-1.2h3.3c-1.6-1-2.8-2.5-3.6-4.2l0.9-0.3c0.3,0.7,0.7,1.3,1.2,1.8
	c0.7-0.5,1.3-1.1,1.9-1.7l0.8,0.6c-0.7,0.6-1.4,1.2-2.2,1.7c0.3,0.3,0.7,0.6,1.1,0.9c0.7-0.5,1.4-1.1,2-1.7L657,234.4z"/>
<path class="st1" d="M661.6,236.5v0.9c0,2.6-0.2,6.2-1.8,8.6c-0.3-0.2-0.6-0.4-1-0.6c1.5-2.4,1.6-5.7,1.6-8.1V233h11.2v3.5
	L661.6,236.5z M661.6,234v1.5h8.9V234L661.6,234z M671.7,242.1c-0.8,0.6-1.6,1.1-2.4,1.5c1,0.7,2.1,1.2,3.3,1.4
	c-0.3,0.3-0.5,0.6-0.7,0.9c-2.5-0.5-4.6-2.2-5.6-4.5h-2.1v3.1l3.2-0.7c0,0.3,0,0.6,0,0.9c-3.8,0.9-4.2,1-4.5,1.2
	c-0.1-0.4-0.2-0.7-0.4-1c0.4-0.2,0.7-0.7,0.7-1.1v-2.4h-1.6v-1h2.6v-1.6h-2.2v-1h2.2v-1.4h1v1.5h3v-1.4h1v1.4h2.5v1h-2.5v1.6h3.1v1
	h-5.1c0.3,0.6,0.7,1.1,1.2,1.6c0.8-0.5,1.5-1,2.2-1.5L671.7,242.1z M665.4,240.5h3v-1.6h-3V240.5z"/>
<path class="st1" d="M680.5,244.8c0,0.6-0.1,0.8-0.5,1c-0.7,0.2-1.3,0.2-2,0.2c-0.1-0.3-0.2-0.6-0.4-0.9c0.7,0,1.3,0,1.5,0
	s0.3-0.1,0.3-0.2v-2.3l-2.9,1.6l-0.4-0.9c-0.1,1-0.5,2-1.1,2.8c-0.2-0.3-0.5-0.6-0.8-0.8c0.7-1.2,1.1-2.6,0.9-4v-3.7h5.2
	L680.5,244.8z M679.5,233.4c0.8,1,1.4,2.1,2,3.3l-1,0.4c-0.1-0.3-0.3-0.7-0.5-1c-4.1,0.3-4.6,0.4-4.9,0.6c-0.1-0.3-0.2-0.7-0.4-1
	c0.3-0.1,0.6-0.3,0.8-0.6c0.7-0.8,1.4-1.8,1.9-2.8l1.1,0.4c-0.6,1-1.3,1.9-2.1,2.8l3.1-0.2c-0.3-0.5-0.6-1-0.9-1.5L679.5,233.4z
	 M676.3,241.2c0,0.6,0,1.3-0.1,1.9c0.8-0.4,2-1,3.2-1.6v-3h-3.1V241.2z M677,239.4c0.8,0.5,1.6,1,2.4,1.6l-0.6,0.6
	c-0.8-0.6-1.6-1.1-2.4-1.6L677,239.4z M683.5,238.7c-1.3,0-1.7-0.5-1.7-1.7v-4.7h1.2v2.1h4v1h-4v1.6c0,0.5,0.1,0.7,0.6,0.7h2.8
	c0.4,0,0.8,0,1.2-0.1c0,0.3,0.1,0.7,0.1,1c-0.4,0.1-0.9,0.1-1.3,0.1L683.5,238.7z M686.2,244.8c0.6,0,0.7-0.3,0.8-1.9
	c0.3,0.2,0.6,0.3,1,0.4c-0.1,2-0.5,2.5-1.7,2.5h-2.7c-1.5,0-1.8-0.4-1.8-1.6v-5h1.2v1.7h4.2v1H683v2.2c0,0.5,0.1,0.6,0.8,0.6
	L686.2,244.8z"/>
<path class="st1" d="M703.2,244.7v0.9h-13.5v-0.9h6.2v-0.9h-5v-0.8h5v-0.8h-4.5v-3.7h10.3v3.7h-4.7v0.8h5v0.8h-5v0.9H703.2z
	 M703.1,237.8h-13.3V237h13.3V237.8z M701.2,236.4h-9.6v-3.6h9.6L701.2,236.4z M692.4,240h3.5v-0.8h-3.5V240z M695.8,241.6v-0.9
	h-3.5v0.9H695.8z M700.1,233.4h-7.4v0.8h7.4V233.4z M700.1,234.9h-7.4v0.8h7.4V234.9z M700.5,239.2h-3.6v0.8h3.6V239.2z
	 M700.5,240.7h-3.6v0.9h3.6V240.7z"/>
<path class="st1" d="M706.4,241.2c1-0.3,1.8-1.2,1.9-2.2H708c-0.5,0.1-1-0.3-1.1-0.9c0,0,0-0.1,0-0.1c0-0.6,0.4-1,0.9-1.1
	c0.1,0,0.2,0,0.2,0c0.8,0,1.3,0.7,1.3,1.7c0,1.6-1.1,3-2.6,3.4L706.4,241.2z"/>
<path class="st1" d="M719,241.7c-2.1,0.9-4.3,1.9-6,2.7l-0.4-1.2c0.6-0.2,1.3-0.5,2.1-0.8l-0.2-9.3h1.1l0.2,8.9l3-1.3L719,241.7z
	 M725.6,245.9c-1-1.4-2.1-2.7-3.4-4c-1.3,1.8-3,3.3-5.1,4.1c-0.3-0.4-0.6-0.7-0.9-1c5.1-1.9,6.7-5.5,7.4-12l1.2,0.1
	c-0.2,2.7-0.9,5.3-2,7.8c1.3,1.3,2.6,2.7,3.7,4.1L725.6,245.9z M719.8,238.3c-0.6-1.3-1.4-2.6-2.3-3.7l1-0.5c1,1.1,1.8,2.3,2.4,3.6
	L719.8,238.3z"/>
<path class="st1" d="M740,238.3c-0.7,0.6-1.5,1.1-2.3,1.7c0.6,2,2.1,3.6,4,4.4c-0.3,0.3-0.5,0.6-0.7,0.9c-2-1-3.4-2.7-4.1-4.8
	c-0.2,0.2-0.5,0.3-0.7,0.4c0.5,1.9,0.1,3.8-0.7,4.4c-0.4,0.4-1,0.6-1.5,0.5h-1.3c0-0.4-0.1-0.7-0.3-1c0.5,0,1,0.1,1.3,0.1
	c0.4,0,0.7-0.1,1-0.3c0.6-0.7,0.8-1.7,0.6-2.6c-2,1.4-4.1,2.5-6.4,3.2c-0.2-0.3-0.4-0.7-0.6-0.9c2.5-0.6,4.8-1.7,6.8-3.3
	c-0.1-0.3-0.2-0.7-0.4-1c-1.7,1.1-3.6,2-5.6,2.6c-0.2-0.3-0.3-0.6-0.6-0.9c2-0.5,3.9-1.3,5.7-2.5c-0.2-0.3-0.4-0.6-0.7-0.9
	c-1.4,0.7-2.8,1.3-4.3,1.8c-0.2-0.3-0.4-0.6-0.6-0.9c1.9-0.5,3.7-1.3,5.3-2.3h-3.4v-1h8.6v1h-3.7c-0.3,0.3-0.7,0.6-1.1,0.8
	c0.7,0.6,1.2,1.4,1.5,2.3c1.2-0.7,2.2-1.6,3.3-2.5L740,238.3z M729.7,236.7h-1.1v-3.1h5.6c-0.2-0.4-0.4-0.7-0.6-1.1l1.1-0.3
	c0.3,0.5,0.5,0.9,0.7,1.4h5.5v3.1h-1v-2h-10.3L729.7,236.7z"/>
<path class="st1" d="M756.5,240.8c-0.3,3.1-0.5,4.3-1,4.8c-0.3,0.3-0.6,0.4-1,0.4c-0.6,0-1.2,0-1.8,0c0-0.4-0.1-0.7-0.3-1
	c0.7,0.1,1.4,0.1,1.7,0.1c0.2,0,0.4,0,0.5-0.1c0.3-0.3,0.5-1.2,0.8-3.6h-9c-0.8,0.7-1.7,1.3-2.6,1.8c-0.2-0.3-0.4-0.6-0.6-0.9
	c2.7-1.4,4.9-3.6,6.3-6.2h-5.3v-1h3c-0.3-0.8-0.7-1.5-1.2-2.2l1-0.4c0.5,0.7,0.9,1.4,1.2,2.2l-0.8,0.4h2.6c0.4-0.9,0.8-1.7,1.1-2.6
	l1.1,0.3c-0.3,0.8-0.6,1.6-1,2.3h3.1c-0.2,0.9-0.3,1.9-0.5,2.7h1.7c-0.2,0.9-0.3,1.9-0.5,2.7h1.5L756.5,240.8z M743.9,245.2
	c0.9-0.8,1.5-1.9,1.7-3.1l1,0.3c-0.2,1.3-0.9,2.5-1.8,3.4L743.9,245.2z M749,238.6c-0.5,0.6-1,1.2-1.5,1.7h6.5
	c0.1-0.5,0.2-1.1,0.3-1.7H749z M748.5,242.5c0.3,0.9,0.4,1.8,0.4,2.7l-1,0.1c0-0.9-0.1-1.9-0.4-2.8L748.5,242.5z M750.7,235.9
	c-0.3,0.6-0.7,1.1-1,1.7h3.1c0.1-0.6,0.3-1.1,0.4-1.7H750.7z M750.7,242.2c0.4,0.8,0.7,1.6,0.8,2.4l-0.9,0.2
	c-0.2-0.8-0.4-1.7-0.8-2.4L750.7,242.2z M753.2,244.2c-0.3-0.7-0.7-1.4-1.1-2l0.8-0.3c0.5,0.6,0.9,1.3,1.1,2L753.2,244.2z"/>
<path class="st1" d="M762.3,242.4h2.7v1h-2.7v2.6h-1v-2.6h-2.8v-1h2.8v-1.2h-2.2V236h2.2v-1.1h-2.6v-1h2.6v-1.6h1v1.6h2.5v1h-2.5
	v1.1h2.3v5.2h-2.3V242.4z M760,238.2h1.4v-1.3H760V238.2z M760,240.3h1.4V239H760V240.3z M763.8,236.8h-1.5v1.3h1.5V236.8z
	 M763.8,239h-1.5v1.4h1.5V239z M771.9,235.4v10.4h-1v-0.7h-4.5v0.9h-1v-10.6h2.6v-3.2h1v3.2L771.9,235.4z M766.3,236.4v3.2h1.7v-3.2
	H766.3z M766.3,244.1h1.7v-3.5h-1.7L766.3,244.1z M770.8,236.4H769v3.2h1.8L770.8,236.4z M770.8,244.1v-3.5H769v3.5H770.8z"/>
<path class="st1" d="M776.3,237.8c-0.2,2-0.7,4-1.3,5.9l-1.1-0.5c0.7-1.8,1.1-3.7,1.3-5.6L776.3,237.8z M778.8,236.4v7.4
	c0,0.7,0.2,0.8,1,0.8h2.9c0.9,0,1.1-0.5,1.2-3.1c0.3,0.2,0.6,0.4,1,0.5c-0.2,2.8-0.5,3.7-2.2,3.7h-3c-1.6,0-2.1-0.4-2.1-1.9v-7.4
	H778.8z M779.1,232.8c1.4,1,2.8,2.1,4,3.3l-0.8,0.8c-1.2-1.3-2.6-2.4-4-3.4L779.1,232.8z M785.6,237.1c0.9,1.8,1.5,3.7,2,5.6
	l-1.1,0.4c-0.4-1.9-1.1-3.8-2-5.6L785.6,237.1z"/>
<path class="st1" d="M802.7,239.1v0.8h-13.4v-0.8h6v-0.8h-4.9v-0.7h4.9v-0.8h-4.5v-0.7h4.5v-0.8h-6v-0.7h6v-0.8h-4.5v-0.7h4.5v-0.9
	h1.1v0.9h4.6v1.5h1.6v0.7H801v1.5h-4.5v0.8h5.1v0.7h-5.1v0.8H802.7z M789.3,244.7h13.4v0.8h-13.4V244.7z M801.1,240.6v3.4H791v-3.5
	L801.1,240.6z M792.1,242h3.3v-0.8h-3.3L792.1,242z M792.1,243.4h3.3v-0.8h-3.3L792.1,243.4z M799.9,241.2h-3.5v0.8h3.5V241.2z
	 M799.9,242.6h-3.5v0.8h3.5V242.6z M796.5,234.6h3.4v-0.8h-3.4V234.6z M796.5,236.2h3.4v-0.8h-3.4V236.2z"/>
<path class="st1" d="M817.5,233v13h-1.1v-0.7h-10.3v0.7h-1.1v-13H817.5z M816.4,244.4V234h-10.3v10.3L816.4,244.4z M812.6,242.1
	c1,0.3,2,0.8,2.9,1.4l-0.9,0.4c-0.9-0.5-1.8-1-2.8-1.3L812.6,242.1l-2.9,0l0.8,0.2c-0.9,0.6-1.9,1.1-2.9,1.5
	c-0.2-0.2-0.4-0.4-0.7-0.6c0.9-0.3,1.9-0.6,2.7-1.1h-2v-4.6h7.2v4.6L812.6,242.1z M814.2,237h-5.9v-2.1h5.9V237z M808.7,238.8h5.2
	v-0.7h-5.2V238.8z M808.7,240.2h5.2v-0.7h-5.2V240.2z M808.7,241.5h5.2v-0.7h-5.2V241.5z M813.3,235.5h-4v0.9h4V235.5z"/>
<path class="st1" d="M821.3,241.2c1-0.3,1.8-1.2,1.9-2.2h-0.3c-0.5,0.1-1-0.3-1.1-0.9c0,0,0-0.1,0-0.1c0-0.6,0.4-1,0.9-1.1
	c0.1,0,0.2,0,0.2,0c0.8,0,1.3,0.7,1.3,1.7c0,1.6-1.1,3-2.6,3.4L821.3,241.2z"/>
<path class="st1" d="M833.9,241.7c-2.1,0.9-4.3,1.9-6,2.7l-0.4-1.2c0.6-0.2,1.3-0.5,2.1-0.8l-0.3-9.3h1.1l0.2,8.9l3-1.3L833.9,241.7
	z M840.5,245.9c-1-1.4-2.1-2.7-3.4-4c-1.2,1.9-3,3.3-5.1,4.1c-0.3-0.4-0.6-0.7-0.9-1c5.1-1.9,6.7-5.5,7.4-12l1.2,0.1
	c-0.2,2.7-0.9,5.3-2,7.8c1.3,1.3,2.6,2.7,3.7,4.1L840.5,245.9z M834.7,238.3c-0.6-1.3-1.4-2.6-2.3-3.7l1-0.5c1,1.1,1.8,2.3,2.4,3.6
	L834.7,238.3z"/>
<path class="st1" d="M849.2,238.9v7h-1v-1.5c-1.8,0.2-3.7,0.4-5.1,0.6l-0.1-1l1.4-0.1v-5h-1.3v-1h13.1v0.9L849.2,238.9z M846,237.3
	h-1.1v-4.5h9.7v4.5h-1.1v-3.7H846V237.3z M848.2,238.9h-2.8v1h2.8V238.9z M848.2,240.8h-2.8v1h2.8V240.8z M845.5,243.9l2.8-0.3v-0.9
	h-2.8V243.9z M852.7,235.2h-6.1v-0.7h6.1V235.2z M846.7,236.8V236h6v0.7L846.7,236.8z M855.9,240.1c-0.4,1.3-1.2,2.5-2.2,3.5
	c0.9,0.6,1.9,1.1,2.9,1.4c-0.3,0.3-0.5,0.6-0.7,0.9c-1.1-0.3-2.1-0.9-3-1.6c-0.9,0.7-1.9,1.2-3,1.6c-0.1-0.3-0.3-0.6-0.6-0.9
	c1-0.3,2-0.8,2.9-1.4c-0.8-0.8-1.4-1.7-1.8-2.7l0.3-0.1h-0.9v-0.9h5.1h0.2L855.9,240.1z M851.5,240.8c0.4,0.8,0.9,1.5,1.5,2.2
	c0.7-0.6,1.2-1.4,1.6-2.2H851.5z"/>
<path class="st1" d="M864.4,236.3c-0.8-0.9-1.8-1.8-2.8-2.5c-0.8,1.1-1.9,2.1-3,2.8c-0.2-0.3-0.3-0.7-0.5-1c1.4-0.9,2.6-2,3.4-3.4
	l1,0.4c-0.1,0.1-0.2,0.3-0.3,0.5c1.1,0.7,2,1.5,2.9,2.5L864.4,236.3z M862.2,238.4h2.5v1h-2.5v1.5h2.1v4.6h-1.1V245h-3.2v0.7h-1
	v-4.8h2.1v-1.5h-2.5v-1h2.5v-1.5h-1.6V236h4.1v0.9h-1.5L862.2,238.4z M863.3,241.9h-3.2v2.2h3.2V241.9z M871.8,237.9
	c-0.4,1-0.8,2-1.2,3l-0.9-0.2c0.2-0.5,0.5-1.2,0.8-1.9h-1.7v6c0,0.6-0.1,0.9-0.5,1.1c-0.6,0.2-1.3,0.3-2,0.2c-0.1-0.3-0.2-0.7-0.3-1
	c0.7,0,1.3,0,1.5,0s0.2-0.1,0.2-0.2v-6h-2.7v-1h3.8c-0.9-0.9-1.9-1.7-3-2.3l0.8-0.6c0.5,0.3,1,0.6,1.5,1c0.6-0.5,1.2-1.1,1.6-1.7
	h-4.2v-1h5l0.2-0.1l0.7,0.5c-0.7,1.1-1.6,2.1-2.6,2.9c0.4,0.3,0.7,0.6,1,1l-0.5,0.4h1.6h0.2L871.8,237.9z"/>
<path class="st1" d="M877.2,239.4c-0.3,1.3-0.7,2.6-1.2,3.9c0.3,0.2,0.6,0.4,1.2,0.8c1.3,0.6,2.8,0.9,4.2,0.8c1.9,0,4.3-0.1,6-0.3
	c-0.2,0.4-0.3,0.8-0.3,1.1c-1.1,0.1-4,0.2-5.7,0.2c-1.5,0.1-3-0.2-4.4-0.8c-0.6-0.4-1.2-0.9-1.5-0.9s-0.8,1-1.3,1.9l-0.8-1
	c0.4-0.7,1-1.3,1.7-1.8c0.4-1,0.8-2,1-3h-2c0.4-0.9,0.9-2.2,1.4-3.3h-1.8v-1h3.2c-0.4,1.1-0.9,2.4-1.3,3.4h1l0.2-0.1L877.2,239.4z
	 M875.4,235.1c-0.2-0.7-0.7-1.7-1-2.5l1-0.3c0.3,0.8,0.8,1.8,1,2.4L875.4,235.1z M879.9,234.4h-2.5v-0.9h4.3c-0.2-0.3-0.4-0.7-0.6-1
	l0.9-0.4c0.3,0.4,0.6,0.9,0.9,1.4h4.2v0.9h-2.4l0.4,0.1c-0.3,0.5-0.5,1-0.8,1.4h2.3v6.4c0,0.5-0.1,0.8-0.5,1
	c-0.6,0.2-1.3,0.2-1.9,0.2c-0.1-0.3-0.2-0.7-0.3-1c0.5,0,1,0,1.4,0c0.2,0,0.2-0.1,0.2-0.2v-5.6h-2.8v1h2.2v0.8h-2.2v1.1h1.6v2.6H881
	v0.6h-0.8v-3.1h1.6v-1.1h-2.2v-0.8h2.2v-1H879v6.7h-1V236h2c-0.1-0.5-0.3-1-0.6-1.4L879.9,234.4z M883.1,236c0.3-0.5,0.5-1,0.7-1.6
	h-3.5c0.3,0.4,0.5,0.9,0.6,1.4l-0.5,0.1L883.1,236z M883.3,240.4H881v1.1h2.4L883.3,240.4z"/>
<path class="st1" d="M892.9,232.5c-0.3,0.7-0.5,1.6-0.8,2.2h2.5v9.7h-4.2v1.2h-1v-10.9h1.7c0.3-0.8,0.5-1.6,0.6-2.4L892.9,232.5z
	 M893.6,235.7h-3.2v3.1h3.2V235.7z M893.6,243.4v-3.6h-3.2v3.6H893.6z M902,235.2c-0.2,6.8-0.4,9.1-1,9.9c-0.3,0.4-0.7,0.6-1.2,0.6
	c-0.7,0-1.5,0-2.2,0c0-0.4-0.2-0.8-0.4-1.1c1,0.1,1.9,0.1,2.2,0.1s0.5,0,0.6-0.2c0.5-0.5,0.7-2.8,0.9-8.8h-3.8
	c-0.4,0.9-0.8,1.8-1.4,2.6c-0.3-0.2-0.6-0.4-0.9-0.6c1.1-1.6,1.9-3.5,2.3-5.4l1.1,0.3c-0.2,0.7-0.4,1.4-0.6,2.2h4.5L902,235.2z
	 M898.7,242c-0.7-1.2-1.4-2.4-2.3-3.5l0.9-0.5c0.9,1.1,1.6,2.2,2.3,3.4L898.7,242z"/>
<path class="st1" d="M910.3,243.8l-6.1,1.5l-0.2-1.1l0.8-0.2v-5.1h1v4.9l1.1-0.2v-6.1h-2.1v-4.6h5v4.6h-1.9v2.2h2.1v1h-2.2v2.7
	l2.3-0.5L910.3,243.8z M905.8,236.5h2.9v-2.6h-2.9V236.5z M917.8,244.2v1.1h-7.5v-1.1h0.6v-10h-0.7v-1.1h7.4v1.1h-5.6v2.2h5v5.3h-5
	v2.6H917.8z M911.9,237.4v3.2h3.9v-3.2H911.9z"/>
<path class="st1" d="M933,245.2h-5v0.8h-1v-8.4c-0.1,0.3-0.3,0.5-0.5,0.8c-0.2-0.2-0.4-0.4-0.6-0.6v1.3h-2.5l-0.2,1h3.1v4.8
	c0,0.5-0.1,0.7-0.5,0.9c-0.6,0.2-1.2,0.2-1.8,0.1c0-0.3-0.1-0.6-0.3-0.8c0.7,0,1.2,0,1.4,0s0.2-0.1,0.2-0.2V241H923
	c-0.2,0.8-0.4,1.5-0.5,2.1l1.6-0.3c-0.2-0.4-0.4-0.8-0.5-1.1l0.7-0.2c0.4,0.8,0.8,1.7,1.2,2.6l-0.7,0.3c-0.1-0.2-0.2-0.5-0.3-0.8
	l-3,0.6l-0.3-0.8l0.5-0.1c0.2-0.6,0.4-1.4,0.6-2.2h-1.3v5h-0.9v-5h-0.4v-0.9h0.4v-0.5h0.9v0.5h1.5c0.1-0.4,0.2-0.7,0.2-1h-2.3V235
	h0.9v3.2h3.9V235h0.9v2.4c1-1.6,1.7-3.3,2.1-5.1l1,0.2c-0.2,0.9-0.5,1.7-0.8,2.6h4.8v1h-2.1v2h1.9v1h-1.9v2h1.9v1h-1.9v2.1h2.2
	L933,245.2z M926.5,234.5h-6.9v-0.9h3.1c-0.1-0.4-0.3-0.8-0.5-1.1l1-0.2c0.2,0.4,0.4,0.9,0.5,1.3h2.8V234.5z M924.3,237.8
	c-0.3-0.2-0.6-0.6-1.1-1c-0.4,0.4-0.9,0.8-1.3,1.1c-0.2-0.2-0.4-0.3-0.6-0.5c0.5-0.3,0.9-0.7,1.3-1.1c-0.4-0.3-0.8-0.6-1.1-0.9
	l0.5-0.4c0.4,0.3,0.8,0.6,1.1,0.9c0.3-0.3,0.6-0.6,0.8-0.9l0.7,0.3c-0.3,0.4-0.6,0.7-1,1.1c0.4,0.4,0.8,0.7,1.1,1L924.3,237.8z
	 M929.8,236.1H928v2h1.8L929.8,236.1z M929.8,239.1H928v2h1.8L929.8,239.1z M928,244.2h1.8v-2.1H928L928,244.2z M930.3,235
	c-0.3-0.8-0.6-1.5-1-2.2l1-0.3c0.4,0.7,0.7,1.4,1,2.1L930.3,235z"/>
<path class="st1" d="M936.2,241.2c1-0.3,1.8-1.2,1.9-2.2h-0.3c-0.5,0.1-1-0.3-1.1-0.9c0,0,0-0.1,0-0.1c0-0.6,0.4-1,0.9-1.1
	c0.1,0,0.2,0,0.2,0c0.8,0,1.3,0.7,1.3,1.7c0,1.6-1.1,3-2.6,3.4L936.2,241.2z"/>
<path class="st1" d="M955.2,239.7v6.2H954v-0.9h-10.6v-5.4h1.2v4.3h4v-5.2H944v-5.1h1.2v4h3.4v-5.4h1.2v5.4h3.5v-4.1h1.2v5.1h-4.7
	v5.3h4.2v-4.3L955.2,239.7z"/>
<path class="st1" d="M546.4,263.8h-4.2v7.5h-1.1v-13h5.3V263.8z M542.2,259.2v1.3h3.2v-1.3H542.2z M545.4,262.8v-1.4h-3.2v1.4H545.4
	z M553.4,269.7c0,0.8-0.2,1.1-0.7,1.3c-0.9,0.2-1.8,0.3-2.8,0.2c-0.1-0.4-0.2-0.8-0.4-1.1c1,0.1,2,0,2.3,0s0.4-0.1,0.4-0.4v-6h-4.4
	v-5.5h5.5L553.4,269.7z M548.9,259.2v1.3h3.3v-1.3H548.9z M552.2,262.8v-1.5h-3.3v1.5H552.2z"/>
<path class="st1" d="M563.1,269.8c0.6,0.1,1.2,0.1,1.8,0.1h4.4c-0.2,0.3-0.3,0.7-0.4,1.1h-4.1c-3,0-4.9-0.5-6.1-2.5
	c-0.5,1.1-1.3,2.1-2.3,2.8c-0.2-0.3-0.5-0.6-0.8-0.8c1.6-1.1,2.7-2.9,2.9-4.9l1.1,0.1c-0.1,0.5-0.2,1-0.4,1.5
	c0.5,1.2,1.6,2.1,2.8,2.4v-4.5h-6.2v-1H569v1h-5.9v1.7h5v1h-5L563.1,269.8z M567.4,263.1h-10v-5h10V263.1z M566.3,259h-7.8v1.2h7.8
	V259z M566.3,261h-7.8v1.2h7.8V261z"/>
<path class="st1" d="M575.2,258c-0.4,1.1-0.9,2.2-1.4,3.3v10h-1.1v-8.2c-0.4,0.6-0.8,1.1-1.2,1.6c-0.2-0.4-0.4-0.7-0.7-1.1
	c1.5-1.8,2.6-3.8,3.3-6L575.2,258z M580.2,266.4c-0.1,0.9-0.5,1.8-1.1,2.6c1.8,0.7,3.7,1.1,5.6,1.2c-0.3,0.3-0.5,0.6-0.7,1
	c-2-0.1-3.9-0.6-5.8-1.4c-1,0.7-2.1,1.3-3.3,1.6c-0.2-0.3-0.4-0.6-0.7-0.9c1.1-0.2,2.1-0.6,3-1.2c-0.9-0.5-1.6-1.3-2.1-2.1l0.9-0.4
	c0.5,0.7,1.2,1.4,2,1.8c0.5-0.6,0.9-1.4,1-2.2h-3.6v-5.7h3.7v-1.2h-4v-1h9.2v1h-4v1.2h3.5v5.7L580.2,266.4z M576.6,263.2h2.6v-1.5
	h-2.6V263.2z M579.2,265.5c0-0.3,0-0.5,0-0.8V264h-2.6v1.5H579.2z M582.7,264h-2.4v0.8c0,0.3,0,0.5,0,0.8h2.5L582.7,264z
	 M580.3,261.6v1.5h2.4v-1.5H580.3z"/>
<path class="st1" d="M589.1,265.5v4.5c0,0.6-0.1,0.9-0.5,1.1c-0.6,0.2-1.2,0.3-1.8,0.2c-0.1-0.3-0.2-0.7-0.3-1h1.4
	c0.2,0,0.2,0,0.2-0.3v-4.2l-1.8,0.6l-0.3-1.1c0.6-0.1,1.3-0.4,2.1-0.6v-3.1h-1.9v-1h1.9v-3h1v3h1.6v1h-1.6v2.8l1.5-0.5l0.2,1
	L589.1,265.5z M595.7,265.9v1.3h3.4v0.9h-3.4v2c0.5,0.1,0.9,0.1,1.4,0.1h2.9c-0.2,0.3-0.3,0.6-0.3,1H597c-2.3,0-3.9-0.5-4.9-2.2
	c-0.3,0.9-0.9,1.7-1.6,2.4c-0.3-0.2-0.5-0.5-0.8-0.6c1.2-1.2,1.9-2.9,2-4.6l1,0.1c-0.1,0.5-0.2,1-0.3,1.5c0.4,1,1.1,1.8,2.2,2.1v-4
	h-3V265h3v-1.2h-3.9v-0.9h3.9v-1.1h-3v-0.9h3v-1H591v-0.9h3.7v-1.3h1v1.3h3.9v0.9h-3.9v1h3.2v2h1.1v0.9h-1.1v2.1L595.7,265.9z
	 M595.7,262.9h2.2v-1.1h-2.2V262.9z M595.7,265h2.2v-1.2h-2.2V265z"/>
<path class="st1" d="M605.9,265.5c-0.2-0.5-0.7-1.3-1.1-2.1v7.8h-1.1v-7.2c-0.4,1.5-1,2.8-1.8,4.1c-0.1-0.4-0.3-0.7-0.6-1.1
	c1.1-1.7,1.9-3.6,2.3-5.7h-1.9v-1h2v-2.9h1.1v2.9h1.7v1h-1.7v0.6c0.4,0.5,1.5,2.2,1.8,2.6L605.9,265.5z M614.8,265
	c-0.6,1.1-1.4,2.1-2.3,2.9c1,0.8,1.9,1.6,2.8,2.5l-0.8,0.7c-0.8-0.9-1.7-1.7-2.7-2.5c-1.5,1.2-3.2,2.1-5,2.7
	c-0.2-0.3-0.4-0.6-0.7-0.9c3.5-1.1,6.3-3.3,7.6-5.8L614.8,265z M613.6,262.3c-1.5,2.5-3.6,4.4-6.2,5.7c-0.2-0.3-0.4-0.6-0.6-0.8
	c1.5-0.7,2.8-1.6,4-2.8c-1.1,0-2.3,0.1-3.4,0.4c-0.1-0.3-0.2-0.7-0.3-1c0.4,0,0.7-0.2,1-0.4c0.6-0.8,1.1-1.6,1.6-2.5h-2.8v-1h3.9
	c-0.2-0.6-0.4-1.2-0.8-1.8l1-0.3c0.4,0.6,0.7,1.3,0.9,2l-0.2,0.1h3.4v1h-4.2c-0.5,0.8-1.2,2-1.8,2.8l2.5-0.1
	c0.3-0.4,0.6-0.9,0.9-1.4L613.6,262.3z"/>
<path class="st1" d="M619.3,263.1c-0.2,2-0.7,4-1.3,5.9l-1.1-0.5c0.7-1.8,1.1-3.7,1.3-5.6L619.3,263.1z M621.7,261.7v7.4
	c0,0.7,0.2,0.8,1,0.8h2.9c0.9,0,1.1-0.5,1.2-3.1c0.3,0.2,0.7,0.4,1,0.5c-0.2,2.8-0.5,3.7-2.2,3.7h-3c-1.6,0-2.1-0.4-2.1-1.9v-7.4
	H621.7z M622,258.1c1.4,1,2.8,2.1,4,3.3l-0.8,0.8c-1.2-1.3-2.6-2.4-4-3.4L622,258.1z M628.6,262.5c0.9,1.8,1.5,3.7,2,5.6l-1.1,0.4
	c-0.4-2-1.1-3.8-1.9-5.6L628.6,262.5z"/>
<path class="st1" d="M633.6,266.5c1-0.3,1.8-1.2,1.9-2.2h-0.3c-0.5,0.1-1-0.3-1.1-0.9c0-0.1,0-0.1,0-0.2c0-0.6,0.4-1,0.9-1.1
	c0.1,0,0.2,0,0.2,0c0.8,0,1.3,0.7,1.3,1.7c0,1.6-1.1,3-2.6,3.4L633.6,266.5z"/>
<path class="st1" d="M647.5,258.5c0,2.6,0.3,8.3,6.2,11.8c-0.3,0.3-0.6,0.6-0.9,0.9c-3-1.8-5.2-4.9-6-8.4c-1.1,3.9-3,6.6-6,8.4
	c-0.3-0.3-0.6-0.6-1-0.9c3.3-1.7,5.2-4.7,6.1-8.9l0.7,0.1c-0.1-0.7-0.2-1.4-0.2-1.9h-3.7v-1.1L647.5,258.5z"/>
<path class="st1" d="M667.9,269.8c0,0.7-0.2,1.1-0.6,1.3c-0.9,0.2-1.8,0.2-2.6,0.2c-0.1-0.4-0.2-0.8-0.4-1.1c1,0,1.9,0,2.2,0
	s0.3-0.1,0.3-0.3V262H663c0.3,2.1,1.7,3.9,3.7,4.8c-0.3,0.3-0.5,0.6-0.8,1c-1.9-1-3.3-2.8-3.8-4.9c-0.5,2.2-1.9,4-3.8,5
	c-0.2-0.3-0.5-0.6-0.8-0.9c2-0.9,3.4-2.8,3.7-5h-3.9v9.3h-1.1v-10.4h5.5c-0.1-0.6-0.1-1.1-0.2-1.7h-2.7v-1h3.6
	c0,0.9,0.1,1.8,0.3,2.6h5.2L667.9,269.8z"/>
<path class="st1" d="M673.5,268.3c-0.5,1.1-1.2,2.1-2.1,3c-0.3-0.3-0.6-0.5-0.9-0.7c0.9-0.7,1.5-1.6,2-2.6L673.5,268.3z
	 M677.1,258.2v9.4h-5.8v-9.4H677.1z M672.4,261h3.7v-1.8h-3.7V261z M672.4,263.8h3.7v-1.9h-3.7V263.8z M672.4,266.6h3.7v-1.9h-3.7
	V266.6z M675.9,268c0.7,0.8,1.2,1.6,1.7,2.5l-1,0.5c-0.4-0.9-1-1.8-1.7-2.6L675.9,268z M679.8,259.4v8.2h-1.1v-8.2H679.8z
	 M683.5,257.9v11.9c0,0.8-0.2,1.1-0.7,1.3c-0.9,0.2-1.8,0.3-2.7,0.2c-0.1-0.4-0.2-0.8-0.4-1.1c1,0,2,0,2.3,0s0.4-0.1,0.4-0.4v-11.9
	L683.5,257.9z"/>
<path class="st1" d="M690.9,264.3c-0.6-0.8-1.3-1.6-2-2.3c-0.5,1.1-1.3,2.2-2.2,3c-0.3-0.3-0.6-0.5-0.9-0.8c1.7-1.6,2.8-3.7,3.1-5.9
	l1.1,0.2c-0.2,0.8-0.4,1.7-0.7,2.5c0.8,0.8,1.6,1.6,2.4,2.5L690.9,264.3z M699.3,269.6v1.1H686v-1.1h6.1v-2.9h-5v-1.1h5v-8h1.1v6
	c1.6-1.4,2.7-3.4,3-5.5l1.1,0.2c-0.2,0.9-0.5,1.7-0.8,2.6c1,1,2,2,2.9,3l-0.8,0.8c-0.8-1-1.7-2-2.6-2.8c-0.5,1-1.2,1.9-2,2.6
	c-0.2-0.2-0.5-0.5-0.8-0.7v1.8h5.1v1.1h-5.1v2.9L699.3,269.6z"/>
<path class="st1" d="M703.8,265.6v4.3c0,0.6-0.1,0.9-0.5,1c-0.6,0.2-1.1,0.3-1.7,0.2c-0.1-0.3-0.2-0.7-0.3-1h1.3
	c0.2,0,0.2,0,0.2-0.2V266l-1.4,0.5l-0.3-1.1c0.5-0.1,1.1-0.4,1.7-0.6v-3.3h-1.5v-1h1.5v-3h1v3h1.2v1h-1.2v2.9l1.1-0.4l0.2,1
	L703.8,265.6z M707.9,266.1c0.1-0.3,0.1-0.5,0.2-0.8l0.8,0.2c-0.3,2.3-1.7,4.4-3.6,5.6c-0.2-0.2-0.4-0.5-0.6-0.7
	c1.3-0.8,2.3-1.9,2.9-3.4c-0.8,0.2-1.6,0.4-2.3,0.8c-0.1-0.3-0.2-0.6-0.3-0.9c0.3-0.1,0.5-0.4,0.8-0.9c0.4-0.6,0.8-1.3,1.1-2
	c-0.6,0-1.2,0.1-1.7,0.3c-0.1-0.3-0.2-0.6-0.3-0.9c0.2,0,0.4-0.2,0.5-0.6c0.5-0.8,0.8-1.7,1.1-2.6l0.9,0.4c-0.3,0.9-0.7,1.7-1.2,2.5
	l1.2-0.1c0.2-0.4,0.3-0.7,0.4-1l0.8,0.5c-0.6,1.3-1.2,2.6-2,3.8L707.9,266.1z M714.7,260.2h-9.5v-1h4.2c-0.2-0.4-0.4-0.9-0.6-1.3
	l0.8-0.3c0.3,0.5,0.6,1,0.8,1.6h4.3V260.2z M714.7,270.3h-4.6v0.8h-0.9v-6.7c-0.2,0.2-0.3,0.5-0.5,0.6c-0.2-0.1-0.5-0.5-0.7-0.6
	c0.9-1.1,1.6-2.5,2-3.9l0.9,0.2c-0.2,0.5-0.3,1-0.5,1.5h1.7c-0.2-0.5-0.4-0.9-0.6-1.3l0.8-0.3c0.3,0.5,0.6,1.1,0.8,1.6h1.5v0.9h-1.9
	v1.5h1.6v0.8h-1.6v1.5h1.6v0.8h-1.6v1.7h2V270.3z M711.7,263.1h-1.6v1.5h1.6V263.1z M711.7,265.4h-1.6v1.5h1.6V265.4z M710.1,269.4
	h1.6v-1.7h-1.6V269.4z"/>
<path class="st1" d="M722.1,270.2c0,0.5-0.1,0.8-0.5,0.9c-0.6,0.2-1.2,0.2-1.9,0.2c-0.1-0.3-0.2-0.6-0.3-0.9c0.7,0,1.3,0,1.5,0
	s0.2-0.1,0.2-0.2v-1.4h-3c-0.1,1-0.4,1.9-1,2.7c-0.2-0.3-0.4-0.5-0.7-0.7c0.6-1,0.8-2.1,0.8-3.2v-3.3h4.8L722.1,270.2z M720.2,262.4
	h2.5v0.9h-6.2v-0.9h2.7v-1h-2v-0.8h2v-0.9h-2.4v-0.8h2.4v-1.3h1v1.3h2.3v0.8h-2.3v0.9h1.9v0.8h-1.9L720.2,262.4z M721.1,267.9v-1.1
	h-2.9v0.6c0,0.2,0,0.3,0,0.5H721.1z M718.2,265v1h2.9v-1H718.2z M730.2,265.5h-1v2.3h-2.6v2.2c0,0.6-0.1,0.9-0.5,1
	c-0.6,0.2-1.2,0.2-1.8,0.2c-0.1-0.3-0.2-0.7-0.3-1h1.4c0.2,0,0.2-0.1,0.2-0.2v-2.3h-2.2v-0.9h2.2v-1.4h-2.8v-1h2.8v-1.3h-2.1v-0.9
	h5.8v2.2h1V265.5z M729.7,258.5c-2.2,0.6-4.4,0.9-6.6,1.1c-0.1-0.3-0.2-0.5-0.3-0.8c2.1-0.2,4.1-0.5,6.1-1.1L729.7,258.5z
	 M724.1,262.2c-0.2-0.7-0.5-1.4-0.9-2l0.8-0.3c0.4,0.6,0.7,1.3,0.9,1.9L724.1,262.2z M725.9,261.9c-0.1-0.7-0.3-1.4-0.6-2.1l0.9-0.2
	c0.3,0.6,0.5,1.3,0.7,2L725.9,261.9z M726.7,264.5h1.6v-1.3h-1.6V264.5z M728.3,265.5h-1.6v1.4h1.6V265.5z M727.6,261.6
	c0.4-0.7,0.8-1.5,1.1-2.3l1,0.3c-0.4,0.8-0.8,1.7-1.2,2.3L727.6,261.6z"/>
<path class="st1" d="M737.4,259.8c-0.7,0.7-1.5,1.3-2.4,1.8h2.7v-1.1h1.1v1.1h2.3v0.9h-2.3v1.3h0.8c0.8-0.5,1.6-1.2,2.2-1.9l0.8,0.5
	c-0.4,0.5-0.9,1-1.5,1.4h3.9v0.9h-5.2c-0.7,0.5-1.5,0.9-2.3,1.2h5.7v5.4h-1.1v-0.5H736v0.5h-1v-4.4c-0.8,0.3-1.7,0.5-2.5,0.7
	c-0.1-0.3-0.3-0.6-0.5-1c2.1-0.4,4.1-1,6-2h-5.7v-0.9h5.5v-1.3h-3v-0.7c-0.8,0.4-1.6,0.7-2.4,1c-0.1-0.3-0.4-0.6-0.6-0.9
	c1.6-0.4,3-1.1,4.3-2.1h-4v-0.9h4.9c0.3-0.4,0.6-0.8,0.8-1.3l1.1,0.2c-0.2,0.4-0.4,0.7-0.6,1.1h6.9v0.9H741c1.3,1,2.9,1.7,4.5,2
	c-0.3,0.3-0.5,0.6-0.7,0.9c-1.9-0.4-3.7-1.4-5.1-2.9L737.4,259.8z M742.1,266.8H736v1.1h6.2L742.1,266.8z M742.1,269.9v-1.2H736v1.2
	L742.1,269.9z"/>
<path class="st1" d="M748.5,266.5c1-0.3,1.8-1.1,1.9-2.2h-0.2c-0.5,0.1-1.1-0.3-1.1-0.9c0-0.1,0-0.1,0-0.2c0-0.6,0.4-1.1,1-1.1
	c0,0,0.1,0,0.1,0c0.8,0,1.3,0.7,1.3,1.7c0,1.6-1.1,3-2.6,3.4L748.5,266.5z"/>
<path class="st1" d="M758.5,264.7c-0.3,1.3-0.7,2.6-1.2,3.9c0.3,0.2,0.7,0.5,1.2,0.8c1.3,0.6,2.8,0.9,4.2,0.8c1.9,0,4.3-0.1,6-0.3
	c-0.2,0.4-0.3,0.8-0.3,1.1c-1.1,0.1-3.9,0.2-5.7,0.2c-1.5,0.1-3-0.2-4.4-0.8c-0.6-0.4-1.2-0.9-1.5-0.9s-0.8,1-1.3,1.9l-0.8-1
	c0.4-0.6,0.9-1.2,1.5-1.7c0.5-1,0.9-2,1.1-3.1h-2c0.4-0.9,0.9-2.2,1.3-3.3h-1.6v-1h3.1c-0.4,1.1-0.8,2.3-1.2,3.4h1l0.2,0
	L758.5,264.7z M756.5,260.4c-0.2-0.7-0.5-1.7-0.8-2.5l1-0.3c0.3,0.8,0.6,1.8,0.8,2.4L756.5,260.4z M762.8,267.8h-4v-0.9h4v-1.1h-3.3
	V261h3.3v-1.1h-4v-0.9h4v-1.3h1.1v1.3h4.2v0.9h-4.2v1.1h3.5v4.8h-3.5v1.1h4.5v0.9h-4.5v1.8h-1.1V267.8z M760.5,263h2.3v-1.2h-2.3
	V263z M762.8,265v-1.2h-2.3v1.2L762.8,265z M763.8,261.8v1.2h2.4v-1.2H763.8z M766.2,263.8h-2.4v1.2h2.4V263.8z"/>
<path class="st1" d="M782.2,271.3H781v-0.8h-6.7v0.8h-1.1v-4.9c-0.8,0.3-1.6,0.5-2.5,0.7c-0.1-0.4-0.3-0.7-0.6-1
	c2-0.4,3.9-1.1,5.7-2c-0.9-0.8-1.8-1.6-2.8-2.4c-0.5,0.4-1.1,0.7-1.7,1c-0.2-0.3-0.5-0.6-0.8-0.8c2-0.9,3.7-2.4,5-4.3l1.2,0.3
	c-0.3,0.4-0.6,0.9-1,1.3h5.3l0.2-0.1l0.8,0.5c-1.4,2.4-3.4,4.3-5.8,5.5h6V271.3z M774.9,260.1c-0.3,0.3-0.7,0.6-1,0.9
	c1,0.7,2,1.5,3,2.4c1.4-0.8,2.6-1.9,3.5-3.3H774.9z M781,269.5v-3.4h-6.7v3.4H781z"/>
<path class="st1" d="M792.8,257.6c0,0.5,0,1.3-0.1,2.2c0.2,1.8,1.1,8,6.4,10.4c-0.3,0.3-0.6,0.6-0.8,0.9c-3.8-1.8-5.3-5.5-6.1-8.2
	c-0.6,3.5-2.8,6.6-5.9,8.3c-0.2-0.3-0.5-0.6-0.9-0.9c6.2-3.1,6.1-10.4,6.2-12.7H792.8z"/>
<path class="st1" d="M808.7,258.4c-0.6,1.3-1.3,2.6-2.2,3.7h1.9v1h-2.7c-0.4,0.5-0.9,1-1.4,1.5h3.5v6.4h-1.1v-0.7h-3.4v0.9h-1v-5.1
	c-0.4,0.3-0.8,0.5-1.2,0.7c-0.2-0.3-0.4-0.6-0.7-0.9c1.4-0.7,2.7-1.6,3.9-2.8h-3.5v-1h3v-1.8h-2.3v-1h2.3v-1.6h1v1.6h1.9v0.8
	c0.4-0.6,0.7-1.3,1-2L808.7,258.4z M806.7,265.5h-3.4v1.5h3.4V265.5z M806.7,269.4v-1.6h-3.4v1.6H806.7z M805.2,262.1
	c0.5-0.6,0.9-1.2,1.3-1.8h-1.8v1.8H805.2z M814.4,258.9c-0.6,1.4-1.5,3.1-2.2,4.5c1.6,1.4,2,2.6,2,3.6c0.1,0.7-0.2,1.5-0.8,2
	c-0.3,0.2-0.6,0.3-1,0.3c-0.5,0-0.9,0-1.4,0c0-0.4-0.1-0.8-0.3-1.1c0.4,0,0.8,0,1.3,0c0.2,0,0.5-0.1,0.7-0.2
	c0.3-0.2,0.5-0.6,0.4-1.2c0-0.9-0.5-2.1-2-3.4c0.7-1.3,1.3-2.9,1.8-4.1h-2.8v11.8h-1.1v-12.8h4.4l0.2,0L814.4,258.9z"/>
<path class="st1" d="M819.6,258c-0.3,1-0.6,1.9-1,2.8v10.5h-1v-8.5c-0.4,0.7-0.9,1.4-1.4,2.1c-0.1-0.2-0.4-0.8-0.5-1.1
	c1.4-1.8,2.4-3.9,3-6.1L819.6,258z M822.5,266.3c0,0.3,0,0.6,0,0.9c-0.9,0.4-1.7,1-2.5,1.6l0,0c-0.1-0.3-0.3-0.7-0.5-1
	c0.3-0.3,0.4-0.6,0.4-1v-7.5h1v2.8h1.8v1h-1.8v4L822.5,266.3z M825.5,269.3c-0.9,0.8-2,1.5-3.2,2c-0.2-0.3-0.5-0.5-0.8-0.7
	c1.1-0.4,2.1-1.1,3-1.9L825.5,269.3z M825.3,260.5c0.1-0.4,0.2-0.9,0.3-1.3h-3.1v-1h7.2v1h-2.9c-0.2,0.4-0.3,0.9-0.5,1.3h2.9v7.9h-6
	v-7.9H825.3z M828.2,261.4h-4v1.5h4V261.4z M828.2,263.7h-4v1.5h4V263.7z M828.2,266.1h-4v1.5h4V266.1z M827.6,268.8
	c0.8,0.6,1.6,1.2,2.4,1.9l-0.9,0.6c-0.7-0.7-1.5-1.4-2.3-2L827.6,268.8z"/>
<path class="st1" d="M831.8,265.6c0.9,0.2,1.8,0.5,2.6,1l-0.5,0.8c-0.8-0.5-1.6-0.8-2.5-1L831.8,265.6z M840.5,266.6
	c0,0.7,0.5,2.9,4.5,3.8c-0.2,0.3-0.4,0.6-0.6,0.9c-3-0.8-4.1-2.5-4.4-3.4c-0.2,0.9-1.4,2.6-4.4,3.4c-0.2-0.3-0.4-0.6-0.6-0.9
	c3.9-0.9,4.4-3.1,4.4-3.8V266h-1.7c-0.4,0.7-0.8,1.3-1.4,1.8c-0.3-0.2-0.6-0.4-0.9-0.6c1-1,1.8-2.2,2.2-3.5h-5.8v-0.9h5.8v-1H833
	v-0.8h4.6v-1h-5.3V259h3c-0.2-0.4-0.5-0.8-0.8-1.1l1-0.4c0.4,0.4,0.7,0.9,1,1.5h3.5c0.3-0.5,0.7-1,0.9-1.5l1.2,0.3
	c-0.3,0.4-0.6,0.8-0.9,1.2h3v0.9h-5.4v1h4.7v0.8h-4.7v1h5.9v0.9h-7l0.9,0.2c-0.1,0.4-0.3,0.8-0.5,1.2h5.3h0.2l0.8,0.2
	c-0.4,0.9-0.8,1.9-1.3,2.8l-0.9-0.2c0.3-0.6,0.6-1.2,0.8-1.8h-2.4V266.6z M835.1,268.2c-0.7,1-1.6,2.2-2.4,3.2l-0.8-0.7
	c0.9-1,1.7-2.1,2.5-3.2L835.1,268.2z M835,265.7c-0.7-0.5-1.6-0.9-2.5-1.2l0.5-0.7c0.9,0.2,1.7,0.6,2.5,1.1L835,265.7z"/>
<path class="st1" d="M850.8,257.8c-0.3,0.7-0.5,1.6-0.8,2.2h2.5v9.7h-4.2v1.2h-1V260h1.7c0.3-0.8,0.5-1.6,0.6-2.4L850.8,257.8z
	 M851.5,261h-3.2v3.1h3.2V261z M851.5,268.7v-3.6h-3.2v3.6H851.5z M859.8,260.5c-0.2,6.8-0.4,9.1-1,9.9c-0.3,0.4-0.7,0.6-1.2,0.6
	c-0.7,0-1.5,0-2.2,0c0-0.4-0.2-0.8-0.4-1.1c1,0.1,1.9,0.1,2.2,0.1s0.5,0,0.6-0.2c0.5-0.5,0.7-2.8,0.9-8.8H855
	c-0.4,0.9-0.8,1.8-1.4,2.6c-0.3-0.2-0.6-0.4-0.9-0.6c1.1-1.6,1.9-3.5,2.3-5.5l1.1,0.3c-0.2,0.7-0.4,1.5-0.6,2.2h4.5L859.8,260.5z
	 M856.5,267.3c-0.7-1.2-1.4-2.4-2.3-3.5l0.9-0.5c0.9,1.1,1.6,2.2,2.3,3.4L856.5,267.3z"/>
<path class="st1" d="M864.6,264.3c-0.8-0.7-1.7-1.2-2.7-1.6l0.6-0.8c1,0.4,1.9,0.9,2.7,1.6L864.6,264.3z M865.9,266.3
	c-0.8,1.6-1.8,3.4-2.7,4.8l-0.9-0.8c1-1.5,2-3.1,2.8-4.8L865.9,266.3z M865.1,260.5c-0.7-0.8-1.6-1.4-2.5-1.9l0.7-0.8
	c0.9,0.5,1.8,1.1,2.5,1.8L865.1,260.5z M867.3,264.6h1v1.6c0.2,1.9-0.6,3.8-2.1,5c-0.2-0.3-0.5-0.5-0.8-0.7c1.3-1,2.1-2.6,1.9-4.3
	L867.3,264.6z M866.2,263.1c0.3-0.1,0.7-0.4,1.1-0.9c0.2-0.3,0.7-0.8,1.2-1.6H866v-1h3.2c0.4-0.6,0.8-1.3,1.1-1.9l1.1,0.4
	c-0.3,0.5-0.6,1-0.9,1.5h4.8v1h-5.5c-0.6,0.8-1.2,1.6-1.9,2.4l5.1-0.3c-0.4-0.5-0.7-0.9-1.1-1.3l0.8-0.5c0.9,1,2,2.4,2.6,3.2
	l-0.9,0.6c-0.2-0.3-0.5-0.7-0.8-1.1c-6,0.4-6.8,0.5-7.2,0.6C866.5,263.9,866.3,263.4,866.2,263.1z M870,264.7h1v5.9h-1V264.7z
	 M874.8,270.1c0.2,0,0.5,0,0.7-0.1c0,0.3,0,0.6,0.1,0.9c-0.2,0.1-0.5,0.1-0.7,0.1h-1c-1,0-1.2-0.4-1.2-1.4v-4.9h1v4.9
	c0,0.4,0,0.5,0.2,0.5L874.8,270.1z"/>
<path class="st1" d="M881.6,267.2c-1.4,0.7-2.8,1.4-4,2l-0.4-1.1c0.5-0.2,1-0.5,1.7-0.7v-5.2h-1.6v-1h1.6v-3.5h1v3.5h1.4v1h-1.4v4.7
	l1.4-0.7L881.6,267.2z M886.4,268.1l-5.1,1.5l-0.3-1c1.3-0.3,3.3-0.9,5.3-1.4L886.4,268.1z M890.5,262.4c-0.5,1.8-1.2,3.6-2.2,5.2
	c0.4,1.6,0.8,2.6,1.4,2.6c0.3,0,0.4-0.6,0.5-2.1c0.2,0.2,0.5,0.4,0.8,0.6c-0.2,2-0.5,2.6-1.4,2.6s-1.5-1-2-2.6
	c-0.7,0.9-1.6,1.8-2.5,2.5c-0.3-0.3-0.5-0.5-0.8-0.7c1.2-0.8,2.2-1.8,3-3c-0.4-2.2-0.6-4.4-0.6-6.6h-5v-1h5c0-0.7,0-1.5,0-2.2h1.1
	c0,0.8,0,1.5,0,2.2h2.4c-0.5-0.6-1.1-1.1-1.8-1.6l0.7-0.5c0.7,0.4,1.3,1,1.8,1.5l-0.7,0.6h0.8v1h-3.2c0,1.8,0.2,3.5,0.4,5.3
	c0.6-1.2,1.1-2.5,1.4-3.9L890.5,262.4z M885.6,262.2v4.3h-3.7v-4.3H885.6z M884.7,263.1h-1.9v2.5h1.9V263.1z"/>
<path class="st1" d="M895.7,262.2c1.3,0,2.3,1,2.3,2.3s-1,2.3-2.3,2.3c-1.3,0-2.3-1-2.3-2.3C893.4,263.2,894.4,262.2,895.7,262.2
	L895.7,262.2z M895.7,266c0.8,0,1.5-0.7,1.5-1.5c0-0.8-0.7-1.5-1.5-1.5c-0.8,0-1.5,0.7-1.5,1.5C894.1,265.3,894.8,266,895.7,266
	C895.6,266,895.6,266,895.7,266L895.7,266z"/>
<line class="st2" x1="657" y1="216.5" x2="782" y2="216.5"/>
<path class="st3" d="M525.5,1280.9h1.4v9.8h4.8v1.2h-6.2V1280.9z"/>
<path class="st3" d="M524.7,1208.8l0.8-0.9c0.8,0.8,1.9,1.3,3,1.4c1.4,0,2.3-0.7,2.3-1.8s-0.8-1.5-1.8-2l-1.6-0.7
	c-1.3-0.4-2.2-1.5-2.2-2.8c0-1.7,1.5-2.9,3.5-2.9c1.2,0,2.4,0.5,3.2,1.4l-0.7,0.9c-0.7-0.6-1.6-1-2.5-1c-1.2,0-2.1,0.6-2.1,1.6
	s1,1.5,1.8,1.8l1.6,0.7c1.3,0.6,2.3,1.3,2.3,2.9s-1.4,3.1-3.7,3.1C527.1,1210.4,525.7,1209.8,524.7,1208.8z"/>
<path class="st3" d="M534.1,1204.7c0-3.6,2.1-5.7,4.9-5.7c1.1,0,2.2,0.5,3,1.4l-0.8,0.9c-0.6-0.6-1.4-1-2.2-1
	c-2.1,0-3.5,1.7-3.5,4.5s1.3,4.5,3.4,4.5c1,0,1.9-0.5,2.5-1.2l0.8,0.9c-0.8,1-2.1,1.6-3.4,1.6
	C536.2,1210.4,534.1,1208.3,534.1,1204.7z"/>
<path class="st3" d="M544.6,1199.2h1.4v4.6h5.1v-4.6h1.4v11h-1.4v-5.2H546v5.2h-1.4V1199.2z"/>
<path class="st3" d="M555.2,1204.7c0-3.5,1.9-5.7,4.7-5.7s4.7,2.1,4.7,5.7s-1.9,5.7-4.7,5.7S555.2,1208.2,555.2,1204.7z
	 M563.2,1204.7c0-2.8-1.3-4.5-3.3-4.5s-3.3,1.7-3.3,4.5s1.3,4.5,3.3,4.5S563.2,1207.4,563.2,1204.7L563.2,1204.7z"/>
<path class="st3" d="M566.6,1204.7c0-3.5,1.9-5.7,4.7-5.7s4.7,2.1,4.7,5.7s-1.9,5.7-4.7,5.7S566.6,1208.2,566.6,1204.7z
	 M574.6,1204.7c0-2.8-1.3-4.5-3.3-4.5s-3.3,1.7-3.3,4.5s1.3,4.5,3.3,4.5S574.6,1207.4,574.6,1204.7L574.6,1204.7z"/>
<path class="st3" d="M578.7,1199.2h1.4v9.8h4.8v1.2h-6.2V1199.2z"/>
<path class="st1" d="M592.8,1197h0.6v15h-0.6V1197z"/>
<path class="st1" d="M604.8,1203c0.4,0.6,1.5,2.2,1.7,2.6l-0.6,0.8c-0.2-0.5-0.7-1.4-1.1-2.2v7h-1v-6.8c-0.4,1.4-1,2.7-1.7,4
	c-0.2-0.3-0.4-0.7-0.6-1c1.1-1.7,1.8-3.6,2.2-5.6h-1.9v-1h2v-3.2h1v3.2h1.7v1h-1.7L604.8,1203L604.8,1203z M612.7,1201
	c0.7,1,1.7,1.7,2.8,2.3c-0.3,0.2-0.5,0.5-0.7,0.8c-0.6-0.3-1.1-0.7-1.6-1.2v1.8h-4.8v-1.8c-0.5,0.5-1,0.9-1.6,1.2
	c-0.2-0.3-0.4-0.5-0.7-0.7c1.1-0.6,2-1.4,2.7-2.4h-2.2v-0.8h2.7c0.2-0.3,0.3-0.7,0.4-1c-0.9,0.1-1.8,0.1-2.6,0.1
	c0-0.3-0.1-0.5-0.2-0.8c2.3,0,4.5-0.3,6.7-0.7l0.7,0.8c-1.1,0.2-2.3,0.4-3.5,0.5c-0.1,0.3-0.2,0.7-0.4,1h4.7v0.9L612.7,1201z
	 M614.8,1210.2c0,0.5-0.1,0.8-0.5,1c-0.6,0.2-1.3,0.2-1.9,0.2c-0.1-0.3-0.2-0.6-0.4-0.9c0.7,0,1.3,0,1.5,0s0.3-0.1,0.3-0.2v-3.9h-6
	v5h-1v-5.9h8.1L614.8,1210.2z M609.7,1209.9v0.7h-0.8v-3.4h3.8v2.8L609.7,1209.9L609.7,1209.9z M609.9,1201
	c-0.2,0.3-0.4,0.6-0.6,0.9h2.9c-0.2-0.3-0.4-0.6-0.6-0.9H609.9z M612.2,1202.7h-2.8v1.3h2.8V1202.7z M609.7,1207.8v1.4h2.1v-1.3
	L609.7,1207.8z"/>
<path class="st1" d="M623.1,1209.2c-2.1,0.5-4.4,1-6,1.3l-0.3-1c1.1-0.2,2.7-0.5,4.3-0.9l-0.8-0.2c0.3-1,0.5-2,0.7-3l1.1,0.3
	c-0.3,1-0.6,2.2-0.9,3l1.7-0.5L623.1,1209.2z M622.9,1199.5H617v-1h5.9V1199.5z M622.6,1205h-5.1v-4h5.1V1205z M618.4,1208.5
	c0-0.9-0.2-1.9-0.6-2.8l0.9-0.2c0.4,0.9,0.6,1.8,0.6,2.8L618.4,1208.5z M621.6,1201.9h-3.1v2.2h3.1V1201.9z M626.2,1209.4
	c-1,0.9-2.1,1.5-3.3,2c-0.2-0.3-0.5-0.5-0.7-0.7c1.1-0.4,2.2-1,3-1.8L626.2,1209.4z M625.9,1200.8c0.1-0.4,0.2-1,0.3-1.4h-2.8v-1
	h7.2v1h-3.1c-0.2,0.5-0.3,1-0.4,1.4h3v7.8h-6.2v-7.8H625.9z M629,1201.7h-4.2v1.5h4.2V1201.7z M629,1203.9h-4.2v1.5h4.2V1203.9z
	 M629,1206.2h-4.2v1.5h4.2V1206.2z M628.3,1209c0.9,0.5,1.8,1.2,2.6,1.8l-0.9,0.6c-0.8-0.7-1.6-1.4-2.5-1.9L628.3,1209z"/>
<path class="st1" d="M645.2,1198.3v13h-1.1v-0.7h-10.3v0.7h-1.1v-13H645.2z M644.1,1209.7v-10.3h-10.3v10.3H644.1z M639.1,1207.4
	c-1.6,0.3-3.2,0.6-4.4,0.8l-0.2-0.8c1.1-0.2,2.8-0.5,4.5-0.8L639.1,1207.4z M642.8,1203c-0.3,1.3-0.9,2.6-1.7,3.7
	c0.3,0.8,0.7,1.3,1.2,1.4c0.2,0.1,0.4-0.6,0.5-1.5c0.2,0.2,0.5,0.4,0.7,0.5c-0.2,1.6-0.7,2.2-1.5,1.9c-0.7-0.2-1.3-0.8-1.6-1.5
	c-0.6,0.7-1.3,1.2-2,1.7c-0.2-0.3-0.4-0.5-0.7-0.7c0.9-0.5,1.6-1.2,2.3-2c-0.4-1.4-0.7-2.9-0.8-4.4h-4.6v-0.8h4.5
	c-0.1-0.5-0.1-1.1-0.1-1.6h1l0.1,1.6h3.3v0.8h-3.2c0.1,1.2,0.3,2.3,0.6,3.4c0.5-0.9,0.9-1.8,1.1-2.8L642.8,1203z M638.5,1203.1v2.9
	h-3.3v-2.9H638.5z M637.7,1203.8H636v1.5h1.7V1203.8z M642.5,1201.2c-0.5-0.4-1-0.8-1.6-1l0.5-0.6c0.6,0.2,1.1,0.6,1.6,1
	L642.5,1201.2z"/>
<path class="st1" d="M660.3,1200.3v7h-1.1v-0.8h-4.3v4.9h-1.2v-4.9h-4.3v0.9h-1.1v-7.1h5.4v-2.7h1.2v2.7H660.3z M653.7,1205.4v-4
	h-4.3v4H653.7z M659.2,1205.4v-4h-4.3v4H659.2z"/>
<path class="st1" d="M669.3,1205.8l-1,0.9c-1-1.2-2.1-2.3-3.3-3.3l1-0.9C667.2,1203.5,668.3,1204.6,669.3,1205.8z"/>
<path class="st1" d="M685.4,1209.4v1.1h-13.2v-1.1h3.6c0.3-1.4,0.6-3.1,0.9-4.9h-2.8v-1.1h3c0.2-1.1,0.3-2.2,0.5-3.2h-4.3v-1.1h11.2
	v1.1h-5.8c-0.2,1-0.3,2.1-0.5,3.2h3.8l0.2-0.1l0.9,0.1c-0.1,1.7-0.3,4-0.5,6H685.4z M677.9,1204.5c-0.3,1.8-0.6,3.5-0.9,4.9h4.2
	c0.2-1.6,0.3-3.5,0.5-4.9H677.9z"/>
<path class="st1" d="M692.9,1206c-0.3-0.5-1.1-1.6-1.7-2.3v7.7h-1.1v-7.3c-0.6,1.7-1.4,3.2-2.5,4.6c-0.2-0.4-0.4-0.7-0.6-1
	c1.3-1.7,2.3-3.6,2.8-5.6h-2.5v-1.1h2.7v-3.2h1.1v3.2h2.1v1.1h-2.1v0.3c0.5,0.5,2.1,2.3,2.5,2.7L692.9,1206z M698,1202
	c0.6,2.2,1.6,4.3,3,6.1c-0.3,0.2-0.6,0.5-0.8,0.9c-1.1-1.5-1.9-3.2-2.5-5v7.4h-1.1v-7.4c-0.7,1.9-1.7,3.7-3.1,5.2
	c-0.2-0.4-0.4-0.7-0.7-1c1.6-1.8,2.9-3.9,3.5-6.2h-2.5v-1.1h2.7v-3.2h1.1v3.2h2.8v1.1H698z"/>
<path class="st1" d="M715.5,1198.3v13h-1.1v-0.7h-10.3v0.7H703v-13H715.5z M714.4,1209.7v-10.3h-10.3v10.3H714.4z M709.4,1207.4
	c-1.6,0.3-3.2,0.6-4.4,0.8l-0.2-0.8c1.1-0.2,2.8-0.5,4.5-0.8L709.4,1207.4z M713.1,1203c-0.3,1.3-0.9,2.6-1.7,3.7
	c0.3,0.8,0.7,1.3,1.2,1.4c0.2,0.1,0.4-0.6,0.5-1.5c0.2,0.2,0.5,0.4,0.7,0.5c-0.2,1.6-0.7,2.2-1.5,1.9c-0.7-0.2-1.3-0.8-1.6-1.5
	c-0.6,0.7-1.3,1.2-2,1.7c-0.2-0.3-0.4-0.5-0.7-0.7c0.9-0.5,1.6-1.2,2.3-2c-0.4-1.4-0.7-2.9-0.8-4.4H705v-0.8h4.5
	c0-0.5-0.1-1.1-0.1-1.6h1l0.1,1.6h3.3v0.8h-3.2c0.1,1.2,0.3,2.3,0.6,3.4c0.5-0.9,0.9-1.8,1.1-2.8L713.1,1203z M708.8,1203.1v2.9
	h-3.3v-2.9H708.8z M708,1203.8h-1.7v1.5h1.7V1203.8z M712.8,1201.2c-0.5-0.4-1-0.8-1.6-1l0.5-0.6c0.6,0.2,1.1,0.6,1.6,1
	L712.8,1201.2z"/>
<path class="st1" d="M721.4,1201.6c-0.4,2.3-1.3,4.6-2.7,6.5c-0.3-0.2-0.7-0.4-1-0.6c1.3-1.8,2.2-3.9,2.5-6.2L721.4,1201.6z
	 M725.3,1197.9v11.9c0,0.8-0.2,1.2-0.8,1.4c-0.9,0.2-1.9,0.3-2.9,0.2c-0.1-0.4-0.3-0.8-0.5-1.2c1.1,0,2.2,0,2.5,0s0.4-0.1,0.4-0.4
	v-11.9H725.3z M728.7,1201.3c1.3,2,2.3,4.3,3,6.6l-1.2,0.5c-0.6-2.4-1.6-4.6-2.8-6.7L728.7,1201.3z"/>
<path class="st1" d="M738.3,1205.8l-1,0.9c-1-1.2-2.1-2.3-3.3-3.3l1-0.9C736.2,1203.5,737.3,1204.6,738.3,1205.8z"/>
<path class="st1" d="M754.2,1199.2v1h-13.1v-1h6.1c-0.1-0.4-0.3-0.9-0.5-1.4l1.1-0.3c0.2,0.5,0.4,1.1,0.6,1.6h5.8V1199.2z
	 M753.8,1210.2c0,0.5-0.1,0.8-0.5,0.9c-0.7,0.2-1.3,0.2-2,0.1c-0.1-0.3-0.2-0.6-0.4-0.8c0.6,0,1.3,0,1.5,0s0.3-0.1,0.3-0.2v-4.4
	h-9.9v5.6h-1.1v-6.5h12L753.8,1210.2z M752.1,1201v3h-8.7v-3H752.1z M750.8,1209.8h-5.3v0.7h-1v-3.8h6.3V1209.8z M751,1201.9h-6.5
	v1.3h6.5V1201.9z M745.5,1207.5v1.4h4.3v-1.4H745.5z"/>
<path class="st1" d="M762.5,1202.4l0.7,0.3c-0.8,4.5-3,7.2-5.8,8.7c-0.2-0.3-0.5-0.6-0.8-0.9c1.5-0.7,2.8-1.8,3.7-3.1
	c-0.7-0.6-1.6-1.2-2.4-1.7c-0.3,0.4-0.6,0.8-1,1.1c-0.3-0.3-0.5-0.5-0.9-0.8c1.4-1.3,2.5-3,3.1-4.8l0.8,0.2v-1.3h-3.5v-1h3.5v-1.3
	h1.1v1.3h1.7v1H761v1.5h-0.9c-0.1,0.3-0.2,0.6-0.4,1h2.5L762.5,1202.4z M759.3,1203.4c-0.2,0.5-0.5,0.9-0.8,1.3
	c0.8,0.5,1.6,1,2.4,1.6c0.5-0.9,0.9-2,1.1-3L759.3,1203.4z M765.1,1200h-1.8v-1h1.8v-1.3h1.1v1.3h3.4v1h-3.4v1.5h-1.1V1200z
	 M768.2,1210c0.6,0,0.7-0.3,0.8-1.7c0.3,0.2,0.6,0.3,1,0.4c-0.2,1.8-0.5,2.3-1.7,2.3h-2.7c-1.4,0-1.8-0.3-1.8-1.7v-7.1h5.3v4.2
	c0,0.6-0.1,0.9-0.5,1c-0.7,0.2-1.4,0.2-2.1,0.2c-0.1-0.3-0.2-0.7-0.3-1c0.8,0,1.4,0,1.6,0s0.3,0,0.3-0.2v-3.2h-3.2v6.1
	c0,0.6,0.1,0.7,0.8,0.7L768.2,1210z"/>
<path class="st1" d="M785,1209.1v1.1h-13.4v-1.1h6v-8.6h-5.2v-1.1h11.8v1.1h-5.4v8.6H785z"/>
<path class="st1" d="M800.2,1199.3v1h-13.1v-1h6.2c-0.2-0.4-0.3-1-0.5-1.4l1-0.3c0.2,0.5,0.5,1.2,0.6,1.7L800.2,1199.3L800.2,1199.3
	z M799.3,1210.1c0,0.6-0.2,0.8-0.6,1c-0.8,0.1-1.6,0.2-2.5,0.1c-0.1-0.3-0.2-0.6-0.3-0.8c0.9,0,1.8,0,2,0s0.3-0.1,0.3-0.3v-6.8h-3v1
	c0,0.3,0,0.4,0.3,0.4h1.3c0.3,0,0.5,0,0.8-0.1c0,0.3,0,0.6,0.1,0.8c-0.3,0.1-0.6,0.1-0.9,0.1h-1.6c-0.9,0-1.1-0.4-1.1-1.3v-1h-1.7
	c-0.2,1.6-0.9,2.4-3,2.8c-0.1-0.3-0.3-0.6-0.5-0.8c1.8-0.3,2.3-0.9,2.5-2.1H789v8h-1v-8.9h6.9c0.4-0.6,0.8-1.3,1.1-2l1.1,0.2
	c-0.4,0.6-0.8,1.3-1.2,1.8h3.4V1210.1z M791.2,1200.3c0.3,0.5,0.7,1.1,0.9,1.7l-1,0.4c-0.2-0.4-0.6-1.2-0.9-1.7L791.2,1200.3z
	 M791.8,1209.4v0.7h-1v-4.1h5.5v3.4H791.8z M791.8,1206.9v1.7h3.6v-1.7H791.8z"/>
<path class="st1" d="M807.3,1205.8l-1,0.9c-1-1.2-2.1-2.3-3.3-3.3l1-0.9C805.2,1203.5,806.3,1204.6,807.3,1205.8z"/>
<path class="st1" d="M815.1,1201.1h-5.2v-0.9h5.2V1201.1z M810.5,1203v-0.8h4.2v0.9L810.5,1203z M814.7,1205h-4.2v-0.9h4.2V1205z
	 M814.8,1210.4h-3.4v0.7h-0.9v-5h4.3L814.8,1210.4L814.8,1210.4z M811.4,1207v2.5h2.4v-2.5H811.4z M812.6,1200
	c-0.3-0.7-0.7-1.4-1.1-2l0.8-0.4c0.4,0.6,0.8,1.2,1.1,1.9L812.6,1200z M818.7,1204c-0.3,0.7-0.6,1.4-1,2.1h5.2v5.2h-1v-0.6H818v0.7
	h-1v-4.2c-0.4,0.5-0.9,1.1-1.4,1.5c-0.2-0.3-0.5-0.6-0.8-0.8c1.3-1,2.2-2.3,2.8-3.8H815v-1h3c0.2-0.5,0.3-1.1,0.4-1.7l1,0.2
	c-0.1,0.5-0.2,1-0.4,1.5h4.5v1L818.7,1204z M817,1200.2h-1.8v-1h1.8v-1.6h1.1v1.6h1.2v1h-1.2v1.5H817V1200.2z M818.1,1207v2.6h3.8
	v-2.6H818.1z M820.9,1200.2h-1.2v-1h1.2v-1.6h1.1v1.6h1.6v1H822v1.5h-1.1V1200.2z"/>
<path class="st1" d="M830.9,1208.8c-1.4,1.1-2.9,1.9-4.5,2.6c-0.3-0.3-0.6-0.6-0.9-0.8c1.6-0.6,3-1.4,4.3-2.4L830.9,1208.8z
	 M837,1198.4v9.3h-9.7v-9.3H837z M828.4,1201.1h7.5v-1.7h-7.5V1201.1z M828.4,1203.9h7.5v-1.8h-7.5V1203.9z M828.4,1206.6h7.5v-1.8
	h-7.5V1206.6z M834.1,1208.1c1.5,0.7,3,1.6,4.4,2.5l-1,0.8c-1.4-0.9-2.9-1.8-4.4-2.6L834.1,1208.1z"/>
<path class="st1" d="M853.4,1202.4l-0.5-0.3v8.1c0,0.6-0.1,0.9-0.6,1.1c-0.8,0.2-1.5,0.2-2.3,0.2c-0.1-0.3-0.2-0.6-0.3-0.9
	c0.9,0,1.6,0,1.9,0s0.3-0.1,0.3-0.3v-7.6h-4.1v8.8h-1.1v-8.8h-3.9v8.8h-1v-9.1l-0.6,0.3c-0.3-0.3-0.5-0.5-0.8-0.7
	c1.3-0.5,2.6-1.3,3.6-2.2l1,0.4c-0.6,0.6-1.3,1.2-2,1.7h3.8v-2.1h-5.9v-1H854v1h-3.4c1.3,0.6,2.6,1.3,3.8,2.1L853.4,1202.4z
	 M846.1,1206.5c-0.2,0.5-0.4,1-0.7,1.4c0.3,0.3,0.6,0.5,0.9,0.8l-0.5,0.6c-0.2-0.2-0.5-0.5-0.9-0.8c-0.4,0.6-0.9,1.1-1.4,1.6
	c-0.2-0.2-0.4-0.3-0.6-0.4c0.5-0.5,1-1,1.4-1.6c-0.3-0.3-0.7-0.5-1.1-0.7l0.5-0.6c0.3,0.2,0.7,0.4,1,0.7c0.2-0.4,0.4-0.8,0.6-1.2
	L846.1,1206.5z M845.8,1205.7c-0.3-0.3-0.6-0.5-0.9-0.8c-0.4,0.5-0.8,0.9-1.2,1.3c-0.2-0.2-0.4-0.3-0.6-0.4c0.5-0.4,0.9-0.8,1.3-1.3
	c-0.3-0.2-0.7-0.4-1-0.6l0.5-0.5c0.3,0.2,0.7,0.3,1,0.5c0.2-0.3,0.4-0.7,0.6-1.1l0.7,0.2c-0.2,0.4-0.5,0.9-0.7,1.3
	c0.3,0.2,0.6,0.5,0.9,0.8L845.8,1205.7z M852.3,1201.6c-0.9-0.5-1.8-1-2.8-1.5l0.8-0.6h-2.4v2.1H852.3z M851,1209.3
	c-0.3-0.3-0.6-0.6-0.9-0.8c-0.4,0.6-0.9,1.1-1.4,1.6c-0.2-0.2-0.4-0.3-0.6-0.4c0.6-0.4,1-1,1.5-1.6c-0.4-0.3-0.7-0.5-1.1-0.7
	l0.4-0.5c0.4,0.2,0.7,0.4,1.1,0.7c0.2-0.4,0.4-0.7,0.5-1.1l0.7,0.2c-0.2,0.5-0.4,0.9-0.7,1.4c0.4,0.3,0.7,0.5,1,0.8L851,1209.3z
	 M850.8,1205.7c-0.3-0.3-0.6-0.6-0.9-0.8c-0.4,0.5-0.8,1-1.3,1.4c-0.2-0.2-0.4-0.3-0.6-0.4c0.5-0.4,0.9-0.9,1.3-1.4
	c-0.3-0.2-0.7-0.5-1.1-0.7l0.5-0.5c0.3,0.2,0.7,0.4,1,0.6c0.2-0.3,0.4-0.7,0.6-1.1l0.7,0.2c-0.2,0.4-0.4,0.9-0.7,1.3
	c0.4,0.2,0.7,0.5,1,0.8L850.8,1205.7z"/>
<path class="st1" d="M868.9,1201.7c-0.1,6.2-0.1,8.2-0.5,8.8c-0.2,0.3-0.6,0.5-1,0.6c-0.6,0-1.2,0-1.8,0c0-0.4-0.1-0.7-0.3-1
	c0.7,0,1.4,0,1.6,0c0.2,0,0.4,0,0.5-0.2c0.3-0.4,0.4-2.3,0.4-7.6h-2.1c-0.2,4.2-0.8,7.3-3.3,9.2c-0.2-0.3-0.5-0.6-0.8-0.8
	c0.4-0.3,0.8-0.7,1.2-1.1l-0.9,0.4c0-0.2-0.1-0.5-0.2-0.8c-4.2,0.8-4.8,0.9-5.2,1.1c-0.1-0.4-0.2-0.7-0.4-1.1
	c0.4-0.1,0.8-0.6,1.3-1.3c0.9-1.2,1.6-2.4,2.4-3.6c-1.1,0-2.3,0.2-3.4,0.4l0,0c-0.1-0.2-0.2-0.8-0.4-1.1c0.3-0.1,0.5-0.5,0.9-1.1
	c0.8-1.5,1.5-3.1,2-4.8l1.1,0.4c-0.7,1.8-1.5,3.5-2.5,5.2l2.8-0.2c0.3-0.6,0.6-1.2,0.9-1.8l1.1,0.5c-1.2,2.4-2.6,4.7-4.3,6.9
	l3.3-0.5c-0.2-0.7-0.6-1.4-0.8-2l0.9-0.4c0.6,1.1,1.1,2.4,1.5,3.6c1.4-1.7,1.8-4.2,1.9-7.2h-2.1v-1h2.1c0-1.1,0-2.2,0-3.5h1.1
	c0,1.2,0,2.4,0,3.5h3.1L868.9,1201.7z"/>
<path class="st1" d="M884.7,1210.3h-6.3v1.1h-1v-8.7c-0.3,0.5-0.6,0.9-1,1.3c-0.1-0.4-0.3-0.7-0.5-1l0,0h-1.3v0.3
	c0.5,0.5,1.8,2.2,2.1,2.6l-0.7,0.9c-0.3-0.5-0.9-1.6-1.4-2.3v6.9h-1.1v-6.6c-0.5,1.4-1.1,2.7-1.9,3.9c-0.2-0.4-0.4-0.7-0.6-1.1
	c1-1.4,1.8-3,2.3-4.7h-2v-1h2.3v-2.4c-0.6,0.1-1.2,0.2-1.8,0.3c-0.1-0.3-0.2-0.6-0.3-0.9c1.5-0.2,3-0.6,4.4-1.2l0.7,0.9
	c-0.6,0.2-1.2,0.4-1.8,0.6v2.7h1.6v0.8c1.1-1.5,1.9-3.2,2.5-4.9l1.1,0.3c-0.3,0.8-0.6,1.6-1,2.3h5.8v1h-2.6v1.9h2.2v1h-2.2v1.9h2.3
	v1h-2.3v2h2.8L884.7,1210.3z M880.8,1201.4h-2.4v1.9h2.4V1201.4z M880.8,1204.3h-2.4v1.9h2.4V1204.3z M878.4,1209.3h2.4v-2h-2.4
	V1209.3z M881.3,1200.3c-0.3-0.7-0.6-1.5-1-2.1l0.9-0.4c0.4,0.6,0.8,1.3,1.1,2L881.3,1200.3z"/>
<path class="st1" d="M899.4,1198.3v13.1h-1.1v-0.6H888v0.6h-1v-13.1H899.4z M898.3,1209.7v-10.4H888v10.4H898.3z M893.7,1207.8
	c0,0.2,0,0.5,0,0.7c-1.2,0.2-2.3,0.6-3.4,1c-0.1-0.2-0.2-0.5-0.3-0.7c0.4-0.1,0.6-0.4,0.6-0.8v-1.1c-0.5,0.2-1.1,0.4-1.6,0.5
	c-0.2-0.2-0.4-0.5-0.6-0.7c1.2-0.3,2.3-0.7,3.4-1.2h-2.1v-2.2h7v2.2h-3.6c-0.5,0.4-1.1,0.7-1.7,1v1.8L893.7,1207.8z M897.6,1202.8
	h-8.8v-0.7h3.9v-0.9h-3v-0.7h3v-0.8h1v0.8h3.1v0.7h-3.1v0.9h3.9L897.6,1202.8z M890.7,1205h5v-1h-5V1205z M897.5,1206.4
	c-0.5,0.4-1.1,0.7-1.7,1c0.7,0.5,1.3,0.9,1.7,1.3l-0.7,0.5c-1.3-1-2.6-2-4-2.8l0.7-0.4c0.5,0.3,1.1,0.7,1.7,1c0.6-0.3,1.1-0.6,1.6-1
	L897.5,1206.4z"/>
<path class="st3" d="M524.7,1236.1l0.8-0.9c0.8,0.8,1.9,1.3,3,1.4c1.4,0,2.3-0.7,2.3-1.8s-0.8-1.5-1.8-2l-1.6-0.7
	c-1.3-0.4-2.2-1.5-2.2-2.8c0-1.7,1.5-2.9,3.5-2.9c1.2,0,2.4,0.5,3.2,1.4l-0.7,0.9c-0.7-0.6-1.6-1-2.5-1c-1.2,0-2.1,0.6-2.1,1.6
	s1,1.5,1.8,1.8l1.6,0.7c1.3,0.6,2.3,1.3,2.3,2.9s-1.4,3.1-3.7,3.1C527.1,1237.7,525.7,1237.1,524.7,1236.1z"/>
<path class="st3" d="M534.7,1226.5h1.4v4.6h5.1v-4.6h1.4v11h-1.4v-5.2h-5.1v5.2h-1.4V1226.5z"/>
<path class="st3" d="M545.3,1232c0-3.5,1.9-5.7,4.7-5.7s4.7,2.2,4.7,5.7s-1.9,5.7-4.7,5.7S545.3,1235.5,545.3,1232z M553.3,1232
	c0-2.8-1.3-4.4-3.3-4.4s-3.3,1.7-3.3,4.4s1.3,4.5,3.3,4.5S553.3,1234.7,553.3,1232L553.3,1232z"/>
<path class="st3" d="M557.4,1226.5h3.1c2.5,0,4.1,0.8,4.1,3.2s-1.7,3.4-4,3.4h-1.8v4.4h-1.4L557.4,1226.5z M560.4,1232
	c1.9,0,2.8-0.7,2.8-2.3s-1-2.1-2.9-2.1h-1.6v4.4H560.4z"/>
<path class="st1" d="M572.9,1224.3h0.6v15h-0.6V1224.3z"/>
<path class="st1" d="M584.8,1230.4c0.4,0.6,1.5,2.2,1.7,2.6l-0.6,0.8c-0.2-0.5-0.7-1.4-1.1-2.2v7h-1v-6.8c-0.4,1.4-1,2.8-1.7,4.1
	c-0.2-0.3-0.4-0.7-0.6-1c1.1-1.7,1.8-3.6,2.2-5.6h-1.9v-1h2v-3.2h1v3.2h1.7v1h-1.7L584.8,1230.4L584.8,1230.4z M592.7,1228.4
	c0.7,1,1.7,1.7,2.8,2.3c-0.3,0.2-0.5,0.5-0.7,0.8c-0.6-0.3-1.1-0.7-1.6-1.2v1.8h-4.8v-1.8c-0.5,0.5-1,0.8-1.6,1.2
	c-0.2-0.3-0.4-0.5-0.7-0.7c1.1-0.6,2-1.4,2.7-2.4h-2.2v-0.9h2.7c0.1-0.3,0.3-0.7,0.4-1c-0.9,0.1-1.8,0.1-2.6,0.1
	c0-0.3-0.1-0.5-0.2-0.8c2.3,0,4.5-0.3,6.7-0.7l0.7,0.8c-1.1,0.2-2.3,0.4-3.5,0.5c-0.1,0.3-0.2,0.7-0.4,1h4.7v0.9L592.7,1228.4z
	 M594.9,1237.5c0,0.5-0.1,0.8-0.5,1c-0.6,0.2-1.3,0.2-1.9,0.2c-0.1-0.3-0.2-0.6-0.4-0.9c0.7,0,1.3,0,1.5,0s0.3-0.1,0.3-0.2v-3.9h-6
	v5h-1v-5.9h8.1L594.9,1237.5z M589.8,1237.2v0.7H589v-3.4h3.8v2.8L589.8,1237.2L589.8,1237.2z M590,1228.4c-0.2,0.3-0.4,0.6-0.6,0.9
	h2.9c-0.2-0.3-0.4-0.6-0.6-0.9H590z M592.2,1230h-2.8v1.3h2.8V1230z M589.8,1235.2v1.3h2.1v-1.3H589.8z"/>
<path class="st1" d="M603.2,1236.5c-2.1,0.5-4.4,1-6,1.3l-0.3-1c1.1-0.2,2.7-0.5,4.3-0.9l-0.8-0.2c0.3-1,0.5-2,0.7-3l1.1,0.3
	c-0.3,1-0.6,2.2-0.9,3l1.7-0.4L603.2,1236.5z M603,1226.8h-5.9v-1h5.9V1226.8z M602.6,1232.2h-5.1v-4h5.1V1232.2z M598.4,1235.8
	c0-1-0.2-1.9-0.6-2.8l0.9-0.2c0.4,0.9,0.6,1.8,0.6,2.8L598.4,1235.8z M601.6,1229.1h-3.1v2.2h3.1V1229.1z M606.2,1236.7
	c-1,0.9-2.1,1.5-3.3,2c-0.2-0.3-0.5-0.5-0.7-0.7c1.1-0.4,2.1-1,3-1.8L606.2,1236.7z M605.9,1228.1c0.1-0.4,0.2-1,0.3-1.4h-2.8v-1
	h7.2v1h-3.1c-0.2,0.5-0.3,1-0.4,1.4h3.1v7.8H604v-7.8H605.9z M609,1228.9h-4.2v1.4h4.1L609,1228.9z M609,1231.2h-4.2v1.5h4.1
	L609,1231.2z M609,1233.5h-4.2v1.5h4.1L609,1233.5z M608.3,1236.2c0.9,0.5,1.8,1.2,2.6,1.8l-0.9,0.6c-0.8-0.7-1.6-1.3-2.5-1.9
	L608.3,1236.2z"/>
<path class="st1" d="M620.1,1231.1c-0.8,0.6-1.7,1.2-2.6,1.8v0.7h6.6v1h-6.6v2.1c0,0.6,0.2,0.7,1.5,0.7h4.3c1.1,0,1.2-0.3,1.4-2
	c0.3,0.2,0.7,0.3,1.1,0.4c-0.2,2.1-0.6,2.6-2.4,2.6H619c-2,0-2.6-0.3-2.6-1.7v-3.1c-1.1,0.6-2.3,1.2-3.5,1.7c-0.2-0.4-0.5-0.7-0.8-1
	c2.2-0.8,4.2-1.8,6.1-3.1h-5.8v-1h5.1v-2h-3.8v-1h3.8v-2h1.1v2h3.7v0.7c0.6-0.7,1.2-1.4,1.8-2.1l1,0.5c-1.1,1.5-2.3,2.8-3.7,4h4.3v1
	L620.1,1231.1z M619.7,1230.1c0.8-0.6,1.6-1.3,2.3-2h-3.5v2H619.7z"/>
<path class="st1" d="M631.5,1228.3c-0.4,0.8-0.8,1.5-1.3,2.2v8.1h-1v-6.8c-0.4,0.5-0.9,0.9-1.3,1.3c-0.2-0.3-0.4-0.7-0.7-1
	c1.4-1.2,2.5-2.6,3.3-4.3L631.5,1228.3z M631.1,1225.3c-0.8,1.3-1.8,2.5-3.1,3.4c-0.2-0.3-0.4-0.6-0.6-0.8c1.1-0.8,2-1.8,2.7-3
	L631.1,1225.3z M637.1,1236.7c-2.2,0.3-4.5,0.6-6.1,0.8l-0.1-1c0.7-0.1,1.6-0.2,2.6-0.3v-2.3h-2.2v-1h2.2v-1.8h1.1v1.8h2.2v1h-2.2
	v2.2l2.5-0.3V1236.7z M633.5,1227.7h-2v-1h2v-1.9h1v1.9h2v1h-2v2h2.3v1h-5.6v-1h2.3V1227.7z M641.2,1230.7h-1.4v6.4
	c0,0.6-0.1,1-0.5,1.1c-0.7,0.2-1.5,0.3-2.2,0.2c-0.1-0.4-0.2-0.8-0.3-1.1c0.8,0,1.5,0,1.8,0s0.3-0.1,0.3-0.3v-6.4h-1.6v-1h4.1
	L641.2,1230.7z M641,1226.7h-3.8v-1h3.8V1226.7z"/>
<path class="st1" d="M648.1,1233.1l-1,0.8c-1-1.2-2.1-2.3-3.3-3.3l1-0.8C646,1230.8,647.1,1231.9,648.1,1233.1z"/>
<path class="st1" d="M653.8,1230.4c0.4,0.6,1.5,2.2,1.7,2.6l-0.6,0.8c-0.2-0.5-0.7-1.4-1.1-2.2v7h-1v-6.8c-0.4,1.4-1,2.8-1.7,4.1
	c-0.2-0.3-0.4-0.7-0.6-1c1.1-1.7,1.8-3.6,2.2-5.6h-1.9v-1h2v-3.2h1v3.2h1.7v1h-1.7L653.8,1230.4L653.8,1230.4z M661.7,1228.4
	c0.7,1,1.7,1.7,2.8,2.3c-0.3,0.2-0.5,0.5-0.7,0.8c-0.6-0.3-1.1-0.7-1.6-1.2v1.8h-4.8v-1.8c-0.5,0.5-1,0.8-1.6,1.2
	c-0.2-0.3-0.4-0.5-0.7-0.7c1.1-0.6,2-1.4,2.7-2.4h-2.2v-0.9h2.7c0.1-0.3,0.3-0.7,0.4-1c-0.9,0.1-1.8,0.1-2.6,0.1
	c0-0.3-0.1-0.5-0.2-0.8c2.3,0,4.5-0.3,6.7-0.7l0.7,0.8c-1.1,0.2-2.3,0.4-3.5,0.5c-0.1,0.3-0.2,0.7-0.4,1h4.7v0.9L661.7,1228.4z
	 M663.9,1237.5c0,0.5-0.1,0.8-0.5,1c-0.6,0.2-1.3,0.2-1.9,0.2c-0.1-0.3-0.2-0.6-0.4-0.9c0.7,0,1.3,0,1.5,0s0.3-0.1,0.3-0.2v-3.9h-6
	v5h-1v-5.9h8.1L663.9,1237.5z M658.8,1237.2v0.7H658v-3.4h3.8v2.8L658.8,1237.2L658.8,1237.2z M659,1228.4c-0.2,0.3-0.4,0.6-0.6,0.9
	h2.9c-0.2-0.3-0.4-0.6-0.6-0.9H659z M661.2,1230h-2.8v1.3h2.8V1230z M658.8,1235.2v1.3h2.1v-1.3H658.8z"/>
<path class="st1" d="M672.2,1236.5c-2.1,0.5-4.4,1-6,1.3l-0.3-1c1.1-0.2,2.7-0.5,4.3-0.9l-0.8-0.2c0.3-1,0.5-2,0.7-3l1.1,0.3
	c-0.3,1-0.6,2.2-0.9,3l1.7-0.4L672.2,1236.5z M672,1226.8h-5.9v-1h5.9V1226.8z M671.6,1232.2h-5.1v-4h5.1V1232.2z M667.4,1235.8
	c0-1-0.2-1.9-0.6-2.8l0.9-0.2c0.4,0.9,0.6,1.8,0.6,2.8L667.4,1235.8z M670.6,1229.1h-3.1v2.2h3.1V1229.1z M675.2,1236.7
	c-1,0.9-2.1,1.5-3.3,2c-0.2-0.3-0.5-0.5-0.7-0.7c1.1-0.4,2.1-1,3-1.8L675.2,1236.7z M674.9,1228.1c0.1-0.4,0.2-1,0.3-1.4h-2.8v-1
	h7.2v1h-3.1c-0.2,0.5-0.3,1-0.4,1.4h3.1v7.8H673v-7.8H674.9z M678,1228.9h-4.2v1.4h4.1L678,1228.9z M678,1231.2h-4.2v1.5h4.1
	L678,1231.2z M678,1233.5h-4.2v1.5h4.1L678,1233.5z M677.3,1236.2c0.9,0.5,1.8,1.2,2.6,1.8l-0.9,0.6c-0.8-0.7-1.6-1.3-2.5-1.9
	L677.3,1236.2z"/>
<path class="st1" d="M686,1228c-0.4,0.9-0.9,1.8-1.4,2.7v8h-1.1v-6.5c-0.5,0.6-1.1,1.2-1.7,1.8c-0.3-0.3-0.5-0.6-0.8-0.8
	c1.7-1.5,3.1-3.3,3.9-5.4L686,1228z M694.7,1227.7h-13.1v-1h6.3c-0.2-0.4-0.5-1-0.8-1.4l1-0.3c0.4,0.6,0.7,1.1,1,1.8h5.6V1227.7z
	 M694.3,1229.7c-0.5,2.2-1.7,4.2-3.3,5.9c1.2,1,2.6,1.8,4.1,2.2c-0.3,0.3-0.6,0.6-0.8,1c-1.5-0.5-2.9-1.4-4.1-2.4
	c-1.3,1.1-2.7,1.9-4.3,2.4c-0.2-0.3-0.4-0.6-0.7-0.9c1.5-0.5,3-1.2,4.3-2.2c-0.8-0.9-1.6-1.9-2.1-3c-0.4,0.5-0.9,1-1.4,1.4
	c-0.2-0.3-0.5-0.5-0.8-0.8c1.7-1.4,3-3.3,3.8-5.4l1.1,0.3c-0.2,0.5-0.4,0.9-0.7,1.4h4l0.2-0.1L694.3,1229.7z M688.9,1230.4
	c-0.3,0.4-0.6,0.9-0.9,1.3c0.6,1.2,1.3,2.2,2.2,3.2c1.3-1.2,2.2-2.8,2.7-4.4L688.9,1230.4z M690.7,1233.2c-0.5-0.6-1.1-1.2-1.7-1.8
	l0.7-0.6c0.6,0.5,1.2,1.1,1.8,1.7L690.7,1233.2z"/>
<path class="st1" d="M703.9,1228.2v2h4.9v5.2c0,0.7-0.2,1-0.6,1.2c-0.9,0.2-1.7,0.3-2.6,0.2c-0.1-0.4-0.2-0.8-0.4-1.1
	c1,0,1.9,0,2.2,0s0.3-0.1,0.3-0.3v-4.1H704v7.3h-1.1v-7.3h-3.5v5.6h-1.1v-6.7h4.6v-2h-6.1v-1.1h6.4c-0.3-0.7-0.6-1.4-1-2l1.1-0.3
	c0.5,0.7,0.9,1.4,1.2,2.2l-0.2,0.1h6v1.1L703.9,1228.2z"/>
<path class="st1" d="M717.1,1233.1l-1,0.8c-1-1.2-2.1-2.3-3.3-3.3l1-0.8C715,1230.8,716.1,1231.9,717.1,1233.1z"/>
<path class="st1" d="M727,1225.4c1.6,2.2,3.8,4,6.3,5.1c-0.3,0.3-0.5,0.6-0.8,1c-2.4-1.2-4.5-2.9-6.2-5c-1.7,2.1-3.8,3.8-6.2,5.1
	c-0.2-0.3-0.4-0.6-0.7-0.9c2.1-1.1,4-2.5,5.6-4.2h-2.7v-1L727,1225.4z M727,1237.2h5.8v1h-12.7v-1h5.7v-2.5h-4.2v-1h4.2v-2.3h-3.5
	v-1h8.4v1H727v2.3h4.3v1H727V1237.2z"/>
<path class="st1" d="M739.4,1226.6v12h-1v-2.8c-1.2,0.2-2.3,0.4-3.3,0.6l-0.2-1l0.9-0.1v-8.7H735v-1h5v1H739.4z M738.4,1226.6h-1.7
	v2.1h1.7V1226.6z M738.4,1229.6h-1.7v2.2h1.7V1229.6z M738.4,1234.9v-2.2h-1.7v2.5L738.4,1234.9z M743.4,1229.5
	c0.3,0.8,0.6,1.6,0.8,2.4l-0.7,0.2c0-0.2-0.1-0.5-0.2-0.8c-1.1,0-2.2,0.2-3.2,0.5c-0.1-0.3-0.2-0.7-0.3-1c0.4-0.1,0.7-0.4,0.9-0.7
	c0.4-0.4,0.7-0.9,1-1.3c-0.5,0-1,0.1-1.5,0.2c-0.1-0.3-0.2-0.7-0.3-1c0.2,0,0.4-0.2,0.6-0.5c0.6-0.8,1-1.6,1.4-2.5l0.8,0.4
	c-0.4,1-1,1.9-1.6,2.7l1.2-0.1c0.2-0.4,0.5-0.9,0.8-1.3l0.8,0.4c-0.8,1.3-1.7,2.5-2.7,3.7l2-0.2c-0.1-0.3-0.2-0.7-0.3-1
	L743.4,1229.5z M742.7,1232.3h1v2.3c0.1,1.8-0.9,3.4-2.6,4.1c-0.2-0.3-0.4-0.5-0.6-0.8c1.1-0.4,1.9-1.3,2.1-2.4h-2.1v-3.3h0.9v2.3
	h1.3L742.7,1232.3L742.7,1232.3z M747.7,1229.3c0.4,0.8,0.8,1.9,1,2.5l-0.7,0.3c-0.1-0.3-0.2-0.5-0.3-0.8c-1.1,0.1-2.2,0.3-3.3,0.6
	c-0.1-0.3-0.1-0.7-0.2-1c0.2,0,0.5-0.3,0.8-0.7c0.2-0.2,0.5-0.7,1-1.4c-0.5,0-1.1,0.1-1.6,0.2c-0.1-0.3-0.2-0.7-0.3-1
	c0.2-0.1,0.5-0.3,0.6-0.5c0.5-0.7,0.9-1.5,1.2-2.3l0.8,0.4c-0.4,0.9-0.9,1.8-1.5,2.6l1.2-0.1c0.2-0.4,0.4-0.8,0.6-1.2l0.8,0.4
	c-0.6,1.3-1.4,2.5-2.3,3.6l1.9-0.2c-0.1-0.4-0.3-0.7-0.4-1L747.7,1229.3z M747,1232.4h0.9v3.8H747v-0.6h-1.3v3.1h-1v-6.4h1v2.3h1.3
	V1232.4z"/>
<path class="st1" d="M755.5,1233.1l-1,0.8c-1-1.2-2.1-2.3-3.3-3.3l1-0.8C753.4,1230.8,754.5,1231.9,755.5,1233.1z"/>
<path class="st1" d="M765.4,1228.2v2h4.9v5.2c0,0.7-0.2,1-0.6,1.2c-0.9,0.2-1.7,0.3-2.6,0.2c-0.1-0.4-0.2-0.8-0.4-1.1
	c1,0,1.9,0,2.2,0s0.3-0.1,0.3-0.3v-4.1h-3.7v7.3h-1.1v-7.3h-3.5v5.6h-1.1v-6.7h4.6v-2h-6.1v-1.1h6.4c-0.3-0.7-0.6-1.4-1-2l1.1-0.3
	c0.5,0.7,0.9,1.4,1.2,2.2l-0.2,0.1h6v1.1L765.4,1228.2z"/>
<path class="st1" d="M778.1,1233.8c-1.5,0.8-3.2,1.6-4.4,2.2l-0.4-1.1c0.6-0.2,1.3-0.5,2-0.9v-4.7h-1.8v-1h1.8v-3.1h1v3.1h1.6v1
	h-1.5v4.2l1.5-0.7L778.1,1233.8z M780.9,1232c-0.2,0.4-0.4,0.7-0.7,1.1h6.5c0,0.1,0,0.3,0,0.4c-0.2,3.1-0.5,4.3-0.9,4.7
	c-0.2,0.2-0.5,0.4-0.8,0.4s-0.9,0-1.5,0c0-0.3-0.1-0.6-0.3-0.9c0.6,0,1,0.1,1.3,0.1s0.3,0,0.5-0.2s0.5-1.2,0.7-3.6h-1.2
	c-0.6,1.8-1.6,3.4-3.1,4.7c-0.2-0.3-0.5-0.5-0.8-0.7c1.3-1,2.3-2.4,2.9-4H782c-0.9,1.6-2.1,3-3.7,4c-0.2-0.3-0.4-0.5-0.7-0.7
	c1.4-0.8,2.5-2,3.4-3.4h-1.5c-0.6,0.7-1.3,1.2-2,1.7c-0.2-0.3-0.5-0.5-0.8-0.7c1.2-0.7,2.3-1.8,3-3h-2.1v-0.9h9.4v0.9L780.9,1232z
	 M786,1230.3h-6.9v-4.8h6.9V1230.3z M785,1226.3h-4.8v1.2h4.8V1226.3z M785,1228.3h-4.8v1.2h4.8V1228.3z"/>
<path class="st1" d="M793.9,1233.1l-1,0.8c-1-1.2-2.1-2.3-3.3-3.3l1-0.8C791.8,1230.8,792.9,1231.9,793.9,1233.1z"/>
<path class="st1" d="M800.1,1232.1c-0.3,1.3-0.7,2.6-1.2,3.9c0.3,0.2,0.6,0.4,1.2,0.8c1.3,0.6,2.8,0.9,4.2,0.8c1.9,0,4.3-0.2,6-0.3
	c-0.2,0.4-0.3,0.8-0.3,1.2c-1.1,0.1-3.9,0.2-5.7,0.2c-1.5,0.1-3-0.2-4.4-0.8c-0.6-0.4-1.2-0.9-1.5-0.9s-0.8,0.9-1.3,1.9l-0.8-1
	c0.4-0.6,0.9-1.2,1.5-1.7c0.5-1,0.9-2,1.1-3.1h-2c0.4-0.9,0.9-2.2,1.3-3.3h-1.7v-1h3.1c-0.4,1.1-0.8,2.3-1.2,3.4h1h0.2L800.1,1232.1
	z M798.1,1227.8c-0.2-0.7-0.5-1.7-0.8-2.5l1-0.3c0.2,0.8,0.6,1.8,0.8,2.4L798.1,1227.8z M804.4,1235.2h-4v-0.9h4v-1.1h-3.3v-4.8h3.3
	v-1.2h-4v-0.9h4v-1.3h1.1v1.3h4.3v0.9h-4.3v1.1h3.5v4.9h-3.5v1.1h4.5v0.9h-4.5v1.8h-1.1V1235.2z M802.1,1230.4h2.3v-1.2h-2.3V1230.4
	z M804.4,1232.4v-1.2h-2.3v1.2H804.4z M805.5,1229.2v1.2h2.4v-1.2H805.5z M807.9,1231.2h-2.4v1.2h2.4V1231.2z"/>
<path class="st1" d="M817.6,1236.9c-1.9,0.4-3.9,0.9-5.4,1.2l-0.3-1c0.7-0.1,1.5-0.3,2.5-0.5v-4.3h-2.3v-1h2.3v-1.6H813v-0.8
	c-0.3,0.3-0.6,0.5-0.9,0.8c-0.1-0.4-0.3-0.7-0.5-1.1c1.4-1,2.5-2.2,3.3-3.7l0.9,0.4c-0.1,0.2-0.2,0.4-0.4,0.7c0.9,0.6,1.8,1.3,2.6,2
	l-0.5,0.9c-0.8-0.8-1.6-1.5-2.5-2.1c-0.5,0.7-1.1,1.4-1.8,2.1h3.9v1h-1.6v1.6h2.1v1h-2.1v4.1l2.1-0.4V1236.9z M813.1,1233.1
	c0.3,0.9,0.5,1.8,0.6,2.8l-0.8,0.2c-0.1-0.9-0.3-1.9-0.6-2.8L813.1,1233.1z M815.9,1235.7c0.3-0.9,0.5-1.8,0.7-2.7l0.9,0.3
	c-0.3,0.9-0.6,2-0.9,2.7L815.9,1235.7z M820.9,1236.3c-0.9,1-1.9,1.8-3.1,2.4c-0.2-0.3-0.5-0.5-0.8-0.7c1.1-0.4,2.1-1.1,2.9-2
	L820.9,1236.3z M818.9,1228.5c-0.3-0.9-0.7-1.8-1.2-2.7l0.9-0.3c0.5,0.8,1,1.7,1.3,2.6L818.9,1228.5z M820.7,1228.7v-3.7h1v3.7h2.8
	v7.1h-6.4v-7.1H820.7z M823.5,1229.6h-4.4v1.2h4.4V1229.6z M823.5,1231.6h-4.4v1.2h4.4V1231.6z M823.5,1233.6h-4.4v1.2h4.4V1233.6z
	 M822.6,1236c1,0.7,2,1.4,2.8,2.2l-1,0.4c-0.8-0.8-1.7-1.5-2.6-2.2L822.6,1236z M824.7,1225.8c-0.4,1-0.9,1.9-1.5,2.8
	c-0.3-0.2-0.6-0.3-0.8-0.5c0.6-0.8,1-1.7,1.4-2.6L824.7,1225.8z"/>
<path class="st1" d="M831.1,1236.7c1.1,0.4,2.3,0.5,3.5,0.5c0.7,0,5.3,0,6.2,0c-0.2,0.3-0.4,0.7-0.5,1.1h-5.7c-3.2,0-5-0.5-6.1-2.5
	c-0.1,1-0.4,2-0.9,2.9c-0.3-0.2-0.6-0.4-0.9-0.5c0.9-1.5,1-3.8,1-6.5l1,0.1c0,0.7,0,1.5-0.1,2.1c0.2,0.8,0.7,1.6,1.3,2.2v-5.5H827
	v-1h2.7v-1.8h-2.4v-1h2.4v-1.8h1v1.8h2.3v1h-2.3v1.8h2.6v0.7c1.3-0.8,2.2-2.2,2.2-3.7h-2.1v-1h6.5c0,0,0,0.3,0,0.5
	c-0.1,2.7-0.3,3.7-0.6,4.1c-0.2,0.2-0.5,0.4-0.9,0.4c-0.5,0-1.1,0-1.6,0c0-0.3-0.1-0.7-0.3-1c0.6,0.1,1.2,0.1,1.4,0.1s0.3,0,0.5-0.1
	c0.2-0.2,0.3-1,0.4-2.9h-2.3c-0.1,1.9-1.2,3.6-2.8,4.6c-0.2-0.2-0.4-0.4-0.6-0.5H831v2.1h2.3v1H831L831.1,1236.7z M834.2,1231.3h5.7
	v4.6h-5.7V1231.3z M835.2,1235h3.6v-2.8h-3.6V1235z"/>
<path class="st1" d="M855.7,1226.6v1h-13.1v-1h6.2c-0.2-0.4-0.3-1-0.5-1.4l1-0.3c0.2,0.5,0.5,1.2,0.6,1.7L855.7,1226.6L855.7,1226.6
	z M854.9,1237.4c0,0.6-0.2,0.8-0.6,1c-0.8,0.2-1.6,0.2-2.5,0.2c-0.1-0.3-0.2-0.6-0.3-0.8c0.9,0,1.8,0,2,0s0.3-0.1,0.3-0.3v-6.8h-3v1
	c0,0.3,0,0.4,0.3,0.4h1.3c0.3,0,0.5,0,0.8-0.1c0,0.2,0,0.6,0.1,0.8c-0.3,0.1-0.6,0.1-0.9,0.1h-1.6c-0.9,0-1.1-0.4-1.1-1.3v-1H848
	c-0.2,1.6-0.9,2.4-3,2.8c-0.1-0.3-0.3-0.6-0.5-0.8c1.8-0.3,2.3-0.9,2.5-2.1h-2.6v8h-1v-8.9h6.9c0.4-0.6,0.8-1.3,1.1-2l1.1,0.3
	c-0.4,0.6-0.8,1.3-1.2,1.8h3.4L854.9,1237.4z M846.8,1227.6c0.3,0.5,0.7,1.1,0.9,1.7l-1,0.4c-0.2-0.4-0.6-1.2-0.9-1.7L846.8,1227.6z
	 M847.4,1236.7v0.7h-1v-4.1h5.5v3.4H847.4z M847.4,1234.2v1.7h3.6v-1.7H847.4z"/>
<path class="st1" d="M863.3,1233.3c-0.3-0.5-1.1-1.6-1.7-2.3v7.7h-1.1v-7.3c-0.6,1.7-1.4,3.2-2.5,4.6c-0.2-0.4-0.4-0.7-0.6-1
	c1.3-1.7,2.3-3.6,2.8-5.6h-2.5v-1.1h2.7v-3.2h1.1v3.2h2.1v1h-2.1v0.3c0.5,0.5,2.1,2.3,2.5,2.7L863.3,1233.3z M868.5,1229.3
	c0.6,2.2,1.6,4.3,3,6.1c-0.3,0.2-0.6,0.5-0.8,0.9c-1.1-1.5-1.9-3.2-2.5-5v7.4h-1.1v-7.4c-0.7,1.9-1.7,3.7-3.1,5.2
	c-0.2-0.4-0.4-0.7-0.7-1c1.6-1.8,2.8-3.9,3.5-6.2h-2.5v-1h2.7v-3.2h1.1v3.2h2.8v1H868.5z"/>
<path class="st1" d="M886.4,1236.9v1.1h-13.3v-1.1h7.3c0.9-2.3,1.7-4.8,2.2-7.2l1.3,0.2c-0.6,2.4-1.4,4.7-2.3,7H886.4z
	 M885.8,1228.9h-12v-1.1h12V1228.9z M877.2,1236.3c-0.3-2.1-0.8-4.2-1.4-6.3l1.1-0.3c0.6,2.1,1.1,4.2,1.5,6.3L877.2,1236.3z
	 M879.4,1227.6c-0.2-0.8-0.4-1.6-0.7-2.4l1.1-0.3c0.3,0.8,0.6,1.6,0.8,2.4L879.4,1227.6z"/>
<path class="st3" d="M527.8,1255h-3.3v-1.2h8v1.2h-3.3v9.8h-1.4V1255z"/>
<path class="st3" d="M540.8,1264.8l-2.7-4.7h-2v4.7h-1.4v-11h3.5c2.2,0,3.8,0.8,3.8,3.1c0.1,1.5-1,2.8-2.5,3.1l2.8,4.8H540.8z
	 M536.2,1259h1.8c1.7,0,2.7-0.7,2.7-2.1s-1-2-2.7-2h-1.8V1259z"/>
<path class="st3" d="M549.6,1261.5h-4l-1.1,3.4h-1.4l3.7-11h1.5l3.7,11h-1.5L549.6,1261.5z M549.2,1260.4l-0.5-1.7
	c-0.4-1.2-0.8-2.4-1.1-3.7h-0.1c-0.3,1.3-0.7,2.5-1.1,3.7l-0.5,1.7H549.2z"/>
<path class="st3" d="M553.9,1253.8h6.3v1.2h-5v3.7h4.2v1.2h-4.2v4.9h-1.4v-11H553.9z"/>
<path class="st3" d="M562.5,1253.8h6.3v1.2h-5v3.7h4.2v1.2h-4.2v4.9h-1.4L562.5,1253.8z"/>
<path class="st3" d="M571.1,1253.8h1.4v11h-1.4V1253.8z"/>
<path class="st3" d="M575.2,1259.3c0-3.6,2.1-5.7,4.9-5.7c1.2,0,2.2,0.5,3,1.4l-0.8,0.9c-0.6-0.6-1.4-1-2.2-1
	c-2.1,0-3.5,1.7-3.5,4.4s1.3,4.5,3.4,4.5c1,0,1.9-0.5,2.5-1.2l0.8,0.9c-0.8,1-2.1,1.6-3.4,1.6C577.2,1265,575.2,1262.9,575.2,1259.3
	z"/>
<path class="st1" d="M591.4,1251.6h0.6v15h-0.6V1251.6z"/>
<path class="st1" d="M609.3,1254c1.5,1.3,2.8,2.7,4,4.3l-1,0.7c-0.3-0.5-0.6-0.9-0.9-1.3c-8.6,0.5-9.4,0.5-10,0.7
	c-0.1-0.4-0.2-0.7-0.4-1.1c0.5-0.2,0.9-0.5,1.2-0.9c1.3-1.3,2.5-2.7,3.5-4.2l1.1,0.5c-1.1,1.6-2.4,3.1-3.8,4.4l7.7-0.4
	c-0.7-0.8-1.4-1.5-2.2-2.2L609.3,1254z M602.2,1259.7h9.5v6.2h-1.2v-0.7h-7.2v0.8h-1.1V1259.7z M603.3,1260.8v3.3h7.2v-3.3H603.3z"
	/>
<path class="st1" d="M616.1,1263.7h2.5v-8.2h-2v-0.9c0.8-0.1,1.6-0.4,2.3-0.8h1v9.9h2.2v1.1h-6V1263.7z"/>
<path class="st1" d="M628.3,1261.4c0-0.3-0.1-0.6-0.2-0.9c-3,0.4-3.5,0.5-3.7,0.7c-0.1-0.4-0.2-0.7-0.4-1.1c0.3-0.1,0.7-0.4,1.1-1
	c0.4-0.5,0.9-1.1,1.2-1.7c-0.7,0-1.4,0.2-2.1,0.4c-0.1-0.2-0.2-0.7-0.4-1c0.3-0.1,0.5-0.4,0.8-0.8c0.8-1.2,1.4-2.4,1.9-3.8l1,0.4
	c-0.6,1.4-1.4,2.7-2.3,4l1.6-0.2c0.4-0.6,0.8-1.3,1.1-2l1,0.6c-1,1.7-2.1,3.3-3.3,4.8l2.2-0.3c-0.1-0.5-0.3-1-0.5-1.5l0.9-0.2
	c0.4,1,0.7,2.1,0.9,3.2L628.3,1261.4z M625.6,1262c-0.1,1.3-0.4,2.5-0.8,3.7c-0.3-0.1-0.6-0.2-0.9-0.3c0.4-1.1,0.6-2.3,0.7-3.5
	L625.6,1262z M627,1261.8c0.2,1,0.3,2.3,0.4,3.2l-0.9,0.2c0-1.1-0.2-2.1-0.3-3.2L627,1261.8z M628.3,1261.5c0.3,0.8,0.6,1.6,0.8,2.4
	l-0.8,0.3c-0.2-0.8-0.4-1.7-0.7-2.4L628.3,1261.5z M632.8,1260.5c-0.4,2-1.6,3.7-3.4,4.7c-0.2-0.3-0.4-0.6-0.7-0.8
	c1.3-0.7,2.3-1.8,2.8-3.2h-1.9v-0.9h2.4l0.2-0.1L632.8,1260.5z M637.5,1260.3c-0.7,0.6-1.4,1.3-2.1,1.8c0.6,1,1.4,1.8,2.4,2.3
	c-0.3,0.3-0.5,0.6-0.7,0.9c-1.2-0.8-2.2-2-2.8-3.4v2.8c0,0.6-0.1,0.9-0.5,1c-0.6,0.2-1.3,0.3-2,0.2c-0.1-0.3-0.2-0.7-0.3-1
	c0.7,0,1.3,0,1.5,0s0.3-0.1,0.3-0.2v-5.6h-3v-5.2h2.3c0.2-0.5,0.4-1,0.5-1.6l1.2,0.3c-0.2,0.4-0.4,0.9-0.6,1.3h3.4v5.2h-2.8v0.5
	c0.2,0.6,0.4,1.2,0.7,1.7c0.6-0.5,1.2-1.1,1.7-1.7L637.5,1260.3z M631.2,1256h4.7v-1.3h-4.7V1256z M631.2,1258.2h4.7v-1.3h-4.7
	V1258.2z"/>
<path class="st1" d="M644.6,1260.4l-1,0.8c-1-1.2-2.1-2.3-3.3-3.3l1-0.8C642.5,1258.1,643.6,1259.2,644.6,1260.4z"/>
<path class="st1" d="M650.1,1260.2v4.5c0,0.6-0.1,0.9-0.5,1.1c-0.6,0.2-1.2,0.3-1.9,0.2c-0.1-0.3-0.2-0.7-0.3-1h1.4
	c0.2,0,0.3,0,0.3-0.3v-4.2l-1.8,0.6l-0.3-1.1c0.6-0.2,1.3-0.4,2.1-0.6v-3.1h-1.9v-1h1.8v-3h1v3h1.6v1H650v2.8c0.5-0.2,1-0.3,1.5-0.5
	l0.2,1L650.1,1260.2z M656.6,1260.6v1.3h3.4v0.9h-3.4v2c0.5,0.1,0.9,0.1,1.4,0.1h3c-0.2,0.3-0.3,0.6-0.3,1H658
	c-2.3,0-3.9-0.4-4.9-2.2c-0.3,0.9-0.9,1.7-1.6,2.4c-0.3-0.2-0.5-0.5-0.8-0.6c1.2-1.2,1.9-2.9,2.1-4.6l1,0.1c-0.1,0.5-0.2,1-0.3,1.4
	c0.4,1,1.1,1.8,2.2,2.1v-4h-3v-0.9h3v-1.2h-3.9v-0.9h3.9v-1.1h-3v-0.9h3v-1H652v-0.9h3.7v-1.3h1v1.3h4v0.9h-4v1h3.2v2h1.1v0.9h-1.1
	v2.1L656.6,1260.6z M656.6,1257.6h2.2v-1.1h-2.2V1257.6z M656.6,1259.8h2.2v-1.2h-2.2V1259.8z"/>
<path class="st1" d="M666.1,1259.5c-0.2,1.3-0.6,2.6-1.1,3.8c0.3,0.2,0.6,0.4,1.1,0.8c1.3,0.6,2.8,0.9,4.2,0.8c1.9,0,4.3-0.2,6-0.3
	c-0.2,0.4-0.3,0.8-0.3,1.2c-1.1,0.1-3.9,0.2-5.7,0.2c-1.5,0.1-3-0.2-4.4-0.8c-0.6-0.4-1.2-0.9-1.5-0.9s-0.8,1-1.3,1.9l-0.8-1
	c0.4-0.7,1-1.3,1.6-1.8c0.4-1,0.8-2,0.9-3h-2c0.4-0.9,0.9-2.2,1.3-3.3h-1.7v-1h3.2c-0.4,1.1-0.9,2.3-1.3,3.4h0.8h0.2L666.1,1259.5z
	 M664.1,1255.1c-0.2-0.7-0.5-1.7-0.8-2.4l1-0.3c0.2,0.8,0.6,1.8,0.8,2.4L664.1,1255.1z M667.4,1255.5h-1v-2.7h9.3v2.7h-1.1v-1.8
	h-7.2V1255.5z M670.5,1264.1v-1.2h-4v-0.9h4v-0.9h-3.3v-4.2h3.3v-0.9h-2.9v-0.8h2.9v-0.8h1.1v0.8h2.8v0.8h-2.8v0.9h3.3v4.2h-3.3v0.9
	h4.2v0.9h-4.2v1.2H670.5z M668.2,1258.6h2.3v-1h-2.3V1258.6z M670.5,1260.3v-1h-2.3v1H670.5z M671.6,1257.6v1h2.3v-1H671.6z
	 M673.9,1259.3h-2.3v1h2.3V1259.3z"/>
<path class="st1" d="M680.9,1257.7c0.4,0.6,1.5,2.2,1.7,2.6l-0.6,0.8c-0.2-0.5-0.7-1.4-1.1-2.2v7h-1v-6.8c-0.4,1.4-1,2.7-1.7,4
	c-0.2-0.3-0.4-0.7-0.6-1c1.1-1.7,1.8-3.6,2.2-5.6h-1.9v-1h2v-3.2h1v3.2h1.7v1h-1.7L680.9,1257.7L680.9,1257.7z M688.8,1255.7
	c0.7,1,1.7,1.7,2.8,2.3c-0.3,0.2-0.5,0.5-0.7,0.8c-0.6-0.3-1.1-0.7-1.6-1.2v1.8h-4.8v-1.8c-0.5,0.5-1,0.8-1.6,1.2
	c-0.2-0.3-0.4-0.5-0.7-0.7c1.1-0.6,2-1.4,2.7-2.4h-2.2v-0.9h2.7c0.1-0.3,0.3-0.7,0.4-1c-0.9,0.1-1.8,0.1-2.6,0.1
	c0-0.3-0.1-0.5-0.2-0.8c2.3,0,4.5-0.3,6.7-0.7l0.7,0.8c-1.1,0.2-2.3,0.4-3.5,0.5c-0.1,0.3-0.2,0.7-0.4,1h4.7v0.9L688.8,1255.7z
	 M691,1264.8c0,0.5-0.1,0.8-0.5,1c-0.6,0.2-1.3,0.2-1.9,0.2c-0.1-0.3-0.2-0.6-0.4-0.9c0.7,0,1.3,0,1.5,0s0.3-0.1,0.3-0.2v-3.9h-6v5
	h-1v-5.9h8L691,1264.8z M685.9,1264.5v0.7H685v-3.4h3.8v2.8L685.9,1264.5L685.9,1264.5z M686.1,1255.7c-0.2,0.3-0.4,0.6-0.6,0.9h2.9
	c-0.2-0.3-0.4-0.6-0.6-0.9H686.1z M688.3,1257.3h-2.8v1.3h2.8V1257.3z M685.9,1262.5v1.3h2.1v-1.3H685.9z"/>
<path class="st1" d="M699.3,1263.8c-2.1,0.5-4.4,1-6,1.3l-0.3-1c1.1-0.2,2.7-0.5,4.3-0.9l-0.8-0.2c0.3-1,0.5-2,0.7-3l1.1,0.3
	c-0.3,1-0.6,2.2-0.9,3l1.7-0.4L699.3,1263.8z M699.1,1254.1h-5.9v-1h5.9V1254.1z M698.7,1259.5h-5.1v-4h5.1V1259.5z M694.6,1263.1
	c0-1-0.2-1.9-0.6-2.8l0.9-0.2c0.4,0.9,0.6,1.8,0.6,2.8L694.6,1263.1z M697.7,1256.4h-3.1v2.2h3.1V1256.4z M702.3,1264
	c-1,0.9-2.1,1.5-3.3,2c-0.2-0.3-0.5-0.5-0.7-0.7c1.1-0.4,2.2-1,3-1.8L702.3,1264z M702,1255.4c0.1-0.4,0.2-1,0.3-1.4h-2.8v-1h7.2v1
	h-3.1c-0.2,0.5-0.3,1-0.4,1.4h3.1v7.8H700v-7.8H702z M705.1,1256.2H701v1.4h4.2L705.1,1256.2z M705.1,1258.5H701v1.5h4.2
	L705.1,1258.5z M705.1,1260.8H701v1.5h4.2L705.1,1260.8z M704.4,1263.5c0.9,0.5,1.8,1.2,2.6,1.8l-0.9,0.6c-0.8-0.7-1.6-1.3-2.5-1.9
	L704.4,1263.5z"/>
<path class="st1" d="M714.2,1262l0.1,1l-5.6,1.4l-0.3-1.1c0.9-0.2,2-0.4,3.2-0.7c0.4-2,0.8-4,1-6l1,0.2c-0.3,1.8-0.7,4-1.1,5.6
	L714.2,1262z M708.6,1255h5.8v1h-5.8V1255z M710.1,1256.7c0.4,1.8,0.6,3.5,0.8,5.3l-1,0.2c-0.1-1.8-0.4-3.6-0.7-5.3L710.1,1256.7z
	 M711.4,1254.9c-0.3-0.8-0.6-1.6-1-2.3l0.9-0.3c0.4,0.7,0.8,1.4,1.1,2.2L711.4,1254.9z M718.2,1256.4v3h3.2v6.5h-1.1v-0.7h-4.5v0.7
	h-1.1v-6.6h2.4v-7.1h1.1v3.1h3.8v1.1H718.2z M720.2,1260.4h-4.5v3.8h4.5V1260.4z"/>
<path class="st1" d="M728.9,1260.4l-1,0.8c-1-1.2-2.1-2.3-3.3-3.3l1-0.8C726.8,1258.1,727.9,1259.2,728.9,1260.4z"/>
<path class="st1" d="M740.6,1254c1.5,1.3,2.8,2.7,4,4.3l-0.9,0.7c-0.3-0.5-0.6-0.9-0.9-1.3c-8.6,0.5-9.4,0.5-10,0.7
	c-0.1-0.4-0.2-0.7-0.4-1.1c0.5-0.2,0.9-0.5,1.2-0.9c1.3-1.3,2.4-2.7,3.4-4.2l1.1,0.5c-1.1,1.6-2.4,3.1-3.8,4.4l7.7-0.4
	c-0.7-0.8-1.4-1.5-2.2-2.2L740.6,1254z M733.5,1259.7h9.5v6.2h-1.2v-0.7h-7.2v0.8h-1.1V1259.7z M734.6,1260.8v3.3h7.2v-3.3H734.6z"
	/>
<path class="st1" d="M760.2,1258.3c-0.4,1.7-0.9,3.3-1.7,4.8c0.3,1.2,0.6,1.8,0.9,1.8s0.4-0.5,0.5-2.2c0.2,0.2,0.5,0.4,0.8,0.5
	c-0.1,2.3-0.5,2.7-1.3,2.7c-0.7,0-1.2-0.6-1.5-1.7c-0.5,0.7-1,1.3-1.7,1.9c-0.2-0.3-0.5-0.5-0.7-0.7c0.3-0.3,0.6-0.5,0.9-0.8
	c-1.6,0.3-3.3,0.5-4.6,0.7l-0.1-0.9l2.2-0.3v-0.9H752v-0.8h1.7v-0.8c-0.6,0.1-1.2,0.1-1.8,0.1c0-0.2-0.1-0.5-0.2-0.7
	c1.4-0.1,2.8-0.2,4.2-0.5l0.7,0.6c-0.6,0.2-1.2,0.3-1.9,0.3v1h1.5v0.8h-1.5v0.8l1.8-0.3v0.6c0.4-0.4,0.7-0.9,1-1.3
	c-0.3-2.1-0.5-4.1-0.6-6.2h-5.3v-0.7c-0.6-0.7-1.3-1.4-2.1-2c-0.4,0.7-0.9,1.4-1.5,2.1h3.2v1h-1.3v1.6h1.7v1h-1.7v4.1l1.8-0.4
	l0.1,0.9l-4.6,1.2l-0.2-1c0.6-0.1,1.3-0.3,2.1-0.5v-4.3h-2v-1h2v-1.6h-1.3v-0.7c-0.2,0.2-0.4,0.4-0.6,0.6c-0.1-0.4-0.3-0.8-0.4-1.1
	c1.2-1,2.1-2.2,2.7-3.6l0.8,0.4c-0.1,0.2-0.2,0.4-0.3,0.6c0.8,0.6,1.5,1.2,2.1,1.9l-0.3,0.7h2.1v-1.3H752v-0.9h1.7v-1.3h1v1.3h1.6
	v0.9h-1.6v1.3h2.1c0-1.1-0.1-2.3-0.1-3.5h1.1c0,1.3,0,2.5,0,3.5h2.6v0.9h-2.6c0.1,1.9,0.2,3.5,0.3,4.7c0.4-1.1,0.8-2.2,1-3.3
	L760.2,1258.3z M747.9,1260.4c0.2,0.9,0.4,1.8,0.5,2.8l-0.7,0.2c-0.1-0.9-0.3-1.9-0.5-2.8L747.9,1260.4z M750.1,1263
	c0.3-0.9,0.5-1.8,0.6-2.7l0.8,0.3c-0.2,0.9-0.5,2-0.8,2.7L750.1,1263z M756.3,1260.1h-4.2v-2.8h4.2V1260.1z M755.4,1258.1h-2.5v1.2
	h2.5V1258.1z M759.6,1255.3c-0.3-0.9-0.8-1.7-1.3-2.4l0.8-0.4c0.6,0.7,1,1.5,1.4,2.3L759.6,1255.3z"/>
<path class="st1" d="M765.2,1257.7c0.4,0.6,1.5,2.2,1.7,2.6l-0.6,0.8c-0.2-0.5-0.7-1.4-1.1-2.2v7h-1v-6.8c-0.4,1.4-1,2.7-1.7,4
	c-0.2-0.3-0.4-0.7-0.6-1c1.1-1.7,1.8-3.6,2.2-5.6h-1.9v-1h2v-3.2h1v3.2h1.7v1h-1.7L765.2,1257.7L765.2,1257.7z M773.1,1255.7
	c0.7,1,1.7,1.7,2.8,2.3c-0.3,0.2-0.5,0.5-0.7,0.8c-0.6-0.3-1.1-0.7-1.6-1.2v1.8h-4.8v-1.8c-0.5,0.5-1,0.8-1.6,1.2
	c-0.2-0.3-0.4-0.5-0.7-0.7c1.1-0.6,2-1.4,2.7-2.4H767v-0.9h2.7c0.1-0.3,0.3-0.7,0.4-1c-0.9,0.1-1.8,0.1-2.6,0.1
	c0-0.3-0.1-0.5-0.2-0.8c2.3,0,4.5-0.3,6.7-0.7l0.7,0.8c-1.1,0.2-2.3,0.4-3.5,0.5c-0.1,0.3-0.2,0.7-0.4,1h4.7v0.9L773.1,1255.7z
	 M775.3,1264.8c0,0.5-0.1,0.8-0.5,1c-0.6,0.2-1.3,0.2-1.9,0.2c-0.1-0.3-0.2-0.6-0.4-0.9c0.7,0,1.3,0,1.5,0s0.3-0.1,0.3-0.2v-3.9h-6
	v5h-1v-5.9h8.1L775.3,1264.8z M770.2,1264.5v0.7h-0.8v-3.4h3.8v2.8L770.2,1264.5L770.2,1264.5z M770.4,1255.7
	c-0.2,0.3-0.4,0.6-0.6,0.9h2.9c-0.2-0.3-0.4-0.6-0.6-0.9H770.4z M772.6,1257.3h-2.8v1.3h2.8V1257.3z M770.2,1262.5v1.3h2.1v-1.3
	H770.2z"/>
<path class="st1" d="M783.6,1263.8c-2.1,0.5-4.4,1-6,1.3l-0.3-1c1.1-0.2,2.7-0.5,4.3-0.9l-0.8-0.2c0.3-1,0.5-2,0.7-3l1.1,0.3
	c-0.3,1-0.6,2.2-0.9,3l1.7-0.4L783.6,1263.8z M783.4,1254.1h-5.9v-1h5.9V1254.1z M783,1259.5h-5.1v-4h5.1V1259.5z M778.9,1263.1
	c0-1-0.2-1.9-0.6-2.8l0.9-0.2c0.4,0.9,0.6,1.8,0.6,2.8L778.9,1263.1z M782,1256.4h-3.1v2.2h3.1V1256.4z M786.6,1264
	c-1,0.9-2.1,1.5-3.3,2c-0.2-0.3-0.5-0.5-0.7-0.7c1.1-0.4,2.1-1,3-1.8L786.6,1264z M786.3,1255.4c0.1-0.4,0.2-1,0.3-1.4h-2.8v-1h7.2
	v1h-3.1c-0.2,0.5-0.3,1-0.4,1.4h3.1v7.8h-6.2v-7.8H786.3z M789.4,1256.2h-4.2v1.4h4.2V1256.2z M789.4,1258.5h-4.2v1.5h4.2V1258.5z
	 M789.4,1260.8h-4.2v1.5h4.2V1260.8z M788.7,1263.5c0.9,0.5,1.8,1.2,2.6,1.8l-0.9,0.6c-0.8-0.7-1.6-1.3-2.5-1.9L788.7,1263.5z"/>
<path class="st1" d="M806.2,1263.8H800v2.2h-1.1v-2.2h-6.1v-1h6.1v-1.2h-4.5v-5.8h4.5v-1.1h-5.6v-1h5.6v-1.3h1.1v1.3h5.7v1H800v1.1
	h4.6v5.8H800v1.2h6.2V1263.8z M795.5,1258.2h3.4v-1.5h-3.4V1258.2z M798.9,1260.6v-1.5h-3.4v1.5H798.9z M800,1256.6v1.6h3.5v-1.5
	L800,1256.6z M803.5,1259.1H800v1.5h3.5V1259.1z"/>
<path class="st1" d="M813.8,1262l0.1,1l-5.6,1.4l-0.3-1.1c0.9-0.2,2-0.4,3.2-0.7c0.4-2,0.8-4,1-6l1,0.2c-0.3,1.8-0.7,4-1.1,5.6
	L813.8,1262z M808.2,1255h5.8v1h-5.8V1255z M809.7,1256.7c0.4,1.8,0.6,3.5,0.8,5.3l-1,0.2c-0.1-1.8-0.4-3.6-0.7-5.3L809.7,1256.7z
	 M811,1254.9c-0.3-0.8-0.6-1.6-1-2.3l0.9-0.3c0.4,0.7,0.8,1.4,1.1,2.2L811,1254.9z M817.9,1256.4v3h3.1v6.5h-1.1v-0.7h-4.5v0.7h-1.1
	v-6.6h2.4v-7.1h1.1v3.1h3.8v1.1H817.9z M819.9,1260.4h-4.5v3.8h4.5V1260.4z"/>
<path class="st3" d="M525.5,1281.1h1.4v9.8h4.8v1.2h-6.2V1281.1z"/>
<path class="st3" d="M533.9,1281.1h1.4v11h-1.4V1281.1z"/>
<path class="st3" d="M538.6,1281.1h6.4v1.2h-5v3.7h4.2v1.2H540v4.9h-1.4V1281.1z"/>
<path class="st3" d="M547.2,1281.1h6.3v1.2h-5v3.4h4.2v1.2h-4.2v4h5.1v1.2h-6.5v-11H547.2z"/>
<path class="st1" d="M562,1278.9h0.6v15H562V1278.9z"/>
<path class="st1" d="M574.9,1283.7v9.6h-1.1v-9.6h-0.7c-0.4,1-0.9,2-1.6,2.9c-0.3-0.3-0.6-0.5-1-0.7c1.4-1.9,2.3-4,2.7-6.3l1.1,0.2
	c-0.2,1-0.5,1.9-0.8,2.8h4v1.1H574.9z M584.5,1283.7h-2.3v8.1c0,0.7-0.2,1.1-0.6,1.2c-0.8,0.2-1.7,0.3-2.5,0.2
	c-0.1-0.4-0.2-0.8-0.4-1.2c0.9,0,1.8,0,2.1,0s0.3-0.1,0.3-0.3v-8.1h-2.2c-0.4,1-0.9,2-1.6,2.8c-0.3-0.3-0.6-0.5-1-0.7
	c1.3-1.9,2.2-4,2.7-6.3l1.1,0.2c-0.2,1-0.5,1.9-0.8,2.8h5.2V1283.7z"/>
<path class="st1" d="M591.8,1287.9c-0.3-0.5-1.1-1.6-1.7-2.4v7.7h-1v-7.3c-0.6,1.7-1.4,3.2-2.5,4.6c-0.2-0.4-0.4-0.7-0.6-1
	c1.3-1.7,2.3-3.6,2.8-5.6h-2.5v-1.1h2.7v-3.2h1v3.2h2.1v1.1H590v0.3c0.5,0.5,2.1,2.3,2.5,2.7L591.8,1287.9z M596.9,1283.9
	c0.6,2.2,1.6,4.3,3,6.1c-0.3,0.2-0.6,0.5-0.8,0.9c-1.1-1.5-1.9-3.2-2.5-4.9v7.4h-1.1v-7.4c-0.7,1.9-1.7,3.7-3.1,5.2
	c-0.2-0.4-0.4-0.7-0.7-1c1.6-1.8,2.8-3.9,3.5-6.2h-2.5v-1.1h2.7v-3.2h1.1v3.2h2.8v1.1L596.9,1283.9z"/>
<path class="st1" d="M606.7,1280.4c-1,2.4-2.5,4.6-4.4,6.4c-0.3-0.3-0.6-0.6-1-0.9c1.8-1.6,3.3-3.6,4.2-5.8L606.7,1280.4z
	 M610.9,1287.5c1.2,1.6,2.3,3.3,3.4,5l-1.1,0.6c-0.2-0.4-0.5-0.9-0.8-1.4c-7.8,0.5-8.6,0.6-9.2,0.8c-0.1-0.4-0.3-0.8-0.4-1.2
	c0.4-0.1,0.8-0.6,1.4-1.3c1.5-1.8,2.7-3.8,3.8-5.9l1.2,0.5c-1.2,2.3-2.7,4.4-4.4,6.4l6.9-0.4c-0.6-0.9-1.3-1.9-1.9-2.7L610.9,1287.5
	z M611.2,1280c0.7,2.3,2.1,4.3,4,5.8c-0.3,0.3-0.6,0.6-0.9,1c-1.8-1.5-3.2-3.5-4-5.7h-2.8v-1.1L611.2,1280z"/>
<path class="st1" d="M629.7,1280.2v13h-1.1v-0.6h-10.3v0.6h-1.1v-13H629.7z M628.6,1291.6v-10.4h-10.3v10.4H628.6z M624,1289.7
	c0,0.2,0,0.5,0,0.7c-1.2,0.2-2.3,0.6-3.4,1c-0.1-0.3-0.2-0.5-0.3-0.7c0.4-0.1,0.6-0.4,0.6-0.8v-1.1c-0.5,0.2-1.1,0.4-1.6,0.5
	c-0.2-0.2-0.4-0.5-0.6-0.7c1.2-0.3,2.3-0.7,3.4-1.2H620v-2.2h7v2.2h-3.6c-0.5,0.4-1.1,0.7-1.7,1v1.8L624,1289.7z M627.9,1284.7h-8.8
	v-0.7h3.9v-0.9h-3v-0.7h3v-0.8h1v0.8h3.1v0.7H624v0.9h3.9V1284.7z M621,1286.9h5v-1h-5V1286.9z M627.8,1288.3
	c-0.5,0.4-1.1,0.7-1.7,1c0.7,0.5,1.3,0.9,1.7,1.3l-0.7,0.5c-1.3-1-2.6-2-4-2.8l0.7-0.4c0.5,0.3,1.1,0.7,1.7,1c0.6-0.3,1.1-0.6,1.6-1
	L627.8,1288.3z"/>
<path class="st1" d="M637.2,1287.7l-1,0.9c-1-1.2-2.1-2.3-3.3-3.3l1-0.9C635.1,1285.4,636.2,1286.5,637.2,1287.7z"/>
<path class="st1" d="M647.1,1282.9v2h4.9v5.2c0,0.6-0.2,1-0.6,1.2c-0.9,0.2-1.7,0.2-2.6,0.2c-0.1-0.4-0.2-0.8-0.4-1.1
	c1,0,1.9,0,2.2,0s0.3-0.1,0.3-0.3v-4.1h-3.7v7.3H646v-7.3h-3.5v5.6h-1.1v-6.7h4.6v-2h-6.1v-1.1h6.4c-0.3-0.7-0.6-1.4-1-2l1.1-0.3
	c0.5,0.7,0.9,1.4,1.2,2.2l-0.2,0.1h6v1.1L647.1,1282.9z"/>
<path class="st1" d="M668.5,1291.5v1.1h-13.3v-1.1h7.3c0.9-2.3,1.7-4.8,2.2-7.2l1.3,0.2c-0.6,2.4-1.4,4.7-2.3,7H668.5z M668,1283.5
	h-12v-1.1h12V1283.5z M659.4,1290.9c-0.3-2.1-0.8-4.2-1.4-6.3l1.1-0.3c0.6,2.1,1.1,4.2,1.5,6.3L659.4,1290.9z M661.6,1282.2
	c-0.2-0.8-0.4-1.6-0.7-2.4l1.1-0.3c0.3,0.8,0.6,1.6,0.8,2.4L661.6,1282.2z"/>
<path class="st1" d="M683.5,1280.2v13.1h-1.1v-0.7H672v0.7h-1v-13.1H683.5z M682.4,1291.6v-10.5H672v10.5H682.4z M681.7,1285v0.7h-9
	v-0.7h3.9c0-0.3,0.1-0.6,0.1-0.8h-2.8v-2.3h6.5v2.3h-2.8c0,0.3-0.1,0.6-0.1,0.8H681.7z M673.5,1286.1h7.4v4.7h-7.4V1286.1z
	 M674.4,1290.1h5.6v-3.3h-5.6V1290.1z M674.9,1283.4h4.6v-1h-4.6V1283.4z M675.5,1287.4h3.3v2h-3.3V1287.4z M676.2,1288.9h1.8v-0.9
	h-1.8V1288.9z"/>
<path class="st1" d="M699.1,1287.1v0.8h-13.3v-0.8h6v-0.9h-5v-0.8h5v-0.8h-4.6v-0.8h4.6v-0.9h-6v-0.8h6v-0.8h-4.4v-0.8h4.4v-1.1h1.1
	v1.1h4.3v1.6h1.8v0.8h-1.8v1.6H693v0.8h5.1v0.8H693v0.9h6.1V1287.1z M687.8,1288.7h9.6v4.6h-1.1v-0.5h-7.4v0.5h-1.1V1288.7z
	 M688.9,1289.4v0.9h7.4v-0.9H688.9z M696.3,1292v-1h-7.4v1H696.3z M693,1282.2h3.2v-0.8H693V1282.2z M693,1283.9h3.2v-0.9H693
	V1283.9z"/>
<path class="st1" d="M704.8,1279.8c-0.1,0.2-0.2,0.3-0.3,0.5c0.8,0.5,1.7,1.1,2.1,1.4l-0.5,0.9c-0.7-0.6-1.4-1.1-2.1-1.5
	c-0.7,1-1.7,1.9-2.7,2.6c-0.1-0.4-0.3-0.7-0.5-1c1.3-0.8,2.3-1.9,3.1-3.2L704.8,1279.8z M705.1,1289.4c0.6,1,1.1,2,1.6,3l-0.8,0.4
	c-0.2-0.4-0.3-0.8-0.5-1.2c-1.3,0.4-2.5,1-3.6,1.6c-0.1-0.4-0.2-0.7-0.4-1c0.3-0.1,0.6-0.5,0.5-0.8v-7.4h4.3v5h-3.3v2.6l2.1-0.8
	c-0.2-0.4-0.4-0.8-0.6-1.1L705.1,1289.4z M702.8,1284.9v1.2h2.3v-1.2H702.8z M705.1,1288.3v-1.3h-2.3v1.3H705.1z M705.4,1282.4v0.8
	h-2.5v-0.8H705.4z M714.4,1281.3v2.4h-0.9v-1.5h-5.8v1.5h-0.9v-2.4h3.5c-0.2-0.4-0.4-1-0.6-1.4l0.9-0.4c0.3,0.5,0.5,1,0.8,1.6
	l-0.4,0.2L714.4,1281.3z M708.7,1288.6h5.1v4.6h-1v-0.6h-4.1v0.7h-1v-9.7h5.5v3.7h-4.5V1288.6z M708.7,1284.5v1.9h3.5v-1.9H708.7z
	 M708.7,1289.5v2.1h4.1v-2.1H708.7z"/>
<path class="st1" d="M721.5,1287.7l-1,0.9c-1-1.2-2.1-2.3-3.3-3.3l1-0.9C719.4,1285.4,720.5,1286.5,721.5,1287.7z"/>
<path class="st1" d="M734,1286.2c1.1,1.1,2.4,2,3.9,2.5c-0.3,0.3-0.5,0.6-0.7,0.9c-1.7-0.7-3.3-1.9-4.4-3.4h-3.9
	c-1.1,1.4-2.4,2.7-4,3.5c-0.2-0.3-0.5-0.6-0.8-0.8c1.3-0.7,2.5-1.6,3.5-2.8h-3.3v-1h4c0.3-0.4,0.5-0.8,0.8-1.2h-3.2v-0.9h3.6
	c0.2-0.4,0.3-0.8,0.4-1.2H725v-0.9h5c0.1-0.5,0.2-0.9,0.2-1.4l1.2,0.1c-0.1,0.4-0.2,0.9-0.3,1.3h5.7v0.9H731
	c-0.1,0.4-0.2,0.8-0.4,1.2h5.7v0.9h-6.1c-0.2,0.4-0.4,0.8-0.7,1.2h8.1v1H734V1286.2z M734.7,1288.6c-0.5,0.5-1,1.1-1.5,1.6
	c1.2,0.6,2.4,1.2,3.2,1.7l-0.7,0.9c-1.3-0.9-2.8-1.6-4.2-2.3v1.7c0,0.6-0.1,0.8-0.5,1c-0.7,0.2-1.4,0.2-2.1,0.2
	c-0.1-0.3-0.2-0.6-0.3-0.9c0.8,0,1.5,0,1.6,0s0.3-0.1,0.3-0.3v-1.3c-1.7,0.7-3.4,1.3-4.8,1.8l-0.5-0.9c1.3-0.4,3.3-1.1,5.3-1.8v-3.1
	h1.1v2.6c0.3,0.1,0.5,0.3,0.8,0.4c0.5-0.5,1-1.1,1.5-1.7L734.7,1288.6z M728.5,1290.3c-0.5-0.6-1-1.1-1.6-1.6l0.8-0.6
	c0.6,0.4,1.2,1,1.6,1.5L728.5,1290.3z"/>
<path class="st1" d="M743.5,1284h2.6v1h-2.6v0.4c0.6,0.6,2.1,2.4,2.5,2.9l-0.7,0.9c-0.3-0.6-1.2-1.7-1.8-2.5v6.5h-1.1v-6.6
	c-0.6,1.6-1.6,3.1-2.7,4.5c-0.2-0.4-0.4-0.7-0.6-1c1.3-1.5,2.3-3.2,3-5.1h-2.6v-1h2.9v-2.5l-2.5,0.4c-0.1-0.3-0.2-0.6-0.3-0.9
	c1.9-0.2,3.8-0.6,5.6-1.2l0.8,0.9c-0.8,0.3-1.7,0.5-2.5,0.7L743.5,1284z M752.2,1281v11.5h-1.1v-1.1h-3.3v1.2h-1.1V1281H752.2z
	 M751.1,1290.3v-8.3h-3.3v8.3H751.1z"/>
<path class="st1" d="M763.3,1287.5v0.7h3.6v5h-1v-0.6h-8.6v0.6h-1v-5h3.7v-0.7h-5.3v-0.8h13.6v0.8H763.3z M755.5,1280.7H755v-0.7
	h6.6v0.7h-5.2v4.1c0,0.5,0.2,0.7,0.7,0.7h3.2c0.4,0,0.9,0,1.3-0.1c0,0.2,0.1,0.5,0.1,0.7c-0.5,0.1-0.9,0.1-1.4,0.1H757
	c-1.2,0-1.5-0.4-1.5-1.5L755.5,1280.7z M759.4,1283.6L759.4,1283.6c0.7,0.4,1.3,0.8,1.9,1.3l-0.5,0.5c-0.5-0.5-1.1-0.9-1.7-1.2
	c-0.4,0.6-1.1,1.1-1.8,1.3c-0.1-0.2-0.3-0.4-0.5-0.6c0.8-0.1,1.4-0.6,1.8-1.3h-1.9v-0.7h2v-0.8h-0.9c-0.2,0.2-0.4,0.5-0.6,0.7
	c-0.2-0.1-0.4-0.3-0.6-0.4c0.5-0.5,0.9-1,1.1-1.6l0.7,0.2c-0.1,0.2-0.1,0.3-0.2,0.5h3v0.6h-1.7v0.8h2v0.7H759.4z M765.8,1292v-1.7
	h-2.1c-1.1,0-1.3-0.2-1.3-0.9v-0.4h-1.6c-0.2,0.7-0.9,1.3-3,1.7c-0.1-0.2-0.3-0.5-0.5-0.7c1.7-0.2,2.4-0.6,2.6-1h-2.7v3.1
	L765.8,1292L765.8,1292z M758.5,1290.8h6.2v0.7h-6.2V1290.8z M762.4,1287.5h-1.6v0.7h1.6V1287.5z M762.1,1282.9
	c-0.2-0.3-0.4-0.5-0.6-0.7c1.1-0.4,1.3-1,1.3-1.5v-0.8h3.6v1.4c0,0.3,0,0.4,0.2,0.4h0.7c0.2,0,0.4,0,0.6,0c0,0.2,0,0.5,0.1,0.8
	c-0.2,0-0.4,0.1-0.7,0.1h-0.8c-0.8,0-1-0.3-1-1.1v-0.6h-1.8c0,0.9-0.5,1.7-1.4,2h4.1h0.2l0.5,0.2c-0.4,0.8-0.9,1.5-1.5,2
	c0.7,0.3,1.4,0.7,1.9,1l-0.4,0.7c-0.5-0.3-1.3-0.7-2.2-1.1c-0.8,0.5-1.7,0.9-2.7,1.1c-0.1-0.3-0.3-0.5-0.5-0.7
	c0.8-0.2,1.5-0.4,2.3-0.8c-0.6-0.3-1.2-0.6-1.8-0.8l0.4-0.6c0.7,0.2,1.4,0.6,2.2,0.9c0.4-0.3,0.8-0.7,1.1-1.1h-3.8v-0.6
	L762.1,1282.9z M763.3,1288.9v0.4c0,0.3,0.1,0.3,0.5,0.3h1.7c0.1,0,0.2,0,0.3,0v-0.8L763.3,1288.9z"/>
<path class="st1" d="M774.8,1280.6c-0.5,1.2-1,2.7-1.5,3.9c0.9,0.9,1.3,2,1.3,3.2c0.1,0.6-0.1,1.3-0.6,1.7c-0.2,0.2-0.5,0.3-0.8,0.3
	s-0.7,0-1,0c0-0.4-0.1-0.7-0.3-1c0.3,0,0.6,0,0.9,0c0.2,0,0.3-0.1,0.5-0.1c0.2-0.2,0.3-0.6,0.3-1c0-1.1-0.5-2.2-1.3-3
	c0.4-1.1,0.9-2.4,1.2-3.4h-2v12h-1v-13h3.4h0.2L774.8,1280.6z M782.4,1292.1c0.3,0,0.4-0.2,0.4-1.9c0.3,0.2,0.6,0.3,1,0.4
	c-0.1,2-0.4,2.4-1.3,2.4h-1.3c-1,0-1.3-0.3-1.3-1.4v-3.9h-1.6c-0.3,2.8-1,4.5-3.8,5.5c-0.2-0.3-0.4-0.6-0.7-0.9
	c2.6-0.8,3.2-2.3,3.4-4.6h-2.1v-1h8.5v1H781v3.9c0,0.4,0.1,0.4,0.4,0.4L782.4,1292.1L782.4,1292.1z M776.1,1284.1h-1v-2.6h3.8
	c-0.2-0.6-0.5-1.1-0.8-1.7l1-0.3c0.4,0.6,0.7,1.2,1,1.8l-0.3,0.1h3.7v2.6h-1.1v-1.6h-6.3L776.1,1284.1z M776.3,1285.1v-1h6v1H776.3z
	"/>
<path class="st1" d="M790.5,1287.7l-1,0.9c-1-1.2-2.1-2.3-3.3-3.3l1-0.9C788.4,1285.4,789.5,1286.5,790.5,1287.7z"/>
<path class="st1" d="M796.2,1285c0.4,0.6,1.5,2.2,1.7,2.6l-0.6,0.8c-0.2-0.5-0.7-1.4-1.1-2.2v7h-1v-6.9c-0.4,1.4-1,2.7-1.7,4
	c-0.2-0.3-0.4-0.7-0.6-1c1.1-1.7,1.8-3.6,2.2-5.6h-1.9v-1h2v-3.2h1v3.2h1.7v1h-1.7L796.2,1285L796.2,1285z M804.2,1283
	c0.7,1,1.7,1.7,2.8,2.3c-0.3,0.2-0.5,0.5-0.7,0.8c-0.6-0.3-1.1-0.7-1.6-1.2v1.8h-4.8v-1.8c-0.5,0.5-1,0.9-1.6,1.2
	c-0.2-0.3-0.4-0.5-0.7-0.7c1.1-0.6,2-1.4,2.7-2.4h-2.2v-0.9h2.7c0.1-0.3,0.3-0.7,0.4-1c-0.9,0.1-1.8,0.1-2.6,0.1
	c0-0.3-0.1-0.5-0.2-0.8c2.3,0,4.5-0.3,6.7-0.7l0.7,0.8c-1.1,0.2-2.3,0.4-3.5,0.5c-0.1,0.3-0.2,0.7-0.4,1h4.7v0.9L804.2,1283z
	 M806.3,1292.1c0,0.5-0.1,0.8-0.5,1c-0.6,0.2-1.3,0.2-1.9,0.2c-0.1-0.3-0.2-0.6-0.4-0.9c0.7,0,1.3,0,1.5,0s0.3-0.1,0.3-0.2v-3.9h-6
	v5h-1v-5.9h8.1L806.3,1292.1z M801.2,1291.8v0.7h-0.8v-3.4h3.8v2.8L801.2,1291.8z M801.4,1283c-0.2,0.3-0.4,0.6-0.6,0.9h2.9
	c-0.2-0.3-0.4-0.6-0.6-0.9H801.4z M803.7,1284.6h-2.8v1.3h2.8V1284.6z M801.2,1289.8v1.3h2.1v-1.3H801.2z"/>
<path class="st1" d="M814.6,1291.1c-2.1,0.5-4.4,1-6,1.3l-0.3-1c1.1-0.2,2.7-0.5,4.3-0.9l-0.8-0.2c0.3-1,0.5-2,0.7-3l1.1,0.3
	c-0.3,1-0.6,2.2-0.9,3l1.7-0.4L814.6,1291.1z M814.4,1281.4h-5.9v-1h5.9V1281.4z M814.1,1286.8H809v-4h5.1V1286.8z M809.9,1290.4
	c0-0.9-0.2-1.9-0.6-2.8l0.9-0.2c0.4,0.9,0.6,1.8,0.6,2.8L809.9,1290.4z M813,1283.7h-3.1v2.2h3.1V1283.7z M817.6,1291.3
	c-1,0.9-2.1,1.5-3.3,2c-0.2-0.3-0.5-0.5-0.7-0.7c1.1-0.4,2.1-1,3-1.8L817.6,1291.3z M817.3,1282.7c0.1-0.4,0.2-1,0.3-1.4h-2.8v-1
	h7.2v1h-3.1c-0.2,0.5-0.3,1-0.4,1.4h3.1v7.8h-6.2v-7.8H817.3z M820.5,1283.5h-4.2v1.5h4.2V1283.5z M820.5,1285.8h-4.2v1.5h4.2
	V1285.8z M820.5,1288.1h-4.2v1.5h4.2V1288.1z M819.7,1290.8c0.9,0.5,1.8,1.2,2.6,1.8l-0.9,0.6c-0.8-0.7-1.6-1.3-2.5-1.9
	L819.7,1290.8z"/>
<path class="st1" d="M834.6,1291.5c0.8,0,1.7,0,2.5-0.2c0,0.3,0.1,0.8,0.2,1.1c-0.9,0.1-1.8,0.2-2.7,0.1H828c-2.3,0-3.4-0.7-3.4-2.9
	v-8.4H824v-1h12.6v1h-10.9v8.5c0,1.3,0.6,1.8,2.2,1.8H834.6z M826.8,1286.5h3.9v3.8h-3.9V1286.5z M827.8,1289.5h2v-2.2h-2V1289.5z
	 M834,1285.5h-5.6v-3.3h5.5L834,1285.5z M832.9,1283h-3.4v1.7h3.4V1283z M835.8,1290.3h-4v-3.8h4V1290.3z M834.8,1287.3h-2.1v2.2
	h2.1V1287.3z"/>
<path class="st1" d="M844.3,1280.4c-1,2.4-2.5,4.6-4.4,6.4c-0.3-0.3-0.6-0.6-1-0.9c1.8-1.6,3.3-3.6,4.2-5.8L844.3,1280.4z
	 M848.5,1287.5c1.2,1.6,2.3,3.3,3.4,5l-1.1,0.6c-0.2-0.4-0.5-0.9-0.8-1.4c-7.8,0.5-8.6,0.6-9.2,0.8c-0.1-0.4-0.3-0.8-0.4-1.2
	c0.4-0.1,0.8-0.6,1.4-1.3c1.5-1.8,2.7-3.8,3.8-5.9l1.2,0.5c-1.2,2.3-2.7,4.4-4.4,6.4l6.9-0.4c-0.6-0.9-1.3-1.9-1.9-2.7L848.5,1287.5
	z M848.8,1280c0.7,2.3,2.1,4.3,4,5.8c-0.3,0.3-0.6,0.6-0.9,1c-1.8-1.5-3.2-3.5-4-5.7h-2.8v-1.1L848.8,1280z"/>
<path class="st1" d="M856.2,1287.7c0,1.9-0.4,3.8-1.2,5.6c-0.3-0.3-0.6-0.5-0.9-0.7c1-1.8,1-4.4,1-6.3v-5.2c1.7-0.2,3.5-0.5,5.1-1.1
	l0.7,0.9c-1.5,0.6-3.1,0.9-4.7,1.1v1.4h4v4.4L856.2,1287.7z M856.2,1284.3v2.4h2.9v-2.4H856.2z M867.9,1285.7h-1.8v7.5H865v-7.5
	h-2.3v0.4c0,2.2-0.3,5.3-2.2,7.2c-0.3-0.3-0.6-0.5-0.9-0.8c1.8-1.8,2-4.4,2-6.5v-5c1.8-0.2,3.6-0.7,5.2-1.3l0.8,0.9
	c-1.6,0.6-3.2,1-4.9,1.2v2.7h5.2L867.9,1285.7z"/>
</svg>
