<?xml version="1.0" encoding="utf-8"?>
<!-- Generator: Adobe Illustrator 25.0.0, SVG Export Plug-In . SVG Version: 6.00 Build 0)  -->
<svg version="1.1" id="圖層_1" xmlns="http://www.w3.org/2000/svg" xmlns:xlink="http://www.w3.org/1999/xlink" x="0px" y="0px"
	 viewBox="0 0 1440 1400" style="enable-background:new 0 0 1440 1400;" xml:space="preserve">
<style type="text/css">
	.st0{fill:#FFFFFF;}
</style>
<path class="st0" d="M980,1253.9c0,0.8-0.1,1.5-0.3,2.3l-0.4-0.1c0.2-0.7,0.2-1.5,0.3-2.2L980,1253.9z M980.9,1252.4v7.3h-0.6v-7.3
	H980.9z M984.6,1252.4v0.5h1.9v0.5h-1.9v0.6h1.6v0.5h-1.6v0.5h2.1v0.5h-4.8v-0.2l-0.4,0.1c-0.1-0.5-0.3-1-0.5-1.4l0.4-0.1
	c0.2,0.4,0.3,0.9,0.5,1.3v-0.1h2.1v-0.5h-1.6v-0.5h1.6v-0.6h-1.9v-0.5h1.9v-0.5h0.6V1252.4z M982.3,1259.7l-0.4-0.4
	c0.4-0.5,0.6-1.2,0.6-1.8v-1.6h3.5v3.1c0,0.3-0.2,0.6-0.5,0.6c0,0-0.1,0-0.2,0h-1l-0.1-0.5h0.9c0.2,0,0.2-0.1,0.2-0.3v-0.4H983
	C982.9,1258.8,982.7,1259.3,982.3,1259.7L982.3,1259.7z M983.1,1257.5c0,0.2,0,0.3,0,0.5h2.5v-0.6L983.1,1257.5L983.1,1257.5z
	 M985.5,1256.4h-2.4v0.6h2.4V1256.4z"/>
<path class="st0" d="M989.7,1257.8c-0.7,0.4-1.5,0.7-2.2,0.9l-0.2-0.6c0.3-0.1,0.6-0.1,0.8-0.2v-3h-0.8v-0.6h0.8v-1.9h0.6v1.9h0.7
	v0.6h-0.7v2.8c0.3-0.1,0.6-0.3,1-0.4L989.7,1257.8z M994,1255.3v2.5h-1v1c0,0.2,0.1,0.3,0.2,0.3h0.7c0.1,0,0.2,0,0.2-0.1
	c0.1-0.2,0.1-0.5,0.1-0.8l0.5,0.2c0,0.4-0.1,0.7-0.2,1.1c-0.1,0.1-0.3,0.2-0.5,0.2h-0.9c-0.3,0-0.6-0.2-0.6-0.5c0,0,0-0.1,0-0.2
	v-1.1h-0.8c-0.1,0.4-0.3,0.8-0.6,1.2c-0.5,0.4-1.1,0.6-1.7,0.7l-0.2-0.5c0.5-0.1,1-0.3,1.4-0.6c0.2-0.2,0.4-0.5,0.5-0.8h-0.9v-2.5
	L994,1255.3z M991.8,1252.9c-0.1-0.2-0.2-0.4-0.2-0.6l0.6-0.1c0.1,0.2,0.2,0.5,0.2,0.7h1.9v0.5h-0.8c-0.1,0.3-0.2,0.6-0.3,0.8h1.4
	v0.5h-4.8v-0.5h1.2c-0.1-0.3-0.2-0.6-0.3-0.8H990v-0.4L991.8,1252.9z M993.5,1256.3v-0.6h-2.7v0.6H993.5z M993.5,1256.7h-2.7v0.6
	h2.7V1256.7z M992.9,1253.4h-1.7c0.1,0.3,0.2,0.5,0.3,0.8h1.1C992.8,1254,992.9,1253.7,992.9,1253.4L992.9,1253.4z"/>
<path class="st0" d="M997.4,1256.4c-0.3,1-0.8,2-1.5,2.8l-0.5-0.3c0.6-0.8,1.1-1.7,1.4-2.7L997.4,1256.4z M1002.4,1254.8v0.6h-3.1
	v4.3h-0.6v-4.3h-3.1v-0.6H1002.4z M1001.7,1252.8v0.6h-5.4v-0.6H1001.7z M1002.5,1258.9l-0.5,0.2c-0.4-1-0.9-1.9-1.5-2.8l0.5-0.2
	C1001.6,1257,1002.1,1258,1002.5,1258.9L1002.5,1258.9z"/>
<path class="st0" d="M1004.7,1257.8c-0.2,0.6-0.4,1.1-0.8,1.7l-0.5-0.3c0.3-0.4,0.6-0.9,0.7-1.5L1004.7,1257.8z M1003.9,1253.3v-0.5
	h2.8c-0.1-0.2-0.2-0.3-0.2-0.5l0.6-0.1c0.1,0.2,0.2,0.3,0.2,0.6h2.8v0.5h-1.3l-0.3,0.6h2v0.5h-6.9v-0.5h1.9l-0.3-0.6H1003.9z
	 M1009.6,1254.9v2.4h-5.1v-2.4H1009.6z M1009,1255.9v-0.5h-4v0.5H1009z M1009,1256.4h-4v0.5h4V1256.4z M1006.1,1259.6
	c-0.5,0-0.8-0.2-0.8-0.7v-1h0.6v0.9c0,0.2,0.1,0.3,0.4,0.3h1.7c0.1,0,0.3,0,0.4-0.1c0.1-0.2,0.2-0.5,0.2-0.7l0.5,0.2
	c0,0.4-0.1,0.7-0.3,1c-0.2,0.1-0.4,0.2-0.7,0.2L1006.1,1259.6z M1007.9,1254l0.3-0.6h-2.4l0.3,0.6H1007.9z M1007.9,1258.4l-0.5,0.3
	c-0.2-0.3-0.5-0.7-0.8-0.9l0.5-0.3C1007.4,1257.7,1007.6,1258,1007.9,1258.4L1007.9,1258.4z M1010.7,1259l-0.5,0.3
	c-0.3-0.5-0.6-1-1-1.4l0.5-0.3C1010,1258.1,1010.3,1258.5,1010.7,1259L1010.7,1259z"/>
<path class="st0" d="M1014.4,1255.2c-0.8,0.2-1.7,0.3-2.6,0.4l-0.1-0.4c0.5-0.3,1-0.7,1.3-1.2l0.5,0.2c-0.2,0.4-0.5,0.7-0.9,1
	c0.5,0,1-0.1,1.5-0.2c-0.1-0.2-0.3-0.3-0.4-0.4l0.4-0.2c0.3,0.3,0.6,0.6,0.8,0.9h0.3v-0.1c0.5-0.3,0.9-0.7,1.1-1.2l0.5,0.2
	c-0.2,0.4-0.5,0.7-0.8,0.9c0.4,0,0.9-0.1,1.3-0.1l-0.3-0.4l0.4-0.2c0.4,0.4,0.7,0.8,1,1.2l-0.4,0.3c-0.1-0.2-0.2-0.3-0.3-0.5
	c-0.7,0.1-1.3,0.2-2,0.2c0.9,0.6,1.9,1,3,1.2l-0.3,0.5c-1.2-0.3-2.3-0.8-3.3-1.5c-1,0.7-2.1,1.2-3.3,1.6l-0.3-0.5
	c1.1-0.3,2.1-0.7,3.1-1.3L1014.4,1255.2z M1017.8,1253.7l-0.5,0.3c-0.1-0.1-0.3-0.3-0.4-0.4c-1.6,0.1-3.1,0.2-4.6,0.2l-0.1-0.4
	c0.8-0.1,1.5-0.5,2-1.1l0.5,0.1c-0.3,0.3-0.7,0.7-1.1,0.9l2.7-0.2l-0.6-0.5l0.4-0.3C1016.8,1252.8,1017.3,1253.3,1017.8,1253.7z
	 M1015.7,1256.4c-0.8,0.7-1.8,1.1-2.9,1.2l-0.3-0.4c1-0.1,2-0.5,2.8-1.1L1015.7,1256.4z M1016.6,1257.1c-1.1,0.9-2.4,1.4-3.8,1.6
	l-0.3-0.4c1.3-0.2,2.6-0.7,3.7-1.5L1016.6,1257.1z M1017.7,1257.6c-1.4,1.1-3,1.8-4.8,2.1l-0.3-0.4c1.7-0.2,3.3-0.9,4.7-1.9
	L1017.7,1257.6z"/>
<path class="st0" d="M1022.4,1253.2v-0.8h0.6v0.8h1.8v0.4c0.3-0.3,0.6-0.7,0.9-1.1l0.4,0.3c-0.5,0.6-1,1.2-1.6,1.7h2v0.6h-2.6
	c-0.4,0.3-0.8,0.6-1.2,0.8h3.4v0.5h-4l-0.3,0.8h3.8c0,0.7-0.1,1.4-0.4,2c-0.3,0.3-0.7,0.4-1.1,0.3c-0.4,0-0.7,0-1,0l-0.2-0.5
	c0.4,0,0.8,0,1.1,0s0.7-0.1,0.8-0.2c0.1-0.3,0.2-0.7,0.2-1.1h-3.9l0.4-1.3c-0.6,0.3-1.3,0.5-1.9,0.7l-0.2-0.5
	c1.3-0.4,2.5-0.9,3.6-1.6h-3.2v-0.6h2.7v-0.9h-2.1v-0.5L1022.4,1253.2z M1024.7,1253.7h-1.7v0.9h0.7
	C1024,1254.3,1024.3,1254,1024.7,1253.7z"/>
<path class="st0" d="M861,865.9c0,0.8-0.1,1.5-0.3,2.3l-0.4-0.1c0.2-0.7,0.2-1.5,0.3-2.2H861z M861.9,864.4v7.3h-0.6v-7.3H861.9z
	 M865.6,864.3v0.5h1.9v0.5h-1.9v0.6h1.6v0.5h-1.6v0.5h2.1v0.5h-4.8v-0.2l-0.4,0.1c-0.1-0.5-0.3-1-0.5-1.5l0.4-0.1
	c0.2,0.4,0.3,0.9,0.5,1.3v-0.1h2.1v-0.5h-1.6v-0.5h1.6v-0.6h-1.9v-0.5h1.9v-0.5H865.6z M863.3,871.7l-0.4-0.4
	c0.4-0.5,0.6-1.2,0.6-1.8v-1.6h3.5v3.2c0,0.3-0.2,0.6-0.5,0.6c0,0-0.1,0-0.2,0h-1l-0.1-0.5h0.9c0.2,0,0.2-0.1,0.2-0.3v-0.4H864
	C863.9,870.8,863.7,871.3,863.3,871.7L863.3,871.7z M864.1,869.4c0,0.2,0,0.3,0,0.5h2.5v-0.6L864.1,869.4L864.1,869.4z M866.5,868.3
	h-2.4v0.6h2.4V868.3z"/>
<path class="st0" d="M870.7,869.8c-0.7,0.4-1.5,0.7-2.2,0.9l-0.2-0.6c0.3-0.1,0.6-0.1,0.8-0.2v-3h-0.8v-0.6h0.8v-1.9h0.6v1.9h0.7
	v0.6h-0.7v2.8c0.3-0.1,0.6-0.3,1-0.4L870.7,869.8z M875,867.3v2.5h-1v1c0,0.2,0.1,0.3,0.2,0.3h0.7c0.1,0,0.2,0,0.2-0.1
	c0.1-0.2,0.1-0.5,0.1-0.8l0.5,0.2c0,0.3-0.1,0.7-0.2,1c-0.1,0.1-0.3,0.2-0.5,0.2h-0.9c-0.3,0-0.6-0.2-0.6-0.5c0,0,0-0.1,0-0.2v-1.1
	h-0.8c-0.1,0.4-0.3,0.8-0.6,1.2c-0.5,0.4-1.1,0.6-1.7,0.7l-0.2-0.5c0.5-0.1,1-0.3,1.4-0.6c0.2-0.2,0.4-0.5,0.5-0.8h-0.9v-2.5
	L875,867.3z M872.8,865c-0.1-0.2-0.2-0.4-0.2-0.6l0.6-0.1c0.1,0.2,0.2,0.5,0.2,0.7h1.9v0.5h-0.8c-0.1,0.3-0.2,0.6-0.3,0.8h1.4v0.5
	h-4.8v-0.5h1.2c-0.1-0.3-0.2-0.6-0.3-0.8H871V865H872.8z M874.5,868.4v-0.6h-2.7v0.6H874.5z M874.5,868.8h-2.7v0.6h2.7V868.8z
	 M873.9,865.5h-1.7c0.1,0.3,0.2,0.5,0.3,0.8h1.1C873.8,866,873.9,865.7,873.9,865.5L873.9,865.5z"/>
<path class="st0" d="M878.4,868.4c-0.3,1-0.8,2-1.5,2.8l-0.5-0.3c0.6-0.8,1.1-1.7,1.4-2.7L878.4,868.4z M883.4,866.8v0.6h-3.1v4.3
	h-0.6v-4.3h-3.1v-0.6H883.4z M882.7,864.8v0.6h-5.4v-0.6H882.7z M883.5,870.9l-0.5,0.2c-0.4-1-0.9-1.9-1.5-2.8l0.5-0.2
	C882.6,869,883.1,870,883.5,870.9L883.5,870.9z"/>
<path class="st0" d="M885.7,869.8c-0.2,0.6-0.4,1.1-0.8,1.7l-0.5-0.3c0.3-0.4,0.6-0.9,0.7-1.5L885.7,869.8z M884.9,865.3v-0.5h2.8
	c-0.1-0.2-0.2-0.3-0.2-0.5l0.6-0.1c0.1,0.2,0.2,0.3,0.2,0.6h2.8v0.5h-1.3l-0.3,0.6h2v0.5h-6.9V866h1.9l-0.3-0.6L884.9,865.3z
	 M890.6,866.9v2.4h-5.1v-2.4H890.6z M890,867.9v-0.5h-4v0.5H890z M890,868.3h-4v0.5h4V868.3z M887.1,871.6c-0.5,0-0.8-0.2-0.8-0.7
	v-1h0.6v0.9c0,0.2,0.1,0.3,0.4,0.3h1.7c0.1,0,0.3,0,0.4-0.1c0.1-0.2,0.2-0.5,0.2-0.7l0.5,0.2c0,0.4-0.1,0.7-0.3,1
	c-0.2,0.1-0.4,0.2-0.7,0.2L887.1,871.6z M888.9,866l0.3-0.6h-2.4l0.3,0.6H888.9z M888.9,870.4l-0.5,0.3c-0.2-0.3-0.5-0.7-0.8-0.9
	l0.5-0.3C888.4,869.7,888.6,870,888.9,870.4L888.9,870.4z M891.7,871l-0.5,0.3c-0.3-0.5-0.6-1-1-1.5l0.5-0.3
	C891,870.1,891.3,870.5,891.7,871L891.7,871z"/>
<path class="st0" d="M895.4,867.2c-0.8,0.2-1.7,0.3-2.6,0.4l-0.1-0.4c0.5-0.3,1-0.7,1.3-1.2l0.5,0.2c-0.2,0.4-0.5,0.7-0.9,1
	c0.5,0,1-0.1,1.5-0.2c-0.1-0.2-0.3-0.3-0.4-0.4l0.4-0.2c0.3,0.3,0.6,0.6,0.8,0.9h0.3v-0.1c0.5-0.3,0.9-0.7,1.1-1.2l0.5,0.2
	c-0.2,0.4-0.5,0.7-0.8,0.9c0.4,0,0.9-0.1,1.3-0.1c-0.1-0.1-0.2-0.3-0.3-0.4l0.4-0.2c0.4,0.4,0.7,0.8,1,1.2l-0.4,0.3
	c-0.1-0.2-0.2-0.3-0.3-0.5c-0.7,0.1-1.3,0.2-2,0.2c0.9,0.6,1.9,1,3,1.2l-0.3,0.5c-1.2-0.3-2.3-0.8-3.3-1.5c-1,0.7-2.1,1.2-3.3,1.5
	l-0.3-0.5c1.1-0.3,2.1-0.7,3.1-1.3L895.4,867.2z M898.8,865.7l-0.5,0.3c-0.1-0.1-0.3-0.3-0.4-0.4c-1.6,0.1-3.1,0.2-4.6,0.2l-0.1-0.5
	c0.8-0.1,1.5-0.5,2-1.1l0.5,0.1c-0.3,0.3-0.7,0.7-1.1,0.9l2.7-0.2l-0.6-0.5l0.4-0.3C897.8,864.8,898.3,865.3,898.8,865.7z
	 M896.7,868.4c-0.8,0.7-1.8,1.1-2.9,1.2l-0.3-0.4c1-0.1,2-0.5,2.8-1.1L896.7,868.4z M897.6,869.1c-1.1,0.9-2.4,1.4-3.8,1.6l-0.3-0.4
	c1.3-0.2,2.6-0.7,3.7-1.5L897.6,869.1z M898.7,869.6c-1.4,1.1-3,1.8-4.8,2.1l-0.3-0.4c1.7-0.2,3.3-0.9,4.7-1.9L898.7,869.6z"/>
<path class="st0" d="M903.4,865.2v-0.8h0.6v0.8h1.8v0.5c0.3-0.3,0.6-0.7,0.9-1.1l0.4,0.3c-0.5,0.6-1,1.2-1.6,1.7h2v0.5h-2.6
	c-0.4,0.3-0.8,0.6-1.2,0.8h3.4v0.5h-4l-0.3,0.8h3.8c0,0.7-0.1,1.4-0.4,2c-0.3,0.3-0.7,0.4-1.1,0.3c-0.4,0-0.7,0-1,0L904,871
	c0.4,0,0.8,0,1.1,0s0.7-0.1,0.8-0.2c0.1-0.3,0.2-0.7,0.2-1.1h-3.9l0.4-1.3c-0.6,0.3-1.3,0.5-1.9,0.7l-0.2-0.5
	c1.3-0.4,2.5-0.9,3.6-1.6h-3.2v-0.5h2.7v-0.9h-2.1v-0.5L903.4,865.2z M905.7,865.7H904v0.9h0.7C905,866.3,905.3,866,905.7,865.7
	L905.7,865.7z"/>
<path class="st0" d="M978,474.7c0,0.8-0.1,1.5-0.3,2.3l-0.4-0.1c0.2-0.7,0.2-1.5,0.3-2.2L978,474.7z M978.9,473.2v7.3h-0.6v-7.3
	H978.9z M982.6,473.1v0.5h1.8v0.5h-1.8v0.5h1.6v0.5h-1.6v0.5h2.1v0.5h-4.8V476l-0.4,0.1c-0.1-0.5-0.3-1-0.5-1.4l0.4-0.1
	c0.2,0.4,0.3,0.9,0.5,1.3v-0.1h2.1v-0.5h-1.6v-0.5h1.6v-0.5h-1.9v-0.5h1.9v-0.5L982.6,473.1z M980.3,480.5l-0.4-0.4
	c0.4-0.5,0.6-1.2,0.6-1.8v-1.6h3.5v3.2c0,0.4-0.2,0.6-0.6,0.6h-1l-0.1-0.5h0.9c0.2,0,0.2-0.1,0.2-0.3v-0.5H981
	C980.9,479.6,980.7,480.1,980.3,480.5z M981.1,478.2c0,0.2,0,0.3,0,0.5h2.5v-0.6L981.1,478.2L981.1,478.2z M983.5,477.1h-2.4v0.6
	h2.4V477.1z"/>
<path class="st0" d="M987.7,478.6c-0.7,0.4-1.5,0.7-2.2,0.9l-0.2-0.6l0.8-0.2v-3h-0.8V475h0.8v-1.9h0.6v1.9h0.7v0.6h-0.7v2.8
	c0.3-0.1,0.6-0.3,1-0.4L987.7,478.6z M992,476.1v2.5h-1v1c0,0.2,0.1,0.3,0.2,0.3h0.7c0.1,0,0.2,0,0.2-0.1c0.1-0.2,0.1-0.5,0.1-0.8
	l0.5,0.2c0,0.4-0.1,0.7-0.2,1c-0.1,0.1-0.3,0.2-0.5,0.2h-1c-0.4,0-0.6-0.2-0.6-0.6v-1.1h-0.8c-0.1,0.4-0.3,0.8-0.6,1.2
	c-0.5,0.4-1.1,0.6-1.7,0.7l-0.2-0.5c0.5-0.1,1-0.3,1.4-0.6c0.2-0.2,0.4-0.5,0.5-0.8h-0.9V476L992,476.1z M989.8,473.8
	c-0.1-0.2-0.2-0.4-0.2-0.6l0.6-0.1c0.1,0.2,0.2,0.5,0.2,0.7h1.9v0.5h-0.8c-0.1,0.3-0.2,0.6-0.3,0.9h1.4v0.5h-4.8v-0.5h1.3
	c-0.1-0.3-0.2-0.6-0.3-0.9H988v-0.5H989.8z M991.5,477.1v-0.6h-2.7v0.6H991.5z M991.5,477.5h-2.7v0.6h2.7V477.5z M990.9,474.2h-1.7
	c0.1,0.3,0.2,0.5,0.3,0.9h1.1C990.8,474.8,990.9,474.5,990.9,474.2L990.9,474.2z"/>
<path class="st0" d="M995.4,477.2c-0.3,1-0.8,2-1.5,2.9l-0.5-0.3c0.6-0.8,1.1-1.7,1.4-2.7L995.4,477.2z M1000.4,475.6v0.6h-3.1v4.3
	h-0.6v-4.3h-3.1v-0.6H1000.4z M999.7,473.6v0.6h-5.4v-0.6H999.7z M1000.5,479.8l-0.5,0.2c-0.4-1-0.9-1.9-1.5-2.9l0.5-0.1
	C999.6,477.9,1000.1,478.8,1000.5,479.8L1000.5,479.8z"/>
<path class="st0" d="M1002.7,478.6c-0.2,0.6-0.4,1.2-0.8,1.6l-0.5-0.3c0.3-0.4,0.6-0.9,0.7-1.5L1002.7,478.6z M1001.9,474.1v-0.5
	h2.7c-0.1-0.2-0.1-0.3-0.2-0.5l0.6-0.1c0.1,0.2,0.2,0.4,0.2,0.6h2.8v0.5h-1.3l-0.3,0.6h2v0.5h-6.9v-0.5h1.9l-0.3-0.6H1001.9z
	 M1007.5,475.7v2.4h-5.1v-2.4H1007.5z M1007,476.7v-0.5h-4v0.5H1007z M1007,477.2h-4v0.5h4V477.2z M1004.1,480.4
	c-0.5,0-0.8-0.2-0.8-0.8v-1h0.6v0.9c0,0.2,0.1,0.4,0.4,0.4h1.7c0.1,0,0.3,0,0.4-0.1c0.1-0.2,0.2-0.5,0.2-0.7l0.5,0.2
	c0,0.5-0.2,0.9-0.3,1c-0.2,0.1-0.4,0.2-0.7,0.2L1004.1,480.4z M1005.9,474.8l0.3-0.6h-2.4l0.3,0.6H1005.9z M1005.9,479.2l-0.5,0.3
	c-0.2-0.3-0.5-0.7-0.8-0.9l0.5-0.3C1005.4,478.6,1005.6,478.8,1005.9,479.2L1005.9,479.2z M1008.6,479.8l-0.5,0.3
	c-0.3-0.5-0.6-1-1-1.5l0.5-0.3C1008,478.9,1008.3,479.3,1008.6,479.8L1008.6,479.8z"/>
<path class="st0" d="M1012.4,476c-0.8,0.2-1.7,0.3-2.6,0.4l-0.1-0.4c0.5-0.3,1-0.7,1.3-1.2l0.5,0.1c-0.2,0.4-0.5,0.7-0.9,1
	c0.5,0,1-0.1,1.5-0.2l-0.4-0.4l0.4-0.2c0.3,0.3,0.6,0.6,0.8,0.9h0.3v-0.1c0.5-0.3,0.9-0.7,1.1-1.2l0.5,0.1c-0.2,0.4-0.5,0.7-0.8,0.9
	c0.4,0,0.9-0.1,1.3-0.1l-0.3-0.4l0.4-0.2c0.4,0.4,0.7,0.8,1,1.2l-0.4,0.3c-0.1-0.2-0.2-0.3-0.3-0.5c-0.7,0.1-1.3,0.2-2,0.2
	c0.9,0.5,1.9,1,3,1.2l-0.3,0.5c-1.2-0.3-2.3-0.8-3.3-1.5c-1,0.7-2.1,1.3-3.3,1.5l-0.3-0.5C1010.5,477.2,1011.5,476.7,1012.4,476
	L1012.4,476z M1015.8,474.5l-0.5,0.3c-0.1-0.1-0.3-0.3-0.4-0.4c-1.6,0.1-3.1,0.2-4.6,0.2l-0.1-0.5c0.8-0.1,1.5-0.5,2-1.1l0.5,0.1
	c-0.3,0.3-0.7,0.7-1.1,0.9l2.7-0.2l-0.6-0.5l0.4-0.3C1014.8,473.6,1015.3,474.1,1015.8,474.5L1015.8,474.5z M1013.7,477.2
	c-0.8,0.7-1.8,1.1-2.9,1.2l-0.3-0.4c1-0.1,2-0.5,2.8-1.1L1013.7,477.2z M1014.6,477.9c-1.1,0.9-2.4,1.4-3.8,1.6l-0.3-0.4
	c1.3-0.2,2.6-0.7,3.7-1.5L1014.6,477.9z M1015.7,478.4c-1.4,1.1-3,1.8-4.8,2.1l-0.3-0.4c1.7-0.2,3.3-0.9,4.7-1.9L1015.7,478.4z"/>
<path class="st0" d="M1020.4,474v-0.8h0.6v0.8h1.8v0.5c0.3-0.3,0.6-0.7,0.9-1.1l0.4,0.3c-0.5,0.6-1,1.2-1.6,1.7h2v0.5h-2.7
	c-0.4,0.3-0.8,0.6-1.2,0.8h3.4v0.5h-4l-0.3,0.8h3.8c0,0.7-0.1,1.4-0.4,2c-0.3,0.3-0.7,0.4-1.1,0.3c-0.3,0-0.7,0-1,0l-0.2-0.5
	c0.4,0,0.8,0,1.1,0s0.6,0,0.8-0.2c0.1-0.3,0.2-0.7,0.2-1.1h-3.9l0.4-1.3c-0.6,0.3-1.3,0.5-1.9,0.7l-0.2-0.5c1.3-0.4,2.4-0.9,3.6-1.6
	h-3.2v-0.5h2.7v-0.9h-2.1V474H1020.4z M1022.6,474.5h-1.7v0.9h0.7C1022,475.1,1022.3,474.8,1022.6,474.5L1022.6,474.5z"/>
</svg>
