<?xml version="1.0" encoding="utf-8"?>
<!-- Generator: Adobe Illustrator 27.0.0, SVG Export Plug-In . SVG Version: 6.00 Build 0)  -->
<svg version="1.1" id="圖層_1" xmlns="http://www.w3.org/2000/svg" xmlns:xlink="http://www.w3.org/1999/xlink" x="0px" y="0px"
	 viewBox="0 0 1440 700" style="enable-background:new 0 0 1440 700;" xml:space="preserve">
<style type="text/css">
	.st0{fill:#FFFFFF;}
	.st1{fill:url(#SVGID_1_);}
	.st2{fill:url(#SVGID_00000171688537027009017680000016620320405080933290_);}
	.st3{fill:#831F24;}
	.st4{fill:none;}
	.st5{fill:#3D9475;}
</style>
<g>
	
		<rect x="726.8" y="668.3" transform="matrix(5.061303e-03 -1 1 5.061303e-03 66.0133 1403.587)" class="st0" width="23.1" height="0.7"/>
	<g>
		<path class="st0" d="M618.5,671.1l0.4-0.1c0.1,0.3,0.3,0.4,0.6,0.4c0.1,0,0.3-0.1,0.4-0.1c0.1-0.1,0.1-0.2,0.1-0.4
			c0-0.1,0-0.1,0-0.1v-0.1c0,0,0-0.1-0.1-0.1l-0.1-0.1l-0.1-0.1c-0.1,0-0.1-0.1-0.1-0.1s-0.1,0-0.1-0.1c-0.1,0-0.1-0.1-0.1-0.1
			c-0.3-0.1-0.5-0.3-0.7-0.4c-0.1-0.1-0.2-0.3-0.2-0.5s0.1-0.4,0.3-0.6c0.1-0.1,0.4-0.2,0.7-0.2c0.2,0,0.4,0.1,0.6,0.1
			c0.1,0.1,0.3,0.2,0.3,0.4l-0.4,0.2c-0.1-0.2-0.3-0.3-0.4-0.3s-0.2,0.1-0.3,0.1c-0.1,0.1-0.1,0.1-0.1,0.3c0,0.1,0,0.2,0.1,0.3
			s0.2,0.1,0.4,0.2h0.1c0.3,0.1,0.5,0.3,0.6,0.4c0.1,0.1,0.1,0.3,0.1,0.5c0,0.3-0.1,0.5-0.3,0.7s-0.4,0.2-0.7,0.2s-0.5-0.1-0.7-0.1
			C618.7,671.5,618.5,671.3,618.5,671.1L618.5,671.1z"/>
		<path class="st0" d="M621.1,668.6h0.5v1.9c0,0.6,0.2,0.9,0.7,0.9s0.8-0.3,0.8-0.9v-1.9h0.5v2c0,0.9-0.4,1.3-1.3,1.3
			c-0.9,0-1.3-0.4-1.3-1.3L621.1,668.6L621.1,668.6z"/>
		<path class="st0" d="M624.4,671.8v-3.3l2,1.9c0.1,0.1,0.2,0.2,0.4,0.4v-2.2h0.5v3.3l-2-2c-0.1-0.1-0.2-0.2-0.3-0.4v2.2
			L624.4,671.8L624.4,671.8z"/>
		<path class="st0" d="M615.6,676.5v-1.4l-1-1.7h0.5l0.7,1c0,0.1,0.1,0.1,0.1,0.2c0-0.1,0.1-0.2,0.1-0.3l0.7-1h0.5l-1.1,1.7v1.4
			L615.6,676.5L615.6,676.5z"/>
		<path class="st0" d="M620.7,674.9c0,0.4-0.1,0.8-0.5,1.2c-0.4,0.3-0.7,0.5-1.2,0.5s-0.9-0.1-1.2-0.5c-0.3-0.3-0.5-0.7-0.5-1.2
			c0-0.4,0.1-0.9,0.5-1.2s0.7-0.4,1.2-0.4s0.9,0.1,1.2,0.5C620.5,674.1,620.7,674.5,620.7,674.9L620.7,674.9z M620.1,674.9
			c0-0.3-0.1-0.6-0.4-0.8c-0.2-0.2-0.5-0.4-0.8-0.4s-0.6,0.1-0.8,0.4c-0.2,0.2-0.4,0.5-0.4,0.8s0.1,0.6,0.4,0.8
			c0.2,0.2,0.5,0.4,0.8,0.4s0.6-0.1,0.8-0.4C620,675.5,620.1,675.3,620.1,674.9L620.1,674.9z"/>
		<path class="st0" d="M621.2,673.3h0.5v1.9c0,0.6,0.2,0.9,0.7,0.9s0.8-0.3,0.8-0.9v-1.9h0.5v2c0,0.9-0.4,1.3-1.3,1.3
			c-0.9,0-1.3-0.4-1.3-1.3L621.2,673.3L621.2,673.3z"/>
		<path class="st0" d="M624.6,676.6v-3.3l2,1.9c0.1,0.1,0.2,0.2,0.4,0.4v-2.2h0.4v3.3l-2-2c-0.1-0.1-0.2-0.2-0.3-0.4v2.2
			L624.6,676.6L624.6,676.6z"/>
		<path class="st0" d="M629.9,674.9h1.3c0,0.1,0,0.3,0,0.3c0,0.4-0.1,0.8-0.4,1c-0.2,0.2-0.6,0.4-1.1,0.4s-0.9-0.1-1.3-0.4
			c-0.3-0.3-0.4-0.7-0.4-1.2c0-0.4,0.1-0.9,0.5-1.2c0.3-0.3,0.7-0.4,1.2-0.4s0.9,0.1,1.2,0.6l-0.4,0.3c-0.2-0.2-0.4-0.4-0.8-0.4
			c-0.4,0-0.6,0.1-0.8,0.3s-0.3,0.5-0.3,0.9s0.1,0.7,0.3,0.9s0.5,0.3,0.8,0.3s0.5-0.1,0.7-0.2c0.1-0.1,0.2-0.3,0.2-0.6v-0.1h-0.7
			V674.9L629.9,674.9z"/>
	</g>
	<g>
		
			<linearGradient id="SVGID_1_" gradientUnits="userSpaceOnUse" x1="-3997.7236" y1="65.9374" x2="-3997.7236" y2="52.8674" gradientTransform="matrix(-1 -5.061316e-03 5.061316e-03 -1 -3379.5813 700.6919)">
			<stop  offset="0" style="stop-color:#7B2702"/>
			<stop  offset="1" style="stop-color:#D52C17"/>
		</linearGradient>
		<path class="st1" d="M609.5,668.1v-5.5l12-7.3c0,0,1-0.6,2.2,0c0.9,0.6,3.7,2.3,3.7,2.3L609.5,668.1L609.5,668.1z"/>
		
			<linearGradient id="SVGID_00000031912230691546827140000000156589043788914585_" gradientUnits="userSpaceOnUse" x1="-2920.5151" y1="53.3537" x2="-2920.5151" y2="66.4103" gradientTransform="matrix(1 5.061433e-03 5.061433e-03 -1 3546.9185 736.3905)">
			<stop  offset="0" style="stop-color:#E49619"/>
			<stop  offset="1" style="stop-color:#DC7300"/>
		</linearGradient>
		<path style="fill:url(#SVGID_00000031912230691546827140000000156589043788914585_);" d="M635.6,668.3v-5.5l-11.9-7.3
			c0,0-1-0.6-2.2,0c-1,0.6-3.7,2.2-3.7,2.2L635.6,668.3L635.6,668.3z"/>
		<polygon class="st3" points="609.5,668.9 609.5,669.2 623.4,661 623.2,660.9 		"/>
	</g>
	<g>
		<path class="st0" d="M650,672.6v1.4l-10.8-0.1v-1.4h4.3l0.1-9h1.5v3.4h4.2v1.4H645v4.1L650,672.6L650,672.6z"/>
		<path class="st0" d="M654.8,669.9c-0.4,0.1-0.7,0.2-1,0.3v2.8c0,0.7-0.1,1-0.5,1.3c-0.4,0.2-1,0.3-1.8,0.3c0-0.4-0.2-1-0.4-1.3
			c0.4,0,1,0,1.1,0s0.2-0.1,0.2-0.2v-2.5l-1.3,0.4l-0.3-1.3c0.4-0.1,1-0.2,1.6-0.4v-2.2h-1.3v-1.3h1.4v-2.2h1.3v2.2h1v1.3h-1v1.8
			l0.9-0.2L654.8,669.9L654.8,669.9z M657.5,669.5c-0.1,0.2-0.2,0.4-0.4,0.6h4.6c0,0,0,0.3,0,0.5c-0.1,2.3-0.3,3.3-0.6,3.6
			c-0.2,0.3-0.4,0.4-0.7,0.4s-0.7,0.1-1.3,0c0-0.4-0.1-0.9-0.4-1.2c0.4,0.1,0.7,0.1,1,0.1c0.1,0,0.2,0,0.4-0.1
			c0.1-0.1,0.3-0.7,0.4-2.2h-0.4c-0.6,1.4-1.4,2.6-2.4,3.4c-0.2-0.2-0.7-0.5-1-0.7c0.9-0.7,1.6-1.6,2.1-2.8h-0.6
			c-0.7,1.3-1.9,2.4-2.9,3.1c-0.1-0.2-0.6-0.6-0.9-0.8c1-0.5,1.9-1.3,2.5-2.3h-0.6c-0.4,0.4-0.7,0.7-1.1,1c-0.2-0.2-0.7-0.6-0.9-0.7
			c0.7-0.5,1.4-1.2,1.9-2H655v-1.1l7.2,0.1v1.1L657.5,669.5L657.5,669.5z M661.3,667.9h-5.5v-4h5.5V667.9z M659.9,664.8H657v0.6h2.9
			V664.8z M659.9,666.3H657v0.6h2.9V666.3z"/>
		<path class="st0" d="M673.5,664.1l-0.1,10.7H672v-0.5l-7.4-0.1v0.5h-1.3l0.1-10.7L673.5,664.1L673.5,664.1z M672.1,673v-7.6h-1.5
			c0.4,0.1,0.7,0.4,1,0.7l-0.4,0.5h0.6v1h-2.2c0.1,0.7,0.1,1.3,0.2,1.8c0.2-0.4,0.4-1,0.6-1.5l1.1,0.2c-0.3,1-0.7,1.9-1.3,2.8
			c0.1,0.4,0.3,0.6,0.5,0.6c0.1,0.1,0.2-0.4,0.3-1.1c0.2,0.2,0.7,0.5,0.9,0.7c-0.2,1.5-0.8,1.9-1.6,1.6c-0.4-0.1-0.7-0.4-0.9-0.8
			c-0.4,0.4-0.8,0.7-1.3,1c-0.1-0.2-0.5-0.7-0.7-0.9c0.1-0.1,0.2-0.1,0.4-0.2c-1,0.1-1.9,0.2-2.7,0.4l-0.1-1
			c0.9-0.1,2.1-0.2,3.4-0.4v0.6c0.2-0.1,0.4-0.4,0.6-0.6c-0.2-0.9-0.4-1.9-0.5-3.1h-3.3v-1h3.2c0-0.3,0-0.7-0.1-1h1.2
			c0,0.4,0,0.7,0.1,1h1.3c-0.2-0.2-0.6-0.4-0.9-0.6l0.6-0.6h-5.8v7.6L672.1,673L672.1,673z M668.1,670.3h-2.7V668h2.7V670.3z
			 M667.2,668.8h-0.8v0.7h0.8V668.8z"/>
		<path class="st0" d="M680.3,668.9c-0.4,0.4-0.7,0.7-1.2,1c-0.1-0.2-0.4-0.6-0.7-0.8c0.1,0.4,0.1,0.8,0.1,1.1
			c0,0.7-0.1,1.3-0.5,1.6c-0.1,0.1-0.4,0.2-0.6,0.3c-0.2,0-0.4,0-0.7,0c0-0.3-0.1-0.8-0.3-1.2c0.2,0,0.4,0,0.4,0
			c0.1,0,0.2,0,0.3-0.1s0.2-0.4,0.2-0.7c0-0.6-0.1-1.3-0.7-2.2c0.2-0.7,0.4-1.7,0.6-2.5h-0.9l-0.1,9.4H675l0.1-10.7h2.5l0.2-0.1
			l0.9,0.5c-0.1,0.5-0.3,1-0.4,1.6c0.7-0.7,1.2-1.5,1.5-2.5l1,0.2c-0.1,0.2-0.1,0.4-0.2,0.6h0.9l0.2-0.1l0.7,0.3l-0.1,0.2l0.6-0.1
			v-0.5h1.9l0.2-0.1l0.7,0.4c-0.3,1-0.9,2-1.4,2.8c0.4,0.6,1,1.2,1.6,1.5c-0.2,0.2-0.6,0.7-0.8,1c-0.5-0.3-1-0.7-1.4-1.3v0.7h-3.5
			L680.3,668.9L680.3,668.9z M680,667.6c0.1-0.1,0.3-0.4,0.4-0.6c-0.2-0.2-0.5-0.5-0.8-0.7c-0.2,0.3-0.4,0.6-0.7,0.8
			c-0.1-0.1-0.4-0.4-0.7-0.6c-0.1,0.4-0.2,0.8-0.4,1.1c0.3,0.4,0.5,0.9,0.6,1.3c0.4-0.2,0.9-0.7,1.3-1.1c-0.4,0.1-0.9,0.1-1.3,0.2
			l-0.1-0.9c0.5-0.1,1-0.1,1.6-0.1L680,667.6L680,667.6z M680.9,672.1c-0.4,0.7-1.1,1.6-1.6,2.2c-0.3-0.2-0.8-0.6-1.1-0.7
			c0.5-0.5,1.1-1.2,1.5-1.9L680.9,672.1L680.9,672.1z M682.8,671.3v3.4h-1.3v-3.4h-2.2v-1.1h5.8v1.1H682.8L682.8,671.3z
			 M680.2,665.4L680.2,665.4c0.1,0.3,0.4,0.5,0.6,0.7c0.1-0.2,0.2-0.4,0.3-0.7L680.2,665.4L680.2,665.4z M683.5,668.3
			c-0.6-0.8-1-1.8-1.3-2.8c-0.3,1.1-0.7,2.1-1.3,2.8H683.5z M683.3,665.2c0.1,0.4,0.3,0.8,0.4,1.2c0.2-0.4,0.4-0.7,0.6-1.1
			L683.3,665.2L683.3,665.2z M684.4,671.6c0.5,0.6,1.3,1.4,1.6,1.9l-1.1,0.7c-0.3-0.5-1-1.4-1.6-2L684.4,671.6z"/>
		<path class="st0" d="M690.5,667.8c-0.1,1.7-0.4,3.2-1,4.3c1.1,1,2.5,1.2,4.3,1.2c0.7,0,3.1,0,4,0c-0.2,0.3-0.4,0.9-0.5,1.3h-3.5
			c-2,0-3.7-0.3-4.9-1.3c-0.4,0.6-0.8,1.1-1.3,1.5c-0.2-0.3-0.7-0.7-1-0.9c0.6-0.4,1-0.9,1.4-1.6c-0.4-0.6-0.7-1.3-1-2.3l1-0.4
			c0.1,0.5,0.4,1,0.6,1.4c0.2-0.6,0.4-1.3,0.4-2.1h-1.9c0.4-0.9,1.1-2.2,1.6-3.4H687v-1.3h3.7c-0.4,1-1,2.3-1.5,3.4h0.3h0.2
			L690.5,667.8L690.5,667.8z M693,665.7h-2v-1h2v-0.9h1.3v0.9h2.6v1.6h0.7v1H697v1.6h-2.6v0.6h2.8v1h-2.8v0.6h3.1v1.1h-3.1v0.8H693
			v-0.8h-2.6v-1.1h2.6v-0.6h-2.2v-1h2.2v-0.6h-2.1v-1h2.1v-0.5h-2.7v-1h2.7V665.7L693,665.7z M694.4,665.7v0.5h1.3v-0.5H694.4z
			 M695.7,667.3h-1.3v0.5h1.3V667.3z"/>
		<path class="st0" d="M709.7,665.5h-2.1c0.2,0.2,0.4,0.5,0.6,0.7l-1,0.7h0.8v2.2c0,0.2,0,0.3,0,0.4c0,0.1,0.1,0.1,0.1,0.1h0.1
			c0.1,0,0.1,0,0.1-0.1c0,0,0.1-0.1,0.1-0.2c0-0.1,0-0.4,0.1-0.8c0.2,0.2,0.6,0.4,0.9,0.5c0,0.4-0.1,1-0.1,1.2
			c-0.1,0.1-0.2,0.4-0.4,0.4c-0.1,0.1-0.4,0.1-0.6,0.1h-0.6c-0.3,0-0.6-0.1-0.8-0.3c-0.1-0.2-0.3-0.4-0.3-1l-0.4,0.9
			c-0.2-0.1-0.5-0.3-0.8-0.4c-0.1,0.2-0.4,0.4-0.7,0.6h0.1v0.7h4.7v1.1h-3.1c1,0.4,2.3,1,3.1,1.6l-1,1c-0.7-0.5-2-1.2-3-1.6l1-0.8
			H705v2.7h-1.3v-2.7H699v-1.1h4.7v-0.7h0.1c-0.1-0.1-0.3-0.3-0.4-0.4v0.1c-1.5,0.2-3,0.4-4.2,0.5l-0.1-1.1c0.4-0.1,1-0.1,1.6-0.1
			v-1.4h-1.5v-1h3c-0.2-0.3-0.6-0.7-0.9-1.1l0.4-0.4h-0.8c-0.4,0.5-0.7,0.9-1.2,1.3c-0.2-0.2-0.7-0.7-1-1c0.7-0.5,1.4-1.3,1.8-2.1
			l1.3,0.4c-0.1,0.1-0.1,0.2-0.2,0.4h2.6v1h-1.7c0.3,0.3,0.6,0.6,0.7,0.8l-0.8,0.7h1v1H702v1.3c0.4-0.1,0.9-0.1,1.3-0.1v0.9
			c0.6-0.2,0.9-0.4,1.1-0.7c-0.4-0.1-0.7-0.3-1-0.4l0.5-0.8c0.2,0.1,0.5,0.2,0.8,0.4c0-0.1,0-0.1,0-0.2V668h-1.1v-0.9h3.6
			c-0.2-0.3-0.6-0.7-0.9-1.1l0.4-0.3h-0.9c-0.4,0.5-0.7,0.9-1,1.3c-0.2-0.2-0.7-0.7-1-0.8c0.7-0.5,1.3-1.3,1.6-2.2l1.3,0.4
			c-0.1,0.1-0.1,0.3-0.1,0.4h3.3L709.7,665.5L709.7,665.5z M703,672.7c-0.7,0.9-2,1.7-3.3,2.1c-0.2-0.4-0.6-0.9-0.9-1.2
			c1.2-0.2,2.4-0.7,3.1-1.3L703,672.7L703,672.7z M706,668.2c0,0.2,0,0.4-0.1,0.7c0.4,0.1,0.7,0.3,0.9,0.4v-0.1v-1.3H706V668.2
			L706,668.2z"/>
		<path class="st0" d="M721.2,664.2l-0.1,10.8h-1.3v-0.6l-7.4-0.1v0.6h-1.3l0.1-10.8L721.2,664.2L721.2,664.2z M719.8,673.3v-8
			l-7.4-0.1v8L719.8,673.3z M719.6,671.6H718v0.7c0,0.4-0.1,0.6-0.4,0.7c-0.3,0.1-0.8,0.1-1.5,0.1c-0.1-0.2-0.1-0.5-0.3-0.7
			c0.4,0,0.7,0,0.8,0s0.1-0.1,0.1-0.1v-0.7h-2.1c0.3,0.3,0.7,0.7,0.8,1l-1,0.4c-0.1-0.3-0.5-0.7-0.8-1l0.7-0.4h-1.9v-0.7h4.2v-0.4
			h1.2v0.4h0.6c-0.1-0.1-0.2-0.2-0.4-0.4c-1.9,0.1-4,0.1-5.4,0.1l-0.1-0.7c0.7,0,1.6,0,2.7,0v-0.4H713V667h2.4v-0.4h-2.7v-0.7h2.7
			v-0.4h1.1v0.4h2.7v0.7h-2.7v0.4h2.4v2.5h-0.6c0.4,0.3,0.7,0.7,1,0.9l-0.6,0.4h0.7L719.6,671.6L719.6,671.6z M714.3,668h1.3v-0.3
			h-1.3V668z M715.5,668.9v-0.4h-1.3v0.4H715.5z M716.7,667.6v0.4h1.3v-0.4H716.7z M718,668.5h-1.3v0.3h1.3V668.5z M716.7,669.8h1
			l-0.1-0.1l0.4-0.3h-1.2v0.4H716.7z"/>
		<path class="st0" d="M726.7,664.8c-0.3,1-0.7,2.3-1,3.2c0.7,0.9,0.9,1.7,0.9,2.4s-0.1,1.3-0.5,1.5c-0.1,0.1-0.4,0.2-0.7,0.2
			c-0.2,0-0.5,0-0.7,0c0-0.4-0.1-0.9-0.3-1.2c0.2,0,0.4,0,0.5,0s0.2-0.1,0.4-0.1c0.1-0.1,0.2-0.4,0.2-0.7c0-0.6-0.1-1.3-0.8-2.1
			c0.2-0.7,0.5-1.8,0.7-2.6h-0.9l-0.1,9.3h-1.2l0.1-10.6h2.6l0.2-0.1L726.7,664.8L726.7,664.8z M733.5,668.3
			c-0.4,0.3-0.9,0.6-1.4,0.9c0.4,1.3,1.1,2.5,1.8,3.3c-0.3,0.2-0.7,0.6-0.9,0.9c-0.7-0.9-1.4-2.3-1.9-3.7H731
			c0.6,1.9,0.3,3.9-0.4,4.6c-0.4,0.4-0.7,0.6-1.4,0.6c-0.2,0-0.6,0-1,0c0-0.4-0.1-0.9-0.3-1.3c0.4,0.1,0.7,0.1,1,0.1
			s0.4-0.1,0.6-0.3c0.2-0.2,0.4-0.8,0.4-1.6c-0.9,0.7-2,1.3-3,1.6c-0.1-0.3-0.5-0.7-0.8-1c1.3-0.4,2.9-1.2,3.7-2
			c-0.1-0.2-0.1-0.4-0.1-0.6c-0.7,0.5-1.6,1.1-2.3,1.4c-0.1-0.3-0.4-0.7-0.7-1c0.9-0.3,2-0.9,2.7-1.4c-0.1-0.2-0.2-0.4-0.4-0.7
			c-0.6,0.4-1.3,0.8-1.9,1.1c-0.1-0.2-0.6-0.7-0.8-1c0.9-0.3,1.7-0.7,2.5-1.3h-2.1v-1.2h1.9c-0.3-0.4-0.7-0.8-1.1-1.2l1-0.6
			c0.6,0.4,1.1,1,1.4,1.4l-0.6,0.4h1c0.4-0.5,0.8-1.3,1.1-1.9l1.3,0.4c-0.3,0.5-0.7,1-1,1.5h1.8v1.3h-3.1c-0.1,0.1-0.3,0.3-0.5,0.4
			c0.3,0.4,0.6,0.8,0.8,1.3c0.7-0.4,1.5-0.9,1.9-1.3L733.5,668.3L733.5,668.3z"/>
	</g>
	<path class="st0" d="M752.2,673.1v1.4l-10.8-0.1V673h4.3l0.1-9h1.5v3.4h4.2v1.4h-4.2v4.1L752.2,673.1L752.2,673.1z"/>
	<path class="st0" d="M757.1,670.4c-0.4,0.1-0.7,0.2-1,0.3v2.8c0,0.7-0.1,1-0.5,1.3c-0.4,0.2-1,0.3-1.8,0.3c0-0.4-0.2-1-0.4-1.3
		c0.4,0,1,0,1.1,0s0.2-0.1,0.2-0.2v-2.5l-1.3,0.4l-0.3-1.3c0.4-0.1,1-0.2,1.6-0.4v-2.2h-1.3v-1.3h1.4v-2.2h1.3v2.2h1v1.3h-1v1.8
		l0.9-0.2L757.1,670.4L757.1,670.4z M759.7,670.1c-0.1,0.2-0.2,0.4-0.4,0.6h4.6c0,0,0,0.3,0,0.5c-0.1,2.3-0.3,3.3-0.6,3.6
		c-0.2,0.3-0.4,0.4-0.7,0.4c-0.3,0.1-0.7,0.1-1.3,0c0-0.4-0.1-0.9-0.4-1.2c0.4,0.1,0.7,0.1,1,0.1c0.1,0,0.2,0,0.4-0.1
		c0.1-0.1,0.3-0.7,0.4-2.2h-0.4c-0.6,1.4-1.4,2.6-2.4,3.4c-0.2-0.2-0.7-0.5-1-0.7c0.9-0.7,1.6-1.6,2.1-2.8h-0.6
		c-0.7,1.3-1.9,2.4-2.9,3.1c-0.1-0.2-0.6-0.6-0.9-0.8c1-0.5,1.9-1.3,2.5-2.3h-0.6c-0.4,0.4-0.7,0.7-1.1,1c-0.2-0.2-0.7-0.6-0.9-0.7
		c0.7-0.5,1.4-1.2,1.9-2h-1.3v-1.1l7.2,0.1v1.1L759.7,670.1L759.7,670.1z M763.4,668.4h-5.5v-4h5.5V668.4z M762.2,665.3h-2.9v0.6
		h2.9V665.3z M762.2,666.8h-2.9v0.6h2.9V666.8z"/>
	<path class="st0" d="M775.8,664.6l-0.1,10.7h-1.4v-0.5l-7.4-0.1v0.5h-1.3l0.1-10.7L775.8,664.6L775.8,664.6z M774.4,673.5l0.1-7.6
		H773c0.4,0.1,0.8,0.4,1,0.7l-0.4,0.5h0.6v1H772c0.1,0.7,0.1,1.3,0.2,1.8c0.2-0.4,0.4-1,0.6-1.5l1,0.2c-0.3,1-0.7,1.9-1.3,2.8
		c0.1,0.4,0.3,0.6,0.5,0.6c0.1,0.1,0.2-0.4,0.3-1.1c0.2,0.2,0.7,0.5,0.9,0.7c-0.2,1.5-0.8,1.9-1.6,1.6c-0.4-0.1-0.7-0.4-0.9-0.8
		c-0.4,0.4-0.8,0.7-1.3,1c-0.1-0.2-0.5-0.7-0.7-0.9c0.1-0.1,0.2-0.1,0.4-0.2c-1,0.1-1.9,0.2-2.7,0.4l-0.1-1c0.9-0.1,2.1-0.2,3.4-0.4
		v0.6c0.2-0.1,0.4-0.4,0.6-0.6c-0.2-0.9-0.4-1.9-0.5-3.1h-3.3v-1h3.2c0-0.3,0-0.7-0.1-1h1.2c0,0.4,0,0.7,0.1,1h1.3
		c-0.2-0.2-0.6-0.4-0.9-0.6l0.6-0.6H767v7.6L774.4,673.5L774.4,673.5z M770.3,670.8h-2.7v-2.2h2.7V670.8z M769.4,669.3h-0.8v0.7h0.8
		V669.3z"/>
	<path class="st0" d="M782.6,669.4c-0.4,0.4-0.7,0.7-1.2,1c-0.1-0.2-0.4-0.6-0.7-0.8c0.1,0.4,0.1,0.8,0.1,1.1c0,0.7-0.1,1.3-0.5,1.6
		c-0.1,0.1-0.4,0.2-0.6,0.3c-0.2,0-0.4,0-0.7,0c0-0.3-0.1-0.8-0.3-1.2c0.2,0,0.4,0,0.4,0c0.1,0,0.2,0,0.3-0.1s0.2-0.4,0.2-0.7
		c0-0.6-0.1-1.3-0.7-2.2c0.2-0.7,0.4-1.7,0.6-2.5h-0.9l-0.1,9.4h-1.2l0.1-10.7h2.5l0.2-0.1l0.9,0.5c-0.1,0.5-0.3,1-0.4,1.6
		c0.7-0.7,1.2-1.5,1.5-2.5l1,0.2c-0.1,0.2-0.1,0.4-0.2,0.6h0.9l0.2-0.1l0.7,0.3l-0.1,0.2l0.6-0.1v-0.5h1.9l0.2-0.1l0.7,0.4
		c-0.3,1-0.9,2-1.4,2.8c0.4,0.6,1,1.2,1.6,1.5c-0.2,0.2-0.6,0.7-0.8,1c-0.5-0.3-1-0.7-1.4-1.3v0.7h-3.5L782.6,669.4L782.6,669.4z
		 M782.2,668.1c0.1-0.1,0.3-0.4,0.4-0.6c-0.2-0.2-0.5-0.5-0.8-0.7c-0.2,0.3-0.4,0.6-0.7,0.8c-0.1-0.1-0.4-0.4-0.7-0.6
		c-0.1,0.4-0.2,0.8-0.4,1.1c0.3,0.4,0.5,0.9,0.6,1.3c0.4-0.2,0.9-0.7,1.3-1.1c-0.4,0.1-0.9,0.1-1.3,0.2l-0.1-0.9
		c0.5,0,1-0.1,1.6-0.1L782.2,668.1L782.2,668.1z M783.1,672.7c-0.4,0.7-1.1,1.6-1.6,2.2c-0.3-0.2-0.8-0.6-1.1-0.7
		c0.5-0.5,1.1-1.2,1.5-1.9L783.1,672.7L783.1,672.7z M785,671.8v3.4h-1.3v-3.4h-2.2v-1.1h5.8v1.1H785L785,671.8z M782.4,665.9
		L782.4,665.9c0.1,0.3,0.4,0.5,0.6,0.7c0.1-0.2,0.2-0.4,0.3-0.7L782.4,665.9L782.4,665.9z M785.8,668.8c-0.6-0.8-1-1.8-1.3-2.8
		c-0.3,1.1-0.7,2.1-1.3,2.8H785.8z M785.5,665.7c0.1,0.4,0.3,0.8,0.4,1.2c0.2-0.4,0.4-0.7,0.6-1.1L785.5,665.7L785.5,665.7z
		 M786.6,672.1c0.5,0.6,1.3,1.4,1.6,1.9l-1.1,0.7c-0.3-0.5-1-1.4-1.6-2L786.6,672.1L786.6,672.1z"/>
	<path class="st0" d="M800,667.6v1h-2.2l-0.1,0.9l-6.9-0.1l0.1-0.9H789v-1h2l0.1-0.9l6.7,0.1l-0.1,0.9H800L800,667.6z M796.8,673.7
		c1,0.3,2.1,0.6,2.8,0.8l-1,0.9c-0.9-0.3-2.2-0.8-3.6-1.2l0.5-0.5h-2.2l0.7,0.5c-1,0.5-2.7,1-4,1.2c-0.1-0.3-0.5-0.7-0.7-1
		c1-0.1,2.3-0.4,3.1-0.7h-1.7v-3.9l7.8,0.1v3.9L796.8,673.7L796.8,673.7z M790.7,667.2h-1.3v-2.1h4.3c-0.1-0.2-0.2-0.5-0.4-0.7
		l1.3-0.3c0.2,0.3,0.4,0.7,0.5,1h4.3v2.1h-1.3v-1l-7.5-0.1L790.7,667.2L790.7,667.2z M792,670.9h4.9v-0.4H792V670.9z M792,671.9h4.9
		v-0.4H792V671.9L792,671.9z M792,673h4.9v-0.4H792V673z M792.2,668.8h1.6l0.1-0.4h-1.6L792.2,668.8z M792.4,667.4l-0.1,0.4h1.6
		l0.1-0.3L792.4,667.4L792.4,667.4z M796.5,668.8l0.1-0.4h-1.5l-0.1,0.4H796.5L796.5,668.8z M796.6,667.4h-1.5v0.3h1.5V667.4z"/>
	<path class="st0" d="M805.5,673.6c-0.8,0.7-2.2,1.3-3.5,1.6c-0.1-0.3-0.5-0.7-0.8-1c1.2-0.1,2.5-0.6,3.3-1L805.5,673.6L805.5,673.6
		z M811.7,671.5v1.2h-4.6v2.7h-1.4v-2.8h-4.6v-1.2h4.6V671h-3.4v-1h3.4v-0.5h-4v-1h2.2c-0.1-0.3-0.3-0.6-0.4-0.9l0.8-0.1h-3.1v-1.1
		h1.6c-0.1-0.4-0.5-1-0.7-1.5l1.2-0.4c0.4,0.5,0.7,1.2,0.9,1.6l-0.6,0.2h1.1v-1.9h1.3v1.9h0.9v-1.9h1.3v1.9h1l-0.4-0.1
		c0.3-0.4,0.6-1.2,0.7-1.7l1.5,0.4c-0.3,0.5-0.7,1-1,1.5h1.6v1.1h-3.1l1.1,0.3c-0.2,0.3-0.5,0.5-0.7,0.7h2.3v1H807v0.5h3.6v1H807
		v0.5H811.7L811.7,671.5z M804.9,667.3c0.1,0.3,0.4,0.7,0.4,0.9l-0.7,0.1h3.3l-0.4-0.1c0.2-0.3,0.4-0.6,0.6-0.9H804.9L804.9,667.3z
		 M808.6,673c1,0.4,2.4,1,3.1,1.3l-1,0.7c-0.7-0.4-2.1-1-3.1-1.4L808.6,673L808.6,673z"/>
	<path class="st0" d="M813.5,670.7c0-2.4,0.7-4.3,1.8-6.1l1.1,0.4c-1,1.7-1.5,3.7-1.5,5.7c0,1.9,0.4,4,1.4,5.8l-1.1,0.4
		C814.1,675,813.4,673,813.5,670.7L813.5,670.7z"/>
	<path class="st0" d="M828.1,669.8c-0.4,1.5-1.1,2.7-2,3.6c0.7,0.4,1.5,0.7,2.3,0.9c-0.3,0.3-0.7,0.8-0.9,1.2
		c-1-0.3-1.8-0.7-2.5-1.2c-0.7,0.5-1.6,0.8-2.6,1.1c-0.1-0.4-0.4-0.9-0.7-1.2c-0.1,0.4-0.1,0.7-0.4,0.9c-0.3,0.2-0.8,0.2-1.5,0.2
		c-0.1-0.4-0.1-1-0.4-1.3c0.4,0,0.7,0,0.9,0s0.1-0.1,0.1-0.1v-2.4c-0.3,0.2-0.6,0.4-0.9,0.6l-0.4-0.9c-0.1,1.5-0.3,3.1-0.7,4.3
		c-0.2-0.2-0.8-0.5-1.1-0.7c0.6-1.6,0.7-4,0.7-5.8v-4.3h3.7v3.6c1.3-0.6,1.4-1.5,1.4-2.2v-1.3h4v2.6c0,0.4,0,0.4,0.1,0.4h0.4
		c0.1,0,0.4,0,0.6-0.1c0.1,0.4,0.1,0.8,0.1,1.1c-0.1,0.1-0.4,0.1-0.7,0.1H827c-1.1,0-1.3-0.5-1.3-1.6V666h-1.4l0,0
		c0,1.1-0.4,2.4-1.9,3.2c-0.1-0.2-0.6-0.7-0.8-0.9v5.5c0,0.1,0,0.2,0,0.3c0.8-0.1,1.6-0.4,2.2-0.8c-0.6-0.7-1.1-1.4-1.5-2.3l0.6-0.1
		H822v-1.3h4.9l0.2-0.1L828.1,669.8L828.1,669.8z M819.2,669.1c0,0.5,0,1-0.1,1.6c0.4-0.1,0.7-0.3,1.3-0.4V669l-0.4,0.4
		c-0.1-0.2-0.4-0.6-0.7-0.9L819.2,669.1L819.2,669.1z M819.2,666v1.5l0.3-0.2c0.3,0.3,0.6,0.6,0.9,0.9V666H819.2L819.2,666z
		 M823.7,670.8c0.3,0.6,0.7,1.2,1.3,1.7c0.5-0.4,1-1,1.3-1.7H823.7L823.7,670.8z"/>
	<path class="st0" d="M829.5,676.4c1-1.7,1.5-3.7,1.5-5.7c0-1.9-0.4-4-1.4-5.7l1.1-0.4c1.1,1.9,1.8,3.8,1.7,6.2
		c0,2.4-0.7,4.3-1.8,6.2L829.5,676.4L829.5,676.4z"/>
</g>
<rect x="1.8" y="-77.7" class="st4" width="1438.2" height="808.9"/>
<g>
	<g>
		<g>
			
				<image style="overflow:visible;opacity:0.6;enable-background:new    ;" width="774" height="327" xlink:href="115D98BA.png"  transform="matrix(0.9984 0 0 0.9984 401.769 32.4205)">
			</image>
			<g>
				<g>
					<path class="st0" d="M940.9,246.2c4.1-2.8,4.1-6.4,3-10.4c-0.3-0.9-1.2-1.8-2-2.2c-2.1-1.3-4.3-2.3-6.6-3.4
						c-2.5-1.1-4.9-2.2-7.5-3.1c-1.1-0.4-1.9-0.4-2.2,1.2c-0.3,1.3-1,2.8-1.9,3.8c-1.6,1.9-3.6,3.5-5.3,5.3
						c-1.7,1.8-4.6,1.6-6.2,3.9c-0.5,0.8-1.9,1-2.9,1.6c-1.8,1-3.1,0.4-3.3-1.6c-0.1-3.1-0.3-6.2-0.4-9.3c0-5.4,1.6-10.4,3.4-15.4
						c0.5-1.5,1-3,1.1-4.6c0.4-4.1,0.7-8.3,1.1-12.4c0.4-3.3,1-3.7,4.2-4.3c3-0.5,6.1-1.1,9-1.9c2-0.6,2.7-2.3,2.5-4.4
						c-0.2-2.5-0.7-4.9-3-6.4c-0.1-0.1-0.4,0-0.5-0.1c-3.2-1.2-6.5-2.3-9.7-3.5c-1-0.4-1.2-1-1.2-2c0.1-3.9,0.4-7.9,0.3-11.8
						c-0.1-7.7-1-15.4-3.4-22.8c-0.9-2.6-1.6-5.4-4.2-7c-1.1-0.7-2.5-0.8-3.7-1.5c-3.2-1.6-6.4-3.4-9.5-5.1c-1.9-1-3.7-2-5.8-3.1
						c-0.3,1.1-0.7,1.9-0.7,2.6c0.3,2.7,0.5,5.4,1.3,8c1,3.7,3.7,6.4,6.3,9.1c3.1,3.3,5,7,5,11.7c0,3.1,0.3,6.3,0.4,9.4
						c0.1,5.6,0.1,11.2,0,16.9c-0.1,3.1-0.4,3.4-3.4,4c-1,0.2-1.9,1.1-2.8,1.7c0.1,0.1,0.1,0.4,0.2,0.5c-0.8-0.2-1.7-0.7-2.5-0.6
						c-1.1,0.1-2.5,0.1-3.1,0.8c-1.1,1.2-2.1,1.3-3.5,1c-2.5-0.6-5-1.2-7.6-1.6c-3.4-0.6-6.8-1-10.3-1.5c-2.8-0.4-5.6-0.8-8.5-0.7
						c-1.3,0.1-2.2,0.4-3.3-0.6c-1.2-1-3-0.1-3.3,1.5c-0.1,0.7-0.1,1.6,0,2.2c1,5.4,3.2,10.3,7.3,14c1,1,2.8,1.6,4.2,1.6
						c2.8-0.1,5.7-0.3,8.4-1.2c4.9-1.6,9.7-3.8,14.7-5.5c3.4-1.1,6.9-1.9,10.4-2.6c1.4-0.3,2.3,0.4,2,2c-0.2,1.3-0.4,2.8-0.4,4.1
						c-0.1,4.3-0.1,8.6-0.4,12.9c-0.3,4.3-1,8.5-4.1,11.9c-1,1.1-1.8,2.7-2,4.2c-0.4,2.3-1.6,3.4-3.6,3.8c-3.9,0.9-7.9,1.7-11.8,2.5
						c-1.8,0.4-3.2,1.2-4.2,2.8c-1.4,2.5-2.8,4.9-4.5,7.2c-2.5,3.2-2.3,6.7-1.1,10.2c2.2,6.4,7.5,10.7,13.2,10.9
						c2.8,0.1,5-1.3,7.1-2.8c7.3-5.1,14.5-10.4,21.7-15.5c3.5-2.5,7.1-4.7,10.8-7c0.9-0.5,2.2-0.4,3.7-0.7c-2.1,3.7-4,6.8-5.8,10
						c-0.3,0.5-1,0.8-1.6,1.3c-0.5,0.5-0.8,1.3-1.3,2c-0.7-0.4-1.3-0.7-1.9-1c-0.4,0.7-0.8,1.3-1.2,2c-1,1.8-0.5,4.5,0.9,5.8
						c1.3,1.2,3,1.1,5-0.4c2.2-1.7,4.4-3.6,6.4-5.6c2.8-2.8,6-4.9,9.7-6.5C934.8,249.9,938,248.1,940.9,246.2z"/>
					<path class="st0" d="M845.6,265c-1.3,0.1-2.7-0.6-3.8-1.3c-2.3-1.3-4.4-2.8-6.7-4.1c-1.6-0.9-3.5-1.8-5.3-2
						c-3.8-0.5-7.7-0.9-11.6-0.8c-6,0.1-12.1-0.7-18,1.4c-1,0.4-2.1,0.2-3.1,0.1c-4.7-0.2-9.4-0.4-14.1-0.7
						c-14.5-1.1-28.4-4.8-41.6-11.2c-6.3-3-12.5-6.2-18.7-9.4c-0.3-0.1-0.6-0.4-1-0.6c-1-0.5-1.3-1.3-0.9-2.3
						c0.7-1.8,1.4-3.6,2.3-5.3c5-9.7,11.2-18.6,17.8-27.3c4-5.4,8.5-10.4,12.8-15.7c1.2-1.4,2.6-1.6,4.2-0.7
						c3.7,1.9,7.2,1.1,10.6-0.6c2.5-1.3,3.4-3.1,2.8-5.7c-0.5-1.9-1.3-3.8-2.6-5.2c-1.5-1.6-3.4-3.1-5.5-4.1
						c-4.4-2.3-9-4.3-13.6-6.3c-0.7-0.3-1.9-0.1-2.6,0.3c-4.6,2.7-9.1,5.4-13.6,8.2c-1.4,0.9-2.6,2.1-3.7,3.4
						c-2.5,3.1-4.9,6.4-7.4,9.7c-7.8,10.4-15.4,20.9-21.5,32.5c-3.6,6.9-7,13.9-7.7,21.7c-0.1,0.9-0.1,1.9-0.3,2.8
						c-0.6,2.3-1.3,4.6-2.1,6.8c-0.6,1.9-1,4-2,5.8c-0.9,1.6-2.5,2.9-3.6,4.6c-0.6,0.9-1.3,2.1-1.2,3.1c0.4,7.3,3.1,13.3,10,16.8
						c6.2,3.2,12.1-0.4,12.5-7.3c0.1-2.4,0-5,1-7.2c1.7-4,4.8-7.1,9.1-8.7c5.6-2,11.2-1.6,16.4,0.9c6.6,3.2,13,7,19.5,10.4
						c2.8,1.4,5.7,3,8.8,3.7c6,1.3,12.1,2,18.1,2.9c8.2,1.2,16.3,2.1,24.6,1.5c3.7-0.3,7.4-0.1,11.1-0.1c0.1,0.3,0.1,0.5,0.1,0.8
						c-7.9,2.5-16,5.2-24,7.7c1,3.7,2,4.1,5.2,2.9c2.8-1,5.5-2.1,8.4-2.6c10.1-1.9,20.3-3.5,30.4-5.3c4.6-0.8,9.4-1.4,13.7-3.7
						c0.7-0.4,1.5-0.7,1.7-1.3C851.6,269.9,849.3,264.8,845.6,265z"/>
					<path class="st0" d="M512.6,271.9c0.5,0.4,1.3,0.7,2,0.9c3.1,0.9,5.8-0.4,8.4-1.6c7.6-3.8,15.1-7.9,22.7-11.5
						c5-2.4,10.3-4.6,15.5-6.4c4.1-1.3,6.7,0.2,7.9,4.4c0.9,3.4,1.2,6.9,1.9,10.3c0.7,3.9,1.1,7.9,2.4,11.7
						c1.9,5.5,5.7,7.9,11.4,7.5c6.9-0.5,7.7-3.3,6.5-8.2c-0.7-2.6-1.9-5.1-3.1-7.6c-1.6-3.2-3.5-6.2-4.9-9.5
						c-1.9-4.7-0.7-8.5,3.1-11.8c1.6-1.3,3.4-2.5,5.2-3.4c7.8-4.2,16.3-6.4,24.9-7.9c4.2-0.7,8.5-1,12.7-1.4c0.5-0.1,1,0.7,1.6,1
						c-0.4,0.4-0.8,1-1.3,1.5c-0.7,0.6-1.7,1.1-1.9,1.8c-1,3.1-3.3,5.1-6.2,6.4c-1.2,0.5-1.3,1.1-0.8,2.2c0.4,1,0.7,2,1.1,3.4
						c-0.7-0.3-0.9-0.4-1.1-0.4c-1.6-0.7-3.2-1.9-5.1-1c-1.6,0.7-3.6,1.4-4.7,2.8c-0.8,1-1.4,1.2-2.5,1.3c-3.4,0.2-6.7,0.5-10,0.8
						c-1.6,0.1-2.2,1.3-2.2,2.7c-0.1,0.8,0,1.6,0.1,2.4c0.7,3.7,2.5,7,5.2,9.8c2.9,3.1,6.3,5.2,10.9,4.1c2.4-0.5,4.9-0.7,7.4-0.8
						c3.3-0.2,6.7-0.2,10-0.4c4.2-0.3,8.2-1.3,11.8-3.4c3.6-2,4.4-7.9,0.4-10c-1.7-0.9-3.5-1.9-5.3-2.6c-2.8-1.2-5.6-2.2-8.8-3.4
						c1.1-0.9,1.9-1.6,2.8-2.1c5.8-2.9,11.5-5.6,17.3-8.5c3.8-1.9,7.6-4,11.3-6.3c1.1-0.7,2.2-2.1,2.5-3.4c0.7-3.3-1.7-7.6-4.8-8.9
						c-1.7-0.7-3.5-1.3-5.3-1.9c-3.3-1-6.6-1.9-9.1-4.5c-0.9-0.9-1.7-0.4-2.6,0.3c-1,0.7-2.1,1.2-3.1,1.6s-2.2,0.9-3.3,1.3
						c-1.3-0.1-2.7,0-4,0.2c-0.4,0.1-0.7,0.7-1.1,0.9c-3.8,1.3-7.7,2.4-11.7,3.7c-0.1,0.5-0.1,1.3-0.2,2.2c-1-0.1-1.8-0.4-2.7-0.5
						c-4.3-0.7-5.5-0.1-6.7,3.9c-2.1-2-4.6-1.7-7-1.3c-1.7,0.4-3.4,1-5,1.5c-3,1-5.9,1.8-9.9,1c1.1-1.6,1.9-3,2.8-4.1
						c2.2-2.6,4.9-4.9,6.7-7.8c1.9-3.3,4.5-5.8,7-8.6c4.3-4.7,8.5-9.7,12.3-14.8c4.3-5.8,8-12.1,12.1-18c2.4-3.5,5-6.9,7.3-10.4
						c1.2-1.9,1.6-4.4,2.8-6.3c2.4-3.7,5.2-7.3,7.9-10.7c2-2.5,0.7-8.2-2.2-9.6c-4.1-1.8-8.2-3.7-12.3-5.5c-6.6-2.9-6.3-4.1-12.6,2
						c-1.4,1.3-3.1,2.6-4.9,3.4c-3,1.3-6.1,2.1-9.3,3.1c-2.2,0.7-4.3,0.8-6.7-0.2c1-1.5,1.9-2.8,2.8-4c4.7-6,9.6-11.9,16.2-16
						c0.5-0.3,0.9-1.3,0.9-1.9c-0.1-3.2-0.4-6.5-2-9.4c-1.4-2.5-3.4-4.3-6.1-5.1c-1.7-0.5-3.5-0.8-5.2-1.6c-2.7-1.2-5.1-2.9-7.9-4
						c-1.7-0.7-3.7-0.7-4.7-2.8c-0.5,0.9-1,1.7-1,2.5c-0.1,3.4,0.9,6.4,2.5,9.2c1.6,2.8,3,5.7,4.6,8.5c-0.1,0.1-0.3,0.2-0.4,0.3
						c-0.5-0.2-1-0.4-1.6-0.7c-0.2,0.4-0.4,0.6-0.5,0.9c-1.5,4.9-5.1,8.4-8.7,11.8c-4.9,4.7-10.3,8.9-17,11.1
						c-2.2,0.7-2.6,1.3-2.3,3.7c0.7,4.8,2.7,9,5.8,12.6c1.3,1.6,3.4,2.8,5.4,3.4c1.6,0.5,3.7,0.4,5.4-0.1c4.2-1.3,8.2-2.8,12.3-4.4
						c4.6-1.8,9.2-3.9,13.9-5.5c2.8-1,5.7-1,8.8,0c-0.4,0.9-0.7,1.6-1.3,2.2c-7.6,10.2-15,20.4-22.7,30.6c-2.5,3.3-5.5,6.2-8.3,9.1
						c-0.4,0.4-1.6,0.6-2.3,0.4c-1.7-0.6-3.4-1.3-5-2.2c-3.1-1.7-6.1-3.5-8.9-5.5c-2.3-1.6-4.3-3.5-7.3-4.1
						c-3.8-0.8-7.3-2.5-10.5-4.9c-1-0.7-2.1-1.4-3.2-1.9c-2-0.9-2.8-0.2-2.8,2c0.2,8.2,4.1,13.9,11.5,17.1c3.4,1.5,7,2.8,10.6,4.1
						c3.5,1.3,6.6,3.1,9.2,5.8c-2.5,3-4.9,5.9-7.3,8.8c-0.6,0.5-1.6,0.8-2.2,1.4c-1.6,1.3-3.2,2.8-4.7,4.3
						c-6.5,6.2-12.8,12.7-19.5,18.6c-2.9,2.5-6.1,4.9-8.5,8c-0.8,1-2.2,1.7-3.6,2.2c-2,0.8-4.1,1.4-6.2,2c-5.5,1.5-10.9,3-16.4,4.4
						c-1.1,0.3-1.5,0.8-1.3,2C506.5,264.7,508.6,268.7,512.6,271.9z"/>
					<path class="st0" d="M1036.3,220.7c-0.4-1.8-0.8-3.3-2.6-4.2c-5.3-2.7-10.7-5.4-16-8.3c-4.6-2.6-9.4-3-14.5-2.8
						c-1.7,0.1-3.4,0.3-3.9,2.5c-0.1,0.4-0.5,0.9-0.8,0.8c-3.1-0.1-5.8,0.9-8.5,2.9c0.1-0.7,0.1-1,0.1-1.3c1.2-4.6,2.6-9.1,3.5-13.8
						c1.3-6.6,4.6-11.8,9.6-16.1c5.5-4.7,11-9.4,18.3-11.3c1.6-0.4,3.1-1.4,4.4-2.4c2.2-1.5,3.1-3.8,1.9-6.2c-0.8-1.6-2.2-3.1-3.7-4
						c-1.7-1.1-3.9-1.6-5.9-2.3c-3.4-1.2-6.8-2.1-9.3-5c-0.8-1-1.7-1.1-2.5,0.1c-0.8,1.3-1.7,2.6-2.6,3.9c-0.7,0.9-1.4,1.8-2.3,2.4
						c-4.1,2.8-8.8,4-13.7,4.6c-1.2,0.1-2.6-0.4-3.7-1c-1.6-1-1.9-1-2.8,0.7c-0.7,1.5-1.6,2.9-2.3,4.3c-1.2-0.3-2.2-0.8-2.9-0.7
						c-2.4,0.5-4.7,1.3-7,1.9c-1.4,0.4-2.2-0.1-1.7-1.4c0.6-1.9,1.2-3.8,2.3-5.4c3-4,7.3-6.7,11.7-8.8c8.5-4.1,17.1-7.9,25.6-12
						c2.5-1.3,5.1-2.8,7.4-4.4c2.2-1.6,1.9-7.1-0.2-8.2c-3.4-1.7-6.9-3.5-10.3-5.3c-3.8-1.9-7.7-3.5-12.1-3.2c-2.7,0.1-5.5,0-8.2,0
						c-0.5,0-1.3,0.4-1.4,0.7c-0.3,1-0.7,2.2-0.4,3.1c0.8,2.3,1.7,4.6,3,6.8c1.1,1.9,2.8,3.7,4.2,5.5c-1,1.3-2.1,2.5-3,3.8
						c-1.1,1.6-1.6,3.9-4.3,4.1c-0.3,0-0.5,0.5-0.9,0.7c-3,1.6-4,5.7-7.8,6.3c-0.1,0-0.4,0.2-0.4,0.4c-1.3,2.2-3.2,3.7-5.8,4.1
						c-0.2,0.1-0.5,0.5-0.5,0.9c-0.1,1.6-1.1,1.8-2.5,1.7c-1.7-0.1-3.5-0.4-5,1c-0.8,0.8-1.2,2.2-2.8,2.1c-0.1,0-0.4,0.7-0.4,1.1
						c-0.1,0.7,0,1.3,0,2.2c-3.1-1-5.4-0.5-6.9,2.3c-0.4,0.7-1.6,1.1-2.5,1.3c-1.3,0.3-2.7,0.4-4,0.5c-1.3,0.1-1.9,0.7-1.7,2
						c0.4,4.3,1.7,8.2,4.5,11.5c2.1,2.6,4.5,4.9,8.1,5.3c3.1,0.4,5.7-0.6,8.2-2.2c4.7-3.1,9.4-6.2,14-9.4c1.4-1,2.8-1.9,4.3-2.8
						c0.1,0.1,0.3,0.2,0.4,0.3c-1.1,3.9-1.9,7.9-3.4,11.7c-3.9,10.6-8,21-12,31.5c-0.4,1.3-1,2.2-2.5,2.2c-1.4,0.1-1.8,0.9-2,2.2
						c-0.4,2.7-0.8,5.5-1.6,8c-4,12.1-9.6,23.6-15,35.1c-1.9,4.2-3.9,8.3-5.9,12.7c-1.1-0.6-2.1-1.3-3.1-1.8c-1.2-0.5-2-0.4-2.6,1
						c-0.9,2.3-2,4.6-2.9,6.9c-0.2,0.5-0.4,1.2-0.4,1.8c0.4,5.4,2.4,10.2,6.1,14.2c3.4,3.7,9.6,4,13.3,0.6c0.7-0.7,1.5-2.3,1.2-3.2
						c-1.6-4.8,1.2-7.9,3.7-11.1c2.5-3.1,5.4-6.1,8-9.1c1.6-1.9,3.1-4.1,4.2-5.5c2.8,2.4,5.3,4.6,8,6.8c10,8.2,21.6,11.8,34.5,10.5
						c3.1-0.3,5.6-1.7,7.2-4.7c2.9-5.4,6.1-10.6,9.2-15.9c1.3-2.2,3.1-4.3,4.4-6.7c1.2-2.2,2.1-4.6,3-7
						C1034.5,240.6,1038.7,231.2,1036.3,220.7z M1013.2,227.5c-1.3,8.5-5.9,15.7-10.1,22.9c-2.3,4-5.1,7.7-7.9,11.4
						c-1.6,2.2-3.2,4.5-6.4,4.6c-0.4,0-0.7,0.8-1,1.3c-1.2-0.9-2.1-1.4-3.3-0.4c-0.3,0.3-1,0.4-1.4,0.2c-3.7-1.3-7.6-2.4-11.2-4
						c-2.5-1.1-2.8-2.2-1.8-4.8c3.2-7.6,6.5-15.2,9.9-22.8c0.3-0.7,1-1.4,1.6-1.7c5.5-2.3,11.2-4.6,16.8-6.8
						c4.2-1.6,8.5-2.8,13.1-2.3C1013.2,225.3,1013.5,225.7,1013.2,227.5z"/>
				</g>
			</g>
		</g>
		<g>
			
				<image style="overflow:visible;opacity:0.6;enable-background:new    ;" width="185" height="410" xlink:href="115D98BE.png"  transform="matrix(0.9971 0 0 0.9971 266.4376 31.7683)">
			</image>
			<g>
				<g>
					<g>
						<g>
							<g>
								<path class="st0" d="M460.5,124.7c1.1-0.3,2.2-0.7,3.4-1c0.4-0.1,0.7-0.2,1.2-0.4c0-0.1,0-0.1,0-0.1c-0.6,0.1-1.2,0-1.8,0.1
									c-0.6,0.1-1.2,0.4-1.8,0.4c-0.4,0.1-0.7,0.1-0.9,0.4c-0.1,0.1-0.1,0.1-0.2,0.1c-0.5,0.1-1,0.4-1.6,0.4
									c-0.1,0-0.1,0.1-0.1,0.1c-0.1,0.1-0.3,0.1-0.4,0.2c-0.3,0.1-0.4,0.3-0.5,0.6c0.8-0.1,1.4-0.7,2.2-0.5
									C460.1,124.8,460.3,124.8,460.5,124.7z"/>
								<path class="st0" d="M459.9,125.1L459.9,125.1L459.9,125.1z"/>
								<path class="st0" d="M469.2,121.1c0-0.1-0.1-0.1-0.2-0.1c-0.5-0.2-1-0.3-1.5-0.6c-0.1-0.1-0.3-0.1-0.4-0.1
									c-0.8-0.2-1.6,0.2-2.4,0.4c-0.9,0.2-1.8,0.5-2.7,0.8c-0.4,0.1-0.7,0.1-1,0.2c0-0.1,0-0.1-0.1-0.1c0.8-0.5,1.3-1.5,2.2-2
									c0.6-0.3,1.1-0.7,1.7-1.1c0.3-0.1,0.5-0.4,0.8-0.5c0.1-0.1,0.1-0.1,0.1-0.2c-0.1-0.3-0.1-0.7-0.4-0.9
									c-0.7-0.6-1.5-0.9-2.4-0.8c-0.4,0.1-0.9,0.1-1.3,0.1c-0.4-0.1-0.5,0.1-0.6,0.4c-0.1,0.5-0.4,0.9-0.8,1.2
									c-0.3,0.3-0.6,0.6-0.9,1c-0.1,0.1-0.1,0.4-0.1,0.6c-0.3,0.4-0.6,0.9-1,1.3c-0.4,0.5-1,1-1.4,1.6c-0.4,0.4-0.6,0.8-1,1.2
									c-0.1,0.1-0.2,0.1-0.4,0.2c-0.1-0.1-0.1-0.2-0.1-0.3c0.1-0.4,0.2-0.7,0.4-1.1s0.5-0.7,0.5-1c0-0.4,0.2-0.5,0.4-0.7
									c0.2-0.2,0.5-0.5,1-0.4c0,0.1-0.1,0.3-0.1,0.4c0,0,0.1,0,0.1,0.1c0.2-0.3,0.7-0.4,0.9-0.9c-0.3,0.1-0.4,0.1-0.7,0.2
									l-0.1-0.1c0.4-0.2,0.4-0.5,0.2-0.9c-0.1-0.1-0.1-0.2-0.3-0.4c-0.1-0.1-0.3-0.3-0.4-0.4c-0.1-0.4-0.4-1-0.1-1.4
									c0.1-0.1,0.1-0.3,0.1-0.4c0.1-0.4,0.1-0.8,0.4-1.2c0.1-0.2,0.3-0.6,0.3-0.9c-0.1-0.4,0.1-0.6,0.4-0.8
									c0.1-0.1,0.2-0.2,0.4-0.4c-0.2,0.1-0.4,0.1-0.4,0.1c0.1-0.3,0.2-0.4,0.5-0.4s0.7,0.1,0.9-0.1c0.3-0.2,0.7-0.2,1-0.2
									c0.7,0,1.5,0,2.2-0.4c0.4-0.2,1-0.7,1.6-0.3c0,0,0.1,0,0.1-0.1s0-0.1,0-0.1c-0.1-1-0.4-2.1-0.5-3.2c0-0.1-0.1-0.1-0.1-0.1
									c-0.2-0.4-0.6-0.7-0.7-1c-0.1-0.5-0.5-0.8-0.9-1.2c-0.7-0.7-1.5-0.7-2.3-0.6c-0.3,0-0.6,0.1-0.9,0.1c-0.1,0-0.4,0.1-0.5,0.1
									c-0.3,0.1-0.6,0.1-0.9,0.1c0,0-0.1-0.1-0.1-0.1c-0.1-0.1-0.3-0.2-0.4-0.4c-0.2-0.2-0.5-0.5-0.7-0.7
									c-0.1-0.2-0.4-0.4-0.6-0.5s-0.4-0.3-0.6-0.4c-0.1-0.1-0.2-0.4-0.2-0.7c0.1-0.4-0.4-0.7-0.7-1c-0.5-0.3-1.6-0.3-2.2,0.1
									c-0.1,0.1-0.1,0.1-0.1,0.1c-0.1,0.1-0.1,0.1-0.1,0.1c-0.4,0-0.4,0.4-0.6,0.7c0,0.1-0.1,0.1-0.1,0.1c-0.4,0.4-0.3,1-0.4,1.6
									c-0.1,0.4,0.2,0.7,0.3,1.1c0.1,0.5,0.1,1.2,0.1,1.8c0,0.4-0.2,0.9-0.4,1.3c-0.1,0.2-0.4,0.3-0.7,0.4c-0.4,0.2-0.7,0.4-1,0.6
									s-0.8,0.3-1.1,0.6c-0.4,0.4-0.9,0.4-1.3,0.8c-0.5,0.4-1.1,0.8-1.7,1.2c-0.5,0.3-1,0.7-1.5,0.9c-0.8,0.3-1.5,0.6-2,1.3
									c-0.4,0.5-0.7,1-1.4,0.9c-0.1,0-0.4,0.2-0.3,0.3c0.1,0.2,0.1,0.4,0.4,0.4c0.1,0,0.4,0,0.5,0c0.1,0,0.2,0.1,0.3,0.1
									c0.3,0.4,0.5,0.8,0.8,1.2c0.1,0.1,0,0.1,0,0.3c0,0.7,0.2,1.2,0.6,1.6c0.4,0.4,0.9,0.7,1.3,1c0.3,0.1,0.6,0.1,0.8-0.1
									c0.2-0.1,0.4-0.4,0.6-0.6c0.2-0.4,0.4-0.7,0.6-1c0.4-0.4,0.4-1.1,1-1.3l0.1-0.1c-0.1-0.4,0.3-0.4,0.4-0.6
									c0.3-0.2,0.6-0.5,0.9-0.7c0.4-0.2,0.8-0.3,1.2-0.4c0.1,0,0.2,0,0.3,0c0,0.2-0.1,0.4,0,0.4c0.2,0.4,0.3,0.8,0.2,1.3
									c0,0.1,0,0.2,0,0.3c0.2,0.4-0.1,0.7-0.4,0.8c-1,0.7-1.9,1.3-3.1,1.5c-0.2,0.1-0.4,0.2-0.3,0.5c0.1,0.3-0.1,1-0.4,1.3
									c-0.3,0.2-0.4,0.5-0.3,0.8c0.3,0.8,0.6,1.6,1.1,2.4c0.5,0.8,2,1,2.5,0.4c0.1-0.1,0.4-0.5,0.5-0.4c0.2,0.1,0.4,0.3,0.6,0.5
									c0,0,0.1,0.1,0.1,0.1c0.3,0.4,0.2,0.5-0.1,0.7c-0.2,0.1-0.4,0.2-0.5,0.4c-0.2,0.3-0.4,0.4-0.7,0.4c-0.1,0-0.4,0.1-0.4,0.1
									c-0.1,0.4-0.4,0.5-0.7,0.7c-0.4,0.2-0.7,0.4-1.1,0.7c-0.2-0.1-0.4,0-0.5,0.3c0,0.1-0.1,0.1-0.1,0.2
									c-0.8,0.6-1.6,1.2-2.5,1.9c-0.7,0.7-1.5,1.3-2.2,2c-0.3,0.3-0.5,0.7-0.9,1c-0.3,0.3-0.7,0.4-1.1,0.7
									c-0.4,0.4-0.8,0.8-0.8,1.4c0,0.4,0.1,1,0.2,1.4c0.1,0.7,0.7,1.1,1.3,1.5c0.1,0.1,0.4,0.1,0.5,0.2c0.2,0.1,0.4,0.2,0.6,0.1
									c0.1-0.1,0.3-0.1,0.4-0.1c0.5,0,0.6-0.1,0.7-0.6c0-0.2,0.1-0.6,0.2-0.6c0.6-0.1,0.6-0.6,0.6-1c0.1-0.4,0.1-0.9,0.6-1.2
									c0.1-0.1,0.1-0.1,0.2-0.3c0.4-0.4,0.7-0.8,1.1-1.2c1.8-1.3,3.6-2.8,5.7-3.7c0.3-0.1,0.5-0.4,0.7-0.7
									c0.1-0.1,0.2-0.2,0.3-0.3c0.8-0.4,1.6-0.7,2.4-1c0.4-0.1,0.7-0.3,1.1-0.4c0.1-0.1,0.4-0.1,0.6-0.2c0.4-0.3,0.9-0.7,1.3-1
									c0.8-0.6,1.7-1.3,2.8-1.5l0,0c-0.8-0.2-1.4,0.4-2.2,0.5c0.1-0.4,0.1-0.5,0.5-0.6c0.1-0.1,0.3-0.1,0.4-0.2
									c0.1,0,0.1-0.1,0.1-0.1c0.5,0,1-0.2,1.6-0.4c0.1,0,0.1-0.1,0.2-0.1c0.2-0.3,0.5-0.4,0.9-0.4c0.6-0.1,1.2-0.3,1.8-0.4
									c0.6-0.1,1.2-0.1,1.8-0.1c0,0.1,0,0.1,0,0.1c-0.4,0.1-0.7,0.2-1.2,0.4c-1.1,0.4-2.2,0.7-3.4,1c-0.2,0.1-0.5,0.1-0.6,0.4l0,0
									l0,0l0,0c0.2-0.1,0.4-0.1,0.6-0.1c0.4-0.1,0.9-0.1,1.3-0.3c1-0.4,2-0.6,3.1-0.7c0.9-0.1,1.8,0.1,2.6-0.4
									c0.4-0.3,1.1-0.1,1.5-0.7C469.2,122.3,469.4,121.4,469.2,121.1z M448.3,128c0,0.1,0.1,0.1,0.1,0.1c-0.6,0.4-1.2,0.8-1.9,1.3
									C446.6,129,447.9,128.1,448.3,128z M448.2,128.8c-0.3,0.2-0.6,0.4-0.9,0.5c0-0.1-0.1-0.1-0.1-0.1c0.3-0.2,0.6-0.4,0.9-0.6
									C448.2,128.7,448.2,128.7,448.2,128.8z M442.8,132.1c0.4-0.7,3.1-2.7,3.6-2.7C445.2,130.4,444,131.3,442.8,132.1z
									 M445.5,130.6C445.5,130.6,445.5,130.6,445.5,130.6C445.5,130.6,445.5,130.6,445.5,130.6c-0.4,0.4-0.7,0.7-1,0.9
									c-0.1,0.1-0.3,0.1-0.4,0.1C444.5,131.2,444.9,130.9,445.5,130.6C445.5,130.6,445.5,130.6,445.5,130.6
									C445.5,130.6,445.5,130.6,445.5,130.6c0.4-0.3,0.7-0.6,1-0.9c0.1,0.1,0.1,0.1,0.1,0.1C446.4,130.2,446,130.5,445.5,130.6z
									 M447.3,130.3c0-0.1-0.1-0.1-0.1-0.2c0.6-0.3,1.2-0.6,1.8-0.9c0,0.1,0.1,0.1,0.1,0.1C448.5,129.6,447.9,130,447.3,130.3z
									 M448.5,128.6c0.1-0.4,0.2-0.5,0.5-0.4c0,0.1,0.1,0.1,0.1,0.1C449,128.4,448.8,128.5,448.5,128.6z M448.8,127.7
									c0.3-0.1,0.6-0.3,0.8-0.4c0,0.1,0.1,0.1,0.1,0.1C449.4,127.5,449.2,127.9,448.8,127.7z M450.9,128.3c0-0.1-0.1-0.1-0.1-0.2
									c0.4-0.1,0.7-0.3,1-0.4c0,0.1,0.1,0.1,0.1,0.1C451.6,127.9,451.2,128.1,450.9,128.3z M460.1,118.7c-0.1,0-0.2-0.1-0.3-0.1
									c0-0.4,0.8-1,1.1-0.9c0.1,0,0.1,0.3,0.1,0.4C460.7,118.3,460.4,118.6,460.1,118.7z M468.2,122.9c-0.1,0-0.3-0.1-0.4-0.1
									c0-0.1,0.1-0.1,0.1-0.1c0.2,0,0.4-0.1,0.6,0.2C468.4,122.8,468.3,122.9,468.2,122.9z"/>
								<path class="st0" d="M445.4,130.6C445.5,130.6,445.5,130.6,445.4,130.6C445.5,130.6,445.5,130.6,445.4,130.6
									C445.5,130.6,445.5,130.6,445.4,130.6C445.5,130.6,445.5,130.6,445.4,130.6z"/>
							</g>
							<g>
								<path class="st0" d="M462.4,162.5c-0.2-0.1-0.4-0.4-0.6-0.6l0.1-0.1c0.1,0,0.2-0.1,0.4-0.1c-0.1-0.2-0.2-0.4-0.3-0.6
									c-0.2-0.4-0.4-0.8-0.7-1.3c-0.4-0.8-0.1-1.7-0.3-2.6c-0.1-0.5,0.1-1.1,0.1-1.6c0-0.1,0.1-0.3,0.1-0.4c0.1-0.5,0.1-1,0.1-1.6
									c0.1-0.4,0.2-0.8,0-1.3c-0.1-0.1-0.1-0.4-0.1-0.5c0-0.4,0-0.7,0-1.1c0-0.6-0.1-1.2-0.1-1.8c0-1.2,0-2.3,0-3.5
									c0-0.6-0.2-1.2-0.2-1.8c-0.1-1.4-0.1-2.9-0.1-4.3c0-0.2,0.1-0.4,0.1-0.7c0.3,0.1,0.4,0.1,0.7,0.1c0.1-0.2,0.2-0.4,0.2-0.5
									c0-0.4-0.1-0.7-0.2-1c-0.3-0.5-0.4-1-0.3-1.6c0.1-0.7-0.3-1-0.8-1.3c-0.1-0.1-0.3-0.3-0.4-0.4c-0.3-0.3-0.5-0.6-0.8-0.8
									c-0.1-0.1-0.4-0.2-0.3-0.6c0-0.1-0.1-0.3-0.2-0.4c-0.4-0.1-0.9-0.3-1.3-0.3s-1,0-1.4,0.1c-0.7,0.3-1.3,0.7-1.9,1.1
									c-0.2,0.1-0.4,0.3-0.7,0.4c-0.7,0.4-1.3,1.2-1.9,1.8c-0.4,0.4-0.8,0.5-1.3,0.7c-0.4,0.2-1.1,0.3-1.4,0.8
									c-0.1,0.2-0.4,0.4-0.4,0.7c-0.1,0.5-0.2,1,0.1,1.5v0.1c0,0.6,0.2,1.3-0.2,1.8c0,0,0,0.1,0,0.1c0,0.3-0.1,0.6,0,0.8
									c0,0.3,0.1,0.6,0.1,0.9c0.1,0.4,0.2,0.7,0.2,1.2c0,0.7-0.2,1.3-0.3,1.9c-0.1,1-0.1,1.9-0.1,2.8c-0.1,0.6-0.1,1.2-0.1,1.8
									c0,0.4-0.1,0.7-0.1,1.1c0,0.5,0.1,1,0.1,1.6c0,0.4,0,0.7,0,1.1c0,0.4,0,0.7-0.3,1.1c-0.1,0.1-0.1,0.4-0.1,0.6
									c0,0.8,0.1,1.6,0.1,2.4c0,0.3,0.1,0.6,0.1,0.9c0.1,0.6,0.3,1.1,0.4,1.7c0.1,0.2,0,0.5,0.1,0.7c0.3,0.7,0.6,1.3,0.9,1.9
									c0.1,0.1,0.1,0.3,0.1,0.4c0.1,0.4,0.4,0.8,0.8,1.1c0.5,0.4,1.1,0.6,1.6,1c0.4,0.4,0.8,1,1.6,0.7h0.1
									c0.6,0.4,1.2,0.3,1.9,0.1c0.4-0.1,0.5-0.3,0.5-0.7c0-0.1,0-0.3-0.1-0.4c-0.1-0.5-0.3-1-0.4-1.6c0-0.1-0.1-0.2-0.2-0.3
									c-0.3-0.1-0.3-0.4-0.4-0.7c0-0.1-0.1-0.2-0.1-0.4c-0.1-0.4-0.4-0.9-0.2-1.4c0.2-0.4,0.1-0.9-0.2-1.3c-0.1-0.1-0.1-0.1,0-0.2
									c0.1-0.3-0.3-0.8-0.5-0.8c-0.4-0.1-0.5-0.3-0.7-0.6c-0.1-0.1-0.1-0.4-0.2-0.5c-0.2-0.4-0.4-0.9-0.6-1.3
									c-0.1-0.6-0.1-1.3-0.3-1.9c-0.2-0.6-0.2-1.3-0.2-1.9c0-0.6,0.1-1.1,0.3-1.7c0.1-0.2,0.2-0.4,0.3-0.7
									c0.1-0.4,0.1-0.9,0.1-1.3c0-0.2,0.2-0.4,0-0.6c0,0,0.1-0.2,0.1-0.3c0.1-0.1,0.2-0.3,0.3-0.4c0.1-0.3,0.1-0.6,0.1-0.8
									c0.1-0.4,0.2-0.9,0.4-1.3c0.1-0.4,0.3-0.7,0.5-1c0.1-0.2,0.4-0.1,0.4,0.1c0.1,0.4,0.5,0.8,0.3,1.4c0,0,0.1,0.1,0.1,0.2
									c0.1-0.2,0.2-0.4,0.2-0.6c-0.1-0.7,0.1-1.4-0.2-2.1c0.5,0.2,0.9,0.4,1.3,0.5c0.1,0,0.1,0.1,0.1,0.3c0,0.4-0.1,0.7-0.1,1
									c0.1,1.2-0.4,2.2-0.5,3.4c-0.1,0.4-0.1,0.7,0.2,1.2c-0.2,0-0.4,0.1-0.4,0.1c-0.1-0.1-0.1-0.4-0.2-0.6c0-0.2,0-0.5,0-0.8
									c0-0.1-0.1-0.3-0.3-0.3c-0.4-0.1-0.5-0.2-0.4-0.7c0-0.2,0-0.4,0.1-0.6c-0.1,0-0.1,0-0.2,0c-0.1,0.3-0.1,0.6-0.2,0.9
									c-0.1,0.2,0,0.4-0.1,0.6c-0.1,0.5,0,0.9,0.4,1.3c0.2,0.1,0.4,0.4,0.3,0.7c-0.1,0.4-0.1,1-0.1,1.5c0.1,0.4,0.1,0.9,0.4,1.2
									c0.5,0.6,0.7,1.3,1,1.9c0.1,0.2,0.1,0.4,0.2,0.6c0.4,0.4,0.8,0.7,1.3,1c0.4,0.4,0.7,0.7,0.4,1.2c-0.1,0.3-0.1,0.5-0.1,0.7
									c0.1,0.1-0.1,0.4-0.1,0.5c-0.1,0.1-0.1,0.3-0.1,0.4c0.1,0.4,0,0.5-0.4,0.6c-0.7,0.1-1.3-0.2-1.9-0.4
									c-0.1-0.1-0.3-0.1-0.5-0.1c0.2,0.4,0.4,0.6,0.5,0.9c0.1,0.3,0,0.6,0,0.9c0.1,0,0.1,0,0.1,0c0.1-0.4,0.6-0.5,0.4-1.1
									c0.2,0.1,0.4,0.1,0.7,0.1c-0.2,0.1-0.3,0.3-0.4,0.4c0.4,0.4,0.7,0.7,1,1c0.1,0.1,0.1,0.4,0.3,0.4c0.5,0.1,0.5,0.6,0.7,1
									c0.1,0.7,0.6,1.3,1.3,1.4c0.1,0,0.1,0.1,0.2,0.2c0.3,0.6,1.1,0.9,1.7,0.6c0.4-0.1,0.7-0.4,1-0.7s0.5-0.5,0.5-0.9
									c0-0.1,0-0.1,0.1-0.2C463.1,163.5,462.8,162.8,462.4,162.5z M456.3,143.1c-0.1-0.1-0.2-0.2-0.3-0.3
									c-0.2-0.4-0.4-0.8-0.5-1.2c0,0,0-0.1,0.1-0.1c0.1,0.1,0.2,0.1,0.3,0.1c0.1,0.1,0.1,0.1,0.3,0.2c0.1,0.1,0.4,0.1,0.4,0.1
									c0.1,0.3,0.1,0.7,0.1,1C456.5,143,456.4,143.1,456.3,143.1z M457,149.7c-0.7-0.1-0.7-0.3-0.5-1.2
									C457,148.5,457.3,149.1,457,149.7z M457.5,140.2c-0.1,0.2-0.3,0.4-0.4,0.7c-0.1,0.1-0.4,0.1-0.4-0.1c-0.1-0.5-0.4-0.9-1-1
									c-0.3-0.1-0.6-0.1-0.8-0.3c-0.4-0.3-0.7,0-1,0.1c-0.3,0.1-0.6,0.1-0.9,0.1c0.1-0.5,0.1-1,0.1-1.4c0.9-0.5,1.7-1.2,2.5-1.9
									c0.1-0.1,0.2-0.1,0.3-0.1c0.4,0.3,0.9,0.4,1.1,0.9c0.1,0.1,0.3,0.2,0.4,0.4C457.7,138.4,457.8,139.3,457.5,140.2z"/>
							</g>
							<path class="st0" d="M434.1,131.2c-0.1,0-0.1,0.1-0.2,0.1c-0.3,0.3-0.5,0.6-0.8,0.9c-0.1,0.1-0.1,0.1-0.2,0.1
								c-0.1-0.1-0.1-0.1-0.1-0.2c0-0.4,0-0.8,0.1-1.1c0.2-0.6,0-1.1-0.4-1.6c-0.1-0.1-0.2-0.3-0.3-0.4c-0.1-0.1-0.2-0.3-0.4-0.3
								c-0.4-0.1-0.9-0.2-1.3,0.1c-0.1,0-0.2,0-0.3-0.1c-0.1-0.1-0.1-0.3-0.2-0.4c-0.1-0.1-0.1-0.2-0.1-0.3c-0.1,0-0.1,0-0.1,0.1
								c0.1,0.3,0.1,0.6,0.2,0.9c0.1,0.4,0.1,0.7-0.1,1c-0.1,0.2-0.2,0.6-0.3,0.9c0,0.3,0.2,0.7,0.1,1c-0.1,1-0.3,2-0.4,3
								c-0.1,0.8-0.2,1.6-0.3,2.4c0,0.3,0.2,0.7,0.1,1c-0.1,0.3-0.1,0.6,0,0.9c0.1,0.4,0.2,0.8,0.3,1.2c0.1,0.2,0.2,0.4,0.4,0.1
								c0.1-0.1,0.4-0.2,0.6-0.3c0.4-0.1,0.7,0,1-0.1c0.3-0.1,0.8-0.1,1-0.2c0.3-0.4,0.4-0.2,0.7,0c0.1,0.1,0.1,0.1,0.3,0.1
								c0.7,0.1,1.3,0.2,2,0c0.1-0.1,0.4-0.1,0.5-0.1c0.8-0.1,1.5-0.7,1.5-1.6c0-0.1-0.1-0.4-0.1-0.5c-0.2-0.3-0.4-0.5-0.7-0.7
								c0.1-0.4,0.3-0.7,0.4-1c0.1-0.2,0.1-0.4,0.2-0.6c0.4-0.4,0.1-0.7,0.1-1c0-0.1-0.1-0.1-0.1-0.2c-0.2-1.1-1.1-1.9-1.9-2.5
								C434.9,131.3,434.5,131.3,434.1,131.2z"/>
							<path class="st0" d="M430.6,122.8c-0.1-0.1-0.3-0.2-0.4-0.4c-0.5-0.4-1-0.7-1.5-1.1c-0.1,0-0.1-0.1-0.1-0.1
								c-0.1-0.4-0.4-0.7-0.7-1c-0.1-0.2-0.5-0.4-0.1-0.8c0.1-0.1,0.1-0.2,0.1-0.3c0-0.1,0.1-0.3,0.1-0.4c0.4-0.4,0.8-0.7,1.2-1
								c0.1-0.1,0.3-0.1,0.4,0.1c0.3,0.7,0.7,1.2,1.5,1.4c0.2,0.1,0.3,0.2,0.3,0.5c-0.1,0.6-0.2,1.2,0.1,1.8
								c0.1,0.1-0.1,0.3-0.1,0.4c-0.1,0.1-0.1,0.2-0.1,0.4c0.1,0.4,0.3,0.9,0.5,1.3c0.1,0.1,0.3,0.3,0.5,0.4
								c0.1,0.1,0.4,0.1,0.6,0.1c0.5,0.1,1,0.2,1.5-0.2c0.2-0.2,0.4-0.7,0.4-1c-0.1-0.3-0.1-0.7,0-0.9c0.2-0.5,0.4-1.1,0.9-1.5
								c0.1-0.1,0.2-0.1,0.2-0.2c0.1-0.7,0.2-1.3,0.3-1.9c0-0.1-0.1-0.4-0.2-0.5c-0.5-0.4-0.7-0.9-0.8-1.6c0-0.3,0-0.6-0.1-0.8
								c-0.2-0.4-0.5-0.9-0.8-1.3c-0.1-0.2-1.2-0.5-1.4-0.4c-0.5,0.4-1,0.2-1.5,0.1c-0.6-0.2-1.1,0-1.6,0.2
								c-0.4,0.2-0.8,0.6-1.3,0.8c-0.2,0.1-0.5,0.2-0.7,0.4c-0.3,0.3-0.4,0.7-0.7,1c-0.4,0.5-0.7,1-1,1.6c-0.1,0.1-0.1,0.4-0.1,0.5
								c0.1,0.7,0.1,1.4,0.7,2c0.1,0.1,0,0.1,0.1,0.2c0.1,0.5,0.3,1,0.4,1.6c0.1,0.4,0.5,0.5,0.9,0.4c0.1,0,0.2,0,0.4,0.1
								C428.9,123,429.7,123.1,430.6,122.8z"/>
							<path class="st0" d="M439.4,143c-0.7,0.6-1.3,1.3-1.9,1.9c-1.4,1.4-2.8,2.9-4.2,4.3c-0.3,0.3-0.5,0.3-0.7-0.1
								c-0.4-0.7-0.8-1.3-1.2-1.9c-0.4-0.7-0.7-1.5-1-2.2c-0.1-0.3-0.3-0.6-0.8-0.6c0,0.2,0,0.4,0,0.7c0.1,0.6,0.3,1.3,0.4,1.9
								c0.1,0.7,0.4,1.5,0,2.2c-0.1,0.3-0.1,0.6-0.2,1c0,0.5,0.1,1.1-0.1,1.6s-0.4,1-0.7,1.6c-0.2,0.5-0.4,1-0.7,1.6
								c-0.1,0.1,0.1,0.4,0.2,0.6c0.1,0.1,0.4,0.2,0.5,0.4c0.4,0.4,0.8,0.9,1.2,1.3c0.1-0.1,0.4-0.1,0.4,0.1
								c0.3,0.2,0.6,0.4,0.9,0.7c0.1,0.1,0.3,0.2,0.5,0.1c0.3-0.1,0.7-0.1,1-0.1l0.1,0.1c0.1,0,0.2,0.1,0.3,0.1
								c0.1,0,0.3,0.1,0.5,0.1c0.1,0,0.4,0,0.5-0.1c0.4-0.3,0.8-0.4,1.3-0.4c0.1,0,0.2-0.1,0.3-0.2c0.1-0.4,0.4-0.4,0.7-0.3
								c0.6,0.1,1.1-0.1,1.3-0.7c0.1-0.4,0.2-0.8,0.4-1.3c0-0.1,0-0.4-0.1-0.4c-0.3-0.3-0.5-0.6-0.7-0.9c-0.3-0.4-0.4-0.7-0.1-1.1
								c0.1-0.1,0.1-0.2,0.1-0.4c0.1-0.4,0.2-0.7,0.4-1c0.1-0.4,0.4-0.7,0.1-1c0-0.1,0-0.1,0-0.2c0.1-0.5,0.3-1,0.4-1.5
								c-0.1-0.2-0.2-0.4-0.3-0.7c-0.6,0.6-1.2,1.3-1.7,1.9c0,0-0.1,0-0.1-0.1c0.3-0.5,0.6-1,0.9-1.6c-0.1,0-0.1-0.1-0.1-0.1
								c-0.6,0.7-1.2,1.3-1.8,2c0.1,0.2,0.1,0.5,0.3,0.8c-0.1,0.1-0.3,0.4-0.5,0.5c-0.2,0-0.4-0.3-0.7-0.4c-0.3-0.2-0.2-0.4-0.1-0.7
								c0.3-0.4,0.6-0.8,1-1.2c0.5-0.5,1-1,1.6-1.5c1-1,2-2.2,3-3.2c0.1-0.1,0.1-0.1,0.1-0.2c-0.1-0.4,0.1-0.7,0.4-1
								c0.2-0.2,0.1-0.4,0-0.7C440.1,142.6,439.7,142.8,439.4,143z"/>
						</g>
						<g>
							<g>
								<path class="st0" d="M466.1,193.2c-0.6,0-0.8-0.1-1-0.6c-0.1-0.1-0.1-0.2-0.2-0.4c-0.2,0.2-0.4,0.4-0.6,0.5
									c-0.6,0.1-1.2,0.2-1.8,0.2c-0.7,0.1-1.4,0.1-2.1,0.2c-0.7,0.1-1.4,0.4-2.1,0.5c-0.4,0.1-0.8,0.1-1.2,0.3
									c-0.7,0.1-1.5,0.4-2.2,0.6c-0.3,0.1-0.5,0.1-1,0.1c0.1-0.2,0.2-0.4,0.3-0.5c0.1-0.3,0.4-0.6,0.4-0.9c0-0.9,0.1-1.7,0.9-2.3
									c0.2-0.2,0.4-0.4,0.3-0.8c0-0.1,0-0.3,0.1-0.4c0.4-0.8,0.7-1.7,1.1-2.5c0.4-0.8,0.8-1.7,1-2.6c0.1-0.7,0.4-1.3,0.7-2.1
									c0.1-0.3,0.1-0.6,0.1-0.9c0-0.5-0.1-1-0.1-1.6c0-1-0.5-1.9-1.2-2.7c-0.1-0.2-0.4-0.4-0.6-0.5c-0.4-0.2-0.7-0.5-1.2-0.7
									c-0.3-0.1-0.7-0.1-1-0.3c-0.4-0.4-0.9-0.5-1.5-0.5c-0.2,0-0.5,0-0.7,0c-1-0.1-2,0.1-3,0.4c-1.2,0.4-2.3,1-3.4,1.4
									c-1,0.4-1.9,0.8-3,1.2c-0.4,0.1-0.9,0.4-1.3,0.5c-0.4,0.1-0.7,0.3-1.1,0.4c-0.1,0-0.1,0.1-0.1,0.1c-0.1,0.2-0.1,0.4-0.1,0.7
									c0,0.4-0.3,0.5-0.5,0.5c-0.3,0-0.5,0-0.8-0.1c-0.3-0.1-0.5,0-0.7,0.3c-0.1,0.1-0.3,0.3-0.4,0.3c-0.5-0.1-0.8,0.3-1.1,0.6
									c-0.6,0.6-1.2,1.2-1.7,1.8c-0.1,0.1-0.3,0.4-0.5,0.6c-0.1,0.1-0.4,1-0.4,1.1c0.1,0.4,0.1,0.7,0.1,1.1c0.1,0.5-0.1,1,0.1,1.6
									c0.4,0.9,0.7,1.8,1,2.7c0.1,0.3,0.3,0.7,0.7,0.5c0.1,0,0.1,0.1,0.2,0.1c0.1,0.1,0.1,0.3,0.2,0.4c0.2,0.5,0.4,1,1.1,1
									c0.1,0,0.2,0.1,0.4,0.1c0.3,0.2,0.6,0.4,1,0.6c0.3,0.2,0.7,0.4,1,0.7c0.2,0.2,0.4,0.4,0.7,0.7c0.4,0.4,0.7,0.9,1.1,1.3
									c0,0.1,0.1,0.1,0.1,0.1c0.2,0.4,0.4,0.7,0.8,0.7c0.4,0,0.7-0.1,0.7-0.6c0-0.1,0.1-0.1,0.1-0.1c0.4-0.1,0.5-0.5,0.7-0.9
									c0.2-0.4,1.2-0.7,1.4-0.2c0.3,0.4,0.3,1,0.5,1.6c-0.3-0.2-0.4-0.4-0.7-0.6c0,0.2,0.1,0.4,0,0.5c0,0.1-0.1,0.2-0.1,0.4
									c0,0-0.1,0-0.1,0c0-0.1,0-0.4-0.1-0.5h-0.1c0,0.1-0.1,0.2-0.1,0.4c-0.1,0.1-0.1,0.3-0.2,0.4c-1,0.4-2.1,0.7-3.2,1
									c-1,0.3-1.9,0.6-2.9,0.9c-0.3,0.1-0.6,0.1-0.9,0.2c-0.4,0.1-0.8,0.3-1.2,0.4c-0.2,0.1-0.5,0.1-0.3,0.5c0,0,0,0.1-0.1,0.1
									c-0.1,0.2-0.4,0.4-0.6,0.6c-0.1,0.1-0.3,0.1-0.4,0c-0.1,0-0.1-0.3-0.1-0.4c0.3-0.4,0-0.7-0.1-1c-0.1,0.4-0.2,0.9-0.4,1.3
									c-0.4-0.3-0.7-0.3-1.1-0.1c-0.3,0.1-0.6,0.1-0.9,0.2c-0.3,0-0.5-0.1-0.8-0.1c-0.2,0-0.5,0.1-0.6,0.2
									c-0.2,0.4-0.4,0.7-0.5,1.2c-0.2,0.7,0.2,1.2,0.9,1.1c0.1,0,0.1,0.1,0.2,0.1c-0.1,0.1-0.1,0.1-0.1,0.1
									c-0.3-0.1-0.5-0.1-0.8-0.2c-0.2-0.1-0.4-0.1-0.6-0.3c-0.1,0-0.1,0.1-0.1,0.1c0.1,0.7,0.1,1.4,0.4,2.1
									c0.1,0.3,0.4,0.5,0.7,0.8c0.1-0.1,0.1-0.2,0.1-0.4c0.3-0.5,0.1-1.3,1-1.6c0.2-0.1,0.4-0.1,0.6-0.1c0.9,0.1,1.3-0.7,2.1-0.9
									c0.6-0.2,0.9-0.9,1.5-1.1c0.2-0.1,0.4-0.2,0.7-0.2c0.1,0,0.2,0,0.4-0.1c0.7-0.2,1.3-0.5,1.9-0.7c1.3-0.4,2.7-0.7,4-1.1
									c0.8-0.2,1.6-0.6,2.5-0.8c0.7-0.2,1.4-0.5,2.1-0.6c1.2-0.1,2.2-0.7,3.4-1c0.4-0.1,0.9-0.3,1.3-0.4c0.7-0.1,1.3-0.3,2-0.4
									c1.2-0.2,2.3-0.5,3.5-0.7c1.7-0.4,3.4-0.6,5.2-1c0.3-0.1,0.6-0.3,0.9-0.4c-0.2-0.1-0.3-0.1-0.4-0.1S464,195,464,195
									c0.1-0.1,0.3-0.1,0.4-0.1c0.7-0.1,0.7-0.1,1,0.4c0.1,0.3,0.4,0.3,0.6,0.1c0.2-0.3,0.4-0.7,0.4-1c0.1-0.2,0.1-0.3,0.3-0.1
									c0.1,0,0.1,0,0.1,0.1C466.9,193.5,466.4,193.2,466.1,193.2z M437.1,191.2c-0.2-0.1-0.5-0.2-0.7-0.4
									c-0.1-0.2-0.2-0.6-0.3-0.9c-0.1-0.5-0.1-1-0.1-1.5c0-0.2,0-0.4-0.2-0.5c-0.1,0-0.1-0.1-0.1-0.2l0.1-0.1
									c0.3,0.1,0.7,0.3,0.8,0.5c0.1,0.2,0.2,0.5,0.2,0.8c0.1,0.3,0,0.6,0,0.9c0,0.1,0.1,0.3,0.1,0.4
									C437.3,190.6,437.3,190.6,437.1,191.2z M442.5,185.8c-0.6,0.4-1.1,0.1-1.2-0.6c-0.1-0.3-0.2-0.7-0.4-1
									c-0.4-0.6,0.1-1.6,0.7-1.8c0.1,0,0.1,0,0.1,0c0.7-0.4,1.5-0.7,2.2-1.1c0.9-0.4,1.6-1,2.7-1c0.8,0,1.6-0.4,2.4-0.7
									c0.7-0.2,1.4-0.4,2.1,0c0.2,0.1,0.3,0.4,0.4,0.7c0.1,0.4,0.1,0.7,0.2,1c0,0.7-0.1,0.9-0.7,1c-0.1,0-0.1,0-0.1,0.1
									c-0.6,0.5-1.3,0.6-2,0.7c-0.5,0.1-1,0.3-1.6,0.4c-0.1,0.1-0.2,0.2-0.4,0.3c-0.4,0.1-0.7,0.2-1.1,0.4c-1,0.3-2.1,0.7-3,1.3
									C442.8,185.7,442.7,185.8,442.5,185.8z M448.7,190c-0.4-0.1-0.6,0.3-0.8,0.5c-0.1,0.1-0.1,0.1-0.2,0.2
									c-0.4,0.2-0.7,0.4-1,0.7c-0.4,0.4-0.9,0.5-1.5,0.4c-0.4-0.1-1,0-1.5,0c-0.4,0-0.7-0.1-0.8-0.2c0.1-0.3,0.1-0.6,0.2-0.9
									c0-0.1,0.1-0.2,0.1-0.2c0.4,0.1,0.6-0.4,0.9-0.5s0.6-0.4,0.9-0.6c0.1-0.1,0.2-0.3,0.4-0.4c0.4-0.6,1-0.8,1.7-1
									c0.2-0.1,0.4-0.2,0.7-0.3c0.1-0.1,0.4-0.1,0.5-0.1c0.1,0,0.1,0.1,0.2,0c0.3-0.1,0.5-0.4,0.8-0.5c0.4-0.1,0.7-0.4,1-0.4
									c0.5-0.1,0.6,0.5,0.4,1c-0.1,0.1-0.2,0.3-0.3,0.4c-0.1,0.1-0.2,0.4-0.4,0.5c-0.4,0.2-0.4,0.9-1,0.9c-0.1,0-0.1,0.1-0.2,0.1
									C448.9,189.8,448.8,190,448.7,190z M450.9,195.3c-0.4,0-0.7,0.1-1,0c-0.2-0.1-0.5-0.4-0.6-0.7c-0.1-0.3-0.1-0.7-0.1-1
									c0-0.1,0.2-0.3,0.4-0.4c0.1-0.1,0.3-0.1,0.4-0.1c0.1,0,0.4,0.1,0.4,0.1c0.3,0.7,0.8,1.3,1.4,1.8c0,0,0.1,0.1,0.1,0.2
									C451.6,195.2,451.3,195.3,450.9,195.3z"/>
							</g>
							<g>
								<path class="st0" d="M455.2,224.3c-0.2-0.3-0.4-0.7-0.5-1c-0.1-0.1-0.1-0.3-0.2-0.4c-0.2-0.4-0.5-0.7-0.5-1.1
									c0-0.2-0.1-0.5-0.2-0.6c-0.4-0.1-0.4-0.4-0.6-0.7c-0.1-0.2-0.2-0.4-0.3-0.7c0-0.1-0.1-0.1-0.1-0.2c-0.2-0.2-0.4-0.5-0.7-0.8
									c-0.2,0.1-0.4-0.4-0.9-0.2c0,0-0.1-0.1-0.1-0.1c-0.1-0.1-0.4-0.2-0.5-0.1c-0.7,0.2-1.3,0.3-1.9,0.7
									c-0.3,0.2-0.7,0.1-0.9,0.6l0,0c-0.7-0.1-0.4,0.8-0.8,1c0,0,0.1,0.1,0.1,0.2c0,0.2,0,0.4,0,0.6c0,0.1,0,0.3,0,0.4
									c0,0.1,0.1,0.2,0.1,0.3c0.1,0.1,0.1,0.4,0.2,0.4c0.2,0.2,0.3,0.4,0.1,0.6c-0.4,0.5-0.5,1.2-1.1,1.5c-0.1,0-0.1,0.1-0.1,0.1
									c-0.1,0.1-0.2,0.4-0.4,0.5c-0.3,0.2-0.6,0.4-0.9,0.4c-0.2,0.1-0.4-0.1-0.6-0.1c-0.4-0.2-0.8-0.4-1.3-0.4
									c-0.5,0-1-0.1-1.6-0.1c-0.7,0.1-1.3,0.4-1.8,0.7c-0.1,0.1-0.1,0.1-0.1,0.1c-0.2,0.3-0.4,0.6-0.6,0.9
									c-0.1,0.1-0.2,1.3-0.1,1.5c0.4,0.3,0.1,0.7,0.2,1c0.1,0.6-0.1,1.2,0.4,1.6c0.2,0.2,0.3,0.6,0.5,0.9c0.3,0.4,0.5,1,1,1.2
									c0.5,0.4,0.9,0.9,1.6,1.1c0.4,0.1,0.5,0.2,0.7-0.1c0.2-0.4,0.5-0.6,0.9-0.7c0.3-0.1,0.6-0.1,0.9-0.1c0.2,0,0.4-0.1,0.2-0.4
									c0-0.1-0.1-0.1-0.1-0.2c-0.1-0.6-0.1-1.3-0.2-1.9c0-0.1,0.1-0.3,0.3-0.4c0.4-0.2,0.7-0.1,1.1,0.3c0.3,0.4,0.6,0.7,0.9,1.1
									c0.1,0.1,0.1,0.1,0.1,0.1c0.3,0.2,0.6,0.4,0.9,0.7c0.6,0.5,1.3,0.9,2,0.9c0.3,0,0.6,0.1,0.9,0.1c0.1,0,0.1,0,0.2,0
									c0.3,0,0.5-0.2,0.7-0.3c0.4-0.1,0.4-0.4,0.5-0.7c0.1-0.5,0.4-1,0.5-1.6c0.1-0.3,0.4-0.5,0.5-0.8c0.1-0.4,0.3-0.9,0.4-1.3
									c0.3-0.7,0.2-1.3-0.1-2c-0.1-0.3-0.1-0.7-0.2-1c0-0.1,0.1-0.3,0.1-0.3c0.4,0,0.7,0.1,1.1,0.1c0.1,0,0.2,0,0.3-0.1
									C455.7,225.2,455.7,224.9,455.2,224.3z M451.5,231c-0.3-0.1-0.6-0.2-0.4-0.6c0.1-0.1-0.1-0.2-0.1-0.3c0-0.3,0.1-0.6,0.4-0.8
									c0.1-0.1,0.1-0.1,0.2-0.2c0.1-0.1,0.2-0.1,0.4-0.1c0,0.1,0,0.2,0,0.4c0,0,0,0.1-0.1,0.1c0.1,0.1,0.2,0.1,0.4,0.2
									C452,230.1,451.8,230.5,451.5,231z"/>
							</g>
							<g>
								<path class="st0" d="M457,204.3c-0.1-0.1-0.1-0.1-0.1-0.2c0.1-0.3-0.1-0.4-0.3-0.5c-0.4-0.3-0.9-0.4-1.3-0.4
									c-0.4-0.1-0.5-0.2-0.5-0.6c0-0.2-0.1-0.4-0.2-0.7c-0.1-0.2-0.4-0.4-0.7-0.6c-0.1-0.1-0.3-0.1-0.5-0.1
									c-0.2,0.1-0.5,0.2-0.7,0.2c-1,0-1.9,0.2-2.8,0.6c-0.4,0.1-0.7,0.3-1.1,0.4c-0.4,0.1-0.9,0.4-1.3,0.5
									c-0.7,0.3-1.4,0.6-2.2,0.9c-0.3,0.1-0.7,0.1-1,0.1c-0.7-0.1-1.4,0.1-1.9,0.7c-0.3,0.4-0.6,0.4-1,0.1c-0.3-0.2-0.5-0.6-1-0.4
									c-0.1-0.4-0.1-0.7-0.3-0.9c-0.1-0.1-0.2-0.2-0.4-0.2c-0.1,0.1-0.3,0.2-0.3,0.4c-0.1,0.4,0,0.8-0.1,1.3
									c-0.1,0.4,0.2,0.9-0.4,1c-0.1,0-0.1,0.1-0.1,0.3c0,0.2-0.1,0.3-0.3,0.2c-0.3-0.1-0.5,0.1-0.7,0.2c-0.1,0.1-0.3,0.1-0.4,0.1
									c-0.6,0-0.8,0.2-0.8,0.8c0,0.1-0.1,0.1-0.1,0.2c-0.1,0.4,0.2,1,0.4,1.3c0.1,0.1,0.2,0.4,0.3,0.6c0.1,0.1,0,0.4,0.1,0.6
									c0.1,0.3,0.1,0.6,0.2,0.9c0.2,0.7,0.3,1.4,0.6,2c0.4,1,1,2,1.6,2.9c0.4,0.6,0.7,1.3,1.4,1.6c0.1,0.1,0.1,0.2,0.1,0.3
									c0.1,0.3,0.2,0.6,0.4,0.8c0.6,0.6,1.6,0.4,2.2,0.9c0,0,0,0,0.1,0c0.8-0.1,1.6-0.1,2.5-0.1c0.1,0,0.3-0.1,0.4-0.2
									c0.1-0.1,0.2-0.1,0.3-0.2c0.3-0.3,0.7-0.5,0.9-0.8c0.2-0.4,0.7-0.6,1-0.8c0.4-0.3,0.8-0.4,1.3-0.6c0.2-0.1,0.4-0.1,0.6-0.2
									c0.7-0.4,1.1-0.4,1.7,0.3c0.1,0.2,0.2,0.4,0.5,0.1c0,0,0.1,0,0.2,0c0.1,0.1,0.3,0.1,0.4,0.1c0-0.2,0-0.4,0.1-0.5
									c0.3,0.1,0.5,0.1,0.8,0.3c0-0.1,0.1-0.1,0.1-0.2c0.1-0.6,0.3-1.2,0.5-1.8s0.5-1.3,0.7-1.9c0.2-0.9,0.6-1.8,0.8-2.7
									c0.1-0.7,0.2-1.3,0.4-1.9c0.1-0.3,0.1-0.7,0.1-1c0.1-0.4,0.1-1,0.1-1.4C457.4,205.3,457.4,204.7,457,204.3z M450.9,212
									c-0.3,0.4-0.4,0.8-0.5,1.3c-0.1,0.5-0.6,0.6-1,0.7c-0.1,0.1-0.3,0.1-0.4,0.1c-0.1,0-0.1,0.1-0.1,0c-0.3-0.2-0.6-0.4-0.8-0.6
									v-0.1c0-0.1,0.1-0.2,0.1-0.4c0,0,0.1,0,0.3-0.1c-0.1-0.2-0.1-0.4-0.2-0.7c0.3-0.1,0.5-0.4,1-0.3c0.2,0.1,0.4-0.1,0.8-0.2
									c0.1,0.2,0.4,0.1,0.7,0c0.1,0,0.2,0,0.3,0C450.9,211.9,450.9,212,450.9,212z M452.4,206.7c-0.3-0.1-0.5,0-0.7,0.2
									c-0.1,0.1-0.4,0.2-0.7,0.3c-0.4,0.1-0.7,0.2-1.1,0.4c0.2,0.5,0.2,0.5,0.6,0.2c0.1-0.1,0.3-0.4,0.5-0.1
									c0.1,0,0.2-0.1,0.4-0.1c-0.1,0.1-0.1,0.2-0.1,0.3c-0.1,0.1-0.2,0.1-0.4,0.2c-1,0.2-1.9,0.7-2.8,1c-0.5,0.2-1,0.4-1.5,0.6
									c-0.1,0-0.1,0.1-0.2,0.1c0,0.1,0,0.1,0.1,0.1c1.3-0.4,2.5-0.9,3.7-1.3c0,0,0,0.1,0.1,0.1c-0.1,0.1-0.1,0.2-0.2,0.2
									c-0.5,0.2-1,0.7-1.6,0.7c-0.1,0-0.2,0-0.3,0.1c-0.4,0.5-1,0.4-1.6,0.5c-0.4,0.1-0.4-0.3-0.5-0.4c-0.1-0.1-0.2-0.3-0.3-0.4
									c-0.3-0.2-0.3-0.4,0-0.5c0.1-0.1,0.3-0.3,0.5-0.4c0.2-0.1,0.4-0.1,0.7-0.2c0.1,0,0.3,0,0.3-0.1c0.3-0.5,0.8-0.6,1.3-0.8
									c0.7-0.4,1.6-0.7,2.3-1c0.4-0.1,0.7-0.3,1.1-0.4c0.4-0.1,0.6,0,0.6,0.4C452.4,206.5,452.4,206.6,452.4,206.7z M453,202.8
									c-0.7-0.1-1.4,0.2-2,0.5c-1.3,0.5-2.7,1.1-4.1,1.6c-0.6,0.2-1.2,0.2-1.9,0.4c-0.1-0.8,0-0.8,0.7-1.1
									c0.3-0.1,0.6-0.1,0.9-0.1c0.4,0,0.7-0.3,1.2-0.4c0.2-0.1,0.4-0.2,0.7-0.3c0.4-0.1,0.7-0.1,0.9-0.4c0.1-0.1,0.2-0.1,0.3-0.1
									c0.1-0.1,0.2-0.1,0.3-0.2c0.1-0.2,0.2-0.2,0.3-0.1c0.1,0.2,0.2,0.1,0.4-0.1s0.4-0.1,0.6-0.1c0.1,0,0.2,0.1,0.2,0
									c0.4-0.4,0.9-0.4,1.3-0.4c0.1,0,0.1,0,0.1,0c0.4,0,0.6,0.1,0.6,0.5C453.6,202.5,453.3,202.9,453,202.8z M454.5,202.8
									c-0.1-0.1-0.3-0.1-0.4-0.3c-0.1-0.1,0.1-0.2,0.1-0.3c0.1,0.1,0.3,0.2,0.4,0.4C454.5,202.6,454.5,202.7,454.5,202.8z"/>
								<path class="st0" d="M454.1,202.5c0.1,0.1,0.2,0.1,0.4,0.3c0.1-0.1,0.1-0.1,0.1-0.2c-0.1-0.1-0.3-0.2-0.4-0.4
									C454.1,202.2,454,202.5,454.1,202.5z"/>
							</g>
							<path class="st0" d="M469.4,221.5c-0.6-0.4-1.3-0.7-2-0.7c-0.3-0.1-0.5,0.1-0.8,0.1c-0.6,0-1.1,0.5-1.1,1.1
								c0,0.3-0.1,0.4-0.4,0.3c-0.2-0.1-0.5,0-0.7,0.1c-0.2,0.2-0.4,0.5-0.6,0.8c-0.1,0.3-0.2,0.6,0.1,0.8c0.1,0.1,0.1,0.1,0.1,0.2
								c0,0.2-0.1,0.5,0,0.7c0.3,0.6-0.3,1.2,0,1.7v0.1c-0.1,0.4-0.2,0.9-0.4,1.3c-0.1,0.4-0.1,0.7,0.1,1c0.5,0.7,1.3,1.2,2.2,1.6
								c0.4,0.1,0.8,0.3,1.2,0.4c0.3,0.1,0.7,0.1,1,0.1c0.4,0,0.4-0.5,0.5-0.7c0.1-0.1,0.1-0.2,0.1-0.3c0.1-0.1,0.2-0.3,0.3-0.3
								c0.6,0,0.6-0.6,0.9-0.9c0.2-0.1,0.1-0.6,0.2-0.9c0.1-0.7,0.4-1.4,0.6-2.2c0.1-0.4,0.3-1,0.4-1.3c-0.1-0.6-0.1-1.1-0.4-1.5
								C470.3,222.5,470,221.9,469.4,221.5z"/>
						</g>
						<g>
							<path class="st0" d="M454.4,286.9c0.7,0.1,0.9-0.1,0.8-0.9C454.8,286,454.5,286.3,454.4,286.9z"/>
							<g>
								<path class="st0" d="M469.2,296.5L469.2,296.5c0.1-0.3,0.1-0.6,0.1-0.8c0-0.1,0-0.2-0.1-0.4
									C469.2,295.3,469.2,295.8,469.2,296.5z"/>
								<path class="st0" d="M477.6,278.5c-0.3-0.4-0.6-0.7-1-1c-0.3-0.3-0.6-0.6-1-0.6c-0.1,0-0.1-0.1-0.1-0.1
									c-0.5-0.5-0.7-0.6-1.3-0.3c-0.7,0.4-1.3,0.3-2,0.2c-0.3,0-0.3,0.1-0.3,0.3c0,0.1,0.1,0.2,0.1,0.3c0.2,0.3,0.1,0.5-0.1,0.7
									c-0.4,0.2-0.7,0.4-1,0.5c-0.3-0.4-0.1-0.9-0.2-1.3c-0.3-1.3,0.4-2.1,1.4-2.8c0.4-0.3,0.7-0.7,0.8-1.2
									c0.1-0.1,0.4-0.1,0.4-0.2c0.2-0.4,0.4-0.7,0.6-1.1c0.1-0.2-0.1-0.5-0.1-0.7c-0.1,0-0.1,0-0.1,0c-0.2,0.4-0.4,0.8-0.7,1.2
									c-0.2-0.1-0.4-0.3-0.6-0.4c-0.1-0.1-0.1-0.2,0-0.3c0.4-0.3,0.8-0.7,1.2-1c0.2-0.2,0.2-0.6-0.1-0.7c-0.3-0.1-0.6-0.2-0.9-0.1
									c-0.4,0.1-0.7,0.1-1.1,0.1c-0.3,0-0.4-0.1-0.4-0.4c0-0.3,0.1-0.6,0.1-1s0.1-0.5,0.4-0.3c0.1,0,0.2,0,0.2,0
									c0.1-0.1,0-0.1,0-0.2s-0.1-0.2-0.1-0.3c0.1-0.2,0.2-0.4,0.4-0.7c0.4-0.7,0.4-1.3-0.4-1.6c-0.2-0.1-0.3-0.2-0.2-0.5
									c0.1-0.4-0.1-0.8-0.4-1.1c-0.2-0.2-0.4-0.4-0.5-0.7c-0.1-0.1-0.2-0.3-0.3-0.3c-0.3,0-0.8,0.6-0.9,0.8c0,0.1-0.1,0.3-0.1,0.4
									c-0.6,0.2-0.7,0.8-0.8,1.3c-0.1,0.4,0,0.8,0.1,1.1c0.3,0.4,0.4,0.9,0.4,1.4c0,0.7,0,1.6-0.1,2.3c0,0.1-0.1,0.4-0.2,0.4
									c-0.6,0.4-1.2,0.6-1.7,1c-0.5,0.3-1,0.7-1.4,1c-0.4,0.3-0.8,0.7-1.2,1c-0.7,0.7-1.3,1.4-2,2.1c-0.8,0.8-1.6,1.6-2.5,2.3
									c-0.1,0.1-0.3,0.2-0.5,0.3c0-0.1,0-0.4,0-0.5c0-0.1,0-0.1,0-0.1c-0.1-0.5-0.1-1-0.1-1.6c0-0.5,0-1-0.4-1.5
									c-0.2-0.3-0.4-0.7-0.1-1c0.2-0.1,0.3-0.5,0.3-0.8c0.1-0.5,0.4-0.9,0.7-1.3c0.4-0.5,0.8-1,1.3-1.5c0.2-0.2,0.4-0.5,0.5-0.8
									c0.1-0.1,0.2-0.2,0.4-0.1c0.3,0.1,0.4-0.1,0.4-0.3c-0.1-0.6,0.1-1,0.2-1.6c0.2-1,0.9-1.6,1.6-2.2c0.4-0.3,0.9-0.5,1.3-0.7
									c0.6-0.3,1.3-0.5,1.9-0.8c0.3-0.1,0.7-0.1,0.9-0.3c0.4-0.2,0.7-0.5,1-0.8c0.1-0.1,0.2-0.2,0.4-0.4c0.1-0.1,0.2-0.3,0.3-0.4
									c0.1-0.3,0.2-0.7,0.4-1c0.1-0.3,0.4-0.6,0.4-0.9c-0.1-0.4-0.3-0.9-0.6-1.2c-0.4-0.4-1.1-0.5-1.7-0.1c-0.4,0.2-0.7,0.5-1,0.7
									c-0.1-0.1-0.1-0.2-0.2-0.2c-0.1,0.2-0.3,0.4-0.4,0.6c-0.1,0.3-0.3,0.2-0.4,0.1c-0.1-0.1-0.4-0.2-0.1-0.5
									c0.1-0.1,0.1-0.2,0.1-0.4c-0.3,0.2-0.5,0.4-0.7,0.7c0,0.1,0,0.1,0,0.2c0.2,0.6-0.2,0.9-0.6,1.3c-0.1,0.1-0.2,0.2-0.2,0.4
									c0,0.4,0,0.9,0,1.3c0,0.4-0.1,0.8-0.4,1.1c-0.6,0.7-1.2,1.3-1.9,1.9c-0.1,0.1-0.3,0.2-0.4,0.1c-0.1-0.1-0.2-0.3-0.2-0.4
									c0-0.4,0-0.8,0-1.2c0-0.6,0.1-1,0.7-1.3c0.4-0.2,0.7-0.4,1.1-0.7c-0.1-0.1-0.3-0.2-0.3-0.2c0-0.3,0.1-0.6,0-0.7
									c-0.1-0.1-0.4-0.1-0.7-0.1c-0.3-0.6-0.4-1.2-0.1-1.9c0.1-0.4,0.1-0.9,0.4-1.3c0.2-0.6,0.4-1.2,1.1-1.5
									c0.5-0.2,1-0.6,1.6-0.8c0.4-0.2,1-0.4,1.4-0.4c0.9,0.1,1.6-0.3,2.4-0.6c0.1-0.1,0.2-0.1,0.3-0.3c0.2-0.2,0.1-0.4-0.1-0.5
									c-0.2-0.1-0.4-0.1-0.7-0.1c-0.1,0-0.1-0.1-0.3-0.2c0.1-0.1,0.1-0.1,0.2-0.2c0.2-0.1,0.4-0.2,0.7-0.3
									c-0.2-0.4,0.1-0.7,0.3-0.9c0.1-0.1,0.2-0.3,0-0.4c-0.4-0.1-0.7-0.1-1.2-0.1c-0.5,0-1,0-1.6,0c-0.3,0-0.6-0.1-0.9-0.1
									c-0.1,0-0.4,0-0.6,0c0.3,0.7,0.2,0.8-0.4,1c-0.1,0-0.1,0.1-0.2,0.1c-0.2,0.1-0.4,0.2-0.7,0.3c-0.1,0-0.3-0.1-0.3-0.2
									c0-0.3,0.1-0.5,0.1-0.8c0-0.2,0.1-0.4,0.4-0.4c0.3-0.1,0.5-0.3,0.7-0.4c0.1-0.1,0.4-0.4,0.5-0.3c0.4,0.1,0.3-0.1,0.4-0.3
									c0-0.1,0.1-0.2,0.1-0.3c0.4-0.3,0.8-0.6,1.2-0.9c0.1-0.1,0.1-0.1,0.1-0.1c-0.1-0.4,0.1-0.5,0.3-0.7c0.1-0.1,0.1-0.2,0.1-0.3
									c-0.1-0.3,0.1-0.4,0.2-0.6c0.1-0.1,0.2-0.4,0.2-0.5c0-0.2-0.1-0.4-0.3-0.5c-0.1-0.2-0.1-0.4,0.1-0.4c0.1,0,0.2-0.2,0.2-0.3
									c-0.1-0.5-0.4-1-1-1.1c-0.7-0.3-1.3,0-1.9,0.3c-0.2,0.1-0.3,0.1-0.4-0.1c-0.3-0.6-0.7-1-1.3-1.3c-0.1,0-0.1-0.1-0.1-0.2
									c0.1,0,0.2-0.1,0.3-0.1c0.4,0.1,0.7,0.3,1.1,0.4c0.1,0,0.1,0.1,0.3,0.1c0-0.4-0.1-0.7,0-0.9c0.1-0.4,0-0.7-0.4-0.7
									c-0.4-0.1-0.9-0.2-1.3-0.3c-0.3,0-0.4-0.1-0.5-0.4c0-0.2-0.1-0.4-0.2-0.7l0.1-0.1c-0.1-0.1-0.2-0.4-0.4-0.5
									c-0.1-0.1-0.3,0-0.4,0.1c-0.2,0.1-0.4,0.2-0.7,0.4c0.1,0.1,0.4,0.4,0.5,0.5c0.2,0.1,0.5,0.3,0.7,0.5c-0.4,0.3-0.6,0.6-1,0.7
									c-0.5,0.1-0.7,0.5-0.9,1c-0.1,0.1-0.2,0.3-0.3,0.4c-0.4,0.2-1,0.2-1,0.8c-0.4-0.4-0.4-0.7-0.1-1.2c-0.1-0.1-0.3-0.1-0.4-0.2
									c0,0.1-0.1,0.3-0.1,0.4s0.1,0.4,0.1,0.5c0.1,0.4,0.1,0.8,0.2,1.2c0.1-0.1,0.1-0.2,0.1-0.3s0-0.2,0.1-0.3
									c0.7,0.1,0.7,0.1,0.9,0.6c0.1,0.3,0.1,0.7,0.2,1c0,0.1,0,0.2,0,0.4c0.2,0.7,0,1.3-0.7,1.7c-0.9,0.4-1.7,1-2.5,1.3
									c-0.4,0.2-1,0.4-1.5,0.6c-0.3,0.1-0.5,0-0.6-0.3c-0.1-0.4-0.3-0.7-0.6-1c-0.1-0.1-0.1-0.1-0.1-0.2c0-0.1,0.1-0.1,0.2-0.1
									c0.1,0,0.3,0,0.5,0c-0.2-0.4-0.4-0.5-0.7-0.6c-0.3-0.1-0.5-0.2-0.7-0.3c-0.3-0.1-0.7-0.1-0.8-0.1c-0.4,0.3-0.7,0.6-0.7,1.2
									c0,0.2-0.1,0.2-0.2,0.3c-0.4,0.1-0.7,0.2-1,0.4c-0.1,0.1-0.3,0.4-0.3,0.7c0,1.3,0.4,2.4,1.5,3.2c0.1,0.1,0.2,0.1,0.4,0.1
									c0.8,0,1.6,0.2,2.2,0.8c0.3,0.3,0.8,0.2,1.1-0.1c0.1-0.2,0.3-0.3,0.6-0.2c0.4,0.1,0.7,0,0.7-0.4c0-0.4,0.1-0.8,0-1.2
									c-0.2-0.7,0.1-1.1,0.6-1.4c0.6-0.4,1.3-1,2.1-1c0.4,0,0.7,0.1,0.7,0.5c0.1,0.5-0.1,1-0.5,1.3c-0.4,0.3-0.5,0.8-0.7,1.3
									c-0.2,0.4-0.4,1-0.7,1.3c-0.4,0.5-0.9,1-1.4,1.5c-0.7,0.6-1.5,1.1-2.2,1.7c0-0.1,0-0.1,0-0.1c-0.2-0.1-0.5-0.2-0.7-0.1
									c-0.2,0.1-0.4,0.4-0.5,0.7c-0.2,0.5-0.5,0.9-1,1c-0.6,0.2-1.2,0.4-1.7,0.7c-0.3,0.1-0.5,0.4-0.8,0.7
									c-0.7,0.4-0.7,0.8-0.1,1.3c0.6,0.6,1,1.5,2.2,1.2c0.1,0,0.1,0.1,0.2,0.1c0.6,0,1.2,0.1,1.6-0.3c0.2-0.1,0.4-0.4,0.6-0.7
									c0.2-0.2,0.5-0.4,0.8-0.7c0.3-0.1,0.6-0.2,0.8-0.4c0.1-0.1,0.1-0.1,0.3-0.2c0,0-0.1,0-0.1-0.1c-0.2,0.1-0.5,0.2-0.8,0.4
									v-0.5c-0.2,0.2-0.4,0.4-0.5,0.4c-0.1,0.1-0.2,0.1-0.4,0.1c-0.1,0-0.1-0.1-0.1-0.1c-0.6,0.3-1.2,0.6-1.8,0.8
									c-0.4,0.1-0.6,0.1-0.7-0.4c0.5,0.1,0.8-0.2,1.1-0.5c0.1-0.1,0.2-0.2,0.4-0.2c0.3,0,0.4-0.1,0.4-0.4c0-0.4,0.3-0.4,0.6-0.4
									c0.1,0,0.2,0,0.3,0c0.2-0.1,0.4-0.1,0.6-0.2c0.1,0,0.2,0.1,0.3,0.1c-0.1,0.1-0.1,0.2-0.1,0.3c-0.1,0.1-0.2,0.3-0.4,0.4
									c0.1,0.1,0.1,0.1,0.1,0.1c0.1-0.1,0.2-0.4,0.4-0.5c0.3-0.3,0.5-0.6,0.8-0.8c0.4-0.3,0.8-0.7,1.3-0.9c0.5-0.2,1-0.6,1.5-1
									c0.1-0.1,0.2-0.1,0.3-0.1c0,0.1,0.1,0.2,0.1,0.3c-0.1,0.5-0.3,0.9-0.7,1.1c-0.1,0.1-0.4,0.2-0.3,0.3
									c0.1,0.4-0.2,0.4-0.4,0.4c0.1-0.1,0.1-0.2,0.2-0.4c-0.7,0.3-1.3,0.5-2,0.7v0.1c0.4-0.1,1-0.1,1.6-0.2
									c-0.2,0.2-0.4,0.4-0.6,0.5l0.1,0.1c0.4-0.3,0.8-0.5,1.3-0.8c0.1-0.1,0.2-0.1,0.3-0.1c0,0.1,0.1,0.2,0.1,0.3
									c-0.1,0.7-0.3,1.4-0.4,2.2c-0.1,0.4-0.2,0.9-0.3,1.3c0,0.1-0.2,0.1-0.3,0.1c-0.1-0.5-0.9-0.3-1.1-0.8c0,0-0.1-0.1-0.2-0.1
									c-0.4,0.1-0.9,0.1-1.4,0.3c-0.3,0.1-0.4,0.4-0.2,0.7c0.1,0.1,0.1,0.4,0,0.5c-0.2,0.5-0.6,0.9-1.1,1.3
									c-0.2,0.1-0.2,0.3-0.2,0.5c0,0.4,0,0.8,0.3,1.2c0.1,0.1,0,0.1,0,0.2c0.1,0.7,0.1,1.6,1,1.8c0.1,0,0.2,0.1,0.2,0.2
									c0.2,0.3,0.4,0.2,0.7,0.1c0.4-0.3,0.8-0.8,1.3-1c0.4-0.2,0.8-0.7,1.2-1c0.2,0.4,0.4,0.9,0.5,1.3c0.1,0.2,0.1,0.4-0.1,0.6
									c-0.4,0.3-0.7,0.6-1.2,0.9c-0.7,0.4-1.2,1.2-1.7,1.9c-0.1,0.2-0.4,0.6-0.6,0.7c-0.8,0.4-1.5,0.9-2,1.7
									c-0.4,0.7-0.8,1.3-1.3,2c-0.3,0.5-0.6,1-1,1.6c-0.4,0.6-0.8,1.1-1.3,1.7c-0.1,0.2-0.4,0.3-0.7,0.2c-0.6-0.1-1.2-0.3-1.9-0.4
									c-0.4-0.1-0.8,0-1.3-0.1c-0.6-0.1-1.1-0.4-1.7-0.1c-0.1,0-0.4-0.1-0.4-0.1c0.1-0.6,0.1-1.2,0.2-1.8c0.1-0.4,0.2-0.9,0-1.3
									c-0.2-0.4-0.4-0.7-0.5-1c-0.1-0.3-0.1-0.7-0.2-1c-0.1-0.5-0.1-0.5,0.4-0.8c0.6-0.4,1.3-0.7,1.9-1.1c0.4-0.2,0.3-0.4,0.1-0.7
									c-0.1-0.1-0.1-0.4-0.1-0.7c0.2-0.5,0.4-1,0.7-1.6c0.1-0.1,0.3-0.3,0.5-0.4c0.1-0.1,0.3-0.1,0.4-0.3c0.4-0.5,0.9-1,1.6-1.3
									c0.3-0.1,0.3-0.3,0-0.5c-0.4-0.3-0.8-0.6-1.1-0.9c-0.3-0.3-0.4-0.7-0.7-1c-0.4-0.4-0.9-0.8-1.3-1.2c-0.4-0.3-1-0.4-1.5-0.3
									c-0.4,0.1-0.7,0.1-1,0.2c-0.4,0.1-0.5,0-0.4-0.4c0.1-0.4,0.2-0.9,0.2-1.3c0-0.9,0.6-1.4,1.1-2c0.1-0.1,0.1-0.1,0.3-0.1
									c0.6-0.1,1-0.4,1.4-0.7c0.6-0.6,0.7-1.7,0.1-2.2c-0.5-0.4-1-0.9-1.6-1.2c-0.6-0.3-1-0.3-1.6-0.1c-0.5,0.1-0.8-0.1-0.8-0.6
									c0-0.1,0-0.1-0.1-0.3c-0.1-0.7-0.1-1.4-0.3-2.2c0-0.2,0-0.4-0.1-0.7h-0.1c0,0.1-0.1,0.3-0.1,0.4c-0.5-0.2-0.5-1-0.1-1.6
									c0.1,0.3,0.1,0.5,0.1,0.7c0.1-0.1,0-0.4,0-0.4c0.1-0.2,0-0.4-0.2-0.5s-0.4-0.4-0.4-0.7c-0.1-0.6-0.1-0.7-0.7-0.7
									c-0.1,0-0.2,0-0.3-0.1c-0.4-0.3-1-0.1-1.4,0c-0.4,0.2-0.7,0.5-1.2,0.7c-0.7,0.4-0.8,1-1.1,1.6c-0.1,0.3-0.2,0.7-0.4,0.9
									c-0.4,0.4-0.4,0.9-0.5,1.3c-0.1,0.7-0.1,1.4-0.1,2.1c0,0.3,0.1,0.6,0.1,0.9c0.1,0.4,0.2,0.7,0.4,1.1c0,0.1,0.2,0.2,0.3,0.2
									c0.4-0.1,1-0.1,1.4-0.3c0.4-0.1,0.8-0.1,1.1-0.4c0.1-0.1,0.3-0.1,0.4-0.1c0.1,0.1,0.1,0.3,0.1,0.5c0,0.1-0.1,0.1-0.2,0.2
									c-0.7,0.4-1.3,1-1.9,1.4c-0.3,0.2-0.7,0.4-1,0.5c-0.3,0.1-0.4,0.1-0.5-0.2c0-0.2-0.1-0.4-0.1-0.7c-0.1,0.1-0.1,0.2-0.2,0.3
									c-0.2,0.3-0.4,0.7-0.7,0.9c-0.4,0.3-0.8,0.5-1.2,0.7c-0.4,0.2-0.4,0.5-0.4,1c0.1,0.6,0.5,1,0.8,1.4c0.1,0.1,0.6,0.3,0.6,0.2
									c0.2-0.3,0.4-0.1,0.7-0.1c0.1,0,0.2,0,0.4-0.1c0.4-0.2,1-0.4,1.3-0.8c0.3-0.2,0.7-0.4,0.7-1c0-0.1,0.1-0.1,0.2-0.1
									c0,0,0.1,0.1,0.1,0.1c0,0.1,0,0.1,0.1,0.2c0.9-0.2,1.1,0.2,1,1c0.1-0.1,0.2-0.3,0.3-0.4c0.1-0.1,0.1-0.1,0.2-0.1
									c0.1,0,0.2,0.1,0.2,0.2c0,0.4,0,0.7,0,1c0,0.1,0.1,0.4,0.1,0.5c0,0.4,0.1,0.7-0.1,1c-0.1,0.3-0.5,0.4-0.8,0.7
									c-0.4,0.4-0.9,0.2-1.3-0.1c-0.4-0.3-0.8-0.5-1.3-0.6c-0.5-0.1-0.7-0.3-0.7-0.8c0-0.1,0-0.1-0.1-0.3
									c-0.3,0.1-0.6,0.3-0.8,0.4c-0.4,0.1-0.7,0.3-1.1,0.5c-0.8,0.4-1.1,1.3-1.5,2.1s-0.7,1.6-1.1,2.3c-0.8,1.3-1.8,2.6-2.7,4
									c-0.4,0.6-0.6,1.3-0.9,2c-0.1,0.3-0.2,0.5-0.4,0.7c-0.2,0.3-0.4,0.6-0.2,1c0.1,0.2,0.1,0.5,0.1,0.8c0,0.1-0.1,0.2,0,0.3
									c0.2,0.4,0.1,0.7,0,1c-0.2,0.9-0.4,1.7-0.7,2.6c-0.2,0.9-0.5,1.8-0.8,2.7c-0.3,1-0.7,1.9-1.1,3c-0.3,0.7-0.5,1.6-0.7,2.3
									c-0.1,0.6-0.4,1.2-0.4,1.9c-0.1,0.9-0.1,1.8-0.1,2.6c0,0.1,0,0.1,0,0.1c0.3,0.5,0.7,0.9,1.3,1c0.4,0.1,0.6,0,0.7-0.4
									c0.1-0.2,0.2-0.4,0.4-0.5c0.2-0.3,0.4-0.5,0.4-0.9c-0.1-2.1,0.1-4.1,0.9-6.1c0.1-0.4,0.3-0.9,0.4-1.3
									c0.2-0.7,0.5-1.4,0.7-2.2c0.1-0.3,0-0.7,0.2-1c0.4-0.7,0.6-1.5,0.7-2.4c0.1-0.5,0.2-1,0.4-1.6c0.1-0.2,0.2-0.4,0.3-0.6
									c0.1-0.2,0.1-0.5,0.3-0.7c0.2-0.4,0.4-0.7,0.7-1c0.1-0.1,0.1-0.4,0.3-0.6c0.5-0.5,1-1.1,1.6-1.6c0.4-0.4,1-0.9,1.4-1.3
									c0.3-0.2,0.7-0.4,1-0.6c0.1,0,0.3,0.1,0.3,0.1c0.1,0.4,0.4,0.8,0.4,1.3c0.1,0.1-0.1,0.4-0.1,0.4c-0.4,0.3-0.7,0.6-1.2,0.8
									c-0.5,0.4-1.1,0.7-1.6,1.2c-0.4,0.4-0.8,0.8-1.3,1.3c-0.1,0.1-0.1,0.1-0.1,0.1c0,0.3,0.7,0.9,1,0.8c0.3-0.1,0.4,0,0.6,0.2
									c0.7,1,1.3,1,2.2,0.6c0.3-0.1,0.6-0.4,0.6-0.8c0-0.1,0.1-0.2,0.1-0.3c0.5-0.4,1-0.8,1.6-1.1c0.6-0.2,1.1-0.6,1.6-1
									c0.1-0.1,0.4-0.2,0.5-0.4c0.4-0.2,0.8-0.4,1.2-0.7c0.2-0.1,0.4-0.1,0.4,0.1c0,0.5,0,1.1,0,1.7c-0.1,0.7-0.3,1.5-0.3,2.2
									c0,0.7,0.1,1.4,0.1,2.1c0,0.2,0.1,0.4-0.2,0.4c-0.4,0-0.7-0.2-0.6-0.4c0.1-0.2,0.1-0.4,0.2-0.7c0.1-0.1,0.1-0.3,0.1-0.5
									c-0.1,0-0.1,0-0.1-0.1c-0.1,0.3-0.2,0.5-0.4,0.8c-0.1,0.4-0.3,0.4-0.7,0.1c-0.3-0.2-0.7-0.5-1-0.5c-0.7,0.1-1.3,0.1-1.9,0.6
									c-0.1,0.1-0.3,0.1-0.4,0c-0.2-0.2-0.4-0.4-0.7-0.6c-0.9-0.7-1.9-0.9-2.9-0.4c-0.4,0.1-0.7,0.4-1.1,0.5
									c0.1,0.2,0.1,0.4,0.1,0.6c-0.1,0.5-0.3,1-0.4,1.6c0,0.1-0.1,0.1,0,0.2c0.1,0.4,0.1,0.9,0.3,1.3c0.4,0.9,0.5,1.9,1.1,2.6
									c0.7,1,1.4,1.9,2.5,2.5c0.2,0.1,0.4,0.1,0.6-0.1c0-0.1,0.1-0.1,0.2-0.1c0.3,0,0.6,0.1,1,0.1c0.2,0,0.5,0.1,0.7,0.1
									s0.5-0.4,0.5-0.4c-0.2-0.5,0.2-0.8,0.3-1.1c0.1-0.1,0.3-0.3,0.4-0.3c0.4,0.1,0.5-0.1,0.6-0.4c0.1-0.4,0.2-0.8,0.2-1.3
									c0-0.9,0.1-0.9,1-1.1c0.1,0,0.1,0,0.3-0.1c0.3-0.1,0.4,0,0.6,0.3c0.2,0.5,0.4,1,0.7,1.5c0.3,0.4,0.6,0.8,1,1.1
									c0.1,0,0.1-0.1,0.1-0.1c-0.1-0.4-0.3-0.7-0.4-1.2c0.2,0.1,0.4,0.1,0.4,0.2c0.5,0.4,1.1,0.7,1.6,1c0.1,0.1,0.2,0,0.3,0.1
									c0-0.1,0-0.2-0.1-0.3c-0.1-0.2-0.2-0.4-0.4-0.6c-0.1-0.2-0.1-0.4,0.1-0.5c0.4-0.2,0.7-0.5,1-0.7c0.1-0.1,0.1-0.1,0.2-0.1
									c0.6,0.1,0.7,0.1,1-0.5c0.1-0.4,0.3-0.7,0.6-1c0.2-0.3,0.6-0.6,0.8-0.9c0.1-0.1,0.2-0.3,0.4-0.4c0.1,0.1,0.1,0.2,0.2,0.4
									c0.4,0.5,0.1,1,0,1.6c-0.1,0.2-0.1,0.5-0.1,0.7c0,0.2,0.1,0.3,0.4,0.2c0.3-0.1,0.6-0.1,0.8,0c0.6,0.1,1.6-0.2,1.9-0.7
									c0.2-0.4,0.4-0.7,0.5-1.2c0.1-0.5,0.8-0.7,0.7-1.3l0.1-0.1c0.4-0.1,0.5-0.6,0.7-0.9c0.4-0.4,0.7-0.9,1.1-1.4
									c0.2-0.3,0.4-0.5,0.7-0.7c0.1-0.1,0.2-0.1,0.3-0.1c0,0.1,0.1,0.2,0,0.3c-0.4,0.9-0.7,1.9-1.1,2.8c-0.2,0.5-0.4,1-0.8,1.6
									c-0.5,0.7-1,1.3-1.6,2c-0.7,1-1.8,1.6-2.9,2.2c-0.5,0.3-1.1,0.4-1.7,0.6c-0.1,0.1-0.3,0.1-0.3,0.3c-0.1,0.5-0.1,1.1-0.1,1.6
									c0,0.1,0.1,0.3,0.2,0.3c0.4,0.1,0.4,0.4,0.6,0.7c0,0.1,0.1,0.2,0.2,0.3c0.3,0.3,0.4,0.3,0.7-0.1c0.1-0.1,0.2-0.3,0.2-0.5
									c0.1-0.2,0.2-0.3,0.4-0.2c0.7,0.3,1.3-0.1,1.7-0.7c0.2-0.4,0.4-0.3,0.6,0.1c0.2,0.4,0.5,0.7,0.7,1.2c0.1,0,0.1,0,0.1,0
									c0.1-0.3,0.2-0.6,0.4-1c0.1,0.1,0.2,0.1,0.2,0.2c0.2,0.4,0.4,0.1,0.6,0c0.1,0,0.1-0.2,0.1-0.4c0-0.3-0.1-0.6,0-0.8
									c0.1-0.4,0-0.7,0.1-1c0-0.1,0-0.1-0.1-0.1c-0.7,0.4-0.4,1.3-1,1.9c0-0.2-0.1-0.4-0.1-0.4c0.1-0.3,0.1-0.7,0.1-1
									c0.1-0.6,0.2-1.3,0.7-1.8c0.6-0.7,1.3-1.3,1.9-1.9c0.4-0.4,0.8-1,1.2-1.5c0.5-0.8,1-1.7,1.8-2.3c0.1-0.1,0.1-0.2,0.2-0.4
									l0,0l0,0c-0.1,0.1-0.4,0.1-0.6,0.3c0.3-0.7,0.9-0.9,1.2-1.3c0.1,0.1,0.1,0.1-0.2,0.5c-0.1,0.1-0.2,0.4-0.4,0.5l0,0l0,0
									c0.1-0.1,0.3-0.1,0.4-0.2c0.2-0.1,0.4-0.4,0.7-0.6c0.4-0.4,0.9-0.9,1.3-1.3c0.4-0.4,0.7-0.7,1-1.1c0.1-0.1,0.2-0.1,0.4-0.1
									c0,0.1,0,0.2,0,0.4c-0.4,1-1,2-1.3,3.1c-0.2,0.7-0.4,1.4-0.5,2.2c0,0.1,0,0.3,0.1,0.4c0.1,0.4,0,1-0.4,1.2
									c-0.1,0.1-0.3,0-0.4,0c-0.1,0-0.2,0-0.4,0c-0.1,0-0.4,0-0.5,0c-0.2-0.1-0.5,0.2-0.5,0.4c0.2,0.9,0.7,1.7,1.5,2.1
									c0.5,0.2,1,0.4,1.6,0.5c0.2,0.1,0.6,0.2,0.7,0.1c0.5-0.2,1.1-0.1,1.7-0.4c0.9-0.4,1.8-0.6,2.7-1c0.1-0.1,0.3-0.1,0.4,0
									c0.1,0.1,0.1,0.2,0.1,0.4c0,0.7-0.1,1.4-0.1,2.2c0,1.1,0-0.8-0.1,0.2c-0.1,0.9-0.1,1.8-0.2,2.6c-0.1,2.5-0.3,1.9-0.4,4.5
									c0,0.5,0,1-0.1,1.5c-0.1,1.8-0.3,3.6-0.3,5.4c0,2.1-0.3,4.1-0.5,6.2c0,0.2,0.1,0.5,0.1,0.8c0.1,0.3,0.3,0.3,0.4,0
									c0.2-0.4,0.5-0.7,0.7-1.1c0.1-0.1,0.2-0.1,0.3-0.2v1.3c0.1,0,0.1,0,0.1,0c0.1-0.6,0.1-1.2,0.3-1.8c0,0-0.1-0.1-0.1-0.2
									c-0.1-0.4-0.3-0.5-0.6-0.3c-0.1-0.4,0-0.9,0.4-1.3c0,0.3-0.1,0.4-0.1,0.8c0.1-0.1,0.3-0.1,0.3-0.2c0.1-0.4,0.2-1,0.3-1.4
									c0.1-1.5,0.2-3,0.4-4.6c0-0.5,0-0.5-0.4-0.4c-0.1,0-0.1,0-0.2,0c-0.1,0-0.1-0.1-0.2-0.1c0,0,0-0.2,0.1-0.2
									c0.1,0,0.2,0,0.3,0.1c0.3,0.1,0.4,0.1,0.5-0.2c0.1-0.3,0.2-0.5,0.3-0.8c0.1-0.1,0.1-0.2,0.1-0.3c0-0.4-0.1-0.8-0.1-1.2
									c0-0.1,0-0.1,0.1-0.2v0.2l0,0v-0.1c0.1-0.1,0.1-0.3,0.1-0.4c-0.1-0.2,0-0.4,0-0.7c-0.1,0.2-0.1,0.5-0.1,0.7v0.1
									c0-0.7,0-1.3,0-1.2c0.1,0.1,0.1,0.2,0.1,0.4c0.1-0.2,0.1-0.4,0.1-0.7c0.1-0.4-0.1-1,0.1-1.4c0.1-0.1,0-0.4,0.1-0.6
									c0-0.1,0-0.2,0.1-0.4c0-0.1,0.1-0.1,0.1-0.2c0-0.4,0-0.8,0-1.3c0.1-1,0.1-2.1,0.2-3.1c0.1-0.5,0.1-1,0.2-1.5
									c0-0.7,0,1.7,0.2,1c0-0.1,0-0.1,0-0.2c0.1-1,0.1-2.2,0.2-3.2c0.1-0.4,0.2-0.7,0.6-0.9c0.4-0.2,0.9-0.5,1.2-0.8
									c0.4-0.4,0.9-0.5,1.4-0.7c0.3-0.1,0.6-0.2,0.7-0.4c0.4-0.7,1.1-1,1.8-1.4c0.2-0.1,0.5-0.3,0.7-0.4
									C477.7,279.4,477.9,278.9,477.6,278.5z M471,271.9c0.1,0,0.2,0.1,0.3,0.2c-0.1,0.1-0.3,0.3-0.5,0.5
									c-0.1-0.2-0.2-0.3-0.2-0.4C470.7,272.1,470.9,272,471,271.9z M463.5,249.6c0.2-0.4,0.4-0.8,0.7-1.2c0.1-0.1,0.1-0.1,0.2-0.1
									c0,0.1,0.1,0.2,0.1,0.3c-0.1,0.3-0.3,0.6-0.5,0.8c-0.1,0.2-0.3,0.4-0.4,0.6h-0.1C463.5,249.8,463.5,249.6,463.5,249.6z
									 M467.1,253.2c0.1,0,0.2,0.2,0.2,0.3c0,0.1-0.1,0.2-0.2,0.3c-0.3,0.1-0.6,0.1-0.7-0.3c-0.1-0.1-0.3-0.3-0.5-0.5
									C466.3,253.1,466.7,253.2,467.1,253.2z M462.9,255.2c0.2-0.7,0.7-1.2,1.3-1.6c0.6-0.4,1.1-0.3,1.6,0.2
									c0.1,0.1,0.2,0.1,0.3,0.1c0.1,0.1,0.1,0.1,0.2,0.2c-0.1,0.1-0.1,0.1-0.2,0.1c-0.9,0.4-1.9,0.9-2.8,1.3
									c-0.1,0.1-0.3,0.1-0.5,0.1C462.9,255.5,462.9,255.3,462.9,255.2z M460.4,252c-0.1-0.3-0.1-0.6-0.1-0.9
									C460.5,251.3,460.6,251.7,460.4,252z M458.9,254.7c-0.2,0.1-0.4,0.4-0.6,0.5c-0.1,0.1-0.1,0.1-0.2,0.1c0-0.1,0-0.2,0.1-0.3
									c0.3-0.3,0.7-0.6,1-0.9c0.2-0.2,0.5-0.4,0.7-0.7c0.1-0.1,0.1-0.1,0.2-0.1c0.1,0.1,0.1,0.1,0.1,0.1c0,0.4-0.2,0.7-0.5,0.7
									C459.4,254.3,459.2,254.5,458.9,254.7z M439.4,269.8c-0.1,0.1-0.1,0.2-0.1,0.4c-0.1,0.1,0,0.4-0.1,0.4
									c-0.2,0.1-0.5,0.2-0.7,0.1c-0.4-0.2-0.4-0.4-0.1-0.8c0.1-0.1,0.3-0.4,0.4-0.5c0.1-0.4,0.4-0.4,0.7-0.4
									c0.4,0,0.3,0.3,0.4,0.6C439.6,269.6,439.5,269.6,439.4,269.8z M435.9,285.1c-0.1,0.4-0.4,0.4-0.7,0.1
									c-0.7-0.6-1.2-1.4-1.2-2.4c0-0.3,0.1-0.7,0.4-0.9c0.2-0.3,0.6-0.6,0.9-0.9c0.1-0.1,0.3-0.1,0.4,0c0.5,0.5,0.7,1.2,0.9,2.1
									C436.3,283.6,436.2,284.4,435.9,285.1z M442.5,268.5c-0.1-0.2-0.3-0.4-0.3-0.5c0-0.7,0.4-1.4,1.1-1.6
									c0.3-0.1,0.6-0.3,0.9-0.4c0.1,0,0.2,0,0.3,0c0,0.1,0,0.2,0,0.3c-0.3,0.5-0.7,1.1-1,1.6C443.3,268.1,442.9,268.3,442.5,268.5
									z M443.2,277.1v1.3h-0.1c0-0.1-0.1-0.4-0.1-0.5c0-0.7,0.1-1.3,0.1-2c0.1-0.4,0.4-0.8,0.3-1.3c0-0.1,0.1-0.1,0.1-0.1l0.1,0.1
									c0.1,0.3,0.1,0.6,0.1,1c0,0.4-0.1,1-0.2,1.4C443.7,277.1,443.6,277.3,443.2,277.1z M445.7,281.6c-0.4,0.7-1,1.3-1.4,1.9
									c-0.1,0-0.1-0.1-0.1-0.1c-0.5-1.1,0-2.3-0.1-3.5c0.2,0.1,0.4,0.1,0.4,0.2c0.4,0.3,0.8,0.6,1.2,0.9
									C445.8,281.2,445.8,281.4,445.7,281.6z M468.3,280c-0.1,0.6-0.7,0.5-1,0.8c-0.1,0-0.1,0-0.1,0c0-0.1-0.1-0.4-0.1-0.4
									c0.4-0.6,0.7-1.1,1.1-1.7c0,0,0.1,0,0.1-0.1C468.5,279,468.4,279.5,468.3,280z M470,268.2c0,0.1-0.2,0.1-0.4,0.2
									c-0.1,0-0.1-0.1-0.1-0.1c-0.1,0.3-0.1,0.6-0.2,1h-0.1c0-0.1-0.1-0.1-0.1-0.2c0-0.4,0.1-0.7,0-1c0-0.3-0.1-0.5-0.2-0.8
									c-0.1-0.4,0.1-0.6,0.4-0.7c0.2,0,0.4,0.1,0.5,0.3C470.2,267.3,470.1,267.8,470,268.2z"/>
							</g>
							<path class="st0" d="M454.7,270.8c0-0.2-0.1-0.4-0.4-0.4s-0.4,0.1-0.4,0.6c0.1,0.1,0.2,0.2,0.4,0.2
								C454.5,271.2,454.7,271,454.7,270.8z"/>
							<path class="st0" d="M452,293.6c-0.1,0-0.2,0.1-0.2,0.1c0,0.1,0.1,0.2,0.2,0.4c0.1-0.1,0.2-0.3,0.2-0.3
								C452.2,293.8,452.1,293.7,452,293.6z"/>
						</g>
					</g>
					<g>
						<g>
							<path class="st0" d="M409.7,340.9c-2.8,0-4.5-1.8-4.5-4.6c0-2.6,1.9-4.7,4.3-4.7c1.7,0,2.3,0.4,3,0.4c0.1,0,0.1,0,0.1,0.1
								l0.1,1.7c0,0.2-0.2,0.2-0.2,0.1c-0.4-1.1-1.3-1.8-2.9-1.8c-1.9,0-3.1,1.8-3.1,4c0,2.2,1.3,3.7,3.4,3.7c1.4,0,2.3-0.6,2.8-1.2
								c0.1-0.1,0.3-0.1,0.2,0.1C412.6,339.8,411.5,340.9,409.7,340.9z"/>
							<path class="st0" d="M422.8,340.8c-0.4,0-1-0.1-1.9-0.1h-3.7c-0.1,0-0.2-0.1-0.1-0.2c0.4-0.1,0.4-0.3,0.4-1.7V334
								c0-1.6,0.1-1.8-0.4-1.9c-0.2-0.1-0.2-0.1-0.3-0.4h3.7c0.7,0,1.6,0,2.1-0.1c0.1,0,0.1,0,0.1,0.1l0.1,1.7
								c0,0.1-0.1,0.2-0.2,0.1c-0.3-0.9-0.4-1.3-1.6-1.3h-2.2v3.4h0.9c1.6,0,1.7-0.3,1.9-0.6c0.1-0.1,0.2-0.1,0.1,0.1
								c-0.1,0.4,0,1.3,0,1.8c0,0.1-0.1,0.2-0.1,0.1c-0.4-0.6-0.9-0.8-2-0.8h-0.9v3.5c0,0.2,0.1,0.3,0.2,0.3c0.5,0.1,1.1,0.1,1.8,0
								c1.8-0.1,2-0.6,2.5-1.6c0.1-0.1,0.3-0.1,0.2,0.1l-0.6,2C422.9,340.8,422.9,340.9,422.8,340.8z"/>
							<path class="st0" d="M430.3,331.7c-0.1,0.3-0.1,0.4-0.3,0.4c-0.6,0.1-0.6,0-0.6,1.6v6.1c0,0.1,0,0.2,0.2,0.2
								c0.3,0,0.9,0.1,1.4,0c1.9-0.1,2.1-0.4,2.6-1.6c0.1-0.1,0.3-0.1,0.2,0.1l-0.6,2.1c0,0.1-0.1,0.1-0.2,0.1c-0.4,0-1-0.1-2-0.1
								h-3.4c-0.1,0-0.2-0.1-0.1-0.2c0.4-0.2,0.5-0.3,0.5-1.8V334c0-1.9,0-1.9-0.7-1.9c-0.1,0-0.1-0.1-0.1-0.4L430.3,331.7
								L430.3,331.7z"/>
							<path class="st0" d="M443.3,340.8c-0.4,0-1-0.1-1.9-0.1h-3.7c-0.1,0-0.2-0.1-0.1-0.2c0.4-0.1,0.4-0.3,0.4-1.7V334
								c0-1.6,0.1-1.8-0.4-1.9c-0.2-0.1-0.2-0.1-0.3-0.4h3.7c0.7,0,1.6,0,2.1-0.1c0.1,0,0.1,0,0.1,0.1l0.1,1.7
								c0,0.1-0.1,0.2-0.2,0.1c-0.3-0.9-0.4-1.3-1.6-1.3h-2.2v3.4h0.9c1.6,0,1.7-0.3,1.9-0.6c0.1-0.1,0.2-0.1,0.1,0.1
								c-0.1,0.4,0,1.3,0,1.8c0,0.1-0.1,0.2-0.1,0.1c-0.4-0.6-0.9-0.8-2-0.8h-0.8v3.5c0,0.2,0.1,0.3,0.2,0.3c0.5,0.1,1.1,0.1,1.8,0
								c1.8-0.1,2-0.6,2.5-1.6c0.1-0.1,0.3-0.1,0.2,0.1l-0.6,2C443.5,340.8,443.5,340.9,443.3,340.8z"/>
							<path class="st0" d="M453.7,333.9c0,1.3-0.9,1.9-1.9,2.1c1.2,0.1,2.6,0.8,2.6,2.2c0,1.6-1.3,2.5-3.1,2.5
								c-0.7,0-1.4-0.1-2.1-0.1c-0.4,0-0.6,0.1-1,0.1c-0.1,0-0.1-0.1-0.1-0.2c0.4-0.3,0.4-0.4,0.4-1.8V334c0-1.6,0-1.6-0.3-1.8
								c-0.2-0.1-0.3-0.1-0.3-0.4c0.4,0.1,0.7,0.1,1.3,0.1c0.6,0,1.2-0.1,1.8-0.1C453,331.7,453.7,333,453.7,333.9z M449.7,335.8
								h0.4c1.7,0,2.2-0.7,2.2-1.6c0-1-0.4-1.8-1.6-1.8c-0.4,0-0.8,0.1-1,0.1L449.7,335.8L449.7,335.8z M450.2,336.4h-0.4v3.6
								c0.4,0.1,0.9,0.1,1.3,0.1c1.4,0,2-0.6,2-1.9C453,336.5,451.7,336.4,450.2,336.4z"/>
							<path class="st0" d="M458.4,340.3c0.6-0.1,0.6-0.1,0.6-1.9v-4.3c0-1.6,0-1.6-0.4-1.8c-0.3-0.1-0.4-0.1-0.3-0.5
								c0.9,0.1,2,0,3.1,0c2.2,0,3.3,1.3,3.3,2.5c0,1.2-1,2.3-2.6,2.5c1.7,1.3,1.9,3.1,3.6,3.9c0.1,0.1,0.2,0.2,0,0.2
								c-0.8,0-1.6,0.1-2.2-0.5c-1-1.1-1.5-2.8-2.8-3.7c-0.1-0.1-0.1-0.2,0.1-0.2c1.8,0,2.8-0.6,2.8-2c-0.1-1.3-1-2.2-3.1-1.8v5.7
								c0,2.1,0,2.2,1,2.2c-0.1,0.3-0.1,0.4-0.4,0.4h-2.8C458.2,340.4,458.3,340.4,458.4,340.3z"/>
							<path class="st0" d="M469.6,332.2c-0.2,0-0.1-0.1-0.1-0.4h2.8c-0.1,0.3-0.1,0.4-0.3,0.4c-0.5,0.1-0.5,0.1-0.5,1.6v4.3
								c0,2.1,0,2.1,0.9,2.2c-0.1,0.3-0.1,0.4-0.3,0.4h-2.7c0.1-0.2,0.1-0.4,0.2-0.4c0.6-0.1,0.6-0.1,0.6-1.9V334
								C470.2,332.2,470.3,332.2,469.6,332.2z"/>
							<path class="st0" d="M476.2,331.8c0-0.1,0.1-0.1,0.2-0.1c0.4,0.1,1.5,0.1,2.5,0.1h2.1c1.2,0,2.1-0.1,2.5-0.1
								c0.1,0,0.2,0,0.2,0.1c-0.1,0.7-0.1,1.3-0.1,2c0,0.1-0.2,0.1-0.2,0c-0.1-1-0.5-1.6-1.1-1.6h-1.7v5.8c0,2.1,0,2.1,1.2,2.2
								c-0.1,0.3-0.1,0.4-0.3,0.4h-3.3c0.1-0.2,0.1-0.4,0.2-0.4c0.9-0.1,0.9-0.1,0.9-1.9v-6.1h-1.8c-0.5,0-0.9,0.6-1.1,1.6
								c-0.1,0.2-0.2,0.1-0.2,0C476.2,333.1,476.2,332.5,476.2,331.8z"/>
							<path class="st0" d="M487,331.8h3.3c-0.1,0.4-0.1,0.4-0.2,0.4c-1,0.1-0.8,0.4-0.1,1.6l1.5,2.5h0.1l1.2-2.1
								c0.9-1.6,0.7-1.9-0.2-1.9c-0.2,0-0.2-0.1-0.2-0.4h2.9c-0.1,0.4-0.1,0.3-0.3,0.4c-0.4,0.1-0.5,0.1-1.3,1.5l-1.9,3.2v0.9
								c0,2.4,0.1,2.5,1.1,2.5c-0.1,0.3-0.1,0.4-0.3,0.4h-3.1c0.1-0.2,0.1-0.4,0.2-0.4c0.8-0.1,0.8-0.2,0.8-2v-1.2l-2.1-3.5
								c-0.7-1.1-0.7-1.3-1.3-1.4C487,332.1,486.9,332.1,487,331.8z"/>
						</g>
						<g>
							<path class="st0" d="M427.6,352.2c-0.4-1-0.5-1.3-1-1.4c-0.2,0-0.1-0.1-0.1-0.4h3.1c-0.1,0.4-0.1,0.4-0.3,0.4
								c-0.9,0.1-0.8,0.2-0.3,1.4l2,5h0.1l1.7-4.6c0.7-1.6,0.7-1.9-0.3-1.9c-0.2,0-0.3-0.1-0.2-0.4h2.8c-0.1,0.3-0.1,0.4-0.3,0.4
								c-0.5,0.1-0.7,0.2-1.1,1.4l-2.8,7.3c-0.1,0.1-0.2,0.1-0.3,0L427.6,352.2z"/>
							<path class="st0" d="M438.9,350.8c-0.2,0-0.1-0.1-0.1-0.4h2.8c-0.1,0.3-0.1,0.4-0.3,0.4c-0.5,0.1-0.5,0.1-0.5,1.6v4.3
								c0,2.1,0,2.1,0.9,2.2c-0.1,0.3-0.1,0.4-0.3,0.4h-2.7c0.1-0.2,0.1-0.4,0.2-0.4c0.6-0.1,0.6-0.1,0.6-1.9v-4.3
								C439.5,350.9,439.6,350.9,438.9,350.8z"/>
							<path class="st0" d="M448.8,350.4c-0.1,0.3-0.1,0.4-0.3,0.4c-0.6,0.1-0.6,0-0.6,1.6v6.1c0,0.1,0,0.2,0.2,0.2
								c0.3,0,0.9,0.1,1.4,0c1.9-0.1,2.1-0.4,2.6-1.6c0.1-0.1,0.3-0.1,0.2,0.1l-0.6,2.1c0,0.1-0.1,0.1-0.2,0.1c-0.4,0-1-0.1-2-0.1
								h-3.4c-0.1,0-0.2-0.1-0.1-0.2c0.4-0.2,0.5-0.3,0.5-1.8v-4.7c0-1.9,0-1.9-0.7-1.9c-0.1,0-0.1-0.1-0.1-0.4L448.8,350.4
								L448.8,350.4z"/>
							<path class="st0" d="M458.9,350.4c-0.1,0.3-0.1,0.4-0.3,0.4c-0.6,0.1-0.6,0-0.6,1.6v6.1c0,0.1,0,0.2,0.2,0.2
								c0.3,0,0.9,0.1,1.4,0c1.9-0.1,2.1-0.4,2.6-1.6c0.1-0.1,0.3-0.1,0.2,0.1l-0.6,2.1c0,0.1-0.1,0.1-0.2,0.1c-0.4,0-1-0.1-2-0.1
								h-3.4c-0.1,0-0.2-0.1-0.1-0.2c0.4-0.2,0.5-0.3,0.5-1.8v-4.7c0-1.9,0-1.9-0.7-1.9c-0.1,0-0.1-0.1-0.1-0.4L458.9,350.4
								L458.9,350.4z"/>
							<path class="st0" d="M473.8,359.1c-0.1,0.3-0.1,0.4-0.3,0.4h-2.7c0.1-0.3,0.1-0.4,0.2-0.4c0.7-0.1,0.7-0.3,0.2-1.4l-0.4-1.1
								h-3.1l-0.6,1.7c-0.2,0.7-0.1,0.7,0.7,0.7c-0.1,0.3-0.1,0.4-0.3,0.4h-2.2c0.1-0.3,0.1-0.4,0.2-0.4c0.4-0.1,0.5-0.2,1-1.4
								l2.8-7.3c0.1-0.1,0.2-0.1,0.3,0l3,7.3C473.2,358.8,473.3,359.1,473.8,359.1z M469.4,352.5l-1.3,3.4h2.7L469.4,352.5
								C469.5,352.5,469.4,352.5,469.4,352.5z"/>
						</g>
					</g>
				</g>
			</g>
		</g>
	</g>
	<g>
		
			<image style="overflow:visible;opacity:0.8;enable-background:new    ;" width="893" height="127" xlink:href="115D98B9.png"  transform="matrix(0.9987 0 0 0.9987 270.0287 575.5487)">
		</image>
		<g>
			<g>
				<path class="st0" d="M414.4,553.9c3.4-1,7-2.1,10.5-3.1l0.7,5.2c-8.8,2.7-18.3,5.5-25.5,7.6l-1.1-5.5c2.8-0.7,6.2-1.7,10-2.8
					v-21.3h-9.1v-5.3h9.1v-16.7h-9.7v-5.4h24.9v5.4h-9.8v16.7h8.1v5.3h-8.1L414.4,553.9L414.4,553.9z M450,502.9
					c-0.4,1-1,1.9-1.5,2.8c5.3,7.5,14.3,15,22.2,18.8c-1.4,1-3.1,3.1-4.1,4.6c-7.1-4-15.2-11.2-20.9-18.8
					c-5.2,7.8-12.4,14.5-20.9,19.4c-0.8-1-2.6-3.1-3.8-4c10.6-5.8,19.3-15,23.7-24.5L450,502.9z M466.7,546.7
					c-7,12.5-20.4,20.7-37.4,25.2c-0.7-1.6-2.2-3.5-3.4-4.9c16.3-3.6,29.3-11,35.7-22.4L466.7,546.7z M451,524.9
					c-4.9,6.1-12.7,11.8-19.5,15.4c-0.8-1.1-2.3-2.8-3.7-3.9c6.7-2.9,14.5-8.2,18.7-13.3L451,524.9z M458.3,535.7
					c-5.8,8.3-15.7,15.7-25.7,20.1c-0.8-1.3-2.3-3.1-3.6-4.3c9.6-3.7,19.3-10.6,24.6-18L458.3,535.7z"/>
				<path class="st0" d="M496.5,545.2c-0.9-2-3.1-5.6-5.1-8.5v35.2h-5v-34.3c-2.5,7.4-5.6,14.8-8.8,19.4c-0.6-1.5-1.9-3.6-2.8-4.9
					c3.8-5.3,8-14.9,10.3-23.3h-8.8v-5.4h10.1v-12.4c-2.7,0.6-5.5,1.1-8,1.6c-0.2-1.3-1-3.1-1.6-4.5c7-1.4,15.2-3.5,20-6l3.3,4.6
					c-2.5,1.1-5.5,2.2-8.6,3.1v13.6h8.5v5.4h-8.5v2.2c1.9,2,7,8.2,8.1,9.8L496.5,545.2z M517.6,531c-1.6,3.2-3.5,6.3-5.5,9.1h10
					v-6.9h5.2v6.9H543v19.2c0,2.6-0.4,4-2.2,4.9c-1.7,0.8-4.4,0.8-8.2,0.8c-0.2-1.5-0.9-3.4-1.6-4.8c2.8,0.1,5.1,0.1,5.8,0
					c0.7,0,1-0.2,1-0.9v-14.2h-10.3v26.7H522v-26.7h-9.7v20.1h-5.2v-19.1c-1.6,1.6-3.1,3.1-4.8,4.5c-0.8-1-2.8-3.1-4-4
					c5.2-4,9.8-9.4,13.3-15.6h-9.4v-5h12.1c1-2.3,2-4.7,2.8-7.2c-3.6,1.5-7.3,2.9-10.9,4.1c-0.8-1.1-2.5-3.4-3.7-4.5
					c5.7-1.6,11.6-3.6,17.2-6.1c-4.9-2-9.9-3.7-14.6-5.2l3.4-3.8c5.4,1.6,11.3,3.7,16.9,6.1c4.5-2.4,8.4-5.1,11.3-7.9l4.9,2.3
					c-3,2.8-6.7,5.5-10.6,8c5.3,2.4,10.3,4.9,13.9,7l-3.4,4.3c-4-2.6-9.7-5.5-16-8.2c-2.4,1.3-4.9,2.4-7.4,3.5l4.3,1
					c-0.7,2.2-1.6,4.6-2.5,6.7h26.4v5L517.6,531L517.6,531z"/>
				<path class="st0" d="M622.8,509.2v5.2h-58.2v16.8c0,11.9-0.9,29.3-7.6,41c-1-1-3.4-2.6-4.7-3.2c6.2-11,6.8-26.6,6.8-37.7v-22
					H589c-0.9-2.2-2.2-4.7-3.3-6.7l5.5-1.6c1.6,2.6,3.2,5.8,4.3,8.3H622.8z M609.6,523.5h12.5v4.8h-12.5v12.3h-12.5v6h20.8v15.9
					c0,2.8-0.5,4.3-2.8,5.2c-2.2,0.8-5.6,0.8-11.2,0.8c-0.2-1.6-1-3.4-1.6-5c4.2,0.1,7.6,0.1,8.6,0.1c1,0,1.3-0.2,1.3-1.1v-10.8H597
					v20.4h-5.6v-20.4h-14.6v17h-5.6v-22h20.2v-6h-12.7v-12.3h-11.6v-4.8h11.6v-6.9h5.4v6.9h20v-6.9h5.5V523.5z M604.1,528.3h-19.9
					v7.6h19.9V528.3z"/>
				<path class="st0" d="M655,550.7h-24.2v-5.6H655V550.7z M652.7,519h-20.2v-5.5h20.2V519z M675.5,529.4c0,1.1,0,2.3-0.1,3.4
					c3.5,16.3,11.2,28.6,25.2,33.5c-1.1,1.1-2.9,3.4-3.7,5c-11.5-4.7-18.7-13.9-23.1-26.3c-2.7,9.4-9,19.2-23.7,27
					c-0.9-1.3-3-3.4-4.3-4.5c22.1-11.2,23.8-27.2,23.8-38.3v-5.8h6V529.4z M663.2,520.2c-2.4,6.2-5,11.8-8.1,16.2
					c-1.2-1-4.1-2.5-5.6-3.2c5.8-7.5,10.1-19.5,12.4-31.7l6.1,1.1c-0.7,4.1-1.9,8.1-3,12H693l1-0.3l4.3,2.2
					c-2,7.5-5.4,15.6-8.1,20.9c-1.2-0.7-3.4-1.9-4.8-2.5c1.9-3.6,4.2-9.4,5.7-14.8H663.2z"/>
				<path class="st0" d="M807.3,538.4v4.5h-49.3v2.1h-5.6v-24.1c-2.1,2.4-4.4,4.6-6.5,6.3c-0.9-1-3-3-4.3-3.9
					c7.1-5.2,13.8-13.4,17.9-21.9l5.2,1.7c-1.3,2.7-2.8,5.4-4.6,7.9h18.3c-0.8-2.5-2.5-5.8-3.9-8.4l5.5-1.2c1.8,2.8,3.7,6.7,4.6,9.3
					l-1.6,0.4H805v4.5h-22v4.6h18.9v4.1H783v4.9h19.1v4H783v5.4h24.3V538.4z M806.1,565.6c0,2.8-0.4,4.3-2.7,5.1
					c-2,0.8-5.3,0.8-10.4,0.8c-0.2-1.6-0.9-3.4-1.6-4.9c3.8,0.1,7,0.1,7.9,0c1-0.1,1.2-0.3,1.2-1.1v-13.9h-12.1V563h-22.9v-11.3
					h-11.9v20.4h-5.6v-25.2h22.8v11.5h12.2v-11.5h23.1L806.1,565.6L806.1,565.6z M777.5,515.4h-19.4v4.6h19.4V515.4z M777.5,524
					h-19.4v4.9h19.4V524z M758.1,538.4h19.4V533h-19.4V538.4z"/>
				<path class="st0" d="M845.6,533.6c-3.9,15.7-12.8,27.1-22.7,33.5c-0.8-1.2-3.1-3.4-4.5-4.3c8.5-5,16-13.9,19.9-25.2H820v-5.5
					h20.8l1-0.2L845.6,533.6z M886.8,526.4c-6,5.6-13.9,12.3-20.3,16.7c5.7,8.5,13.3,15.1,22.9,18.6c-1.2,1.1-3.1,3.4-3.9,5
					c-13-5.6-22.2-16-28.3-29.7v27.3c0,3.4-0.8,5.2-3.3,6.1c-2.5,0.9-6.5,1-13,1c-0.2-1.6-1.1-4.1-2.1-5.7c4.7,0.2,9.3,0.2,10.5,0.1
					c1.4-0.1,1.9-0.4,1.9-1.7v-41.6H830v-5.5h27.2v5.7c1.7,5.7,3.8,11.1,6.7,16c6.1-4.6,13.3-11.2,17.8-16.2L886.8,526.4z
					 M865.2,516.8c-6.2-3.5-18.6-8.2-28.2-10.6l2.8-4.7c9.4,2.2,21.9,6.4,28.4,10L865.2,516.8z"/>
				<path class="st0" d="M911.4,553.9c3.4-1,7-2.1,10.5-3.1l0.7,5.2c-8.8,2.7-18.3,5.5-25.5,7.6l-1.1-5.5c2.8-0.7,6.2-1.7,10-2.8
					v-21.3h-9.1v-5.3h9.1v-16.7h-9.7v-5.4h24.9v5.4h-9.8v16.7h8.1v5.3h-8.1L911.4,553.9L911.4,553.9z M947,502.9
					c-0.4,1-1,1.9-1.5,2.8c5.3,7.5,14.3,15,22.2,18.8c-1.4,1-3.1,3.1-4.1,4.6c-7.1-4-15.2-11.2-20.9-18.8
					c-5.2,7.8-12.4,14.5-20.9,19.4c-0.8-1-2.6-3.1-3.8-4c10.6-5.8,19.3-15,23.7-24.5L947,502.9z M963.8,546.7
					c-7,12.5-20.4,20.7-37.4,25.2c-0.7-1.6-2.2-3.5-3.4-4.9c16.3-3.6,29.3-11,35.7-22.4L963.8,546.7z M948.1,524.9
					c-4.9,6.1-12.7,11.8-19.5,15.4c-0.8-1.1-2.3-2.8-3.7-3.9c6.7-2.9,14.5-8.2,18.7-13.3L948.1,524.9z M955.3,535.7
					c-5.8,8.3-15.7,15.7-25.7,20.1c-0.8-1.3-2.3-3.1-3.6-4.3c9.6-3.7,19.3-10.6,24.6-18L955.3,535.7z"/>
				<path class="st0" d="M1038.9,530.6c-1.9,9.4-4.8,17.6-8.5,24.6c2.1,7.8,4.6,11.6,6.8,11.6c1.4-0.1,2.2-2.1,2.5-9.6
					c1,0.9,2.7,2.1,4,2.5c-0.8,10.3-2.6,12.2-7,12.2c-3.9,0-7.3-3.8-9.7-11.2c-3.1,4.3-6.4,8.1-10.3,11.2c-0.9-1-3.1-2.7-4.3-3.5
					c2.2-1.7,4.3-3.5,6.2-5.5h-22.5v-33.2h22.8v4h-8v5.3h8v14.4h-8v5.5h8.6v3c2.1-2.3,4-4.9,5.5-7.8c-1.6-7.5-2.8-17.4-3.5-29.2
					h-29.4V541c0,9.5-0.7,22.2-5.5,30.9c-0.8-0.7-3.1-2.1-4.3-2.5c3.1-5.8,4.3-13.2,4.7-20.1h-5.4v3.5c0,5.4-0.8,13.4-5.6,18.9
					c-0.7-0.7-2.5-1.9-3.4-2.5c4.1-4.9,4.8-11.9,4.8-16.6v-3.4h-4.3v-4.9h14.2c0-1.1,0-2.4,0-3.4v-2.8h-10.8v-17.9h4.5v13.2h6.3
					v-13.6h34.1l-0.1-3.1h-1.9v-5.1h-9.7v-4.9h9.7v-5.4h5.6v5.4h17.2v4.9h-17.2v3.2h1.4c0,1.8,0.1,3.4,0.1,5h8.8
					c-1.7-1.6-4.1-3.5-6.4-4.9l3.4-2.6c2.7,1.5,6,4,7.6,5.8l-2.1,1.6h5v4.9h-16.2c0.4,8.8,1.1,16,2.2,22c2.2-5.2,3.8-10.9,5-17.2
					L1038.9,530.6z M990.8,511.7h-16.3v-4.9h16.3v-5.4h5.6v5.4h9.4v4.9h-9.4v5.5h-5.6V511.7z M1000.5,533.7v5.3h6.3v-5.3H1000.5z
					 M1014.7,542.8h-14.2v6.8h14.2V542.8z M1000.5,558.9h6.3v-5.5h-6.3V558.9z"/>
			</g>
		</g>
	</g>
	<g>
		<rect x="719.6" y="513.6" class="st5" width="1.2" height="45.1"/>
	</g>
	<g>
		<rect x="395.5" y="479.9" class="st0" width="649.6" height="0.8"/>
	</g>
	<g>
		<g>
			
				<image style="overflow:visible;opacity:0.6;enable-background:new    ;" width="392" height="127" xlink:href="115D98BB.png"  transform="matrix(0.9969 0 0 0.9969 261.2297 443.8248)">
			</image>
			<g>
				<g>
					<path class="st0" d="M412.2,449.4h6.4v3.4h-17.8v-39.4h17.8v3.4h-6.4v7.6h5.5v15.4h-5.5V449.4z M404.1,416.8v7.6h4.8v-7.6
						H404.1z M414.5,427.8h-10.3v8.6h10.3V427.8z M404.1,449.4h4.8v-9.6h-4.8V449.4z M423.3,418.9c-1.3,2-2.5,3.8-3.9,5.2
						c-0.5-0.5-1.9-1.8-2.6-2.3c2.8-2.8,5.4-7,6.9-11.4l3.4,0.9c-0.5,1.4-1.2,2.9-1.9,4.3h18.5v3.4L423.3,418.9L423.3,418.9z
						 M419.7,437.5h10.9v17.8h-2.9v-2.2h-5.2v2.8h-2.8L419.7,437.5L419.7,437.5z M422.5,440.7v9.4h5.2v-9.4H422.5z M423.1,434.5
						v-12.1h18.1v12.1H423.1z M426.3,431.5h11.5v-6.1h-11.5V431.5z M444.3,437.5v18h-2.9v-2.3h-5.5v2.9H433v-18.6H444.3z
						 M441.3,450.1v-9.4h-5.5v9.4H441.3z"/>
					<path class="st0" d="M491.4,416.5c-1.6,5.2-4.2,9.6-7.3,13.3c3.1,3,6.9,5.7,11.4,7.3c-0.7,0.7-1.8,2.2-2.3,3.1
						c-0.5-0.2-1-0.4-1.6-0.7V456h-3.5v-1.6h-12.5v1.8h-3.4v-16.7c-1,0.5-2,1-3,1.4c-0.4-0.7-1.1-1.7-1.8-2.5h-5.2v9
						c2.2-0.5,4.3-1,6.6-1.6l0.4,3.4c-6.8,1.6-13.9,3.4-19.2,4.6l-0.7-3.6l2.5-0.5v-17.1h3.1v16.4l3.8-0.9V428h-7v-15.3h16.1v13.3
						c4-3.7,7.2-9.4,9.1-15.4l3.5,0.8c-0.5,1.4-1,2.9-1.6,4.3h9.7l0.7-0.1L491.4,416.5z M454.9,424.6h9.4v-8.8h-9.4V424.6z
						 M468.2,437.5c4-1.7,7.9-4.3,11.3-7.8c-1.9-2.2-3.4-4.6-4.6-6.9c-1.4,2.2-2.9,4.1-4.6,5.8c-0.5-0.5-1.7-1.6-2.6-2.2v1.5H462
						v7.2h6.2V437.5z M489.3,438.1c-2.8-1.6-5.2-3.7-7.4-5.9c-2.3,2.3-4.9,4.3-7.5,5.9H489.3z M488.1,451v-9.6h-12.5v9.6H488.1z
						 M477.3,418.8l-0.5,1c1.3,2.5,2.9,5.1,4.9,7.5c2.1-2.5,3.8-5.4,5.1-8.5H477.3z"/>
					<path class="st0" d="M503.6,422.3c-0.8,1.1-1.6,2.2-2.5,3.1c-0.4-0.7-1.4-2-2-2.5c3.1-3.1,5.8-7.6,7.4-12.3l3,0.8
						c-0.6,1.6-1.3,3.3-2,4.9h5.8c-0.5-1.4-1.4-3.2-2.2-4.6l3-0.8c1,1.7,2.2,3.8,2.6,5.4h4.8v2.6h-6v2.9h4.9v1.1
						c3-3.1,5.7-7.8,7.2-12.3l3.1,0.8c-0.6,1.6-1.3,3.3-2.1,4.9h5.8c-0.5-1.4-1.3-3.1-2.1-4.4l3-0.9c1,1.6,2,3.7,2.6,5.3h5.6v2.5
						h-6.9v2.9h5.8v2.5h-5.8v2.9h5.8v2.5h-5.8v2.9h7.6v2.6H525v-12.7c-0.9,1.3-1.8,2.4-2.8,3.4c-0.4-0.4-1.1-1.4-1.7-2.1v0.5h-4.9
						v2.9h4.9v2.5h-4.9v2.9h6.6v2.6h-18.5L503.6,422.3L503.6,422.3z M539.1,439.4c-2.6,4-6.7,7.3-11.4,9.7c5,1.5,10.7,2.5,16.7,3.1
						c-0.8,0.9-1.8,2.5-2.3,3.6c-7-0.8-13.5-2.2-19.2-4.5c-6.7,2.6-14.3,4.1-21.7,4.9c-0.3-1-1-2.5-1.6-3.4c6.4-0.5,13-1.6,18.9-3.5
						c-4.1-2.1-7.6-4.7-10.3-7.9l0.7-0.4h-6.6v-3.1h33.6l0.7-0.2L539.1,439.4z M512.4,418.7h-5.7v2.9h5.7V418.7z M512.4,424.1h-5.7
						v2.9h5.7V424.1z M512.4,429.5h-5.7v2.9h5.7V429.5z M512.7,441.1c2.6,2.6,6.3,4.7,10.5,6.4c4-1.7,7.3-3.8,9.8-6.4H512.7z
						 M533.5,418.7h-5.4v2.9h5.4V418.7z M533.5,424.2h-5.4v2.9h5.4V424.2z M533.5,429.6h-5.4v2.9h5.4V429.6z"/>
					<path class="st0" d="M594.6,448.9h-20.7v7.4h-3.7v-7.4h-20.2v-3.4h20.2v-4.1h-15.1V422h15.1v-3.7h-18.7V415h18.7v-4.5h3.7v4.5
						h18.9v3.4h-18.9v3.7h15.4v19.4h-15.4v4.1h20.7V448.9z M558.7,430.3h11.5v-5.1h-11.5V430.3z M570.2,438.4v-5.2h-11.5v5.2H570.2z
						 M573.9,425.2v5.1h11.7v-5.1H573.9z M585.7,433.3H574v5.2h11.7V433.3z"/>
					<path class="st0" d="M624,451.6h21v3.1h-45.5v-3.1h20.7v-4.4h-15.4v-3.1h15.4v-3.2h3.7v3.2h16.5v3.1h-16.5L624,451.6L624,451.6
						z M600,438c2.8-0.1,6.3-0.4,10.1-0.7v-3.9h-8.2v-2.8h8.2v-2.9h-8.5v-15.2h20.2v15.2h-8.5v2.9h8.4v2.8h-8.4v3.7l9.6-0.7v2.7
						c-8.2,0.7-16.6,1.4-22.5,2L600,438z M604.6,418.7h5.5V415h-5.5V418.7z M610.2,425v-3.7h-5.5v3.7H610.2z M618.8,415h-5.5v3.7
						h5.5V415z M618.8,421.3h-5.5v3.7h5.5V421.3z M631.6,427.4h-8.5v-3.1h11.3c-2.1-1.7-5.2-3.8-7.9-5.2l2.1-2
						c1.3,0.7,2.8,1.6,4.3,2.5c1.6-1.1,3.3-2.5,4.6-4h-13.4v-2.9h16.3l0.8-0.2l2.2,1.7c-2.2,2.6-5.2,5.2-8,7.2c1,0.7,1.9,1.4,2.6,2
						l-1,1h5l0.5-0.1l2.4,0.5c-1,3-2.3,6.4-3.7,8.5l-2.9-0.7c0.7-1.3,1.6-3.2,2.2-5.1H635v10.3c0,1.8-0.4,2.7-1.7,3.2
						c-1.3,0.5-3.5,0.5-6.7,0.5c-0.2-1-0.7-2.2-1.1-3.1c2.5,0.1,4.6,0.1,5.2,0c0.7,0,0.8-0.2,0.8-0.7L631.6,427.4L631.6,427.4z"/>
				</g>
			</g>
		</g>
		<g>
			
				<image style="overflow:visible;opacity:0.6;enable-background:new    ;" width="246" height="128" xlink:href="115D98B8.png"  transform="matrix(0.9951 0 0 0.9951 632.2289 440.942)">
			</image>
			<g>
				<g>
					<g>
						<path class="st0" d="M733.3,424.9v3.1h20.6v2.6h-20.6v3.2h20.6v2.6h-20.6v3.4h30.2v3.1h-26.2c-2.2,2.3-4.6,4.4-7,6.1l21.6-1
							c-1.1-1.3-2.4-2.4-3.5-3.4l3.1-1.6c3.1,2.8,7.2,6.7,9.1,9.1l-3.2,1.9c-0.7-0.9-1.7-2-2.8-3.2c-25.3,1.3-27.9,1.4-29.4,2
							c-0.2-0.8-0.7-2.5-1.1-3.5c0.9-0.1,1.9-0.7,3-1.6c1-0.7,3.4-2.5,5.5-4.9h-12.5v-3.1h9.7v-15.2c-2.5,1.8-5.4,3.4-8.5,4.9
							c-0.4-0.8-1.6-2.1-2.3-2.7c6.3-2.7,11.2-6.3,14.8-10.2h-13.3v-3.2H736c1.1-1.6,2.2-3.4,2.9-5l3.8,0.7
							c-0.7,1.4-1.5,2.9-2.5,4.3h23v3.2H750c4,3.9,9.7,7.7,14.8,9.7c-0.8,0.7-1.9,2-2.5,2.9c-2.8-1.3-5.8-3.1-8.7-5.4v1h-20.3V424.9
							z M737.9,416.7c-1.4,1.8-3.1,3.5-4.9,5.2h18c-1.9-1.6-3.7-3.4-5.2-5.2H737.9z"/>
						<path class="st0" d="M792.1,436.6c-0.2,1.3-0.4,2.6-0.7,3.8h17.4c0,0-0.1,1-0.1,1.5c-0.7,7-1.4,10-2.7,11.2
							c-0.8,0.8-1.9,1.1-3.3,1.2c-1.3,0.1-3.7,0.1-6.3-0.1c-0.1-1-0.4-2.2-1-3.1c2.5,0.2,4.9,0.2,5.8,0.2c0.9,0,1.4,0,1.9-0.4
							c0.7-0.7,1.3-2.8,1.9-7.5h-14.5c-1.9,5-5.7,8.7-13.3,10.9c-0.4-0.9-1.3-2.2-2-2.9c9.7-2.6,12.3-7.8,13.3-14.9h-10.9
							c-0.6,6.3-2.3,13-6.1,18c-0.5-0.7-2-2.1-2.8-2.5c5.2-7,5.6-16.8,5.6-24.1v-15.6h0.1c11.2-0.7,24.6-1.9,31.9-3.7l2.9,2.8
							c-8.2,1.8-20.3,3-31.2,3.7v2.6h32.5v11h-32.5c0,1.4-0.1,3.1-0.1,4.7h15.9c-0.6-1.2-1.3-2.6-2.2-3.7l3.5-1
							c1,1.3,2.2,3.1,2.8,4.6h16.3v3.1h-22.2V436.6z M778,420.7v5h28.8v-5H778z"/>
					</g>
					<g>
						<path class="st0" d="M704.1,408.2h0.9v31.4h5.5v4.3H705v10.5h-4.5v-10.5H679L704.1,408.2z M700.5,439.6v-18.9l-13.3,18.9
							H700.5z"/>
					</g>
				</g>
			</g>
		</g>
		<g>
			
				<image style="overflow:visible;opacity:0.6;enable-background:new    ;" width="327" height="128" xlink:href="115D98C6.png"  transform="matrix(0.9963 0 0 0.9963 857.2339 442.8669)">
			</image>
			<g>
				<g>
					<g>
						<g>
							<path class="st0" d="M872,411.8c4.6,7,13.3,13.6,21.2,17c-0.7,0.7-2,2.3-2.5,3.2c-7.6-3.5-15.5-10-20.7-16.7
								c-5.1,6.4-13.6,13.3-20.6,17.1c-0.4-1-1.4-2.2-2.3-3c6.2-2.9,13.6-8.5,18.6-14.1h-8.9v-3.5H872z M871.7,451.4h19.5v3.4H849
								v-3.4h18.9v-8.3h-14v-3.3h14v-7.6h-11.8v-3.4H884v3.4h-12.3v7.6H886v3.3h-14.2V451.4z"/>
							<path class="st0" d="M905.2,442.2c-1.2,3.5-3.3,7.5-5.2,10c-0.6-0.4-1.9-1.4-2.6-1.8c1.9-2.3,3.7-5.8,4.7-9L905.2,442.2z
								 M911.4,438.7V456h-3.7v-17.4h-10v-3.2h10v-5.2h-10.2v-3.1h13.9c1-2.3,2.1-5.6,2.7-7.9l3.4,0.7c-0.9,2.4-1.9,5.1-2.8,7.2h6.4
								v3.1h-9.6v5.2h9.1v3.2L911.4,438.7L911.4,438.7z M920.2,418.8h-21.9v-3.1h9.8c-0.7-1.5-1.5-3.2-2.2-4.6l3.6-1
								c1,1.7,2.2,3.8,2.8,5.5h7.9L920.2,418.8L920.2,418.8z M903.4,426.8c-0.2-1.9-1-4.8-1.9-7l2.9-0.7c1,2.2,1.9,4.9,2,6.8
								L903.4,426.8z M916.2,441c1.6,2.5,3.4,5.7,4.2,7.9l-2.6,1.5c-0.8-2.2-2.6-5.6-4.1-8L916.2,441z M942.8,430.7h-5.5V456h-3.6
								v-25.2h-6.9v1.7c0,7.2-0.7,17-5.2,23.5c-0.6-0.7-2-1.9-2.8-2.2c4.2-6,4.6-14.6,4.6-21.2v-17.2c5.6-0.9,12-2.4,15.6-3.9l3,2.8
								c-4.1,1.6-9.9,2.8-15.1,3.6v9.5h16L942.8,430.7L942.8,430.7z"/>
							<path class="st0" d="M987.1,452c1.9,0,2.2-0.9,2.4-6.6c0.8,0.7,2.3,1.2,3.4,1.4c-0.4,6.9-1.5,8.6-5.5,8.6h-7.6
								c-4.6,0-5.7-1.1-5.7-5.1v-12.4h-8.8c-0.7,10.3-3.4,15.8-15.8,18.4c-0.3-1-1.3-2.4-1.9-3.1c11.2-2.2,13.3-6.4,14-15.4h-13.3
								v-3.5h44v3.5h-14.4v12.4c0,1.4,0.4,1.7,2.4,1.7H987.1z M953.1,427.2h-3.7v-10.9h19.3c-0.7-1.6-1.6-3.6-2.5-5.1l3.7-1
								c1.2,1.9,2.5,4.3,3.2,6.1h17.6v10.9h-3.8v-7.4h-33.9V427.2z M956.6,428.6v-3.4h27v3.4H956.6z"/>
							<path class="st0" d="M1042.6,448.6v3.7h-44.6v-3.7h20.1v-28.8h-17.5v-3.8h39.5v3.8h-18v28.8H1042.6z"/>
						</g>
					</g>
				</g>
			</g>
		</g>
		<g>
			<rect x="830.6" y="412.4" class="st5" width="1.3" height="45.8"/>
		</g>
		<g>
			<rect x="661.5" y="412.4" class="st5" width="1.3" height="45.8"/>
		</g>
	</g>
</g>
</svg>
