<svg width="1000" height="640" viewBox="0 0 1000 640" fill="none" xmlns="http://www.w3.org/2000/svg">
<path d="M11.155 289.615H23.86V292.12H22.51V290.74H12.445V292.12H11.155V289.615ZM16.99 291.7H18.175C18.1 292.66 17.995 293.83 17.875 294.565H16.66C16.81 293.8 16.93 292.63 16.99 291.7ZM14.065 297.49V298.09H20.95V297.49H14.065ZM14.065 298.825V299.44H20.95V298.825H14.065ZM14.065 296.185V296.755H20.95V296.185H14.065ZM12.7 295.405H22.39V300.205H12.7V295.405ZM18.31 300.865L19.045 300.04C20.785 300.475 22.675 301.03 23.86 301.45L22.9 302.335C21.82 301.915 20.05 301.345 18.31 300.865ZM14.545 292.12L14.29 294.085H20.38L20.545 292.12H14.545ZM13.375 291.355H21.94L21.61 294.865H12.925L13.375 291.355ZM15.595 300.055L16.72 300.82C15.46 301.495 13.405 302.065 11.71 302.335C11.53 302.065 11.185 301.615 10.945 301.36C12.58 301.12 14.65 300.565 15.595 300.055ZM10.69 292.555H14.005V292.69H20.89V292.555H24.355V293.605H20.89V293.47H14.005V293.605H10.69V292.555ZM16.27 288.595L17.5 288.22C17.875 288.73 18.265 289.45 18.43 289.93L17.11 290.335C16.99 289.855 16.615 289.12 16.27 288.595ZM28.825 291.445V292.27H36.085V291.445H28.825ZM28.825 289.765V290.575H36.085V289.765H28.825ZM27.46 288.85H37.51V293.2H27.46V288.85ZM25.825 293.995H39.1V295.135H25.825V293.995ZM29.17 296.83V298H35.83V296.83H29.17ZM27.805 295.825H37.255V299.005H27.805V295.825ZM31.795 298.465H33.22V300.985C33.22 301.645 33.07 301.93 32.56 302.095C32.05 302.26 31.315 302.26 30.265 302.26C30.19 301.915 30.01 301.465 29.845 301.15C30.565 301.18 31.315 301.18 31.525 301.165C31.735 301.15 31.795 301.105 31.795 300.94V298.465ZM34.225 300.13L35.14 299.35C36.445 299.8 38.185 300.58 39.115 301.18L38.14 302.08C37.285 301.495 35.56 300.655 34.225 300.13ZM29.215 299.29L30.505 299.815C29.5 300.67 27.895 301.525 26.605 302.05C26.365 301.765 25.87 301.27 25.555 301.045C26.875 300.625 28.345 299.98 29.215 299.29ZM31.39 293.44L32.635 293.035C32.965 293.44 33.295 293.98 33.445 294.37L32.125 294.835C32.02 294.46 31.705 293.86 31.39 293.44ZM40.42 296.14C41.755 295.855 43.69 295.33 45.535 294.835L45.715 296.185C44.005 296.695 42.19 297.205 40.765 297.595L40.42 296.14ZM40.63 291.295H45.565V292.675H40.63V291.295ZM42.475 288.34H43.93V300.655C43.93 301.39 43.78 301.765 43.33 301.99C42.895 302.23 42.25 302.26 41.23 302.245C41.185 301.885 40.99 301.3 40.825 300.91C41.44 300.925 42.025 300.925 42.205 300.925C42.4 300.91 42.475 300.85 42.475 300.64V288.34ZM46.255 291.025H53.74V302.11H52.27V292.375H47.68V302.215H46.255V291.025ZM47.125 295.51H52.855V296.845H47.125V295.51ZM47.125 300.07H52.855V301.42H47.125V300.07ZM49.36 288.37L51.025 288.565C50.68 289.72 50.26 290.995 49.9 291.82L48.595 291.58C48.895 290.695 49.225 289.345 49.36 288.37ZM55.495 296.185C56.455 295.705 57.94 294.895 59.335 294.07L59.71 295.315C58.45 296.08 57.07 296.89 55.93 297.52L55.495 296.185ZM55.66 291.295H59.71V292.6H55.66V291.295ZM57.22 288.34H58.525V300.58C58.525 301.285 58.39 301.645 58 301.885C57.595 302.095 56.995 302.155 56.095 302.14C56.065 301.795 55.9 301.195 55.72 300.82C56.29 300.835 56.8 300.835 56.965 300.835C57.145 300.835 57.22 300.775 57.22 300.58V288.34ZM60.385 288.835H69.01V289.825H60.385V288.835ZM59.845 295.195H64.42V296.185H59.845V295.195ZM61.75 289.21H63.07V293.875L61.75 293.92V289.21ZM60.415 295.6H61.495V300.385L60.415 300.475V295.6ZM59.59 299.965C60.67 299.905 62.17 299.815 63.715 299.695V300.595C62.29 300.745 60.88 300.88 59.74 301L59.59 299.965ZM66.07 289.225H67.405V294.895H66.07V289.225ZM62.545 290.44H66.595V291.19H62.545V290.44ZM60.91 296.845H63.34V297.625H60.91V296.845ZM60.91 298.33H63.385V299.125H60.91V298.33ZM64.66 295.195H69.4V296.185H64.66V295.195ZM65.215 295.6H66.295V300.355L65.215 300.475V295.6ZM62.545 291.85H66.535V292.6H62.545V291.85ZM62.875 295.6H63.955V302.26H62.875V295.6ZM65.815 296.83H68.14V297.61H65.815V296.83ZM65.815 298.285H68.17V299.08H65.815V298.285ZM67.69 295.6H68.785V302.26H67.69V295.6ZM59.98 293.26H69.37V294.295H59.98V293.26ZM64.495 299.785H69.46V300.775H64.495V299.785ZM75.625 291.475V292.285H79.27V291.475H75.625ZM74.485 290.695H80.485V293.065H74.485V290.695ZM75.085 295.855V299.005H79.81V295.855H75.085ZM73.975 295.03H80.98V299.83H73.975V295.03ZM76.705 297.07V297.79H78.16V297.07H76.705ZM75.895 296.41H79.03V298.45H75.895V296.41ZM73.105 293.65H81.91V294.475H73.105V293.65ZM76.825 292.555H78.04V294.025H76.825V292.555ZM71.155 288.91H83.875V302.26H82.495V290.095H72.49V302.26H71.155V288.91ZM71.995 300.505H83.2V301.69H71.995V300.505Z" fill="white"/>
<path d="M11.155 614.615H23.86V617.12H22.51V615.74H12.445V617.12H11.155V614.615ZM16.99 616.7H18.175C18.1 617.66 17.995 618.83 17.875 619.565H16.66C16.81 618.8 16.93 617.63 16.99 616.7ZM14.065 622.49V623.09H20.95V622.49H14.065ZM14.065 623.825V624.44H20.95V623.825H14.065ZM14.065 621.185V621.755H20.95V621.185H14.065ZM12.7 620.405H22.39V625.205H12.7V620.405ZM18.31 625.865L19.045 625.04C20.785 625.475 22.675 626.03 23.86 626.45L22.9 627.335C21.82 626.915 20.05 626.345 18.31 625.865ZM14.545 617.12L14.29 619.085H20.38L20.545 617.12H14.545ZM13.375 616.355H21.94L21.61 619.865H12.925L13.375 616.355ZM15.595 625.055L16.72 625.82C15.46 626.495 13.405 627.065 11.71 627.335C11.53 627.065 11.185 626.615 10.945 626.36C12.58 626.12 14.65 625.565 15.595 625.055ZM10.69 617.555H14.005V617.69H20.89V617.555H24.355V618.605H20.89V618.47H14.005V618.605H10.69V617.555ZM16.27 613.595L17.5 613.22C17.875 613.73 18.265 614.45 18.43 614.93L17.11 615.335C16.99 614.855 16.615 614.12 16.27 613.595ZM28.825 616.445V617.27H36.085V616.445H28.825ZM28.825 614.765V615.575H36.085V614.765H28.825ZM27.46 613.85H37.51V618.2H27.46V613.85ZM25.825 618.995H39.1V620.135H25.825V618.995ZM29.17 621.83V623H35.83V621.83H29.17ZM27.805 620.825H37.255V624.005H27.805V620.825ZM31.795 623.465H33.22V625.985C33.22 626.645 33.07 626.93 32.56 627.095C32.05 627.26 31.315 627.26 30.265 627.26C30.19 626.915 30.01 626.465 29.845 626.15C30.565 626.18 31.315 626.18 31.525 626.165C31.735 626.15 31.795 626.105 31.795 625.94V623.465ZM34.225 625.13L35.14 624.35C36.445 624.8 38.185 625.58 39.115 626.18L38.14 627.08C37.285 626.495 35.56 625.655 34.225 625.13ZM29.215 624.29L30.505 624.815C29.5 625.67 27.895 626.525 26.605 627.05C26.365 626.765 25.87 626.27 25.555 626.045C26.875 625.625 28.345 624.98 29.215 624.29ZM31.39 618.44L32.635 618.035C32.965 618.44 33.295 618.98 33.445 619.37L32.125 619.835C32.02 619.46 31.705 618.86 31.39 618.44ZM40.42 621.14C41.755 620.855 43.69 620.33 45.535 619.835L45.715 621.185C44.005 621.695 42.19 622.205 40.765 622.595L40.42 621.14ZM40.63 616.295H45.565V617.675H40.63V616.295ZM42.475 613.34H43.93V625.655C43.93 626.39 43.78 626.765 43.33 626.99C42.895 627.23 42.25 627.26 41.23 627.245C41.185 626.885 40.99 626.3 40.825 625.91C41.44 625.925 42.025 625.925 42.205 625.925C42.4 625.91 42.475 625.85 42.475 625.64V613.34ZM46.255 616.025H53.74V627.11H52.27V617.375H47.68V627.215H46.255V616.025ZM47.125 620.51H52.855V621.845H47.125V620.51ZM47.125 625.07H52.855V626.42H47.125V625.07ZM49.36 613.37L51.025 613.565C50.68 614.72 50.26 615.995 49.9 616.82L48.595 616.58C48.895 615.695 49.225 614.345 49.36 613.37ZM55.495 621.185C56.455 620.705 57.94 619.895 59.335 619.07L59.71 620.315C58.45 621.08 57.07 621.89 55.93 622.52L55.495 621.185ZM55.66 616.295H59.71V617.6H55.66V616.295ZM57.22 613.34H58.525V625.58C58.525 626.285 58.39 626.645 58 626.885C57.595 627.095 56.995 627.155 56.095 627.14C56.065 626.795 55.9 626.195 55.72 625.82C56.29 625.835 56.8 625.835 56.965 625.835C57.145 625.835 57.22 625.775 57.22 625.58V613.34ZM60.385 613.835H69.01V614.825H60.385V613.835ZM59.845 620.195H64.42V621.185H59.845V620.195ZM61.75 614.21H63.07V618.875L61.75 618.92V614.21ZM60.415 620.6H61.495V625.385L60.415 625.475V620.6ZM59.59 624.965C60.67 624.905 62.17 624.815 63.715 624.695V625.595C62.29 625.745 60.88 625.88 59.74 626L59.59 624.965ZM66.07 614.225H67.405V619.895H66.07V614.225ZM62.545 615.44H66.595V616.19H62.545V615.44ZM60.91 621.845H63.34V622.625H60.91V621.845ZM60.91 623.33H63.385V624.125H60.91V623.33ZM64.66 620.195H69.4V621.185H64.66V620.195ZM65.215 620.6H66.295V625.355L65.215 625.475V620.6ZM62.545 616.85H66.535V617.6H62.545V616.85ZM62.875 620.6H63.955V627.26H62.875V620.6ZM65.815 621.83H68.14V622.61H65.815V621.83ZM65.815 623.285H68.17V624.08H65.815V623.285ZM67.69 620.6H68.785V627.26H67.69V620.6ZM59.98 618.26H69.37V619.295H59.98V618.26ZM64.495 624.785H69.46V625.775H64.495V624.785ZM75.625 616.475V617.285H79.27V616.475H75.625ZM74.485 615.695H80.485V618.065H74.485V615.695ZM75.085 620.855V624.005H79.81V620.855H75.085ZM73.975 620.03H80.98V624.83H73.975V620.03ZM76.705 622.07V622.79H78.16V622.07H76.705ZM75.895 621.41H79.03V623.45H75.895V621.41ZM73.105 618.65H81.91V619.475H73.105V618.65ZM76.825 617.555H78.04V619.025H76.825V617.555ZM71.155 613.91H83.875V627.26H82.495V615.095H72.49V627.26H71.155V613.91ZM71.995 625.505H83.2V626.69H71.995V625.505Z" fill="white"/>
<path d="M521.915 621.965H527.525V623H521.915V621.965ZM520.55 614.45H528.92V615.5H520.55V614.45ZM521.015 616.31H528.485V617.3H521.015V616.31ZM520.175 618.155H529.385V619.205H520.175V618.155ZM521.915 623.93H527.555V624.965H521.915V623.93ZM527.165 619.955H528.5V625.835C528.5 626.495 528.38 626.855 527.9 627.05C527.435 627.245 526.73 627.26 525.68 627.26C525.62 626.915 525.44 626.39 525.275 626.045C525.98 626.075 526.7 626.075 526.895 626.06C527.09 626.06 527.165 626 527.165 625.82V619.955ZM524.015 613.34H525.425V618.5H524.015V613.34ZM517.67 613.325H518.99V627.23H517.67V613.325ZM516.125 616.265L517.235 616.43C517.145 617.66 516.875 619.415 516.515 620.57L515.375 620.165C515.735 619.145 516.02 617.48 516.125 616.265ZM518.87 615.845L519.815 615.425C520.19 616.16 520.625 617.135 520.805 617.705L519.815 618.215C519.65 617.615 519.23 616.595 518.87 615.845ZM521.09 619.955H522.425V622.73C522.425 624.17 522.215 626.135 521.18 627.425C520.985 627.155 520.445 626.645 520.16 626.465C521 625.37 521.09 623.87 521.09 622.7V619.955ZM521.855 619.955H527.9V620.975H521.855V619.955ZM535.94 614.36H543.575V615.53H535.94V614.36ZM535.49 617.105H543.965V618.29H535.49V617.105ZM537.08 615.86L538.235 615.605C538.445 616.055 538.67 616.64 538.76 617.03L537.545 617.345C537.47 616.94 537.275 616.325 537.08 615.86ZM541.145 615.635L542.45 615.905C542.15 616.505 541.85 617.135 541.595 617.57L540.5 617.315C540.725 616.835 541.01 616.115 541.145 615.635ZM537.47 621.59V622.43H541.82V621.59H537.47ZM537.47 619.88V620.705H541.82V619.88H537.47ZM536.165 618.95H543.185V623.36H536.165V618.95ZM537.62 623.03H538.955C538.745 625.34 538.055 626.615 535.115 627.32C535.01 626.99 534.665 626.465 534.38 626.225C536.96 625.715 537.455 624.8 537.62 623.03ZM540.155 623.045H541.49V625.49C541.49 625.715 541.505 625.835 541.58 625.895C541.655 625.94 541.775 625.955 541.925 625.955C542.06 625.955 542.345 625.955 542.525 625.955C542.69 625.955 542.855 625.955 542.945 625.91C543.05 625.88 543.125 625.79 543.17 625.595C543.215 625.4 543.23 624.965 543.245 624.395C543.485 624.62 543.995 624.86 544.355 624.965C544.325 625.565 544.25 626.18 544.145 626.42C544.025 626.675 543.83 626.84 543.56 626.945C543.335 627.02 542.915 627.065 542.63 627.065C542.39 627.065 541.85 627.065 541.64 627.065C541.265 627.065 540.8 626.975 540.545 626.765C540.275 626.555 540.155 626.27 540.155 625.415V623.045ZM538.745 613.49L540.065 613.235C540.29 613.7 540.53 614.315 540.65 614.705L539.27 615.035C539.165 614.615 538.94 613.97 538.745 613.49ZM530.675 616.97H535.01V618.32H530.675V616.97ZM532.25 613.535H533.63V623.585H532.25V613.535ZM530.42 623.93C531.605 623.57 533.405 622.91 535.115 622.28L535.4 623.57C533.855 624.2 532.19 624.86 530.885 625.37L530.42 623.93ZM548.225 620.825L549.725 621.215C549.02 623.045 547.865 624.845 546.755 626C546.455 625.745 545.795 625.31 545.435 625.115C546.575 624.095 547.625 622.46 548.225 620.825ZM555.41 621.32L556.745 620.735C557.81 622.13 558.965 623.99 559.4 625.28L557.93 625.925C557.555 624.695 556.46 622.745 555.41 621.32ZM547.235 614.36H557.825V615.77H547.235V614.36ZM545.87 617.99H559.175V619.415H545.87V617.99ZM551.675 618.455H553.175V627.215H551.675V618.455ZM564.38 623.765H565.76V625.535C565.76 625.91 565.895 625.97 566.63 625.97C566.96 625.97 568.58 625.97 569.03 625.97C569.63 625.97 569.72 625.79 569.795 624.575C570.095 624.77 570.65 624.95 571.01 625.025C570.86 626.72 570.455 627.125 569.165 627.125C568.79 627.125 566.84 627.125 566.495 627.125C564.8 627.125 564.38 626.78 564.38 625.55V623.765ZM566.015 623.57L566.84 622.79C567.665 623.165 568.715 623.81 569.255 624.29L568.37 625.16C567.89 624.695 566.855 624.005 566.015 623.57ZM571.025 623.96L572.15 623.45C572.9 624.245 573.725 625.325 574.07 626.09L572.855 626.66C572.555 625.91 571.76 624.785 571.025 623.96ZM562.595 623.6L563.78 624.125C563.33 625.055 562.715 626.165 561.935 626.885L560.765 626.195C561.53 625.535 562.205 624.485 562.595 623.6ZM561.74 614.33H573.215V615.455H561.74V614.33ZM561.05 616.76H574.01V617.885H561.05V616.76ZM563.945 615.68L565.25 615.395C565.505 615.845 565.76 616.445 565.85 616.85L564.485 617.18C564.425 616.775 564.185 616.145 563.945 615.68ZM569.735 615.365L571.19 615.665C570.86 616.295 570.545 616.85 570.275 617.285L569.03 616.985C569.27 616.52 569.585 615.845 569.735 615.365ZM564.125 621.23V622.1H570.905V621.23H564.125ZM564.125 619.49V620.345H570.905V619.49H564.125ZM562.775 618.56H572.315V623.03H562.775V618.56ZM566.51 613.475L567.89 613.19C568.19 613.685 568.505 614.36 568.625 614.81L567.17 615.14C567.065 614.69 566.78 613.985 566.51 613.475ZM580.625 616.475V617.285H584.27V616.475H580.625ZM579.485 615.695H585.485V618.065H579.485V615.695ZM580.085 620.855V624.005H584.81V620.855H580.085ZM578.975 620.03H585.98V624.83H578.975V620.03ZM581.705 622.07V622.79H583.16V622.07H581.705ZM580.895 621.41H584.03V623.45H580.895V621.41ZM578.105 618.65H586.91V619.475H578.105V618.65ZM581.825 617.555H583.04V619.025H581.825V617.555ZM576.155 613.91H588.875V627.26H587.495V615.095H577.49V627.26H576.155V613.91ZM576.995 625.505H588.2V626.69H576.995V625.505Z" fill="white"/>
</svg>
