<svg width="1000" height="640" viewBox="0 0 1000 640" fill="#FFF" xmlns="http://www.w3.org/2000/svg">
<path d="M11.2,289.6h12.7v2.5h-1.4v-1.4H12.4v1.4h-1.3V289.6z M17,291.7h1.2c-0.1,1-0.2,2.1-0.3,2.9h-1.2
	C16.8,293.8,16.9,292.6,17,291.7z M14.1,297.5v0.6H21v-0.6H14.1z M14.1,298.8v0.6H21v-0.6H14.1z M14.1,296.2v0.6H21v-0.6H14.1z
	 M12.7,295.4h9.7v4.8h-9.7V295.4z M18.3,300.9L19,300c1.7,0.4,3.6,1,4.8,1.4l-1,0.9C21.8,301.9,20,301.3,18.3,300.9z M14.5,292.1
	l-0.3,2h6.1l0.2-2H14.5z M13.4,291.4h8.6l-0.3,3.5h-8.7L13.4,291.4z M15.6,300.1l1.1,0.8c-1.3,0.7-3.3,1.2-5,1.5
	c-0.2-0.3-0.5-0.7-0.8-1C12.6,301.1,14.6,300.6,15.6,300.1z M10.7,292.6H14v0.1h6.9v-0.1h3.5v1.1h-3.5v-0.1H14v0.1h-3.3V292.6z
	 M16.3,288.6l1.2-0.4c0.4,0.5,0.8,1.2,0.9,1.7l-1.3,0.4C17,289.9,16.6,289.1,16.3,288.6z M28.8,291.4v0.8h7.3v-0.8H28.8z
	 M28.8,289.8v0.8h7.3v-0.8H28.8z M27.5,288.9h10v4.4h-10V288.9z M25.8,294h13.3v1.1H25.8V294z M29.2,296.8v1.2h6.7v-1.2H29.2z
	 M27.8,295.8h9.5v3.2h-9.5V295.8z M31.8,298.5h1.4v2.5c0,0.7-0.2,0.9-0.7,1.1c-0.5,0.2-1.2,0.2-2.3,0.2c-0.1-0.3-0.3-0.8-0.4-1.1
	c0.7,0,1.5,0,1.7,0c0.2,0,0.3-0.1,0.3-0.2V298.5z M34.2,300.1l0.9-0.8c1.3,0.4,3,1.2,4,1.8l-1,0.9C37.3,301.5,35.6,300.7,34.2,300.1
	z M29.2,299.3l1.3,0.5c-1,0.9-2.6,1.7-3.9,2.2c-0.2-0.3-0.7-0.8-1-1C26.9,300.6,28.3,300,29.2,299.3z M31.4,293.4l1.2-0.4
	c0.3,0.4,0.7,0.9,0.8,1.3l-1.3,0.5C32,294.5,31.7,293.9,31.4,293.4z M40.4,296.1c1.3-0.3,3.3-0.8,5.1-1.3l0.2,1.4
	c-1.7,0.5-3.5,1-5,1.4L40.4,296.1z M40.6,291.3h4.9v1.4h-4.9V291.3z M42.5,288.3h1.5v12.3c0,0.7-0.2,1.1-0.6,1.3
	c-0.4,0.2-1.1,0.3-2.1,0.3c0-0.4-0.2-0.9-0.4-1.3c0.6,0,1.2,0,1.4,0c0.2,0,0.3-0.1,0.3-0.3V288.3z M46.3,291h7.5v11.1h-1.5v-9.7
	h-4.6v9.8h-1.4V291z M47.1,295.5h5.7v1.3h-5.7V295.5z M47.1,300.1h5.7v1.4h-5.7V300.1z M49.4,288.4l1.7,0.2
	c-0.3,1.2-0.8,2.4-1.1,3.3l-1.3-0.2C48.9,290.7,49.2,289.3,49.4,288.4z M55.5,296.2c1-0.5,2.4-1.3,3.8-2.1l0.4,1.2
	c-1.3,0.8-2.6,1.6-3.8,2.2L55.5,296.2z M55.7,291.3h4v1.3h-4V291.3z M57.2,288.3h1.3v12.2c0,0.7-0.1,1.1-0.5,1.3
	c-0.4,0.2-1,0.3-1.9,0.3c0-0.3-0.2-0.9-0.4-1.3c0.6,0,1.1,0,1.2,0c0.2,0,0.3-0.1,0.3-0.3V288.3z M60.4,288.8H69v1h-8.6V288.8z
	 M59.8,295.2h4.6v1h-4.6V295.2z M61.8,289.2h1.3v4.7l-1.3,0V289.2z M60.4,295.6h1.1v4.8l-1.1,0.1V295.6z M59.6,300
	c1.1-0.1,2.6-0.1,4.1-0.3v0.9c-1.4,0.1-2.8,0.3-4,0.4L59.6,300z M66.1,289.2h1.3v5.7h-1.3V289.2z M62.5,290.4h4.1v0.8h-4.1V290.4z
	 M60.9,296.8h2.4v0.8h-2.4V296.8z M60.9,298.3h2.5v0.8h-2.5V298.3z M64.7,295.2h4.7v1h-4.7V295.2z M65.2,295.6h1.1v4.8l-1.1,0.1
	V295.6z M62.5,291.9h4v0.8h-4V291.9z M62.9,295.6H64v6.7h-1.1V295.6z M65.8,296.8h2.3v0.8h-2.3V296.8z M65.8,298.3h2.4v0.8h-2.4
	V298.3z M67.7,295.6h1.1v6.7h-1.1V295.6z M60,293.3h9.4v1H60V293.3z M64.5,299.8h5v1h-5V299.8z M75.6,291.5v0.8h3.6v-0.8H75.6z
	 M74.5,290.7h6v2.4h-6V290.7z M75.1,295.9v3.1h4.7v-3.1H75.1z M74,295h7v4.8h-7V295z M76.7,297.1v0.7h1.5v-0.7H76.7z M75.9,296.4H79
	v2h-3.1V296.4z M73.1,293.6h8.8v0.8h-8.8V293.6z M76.8,292.6H78v1.5h-1.2V292.6z M71.2,288.9h12.7v13.4h-1.4v-12.2h-10v12.2h-1.3
	V288.9z M72,300.5h11.2v1.2H72V300.5z M11.2,614.6h12.7v2.5h-1.4v-1.4H12.4v1.4h-1.3V614.6z M17,616.7h1.2c-0.1,1-0.2,2.1-0.3,2.9
	h-1.2C16.8,618.8,16.9,617.6,17,616.7z M14.1,622.5v0.6H21v-0.6H14.1z M14.1,623.8v0.6H21v-0.6H14.1z M14.1,621.2v0.6H21v-0.6H14.1z
	 M12.7,620.4h9.7v4.8h-9.7V620.4z M18.3,625.9L19,625c1.7,0.4,3.6,1,4.8,1.4l-1,0.9C21.8,626.9,20,626.3,18.3,625.9z M14.5,617.1
	l-0.3,2h6.1l0.2-2H14.5z M13.4,616.4h8.6l-0.3,3.5h-8.7L13.4,616.4z M15.6,625.1l1.1,0.8c-1.3,0.7-3.3,1.2-5,1.5
	c-0.2-0.3-0.5-0.7-0.8-1C12.6,626.1,14.6,625.6,15.6,625.1z M10.7,617.6H14v0.1h6.9v-0.1h3.5v1h-3.5v-0.1H14v0.1h-3.3V617.6z
	 M16.3,613.6l1.2-0.4c0.4,0.5,0.8,1.2,0.9,1.7l-1.3,0.4C17,614.9,16.6,614.1,16.3,613.6z M28.8,616.4v0.8h7.3v-0.8H28.8z
	 M28.8,614.8v0.8h7.3v-0.8H28.8z M27.5,613.8h10v4.4h-10V613.8z M25.8,619h13.3v1.1H25.8V619z M29.2,621.8v1.2h6.7v-1.2H29.2z
	 M27.8,620.8h9.5v3.2h-9.5V620.8z M31.8,623.5h1.4v2.5c0,0.7-0.2,0.9-0.7,1.1c-0.5,0.2-1.2,0.2-2.3,0.2c-0.1-0.3-0.3-0.8-0.4-1.1
	c0.7,0,1.5,0,1.7,0c0.2,0,0.3-0.1,0.3-0.2V623.5z M34.2,625.1l0.9-0.8c1.3,0.5,3,1.2,4,1.8l-1,0.9C37.3,626.5,35.6,625.7,34.2,625.1
	z M29.2,624.3l1.3,0.5c-1,0.9-2.6,1.7-3.9,2.2c-0.2-0.3-0.7-0.8-1-1C26.9,625.6,28.3,625,29.2,624.3z M31.4,618.4l1.2-0.4
	c0.3,0.4,0.7,0.9,0.8,1.3l-1.3,0.5C32,619.5,31.7,618.9,31.4,618.4z M40.4,621.1c1.3-0.3,3.3-0.8,5.1-1.3l0.2,1.3
	c-1.7,0.5-3.5,1-5,1.4L40.4,621.1z M40.6,616.3h4.9v1.4h-4.9V616.3z M42.5,613.3h1.5v12.3c0,0.7-0.2,1.1-0.6,1.3
	c-0.4,0.2-1.1,0.3-2.1,0.3c0-0.4-0.2-0.9-0.4-1.3c0.6,0,1.2,0,1.4,0c0.2,0,0.3-0.1,0.3-0.3V613.3z M46.3,616h7.5v11.1h-1.5v-9.7
	h-4.6v9.8h-1.4V616z M47.1,620.5h5.7v1.3h-5.7V620.5z M47.1,625.1h5.7v1.3h-5.7V625.1z M49.4,613.4l1.7,0.2
	c-0.3,1.2-0.8,2.4-1.1,3.3l-1.3-0.2C48.9,615.7,49.2,614.3,49.4,613.4z M55.5,621.2c1-0.5,2.4-1.3,3.8-2.1l0.4,1.2
	c-1.3,0.8-2.6,1.6-3.8,2.2L55.5,621.2z M55.7,616.3h4v1.3h-4V616.3z M57.2,613.3h1.3v12.2c0,0.7-0.1,1.1-0.5,1.3
	c-0.4,0.2-1,0.3-1.9,0.3c0-0.3-0.2-0.9-0.4-1.3c0.6,0,1.1,0,1.2,0c0.2,0,0.3-0.1,0.3-0.3V613.3z M60.4,613.8H69v1h-8.6V613.8z
	 M59.8,620.2h4.6v1h-4.6V620.2z M61.8,614.2h1.3v4.7l-1.3,0V614.2z M60.4,620.6h1.1v4.8l-1.1,0.1V620.6z M59.6,625
	c1.1-0.1,2.6-0.2,4.1-0.3v0.9c-1.4,0.2-2.8,0.3-4,0.4L59.6,625z M66.1,614.2h1.3v5.7h-1.3V614.2z M62.5,615.4h4.1v0.8h-4.1V615.4z
	 M60.9,621.8h2.4v0.8h-2.4V621.8z M60.9,623.3h2.5v0.8h-2.5V623.3z M64.7,620.2h4.7v1h-4.7V620.2z M65.2,620.6h1.1v4.8l-1.1,0.1
	V620.6z M62.5,616.8h4v0.8h-4V616.8z M62.9,620.6H64v6.7h-1.1V620.6z M65.8,621.8h2.3v0.8h-2.3V621.8z M65.8,623.3h2.4v0.8h-2.4
	V623.3z M67.7,620.6h1.1v6.7h-1.1V620.6z M60,618.3h9.4v1H60V618.3z M64.5,624.8h5v1h-5V624.8z M75.6,616.5v0.8h3.6v-0.8H75.6z
	 M74.5,615.7h6v2.4h-6V615.7z M75.1,620.9v3.2h4.7v-3.2H75.1z M74,620h7v4.8h-7V620z M76.7,622.1v0.7h1.5v-0.7H76.7z M75.9,621.4H79
	v2h-3.1V621.4z M73.1,618.7h8.8v0.8h-8.8V618.7z M76.8,617.6H78v1.5h-1.2V617.6z M71.2,613.9h12.7v13.4h-1.4v-12.2h-10v12.2h-1.3
	V613.9z M72,625.5h11.2v1.2H72V625.5z M521.9,622h5.6v1h-5.6V622z M520.5,614.5h8.4v1h-8.4V614.5z M521,616.3h7.5v1H521V616.3z
	 M520.2,618.2h9.2v1h-9.2V618.2z M521.9,623.9h5.6v1h-5.6V623.9z M527.2,620h1.3v5.9c0,0.7-0.1,1-0.6,1.2c-0.5,0.2-1.2,0.2-2.2,0.2
	c-0.1-0.3-0.2-0.9-0.4-1.2c0.7,0,1.4,0,1.6,0c0.2,0,0.3-0.1,0.3-0.2V620z M524,613.3h1.4v5.2H524V613.3z M517.7,613.3h1.3v13.9h-1.3
	V613.3z M516.1,616.3l1.1,0.2c-0.1,1.2-0.4,3-0.7,4.1l-1.1-0.4C515.7,619.1,516,617.5,516.1,616.3z M518.9,615.8l0.9-0.4
	c0.4,0.7,0.8,1.7,1,2.3l-1,0.5C519.7,617.6,519.2,616.6,518.9,615.8z M521.1,620h1.3v2.8c0,1.4-0.2,3.4-1.2,4.7
	c-0.2-0.3-0.7-0.8-1-1c0.8-1.1,0.9-2.6,0.9-3.8V620z M521.9,620h6v1h-6V620z M535.9,614.4h7.6v1.2h-7.6V614.4z M535.5,617.1h8.5v1.2
	h-8.5V617.1z M537.1,615.9l1.2-0.3c0.2,0.5,0.4,1,0.5,1.4l-1.2,0.3C537.5,616.9,537.3,616.3,537.1,615.9z M541.1,615.6l1.3,0.3
	c-0.3,0.6-0.6,1.2-0.9,1.7l-1.1-0.3C540.7,616.8,541,616.1,541.1,615.6z M537.5,621.6v0.8h4.4v-0.8H537.5z M537.5,619.9v0.8h4.4
	v-0.8H537.5z M536.2,619h7v4.4h-7V619z M537.6,623h1.3c-0.2,2.3-0.9,3.6-3.8,4.3c-0.1-0.3-0.5-0.9-0.7-1.1
	C537,625.7,537.5,624.8,537.6,623z M540.2,623h1.3v2.4c0,0.2,0,0.3,0.1,0.4c0.1,0,0.2,0.1,0.3,0.1c0.1,0,0.4,0,0.6,0
	c0.2,0,0.3,0,0.4,0c0.1,0,0.2-0.1,0.2-0.3c0-0.2,0.1-0.6,0.1-1.2c0.2,0.2,0.8,0.5,1.1,0.6c0,0.6-0.1,1.2-0.2,1.5
	c-0.1,0.3-0.3,0.4-0.6,0.5c-0.2,0.1-0.6,0.1-0.9,0.1c-0.2,0-0.8,0-1,0c-0.4,0-0.8-0.1-1.1-0.3c-0.3-0.2-0.4-0.5-0.4-1.4V623z
	 M538.7,613.5l1.3-0.3c0.2,0.5,0.5,1.1,0.6,1.5l-1.4,0.3C539.2,614.6,538.9,614,538.7,613.5z M530.7,617h4.3v1.4h-4.3V617z
	 M532.2,613.5h1.4v10.1h-1.4V613.5z M530.4,623.9c1.2-0.4,3-1,4.7-1.6l0.3,1.3c-1.5,0.6-3.2,1.3-4.5,1.8L530.4,623.9z M548.2,620.8
	l1.5,0.4c-0.7,1.8-1.9,3.6-3,4.8c-0.3-0.3-1-0.7-1.3-0.9C546.6,624.1,547.6,622.5,548.2,620.8z M555.4,621.3l1.3-0.6
	c1.1,1.4,2.2,3.3,2.7,4.5l-1.5,0.6C557.6,624.7,556.5,622.7,555.4,621.3z M547.2,614.4h10.6v1.4h-10.6V614.4z M545.9,618h13.3v1.4
	h-13.3V618z M551.7,618.5h1.5v8.8h-1.5V618.5z M564.4,623.8h1.4v1.8c0,0.4,0.1,0.4,0.9,0.4c0.3,0,2,0,2.4,0c0.6,0,0.7-0.2,0.8-1.4
	c0.3,0.2,0.9,0.4,1.2,0.5c-0.2,1.7-0.6,2.1-1.8,2.1c-0.4,0-2.3,0-2.7,0c-1.7,0-2.1-0.3-2.1-1.6V623.8z M566,623.6l0.8-0.8
	c0.8,0.4,1.9,1,2.4,1.5l-0.9,0.9C567.9,624.7,566.9,624,566,623.6z M571,624l1.1-0.5c0.8,0.8,1.6,1.9,1.9,2.6l-1.2,0.6
	C572.6,625.9,571.8,624.8,571,624z M562.6,623.6l1.2,0.5c-0.5,0.9-1.1,2-1.8,2.8l-1.2-0.7C561.5,625.5,562.2,624.5,562.6,623.6z
	 M561.7,614.3h11.5v1.1h-11.5V614.3z M561,616.8h13v1.1h-13V616.8z M563.9,615.7l1.3-0.3c0.3,0.4,0.5,1,0.6,1.5l-1.4,0.3
	C564.4,616.8,564.2,616.1,563.9,615.7z M569.7,615.4l1.5,0.3c-0.3,0.6-0.6,1.2-0.9,1.6L569,617C569.3,616.5,569.6,615.8,569.7,615.4
	z M564.1,621.2v0.9h6.8v-0.9H564.1z M564.1,619.5v0.9h6.8v-0.9H564.1z M562.8,618.6h9.5v4.5h-9.5V618.6z M566.5,613.5l1.4-0.3
	c0.3,0.5,0.6,1.2,0.7,1.6l-1.5,0.3C567.1,614.7,566.8,614,566.5,613.5z M580.6,616.5v0.8h3.6v-0.8H580.6z M579.5,615.7h6v2.4h-6
	V615.7z M580.1,620.9v3.2h4.7v-3.2H580.1z M579,620h7v4.8h-7V620z M581.7,622.1v0.7h1.5v-0.7H581.7z M580.9,621.4h3.1v2h-3.1V621.4z
	 M578.1,618.7h8.8v0.8h-8.8V618.7z M581.8,617.6h1.2v1.5h-1.2V617.6z M576.2,613.9h12.7v13.4h-1.4v-12.2h-10v12.2h-1.3V613.9z
	 M577,625.5h11.2v1.2H577V625.5z"/>
</svg>
