<svg width="53" height="37" viewBox="0 0 53 37" fill="none" xmlns="http://www.w3.org/2000/svg">
<path d="M45.8886 2.03535C43.4597 0.737337 37.8622 -0.54644 35.0848 5.78361C35.0848 5.78361 34.5301 7.67198 33.5308 8.1165C33.5308 8.1165 28.9006 9.8839 23.6694 13.9487C14.7753 20.8655 2.94028 32.2453 0.422485 36.9999C0.422485 36.9999 15.7533 28.6678 19.53 28.0028C19.53 28.0028 22.5919 29.0945 26.7419 28.9452L26.5962 31.9039L30.0955 35.4104L28.296 31.1074L29.4305 28.6713C29.8501 28.6002 30.2768 28.5185 30.7071 28.4154L30.5898 30.7873L34.0891 34.2937L32.2897 29.9907L33.4312 27.5369C35.2982 26.7759 37.183 25.6486 38.9682 24.0021C38.9682 24.0021 45.3018 19.1122 44.9675 12.7821C44.9675 12.7821 46.2798 9.95499 47.3395 7.68257C47.3395 7.68257 48.9007 7.08873 49.4341 6.93226C50.1169 6.73311 52.2115 6.29916 52.2115 6.29916C51.5643 5.62348 49.0003 4.59584 47.4782 4.18332C47.0941 3.20536 46.4754 2.34821 45.885 2.03171L45.8886 2.03535Z" fill="white"/>
</svg>
