<?xml version="1.0" encoding="utf-8"?>
<!-- Generator: Adobe Illustrator 26.5.0, SVG Export Plug-In . SVG Version: 6.00 Build 0)  -->
<svg version="1.1" id="圖層_1" xmlns="http://www.w3.org/2000/svg" xmlns:xlink="http://www.w3.org/1999/xlink" x="0px" y="0px"
	 viewBox="0 0 1387 74" style="enable-background:new 0 0 1387 74;" xml:space="preserve">
<style type="text/css">
	.st0{fill:#FFFFFF;}
</style>
<path class="st0" d="M0,2h58.1v10.9H14.7v17.6h41.1v11H14.7v30.3H0V2z M66.4,2H81v39.4c0,9.7,0.3,21.4,19.4,21.4
	c19.2,0,19.6-11.8,19.6-21.4V2h14.7v39.8c0,11.5-0.4,32-34.2,32c-33.8,0-34.1-20.3-34.1-32V2z M167.4,12.9h-26.2V2h67v10.9h-26.2
	v58.8h-14.7L167.4,12.9L167.4,12.9z M214.9,2h14.7v39.4c0,9.7,0.3,21.4,19.5,21.4s19.6-11.8,19.6-21.4V2h14.7v39.8
	c0,11.5-0.4,32-34.2,32s-34.1-20.3-34.1-32V2z M296.9,2H341c17.8,0,23.6,8,23.6,19c0,9.1-4.9,14.8-11.5,16.8v0.2
	c8.2,1.8,10.2,8.9,10.2,18.9c0,3.4,0.1,11,2.9,15h-15.8c-1.1-2-1.8-5.5-1.8-10.6c0-9.9-1.5-17-12.1-17h-24.9v27.6h-14.7V2z
	 M336.8,33.2c8.2,0,12.5-2.4,12.5-10.3c0-7.3-4.7-10.1-12.5-10.1h-25.3v20.3H336.8z M376.5,2h60.6v10.9h-45.9v17.6h44.1v11h-44.1
	v19.3h46.7v11h-61.4V2z M540.7,27.8c-1.6-10.5-10.1-16.8-22.5-16.8c-13.6,0-23.6,9-23.6,27.2c0,14.6,10.1,24.6,24.5,24.6
	c15.2,0,20.2-10.3,21.5-17.7h15.8c-2,13.8-11.2,28.6-39.9,28.6c-25.3,0-37.2-17.2-37.2-36.8S491.1,0,518.4,0
	c24.1,0,36.6,12.6,38.1,27.8H540.7L540.7,27.8z M564.5,36.8c0-19.6,11.5-36.8,41-36.8c29.5,0,41.1,17.2,41.1,36.8
	s-11.5,36.8-41.1,36.8C576,73.7,564.5,56.5,564.5,36.8z M631.3,36.8c0-15.2-9.4-25.9-25.8-25.9s-25.8,10.7-25.8,25.9
	s9.4,25.9,25.8,25.9S631.3,52.1,631.3,36.8z M657,2h16.8l41.5,52.4h0.2V2h14.1v69.8h-16.5l-41.8-52.4H671v52.4h-14.1L657,2L657,2z
	 M770.9,0c10.8,0,32.2,2,34.1,22.2h-15.8c-0.5-5.5-5.4-11.2-17.6-11.2c-9.8,0-16.2,2.9-16.2,9.6c0,16.5,52,0.6,52,30.5
	c0,18-18.7,22.7-33.5,22.7c-25.1,0-35.1-9.9-35.4-24.5h15.8c0.4,9.3,7.9,13.6,20,13.6c9,0,17.2-2.7,17.2-10.3
	c0-17.3-51.4-2.2-51.4-30.9C740.1,6,753.9,0,770.9,0L770.9,0z M835.3,12.9h-26.2V2h67.1v10.9H850v58.8h-14.7V12.9z M883.3,2h44.2
	c17.8,0,23.6,8,23.6,19c0,9.1-4.9,14.8-11.5,16.8v0.2c8.2,1.8,10.2,8.9,10.2,18.9c0,3.4,0.1,11,2.9,15h-15.8
	c-1.1-2-1.8-5.5-1.8-10.6c0-9.9-1.5-17-12.1-17H898v27.6h-14.7V2z M923.3,33.2c8.2,0,12.5-2.4,12.5-10.3c0-7.3-4.7-10.1-12.5-10.1
	H898v20.3H923.3z M962.4,2h14.7v39.4c0,9.7,0.3,21.4,19.5,21.4c19.2,0,19.5-11.8,19.5-21.4V2h14.7v39.8c0,11.5-0.4,32-34.2,32
	c-33.8,0-34.1-20.3-34.1-32V2z M1101.8,27.8c-1.6-10.5-10.1-16.8-22.5-16.8c-13.6,0-23.6,9-23.6,27.2c0,14.6,10.1,24.6,24.5,24.6
	c15.2,0,20.2-10.3,21.5-17.7h15.8c-2.1,13.8-11.2,28.6-39.9,28.6c-25.3,0-37.2-17.2-37.2-36.8s11.6-36.8,39-36.8
	c24,0,36.6,12.6,38.1,27.8H1101.8z M1148.5,12.9h-26.2V2h67.1v10.9h-26.2v58.8h-14.7L1148.5,12.9L1148.5,12.9z M1196.5,2h14.7v69.8
	h-14.7V2z M1221.6,36.8c0-19.6,11.5-36.8,41-36.8s41.1,17.2,41.1,36.8s-11.5,36.8-41.1,36.8S1221.6,56.5,1221.6,36.8z M1288.4,36.8
	c0-15.2-9.4-25.9-25.8-25.9c-16.4,0-25.8,10.7-25.8,25.9s9.4,25.9,25.8,25.9C1279,62.8,1288.4,52.1,1288.4,36.8z M1314,2h16.8
	l41.5,52.4h0.2V2h14.1v69.8h-16.5l-41.8-52.4h-0.2v52.4H1314L1314,2L1314,2z"/>
</svg>
