<svg width="287" height="59" viewBox="0 0 287 59" fill="#fff" xmlns="http://www.w3.org/2000/svg">
<path d="M45.1,17.5C42.2,4.7,35,0,25.9,1.2C17,2.4,12.4,11.2,12.4,22.1c0,5.7,0,9.8,0,14.8c0,11.1,3.2,21,15.8,21c10.6,0,10.8-8.5,10.8-20h-7.8v-1.1h23.5v1.1h-4.9v18.3h-1.4c-1.5-4.1-6.9-0.6-9.5,0.6C21.6,64.6,0,51.3,0,29.8C0,9.3,19.5-4.8,37.7,1.6c5.3,1.9,6.4,2,7.2-0.3h1.3v16.3H45.1L45.1,17.5z M241.2,6.8v49.5h7.2v1.1h-15.7v-1.1h7.2v-54h-7.2V1.2h18.5l26.3,37.6V2.3h-7.2V1.2h15.7v1.1h-7.2v55.1h-2.1L241.2,6.8z M60.6,2.3V1.2l28,0c18,0,22.1,23.6-0.1,25.7c12.3,2.4,16.6,2.3,17.2,20.3c0.4,12.6,5.6,10.2,8.3,6.9l0.8,0.7c-3.2,5.3-20,6.8-20.6-7c-0.7-18.1-3-20.7-15.5-20.1v28.5h7v1.1H60.7v-1.1h7v-54H60.6L60.6,2.3z M91.8,15.3c0-10.7-3.2-14.1-13.1-13v24.4C88.4,27.4,91.8,24.6,91.8,15.3z M166.7,40.1v17.3h-47.5v-1.1h6.8v-54h-6.8V1.2h44.5v13.5h-1c-1.7-6.6-6.6-12.4-14.1-12.4h-11.8v24.4h4.2c7.2,0,10.2-5.2,11.2-11.8h1v24.6h-1c-1.1-5.9-3.7-11.7-10.4-11.7h-5v28.5H149c9.3,0,16.7-4.8,16.7-16.2H166.7z M223.6,40.1v17.3h-47.5v-1.1h6.8v-54h-6.8V1.2h44.5v13.5h-1c-1.7-6.6-6.6-12.4-14.1-12.4h-11.8v24.4h4.2c7.2,0,10.2-5.2,11.2-11.8h1v24.6h-1c-1.1-5.9-3.7-11.7-10.4-11.7h-5v28.5h12.2c9.3,0,16.7-4.8,16.7-16.2H223.6z"/>
</svg>
