<?xml version="1.0" encoding="utf-8"?>
<!-- Generator: Adobe Illustrator 26.5.0, SVG Export Plug-In . SVG Version: 6.00 Build 0)  -->
<svg version="1.1" id="圖層_1" xmlns="http://www.w3.org/2000/svg" xmlns:xlink="http://www.w3.org/1999/xlink" x="0px" y="0px"
	 viewBox="0 0 306 231" style="enable-background:new 0 0 306 231;" xml:space="preserve">
<style type="text/css">
	.st0{fill:#FFFFFF;}
	.st1{fill:#86B629;}
	.st2{fill:#349ACE;}
	.st3{fill:#1A2D76;}
	.st4{fill:#312549;}
	.st5{fill:#727171;}
</style>
<g>
	<path class="st0" d="M203.4,25.1h24.3v24.6l-21.3,17.8c-0.8,0.5-1,1.5-1,2.3v29.1c0,2.8,3.5,4.3,5.3,2.5l22.6-18.8
		c0.8-0.5,1.3-1.5,1.3-2.5V52.4l21.6-17.8c0.8-0.5,1-1.5,1-2.3V3.3c0-1.8-1.5-3.3-3.3-3.3h-29.6c-0.8,0-1.5,0.3-2,0.8l-22.8,18.8
		c-1,0.8-1.3,2-1,3h-27.6c-0.8,0-1.5,0.3-2,0.8l-15.6,13l-16.1-12.8c-0.5-0.5-1.3-0.8-2.3-0.8h-27.6c0.3-1.3-0.3-2.5-1.3-3.3L83.5,1
		c-0.3-0.8-1-1-1.8-1H52.1c-1.8,0-3.3,1.5-3.3,3.3v28.9c0,1,0.5,1.8,1,2.5l21.3,17.8V80c0,1,0.5,1.8,1,2.5L95,101.4
		c2,1.8,5.3,0.3,5.3-2.5V70c0-1-0.5-1.8-1.3-2.3L77.7,49.9V25.1h24.3v29.6c0,1,0.5,1.8,1.3,2.5L124.6,75v27.6c0,1,0.5,1.8,1.3,2.5
		l24.6,20.6c1.5,1,3.3,1,4.5,0l24.6-20.6c0.8-0.5,1-1.5,1-2.5V75l21.3-17.8c0.8-0.5,1.3-1.5,1.3-2.5L203.4,25.1L203.4,25.1z
		 M174.3,47.9v24.6L153,90.3l-21.3-17.8V47.9C131.7,47.9,174.3,47.9,174.3,47.9z"/>
	<polygon class="st1" points="177.3,44.7 200.2,25.8 170.8,25.8 153,40.6 135.2,25.8 105.8,25.8 128.4,44.7 	"/>
	<path class="st2" d="M104.3,22.1H75L52.1,3.3h29.4L104.3,22.1z M201.7,22.1H231l22.6-18.8h-29.4L201.7,22.1z"/>
	<path class="st3" d="M105.8,25.8l22.8,18.8v29.1l-22.8-18.8C105.8,54.9,105.8,25.8,105.8,25.8z M52.1,3.3L75,22.1v29.1L52.1,32.4
		V3.3z M200.2,25.8l-22.6,18.8v29.1l22.6-18.8V25.8z M253.9,3.3l-22.6,18.8v29.1l22.6-18.8V3.3z"/>
	<path class="st4" d="M128.2,73.8l24.6,20.6v28.9l-24.6-20.3V73.8z M74.7,50.9l22.6,18.8v28.9L74.7,79.8V50.9z M177.6,73.8L153,94.3
		v28.9l24.6-20.6V73.8z M231.3,50.9l-22.6,18.8v28.9l22.6-18.8V50.9z"/>
	<path class="st0" d="M150.5,145c2-5.5,1.8-6.5,1-7.5c4-4.3,1.5-8.5-2-7.8c-1.3,0.3-2.8-1.3-4.8,0.5c-0.8,0.5-1.3,2-2,3.5
		c-0.8,1.3-0.8,2.8,0.5,3.8c-0.3,0-0.3,0-0.5,0.3c-3.3-3-8.5-2-10.8,0.3c0.5-3.3,0.8-15.8-8.3-10.3c-2-2.3-7-1.5-8.5,0
		c-2,2-1.5,4-2.5,6c0.3-5.8-6.8-8.8-11.3-7.3c-6.3,2-11.3,15.6-2,17.1c-3.3,11.3,5.5,15.8,12,10.3c1.3,2,7.3,6.5,15.6-4.8
		c0.8,6,7.3,9.3,14.3,5.3c3,3.8,7.5,1.3,10.3-1.3C154.5,150,155,145,150.5,145z M122.4,136.2c1,3.3,0.3,6.8-2.5,9.8
		C120.1,144.5,121.1,139.2,122.4,136.2z M179.3,137c4,0.3,6.5-4.5,5.5-7.3c-0.8-1.8-1.5-3-9.8-3.3c-11.5-0.3-20.3,13.8-12,18.1
		c-6.8-1.3-10,7.8-3.5,10.5C167.1,158.6,179.6,156.1,179.3,137z M168.6,137c0.5-0.5,1.3-1.3,1.5-1.5c-0.5,0.5-1.3,1.5-1.3,1.8
		L168.6,137z M168.1,144c0,2.8,0,4.3-2.3,5c0-1-0.5-3.5-2.5-4.3C165.3,145.8,167.1,144.5,168.1,144z M208.7,145
		c0.3-2,2.8-5.3,1.3-7.5c3-3.8,1.5-7-0.5-7.5c-1.8-0.5-1.8,0.5-3.8-0.3c-3.3-1.3-7,4.8-5.3,7.3c-1.3-1.8-4.5-1-5.8,0
		c-6.3-4.3-16.8,4.8-15.8,12.5c1,6.8,7.5,8.5,11.5,5.3c2,2.5,6.8,1.5,8.5-0.3C204.7,162.1,218.5,146.5,208.7,145z"/>
	<path class="st2" d="M150.2,133c-1.3,0.3-2.5,0-3.5-0.3c-0.5,1-1,1.8-1.5,2.8C147.5,137.7,150.2,135.2,150.2,133z M208.4,133
		c-1.3,0.3-2.5,0-3.5-0.3c-0.5,1-1,1.8-1.5,2.8C205.4,137.7,208.4,135.2,208.4,133z M168.8,131.2c-4.8,2.5-7.8,8.5-4.3,10.8
		c0.8,0.5,2.5-0.8,2.5-1.5c0.3-1.3-4.3-2.3-1-5.5c1-1,3.3-4.5,10-1.5c5.3,2.3,6.5-2.3,5.5-2.8C181.1,130.2,173.8,128.2,168.8,131.2z
		 M171.3,141.5c0,4,0.5,8.8-4,10.3c-6.3,2-4.3-3.5-5-4c-1-0.5-3,1.5-3,2c0.3,4,7,4,10,2.8c7-3,7-14.1,6.8-16.6
		C176.1,135.5,171.1,136.5,171.3,141.5z M146.7,149.5c-2-1.8,2-7.5,2-10.3c-7,0.5-3.5,2.3-7.3,9.3c-1.8,3-8,2.5-7.8-1
		c0.8-1.3,5.5-1.8,6.8-4.3c2.5-4.3-7.5-7.3-10.5,2.8c-1.8,6,5.3,10,11.3,4c0.8-0.8,3.3,8.8,9.3-2C149.5,149,148,150.5,146.7,149.5z
		 M133.7,145.3c-1-2.3,3.3-7.3,4.3-3.8C138.7,143.3,135.7,147,133.7,145.3z M207.4,139.2c-3.8,0.3-5,0.8-5.3,3.8c-1.3,7-3.8,7-5.3,7
		c-3.3,0,2-8,1.5-10.8c-1.3,0-3,1-4,1.5c-3.3-5-11.8,2-11.8,7.5c0,3.5,3.3,7.8,8.8,1.8c0.8-1,1.3,3,2.8,3c3.8,0.3,3.8-2.8,6.3-2.8
		c2.5,7.3,9-0.5,8.8-2C200.9,155.6,207.2,140,207.4,139.2z M187.6,150.3c-3.3-0.3,0.3-9.5,3-10C195.7,139.2,191.9,150.8,187.6,150.3
		z M124.1,131.7c6,11.5-4.3,20.8-6.8,18.8c-2-1.5-1.3-4.5,3.5-20.8c-6-0.5-3-0.3-9.8,18.1c-1.3,3.3-7.5,5.8-4.5-2.8
		c1.8-4.8,4.5-13-0.3-15.3c-8.8-4-11.8,13.5-6.3,9.8c1-0.8,0.5-2.3-0.8-3.5c-1.8-1.8,3-8,5.5-5c2.5,3.5-5.3,13.3-3,18.8
		c2.3,5.5,7.5,1,9.5-1.3c2-2,1,3.5,4.5,4c5.5,0.5,16.6-14.1,11.8-23.3C127.4,129,123.6,130.7,124.1,131.7z"/>
</g>
<g>
	<g>
		<path class="st5" d="M30.7,220.1c-0.8,0-1.5-1.2-2.2-3.4c2.4-3.9,4-8.7,5.1-14.3l-4-0.6c-0.5,3.2-1.3,6.2-2.4,8.8
			c-0.5-3.3-0.9-7.2-1-11.4h8.2v-3.9H32l1.9-2.1c-1.1-1-3.2-2.3-4.8-3.1l-2.4,2.4c1.3,0.7,2.9,1.8,3.9,2.7h-4.6c0-1.6,0-3.3,0-4.9
			h-4.2c0,1.6,0,3.3,0.1,4.9H3.7v10.4c0,4.8-0.3,11.2-3,15.7c0.9,0.5,2.6,1.8,3.3,2.6c3.2-5,3.7-12.9,3.7-18.3v-6.6h14.3
			c0.3,6.4,0.9,12.4,2.1,16.9c-1.6,2.1-3.5,3.9-5.8,5.2c0.9,0.7,2.4,2.2,3,3c1.6-1.1,3-2.4,4.3-3.8c1.2,2.3,2.6,3.7,4.5,3.7
			c3.1,0,4.3-1.6,4.9-7.9c-1.1-0.5-2.4-1.4-3.3-2.4C31.7,218.3,31.4,220.1,30.7,220.1z M21.3,217.9c-0.9-0.6-2-1.3-3.2-2
			c0.9-1.6,1.5-3.4,2-5.4h1.5v-2.9h-0.9c0.1-0.5,0.1-0.9,0.2-1.4l-3.6-0.4c-0.1,0.6-0.2,1.2-0.3,1.8h-2.7c0.3-1.1,0.6-2.1,0.9-3.2h6
			v-3.3H8.8v3.3h2.9c-0.2,1-0.5,2.1-0.9,3.2H8.5v2.9h1.4c-0.5,1.5-1.1,2.8-1.6,4c1.5,0.7,3.1,1.5,4.7,2.4c-1.5,1.5-3.6,2.7-6.3,3.5
			c0.7,0.7,1.5,1.9,1.9,2.8c3.2-1.2,5.6-2.6,7.4-4.6c0.9,0.6,1.8,1.2,2.4,1.7L21.3,217.9z M14.9,214.2c-0.8-0.4-1.6-0.8-2.4-1.2
			c0.3-0.8,0.6-1.6,0.9-2.5h3C16,211.9,15.5,213.1,14.9,214.2z M49.9,215.2c-3.7,1.7-7.6,3.3-10.1,4.3l2.2,3.4
			c2.6-1.3,5.9-3,8.9-4.5L49.9,215.2z M51.9,220.1c0,0.4-0.2,0.6-0.7,0.6c-0.5,0-2.3,0-3.9-0.1c0.5,1,1,2.5,1.2,3.6
			c2.5,0,4.4,0,5.7-0.6c1.3-0.6,1.7-1.5,1.7-3.4V208h-4V220.1z M70.4,207.1v-3.5H52.2c0.3-0.6,0.6-1.2,0.9-1.8h14v-3.3H54.4
			c0.2-0.6,0.4-1.1,0.5-1.7h13.6v-3.5H55.7c0.2-0.9,0.3-1.8,0.4-2.7l-4.5-0.3c-0.1,1-0.2,2-0.4,3H39.6v3.5h10.8
			c-0.2,0.6-0.3,1.1-0.5,1.7h-8.5v3.3h7c-0.3,0.6-0.7,1.2-1.1,1.8h-9.9v3.5h7.1c-2.1,2.1-4.7,4-7.9,5.5c1,0.6,2.6,2.1,3.1,3.1
			c1.8-0.9,3.4-2,4.9-3.1c1.1,1,2.3,2.4,2.9,3.3l3.1-2.2c-0.6-1-2.1-2.3-3.2-3.3l-1.4,1c1.5-1.3,2.7-2.7,3.8-4.2h8.3
			c0.9,1.3,2,2.6,3.1,3.7l-1.2-0.7c-0.8,1.1-2.3,2.8-3.4,3.7l2.4,1.6c0,0,0,0,0,0l-2.5,2.6c2.6,1.4,6,3.6,7.9,5l2.6-3
			c-1.8-1.2-4.7-3-7.3-4.3c1-0.8,2.3-2,3.5-3.3c1.6,1.2,3.3,2.2,5.2,2.9c0.6-1.1,1.8-2.7,2.8-3.5c-3.2-1-6-2.7-8.1-4.8H70.4z
			 M88.9,204h-8.1v6.9h8.1V204z M86,208.7h-2.4v-2.3H86V208.7z M74.6,224.3h4.1v-1.5h22.5v1.5h4.3V192H74.6V224.3z M78.6,195.9h17.5
			l-1.7,1.7c0.9,0.5,2,1.3,2.8,1.9h-3.9c-0.1-1-0.1-2.1-0.1-3.1h-3.6c0.1,1,0.1,2.1,0.2,3.1h-9.8v3H90c0.3,3.6,0.8,6.9,1.6,9.5
			c-0.6,0.6-1.1,1.2-1.8,1.8l-0.1-1.8c-3.8,0.5-7.6,1-10.2,1.3l0.4,3.1c2.4-0.4,5.2-0.8,8.1-1.2c-0.4,0.3-0.7,0.5-1.1,0.7
			c0.7,0.6,1.9,1.9,2.3,2.6c1.4-0.9,2.6-1.9,3.8-3.1c0.7,1.2,1.6,2.1,2.7,2.4c2.4,1.1,4.3-0.3,4.9-4.8c-0.7-0.4-2-1.4-2.7-2.1
			c-0.2,2.1-0.5,3.5-0.9,3.4c-0.6-0.2-1.2-0.9-1.6-2c1.6-2.4,2.9-5.1,3.8-8.3l-3.3-0.6c-0.4,1.6-1,3.1-1.7,4.5
			c-0.3-1.6-0.5-3.5-0.7-5.5h6.5v-3h-1.7l1.5-1.5c-0.6-0.7-1.9-1.5-3-2.1h4.4V219H78.6V195.9z M140.1,210.3h-17.5v3.5h6.8v10.4h4.1
			v-10.4h6.7V210.3z M135,216.5c1.6,1.9,3.7,4.6,4.8,6.1l3.3-2.1c-1.1-1.5-3.3-4.1-4.9-5.9L135,216.5z M119.3,220.7
			c1,0.5,2.6,1.5,3.4,2.2c1.5-1.7,3.6-4.4,4.9-6.6l-3.9-1.3C122.7,217,120.9,219.2,119.3,220.7z M138.1,201.8
			c1.7-2.1,3.4-5.3,4.4-8.3l-2.3-1.3l-0.7,0.2h-0.8h-4.9v1.6l-1.9,0.4c0.1-0.2,0.1-0.4,0.2-0.7l-2.2-0.8l-0.6,0.1h-0.6h-2.1
			c0.3-0.6,0.5-1.2,0.7-1.9l-3.2-0.7c-0.9,2.8-2.5,5.5-4.4,7.5c0.5-1.6,1-3.3,1.4-4.8l-2.7-1.5l-0.6,0.1h-7.6v32.3h3.7v-28.4h2.6
			c-0.5,2.4-1.2,5.3-1.9,7.5c1.9,2.6,2.3,4.9,2.3,6.7c0,1-0.2,1.9-0.6,2.2c-0.2,0.2-0.5,0.3-0.9,0.3c-0.4,0-0.9,0-1.5,0
			c0.6,1,0.9,2.6,0.9,3.5c0.8,0.1,1.6,0,2.2,0c0.7-0.1,1.4-0.4,1.9-0.8c1.1-0.8,1.5-2.4,1.5-4.7c0-1-0.1-2.2-0.4-3.4
			c0.7,0.6,1.6,1.7,2,2.5c1.3-0.8,2.5-1.9,3.7-3.1v1.5h10.6v-2.2c1.2,1.5,2.7,2.8,4.3,3.8c0.5-0.9,1.6-2.3,2.4-3
			C141.3,205.3,139.6,203.7,138.1,201.8z M124.8,202.5l0-1.5c-2,0.2-3.6,0.4-5,0.5l0.4,2.7c1.3-0.2,2.6-0.5,3.9-0.7
			c-1.2,1.4-2.5,2.5-3.9,3.3c-0.4-1.2-1-2.6-1.9-4c0.4-1.1,0.7-2.2,1.1-3.5c0.7,0.5,1.5,1.3,2,1.7c0.8-0.7,1.5-1.6,2.2-2.5
			c0.9,0.7,1.8,1.5,2.5,2.2C125.6,201.3,125.2,201.9,124.8,202.5z M125,196.3c0.1-0.1,0.2-0.3,0.2-0.4h2.9c-0.2,0.8-0.5,1.5-0.8,2.2
			C126.6,197.5,125.8,196.8,125,196.3z M127.5,204.4c1.8-2.4,3.2-5.3,4.1-8.6c1,3.2,2.3,6.2,4.1,8.6H127.5z M136.3,198.7
			c-0.6-1.1-1-2.3-1.4-3.5h3.1C137.5,196.4,136.9,197.6,136.3,198.7z M169.1,207.3h3.1c-0.5,1.7-1.5,3.3-1.8,3.7
			c-0.3,0.5-0.7,0.8-1.1,0.8c0.3,0.7,0.7,1.9,0.9,2.5c0.3-0.2,0.9-0.4,2.4-0.6c-0.7,0.9-1.3,1.7-1.5,2c-0.6,0.7-1.1,1.1-1.7,1.2
			c0.3,0.6,0.7,1.9,0.8,2.4c0.5-0.2,1.3-0.5,4.9-1c0.1,0.6,0.2,1.1,0.2,1.5l2.1-0.8c-0.1-1.2-0.6-3-1-4.5l-2,0.6
			c0.1,0.3,0.2,0.7,0.3,1.1l-1.4,0.2c1.4-1.6,2.8-3.5,4-5.4l-2.4-1.1c-0.2,0.5-0.5,1-0.8,1.5l-1.3,0.1c0.7-1,1.4-2.2,1.9-3.4
			l-1.8-0.8h7.1c-0.6,1.8-1.6,3.4-1.9,3.9c-0.3,0.5-0.7,0.8-1.1,0.9c0.3,0.6,0.7,1.9,0.9,2.4c0.4-0.2,0.9-0.4,2.7-0.7
			c-0.7,0.9-1.3,1.6-1.6,1.9c-0.6,0.7-1.2,1.2-1.7,1.3c0.3,0.6,0.7,1.9,0.8,2.4c0.5-0.3,1.4-0.5,5.7-1.1c0.1,0.5,0.2,0.9,0.2,1.3
			l2.3-0.8c-0.2-1.2-0.8-3.2-1.4-4.6l-2.2,0.6c0.2,0.5,0.3,1,0.5,1.5l-2,0.2c1.5-1.7,3.1-3.7,4.3-5.7l-2.4-1.2
			c-0.3,0.6-0.6,1.2-1,1.8l-1.7,0.2c0.8-1.1,1.6-2.5,2.1-3.8l-1.5-0.6h5v-3.1h-17.2v-12.7h-3.6v31.8h21.7V220h-18.1V207.3z
			 M158.1,214.7c0.4,2.7,0.7,6.2,0.7,8.6l2.7-0.5c-0.1-2.3-0.4-5.8-0.8-8.5L158.1,214.7z M153.1,222.9c0.8,0.2,2.3,0.6,3,1
			c0.8-2.3,1.3-5.9,1.5-9.3l-3-0.5C154.4,217.3,154,220.7,153.1,222.9z M157.9,204c-0.9,1.5-1.6,2.7-2,3.2c-1,1.4-1.7,2.3-2.5,2.5
			c0.4,0.9,1,2.6,1.2,3.3c0.7-0.4,1.8-0.6,7.4-1.4c0.1,0.6,0.2,1.1,0.2,1.6l2.8-0.9c-0.2-1.9-1-5.1-1.8-7.6l-2.3,0.6
			c1.6-2.5,3-5.3,4.2-7.9l-3.1-1.8c-0.6,1.7-1.4,3.5-2.2,5.2l-2,0.1c1.5-2.7,3-6,4.1-9.2l-3.4-1.3c-0.9,3.9-2.8,8.1-3.4,9.1
			c-0.6,1.1-1.2,1.8-1.8,2c0.4,0.9,1,2.6,1.2,3.3C154.7,204.5,155.5,204.3,157.9,204z M160.6,205.7c0.3,0.9,0.5,1.9,0.7,2.8
			l-2.9,0.3C159.2,207.9,159.9,206.8,160.6,205.7z M161.3,214c0.6,2.3,1.3,5.3,1.6,7.3l2.5-0.8c-0.3-1.9-1-4.9-1.7-7.2L161.3,214z
			 M172.1,198.4c-0.5,0.8-1,1.3-1.2,1.6c-0.6,0.7-1.1,1.1-1.7,1.2c0.3,0.6,0.7,1.9,0.9,2.4c0.5-0.2,1.3-0.5,4.9-1
			c0.1,0.6,0.2,1.1,0.2,1.5l2.1-0.8c-0.1-1.1-0.6-3-1-4.4l-2,0.6c0.1,0.3,0.2,0.7,0.3,1.1l-1.4,0.2c1.4-1.6,2.8-3.5,4-5.5l-2.4-1.1
			c-0.3,0.6-0.6,1.3-1,1.9l-1.1,0.1c0.9-1.3,1.7-2.9,2.3-4.5l-2.6-1.1c-0.5,2.1-1.7,4.2-2.1,4.8c-0.4,0.5-0.8,0.9-1.2,1
			c0.3,0.7,0.8,2,0.9,2.6C170.3,198.8,170.8,198.6,172.1,198.4z M177.6,199.1c0.3-0.2,0.9-0.3,2.5-0.6c-0.6,0.8-1.1,1.4-1.3,1.6
			c-0.6,0.7-1.2,1.2-1.7,1.3c0.3,0.6,0.7,1.9,0.8,2.4c0.5-0.3,1.4-0.5,5.6-1.1c0.1,0.5,0.2,1,0.2,1.3l2.3-0.8
			c-0.2-1.2-0.8-3.2-1.3-4.6l-2.2,0.6c0.2,0.5,0.3,1,0.5,1.5l-2,0.2c1.5-1.7,3.1-3.7,4.4-5.8L183,194c-0.4,0.7-0.8,1.4-1.2,2.1
			l-1.5,0.2c0.9-1.4,1.9-3.1,2.5-4.8l-2.6-1.1c-0.6,2.2-1.9,4.5-2.3,5c-0.4,0.6-0.8,1-1.2,1.1C177,197.3,177.4,198.6,177.6,199.1z
			 M200.4,192.1l-4.1-1.6c-1.4,2.4-4.3,5.4-6.9,7.1c0.6,0.9,1.7,2.7,2.2,3.6C194.8,199,198.2,195.4,200.4,192.1z M188.9,207.7
			c0.6,1,1.7,3.5,2.1,4.5c0.9-0.7,1.8-1.6,2.7-2.5v14.6h4.4v-19.8c1.1-1.5,2.1-3,2.9-4.4l-3.8-1.5
			C195.3,201.9,192,205.4,188.9,207.7z M214,211.7h6.8v-4.1H214v-6.4h7.9v-4.1h-10.8l3.4-1.2c-0.5-1.6-1.7-3.9-2.8-5.7l-4,1.4
			c1,1.7,2,4,2.5,5.5h-9.2v2.8v1.3h8.4v6.4h-7.2v4.1h7.2v7.3H200v4.1h22.9v-4.1H214V211.7z M251.4,212.6h-4v-2.7h3.4v-3.4h-17.5v3.4
			h3.2v2.7h-3.8v3.5h3.6c-0.4,1.9-1.4,4.2-3.7,5.6c0.9,0.6,2.2,1.7,2.8,2.5c3.1-2.1,4.3-5.6,4.6-8.1h3.5v7.5h3.8v-7.5h4V212.6z
			 M243.7,212.6h-3.3v-2.7h3.3V212.6z M253.2,191.8h-10v12.9h10v14.5c0,0.5-0.2,0.8-0.8,0.8c-0.5,0-2.3,0-3.9-0.1
			c0.6,1.1,1.2,3.1,1.3,4.3c2.8,0,4.6-0.1,6-0.8c1.3-0.7,1.7-1.9,1.7-4.1v-27.4h-2.1H253.2z M253.2,201.6h-5.9v-2.1h5.9V201.6z
			 M253.2,196.7h-5.9v-1.8h5.9V196.7z M240.9,191.8h-9.7h-1.7H227v32.4h4.2v-19.6h9.7V191.8z M236.9,201.5h-5.7v-2h5.7V201.5z
			 M236.9,196.7h-5.7v-1.8h5.7V196.7z M281.4,208.8c1,0.5,2.2,1.3,2.8,1.8c0.9-0.9,1.7-1.9,2.4-3.1c1.8,1.5,3.7,3.1,4.7,4.2l3-3
			c-1.3-1.3-3.8-3.2-5.9-4.7c0.5-1.2,0.9-2.5,1.2-3.9l-4.2-0.8c-0.7,3.5-2.3,6.7-4.6,8.7c-0.2-0.3-0.4-0.6-0.6-0.8v-8.1h13.6v-4.2
			h-13.6v-4.5h-4.5v4.5h-13.1v4.2h13.1v8.4c-3.1,4.9-8.8,9.4-14.7,11.7c1,0.9,2.4,2.6,3.1,3.7c4.3-2,8.4-5.2,11.6-9v10.3h4.5v-10.5
			c3.3,3.9,7.4,7.1,11.7,9.1c0.7-1.2,2.1-3,3.2-4C289.8,216.9,284.6,213.1,281.4,208.8z M268.4,199.4c-1,4.4-3.2,8.2-6.4,10.5
			c1,0.6,2.6,2.1,3.3,2.8c1.6-1.3,3-3,4.1-5c1,0.9,1.9,1.8,2.5,2.5l2.8-3c-0.8-0.8-2.2-2.1-3.5-3.2c0.5-1.2,0.9-2.6,1.3-3.9
			L268.4,199.4z"/>
	</g>
</g>
</svg>
