<svg width="306" height="231" viewBox="0 0 306 231" fill="none" xmlns="http://www.w3.org/2000/svg">
<path d="M256.96 3.05553C256.96 2.96334 256.947 2.81846 256.934 2.67359C256.881 2.4892 256.881 2.31799 256.802 2.15994C256.802 2.12043 256.802 2.09409 256.789 2.06775C256.763 1.93605 256.697 1.90971 256.631 1.80434C256.565 1.63313 256.473 1.48825 256.355 1.33021C256.289 1.21168 256.21 1.11948 256.078 1.02729C255.946 0.895587 255.854 0.790224 255.722 0.67169C255.578 0.592668 255.472 0.526816 255.341 0.447793C255.261 0.395112 255.143 0.316089 255.09 0.289749C255.011 0.263408 254.945 0.263408 254.906 0.223897C254.748 0.197556 254.616 0.144874 254.498 0.105363C254.313 0.0790224 254.142 0.0395112 253.944 0.0263408C253.879 0.0263408 253.8 0 253.734 0H224.337C223.574 0 222.823 0.250237 222.243 0.750712L199.498 19.6371C198.563 20.4009 198.207 21.5994 198.497 22.7453H170.734C169.97 22.7453 169.219 23.0218 168.64 23.496L152.993 36.482L137.334 23.4828C136.741 23.0087 136.004 22.7321 135.2 22.7321H107.569C107.635 22.495 107.661 22.2711 107.661 22.0209C107.661 20.9278 107.108 19.9663 106.265 19.4132L83.8093 0.750712C83.2035 0.250237 82.466 0 81.7021 0H52.2399C52.1477 0 52.095 0.0263408 52.016 0.0263408C51.8448 0.0395112 51.6604 0.065852 51.5024 0.105363C51.3575 0.131704 51.2258 0.184385 51.0941 0.223897C51.0282 0.237067 50.9492 0.250237 50.9097 0.289749C50.7912 0.316089 50.7122 0.395112 50.62 0.447793C50.4883 0.526816 50.3697 0.592668 50.2512 0.67169C50.1063 0.790224 50.0009 0.895587 49.8824 1.02729C49.7902 1.13265 49.7112 1.22485 49.6058 1.33021C49.4873 1.48825 49.4083 1.63313 49.3161 1.80434C49.2897 1.90971 49.2239 1.93605 49.1844 2.06775C49.1844 2.09409 49.1844 2.12043 49.1844 2.15994C49.1185 2.31799 49.079 2.4892 49.079 2.67359C49.0527 2.80529 49.0132 2.96334 49.0132 3.05553C49.0132 3.08187 49 3.12138 49 3.13455V32.1358C49 33.0577 49.4083 33.9401 50.1063 34.5328L71.5345 52.2996V79.997C71.5345 80.9057 71.9692 81.7881 72.6409 82.394L95.3466 101.241C95.9393 101.728 96.7032 102.005 97.467 102.005C97.928 102.005 98.4021 101.912 98.8236 101.702C99.9694 101.188 100.694 100.095 100.694 98.8438V69.8689C100.694 68.9602 100.286 68.0909 99.5611 67.4983L78.1856 49.6919V25.1686H102.643C102.63 25.274 102.63 25.353 102.59 25.4584C102.59 25.5769 102.538 25.6954 102.538 25.814C102.538 25.814 102.524 25.8666 102.524 25.8798V54.881C102.524 55.7898 102.959 56.6722 103.657 57.2649L125.059 75.0449V102.729C125.059 103.664 125.494 104.52 126.205 105.139L150.754 125.646C151.347 126.133 152.111 126.396 152.875 126.396C152.928 126.396 152.954 126.383 153.007 126.383C153.072 126.383 153.112 126.396 153.151 126.396C153.928 126.396 154.692 126.133 155.298 125.646L179.821 105.139C180.533 104.52 180.941 103.664 180.941 102.729V75.0449L202.303 57.2649C203.001 56.6722 203.436 55.7766 203.436 54.881V25.8798C203.436 25.8535 203.423 25.814 203.423 25.814C203.423 25.6823 203.396 25.5637 203.357 25.4189C203.357 25.3398 203.357 25.2608 203.304 25.1686H227.775V49.7051L206.373 67.4983C205.662 68.0909 205.267 68.9602 205.267 69.8689V98.8438C205.267 100.108 205.978 101.201 207.15 101.702C207.611 101.912 208.059 102.005 208.52 102.005C209.284 102.005 210.034 101.728 210.614 101.241L233.28 82.394C233.991 81.7881 234.426 80.9189 234.426 79.997V52.326L255.854 34.5459C256.565 33.9533 257 33.084 257 32.1489V3.14772C257 3.12138 256.96 3.08187 256.96 3.05553ZM131.75 72.503V47.9007H148.068H157.919H157.945H174.224V72.4898L152.993 90.2567L131.75 72.503Z" fill="white"/>
<path d="M179.321 138.329C179.348 137.841 179.4 137.42 179.413 136.854C180.006 136.854 180.625 136.748 181.191 136.617C181.244 136.59 181.284 136.59 181.35 136.577C182.416 136.195 183.325 135.431 184.181 134.101C184.642 133.377 185.59 131.427 184.919 129.715C184.01 127.2 181.652 126.989 177.398 126.581C173.026 126.146 169.891 126.726 167.126 128.332C165.874 129.044 164.729 130.005 164.61 130.124C164.557 130.189 164.518 130.229 164.452 130.269C162.002 132.534 159.513 136.09 159.776 139.527C159.921 141.463 160.935 143.215 162.74 144.453C162.845 144.479 162.951 144.506 163.043 144.572C162.74 144.479 162.411 144.453 161.989 144.453C161.884 144.453 161.739 144.453 161.607 144.466C158.934 144.743 155.957 147.048 155.957 149.721C155.957 149.8 155.957 149.84 155.957 149.906C156.207 153.778 159.79 156.306 165.018 156.306C167.376 156.306 169.681 155.78 171.314 154.897C177.846 151.433 178.992 145.138 179.269 138.961L179.321 138.329ZM168.666 137.104C168.614 137.038 168.548 136.985 168.482 136.933L168.956 136.472C169.483 135.905 169.786 135.642 170.102 135.471C169.615 135.984 169.18 136.564 168.877 137.183C168.864 137.222 168.864 137.262 168.864 137.301C168.772 137.222 168.745 137.157 168.666 137.104ZM164.873 145.033C166.032 145.033 167.112 144.532 167.982 143.939C167.982 145.665 167.968 147.364 167.297 148.035C166.902 148.417 166.23 148.786 165.743 148.984C165.743 148.878 165.716 148.826 165.716 148.799C165.571 147.877 165.255 145.441 163.28 144.69C163.767 144.888 164.307 145.033 164.873 145.033Z" fill="white"/>
<path d="M152.006 145.177C151.532 145.006 150.965 144.888 150.531 144.888C150.623 144.677 150.675 144.479 150.754 144.295C151.4 142.477 152.006 140.778 152.085 139.343C152.137 138.684 151.953 137.999 151.571 137.433C152.704 136.287 153.507 134.76 153.639 133.1C153.718 132.046 153.257 131.046 152.48 130.361C151.624 129.702 150.504 129.478 149.503 129.781C149.477 129.808 149.411 129.808 149.227 129.808C148.779 129.808 148.186 129.689 147.475 129.518C146.026 129.228 144.578 129.913 143.932 131.204C143.603 131.836 143.261 132.442 142.944 133.1L142.51 133.89C141.878 135.036 142.062 136.419 142.918 137.407C142.944 137.42 142.997 137.433 143.023 137.486C142.892 137.565 142.721 137.604 142.589 137.723C141.351 136.577 139.507 135.866 137.387 135.866C136.03 135.866 134.713 136.182 133.633 136.696C133.027 136.999 132.355 137.407 131.723 137.92C132.329 134.72 132.171 131.362 130.577 128.253C130.327 127.74 129.919 127.279 129.418 126.976C128.971 126.699 128.22 126.37 127.193 126.37C126.784 126.37 126.337 126.436 125.902 126.554C125.823 126.568 125.744 126.607 125.652 126.607C124.901 126.778 124.071 127.121 123.347 127.608C122.978 127.2 122.504 126.923 121.99 126.66C121.055 126.317 120.002 126.252 119.29 126.252C117.71 126.252 115.603 126.594 114.352 128.161C113.298 129.426 113.048 130.743 112.811 131.757C112.718 132.244 112.626 132.626 112.455 132.995C112.363 133.258 112.244 133.495 112.139 133.759C111.955 131.164 110.927 128.833 108.399 127.371C108.175 127.226 107.951 127.121 107.753 127.042C107.503 126.923 107.055 126.739 106.621 126.607C105.527 126.238 104.461 126.054 103.46 126.054C99.1134 126.054 96.9534 129.518 96.1896 130.795C95.6496 131.612 95.1491 132.507 94.7803 133.39C94.7672 133.429 94.7145 133.495 94.7145 133.561C92.5545 138.658 94.5828 141.793 97.1905 143.096C97.2564 143.123 97.3354 143.162 97.4407 143.202C97.9149 143.347 98.3758 143.452 98.9027 143.452C98.1651 146.152 97.8885 148.97 98.7578 151.328C100.338 155.621 103.657 156.096 105.014 156.096C107.24 156.096 109.36 155.016 111.046 153.738C111.81 154.805 113.087 155.872 115.352 156.188C115.669 156.201 116.024 156.254 116.353 156.254C119.672 156.254 122.069 153.923 123.492 152.5L123.953 152.079C124.769 151.302 125.691 150.287 126.6 149.076C127.338 153.396 130.525 156.082 134.911 156.082C136.991 156.082 139.112 155.477 140.982 154.37C141.575 155.068 142.418 155.766 143.642 156.082C144.038 156.188 144.472 156.254 144.92 156.254C147.659 156.254 150.149 154.107 151.11 153.132C152.361 151.934 153.85 150.024 153.81 147.969C153.81 146.784 153.086 145.678 152.006 145.177ZM122.241 136.327C122.267 136.261 122.306 136.169 122.32 136.077L122.636 137.025C123.465 141.358 121.24 144.545 119.936 145.968C119.962 145.77 120.002 145.599 120.041 145.454L120.094 145.112C120.726 142.016 121.319 139.396 122.241 136.327Z" fill="white"/>
<path d="M208.757 145.046C209.073 144.031 209.494 142.82 209.982 141.424C210.166 140.923 210.364 140.462 210.456 140.146C210.732 139.264 210.587 138.355 210.1 137.578C210.719 136.867 211.299 135.879 211.654 134.549C211.72 134.285 211.746 134.022 211.746 133.759V132.902C211.746 131.928 211.286 131.006 210.495 130.413C209.679 129.821 208.665 129.61 207.69 129.886C207.137 130.005 206.86 129.992 206.017 129.715C204.872 129.386 203.568 129.689 202.725 130.532C201.526 131.691 201.052 133.113 200.683 134.272L200.525 134.707C200.315 135.286 200.288 135.892 200.459 136.551C200.486 136.63 200.538 136.775 200.604 136.933C200.618 136.985 200.657 137.038 200.683 137.104C200.209 136.59 199.564 136.195 198.84 136.063C197.246 135.774 195.81 136.445 194.915 136.985C193.782 136.287 192.412 135.905 190.832 135.905H190.819C187.46 135.905 181.073 140.225 179.426 145.875C178.636 148.641 179.137 151.657 180.73 153.712C182.245 155.661 184.642 156.596 187.078 156.306C188.474 156.122 189.66 155.516 190.608 154.831C191.069 155.384 191.609 155.793 192.373 156.056C192.465 156.096 192.584 156.096 192.663 156.122C193.334 156.293 193.966 156.359 194.585 156.359C196.68 156.359 198.168 155.49 199.182 154.699C199.696 155.279 200.38 155.845 201.342 156.306C201.79 156.491 202.264 156.596 202.738 156.596C202.764 156.596 202.83 156.596 202.883 156.596C206.571 156.425 212.194 152.737 212.128 148.246C212.142 146.455 210.587 144.993 208.757 145.046Z" fill="white"/>
<path d="M157.933 44.7403H128.523L105.791 25.8802H135.214L157.933 44.7403Z" fill="#86B629"/>
<path d="M105.791 25.8802L128.523 44.7403V73.7546L105.791 54.8814V25.8802Z" fill="#1A2D76"/>
<path d="M128.312 73.7542L152.862 94.2868V123.248L128.312 102.716V73.7542Z" fill="#312549"/>
<path d="M104.395 22.0343H74.946L52.2402 3.14795H81.7024L104.395 22.0343Z" fill="#349ACE"/>
<path d="M52.2402 3.14795L74.946 22.0343V51.0223L52.2402 32.1492V3.14795Z" fill="#1A2D76"/>
<path d="M74.7881 51.0219L97.4675 69.8687V98.8304L74.7881 80.0099V51.0219Z" fill="#312549"/>
<path d="M148.081 44.7403H177.477L200.157 25.8802H170.721L148.081 44.7403Z" fill="#86B629"/>
<path d="M200.157 25.8802L177.478 44.7403V73.7546L200.157 54.8814V25.8802Z" fill="#1A2D76"/>
<path d="M177.675 73.7542L153.139 94.2868V123.248L177.675 102.716V73.7542Z" fill="#312549"/>
<path d="M201.593 22.0343H231.042L253.734 3.14795H224.338L201.593 22.0343Z" fill="#349ACE"/>
<path d="M253.735 3.14795L231.042 22.0343V51.0223L253.735 32.1492V3.14795Z" fill="#1A2D76"/>
<path d="M231.173 51.0219L208.507 69.8687V98.8304L231.173 80.0099V51.0219Z" fill="#312549"/>
<path fill-rule="evenodd" clip-rule="evenodd" d="M177.095 129.702C173.355 129.373 170.879 129.821 168.745 131.059C167.757 131.612 166.783 132.468 166.783 132.468C164.162 134.852 161.132 139.488 164.478 141.792C165.136 142.214 166.519 141.266 166.993 140.568C167.085 140.41 167.085 140.33 167.085 140.12C167.033 139.87 165.703 138.829 165.242 138.171C164.609 136.682 165.307 135.602 166.137 134.786C167.151 133.758 167.915 132.758 169.588 132.27C173.644 131.085 176.726 134.522 180.348 133.587C180.717 133.456 181.165 132.916 181.362 132.56C181.639 132.086 182.034 131.164 181.889 130.782C181.731 130.308 181.283 130.11 177.095 129.702Z" fill="#349ACE"/>
<path fill-rule="evenodd" clip-rule="evenodd" d="M150.385 132.81C149.239 133.153 147.909 132.85 146.842 132.652C146.355 133.535 145.868 134.457 145.394 135.365C147.395 137.578 150.188 135.247 150.385 132.81Z" fill="#349ACE"/>
<path fill-rule="evenodd" clip-rule="evenodd" d="M208.533 133.745C208.533 133.456 208.533 133.205 208.533 132.889C207.216 133.258 206.175 133.087 205.056 132.745C204.305 133.456 204.002 134.602 203.62 135.695C203.646 135.787 203.686 135.866 203.712 135.971C206.439 136.84 207.914 136.116 208.533 133.745Z" fill="#349ACE"/>
<path fill-rule="evenodd" clip-rule="evenodd" d="M175.633 135.629C175.304 135.694 172.552 136.919 171.867 138.394C170.313 142.122 172.512 147.469 169.588 150.287C168.218 151.552 164.676 153.395 162.937 151.117C162.371 150.34 162.542 147.469 161.989 147.548C160.514 147.719 159.184 149.089 159.184 149.695C159.46 153.685 166.691 153.738 169.746 152.131C174.435 149.642 175.739 145.454 176.042 138.776C176.108 137.644 176.147 137.156 176.2 135.879C176.213 135.629 175.989 135.563 175.633 135.629Z" fill="#349ACE"/>
<path fill-rule="evenodd" clip-rule="evenodd" d="M147.146 149.813C146.869 149.655 146.593 149.365 146.448 149.049C145.737 147.139 148.726 141.555 148.871 139.158C147.291 139.264 145.987 139.619 144.828 140.106C144.367 140.212 143.893 141.647 143.221 144.36V144.387C142.984 145.032 142.839 145.651 142.694 146.191C142.22 147.535 141.628 148.575 140.679 149.339C140.574 149.418 140.469 149.497 140.376 149.576C140.31 149.602 140.231 149.642 140.179 149.694H140.152C140.021 149.774 139.929 149.813 139.797 149.879C137.492 151.064 133.831 150.485 133.752 147.456C135.767 145.454 142.405 145.256 140.798 140.541C140.021 138.961 136.965 138.631 135.121 139.514C132.777 140.646 129.208 144.65 129.827 148.47C130.749 154.107 136.794 153.738 140.218 151.077C140.666 150.735 141.061 150.327 141.377 149.984C141.548 149.8 141.786 149.826 141.93 149.984C142.826 150.853 143.155 152.697 144.525 153.04C146.527 153.567 150.636 149.826 150.61 148.009C149.925 148.509 149.464 149.141 148.726 149.484C148.279 149.655 147.712 149.958 147.146 149.813ZM133.659 145.124C133.264 143.491 134.028 142.082 135.016 140.989C135.688 140.344 136.702 139.948 137.413 140.357C137.518 140.462 137.624 140.528 137.729 140.594C137.874 140.765 137.966 140.976 138.032 141.239C138.098 141.832 137.966 142.517 137.703 143.175C137.676 143.307 137.624 143.36 137.571 143.504C136.978 144.703 135.846 145.678 134.713 145.585C134.344 145.533 133.817 145.493 133.659 145.124Z" fill="#349ACE"/>
<path fill-rule="evenodd" clip-rule="evenodd" d="M208.796 148.246C207.742 149.023 207.347 150.037 205.543 150.011C205.411 150.011 205.305 149.984 205.253 149.892C203.817 147.956 206.688 141.226 207.373 139.172C206.372 139.303 203.541 139.593 203.04 140.304C200.788 143.584 202.171 150.011 196.508 150.011C196.481 150.011 196.363 150.011 196.31 149.892C196.244 149.774 196.205 149.668 196.099 149.523C194.861 146.626 198.839 141.858 198.22 139.185C196.969 138.934 195.862 140.686 194.19 140.765C193.663 139.791 192.715 139.04 190.818 139.079C188.948 139.079 183.798 142.385 182.56 146.731C181.586 150.05 183.324 153.567 186.696 153.159C188.592 152.921 189.988 151.038 191.2 150.011C191.345 149.892 191.503 149.892 191.595 150.011C192.188 150.946 192.899 152.908 193.426 153.066C197.298 153.949 197.667 150.459 200.248 150.301C200.986 151.565 201.262 152.763 202.75 153.461C205.108 153.343 208.927 150.63 208.914 148.246C208.914 148.18 208.835 148.18 208.796 148.246ZM187.749 150.287C184.681 149.405 188.026 142.859 188.803 141.779C189.277 141.121 190.001 140.331 190.634 140.199C191.081 140.12 191.608 140.225 191.99 140.396C195.112 142.082 190.765 151.13 187.749 150.287Z" fill="#349ACE"/>
<path fill-rule="evenodd" clip-rule="evenodd" d="M126.692 129.596C126.665 129.596 126.626 129.636 126.6 129.636C126.573 129.636 126.521 129.636 126.468 129.649C125.296 129.926 124.097 130.914 124.229 131.322C124.756 132.981 125.283 134.601 125.783 136.261C126.903 141.529 124.466 145.888 122.03 148.417C121.239 149.234 119.409 151.578 117.604 150.643C115.695 149.76 116.485 146.494 116.906 144.479C117.604 141.2 118.184 138.579 119.145 135.418C119.672 133.653 120.607 131.677 120.857 129.623C119.883 129.28 117.552 129.32 116.893 130.097C115.971 131.282 116.129 132.652 115.484 134.193C113.706 138.381 112.784 143.649 110.953 147.719C110.347 149.049 107.186 152.513 105.777 149.695C105.25 148.325 106.093 146.428 106.423 145.401C107.726 141.371 111.256 132.52 106.712 130.018C106.66 129.978 106.567 129.939 106.436 129.913C106.212 129.794 105.659 129.623 105.619 129.623C102.09 128.358 100.338 130.11 98.9682 132.441C98.494 133.126 98.0594 133.89 97.717 134.72C96.8082 136.893 96.5843 139.264 98.6257 140.265C99.1394 140.462 100.061 139.751 100.377 139.132C100.43 139 100.47 138.882 100.443 138.776C100.43 137.591 99.3369 136.748 99.0208 135.668C98.3887 133.403 101.523 129.939 103.709 130.545C105.856 131.427 105.382 134.298 104.684 136.524C103.709 139.645 100.391 146.441 101.8 150.261C103.881 155.845 109.742 151.288 111.599 148.667C111.743 148.667 111.849 148.667 111.994 148.667C113.627 150.116 112.639 152.592 115.839 153.027C118.342 153.409 120.489 150.906 121.713 149.787C125.559 146.178 131.288 136.814 127.666 129.61C127.693 129.636 127.377 129.465 126.692 129.596Z" fill="#349ACE"/>
<path d="M21.852 190.472C21.924 206.96 23.544 224.276 30.24 224.276C33.3 224.276 34.524 222.656 35.136 216.392C34.056 215.888 32.688 214.952 31.788 214.016C31.68 218.264 31.356 220.136 30.708 220.136C28.008 220.136 25.812 205.412 26.1 190.472H21.852ZM8.82 201.2V204.512H21.168V201.2H8.82ZM29.664 201.848C28.152 210.812 24.768 217.58 18.396 221.396C19.26 222.08 20.808 223.628 21.384 224.42C27.972 219.884 31.752 212.468 33.624 202.424L29.664 201.848ZM26.748 192.668C28.368 193.568 30.42 195.008 31.392 196.016L33.912 193.316C32.832 192.344 30.744 191.012 29.124 190.22L26.748 192.668ZM6.012 195.368V199.256H34.452V195.368H6.012ZM3.744 195.368V205.808C3.744 210.596 3.492 217.04 0.72 221.54C1.62 222.008 3.312 223.376 3.996 224.132C7.2 219.164 7.74 211.208 7.74 205.808V195.368H3.744ZM8.46 207.68V210.56H21.564V207.68H8.46ZM8.244 214.52C11.736 216.104 16.056 218.624 18.396 220.424L21.276 217.94C18.828 216.284 14.544 213.872 11.088 212.36L8.244 214.52ZM8.244 214.52L11.628 215.276C12.924 212.288 14.544 207.5 15.444 203.54L12.024 203.144C11.268 206.888 9.648 211.568 8.244 214.52ZM17.28 205.844C16.38 213.548 13.86 218.228 6.66 220.46C7.38 221.144 8.208 222.404 8.604 223.304C16.74 220.352 19.728 215.276 20.88 206.24L17.28 205.844ZM39.744 219.488L41.904 222.908C44.532 221.612 47.772 219.956 50.76 218.372L49.86 215.168C46.152 216.824 42.264 218.516 39.744 219.488ZM51.948 208.04V220.1C51.948 220.532 51.768 220.676 51.264 220.676C50.76 220.676 48.96 220.676 47.412 220.604C47.88 221.612 48.456 223.124 48.636 224.168C51.156 224.168 52.992 224.132 54.288 223.592C55.62 223.016 55.98 222.08 55.98 220.172V208.04H51.948ZM56.772 218.012C59.4 219.416 62.82 221.576 64.692 222.98L67.284 219.992C65.376 218.696 61.992 216.68 59.292 215.384L56.772 218.012ZM44.676 212.432C45.792 213.44 47.124 214.916 47.7 215.888L50.832 213.656C50.184 212.684 48.78 211.316 47.664 210.38L44.676 212.432ZM60.336 210.092C59.508 211.208 57.996 212.864 56.916 213.836L59.904 215.78C60.984 214.916 62.496 213.584 63.756 212.18L60.336 210.092ZM37.584 203.612V207.104H70.38V203.612H37.584ZM41.472 198.5V201.776H67.104V198.5H41.472ZM39.636 193.352V196.808H68.544V193.352H39.636ZM60.912 204.116L57.276 205.304C59.724 209.804 63.756 213.476 68.652 215.384C69.264 214.304 70.488 212.684 71.46 211.856C66.888 210.452 62.928 207.536 60.912 204.116ZM51.588 190.328C50.904 199.22 47.196 207.824 36.792 212.612C37.836 213.224 39.348 214.664 39.924 215.708C50.652 210.164 54.828 200.696 56.124 190.616L51.588 190.328ZM79.92 199.472V202.496H100.008V199.472H79.92ZM94.392 197.528C95.58 198.212 97.02 199.22 97.74 200.012L99.72 197.96C99 197.168 97.524 196.232 96.3 195.656L94.392 197.528ZM95.868 203.504C94.464 209.012 91.368 213.296 86.868 215.852C87.588 216.428 88.776 217.796 89.208 218.444C93.924 215.42 97.416 210.524 99.216 204.152L95.868 203.504ZM79.524 213.224L79.92 216.356C82.8 215.924 86.328 215.384 89.82 214.844L89.712 211.964C85.932 212.468 82.152 212.936 79.524 213.224ZM83.628 206.348H86.04V208.652H83.628V206.348ZM80.856 204.044V210.92H88.92V204.044H80.856ZM89.568 196.376C90.108 206.744 91.188 216.32 95.688 217.76C98.064 218.84 100.008 217.472 100.548 213.008C99.828 212.648 98.532 211.64 97.884 210.956C97.704 213.08 97.416 214.484 97.02 214.376C94.644 213.8 93.42 205.34 93.168 196.376H89.568ZM74.556 191.984V224.348H78.624V195.872H101.124V224.348H105.408V191.984H74.556ZM77.112 218.984V222.836H103.464V218.984H77.112ZM110.34 191.84V224.132H114.012V195.692H118.548V191.84H110.34ZM117.216 191.84V192.992C116.748 195.296 115.74 199.976 114.768 203.18C116.676 205.772 117.072 208.112 117.072 209.84C117.072 210.884 116.856 211.748 116.46 212.072C116.244 212.288 115.92 212.36 115.56 212.36C115.128 212.36 114.696 212.36 114.084 212.324C114.66 213.332 114.948 214.88 114.984 215.852C115.776 215.924 116.604 215.888 117.216 215.816C117.936 215.672 118.62 215.456 119.16 215.024C120.24 214.196 120.672 212.612 120.672 210.308C120.672 208.184 120.276 205.628 118.26 202.784C119.196 199.94 120.312 196.268 121.14 193.172L118.476 191.696L117.9 191.84H117.216ZM125.928 204.404V207.824H136.512V204.404H125.928ZM122.616 210.272V213.764H140.112V210.272H122.616ZM124.236 193.064V195.872H129.672V193.064H124.236ZM122.904 197.996C124.272 199.04 125.964 200.516 126.792 201.488L128.664 199.292C127.8 198.392 126 196.988 124.704 196.052L122.904 197.996ZM135 216.464C136.584 218.372 138.744 221.036 139.752 222.584L143.1 220.46C141.984 218.912 139.752 216.392 138.168 214.592L135 216.464ZM128.772 193.064V193.676C127.584 199.364 124.164 204.44 120.132 206.816C120.852 207.428 121.824 208.616 122.256 209.408C126.9 206.42 130.536 201.056 132.084 193.748L129.924 192.92L129.348 193.064H128.772ZM133.776 192.344V195.188H139.896V192.344H133.776ZM124.2 190.472C123.156 193.784 121.212 196.88 118.764 198.86C119.484 199.364 120.78 200.444 121.32 201.02C123.804 198.716 126.072 195.08 127.404 191.192L124.2 190.472ZM138.708 192.344V192.992C138.132 195.152 136.872 198.104 135.468 199.868C136.152 200.408 137.268 201.488 137.772 202.244C139.644 200.12 141.444 196.7 142.524 193.496L140.184 192.164L139.464 192.344H138.708ZM123.768 215.024C122.652 216.968 120.924 219.2 119.34 220.676C120.312 221.18 121.932 222.224 122.76 222.872C124.272 221.216 126.324 218.516 127.62 216.284L123.768 215.024ZM134.424 193.82L131.22 194.576C132.984 201.02 136.044 206.492 140.796 209.372C141.3 208.436 142.416 207.068 143.244 206.384C138.924 204.08 135.9 199.22 134.424 193.82ZM129.384 211.748V224.168H133.452V211.748H129.384ZM119.7 201.488L120.132 204.152C121.716 203.864 123.12 203.612 124.812 203.288L124.74 200.984C122.76 201.2 121.176 201.38 119.7 201.488ZM167.42 204.26V207.32H186.284V204.26H167.42ZM165.44 191.552V223.304H187.184V219.992H169.076V191.552H165.44ZM160.472 205.34C161.228 207.86 161.912 211.208 162.092 213.188L164.936 212.324C164.72 210.416 163.928 207.176 163.136 204.692L160.472 205.34ZM158.132 214.664C158.492 217.364 158.816 220.892 158.816 223.268L161.552 222.764C161.48 220.424 161.156 216.968 160.724 214.268L158.132 214.664ZM154.604 214.196C154.388 217.328 153.992 220.676 153.128 222.944C153.956 223.124 155.396 223.556 156.08 223.916C156.836 221.648 157.376 218.048 157.628 214.664L154.604 214.196ZM154.28 204.728C154.28 204.044 156.404 202.892 156.404 202.892V202.82C158.348 199.868 160.364 195.584 161.696 191.624L158.276 190.328C157.34 194.216 155.468 198.392 154.892 199.472C154.28 200.552 153.74 201.308 153.092 201.452C153.488 202.352 154.064 204.008 154.28 204.728ZM154.28 204.728C154.892 204.44 155.972 204.188 160.688 203.72C160.652 202.928 160.832 201.524 161.048 200.552L155.792 200.912L154.172 201.992L154.28 204.728ZM154.532 213.08C154.532 212.432 156.656 211.316 156.656 211.316V211.208C159.752 207.464 162.848 202.244 165.044 197.312L161.912 195.476C160.076 200.516 156.908 205.952 155.864 207.248C154.892 208.652 154.172 209.552 153.38 209.768C153.776 210.668 154.352 212.396 154.532 213.08ZM154.532 213.08C155.252 212.684 156.476 212.396 163.1 211.46C163.1 210.668 163.208 209.228 163.352 208.292L156.008 209.156L154.352 210.236L154.532 213.08ZM161.264 214.016C161.912 216.32 162.596 219.344 162.848 221.324L165.368 220.532C165.08 218.588 164.36 215.6 163.676 213.332L161.264 214.016ZM170.012 198.932C170.012 198.356 171.632 197.528 171.632 197.528V197.456C172.784 196.016 174.116 193.784 174.944 191.66L172.316 190.58C171.776 192.668 170.588 194.792 170.264 195.368C169.904 195.908 169.508 196.268 169.112 196.376C169.436 197.06 169.868 198.392 170.012 198.932ZM170.048 203.648C170.048 203.108 171.668 202.316 171.668 202.316V202.28C173.54 200.516 175.556 197.888 177.104 195.26L174.656 194.144C173.468 196.736 171.452 199.328 170.876 200.012C170.264 200.696 169.76 201.128 169.184 201.236C169.508 201.884 169.904 203.108 170.048 203.648ZM170.048 203.648C170.552 203.396 171.452 203.144 176.024 202.496C176.024 201.992 176.06 201.056 176.168 200.408L171.092 200.984L169.94 201.704L170.048 203.648ZM170.012 198.932C170.444 198.716 171.308 198.464 174.764 197.996C174.764 197.456 174.836 196.52 174.908 195.872L171.092 196.268L169.94 197.024L170.012 198.932ZM174.26 199.508C174.692 200.984 175.052 202.928 175.196 204.152L177.284 203.36C177.14 202.244 176.708 200.372 176.24 198.932L174.26 199.508ZM177.608 199.148C177.608 198.572 179.264 197.708 179.264 197.708V197.672C180.488 196.16 181.892 193.784 182.792 191.552L180.164 190.472C179.552 192.668 178.292 194.936 177.896 195.512C177.536 196.088 177.14 196.484 176.708 196.592C176.996 197.276 177.428 198.608 177.608 199.148ZM177.896 203.864C177.896 203.288 179.552 202.532 179.552 202.532V202.46C181.532 200.624 183.692 197.924 185.42 195.152L182.972 194.036C181.64 196.736 179.48 199.472 178.796 200.156C178.184 200.876 177.644 201.308 177.068 201.452C177.356 202.064 177.752 203.324 177.896 203.864ZM177.896 203.864C178.4 203.576 179.3 203.36 183.98 202.676C183.944 202.172 184.016 201.236 184.088 200.624L178.976 201.164L177.824 201.92L177.896 203.864ZM177.608 199.148C178.04 198.932 178.904 198.68 182.432 198.176C182.396 197.636 182.504 196.736 182.576 196.088L178.688 196.484L177.5 197.24L177.608 199.148ZM182.576 199.256C183.116 200.768 183.62 202.82 183.764 204.08L186.104 203.324C185.888 202.136 185.348 200.156 184.772 198.68L182.576 199.256ZM170.156 214.376C170.156 213.8 171.704 212.972 171.704 212.972V212.936C172.748 211.784 173.972 209.912 174.764 208.076L172.28 207.032C171.776 208.832 170.696 210.596 170.372 211.064C170.048 211.532 169.688 211.82 169.292 211.892C169.616 212.576 170.012 213.8 170.156 214.376ZM170.192 219.344C170.192 218.804 171.812 218.048 171.812 218.048V217.976C173.72 216.212 175.736 213.62 177.32 211.028L174.872 209.912C173.648 212.468 171.632 215.06 171.02 215.708C170.408 216.392 169.904 216.824 169.364 216.932C169.652 217.58 170.048 218.804 170.192 219.344ZM170.192 219.344C170.696 219.092 171.632 218.84 176.204 218.192C176.168 217.688 176.24 216.752 176.312 216.104L171.272 216.68L170.12 217.4L170.192 219.344ZM170.156 214.376C170.624 214.124 171.452 213.872 174.98 213.368C174.98 212.828 175.052 211.928 175.124 211.28L171.236 211.676L170.084 212.432L170.156 214.376ZM174.404 215.204C174.836 216.68 175.232 218.624 175.34 219.848L177.428 219.092C177.32 217.94 176.852 216.068 176.384 214.628L174.404 215.204ZM177.968 214.556C177.968 214.016 179.552 213.188 179.552 213.188V213.116C180.668 211.856 181.928 209.876 182.756 207.932L180.236 206.888C179.732 208.796 178.544 210.704 178.22 211.208C177.896 211.676 177.5 212 177.104 212.108C177.428 212.756 177.824 214.016 177.968 214.556ZM178.184 219.56C178.184 219.02 179.84 218.228 179.84 218.228V218.192C181.856 216.356 184.016 213.62 185.708 210.92L183.296 209.768C181.964 212.432 179.804 215.168 179.12 215.852C178.472 216.572 177.932 217.004 177.392 217.148C177.68 217.796 178.076 219.02 178.184 219.56ZM178.184 219.56C178.724 219.272 179.624 219.056 184.268 218.372C184.268 217.868 184.304 216.932 184.412 216.32L179.264 216.86L178.112 217.616L178.184 219.56ZM177.968 214.556C178.436 214.34 179.264 214.088 182.792 213.584C182.792 213.044 182.864 212.144 182.972 211.496L179.048 211.892L177.896 212.648L177.968 214.556ZM182.9 214.88C183.404 216.428 183.944 218.444 184.088 219.704L186.428 218.948C186.212 217.76 185.636 215.78 185.06 214.304L182.9 214.88ZM197.3 198.428C195.284 201.92 191.972 205.448 188.948 207.716C189.596 208.76 190.676 211.208 191 212.18C194.6 209.192 198.596 204.404 201.08 199.976L197.3 198.428ZM196.328 190.472C194.96 192.884 192.044 195.836 189.416 197.564C190.064 198.428 191.108 200.228 191.576 201.2C194.78 198.968 198.2 195.44 200.432 192.092L196.328 190.472ZM193.736 206.564V224.24H198.164V202.46L197.948 202.316L193.736 206.564ZM202.304 207.608V211.748H220.808V207.608H202.304ZM199.964 219.092V223.196H222.86V219.092H199.964ZM201.08 197.132V201.236H221.924V197.132H201.08ZM209.504 199.508V220.82H214.004V199.508H209.504ZM207.812 191.624C208.856 193.46 209.972 195.908 210.368 197.42L214.58 195.908C214.112 194.324 212.852 192.02 211.772 190.256L207.812 191.624ZM233.408 206.456V209.876H250.868V206.456H233.408ZM232.868 212.612V216.14H251.444V212.612H232.868ZM243.668 207.536V223.592H247.448V207.536H243.668ZM236.648 207.68V214.556C236.648 216.392 235.856 219.884 232.796 221.756C233.696 222.332 234.992 223.484 235.568 224.24C239.348 221.648 240.32 216.896 240.32 214.592V207.68H236.648ZM229.124 196.736V199.544H238.196V196.736H229.124ZM245.828 196.736V199.544H254.936V196.736H245.828ZM253.244 191.804V219.164C253.244 219.704 253.064 219.92 252.488 219.92C251.948 219.92 250.148 219.92 248.564 219.848C249.14 220.964 249.716 222.98 249.824 224.132C252.596 224.168 254.468 224.06 255.8 223.34C257.096 222.62 257.492 221.396 257.492 219.236V191.804H253.244ZM229.52 191.804V194.9H236.864V201.524H229.52V204.62H240.932V191.804H229.52ZM255.44 191.804H243.272V204.692H255.44V201.596H247.376V194.9H255.44V191.804ZM226.964 191.804V224.24H231.212V191.804H226.964ZM262.604 194.936V199.148H293.924V194.936H262.604ZM275.744 190.436V224.24H280.28V190.436H275.744ZM276.248 206.708C273.224 211.892 267.284 216.788 261.056 219.2C262.028 220.064 263.432 221.828 264.116 222.908C270.524 219.956 276.32 214.448 279.848 208.076L276.248 206.708ZM280.1 206.996L276.536 208.4C280.064 214.556 285.752 219.992 292.016 222.872C292.736 221.648 294.14 219.848 295.22 218.912C289.028 216.644 283.124 211.964 280.1 206.996ZM266.96 205.412C268.616 206.888 270.884 208.976 271.964 210.272L274.808 207.248C273.656 206.024 271.316 204.044 269.696 202.676L266.96 205.412ZM268.4 199.364C267.392 203.756 265.196 207.572 262.028 209.876C263 210.524 264.656 211.928 265.376 212.72C268.724 209.912 271.28 205.412 272.612 200.156L268.4 199.364ZM284.168 205.556C286.472 207.464 289.784 210.128 291.296 211.748L294.284 208.76C292.628 207.212 289.208 204.656 286.976 202.964L284.168 205.556ZM285.392 199.364C284.636 203 282.944 206.348 280.532 208.4C281.54 208.868 283.376 209.984 284.204 210.668C286.616 208.256 288.596 204.44 289.568 200.12L285.392 199.364Z" fill="#727171"/>
</svg>
