<svg width="213" height="130" viewBox="0 0 213 130" fill="none" xmlns="http://www.w3.org/2000/svg">
<path d="M161.359 1.59766C161.359 1.54946 161.352 1.47371 161.345 1.39796C161.317 1.30154 161.317 1.21202 161.276 1.12938C161.276 1.10872 161.276 1.09495 161.269 1.08118C161.255 1.01231 161.221 0.99854 161.186 0.943448C161.152 0.853923 161.104 0.778172 161.042 0.695534C161.007 0.633556 160.966 0.585351 160.897 0.537145C160.828 0.468281 160.78 0.413189 160.711 0.35121C160.636 0.309892 160.58 0.275459 160.512 0.23414C160.47 0.206594 160.408 0.165276 160.381 0.151503C160.339 0.13773 160.305 0.13773 160.284 0.11707C160.202 0.103297 160.133 0.0757513 160.071 0.0550918C159.974 0.0413189 159.885 0.0206594 159.782 0.013773C159.747 0.013773 159.706 0 159.671 0H144.301C143.901 0 143.509 0.130843 143.206 0.392529L131.313 10.2677C130.824 10.6672 130.638 11.2938 130.79 11.893H116.273C115.873 11.893 115.481 12.0376 115.178 12.2855L106.997 19.0756L98.8087 12.2786C98.4988 12.0307 98.1132 11.8861 97.6931 11.8861H83.2453C83.2797 11.7621 83.2935 11.645 83.2935 11.5142C83.2935 10.9426 83.0042 10.4399 82.5635 10.1507L70.8221 0.392529C70.5053 0.130843 70.1196 0 69.7202 0H54.3152C54.267 0 54.2394 0.013773 54.1981 0.013773C54.1086 0.0206594 54.0122 0.0344324 53.9295 0.0550918C53.8538 0.0688648 53.7849 0.0964107 53.716 0.11707C53.6816 0.123957 53.6403 0.130843 53.6196 0.151503C53.5577 0.165276 53.5163 0.206594 53.4681 0.23414C53.3993 0.275459 53.3373 0.309892 53.2753 0.35121C53.1996 0.413189 53.1445 0.468281 53.0825 0.537145C53.0343 0.592237 52.993 0.640443 52.9379 0.695534C52.8759 0.778172 52.8346 0.853923 52.7864 0.943448C52.7726 0.99854 52.7382 1.01231 52.7175 1.08118C52.7175 1.09495 52.7175 1.10872 52.7175 1.12938C52.6831 1.21202 52.6624 1.30154 52.6624 1.39796C52.6486 1.46682 52.628 1.54946 52.628 1.59766C52.628 1.61144 52.6211 1.6321 52.6211 1.63898V16.803C52.6211 17.2851 52.8346 17.7465 53.1996 18.0563L64.4039 27.3462V41.8285C64.4039 42.3036 64.6311 42.765 64.9823 43.0818L76.8546 52.9364C77.1645 53.1912 77.5639 53.3358 77.9633 53.3358C78.2044 53.3358 78.4523 53.2876 78.6726 53.1774C79.2718 52.9088 79.6505 52.3372 79.6505 51.683V36.5328C79.6505 36.0576 79.437 35.6031 79.0583 35.2932L67.8815 25.9827V13.1601H80.6697C80.6628 13.2152 80.6628 13.2565 80.6422 13.3116C80.6422 13.3735 80.6146 13.4355 80.6146 13.4975C80.6146 13.4975 80.6077 13.525 80.6077 13.5319V28.696C80.6077 29.1711 80.835 29.6325 81.2 29.9424L92.3905 39.2392V53.7145C92.3905 54.2035 92.6178 54.6511 92.9896 54.9748L105.826 65.697C106.136 65.9518 106.535 66.0895 106.935 66.0895C106.962 66.0895 106.976 66.0827 107.004 66.0827C107.038 66.0827 107.059 66.0895 107.079 66.0895C107.486 66.0895 107.885 65.9518 108.202 65.697L121.024 54.9748C121.396 54.6511 121.61 54.2035 121.61 53.7145V39.2392L132.78 29.9424C133.145 29.6325 133.372 29.1642 133.372 28.696V13.5319C133.372 13.5182 133.365 13.4975 133.365 13.4975C133.365 13.4286 133.351 13.3667 133.331 13.2909C133.331 13.2496 133.331 13.2083 133.303 13.1601H146.098V25.9896L134.908 35.2932C134.536 35.6031 134.329 36.0576 134.329 36.5328V51.683C134.329 52.3441 134.701 52.9157 135.314 53.1774C135.555 53.2876 135.789 53.3358 136.03 53.3358C136.43 53.3358 136.822 53.1912 137.125 52.9364L148.977 43.0818C149.349 42.765 149.576 42.3105 149.576 41.8285V27.36L160.78 18.0632C161.152 17.7533 161.379 17.2988 161.379 16.8099V1.64587C161.379 1.6321 161.359 1.61144 161.359 1.59766ZM95.8888 37.9101V25.0461H104.421H109.572H109.586H118.098V37.9032L106.997 47.193L95.8888 37.9101Z" fill="white"/>
<path d="M120.763 72.3288C120.776 72.074 120.804 71.8536 120.811 71.5575C121.121 71.5575 121.444 71.5024 121.74 71.4335C121.768 71.4197 121.789 71.4197 121.823 71.4129C122.381 71.2131 122.856 70.8137 123.304 70.1182C123.545 69.7394 124.04 68.7202 123.689 67.825C123.214 66.5097 121.981 66.3995 119.757 66.186C117.471 65.9588 115.832 66.2618 114.386 67.1019C113.731 67.4738 113.132 67.9765 113.07 68.0385C113.043 68.0729 113.022 68.0936 112.988 68.1142C111.707 69.2987 110.405 71.1581 110.543 72.9554C110.619 73.9677 111.149 74.8836 112.092 75.531C112.148 75.5447 112.203 75.5585 112.251 75.5929C112.092 75.5447 111.92 75.531 111.7 75.531C111.645 75.531 111.569 75.531 111.5 75.5379C110.102 75.6825 108.546 76.8876 108.546 78.2856C108.546 78.3269 108.546 78.3475 108.546 78.382C108.677 80.4066 110.55 81.7288 113.284 81.7288C114.516 81.7288 115.722 81.4533 116.576 80.9919C119.991 79.1808 120.59 75.8891 120.735 72.6593L120.763 72.3288ZM115.191 71.6883C115.164 71.6539 115.129 71.6263 115.095 71.5988L115.343 71.3578C115.618 71.0616 115.777 70.9239 115.942 70.8344C115.687 71.103 115.46 71.406 115.302 71.7296C115.295 71.7503 115.295 71.7709 115.295 71.7916C115.246 71.7503 115.233 71.7159 115.191 71.6883ZM113.208 75.834C113.814 75.834 114.379 75.5723 114.833 75.2624C114.833 76.1645 114.826 77.0529 114.475 77.4041C114.269 77.6038 113.917 77.7966 113.663 77.8999C113.663 77.8448 113.649 77.8173 113.649 77.8035C113.573 77.3215 113.408 76.0475 112.375 75.6549C112.63 75.7582 112.912 75.834 113.208 75.834Z" fill="white"/>
<path d="M106.48 75.9096C106.232 75.82 105.936 75.7581 105.709 75.7581C105.757 75.6479 105.785 75.5446 105.826 75.4482C106.163 74.4978 106.48 73.6095 106.522 72.8589C106.549 72.5145 106.453 72.1564 106.253 71.8603C106.845 71.2612 107.265 70.4624 107.334 69.5947C107.375 69.0437 107.134 68.5204 106.728 68.1623C106.281 67.818 105.695 67.7009 105.172 67.8593C105.158 67.873 105.124 67.873 105.027 67.873C104.793 67.873 104.483 67.8111 104.111 67.7215C103.354 67.57 102.596 67.9281 102.259 68.603C102.087 68.9336 101.908 69.2503 101.742 69.5947L101.515 70.0079C101.185 70.607 101.281 71.3301 101.729 71.8465C101.742 71.8534 101.77 71.8603 101.784 71.8879C101.715 71.9292 101.625 71.9498 101.556 72.0118C100.909 71.4127 99.945 71.0408 98.8363 71.0408C98.127 71.0408 97.4383 71.2061 96.8736 71.4747C96.5568 71.6331 96.2056 71.8465 95.8751 72.1151C96.1919 70.4417 96.1092 68.6857 95.2759 67.0604C95.1451 66.7919 94.9316 66.5508 94.6699 66.3925C94.4358 66.2478 94.0433 66.0757 93.5061 66.0757C93.2926 66.0757 93.0585 66.1101 92.8313 66.1721C92.7899 66.179 92.7486 66.1996 92.7004 66.1996C92.3079 66.2892 91.874 66.4682 91.4953 66.723C91.3025 66.5095 91.0545 66.3649 90.786 66.2272C90.297 66.0481 89.7461 66.0137 89.3742 66.0137C88.5479 66.0137 87.446 66.1927 86.7918 67.0122C86.2409 67.6733 86.11 68.362 85.9861 68.8922C85.9379 69.147 85.8897 69.3468 85.8002 69.5396C85.752 69.6773 85.69 69.8013 85.6349 69.939C85.5385 68.5824 85.0013 67.3634 83.6791 66.599C83.5621 66.5233 83.445 66.4682 83.3417 66.4269C83.2108 66.3649 82.9767 66.2685 82.7494 66.1996C82.1779 66.0068 81.6201 65.9104 81.0967 65.9104C78.8242 65.9104 77.6948 67.7215 77.2954 68.3895C77.013 68.8165 76.7513 69.2848 76.5585 69.7462C76.5516 69.7668 76.5241 69.8013 76.5241 69.8357C75.3947 72.5008 76.4552 74.1397 77.8187 74.8215C77.8532 74.8353 77.8945 74.8559 77.9496 74.8766C78.1975 74.9524 78.4385 75.0074 78.714 75.0074C78.3283 76.4192 78.1837 77.8929 78.6382 79.1256C79.4646 81.3705 81.2 81.6185 81.9093 81.6185C83.0731 81.6185 84.1818 81.0538 85.0633 80.3858C85.4627 80.9436 86.1307 81.5014 87.3152 81.6667C87.4805 81.6735 87.6664 81.7011 87.8386 81.7011C89.5739 81.7011 90.8273 80.4822 91.571 79.7385L91.8121 79.5181C92.239 79.1118 92.7211 78.5815 93.1962 77.948C93.5819 80.2067 95.2484 81.6116 97.5416 81.6116C98.6297 81.6116 99.7384 81.2948 100.716 80.7163C101.026 81.0813 101.467 81.4463 102.107 81.6116C102.314 81.6667 102.541 81.7011 102.775 81.7011C104.208 81.7011 105.509 80.5786 106.012 80.069C106.666 79.4423 107.444 78.4438 107.424 77.3695C107.424 76.7497 107.045 76.1713 106.48 75.9096ZM90.9168 71.2819C90.9306 71.2474 90.9512 71.1992 90.9581 71.151L91.1234 71.6468C91.5573 73.9125 90.3934 75.579 89.7117 76.3228C89.7255 76.2195 89.7461 76.1299 89.7668 76.0542L89.7943 75.8751C90.1249 74.2568 90.4348 72.8864 90.9168 71.2819Z" fill="white"/>
<path d="M136.154 75.8408C136.319 75.3106 136.54 74.677 136.794 73.947C136.891 73.6854 136.994 73.4443 137.042 73.2791C137.187 72.8177 137.111 72.3425 136.856 71.9362C137.18 71.5643 137.483 71.0478 137.669 70.3523C137.703 70.2146 137.717 70.0768 137.717 69.9391V69.4915C137.717 68.9819 137.476 68.4998 137.063 68.1899C136.636 67.8801 136.106 67.7699 135.596 67.9145C135.307 67.9765 135.162 67.9696 134.722 67.825C134.122 67.6528 133.441 67.8112 133 68.2519C132.373 68.8579 132.125 69.6017 131.933 70.2077L131.85 70.4349C131.74 70.7379 131.726 71.0547 131.816 71.399C131.829 71.4404 131.857 71.5161 131.891 71.5988C131.898 71.6263 131.919 71.6538 131.933 71.6883C131.685 71.4197 131.347 71.2131 130.968 71.1442C130.135 70.9927 129.385 71.344 128.916 71.6263C128.324 71.2613 127.608 71.0616 126.781 71.0616H126.775C125.019 71.0616 121.679 73.3204 120.818 76.2747C120.405 77.7208 120.666 79.2978 121.5 80.3721C122.292 81.3913 123.545 81.8803 124.819 81.7288C125.549 81.6324 126.169 81.3156 126.664 80.9575C126.905 81.2467 127.188 81.4602 127.587 81.5979C127.635 81.6186 127.697 81.6186 127.739 81.6324C128.09 81.7219 128.42 81.7563 128.744 81.7563C129.839 81.7563 130.617 81.3018 131.148 80.8886C131.416 81.1916 131.774 81.4877 132.277 81.7288C132.511 81.8252 132.759 81.8803 133.007 81.8803C133.021 81.8803 133.055 81.8803 133.083 81.8803C135.011 81.7907 137.951 79.8625 137.917 77.5142C137.924 76.5777 137.111 75.8133 136.154 75.8408Z" fill="white"/>
<path d="M109.578 23.3934H94.2005L82.3145 13.532H97.6988L109.578 23.3934Z" fill="#86B629"/>
<path d="M82.3145 13.532L94.2005 23.3934V38.5643L82.3145 28.696V13.532Z" fill="#1A2D76"/>
<path d="M94.0908 38.564L106.927 49.3V64.4434L94.0908 53.7073V38.564Z" fill="#312549"/>
<path d="M81.5849 11.521H66.1867L54.3145 1.64575H69.7195L81.5849 11.521Z" fill="#349ACE"/>
<path d="M54.3145 1.64575L66.1867 11.521V26.6781L54.3145 16.8098V1.64575Z" fill="#1A2D76"/>
<path d="M66.1045 26.6777L77.963 36.5323V51.6757L66.1045 41.8349V26.6777Z" fill="#312549"/>
<path d="M104.428 23.3934H119.798L131.657 13.532H116.266L104.428 23.3934Z" fill="#86B629"/>
<path d="M131.656 13.532L119.798 23.3934V38.5643L131.656 28.696V13.532Z" fill="#1A2D76"/>
<path d="M119.902 38.564L107.072 49.3V64.4434L119.902 53.7073V38.564Z" fill="#312549"/>
<path d="M132.407 11.521H147.805L159.671 1.64575H144.3L132.407 11.521Z" fill="#349ACE"/>
<path d="M159.671 1.64575L147.806 11.521V26.6781L159.671 16.8098V1.64575Z" fill="#1A2D76"/>
<path d="M147.874 26.6777L136.022 36.5323V51.6757L147.874 41.8349V26.6777Z" fill="#312549"/>
<path fill-rule="evenodd" clip-rule="evenodd" d="M119.597 67.8178C117.642 67.6457 116.347 67.8798 115.231 68.5271C114.715 68.8164 114.205 69.264 114.205 69.264C112.835 70.5104 111.251 72.9345 113 74.1396C113.344 74.36 114.068 73.8642 114.315 73.4992C114.364 73.4165 114.364 73.3752 114.364 73.265C114.336 73.1342 113.641 72.5902 113.4 72.2458C113.069 71.4677 113.434 70.903 113.868 70.476C114.398 69.9389 114.798 69.4155 115.672 69.1607C117.793 68.5409 119.405 70.3383 121.298 69.8493C121.491 69.7805 121.725 69.4981 121.829 69.3122C121.973 69.0643 122.18 68.5822 122.104 68.3825C122.021 68.1346 121.787 68.0313 119.597 67.8178Z" fill="#349ACE"/>
<path fill-rule="evenodd" clip-rule="evenodd" d="M105.631 69.4432C105.032 69.6223 104.337 69.4639 103.779 69.3606C103.524 69.822 103.269 70.304 103.021 70.7792C104.068 71.9361 105.528 70.7172 105.631 69.4432Z" fill="#349ACE"/>
<path fill-rule="evenodd" clip-rule="evenodd" d="M136.035 69.9323C136.035 69.7808 136.035 69.65 136.035 69.4847C135.347 69.6775 134.803 69.588 134.217 69.4089C133.825 69.7808 133.667 70.3799 133.467 70.9515C133.481 70.9997 133.501 71.041 133.515 71.0961C134.94 71.5506 135.712 71.1719 136.035 69.9323Z" fill="#349ACE"/>
<path fill-rule="evenodd" clip-rule="evenodd" d="M118.834 70.9168C118.661 70.9512 117.222 71.5917 116.864 72.363C116.052 74.3118 117.202 77.1078 115.673 78.5815C114.957 79.2426 113.104 80.2067 112.195 79.0153C111.899 78.609 111.988 77.1078 111.699 77.1491C110.928 77.2386 110.232 77.9548 110.232 78.2716C110.377 80.3582 114.158 80.3857 115.755 79.5456C118.207 78.244 118.889 76.0541 119.047 72.5627C119.082 71.9704 119.102 71.7156 119.13 71.0476C119.137 70.9168 119.02 70.8824 118.834 70.9168Z" fill="#349ACE"/>
<path fill-rule="evenodd" clip-rule="evenodd" d="M103.939 78.3335C103.794 78.2509 103.649 78.0994 103.574 77.9341C103.202 76.9356 104.765 74.0157 104.841 72.7624C104.014 72.8174 103.333 73.0034 102.727 73.2582C102.485 73.3133 102.238 74.0639 101.886 75.4825V75.4963C101.762 75.8337 101.687 76.1574 101.611 76.4397C101.363 77.1422 101.053 77.6862 100.557 78.0856C100.502 78.1269 100.447 78.1682 100.399 78.2096C100.364 78.2233 100.323 78.244 100.296 78.2715H100.282C100.213 78.3129 100.165 78.3335 100.096 78.368C98.8907 78.9877 96.9763 78.6847 96.935 77.1008C97.9886 76.0541 101.459 75.9508 100.619 73.4854C100.213 72.6591 98.6153 72.4869 97.6512 72.9483C96.4254 73.5405 94.5591 75.634 94.8828 77.6311C95.3649 80.5785 98.5258 80.3857 100.316 78.9946C100.55 78.8156 100.757 78.6021 100.922 78.423C101.012 78.3266 101.136 78.3404 101.211 78.423C101.68 78.8775 101.852 79.8417 102.568 80.0207C103.615 80.2962 105.763 78.3404 105.75 77.3901C105.392 77.6518 105.151 77.9823 104.765 78.1614C104.531 78.2509 104.235 78.4093 103.939 78.3335ZM96.8868 75.8819C96.6802 75.028 97.0796 74.2912 97.5961 73.7196C97.9473 73.3821 98.4776 73.1755 98.8494 73.389C98.9045 73.4441 98.9596 73.4785 99.0147 73.513C99.0905 73.6025 99.1387 73.7127 99.1731 73.8504C99.2075 74.1603 99.1387 74.5184 99.0009 74.8627C98.9872 74.9316 98.9596 74.9591 98.9321 75.0349C98.6222 75.6616 98.0299 76.1712 97.4377 76.123C97.2449 76.0954 96.9694 76.0748 96.8868 75.8819Z" fill="#349ACE"/>
<path fill-rule="evenodd" clip-rule="evenodd" d="M136.173 77.5142C135.622 77.9205 135.416 78.4508 134.472 78.437C134.403 78.437 134.348 78.4232 134.321 78.375C133.57 77.3627 135.071 73.8437 135.429 72.7694C134.906 72.8383 133.425 72.9898 133.164 73.3617C131.986 75.0764 132.709 78.437 129.748 78.437C129.734 78.437 129.672 78.437 129.645 78.375C129.61 78.3131 129.59 78.258 129.535 78.1822C128.887 76.6672 130.967 74.1743 130.643 72.7763C129.989 72.6455 129.411 73.5614 128.536 73.6027C128.261 73.0931 127.765 72.7006 126.773 72.7212C125.795 72.7212 123.103 74.4497 122.455 76.7223C121.946 78.4577 122.855 80.2964 124.618 80.0829C125.609 79.9589 126.339 78.9742 126.973 78.437C127.048 78.375 127.131 78.375 127.179 78.437C127.489 78.926 127.861 79.952 128.137 80.0347C130.161 80.4961 130.354 78.6712 131.704 78.5885C132.089 79.2496 132.234 79.8763 133.012 80.2413C134.245 80.1793 136.242 78.7607 136.235 77.5142C136.235 77.4798 136.194 77.4798 136.173 77.5142ZM125.168 78.5816C123.564 78.1202 125.313 74.6977 125.719 74.133C125.967 73.7886 126.346 73.3755 126.677 73.3066C126.911 73.2653 127.186 73.3204 127.386 73.4099C129.018 74.2914 126.745 79.0224 125.168 78.5816Z" fill="#349ACE"/>
<path fill-rule="evenodd" clip-rule="evenodd" d="M93.2432 67.7628C93.2295 67.7628 93.2088 67.7835 93.195 67.7835C93.1813 67.7835 93.1537 67.7835 93.1262 67.7903C92.5133 67.935 91.8866 68.4514 91.9555 68.6649C92.2309 69.5326 92.5064 70.3797 92.7681 71.2474C93.3534 74.002 92.0794 76.2814 90.8054 77.6036C90.3922 78.0305 89.435 79.2563 88.4916 78.7674C87.493 78.306 87.9062 76.5982 88.1266 75.5445C88.4916 73.8298 88.7946 72.4594 89.2973 70.8066C89.5727 69.8838 90.0617 68.8509 90.1925 67.7766C89.6829 67.5975 88.464 67.6182 88.1197 68.0245C87.6376 68.6443 87.7203 69.3605 87.3828 70.1662C86.4532 72.3561 85.9711 75.1107 85.0139 77.2386C84.6971 77.9341 83.0444 79.7453 82.3075 78.2716C82.032 77.5554 82.4728 76.5637 82.6449 76.0266C83.3267 73.9193 85.1723 69.2916 82.7965 67.9832C82.7689 67.9625 82.7207 67.9418 82.6518 67.9281C82.5348 67.8661 82.2455 67.7766 82.2249 67.7766C80.3793 67.1155 79.4634 68.0314 78.7472 69.2503C78.4993 69.6084 78.272 70.0078 78.093 70.4416C77.6178 71.5779 77.5007 72.8175 78.5682 73.3408C78.8367 73.4441 79.3188 73.0723 79.4841 72.7486C79.5116 72.6797 79.5323 72.6178 79.5185 72.5627C79.5116 71.9429 78.94 71.5022 78.7747 70.9375C78.4442 69.753 80.0832 67.9419 81.2263 68.2586C82.3488 68.72 82.1009 70.2213 81.7359 71.3851C81.2263 73.0172 79.4909 76.5706 80.2278 78.5677C81.3159 81.4876 84.3803 79.1048 85.3513 77.7344C85.4271 77.7344 85.4822 77.7344 85.5579 77.7344C86.4119 78.4919 85.8954 79.7866 87.5688 80.0138C88.8772 80.2136 89.9997 78.9051 90.6401 78.3198C92.651 76.4329 95.6466 71.5366 93.7528 67.7697C93.7666 67.7835 93.6013 67.6939 93.2432 67.7628Z" fill="#349ACE"/>
<path d="M15.175 100.918C15.225 112.368 16.35 124.393 21 124.393C23.125 124.393 23.975 123.268 24.4 118.918C23.65 118.568 22.7 117.918 22.075 117.268C22 120.218 21.775 121.518 21.325 121.518C19.45 121.518 17.925 111.293 18.125 100.918H15.175ZM6.125 108.368V110.668H14.7V108.368H6.125ZM20.6 108.818C19.55 115.043 17.2 119.743 12.775 122.393C13.375 122.868 14.45 123.943 14.85 124.493C19.425 121.343 22.05 116.193 23.35 109.218L20.6 108.818ZM18.575 102.443C19.7 103.068 21.125 104.068 21.8 104.768L23.55 102.893C22.8 102.218 21.35 101.293 20.225 100.743L18.575 102.443ZM4.175 104.318V107.018H23.925V104.318H4.175ZM2.6 104.318V111.568C2.6 114.893 2.425 119.368 0.5 122.493C1.125 122.818 2.3 123.768 2.775 124.293C5 120.843 5.375 115.318 5.375 111.568V104.318H2.6ZM5.875 112.868V114.868H14.975V112.868H5.875ZM5.725 117.618C8.15 118.718 11.15 120.468 12.775 121.718L14.775 119.993C13.075 118.843 10.1 117.168 7.7 116.118L5.725 117.618ZM5.725 117.618L8.075 118.143C8.975 116.068 10.1 112.743 10.725 109.993L8.35 109.718C7.825 112.318 6.7 115.568 5.725 117.618ZM12 111.593C11.375 116.943 9.625 120.193 4.625 121.743C5.125 122.218 5.7 123.093 5.975 123.718C11.625 121.668 13.7 118.143 14.5 111.868L12 111.593ZM27.6 121.068L29.1 123.443C30.925 122.543 33.175 121.393 35.25 120.293L34.625 118.068C32.05 119.218 29.35 120.393 27.6 121.068ZM36.075 113.118V121.493C36.075 121.793 35.95 121.893 35.6 121.893C35.25 121.893 34 121.893 32.925 121.843C33.25 122.543 33.65 123.593 33.775 124.318C35.525 124.318 36.8 124.293 37.7 123.918C38.625 123.518 38.875 122.868 38.875 121.543V113.118H36.075ZM39.425 120.043C41.25 121.018 43.625 122.518 44.925 123.493L46.725 121.418C45.4 120.518 43.05 119.118 41.175 118.218L39.425 120.043ZM31.025 116.168C31.8 116.868 32.725 117.893 33.125 118.568L35.3 117.018C34.85 116.343 33.875 115.393 33.1 114.743L31.025 116.168ZM41.9 114.543C41.325 115.318 40.275 116.468 39.525 117.143L41.6 118.493C42.35 117.893 43.4 116.968 44.275 115.993L41.9 114.543ZM26.1 110.043V112.468H48.875V110.043H26.1ZM28.8 106.493V108.768H46.6V106.493H28.8ZM27.525 102.918V105.318H47.6V102.918H27.525ZM42.3 110.393L39.775 111.218C41.475 114.343 44.275 116.893 47.675 118.218C48.1 117.468 48.95 116.343 49.625 115.768C46.45 114.793 43.7 112.768 42.3 110.393ZM35.825 100.818C35.35 106.993 32.775 112.968 25.55 116.293C26.275 116.718 27.325 117.718 27.725 118.443C35.175 114.593 38.075 108.018 38.975 101.018L35.825 100.818ZM55.5 107.168V109.268H69.45V107.168H55.5ZM65.55 105.818C66.375 106.293 67.375 106.993 67.875 107.543L69.25 106.118C68.75 105.568 67.725 104.918 66.875 104.518L65.55 105.818ZM66.575 109.968C65.6 113.793 63.45 116.768 60.325 118.543C60.825 118.943 61.65 119.893 61.95 120.343C65.225 118.243 67.65 114.843 68.9 110.418L66.575 109.968ZM55.225 116.718L55.5 118.893C57.5 118.593 59.95 118.218 62.375 117.843L62.3 115.843C59.675 116.193 57.05 116.518 55.225 116.718ZM58.075 111.943H59.75V113.543H58.075V111.943ZM56.15 110.343V115.118H61.75V110.343H56.15ZM62.2 105.018C62.575 112.218 63.325 118.868 66.45 119.868C68.1 120.618 69.45 119.668 69.825 116.568C69.325 116.318 68.425 115.618 67.975 115.143C67.85 116.618 67.65 117.593 67.375 117.518C65.725 117.118 64.875 111.243 64.7 105.018H62.2ZM51.775 101.968V124.443H54.6V104.668H70.225V124.443H73.2V101.968H51.775ZM53.55 120.718V123.393H71.85V120.718H53.55ZM76.625 101.868V124.293H79.175V104.543H82.325V101.868H76.625ZM81.4 101.868V102.668C81.075 104.268 80.375 107.518 79.7 109.743C81.025 111.543 81.3 113.168 81.3 114.368C81.3 115.093 81.15 115.693 80.875 115.918C80.725 116.068 80.5 116.118 80.25 116.118C79.95 116.118 79.65 116.118 79.225 116.093C79.625 116.793 79.825 117.868 79.85 118.543C80.4 118.593 80.975 118.568 81.4 118.518C81.9 118.418 82.375 118.268 82.75 117.968C83.5 117.393 83.8 116.293 83.8 114.693C83.8 113.218 83.525 111.443 82.125 109.468C82.775 107.493 83.55 104.943 84.125 102.793L82.275 101.768L81.875 101.868H81.4ZM87.45 110.593V112.968H94.8V110.593H87.45ZM85.15 114.668V117.093H97.3V114.668H85.15ZM86.275 102.718V104.668H90.05V102.718H86.275ZM85.35 106.143C86.3 106.868 87.475 107.893 88.05 108.568L89.35 107.043C88.75 106.418 87.5 105.443 86.6 104.793L85.35 106.143ZM93.75 118.968C94.85 120.293 96.35 122.143 97.05 123.218L99.375 121.743C98.6 120.668 97.05 118.918 95.95 117.668L93.75 118.968ZM89.425 102.718V103.143C88.6 107.093 86.225 110.618 83.425 112.268C83.925 112.693 84.6 113.518 84.9 114.068C88.125 111.993 90.65 108.268 91.725 103.193L90.225 102.618L89.825 102.718H89.425ZM92.9 102.218V104.193H97.15V102.218H92.9ZM86.25 100.918C85.525 103.218 84.175 105.368 82.475 106.743C82.975 107.093 83.875 107.843 84.25 108.243C85.975 106.643 87.55 104.118 88.475 101.418L86.25 100.918ZM96.325 102.218V102.668C95.925 104.168 95.05 106.218 94.075 107.443C94.55 107.818 95.325 108.568 95.675 109.093C96.975 107.618 98.225 105.243 98.975 103.018L97.35 102.093L96.85 102.218H96.325ZM85.95 117.968C85.175 119.318 83.975 120.868 82.875 121.893C83.55 122.243 84.675 122.968 85.25 123.418C86.3 122.268 87.725 120.393 88.625 118.843L85.95 117.968ZM93.35 103.243L91.125 103.768C92.35 108.243 94.475 112.043 97.775 114.043C98.125 113.393 98.9 112.443 99.475 111.968C96.475 110.368 94.375 106.993 93.35 103.243ZM89.85 115.693V124.318H92.675V115.693H89.85ZM83.125 108.568L83.425 110.418C84.525 110.218 85.5 110.043 86.675 109.818L86.625 108.218C85.25 108.368 84.15 108.493 83.125 108.568ZM116.264 110.493V112.618H129.364V110.493H116.264ZM114.889 101.668V123.718H129.989V121.418H117.414V101.668H114.889ZM111.439 111.243C111.964 112.993 112.439 115.318 112.564 116.693L114.539 116.093C114.389 114.768 113.839 112.518 113.289 110.793L111.439 111.243ZM109.814 117.718C110.064 119.593 110.289 122.043 110.289 123.693L112.189 123.343C112.139 121.718 111.914 119.318 111.614 117.443L109.814 117.718ZM107.364 117.393C107.214 119.568 106.939 121.893 106.339 123.468C106.914 123.593 107.914 123.893 108.389 124.143C108.914 122.568 109.289 120.068 109.464 117.718L107.364 117.393ZM107.139 110.818C107.139 110.343 108.614 109.543 108.614 109.543V109.493C109.964 107.443 111.364 104.468 112.289 101.718L109.914 100.818C109.264 103.518 107.964 106.418 107.564 107.168C107.139 107.918 106.764 108.443 106.314 108.543C106.589 109.168 106.989 110.318 107.139 110.818ZM107.139 110.818C107.564 110.618 108.314 110.443 111.589 110.118C111.564 109.568 111.689 108.593 111.839 107.918L108.189 108.168L107.064 108.918L107.139 110.818ZM107.314 116.618C107.314 116.168 108.789 115.393 108.789 115.393V115.318C110.939 112.718 113.089 109.093 114.614 105.668L112.439 104.393C111.164 107.893 108.964 111.668 108.239 112.568C107.564 113.543 107.064 114.168 106.514 114.318C106.789 114.943 107.189 116.143 107.314 116.618ZM107.314 116.618C107.814 116.343 108.664 116.143 113.264 115.493C113.264 114.943 113.339 113.943 113.439 113.293L108.339 113.893L107.189 114.643L107.314 116.618ZM111.989 117.268C112.439 118.868 112.914 120.968 113.089 122.343L114.839 121.793C114.639 120.443 114.139 118.368 113.664 116.793L111.989 117.268ZM118.064 106.793C118.064 106.393 119.189 105.818 119.189 105.818V105.768C119.989 104.768 120.914 103.218 121.489 101.743L119.664 100.993C119.289 102.443 118.464 103.918 118.239 104.318C117.989 104.693 117.714 104.943 117.439 105.018C117.664 105.493 117.964 106.418 118.064 106.793ZM118.089 110.068C118.089 109.693 119.214 109.143 119.214 109.143V109.118C120.514 107.893 121.914 106.068 122.989 104.243L121.289 103.468C120.464 105.268 119.064 107.068 118.664 107.543C118.239 108.018 117.889 108.318 117.489 108.393C117.714 108.843 117.989 109.693 118.089 110.068ZM118.089 110.068C118.439 109.893 119.064 109.718 122.239 109.268C122.239 108.918 122.264 108.268 122.339 107.818L118.814 108.218L118.014 108.718L118.089 110.068ZM118.064 106.793C118.364 106.643 118.964 106.468 121.364 106.143C121.364 105.768 121.414 105.118 121.464 104.668L118.814 104.943L118.014 105.468L118.064 106.793ZM121.014 107.193C121.314 108.218 121.564 109.568 121.664 110.418L123.114 109.868C123.014 109.093 122.714 107.793 122.389 106.793L121.014 107.193ZM123.339 106.943C123.339 106.543 124.489 105.943 124.489 105.943V105.918C125.339 104.868 126.314 103.218 126.939 101.668L125.114 100.918C124.689 102.443 123.814 104.018 123.539 104.418C123.289 104.818 123.014 105.093 122.714 105.168C122.914 105.643 123.214 106.568 123.339 106.943ZM123.539 110.218C123.539 109.818 124.689 109.293 124.689 109.293V109.243C126.064 107.968 127.564 106.093 128.764 104.168L127.064 103.393C126.139 105.268 124.639 107.168 124.164 107.643C123.739 108.143 123.364 108.443 122.964 108.543C123.164 108.968 123.439 109.843 123.539 110.218ZM123.539 110.218C123.889 110.018 124.514 109.868 127.764 109.393C127.739 109.043 127.789 108.393 127.839 107.968L124.289 108.343L123.489 108.868L123.539 110.218ZM123.339 106.943C123.639 106.793 124.239 106.618 126.689 106.268C126.664 105.893 126.739 105.268 126.789 104.818L124.089 105.093L123.264 105.618L123.339 106.943ZM126.789 107.018C127.164 108.068 127.514 109.493 127.614 110.368L129.239 109.843C129.089 109.018 128.714 107.643 128.314 106.618L126.789 107.018ZM118.164 117.518C118.164 117.118 119.239 116.543 119.239 116.543V116.518C119.964 115.718 120.814 114.418 121.364 113.143L119.639 112.418C119.289 113.668 118.539 114.893 118.314 115.218C118.089 115.543 117.839 115.743 117.564 115.793C117.789 116.268 118.064 117.118 118.164 117.518ZM118.189 120.968C118.189 120.593 119.314 120.068 119.314 120.068V120.018C120.639 118.793 122.039 116.993 123.139 115.193L121.439 114.418C120.589 116.193 119.189 117.993 118.764 118.443C118.339 118.918 117.989 119.218 117.614 119.293C117.814 119.743 118.089 120.593 118.189 120.968ZM118.189 120.968C118.539 120.793 119.189 120.618 122.364 120.168C122.339 119.818 122.389 119.168 122.439 118.718L118.939 119.118L118.139 119.618L118.189 120.968ZM118.164 117.518C118.489 117.343 119.064 117.168 121.514 116.818C121.514 116.443 121.564 115.818 121.614 115.368L118.914 115.643L118.114 116.168L118.164 117.518ZM121.114 118.093C121.414 119.118 121.689 120.468 121.764 121.318L123.214 120.793C123.139 119.993 122.814 118.693 122.489 117.693L121.114 118.093ZM123.589 117.643C123.589 117.268 124.689 116.693 124.689 116.693V116.643C125.464 115.768 126.339 114.393 126.914 113.043L125.164 112.318C124.814 113.643 123.989 114.968 123.764 115.318C123.539 115.643 123.264 115.868 122.989 115.943C123.214 116.393 123.489 117.268 123.589 117.643ZM123.739 121.118C123.739 120.743 124.889 120.193 124.889 120.193V120.168C126.289 118.893 127.789 116.993 128.964 115.118L127.289 114.318C126.364 116.168 124.864 118.068 124.389 118.543C123.939 119.043 123.564 119.343 123.189 119.443C123.389 119.893 123.664 120.743 123.739 121.118ZM123.739 121.118C124.114 120.918 124.739 120.768 127.964 120.293C127.964 119.943 127.989 119.293 128.064 118.868L124.489 119.243L123.689 119.768L123.739 121.118ZM123.589 117.643C123.914 117.493 124.489 117.318 126.939 116.968C126.939 116.593 126.989 115.968 127.064 115.518L124.339 115.793L123.539 116.318L123.589 117.643ZM127.014 117.868C127.364 118.943 127.739 120.343 127.839 121.218L129.464 120.693C129.314 119.868 128.914 118.493 128.514 117.468L127.014 117.868ZM137.014 106.443C135.614 108.868 133.314 111.318 131.214 112.893C131.664 113.618 132.414 115.318 132.639 115.993C135.139 113.918 137.914 110.593 139.639 107.518L137.014 106.443ZM136.339 100.918C135.389 102.593 133.364 104.643 131.539 105.843C131.989 106.443 132.714 107.693 133.039 108.368C135.264 106.818 137.639 104.368 139.189 102.043L136.339 100.918ZM134.539 112.093V124.368H137.614V109.243L137.464 109.143L134.539 112.093ZM140.489 112.818V115.693H153.339V112.818H140.489ZM138.864 120.793V123.643H154.764V120.793H138.864ZM139.639 105.543V108.393H154.114V105.543H139.639ZM145.489 107.193V121.993H148.614V107.193H145.489ZM144.314 101.718C145.039 102.993 145.814 104.693 146.089 105.743L149.014 104.693C148.689 103.593 147.814 101.993 147.064 100.768L144.314 101.718ZM162.089 112.018V114.393H174.214V112.018H162.089ZM161.714 116.293V118.743H174.614V116.293H161.714ZM169.214 112.768V123.918H171.839V112.768H169.214ZM164.339 112.868V117.643C164.339 118.918 163.789 121.343 161.664 122.643C162.289 123.043 163.189 123.843 163.589 124.368C166.214 122.568 166.889 119.268 166.889 117.668V112.868H164.339ZM159.114 105.268V107.218H165.414V105.268H159.114ZM170.714 105.268V107.218H177.039V105.268H170.714ZM175.864 101.843V120.843C175.864 121.218 175.739 121.368 175.339 121.368C174.964 121.368 173.714 121.368 172.614 121.318C173.014 122.093 173.414 123.493 173.489 124.293C175.414 124.318 176.714 124.243 177.639 123.743C178.539 123.243 178.814 122.393 178.814 120.893V101.843H175.864ZM159.389 101.843V103.993H164.489V108.593H159.389V110.743H167.314V101.843H159.389ZM177.389 101.843H168.939V110.793H177.389V108.643H171.789V103.993H177.389V101.843ZM157.614 101.843V124.368H160.564V101.843H157.614ZM182.364 104.018V106.943H204.114V104.018H182.364ZM191.489 100.893V124.368H194.639V100.893H191.489ZM191.839 112.193C189.739 115.793 185.614 119.193 181.289 120.868C181.964 121.468 182.939 122.693 183.414 123.443C187.864 121.393 191.889 117.568 194.339 113.143L191.839 112.193ZM194.514 112.393L192.039 113.368C194.489 117.643 198.439 121.418 202.789 123.418C203.289 122.568 204.264 121.318 205.014 120.668C200.714 119.093 196.614 115.843 194.514 112.393ZM185.389 111.293C186.539 112.318 188.114 113.768 188.864 114.668L190.839 112.568C190.039 111.718 188.414 110.343 187.289 109.393L185.389 111.293ZM186.389 107.093C185.689 110.143 184.164 112.793 181.964 114.393C182.639 114.843 183.789 115.818 184.289 116.368C186.614 114.418 188.389 111.293 189.314 107.643L186.389 107.093ZM197.339 111.393C198.939 112.718 201.239 114.568 202.289 115.693L204.364 113.618C203.214 112.543 200.839 110.768 199.289 109.593L197.339 111.393ZM198.189 107.093C197.664 109.618 196.489 111.943 194.814 113.368C195.514 113.693 196.789 114.468 197.364 114.943C199.039 113.268 200.414 110.618 201.089 107.618L198.189 107.093Z" fill="#727171"/>
</svg>
