<svg width="415" height="599" viewBox="0 0 415 599" fill="none" xmlns="http://www.w3.org/2000/svg">
<g clip-path="url(#clip0_2630_10520)">
<g opacity="0.3">
<path d="M411.74 428.28V595.79H37.7L223.45 247.2L229.81 235.33C234.9 226 237.44 216.82 237.44 207.76C237.44 184.86 224.01 173.41 197.15 173.41C186.69 173.41 177.57 177.3 169.8 185.07C162.02 192.85 158.14 201.97 158.14 212.42C158.14 224.29 163.23 235.04 173.41 244.65L99.19 376.96C68.09 357.74 44.2 333.28 27.52 303.59C10.83 273.9 2.5 241.11 2.5 205.2C2.5 149.51 22.15 101.8 61.45 62.07C100.74 22.37 148.24 2.5 203.94 2.5C259.64 2.5 307.48 22.15 346.65 61.45C385.8 100.75 405.39 148.53 405.39 204.79C405.39 237.02 398.18 266.99 383.76 294.7L315.06 428.29H411.75L411.74 428.28Z" stroke="#C4B797" stroke-width="5" stroke-miterlimit="10"/>
</g>
</g>
<defs>
<clipPath id="clip0_2630_10520">
<rect width="414.24" height="598.3" fill="white"/>
</clipPath>
</defs>
</svg>
