<?xml version="1.0" encoding="utf-8"?>
<!-- Generator: Adobe Illustrator 26.5.0, SVG Export Plug-In . SVG Version: 6.00 Build 0)  -->
<svg version="1.1" id="圖層_1" xmlns="http://www.w3.org/2000/svg" xmlns:xlink="http://www.w3.org/1999/xlink" x="0px" y="0px"
	 viewBox="0 0 338 445" style="enable-background:new 0 0 338 445;" xml:space="preserve">
<style type="text/css">
	.st0{fill:#474747;}
	.st1{fill:#474747;stroke:#474747;stroke-width:0.1;stroke-linecap:round;stroke-linejoin:round;stroke-miterlimit:10;}
</style>
<path class="st0" d="M156.5,254c0,0.6,0.1,1.8-0.4,2.1c-0.7-0.5-0.1-2.1-1.1-2.3c0,0,0,0,0,0c0,0,0,0-0.1,0c0,0,0,0,0,0
	c-1.1-0.1,0,2.8,0.5,3.1C158,258.7,157.8,251.6,156.5,254z M315.5,391.2c-0.3,1.3,1.2,2,1.9,0.8c0.2-0.4,0.6-1.6-0.1-1.6
	c-0.6,0.3,0,1.7-1.1,1.6c-0.4-0.2-0.1-2.2-0.8-1.3l0,0C315.4,390.9,315.5,391,315.5,391.2z M260.2,417.5c-1.4-0.1-2.8-0.7-4-1.3h0
	c-0.1,0-0.1,0-0.2,0c0.1,0.4,0.3,0.8,0.4,1.1C257,417.7,261.7,419.1,260.2,417.5z M259.3,418.2c-0.1,0-0.3-0.1-0.4-0.1
	C259,418.1,259.2,418.2,259.3,418.2z M290.5,440.7c-3.2,2-0.8-5.7-2.9-6.7c-1,1.4-1.8,3.1-2.5,4.7c0.2-1.7,0.3-3.3,0-4.9
	c-0.8,1-0.9,2.3-1.5,3.4c-0.1-0.6-0.2-1.2-0.3-1.8H283c-0.9,2.6-0.2,5.7-1.5,8.3c-1.1-0.3-1.3-1.4-1.6-2.4l0,0
	c-0.8,1.1,0.1,2.7,1.3,2.9c1.6-0.3,1.2-2.5,1.7-3.9c0.8,0.8,1.3,1.6,1.4,2.7c0,0.4,0,0.8,0.7,1c0.3-3,0.4-6.3,2.4-8.8
	c0.9,2.2,0,9.8,3.5,5.2C290.8,440.5,290.6,440.6,290.5,440.7z M208.9,438.4c-0.6,0-1.3,0.1-1.7-0.3c0.1-0.2,0.2-0.5,0.2-0.7l0,0
	c0,0,0,0,0,0c0,0,0,0,0,0l0,0c-0.8,1.5-2.8,0.8-4.2,1c-12.9,0.3-26.3,1.4-38.5,5.4c1.8,0.7,5.4,0.6,7.3-0.2
	c-1.9,0.1-3.9,0.6-5.8-0.1c12.4-3.2,25.3-4.8,38.1-4.9c1-0.1,2.1,0,2.6,1c0-0.4,0-0.6-0.1-0.9c0.8-0.3,1.3,0.7,2.1,0.1
	c-0.1,0-0.1,0-0.2,0.1c0.1,0,0.1-0.1,0.2-0.1c0,0,0,0,0,0c0,0,0,0,0,0c0,0,0,0,0,0c0,0,0,0,0,0c0,0,0,0,0,0c0.5-0.1,1.1,0.1,1.5-0.4
	C210.1,438.4,209.5,438.4,208.9,438.4z M239.2,443.2c-1.6-4.3-2.3-9-3.9-13.3c0.5,4.2,1.6,7.5,2.6,11.4c-0.1,0-0.2,0-0.3,0.1
	c-0.4-1.2-0.8-2.3-1.2-3.4l0,0c0.1,2.4,1.5,5.6,2.8,6.1C239.2,443.7,239.2,443.5,239.2,443.2z M248.6,438.3L248.6,438.3
	c-0.2,0.5-0.3,0.8-0.4,1.1c-0.1,0-0.1,0-0.2,0c-0.1-0.8-0.2-1.6-0.3-2.4l0,0l0,0c0,0,0,0,0,0c-0.1,0-0.3,0.1-0.4,0.1
	c0,2.2,0.3,4.6,1.3,6.4C249.3,442,248.5,440.1,248.6,438.3z M229.2,440.9c-0.8-3.8-1.5-7.4-2-11.7h-0.2c-0.3,4.5,2.3,9,1.6,13.4
	C229.6,442.1,229.3,441.7,229.2,440.9z M227.6,434.2c-0.1-0.7-0.2-1.5-0.3-2.2C227.4,432.7,227.5,433.5,227.6,434.2z M304.1,440.8
	c-1.6-1.7-0.2-5.3-0.9-7.5c0,0-0.3,0-0.3,0c0.2,1.5-1,10.7,2.3,7.2C304.7,440.7,304.3,440.8,304.1,440.8z M231.6,440.5
	c-0.1,0-0.2,0-0.3,0c-0.2-3.7-0.3-11.4-0.5-15.2c0.1,0,0.2,0,0.3,0C231.5,428.9,231.3,436.7,231.6,440.5z M261.7,441.1L261.7,441.1
	c-0.3,0.5-0.6,1.1-0.9,1.7c-0.7-1.4,0-2.7-0.5-4.1c-1.1,2.3,0.2,7.9,1.7,2.5l0,0v0l0,0C261.9,441.1,261.8,441.1,261.7,441.1z
	 M260.5,441.7C260.5,441.6,260.5,441.6,260.5,441.7C260.5,441.6,260.5,441.6,260.5,441.7z M219.3,439.3c-2.7,0.2-5.1,0.4-7.5,0.6
	l0,0C214.2,439.4,216.7,438.9,219.3,439.3z M153,422c-0.5-0.6-0.3-1.4-0.6-2.1c-0.2,0-0.4-0.1-0.7-0.1c-0.9-4.1-1.6-8.4-2.2-12.5
	c-0.1,0-0.1,0-0.2,0c0.8,6.7,1.3,14.2,3.6,20.4c0.2-1-0.4-1.9-0.2-3c0.4,0.4,0.8,0.9,1.5,0.9c0.2-1.3-0.3-2.4-0.8-3.4
	C153.1,422.1,153.1,422.1,153,422z M151.2,417.2c0.1,0.7,0.2,1.3,0.3,2C151.4,418.5,151.3,417.8,151.2,417.2z M215.5,426
	c-4.6,0.9-9-2-13.4-2c2,2.9-2.5,2.3-2.3-0.3c-1,1.1-0.1,3-1.2,4.2c-3.8-3.5-1.1-12.7-0.4-16.9c-1.8,5.2-3.3,12.3-0.1,17
	c1.4,0.8,1.4-1.4,1.8-2.3c1.4,1,3.5,0.9,3.4-1.2c5.4,1.4,11,2.3,16.5,1.7C218.4,425.8,217,425.7,215.5,426z M119.8,423.9
	c-0.5,0-1,0.1-1.3-0.3c0.1-0.2,0.1-0.4,0.2-0.5l0,0c-0.6,1.1-1.9,0.7-2.9,0.8c-10.1,0.2-20.5,1.1-30.1,4.2c1.5,0.6,4.6,0.4,5.7-0.1
	c-1.5,0.1-3,0.4-4.4,0c9.9-2.5,20.4-3.9,30.6-3.7c0,0-0.1,0-0.1,0c0.1,0,0.1,0,0.2,0c0,0,0,0,0,0c0,0,0,0,0,0c0,0,0,0,0,0
	c0,0,0,0,0,0c0,0,0,0,0,0c0.2,0.1,0.4,0.2,0.6,0.4c0,0,0,0,0,0c0.1,0.1,0.1,0.2,0.2,0.2c0,0,0,0,0,0c0,0.1,0.1,0.1,0.1,0.2
	c0-0.2,0-0.5-0.1-0.7c0.6-0.3,0.9,0.5,1.5,0.2c0.4-0.2,1,0.1,1.4-0.4C120.6,423.9,120.2,423.9,119.8,423.9z M107.3,424.5
	c-0.4,0-0.9,0.1-1.3,0.1C106.4,424.5,106.9,424.5,107.3,424.5z M110.6,424.3c-0.6,0-1.3,0.1-1.9,0.1
	C109.3,424.3,109.9,424.3,110.6,424.3z M173.2,410.3c0.1-2,0.1-3.9,0.7-5.8c-2.3,6.9-1.6,15.7-0.3,23c0,0,0.3-0.1,0.3-0.1
	C172.9,421.8,172.9,416.1,173.2,410.3z M142.8,426.3c-1.3-2.8-1.4-6.1-2.7-8.9c0.4,3.1,1.2,5.9,2,8.8c-0.1,0-0.1,0-0.2,0.1
	c-0.3-0.9-0.7-1.8-0.9-2.7h0c0.1,1.6,0.8,3.9,2.2,4.7C143.3,427.6,143.1,426.9,142.8,426.3z M140.9,421.4c-0.1-0.4-0.2-0.9-0.3-1.3
	C140.7,420.5,140.8,421,140.9,421.4z M146.9,424.8c-0.4-1.4-4.7-7.1-2.1-7.2c0,0,0-0.1,0-0.1h-1.3c0,0.5,0.1,1.2,0.3,1.8
	c0,0,0,0,0,0c0.7,2.1,1.6,4.9,3.3,6.4C147.1,425.1,147,425.1,146.9,424.8z M150.4,423.9L150.4,423.9c-0.1,0.4-0.2,0.6-0.3,0.9
	c-0.1,0-0.1,0-0.2,0c-0.1-0.6-0.2-1.3-0.3-1.9c-0.1,0-0.2,0-0.3,0.1c0,1.7,0.2,3.5,1,5C151,426.7,150.4,425.3,150.4,423.9z
	 M135.5,426c-0.6-3-1.2-5.8-1.5-9.2h-0.1c-0.3,3.3,1.8,7,1.3,10.4C135.6,426.8,135.6,426.6,135.5,426z M137.3,425.6
	c-0.1,0-0.2,0-0.2,0v0h0v0h0h0v0h0c-0.1-2.9-0.3-8.9-0.4-11.7c0.1,0,0.1,0,0.2,0C137.2,416.6,137.1,422.6,137.3,425.6z M160.7,426
	C160.7,426,160.6,426,160.7,426c-0.3,0.4-0.5,0.7-0.8,1.2c-0.6-1.1,0-2.1-0.4-3.2C158.6,425.9,159.7,430.1,160.7,426
	C160.8,426,160.7,426,160.7,426z M299.1,408.6c4-2.8,7.1-7.2,11.8-8.9h0c2.2-0.4,4.4,0.1,6.6,0.4c3.9,0.1,0.5-1.7-1-2.2
	c2.7,0,5.4,0.2,8-0.6c1.9-0.9,5.5-1.1,6.2-3.4c0.1-0.8-0.3-1.7-1.2-1.7c-2.8-0.7-6.3,0.1-8.9-1.2c-0.4-1.4-0.4-3.1-1.9-3.8
	c1.7-1.5,1.8-16.6-0.7-8.9c-2,2.2-2.6,5.7-3.6,8.5c-0.3,0-0.6,0.1-0.9,0.1c0.3-1.7-4-17.9-4.3-9.6c-1.5,1.1-0.5,7.8-0.6,9.8
	l-1.9,0.1c-3.2,0.4-6.2,1.9-9.3,2.7c-4.8,1.6-10,2-15,2.4c-0.2-0.3-0.7-0.2-0.9,0c-0.1,0-0.2,0-0.3,0.1c-0.5,0-0.9,0-1.4,0
	c-10.9-1.5-20.2-9.1-29.8-14.1c-13.8-7.3-26.9-15.4-39-25.3c-1.5-1.5-3.4-2.6-4.9-4.1c0,0-0.5-0.5-0.5-0.4c0,0,0.3-0.4,0.2-0.4
	c1.1,1,1.7-1,1.4-1.9c-2.1-7.1-11.1-9.2-16-14.1c-6.6-5.1-11.9-11.6-16.1-18.7c-6.2-8.9-10.2-31.1-21.1-33.3c0,0,0,0,0-0.1
	c0,0-0.1,0.1-0.2,0c0,0,0,0,0,0c-0.1,0-0.1,0-0.2,0c0,0,0,0,0,0c0,0,0,0,0.1,0c0,0,0.1,0,0.2,0c0.1-0.1,0.1-0.1,0.1-0.2
	c4.1-0.1,1.1-9.7,1-12.4c0-0.3-0.1-0.6-0.1-0.9c1.7,0.3,5.1-2.7,2.5-3.7c-0.3-0.2-0.6-0.4-0.9-0.6c1.9,0,3.8,0.5,3.6-2.1
	c0-0.1,0-0.2,0.1-0.3c2.7,0.3,6.4-1.5,2-3c-2.1-1.1-1.5-4-2.6-5.9h-0.8c0,0,0-0.2,0-0.2c-0.8,0-1.6,0-2.3,0.1
	c0.1,0.2,0.2,0.4,0.2,0.6l0.4-0.1l0,0c-0.6,0.2-1.5,0.2-2.2,0.4c-0.1,0-0.3,0-0.2-0.1l0.1,0l0-0.4c-1.4,0.3-2.8,0.3-4.2,0.6l0,0.1
	c-0.4-0.1-0.4-0.6,0-0.7c-0.7,0.2-0.4,1.5-0.6,2.1c-0.3,1.7-0.2,3.5-0.4,5.3c-0.9,6.2-0.8,12.9-3.3,18.8c-0.2,0.3-0.4,0.7-0.7,0.9
	c0,0-0.1,0.1-0.1,0.1c0,0,0.1-0.1,0.1-0.1c-0.1,0.1-0.3,0.2-0.5,0.3c0,0,0,0,0,0c-1.7-1.9-1.2-0.4-2.3,0.8c0,0-0.1,0.1-0.1,0.1
	c-0.3,0.2-0.8,0.3-1.1,0.2c-1.3-0.3-0.8-3.2-2.2-2.8c-0.4,0.6-0.5,1.5-1.1,2c0,0-0.1,0.1-0.1,0.1c-3.6,0,4.7-25,5.8-27.9
	c1.2-4.1,5.6-7.9,10.1-6.7c3.1-1.1,5.7,2.1,7,4.6c0.1,0.1,0.2,0.3,0.2,0.5c-0.7-6.1-8.9-8.2-13.6-5.2c-6,4-6.9,15.3-9.3,21.9
	c-0.3,1.2-0.7,2.3-1,3.5c0,0,0,0.1,0,0.1c0,0.1-0.1,0.2-0.1,0.3c-0.1,0.6-0.4,1.3-0.5,1.9v0c-0.9,2.3-0.8,11.7,3,6.5
	c0.2,0.6,0.5,1.3,1.2,1.8c-7.3,1.7-8.6,10.2-10.7,16.2c-7.9,22.3-3.7,46-5.7,69.1c0.1,0,0.1,0,0.1,0c-2.8,3.1-1.3,14.2-1.1,18.7
	c0.9,8-1.3,13.4,9.3,10.4c-4.3,8.4-7.4,17.4-11.3,26c-0.5,1.4,2.8,2.6,3.6,3.7c-0.9,0.1-1.8,0.3-2.7,0.5c1-0.1,1.9-0.2,2.9-0.2
	c1.3,1,8.7,7.7,9,4.2c-1.8-2.7-5.1-5.2-5.3-8.6c0.1-0.1,0.1-0.2,0.2-0.3c-0.1,0.1-0.1,0.2-0.2,0.4c0.3-0.2,0.4-0.6,0.6-0.9
	c4.7-9.3,10.5-18.1,15-27.5c0,0,0-0.1,0.1-0.1c0,0,0,0,0-0.1c5.5-12,6.8-25.4,8.7-38.4c0.4-0.3,0.5-0.9,0.8-1.4
	c-0.1,0.1-0.2,0.2-0.4,0.2c0.1,0,0.2-0.1,0.3-0.2c0,0,0,0,0,0c4.4-2.8,13,18.1,14.9,21.6c8.1,15.5,12.4,32.5,12.9,50
	c0-0.1,0.2-0.2,0.3-0.2c-0.1,0-0.2,0.1-0.2,0.2c-0.1,0.2-0.1,0.4-0.2,0.6c-0.3-1.2,0.2-2.9-0.9-3.8c-0.8,1.1-1.4,2.4-2,3.6
	c0.1-1.3,0.3-2.5,0-3.8c-0.7,0.8-0.7,1.8-1.1,2.6c-0.1-0.4-0.2-0.9-0.3-1.3H177c-0.7,2-0.2,4.4-1.1,6.4c-0.9-0.2-1-1.1-1.2-1.8
	c-0.6,0.9,0.1,2.1,1,2.3c1.3-0.3,0.9-1.9,1.3-3c1.3,0.8,0.6,2.3,1.7,2.9c0.2-2.3,0.3-4.9,1.9-6.8c0.7,1.5,0,3.9,1.1,5.2
	c3.7-1.4,7.2-4.2,10.9-6c0.1,1.3-0.6,7.3,1.7,4.8c-2.5,1-0.9-3.6-1.5-5c1-0.7,4.9-2.7,2.5-3.7c-2.4,0.5-4.7,1.3-7.2,1.7
	c0.1-27.8-3.5-57.2-19.9-80.4c0,0,0,0,0,0c0,0-0.1-0.1-0.1-0.1c-1.3-2.3-2.9-4.3-4.1-6.7c-3.3-7.7-4.8-16.4-4.4-24.7
	c6.8,19.5,22,26.5,37.3,37.8c0.2,0.4,0.4,0.9,0.7,1.2l0,0c0,0,0,0,0.1,0c0.8,1.4,2.4,4.3,4.2,2.3c0.4,1,1.7,1.5,2.4,0.4
	c0.2,0.3,0.4,0.5,0.7,0.5c1.3,1.3,2.9,2.4,4.3,3.6c0,0,0,0,0,0c16.8,14.5,36.6,24.7,55.9,35.7c0,0,0,0,0.1,0
	c3.1,1.7,6.2,3.1,9.4,4.4c-4.1,0.2-8.2,0.2-12.3,0.5c-2.2,0.2-4.4,0.5-6.6,0.6c-2.9,0-5.9-0.1-8.8-0.2c-0.3-0.1-0.5-0.1-0.8-0.2
	c0.2,0.1,0.4,0.2,0.6,0.3l0,0c-6.7-3.4-13.8-8.1-16.4-15.5c-2-9.1-3.5,0.4-1.6,3.8c-0.3-0.2-0.7-0.4-1.1-0.3c0,0,0,0-0.1,0
	c0,0,0,0,0,0c-1.5,1.7,1.3,4.6,2.7,6c-0.3,0-0.5,0.1-0.7,0.2c0,0,0,0,0,0c-0.1,0-0.1,0.1-0.2,0.2c0,0,0,0,0,0
	c-0.3,1.8,2.5,3.5,3.9,4.4c-0.2,3.3,6.6,4.3,9.1,5.2c0.7,0.1,1.3,0.3,2,0.4c0,0,0,0,0,0c1.7,7.8,2.8,16.1,0.5,23.9c0,0,0-0.1,0-0.1
	c-0.1,0.2-0.1,0.4-0.2,0.6c0-0.1,0.1-0.2,0.1-0.2c-0.7,1.7-1.2,3.4-1.9,5c-0.8,1.7-1.6,3.4-2.4,5c-0.3-1.1-0.9-2.3,0.8-2.3
	c0-0.1,0-0.1,0-0.2c0,0-1.7,0-1.7,0c-0.1,0.7,0.2,1.8,0.6,3.2c-0.8,1.6-2.1,3.2-2.1,5c0.8,2.3,3-0.1,3.7-1.3c1,1.9,1.9,3.2,2.5,3.6
	c-0.3-1.6-1.3-2.8-1.9-4.3c2-2.4,4.3-4.6,6.1-7.2c1.3,4.5,1.1,10.2,3.2,14.2c0.2-1.3-0.5-2.5-0.3-3.9c0.6,0.5,1.1,1.1,1.9,1.1
	c0.2-1.7-0.4-3.1-1-4.4c-1.1-0.5-0.7-2-1.2-2.9c-0.3,0-0.6-0.1-0.9-0.1c-0.3-1.8-0.5-3.4-1-5.2c2.6-4,3.8-8.6,5.1-13.2
	c3,7,3,14.3-0.3,21.2c-0.4,0.9-1,2.4-0.1,3.2c0,0-0.1,0-0.1-0.1c0.1,0.1,0.2,0.1,0.3,0.2c-0.1,0-0.1,0-0.2-0.1
	c0.1,0,0.2,0.1,0.3,0.1c0,0,0,0,0,0c0.1,0,0.2,0,0.4,0c-0.1,0-0.2,0-0.3,0c0.9,0.2,1.6-0.8,2-1.6c4.2-6.5,8.9-14.2,5.4-22.1
	c0,0,0,0,0,0c-0.1-0.3-0.2-0.6-0.3-0.8c0,0,0,0,0,0c0.1,0.2,0.1,0.5,0.2,0.8c1.9,0.3,3.8,0.2,5.5-0.5c1.1,2.1,4.5,0.1,6.1-0.6
	c0.5,1.9,3.6,0.3,4.9,0.2c-1.3,9.4-1.7,19.3,0.4,28.5c0.1,0,0.3-0.1,0.4-0.1c-1.6-9.4-1.7-19.2-0.3-28.6c1.4-0.3,2.9-0.7,4.2-1.5
	c0.3,0,0.5,0,0.7-0.2c11,16.1,3.2,27.7,9.9,28.9c2.3-0.3,0.5-2.9,0.6-4.3c-0.1-3.5,0.7-6.6,0.3-10.2c-0.2-4.9-2.2-9.6-3.9-14.1
	c0.1-0.1,0.3-0.3,0.3-0.5c0,0.1,2-0.3,2.1-0.4c0,0,0,0,0.1,0c0.3,0.3,0.7,0.6,1.1,0.7c6.8,5.9,10.2,14.4,14.1,22.3
	c-0.8,3.3,2.3,14,4.4,5.6c1.9,1.3,4.5,1.3,4.4-1.5c7.8,1.9,13.8,2.9,21.3,2.2c-3.7-1.4-7.7,0.7-11.4-0.5c-3.7-0.6-7.6-2.4-11.2-2.3
	c2.5,3.8-3.1,3-3-0.4c-1.3,1.4-0.2,3.9-1.6,5.4c-2.3-1.9-2.5-4.8-2.3-7.5c1.9,3.5,6,2.1,3.2-1.6c-2-3.8-3.9-7.8-1.3-11.9
	c0.1-0.3,0.2-0.6-0.1-0.9c-1,1.8-1.5,3.6-1.7,5.6C306.2,420.7,303.5,414.2,299.1,408.6C299.1,408.7,299.1,408.7,299.1,408.6
	L299.1,408.6z M153.8,279.9c0-0.3-0.2-0.6-0.2-1c0,0,0,0,0,0c-0.2-1.2-0.6-2.4-0.7-3.7h0c0-0.9-0.1-1.8-0.2-2.7h0c0-0.8,0-1.6,0-2.3
	l0,0c0,0.1,0,0.2,0,0.3c0-1.1,0.1-2.2,0.2-3.2l0,0l0,0c-0.1-0.6,0.5-0.6,1-0.6c0,0,0,0,0,0h0c0.3,4.1,1.8,8.6,0.4,12.5c0,0,0,0,0,0
	c-0.2-0.1-0.3-0.3-0.5-0.4C153.7,279.2,153.9,279.6,153.8,279.9C153.8,279.9,153.8,279.9,153.8,279.9
	C153.8,279.9,153.8,279.9,153.8,279.9L153.8,279.9z M175.1,353.4c1.6,4.3,3.7,7.7,5.1,12.3l0,0l0,0c3.8,11,4.8,22.7,6,34.2
	c0.2,0,0.4-0.3,0.7-0.1c-0.2-0.1-0.4,0.1-0.6,0.2l0,0c-2,0.7-3.8,1.7-5.6,2.8c-0.2-0.9-0.4-1.8-0.6-2.6l0,0c-0.1-0.3-0.2-0.7-0.2-1
	l0,0c0,0,0,0,0,0c0,0,0,0,0,0l0,0c0.1,0.3,0.1,0.6,0.2,0.9c-1.3-6.4-3.3-12.8-6.3-18.6c0,0,0-0.1,0-0.1h0c0-0.2-0.2-0.3-0.2-0.5l0,0
	c0.1,0.2,0.2,0.3,0.2,0.5c-2.2-4.7-13.8-34.8-20.2-30.4c0.2-0.1,0.4-0.2,0.5-0.3l0,0c-0.2,0.1-0.4,0.2-0.6,0.3c0,0,0,0,0,0l0,0
	c-0.2,0.2-0.5,0.4-0.6,0.7h0c-1.9,3.9-1.6,8.4-2.4,12.6c-0.7,5-1.6,10.1-2.9,15v0c-1.1,4.1-2.2,8.4-4.1,12.2c0,0,0,0,0,0.1
	c-2.1,4.1-4.1,8-6.5,11.9c-0.2-0.2-0.5-0.1-0.6-0.1c-1.8-0.9-3.5-2-5.3-3h0c-0.2-0.1-0.3-0.3-0.6-0.2c0.2-0.1,0.4,0.1,0.6,0.2
	c1-1.8,1.6-3.6,2.4-5.5c0,0,0,0,0,0l0,0h0c0,0,0,0,0,0l0,0c0,0,0,0,0,0c0,0,0,0,0,0l0,0c0.4-0.1,0.7-0.3,1-0.4l0,0
	c-0.1,0-0.1,0-0.2,0.1c0.8-0.3,1.6-0.6,2-1.4c0,0,0,0,0,0.1l0,0c0,0,0,0,0,0c0,0,0,0,0,0l0,0c0.1-0.2,0.1-0.3,0.2-0.6l0,0
	c0,0,0,0,0,0c0.2-1.5-0.1-2.8-0.2-4.3l0,0c0,0,0,0,0,0c0,0,0-0.1,0-0.1l0,0l0,0l0,0l0,0c0.4-1.3,0.8-2.6,1-4v0h0
	c3.8-13.7-3.6-27.8-0.2-41.5l0,0c0.1-0.2,0.1-0.5,0.2-0.7h0c0.4-1.7,0.9-3.3,1.2-5h0c0.5-2.7,0.8-5.5,1.6-8.2c0,0,0.1,0,0.1,0.1
	c0,0-0.1,0-0.1-0.1l0,0l0,0c0,0,0,0,0,0c0.1-0.3,0.1-0.6,0.2-1c0,0,0,0,0,0c-0.1,0.3-0.1,0.7-0.2,1c0,0,0,0,0,0
	c0.1,0,0.2,0.1,0.3,0.1c6.8-0.7,13.8-0.7,20.3-3.2c0.7,2.3,1.6,4.4,2.5,6.6c0,0,0,0,0,0c0,0,0,0,0,0l0,0c0.2,0.3,0.3,0.7,0.6,0.9
	c1.8,3.2,3.7,6.3,5.8,9.3l0,0c0.1,0.2,0.2,0.3,0.3,0.5C171.6,346.4,173.7,349.9,175.1,353.4z M128.6,418.1c-0.3,0.6-0.8,1.2-1,1.9
	c0.1-0.2,0.3-0.4,0.5-0.5c-0.2,0.1-0.3,0.3-0.5,0.5c0,0,0,0,0,0c-0.1,0.3-0.5,0.9-0.2,1.2c0.1,1.8,1.5,2.9,2.9,3.8
	c-2.5-1.9-4.8-4-7.3-5.8c0,0,0,0,0,0l0,0c0,0,0,0,0,0c2.4-6.1,4.9-12.2,7.6-18.2c1.6,1.1,3.2,2.2,5,3.1l0,0c0.3,0.1,0.5,0.2,0.8,0.2
	C133.9,408.8,130.9,413.3,128.6,418.1z M130.4,394.1c-1.5,0.1-3.1,0.3-4.6,0.4c-1.5-2-1.5-4.9-1.5-7.3c-0.6-6.2-1.2-12.4-0.5-18.6
	c0.1,0.6,0,1.1,0.4,1.5c0-0.3,0.2-0.6,0.5-0.6c-0.3,0-0.5,0.3-0.5,0.6c0,0,0,0,0,0c0.8,3.6-0.5,7.5,1.1,10.9
	c1.1,1.2,2.9,0.6,4.4,0.6c5-0.8,1.3-7.3,1.5-10.6h0c0-0.4-0.1-0.8-0.1-1.3l0,0c0,0,0,0,0,0l0,0c0.3-0.5,0.6-1.1,0.4-1.6
	c1.2,7.6,2.9,15.3,4,22.9c0.4,1.8-0.6,2.3-2.1,2.7c-0.1,0-0.2,0-0.3,0.1C132.1,393.9,131.3,394,130.4,394.1z M125.8,322.2
	c0.1-0.9,0.3-1.8,0.3-2.8c2.4,0.2,4.9,0.5,7.3,0.3c0,0,0,0,0,0c0,0,0,0,0,0l0,0c-0.2,1.3-0.3,2.6-0.4,3.8c-2.3,0.5-4.6-0.5-7-0.1
	c-0.1,0-0.3,0-0.4,0c0,0,0,0,0,0C125.7,323,125.7,322.6,125.8,322.2z M126.6,315.5c0.1-0.9,0.4-1.7,0.5-2.6c2.5,0.2,5,0.6,7.4,0.1
	c0,0,0,0,0,0l0,0c-0.4,1.4-0.6,3-0.8,4.5c0.7,0.1,1.1,0.9,0.8,1.5c0.3-0.6-0.1-1.4-0.8-1.5c-0.1,0.7-0.2,1.4-0.3,2.1
	c0.1-0.7,0.2-1.4,0.3-2.1c-2.2,0.2-4.5-0.1-6.6-0.1v0c-0.3,0-0.5,0-0.8,0C126.4,316.8,126.5,316.1,126.6,315.5z M131.6,294.6
	c0.1-0.3,0.2-0.7,0.2-1c9.4-0.1,19.2,0.1,28.6-1.4c0,0,0,0,0,0c0,0,0,0,0,0c0.4,1.2,0.8,2.3,1.2,3.5c0,0,0,0,0,0l0,0
	c-10-0.5-20.2,0.4-30.1,1.6l0,0c-0.3,0-0.6,0-0.8,0.1C131,296.5,131.3,295.5,131.6,294.6z M136.4,285.2c3.5-0.2,7.3-0.1,10.7,0
	c1,0.7,2.1,1.4,3.1,2.1c0,0,0,0,0.1,0c0,0,0,0-0.1,0l0,0v0c-5.3,0.2-10.5,0.5-15.8,0.4l0,0c-0.2,0-0.4,0-0.5,0
	c0.1-0.1,0.1-0.3,0.2-0.4l0,0c0.4-0.7,0.7-1.5,1.2-2.2c0,0,0,0,0,0C135.7,285.1,136.1,285.2,136.4,285.2z M154.1,281
	c0.9,0.4,1.9,0.8,2.7,1.4c0.3,0,0.7,0,0.9,0.2c-1-0.5-2.1,0-3.2,0.1C154.3,282.1,154.2,281.6,154.1,281L154.1,281
	C154,281,154,281,154.1,281L154.1,281z M159.3,284.7c0.2,0.2,0.4,0.5,0.6,0.8c0.2-0.1,0.4-0.1,0.6,0.1c-0.2-0.1-0.4-0.1-0.6-0.1l0,0
	c-1.4,0.6-3.1,0.4-4.6,1c-0.1-0.7-0.3-1.5-0.5-2.2c1-0.2,2.2-0.3,3-1c0,0,0,0,0,0c0,0,0,0,0,0c0.3,0.2,0.5,0.5,0.8,0.7l0,0
	c0,0,0,0,0,0l0,0l0,0l0,0l0,0c0,0,0.1,0.1,0.1,0.1l0,0C158.9,284.3,159.1,284.5,159.3,284.7z M166,295.5
	C166,295.5,166,295.6,166,295.5c-0.2-0.1-0.6-0.1-1,0c0,0,0,0,0,0c-0.7,0.2-1.5,0.3-2.2,0.2c-0.5-1.2-1-2.5-1.5-3.7c0,0,0,0,0,0
	c0,0,0,0,0,0c0.3-0.1,0.6-0.2,1-0.2c0.3,0.2,0.8,0.3,1.1,0c0.6,1.2,1.1,2.5,1.7,3.8C165.3,295.4,165.7,295.3,166,295.5z
	 M159.2,318.9L159.2,318.9c0.2,0.9,0.3,1.8,0.5,2.7c-6.2,0.6-12.5-0.3-18.7,0.2c0.1-0.8,0.1-1.7,0.1-2.5c4.9,0.7,9.9,0.1,14.8,0l0,0
	C157,319.2,158.1,319.1,159.2,318.9C159.2,318.9,159.2,318.9,159.2,318.9C159.2,318.9,159.2,318.9,159.2,318.9
	c0.1-0.1,0.2-0.1,0.2-0.2C159.4,318.8,159.3,318.9,159.2,318.9z M159.9,322.9C159.9,322.9,159.9,322.9,159.9,322.9
	c0.2,0.6,0.3,1.3,0.5,2c-6.5,2.3-13.4,2.2-20.2,2.9c0.3-1.2,0.3-2.5,0.5-3.7c6.1,0,12.7,0.3,18.7-1.1
	C159.6,323.1,159.8,323,159.9,322.9L159.9,322.9z M125.2,357.7c0.1-2.2,0.1-4.4,0.2-6.6c1.6,0.5,3.3,0.8,5,0.4c0,0,0,0,0,0
	c0,0,0,0,0,0c0,3.2-1,6.4-0.3,9.6c0.1,2.8,1.5,5.7,0,8.3c0-0.7,1.6-5.5-0.3-3.9c-0.5,1.4-0.4,2.9-1.5,4c-0.1-0.7,1.5-5-0.3-3.9
	c-0.4,1.4-0.6,3.1-1.7,4.1c-0.2-0.8,1.5-5.1-0.4-3.7c-0.3,1.1-0.5,2.3-1.1,3.3C124.2,365.5,125.1,361.5,125.2,357.7z M158.6,305.8
	C158.6,305.8,158.6,305.8,158.6,305.8L158.6,305.8c-0.1,0.3-0.2,0.8-0.3,1.2c0.2-0.1,0.3-0.2,0.4-0.3c-0.1,0.1-0.3,0.2-0.5,0.3
	c-0.1,1.3-0.1,2.7,0,4.1c-5.6,1.7-11.9,0.9-17.7,0.8c-0.1-1.2-0.4-2.4-0.6-3.6h0c0,0,0,0,0,0c5.9,0.3,11.9,0.9,17.7-0.9l0,0
	c0.2-0.1,0.5-0.2,0.7-0.3C158.4,306.5,158.5,306.1,158.6,305.8z M138.9,328.6c-0.4,1.8-0.7,3.7-0.9,5.5c0,0,0,0,0,0c0,0,0,0,0,0
	c-0.2,0.1-0.1,0.4-0.1,0.5h0c0,0.3-0.1,0.7-0.2,1l0,0c-0.2,0.5-0.6,2.1,0.5,1.6c-0.1,0.1-0.1,0.1-0.2,0.1c0,0,0,0,0,0
	c-0.9,0.2-0.4-1.2-0.3-1.7c0,0,0,0,0,0l0,0c-7.4,16.6,3.2,33.9-1.7,50.8c-1.5-6.4-2.2-13-4-19.3l0,0c-0.1-0.1-0.1-0.3-0.2-0.4
	c-1-6.9-0.4-13.8,0.3-20.7c1-11.9,1.6-24.1,4.8-35.7h0c0-0.1,0-0.1,0-0.2h0c0.4-1.5,1-3,1.5-4.5C139.7,313.3,140.3,321,138.9,328.6z
	 M130.6,370.2C130.6,370.2,130.6,370.2,130.6,370.2c0,3.2,1.5,6.6,0.6,9.7c-1.2,0.5-2.6,0.5-3.8,0.5c-3.4,0.6-1.3-8.4-2.1-10.6
	c0,0,0,0,0,0c0,0,0,0,0,0c0.1-0.1,0.1-0.2,0.2-0.3c0,1.5,1.6,0.7,1.9-0.2c0,1.2,1.4,1.2,1.9,0.3
	C129.1,370.6,130.1,370.8,130.6,370.2C130.6,370.2,130.6,370.2,130.6,370.2L130.6,370.2C130.6,370.2,130.6,370.2,130.6,370.2z
	 M125.6,345.2c0,0-0.1,0-0.1,0C125.6,345.2,125.6,345.2,125.6,345.2c0-1.3,0-2.5-0.1-3.8c1.7,0.6,3.6,0.4,5.5,0.2c0,0,0,0,0,0
	c0,0,0,0,0,0c-0.1,1.4-0.1,2.8-0.3,4.2c0.7,0,1,1,0.4,1.4c0.5-0.5,0.2-1.3-0.4-1.4h0c0,0,0,0,0,0c-1.7-0.3-3.3-0.5-5-0.6l0,0
	L125.6,345.2L125.6,345.2L125.6,345.2z M130.4,350.7C130.4,350.7,130.4,350.7,130.4,350.7C130.4,350.7,130.4,350.7,130.4,350.7
	c-1.4,0.4-3.1,0.1-4.4-0.5l0,0c-0.2-0.1-0.4,0-0.6,0.1c0,0,0,0,0,0c0,0,0,0-0.1,0c0,0,0.1,0,0.1-0.1c0.1-1,0.2-2.1,0.2-3.1
	c1.6,0.2,3.4,0.1,5,0.4c0,0,0,0,0,0c0,0,0,0,0,0C130.5,348.4,130.4,349.6,130.4,350.7z M125.6,337.3c0-0.3,0-0.7,0-1.1
	c2,0.1,3.9,0.2,5.9,0.2c0,0,0,0,0,0c0,0,0,0,0,0c-0.1,1.1-0.3,2.3-0.4,3.3c0.9-0.1,1.4,1,0.8,1.6c0.6-0.6,0.1-1.7-0.8-1.6v0
	c-1.7,0.3-3.4,0-5.1,0.1v0c-0.2,0-0.3,0-0.5,0.2C125.6,339.1,125.6,338.2,125.6,337.3z M158.5,313c0.1,1.3,0.2,2.7,0.4,4
	c-3.5,0.3-7,0.2-10.5,0.2c0,0,0,0,0.1,0c0,0-0.1,0-0.1,0c0,0,0,0,0,0c-2.4,0.2-5,0.2-7.4-0.1c0-1.2-0.1-2.3-0.2-3.5
	c5.7,0.4,11.5,1,17-0.4v0C158,313.2,158.3,313.1,158.5,313L158.5,313L158.5,313z M147,301.3c-2.4,0.2-4.6,0.8-7,0.9
	c0.4-1.1,1.2-2.1,1.8-3.1l0,0c0.1-0.2,0.3-0.4,0.4-0.6c0,0,0,0,0,0c0,0,0,0,0,0c6.7-0.5,13.5-1.2,20.3-0.6c0.4,0.9,0.8,1.8,1,2.8
	l0,0v0.1C158,300.9,152.4,300.6,147,301.3z M132.1,329.9c-0.1,1.5-0.1,2.9-0.3,4.4c-1.6,0-3.1-0.2-4.6-0.2l0,0
	c-0.5,0.1-1,0.1-1.6,0.2v1.8c0,0,0,0,0,0v-1.8c-0.1,0-0.2,0-0.3,0.1c0.1,0,0.2-0.1,0.4-0.1c0-1.4,0-2.7-0.1-4.2
	c2.1,0,4.4,0.2,6.5-0.6C132.1,329.7,132,329.8,132.1,329.9C132.1,329.9,132.1,329.9,132.1,329.9L132.1,329.9z M130,303.9
	c2.6-0.2,5.2-0.4,7.8-0.5c-0.7,1.1-0.8,2.2-1.3,3.3c-2.6-0.5-5.2-0.6-7.9-0.8l0,0c0,0-0.1,0-0.2,0c0.2-0.7,0.3-1.4,0.4-2.1
	C129.2,303.9,129.6,303.9,130,303.9z M129.7,307.6c2.1,0.3,4.1,0.4,6.3,0.3c-0.2,0.7-0.4,1.3-0.6,2v0c-0.1,0.5-0.2,0.9-0.4,1.5
	c-2.5,0.1-5.1-0.1-7.7-0.4c0.2-1.4,0.4-2.5,0.8-3.8C128.6,307.5,129.2,307.5,129.7,307.6z M159.1,304.9c-0.2,0.2-0.4,0.5-0.5,0.8
	c-6.3,0.6-12.6,0.6-18.9,0.4c-0.2-0.8-0.1-1.7-0.5-2.3v0c0,0,0,0,0,0c0-0.1,0.1-0.1,0.1-0.2c7.7-0.7,15.3-1.6,23-1.6c0,0,0,0,0,0
	c0.2,0,0.5,0,0.7,0l0,0c-0.1,0.1-0.2,0.3-0.3,0.4c0.3,0.1,0.7,0.1,1,0.1c-0.4,0-0.7,0-1.1-0.1C161.6,303.6,160.2,303.8,159.1,304.9z
	 M164.7,300.5c0-0.9-0.7-2-1-2.7c0,0,0,0,0,0c0,0,0,0,0,0c-0.3-0.6-0.6-1.3-0.9-2c0,0,0,0,0,0c0.3,0.7,0.6,1.4,0.9,2h0.2l0,0
	c0.6-0.1,1.3-0.3,1.9-0.4c0.5,1.1,0.9,2,1.4,3c0,0,0.1,0,0.1,0c0,0-0.1,0-0.1,0l0,0l0,0C166.4,300.3,165.5,300.4,164.7,300.5z
	 M137.4,283.4c-0.3,0-0.5,0.1-0.8,0.1c1.2-1.2,2.9-1.9,4.5-2.4c0.7,1.2,2.3,1.4,3.3,2.2C142,283.2,139.7,283.4,137.4,283.4
	L137.4,283.4z M157.2,251.5c0-0.1,0-0.1-0.1-0.2c0.3,0,0.7,0,1,0c1.1,3.5,1,6,5.2,7.2c-1.7,1.1-5.1-0.9-4.4,2.6
	c-0.1,0.1-0.1,0.2-0.1,0.2c-0.8,0.2-1.6,0.1-2.4,0.2c-2.2,0.1-0.3,2.2,0.8,2.5c-1,1.9-3,1.4-4.7,1.8c-2.1,1.8-0.3,12.3,0.1,15.2
	c0.7,2.6,1.3,5.2,1.8,7.9c-2.3-1.6-4.5-3.3-6.8-4.8c-1.5-1.2-3.4-2.4-5.2-3.2c0.6-0.3,0.9-0.8,1.2-1.4c6.5,3,6-23.1,6.9-27.1
	c1.1-0.2,2.2-0.2,3.3-0.4c0.3,0.9,1.4,0.1,2.1,0.2C156.4,252.1,157.3,252.1,157.2,251.5z M154.8,282.6c0.1,0,0.3,0,0.4-0.1
	C155,282.6,154.9,282.6,154.8,282.6z M133.3,289.6c0.1-0.2,0.1-0.4,0.2-0.7c3.6,0.8,7.4,0.1,11-0.1c2.3-0.4,5,0.2,7-0.8
	c1.3,0.7,2.4,2.1,3.9,2.3c0.5-0.1,0.4-0.7,0.3-1c0.1-0.6,0-1.2-0.1-1.8h0c0,0,0-0.1,0-0.1c0.8,0.3,1.7-0.2,2.6-0.3
	c0.9-0.1,1.8,0,2.6-0.6c0.7,1.2,1.4,2.5,2.1,3.7c0.2,0.1,0.6,0.2,0.7,0.5c-0.7-0.8-1.8-0.4-2.7-0.3c-0.2-1.5-1.8-2.9-0.9-0.4v0
	c0.1,0.2,0.1,0.4,0.2,0.6l0,0c-9.2,1.4-18.4,0.3-27.6,1.3c0,0,0,0,0,0C132.6,291.2,133,290.4,133.3,289.6z M130.3,299
	c0-0.1,0.1-0.2,0.1-0.3c0.4,0.5,1.1,0.3,1.6,0.4c2.8-0.5,5.7-0.4,8.5-0.6c-0.8,1.1-1.5,2.3-2,3.6c0,0,0.1,0,0.1-0.1
	c0,0-0.1,0-0.1,0.1c0,0.1-0.1,0.1-0.1,0.2h-0.1l0,0c-3-0.1-5.9-0.3-8.8-0.2c0,0-0.1,0-0.1,0C129.7,301,130,300.1,130.3,299z
	 M125.5,328.4L125.5,328.4c0-1,0-2.2,0-3.2c2.3,0.3,4.8,0.6,7.2,0.4c0,0,0-0.1,0-0.2c0,0.1,0,0.1,0,0.2c0,0,0,0,0,0
	c-0.2,0.9-0.3,1.7-0.4,2.6c1.1,0.1,1,1.8-0.1,1.8c1.1,0,1.1-1.7,0-1.8c0,0.2,0,0.3-0.1,0.4c-0.2,0-0.4-0.1-0.6-0.1c0,0,0.1,0,0.1,0
	c-0.1,0-0.1,0-0.2,0c0,0,0.1,0,0.1,0c-0.1,0-0.1,0-0.2,0.1c0,0,0,0,0.1-0.1c-0.1,0-0.1,0.1-0.1,0.1c0,0,0,0,0,0c0,0,0,0-0.1,0.1
	c-1.3,0-2.5-0.3-3.8-0.3l0,0c-0.7,0-1.5,0.1-2.1,0.1L125.5,328.4C125.5,328.4,125.5,328.4,125.5,328.4
	C125.5,328.4,125.5,328.4,125.5,328.4z M184.6,421.5c-0.6,0.6-1.5,0.9-2,1.5c-0.5-6.4-0.6-12.8-1.8-19.1c0,0,0,0,0,0
	c-0.1-0.3-0.1-0.7-0.2-1l0,0c0.1,0.3,0.1,0.7,0.2,1c1.8-0.9,3.6-2,5.4-2.9c0.8,5.9,0.4,12,0.8,17.9c0.1-0.5-0.5-1.7,0.4-1.6
	c-0.8,0-0.2,1.1-0.4,1.6c0.1,0.1,0.2,0.2,0.4,0.2c-0.2,0-0.3-0.1-0.4-0.2c-0.1,0.5,0.5,0.7,0.9,0.6
	C186.8,420.2,185.7,420.8,184.6,421.5z M203.5,345.5c-0.3-0.4-0.6-1-1.1-0.7c-0.6,0.9,2.3,2.9,0.6,3.4c0,0,0,0,0,0l0,0c0,0,0,0,0,0
	c0,0,0,0,0,0l0,0c-1-0.3-1.9-5.7-3-3.5c0.3,0.9,1.2,2,0.9,3c-1.8,0.6-2-2.5-3-3.5c-2.2-2.9-5.7-4.6-8.7-6.6
	c-0.2,0.2-0.5,0.4-0.7,0.1c1.3,0.1,2.2-2.4,3.2-3.2c4,4.1,14.6,6.8,14.2,13.3c-0.7-0.8-0.6-2.2-1.4-2.8c0,0,0,0,0,0c0,0,0,0,0,0
	c0,0,0,0,0,0c-0.9,0.6,1.1,2.1,0.2,3.1C204.2,347.3,204,346.3,203.5,345.5z M187.2,336.2c-0.2-0.1-0.3-0.2-0.5-0.3
	c-0.2,0.1-0.4,0.3-0.6,0.3c0.2,0,0.4-0.2,0.6-0.3c-0.4-0.3-0.7-0.5-1.1-0.8c0,0,0,0,0,0c0,0,0,0,0,0c-1.4-0.9-2.7-1.7-4.1-2.6
	c-0.2,0.2-0.5,0.5-0.9,0.4c0.3,0.1,0.6-0.2,0.9-0.4l0,0l0,0c1.4-1,2.3-2.6,3.6-3.6c0.9,1.1,2.1,1.8,3.1,2.9c0,0,0.1,0,0.2,0
	c0,0-0.1,0-0.1,0c0.3,0.2,0.5,0.5,0.7,0.7l0,0c0.7,0.6,1.5,1.1,2.3,1.8c0.1-0.1,0.2-0.2,0.3-0.2c-0.1,0-0.2,0-0.2,0.1l0,0
	c0,0,0,0.1-0.1,0.1c0,0,0,0,0,0c-0.2,0.2-0.4,0.5-0.6,0.7v0c-0.8,0.8-1.2,1.7-2,2.3c0,0,0,0,0,0
	C188.2,336.9,187.7,336.5,187.2,336.2z M171.1,323.4c-0.1-0.1-0.1-0.1-0.2-0.2c0,0,0,0,0,0c0.3,0.4,0.7,0.8,1.1,1.2
	c2-1.2,3.9-2.6,5.8-4c0.9,1,1.5,2.2,2.5,3.2c0.1,0,0.3,0,0.4,0c-0.1,0-0.2,0-0.2,0l0,0c0,0-0.1,0-0.1,0c-1.5,0.9-3.2,2.2-4.2,3.7
	l0,0c0,0,0,0.1-0.1,0.1l0,0c-0.1,0.2-0.2,0.3-0.3,0.4h0l0,0c0,0,0,0,0,0.1c-1.4-1-2.5-2.3-3.7-3.5c-0.1,0-0.1,0.1-0.2,0.1
	c0.1,0,0.1-0.1,0.2-0.1C171.7,324.1,171.4,323.7,171.1,323.4z M176.2,329.1c0.2,0,0.4,0,0.6-0.2l0,0c1.5-1.3,3.4-2.4,4.6-4
	c0.8,0.9,1.5,1.9,2.4,2.7c0.1-0.1,0.4-0.2,0.6-0.1c-0.2,0-0.4,0-0.5,0.1l0,0l0,0l0,0c-1.5,1-2.6,2.4-3.7,3.9
	c-1.1-0.9-2.3-1.7-3.4-2.6C176.7,329.1,176.4,329.1,176.2,329.1z M177.3,319c-0.1,0-0.3,0-0.4,0.1c0,0,0,0,0,0
	c-1.9,1.4-4.1,2.3-5.8,3.8h0c-0.1,0.1-0.1,0.1-0.2,0.2c0,0,0,0,0,0c-1-1.3-2.1-2.5-3.1-3.8c-0.2,0.1-0.4,0.1-0.6,0
	c0.2,0,0.4,0,0.6-0.1l0,0c2.7-0.2,5.1-1.7,7.6-2.6c0.5,0.8,0.9,1.5,1.4,2.3C177,319,177.2,319,177.3,319
	C177.3,319,177.3,319,177.3,319c0.1,0,0.2,0,0.3,0.1C177.5,319,177.4,319,177.3,319z M164.4,314c0-0.1-0.1-0.1-0.1-0.2
	c2.9-0.1,5.9-0.6,8.6-1.1c0.4,0.8,1,1.7,1.5,2.4c0.2-0.1,0.5-0.2,0.7-0.1c-2.7,0.7-5.5,1.9-8.1,2.9C166,316.6,165.1,315.4,164.4,314
	z M163.1,310.9c-0.3-0.7-0.5-1.3-0.9-1.9c0,0,0,0,0,0c1.4-0.3,2.9-0.5,4.3-1l0,0c0,0,0,0,0.1,0v0c1.2-0.3,2.4-0.7,3.4-1.3
	c0.7,1.4,1.5,2.9,2.1,4.2c0.2,0,0.3,0,0.5,0.1c-0.2,0-0.3-0.1-0.5-0.1l0,0c-2.7,0.4-5.3,0.9-8,1.4l0,0c-0.1,0-0.3,0.1-0.4,0.1
	C163.5,311.8,163.3,311.3,163.1,310.9z M159.6,306.7c0.1-0.4,0.3-0.9,0.7-1.2c0,0,0,0,0,0c1.4-0.9,3.1-1.5,3.9-3.1c0,0-0.1,0-0.1,0
	c0,0,0.1,0,0.1,0l0,0c1.1-0.5,2.4-0.3,3.3-1.1c0.6,1.6,1.3,3.1,1.9,4.5c0.1,0,0.2-0.1,0.3-0.1c-0.1,0-0.2,0.1-0.3,0.1c0,0,0,0,0,0
	c-0.2,0.1-0.5-0.1-0.6,0.2c-2.5,0.6-5,0.8-7.4,1.5l0,0c0,0-0.1,0.1-0.2,0.1c-0.3-0.7-0.8-1.4-1.1-2.1
	C160,305.7,159.8,306.2,159.6,306.7L159.6,306.7C159.6,306.6,159.6,306.6,159.6,306.7C159.6,306.7,159.6,306.7,159.6,306.7z
	 M308.5,431.9c0-0.3,0-0.7,0.1-1c0.6,2.2,2.3,4.1,2.8,6.1C309.2,437,308.2,433.8,308.5,431.9z M296.4,413.7L296.4,413.7
	C296.4,413.7,296.4,413.7,296.4,413.7c0.4-0.8,2.9-2.5,1.7-3.2c-0.7,0.4-1,1.4-1.8,1.9l0,0c-0.1,0.2-0.3,0.3-0.5,0.5c0,0,0,0,0,0
	c0,0,0,0,0,0c-0.1-0.2-0.3-0.3-0.4-0.5v0c0,0,0,0,0,0c1.3-1,2.5-1.8,3.1-3.4c0,0,0,0,0,0c2.6,3.6,5,7.8,6.5,12l0,0c0,0,0,0.1,0,0.1
	v0c1,3.9,3.6,7.6,2.9,11.7c0,0,0-0.1-0.1-0.1c-2.3-4.2-4-8.8-6.8-12.8l0,0c-1.2-2-2.6-3.9-4.2-5.6c-0.1,0-0.2-0.1-0.2-0.2
	C296.6,414,296.5,413.9,296.4,413.7L296.4,413.7z M288.7,411c1,2,1.5,4.1,2.2,6.2c1.1,3.5,2.2,7.2,2.1,10.9
	c0.2,4.2-1.2,8.5,0.5,12.5c0,0,0,0,0,0c-4.1-1.6-1.4-7.9-2.4-11.4c-0.4-6.7-3.8-12.9-7.3-18.4c0,0,0,0,0,0.1c0,0,0,0,0-0.1
	c-0.5-5.1-1.6-10.2-1.9-15.3C284.2,400.8,286.5,405.9,288.7,411z M261.8,416.8c-0.2,0.2-0.4,0.3-0.7,0.3c1.1,3.7,0.7,7.5-1.1,11
	c-2,3.3-3.3,7.3-5.8,10.2c-0.3-0.5,0-1.1,0.2-1.5h0c0,0,0,0,0,0l0,0c0,0,0,0,0,0l0,0c2.6-5.6,4.6-11.8,2.4-17.9
	c-0.3-0.1-0.6-0.3-0.8-0.5c0.2,0.2,0.5,0.4,0.8,0.5c0,0,0,0,0,0c2.2,1,4.3,0.2,0.6-0.5h0c0,0-0.1,0-0.1,0v0
	c-0.3-0.2-0.5-0.4-0.9-0.6c0,0,0,0,0,0c0,0,0,0,0,0c-0.1-0.2-0.1-0.3-0.2-0.5l0,0c-0.1-0.4-0.3-0.8-0.4-1.1h0c0,0,0-0.1,0-0.1
	c-0.4-0.2-0.8-0.3-0.9-0.8c0.1,0.4,0.6,0.5,0.9,0.8c0-0.1-0.1-0.3-0.1-0.4c0,0.1,0.1,0.3,0.1,0.4
	C257.6,416.8,259.9,417.6,261.8,416.8c-0.1,0.1-0.1,0.1-0.1,0.1C261.8,416.9,261.8,416.8,261.8,416.8
	C261.9,416.8,261.8,416.8,261.8,416.8C261.8,416.8,261.8,416.8,261.8,416.8z M245.2,425.1c0.9-2.3,1.5-4.6,1.8-7c0.4,3,0.7,6,1.1,9
	c-1.8,2.9-4.3,5.3-6.5,7.9c-0.2-0.4-0.4-0.8-0.6-1.2C242.6,431,244.2,428.2,245.2,425.1z M244.8,398.1c0.5-0.2,0.3-1-0.2-1.2
	c0,0,0,0,0,0c-3.6-1-7.6-1.3-10.5-3.8c0.8,0.3,2.1-0.3,0.9-1c-1.9-0.7-3.7-2-4.9-3.6c2.5,0.4,1.5-1.1,0.2-2
	c-1.2-1.1-2.2-2.5-2.6-4.1c4.1,2-0.4-2.7,0.7-6.2c1.6,7.2,7.5,12.3,13.7,15.9c1.5,1.1,3.3,1.9,5.1,2.4c0.2,0,0.4,0,0.5-0.2
	c-0.3,0-0.5-0.1-0.8-0.1c-0.7-0.1-1.5-0.4-2.1-0.8l0,0c-0.1-0.1-0.2-0.1-0.2-0.2c0.1,0.1,0.1,0.1,0.2,0.2l0,0c0.9,0.6,1.9,0.9,2.9,1
	c0-0.1,0-0.2-0.2-0.3c0.1,0,0.2,0.2,0.2,0.3c10.5,1.5,21.2-2.3,31.5-0.1c1.2,5.6,1.7,11.3,2.6,17l0,0c0.1,0.4,0.2,1,0.5,1.4l0,0l0,0
	c-0.3,0.2-0.6,0.3-0.9,0.4l0,0c-0.8,0.3-1.7,0.5-2.5,0.7c0-0.1,0-0.2,0.1-0.3c-0.2,0.1-0.4,0.2-0.5,0.4c-1.4,0.3-2.8,0.6-4.2,0.6
	c1.3-3.5-4.2,1.3-5.9,0.4c0.6-0.6,0.3-1.7-0.6-1.3c-1.9,1-4.3,1.5-6.4,0.7c1.2-2.2-1.2-1.1-2.3-0.8c-1.4,0.4-2.7-0.2-4-0.2
	c0,0,0,0,0-0.1c0,0,0,0,0,0c-0.1-0.1-0.2-0.1-0.3-0.2c0,0,0,0,0,0c0,0,0,0,0,0c0.1-4.1-4.6,12.7-6,13.4c-0.8-3.1-0.5-6.4-1.4-9.5
	c0,0,0,0,0,0c0.4-3.1,0.4-6.3,0-9.4h0c-0.5-1.7-0.7-11.1-2.5-10.5C245.3,397.1,245.4,398,244.8,398.1
	C244.8,398.1,244.9,398.1,244.8,398.1c0,0-0.1,0.1-0.2,0.1C244.7,398.2,244.8,398.1,244.8,398.1z M240.5,436.6
	c-0.4,0.6-0.8,1.2-1.4,1.6c-0.3-1.2,1-2.6,1.5-3.7c0.2,0.4,0.3,0.8,0.5,1.2C241,436,240.7,436.3,240.5,436.6z M316.2,383.9
	L316.2,383.9c0.5-1.6,0.8-3.4,1.6-4.9c0.7,0.4,0.7-1,1-1.4c0.1,2.7,0.1,5.5-0.5,8.2c-0.8-0.4-1.5-0.7-2.3-0.9l0.1-0.2l0,0
	c0.6,0.1,1.2,0.6,1.8,0.6C319.1,384.9,316.6,384,316.2,383.9z M299.9,390.3C299.9,390.3,299.9,390.3,299.9,390.3
	c2.9-1.1,6-2.1,9.2-2.2c0,0,0,0,0,0c0,0,0,0,0,0c0.4,0,0.5-0.4,0.5-0.7c-0.1-3-0.5-6.1-0.3-9.2c1.3,0.7,0.2-1.9,0.4-2.6
	c1.9,1,2,16.1,4,12.2c0,0,0,0,0,0c10-0.7,0.2,5.8,13.4,4.9c0.4,0.5,1.6,1.3,2.9,1.3c-1.1,1.3-6.2,2.8-9.7,2.9
	c-2.4-0.1-7,0.2-2.3,2.2h0l0,0l0,0c0,0-0.1,0-0.1,0c0,0,0.1,0,0.1,0.1l0,0c0,0,0,0,0,0l0,0l0,0l0,0c0.1,0.1,0.2,0.1,0.3,0.2
	c-2.9-0.3-6.8-2.3-9.1,0.2c0,0,0,0-0.1,0v0c-1.1,0.6-2.3,1.2-3.3,1.9c-0.3-0.6-0.7-1.2-1.1-1.8l0,0c0,0,0,0,0,0
	C302.9,396.8,301.1,393.7,299.9,390.3L299.9,390.3z M296.8,391.2C296.8,391.2,296.8,391.2,296.8,391.2 M290.6,411.2
	c-2-6.1-3.3-12.9-7.6-18c4.4-0.3,9.6-0.8,13.8-2c1.1,4.3,4.2,8,7.1,11.3c0.1,0.1,0.3,0.2,0.4,0.4C299.9,405.9,296,410.2,290.6,411.2
	z"/>
<path class="st1" d="M19.3,122c0.1-0.1,0.1-0.1,0.2-0.2c-0.5-1.1-3.9-0.4-1.4-2c4.3,0.8,7.5,5,11.3,7.1c1.4,0.7,1.7,2.9,3.2,3.2
	c2.2-0.3,2.4-1.5,2.2-3.3c1.6-0.7,0.9,1,1.4,1.9c0.5,1.5,3.2,1.8,2.2,0c-0.9,0.5-1.2-0.8-1.4-1.4c2.8-0.2,5.7,0.4,8.4-0.7
	c0,0,0,0,0,0c0.1,0,0.2,0,0.2,0.1c0,0-0.1,0-0.1,0c0.5,0.2,0.7,0.6,1,1c1.2-1.1,0.7-3.5,2.4-4c1.8,2.3-1.5,2.2-1,3.8
	c2.1,0.6,3.3-1.9,5.3-2.3c2-0.8,3.2,2.2,5.3,1.2c0,0-0.1,0-0.1,0c0.9-0.1,1.8-0.6,2.6-1.2c-0.5,0.4-1,0.7-1.6,0.9
	c2.1-0.4,2.6-2.7,4-3.7c1.8-0.1,2.5-0.4,2.7-2.3c0.2-0.7,0.6-1.1,1.4-0.9c1.5,0.4,1.7-1.6,2.7-2.4c1.4-0.9,2.7-2.9,4.5-2.5
	c2.9,0.7,4.3-2.4,6.8-3c3.9-1,8.2,0,12.2-1.1c2-0.6,3.4,0.7,3.7,2.7c-3.2,0.4-5.8-0.8-8.8-1.2c2.3,3,7.4,1,10.4,3.1
	c0.9,0.2,2.2,0.2,2.8,1.1c1.6,3.2,3.9,5.3,3.9,9.2c0,0.5,0.4,1.2,1,1.1c2.6-1.3,0.1,3.6,1.6,4.6c1.2-1.2,0.3-3.6,0.5-5.4
	c0-1-0.8-1.8-1.8-1.4c0.1-0.7,0.5-1.6,0.1-2.2c-0.4-0.4-1-0.1-1.2-0.8c-1.4-3-3.8-5.9-3.5-9.4c1.7,2.1,10.1,16.6,6.3,5.2
	c0.9,0.6,1.9,1.8,2.1,2.9c0,0.5-0.3,1.3,0.2,1.7c0.4,0.6,1.4,0.3,1.9,0.7c1.1,2,2.7,2.5,1.4-0.4c0.1,0,0.2-0.1,0.2-0.1
	c1.6,1.5,0.8,4.8,2.5,6.1c1.2,0,1.2,1.2,1.7,2c0.1,0,0.1-0.1,0.2-0.1c-0.4-1.4-0.8-2.9-1.2-4.4c1.3,0.5,1.9-0.3,1.8,1.5
	c0.7,6.4,2.5,12.9,2.6,19.4c-0.2,0.8,0.1,2.1,1.1,2.5c0.8-7-5.1-20.1-1.7-25.4c0.7,10.3,2.7,20.5,4.2,30.7c0.3,4.1,0.4,10.5,4.1,3.3
	c0.5,0.9,0.2,2,1.1,2.6c1-6.7-1.5-13.9-0.9-20.7c2.2,5.8,0.9,13,3.1,18.8c0.3-0.4,0.3-1.1,0.9-1.2c-0.1,2.4,0.1,4.7,0.7,7
	c0.1,0,0.3,0,0.4,0c0.1-0.5,0.3-1,0.6-1.5c0.4,0.3,0.9,0.6,1.2,1v-3.2c0.2,0,0.3,0,0.5-0.1c0.5,1.8,1.2,4.2,1.9,6.6
	c-2.6,0.7-5.1,1.3-7.6,2c2.3,0.6,5.5-0.9,8.1-1.1c1.6-0.6,2.2,1.3,3,2.2c-4.5,1.1-9.7-0.6-13.9,1.1c26.7,2.1,56.2-4,81.9,1.8
	c-0.5-0.9-1.6-1.1-2.5-1.4c12.7,1,25.5,1.4,38,3.9c0.1-0.1,0.1-0.3,0.2-0.4c-0.2-0.4-0.5-0.7-0.7-1.1c0.6,0,1.3,0.1,1.8-0.2
	c0,0,0,0,0,0c0,0,0,0,0,0c0,0,0,0,0,0c0.3-0.1,0.4-0.4,0.4-0.6c0.8-0.2,1.6-0.3,2.4-0.8c-0.8-0.9-1.8-1.2-3-1.3c0,0.2-0.1,0.4,0,0.6
	c0,0,0,0,0,0c0,0,0,0,0,0c0,0,0,0,0,0c0.7,0.3,1.6,0.3,2.3,0.4c0,0.2,0,0.3-0.1,0.5c-31.2-0.6-63-4.2-94.1-5.4
	c-3.8,0.1-7.6-0.3-11.3,0.3c-1.4,0.6-2.4,0.1-2.7-1.1c8-1.8,17.1,0,25.5-0.2l0,0c-26.3-5-27.8,6.9-27.8-13c-0.2-2.7,0-5.5-0.1-8.2
	c-2-2.1-0.9-5.9-1.4-8.8c0.3-2-0.7-4.9,0.6-6.3c0.8-0.3,1.9,0,2.1-1c-0.6-0.2-1.2,0-1.9,0.2c1.2-0.9,3.8-1.8,5.2-1.3
	c2.4-1.5,5.3-1.7,8.1-1.3c0,0.3,0.1,0.7,0.1,1c1.5-0.4,2.6-1.9,3.3-3.2c3.4-4.8,7.6-9.2,12.2-12.9c0.1,0.1,0.1,0.2,0.2,0.2
	c-0.2,0.6-1.1,1.1-1.3,1.7c0.8,1.9,3.5,1.9,5.2,1.9c-0.2,1.6-0.8,1.9,1.2,2.1c1.1,3.6-6.1,5.9-8,3.1c0.4-0.4,0.6-1.2,0.1-1.6
	c-0.9,0.2-1-0.6-0.9-1.4c-0.3,0.4-0.6,0.6-0.7,1c-0.2,1.4-1.7,0.9-2.5,1.6c0.7,1,1.9,0.8,3,1.1c1.4,0.1,1.8,1.9,3.1,1.8
	c2.1-0.4,4-1.3,5.7-2.6c3-1.8-0.6-3.7,2.3-6c2,0.6,2.5,2.7,2.7,4.6c0.3,2.1,1.1,4.3,1.5,6.3c-0.6,1.4-2.6,1.7-2.9,3.3
	c0.4,0.1,0.8,0.3,1.2,0.3c0,0,0,0,0,0c0,0,0,0,0.1,0c0,0,0,0,0,0c1.4-0.4,5.1-0.4,3-2.5c-0.4,0.5-0.9,1-1.5,1.3
	c-0.1-0.1-0.1-0.2-0.2-0.3c2.4-3.4,8.4-4.7,10.9-0.9c2.4,0.3,1.4-2.7,0.3-3.7c0.4-0.5,0.8-0.6,1.2-0.1c1.5,1.6,4.4,0.6,6.1-0.1
	c0-0.1-0.1-0.2-0.1-0.3h-2.5c0-0.1,0-0.2-0.1-0.3c0.8-0.2,1.6-1.2,2.4-0.7c0.2,0.3,0.4,0.8,0.9,0.9c1.3,0,3.1-2,3.5,0.3
	c-0.4,3-4.9,2.8-7,4.1c1.9,1.3,3.9-1.4,6-1.1c0.4,2-2.1,3.8-3.4,4.9c-2.6-2.3-3-1.7-6-0.2c-0.1-0.2-0.1-0.4-0.2-0.6
	c-2.3,2.3-2.9,2.5-4.5-0.6c-0.1,0-0.2,0.1-0.3,0.1c0,1.9,2.3,3.1,3.7,4c2.9,1.8,5.7,0.1,8.3-1.3c3.9-1.4,6.8-4.9,10.6-6.3
	c1.1,0.3,2-0.6,2.9-1.2c1.2,0.6,2.3,1.1,3.6,1.8c0,0,0,0,0,0c-1,0-4.1-0.4-2.7,1.2c1.1,0.2,3.3-1,4.1-0.8c0,0,0,0,0,0c0,0,0,0,0,0
	c0,0,0,0,0,0c0.7,0.1,0.9,1.8,2,1.6c2-0.2,4.3,0.4,6-1c5.3,6.3,8.9,13.6,14.1,20c1,5.8,1.4,11.9,1.7,17.9c-0.7,1.9-6.2,0.5-8.2,1
	c-9.6,0.4-19.5,0.6-29,0.8c0,0.1,0,0.2,0,0.2c11.3,0.3,22.6-0.5,33.9-0.5c1,0.3,3.2-0.7,3.5,0.5c0.1,0.6,0,1.5,0.7,1.8
	c0-6.9-1.2-13.9-1.6-20.9c2.2,0.8,1.4,3.4,1.7,5.3c0.9,2.5-0.1,5.5,1,8c0.8-2.4-0.3-6.6,0.2-9c1.3,5,0.8,11.3,3.1,15.9
	c0.2-3.1,4.2-1.5,6.5-1.7c5.7,0.1,11.4,0,17,0.1v0.2c-6.3,1.3-13.5,0.9-19.4,2c-2.2,0.4-4.3,0.1-6.5,0c-0.4-0.1-0.8,0.1-1,0.4
	c9.7,1.6,19.7-1.5,29.5-0.4c0,0-0.1,0-0.1,0c0.1,0,0.1,0,0.2,0c0,0,0,0,0,0c8-0.5,16.2-0.7,24.1-0.2c-7.7,1-16.1,2.3-24,2.8
	c0.1,0.2,0.2,0.3,0.3,0.5c-1.3,0.5-1.5,0.7-1.6,1.2c7.5-1.2,15.1-2.5,22.3-3.1c2.5-0.1,5.2-0.4,7.7-0.3c1.3-0.5,2.8-0.3,4.2-0.3
	c0.4,0,0.9-0.2,1.1,0.3c-5,2-11.5,1.5-16,4.5c4.9,0,9.8-1.5,14.6-2.3c1.9-0.7,5.8-0.2,6.5-2.2c-2.7-2-8.5-1-12.1-1.6
	c-9-0.6-18.3,0.5-27.3-0.2c0-0.1,0-0.2,0-0.2c8.7-1.3,17.8-1.1,26.3-0.2c2.9-0.6,5.9-0.8,8.9-0.6c1.6-0.1,3.3,0.2,4.8,0.1
	c0.6-0.4,1.3,0.2,1.7,0.7c-0.5,0.7-1.3,1-2.1,1.4c1.2,0.1,3.1-0.7,3-2.1c3.8-0.7,8.2,0,12.2-0.4c0-0.1,0-0.1,0-0.2
	c-0.1,0-0.3-0.1-0.5-0.1l0,0c-6.2,0-12.8,0.5-18.9-0.2c0.1-0.2,0.3-0.5,0.4-0.7c-0.9-0.4-1.9,0.4-2.8-0.1c0.1,0.4,0.4,1-0.3,1.1
	c-1.4-0.2-3.2,0.2-4.4-0.3c0.7-0.7,2,0.2,2.6-0.5c0-0.1,0-0.1-0.1-0.2c-15.3,0.4-30.6,1.4-46,0.8c-2.4-0.5-9.9,1.1-10.8-0.9
	c-0.2-1.3,0-2.7-0.8-3.7c-1.5-8.5,3.6-16.9,7.9-23.9c1-1.1,2.8,1.6,3.9,0.2c0.9-2,1.4-4.4,1.8-6.5c1-0.1,3.6,0.8,3-1.1
	c-0.9-1.2-0.4-2.4,0.6-3.4c0.6-0.7,0.6-1.7,1.2-2.3c0.5-0.4,0.9-0.7,0.9-1.4c-0.2-2,0.6-3.7,0.8-5.6c-0.2-1.7,1.2-3.3,2.6-3.4
	c1.9-0.4,1.5,4.7,3.9,3c0.4,0.4,0.8,0.8,1,0c0.4-1.8,2.3-1.3,2.8-3.2c0.2-0.7,0-1.4-0.2-2c-0.3-1.8,1.1-2.8,0.8-4.6
	c0-2.5,0.2-5,0.6-7.5c1.5-1,3-4.9,2.1-6.5c-1,1.8-0.4,4.7-2.5,5.9c-1-2.9,1.2-5.6,1.7-8.2c-0.5-1.1-2-1.5-2.8-2.2
	c-0.8-0.3-2.2-1.1-1.6-2.1c0.4-0.7-0.4-1.2,0.1-1.8c1.5-2.8,1-7.8-2.6-8.8c-1.3-0.3-2.7,1.5-3.7,0c-3.5-3.8,1.8-10.4-1.6-14.4
	c-3.2-2.4-2.6-7.1-3.7-10.7c-1.1-1.5-2.4-1.8-2.7-3.6c-1.6-1.8-3.5-3.6-4.7-5.8c-2.3-3.2,2.5-7.1,0.1-9.9c-2.5-3.3-3.1-3.3-6.8-1.7
	c-8.5,1.9-1.4-4.9-8.9,2.5c-6.3,3.3-0.1,12.8-8.6,15.7c-1.7,0.6-3.7-1.9-5.2-0.3c-3.7,4.4,1.2,4.1-0.1,7.9c-0.4,1.6-1.4,3.1-1.3,4.7
	c0.5,1.8,1.4,5.5-1.2,6c-1.6-0.5-3.5-1.6-4.1,0.9c0.3,1,0.1,1.6-0.2,2.6c0.1,0,0.1,0.1,0.2,0.1c1.5-6.4,0.9-1.8,5-3.2
	c2.2-1.8,1.1-4.8,0.9-7.1c0.4-2.5,2.6-5.7,0.4-8c-0.3-0.3-0.5-0.8-0.3-1.3c1.5-6.7,6,4.4,11.5-7.6c-0.2,2.9,0.6,5.7,2,8.3
	c-0.4-3.6-2.2-6.3-1.3-10.3c-0.3-1.7-0.5-3.7,0-5.5v0c0.4-1.5,2.3-2.1,3.4-3.1c0.9-0.5,1.6-2.7,2.6-2c1.5,1.4,3.7,0.5,5.4,0.2
	c1.1-0.3,2-1.3,3.2-1.1c1.6,0.9,3.3,3,3.5,4.9c-2.2,3.9-1.9,7.3,1.2,10.7c0.9,1.7,2.8,2,3.2,4.2c0.1,0.5,0.4,0.9,0.9,1.1
	c0.7,0.4,1.8,1.5,1.6,2.8c0.1,4.2,1.9,7.8,4.4,10.9c0.6,4.4-2.3,9.2,0.9,13.2c1,1.2,2.6-0.6,3.9-0.2c2.5,1,3.9,5.3,2.2,7.4
	c-0.6-0.9,0.3-1.6,0-2.5c-0.4-0.9-0.1-3.5-1.6-2.8c0.4,0.4,0.9,1.2,0.6,1.8c-0.5-0.1-0.9-0.1-1.2,0.4c-1,2.1,3.8,1.9,0.7,7.9
	c-1-0.2-0.2-1.8-1.1-2.4c-0.3,0.4-0.5,1.1-0.2,1.5c0.6,1.3,0.2,2.4-0.2,3.7c-0.3-0.7-0.8-0.9-1.4-0.6c-0.6,0-1-1.1-1.8-0.8
	c-1-0.7-2-2.8-1.6-4c0.8-1.1,0.8-2.8,1-4.2c-0.2,0.1-0.4,0.2-0.7,0.3c1,0.4-0.3,3.1-1.1,3.4c-0.9-1.1-1.2-0.7-1.9,0.3
	c-0.6,0.6-1.5,1.8-0.1,2c-0.2,1.2-2.2,4-1.3,4.7c0.2,1,0.5,1.7,1.3,2.3c1.2,0.8,1.3,2.3,1.7,3.6c-1.3,0.3-1-0.8-1.2-1.7
	c0,0-0.1,0-0.1,0c-0.4,0.7-0.1,1.9-0.6,2.5c-1.2-0.8-7-0.6-4.9-2.8c1.6,1.7,1.3,0.2,0.4-0.9c-0.3-0.7-0.3-1.5-0.9-2
	c-1.1-0.8-2.1-0.3-1.9-2.1c-0.1-0.2-0.4-0.5-0.6-0.2c-0.7,1.1-1.5-0.1-2.2,0.5c-0.5,1.5,1.1,3,0.5,4.6c-0.7,1.5-1.1,3.4-3.1,2.7
	c-3.8-0.4-3.3,1.9-2.9,4.8c0.1,2,1.3,3.6,1.5,5.7c0.4-1-0.3-2.2-0.1-3.3c4.9,1.6,2.1-2.9,0.9-4.9c0,0,0.1-0.1,0.1-0.1
	c3,1.3,1.5-0.6,3.3-1.3c3.3-0.4,1.1-1.7,2.5-3.6c0.2-0.8,1.3-1.6,1.7-0.7c0.3,0.9-1,2.2,0,2.9c1.5,1.5,4.1,0.4,5.3,2
	c0.1,0.2,0.4,0.1,0.6,0.1c0.4,0.1,0.6,0.7,1.1,0.8c0.6-0.4,1.4-1.7,1.9-0.4c0.5-0.5,0.9-0.1,1.3,0.3c1.3,0.7,1.3,2.4,2.1,3.5
	c1.1-1.8,1.3-2.4,1.4-3.6c-1.6,3-1.1,2.2-2.6,0c-2-1.6-0.5-4.2-0.9-6.2c-0.5,0.6-0.1,1.9-0.7,2.4c-1-0.8-2.6-2.2-1.7-3.6
	c0.2-0.6,1.1-0.7,1.3-1.3c-0.2-1.1-1.2-0.2-1.8,0c-1.9,0,0.7-2.9,1.4-3.1c0.6,0.3,0.8,1.3,1.2,1.8c1,2.3,1.3,0.5,2.1,1.3
	c0.8,1.4,2,3.5,3.2,1.1c0.2-2.1,0-4.1,0.7-6.1c0.1,0,0.1,0,0.2,0c0.9,1.5,2.8,2.4,4.1,3.3c0.3,1.8-1.8,4.3-1.3,6.7
	c-0.1,0.6,0.2,1.8-0.7,1.7c-1-0.2-0.7,1.2-0.7,1.9c0.3,2.8-3.3-0.6-2.6,5c0.1,1.3,0.6,2.9-0.4,4.1c-0.7,0.4,0,1.3-0.2,1.9
	c-0.3,0.3-0.7-0.1-0.7-0.5c-0.1-1.6,1.1-3.9,0.1-5.3c-0.5,0.1-0.5,0.8-0.5,1.2c-0.1,0.9-0.8,2-1.6,1.7c-0.7-0.8-1,0.6-1.8-0.7
	c-0.1,0-0.1,0.1-0.1,0.1c0.2,0.4,0.3,0.9,0.5,1.4c-1.7,2-1.4-2-4.1,0.7c-1.3,1.6-0.7-1.3-1.9-1.2c0.4,1.1,0.8,2.3-0.5,2.9
	c-0.4,0.4-0.8,0.5-1,0c-0.1,0-0.1,0-0.2,0c0.5,2.1,0.7,4.9,2.2,6.5c0.3,0.1,0.3,0.5,0.3,0.7c-0.3,0.1-0.5,0.2-0.7,0.3
	c-0.1-0.3-0.3-0.5-0.4-0.8c-0.3,0.1-0.8,0.4-1,0.2c0,0,0,0,0,0c0,0-0.1-0.1-0.1-0.2c0,0,0,0,0,0c-0.2-0.6,0.1-1.6-0.4-2.1
	c-0.6,0.9,0.4,2.1-0.6,2.9c-0.1,1.2-1.9,0.3-1.2-0.6c0.1-0.1,0.1-0.3,0.1-0.4c-0.3,0.2-0.6,0.3-0.9,0.5c0.2,0.5-0.4,2.3-1.2,1.6
	c0.4,1.5-1.9,1.4-1.8,2.9c0.9,0,1.3-1,2.1-1.4c0.1,1-0.6,4.1-1.7,2.5c-0.5-1.2-2-2.1-2.2-3.4c-0.1-1,3.6-3.7,1.8-3.8
	c-1.2,1.2-8.4-0.9-6-2.8c0.5,0.1,1.1,0.3,1-0.5c0.3-2.3,3.2-3.6,3.9-6c0.4-1.5,2.4-6.2-0.1-6.7c-0.2,0.3-0.5,1.2,0.1,1.3
	c2.4,2.5-2.3,7.9-4.1,9.9c-0.1-1.3,0.4-2,0.9-2.8c-1.7,0.3-1.3,2.4-1.8,3.5c-2.4-0.5-4.3-8.2-0.7-8.1c-4.7-0.9-1.7,6.9-0.3,8.9
	c0,0-0.1,0.1-0.1,0.1c0.2,0,0.3,0.1,0.5,0.1c-1.8,3.4,3.8,2.9,5.7,4.5c-0.8,1.6-2,3-1.6,4.8c-5,1.5-1.1-3.5-4-4.6
	c-1.2,0.1-1.7,1.4-2.1,2.3c-3.5,0.3-8.2-0.4-8.8-4.8c-0.7,0.9-0.1,1.8,0.1,2.7c-0.2,0-0.3,0-0.5,0c1.2,0.7,2.8,1.4,2.8,3.1
	c-1.2-0.7-3-1.5-3.1-3.1c-0.6-0.3-1.4-0.1-1.8-0.6c0.3,0,0.4-0.4,0.4-0.7c-0.2,0-0.4,0.1-0.5,0.1c0-0.1,0-0.2,0-0.3
	c0,0-0.1,0-0.1-0.1c0,0.1-0.1,0.3-0.1,0.4c-0.8-0.2-2.1-0.4-1.3-1.5c0.9-1.9,1.6-1.6,3.3-1.1c0.4,1.1,2.1,1,3,0.6c0-0.1,0-0.2,0-0.3
	c-0.7-0.2-2.1,0.4-2.3-0.5c6.3-10.1-3.1-9.1-4-14.9c0.9-2.1,4.5-1.1,5.9-2.6c-2.2-4.2-6.5-7-8.5-11.6c-0.8-1.4,2.5-10.6-0.4-8.6
	c1.7,2.1-0.8,5.3-0.1,7.7c-0.6-0.9-1.1-1.8-1.8-2.7c-0.2,0.6-0.1,1.5-0.2,2.1c-1.7,0.3-3.6,0-5.4-0.5c2.3-1.2,9-2.9,4.1-5.6
	c-4.2-0.3-3-6.8-7.3-6.5c0,0,0,0,0,0c0,0,0,0,0,0.1c-0.1,0-0.1,0-0.2,0.1c0,0,0.1,0,0.1,0c-0.1,0-0.3,0.1-0.4,0.1c0,0,0.1,0,0.1,0
	c-1.8,0.3-3.8,3-5.8,2.6c-3.1-1.8-4.1-0.3-2.9-4.2c-0.4-0.3-0.9-0.6-1.3-0.6c-2.3,0.4-1.7-2.4-3.4-2.8c-0.1,0.1-0.1,0.2-0.2,0.3
	c0.4,1,0.9,2,1.4,3.1c-1.8-0.1-4.7-1.6-2-3.1c-0.9-0.1-1.7-0.4-2.4-0.9c0,0,0,0,0.1,0c-0.1,0-0.1,0-0.2,0c0,0,0.1,0,0.1,0
	c-3.3,1.1-1.2,2-4.6,0.1c-1.5,0.7-3,1.4-4.6,2c0.1-0.4,0.2-0.8,0.4-1.1c-0.9,0.8-1.8,1.6-3.1,1.7c0,0.1,0,0.2,0.1,0.2
	c0.2,0.1,0.4,0.1,0.7,0.2c0.1,0.1,0.2,0.2,0.3,0.4c-1.2,0.4-1.8,2.2-3.1,1.9c-0.6,0.4,0.1,1.2,0.7,1c1.3-0.8,2.1-2.3,3.4-3.1
	c1.6-1,8.8-4.4,4.2-0.3c-4.3,2.2-0.5,4.1-6.7,4.4c-1.1,0.2-2.3,1.9-2.1,3c0.1,0.6-0.1,1-0.7,1.2c-3.2,0.9-4.8,7-8.6,4.6
	c1.1,2,2.7-0.1,3.9,1.4c0.4,0.1,0.5-0.2,0.7-0.9c0.7-1.9,2-3.4,3.5-4.5c2.2-1,1.5,3.2,1.6,4.6c0,1.8-2.3,1.9-2.9,3.3
	c1.1,0.6,1.8-0.5,2.8-0.9c0.4,1.9-1.1,2.6-2.7,2.5c-1.3,0.5,0.2,1.9,0.6,2.7c1.3,1.6,0.2,2-0.4,3.4c1,0.3,2-0.8,2.2-1.7
	c0.3-2.1-2.5-3.6,1-4.5c-0.1,1.3-0.5,2.6,0.3,3.9c0.1,1-0.6,3-0.9,3.9c-0.5,0-0.6-0.3-1.2-0.8c0.1,1,1,1.6,1.7,1.8
	c1-0.5,0.6-2.2,0.8-3.1c1.8,1.1,3.2,2,4.5,2.8c0.1-0.1,0.2-0.2,0.3-0.4c-14.2-12.3,7.1-5.4,0-13.4c2.5,0.3,3-2,3.1-4.1
	c-0.8,1-1.1,3-2.2,3.2c0,0,0,0,0,0c-0.1,0-0.2,0-0.3,0c0,0,0.1,0,0.1,0c-0.1,0-0.2,0-0.3,0c0,0,0,0,0,0c-0.1,0-0.2-0.1-0.3-0.1
	c0.1,0,0.1,0,0.2,0.1c-1.6-0.8-2.6-2.8-3.9-4.1c-0.1,0.1-0.1,0.3-0.1,0.3c-0.6,0-1,0-1.6-0.1c1.4-1.1,1.3-3.7,3.3-3.5
	c3.1,0.4,2.4-3.3,4.8-4.5c0.1,0.1,0.1,0.2,0.2,0.2c-0.2,0.8-0.4,1.5-0.6,2.4l0,0c0.6-1.5,1.2-2.7,1.8-4.1c2.7,1.9,3.5-1.5,5.2,1.9
	c0,0,0,0,0,0c0,0,0,0,0.1,0.1c0,0,0,0,0,0c0.3,0.3,0.6,0.6,1,0.7c0,0,0,0,0,0c0,0,0.1,0,0.1,0c0,0,0,0,0,0c0.1,0,0.2,0.1,0.3,0.1
	c0,0,0,0,0,0c0.1,0,0.1,0,0.2,0c0,0,0,0,0,0c0.1,0,0.2,0,0.4,0c0,0,0,0,0,0c0.1,0,0.1,0,0.2,0c0,0-0.1,0-0.1,0
	c1.1-0.1,2.3-0.5,3.4-0.4c-0.2,1.3-0.9,2.6,0.6,3.2c1.7,0.7,3.2,2.2,5,2c1.6-1.2,3.5-3.3,5.6-2.9c0.2,0.5,0.6,1,1.1,0.7
	c1.3,1.3,1.2,3.6,2.9,4.6c6.7,2.4-0.4,4.1-3.5,4.9c0.7-1.2,2.5-3.8,0-3.7c1.5,2-0.9,3.9-1.4,5.8c-0.9-0.9-4.9-3.5-5.1-1.4
	c1.6,0.2,3.6,0.8,4.7,2.2c-0.7,1-0.4,2.5-1.5,3.3c-0.5,0.2-0.9,0.3-1.1,1c-0.7,1.2-0.6,2.4-1.3,3.3c-1.3,0.1-2.9-0.1-3.4-1.5
	c3.4-0.5,2.2-1.3,0-2.6c0,0.1,0,0.2-0.1,0.2l-1.4-0.3c-0.1,0.1-0.2,0.1-0.2,0.2l1.3,1.7c0,0-0.1,0.1-0.1,0.2c0,0-1.3-0.7-1.3-0.7
	c0.5,1.2,1.3,2.2,2.2,3.2c0.6,0.7,2,0.8,2.5,1.5c-0.5,2.1-3.1,2-4.8,1.9c-0.6-0.1-0.7,0.4-0.4,0.8c0.5,0.8,0.1,1.4-0.4,2.1
	c-0.2,0.7-0.4,1.4-0.6,2l0,0v0.1c0,0,0,0,0,0c0,0,0.1,0,0.1,0c0.6-0.4,1.2-2.2,1.9-1.4c-0.9,2.2-3.8,1.9-5.2,3.7
	c0.5-2.8,5-2.3,1.2-5.6c-1.5-1.1-2.9-4.6,0.1-4.8c1.5-0.4,1.8,0.7,2.7,1.5c0.3-1.7-0.8-3.6-1.5-5.3c0.2-0.4,0.6-0.8,0.9-1.1
	c-0.9-0.5-0.3-2-0.4-2.9c0-1.6-0.1-2.8,1.9-2.4c0,0,0,0,0,0l0,0c0,0,0,0,0,0c-1.3-2-2.6,0.6-2.7,1.9c0.3-4-6.8-5.7-2.2-9
	c0,0,0-0.1-0.1-0.1c-6.4,4.1,3.1,4.1,1.7,12.5c-0.5,0.8-2.1,1.3-2.7,2.2l0.2,0.2h-4.7c0.1-0.5,0.2-0.7,0.3-1.1
	c-0.1-0.1-0.2-0.2-0.3-0.2c-0.1,2-2.1,0.6-2.8,2.1c2.2,0.4,9.7,1.1,10.6-1.4c2.1,3.5-0.5,1.7-2.6,2.7c-1.4,0.8-0.5,3.6,0.2,4.6
	c0.7,1,1.9,1.4,2.2,2.7c-0.8,1-3.8,2.7-2.2,4.4c-0.2,1.4-2.6,0.3-3.6,0.5c3.8,1.8-0.2,4.4-2.8,4.4c-1.5-0.3-1.8,0.7-2.3,1.8
	c-5.5-2.7-3.5-0.9-5.3-5.9c-0.7-1-1.7-1.9-1.5-3.2c-1.3-0.9-1.8,1.9-2.7,2.6c-3.5-5-6.1,0.1-7-3.5c-0.3-0.7-1-1.1-1.7-0.7
	c-5.1-1.2-0.6-4.3-9.6-7.7c-2.1,1.2-2.1,4.1-3.1,6.2c1.9,0,1.9-3.6,2.6-5.1c3.7,1.8,6.6,2.4,6.6,7.2l-0.3,0.1
	c-0.8-1.1-2-2.4-3.5-1.6c0-0.3,0-0.5-0.1-0.8c-1.1,2.4-2.3-1.4-3,1c-0.3,1.1-1.1,1.7-2,2.3c-0.6,1.2-2.4,3.2-3.4,1.5
	c-0.7-1.3-2.9,0.2-3.8-1c0.4-0.6-0.1-1-0.6-1.4c-0.5-0.4-0.3-1.1-0.8-1.5c-1.1-0.3-2.5-0.7-2.5-2.1c0-3.9-2.7-3.5-0.8-7.6
	c-0.8,0.4-0.8,1.8-1.7,2c-0.8-0.4-2.2-0.8-2.1-1.9c-1.5-0.5-1.6,1.2-2.7,1.7c0,0,0,0,0,0c-0.1,0.1-0.2,0.1-0.4,0.2
	c0.1,0,0.2-0.1,0.3-0.1c-0.2,0.1-0.4,0.2-0.6,0.2c0,0,0.1,0,0.1,0c-0.1,0-0.3,0.1-0.4,0.1c0.1,0,0.2,0,0.3,0c-2.7,0.4-2.2-4-2.7-5.6
	c2.5-1.1,3.2-3.5,3.9-5.9c2.8-2.9,3.3-2.9,5.1,0.6c1.4,2.1,4.1,2.9,5,5.2h0.1c0.1-0.9-0.7-1.8-0.1-2.6c0.7-0.5,2-1,2.8-0.7
	c1,1.3,1.7,2.3,3.1,0.6c-1.2,0.8-3.6-0.6-1.8-1.9c1.1-0.9,1.5,0.8,2.2,1.4c2.1,0.8,3.9-3.5,6-4c-0.1-0.1-0.2-0.2-0.2-0.3
	c-0.8,0.3-1.6,0.7-2.4,1c-0.1-0.1-0.1-0.1-0.2-0.2c0.9-2.3,5-4.3,2.9-7.1c-1.2,2.7-3.9,6.9-7.2,7.3c-1.9,0.8-4.3,3.3-6.7,2.5
	c1-1.5,1.2-2.8,0.3-4.4c-0.1-2.4-2.2-4.2-3.3-6c0-0.3,0.2-0.6,0.4-0.9c0.5-1-0.4-2.7-1.7-2.4c6.2-2.7,6.6-6.8,2-11.3
	c0.1,1.7,2.2,3.1,2.3,5.1c0.5,2.6-2.5,5.1-4.9,5.5c-0.8-0.7-2,0-2.8,0.4c-2.9,1.4-7,0.2-9.5,2c0.1,0.1,0.2,0.3,0.3,0.4
	c0-0.5,0.2-1,0.8-0.7c3.5,1.1,8.6-2.4,11.7-0.1c-2,1.8-6.1,1-2.4,4.4c0.7,0.6,4.8,0.5,2.9,2.2c-2.1,0.6-4.3,1.5-6.2,2.2
	c-0.2,0.4,0,0.7,0.4,1.2c-1,0.3-2.3,0-2.5,1.2c-0.5,1.1-1.2,2.8-2.3,3.2c-4.1,0.2-1.3,1.7,0.9,2c-1,2.4-3.9,1.5-5.9,1.2
	c0.8,1.8,0.3,2.7-1.4,3.5c0,0,0,0,0.1,0c-0.1,0-0.1,0-0.2,0.1c0,0,0,0,0,0c-0.1,0.1-0.2,0.1-0.4,0.1c0,0,0,0,0,0c-0.1,0-0.2,0-0.3,0
	c0,0,0.1,0,0.1,0c-0.1,0-0.3,0-0.4,0c0,0,0,0,0,0c-0.1,0-0.2,0-0.3,0c0,0,0.1,0,0.1,0c-0.1,0-0.2,0-0.3-0.1c0,0,0,0,0,0
	c-0.1,0-0.2-0.1-0.3-0.1c0,0,0.1,0,0.1,0c-0.4-0.1-0.9-0.6-1.3-0.8c0.5,0.9,2.4,1,1.6,2.3c-0.7,0.6-0.1,2.6-1.3,2.7
	c-0.3,0.1-0.7-0.2-0.9-0.5c-0.5-0.4-1.3-0.3-1.9-0.7c-1.7-1-0.6-2.5-0.2-3.9c-1.7-0.7-2.3,2-1.7,3.2c0.5,1.7,4.9,2.7,2.3,4.7
	c0-0.7-0.1-1.2-0.2-1.8c-0.9,0.5-1,1.4-1.4,2.2c0.9-4.8-4.2-2.3-7-2.3c0.6-1.4,2.2-2.1,2.4-3.7c-0.4,0-0.8-0.1-1.3-0.2
	c0.2-4.6-3-11.1-7.9-6.4c-0.6,0.5-1.1,0.9-1.4,0.7c-1.8-1.3-3.1-3.2-5.4-1.4c-5.3-8.1-5.2-2.2-6.5-14.8c-0.2,1.8-0.4,3.8-0.5,5.6
	c-0.1,0-0.2,0.1-0.3,0.1c-1.1-0.7-1.4-2.3-1.8-3.2c-2.5-0.1-1.5,1.4-4.8-0.7c2.7-3.3-5.6-1.5-3.2-10.5c-1.5,3.7-2,5.9,1.4,8.6
	c-0.1,0.1-0.1,0.2-0.2,0.3c-1.4,0.1-2.8-2.3-4.1-1.9c-2.2,2.8,0.1,8.2-2,11.1c-2.8,0.7-5.8-2.4-8.8-2.2c0.6,2.5,4.5,1.3,6,3.1
	c-1.1,1,0.6,0.8,0.8,1.4c-2.6,0.5-3.2,3.8-5.2,5.3l0,0c-1.9,1.4-2.4-1.8-4.2-1.3c-0.2,1.5,2,2.2,1.8,3.6c-1.6,2.9-1.1,1.8-3.4,0.8
	c-1.4-0.1-2.1,1.6-3.4,1.7c-0.7-0.1-2.2-0.6-2.2-1.5c0-0.5,0.8-1.6-0.3-1.3c-2.1,0.3-4.8,2.8-6.5,0.4c-1.2-0.8-3.8,0-3.5-2.2
	c-0.1-1.6,1.3-4-0.4-5.2c-0.7-0.4-3.5-0.8-2.8,0.7c6-1-1.2,7.4,5.6,7.3c2,0.5-2,3.5,4.3,1.2c2.6-1.6,3.7,3,6.2,2.1
	c1.2-0.8,3.1-3.3,4.1-1c0.5,2-3.6,1.6,0.1,3.6c0.1-0.1,0.1-0.2,0.2-0.2c-2.5-2.1,3.3-0.8,1.1,2.3c-0.9-0.2-1.6-0.9-2.5-0.9
	c0,0.6,0.4,1.1,0.7,1.7c-1.6,0.3-3.8-0.1-4.8,1.4c1.9,0.8,4.4-1.1,6.1,0.1c1.4,0.8,0.7,4.8,3.2,2.9c1.7,2.6-6.3,0.3-7.3,1.5
	c-1.3-0.8-1-3.7-2.6-4.1c-7.8,0.1-2.8,3.2,0.5,5.7c-0.6,0.2-1.1,0.4-1.6,0.6c0,0.1,0,0.2,0,0.3c0.7,0.1,1.4,0.2,2.1,0.3
	c-1,2.1-6.9,9.5-6.1,2.9c-0.8,0-1.3,0.4-1.4,1.3c-0.2,1.4-1,2.6-1.7,3.8c-0.1,0-0.3,0-0.4,0c-0.4-1.5-0.5-3-1.1-4.5
	c-1.2,0.5-1.7,1.6-2.5,2.6c-0.8-1.1-2.6-1.8-3.8-1.5c0.7,0.9,2.3,1,3.4,1.6c-0.8,0.9-3.2,1.4-3.7,0.5c0.4-1.2-0.7-1.1-1.5-0.7
	c0.4-0.5,0.6-0.7,1-1.1c-0.1-0.1-0.1-0.1-0.2-0.2c-0.7,0.7-1.4,1.5-2.1,2.2c-0.1-0.1-0.1-0.1-0.2-0.2c0.6-1.1,2.1-2,1.7-3.4
	c-0.6-1.3,0.6-2.4,0.8-3.5c-0.2-0.7-1.6-0.7-1-1.7c0.5-1.1-1.2-1.8-1.1-2.5c-0.1-0.7,1.5-1.4,1.6-2.3c-0.4-0.9-1.2-2.2-2.1-2.6
	c0,0,0,0,0.1,0c0,0-0.1,0-0.1,0c0,0,0,0,0,0c-1.8,0.8-0.6,3.8-2.1,4.9c-0.2,0.8,1.1,1,1.6,1.2c0.2,1.2-0.4,2-1.4,2.7
	c-0.1,3.4,3.9,2.2,0.3,7c-1.8,2.1,0.4,2.5,1,4.2c0.1,3.2-3.9,4.8-6.6,4.1c-1.3-0.3-2.5,0.3-3.4,1.1c-0.8,0.4-1.8,0.2-2.5,0.7
	c-0.2,0.2-0.2,0.9,0,1.3c0.8,2.5-2.2,1.1-3,0c-4.4-2.3-7.9-7-12.6-8.4c-1.4,0.1-3.7,3-5.4,1.3c-0.4-2.8,1.6-5.6-0.9-8.3
	c-3.1-2.6-5.7,2.5-8.7-3.3C3.1,108.9,3,109,3,109c1.2,2.2,3.6,4.5,6.1,3c2.6-0.3,4.2,3.5,3.4,5.9c-0.2,0.9-0.8,2-0.5,2.9
	c0.8,1,2.5,0.6,3.6,0.9C16.9,121.7,18.3,122.7,19.3,122z M261.9,88.8c0.2-0.5,0.3-1,0.7-1.4c0.3,0.3,1.7,1.1,0.8,1.5l0,0
	c-0.5,0.1-1,0.4-1.5,0.3C261.9,89.1,261.8,88.9,261.9,88.8z M213.4,97.8c1.1-2.9,1.3-0.9,3.7-2c-0.7-0.1-1.4-0.2-2.2-0.4
	c0.1-0.4,0.2-0.6,0.3-0.9c-0.4,0.1-0.8,0.1-1.2,0.2c0.4-0.9,0.4-1.9,1.1-2.6c0.6-0.3,0.8-0.9,1.3-1.4c0,0.7,0,1.3,0.1,2
	c2-1.1-0.6-3.6,0.7-5.4c1.6,1.5-0.1,5.1,2.6,5.6c0.8,0.4,1.5,0.8,2,1.6c-1,0.7-2.1,1.5-3.2,2.2c1.5,0.6,3-0.7,3.3-2.1
	c0.3,1.5,0.5,2.7,2.3,2.5c1.4-0.1,4.5,0.5,3.8-1.7c0,0,0,0,0,0l0,0c0,0,0,0,0,0c-1.1,1.5-3.1,0.7-4.7,0.6c0.1-0.2,0.1-0.4,0.2-0.6
	c-0.1,0-0.2,0-0.3,0c0,0.2,0,0.4,0.1,0.7c-1.5-4.5-4.5-3-4.5-5.1c0.3-1.8-0.3-3.2-1-4.5c0.4-0.5,0.4-1.7,1.3-1.5
	c1.2,0.5,2.7,0.5,3.6,1.3c-0.7,2.3,0.3,4.2,1.3,6.2c0.2-0.3,0.6-0.7,1-0.7c1.8,0.8,2.6-1,2.7-2.5c0-0.9-0.7-1.2-0.2-2.2
	c0.2,0.3,0.5,0.6,0.7,0.9c0,0.1,0,0.2,0,0.2c0.1,0,0.1,0,0.2,0c1.6,3.7,5.1,5.8,7.1,9.2c-0.2,1.2-2.3,0.6-3.1,1.4
	c-5.5,2.9,2.2,6.6,3.6,9.5c-2.4-0.3-4-1.4-3.5,2c-1.7-1.1-2.3-3.7-4.6-4.1c1,1.9,2.7,3.4,3.6,5.3c-0.6,0.5-0.2,1.2,0.2,2
	c-1.3,0.3-3.6-0.7-4,1c-1.9,1.3-2.8,3.9-5,4.7c-1.8-0.4-1.6-3.4-1.9-4.9c0.3-0.4,0.9-0.7,1.4-1c-0.6-1.1-2.7-0.4-2.9-1.7
	c0.3-0.6-0.1-1.2-0.4-1.7c-0.6,0.4-1.2,1-1.9,0.5c-1.5-0.9-4.4-0.6-4.8-2.6c7.7,1.4,7.8,4.1,14.9-1.3c0-0.1-0.1-0.2-0.1-0.4
	c-5.3,3.1-7.3,3.5-13,0.6c3-0.8,8.1-0.9,8.2-4.9c-1.5,3.6-5.4,3.8-8.8,4.4c-0.2-0.2-0.6-0.2-1-0.1c0.1,0.1,0.2,0.1,0.3,0.2
	c-0.9,0.1-2,0-2.3,1.1c2,3.2,6,3.2,8.9,5.1c0,0.1-0.1,0.2-0.1,0.4c-1,0.1-1.9,0.4-2.6,1.2c0.3,0.6,1,0.9,1.5,1.2
	c-0.3,0.3-0.2,1-0.7,1.3c-1.5-1.4-3.7-1.2-5.6-1.7c-2.2,0.8-2.5-1.1-3.4-2.7c0.1-0.1,0.2-0.1,0.3-0.2c0.7,0.8,1.3,1.5,1.9,2.3
	c0.1-0.1,0.2-0.2,0.3-0.3c-0.6-1.2-1.5-2.1-2.4-3.1c0.7-1.5-1.2-2.7-2.3-3.3c0.7-1,0.7-2.5,2.2-2.4c1.8-0.2,5.5-0.9,2.8-2.8
	c0.8-0.1,1.3-0.4,1.6-1.1c-0.6-0.7-1.5-0.3-2.3-0.8c0.4-0.7,1.1-0.8,1.8-1C212.4,99,212.8,98.3,213.4,97.8z M248.5,139.5
	c-0.3,0.3-1,1.9-1.2,0.9c0.1-1.5-0.8-3.6-0.1-4.9c0,0-0.1,0-0.1,0c0,0,0.1-0.1,0.1-0.1c0,0,0,0-0.1,0c0,0,0,0,0.1,0c0,0,0,0,0,0
	c0,0,0,0,0,0c0,0,0,0,0,0c0.1,0,0.1,0,0.2,0c0,0-0.1,0-0.1,0c0.1,0,0.2,0,0.2,0c0,0,0,0-0.1,0c1.1,0.1,2.3-0.4,3.4,0
	c-0.1,0.2-0.1,0.5-0.2,0.7v0C250,137.2,249.2,138.4,248.5,139.5z M244,159.4L244,159.4L244,159.4L244,159.4z M232.4,122.4
	c0.5-0.1,0.5-0.9,0.8-1.3h0c0.9-0.9,0.3,1.5,0.8,1.9c0.5,1.7,0,3.6,0,5.3c0.1,0,0.1,0,0.2,0c0.2-0.9,0.4-1.7,0.6-2.5
	c0.7,2.6,1.4,5.1,1.8,7.8c0,0-0.1,0-0.1,0.1c-0.4-0.4-0.7-0.8-1.1-1.2c0,0-0.1,0.1-0.1,0.1c0.3,3.7,3,6.7,2.7,10.6
	c-1.2-1.9-13.3-18.7-10.8-18.9c0.6,1.7,0.9,1.1,1.5-0.1c0.3,0,0.6,0.6,0.9,0.3c1-0.3,1.4-5.4,2.2-3.8
	C231.9,121.3,231.6,122.3,232.4,122.4z M241.5,129.9c0.5,0.8,1.6,0.8,2,1.6c0.6,1.5,1.8,2.6,2.7,3.9c0.8,5.2-0.2,9.7-2.9,14.3
	c0,0-0.1,0-0.2,0c-1.1-7.9-2.2-15.1-3.2-22.3c0,0,0.1-0.1,0.1-0.1C240.7,128.1,241,129.1,241.5,129.9z M225.8,119.7
	c0.3-0.2,0.5-0.4,0.8-0.6c0.5,0.5,0.6,1.2,0.5,1.9c-1.3,0.7-2.6,1.8-4.1,1.3C223.9,121.3,224.7,120.4,225.8,119.7z M243.8,158.4
	C243.8,158.4,243.8,158.3,243.8,158.4c0.1,0.1,0.1,0.2,0.1,0.3l-0.1,0C243.8,158.6,243.8,158.5,243.8,158.4z M256.6,131.9
	c-0.1,0.8-0.2,1.4-0.3,2.3c-1.4-0.9-0.9-1.8-0.5-3.2c-0.4,0.1-0.8,0.1-1.2,0.4c0-1.2,0.9-2.2,0.9-3.5c0-1.3,1.5-0.5,1.5-1.9
	c-0.3-1.6-0.6-0.2-1,0.3c0,0-0.1-0.1-0.1-0.1c-0.2-0.7,0.5-1.1,0.6-1.8c0.2-2.8,1.1-0.9,2.2,0.2c1.1,1.3-1.4,2.4-1.5,3.7
	C256.8,129.6,256.7,130.8,256.6,131.9z M61,124.6c-1.1,0.9-2.9,1.6-4.2,0.9c0,0,0.1,0,0.1,0.1c-0.1,0-0.1-0.1-0.2-0.1c0,0,0,0,0,0
	c-0.2-0.1-0.4-0.3-0.6-0.4c4.3-0.3,1.7-3.1,6.5-2.5C62.2,123.4,61.7,124,61,124.6z M46.5,122.9c0.3-0.4,0.5-0.7,0.8-1.1
	c0.2,0.1,0.3,0.2,0.5,0.2c-0.4,0.8-0.3,2.4-1.3,2.6C45.6,124,46,123.5,46.5,122.9z M47.3,102.6L47.3,102.6c0.1,0,0.2,0.1,0.3,0.2
	l0,0c-0.2,0.2-0.3,0.3-0.5,0.5c-0.1-0.1-0.2-0.2-0.3-0.3C47,102.9,47.2,102.8,47.3,102.6z M47.2,108.9c0.4,0.1,0.6,0.5,0.9,0.7
	c-0.3,0.6-0.6,1-0.9,1.5C46.5,110.4,45.7,109.4,47.2,108.9z M50.2,117.4c5.7-0.3,3.4,4.4,0.8,6.6c-2.3-1.5,0.7-2.5,1.7-3.9
	c-1.9-0.9-2.4,2.1-4.1,2.1c-1-0.4-0.8-2.2-1.3-3.1c-0.5-1.5,1.9-0.2,2.6-0.3c0-0.1,0.1-0.3,0.1-0.4c-0.7-0.3-1.4-0.5-2.1-0.8
	C48.8,117.3,49.4,117.3,50.2,117.4z M54.2,116.9c2-3.7,2.2-1.5,2.6,1.3c-0.1,0.5-0.6,0-1-0.1C55,117.8,53.9,118.2,54.2,116.9z
	 M54.6,120.6c4-2.1,8.5-2.4,11.4-5.8c0.8-1,1.3-2.4,2.8-2.4c1.6-0.1,3.1-1.5,4.7-1.2c-0.9,0.7-1.6,1.3-2.6,2.1
	c0.6,0.1,0.9,0.2,1.5,0.3c-1.9,1.2-3.7,2.6-5.7,3.6c-1.5,0.5-2.1,1.6-2.4,2.9c-2.3,1.4-4.1,2.4-5.6-0.5c0,1.7,0,4.2-2.3,4.4
	c0.1,0,0.2,0,0.3,0c-0.1,0-0.3,0.1-0.4,0.1c0,0,0.1,0,0.1,0c-1,0.2-1.8-0.7-2.7-1.1C53.5,122.2,54.3,121.2,54.6,120.6z M62.7,104.5
	c-0.1-1.6,3-1.7,3.8-0.6c0.8,1.4,2.8,3,1.1,4.5C66.5,106.8,63.5,105.7,62.7,104.5z M75,92c0.8-0.5,1.6-0.7,2.3,0.2
	c0.4,1.4-1.7,2.4-2.4,3.7C73.7,94.4,72.9,93.1,75,92z M120.3,113.5c-7.9,7.2-10,1.5-14.2-5c-0.8-1.4-1.6-2.8-0.5-4.2
	c0.5-1.3,0.3-2.9,0.4-4.3c5.7,3.5,12.3,0.3,18,2.7C123.2,106.2,121.9,110.3,120.3,113.5z M85,83.5c1.2-1.7,1.9,0.2,2.2,1.4
	c0.4,1.2-1.2,2.3-1.5,3.5c-0.9-1-1.4-3-3.1-2.7C83.5,85,84.3,84.3,85,83.5z M78,97.8c-0.3,0.1-0.5,0.2-0.8,0.2
	c0.1-1.1,1.5-1.4,2.3-1.8c0.2-0.4,0.5-0.7,0.9-0.9c0,0,0,0,0,0c0,0,0,0,0,0c0,0,0,0,0,0c0.2-0.1,0.3-0.1,0.5-0.2c0,0,0,0,0,0
	c0,0,0,0,0.1,0c0,0,0,0,0,0c0,0,0.1,0,0.1,0c0,0,0,0,0,0c0,0,0,0,0.1,0c0,0,0,0,0,0c0.2,0,0.4,0,0.6,0c0,1.3-1.4,2.5-2.7,2.5
	c0,0,0,0,0,0c0,0,0,0-0.1,0c0,0,0,0,0,0C78.5,97.7,78.2,97.7,78,97.8z M77.9,93.7c0.2-0.7,0.8-0.5,1.3-0.2c0.5-1.1-0.7-1.9-0.2-3
	c2.1-0.4,5.3,2.5,6.7-0.1c0.7,0.3,0.4,1.3,0.7,1.9c-1,0.5-2.3,0.2-3.4,0.3c-2.2,0.4-3.4,3.9-5.8,2.4C77.5,94.5,77.7,94.1,77.9,93.7z
	 M88.8,89.1c-0.7,0.7-1.2,1.1-1.9,0.1c0.5-0.6,0.9-1.1,1.4-1.7C88.6,88.1,89.3,88.7,88.8,89.1z M78.5,103.5c-0.8-0.3-1-2.2,0.1-2.4
	c0.5,0.7,1.4,1.9,0.1,2.3c0,0,0,0,0,0C78.7,103.5,78.6,103.5,78.5,103.5c0.1,0,0.1,0,0.1,0C78.6,103.5,78.5,103.5,78.5,103.5z
	 M83.5,88.8c0.1,0.5,0.2,0.9,0.3,1.4c-1.8,0.3-3.3-1.1-5-1.1c0,0,0,0,0,0c0,0,0,0-0.1,0c0,0,0,0,0,0c-0.8,0.1-1.3,1-2.1,0.6
	c0.1-0.2,0.1-0.4,0.2-0.5c1.9-1.1,3.8-2.3,5.7-3.4C82.9,86.7,83.2,87.7,83.5,88.8z M96,108.7c-2.4-0.5-18.6-0.3-16.4-3.9
	c0.1,0.1,0.3,0.2,0.4,0.3c-0.7-5.3-1.1-4.9,2.6-8.8c2.8,0.1,5.5-1.7,8.4-2c3.4,3.7,4.2,10,8.6,13.1c0,0.1-0.1,0.3-0.1,0.4l0,0
	C98.3,108.1,97.1,108.7,96,108.7z M41.8,125.2c1.2,0.3,2.6-0.9,3.6,0.1c-1,1.2-3.3,1.5-4.7,1.6C35,126.1,38.5,124.7,41.8,125.2z
	 M176.1,168.7c-9.4-0.2-20.1,2.1-28.9-0.6c0.1-0.1,0.2-0.2,0.3-0.3c10.6-0.3,20,0,28.8,0.9C176.2,168.6,176.1,168.7,176.1,168.7z
	 M241.4,157.5c0,0,0,0.1,0,0.1C241.4,157.6,241.4,157.6,241.4,157.5z M108.8,165.5c-1.3,0.1-2.6,0.2-3.9,0.2c0-0.1,0-0.2,0-0.4l0,0
	C105.7,165.4,109.8,163.8,108.8,165.5z M56.5,169.9c-0.2,0-0.4,0-0.7-0.3c15.2-0.6,30.3-3.3,45.4-2.5
	C86.5,169.5,71.4,169.6,56.5,169.9z M125.1,10.5c2.9-0.1,1.8-5,4.3-4.9c2.4,0.5,4.4-1.1,6.7-0.4c0.3,0,0.7-0.3,0.9-0.5
	c0.7-1.3,1.9-1.3,3.1-1.5c2.4-0.2,4.5-1.4,6.6-2.3c2.9-0.4,2.8,7.2,5.8,8.3c2.6,1.4,6.1-3.2,8.3-1c2.2,2.3,4.7,4.7,2.9,8
	c1,2.5,4.8,1.4,6.5,3c0.7,2,3.8,7.4,0.4,7.9c-1.3,1-2.6-1.1-4.1-1.2c0,0,0,0,0,0c0,0,0,0,0,0c0,0,0,0,0,0c-0.3-0.1-0.5-0.1-0.8-0.1
	c0,0,0,0,0,0c0,0-0.1,0-0.1,0c0,0,0.1,0,0.1,0c-0.4,0-0.7,0-1-0.4c-2-3.6-10.6,0.2-8-4.1c-5.2,4,2.3,1.8,3.5,5
	c0.8,1.5,0.8,3.5,2.5,4.4c0.3-1-0.7-1.4-0.8-2.2c-0.1-1.8-1.4-2.6-2.3-3.8c1.5-1.2,4,1,5.2,1.9c2.2,0,4.4,2.4,6.5,1.2
	c0.1,0.1,0.1,0.2,0.2,0.3c-0.8,1.3-1.6,2.5-2.4,3.7c0.1,0.1,0.1,0.2,0.2,0.2c1.1-0.5,2-1,3.2-1.6c-0.7,0.1-1.2,0.2-1.9,0.3
	c0.6-0.7,0.8-2.5,1.9-2c1.7,0.2,3.7,1.5,4.7,0.1c-0.9-0.6-2-0.1-3.1-0.1c-3.3-0.4-0.2-4.9-2-7c-0.6-0.9-0.6-2.3-1.5-3.1
	c-1.4-1.2-4.8-0.7-5.7-2.3c0.5-4.2,1.3-3.1-1.9-7.2c-2.7-4.1-5.3-2.2-8.8-0.7c-4.3,1.1-3.5-9.4-7.5-8.4c-3.3,1.3-6.8,2-10.1,3
	c-2.1,2-5.4,1.5-8.1,1.3c-2.4,0.2-1.2,3.6-3.1,4.7c-0.4-0.4-0.7-0.9-1.2-1.2C124.2,8.7,124.6,10,125.1,10.5z M12.1,74.7
	c0.9,1.7,3.1,2.1,4,3.4c0.5,5,1.3,6.5,6.5,5.4c-1-1-2.9,0-4.1-0.6c-1-0.7-1.8-3.1-1.5-4.1c0.4-0.5,1.9,0.2,2.5-0.1
	c0.8-0.3,0.4-1.2-0.4-1.3c-2.4-0.4-4.7-1.3-6.2-3.3c-1.2-2.3,6.4-3.6,8.1-4.9c1.2-0.4,0.3-1.5,0.6-2.3c2.7-4,8.5-2,12.3-4.6
	c5.9-2.6,0.9-5.7,1.4-9.4c0.4-0.4,0.4-1,0.5-1.5c1.2-0.7,2.8,1.3,4.2,1.3c1.4,0.1,2.6-0.9,3.9-0.8c2.4,0.7,4-1.9,4.6-3.6h0
	c-1.3,1.1-3.6,4.4-5.2,2c-0.1-0.5-0.6-0.6-0.9-0.8c-1,4.4-4.7,0.3-7.2,0c0,0,0,0,0,0c-0.1,0-0.1,0-0.1,0c0,0,0,0,0,0
	c-0.7,0.9-0.4,2.2-0.9,3.2c-0.8,1.8,1.3,3.4,1.6,5.3c1,3.9-6.9,5.1-9.7,5.2c-2.1,0.2-4.4,1.4-5.4,3.2c-0.4,0.6,0,1.8-0.8,2.2
	C17.7,70.3,9.3,71.1,12.1,74.7z M1.4,108.6c-0.1-4.5,0.9-6.1,5.5-4.7c2.6,0.3,6.8,1.7,8.3-1.1c-0.9-6.7-16.6-3.2-2.2-12.9h0v0
	c-16.1,7,1.2,9.2,1.4,12.6c-2.9,3.1-8.5-1.3-12.1,0.1c0,0,0.1,0,0.1,0c0,0-0.1,0-0.1,0.1c0,0,0,0,0,0c-0.1,0.1-0.2,0.1-0.3,0.2
	c0,0,0,0,0,0c0,0-0.1,0.1-0.1,0.1c0,0,0,0,0,0c0,0-0.1,0.1-0.1,0.1c-0.1,0-0.1,0.1-0.1,0.2c0,0,0,0,0,0c0,0-0.1,0.1-0.1,0.1
	c0,0,0,0,0,0c-0.1,0.1-0.2,0.2-0.2,0.3c0,0,0,0,0,0c0,0,0,0.1-0.1,0.1c0,0,0-0.1,0-0.1c-0.9,2.1-1.9,8.8,2,8.1
	C2.1,110.7,1.4,109.8,1.4,108.6z M85.8,20.5c0,0.1,0,0.1,0.1,0.2c2.8,0.6,5.6,0.8,8.5,0.3c0,0-0.1,0-0.1,0c0.2,0,0.4,0,0.5,0
	c-0.1,0-0.3,0-0.4,0c2.1-0.2,4,0.8,6,1.4c0.5,0.2,0.8,0.2,1.2-0.2c2-2.6,4.8-3.5,7.7-4.3c6-3,11.2,7.4,10.4-3.3
	c-0.6,7.8-4.2,0.6-8.6,2c-3.9,0.4-7.6,2.3-10.8,4.3c-3.1-0.9-6.7-1.1-10.1-0.5c-1.5,0.3-3.1-0.6-4.4,0
	C85.8,20.4,85.8,20.4,85.8,20.5z M57.9,29.1c3.2-1.1,2.3-4.1,7.4-1.5c7.2,1.5,10.5,12.3,16,2c-1.3,1.6-2.7,3.8-4.8,3.7c0,0,0,0,0,0
	c0,0-0.1,0-0.1,0c0,0,0.1,0,0.1,0c-0.2,0-0.4-0.1-0.6-0.1c0,0,0,0,0,0c-0.1,0-0.1,0-0.2,0c0,0,0,0,0,0c-5.4-3.7-12.4-11.3-18.5-4.7
	C57.4,28.8,57.7,29,57.9,29.1z M189.1,50C189.1,50,189.1,50,189.1,50C189.1,50,189.1,50,189.1,50z M189.1,50
	c-0.3,0.1-0.6,0.1-0.9,0.2c0-0.1-0.1-0.2-0.1-0.3c0.3-0.1,0.6-0.2,0.9-0.3C189.1,49.7,189.1,50,189.1,50z M188.9,50.1
	c-0.1,0-0.2,0-0.3,0.1C188.7,50.1,188.8,50.1,188.9,50.1z M188.5,48.8c-0.1,0.1-0.2,0.2-0.2,0.2l-0.4,0c-0.3-0.7-0.5-1.3,0.1-1.9
	c0.3,0.4,0.7,0.8,0.9,1.2h0C188.9,48.5,188.7,48.7,188.5,48.8z M184.6,49.6C184.6,49.6,184.6,49.6,184.6,49.6
	C184.6,49.6,184.6,49.6,184.6,49.6z M184.2,49.5C184.2,49.5,184.2,49.5,184.2,49.5C184.2,49.5,184.2,49.5,184.2,49.5z M183.8,49.3
	C183.8,49.3,183.8,49.3,183.8,49.3C183.8,49.3,183.8,49.3,183.8,49.3z M183.1,48.8C183.1,48.8,183.1,48.8,183.1,48.8
	C183.1,48.8,183.1,48.8,183.1,48.8z M181.7,49C181.7,49.1,181.7,49.1,181.7,49C181.7,49.1,181.7,49.1,181.7,49z M182.3,49.5
	C182.3,49.5,182.3,49.5,182.3,49.5C182.3,49.5,182.3,49.5,182.3,49.5z M182.9,49.9c0,0,0.1,0,0.1,0.1
	C182.9,49.9,182.9,49.9,182.9,49.9z M183.5,50.2c0.1,0,0.1,0.1,0.2,0.1C183.6,50.2,183.6,50.2,183.5,50.2z M184.2,50.4
	c0.1,0,0.2,0,0.2,0.1C184.3,50.4,184.3,50.4,184.2,50.4z M184.9,50.5c0.1,0,0.2,0,0.4,0C185.1,50.5,185,50.5,184.9,50.5z
	 M186.8,50.3C186.8,50.3,186.8,50.3,186.8,50.3C186.8,50.3,186.8,50.3,186.8,50.3z M187.3,50.3c0.1,0,0.1,0,0.2,0
	C187.5,50.3,187.4,50.3,187.3,50.3z M188.1,50.5c-0.1,0-0.2-0.1-0.3-0.1C187.9,50.4,188,50.5,188.1,50.5z M189.5,53
	C189.5,53.1,189.5,53.1,189.5,53C189.5,53.1,189.5,53.1,189.5,53z M190,51.7c0,0,0,0.1,0,0.1C190,51.8,190,51.8,190,51.7z M196.8,56
	c0,0.1,0.1,0.1,0.1,0.2C196.8,56.1,196.8,56.1,196.8,56z M196.4,55.5c0,0,0.1,0.1,0.1,0.1C196.5,55.6,196.4,55.6,196.4,55.5z
	 M190,51.5c0.2-1.3,2.3,0.2,2.3,0.8c-0.1,0.5,0,1,0.1,1.5C190.9,54.1,189.8,53.1,190,51.5z M191.6,53.8
	C191.6,53.8,191.6,53.8,191.6,53.8C191.6,53.8,191.6,53.8,191.6,53.8z M191.2,53.8c-0.1,0-0.2,0-0.3-0.1
	C191,53.7,191.1,53.8,191.2,53.8z M190.6,53.5C190.6,53.5,190.6,53.5,190.6,53.5C190.6,53.5,190.6,53.5,190.6,53.5z M190.1,52.6
	C190.1,52.6,190.1,52.6,190.1,52.6C190.1,52.6,190.1,52.6,190.1,52.6z M190.1,52.2c0,0,0-0.1,0-0.1C190,52.2,190,52.2,190.1,52.2z
	 M195.8,53.1c0,0.1-0.1,0.1-0.1,0.2C195.7,53.3,195.7,53.2,195.8,53.1z M194.1,54.6C194.1,54.6,194.1,54.6,194.1,54.6
	C194.1,54.6,194.1,54.6,194.1,54.6z M193.6,52.8C193.7,52.7,193.7,52.7,193.6,52.8C193.7,52.7,193.7,52.7,193.6,52.8z M193,53.1
	C193,53.1,193.1,53.1,193,53.1C193.1,53.1,193,53.1,193,53.1z M191.8,50.8C191.8,50.7,191.8,50.7,191.8,50.8
	C191.8,50.7,191.8,50.7,191.8,50.8z M190,51.5c0-0.1,0-0.1,0.1-0.2C190.1,51.4,190.1,51.4,190,51.5z M189.7,53.6c0,0,0,0.1,0.1,0.1
	C189.7,53.6,189.7,53.6,189.7,53.6z M195.4,54.5c-0.1-0.1-0.1-0.1-0.2-0.2C195.3,54.4,195.3,54.5,195.4,54.5z M195.2,54.3
	c0-0.1-0.1-0.1-0.1-0.2C195.1,54.2,195.1,54.2,195.2,54.3z M192.5,52C192.5,52,192.5,52,192.5,52C192.5,52,192.5,52,192.5,52z
	 M191.8,50c0,0.1,0,0.1,0.1,0.2C191.9,50.1,191.9,50,191.8,50z M191.8,49.8c0,0.1,0,0.2,0,0.3C191.8,50,191.8,50,191.8,49.8z
	 M191.2,50.8C191.2,50.8,191.2,50.8,191.2,50.8C191.2,50.8,191.2,50.8,191.2,50.8z M190.5,50.4C190.4,50.3,190.4,50.3,190.5,50.4
	C190.4,50.3,190.4,50.3,190.5,50.4z M190.3,50.2c0,0-0.1-0.1-0.1-0.1C190.2,50.1,190.2,50.1,190.3,50.2z M190,49.7
	c0,0.1,0,0.2,0.1,0.2C190,49.8,190,49.7,190,49.7z M189.8,48.6c0,0,0-0.1,0-0.1C189.8,48.5,189.8,48.5,189.8,48.6z M157,34.4
	c-0.2-1.2-1.7-0.7-2.2-1.2c-0.2-0.4,0.3-1.1-0.1-1.4c-1.3-0.9-3.5-0.5-4.5-1.7c0.1-2.1-2.5-2.1-3.1-3.9c0.2,1.4,1.7,2.4-0.3,3.2
	c-1.4-1.4-4.8-7.5-0.1-4.6c-1.9-2.2-4.4-3.9-7.3-4.1c0,0,0.1,0,0.1,0c0,0-0.1,0-0.1,0c0,0,0,0,0,0c-0.1,0-0.2,0.1-0.3,0.1
	c0.1,0.2,0.2,0.4,0.4,0.7c-1.7,0.4-2.6-1.8-4-0.3c-0.2,0.1-0.5,0.3-0.6,0.2c-1.4-0.7-2.9-0.1-4.1,0.6c0,0,0.1,0.2,0.1,0.2
	c1.9-0.7,3.4-0.6,5.1,0.4c2.5,0,5.2-1.8,7.3,0.4c0.3,0.2,0.5,0.9,0.3,1.1c-1.6,2.2,2.8,3.2,2.7,7.8c3-3.9,3.7,1.8,6.8,1.9
	c1,0,0.2,1,0.8,1.4c1.9-0.6-0.3-2,3.2-0.5C157,34.6,157,34.5,157,34.4z M154,32.3c0.1,0.2,0.2,0.6,0.3,1.1c-0.7-0.2-1.4-0.4-2.1-0.6
	C153.1,32.3,153.5,31.7,154,32.3z M152.1,32.2c-0.1,0.1-0.2,0.2-0.3,0.3c-0.3-0.4-0.7-0.7-1-1.1l0.3-0.3
	C151.3,31.5,151.7,31.8,152.1,32.2z M149,30.4c-0.3-0.2-0.6-0.4-0.8-0.6c0.2-0.3,0.4-0.5,0.7-0.8c0.2,0.3,0.4,0.6,0.7,1
	C149.3,30.1,149.1,30.4,149,30.4z M118.9,34.3c-3.6,3.1-5.5,0.8-9.3,0.3c-2.1-0.2-4.7,0.6-5.9,2.2c0.1,0.6,0.4,1.2,0.6,1.7
	c0.5-3.4,5.4-3.9,7.9-2.5c3.5,2.3,8-1.4,9.7-4.2C120.4,31.5,120.1,33.8,118.9,34.3z M172.8,44.7c-0.2-0.7-0.2-1.6-0.8-2.2
	c-0.5,0.8-0.2,2.8-1.7,2.3c-0.2,0-0.5,0.2-0.7,0.4c0.1,0.6,1,0.6,0.5,1.3c-0.1,0.9-1.1,2.8,0.2,3.1c0.7-0.2-0.2-1.1-0.1-1.5
	c0.3-1.1,1.7-3,2.3-1.1c2.8,1.7,4.9-1.4,2.5,3.8c0.2,0.1,0.3,0.1,0.5,0.2c0.4-1.3,0.8-2.5,1.2-3.8C175.1,46.7,173.8,46,172.8,44.7
	L172.8,44.7L172.8,44.7z M170.3,48.5C170.3,48.5,170.3,48.5,170.3,48.5C170.3,48.5,170.3,48.5,170.3,48.5z M169.7,49.2
	C169.7,49.2,169.7,49.2,169.7,49.2C169.7,49.2,169.7,49.2,169.7,49.2z M170.5,49.5C170.5,49.5,170.5,49.5,170.5,49.5
	C170.5,49.5,170.5,49.5,170.5,49.5z M173.6,47.4c0.3,0,0.5,0,0.8,0C174.1,47.4,173.8,47.5,173.6,47.4z M165.6,35.4
	c1.3-0.3,2.2-0.3,2.7,1.2c0.3,0.6,2,0.9,1.4-0.1c-3-5-5.7,0.9-9.8-2.5c0,0,0,0,0,0h0c0,0,0,0,0,0c-0.1,0.1-0.1,0.2-0.2,0.4
	C162.6,36.5,161.8,37,165.6,35.4z M158.9,37.5L158.9,37.5c0,0.2,0.1,0.3,0.2,0.3c3,0.4,1.8,3.5,3.9,3c0,0,0,0-0.1,0c0,0,0.1,0,0.1,0
	c0,0,0,0,0,0c0.6,0.3,0.9,1.2,1.4,1.7c-0.5-2.4-3.2-5.7-5.1-6.9l0,0l0,0v0l0,0c0.3,0.7,0.6,1.4,1,2.1
	C159.8,37.6,159.4,37.6,158.9,37.5z M167.7,55.6C167.7,55.6,167.7,55.6,167.7,55.6C167.7,55.6,167.7,55.6,167.7,55.6z M199.9,52.8
	c0-0.1,0-0.1,0.1-0.2C199.9,52.6,199.9,52.7,199.9,52.8z M199.6,54c0-0.2,0.1-0.4,0.1-0.6C199.7,53.7,199.7,53.9,199.6,54z
	 M199.5,55.9c0,0.1,0,0.2,0,0.3C199.5,56.1,199.5,56,199.5,55.9z M200.3,56.1c0-0.1,0-0.2,0-0.3C200.3,55.9,200.3,56,200.3,56.1z
	 M199.5,54.9c0,0.2,0,0.3,0,0.5C199.5,55.2,199.5,55,199.5,54.9z M175.9,52.7c0.6-0.9,1-1.8,1.4-2.8l0,0v0c-1.3,1.9-2.9,3.5-4.9,4.6
	c0.1,0.3,0.5,0.3,0.8,0.2c-0.1,0-0.1,0-0.2,0c0.1,0,0.2,0,0.3,0c0,0,0,0,0,0c0.1,0,0.2,0,0.3-0.1c0,0-0.1,0-0.1,0
	c0.1,0,0.2-0.1,0.3-0.1c-0.1,0-0.1,0.1-0.2,0.1C174.4,54.3,175.2,53.5,175.9,52.7z M175.8,52.8C175.8,52.8,175.8,52.8,175.8,52.8
	C175.8,52.8,175.8,52.8,175.8,52.8z M176.2,51.3c0,0-0.1,0.1-0.1,0.1C176.1,51.3,176.1,51.3,176.2,51.3z M175.6,51.9
	c-0.1,0.2-0.3,0.3-0.4,0.5C175.4,52.2,175.5,52.1,175.6,51.9z M174.8,52.8c-0.2,0.1-0.3,0.3-0.5,0.4
	C174.4,53.1,174.6,52.9,174.8,52.8z M173.8,53.6c0,0-0.1,0.1-0.1,0.1C173.7,53.6,173.7,53.6,173.8,53.6z M172.3,54.5
	c0,0,0.1,0.1,0.1,0.1C172.4,54.6,172.3,54.6,172.3,54.5z M172.6,54.7C172.6,54.7,172.5,54.7,172.6,54.7c0,0,0.1,0,0.1,0
	C172.7,54.7,172.6,54.7,172.6,54.7z M174.8,53.8c0,0,0.1-0.1,0.1-0.1C174.8,53.8,174.8,53.8,174.8,53.8z M175.3,53.3
	C175.3,53.3,175.3,53.3,175.3,53.3C175.3,53.3,175.3,53.3,175.3,53.3z M153.4,11.4c-2.6,2,3.3,2.9,1.5,5v0c-0.2,0.2-0.5,0.4-0.8,0.5
	c0.1,0.1,0.1,0.1,0.2,0.2c0.2-0.2,0.3-0.5,0.6-0.7h0l0,0c0.5-0.5,1.3-1.3,1.1-1.6C155.5,14,153,13.1,153.4,11.4L153.4,11.4z
	 M250.8,75.4c-0.6,2-1.3,4.2-3.3,5c-0.4,0.2-0.1,1.1-0.6,1.2c-1.5-0.4-2.3-2.4-3.8-2.7c-0.5,1.2-1.2-0.1-1.8-0.4
	c-3.2-1.3,3.2,7,4,7.7c0.5-1.3,1.3-2.4,1.1-3.9c0.7,0.3,1.7,1,1.7-0.3c0.1-1.9,2.7-2.4,3.2-4.2c1.3-2.5,1.6-5.3,2.2-8.1
	c0.1-0.7,1-1.6,0.4-2.3c-0.2,1-1,1.2-1.5,1.9c-0.2,1.1,0.3,2.4,0,3.5C251.6,73.5,251.6,74.7,250.8,75.4z M242.2,38.3
	c0.5-1.7-0.5-5.9-2.5-3.9l0,0c0,0,0,0,0,0l0,0c0,0.1,0.1,0.1,0.1,0.2c2.8,0.2,1.8,3.3,1.9,5.2c0.9,2.6,2.7,2.6,5.2,1.9
	c0,0-0.1,0-0.1,0c0.1,0,0.1,0,0.2,0c0,0,0,0,0,0c0.1,0,0.1,0,0.2,0c0,0,0,0-0.1,0c0.1,0,0.1,0,0.2,0c0,0-0.1,0-0.1,0
	c3.3-0.5,1.3,6.9,2.8,5.4c-0.2-1.8,0.3-4.8-1.4-5.8C245.7,41.3,241.3,43.1,242.2,38.3z M253.7,47c-0.9-3.5-1.5-7.1-2.2-10.7
	c0,0-0.1,0-0.1,0c-0.3,3.9,1.2,8.3,2.4,12.1c0.1,0,0.1-0.1,0.2-0.1C253.9,47.8,253.8,47.4,253.7,47z M158.3,176.1
	c30.5-0.8,61.3,1.6,91.6,3.9c0-0.1,0-0.2,0-0.3c-54.4-5.7-109.4-6.2-163.7-0.1c0,0.1,0,0.3,0,0.4C110.2,178,134.2,176.2,158.3,176.1
	z M46.5,43.7c0.5,0.5,1.2,0.9,1.8,1.3h0c0.1-0.1,0.1-0.2,0.2-0.3c-0.4-0.6-1.2-1-0.3-1.7c5.8-4.5-3.1-1.8,1.4-8.2
	c-1.7,1.8-3.4,3.7-0.6,5.5c0.3,0.2,0.4,0.5,0.2,0.8C48.4,42.1,46.8,42.5,46.5,43.7z M42.9,100.6c-3.9-0.6-7.7,0.7-11.6,1.4
	c0,0.1,0,0.2,0,0.3c0,0,11.5-1.4,11.5-1.4C42.9,100.8,42.9,100.7,42.9,100.6z M39.2,100.5c0.2,0,0.3,0,0.5,0
	C39.5,100.5,39.3,100.5,39.2,100.5z M123.6,31.8c2-1.6,4.3-1.4,6.7-1.3l0,0C129.1,29.8,122.6,29.3,123.6,31.8z M150.1,39.9
	c0.5-0.3,0.8-0.6,0.9-1.1c-1.2,0.1-2.2,1.1-3.5,1.2c0.3,0.4,0.5,0.7,0.8,1.1l0,0l0,0l0,0l0,0C148.9,40.7,149.5,40.3,150.1,39.9z
	 M151.9,20.6c0.2,0.3,0.7,0,0.7-0.3c-0.4-1.1,0.9-1.6,1.1-2.6c-0.1-0.1-0.2-0.1-0.3-0.2C152.9,18.5,151.2,19.5,151.9,20.6z
	 M152.1,19.3c0.1-0.1,0.2-0.3,0.3-0.4C152.3,19,152.2,19.2,152.1,19.3z M272.1,102.5L272.1,102.5c0.5-0.1,1-0.4,1.4-0.3
	c-0.4,1.4-0.6,2.7-0.5,4.2c0.1,0.9,0.1,1.1-0.6,1.5c-0.4,0.2-0.8,0.4-1,0.8C271.8,106.8,270.2,103.4,272.1,102.5z M192.7,132.5
	c-0.9,0-1.8-0.3-2.8-0.5c1.4-1.6,4.1-4.2,5.7-1.2C194.9,131.9,193.9,132.5,192.7,132.5z M174.2,105.5c1.1,0.5,2.8-0.5,3.6,0.5
	c0.1,1.2,1.9,3.5,1,4.3c-2.4,0-1.7-5.4-5.5-4.3c-0.6,0-0.9-0.3-0.8-0.9C173.2,104.9,173.7,105.3,174.2,105.5z M224.8,86.1
	c0.1,0,0.2,0,0.2,0c0,0,0,0-0.1,0c1.7,0,1.4,2.2,2.1,3.4h0c0,1-0.3,1.9-1.3,1.8c0,0,0,0,0,0c-0.1,0-0.1,0-0.2,0c0,0,0,0,0,0
	c-2.5-0.4-3-3.7-1.1-5.1c0,0,0,0-0.1,0c0.1,0,0.1-0.1,0.2-0.1c0,0,0,0,0,0C224.7,86.1,224.7,86.1,224.8,86.1
	C224.8,86.1,224.8,86.1,224.8,86.1z M171.2,108.7c-0.1,0-0.3,0-0.4,0c0-0.1,0-0.2,0-0.2c2.7-2.5,4.9-1.9,5.8,1.8
	c1.2,2.5-2.4,0.9-3.7,0.9C173.8,109.2,173.3,108.5,171.2,108.7z M180.6,104.8c1.5-0.3,5.2,2.9,2.2,3.3
	C181.1,107.9,177.3,105,180.6,104.8z M185.5,122.8c-2.2,0-4.1,1.3-6.1,2c-1.4-1.9,0.9-3.5,1.3-5.3c-0.1-0.9-0.1-1.5,0.7-2.1
	c0.3,0.3,0.5,0.4,0.7,0.6c0.3-0.5,0.7-1,1-1.5c1,1.5,1.6,2.6,3.4,1.3c0.2,1,0.5,1.8,0.7,2.7c-0.1,0-0.2,0.1-0.3,0.1
	c-0.5-0.6-1-1.1-1.5-1.7c-0.1,0.1-0.2,0.2-0.3,0.3c0.7,0.7,1.5,1.5,2.2,2.1c-0.3,0.2-0.6,0.4-0.9,0.6c0.8,0.5,1.6,0.6,2.1,1.6
	C187.7,123.2,186.6,122.8,185.5,122.8z M186.5,111.1c-0.8-0.2-0.6-1.3-1.4-1.3c-4.2,1.4-4.3,2.5-5.7-2.6l0,0
	c1.7,1.2,3.5,2.3,5.3,0.9C185.2,109,187.3,110,186.5,111.1z M202.7,121.7c1.1-1.5,3.6-4.5,4.4-1.1
	C206.5,122.4,204,123.9,202.7,121.7z M195,115.8c-1,0.9-2.3,3.8-3,1.2c-1.5-2.2,1.1-2.7,2.5-3.8c0,0.6,0.1,1.1,0.1,1.7
	C195.4,114.9,195.5,115.2,195,115.8z M109.7,88.1c1.2,0.7,2.6,3.3,0.5,3.5c0,0,0.1,0,0.1,0c-0.1,0-0.1,0-0.2,0c0,0,0.1,0,0.1,0
	c-0.1,0-0.1,0-0.2,0c0,0,0.1,0,0.1,0c-0.1,0-0.1,0-0.2,0c0,0,0.1,0,0.1,0c-1.6-0.2-5.1-3.4-2.1-4.3v0
	C108.3,87.2,109.1,87.6,109.7,88.1z M127.1,107.4c1.7-6.6,4.7-5.3,9.4-2.3c0,0.4,0.1,0.8,0.1,1.1c4.5-0.8,5.4,2.8,0.4,3.2
	c-0.5-2.5-4.6,0.9-6.3,1.1C127.3,113.4,126.4,110.7,127.1,107.4z M134.3,94.4c1,0.1,1.2,0,1.7-1.1c0.8,0.1,1.4,0,2,0.2
	c0.1,0.7,0.7,1.9-0.3,2.2c0.2,0.3,0.4,0.6,0.6,0.9c-1.4,0.7-3.3-0.2-4.5,1.1c-0.2-0.1-0.4-0.3-0.6-0.4c0.1,0,0.1,0.1,0.2,0.1
	c-0.1-0.1-0.2-0.1-0.3-0.2c0,0,0.1,0,0.1,0.1c-0.1,0-0.1-0.1-0.2-0.1c0,0,0,0,0.1,0c0,0-0.1-0.1-0.1-0.1c0,0,0,0,0,0
	C131.6,96.3,133,94.3,134.3,94.4z M143.6,95.2c0.3,0.1,0.5,0.2,0.8,0.3c0,0.1,0,0.2,0,0.3c-2.9,0.8-1.3-1.9-5.1-0.6
	c-0.1-1.5,0-4-2.1-3.1c-0.3-0.4-0.6-0.8-0.9-1.3c0.1-0.1,0.3-0.2,0.5-0.2c1.6,0.4,2.9-0.7,4.2-0.9C141.8,91.6,141.2,94.2,143.6,95.2
	z M146.9,98.5c0,0,0.1,0,0.1,0c0,0,0,0,0,0c0.6-0.3,0.8-1.3,1.2-1.9c0.1,0,0.2,0.1,0.3,0.1l0,0c-1.7,4.4-2.5,7.2-4.5,0.9
	c0.9-1.1,1.7,0.3,2.7,0.8c0,0,0,0,0,0c0,0,0,0,0.1,0c0,0,0,0,0,0C146.8,98.4,146.9,98.5,146.9,98.5
	C146.9,98.5,146.9,98.5,146.9,98.5z M126.1,146.8c-2.6-4.3-1.8-10.6-3.1-15.6c-0.1-1.6-0.6-3.2-0.4-4.7c1-1.3,0.7-2.8,0.4-4.3
	c0,0,0,0,0,0h0c0,0,0,0,0,0c-0.2,0.2-0.3,0.2-0.6,0.5c-0.2-1.6,0.4-3.3,0-4.6c-0.8-0.1-0.6-0.9-0.5-1.4c0.1-0.1,0.2-0.1,0.3-0.2
	c2.5,5.1,1.8,11.5,2.9,17c1.1,1,1.1,2.3,1.2,3.7c-0.1,3.2,1.7,6.9,0.1,9.7C126.4,147,126.3,146.9,126.1,146.8z M101.7,104.8
	c-0.3-0.4-0.7-0.9-0.6-1.5h0l0,0c0-2-2.7-3.1-3.1-5.1c-1.1-2.2,2.2-2.8,3.3-1.5c0.5,0.6,1.5,0.1,2,0.7c0.6,2.1,0.2,5.1-0.1,7.2
	c-0.3,0.1-0.6-0.4-0.9-0.2C102.2,104.5,101.8,104.7,101.7,104.8z M86.5,72.2c0.1-0.2,0.1-0.3,0.2-0.5c3.3,0.6,0.5,4.5,5.4,3.6
	c0.5-0.1,0.9,0.3,1.4,0.5c0,0.1,0,0.3,0,0.4c-2.8,1.1-5.2,2.7-7.3,4.8c-0.1-0.1-0.2-0.2-0.3-0.2C86.2,78,86.1,75.1,86.5,72.2z
	 M105,87.5c0.3,0.9-0.6,1.4-1.2,1.8v0c-1.6,0-4.4-1.7-2.7-3.2C102.7,86,104.9,85.1,105,87.5z M111.8,92.1c0.7-0.2,1.4-0.8,2.2-0.4
	c0,0,0,0,0,0c0,0,0.1,0,0.1,0c0,0,0,0-0.1,0c1.9,0.4,0.4,2.8,2.3,2.7c-0.5,1.5-1.3,3.1-0.6,4.7c-0.9-0.2-2.1,0.1-2.7-0.5
	C112.7,96.6,109.3,93.1,111.8,92.1z M114.6,87.9c5.2-4.6,8.2,12.4,2,9.8c-0.7-1.5,2.9-4.8,0.3-5.4c-0.7,0.3-1,0-1.3-0.5
	C114.3,89.3,110.1,91.7,114.6,87.9z M106.8,113.7c0,0.2-0.1,0.3-0.2,0.5c-1.1-1.7-2.5-3.2-3.2-5.1l0,0c0,0,0,0,0,0
	c0.1-0.3,0.1-0.6,0.1-0.9c-0.1,0-0.1,0-0.2,0c0,0.3,0,0.6,0,0.9c-0.5-0.9-1.5-1.6-1.4-2.7C103.7,106.5,106.3,112.1,106.8,113.7z
	 M101.8,91.9c2.1-0.2,2.3-0.2,2.1,2c-2.1-1.2-1.4,0.3-3.3,0.6C99.4,93.3,99.8,91.7,101.8,91.9z M110,93.4c0.8,1,1.1,2.2,1.4,3.4l0,0
	c-1.7,0.1-0.6-1.4-1.2-2.3c-0.5-0.8-1.5-0.5-2-1.1c-0.8-1-1.7-0.8-2.1,0.5c0-0.5,0-1.4,0-1.9C108,92,109.2,92.6,110,93.4z
	 M107.1,91.1c-1.1-0.4-2.2-0.5-3.3-0.3v-0.2c1.7-1.6,2.4-1.3,3.6,0.6C107.4,91.1,107.2,91.1,107.1,91.1z M99.7,103.7L99.7,103.7
	c-0.7-0.9-1.5-1.8-2.2-2.7c0.1-0.3,0.2-0.5,0.4-1.1c0.7,1.3,1.4,2.5,2,3.6C99.9,103.6,99.8,103.7,99.7,103.7z M95.5,88.4L95.5,88.4
	c0,0-0.2,0.5-0.2,0.5c1,0.7,3.8,0.8,2.8,2.6c-1.2-0.2-2.9-1.3-3.7-2.2c0.3-1.6,2.7-1.2,3.9-1.8c1,0.1,0.9,1.6,1.2,2.2
	C98.2,89.3,96.8,88.8,95.5,88.4z M93.5,88.3c-1.2,1-1.5-0.1-1.9-1.1c2,0.5,2.4-1.7,3.5-2.8c0.5,1.4,2.1,1.2,3.2,1.8
	c-0.1,0.1-0.2,0.3-0.2,0.5l0,0C96.7,87.5,95,87.5,93.5,88.3z M89.1,81.5c-0.3-1.2,1.3-2.9,2.5-2.1c-0.3,0.3-0.5,0.4-0.7,0.7l0,0
	c1.4-0.9,3,0.2,4.2,0.9c0.5,1.3-1,2.7-1.4,3.9C92.7,87.2,89.1,82.8,89.1,81.5z M127,121.4c0.9,0.2,1.7,1,2.6,1.5c0,0.1,0,0.3,0,0.4
	c-1.6-0.4-1.6,1.8-2.8,2.3C126.2,124.6,125.8,121.9,127,121.4z M133.2,155.3c-1-4.9-1.1-9.9-2.1-14.8c-0.1-0.6-0.3-1.5,0.3-1.8
	c2,2.2,1.4,6.9,2.4,9.9c-0.1,0-0.2,0-0.3,0c-0.1,2.3,0.8,5,0,7.1C133.4,155.7,133.3,155.5,133.2,155.3z M129.8,151.3
	c0.7,3-0.1,6.3-2.7,8c0.2-1.3,0.5-2.7,0.7-3.9c2.3-0.1-1.7-15.1-0.3-17.4C129.1,142.1,129,147,129.8,151.3z M134.8,98.3
	c0.6-1,2-0.5,2.9-0.4c0.7,0.3,0.8,1.2,1,1.8c-0.6,0.6-1.2,1.3-1.9,1.9C135.8,100.9,133.9,99.9,134.8,98.3z M157.5,114.7
	c0.1,0,0.2,0,0.2,0c-4,0.6-2.1-3.5-4.7-5.6c2.5-2.1,5,1.8,7.8,1.9c-1.1,1.2-1.8,2.9-3.1,3.7c0,0,0,0,0,0
	C157.7,114.7,157.6,114.7,157.5,114.7z M103.9,84.9c0.5,1.2-2.6,0.4-3.1,0.1c-0.2-0.9-0.5-2,0-2.9C102.2,82.7,103,83.8,103.9,84.9z
	 M95.8,77c0.2,0.2,0.3,0.6,0.5,0.8c-1.2,0.9-2.8,0.6-4.3,0.7C93,77.1,94.7,76.3,95.8,77z M84.8,110.2
	C84.7,110.2,84.7,110.2,84.8,110.2C84.7,110.2,84.7,110.2,84.8,110.2c-0.1,0-0.1,0-0.2-0.1c0,0,0,0,0,0c0,0,0,0,0,0c0,0,0,0,0,0
	c-0.1,0-0.1-0.1-0.2-0.1c0,0,0.1,0,0.1,0.1c0,0-0.1-0.1-0.1-0.1c0,0,0,0,0,0c-0.5-0.4-0.4-0.9-0.4-1.6c2.8,0.4,5.6,0.8,8.3,1.2
	c0,0.1,0,0.1,0,0.2c-2.4,0.3-4.8,0.3-7.3,0.4c0,0,0,0,0.1,0C85,110.2,84.9,110.2,84.8,110.2c0.1,0,0.2,0,0.3,0
	C84.9,110.2,84.8,110.2,84.8,110.2C84.7,110.2,84.7,110.2,84.8,110.2z M249.6,105.2c-3.2,1.4-3.4-3.6-2.6-5.5c0.6,1,1.2,1.9,1.7,2.9
	l0,0C249,103.4,249.8,104.4,249.6,105.2z M191.3,84.3c3.4,2.7-2.6,2.8-4.4,3.6c0.3-2,1-3.8,2.7-5C190.2,83.4,190.7,83.8,191.3,84.3z
	 M150.4,73.3c-0.4,2.1,6.5,5,1.1,5.9c0.9-1.9,0.6-3.9-1.9-3.7c-2.3-1.1-0.9-2,0.8-2.7C150.6,72.9,150.5,73.1,150.4,73.3z
	 M152.7,83.6c-1.9-0.9-2.1-3.2,0.2-3.5c2,0.9,2.1,2.7-0.4,3.1c0.1,0.1,0.3,0.3,0.4,0.5C152.8,83.6,152.8,83.6,152.7,83.6z
	 M77.5,170.1c11.6-0.8,23.3-1.6,34.7-3.9c0-0.1,0-0.2,0.1-0.3c-0.3-0.1-0.6-0.3-0.8-0.4c-1.4-5.6,0.4-11.8-0.6-17.6
	c-0.3-5.8-3.2-11.2-3.9-16.8c0.8,0.4,1.6,1,2.4,0.2c0,0,0,0,0,0l0,0c0,0,0,0,0,0c-2.6,0.2-1.7-2.4-2.4-3.8c-0.3-0.3-1.4,0.3-1.8-0.1
	c-1.3-1.6-1.9-0.5-3,0.5c4,0.9,4.1,3.5,4.8,7c3.1,9,4,18.7,2.6,28.2c-9.4,3.2-20,3.2-30,2.8c-16.6-0.1-33.3-1.3-49.8-0.1v0.3
	c16.8-0.7,33.5,0.9,50.3,0.9c-8.3,1.3-18.1,2.4-26.5,1.7c0,0-0.1,0.1-0.1,0.1c0,0,0,0,0,0c0,0,0,0,0,0c0,0,0,0,0,0
	c-0.1,0.1-0.2,0.1-0.3,0.2c0,0,0.1,0,0.1,0c0,0-0.1,0.1-0.2,0.1c0,0,0,0,0,0c-8.6,1-17.6,0.6-26.3,0.7c-1.3-0.5-2.7-0.6-4.1-0.5
	c-1,0.2-2.4-0.3-3.1,0.6C38.6,170.5,58.2,170.2,77.5,170.1z M178.9,33.5c-1-0.2-2-0.3-3-0.4c0.5,1.2,1.8,0.7,2.7,1.2
	c0.3,2.3-2.5,1.5-3.8,1.7c0.5,1,2,0.6,2.7,1.4c0.8,0.5,1.7,1.3,2.6,0.7c-0.6-0.2-1.7,0-1.7-1c0.9-0.4,2.2-0.4,2.6,0.7
	c1.4-0.1,2.5,1.5,3.9,1.1c-0.2-0.7-0.9-1-1.4-1.5c2-2.1,4.8,0.5,6.9,1.3c0,0.9-1.1,1.5-1.5,2.3c-1.8,2.6,0.1,9.8-4.7,8.4
	c-0.5-0.2-0.8-0.9-1.4-0.6c-1.1-0.4-1.6-1.8-2.3-2.6c0,0-0.2,0.2-0.2,0.2c2.1,6.9,8,1.8,9.1,5.4c0.9,6.9,6.1-2.2,6.4,8.2
	c-2.9-0.6-4.8-3-6.9-4.8c0.7,3.6,4.7,5,7.7,6.1c0,0-0.1,0-0.1,0c0,0,0.1,0,0.1,0c0,0,0,0,0,0c0.3-0.1,0.5-0.3,0.8-0.4
	c-2-1-1.3-3-1.4-5c1.1,2.4,2.5,4.7,2.3,7.4l0,0c0.6-8.9-4.8-7.8-2.2-10.6c0,0,0,0,0,0v0l0,0c0.2-0.3,0.5-0.5,0.8-0.7
	c-0.1-0.1-0.2-0.2-0.3-0.2c-0.2,0.3-0.3,0.6-0.6,0.9v0c0,0,0,0,0,0c-4.7,0-2.5,1.7-4.3-2.9c-0.1,0.5,0.2,0.9-0.2,1.3
	c-2-1-1.4-1.9-2.1-3.7c-3.2-3.7,1.2-7.3,3.4-10.3c-3.8,1.8-4.2-0.7-7.7-1.4c-3.4,1-2.6,1.5-6.3,0C179.2,35.1,180.1,33.8,178.9,33.5z
	 M173.5,63.5c-0.5-1.5,2.9-2.1,1.6-3.3c-6.5,4.2,2.3,4.2-4.2,10.4c0,0,0,0,0,0c0,0,0,0,0,0c0,0,0,0,0,0c0,1.2,1.4,0.6,2.1,0.9
	c0.7,0.5,0.9,1.5,1.5,2.1c0.2,2.8-3.4,0.8-5,1c0,0.1,0,0.3-0.1,0.4c7.2,3.1,8.2-3.6,2.5-4.7c1.1-0.9,1.3-2.1,1.9-3.3
	C175.1,65.8,173.9,64.7,173.5,63.5z M167.6,69.9c-0.2,2,2,2.9,1.8,0.4c-0.5-0.9-1.6-2-0.7-3c4.1-4.6,0.7-2.5-1.5,0
	C167.3,68.2,167.4,69,167.6,69.9z M171.2,59.2c-0.4,1.7-2.3,1.9-3.2,3.1c2.9-0.1,5-3.1,3.8-5.8c-0.1,0.3-0.3,0.6-0.4,0.9
	c-1.2-0.8-2.4-1.7-3.8-2.4c0.1,0.3,0,0.6,0.2,0.9c0,0,0,0,0,0c0,0,0,0,0,0c0,0,0,0,0,0c1.1,0.8,2.4,1.4,3.6,2.1
	C171.4,58.4,171.4,58.8,171.2,59.2z M171.1,59.4C171.1,59.4,171.1,59.4,171.1,59.4C171.1,59.4,171.1,59.4,171.1,59.4z M172.1,58.9
	C172.1,58.9,172.1,58.9,172.1,58.9C172.1,58.9,172.1,58.9,172.1,58.9z M172,59.3C172,59.3,172,59.3,172,59.3
	C172,59.3,172,59.3,172,59.3z M169.3,56.7c-0.2-0.1-0.5-0.3-0.7-0.4C168.8,56.4,169,56.6,169.3,56.7z M170.9,59.8
	C170.9,59.9,170.9,59.9,170.9,59.8C170.9,59.9,170.9,59.9,170.9,59.8z M170.6,60.3C170.6,60.3,170.6,60.3,170.6,60.3
	C170.6,60.3,170.6,60.3,170.6,60.3z M170.2,60.7C170.2,60.7,170.2,60.7,170.2,60.7C170.2,60.7,170.2,60.7,170.2,60.7z M171.3,58.9
	C171.3,58.9,171.3,59,171.3,58.9C171.3,59,171.3,58.9,171.3,58.9z M199.5,55.5c0.2,1-0.3,2.7,0.7,3.3c0.1-3.1,1-6.3,0.8-9.5l0,0
	c-0.1,0-0.1,0.1-0.2,0.1C200.3,51.4,199.5,53.4,199.5,55.5z M199.1,72.1c3,0.9,6,4,9,3.7c-3-1.2-6-3.4-9-4v0l0,0l0,0l0,0
	C199.1,71.9,199.1,72,199.1,72.1z M176,70.2c2.2-0.6,1.6-3.8,2.3-5.7l0,0c-0.9,1.5-1.2,3.4-2.4,4.5c-0.4,0-0.8,0.2-1.1,0.6
	C175.2,69.9,175.5,70.3,176,70.2z M165.3,64.8c0,0.1,0.2,0.3,0.2,0.5c1.1-0.4,1.4-1.8,2.1-2.7c0,0,0,0,0,0l0,0l0,0l0,0
	C166.8,63,165.6,63.7,165.3,64.8z M245.8,84c-1.4,2.3-2.6-2.1-2.4-3.1c1.3-0.8,2.9,1.1,2.8,2.5C246,83.6,245.8,83.8,245.8,84z
	 M217.8,77.8c-0.9,0.8-2.1,2.5-3.2,1.1c-1.2-1.4-3.2-2.2-4.7-2.8c-1.8,0.5-3.6,0.5-5.3,0.7V77c0.7,0.1,1.4,0.4,2.1,0.4
	c0,0-0.1,0-0.1,0c0.1,0,0.3,0,0.4,0c-0.1,0-0.2,0-0.3,0c0.3,0,0.6,0,0.8,0c0,0,0,0-0.1,0c0.1,0,0.2,0,0.2,0c0,0,0,0,0,0
	c2.6-1,5.4,0.6,7.3,2.7C216.3,81.7,217.3,78.8,217.8,77.8L217.8,77.8L217.8,77.8c0.1,0,0.1-0.1,0.2-0.2v0
	C218,77.7,217.9,77.7,217.8,77.8L217.8,77.8C217.9,77.8,217.9,77.8,217.8,77.8L217.8,77.8L217.8,77.8L217.8,77.8L217.8,77.8
	L217.8,77.8C217.8,77.8,217.8,77.8,217.8,77.8z M258.7,53.8c-0.3,3.1-9.5,4.2-6.2,8.8c-2.7-5.7,11.8-6.7,5.4-10.3l0,0
	c0,0.1-0.1,0.1-0.1,0.2C258.1,52.9,258.4,53.3,258.7,53.8z M261.1,77.4C261.1,77.4,261.1,77.4,261.1,77.4
	C261.1,77.4,261.1,77.4,261.1,77.4z M259.5,70.9c-3.4-1,0.9-7.1-1.1-9.9c-0.2,0.2-0.3,0.3-0.4,0.5C259.8,64.2,255.2,71,259.5,70.9
	C259.5,70.9,259.5,70.9,259.5,70.9L259.5,70.9C259.5,70.9,259.5,70.9,259.5,70.9z M261.4,71.5c0.4,0.5,0.1,4.4,1.2,3.2
	c0-1.7-0.5-3.3-0.6-5.1c-0.5,0.5-0.4,1.2-0.7,1.8h-0.1C261.3,71.4,261.3,71.5,261.4,71.5z M258.9,120.5c0-0.2,0.2-0.2,0.4-0.2v0
	c1.4,0.1,1.1,1,0.8,2C258.8,123.5,258.9,121.3,258.9,120.5z M261.5,91c0.1-0.5,0.6-0.9,0.8-1.4c0,0,0,0.1,0.1,0.1
	c-0.4,1-1.2,3.1,0.3,3.4h0c0.1,0,0.4,0.2,0.4,0.2C262.8,95.8,260.7,92.5,261.5,91z M270.5,93c-0.4,0.6-0.9,0.3-1.2-0.3
	c0.9-0.4,0.7-1.5,1.2-2.2C270.7,91.2,271.1,92.3,270.5,93z M274.2,99.8c2.2-1,0.3,5.6,0.3,6.7c0,0-0.1,0-0.1,0
	C274.3,104.3,274.1,102.1,274.2,99.8z M266.8,110.8c-0.1-0.1-0.1-0.1-0.2-0.2c0.6-0.8,1.8-1.3,2.6-1.5
	C269.6,111,268.6,111.9,266.8,110.8z M244.4,122c0.1-0.2,0.1-0.4,0.2-0.6h0c0-0.1,0.1-0.1,0.2-0.1c0.1,0.8,0.2,1.6,0.4,2.5
	C243.8,124.7,244,122.6,244.4,122z M250.2,125.1c0.1,0.7-0.3,1.5-0.6,2.1c-0.3-0.7-1.8-2.3-0.9-2.7l0,0
	C249.2,124.6,249.9,124.6,250.2,125.1z M250.1,128.3c0.1-0.2,0.3-0.4,0.4-0.6c0.5,0.8,2.6,1.8,1.8,2.7
	C250.6,132.4,250.2,129.8,250.1,128.3z M241.5,154.2c-0.4-5.2-1.2-10.5-0.9-15.7c0,0,0.1,0,0.2,0c1.2,2.1,0,4.7,0.8,7.1
	c0.1,0.3-0.2,0.6-0.3,0.9c0,2.7,0.9,5.8,0.4,8.6C241.6,154.7,241.5,154.4,241.5,154.2z M190.1,117.4c-1.9-1.1-0.9-3.8-0.9-5.6
	c1,0.6,1.9,1,3,1.6c-3.3,1.2-1.3,3.1-0.7,5.5c-0.1,0-0.2,0.1-0.2,0.1C190.8,118.6,190.7,117.7,190.1,117.4z M140,123.1
	c-1.3-0.1-3.1,0.8-4.3,0c0.3-0.8,1.2-1.1,1.9-1.5c0-0.1,0-0.2-0.1-0.4l0,0l0,0l0,0c-1.3,0.4-3.1,0.5-4.3,1.2c-0.1,0.5-0.4,0.7-1,0.7
	c0,0,0,0,0,0c-0.1,0-0.1,0-0.2,0c0,0,0.1,0,0.1,0c-1-0.6-1.6-2.1-3-2.3c-1-0.2-1.4-0.6-1.4-1.6c-1.7-4.5,11.8-6.8,15-9
	c3.2-2.4,6,5.6,8.5,7c0.1-4.1-12.1-11.2-0.2-7.4c4,0.9,1.1,6.3,5.9,6c-1.3,2.5-3.9,3-6.3,4C147.2,120.8,143.9,122.9,140,123.1z
	 M121,120c-0.1,1-0.4,2-0.9,2.2c-0.1-2.2-1.1-4.9,0.5-6.6c0,0.1,0.1,0.2,0.1,0.3c0,0,0-0.1,0-0.1c0,0.2,0.1,0.3,0.1,0.5
	c0,0,0-0.1,0-0.1c0,0.2,0.1,0.3,0.1,0.5c0,0,0,0,0-0.1c0,0.1,0,0.2,0.1,0.4c0-0.1,0-0.2-0.1-0.3C121.1,117.8,121.1,118.9,121,120z
	 M109.8,100c-0.1,0-0.3-0.1-0.4-0.1c0,0,0,0,0.1,0c-0.2-0.1-0.3-0.1-0.5-0.2c0,0,0,0,0.1,0c-0.1-0.1-0.3-0.2-0.4-0.2c0,0,0,0,0,0
	c-0.1-0.1-0.2-0.1-0.3-0.2c0,0,0,0,0,0c-0.1-0.1-0.3-0.2-0.4-0.4c0,0,0.1,0.1,0.1,0.1c0-0.1-0.1-0.1-0.1-0.2c0.8-0.4,3,0.4,3.5,1.1
	c-0.3,0.1-0.7,0.2-1.1,0.2c0,0,0,0,0.1,0c-0.1,0-0.3,0-0.4-0.1c0,0,0,0,0,0C110,100.1,109.8,100,109.8,100
	C109.7,100,109.8,100,109.8,100z M98.3,110.2c1.9-0.4,1.6,1.7,2.1,2.9c-0.1,0-0.2,0.1-0.3,0.2C99.4,112.3,98.6,111.3,98.3,110.2z
	 M148.4,124.3c0.8-0.7,1.3-2.5-0.4-1.9l0-0.3c2.6-0.7,5.1-1.5,7.7-2.2c-2.2,2.2-4.5,4.2-7.8,5C148,124.7,148.2,124.5,148.4,124.3z
	 M179.8,93.2c0.6,0.4,1.3,0.9,2,1.4l0,0c-2-9.3-6.1-11.3-11.1-2.3c-0.3,0.3-1.2,0.3-1.7,0.1c-0.3-1.2-0.9-2.1-2-2.7
	c0,3.2,2,5.8,4.8,2.7c1.2-1.2,1.1-3.1,2.3-4.2c0.3,0.5,0.5,0.9,0.8,1.3c2.1-5.6,5.4,0.4,5.9,3.5c-3.5-2.9-4.5,2.3-1.7,4
	c0.1-0.1,0.2-0.3,0.3-0.4c0.6,1.6,2,0.8,2.4-0.3C179.1,98.3,176.7,91.9,179.8,93.2z M191.4,104.2c-1.2-0.3-1.9-1.6-2.7-2.5
	c-0.4,2.1,2.1,4.6,4.1,3.2c1.3-1.4,2.5-0.3,3.8,0.3c0.1-0.1,0.2-0.2,0.2-0.4c-0.9-0.7-1.7-1.4-2.6-2.2c0.7-0.2,1.2-0.3,1.9-0.6
	c-1.1-0.5-2.4-0.2-3.5,0.3c0.2,0.3,0.3,0.6,0.5,1C192.5,104,192,104.3,191.4,104.2z M238,136.9c0,0-0.1-0.1-0.1-0.1h0
	c-0.7-2.6-0.9-5.4-1.6-8c1.9,2.3,1.4,5.8,2.2,8.5c0,0-0.1,0.1-0.1,0.1C238.2,137.2,238.1,137,238,136.9z M238.3,126.3
	c0.3-0.1,0.5-0.1,0.8,0v0c0.4,0.2,0.5,0.9,0.3,1.3c-0.1-0.2-0.2-0.4-0.3-0.5c-0.5,0.5-0.8,1.1-1.1,1.7
	C237.3,127.8,236.8,126.6,238.3,126.3z M238.6,121.8c0.5,0.1,1,0.3,1.5,0.4c-0.5,0.5-0.7,1.2-1.3,1.6c0,0,0,0,0,0c0,0,0,0,0,0
	c0,0,0,0,0,0c-0.8-0.1-0.4-1.3-0.5-1.9h0C238.3,121.9,238.5,121.7,238.6,121.8z M241.3,125.7c0.4-1,1-3.4,2.1-2.1
	c-0.6,1.2-0.6,2.9-1.5,3.7C241.2,127.3,241,126.4,241.3,125.7z M244.3,125.2c1.3-1.2,1.4,0,2.3,0.6c0.9-0.8,1.2-0.2,1.7,0.7
	c0.6,0.8,0.6,1.5-0.2,2.1c0,0.1,0.1,0.2,0.1,0.3c0.7-0.1,1.6-1.1,1.6,0.2c0,0.5,0.3,1,0.1,1.5c-0.3,0.1-0.2,0.4-0.2,0.7
	c-2.4,0-1.8-2.6-3.1-3.7c0.1,0,0.1,0.1,0.2,0.1c-0.1-0.1-0.2-0.1-0.2-0.2c0,0,0,0,0,0c-0.1-0.1-0.2-0.1-0.3-0.1c0.1,0,0.1,0,0.2,0.1
	c-0.1,0-0.2-0.1-0.3-0.1c0,0,0.1,0,0.1,0c-0.1,0-0.2-0.1-0.3,0c0,0,0.1,0,0.1,0c-0.1,0-0.2,0-0.3,0c0.1,0,0.1,0,0.2,0
	c-1.1,0.1-2.1,0.9-3.1,0.6c-0.2-0.8,0.3-2.4,1.2-2.7l0,0C244.1,125.3,244.2,125.2,244.3,125.2z M245.2,120.8
	c0.2-0.2,0.4,0.1,0.5,0.2c0.6,0.8,0.5,1.6,0,2.3C245.2,122.7,244.9,121.4,245.2,120.8z M250.4,132.5c0.6,0.4,0.9,1.5,0.9,2.1l0,0
	c-1.3,0.1-3,0.5-4.2-0.4C248.2,133.7,249.3,132.9,250.4,132.5z M243.9,150.7c0.3-0.3,0.6-0.8,1-1c-0.4,1.3-0.8,2.6-1.1,3.9
	C243.3,152.9,243.3,151.2,243.9,150.7z M246.5,133.4C246.4,133.4,246.4,133.4,246.5,133.4c0.8-0.4,1.2-1.2,0.4-1.9l0,0
	c-1-1-2.5-1.5-3.1-2.8c0.4,0.2,0.8,0.1,0.8-0.4c0.1,0.1,0.2,0.4,0.4,0.2c2.4-1.9,1.5,3.8,4.1,3.5
	C248.3,132.7,247.5,133.4,246.5,133.4C246.5,133.5,246.5,133.4,246.5,133.4z M240.3,145.9c0,0.2-0.1,0.4-0.1,0.6
	c-1.9-1.1-1.6-3.9-1.8-5.9c0.3,0.2,0.7,0.9,1.1,0.6c0.1-0.1,0.1-0.5,0.4-0.5C240,142.4,240.3,144.2,240.3,145.9z M235.5,122.8
	c-0.2-0.4-0.3-0.8-0.3-1.2c0.3,0.2,0.5,0.4,0.8,0.6l0,0c1,0.8,1.8,1.2,1.4,2.6C237.4,127.4,235.8,123.5,235.5,122.8z M238.4,134.8
	c0-0.3,0.1-0.6,0.1-0.9c1,0.9,1.3,3.5,0.7,5C238.8,137.6,238.6,136.2,238.4,134.8z M229.6,114.4c0.4,0.1,0.8,0.2,1.2,0.2
	c-0.4,0.6-0.8,1.2-1.1,1.8c0-0.2-0.1-0.4-0.1-0.6c-0.5,0.3-0.7,0.6-0.7,1.2l0,0C228.5,116,227.6,113.8,229.6,114.4z M248.1,140.7
	c0.2-0.3,0.5-0.6,0.8-0.9c-0.2,1-0.6,1.9-1.3,2.9C247.3,142.1,247.7,141.3,248.1,140.7z M251.9,127c0.1,0,0.2,0.2,0.3,0.3l0,0
	c0.3,0.5,0.5,1,0.8,1.6c0,0,0,0.1-0.1,0.1C252.3,128.5,250.5,127.5,251.9,127z M236.2,110.5c-0.3,1.7-1.4,6-3.6,3.6
	c-0.2-1.8,2.4-2.8,3.6-3.8C236.2,110.4,236.2,110.4,236.2,110.5z M234.6,110.2c-0.3,0.4-0.8,0.5-1.2,0.7c-0.1-0.7-0.5-1.4-0.4-2.2
	C233.8,108.9,235.2,109.1,234.6,110.2z M255.7,122c0-0.5,0.4-0.7,0.9-0.9c0,0.1,0.1,0.1,0.1,0.2c-0.3,0.8-0.6,1.7-0.6,2.6
	C254.5,125,255.5,122.8,255.7,122z M260.5,125.3c-0.2,0.1-0.4,0.3-0.5,0.4c-1.3-2.5,2.3-2.4,2.6-4.5c1.4-0.5,0,2.8-1,2.7
	C261.1,124.2,261.1,125,260.5,125.3z M258.7,129.5c-0.1-0.1-0.2-0.1-0.4-0.2c0,0,0.1,0,0.1,0.1c-0.1,0-0.1-0.1-0.2-0.1
	c0.4-0.6,0.8-1.2,1.3-1.8c0.2,0.6,1.3,1.8,0.3,2.1v0c-0.2,0.1-0.4,0.1-0.7,0c0,0,0,0,0,0c-0.1,0-0.2,0-0.3-0.1c0,0,0,0,0,0
	C258.8,129.6,258.8,129.6,258.7,129.5C258.7,129.5,258.7,129.5,258.7,129.5z M253.7,134.9c0.4-0.3,0.6-0.8,0.9-1.2c0,0,0.1,0,0.1,0
	c0,0.9,0,1.8,1.1,1.6c0.7,1.7-2.1,1.2-2.8,0.1C253.3,135.3,253.5,135.1,253.7,134.9z M254.1,128.4c0-0.3,0.1-0.7,0.2-1h0
	c0.8-2.1,1,1.5,0,1.7C254.2,128.9,254.1,128.7,254.1,128.4z M257.6,122.3c-0.1-0.1-0.2-0.1-0.3-0.2c0.1-0.3,0.3-0.7,0.4-1v0
	c0.1-0.2,0.3-0.4,0.5-0.7c0.1,0.7,0.9,1.7,0.3,2.2c0,0,0,0,0.1,0c0,0,0,0-0.1,0c0,0,0,0,0,0C258.1,122.7,257.8,122.4,257.6,122.3z
	 M260.9,111.9c0.5,0.5,0.8,1.8-0.1,2.2v0l0,0l0,0c-0.2,0.2-0.4,0.5-0.6,0.8C259.1,114,259.6,112.4,260.9,111.9z M249.9,100.1
	C249.8,100.1,249.8,100.1,249.9,100.1L249.9,100.1c-0.7,0.3-1.3-0.3-1.6-0.8c0.7,0.1,1.3,0,1.9,0.4C250.1,99.8,250,100,249.9,100.1z
	 M253.4,94c0.1,0.1-0.2,0.5-0.2,0.7c-0.1,0-0.2,0-0.2,0c-0.2-0.5-0.3-1-0.5-1.5c0,0,0.1-0.1,0.2-0.1C252.9,93.4,253.2,93.7,253.4,94
	z M253.1,97.8c-0.2,0.6-0.8,0.6-1.3,0.8C251.6,97,253.3,95.5,253.1,97.8z M255,93.7c-0.1,0.1-0.3,0.1-0.4-0.1v0
	c-0.1-0.1-0.1-0.3-0.1-0.4h0.7v0.2C255.1,93.6,255.1,93.7,255,93.7z M242.7,81.7c-0.3-0.6-0.6-1.1-0.8-1.6
	C242.8,79.7,242.8,80.9,242.7,81.7z M253.2,110.9c-0.3-1.2,1.2-2.3,0.4-3.3c-1.3,2.6-0.5,5.5-0.5,8.1c-0.3,0.8,0.2,1.1,0.5,1.8
	c0.3,0.8,0.2,1.9,0.9,2.5c0,0,0,0,0,0l0,0c0.1,0.2,0.1,0.4,0.1,0.6l0,0h0v0l0,0c0-0.2-0.1-0.4-0.1-0.6l0,0l0,0c0,0,0,0,0,0
	c-0.3-1.4-1.6-3.4,0.3-4.2c0.6,1.7,1.8-0.1,2.3-0.8c0.5-0.4,1.1-0.1,1.6-0.4c0-0.1,0-0.1,0-0.2c-0.5-0.1-1-0.2-1.5-0.3
	c0-0.1,0-0.1,0-0.2c-1.3,0.5-2.5,1-3.8,1.5C253,113.9,253.1,112.4,253.2,110.9z M260.9,77.4c-0.5,0-0.9-0.5-1.4-0.7
	c0,1.4,0.5,2.7,1.2,3.6c0.1,0,0.1-0.1,0.1-0.1c0-0.6-0.8-1.7,0-1.9c2.2-0.8,4.3-5.2,1.8-6.8C264.4,73.4,262.9,76.8,260.9,77.4z
	 M185.6,106.8c0.1-0.4,0.4-0.8,0.7-1.3c1.7,1.2,0.3,2,1,3.7C186.1,108.8,185.2,108,185.6,106.8z M185.8,108.2
	C185.7,108.2,185.7,108.2,185.8,108.2C185.7,108.2,185.7,108.2,185.8,108.2z M186.1,108.6C186.1,108.6,186.1,108.5,186.1,108.6
	C186.1,108.5,186.1,108.6,186.1,108.6z M186.6,113.5c0.5-0.4,0.9-0.9,1.3-1.4c0.4,0.9,0.3,2.1-0.4,2.3c0,0,0,0,0.1,0
	c-0.2,0.1-0.4,0.2-0.6,0.2c0,0,0,0,0.1,0c-0.1,0-0.2,0.1-0.3,0.1c0,0,0.1,0,0.1,0c-0.2,0.1-0.5,0.1-0.7,0.1c0,0,0,0,0,0
	c-0.5,0-1.2,0-1.5-0.5C185.4,114.3,186,114,186.6,113.5z M216,122.4c0-0.2,0-0.4,0.1-0.6c0.5,0.3,0.7,0.9,0.9,1.3
	c-0.2,0.1-0.4,0.2-0.6,0.3C216.2,123.1,216.1,122.8,216,122.4z M213.7,124.1c-0.1,0-0.3,0-0.4-0.1c0,0,0,0,0.1,0
	c-0.1,0-0.2,0-0.3-0.1c0,0,0,0,0,0c-0.2-0.1-0.3-0.1-0.5-0.2c0,0,0.1,0,0.1,0c-0.1-0.1-0.2-0.1-0.3-0.2c0,0,0,0,0.1,0
	c-0.1-0.1-0.2-0.2-0.3-0.3c0,0,0,0,0,0c-0.1-0.1-0.1-0.2-0.2-0.2c0,0,0,0,0,0c-0.1-0.1-0.2-0.3-0.2-0.4c0,0,0,0.1,0.1,0.1
	c0-0.1-0.1-0.1-0.1-0.2c1.2,0.4,2.1,0.8,3.2,1.2c-0.3,0.1-0.7,0.2-1,0.2c0,0,0.1,0,0.1,0c-0.1,0-0.1,0-0.2,0c0,0,0,0,0,0
	C213.8,124.2,213.7,124.2,213.7,124.1C213.6,124.1,213.6,124.1,213.7,124.1z M201.8,127.9c-0.9,0.8-2.1,1.4-3.2,1.6
	c1.3-1.6,2.6-2.8,4.3-4C203.1,126.4,202.4,127.3,201.8,127.9z M179.6,112.8c0.7,0.3,1.5,0.8,2,1.5c-1.5,1.4-2.7-0.4-2.9-1.9
	C179,112.5,179.3,112.6,179.6,112.8z M178.3,118.7c-0.2-1.3-0.8-2.7-0.2-3.9C179.7,115.6,181.1,119,178.3,118.7z M186.4,116.3
	c0,0-0.1,0-0.1,0.1C186.3,116.4,186.4,116.4,186.4,116.3z M179.5,114.3C179.5,114.3,179.5,114.3,179.5,114.3
	C179.5,114.3,179.5,114.3,179.5,114.3z M193.8,118.1c1.5-1.9,2.1-3.1,4.1-0.8c-1.5,0.8-3.1,1.6-5.1,2.6
	C192.9,119.1,193.4,118.6,193.8,118.1z M201.4,109.5c0.7-0.3,1.5,0.4,2,0.9c0.3,0.7-0.5,1.5-0.8,2.1
	C201.9,111.5,200.6,110.7,201.4,109.5z M228.7,131.3c-0.7-1.2-4.5-4.7-2.9-5.6c1.3,1.7,2.7,3.7,3.2,5.7
	C228.8,131.4,228.7,131.4,228.7,131.3z M219.1,115.3c1.3,0.7,0.5,2.9,1.4,4.1c0.2,0.4,0.9,0.5,0.8,1.1v0
	C218.7,122.5,217.9,116.5,219.1,115.3z M221,125.4c0.2-0.4-0.1-1.1,0.2-1.4c1.6-0.5,3.1-1.1,4.7-0.5
	C225.1,125.3,223,126.4,221,125.4z M227.3,115.7c0.7,0,0.6,0.9,0.8,1.4c-0.9,0.3-1.7,0.6-2.6,0.9c-0.2,0-0.3-0.1-0.5-0.1
	C225.8,117.2,226.5,116.4,227.3,115.7z M217.7,126.3c0.7-0.1,1.2-0.5,1.8-0.9c0.2,0,0.3,0.1,0.5,0.1c0.7,1,1.8,0.8,2.9,0.8
	C221.2,127,219,126.9,217.7,126.3z M214.8,119c-0.1,0-0.3,0-0.4,0.1c-0.3-0.4-0.7-0.7-1.1-1c0.3,0.7,0.7,1.4,1,2.1
	c-0.3-0.1-0.6-0.1-0.7,0.3c0.4,0.2,0.7,0.5,1.1,0.7c0.1,0.4,0,0.7,0,1.1c-1.6,0.6-2.5-2.2-3.9-1.7c-0.3-0.8-0.8-0.8-1.6-0.4
	c0-0.1,0-0.3,0-0.4h0c0.1,0.3,0.4,0.2,0.5-0.1c1.2-0.2,2.6-0.3,2.5-1.9c0.4-1.7,2.6-1.4,3.6-0.4C215.8,118.4,215.9,118.9,214.8,119z
	 M204.2,126c-0.6-2.2,0.8-1.9,2.3-1.3c-0.8,0.6-1.6,1.1-2.4,1.7C204.2,126.3,204.2,126.2,204.2,126z M198,120
	c-1.3-1.9-3.4,0.6-5,1.1c0.6-1.4,2.4-1.8,3.7-2.4c0,0,0,0,0,0c0,0,0,0,0.1,0c0,0,0,0,0,0c1.6,0.4,3.2,0.2,4.8,0
	C201.4,119.4,198.7,120.5,198,120z M204,111.4c0.7-1,1.6,0.4,2,1.2c-0.7,0.4-1.7,0.4-2,1.3c0,0,0.1,0.1,0.1,0.1
	c-0.1,0-0.1,0.1-0.2,0.1C202.5,113.6,203.4,112.2,204,111.4z M207.1,124c-0.3-0.1-0.7-0.3-1-0.4c0.4-1,1.4-1.7,2.1-2.5
	c2,0.5,2.5,2,0.4,3.1c0-0.1-0.1-0.1-0.2-0.2c0.3-0.6,0.6-1.2,0.9-1.9l0,0C208.7,122.7,208,123.7,207.1,124z M147.1,94.2
	c0.7-0.2,1.7,0,2.1,0.7c-1.2,0.3-2.4,0.6-3.6,0.9C145.7,94.7,146.5,94.3,147.1,94.2z M150.1,96.2c1.1,0.8,1,2.8,1.5,4.1
	c-1.2-0.4-1.7-1.3-1.6-2.5C149.9,97.4,149.3,96.4,150.1,96.2z M143.5,124.5c-0.8,0.9-1.6,1.1-2.7,0.9c0.9-2.1,3.2-1.9,4.9-2.6
	c0.1,0.1,0.1,0.2,0.2,0.3C145.1,123.5,144.2,124.1,143.5,124.5z M136.2,160c-0.3-1.7-0.6-3.3-0.9-4.9
	C136.3,156.1,136.9,159,136.2,160z M134.7,130.7c-0.2,0.8-0.1,1.5-0.5,2.2c-0.2-1.9-1.2-5,0.8-6.1
	C135.4,128.1,134.8,129.4,134.7,130.7z M134.6,146.5c-0.4-2.9-0.8-7.2,0.2-10.1v10.7C134.8,146.9,134.7,146.7,134.6,146.5z
	 M131,130.7c0.4-1.8-1.1-5.3,0.7-6c1,0.3,1.3,1.6,0.7,2.5c-0.7,1.1-1.9,2.8-0.3,3.8c-0.2,1.6-0.3,3.1-0.4,4.7c-0.1,0-0.2,0-0.3,0
	C131.1,134.1,131,132.4,131,130.7z M129.2,138.1c0.2,0.5,0.4,1.2-0.1,1.6c-0.8-1.5-2.1-12.1-1.3-13.6l0,0
	C128.3,130.1,128.4,134.2,129.2,138.1z M129.4,129.5c-0.1,0-0.3,0-0.4,0c0.2-1.4-1.6-5.8,1.2-4.5
	C129.9,126.5,129.7,127.9,129.4,129.5L129.4,129.5z M129.6,112.8c1-0.2,2-0.3,3.1-0.5c0,0.2,0.1,0.3,0.1,0.5c-1.7,0.6-3.3,1.1-5,1.7
	C127.2,113.4,128.5,113,129.6,112.8z M141.6,98.5c0,0,0.1,0,0.1-0.1C141.7,98.4,141.6,98.5,141.6,98.5z M144.2,102
	c2,0.8,0.3,1.9-0.6,2.9l0,0c-0.6-1.6-1.1-3-1.6-4.5c0.1-0.1,0.2-0.1,0.3-0.2C142.7,100.9,143.4,101.5,144.2,102z M143,125
	C143,125,143,125,143,125C143,125,143,125,143,125z M118.9,120.4c-1.9,0.2-1-2.9,0-3.4V120.4z M190,81.2c0.3,0.2,0.5,0.5,0.7,0.8
	c-0.1,0.1-0.2,0.2-0.3,0.4v0c-0.9-0.7-1.9-1.4-2.8-2.1c0,0,0,0,0,0c0,0,0,0,0,0c0,0,0,0,0,0c0,0,0-0.1,0-0.1c0,0,0,0,0,0.1
	c0,0,0,0,0-0.1c0,0,0,0,0,0c0-0.2,0-0.4,0-0.6C188.5,79.8,189.2,80.6,190,81.2z M163.2,83.5c-0.2,0-0.5-0.1-0.8-0.1
	c-0.3-1.5,1.2-2,2.2-2.8C164.5,81.7,164.6,83.5,163.2,83.5z M123.9,84.1c2.1-0.7,1.3,1.8,1.4,3.1c0,0,0.1,0,0.1,0
	c0.5-1.8,1.1-3.7,1.7-5.7c1.4,2.5,4.3,4.8,6.1,1.3V78c-0.5,1.2-0.2,2.8-1.1,3.8c-0.1,3.3-3.2,1-4.5-0.3c0.5-0.3,1-0.6,1.5-0.9l0,0
	c-3.4-0.2-2,3-6.2,3.4C123.3,84.2,123.6,84.2,123.9,84.1z M129.9,83.3c-0.2-0.1-0.4-0.2-0.6-0.4C129.5,83.1,129.7,83.2,129.9,83.3z
	 M166.6,84.3L166.6,84.3c3.6,2.5,4,0.8,6.4-1.9c0.8-1.1,1.3,0.5,2.2,0.6c0.1-0.1,0.1-0.2,0.2-0.3c-0.7-0.9-1.3-1.9-2.1-2.6
	c-1.3,2.8-3.2,5.8-6.6,4.1l0,0h0l0,0C166.7,84.1,166.7,84.2,166.6,84.3z M121.4,75.8c-1.8,0.5-4.5-4.6-5.6-2.5
	c2,1.6,5.8,3.2,3.9,6.1c1.9,1.3,0.8-2.5,2.2-2.9h0c0.1-0.1,0.1-0.3,0.1-0.5C121.8,76,121.6,75.9,121.4,75.8z M158.5,93.1
	c-0.3,0.8-0.9,1.3-1.6,0.7c0,0,0,0,0,0h0c0,0,0,0,0,0c1,2.1,2.4-1,2.5-1.8c0.5-3.8-5.8-1.7-4.1,1.1C156.6,91,159.3,89.1,158.5,93.1z
	 M161.1,91.6c1.4,0,2.7-1.3,4-1.8c-3-0.4-5.4,2.9-3.4-3l0,0c0,0,0,0,0,0l0,0v0c0,0,0,0,0,0.1C160.5,87.6,158.8,90.8,161.1,91.6z
	 M117.8,83.1c-0.1,1.2-1.2,1.8-2,2.6c1.6,0.4,2.1-1.5,2.3-2.7c1,0.9,1.7,3,3.4,1.9c0,0,0,0,0,0v0c0,0,0,0,0,0c-2.3,0-2.8-2.4-3.6-4
	c-0.1,0-0.2,0-0.3,0.1C117.6,81.6,117.8,82.3,117.8,83.1z M118.5,83.3c-0.1-0.1-0.2-0.2-0.3-0.3C118.3,83.1,118.4,83.2,118.5,83.3z
	 M219.1,98.6c0.2,0.1,0.3,0.2,0.5,0.2c1.5-0.5,1.6,1.4,2.3,2.3v0c0.1,0,0.2-0.1,0.3-0.1c0.2-1.1,0.3-2.3,0.5-3.4
	c-0.5,0.4-0.5,0.9-0.9,1.4c-0.8-0.8-2.2-2.2-2.9-0.5C218.9,98.5,219,98.5,219.1,98.6z M221.5,100.4c-0.1-0.1-0.1-0.2-0.1-0.3
	C221.4,100.2,221.4,100.3,221.5,100.4z M117.8,148.1L117.8,148.1c0.1,0,0.2,0,0.3,0c-0.2-2,0.1-4.1-0.8-5.9c-0.2,0-0.3,0.1-0.5,0.1
	C117.2,144.2,117.5,146.1,117.8,148.1z M192.4,66.2c-1.5-0.4-3.5,0.8-3.9,2.3c1.2-1.1,2.5-1.8,4.1-2.2
	C192.6,66.3,192.5,66.3,192.4,66.2z M190.3,67.2c-0.1,0.1-0.2,0.1-0.4,0.2C190,67.4,190.2,67.3,190.3,67.2z M191.1,66.9
	c-0.1,0-0.3,0.1-0.4,0.2C190.8,67,191,66.9,191.1,66.9z M111.4,72.5c0.1,0,0.2,0,0.3,0c0.3-0.6,0.5-1.3,1.1-1.8
	C111.3,69.3,111.4,71.6,111.4,72.5L111.4,72.5L111.4,72.5L111.4,72.5C111.4,72.5,111.4,72.5,111.4,72.5z M111.9,72
	c0.1-0.1,0.1-0.3,0.2-0.4C112,71.7,111.9,71.8,111.9,72z"/>
</svg>
