<svg width="633" height="141" viewBox="0 0 633 141" fill="none" xmlns="http://www.w3.org/2000/svg">
<path d="M77.4 77.58V100.836H80.064V80.064H88.74V77.58H77.4ZM113.328 97.992V100.332H122.724V97.992H113.328ZM112.176 91.908V108.144L114.732 109.116V91.908H112.176ZM106.956 99.432L104.94 100.188C107.136 108.648 111.276 110.556 117.72 110.556H123.768C123.84 109.836 124.236 108.648 124.596 108.072C123.48 108.072 118.728 108.072 117.936 108.072C112.608 108.072 108.72 106.56 106.956 99.432ZM107.604 77.796C106.56 83.268 104.436 87.948 101.016 90.864C101.628 91.26 102.672 92.232 103.032 92.7C106.56 89.424 108.972 84.312 110.196 78.192L107.604 77.796ZM117.288 77.796C116.496 83.448 114.48 87.84 110.844 90.504C111.456 90.9 112.572 91.728 113.004 92.196C116.676 89.136 118.944 84.384 119.916 78.12L117.288 77.796ZM106.704 85.104C108.324 86.4 110.376 88.236 111.348 89.388L112.68 87.3C111.672 86.22 109.62 84.492 108 83.268L106.704 85.104ZM116.136 85.14C118.584 87.264 121.5 90.288 122.904 92.196L124.776 90.36C123.372 88.524 120.348 85.572 117.936 83.556L116.136 85.14ZM105.12 94.536C104.796 101.088 103.5 106.056 99.828 109.08C100.404 109.476 101.484 110.376 101.88 110.808C105.732 107.28 107.28 102.06 107.784 94.716L105.12 94.536ZM99.612 85.104C97.488 88.92 94.068 92.7 90.72 95.148C91.224 95.724 92.016 96.984 92.268 97.56C95.796 94.68 99.576 90.324 102.06 86.004L99.612 85.104ZM98.784 77.796C97.2 80.352 93.96 83.412 91.152 85.32C91.62 85.824 92.304 86.76 92.664 87.3C95.724 85.14 99.108 81.756 101.196 78.732L98.784 77.796ZM96.372 91.8V111.024H98.928V89.784L98.568 89.604L96.372 91.8ZM129.168 108H143.64V105.264H138.312V81.612H135.792C134.388 82.476 132.696 83.088 130.32 83.484V85.608H135.036V105.264H129.168V108ZM158.173 88.884V109.728H160.837V88.884H158.173ZM166.813 88.884V109.728H169.477V88.884H166.813ZM162.169 80.892C161.809 83.232 161.017 86.616 160.297 88.812L162.961 89.172C163.753 87.12 164.689 83.988 165.481 81.18L162.169 80.892ZM149.713 87.588V110.916H152.485V90.108H176.821V87.588H149.713ZM175.597 87.588V107.496C175.597 108 175.453 108.144 174.877 108.18C174.337 108.216 172.501 108.252 170.485 108.18C170.881 108.864 171.277 109.98 171.421 110.7C174.013 110.7 175.813 110.664 176.929 110.232C178.009 109.8 178.297 109.044 178.297 107.496V87.588H175.597ZM147.877 79.668V82.404H180.169V79.668H147.877ZM202.381 98.496C204.901 99.54 208.033 101.376 209.653 102.672L211.345 100.836C209.689 99.54 206.557 97.812 204.001 96.804L202.381 98.496ZM198.457 105.336C203.317 106.704 209.221 109.152 212.425 111.096L214.009 108.936C210.769 107.136 204.865 104.724 200.041 103.428L198.457 105.336ZM203.101 77.76C201.841 81.036 199.357 85.176 195.721 88.236C196.333 88.596 197.197 89.352 197.629 89.928C201.553 86.472 204.109 82.116 205.729 78.192L203.101 77.76ZM202.597 81.54L201.409 83.916H212.389V81.54H202.597ZM211.597 81.54V82.044C209.041 88.632 202.705 93.744 196.261 96.336C196.801 96.804 197.629 97.848 197.917 98.46C204.613 95.544 211.201 90.072 214.297 82.368L212.641 81.432L212.173 81.54H211.597ZM202.129 83.592L199.969 84.42C203.137 90.612 208.825 96.084 214.981 98.712C215.377 98.028 216.169 97.056 216.745 96.516C210.697 94.284 205.009 89.172 202.129 83.592ZM191.797 92.016C192.733 94.536 193.633 97.776 193.957 99.72L196.153 99.036C195.829 97.128 194.821 93.924 193.849 91.476L191.797 92.016ZM188.773 101.232C189.241 103.716 189.637 106.956 189.709 109.08L191.833 108.684C191.725 106.56 191.293 103.356 190.825 100.872L188.773 101.232ZM184.957 100.944C184.633 103.86 184.093 107.1 183.229 109.296C183.805 109.476 184.885 109.836 185.389 110.088C186.145 107.856 186.829 104.436 187.225 101.34L184.957 100.944ZM184.093 91.26C184.093 90.72 185.749 89.856 185.749 89.856V89.82C188.125 86.94 190.609 82.728 192.445 78.696L189.961 77.652C188.521 81.612 186.001 85.752 185.209 86.796C184.489 87.912 183.877 88.668 183.229 88.812C183.517 89.496 183.949 90.72 184.093 91.26ZM184.093 91.26C184.669 90.972 185.641 90.792 191.329 90.144C191.365 89.64 191.437 88.704 191.581 88.02L185.281 88.56L184.021 89.316L184.093 91.26ZM184.309 99.36C184.309 98.82 186.037 98.028 186.037 98.028V97.956C189.457 94.428 192.985 89.46 195.721 84.6L193.417 83.232C191.041 88.056 187.297 93.168 186.145 94.464C185.029 95.796 184.237 96.696 183.445 96.876C183.769 97.56 184.165 98.82 184.309 99.36ZM184.309 99.36C184.993 99 186.145 98.712 194.353 97.452C194.317 96.948 194.389 96.012 194.461 95.364L185.461 96.588L184.237 97.416L184.309 99.36ZM192.445 100.584C193.237 102.708 194.137 105.48 194.497 107.28L196.513 106.56C196.117 104.796 195.181 102.06 194.353 99.972L192.445 100.584ZM233.017 101.232C236.797 99.936 239.245 96.984 239.245 93.096C239.245 90.576 238.165 88.92 236.149 88.92C234.709 88.92 233.413 89.82 233.413 91.512C233.413 93.204 234.637 94.104 236.113 94.104C236.797 94.104 237.517 93.924 238.021 93.276L236.077 90.54L236.761 93.564C236.761 96.3 235.141 98.136 232.189 99.324L233.017 101.232ZM260.989 80.316V82.908H284.281V80.316H260.989ZM260.989 88.704V91.26H284.245V88.704H260.989ZM260.809 97.308V99.864H284.317V97.308H260.809ZM259.477 80.316V93.348C259.477 98.424 259.081 104.832 255.121 109.296C255.697 109.656 256.777 110.556 257.209 111.096C261.493 106.308 262.141 98.856 262.141 93.384V80.316H259.477ZM283.201 80.316V107.208C283.201 107.892 282.949 108.108 282.265 108.144C281.581 108.144 279.133 108.18 276.577 108.072C276.973 108.792 277.405 109.98 277.513 110.7C280.933 110.736 283.021 110.7 284.245 110.268C285.433 109.8 285.865 108.972 285.865 107.208V80.316H283.201ZM270.781 81.288V110.556H273.517V81.288H270.781ZM300.589 87.84V105.66C300.589 109.26 301.705 110.232 305.629 110.232C306.421 110.232 312.001 110.232 312.901 110.232C316.933 110.232 317.797 108.216 318.157 101.376C317.437 101.16 316.249 100.692 315.601 100.188C315.313 106.416 314.989 107.676 312.757 107.676C311.497 107.676 306.817 107.676 305.845 107.676C303.793 107.676 303.361 107.352 303.361 105.696V87.84H300.589ZM294.829 90.504C294.289 94.788 293.101 100.44 291.553 104.148L294.253 105.3C295.729 101.412 296.845 95.292 297.421 91.044L294.829 90.504ZM317.365 90.54C319.381 94.824 321.361 100.512 322.045 104.22L324.745 103.176C323.953 99.432 321.937 93.888 319.849 89.604L317.365 90.54ZM302.281 80.82C305.701 83.232 309.949 86.796 311.929 89.028L313.873 87.012C311.785 84.744 307.465 81.36 304.117 79.056L302.281 80.82ZM340.765 78.192V95.328H343.357V78.192H340.765ZM335.761 84.78V87.264H348.073V84.78H335.761ZM336.733 94.14V109.26H339.109V94.14H336.733ZM338.137 94.14V96.48H344.941V104.544H338.137V106.92H347.353V94.14H338.137ZM351.025 77.796C350.197 83.592 348.721 89.28 346.309 92.988C346.777 93.492 347.677 94.572 347.965 95.076C350.701 90.972 352.429 84.672 353.473 78.192L351.025 77.796ZM350.881 84.78L350.197 87.12H360.529V84.78H350.881ZM356.569 85.716C355.561 97.128 352.897 104.724 345.373 109.08C345.877 109.512 346.777 110.484 347.101 110.952C354.805 106.02 357.757 98.136 358.981 85.896L356.569 85.716ZM351.097 86.4L349.189 87.588C349.981 95.544 351.925 105.732 359.233 110.88C359.593 110.232 360.421 109.26 360.889 108.756C353.761 104.22 351.889 94.32 351.097 86.4ZM334.321 77.976C332.593 83.484 329.749 88.992 326.581 92.592C327.049 93.276 327.769 94.716 328.021 95.328C331.585 91.152 334.789 84.852 336.841 78.66L334.321 77.976ZM331.441 86.796V110.88H333.925V84.42L333.853 84.348L331.441 86.796ZM379.033 80.424V82.908H393.217V80.424H379.033ZM377.413 93.06V95.652H396.529V93.06H377.413ZM385.765 88.92V107.676C385.765 108.18 385.549 108.36 385.009 108.36C384.433 108.396 382.453 108.396 380.329 108.324C380.689 109.08 381.121 110.16 381.301 110.916C384.109 110.916 385.837 110.844 386.989 110.448C388.141 110.052 388.537 109.26 388.537 107.676V88.92H385.765ZM392.209 80.424V81.036C390.877 83.448 388.177 86.904 385.765 88.92C386.233 89.28 387.025 90 387.385 90.468C390.265 88.272 393.397 84.708 395.449 81.612L393.541 80.28L392.929 80.424H392.209ZM364.273 97.488C368.449 100.692 373.777 105.3 376.261 108.324L378.025 106.092C375.505 103.14 370.069 98.676 365.893 95.616L364.273 97.488ZM364.273 97.488L366.757 98.244C368.233 93.096 369.997 84.528 370.753 78.012L368.089 77.868C367.477 84.096 365.785 92.592 364.273 97.488ZM373.993 82.944V86.328C373.993 92.772 373.309 102.204 363.445 109.116C364.021 109.512 364.957 110.376 365.353 110.988C375.721 103.572 376.513 93.384 376.513 86.364V82.944H373.993ZM363.301 86.076L363.589 88.704C367.621 88.452 373.201 88.128 378.565 87.768L378.601 85.32C372.949 85.644 367.189 85.932 363.301 86.076ZM399.553 92.484V95.436H432.493V92.484H399.553ZM455.713 78.228V110.88H458.413V78.228H455.713ZM449.485 79.596C448.657 84.276 447.145 88.92 445.057 91.944C445.741 92.232 446.857 92.88 447.397 93.276C449.449 90.072 451.105 85.14 452.077 80.1L449.485 79.596ZM449.845 85.14L449.161 87.804H466.657V85.14H449.845ZM445.345 95.724V98.388H468.241V95.724H445.345ZM443.581 77.904C441.673 83.376 438.469 88.776 435.085 92.268C435.589 92.916 436.381 94.32 436.633 94.932C440.377 90.864 443.869 84.78 446.137 78.696L443.581 77.904ZM439.945 87.192V110.844H442.537V84.672L442.501 84.636L439.945 87.192ZM486.457 77.76V107.856C486.457 108.504 486.241 108.72 485.593 108.756C484.945 108.756 482.785 108.792 480.625 108.72C480.985 109.332 481.417 110.34 481.561 110.988C484.585 110.988 486.457 110.952 487.609 110.592C488.725 110.196 489.193 109.548 489.193 107.856V77.76H486.457ZM472.381 80.64V82.872H503.629V80.64H472.381ZM478.717 86.904H497.293V89.496H478.717V86.904ZM476.161 85.032V91.404H500.029V85.032H476.161ZM475.117 93.924V95.94H497.869V107.028H500.569V93.924H475.117ZM471.697 98.424V100.584H504.313V98.424H471.697ZM474.757 103.32V105.408H499.273V103.32H474.757ZM524.077 88.884C521.053 88.884 518.569 91.332 518.569 94.356C518.569 97.416 521.053 99.864 524.077 99.864C527.101 99.864 529.549 97.416 529.549 94.356C529.549 91.332 527.101 88.884 524.077 88.884ZM524.077 98.028C522.061 98.028 520.405 96.408 520.405 94.356C520.405 92.376 522.061 90.72 524.077 90.72C526.093 90.72 527.713 92.376 527.713 94.356C527.713 96.408 526.093 98.028 524.077 98.028ZM554.533 111.096V87.84H551.869V108.612H543.193V111.096H554.533Z" fill="#727171"/>
<path d="M8.256 55H15.024L19.68 35.368C20.208 32.632 20.832 29.992 21.36 27.304H21.552C22.032 29.992 22.56 32.632 23.184 35.368L27.888 55H34.8L41.76 19.672H36.432L33.072 38.056C32.496 41.8 31.872 45.592 31.296 49.432H31.056C30.192 45.592 29.472 41.752 28.608 38.056L24.048 19.672H19.104L14.592 38.056C13.776 41.8 12.96 45.592 12.192 49.432H12C11.376 45.592 10.752 41.8 10.08 38.056L6.816 19.672H1.056L8.256 55ZM47.0186 55H52.5866V36.28C54.8906 33.976 56.5706 32.728 59.0186 32.728C62.0906 32.728 63.4346 34.504 63.4346 39.112V55H69.0026V38.392C69.0026 31.72 66.5066 27.928 60.8906 27.928C57.2906 27.928 54.6026 29.896 52.3466 32.104L52.5866 26.872V16.792H47.0186V55ZM83.0711 55.672C86.2391 55.672 89.0711 54.088 91.4711 52.024H91.6631L92.0951 55H96.6551V39.16C96.6551 32.104 93.6311 27.928 87.0551 27.928C82.8311 27.928 79.0871 29.704 76.3991 31.384L78.4631 35.176C80.6711 33.736 83.3111 32.44 86.0951 32.44C89.9351 32.44 91.0391 35.128 91.0871 38.2C80.1431 39.4 75.3431 42.328 75.3431 47.992C75.3431 52.648 78.5591 55.672 83.0711 55.672ZM84.7991 51.256C82.4471 51.256 80.6711 50.2 80.6711 47.608C80.6711 44.632 83.2631 42.664 91.0871 41.752V48.184C88.9271 50.2 87.1031 51.256 84.7991 51.256ZM112.336 55.672C114.304 55.672 116.08 55.144 117.568 54.664L116.56 50.584C115.744 50.92 114.64 51.256 113.728 51.256C110.992 51.256 109.84 49.576 109.84 46.456V33.016H116.752V28.6H109.84V21.304H105.232L104.608 28.6L100.48 28.888V33.016H104.32V46.408C104.32 51.928 106.432 55.672 112.336 55.672ZM132.543 55.672C135.999 55.672 139.023 54.52 141.471 52.888L139.551 49.336C137.583 50.584 135.615 51.304 133.263 51.304C128.703 51.304 125.535 48.328 125.103 43.288H142.239C142.383 42.616 142.479 41.56 142.479 40.456C142.479 32.968 138.687 27.928 131.727 27.928C125.583 27.928 119.679 33.256 119.679 41.848C119.679 50.536 125.343 55.672 132.543 55.672ZM125.007 39.448C125.583 34.84 128.511 32.296 131.823 32.296C135.663 32.296 137.679 34.888 137.679 39.448H125.007ZM154.358 55H160.79L169.91 28.6H164.534L160.022 42.808C159.254 45.4 158.486 48.088 157.718 50.68H157.478C156.71 48.088 155.942 45.4 155.174 42.808L150.71 28.6H145.046L154.358 55ZM185.277 55.672C188.733 55.672 191.757 54.52 194.205 52.888L192.285 49.336C190.317 50.584 188.349 51.304 185.997 51.304C181.437 51.304 178.269 48.328 177.837 43.288H194.973C195.117 42.616 195.213 41.56 195.213 40.456C195.213 32.968 191.421 27.928 184.461 27.928C178.317 27.928 172.413 33.256 172.413 41.848C172.413 50.536 178.077 55.672 185.277 55.672ZM177.741 39.448C178.317 34.84 181.245 32.296 184.557 32.296C188.397 32.296 190.413 34.888 190.413 39.448H177.741ZM201.425 55H206.993V38.584C208.625 34.408 211.217 32.872 213.329 32.872C214.433 32.872 215.105 33.016 216.017 33.304L216.977 28.504C216.161 28.12 215.345 27.928 214.049 27.928C211.217 27.928 208.433 29.944 206.561 33.352H206.417L205.937 28.6H201.425V55ZM233.095 66.04C238.663 66.04 241.447 62.248 243.511 56.632L253.207 28.6H247.831L243.559 42.184C242.887 44.632 242.167 47.224 241.543 49.672H241.303C240.439 47.176 239.671 44.536 238.855 42.184L234.007 28.6H228.343L238.807 54.808L238.279 56.632C237.319 59.464 235.591 61.576 232.759 61.576C232.087 61.576 231.319 61.384 230.839 61.192L229.783 65.512C230.695 65.848 231.751 66.04 233.095 66.04ZM268.095 55.672C274.623 55.672 280.527 50.584 280.527 41.848C280.527 33.016 274.623 27.928 268.095 27.928C261.519 27.928 255.663 33.016 255.663 41.848C255.663 50.584 261.519 55.672 268.095 55.672ZM268.095 51.112C263.919 51.112 261.375 47.416 261.375 41.848C261.375 36.232 263.919 32.536 268.095 32.536C272.223 32.536 274.863 36.232 274.863 41.848C274.863 47.416 272.223 51.112 268.095 51.112ZM294.795 55.672C298.443 55.672 300.987 53.8 303.387 51.016H303.531L303.963 55H308.523V28.6H303.003V46.936C300.795 49.72 299.115 50.872 296.667 50.872C293.547 50.872 292.203 49.096 292.203 44.536V28.6H286.683V45.208C286.683 51.928 289.179 55.672 294.795 55.672ZM336.686 55.672C339.662 55.672 342.398 54.088 344.414 52.072H344.558L344.99 55H349.55V16.792H343.982V26.536L344.222 30.904C342.11 29.08 340.142 27.928 337.118 27.928C331.262 27.928 325.838 33.256 325.838 41.848C325.838 50.584 330.062 55.672 336.686 55.672ZM338.03 51.064C333.902 51.064 331.55 47.752 331.55 41.752C331.55 36.088 334.526 32.536 338.222 32.536C340.19 32.536 342.062 33.208 343.982 34.984V47.848C342.11 50.056 340.19 51.064 338.03 51.064ZM368.408 55.672C374.936 55.672 380.84 50.584 380.84 41.848C380.84 33.016 374.936 27.928 368.408 27.928C361.832 27.928 355.976 33.016 355.976 41.848C355.976 50.584 361.832 55.672 368.408 55.672ZM368.408 51.112C364.232 51.112 361.688 47.416 361.688 41.848C361.688 36.232 364.232 32.536 368.408 32.536C372.536 32.536 375.176 36.232 375.176 41.848C375.176 47.416 372.536 51.112 368.408 51.112ZM386.197 64.648C391.189 62.776 394.117 58.888 394.117 53.8C394.117 50.104 392.533 47.896 389.845 47.896C387.733 47.896 385.957 49.24 385.957 51.448C385.957 53.704 387.733 55 389.701 55C390.613 55 391.477 54.712 392.149 53.992L389.845 50.392L390.229 54.808C390.229 57.688 388.309 60.136 384.997 61.528L386.197 64.648ZM420.779 55.672C423.755 55.672 426.491 54.088 428.507 52.072H428.651L429.083 55H433.643V16.792H428.075V26.536L428.315 30.904C426.203 29.08 424.235 27.928 421.211 27.928C415.355 27.928 409.931 33.256 409.931 41.848C409.931 50.584 414.155 55.672 420.779 55.672ZM422.123 51.064C417.995 51.064 415.643 47.752 415.643 41.752C415.643 36.088 418.619 32.536 422.315 32.536C424.283 32.536 426.155 33.208 428.075 34.984V47.848C426.203 50.056 424.283 51.064 422.123 51.064ZM452.502 55.672C459.03 55.672 464.934 50.584 464.934 41.848C464.934 33.016 459.03 27.928 452.502 27.928C445.926 27.928 440.07 33.016 440.07 41.848C440.07 50.584 445.926 55.672 452.502 55.672ZM452.502 51.112C448.326 51.112 445.782 47.416 445.782 41.848C445.782 36.232 448.326 32.536 452.502 32.536C456.63 32.536 459.27 36.232 459.27 41.848C459.27 47.416 456.63 51.112 452.502 51.112ZM482.206 55H487.774V28.6H482.206V55ZM484.99 23.656C487.006 23.656 488.446 22.36 488.446 20.344C488.446 18.376 487.006 17.08 484.99 17.08C482.926 17.08 481.582 18.376 481.582 20.344C481.582 22.36 482.926 23.656 484.99 23.656ZM504.914 55.672C506.882 55.672 508.658 55.144 510.146 54.664L509.138 50.584C508.322 50.92 507.218 51.256 506.306 51.256C503.57 51.256 502.418 49.576 502.418 46.456V33.016H509.33V28.6H502.418V21.304H497.81L497.186 28.6L493.058 28.888V33.016H496.898V46.408C496.898 51.928 499.01 55.672 504.914 55.672ZM530.119 55H536.503L539.767 42.04C540.391 39.544 540.871 37.096 541.399 34.312H541.639C542.215 37.096 542.695 39.496 543.319 41.992L546.679 55H553.303L560.167 28.6H554.935L551.575 42.904C550.999 45.448 550.567 47.896 550.039 50.392H549.847C549.223 47.896 548.695 45.448 548.071 42.904L544.279 28.6H539.143L535.447 42.904C534.775 45.4 534.247 47.896 533.719 50.392H533.479C532.999 47.896 532.567 45.448 532.087 42.904L528.583 28.6H523.015L530.119 55ZM576.215 55.672C579.671 55.672 582.695 54.52 585.143 52.888L583.223 49.336C581.255 50.584 579.287 51.304 576.935 51.304C572.375 51.304 569.207 48.328 568.775 43.288H585.911C586.055 42.616 586.151 41.56 586.151 40.456C586.151 32.968 582.359 27.928 575.399 27.928C569.255 27.928 563.351 33.256 563.351 41.848C563.351 50.536 569.015 55.672 576.215 55.672ZM568.679 39.448C569.255 34.84 572.183 32.296 575.495 32.296C579.335 32.296 581.351 34.888 581.351 39.448H568.679ZM597.882 55.672C599.274 55.672 600.138 55.432 600.858 55.192L600.138 51.016C599.658 51.112 599.466 51.112 599.226 51.112C598.554 51.112 597.93 50.584 597.93 49.096V16.792H592.362V48.808C592.362 53.08 593.85 55.672 597.882 55.672ZM612.179 55.672C613.571 55.672 614.435 55.432 615.155 55.192L614.435 51.016C613.955 51.112 613.763 51.112 613.523 51.112C612.851 51.112 612.227 50.584 612.227 49.096V16.792H606.659V48.808C606.659 53.08 608.147 55.672 612.179 55.672ZM623.98 55.672C626.044 55.672 627.676 54.04 627.676 51.784C627.676 49.48 626.044 47.896 623.98 47.896C621.868 47.896 620.284 49.48 620.284 51.784C620.284 54.04 621.868 55.672 623.98 55.672Z" fill="black"/>
</svg>
