<svg width="292" height="67" viewBox="0 0 292 67" fill="none" xmlns="http://www.w3.org/2000/svg">
<path d="M13 45.1V58.02H14.48V46.48H19.3V45.1H13ZM32.96 56.44V57.74H38.18V56.44H32.96ZM32.32 53.06V62.08L33.74 62.62V53.06H32.32ZM29.42 57.24L28.3 57.66C29.52 62.36 31.82 63.42 35.4 63.42H38.76C38.8 63.02 39.02 62.36 39.22 62.04C38.6 62.04 35.96 62.04 35.52 62.04C32.56 62.04 30.4 61.2 29.42 57.24ZM29.78 45.22C29.2 48.26 28.02 50.86 26.12 52.48C26.46 52.7 27.04 53.24 27.24 53.5C29.2 51.68 30.54 48.84 31.22 45.44L29.78 45.22ZM35.16 45.22C34.72 48.36 33.6 50.8 31.58 52.28C31.92 52.5 32.54 52.96 32.78 53.22C34.82 51.52 36.08 48.88 36.62 45.4L35.16 45.22ZM29.28 49.28C30.18 50 31.32 51.02 31.86 51.66L32.6 50.5C32.04 49.9 30.9 48.94 30 48.26L29.28 49.28ZM34.52 49.3C35.88 50.48 37.5 52.16 38.28 53.22L39.32 52.2C38.54 51.18 36.86 49.54 35.52 48.42L34.52 49.3ZM28.4 54.52C28.22 58.16 27.5 60.92 25.46 62.6C25.78 62.82 26.38 63.32 26.6 63.56C28.74 61.6 29.6 58.7 29.88 54.62L28.4 54.52ZM25.34 49.28C24.16 51.4 22.26 53.5 20.4 54.86C20.68 55.18 21.12 55.88 21.26 56.2C23.22 54.6 25.32 52.18 26.7 49.78L25.34 49.28ZM24.88 45.22C24 46.64 22.2 48.34 20.64 49.4C20.9 49.68 21.28 50.2 21.48 50.5C23.18 49.3 25.06 47.42 26.22 45.74L24.88 45.22ZM23.54 53V63.68H24.96V51.88L24.76 51.78L23.54 53ZM41.76 62H49.8V60.48H46.84V47.34H45.44C44.66 47.82 43.72 48.16 42.4 48.38V49.56H45.02V60.48H41.76V62ZM57.8738 51.38V62.96H59.3538V51.38H57.8738ZM62.6738 51.38V62.96H64.1538V51.38H62.6738ZM60.0938 46.94C59.8938 48.24 59.4538 50.12 59.0538 51.34L60.5338 51.54C60.9738 50.4 61.4938 48.66 61.9338 47.1L60.0938 46.94ZM53.1738 50.66V63.62H54.7138V52.06H68.2338V50.66H53.1738ZM67.5538 50.66V61.72C67.5538 62 67.4738 62.08 67.1538 62.1C66.8538 62.12 65.8338 62.14 64.7138 62.1C64.9338 62.48 65.1538 63.1 65.2338 63.5C66.6738 63.5 67.6738 63.48 68.2938 63.24C68.8938 63 69.0538 62.58 69.0538 61.72V50.66H67.5538ZM52.1538 46.26V47.78H70.0938V46.26H52.1538ZM82.4338 56.72C83.8338 57.3 85.5738 58.32 86.4738 59.04L87.4138 58.02C86.4938 57.3 84.7538 56.34 83.3338 55.78L82.4338 56.72ZM80.2538 60.52C82.9538 61.28 86.2338 62.64 88.0138 63.72L88.8938 62.52C87.0938 61.52 83.8138 60.18 81.1338 59.46L80.2538 60.52ZM82.8338 45.2C82.1338 47.02 80.7538 49.32 78.7338 51.02C79.0738 51.22 79.5538 51.64 79.7938 51.96C81.9738 50.04 83.3938 47.62 84.2938 45.44L82.8338 45.2ZM82.5538 47.3L81.8938 48.62H87.9938V47.3H82.5538ZM87.5538 47.3V47.58C86.1338 51.24 82.6138 54.08 79.0338 55.52C79.3338 55.78 79.7938 56.36 79.9538 56.7C83.6738 55.08 87.3338 52.04 89.0538 47.76L88.1338 47.24L87.8738 47.3H87.5538ZM82.2938 48.44L81.0938 48.9C82.8537 52.34 86.0138 55.38 89.4338 56.84C89.6538 56.46 90.0938 55.92 90.4138 55.62C87.0538 54.38 83.8938 51.54 82.2938 48.44ZM76.5538 53.12C77.0738 54.52 77.5738 56.32 77.7538 57.4L78.9738 57.02C78.7938 55.96 78.2338 54.18 77.6938 52.82L76.5538 53.12ZM74.8738 58.24C75.1338 59.62 75.3538 61.42 75.3938 62.6L76.5738 62.38C76.5138 61.2 76.2738 59.42 76.0138 58.04L74.8738 58.24ZM72.7538 58.08C72.5738 59.7 72.2738 61.5 71.7938 62.72C72.1138 62.82 72.7138 63.02 72.9938 63.16C73.4138 61.92 73.7938 60.02 74.0138 58.3L72.7538 58.08ZM72.2738 52.7C72.2738 52.4 73.1938 51.92 73.1938 51.92V51.9C74.5138 50.3 75.8938 47.96 76.9138 45.72L75.5338 45.14C74.7338 47.34 73.3338 49.64 72.8938 50.22C72.4938 50.84 72.1538 51.26 71.7938 51.34C71.9538 51.72 72.1938 52.4 72.2738 52.7ZM72.2738 52.7C72.5938 52.54 73.1338 52.44 76.2938 52.08C76.3138 51.8 76.3538 51.28 76.4338 50.9L72.9338 51.2L72.2338 51.62L72.2738 52.7ZM72.3938 57.2C72.3938 56.9 73.3538 56.46 73.3538 56.46V56.42C75.2538 54.46 77.2138 51.7 78.7338 49L77.4538 48.24C76.1338 50.92 74.0538 53.76 73.4138 54.48C72.7938 55.22 72.3538 55.72 71.9138 55.82C72.0938 56.2 72.3138 56.9 72.3938 57.2ZM72.3938 57.2C72.7738 57 73.4138 56.84 77.9738 56.14C77.9538 55.86 77.9938 55.34 78.0338 54.98L73.0338 55.66L72.3538 56.12L72.3938 57.2ZM76.9138 57.88C77.3538 59.06 77.8538 60.6 78.0538 61.6L79.1738 61.2C78.9538 60.22 78.4338 58.7 77.9738 57.54L76.9138 57.88ZM99.4538 58.24C101.554 57.52 102.914 55.88 102.914 53.72C102.914 52.32 102.314 51.4 101.194 51.4C100.394 51.4 99.6738 51.9 99.6738 52.84C99.6738 53.78 100.354 54.28 101.174 54.28C101.554 54.28 101.954 54.18 102.234 53.82L101.154 52.3L101.534 53.98C101.534 55.5 100.634 56.52 98.9938 57.18L99.4538 58.24ZM114.994 46.62V48.06H127.934V46.62H114.994ZM114.994 51.28V52.7H127.914V51.28H114.994ZM114.894 56.06V57.48H127.954V56.06H114.894ZM114.154 46.62V53.86C114.154 56.68 113.934 60.24 111.734 62.72C112.054 62.92 112.654 63.42 112.894 63.72C115.274 61.06 115.634 56.92 115.634 53.88V46.62H114.154ZM127.334 46.62V61.56C127.334 61.94 127.194 62.06 126.814 62.08C126.434 62.08 125.074 62.1 123.654 62.04C123.874 62.44 124.114 63.1 124.174 63.5C126.074 63.52 127.234 63.5 127.914 63.26C128.574 63 128.814 62.54 128.814 61.56V46.62H127.334ZM120.434 47.16V63.42H121.954V47.16H120.434ZM136.994 50.8V60.7C136.994 62.7 137.614 63.24 139.794 63.24C140.234 63.24 143.334 63.24 143.834 63.24C146.074 63.24 146.554 62.12 146.754 58.32C146.354 58.2 145.694 57.94 145.334 57.66C145.174 61.12 144.994 61.82 143.754 61.82C143.054 61.82 140.454 61.82 139.914 61.82C138.774 61.82 138.534 61.64 138.534 60.72V50.8H136.994ZM133.794 52.28C133.494 54.66 132.834 57.8 131.974 59.86L133.474 60.5C134.294 58.34 134.914 54.94 135.234 52.58L133.794 52.28ZM146.314 52.3C147.434 54.68 148.534 57.84 148.914 59.9L150.414 59.32C149.974 57.24 148.854 54.16 147.694 51.78L146.314 52.3ZM137.934 46.9C139.834 48.24 142.194 50.22 143.294 51.46L144.374 50.34C143.214 49.08 140.814 47.2 138.954 45.92L137.934 46.9ZM159.314 45.44V54.96H160.754V45.44H159.314ZM156.534 49.1V50.48H163.374V49.1H156.534ZM157.074 54.3V62.7H158.394V54.3H157.074ZM157.854 54.3V55.6H161.634V60.08H157.854V61.4H162.974V54.3H157.854ZM165.014 45.22C164.554 48.44 163.734 51.6 162.394 53.66C162.654 53.94 163.154 54.54 163.314 54.82C164.834 52.54 165.794 49.04 166.374 45.44L165.014 45.22ZM164.934 49.1L164.554 50.4H170.294V49.1H164.934ZM168.094 49.62C167.534 55.96 166.054 60.18 161.874 62.6C162.154 62.84 162.654 63.38 162.834 63.64C167.114 60.9 168.754 56.52 169.434 49.72L168.094 49.62ZM165.054 50L163.994 50.66C164.434 55.08 165.514 60.74 169.574 63.6C169.774 63.24 170.234 62.7 170.494 62.42C166.534 59.9 165.494 54.4 165.054 50ZM155.734 45.32C154.774 48.38 153.194 51.44 151.434 53.44C151.694 53.82 152.094 54.62 152.234 54.96C154.214 52.64 155.994 49.14 157.134 45.7L155.734 45.32ZM154.134 50.22V63.6H155.514V48.9L155.474 48.86L154.134 50.22ZM180.574 46.68V48.06H188.454V46.68H180.574ZM179.674 53.7V55.14H190.294V53.7H179.674ZM184.314 51.4V61.82C184.314 62.1 184.194 62.2 183.894 62.2C183.574 62.22 182.474 62.22 181.294 62.18C181.494 62.6 181.734 63.2 181.834 63.62C183.394 63.62 184.354 63.58 184.994 63.36C185.634 63.14 185.854 62.7 185.854 61.82V51.4H184.314ZM187.894 46.68V47.02C187.154 48.36 185.654 50.28 184.314 51.4C184.574 51.6 185.014 52 185.214 52.26C186.814 51.04 188.554 49.06 189.694 47.34L188.634 46.6L188.294 46.68H187.894ZM172.374 56.16C174.694 57.94 177.654 60.5 179.034 62.18L180.014 60.94C178.614 59.3 175.594 56.82 173.274 55.12L172.374 56.16ZM172.374 56.16L173.754 56.58C174.574 53.72 175.554 48.96 175.974 45.34L174.494 45.26C174.154 48.72 173.214 53.44 172.374 56.16ZM177.774 48.08V49.96C177.774 53.54 177.394 58.78 171.914 62.62C172.234 62.84 172.754 63.32 172.974 63.66C178.734 59.54 179.174 53.88 179.174 49.98V48.08H177.774ZM171.834 49.82L171.994 51.28C174.234 51.14 177.334 50.96 180.314 50.76L180.334 49.4C177.194 49.58 173.994 49.74 171.834 49.82ZM191.974 53.38V55.02H210.274V53.38H191.974ZM223.174 45.46V63.6H224.674V45.46H223.174ZM219.714 46.22C219.254 48.82 218.414 51.4 217.254 53.08C217.634 53.24 218.254 53.6 218.554 53.82C219.694 52.04 220.614 49.3 221.154 46.5L219.714 46.22ZM219.914 49.3L219.534 50.78H229.254V49.3H219.914ZM217.414 55.18V56.66H230.134V55.18H217.414ZM216.434 45.28C215.374 48.32 213.594 51.32 211.714 53.26C211.994 53.62 212.434 54.4 212.574 54.74C214.654 52.48 216.594 49.1 217.854 45.72L216.434 45.28ZM214.414 50.44V63.58H215.854V49.04L215.834 49.02L214.414 50.44ZM240.254 45.2V61.92C240.254 62.28 240.134 62.4 239.774 62.42C239.414 62.42 238.214 62.44 237.014 62.4C237.214 62.74 237.454 63.3 237.534 63.66C239.214 63.66 240.254 63.64 240.894 63.44C241.514 63.22 241.774 62.86 241.774 61.92V45.2H240.254ZM232.434 46.8V48.04H249.794V46.8H232.434ZM235.954 50.28H246.274V51.72H235.954V50.28ZM234.534 49.24V52.78H247.794V49.24H234.534ZM233.954 54.18V55.3H246.594V61.46H248.094V54.18H233.954ZM232.054 56.68V57.88H250.174V56.68H232.054ZM233.754 59.4V60.56H247.374V59.4H233.754ZM261.154 51.38C259.474 51.38 258.094 52.74 258.094 54.42C258.094 56.12 259.474 57.48 261.154 57.48C262.834 57.48 264.194 56.12 264.194 54.42C264.194 52.74 262.834 51.38 261.154 51.38ZM261.154 56.46C260.034 56.46 259.114 55.56 259.114 54.42C259.114 53.32 260.034 52.4 261.154 52.4C262.274 52.4 263.174 53.32 263.174 54.42C263.174 55.56 262.274 56.46 261.154 56.46ZM278.074 63.72V50.8H276.594V62.34H271.774V63.72H278.074Z" fill="#727171"/>
<path d="M18.44 23H21.26L23.2 14.82C23.42 13.68 23.68 12.58 23.9 11.46H23.98C24.18 12.58 24.4 13.68 24.66 14.82L26.62 23H29.5L32.4 8.28H30.18L28.78 15.94C28.54 17.5 28.28 19.08 28.04 20.68H27.94C27.58 19.08 27.28 17.48 26.92 15.94L25.02 8.28H22.96L21.08 15.94C20.74 17.5 20.4 19.08 20.08 20.68H20C19.74 19.08 19.48 17.5 19.2 15.94L17.84 8.28H15.44L18.44 23ZM34.5911 23H36.9111V15.2C37.8711 14.24 38.5711 13.72 39.5911 13.72C40.8711 13.72 41.4311 14.46 41.4311 16.38V23H43.7511V16.08C43.7511 13.3 42.7111 11.72 40.3711 11.72C38.8711 11.72 37.7511 12.54 36.8111 13.46L36.9111 11.28V7.08H34.5911V23ZM49.613 23.28C50.933 23.28 52.113 22.62 53.113 21.76H53.193L53.373 23H55.273V16.4C55.273 13.46 54.013 11.72 51.273 11.72C49.513 11.72 47.953 12.46 46.833 13.16L47.693 14.74C48.613 14.14 49.713 13.6 50.873 13.6C52.473 13.6 52.933 14.72 52.953 16C48.393 16.5 46.393 17.72 46.393 20.08C46.393 22.02 47.733 23.28 49.613 23.28ZM50.333 21.44C49.353 21.44 48.613 21 48.613 19.92C48.613 18.68 49.693 17.86 52.953 17.48V20.16C52.053 21 51.293 21.44 50.333 21.44ZM61.8067 23.28C62.6267 23.28 63.3667 23.06 63.9867 22.86L63.5667 21.16C63.2267 21.3 62.7667 21.44 62.3867 21.44C61.2467 21.44 60.7667 20.74 60.7667 19.44V13.84H63.6467V12H60.7667V8.96H58.8467L58.5867 12L56.8667 12.12V13.84H58.4667V19.42C58.4667 21.72 59.3467 23.28 61.8067 23.28ZM70.2263 23.28C71.6663 23.28 72.9263 22.8 73.9463 22.12L73.1463 20.64C72.3263 21.16 71.5063 21.46 70.5263 21.46C68.6263 21.46 67.3063 20.22 67.1263 18.12H74.2663C74.3263 17.84 74.3663 17.4 74.3663 16.94C74.3663 13.82 72.7863 11.72 69.8863 11.72C67.3263 11.72 64.8663 13.94 64.8663 17.52C64.8663 21.14 67.2263 23.28 70.2263 23.28ZM67.0863 16.52C67.3263 14.6 68.5463 13.54 69.9263 13.54C71.5263 13.54 72.3663 14.62 72.3663 16.52H67.0863ZM79.3158 23H81.9958L85.7958 12H83.5558L81.6758 17.92C81.3558 19 81.0358 20.12 80.7158 21.2H80.6158C80.2958 20.12 79.9758 19 79.6558 17.92L77.7958 12H75.4358L79.3158 23ZM92.1989 23.28C93.6389 23.28 94.8989 22.8 95.9189 22.12L95.1189 20.64C94.2989 21.16 93.4789 21.46 92.4989 21.46C90.5989 21.46 89.2789 20.22 89.0989 18.12H96.2389C96.2989 17.84 96.3389 17.4 96.3389 16.94C96.3389 13.82 94.7589 11.72 91.8589 11.72C89.2989 11.72 86.8389 13.94 86.8389 17.52C86.8389 21.14 89.1989 23.28 92.1989 23.28ZM89.0589 16.52C89.2989 14.6 90.5189 13.54 91.8989 13.54C93.4989 13.54 94.3389 14.62 94.3389 16.52H89.0589ZM98.927 23H101.247V16.16C101.927 14.42 103.007 13.78 103.887 13.78C104.347 13.78 104.627 13.84 105.007 13.96L105.407 11.96C105.067 11.8 104.727 11.72 104.187 11.72C103.007 11.72 101.847 12.56 101.067 13.98H101.007L100.807 12H98.927V23ZM112.123 27.6C114.443 27.6 115.603 26.02 116.463 23.68L120.503 12H118.263L116.483 17.66C116.203 18.68 115.903 19.76 115.643 20.78H115.543C115.183 19.74 114.863 18.64 114.523 17.66L112.503 12H110.143L114.503 22.92L114.283 23.68C113.883 24.86 113.163 25.74 111.983 25.74C111.703 25.74 111.383 25.66 111.183 25.58L110.743 27.38C111.123 27.52 111.563 27.6 112.123 27.6ZM126.706 23.28C129.426 23.28 131.886 21.16 131.886 17.52C131.886 13.84 129.426 11.72 126.706 11.72C123.966 11.72 121.526 13.84 121.526 17.52C121.526 21.16 123.966 23.28 126.706 23.28ZM126.706 21.38C124.966 21.38 123.906 19.84 123.906 17.52C123.906 15.18 124.966 13.64 126.706 13.64C128.426 13.64 129.526 15.18 129.526 17.52C129.526 19.84 128.426 21.38 126.706 21.38ZM137.831 23.28C139.351 23.28 140.411 22.5 141.411 21.34H141.471L141.651 23H143.551V12H141.251V19.64C140.331 20.8 139.631 21.28 138.611 21.28C137.311 21.28 136.751 20.54 136.751 18.64V12H134.451V18.92C134.451 21.72 135.491 23.28 137.831 23.28ZM155.286 23.28C156.526 23.28 157.666 22.62 158.506 21.78H158.566L158.746 23H160.646V7.08H158.326V11.14L158.426 12.96C157.546 12.2 156.726 11.72 155.466 11.72C153.026 11.72 150.766 13.94 150.766 17.52C150.766 21.16 152.526 23.28 155.286 23.28ZM155.846 21.36C154.126 21.36 153.146 19.98 153.146 17.48C153.146 15.12 154.386 13.64 155.926 13.64C156.746 13.64 157.526 13.92 158.326 14.66V20.02C157.546 20.94 156.746 21.36 155.846 21.36ZM168.503 23.28C171.223 23.28 173.683 21.16 173.683 17.52C173.683 13.84 171.223 11.72 168.503 11.72C165.763 11.72 163.323 13.84 163.323 17.52C163.323 21.16 165.763 23.28 168.503 23.28ZM168.503 21.38C166.763 21.38 165.703 19.84 165.703 17.52C165.703 15.18 166.763 13.64 168.503 13.64C170.223 13.64 171.323 15.18 171.323 17.52C171.323 19.84 170.223 21.38 168.503 21.38ZM175.915 27.02C177.995 26.24 179.215 24.62 179.215 22.5C179.215 20.96 178.555 20.04 177.435 20.04C176.555 20.04 175.815 20.6 175.815 21.52C175.815 22.46 176.555 23 177.375 23C177.755 23 178.115 22.88 178.395 22.58L177.435 21.08L177.595 22.92C177.595 24.12 176.795 25.14 175.415 25.72L175.915 27.02ZM190.325 23.28C191.565 23.28 192.705 22.62 193.545 21.78H193.605L193.785 23H195.685V7.08H193.365V11.14L193.465 12.96C192.585 12.2 191.765 11.72 190.505 11.72C188.065 11.72 185.805 13.94 185.805 17.52C185.805 21.16 187.565 23.28 190.325 23.28ZM190.885 21.36C189.165 21.36 188.185 19.98 188.185 17.48C188.185 15.12 189.425 13.64 190.965 13.64C191.785 13.64 192.565 13.92 193.365 14.66V20.02C192.585 20.94 191.785 21.36 190.885 21.36ZM203.542 23.28C206.262 23.28 208.722 21.16 208.722 17.52C208.722 13.84 206.262 11.72 203.542 11.72C200.802 11.72 198.362 13.84 198.362 17.52C198.362 21.16 200.802 23.28 203.542 23.28ZM203.542 21.38C201.802 21.38 200.742 19.84 200.742 17.52C200.742 15.18 201.802 13.64 203.542 13.64C205.262 13.64 206.362 15.18 206.362 17.52C206.362 19.84 205.262 21.38 203.542 21.38ZM215.919 23H218.239V12H215.919V23ZM217.079 9.94C217.919 9.94 218.519 9.4 218.519 8.56C218.519 7.74 217.919 7.2 217.079 7.2C216.219 7.2 215.659 7.74 215.659 8.56C215.659 9.4 216.219 9.94 217.079 9.94ZM225.381 23.28C226.201 23.28 226.941 23.06 227.561 22.86L227.141 21.16C226.801 21.3 226.341 21.44 225.961 21.44C224.821 21.44 224.341 20.74 224.341 19.44V13.84H227.221V12H224.341V8.96H222.421L222.161 12L220.441 12.12V13.84H222.041V19.42C222.041 21.72 222.921 23.28 225.381 23.28ZM235.883 23H238.543L239.903 17.6C240.163 16.56 240.363 15.54 240.583 14.38H240.683C240.923 15.54 241.123 16.54 241.383 17.58L242.783 23H245.543L248.403 12H246.223L244.823 17.96C244.583 19.02 244.403 20.04 244.183 21.08H244.103C243.843 20.04 243.623 19.02 243.363 17.96L241.783 12H239.643L238.103 17.96C237.823 19 237.603 20.04 237.383 21.08H237.283C237.083 20.04 236.903 19.02 236.703 17.96L235.243 12H232.923L235.883 23ZM255.09 23.28C256.53 23.28 257.79 22.8 258.81 22.12L258.01 20.64C257.19 21.16 256.37 21.46 255.39 21.46C253.49 21.46 252.17 20.22 251.99 18.12H259.13C259.19 17.84 259.23 17.4 259.23 16.94C259.23 13.82 257.65 11.72 254.75 11.72C252.19 11.72 249.73 13.94 249.73 17.52C249.73 21.14 252.09 23.28 255.09 23.28ZM251.95 16.52C252.19 14.6 253.41 13.54 254.79 13.54C256.39 13.54 257.23 14.62 257.23 16.52H251.95ZM264.118 23.28C264.698 23.28 265.058 23.18 265.358 23.08L265.058 21.34C264.858 21.38 264.778 21.38 264.678 21.38C264.398 21.38 264.138 21.16 264.138 20.54V7.08H261.818V20.42C261.818 22.2 262.438 23.28 264.118 23.28ZM270.075 23.28C270.655 23.28 271.015 23.18 271.315 23.08L271.015 21.34C270.815 21.38 270.735 21.38 270.635 21.38C270.355 21.38 270.095 21.16 270.095 20.54V7.08H267.775V20.42C267.775 22.2 268.395 23.28 270.075 23.28ZM274.992 23.28C275.852 23.28 276.532 22.6 276.532 21.66C276.532 20.7 275.852 20.04 274.992 20.04C274.112 20.04 273.452 20.7 273.452 21.66C273.452 22.6 274.112 23.28 274.992 23.28Z" fill="black"/>
</svg>
