<svg width="2004" height="1426" viewBox="0 0 2004 1426" fill="none" xmlns="http://www.w3.org/2000/svg">
<g clip-path="url(#clip0_35_299)">
<path d="M339.285 34.2471C338.407 34.5149 337.604 35.0588 336.809 35.5442C334.216 37.1007 331.682 38.7576 329.056 40.2388C322.247 44.0799 315.372 47.8038 308.581 51.6784C303.512 54.5654 298.494 57.5781 293.969 61.2936C287.345 66.7247 281.222 72.6746 275.811 79.3358C272.524 83.3777 269.437 87.5786 266.343 91.7712C261.508 98.3069 256.389 104.625 251.346 111.01C248.82 114.207 246.553 117.571 244.471 121.069C242.179 124.918 239.904 128.784 237.746 132.709C236.809 134.408 235.571 135.705 234.049 136.86C228.228 141.262 222.565 145.856 217.346 150.977C210.839 157.371 205.311 164.551 200.376 172.174C195.491 179.714 191.803 187.907 187.972 196.016C185.296 201.681 183.288 207.614 181.022 213.447C178.521 219.866 176.229 226.351 174.339 232.97C172.507 239.397 170.751 245.833 169.705 252.435C168.952 257.172 168.174 261.908 167.497 266.653C167.254 268.377 166.569 269.808 165.523 271.155C163.482 273.783 160.605 275.298 157.904 277.063C157.393 277.398 156.841 277.005 156.9 276.377C157.092 274.093 157.351 271.808 157.477 269.523C157.72 265.155 157.845 260.77 158.497 256.427C159.058 252.711 159.601 248.996 159.986 245.264C160.647 238.904 162.211 232.745 164.059 226.652C164.394 225.556 164.804 224.477 165.314 223.456C167.388 219.338 168.777 214.953 170.031 210.543C171.127 206.694 172.674 203.079 174.598 199.606C178.738 192.125 182.778 184.601 186.048 176.685C186.567 175.43 187.136 174.199 187.746 172.986C191.928 164.66 194.956 155.898 197.674 147.011C198.987 142.726 200.167 138.383 201.664 134.165C206.214 121.395 210.898 108.675 215.523 95.9386C216.234 93.972 216.811 91.9804 217.229 89.9301C218.266 84.8171 219.312 79.7124 220.458 74.6244C221.512 69.9465 222.683 65.2937 223.845 60.6409C225.083 55.6868 226.313 50.7244 227.668 45.7954C228.847 41.469 230.101 37.1676 231.749 32.9835C233.129 29.4687 234.041 25.8034 234.785 22.1046C234.944 21.2929 235.036 20.4477 234.994 19.6276C234.936 18.5146 234.367 17.6443 233.288 17.2091C232.209 16.7823 231.18 17.025 230.394 17.8033C229.742 18.456 229.198 19.2426 228.713 20.0376C225.351 25.5607 221.838 30.9583 217.698 35.9626C214.118 40.2974 210.956 44.9753 207.577 49.4775C205.394 52.3813 203.203 55.3019 201.288 58.4316C193.467 71.2101 187.253 84.725 182.443 98.8926C179.458 107.696 177.525 116.784 175.217 125.772C172.566 136.073 170.04 146.408 167.346 156.693C166.025 161.731 164.578 166.752 162.947 171.697C159.744 181.413 157.034 191.254 154.616 201.196C153.931 204.033 153.228 206.87 152.442 209.681C149.632 219.623 147.306 229.682 145.625 239.874C144.354 247.598 143.81 255.414 143.175 263.205C142.623 269.975 142.188 276.762 141.711 283.54C141.661 283.976 141.61 284.402 141.569 284.838C141.468 285.741 141.393 286.662 141.368 287.574C141.268 288.603 141.167 289.633 141.025 290.654C140.866 291.8 140.573 292.946 139.729 293.783C137.27 296.193 135.212 298.955 132.711 301.348C129.098 304.804 125.334 308.11 121.972 311.825C121.069 312.821 119.998 313.675 118.986 314.579C118.869 314.679 118.618 314.637 118.317 314.671C118.058 314.085 118.225 313.482 118.35 312.897C119.111 309.323 119.847 305.75 120.968 302.269C122.089 298.796 123.335 295.357 124.272 291.834C126.405 283.875 128.412 275.883 130.403 267.892C131.59 263.138 132.82 258.394 134.309 253.716C135.162 251.029 135.814 248.285 136.358 245.523C138.223 236.1 140.473 226.786 143.484 217.665C144.036 215.983 144.521 214.276 144.931 212.552C146.57 205.757 147.725 198.861 148.87 191.974C150.259 183.639 150.736 175.187 151.647 166.785C151.773 165.647 151.806 164.492 151.815 163.346C151.848 157.086 151.873 150.835 151.873 144.575C151.873 135.487 152.283 126.433 153.579 117.437C154.533 110.826 155.252 104.223 155.394 97.5202C155.595 88.2816 154.441 79.2103 153.161 70.1222C153.019 69.0929 152.785 68.072 152.542 67.051C152.4 66.4485 152.241 65.8293 151.965 65.2769C151.472 64.2895 150.694 63.6116 149.523 63.6033C148.343 63.6033 147.524 64.2644 147.122 65.3021C146.713 66.3648 146.403 67.4862 146.219 68.6076C145.868 70.775 145.358 72.8922 144.739 75.001C144.329 76.3985 143.977 77.8211 143.735 79.2605C142.522 86.5661 141.318 93.8716 140.189 101.186C139.168 107.78 138.298 114.399 137.261 120.993C136.157 127.998 134.635 134.935 133.79 141.981C132.778 150.475 131.766 158.961 130.787 167.463C130.445 170.467 130.261 173.488 129.867 176.484C128.83 184.342 127.71 192.191 126.639 200.041C125.317 209.757 123.728 219.422 121.495 228.987C119.831 236.092 118.342 243.247 116.887 250.393C115.615 256.628 114.369 262.871 113.323 269.138C111.634 279.323 110.764 289.624 108.79 299.775C107.017 308.888 105.813 318.102 104.934 327.34C104.75 329.299 104.115 330.964 102.735 332.37C99.8909 335.265 97.1726 338.303 94.2034 341.065C89.8541 345.115 85.3961 349.048 81.6742 353.709C81.4149 354.035 81.1222 354.337 80.8294 354.63C80.6872 354.78 80.5199 354.906 80.3527 355.031C79.9177 355.349 79.2152 355.207 79.0228 354.722C78.8304 354.245 78.638 353.751 78.5544 353.24C78.1195 350.563 77.5591 347.901 77.35 345.199C76.9318 339.901 76.6976 334.587 76.4383 329.274C76.338 327.19 76.3212 325.106 76.3296 323.022C76.3547 314.562 77.0405 306.143 77.7264 297.725C78.0191 294.093 78.3704 290.444 78.9726 286.854C81.1723 273.791 83.623 260.779 86.8097 247.916C87.7882 243.966 88.7668 240.017 89.9545 236.134C91.4935 231.121 92.3048 225.991 92.8903 220.803C93.8187 212.501 93.9776 204.158 94.4209 195.832C94.538 193.547 94.4125 191.246 94.3623 188.953C94.3205 187.179 94.17 185.413 94.1532 183.639C94.1198 177.798 94.1532 171.957 94.1198 166.124C94.0696 158.609 94.1365 151.094 95.1151 143.638C96.0268 136.684 96.0268 129.697 96.3446 122.726C96.4031 121.378 96.2777 120.014 96.1104 118.675C96.0268 117.972 95.7926 117.228 95.4329 116.625C94.3791 114.868 92.079 114.918 91.1338 116.734C90.6571 117.646 90.4062 118.684 90.1302 119.688C89.0428 123.713 87.9806 127.755 86.4751 131.646C81.0301 145.747 75.5434 159.839 69.3038 173.622C66.4935 179.823 64.7287 186.392 63.332 193.02C61.0737 203.748 60.0031 214.66 58.874 225.556C58.6899 227.322 58.5645 229.096 58.531 230.862C58.4223 236.502 58.0041 242.117 57.2764 247.707C56.0051 257.49 56.1473 267.289 57.0506 277.063C58.7736 295.649 60.1286 314.277 63.0141 332.738C64.3022 340.981 65.2808 349.266 66.4517 357.525C66.8281 360.211 67.2045 362.914 67.8987 365.525C68.526 367.877 68.2667 369.768 66.5103 371.517C65.4062 372.613 64.4946 373.902 63.4909 375.107C59.0329 380.488 54.5749 385.869 50.1252 391.258C49.3976 392.145 48.6615 393.032 48.0259 393.986C44.605 399.091 40.9249 404.02 37.5458 409.166C33.5395 415.258 29.2738 421.183 25.0751 427.141C24.5147 427.936 24.1049 429.384 22.9423 429.024C22.0724 428.757 22.3819 427.359 22.3234 426.464C22.0724 422.614 21.8884 418.756 21.671 414.907C21.328 408.664 20.9768 402.413 20.6338 396.17C20.5167 394.086 20.2993 392.003 20.3495 389.919C20.5335 382.831 20.776 375.743 21.1022 368.655C21.2779 364.906 21.7128 361.174 21.947 357.425C22.1812 353.667 22.5994 349.952 23.3187 346.253C24.4562 340.42 25.5268 334.571 26.6057 328.73C28.0945 320.621 29.8509 312.579 32.0507 304.629C33.0794 300.913 34.2337 297.223 35.1788 293.49C35.8897 290.654 36.5923 287.825 37.5458 285.063C40.1303 277.565 42.606 270.051 44.605 262.369C45.7843 257.833 47.3149 253.381 48.419 248.82C51.1038 237.74 52.7515 226.51 52.9439 215.087C52.9523 214.359 52.9774 213.614 52.8603 212.903C52.5926 211.313 51.2795 210.727 49.8074 211.455C49.0379 211.832 48.3939 212.351 47.892 213.029C47.2146 213.949 46.512 214.87 45.9516 215.866C43.409 220.418 40.8998 224.979 38.4157 229.565C34.1918 237.364 30.2859 245.305 27.0155 253.565C24.6402 259.573 22.0724 265.515 19.6051 271.49C19.0112 272.938 18.4759 274.402 17.949 275.883C15.03 284.193 13.2401 292.754 12.3451 301.499C11.2745 311.876 10.2876 322.252 9.32572 332.646C8.91589 337.106 8.49769 341.583 8.38896 346.06C8.01258 361.592 7.75329 377.132 7.48565 392.664C7.35182 400.388 7.57765 408.095 8.32205 415.786C8.4726 417.342 8.50605 418.907 8.48933 420.472C8.44751 425.476 8.48933 430.489 8.23841 435.485C7.95403 441.468 6.75798 447.267 4.01459 452.673C3.16983 454.347 2.37525 456.046 1.56395 457.745C1.27957 458.347 1.07047 458.966 1.09556 459.619L-0.0168457 460.966L10.2374 464.414C10.2374 464.414 10.2876 464.481 10.321 464.506C10.7309 464.799 11.1658 464.908 11.6091 464.883L12.0607 465.033L12.3117 464.732C12.3117 464.732 12.3702 464.715 12.3953 464.707C13.1815 464.364 13.8005 463.803 14.3357 463.159C16.7864 460.188 19.4043 457.334 21.4702 454.062C22.1393 453.008 22.9339 452.037 23.7118 451.058C24.6904 449.836 25.9951 449.309 27.5508 449.318C29.232 449.318 30.8713 449.61 32.5107 449.887C39.4277 451.058 46.4033 451.426 53.3872 451.058C62.4621 450.573 71.4116 449.058 80.1937 446.707C85.346 445.334 90.5316 444.255 95.8762 443.979C99.3138 443.803 102.751 443.619 106.172 443.326C117.079 442.389 127.986 441.418 138.884 440.405C141.477 440.163 144.061 439.82 146.629 439.384C153.002 438.296 159.275 436.732 165.557 435.217C173.862 433.209 182.159 431.1 190.523 429.359C198.511 427.694 206.289 425.401 213.976 422.723C221.16 420.221 228.312 417.627 235.479 415.066C238.716 413.911 241.987 412.832 245.098 411.334C246.102 410.848 247.08 410.806 248.126 411.099C250.434 411.752 252.768 412.304 255.051 413.024C264.243 415.919 273.711 417.401 283.229 418.606C285.605 418.907 288.005 418.915 290.414 418.773C292.488 418.648 294.579 418.597 296.662 418.639C299.171 418.689 301.664 418.94 303.964 420.079C304.332 420.263 304.725 420.422 305.126 420.514C306.481 420.823 307.61 420.053 307.886 418.664C308.221 417.024 307.594 415.769 305.804 415.409C302.433 414.723 299.64 412.907 296.796 411.183C294.203 409.61 291.568 408.154 288.85 406.831C287.537 406.195 286.249 405.509 284.952 404.84C279.399 401.961 273.887 399.007 268.291 396.22C260.153 392.153 251.496 389.392 242.999 386.245C241.041 385.526 239.051 384.89 237.069 384.27C229.206 381.818 221.261 379.668 213.315 377.484C199.197 373.609 184.877 370.956 170.316 369.559C168.969 369.433 167.614 369.274 166.259 369.266C157.812 369.199 149.389 368.672 140.966 368.061C131.507 367.375 122.039 366.814 112.571 366.186C110.279 366.036 108.004 365.877 105.704 365.927C100.393 366.052 95.0733 365.96 89.7789 366.605C89.2938 366.663 88.6414 366.881 88.4155 366.245C88.2232 365.701 88.7334 365.308 89.0679 364.931C89.62 364.303 90.1803 363.684 90.7742 363.098C95.7591 358.203 100.568 353.148 104.934 347.676C106.365 345.885 107.945 344.194 109.267 342.328C110.714 340.286 112.621 339.324 115.038 339.081C118.768 338.713 122.49 338.211 126.229 337.893C133.347 337.29 140.373 337.851 147.348 339.433C155.495 341.282 163.44 343.801 171.453 346.111C184.677 349.918 197.908 353.676 211.366 356.588C214.929 357.358 218.526 358.01 222.072 358.839C230.294 360.772 238.499 362.755 246.696 364.78C248.82 365.308 250.911 365.986 252.952 366.755C263.875 370.906 274.983 374.504 286.073 378.145C297.557 381.919 309.041 385.718 320.708 388.898C321.21 389.032 321.712 389.216 322.222 389.25C323.109 389.308 323.87 389.007 324.313 388.17C324.782 387.3 324.64 386.262 323.945 385.576C323.728 385.358 323.477 385.157 323.209 385.007C319.027 382.613 315.506 379.333 311.726 376.404C306.03 371.977 299.974 368.111 293.693 364.605C287.503 361.149 281.214 357.885 274.748 354.973C266.577 351.299 258.681 347.014 250.342 343.692C243.852 341.106 237.345 338.579 230.837 336.035C219.738 331.7 208.196 329.709 196.328 329.324C189.143 329.098 181.95 328.939 174.782 328.219C164.603 327.19 154.382 327.173 144.17 327.617C137.822 327.893 131.473 328.261 125.125 328.571C124.673 328.596 124.063 328.813 123.862 327.893C125.702 326.328 127.484 324.545 129.508 323.123C134.802 319.416 140.005 315.583 145.491 312.16C148.486 310.294 151.756 309.29 155.244 309.131C158.681 308.98 162.136 309.056 165.54 309.591C174.723 311.031 183.765 313.081 192.455 316.453C196.537 318.035 200.493 319.918 204.558 321.55C216.744 326.445 228.93 331.349 241.167 336.119C247.775 338.696 254.382 341.257 260.831 344.194C265.197 346.178 269.471 348.337 273.569 350.847C280.319 354.981 287.127 359.031 293.91 363.124C298.996 366.195 304.123 369.191 309.124 372.396C316.761 377.283 324.464 382.061 332.267 386.68C337.554 389.81 342.957 392.756 348.1 396.145C349.832 397.283 351.664 398.338 353.671 398.957C355.302 399.459 356.615 398.279 356.406 396.597C356.289 395.643 355.887 394.798 355.411 393.986C353.002 389.835 350.467 385.76 347.18 382.22C345.834 380.772 344.571 379.241 343.274 377.743C338.08 371.751 332.635 366.002 326.337 361.132C321.051 357.04 315.406 353.5 309.668 350.086C303.127 346.194 296.704 342.127 290.372 337.91C287.077 335.717 283.748 333.575 280.352 331.533C270.073 325.357 259.61 319.516 248.879 314.16C238.892 309.173 228.688 304.654 217.932 301.549C210.103 299.29 202.141 297.549 194.019 296.905C182.594 296.009 171.144 295.131 159.668 296.302C159.183 296.352 158.623 296.528 158.246 296.009C158.213 295.516 158.564 295.265 158.849 294.98C161.073 292.787 163.24 290.52 165.565 288.436C167.581 286.628 169.747 284.997 171.913 283.365C174.146 281.683 176.656 280.787 179.516 281.089C181.482 281.298 183.472 281.34 185.421 281.641C192.656 282.754 199.707 284.62 206.582 287.105C217.472 291.038 228.496 294.545 239.636 297.675C246.269 299.541 252.785 301.691 258.924 304.913C269.287 310.353 279.114 316.637 288.44 323.667C294.437 328.186 300.635 332.403 306.724 336.78C313.239 341.466 319.788 346.094 325.978 351.215C329.106 353.81 332.217 356.437 335.396 358.964C339.31 362.077 343.333 365.057 347.624 367.634C350.217 369.182 352.901 370.588 355.544 372.036C356.824 372.739 358.121 373.408 359.417 374.078C360.379 374.571 361.391 374.714 362.453 374.496C364.184 374.136 364.912 372.73 364.034 371.232C363.565 370.437 362.955 369.693 362.294 369.04C360.069 366.839 357.811 364.688 355.544 362.529C351.772 358.931 348.184 355.157 344.604 351.366C341.459 348.027 338.256 344.747 335.028 341.491C332.602 339.048 330.126 336.663 327.625 334.311C323.452 330.387 319.32 326.403 314.996 322.654C310.989 319.173 306.799 315.901 302.525 312.721C296.67 308.369 290.816 304.026 284.844 299.834C279.123 295.825 273.444 291.775 267.514 288.084C263.081 285.331 258.598 282.645 253.613 281.013C246.185 278.586 238.733 276.168 231.08 274.544C225.267 273.314 219.421 272.235 213.557 271.272C206.147 270.051 198.695 269.189 191.184 268.837C190.414 268.804 189.578 268.904 188.658 268.268C191.51 266.703 194.186 265.323 196.771 263.8C200.493 261.599 204.491 260.812 208.765 261.004C214.728 261.281 220.566 262.343 226.388 263.548C238.775 266.109 250.794 269.942 262.529 274.603C269.011 277.18 275.376 280.076 281.774 282.871C295.533 288.879 309.208 295.064 321.72 303.507C326.471 306.712 331.214 309.926 335.872 313.265C340.197 316.353 344.404 319.608 348.661 322.788C349.079 323.098 349.522 323.374 349.949 323.675C353.437 326.135 356.95 328.571 360.412 331.073C364.21 333.826 367.948 336.654 371.737 339.416C374.179 341.198 376.663 342.922 379.148 344.638C382.66 347.073 386.182 349.483 389.711 351.893C390.481 352.42 391.259 352.981 392.103 353.366C393.726 354.102 394.981 353.266 395.106 351.441C395.131 351.031 395.089 350.604 395.073 350.194C394.972 348.044 394.161 346.161 392.998 344.378C387.21 335.508 380.394 327.499 372.44 320.529C363.975 313.106 355.193 306.068 345.775 299.842C339.854 295.926 333.873 292.151 327.617 288.821C313.156 281.105 298.209 274.478 282.962 268.477C270.332 263.515 257.485 259.239 244.345 255.866C236.868 253.95 229.273 252.578 221.629 251.498C220.7 251.364 219.78 251.197 218.86 251.021C218.559 250.962 218.208 250.778 218.258 250.444C218.291 250.193 218.551 249.916 218.785 249.766C219.312 249.431 219.872 249.138 220.433 248.879C223.736 247.331 227.074 245.874 230.478 244.544C234.76 242.87 239.135 242.385 243.676 242.862C250.426 243.565 257.067 244.845 263.649 246.485C274.188 249.105 284.492 252.435 294.646 256.268C314.862 263.908 334.258 273.356 353.495 283.147C361.299 287.122 369.077 291.122 377.057 294.746C384.843 298.277 392.58 301.909 400.242 305.692C407.067 309.064 413.85 312.495 420.859 315.474C426.153 317.725 431.665 319.29 437.227 320.688C438.13 320.914 439.067 321.081 439.996 321.156C440.815 321.223 441.677 321.232 442.48 321.056C444.487 320.604 445.29 318.696 444.253 316.947C443.943 316.42 443.517 315.926 443.048 315.524C442.103 314.704 441.141 313.892 440.104 313.198C434.994 309.775 429.9 306.336 424.731 303.022C418.508 299.03 412.219 295.131 405.937 291.223C397.791 286.16 389.419 281.465 380.745 277.373C371.035 272.787 361.19 268.494 351.53 263.816C338.097 257.314 324.338 251.582 310.337 246.469C298.193 242.033 285.856 238.159 273.134 235.673C272.724 235.59 272.064 235.732 271.938 234.862C272.498 234.878 273.009 234.887 273.51 234.912C276.739 235.079 279.967 235.263 283.188 235.414C293.283 235.899 303.403 235.874 313.49 236.728C317.229 237.046 320.984 237.121 324.732 237.213C336.608 237.498 348.494 237.707 360.37 238.008C362.972 238.075 365.581 238.268 368.157 238.644C374.146 239.515 380.043 240.828 385.897 242.393C388.816 243.171 391.744 243.95 394.68 244.636C398.033 245.414 401.346 246.326 404.616 247.398C409.969 249.138 415.364 250.736 420.8 252.201C430.16 254.728 439.552 257.13 448.753 260.209C450.626 260.837 452.55 261.348 454.465 261.85C457 262.519 459.584 262.846 462.202 262.77C463.03 262.745 463.883 262.686 464.678 262.469C466.334 262.025 467.061 260.243 466.192 258.737C465.84 258.117 465.313 257.573 464.77 257.105C463.356 255.875 461.867 254.737 460.245 253.766C456.121 251.289 451.747 249.339 447.431 247.247C441.903 244.561 436.466 241.674 430.971 238.92C424.907 235.883 418.684 233.222 412.403 230.669C405.444 227.832 398.477 225.138 391.183 223.213C380.678 220.435 370.039 218.443 359.266 217.121C353.06 216.359 346.871 215.522 340.715 214.368C331.498 212.635 322.247 211.121 312.813 210.937C300.869 210.694 289.059 211.556 277.467 214.56C274.138 215.422 270.884 216.552 267.589 217.531C266.853 217.748 266.125 218.234 265.08 217.824C265.933 216.786 267.003 216.351 267.974 215.807C274.155 212.317 280.553 209.28 287.052 206.434C292.304 204.133 297.482 201.673 302.701 199.296C304.884 198.3 307.067 197.313 309.275 196.376C313.49 194.576 317.731 192.819 321.955 191.045C322.917 190.643 323.87 190.225 324.832 189.823C333.112 186.384 341.409 183.003 349.79 179.815C358.522 176.492 367.421 174.066 376.714 173.103C382.209 172.534 387.712 172.024 393.216 171.563C399.246 171.053 405.235 170.266 411.157 169.003C415.23 168.132 419.311 167.279 423.41 166.484C429.858 165.237 436.341 164.166 442.756 162.793C451.429 160.944 460.111 159.212 468.977 158.609C469.696 158.559 470.432 158.425 471.118 158.208C472.247 157.848 472.933 156.936 472.95 155.931C472.975 154.777 472.264 153.756 471.001 153.412C470.006 153.145 468.952 153.036 467.923 152.91C461.499 152.107 455.034 151.94 448.585 151.597C439.427 151.111 430.243 151.069 421.076 151.12C414.72 151.153 408.363 151.295 402.015 151.638C393.049 152.124 384.208 153.664 375.359 155.12C364.762 156.869 354.34 159.496 343.868 161.831C335.195 163.764 326.906 166.919 318.592 169.999C316.443 170.794 314.302 171.639 312.244 172.635C303.512 176.836 294.797 181.095 286.09 185.346C280.277 188.183 274.64 191.346 269.195 194.844C263.231 198.677 257.41 202.719 251.655 206.861C251.246 207.154 250.878 207.564 250.075 207.447C250.443 206.685 250.71 205.924 251.137 205.28C253.537 201.623 255.762 197.815 258.447 194.376C263.708 187.647 269.044 180.969 275.016 174.819C279.809 169.881 284.576 164.927 289.67 160.3C293.601 156.726 297.44 153.028 301.722 149.873C307.426 145.663 313.164 141.496 318.969 137.429C326.404 132.224 334.342 127.805 342.179 123.253C349.481 119.01 356.841 114.876 363.582 109.746C371.796 103.495 380.335 97.6876 388.072 90.8255C392.597 86.8087 397.13 82.8087 400.735 77.8964C401.287 77.1433 401.923 76.4403 402.207 75.5198C402.533 74.4403 402.425 73.4528 401.571 72.6411C400.819 71.9298 399.899 71.7624 398.962 72.0972C397.983 72.457 397.038 72.9005 396.126 73.4026C389.803 76.8337 383.497 80.2981 377.182 83.7292C370.223 87.5117 363.131 91.0682 356.314 95.1018C341.602 103.805 327.082 112.843 313.03 122.6C301.438 130.651 290.74 139.755 280.871 149.848C278.613 152.157 276.371 154.475 274.188 156.86C269.68 161.772 265.004 166.542 260.647 171.589C252.4 181.137 244.454 190.936 237.453 201.455C234.451 205.966 231.222 210.326 228.278 214.878C223.912 221.615 219.546 228.351 215.749 235.431C214.561 237.64 212.696 238.686 210.413 239.13C210.02 238.653 210.128 238.243 210.237 237.841C211.207 234 212.211 230.167 213.457 226.401C216.108 218.368 219.529 210.644 222.875 202.886C224.774 198.484 226.681 194.074 228.153 189.505C229.658 184.836 231.498 180.292 233.296 175.731C234.066 173.789 234.961 171.915 236.031 170.116C238.056 166.71 240.055 163.287 241.987 159.831C242.965 158.09 244.103 156.484 245.315 154.919C249.966 148.927 255.612 144.023 261.851 139.772C264.519 137.948 267.271 136.249 269.947 134.441C276.68 129.881 283.33 125.178 289.653 120.081C297.523 113.746 305.135 107.077 312.83 100.524C313.699 99.7881 314.486 98.9345 315.197 98.0391C316.292 96.6667 316.376 95.2691 315.481 94.357C314.435 93.2942 313.206 93.4616 312.01 94.0306C310.596 94.7001 309.216 95.4365 307.836 96.1729C304.34 98.0307 300.66 99.5203 297.247 101.562C289.277 106.324 281.105 110.7 272.833 114.918C271.813 115.437 270.775 115.914 269.73 116.383C269.588 116.441 269.287 116.374 269.195 116.257C269.094 116.123 269.103 115.864 269.153 115.68C269.203 115.487 269.32 115.295 269.454 115.136C271.854 112.131 273.644 108.642 276.647 106.115C277.358 105.512 277.893 104.717 278.537 104.031C281.18 101.227 283.781 98.3738 286.491 95.6374C290.891 91.1938 295.357 86.8255 299.79 82.4153C301.639 80.5743 303.445 78.7082 305.31 76.8839C308.806 73.4528 312.344 70.0636 315.832 66.6326C319.922 62.6158 323.995 58.5906 328.035 54.532C330.386 52.1721 332.719 49.7787 334.936 47.285C336.943 45.0255 338.8 42.6322 340.707 40.289C341.434 39.3936 342.104 38.4564 342.354 37.3015C342.806 35.2764 341.217 33.7115 339.251 34.3224L339.285 34.2471ZM198.193 229.305C197.214 233.347 196.637 237.489 195.884 241.582C195.675 242.711 195.475 243.841 195.324 244.971C194.989 247.548 193.509 249.347 191.451 250.745C190.674 251.264 189.846 251.707 189.018 252.151C187.37 253.046 185.73 253.95 184.058 254.787C183.188 255.222 182.301 256.477 181.356 255.691C180.628 255.088 181.44 253.925 181.733 253.08C185.873 241.071 189.829 228.987 194.647 217.221C196.194 213.439 198.31 209.983 200.468 206.543C201.463 204.962 202.517 203.405 203.588 201.865C204.048 201.196 204.424 200.426 205.746 199.748C205.101 202.376 204.608 204.501 204.064 206.61C202.099 214.167 200.025 221.698 198.184 229.288L198.193 229.305ZM229.792 405.501C230.076 405.618 230.361 405.769 230.578 405.978C230.662 406.062 230.612 406.463 230.528 406.505C230.068 406.723 229.583 406.949 229.089 407.024C223.628 407.869 218.183 408.773 212.704 409.493C206.507 410.313 200.284 410.932 194.078 411.719C191.083 412.095 188.089 412.564 185.128 413.158C181.44 413.894 177.709 414.246 173.971 414.639C163.282 415.777 152.559 416.145 141.811 416.028C132.31 415.919 122.842 416.43 113.441 417.786C108.079 418.556 102.76 419.643 97.4236 420.581C90.5484 421.786 83.6313 422.882 76.8983 424.723C63.4323 428.413 49.9245 432.003 36.8516 436.999C35.7977 437.401 34.7188 437.711 33.2551 438.188C33.6482 436.012 34.677 434.782 35.4381 433.434C37.1694 430.338 39.1099 427.384 41.3012 424.581C45.868 418.748 50.8278 413.25 55.5367 407.534C61.9017 399.802 68.2082 392.036 74.523 384.262C75.3092 383.291 75.9783 382.228 76.6474 381.174C77.6093 379.643 78.981 378.831 80.7709 378.739C81.7076 378.697 82.6444 378.63 83.5812 378.697C86.6089 378.923 89.5865 379.383 92.4637 380.387C95.4246 381.408 98.4607 382.145 101.514 382.839C106.289 383.927 111.057 385.049 115.816 386.22C124.941 388.463 134.192 390.019 143.526 391.04C149.322 391.676 155.168 391.902 160.99 392.321C164.319 392.563 167.648 392.781 170.968 393.066C174.807 393.392 178.655 393.718 182.485 394.162C185.898 394.563 189.319 394.99 192.689 395.651C199.13 396.915 205.536 398.388 211.968 399.702C218.133 400.965 223.987 403.116 229.792 405.484V405.501Z" fill="white" fill-opacity="0.3"/>
</g>
<g clip-path="url(#clip1_35_299)">
<path d="M2002.71 12.9801C2003.66 13.7901 2003.87 15.1901 2003.28 16.8301C2002.66 18.5501 2001.87 19.7301 2000.79 20.5401L2000.44 20.8001C1999.37 21.6101 1998.27 22.4401 1997.15 23.1801C1994.34 25.0401 1991.33 26.3901 1987.96 27.8401C1976.41 32.8201 1967.38 37.4601 1959.56 42.4601C1954.16 45.9101 1949.14 48.7601 1944.21 51.1601C1937.86 54.2601 1931.36 58.3701 1923.75 64.1001C1919.29 67.4601 1915.45 71.6901 1912.01 77.0301C1910.97 78.6401 1909.98 80.2701 1908.98 81.9101C1906.34 86.2601 1903.6 90.7501 1900.1 94.5901C1899.28 95.4901 1898.73 96.5801 1898.19 97.6401C1898.02 97.9801 1897.85 98.3101 1897.67 98.6401C1896.8 100.25 1896.76 101.88 1897.55 103.35C1899.17 106.36 1899.92 109.74 1900.65 113.01C1900.98 114.5 1901.32 116.04 1901.74 117.54C1902.6 120.6 1902.62 123.86 1901.81 127.49C1900.81 131.97 1899.47 136.45 1898.17 140.78L1897.44 143.22C1894.82 152.06 1890.52 159.58 1884.67 165.56C1882.15 168.13 1879.35 170.49 1876.95 172.46C1870.16 178.02 1862.73 182.98 1855.55 187.78L1851.79 190.3C1840.54 197.86 1828.09 205.42 1812.58 214.09C1811.45 214.72 1810.29 215.32 1809.13 215.91C1807.07 216.97 1804.93 218.06 1802.97 219.38C1798.21 222.57 1793.76 226.39 1789.73 230.73C1786.6 234.1 1782.98 237.06 1779.49 239.93L1778.98 240.35C1778.4 240.82 1777.68 241.27 1776.83 241.68C1776.05 242.05 1775.34 241.98 1774.71 241.47C1774.07 240.92 1773.95 240.03 1774.37 239.11C1774.77 238.24 1775.29 237.38 1775.92 236.54C1782.08 228.28 1788.26 220.03 1794.45 211.78C1799.06 205.65 1802.01 199.03 1803.24 192.1C1804.77 183.49 1807.29 174.5 1811.18 163.8C1812.65 159.75 1814.4 155.7 1816.36 151.78C1819.84 144.82 1824.36 139.58 1830.17 135.77C1832.3 134.38 1834.29 132.74 1836.23 131.17C1836.98 130.55 1837.74 129.94 1838.5 129.34C1840.71 127.59 1842.88 125.8 1845.06 124.02C1849.82 120.11 1854.75 116.06 1859.92 112.54C1867.63 107.3 1874.69 102.76 1882.93 100.41C1885.05 99.8001 1887.34 99.2301 1889.93 98.6601C1891.19 98.3801 1892.6 97.9601 1893.41 96.3701C1894.52 94.2201 1896.09 92.4501 1897.75 90.5701C1898.22 90.0401 1898.68 89.5201 1899.14 88.9801C1900.91 86.8901 1902.72 84.5601 1903.97 81.6901L1904.37 80.7701L1903.38 80.5701C1902.12 80.3201 1901.28 80.9201 1900.66 81.3501C1900.52 81.4501 1900.39 81.5401 1900.25 81.6301C1890.15 87.7901 1880.73 93.1601 1871.44 98.0301L1869.85 98.8601C1860.59 103.71 1851.02 108.73 1841.73 113.9C1832.99 118.75 1823.58 123.51 1812.97 128.46C1807.82 130.86 1802.69 133.3 1797.56 135.75L1792.82 138.01C1791.8 138.49 1790.79 139 1789.78 139.51C1787.07 140.87 1784.28 142.28 1781.33 143.16C1779.02 143.85 1777.79 145.48 1776.89 146.99C1774.75 150.58 1772.46 154.18 1770.24 157.65L1767.97 161.22C1762.99 169.09 1756.5 174.97 1748.68 178.69C1741.61 182.06 1733.6 185.88 1725.53 189.21C1718.11 192.28 1710.56 194.61 1703.1 196.13C1701.55 196.45 1699.99 196.73 1698.44 197.01C1696.41 197.38 1694.38 197.75 1692.37 198.19C1683.21 200.19 1673.23 200.63 1661.85 199.53C1653.34 198.71 1646.41 198.24 1640.01 198.06L1638.57 198.02C1631.47 197.82 1624.13 197.61 1617.03 196.27C1606.09 194.2 1595.09 193.31 1585.76 192.71C1582.12 192.48 1578.42 192.08 1574.84 191.7L1571.3 191.33C1570.11 191.21 1568.85 191.03 1567.82 190.29C1567.77 190.25 1567.71 190.21 1567.67 190.17C1567.19 189.76 1566.94 189.17 1566.99 188.56C1567.04 187.95 1567.39 187.41 1567.94 187.08C1568.77 186.58 1569.72 186.45 1570.63 186.38C1575.1 186.05 1579.44 184.9 1583.63 183.79L1585.96 183.17C1588.52 182.49 1591.17 181.78 1593.79 181.3C1603.59 179.49 1613.5 175.72 1624.07 169.76C1642.72 159.25 1661.04 152.21 1680.09 148.22C1680.42 148.15 1680.71 148.03 1681.19 147.83C1681.47 147.71 1681.84 147.55 1682.35 147.35L1684.3 146.58L1680.44 145.11C1679.37 144.7 1678.54 144.38 1677.71 144.08C1676.43 143.61 1675.14 143.16 1673.85 142.71C1671.18 141.78 1668.42 140.82 1665.82 139.67C1660.17 137.15 1652.91 133.6 1646.85 128.42C1644.67 126.56 1642.7 124.54 1640.99 122.41C1639.18 120.16 1637.38 117.72 1635.64 115.15C1632.61 110.68 1629.21 106.82 1625.54 103.69C1625.1 103.31 1624.65 102.94 1624.2 102.58C1621.01 100.05 1617.77 97.4701 1614.5 95.0201C1609.66 91.3901 1605.3 88.2701 1601.17 85.4701C1596.81 82.5201 1592.33 79.6001 1588 76.7701C1586.06 75.5001 1584.11 74.2401 1582.18 72.9601C1581.94 72.8101 1581.72 72.6401 1581.51 72.4601C1580.99 72.0201 1580.61 71.5301 1580.35 70.9801C1580.03 70.3101 1580.06 69.5801 1580.42 69.0301C1580.75 68.5401 1581.28 68.2801 1581.92 68.3001C1582.63 68.3301 1583.36 68.5301 1584.14 68.7501L1584.84 68.9401C1585.64 69.1401 1586.43 69.3701 1587.22 69.6001C1588.75 70.0401 1590.33 70.4901 1591.94 70.7801C1596.09 71.5101 1600.49 72.7301 1605.39 74.4801L1607.53 75.2501C1610.34 76.2701 1613.25 77.3201 1616.15 78.2501C1622.74 80.3801 1628.05 82.2201 1632.87 84.0501C1635.86 85.1901 1639.14 86.2501 1642.89 87.2901C1656.08 90.9501 1669.39 92.3301 1682.99 93.5201L1685.47 93.7401C1690.59 94.1801 1695.88 94.6401 1701.04 95.3901C1710.55 96.7801 1718.14 98.8201 1724.91 101.82C1727.98 103.18 1730.53 104.74 1732.72 106.6C1734.22 107.88 1735.55 109.32 1736.68 110.88C1736.98 111.3 1737.31 111.69 1737.65 112.08C1737.91 112.39 1738.17 112.69 1738.41 113.01C1741.33 116.86 1744.35 120.09 1747.63 122.89C1747.94 123.15 1748.24 123.41 1748.55 123.66C1750 124.85 1751.44 126.06 1752.87 127.28L1756.17 130.11C1757.21 131 1758.26 131.89 1759.32 132.77C1760.71 133.93 1762.21 135.03 1763.78 136.06C1768.33 139.03 1768.7 139.07 1773.72 137.03L1774.03 136.9C1780.44 134.3 1786.75 131.25 1792.85 128.31C1796.56 126.52 1800.39 124.67 1804.2 122.94C1809.58 120.5 1815.12 117.53 1821.11 113.85C1826.18 110.74 1831.65 108.13 1837.36 106.09C1844.51 103.53 1851.61 100.19 1858.46 96.1701C1858.78 95.9801 1859.17 95.8101 1859.55 95.6401C1860.79 95.1001 1862.32 94.4201 1862.33 92.8801C1862.33 92.0801 1862.04 91.4201 1861.46 90.9201C1860.76 90.3201 1859.78 90.0801 1858.91 89.8701C1858.57 89.7901 1858.24 89.7001 1857.94 89.6001L1855.57 88.7701C1850.13 86.8401 1844.5 84.8501 1838.55 84.2101C1837.99 84.1501 1837.5 84.0001 1837.16 83.8001C1835.02 82.5001 1833.08 83.1701 1831.62 83.9001C1831.05 84.1801 1830.47 84.4601 1829.9 84.7301L1828.76 85.2801C1821.48 88.8101 1814.06 89.9301 1806.71 88.6201C1798.98 87.2401 1790.69 85.5901 1782.47 82.9401C1779.5 81.9801 1776.53 81.0101 1773.56 80.0301C1771.05 79.2101 1768.55 78.3801 1766.04 77.5701C1761.31 76.0401 1756.16 74.6801 1750.57 75.0901C1740.84 75.8101 1731.04 73.8301 1721.45 69.2001C1714.57 65.8801 1707.93 61.8901 1701.72 58.0901C1696.93 55.1601 1691.85 51.9301 1685.24 47.6201C1682.98 46.1401 1680.74 44.6301 1678.51 43.1101C1675.53 41.0901 1672.45 38.9901 1669.34 37.0401C1662.67 32.8401 1654.89 27.7101 1647.72 21.6001C1647.23 21.1801 1646.75 20.7701 1646.27 20.3401C1644.95 19.1801 1643.62 18.0301 1642.29 16.8901C1638.19 13.3701 1633.95 9.72008 1630.31 5.61008L1629.89 5.14008C1629.22 4.40008 1628.59 3.70008 1628.1 2.92008C1627.56 2.07008 1627.71 1.01008 1628.19 0.550085C1628.94 -0.169915 1629.74 -0.0499154 1630.28 0.180085C1631.78 0.800085 1633.08 1.44008 1634.25 2.13008L1635.81 3.04008C1638.51 4.61008 1641.3 6.24008 1643.93 8.00008C1648.85 11.3001 1654.49 12.8101 1661.68 12.7501C1668.34 12.7001 1675.47 12.7501 1682.5 13.4201C1686.9 13.8401 1691.25 13.9301 1695.29 13.9601C1698.99 13.9901 1702.75 13.9401 1706.39 13.8901C1708.76 13.8601 1711.12 13.8301 1713.49 13.8201C1719 13.8001 1723.85 14.1501 1728.3 14.9001C1736.23 16.2401 1744.16 18.7801 1751.84 22.4401C1760.7 26.6601 1769.95 29.6001 1780.14 31.4101C1786.14 32.4801 1791.87 34.6801 1797.17 37.9501C1799.92 39.6501 1802.62 41.5501 1805.22 43.3901C1807.11 44.7301 1809.07 46.1101 1811.04 47.4101C1812.5 48.3701 1813.93 49.4501 1815.29 50.6101C1818.62 53.4501 1821.72 56.9601 1824.79 61.3301C1827.56 65.2801 1830.35 69.6401 1831.97 74.6901C1832.3 75.7201 1832.8 76.5201 1833.5 77.1101C1834.09 77.6101 1834.8 77.9601 1835.68 78.1701C1838.31 78.8001 1840.97 79.5301 1843.54 80.2301L1844.45 80.4801C1853.85 83.0401 1863.56 83.2101 1872.96 83.3601C1874.51 83.3901 1876.07 83.4101 1877.62 83.4501C1880.37 83.5201 1882.91 82.7801 1885.37 81.1901C1888.13 79.4201 1890.91 77.6601 1893.68 75.9101C1897.57 73.4501 1901.46 70.9901 1905.32 68.4701C1908.33 66.5101 1911.42 64.0701 1915.06 60.8001C1923.65 53.0701 1932.43 47.4601 1941.9 43.6701C1946.28 41.9101 1950.57 39.4301 1954.65 36.2801C1963.48 29.4701 1972.82 23.9201 1983.23 17.8801C1987.48 15.4201 1992.41 13.6401 1998.32 12.4501C1998.85 12.3401 1999.42 12.2401 1999.99 12.2201C2001.13 12.1801 2002.08 12.4501 2002.71 13.0001V12.9801ZM1805.16 205.48C1806.15 205.45 1806.68 204.75 1807.02 204.3L1808.47 202.47C1810.16 200.33 1811.91 198.12 1813.56 195.89C1815.76 192.92 1817.93 189.93 1820.09 186.95C1821.66 184.79 1823.22 182.63 1824.8 180.48C1825.53 179.48 1826.28 178.5 1827.03 177.52C1828.1 176.12 1829.22 174.67 1830.25 173.19C1830.99 172.12 1831.92 171.24 1832.9 170.31C1833.56 169.68 1834.25 169.03 1834.87 168.32C1837.64 165.17 1840.66 162.15 1844.13 159.09C1846.76 156.77 1849.91 154.11 1853.34 151.91C1857.66 149.15 1861.62 145.69 1865.45 141.34C1870.68 135.39 1876.04 128.55 1882.31 119.81C1885.95 114.73 1888.37 109.88 1889.72 104.98C1889.85 104.49 1890.21 103.2 1889.39 102.49C1888.76 101.96 1887.87 102.12 1887.25 102.3C1882.55 103.6 1877.98 105.5 1873.67 107.94C1864.95 112.89 1857.13 118.96 1851.29 123.7C1849.34 125.28 1847.4 126.89 1845.47 128.49C1840.62 132.51 1835.6 136.68 1830.39 140.41C1825.84 143.67 1822.16 148.44 1819.13 154.98C1814.47 165.05 1810.86 176.1 1808.08 188.78L1807.62 190.91C1806.75 194.99 1805.85 199.21 1804.27 203.13C1804.12 203.51 1803.71 204.51 1804.6 205.28L1804.84 205.49H1805.16V205.48ZM1811.43 209.96C1811.72 209.84 1811.97 209.75 1812.17 209.66C1812.6 209.49 1812.9 209.37 1813.18 209.21C1826.24 201.67 1837.96 194.79 1849.26 187.05C1850.95 185.89 1852.66 184.74 1854.36 183.59C1860.97 179.12 1867.81 174.49 1874.1 169.31C1876.54 167.3 1879.38 164.9 1881.95 162.29C1886.6 157.58 1890.12 151.63 1892.69 144.11C1894.83 137.88 1896.43 132.27 1897.57 126.97C1898.26 123.78 1898.24 120.86 1897.52 118.05C1897.15 116.63 1896.8 115.22 1896.44 113.8C1896.1 112.43 1895.75 111.07 1895.4 109.7L1895.34 109.45L1895.09 109.21C1894.98 109.12 1894.87 109.06 1894.78 109.01L1894.38 108.73L1893.85 108.9C1891.64 110.05 1890.48 112 1889.72 113.57C1886.87 119.47 1883.43 124.99 1879.5 129.98C1878 131.88 1876.6 133.89 1875.25 135.83C1873.79 137.92 1872.28 140.08 1870.66 142.09C1866.18 147.65 1862.32 151.4 1858.16 154.23C1851.32 158.89 1845.42 164.67 1840.21 169.76C1835.07 174.79 1830.8 180.59 1826.67 186.2C1825.3 188.07 1823.92 189.93 1822.51 191.78C1819.6 195.6 1816.73 199.46 1813.87 203.32L1811.89 205.99C1811.79 206.12 1811.68 206.25 1811.57 206.38C1811.08 206.94 1810.41 207.71 1810.31 209.15L1810.21 210.47L1811.43 209.96V209.96ZM1660.47 19.4701C1660.78 19.7301 1661.13 19.8701 1661.42 19.9701C1661.52 20.0101 1661.62 20.0401 1661.71 20.0901C1669.56 23.9501 1676.89 26.9401 1684.12 29.2301C1688.02 30.4701 1691.92 31.7201 1695.82 32.9701C1698.85 33.9401 1701.88 34.9101 1704.92 35.8801C1709.19 37.2401 1713.24 37.7901 1717.29 37.5601C1723.99 37.1801 1731.04 37.8901 1738.25 39.6701C1745.71 41.5201 1752.02 42.5601 1758.1 42.9601C1770.98 43.8001 1783.46 48.2601 1796.26 56.5801C1800.14 59.1001 1803.96 61.8801 1807.65 64.5601C1809.04 65.5701 1810.43 66.5701 1811.82 67.5701C1816.15 70.6701 1819.93 73.0401 1824.3 74.5001L1824.61 74.6101C1825.25 74.8501 1826.13 75.1801 1827.08 74.6301L1827.29 74.5101L1827.4 74.2901C1827.92 73.2501 1827.43 72.3801 1827.1 71.8101C1824.07 66.5101 1819.8 59.7401 1813.53 54.3901C1812.97 53.9101 1812.4 53.4401 1811.8 52.9901C1809.09 50.9101 1806.22 48.9801 1803.44 47.1101L1802.07 46.1901C1800.69 45.2601 1799.27 44.3701 1797.86 43.4801C1796.83 42.8401 1795.81 42.1901 1794.79 41.5301C1790.9 39.0001 1786.39 37.2601 1780.17 35.9001C1778.83 35.6101 1777.5 35.3301 1776.16 35.0501C1773.69 34.5401 1771.13 34.0001 1768.64 33.3901C1763.83 32.1901 1758.73 30.3101 1752.59 27.4801C1743.03 23.0601 1735.41 20.5001 1727.88 19.1901C1722.23 18.2101 1716.6 18.1201 1712.33 18.1601C1710.61 18.1801 1708.89 18.1801 1707.16 18.1801C1704.48 18.1801 1701.8 18.1801 1699.13 18.2301C1692.4 18.3601 1685.76 17.9301 1677.88 17.2301C1671.62 16.6801 1665.34 16.8101 1660.56 16.9801L1659.8 17.0101L1659.78 17.7701C1659.75 18.5001 1659.98 19.0801 1660.45 19.4801L1660.47 19.4701ZM1658.08 24.9201C1659.32 25.9801 1660.53 26.8901 1661.78 27.6901C1664.31 29.3201 1666.86 30.9301 1669.4 32.5401C1673.13 34.9001 1676.85 37.2701 1680.55 39.6701C1682.73 41.0901 1684.88 42.5501 1687.04 44.0101C1689.73 45.8401 1692.52 47.7301 1695.32 49.5001C1705.46 55.9101 1713.95 60.8901 1722.04 65.1701C1728.05 68.3501 1734.82 70.3201 1742.74 71.1901C1745.8 71.5301 1748.93 71.3601 1751.96 71.1901C1755.77 70.9801 1759.66 71.5601 1764.2 73.0001C1767.61 74.0801 1771.01 75.1901 1774.41 76.2901C1777.36 77.2501 1780.3 78.2001 1783.25 79.1501C1790.17 81.3601 1797.74 83.1201 1806.39 84.5201C1808.13 84.8001 1809.98 85.0101 1811.89 85.1301C1816.68 85.4501 1821.28 84.2201 1826.35 81.2801L1827.64 80.5301L1826.31 79.8501C1825.85 79.6201 1825.49 79.4201 1825.2 79.2601C1824.66 78.9701 1824.3 78.7701 1823.88 78.6301C1817.34 76.4201 1811.71 72.3101 1806.28 68.3401L1804.46 67.0101C1797.89 62.2101 1791.09 57.2501 1783.45 53.7101C1774.16 49.4001 1765.04 47.0701 1755.58 46.5701C1750.11 46.2801 1744.87 45.1901 1740.47 44.1601C1736.82 43.3101 1733.2 42.5901 1729.72 42.0101C1725.51 41.3201 1721.74 41.1501 1718.18 41.4801C1714.44 41.8301 1710.9 41.5201 1707.67 40.5401L1705.45 39.8701C1693.77 36.3601 1681.7 32.7401 1670.34 27.7701C1668 26.7501 1665.67 25.5901 1663.41 24.4801C1662.45 24.0101 1661.49 23.5301 1660.53 23.0601C1660.37 22.9801 1660.21 22.9001 1660.06 22.8201C1659.24 22.3901 1658.31 21.9001 1656.86 21.8701L1654.75 21.8301L1656.28 23.2801C1656.89 23.8601 1657.49 24.4001 1658.08 24.9101V24.9201ZM1744.48 125.57C1741.76 123.25 1739.12 120.53 1735.9 116.75C1735.54 116.33 1735.16 115.87 1734.85 115.39C1733.59 113.44 1732.05 111.69 1730.27 110.17C1727.11 107.47 1723.16 105.43 1717.85 103.76C1708.64 100.87 1698.63 99.0901 1687.27 98.3101C1672.26 97.2901 1652.62 95.3301 1633.78 89.2601C1633.41 89.1401 1633.08 89.2101 1632.78 89.2601C1632.67 89.2801 1632.56 89.3001 1632.43 89.3101L1630.91 89.4701L1631.89 90.6401C1632.06 90.8401 1632.24 91.0201 1632.43 91.1801C1633.22 91.8601 1634.15 92.1801 1634.97 92.4701C1635.25 92.5701 1635.52 92.6601 1635.78 92.7701C1640.81 94.8401 1645.11 97.4301 1648.95 100.7C1649.68 101.32 1650.4 101.98 1651.09 102.65C1652.32 103.84 1653.63 104.96 1654.9 106.05C1655.92 106.92 1656.93 107.79 1657.91 108.69C1658.15 108.91 1658.39 109.13 1658.63 109.33C1661.89 112.11 1665.85 113.94 1670.42 114.77C1672.51 115.15 1674.6 115.51 1676.69 115.86C1679.23 116.29 1681.78 116.73 1684.31 117.2C1693.87 118.99 1701.68 120.97 1708.87 123.42C1722.46 128.05 1736.26 132.2 1749.87 135.75C1751.09 136.07 1752.32 136.35 1753.51 136.63L1755.53 137.1L1755.85 136.74C1756.26 136.29 1756.45 135.84 1756.42 135.39C1756.38 134.78 1755.95 134.41 1755.81 134.29L1755.59 134.11C1754.97 133.6 1754.46 133.18 1753.96 132.75C1752.5 131.51 1750.99 130.24 1749.34 129.17C1747.68 128.1 1746.08 126.9 1744.46 125.52L1744.48 125.57ZM1604.12 189.18C1616.3 192.25 1629.03 193.84 1643.05 194.05C1648.96 194.14 1654.95 194.73 1660.74 195.31L1661.56 195.39C1668.15 196.05 1675.21 196.52 1682.17 195.59C1694.1 193.98 1703.62 192.05 1712.11 189.52C1723.98 185.98 1735.2 180.47 1746.06 175.15L1748.15 174.13C1751.88 172.31 1755.19 169.7 1757.99 166.38C1758.62 165.64 1759.26 164.9 1759.89 164.17C1762.92 160.68 1766.06 157.06 1768.21 152.46L1768.82 151.16L1767.39 151.31C1765.9 151.47 1764.96 152.26 1764.21 152.9L1763.94 153.13C1758.69 157.48 1752.51 161.49 1745.05 165.39C1741.68 167.15 1739.01 168.23 1736.39 168.9C1730.57 170.4 1724.65 172.59 1718.79 175.42C1713.81 177.82 1708.18 179.24 1701.57 179.77C1692.96 180.45 1685.26 180.71 1678.04 180.58C1675.71 180.54 1673.36 180.74 1671.08 180.94C1671.08 180.94 1663.82 181.53 1660.83 181.77C1652.32 182.45 1643.52 183.14 1634.89 184C1627.79 184.71 1620.6 185.6 1613.64 186.46C1610.5 186.85 1607.36 187.24 1604.22 187.61L1604.12 189.21V189.18ZM1648.92 124.71C1652.02 127.36 1655.41 129.54 1659.55 132C1664.25 134.79 1669.39 136.74 1674.26 138.43C1676.57 139.23 1678.89 140.05 1681.2 140.86C1686.24 142.63 1691.46 144.46 1696.62 146.18C1701.78 147.89 1707.33 149.18 1713.14 149.99C1722.87 151.36 1732.62 150.08 1740.99 148.78C1744.42 148.25 1747.84 147.39 1751.15 146.56C1752.51 146.22 1753.87 145.88 1755.24 145.56C1755.76 145.44 1756.27 145.25 1756.77 145.06C1756.98 144.98 1757.19 144.9 1757.4 144.83L1758.01 144.62L1757.94 143.98C1757.87 143.35 1757.63 142.85 1757.23 142.51C1756.8 142.14 1756.27 142.04 1755.89 141.96L1755.62 141.9C1738.49 137.5 1723.53 133.09 1709.89 128.4C1697.7 124.21 1685.62 121.29 1673.98 119.72C1666.33 118.68 1659.69 115.69 1653.7 110.57C1652.14 109.24 1650.6 107.74 1649.13 106.11C1648.08 104.95 1646.95 103.85 1645.78 102.85C1643.11 100.57 1640.18 98.7301 1636.81 97.2201C1633.24 95.6201 1629.67 94.0001 1626.11 92.3801C1623.6 91.2401 1621.1 90.1001 1618.59 88.9701C1618.11 88.7501 1617.61 88.5801 1617.1 88.4001L1615.79 87.9301L1614.91 89.5001L1615.42 89.9301C1616.31 90.6901 1617.18 91.4701 1618.05 92.2601C1618.93 93.0501 1619.82 93.8501 1620.71 94.6101C1621.99 95.7001 1623.08 96.5501 1624.15 97.2901C1625.41 98.1701 1626.66 99.1301 1627.86 100.16C1631.58 103.34 1635.03 107.22 1638.72 112.37L1640.12 114.34C1641.15 115.78 1642.18 117.23 1643.23 118.65C1644.81 120.8 1646.68 122.79 1648.93 124.71H1648.92ZM1614.98 181.83C1615.07 181.9 1615.33 182.13 1615.72 182.15C1616.49 182.18 1617.32 182.19 1618.15 182.05C1624.59 180.95 1631.21 180.35 1637.61 179.76C1640.99 179.45 1644.49 179.13 1647.93 178.74C1664.44 176.87 1677.14 176.03 1689.11 176.01C1694.39 176.01 1699.82 175.46 1704.61 174.98C1709.18 174.52 1713.52 173.26 1717.5 171.23C1721.69 169.09 1726.37 167.38 1732.69 165.67C1743.14 162.84 1751.78 157 1758.84 151.66C1759.15 151.43 1759.3 151.1 1759.41 150.86C1759.44 150.79 1759.47 150.73 1759.51 150.67L1759.91 149.98L1759.23 149.57C1758.19 148.94 1757.24 149.29 1756.54 149.55C1756.37 149.61 1756.19 149.68 1756.02 149.73C1746.38 152.32 1737.51 153.88 1728.9 154.5C1721.17 155.05 1714 154.58 1706.98 153.05C1699.71 151.47 1692.19 150.88 1684.63 151.28C1679.78 151.54 1674.77 152.58 1668.89 154.55C1651.37 160.41 1635.07 167.85 1620.42 176.67C1619.13 177.45 1617.81 178.17 1616.46 178.9C1615.82 179.25 1615.18 179.6 1614.53 179.95L1613.51 180.52L1614.4 181.28C1614.54 181.4 1614.64 181.5 1614.74 181.6C1614.84 181.7 1614.92 181.78 1615 181.85L1614.98 181.83Z" fill="white"/>
</g>
<g clip-path="url(#clip2_35_299)">
<path opacity="0.1" d="M1618.84 458.618C1572.77 472.756 1531.83 500.88 1497.75 534.941C1466.76 565.915 1440.77 602.308 1424.46 642.976C1415.66 664.917 1409.67 688.707 1412.88 712.124C1416.1 735.541 1429.96 758.483 1451.75 767.659C1476.99 778.278 1505.64 768.898 1531.8 760.773C1557.95 752.656 1588.44 746.431 1611.06 761.867C1630.21 774.936 1639.25 801.101 1660.92 809.362C1671.65 813.459 1683.72 812.254 1694.83 809.328C1714.26 804.205 1731.91 794.028 1747.26 781.204C1808.96 729.655 1834.52 650.007 1826.6 571.224C1823.59 541.209 1814.83 510.32 1793.71 488.777C1784.13 479.007 1772.37 471.56 1759.98 465.725C1716.39 445.175 1664.92 444.479 1618.85 458.618H1618.84ZM1702.78 464.325C1724.95 463.689 1747.75 468.261 1766.2 480.491C1798.66 502.008 1812.22 542.888 1816.24 581.478C1818.05 598.949 1819.57 612.528 1818.39 630.05C1817.29 646.351 1815.08 663.916 1807.39 683.864C1805.52 688.707 1803.32 694.474 1800.84 699.046C1797.25 705.636 1793.76 712.183 1789.62 718.468C1781.56 730.689 1772.09 741.995 1761.47 752.105C1749.5 763.504 1736.05 773.376 1721.52 781.314C1710.21 787.489 1697.91 792.603 1685.02 792.84C1672.13 793.078 1658.53 787.616 1651.87 776.641C1647.54 769.5 1646.5 760.866 1643.01 753.284C1632.71 730.927 1603.62 723.192 1579.22 727.17C1554.81 731.139 1532.77 743.708 1509.24 751.265C1485.71 758.822 1457.54 760.484 1438.48 744.828C1427.43 735.753 1421.05 721.894 1419.07 707.79C1417.09 693.677 1419.18 679.276 1422.79 665.494C1435.39 617.515 1466.46 575.549 1505.24 544.364C1544.01 513.178 1590.21 492.144 1637.75 477.183C1658.89 470.525 1680.62 464.979 1702.78 464.334V464.325Z" fill="#00A199"/>
<path opacity="0.1" d="M1641.47 497.437C1598.57 504.714 1556.63 519.743 1520.81 544.432C1484.99 569.121 1455.52 603.784 1440.18 644.477C1436.23 654.969 1433.18 666.037 1433.63 677.241C1434.08 688.444 1438.41 699.877 1447.07 706.993C1458.37 716.263 1474.91 716.585 1488.75 711.887C1502.58 707.188 1514.47 698.223 1526.54 689.996C1545.11 677.325 1565.14 665.901 1587.21 661.61C1609.29 657.318 1633.86 661.067 1650.77 675.884C1667.77 690.768 1674.51 713.88 1680.4 735.685C1682.22 742.402 1684.19 749.416 1688.97 754.463C1698.12 764.115 1713.8 763.037 1726.5 759.111C1742.48 754.166 1757.31 745.71 1769.9 734.718C1792.57 714.931 1804.39 687.868 1811.21 659.082C1818.54 628.083 1814.92 594.404 1800.23 566.042C1780.16 527.3 1740.04 499.659 1696.67 494.714C1678.3 492.619 1659.68 494.35 1641.45 497.445L1641.47 497.437ZM1682.9 504.408C1696.41 510.15 1707.24 522.151 1721.69 524.713C1729.77 526.138 1738.12 524.407 1746.23 525.62C1757.4 527.283 1767.05 534.364 1774.81 542.566C1784.41 552.701 1793.87 564.431 1799.29 577.288C1818.83 623.562 1810.49 678.462 1780.54 718.782C1764.75 740.019 1737.23 754.488 1710.76 755.099C1703.94 755.26 1696.48 754.344 1691.67 749.518C1687.82 745.659 1686.41 740.062 1685.16 734.752C1680.11 713.184 1674.53 690.514 1659.32 674.416C1643.12 657.276 1617.96 650.516 1594.48 652.823C1571 655.13 1549.01 665.545 1529.27 678.462C1519.81 684.653 1510.69 691.472 1500.54 696.451C1490.39 701.429 1478.89 704.499 1467.74 702.574C1456.6 700.649 1446.04 692.931 1443.03 682.041C1440.84 674.111 1439.32 665.485 1441.12 657.454C1442.91 649.422 1446.72 642.001 1450.81 634.851C1460.01 618.72 1470.83 603.368 1484.37 590.663C1497.91 577.958 1514.31 567.967 1532.36 563.599C1542.84 561.064 1553.84 560.411 1563.79 556.255C1579.14 549.843 1589.91 536.052 1602.71 525.417C1617.12 513.433 1634.66 505.231 1653.1 501.847C1662.79 500.066 1673.84 500.592 1682.9 504.451V504.408Z" fill="#969696"/>
</g>
<g clip-path="url(#clip3_35_299)">
<path opacity="0.2" fill-rule="evenodd" clip-rule="evenodd" d="M253.253 737.991C257.745 746.67 264.772 754.479 275.103 762.296C298.105 779.693 322.61 786.147 352.146 786.963C406.624 788.484 453.917 735.784 478.301 699.061C489.477 682.23 497.515 663.572 494.285 649.764C458.4 635.372 419.869 632.841 380.94 630.272C367.61 629.391 350.689 626.303 340.794 629.224C312.836 637.496 276.978 663.387 262.916 683.992C254.107 696.901 257.253 715.475 249.132 728.504C244.76 735.515 233.101 743.36 225.573 751.585C219.521 758.179 205.505 767.916 213.321 776.28C226.371 768.398 238.949 745.567 253.262 737.981L253.253 737.991ZM312.372 753.097C297.956 742.136 277.368 734.402 275.864 718.934C280.431 716.124 284.998 713.314 289.565 710.505C312.474 748.21 341.741 759.227 369.578 776.243C351.014 787.204 331.966 767.971 312.372 753.097V753.097ZM342.27 757.01C322.136 742.878 303.683 733.094 293.297 708.214C299.191 705.794 305.141 703.132 310.543 702.761C340.079 732.019 372.14 750.593 404.359 768.583C381.859 783.819 362.848 771.467 342.279 757.019L342.27 757.01ZM405.018 761.304C377.932 757.363 337.155 720.983 315.518 699.692C322.136 698.7 329.284 695.463 336.023 693.942C366.237 718.851 399.486 730.961 432.419 744.454C424.511 753.162 417.131 763.066 405.018 761.304V761.304ZM439.882 739.855C405.528 732.39 373.653 714.436 343.012 691.355C350.178 689.51 357.344 687.72 364.278 686.858C392.125 705.349 421.976 715.382 451.763 725.694C446.556 730.118 442.537 734.828 439.882 739.864V739.855ZM372.038 685.504C405.092 689.528 436.253 701.509 470.532 700.406C450.51 739.984 398.604 697.717 372.038 685.504V685.504ZM393.118 686.264C421.039 674.663 453.388 683.121 481.643 684.994C466.141 710.449 414.69 687.377 393.118 686.264V686.264ZM435.659 677.251C449.693 669.711 472.398 670.064 487.871 658.862C492.726 688.898 451.967 678.308 435.659 677.251ZM484.038 652.639C470.458 663.164 450 664.899 433.839 671.51C443.177 658.101 468.546 649.31 481.736 648.911C482.506 650.154 483.267 651.397 484.038 652.648V652.639ZM468.898 644.794C442.045 656.664 414.718 682.833 388.523 678.79C402.131 652.222 447.039 637.338 468.898 644.794ZM430.479 640.973C406.039 645.61 388.133 677.121 365.726 680.802C379.557 659.427 404.461 638.961 430.479 640.973V640.973ZM406.624 638.488C393.294 650.414 367.137 664.073 360.454 680.617C355.543 681.924 350.522 683.64 345.704 684.549C356.778 668.061 383.576 635.465 406.624 638.497V638.488ZM384.782 636.485C359.498 653.937 347.189 683.065 320.224 693.358C325.887 674.654 360.472 632.052 384.782 636.485ZM360.927 634C354.355 647.437 342.056 652.203 331.428 664.157C318.758 678.41 317.978 697.003 295.988 701.398C296.304 674.802 329.85 636.68 360.927 634V634ZM320.688 646.741C304.751 664.908 289.593 683.241 287.746 704.755C283.318 706.999 279.373 707.175 274.518 711.172C274.082 685.94 292.6 665.205 320.679 646.741H320.688ZM281.898 675.748C266.814 689.157 280.682 709.438 258.34 721.123C260.799 705.367 264.159 684.345 281.898 675.748V675.748ZM257.476 733.66C260.864 729.506 265.422 725.639 270.889 721.976C290.92 749.471 315.425 758.151 337.489 777.087C308.492 772.385 280.348 764.114 257.476 733.66V733.66Z" fill="#80CCB3"/>
</g>
<g clip-path="url(#clip4_35_299)">
<path opacity="0.1" d="M680.11 1420.54C617.05 1394.46 556.35 1361.32 504.6 1316.84C452.85 1272.36 410.24 1216.01 387.86 1151.55C378.31 1124.05 372.51 1095.37 363.36 1067.73C354.63 1041.34 342.86 1015.96 328.36 992.24C317.29 974.13 304.38 956.73 287.4 943.98C266.72 928.43 240.4 920.57 214.57 922.22C196.69 923.36 178.01 929.74 167.37 944.15C156.3 959.14 156.12 979.27 150.33 996.98C142.48 1021.01 124.41 1040.16 112.22 1062.31C84.5301 1112.64 89.0801 1174.62 103.31 1230.28C120.82 1298.79 151.88 1363.81 194.16 1420.48C199.98 1420.48 203.67 1421.53 209.5 1421.53C148.51 1338.09 97.2501 1239.47 103.36 1136.3C104.51 1116.98 108.05 1096.78 120.26 1081.77C130.11 1069.67 144.67 1062.13 154.6 1050.09C167.64 1034.28 171.07 1012.95 176 993.05C180.93 973.15 189.27 951.96 207.36 942.31C221.21 934.93 238.48 936.03 252.83 942.36C267.19 948.69 279 959.69 289.18 971.63C322 1010.1 340.03 1058.95 353.18 1107.77C359.39 1130.82 364.7 1154.25 374.08 1176.21C383.63 1198.59 397.22 1219.01 411.69 1238.57C432.76 1267.07 455.92 1294.13 482.1 1318.01C531.72 1363.27 591.36 1396.35 653.12 1422.74C661.88 1426.48 671.16 1423.82 680.1 1420.53L680.11 1420.54Z" fill="#00A199"/>
<path opacity="0.1" d="M607.81 1422.09C530.67 1392.93 459.41 1348.34 399.45 1291.72C353.05 1247.9 313.63 1197.25 268.86 1151.76C254.37 1137.03 238.89 1122.57 219.94 1114.35C199.28 1105.39 171.26 1106.56 158.71 1125.26C151.94 1135.36 151.17 1148.22 151.14 1160.37C150.89 1252.04 180.84 1343.55 235.24 1417.33C238.07 1417.68 239.11 1418.04 241.95 1418.39C215.46 1372.06 194.46 1322.59 179.52 1271.36C175.21 1256.56 171.37 1241.31 172.4 1225.93C172.85 1219.23 174.71 1211.85 180.39 1208.26C184.29 1205.8 189.18 1205.67 193.57 1204.23C201.63 1201.59 207.87 1194.1 209.01 1185.69C210.34 1175.89 205.28 1166.52 202.61 1157C199.94 1147.48 200.89 1135.03 209.77 1130.66C217.9 1126.66 227.41 1131.91 234.67 1137.32C275.49 1167.73 307.09 1209.06 332.7 1253.06C341.71 1268.55 350.1 1284.51 361.19 1298.59C385.39 1329.34 420.81 1349.11 456.64 1364.85C492.46 1380.59 529.89 1393.24 563.3 1413.6C577.36 1422.17 594.2 1431.33 607.82 1422.07L607.81 1422.09Z" fill="#969696"/>
</g>
<g clip-path="url(#clip5_35_299)">
<path opacity="0.1" d="M1659.64 1028.72C1625.66 1032.6 1594.21 1054.28 1578.48 1084.65C1566.97 1106.89 1564.14 1133.3 1569.88 1157.61C1575.22 1180.18 1584.48 1201.4 1602.25 1216.92C1612.12 1225.54 1623.74 1232.17 1636.26 1236.04C1646.22 1239.12 1658.5 1239.97 1665.67 1232.4C1669.42 1228.44 1670.97 1222.94 1672.39 1217.67C1677.01 1200.57 1682.29 1182.45 1695.62 1170.78C1708.88 1159.16 1728.13 1156.22 1745.43 1159.59C1762.73 1162.96 1778.43 1171.91 1792.98 1181.85C1802.44 1188.31 1811.76 1195.33 1822.6 1199.02C1833.44 1202.7 1846.41 1202.45 1855.26 1195.18C1862.05 1189.6 1865.44 1180.64 1865.8 1171.85C1866.15 1163.07 1863.77 1154.39 1860.67 1146.16C1848.65 1114.25 1825.56 1087.07 1797.49 1067.71C1769.42 1048.35 1736.55 1036.57 1702.93 1030.86C1688.63 1028.44 1674.04 1027.08 1659.64 1028.72ZM1693.79 1034.28C1708.24 1036.94 1721.99 1043.37 1733.28 1052.76C1743.31 1061.1 1751.74 1071.91 1763.78 1076.94C1771.57 1080.2 1780.2 1080.72 1788.41 1082.7C1802.56 1086.12 1815.41 1093.96 1826.02 1103.92C1836.63 1113.88 1845.12 1125.92 1852.33 1138.57C1855.52 1144.18 1858.51 1150 1859.92 1156.29C1861.33 1162.59 1860.13 1169.35 1858.42 1175.57C1856.06 1184.11 1847.78 1190.16 1839.05 1191.67C1830.32 1193.18 1821.3 1190.77 1813.34 1186.87C1805.38 1182.97 1798.24 1177.62 1790.83 1172.77C1775.36 1162.64 1758.12 1154.47 1739.72 1152.67C1721.32 1150.86 1701.61 1156.16 1688.91 1169.6C1676.98 1182.23 1672.62 1200 1668.65 1216.91C1667.67 1221.07 1666.57 1225.47 1663.55 1228.49C1659.77 1232.27 1653.93 1232.99 1648.59 1232.87C1627.85 1232.39 1606.27 1221.05 1593.91 1204.4C1570.44 1172.8 1563.91 1129.75 1579.22 1093.46C1583.47 1083.38 1590.89 1074.18 1598.41 1066.24C1604.49 1059.81 1612.06 1054.26 1620.81 1052.96C1627.17 1052.01 1633.72 1053.37 1640.05 1052.25C1651.38 1050.24 1659.86 1040.84 1670.45 1036.33C1677.55 1033.31 1686.21 1032.9 1693.8 1034.29L1693.79 1034.28Z" fill="#969696"/>
<path opacity="0.1" d="M1663 1052.52C1648.49 1055.05 1638.71 1069.51 1624.55 1073.53C1620.98 1074.55 1617.24 1074.86 1613.61 1075.65C1604.47 1077.63 1596.04 1082.74 1590.04 1089.92C1577.95 1104.41 1574.99 1125.62 1584.13 1142.22C1588.92 1150.93 1596.94 1158 1606.46 1160.87C1616.2 1163.81 1626.91 1162.25 1636.19 1158.08C1639.88 1156.42 1643.4 1154.36 1646.45 1151.71C1650.66 1148.07 1653.87 1143.43 1656.87 1138.74C1669.81 1118.51 1679.75 1095.6 1680.42 1071.59C1680.59 1065.37 1679.71 1058.3 1674.71 1054.61C1671.43 1052.19 1667.02 1051.81 1663.01 1052.51L1663 1052.52ZM1653.58 1067.72C1657.63 1068.7 1660.88 1072.12 1665.03 1072.53C1667.37 1072.76 1670.04 1072.06 1671.88 1073.53C1672.68 1074.17 1673.16 1075.12 1673.5 1076.08C1674.75 1079.61 1674.36 1083.52 1673.57 1087.18C1672.6 1091.65 1671.07 1095.98 1669.52 1100.29C1665.1 1112.55 1660.43 1124.91 1652.85 1135.51C1645.27 1146.11 1634.35 1154.92 1621.53 1157.27C1616.87 1158.12 1612.03 1157.96 1607.42 1156.87C1590.06 1152.76 1579.12 1133.38 1581.34 1116.13C1581.87 1111.99 1583.12 1107.97 1584.65 1104.09C1587.58 1096.64 1592.6 1090.72 1599.24 1086.25C1609.92 1079.06 1623.55 1079.29 1635.19 1073.79C1641.17 1070.97 1647.15 1066.17 1653.57 1067.72H1653.58Z" fill="#00A199"/>
</g>
<defs>
<clipPath id="clip0_35_299">
<rect width="473" height="448" fill="white" transform="translate(0 17)"/>
</clipPath>
<clipPath id="clip1_35_299">
<rect width="436.61" height="241.9" fill="white" transform="translate(1567)"/>
</clipPath>
<clipPath id="clip2_35_299">
<rect width="416" height="363" fill="white" transform="translate(1412 449)"/>
</clipPath>
<clipPath id="clip3_35_299">
<rect width="284" height="159" fill="white" transform="translate(211 628)"/>
</clipPath>
<clipPath id="clip4_35_299">
<rect width="588.11" height="503.96" fill="white" transform="translate(92 922)"/>
</clipPath>
<clipPath id="clip5_35_299">
<rect width="298.83" height="210.28" fill="white" transform="translate(1567 1028)"/>
</clipPath>
</defs>
</svg>
