<svg width="170" height="26" viewBox="0 0 170 26" fill="none" xmlns="http://www.w3.org/2000/svg">
<path d="M13.3271 25.4589C20.1352 25.4589 25.6542 19.9399 25.6542 13.1318C25.6542 6.32372 20.1352 0.804688 13.3271 0.804688C6.51904 0.804688 1 6.32372 1 13.1318C1 19.9399 6.51904 25.4589 13.3271 25.4589Z" stroke="#E3B15F" stroke-width="0.64" stroke-miterlimit="10"/>
<path fill-rule="evenodd" clip-rule="evenodd" d="M15.3816 14.3576V17.7185L15.2263 18.0293H18.4203L18.2591 17.7185V8.54514L18.4203 8.23438H8.23975L8.39513 8.5509V17.7243L8.23975 18.0351H11.4337L11.2784 17.7243V14.3634C11.2784 13.2872 12.1128 12.2974 13.3501 12.2916C14.5126 12.2916 15.3874 13.2412 15.3874 14.3634L15.3816 14.3576Z" fill="#E3B15F"/>
<path d="M41.9925 7.19248V20.4346C41.9925 20.5152 41.5609 20.8317 40.8876 20.8317H40.6746V16.7515C39.8517 17.2291 38.7755 17.8391 37.4864 18.501C37.4231 18.6966 37.2735 18.8635 37.0893 18.9153L36.4275 17.1313C36.675 17.0968 37.0203 17.0335 37.4519 16.9471V7.19248H36.5599L36.4275 6.71482H41.0315L41.8889 5.63865C41.8889 5.63865 42.8788 6.38104 43.4716 6.92776C43.4198 7.11192 43.2586 7.19248 43.0284 7.19248H41.9868H41.9925ZM40.6746 7.19248H38.7582V9.91458H40.6746V7.19248ZM40.6746 10.3922H38.7582V13.2467H40.6746V10.3922ZM38.7582 16.6651C39.351 16.5328 40.0128 16.3831 40.6746 16.222V13.7301H38.7582V16.6709V16.6651ZM45.3937 13.0338L47.1777 13.2179C47.126 13.4309 47.0109 13.5805 46.6138 13.6323V15.8422C46.5792 17.7586 45.9519 19.7383 42.7004 20.8605L42.5162 20.6476C44.3808 19.6922 45.0945 18.3686 45.3074 16.9817H44.1852L43.742 17.678L42.4069 16.786C42.522 16.6709 42.7061 16.5213 42.8845 16.4062V13.3848L44.7319 13.5344C44.6974 13.7301 44.565 13.8797 44.0701 13.9488V16.5098H45.3592C45.3937 16.2796 45.3937 16.0321 45.3937 15.8192V13.0453V13.0338ZM50.0495 10.162C52.7716 11.6813 51.6321 13.6265 50.694 12.769C50.6768 12.5216 50.6422 12.2568 50.5617 11.9921C49.8193 12.2396 48.7431 12.6021 47.7072 12.9014C47.6266 12.9647 47.5576 13.0165 47.477 13.0338L47.0972 11.8943C47.2928 12.7345 46.6368 13.2985 46.0555 12.7345C46.0555 12.5043 46.021 12.2741 45.975 12.0266C45.2498 12.2741 44.1909 12.6367 43.1378 12.9532C43.0745 13.005 43.0054 13.0338 42.9421 13.051L42.5277 11.7159C42.5277 11.7159 42.7925 11.6641 42.9076 11.5835C43.4543 11.1346 44.0643 10.3922 44.611 9.60381C44.2139 9.73617 43.7535 9.86854 43.3219 10.0009C43.2414 10.0987 43.155 10.1678 43.0572 10.1966L42.4932 8.87869C42.4932 8.87869 42.7407 8.80963 42.8385 8.72906C43.5003 8.06724 44.3233 6.2832 44.588 5.39694L46.2742 6.19112C46.2109 6.32349 46.0268 6.47312 45.6987 6.43859C45.152 7.2155 44.2945 8.22262 43.4888 8.93048C43.932 8.94775 44.4959 8.94775 45.0599 8.93048C45.457 8.28593 45.8023 7.6759 45.998 7.19824L47.4655 8.23989C47.4022 8.37225 47.1662 8.47008 46.8555 8.38951C46.1131 9.39663 44.8067 10.8008 43.5694 11.7734C44.2139 11.7562 45.0369 11.6929 45.8944 11.6411C45.7448 11.1289 45.5491 10.6512 45.3649 10.2887L45.5779 10.2081C46.4181 10.703 46.867 11.2497 47.0281 11.7274C47.0799 11.7101 47.3274 11.6641 47.4252 11.5778C47.9201 11.1346 48.5129 10.3577 49.0251 9.54626C48.5935 9.67863 48.1158 9.82825 47.6381 9.96062C47.5576 10.0757 47.454 10.1563 47.3561 10.1908L46.7922 8.88444C46.7922 8.88444 47.0224 8.81538 47.1202 8.75208C47.782 8.07299 48.5417 6.27745 48.7719 5.36816L50.4696 6.14508C50.4063 6.29471 50.2221 6.44434 49.8941 6.40981C49.3992 7.16946 48.5589 8.15932 47.8165 8.88444C48.2597 8.90171 48.8409 8.90171 49.4164 8.88444C49.779 8.25715 50.0782 7.66439 50.2566 7.19824L51.7414 8.22262C51.6609 8.35499 51.4422 8.45282 51.1314 8.38951C50.4523 9.37937 49.2323 10.7663 48.0928 11.7562C48.7201 11.7216 49.5776 11.6756 50.435 11.6065C50.2682 11.0943 50.038 10.6167 49.825 10.2541L50.038 10.1736L50.0495 10.162ZM51.8162 13.6956C51.7644 13.9085 51.6321 14.0409 51.2523 14.1099V17.4939C51.2523 17.609 50.7228 17.8391 50.2969 17.8391H50.0667V16.9817H48.7604V20.4346C48.7604 20.567 48.1964 20.8145 47.7187 20.8145H47.4712V13.0223L49.3704 13.2179C49.3359 13.4481 49.1862 13.615 48.7604 13.6783V16.504H50.0667V13.5172L51.8162 13.7013V13.6956Z" fill="#E3B15F"/>
<path d="M67.1013 5.75391C67.1013 5.75391 68.1085 6.53082 68.7358 7.08906C68.7012 7.27321 68.5401 7.35378 68.2926 7.35378H64.9087C64.5116 7.99834 63.9994 8.75799 63.539 9.29896H65.9849L66.7445 8.42421L68.2466 9.59822C68.1315 9.73058 67.9646 9.84568 67.602 9.89747V17.0624C67.602 17.143 67.0726 17.4595 66.3302 17.4595H66.0655V16.8955H62.1521V17.425C62.1521 17.5401 61.6917 17.8566 60.9493 17.8566H60.7018V8.64289L62.3535 9.30471H62.9463C63.0441 8.72922 63.1419 7.9523 63.1937 7.35954H60.322C60.2414 7.44011 60.1091 7.47464 59.9594 7.47464H57.2201C56.9899 8.92489 56.6273 10.3003 56.1324 11.5664L56.4317 11.6815H57.8359L58.561 10.8873L60.1321 12.0786C60.017 12.211 59.7868 12.3606 59.4357 12.4239V18.6623C59.4185 18.7774 58.6934 19.0766 58.233 19.0766H58.0028V18.0177H56.2533V19.6867C56.2533 19.8017 55.8101 20.147 55.0792 20.147H54.849V14.1043C54.4174 14.7834 53.9398 15.4107 53.4103 16.0035L53.1628 15.8366C54.4807 13.5404 55.2404 10.473 55.6202 7.46888H53.4391L53.3067 6.99122H57.8646L58.7567 5.86901C58.7567 5.86901 59.4357 6.3812 60.0285 6.87612H66.2036L67.1129 5.75391H67.1013ZM56.236 12.1592V17.5401H57.9855V12.1592H56.236ZM58.2848 20.6132C59.689 19.9514 61.3406 18.7313 62.5434 17.3099L64.1778 18.4148C64.0627 18.5644 63.8786 18.6105 63.5333 18.5472C62.1463 19.75 59.9825 20.5614 58.3826 20.8434L58.2848 20.6132ZM62.1463 9.78237V11.6297H66.0597V9.78237H62.1463ZM62.1463 13.9777H66.0597V12.1131H62.1463V13.9777ZM66.0597 16.4236V14.4612H62.1463V16.4236H66.0597ZM64.7533 17.6264C69.7716 18.2191 69.081 21.4707 67.4466 20.665C66.969 19.6406 65.6799 18.4378 64.6094 17.7933L64.7591 17.6264H64.7533Z" fill="#E3B15F"/>
<path d="M76.2634 10.0643C76.1828 10.2312 76.0159 10.3118 75.6016 10.2485C75.2045 10.7607 74.7095 11.3247 74.1513 11.9174L74.7786 12.1476C74.7153 12.2973 74.5657 12.4124 74.2664 12.4584V20.4175C74.2491 20.5499 73.5873 20.8606 72.9946 20.8606H72.6953V13.2986C71.9011 13.995 71.0264 14.651 70.1344 15.1978L69.9502 15.0136C71.6824 13.2986 73.4147 10.6744 74.2607 8.9191L76.2576 10.0586L76.2634 10.0643ZM75.9987 6.69769C75.9008 6.86458 75.7339 6.92789 75.3714 6.86458C74.2664 8.00407 72.4018 9.47158 70.4854 10.4154L70.3185 10.2197C71.786 8.91335 73.3571 6.89911 74.0995 5.56396L75.9987 6.70345V6.69769ZM83.9578 9.73631C83.9578 9.73631 84.9994 10.5593 85.644 11.1405C85.5922 11.3074 85.4138 11.388 85.1836 11.388H82.6399V18.668C82.6399 19.8075 82.3233 20.6017 80.1652 20.7513C80.1307 20.2736 79.9811 19.8593 79.6703 19.6291C79.325 19.3816 78.8128 19.1859 77.7539 19.0363V18.8061C77.7539 18.8061 80.148 18.973 80.5911 18.973C80.9364 18.973 81.0342 18.8579 81.0342 18.6277V11.3995H76.0159L75.8835 10.9391H83.0312L83.9578 9.75357V9.73631ZM76.9252 7.58971L76.7928 7.12931H82.4557L83.3477 5.97257C83.3477 5.97257 84.3894 6.76675 84.9821 7.32498C84.9476 7.50914 84.7865 7.58971 84.5505 7.58971H76.9252Z" fill="#E3B15F"/>
<path d="M93.5972 17.7244C92.3772 18.2883 90.6449 19.0595 88.2508 20.0033C88.1818 20.2163 88.0206 20.3659 87.8365 20.4177L87.0941 18.6336C87.6408 18.5646 88.5616 18.4207 89.7011 18.2193V13.2528H87.2725L87.1401 12.7751H89.7011V10.4501H88.2336L88.1703 10.2372C87.825 10.617 87.4624 10.9623 87.0826 11.2615L86.8984 11.1292C87.9573 9.60988 88.9127 7.00288 89.2407 5.38574L91.4506 5.88067C91.3988 6.07634 91.2377 6.19144 90.806 6.22596L90.7888 6.26049C95.2489 7.81433 93.3958 10.1739 92.239 9.18401C92.0261 8.48766 91.4448 7.46904 90.6679 6.54249C90.1557 7.64744 89.35 8.91928 88.4062 9.9782H90.8636L91.6578 8.97108C91.6578 8.97108 92.5498 9.67894 93.0965 10.1911C93.0447 10.3753 92.8836 10.4559 92.6822 10.4559H91.0995V12.7809H91.6117L92.4059 11.6759C92.4059 11.6759 93.2979 12.4528 93.8447 12.9938C93.7929 13.1779 93.649 13.2585 93.413 13.2585H91.0995V17.9661C91.8937 17.8164 92.6994 17.6668 93.5454 17.5057L93.5972 17.7359V17.7244ZM87.7041 13.8801C90.3457 16.0267 89.0393 18.2711 88.0667 17.2007C88.13 16.159 87.802 14.8411 87.4912 13.9664L87.7041 13.8858V13.8801ZM91.4161 17.2122C91.629 16.3202 91.8477 14.9677 91.9801 13.811L93.7468 14.2887C93.6835 14.4843 93.4821 14.634 93.1541 14.634C92.757 15.572 92.2448 16.5964 91.6866 17.3273L91.4218 17.2122H91.4161ZM100.48 9.85159L102.115 11.1062C101.999 11.2213 101.735 11.3709 101.407 11.4342V18.8811C101.407 19.9688 101.176 20.5961 99.4097 20.7802C99.3579 20.3198 99.2946 19.94 99.0817 19.7098C98.8515 19.4796 98.5177 19.2955 97.8271 19.1976V18.9502C97.8271 18.9502 99.2313 19.048 99.5939 19.048C99.8586 19.048 99.9219 18.9502 99.9219 18.7372V15.4339C99.0471 15.9979 97.9595 16.6252 96.6531 17.2812C96.6013 17.4942 96.4574 17.6611 96.2905 17.7244L95.5481 16.1705C95.3007 17.8395 94.6734 19.5717 92.9699 20.8435L92.7742 20.6594C94.1612 18.6452 94.2763 16.136 94.2763 13.8225V10.0242L95.9452 10.6688H97.1998V5.48358L99.1795 5.66773C99.145 5.88067 99.0299 6.0303 98.6501 6.09936V10.6745H99.755L100.48 9.85159ZM93.9425 6.54824C97.6429 7.95245 96.302 10.6745 95.0647 9.56959C95.0014 8.57974 94.3569 7.38847 93.7756 6.64608L93.9425 6.54824ZM95.692 13.8283C95.692 14.4728 95.6747 15.2152 95.5769 15.9749C96.6013 15.7907 98.2875 15.3994 99.9161 14.9044V11.158H95.692V12.6945C100.331 12.0845 100.233 14.6282 98.8918 14.3922C98.3278 13.9952 97.125 13.4542 95.692 13.1204V13.8283ZM102.362 7.423C102.264 7.60715 102.115 7.67046 101.735 7.60715C101.125 8.25171 100.233 9.29336 99.3924 10.0645L99.1795 9.89763C99.6744 8.80994 100.284 7.22157 100.549 6.32955L102.368 7.41724L102.362 7.423Z" fill="#E3B15F"/>
<path d="M119.04 6.94518C118.925 7.07755 118.66 7.20991 118.349 7.29048V20.1701C118.332 20.3024 117.624 20.6823 117.06 20.6823H116.83V19.842H106.183V20.2852C106.183 20.4981 105.608 20.8607 104.946 20.8607H104.681V5.84023L106.316 6.54809H116.669L117.463 5.67334L119.046 6.94518H119.04ZM116.83 19.3586V7.02575H106.183V19.3586H116.83ZM115.178 13.0339C115.161 13.149 114.585 13.362 114.154 13.3965C116.45 13.7936 116.105 14.864 115.443 14.9964C115.69 15.192 116.237 15.6064 116.582 15.9344C116.531 16.1186 116.369 16.1992 116.168 16.1992H113.739V17.3559C113.739 18.294 113.527 18.8061 111.955 18.9385C111.921 18.5932 111.858 18.3112 111.673 18.1443C111.489 17.9774 111.196 17.8336 110.568 17.7472V17.4998C110.568 17.4998 111.84 17.5976 112.105 17.5976C112.335 17.5976 112.404 17.517 112.404 17.3156V16.1934H109.055C111.265 16.7401 110.246 18.5529 109.187 17.7933C109.118 17.2293 108.658 16.5732 108.232 16.2107L108.249 16.1934H106.632L106.5 15.733H112.41V14.7777L114.292 14.9618C114.24 15.192 114.096 15.3071 113.745 15.3762V15.7388H114.603L115.195 14.9964C115.046 14.9791 114.896 14.9158 114.764 14.7834C114.649 14.6165 114.499 14.4554 114.321 14.2885C112.819 14.4842 110.707 14.7029 107.835 14.9503C107.737 15.1633 107.587 15.2611 107.438 15.2956L106.73 14.0065C107.605 14.0238 109.055 14.0238 110.81 13.9892V13.1318H109.078V13.3159C109.078 13.431 108.485 13.6957 107.973 13.6957H107.777V9.40255L109.164 9.97805H110.816V9.10329H106.857L106.741 8.6429H110.822V7.44011L112.64 7.62427C112.606 7.81994 112.473 7.96957 112.128 8.03863V8.64865H114.275L115 7.75663C115 7.75663 115.823 8.38392 116.318 8.86158C116.266 9.02848 116.134 9.10905 115.903 9.10905H112.122V9.9838H113.774L114.384 9.33925L115.702 10.3291C115.621 10.4269 115.42 10.542 115.19 10.5766V13.0339H115.178ZM109.072 10.4615V11.3017H110.804V10.4615H109.072ZM110.804 12.6599V11.7851H109.072V12.6599H110.804ZM112.111 10.4615V11.3017H113.878V10.4615H112.111ZM113.878 11.7793H112.111V12.6541H113.878V11.7793ZM113.826 13.9432C113.578 13.7936 113.262 13.644 112.899 13.5289L112.98 13.2641C113.308 13.2814 113.607 13.3159 113.872 13.3447V13.1318H112.105V13.972L113.82 13.9375L113.826 13.9432Z" fill="#E3B15F"/>
<path d="M135.384 11.0198C135.286 11.1349 135.021 11.2154 134.705 11.0831C134.227 11.4974 133.433 12.1075 132.558 12.6657C133.237 14.9274 134.538 16.9071 136.144 17.8164L136.109 18.0005C135.597 18.1156 135.182 18.53 135.004 19.2206C133.519 17.8509 132.725 15.7043 132.247 12.8671C132.017 13.0167 131.77 13.1779 131.54 13.3102C132.714 15.9863 132.449 19.0249 131.488 20.1471C131.091 20.6248 130.366 20.8262 129.278 20.8262C129.278 20.3658 129.145 20.032 128.933 19.8364C128.737 19.6522 128.156 19.4565 127.511 19.3069V19.0767C128.202 19.14 129.393 19.2091 129.807 19.2091C130.037 19.2091 130.204 19.1745 130.319 19.0249C130.699 18.4955 130.93 17.2581 130.866 15.8079C129.531 17.0452 127.632 18.2538 125.664 18.9616L125.549 18.7487C127.546 17.5574 129.445 15.6122 130.601 13.7649C130.538 13.5174 130.469 13.27 130.389 13.0052C129.347 14.0757 127.828 15.0828 126.21 15.6813C126.147 17.1028 125.514 17.8451 123.914 17.8797C123.914 17.4481 123.845 16.8898 123.719 16.6884C123.586 16.5388 123.304 16.4237 122.942 16.3431V16.1129H124.001C124.167 16.1129 124.265 16.0956 124.38 16.0323C124.611 15.8827 124.743 15.5547 124.743 14.9907C124.743 13.8167 124.38 12.5448 123.425 11.4054C123.753 10.3349 124.236 8.40127 124.495 7.07763H122.809V20.3486C122.809 20.4464 122.332 20.8435 121.618 20.8435H121.353V5.93815L123.022 6.59997H124.375L125.249 5.75975L126.849 7.29632C126.717 7.44595 126.487 7.49199 126.107 7.49199C125.577 8.4991 124.588 10.3292 123.845 11.3536C125.514 12.5276 126.205 14.0641 126.205 15.382C127.655 14.3576 128.961 12.7923 129.686 11.319L129.554 11.0888C128.53 11.814 127.344 12.4067 126.072 12.8901L125.905 12.6599C127.477 11.7334 128.829 10.3637 129.704 8.99403H126.055L125.923 8.51637H131.286C131.632 7.70492 132.046 6.43308 132.374 5.32812L134.44 6.10504C134.359 6.2892 134.141 6.41581 133.778 6.4043C133.214 7.16396 132.506 7.92361 131.833 8.51637H133.652L134.463 7.42868C134.463 7.42868 135.39 8.18834 135.931 8.73506C135.879 8.91922 135.735 8.99979 135.499 8.99979H131.701C131.223 9.69038 130.578 10.3062 129.836 10.8644C130.463 11.4917 130.958 12.1823 131.338 12.9132C132.265 11.8255 133.318 10.404 133.795 9.60981L135.378 11.0313L135.384 11.0198ZM127.344 5.45473C131.304 6.32949 130.118 9.12064 128.714 8.14805C128.53 7.2733 127.787 6.21439 127.177 5.56983L127.344 5.45473Z" fill="#E3B15F"/>
<path d="M152.885 8.67733C152.752 8.80969 152.585 8.82696 152.24 8.86149C151.78 9.39094 150.888 10.0643 150.209 10.4786L150.042 10.3635C150.191 9.86861 150.37 9.14348 150.502 8.54497H140.051C140.132 9.66718 139.723 10.4441 139.176 10.7721C138.681 11.1002 137.87 10.9851 137.657 10.375C137.473 9.81106 137.824 9.36792 138.336 9.13773C138.912 8.82696 139.573 8.01551 139.51 7.14076H139.74C139.855 7.45152 139.936 7.76805 140.005 8.06731H150.404L151.296 7.14076L152.879 8.67733H152.885ZM149.668 14.9157L151.285 16.153C151.17 16.2854 150.939 16.4177 150.623 16.481V20.2448C150.606 20.3772 149.829 20.7052 149.317 20.7052H149.052V19.583H142.382V20.2621C142.382 20.4462 141.737 20.8088 141.064 20.8088H140.817V9.50604L142.485 10.2312H147.832L148.574 9.41972L150.157 10.6225C150.076 10.7376 149.846 10.87 149.547 10.9218V14.0582C149.53 14.156 148.753 14.4553 148.24 14.4553H147.993V13.6957H142.382V15.7559H148.868L149.662 14.9157H149.668ZM142.388 10.7088V13.2353H147.999V10.7088H142.388ZM149.058 19.1111V16.2221H142.388V19.1111H149.058ZM143.924 5.42578C148.085 5.77108 146.566 8.97659 144.966 7.78531C144.903 6.99113 144.39 6.05307 143.775 5.52362L143.924 5.42578Z" fill="#E3B15F"/>
<path d="M155.854 16.2052C156.401 17.8569 156.234 19.146 155.791 19.756C155.48 20.1531 154.732 20.2337 154.473 19.7906C154.26 19.3935 154.439 18.9331 154.819 18.6511C155.233 18.2079 155.676 17.1145 155.578 16.2052H155.86H155.854ZM159.008 6.46784C158.945 6.61747 158.761 6.74984 158.433 6.71531C157.788 7.78573 156.614 9.28777 155.578 10.2834C156.205 10.3006 157.017 10.3006 157.823 10.2834C158.168 9.67335 158.467 9.0921 158.663 8.63171L160.366 9.78845C160.286 9.92081 160.067 10.0359 159.739 9.97261C158.882 11.2099 157.23 12.9594 155.728 14.1507C156.539 14.0989 157.61 14.0356 158.732 13.955C158.582 13.3623 158.369 12.781 158.156 12.3552L158.352 12.2746C161.224 14.0414 159.906 16.2513 158.916 15.2269C158.916 14.9794 158.882 14.6974 158.836 14.4154C157.961 14.7262 156.769 15.1406 155.515 15.5031C155.383 15.6873 155.216 15.8024 155.072 15.8484L154.479 14.1334C154.479 14.1334 154.842 14.0529 154.991 13.9493C155.734 13.322 156.643 12.148 157.403 10.9625C156.873 11.1581 156.229 11.3941 155.584 11.5898C155.486 11.7566 155.354 11.8717 155.221 11.935L154.514 10.2201C154.514 10.2201 154.83 10.1395 154.957 10.0359C155.751 9.1439 156.775 6.78437 157.103 5.52979L159.02 6.46784H159.008ZM157.074 15.9635C159.273 18.0756 157.834 20.1877 156.959 19.0482C157.126 18.0756 157.023 16.8498 156.844 16.0096L157.074 15.9578V15.9635ZM158.427 15.6988C161.316 17.2181 160.079 19.4798 159.037 18.4899C159.054 17.5979 158.64 16.493 158.243 15.7851L158.427 15.7045V15.6988ZM170 6.96277C169.885 7.09513 169.62 7.24476 169.304 7.2908V18.8467C169.304 19.8366 169.091 20.4466 167.37 20.6135C167.318 20.1992 167.238 19.8539 167.008 19.6697C166.777 19.4568 166.398 19.2899 165.638 19.1748V18.9273C165.638 18.9273 167.255 19.0424 167.6 19.0424C167.9 19.0424 167.98 18.9446 167.98 18.6971V10.974C167.917 11.1063 167.784 11.1581 167.6 11.1581H162.185L162.053 10.6805H165.108C165.39 9.75392 165.736 8.4533 165.931 7.52675L167.664 8.02168C167.583 8.21735 167.382 8.36698 167.036 8.3382C166.674 9.01729 166.064 9.92081 165.5 10.6805H166.208L166.852 9.84025C166.852 9.84025 167.531 10.4157 167.974 10.8646V7.06636H161.817V20.3085C161.817 20.4063 161.385 20.7516 160.758 20.7516H160.545V5.97292L162.029 6.58294H167.807L168.452 5.78876L169.989 6.96277H170ZM166.915 16.867C167.261 16.9821 167.376 17.08 167.376 17.3102C167.376 17.7878 166.961 17.9375 165.229 17.9375H164.205C163.18 17.9375 163.014 17.6727 163.014 16.9303V13.8917H162.306L162.191 13.4141H165.972L166.599 12.5911C166.599 12.5911 167.29 13.1839 167.721 13.6328C167.687 13.8169 167.525 13.8975 167.307 13.8975H164.153V16.6886C164.153 16.8843 164.205 16.9361 164.533 16.9361H166.116C166.196 16.9361 166.311 16.9188 166.38 16.9188C166.461 16.9016 166.593 16.8843 166.697 16.8498H166.846L166.91 16.867H166.915ZM162.605 7.6361C165.557 9.05757 164.337 11.1869 163.313 10.2258C163.278 9.41438 162.818 8.37849 162.404 7.73393L162.599 7.6361H162.605ZM163.923 11.2042C166.645 12.0962 165.229 14.0126 164.268 13.0515C164.268 12.4415 164.003 11.7336 163.739 11.2847L163.923 11.2042Z" fill="#E3B15F"/>
</svg>
