<?xml version="1.0" encoding="utf-8"?>
<!-- Generator: Adobe Illustrator 26.3.1, SVG Export Plug-In . SVG Version: 6.00 Build 0)  -->
<svg version="1.1" id="圖層_1" xmlns="http://www.w3.org/2000/svg" xmlns:xlink="http://www.w3.org/1999/xlink" x="0px" y="0px"
	 viewBox="0 0 375 95" style="enable-background:new 0 0 375 95;" xml:space="preserve">
<style type="text/css">
	.st0{fill:#FFFFFF;}
</style>
<g>
	<path class="st0" d="M111.8,15.4v0.8h7.9v-0.8H111.8z M111.5,19.2v0.8h8.6v-0.8H111.5z M113.2,16.7c0.4,0.8,0.7,1.8,0.8,2.5
		l0.8-0.2c-0.1-0.6-0.4-1.7-0.8-2.4L113.2,16.7z M117.7,16.5c-0.3,0.9-0.9,2.2-1.3,3l0.7,0.3c0.4-0.8,1-2,1.4-3L117.7,16.5z
		 M118.2,21.3v8c0,0.2-0.1,0.3-0.3,0.3c-0.2,0-1,0-1.9,0c0.1,0.3,0.3,0.6,0.3,0.9c1.1,0,1.8,0,2.2-0.2c0.4-0.2,0.5-0.4,0.5-1v-8
		H118.2z M121.5,15.2v0.8h6.8v-0.8H121.5z M121.5,22.9v0.7h6v-0.7H121.5z M121.5,25v0.7h5.9V25H121.5z M121.5,27.2v0.7h6.1v-0.7
		H121.5z M121.1,13.6v4.7h0.9v-4.7H121.1z M121.1,17.9v0.8h5.6v2.1h-5.6v0.8h6.4v-3.6H121.1z M121.1,21.2V29c0,1.3,0.4,1.5,2,1.5
		c0.3,0,3.5,0,3.8,0c1.3,0,1.6-0.4,1.7-2c-0.2-0.1-0.6-0.2-0.8-0.4c-0.1,1.3-0.2,1.6-0.9,1.6c-0.6,0-3.3,0-3.7,0
		c-1,0-1.2-0.1-1.2-0.7v-7.8H121.1z M115,13.8c0.3,0.7,0.7,1.6,0.7,2.2l0.9-0.2c-0.1-0.6-0.5-1.5-0.8-2.2L115,13.8z M113.1,21.3v0.8
		h5.4v-0.8H113.1z M112.6,21.3V25c0,1.6-0.1,3.6-0.9,5.2c0.2,0.1,0.5,0.4,0.6,0.5c1-1.7,1.1-4,1.1-5.7v-3.7H112.6z M113.6,27.4
		l0.4,0.7c1.3-0.5,3-1.3,4.7-2l-0.1-0.6C116.7,26.2,114.9,26.9,113.6,27.4z M113.9,23.7c1.2,0.4,2.7,1,3.6,1.4l0.4-0.6
		c-0.8-0.4-2.4-1-3.6-1.4L113.9,23.7z M132.5,22.7v0.8h12.5v-0.8H132.5z M130.8,29.3v0.8h15.9v-0.8H130.8z M133.1,25.9v0.8h10.8
		v-0.8H133.1z M141.1,27.4c1,0.5,2.3,1.3,2.9,1.8l0.6-0.6c-0.7-0.5-1.9-1.2-2.9-1.7L141.1,27.4z M138.2,23.1v6.8h0.9v-6.8H138.2z
		 M131,20v3.2h0.9v-2.4h13.6v2.4h0.9V20H131z M137.5,14.6c-0.4,0.6-1,1.5-1.6,2l0.6,0.3c0.5-0.5,1.2-1.3,1.7-2L137.5,14.6z
		 M134,17.1c1.1,0.7,2.6,1.8,3.3,2.4l0.6-0.6c-0.8-0.6-2.2-1.6-3.3-2.3L134,17.1z M134.5,13.6c-0.1,3.1-0.9,4.5-4.2,5.3
		c0.2,0.1,0.4,0.5,0.5,0.7c3.5-0.9,4.4-2.5,4.6-6H134.5z M145.7,14.6c-0.4,0.6-1.1,1.5-1.7,2l0.6,0.3c0.6-0.5,1.3-1.3,1.9-2
		L145.7,14.6z M141.8,17.2c1.5,0.7,3.3,1.8,4.2,2.5l0.5-0.7c-1-0.7-2.8-1.7-4.2-2.4L141.8,17.2z M142.3,13.6c-0.2,3-1,4.4-4.1,5.2
		c0.2,0.2,0.4,0.5,0.5,0.7c3.4-0.9,4.3-2.6,4.5-5.9H142.3z M131,14.9c0.4,0.7,1,1.6,1.2,2.2l0.6-0.4c-0.2-0.5-0.8-1.4-1.2-2.1
		L131,14.9z M138.8,14.9c0.5,0.7,1,1.6,1.3,2.2l0.7-0.4c-0.3-0.5-0.9-1.4-1.4-2.1L138.8,14.9z M154.1,17.8v0.8h11.5v-0.8H154.1z
		 M155.1,23v0.7h9.6V23H155.1z M154.3,25.5v0.8h11.2v-0.8H154.3z M159.2,13.6v14.9h0.9V13.6H159.2z M155.5,15.4v0.8h7.9v4.2h-8.1
		v0.8h8.9v-5.8H155.5z M149.3,14.9v0.8h4.3v-0.8H149.3z M150.5,20.2l-0.2,0.8h3.2v-0.8H150.5z M153.2,20.2v0.2
		c-0.5,4.7-2.1,7.9-4.4,9.6c0.2,0.1,0.5,0.4,0.7,0.6c2.3-1.8,3.9-5.1,4.6-10.2l-0.5-0.1l-0.2,0H153.2z M150.4,22.9l-0.7,0.3
		c1.7,5.8,5.3,7,10.7,7h5.1c0.1-0.2,0.2-0.6,0.4-0.8c-0.8,0-4.9,0-5.5,0C155.5,29.3,152,28.2,150.4,22.9z M149.9,21.5
		c0-0.2,0.7-0.5,0.7-0.5v0c1.2-1.5,2.4-3.6,3.6-5.9l-0.6-0.4l-0.4,0.2V15c-0.8,2-2.2,4.1-2.6,4.7c-0.4,0.6-0.8,1-1.1,1
		C149.6,20.9,149.8,21.3,149.9,21.5z M168.5,19.3V20h5.4v-0.8H168.5z M168.5,21.7v0.8h5.4v-0.8H168.5z M167.7,16.9v0.8h7v-0.8H167.7
		z M168.9,24.1v0.8h4.2v3.7h-4.2v0.8h5v-5.3H168.9z M168.5,24.1v6.3h0.8v-6.3H168.5z M169.8,14c0.5,0.7,1.1,1.8,1.4,2.4l0.7-0.5
		c-0.3-0.6-0.9-1.6-1.5-2.4L169.8,14z M176.7,14.4v0.9h4.8v-0.9H176.7z M174.6,22v0.9h8.3V22H174.6z M182.5,22v0.2
		c-1.3,4.1-5,6.7-8.6,7.7c0.2,0.2,0.4,0.6,0.5,0.8c3.8-1.2,7.6-3.9,9-8.5l-0.6-0.3l-0.2,0H182.5z M176.3,22.8l-0.8,0.3
		c1.5,3.8,4.5,6.5,8.6,7.6c0.1-0.2,0.4-0.6,0.6-0.8C180.7,28.9,177.6,26.2,176.3,22.8z M176.5,14.4v2.1c0,1.4-0.4,3-2.4,4.3
		c0.2,0.1,0.5,0.5,0.6,0.7c2.2-1.4,2.6-3.3,2.6-4.9v-2.1H176.5z M181,14.4v4.5c0,1.2,0.2,1.5,1.1,1.5c0.2,0,1.1,0,1.4,0
		c0.3,0,0.7,0,0.8-0.1c0-0.2-0.1-0.6-0.1-0.8c-0.2,0-0.5,0.1-0.7,0.1c-0.2,0-1.1,0-1.4,0c-0.2,0-0.3-0.1-0.3-0.7v-4.5H181z
		 M198.5,13.9v15.3c0,0.4-0.1,0.5-0.5,0.5c-0.4,0-1.7,0-3.1,0c0.1,0.3,0.3,0.7,0.4,1c1.7,0,2.8,0,3.4-0.2c0.6-0.1,0.8-0.4,0.8-1.3
		V13.9H198.5z M203,18.6c1.7,2.6,3.3,6.1,3.7,8.3l0.9-0.4c-0.5-2.2-2.1-5.6-3.8-8.3L203,18.6z M193.6,18.4c-0.5,2.6-1.6,5.8-3.3,7.8
		c0.2,0.1,0.6,0.3,0.8,0.5c1.8-2.1,2.9-5.4,3.5-8.1L193.6,18.4z M221.7,17.9c-2.3,1-6.8,1.8-10.7,2.3c0.1,0.2,0.2,0.5,0.3,0.8
		c3.9-0.5,8.4-1.3,11.2-2.4L221.7,17.9z M216.2,19.9v8.7c0,1.5,0.6,1.8,2.4,1.8c0.4,0,4.1,0,4.6,0c1.8,0,2.1-0.7,2.3-3.4
		c-0.3-0.1-0.7-0.2-0.9-0.4c-0.1,2.4-0.3,2.9-1.4,2.9c-0.8,0-4,0-4.5,0c-1.2,0-1.5-0.2-1.5-1v-8.7H216.2z M209.8,15.8v3.7h0.9v-2.9
		h13.7v2.9h0.9v-3.7H209.8z M216.3,13.8c0.5,0.8,1.1,1.9,1.3,2.6l0.9-0.3c-0.2-0.7-0.8-1.7-1.4-2.5L216.3,13.8z M210.2,23.6v0.9
		h14.2v-0.9H210.2z M228.2,19.2v0.9h16.3v-0.9H228.2z M237,19.6l-0.9,0.2c1.4,5,4,8.9,7.9,10.8c0.2-0.2,0.4-0.6,0.7-0.8
		C240.9,28.1,238.3,24.2,237,19.6z M235.9,13.7c0,4.1,0,12.8-8.1,16.3c0.2,0.2,0.5,0.5,0.7,0.7c8.2-3.7,8.3-12.5,8.3-17H235.9z
		 M254.7,16.8l-0.4,0.9h9.2v-0.9H254.7z M257,20.8v0.8h6.2v-0.8H257z M257,25v0.9h6.4V25H257z M256.5,17.1v13.5h0.9V17.1H256.5z
		 M255.6,13.9c-1,2.8-2.5,5.5-4.2,7.3c0.2,0.1,0.6,0.4,0.7,0.6c1.7-1.9,3.3-4.7,4.4-7.7L255.6,13.9z M251.4,13.7
		c-1.1,2.9-2.9,5.8-4.9,7.7c0.2,0.2,0.5,0.7,0.6,0.8c2-2.1,3.9-5.1,5.2-8.3L251.4,13.7z M249.3,18.3v12.3h0.9V17.5l0,0L249.3,18.3z"
		/>
	<path class="st0" d="M26.5,66.7c3.1,4.6,6.9,10.9,8.6,14.8l6.1-3.3c-2-3.9-5.6-9.6-8.9-14.1L26.5,66.7z M14.3,43.8
		c-2.4,5.7-6.6,11.6-10.8,15.1C5,60,7.6,62.6,8.7,63.9c4.3-4.3,9.2-11.4,12.2-18L14.3,43.8z M8.9,80.1c0-1.1,4.3-3.3,4.3-3.3v-0.2
		c4.9-4.6,10.3-11.2,14.2-18l-7-2.9c-3,6.6-8.1,13.3-9.8,15c-1.6,1.7-2.6,2.7-4.1,3.1C7.4,75.6,8.5,78.9,8.9,80.1z M8.9,80.1
		c2.4-0.9,5.7-1.1,27.7-3.1c-0.4-1.3-1-3.8-1.3-5.6L12.5,73l-3.8,2.1L8.9,80.1z M26.1,44v3.2h1.2c2.1,5.7,6,12.3,11.5,16.6
		c1-1.9,3.1-4.7,4.4-6c-5.1-3-8.6-8.5-10.2-13.7H26.1z M22.6,44v6h8.2v-6H22.6z M53.8,61v4.6H73V61H53.8z M53.2,67.8v4.7h20.3v-4.7
		H53.2z M64.6,62.4v18.1h5.1V62.4H64.6z M56.9,62.6v7.9c0,2-0.9,5.6-3.9,7.5c1.2,0.8,2.9,2.3,3.7,3.3c4.1-2.8,5.2-8.1,5.2-10.8v-7.9
		H56.9z M49.1,49.9v3.7h9.5v-3.7H49.1z M67.9,49.9v3.7h9.5v-3.7H67.9z M75,44.4v30.2c0,0.6-0.2,0.8-0.8,0.8c-0.6,0-2.5,0-4.1-0.1
		c0.8,1.5,1.5,4.2,1.7,5.8c3.1,0,5.2-0.1,6.9-1.1c1.6-1,2.1-2.5,2.1-5.3V44.4H75z M49.7,44.4v4.1h7.2v6.6h-7.2v4.1h12.6V44.4H49.7z
		 M78.1,44.4H64.4v14.9h13.7v-4.1H70v-6.7h8.1V44.4z M46.2,44.4v36.8h5.7V44.4H46.2z M95.7,61c0-0.9,2.8-2.5,2.8-2.5v-0.1
		c1.7-2.3,3.8-5.9,5-9.1l-5.2-1.8c-0.7,3.1-2.1,6.2-2.6,7.1c-0.5,0.9-1.1,1.5-1.7,1.7C94.6,57.5,95.5,59.9,95.7,61z M95.7,61
		c1.2-0.7,2.9-1.1,14-3.3c-0.7-1-1.8-2.7-2.5-3.9l-9.9,1.7l-2,1.5L95.7,61z M90.5,42.9c-1.4,5.6-3.7,11.4-6.4,15.1
		c0.9,1.6,2.2,5,2.6,6.5c3.8-5,7.1-13.1,9.1-20.1L90.5,42.9z M87.5,54.7v26.5h5.3V49.5l0,0L87.5,54.7z M99,60.8v15.1h5.4V60.8H99z
		 M110.5,46.7v24.3h4.9V46.7H110.5z M95.2,45.3v4.8h14.3v-4.8H95.2z M94.6,64.1v4.8h15.1v-4.8H94.6z M93.4,73.7l0.8,5.1
		c4.5-0.8,10.5-1.8,16-2.9l-0.4-4.7C104,72.2,97.6,73.2,93.4,73.7z M102.9,52.3c1.6,2.8,3.3,6.4,3.9,8.8l4.5-2
		c-0.7-2.3-2.5-5.9-4.2-8.5L102.9,52.3z M116.5,44.2v31c0,0.6-0.2,0.8-0.9,0.9c-0.6,0-2.7,0-4.7-0.1c0.7,1.3,1.6,3.6,1.8,5
		c3.1,0,5.4-0.2,6.9-1c1.6-0.8,2.1-2.1,2.1-4.8v-31H116.5z M149.5,50.2v5.1h13.6v-5.1H149.5z M150.1,42.9c-1,7-2.9,14.4-5.4,19
		c1,0.8,2.9,2.7,3.7,3.7c2.9-5.4,5.2-13.9,6.5-21.8L150.1,42.9z M155.8,53.5c-0.9,12.2-3.9,19.7-12.9,23.6c0.9,1,2.3,3.2,2.7,4.3
		c10-5,13.7-13.6,15.1-27.6L155.8,53.5z M152.4,54.7l-4,0.6c1.6,11.6,4.4,21.1,11.6,26c0.8-1.4,2.5-3.5,3.6-4.5
		C156.8,72.9,153.8,64.4,152.4,54.7z M134.1,43v21.8h4.3V43H134.1z M131.9,48.8h8.7v5.5h-8.7V48.8z M127.7,45.3v12.6h17.6V45.3
		H127.7z M131.9,61.9h8.7v1.2h-8.7V61.9z M127.1,58.7v7.5h18.5v-7.5H127.1z M124.8,49.5v4.1h4.1v-0.3h13.5v0.3h4.8v-4.1h-4.8v0.3
		H129v-0.3H124.8z M127.2,74.3l4.6,1.1c2-2.5,4.6-6.4,6.2-9.9l-4.5-1C131.9,67.7,129.3,71.7,127.2,74.3z M127.2,74.3
		c5.5,1.2,12.1,3.7,15.8,5.8l3.6-3.2c-3.9-1.9-10.4-4.3-15.8-5.5L127.2,74.3z M139.6,66.7v2.1c0,2.8-1.7,6.9-15.3,8.7
		c0.8,0.9,1.9,2.6,2.2,3.7c15.3-2.2,17.6-7.9,17.6-12.2v-2.3H139.6z M125.5,67.6v3.8h21.6v-3.8H125.5z M176.6,44.8v3.9h15.3v-3.9
		H176.6z M193.9,47.9V53H206v-5.1H193.9z M175.3,50v3.9h17.6V50H175.3z M181.7,43v9.1h5.2V43H181.7z M181.7,58.9v9.6h5.2v-9.6H181.7
		z M176.1,60.8v4h15.8v-4H176.1z M175,66.9l0.4,4.7c4.8-0.4,11.3-1,17.5-1.7l0-4.3C186.4,66.1,179.5,66.7,175,66.9z M196.9,43
		c-0.1,12,0.2,20-5.2,24.9c1.2,0.8,2.7,2.6,3.4,3.8c6.5-5.8,6.8-15.4,7-28.8H196.9z M192.8,59c2.8,2.1,7,5,9,6.9l2.4-5
		c-2-1.7-6.4-4.4-9.1-6.2L192.8,59z M203.3,47.9v17c0,3.1,0.3,4,1,4.8c0.7,0.8,1.9,1.1,2.9,1.1c0.6,0,1.3,0,1.9,0
		c0.8,0,1.8-0.2,2.4-0.7c0.6-0.5,1-1.2,1.3-2.2c0.2-1,0.4-3.5,0.5-5.5c-1.2-0.4-2.6-1.1-3.5-1.9c0,2,0,3.6-0.1,4.3
		c0,0.7-0.1,1-0.2,1.2c-0.1,0.1-0.2,0.2-0.3,0.2c-0.1,0-0.2,0-0.3,0c-0.1,0-0.2,0-0.3-0.2s0-0.6,0-1.5V47.9H203.3z M186.1,73.5
		c0.4,2.4,0.6,5.5,0.6,7.4l5.8-0.7c0-1.9-0.4-4.9-1-7.3L186.1,73.5z M194.1,73.5c0.8,2.3,1.5,5.4,1.7,7.3l5.9-1
		c-0.3-1.9-1.2-4.9-2.1-7.2L194.1,73.5z M202,73.4c1.7,2.5,3.6,5.8,4.4,7.9l6.1-1.9c-1-2.2-3.2-5.4-4.8-7.7L202,73.4z M179,71.9
		c-1,2.7-2.9,5.5-4.6,7l5.6,2.3c1.9-2,3.7-5,4.7-7.9L179,71.9z M179.1,52.7c-0.2,2.4-0.8,3.5-4.8,4.2c0.8,0.8,1.9,2.4,2.3,3.4
		c5.4-1.2,6.6-3.6,6.8-7.6H179.1z M184.6,52.6v2c0,2.9,0.6,4.2,3.8,4.2c0.6,0,1.6,0,2.1,0c0.8,0,1.7,0,2.3-0.2
		c-0.2-1-0.2-2.2-0.3-3.2c-0.5,0.2-1.6,0.2-2.1,0.2c-0.3,0-0.8,0-1.1,0c-0.6,0-0.6-0.3-0.6-1v-2H184.6z M216.1,44.5v5.2H235v-5.2
		H216.1z M222.6,46.4c-1.6,4.7-4.7,9-8.5,11.6c1.3,0.8,3.6,2.7,4.6,3.7c3.8-3.1,7.5-8.3,9.5-13.9L222.6,46.4z M222.6,51.6l-2.3,4.5
		h10.8v-4.5H222.6z M229.2,51.6v0.8c-1.6,7.8-6.8,13.1-14.7,15.1c1.1,1.2,2.5,3.5,3.1,5c9.1-3.1,14.9-9.1,17.2-19.9l-3.5-1.1l-1,0.2
		H229.2z M219,59.8c1.7,1.2,3.8,3.1,4.8,4.4l3.7-3.9c-1.1-1.2-3.3-2.9-5-3.9L219,59.8z M235.9,45.6v18h5.8v-18H235.9z M244.7,43.6
		v21.8c0,0.6-0.2,0.8-1,0.8s-3.2,0-5.2-0.1c0.8,1.5,1.7,3.9,2,5.5c3.3,0,5.8-0.1,7.6-1c1.9-0.9,2.5-2.3,2.5-5.2V43.6H244.7z
		 M226.6,72.8c0.4,2.6,0.7,6,0.7,8l5.8-0.8c0-2-0.5-5.3-1-7.8L226.6,72.8z M234.5,73c0.8,2.5,1.7,5.8,1.9,7.9l5.9-1.1
		c-0.3-2.1-1.3-5.2-2.3-7.7L234.5,73z M242.4,72.8c1.7,2.7,3.7,6.2,4.6,8.5l6-2c-1-2.3-3.2-5.7-5-8.2L242.4,72.8z M219.2,71.2
		c-0.9,2.9-2.6,6.1-4.3,7.8l5.7,2.3c1.9-2.2,3.5-5.6,4.4-8.7L219.2,71.2z M255.6,44.6v5h12.7v-5H255.6z M254.7,57.6v5.1h15.3v-5.1
		H254.7z M260.3,60.5V75c0,0.4-0.2,0.6-0.7,0.6c-0.6,0-2.5,0-4,0c0.8,1.5,1.5,3.9,1.7,5.6c2.7,0,4.8-0.1,6.5-1
		c1.7-0.9,2.1-2.4,2.1-5V60.5H260.3z M266.6,44.6v1c-0.8,2.1-3,5.3-4.8,7.2c0.9,0.8,2.5,2.4,3.2,3.5c2.6-2.4,5.5-6.2,7.5-9.4
		l-3.5-2.5l-1,0.3H266.6z M268.2,57.6v0.6c-0.4,3-1.2,6.8-1.8,9.1l4.3,0.9c0.8-2.5,1.8-6.5,2.6-10l-3.6-0.8l-0.8,0.2H268.2z
		 M256.1,54.2c3.3,1.6,7.6,4.1,9.5,6.1l3.1-4.3c-2.1-1.9-6.4-4.2-9.7-5.6L256.1,54.2z M271.9,44.4v4.9h20.7v-4.9H271.9z M278.5,61.2
		h7.4V63h-7.4V61.2z M278.5,66.9h7.4v1.8h-7.4V66.9z M278.5,55.5h7.4v1.8h-7.4V55.5z M273.2,51.3v21.6h18.3V51.3H273.2z M279.3,47.1
		c-0.1,2.1-0.4,4.8-0.8,6.7l5.1,0.9c0.7-1.7,1.6-4.3,2.4-6.9L279.3,47.1z M277,72.6c-1.8,1.7-5.3,3.9-8.3,5c1.2,1,2.9,2.7,3.9,3.8
		c3.1-1.2,6.9-3.5,9.2-5.6L277,72.6z M282.7,75.8c2.2,1.7,5.1,4.1,6.4,5.6l4.6-3.3c-1.6-1.5-4.6-3.7-6.7-5.2L282.7,75.8z M315.2,50
		v5.5h13.6V50H315.2z M326.5,50v1.2c-0.3,15.5-0.7,22.2-1.9,23.6c-0.4,0.5-0.9,0.7-1.7,0.7c-1.1,0-3.3,0-5.8-0.2
		c1,1.7,1.9,4.2,1.9,5.8c2.4,0.1,5,0.1,6.6-0.2c1.8-0.3,3.1-0.8,4.4-2.6c1.6-2.2,2-8.5,2.4-25.5c0-0.7,0-2.7,0-2.7H326.5z M316,43
		c-1,5.5-3.1,11.1-5.9,14.4c1.4,0.8,3.9,2.4,5,3.3c2.8-3.9,5.3-10.3,6.6-16.6L316,43z M314.1,62.4c2.7,2.6,5.7,6.2,6.9,8.7l4.3-3.4
		c-1.3-2.5-4.6-5.9-7.2-8.3L314.1,62.4z M306.5,59.5c1,2.9,2,6.8,2.3,9.1l4.8-1.4c-0.4-2.3-1.5-6-2.6-8.9L306.5,59.5z M302.7,70.8
		c0.5,2.9,1,6.7,1.1,9.2l4.8-1.3c-0.2-2.5-0.8-6.2-1.4-9.1L302.7,70.8z M297.6,70c-0.4,3.2-1.4,6.8-2.5,9.1c1.3,0.4,3.7,1,4.9,1.7
		c1-2.4,2.1-6.3,2.6-9.8L297.6,70z M296.9,59.5c0-1,3.1-2.6,3.1-2.6v-0.1c2.8-3.1,5.9-7.5,8-11.7l-5.3-2.3c-1.5,4.2-4.2,8.5-5.1,9.6
		c-0.9,1.2-1.6,1.9-2.5,2.1C295.8,55.9,296.7,58.5,296.9,59.5z M296.9,59.5c0.9-0.4,2.3-0.8,8.5-1.3c0-1.1,0.3-3.1,0.6-4.6l-7,0.4
		l-2.3,1.5L296.9,59.5z M297.1,69c0-1,3.5-2.6,3.5-2.6v-0.2c4.4-3.9,8.9-9.2,12.2-14.5l-4.8-3.2c-2.9,5.6-7.5,11.2-9.1,12.6
		c-1.5,1.5-2.4,2.3-3.6,2.6C295.9,65.3,296.8,68,297.1,69z M297.1,69c1.2-0.6,3-1.1,13.1-2.7c0-1.1,0.1-3.3,0.3-4.7l-11.3,1.5
		l-2.4,1.6L297.1,69z M307.6,70c0.9,2.4,1.9,5.5,2.3,7.5l4.4-1.7c-0.5-2-1.5-5-2.5-7.3L307.6,70z M337.7,49.9V71h5.9V55.6h21.7v15.2
		h6.2V49.9H337.7z M340.8,63.2v5.8h28v-5.8H340.8z M351.4,43v38.3h6.2V43H351.4z"/>
</g>
</svg>
