<svg width="31" height="43" viewBox="0 0 31 43" fill="none" xmlns="http://www.w3.org/2000/svg">
<path d="M29.7128 8.24478L15.3564 1L1 8.24478V26.7592H12.1365V21.0033C12.1365 19.2239 13.577 17.7834 15.3564 17.7834C17.1358 17.7834 18.5763 19.2239 18.5763 21.0033V26.7592H29.7128V8.24478V8.24478Z" stroke="#D08421" stroke-miterlimit="10"/>
<path d="M5.1637 39.8325V42.2474H4.46767V39.8809C4.46767 39.663 4.46767 39.4815 4.44951 39.2636C4.40714 38.7612 4.13478 38.3739 3.46901 38.386C2.79719 38.4041 2.22826 38.8883 2.22826 40.3591V42.2474H1.53223V36.2495H2.22826V38.6886L2.49457 38.1923C2.85771 37.9078 3.17244 37.8352 3.61427 37.8352C4.5524 37.8352 5.07896 38.3375 5.14554 39.0941C5.1637 39.312 5.1637 39.4815 5.1637 39.8325Z" fill="black"/>
<path d="M12.8806 40.0988C12.8806 41.3093 12.2087 42.3624 10.7501 42.3624C9.29145 42.3624 8.61963 41.3093 8.61963 40.0988C8.61963 38.8883 9.29145 37.8352 10.7501 37.8352C12.2087 37.8352 12.8806 38.8823 12.8806 40.0988ZM12.1179 40.0988C12.1179 39.088 11.6156 38.3738 10.7501 38.3738C9.88459 38.3738 9.38224 39.088 9.38224 40.0988C9.38224 41.1096 9.88459 41.8237 10.7501 41.8237C11.6156 41.8237 12.1179 41.1035 12.1179 40.0988Z" fill="black"/>
<path d="M22.1227 39.6207V42.2474H21.4266V39.9475C21.4266 39.5662 21.4206 39.3302 21.3964 39.1123C21.3298 38.6281 21.0211 38.392 20.5369 38.392C19.9922 38.392 19.5988 38.8218 19.5988 40.1291V42.2535H18.9028V39.9536C18.9028 39.5723 18.8967 39.3362 18.8725 39.1183C18.8059 38.6341 18.4973 38.3981 18.0131 38.3981C17.4683 38.3981 17.0749 38.8278 17.0749 40.1351V42.2596H16.3789V37.9623H17.0749V38.5857L17.3473 38.1015C17.5652 37.926 17.8739 37.8473 18.2552 37.8473C18.9088 37.8473 19.3325 38.1802 19.4959 38.6523L19.8772 38.1015C20.0951 37.926 20.4038 37.8473 20.7851 37.8473C21.5538 37.8473 21.9956 38.3013 22.0924 38.8944C22.1227 39.1123 22.1348 39.2817 22.1348 39.6328L22.1227 39.6207Z" fill="black"/>
<path d="M29.4401 40.3107H26.3291C26.3957 41.4485 26.9283 41.8298 27.5638 41.8298C28.1206 41.8298 28.5746 41.4788 28.6714 40.8675H29.4038C29.2343 41.9025 28.4172 42.3685 27.5336 42.3685C26.4139 42.3685 25.5786 41.6362 25.5786 40.123C25.5786 38.731 26.4441 37.8473 27.6243 37.8473C28.8046 37.8473 29.4643 38.731 29.4643 39.9899C29.4643 40.0565 29.4643 40.1654 29.4461 40.3228L29.4401 40.3107ZM26.3352 39.778H28.7501C28.6835 38.8883 28.3022 38.3739 27.6001 38.3739C26.898 38.3739 26.4139 38.8581 26.3352 39.778Z" fill="black"/>
</svg>
