<svg width="38" height="43" viewBox="0 0 38 43" fill="none" xmlns="http://www.w3.org/2000/svg">
<path d="M0.702076 41.0183C0.702076 41.1454 0.702075 41.2846 0.708127 41.4238C0.726284 41.7022 0.853386 41.787 1.23469 41.7507V42.253C1.08338 42.2772 0.901805 42.2833 0.738391 42.2833C0.332881 42.2833 0.0302609 42.1562 0.00605136 41.6115C-1.01574e-06 41.4662 0 41.2786 0 41.0425V36.2914H0.696024V41.0183H0.702076Z" fill="black"/>
<path d="M7.21448 40.1044C7.21448 41.3149 6.54267 42.368 5.08405 42.368C3.62543 42.368 2.95361 41.3149 2.95361 40.1044C2.95361 38.8939 3.62543 37.8408 5.08405 37.8408C6.54267 37.8408 7.21448 38.8879 7.21448 40.1044ZM6.45189 40.1044C6.45189 39.0937 5.94954 38.3795 5.08405 38.3795C4.21856 38.3795 3.71621 39.0937 3.71621 40.1044C3.71621 41.1152 4.21856 41.8294 5.08405 41.8294C5.94954 41.8294 6.45189 41.1091 6.45189 40.1044Z" fill="black"/>
<path d="M12.8067 39.3963H12.0744C11.9231 38.7063 11.5478 38.3734 10.9729 38.3734C10.3011 38.3734 9.73213 38.9 9.73213 40.0621C9.73213 41.3088 10.2829 41.8294 10.9245 41.8294C11.4934 41.8294 11.8868 41.5025 12.0381 40.8791H12.7704C12.5586 41.8778 11.8444 42.3619 10.8881 42.3619C9.80476 42.3619 8.97559 41.678 8.97559 40.1105C8.97559 38.6579 9.9137 37.8408 10.9971 37.8408C12.0805 37.8408 12.6857 38.4582 12.8128 39.3963H12.8067Z" fill="black"/>
<path d="M17.2736 41.6357L17.0375 42.0956C16.747 42.3014 16.3718 42.3619 15.9602 42.3619C15.1795 42.3619 14.5742 41.9322 14.5742 41.1394C14.5742 40.1649 15.3066 39.6626 16.9891 39.6626H17.2675V39.5476C17.2675 39.36 17.2675 39.1905 17.2494 39.0271C17.2191 38.6276 16.9891 38.3674 16.4141 38.3674C15.8392 38.3674 15.5365 38.6821 15.4881 39.2752H14.7558C14.8224 38.3613 15.4639 37.8348 16.4081 37.8348C17.4309 37.8348 17.8607 38.2645 17.9333 38.9726C17.9514 39.1421 17.9575 39.3539 17.9575 39.5415V41.1575C17.9575 41.4844 17.9757 41.7749 18.0362 42.253H17.3402L17.2675 41.6357H17.2736ZM17.2675 40.6249V40.1891C16.0813 40.0984 15.3368 40.3526 15.3368 41.091C15.3368 41.6115 15.6697 41.8354 16.1963 41.8354C16.8439 41.8354 17.2675 41.4057 17.2675 40.6249Z" fill="black"/>
<path d="M21.2922 40.9941C21.2922 41.1394 21.2922 41.212 21.2982 41.327C21.3285 41.7385 21.504 41.8293 22.0427 41.7627V42.2711C21.843 42.3014 21.6432 42.3135 21.4496 42.3135C20.9169 42.3135 20.6385 42.0956 20.5962 41.557C20.5901 41.442 20.5901 41.2664 20.5901 41.0244V38.5187H20.0151V37.9861H20.5901V36.9874H21.2861V37.9861H22.0911V38.5187H21.2861V40.9941H21.2922Z" fill="black"/>
<path d="M25.0564 36.9874C25.0564 37.2416 24.8627 37.4353 24.6085 37.4353C24.3543 37.4353 24.1606 37.2416 24.1606 36.9874C24.1606 36.7332 24.3543 36.5396 24.6085 36.5396C24.8627 36.5396 25.0564 36.7332 25.0564 36.9874ZM24.2635 42.2469V37.9498H24.9596V42.2469H24.2635Z" fill="black"/>
<path d="M31.3693 40.1044C31.3693 41.3149 30.6975 42.368 29.2388 42.368C27.7802 42.368 27.1084 41.3149 27.1084 40.1044C27.1084 38.8939 27.7802 37.8408 29.2388 37.8408C30.6975 37.8408 31.3693 38.8879 31.3693 40.1044ZM30.6067 40.1044C30.6067 39.0937 30.1043 38.3795 29.2388 38.3795C28.3733 38.3795 27.871 39.0937 27.871 40.1044C27.871 41.1152 28.3733 41.8294 29.2388 41.8294C30.1043 41.8294 30.6067 41.1091 30.6067 40.1044Z" fill="black"/>
<path d="M37.1129 39.8381V42.253H36.4168V39.8865C36.4168 39.6686 36.4168 39.4871 36.3987 39.2692C36.3563 38.7668 36.084 38.3916 35.4182 38.3916C34.7524 38.3916 34.1775 38.8939 34.1775 40.3647V42.253H33.4814V37.9558H34.1775V38.6942L34.4438 38.1979C34.8069 37.9135 35.1216 37.8408 35.5635 37.8408C36.5016 37.8408 37.0281 38.3432 37.0947 39.0997C37.1129 39.3176 37.1129 39.4871 37.1129 39.8381Z" fill="black"/>
<path d="M18.5629 1C13.5213 1 9.42383 5.09746 9.42383 10.1391C9.42383 16.4699 18.569 27.2915 18.569 27.2915C18.569 27.2915 27.702 16.1612 27.702 10.1391C27.702 5.09746 23.6045 1 18.5629 1ZM21.3228 12.8143C20.5602 13.5769 19.5616 13.9521 18.5629 13.9521C17.5643 13.9521 16.5656 13.5708 15.803 12.8143C14.2839 11.2951 14.2839 8.81967 15.803 7.30053C16.5414 6.56214 17.5159 6.15664 18.5629 6.15664C19.61 6.15664 20.5844 6.56214 21.3228 7.30053C22.842 8.81967 22.842 11.2951 21.3228 12.8143Z" stroke="#D08421" stroke-miterlimit="10"/>
</svg>
