<?xml version="1.0" encoding="utf-8"?>
<!-- Generator: Adobe Illustrator 27.0.0, SVG Export Plug-In . SVG Version: 6.00 Build 0)  -->
<svg version="1.1" id="圖層_1" xmlns="http://www.w3.org/2000/svg" xmlns:xlink="http://www.w3.org/1999/xlink" x="0px" y="0px"
	 viewBox="0 0 58.5 43" style="enable-background:new 0 0 58.5 43;" xml:space="preserve">
<style type="text/css">
	.st0{fill:none;stroke:#D08421;stroke-miterlimit:10;}
</style>
<path class="st0" d="M29.8,0.8c-7.3,0-13.1,5.6-13.1,12.4c0,4.1,2.1,7.6,5.3,9.9l-0.4,4.1l4.3-2.2c1.2,0.4,2.6,0.6,3.9,0.5
	c7.3,0,13.1-5.6,13.1-12.4C43,6.3,37.1,0.8,29.8,0.8z M37.1,10.8c-2,2.1-3.9,4.2-5.9,6.3c-0.1,0.1-0.2,0.1-0.3,0
	c-0.9-0.9-1.8-1.8-2.7-2.8c-0.1-0.1-0.2-0.1-0.3-0.1c-1.7,1-3.4,1.9-5.1,2.9c-0.1,0-0.1,0.1-0.3,0.1c0.2-0.2,0.3-0.3,0.4-0.5
	c1.9-2,3.7-4,5.6-5.9c0.1-0.1,0.2-0.1,0.3,0c0.9,0.9,1.8,1.8,2.6,2.8c0.1,0.1,0.2,0.2,0.4,0.1c1.7-1,3.4-1.9,5.2-2.9
	c0.1,0,0.1-0.1,0.2-0.1C37.1,10.7,37.1,10.7,37.1,10.8z"/>
<g>
	<g>
		<path d="M6.4,38.3v2.9H5.7v-2.5c0-0.4,0-0.7,0-0.9c-0.1-0.5-0.4-0.8-0.9-0.8c-0.6,0-1,0.5-1,1.9v2.3H2.9v-2.5c0-0.4,0-0.7,0-0.9
			c-0.1-0.5-0.4-0.8-0.9-0.8c-0.6,0-1,0.5-1,1.9v2.3H0.1v-4.7h0.8v0.7l0.3-0.5c0.2-0.2,0.6-0.3,1-0.3c0.7,0,1.2,0.4,1.4,0.9L4,36.6
			c0.2-0.2,0.6-0.3,1-0.3c0.8,0,1.3,0.5,1.4,1.1C6.4,37.7,6.4,37.9,6.4,38.3z"/>
	</g>
	<g>
		<path d="M13.4,39H10c0.1,1.2,0.7,1.7,1.4,1.7c0.6,0,1.1-0.4,1.2-1.1h0.8c-0.2,1.1-1.1,1.6-2.1,1.6c-1.2,0-2.1-0.8-2.1-2.5
			c0-1.5,0.9-2.5,2.2-2.5c1.3,0,2,1,2,2.3C13.5,38.7,13.5,38.8,13.4,39z M10,38.4h2.6c-0.1-1-0.5-1.5-1.3-1.5
			C10.7,36.9,10.1,37.4,10,38.4z"/>
	</g>
	<g>
		<path d="M19.5,37.8h-0.8c-0.1-0.6-0.4-0.9-1-0.9c-0.5,0-0.8,0.3-0.8,0.7c0,0.5,0.4,0.7,1,0.8c1.1,0.3,1.6,0.7,1.6,1.5
			c0,0.9-0.8,1.3-1.8,1.3c-1,0-1.7-0.4-1.8-1.5h0.8c0.1,0.7,0.6,0.9,1.1,0.9c0.5,0,0.9-0.2,0.9-0.7c0-0.5-0.3-0.7-1.1-0.9
			c-0.8-0.2-1.5-0.6-1.5-1.4c0-0.9,0.7-1.4,1.6-1.4C18.8,36.3,19.4,36.9,19.5,37.8z"/>
	</g>
	<g>
		<path d="M25.4,37.8h-0.8c-0.1-0.6-0.4-0.9-1-0.9c-0.5,0-0.8,0.3-0.8,0.7c0,0.5,0.4,0.7,1,0.8c1.1,0.3,1.6,0.7,1.6,1.5
			c0,0.9-0.8,1.3-1.8,1.3c-1,0-1.7-0.4-1.8-1.5h0.8c0.1,0.7,0.6,0.9,1.1,0.9c0.5,0,0.9-0.2,0.9-0.7c0-0.5-0.3-0.7-1.1-0.9
			c-0.8-0.2-1.5-0.6-1.5-1.4c0-0.9,0.7-1.4,1.6-1.4C24.7,36.3,25.3,36.9,25.4,37.8z"/>
	</g>
	<g>
		<path d="M32.1,39h-3.4c0.1,1.2,0.7,1.7,1.4,1.7c0.6,0,1.1-0.4,1.2-1.1h0.8c-0.2,1.1-1.1,1.6-2.1,1.6c-1.2,0-2.1-0.8-2.1-2.5
			c0-1.5,0.9-2.5,2.2-2.5c1.3,0,2,1,2,2.3C32.1,38.7,32.1,38.8,32.1,39z M28.7,38.4h2.6c-0.1-1-0.5-1.5-1.3-1.5
			C29.3,36.9,28.8,37.4,28.7,38.4z"/>
	</g>
	<g>
		<path d="M39,38.5v2.6h-0.8v-2.6c0-0.2,0-0.4,0-0.7c0-0.6-0.3-1-1.1-1c-0.7,0-1.4,0.6-1.4,2.2v2.1H35v-4.7h0.8v0.8l0.3-0.5
			c0.4-0.3,0.7-0.4,1.2-0.4c1,0,1.6,0.6,1.7,1.4C39,37.9,39,38.1,39,38.5z"/>
	</g>
	<g>
		<path d="M46.3,40c0,0.3,0,0.7,0,0.9c0,1.4-0.9,2.1-2.2,2.1c-1.3,0-2-0.6-2.1-1.6l0-0.1h0.8l0,0.1c0.1,0.6,0.5,1,1.3,1
			c0.9,0,1.4-0.5,1.5-1.4c0-0.2,0-0.4,0-0.5v-0.1l-0.4,0.5c-0.3,0.2-0.8,0.4-1.2,0.4c-1.4,0-2.1-1-2.1-2.4c0-1.7,1.1-2.6,2.3-2.6
			c0.4,0,0.9,0.1,1.1,0.3l0.3,0.5v-0.6h0.8V40z M45.5,38.8v-0.3c0-1.2-0.8-1.7-1.4-1.7c-0.8,0-1.5,0.6-1.5,1.9
			c0,1.1,0.5,1.9,1.4,1.9C44.8,40.7,45.5,40.2,45.5,38.8z"/>
	</g>
	<g>
		<path d="M53.3,39h-3.4c0.1,1.2,0.7,1.7,1.4,1.7c0.6,0,1.1-0.4,1.2-1.1h0.8c-0.2,1.1-1.1,1.6-2.1,1.6c-1.2,0-2.1-0.8-2.1-2.5
			c0-1.5,1-2.5,2.2-2.5c1.3,0,2,1,2,2.3C53.4,38.7,53.4,38.8,53.3,39z M49.9,38.4h2.6c-0.1-1-0.5-1.5-1.3-1.5
			C50.6,36.9,50,37.4,49.9,38.4z"/>
	</g>
	<g>
		<path d="M58.4,36.4V37c-0.8-0.1-1.4,0.4-1.4,1.5v2.7h-0.8v-4.7H57v0.7l0.4-0.6c0.2-0.1,0.4-0.2,0.7-0.2
			C58.2,36.3,58.3,36.3,58.4,36.4z"/>
	</g>
</g>
</svg>
