<?xml version="1.0" encoding="utf-8"?>
<!-- Generator: Adobe Illustrator 26.5.0, SVG Export Plug-In . SVG Version: 6.00 Build 0)  -->
<svg version="1.1" id="圖層_1" xmlns="http://www.w3.org/2000/svg" xmlns:xlink="http://www.w3.org/1999/xlink" x="0px" y="0px"
	 viewBox="0 0 556 124" style="enable-background:new 0 0 556 124;" xml:space="preserve">
<style type="text/css">
	.st0{fill:#FFFFFF;}
</style>
<path class="st0" d="M291,56.5l-1-1.4c7.1-8.7,13.4-20.2,16.9-33.2l0,0c3.1,1.4,19.1,4.8,9.9,6.8C310.7,30.2,315.6,38.8,291,56.5z
	 M302.4,35.8c17.9,2.7,8.6,4.4,8.3,8.5c0,0,0,28,0,28c0,2.6-10.7,5.2-10.3,0C301.9,54.4,299.6,45.4,302.4,35.8z M304.5,79.6l1.6,0.4
	c1.5,27.9-14.8,20.3-14.9,15.2C291,89.8,299.6,93.7,304.5,79.6L304.5,79.6z M311,76c9,1.3,20.5,1.8,11.6,6.4
	c-1.4,0.8-1.5,10.6,0,11.6c2.5,1.7,16.3,1.5,22.1,1.1c5.5-0.5,4.6-2.5,6.3-11.8l1.6,0.3c-0.7,13.1,5.4,10,5.1,13.6
	c-0.4,5.1-4.7,6.3-22.4,6.6C304.7,104.1,314.7,100.6,311,76L311,76z M322.9,46.4c3.7,1.6,10.7,2.2,12,4.8c0.4,1.5-4.4,1.4-4.7,2.4
	c-4.3,7.1-8,10.6-15,15.1l-0.7-1.3C318,61.7,321.2,54.5,322.9,46.4L322.9,46.4z M326,22c3,1.3,18.5,4.5,10,6.6
	c-3.8,0.5-3.9,4.7-6,6.7h22.9c4.4-2.5,4.4-5.2,6.7-3.5c14.8,10.5,5.4,9.6,4.1,9.8c-2.2,1.4-7.1,4.4-10.4,5.7l-1.3-0.8
	c0.9-2.8,1.7-5.6,2.4-8.6h-8.3v26c0,7.4-5.2,10.2-9.8,10.8c-2.8,0,0.2-7.2-10.3-10.4l0.3-1.4c8.5,1.2,10.6,2.4,10.6-1.5
	c0,0,0-23.4,0-23.4h-8.9c-3.4,4.2-7,7.3-12.4,10.9l-0.9-1.4C319.5,40.5,323.6,31.7,326,22L326,22z M328.4,74.6
	c24.5,4.5,12.6,17,9.2,16.2c-4.7-1.1-1.4-6-9.9-14.8L328.4,74.6L328.4,74.6z M350.6,48.3c22.2,8.2,16,18.8,9.8,19.4
	c-5.6,0.6-0.5-7-11.3-18.5L350.6,48.3L350.6,48.3z M355.4,77.4c26.7,11.8,10.7,23.1,7,19.5c-3.6-3.5-0.9-6.5-8-18.7L355.4,77.4
	L355.4,77.4z M399.5,22.7c17.1,2.5,12.4,5.1,9.6,5.9c-0.8,0.2-5,8.7-10.4,12.5h5.6c2-2.1,3.5-5.3,5.9-5.9c1.1-0.4,9.8,5.8,9.2,6.8
	c0.1,1.8-3,3-2.7,5.1c0.1,9.5-0.3,42.3,0.4,51.5c0.5,1.6-5.3,3.1-7.2,2.9c-3.4,0.3-2.2-5.1-2.4-7.2h-11c-0.4,3.7,1.9,8-4.2,8.6
	c-8.3,2.4-4.5-7.3-5.1-12c-0.2-9.5,0.6-45.8-0.7-54.6c3.3,0.9,6.6,2.1,9.8,3.7C398.1,34.2,399.2,28.4,399.5,22.7L399.5,22.7z
	 M396.4,65.2h11V43.6h-11V65.2z M396.4,91.8h11v-24h-11V91.8z M427.1,21.9c5.1,1.8,20.9,4.4,8.3,8.3c-1,3.6-2,6.9-3.1,9.8H446
	c2.4-2.5,4.2-4.4,6.1-5.1c1.6-0.3,10.3,6.4,9.7,7.9c0.4,1.4-3.9,2.8-3.8,4.4c-1.6,20.3,2.3,58.7-17.2,58.7c-3.8,0,1.8-6.9-13.3-11.5
	l0.4-1.5c13.9,1.1,15,1.6,16.5-4.5c2.6-10.7,3.2-34.7,3.2-45.9h-16.3c-3.3,7.9-7,13.7-12.7,21l-1.3-1.5
	C423.3,47.4,425.2,38,427.1,21.9L427.1,21.9z M425.8,56.2c26.4,12.1,9.5,26.7,5.7,22.5c-2.3-2.6,0.1-7.7-7.3-21.2L425.8,56.2
	L425.8,56.2z M507.8,21.7c2.7,0.6,22.5,1.3,13.9,5.6c-3.1,1.2-2.2,3.8-2.3,6.2h20.9c1.9-1.5,3.9-4.3,5.6-4.6
	c0.8-0.5,10.4,7.4,9.8,8.9c0.3,1.9-4.5,1.4-4.8,1.9c-2.3,1.5-5,3-8.1,4.5c1.7,2,2.5,3.7,0.4,4.1c0,0-25.3,0-25.3,0
	c-3,2.6-5.8,4.8-8.3,6.5c5.5,4.4,8.4,7.8,10.6,12.4c5.7-3.5,12.5-9.4,15.1-14.6c2.5,2,15.9,7.4,8.8,8.8c-1.5,0-2.5,0.3-2.7,0.9
	c-6.7,3.6-10.8,5.2-19.5,7c8.5,9.4,20,15,31.2,17.8l-0.3,2.2c-4.5,0.6-4.9,7.3-7.5,8.6c-6.3-1.9-16.6-11.5-21.7-18.4
	c0.7,11.4-0.8,24.1-11.1,26.9c-2,0.5,0.3-6.3-12.1-9.3l0.3-1.5c11.3,1.2,13.7,0.6,13.4-11.4c-12.6,7.4-21.3,10-37.6,14l-0.8-1.9
	c15.9-6.8,24.1-11.4,37.9-22.9c-0.2-1.4-0.4-2.8-0.6-4.2c-11.8,7.9-20.4,10.6-35.8,14.6l-0.7-1.7c14.1-6.7,21.3-11.3,33.6-22.3
	c-0.7-1.5-1.6-2.8-2.5-3.8c-9.3,5.5-19.9,8.4-31.1,10.6l-0.8-1.9c10.4-3.3,20.9-8.7,28.1-16.5c-4.5,0-14,0-16.7,0.4l-1.5-3.7
	c6.8,1.3,36.6,0.5,44.5,0.7c3.2-2.5,5-10.7,9.7-5c0.7-1.6,1.4-3.1,2-4.7H487c0.8,12.9-10.4,14.9-12.4,9c-1.4-4.1,6.9-3.5,9-15.9
	l1.6-0.4c0.7,1.8,1.2,3.3,1.5,4.6h22.1C509,29.5,508.8,25.7,507.8,21.7z M256.5,103.4c0.3-0.8,0.8-1.8-0.1-2.4l0,0
	C256.5,102.2,256.5,103.5,256.5,103.4z M230.4,83.7c1.2,0.3,1.6-0.2,1.4-1.6C231,82,230.4,82.6,230.4,83.7z M226.1,95.4
	c-0.7,0.2-0.3,0.5,0.1,1C226.6,96,226.6,95.7,226.1,95.4L226.1,95.4z M271.1,68.8c-1.1-1.2-2.1-2.7-3.9-3.1
	c-1.7-2.1-3.8,0.8-5.9-0.1c-1.9,0.7,2.2,1.6-2.4,3.2c-2.1-6.3,1.5-5.5,3.5-9.5c1.4-0.5,2.2-2.3,1.6-3.6h-0.3
	c-0.4,0.7-0.8,1.4-1.2,2.1c-2.5-1.2,0.1-1.9,1.1-3.1c1.1-2.3-2.5-1.4-3.7-1.4c-1.1-0.2-0.3-1.6-0.4-2.4c0-1.3,0.6-0.3,1.2-0.6
	c-0.8-2.1,2.6-3.7-0.4-5.1c-0.4-0.2-0.6-0.4-0.4-0.9c0.4-1.5-1.3-2.8-2.2-3.6c-5.8,4.1-1.5,7.6-2.5,13c-6.2,3.8-11.3,9.8-17,14.5
	c0-7.2-3.1-8.5,3-14.7c1.4-3,2.2-0.7,2.3-2.2c-0.2-2.7,1.2-5.3,3.4-6.8c2.8-2.1,6.7-2.1,9-4.6c4.1-3.8,2.1-10.6-3.5-5.7
	c-0.2-0.2-0.3-0.3-0.4-0.4c-0.4,0.5-0.7,1.8-1.4,1.2c-0.8-0.4-0.2-0.9-0.2-1.5c-0.5,0.4-1.3,0.9-1.3,1.5c0.5,1.4-1.1,1.9-1.4,3
	c0.8,3.5-1.8,5.5-4,7.7c-1.6,1.2-1.2-1.7-1.2-2.6c-0.2-2,1.8-2.6,3.1-3.7c-0.3-0.2-0.5-0.4-0.5-0.4c0.3-1.3,0.2-1.6-1.1-1.5
	c-1.7-5.2,2.5-9.9,7.7-10.4c2.5,0,7.7-1.7,2.8-3.1c0.4-0.5,1-0.7,1.5-0.9c-0.8-0.9,1.2-1.7,0.5-2.1c-2.4-0.6-4.8-0.3-7.3-0.5
	c0.7,1.5,0,1.5-1.1,2c-1.5,1-2,0.2-1.6-1.4c0-0.5,0.2-0.7,0.7-0.8c0.8-0.1,1.6-1.1,2.2-1.3c0.6,0.2,0.6-0.2,0.6-0.5
	c0.3-1.2,2-1.4,2.6-2.5c-0.4-0.8,0.8-1.1,0.7-1.8c-0.3-0.8,0.9-1.1,0.8-1.9c0-0.6-1.3-1.5-0.2-1.7c1.4-2.3-3.1-3.5-4.6-2
	c-0.4,0.2-0.5,0.2-0.7-0.1c-0.5-1.3-1.9-1.6-2.5-2.7c1-0.3,1.9,0.7,2.9,0.8c0.7-4.8-2.4-2.2-3.8-4.2c-0.6-1.9-0.8-3.1-2.9-1.3
	c0.6,0.7,1.4,1.3,2.3,1.9c-0.6,0.5-1.1,1-1.7,1.2c-1.3,0.4-1.3,1.7-2.2,2.3c-0.7,0.4-1.7,0.3-1.8,1.5c-0.7-0.8-0.8-1.3-0.2-2.1
	c-0.2-0.1-0.5-0.2-0.7-0.3c-0.4,1.3,0.3,2.6,0.5,3.9c0.3-0.3,0.2-0.7,0.3-1c2-0.2,1.7,2,2,3.3c2,2.4-8.7,7.9-9.5,5.9
	c-0.1-1.2-2.7-2.7,0.1-2.4c-1.2-1.8-5.4-2.7-5.2,0.5c-0.1,0.8-1.7,0.7-2.2,1.4c-1.5,2.2,0.2,5.4,2.1,6.9c1.6,0.4,3.3,0.2,4.5,1.6
	c1.2,1.2,1.8-0.9,2.9-0.6c2.9,0.2-0.3-4.7,2.2-5.4c1.2-0.9,4.2-3.1,5-0.9c-1.4,5.1-5.4,9.7-10,12.7c-0.1-0.1-0.1-0.1-0.1-0.2
	c-1.1-0.5-1.8-0.1-2.1,1c-1.1,2.6-4.7,2.3-6.5,4.4c-2.8,1.6,1.9,5.2,3.9,4.6c3.1,0.6,4.7-2.9,7.4-3.9c0,0-0.1-0.1-0.1-0.1
	c-0.4,0.2-0.8,0.4-1.4,0.7v-1c-0.5,0.5-1.2,1.4-1.8,0.7c-1.5,0.3-4,2.8-4.6,0.5c1.3,0.2,1.7-1.1,2.7-1.4c0.6,0,0.7-0.3,0.8-0.8
	c0.1-1,1-0.5,1.7-0.7c0.5-0.2,1-0.6,1.6-0.2c-0.2,0.5-0.6,0.8-0.9,1.2c0.1,0.1,0.2,0.2,0.3,0.3c1.7-2.8,4.9-4.3,7.6-5.8
	c0.5,1.5-1.1,2.2-1.8,3c0.3,0.8-0.4,0.6-0.8,0.7c0.1-0.2,0.2-0.4,0.4-0.8c-1.3,0.5-2.4,0.9-3.5,1.4c0,0,0,0.1,0,0.2
	c0.9-0.1,1.7-0.2,2.7-0.4c-0.4,0.4-0.7,0.6-1,0.9c0,0,0.1,0.1,0.1,0.1c0.9-0.5,1.8-1.3,2.8-1.6c-0.2,2.2-0.4,5.4-1.8,7.1
	c-0.3-0.9-1.6-0.6-1.9-1.5c-5.9-0.1-1.1,2.1-5.2,4.7c-1,0.9-0.2,2.4,0.1,3.5c0.2,1.3,0.2,2.7,1.9,3.1c1.6,2,4.4-2.3,6.1-3.3
	c1.5,2.7,1.1,3.4-1.5,4.9c-1.8,1.1-2.6,3.2-4.1,4.5c-1.4,0.7-2.7,1.6-3.5,3.1c-2,3.1-3.9,6.3-6.2,9.2c-1.1,1.1-3-0.4-4.4-0.3
	c-1.8,0.1-3.5-1.1-5.2-0.5c-0.2,0.1-0.7-0.2-0.7-0.3c-0.2-1.9,1.1-3.8,0.4-5.5c-0.7-1.1-1.1-2.3-1.3-3.6c-0.5-1.9,2.9-2.1,3.9-3.4
	c0.6-0.4,0.5-0.7,0.1-1.3c-0.6-3.3,3.2-5.7,5.5-7.4c1.3-0.8-1.7-1.8-2-2.6c-1.7-2.8-4.7-5.6-8.2-4c-1.8,0.4-0.2-2.1-0.4-2.9
	c0.1-3.1,2.9-3.7,5-5.1c3.1-3.2-2.4-7.2-5.6-6.4c-2.5,0.2-1.6-4.8-2.1-6.6h-0.1c-0.1,0.2-0.1,0.5-0.2,0.8c-0.9-0.5-1-1.9-0.2-2.9
	c0.1,0.5,0.2,0.9,0.3,1.3c0.5-1.8-0.6-1.7-1.1-3c-0.1-1-0.1-1.1-1.1-1.3c-6.8-2.1-11,10.3-8.1,15.3c0.6,0.8,2.1-0.1,2.9-0.2
	c0.7-0.2,1.5-0.1,2-0.7c0.1-0.1,0.6-0.2,0.7-0.1c0.9,1.8-2.5,2.7-3.5,3.8c-1.6,1-3.1,1.7-3-0.9c-0.9,2.7-4.9,3-4.4,5.2
	c0.3,1.2,1.3,3,2.5,3c0.4-0.5,0.8-0.3,1.2-0.1c1.6-0.6,3.9-1.5,4.4-3.3c0.2-0.5,0.7-0.2,0.7,0.4c1.5-0.4,2,0.4,1.9,1.9
	c1.6-2.7,1.2,0.9,1.4,2.1c0.3,1.5-0.3,2.4-1.6,3c-1.6,1.2-3-1.1-4.6-1.3c-1.2-0.3-1.2-0.9-1.3-2c-4.9,1.6-6,5.4-8,9.6
	c-2.7,4.4-6.6,8.7-7.4,13.8c2.6,8.4-12.3,27.5-4.4,32.5c4.8-2,1.2-9.9,4.1-13.9c3.5-9,4-23,14.9-26c1.4,2.3,0.7,3.4-1.5,4.6
	c-1.6,1.2-7.8,4.9-3.4,6c2.1-0.1,1.6,3.2,5.1,1.4c0.5-0.2,1-0.7,1.1-1.4c14-9.7,9-7.3,9.7,5c0,0.3,0.1,0.7-0.5,0.7
	c-2.1-0.2-0.5-1.8-0.5-2.9c-0.1,0-0.2-0.1-0.3-0.1c-1.5,4.9-2.3-1.5-7.1,1.9c-3.9-1.7-3.9-3.7-9-1c-1.3,5.9,0.9,12.2,6.2,15.8
	c0.5,0.3,0.7,0.3,1-0.2c1.2-0.7,3.5,1,4.2-0.7c-0.4-0.8,0.5-2.4,1.3-2.5c0.7,0.2,0.9-0.2,1-0.6c0.7-2-0.3-4.2,2.6-4.3
	c2,0.5,2,4.1,4.1,5.1c0.1,0,0.2-0.1,0.3-0.2c-0.3-0.7-0.5-1.3-0.8-2.1c1.6,0.6,2.7,2,4.3,2.3c-1.2-2.8-0.8-2.2,1.5-3.9
	c1.1-0.2,1.6,0.4,2-1c0.6-1.7,2-2.9,3.2-4.2c2.1,1.5-1.1,5.1,0.9,5.3c6.9,0.9,7-8.8,12.3-11.4c-4,17.9-17.8,14.4-14.6,20.8
	c1.2,0,1.2,3.5,2.5,1.7c0.8-2.7,2.6,0.3,4.1-2.4c1-1.4,1.7,1.6,2.5,2.2c0.1,0,0.2-0.1,0.3-0.1c0.2-0.5,0.4-1.1,0.6-1.7
	c2.1,2.4,1.8-2.7,1.8-3.8c-1.3,0.6-0.6,2.3-1.6,3.2c-0.4-6.9,7.2-10.7,10.3-16.3c-0.3,0.1-0.6,0.3-1.1,0.5c0.5-1.2,1.5-1.6,2.2-2.3
	c0.2,0.5-0.8,1.4-1.1,1.8c2.7-1.3,4.2-4.6,6.7-6c-0.8,3.5-3.6,6.8-3.2,10.6c0.3,0.8,0.1,1.7-0.7,2c-4.6-0.5-3.3,2.8-0.5,4.7
	c7.8,4.4,14.3-7.2,12.7,3.2c-0.7,4.8-1.8,17.3-2,25.2c0.7,3.1-3.6,18.2,2.1,9.9v2.3h0.2c0.2-1,0.3-2.1,0.5-3.2
	c-0.5-0.4-0.5-1.5-1.4-0.9c-0.2-0.7,0-1.5,0.6-2.2c-0.1,0.5-0.1,0.8-0.2,1.4c2.2-2.8,1.1-7.5,1.8-10.9c0.3-1.4-1-0.4-1.7-1.1
	c-0.1-0.4,0.4-0.4,0.6-0.3c2.2,0.3,1.3-3.6,1.6-4.9l0,0c0.3-0.6,0.1-1.3,0.2-2c-0.1,0.5-0.2,1-0.2,1.5c0-1.1,0-2.2,0-2.2
	c0.2,0.2,0.3,0.4,0.3,0.7c1-5.2,0.9-10.7,1.7-16.1c0-1.2,0,3,0.4,1.9c-0.2-6.8,1.4-8.7,7.4-11c0.7-2.3,6.4-2.5,5-5L271.1,68.8z
	 M259.6,57.1c0.1,0,0.4,0.3,0.6,0.4c-0.3,0.2-0.5,0.5-0.9,0.9C258.7,57.7,259,57.5,259.6,57.1L259.6,57.1z M246.5,17.9
	c0.6-0.8,0.9-1.9,1.7-2.4c0.5,1.1-1,2.1-1.5,3c-0.1,0-0.1,0-0.2,0C246.4,18.3,246.4,18,246.5,17.9L246.5,17.9z M252.7,24.3
	c0.6,0.2,0.5,0.8,0,1c-1.1,0.5-1.3-0.8-2.3-1.3C251.3,24.1,252.1,24.2,252.7,24.3z M245.4,27.8c1-2.7,4-4.5,6-1.8
	c-1.9,1.1-4,2.3-6.1,2.7C245.3,28.3,245.3,28,245.4,27.8L245.4,27.8z M240.9,22.2c-0.1-0.5-0.2-1-0.3-1.5
	C241.1,20.8,241.3,21.5,240.9,22.2z M238.4,26.9c-0.5,0.4-0.9,1-1.5,1.1c-0.1-0.6,3.7-4.1,3.8-3.1C240.7,26.5,239,25.9,238.4,26.9z
	 M203.9,53.5c-0.3,0.3-0.3,1-0.5,1.3c-0.4,0.1-0.9,0.3-1.2,0.2c-1.6-0.6,0.2-1.6,0.4-2.5c0.4-1.1,1.9-1,1.9,0.3
	C204.3,53,204.1,53.2,203.9,53.5L203.9,53.5z M197.8,80.5c-1.5,1.6-3.5-2.6-3.3-4.1C197,69.3,200.2,76.2,197.8,80.5L197.8,80.5z
	 M209.5,51.3c-1.9-2.2,1.6-4.3,3.6-4.5C212.7,48.7,211.4,50.4,209.5,51.3z M210.7,66.4v2.2c-0.1,0-0.1,0-0.2,0c-0.4-2.3,0.1-5,0.9-7
	C212.3,61.9,212,67.2,210.7,66.4z M215,74.3c-0.8,1.2-1.7,2.3-2.6,3.4c-0.1,0-0.2-0.1-0.3-0.1c-0.9-2,0-4-0.3-6.2
	C212.9,72.1,215.4,72.9,215,74.3L215,74.3z M254.8,71.4c-0.2,1-1.3,0.9-1.8,1.5h-0.3c-0.3-1.4,1.2-3,2.1-4
	C255.1,69.7,255,70.6,254.8,71.4z M257.9,50.7c0,0.2-0.4,0.3-0.6,0.5c-0.1,0-0.2-0.1-0.2-0.1c-0.1,0.6-0.2,1.1-0.3,1.7
	c-0.1,0-0.1,0-0.2,0c-0.3-1.2,0.1-2.6-0.5-3.7c-0.2-0.8,0.1-1.1,0.8-1.2C258.3,47.7,258.1,49.8,257.9,50.7L257.9,50.7z M230.9,55.2
	c0-1.1-1.6-0.9-1.5,0.3C229.9,56,230.9,56.1,230.9,55.2z M233.7,27.3c-0.6,0.1-0.9,0.7-1.2,1.1c0.1,0,0.1,0.1,0.1,0.1
	c0.4-0.3,0.9-0.7,1.3-1C233.8,27.5,233.8,27.4,233.7,27.3z M235.4,25.8c-0.5,0.5-1,0.9-1.5,1.4C234.8,27.1,235.4,26.5,235.4,25.8z
	 M24,77.4C7.4,93,16.2,91.1,6.4,79.8c3.6,15.1-6.7,16.4,1.1,22.7c1.5-0.4,2,2,3.4,1.6c1.4-0.5,3,0.7,4.3,0.1
	c0.7-0.8,2.1-0.4,2.7-1.2c0.8-1.4,2.7,0.2,3.6-1.9c2-4.6-2.3-4-1-6.6c2.8-5.5,0.1-2.6,2-7.3c-0.2-0.4-0.3-0.7-0.6-1.1
	c-1,1.1-2.1,2.2-3.1,3.3c-0.1,0-0.1-0.1-0.1-0.1c0.5-0.9,1.1-1.9,1.6-2.8c-0.1,0-0.2-0.1-0.3-0.2c-1.1,1.1-2.1,2.3-3.2,3.5
	c0.2,0.4,0.3,0.9,0.5,1.5c-0.6,1.1-1.1,1.1-2,0.2c-1.9-2.4,10.8-10.9,9.8-12.7C24.8,78.1,28.2,74.6,24,77.4L24,77.4z M8.4,41.8
	c-1.7-1.6-6.2-4.3-4.7-6.7C7.5,29.9,6,34,9.4,35.3c1.3,0.8-0.4,2.8,0.7,4c0.1,0.2-0.2,0.5-0.3,0.8c-0.5,2.7,3.2,5.2,5.5,3.5
	c1.1-0.8,0.4-2.3,0.6-3.3c0.5-1.1,1-2.2,1.9-3c1.3-4.4-0.6-3.8-1.4-7.1c0.1-1.5-0.9-2.5-1.7-3.7c-1.5-1.4-3.7,0.3-5.2-0.6
	c-2.5-0.7-4.3,1.6-6.3,2.7c-1.8,2.7-5,5.8-2.2,9c0.5,1.3,0.4,4.2,2.5,3.9C5.2,41.7,6.6,42.6,8.4,41.8z M16.6,57.2
	c-0.6-0.3-1.7-0.8-2.4-0.4c-1.7,2.1-2.6,2.2-1.9-0.7c0.7-2.3-2-5.3-4.3-3.7c-0.8,0.1-0.7-1.1-1.1-1.6c-0.1,0-0.2,0.1-0.3,0.1
	C8.4,53.6,1.8,75.6,8,72.2c1.1-0.2,2.7,0.1,3.6-0.6c0.5-0.7,0.8-0.3,1.3,0c3.2,1.8,10.7-1.4,6.1-5C21.3,63.1,20.1,59.5,16.6,57.2
	L16.6,57.2z M51.6,84.7v-1.6h-0.2c0,0.5,0,1.1,0.1,1.6H51.6L51.6,84.7z M64.5,111.7c-0.4-0.3-0.7-0.7-1.1-1.1c0-0.1,0.1-0.1,0.1-0.2
	c0.2,0,0.4-0.1,0.6-0.1c-4-5-1.2-11.1-1.5-16.7c-0.2-8.1-1.1-16.3-0.8-24.5c0.5,0.1,0.8,0.2,1.1,0.2c1.3-1.9-1.1-3.7-0.6-5.7
	c0-2.1-2.6-2.9-3.7-4.6c-4.3-6.8-11.6,2.7-15.9,5.3c-2.4,0.6-4.3,3.3-2.9,5.6c2,14.2-9.1,43.5,8.6,49.5c4.8,2.1,4.8-2.2,2.9-5.3
	c-0.8-0.3-0.7-1.2-0.9-1.8c-0.1-0.8-0.8-1.6-0.4-2.5c0.4-0.8,0.1-1.6-0.5-2.2c-0.1-0.6-0.3-1.7-1.1-1.9c-5.3-4.7-3.4-13.5-2-19.4
	c1.2-2.7,2.5-11,3.9-3.3c0.5-1.6,0.6-3.1,0-4.8c5.9,1.1-0.2,8,1.9,11.4c-1.6,0.6-1.1-1.4-1.2-2.3c-1.2-1.3-1.6-0.3-1.2-2.7
	c-0.1,0-0.2,0-0.3-0.1c-0.3,1.6-1.2,3.6,0.2,4.9c0.4,0.3,0.7,0.6,0.6,1.2c-1.1,3.1,1.3,5.4,2.2,8.1c0.1,2.3,4.3,2.6,3.4,5
	c-0.5,5.2-0.4,5-5.5,3.2c0.9,1.1,1.2,1.9,1,3.2c0.1,0,0.2,0,0.2,0.1c0.2-0.7,1.1-1,0.8-2c0.4,0.1,0.7,0.2,1.2,0.3
	c-0.4,0.3-0.6,0.5-0.7,0.6c1.2,1.3,3.3,2.5,3.5,4.2c0.2,1.8,1.7,2.1,2.7,3C61.9,120.3,68,114.4,64.5,111.7L64.5,111.7z M53.3,76.9
	c-0.3-0.7-0.7-1.5-1-2.2c0,0,0-0.1,0.1-0.1c1.4,0.7,2.1,1,1.9,2.8C53.9,77.7,53.4,77.3,53.3,76.9z M55.1,89.2
	c-1.2-0.3-1.3-0.5-0.9-2.1C55,87,55.5,88.2,55.1,89.2z M56,72.5c-1.5,3.3-1.4-0.7-3.3-0.9c-0.5-0.1-1-0.3-1.4-0.6
	c-1.1-0.5-2.1,0.4-3.3,0.4c0.1-1,0.2-1.7,0.3-2.5c1.8-0.8,3.2-2.8,4.9-3.6C55.8,66.6,57,69.7,56,72.5L56,72.5z M76.6,38.7
	C72,35.3,67,38.7,62,39.6c0-0.1,0-0.2-0.1-0.2c2.4-2.8,5.8-4.6,8.6-7c-0.6-3.5-4.6-2.9-7.2-2.9c-1.6-0.2-1.2,2.2-2.5,2.8
	c-2.8,3.4-5.1,7.7-8.6,10.5c-0.6-1.5,1.2-3,1.4-4.4c0.1-1.2,1.1-2.2,2.3-2.1c0,0.3-0.1,0.5-0.1,0.7c0,0,0.1,0.1,0.1,0.1
	c0.5-0.5,1.3-0.6,1.6-1.5c-0.5,0.2-0.8,0.3-1.2,0.4c0,0-0.1-0.1-0.2-0.1c1.5-0.9-0.3-2.1-0.7-3c-1.3-2.4,0.9-4.8,1.3-7.1
	c-0.2-1.2,0.8-1.4,1.4-2.1c-0.4,0.1-0.6,0.1-0.8,0.2c0.2-1.3,1.8-0.3,2.5-0.9c1.8-0.9,3.8,0,5.7-1c0.8-0.3,1.7-1.2,2.7-0.5
	c0,0,0.1-0.1,0.2-0.1c-0.3-4.6-2-12-7.9-11.2c-1.7,0-3.9,1.6-5.2-0.1c-1.1-1.7-3.6-2.4-3.8-4.4c-0.1-2.4-4.5-2.7-5.6-0.9
	c-2,1-2.3,4.3-1.3,6.3c1.3,5.3-1.7,6.3-5.6,8.3c-3.6,2.8-8,4.6-11.4,7.4c-0.6,0.9-1.2,1.6-2.5,1.6c-0.8,0.2-0.7,1.3,0.2,1.3
	c0.5,0,1.1-0.1,1.5,0.2c1.7,1.5,1.1,4,2.6,5.6c6.2,6.5,4.8-6.1,13-6.9c2.4,8.4-5.6,5.9-6.2,8.8c0.2,0.5-0.2,1.9-0.6,2.2
	c-2,3.4,3.9,9.9,6.9,5.6c0.7,0.4,2.4,1.9,0.9,2.4c-0.9,0.3-1.2,1.5-2.3,1.3c-0.3,0-0.8,0.1-0.8,0.2c-0.5,1.4-2.1,1.5-3.2,2.4
	c-4.5,2.5-8.6,7.8-13,10.8c-3.3,2.2-0.7,8.5,3,8c2.8-0.8,1.3-0.3,2.4-2.4c4.6-9,13.4-13,22.5-17.4c3-1.1,4.9-4.3,8.3-4.8l0,0
	C64.4,43.6,78.3,44.8,76.6,38.7z M39.8,51c0,0.1,0.1,0.1,0.1,0.2c-1,0.7-2.1,1.4-3.3,2.2C36.7,52.7,39,51.1,39.8,51z M39.6,52.3
	c-0.5,0.3-1.1,0.7-1.6,1C38,53.2,38,53.2,37.9,53c0.5-0.3,1-0.7,1.5-1.1C39.5,52.1,39.6,52.2,39.6,52.3z M29.9,58.2
	c0.7-1.2,5.6-4.8,6.4-4.7C34.2,55.1,32.2,56.8,29.9,58.2z M34.8,55.5C34.8,55.5,34.7,55.5,34.8,55.5c-0.9,0.6-1.4,1.7-2.5,1.9
	C33,56.6,33.9,56.1,34.8,55.5L34.8,55.5c0.6-0.5,1.2-1.1,1.9-1.6c0.1,0.1,0.1,0.2,0.2,0.2C36.3,54.8,35.7,55.3,34.8,55.5z M37.9,55
	c-0.1-0.1-0.1-0.2-0.2-0.4c1.1-0.5,2.2-1.1,3.2-1.7c0,0.1,0.1,0.2,0.2,0.3C40,53.7,39,54.4,37.9,55z M40.1,52c0.1-0.8,0.5-0.9,1-0.7
	c0,0.1,0,0.1,0.1,0.2C40.9,51.6,40.6,51.8,40.1,52z M40.5,50.4c0.5-0.2,1-0.5,1.5-0.8c0,0.1,0.1,0.2,0.1,0.3
	C41.6,50,41.3,50.8,40.5,50.4L40.5,50.4z M44.3,51.5c-0.1-0.1-0.1-0.3-0.2-0.4c0.6-0.3,1.2-0.5,1.9-0.8c0,0.1,0.1,0.2,0.1,0.2
	C45.5,50.8,44.9,51.1,44.3,51.5L44.3,51.5z M62,32.8c0.7,0.6-1.5,2.2-2,1.6C60,33.6,61.5,32.5,62,32.8L62,32.8z M67.3,43.3
	c-2.2,0.9-5.2,1.1-7.1,2.5c-1.4-0.4-2.5,0.8-4,0.9c0.5-2,3.2-1.5,4.7-2.3c2.4-1.5,5.5-1.7,8.4-1.9c0,0.1,0,0.2,0,0.3
	C68.7,42.9,68,43.1,67.3,43.3z M74.9,42c-0.3,0-0.6-0.1-0.8-0.1c0-0.1,0.1-0.3,0.2-0.4c0.3,0,0.8-0.2,1,0.4C75.1,41.9,75,42,74.9,42
	z M134.8,94.1c-0.4-1-1.3-1.6-1.3-2.7c0-0.3-0.1-1-0.3-1c-1.6-1-1.3-3.1-3-4.3c-0.4,0.1-0.8-0.7-1.5-0.4c-1.7-1.1-4.8,0.5-6.1,1.8
	c-1.4-0.1-0.7,1.4-1.5,1.8c0.3,0.8,0,1.9,0.3,2.7c0.1,0.8,1.1,1.2,0.5,1.9c-1.2,1.6-3,5.7-5.6,4.5c-3.8-2.4-11-0.5-9.9,4.9
	c1,1.4-0.4,3.4,1.1,4.7c1.3,2.3,2.9,4.5,5.4,5.6c1.5,0.8,1.5-1.6,3-1.5c0.5-0.2,2.4,0.3,1.9-0.7c-2.2-12,5.5,4.8,12.2,0.8
	c2.2-3.8,4.9-8.6,3.1-13.2c0.3-1,1.6-0.2,2.3-0.3C137.9,98.1,135.2,95.5,134.8,94.1L134.8,94.1z M129.3,107.8
	c-0.5-0.2-1-0.4-0.6-1.1c-0.4-1.1,0.3-2.3,1.5-2.6c0,0.4,0.1,0.5-0.1,0.9c0.2,0.1,0.4,0.2,0.6,0.3
	C130.1,106.2,129.7,107,129.3,107.8L129.3,107.8z M104.8,106.6c-0.2,0-0.4,0.3-0.6,0.5c0.2,0.2,0.4,0.4,0.7,0.8
	C105.4,107.4,105.5,106.8,104.8,106.6z M122.7,68.9c0,0.1,0.1,0.2,0.1,0.2c0.6-0.2,1.1-0.4,1.6-0.7c0-0.1-0.1-0.2-0.1-0.3
	C123.8,68.4,123.2,68.7,122.7,68.9L122.7,68.9z M163,93.7c-1.3-3.2-8-6.1-9.3-1.7c-0.2,1.3-2.1-0.6-3,2.2c0,2.7,0.9,5.6-0.3,8.5
	c-0.4,3.6,5,5.1,7.9,5.3c1.3-0.2,0.6-2.1,1.8-2.4C162,105.8,164.4,94.9,163,93.7L163,93.7z M152.3,43.9c-0.6-0.2-0.6-0.2-1-0.3
	c2.4-1.7,3.1,3.2,4.3-1.2c0.1-0.8,0.4-0.2,0.9-0.1c-1.2-1.5-2.9-0.1-3.6-2.6c-1,1.4-2.7,1.1-4.2,1.3c-5.3,0.2-10,2.2-15.2,3.1
	c1.9-2.1,0.6-4.9,2.8-6.7c1.8-6.1,6.5-12.4,5.8-19.2c-1.7-10.3-15.1-9.6-22.1-5.2c-2.6,1.7-9.5,2.3-10,5.3c-0.2,2.1-3-0.2-3.6,1.4
	c-0.6,0.9-2,0.5-2.7,1.6c-2.3,2.3-5.6,4.5-4.4,8.2c-0.3,1.9,1.2,8.2,3.3,8.3c1.1,0.7,0.9,3,2.8,2.8c2.9,1.3,5.3,3.6,7.1,6.2
	c0.5,1.8,2.8,1.9,3.1,0.1c0.8-0.3,0.9-1,1.2-1.6c2.1-2.4,3.2,0.3,3.5,2.4c-0.5-0.4-0.8-0.6-1.2-1c0,0.7,0.1,1-0.1,1.6
	c-0.1,0-0.2-0.1-0.2-0.1c0-0.3-0.1-0.6-0.1-1h-0.2c-1.8,3.9-14.4,3.6-15.5,6.6c0,0.8-2.2,2.4-2.1,0.7c0.6-0.7,0-1.1-0.3-1.7
	c-0.2,0.8-0.5,1.5-0.7,2.4c-1.1-1-2.3,0.1-3.5,0.1c-0.8-0.1-1.9-0.6-2.5,0.2c-1.3,1.8-1.7,3.9,1,4.2c-0.7,0.7-1.9-0.3-2.7-0.5
	c-0.1,0-0.1,0.1-0.2,0.1c0.4,1.9,0.1,3.8,1.9,5.1C96.3,55.6,141.6,46.9,152.3,43.9L152.3,43.9z M103.9,37.9c-3-0.9-0.7-4.7-2.5-6.4
	c0,0,0.1-0.1,0.1-0.1c1.9,0.5,2.1,2.2,2,3.9C103.7,36.3,104.5,36.9,103.9,37.9z M113.6,28.5c-2.2,1.3-1.9-1.6-2.7-2.8
	c-2.1-3,7.9-6.4,10.2-6.8c2.6,0.1,7.2-3.9,8.6,0C132.4,24.6,117,24.7,113.6,28.5L113.6,28.5z M124.4,35.7c-0.8-0.1-1.1,0.5-1.4,1
	c-0.6,0.6-1.6,0.9-2.2,1.5c-0.8,0.6-1.6,0.9-2.6,0.7c-1.2-0.3-3,0.5-4.1-0.3c0.2-0.7,0.2-1.5,0.7-1.9c3.2-1.1,5.1-5,9-5
	C130.9,27.5,128.5,33.3,124.4,35.7z M128.3,45.1c-3.3,1.4-4.4-5.4-0.8-3.8c0.6,1.4,1.7,2.3,2.7,3.4
	C129.5,44.9,128.9,45.1,128.3,45.1L128.3,45.1z M139,60.8c0-2.7-3.9-1.2-4-3.3c0.1-1-0.8-1.7-1.5-2.2C128.1,55.2,123,58,118,60
	c-1.8,0.4-3.8-0.5-5.1,1.4c-1.1,1.6-2.1-0.9-3.3-0.7c-0.7-3.5-2-1.6-1.7,0.8c-0.1,0.7,0.4,1.6-0.7,1.9c-0.3,0.2-0.1,1.2-0.7,0.9
	c-0.9-0.3-1.3,0.7-2.2,0.7c-4.5,0.9,4.1,18.1,7.1,20c0.5,2.4,2.9,2.2,4.7,3c0,0,0,0,0,0c6,1.7,11.3-9.3,15.2-5.1
	c0.2,0.4,0.5,0.7,0.9,0.2c0.3-0.1,0.8,0.2,1.1,0.3c0-0.4,0.1-0.6,0.1-0.9c0.5,0.1,0.9,0.3,1.5,0.5C136.6,75.9,141.6,68.1,139,60.8z
	 M128.1,74.6c-0.9,1.3-0.7,3.3-2.6,3.6c-1.1,0.8-3.1-0.6-2.3-1.9c0,0,0.2,0,0.5-0.2c-0.2-0.4-0.3-0.7-0.5-1.1c1-0.8,2-0.3,3.1-0.9
	c0.4,0.4,1.2-0.1,1.8-0.1C128.3,74.2,128.3,74.5,128.1,74.6L128.1,74.6z M130.9,65.2c-0.6-0.2-0.9-0.1-1.3,0.4
	c-0.8,0.7-2.2,0.8-3.2,1.2c0.5,1.8,1-0.4,2,0.1c0.1,0.1,0.3-0.2,0.7-0.2c-2.1,2-6.2,2.3-8.9,3.9c0,0.1,0,0.2,0,0.2
	c2.2-0.8,4.4-1.6,6.6-2.4c0.1,0,0.1,0.1,0.1,0.1c-0.9,1.1-2.5,1.6-3.8,2c-0.7,0.9-1.8,0.6-2.7,0.9c-0.9,0.2-0.9-1.1-1.5-1.4
	c-1.3-0.9,1.3-1.9,2-2.1c1-0.3,1.6-1.4,2.8-1.6C125.6,66,131.6,61.5,130.9,65.2L130.9,65.2z M132.1,58.4c-5,0.4-9,4.1-14.1,4.4
	c-0.6-3.2,6-2.2,7.7-4.3c0.3-0.2,0.9-0.3,1-0.7c0.2-0.4,0.4-0.4,0.6-0.2c0.4,0.6,0.9-0.5,1.7-0.3c1-0.2,1.9-1,3.1-0.7
	C133.6,56.3,133.2,58.3,132.1,58.4z M134.5,58.2c-0.4-0.2-0.9-0.4-0.6-1c0.3,0.2,0.6,0.5,0.8,0.7C134.7,57.9,134.6,58.1,134.5,58.2z
	"/>
</svg>
