<?xml version="1.0" encoding="utf-8"?>
<!-- Generator: Adobe Illustrator 27.1.1, SVG Export Plug-In . SVG Version: 6.00 Build 0)  -->
<svg version="1.1" id="圖層_1" xmlns="http://www.w3.org/2000/svg" xmlns:xlink="http://www.w3.org/1999/xlink" x="0px" y="0px"
	 viewBox="0 0 549 105" style="enable-background:new 0 0 549 105;" xml:space="preserve">
<style type="text/css">
	.st0{fill:#FFFFFF;}
	.st1{fill-rule:evenodd;clip-rule:evenodd;fill:#FFFFFF;}
	.st2{fill:none;}
	.st3{clip-path:url(#SVGID_00000052817296678546072900000007145337020807419293_);}
	.st4{opacity:0.7;clip-path:url(#SVGID_00000181076768202834500260000018326136683220863878_);}
</style>
<g>
	<path class="st0" d="M422.2,53.8h-6.8l3.4-5.9l3.4-5.9l3.4,5.9l3.4,5.9H422.2z"/>
	<path class="st0" d="M423.6,53.4h-2.8V59h2.8V53.4z"/>
	<path class="st0" d="M426.1,39.2l7.4,12.9c0,0,1,1.6,0.5,3.3c-0.4,1.7-1.7,3.5-4.6,3.5c-2.9,0-3.4,0-3.4,0v-2.5h3.5
		c0,0,1.2,0.1,1.8-0.8c0.6-0.9,0.3-1.8,0.3-1.8l-4.7-8.1l-3-5.2c0,0-0.5-1-1.7-1c-1.1,0-1.7,1-1.7,1l-7.6,13.1c0,0-0.4,0.9,0.1,1.8
		c0.6,0.9,1.6,0.9,1.6,0.9h3.7v2.5h-4.1c0,0-2.1-0.2-3.3-2c-1.2-1.8-0.8-3.6-0.1-4.7c0.6-1.1,7.4-12.9,7.4-12.9s1.2-2.2,3.9-2.2
		S426.1,39.2,426.1,39.2z"/>
	<path class="st0" d="M443.6,46.1c0.5,0.3,0.8,0.5,0.8,0.6c0,0.1-0.1,0.2-0.4,0.2c-0.3,0-0.5,0-0.5,0.1c-0.2,0.4-0.5,0.8-0.7,1.1
		c0.3,0.1,0.4,0.2,0.4,0.2c0,0.2-0.1,0.3-0.3,0.4c-0.1,0.1-0.2,0.2-0.2,0.4v6.7c0,0.2-0.2,0.3-0.7,0.4c-0.2,0-0.4,0.1-0.4,0.1
		c-0.4,0-0.5-0.2-0.5-0.4c0.1-1.1,0.1-2.2,0.1-3.3v-2.7c-0.5,0.4-1,0.8-1.7,1.2l-0.1-0.3c0.6-0.7,1.2-1.6,1.7-2.5c0.6-1,1-2,1.2-3
		C442.8,45.6,443.2,45.9,443.6,46.1L443.6,46.1z M442.8,42.9c0.5,0.3,0.8,0.5,0.8,0.6c0,0.1-0.1,0.2-0.4,0.2c-0.3,0-0.5,0.1-0.5,0.1
		c-0.3,0.5-0.7,1-1,1.3c-0.4,0.5-1.1,1-2,1.4l-0.1-0.3c0.4-0.6,0.8-1.2,1.1-1.9c0.4-0.8,0.6-1.6,0.8-2.3
		C442,42.4,442.5,42.6,442.8,42.9L442.8,42.9z M445.1,52c0,1.2-0.1,2-0.1,2.4c-0.1,0.4-0.2,0.8-0.5,1c-0.1,0.1-0.3,0.2-0.4,0.2
		c-0.3,0-0.6-0.1-0.9-0.3c-0.2-0.2-0.3-0.4-0.3-0.7c0-0.2,0.2-0.3,0.5-0.6c0.3-0.2,0.6-0.5,0.8-0.8c0.2-0.2,0.4-0.7,0.5-1.2
		L445.1,52L445.1,52z M445.8,50.1h5.6c0,0,0.1-0.2,0.4-0.5c0.3-0.4,0.5-0.5,0.5-0.5c0.2,0,0.4,0.2,0.7,0.5c0.3,0.4,0.5,0.6,0.5,0.7
		c0,0.2-0.1,0.2-0.2,0.2h-7.5c-0.9,0-1.5,0-1.9,0.1l-0.2-0.6C444.2,50.1,444.9,50.1,445.8,50.1L445.8,50.1z M445.9,43.7h1.5v-0.4
		c0-0.4,0-0.8-0.1-1.3c0.6,0.1,1.2,0.1,1.8,0.2c0.4,0,0.6,0.1,0.6,0.3c0,0.1-0.1,0.1-0.3,0.2c-0.2,0.1-0.3,0.2-0.3,0.4v0.5h1.9
		c0,0,0.2-0.2,0.5-0.6c0.3-0.4,0.6-0.6,0.6-0.6c0.2,0,0.5,0.2,0.9,0.6c0.4,0.4,0.6,0.7,0.6,0.8c0,0.2-0.1,0.2-0.2,0.2H449v1.3h1.4
		c0.2-0.2,0.4-0.4,0.6-0.5c0.1-0.1,0.2-0.2,0.4-0.2c0.1,0,0.4,0.1,0.8,0.4c0.5,0.3,0.7,0.5,0.7,0.7c0,0.1-0.1,0.3-0.3,0.4
		c-0.2,0.1-0.2,0.3-0.2,0.4v0.5c0,0.4,0,1,0.1,1.8c0,0.2-0.2,0.3-0.7,0.4c-0.2,0-0.4,0-0.5,0c-0.3,0-0.4-0.1-0.4-0.4v-0.1H446v0.1
		c0,0.2-0.2,0.3-0.6,0.4c-0.2,0-0.3,0-0.4,0c-0.3,0-0.4-0.1-0.4-0.4c0-0.2,0.1-0.5,0.1-0.8v-2.2c0-0.3-0.1-0.7-0.1-1.1
		c0.5,0.1,0.9,0.3,1.4,0.5h1.6v-1.3h-1.5c-0.9,0-1.5,0-1.9,0.1l-0.2-0.6C444.3,43.6,445,43.6,445.9,43.7L445.9,43.7z M447.4,51.6
		c0.5,0.1,0.7,0.2,0.7,0.3c0,0.2-0.1,0.3-0.4,0.4c-0.2,0.1-0.3,0.2-0.3,0.4V54c0,0.3,0.1,0.5,0.4,0.6c0.2,0.1,0.6,0.1,1.1,0.1
		c0.5,0,0.8,0,1-0.1c0.1-0.1,0.3-0.2,0.3-0.5c0.1-0.3,0.2-0.8,0.4-1.3h0.3c0,0.6,0.1,1,0.1,1.2c0,0.3,0.1,0.5,0.3,0.6
		c0.3,0.2,0.5,0.3,0.5,0.4c0,0.2-0.1,0.4-0.3,0.5c-0.2,0.1-0.5,0.2-1,0.3c-0.5,0.1-1,0.1-1.6,0.1c-0.8,0-1.4,0-1.8-0.1
		c-0.4-0.1-0.7-0.1-0.8-0.2c-0.3-0.2-0.5-0.5-0.5-1.1v-1.2c0-0.9-0.1-1.6-0.2-2.1C446.2,51.4,446.7,51.5,447.4,51.6L447.4,51.6z
		 M446.6,48.3v-2.5H446v2.5H446.6z M449.7,51.5c0.3,0.3,0.4,0.6,0.4,0.9c0,0.2-0.1,0.5-0.3,0.7c-0.1,0.2-0.3,0.2-0.5,0.2
		c-0.2,0-0.3-0.2-0.5-0.6c-0.2-0.6-0.5-1.2-0.9-1.8l0.1-0.2C448.8,50.9,449.4,51.2,449.7,51.5L449.7,51.5z M448,48.3h0.7v-2.5H448
		V48.3z M450,48.3h0.7v-2.5H450V48.3z M453,52.8c0.3,0.4,0.5,0.7,0.5,1c0,0.3-0.1,0.6-0.3,0.9c-0.2,0.2-0.4,0.4-0.6,0.4
		c-0.1,0-0.2,0-0.3-0.1c-0.1-0.1-0.2-0.4-0.3-0.9c-0.1-0.6-0.5-1.3-1-2.2l0.2-0.2C452.1,52,452.7,52.4,453,52.8L453,52.8z"/>
	<path class="st0" d="M458.2,45.7h0.3v-1c0-1,0-1.9-0.1-2.6c0.5,0.1,1,0.1,1.8,0.2c0.5,0.1,0.7,0.2,0.7,0.3c0,0.2-0.2,0.3-0.5,0.4
		c-0.2,0.1-0.3,0.2-0.3,0.4v2.3h0.2c0,0,0.2-0.2,0.4-0.4c0.3-0.3,0.4-0.5,0.5-0.5c0.1,0,0.3,0.2,0.6,0.5c0.3,0.3,0.5,0.5,0.5,0.6
		c0,0.2-0.1,0.2-0.2,0.2h-1.9v1.5c0.8,0.3,1.4,0.6,1.8,1c0.4,0.4,0.6,0.8,0.6,1.3c0,0.2-0.1,0.5-0.3,0.7c-0.1,0.1-0.3,0.2-0.5,0.2
		c-0.3,0-0.5-0.3-0.7-0.8c-0.2-0.5-0.4-1-0.8-1.5v7.2c0,0.2-0.2,0.4-0.7,0.4c-0.2,0-0.4,0.1-0.5,0.1c-0.4,0-0.5-0.2-0.5-0.5
		c0.1-0.9,0.1-1.8,0.1-2.5v-3.4c-0.4,0.7-0.7,1.2-1,1.6c-0.4,0.5-0.8,1-1.3,1.4l-0.2-0.1c1.1-2.2,1.9-4.4,2.4-6.5h-0.1
		c-0.9,0-1.5,0-1.9,0.1l-0.2-0.6C456.6,45.6,457.3,45.7,458.2,45.7L458.2,45.7z M464.4,45.7h0.4V45c0-1.1,0-2-0.1-2.8
		c0.5,0.1,1.1,0.1,1.9,0.3c0.5,0.1,0.8,0.2,0.8,0.3c0,0.2-0.2,0.3-0.5,0.4c-0.2,0.1-0.4,0.2-0.4,0.3v2.2h1c0,0,0.2-0.2,0.5-0.5
		c0.3-0.4,0.5-0.6,0.6-0.6c0.2,0,0.5,0.2,0.8,0.6c0.4,0.4,0.6,0.7,0.6,0.7c0,0.2-0.1,0.2-0.2,0.2h-3.1c0.6,1.7,1.1,3,1.7,3.9
		c0.6,0.9,1.3,1.6,2,1.9l-0.1,0.4c-0.5,0.2-0.8,0.5-1,1c-0.1,0.4-0.3,0.6-0.4,0.6c-0.1,0-0.3-0.4-0.7-1.1c-0.4-0.7-0.7-1.7-1.1-2.8
		c-0.2-0.7-0.4-1.4-0.5-2.1V53c0,0.9,0,1.8,0.1,2.8c0,0.2-0.3,0.3-0.8,0.5c-0.2,0-0.4,0-0.5,0c-0.4,0-0.5-0.2-0.5-0.5
		c0.1-1,0.1-1.9,0.1-2.8v-3.7c-0.2,0.4-0.3,0.7-0.4,1c-0.5,0.9-1,1.7-1.6,2.3c-0.6,0.7-1.3,1.3-2,1.7l-0.1-0.2c0.7-0.8,1.4-2,2-3.3
		c0.6-1.4,1.1-2.9,1.5-4.7c-0.8,0-1.3,0-1.6,0.1l-0.2-0.6C462.8,45.7,463.5,45.7,464.4,45.7L464.4,45.7z"/>
	<path class="st0" d="M474.8,43.3h0.5c0.2-0.2,0.4-0.3,0.6-0.5c0.2-0.2,0.4-0.3,0.5-0.3c0.1,0,0.4,0.2,0.8,0.5
		c0.5,0.5,0.8,0.8,0.8,0.9c0,0.1-0.2,0.2-0.5,0.3c-0.3,0-0.5,0.2-0.6,0.3l-1.6,3.1h0.7c0.1-0.1,0.3-0.3,0.4-0.4
		c0.2-0.2,0.4-0.3,0.5-0.3c0.1,0,0.5,0.2,0.9,0.5c0.5,0.4,0.7,0.7,0.7,0.9c0,0.1-0.2,0.2-0.5,0.4c-0.3,0.1-0.4,0.2-0.5,0.4
		c-0.3,1.4-0.6,2.5-1,3.4c-0.1,0.2-0.2,0.4-0.3,0.6c0.3,0.3,0.7,0.5,1.2,0.7c0.8,0.3,2.2,0.4,4.4,0.4c1.7,0,3.4-0.1,5.1-0.4l0.1,0.4
		c-0.6,0.3-0.9,0.7-1,1.2c-0.1,0.4-0.2,0.6-0.5,0.6c-3.7,0-6.1-0.2-7.3-0.5c-1.2-0.3-2.1-0.8-2.6-1.5c-0.2,0.2-0.3,0.4-0.5,0.6
		c-0.7,0.7-1.5,1.3-2.1,1.6l-0.2-0.2c0.9-1,1.6-2,2.2-3.2c-0.2-0.6-0.4-1.3-0.4-2.1c0-0.3,0-0.4-0.1-0.4c0,0-0.1,0.1-0.1,0.4
		c-0.1,0.4-0.1,0.8-0.2,1.2c-0.1,0.2-0.1,0.4-0.1,0.4c0,0.1,0.1,0.2,0.1,0.3c0,0.1,0.1,0.2,0.1,0.2c0,0.1-0.1,0.2-0.2,0.2
		c-0.2,0-0.4-0.2-0.6-0.5c-0.2-0.2-0.5-0.4-0.7-0.6c0.5-0.5,0.9-1.1,1.3-1.8c0.2-0.3,0.4-0.5,0.5-0.5c0.4,0,0.5,0.2,0.5,0.7
		c0.1,0.5,0.2,0.9,0.4,1.3c0.3-1,0.5-2.2,0.6-3.6h-1l-0.3,0.6c-0.1,0.2-0.2,0.3-0.3,0.3c-0.2,0-0.3,0-0.5,0c-0.1,0-0.3,0-0.6-0.1
		c-0.2-0.1-0.2-0.1-0.2-0.2l2.3-5h-0.6c-0.6,0-1.1,0-1.6,0.1l-0.2-0.6C473.5,43.2,474.1,43.3,474.8,43.3L474.8,43.3z M480.4,43.7
		c0-0.6-0.1-1.1-0.1-1.6c0.5,0.1,1.1,0.1,1.8,0.2c0.5,0.1,0.8,0.2,0.8,0.3c0,0.2-0.2,0.3-0.4,0.4c-0.2,0.1-0.3,0.2-0.3,0.4v0.3h1.1
		c0.2-0.2,0.3-0.3,0.5-0.5c0.2-0.2,0.4-0.4,0.5-0.4c0.2,0,0.5,0.2,0.9,0.5c0.5,0.4,0.7,0.6,0.7,0.7c0,0.2-0.1,0.3-0.3,0.4
		c-0.2,0.2-0.3,0.3-0.3,0.5v0.7h0.2c0.1-0.1,0.2-0.3,0.3-0.5c0.1-0.3,0.2-0.4,0.3-0.4c0.1,0,0.2,0.2,0.5,0.5
		c0.2,0.3,0.4,0.5,0.4,0.6c0,0.2-0.1,0.2-0.2,0.2h-1.4c0,0.7,0,1.2,0.1,1.4V48c0,0.2-0.3,0.3-0.8,0.4c-0.2,0-0.4,0.1-0.5,0.1
		c-0.2,0-0.4-0.1-0.4-0.4h-1.4v1.5h1.5c0,0,0.1-0.2,0.4-0.5c0.3-0.4,0.5-0.6,0.5-0.6c0.1,0,0.4,0.2,0.8,0.6c0.3,0.4,0.5,0.6,0.5,0.6
		c0,0.2-0.1,0.2-0.2,0.2h-3.4v1.6h1.6c0,0,0.2-0.2,0.5-0.6c0.4-0.4,0.6-0.7,0.6-0.7c0.2,0,0.5,0.2,0.9,0.6s0.6,0.7,0.6,0.8
		c0,0.2-0.1,0.2-0.3,0.2h-4v1.2c0,0.2-0.2,0.3-0.7,0.4c-0.2,0-0.4,0-0.5,0c-0.4,0-0.5-0.2-0.5-0.5c0-0.4,0.1-0.8,0.1-1.2h-1.1
		c-0.9,0-1.5,0-1.9,0.1l-0.2-0.6c0.5,0.1,1.2,0.1,2.1,0.1h1.1c0-0.4,0-0.8,0-1.1v-0.5H480c-0.9,0-1.5,0-1.9,0.1l-0.2-0.6
		c0.5,0.1,1.2,0.1,2.1,0.1h0.5v-1.5c-0.7,0-1.3,0-1.8,0.1l-0.2-0.6c0.5,0.1,1.2,0.1,2,0.1v-1.6h-1.6c-0.3,0-0.7,0-1.2,0.1l-0.2-0.6
		c0.6,0.1,1.1,0.1,1.5,0.1h1.6v-0.9c0-0.2,0-0.5,0-0.7c-1,0-1.7,0-2.2,0.1l-0.2-0.6C478.7,43.7,479.5,43.7,480.4,43.7L480.4,43.7z
		 M482.1,45.7h1.4v-1.5h-1.4V45.7z M482.1,47.7h1.4v-1.6h-1.4V47.7z"/>
	<path class="st0" d="M491.4,45.2h1.3c0,0,0.2-0.2,0.5-0.6c0.4-0.4,0.6-0.7,0.6-0.7c0.2,0,0.5,0.2,0.9,0.7s0.6,0.7,0.6,0.8
		c0,0.2-0.1,0.2-0.3,0.2h-3.7c-0.9,0-1.5,0-1.9,0.1l-0.2-0.6C489.8,45.2,490.5,45.2,491.4,45.2z M492.2,43.2h0.3
		c0,0,0.2-0.2,0.5-0.6c0.3-0.4,0.6-0.6,0.6-0.6c0.2,0,0.5,0.2,0.9,0.6c0.4,0.4,0.6,0.7,0.6,0.8c0,0.2-0.1,0.2-0.2,0.2h-2.6
		c-0.9,0-1.5,0-1.9,0.1l-0.2-0.6C490.5,43.2,491.2,43.2,492.2,43.2L492.2,43.2z M492.2,47.2h0.3c0,0,0.2-0.2,0.5-0.6
		c0.3-0.4,0.6-0.7,0.6-0.7c0.2,0,0.5,0.2,0.9,0.6c0.4,0.4,0.6,0.7,0.6,0.8c0,0.2-0.1,0.2-0.2,0.2h-2.6c-0.9,0-1.5,0-1.9,0.1
		l-0.2-0.6C490.5,47.2,491.2,47.2,492.2,47.2L492.2,47.2z M492,51.1h0.7c0.2-0.2,0.4-0.4,0.6-0.6c0.1-0.2,0.3-0.2,0.4-0.2
		c0.1,0,0.4,0.1,0.8,0.4c0.5,0.3,0.7,0.6,0.7,0.7c0,0.1-0.1,0.3-0.3,0.4c-0.2,0.1-0.3,0.3-0.3,0.4v1.3c0,0.5,0,1.1,0.1,1.9
		c0,0.2-0.3,0.3-0.8,0.4c-0.2,0-0.4,0.1-0.5,0.1c-0.3,0-0.4-0.2-0.4-0.5V55h-1.2v0.7c0,0.2-0.2,0.3-0.7,0.4c-0.2,0-0.4,0.1-0.5,0.1
		c-0.3,0-0.5-0.2-0.5-0.5c0-0.5,0.1-1.1,0.1-1.6v-1.5c0-0.7,0-1.5-0.1-2.2C490.7,50.5,491.4,50.8,492,51.1L492,51.1z M492.2,49.1
		h0.2c0,0,0.2-0.2,0.5-0.6c0.3-0.4,0.6-0.6,0.6-0.6c0.2,0,0.5,0.2,0.9,0.6c0.4,0.4,0.6,0.7,0.6,0.8c0,0.2-0.1,0.2-0.2,0.2h-2.5
		c-0.9,0-1.5,0-1.9,0.1l-0.2-0.6C490.6,49.1,491.3,49.1,492.2,49.1L492.2,49.1z M493,54.5v-3h-1.2v3H493z M497.3,49.2h2.9
		c0.2-0.2,0.3-0.3,0.4-0.3c0.2-0.2,0.5-0.3,0.6-0.3c0.1,0,0.5,0.2,1,0.6c0.5,0.5,0.7,0.8,0.7,0.9c0,0.1-0.2,0.2-0.5,0.3
		c-0.3,0-0.5,0.1-0.6,0.2c-0.3,0.8-0.8,1.5-1.4,2.2c-0.1,0.2-0.2,0.3-0.4,0.4c1.1,0.5,2.2,1,3.5,1.3l-0.1,0.4
		c-0.5,0.2-0.8,0.4-1,0.7c-0.2,0.4-0.3,0.6-0.4,0.6c-0.2,0-0.6-0.2-1.1-0.5c-0.6-0.3-1.3-0.8-2.1-1.4c0,0,0,0,0,0
		c-0.2,0.2-0.4,0.3-0.6,0.4c-0.9,0.6-2.1,1.1-3.8,1.5l-0.1-0.3c1.2-0.6,2.3-1.4,3.4-2.6l0,0c-0.2-0.2-0.4-0.5-0.5-0.8
		c-0.5-0.7-0.8-1.6-1.1-2.9c-0.3,0-0.6,0-0.8,0l-0.2-0.6C496,49.2,496.6,49.2,497.3,49.2L497.3,49.2z M498.2,43.1h1
		c0.2-0.2,0.4-0.4,0.5-0.5c0.2-0.2,0.4-0.3,0.5-0.3c0.2,0,0.5,0.2,1,0.5c0.4,0.3,0.7,0.6,0.7,0.8c0,0.1-0.1,0.3-0.4,0.4
		c-0.3,0.1-0.4,0.3-0.4,0.5v1.4c0,0.2,0,0.4,0.1,0.5c0,0.1,0.1,0.1,0.3,0.1l0.3,0c0.1,0,0.2-0.2,0.3-0.5c0.1-0.3,0.2-0.7,0.3-1.3
		l0.2,0.1l0.1,0.7c0,0.2,0.1,0.5,0.3,0.8c0.3,0.3,0.5,0.5,0.5,0.6c0,0.4-0.2,0.6-0.6,0.8c-0.4,0.2-0.9,0.3-1.4,0.3
		c-0.9,0-1.4-0.1-1.5-0.2c-0.4-0.1-0.6-0.6-0.6-1.5v-2.7h-1.3c0,1.2-0.1,2-0.3,2.7c-0.2,0.6-0.6,1.2-1,1.6c-0.5,0.4-1.1,0.7-1.8,1
		l-0.1-0.3c0.4-0.3,0.7-0.7,0.9-1c0.1-0.3,0.3-0.6,0.4-1.2c0.1-0.6,0.2-1.2,0.2-1.9c0-0.7-0.1-1.3-0.1-1.9
		C497,42.7,497.7,42.9,498.2,43.1L498.2,43.1z M497.8,51.5c0.3,0.3,0.6,0.6,0.9,0.9c0.6-0.8,1.1-1.7,1.5-2.7h-3.5
		C497,50.3,497.3,50.9,497.8,51.5z"/>
	<path class="st0" d="M510.4,45.1c0.3,0.4,0.4,0.6,0.4,0.7c0,0.2-0.1,0.2-0.2,0.2h-1.4v0.8c0.4,0.3,0.8,0.6,1,0.8
		c0.3,0.3,0.4,0.6,0.4,0.9c0,0.3-0.1,0.5-0.2,0.7c-0.1,0.2-0.3,0.3-0.5,0.3c-0.1,0-0.2,0-0.3-0.1c-0.1-0.1-0.1-0.4-0.2-0.8
		c0-0.2-0.1-0.4-0.2-0.5v5.3c0,0.9,0,1.7,0.1,2.5c0,0.2-0.2,0.3-0.7,0.4c-0.2,0-0.4,0.1-0.5,0.1c-0.3,0-0.4-0.2-0.4-0.4
		c0-0.9,0.1-1.8,0.1-2.5V50c-0.2,0.5-0.4,0.9-0.5,1.2c-0.2,0.5-0.5,1-0.8,1.4l-0.2-0.1c0.6-2.2,1.1-4.4,1.4-6.4
		c-0.3,0-0.7,0-1.2,0.1l-0.2-0.6c0.6,0.1,1.1,0.1,1.5,0.1h0.2v-1c0-1-0.1-1.8-0.2-2.5c0.4,0,1,0.1,1.7,0.2c0.5,0.1,0.7,0.2,0.7,0.3
		c0,0.2-0.1,0.3-0.4,0.4c-0.2,0.1-0.3,0.2-0.3,0.4v2.2c0.1-0.1,0.2-0.3,0.3-0.5c0.2-0.3,0.3-0.5,0.3-0.5
		C509.9,44.5,510.1,44.7,510.4,45.1L510.4,45.1z M513.2,42.7c0.4,0.2,0.6,0.4,0.6,0.5c0,0.1-0.1,0.1-0.3,0.1c-0.2,0-0.3,0.1-0.4,0.1
		c-0.4,0.5-0.9,1-1.4,1.4c0.1,0.1,0.3,0.1,0.4,0.2c0.2,0.2,0.4,0.4,0.4,0.7c0.2-0.5,0.3-0.9,0.5-1.4c0.5,0.2,0.9,0.3,1.3,0.5
		c0.1,0,0.1,0.1,0.2,0.1c-0.1-1.4-0.1-2.3-0.2-2.8c0.5,0.1,1,0.1,1.4,0.2c0.5,0.1,0.8,0.2,0.8,0.3c0,0.1-0.1,0.2-0.3,0.3
		c-0.2,0.1-0.4,0.2-0.4,0.2c0,2.5,0.1,4.5,0.3,5.9c0,0.4,0.1,0.7,0.2,1h2c0,0,0.1-0.2,0.4-0.5c0.3-0.3,0.5-0.5,0.5-0.5
		c0.2,0,0.4,0.2,0.7,0.5c0.3,0.4,0.5,0.6,0.5,0.6c0,0.2-0.1,0.2-0.2,0.2h-3.7c0.2,0.7,0.4,1.3,0.7,1.7c0.3-0.5,0.5-0.9,0.7-1.4
		c0.5,0.3,0.8,0.5,1,0.6c0.5,0.3,0.8,0.5,0.8,0.6s-0.1,0.2-0.3,0.2c-0.2,0-0.4,0.1-0.4,0.2c-0.3,0.4-0.7,0.7-0.9,1
		c0.3,0.3,0.6,0.5,0.9,0.5c0.1,0,0.3-0.2,0.5-0.5c0.2-0.3,0.4-0.7,0.6-1.2l0.3,0.1c-0.1,0.5-0.2,0.9-0.3,1.1
		c-0.1,0.4-0.1,0.7-0.1,0.8c0,0.1,0.1,0.2,0.2,0.5c0.2,0.2,0.3,0.4,0.3,0.6c0,0.4-0.2,0.7-0.7,0.7c-1,0-1.9-0.6-2.9-1.7
		c-0.6,0.4-1.2,0.7-1.8,0.9c-0.8,0.3-1.6,0.5-2.4,0.7l-0.1-0.2c1.1-0.5,1.9-1,2.6-1.5c0.4-0.2,0.7-0.6,1-0.9
		c-0.5-0.8-0.8-1.6-1.1-2.6c0-0.1-0.1-0.2-0.1-0.3h-1.3c-0.1,0.5-0.2,0.8-0.3,1.2c0.6,0.2,1,0.4,1.3,0.5c0.3,0.2,0.5,0.5,0.5,0.8
		c0,0.2-0.1,0.5-0.3,0.7c-0.1,0.2-0.3,0.2-0.5,0.2c-0.2,0-0.4-0.2-0.6-0.6c-0.1-0.4-0.3-0.7-0.6-1c-0.2,0.5-0.4,1-0.7,1.4
		c-0.3,0.5-0.6,0.9-1,1.3c-0.5,0.4-1,0.8-1.6,1.2l-0.2-0.2c0.4-0.5,0.8-1,1.2-1.6c0.3-0.5,0.5-1,0.7-1.7c0.2-0.6,0.3-1.3,0.5-2.2
		c-0.8,0-1.3,0-1.6,0l-0.2-0.6c0.5,0.1,1.2,0.1,2.1,0.1h2.6c-0.1-0.4-0.1-0.7-0.2-1.1c0,0.1-0.1,0.1-0.1,0.1
		c-0.2,0.2-0.4,0.3-0.6,0.3c-0.1,0-0.2,0-0.3-0.1c-0.1,0-0.1-0.2-0.2-0.6c0-0.1,0-0.2,0-0.2c-0.6,0.4-1.1,0.7-1.7,0.9
		c-0.1,0-0.1,0.1-0.1,0.1c0,0.1,0,0.1,0,0.2c0,0.1-0.1,0.2-0.1,0.2c-0.2,0-0.4-0.3-0.6-0.9c-0.1-0.2-0.2-0.4-0.3-0.8
		c0.3,0,0.6,0,0.9,0c0.3-0.5,0.5-1,0.7-1.5c-0.1,0.1-0.3,0.2-0.5,0.2c-0.2,0-0.4-0.2-0.5-0.5c-0.2-0.5-0.5-1-0.9-1.5l0.1-0.2
		c0.3,0.1,0.6,0.2,0.8,0.2c0.2-0.8,0.4-1.6,0.6-2.4C512.3,42.4,512.8,42.5,513.2,42.7L513.2,42.7z M514.5,46.1c0-0.2,0-0.4,0-0.7
		c-0.2,0-0.2,0.1-0.2,0.1c-0.6,0.9-1.3,1.6-2.1,2.4c0.5,0,0.9,0,1.4-0.1c-0.1-0.2-0.1-0.5-0.2-0.7l0.1-0.1c0.5,0.2,0.9,0.5,1.1,0.7
		c0.1,0.1,0.1,0.1,0.1,0.2C514.5,47.3,514.5,46.7,514.5,46.1L514.5,46.1z M518.4,42.7c0.4,0.2,0.6,0.3,0.6,0.5
		c0,0.1-0.1,0.1-0.3,0.2c-0.2,0-0.3,0-0.4,0.1c-0.4,0.5-0.8,1-1.3,1.4c0.1,0.1,0.2,0.1,0.3,0.2c0.2,0.2,0.3,0.4,0.3,0.6
		c0,0.2-0.1,0.4-0.3,0.6c-0.1,0.1-0.3,0.2-0.5,0.2c-0.1,0-0.2-0.2-0.3-0.5c-0.1-0.4-0.3-0.9-0.6-1.3l0.1-0.2
		c0.2,0.1,0.3,0.1,0.5,0.1c0.2-0.7,0.4-1.6,0.5-2.4C517.5,42.4,518,42.5,518.4,42.7L518.4,42.7z M519.7,44.6
		c0.4,0.2,0.6,0.3,0.6,0.5c0,0.1-0.1,0.1-0.3,0.2c-0.2,0-0.3,0.1-0.4,0.1c-0.6,0.8-1.2,1.5-1.9,2.1c0.4,0,0.8-0.1,1.3-0.1
		c-0.1-0.2-0.1-0.4-0.2-0.6l0.2-0.1c0.5,0.2,0.8,0.4,1.1,0.6c0.3,0.3,0.4,0.5,0.4,0.8c0,0.3-0.1,0.6-0.3,0.8
		c-0.1,0.1-0.3,0.2-0.5,0.2c-0.1,0-0.2,0-0.2-0.1c-0.1-0.1-0.1-0.2-0.1-0.6c0-0.2-0.1-0.3-0.1-0.5c-0.4,0.3-0.8,0.5-1.2,0.7
		c0.1,0,0.2,0.1,0.3,0.1c0.2,0.1,0.3,0.2,0.3,0.4c0,0.2-0.1,0.4-0.3,0.6c-0.1,0.1-0.3,0.2-0.5,0.2c-0.2,0-0.3-0.1-0.4-0.4
		c-0.1-0.2-0.2-0.4-0.4-0.6v0c0,0,0,0.1-0.1,0.2c0,0.1-0.1,0.2-0.1,0.2c-0.2,0-0.4-0.3-0.6-0.9c-0.1-0.2-0.2-0.4-0.3-0.8
		c0.3,0,0.6,0,0.9,0c0.6-1,1.1-2.2,1.4-3.4C518.8,44.2,519.2,44.4,519.7,44.6L519.7,44.6z"/>
	<path class="st0" d="M527.5,45.1c0.3,0.4,0.4,0.6,0.4,0.7c0,0.2-0.1,0.2-0.2,0.2h-1.6v1.7c0.6,0.2,1,0.5,1.3,0.7
		c0.3,0.3,0.5,0.7,0.5,1.1c0,0.2-0.1,0.4-0.3,0.6c-0.1,0.1-0.3,0.2-0.5,0.2c-0.2,0-0.5-0.2-0.6-0.7c-0.1-0.3-0.2-0.6-0.4-0.9v4.6
		c0,0.9,0,1.7,0.1,2.5c0,0.2-0.2,0.3-0.7,0.4c-0.2,0-0.4,0-0.5,0c-0.3,0-0.4-0.2-0.4-0.4c0-0.9,0.1-1.8,0.1-2.5v-3.9
		c-0.3,0.8-0.6,1.3-0.8,1.7c-0.3,0.5-0.6,1-1,1.4l-0.2-0.1c0.8-2.2,1.3-4.3,1.7-6.4h0c-0.3,0-0.7,0-1.2,0.1l-0.2-0.6
		c0.6,0.1,1.1,0.1,1.5,0.1h0.4v-1c0-0.9-0.1-1.8-0.2-2.5c0.4,0.1,1,0.1,1.7,0.2c0.5,0.1,0.7,0.2,0.7,0.3c0,0.2-0.1,0.3-0.4,0.4
		c-0.2,0.1-0.3,0.2-0.3,0.4v2.3h0.1c0.1-0.1,0.2-0.3,0.4-0.6c0.2-0.3,0.3-0.5,0.4-0.5C527.1,44.5,527.3,44.7,527.5,45.1L527.5,45.1z
		 M529.6,44v-0.6c0-0.4,0-0.8-0.1-1.3c0.7,0.1,1.3,0.2,1.9,0.3c0.4,0,0.6,0.1,0.6,0.3c0,0.1-0.1,0.2-0.3,0.3
		c-0.3,0.1-0.4,0.2-0.4,0.4V44h1.4v-0.6c0-0.4,0-0.8-0.1-1.3c0.6,0.1,1.3,0.2,1.9,0.3c0.4,0,0.6,0.1,0.6,0.3c0,0.1-0.1,0.2-0.4,0.3
		c-0.2,0.1-0.4,0.2-0.4,0.4V44h0.2c0,0,0.2-0.2,0.5-0.5c0.3-0.4,0.5-0.6,0.6-0.6c0.2,0,0.4,0.2,0.8,0.6c0.4,0.4,0.5,0.6,0.5,0.7
		c0,0.2-0.1,0.2-0.2,0.2h-2.3v1.2h0.1c0,0,0.1-0.2,0.4-0.5c0.3-0.4,0.5-0.5,0.5-0.5c0.2,0,0.4,0.2,0.7,0.5c0.3,0.4,0.5,0.6,0.5,0.7
		c0,0.2-0.1,0.2-0.2,0.2h-2v1.4h0.3c0,0,0.2-0.2,0.5-0.5c0.3-0.4,0.5-0.6,0.6-0.6c0.2,0,0.4,0.2,0.8,0.6c0.4,0.4,0.6,0.6,0.6,0.7
		c0,0.2-0.1,0.2-0.2,0.2h-4V49h1c0.1-0.2,0.2-0.3,0.3-0.4c0.3-0.3,0.5-0.5,0.6-0.5c0.2,0,0.5,0.2,1,0.5c0.5,0.4,0.7,0.6,0.7,0.7
		c0,0.1-0.1,0.2-0.3,0.4c-0.3,0.2-0.4,0.4-0.4,0.6v2.1c0.1-0.2,0.1-0.3,0.2-0.5c0.2-0.3,0.3-0.5,0.4-0.5c0.1,0,0.3,0.1,0.5,0.4
		c0.3,0.4,0.4,0.7,0.4,0.9c0,0.2-0.1,0.2-0.2,0.2h-1.3v1.6c0,0.5-0.3,0.9-0.8,1.2c-0.4,0.2-0.8,0.3-1.1,0.3c-0.1,0-0.2-0.2-0.3-0.6
		c-0.1-0.5-0.6-0.8-1.5-1.1l0.1-0.3c0.7,0.1,1.4,0.1,1.8,0.1c0.2,0,0.3-0.2,0.3-0.5v-0.8h-4v2.7c0,0.2-0.2,0.3-0.7,0.5
		c-0.2,0-0.4,0-0.5,0c-0.4,0-0.5-0.2-0.5-0.5c0.1-1,0.1-1.9,0.1-2.7c-0.4,0-0.9,0-1.3,0.1l-0.2-0.6c0.7,0.1,1.2,0.1,1.5,0.1V51
		c0-0.7,0-1.6-0.1-2.7c0.7,0.2,1.4,0.4,2,0.7h0.9v-1.1h-1.6c-0.9,0-1.5,0-1.9,0l-0.2-0.6c0.5,0.1,1.2,0.1,2.1,0.1h0.2V46
		c-0.6,0-1,0-1.3,0.1l-0.2-0.6c0.4,0.1,0.9,0.1,1.6,0.1v-1.2c-0.9,0-1.5,0-1.9,0.1l-0.2-0.6C527.9,44,528.6,44,529.6,44L529.6,44z
		 M531,50.8v-1.3h-1.2v1.3H531z M531,52.6v-1.5h-1.2v1.5H531z M532.6,44.4h-1.4v1.2h1.4V44.4z M532.6,46h-1.4v1.4h1.4V46z
		 M532.7,50.8h1.2v-1.3h-1.2V50.8z M532.7,52.7h1.2v-1.5h-1.2V52.7z"/>
	<path class="st1" d="M422.5,82.1v5.2l-0.2,0.5h4.9l-0.2-0.5V73.1l0.2-0.5h-15.7l0.2,0.5v14.2l-0.2,0.5h4.9l-0.2-0.5v-5.2
		c0-1.7,1.3-3.2,3.2-3.2C421.1,78.9,422.5,80.4,422.5,82.1L422.5,82.1z"/>
	<path class="st0" d="M435.2,74.9h1.2c0,0,0.2-0.2,0.4-0.5c0.3-0.4,0.5-0.6,0.6-0.6c0.2,0,0.4,0.2,0.8,0.6c0.4,0.4,0.5,0.6,0.5,0.7
		c0,0.2-0.1,0.2-0.2,0.2h-1v9.2c0,0.8,0,1.5,0.1,2c0,0.2-0.2,0.3-0.7,0.4c-0.2,0-0.4,0-0.4,0c-0.2,0-0.3-0.1-0.3-0.4
		c0-0.5,0.1-1.1,0.1-2v-1c-0.5,0.4-1,0.7-1.5,0.9c-0.1,0-0.1,0.1-0.1,0.1c0,0.1,0,0.1,0,0.2c0,0.1-0.1,0.2-0.2,0.2
		c-0.2,0-0.4-0.3-0.7-1c-0.1-0.2-0.2-0.5-0.4-0.9c0.3,0,0.5,0,0.7-0.1v-7.7c-0.2,0-0.4,0-0.6,0l-0.2-0.6
		C433.7,74.9,434.3,74.9,435.2,74.9L435.2,74.9z M436.2,77.4v-2.1h-0.9v2.1H436.2z M436.2,80v-2.2h-0.9V80H436.2z M436.2,82.7v-2.2
		h-0.9v2.4C435.6,82.8,435.9,82.7,436.2,82.7z M440.5,74.3c0.4,0.2,0.6,0.3,0.6,0.5c0,0.1-0.1,0.1-0.3,0.1c-0.2,0-0.3,0-0.3,0.1
		c-0.4,0.6-1,1.2-1.5,1.7c0.1,0,0.2,0.1,0.3,0.1c0.2,0.1,0.4,0.3,0.4,0.5c0,0.2-0.1,0.5-0.3,0.7c-0.1,0.2-0.3,0.2-0.6,0.2
		c-0.1,0-0.3-0.1-0.4-0.4c-0.1-0.4-0.4-0.8-0.7-1.2l0.1-0.2c0.3,0.1,0.6,0.1,0.8,0.2c0.3-0.8,0.6-1.8,0.8-2.7
		C439.7,74,440.1,74.1,440.5,74.3L440.5,74.3z M441.9,75.6c0.3,0.1,0.5,0.3,0.5,0.4c0,0.1-0.1,0.1-0.3,0.1c-0.2,0-0.3,0.1-0.3,0.1
		c-0.7,1.1-1.5,2-2.4,2.9c0.6,0,1.1-0.1,1.6-0.2c-0.1-0.3-0.2-0.7-0.3-1l0.2-0.2c0.5,0.3,0.9,0.5,1.1,0.7c0.2,0.3,0.4,0.5,0.4,0.7
		c0,0.3-0.1,0.5-0.2,0.7c-0.2,0.2-0.4,0.3-0.6,0.3c-0.1,0-0.2,0-0.3-0.1c-0.1,0-0.1-0.3-0.2-0.7c0,0,0-0.1,0-0.1
		c-0.7,0.5-1.4,0.8-2.2,1c-0.1,0-0.2,0.1-0.2,0.1c0,0,0,0.1,0,0.1c0,0.1-0.1,0.1-0.1,0.1c-0.2,0-0.3-0.3-0.5-0.8
		c-0.1-0.1-0.2-0.4-0.3-0.7c0.4,0,0.8,0,1.2-0.1c0.8-1.3,1.4-2.6,1.8-4C441.1,75.3,441.5,75.4,441.9,75.6L441.9,75.6z M439.4,81.1
		c0.5,0.1,0.7,0.1,0.7,0.3c0,0.1-0.1,0.2-0.4,0.3c-0.2,0.1-0.3,0.2-0.3,0.3v1.5h0.9c0-0.3,0-0.7,0-1.2c0-0.5,0-1.1-0.1-1.9
		c0.4,0.1,0.9,0.1,1.3,0.2c0.3,0.1,0.5,0.1,0.6,0.2c0-0.1,0-0.2,0-0.3c0.4,0.1,0.8,0.1,1.3,0.2c0.5,0.1,0.7,0.1,0.7,0.2
		c0,0.1-0.1,0.3-0.4,0.3c-0.2,0.1-0.3,0.2-0.3,0.3v1.8h0.9v-1.4c0-0.4,0-0.7-0.1-1c0.3,0.1,0.8,0.1,1.3,0.2c0.5,0.1,0.7,0.1,0.7,0.2
		c0,0.1-0.1,0.2-0.4,0.3c-0.2,0.1-0.3,0.2-0.3,0.3v2.2c0,0.2-0.2,0.3-0.6,0.3c-0.2,0-0.3,0-0.4,0c-0.2,0-0.3-0.1-0.3-0.2v-0.6h-0.9
		v2.6c0,0.2-0.2,0.3-0.6,0.4c-0.2,0-0.3,0-0.4,0c-0.3,0-0.4-0.1-0.4-0.2c0-0.2,0.1-0.4,0.1-0.5v-4.5c0-0.1,0-0.3,0-0.4
		c-0.1,0-0.1,0.1-0.2,0.1c-0.2,0.1-0.3,0.2-0.3,0.3c0,1.3,0,2.2-0.1,2.5c-0.1,0.5-0.3,0.8-0.5,1.1c-0.2,0.3-0.5,0.6-0.9,0.8
		c-0.4,0.2-1,0.5-1.8,0.7l-0.1-0.2c0.5-0.3,0.9-0.6,1.3-1c0.3-0.3,0.5-0.6,0.6-1.1c0.1-0.2,0.1-0.4,0.1-0.7h-0.8v0.6
		c0,0.2-0.2,0.3-0.6,0.3c-0.2,0-0.3,0-0.4,0c-0.2,0-0.3-0.1-0.3-0.2v-2.7c0-0.4,0-0.7-0.1-1C438.5,81,438.9,81,439.4,81.1
		L439.4,81.1z M444.6,74.3c0.4,0.2,0.6,0.3,0.6,0.5c0,0.1-0.1,0.1-0.3,0.1c-0.2,0-0.3,0-0.3,0.1c-0.5,0.7-1,1.3-1.6,1.8
		c0.1,0.1,0.3,0.1,0.3,0.2c0.2,0.2,0.3,0.3,0.3,0.5c0,0.3-0.1,0.5-0.3,0.8c-0.2,0.2-0.4,0.3-0.6,0.3c-0.1,0-0.2-0.2-0.3-0.5
		c-0.1-0.4-0.3-0.9-0.6-1.3l0.1-0.2c0.3,0.1,0.5,0.1,0.7,0.2c0.3-0.9,0.6-1.9,0.8-2.9C443.7,73.9,444.2,74.1,444.6,74.3L444.6,74.3z
		 M445.8,75.9c0.3,0.1,0.5,0.3,0.5,0.4c0,0.1-0.1,0.1-0.3,0.1c-0.2,0-0.3,0.1-0.3,0.1c-0.6,0.9-1.3,1.7-2,2.5c0.5,0,1-0.1,1.4-0.2
		c-0.1-0.3-0.1-0.6-0.3-0.9l0.2-0.2c0.5,0.3,0.8,0.5,1,0.7c0.2,0.3,0.4,0.5,0.4,0.7c0,0.3-0.1,0.6-0.2,0.8c-0.2,0.2-0.4,0.3-0.6,0.3
		c-0.1,0-0.2,0-0.2-0.1c-0.1,0-0.1-0.3-0.1-0.7c0-0.1,0-0.1,0-0.2c-0.6,0.4-1.1,0.8-1.7,1c-0.1,0-0.1,0.1-0.1,0.1c0,0,0,0.1,0,0.1
		c0,0.1-0.1,0.1-0.1,0.1c-0.2,0-0.3-0.3-0.5-0.8c-0.1-0.1-0.2-0.4-0.3-0.7c0.3,0,0.5,0,0.8-0.1c0.6-1.1,1.1-2.3,1.5-3.6
		C445,75.6,445.4,75.7,445.8,75.9L445.8,75.9z"/>
	<path class="st0" d="M449.9,75.1h1.2c0,0,0.2-0.2,0.5-0.5c0.3-0.4,0.5-0.6,0.6-0.6c0.2,0,0.5,0.2,0.8,0.6c0.4,0.4,0.6,0.6,0.6,0.7
		c0,0.2-0.1,0.2-0.3,0.2h-2.1c-0.4,1.5-0.7,2.6-1,3.4l0.5,0.3h0.4c0.2-0.2,0.4-0.4,0.5-0.6c0.1-0.1,0.2-0.2,0.4-0.2
		c0.1,0,0.3,0.1,0.7,0.4c0.5,0.3,0.7,0.5,0.7,0.6c0,0.1-0.1,0.3-0.3,0.4c-0.1,0.1-0.2,0.3-0.2,0.4v3.5c0,0.4,0,0.9,0.1,1.6
		c0,0.2-0.2,0.3-0.7,0.4c-0.2,0-0.3,0-0.4,0c-0.3,0-0.4-0.1-0.4-0.4v-0.6h-0.9v1.1c0,0.1-0.2,0.3-0.7,0.3c-0.2,0-0.3,0-0.4,0
		c-0.3,0-0.5-0.1-0.5-0.4c0.1-0.6,0.1-1.3,0.1-2v-2.9c0,0,0,0.1,0,0.1c-0.4,0.6-0.8,1.1-1.2,1.4l-0.1-0.2c0.3-0.7,0.6-1.6,0.9-2.8
		c0.3-1.1,0.5-2.4,0.8-3.9c-0.6,0-1.1,0-1.4,0.1L448,75C448.4,75,449.1,75.1,449.9,75.1L449.9,75.1z M451.6,84.2v-4.7h-0.9v4.7
		H451.6z M456.6,84.8c0.4,0.2,0.6,0.4,0.6,0.5c0,0.1-0.1,0.2-0.3,0.2c-0.2,0-0.4,0-0.4,0.1c-0.5,0.2-1,0.4-1.5,0.6
		c-0.6,0.2-1.6,0.4-2.9,0.6l-0.1-0.2c0.8-0.3,1.4-0.7,2-1.1c0.7-0.5,1.2-0.9,1.4-1.3C455.9,84.4,456.3,84.6,456.6,84.8L456.6,84.8z
		 M455.6,74.9h2.9c0,0,0.2-0.2,0.5-0.6c0.3-0.4,0.5-0.6,0.6-0.6c0.2,0,0.5,0.2,0.8,0.6c0.4,0.4,0.6,0.6,0.6,0.7
		c0,0.2-0.1,0.2-0.3,0.2h-2.6c-0.4,0.6-0.8,1.2-1.2,1.6h1.3c0.2-0.2,0.3-0.3,0.5-0.4c0.2-0.2,0.4-0.3,0.5-0.3c0.2,0,0.5,0.1,0.9,0.4
		c0.5,0.4,0.8,0.7,0.8,0.8c0,0.1-0.1,0.3-0.3,0.4c-0.2,0.2-0.3,0.3-0.3,0.5V81l0.1,2.9c0,0.2-0.3,0.3-0.8,0.4c-0.2,0-0.4,0-0.5,0
		c-0.3,0-0.4-0.1-0.4-0.4v-0.2h-3.1V84c0,0.2-0.2,0.3-0.7,0.4c-0.2,0-0.3,0-0.4,0c-0.3,0-0.5-0.1-0.5-0.5c0-0.5,0.1-1,0.1-1.4v-4.3
		c0-0.7,0-1.4-0.1-2c0.6,0.2,1.2,0.4,1.8,0.7h0.4c0.1-0.5,0.1-1,0.2-1.6h-0.7c-0.8,0-1.4,0-1.7,0.1l-0.2-0.6
		C454.1,74.8,454.7,74.8,455.6,74.9L455.6,74.9z M458.6,78.8v-1.6h-3.1v1.6H458.6z M458.6,81v-1.8h-3.1V81H458.6z M458.6,83.2v-1.9
		h-3.1v1.9H458.6z M459.4,84.7c0.4,0.1,0.7,0.2,1,0.4c0.3,0.2,0.4,0.4,0.4,0.7c0,0.2-0.1,0.4-0.3,0.7c-0.2,0.2-0.4,0.3-0.6,0.3
		c-0.2,0-0.3-0.1-0.5-0.3c-0.6-0.7-1.2-1.3-2-1.8l0.1-0.3C457.9,84.4,458.6,84.5,459.4,84.7L459.4,84.7z"/>
	<path class="st0" d="M467.1,77.4c0.3,0.4,0.4,0.6,0.4,0.7c0,0.2-0.1,0.2-0.2,0.2h-1.7v4.8c0.6-0.1,1.2-0.3,1.8-0.5l0.1,0.2
		c-1.1,1-2.3,1.6-3.5,2.1c-0.1,0-0.2,0.1-0.2,0.2c0,0.1,0,0.1-0.1,0.2c0,0.1-0.1,0.2-0.2,0.2c-0.2,0-0.4-0.3-0.7-1
		c-0.1-0.2-0.2-0.5-0.3-0.9c0.6-0.1,1.1-0.1,1.6-0.2v-5H464c-0.3,0-0.7,0-1.1,0.1l-0.2-0.6c0.6,0.1,1,0.1,1.3,0.1h0.2v-1.8
		c0-0.8-0.1-1.5-0.2-2.1c0.4,0.1,0.9,0.1,1.6,0.2c0.5,0.1,0.8,0.2,0.8,0.3c0,0.1-0.1,0.3-0.4,0.4c-0.2,0.1-0.3,0.2-0.3,0.3V78h0.2
		c0.1-0.1,0.2-0.3,0.3-0.6c0.2-0.4,0.3-0.5,0.3-0.5C466.6,76.8,466.8,77,467.1,77.4L467.1,77.4z M473.3,76.5
		c0.1-0.2,0.2-0.3,0.4-0.3c0.1,0,0.4,0.1,0.8,0.4c0.5,0.3,0.8,0.6,0.8,0.7c0,0.1-0.1,0.2-0.4,0.4c-0.2,0.1-0.3,0.3-0.3,0.4
		c0,2.7-0.1,4.2-0.3,4.6c-0.1,0.4-0.4,0.7-0.7,0.8c-0.3,0.2-0.5,0.3-0.7,0.3c-0.1,0-0.2-0.2-0.3-0.6c-0.1-0.4-0.3-0.7-0.7-0.9v1.3
		c0,0.2-0.2,0.3-0.7,0.4c-0.2,0-0.3,0-0.4,0c-0.3,0-0.5-0.1-0.5-0.4c0.1-0.9,0.1-1.7,0.1-2.5v-2.8l-1.2,0.4v5.9
		c0,0.3,0.1,0.5,0.4,0.5c0.5,0.1,1.2,0.1,2.1,0.1c0.6,0,1.1,0,1.5-0.1c0.3-0.1,0.5-0.1,0.6-0.3c0.1-0.1,0.2-0.3,0.3-0.6
		c0.1-0.4,0.3-0.9,0.5-1.6l0.3,0.1c0,0.7,0,1.2,0,1.3c0,0.5,0.1,0.8,0.3,0.9c0.2,0.2,0.4,0.4,0.4,0.6c0,0.3-0.2,0.5-0.6,0.7
		c-0.3,0.1-0.6,0.2-1,0.3c-0.6,0.1-1.4,0.1-2.4,0.1c-1.5,0-2.5-0.1-3-0.1c-0.4-0.1-0.7-0.3-0.8-0.5c-0.1-0.2-0.2-0.5-0.2-0.9v-5.8
		c-0.4,0.1-0.8,0.3-1.1,0.5l-0.4-0.5c0.4,0,0.9-0.1,1.5-0.4v-2.7c0-0.5,0-1.1-0.1-1.6c0.5,0,1,0.1,1.6,0.2c0.5,0.1,0.8,0.2,0.8,0.3
		c0,0.2-0.1,0.3-0.4,0.4c-0.2,0.1-0.3,0.2-0.3,0.4v2.5l1.2-0.4v-1.6c0-0.9-0.1-1.8-0.2-2.5c0.4,0,1,0.1,1.6,0.2
		c0.5,0.1,0.7,0.2,0.7,0.3c0,0.2-0.1,0.3-0.4,0.4c-0.2,0.1-0.3,0.2-0.3,0.3v2.4l0.9-0.3C473,76.9,473.2,76.6,473.3,76.5L473.3,76.5z
		 M472,82c0.2,0,0.5,0,0.7,0c0.2,0,0.3-0.1,0.4-0.4c0-0.5,0.1-1.9,0.1-4.2l-1.1,0.4V82z"/>
	<path class="st0" d="M484.5,74c0.4,0,0.5,0.1,0.5,0.3c0,0.1-0.1,0.2-0.3,0.3c-0.2,0.1-0.4,0.3-0.4,0.4v0.6h3c0,0,0.2-0.2,0.5-0.6
		c0.3-0.4,0.5-0.7,0.6-0.7c0.2,0,0.5,0.2,0.9,0.6c0.4,0.4,0.6,0.7,0.6,0.8c0,0.2-0.1,0.2-0.3,0.2h-2.5c0.1,0.1,0.2,0.1,0.3,0.2
		c0.5,0.3,0.8,0.5,0.8,0.6c0,0.1-0.1,0.2-0.4,0.2l-0.5-0.1c-0.5,0.3-0.9,0.5-1.4,0.7c0.6,0.2,1,0.4,1.2,0.6c0.2,0.1,0.2,0.3,0.2,0.5
		c0,0.2-0.1,0.4-0.2,0.5c0,0.1-0.1,0.1-0.1,0.1h0.6c0,0,0.1-0.1,0.4-0.4c0.3-0.4,0.5-0.6,0.7-0.6c0.1,0,0.4,0.2,0.9,0.7
		c0.3,0.3,0.5,0.5,0.5,0.5c0,0.2-0.1,0.2-0.3,0.2h-10.1V81c0,1-0.1,1.9-0.2,2.6c-0.2,0.7-0.4,1.3-0.8,1.9c-0.3,0.5-0.8,0.9-1.4,1.4
		l-0.2-0.1c0.4-0.7,0.6-1.4,0.8-2.1c0.2-0.8,0.3-2,0.3-3.6c0-1.2-0.1-2.1-0.2-2.6c0.8,0.2,1.4,0.5,1.8,0.7h6.4
		c-0.1-0.1-0.3-0.2-0.5-0.3c-0.4-0.3-0.8-0.6-1.3-0.8c-0.1,0-0.1,0-0.2,0.1c-1,0.3-2.4,0.6-4.3,0.9l-0.1-0.2
		c1.4-0.4,2.5-0.9,3.4-1.2c-0.7-0.3-1.7-0.6-2.9-0.9l0.1-0.2c1.6,0.2,2.8,0.4,3.8,0.6c0.6-0.3,1.2-0.7,1.7-1.1h-6.1
		c-0.8,0-1.4,0-1.7,0.1l-0.2-0.6c0.5,0.1,1.1,0.1,2,0.1h2.9V75c0-0.4,0-0.8-0.1-1.2C483.3,73.8,483.9,73.9,484.5,74L484.5,74z
		 M482.6,80.3c0.4,0.1,0.6,0.3,0.6,0.4s-0.1,0.2-0.3,0.2c-0.2,0-0.4,0.1-0.4,0.1c-0.1,0.3-0.3,0.5-0.4,0.7h1.9V81
		c0-0.4,0-0.8-0.1-1.2c0.6,0.1,1.2,0.1,1.8,0.2c0.4,0,0.5,0.1,0.5,0.3c0,0.1-0.1,0.2-0.3,0.3c-0.2,0.1-0.3,0.3-0.3,0.4v0.9h1.2
		c0,0,0.1-0.1,0.4-0.4c0.3-0.4,0.6-0.6,0.7-0.6c0.1,0,0.4,0.2,0.9,0.7c0.3,0.3,0.5,0.5,0.5,0.5c0,0.1-0.1,0.2-0.3,0.2h-3.3v1.7h1.1
		c0,0,0.2-0.2,0.4-0.5c0.3-0.4,0.5-0.5,0.5-0.5c0.1,0,0.4,0.2,0.7,0.5c0.3,0.4,0.5,0.6,0.5,0.6c0,0.2-0.1,0.2-0.2,0.2h-3v1.8h1.8
		c0,0,0.2-0.2,0.5-0.6c0.3-0.4,0.5-0.7,0.6-0.7c0.2,0,0.5,0.2,0.9,0.6c0.4,0.4,0.6,0.7,0.6,0.8c0,0.1-0.1,0.2-0.3,0.2h-8.3
		c-0.8,0-1.4,0-1.7,0.1l-0.2-0.6c0.4,0.1,1.1,0.1,2,0.1h2.7v-1.8H483c-0.8,0-1.4,0-1.7,0.1l-0.2-0.6c0.5,0.1,1.1,0.1,2,0.1h1.1v-1.7
		h-2.2c-0.1,0.1-0.2,0.3-0.3,0.4c-0.4,0.4-0.8,0.8-1.4,1.2l-0.2-0.2c0.4-0.6,0.6-1.2,0.8-1.7c0.2-0.5,0.4-1.2,0.5-2
		C481.8,80.1,482.2,80.2,482.6,80.3L482.6,80.3z"/>
	<path class="st0" d="M496.4,77.3c0.5,0.3,0.7,0.5,0.7,0.6s-0.1,0.2-0.4,0.2c-0.3,0-0.5,0.1-0.5,0.1c-0.3,0.5-0.6,0.9-1,1.2h0
		c0.3,0.1,0.5,0.2,0.5,0.2c0,0.2-0.1,0.3-0.3,0.4c-0.1,0.1-0.2,0.2-0.2,0.3v5.9c0,0.2-0.2,0.3-0.7,0.4c-0.2,0-0.3,0-0.4,0
		c-0.3,0-0.5-0.2-0.5-0.5c0.1-1,0.1-2,0.1-3.1v-2.4c-0.5,0.4-1.1,0.7-1.8,1.1l-0.1-0.3c0.7-0.7,1.4-1.4,1.9-2.3
		c0.6-1,1.1-1.9,1.3-2.8C495.6,76.9,496.1,77.1,496.4,77.3L496.4,77.3z M495.7,74.5c0.4,0.2,0.6,0.4,0.6,0.5c0,0.1-0.1,0.2-0.3,0.2
		c-0.3,0-0.4,0-0.5,0.1c-0.4,0.5-0.8,1-1.2,1.4c-0.5,0.5-1.2,1-2.3,1.6l-0.1-0.2c0.6-0.6,1.1-1.2,1.5-2c0.5-0.8,0.9-1.6,1.1-2.3
		C495,74.1,495.4,74.3,495.7,74.5L495.7,74.5z M499,78.4h3.2c0,0,0.2-0.2,0.5-0.6c0.4-0.5,0.6-0.7,0.7-0.7c0.2,0,0.5,0.2,0.9,0.7
		c0.4,0.5,0.6,0.7,0.6,0.8c0,0.2-0.1,0.2-0.3,0.2h-2v6c0,0.8-0.3,1.4-0.8,1.6c-0.5,0.3-0.9,0.4-1.1,0.4c-0.2,0-0.3-0.2-0.4-0.5
		c-0.2-0.5-0.8-0.9-1.9-1.3l0-0.3c0.8,0.1,1.5,0.2,2.1,0.2c0.3,0,0.4-0.1,0.4-0.4v-5.6h-2.1c-0.8,0-1.4,0-1.7,0.1l-0.2-0.6
		C497.4,78.4,498.1,78.4,499,78.4L499,78.4z M499.6,75.2h1.9c0,0,0.2-0.2,0.5-0.6c0.3-0.5,0.6-0.7,0.6-0.7c0.2,0,0.5,0.2,0.9,0.7
		c0.4,0.4,0.6,0.7,0.6,0.8c0,0.1-0.1,0.2-0.3,0.2h-4.2c-0.8,0-1.4,0-1.7,0.1l-0.2-0.6C498,75.2,498.7,75.2,499.6,75.2L499.6,75.2z"
		/>
	<path class="st0" d="M509.9,74.2c0.5,0.1,0.7,0.3,0.7,0.4c0,0.1-0.2,0.2-0.4,0.2c-0.1,0-0.1,0-0.1,0c0.7,0.3,1.3,0.5,1.6,0.8
		c0.4,0.3,0.6,0.7,0.6,1.2c0,0.2-0.1,0.4-0.3,0.6c-0.1,0.1-0.3,0.2-0.5,0.2c-0.3,0-0.5-0.2-0.7-0.7c-0.2-0.6-0.6-1.1-1.1-1.7
		c-0.3,0.7-0.7,1.3-1.1,1.8c-0.3,0.3-0.5,0.7-0.9,1c0.5,0.1,1,0.1,1.7,0.1c0,0,0.1-0.2,0.4-0.4c0.3-0.3,0.4-0.5,0.5-0.5
		c0.1,0,0.4,0.2,0.7,0.5c0.3,0.3,0.5,0.5,0.5,0.6c0,0.2-0.1,0.2-0.2,0.2h-1.2V80h0.1c0,0,0.2-0.2,0.4-0.5c0.3-0.3,0.5-0.5,0.5-0.5
		c0.1,0,0.4,0.2,0.7,0.5c0.3,0.3,0.5,0.6,0.5,0.6c0,0.1-0.1,0.2-0.2,0.2h-1.9v3.8c0.7-0.1,1.4-0.2,2.1-0.3l0.1,0.2
		c-1.3,0.9-2.6,1.6-4.1,2c-0.2,0-0.2,0.1-0.2,0.2c0,0,0,0.1-0.1,0.2c0,0.1-0.1,0.2-0.2,0.2c-0.2,0-0.5-0.4-0.7-1.1
		c-0.1-0.2-0.2-0.5-0.4-0.9c0.7,0,1.4-0.1,2.1-0.2v-3.9c-0.8,0-1.3,0-1.6,0.1l-0.2-0.6c0.4,0.1,1.1,0.1,1.8,0.1v-1.6
		c-0.4,0-0.7,0-0.9,0l-0.1-0.3c-0.2,0.2-0.5,0.5-0.8,0.7l-0.2-0.2c0.3-0.5,0.7-1.2,1.1-2.1c0.3-0.7,0.6-1.6,0.8-2.7
		C509,74,509.5,74.1,509.9,74.2L509.9,74.2z M507.9,81.9c0.3,0.4,0.4,0.7,0.4,1c0,0.3-0.1,0.5-0.2,0.7c-0.2,0.2-0.4,0.3-0.6,0.3
		c-0.1,0-0.2,0-0.3-0.1c-0.1-0.1-0.1-0.3-0.2-0.8c0-0.6-0.2-1.2-0.4-1.8l0.2-0.2C507.3,81.3,507.7,81.6,507.9,81.9L507.9,81.9z
		 M512.1,81c0.2,0.1,0.4,0.2,0.4,0.3v-1.6c0-0.7,0-1.3-0.1-1.9c0.6,0.2,1.2,0.4,1.9,0.7h0.4v-3.4c0-0.4,0-0.8-0.1-1.2
		c0.6,0.1,1.2,0.1,1.8,0.2c0.4,0,0.5,0.1,0.5,0.3c0,0.1-0.1,0.2-0.3,0.3c-0.2,0.1-0.4,0.3-0.4,0.4v3.4h0.7c0.1-0.1,0.2-0.3,0.3-0.4
		c0.3-0.3,0.4-0.4,0.5-0.4c0.1,0,0.4,0.2,0.9,0.5c0.4,0.3,0.6,0.6,0.6,0.7c0,0.1-0.1,0.2-0.3,0.4c-0.3,0.2-0.4,0.4-0.4,0.5v5.6
		c0,0.5-0.2,0.9-0.7,1.1c-0.4,0.2-0.7,0.3-1,0.3c-0.1,0-0.2-0.2-0.3-0.5c-0.1-0.4-0.6-0.8-1.5-1.1l0.1-0.3c0.7,0.1,1.3,0.1,1.7,0.1
		c0.1,0,0.2-0.1,0.2-0.5V83h-3.2v3.4c0,0.2-0.2,0.3-0.6,0.4c-0.2,0-0.3,0-0.4,0c-0.3,0-0.4-0.2-0.4-0.5c0-0.5,0.1-0.9,0.1-1.3v-3.5
		c-0.1,0-0.1,0-0.2,0c-0.2,0-0.3,0.1-0.3,0.1c-0.4,0.7-0.9,1.3-1.4,1.9l-0.2-0.2c0.2-0.9,0.4-1.8,0.5-2.8
		C511.3,80.7,511.7,80.9,512.1,81L512.1,81z M513.9,75.9c0.3,0.3,0.5,0.7,0.5,1.1c0,0.3-0.1,0.5-0.3,0.7c-0.1,0.2-0.3,0.2-0.6,0.2
		c-0.2,0-0.4-0.2-0.6-0.7c-0.2-0.7-0.6-1.3-1.1-2l0.1-0.2C512.8,75.3,513.5,75.5,513.9,75.9L513.9,75.9z M517.1,80.4v-1.6h-3.2v1.6
		H517.1z M517.1,82.6v-1.8h-3.2v1.8H517.1z M518.8,75.3c0.5,0.3,0.7,0.4,0.7,0.6c0,0.1-0.1,0.2-0.4,0.2c-0.3,0-0.4,0-0.5,0.1
		c-0.2,0.3-0.5,0.6-0.7,0.8c-0.3,0.3-0.7,0.6-1.3,0.9l-0.1-0.2c0.2-0.4,0.5-0.9,0.7-1.4c0.2-0.6,0.4-1.1,0.5-1.7
		C518.1,74.9,518.5,75.1,518.8,75.3L518.8,75.3z"/>
	<path class="st0" d="M523.6,74.5h8.2c0.2-0.1,0.3-0.3,0.4-0.4c0.2-0.2,0.3-0.3,0.4-0.3c0.2,0,0.4,0.1,0.9,0.4
		c0.5,0.4,0.8,0.7,0.8,0.8c0,0.1-0.1,0.3-0.4,0.4c-0.2,0.2-0.3,0.3-0.3,0.5v7.7l0.1,2.9c0,0.2-0.3,0.3-0.8,0.4c-0.2,0-0.4,0-0.5,0
		c-0.3,0-0.4-0.2-0.4-0.5V86h-8.6v0.5c0,0.2-0.2,0.3-0.7,0.4c-0.2,0-0.3,0-0.4,0c-0.3,0-0.5-0.1-0.5-0.4c0.1-1,0.1-1.9,0.1-2.6v-7.6
		c0-0.7,0-1.5-0.1-2.4C522.5,74,523.1,74.2,523.6,74.5L523.6,74.5z M532,85.6v-2.8h-1.9v1c0,0.6-0.2,1-0.5,1.2
		c-0.3,0.3-0.7,0.4-1,0.4c-0.1,0-0.2-0.1-0.2-0.4c-0.1-0.4-0.5-0.8-1.2-1.2l0.1-0.3c0.5,0.1,1,0.2,1.2,0.2c0.2,0,0.3-0.1,0.3-0.2
		v-0.6h-3.1c-0.8,0-1.4,0-1.7,0.1l-0.2-0.6c0.5,0.1,1.1,0.1,2,0.1h3.1v-0.2c0-0.2,0-0.6-0.1-1.1c-1.2,0.3-2.5,0.5-3.9,0.6
		c-0.1,0-0.1,0.1-0.1,0.2c0,0.2-0.1,0.2-0.1,0.2c-0.2,0-0.3-0.2-0.4-0.6c-0.1-0.2-0.2-0.5-0.4-1c1.1,0,2.3,0,3.5-0.1V80h-1.7
		c-0.1,0.1-0.3,0.2-0.6,0.2c-0.2,0-0.3,0-0.4,0c-0.3,0-0.4-0.1-0.4-0.4c0-0.4,0.1-0.9,0.1-1.3v-0.3c0-0.6,0-1.2-0.1-1.8
		c0.5,0.1,1.1,0.4,1.7,0.6h1.3v-0.2c0-0.2,0-0.4,0-0.6h-1.6c-0.8,0-1.4,0-1.7,0.1l-0.2-0.6c0.4,0.1,1.1,0.1,1.9,0.1h1.6
		c0-0.3-0.1-0.7-0.1-1c0.4,0.1,0.8,0.1,1.4,0.2c0.5,0.1,0.7,0.2,0.7,0.2c0,0.1-0.1,0.2-0.4,0.3c-0.1,0-0.2,0.1-0.3,0.2h1.3
		c0,0,0.1-0.2,0.4-0.4c0.3-0.3,0.4-0.5,0.5-0.5c0.1,0,0.4,0.2,0.7,0.5c0.3,0.3,0.5,0.5,0.5,0.6c0,0.1-0.1,0.2-0.2,0.2h-3.1v0.8h1.3
		c0.2-0.2,0.3-0.3,0.5-0.4c0.1-0.1,0.2-0.2,0.3-0.2c0.1,0,0.3,0.1,0.7,0.3c0.4,0.3,0.6,0.5,0.6,0.6c0,0.1-0.1,0.2-0.3,0.3
		c-0.1,0.1-0.2,0.2-0.2,0.3v0.2c0,0.4,0,0.9,0.1,1.5c0,0.2-0.2,0.3-0.6,0.4c-0.2,0-0.3,0-0.4,0c-0.2,0-0.3-0.1-0.3-0.2h-1.7v0.5
		c0.3,0,0.6,0,0.9-0.1c-0.1-0.1-0.1-0.1-0.2-0.2l0.1-0.2c0.8,0.1,1.3,0.3,1.6,0.4c0.3,0.1,0.4,0.3,0.4,0.5s-0.1,0.4-0.3,0.5
		c-0.1,0.1-0.2,0.2-0.4,0.2c0,0-0.1,0-0.1,0c-0.1,0-0.1,0.1-0.2,0.1c-0.2,0.1-0.3,0.2-0.3,0.3v0.2h0.5c0,0,0.1-0.1,0.3-0.4
		c0.2-0.3,0.4-0.4,0.4-0.4c0.1,0,0.3,0.1,0.6,0.4c0,0,0,0.1,0.1,0.1v-7.3h-8.6v10.7L532,85.6L532,85.6z M526.4,83.5
		c0.2,0.1,0.4,0.2,0.4,0.4c0,0.3-0.1,0.5-0.3,0.7c-0.2,0.2-0.4,0.3-0.6,0.3c-0.1,0-0.3-0.1-0.4-0.4c-0.1-0.4-0.4-0.7-0.7-1.1
		l0.1-0.2C525.6,83.2,526.1,83.3,526.4,83.5z M527.1,78.4v-0.8h-1.6v0.8H527.1z M527.1,79.7v-0.9h-1.6v0.9H527.1z M528.5,78.4h1.6
		v-0.8h-1.6V78.4z M528.5,79.7h1.6v-0.9h-1.6V79.7z M529.9,81.3c0.1,0,0.1,0,0.2,0c-0.1-0.1-0.2-0.3-0.3-0.4
		c-0.3,0.1-0.5,0.1-0.7,0.2C529.5,81.2,529.7,81.2,529.9,81.3L529.9,81.3z"/>
	<path class="st0" d="M540.6,74.7c0.4,0.3,0.6,0.6,0.6,0.7c0,0.1-0.2,0.2-0.4,0.2c-0.3,0.1-0.5,0.2-0.6,0.3c-0.5,1.3-1,2.3-1.4,3
		c0.6,0.5,1,1,1.3,1.4c0.2,0.3,0.3,0.6,0.4,1c0.1,0.3,0.2,0.7,0.2,1.1c0,0.5-0.1,0.9-0.3,1.2c-0.2,0.3-0.4,0.6-0.7,0.7
		c-0.3,0.2-0.5,0.2-0.6,0.2c-0.1,0-0.2-0.1-0.3-0.5c-0.1-0.3-0.4-0.6-1-0.9v3.2c0,0.2-0.2,0.3-0.6,0.4c-0.2,0-0.3,0-0.4,0
		c-0.3,0-0.4-0.1-0.4-0.4c0.1-0.9,0.1-1.8,0.1-2.5v-7.3c0-0.6,0-1.4-0.1-2.3c0.6,0.1,1.1,0.3,1.6,0.6h0.7c0.2-0.2,0.4-0.4,0.6-0.5
		c0.2-0.1,0.3-0.2,0.4-0.2C539.8,74.1,540.1,74.3,540.6,74.7L540.6,74.7z M537.8,82.8c0.3,0.1,0.6,0.1,0.8,0.1c0.2,0,0.3,0,0.4-0.2
		c0.1-0.2,0.1-0.5,0.1-0.8c0-0.6-0.1-1.1-0.2-1.5c-0.2-0.5-0.4-1-0.7-1.5c0.2-1.1,0.4-2.3,0.5-3.7h-1L537.8,82.8L537.8,82.8z
		 M546.7,74.1c0.5,0.1,0.7,0.3,0.7,0.4c0,0.1-0.1,0.2-0.4,0.2c-0.2,0-0.4,0.1-0.4,0.2c-0.3,0.5-0.5,0.9-0.8,1.2
		c-0.2,0.2-0.4,0.5-0.7,0.7h1.1c0,0,0.2-0.2,0.5-0.6c0.4-0.5,0.6-0.7,0.7-0.7c0.2,0,0.5,0.2,0.9,0.7c0.4,0.5,0.6,0.7,0.6,0.8
		c0,0.2-0.1,0.2-0.3,0.2h-3.3c-0.5,0.6-1,1-1.4,1.3c0.6,0.6,1,1.1,1.3,1.7c0.2-0.2,0.4-0.5,0.6-0.7c0.3-0.5,0.6-0.9,0.7-1.4
		c0.4,0.3,0.8,0.5,1.1,0.6c0.4,0.2,0.7,0.4,0.7,0.5c0,0.1-0.1,0.2-0.3,0.2c-0.3,0-0.4,0-0.4,0.1c-0.3,0.2-0.6,0.4-0.9,0.6
		c-0.3,0.2-0.7,0.3-1.2,0.5c0,0,0,0.1,0,0.1c0.4,0.6,0.9,1.1,1.4,1.4c0.8,0.5,1.5,0.9,2.3,1.1l-0.1,0.3c-0.4,0.1-0.7,0.4-0.9,0.9
		c-0.1,0.3-0.2,0.5-0.3,0.5c-0.1,0-0.4-0.2-0.9-0.6c-0.3-0.3-0.6-0.7-0.9-1.1c0,0.1,0,0.3,0,0.4c0,0.9-0.1,1.6-0.4,2.1
		c-0.3,0.5-0.6,0.8-1,1.1c-0.4,0.2-0.6,0.3-0.8,0.3c-0.1,0-0.3-0.2-0.4-0.6c-0.2-0.5-0.8-0.9-1.8-1.2l0.1-0.3
		c0.7,0.1,1.2,0.2,1.4,0.2c0.6,0,0.9-0.1,1.1-0.3c0.2-0.2,0.2-0.6,0.2-1.2c0-0.2,0-0.5,0-0.7c-0.6,0.4-1.3,0.8-1.9,1.1
		c-0.9,0.4-2,0.8-3.5,1.2l-0.1-0.3c1-0.5,1.9-1,2.6-1.5c0.8-0.5,1.7-1.3,2.8-2.3c0-0.1,0-0.2,0-0.3c0-0.1,0-0.2-0.1-0.3
		c-0.4,0.3-0.8,0.5-1.2,0.7c-0.5,0.3-1.3,0.5-2.1,0.7l-0.1-0.3c0.6-0.3,1.1-0.7,1.5-1c0.5-0.4,1-0.9,1.6-1.6
		c-0.1-0.1-0.1-0.2-0.2-0.3c-0.4,0.2-0.8,0.5-1.3,0.6c-0.6,0.2-1.2,0.4-2,0.6l-0.1-0.2c0.7-0.3,1.3-0.7,1.9-1.1
		c0.5-0.4,1-0.9,1.4-1.5h-1.3c-0.8,0-1.4,0-1.7,0.1l-0.2-0.6c0.5,0.1,1.1,0.1,2,0.1h2.4c0.1-0.3,0.3-0.7,0.5-1.2
		c0.1-0.5,0.3-1.1,0.4-1.8C545.8,73.9,546.2,74.1,546.7,74.1L546.7,74.1z M543.6,74.6c0.3,0.2,0.5,0.4,0.5,0.6c0,0.4-0.1,0.7-0.3,1
		c-0.2,0.3-0.5,0.4-0.7,0.4c-0.1,0-0.2,0-0.3-0.1c-0.1-0.1-0.1-0.3-0.2-0.7c-0.1-0.5-0.4-1.1-0.8-1.7l0.2-0.2
		C542.7,74.1,543.3,74.4,543.6,74.6L543.6,74.6z"/>
	<g>
		<g>
			<g>
				<path class="st0" d="M252.1,84.3V84c0.5-0.1,0.5-0.2,0.4-0.5c-0.1-0.3-0.2-0.7-0.3-1.1h-1.5c-0.1,0.3-0.2,0.6-0.3,0.9
					c-0.2,0.5,0,0.6,0.6,0.7v0.3h-1.8V84c0.5-0.1,0.6-0.1,0.9-0.9l1.6-4.5l0.3-0.1c0.5,1.5,1,3,1.5,4.5c0.3,0.8,0.3,0.8,0.9,0.9v0.3
					H252.1z M251.4,80c-0.2,0.7-0.5,1.3-0.7,1.9h1.3L251.4,80z"/>
				<path class="st0" d="M256.9,84.3h-1.9V84c0.4-0.1,0.5-0.1,0.5-0.6v-1.8c0-0.5,0-0.5-0.4-0.6v-0.2c0.4-0.1,0.8-0.2,1.3-0.3
					c0,0.3,0,0.7,0,0.9c0.3-0.5,0.6-0.9,0.9-0.9c0.3,0,0.5,0.2,0.5,0.5c0,0.3-0.2,0.6-0.3,0.6c-0.1,0.1-0.2,0-0.2,0
					c-0.1-0.1-0.2-0.2-0.4-0.2c-0.1,0-0.4,0.2-0.5,0.5v1.6c0,0.5,0,0.6,0.6,0.6V84.3z"/>
				<path class="st0" d="M261.3,83.5c-0.3,0.5-0.9,0.9-1.3,0.9c-1,0-1.6-0.9-1.6-1.8c0-0.6,0.3-1.2,0.8-1.7c0.5-0.4,0.9-0.5,1.3-0.5
					c0.3,0,0.6,0.1,0.7,0.2c0.1,0.1,0.1,0.2,0.1,0.3c0,0.2-0.2,0.4-0.3,0.4c0,0-0.1,0-0.2-0.1c-0.3-0.3-0.6-0.4-0.8-0.4
					c-0.4,0-0.8,0.4-0.8,1.3c0,1.2,0.7,1.5,1.1,1.5c0.3,0,0.6-0.1,0.9-0.4L261.3,83.5z"/>
				<path class="st0" d="M264.1,84.3V84c0.4-0.1,0.4-0.1,0.4-0.6v-1.5c0-0.7-0.2-0.9-0.6-0.9c-0.2,0-0.5,0.1-0.6,0.3v2.1
					c0,0.5,0,0.6,0.4,0.6v0.3h-1.8V84c0.4,0,0.5-0.1,0.5-0.6v-4c0-0.4,0-0.5-0.5-0.6v-0.3c0.5,0,1-0.2,1.3-0.3c0,0.3,0,0.7,0,1V81
					c0.3-0.3,0.7-0.6,1.1-0.6c0.7,0,1.1,0.5,1.1,1.4v1.5c0,0.5,0.1,0.6,0.5,0.6v0.3H264.1z"/>
				<path class="st0" d="M266.6,84.3V84c0.4-0.1,0.5-0.1,0.5-0.7v-1.7c0-0.6,0-0.6-0.4-0.7v-0.3c0.5-0.1,0.9-0.2,1.3-0.3
					c0,0.4,0,0.7,0,1.1v1.9c0,0.6,0,0.6,0.5,0.7v0.3H266.6z M267.4,79.7c-0.3,0-0.5-0.3-0.5-0.6c0-0.3,0.2-0.6,0.5-0.6
					c0.3,0,0.5,0.2,0.5,0.6C267.9,79.5,267.7,79.7,267.4,79.7z"/>
				<path class="st0" d="M270.7,84.3c-0.1,0.1-0.3,0.1-0.3,0.1c-0.6,0-0.9-0.3-0.9-1.1v-2.4H269l0-0.1l0.2-0.3h0.3v-0.7
					c0.2-0.2,0.5-0.4,0.8-0.6l0.1,0.1c0,0.3,0,0.7,0,1.3h0.8c0.1,0.1,0,0.3-0.1,0.4h-0.7V83c0,0.7,0.2,0.8,0.4,0.8
					c0.1,0,0.3,0,0.4-0.1l0.1,0.3L270.7,84.3z"/>
				<path class="st0" d="M274.8,83.5c-0.5,0.7-1.1,0.9-1.4,0.9c-1,0-1.6-0.8-1.6-1.9c0-0.6,0.2-1.2,0.5-1.5c0.3-0.4,0.8-0.6,1.2-0.6
					c0.7,0,1.2,0.7,1.2,1.4c0,0.2,0,0.3-0.1,0.3c-0.1,0-1.2,0.1-2,0.1c0,1,0.5,1.5,1.1,1.5c0.3,0,0.6-0.1,0.9-0.4L274.8,83.5z
					 M273.4,80.7c-0.3,0-0.6,0.4-0.7,1.1c0.4,0,0.7,0,1.1,0c0.1,0,0.2,0,0.2-0.2C274,81.2,273.8,80.7,273.4,80.7z"/>
				<path class="st0" d="M278.7,83.5c-0.3,0.5-0.9,0.9-1.3,0.9c-1,0-1.6-0.9-1.6-1.8c0-0.6,0.3-1.2,0.8-1.7c0.5-0.4,0.9-0.5,1.3-0.5
					c0.3,0,0.6,0.1,0.7,0.2c0.1,0.1,0.1,0.2,0.1,0.3c0,0.2-0.2,0.4-0.3,0.4c0,0-0.1,0-0.2-0.1c-0.3-0.3-0.6-0.4-0.8-0.4
					c-0.4,0-0.8,0.4-0.8,1.3c0,1.2,0.7,1.5,1.1,1.5c0.3,0,0.6-0.1,0.9-0.4L278.7,83.5z"/>
				<path class="st0" d="M281.1,84.3c-0.1,0.1-0.3,0.1-0.3,0.1c-0.6,0-0.9-0.3-0.9-1.1v-2.4h-0.5l0-0.1l0.2-0.3h0.3v-0.7
					c0.2-0.2,0.5-0.4,0.8-0.6l0.1,0.1c0,0.3,0,0.7,0,1.3h0.8c0.1,0.1,0,0.3-0.1,0.4h-0.7V83c0,0.7,0.2,0.8,0.4,0.8
					c0.1,0,0.3,0,0.4-0.1l0.1,0.3L281.1,84.3z"/>
				<path class="st0" d="M286.1,84.1c-0.4,0.1-0.9,0.2-1.4,0.3c0-0.2,0-0.4,0-0.6c-0.3,0.3-0.7,0.6-1.1,0.6c-0.6,0-1-0.4-1-1.2v-1.7
					c0-0.4-0.1-0.5-0.3-0.5l-0.2,0v-0.3c0.4,0,0.9-0.1,1.3-0.1c0,0.3,0,0.8,0,1.3v1.2c0,0.6,0.3,0.8,0.6,0.8c0.2,0,0.4-0.1,0.6-0.3
					v-2c0-0.4-0.1-0.5-0.3-0.5l-0.2,0v-0.3c0.5,0,1.1-0.1,1.4-0.1v2.8c0,0.4,0.1,0.5,0.3,0.5l0.2,0V84.1z"/>
				<path class="st0" d="M288.7,84.3h-1.9V84c0.4-0.1,0.5-0.1,0.5-0.6v-1.8c0-0.5,0-0.5-0.4-0.6v-0.2c0.4-0.1,0.8-0.2,1.3-0.3
					c0,0.3,0,0.7,0,0.9c0.3-0.5,0.6-0.9,0.9-0.9c0.3,0,0.5,0.2,0.5,0.5c0,0.3-0.2,0.6-0.3,0.6c-0.1,0.1-0.2,0-0.2,0
					c-0.1-0.1-0.2-0.2-0.4-0.2c-0.1,0-0.4,0.2-0.5,0.5v1.6c0,0.5,0,0.6,0.6,0.6V84.3z"/>
				<path class="st0" d="M293.1,83.5c-0.5,0.7-1.1,0.9-1.4,0.9c-1,0-1.6-0.8-1.6-1.9c0-0.6,0.2-1.2,0.5-1.5c0.3-0.4,0.8-0.6,1.2-0.6
					c0.7,0,1.2,0.7,1.2,1.4c0,0.2,0,0.3-0.1,0.3c-0.1,0-1.2,0.1-2,0.1c0,1,0.5,1.5,1.1,1.5c0.3,0,0.6-0.1,0.9-0.4L293.1,83.5z
					 M291.8,80.7c-0.3,0-0.6,0.4-0.7,1.1c0.4,0,0.7,0,1.1,0c0.1,0,0.2,0,0.2-0.2C292.3,81.2,292.1,80.7,291.8,80.7z"/>
				<path class="st0" d="M297.9,80.4c1,0,1.7,0.9,1.7,1.9c0,1.4-0.9,2.1-1.7,2.1c-1.1,0-1.8-1-1.8-2
					C296.1,81.1,297.1,80.4,297.9,80.4z M297.8,80.7c-0.4,0-0.7,0.4-0.7,1.5c0,1.1,0.4,1.9,0.9,1.9c0.4,0,0.7-0.3,0.7-1.5
					C298.6,81.4,298.3,80.7,297.8,80.7z"/>
				<path class="st0" d="M300.9,80.5v-0.2c0-0.6,0.3-1.2,0.7-1.6c0.3-0.3,0.6-0.4,0.9-0.4c0.3,0,0.5,0.1,0.6,0.3
					c0.1,0.1,0.1,0.2,0.1,0.4c0,0.1-0.1,0.3-0.2,0.3c-0.1,0.1-0.2,0.1-0.3,0c-0.2-0.2-0.4-0.4-0.6-0.4c-0.3,0-0.4,0.5-0.3,1.4v0.4
					h0.7c0,0.1,0,0.3-0.1,0.4h-0.6v2.5c0,0.6,0.1,0.6,0.6,0.7v0.3h-1.9V84c0.4-0.1,0.5-0.1,0.5-0.6v-2.5h-0.5l0-0.1l0.2-0.3H300.9z"
					/>
				<path class="st0" d="M307.4,84.3V84c0.4-0.1,0.4-0.1,0.4-0.7v-1.4c0-0.6-0.2-0.9-0.6-0.9c-0.2,0-0.5,0.1-0.7,0.3v2
					c0,0.5,0,0.6,0.4,0.6v0.3h-1.7V84c0.4-0.1,0.5-0.1,0.5-0.6v-1.8c0-0.5-0.1-0.6-0.4-0.6v-0.3c0.4-0.1,0.9-0.2,1.3-0.3
					c0,0.1,0,0.4,0,0.6c0.2-0.1,0.3-0.2,0.5-0.4c0.2-0.2,0.4-0.2,0.6-0.2c0.6,0,1,0.5,1,1.4v1.6c0,0.5,0,0.6,0.4,0.6v0.3H307.4z"/>
				<path class="st0" d="M312.4,84.4c-0.2,0-0.3-0.1-0.4-0.2c-0.1-0.1-0.2-0.2-0.2-0.3c-0.3,0.2-0.7,0.5-0.8,0.5c-0.6,0-1-0.5-1-1.1
					c0-0.4,0.2-0.7,0.6-0.8c0.5-0.2,1.1-0.4,1.2-0.6v-0.3c0-0.5-0.2-0.8-0.5-0.8c-0.1,0-0.3,0.1-0.3,0.2c-0.1,0.1-0.1,0.3-0.2,0.6
					c0,0.2-0.2,0.3-0.3,0.3c-0.2,0-0.4-0.2-0.4-0.4c0-0.1,0.1-0.3,0.3-0.4c0.3-0.2,0.7-0.5,1.2-0.6c0.3,0,0.5,0.1,0.7,0.2
					c0.3,0.3,0.4,0.6,0.4,1v1.5c0,0.4,0.1,0.5,0.3,0.5c0.1,0,0.2,0,0.3-0.1l0.1,0.3L312.4,84.4z M311.8,82.2
					c-0.1,0.1-0.4,0.2-0.5,0.3c-0.3,0.1-0.4,0.3-0.4,0.6c0,0.5,0.3,0.7,0.5,0.7c0.1,0,0.3-0.1,0.4-0.2
					C311.8,83.2,311.8,82.6,311.8,82.2z"/>
				<path class="st0" d="M315.3,84.3c-0.1,0.1-0.3,0.1-0.3,0.1c-0.6,0-0.9-0.3-0.9-1.1v-2.4h-0.5l0-0.1l0.2-0.3h0.3v-0.7
					c0.2-0.2,0.5-0.4,0.8-0.6l0.1,0.1c0,0.3,0,0.7,0,1.3h0.8c0.1,0.1,0,0.3-0.1,0.4H315V83c0,0.7,0.2,0.8,0.4,0.8
					c0.1,0,0.3,0,0.4-0.1l0.1,0.3L315.3,84.3z"/>
				<path class="st0" d="M320.3,84.1c-0.4,0.1-0.9,0.2-1.4,0.3c0-0.2,0-0.4,0-0.6c-0.3,0.3-0.7,0.6-1.1,0.6c-0.6,0-1-0.4-1-1.2v-1.7
					c0-0.4-0.1-0.5-0.3-0.5l-0.2,0v-0.3c0.4,0,0.9-0.1,1.3-0.1c0,0.3,0,0.8,0,1.3v1.2c0,0.6,0.3,0.8,0.6,0.8c0.2,0,0.4-0.1,0.6-0.3
					v-2c0-0.4-0.1-0.5-0.3-0.5l-0.2,0v-0.3c0.5,0,1.1-0.1,1.4-0.1v2.8c0,0.4,0.1,0.5,0.3,0.5l0.2,0V84.1z"/>
				<path class="st0" d="M323,84.3h-1.9V84c0.4-0.1,0.5-0.1,0.5-0.6v-1.8c0-0.5,0-0.5-0.4-0.6v-0.2c0.4-0.1,0.8-0.2,1.3-0.3
					c0,0.3,0,0.7,0,0.9c0.3-0.5,0.6-0.9,0.9-0.9c0.3,0,0.5,0.2,0.5,0.5c0,0.3-0.2,0.6-0.3,0.6c-0.1,0.1-0.2,0-0.2,0
					c-0.1-0.1-0.2-0.2-0.4-0.2c-0.1,0-0.4,0.2-0.5,0.5v1.6c0,0.5,0,0.6,0.6,0.6V84.3z"/>
				<path class="st0" d="M327,84.4c-0.2,0-0.3-0.1-0.4-0.2c-0.1-0.1-0.2-0.2-0.2-0.3c-0.3,0.2-0.7,0.5-0.8,0.5c-0.6,0-1-0.5-1-1.1
					c0-0.4,0.2-0.7,0.6-0.8c0.5-0.2,1.1-0.4,1.2-0.6v-0.3c0-0.5-0.2-0.8-0.5-0.8c-0.1,0-0.3,0.1-0.3,0.2c-0.1,0.1-0.1,0.3-0.2,0.6
					c0,0.2-0.2,0.3-0.3,0.3c-0.2,0-0.4-0.2-0.4-0.4c0-0.1,0.1-0.3,0.3-0.4c0.3-0.2,0.8-0.5,1.2-0.6c0.3,0,0.5,0.1,0.7,0.2
					c0.3,0.3,0.4,0.6,0.4,1v1.5c0,0.4,0.1,0.5,0.3,0.5c0.1,0,0.2,0,0.3-0.1l0.1,0.3L327,84.4z M326.3,82.2c-0.1,0.1-0.4,0.2-0.5,0.3
					c-0.3,0.1-0.4,0.3-0.4,0.6c0,0.5,0.3,0.7,0.5,0.7c0.1,0,0.3-0.1,0.4-0.2C326.3,83.2,326.3,82.6,326.3,82.2z"/>
				<path class="st0" d="M328.3,84.3V84c0.5-0.1,0.5-0.1,0.5-0.7v-4c0-0.5,0-0.5-0.5-0.6v-0.3c0.5-0.1,1-0.2,1.3-0.3
					c0,0.4,0,0.8,0,1.2v3.9c0,0.6,0,0.6,0.5,0.7v0.3H328.3z"/>
				<path class="st0" d="M332.9,80.7c0.4-0.1,0.9-0.2,1.3-0.4c0,0.2,0,0.5,0,0.6c0,0,0.6-0.4,0.6-0.4c0.2-0.1,0.4-0.2,0.5-0.2
					c0.8,0,1.3,0.8,1.3,1.7c0,1.3-0.9,2.1-1.9,2.3c-0.2,0-0.4,0-0.5-0.1v1.1c0,0.5,0,0.6,0.6,0.7v0.3h-2V86c0.5-0.1,0.5-0.1,0.5-0.6
					v-3.8c0-0.5,0-0.5-0.5-0.6V80.7z M334.2,83.6c0.2,0.2,0.4,0.3,0.7,0.3c0.5,0,0.8-0.6,0.8-1.5c0-1-0.5-1.5-0.9-1.5
					c-0.2,0-0.4,0.1-0.6,0.3V83.6z"/>
				<path class="st0" d="M339.7,84.3V84c0.4-0.1,0.4-0.1,0.4-0.6v-1.5c0-0.7-0.2-0.9-0.6-0.9c-0.2,0-0.5,0.1-0.6,0.3v2.1
					c0,0.5,0,0.6,0.4,0.6v0.3h-1.8V84c0.4,0,0.5-0.1,0.5-0.6v-4c0-0.4,0-0.5-0.5-0.6v-0.3c0.5,0,1-0.2,1.3-0.3c0,0.3,0,0.7,0,1V81
					c0.3-0.3,0.7-0.6,1.1-0.6c0.7,0,1.1,0.5,1.1,1.4v1.5c0,0.5,0.1,0.6,0.5,0.6v0.3H339.7z"/>
				<path class="st0" d="M342.2,84.3V84c0.4-0.1,0.5-0.1,0.5-0.7v-1.7c0-0.6,0-0.6-0.4-0.7v-0.3c0.5-0.1,0.9-0.2,1.3-0.3
					c0,0.4,0,0.7,0,1.1v1.9c0,0.6,0,0.6,0.5,0.7v0.3H342.2z M343,79.7c-0.3,0-0.5-0.3-0.5-0.6c0-0.3,0.2-0.6,0.5-0.6
					c0.3,0,0.5,0.2,0.5,0.6C343.5,79.5,343.3,79.7,343,79.7z"/>
				<path class="st0" d="M344.7,84.3V84c0.5-0.1,0.5-0.1,0.5-0.7v-4c0-0.5,0-0.5-0.5-0.6v-0.3c0.5-0.1,1-0.2,1.3-0.3
					c0,0.4,0,0.8,0,1.2v3.9c0,0.6,0,0.6,0.5,0.7v0.3H344.7z"/>
				<path class="st0" d="M349.1,80.4c1,0,1.7,0.9,1.7,1.9c0,1.4-0.9,2.1-1.7,2.1c-1.1,0-1.8-1-1.8-2
					C347.3,81.1,348.3,80.4,349.1,80.4z M349,80.7c-0.4,0-0.7,0.4-0.7,1.5c0,1.1,0.4,1.9,0.9,1.9c0.4,0,0.7-0.3,0.7-1.5
					C349.9,81.4,349.6,80.7,349,80.7z"/>
				<path class="st0" d="M353.8,81.6c-0.2-0.6-0.4-0.9-0.8-0.9c-0.2,0-0.4,0.2-0.4,0.5c0,0.3,0.2,0.5,0.6,0.7c0.6,0.3,1,0.6,1,1.2
					c0,0.8-0.7,1.2-1.3,1.2c-0.4,0-0.8-0.2-1-0.3c0-0.2-0.1-0.8-0.1-1.1l0.2,0c0.2,0.5,0.5,1,1,1c0.3,0,0.5-0.2,0.5-0.5
					c0-0.3-0.1-0.5-0.6-0.7c-0.5-0.3-1-0.6-1-1.2c0-0.7,0.5-1.2,1.3-1.2c0.4,0,0.6,0.1,0.8,0.1c0,0.2,0.1,0.8,0.1,1L353.8,81.6z"/>
				<path class="st0" d="M356.9,80.4c1,0,1.7,0.9,1.7,1.9c0,1.4-0.9,2.1-1.7,2.1c-1.1,0-1.8-1-1.8-2
					C355.2,81.1,356.1,80.4,356.9,80.4z M356.9,80.7c-0.4,0-0.7,0.4-0.7,1.5c0,1.1,0.4,1.9,0.9,1.9c0.4,0,0.7-0.3,0.7-1.5
					C357.7,81.4,357.4,80.7,356.9,80.7z"/>
				<path class="st0" d="M359.5,80.7c0.4-0.1,0.9-0.2,1.3-0.4c0,0.2,0,0.5,0,0.6c0,0,0.6-0.4,0.6-0.4c0.2-0.1,0.4-0.2,0.5-0.2
					c0.8,0,1.3,0.8,1.3,1.7c0,1.3-0.9,2.1-1.9,2.3c-0.2,0-0.4,0-0.5-0.1v1.1c0,0.5,0,0.6,0.6,0.7v0.3h-2V86c0.5-0.1,0.5-0.1,0.5-0.6
					v-3.8c0-0.5,0-0.5-0.5-0.6V80.7z M360.8,83.6c0.2,0.2,0.4,0.3,0.7,0.3c0.5,0,0.8-0.6,0.8-1.5c0-1-0.5-1.5-0.9-1.5
					c-0.2,0-0.4,0.1-0.6,0.3V83.6z"/>
				<path class="st0" d="M366.2,84.3V84c0.4-0.1,0.4-0.1,0.4-0.6v-1.5c0-0.7-0.2-0.9-0.6-0.9c-0.2,0-0.5,0.1-0.6,0.3v2.1
					c0,0.5,0,0.6,0.4,0.6v0.3H364V84c0.4,0,0.5-0.1,0.5-0.6v-4c0-0.4,0-0.5-0.5-0.6v-0.3c0.5,0,1-0.2,1.3-0.3c0,0.3,0,0.7,0,1V81
					c0.3-0.3,0.7-0.6,1.1-0.6c0.7,0,1.1,0.5,1.1,1.4v1.5c0,0.5,0.1,0.6,0.5,0.6v0.3H366.2z"/>
				<path class="st0" d="M372.1,80.8c-0.4,0.1-0.5,0.1-0.6,0.6c-0.2,0.5-0.4,1.1-0.9,2.4c-0.5,1.4-0.7,1.9-0.8,2.4
					c-0.1,0.2-0.1,0.2-0.3,0.2c-0.3,0-0.6-0.2-0.6-0.5c0-0.1,0-0.2,0.2-0.3c0.3-0.2,0.5-0.4,0.6-0.6c0.1-0.2,0.2-0.5,0.2-0.6
					c0-0.1,0-0.2,0-0.3c-0.4-1.1-0.8-2.3-1-2.7c-0.1-0.4-0.2-0.5-0.6-0.6v-0.3h1.8v0.3c-0.3,0.1-0.4,0.1-0.3,0.4l0.6,1.9
					c0.2-0.5,0.5-1.4,0.6-1.9c0.1-0.3,0-0.4-0.4-0.5v-0.3h1.4V80.8z"/>
			</g>
		</g>
		<g>
			<g>
				<path class="st0" d="M163,79.2c-0.1-0.6-0.4-1.2-0.5-1.4c-0.2-0.3-0.3-0.4-1.1-0.4h-0.8v6.5c0,1.2,0.1,1.2,1.2,1.3v0.5h-4.1
					v-0.5c1.1-0.1,1.2-0.2,1.2-1.3v-6.5h-0.8c-0.7,0-0.9,0.1-1.1,0.5c-0.2,0.3-0.3,0.8-0.5,1.3H156c0.1-1,0.2-2.1,0.2-2.8h0.4
					c0.2,0.3,0.3,0.3,0.7,0.3h4.9c0.3,0,0.5-0.1,0.7-0.3h0.4c0,0.6,0.1,1.8,0.1,2.7L163,79.2z"/>
				<path class="st0" d="M171.7,83.4c-0.1,0.4-0.4,2-0.5,2.4h-6.4v-0.5c1.1-0.1,1.2-0.2,1.2-1.4v-5.3c0-1.2-0.1-1.3-1-1.3v-0.5h4
					c1.3,0,1.7,0,1.9,0c0,0.2,0.1,1.4,0.1,2.2l-0.5,0.1c-0.1-0.5-0.3-1-0.5-1.3c-0.2-0.3-0.4-0.4-1-0.4h-0.8c-0.5,0-0.5,0-0.5,0.5
					v2.9h1.2c0.7,0,0.8-0.2,1-1.2h0.5v3.1h-0.5c-0.2-1-0.3-1.2-1-1.2h-1.2v2.4c0,1,0,1.2,0.8,1.3h0.9c0.7,0,0.9-0.1,1.1-0.5
					c0.3-0.4,0.6-0.9,0.8-1.4L171.7,83.4z"/>
				<path class="st0" d="M179.6,83.3c-0.1,0.6-0.4,2.1-0.6,2.4h-6.1v-0.5c1.1-0.1,1.2-0.2,1.2-1.3v-5.3c0-1.2-0.1-1.3-1.1-1.4v-0.5
					h3.9v0.5c-1,0.1-1.1,0.2-1.1,1.4V84c0,0.8,0,1.1,0.7,1.1c0,0,0.6,0,0.6,0c0.7,0,0.9-0.2,1.2-0.5c0.2-0.3,0.6-0.9,0.8-1.4
					L179.6,83.3z"/>
				<path class="st0" d="M180.8,85.8v-0.5c0.9-0.1,1.1-0.2,1.1-1.3v-5.3c0-1.2-0.1-1.3-1.1-1.4v-0.5h3.8v0.5
					c-0.9,0.1-1.1,0.2-1.1,1.4v5.3c0,1.1,0.1,1.2,1.1,1.3v0.5H180.8z"/>
				<path class="st0" d="M194.9,77.3c-0.8,0.1-1,0.3-1,0.9c0,0.5-0.1,1-0.1,2.2v5.5h-0.7L188,79v3.1c0,1.2,0,1.7,0.1,2.1
					c0,0.6,0.3,0.9,1.2,1v0.5h-3.1v-0.5c0.7-0.1,1-0.3,1.1-0.9c0-0.5,0.1-1,0.1-2.2v-3.3c0-0.5,0-0.8-0.3-1.1
					c-0.2-0.3-0.5-0.4-1-0.4v-0.5h2.4l4.7,6.1v-2.5c0-1.2,0-1.7,0-2.2c0-0.6-0.2-0.9-1.3-1v-0.5h3.1V77.3z"/>
			</g>
		</g>
		<g>
			<g>
				<path class="st0" d="M206.6,83.2c-0.1,0.5-0.4,2.1-0.5,2.6h-6.6l-0.1-0.3c1.5-2.5,3.2-5.4,4.7-8h-1.9c-0.9,0-1.1,0.1-1.4,0.6
					c-0.1,0.2-0.3,0.7-0.5,1.2l-0.5,0c0.1-0.8,0.2-2.2,0.2-2.8h0.4c0.1,0.3,0.3,0.3,0.7,0.3h5l0.1,0.2c-1.5,2.6-3.1,5.3-4.6,8.1
					c0.4,0,0.8,0,1.5,0c1.5,0,1.7,0,2.1-0.4c0.3-0.3,0.7-0.9,0.9-1.6L206.6,83.2z"/>
				<path class="st0" d="M216.8,77.3c-1,0.1-1.1,0.2-1.1,1.3v5.3c0,1.1,0.1,1.2,1.1,1.3v0.5H213v-0.5c1-0.1,1.1-0.2,1.1-1.3v-2.6
					h-3.3v2.6c0,1.1,0.1,1.2,1,1.3v0.5h-3.8v-0.5c0.9-0.1,1.1-0.2,1.1-1.3v-5.3c0-1.1-0.1-1.3-1.1-1.3v-0.5h3.8v0.5
					c-0.9,0.1-1,0.2-1,1.3v2h3.3v-2c0-1.1-0.1-1.2-1.1-1.3v-0.5h3.8V77.3z"/>
				<path class="st0" d="M225.3,83.4c-0.1,0.4-0.4,2-0.5,2.4h-6.4v-0.5c1.1-0.1,1.2-0.2,1.2-1.4v-5.3c0-1.2-0.1-1.3-1-1.3v-0.5h4
					c1.3,0,1.7,0,1.9,0c0,0.2,0.1,1.4,0.1,2.2l-0.5,0.1c-0.1-0.5-0.3-1-0.5-1.3c-0.2-0.3-0.4-0.4-1-0.4h-0.8c-0.5,0-0.5,0-0.5,0.5
					v2.9h1.2c0.7,0,0.8-0.2,1-1.2h0.5v3.1h-0.5c-0.2-1-0.3-1.2-1-1.2h-1.2v2.4c0,1,0,1.2,0.8,1.3h0.9c0.7,0,0.9-0.1,1.1-0.5
					c0.3-0.4,0.6-0.9,0.8-1.4L225.3,83.4z"/>
				<path class="st0" d="M236.5,83.3c-0.1,0.6-0.4,2.1-0.6,2.4h-6.1v-0.5c1.1-0.1,1.2-0.2,1.2-1.3v-5.3c0-1.2-0.1-1.3-1.1-1.4v-0.5
					h3.9v0.5c-1,0.1-1.1,0.2-1.1,1.4V84c0,0.8,0,1.1,0.7,1.1c0,0,0.6,0,0.6,0c0.7,0,0.9-0.2,1.2-0.5c0.2-0.3,0.6-0.9,0.8-1.4
					L236.5,83.3z"/>
				<path class="st0" d="M237.7,85.8v-0.5c0.9-0.1,1.1-0.2,1.1-1.3v-5.3c0-1.2-0.1-1.3-1.1-1.4v-0.5h3.8v0.5
					c-0.9,0.1-1.1,0.2-1.1,1.4v5.3c0,1.1,0.1,1.2,1.1,1.3v0.5H237.7z"/>
			</g>
		</g>
		<g>
			<g>
				<g>
					<path class="st0" d="M196.8,28.4h-21c-0.5,0-0.8-0.4-0.8-0.8c0-0.5,0.4-0.8,0.8-0.8h21c0.5,0,0.8,0.4,0.8,0.8
						C197.6,28,197.2,28.4,196.8,28.4z"/>
				</g>
			</g>
			<g>
				<g>
					<path class="st0" d="M196.8,40.4h-21c-0.5,0-0.8-0.4-0.8-0.8c0-0.5,0.4-0.8,0.8-0.8h21c0.5,0,0.8,0.4,0.8,0.8
						C197.6,40,197.2,40.4,196.8,40.4z"/>
				</g>
			</g>
			<g>
				<g>
					<path class="st0" d="M202.7,23.3h-31.8c-0.5,0-0.8-0.4-0.8-0.8c0-0.5,0.4-0.8,0.8-0.8h31.8c0.5,0,0.8,0.4,0.8,0.8
						C203.5,23,203.2,23.3,202.7,23.3z"/>
				</g>
			</g>
			<g>
				<g>
					<path class="st0" d="M202.7,45.8h-31.8c-0.5,0-0.8-0.4-0.8-0.8c0-0.5,0.4-0.8,0.8-0.8h31.8c0.5,0,0.8,0.4,0.8,0.8
						C203.5,45.4,203.2,45.8,202.7,45.8z"/>
				</g>
			</g>
			<g>
				<g>
					<g>
						<path class="st0" d="M231.9,28.5h-20.6c-0.5,0-0.8-0.4-0.8-0.8c0-0.5,0.4-0.8,0.8-0.8h20.6c0.5,0,0.8,0.4,0.8,0.8
							C232.7,28.2,232.4,28.5,231.9,28.5z"/>
					</g>
				</g>
				<g>
					<g>
						<path class="st0" d="M257.5,28.5h-25.6c-0.5,0-0.8-0.4-0.8-0.8c0-0.5,0.4-0.8,0.8-0.8h25.6c0.5,0,0.8,0.4,0.8,0.8
							C258.4,28.2,258,28.5,257.5,28.5z"/>
					</g>
				</g>
			</g>
			<g>
				<g>
					<path class="st0" d="M360.4,53.8h-37.5c-0.5,0-0.8-0.4-0.8-0.8c0-0.5,0.4-0.8,0.8-0.8h37.5c0.5,0,0.8,0.4,0.8,0.8
						C361.2,53.4,360.8,53.8,360.4,53.8z"/>
				</g>
			</g>
			<g>
				<path class="st0" d="M369.2,64.4H318c-0.4,0-0.7-0.3-0.7-0.7c0-0.4,0.3-0.7,0.7-0.7h51.2c0.4,0,0.7,0.3,0.7,0.7
					C369.9,64.1,369.6,64.4,369.2,64.4z"/>
			</g>
			<g>
				<g>
					<path class="st0" d="M360.3,20.1H328c-0.5,0-0.8-0.4-0.8-0.8c0-0.5,0.4-0.8,0.8-0.8h32.3c0.5,0,0.8,0.4,0.8,0.8
						C361.1,19.7,360.7,20.1,360.3,20.1z"/>
				</g>
			</g>
			<g>
				<g>
					<path class="st0" d="M360.4,31.9h-32.3c-0.5,0-0.8-0.4-0.8-0.8s0.4-0.8,0.8-0.8h32.3c0.5,0,0.8,0.4,0.8,0.8
						S360.8,31.9,360.4,31.9z"/>
				</g>
			</g>
			<g>
				<g>
					<path class="st0" d="M360.4,44.9h-34.1c-0.5,0-0.8-0.4-0.8-0.8c0-0.5,0.4-0.8,0.8-0.8h34.1c0.5,0,0.8,0.4,0.8,0.8
						C361.2,44.5,360.8,44.9,360.4,44.9z"/>
				</g>
			</g>
			<g>
				<g>
					<g>
						<path class="st0" d="M181.1,49.1c6.1-0.8,9.8,0.2,11.5,2.3c1.4,1.6,1.3,4.6-0.7,5.3c-0.8,0.3-2.2,0.2-3-1.7
							C189,54.9,187.2,48.8,181.1,49.1z"/>
					</g>
				</g>
			</g>
			<g>
				<g>
					<path class="st0" d="M155,30.6l-0.7,0.5c3.4-3.9,4.9-5.9,6.5-8.9c1.3-2.3,1.9-3.7,2.5-5.8c1.7,0.5,2.9,1,3.7,1.2
						c2.7,0.8,2.4,0.8,2.4,1.3c0,0,0,0.3-0.9,0.6C167.6,19.8,155,30.6,155,30.6z"/>
				</g>
			</g>
			<g>
				<g>
					<path class="st0" d="M154.7,42.1l-0.8,0.5c3.7-4.3,5.4-6.6,7.2-9.9c1.4-2.6,2.1-4.2,2.7-6.5c1.9,0.6,3.2,1.1,4.1,1.4
						c2.9,0.9,2.7,0.9,2.7,1.5c0,0,0,0.4-1,0.7C168.7,30.1,154.7,42.1,154.7,42.1z"/>
				</g>
			</g>
			<g>
				<g>
					<polygon class="st0" points="176.3,26.8 176.3,41.4 172.6,41.4 172.6,25.9 					"/>
				</g>
			</g>
			<g>
				<g>
					<path class="st0" d="M196.5,41.4l0-12.8h0v-1.8c1-1,0.4-0.4,1.6-1.5c1.8,1.3,1.1,0.8,2.8,2c0.5,0.4,0.7,0.7,0.7,1
						c0,0.4-0.4,0.8-1.7,1.3v11.8L196.5,41.4z"/>
				</g>
			</g>
			<g>
				<g>
					<rect x="185" y="16" class="st0" width="3.6" height="10.9"/>
				</g>
			</g>
			<g>
				<g>
					<rect x="180.7" y="27.1" class="st0" width="3.6" height="12.4"/>
				</g>
			</g>
			<g>
				<g>
					<path class="st0" d="M197,64.2c-1.4,0.5-6.7,1.3-11.3,0.8c-8.5-0.9-8.4-6.5-8.4-6.5c-0.1-1.5,0-9.6,0-9.6h3.7l0,4.1v4.3
						c0,6.2,13,3.9,13.9,3.7c0.9-0.1,1.2-0.9,1.2-0.9l1.8-3.4l0.1,3.1c0,0,0,1,0.2,1.4c0.2,0.4,0.6,0.4,0.7,1.1
						C198.8,62.4,199,63.4,197,64.2z"/>
				</g>
			</g>
			<g>
				<g>
					<rect x="188.6" y="27.1" class="st0" width="3.6" height="12.4"/>
				</g>
			</g>
			<g>
				<g>
					<g>
						<path class="st0" d="M204.6,23.3c0.2,0,0.4-0.1,0.4-0.3c0-0.1,0-0.2-0.2-0.3c-1.6-1.4-2.1-1.9-3.9-3.2
							c-1.1,1.3-2.3,2.5-3.4,3.9L204.6,23.3z"/>
					</g>
				</g>
			</g>
			<g>
				<g>
					<g>
						<path class="st0" d="M204.6,45.8c0.2,0,0.4-0.1,0.4-0.3c0-0.1,0-0.2-0.2-0.3c-1.6-1.4-2.1-1.9-3.9-3.2
							c-1.1,1.3-2.3,2.5-3.4,3.9L204.6,45.8z"/>
					</g>
				</g>
			</g>
			<g>
				<g>
					<polygon class="st0" points="160.5,37.1 160.5,64.4 164.2,64.4 164.1,31.9 					"/>
				</g>
			</g>
			<g>
				<g>
					<g>
						<path class="st0" d="M168.2,60.5c1.1,1.4,3.6,0.7,4.6-0.9c1.2-2,2.2-6-1.4-12.2c0,0,2.3,4.6-2.9,10.2
							C168.5,57.6,167.1,59,168.2,60.5z"/>
					</g>
				</g>
			</g>
			<g>
				<g>
					<g>
						<path class="st0" d="M197.5,48.5c5.5,2.2,7,4.2,7.5,6.7c0.4,2-1.1,4.5-3,4.1c-0.8-0.1-1.9-0.8-1.7-2.8
							C200.3,56.5,201.2,50.7,197.5,48.5z"/>
					</g>
				</g>
			</g>
			<g>
				<g>
					<rect x="221.3" y="16.7" class="st0" width="3.6" height="47.9"/>
				</g>
			</g>
			<g>
				<g>
					<g>
						<path class="st0" d="M235.1,28.5c0.2,0,0.4-0.1,0.4-0.3c0-0.1,0-0.2-0.2-0.3c-1.6-1.4-2.1-1.9-3.9-3.2
							c-1.1,1.3-2.3,2.5-3.4,3.9L235.1,28.5z"/>
					</g>
				</g>
			</g>
			<g>
				<g>
					<g>
						<path class="st0" d="M260.3,28.5c0.2,0,0.4-0.1,0.4-0.3c0-0.1,0-0.2-0.2-0.3c-1.6-1.4-2.1-1.9-3.9-3.2
							c-1.1,1.3-2.3,2.5-3.4,3.9L260.3,28.5z"/>
					</g>
				</g>
			</g>
			<g>
				<g>
					<g>
						<path class="st0" d="M226.1,34.3c6.3,1,8.8,4.6,9.4,7.5c0.5,2.3-1.2,5.2-3.5,4.8c-1-0.2-2.2-0.9-2-3.2
							C230,43.3,231.6,35,226.1,34.3z"/>
					</g>
				</g>
			</g>
			<g>
				<g>
					<path class="st0" d="M222,28.4h-1c-0.7,3.3-2,7.4-3.2,10.8c-2.1,5.7-4,9.4-7.8,14.8l0.7-0.5c5.4-5.5,7.9-10.5,11-16.3L222,28.4
						z"/>
				</g>
			</g>
			<g>
				<g>
					<rect x="244.7" y="16.7" class="st0" width="3.6" height="47.9"/>
				</g>
			</g>
			<g>
				<g>
					<path class="st0" d="M245.7,40.7c-4.1,8.2-7.7,15-14.4,22.6l-0.9,0.7c4.9-7.6,7.4-12.8,10.2-20.7c1.6-4.7,3.2-10.5,4.2-15.1
						h1.3"/>
				</g>
			</g>
			<g>
				<g>
					<path class="st0" d="M249.8,33.3c0.8,3.1,1.3,4.5,3,7.1c2.4,3.8,3.9,5.9,7.7,8.1l-2.2,3.9c-0.1,0.4-0.3,0.5-0.5,0.5
						c-0.5,0-1.8-1.5-3.1-3.6c-1.6-2.7-2.9-4.6-3.8-7.9C251,41.3,250.1,38.4,249.8,33.3z"/>
				</g>
			</g>
			<g>
				<g>
					<rect x="342.1" y="18.5" class="st0" width="4" height="45.8"/>
				</g>
			</g>
			<g>
				<g>
					<g>
						<path class="st0" d="M366.6,53.8c0.2,0,0.5-0.1,0.5-0.3c0-0.1,0-0.2-0.2-0.4c-1.8-1.6-2.3-2-4.3-3.5c-1.2,1.4-2.5,2.7-3.7,4.2
							L366.6,53.8z"/>
					</g>
				</g>
			</g>
			<g>
				<g>
					<g>
						<path class="st0" d="M371.5,64.6c0.2,0,0.5-0.1,0.5-0.3c0-0.1,0-0.2-0.2-0.4c-1.8-1.6-2.3-2-4.3-3.5c-1.2,1.4-2.5,2.7-3.7,4.2
							L371.5,64.6z"/>
					</g>
				</g>
			</g>
			<g>
				<g>
					<polygon class="st0" points="328.3,18.5 328.3,46.3 324.3,46.3 324.3,17.5 					"/>
				</g>
			</g>
			<g>
				<g>
					<path class="st0" d="M359.5,46.3l0-25.8h0v-2c1.1-1,0.4-0.4,1.7-1.6c2,1.4,1.2,0.9,3,2.1c0.6,0.4,0.8,0.8,0.8,1.1
						c0,0.5-0.5,0.9-1.8,1.4v24.8L359.5,46.3z"/>
				</g>
			</g>
			<g>
				<g>
					<path class="st0" d="M306.7,51.2h-33.9c-0.5,0-0.8-0.4-0.8-0.8c0-0.5,0.4-0.8,0.8-0.8h33.9c0.5,0,0.8,0.4,0.8,0.8
						C307.5,50.8,307.1,51.2,306.7,51.2z"/>
				</g>
			</g>
			<g>
				<g>
					<path class="st0" d="M306.8,63.7h-34c-0.5,0-0.8-0.4-0.8-0.8c0-0.5,0.4-0.8,0.8-0.8h34c0.5,0,0.8,0.4,0.8,0.8
						C307.6,63.3,307.3,63.7,306.8,63.7z"/>
				</g>
			</g>
			<g>
				<g>
					<path class="st0" d="M283.1,24h-16.6c-0.5,0-0.8-0.4-0.8-0.8c0-0.5,0.4-0.8,0.8-0.8h16.6c0.5,0,0.8,0.4,0.8,0.8
						C283.9,23.7,283.6,24,283.1,24z"/>
				</g>
			</g>
			<g>
				<g>
					<path class="st0" d="M287.5,32.7h-20.9c-0.5,0-0.8-0.4-0.8-0.8c0-0.5,0.4-0.8,0.8-0.8h20.9c0.5,0,0.8,0.4,0.8,0.8
						C288.3,32.3,287.9,32.7,287.5,32.7z"/>
				</g>
			</g>
			<g>
				<g>
					<rect x="293.2" y="27.5" class="st0" width="16.9" height="1.6"/>
				</g>
			</g>
			<g>
				<g>
					<polygon class="st0" points="275.7,49.5 275.7,64.8 271.5,64.8 271.5,48.5 					"/>
				</g>
			</g>
			<g>
				<g>
					<path class="st0" d="M304.7,64.9l0-13.3h0v-2c1.2-1,0.4-0.4,1.8-1.6c2.1,1.4,1.3,0.9,3.2,2.1c0.6,0.4,0.8,0.8,0.8,1.1
						c0,0.5-0.5,0.9-1.9,1.4v12.2L304.7,64.9z"/>
				</g>
			</g>
			<g>
				<g>
					<g>
						<path class="st0" d="M279.3,38.7c0,0.6,0,2.3,0,3.2c0,1.1-0.3,1.6-0.8,2.1c-0.5,0.5-1.5,0.8-2.7,1l-1.2,0.1
							c-0.3-0.1-0.3-0.2-0.3-0.4c-0.2-1.7-0.9-3.4-4.1-4.1l0-0.4c2.3,0,2.8,0,4.5,0.1c0.5,0,0.6-0.4,0.6-0.8v-0.8L279.3,38.7z"/>
					</g>
				</g>
				<g>
					<g>
						<polygon class="st0" points="275.4,16.9 275.4,39.6 279.3,39.7 279.3,16.9 						"/>
					</g>
				</g>
			</g>
			<g>
				<g>
					<g>
						<path class="st0" d="M288.8,24c0.2,0,0.4-0.1,0.4-0.3c0-0.1,0-0.2-0.2-0.4c-1.7-1.5-2.3-2-4.2-3.5c-1.2,1.4-2.5,2.7-3.6,4.2
							L288.8,24z"/>
					</g>
				</g>
			</g>
			<g>
				<g>
					<g>
						<path class="st0" d="M315.2,29.2c0.2,0,0.4-0.1,0.4-0.3c0-0.1,0-0.2-0.2-0.4c-1.7-1.5-2.3-2-4.2-3.5c-1.2,1.4-2.5,2.7-3.6,4.2
							L315.2,29.2z"/>
					</g>
				</g>
			</g>
			<g>
				<g>
					<g>
						<polygon class="st0" points="304.6,28.2 304.6,44.7 308.4,44.7 308.4,28.2 						"/>
					</g>
				</g>
			</g>
			<g>
				<g>
					<g>
						<path class="st0" d="M292.3,18.7l4.2,1.1c0.1,0,0.1,5,0,5.5c0,2.8,0,3.2-0.1,6c-0.1,2.7-0.2,5.3-1.8,7.6
							c-1.5,2.2-3.7,4-5.9,5.6l-0.4-0.4c2.4-3.3,3-5.5,3.6-8.5C292.9,29.9,292.3,18.7,292.3,18.7"/>
					</g>
				</g>
			</g>
			<g>
				<g>
					<g>
						<path class="st0" d="M294.5,23.8l-0.9,0.1c4.7-1.5,6.8-2.5,9.4-4c2-1.2,2.9-2,4.1-3.3c1.8,1,3.1,1.7,3.9,2.2
							c2.8,1.5,2.6,1.4,2.4,1.8c0,0-0.1,0.2-1.1,0.1C311.1,20.6,294.5,23.8,294.5,23.8z"/>
					</g>
				</g>
			</g>
		</g>
		<g>
			<g>
				<path class="st0" d="M98.4,93.3c-10.7,0-20.7-4.2-28.3-11.7c-15.6-15.6-15.6-41,0-56.6c15.6-15.6,41-15.6,56.6,0
					c7.6,7.6,11.7,17.6,11.7,28.3c0,10.7-4.2,20.7-11.7,28.3l-0.3-0.3l0.3,0.3C119.1,89.2,109.1,93.3,98.4,93.3z M98.4,14.1
					c-10.1,0-20.1,3.8-27.8,11.5c-15.3,15.3-15.3,40.2,0,55.5c7.4,7.4,17.3,11.5,27.8,11.5s20.3-4.1,27.8-11.5l0,0
					c7.4-7.4,11.5-17.3,11.5-27.8c0-10.5-4.1-20.3-11.5-27.8C118.5,17.9,108.4,14.1,98.4,14.1z"/>
			</g>
			<g>
				<path class="st2" d="M49.2,84.8"/>
			</g>
			<g>
				<g>
					<path class="st0" d="M110.4,74c0,0-1.8,6.2-8.1,4.4c0,0,0.8-3.1,3.1-3.9C107.1,74,107.6,74.8,110.4,74z"/>
				</g>
				<g>
					<path class="st0" d="M113.6,63.6c0,0-2.7,5.9-8.6,3.3c0,0,1.2-2.9,3.6-3.4C110.4,63.2,110.7,64,113.6,63.6z"/>
				</g>
				<g>
					<path class="st0" d="M120,44.3c0,0-2.8,5.9-8.7,3c0,0,1.3-2.9,3.7-3.3C116.8,43.7,117.1,44.6,120,44.3z"/>
				</g>
				<g>
					<path class="st0" d="M104.5,35.3c0,0-4.5,4.7-9.2,0.3c0,0,2.1-2.4,4.5-2C101.6,33.8,101.6,34.7,104.5,35.3z"/>
				</g>
				<g>
					<path class="st0" d="M96.7,45.3c0,0-5.5,3.5-9-2c0,0,2.6-1.8,4.8-0.9C94.3,43.2,94.1,44.1,96.7,45.3z"/>
				</g>
				<g>
					<path class="st0" d="M84.5,52.9c0,0-5.8,2.9-8.8-3c0,0,2.8-1.5,4.9-0.4C82.3,50.5,82,51.4,84.5,52.9z"/>
				</g>
				<g>
					<path class="st0" d="M94.6,76c0,0-0.9,6.4,5.6,7.4c0,0,0.5-3.1-1.2-4.8C97.5,77.3,96.8,77.8,94.6,76z"/>
				</g>
				<g>
					<path class="st0" d="M103,47.8c0,0-0.9,6.4,5.6,7.4c0,0,0.5-3.1-1.2-4.8C105.9,49.1,105.2,49.6,103,47.8z"/>
				</g>
				<g>
					<path class="st0" d="M110.2,32.9c0,0-2.3,6.1,3.8,8.4c0,0,1.2-3-0.1-4.9C112.8,34.8,112,35.2,110.2,32.9z"/>
				</g>
				<g>
					<path class="st0" d="M115.3,25.7c0,0-2.3,6.1,3.8,8.4c0,0,1.2-3-0.1-4.9C117.9,27.7,117,28,115.3,25.7z"/>
				</g>
				<g>
					<path class="st0" d="M94.4,21.5c0,0-2.3,6.1,3.8,8.4c0,0,1.2-3-0.1-4.9C97,23.4,96.2,23.7,94.4,21.5z"/>
				</g>
				<g>
					<path class="st0" d="M80.8,37.7c0,0-4.3,4.9,0.6,9.2c0,0,2.2-2.3,1.6-4.7C82.6,40.4,81.7,40.4,80.8,37.7z"/>
				</g>
				<g>
					<path class="st0" d="M89.3,29.6c0,0-2.2,6.1,3.9,8.4c0,0,1.1-3-0.2-4.9C92,31.5,91.1,31.9,89.3,29.6z"/>
				</g>
				<g>
					<path class="st0" d="M73.5,41.3c0,0-4.3,4.9,0.6,9.2c0,0,2.2-2.3,1.6-4.7C75.2,44.1,74.3,44.1,73.5,41.3z"/>
				</g>
			</g>
			<g>
				<defs>
					
						<ellipse id="SVGID_1_" transform="matrix(0.4697 -0.8828 0.8828 0.4697 5.1147 115.1387)" cx="98.4" cy="53.3" rx="39.6" ry="39.6"/>
				</defs>
				<clipPath id="SVGID_00000181768219165434858040000001446160286505540769_">
					<use xlink:href="#SVGID_1_"  style="overflow:visible;"/>
				</clipPath>
				<g style="clip-path:url(#SVGID_00000181768219165434858040000001446160286505540769_);">
					<g>
						<path class="st0" d="M53.1,98.5c-3.9-6-5.5-13.5-4.6-20.6c1-7.1,4.5-13.9,9.9-18.7c4.7-4.2,10.6-6.9,16.3-9.5
							c6.9-3.1,14-6.4,18.7-12.3c2-2.5,3.6-5.5,5.1-8.4c1-1.9,2-4,3.2-5.8c2.7-4.3,6.5-8.1,10.7-10.9l0.4,0.6
							c-4.2,2.8-7.8,6.5-10.5,10.7c-1.2,1.9-2.2,3.9-3.2,5.8c-1.5,2.9-3.1,5.9-5.1,8.5c-4.8,6-12,9.3-19,12.5
							c-5.7,2.6-11.5,5.3-16.1,9.4c-5.2,4.7-8.7,11.3-9.6,18.2c-0.9,6.9,0.7,14.2,4.5,20.1L53.1,98.5z"/>
					</g>
					<g>
						<path class="st0" d="M58.6,43.7l-0.4-0.1c2.8-6.8,8.5-11.6,12.7-14.4C78.6,24,86.3,18.2,87.9,8c0.5-3.5,0-7-0.6-10.5
							c-0.1-0.4-0.1-0.8-0.2-1.2c-0.6-4.1-0.7-7.8-0.2-11.8C88-23.9,91.5-30.8,97-35.6l0.3,0.3c-5.4,4.7-8.9,11.6-10,20
							c-0.5,3.9-0.5,7.6,0.2,11.7c0.1,0.4,0.1,0.8,0.2,1.2c0.6,3.5,1.1,7,0.6,10.6c-1.6,10.3-9.3,16.2-17.1,21.4
							C67,32.2,61.4,36.9,58.6,43.7z"/>
					</g>
					<g>
						<path class="st0" d="M90.7,96.8l-0.5-0.6c5.3-4.2,8.6-10.6,10.4-15.3c1.9-4.7,3-9.7,4.2-14.4c0.3-1.1,0.6-2.3,0.8-3.4
							c1.9-7.6,4.5-16.3,9.4-24.1c5.2-8.2,12.5-13.9,19-14.9l0.1,0.8c-6.4,1-13.5,6.6-18.5,14.6c-4.8,7.7-7.4,16.4-9.3,23.9
							c-0.3,1.1-0.6,2.3-0.8,3.4c-1.2,4.8-2.4,9.8-4.2,14.5C99.5,86,96.2,92.6,90.7,96.8z"/>
					</g>
					<g>
						<path class="st0" d="M97.1,108.4l-0.3-0.7c8.6-4,15.7-11.7,18.9-20.7c2.3-6.6,2.7-13.7,3.1-20.6c0.1-1.4,0.1-2.7,0.2-4.1
							c0.3-5.6,1-13,3.4-20c2.4-7.1,6.3-12.9,11.2-16.9l0.5,0.6c-4.8,3.9-8.6,9.6-11,16.5c-2.3,6.9-3,14.2-3.4,19.8
							c-0.1,1.4-0.2,2.7-0.2,4.1c-0.4,7-0.7,14.1-3.1,20.8C113.1,96.4,105.9,104.3,97.1,108.4z"/>
					</g>
					<g>
						<path class="st0" d="M108.8,97.5l-0.2-0.2c3.2-3.1,6.2-7.4,8.9-11.5c1.4-2.1,2.7-4.3,3.9-6.4c2-3.5,4.2-7.1,6.8-10.3
							c7-8.5,17.4-13.4,27.7-12.9l0,0.2c-10.3-0.4-20.6,4.4-27.6,12.8c-2.6,3.2-4.7,6.8-6.7,10.3c-1.2,2.1-2.5,4.3-3.9,6.4
							C115,90.2,112.1,94.4,108.8,97.5z"/>
					</g>
					<g>
						<path class="st0" d="M57.5,63.6l-0.2-0.1C62,47.7,72.7,39.4,72.8,39.3c4.6-3.7,7.8-7.1,9.9-10.8c2.7-4.7,4-10.1,5.2-15.3
							c0.5-2,0.9-4.1,1.5-6c1.7-6.4,5.4-14.7,12.7-17.7l0.1,0.2C94.9-7.4,91.3,0.8,89.6,7.2c-0.5,2-1,4-1.5,6
							c-1.2,5.3-2.4,10.7-5.2,15.4c-2.2,3.7-5.3,7.1-10,10.8C72.8,39.5,62.2,47.8,57.5,63.6z"/>
					</g>
				</g>
			</g>
			<g>
				<path class="st0" d="M39.7,93c-10.2,0-20.5-3.9-28.3-11.7C3.8,73.7-0.3,63.7-0.3,53c0-10.7,4.2-20.7,11.7-28.3
					C27,9.1,52.4,9.1,68,24.7c0.5,0.5,1,1,1.5,1.6l0.2,0.3l-0.2,0.3c-13.8,15-13.9,37.6-0.3,52.7l0.2,0.3L69.2,80
					c-0.4,0.4-0.8,0.8-1.2,1.2C60.2,89.1,49.9,93,39.7,93z M39.7,13.7c-10.1,0-20.1,3.8-27.8,11.5C4.5,32.6,0.4,42.5,0.4,53
					c0,10.5,4.1,20.3,11.5,27.8C27.2,96,52.1,96,67.4,80.7c0.3-0.3,0.6-0.6,0.9-1C54.8,64.4,55,41.7,68.7,26.5
					c-0.4-0.4-0.8-0.9-1.2-1.3C59.8,17.6,49.7,13.7,39.7,13.7z"/>
			</g>
			<g>
				<defs>
					<path id="SVGID_00000112610429966391432830000014045136933500482996_" d="M69.2,26.5c-0.5-0.5-1-1-1.5-1.6
						c-15.5-15.5-40.6-15.5-56,0c-15.5,15.5-15.5,40.6,0,56c15.5,15.5,40.6,15.5,56,0c0.4-0.4,0.8-0.8,1.2-1.2
						C55.3,64.6,55.4,41.5,69.2,26.5z"/>
				</defs>
				<clipPath id="SVGID_00000152981039560919417560000007835024026874561467_">
					<use xlink:href="#SVGID_00000112610429966391432830000014045136933500482996_"  style="overflow:visible;"/>
				</clipPath>
				<g style="opacity:0.7;clip-path:url(#SVGID_00000152981039560919417560000007835024026874561467_);">
					<g>
						<path class="st0" d="M103.3,115.3c-4.2,0-8.4-2.3-11.3-3.9c-4.4-2.4-5.5-2.3-18.6-0.6c-1.4,0.2-3,0.4-4.7,0.6
							c-4.2,0.5-7.6-0.4-10.1-2.8c-6.3-5.9-5.4-19.1-5-24.8l0-0.7c0.5-7.9,5.1-12.9,6.5-14.2c0.9-0.9,2-1.7,3.3-2.8
							c2.6-2,6.2-4.8,11.8-10.5c8.3-8.5,15.1-6.1,15.2-6.1l6.5,2.2c0.2,0.1,16.6,7.3,21.1,13.2c4.6,5.9,4.7,11.5,0.6,19.9
							c-4,8-3.2,16.6-3.2,16.7c0,0.1-1,8.1-6.4,12.1C107.2,114.7,105.3,115.3,103.3,115.3z M85.5,109.2c2.8,0,4.2,0.6,6.6,1.9
							c4.2,2.3,11.2,6.2,16.8,2.1c5.4-3.9,6.3-11.8,6.4-11.9c0-0.1-0.8-8.7,3.2-16.8c4.1-8.3,3.9-13.8-0.6-19.6
							c-4.5-5.8-20.7-13-21-13.1l-6.4-2.2c-0.1,0-6.8-2.4-15,6c-5.6,5.7-9.2,8.5-11.8,10.5c-1.3,1-2.4,1.9-3.3,2.8
							c-1.4,1.3-5.9,6.3-6.4,14.1l-0.1,0.7c-0.4,5.6-1.3,18.7,4.9,24.6c2.4,2.3,5.8,3.2,9.9,2.7c1.7-0.2,3.3-0.4,4.7-0.6
							C79.5,109.7,83.1,109.2,85.5,109.2z"/>
					</g>
					<g>
						<path class="st0" d="M2.6,86.3c-4-6-5.2-12.1,2.4-23c6.8-9.7,6.5-13.3,5.3-25.4l-0.2-1.8c-1.3-13.7,13-21.7,13.2-21.8l0.4,0.7
							c0,0-3.6,2-6.9,5.5c-3,3.3-6.5,8.6-5.9,15.5l0.2,1.8c1.2,12.3,1.5,16-5.4,25.9c-7.4,10.5-6.3,16.4-2.4,22.1L2.6,86.3z"/>
					</g>
					<g>
						<path class="st0" d="M2.3,83.9c-4.2-5.7-5.6-11.7,1.4-22.7C10.2,51,9.6,47.4,7.9,35.4l-0.3-1.8c-1.9-13.5,11.9-22,12-22.1
							l0.1,0.2C19.7,11.7,6,20.2,7.9,33.5l0.3,1.8c1.7,12.1,2.3,15.8-4.2,25.9C-3,72.2-1.7,78.1,2.5,83.7L2.3,83.9z"/>
					</g>
					<g>
						<path class="st0" d="M42.5,112.5c-0.4-0.2-9.2-3.9-13.3-8.4c-3.4-3.6-2.5-11.4-1.8-17.6c0.2-1.6,0.4-3.2,0.4-4.5
							c0.2-4-0.2-9.9-0.6-14.7c-0.2-2.3-0.3-4.2-0.4-5.6c-0.1-3.9-2-14.5-3.6-22.4c-0.8-3.8-1.5-13.3,8-21.2
							c7.6-6.3,27.5-6.2,28.3-6.2l0,0.8c-0.2,0-20.5-0.1-27.8,6c-9.2,7.6-8.5,16.9-7.8,20.5c0.4,1.8,3.4,17.3,3.6,22.6
							c0,1.4,0.2,3.3,0.4,5.6c0.4,4.8,0.8,10.7,0.6,14.8c-0.1,1.3-0.2,2.9-0.4,4.5c-0.7,6.1-1.5,13.7,1.6,17
							c4.1,4.3,13,8.2,13.1,8.2L42.5,112.5z"/>
					</g>
					<g>
						<path class="st0" d="M38,120.9c-1.4-4.7-5.1-8.1-8.8-11.4c-2-1.9-4.1-3.8-5.8-5.9c-3.6-4.6-2.9-10.5-2-18.7
							c0.3-2.3,0.6-5,0.8-7.8c0.9-11.4-2.8-24.4-4.5-29.5c-0.1-0.2-0.1-0.4-0.2-0.7c-1.2-3.6-5-14.5,0.2-25.2
							C23.2,10.2,42.6,11,42.8,11l0,0.2c-0.2,0-19.4-0.8-24.8,10.6c-5.1,10.6-1.4,21.5-0.2,25c0.1,0.3,0.2,0.5,0.2,0.7
							c1.7,5.1,5.4,18.1,4.5,29.6c-0.2,2.8-0.5,5.5-0.8,7.9c-0.9,8.1-1.6,14,1.9,18.6c1.7,2.1,3.8,4,5.8,5.9
							c3.6,3.3,7.4,6.7,8.8,11.5L38,120.9z"/>
					</g>
					<g>
						<path class="st0" d="M37.7,99.1l-0.2-0.1c1.4-3.6,0.7-7.5,0.1-11.3c-0.4-2.1-0.7-4.3-0.8-6.5c0-4.6,3.3-7.9,7.8-12.6
							c1.3-1.3,2.8-2.8,4.3-4.5c6.1-6.6,10-16.5,11.4-20.4c0.1-0.1,0.1-0.3,0.2-0.6c1-2.8,3.9-11.4,12.3-15.5
							c8.9-4.4,20.6,5.4,20.7,5.5l-0.1,0.1c0,0-2.9-2.5-6.9-4.4c-3.7-1.7-9-3.3-13.6-1.1c-8.3,4.1-11.2,12.6-12.2,15.4
							c-0.1,0.2-0.1,0.4-0.2,0.6c-1.4,3.9-5.4,13.9-11.5,20.5c-1.5,1.7-3,3.2-4.3,4.5c-4.5,4.6-7.8,7.9-7.7,12.4
							c0,2.1,0.4,4.3,0.7,6.4C38.4,91.6,39.1,95.5,37.7,99.1z"/>
					</g>
					<g>
						<path class="st0" d="M43.6,45.8c-1.4,0-2.9-0.7-3.5-2.1c-0.4-1-0.2-2.1,0.1-3.3c2.4-9.6,5-19.5,10.7-27.8
							c3-4.4,6.9-8.3,10.7-12c2.5-2.5,5.1-5.1,7.5-7.8c6.2-7.2,10.9-16.3,15.5-25.1c5.5-10.6,11.3-21.5,19.5-29.4l0.2,0.2
							c-8.2,7.9-13.9,18.8-19.5,29.3C80.2-23.4,75.5-14.3,69.3-7c-2.3,2.7-4.9,5.3-7.5,7.8c-3.8,3.7-7.7,7.6-10.7,12
							c-5.7,8.3-8.2,18.2-10.6,27.7c-0.3,1.2-0.5,2.2-0.1,3.1c0.6,1.5,2.3,2.1,3.7,1.9c1.5-0.2,2.8-1.1,4-2
							c9.8-7.6,15-19.6,19.6-30.1c0.6-1.4,1.3-3,1.3-4.7c0-0.1,0-0.3,0-0.4c0-1.5,0-2.7-2.5-3.3c-1.3-0.3-2.8,0.2-4.6,1.7
							c-4.3,3.7-7.6,8.5-10.7,13.1c-2.6,3.9-4.9,7.7-4.6,11.8c0.1,0.8,0.3,1.3,0.7,1.5c0.6,0.3,2.3,0.5,2.8,0.2
							c5.7-3.2,10-10.4,10.4-17.4l0.2,0C60.3,23,56,30.2,50.2,33.5c-0.6,0.4-2.4,0.1-3-0.2c-0.5-0.3-0.8-0.8-0.8-1.7
							c-0.3-4.2,2-8.1,4.6-12c3.1-4.6,6.4-9.4,10.7-13.1c1.8-1.5,3.4-2.1,4.8-1.7c2.7,0.7,2.7,2.1,2.7,3.6c0,0.1,0,0.3,0,0.4
							c0,1.7-0.7,3.3-1.3,4.8C63.3,24.1,58.1,36,48.3,43.7c-1.2,1-2.6,1.9-4.1,2.1C43.9,45.8,43.8,45.8,43.6,45.8z"/>
					</g>
					<g>
						<path class="st0" d="M53.1,98.5c-3.9-6-5.5-13.5-4.6-20.6c1-7.1,4.5-13.9,9.9-18.7c4.7-4.2,10.6-6.9,16.3-9.5
							c6.9-3.1,14-6.4,18.7-12.3c2-2.5,3.6-5.5,5.1-8.4c1-1.9,2-4,3.2-5.8c2.7-4.3,6.5-8.1,10.7-10.9l0.4,0.6
							c-4.2,2.8-7.8,6.5-10.5,10.7c-1.2,1.9-2.2,3.9-3.2,5.8c-1.5,2.9-3.1,5.9-5.1,8.5c-4.8,6-12,9.3-19,12.5
							c-5.7,2.6-11.5,5.3-16.1,9.4c-5.2,4.7-8.7,11.3-9.6,18.2c-0.9,6.9,0.7,14.2,4.5,20.1L53.1,98.5z"/>
					</g>
				</g>
			</g>
			<g>
				<path class="st0" d="M44.2,93.4c-0.5,0-1,0-1.5,0c-0.2,0-0.5,0-0.7,0c-0.3,0-0.4,0.1-0.2,0.4c0,0.1,0.1,0.1,0.1,0.2c0,0,0,0,0,0
					c-0.1,0-0.1-0.1-0.2-0.1C40.9,93.2,40,93,39,93.2c-0.2,0-0.4,0.1-0.6,0.1c-0.3,0-0.6,0-0.8-0.4c-0.1-0.3-0.4-0.3-0.8-0.1
					c0.1-0.2,0.2-0.3,0.4-0.3c0.3,0.1,0.6,0.1,0.8,0.3c0.3,0.2,0.5,0.2,0.8,0.1c0.1,0,0.2-0.1,0.3-0.1c0.5-0.3,0.5-0.4,0.2-0.9
					c-0.3-0.7-0.6-1.4-0.9-2.1c-0.4-0.9-0.7-1.8-1.1-2.8c-0.3-0.7-0.8-1.1-1.5-1.5c-0.2-0.1-0.4-0.1-0.6-0.1
					c-0.7-0.1-1.5-0.1-2.2-0.1c-0.1,0-0.2,0-0.4,0.1c-0.4,0.2-0.8,0.3-1.2,0.5c0.2-0.2,0.4-0.5,0.6-0.7c-0.4-0.1-0.7-0.1-1.1-0.1
					c-0.2,0-0.4,0-0.5-0.1c-0.4-0.1-0.7-0.1-1,0c-1.6,0.5-3.3,1-4.9,1.5c-0.2,0-0.3,0.1-0.5,0.1c0,0-0.1,0-0.1-0.1
					c0.1-0.1,0.3-0.2,0.4-0.2c1.3-0.5,2.6-1.1,3.9-1.6c1.5-0.6,3-1.1,4.4-1.7c0.7-0.3,1.3-0.7,1.9-1.1c1.4-0.9,2.7-1.7,4-2.8
					c0.7-0.6,1.3-1.3,2-1.9c1.5-1.5,3.1-2.9,5.1-3.7c1.1-0.5,2.1-0.7,3.3-0.4c0.7,0.2,1.3,0.6,1.8,1c0.2,0.1,0.3,0.2,0.5,0.1
					c0.5,0,1-0.1,1.4-0.1c0.1,0,0.2,0,0.4,0.1c-0.1,0.1-0.2,0.1-0.2,0.1c-0.6,0.2-1.2,0.5-1.8,0.7c-0.3,0.1-0.5,0.3-0.6,0.6
					c-0.1,0.5-0.3,1-0.3,1.6c0,0.7,0,1.4,0,2.1c-0.1,1.8-0.6,3.5-1.9,4.8c-0.7,0.7-1.4,1.2-2.3,1.6c-1.3,0.6-2.7,1-4.1,1.4
					c-0.2,0.1-0.5,0.1-0.7,0.1c-0.2,0-0.3,0.2-0.1,0.4c1.3,1.2,2.1,2.8,3.4,4c0.2,0.2,0.5,0.4,0.7,0.5c0.3,0.2,0.6,0.2,1,0.2
					c0.4,0,0.8,0,1.2,0.1c0.2,0,0.5,0.2,0.5,0.4c-0.5-0.1-0.9-0.1-1.4-0.1c-0.2,0-0.5,0.1-0.8,0.2c-0.6,0.2-1,0.2-1.4-0.3
					c-0.1-0.1-0.2-0.2-0.4-0.2c-0.3,0-0.7,0-1,0c-0.2,0-0.4-0.1-0.5-0.2c-0.2-0.1-0.4-0.2-0.6-0.3c0.3,0,0.6,0.1,0.9,0.1
					c0.3,0.1,0.5,0.2,0.7,0.2c0.3,0.1,0.5-0.1,0.4-0.4c-0.1-0.2-0.1-0.5-0.3-0.7c-0.8-1.2-1.8-2.3-2.9-3.2c-0.6-0.5-1.2-0.6-2-0.5
					c-0.3,0.1-0.5,0.3-0.4,0.6c0.3,1.3,0.7,2.5,1.3,3.7c0.1,0.1,0.1,0.3,0.2,0.4c0.4,0.7,0.9,1.1,1.7,1.1c0.9,0,1.7,0.2,2.6,0.3
					C44.1,93.3,44.2,93.3,44.2,93.4C44.2,93.4,44.2,93.4,44.2,93.4z"/>
			</g>
		</g>
	</g>
</g>
<rect x="0.4" class="st2" width="548.1" height="105"/>
</svg>
