<svg width="504" height="26" viewBox="0 0 504 26" fill="none" xmlns="http://www.w3.org/2000/svg">
<path d="M0 16.9309L0.38 16.4909C0.86 17.0009 1.51 17.5009 2.57 17.5009C3.63 17.5009 4.41 16.8209 4.41 15.7809C4.41 14.7409 3.64 13.9809 1.66 13.9809V13.4209C3.48 13.4209 4.12 12.6609 4.12 11.7209C4.12 10.8409 3.51 10.2709 2.55 10.2709C1.83 10.2709 1.18 10.6509 0.73 11.1409L0.34 10.7009C0.91 10.1409 1.62 9.71094 2.56 9.71094C3.84 9.71094 4.8 10.4309 4.8 11.6809C4.8 12.7209 4.16 13.3509 3.27 13.6509V13.7009C4.27 13.9209 5.09 14.6609 5.09 15.7909C5.09 17.1909 4 18.0709 2.59 18.0709C1.3 18.0709 0.53 17.4909 0.01 16.9309H0Z" fill="white"/>
<path d="M6.94995 9.62109H8.90995C11.46 9.62109 12.71 11.2011 12.71 13.7411C12.71 16.2811 11.46 17.9211 8.91995 17.9211H6.94995V9.62109ZM8.83995 17.3411C11.03 17.3411 11.99 15.8911 11.99 13.7411C11.99 11.5911 11.02 10.1911 8.83995 10.1911H7.62995V17.3411H8.83995Z" fill="white"/>
<path d="M18.85 10.1997L19.21 10.3197C18.56 14.7297 16.75 17.3397 14.4 18.6897C14.31 18.5497 14.09 18.3497 13.96 18.2597C15.3 17.5297 16.45 16.3897 17.31 14.7797C16.84 14.1897 16 13.3697 15.22 12.7297C14.99 13.1497 14.73 13.5297 14.46 13.8597C14.36 13.7797 14.12 13.5997 13.99 13.5197C15.06 12.3197 15.81 10.4597 16.26 8.42969L16.81 8.53969C16.67 9.11969 16.51 9.68969 16.33 10.2197H18.75L18.86 10.1997H18.85ZM16.13 10.7497C15.92 11.2997 15.71 11.8197 15.45 12.2997C16.2 12.8797 17.03 13.6497 17.56 14.2597C18.02 13.2597 18.37 12.0997 18.57 10.7497H16.13ZM21.25 11.8997C22.33 12.6497 23.63 13.7297 24.27 14.4397L23.86 14.8397C23.27 14.1597 22.07 13.1297 21.05 12.3697V18.7397H20.49V8.43969H21.05V12.0697L21.26 11.8997H21.25Z" fill="white"/>
<path d="M26.74 18.0897V18.7497H26.28V14.6997C26.04 15.0397 25.79 15.3397 25.54 15.5897C25.47 15.5097 25.31 15.3297 25.21 15.2397C25.86 14.6097 26.46 13.7097 26.83 12.7897L27.26 12.9097C27.16 13.1597 27.04 13.3997 26.92 13.6497H28.55C28.44 13.4197 28.29 13.1897 28.13 12.9897L28.51 12.7997C28.73 13.0497 28.94 13.3997 29.04 13.6497H30.6V14.0897H28.88V14.9297H30.37V15.3597H28.88V16.2097H30.43V16.6397H28.88V17.6197H30.61V18.0697H26.74V18.0897ZM27.04 9.69969H25.28V9.22969H27.04V8.42969H27.52V10.4497H27.04V9.69969ZM25.79 10.6897H27.76V12.6097H25.79V10.6897ZM26.2 12.2097H27.34V11.0897H26.2V12.2097ZM28.41 14.0997H26.75V14.9397H28.41V14.0997ZM28.41 15.3697H26.75V16.2197H28.41V15.3697ZM28.41 16.6597H26.75V17.6397H28.41V16.6597ZM30.5 12.6097H28.47V10.6997H30.5V12.6097ZM29.26 10.4697H28.77V8.43969H29.26V9.23969H30.91V9.70969H29.26V10.4697ZM30.08 11.0897H28.88V12.2097H30.08V11.0897ZM34.88 18.1397C35.1 18.1397 35.14 17.9697 35.15 16.5397C35.27 16.6297 35.48 16.7197 35.63 16.7697C35.6 18.3097 35.46 18.6597 34.95 18.6597H34.3C33.76 18.6597 33.64 18.4997 33.64 17.8897V15.0897H32.79C32.62 16.7697 32.15 18.0697 30.72 18.7897C30.64 18.6697 30.47 18.4497 30.34 18.3597C31.67 17.7297 32.08 16.5697 32.23 15.0897H31.13V8.90969H35.26V15.0897H34.16V17.8897C34.16 18.1197 34.18 18.1497 34.37 18.1497H34.89L34.88 18.1397ZM31.62 10.7797H34.75V9.38969H31.62V10.7797ZM31.62 12.6697H34.75V11.2697H31.62V12.6697ZM31.62 14.5597H34.75V13.1497H31.62V14.5597Z" fill="white"/>
<path d="M42.58 8.66117C42.47 8.83117 42.34 9.01117 42.22 9.17117C43.47 10.6012 45.12 11.6512 47.12 12.5412C46.97 12.6512 46.8 12.8612 46.73 13.0212C44.8 12.0912 43.21 11.0312 41.92 9.57117C40.7 11.0412 38.96 12.3212 37.12 13.0912C37.04 12.9712 36.88 12.7612 36.73 12.6512C38.93 11.7812 41 10.2012 42.13 8.45117L42.6 8.67117L42.58 8.66117ZM38.49 14.2912H45.37V18.6812H44.81V18.0112H39.05V18.7312H38.49V14.2912ZM44.75 12.1812V12.6912H39V12.1812H44.75ZM39.04 14.7912V17.4912H44.8V14.7912H39.04Z" fill="white"/>
<path d="M57.5799 12.2405C57.0899 13.7305 56.3999 15.0205 55.5299 16.1005C56.0099 17.3705 56.6199 18.1105 57.3299 18.1105C57.6899 18.1105 57.8399 17.5105 57.9199 15.9605C58.0399 16.0705 58.2499 16.2005 58.3999 16.2505C58.2799 18.0805 58.0599 18.6705 57.2999 18.6705C56.3899 18.6705 55.6699 17.8805 55.1399 16.5805C54.3799 17.4105 53.5099 18.1205 52.5099 18.6905C52.4299 18.5805 52.2399 18.3605 52.1099 18.2605C53.1999 17.6805 54.1499 16.9305 54.9199 16.0105C54.4899 14.6905 54.1999 12.9805 54.0499 11.0605H49.7199V12.7105H52.6899C52.6899 12.7105 52.6799 12.9005 52.6799 12.9805C52.6199 15.6305 52.5599 16.5605 52.3299 16.8505C52.1799 17.0205 52.0099 17.0905 51.7199 17.1005C51.4199 17.1205 50.8999 17.1105 50.3299 17.0805C50.3099 16.9205 50.2499 16.7005 50.1599 16.5705C50.7499 16.6305 51.3099 16.6305 51.4999 16.6305C51.6699 16.6305 51.7999 16.6105 51.8599 16.5205C52.0299 16.3405 52.0899 15.5205 52.1399 13.2305H49.7199V13.6505C49.7199 15.2005 49.5499 17.3505 48.5099 18.8205C48.4099 18.7205 48.1999 18.5305 48.0699 18.4705C49.0499 17.0605 49.1599 15.1205 49.1599 13.6405V10.5305H54.0099C53.9799 9.86047 53.9499 9.18047 53.9399 8.48047H54.4999C54.4999 9.18047 54.5199 9.87047 54.5599 10.5305H58.3099V11.0705H54.5999C54.7399 12.8205 54.9799 14.3205 55.3399 15.5105C56.0499 14.5405 56.6199 13.4005 57.0399 12.1305L57.5899 12.2705L57.5799 12.2405ZM57.3899 10.3205C56.9199 9.91047 55.9999 9.32047 55.2399 8.94047L55.5599 8.59047C56.3199 8.97047 57.2399 9.52047 57.7099 9.93047L57.3899 10.3205Z" fill="white"/>
<path d="M68.8201 17.9605C68.8201 18.3905 68.6801 18.5605 68.3901 18.6505C68.0701 18.7405 67.4801 18.7505 66.4401 18.7505C66.4201 18.6005 66.3201 18.3905 66.2501 18.2405C67.0601 18.2605 67.7901 18.2505 67.9901 18.2405C68.2101 18.2305 68.2801 18.1605 68.2801 17.9605V13.2005H61.3401C61.3001 15.0005 61.0201 17.2205 59.8601 18.8305C59.7701 18.7305 59.5501 18.5305 59.4301 18.4805C60.6801 16.7305 60.8101 14.3105 60.8101 12.5005V8.98047H68.8301V17.9505L68.8201 17.9605ZM61.3401 9.51047V10.7605H64.4001V9.51047H61.3401ZM61.3401 12.7105H64.4001V11.2405H61.3401V12.7105ZM62.8401 17.1005V17.7505H62.3301V14.2005H67.1001V17.1005H62.8401ZM62.8401 14.6705V16.6405H66.5701V14.6705H62.8401ZM68.2701 9.51047H64.9201V10.7605H68.2701V9.51047ZM68.2701 12.7105V11.2405H64.9201V12.7105H68.2701Z" fill="white"/>
<path d="M73.55 14.0206C73.4 15.0006 73.16 15.8306 72.84 16.5506C73.63 17.8906 75.16 18.1006 77.5 18.1006C78.68 18.1006 80.22 18.0706 81.3 17.9606C81.21 18.1006 81.15 18.3506 81.12 18.5006C80.12 18.5606 78.71 18.5806 77.5 18.5806C75.04 18.5806 73.53 18.3506 72.63 17.0006C72.23 17.7606 71.72 18.3406 71.16 18.7806C71.08 18.6506 70.9 18.4606 70.77 18.3806C71.82 17.6406 72.61 16.3006 72.96 14.4106H71.72C71.43 14.4106 71.16 14.4806 71.07 14.5706C71.04 14.4206 70.9 14.1306 70.83 14.0006C70.99 13.9506 71.16 13.8906 71.34 13.6806C71.61 13.3806 72.36 12.2706 72.83 11.5506H70.92V11.0706H73.14L73.29 11.0006L73.7 11.1806C73.23 11.8606 72.36 13.1606 71.74 13.9206H73.29L73.55 14.0206ZM72.74 10.5206C72.45 10.0406 71.89 9.25062 71.42 8.68062L71.84 8.45062C72.32 9.03062 72.9 9.77062 73.17 10.2406L72.74 10.5206ZM74.25 13.9906H73.75V12.8706H77.04C76.96 12.6906 76.86 12.4906 76.75 12.3106H74.6V9.13062H76.68C76.8 8.88062 76.95 8.59063 77.02 8.39062L77.58 8.53062C77.48 8.76062 77.35 8.95062 77.23 9.13062H80.01V12.3106H77.31C77.42 12.4906 77.55 12.7006 77.62 12.8706H80.86V13.9206H80.35V13.2706H78.67V13.9106C78.67 14.1406 78.68 14.2106 78.9 14.2106H80.07C80.22 14.2106 80.53 14.1906 80.66 14.1606C80.68 14.2706 80.68 14.4006 80.71 14.5106C80.59 14.5406 80.32 14.5406 80.08 14.5406H78.75C78.26 14.5406 78.17 14.3606 78.17 13.8906V13.2606H76.72C76.34 14.1006 75.51 14.4806 74.08 14.7406C74.02 14.6306 73.91 14.4706 73.81 14.3906C75.12 14.2106 75.87 13.8706 76.18 13.2606H74.26V13.9806L74.25 13.9906ZM76.61 15.4106C76.58 15.5806 76.52 15.7306 76.46 15.8906H79.76C79.76 15.8906 79.75 16.0506 79.73 16.1306C79.54 16.9606 79.38 17.3506 79.13 17.5206C78.97 17.6306 78.82 17.6706 78.56 17.6806C78.35 17.6806 77.88 17.6806 77.39 17.6306C77.38 17.5206 77.33 17.3606 77.28 17.2306C77.79 17.2806 78.26 17.2806 78.42 17.2806C78.61 17.2806 78.72 17.2706 78.8 17.2106C78.95 17.1006 79.06 16.8206 79.19 16.2906H76.29C75.93 16.9306 75.33 17.4106 74.36 17.7106C74.3 17.6006 74.16 17.4106 74.04 17.3206C75.32 16.9606 75.87 16.3006 76.12 15.4106H74.04V14.9906H77.14C77.03 14.7506 76.9 14.4706 76.79 14.2506L77.26 14.1506C77.4 14.4006 77.57 14.7306 77.68 14.9906H80.74V15.4106H76.64H76.61ZM75.13 10.0706H79.48V9.52063H75.13V10.0706ZM75.13 11.0006H79.48V10.4306H75.13V11.0006ZM75.13 11.9406H79.48V11.3606H75.13V11.9406Z" fill="white"/>
<path d="M85.31 16.4613C84.24 16.8413 83.15 17.2113 82.28 17.5013L82.14 16.9813C82.54 16.8513 83.03 16.7213 83.56 16.5413V13.1013H82.39V12.6013H83.56V9.80133H82.26V9.30133H85.3V9.80133H84.06V12.6013H85.14V13.1013H84.06V16.3713C84.44 16.2513 84.85 16.1213 85.23 15.9813L85.3 16.4713L85.31 16.4613ZM92.28 15.9313C91.77 16.2813 91.11 16.6713 90.55 16.9413C91.12 17.5313 91.86 17.9813 92.7 18.2113C92.58 18.3213 92.42 18.5113 92.35 18.6513C90.74 18.1313 89.58 16.8913 89.01 15.3313H89C88.59 15.7313 88.05 16.1313 87.46 16.4613V17.9713L89.54 17.4313C89.53 17.5713 89.54 17.7713 89.55 17.8613C87.33 18.4813 87.05 18.5813 86.86 18.6913C86.83 18.5413 86.71 18.3413 86.63 18.2213C86.75 18.1513 86.97 17.9913 86.97 17.5613V16.7113C86.49 16.9513 86.01 17.1513 85.57 17.2913C85.49 17.1813 85.35 16.9913 85.24 16.8913C86.3 16.6013 87.54 16.0013 88.35 15.3213H86.47V13.0813H91.67V15.3213H89.48C89.67 15.7913 89.92 16.2313 90.25 16.6313C90.8 16.3113 91.46 15.8813 91.86 15.5713L92.26 15.9113L92.28 15.9313ZM92.45 12.3413H85.65V11.8513H92.45V12.3413ZM92.06 11.1713H86.16V8.86133H92.06V11.1713ZM87.95 9.32133H86.65V10.7213H87.95V9.32133ZM87 14.8913H91.17V13.5513H87V14.8913ZM89.74 9.32133H88.4V10.7213H89.74V9.32133ZM91.57 9.32133H90.18V10.7213H91.57V9.32133Z" fill="white"/>
<path d="M97.06 15.8606C95.91 16.3206 94.73 16.7806 93.81 17.1506L93.63 16.5906C94.04 16.4506 94.56 16.2606 95.13 16.0506V11.7706H93.79V11.2506H95.13V8.55062H95.67V11.2506H96.84V11.7706H95.67V15.8506L96.96 15.3706L97.07 15.8606H97.06ZM102.65 18.1606C102.83 18.1606 103.05 18.1506 103.14 18.1106C103.23 18.0706 103.32 17.9906 103.37 17.8506C103.4 17.6806 103.42 17.3006 103.43 16.8106C103.54 16.9206 103.74 17.0106 103.9 17.0506C103.89 17.5206 103.84 18.0106 103.79 18.1906C103.71 18.3606 103.58 18.4606 103.4 18.5206C103.23 18.5606 102.92 18.5906 102.71 18.5906H101.91C101.67 18.5906 101.36 18.5606 101.19 18.4506C101 18.3506 100.93 18.2006 100.93 17.6406V15.7706H99.79C99.61 17.5006 98.99 18.3206 96.97 18.7906C96.91 18.6506 96.77 18.4506 96.65 18.3606C98.56 17.9606 99.11 17.2806 99.26 15.7806H97.94V12.6506H102.97V15.7806H101.46V17.7406C101.46 17.9406 101.48 18.0706 101.58 18.1206C101.67 18.1506 101.8 18.1706 101.97 18.1706H102.66L102.65 18.1606ZM103.59 11.9306H97.32V11.4306H101.14C101.33 11.0206 101.57 10.4506 101.7 10.0606L102.22 10.2106C102.04 10.6206 101.84 11.0606 101.66 11.4306H103.58V11.9306H103.59ZM103.28 9.86062H97.67V9.37062H100.24C100.15 9.09062 100.01 8.77062 99.88 8.49062L100.37 8.39062C100.54 8.69063 100.71 9.08062 100.81 9.37062H103.28V9.86062ZM98.43 13.9906H102.43V13.0906H98.43V13.9906ZM98.43 15.3506H102.43V14.4206H98.43V15.3506ZM99.05 11.3906C98.97 11.0606 98.79 10.5506 98.63 10.1406L99.1 10.0406C99.27 10.4306 99.46 10.9306 99.54 11.2506L99.05 11.4006V11.3906Z" fill="white"/>
<path d="M108.21 14.4014C108.05 14.0214 107.64 13.2014 107.32 12.5914V18.7314H106.81V12.6314C106.42 14.0214 105.88 15.4214 105.33 16.2514C105.26 16.0914 105.1 15.8714 104.99 15.7614C105.68 14.7714 106.41 12.8514 106.74 11.2014H105.26V10.6814H106.81V8.45141H107.32V10.6814H108.69V11.2014H107.32V11.7914C107.61 12.2514 108.39 13.6514 108.57 13.9914L108.21 14.4114V14.4014ZM111.71 16.1514C111.24 17.4414 110.33 18.2814 108.35 18.7614C108.29 18.6514 108.16 18.4314 108.05 18.3314C109.83 17.9214 110.68 17.2014 111.12 16.1614H108.27V15.6714H111.29C111.38 15.3414 111.45 14.9614 111.5 14.5714H109.11V11.2014H114.6V14.5714H112.05C112.01 14.9614 111.94 15.3314 111.85 15.6714H115.17V16.1614H111.71V16.1514ZM110.14 9.94141H108.56V9.45141H110.14V8.44141H110.64V9.45141H111.63V9.94141H110.64V10.8714H110.14V9.94141ZM109.64 12.6414H114.08V11.6414H109.64V12.6414ZM109.64 14.1014H114.08V13.0914H109.64V14.1014ZM112.2 16.3214C113.26 16.9114 114.61 17.7514 115.31 18.2814L114.98 18.7014C114.3 18.1614 112.93 17.2914 111.88 16.6814L112.2 16.3214ZM115.35 9.44141V9.92141H113.69V10.8814H113.19V9.92141H112.12V9.44141H113.19V8.44141H113.69V9.44141H115.35Z" fill="white"/>
<path d="M118.36 14.0907V18.0507C118.36 18.4107 118.26 18.5607 118.04 18.6707C117.8 18.7507 117.42 18.7707 116.75 18.7607C116.72 18.6407 116.64 18.4207 116.56 18.2607C117.08 18.2707 117.53 18.2707 117.65 18.2607C117.79 18.2607 117.84 18.2107 117.84 18.0707V14.3007C117.36 14.4907 116.91 14.6907 116.5 14.8507L116.32 14.3307C116.74 14.1707 117.26 13.9707 117.85 13.7407V11.3507H116.44V10.8407H117.85V8.4707H118.36V10.8407H119.32V11.3507H118.36V13.5207L119.35 13.1207L119.46 13.6407L118.36 14.1007V14.0907ZM122.08 17.6907C121.83 17.3807 121.41 16.9307 121 16.5507C120.7 17.3007 120.18 18.0907 119.22 18.7707C119.14 18.6607 118.98 18.5107 118.87 18.4307C120.12 17.6007 120.59 16.5607 120.75 15.6407H119.07V15.1607H120.82C120.85 14.9007 120.85 14.6407 120.85 14.4107V13.5707H120.18C120.02 14.0607 119.83 14.5007 119.6 14.8707C119.51 14.8007 119.3 14.6607 119.18 14.6107C119.62 13.9507 119.9 13.0007 120.05 12.0307L120.54 12.1207C120.48 12.4507 120.4 12.7807 120.32 13.1107H122.53V13.5807H121.33V14.4207C121.33 14.6607 121.32 14.9107 121.3 15.1707H122.68V15.6507H121.25C121.22 15.8007 121.19 15.9307 121.15 16.0707C121.62 16.4807 122.15 16.9807 122.41 17.3007L122.09 17.7007L122.08 17.6907ZM120.44 11.8707C119.83 11.8707 119.67 11.6407 119.67 10.9607V8.4707H120.16V9.6507H122.24V10.1207H120.16V10.9707C120.16 11.3107 120.22 11.4007 120.44 11.4007H121.9C122.08 11.4007 122.37 11.3907 122.54 11.3507C122.55 11.4907 122.57 11.7007 122.6 11.8207C122.46 11.8507 122.19 11.8707 121.93 11.8707H120.45H120.44ZM124.86 17.9807C125.14 18.0707 125.43 18.1007 125.74 18.1007C125.9 18.1007 126.62 18.1007 126.84 18.0907C126.77 18.2307 126.69 18.4507 126.67 18.5807H125.71C124.62 18.5807 123.77 18.2807 123.23 16.9007C123.01 17.6407 122.72 18.2707 122.25 18.8007C122.17 18.7107 121.96 18.5507 121.84 18.4907C122.8 17.5007 123.04 16.0107 123.09 14.0407L123.58 14.0707C123.56 14.8207 123.5 15.4907 123.39 16.1007C123.63 16.9507 123.98 17.4507 124.39 17.7507V12.9007H122.59V12.4207H126.26L126.34 12.4007L126.65 12.5007C126.49 13.1707 126.3 13.9507 126.13 14.4207L125.73 14.2807C125.85 13.9207 125.98 13.3807 126.09 12.8907H124.86V15.0107H126.57V15.4907H124.86V17.9707V17.9807ZM123.49 10.0807C123.83 10.2707 124.2 10.5107 124.55 10.7607C124.98 10.3607 125.44 9.8307 125.77 9.3407H122.75V8.8607H126.11L126.21 8.8407L126.56 9.0707C126.14 9.7607 125.49 10.5207 124.91 11.0407C125.26 11.3107 125.58 11.5907 125.79 11.8007L125.45 12.1807C124.98 11.6407 123.99 10.9207 123.16 10.4207L123.49 10.0907V10.0807Z" fill="white"/>
<path d="M137.68 8.95117V18.7312H137.15V18.2512H128.85V18.7312H128.33V8.95117H137.69H137.68ZM137.15 17.7612V9.44117H128.85V17.7612H137.15ZM136.54 12.4512V12.8612H129.47V12.4512H132.7V11.8212H130.74V10.0812H135.24V11.8212H133.21V12.4512H136.53H136.54ZM130.39 13.4412H135.59V17.0012H130.39V13.4412ZM130.86 16.5912H135.11V13.8512H130.86V16.5912ZM131.23 11.4112H134.75V10.4812H131.23V11.4112ZM131.74 14.4312H134.21V16.0212H131.74V14.4312ZM132.15 15.6312H133.8V14.8012H132.15V15.6312Z" fill="white"/>
<path fill-rule="evenodd" clip-rule="evenodd" d="M152.64 18.26H155.24V5.43L152.64 8.07V18.26ZM162.18 2.64V18.26H164.79V0L162.18 2.64Z" fill="#992024"/>
<path d="M168.16 12.4299C169.21 13.2599 169.82 14.2399 169.82 15.2899C169.82 17.8999 166.07 20.0699 161.07 20.5999V14.4099C160.61 14.8999 159.99 15.2499 159.29 15.3699V20.6999C159.11 20.6999 158.93 20.6999 158.74 20.6999C158.55 20.6999 158.36 20.6999 158.18 20.6999V15.3699C157.48 15.2499 156.86 14.9099 156.4 14.4199V20.5899C151.41 20.0599 147.66 17.8899 147.66 15.2799C147.66 14.2299 148.27 13.2499 149.32 12.4199C147.6 13.5099 146.58 14.9099 146.58 16.4299C146.58 19.9299 152.03 22.7699 158.74 22.7699C165.45 22.7699 170.9 19.9299 170.9 16.4299C170.9 14.9099 169.87 13.5099 168.16 12.4199V12.4299Z" fill="#086B37"/>
<path fill-rule="evenodd" clip-rule="evenodd" d="M161.01 12.2192C161.01 13.4692 159.99 14.4892 158.73 14.4892C157.47 14.4892 156.45 13.4692 156.45 12.2192C156.45 10.9692 157.47 9.94922 158.73 9.94922C159.99 9.94922 161.01 10.9692 161.01 12.2192Z" fill="#992024"/>
<path d="M220.5 5.73047H218.62V19.9905H220.5V5.73047Z" fill="white"/>
<path d="M224.03 13.9707H215.18V15.3407H224.03V13.9707Z" fill="white"/>
<path d="M224.56 16.5508H214.81V17.9208H224.56V16.5508Z" fill="white"/>
<path d="M225.23 8.92969H214.73V10.2997H225.23V8.92969Z" fill="white"/>
<path d="M223.71 6.56055H215.63V7.89055H222.3C222.42 7.89055 222.51 7.98055 222.51 8.10055V11.3105C222.51 11.4305 222.42 11.5205 222.3 11.5205H215.63V12.8305H224.35V7.19055C224.35 6.85055 224.07 6.57055 223.72 6.57055L223.71 6.56055Z" fill="white"/>
<path d="M210.45 6.40086V7.82086H212.26C212.26 7.82086 212.54 7.77086 212.43 8.12086C212.32 8.47086 210.34 12.7209 210.34 12.7209H212.93C212.93 12.7209 212.87 15.2009 212.26 16.7209C211.65 18.2409 209.78 20.5009 209.78 20.5009H211.95C211.95 20.5009 214.15 17.8609 214.54 15.4109C214.93 12.9609 214.85 11.9809 214.85 11.9809C214.85 11.9809 214.8 11.4409 214.24 11.4409H212.93L214.52 7.79086C214.52 7.79086 215.11 6.38086 213.91 6.38086C212.71 6.38086 210.46 6.41086 210.46 6.41086L210.45 6.40086Z" fill="white"/>
<path d="M210.19 14.0998H211.92C211.92 14.0998 211.98 15.9498 212.98 17.3898C213.98 18.8298 215.82 19.1598 217.13 19.1598H225.03V20.6498H216.26C216.26 20.6498 213.65 20.7398 211.89 18.3698C210.14 15.9998 210.19 14.0898 210.19 14.0898V14.0998Z" fill="white"/>
<path d="M207.74 17.9605C207.64 18.7405 207.47 19.3205 207.24 19.7105C206.82 20.3405 206.35 20.6505 205.82 20.6505H195.19C194.53 20.6405 194.02 20.4605 193.66 20.1405C193.37 19.8705 193.23 19.4205 193.23 18.9505V11.5305C193.23 11.1205 193.37 10.9805 193.65 10.9805H206.33C206.72 10.9805 206.98 11.2305 206.98 11.6005V16.0605C206.98 16.4605 206.76 16.6905 206.33 16.6905H195.3V18.0405C195.31 18.4005 195.35 18.6505 195.43 18.7805C195.56 18.9405 195.72 19.0305 195.89 19.0505H205.15C205.35 19.0505 205.52 18.9905 205.66 18.9105C205.84 18.7905 205.96 18.6605 206.04 18.5205C206.09 18.4105 206.17 18.1705 206.19 17.9505H207.75L207.74 17.9605ZM195.3 15.2405H199.28V12.3505H195.48C195.36 12.3505 195.3 12.4005 195.3 12.5305V15.2405ZM200.98 12.3605V15.2505H204.86C204.99 15.2405 205.06 15.1805 205.06 15.0605V12.5405C205.06 12.4205 204.99 12.3605 204.86 12.3605H200.98Z" fill="white"/>
<path d="M205.87 6.05078H194.24C193.66 6.05078 193.19 6.51078 193.19 7.08078V10.2608H206.93V7.08078C206.93 6.51078 206.46 6.05078 205.88 6.05078H205.87ZM204.97 8.80078C204.97 8.80078 204.94 8.87078 204.89 8.88078H195.32L195.25 8.80078V7.47078C195.24 7.42078 195.26 7.39078 195.32 7.40078H204.89L204.97 7.47078V8.80078Z" fill="white"/>
<path d="M233.16 6.06055H227.72V7.43055H233.16V6.06055Z" fill="white"/>
<path d="M233.16 10.4492H227.72V11.8192H233.16V10.4492Z" fill="white"/>
<path d="M233.16 12.6992H227.72V14.0692H233.16V12.6992Z" fill="white"/>
<path d="M233.68 8.18945H227.13V9.55945H233.68V8.18945Z" fill="white"/>
<path d="M227.41 20.6299V15.7399C227.41 15.2899 227.79 14.9199 228.25 14.9199H232.57C233.03 14.9199 233.41 15.2899 233.41 15.7399V20.6299H227.4H227.41ZM231.34 16.5999C231.34 16.4899 231.25 16.3899 231.13 16.3899H229.59C229.48 16.3899 229.38 16.4799 229.38 16.5999V19.0599C229.38 19.1699 229.48 19.2599 229.59 19.2599H231.13C231.25 19.2599 231.34 19.1699 231.34 19.0599V16.5999Z" fill="white"/>
<path d="M234.73 14.4805H236.79C236.79 14.4805 237.9 17.4405 242.66 20.6305H239.84C239.84 20.6305 236.93 19.1505 234.73 14.4805Z" fill="white"/>
<path d="M234.44 12.5293V13.8493H239.29C239.29 13.8493 239.79 13.7993 239.57 14.3793C239.36 14.9593 238.72 16.3893 236.59 18.3593C234.96 19.8693 233.92 20.5793 233.92 20.5793H236.74C236.74 20.5793 238.51 19.3793 240.21 17.2993C241.91 15.2193 242.03 13.3193 242.03 13.3193C242.03 13.3193 242.06 12.5293 240.9 12.5293C239.74 12.5293 234.44 12.5293 234.44 12.5293Z" fill="white"/>
<path d="M241.35 10.2599C241.35 10.2599 241.04 10.3599 241.04 10.0099V6.95992C241.04 6.95992 241.06 5.91992 239.85 5.91992H235.76C235.76 5.91992 234.62 6.00992 234.62 7.07992V11.6699H236.46V7.64992C236.46 7.64992 236.49 7.28992 236.78 7.28992H238.57C238.57 7.28992 239.04 7.16992 239.04 7.74992C239.04 8.32992 239.04 11.6799 239.04 11.6799H242.33V10.2699H241.34L241.35 10.2599Z" fill="white"/>
<path d="M184.38 10.6909V9.64086H185.61V9.10086H184.38V8.05086H185.61V7.50086H184.38V6.46086H185.61V5.69086H186.85V6.46086H187.99V7.51086H186.85V8.06086H187.98V9.11086H186.85V9.65086H188V10.7009H186.85V11.2809H188.29C188.45 11.2709 188.53 11.1909 188.53 11.0409V5.98086H190.32V11.9209C190.32 12.3209 190.11 12.5209 189.7 12.5209H176.5C176.08 12.5109 175.88 12.3109 175.88 11.9209V5.98086H177.66V11.0409C177.67 11.2009 177.75 11.2809 177.89 11.2809H179.4V10.7009H178.28V9.65086H179.4V9.11086H178.28V8.06086H179.4V7.51086H178.29V6.46086H179.4V5.63086H180.55V6.46086H181.62V7.51086H180.55V8.06086H181.62V9.11086H180.55V9.65086H181.61V10.7009H180.55V11.2809H182.28V5.65086H183.77V11.2809H185.62V10.7009H184.39L184.38 10.6909Z" fill="white"/>
<path d="M187.13 18.3105L186.69 19.0905H190.75V20.5505H175.55V19.0905H179.73L179.2 18.3105H181L181.55 19.0905H184.95L185.43 18.3105H187.13Z" fill="white"/>
<path d="M190.49 13.1699H175.82V14.4399H190.49V13.1699Z" fill="white"/>
<path d="M188.4 15.0215H177.91C177.35 15.0215 176.89 15.4415 176.89 15.9615V18.3615H189.42V15.9615C189.42 15.4415 188.96 15.0215 188.4 15.0215ZM187.45 17.0015C187.45 17.0015 187.42 17.0615 187.37 17.0715H178.9L178.84 17.0015V16.3515C178.84 16.3515 178.85 16.2815 178.9 16.2915H187.37L187.45 16.3515V17.0015Z" fill="white"/>
<path d="M258.48 14.5598H253.33V13.3898H258.48V10.4998H252.99V9.32977H258.58C258.1 8.75977 257.68 8.33977 257.31 8.04977L258.3 7.25977C258.83 7.68977 259.39 8.26977 259.97 8.99977L259.51 9.32977H265.18V10.4998H259.78V13.3898H264.9V14.5598H259.78V17.8098H265.7V18.9798H252.54V17.8098H258.49V14.5598H258.48Z" fill="white"/>
<path d="M268.86 19.4309L267.85 18.7509L267.98 18.6309C269.24 17.5509 270.09 16.1809 270.54 14.5209L271.74 14.8209L271.3 16.1209C272.01 17.0109 272.91 17.5909 273.97 17.8609V14.0509H268.22V12.9909H281.04V14.0509H275.21V15.5009H280.18V16.5709H275.21V18.0509L276.84 18.1009H281.4L281.09 19.2209H277.29C276.29 19.1809 275.39 19.1309 274.6 19.0409C272.87 18.8509 271.58 18.2409 270.73 17.2109C270.12 18.1209 269.5 18.8609 268.87 19.4409L268.86 19.4309ZM279.53 12.1809H269.75C269.65 12.1809 269.59 12.1209 269.59 12.0309V7.77086C269.59 7.68086 269.65 7.63086 269.75 7.63086H279.53C279.64 7.63086 279.7 7.68086 279.7 7.77086V12.0309C279.7 12.1309 279.64 12.1809 279.53 12.1809ZM278.51 9.37086V8.68086L278.45 8.64086H270.82C270.82 8.64086 270.77 8.65086 270.78 8.68086V9.37086H278.51ZM270.78 10.3809V11.1109L270.82 11.1609H278.45L278.51 11.1109V10.3809H270.78Z" fill="white"/>
<path d="M283.51 15.3599V14.2399H289.51V8.78992H284.02V7.66992H296.27V8.78992H290.81V14.2399H296.73V15.3599H290.81V19.3599H289.51V15.3599H283.51ZM285.27 9.57992C286.01 10.4699 286.73 11.6199 287.43 13.0199L286.32 13.5599C285.56 12.0799 284.85 10.9499 284.2 10.1699L285.27 9.57992ZM295.93 10.0599C295.46 11.1199 294.73 12.3199 293.74 13.6499L292.65 13.0899C293.67 11.6699 294.38 10.4899 294.79 9.55992L295.92 10.0599H295.93Z" fill="white"/>
<path d="M298.97 13.3598V12.2398H303.37C303.73 11.6398 304.07 10.9498 304.4 10.1598L305.56 10.7098C305.34 11.2498 305.09 11.7598 304.82 12.2398H312.37V13.3598H309.78C309.35 14.8498 308.55 16.1098 307.38 17.1298L312.19 18.4898L311.45 19.4998L306.16 17.9898C304.43 18.9298 302.17 19.3998 299.37 19.3898L299.01 18.2698C300.9 18.3298 302.34 18.2398 303.35 17.9898L304.68 17.5698L300.58 16.3798L300.35 15.7098C301.28 14.8298 302.03 14.0498 302.58 13.3598H298.96H298.97ZM305.02 7.33984H306.32V8.59984H311.35L312.48 9.10984C312.38 9.83984 312.11 10.7098 311.69 11.7398L310.53 11.3598L311 9.89984C311.02 9.77984 310.96 9.71984 310.83 9.71984H300.62C300.54 9.71984 300.51 9.74984 300.51 9.81984V11.5398H299.27V8.81984C299.27 8.67984 299.36 8.59984 299.51 8.59984H305.01V7.33984H305.02ZM306.1 16.7798C307.22 15.9198 308.01 14.7698 308.46 13.3498H304.09C303.58 14.0898 302.95 14.8198 302.19 15.5298C302.1 15.5998 302.11 15.6498 302.22 15.6698L306.11 16.7698L306.1 16.7798Z" fill="white"/>
<path d="M330.06 8.79039H329.23V7.67039H335.82V8.79039H335.08V19.4104H333.84V17.4304L329.27 18.1604L328.96 17.0804L330.08 16.9004V8.78039L330.06 8.79039ZM333.83 10.5004V8.79039H331.3V10.5004H333.83ZM333.83 13.4204V11.6104H331.3V13.4204H333.83ZM333.83 16.3004V14.5404H331.3V16.7204L333.83 16.3004ZM337.93 8.71039C337.81 8.71039 337.76 8.76039 337.76 8.86039V19.3904H336.52V7.84039C336.53 7.71039 336.6 7.65039 336.74 7.65039H341.51L342.3 8.23039L340.8 12.0904C340.72 12.2604 340.74 12.4104 340.84 12.5404C341.49 13.2804 341.93 13.9204 342.17 14.4804C342.58 15.5904 342.56 16.5504 342.1 17.3704C341.9 17.7304 341.64 17.9804 341.33 18.1304C340.69 18.4104 339.79 18.3904 338.61 18.0604L338.64 16.8404C339.55 17.1604 340.22 17.2604 340.64 17.1404C341.17 16.9304 341.38 16.3504 341.27 15.3804C341.15 14.7204 340.58 13.8204 339.58 12.6704C339.48 12.5304 339.46 12.3704 339.51 12.1804L340.85 8.72039H337.93V8.71039Z" fill="white"/>
<path d="M346.1 16.2307C346.1 17.4007 345.88 18.4407 345.43 19.3307C345.07 19.1107 344.74 18.9807 344.46 18.9307C344.88 18.0707 345.05 17.1507 344.97 16.1807L346.1 16.2207V16.2307ZM350.48 15.6707H345.11C345 15.6707 344.95 15.6107 344.95 15.5207V10.4907C344.95 10.4007 345.01 10.3507 345.11 10.3507H347.47C348 9.8007 348.39 9.3207 348.64 8.9007C348.68 8.7807 348.65 8.7207 348.57 8.7207H346.77C346.47 9.1707 346.05 9.6807 345.48 10.2307L344.51 9.5207C345.42 8.7207 346.03 7.9607 346.37 7.2207L347.49 7.4407L347.38 7.7107H349.58L350.41 8.1707C349.98 8.9507 349.5 9.6707 348.95 10.3407H350.49C350.6 10.3407 350.66 10.3907 350.66 10.4807V15.5107C350.66 15.6107 350.6 15.6607 350.49 15.6607L350.48 15.6707ZM347.29 11.3607H346.12L346.08 11.4007V12.5607H347.29V11.3707V11.3607ZM347.29 13.4607H346.08V14.6007L346.12 14.6507H347.29V13.4607ZM347.5 16.2407C347.65 16.9807 347.74 17.9007 347.76 19.0207H346.75C346.75 18.2807 346.68 17.3707 346.51 16.3007L347.51 16.2307L347.5 16.2407ZM348.96 16.2107C349.25 17.3007 349.42 18.1707 349.49 18.8407L348.49 18.9307C348.42 18.3607 348.25 17.5107 347.96 16.3607L348.96 16.2107ZM348.42 12.5507H349.52V11.3907L349.46 11.3507H348.42V12.5407V12.5507ZM348.42 14.6507H349.46C349.46 14.6507 349.52 14.6307 349.52 14.6007V13.4607H348.42V14.6507ZM350.32 16.0407C350.63 16.6507 350.9 17.4207 351.11 18.3607L350.17 18.5907C349.94 17.6207 349.69 16.8507 349.41 16.3107L350.32 16.0407ZM351.32 12.3607V11.2907H353.95V9.1007L351.46 9.2507L351.2 8.1307C353.82 8.0907 355.86 7.8707 357.33 7.4607L357.69 8.5307C356.99 8.7007 356.21 8.8407 355.33 8.9407L355.13 8.9807V11.2907H358.02V12.3607H355.45C355.96 13.7507 356.87 15.0907 358.18 16.3807L357.01 16.8407C356.21 15.9107 355.59 15.0207 355.14 14.1807V19.3107H353.95V14.1507C353.28 15.3207 352.64 16.2307 352.01 16.8707L350.91 16.2907C352.14 15.0907 353.03 13.7807 353.6 12.3507H351.33L351.32 12.3607Z" fill="white"/>
<path d="M361.36 17.3107L360.65 16.3307L361.08 16.1907C362.74 15.6307 363.89 14.8507 364.54 13.8407C364.34 13.6307 364.24 13.4107 364.24 13.2007V11.2007H361.6C361.52 11.2007 361.49 11.2307 361.49 11.3007V12.7607H360.36V10.3707C360.36 10.2407 360.44 10.1807 360.57 10.1807H363.14C362.85 9.7907 362.59 9.4807 362.34 9.2707L363.07 8.7607L361.38 8.7307L361.28 7.6607C366.11 7.7507 369.78 7.6007 372.29 7.2207L372.43 8.2907C371.53 8.4407 370.08 8.5707 368.06 8.6607L366.85 8.7107C367.11 9.0007 367.36 9.3907 367.61 9.8707L367 10.1807H369.24C369.77 9.7007 370.3 9.1607 370.83 8.5507L371.69 9.2707L370.9 10.1007L370.83 10.1807H372.69L373.72 10.6407C373.7 11.2407 373.55 11.9507 373.26 12.7707L372.16 12.5107C372.36 11.8207 372.43 11.4307 372.37 11.3407C372.37 11.2407 372.33 11.1907 372.23 11.1907H365.38V12.6307C365.38 12.7807 365.44 12.9207 365.57 13.0407C365.7 13.1307 365.85 13.1907 366.01 13.2107H368.61C368.71 13.2107 368.83 13.1607 368.95 13.0907L369.02 12.9607L369.15 12.1007L370.25 12.3707C370.11 13.2607 369.99 13.7407 369.91 13.8107C369.62 14.0807 369.35 14.2207 369.1 14.2207H365.64C365.43 14.5907 365.27 14.8307 365.15 14.9507H371.1L371.88 15.4907C371.97 15.5207 371.97 15.5807 371.9 15.6407C371.23 16.4307 370.01 17.1907 368.24 17.9407C369.79 18.3107 371.55 18.4207 373.52 18.2707L373.36 19.3907C370.96 19.5707 368.79 19.2507 366.84 18.4407C365.02 19.0307 362.95 19.3607 360.64 19.4407L360.41 18.3507C362.32 18.3207 364.03 18.1207 365.56 17.7507C364.89 17.3107 364.26 16.8007 363.66 16.2207C362.6 16.7707 361.85 17.1307 361.39 17.3007L361.36 17.3107ZM363.8 12.4307C363.13 13.4107 362.39 14.1707 361.57 14.7007C361.36 14.3107 361.13 14.0307 360.88 13.8407C361.62 13.3607 362.24 12.6907 362.74 11.8407L363.8 12.4307ZM366.48 10.1907C366.22 9.7407 365.98 9.4007 365.77 9.1607L366.53 8.7207L363.36 8.7607C363.67 9.0507 363.98 9.4207 364.29 9.8807L363.78 10.1907H366.5H366.48ZM366.78 17.3607C368.19 16.8007 369.17 16.3607 369.72 16.0407C369.72 15.9807 369.67 15.9607 369.53 15.9707H364.91C365.26 16.3207 365.56 16.5907 365.8 16.7707C366.1 16.9807 366.42 17.1807 366.77 17.3607H366.78ZM367.18 11.3607L368.31 12.3207L367.47 12.9707C367.2 12.6907 366.84 12.3807 366.38 12.0607L367.18 11.3507V11.3607ZM371.25 11.6907C372.03 12.6207 372.62 13.4307 373.01 14.1307L372.02 14.6107C371.53 13.7407 370.95 12.9507 370.29 12.2407L371.25 11.7007V11.6907Z" fill="white"/>
<path d="M376.66 13.9308L375.46 13.5308C376.82 11.5708 377.61 9.49078 377.83 7.30078L379.07 7.43078C378.87 8.68078 378.61 9.78078 378.3 10.7108V19.3108H377.06V13.3408L376.66 13.9308ZM381.59 9.76078C381.05 11.1308 380.46 12.1808 379.83 12.9308L378.66 12.4708C379.93 10.8508 380.71 9.14078 381 7.32078L382.23 7.51078L381.94 8.64078H388.32L389.12 9.10078C389 10.0208 388.73 10.9408 388.33 11.8308L387.1 11.5708C387.38 11.1808 387.56 10.8608 387.66 10.6208C387.86 10.1708 387.92 9.89078 387.85 9.80078L387.71 9.75078H385.05V18.1208C385.05 18.6208 384.82 18.9908 384.39 19.2508C383.89 19.5208 382.95 19.5008 381.56 19.1708L381.59 18.0008L382.59 18.2608C383.12 18.3608 383.49 18.3408 383.68 18.1908C383.76 18.1108 383.81 17.9908 383.81 17.8208V9.75078H381.59V9.76078ZM382.58 12.3308C382.22 13.9208 381.52 15.7508 380.49 17.8208L379.36 17.4508C380.42 15.2508 381.11 13.4408 381.43 12.0208L382.57 12.3308H382.58ZM387.15 12.0908C388.12 14.4308 388.78 16.2708 389.14 17.6308L387.94 17.8708C387.46 16.0608 386.81 14.2408 385.98 12.4008L387.15 12.0808V12.0908Z" fill="white"/>
<path d="M322.55 13.6398C322.55 14.2598 322.04 14.7598 321.42 14.7598C320.8 14.7598 320.29 14.2598 320.29 13.6398C320.29 13.0198 320.8 12.5098 321.42 12.5098C322.04 12.5098 322.55 13.0098 322.55 13.6398Z" fill="white"/>
<path d="M418.53 25.3599C425.157 25.3599 430.53 20.0008 430.53 13.3899C430.53 6.77907 425.157 1.41992 418.53 1.41992C411.903 1.41992 406.53 6.77907 406.53 13.3899C406.53 20.0008 411.903 25.3599 418.53 25.3599Z" fill="white"/>
<path d="M459.94 6.92016C459.94 6.78016 459.83 6.66016 459.69 6.66016H457.3C457.43 6.44016 457.56 6.19016 457.72 5.93016L457.83 5.75016H459.46V4.81016C459.46 4.67016 459.34 4.55016 459.2 4.55016H455.19C455.09 4.25016 454.95 3.92016 454.81 3.66016L453.29 3.93016C453.37 4.11016 453.45 4.33016 453.51 4.54016H449.07V5.74016H450.91C450.94 5.79016 450.97 5.86016 451 5.94016C451.09 6.15016 451.2 6.41016 451.26 6.66016H448.63V7.86016H459.94V6.92016ZM455.7 6.67016H452.83C452.75 6.40016 452.61 6.04016 452.46 5.76016H456.06C455.97 6.03016 455.83 6.37016 455.69 6.67016" fill="white"/>
<path d="M456.02 14.6209H453.29C452.7 14.6209 452.5 14.5809 452.5 14.2409V13.1409C452.5 13.0009 452.38 12.8909 452.24 12.8809H450.98V14.2509C450.98 15.4809 451.49 15.8509 453.13 15.8509H456.59C457.81 15.8509 458.06 15.0309 458.07 13.6709H456.65C456.58 14.5809 456.51 14.6109 456.02 14.6109" fill="white"/>
<path d="M458.83 12.3098V8.59984C458.83 8.45984 458.72 8.34984 458.58 8.33984H449.71V12.3198H453.54L453.11 12.8398C453.85 13.2998 454.62 14.0398 455.1 14.4398L456.19 13.4898C455.86 13.2298 455.06 12.6498 454.44 12.3198H458.84L458.83 12.3098ZM451.17 9.29984H457.29V9.85984H451.17V9.29984ZM451.17 10.7498H457.29V11.3298H451.17V10.7498Z" fill="white"/>
<path d="M448.18 15.2506H449.89C450.2 14.5606 450.53 13.4106 450.72 12.8906H449.32C449 13.6306 448.46 14.8106 448.19 15.2506" fill="white"/>
<path d="M458.83 12.5996L457.86 13.1996C458.37 13.7796 459.32 14.8796 459.62 15.3096L460.72 14.3496C460.43 13.9896 459.16 12.8796 458.84 12.5996" fill="white"/>
<path d="M443.15 6.12914C443.15 5.98914 443.03 5.86914 442.89 5.86914H441.69V13.1391H443.15V6.12914Z" fill="white"/>
<path d="M445.34 4.11937C445.34 3.97937 445.22 3.85938 445.08 3.85938H443.85V14.1194C443.85 14.3394 443.76 14.4094 443.55 14.4094C443.34 14.4094 442.66 14.4094 441.99 14.3994L442.45 15.9494C443.5 15.9494 444.24 15.8994 444.7 15.6394C445.18 15.3894 445.34 14.9794 445.34 14.1394V4.11937Z" fill="white"/>
<path d="M440.63 12.5199H436.04C436.07 12.3899 436.08 12.1399 436.11 12.0099H440.65V8.17992C440.65 8.03992 440.53 7.91992 440.39 7.91992H434.83V9.41992C434.83 10.9499 434.73 13.3799 433.69 15.0299H435.34C435.57 14.5099 435.75 13.8399 435.88 13.2499V15.7799H440.89V12.7799C440.89 12.6399 440.77 12.5299 440.63 12.5199ZM436.26 9.41992V8.93992H439.23V9.49992H436.26V9.41992ZM436.23 10.3599H439.22V10.9399H436.2C436.21 10.7599 436.23 10.5299 436.23 10.3599ZM439.53 14.6299H437.18V13.5299H439.53V14.6299Z" fill="white"/>
<path d="M438.82 4.08988L437.86 3.57988C437.68 3.48988 437.59 3.46988 437.4 3.70988C436.45 4.86988 435.33 6.06988 433.69 7.60988H435.68C435.93 7.37988 436.23 7.10988 436.43 6.85988V7.46988H439.6V6.79988C440.09 7.17988 440.52 7.50988 440.64 7.61988L441.39 6.32988C440.79 5.87988 439.55 5.01988 438.58 4.42988C438.66 4.31988 438.74 4.20988 438.81 4.08988M439.22 6.50988H436.73C437.04 6.18988 437.45 5.71988 437.75 5.39988C437.95 5.52988 438.59 6.01988 439.23 6.50988" fill="white"/>
<path d="M503.39 7.44008H501.32V4.09008C501.32 3.95008 501.21 3.84008 501.08 3.83008H499.83V7.44008H497.53V11.4601C497.53 12.7001 497.32 14.8101 496.73 15.8701H498.26C498.43 15.3501 498.71 14.1601 498.78 13.5901C499.04 13.5001 501.21 12.9701 502.24 12.7001V14.2901C502.24 14.4601 502.17 14.5201 501.98 14.5201C501.78 14.5301 501.16 14.5301 500.56 14.4901L500.99 15.9201C501.94 15.9201 502.57 15.9101 503.02 15.6701C503.5 15.4401 503.63 15.0201 503.63 14.3001V7.69008C503.63 7.55008 503.52 7.44008 503.38 7.43008M502.25 11.4201C500.98 11.7101 499.82 11.9901 498.89 12.1801C498.89 12.0501 498.89 11.1301 498.89 10.2701C498.89 9.44008 498.89 8.76008 498.89 8.76008H502.25V11.4301V11.4201Z" fill="white"/>
<path d="M496.78 13.8602L495.27 14.1002V10.7302H496.8V9.41021H495.27V8.36021H496.33V7.41021C496.57 7.64021 496.76 7.83021 496.83 7.89021L497.5 6.73021C496.99 6.26021 496.34 5.62021 495.41 4.86021C495.45 4.80021 495.6 4.56021 495.68 4.46021L494.83 3.95021C494.63 3.84021 494.54 3.80021 494.33 4.04021C493.59 5.02021 492.58 6.14021 491.23 7.55021H492.6V8.34021H494.01V9.39021H492.19V10.7102H494.01V14.2902C493.39 14.3902 492.68 14.4702 492.19 14.5402V15.9902C493.46 15.7002 495.24 15.3702 496.82 14.9902L496.77 13.8402L496.78 13.8602ZM493.5 7.14021C493.92 6.68021 494.51 6.04021 494.69 5.85021C494.89 5.98021 495.53 6.61021 496.07 7.14021H493.51H493.5Z" fill="white"/>
<path d="M495.51 13.38L496.43 13.66C496.65 13.11 496.9 12.27 497.16 11.54L495.99 11.25C495.87 11.95 495.7 12.75 495.52 13.38" fill="white"/>
<path d="M493.72 13.6203C493.62 13.0103 493.41 12.0503 493.19 11.3203L492.15 11.5903C492.34 12.3203 492.54 13.2803 492.61 13.9303L493.72 13.6203Z" fill="white"/>
<path d="M499.41 6.67063C499.24 6.12063 498.89 5.10062 498.45 4.39062L497.21 4.95062C497.82 5.99062 498.04 6.94062 498.14 7.18062L499.41 6.67063Z" fill="white"/>
<path d="M503.94 4.9307L502.63 4.4707C502.38 5.2507 502.12 6.0407 501.75 6.7107L503.04 7.2007C503.4 6.5107 503.69 5.7907 503.94 4.9307Z" fill="white"/>
<path d="M502.14 10.2798C501.54 9.92984 500.38 9.51984 499.47 9.33984L498.88 10.2598C499.78 10.5198 500.89 10.9598 501.46 11.3198L502.13 10.2798H502.14Z" fill="white"/>
<path d="M488.95 7.94922H482.38V9.41922H485.81V14.1592C485.81 14.3592 485.72 14.4092 485.48 14.4092C485.24 14.4192 484.38 14.4192 483.64 14.3792L484.11 15.9592C485.27 15.9592 486.13 15.9292 486.68 15.6992C487.25 15.4692 487.41 15.0392 487.41 14.1992V9.41922H489.2V8.19922C489.2 8.05922 489.09 7.94922 488.95 7.94922Z" fill="white"/>
<path d="M488.98 4.92992C488.98 4.78992 488.87 4.66992 488.72 4.66992H482.62V6.13992H488.97V4.92992H488.98Z" fill="white"/>
<path d="M481.35 6.58017C481.11 6.48017 481.01 6.45017 480.83 6.69017C479.74 8.19017 478.38 9.73017 477.07 11.0502H479.08V15.9202H480.64V9.44017C481.18 8.74017 482.01 7.67017 482.4 7.00017L481.36 6.57017L481.35 6.58017Z" fill="white"/>
<path d="M479.17 7.5293C479.8 6.8193 480.78 5.5793 481.43 4.6793L480.42 4.2593L480.35 4.2293C480.23 4.1793 480.12 4.1693 479.96 4.3793C479.95 4.3993 479.94 4.4093 479.93 4.4193C479.11 5.4993 477.96 6.7193 477.18 7.5393H479.19L479.17 7.5293Z" fill="white"/>
<path d="M472.18 10.7995C472.75 10.4095 473.46 9.89945 473.98 9.48945L473.01 8.63945C472.82 8.47945 472.71 8.54945 472.59 8.63945C471.96 9.22945 471.04 9.91945 470.23 10.4595C469.97 9.89945 469.59 9.34945 469.08 8.87945C469.37 8.69945 469.63 8.41945 469.86 8.20945H472.7V7.19945C472.7 7.05945 472.59 6.93945 472.45 6.93945H465.46V8.20945H467.76C466.52 8.82945 464.98 9.40945 463.5 9.70945L464.3 10.9195C465.53 10.5895 466.8 10.1495 467.93 9.54945C468.04 9.65945 468.2 9.86945 468.28 10.0295C467.14 10.7895 465.01 11.5595 463.41 11.8995L464.18 13.0995C465.67 12.6395 467.56 11.8095 468.87 10.9795C468.95 11.1495 469.04 11.3595 469.1 11.5095C467.62 12.6595 465.28 13.6795 463.22 14.1195L464.03 15.4095C465.77 14.8895 467.86 13.8895 469.35 12.8795C469.35 13.5095 469.16 14.0095 468.96 14.2395C468.75 14.4895 468.54 14.5395 468.23 14.5395C467.92 14.5395 467.51 14.5295 467.05 14.4695L467.47 15.9395C467.85 15.9495 468.24 15.9695 468.53 15.9495C469.21 15.9395 469.63 15.8095 470.11 15.3695C470.75 14.7895 471.07 13.2895 470.7 11.7295C470.85 11.6295 470.96 11.5395 471.09 11.4495C471.74 13.0295 472.7 14.3495 473.96 15.1595L475.24 14.0395C473.92 13.3195 472.9 12.2195 472.17 10.7695" fill="white"/>
<path d="M464.87 6.18945H473.23V7.79945H474.71V5.18945C474.71 5.04945 474.59 4.93945 474.45 4.92945H470.05C469.92 4.54945 469.7 4.04945 469.49 3.68945L467.84 4.15945C467.94 4.35945 468.06 4.67945 468.15 4.92945H463.42V7.79945H464.86V6.18945H464.87Z" fill="white"/>
<path d="M415.23 8.33992C418.65 5.09992 422.89 2.91992 425.26 3.47992C423.34 2.17992 421.02 1.41992 418.52 1.41992C411.89 1.41992 406.52 6.77992 406.52 13.3899C406.52 16.2199 407.5 18.8099 409.14 20.8599C408.18 17.6999 411.41 11.9499 415.22 8.33992" fill="#802320"/>
<path d="M426.84 4.75C427.48 6.2 426.71 8.55 424.06 11.39C420.88 14.79 418.53 16.32 417 15.38C415.47 14.44 419.24 9.51 420.41 8.81C421.59 8.11 421.11 10.22 421.11 10.22C421.11 10.22 426.29 7.05 424.76 5.29C423.77 4.16 418.76 7.75 416.05 11.28C413.34 14.8 411.86 18.39 413.46 20.08C415.46 22.19 420.05 19.37 423.93 16.44C425.34 15.39 425.34 16.09 424.87 16.79C424.87 16.79 417.78 25.74 411.45 23.06C413.43 24.5 415.88 25.36 418.52 25.36C425.15 25.36 430.52 20 430.52 13.39C430.52 10 429.1 6.93 426.83 4.75" fill="#802320"/>
<path d="M453.87 19.1194H450.58V19.6894H451.97V22.9994H452.91V19.6894H454.22V19.4694C454.22 19.2494 454.17 19.1094 453.88 19.1094" fill="white"/>
<path d="M458.59 19.9991C458.5 19.8491 458.39 19.7191 458.26 19.5991C458.13 19.4791 457.99 19.3791 457.83 19.2991C457.67 19.2191 457.5 19.1491 457.32 19.1091C457.13 19.0691 456.94 19.0391 456.74 19.0391C456.54 19.0391 456.34 19.0591 456.16 19.1091C455.98 19.1491 455.8 19.2191 455.65 19.2991C455.49 19.3791 455.35 19.4791 455.22 19.5991C455.09 19.7191 454.98 19.8491 454.89 19.9991C454.8 20.1491 454.73 20.3091 454.68 20.4791C454.63 20.6591 454.6 20.8391 454.6 21.0391C454.6 21.2391 454.63 21.4291 454.68 21.6091C454.73 21.7891 454.8 21.9491 454.89 22.1091C454.98 22.2591 455.09 22.3991 455.22 22.5191C455.35 22.6391 455.49 22.7491 455.65 22.8291C455.81 22.9191 455.98 22.9791 456.16 23.0291C456.34 23.0791 456.54 23.0991 456.74 23.0991C456.94 23.0991 457.14 23.0791 457.32 23.0291C457.5 22.9891 457.68 22.9191 457.83 22.8391C457.99 22.7591 458.13 22.6491 458.26 22.5291C458.39 22.4091 458.5 22.2691 458.59 22.1191C458.68 21.9691 458.75 21.7991 458.8 21.6191C458.85 21.4391 458.88 21.2391 458.88 21.0391C458.88 20.8491 458.85 20.6591 458.8 20.4891C458.75 20.3191 458.68 20.1591 458.59 20.0091M457.84 21.7091C457.79 21.9091 457.72 22.0891 457.62 22.2391C457.52 22.3891 457.4 22.4991 457.25 22.5891C457.11 22.6691 456.94 22.7191 456.75 22.7191C456.56 22.7191 456.39 22.6791 456.24 22.5891C456.09 22.5091 455.97 22.3891 455.87 22.2391C455.77 22.0891 455.7 21.9191 455.65 21.7091C455.6 21.5091 455.57 21.2791 455.57 21.0391C455.57 20.7991 455.6 20.5891 455.65 20.3891C455.7 20.1891 455.77 20.0191 455.87 19.8791C455.97 19.7391 456.09 19.6291 456.24 19.5491C456.39 19.4691 456.55 19.4291 456.75 19.4291C456.95 19.4291 457.11 19.4691 457.25 19.5491C457.39 19.6291 457.52 19.7391 457.62 19.8791C457.72 20.0191 457.79 20.1891 457.84 20.3891C457.89 20.5891 457.92 20.8091 457.92 21.0391C457.92 21.2691 457.89 21.4991 457.84 21.7091Z" fill="white"/>
<path d="M462.06 20.9909C462.17 20.9309 462.26 20.8509 462.34 20.7709C462.42 20.6909 462.48 20.6009 462.52 20.5009C462.56 20.4009 462.58 20.3009 462.58 20.1909C462.58 20.0409 462.55 19.9009 462.49 19.7709C462.43 19.6409 462.33 19.5309 462.21 19.4309C462.08 19.3409 461.93 19.2609 461.74 19.2109C461.55 19.1609 461.33 19.1309 461.08 19.1309H460.17C459.91 19.1309 459.69 19.3409 459.69 19.6109V23.0109H460.57V21.2509H460.74L462.05 23.0109H463.09L461.71 21.1509C461.84 21.1109 461.96 21.0509 462.07 20.9909M461.53 20.5009C461.49 20.5909 461.43 20.6609 461.36 20.7209C461.29 20.7809 461.2 20.8309 461.1 20.8609C461 20.8909 460.89 20.9109 460.78 20.9109H460.57V19.5009H460.96C461.05 19.5009 461.14 19.5209 461.22 19.5509C461.3 19.5809 461.36 19.6309 461.42 19.7009C461.48 19.7609 461.52 19.8409 461.55 19.9209C461.58 20.0109 461.6 20.1009 461.6 20.2009C461.6 20.3109 461.58 20.4109 461.54 20.5009" fill="white"/>
<path d="M443.06 19.5991V22.9991H445.89V22.3591H443.94V21.2991H445.56V20.7291H443.94V19.6891H446.02V19.1191H443.54C443.28 19.1191 443.06 19.3291 443.06 19.5991Z" fill="white"/>
<path d="M441.32 20.9909C441.43 20.9309 441.52 20.8509 441.6 20.7709C441.68 20.6909 441.74 20.6009 441.78 20.5009C441.82 20.4009 441.84 20.3009 441.84 20.1909C441.84 20.0409 441.81 19.9009 441.75 19.7709C441.69 19.6409 441.59 19.5309 441.47 19.4309C441.34 19.3409 441.19 19.2609 441 19.2109C440.81 19.1609 440.59 19.1309 440.34 19.1309H439.43C439.17 19.1309 438.95 19.3409 438.95 19.6109V23.0109H439.83V21.3309H440.06L441.31 23.0109H442.35L440.97 21.1509C441.1 21.1109 441.22 21.0509 441.33 20.9909M440.79 20.5009C440.75 20.5909 440.69 20.6609 440.62 20.7209C440.55 20.7809 440.46 20.8309 440.36 20.8609C440.26 20.8909 440.15 20.9109 440.04 20.9109H439.83V19.5009H440.22C440.31 19.5009 440.4 19.5209 440.48 19.5509C440.56 19.5809 440.62 19.6309 440.68 19.7009C440.74 19.7609 440.78 19.8409 440.81 19.9209C440.84 20.0109 440.86 20.1009 440.86 20.2009C440.86 20.3109 440.84 20.4109 440.8 20.5009" fill="white"/>
<path d="M491.84 19.1191H488.54V19.6891H489.93V22.9991H490.87V19.6891H492.18V19.3891C492.18 19.2191 492.1 19.1191 491.85 19.1191" fill="white"/>
<path d="M493.67 19.1191H493.05V22.9991H494V19.4191C494 19.2291 493.93 19.1191 493.66 19.1191" fill="white"/>
<path d="M485.72 21.3109H487.34V20.7409H485.72V19.7009H487.75V19.1309H485.32C485.06 19.1309 484.84 19.3409 484.84 19.6109V23.0109H487.82V22.3709H485.71V21.3109H485.72Z" fill="white"/>
<path d="M478.74 20.9909C478.85 20.9309 478.94 20.8509 479.02 20.7709C479.1 20.6909 479.16 20.6009 479.2 20.5009C479.24 20.4009 479.26 20.3009 479.26 20.1909C479.26 20.0409 479.23 19.9009 479.17 19.7709C479.11 19.6409 479.01 19.5309 478.89 19.4309C478.76 19.3409 478.61 19.2609 478.42 19.2109C478.23 19.1609 478.01 19.1309 477.76 19.1309H476.85C476.59 19.1309 476.37 19.3409 476.37 19.6109V23.0109H477.25V21.3309H477.48L478.73 23.0109H479.77L478.39 21.1509C478.52 21.1109 478.64 21.0509 478.75 20.9909M478.21 20.5009C478.17 20.5909 478.11 20.6609 478.04 20.7209C477.97 20.7809 477.88 20.8309 477.78 20.8609C477.68 20.8909 477.57 20.9109 477.46 20.9109H477.25V19.5009H477.64C477.73 19.5009 477.82 19.5209 477.89 19.5509C477.97 19.5809 478.03 19.6309 478.09 19.7009C478.15 19.7609 478.19 19.8409 478.22 19.9209C478.25 20.0109 478.27 20.1009 478.27 20.2009C478.27 20.3109 478.25 20.4109 478.21 20.5009Z" fill="white"/>
<path d="M473.75 19.0195H473.47C473.4 19.0195 473.36 19.0795 473.33 19.1395C472.9 20.1195 471.5 22.9995 471.5 22.9995H472.32L472.82 21.9395H474.25L474.74 22.9995H475.64C475.64 22.9995 474.33 20.0895 473.89 19.1395C473.86 19.0695 473.84 19.0195 473.75 19.0195ZM473.06 21.4595L473.58 20.3595L474.05 21.4595H473.06Z" fill="white"/>
<path d="M448.76 19.0195H448.48C448.41 19.0195 448.37 19.0795 448.34 19.1395C447.91 20.1195 446.51 22.9995 446.51 22.9995H447.33L447.83 21.9395H449.26L449.75 22.9995H450.65C450.65 22.9995 449.34 20.0895 448.9 19.1395C448.87 19.0695 448.85 19.0195 448.76 19.0195ZM448.06 21.4595L448.58 20.3595L449.05 21.4595H448.06Z" fill="white"/>
<path d="M436.27 19.7205C436.81 19.7205 437.19 20.0705 437.36 20.2705C437.42 20.3505 437.51 20.3905 437.61 20.3205L437.95 20.0805C437.74 19.6805 437.22 18.9805 436.06 18.9805C434.9 18.9805 433.96 19.9005 433.96 21.0305C433.96 22.1605 434.9 23.0805 436.06 23.0805C436.82 23.0805 437.49 22.7305 437.86 22.1505C437.89 22.1105 437.91 22.0605 437.94 22.0205L437.61 21.7605C437.51 21.6805 437.42 21.7205 437.35 21.7905C436.47 22.6805 435.35 22.3005 435.07 21.4405C434.77 20.5305 435.52 19.6905 436.28 19.6905" fill="white"/>
<path d="M503.52 21.1293H502.17V21.4693H502.81V22.1693C502.06 22.7193 500.79 22.4393 500.79 21.0693C500.79 19.9493 501.59 19.6493 502.02 19.6493C502.57 19.6493 502.97 20.0293 503.16 20.2593C503.16 20.2593 503.16 20.2693 503.17 20.2693C503.25 20.3693 503.34 20.3593 503.42 20.2793L503.73 19.9793C503.65 19.8593 503.55 19.7393 503.43 19.6293C503.31 19.5193 503.18 19.4093 503.03 19.3193C502.88 19.2293 502.72 19.1593 502.54 19.1093C502.36 19.0593 502.18 19.0293 501.99 19.0293C501.77 19.0293 501.57 19.0493 501.38 19.0993C501.19 19.1493 501.01 19.2093 500.84 19.2993C500.68 19.3893 500.53 19.4893 500.4 19.6093C500.27 19.7293 500.16 19.8693 500.06 20.0293C499.97 20.1893 499.9 20.3593 499.85 20.5393C499.8 20.7293 499.77 20.9193 499.77 21.1293C499.77 21.4293 499.83 21.6993 499.94 21.9393C500.05 22.1793 500.2 22.3893 500.4 22.5593C500.6 22.7293 500.83 22.8693 501.1 22.9593C501.29 23.0293 501.5 23.0693 501.72 23.0893C502.29 23.1193 503.15 23.0693 503.73 22.4393V21.3793C503.73 21.1893 503.64 21.1393 503.52 21.1393" fill="white"/>
<path d="M469.92 19.3291L468.7 21.7691L467.45 19.2991C467.39 19.1991 467.33 19.1191 467.15 19.1191H466.43V22.9991H467.03V20.4391L468.34 22.9991H468.71L469.98 20.4691V22.9991H470.89V19.1191H470.23C470.03 19.1191 469.98 19.2091 469.92 19.3291Z" fill="white"/>
<path d="M498.77 19.1191H498.21V21.7391L496.32 19.2391C496.26 19.1691 496.2 19.1191 496.07 19.1191H495.3V22.9991H496.22V20.3391L498.3 23.0591H499.07V19.3791C499.07 19.2191 498.99 19.1191 498.76 19.1191" fill="white"/>
<path d="M482.05 20.8091L483.8 19.1191H482.96L481.43 20.5291V19.3891C481.43 19.2291 481.35 19.1191 481.14 19.1191H480.52V22.9991H481.43V21.3891L483.12 22.9991H484.28L482.06 20.8091H482.05Z" fill="white"/>
</svg>
