<svg width="295" height="55" viewBox="0 0 295 55" fill="#fff" xmlns="http://www.w3.org/2000/svg">
<path d="M6.6,24.7c-0.8,0.5-1.3,1.4-1-0.3c0.3-1-0.9-2.3-1.8-1.6c-0.3,0.1-0.3-0.5-0.5-0.7c0,0-0.1,0-0.1,0
	c0.6,3-1.2,6.2-0.3,9.3c0.1,0.5,0.6-0.1,0.8-0.1c0.5-0.1,1.2,0.1,1.5-0.2c0.2-0.3,0.4-0.2,0.6,0c1.4,0.8,4.6-0.6,2.7-2.2
	C9.7,27.2,8.6,25.1,6.6,24.7z M10.6,33.6c-6.3,5.6-3.4,6.7-7.6,1c0.3,1.9,0.5,3.7,0,5.6c-1,2.2-1.4,2.5,0.5,4.2
	c0.6-0.2,0.9,0.8,1.5,0.7c0.6-0.2,1.3,0.3,1.9,0.1C7.1,44.8,7.7,45,8,44.7c0.4-0.6,1.4,0.1,1.5-0.8c0.9-1.3-0.9-1.8-0.4-2.8
	c0.6-1,0.5-2.1,0.9-3.1c-0.1-0.2-0.1-0.3-0.2-0.5c-0.5,0.5-0.9,0.9-1.3,1.4c0,0,0,0-0.1,0C8.6,38.4,8.8,38,9,37.6
	c0,0-0.1-0.1-0.1-0.1C8.5,38,8,38.5,7.5,39c0.1,0.2,0.1,0.4,0.2,0.6c-0.2,0.4-0.5,0.5-0.9,0.1c0.1-2.3,4.7-3.9,4.6-6.6
	C11.2,33.3,10.9,33.4,10.6,33.6 M3.9,18.3c-0.8-0.6-1.5-1.2-2-2c-0.4-0.3-0.1-0.5,0-0.9c1.4-2.1,1.1-0.6,2.5,0.1
	c0.6,0.3-0.2,1.2,0.3,1.7c-0.2,0.5,0,1.1,0.3,1.6c0.5,0.5,1.4,0.7,2,0.3c0.6-0.8,0-1.9,1-2.6C8.2,16,8.4,15,8,14.5
	c-0.6-0.4-0.5-1.2-0.7-1.8c-0.7-1.8-1.6-0.9-2.9-1.2c-1.9-0.2-3.1,1.7-4,3.1C0,15.7,1,16.7,1.2,17.8C1.8,18.3,3,18.5,3.9,18.3
	 M27.7,48C27.7,48,27.7,47.9,27.7,48c0.1-0.1,0.2-0.1,0.3-0.1c-1.4-1.9-0.9-4.1-0.6-6.3c0.1-3.8-0.5-7.7-0.3-11.5
	c0.2,0,0.4,0.1,0.5,0.1c0.6-0.8-0.5-1.6-0.3-2.5c0.1-1.1-1.7-1.4-1.8-2.4c-1.7-1.6-4.5,0.7-5.7,2.1c-0.7,0.7-2.1,0.7-2.3,1.8
	c0.2,3.5,0.1,7.1-0.3,10.7c0,3.2-0.8,6.5,1,9.5c0.3,0.9,1.2,1.1,1.8,1.6c0.3,0.4,0.7,0.7,1.3,0.6c2.9,1,1.5-1.7,0.9-3
	c0-0.4-0.4-0.7-0.2-1.1c0.3-0.5-0.1-0.7-0.2-1.1c0-0.2-0.2-0.6-0.4-0.6c-1.1-0.6-1.2-2.3-1.4-3.3c-0.7-1.6,0.6-3.2,0.4-4.8
	c0-0.1,0.3-0.4,0.3-0.6c0.2-1.4,1-4,1.5-1.1c0.2-0.7,0.3-1.4,0-2.1c2.5,0.5-0.1,3.4,0.8,4.9c-0.7,0.3-0.5-0.6-0.5-1
	c0-0.1-0.1-0.2-0.2-0.2c-0.5-0.1-0.3-0.6-0.3-0.9c0,0-0.1,0-0.1,0c-0.1,0.7-0.5,1.6,0.1,2.1c0.1,0.1,0.3,0.3,0.2,0.5
	c-0.5,1.4,0.6,2.3,1,3.5c0,1,1.9,1.1,1.5,2.2c-0.1,2.1-0.4,2.2-2.4,1.4c0.4,0.5,0.5,0.8,0.4,1.4c0,0,0.1,0,0.1,0
	c0.1-0.3,0.5-0.4,0.3-0.8c0.2,0,0.3,0.1,0.5,0.1c-0.1,0.1-0.2,0.2-0.3,0.3c0.5,0.6,1.4,1.1,1.5,1.8c0.1,0.8,0.7,0.9,1.2,1.3
	C27.4,52.2,29.8,49,27.7,48 M23.5,33.6c-0.4-0.3-0.5-0.8-0.7-1.2c0,0,0,0,0-0.1c0.2,0.1,0.6,0.3,0.8,0.4
	C23.7,33,23.9,33.6,23.5,33.6 M24.1,38.7c-0.5-0.1-0.6-0.2-0.4-0.9C24,37.7,24.3,38.2,24.1,38.7z M24.4,31.5
	c-0.6,1.4-0.7-0.3-1.4-0.4c-0.7-0.4-1.3-0.3-2-0.1c0.1-0.4,0.1-0.7,0.1-1.1c0.8-0.3,1.4-1.2,2.1-1.6C24.4,28.9,24.9,30.2,24.4,31.5
	 M97.2,24.7c0-0.5-0.7-0.4-0.6,0.1C96.8,25.1,97.2,25.1,97.2,24.7 M114.6,30.6c-0.7-0.7-1.7-2-2.7-1.6c-0.5,0.3-1,0.2-1.5,0.2
	c-0.7,0.3,0.9,0.7-1,1.4c-1-2.2,0.7-2.6,1.5-4.1c0.6-0.2,1-1,0.7-1.6c0,0-0.1,0-0.1,0c-0.2,0.3-0.3,0.6-0.5,0.9
	c-1.5-0.6,1.2-1.1,0.4-1.9c-0.5-0.3-1,0-1.5,0c-0.5,0-0.1-0.7-0.2-1c0-0.5,0.2-0.2,0.5-0.3c-0.3-0.8,1.1-1.7-0.2-2.2
	c-0.2-0.1-0.2-0.2-0.2-0.4c0.2-0.6-0.6-1.2-1-1.6c-0.4,0-0.7,0.7-0.8,0.9c-0.5,0.2-0.5,0.6-0.6,1c0.1,1.2,0.6,2.4,0.3,3.7
	c-2.7,1.7-4.9,4.2-7.3,6.3c-0.1-0.9,0.1-2-0.4-2.8c-0.2-0.2-0.4-0.5,0-0.8c0.3-1.3,1.4-2.2,2.1-3.3c0.1-0.3,0.7,0.1,0.6-0.4
	c-0.1-1.1,0.5-2.3,1.4-2.9c1.3-0.9,3.1-1,4.2-2.3c1.5-1.7,0.3-4.1-1.8-2.2c-0.1-0.1-0.1-0.2-0.2-0.2c-0.3,0.8-1,0.7-0.7-0.1
	c-0.8,0.4-0.3,1.2-1,1.7c-0.5,0.6,0.2,1.6-0.5,2.2c-0.6,0.5-1,1.4-1.7,1.6c-0.7-1.1,0-2.3,1.1-2.8c-0.1-0.1-0.2-0.2-0.2-0.2
	c0.1-0.6,0.1-0.7-0.5-0.7c-0.6-1.7,0.5-3.7,2.2-4.2c0.8-0.4,5-0.7,2.3-1.6c0.2-0.2,0.4-0.3,0.7-0.4c-0.3-0.4,0.6-0.7,0.2-0.9
	c-1-0.2-2.1-0.1-3.1-0.2c0.3,0.6,0,0.7-0.5,0.8c-0.6,0.4-0.9,0.1-0.7-0.6c0.1-0.4,0.9-0.6,1.3-0.9c0.3,0.1,0.2-0.1,0.3-0.2
	c0.1-0.5,0.9-0.6,1.1-1.1c-0.2-0.4,0.3-0.5,0.3-0.8c-0.1-0.4,0.4-0.5,0.3-0.8c0-0.2-0.6-0.6-0.1-0.7c0.1,0,0.2-0.2,0.2-0.2
	c-0.3-1.5-1.7-0.7-2.5-0.7c-0.2-0.5-0.8-0.7-1.1-1.2c0.4-0.2,0.8,0.3,1.3,0.3c0.3-2-0.9-0.9-1.6-1.8c-0.2-0.8-0.4-1.3-1.2-0.6
	c0.3,0.3,0.6,0.6,1,0.8c-0.7,0.5-1.2,0.8-1.7,1.5c-0.3,0.2-0.7,0.2-0.8,0.6c-0.3-0.3-0.3-0.5-0.1-0.9c-0.1-0.1-0.2-0.1-0.3-0.2
	c-0.2,0.6,0.1,1.1,0.2,1.7c0.1-0.1,0.1-0.3,0.1-0.4c0.9-0.1,0.7,0.9,0.9,1.4c0.6,1.2-3.4,3.2-4.1,2.6c0-0.5-1.1-1.2,0-1.1
	c-0.3-0.5-1.2-0.8-1.7-0.7c-0.6,0.2-0.3,0.9-0.7,1.1c-1.8,0.3-0.9,2.6,0.1,3.3c0.7,0.2,1.4,0.1,2,0.7c0.5,0.5,0.8-0.4,1.3-0.3
	c0.3,0.1,0.5,0,0.5-0.3c0.1-0.7-0.4-1.6,0.4-2c0.5-0.4,1.8-1.3,2.2-0.4c-0.6,2.2-2.3,4.2-4.3,5.5c0,0,0-0.1,0-0.1
	c-0.5-0.2-0.8,0-0.9,0.4c-0.5,1.1-2,1-2.8,1.9c-1.2,0.7,0.8,2.2,1.7,2c1.3,0.3,2-1.3,3.2-1.7c0,0,0,0,0,0c-0.2,0.1-0.4,0.2-0.6,0.3
	v-0.4c-0.2,0.2-0.5,0.6-0.8,0.3c-0.6,0.1-1.7,1.2-2,0.2c0.5,0.1,0.7-0.5,1.2-0.6c0.2,0,0.3-0.1,0.3-0.4c0-0.4,0.4-0.2,0.7-0.3
	c0.2-0.1,0.4-0.2,0.7-0.1c-0.1,0.2-0.2,0.4-0.4,0.5c0,0,0.1,0.1,0.1,0.1c0.8-1.2,2.1-1.9,3.3-2.5c0.2,0.6-0.5,1-0.8,1.3
	c0.1,0.4-0.2,0.3-0.3,0.3c0-0.1,0.1-0.2,0.2-0.3c-0.5,0.2-1,0.4-1.5,0.6c0,0,0,0.1,0,0.1c0.4,0,0.7-0.1,1.2-0.2
	c-0.2,0.2-0.3,0.3-0.4,0.4c0,0,0,0,0.1,0.1c0.4-0.2,0.8-0.6,1.2-0.7c-0.1,0.9-0.2,2.4-0.8,3c-0.1-0.4-0.7-0.2-0.8-0.6
	c-0.4-0.1-0.8,0.1-1.2,0.2c-0.2,0.1-0.3,0.3-0.2,0.5c0.2,0.6-0.4,1-0.8,1.3c-0.5,0.4-0.1,1,0,1.5c0,0.7,0.3,1.2,1,1.5
	c0.7,0.4,1.7-1.1,2.5-1.6c0.6,1,0.4,1.6-0.6,2.1c-1.1,1.2-2.2,2.1-3.3,3.3c-1.3,1.6-2,5.1-4.6,3.9c-0.8,0-1.5-0.5-2.3-0.2
	c-0.1,0-0.3-0.1-0.3-0.1c0.4-1.6,0.1-2.5-0.4-3.9c-0.2-0.8,1.2-0.9,1.7-1.4c0.3-0.2,0.2-0.3,0-0.6c-0.3-1.4,1.4-2.4,2.4-3.2
	c0.6-0.4-0.7-0.8-0.9-1.1c-0.7-1.2-2-2.4-3.5-1.7c-0.7,0.2-0.1-0.9-0.1-1.3c0-1.3,1.3-1.6,2.1-2.2c1.3-1.4-1-3.1-2.4-2.8
	c-1.1,0-0.6-2-0.9-2.8h0c0,0.1-0.1,0.2-0.1,0.4c-0.4-0.2-0.4-0.8-0.1-1.2C87,8.6,87,8.8,87.1,9c0.2-0.6-0.3-0.8-0.5-1.3
	C86,6,83.4,7.6,83.1,8.9c-1.2,1.8-1.6,6.4,1.7,4.4c1.7-0.2-3,3.5-2.5,1.2c-0.3,1.1-2,1.2-1.9,2.2c0.1,0.5,0.5,1.3,1.1,1.3
	c0.2-0.2,0.3-0.1,0.5-0.1c0.5-0.1,0.9-0.4,1.3-0.7c0.4-0.1,0.7-1.4,0.9-0.6c0.7-0.2,0.9,0.2,0.8,0.8c0.8-1.4,0.6,1.3,0.5,1.7
	c-0.4,0.4-1.1,1-1.6,0.4c-0.6-0.5-1.7-0.3-1.6-1.3c-2.1,0.6-2.6,2.4-3.5,4.1c-1.2,1.9-2.9,3.8-3.2,5.9c0.5,4.5-3.3,8.6-2.8,13.2
	c0.7,1.4,1.9,0.6,2.1-0.6c-0.2-4,1.9-7.7,2.7-11.5c0.4-1.2,4.2-6.2,4.7-3.3c-0.6,1.2-2.4,1.6-3.2,2.9c-0.3,0.3,0.5,0.8,0.7,0.7
	c0.2-0.1,0.3,0,0.5,0.2c0.6,0.8,1,0.8,1.7,0.4c1-1.4,2.9-2.2,4.4-3.2c1.1,0.6-0.4,3.4,0.2,4.7c0,0.1,0,0.3-0.2,0.3
	c-0.9-0.1-0.2-0.8-0.2-1.3c0,0-0.1,0-0.1,0c-0.6,2-1.3-0.6-3.1,0.8c-1.4-0.7-2.2-1.6-3.9-0.4c-0.5,2.5,0.4,5.3,2.7,6.8
	c0.3,0.3,0.4-0.1,0.6-0.2c0.5,0,1.4,0.4,1.7-0.2c-0.1-0.4,0.2-1,0.5-1.1c0.3,0.1,0.4-0.1,0.4-0.3c0.3-0.9-0.1-1.8,1.1-1.9
	c0.9,0.2,0.9,1.8,1.8,2.2c0,0,0.1,0,0.1-0.1c-0.1-0.3-0.2-0.6-0.3-0.9c0.7,0.2,1.2,0.9,1.9,1c-0.6-1.1-0.2-1.2,0.8-1.7
	C91,35,91,35,91.2,34.6c0.3-0.8,0.9-1.2,1.4-1.8c0.9,0.6-0.5,2,0.4,2.3c1.1,0.1,2.2-0.2,2.5-1.4c0.9-1.1,1.6-2.7,2.8-3.5
	c-0.7,3.1-2.9,6.4-6.1,7.2c-0.4,0.3-0.4,1.4-0.2,1.7c0.5,0,0.5,1.5,1.1,0.7c0.2-1.1,1.3,0,1.8-1c0.4-0.6,0.8,0.7,1.1,0.9
	c0,0,0.1,0,0.1,0c0.1-0.2,0.2-0.5,0.3-0.7c0.3,0.4,0.7,0.4,0.7-0.1c-0.1-0.5,0.2-1,0.1-1.5c-0.6,0.3-0.3,1-0.7,1.4
	c-0.2-3,3.1-4.6,4.5-7c-0.1,0.1-0.3,0.1-0.5,0.2c0.2-0.5,0.7-0.7,0.9-1c0.1,0.2-0.3,0.6-0.4,0.8c1.2-0.5,1.8-2,2.9-2.6
	c-0.3,1.5-1.5,2.9-1.4,4.6c0.1,0.3,0,0.7-0.3,0.9c-0.4,0.1-1.3-0.2-1.4,0.4c1.2,4.4,6.2,0.2,6.7,1.4c-0.2,3.5-0.8,8-1,12.5
	c0.2,1.4-1.5,7.6,0.9,4.3v1c0,0,0.1,0,0.1,0c0.1-0.4,0.1-0.9,0.2-1.4c-0.2-0.2-0.2-0.7-0.6-0.4c-0.1-0.3,0-0.7,0.3-0.9
	c0,0.2,0,0.4-0.1,0.6c0.9-1.2,0.5-3.2,0.8-4.7c0.1-0.6-0.4-0.2-0.7-0.5c0-0.2,0.1-0.2,0.3-0.1c1,0.1,0.6-1.5,0.7-2.1l0,0
	c0.1-0.3,0-0.5,0.1-0.9c0,0.2-0.1,0.4-0.1,0.7c0-0.5,0-0.9,0-0.9c0.1,0.1,0.1,0.2,0.1,0.3c0.4-2.3,0.4-4.6,0.7-6.9
	c0-0.5,0,1.3,0.2,0.8c0.1-1.6-0.1-3.2,1.6-3.9c0.4-0.5,1.2-0.3,1.6-0.8C112.7,31.8,115.1,31.8,114.6,30.6 M109.6,25.6
	c0,0,0.2,0.1,0.3,0.2c-0.1,0.1-0.2,0.2-0.4,0.4C109.2,25.9,109.3,25.8,109.6,25.6z M103.9,8.7c0.2-0.3,0.4-0.8,0.7-1.1
	c0.2,0.5-0.4,0.9-0.7,1.3c0,0-0.1,0-0.1,0C103.9,8.9,103.9,8.8,103.9,8.7 M106.6,11.5c0.2,0.1,0.2,0.4,0,0.4c-0.5,0.2-0.6-0.3-1-0.6
	C106,11.4,106.3,11.4,106.6,11.5 M103.5,13c0.4-1.1,1.7-2,2.6-0.8c-0.8,0.4-1.7,1-2.6,1.2C103.4,13.2,103.4,13.1,103.5,13
	 M101.5,10.6c0-0.2-0.1-0.4-0.1-0.7C101.6,10,101.7,10.3,101.5,10.6z M100.4,12.6c-0.2,0.2-0.4,0.4-0.6,0.5c0.1-0.4,1.4-1.6,1.6-1.4
	C101.4,12.4,100.7,12.2,100.4,12.6z M85.6,24.1c-0.2,0.4-0.2,0.8-0.7,0.6c-0.8-0.2,0.9-2.3,1-0.9C85.7,23.9,85.6,24,85.6,24.1
	 M82.9,35.7c-0.7,0.7-1.5-1.1-1.4-1.8C82.5,31,84,33.9,82.9,35.7z M87.9,23.1c-0.8-0.9,0.7-1.9,1.6-1.9C89.3,22,88.8,22.8,87.9,23.1
	 M88.5,29.6v0.9c0,0-0.1,0-0.1,0c-0.2-1,0.2-2,0.3-2.9c0-0.1,0.2-0.2,0.2,0C89,28.1,89.2,29.7,88.5,29.6 M90.3,33.1
	c-0.4,0.5-0.7,1-1.1,1.5c0,0-0.1,0-0.1-0.1c-0.4-0.9,0-1.7-0.1-2.7C89.4,32.1,90.5,32.4,90.3,33.1 M107.5,31.8
	c-0.1,0.4-0.5,0.4-0.8,0.6c0,0-0.1,0-0.1,0c-0.1-0.6,0.5-1.3,0.9-1.7C107.6,31.1,107.5,31.4,107.5,31.8 M108.8,22.9
	c0,0.1-0.2,0.1-0.3,0.2c0,0-0.1,0-0.1-0.1c0,0.2-0.1,0.5-0.1,0.7c0,0-0.1,0-0.1,0c-0.2-0.5,0.1-1.1-0.2-1.6
	C108.1,20.8,109.2,22.1,108.8,22.9 M98.4,12.8c-0.3,0.1-0.4,0.3-0.5,0.5c0,0,0,0,0.1,0.1C98.1,13.1,98.3,13,98.4,12.8
	C98.4,12.8,98.4,12.8,98.4,12.8z M99.2,12.1c-0.2,0.2-0.4,0.4-0.7,0.6C98.8,12.7,99.1,12.4,99.2,12.1z M64.3,21.7
	c-0.2-0.1-0.3-0.1-0.4-0.1c1.1-0.8,1.2,1.5,1.9-0.5c0.1-0.3,0.2-0.1,0.4-0.1c-0.5-0.6-1.4-0.2-1.6-1.1c-2.5,1.1-5.7,1-8.4,1.9
	c1.1-3.6,3.8-7.2,3.7-11.2c-0.3-3.1-4.4-4.3-6.9-3.3c-2.1,1.2-5.6,1.5-6.9,3.3c-0.1,0.9-1.3-0.1-1.6,0.6c-3.3,1.7-3.9,4.1-2.2,7.4
	c0.1,0.5,0.5,0.3,0.7,0.5c0.3,0.4,0.4,1.1,1,1.1c1.7,0.5,2.5,2.5,3.8,3.3c0.4,0,0.5-0.2,0.7-0.6c1-1.3,1.7-1.6,2,0.4
	c-0.2-0.2-0.3-0.3-0.5-0.4c0,0.3,0.1,0.4-0.1,0.7c0,0-0.1,0-0.1,0c0-0.1,0-0.3,0-0.4c0,0-0.1,0-0.1,0c-1.3,1.7-4.5,1.5-6.5,2.5
	C43,25.7,42.8,25.7,43,26c-0.1,0.2-0.3,0.4-0.5,0.6c-0.2,0.1-0.5,0-0.4-0.3c0.3-0.3,0-0.5-0.1-0.7c-0.1,0.3-0.2,0.7-0.3,1
	c-0.5-0.4-1,0.1-1.5,0.1c-0.3,0-0.8-0.2-1.1,0.1c-0.6,0.7-0.7,1.7,0.4,1.8c-0.3,0.3-0.8-0.1-1.2-0.2c0,0-0.1,0-0.1,0.1
	c0.2,0.8,0.1,1.7,0.8,2.2c0.4-2.2,1.4-1,2.9-2.2C48.6,24.7,56.9,23.8,64.3,21.7 M43.4,19.1c-1.3-0.4-0.3-2-1.1-2.7c0,0,0,0,0.1-0.1
	c0.8,0.2,0.9,0.9,0.9,1.7C43.3,18.5,43.7,18.6,43.4,19.1 M47.6,15c-0.9,0.5-0.8-0.7-1.2-1.2c-0.6-1.6,3.2-2.6,4.4-2.9
	c1.1,0,3.1-1.7,3.7,0c0.2,0.7,0.3,1.5-0.5,1.6C51.9,13.5,49.5,13.7,47.6,15 M52.3,18.1c-0.6,0.1-0.9,0.8-1.6,1.1
	c-0.7,0.5-2.1,0.4-2.9,0.2c0.1-0.3,0.1-0.7,0.3-0.8c1.4-0.5,2.2-2.2,3.9-2.1C55.1,14.6,54,17.1,52.3,18.1 M54,22.2
	c-2.2,0.4-1.6-3.9,0.8-0.1C54.5,22.1,54.2,22.2,54,22.2 M22.5,36.8v-0.7c0,0-0.1,0-0.1,0C22.4,36.3,22.4,36.6,22.5,36.8
	C22.4,36.8,22.5,36.8,22.5,36.8z M58.5,28.8c0-0.6-0.8-0.7-1.3-0.8c-0.6-0.1-0.4-1.6-1.4-1.4c-2.9,0.6-5.9,1.7-8.4,2.7
	c-0.5,0.7-0.9-0.4-1.4-0.3c-0.3-1.5-0.9-0.7-0.7,0.3c0,0.3,0.2,0.7-0.3,0.8c-0.1,0.1,0,0.5-0.3,0.4c-0.2-0.1-0.4,0.1-0.6,0.2
	c-0.4,0.2-1,0-1,0.7c-0.3,0.6,0.4,1.1,0.5,1.6c0.4,3,2.2,6.8,5.1,7.7c1.7,0.2,2.8-0.7,3.9-1.8c0.9-0.3,2-1.5,2.7-0.4
	c0.2,0.4,0.5,0,0.9,0.2c0-0.2,0-0.3,0-0.4c0.2,0.1,0.4,0.1,0.6,0.2C57.5,35.4,59.8,32,58.5,28.8 M53.9,35c-0.4,0.5-0.3,1.4-1.1,1.6
	c-0.5,0.3-1.3-0.3-1-0.8c0,0,0.1,0,0.2-0.1c-0.1-0.2-0.1-0.3-0.2-0.5c0.4-0.3,0.8-0.1,1.3-0.4c0.2,0.2,0.5-0.1,0.8,0
	C53.9,34.8,53.9,34.9,53.9,35 M55.1,30.9c-0.6,0-1.2,0.6-1.9,0.7c0.2,0.8,0.5-0.2,0.9,0c0,0,0.2-0.1,0.3-0.1c-0.9,0.9-2.7,1-3.8,1.7
	c0,0,0,0.1,0,0.1c0.9-0.3,1.9-0.7,2.8-1c0,0,0,0,0,0.1c-0.4,0.5-1.1,0.7-1.6,0.8c-0.3,0.4-0.8,0.3-1.2,0.4c-0.4,0.1-0.4-0.5-0.7-0.6
	c-0.6-0.5,0.8-0.9,1.1-1C51.6,31.5,55.5,29.3,55.1,30.9 M55.6,28c-2.1,0.2-3.9,1.8-6.1,1.9c-0.3-1.4,2.6-1,3.3-1.9
	c0.3,0,0.5-0.6,0.7-0.4c0.2,0.2,0.4-0.2,0.7-0.1c0.4-0.1,0.8-0.4,1.3-0.3C56.2,27.1,56.1,27.9,55.6,28 M56.6,27.9
	c-0.2-0.1-0.4-0.2-0.2-0.4c0.1,0.1,0.2,0.2,0.4,0.3C56.7,27.8,56.7,27.8,56.6,27.9 M95.1,42.2c-0.3,0.1-0.1,0.2,0,0.4
	C95.3,42.4,95.3,42.3,95.1,42.2 M96.9,37.1c0.5,0.1,0.7-0.1,0.6-0.7C97.2,36.4,97,36.7,96.9,37.1z M68,42.1c-0.8-0.6-2.8-1-3.1,0.3
	c0,0.2-0.1,0.3-0.4,0.2c-0.5-0.1-0.7,0.4-0.9,0.7c-0.3,0.3,0,0.5,0.1,0.8c0,0.2-0.1,0.4,0,0.5c0.3,1-0.5,2.1-0.2,3.1
	c0.7,0.9,3.5,2.5,3.8,0.7c0.4-0.4,0.7-0.3,1-0.9C68.7,45.8,70,43.4,68,42.1 M33.1,16.8c-2-1.3-4,0.2-6.1,0.5c0,0,0-0.1,0-0.1
	c1-1.2,2.5-2,3.7-3c-0.2-1.5-2-1.2-3.1-1.2c-1.6,1.2-2.9,4.4-4.8,5.7c-0.3-0.6,0.5-1.3,0.6-1.9c0.1-0.5,0.5-0.9,1-0.9
	c0,0.1,0,0.2,0,0.3c0,0,0,0,0.1,0c0.2-0.2,0.5-0.3,0.7-0.7c-0.2,0.1-0.4,0.1-0.5,0.2c0,0-0.1,0-0.1-0.1c0.7-0.4-0.1-0.9-0.3-1.3
	c-0.3-0.7-0.1-1.7,0.3-2.4c0.3-0.6,0.1-1.2,0.8-1.6c-0.2,0-0.3,0.1-0.4,0.1c0.8-0.8,2.5-0.3,3.5-0.8c0.4-0.2,0.7-0.5,1.2-0.2
	c0,0,0,0,0.1,0c-0.2-3.7-1.6-5.5-5.4-4.6c-0.6-0.5-1.2-1.2-1.8-1.6c-0.3-0.4-0.1-1.1-0.7-1.3c-0.9-0.4-2.1,0.1-2.3,1
	c-0.8,1.4,0.8,3-0.3,4.4c-2.8,1.7-5.8,3.6-8.4,5.4c0,0.4,0.5,0.3,0.8,0.3c1,0.4,0.7,1.8,1.3,2.5c1.9,2.2,2.2-0.6,3.4-1.6
	c0.3-0.8,1.4-1.2,2.2-1.3c0.6,2.3-0.4,2.7-2.5,3.4c-0.5,0.1,0,1.1-0.5,1.4c-0.8,1.1,1.2,3.9,2.6,2.8c0.3-0.9,1.5,0.5,0.8,0.7
	c-0.4,0.3-0.8,0.6-1.3,0.7c-0.2,0.6-0.9,0.6-1.4,1.1c-1.5,1.1-3.5,2.6-4.8,4.2c-0.6,0.4-1.5,0.7-1.5,1.6c-0.1,1.3,1,2.8,2.3,2.2
	c0.7,0.1,0.4-0.7,0.7-0.9c0.4-0.1,0.4-0.5,0.5-0.8c1-2.7,4.3-3.6,6.4-5.4C22,22.5,24,21,26.2,20c-0.6-0.2-1.1,0.3-1.7,0.4
	c0-0.5,0.5-0.5,0.8-0.7c1.6-0.3,3.1-1.2,4.8-1.1c0,0,0,0.1,0,0.1c-1.3,0.5-2.8,0.6-4,1.3C27.8,19.2,34.6,19.4,33.1,16.8 M17.4,22.3
	C17.4,22.3,17.5,22.3,17.4,22.3c-0.4,0.4-0.9,0.7-1.4,1C16.1,23,17.1,22.3,17.4,22.3z M17.4,22.9c-0.2,0.1-0.5,0.3-0.7,0.4
	c0,0-0.1-0.1-0.1-0.1c0.2-0.2,0.4-0.3,0.7-0.5C17.3,22.8,17.3,22.8,17.4,22.9z M13.2,25.4c0.3-0.5,2.4-2.1,2.8-2
	C15,24.1,14.1,24.8,13.2,25.4z M15.3,24.2C15.3,24.2,15.3,24.2,15.3,24.2c-0.4,0.3-0.6,0.7-1.1,0.8c0.6-0.6,1.3-0.9,1.9-1.5
	c0,0,0.1,0.1,0.1,0.1C15.9,23.9,15.6,24.1,15.3,24.2 M16.6,24c0-0.1-0.1-0.1-0.1-0.2c0.5-0.2,0.9-0.5,1.4-0.7c0,0,0,0.1,0.1,0.1
	C17.5,23.4,17.1,23.7,16.6,24 M17.6,22.7c0.1-0.3,0.2-0.4,0.4-0.3c0,0,0,0.1,0,0.1C17.9,22.5,17.8,22.6,17.6,22.7 M17.7,22
	c0.2-0.1,0.4-0.2,0.6-0.3c0,0,0,0.1,0,0.1C18.2,21.8,18.1,22.2,17.7,22 M19.4,22.5c0-0.1-0.1-0.1-0.1-0.2c0.3-0.1,0.5-0.2,0.8-0.3
	c0,0,0,0.1,0,0.1C19.9,22.2,19.6,22.3,19.4,22.5 M26.4,15.2c0,0-0.2-0.1-0.2-0.1C26.6,13.9,27.8,14.5,26.4,15.2 M32.5,18.4
	c-0.1,0-0.2,0-0.4-0.1c0-0.2,0.4-0.2,0.5,0C32.6,18.3,32.6,18.4,32.5,18.4z M43.8,48.8c-0.1,0-0.2,0.1-0.3,0.2
	c0.1,0.1,0.2,0.2,0.3,0.3C44.1,49.1,44.1,48.9,43.8,48.8 M56.8,43.4c-0.4-0.5-0.5-1.1-0.7-1.6c-0.7-0.4-0.6-1.3-1.3-1.9
	c-0.2,0-0.4-0.3-0.7-0.2c-0.1-0.1-0.4-0.2-0.5-0.2c-0.7,0.3-1.6,0.4-2.1,1c-0.6,0-0.3,0.6-0.6,0.8c0.1,0.3,0,0.8,0.1,1.1
	c0,0.3,0.5,0.5,0.2,0.8c-0.5,0.8-1,1.7-1.9,2c-3.7-1.5-5.7,0.3-4.3,4c0.4,0.8,1.9,3,2.9,2.3c0.2-0.8,1.6-0.3,1.5-0.8
	c-0.3-0.7-0.4-2.7,0.8-1.6c0.9,1.3,3.8,3.4,4.8,1.4c0.6-1.7,1.8-3.2,1-5.1c0.1-0.4,0.7-0.1,1-0.1C58.1,45.1,57,44,56.8,43.4
	 M54.4,49.3c-0.6-0.2-0.3-1.5,0.4-1.6c0,0.2,0,0.2-0.1,0.4c0.1,0,0.2,0.1,0.3,0.1C54.8,48.6,54.6,48.9,54.4,49.3z M108.3,45.6
	c0.1-0.4,0.3-0.8,0-1c0,0,0,0,0,0C108.3,45.1,108.3,45.7,108.3,45.6z M51.6,32.5C51.6,32.5,51.6,32.6,51.6,32.5
	c0.3,0,0.5-0.1,0.7-0.2c0,0,0-0.1,0-0.1C52.1,32.3,51.8,32.4,51.6,32.5 M140,27.5c-0.6-0.5-1.8-1.2-2.7-1.7l0.8-1.2
	c0.9,0.5,2.1,1.2,2.8,1.6L140,27.5L140,27.5z M137.7,34.1c0.8-1.3,1.9-3.4,2.7-5.3l1.1,0.9c-0.7,1.8-1.7,3.8-2.6,5.3L137.7,34.1
	L137.7,34.1z M140.7,23.3c-0.6-0.5-1.7-1.4-2.5-2l0.9-1.1c0.8,0.5,2,1.3,2.6,1.8C141.6,22.1,140.7,23.3,140.7,23.3z M152.7,25.1v1.2
	h-11.4v-1.2h5v-1h-4.1V23h4.1v-1h-4.5v-1.1h4.5v-1h1.6v1h4.5v1.1h-4.5v1h4v1.1h-4v1H152.7z M151.4,33.6c0,1.9-1.4,1.5-3.2,1.6
	c-0.1-0.4-0.3-1-0.5-1.3c1.6,0,2.3,0.4,2-1.3h-5.7c-0.2,1-0.5,2-1.2,2.7c-0.2-0.3-0.9-0.9-1.2-1.1c1.5-2,0.9-4.8,1-7.1h8.6
	L151.4,33.6L151.4,33.6z M149.8,31.5v-1.1h-5.5c0,0.4,0,0.7-0.1,1.1C144.3,31.5,149.8,31.5,149.8,31.5z M144.4,28.3v1.1h5.5v-1.1
	H144.4z M166.5,32.5c-1.1,0.9-2.9,1.9-4.3,2.5c-0.3-0.3-0.8-0.9-1.1-1.1c1.4-0.4,3.1-1.2,4-1.9L166.5,32.5L166.5,32.5z M176,27.4
	h-14.6v-1.2h6.5c-0.1-0.2-0.3-0.4-0.4-0.6l0.8-0.3h-5.2v-4.8h11v4.8H169c0.2,0.3,0.4,0.6,0.6,0.9h6.4L176,27.4L176,27.4z
	 M169.5,31.7c0.2,2.8,0.2,3.9-3.2,3.6c-0.1-0.4-0.3-0.9-0.5-1.2c2.8,0.3,2.1-0.2,2.2-2.4h-4.4v-3.5H174v3.5H169.5z M164.7,22.4h8
	v-0.9h-8V22.4z M164.7,24.2h8v-0.9h-8V24.2z M165.1,30.5h7.3v-1.3h-7.3V30.5z M171.6,32c1.4,0.5,3.4,1.4,4.4,2l-1.1,1
	c-0.9-0.6-2.8-1.6-4.3-2.1L171.6,32L171.6,32z M186.6,28.3c0,2.1-0.1,5.1-1,7c-0.2-0.2-0.7-0.5-1-0.6c1.4-3.4,0.7-9.4,0.8-13.1h2.9
	c-0.2-0.4-0.4-0.9-0.6-1.3l1.2-0.4c0.3,0.5,0.6,1.2,0.8,1.7h2.5v1.2h-5.7v1.4h0.9v-1.1h0.9v1.1h0.9v-1.1h0.9v1.1h1.9v4.1L186.6,28.3
	L186.6,28.3L186.6,28.3z M196,28.3c-0.4,3.5-1.5,5.8-3.3,7c-0.1-0.3-0.4-0.7-0.7-0.9c0.7-0.4,1.3-1.2,1.8-2.1
	c-0.3-0.3-0.7-0.7-1.1-1.1c-0.2,0.3-0.4,0.6-0.6,0.8c-0.1-0.2-0.4-0.7-0.6-0.9h-0.9v2l1.1-0.4c0,0.3,0.1,0.8,0.1,1
	c-1.7,0.7-2.1,0.9-2.3,1.1c-0.1-0.2-0.4-0.7-0.6-0.8c0.1-0.1,0.1-0.1,0.2-0.2c-1.6,0.6-2,0.8-2.1,1c-0.1-0.3-0.4-0.7-0.6-0.9
	c1-0.4,0.4-4.6,0.6-5.5h1.1V30h1.1v1.1h-1.1v2l1.1-0.4c0,0.3,0.1,0.6,0.1,0.9c0.5-0.5,0.2-4.5,0.3-5.2h1.1V30h1.1v0.9
	c0.7-1,1.2-2.4,1.5-3.8c-0.1,0.1-0.2,0.1-0.3,0.2c-0.2-0.3-0.6-0.7-0.9-1c0.9-0.4,1.8-1.1,2.3-1.9l1,0.3c-0.4,0.8-1.1,1.6-1.8,2.1
	l0.8,0.1c-0.1,0.4-0.2,0.8-0.3,1.2C194.5,28.2,195.5,28.1,196,28.3L196,28.3z M186.6,25.3V27h0.9v-1.7H186.6z M188.4,25.3V27h0.9
	v-1.7H188.4z M190.2,25.3V27h0.8v-1.7H190.2z M195.5,24h-3v-1.2h1.3c-0.2-0.5-0.6-1.3-1-2l1-0.4c0.5,0.6,0.9,1.4,1.1,2l-1,0.4h1.6
	v-2.8h1.3v2.8h3V24h-3v3.3h-1.3V24z M193.7,29.3c-0.1,0.3-0.2,0.6-0.4,0.9c0.3,0.3,0.7,0.6,1,0.9c0.2-0.5,0.4-1.2,0.5-1.8H193.7z
	 M199,31.6h1.1v1.2H199v2.4h-1.1v-2.4H196c0.2-0.9,0.4-2.2,0.5-3.3h-0.3v-1.2h1.7V27h1.1v1.4h0.9v1.2H199
	C199,29.6,199,31.6,199,31.6z M197.7,24.3c0.5,0.3,2.2,1.4,2.6,1.7l-0.8,1.1c-0.6-0.5-2-1.7-2.6-2.1L197.7,24.3L197.7,24.3z
	 M197.9,31.6v-2h-0.6c-0.1,0.7-0.2,1.4-0.3,2H197.9z M199.7,20.8c-0.4,0.7-0.9,1.4-1.3,2l-1-0.4c0.3-0.5,0.8-1.4,1.1-2L199.7,20.8
	L199.7,20.8z M213.4,25.8c-0.3,2.4-0.7,4.3-1.4,5.9c2.7,2.6,7.9,1.7,11.7,1.8c-0.2,0.3-0.5,1-0.6,1.4c-3.6-0.1-9.2,0.6-11.7-2
	c-0.5,0.9-1.2,1.7-2,2.2c-0.2-0.3-0.8-0.8-1.1-1c0.8-0.6,1.5-1.3,2.1-2.4c-0.6-0.8-1.1-1.9-1.5-3.2l1.2-0.4c0.3,0.9,0.6,1.6,0.9,2.2
	c0.4-1,0.7-2.2,0.8-3.5h-2.7c0.7-1.2,1.6-3,2.3-4.7h-2.7v-1.3h4.9c-0.7,1.5-1.5,3.2-2.2,4.7C212,25.5,212.9,25.5,213.4,25.8
	L213.4,25.8z M217.3,22.5h-3v-1.2h3V20h1.4v1.3h3.6v2.2h1v1.2h-1V27h-3.6v1h3.9v1.2h-3.9v1.1h4.4v1.2h-4.4V33h-1.4v-1.4h-3.9v-1.2
	h3.9v-1.1h-3.2V28h3.2v-1h-3.1v-1.2h3.1v-1h-4v-1.2h4V22.5z M218.8,22.5v1h2.2v-1H218.8z M221,24.7h-2.2v1h2.2V24.7z M234.8,22.1
	c-0.5,0.7-1.1,1.3-1.7,1.8c-0.2-0.3-0.7-0.8-1-1.1c1-0.7,2-1.9,2.5-3l1.4,0.4c-0.1,0.2-0.2,0.4-0.3,0.6h4v1.2h-2.9
	c0.5,0.4,1,1,1.2,1.3l-1,0.8c-0.3-0.4-0.9-1.2-1.4-1.7l0.7-0.5L234.8,22.1L234.8,22.1z M238,32.1c-1,1.3-2.9,2.4-4.7,2.9
	c-0.2-0.4-0.7-1-1-1.3c1.7-0.4,3.5-1.2,4.4-2.1L238,32.1z M240.5,30.1h6.7v1.2h-6.7v3.8H239v-3.8h-6.7v-1.2h6.7v-0.9
	c-0.3-0.2-0.6-0.5-0.8-0.7c1-0.4,1.6-0.8,2-1.2c-0.5-0.2-1.1-0.5-1.5-0.7l0.6-0.9c0.4,0.2,0.9,0.4,1.4,0.6c0.1-0.3,0-0.7,0-1.1h-1.8
	v-1.1h6c0.2,0.4-0.4,3.9,0.3,3.9c1,0.2,0.8-0.6,0.9-1.6c0.3,0.2,0.7,0.4,1.1,0.5c0.2,2.4-1.6,2.8-3.3,2c-0.6-0.3-0.3-3-0.4-3.7H242
	c0,0.5,0,1.1-0.1,1.6c0.6,0.3,1.1,0.5,1.5,0.8l-0.6,1c-0.4-0.2-0.8-0.5-1.4-0.7c-0.3,0.4-0.8,0.8-1.4,1.2h0.5L240.5,30.1L240.5,30.1
	z M232.4,28.1c0.7-0.1,1.5-0.2,2.4-0.3v-2.3h-2.2v-1.1h5.7v1.1h-2.1v2.1c0.7-0.1,1.4-0.2,2.1-0.3l0,1.2c-2.1,0.3-4.2,0.6-5.8,0.8
	L232.4,28.1L232.4,28.1z M247.3,20.9v1.2H244c0.4,0.4,0.9,0.9,1.1,1.2l-1.1,0.8c-0.3-0.4-0.9-1.1-1.4-1.6l0.7-0.4h-1.7
	c-0.5,0.7-1,1.3-1.5,1.8c-0.2-0.3-0.8-0.7-1.2-0.9c1-0.7,1.8-1.9,2.3-3.1l1.4,0.4c-0.1,0.3-0.2,0.5-0.3,0.7L247.3,20.9L247.3,20.9z
	 M242.5,31.5c1.4,0.6,3.4,1.6,4.4,2.3l-1.1,1.1c-0.9-0.7-2.9-1.7-4.3-2.4L242.5,31.5z M270.2,20.6v14.6h-1.5v-0.8H258v0.9h-1.4V20.6
	H270.2z M268.7,33.2V21.8H258v11.4H268.7z M268.3,30.6H266c0.2,2.2-0.2,2.4-2.5,2.3c0-0.3-0.2-0.6-0.3-0.8c1.8,0.1,1.6,0,1.6-1.5
	h-6.2v-0.9h6.2v-0.5h1.3v0.5h2.3C268.3,29.7,268.3,30.6,268.3,30.6z M266.4,27.6c0.6,0.4,1.2,1.1,1.6,1.5l-0.8,0.6
	c-0.2-0.2-0.4-0.4-0.7-0.7c-2.8,0.1-5.7,0.2-7.7,0.2l-0.1-0.9c1.1,0,2.5,0,4,0v-0.7h-3.4v-3.4h3.4v-0.6h-4v-0.9h4v-0.7h1.3v0.7h4.1
	v0.9H264v0.6h3.6v3.4H266.4z M261.5,32.7c-0.3-0.4-0.8-1.1-1.3-1.6l1-0.5c0.5,0.4,1.1,1.1,1.4,1.5C262.5,32.1,261.5,32.7,261.5,32.7
	z M260.5,25.6h2.2V25h-2.2V25.6z M262.7,26.9v-0.6h-2.2v0.6H262.7z M264,25v0.6h2.3V25H264z M266.3,26.9v-0.6H264v0.6H266.3z
	 M265.7,28.3c-0.1-0.1-0.2-0.2-0.3-0.2l0.6-0.4H264v0.7L265.7,28.3L265.7,28.3z M285,21.2c-0.5,1.4-1,3.1-1.6,4.4
	c2,2.3,2.1,6.3-1.3,5.8c0-0.4-0.1-1-0.3-1.3c2.6,0.4,1.8-2.6,0.3-4.3c0.4-1.1,0.9-2.6,1.2-3.7h-1.8v13.2h-1.4V20.6h3.7l0.2-0.1
	C284,20.6,285,21.2,285,21.2z M294.4,25.7c-0.6,0.5-1.4,1-2.1,1.4c0.6,1.8,1.7,3.8,2.7,4.8c-0.3,0.2-0.8,0.7-1,1
	c-1.1-1.2-2.1-3.3-2.8-5.2l-0.2,0.1c1.1,4.2,0.5,7.8-3.6,7.1c0-0.4-0.1-1-0.4-1.4c2.3,0.5,3.1-0.5,3-3.2c-1.3,1.1-3,2.1-4.5,2.7
	c-0.2-0.4-0.6-0.8-0.9-1.1c1.9-0.6,4.1-1.8,5.3-3c-0.1-0.4-0.2-0.8-0.3-1.1c-1,0.8-2.4,1.7-3.5,2.2c-0.2-0.3-0.5-0.8-0.8-1.1
	c1.2-0.5,2.9-1.4,3.9-2.2c-0.2-0.4-0.4-0.8-0.7-1.1c-0.9,0.7-2,1.3-2.9,1.8c-0.2-0.3-0.6-0.9-0.9-1.1c1.3-0.5,2.7-1.3,3.8-2.2h-3.4
	v-1.3h3c-0.4-0.6-1.1-1.3-1.8-1.9l1.2-0.7c0.8,0.6,1.6,1.4,2,2.1l-0.8,0.6l1.7,0c0.6-0.7,1.3-1.9,1.7-2.7l1.5,0.4
	c-0.5,0.8-1,1.6-1.5,2.2h2.9V24h-4.5c-0.2,0.3-0.5,0.5-0.8,0.8c0.5,0.6,0.9,1.3,1.2,2c1-0.6,2.1-1.4,2.8-2.1L294.4,25.7L294.4,25.7z
	"/>
</svg>
