<svg width="492" height="199" viewBox="0 0 492 199" fill="none" xmlns="http://www.w3.org/2000/svg">
<g clip-path="url(#clip0_27_3501)">
<path d="M278.07 108.471H186.04V112.131H278.07V108.471Z" fill="white"/>
<path d="M259.94 125.44H204.64V129.1H259.94V125.44Z" fill="white"/>
<path d="M259.94 147.69H204.64V151.35H259.94V147.69Z" fill="white"/>
<path d="M259.94 169.021H204.64V172.68H259.94V169.021Z" fill="white"/>
<path d="M279.97 190.04H183.57V194.48H279.97V190.04Z" fill="white"/>
<path d="M259.94 125.44H252.31V194.48H259.94V125.44Z" fill="white"/>
<path d="M212.27 125.44H204.64V194.48H212.27V125.44Z" fill="white"/>
<path d="M193.67 108.471H186.04V132.751H193.67V108.471Z" fill="white"/>
<path d="M278.07 108.471H270.44V132.751H278.07V108.471Z" fill="white"/>
<path d="M235.22 109.64H227.59V98.0801L235.22 99.8401V109.64Z" fill="white"/>
<path d="M387.09 110.38H295.06V114.04H387.09V110.38Z" fill="white"/>
<path d="M302.69 110.38H295.06V132.76H302.69V110.38Z" fill="white"/>
<path d="M387.09 110.38H379.46V132.76H387.09V110.38Z" fill="white"/>
<path d="M344.89 111.55H337.26V96.0303L344.89 97.7903V111.55Z" fill="white"/>
<path d="M84.22 103.2V146.43C84.22 149.79 82.36 165.89 71.38 191.93L76.2 194.49C76.2 194.49 91.86 166.92 91.86 148.63V103.21H84.23L84.22 103.2Z" fill="white"/>
<path d="M167.5 103.2H84.22V106.86H167.5V103.2Z" fill="white"/>
<path d="M167.5 120.83H84.22V124.49H167.5V120.83Z" fill="white"/>
<path d="M163.68 138.681H84.22V142.341H163.68V138.681Z" fill="white"/>
<path d="M169.23 156.53H84.22V160.19H169.23V156.53Z" fill="white"/>
<path d="M167.5 103.2H159.87V124.48H167.5V103.2Z" fill="white"/>
<path d="M118.07 157.401H110.44V127.271L118.07 129.021V157.401Z" fill="white"/>
<path d="M112.34 187.54H104.71V157.4L112.34 159.16V187.54Z" fill="white"/>
<path d="M146.21 157.401H138.58V127.271L146.21 129.021V157.401Z" fill="white"/>
<path d="M91.85 189.44L134.79 182.44L135.59 187.26L93.85 196.89L91.85 189.44Z" fill="white"/>
<path d="M127.98 159.6C127.98 159.6 133.97 188.99 169.3 196.09L171.71 191.27C171.71 191.27 145.83 187.1 137.35 159.59H127.99L127.98 159.6Z" fill="white"/>
<path d="M161.33 162.38L143.79 177.84L147.14 181.25L169.23 168.96L161.33 162.38Z" fill="white"/>
<path d="M443.27 100.83H404.34V104.49H443.27V100.83Z" fill="white"/>
<path d="M443.27 118H404.34V121.66H443.27V118Z" fill="white"/>
<path d="M479.26 152.78H416.18V156.44H479.26V152.78Z" fill="white"/>
<path d="M443.27 135.17H404.34V138.83H443.27V135.17Z" fill="white"/>
<path d="M411.97 100.83H404.34V194.49H411.97V100.83Z" fill="white"/>
<path d="M443.27 100.83H435.64V138.83H443.27V100.83Z" fill="white"/>
<path d="M491.99 100.83H453.06V104.49H491.99V100.83Z" fill="white"/>
<path d="M491.99 118H453.06V121.66H491.99V118Z" fill="white"/>
<path d="M491.99 135.17H453.06V138.83H491.99V135.17Z" fill="white"/>
<path d="M484.35 194.48H491.98V100.82H484.35V194.48Z" fill="white"/>
<path d="M453.06 138.82H460.69V100.82H453.06V138.82Z" fill="white"/>
<path d="M451.98 192.37H444.35V144.12L451.98 145.88V192.37Z" fill="white"/>
<path d="M371.55 98.5205H363.36C363.36 98.5205 362.96 105.461 359.11 114.031H365.22C367.67 109.911 370.24 106.481 371.55 98.5205Z" fill="white"/>
<path d="M317.49 98.5205H309.3C310.61 106.481 313.18 109.911 315.63 114.031H321.74C317.89 105.461 317.49 98.5205 317.49 98.5205Z" fill="white"/>
<path d="M365.51 123.59H316.65V127.25H365.51V123.59Z" fill="white"/>
<path d="M365.51 144.08H316.65V147.74H365.51V144.08Z" fill="white"/>
<path d="M365.51 123.59H357.88V145.9H365.51V123.59Z" fill="white"/>
<path d="M324.28 123.59H316.65V145.9H324.28V123.59Z" fill="white"/>
<path d="M380.54 158.33H301.62V161.99H380.54V158.33Z" fill="white"/>
<path d="M309.25 158.33H301.62V192.61H309.25V158.33Z" fill="white"/>
<path d="M337.26 144.891H344.89V198.171L337.26 196.411V144.891Z" fill="white"/>
<path d="M373.5 194.48C377.6 188.72 380.53 181.95 380.53 176.28C380.53 157.99 380.53 159.68 380.53 159.68H372.9C372.9 159.68 372.9 175.74 372.9 178.51C372.9 183.3 371.45 187.03 367.94 194.48H373.5Z" fill="white"/>
<path d="M423.73 190.04C432.83 175.35 441.91 163.25 444.71 155.54L435.89 156.31C435.89 156.31 431.89 167.64 417.79 190.04H423.73Z" fill="white"/>
<path d="M472.59 190.04C463.49 175.35 454.41 163.25 451.61 155.54L460.43 156.31C460.43 156.31 464.43 167.64 478.53 190.04H472.59Z" fill="white"/>
<path d="M172.85 71.6204H171.15V57.8604H172.85V71.6204Z" fill="white"/>
<path d="M177.94 59.7803V71.6204H176.99V57.8604H178.47L187.36 68.4503V57.8604H188.21V71.9104L177.94 59.7803Z" fill="white"/>
<path d="M192.35 71.6204V57.8604H195.53C198.42 57.8604 200.68 58.4703 202.31 59.6903C203.86 60.9703 204.67 62.7404 204.74 64.9804C204.67 65.8804 204.49 66.7104 204.21 67.4804C203.86 68.2504 203.36 68.9904 202.73 69.6904C202.02 70.2704 201.21 70.7204 200.3 71.0404C199.38 71.3604 198.36 71.5504 197.23 71.6204H192.36H192.35ZM194.05 58.5303V70.9503H196.27C198.39 70.8903 200.01 70.3104 201.14 69.2204C202.2 68.1304 202.76 66.6204 202.84 64.6904C202.77 62.7004 202.17 61.1604 201.04 60.0704C199.84 59.0404 198.11 58.5303 195.85 58.5303H194.05Z" fill="white"/>
<path d="M210.52 70.9406H217.61V71.6106H208.82V57.8506H217.4V58.5206H210.52V64.2006H217.08V64.8706H210.52V70.9306V70.9406Z" fill="white"/>
<path d="M223.44 65.1703V71.6204H221.74V57.8604H225.98C227.81 57.8604 229.23 58.1804 230.21 58.8204C231.13 59.4604 231.62 60.3603 231.69 61.5103C231.62 62.6003 231.16 63.4704 230.31 64.1104C229.46 64.7504 228.19 65.1003 226.5 65.1703H223.43H223.44ZM223.44 58.5303V64.4004H225.56C226.97 64.4004 228.03 64.1404 228.74 63.6304C229.45 63.1804 229.83 62.4803 229.9 61.5103C229.83 60.4203 229.41 59.6504 228.63 59.2004C227.85 58.6904 226.72 58.4603 225.24 58.5303H223.44Z" fill="white"/>
<path d="M237.48 70.9406H244.57V71.6106H235.78V57.8506H244.36V58.5206H237.48V64.2006H244.04V64.8706H237.48V70.9306V70.9406Z" fill="white"/>
<path d="M249.67 59.7803V71.6204H248.72V57.8604H250.2L259.09 68.4503V57.8604H259.94V71.9104L249.67 59.7803Z" fill="white"/>
<path d="M264.07 71.6204V57.8604H267.25C270.14 57.8604 272.4 58.4703 274.03 59.6903C275.58 60.9703 276.39 62.7404 276.46 64.9804C276.39 65.8804 276.21 66.7104 275.93 67.4804C275.58 68.2504 275.08 68.9904 274.45 69.6904C273.74 70.2704 272.93 70.7204 272.02 71.0404C271.1 71.3604 270.08 71.5504 268.95 71.6204H264.08H264.07ZM265.77 58.5303V70.9503H267.99C270.11 70.8903 271.73 70.3104 272.86 69.2204C273.92 68.1304 274.48 66.6204 274.56 64.6904C274.49 62.7004 273.89 61.1604 272.76 60.0704C271.56 59.0404 269.83 58.5303 267.57 58.5303H265.77Z" fill="white"/>
<path d="M282.24 70.9406H289.33V71.6106H280.54V57.8506H289.12V58.5206H282.24V64.2006H288.8V64.8706H282.24V70.9306V70.9406Z" fill="white"/>
<path d="M294.43 59.7803V71.6204H293.48V57.8604H294.96L303.85 68.4503V57.8604H304.7V71.9104L294.43 59.7803Z" fill="white"/>
<path d="M312.54 71.6204V58.5303H308.83V57.8604H317.94V58.5303H314.23V71.6204H312.53H312.54Z" fill="white"/>
<path d="M330.36 67.3903L328.45 71.6203H327.5L333.64 57.5703L339.99 71.6203H338.29L336.38 67.3903H330.35H330.36ZM330.68 66.7203H336.08L333.43 60.3703L330.68 66.7203Z" fill="white"/>
<path d="M345.78 71.6204H344.08V57.8604H348.63C350.39 57.8604 351.77 58.1804 352.76 58.8204C353.68 59.5304 354.17 60.4904 354.24 61.7104C354.17 62.6704 353.75 63.4704 352.97 64.1204C352.19 64.7004 351.06 65.0204 349.58 65.0804C349.44 65.0804 349.33 65.0504 349.26 64.9804H348.94L354.23 71.6204H352.11L346.6 64.4004H348.93C349.99 64.3404 350.84 64.0804 351.47 63.6304C352.03 63.1204 352.35 62.4404 352.42 61.6104C352.42 60.5804 352.07 59.8204 351.36 59.3004C350.65 58.7904 349.63 58.5303 348.29 58.5303H345.75V71.6204H345.78Z" fill="white"/>
<path d="M371.41 69.0201C370.77 69.9801 370 70.6901 369.08 71.1401C368.16 71.6501 367.11 71.9101 365.9 71.9101C364.77 71.9101 363.75 71.7501 362.83 71.4301C361.91 71.1101 361.14 70.6301 360.5 69.9901C359.79 69.2901 359.26 68.4801 358.91 67.5901C358.56 66.6901 358.38 65.7001 358.38 64.6001C358.38 63.5701 358.56 62.6401 358.91 61.8101C359.19 60.9801 359.69 60.2401 360.39 59.6001C361.03 58.8901 361.8 58.3801 362.72 58.0601C363.57 57.7401 364.56 57.5801 365.69 57.5801C366.96 57.5801 368.05 57.8001 368.97 58.2501C369.89 58.7601 370.66 59.5001 371.3 60.4601L370.45 60.8501C369.96 59.8901 369.36 59.1801 368.65 58.7301C367.87 58.2801 366.99 58.0601 366 58.0601C364.17 58.0601 362.75 58.6401 361.77 59.7901C360.71 60.8801 360.18 62.4501 360.18 64.5101C360.18 66.5701 360.71 68.2301 361.77 69.5101C362.83 70.7301 364.24 71.3701 366 71.4401C366.99 71.3801 367.87 71.0901 368.65 70.5701C369.43 70.0601 370.06 69.3201 370.56 68.3601L371.41 69.0301V69.0201Z" fill="white"/>
<path d="M377.19 64.9804V71.6204H375.49V57.8604H377.19V64.2104H385.34V57.8604H387.03V71.6204H385.34V64.9804H377.19Z" fill="white"/>
<path d="M392.81 71.6204H391.11V57.8604H392.81V71.6204Z" fill="white"/>
<path d="M400.66 71.6204V58.5303H396.95V57.8604H406.06V58.5303H402.35V71.6204H400.65H400.66Z" fill="white"/>
<path d="M411.89 70.9406H418.98V71.6106H410.19V57.8506H418.77V58.5206H411.89V64.2006H418.45V64.8706H411.89V70.9306V70.9406Z" fill="white"/>
<path d="M436.15 69.0201C435.51 69.9801 434.74 70.6901 433.82 71.1401C432.9 71.6501 431.85 71.9101 430.64 71.9101C429.51 71.9101 428.49 71.7501 427.57 71.4301C426.65 71.1101 425.88 70.6301 425.24 69.9901C424.53 69.2901 424 68.4801 423.65 67.5901C423.3 66.6901 423.12 65.7001 423.12 64.6001C423.12 63.5701 423.3 62.6401 423.65 61.8101C423.93 60.9801 424.43 60.2401 425.13 59.6001C425.77 58.8901 426.54 58.3801 427.46 58.0601C428.31 57.7401 429.3 57.5801 430.43 57.5801C431.7 57.5801 432.79 57.8001 433.71 58.2501C434.63 58.7601 435.4 59.5001 436.04 60.4601L435.19 60.8501C434.7 59.8901 434.1 59.1801 433.39 58.7301C432.61 58.2801 431.73 58.0601 430.74 58.0601C428.91 58.0601 427.49 58.6401 426.51 59.7901C425.45 60.8801 424.92 62.4501 424.92 64.5101C424.92 66.5701 425.45 68.2301 426.51 69.5101C427.57 70.7301 428.98 71.3701 430.74 71.4401C431.73 71.3801 432.61 71.0901 433.39 70.5701C434.17 70.0601 434.8 69.3201 435.3 68.3601L436.15 69.0301V69.0201Z" fill="white"/>
<path d="M443.94 71.6204V58.5303H440.23V57.8604H449.34V58.5303H445.63V71.6204H443.93H443.94Z" fill="white"/>
<path d="M463.64 57.8606V67.4806C463.57 68.8306 463.15 69.8806 462.37 70.6606C461.59 71.4306 460.5 71.8506 459.09 71.9106C458.03 71.9106 457.15 71.8106 456.45 71.6206C455.74 71.4306 455.14 71.0706 454.65 70.5606C454.09 70.0506 453.73 69.4706 453.59 68.8306C453.45 68.1906 453.41 67.4506 453.48 66.6206V57.8606H455.18V66.7106C455.11 67.3506 455.11 67.9306 455.18 68.4406C455.25 68.9506 455.5 69.4706 455.92 69.9806C456.27 70.3706 456.7 70.6906 457.19 70.9406C457.76 71.1306 458.39 71.2606 459.1 71.3306C460.3 71.3306 461.18 70.9806 461.75 70.2706C462.39 69.5606 462.7 68.5106 462.7 67.0906V57.8506H463.65L463.64 57.8606Z" fill="white"/>
<path d="M469.42 71.6204H467.72V57.8604H472.27C474.03 57.8604 475.41 58.1804 476.4 58.8204C477.32 59.5304 477.81 60.4904 477.88 61.7104C477.81 62.6704 477.39 63.4704 476.61 64.1204C475.83 64.7004 474.7 65.0204 473.22 65.0804C473.08 65.0804 472.97 65.0504 472.9 64.9804H472.58L477.87 71.6204H475.75L470.24 64.4004H472.57C473.63 64.3404 474.48 64.0804 475.11 63.6304C475.67 63.1204 475.99 62.4404 476.06 61.6104C476.06 60.5804 475.71 59.8204 475 59.3004C474.29 58.7904 473.27 58.5303 471.93 58.5303H469.39V71.6204H469.42Z" fill="white"/>
<path d="M483.72 70.9406H490.81V71.6106H482.02V57.8506H490.6V58.5206H483.72V64.2006H490.28V64.8706H483.72V70.9306V70.9406Z" fill="white"/>
<path d="M106.49 0C106.49 0 77.69 58.55 74.61 64.27C71.53 69.99 66.69 75.26 62.08 75.26C57.47 75.26 77.47 75.26 82.53 75.26C87.59 75.26 94.62 72.4 100.34 60.97C106.06 49.54 118.59 25.35 118.59 25.35L106.49 0Z" fill="white"/>
<path d="M33.26 150.52C33.26 150.52 62.06 91.9698 65.14 86.2498C68.22 80.5298 73.06 75.2598 77.67 75.2598C82.28 75.2598 62.28 75.2598 57.22 75.2598C52.16 75.2598 45.13 78.1198 39.41 89.5498C33.69 100.98 21.16 125.17 21.16 125.17L33.25 150.52H33.26Z" fill="white"/>
<path d="M61.59 0C61.59 0 32.79 58.55 29.71 64.27C26.63 69.99 21.79 75.26 17.18 75.26C12.57 75.26 32.57 75.26 37.63 75.26C42.69 75.26 49.72 72.4 55.44 60.97C61.16 49.54 73.69 25.35 73.69 25.35L61.59 0Z" fill="white"/>
<path d="M11.11 104.46C15.61 95.3998 19.26 88.0898 20.25 86.2498C23.33 80.5298 28.17 75.2598 32.78 75.2598H12.33C8.81 75.2598 4.33 76.6598 0 81.3598L11.11 104.46Z" fill="white"/>
<path d="M128.6 45.1699C123.9 54.6399 120.04 62.3699 119.02 64.2699C115.94 69.9899 111.1 75.2599 106.49 75.2599H126.94C130.65 75.2599 135.43 73.7099 139.96 68.3699L128.6 45.1699Z" fill="white"/>
</g>
<defs>
<clipPath id="clip0_27_3501">
<rect width="491.99" height="198.17" fill="white"/>
</clipPath>
</defs>
</svg>
