<?xml version="1.0" encoding="utf-8"?>
<!-- Generator: Adobe Illustrator 27.1.1, SVG Export Plug-In . SVG Version: 6.00 Build 0)  -->
<svg version="1.1" id="圖層_1" xmlns="http://www.w3.org/2000/svg" xmlns:xlink="http://www.w3.org/1999/xlink" x="0px" y="0px"
	 viewBox="0 0 175 77" style="enable-background:new 0 0 175 77;" xml:space="preserve">
<style type="text/css">
	.st0{fill-rule:evenodd;clip-rule:evenodd;fill:#FFFFFF;}
	.st1{fill:#FFFFFF;}
	.st2{fill:none;}
	.st3{clip-path:url(#SVGID_00000177479841996392125880000004407315591768502667_);}
	.st4{opacity:0.7;clip-path:url(#SVGID_00000082351501636667923210000009125980058239330459_);}
</style>
<g>
	<g>
		<path class="st0" d="M95.1,65.6v3.3l-0.2,0.3H98l-0.2-0.3v-9l0.2-0.3h-9.9l0.2,0.3v9l-0.2,0.3h3.1l-0.2-0.3v-3.3c0-1.1,0.8-2,2-2
			C94.2,63.5,95.1,64.5,95.1,65.6L95.1,65.6z"/>
		<path class="st1" d="M103.1,61h0.8c0,0,0.1-0.1,0.3-0.3c0.2-0.3,0.3-0.4,0.4-0.4c0.1,0,0.3,0.1,0.5,0.4c0.2,0.3,0.3,0.4,0.3,0.4
			c0,0.1,0,0.1-0.1,0.1h-0.6v5.8c0,0.5,0,0.9,0,1.3c0,0.1-0.1,0.2-0.4,0.2c-0.1,0-0.2,0-0.3,0c-0.1,0-0.2-0.1-0.2-0.3
			c0-0.3,0-0.7,0-1.3v-0.6c-0.3,0.2-0.6,0.4-1,0.6c-0.1,0-0.1,0-0.1,0.1c0,0,0,0.1,0,0.1c0,0.1-0.1,0.1-0.1,0.1
			c-0.1,0-0.3-0.2-0.4-0.6c0-0.1-0.1-0.3-0.2-0.6c0.2,0,0.3,0,0.5,0v-4.9c-0.1,0-0.3,0-0.4,0l-0.1-0.4C102.1,61,102.5,61,103.1,61
			L103.1,61z M103.7,62.6v-1.3h-0.6v1.3H103.7z M103.7,64.3v-1.4h-0.6v1.4H103.7z M103.7,65.9v-1.4h-0.6V66
			C103.3,66,103.5,66,103.7,65.9z M106.4,60.6c0.2,0.1,0.4,0.2,0.4,0.3c0,0.1-0.1,0.1-0.2,0.1c-0.1,0-0.2,0-0.2,0
			c-0.3,0.4-0.6,0.8-1,1.1c0.1,0,0.1,0.1,0.2,0.1c0.2,0.1,0.2,0.2,0.2,0.3c0,0.2-0.1,0.3-0.2,0.4c-0.1,0.1-0.2,0.2-0.4,0.2
			c-0.1,0-0.2-0.1-0.2-0.3c-0.1-0.3-0.3-0.5-0.5-0.8l0.1-0.1c0.2,0,0.4,0.1,0.5,0.1c0.2-0.5,0.4-1.1,0.5-1.7
			C105.9,60.4,106.2,60.5,106.4,60.6L106.4,60.6z M107.3,61.4c0.2,0.1,0.3,0.2,0.3,0.3c0,0.1-0.1,0.1-0.2,0.1c-0.1,0-0.2,0-0.2,0.1
			c-0.4,0.7-1,1.3-1.5,1.8c0.4,0,0.7-0.1,1-0.1c0-0.2-0.1-0.4-0.2-0.6l0.1-0.1c0.3,0.2,0.5,0.3,0.7,0.5c0.2,0.2,0.2,0.3,0.2,0.5
			c0,0.2,0,0.3-0.1,0.4c-0.1,0.1-0.2,0.2-0.4,0.2c-0.1,0-0.1,0-0.2-0.1c0,0-0.1-0.2-0.1-0.4c0,0,0-0.1,0-0.1
			c-0.4,0.3-0.9,0.5-1.4,0.7c-0.1,0-0.1,0-0.1,0.1c0,0,0,0.1,0,0.1c0,0.1,0,0.1-0.1,0.1c-0.1,0-0.2-0.2-0.3-0.5
			c0-0.1-0.1-0.2-0.2-0.5c0.3,0,0.5,0,0.7,0c0.5-0.8,0.9-1.6,1.2-2.5C106.8,61.3,107,61.3,107.3,61.4L107.3,61.4z M105.8,64.9
			c0.3,0,0.4,0.1,0.4,0.2c0,0.1-0.1,0.1-0.2,0.2c-0.1,0-0.2,0.1-0.2,0.2v1h0.5c0-0.2,0-0.5,0-0.7c0-0.3,0-0.7-0.1-1.2
			c0.3,0,0.5,0.1,0.8,0.1c0.2,0,0.3,0.1,0.4,0.1c0-0.1,0-0.1,0-0.2c0.2,0,0.5,0.1,0.8,0.1c0.3,0,0.5,0.1,0.5,0.2
			c0,0.1-0.1,0.2-0.2,0.2c-0.1,0-0.2,0.1-0.2,0.2v1.2h0.6v-0.9c0-0.2,0-0.5-0.1-0.6c0.2,0,0.5,0.1,0.8,0.1c0.3,0,0.4,0.1,0.4,0.2
			c0,0.1-0.1,0.2-0.2,0.2c-0.1,0-0.2,0.1-0.2,0.2V67c0,0.1-0.1,0.2-0.4,0.2c-0.1,0-0.2,0-0.2,0c-0.1,0-0.2,0-0.2-0.1v-0.4h-0.6v1.6
			c0,0.1-0.1,0.2-0.4,0.2c-0.1,0-0.2,0-0.3,0c-0.2,0-0.3,0-0.3-0.1c0-0.1,0-0.3,0-0.3v-2.9c0-0.1,0-0.2,0-0.3c0,0-0.1,0-0.1,0
			c-0.1,0.1-0.2,0.1-0.2,0.2c0,0.8,0,1.4-0.1,1.6c-0.1,0.3-0.2,0.5-0.3,0.7c-0.1,0.2-0.3,0.4-0.6,0.5c-0.2,0.1-0.6,0.3-1.1,0.5
			l-0.1-0.1c0.3-0.2,0.6-0.4,0.8-0.6c0.2-0.2,0.3-0.4,0.4-0.7c0-0.1,0.1-0.3,0.1-0.5h-0.5v0.4c0,0.1-0.1,0.2-0.4,0.2
			c-0.1,0-0.2,0-0.2,0c-0.1,0-0.2,0-0.2-0.1v-1.7c0-0.2,0-0.5-0.1-0.6C105.2,64.9,105.4,64.9,105.8,64.9L105.8,64.9z M109,60.6
			c0.3,0.1,0.4,0.2,0.4,0.3c0,0.1-0.1,0.1-0.2,0.1c-0.1,0-0.2,0-0.2,0c-0.3,0.4-0.6,0.8-1,1.2c0.1,0,0.2,0.1,0.2,0.1
			c0.1,0.1,0.2,0.2,0.2,0.3c0,0.2-0.1,0.3-0.2,0.5c-0.1,0.1-0.2,0.2-0.4,0.2c-0.1,0-0.2-0.1-0.2-0.3c-0.1-0.3-0.2-0.6-0.4-0.8
			l0.1-0.1c0.2,0,0.3,0.1,0.4,0.1c0.2-0.6,0.4-1.2,0.5-1.8C108.5,60.4,108.7,60.5,109,60.6L109,60.6z M109.8,61.6
			c0.2,0.1,0.3,0.2,0.3,0.3c0,0.1-0.1,0.1-0.2,0.1c-0.1,0-0.2,0-0.2,0.1c-0.4,0.6-0.8,1.1-1.3,1.6c0.3,0,0.6-0.1,0.9-0.1
			c0-0.2-0.1-0.4-0.2-0.6l0.1-0.1c0.3,0.2,0.5,0.3,0.6,0.4c0.1,0.2,0.2,0.3,0.2,0.4c0,0.2,0,0.4-0.1,0.5c-0.1,0.1-0.2,0.2-0.4,0.2
			c-0.1,0-0.1,0-0.2-0.1c0,0-0.1-0.2-0.1-0.4c0,0,0-0.1,0-0.1c-0.4,0.3-0.7,0.5-1.1,0.6c-0.1,0-0.1,0-0.1,0.1c0,0,0,0,0,0.1
			c0,0.1,0,0.1-0.1,0.1c-0.1,0-0.2-0.2-0.3-0.5c0-0.1-0.1-0.2-0.2-0.4c0.2,0,0.3,0,0.5,0c0.4-0.7,0.7-1.5,0.9-2.3
			C109.3,61.4,109.5,61.5,109.8,61.6L109.8,61.6z"/>
		<path class="st1" d="M112.4,61.1h0.7c0,0,0.1-0.1,0.3-0.3c0.2-0.3,0.3-0.4,0.4-0.4c0.1,0,0.3,0.1,0.5,0.4c0.2,0.3,0.4,0.4,0.4,0.5
			c0,0.1-0.1,0.1-0.2,0.1h-1.3c-0.2,1-0.4,1.7-0.6,2.1l0.3,0.2h0.2c0.1-0.1,0.2-0.3,0.3-0.4c0.1-0.1,0.2-0.1,0.2-0.1
			c0.1,0,0.2,0.1,0.5,0.2c0.3,0.2,0.4,0.3,0.4,0.4c0,0.1-0.1,0.2-0.2,0.2c-0.1,0.1-0.1,0.2-0.1,0.3v2.2c0,0.3,0,0.6,0,1
			c0,0.1-0.1,0.2-0.4,0.3c-0.1,0-0.2,0-0.3,0c-0.2,0-0.3-0.1-0.3-0.3v-0.4h-0.6v0.7c0,0.1-0.1,0.2-0.4,0.2c-0.1,0-0.2,0-0.3,0
			c-0.2,0-0.3-0.1-0.3-0.2c0-0.4,0.1-0.8,0.1-1.2v-1.8c0,0,0,0,0,0c-0.2,0.4-0.5,0.7-0.8,0.9l-0.1-0.1c0.2-0.5,0.4-1,0.6-1.7
			c0.2-0.7,0.3-1.5,0.5-2.5c-0.4,0-0.7,0-0.9,0l-0.1-0.4C111.4,61.1,111.8,61.1,112.4,61.1L112.4,61.1z M113.4,66.9v-3h-0.6v3H113.4
			z M116.5,67.3c0.3,0.1,0.4,0.3,0.4,0.3c0,0.1-0.1,0.1-0.2,0.1c-0.2,0-0.2,0-0.3,0.1c-0.3,0.1-0.6,0.2-0.9,0.4
			c-0.4,0.1-1,0.3-1.8,0.4l-0.1-0.1c0.5-0.2,0.9-0.4,1.3-0.7c0.4-0.3,0.7-0.6,0.9-0.8C116.1,67,116.4,67.1,116.5,67.3L116.5,67.3z
			 M115.9,61h1.8c0,0,0.1-0.1,0.3-0.4c0.2-0.3,0.3-0.4,0.4-0.4c0.1,0,0.3,0.1,0.5,0.4c0.2,0.3,0.4,0.4,0.4,0.5
			c0,0.1-0.1,0.1-0.2,0.1h-1.6c-0.2,0.4-0.5,0.7-0.8,1h0.8c0.1-0.1,0.2-0.2,0.3-0.3c0.1-0.1,0.2-0.2,0.3-0.2c0.1,0,0.3,0.1,0.6,0.3
			c0.3,0.3,0.5,0.4,0.5,0.5c0,0.1-0.1,0.2-0.2,0.3c-0.1,0.1-0.2,0.2-0.2,0.3v1.8l0.1,1.8c0,0.1-0.2,0.2-0.5,0.3c-0.1,0-0.3,0-0.3,0
			c-0.2,0-0.2-0.1-0.2-0.3v-0.1h-2v0.2c0,0.1-0.1,0.2-0.4,0.3c-0.1,0-0.2,0-0.3,0c-0.2,0-0.3-0.1-0.3-0.3c0-0.3,0-0.6,0-0.9v-2.7
			c0-0.4,0-0.9-0.1-1.3c0.4,0.1,0.8,0.3,1.1,0.4h0.3c0-0.3,0.1-0.6,0.1-1h-0.4c-0.5,0-0.9,0-1.1,0l-0.1-0.4
			C115,60.9,115.4,61,115.9,61L115.9,61z M117.8,63.5v-1h-2v1H117.8z M117.8,64.9v-1.1h-2v1.1H117.8z M117.8,66.3v-1.2h-2v1.2H117.8
			z M118.3,67.2c0.2,0.1,0.4,0.2,0.6,0.3c0.2,0.1,0.3,0.3,0.3,0.4c0,0.1-0.1,0.3-0.2,0.4c-0.1,0.1-0.2,0.2-0.4,0.2
			c-0.1,0-0.2-0.1-0.3-0.2c-0.4-0.5-0.8-0.8-1.3-1.1l0-0.2C117.4,67,117.8,67.1,118.3,67.2L118.3,67.2z"/>
		<path class="st1" d="M123.2,62.6c0.2,0.2,0.3,0.4,0.3,0.5c0,0.1,0,0.1-0.1,0.1h-1.1v3c0.4-0.1,0.8-0.2,1.1-0.3l0,0.1
			c-0.7,0.6-1.4,1-2.2,1.3c-0.1,0-0.1,0.1-0.1,0.1c0,0,0,0.1,0,0.1c0,0.1-0.1,0.1-0.1,0.1c-0.1,0-0.3-0.2-0.4-0.6
			c0-0.1-0.1-0.3-0.2-0.6c0.4,0,0.7-0.1,1-0.1v-3.2h-0.1c-0.2,0-0.4,0-0.7,0l-0.1-0.4c0.4,0,0.6,0.1,0.8,0.1h0.1v-1.1
			c0-0.5,0-0.9-0.1-1.3c0.3,0,0.6,0.1,1,0.2c0.3,0.1,0.5,0.1,0.5,0.2c0,0.1-0.1,0.2-0.2,0.2c-0.1,0-0.2,0.1-0.2,0.2v1.7h0.1
			c0.1-0.1,0.1-0.2,0.2-0.4c0.1-0.2,0.2-0.3,0.2-0.3C122.9,62.2,123,62.3,123.2,62.6L123.2,62.6z M127.1,62c0.1-0.1,0.1-0.2,0.2-0.2
			s0.3,0.1,0.5,0.2c0.3,0.2,0.5,0.4,0.5,0.4c0,0.1-0.1,0.1-0.2,0.2c-0.1,0.1-0.2,0.2-0.2,0.3c0,1.7-0.1,2.7-0.2,2.9
			c-0.1,0.2-0.2,0.4-0.4,0.5c-0.2,0.1-0.3,0.2-0.4,0.2c-0.1,0-0.2-0.1-0.2-0.4c0-0.3-0.2-0.4-0.4-0.6v0.8c0,0.1-0.1,0.2-0.4,0.3
			c-0.1,0-0.2,0-0.3,0c-0.2,0-0.3-0.1-0.3-0.3c0-0.6,0.1-1.1,0.1-1.6v-1.8l-0.7,0.3v3.7c0,0.2,0.1,0.3,0.2,0.3
			c0.3,0,0.7,0.1,1.3,0.1c0.4,0,0.7,0,1-0.1c0.2,0,0.3-0.1,0.4-0.2c0.1-0.1,0.1-0.2,0.2-0.4c0.1-0.3,0.2-0.6,0.3-1l0.2,0
			c0,0.5,0,0.7,0,0.8c0,0.3,0.1,0.5,0.2,0.6c0.1,0.1,0.2,0.3,0.2,0.4c0,0.2-0.1,0.3-0.4,0.4c-0.2,0.1-0.4,0.1-0.6,0.2
			c-0.4,0.1-0.9,0.1-1.5,0.1c-1,0-1.6,0-1.9-0.1c-0.3-0.1-0.4-0.2-0.5-0.3c-0.1-0.1-0.1-0.3-0.1-0.6v-3.6c-0.3,0.1-0.5,0.2-0.7,0.3
			l-0.3-0.3c0.3,0,0.6-0.1,1-0.2v-1.7c0-0.3,0-0.7-0.1-1c0.3,0,0.6,0.1,1,0.1c0.3,0.1,0.5,0.1,0.5,0.2c0,0.1-0.1,0.2-0.3,0.3
			c-0.1,0-0.2,0.1-0.2,0.2v1.6l0.7-0.3v-1c0-0.6,0-1.1-0.1-1.6c0.3,0,0.6,0.1,1,0.1c0.3,0,0.4,0.1,0.4,0.2c0,0.1-0.1,0.2-0.3,0.2
			c-0.1,0-0.2,0.1-0.2,0.2v1.5l0.6-0.2C126.9,62.2,127,62.1,127.1,62L127.1,62z M126.3,65.5c0.1,0,0.3,0,0.4,0
			c0.1,0,0.2-0.1,0.2-0.3c0-0.3,0-1.2,0-2.7l-0.7,0.2V65.5z"/>
		<path class="st1" d="M134.2,60.4c0.2,0,0.3,0.1,0.3,0.2c0,0-0.1,0.1-0.2,0.2c-0.2,0.1-0.2,0.2-0.2,0.3v0.4h1.9
			c0,0,0.1-0.1,0.3-0.4c0.2-0.3,0.3-0.4,0.4-0.4c0.1,0,0.3,0.1,0.5,0.4c0.2,0.3,0.4,0.4,0.4,0.5c0,0.1-0.1,0.1-0.2,0.1h-1.5
			c0.1,0,0.1,0.1,0.2,0.1c0.3,0.2,0.5,0.3,0.5,0.4c0,0.1-0.1,0.1-0.2,0.1l-0.3,0c-0.3,0.2-0.6,0.3-0.9,0.4c0.4,0.1,0.6,0.2,0.7,0.4
			c0.1,0.1,0.2,0.2,0.2,0.3c0,0.1,0,0.3-0.1,0.3c0,0-0.1,0.1-0.1,0.1h0.4c0,0,0.1-0.1,0.3-0.3c0.2-0.3,0.3-0.4,0.4-0.4
			c0.1,0,0.3,0.2,0.6,0.4c0.2,0.2,0.3,0.3,0.3,0.3c0,0.1-0.1,0.1-0.2,0.1h-6.4v1c0,0.6,0,1.2-0.1,1.6c-0.1,0.4-0.3,0.8-0.5,1.2
			c-0.2,0.3-0.5,0.6-0.9,0.9l-0.1-0.1c0.2-0.5,0.4-0.9,0.5-1.3c0.1-0.5,0.2-1.3,0.2-2.3c0-0.8,0-1.3-0.1-1.7
			c0.5,0.1,0.9,0.3,1.2,0.4h4c-0.1,0-0.2-0.1-0.3-0.2c-0.3-0.2-0.5-0.4-0.8-0.5c0,0-0.1,0-0.1,0c-0.6,0.2-1.5,0.4-2.7,0.6l0-0.1
			c0.9-0.3,1.6-0.5,2.1-0.8c-0.4-0.2-1.1-0.4-1.8-0.6l0-0.1c1,0.1,1.8,0.3,2.4,0.4c0.4-0.2,0.7-0.4,1.1-0.7h-3.9c-0.5,0-0.9,0-1.1,0
			l-0.1-0.4c0.3,0.1,0.7,0.1,1.2,0.1h1.8V61c0-0.3,0-0.5-0.1-0.8C133.4,60.3,133.8,60.3,134.2,60.4L134.2,60.4z M133,64.4
			c0.3,0.1,0.4,0.2,0.4,0.3c0,0.1-0.1,0.1-0.2,0.2c-0.1,0-0.2,0.1-0.2,0.1c-0.1,0.2-0.2,0.3-0.3,0.5h1.2v-0.5c0-0.3,0-0.5-0.1-0.8
			c0.4,0,0.8,0.1,1.1,0.2c0.2,0,0.3,0.1,0.3,0.2c0,0-0.1,0.1-0.2,0.2c-0.1,0.1-0.2,0.2-0.2,0.3v0.6h0.7c0,0,0.1-0.1,0.2-0.3
			c0.2-0.3,0.4-0.4,0.4-0.4c0.1,0,0.2,0.1,0.6,0.4c0.2,0.2,0.3,0.3,0.3,0.3c0,0.1-0.1,0.1-0.2,0.1h-2.1v1.1h0.7c0,0,0.1-0.1,0.3-0.3
			c0.2-0.2,0.3-0.3,0.3-0.3c0.1,0,0.2,0.1,0.4,0.3c0.2,0.2,0.3,0.4,0.3,0.4c0,0.1-0.1,0.1-0.1,0.1h-1.9v1.1h1.1c0,0,0.1-0.1,0.3-0.4
			c0.2-0.3,0.3-0.4,0.4-0.4c0.1,0,0.3,0.1,0.5,0.4c0.2,0.3,0.4,0.4,0.4,0.5c0,0.1-0.1,0.1-0.2,0.1h-5.2c-0.5,0-0.9,0-1.1,0l-0.1-0.4
			c0.3,0,0.7,0.1,1.2,0.1h1.7v-1.1h-0.7c-0.5,0-0.9,0-1.1,0l-0.1-0.4c0.3,0.1,0.7,0.1,1.2,0.1h0.7v-1.1h-1.4
			c-0.1,0.1-0.1,0.2-0.2,0.2c-0.2,0.3-0.5,0.5-0.9,0.8l-0.1-0.1c0.2-0.4,0.4-0.7,0.5-1.1c0.1-0.3,0.2-0.8,0.3-1.3
			C132.4,64.3,132.7,64.3,133,64.4L133,64.4z"/>
		<path class="st1" d="M141.7,62.5c0.3,0.2,0.5,0.3,0.5,0.4c0,0.1-0.1,0.1-0.2,0.2c-0.2,0-0.3,0-0.3,0.1c-0.2,0.3-0.4,0.5-0.6,0.8h0
			c0.2,0.1,0.3,0.1,0.3,0.1c0,0.1-0.1,0.2-0.2,0.2c-0.1,0-0.1,0.1-0.1,0.2v3.7c0,0.1-0.1,0.2-0.4,0.3c-0.1,0-0.2,0-0.3,0
			c-0.2,0-0.3-0.1-0.3-0.3c0-0.6,0.1-1.3,0.1-1.9v-1.5c-0.3,0.2-0.7,0.5-1.1,0.7l-0.1-0.2c0.4-0.4,0.9-0.9,1.2-1.4
			c0.4-0.6,0.7-1.2,0.8-1.7C141.2,62.3,141.4,62.4,141.7,62.5L141.7,62.5z M141.2,60.7c0.3,0.1,0.4,0.3,0.4,0.3
			c0,0.1-0.1,0.1-0.2,0.1c-0.2,0-0.3,0-0.3,0.1c-0.2,0.3-0.5,0.6-0.7,0.9c-0.3,0.3-0.8,0.7-1.4,1l-0.1-0.1c0.4-0.4,0.7-0.8,1-1.2
			c0.3-0.5,0.5-1,0.7-1.5C140.8,60.5,141,60.6,141.2,60.7L141.2,60.7z M143.3,63.2h2c0,0,0.1-0.1,0.3-0.4c0.2-0.3,0.4-0.5,0.4-0.5
			c0.1,0,0.3,0.1,0.6,0.4c0.3,0.3,0.4,0.5,0.4,0.5c0,0.1-0.1,0.1-0.2,0.1h-1.3v3.8c0,0.5-0.2,0.9-0.5,1c-0.3,0.2-0.6,0.3-0.7,0.3
			c-0.1,0-0.2-0.1-0.3-0.3c-0.1-0.3-0.5-0.6-1.2-0.8l0-0.2c0.5,0.1,0.9,0.1,1.3,0.1c0.2,0,0.3-0.1,0.3-0.3v-3.5h-1.3
			c-0.5,0-0.9,0-1.1,0l-0.1-0.4C142.3,63.2,142.7,63.2,143.3,63.2L143.3,63.2z M143.6,61.2h1.2c0,0,0.1-0.1,0.3-0.4
			c0.2-0.3,0.4-0.4,0.4-0.4c0.1,0,0.3,0.1,0.6,0.4c0.3,0.3,0.4,0.4,0.4,0.5c0,0.1-0.1,0.1-0.2,0.1h-2.7c-0.5,0-0.9,0-1.1,0l-0.1-0.4
			C142.7,61.2,143.1,61.2,143.6,61.2L143.6,61.2z"/>
		<path class="st1" d="M150.1,60.5c0.3,0.1,0.5,0.2,0.5,0.2c0,0.1-0.1,0.1-0.3,0.1c0,0-0.1,0-0.1,0c0.5,0.2,0.8,0.3,1,0.5
			c0.2,0.2,0.4,0.5,0.4,0.8c0,0.1-0.1,0.3-0.2,0.4c-0.1,0.1-0.2,0.1-0.3,0.1c-0.2,0-0.3-0.2-0.5-0.5c-0.1-0.4-0.4-0.7-0.7-1.1
			c-0.2,0.5-0.4,0.8-0.7,1.1c-0.2,0.2-0.3,0.4-0.5,0.6c0.3,0,0.6,0,1.1,0c0,0,0.1-0.1,0.2-0.3c0.2-0.2,0.3-0.3,0.3-0.3
			c0.1,0,0.2,0.1,0.4,0.3c0.2,0.2,0.3,0.3,0.3,0.4c0,0.1,0,0.1-0.1,0.1h-0.8v1h0c0,0,0.1-0.1,0.3-0.3c0.2-0.2,0.3-0.3,0.3-0.3
			c0.1,0,0.2,0.1,0.4,0.3c0.2,0.2,0.3,0.4,0.3,0.4c0,0.1-0.1,0.1-0.1,0.1h-1.2v2.4c0.5-0.1,0.9-0.1,1.3-0.2l0,0.1
			c-0.8,0.6-1.7,1-2.6,1.2c-0.1,0-0.1,0-0.1,0.1c0,0,0,0.1,0,0.1c0,0.1-0.1,0.1-0.1,0.1c-0.1,0-0.3-0.2-0.5-0.7
			c-0.1-0.1-0.1-0.3-0.2-0.6c0.4,0,0.9-0.1,1.3-0.1v-2.5c-0.5,0-0.8,0-1,0l-0.1-0.4c0.3,0.1,0.7,0.1,1.2,0.1v-1c-0.2,0-0.4,0-0.6,0
			l-0.1-0.2c-0.2,0.1-0.3,0.3-0.5,0.4l-0.1-0.1c0.2-0.3,0.4-0.8,0.7-1.3c0.2-0.5,0.4-1,0.5-1.7C149.6,60.4,149.9,60.5,150.1,60.5
			L150.1,60.5z M148.9,65.4c0.2,0.2,0.2,0.4,0.2,0.6c0,0.2,0,0.3-0.1,0.4c-0.1,0.1-0.2,0.2-0.4,0.2c-0.1,0-0.1,0-0.2-0.1
			c0,0-0.1-0.2-0.1-0.5c0-0.4-0.1-0.7-0.3-1.1l0.1-0.1C148.5,65.1,148.8,65.3,148.9,65.4L148.9,65.4z M151.5,64.9
			c0.1,0.1,0.2,0.1,0.3,0.2v-1c0-0.4,0-0.8-0.1-1.2c0.4,0.1,0.8,0.2,1.2,0.4h0.3v-2.1c0-0.3,0-0.5-0.1-0.8c0.4,0,0.8,0.1,1.1,0.2
			c0.2,0,0.3,0.1,0.3,0.2c0,0.1-0.1,0.1-0.2,0.2c-0.2,0.1-0.2,0.2-0.2,0.3v2.2h0.5c0.1-0.1,0.1-0.2,0.2-0.2c0.2-0.2,0.3-0.3,0.3-0.3
			c0.1,0,0.3,0.1,0.5,0.3c0.3,0.2,0.4,0.4,0.4,0.4c0,0.1-0.1,0.1-0.2,0.2c-0.2,0.1-0.3,0.2-0.3,0.3v3.5c0,0.3-0.2,0.6-0.5,0.7
			c-0.2,0.1-0.4,0.2-0.6,0.2c-0.1,0-0.1-0.1-0.2-0.3c-0.1-0.3-0.4-0.5-0.9-0.7l0-0.2c0.4,0.1,0.8,0.1,1.1,0.1c0.1,0,0.1-0.1,0.1-0.3
			v-1h-2v2.2c0,0.1-0.1,0.2-0.4,0.3c-0.1,0-0.2,0-0.3,0c-0.2,0-0.3-0.1-0.3-0.3c0-0.3,0-0.6,0-0.8v-2.2c0,0-0.1,0-0.1,0
			c-0.1,0-0.2,0-0.2,0.1c-0.3,0.4-0.6,0.8-0.9,1.2l-0.1-0.1c0.1-0.5,0.2-1.1,0.3-1.8C151,64.7,151.3,64.8,151.5,64.9L151.5,64.9z
			 M152.6,61.6c0.2,0.2,0.3,0.4,0.3,0.7c0,0.2-0.1,0.3-0.2,0.5c-0.1,0.1-0.2,0.2-0.4,0.2c-0.1,0-0.3-0.1-0.4-0.5
			c-0.1-0.4-0.4-0.8-0.7-1.2l0.1-0.1C152,61.2,152.4,61.4,152.6,61.6L152.6,61.6z M154.7,64.5v-1h-2v1H154.7z M154.7,65.9v-1.1h-2
			v1.1H154.7z M155.8,61.2c0.3,0.2,0.4,0.3,0.4,0.4c0,0.1-0.1,0.1-0.2,0.1c-0.2,0-0.3,0-0.3,0.1c-0.1,0.2-0.3,0.4-0.4,0.5
			c-0.2,0.2-0.5,0.4-0.8,0.6l-0.1-0.1c0.2-0.3,0.3-0.6,0.4-0.9c0.1-0.4,0.2-0.7,0.3-1.1C155.3,61,155.6,61.1,155.8,61.2L155.8,61.2z
			"/>
		<path class="st1" d="M158.8,60.7h5.2c0.1-0.1,0.2-0.2,0.3-0.3c0.1-0.1,0.2-0.2,0.3-0.2c0.1,0,0.3,0.1,0.5,0.3
			c0.3,0.3,0.5,0.4,0.5,0.5c0,0.1-0.1,0.2-0.3,0.3c-0.1,0.1-0.2,0.2-0.2,0.3v4.9l0.1,1.8c0,0.1-0.2,0.2-0.5,0.3c-0.1,0-0.2,0-0.3,0
			c-0.2,0-0.3-0.1-0.3-0.3V68h-5.4v0.3c0,0.1-0.1,0.2-0.4,0.2c-0.1,0-0.2,0-0.3,0c-0.2,0-0.3-0.1-0.3-0.3c0-0.6,0.1-1.2,0.1-1.7
			v-4.8c0-0.4,0-0.9-0.1-1.5C158.1,60.4,158.4,60.6,158.8,60.7L158.8,60.7z M164.1,67.8V66h-1.2v0.6c0,0.4-0.1,0.6-0.3,0.8
			c-0.2,0.2-0.4,0.3-0.7,0.3c-0.1,0-0.1-0.1-0.1-0.2c0-0.3-0.3-0.5-0.8-0.8l0-0.2c0.3,0.1,0.6,0.1,0.8,0.1c0.1,0,0.2,0,0.2-0.1V66
			H160c-0.5,0-0.9,0-1.1,0l-0.1-0.4c0.3,0.1,0.7,0.1,1.2,0.1h1.9v-0.1c0-0.1,0-0.4-0.1-0.7c-0.7,0.2-1.6,0.3-2.4,0.4
			c0,0-0.1,0-0.1,0.1c0,0.1-0.1,0.1-0.1,0.1c-0.1,0-0.2-0.1-0.3-0.4c-0.1-0.1-0.1-0.3-0.2-0.6c0.7,0,1.4,0,2.2-0.1v-0.4H160
			c-0.1,0.1-0.2,0.1-0.4,0.2c-0.1,0-0.2,0-0.3,0c-0.2,0-0.2-0.1-0.2-0.3c0-0.3,0-0.5,0-0.8v-0.2c0-0.4,0-0.8,0-1.1
			c0.3,0.1,0.7,0.2,1.1,0.4h0.8v-0.1c0-0.1,0-0.2,0-0.4h-1c-0.5,0-0.9,0-1.1,0l-0.1-0.4c0.3,0.1,0.7,0.1,1.2,0.1h1
			c0-0.2,0-0.4-0.1-0.6c0.2,0,0.5,0.1,0.9,0.1c0.3,0,0.4,0.1,0.4,0.2c0,0.1-0.1,0.1-0.2,0.2c-0.1,0-0.1,0.1-0.2,0.1h0.8
			c0,0,0.1-0.1,0.2-0.3c0.2-0.2,0.3-0.3,0.3-0.3c0.1,0,0.2,0.1,0.4,0.3c0.2,0.2,0.3,0.3,0.3,0.4c0,0.1-0.1,0.1-0.1,0.1h-2v0.5h0.8
			c0.1-0.1,0.2-0.2,0.3-0.3c0.1-0.1,0.1-0.1,0.2-0.1c0.1,0,0.2,0.1,0.4,0.2c0.3,0.2,0.4,0.3,0.4,0.4c0,0.1-0.1,0.1-0.2,0.2
			c-0.1,0.1-0.1,0.1-0.1,0.2v0.1c0,0.2,0,0.6,0,1c0,0.1-0.1,0.2-0.4,0.2c-0.1,0-0.2,0-0.3,0c-0.1,0-0.2,0-0.2-0.1h-1.1v0.3
			c0.2,0,0.4,0,0.6,0c-0.1,0-0.1-0.1-0.1-0.1l0.1-0.1c0.5,0.1,0.8,0.2,1,0.3c0.2,0.1,0.3,0.2,0.3,0.3c0,0.1-0.1,0.2-0.2,0.3
			c-0.1,0.1-0.2,0.1-0.3,0.1c0,0,0,0-0.1,0c0,0-0.1,0-0.1,0.1c-0.1,0-0.2,0.1-0.2,0.2v0.1h0.3c0,0,0.1-0.1,0.2-0.2
			c0.2-0.2,0.2-0.3,0.3-0.3c0.1,0,0.2,0.1,0.4,0.3c0,0,0,0,0,0v-4.6h-5.4v6.8L164.1,67.8L164.1,67.8z M160.6,66.4
			c0.2,0.1,0.2,0.2,0.2,0.3c0,0.2-0.1,0.3-0.2,0.5c-0.1,0.1-0.2,0.2-0.4,0.2c-0.1,0-0.2-0.1-0.2-0.3c-0.1-0.2-0.2-0.5-0.4-0.7
			l0.1-0.1C160.1,66.3,160.4,66.3,160.6,66.4z M161,63.2v-0.5h-1v0.5H161z M161,64v-0.6h-1V64H161z M161.9,63.2h1v-0.5h-1V63.2z
			 M161.9,64h1v-0.6h-1V64z M162.8,65c0,0,0.1,0,0.1,0c-0.1-0.1-0.1-0.2-0.2-0.3c-0.2,0.1-0.3,0.1-0.5,0.1
			C162.5,65,162.7,65,162.8,65L162.8,65z"/>
		<path class="st1" d="M169.5,60.9c0.2,0.2,0.4,0.4,0.4,0.4c0,0.1-0.1,0.1-0.3,0.2c-0.2,0.1-0.3,0.1-0.4,0.2
			c-0.3,0.8-0.6,1.4-0.9,1.9c0.4,0.3,0.7,0.6,0.8,0.9c0.1,0.2,0.2,0.4,0.3,0.6c0.1,0.2,0.1,0.4,0.1,0.7c0,0.3-0.1,0.6-0.2,0.7
			c-0.1,0.2-0.3,0.4-0.4,0.4c-0.2,0.1-0.3,0.2-0.4,0.2c-0.1,0-0.1-0.1-0.2-0.3c-0.1-0.2-0.3-0.4-0.6-0.6v2c0,0.1-0.1,0.2-0.4,0.2
			c-0.1,0-0.2,0-0.3,0c-0.2,0-0.3-0.1-0.3-0.3c0-0.6,0.1-1.1,0.1-1.6v-4.6c0-0.4,0-0.9-0.1-1.5c0.4,0.1,0.7,0.2,1,0.4h0.4
			c0.1-0.1,0.3-0.3,0.4-0.3c0.1-0.1,0.2-0.1,0.3-0.1C169,60.5,169.2,60.6,169.5,60.9L169.5,60.9z M167.8,66c0.2,0,0.4,0.1,0.5,0.1
			c0.1,0,0.2,0,0.2-0.1c0.1-0.1,0.1-0.3,0.1-0.5c0-0.4,0-0.7-0.1-0.9c-0.1-0.3-0.3-0.6-0.5-0.9c0.1-0.7,0.2-1.5,0.3-2.3h-0.6
			L167.8,66L167.8,66z M173.3,60.5c0.3,0.1,0.5,0.2,0.5,0.2c0,0.1-0.1,0.1-0.3,0.1c-0.1,0-0.2,0.1-0.3,0.1c-0.2,0.3-0.3,0.5-0.5,0.7
			c-0.1,0.2-0.3,0.3-0.5,0.4h0.7c0,0,0.1-0.1,0.3-0.4c0.2-0.3,0.4-0.5,0.4-0.5c0.1,0,0.3,0.1,0.6,0.4c0.3,0.3,0.4,0.5,0.4,0.5
			c0,0.1-0.1,0.1-0.2,0.1h-2.1c-0.3,0.4-0.6,0.7-0.9,0.8c0.4,0.4,0.6,0.7,0.8,1.1c0.1-0.1,0.3-0.3,0.4-0.5c0.2-0.3,0.4-0.6,0.5-0.9
			c0.3,0.2,0.5,0.3,0.7,0.4c0.3,0.1,0.4,0.3,0.4,0.3c0,0.1-0.1,0.1-0.2,0.1c-0.2,0-0.3,0-0.3,0.1c-0.2,0.1-0.4,0.3-0.6,0.4
			c-0.2,0.1-0.4,0.2-0.8,0.3c0,0,0,0,0,0.1c0.3,0.4,0.6,0.7,0.9,0.9c0.5,0.3,1,0.6,1.4,0.7l0,0.2c-0.3,0.1-0.5,0.3-0.6,0.5
			c-0.1,0.2-0.1,0.3-0.2,0.3c-0.1,0-0.3-0.1-0.6-0.4c-0.2-0.2-0.4-0.4-0.6-0.7c0,0.1,0,0.2,0,0.3c0,0.6-0.1,1-0.2,1.3
			c-0.2,0.3-0.4,0.5-0.6,0.7c-0.2,0.1-0.4,0.2-0.5,0.2c-0.1,0-0.2-0.1-0.2-0.4c-0.1-0.3-0.5-0.6-1.2-0.8l0-0.2
			c0.4,0.1,0.8,0.1,0.9,0.1c0.4,0,0.6-0.1,0.7-0.2c0.1-0.1,0.2-0.4,0.2-0.8c0-0.2,0-0.3,0-0.5c-0.4,0.3-0.8,0.5-1.2,0.7
			c-0.6,0.3-1.3,0.5-2.2,0.8l-0.1-0.2c0.6-0.3,1.2-0.6,1.6-1c0.5-0.3,1.1-0.8,1.7-1.5c0-0.1,0-0.1,0-0.2c0-0.1,0-0.1,0-0.2
			c-0.3,0.2-0.5,0.3-0.8,0.5c-0.3,0.2-0.8,0.3-1.3,0.5l-0.1-0.2c0.4-0.2,0.7-0.4,0.9-0.7c0.3-0.2,0.6-0.6,1-1c0-0.1-0.1-0.1-0.1-0.2
			c-0.3,0.2-0.5,0.3-0.8,0.4c-0.4,0.2-0.8,0.3-1.2,0.4l-0.1-0.1c0.4-0.2,0.8-0.4,1.2-0.7c0.3-0.3,0.6-0.6,0.9-0.9h-0.8
			c-0.5,0-0.9,0-1.1,0l-0.1-0.4c0.3,0.1,0.7,0.1,1.2,0.1h1.5c0.1-0.2,0.2-0.5,0.3-0.8c0.1-0.3,0.2-0.7,0.3-1.1
			C172.8,60.4,173.1,60.5,173.3,60.5L173.3,60.5z M171.4,60.8c0.2,0.1,0.3,0.3,0.3,0.4c0,0.3-0.1,0.5-0.2,0.6
			c-0.1,0.2-0.3,0.3-0.5,0.3c-0.1,0-0.1,0-0.2-0.1c0,0-0.1-0.2-0.1-0.5c-0.1-0.3-0.2-0.7-0.5-1.1l0.1-0.1
			C170.8,60.5,171.2,60.7,171.4,60.8L171.4,60.8z"/>
		<path class="st1" d="M8,68.1H3.7l2.1-3.7L8,60.6l2.1,3.7l2.1,3.7H8z"/>
		<path class="st1" d="M8.8,67.8H7.1v3.5h1.7V67.8z"/>
		<path class="st1" d="M10.4,58.8l4.7,8.2c0,0,0.6,1,0.3,2.1c-0.3,1-1.1,2.2-2.9,2.2c-1.8,0-2.2,0-2.2,0v-1.6h2.2
			c0,0,0.8,0.1,1.2-0.5c0.4-0.6,0.2-1.1,0.2-1.1l-2.9-5.2L9,59.6c0,0-0.3-0.6-1.1-0.6c-0.7,0-1.1,0.7-1.1,0.7l-4.8,8.3
			c0,0-0.3,0.6,0.1,1.2c0.4,0.6,1,0.6,1,0.6h2.3v1.6H3c0,0-1.3-0.1-2.1-1.2c-0.8-1.1-0.5-2.3-0.1-3c0.4-0.7,4.7-8.2,4.7-8.2
			s0.8-1.4,2.4-1.4C9.6,57.4,10.4,58.8,10.4,58.8z"/>
		<path class="st1" d="M21.5,63.2c0.3,0.2,0.5,0.3,0.5,0.4c0,0.1-0.1,0.1-0.2,0.1c-0.2,0-0.3,0-0.3,0.1c-0.2,0.3-0.3,0.5-0.5,0.7
			c0.2,0.1,0.3,0.1,0.3,0.2c0,0.1-0.1,0.2-0.2,0.2c-0.1,0-0.1,0.1-0.1,0.2v4.3c0,0.1-0.1,0.2-0.4,0.2c-0.1,0-0.2,0-0.3,0
			c-0.2,0-0.3-0.1-0.3-0.3c0.1-0.7,0.1-1.4,0.1-2.1v-1.7c-0.3,0.2-0.7,0.5-1.1,0.7l-0.1-0.2c0.4-0.5,0.8-1,1.1-1.6
			c0.4-0.7,0.6-1.3,0.8-1.9C20.9,62.9,21.2,63,21.5,63.2L21.5,63.2z M21,61.1c0.3,0.2,0.5,0.3,0.5,0.4c0,0.1-0.1,0.1-0.2,0.1
			c-0.2,0-0.3,0-0.3,0.1c-0.2,0.3-0.4,0.6-0.7,0.8c-0.3,0.3-0.7,0.6-1.2,0.9l-0.1-0.2c0.3-0.4,0.5-0.8,0.7-1.2
			c0.2-0.5,0.4-1,0.5-1.5C20.4,60.8,20.7,61,21,61.1L21,61.1z M22.4,66.9c0,0.7,0,1.2-0.1,1.5c-0.1,0.3-0.1,0.5-0.3,0.6
			c-0.1,0.1-0.2,0.1-0.3,0.1c-0.2,0-0.4-0.1-0.5-0.2c-0.1-0.1-0.2-0.3-0.2-0.5c0-0.1,0.1-0.2,0.3-0.4c0.2-0.1,0.4-0.3,0.5-0.5
			c0.1-0.2,0.2-0.4,0.3-0.8L22.4,66.9L22.4,66.9z M22.8,65.7h3.5c0,0,0.1-0.1,0.2-0.3c0.2-0.2,0.3-0.3,0.3-0.3
			c0.1,0,0.3,0.1,0.5,0.3c0.2,0.2,0.3,0.4,0.3,0.4c0,0.1-0.1,0.1-0.2,0.1h-4.7c-0.6,0-1,0-1.2,0l-0.1-0.4
			C21.8,65.7,22.2,65.7,22.8,65.7L22.8,65.7z M22.9,61.7h1v-0.2c0-0.3,0-0.5-0.1-0.8c0.4,0,0.8,0.1,1.1,0.2c0.2,0,0.4,0.1,0.4,0.2
			c0,0-0.1,0.1-0.2,0.1c-0.1,0.1-0.2,0.1-0.2,0.2v0.3h1.2c0,0,0.1-0.1,0.3-0.4c0.2-0.3,0.4-0.4,0.4-0.4c0.1,0,0.3,0.1,0.5,0.4
			c0.2,0.3,0.4,0.4,0.4,0.5c0,0.1-0.1,0.1-0.2,0.1h-2.7v0.8h0.9c0.1-0.1,0.2-0.2,0.4-0.3c0.1-0.1,0.1-0.1,0.2-0.1
			c0.1,0,0.2,0.1,0.5,0.2c0.3,0.2,0.4,0.3,0.4,0.4c0,0.1-0.1,0.2-0.2,0.3c-0.1,0.1-0.1,0.2-0.1,0.3v0.3c0,0.3,0,0.6,0,1.1
			c0,0.1-0.2,0.2-0.5,0.3c-0.1,0-0.2,0-0.3,0c-0.2,0-0.3-0.1-0.3-0.3v-0.1h-2.9v0.1c0,0.1-0.1,0.2-0.4,0.2c-0.1,0-0.2,0-0.3,0
			c-0.2,0-0.3-0.1-0.3-0.2c0-0.1,0-0.3,0-0.5v-1.4c0-0.2,0-0.4-0.1-0.7c0.3,0.1,0.6,0.2,0.9,0.3h1v-0.8h-1c-0.6,0-0.9,0-1.2,0
			l-0.1-0.4C21.9,61.6,22.3,61.6,22.9,61.7L22.9,61.7z M23.8,66.7c0.3,0.1,0.4,0.1,0.4,0.2c0,0.1-0.1,0.2-0.2,0.3
			c-0.1,0-0.2,0.1-0.2,0.2v0.8c0,0.2,0.1,0.3,0.3,0.4c0.2,0.1,0.4,0.1,0.7,0.1c0.3,0,0.5,0,0.6-0.1c0.1,0,0.2-0.1,0.2-0.3
			c0.1-0.2,0.2-0.5,0.3-0.8h0.2c0,0.4,0.1,0.6,0.1,0.8c0,0.2,0.1,0.3,0.2,0.4c0.2,0.1,0.3,0.2,0.3,0.3c0,0.1-0.1,0.3-0.2,0.3
			c-0.1,0.1-0.3,0.1-0.6,0.2c-0.3,0.1-0.6,0.1-1,0.1c-0.5,0-0.9,0-1.1-0.1c-0.3,0-0.4-0.1-0.5-0.2c-0.2-0.1-0.3-0.3-0.3-0.7v-0.8
			c0-0.6,0-1-0.1-1.3C23.1,66.6,23.4,66.6,23.8,66.7L23.8,66.7z M23.4,64.6V63h-0.4v1.6H23.4z M25.3,66.6c0.2,0.2,0.3,0.4,0.3,0.6
			c0,0.2-0.1,0.3-0.2,0.4c-0.1,0.1-0.2,0.1-0.3,0.1c-0.1,0-0.2-0.1-0.3-0.4c-0.1-0.4-0.3-0.8-0.6-1.1l0.1-0.2
			C24.7,66.3,25.1,66.4,25.3,66.6L25.3,66.6z M24.2,64.6h0.4V63h-0.4V64.6z M25.5,64.6h0.4V63h-0.4V64.6z M27.4,67.4
			c0.2,0.2,0.3,0.4,0.3,0.6c0,0.2-0.1,0.4-0.2,0.6c-0.1,0.1-0.2,0.2-0.4,0.2c-0.1,0-0.2,0-0.2-0.1c-0.1-0.1-0.1-0.3-0.2-0.6
			c-0.1-0.4-0.3-0.8-0.6-1.4l0.1-0.1C26.8,66.9,27.2,67.2,27.4,67.4L27.4,67.4z"/>
		<path class="st1" d="M30.7,62.9h0.2v-0.6c0-0.6,0-1.2-0.1-1.6c0.3,0,0.7,0.1,1.1,0.2c0.3,0,0.5,0.1,0.5,0.2c0,0.1-0.1,0.2-0.3,0.2
			c-0.1,0-0.2,0.1-0.2,0.2v1.5H32c0,0,0.1-0.1,0.2-0.3c0.2-0.2,0.3-0.3,0.3-0.3c0.1,0,0.2,0.1,0.4,0.3c0.2,0.2,0.3,0.3,0.3,0.4
			c0,0.1,0,0.1-0.1,0.1h-1.2v1c0.5,0.2,0.9,0.4,1.1,0.6c0.2,0.2,0.4,0.5,0.4,0.9c0,0.2-0.1,0.3-0.2,0.4c-0.1,0.1-0.2,0.1-0.3,0.1
			c-0.2,0-0.3-0.2-0.5-0.5c-0.1-0.3-0.3-0.6-0.5-0.9v4.5c0,0.1-0.1,0.2-0.4,0.3c-0.1,0-0.2,0-0.3,0c-0.2,0-0.3-0.1-0.3-0.3
			c0.1-0.6,0.1-1.1,0.1-1.6v-2.1c-0.2,0.4-0.5,0.8-0.7,1c-0.2,0.3-0.5,0.6-0.8,0.9l-0.1-0.1c0.7-1.4,1.2-2.8,1.5-4.1h-0.1
			c-0.6,0-0.9,0-1.2,0l-0.2-0.4C29.6,62.9,30.1,62.9,30.7,62.9L30.7,62.9z M34.6,63h0.2v-0.5c0-0.7,0-1.3-0.1-1.8
			c0.3,0,0.7,0.1,1.2,0.2c0.3,0.1,0.5,0.1,0.5,0.2c0,0.1-0.1,0.2-0.3,0.2c-0.2,0-0.2,0.1-0.2,0.2V63h0.6c0,0,0.1-0.1,0.3-0.3
			c0.2-0.3,0.3-0.4,0.4-0.4c0.1,0,0.3,0.1,0.5,0.4c0.2,0.3,0.4,0.4,0.4,0.5c0,0.1-0.1,0.1-0.2,0.1h-1.9c0.4,1.1,0.7,1.9,1.1,2.5
			c0.4,0.6,0.8,1,1.2,1.2l0,0.2c-0.3,0.1-0.5,0.3-0.6,0.6c-0.1,0.2-0.2,0.4-0.3,0.4c-0.1,0-0.2-0.2-0.4-0.7
			c-0.2-0.5-0.5-1.1-0.7-1.8c-0.1-0.4-0.2-0.9-0.3-1.3v3.3c0,0.6,0,1.2,0,1.8c0,0.1-0.2,0.2-0.5,0.3c-0.2,0-0.3,0-0.3,0
			c-0.2,0-0.3-0.1-0.3-0.3c0.1-0.6,0.1-1.2,0.1-1.8v-2.3c-0.1,0.2-0.2,0.4-0.3,0.6c-0.3,0.6-0.6,1.1-1,1.5c-0.4,0.4-0.8,0.8-1.2,1.1
			l-0.1-0.1c0.4-0.5,0.9-1.2,1.2-2.1c0.4-0.9,0.7-1.9,1-3c-0.5,0-0.8,0-1,0l-0.1-0.4C33.5,62.9,34,63,34.6,63L34.6,63z"/>
		<path class="st1" d="M41.1,61.4h0.3c0.1-0.1,0.3-0.2,0.4-0.3c0.2-0.1,0.3-0.2,0.3-0.2c0.1,0,0.3,0.1,0.5,0.3
			c0.3,0.3,0.5,0.5,0.5,0.6c0,0.1-0.1,0.1-0.3,0.2c-0.2,0-0.3,0.1-0.4,0.2l-1,2h0.5c0.1-0.1,0.2-0.2,0.3-0.2
			c0.1-0.1,0.3-0.2,0.3-0.2c0.1,0,0.3,0.1,0.6,0.3c0.3,0.3,0.4,0.5,0.4,0.6c0,0.1-0.1,0.2-0.3,0.2c-0.2,0.1-0.3,0.2-0.3,0.2
			c-0.2,0.9-0.4,1.6-0.6,2.2c-0.1,0.1-0.1,0.2-0.2,0.4c0.2,0.2,0.4,0.3,0.8,0.4c0.5,0.2,1.4,0.3,2.8,0.3c1,0,2.1-0.1,3.2-0.2
			l0.1,0.2c-0.4,0.2-0.6,0.5-0.6,0.7c-0.1,0.3-0.2,0.4-0.3,0.4c-2.3,0-3.9-0.1-4.6-0.3c-0.7-0.2-1.3-0.5-1.7-1
			c-0.1,0.1-0.2,0.2-0.3,0.4c-0.5,0.5-0.9,0.8-1.3,1l-0.2-0.1c0.6-0.6,1-1.3,1.4-2c-0.1-0.4-0.2-0.8-0.3-1.3c0-0.2,0-0.3-0.1-0.3
			c0,0,0,0.1-0.1,0.3c0,0.3-0.1,0.5-0.1,0.7c0,0.2-0.1,0.3-0.1,0.3c0,0.1,0.1,0.1,0.1,0.2c0,0.1,0,0.1,0,0.1c0,0.1,0,0.1-0.1,0.1
			c-0.1,0-0.2-0.1-0.4-0.3c-0.1-0.1-0.3-0.3-0.5-0.4c0.3-0.3,0.6-0.7,0.8-1.1c0.1-0.2,0.2-0.3,0.3-0.3c0.2,0,0.3,0.1,0.3,0.4
			c0.1,0.3,0.2,0.6,0.3,0.8c0.2-0.6,0.3-1.4,0.4-2.3h-0.6L41,64.8C41,64.9,40.9,65,40.8,65c-0.1,0-0.2,0-0.3,0c-0.1,0-0.2,0-0.4-0.1
			c-0.1,0-0.1-0.1-0.1-0.2l1.4-3.1h-0.4c-0.4,0-0.7,0-1,0l-0.2-0.4C40.3,61.4,40.7,61.4,41.1,61.4L41.1,61.4z M44.6,61.7
			c0-0.4-0.1-0.7-0.1-1c0.3,0,0.7,0.1,1.1,0.2c0.3,0,0.5,0.1,0.5,0.2c0,0.1-0.1,0.2-0.3,0.3c-0.1,0-0.2,0.1-0.2,0.2v0.2h0.7
			c0.1-0.1,0.2-0.2,0.3-0.3c0.1-0.1,0.2-0.2,0.3-0.2c0.1,0,0.3,0.1,0.5,0.3c0.3,0.2,0.4,0.4,0.4,0.4c0,0.1-0.1,0.2-0.2,0.3
			c-0.1,0.1-0.2,0.2-0.2,0.3v0.5h0.1c0-0.1,0.1-0.2,0.2-0.3c0.1-0.2,0.1-0.3,0.2-0.3c0.1,0,0.2,0.1,0.3,0.3c0.1,0.2,0.2,0.3,0.2,0.4
			c0,0.1,0,0.1-0.1,0.1h-0.9c0,0.5,0,0.7,0,0.9v0.3c0,0.1-0.2,0.2-0.5,0.3c-0.1,0-0.3,0-0.3,0c-0.2,0-0.2-0.1-0.3-0.2h-0.9v1h0.9
			c0,0,0.1-0.1,0.2-0.3c0.2-0.2,0.3-0.4,0.3-0.4c0.1,0,0.3,0.1,0.5,0.4c0.2,0.2,0.3,0.4,0.3,0.4c0,0.1-0.1,0.2-0.1,0.2h-2.1v1h1
			c0,0,0.1-0.1,0.3-0.4c0.2-0.3,0.4-0.4,0.4-0.4c0.1,0,0.3,0.1,0.6,0.4c0.3,0.3,0.4,0.4,0.4,0.5c0,0.1-0.1,0.2-0.2,0.2h-2.5v0.7
			c0,0.1-0.2,0.2-0.5,0.3c-0.1,0-0.2,0-0.3,0c-0.2,0-0.3-0.1-0.3-0.3c0-0.3,0-0.5,0-0.7H44c-0.6,0-0.9,0-1.2,0l-0.1-0.4
			c0.3,0.1,0.7,0.1,1.3,0.1h0.7c0-0.2,0-0.5,0-0.7v-0.3h-0.3c-0.6,0-0.9,0-1.2,0L43,65.4c0.3,0.1,0.7,0.1,1.3,0.1h0.3v-1
			c-0.5,0-0.8,0-1.1,0l-0.1-0.4c0.3,0.1,0.8,0.1,1.2,0.1v-1h-1c-0.2,0-0.4,0-0.8,0l-0.2-0.4c0.4,0.1,0.7,0.1,0.9,0.1h1v-0.5
			c0-0.1,0-0.3,0-0.4c-0.6,0-1.1,0-1.4,0l-0.2-0.4C43.6,61.7,44.1,61.7,44.6,61.7L44.6,61.7z M45.7,62.9h0.9v-1h-0.9V62.9z
			 M45.7,64.2h0.9v-1h-0.9V64.2z"/>
		<path class="st1" d="M51.6,62.6h0.8c0,0,0.1-0.1,0.3-0.4c0.2-0.3,0.4-0.4,0.4-0.4c0.1,0,0.3,0.1,0.6,0.4c0.3,0.3,0.4,0.4,0.4,0.5
			c0,0.1-0.1,0.2-0.2,0.2h-2.3c-0.6,0-0.9,0-1.2,0l-0.1-0.4C50.5,62.6,51,62.6,51.6,62.6z M52,61.4h0.2c0,0,0.1-0.1,0.3-0.4
			c0.2-0.3,0.4-0.4,0.4-0.4c0.1,0,0.3,0.1,0.5,0.4c0.2,0.3,0.4,0.4,0.4,0.5c0,0.1-0.1,0.1-0.2,0.1H52c-0.6,0-0.9,0-1.2,0l-0.2-0.4
			C51,61.3,51.4,61.3,52,61.4L52,61.4z M52,63.9h0.2c0,0,0.1-0.1,0.3-0.4c0.2-0.3,0.4-0.4,0.4-0.4c0.1,0,0.3,0.1,0.5,0.4
			c0.2,0.3,0.4,0.4,0.4,0.5c0,0.1-0.1,0.2-0.2,0.2H52c-0.6,0-0.9,0-1.2,0l-0.2-0.4C51,63.9,51.4,63.9,52,63.9L52,63.9z M52,66.3h0.4
			c0.1-0.1,0.3-0.3,0.4-0.4c0.1-0.1,0.2-0.1,0.2-0.1c0.1,0,0.2,0.1,0.5,0.2c0.3,0.2,0.5,0.4,0.5,0.4c0,0.1-0.1,0.2-0.2,0.3
			c-0.1,0.1-0.2,0.2-0.2,0.3v0.8c0,0.3,0,0.7,0,1.2c0,0.1-0.2,0.2-0.5,0.3c-0.1,0-0.3,0-0.3,0c-0.2,0-0.3-0.1-0.3-0.3v-0.3h-0.8v0.4
			c0,0.1-0.2,0.2-0.5,0.3c-0.1,0-0.2,0-0.3,0c-0.2,0-0.3-0.1-0.3-0.3c0-0.3,0-0.7,0-1v-1c0-0.5,0-0.9-0.1-1.4
			C51.1,66,51.5,66.2,52,66.3L52,66.3z M52.1,65.1h0.2c0,0,0.1-0.1,0.3-0.4c0.2-0.3,0.4-0.4,0.4-0.4c0.1,0,0.3,0.1,0.5,0.4
			c0.2,0.3,0.4,0.4,0.4,0.5c0,0.1-0.1,0.2-0.2,0.2h-1.6c-0.6,0-0.9,0-1.2,0L50.7,65C51.1,65.1,51.5,65.1,52.1,65.1L52.1,65.1z
			 M52.6,68.5v-1.9h-0.8v1.9H52.6z M55.3,65.2h1.8c0.1-0.1,0.2-0.2,0.3-0.2c0.2-0.1,0.3-0.2,0.4-0.2c0.1,0,0.3,0.1,0.6,0.4
			c0.3,0.3,0.5,0.5,0.5,0.6c0,0.1-0.1,0.1-0.3,0.2c-0.2,0-0.3,0.1-0.4,0.1c-0.2,0.5-0.5,1-0.9,1.4c-0.1,0.1-0.2,0.2-0.2,0.3
			c0.7,0.3,1.4,0.6,2.2,0.8l0,0.2c-0.3,0.1-0.5,0.3-0.6,0.4c-0.1,0.2-0.2,0.4-0.3,0.4c-0.1,0-0.4-0.1-0.7-0.3
			c-0.4-0.2-0.8-0.5-1.3-0.9c0,0,0,0,0,0c-0.1,0.1-0.2,0.2-0.4,0.2c-0.6,0.4-1.4,0.7-2.4,1l-0.1-0.2c0.7-0.4,1.4-0.9,2.2-1.6l0,0
			c-0.1-0.2-0.2-0.3-0.3-0.5c-0.3-0.4-0.5-1-0.7-1.8c-0.2,0-0.4,0-0.5,0L54,65.1C54.4,65.2,54.9,65.2,55.3,65.2L55.3,65.2z
			 M55.8,61.3h0.6c0.1-0.1,0.2-0.2,0.3-0.3c0.1-0.1,0.3-0.2,0.3-0.2c0.1,0,0.3,0.1,0.6,0.3c0.3,0.2,0.4,0.4,0.4,0.5
			c0,0.1-0.1,0.2-0.2,0.3c-0.2,0.1-0.3,0.2-0.3,0.3v0.9c0,0.2,0,0.3,0.1,0.3c0,0,0.1,0.1,0.2,0.1l0.2,0c0.1,0,0.2-0.1,0.2-0.3
			c0-0.2,0.1-0.5,0.2-0.8l0.2,0l0,0.5c0,0.2,0.1,0.3,0.2,0.5c0.2,0.2,0.3,0.3,0.3,0.4c0,0.2-0.1,0.4-0.4,0.5
			c-0.3,0.1-0.6,0.2-0.9,0.2c-0.6,0-0.9,0-0.9-0.1c-0.3-0.1-0.4-0.4-0.4-0.9v-1.7h-0.8c0,0.7-0.1,1.3-0.2,1.7
			c-0.1,0.4-0.4,0.7-0.6,1c-0.3,0.2-0.7,0.5-1.1,0.6l-0.1-0.2c0.2-0.2,0.4-0.4,0.6-0.7c0.1-0.2,0.2-0.4,0.3-0.7
			c0.1-0.4,0.1-0.8,0.1-1.2c0-0.5,0-0.9-0.1-1.2C55.1,61,55.5,61.2,55.8,61.3L55.8,61.3z M55.6,66.6c0.2,0.2,0.4,0.4,0.6,0.6
			c0.4-0.5,0.7-1.1,0.9-1.7h-2.2C55.1,65.9,55.3,66.2,55.6,66.6z"/>
		<path class="st1" d="M63.5,62.5c0.2,0.2,0.3,0.4,0.3,0.5c0,0.1,0,0.1-0.1,0.1h-0.9v0.5c0.3,0.2,0.5,0.4,0.6,0.5
			c0.2,0.2,0.3,0.4,0.3,0.6c0,0.2-0.1,0.3-0.1,0.4c-0.1,0.1-0.2,0.2-0.3,0.2c-0.1,0-0.1,0-0.2-0.1c0-0.1-0.1-0.2-0.1-0.5
			c0-0.1-0.1-0.2-0.1-0.3v3.4c0,0.6,0,1.1,0,1.6c0,0.1-0.2,0.2-0.5,0.2c-0.1,0-0.2,0-0.3,0c-0.2,0-0.3-0.1-0.3-0.3
			c0-0.6,0-1.1,0-1.6v-2.1c-0.1,0.3-0.2,0.6-0.3,0.7c-0.2,0.3-0.3,0.6-0.5,0.9l-0.2-0.1c0.4-1.4,0.7-2.8,0.9-4.1c-0.2,0-0.4,0-0.7,0
			l-0.2-0.4c0.4,0.1,0.7,0.1,0.9,0.1h0.1v-0.6c0-0.6,0-1.1-0.1-1.6c0.3,0,0.6,0.1,1.1,0.1c0.3,0,0.4,0.1,0.4,0.2
			c0,0.1-0.1,0.2-0.3,0.2c-0.1,0-0.2,0.1-0.2,0.2v1.4c0-0.1,0.1-0.2,0.2-0.3c0.1-0.2,0.2-0.3,0.2-0.3C63.2,62.2,63.3,62.3,63.5,62.5
			L63.5,62.5z M65.3,61c0.3,0.1,0.4,0.2,0.4,0.3c0,0.1-0.1,0.1-0.2,0.1c-0.1,0-0.2,0-0.2,0.1c-0.3,0.3-0.6,0.6-0.9,0.9
			c0.1,0.1,0.2,0.1,0.2,0.1c0.2,0.1,0.2,0.3,0.2,0.4c0.1-0.3,0.2-0.6,0.3-0.9c0.3,0.1,0.6,0.2,0.8,0.3c0.1,0,0.1,0,0.1,0.1
			c0-0.9-0.1-1.5-0.1-1.8c0.3,0.1,0.6,0.1,0.9,0.1c0.3,0,0.5,0.1,0.5,0.2c0,0.1-0.1,0.1-0.2,0.2c-0.2,0.1-0.2,0.1-0.3,0.1
			c0,1.6,0.1,2.8,0.2,3.8c0,0.2,0.1,0.4,0.1,0.6h1.2c0,0,0.1-0.1,0.2-0.3c0.2-0.2,0.3-0.3,0.3-0.3c0.1,0,0.2,0.1,0.5,0.3
			c0.2,0.2,0.3,0.4,0.3,0.4c0,0.1-0.1,0.2-0.1,0.2h-2.3c0.1,0.5,0.2,0.8,0.4,1.1c0.2-0.3,0.3-0.6,0.5-0.9c0.3,0.2,0.5,0.3,0.6,0.4
			c0.3,0.2,0.5,0.3,0.5,0.4c0,0.1-0.1,0.1-0.2,0.1c-0.1,0-0.2,0.1-0.2,0.1c-0.2,0.2-0.4,0.5-0.6,0.6c0.2,0.2,0.4,0.3,0.6,0.3
			c0.1,0,0.2-0.1,0.3-0.3c0.1-0.2,0.3-0.5,0.4-0.7l0.2,0.1c-0.1,0.3-0.1,0.6-0.2,0.7c-0.1,0.3-0.1,0.5-0.1,0.5c0,0.1,0,0.2,0.1,0.3
			c0.1,0.2,0.2,0.3,0.2,0.4c0,0.3-0.1,0.4-0.4,0.4c-0.6,0-1.2-0.4-1.8-1.1c-0.4,0.3-0.8,0.4-1.1,0.6c-0.5,0.2-1,0.3-1.5,0.5
			l-0.1-0.1c0.7-0.3,1.2-0.6,1.6-0.9c0.2-0.2,0.4-0.4,0.7-0.6c-0.3-0.5-0.5-1-0.7-1.6c0-0.1,0-0.1,0-0.2h-0.9
			c-0.1,0.3-0.1,0.5-0.2,0.7c0.4,0.1,0.7,0.2,0.8,0.3c0.2,0.2,0.3,0.3,0.3,0.5c0,0.2-0.1,0.3-0.2,0.4c-0.1,0.1-0.2,0.1-0.3,0.1
			s-0.3-0.1-0.4-0.4c-0.1-0.2-0.2-0.4-0.4-0.7c-0.1,0.3-0.3,0.6-0.4,0.9c-0.2,0.3-0.4,0.6-0.7,0.8c-0.3,0.3-0.6,0.5-1,0.8L63,69.4
			c0.3-0.3,0.5-0.6,0.7-1c0.2-0.3,0.3-0.6,0.5-1.1c0.1-0.4,0.2-0.8,0.3-1.4c-0.5,0-0.8,0-1,0l-0.2-0.4c0.3,0.1,0.7,0.1,1.3,0.1h1.6
			c-0.1-0.2-0.1-0.5-0.1-0.7c0,0,0,0.1-0.1,0.1c-0.1,0.1-0.2,0.2-0.4,0.2c-0.1,0-0.1,0-0.2-0.1c0,0-0.1-0.2-0.1-0.4
			c0-0.1,0-0.1,0-0.1c-0.4,0.3-0.7,0.5-1.1,0.6c-0.1,0-0.1,0-0.1,0.1c0,0,0,0.1,0,0.1c0,0.1-0.1,0.1-0.1,0.1c-0.1,0-0.2-0.2-0.4-0.6
			c0-0.1-0.1-0.3-0.2-0.5c0.2,0,0.4,0,0.6,0c0.2-0.3,0.3-0.6,0.5-0.9c-0.1,0.1-0.2,0.1-0.3,0.1s-0.2-0.1-0.3-0.3
			c-0.1-0.3-0.3-0.6-0.6-1l0.1-0.1c0.2,0.1,0.4,0.1,0.5,0.2c0.2-0.5,0.3-1,0.4-1.5C64.7,60.8,65,60.9,65.3,61L65.3,61z M66.1,63.2
			c0-0.1,0-0.3,0-0.4c-0.1,0-0.1,0-0.2,0.1c-0.4,0.5-0.8,1-1.3,1.5c0.3,0,0.6,0,0.9,0c0-0.2-0.1-0.3-0.1-0.5l0.1-0.1
			c0.3,0.2,0.6,0.3,0.7,0.4c0,0,0.1,0.1,0.1,0.1C66.1,63.9,66.1,63.6,66.1,63.2L66.1,63.2z M68.6,61c0.3,0.1,0.4,0.2,0.4,0.3
			c0,0.1-0.1,0.1-0.2,0.1c-0.1,0-0.2,0-0.2,0.1c-0.2,0.3-0.5,0.6-0.9,0.9c0.1,0.1,0.1,0.1,0.2,0.1c0.1,0.1,0.2,0.2,0.2,0.4
			c0,0.1-0.1,0.3-0.2,0.4c-0.1,0.1-0.2,0.1-0.3,0.1c-0.1,0-0.2-0.1-0.2-0.3c-0.1-0.3-0.2-0.6-0.4-0.8l0.1-0.1c0.1,0,0.2,0.1,0.3,0.1
			c0.1-0.5,0.3-1,0.3-1.5C68,60.8,68.3,60.9,68.6,61L68.6,61z M69.4,62.2c0.3,0.1,0.4,0.2,0.4,0.3c0,0.1-0.1,0.1-0.2,0.1
			c-0.1,0-0.2,0-0.2,0.1c-0.4,0.5-0.8,0.9-1.2,1.4c0.3,0,0.5,0,0.8-0.1c0-0.1-0.1-0.2-0.1-0.4l0.1-0.1c0.3,0.1,0.5,0.3,0.7,0.4
			c0.2,0.2,0.3,0.3,0.3,0.5c0,0.2-0.1,0.4-0.2,0.5C69.5,65,69.4,65,69.3,65c-0.1,0-0.1,0-0.1-0.1c0,0-0.1-0.2-0.1-0.4
			c0-0.1,0-0.2-0.1-0.3c-0.2,0.2-0.5,0.3-0.7,0.5c0.1,0,0.2,0.1,0.2,0.1c0.1,0.1,0.2,0.2,0.2,0.3c0,0.1-0.1,0.3-0.2,0.4
			c-0.1,0.1-0.2,0.1-0.3,0.1c-0.1,0-0.2-0.1-0.2-0.2c-0.1-0.1-0.1-0.3-0.2-0.4v0c0,0,0,0.1,0,0.1c0,0.1,0,0.1-0.1,0.1
			c-0.1,0-0.2-0.2-0.4-0.6c-0.1-0.1-0.1-0.3-0.2-0.5c0.2,0,0.4,0,0.5,0c0.4-0.7,0.7-1.4,0.9-2.2C68.8,62,69.1,62.1,69.4,62.2
			L69.4,62.2z"/>
		<path class="st1" d="M74.3,62.5c0.2,0.2,0.3,0.4,0.3,0.5c0,0.1-0.1,0.1-0.1,0.1h-1v1.1c0.4,0.1,0.6,0.3,0.8,0.5
			c0.2,0.2,0.3,0.4,0.3,0.7c0,0.1-0.1,0.3-0.2,0.4c-0.1,0.1-0.2,0.1-0.3,0.1c-0.2,0-0.3-0.1-0.4-0.5c-0.1-0.2-0.2-0.4-0.3-0.6v2.9
			c0,0.6,0,1.1,0,1.6c0,0.1-0.2,0.2-0.5,0.2c-0.1,0-0.2,0-0.3,0c-0.2,0-0.3-0.1-0.3-0.3c0-0.6,0-1.1,0-1.6v-2.5
			c-0.2,0.5-0.4,0.8-0.5,1.1c-0.2,0.3-0.4,0.6-0.6,0.9l-0.1-0.1c0.5-1.4,0.9-2.7,1-4h0c-0.2,0-0.4,0-0.8,0l-0.2-0.4
			c0.4,0.1,0.7,0.1,0.9,0.1h0.2v-0.6c0-0.6,0-1.1-0.1-1.6c0.3,0,0.6,0.1,1,0.1c0.3,0,0.4,0.1,0.4,0.2c0,0.1-0.1,0.2-0.2,0.2
			c-0.1,0-0.2,0.1-0.2,0.2v1.5h0.1c0.1-0.1,0.1-0.2,0.2-0.4c0.1-0.2,0.2-0.3,0.2-0.3C74,62.2,74.2,62.3,74.3,62.5L74.3,62.5z
			 M75.6,61.9v-0.4c0-0.3,0-0.5-0.1-0.8c0.4,0,0.8,0.1,1.2,0.2c0.2,0,0.4,0.1,0.4,0.2c0,0-0.1,0.1-0.2,0.2c-0.2,0.1-0.2,0.2-0.2,0.3
			v0.4h0.9v-0.4c0-0.3,0-0.5-0.1-0.8c0.4,0,0.8,0.1,1.2,0.2c0.2,0,0.4,0.1,0.4,0.2c0,0-0.1,0.1-0.2,0.2c-0.2,0.1-0.2,0.2-0.2,0.3
			v0.4h0.1c0,0,0.1-0.1,0.3-0.3c0.2-0.3,0.3-0.4,0.4-0.4c0.1,0,0.3,0.1,0.5,0.4c0.2,0.3,0.3,0.4,0.3,0.5c0,0.1-0.1,0.2-0.2,0.2h-1.4
			v0.8h0c0,0,0.1-0.1,0.2-0.3c0.2-0.2,0.3-0.3,0.3-0.3c0.1,0,0.3,0.1,0.5,0.3c0.2,0.2,0.3,0.4,0.3,0.4c0,0.1-0.1,0.1-0.1,0.1h-1.3
			V64h0.2c0,0,0.1-0.1,0.3-0.3c0.2-0.3,0.3-0.4,0.4-0.4c0.1,0,0.3,0.1,0.5,0.4c0.2,0.3,0.4,0.4,0.4,0.5c0,0.1-0.1,0.2-0.2,0.2h-2.5
			V65h0.6c0.1-0.1,0.2-0.2,0.2-0.3c0.2-0.2,0.3-0.3,0.4-0.3c0.1,0,0.3,0.1,0.6,0.3c0.3,0.2,0.4,0.4,0.4,0.5c0,0.1-0.1,0.2-0.2,0.3
			c-0.2,0.1-0.3,0.2-0.3,0.4v1.4c0-0.1,0.1-0.2,0.1-0.3c0.1-0.2,0.2-0.3,0.3-0.3c0.1,0,0.2,0.1,0.3,0.3c0.2,0.3,0.3,0.5,0.3,0.6
			c0,0.1-0.1,0.2-0.1,0.2h-0.8v1c0,0.3-0.2,0.6-0.5,0.8c-0.3,0.1-0.5,0.2-0.7,0.2c-0.1,0-0.1-0.1-0.2-0.4c-0.1-0.3-0.4-0.5-1-0.7
			l0-0.2c0.5,0.1,0.9,0.1,1.1,0.1c0.1,0,0.2-0.1,0.2-0.3v-0.5h-2.5v1.7c0,0.1-0.2,0.2-0.5,0.3c-0.1,0-0.2,0-0.3,0
			c-0.2,0-0.3-0.1-0.3-0.3c0.1-0.6,0.1-1.2,0.1-1.7c-0.3,0-0.5,0-0.8,0l-0.2-0.4c0.4,0.1,0.7,0.1,1,0.1v-1.1c0-0.5,0-1-0.1-1.7
			c0.4,0.1,0.9,0.3,1.3,0.5h0.6v-0.7h-1c-0.6,0-0.9,0-1.2,0L74.2,64c0.3,0.1,0.7,0.1,1.3,0.1h0.1v-0.9c-0.4,0-0.7,0-0.8,0l-0.2-0.4
			c0.2,0,0.6,0.1,1,0.1v-0.8c-0.6,0-1,0-1.2,0l-0.2-0.4C74.6,61.8,75,61.8,75.6,61.9L75.6,61.9z M76.5,66.1v-0.8h-0.7v0.8H76.5z
			 M76.5,67.3v-0.9h-0.7v0.9H76.5z M77.5,62.1h-0.9v0.8h0.9V62.1z M77.5,63.2h-0.9V64h0.9V63.2z M77.6,66.2h0.8v-0.8h-0.8V66.2z
			 M77.6,67.3h0.8v-0.9h-0.8V67.3z"/>
	</g>
	<g>
		<g>
			<g>
				<path class="st1" d="M118.7,39.1v-0.1c0.2,0,0.2-0.1,0.2-0.2c0-0.1-0.1-0.3-0.2-0.5H118c0,0.1-0.1,0.3-0.1,0.4
					c-0.1,0.3,0,0.3,0.3,0.3v0.1h-0.9v-0.1c0.2,0,0.3-0.1,0.4-0.4l0.7-2.1l0.2,0c0.2,0.7,0.5,1.4,0.7,2.1c0.1,0.4,0.2,0.4,0.4,0.4
					v0.1H118.7z M118.4,37.1c-0.1,0.3-0.2,0.6-0.3,0.9h0.6L118.4,37.1z"/>
				<path class="st1" d="M120.9,39.1H120v-0.1c0.2,0,0.2,0,0.2-0.3v-0.9c0-0.2,0-0.2-0.2-0.3v-0.1c0.2,0,0.4-0.1,0.6-0.2
					c0,0.1,0,0.3,0,0.4c0.1-0.3,0.3-0.4,0.4-0.4c0.1,0,0.2,0.1,0.2,0.2c0,0.2-0.1,0.3-0.2,0.3c0,0-0.1,0-0.1,0
					c-0.1-0.1-0.1-0.1-0.2-0.1c-0.1,0-0.2,0.1-0.2,0.2v0.8c0,0.2,0,0.3,0.3,0.3V39.1z"/>
				<path class="st1" d="M123,38.7c-0.2,0.3-0.4,0.4-0.6,0.4c-0.5,0-0.8-0.4-0.8-0.9c0-0.3,0.1-0.6,0.4-0.8c0.2-0.2,0.4-0.2,0.6-0.2
					c0.1,0,0.3,0,0.3,0.1c0.1,0,0.1,0.1,0.1,0.1c0,0.1-0.1,0.2-0.1,0.2c0,0,0,0-0.1,0c-0.1-0.1-0.3-0.2-0.4-0.2
					c-0.2,0-0.4,0.2-0.4,0.6c0,0.5,0.3,0.7,0.5,0.7C122.6,38.8,122.8,38.7,123,38.7L123,38.7z"/>
				<path class="st1" d="M124.3,39.1v-0.1c0.2,0,0.2-0.1,0.2-0.3V38c0-0.3-0.1-0.4-0.3-0.4c-0.1,0-0.2,0-0.3,0.1v1
					c0,0.2,0,0.3,0.2,0.3v0.1h-0.8v-0.1c0.2,0,0.2,0,0.2-0.3v-1.9c0-0.2,0-0.2-0.2-0.3v-0.1c0.2,0,0.5-0.1,0.6-0.1
					c0,0.2,0,0.3,0,0.5v0.8c0.1-0.1,0.3-0.3,0.5-0.3c0.3,0,0.5,0.2,0.5,0.7v0.7c0,0.3,0,0.3,0.2,0.3v0.1H124.3z"/>
				<path class="st1" d="M125.4,39.1v-0.1c0.2,0,0.2,0,0.2-0.3v-0.8c0-0.3,0-0.3-0.2-0.3v-0.1c0.2,0,0.4-0.1,0.6-0.1
					c0,0.2,0,0.3,0,0.5v0.9c0,0.3,0,0.3,0.2,0.3v0.1H125.4z M125.8,36.9c-0.1,0-0.2-0.1-0.2-0.3c0-0.2,0.1-0.3,0.2-0.3
					c0.1,0,0.2,0.1,0.2,0.3C126.1,36.8,126,36.9,125.8,36.9z"/>
				<path class="st1" d="M127.4,39.1c-0.1,0-0.1,0-0.1,0c-0.3,0-0.4-0.1-0.4-0.5v-1.1h-0.2l0,0l0.1-0.1h0.2v-0.3
					c0.1-0.1,0.3-0.2,0.4-0.3l0,0c0,0.1,0,0.3,0,0.6h0.4c0,0,0,0.2,0,0.2h-0.3v1c0,0.3,0.1,0.4,0.2,0.4c0.1,0,0.1,0,0.2,0l0,0.1
					L127.4,39.1z"/>
				<path class="st1" d="M129.3,38.7c-0.2,0.3-0.5,0.4-0.6,0.4c-0.5,0-0.7-0.4-0.7-0.9c0-0.3,0.1-0.5,0.3-0.7
					c0.2-0.2,0.4-0.3,0.6-0.3c0.3,0,0.6,0.3,0.6,0.6c0,0.1,0,0.1-0.1,0.1c-0.1,0-0.6,0-0.9,0.1c0,0.5,0.2,0.7,0.5,0.7
					c0.1,0,0.3-0.1,0.4-0.2L129.3,38.7z M128.7,37.4c-0.2,0-0.3,0.2-0.3,0.5c0.2,0,0.3,0,0.5,0c0.1,0,0.1,0,0.1-0.1
					C128.9,37.6,128.8,37.4,128.7,37.4z"/>
				<path class="st1" d="M131.1,38.7c-0.2,0.3-0.4,0.4-0.6,0.4c-0.5,0-0.8-0.4-0.8-0.9c0-0.3,0.1-0.6,0.4-0.8
					c0.2-0.2,0.4-0.2,0.6-0.2c0.1,0,0.3,0,0.3,0.1c0.1,0,0.1,0.1,0.1,0.1c0,0.1-0.1,0.2-0.2,0.2c0,0,0,0-0.1,0
					c-0.1-0.1-0.3-0.2-0.4-0.2c-0.2,0-0.4,0.2-0.4,0.6c0,0.5,0.3,0.7,0.5,0.7C130.8,38.8,130.9,38.7,131.1,38.7L131.1,38.7z"/>
				<path class="st1" d="M132.2,39.1c-0.1,0-0.1,0-0.1,0c-0.3,0-0.4-0.1-0.4-0.5v-1.1h-0.2l0,0l0.1-0.1h0.2v-0.3
					c0.1-0.1,0.3-0.2,0.4-0.3l0,0c0,0.1,0,0.3,0,0.6h0.4c0,0,0,0.2,0,0.2h-0.3v1c0,0.3,0.1,0.4,0.2,0.4c0.1,0,0.1,0,0.2,0l0,0.1
					L132.2,39.1z"/>
				<path class="st1" d="M134.6,39c-0.2,0-0.4,0.1-0.6,0.1c0-0.1,0-0.2,0-0.3c-0.2,0.2-0.3,0.3-0.5,0.3c-0.3,0-0.5-0.2-0.5-0.6v-0.8
					c0-0.2,0-0.2-0.1-0.2l-0.1,0v-0.1c0.2,0,0.4,0,0.6-0.1c0,0.2,0,0.4,0,0.6v0.6c0,0.3,0.1,0.4,0.3,0.4c0.1,0,0.2,0,0.3-0.1v-1
					c0-0.2,0-0.2-0.1-0.2l-0.1,0v-0.1c0.2,0,0.5,0,0.6-0.1v1.3c0,0.2,0,0.2,0.1,0.3l0.1,0V39z"/>
				<path class="st1" d="M135.8,39.1h-0.9v-0.1c0.2,0,0.2,0,0.2-0.3v-0.9c0-0.2,0-0.2-0.2-0.3v-0.1c0.2,0,0.4-0.1,0.6-0.2
					c0,0.1,0,0.3,0,0.4c0.1-0.3,0.3-0.4,0.4-0.4c0.1,0,0.2,0.1,0.2,0.2c0,0.2-0.1,0.3-0.2,0.3c0,0-0.1,0-0.1,0
					c-0.1-0.1-0.1-0.1-0.2-0.1c-0.1,0-0.2,0.1-0.2,0.2v0.8c0,0.2,0,0.3,0.3,0.3V39.1z"/>
				<path class="st1" d="M137.9,38.7c-0.2,0.3-0.5,0.4-0.6,0.4c-0.5,0-0.7-0.4-0.7-0.9c0-0.3,0.1-0.5,0.3-0.7
					c0.2-0.2,0.4-0.3,0.6-0.3c0.3,0,0.6,0.3,0.6,0.6c0,0.1,0,0.1-0.1,0.1c-0.1,0-0.6,0-0.9,0.1c0,0.5,0.2,0.7,0.5,0.7
					c0.1,0,0.3-0.1,0.4-0.2L137.9,38.7z M137.2,37.4c-0.2,0-0.3,0.2-0.3,0.5c0.2,0,0.3,0,0.5,0c0.1,0,0.1,0,0.1-0.1
					C137.5,37.6,137.4,37.4,137.2,37.4z"/>
				<path class="st1" d="M140.1,37.2c0.5,0,0.8,0.4,0.8,0.9c0,0.6-0.4,1-0.8,1c-0.5,0-0.8-0.5-0.8-0.9
					C139.3,37.6,139.7,37.2,140.1,37.2z M140.1,37.4c-0.2,0-0.3,0.2-0.3,0.7c0,0.5,0.2,0.9,0.4,0.9c0.2,0,0.3-0.1,0.3-0.7
					C140.5,37.7,140.3,37.4,140.1,37.4z"/>
				<path class="st1" d="M141.5,37.3L141.5,37.3c0-0.4,0.1-0.7,0.3-0.9c0.1-0.1,0.3-0.2,0.4-0.2c0.1,0,0.2,0,0.3,0.1
					c0,0.1,0,0.1,0,0.2c0,0.1-0.1,0.1-0.1,0.2c-0.1,0-0.1,0-0.1,0c-0.1-0.1-0.2-0.2-0.3-0.2c-0.2,0-0.2,0.2-0.2,0.7v0.2h0.3
					c0,0,0,0.2,0,0.2h-0.3v1.1c0,0.3,0,0.3,0.3,0.3v0.1h-0.9v-0.1c0.2,0,0.2,0,0.2-0.3v-1.2h-0.2l0,0l0.1-0.1H141.5z"/>
				<path class="st1" d="M144.6,39.1v-0.1c0.2,0,0.2,0,0.2-0.3v-0.7c0-0.3-0.1-0.4-0.3-0.4c-0.1,0-0.2,0.1-0.3,0.2v1
					c0,0.3,0,0.3,0.2,0.3v0.1h-0.8v-0.1c0.2,0,0.2,0,0.2-0.3v-0.8c0-0.2,0-0.3-0.2-0.3v-0.1c0.2,0,0.4-0.1,0.6-0.2
					c0,0.1,0,0.2,0,0.3c0.1-0.1,0.1-0.1,0.2-0.2c0.1-0.1,0.2-0.1,0.3-0.1c0.3,0,0.5,0.2,0.5,0.6v0.8c0,0.3,0,0.3,0.2,0.3v0.1H144.6z
					"/>
				<path class="st1" d="M146.9,39.1c-0.1,0-0.2,0-0.2-0.1c0,0-0.1-0.1-0.1-0.2c-0.1,0.1-0.3,0.2-0.4,0.2c-0.3,0-0.5-0.3-0.5-0.5
					c0-0.2,0.1-0.3,0.3-0.4c0.2-0.1,0.5-0.2,0.6-0.3v-0.1c0-0.2-0.1-0.4-0.3-0.4c-0.1,0-0.1,0-0.2,0.1c0,0.1-0.1,0.1-0.1,0.3
					c0,0.1-0.1,0.1-0.1,0.1c-0.1,0-0.2-0.1-0.2-0.2c0-0.1,0-0.1,0.1-0.2c0.1-0.1,0.4-0.2,0.6-0.3c0.1,0,0.2,0,0.3,0.1
					c0.1,0.1,0.2,0.3,0.2,0.5v0.7c0,0.2,0.1,0.2,0.1,0.2c0,0,0.1,0,0.1,0l0,0.1L146.9,39.1z M146.6,38.1c-0.1,0-0.2,0.1-0.2,0.1
					c-0.1,0.1-0.2,0.1-0.2,0.3c0,0.2,0.1,0.3,0.2,0.3c0.1,0,0.1,0,0.2-0.1C146.6,38.5,146.6,38.3,146.6,38.1z"/>
				<path class="st1" d="M148.3,39.1c-0.1,0-0.1,0-0.1,0c-0.3,0-0.4-0.1-0.4-0.5v-1.1h-0.2l0,0l0.1-0.1h0.2v-0.3
					c0.1-0.1,0.3-0.2,0.4-0.3l0,0c0,0.1,0,0.3,0,0.6h0.4c0,0,0,0.2,0,0.2h-0.3v1c0,0.3,0.1,0.4,0.2,0.4c0.1,0,0.1,0,0.2,0l0,0.1
					L148.3,39.1z"/>
				<path class="st1" d="M150.6,39c-0.2,0-0.4,0.1-0.6,0.1c0-0.1,0-0.2,0-0.3c-0.2,0.2-0.3,0.3-0.5,0.3c-0.3,0-0.5-0.2-0.5-0.6v-0.8
					c0-0.2,0-0.2-0.1-0.2l-0.1,0v-0.1c0.2,0,0.4,0,0.6-0.1c0,0.2,0,0.4,0,0.6v0.6c0,0.3,0.1,0.4,0.3,0.4c0.1,0,0.2,0,0.3-0.1v-1
					c0-0.2,0-0.2-0.1-0.2l-0.1,0v-0.1c0.2,0,0.5,0,0.6-0.1v1.3c0,0.2,0,0.2,0.1,0.3l0.1,0V39z"/>
				<path class="st1" d="M151.9,39.1H151v-0.1c0.2,0,0.2,0,0.2-0.3v-0.9c0-0.2,0-0.2-0.2-0.3v-0.1c0.2,0,0.4-0.1,0.6-0.2
					c0,0.1,0,0.3,0,0.4c0.1-0.3,0.3-0.4,0.4-0.4c0.1,0,0.2,0.1,0.2,0.2c0,0.2-0.1,0.3-0.2,0.3c0,0-0.1,0-0.1,0
					c-0.1-0.1-0.1-0.1-0.2-0.1c-0.1,0-0.2,0.1-0.2,0.2v0.8c0,0.2,0,0.3,0.3,0.3V39.1z"/>
				<path class="st1" d="M153.7,39.1c-0.1,0-0.2,0-0.2-0.1c0,0-0.1-0.1-0.1-0.2c-0.1,0.1-0.3,0.2-0.4,0.2c-0.3,0-0.5-0.3-0.5-0.5
					c0-0.2,0.1-0.3,0.3-0.4c0.2-0.1,0.5-0.2,0.6-0.3v-0.1c0-0.2-0.1-0.4-0.3-0.4c-0.1,0-0.1,0-0.2,0.1c0,0.1-0.1,0.1-0.1,0.3
					c0,0.1-0.1,0.1-0.1,0.1c-0.1,0-0.2-0.1-0.2-0.2c0-0.1,0-0.1,0.1-0.2c0.1-0.1,0.4-0.2,0.6-0.3c0.1,0,0.2,0,0.3,0.1
					c0.1,0.1,0.2,0.3,0.2,0.5v0.7c0,0.2,0.1,0.2,0.1,0.2c0,0,0.1,0,0.1,0l0,0.1L153.7,39.1z M153.4,38.1c-0.1,0-0.2,0.1-0.2,0.1
					c-0.1,0.1-0.2,0.1-0.2,0.3c0,0.2,0.1,0.3,0.2,0.3c0.1,0,0.1,0,0.2-0.1C153.4,38.5,153.4,38.3,153.4,38.1z"/>
				<path class="st1" d="M154.4,39.1v-0.1c0.2,0,0.2-0.1,0.2-0.3v-1.9c0-0.2,0-0.2-0.2-0.3v-0.1c0.2,0,0.5-0.1,0.6-0.1
					c0,0.2,0,0.4,0,0.6v1.8c0,0.3,0,0.3,0.2,0.3v0.1H154.4z"/>
				<path class="st1" d="M156.5,37.4c0.2,0,0.4-0.1,0.6-0.2c0,0.1,0,0.2,0,0.3c0,0,0.3-0.2,0.3-0.2c0.1-0.1,0.2-0.1,0.2-0.1
					c0.4,0,0.6,0.4,0.6,0.8c0,0.6-0.4,1-0.9,1.1c-0.1,0-0.2,0-0.2,0v0.5c0,0.2,0,0.3,0.3,0.3V40h-0.9v-0.1c0.2,0,0.2-0.1,0.2-0.3
					v-1.8c0-0.2,0-0.2-0.2-0.3V37.4z M157.1,38.8c0.1,0.1,0.2,0.2,0.3,0.2c0.2,0,0.4-0.3,0.4-0.7c0-0.5-0.2-0.7-0.4-0.7
					c-0.1,0-0.2,0.1-0.3,0.1V38.8z"/>
				<path class="st1" d="M159.7,39.1v-0.1c0.2,0,0.2-0.1,0.2-0.3V38c0-0.3-0.1-0.4-0.3-0.4c-0.1,0-0.2,0-0.3,0.1v1
					c0,0.2,0,0.3,0.2,0.3v0.1h-0.8v-0.1c0.2,0,0.2,0,0.2-0.3v-1.9c0-0.2,0-0.2-0.2-0.3v-0.1c0.2,0,0.5-0.1,0.6-0.1
					c0,0.2,0,0.3,0,0.5v0.8c0.1-0.1,0.3-0.3,0.5-0.3c0.3,0,0.5,0.2,0.5,0.7v0.7c0,0.3,0,0.3,0.2,0.3v0.1H159.7z"/>
				<path class="st1" d="M160.8,39.1v-0.1c0.2,0,0.2,0,0.2-0.3v-0.8c0-0.3,0-0.3-0.2-0.3v-0.1c0.2,0,0.4-0.1,0.6-0.1
					c0,0.2,0,0.3,0,0.5v0.9c0,0.3,0,0.3,0.2,0.3v0.1H160.8z M161.2,36.9c-0.1,0-0.2-0.1-0.2-0.3c0-0.2,0.1-0.3,0.2-0.3
					c0.1,0,0.2,0.1,0.2,0.3C161.5,36.8,161.4,36.9,161.2,36.9z"/>
				<path class="st1" d="M162,39.1v-0.1c0.2,0,0.2-0.1,0.2-0.3v-1.9c0-0.2,0-0.2-0.2-0.3v-0.1c0.2,0,0.5-0.1,0.6-0.1
					c0,0.2,0,0.4,0,0.6v1.8c0,0.3,0,0.3,0.2,0.3v0.1H162z"/>
				<path class="st1" d="M164.1,37.2c0.5,0,0.8,0.4,0.8,0.9c0,0.6-0.4,1-0.8,1c-0.5,0-0.8-0.5-0.8-0.9
					C163.3,37.6,163.7,37.2,164.1,37.2z M164.1,37.4c-0.2,0-0.3,0.2-0.3,0.7c0,0.5,0.2,0.9,0.4,0.9c0.2,0,0.3-0.1,0.3-0.7
					C164.5,37.7,164.3,37.4,164.1,37.4z"/>
				<path class="st1" d="M166.3,37.8c-0.1-0.3-0.2-0.4-0.4-0.4c-0.1,0-0.2,0.1-0.2,0.2c0,0.2,0.1,0.2,0.3,0.3
					c0.3,0.2,0.5,0.3,0.5,0.6c0,0.4-0.3,0.6-0.6,0.6c-0.2,0-0.4-0.1-0.4-0.1c0-0.1,0-0.4-0.1-0.5l0.1,0c0.1,0.3,0.2,0.5,0.4,0.5
					c0.1,0,0.2-0.1,0.2-0.2c0-0.1-0.1-0.2-0.3-0.4c-0.2-0.1-0.5-0.3-0.5-0.6c0-0.3,0.2-0.5,0.6-0.5c0.2,0,0.3,0,0.4,0.1
					c0,0.1,0,0.4,0.1,0.5L166.3,37.8z"/>
				<path class="st1" d="M167.8,37.2c0.5,0,0.8,0.4,0.8,0.9c0,0.6-0.4,1-0.8,1c-0.5,0-0.8-0.5-0.8-0.9
					C166.9,37.6,167.4,37.2,167.8,37.2z M167.7,37.4c-0.2,0-0.3,0.2-0.3,0.7c0,0.5,0.2,0.9,0.4,0.9c0.2,0,0.3-0.1,0.3-0.7
					C168.1,37.7,168,37.4,167.7,37.4z"/>
				<path class="st1" d="M169,37.4c0.2,0,0.4-0.1,0.6-0.2c0,0.1,0,0.2,0,0.3c0,0,0.3-0.2,0.3-0.2c0.1-0.1,0.2-0.1,0.2-0.1
					c0.4,0,0.6,0.4,0.6,0.8c0,0.6-0.4,1-0.9,1.1c-0.1,0-0.2,0-0.2,0v0.5c0,0.2,0,0.3,0.3,0.3V40h-0.9v-0.1c0.2,0,0.2-0.1,0.2-0.3
					v-1.8c0-0.2,0-0.2-0.2-0.3V37.4z M169.6,38.8c0.1,0.1,0.2,0.2,0.3,0.2c0.2,0,0.4-0.3,0.4-0.7c0-0.5-0.2-0.7-0.4-0.7
					c-0.1,0-0.2,0.1-0.3,0.1V38.8z"/>
				<path class="st1" d="M172.1,39.1v-0.1c0.2,0,0.2-0.1,0.2-0.3V38c0-0.3-0.1-0.4-0.3-0.4c-0.1,0-0.2,0-0.3,0.1v1
					c0,0.2,0,0.3,0.2,0.3v0.1h-0.8v-0.1c0.2,0,0.2,0,0.2-0.3v-1.9c0-0.2,0-0.2-0.2-0.3v-0.1c0.2,0,0.5-0.1,0.6-0.1
					c0,0.2,0,0.3,0,0.5v0.8c0.1-0.1,0.3-0.3,0.5-0.3c0.3,0,0.5,0.2,0.5,0.7v0.7c0,0.3,0,0.3,0.2,0.3v0.1H172.1z"/>
				<path class="st1" d="M174.9,37.4c-0.2,0-0.2,0.1-0.3,0.3c-0.1,0.2-0.2,0.5-0.4,1.1c-0.2,0.6-0.3,0.9-0.4,1.1
					c0,0.1-0.1,0.1-0.1,0.1c-0.1,0-0.3-0.1-0.3-0.2c0-0.1,0-0.1,0.1-0.1c0.1-0.1,0.2-0.2,0.3-0.3c0-0.1,0.1-0.2,0.1-0.3
					c0-0.1,0-0.1,0-0.2c-0.2-0.5-0.4-1.1-0.5-1.3c-0.1-0.2-0.1-0.2-0.3-0.3v-0.1h0.8v0.1c-0.2,0-0.2,0.1-0.1,0.2l0.3,0.9
					c0.1-0.2,0.2-0.6,0.3-0.9c0-0.1,0-0.2-0.2-0.2v-0.1h0.7V37.4z"/>
			</g>
		</g>
		<g>
			<g>
				<path class="st1" d="M76.9,36.7c-0.1-0.3-0.2-0.5-0.2-0.6c-0.1-0.1-0.2-0.2-0.5-0.2h-0.4v3c0,0.5,0.1,0.6,0.6,0.6v0.2h-1.9v-0.2
					c0.5,0,0.5-0.1,0.5-0.6v-3h-0.4c-0.3,0-0.4,0.1-0.5,0.2c-0.1,0.1-0.2,0.4-0.2,0.6h-0.2c0-0.5,0.1-1,0.1-1.3h0.2
					c0.1,0.1,0.2,0.2,0.3,0.2h2.3c0.2,0,0.2,0,0.3-0.2h0.2c0,0.3,0,0.8,0.1,1.3L76.9,36.7z"/>
				<path class="st1" d="M81,38.7c0,0.2-0.2,0.9-0.2,1.1h-3v-0.2c0.5-0.1,0.6-0.1,0.6-0.6v-2.5c0-0.6-0.1-0.6-0.5-0.6v-0.2h1.9
					c0.6,0,0.8,0,0.9,0c0,0.1,0,0.6,0.1,1.1l-0.2,0c-0.1-0.2-0.2-0.5-0.2-0.6c-0.1-0.1-0.2-0.2-0.5-0.2h-0.4c-0.2,0-0.2,0-0.2,0.2
					v1.4h0.6c0.3,0,0.4-0.1,0.5-0.6h0.2v1.4h-0.2c-0.1-0.5-0.1-0.6-0.5-0.6h-0.6v1.1c0,0.4,0,0.6,0.4,0.6h0.4c0.3,0,0.4,0,0.5-0.2
					c0.1-0.2,0.3-0.4,0.4-0.6L81,38.7z"/>
				<path class="st1" d="M84.7,38.6c0,0.3-0.2,1-0.3,1.1h-2.9v-0.2c0.5,0,0.6-0.1,0.6-0.6v-2.5c0-0.5-0.1-0.6-0.5-0.6v-0.2h1.8v0.2
					c-0.5,0-0.5,0.1-0.5,0.6v2.5c0,0.4,0,0.5,0.3,0.5c0,0,0.3,0,0.3,0c0.3,0,0.4-0.1,0.6-0.3c0.1-0.1,0.3-0.4,0.4-0.7L84.7,38.6z"/>
				<path class="st1" d="M85.3,39.8v-0.2c0.4,0,0.5-0.1,0.5-0.6v-2.5c0-0.5-0.1-0.6-0.5-0.6v-0.2h1.8v0.2c-0.4,0-0.5,0.1-0.5,0.6
					v2.5c0,0.5,0.1,0.6,0.5,0.6v0.2H85.3z"/>
				<path class="st1" d="M91.9,35.8c-0.4,0.1-0.5,0.1-0.5,0.4c0,0.3,0,0.5,0,1v2.6H91l-2.4-3.2v1.5c0,0.6,0,0.8,0,1
					c0,0.3,0.1,0.4,0.6,0.5v0.2h-1.4v-0.2c0.3,0,0.5-0.1,0.5-0.4c0-0.2,0-0.5,0-1v-1.5c0-0.2,0-0.4-0.1-0.5
					c-0.1-0.2-0.2-0.2-0.5-0.2v-0.2h1.1l2.2,2.9v-1.2c0-0.6,0-0.8,0-1c0-0.3-0.1-0.4-0.6-0.4v-0.2h1.4V35.8z"/>
			</g>
		</g>
		<g>
			<g>
				<path class="st1" d="M97.3,38.6c0,0.2-0.2,1-0.3,1.2H94l0-0.1c0.7-1.2,1.5-2.5,2.2-3.8h-0.9c-0.4,0-0.5,0.1-0.6,0.3
					c-0.1,0.1-0.2,0.3-0.2,0.6l-0.2,0c0-0.4,0.1-1,0.1-1.3h0.2c0.1,0.2,0.2,0.2,0.3,0.2h2.3l0,0.1c-0.7,1.2-1.5,2.5-2.2,3.8
					c0.2,0,0.4,0,0.7,0c0.7,0,0.8,0,1-0.2c0.1-0.1,0.3-0.4,0.4-0.8L97.3,38.6z"/>
				<path class="st1" d="M102.1,35.8c-0.5,0.1-0.5,0.1-0.5,0.6v2.5c0,0.5,0,0.6,0.5,0.6v0.2h-1.8v-0.2c0.5-0.1,0.5-0.1,0.5-0.6v-1.2
					h-1.6v1.2c0,0.5,0.1,0.6,0.5,0.6v0.2H98v-0.2c0.4-0.1,0.5-0.1,0.5-0.6v-2.5c0-0.5-0.1-0.6-0.5-0.6v-0.2h1.8v0.2
					c-0.4,0-0.5,0.1-0.5,0.6v0.9h1.6v-0.9c0-0.5-0.1-0.6-0.5-0.6v-0.2h1.8V35.8z"/>
				<path class="st1" d="M106.1,38.7c0,0.2-0.2,0.9-0.2,1.1h-3v-0.2c0.5-0.1,0.6-0.1,0.6-0.6v-2.5c0-0.6-0.1-0.6-0.5-0.6v-0.2h1.9
					c0.6,0,0.8,0,0.9,0c0,0.1,0,0.6,0.1,1.1l-0.2,0c-0.1-0.2-0.2-0.5-0.2-0.6c-0.1-0.1-0.2-0.2-0.5-0.2h-0.4c-0.2,0-0.2,0-0.2,0.2
					v1.4h0.6c0.3,0,0.4-0.1,0.5-0.6h0.2v1.4h-0.2c-0.1-0.5-0.1-0.6-0.5-0.6h-0.6v1.1c0,0.4,0,0.6,0.4,0.6h0.4c0.3,0,0.4,0,0.5-0.2
					c0.1-0.2,0.3-0.4,0.4-0.6L106.1,38.7z"/>
				<path class="st1" d="M111.4,38.6c0,0.3-0.2,1-0.3,1.1h-2.9v-0.2c0.5,0,0.6-0.1,0.6-0.6v-2.5c0-0.5-0.1-0.6-0.5-0.6v-0.2h1.8v0.2
					c-0.5,0-0.5,0.1-0.5,0.6v2.5c0,0.4,0,0.5,0.3,0.5c0,0,0.3,0,0.3,0c0.3,0,0.4-0.1,0.6-0.3c0.1-0.1,0.3-0.4,0.4-0.7L111.4,38.6z"
					/>
				<path class="st1" d="M111.9,39.8v-0.2c0.4,0,0.5-0.1,0.5-0.6v-2.5c0-0.5-0.1-0.6-0.5-0.6v-0.2h1.8v0.2c-0.4,0-0.5,0.1-0.5,0.6
					v2.5c0,0.5,0.1,0.6,0.5,0.6v0.2H111.9z"/>
			</g>
		</g>
		<g>
			<g>
				<g>
					<path class="st1" d="M92.7,12.9h-9.8c-0.2,0-0.4-0.2-0.4-0.4c0-0.2,0.2-0.4,0.4-0.4h9.8c0.2,0,0.4,0.2,0.4,0.4
						C93.1,12.7,93,12.9,92.7,12.9z"/>
				</g>
			</g>
			<g>
				<g>
					<path class="st1" d="M92.7,18.5h-9.8c-0.2,0-0.4-0.2-0.4-0.4c0-0.2,0.2-0.4,0.4-0.4h9.8c0.2,0,0.4,0.2,0.4,0.4
						C93.1,18.3,93,18.5,92.7,18.5z"/>
				</g>
			</g>
			<g>
				<g>
					<path class="st1" d="M95.5,10.5H80.6c-0.2,0-0.4-0.2-0.4-0.4c0-0.2,0.2-0.4,0.4-0.4h14.9c0.2,0,0.4,0.2,0.4,0.4
						C95.9,10.3,95.7,10.5,95.5,10.5z"/>
				</g>
			</g>
			<g>
				<g>
					<path class="st1" d="M95.5,21H80.6c-0.2,0-0.4-0.2-0.4-0.4c0-0.2,0.2-0.4,0.4-0.4h14.9c0.2,0,0.4,0.2,0.4,0.4
						C95.9,20.9,95.7,21,95.5,21z"/>
				</g>
			</g>
			<g>
				<g>
					<g>
						<path class="st1" d="M109.2,13h-9.6c-0.2,0-0.4-0.2-0.4-0.4c0-0.2,0.2-0.4,0.4-0.4h9.6c0.2,0,0.4,0.2,0.4,0.4
							C109.6,12.8,109.4,13,109.2,13z"/>
					</g>
				</g>
				<g>
					<g>
						<path class="st1" d="M121.2,13h-12c-0.2,0-0.4-0.2-0.4-0.4c0-0.2,0.2-0.4,0.4-0.4h12c0.2,0,0.4,0.2,0.4,0.4
							C121.6,12.8,121.4,13,121.2,13z"/>
					</g>
				</g>
			</g>
			<g>
				<g>
					<path class="st1" d="M169.4,24.8h-17.6c-0.2,0-0.4-0.2-0.4-0.4c0-0.2,0.2-0.4,0.4-0.4h17.6c0.2,0,0.4,0.2,0.4,0.4
						C169.8,24.6,169.6,24.8,169.4,24.8z"/>
				</g>
			</g>
			<g>
				<path class="st1" d="M173.5,29.8h-24c-0.2,0-0.3-0.1-0.3-0.3c0-0.2,0.1-0.3,0.3-0.3h24c0.2,0,0.3,0.1,0.3,0.3
					C173.8,29.6,173.7,29.8,173.5,29.8z"/>
			</g>
			<g>
				<g>
					<path class="st1" d="M169.3,9h-15.1c-0.2,0-0.4-0.2-0.4-0.4c0-0.2,0.2-0.4,0.4-0.4h15.1c0.2,0,0.4,0.2,0.4,0.4
						C169.7,8.8,169.6,9,169.3,9z"/>
				</g>
			</g>
			<g>
				<g>
					<path class="st1" d="M169.4,14.5h-15.1c-0.2,0-0.4-0.2-0.4-0.4c0-0.2,0.2-0.4,0.4-0.4h15.1c0.2,0,0.4,0.2,0.4,0.4
						C169.8,14.4,169.6,14.5,169.4,14.5z"/>
				</g>
			</g>
			<g>
				<g>
					<path class="st1" d="M169.4,20.6h-16c-0.2,0-0.4-0.2-0.4-0.4c0-0.2,0.2-0.4,0.4-0.4h16c0.2,0,0.4,0.2,0.4,0.4
						C169.8,20.4,169.6,20.6,169.4,20.6z"/>
				</g>
			</g>
			<g>
				<g>
					<g>
						<path class="st1" d="M85.4,22.6c2.8-0.4,4.6,0.1,5.4,1.1c0.6,0.8,0.6,2.1-0.3,2.5c-0.4,0.1-1,0.1-1.4-0.8
							C89.1,25.3,88.3,22.4,85.4,22.6z"/>
					</g>
				</g>
			</g>
			<g>
				<g>
					<path class="st1" d="M73.2,13.9l-0.3,0.2c1.6-1.8,2.3-2.8,3.1-4.2c0.6-1.1,0.9-1.8,1.2-2.7c0.8,0.2,1.4,0.5,1.7,0.6
						c1.2,0.4,1.1,0.4,1.1,0.6c0,0,0,0.2-0.4,0.3C79.1,8.9,73.2,13.9,73.2,13.9z"/>
				</g>
			</g>
			<g>
				<g>
					<path class="st1" d="M73,19.3l-0.4,0.3c1.7-2,2.5-3.1,3.4-4.6c0.7-1.2,1-1.9,1.3-3c0.9,0.3,1.5,0.5,1.9,0.6
						c1.4,0.4,1.3,0.4,1.3,0.7c0,0,0,0.2-0.5,0.3C79.6,13.7,73,19.3,73,19.3z"/>
				</g>
			</g>
			<g>
				<g>
					<polygon class="st1" points="83.2,12.1 83.2,19 81.4,19 81.4,11.7 					"/>
				</g>
			</g>
			<g>
				<g>
					<path class="st1" d="M92.6,19l0-6h0v-0.9c0.5-0.4,0.2-0.2,0.7-0.7c0.9,0.6,0.5,0.4,1.3,0.9c0.2,0.2,0.3,0.3,0.3,0.5
						c0,0.2-0.2,0.4-0.8,0.6V19L92.6,19z"/>
				</g>
			</g>
			<g>
				<g>
					<rect x="87.2" y="7.1" class="st1" width="1.7" height="5.1"/>
				</g>
			</g>
			<g>
				<g>
					<rect x="85.2" y="12.3" class="st1" width="1.7" height="5.8"/>
				</g>
			</g>
			<g>
				<g>
					<path class="st1" d="M92.9,29.6c-0.6,0.2-3.1,0.6-5.3,0.4c-4-0.4-3.9-3-3.9-3c-0.1-0.7,0-4.5,0-4.5h1.7l0,1.9v2
						c0,2.9,6.1,1.8,6.5,1.7c0.4-0.1,0.6-0.4,0.6-0.4l0.8-1.6l0,1.4c0,0,0,0.5,0.1,0.7c0.1,0.2,0.3,0.2,0.3,0.5
						C93.7,28.8,93.8,29.3,92.9,29.6z"/>
				</g>
			</g>
			<g>
				<g>
					<rect x="88.9" y="12.3" class="st1" width="1.7" height="5.8"/>
				</g>
			</g>
			<g>
				<g>
					<g>
						<path class="st1" d="M96.4,10.5c0.1,0,0.2-0.1,0.2-0.1c0,0,0-0.1-0.1-0.2c-0.8-0.7-1-0.9-1.8-1.5c-0.5,0.6-1.1,1.2-1.6,1.8
							L96.4,10.5z"/>
					</g>
				</g>
			</g>
			<g>
				<g>
					<g>
						<path class="st1" d="M96.4,21c0.1,0,0.2-0.1,0.2-0.1c0,0,0-0.1-0.1-0.2c-0.8-0.7-1-0.9-1.8-1.5c-0.5,0.6-1.1,1.2-1.6,1.8
							L96.4,21z"/>
					</g>
				</g>
			</g>
			<g>
				<g>
					<polygon class="st1" points="75.8,17 75.8,29.7 77.5,29.7 77.5,14.5 					"/>
				</g>
			</g>
			<g>
				<g>
					<g>
						<path class="st1" d="M79.4,27.9c0.5,0.7,1.7,0.3,2.1-0.4c0.6-0.9,1-2.8-0.7-5.7c0,0,1.1,2.1-1.3,4.8
							C79.5,26.6,78.8,27.2,79.4,27.9z"/>
					</g>
				</g>
			</g>
			<g>
				<g>
					<g>
						<path class="st1" d="M93.1,22.3c2.6,1,3.3,1.9,3.5,3.1c0.2,0.9-0.5,2.1-1.4,1.9c-0.4-0.1-0.9-0.4-0.8-1.3
							C94.4,26.1,94.8,23.4,93.1,22.3z"/>
					</g>
				</g>
			</g>
			<g>
				<g>
					<rect x="104.2" y="7.4" class="st1" width="1.7" height="22.4"/>
				</g>
			</g>
			<g>
				<g>
					<g>
						<path class="st1" d="M110.7,13c0.1,0,0.2-0.1,0.2-0.1c0,0,0-0.1-0.1-0.2c-0.8-0.7-1-0.9-1.8-1.5c-0.5,0.6-1.1,1.2-1.6,1.8
							L110.7,13z"/>
					</g>
				</g>
			</g>
			<g>
				<g>
					<g>
						<path class="st1" d="M122.5,13c0.1,0,0.2-0.1,0.2-0.1c0,0,0-0.1-0.1-0.2c-0.8-0.7-1-0.9-1.8-1.5c-0.5,0.6-1.1,1.2-1.6,1.8
							L122.5,13z"/>
					</g>
				</g>
			</g>
			<g>
				<g>
					<g>
						<path class="st1" d="M106.5,15.6c3,0.5,4.1,2.2,4.4,3.5c0.2,1.1-0.6,2.4-1.6,2.2c-0.5-0.1-1-0.4-0.9-1.5
							C108.3,19.9,109.1,16,106.5,15.6z"/>
					</g>
				</g>
			</g>
			<g>
				<g>
					<path class="st1" d="M104.6,12.9h-0.5c-0.3,1.5-0.9,3.5-1.5,5c-1,2.7-1.9,4.4-3.6,7l0.3-0.2c2.5-2.6,3.7-4.9,5.2-7.6
						L104.6,12.9z"/>
				</g>
			</g>
			<g>
				<g>
					<rect x="115.2" y="7.4" class="st1" width="1.7" height="22.4"/>
				</g>
			</g>
			<g>
				<g>
					<path class="st1" d="M115.7,18.7c-1.9,3.8-3.6,7-6.8,10.6l-0.4,0.3c2.3-3.6,3.5-6,4.8-9.7c0.7-2.2,1.5-4.9,1.9-7h0.6"/>
				</g>
			</g>
			<g>
				<g>
					<path class="st1" d="M117.6,15.2c0.4,1.5,0.6,2.1,1.4,3.3c1.1,1.8,1.8,2.7,3.6,3.8l-1,1.8c-0.1,0.2-0.1,0.2-0.2,0.2
						c-0.2,0-0.8-0.7-1.5-1.7c-0.8-1.3-1.4-2.1-1.8-3.7C118.1,18.9,117.7,17.6,117.6,15.2z"/>
				</g>
			</g>
			<g>
				<g>
					<rect x="160.8" y="8.3" class="st1" width="1.9" height="21.5"/>
				</g>
			</g>
			<g>
				<g>
					<g>
						<path class="st1" d="M172.3,24.8c0.1,0,0.2-0.1,0.2-0.1c0,0,0-0.1-0.1-0.2c-0.8-0.7-1.1-1-2-1.6c-0.6,0.7-1.2,1.3-1.7,2
							L172.3,24.8z"/>
					</g>
				</g>
			</g>
			<g>
				<g>
					<g>
						<path class="st1" d="M174.6,29.8c0.1,0,0.2-0.1,0.2-0.1c0,0,0-0.1-0.1-0.2c-0.8-0.7-1.1-1-2-1.6c-0.6,0.7-1.2,1.3-1.7,2
							L174.6,29.8z"/>
					</g>
				</g>
			</g>
			<g>
				<g>
					<polygon class="st1" points="154.3,8.2 154.4,21.3 152.5,21.3 152.5,7.8 					"/>
				</g>
			</g>
			<g>
				<g>
					<path class="st1" d="M169,21.3l0-12.1h0V8.3c0.5-0.5,0.2-0.2,0.8-0.8c0.9,0.7,0.6,0.4,1.4,1c0.3,0.2,0.4,0.4,0.4,0.5
						c0,0.2-0.2,0.4-0.8,0.7v11.6L169,21.3z"/>
				</g>
			</g>
			<g>
				<g>
					<path class="st1" d="M144.2,23.6h-15.9c-0.2,0-0.4-0.2-0.4-0.4c0-0.2,0.2-0.4,0.4-0.4h15.9c0.2,0,0.4,0.2,0.4,0.4
						C144.6,23.4,144.4,23.6,144.2,23.6z"/>
				</g>
			</g>
			<g>
				<g>
					<path class="st1" d="M144.3,29.4h-15.9c-0.2,0-0.4-0.2-0.4-0.4c0-0.2,0.2-0.4,0.4-0.4h15.9c0.2,0,0.4,0.2,0.4,0.4
						C144.7,29.2,144.5,29.4,144.3,29.4z"/>
				</g>
			</g>
			<g>
				<g>
					<path class="st1" d="M133.2,10.8h-7.8c-0.2,0-0.4-0.2-0.4-0.4c0-0.2,0.2-0.4,0.4-0.4h7.8c0.2,0,0.4,0.2,0.4,0.4
						C133.6,10.7,133.4,10.8,133.2,10.8z"/>
				</g>
			</g>
			<g>
				<g>
					<path class="st1" d="M135.2,14.9h-9.8c-0.2,0-0.4-0.2-0.4-0.4c0-0.2,0.2-0.4,0.4-0.4h9.8c0.2,0,0.4,0.2,0.4,0.4
						C135.6,14.7,135.5,14.9,135.2,14.9z"/>
				</g>
			</g>
			<g>
				<g>
					<rect x="137.9" y="12.5" class="st1" width="7.9" height="0.8"/>
				</g>
			</g>
			<g>
				<g>
					<polygon class="st1" points="129.7,22.8 129.7,29.9 127.7,29.9 127.7,22.3 					"/>
				</g>
			</g>
			<g>
				<g>
					<path class="st1" d="M143.3,30l0-6.2h0v-0.9c0.5-0.5,0.2-0.2,0.9-0.7c1,0.7,0.6,0.4,1.5,1c0.3,0.2,0.4,0.4,0.4,0.5
						c0,0.2-0.2,0.4-0.9,0.6V30L143.3,30z"/>
				</g>
			</g>
			<g>
				<g>
					<g>
						<path class="st1" d="M131.4,17.7c0,0.3,0,1.1,0,1.5c0,0.5-0.1,0.7-0.4,1c-0.2,0.2-0.7,0.4-1.2,0.5l-0.6,0.1
							c-0.1-0.1-0.1-0.1-0.1-0.2c-0.1-0.8-0.4-1.6-1.9-1.9l0-0.2c1.1,0,1.3,0,2.1,0c0.2,0,0.3-0.2,0.3-0.4v-0.4L131.4,17.7z"/>
					</g>
				</g>
				<g>
					<g>
						<polygon class="st1" points="129.6,7.5 129.6,18.1 131.4,18.2 131.4,7.5 						"/>
					</g>
				</g>
			</g>
			<g>
				<g>
					<g>
						<path class="st1" d="M135.9,10.8c0.1,0,0.2-0.1,0.2-0.1c0,0,0-0.1-0.1-0.2c-0.8-0.7-1.1-1-2-1.6c-0.6,0.6-1.2,1.3-1.7,1.9
							L135.9,10.8z"/>
					</g>
				</g>
			</g>
			<g>
				<g>
					<g>
						<path class="st1" d="M148.2,13.2c0.1,0,0.2-0.1,0.2-0.1c0,0,0-0.1-0.1-0.2c-0.8-0.7-1.1-1-2-1.6c-0.6,0.6-1.2,1.3-1.7,1.9
							L148.2,13.2z"/>
					</g>
				</g>
			</g>
			<g>
				<g>
					<g>
						<polygon class="st1" points="143.2,12.8 143.2,20.5 145,20.5 145,12.8 						"/>
					</g>
				</g>
			</g>
			<g>
				<g>
					<g>
						<path class="st1" d="M137.5,8.3l2,0.5c0,0,0,2.4,0,2.6c0,1.3,0,1.5-0.1,2.8c-0.1,1.3-0.1,2.5-0.9,3.6c-0.7,1-1.7,1.9-2.8,2.6
							l-0.2-0.2c1.1-1.6,1.4-2.6,1.7-4C137.8,13.6,137.5,8.3,137.5,8.3"/>
					</g>
				</g>
			</g>
			<g>
				<g>
					<g>
						<path class="st1" d="M138.5,10.7l-0.4,0c2.2-0.7,3.2-1.2,4.4-1.9c0.9-0.6,1.4-0.9,1.9-1.5c0.8,0.5,1.4,0.8,1.8,1
							c1.3,0.7,1.2,0.7,1.1,0.8c0,0-0.1,0.1-0.5,0.1C146.3,9.2,138.5,10.7,138.5,10.7z"/>
					</g>
				</g>
			</g>
		</g>
		<g>
			<g>
				<path class="st1" d="M46.7,43.3c-5,0-9.7-1.9-13.3-5.5c-7.3-7.3-7.3-19.2,0-26.5c7.3-7.3,19.2-7.3,26.5,0
					c3.5,3.5,5.5,8.2,5.5,13.3c0,5-1.9,9.7-5.5,13.3l-0.1-0.1l0.1,0.1C56.4,41.3,51.7,43.3,46.7,43.3z M46.7,6.2
					c-4.7,0-9.4,1.8-13,5.4c-7.2,7.2-7.2,18.8,0,26c3.5,3.5,8.1,5.4,13,5.4s9.5-1.9,13-5.4l0,0c3.5-3.5,5.4-8.1,5.4-13
					c0-4.9-1.9-9.5-5.4-13C56.1,8,51.4,6.2,46.7,6.2z"/>
			</g>
			<g>
				<path class="st2" d="M23.6,39.3"/>
			</g>
			<g>
				<g>
					<path class="st1" d="M52.3,34.3c0,0-0.9,2.9-3.8,2.1c0,0,0.4-1.4,1.4-1.8C50.8,34.2,51,34.6,52.3,34.3z"/>
				</g>
				<g>
					<path class="st1" d="M53.8,29.4c0,0-1.2,2.8-4,1.5c0,0,0.6-1.4,1.7-1.6C52.3,29.2,52.4,29.6,53.8,29.4z"/>
				</g>
				<g>
					<path class="st1" d="M56.8,20.3c0,0-1.3,2.7-4.1,1.4c0,0,0.6-1.4,1.7-1.5C55.3,20,55.4,20.5,56.8,20.3z"/>
				</g>
				<g>
					<path class="st1" d="M49.5,16.1c0,0-2.1,2.2-4.3,0.1c0,0,1-1.1,2.1-1C48.2,15.4,48.2,15.8,49.5,16.1z"/>
				</g>
				<g>
					<path class="st1" d="M45.9,20.8c0,0-2.6,1.6-4.2-0.9c0,0,1.2-0.8,2.3-0.4C44.8,19.8,44.7,20.2,45.9,20.8z"/>
				</g>
				<g>
					<path class="st1" d="M40.2,24.4c0,0-2.7,1.4-4.1-1.4c0,0,1.3-0.7,2.3-0.2C39.1,23.2,39,23.6,40.2,24.4z"/>
				</g>
				<g>
					<path class="st1" d="M44.9,35.2c0,0-0.4,3,2.6,3.5c0,0,0.2-1.5-0.6-2.2C46.3,35.8,45.9,36,44.9,35.2z"/>
				</g>
				<g>
					<path class="st1" d="M48.8,22c0,0-0.4,3,2.6,3.5c0,0,0.2-1.5-0.6-2.2C50.2,22.6,49.9,22.8,48.8,22z"/>
				</g>
				<g>
					<path class="st1" d="M52.2,15c0,0-1.1,2.8,1.8,3.9c0,0,0.6-1.4-0.1-2.3C53.4,15.9,53,16.1,52.2,15z"/>
				</g>
				<g>
					<path class="st1" d="M54.6,11.6c0,0-1.1,2.8,1.8,3.9c0,0,0.6-1.4-0.1-2.3C55.8,12.5,55.4,12.7,54.6,11.6z"/>
				</g>
				<g>
					<path class="st1" d="M44.8,9.6c0,0-1.1,2.8,1.8,3.9c0,0,0.6-1.4-0.1-2.3C46,10.5,45.6,10.7,44.8,9.6z"/>
				</g>
				<g>
					<path class="st1" d="M38.4,17.2c0,0-2,2.3,0.3,4.3c0,0,1-1.1,0.8-2.2C39.3,18.5,38.8,18.5,38.4,17.2z"/>
				</g>
				<g>
					<path class="st1" d="M42.4,13.5c0,0-1,2.9,1.8,3.9c0,0,0.5-1.4-0.1-2.3C43.7,14.3,43.3,14.5,42.4,13.5z"/>
				</g>
				<g>
					<path class="st1" d="M35,19c0,0-2,2.3,0.3,4.3c0,0,1-1.1,0.8-2.2C35.8,20.2,35.4,20.2,35,19z"/>
				</g>
			</g>
			<g>
				<defs>
					
						<ellipse id="SVGID_1_" transform="matrix(0.4697 -0.8828 0.8828 0.4697 3.0744 54.2282)" cx="46.7" cy="24.6" rx="18.6" ry="18.6"/>
				</defs>
				<clipPath id="SVGID_00000064348930132133053230000006787773250870374539_">
					<use xlink:href="#SVGID_1_"  style="overflow:visible;"/>
				</clipPath>
				<g style="clip-path:url(#SVGID_00000064348930132133053230000006787773250870374539_);">
					<g>
						<path class="st1" d="M25.4,45.7c-1.8-2.8-2.6-6.3-2.1-9.7c0.4-3.3,2.1-6.5,4.6-8.8c2.2-2,5-3.2,7.6-4.5c3.2-1.5,6.5-3,8.8-5.7
							c1-1.2,1.7-2.6,2.4-3.9c0.5-0.9,1-1.9,1.5-2.7c1.3-2,3-3.8,5-5.1l0.2,0.3c-2,1.3-3.7,3-4.9,5c-0.6,0.9-1,1.8-1.5,2.7
							c-0.7,1.4-1.4,2.8-2.4,4c-2.3,2.8-5.6,4.4-8.9,5.8c-2.7,1.2-5.4,2.5-7.5,4.4c-2.4,2.2-4.1,5.3-4.5,8.5
							c-0.4,3.2,0.3,6.7,2.1,9.4L25.4,45.7z"/>
					</g>
					<g>
						<path class="st1" d="M28.1,20L27.9,20c1.3-3.2,4-5.4,5.9-6.7c3.6-2.4,7.2-5.1,7.9-9.9c0.3-1.6,0-3.3-0.3-4.9
							c0-0.2-0.1-0.4-0.1-0.6c-0.3-1.9-0.3-3.7-0.1-5.5c0.5-3.9,2.1-7.2,4.7-9.5l0.1,0.1c-2.5,2.2-4.2,5.5-4.7,9.4
							c-0.2,1.8-0.2,3.6,0.1,5.5c0,0.2,0.1,0.4,0.1,0.6c0.3,1.6,0.5,3.3,0.3,5c-0.8,4.8-4.4,7.6-8,10C32,14.7,29.4,16.9,28.1,20z"/>
					</g>
					<g>
						<path class="st1" d="M43.1,44.9l-0.2-0.3c2.5-2,4-5,4.9-7.1c0.9-2.2,1.4-4.5,2-6.8c0.1-0.5,0.3-1.1,0.4-1.6
							c0.9-3.5,2.1-7.7,4.4-11.3c2.4-3.8,5.8-6.5,8.9-7l0.1,0.4c-3,0.5-6.3,3.1-8.7,6.8c-2.3,3.6-3.5,7.7-4.4,11.2
							c-0.1,0.5-0.3,1.1-0.4,1.6c-0.5,2.2-1.1,4.6-2,6.8C47.2,39.9,45.6,42.9,43.1,44.9z"/>
					</g>
					<g>
						<path class="st1" d="M46.1,50.3L45.9,50c4-1.9,7.3-5.5,8.8-9.7c1.1-3.1,1.3-6.4,1.4-9.7c0-0.6,0.1-1.3,0.1-1.9
							c0.2-2.6,0.5-6.1,1.6-9.4c1.1-3.3,2.9-6.1,5.3-7.9l0.2,0.3c-2.3,1.8-4,4.5-5.1,7.7c-1.1,3.2-1.4,6.6-1.6,9.3
							c0,0.6-0.1,1.3-0.1,1.9c-0.2,3.3-0.3,6.6-1.5,9.8C53.6,44.7,50.2,48.4,46.1,50.3z"/>
					</g>
					<g>
						<path class="st1" d="M51.6,45.3L51.6,45.3c1.4-1.5,2.8-3.5,4.1-5.5c0.6-1,1.3-2,1.8-3c1-1.6,1.9-3.3,3.2-4.8
							c3.3-4,8.1-6.3,13-6.1l0,0.1c-4.8-0.2-9.7,2.1-12.9,6c-1.2,1.5-2.2,3.2-3.2,4.8c-0.6,1-1.2,2-1.8,3
							C54.5,41.8,53.1,43.8,51.6,45.3z"/>
					</g>
					<g>
						<path class="st1" d="M27.5,29.4l-0.1,0c2.2-7.4,7.2-11.3,7.3-11.4c2.2-1.7,3.7-3.3,4.7-5c1.3-2.2,1.9-4.7,2.4-7.2
							c0.2-0.9,0.4-1.9,0.7-2.8c0.8-3,2.5-6.9,5.9-8.3l0,0.1C45-3.9,43.4,0,42.6,3c-0.3,0.9-0.5,1.9-0.7,2.8c-0.6,2.5-1.1,5-2.4,7.2
							c-1,1.7-2.5,3.3-4.7,5.1C34.7,18.1,29.7,22,27.5,29.4z"/>
					</g>
				</g>
			</g>
			<g>
				<path class="st1" d="M19.2,43.1c-4.8,0-9.6-1.8-13.3-5.5c-3.5-3.5-5.5-8.2-5.5-13.3c0-5,1.9-9.7,5.5-13.3
					c7.3-7.3,19.2-7.3,26.5,0c0.2,0.2,0.5,0.5,0.7,0.7l0.1,0.1l-0.1,0.1c-6.4,7-6.5,17.6-0.1,24.7l0.1,0.1L33,37.1
					c-0.2,0.2-0.4,0.4-0.6,0.6C28.8,41.3,24,43.1,19.2,43.1z M19.2,6c-4.7,0-9.4,1.8-13,5.4c-3.5,3.5-5.4,8.1-5.4,13
					c0,4.9,1.9,9.5,5.4,13c7.2,7.2,18.8,7.2,26,0c0.1-0.1,0.3-0.3,0.4-0.4c-6.3-7.2-6.3-17.8,0.1-24.9c-0.2-0.2-0.4-0.4-0.6-0.6
					C28.6,7.8,23.9,6,19.2,6z"/>
			</g>
			<g>
				<defs>
					<path id="SVGID_00000044889692914863354660000015070738366889387197_" d="M33,12c-0.2-0.2-0.5-0.5-0.7-0.7
						c-7.2-7.2-19-7.2-26.2,0c-7.2,7.2-7.2,19,0,26.2c7.2,7.2,19,7.2,26.2,0c0.2-0.2,0.4-0.4,0.5-0.6C26.5,29.9,26.5,19,33,12z"/>
				</defs>
				<clipPath id="SVGID_00000033368177019958197420000012289042122832520618_">
					<use xlink:href="#SVGID_00000044889692914863354660000015070738366889387197_"  style="overflow:visible;"/>
				</clipPath>
				<g style="opacity:0.7;clip-path:url(#SVGID_00000033368177019958197420000012289042122832520618_);">
					<g>
						<path class="st1" d="M49,53.6c-2,0-3.9-1.1-5.3-1.8c-2-1.1-2.6-1.1-8.7-0.3c-0.7,0.1-1.4,0.2-2.2,0.3c-2,0.2-3.6-0.2-4.7-1.3
							c-2.9-2.8-2.5-9-2.3-11.6l0-0.3c0.2-3.7,2.4-6,3-6.7c0.4-0.4,0.9-0.8,1.6-1.3c1.2-1,2.9-2.3,5.5-4.9c3.9-4,7.1-2.8,7.1-2.8
							l3,1c0.1,0,7.8,3.4,9.9,6.2c2.1,2.8,2.2,5.4,0.3,9.3C54.3,43,54.7,47,54.7,47c0,0-0.5,3.8-3,5.7C50.8,53.3,49.9,53.6,49,53.6z
							 M40.6,50.7c1.3,0,2,0.3,3.1,0.9c2,1.1,5.2,2.9,7.9,1c2.5-1.8,3-5.5,3-5.6c0,0-0.4-4.1,1.5-7.9c1.9-3.9,1.8-6.5-0.3-9.2
							c-2.1-2.7-9.7-6.1-9.9-6.1l-3-1c0,0-3.2-1.1-7,2.8c-2.6,2.7-4.3,4-5.5,4.9c-0.6,0.5-1.1,0.9-1.6,1.3c-0.6,0.6-2.8,2.9-3,6.6
							l0,0.3c-0.2,2.6-0.6,8.8,2.3,11.5c1.1,1.1,2.7,1.5,4.6,1.3c0.8-0.1,1.5-0.2,2.2-0.3C37.8,50.9,39.5,50.7,40.6,50.7z"/>
					</g>
					<g>
						<path class="st1" d="M1.8,40c-1.9-2.8-2.4-5.7,1.1-10.8c3.2-4.5,3-6.2,2.5-11.9l-0.1-0.9c-0.6-6.4,6.1-10.2,6.2-10.2l0.2,0.3
							c0,0-1.7,0.9-3.2,2.6c-1.4,1.5-3.1,4-2.8,7.3l0.1,0.9c0.6,5.7,0.7,7.5-2.5,12.1c-3.4,4.9-2.9,7.7-1.1,10.3L1.8,40z"/>
					</g>
					<g>
						<path class="st1" d="M1.7,38.9c-2-2.7-2.6-5.5,0.7-10.7c3-4.7,2.8-6.4,2-12.1l-0.1-0.9C3.3,9,9.7,5,9.8,4.9L9.9,5
							c-0.1,0-6.5,4-5.6,10.2l0.1,0.9c0.8,5.7,1.1,7.4-2,12.1C-0.8,33.4-0.2,36.2,1.7,38.9L1.7,38.9z"/>
					</g>
					<g>
						<path class="st1" d="M20.5,52.3c-0.2-0.1-4.3-1.8-6.3-3.9c-1.6-1.7-1.2-5.3-0.9-8.3c0.1-0.8,0.2-1.5,0.2-2.1
							c0.1-1.9-0.1-4.7-0.3-6.9c-0.1-1.1-0.1-2-0.2-2.6c-0.1-1.8-1-6.8-1.7-10.5c-0.4-1.8-0.7-6.2,3.8-9.9c3.6-3,12.9-2.9,13.3-2.9
							l0,0.4c-0.1,0-9.6,0-13,2.8c-4.3,3.6-4,7.9-3.6,9.6c0.2,0.8,1.6,8.1,1.7,10.6c0,0.6,0.1,1.5,0.2,2.6c0.2,2.2,0.4,5,0.3,6.9
							c0,0.6-0.1,1.3-0.2,2.1c-0.3,2.9-0.7,6.4,0.8,8c1.9,2,6.1,3.8,6.1,3.8L20.5,52.3z"/>
					</g>
					<g>
						<path class="st1" d="M18.4,56.2c-0.7-2.2-2.4-3.8-4.1-5.3c-0.9-0.9-1.9-1.8-2.7-2.8c-1.7-2.2-1.4-4.9-0.9-8.8
							c0.1-1.1,0.3-2.3,0.4-3.7c0.4-5.3-1.3-11.4-2.1-13.8c0-0.1-0.1-0.2-0.1-0.3c-0.6-1.7-2.3-6.8,0.1-11.8c2.6-5.4,11.6-5,11.7-5
							l0,0.1c-0.1,0-9.1-0.4-11.6,4.9c-2.4,5-0.7,10.1-0.1,11.7C9,21.6,9,21.8,9,21.8c0.8,2.4,2.5,8.5,2.1,13.8
							c-0.1,1.3-0.2,2.6-0.4,3.7c-0.4,3.8-0.8,6.6,0.9,8.7c0.8,1,1.8,1.9,2.7,2.7c1.7,1.6,3.5,3.2,4.1,5.4L18.4,56.2z"/>
					</g>
					<g>
						<path class="st1" d="M18.3,46L18.3,46c0.6-1.7,0.2-3.5-0.1-5.3c-0.2-1-0.3-2-0.4-3c0-2.2,1.5-3.7,3.7-5.9
							c0.6-0.6,1.3-1.3,2-2.1c2.8-3.1,4.7-7.7,5.4-9.6c0-0.1,0.1-0.2,0.1-0.3c0.5-1.3,1.8-5.3,5.7-7.3c4.2-2.1,9.6,2.5,9.7,2.6
							l-0.1,0.1c0,0-1.4-1.2-3.2-2.1c-1.7-0.8-4.2-1.6-6.4-0.5c-3.9,1.9-5.3,5.9-5.7,7.2c0,0.1-0.1,0.2-0.1,0.3
							c-0.7,1.8-2.5,6.5-5.4,9.6c-0.7,0.8-1.4,1.5-2,2.1c-2.1,2.2-3.6,3.7-3.6,5.8c0,1,0.2,2,0.4,3C18.6,42.5,18.9,44.3,18.3,46z"/>
					</g>
					<g>
						<path class="st1" d="M21,21c-0.6,0-1.4-0.3-1.6-1c-0.2-0.5-0.1-1,0.1-1.5c1.1-4.5,2.3-9.1,5-13c1.4-2.1,3.3-3.9,5-5.6
							c1.2-1.2,2.4-2.4,3.5-3.7c2.9-3.4,5.1-7.6,7.3-11.7c2.6-4.9,5.3-10.1,9.1-13.8l0.1,0.1c-3.9,3.7-6.5,8.8-9.1,13.7
							c-2.2,4.1-4.4,8.4-7.3,11.8c-1.1,1.3-2.3,2.5-3.5,3.7c-1.8,1.7-3.6,3.6-5,5.6c-2.7,3.9-3.8,8.5-5,13c-0.1,0.5-0.2,1-0.1,1.5
							c0.3,0.7,1.1,1,1.8,0.9c0.7-0.1,1.3-0.5,1.9-0.9c4.6-3.6,7-9.2,9.2-14.1c0.3-0.7,0.6-1.4,0.6-2.2c0-0.1,0-0.1,0-0.2
							c0-0.7,0-1.3-1.2-1.6c-0.6-0.2-1.3,0.1-2.1,0.8c-2,1.7-3.6,4-5,6.1c-1.2,1.8-2.3,3.6-2.2,5.5c0,0.4,0.1,0.6,0.3,0.7
							c0.3,0.1,1.1,0.2,1.3,0.1c2.7-1.5,4.7-4.9,4.9-8.1l0.1,0c-0.2,3.3-2.2,6.7-4.9,8.2c-0.3,0.2-1.1,0.1-1.4-0.1
							c-0.2-0.1-0.4-0.4-0.4-0.8c-0.1-2,0.9-3.8,2.2-5.6c1.5-2.2,3-4.4,5-6.2c0.8-0.7,1.6-1,2.2-0.8C33,2.1,33,2.8,33,3.5
							c0,0.1,0,0.1,0,0.2c0,0.8-0.3,1.6-0.6,2.2c-2.2,4.9-4.6,10.6-9.2,14.1c-0.6,0.4-1.2,0.9-1.9,1C21.2,21,21.1,21,21,21z"/>
					</g>
					<g>
						<path class="st1" d="M25.4,45.7c-1.8-2.8-2.6-6.3-2.1-9.7c0.4-3.3,2.1-6.5,4.6-8.8c2.2-2,5-3.2,7.6-4.5c3.2-1.5,6.5-3,8.8-5.7
							c1-1.2,1.7-2.6,2.4-3.9c0.5-0.9,1-1.9,1.5-2.7c1.3-2,3-3.8,5-5.1l0.2,0.3c-2,1.3-3.7,3-4.9,5c-0.6,0.9-1,1.8-1.5,2.7
							c-0.7,1.4-1.4,2.8-2.4,4c-2.3,2.8-5.6,4.4-8.9,5.8c-2.7,1.2-5.4,2.5-7.5,4.4c-2.4,2.2-4.1,5.3-4.5,8.5
							c-0.4,3.2,0.3,6.7,2.1,9.4L25.4,45.7z"/>
					</g>
				</g>
			</g>
			<g>
				<path class="st1" d="M21.3,43.3c-0.2,0-0.5,0-0.7,0c-0.1,0-0.2,0-0.3,0c-0.1,0-0.2,0.1-0.1,0.2c0,0,0,0.1,0,0.1c0,0,0,0,0,0
					c0,0-0.1,0-0.1-0.1c-0.4-0.3-0.8-0.4-1.2-0.3c-0.1,0-0.2,0-0.3,0c-0.2,0-0.3,0-0.4-0.2C18.2,43,18,43,17.8,43
					c0-0.1,0.1-0.2,0.2-0.1c0.1,0,0.3,0.1,0.4,0.1c0.1,0.1,0.2,0.1,0.4,0.1c0.1,0,0.1,0,0.1-0.1c0.2-0.1,0.2-0.2,0.1-0.4
					c-0.2-0.3-0.3-0.6-0.4-1c-0.2-0.4-0.3-0.9-0.5-1.3c-0.1-0.3-0.4-0.5-0.7-0.7c-0.1,0-0.2-0.1-0.3-0.1c-0.3,0-0.7,0-1-0.1
					c-0.1,0-0.1,0-0.2,0c-0.2,0.1-0.4,0.2-0.6,0.2c0.1-0.1,0.2-0.2,0.3-0.3c-0.2,0-0.3,0-0.5-0.1c-0.1,0-0.2,0-0.3,0
					c-0.2-0.1-0.3,0-0.5,0c-0.8,0.2-1.5,0.5-2.3,0.7c-0.1,0-0.2,0-0.2,0c0,0,0,0-0.1,0c0.1,0,0.1-0.1,0.2-0.1
					c0.6-0.3,1.2-0.5,1.8-0.7c0.7-0.3,1.4-0.5,2.1-0.8c0.3-0.1,0.6-0.3,0.9-0.5c0.6-0.4,1.3-0.8,1.9-1.3c0.3-0.3,0.6-0.6,0.9-0.9
					c0.7-0.7,1.5-1.3,2.4-1.7c0.5-0.2,1-0.3,1.5-0.2c0.3,0.1,0.6,0.3,0.8,0.5c0.1,0.1,0.2,0.1,0.2,0.1c0.2,0,0.4,0,0.7,0
					c0.1,0,0.1,0,0.2,0c-0.1,0-0.1,0.1-0.1,0.1c-0.3,0.1-0.6,0.2-0.8,0.3c-0.1,0.1-0.3,0.1-0.3,0.3c-0.1,0.2-0.1,0.5-0.1,0.7
					c0,0.3,0,0.7,0,1c0,0.9-0.3,1.6-0.9,2.3c-0.3,0.3-0.7,0.6-1.1,0.8c-0.6,0.3-1.3,0.5-1.9,0.6c-0.1,0-0.2,0-0.3,0.1
					c-0.1,0-0.1,0.1-0.1,0.2c0.6,0.6,1,1.3,1.6,1.9c0.1,0.1,0.2,0.2,0.4,0.3c0.1,0.1,0.3,0.1,0.4,0.1c0.2,0,0.4,0,0.6,0
					c0.1,0,0.2,0.1,0.2,0.2c-0.2,0-0.4-0.1-0.6-0.1c-0.1,0-0.2,0-0.4,0.1c-0.3,0.1-0.5,0.1-0.7-0.2c-0.1-0.1-0.1-0.1-0.2-0.1
					c-0.2,0-0.3,0-0.5,0c-0.1,0-0.2-0.1-0.3-0.1c-0.1,0-0.2-0.1-0.3-0.2c0.1,0,0.3,0,0.4,0.1c0.1,0,0.2,0.1,0.4,0.1
					c0.2,0,0.2,0,0.2-0.2c0-0.1-0.1-0.2-0.1-0.3c-0.4-0.6-0.8-1.1-1.3-1.5c-0.3-0.2-0.6-0.3-0.9-0.2c-0.2,0-0.2,0.1-0.2,0.3
					c0.2,0.6,0.3,1.2,0.6,1.8c0,0.1,0.1,0.1,0.1,0.2c0.2,0.3,0.4,0.5,0.8,0.5c0.4,0,0.8,0.1,1.2,0.1C21.2,43.3,21.3,43.3,21.3,43.3
					C21.3,43.3,21.3,43.3,21.3,43.3z"/>
			</g>
		</g>
	</g>
</g>
</svg>
