<?xml version="1.0" encoding="utf-8"?>
<!-- Generator: Adobe Illustrator 26.5.0, SVG Export Plug-In . SVG Version: 6.00 Build 0)  -->
<svg version="1.1" id="圖層_1" xmlns="http://www.w3.org/2000/svg" xmlns:xlink="http://www.w3.org/1999/xlink" x="0px" y="0px"
	 viewBox="0 0 352 22" style="enable-background:new 0 0 352 22;" xml:space="preserve">
<style type="text/css">
	.st0{fill:url(#SVGID_1_);}
	.st1{fill:url(#SVGID_00000066481484185120245860000000722761656212798902_);}
	.st2{fill:#941F24;}
	.st3{fill-rule:evenodd;clip-rule:evenodd;fill:#1C72B2;}
	.st4{fill:#1C72B2;}
	.st5{fill-rule:evenodd;clip-rule:evenodd;fill:url(#SVGID_00000062190558813054744670000013964863226152194716_);}
	.st6{fill:url(#SVGID_00000015338013011357191640000012635252285533182132_);}
	.st7{fill-rule:evenodd;clip-rule:evenodd;fill:url(#SVGID_00000053519585064370121410000018022200646214499215_);}
	.st8{fill:url(#SVGID_00000082327456575271080330000013242361747755383733_);}
</style>
<g>
	<rect x="244.9" y="3.9" width="0.6" height="17.3"/>
	<rect x="123.9" y="3.9" width="0.6" height="17.3"/>
	<g>
		<g>
			<g>
				<path d="M141.2,13.9l0.4-0.2c0.1,0.3,0.2,0.4,0.5,0.4c0.1,0,0.2,0,0.3-0.1c0.1-0.1,0.1-0.2,0.1-0.3c0,0,0-0.1,0-0.1
					c0,0,0-0.1,0-0.1c0,0,0,0,0-0.1c0,0,0,0-0.1-0.1c0,0,0,0-0.1-0.1c0,0-0.1,0-0.1,0c0,0,0,0-0.1-0.1c-0.1,0-0.1,0-0.1,0
					c-0.3-0.1-0.5-0.3-0.6-0.4c-0.1-0.1-0.2-0.3-0.2-0.5c0-0.2,0.1-0.4,0.2-0.5c0.2-0.1,0.4-0.2,0.6-0.2c0.2,0,0.4,0,0.5,0.1
					c0.1,0.1,0.2,0.2,0.3,0.3l-0.4,0.2c-0.1-0.2-0.2-0.2-0.4-0.2c-0.1,0-0.2,0-0.3,0.1c-0.1,0.1-0.1,0.2-0.1,0.3
					c0,0.1,0,0.2,0.1,0.3c0.1,0.1,0.2,0.1,0.4,0.2c0,0,0,0,0.1,0c0.3,0.1,0.4,0.2,0.6,0.4c0.1,0.1,0.2,0.3,0.2,0.5
					c0,0.3-0.1,0.5-0.2,0.6c-0.2,0.2-0.4,0.2-0.7,0.2c-0.2,0-0.4,0-0.6-0.2C141.4,14.3,141.3,14.1,141.2,13.9z"/>
				<path d="M143.5,11.7h0.4v1.7c0,0.5,0.2,0.7,0.7,0.7c0.5,0,0.7-0.2,0.7-0.7v-1.7h0.4v1.7c0,0.7-0.4,1.1-1.1,1.1
					c-0.8,0-1.1-0.4-1.1-1.1V11.7z"/>
				<path d="M146.4,14.5v-2.9l1.7,1.7c0.1,0.1,0.2,0.2,0.3,0.3v-1.9h0.4v2.9l-1.8-1.7c-0.1-0.1-0.2-0.2-0.3-0.3v1.9H146.4z"/>
				<path d="M138.7,18.6v-1.3l-0.9-1.5h0.5l0.6,0.9c0,0.1,0.1,0.1,0.1,0.2c0-0.1,0.1-0.2,0.1-0.2l0.6-0.9h0.4l-1,1.5v1.3H138.7z"/>
				<path d="M143.1,17.2c0,0.4-0.1,0.7-0.4,1c-0.3,0.3-0.6,0.4-1,0.4c-0.4,0-0.8-0.1-1-0.4c-0.3-0.3-0.4-0.6-0.4-1
					c0-0.4,0.1-0.7,0.4-1c0.3-0.3,0.6-0.4,1-0.4c0.4,0,0.8,0.1,1,0.4C143,16.5,143.1,16.8,143.1,17.2z M142.6,17.2
					c0-0.3-0.1-0.5-0.3-0.7c-0.2-0.2-0.4-0.3-0.7-0.3c-0.3,0-0.5,0.1-0.7,0.3c-0.2,0.2-0.3,0.4-0.3,0.7c0,0.3,0.1,0.5,0.3,0.7
					c0.2,0.2,0.4,0.3,0.7,0.3c0.3,0,0.5-0.1,0.7-0.3C142.5,17.7,142.6,17.5,142.6,17.2z"/>
				<path d="M143.6,15.8h0.4v1.7c0,0.5,0.2,0.8,0.7,0.8c0.5,0,0.7-0.3,0.7-0.8v-1.7h0.4v1.7c0,0.7-0.4,1.1-1.1,1.1
					c-0.8,0-1.1-0.4-1.1-1.1V15.8z"/>
				<path d="M146.5,18.6v-2.9l1.8,1.7c0.1,0.1,0.2,0.2,0.3,0.3v-1.9h0.4v2.9l-1.8-1.7c-0.1-0.1-0.2-0.2-0.3-0.3v1.9H146.5z"/>
				<path d="M151.1,17.2h1.1c0,0.2,0,0.2,0,0.3c0,0.4-0.1,0.7-0.3,0.9c-0.2,0.2-0.5,0.3-0.9,0.3c-0.4,0-0.8-0.1-1.1-0.4
					c-0.3-0.3-0.4-0.6-0.4-1c0-0.4,0.1-0.8,0.4-1c0.3-0.3,0.6-0.4,1.1-0.4c0.4,0,0.8,0.2,1,0.5l-0.3,0.2c-0.2-0.2-0.4-0.3-0.7-0.3
					c-0.3,0-0.5,0.1-0.7,0.3c-0.2,0.2-0.3,0.4-0.3,0.7c0,0.3,0.1,0.6,0.3,0.8c0.2,0.2,0.4,0.3,0.7,0.3c0.3,0,0.5-0.1,0.6-0.2
					c0.1-0.1,0.2-0.3,0.2-0.5v0h-0.7V17.2z"/>
			</g>
		</g>
		<g>
			
				<linearGradient id="SVGID_1_" gradientUnits="userSpaceOnUse" x1="251.3972" y1="-9.094947e-13" x2="251.3972" y2="11.3367" gradientTransform="matrix(-1 0 0 1 392.572 0)">
				<stop  offset="0" style="stop-color:#7B2702"/>
				<stop  offset="1" style="stop-color:#E62C17"/>
			</linearGradient>
			<path class="st0" d="M133.4,11.3V6.6l10.4-6.3c0,0,0.9-0.5,1.9,0c0.8,0.5,3.2,2,3.2,2L133.4,11.3z"/>
			
				<linearGradient id="SVGID_00000165229274265218139970000010953494065223048375_" gradientUnits="userSpaceOnUse" x1="-3408.7136" y1="11.3367" x2="-3408.7136" y2="-9.094947e-13" gradientTransform="matrix(1 0 0 1 3557.0095 0)">
				<stop  offset="0" style="stop-color:#F5A719"/>
				<stop  offset="1" style="stop-color:#ED7300"/>
			</linearGradient>
			<path style="fill:url(#SVGID_00000165229274265218139970000010953494065223048375_);" d="M156,11.3V6.6l-10.4-6.3
				c0,0-0.9-0.5-1.9,0c-0.8,0.5-3.2,2-3.2,2L156,11.3z"/>
			<polygon class="st2" points="133.4,12 133.4,12.2 145.5,5.1 145.3,5 			"/>
		</g>
		<g>
			<path d="M168.6,15.1v1.2h-9.4v-1.2h3.7V7.3h1.3v3h3.7v1.3h-3.7v3.6H168.6z"/>
			<path d="M172.8,12.7c-0.3,0.1-0.6,0.2-0.9,0.3v2.5c0,0.6-0.1,0.9-0.4,1.1c-0.3,0.2-0.8,0.2-1.5,0.2c0-0.3-0.2-0.9-0.3-1.2
				c0.4,0,0.8,0,1,0c0.1,0,0.2,0,0.2-0.2v-2.1l-1.2,0.3l-0.3-1.2c0.4-0.1,0.9-0.2,1.4-0.3v-1.9h-1.2V9.1h1.2V7.1h1.2v1.9h0.9v1.1
				h-0.9v1.6l0.8-0.2L172.8,12.7z M175,12.3c-0.1,0.2-0.2,0.3-0.3,0.5h4c0,0,0,0.3,0,0.4c-0.1,2-0.2,2.8-0.5,3.1
				c-0.2,0.2-0.4,0.3-0.7,0.4c-0.3,0-0.7,0-1.1,0c0-0.3-0.1-0.7-0.3-1c0.4,0,0.7,0,0.8,0c0.1,0,0.2,0,0.3-0.1
				c0.1-0.1,0.2-0.7,0.3-1.9h-0.3c-0.5,1.2-1.2,2.3-2.1,3c-0.2-0.2-0.6-0.5-0.8-0.6c0.8-0.6,1.4-1.4,1.8-2.4h-0.5
				c-0.6,1.1-1.6,2.1-2.5,2.7c-0.2-0.2-0.5-0.5-0.8-0.7c0.9-0.5,1.6-1.2,2.2-2H174c-0.3,0.4-0.7,0.7-1,0.9c-0.2-0.2-0.6-0.5-0.8-0.7
				c0.7-0.4,1.2-1,1.7-1.7h-1.1v-1h6.2v1H175z M178.3,10.9h-4.8V7.4h4.8V10.9z M177.1,8.3h-2.6v0.5h2.6V8.3z M177.1,9.5h-2.6v0.5
				h2.6V9.5z"/>
			<path d="M189,7.6v9.3h-1.2v-0.4h-6.4v0.4h-1.2V7.6H189z M187.7,15.3V8.7h-1.3c0.3,0.2,0.7,0.4,0.9,0.6l-0.4,0.4h0.5v0.9h-1.9
				c0.1,0.6,0.1,1.1,0.2,1.6c0.2-0.4,0.4-0.8,0.5-1.3l0.9,0.2c-0.3,0.9-0.6,1.7-1.1,2.4c0.1,0.3,0.3,0.5,0.5,0.5
				c0.1,0,0.2-0.4,0.2-1c0.2,0.2,0.6,0.5,0.8,0.6c-0.2,1.3-0.7,1.7-1.4,1.4c-0.3-0.1-0.6-0.3-0.8-0.7c-0.3,0.3-0.7,0.6-1.1,0.9
				c-0.1-0.2-0.5-0.6-0.7-0.7c0.1-0.1,0.2-0.1,0.3-0.2c-0.8,0.1-1.6,0.2-2.3,0.3l-0.1-0.9c0.8-0.1,1.8-0.2,2.9-0.4l0,0.5
				c0.2-0.2,0.4-0.3,0.5-0.5c-0.2-0.7-0.4-1.7-0.4-2.7h-2.9V9.7h2.8c0-0.3,0-0.6,0-0.9h1c0,0.3,0,0.6,0,0.9h1.1
				c-0.2-0.2-0.5-0.4-0.8-0.5l0.5-0.5h-5v6.6H187.7z M184.3,13h-2.3v-2h2.3V13z M183.4,11.7h-0.7v0.7h0.7V11.7z"/>
			<path d="M194.9,11.7c-0.3,0.4-0.7,0.7-1.1,0.9c-0.1-0.2-0.4-0.5-0.6-0.7c0.1,0.4,0.1,0.7,0.1,1c0,0.7-0.1,1.1-0.4,1.3
				c-0.1,0.1-0.3,0.2-0.5,0.2c-0.2,0-0.4,0-0.6,0c0-0.3-0.1-0.7-0.3-1c0.2,0,0.3,0,0.4,0c0.1,0,0.2,0,0.3-0.1
				c0.1-0.1,0.2-0.3,0.2-0.6c0-0.5-0.1-1.2-0.7-1.9c0.2-0.6,0.4-1.5,0.5-2.1h-0.8v8.1h-1.1V7.5h2.2l0.2,0l0.8,0.4
				c-0.1,0.4-0.3,0.9-0.4,1.4c0.6-0.6,1-1.3,1.3-2.1l0.9,0.2c-0.1,0.2-0.1,0.4-0.2,0.5h0.8l0.2,0l0.6,0.2l0,0.2l0.5-0.1l0-0.5h1.6
				l0.2-0.1l0.7,0.4c-0.3,0.8-0.8,1.8-1.2,2.4c0.4,0.5,0.9,1,1.4,1.3c-0.2,0.2-0.5,0.6-0.7,0.9c-0.5-0.3-0.9-0.7-1.2-1.1v0.6h-3
				V11.7z M194.6,10.6c0.1-0.2,0.3-0.3,0.4-0.5c-0.2-0.2-0.5-0.4-0.7-0.6c-0.2,0.3-0.4,0.5-0.6,0.7c-0.1-0.1-0.4-0.3-0.6-0.5
				c-0.1,0.3-0.2,0.7-0.3,1c0.3,0.4,0.5,0.8,0.6,1.1c0.4-0.2,0.8-0.6,1.1-1c-0.4,0.1-0.7,0.1-1.1,0.2l-0.1-0.8
				c0.4,0,0.9-0.1,1.4-0.1L194.6,10.6z M195.4,14.5c-0.4,0.6-1,1.4-1.4,1.9c-0.2-0.2-0.7-0.5-1-0.6c0.5-0.4,1-1.1,1.3-1.6
				L195.4,14.5z M197,13.8v3h-1.2v-3h-1.9v-1h5v1H197z M194.7,8.7l-0.1,0.1c0.2,0.2,0.5,0.4,0.7,0.5c0.1-0.2,0.2-0.4,0.2-0.6H194.7z
				 M197.7,11.1c-0.5-0.7-0.9-1.5-1.2-2.5c-0.3,1-0.7,1.8-1.2,2.5H197.7z M197.4,8.5c0.1,0.4,0.2,0.7,0.4,1c0.2-0.3,0.4-0.7,0.5-1
				H197.4z M198.4,14.1c0.4,0.5,1.1,1.2,1.4,1.7l-1,0.6c-0.3-0.5-0.9-1.2-1.4-1.8L198.4,14.1z"/>
			<path d="M203.7,10.8c-0.1,1.5-0.4,2.8-0.8,3.8c1,0.8,2.2,1,3.8,1c0.6,0,2.7,0,3.4,0c-0.2,0.3-0.4,0.8-0.4,1.1h-3
				c-1.7,0-3.2-0.2-4.2-1.1c-0.3,0.5-0.7,1-1.1,1.3c-0.2-0.2-0.6-0.7-0.9-0.8c0.5-0.3,0.9-0.8,1.2-1.4c-0.4-0.5-0.7-1.2-0.9-2
				l0.9-0.3c0.1,0.5,0.3,0.9,0.5,1.2c0.2-0.5,0.3-1.1,0.4-1.8h-1.7c0.4-0.8,0.9-1.9,1.4-2.9h-1.5V7.7h3.2c-0.4,0.9-0.9,2-1.3,2.9
				h0.2l0.2,0L203.7,10.8z M205.9,8.9h-1.8V7.9h1.8V7.2h1.2v0.8h2.3v1.4h0.6v0.9h-0.6v1.4H207v0.5h2.4V13H207v0.5h2.7v1H207v0.7
				h-1.2v-0.7h-2.3v-1h2.3V13H204v-0.9h1.9v-0.5h-1.8v-0.9h1.8v-0.4h-2.3V9.3h2.3V8.9z M207,8.9v0.5h1.2V8.9H207z M208.2,10.3H207
				v0.4h1.2V10.3z"/>
			<path d="M220.4,8.6h-1.8c0.2,0.2,0.4,0.4,0.5,0.6l-0.9,0.6h0.7v2c0,0.2,0,0.3,0,0.3c0,0,0.1,0.1,0.1,0.1h0.2c0.1,0,0.1,0,0.1,0
				c0,0,0.1-0.1,0.1-0.2c0-0.1,0-0.4,0-0.7c0.2,0.2,0.5,0.3,0.8,0.4c0,0.4-0.1,0.8-0.1,1c-0.1,0.2-0.2,0.3-0.3,0.4
				c-0.1,0.1-0.4,0.1-0.5,0.1h-0.5c-0.3,0-0.5-0.1-0.7-0.2c-0.2-0.2-0.2-0.4-0.3-0.9l-0.4,0.8c-0.2-0.1-0.4-0.2-0.7-0.4
				c-0.1,0.2-0.3,0.4-0.6,0.5h0.1v0.6h4.1v1h-2.7c0.8,0.4,2,0.9,2.6,1.3l-0.9,0.8c-0.6-0.4-1.7-1-2.6-1.4l0.8-0.7h-1.3v2.3H215v-2.3
				h-4.1v-1h4.1v-0.6h0.1c-0.1-0.1-0.3-0.2-0.4-0.3v0.1c-1.3,0.2-2.6,0.3-3.6,0.5l-0.1-1c0.4,0,0.9-0.1,1.4-0.2v-1.3h-1.3V9.9h2.6
				c-0.2-0.3-0.5-0.7-0.8-0.9l0.4-0.3h-0.7c-0.3,0.4-0.7,0.8-1,1.1c-0.2-0.2-0.6-0.6-0.8-0.8c0.6-0.4,1.2-1.1,1.6-1.8l1.1,0.3
				c-0.1,0.1-0.1,0.2-0.2,0.3h2.3v0.9H214c0.2,0.2,0.5,0.5,0.6,0.7l-0.7,0.6h0.8v0.9h-1.2v1.1c0.4-0.1,0.8-0.1,1.2-0.2l0,0.8
				c0.5-0.2,0.8-0.4,1-0.6c-0.3-0.1-0.6-0.3-0.8-0.4l0.4-0.7c0.2,0.1,0.5,0.2,0.7,0.3c0-0.1,0-0.1,0-0.2v-0.3h-1V9.8h3.1
				c-0.2-0.3-0.5-0.7-0.8-0.9l0.4-0.3H217c-0.3,0.4-0.6,0.8-0.9,1.1c-0.2-0.2-0.7-0.6-0.9-0.7c0.6-0.5,1.1-1.2,1.4-1.9l1.1,0.3
				c-0.1,0.1-0.1,0.2-0.2,0.4h2.9L220.4,8.6z M214.6,14.9c-0.6,0.8-1.7,1.5-2.8,1.8c-0.2-0.3-0.6-0.8-0.8-1c1-0.2,2.1-0.6,2.7-1.2
				L214.6,14.9z M217.1,11c0,0.2,0,0.4-0.1,0.6c0.3,0.1,0.6,0.3,0.8,0.4v-0.1v-1.2h-0.7V11z"/>
			<path d="M230.3,7.5v9.3h-1.2v-0.5h-6.4v0.5h-1.1V7.5H230.3z M229.2,15.4v-7h-6.4v7H229.2z M228.9,13.9h-1.3v0.7
				c0,0.4-0.1,0.5-0.4,0.6c-0.3,0.1-0.7,0.1-1.3,0.1c0-0.2-0.2-0.4-0.2-0.6c0.3,0,0.6,0,0.7,0c0.1,0,0.1,0,0.1-0.1v-0.6h-1.8
				c0.3,0.3,0.6,0.6,0.7,0.8l-0.8,0.4c-0.1-0.2-0.4-0.7-0.7-0.9l0.7-0.3H223v-0.7h3.6v-0.3h1v0.3h0.6c-0.1-0.1-0.2-0.2-0.3-0.4
				c-1.7,0.1-3.4,0.1-4.7,0.1l0-0.7c0.6,0,1.4,0,2.3,0V12h-2V9.9h2V9.6h-2.3V8.9h2.3V8.6h1v0.4h2.4v0.7h-2.4v0.3h2.1V12H228
				c0.3,0.3,0.7,0.6,0.9,0.8l-0.6,0.4h0.6V13.9z M224.3,10.7h1.1v-0.3h-1.1V10.7z M225.4,11.5v-0.3h-1.1v0.3H225.4z M226.4,10.4v0.3
				h1.1v-0.3H226.4z M227.5,11.2h-1.1v0.3h1.1V11.2z M226.4,12.4h0.8l-0.1-0.1l0.4-0.2h-1.1V12.4z"/>
			<path d="M235.1,8c-0.3,0.9-0.6,2-0.9,2.8c0.6,0.8,0.8,1.5,0.8,2.1c0,0.7-0.1,1.1-0.5,1.3c-0.2,0.1-0.3,0.2-0.6,0.2
				c-0.2,0-0.4,0-0.7,0c0-0.3-0.1-0.8-0.3-1c0.2,0,0.3,0,0.4,0c0.1,0,0.2,0,0.3-0.1c0.1-0.1,0.2-0.3,0.2-0.6c0-0.5-0.1-1.1-0.7-1.8
				c0.2-0.6,0.4-1.6,0.6-2.3H233v8.1h-1.1V7.6h2.2l0.2-0.1L235.1,8z M241,11c-0.4,0.3-0.8,0.5-1.2,0.8c0.4,1.1,1,2.2,1.6,2.9
				c-0.2,0.2-0.6,0.5-0.8,0.8c-0.6-0.7-1.3-2-1.6-3.2l0,0c0.5,1.6,0.3,3.4-0.3,3.9c-0.3,0.4-0.7,0.5-1.2,0.5c-0.2,0-0.5,0-0.8,0
				c0-0.3-0.1-0.8-0.3-1.1c0.3,0,0.7,0.1,0.9,0.1c0.2,0,0.4,0,0.5-0.3c0.2-0.2,0.3-0.7,0.3-1.3c-0.8,0.6-1.8,1.2-2.6,1.5
				c-0.2-0.3-0.5-0.6-0.7-0.9c1.1-0.3,2.5-1,3.2-1.8c0-0.2-0.1-0.4-0.1-0.5c-0.6,0.5-1.4,1-2,1.3c-0.1-0.3-0.4-0.7-0.7-0.9
				c0.8-0.3,1.7-0.8,2.3-1.3c-0.1-0.2-0.2-0.4-0.4-0.6c-0.5,0.4-1.1,0.7-1.7,1c-0.1-0.2-0.5-0.7-0.7-0.9c0.8-0.3,1.5-0.7,2.1-1.2
				H235V8.8h1.6c-0.2-0.4-0.6-0.7-1-1l0.9-0.5c0.5,0.4,1,0.9,1.2,1.2l-0.5,0.4h0.9c0.3-0.5,0.7-1.1,0.9-1.6l1.2,0.3
				c-0.3,0.5-0.6,0.9-0.9,1.3h1.5v1.1h-2.8c-0.1,0.1-0.3,0.3-0.4,0.4c0.3,0.3,0.5,0.7,0.7,1.1c0.6-0.4,1.3-0.8,1.7-1.2L241,11z"/>
		</g>
	</g>
	<g>
		<g>
			<g>
				<path class="st3" d="M21.9,0.7c-1.9,2.5-4.2,4.2-7,5c2.1,0.8,4,1.9,5.5,3.2c0.5,0.4,1,0.9,1.4,1.4c1.6-2.5,4-3.8,6.5-4.7
					C25.6,4.4,23.5,2.8,21.9,0.7z"/>
				<path class="st4" d="M21.9,10.5l-0.1-0.1c-0.4-0.5-0.9-1-1.4-1.4c-1.5-1.3-3.3-2.4-5.5-3.2l-0.3-0.1l0.3-0.1
					c2.7-0.8,5-2.4,6.9-4.9l0.1-0.1L22,0.6c1.6,2.1,3.7,3.8,6.4,4.9l0.3,0.1l-0.3,0.1c-2.9,1-5.1,2.5-6.5,4.7L21.9,10.5z M15.3,5.7
					c2.1,0.8,3.8,1.9,5.2,3.1c0.5,0.4,0.9,0.9,1.3,1.3c1.4-2.1,3.4-3.6,6.2-4.5c-2.6-1.1-4.6-2.7-6.2-4.7
					C20.1,3.2,17.9,4.9,15.3,5.7z"/>
			</g>
			<g>
				
					<linearGradient id="SVGID_00000039821975148966867500000015957746526647203235_" gradientUnits="userSpaceOnUse" x1="13.8228" y1="-11.3029" x2="13.8228" y2="27.2095">
					<stop  offset="0" style="stop-color:#FFFFFF"/>
					<stop  offset="1" style="stop-color:#000000"/>
				</linearGradient>
				<path style="fill-rule:evenodd;clip-rule:evenodd;fill:url(#SVGID_00000039821975148966867500000015957746526647203235_);" d="
					M0.3,11.5c7.1,0.4,11.6,3.8,17.2,6.7l4.5,2.7c1.2-0.8,2.9-3.5,5.5-4.6c-1.1-0.2-2.9-1.2-4.9-3.1c-3.1-3.1-5.9-6.2-9.9-6.5
					C8,6.5,4.2,7.9,0.3,11.5z"/>
				
					<linearGradient id="SVGID_00000052077440061083416080000012403804004783828884_" gradientUnits="userSpaceOnUse" x1="13.8901" y1="-11.3015" x2="13.8901" y2="27.2078">
					<stop  offset="0" style="stop-color:#FFFFFF"/>
					<stop  offset="1" style="stop-color:#000000"/>
				</linearGradient>
				<path style="fill:url(#SVGID_00000052077440061083416080000012403804004783828884_);" d="M21.9,21.1l-4.5-2.7
					c-1.1-0.6-2.2-1.2-3.3-1.8c-4.2-2.4-8.2-4.6-13.8-4.9l-0.3,0l0.2-0.2c4-3.6,7.7-5.1,12.4-4.8c3.7,0.2,6.3,2.8,9.1,5.6
					c0.3,0.3,0.6,0.6,0.9,0.9c2.1,2.1,3.9,2.9,4.9,3.1l0.4,0.1l-0.4,0.1c-1.7,0.7-3,2.1-4,3.3C22.8,20.3,22.4,20.8,21.9,21.1
					L21.9,21.1z M0.5,11.4c5.6,0.3,9.5,2.6,13.7,4.9c1.1,0.6,2.2,1.2,3.3,1.8l4.4,2.7c0.4-0.3,0.8-0.7,1.3-1.3
					c1-1.1,2.2-2.4,3.8-3.2c-1.1-0.3-2.8-1.2-4.7-3.1c-0.3-0.3-0.6-0.6-0.9-0.9c-2.8-2.8-5.4-5.4-9-5.6C8,6.6,4.4,8,0.5,11.4z"/>
			</g>
			<g>
				
					<linearGradient id="SVGID_00000094592362351762135240000016593452999460778394_" gradientUnits="userSpaceOnUse" x1="33.208" y1="-11.304" x2="33.208" y2="27.2079">
					<stop  offset="0" style="stop-color:#FFFFFF"/>
					<stop  offset="1" style="stop-color:#000000"/>
				</linearGradient>
				<path style="fill-rule:evenodd;clip-rule:evenodd;fill:url(#SVGID_00000094592362351762135240000016593452999460778394_);" d="
					M22.7,11.5c9.1,8.9,9.2-1.7,21,0.4C37.1,4.9,29.7,4.1,22.7,11.5z"/>
				
					<linearGradient id="SVGID_00000010278020071917812470000011271698304217043333_" gradientUnits="userSpaceOnUse" x1="33.2885" y1="-11.3003" x2="33.2885" y2="27.2085">
					<stop  offset="0" style="stop-color:#FFFFFF"/>
					<stop  offset="1" style="stop-color:#000000"/>
				</linearGradient>
				<path style="fill:url(#SVGID_00000010278020071917812470000011271698304217043333_);" d="M29.1,15.2c-1.7,0-3.7-0.9-6.5-3.7
					l-0.1-0.1l0.1-0.1c3.3-3.4,6.8-5.2,10.3-5.2c0,0,0,0,0,0c3.7,0,7.4,1.9,10.9,5.6L44,12L43.7,12c-5.1-0.9-8.1,0.6-10.5,1.8
					C31.8,14.6,30.5,15.2,29.1,15.2z M22.8,11.5c5,4.9,7.2,3.7,10.3,2.1c2.3-1.2,5.3-2.7,10.3-1.9c-3.4-3.5-7-5.3-10.5-5.3
					c0,0,0,0,0,0C29.5,6.4,26.1,8.1,22.8,11.5z"/>
			</g>
		</g>
		<g>
			<path d="M57.2,12.4c0.3,0,0.4,0.1,0.4,0.4c0,0.3-0.1,0.4-0.4,0.4h-7.4c-0.3,0-0.4-0.1-0.4-0.4c0-0.3,0.1-0.4,0.4-0.4H57.2z
				 M56.9,5.7c0.3,0,0.4,0.1,0.4,0.4c0,0.3-0.1,0.4-0.4,0.4h-6.8c-0.3,0-0.4-0.1-0.4-0.4c0-0.3,0.1-0.4,0.4-0.4H56.9z M56.4,9
				c0.2,0,0.4,0.1,0.4,0.4c0,0.3-0.1,0.4-0.4,0.4h-6c-0.2,0-0.4-0.1-0.4-0.4C50,9.1,50.1,9,50.4,9H56.4z"/>
			<path d="M70.1,7.3c0.2,0,0.4,0.1,0.4,0.4c0,0.3-0.1,0.4-0.4,0.4h-0.5v3.7c0.2-0.1,0.4-0.3,0.6-0.4l0.1,0c0.3,0,0.4,0.1,0.4,0.4
				c0,0.1,0,0.2-0.1,0.3c-0.2,0.2-0.5,0.4-0.9,0.6c-0.5,0.3-0.9,0.5-1.3,0.6c-0.1,0-0.1,0-0.2,0c-0.3,0-0.4-0.1-0.4-0.4
				c0-0.2,0.1-0.3,0.3-0.4c0.3-0.1,0.5-0.2,0.8-0.3V8.1h-0.6c-0.2,0-0.4-0.1-0.4-0.4c0-0.2,0.1-0.4,0.4-0.4h0.6V5.7
				c0-0.2,0.1-0.4,0.4-0.4c0.3,0,0.4,0.1,0.4,0.4v1.6H70.1z M75.5,6.2c0.4,0,0.6,0.2,0.6,0.7v2.8c0,0.5-0.1,0.9-0.3,1
				c-0.2,0.2-0.4,0.2-0.7,0.2c-0.2,0-0.4,0-0.8-0.1c-0.2-0.1-0.3-0.2-0.3-0.4c0-0.3,0.1-0.4,0.3-0.4c0.4,0.1,0.6,0.1,0.7,0.1
				c0.1,0,0.2-0.1,0.3-0.2c0.1-0.1,0.1-0.3,0.1-0.5V7.3c0-0.2-0.1-0.2-0.2-0.2l-1.3,0.5v3.5c0,0.2-0.1,0.4-0.4,0.4
				c-0.2,0-0.4-0.1-0.4-0.4V7.9l-1.2,0.5V12c0,0.3,0.1,0.5,0.3,0.5c0.3,0.1,0.8,0.1,1.6,0.1c0.8,0,1.3,0,1.6-0.1
				c0.2,0,0.3-0.1,0.4-0.1c0.1-0.1,0.1-0.3,0.1-0.8c0-0.2,0.1-0.3,0.4-0.4c0.2,0,0.3,0.2,0.4,0.5c0,0.2,0,0.5-0.1,0.7
				c-0.1,0.3-0.2,0.6-0.5,0.7c-0.2,0.1-0.9,0.2-2,0.2c-1.2,0-1.9-0.1-2.3-0.2c-0.4-0.2-0.6-0.6-0.6-1.1V8.7L70.5,9
				c-0.3,0-0.4-0.2-0.4-0.5c0-0.1,0.1-0.2,0.3-0.3l0.8-0.3V6.1c0-0.3,0.1-0.4,0.4-0.4c0.2,0,0.4,0.1,0.4,0.4v1.5l1.2-0.5V5.6
				c0-0.2,0.1-0.4,0.4-0.4c0.3,0,0.4,0.1,0.4,0.4v1.3L75.5,6.2z"/>
			<path d="M88.5,5.2c0.2,0,0.4,0.1,0.4,0.3c0,0,0,0.1,0,0.2c0,0.1-0.1,0.2-0.1,0.3H91c0,0,0.1-0.1,0.1-0.1c0.1-0.2,0.2-0.4,0.3-0.6
				c0.1-0.1,0.2-0.1,0.3-0.1c0.1,0,0.2,0,0.3,0.1c0.1,0.1,0.1,0.2,0.1,0.3c0,0.1,0,0.1-0.1,0.2c-0.1,0.1-0.1,0.2-0.2,0.2h3
				c0.2,0,0.3,0.1,0.3,0.3c0,0.2-0.1,0.4-0.3,0.4h-3.1v0.5h2.9c0.2,0,0.3,0.1,0.3,0.3c0,0.2-0.1,0.4-0.3,0.4h-2.9v0.5h2.9
				c0.2,0,0.3,0.1,0.3,0.3c0,0.2-0.1,0.4-0.3,0.4h-2.9v0.6h3.2c0.2,0,0.4,0.1,0.4,0.3c0,0.2-0.1,0.4-0.4,0.4h-3.3
				c0.1,0.1,0.1,0.2,0.1,0.3V11h3.4c0.2,0,0.4,0.1,0.4,0.4c0,0.2-0.1,0.4-0.4,0.4h-3c0.4,0.2,0.8,0.4,1.1,0.5c0.8,0.3,1.4,0.5,2,0.7
				c0.1,0.1,0.2,0.2,0.2,0.4c0,0.2-0.1,0.4-0.4,0.4c0,0-0.2,0-0.3-0.1c-0.6-0.2-1.1-0.4-1.6-0.6c-0.5-0.2-1-0.5-1.5-0.8v1.3
				c0,0.2-0.1,0.4-0.4,0.4c-0.2,0-0.4-0.1-0.4-0.4v-1.2c-0.4,0.2-0.7,0.4-1.1,0.5c-0.5,0.2-1.3,0.5-2.3,0.8c-0.1,0-0.2,0-0.2,0
				c-0.2,0-0.4-0.1-0.4-0.4c0-0.2,0.1-0.3,0.2-0.4c1-0.2,1.8-0.5,2.4-0.7c0.4-0.1,0.7-0.3,1-0.4h-3.3c-0.2,0-0.4-0.1-0.4-0.4
				c0-0.2,0.1-0.4,0.4-0.4H91v-0.3c0-0.1,0-0.2,0.1-0.3h-2.7c-0.5,0-0.7-0.2-0.7-0.7V7.5c-0.1,0.1-0.1,0.1-0.2,0.2
				c-0.1,0.1-0.2,0.1-0.3,0.1c-0.2,0-0.4-0.1-0.4-0.3c0,0,0-0.1,0.1-0.2c0.3-0.2,0.5-0.5,0.7-0.8c0.2-0.3,0.4-0.7,0.6-1.1
				C88.2,5.3,88.4,5.2,88.5,5.2z M91,7.2V6.7h-2.6l0,0c0,0,0,0.1,0,0.2v0.3H91z M91,8.4V7.9h-2.6v0.5H91z M91,9.7V9.1h-2.6v0.2
				c0,0.2,0.1,0.4,0.3,0.4H91z"/>
			<path d="M106.9,5.5h6.3c0.5,0,0.7,0.2,0.7,0.6v6.6c0,0.4-0.2,0.7-0.7,0.7h-6.3c-0.5,0-0.7-0.2-0.7-0.7V6.1
				C106.2,5.7,106.5,5.5,106.9,5.5z M110.8,12.9c-0.2,0-0.4-0.1-0.6-0.2c-0.2-0.1-0.2-0.2-0.2-0.3c0-0.2,0.1-0.3,0.3-0.4
				c0,0,0.1,0,0.1,0c0.3,0.1,0.5,0.2,0.6,0.2c0.2,0,0.3-0.1,0.3-0.3v-0.4H109c0.1,0.1,0.2,0.1,0.2,0.2c0.1,0.1,0.2,0.2,0.3,0.3
				c0,0.1,0,0.1,0,0.2c0,0.2-0.1,0.3-0.3,0.3c-0.1,0-0.2,0-0.3-0.1c-0.1-0.1-0.2-0.2-0.2-0.2c-0.1,0-0.1-0.1-0.2-0.1
				c-0.1-0.1-0.1-0.2-0.1-0.3c0-0.1,0-0.2,0.1-0.3h-1.2c-0.2,0-0.3-0.1-0.3-0.3c0-0.2,0.1-0.3,0.3-0.3h3.9v-0.6
				c-1.3,0.1-2.6,0.1-3.8,0.2c-0.2,0-0.3-0.1-0.3-0.3c0-0.2,0.1-0.3,0.3-0.3c0.8,0,1.5,0,2.2,0V9.5h-1.7c-0.3,0-0.5-0.2-0.5-0.5V7.8
				c0-0.3,0.2-0.5,0.5-0.5h1.7V7h-2.1c-0.2,0-0.3-0.1-0.3-0.3c0-0.2,0.1-0.3,0.3-0.3h2.1V6.1h-2.3c-0.2,0-0.4,0.1-0.4,0.4v5.9
				c0,0.3,0.1,0.4,0.4,0.4H110.8z M108.1,8.1h1.6V7.8h-1.5c-0.1,0-0.1,0-0.1,0.1V8.1z M109.6,9V8.6h-1.6v0.2c0,0.1,0,0.2,0.1,0.2
				H109.6z M112.9,12.9c0.2,0,0.4-0.1,0.4-0.4V6.5c0-0.3-0.1-0.4-0.4-0.4h-2.6v0.3h2.3c0.2,0,0.3,0.1,0.3,0.3c0,0.2-0.1,0.3-0.3,0.3
				h-2.3v0.3h1.8c0.4,0,0.5,0.2,0.5,0.5V9c0,0.2-0.1,0.4-0.2,0.4c0.1,0.1,0.2,0.2,0.2,0.3c0.1,0.1,0.2,0.3,0.4,0.5
				c0,0.1,0,0.1,0,0.2c0,0.2-0.1,0.3-0.3,0.3c-0.1,0-0.2,0-0.3-0.1c-0.1-0.2-0.1-0.3-0.2-0.4c0,0,0,0,0,0c-0.1,0-0.2,0-0.3,0v0.6
				h0.9c0.2,0,0.3,0.1,0.3,0.3c0,0.2-0.1,0.3-0.3,0.3h-0.9v0.7c0,0.3-0.2,0.5-0.5,0.6H112.9z M110.3,7.8v0.3h1.8V8
				c0-0.1,0-0.1-0.1-0.1H110.3z M111.9,9c0.1,0,0.1-0.1,0.1-0.2V8.6h-1.8V9H111.9z M111.9,9.8c0,0,0-0.1,0-0.1c0,0,0-0.1,0-0.1h-1.6
				v0.3C110.9,9.8,111.4,9.8,111.9,9.8z"/>
		</g>
		<g>
			<path d="M62,20c0,0.2,0,0.3-0.1,0.4c-0.1,0.1-0.2,0.2-0.4,0.3c-0.2,0.1-0.3,0.1-0.5,0.2c-0.2,0-0.4,0-0.6,0c-0.2,0-0.4,0-0.6,0
				l0-0.3c0.2,0,0.5,0,0.7,0c0.1,0,0.3,0,0.4,0c0.1,0,0.3-0.1,0.3-0.1c0.1,0,0.2-0.1,0.3-0.2c0.1-0.1,0.1-0.1,0.1-0.2
				c0-0.1,0-0.2-0.1-0.3c-0.1-0.1-0.2-0.1-0.3-0.2c-0.1,0-0.2-0.1-0.4-0.2c-0.1-0.1-0.3-0.1-0.4-0.2c-0.2-0.1-0.3-0.2-0.4-0.3
				c-0.1-0.1-0.2-0.2-0.2-0.4c0-0.1,0-0.3,0.1-0.4c0.1-0.1,0.2-0.2,0.3-0.3c0.1-0.1,0.3-0.1,0.4-0.2c0.2,0,0.4-0.1,0.6-0.1
				c0.2,0,0.3,0,0.6,0l0,0.3c-0.2,0-0.5,0-0.7,0c-0.1,0-0.2,0-0.3,0c-0.1,0-0.2,0.1-0.3,0.1c-0.1,0-0.1,0.1-0.2,0.2
				c-0.1,0.1-0.1,0.1-0.1,0.2c0,0.1,0,0.2,0.1,0.2c0.1,0.1,0.2,0.1,0.3,0.2c0.1,0.1,0.3,0.1,0.4,0.2c0.1,0.1,0.2,0.1,0.3,0.1
				c0.2,0.1,0.4,0.2,0.4,0.3C62,19.7,62,19.9,62,20z"/>
			<path d="M65.7,19.6c0,0.3,0,0.6,0,0.9c0,0.3,0,0.4,0,0.5c0,0-0.1,0-0.3,0c-0.2,0-0.3,0-0.5,0c-0.2,0-0.4,0-0.6,0
				c-0.2,0-0.3-0.1-0.4-0.1c-0.2-0.1-0.3-0.1-0.4-0.3c-0.1-0.1-0.1-0.2-0.1-0.4c0-0.2,0.1-0.3,0.2-0.4c0.1-0.1,0.3-0.2,0.5-0.3
				c0.2,0,0.3-0.1,0.6-0.1c0.2,0,0.4-0.1,0.7-0.1c0-0.1-0.1-0.2-0.1-0.3c-0.1-0.1-0.2-0.1-0.3-0.2c-0.1,0-0.2-0.1-0.3-0.1
				c-0.1,0-0.2,0-0.4,0c-0.1,0-0.2,0-0.3,0c-0.1,0-0.1,0-0.2,0l0-0.3c0,0,0.1,0,0.2,0c0.1,0,0.2,0,0.3,0c0.2,0,0.4,0,0.6,0.1
				c0.2,0,0.3,0.1,0.4,0.2c0.1,0.1,0.2,0.2,0.2,0.3C65.7,19.2,65.7,19.4,65.7,19.6z M65.3,20.1c0-0.1,0-0.2,0-0.2c0-0.1,0-0.2,0-0.2
				c-0.1,0-0.3,0-0.5,0c-0.2,0-0.4,0.1-0.5,0.1c-0.2,0-0.3,0.1-0.4,0.2c-0.1,0.1-0.1,0.1-0.1,0.2c0,0.1,0,0.2,0.1,0.2
				c0.1,0.1,0.2,0.1,0.3,0.2c0.1,0,0.2,0,0.3,0c0.1,0,0.3,0,0.4,0c0,0,0.1,0,0.1,0c0.1,0,0.1,0,0.2,0C65.3,20.4,65.3,20.3,65.3,20.1
				z"/>
			<path d="M69.7,20.9h-0.4c0,0,0-0.2,0-0.4c0-0.2,0-0.4,0-0.5c0-0.2,0-0.3,0-0.4c0-0.1,0-0.2,0-0.3c0-0.2-0.1-0.3-0.1-0.4
				c-0.1-0.1-0.2-0.2-0.4-0.2c-0.1,0-0.3,0-0.5,0.1S68,19,67.8,19.1c0,0,0,0.1,0,0.3c0,0.1,0,0.3,0,0.4c0,0.2,0,0.4,0,0.7
				c0,0.2,0,0.4,0,0.4h-0.4c0,0,0-0.2,0-0.4c0-0.2,0-0.5,0-0.7c0-0.3,0-0.6,0-0.7c0-0.2,0-0.4,0-0.5h0.4l0,0.3h0
				c0.2-0.1,0.4-0.2,0.6-0.2c0.2-0.1,0.4-0.1,0.6-0.1c0.3,0,0.5,0.1,0.6,0.2c0.1,0.1,0.2,0.3,0.2,0.6c0,0.1,0,0.3,0,0.4
				c0,0.1,0,0.3,0,0.4c0,0.1,0,0.3,0,0.5C69.7,20.8,69.7,20.9,69.7,20.9z"/>
			<path d="M72.7,19.7h-1.5v-0.3h1.5V19.7z"/>
			<path d="M77,18.1c-0.5,0-0.9,0-1.4,0c0,0.4,0,0.6,0,0.8c0,0.1,0,0.3,0,0.6c0,0.3,0,0.8,0,1.4h-0.4c0-0.7,0-1.2,0-1.4
				c0-0.3,0-0.5,0-0.6c0-0.1,0-0.4,0-0.8c-0.6,0-1.1,0-1.4,0v-0.3c0.2,0,0.4,0,0.7,0c0.3,0,0.6,0,0.9,0c0.3,0,0.8,0,1.6,0V18.1z"/>
			<path d="M78.7,18.1h-0.4v-0.4h0.4V18.1z M78.7,20.9h-0.4c0,0,0-0.2,0-0.5c0-0.3,0-0.5,0-0.7c0-0.2,0-0.3,0-0.5c0-0.2,0-0.4,0-0.6
				h0.4c0,0.2,0,0.4,0,0.6c0,0.2,0,0.3,0,0.5c0,0.3,0,0.6,0,0.8C78.7,20.7,78.7,20.9,78.7,20.9z"/>
			<path d="M87.8,19.3c0,0.1,0,0.3,0,0.4c0,0.1,0,0.2,0,0.3c0,0.2,0,0.5,0,0.9c-0.3,0-0.4,0-0.5,0c-0.5,0-0.9-0.1-1.2-0.1
				c-0.3-0.1-0.6-0.2-0.8-0.4c-0.2-0.1-0.3-0.3-0.4-0.5c-0.1-0.2-0.1-0.4-0.1-0.6c0-0.3,0.1-0.5,0.3-0.8c0.2-0.2,0.4-0.4,0.8-0.5
				c0.2-0.1,0.5-0.2,0.7-0.2c0.3,0,0.6-0.1,0.9-0.1c0,0,0.1,0,0.1,0c0,0,0.1,0,0.1,0l0,0.3c-0.1,0-0.2,0-0.2,0c-0.3,0-0.6,0-0.8,0.1
				c-0.2,0-0.4,0.1-0.7,0.2c-0.3,0.1-0.5,0.3-0.6,0.4c-0.1,0.2-0.2,0.4-0.2,0.6c0,0.2,0.1,0.4,0.2,0.6c0.2,0.2,0.4,0.3,0.6,0.4
				c0.2,0.1,0.4,0.1,0.7,0.2c0.3,0,0.5,0,0.7,0c0-0.5,0-0.9,0-1.3H87.8z"/>
			<path d="M91.1,18.8c-0.2,0-0.3,0.1-0.5,0.1c-0.2,0.1-0.4,0.1-0.7,0.2c0,0,0,0.1,0,0.3c0,0.1,0,0.3,0,0.4c0,0.1,0,0.3,0,0.6
				c0,0.3,0,0.4,0,0.5h-0.4c0,0,0-0.1,0-0.3c0-0.2,0-0.4,0-0.7c0-0.1,0-0.3,0-0.6c0-0.3,0-0.5,0-0.7h0.4l0,0.4l0,0
				c0.2-0.1,0.4-0.2,0.6-0.2c0.2-0.1,0.4-0.1,0.5-0.1L91.1,18.8z"/>
			<path d="M95,19.7c0,0.2,0,0.4-0.1,0.5c-0.1,0.2-0.2,0.3-0.3,0.4c-0.1,0.1-0.3,0.2-0.4,0.2C94,21,93.8,21,93.6,21
				c-0.2,0-0.3,0-0.5-0.1c-0.2,0-0.3-0.1-0.4-0.2c-0.2-0.1-0.3-0.3-0.3-0.4c-0.1-0.2-0.1-0.3-0.1-0.5c0-0.2,0-0.4,0.1-0.5
				c0.1-0.1,0.2-0.3,0.3-0.4c0.1-0.1,0.3-0.2,0.4-0.3c0.2-0.1,0.3-0.1,0.5-0.1c0.2,0,0.4,0,0.5,0.1c0.2,0.1,0.3,0.1,0.4,0.2
				c0.1,0.1,0.2,0.3,0.3,0.4C95,19.4,95,19.5,95,19.7z M94.6,19.7c0-0.2,0-0.3-0.1-0.4c-0.1-0.1-0.2-0.2-0.3-0.3
				c-0.1-0.1-0.2-0.1-0.3-0.1c-0.1,0-0.2,0-0.3,0c-0.1,0-0.3,0-0.4,0c-0.1,0-0.2,0.1-0.3,0.2c-0.1,0.1-0.2,0.2-0.3,0.3
				c-0.1,0.1-0.1,0.3-0.1,0.4c0,0.2,0,0.3,0.1,0.5c0.1,0.1,0.2,0.2,0.3,0.3c0.1,0.1,0.2,0.1,0.3,0.1c0.1,0,0.2,0,0.3,0
				c0.1,0,0.2,0,0.4-0.1c0.1,0,0.2-0.1,0.3-0.1c0.1-0.1,0.2-0.2,0.3-0.3C94.6,20,94.6,19.9,94.6,19.7z"/>
			<path d="M98.8,20.9h-0.4v-0.3l0,0c-0.2,0.1-0.4,0.2-0.6,0.2c-0.2,0.1-0.4,0.1-0.6,0.1c-0.3,0-0.5-0.1-0.6-0.2
				c-0.1-0.1-0.2-0.3-0.2-0.6c0-0.1,0-0.2,0-0.4c0-0.1,0-0.2,0-0.4c0-0.1,0-0.3,0-0.5c0-0.2,0-0.3,0-0.4h0.4c0,0,0,0.2,0,0.4
				c0,0.2,0,0.4,0,0.5c0,0.2,0,0.3,0,0.4c0,0.1,0,0.2,0,0.3c0,0.2,0,0.3,0.1,0.4c0.1,0.1,0.2,0.2,0.4,0.2c0.1,0,0.3,0,0.5-0.1
				c0.2,0,0.4-0.1,0.6-0.2c0-0.3,0-0.6,0-0.7c0-0.2,0-0.4,0-0.7c0-0.2,0-0.4,0-0.4h0.4c0,0,0,0.2,0,0.4c0,0.2,0,0.5,0,0.7
				c0,0.3,0,0.6,0,0.7C98.8,20.5,98.8,20.7,98.8,20.9z"/>
			<path d="M102.9,19.7c0,0.2-0.1,0.4-0.2,0.6c-0.1,0.2-0.3,0.3-0.6,0.4c-0.2,0.1-0.4,0.1-0.6,0.2c-0.2,0-0.5,0.1-0.7,0.1l0,1.1
				h-0.4c0-0.1,0-0.3,0-0.7c0-0.4,0-0.8,0-1.2c0-0.2,0-0.4,0-0.7c0-0.3,0-0.6,0-0.9c0,0,0.1,0,0.1,0c0.1,0,0.1,0,0.2,0
				c0.3,0,0.6,0,0.8,0.1c0.2,0,0.4,0.1,0.6,0.2c0.2,0.1,0.4,0.2,0.5,0.4C102.8,19.3,102.9,19.5,102.9,19.7z M102.5,19.7
				c0-0.2,0-0.3-0.1-0.4c-0.1-0.1-0.2-0.2-0.4-0.3c-0.1-0.1-0.3-0.1-0.5-0.1c-0.2,0-0.4,0-0.5,0c0,0,0,0-0.1,0c0,0,0,0-0.1,0
				c0,0,0,0.1,0,0.3c0,0.2,0,0.4,0,0.7c0,0.2,0,0.3,0,0.4c0,0.1,0,0.2,0,0.3c0.2,0,0.4,0,0.5,0c0.2,0,0.3-0.1,0.5-0.1
				c0.2-0.1,0.4-0.2,0.5-0.3C102.5,20,102.5,19.9,102.5,19.7z"/>
		</g>
	</g>
	<g>
		<path d="M259.8,15.3c0.2,0,0.2-0.2,0.3-1.3c0.2,0.2,0.7,0.4,1,0.5c-0.1,1.5-0.4,2-1.2,2h-0.8c-1,0-1.2-0.4-1.2-1.5v-2.1h-0.5
			c-0.2,1.6-0.5,2.9-2.2,3.8c-0.1-0.3-0.5-0.8-0.7-1c1.4-0.6,1.6-1.6,1.7-2.8h-0.7v-2.8l-0.1,0c-0.2-0.1-0.4-0.4-0.7-0.6
			c0.1,0.3,0.1,0.6,0.2,0.8l-0.7,0.3c0-0.4-0.2-0.9-0.3-1.5v7.5h-1.2V9c-0.1,0.9-0.2,2.1-0.5,2.8l-0.9-0.3c0.2-0.7,0.4-1.9,0.5-2.8
			l0.9,0.1V6.6h1.2v1.8l0.5-0.2c0.1,0.3,0.2,0.6,0.3,0.9c0.7-0.6,1.4-1.6,1.8-2.5l1.1,0.4c-0.4,0.8-0.9,1.6-1.5,2.3h3.4
			c-0.4-0.7-1.1-1.5-1.6-2.1l0.8-0.6c0.8,0.8,1.7,1.9,2.1,2.7l-0.9,0.7c0-0.1-0.1-0.1-0.1-0.2v3h-0.8V15c0,0.3,0,0.4,0.2,0.4H259.8z
			 M256.7,11.7h2v-1.3h-2V11.7z"/>
		<path d="M265.1,12.3c-0.3,0.1-0.6,0.2-0.9,0.3v2.5c0,0.6-0.1,1-0.4,1.2c-0.3,0.2-0.8,0.3-1.5,0.3c0-0.3-0.2-0.9-0.3-1.2
			c0.4,0,0.8,0,0.9,0c0.1,0,0.2,0,0.2-0.2V13l-1.1,0.3l-0.3-1.2c0.4-0.1,0.9-0.2,1.4-0.3V9.8h-1.2V8.6h1.2v-2h1.2v2h0.8v1.2h-0.8
			v1.6l0.8-0.2L265.1,12.3z M267.3,12c-0.1,0.2-0.2,0.4-0.3,0.5h3.9c0,0,0,0.3,0,0.4c-0.1,2.1-0.2,2.9-0.5,3.2
			c-0.2,0.2-0.4,0.3-0.7,0.4c-0.2,0-0.7,0-1.1,0c0-0.3-0.1-0.8-0.3-1.1c0.4,0,0.7,0,0.8,0c0.1,0,0.2,0,0.3-0.1
			c0.1-0.1,0.2-0.7,0.3-2h-0.3c-0.5,1.3-1.2,2.4-2,3.1c-0.2-0.2-0.6-0.5-0.8-0.6c0.8-0.6,1.4-1.5,1.8-2.5h-0.5
			c-0.6,1.2-1.6,2.2-2.5,2.8c-0.2-0.2-0.5-0.6-0.8-0.7c0.8-0.5,1.6-1.2,2.1-2.1h-0.5c-0.3,0.4-0.6,0.7-1,1c-0.2-0.2-0.5-0.5-0.8-0.7
			c0.6-0.4,1.2-1.1,1.6-1.8h-1.1v-1h6.1v1H267.3z M270.5,10.5h-4.7V6.9h4.7V10.5z M269.4,7.8h-2.5v0.5h2.5V7.8z M269.4,9.1h-2.5v0.5
			h2.5V9.1z"/>
		<path d="M281,7.1v9.6h-1.2v-0.4h-6.3v0.4h-1.1V7.1H281z M279.8,15.1V8.2h-1.3c0.3,0.2,0.7,0.4,0.9,0.6L279,9.3h0.5v0.9h-1.8
			c0,0.6,0.1,1.2,0.2,1.6c0.2-0.4,0.4-0.9,0.5-1.3l0.9,0.2c-0.2,0.9-0.6,1.7-1.1,2.5c0.1,0.3,0.3,0.5,0.5,0.6c0.1,0,0.2-0.4,0.2-1
			c0.2,0.2,0.6,0.5,0.8,0.6c-0.2,1.3-0.7,1.7-1.4,1.4c-0.3-0.1-0.6-0.4-0.8-0.7c-0.3,0.3-0.7,0.7-1.1,0.9c-0.1-0.2-0.5-0.6-0.7-0.8
			c0.1-0.1,0.2-0.1,0.3-0.2c-0.8,0.1-1.6,0.2-2.3,0.4l-0.1-0.9c0.7-0.1,1.8-0.2,2.9-0.4l0,0.5c0.2-0.2,0.3-0.3,0.5-0.5
			c-0.2-0.8-0.3-1.7-0.4-2.8h-2.8V9.3h2.8c0-0.3,0-0.6-0.1-0.9h1c0,0.3,0,0.6,0,0.9h1.1c-0.2-0.2-0.5-0.4-0.8-0.6l0.5-0.5h-4.9v6.9
			H279.8z M276.4,12.7h-2.3v-2h2.3V12.7z M275.6,11.3h-0.7V12h0.7V11.3z"/>
		<path d="M286.9,11.3c-0.3,0.4-0.7,0.7-1,0.9c-0.1-0.2-0.4-0.6-0.6-0.7c0.1,0.4,0.1,0.7,0.1,1c0,0.7-0.1,1.1-0.4,1.4
			c-0.1,0.1-0.3,0.2-0.5,0.2c-0.2,0-0.4,0-0.6,0c0-0.3-0.1-0.7-0.3-1c0.2,0,0.3,0,0.4,0c0.1,0,0.2,0,0.3-0.1
			c0.1-0.1,0.2-0.3,0.2-0.7c0-0.5-0.1-1.2-0.6-2c0.2-0.7,0.4-1.5,0.5-2.2h-0.7v8.4h-1V7h2.1l0.2,0l0.7,0.4c-0.1,0.4-0.2,0.9-0.4,1.4
			c0.6-0.6,1-1.4,1.3-2.2l0.9,0.2c-0.1,0.2-0.1,0.4-0.2,0.5h0.8l0.2,0l0.6,0.2l0,0.2l0.5-0.1l0-0.5h1.6l0.2-0.1l0.7,0.4
			c-0.3,0.9-0.7,1.8-1.2,2.5c0.4,0.6,0.9,1,1.4,1.3c-0.2,0.2-0.5,0.6-0.7,0.9c-0.5-0.3-0.8-0.7-1.2-1.1v0.7h-3V11.3z M286.5,10.2
			c0.1-0.2,0.2-0.4,0.4-0.5c-0.2-0.2-0.5-0.4-0.7-0.7c-0.2,0.3-0.4,0.5-0.6,0.8c-0.1-0.1-0.4-0.3-0.6-0.5c-0.1,0.4-0.2,0.7-0.3,1
			c0.3,0.4,0.4,0.8,0.5,1.2c0.4-0.2,0.8-0.6,1.1-1c-0.4,0.1-0.7,0.1-1.1,0.2l-0.1-0.8c0.4,0,0.9-0.1,1.4-0.1L286.5,10.2z
			 M287.3,14.3c-0.4,0.7-0.9,1.5-1.4,2c-0.2-0.2-0.7-0.5-1-0.7c0.4-0.4,0.9-1.1,1.3-1.7L287.3,14.3z M289,13.5v3.1h-1.1v-3.1h-1.9
			v-1h4.9v1H289z M286.7,8.2l-0.1,0.1c0.2,0.2,0.4,0.4,0.6,0.5c0.1-0.2,0.2-0.4,0.2-0.7H286.7z M289.6,10.7
			c-0.5-0.7-0.9-1.6-1.1-2.5c-0.3,1-0.7,1.9-1.1,2.5H289.6z M289.4,8c0.1,0.4,0.2,0.7,0.4,1c0.2-0.3,0.4-0.7,0.5-1H289.4z
			 M290.3,13.8c0.4,0.5,1.1,1.3,1.4,1.7l-0.9,0.6c-0.3-0.5-0.9-1.3-1.3-1.8L290.3,13.8z"/>
		<path d="M301.7,9.6v0.9h-1.8l-0.1,0.8h-5.8l0.1-0.8h-1.6V9.6h1.7l0.1-0.8h5.8l-0.1,0.8H301.7z M299,15.1c0.9,0.3,1.8,0.5,2.4,0.7
			l-0.8,0.8c-0.7-0.3-1.9-0.7-3.1-1l0.4-0.5H296l0.6,0.5c-0.9,0.5-2.3,0.9-3.5,1.1c-0.1-0.2-0.4-0.6-0.6-0.9
			c0.9-0.1,1.9-0.4,2.7-0.7h-1.5v-3.5h6.6v3.5H299z M293.8,9.3h-1.1V7.5h3.7c-0.1-0.2-0.2-0.4-0.3-0.6l1.1-0.3
			c0.2,0.3,0.4,0.6,0.5,1h3.7v1.9h-1.1V8.5h-6.4V9.3z M294.9,12.6h4.2v-0.3h-4.2V12.6z M294.9,13.6h4.2v-0.3h-4.2V13.6z M294.9,14.5
			h4.2v-0.3h-4.2V14.5z M295.1,10.7h1.3l0-0.3h-1.3L295.1,10.7z M295.2,9.4l0,0.3h1.3l0-0.3H295.2z M298.7,10.7l0-0.3h-1.3l0,0.3
			H298.7z M298.8,9.4h-1.3l0,0.3h1.3L298.8,9.4z"/>
		<path d="M306.4,14.9c-0.7,0.6-1.9,1.2-3,1.4c-0.2-0.3-0.5-0.7-0.7-0.9c1-0.1,2.2-0.5,2.8-0.9L306.4,14.9z M311.8,13.1v1h-3.9v2.4
			h-1.2v-2.4h-3.9v-1h3.9v-0.5h-2.9v-0.9h2.9v-0.5h-3.4v-1h1.9c-0.1-0.2-0.2-0.5-0.4-0.8l0.7-0.2h-2.6v-1h1.4
			c-0.2-0.4-0.4-0.9-0.7-1.3l1-0.4c0.3,0.4,0.6,1.1,0.8,1.5l-0.5,0.2h0.9V6.6h1.1v1.7h0.8V6.6h1.1v1.7h0.9l-0.4-0.1
			c0.2-0.4,0.5-1.1,0.7-1.5l1.3,0.3c-0.3,0.5-0.6,1-0.8,1.3h1.3v1H309l1,0.3c-0.2,0.3-0.4,0.5-0.6,0.7h2v1h-3.5v0.5h3v0.9h-3v0.5
			H311.8z M305.9,9.4c0.2,0.3,0.3,0.6,0.4,0.8l-0.5,0.1h2.8l-0.4-0.1c0.2-0.2,0.4-0.6,0.5-0.8H305.9z M309.1,14.5
			c0.8,0.3,2,0.9,2.7,1.2l-0.9,0.7c-0.6-0.4-1.8-0.9-2.6-1.3L309.1,14.5z"/>
		<path d="M316.5,9.1c-0.1,0.3-0.3,0.6-0.4,0.8h4.7v5.3c0,0.6-0.1,1-0.5,1.2c-0.4,0.2-1,0.2-1.8,0.2c-0.1-0.4-0.2-0.9-0.4-1.2
			c0.5,0,1.1,0,1.3,0c0.2,0,0.2-0.1,0.2-0.2v-0.6h-3.8c-0.2,0.8-0.5,1.6-1.1,2.1c-0.2-0.3-0.6-0.8-0.9-1c0.9-0.8,0.9-1.9,0.9-2.9
			v-0.9c-0.4,0.4-0.8,0.8-1.3,1.2c-0.2-0.3-0.6-0.7-0.8-1c1-0.7,1.8-1.8,2.4-3h-2.2V7.9h2.7c0.2-0.4,0.3-0.9,0.4-1.3l1.3,0.3
			c-0.1,0.3-0.2,0.7-0.3,1h5v1.2H316.5z M319.6,13.5v-0.7h-3.6c0,0.2,0,0.4,0,0.7H319.6z M319.6,11.1h-3.6v0.7h3.6V11.1z"/>
		<path d="M326.7,7.5c-0.3,0.9-0.6,2-0.9,2.8c0.6,0.8,0.7,1.6,0.7,2.2c0,0.7-0.1,1.1-0.5,1.4c-0.2,0.1-0.3,0.2-0.6,0.2
			c-0.2,0-0.4,0-0.7,0c0-0.3-0.1-0.8-0.3-1.1c0.2,0,0.3,0,0.4,0c0.1,0,0.2,0,0.3-0.1c0.1-0.1,0.2-0.3,0.2-0.6c0-0.5-0.1-1.2-0.7-2
			c0.2-0.7,0.4-1.5,0.6-2.2h-1v8.4h-1.1V7h2.4l0.2-0.1L326.7,7.5z M332.1,13c-0.4,0.4-1,0.8-1.4,1.1c0.4,0.6,1,1.1,1.6,1.4
			c-0.3,0.2-0.6,0.7-0.8,1.1c-1.5-0.9-2.3-2.5-2.8-4.6h-0.6v3l1.4-0.3c0,0.4,0,0.9,0,1.2c-2,0.5-2.4,0.7-2.6,0.9
			c-0.1-0.3-0.3-0.8-0.5-1c0.2-0.1,0.5-0.4,0.5-0.9V7h4.6V12h-1.8c0.1,0.4,0.2,0.8,0.4,1.2c0.4-0.3,0.9-0.7,1.2-1.1L332.1,13z
			 M328.1,8.1V9h2.2V8.1H328.1z M328.1,10.9h2.2V10h-2.2V10.9z"/>
		<path d="M337,7.3c-0.7,1.8-1.9,3.6-3,4.7c-0.2-0.3-0.8-0.8-1.1-1.1c1.1-1,2.1-2.5,2.8-4.1L337,7.3z M339.9,12.2
			c0.8,1.2,1.8,2.7,2.3,3.7l-1.3,0.7c-0.1-0.3-0.3-0.7-0.5-1c-4.9,0.4-5.6,0.5-6.1,0.7c-0.1-0.3-0.3-1-0.5-1.4
			c0.3-0.1,0.6-0.4,1-0.9c0.4-0.5,1.7-2.3,2.5-4.1l1.4,0.6c-0.8,1.4-1.8,2.9-2.7,4l3.7-0.3c-0.3-0.5-0.7-1.1-1-1.6L339.9,12.2z
			 M340.1,6.9c0.4,1.5,1.4,3,2.6,3.8c-0.3,0.3-0.7,0.9-0.9,1.3c-1.2-0.9-2.1-2.4-2.6-3.8h-1.6V6.9H340.1z"/>
		<path d="M352,15c0,0.7-0.1,1.1-0.6,1.3c-0.4,0.2-1.1,0.3-2,0.2c0-0.4-0.2-1-0.4-1.4c0.6,0,1.2,0,1.4,0c0.2,0,0.3-0.1,0.3-0.2V8.5
			h-7.1V7.3h8.3V15z M349.7,10.3h-6V9.2h6V10.3z M345.5,14.7v0.8h-1.2v-4.4h4.9v3.6H345.5z M345.5,12.2v1.4h2.6v-1.4H345.5z"/>
	</g>
</g>
</svg>
