<svg width="610" height="221" viewBox="0 0 610 221" fill="none" xmlns="http://www.w3.org/2000/svg">
<path d="M0 219.586C0.221598 215.499 0.250502 213.758 0.250502 207.93C0.250502 193.666 0.173425 189.329 0 187.261C1.8884 188.097 2.50502 188.415 4.49941 189.579H26.2546C27.1988 188.569 27.4878 188.28 28.3935 187.338C29.7327 188.28 30.1374 188.569 31.5151 189.617C31.7367 189.838 31.8427 189.983 31.8427 190.194C31.8427 190.521 31.5537 190.771 30.5709 191.387C30.4938 197.61 30.4938 201.303 30.4938 203.948C30.4938 210.026 30.5324 215.422 30.6769 219.288C30.6769 219.654 30.5998 219.827 30.4553 219.942C30.2337 220.125 28.644 220.337 27.5553 220.337C26.8712 220.337 26.6881 220.231 26.6881 219.827V218.202H4.05621V219.5C4.01767 219.865 3.95023 220.01 3.66119 220.115C3.33361 220.192 1.99438 220.337 1.1947 220.337C0.32758 220.337 0 220.154 0 219.615V219.577L0 219.586ZM4.05621 217.451H26.6785V190.348H4.05621V217.451ZM22.3621 195.523C22.5837 195.272 22.7572 195.051 22.9402 194.84C22.4296 194.801 22.2562 194.657 21.996 194.041C21.3409 192.483 21.0518 192.012 20.4352 191.435L20.5412 191.146C21.8419 191.223 22.7572 191.396 23.5183 191.829C24.1735 192.156 24.3854 192.483 24.3854 193.06C24.3854 193.349 24.3469 193.532 24.2024 193.859C25.214 194.695 25.4356 194.868 26.4184 195.811C26.4954 195.917 26.6014 196.061 26.6014 196.1C26.6014 196.205 26.4569 196.282 26.3509 196.282H19.6066C19.6452 199.466 19.6452 199.504 19.8282 201.418C20.0113 203.121 20.0787 203.698 20.3003 204.64C21.1674 202.428 21.7841 200.408 22.1887 198.379C25.927 200.264 26.2449 200.408 26.2449 200.62C26.2449 200.909 25.8499 201.053 24.9057 201.159C23.7785 204.275 23.0173 205.862 21.5721 207.93C22.2947 209.343 22.4778 209.593 23.316 210.825C24.2216 209.266 24.5492 208.612 25.5994 206.593L25.9944 206.699L25.0888 211.075C25.0181 211.556 24.9828 211.834 24.9828 211.911C24.9828 212.238 25.1273 212.488 25.6379 213.181C26.033 213.691 26.1775 214.018 26.1775 214.518C26.1775 215.422 25.5994 216.076 24.8768 216.076C24.0386 216.076 22.9595 215.499 22.1984 214.624C21.1867 213.537 19.8764 211.69 19.2983 210.642C16.7644 213.21 14.6544 214.518 10.3091 216.143L10.0586 215.749C13.5753 213.508 15.9358 211.257 18.1807 208.074C17.4581 206.083 16.986 203.842 16.7258 201.159C16.6552 200.338 16.5588 198.709 16.4368 196.273H7.25493C6.31073 196.273 5.62667 196.35 4.74991 196.523L4.42233 195.147C5.57849 195.397 6.37817 195.513 7.25493 195.513H16.3886C16.318 193.512 16.2345 192.076 16.1381 191.204C16.9763 191.31 17.593 191.387 18.0265 191.454C20.0884 191.704 20.5605 191.848 20.5605 192.175C20.5605 192.397 20.3389 192.608 19.6933 192.935C19.6163 194.272 19.6163 194.599 19.6163 195.503H22.3718L22.3621 195.523ZM16.379 208.766C13.0069 210.392 10.8679 211.229 6.7732 212.565C6.59014 213.797 6.48416 214.047 6.15658 214.047C5.79046 214.047 5.76155 213.97 4.55722 209.632C6.8021 209.594 11.7736 209.093 16.379 208.401V208.766ZM8.97954 207.391C8.97954 207.641 8.90247 207.756 8.6905 207.862C8.44 207.939 7.31274 208.045 6.61904 208.045C6.04096 208.045 5.8579 207.939 5.8579 207.574V207.353C5.93498 205.689 5.96388 204.746 5.96388 202.717C5.96388 199.639 5.92534 198.668 5.81936 197.792C7.23566 198.475 7.66922 198.696 9.04699 199.533H11.9085C12.5637 198.773 12.7756 198.523 13.3922 197.792C14.375 198.514 14.664 198.735 15.6082 199.533C15.7913 199.677 15.8973 199.822 15.8973 199.928C15.8973 200.149 15.7527 200.255 14.9916 200.726V202.611C14.9916 203.553 14.9916 204.092 15.0687 206.881C15.0301 207.17 14.9627 207.314 14.7796 207.391C14.5291 207.497 13.2574 207.612 12.4191 207.612C12.1301 207.612 12.0241 207.535 12.0241 207.247V206.16H8.97954V207.391ZM8.97954 205.4H12.0241V200.293H8.97954V205.4Z" fill="#0A534C"/>
<path d="M51.2952 191.502C50.929 192.156 50.7556 192.406 50.351 192.983C52.0948 193.82 52.7115 194.359 52.7115 195.118C52.7115 195.984 51.8058 197.109 51.1121 197.109C50.746 197.109 50.64 196.859 50.64 196.023C50.64 194.753 50.4955 193.926 50.1005 193.378C49.2333 194.647 48.7227 195.33 47.8556 196.34C49.5224 197.321 50.3895 198.187 50.3895 198.946C50.3895 199.706 49.4068 200.831 48.6842 200.831C48.2506 200.831 48.1446 200.543 48.1061 199.533C48.1061 198.263 47.923 197.359 47.528 196.744C46.4778 197.936 45.7841 198.59 44.1559 199.889L43.8283 199.6C45.129 197.792 46.3333 195.551 47.3449 193.195C48.3277 190.915 48.8672 189.107 49.1563 186.934C51.1506 187.299 53.1836 187.77 53.6171 187.915C53.8676 188.02 54.0122 188.165 54.0122 188.347C54.0122 188.713 53.6171 188.886 52.5669 189.03C52.1719 189.867 52.0563 190.117 51.7287 190.733H54.3783C54.9564 190.156 55.1394 189.973 55.756 189.396C56.7388 190.233 57.1723 190.588 57.6733 191.06C57.4517 190.079 57.3843 189.579 57.1338 188.088L57.6059 188.049C58.8391 191.925 59.8219 193.878 61.3731 195.609C62.2787 193.907 62.6448 193.079 63.3674 191.05H61.1611C60.4385 191.05 60.1109 191.089 59.3883 191.156L59.1667 190.031C59.8893 190.213 60.5059 190.281 61.1611 190.281H63.2615C63.8781 189.665 64.5332 189.011 65.1788 188.367C66.5565 189.453 66.9516 189.809 68.1848 190.935C68.5124 191.223 68.6184 191.406 68.6184 191.589C68.6184 191.954 68.2233 192.098 67.1732 192.204C64.6392 194.407 63.2229 195.532 62.0282 196.292C64.2442 198.321 66.3831 199.514 69.4951 200.456V200.783C68.1559 201.505 67.4237 202.38 66.8456 203.928C66.7685 204.111 66.6625 204.217 66.518 204.217C66.1519 204.217 64.8512 203.274 63.618 202.082C60.8624 199.475 59.1185 196.475 58.0395 192.493L57.6444 192.637C55.7946 196.725 53.8773 199.408 50.9772 202.014C49.4164 203.39 48.2602 204.188 45.8997 205.525C46.1213 206.429 46.1888 207.083 46.1888 207.91C46.1888 210.478 45.1386 212.325 43.2887 213.017C42.9226 213.162 42.2 213.306 41.8724 213.306C41.5448 213.306 41.4774 213.2 41.4389 212.652C41.2943 210.844 40.9282 210.228 39.6275 209.651V212.44L39.6661 218.086V219.461C39.6661 219.827 39.589 220 39.377 220.115C39.0495 220.337 38.2883 220.442 37.4212 220.442C36.265 220.442 35.9664 220.26 35.9664 219.538C36.0434 216.278 36.1494 206.217 36.1494 200.504C36.1494 198.042 36.0723 192.473 36.0049 187.184C37.7777 188.049 38.2883 188.338 39.9166 189.357H42.8552C43.6163 188.521 43.8668 188.27 44.6665 187.434C45.8997 188.376 46.2659 188.703 47.422 189.675C47.7496 190.002 47.8941 190.184 47.8941 190.396C47.8941 190.685 47.528 190.867 46.5934 191.05C44.2329 195.282 43.4043 196.619 41.41 199.302C44.31 201.87 45.0326 202.851 45.7648 205.054C45.8869 204.932 46.2369 204.605 46.815 204.073C48.5878 202.447 50.6207 199.802 51.9985 197.302C53.0487 195.455 53.6268 194.08 54.5035 191.473H51.3144L51.2952 191.502ZM39.6179 209.199C40.4561 209.305 41.1402 209.343 41.6508 209.343C42.2289 209.343 42.489 209.199 42.6336 208.805C42.7781 208.41 42.8841 207.324 42.8841 206.275C42.8841 205.121 42.701 203.957 42.3445 202.765C41.9784 201.678 41.6219 200.88 40.6392 199.36C41.7279 195.782 42.4505 192.877 42.9226 190.136H39.6275V209.209L39.6179 209.199ZM42.8841 219.115C44.8399 216.836 45.8901 215.383 47.0174 213.469C48.1061 211.661 48.4722 210.824 48.7901 209.449C53.251 210.863 53.463 210.93 53.463 211.373C53.463 211.7 53.068 211.882 52.0178 211.95C50.534 213.835 49.6284 214.777 47.8459 216.259C46.2466 217.595 45.1675 218.326 43.1731 219.481L42.8841 219.115ZM49.9559 207.718C48.9058 207.718 48.4337 207.756 47.4895 207.862L47.2679 206.67C48.2795 206.891 48.9732 206.958 49.9463 206.958H61.9512C62.9339 205.833 63.2518 205.477 64.1671 204.352C65.7279 205.515 66.2001 205.871 67.6838 207.179C67.8283 207.324 67.8669 207.4 67.8669 207.468C67.8669 207.612 67.7223 207.718 67.5007 207.718H58.5116V212.132L58.5501 217.057V217.278C58.5501 218.942 57.9335 219.596 55.7946 220.135C55.1105 220.317 54.3494 220.462 53.9447 220.462C53.6171 220.462 53.5497 220.356 53.4726 219.846C53.4341 219.163 53.1836 218.576 52.6729 218.144C52.0948 217.567 51.2952 217.24 49.3008 216.73V216.259C52.3068 216.403 52.4224 216.403 54.1952 216.403C54.7059 216.364 54.8118 216.259 54.8118 215.826V207.718H49.9559ZM51.1121 202.149C52.1237 202.332 52.856 202.399 53.7906 202.399H57.6733C58.3574 201.562 59.0511 200.774 59.7737 199.937C61.2285 201.062 61.6236 201.418 63.0013 202.649C63.1459 202.793 63.1844 202.87 63.1844 202.938C63.1844 203.082 63.0013 203.188 62.7508 203.188H53.8291C52.9234 203.188 52.3743 203.226 51.3241 203.332L51.1025 202.139L51.1121 202.149ZM60.1784 209.892C63.3 211.123 64.7067 211.844 65.9399 212.748C67.3851 213.873 67.8958 214.633 67.8958 215.749C67.8958 217.268 66.8456 218.894 65.8628 218.894C65.2848 218.894 65.0246 218.605 64.6296 217.557C63.5409 214.768 62.2402 212.671 59.9857 210.17L60.1687 209.882L60.1784 209.892Z" fill="#0A534C"/>
<path d="M80.9797 197.619C80.954 192.579 80.8705 189.297 80.7292 187.771C84.2844 188.059 85.9897 188.309 86.3848 188.53C86.4907 188.607 86.5678 188.78 86.5678 188.896C86.5678 189.29 86.2017 189.511 85.007 189.838C84.9299 195.85 84.9299 196.936 84.9299 198.745C84.9299 206.775 84.9685 217.019 85.007 218.942V219.192C85.007 220.029 84.5349 220.279 82.9066 220.346C82.5116 220.346 82.2129 220.385 82.0395 220.385H81.8179C81.0953 220.385 80.7677 220.164 80.7677 219.663V219.442C80.8191 217.871 80.893 214.649 80.9893 209.776C80.6296 210.065 80.1704 210.45 79.6116 210.93C77.9833 212.344 76.3454 213.604 74.3896 214.98C74.4281 215.307 74.4666 215.634 74.4666 215.845C74.4666 216.461 74.2161 216.893 73.8886 216.893C73.3779 216.893 73.0503 216.172 71.133 211.209C74.3992 210.555 77.7328 209.584 80.9893 208.276V198.36H74.5726C74.1391 198.36 72.7998 198.466 72.0676 198.581L71.8845 197.244C72.7517 197.465 73.9175 197.61 74.563 197.61H80.9797V197.619ZM93.447 201.495C94.4297 200.553 95.1138 199.793 96.2411 198.456C98.0909 196.215 98.8521 195.051 99.6132 193.32C100.625 193.974 101.386 194.445 101.897 194.734C104.469 196.253 104.835 196.542 104.835 196.975C104.835 197.263 104.469 197.485 103.968 197.485C103.785 197.485 103.39 197.446 102.773 197.379C99.1507 199.803 96.9348 201.034 93.4566 202.486V215.076C93.4566 215.98 93.7071 216.057 97.1564 216.057C98.8617 216.057 99.3723 215.874 99.8059 215.153C100.278 214.354 100.528 213.672 102.455 207.266H102.822L102.716 213.922V214.316C102.716 215.076 102.822 215.22 103.515 215.47C104.382 215.759 104.787 216.307 104.787 217.095C104.787 217.711 104.421 218.394 103.92 218.759C102.976 219.481 101.559 219.663 97.3201 219.663C92.8207 219.663 91.8476 219.587 91.0094 219.269C89.9592 218.875 89.5642 218.115 89.4486 216.374C89.4486 215.364 89.4486 211.123 89.4871 203.707V193.397C89.4871 191.041 89.4101 189.377 89.2655 187.79C94.449 188.184 95.2487 188.328 95.2487 188.944C95.2487 189.338 94.7766 189.559 93.4759 189.848V201.505L93.447 201.495Z" fill="#0A534C"/>
<path d="M133.335 200.341C134.712 198.745 135.146 198.273 136.485 196.754C138.48 198.312 139.096 198.812 140.985 200.485C141.168 200.668 141.235 200.774 141.235 200.851C141.235 201.034 141.052 201.101 140.763 201.101H125.974V217.423H132.063C133.402 215.864 133.836 215.364 135.146 213.845C137.063 215.441 137.68 215.941 139.568 217.576C139.713 217.759 139.79 217.865 139.79 217.942C139.79 218.125 139.607 218.192 139.279 218.192H112.302C111.213 218.192 110.452 218.269 109.547 218.442L109.296 217.105C110.346 217.326 111.252 217.432 112.302 217.432H121.551V201.111H110.423C109.335 201.111 108.651 201.188 107.812 201.332L107.629 200.033C108.679 200.283 109.296 200.36 110.385 200.36H121.551V193.262C121.551 191.233 121.513 190.117 121.301 187.838C127.178 188.492 127.795 188.598 127.795 189.136C127.795 189.502 127.429 189.675 125.983 190.079V200.36H133.344L133.335 200.341Z" fill="#0A534C"/>
<path d="M153.519 197.734H154.358C155.263 196.648 155.552 196.321 156.458 195.272C157.797 196.397 158.202 196.753 159.397 197.879C159.541 198.061 159.618 198.129 159.618 198.244C159.618 198.388 159.397 198.494 159.146 198.494H153.529V200.918C157.046 202.361 158.712 203.774 158.712 205.265C158.712 206.756 157.585 208.227 156.535 208.227C155.995 208.227 155.735 207.9 155.552 206.814C155.08 204.169 154.608 203.015 153.519 201.707V210.286C153.519 211.584 153.519 214.662 153.558 219.48C153.558 220.385 153.086 220.567 150.764 220.567C149.714 220.567 149.492 220.461 149.492 219.846C149.598 215.864 149.743 211.449 149.82 209.209L149.897 205.371C148.047 208.631 146.631 210.363 143.846 212.681L143.596 212.459C146.457 207.824 148.095 203.842 149.357 198.485H146.38C145.696 198.485 145.041 198.562 144.28 198.706L144.058 197.436C144.858 197.619 145.542 197.725 146.38 197.725H149.714V192.329C148.047 192.579 147.035 192.695 144.569 192.8L144.492 192.435C147.353 191.454 148.769 190.838 151.091 189.578C153.192 188.424 153.702 188.059 154.791 187.116C155.806 187.841 157.014 188.732 158.414 189.79C158.741 190.079 158.886 190.261 158.886 190.444C158.886 190.665 158.664 190.809 158.414 190.809C157.98 190.809 157.47 190.733 156.93 190.559C155.225 191.098 154.608 191.281 153.519 191.569V197.725V197.734ZM172.991 207.977C173.791 206.525 174.041 206.092 174.841 204.717C176.257 205.727 176.691 206.054 178.03 207.141C178.136 207.246 178.281 207.429 178.281 207.506C178.281 207.612 178.136 207.689 177.953 207.727L172.548 208.814C172.548 211.469 172.596 215.005 172.692 219.423C172.692 219.5 172.731 219.567 172.731 219.567C172.731 220.365 172.076 220.577 169.869 220.577C168.636 220.577 168.415 220.433 168.415 219.74C168.521 214.46 168.559 212.642 168.559 209.641L158.192 211.7C157.653 211.805 157.036 212.027 156.342 212.354L155.803 211.084H156.169C156.708 211.084 157.653 210.978 158.308 210.863L168.569 208.833V200.687C168.569 191.858 168.53 189.973 168.386 187.693C169.474 187.799 170.303 187.914 170.814 187.943C173.531 188.165 174.003 188.27 174.003 188.703C174.003 189.03 173.608 189.28 172.519 189.607L172.558 208.026L172.991 207.949V207.977ZM158.385 199.802C163.568 200.995 165.601 202.226 165.601 204.111C165.601 205.708 164.619 207.112 163.607 207.112C163.135 207.112 162.846 206.785 162.306 205.669C161.217 203.245 160.418 202.197 158.25 200.129L158.395 199.802H158.385ZM159.801 190.752C164.696 192.089 166.651 193.32 166.651 195.061C166.651 196.542 165.563 198.138 164.513 198.138C164.04 198.138 163.828 197.888 163.318 196.724C162.191 194.224 161.468 193.108 159.657 191.04L159.801 190.752Z" fill="#0A534C"/>
<path d="M242.843 195.012C242.409 196.898 241.687 199.177 240.887 201.129C239.509 204.534 237.91 207.064 235.559 209.632C237.553 211.074 239.442 212.132 241.687 213.075C244.587 214.306 246.831 214.883 250.281 215.277L250.242 215.643C248.643 216.297 247.814 217.057 247.159 218.538C246.937 219.009 246.87 219.153 246.687 219.875C246.648 220.125 246.465 220.269 246.292 220.269C245.82 220.269 243.315 219.259 241.619 218.355C238.391 216.653 236.07 214.921 233.247 211.988C230.713 214.412 228.314 216.076 225.308 217.528C222.735 218.759 220.346 219.586 216.174 220.644L216.068 220.25C220.741 218.153 223.429 216.557 226.473 213.989C228.14 212.575 229.084 211.632 231.002 209.43C227.485 204.871 225.491 200.495 224.585 195.022H219.151C218.428 195.022 217.407 195.099 216.434 195.243L216.183 193.906C216.983 194.089 218.428 194.272 219.122 194.272H230.395V190.223C230.395 189.463 230.356 188.809 230.25 187.366C231.406 187.472 232.312 187.549 232.9 187.587C235.289 187.77 236.272 188.02 236.272 188.453C236.272 188.78 235.838 189.03 234.605 189.463V194.272H242.033C243.334 192.752 243.739 192.319 245.039 190.867C246.957 192.348 247.573 192.82 249.5 194.483C249.683 194.589 249.751 194.705 249.751 194.81C249.751 194.916 249.645 195.032 249.5 195.032H242.862L242.843 195.012ZM225.259 195.012C226.059 197.869 226.637 199.244 228.015 201.495C229.393 203.669 230.848 205.438 232.726 207.285C235.703 203.236 237.515 199.283 238.343 195.012H225.259Z" fill="#0A534C"/>
<path d="M273.327 192.156C273.327 190.713 273.288 189.627 273.221 187.376C277.72 187.847 278.009 187.886 278.443 188.03C278.732 188.136 278.877 188.28 278.877 188.463C278.877 188.79 278.443 189.001 277.248 189.328V195.484H279.753C280.765 194.185 281.131 193.743 282.143 192.406C283.848 193.82 284.349 194.253 285.987 195.667C286.131 195.811 286.17 195.917 286.17 195.994C286.17 196.176 286.025 196.244 285.698 196.244H277.431C278.048 198.773 278.52 199.898 279.859 201.995C281.815 205.073 283.626 206.775 286.748 208.583V208.978C285.515 209.815 285.081 210.497 284.388 212.738C284.282 213.027 284.166 213.171 283.993 213.171C283.559 213.171 282.538 211.979 281.459 210.238C280.119 208.035 279.069 205.496 278.376 202.822C278.009 201.447 277.836 200.726 277.248 197.975L277.325 207.093C277.402 214.402 277.402 214.508 277.47 219.577C277.47 220.413 276.959 220.625 275.109 220.625C273.259 220.625 273.154 220.548 273.154 219.759C273.25 216.143 273.324 212.463 273.375 208.718L273.414 203.322C271.93 205.967 271.024 207.304 269.425 209.074C267.864 210.776 266.669 211.825 264.164 213.633L263.875 213.238C266.708 209.805 268.336 207.227 270.109 203.467C271.236 201.005 272.103 198.802 272.864 196.224H262.498V199.014C266.236 200.427 267.681 201.659 267.681 203.428C267.681 204.804 266.669 206.256 265.687 206.256C265.109 206.256 264.819 205.823 264.492 204.371C264.02 202.168 263.442 200.86 262.498 199.773C262.498 209.834 262.536 216.095 262.575 219.606C262.536 220.442 262.102 220.615 259.858 220.615C258.624 220.615 258.374 220.471 258.374 219.817C258.445 217.932 258.541 214.457 258.663 209.391L258.769 204.323C256.919 208.016 255.329 210.007 252.102 212.796L251.813 212.402C254.029 208.959 255.185 206.612 256.418 203.024C257.141 200.889 257.873 198.283 258.306 196.224H255.079C254.318 196.224 253.662 196.301 252.901 196.474L252.68 195.176C253.585 195.397 254.241 195.465 255.069 195.465H258.663V191.887C258.663 190.002 258.624 189.242 258.48 187.472C263.769 187.866 264.135 187.943 264.135 188.415C264.135 188.742 263.74 188.992 262.507 189.357V195.474H263.634C264.579 194.32 264.868 193.955 265.773 192.762C267.19 193.955 267.585 194.32 268.924 195.474H273.346V192.146L273.327 192.156Z" fill="#0A534C"/>
<path d="M298.445 197.619C298.419 192.579 298.335 189.297 298.194 187.771C301.749 188.059 303.455 188.309 303.85 188.53C303.956 188.607 304.033 188.78 304.033 188.896C304.033 189.29 303.667 189.511 302.472 189.838C302.395 195.85 302.395 196.936 302.395 198.745C302.395 206.775 302.433 217.019 302.472 218.942V219.192C302.472 220.029 302 220.279 300.372 220.346C299.977 220.346 299.678 220.385 299.504 220.385H299.283C298.56 220.385 298.233 220.164 298.233 219.663V219.442C298.284 217.871 298.358 214.649 298.454 209.776C298.095 210.065 297.635 210.45 297.076 210.93C295.448 212.344 293.81 213.604 291.854 214.98C291.893 215.307 291.932 215.634 291.932 215.845C291.932 216.461 291.681 216.893 291.353 216.893C290.843 216.893 290.515 216.172 288.598 211.209C291.864 210.555 295.198 209.584 298.454 208.276V198.36H292.037C291.604 198.36 290.265 198.466 289.532 198.581L289.349 197.244C290.217 197.465 291.382 197.61 292.028 197.61H298.445V197.619ZM310.912 201.495C311.895 200.553 312.579 199.793 313.706 198.456C315.556 196.215 316.317 195.051 317.078 193.32C318.09 193.974 318.851 194.445 319.362 194.734C321.934 196.253 322.3 196.542 322.3 196.975C322.3 197.263 321.934 197.485 321.433 197.485C321.25 197.485 320.855 197.446 320.238 197.379C316.616 199.803 314.4 201.034 310.922 202.486V215.076C310.922 215.98 311.172 216.057 314.621 216.057C316.327 216.057 316.837 215.874 317.271 215.153C317.743 214.354 317.993 213.672 319.92 207.266H320.286L320.18 213.922V214.316C320.18 215.076 320.286 215.22 320.98 215.47C321.847 215.759 322.252 216.307 322.252 217.095C322.252 217.711 321.886 218.394 321.385 218.759C320.441 219.481 319.024 219.663 314.785 219.663C310.286 219.663 309.313 219.587 308.474 219.269C307.424 218.875 307.029 218.115 306.913 216.374C306.913 215.364 306.913 211.123 306.952 203.707V193.397C306.952 191.041 306.875 189.377 306.73 187.79C311.914 188.184 312.714 188.328 312.714 188.944C312.714 189.338 312.241 189.559 310.941 189.848V201.505L310.912 201.495Z" fill="#0A534C"/>
<path d="M335.134 213.614C337.561 213.104 338.111 212.998 340.134 212.489L340.211 212.921C336.367 215.057 333.322 216.47 327.089 218.856C327.011 219.981 326.838 220.414 326.472 220.414C326.038 220.414 325.749 219.692 324.622 215.239C325.489 215.201 325.778 215.162 326.395 215.133V206.083C326.395 205.035 326.356 204.313 326.173 202.861C327.185 202.967 327.946 203.082 328.418 203.111C330.374 203.332 330.952 203.505 330.952 203.909C330.952 204.159 330.663 204.342 329.796 204.669V214.585L331.607 214.258V199.062H329.863V200.11C329.863 200.726 329.391 200.87 327.58 200.87C326.347 200.87 326.202 200.793 326.202 200.178C326.279 197.821 326.308 194.493 326.308 190.877C326.308 189.896 326.27 189.069 326.164 187.511C327.936 188.348 328.447 188.598 330.152 189.579H334.43C335.191 188.675 335.442 188.425 336.203 187.511C337.436 188.348 337.802 188.636 338.997 189.502C339.325 189.79 339.469 189.973 339.469 190.117C339.469 190.444 339.219 190.694 338.274 191.243V193.849C338.274 195.263 338.274 195.878 338.352 199.418C338.352 200.216 337.957 200.399 335.991 200.399C335.741 200.399 335.519 200.399 335.124 200.36V205.208H335.962C336.685 204.159 336.945 203.871 337.706 202.89C338.862 203.977 339.19 204.304 340.278 205.419C340.356 205.525 340.423 205.641 340.423 205.746C340.423 205.852 340.24 205.968 340.028 205.968H335.134V213.604V213.614ZM329.873 198.302H334.729V190.339H329.873V198.302ZM351.301 191.531C352.283 190.589 352.572 190.339 353.517 189.434C354.933 190.521 355.366 190.848 356.667 191.935C356.995 192.224 357.101 192.406 357.101 192.551C357.101 192.916 356.773 193.089 355.501 193.455C353.545 196.859 352.563 198.302 350.684 200.37C353.295 201.851 355.183 202.399 359.635 202.938V203.303C358.584 204.063 357.929 205.15 357.679 206.525C357.602 206.997 357.496 207.141 357.284 207.141C357.101 207.141 356.6 206.958 355.251 206.381C352.89 205.371 350.867 204.025 348.94 202.149C347.129 203.813 345.134 205.294 342.995 206.525C343.978 207.035 344.19 207.141 345.385 207.795H351.58L353.353 206.025C354.547 206.824 354.952 207.074 356.147 207.939C356.542 208.189 356.686 208.372 356.686 208.555C356.686 208.843 356.465 209.065 355.636 209.536C355.675 214.893 355.675 214.96 355.713 215.941C355.765 217.39 355.8 218.477 355.819 219.202V219.346C355.819 220.039 355.28 220.212 353.285 220.212C352.052 220.212 351.869 220.135 351.869 219.529V218.115H344.98V219.49C344.98 220.289 344.547 220.433 342.446 220.433C341.252 220.433 341.069 220.356 341.069 219.75C341.174 216.095 341.213 214.576 341.213 212.19V207.526C339.941 208.141 339.142 208.468 337.08 209.228L336.897 208.834C341.28 205.939 344.152 203.409 346.975 199.928C345.847 198.369 345.308 197.36 344.47 195.147C342.841 197.465 341.57 198.735 338.708 200.976L338.38 200.726C340.413 197.648 341.358 195.734 342.408 192.435C343.207 189.973 343.535 188.742 343.786 187.011C348.718 188.098 349.441 188.309 349.441 188.752C349.441 189.117 348.93 189.29 347.774 189.473C347.235 190.521 347.09 190.848 346.724 191.57H351.291L351.301 191.531ZM346.3 192.291C345.828 193.157 345.616 193.522 344.961 194.465C346.088 196.494 346.666 197.215 348.083 198.514C349.605 196.379 350.299 195.109 351.493 192.291H346.31H346.3ZM344.999 217.336H351.888V208.545H344.999V217.336Z" fill="#0A534C"/>
<path d="M379.684 193.676C381.207 190.271 381.756 188.79 382.112 187.021C387.729 188.463 388.057 188.579 388.057 189.079C388.057 189.473 387.585 189.694 386.756 189.694H386.361C384.001 191.685 383.355 192.195 381.245 193.676H387.585C388.78 192.301 389.146 191.868 390.34 190.56C392.229 191.897 392.768 192.301 394.512 193.743C394.695 193.965 394.763 194.07 394.763 194.176C394.763 194.32 394.58 194.426 394.291 194.426H380.368C378.557 196.629 377.757 197.504 375.985 199.168H384.617C385.485 198.158 385.774 197.86 386.718 196.888C388.134 197.87 388.568 198.158 389.839 199.129C390.205 199.418 390.311 199.601 390.311 199.783C390.311 200.149 390.022 200.399 389.078 200.793V206.66C389.078 212.96 389.117 215.095 389.261 219.183C389.223 220.087 388.606 220.337 386.284 220.337C385.234 220.337 385.051 220.231 385.012 219.539V218.019H370.657V219.356C370.618 219.721 370.551 219.866 370.406 220.01C370.079 220.231 369.134 220.404 368.046 220.404C366.745 220.404 366.485 220.221 366.485 219.423C366.629 214.499 366.668 211.537 366.668 205.92C366.668 201.871 366.629 199.88 366.485 196.869C368.547 197.812 369.163 198.1 371.052 199.149H374.279C375.002 195.705 375.04 195.388 375.146 194.407H365.396C363.835 194.407 362.968 194.484 361.918 194.657L361.668 193.282C362.901 193.532 364.134 193.647 365.435 193.647H372.102C371.813 193.455 371.45 192.756 371.013 191.551C370.397 189.887 369.741 188.877 368.364 187.501L368.585 187.136C371.235 187.819 372.324 188.223 373.297 188.761C374.53 189.483 375.069 190.204 375.069 191.079C375.069 192.128 374.53 193.032 373.509 193.647H379.675L379.684 193.676ZM385.012 204.717V199.937H370.657V204.717H385.012ZM370.657 205.477V210.796H385.012V205.477H370.657ZM370.657 211.556V217.278H385.012V211.556H370.657Z" fill="#0A534C"/>
<path d="M408.935 196.975C408.935 194.551 408.935 194.301 408.858 193.214C409.841 193.32 410.631 193.397 411.142 193.435C413.059 193.58 413.82 193.801 413.82 194.195C413.82 194.445 413.57 194.628 412.548 195.032V196.984H419.36V195.647C419.36 194.705 419.322 194.234 419.254 193.224C420.304 193.329 421.104 193.406 421.615 193.445C423.532 193.628 424.226 193.839 424.226 194.243C424.226 194.493 423.937 194.714 423.098 195.041V196.994H424.948C425.854 195.869 426.143 195.513 427.049 194.464C428.571 195.619 429.004 195.984 430.488 197.215C430.594 197.359 430.671 197.465 430.671 197.542C430.671 197.648 430.527 197.763 430.305 197.763H423.089C423.127 200.447 423.166 202.284 423.195 203.303C423.156 203.63 423.05 203.774 422.906 203.88C422.617 204.101 421.672 204.246 420.372 204.246C419.572 204.246 419.389 204.169 419.36 203.707V202.803H417.761V207.323H422.983C423.888 206.342 424.177 206.054 425.045 205.15C426.345 206.054 426.75 206.342 427.945 207.285C428.234 207.535 428.34 207.679 428.34 207.901C428.34 208.189 428.089 208.41 427.106 208.882V211.671C427.106 212.152 427.119 213.405 427.145 215.431C427.106 217.172 426.49 217.855 424.534 218.326C423.917 218.471 422.973 218.615 422.578 218.615C422.212 218.615 422.145 218.538 422.106 217.961C421.961 216.22 421.239 215.576 418.695 215.066V214.672C420.892 214.742 422.305 214.79 422.935 214.816C423.301 214.816 423.368 214.739 423.368 214.306V208.083H417.751V212.786C417.751 214.236 417.799 216.515 417.896 219.625C417.857 220.096 417.713 220.279 417.318 220.423C417.029 220.5 415.612 220.644 414.928 220.644C414.167 220.644 413.878 220.423 413.878 219.846V219.702C413.955 217.528 414.061 213.729 414.061 212.642V208.083H408.945V217.855C408.868 218.182 408.8 218.326 408.579 218.394C408.184 218.615 407.24 218.721 406.151 218.721C405.284 218.721 404.995 218.538 404.995 217.999C405.178 214.123 405.216 212.931 405.216 210.18C405.216 207.718 405.178 206.775 405.11 205.15C406.999 206.054 407.538 206.342 409.244 207.323H414.061V202.803H412.539V203.707C412.394 204.217 411.845 204.361 410.034 204.361C409.128 204.361 408.878 204.255 408.839 203.784C408.878 200.745 408.916 198.754 408.916 197.773H404.205C404.179 200.28 404.118 202.114 404.022 203.274C403.588 208.814 402.567 212.613 400.688 215.864C399.782 217.422 398.944 218.471 397.277 220.317L396.911 220.067C398.356 216.701 399.05 214.027 399.59 209.68C400.062 206.131 400.206 202.803 400.206 196.359C400.206 193.358 400.168 192.012 400.062 188.973C402.201 189.982 402.817 190.309 404.706 191.435H412.934V189.3C412.934 188.434 412.895 188.03 412.789 187.059C413.917 187.136 414.822 187.241 415.362 187.28C417.751 187.501 418.512 187.674 418.512 188.117C418.512 188.444 418.146 188.655 416.99 189.098V191.454H423.734C424.823 190.117 425.179 189.713 426.345 188.376C428.195 189.79 428.735 190.223 430.517 191.666C430.662 191.81 430.739 191.916 430.739 191.993C430.739 192.137 430.594 192.214 430.373 192.214H404.311C404.311 192.752 404.272 194.349 404.234 197.023H408.906L408.935 196.975ZM412.558 202.005H419.37V197.734H412.558V202.005Z" fill="#0A534C"/>
<path d="M489.077 211.959L486.996 217.673H469.451V216.865C474.605 212.171 478.238 208.324 480.348 205.352C482.448 202.37 483.508 199.658 483.508 197.186C483.508 195.301 482.93 193.753 481.774 192.551C480.618 191.339 479.24 190.733 477.631 190.733C476.166 190.733 474.856 191.156 473.7 192.012C472.544 192.868 471.677 194.118 471.127 195.763H470.318C470.684 193.06 471.619 190.992 473.131 189.55C474.644 188.107 476.532 187.386 478.797 187.386C481.205 187.386 483.219 188.155 484.838 189.704C486.456 191.252 487.256 193.07 487.256 195.176C487.256 196.677 486.909 198.177 486.206 199.687C485.127 202.053 483.373 204.554 480.945 207.199C477.303 211.171 475.029 213.556 474.124 214.374H481.889C483.469 214.374 484.577 214.316 485.213 214.2C485.849 214.085 486.427 213.845 486.938 213.489C487.449 213.133 487.892 212.623 488.277 211.969H489.086L489.077 211.959Z" fill="#0A534C"/>
<path d="M510.437 187.991L508.732 191.713H499.791L497.835 195.695C501.708 196.263 504.781 197.705 507.046 200.004C508.992 201.985 509.965 204.322 509.965 207.006C509.965 208.564 509.647 210.007 509.011 211.343C508.375 212.671 507.575 213.806 506.612 214.739C505.649 215.672 504.569 216.422 503.384 216.989C501.708 217.787 499.974 218.191 498.211 218.191C496.447 218.191 495.127 217.893 494.318 217.287C493.509 216.681 493.104 216.018 493.104 215.287C493.104 214.883 493.268 214.517 493.605 214.2C493.942 213.883 494.366 213.729 494.877 213.729C495.253 213.729 495.59 213.786 495.879 213.902C496.168 214.017 496.65 214.315 497.334 214.796C498.432 215.556 499.54 215.931 500.667 215.931C502.373 215.931 503.876 215.287 505.176 213.998C506.467 212.709 507.113 211.132 507.113 209.285C507.113 207.439 506.535 205.813 505.379 204.265C504.223 202.707 502.633 201.514 500.6 200.668C499.01 200.014 496.833 199.629 494.087 199.533L499.791 188.001H510.447L510.437 187.991Z" fill="#0A534C"/>
<path d="M515.216 205.968H526.556V209.276H515.216V205.968Z" fill="#0A534C"/>
<path d="M549.246 206.727V209.834H545.257V217.672H541.644V209.834H529.061V207.035L542.848 187.376H545.257V206.727H549.246ZM541.634 206.727V191.993L531.2 206.727H541.634Z" fill="#0A534C"/>
<path d="M553.08 193.637C553.928 191.637 554.997 190.098 556.288 189.011C557.58 187.924 559.198 187.376 561.125 187.376C563.505 187.376 565.336 188.145 566.607 189.694C567.571 190.848 568.052 192.079 568.052 193.397C568.052 195.561 566.694 197.792 563.977 200.091C565.808 200.803 567.185 201.832 568.12 203.159C569.054 204.486 569.527 206.044 569.527 207.843C569.527 210.411 568.708 212.633 567.07 214.518C564.931 216.97 561.848 218.192 557.792 218.192C555.787 218.192 554.429 217.942 553.706 217.451C552.984 216.961 552.618 216.422 552.618 215.855C552.618 215.431 552.791 215.056 553.128 214.739C553.475 214.421 553.889 214.258 554.371 214.258C554.737 214.258 555.113 214.316 555.489 214.431C555.739 214.508 556.298 214.768 557.175 215.229C558.052 215.691 558.659 215.96 558.996 216.047C559.535 216.21 560.113 216.287 560.73 216.287C562.223 216.287 563.515 215.71 564.623 214.556C565.731 213.402 566.28 212.036 566.28 210.459C566.28 209.305 566.02 208.179 565.509 207.093C565.133 206.275 564.709 205.66 564.256 205.236C563.63 204.65 562.763 204.121 561.665 203.649C560.566 203.178 559.449 202.938 558.312 202.938H557.608V202.284C558.765 202.139 559.921 201.726 561.087 201.033C562.252 200.341 563.091 199.523 563.62 198.562C564.15 197.6 564.411 196.542 564.411 195.388C564.411 193.887 563.938 192.666 562.994 191.742C562.05 190.819 560.875 190.348 559.478 190.348C557.213 190.348 555.315 191.56 553.803 193.983L553.08 193.637Z" fill="#0A534C"/>
<path d="M582.639 197.841C583.401 196.754 583.651 196.427 584.451 195.417C585.684 196.542 586.05 196.898 587.206 198.129C587.283 198.273 587.351 198.35 587.351 198.379C587.351 198.523 587.206 198.6 586.985 198.6H582.312V209.93C584.123 209.459 585.067 209.17 587.572 208.266L587.755 208.699C584.46 211.056 581.483 212.864 576.81 215.393C576.733 216.624 576.589 217.019 576.232 217.019C575.969 217.019 575.243 215.162 574.055 211.45C575.616 211.373 575.683 211.373 578.477 210.767V198.61H576.338C575.539 198.61 575.144 198.648 574.344 198.831L574.161 197.562C575.028 197.783 575.606 197.85 576.338 197.85H578.477V192.858C578.477 190.762 578.4 189.887 578.227 187.973C579.421 188.078 580.327 188.155 580.905 188.194C583.295 188.415 583.911 188.559 583.911 188.992C583.911 189.319 583.439 189.608 582.312 189.935V197.86H582.639V197.841ZM597.833 206.054H602.188C603.094 204.929 603.932 203.881 604.761 202.832C606.611 204.275 607.15 204.746 608.788 206.198C608.932 206.381 609.01 206.487 609.01 206.564C609.01 206.708 608.827 206.814 608.615 206.814H597.843V209.132C597.843 212.065 597.881 216.009 597.987 219.519C597.987 219.558 598.026 219.625 598.026 219.664C598.026 220.385 597.409 220.606 595.415 220.606C593.893 220.606 593.671 220.529 593.671 219.808C593.767 215.537 593.816 212.027 593.816 209.276V206.814H586.859C586.137 206.814 585.443 206.891 584.653 207.064L584.431 205.727C585.337 205.977 586.031 206.054 586.859 206.054H593.816V190.925H588.237C587.437 190.925 586.715 191.002 585.954 191.175L585.732 189.838C586.676 190.06 587.36 190.165 588.199 190.165H601.177L603.788 187.203C605.599 188.578 606.148 189.011 607.738 190.425C607.882 190.569 607.959 190.646 607.959 190.752C607.959 190.858 607.815 190.935 607.526 190.935H597.843V206.064L597.833 206.054ZM586.667 192.955C590.222 196.1 591.927 198.495 591.927 200.408C591.927 202.149 590.482 204.102 589.21 204.102C588.632 204.102 588.372 203.592 588.266 202.005C588.016 198.168 587.582 196.109 586.378 193.137L586.667 192.955ZM598.845 204.467C600.444 200.091 601.494 196.109 601.928 192.782C605.647 194.083 607.507 194.878 607.507 195.167C607.507 195.561 606.967 195.744 605.695 195.782C603.845 199.043 601.928 201.717 599.24 204.717L598.845 204.467Z" fill="#0A534C"/>
<path d="M196.982 188.251V221" stroke="#D29B5F" stroke-miterlimit="10"/>
<path d="M451.251 188.251V221" stroke="#D29B5F" stroke-miterlimit="10"/>
<path d="M93.8227 152.636H26.5147L26.3702 152.492L0.684067 127.043V26.2088L0.828587 26.0645L26.823 0H94.0636L94.2081 0.115415L122.486 24.3333V127.062L93.8324 152.636H93.8227ZM26.929 151.645H93.447L121.484 126.62V24.7853L93.6879 0.990643H27.2373L1.68608 26.6223V126.639L26.929 151.645Z" fill="#0A534C"/>
<path d="M92.05 147.991H28.432L5.33763 125.11V28.1228L28.75 4.64551H92.3294L117.813 26.4685V124.985L92.0307 147.991H92.05ZM29.6653 145.009H90.9131L114.846 123.648V27.8343L91.2406 7.61744H29.9928L8.32439 29.3539V123.869L29.6556 145.009H29.6653Z" fill="#0A534C"/>
<path d="M87.8878 137.141H32.9025L32.758 136.997L16.2056 120.599V32.6045L16.3501 32.4603L33.259 15.5039H88.2924L88.4369 15.6193L106.936 31.46V120.127L87.8781 137.132L87.8878 137.141ZM33.3168 136.151H87.512L105.953 119.695V31.912L87.9456 16.4945H33.6926L17.2172 33.0181V120.185L33.3264 136.151H33.3168Z" fill="#0A534C"/>
<path d="M88.0708 137.613H32.7098L32.4208 137.325L15.7335 120.791V32.4126L16.0225 32.1241L33.0759 15.0234H88.4851L88.7549 15.2543L107.417 31.2392V120.339L107.254 120.484L88.0612 137.613H88.0708ZM33.1048 136.651H87.7047L106.463 119.907V31.6816L88.1286 15.9852H33.471L16.6969 32.8069V120.397L33.1145 136.661L33.1048 136.651ZM87.6854 136.613H33.1145L16.7162 120.368V32.8165L33.471 16.0141H88.0997L106.406 31.6913V119.897L106.242 120.041L87.6662 136.622L87.6854 136.613ZM33.5095 135.651H87.3193L105.461 119.455V32.1337L87.7529 16.9759H33.8756L17.6797 33.2205V119.984L33.5095 135.67V135.651Z" fill="#0A534C"/>
<path d="M81.4229 120.224H39.8877L33.153 113.549V39.5871L33.2975 39.4428L40.3116 32.4121H82.0395L82.184 32.5275L90.0074 39.2312V112.568L81.4229 120.224ZM40.302 119.233H81.0471L89.015 112.125V39.6929L81.6734 33.4028H40.7259L34.1454 40.0006V113.145L40.302 119.233Z" fill="#0A534C"/>
<path d="M81.6059 120.705H39.695L32.6809 113.751V39.3951L32.9603 39.1066L40.1189 31.9316H82.2226L90.4891 39.0104V112.78L81.6059 120.705ZM40.09 119.743H81.2398L89.5257 112.347V39.4528L81.8661 32.8838H40.5139L33.6348 39.7798V113.347L40.09 119.743ZM81.2302 119.705H40.1093L33.6733 113.328V39.7991L40.5332 32.9223H81.8564L89.4968 39.4721V112.337L81.2302 119.714V119.705ZM40.5043 118.743H80.8641L88.5333 111.895V39.9145L81.5 33.8841H40.9282L34.6271 40.1934V112.934L40.4947 118.743H40.5043Z" fill="#0A534C"/>
<path d="M7.02077 28.2875L6.64197 29.2031L33.4643 40.2611L33.8431 39.3455L7.02077 28.2875Z" fill="#0A534C"/>
<path d="M29.8257 5.93814L28.9094 6.31836L40.0586 33.0954L40.9749 32.7152L29.8257 5.93814Z" fill="#0A534C"/>
<path d="M82.3189 33.0757L81.394 32.7391L91.3177 5.96289L92.2523 6.30913L82.3189 33.0757Z" fill="#0A534C"/>
<path d="M89.7184 39.9142L89.3041 39.0101L116.117 26.6992L116.541 27.6033L89.7184 39.9142Z" fill="#0A534C"/>
<path d="M89.7049 111.877L89.2998 112.781L116.118 124.751L116.523 123.846L89.7049 111.877Z" fill="#0A534C"/>
<path d="M81.6891 119.548L80.762 119.901L91.0045 146.677L91.9316 146.324L81.6891 119.548Z" fill="#0A534C"/>
<path d="M29.5015 146.692L28.5862 146.308L39.6372 119.541L40.5525 119.916L29.5015 146.692Z" fill="#0A534C"/>
<path d="M33.4619 112.904L6.63416 124.024L7.01472 124.939L33.8425 113.819L33.4619 112.904Z" fill="#0A534C"/>
<path d="M82.0684 96.9679V97.2468C82.0202 98.6991 80.0644 105.489 67.5586 105.489H62.2595V64.1997H67.4622V63.2764H52.2297V64.1997H57.4325V105.489H53.3185V106.413H82.3382V96.9679H82.0781H82.0684Z" fill="#0A534C"/>
<path d="M55.6982 46.2334H40.8319V47.1567H44.9459V88.4463H40.8319V89.3697H56.1607C56.1607 89.3697 56.2281 89.3697 56.257 89.3697C67.8476 89.3697 77.2703 79.9345 77.4919 68.2199C77.7135 56.1398 67.6067 46.243 55.7079 46.243L55.6982 46.2334ZM51.6131 88.4367H49.7632V47.1471H51.6131C62.3943 47.1471 71.7785 55.4185 72.5011 66.3348C72.5301 66.8157 72.5493 67.2966 72.5493 67.7871C72.5493 68.2776 72.5301 68.7585 72.5011 69.2394C71.7882 80.1653 62.404 88.4271 51.6131 88.4271V88.4367Z" fill="#0A534C"/>
<path d="M186.094 141.441H185.719C185.246 138.363 183.233 136.671 180.68 136.671C178.762 136.671 175.968 137.296 175.968 144.74C175.968 149.02 176.623 152.992 180.728 152.992C184.832 152.992 185.738 149.626 186.142 148.039H186.47V153.031H186.094L185.343 151.675C184.36 152.434 183.098 153.396 180.323 153.396C175.987 153.396 172.211 150.52 172.211 144.788C172.211 140.037 175.323 136.276 180.275 136.276C183.204 136.276 184.254 137.344 184.871 137.95L185.719 136.632H186.094V141.451V141.441Z" fill="#0A534C"/>
<path d="M213.245 152.694H215.682V153.03H207.647V152.694H210.065V136.959H207.647V136.622H215.682V136.959H213.245V152.694Z" fill="#0A534C"/>
<path d="M238.546 152.694H241.166V136.959C236.32 136.959 235.684 140.104 235.54 141.883H235.193L235.453 136.622H250.049L250.329 141.883H249.953C249.837 140.277 249.298 136.959 244.355 136.959V152.694H246.957V153.03H238.546V152.694Z" fill="#0A534C"/>
<path d="M278.164 136.622V136.959H275.331L280.206 144.336L284.638 136.959H281.873V136.622H286.844V136.959H285.062L280.331 144.826V152.694H282.952V153.03H274.512V152.694H277.133V145.182L271.699 136.959H270.013V136.622H278.164Z" fill="#0A534C"/>
<path d="M341.608 136.622C346.339 136.622 350.347 139.19 350.347 144.557C350.347 149.924 346.714 153.03 341.608 153.03H332.985V152.694H335.606V136.959H332.985V136.622H341.608ZM338.795 136.959V152.694H340.741C345.5 152.694 346.599 149.635 346.599 144.961C346.599 138.209 344.277 136.959 341.069 136.959H338.795Z" fill="#0A534C"/>
<path d="M376.351 152.694H378.788V153.03H370.753V152.694H373.171V136.959H370.753V136.622H378.788V136.959H376.351V152.694Z" fill="#0A534C"/>
<path d="M402.22 148.308L400.582 152.704H403.675V153.04H398.328V152.704H400.206L406.373 136.276H407.22L413.29 152.704H415.169V153.04H407.249V152.704H409.918L408.348 148.308H402.23H402.22ZM408.222 147.972L405.361 139.922L402.336 147.972H408.213H408.222Z" fill="#0A534C"/>
<path d="M440.894 136.622L445.605 148.616L450.085 136.622H456.039V136.959H453.506V152.694H456.039V153.03H447.889V152.694H450.326V136.959L444.353 153.03H444.006L437.656 136.959V152.694H440.094V153.03H434.824V152.694H437.31V136.959H434.824V136.622H440.913H440.894Z" fill="#0A534C"/>
<path d="M484.751 136.267C489.038 136.267 492.902 139.941 492.902 144.827C492.902 149.712 489.038 153.386 484.751 153.386C480.463 153.386 476.6 149.732 476.6 144.827C476.6 139.921 480.492 136.267 484.751 136.267ZM484.799 153.05C489.038 153.05 489.202 148.818 489.202 144.827C489.202 140.547 488.942 136.603 484.703 136.603C480.463 136.603 480.319 140.951 480.319 144.827C480.319 148.991 480.502 153.05 484.799 153.05Z" fill="#0A534C"/>
<path d="M519.734 136.622L527.75 147.885V136.959H525.38V136.622H530.371V136.959H528.126V153.386H527.75L516.083 136.959V152.694H518.501V153.03H513.559V152.694H515.736V136.959H513.559V136.622H519.744H519.734Z" fill="#0A534C"/>
<path d="M558.601 136.622C563.331 136.622 567.339 139.19 567.339 144.557C567.339 149.924 563.707 153.03 558.601 153.03H549.978V152.694H552.598V136.959H549.978V136.622H558.601ZM555.787 136.959V152.694H557.734C562.493 152.694 563.592 149.635 563.592 144.961C563.592 138.209 561.27 136.959 558.061 136.959H555.787Z" fill="#0A534C"/>
<path d="M477.987 10.1758H444.044V13.3401H477.987V10.1758Z" fill="#0A534C"/>
<path d="M487.95 47.4836V44.3193H440.499C440.749 41.7994 440.884 39.2507 440.884 36.6923V10.1758H395.341V13.3401H432.646V37.933C432.646 40.0682 432.55 42.1938 432.348 44.3097H388.423V47.474H431.982C430.931 55.0529 428.658 62.3817 425.228 69.0565C414.678 89.5811 397.364 97.6025 387.98 100.555C387.19 100.805 386.756 101.527 386.93 102.325C387.084 103.046 387.72 103.546 388.462 103.546C388.529 103.546 388.597 103.546 388.664 103.537C407.105 101.248 421.99 90.6872 431.693 72.9999C435.999 65.1517 438.841 56.486 440.113 47.4932H487.95V47.4836Z" fill="#0A534C"/>
<path d="M490.397 93.236C479.567 90.6777 470.578 86.667 463.66 81.3002C451.521 71.9516 444.179 62.8916 441.819 54.3701H441.742L441.077 57.1882V57.2266C443.158 69.0278 449.815 78.1936 456.454 86.5516C461.396 92.6301 467.986 97.9873 475.502 102.027C478.247 103.45 480.377 104.258 481.35 104.258C482.4 104.258 482.824 103.229 483.2 102.046C484.722 97.8045 486.08 96.4773 490.426 94.948H490.464C490.84 94.7845 491.062 94.3902 491.023 93.9574C490.985 93.5919 490.744 93.3034 490.406 93.2264L490.397 93.236Z" fill="#0A534C"/>
<path d="M508.163 100.998C508.163 101.527 508.414 102.017 508.857 102.334C509.156 102.546 509.512 102.661 509.888 102.661C510.052 102.661 510.215 102.642 510.369 102.594L513.51 101.719C514.657 101.402 515.457 100.382 515.457 99.2375V29.931L508.154 26.5166V100.998H508.163Z" fill="#0A534C"/>
<path d="M572.253 90.466C572.581 88.8502 572.08 87.2056 570.914 86.0611C563.563 78.8476 553.523 77.1645 549.544 76.7702C548.918 76.7028 548.34 77.0972 548.176 77.6839C548.012 78.2802 548.33 78.9053 548.918 79.1458C553.003 80.8193 562.994 85.7821 567.397 95.602L567.937 96.8042C568.197 97.3813 568.775 97.7468 569.43 97.7468C569.488 97.7468 569.546 97.7468 569.604 97.7468C570.317 97.6699 570.895 97.1697 571.03 96.4869L572.263 90.466H572.253Z" fill="#0A534C"/>
<path d="M533.098 9.7716H503.818V12.9359H533.098V23.4098C533.098 23.9484 533.348 24.4197 533.791 24.7467C534.1 24.9583 534.456 25.0737 534.822 25.0737C534.976 25.0737 535.14 25.0544 535.304 25.0063L538.455 24.1311C539.601 23.8137 540.401 22.7942 540.401 21.6497V1.25977H533.098V9.7716Z" fill="#0A534C"/>
<path d="M567.706 21.2073C567.706 21.7363 567.956 22.2268 568.399 22.5442C568.698 22.7558 569.054 22.8712 569.43 22.8712C569.594 22.8712 569.748 22.8519 569.912 22.8039L573.053 21.9286C574.199 21.6112 574.999 20.5917 574.999 19.4472V12.9359H603.768V9.7716H574.999V1.25977H567.696V9.7716H544.409V12.9359H567.696V21.2073H567.706Z" fill="#0A534C"/>
<path d="M533.098 30.518H519.407V33.6823H533.098V57.7944H519.407V60.9587H533.098V87.254H519.407V90.4183H533.098V99.6418C533.098 100.123 533.358 100.575 533.782 100.834C534.023 100.979 534.292 101.056 534.572 101.056C534.774 101.056 534.977 101.017 535.169 100.931L538.956 99.3052C539.832 98.9301 540.401 98.0837 540.401 97.1604V28.5752H533.098V30.518Z" fill="#0A534C"/>
<path d="M544.457 50.3118V53.4857H602.574V50.3118H575.009V25.7861H567.706V33.8652H547.184V37.116H567.706V50.3118H544.457Z" fill="#0A534C"/>
<path d="M604.713 66.7291H588.334V57.8037H581.127V66.7291H543.879V69.8934H581.127V86.9459C581.127 100.401 574.681 109.134 570.837 113.135C570.596 113.386 570.577 113.741 570.808 114.001C570.943 114.155 571.136 114.251 571.348 114.251C571.492 114.251 571.627 114.213 571.752 114.126C572.195 113.828 572.629 113.52 573.043 113.212C582.62 106.201 588.334 94.8807 588.334 82.916V69.8742H604.713V66.7099V66.7291Z" fill="#0A534C"/>
<path d="M596.764 33.9033H579.026V37.0676H596.764V33.9033Z" fill="#0A534C"/>
<path d="M157.325 4.12589C161.574 5.86673 171.941 11.0219 176.527 21.2554L177.076 22.4865C177.259 22.8808 177.674 23.1405 178.126 23.1405C178.165 23.1405 178.213 23.1405 178.252 23.1405C178.753 23.0924 179.157 22.7365 179.254 22.2749L180.516 16.1002C180.814 14.619 180.352 13.1186 179.283 12.0799C171.873 4.80876 161.728 3.1064 157.73 2.72168H157.662C157.258 2.72168 156.959 2.92366 156.872 3.2699C156.776 3.63538 156.959 3.99124 157.325 4.13551V4.12589Z" fill="#0A534C"/>
<path d="M173.193 42.9342L173.743 44.1653C173.926 44.5693 174.34 44.8289 174.793 44.8289C174.841 44.8289 174.88 44.8289 174.918 44.8289C175.419 44.7809 175.824 44.425 175.92 43.9633L177.182 37.7886C177.481 36.3075 177.018 34.8071 175.949 33.7684C168.54 26.5069 158.395 24.8045 154.396 24.4102C154.367 24.4102 154.338 24.4102 154.309 24.4102C153.914 24.4102 153.635 24.6121 153.539 24.9584C153.442 25.3239 153.625 25.6797 153.991 25.824C158.24 27.5648 168.607 32.72 173.193 42.9535V42.9342Z" fill="#0A534C"/>
<path d="M215.124 23.487C215.124 24.0256 215.374 24.5257 215.817 24.8623C216.135 25.1028 216.53 25.2374 216.945 25.2374C217.108 25.2374 217.263 25.2182 217.417 25.1797L221.078 23.8717C222.436 23.4774 223.381 22.2559 223.381 20.8998V0.577148H215.124V12.4552H190.112V15.2637H215.124V23.4966V23.487Z" fill="#0A534C"/>
<path d="M215.124 90.6296C215.124 91.1682 215.374 91.6683 215.817 92.0049C216.135 92.2454 216.53 92.38 216.945 92.38C217.108 92.38 217.263 92.3608 217.417 92.3223L221.078 91.0143C222.436 90.6199 223.381 89.3985 223.381 88.0424V76.6836H255.695V73.7694H223.381V50.85H252.111V47.9357H229.036C231.994 44.5021 237.823 38.3275 243.286 36.0576C243.691 35.8845 243.931 35.4998 243.883 35.067C243.825 34.5091 243.344 33.9898 242.785 33.8647L231.975 31.5565C231.3 31.4218 230.587 31.5565 230.029 31.9123C229.556 32.2201 229.258 32.6817 229.181 33.2011C228.14 40.3087 225.712 45.4832 223.756 47.9357H211.809L212.58 46.0314C213.168 44.5695 213.081 42.9344 212.33 41.6456C208.909 35.7595 203.88 32.1528 199.814 30.0368H255.146V27.0938H185.275V30.0368H194.891C198.427 32.8741 204.651 38.943 207.079 47.9357H186.769L186.663 50.85H215.114V61.1988H191.885V64.1419H215.114V73.7694H184.331V76.6836H215.114V90.6296H215.124Z" fill="#0A534C"/>
<path d="M248.662 12.4453H227.244V15.2537H248.662V12.4453Z" fill="#0A534C"/>
<path d="M247.342 61.1895H227.244V64.1325H247.342V61.1895Z" fill="#0A534C"/>
<path d="M258.586 92.6494C245.145 94.294 224.913 95.0346 210.48 95.0346H207.705C199.381 95.0346 185.449 95.0346 179.321 86.1092L179.205 85.9361V50.1768H169.715V53.8316H154.83V56.7458H169.715V86.1669L169.59 86.34C165.688 91.7934 160.052 96.8139 155.668 100.296C155.234 100.642 155.196 101.286 155.591 101.681L160.572 106.74C161.102 107.278 161.988 107.259 162.48 106.682C167.345 100.978 171.132 95.1597 174.33 88.4656L174.899 87.2826L175.544 88.4271C179.581 95.6406 185.555 102.758 209.911 103.7C214.565 103.893 219.854 103.989 225.616 103.989C235.029 103.989 245.415 103.71 253.354 103.258C254.626 103.181 255.724 102.373 256.167 101.18L259.116 93.3323C259.251 92.9668 258.962 92.5917 258.576 92.6398L258.586 92.6494Z" fill="#0A534C"/>
<path d="M320.903 3.78027H277.046V6.70411H320.903V3.78027Z" fill="#0A534C"/>
<path d="M369.134 3.78027H324.458V6.70411H369.134V3.78027Z" fill="#0A534C"/>
<path d="M281.16 35.5765C281.459 35.8073 281.844 35.9323 282.22 35.9323C282.374 35.9323 282.518 35.9131 282.673 35.8746L286.083 34.6628C287.355 34.2973 288.241 33.1431 288.241 31.8639V12.0703H280.505V34.2684C280.505 34.7782 280.746 35.2494 281.16 35.5668V35.5765Z" fill="#0A534C"/>
<path d="M357.727 38.6734C358.026 38.9042 358.401 39.0293 358.787 39.0293C358.941 39.0293 359.085 39.01 359.24 38.9716L362.65 37.7597C363.922 37.3942 364.808 36.2401 364.808 34.9609V12.0703H357.072V13.9843H340.471V16.8985H357.072V37.3654C357.072 37.8751 357.313 38.3464 357.727 38.6638V38.6734Z" fill="#0A534C"/>
<path d="M287.712 68.7967H355.675V70.0374C355.675 70.7587 356.012 71.432 356.6 71.884C357.024 72.211 357.544 72.3745 358.074 72.3745C358.295 72.3745 358.507 72.3457 358.729 72.288L362.12 71.0761C363.681 70.6241 364.77 69.2102 364.77 67.6329V48.6664L355.858 52.5328H342.822V55.3412H355.675V65.8824H338.968V44.2999H369.684V41.3087H328.563L329.314 39.4525C329.42 39.1928 329.497 38.9139 329.555 38.6446C329.777 38.7407 330.018 38.7984 330.268 38.7984C330.422 38.7984 330.567 38.7792 330.721 38.7407L334.132 37.5289C335.403 37.1634 336.29 36.0093 336.29 34.7301V12.0703H328.553V34.5954C325.036 29.1228 319.843 26.2279 316.529 24.8525V12.0703H308.792V13.9843H292.105V16.8985H308.792V37.3654C308.792 37.8751 309.033 38.3464 309.447 38.6638C309.746 38.8946 310.122 39.0197 310.507 39.0197C310.661 39.0197 310.806 39.0004 310.96 38.9619L314.371 37.7501C315.643 37.3846 316.529 36.2305 316.529 34.9513V28.8151C319.275 31.4888 322.579 35.6919 323.986 41.2991H287.721V41.1741L280.206 38.433C280.206 38.433 280.794 69.4218 280.225 78.5396C279.291 93.5724 273.529 101.209 269.28 105.633C268.972 105.96 268.953 106.422 269.242 106.768C269.415 106.97 269.666 107.085 269.926 107.085C270.109 107.085 270.282 107.028 270.436 106.922C270.899 106.605 271.342 106.287 271.785 105.97C281.767 98.6602 287.721 86.8591 287.721 74.3943V68.7774L287.712 68.7967ZM307.193 65.8824H287.712V55.3893H307.193V65.8824ZM331.231 52.5136H318.783V55.3508H331.231V65.8728H314.93V44.2903H331.231V52.5039V52.5136ZM307.193 44.2999V52.4751H287.712V44.2999H307.193Z" fill="#0A534C"/>
<path d="M324.593 92.3225C319.988 93.217 310.604 94.0441 302.289 94.65V83.8684H323.909V81.1657H302.289V73.3271H294.841V95.1598C289.947 95.4772 286.478 95.6599 286.382 95.6599H285.804L287.856 105.874L288.28 105.836C305.998 104.133 325.162 97.5835 325.354 97.5162L325.72 97.3911L325.094 92.2071L324.593 92.3033V92.3225Z" fill="#0A534C"/>
<path d="M367.545 82.8295H366.764C366.311 82.8295 365.965 83.2142 365.993 83.6566C366.726 93.5534 366.263 95.6597 361.523 96.4196C359.596 96.737 354.22 96.8812 350.048 96.8812C347.765 96.8812 345.847 96.8428 344.653 96.7658C337.639 96.2945 336.453 94.698 336.453 91.2836V89.0234L337.022 88.9272C346.801 87.3499 358.218 82.6852 362.564 80.5981L356.792 74.0964C347.582 81.0021 339.036 84.5799 337.378 85.2436L336.444 85.6187V73.3174H329.073V93.111C329.073 99.1703 330.673 102.027 340.144 102.95C342.552 103.2 346.213 103.354 350.848 103.354C356.638 103.354 361.6 103.114 363.797 102.729C367.545 102.075 369.491 101.094 370.522 99.3434C372.092 96.6696 371.611 91.8511 368.922 83.8297C368.72 83.2238 368.161 82.8199 367.525 82.8199L367.545 82.8295Z" fill="#0A534C"/>
<path d="M290.631 21.0244C290.323 21.5919 290.496 22.3036 291.036 22.6787C293.251 24.2464 298.531 28.5745 299.803 35.0088L299.967 35.8167C300.082 36.4034 300.535 36.8651 301.133 36.9997C301.19 37.0094 301.239 37.019 301.287 37.0286C301.354 37.0286 301.422 37.0382 301.489 37.0382C302.087 37.0382 302.616 36.7016 302.867 36.163L304.466 32.6525C304.967 31.556 304.881 30.2961 304.235 29.2862C300.67 23.7078 294.639 21.2168 292.23 20.4089L292.086 20.3704C291.517 20.2357 290.92 20.505 290.65 21.0148L290.631 21.0244Z" fill="#0A534C"/>
<path d="M342.003 20.4186L341.859 20.3802C341.28 20.2455 340.693 20.5148 340.423 21.0246C340.115 21.592 340.288 22.3037 340.828 22.6788C343.044 24.2466 348.323 28.5746 349.595 35.009L349.759 35.8169C349.875 36.4036 350.327 36.8652 350.925 36.9999C350.983 37.0095 351.031 37.0191 351.079 37.0287C351.146 37.0287 351.214 37.0384 351.281 37.0384C351.879 37.0384 352.418 36.7017 352.659 36.1631L354.258 32.6526C354.759 31.5562 354.673 30.2962 354.027 29.2863C350.462 23.7176 344.431 21.2169 342.013 20.409L342.003 20.4186Z" fill="#0A534C"/>
</svg>
