<svg width="135" height="20" viewBox="0 0 135 20" fill="#000" xmlns="http://www.w3.org/2000/svg">
<path d="M18.4,14.1c0-0.1-0.2-0.4-0.1-0.5c0,0.1,0.1-0.2,0.1,0.1c0,0,0-0.1,0-0.1c0,0,0,0,0,0.1c0-0.2,0-0.4,0-0.6
	c0,0.1,0,0.1,0,0.2c0-0.1,0-0.1,0-0.1c-0.5,0.3-0.5,1.3-1.2,1.3c-0.3,0.1-0.2,0.6-0.6,0.6c-0.5,0.1-1.4-0.5-1.2-1
	c-0.3-0.9,2.8-2.1,2.8-3.3c-0.1-0.3,0.1-0.8-0.1-0.9c-0.4,0.2-1,0-1.5,0c-0.8-0.2-0.9-1.6,0.1-1.6c2.5-0.9,0.9-2.3,1.7-4.1
	c0-0.8,1-0.7,1.3-0.1c0.2,0.4-0.2,0.5,0,1.1C20,5.4,20,5.6,19.9,6.1C20,6.4,21.1,6.5,20.4,7c0.5,0.1,0.2,0.4-0.1,0.5
	c-0.3,0.7-0.7,1.2-0.6,2.1c0.3-0.2,1-0.9,1.2-0.5c0.5-0.2,0.9-0.7,1.1-1.2c0.3,0.2,0.7-0.5,0.7-0.8C22.5,7,22,6.8,22.2,6.3
	c-0.1-0.8,0-1.6,0-2.4c0.1-0.3-0.3-0.7,0.1-0.9c2.1-1.8,1.3,2.7,2.4,0.8c0-0.5,0.2-1.6-0.6-1.2c-0.5,0.3-0.9-0.6-0.4-0.7
	c0.9-0.7,2.6-0.5,2.3,0.9c-0.4,1.1-0.3,2.4-0.5,3.5c0.1,0.3-0.2,0.9,0.1,0.9c0.6-0.3,1.4-0.1,1.8-0.6c0.2,0.4,0.9,1,0.2,1.4
	c0-0.1,0-0.6-0.2-0.5c-0.2,0.9-1.4,1.4-2,1.9c1,0,3.3-0.6,3.6,0.8c0.4,0.4,1.1,0.9,1,1.5c-0.1-0.1-0.1,0-0.1,0
	c0,0.2-0.1-0.3-0.3-0.1c-0.2-0.2-0.4,0.4-0.3,0.5c0,0,0,0,0,0.1c0.2-0.3,0.5-0.5,0.4,0c0.3-0.2-0.1,0.5-0.1,0.5
	c-0.1,0.7-0.6,1.1-0.8,1.8c0,0,0.1,0,0.1-0.1c-0.5,0.5-1.1,1.6-1.6,2.2c0.3-0.3,0.5-0.1,0.1,0.1c-0.2,0.5-0.9,0.7-1.3,1.1
	c0.1-0.1-0.6,0.7-0.7,0.3c-0.4,0.1-0.3,0-0.5-0.2c0,0,0,0.1,0,0.1c-0.1-0.1-0.1-0.3,0.1-0.1c0.1-0.2-0.2-0.3,0-0.3
	c0.2-0.1-0.3-0.3,0.1-0.2c-0.5-0.5,0.1-0.2,0.2-0.4c0,0-0.1,0-0.1,0c0.2-0.1,0.3-0.4,0.5-0.2c0.1-0.4,0.3,0.2,0.4-0.2c0,0,0,0,0,0
	c-0.3,0-0.1-0.1,0.1-0.3c0.3-0.4,0.8-0.1,0.8-0.6c3.7-5.3,1.4-7.8-4.1-4.5c-0.4,0.1-0.7,0.5-1,0.6c0.2,0-0.4,0.3-0.5,0.3
	c0,0,0,0-0.1,0.1c0.2,0.1-0.3,0.3-0.1,0.3c-0.3,0-0.8,1-0.8-0.1c0.3-0.4,0.7-1.1,0.9-1.5c0.2-0.2,0.5-0.3,0.8-0.1
	c-0.1,0.1-0.4,0-0.2,0.2c-0.2,0-0.4-0.1-0.6,0.1c0.4-0.3-0.2,0.5,0,0.4c0.2-0.2,2.1-1.2,1.5-1.2c0.3-0.1,0.6-0.2,0.8-0.4
	c-0.3,0,0.7-0.3,0.6-0.5c0.2,0.3,1.2-0.6,1.4-0.9c0.4,0.1,0.6-0.4,1.1-0.5c0.5-0.2,0.9-0.3,0.3-0.6c-0.2,0.4-0.5,0.6-1,0.6
	c0,0,0.1,0,0.1,0.1c-0.4-0.1-0.5,0.3-0.9,0.3c0.2,0.1,0.1,0.4,0,0.2c-0.3-0.1,0,0.2-0.3,0.2c0.1-0.2-0.2-0.2-0.1-0.1
	c-0.1,0.1-0.3,0.1-0.1,0.2c-0.2,0.1-0.3,0-0.5,0c0.1,0.1,0.1,0.3,0,0.4c-0.1,0,0-0.5-0.1-0.2c-0.1,0.2-0.3,0.2-0.1,0.4
	c-0.1-0.3-0.2-0.1-0.4,0c0,0,0,0,0,0c0.1-0.1,0.2,0,0.2,0.1c-0.2,0-0.3,0-0.5,0.1c0,0,0-0.1,0-0.1c0,0-0.1,0.1-0.1,0.1
	c0.2,0.1-0.4,0.2-0.3,0.4c-0.2-0.1-0.1,0.1-0.2,0.2c-0.1-0.1-0.2,0-0.1,0c-0.3,0.1-0.5,0.3-0.8,0.3c0.1,0.1-0.1,0.1-0.1,0.1
	c0.1-0.3,0.7-0.3,0.7-0.5c0.7-0.8,1.9-1.2,2.6-2C25,8.3,24,8.8,23.9,9C23.3,9.1,25.2,8,25,8.3c0.1,0.1,0.1-0.1,0.2-0.1
	c-1.2,0-2.5,1.7-3.6,1.6c0,0-0.1,0-0.1,0c0.5-0.4,1.9-1.4,0.6-0.6c-0.4,0-0.8,0.8-1.2,0.7c-0.2-0.2,0.1-0.4-0.1-0.6
	c-0.3,0-0.3,0.7-0.4,0.5c0.1-0.3,0-0.3-0.2-0.1c0,0.1,0.2,0.3,0,0.1c0,0.2-0.3,0.9-0.2,0.4c-0.2,0.2,0-0.3-0.2-0.1
	c-0.2,0.4-0.4,0.4-0.4,0.9c-0.1,0.1,0.4-0.4,0.6-0.5c0.1,0.2,1.2-0.8,0.9-0.4c-1.8,1.5-1.8,1.7-1.4,3.6c0,0.4,0.3,2.2,0.5,1.9
	c0.9,1.4-0.9,1.1-1.5,0.4c-0.3-0.3-0.4-0.8-0.7-1.1c0.1-0.8,0.4,0.2,0.6-0.6c0-0.1,0-0.2-0.1-0.1C18.4,14.1,18.4,14.1,18.4,14.1
	L18.4,14.1L18.4,14.1z M24.4,8.2L24.4,8.2c0.1,0,0.1-0.1,0.2-0.1C24.5,8.1,24.5,8.2,24.4,8.2L24.4,8.2z M26.5,17.3
	c-0.1,0.1-0.7,0.5-0.5,0.4C26.2,17.6,26.8,17.2,26.5,17.3L26.5,17.3z M24.2,5.5c0.1-0.7-1,0.9-0.4,0.6C23.9,6.6,24.2,5.5,24.2,5.5
	L24.2,5.5z M24.1,7.6c0,0-0.2,0-0.1,0.1c-0.3,0,0.2-0.5,0.4-0.6c0,0,0-0.5-0.2-0.4c0,0,0.1-0.1,0.1-0.1c-0.5,0.2-0.3,0.6-0.5,0.9
	c0,0,0,0,0,0c0,0,0.1,0,0.1,0c-0.2,0.4-0.4,0-0.6,0.2c0,0,0,0,0,0c0-0.2-0.6,0.5-0.8,0.6c-0.1,0.5,0,0.1-0.2,0.2
	c0.7,0.3,1.9-0.9,2.7-1C24.6,7.2,24.4,7.3,24.1,7.6L24.1,7.6z M27.2,7.1c0.1,0.1,0.2,0,0.3,0.1C27.5,7,27.3,6.8,27.2,7.1L27.2,7.1z
	 M20.9,12c0.2,0,0.2-0.3,0.3-0.4C21,11.7,20.9,11.8,20.9,12L20.9,12z M25.2,9.8c-0.1,0.4,0.1,0.1,0.2-0.1
	C25.3,9.8,25.2,9.8,25.2,9.8z M24.5,6.5c0-0.1,0-0.1,0-0.2c0,0.1-0.1,0.1-0.2,0.2C24.4,6.4,24.5,6.6,24.5,6.5z M26.8,17.2
	C27,17,26.9,17,26.7,17C26.7,17.1,26.7,17.2,26.8,17.2z M22.2,8.4c0,0-0.1,0.1-0.1,0.2C22.1,8.6,22.2,8.5,22.2,8.4z M24.2,5.1
	c0,0-0.2,0.1-0.1,0.2C24.2,5.3,24.2,5.1,24.2,5.1z M18.3,11.8c-0.1,0.1-0.1,0.2-0.1,0.3c0,0,0,0,0,0C18.2,12,18.3,11.8,18.3,11.8z
	 M25.7,16.8c0.1,0,0.2-0.1,0.1-0.1C25.7,16.7,25.7,16.8,25.7,16.8z M18.6,14.6C18.7,14.3,18.4,14.4,18.6,14.6L18.6,14.6z M27.1,7.5
	c0,0,0.1,0.1,0.2,0C27.3,7.5,27.2,7.4,27.1,7.5z M25.4,9.4c0,0-0.2,0-0.2,0C25.2,9.4,25.3,9.5,25.4,9.4z M24.9,6.6
	c0,0,0.1-0.2,0-0.2C24.9,6.4,24.9,6.5,24.9,6.6z M23.6,9.4c0,0-0.1,0-0.2,0C23.4,9.4,23.5,9.4,23.6,9.4z M26.7,7.1
	C26.7,7.1,26.7,7.1,26.7,7.1C26.6,7.1,26.7,7.1,26.7,7.1z M18.5,13.7C18.5,13.7,18.5,13.8,18.5,13.7C18.5,13.8,18.5,13.7,18.5,13.7z
	 M25.4,17.4C25.4,17.4,25.4,17.3,25.4,17.4C25.3,17.3,25.4,17.3,25.4,17.4z M23.6,9.3C23.6,9.3,23.7,9.4,23.6,9.3
	C23.7,9.4,23.7,9.4,23.6,9.3L23.6,9.3z M22.9,9.8C22.9,9.8,22.9,9.8,22.9,9.8C22.9,9.8,22.9,9.9,22.9,9.8z M25.8,17.1
	C25.8,17.1,25.7,17.1,25.8,17.1C25.7,17.2,25.7,17.2,25.8,17.1z M22.4,10.1C22.4,10.1,22.4,10.2,22.4,10.1
	C22.4,10.1,22.4,10.1,22.4,10.1z M21.8,10.9C21.8,10.8,21.8,10.8,21.8,10.9C21.8,10.8,21.8,10.8,21.8,10.9z M22,10.4
	C22,10.4,22,10.4,22,10.4C22,10.4,22,10.4,22,10.4z M24.4,8.8C24.4,8.8,24.5,8.8,24.4,8.8L24.4,8.8z M19.7,10.7
	C19.8,10.7,19.8,10.7,19.7,10.7C19.8,10.7,19.8,10.7,19.7,10.7z M26.9,17.1C26.9,17.1,26.9,17.1,26.9,17.1
	C27,17.1,27,17.1,26.9,17.1L26.9,17.1z M18.4,13.7C18.4,13.7,18.4,13.7,18.4,13.7C18.4,13.7,18.4,13.7,18.4,13.7z M18.4,13.6
	L18.4,13.6L18.4,13.6z M24,10.4L24,10.4L24,10.4L24,10.4z M25.8,17.1C25.8,17.1,25.8,17.1,25.8,17.1L25.8,17.1z M25.5,5.2L25.5,5.2
	L25.5,5.2z M25.4,6.9L25.4,6.9C25.4,6.9,25.4,6.9,25.4,6.9z M23.2,8.4L23.2,8.4L23.2,8.4z M23.8,9.2L23.8,9.2L23.8,9.2z M19.7,9.3
	L19.7,9.3L19.7,9.3z M20.3,7.6L20.3,7.6L20.3,7.6z M21.7,10.9L21.7,10.9L21.7,10.9z M26,16.5L26,16.5L26,16.5z M27.2,16.9L27.2,16.9
	L27.2,16.9z M25.3,17.5L25.3,17.5L25.3,17.5z M21.6,12C21.6,12,21.6,12,21.6,12L21.6,12z M23.9,9.2L23.9,9.2L23.9,9.2z M21.2,11.4
	L21.2,11.4L21.2,11.4z M23,8.6C23,8.6,23,8.6,23,8.6C23,8.6,23,8.6,23,8.6z M24.2,16.7c0.1,0,0.1-0.2,0.1-0.2
	c0.1-0.2,0.4,0.1,0.3,0.2c-0.3-0.2,0.4,0.4,0.1,0.3c0,0-0.3,0,0,0.1c0.1,0.6-0.2,0.2-0.4,0.1c0,0.2,0.3,0.2,0.4,0.4
	c-0.2,0-0.3-0.2-0.5-0.2c0.1,0.1,0.4,0.4,0.1,0.3c0,0.1-0.1,0.1-0.2,0.1c0.2,0.5-0.3-0.2-0.5-0.3c0.1,0,0.2,0.1,0.3,0.1
	c-0.2-0.1-0.4-0.1-0.5-0.3c0.3,0.1,0.4,0.1,0.1-0.1c0.1,0,0.1,0,0.2,0c0-0.2,0-0.3,0.2-0.3c-0.4-0.3-0.5-0.2-0.9,0.1
	c0,0,0.2-0.2,0.1-0.2c0.1,0,0.1,0,0.1-0.1c0.2-0.1-0.3,0.3-0.4,0.5c-0.2,0.1-0.4,0.3-0.5,0.5c2-1.8-2,2.3-1.3,1.3
	c0.1-0.1,0.2-0.2,0.3-0.4c-0.2,0.1,0,0.1-0.2,0c0.1-0.1,0.2-0.2,0.3-0.3c-0.1,0-0.2,0.1-0.2,0.2c-0.2,0-0.4,0.3-0.5,0.4
	c0,0,0,0,0-0.1c0,0.1-0.1,0-0.2,0c0,0,0.1,0,0.1,0c-0.3,0.1,0-0.4-0.1-0.3c0.8-1.3,2.4-3.3,3.6-3.8c0.1-0.2,0.2,0.2,0.4-0.1
	c-0.1-0.1-0.3,0-0.2-0.2c0-0.1,0.1-0.1,0.1,0c0.1,0.1,0.4-0.3,0.2-0.3c0.6-0.6,2.1-2.5,0.2-1.3c-0.3-0.1-0.3,0.3-0.4,0.5
	c-0.2,0-0.3,0.3-0.4,0.4c-0.1-0.1-0.3,0.1-0.1,0c0.1,0.2-0.2,0.3-0.4,0.2c0.7-0.2-0.4,0-0.1,0.2c-0.3-0.1-0.6,0.1-0.7,0.5
	c-0.1-0.1-0.1,0.1-0.1,0c-0.1,0.2-0.3,0.2,0.1,0.2c-0.3,0.4-0.6,1-0.9,0.9c-0.6,0-1.2-0.7-0.7-1.3c0.2-0.5,0.6-0.8,0.9-1.1
	c0.1-0.3,0.3-0.6,0.6-0.7c0.1-0.4,0.5-0.4,0.7-0.7c0.7-0.5,0.9,1.1,1.4,0.8c0.3-0.1,0.7-0.3,1-0.4c0-0.6,1.6-1,1.3-0.1
	c-0.3,0.2-0.8,0.5-1.1,0.4c-0.1,0.3-0.1,0.6-0.4,0.8c3.3-1.8-1.3,1.9-2.2,3.1c0.1-0.1,0.2,0,0,0.1c0.2,0.2,0.7,0.2,0.4,0.5
	c0.1,0.1-0.1,0.4,0.1,0.5C24.3,17,24.3,16.9,24.2,16.7z M22.5,14.7C22.8,14.5,22.7,14.3,22.5,14.7C22.5,14.7,22.5,14.7,22.5,14.7
	L22.5,14.7z M21.6,17.8c0.1,0,0.1-0.1,0.1-0.1C21.5,17.7,21.6,18.1,21.6,17.8z M21.8,17.6c0.1,0,0.2-0.1,0.2-0.1
	C21.9,17.5,21.9,17.5,21.8,17.6C21.8,17.6,21.9,17.6,21.8,17.6z M21.6,18.2L21.6,18.2C21.7,18,21.3,18.2,21.6,18.2z M21.7,18.1
	c0.1-0.1,0.4-0.3,0.4-0.5C22.1,17.7,21.4,17.9,21.7,18.1C21.7,18,21.7,18,21.7,18.1C21.7,18.1,21.7,18.1,21.7,18.1L21.7,18.1z
	 M23.4,12.9c0.2,0,1-0.3,0.4-0.4C23.7,12.7,23.1,13.1,23.4,12.9z M24.3,14.5c-0.1,0.1-0.3-0.1-0.3,0.1
	C24.1,14.6,24.3,14.7,24.3,14.5z M26.4,12.1C26.3,11.9,26.1,12.4,26.4,12.1L26.4,12.1z M23.7,16.5c0-0.1,0-0.1,0-0.2
	C23.6,16.3,23.7,16.4,23.7,16.5z M26.8,11.5c0,0-0.1,0-0.1,0C26.7,11.6,26.7,11.6,26.8,11.5z M24.2,17.5c0,0-0.1,0-0.1,0
	C24.1,17.5,24.1,17.6,24.2,17.5z M22.1,17.3C22.1,17.3,22.2,17.2,22.1,17.3C22.2,17.2,22.1,17.2,22.1,17.3z M23.4,16.4
	C23.4,16.4,23.3,16.4,23.4,16.4C23.4,16.4,23.4,16.4,23.4,16.4z M22.1,17.3L22.1,17.3L22.1,17.3C22.1,17.3,22.1,17.3,22.1,17.3z
	 M25.9,13.1L25.9,13.1L25.9,13.1z M22.7,14.4C22.7,14.4,22.8,14.4,22.7,14.4C22.7,14.4,22.7,14.4,22.7,14.4z M24.3,15.4L24.3,15.4
	L24.3,15.4z M23.9,16.4L23.9,16.4L23.9,16.4z M21.5,18.3C21.5,18.3,21.5,18.3,21.5,18.3L21.5,18.3z M25,12.7c0,0,0.1-0.2,0-0.2
	c0,0,0-0.1,0.1-0.1c-0.1,0.3,0.3,0.1,0.3-0.1c-0.2,0.1-0.1-0.1,0.1-0.1C25.7,12.5,25.1,12.6,25,12.7L25,12.7z M19.7,13.8
	c0.1,0.5,0.2,1,0.3,1.5C19.7,15,19.8,14.3,19.7,13.8L19.7,13.8z M20.7,9.9c-0.1,0.1-0.2,0.1-0.3,0.2C20.3,10,20.7,9.7,20.7,9.9z
	 M23,9.4C22.5,10,22.4,9.7,23,9.4L23,9.4z M24.6,18C24.6,18,24.6,18,24.6,18c-0.1,0.1-0.1,0.2-0.1,0.2c0-0.1,0-0.2-0.1-0.3
	c0,0,0.1,0,0.1,0C24.2,17.7,24.4,17.9,24.6,18z M27.5,8c-0.1,0.1-0.3,0.2-0.5,0.3C27.2,8.1,27.4,8,27.5,8L27.5,8z M24.7,15.1
	c0-0.1,0.1-0.2,0.2-0.2C24.9,15,24.9,15,24.7,15.1C24.8,15.1,24.8,15.1,24.7,15.1z M25,16.7C25,16.7,25,16.7,25,16.7
	c0,0.1-0.1,0.1,0,0.2C24.9,16.9,24.9,16.7,25,16.7z M22.1,11.7c0,0-0.2,0.2-0.2,0.1C22,11.8,22.1,11.8,22.1,11.7z M25.2,14.6
	c0,0.1-0.1,0.1-0.1,0.2C25,14.7,25.1,14.6,25.2,14.6z M24.4,17.7C24.7,17.8,24.2,17.8,24.4,17.7L24.4,17.7z M23,14.1
	c0,0.1-0.1,0.2-0.2,0.2C22.9,14.3,22.9,14.2,23,14.1z M27.2,12.1C27.3,12.2,27.1,12.2,27.2,12.1L27.2,12.1z M24.3,15.6
	c-0.1,0.1-0.2,0.1-0.2,0.1C24.1,15.7,24.3,15.5,24.3,15.6z M23.8,13.6c0,0-0.1,0-0.1,0C23.7,13.5,23.7,13.5,23.8,13.6z M19.6,13.4
	c0.1,0,0.1,0.2,0,0.3C19.7,13.6,19.7,13.5,19.6,13.4L19.6,13.4z M21.4,9.7C21.3,9.9,21.2,9.7,21.4,9.7L21.4,9.7z M24.2,14.1
	C24.3,14.3,24,14.3,24.2,14.1L24.2,14.1z M25.4,14.3c0,0,0.1-0.1,0.1-0.1C25.6,14.3,25.5,14.4,25.4,14.3z M23.4,13.8
	c-0.1,0.1-0.1,0.1-0.2,0.1c0,0,0,0,0,0C23.3,13.8,23.3,13.8,23.4,13.8z M19.7,11.4C19.7,11.4,19.9,11.2,19.7,11.4
	C19.8,11.4,19.8,11.4,19.7,11.4z M29.5,13.2c0,0-0.1,0.2-0.1,0.1C29.4,13.3,29.4,13.2,29.5,13.2z M25.4,14.4c0,0-0.1,0.1-0.1,0.1
	C25.3,14.4,25.3,14.4,25.4,14.4z M19.9,11.3C19.9,11.1,20.1,11.2,19.9,11.3L19.9,11.3z M24.5,15.2c0,0,0.2-0.1,0.2,0
	C24.6,15.2,24.6,15.2,24.5,15.2L24.5,15.2z M29.9,12c0,0,0-0.1,0.1-0.1C30,11.9,29.9,12,29.9,12z M22.2,10
	C22.2,10.1,22.2,10.1,22.2,10C22.1,10.1,22.2,10.1,22.2,10L22.2,10z M23.5,16.8C23.4,16.8,23.4,16.7,23.5,16.8
	C23.5,16.7,23.5,16.8,23.5,16.8z M22.1,11.7c0,0,0.1-0.1,0.1-0.1C22.2,11.7,22.2,11.7,22.1,11.7L22.1,11.7z M22.4,9.9
	C22.4,9.9,22.3,10,22.4,9.9C22.3,10,22.3,10,22.4,9.9z M20.2,11C20.2,11,20.2,10.9,20.2,11C20.3,10.9,20.2,11,20.2,11z M25,14.8
	C25,14.8,25,14.8,25,14.8C25.1,14.8,25,14.8,25,14.8z M26,9.2C25.9,9.2,25.9,9.2,26,9.2C25.9,9.2,26,9.2,26,9.2z M24.6,16.6
	C24.6,16.6,24.7,16.6,24.6,16.6C24.7,16.6,24.7,16.6,24.6,16.6z M29.2,10C29.2,10,29.2,10,29.2,10C29.2,10,29.3,10,29.2,10z
	 M24.2,13.3C24.3,13.3,24.2,13.4,24.2,13.3C24.2,13.3,24.2,13.3,24.2,13.3z M23.5,9.1C23.5,9.2,23.4,9,23.5,9.1L23.5,9.1z
	 M24.9,12.1C24.9,12.1,24.9,12.1,24.9,12.1C24.9,12.1,24.9,12,24.9,12.1z M21.7,12C21.7,12,21.6,12.1,21.7,12
	C21.6,12.1,21.7,12,21.7,12L21.7,12z M23,9.4C23,9.4,23,9.4,23,9.4C23,9.4,23,9.4,23,9.4L23,9.4z M26.7,15.9
	C26.7,15.9,26.7,15.9,26.7,15.9C26.6,15.9,26.7,15.9,26.7,15.9z M18.3,13.4C18.3,13.4,18.3,13.4,18.3,13.4
	C18.3,13.4,18.3,13.4,18.3,13.4z M24.6,17.8C24.6,17.8,24.6,17.8,24.6,17.8C24.6,17.8,24.6,17.8,24.6,17.8z M19.6,10.7
	C19.5,10.7,19.5,10.6,19.6,10.7C19.5,10.6,19.5,10.7,19.6,10.7z M28.5,10.7C28.5,10.7,28.4,10.7,28.5,10.7
	C28.4,10.7,28.4,10.6,28.5,10.7z M23,11.1L23,11.1C23.1,11.1,23,11.1,23,11.1z M24.6,17.8C24.5,17.7,24.6,17.7,24.6,17.8
	C24.6,17.7,24.6,17.7,24.6,17.8L24.6,17.8z M24.9,16.9L24.9,16.9C24.9,16.9,24.9,16.9,24.9,16.9z M19.6,10.5
	C19.5,10.5,19.6,10.5,19.6,10.5C19.6,10.5,19.6,10.5,19.6,10.5z M20.3,9.8C20.3,9.8,20.3,9.8,20.3,9.8C20.3,9.8,20.3,9.8,20.3,9.8z
	 M25.7,9.2C25.7,9.2,25.7,9.2,25.7,9.2C25.7,9.2,25.7,9.2,25.7,9.2z M23.4,10.8C23.4,10.8,23.4,10.9,23.4,10.8
	C23.4,10.9,23.3,10.9,23.4,10.8z M23.9,13.5C23.9,13.5,23.9,13.5,23.9,13.5L23.9,13.5z M20.9,18.7C20.9,18.7,20.9,18.8,20.9,18.7
	C20.9,18.7,20.9,18.7,20.9,18.7z M23.6,16.7C23.6,16.7,23.5,16.7,23.6,16.7C23.6,16.7,23.6,16.7,23.6,16.7z M23.8,10.5
	C23.8,10.5,23.8,10.6,23.8,10.5C23.8,10.6,23.8,10.5,23.8,10.5z M19.4,11.5C19.4,11.5,19.4,11.5,19.4,11.5L19.4,11.5z M29.1,14
	L29.1,14C29.1,14,29.1,14,29.1,14L29.1,14z M23,14.1C23,14.1,23,14.1,23,14.1C23.1,14.1,23,14.1,23,14.1z M29,14.2
	C29,14.2,29,14.2,29,14.2C28.9,14.2,29,14.2,29,14.2z M28.6,14.9C28.6,14.9,28.6,14.9,28.6,14.9L28.6,14.9L28.6,14.9z M24.3,15.6
	C24.3,15.6,24.3,15.5,24.3,15.6L24.3,15.6z M21.2,18.5C21.2,18.5,21.2,18.5,21.2,18.5L21.2,18.5z M21.4,9.7
	C21.4,9.7,21.4,9.6,21.4,9.7L21.4,9.7z M22.5,9.9L22.5,9.9C22.4,9.9,22.4,9.9,22.5,9.9L22.5,9.9z M25.3,12.4
	C25.3,12.4,25.3,12.4,25.3,12.4C25.3,12.4,25.3,12.4,25.3,12.4z M25,12.7C25,12.7,25,12.7,25,12.7L25,12.7z M28.5,10.4
	C28.5,10.4,28.5,10.4,28.5,10.4C28.5,10.4,28.5,10.4,28.5,10.4z M25.4,11.9L25.4,11.9L25.4,11.9L25.4,11.9z M29.1,14.1L29.1,14.1
	C29.1,14.1,29.1,14.1,29.1,14.1L29.1,14.1z M24.6,18C24.6,18,24.6,18,24.6,18C24.6,18,24.6,18,24.6,18z M17.9,14.8
	C17.9,14.8,17.8,14.8,17.9,14.8C17.8,14.8,17.9,14.8,17.9,14.8z M22.1,10.8c-0.2,0,0-0.2,0.1-0.1C22.2,10.7,22.2,10.7,22.1,10.8
	L22.1,10.8z M25.5,8.2c0.1,0,0.2,0,0.1,0.1C25.5,8.3,25.5,8.3,25.5,8.2L25.5,8.2z M27,7.7c0,0-0.2,0.1-0.2,0
	C26.8,7.7,26.9,7.7,27,7.7z M26.3,8C26.3,8,26.2,8,26.2,8C26.2,8,26.2,8,26.3,8z M24.5,9c0,0,0,0.1-0.1,0.1C24.4,9,24.4,9,24.5,9z
	 M23.4,9.7C23.4,9.7,23.4,9.7,23.4,9.7C23.4,9.8,23.3,9.8,23.4,9.7z M23.4,9.8C23.4,9.8,23.4,9.8,23.4,9.8
	C23.4,9.8,23.4,9.8,23.4,9.8z M22.4,10.5C22.4,10.5,22.3,10.5,22.4,10.5C22.3,10.5,22.3,10.5,22.4,10.5z M26,8.1
	C26,8.1,25.9,8.1,26,8.1C25.9,8,26,8.1,26,8.1z M22.7,10.1L22.7,10.1C22.8,10.1,22.8,10.2,22.7,10.1C22.7,10.2,22.7,10.2,22.7,10.1
	L22.7,10.1z M26,8.1C26,8.1,26,8.1,26,8.1C26,8.2,26,8.2,26,8.1z M23.1,9.9C23.1,9.9,23.1,9.9,23.1,9.9C23.1,10,23.1,9.9,23.1,9.9z
	 M22.5,10.4C22.5,10.5,22.4,10.4,22.5,10.4L22.5,10.4z M22.4,8.3C22.6,7.9,22.8,8.2,22.4,8.3L22.4,8.3z M22.8,7.8
	C22.8,7.8,22.8,7.9,22.8,7.8C22.7,8.1,22.7,8,22.8,7.8z M23.1,7.6C23.2,7.6,23,7.7,23,7.8C23,7.7,23.1,7.6,23.1,7.6L23.1,7.6z
	 M23.8,7.4C23.8,7.4,23.8,7.3,23.8,7.4C23.8,7.3,23.8,7.4,23.8,7.4z M24.1,7.6C24.1,7.6,24.2,7.5,24.1,7.6
	C24.2,7.6,24.1,7.6,24.1,7.6z M24,6.9L24,6.9C24,6.9,24,6.9,24,6.9z M24,7.1C24,7.1,24,7.1,24,7.1C24,7.2,24,7.2,24,7.1z M24,6.8
	L24,6.8L24,6.8L24,6.8z M22.4,8.3C22.4,8.3,22.4,8.3,22.4,8.3C22.4,8.3,22.4,8.3,22.4,8.3z M26.5,17.2L26.5,17.2
	C26.6,17.3,26.5,17.3,26.5,17.2z M9.2,7.2C9.2,7.2,9.4,7,9.5,6.9C8.6,7.6,9.3,7,9.6,6.6c0.3-0.4,0.5-0.7,1-0.3c2,0.6,0,1.2-0.6,1.7
	c0,0-0.1,0-0.1,0c0,0-0.1,0-0.1,0.1c0.5-0.2,1.4-0.2,1.7-0.5C12.6,7.2,14.4,8,13.2,9c-0.6,0.3-1-0.3-1.7-0.3
	c-0.3-0.2-1.7,0.4-1.2,0.1C9.9,9,9.6,8.9,9.2,9.2c0,0,0,0,0,0C8.7,9.3,9,9.4,9.3,9.3c-0.9,0.4-2.1,1-2.9,1.2C6.9,10.2,7.6,10,8,9.8
	c-0.4,0-1.1,0.5-1.7,0.5c0,0,0,0,0.1-0.1c-0.6,0-1.7,0.7-0.6,0.4c-0.1,0-0.1,0.1-0.1,0.1c0.2,0,0.5-0.3,0.5-0.2
	c0.3,0.2-1.1,0.4-1.1,0.8c-0.4,0.2-1.1,1-1.5,0.3C3.5,10,6.1,10.2,7.2,9.5c0,0-0.1,0-0.1,0c0.2-0.1,0.4-0.2,0.6-0.3
	c-0.8-1-1.8,0.9-2-0.5C5.5,9.4,4.9,8,5.4,7.9c0.3,0,1.5-0.1,1-0.6C5.3,7.9,4.7,6.4,5.1,5.7c0-0.1,0.3-0.5,0.5-0.5
	C5.7,5.4,6,5.5,6.2,5.3C7,5.5,6.5,3.2,6.9,2.7c0.1-0.4,0.4-1,0.1-1.4c0.5-1.2,1.8-0.4,2.2,0.5c0.3,0.5,0.2,1.2,0,1.8
	c0,1.2,2.4,0.4,2.3,1.9c0.1,0.9-1.1,0.1-1.7,0.5c-1,0.3-1.5,1-1.3,2c0.1,0.3,0,1,0.5,0.6C9,8.8,9.4,8.1,9.6,8C9.3,8,9.4,7.8,9.2,7.9
	c0,0,0.1-0.1,0.1-0.1c0-0.2,0.5-0.7-0.1-0.3c0-0.1,0.1-0.1,0.1-0.1C9.1,7.5,9.2,7.3,9.2,7.2z M10.1,8.8c0,0,0.1,0,0.1,0
	C10.2,8.8,10.1,8.7,10.1,8.8z M9,3.7c-0.2,0.1-0.2,1,0,0.7C9.2,4.2,9.4,4.3,9.2,4c0,0,0.1,0,0.1,0.1C9.2,3.9,9.1,3.7,9,3.7z
	 M6.5,8.7c0-0.2-0.2-0.2-0.4-0.3C5.9,8.7,6.3,8.9,6.5,8.7z M8.3,9.6c0,0-0.1,0-0.1,0.1C8.1,9.6,8.2,9.6,8.3,9.6z M10.4,8.8
	c0,0,0.1,0,0.1,0C10.5,8.7,10.4,8.7,10.4,8.8z M9.8,8.4C9.8,8.4,9.8,8.5,9.8,8.4L9.8,8.4z M10.3,8.7L10.3,8.7
	C10.3,8.7,10.3,8.7,10.3,8.7z M10.5,8.6C10.5,8.6,10.5,8.6,10.5,8.6L10.5,8.6z M8,17.2c0.9,0.5,1.8,0.9,1.5-0.4
	c0-0.5,0.2-1.1-0.5-1.1c-1.4-0.1-1.2-1-0.9-1.9c-1,0.3-0.5,0.7-0.6,1.4c0,0.2,0,0.6-0.3,0.6c0.1-0.1,0.3-0.6-0.1-0.4
	c-0.2-0.3-0.2,0.6-0.1,0.1c0,0.2,0,0.4-0.1,0.5c0.1,0.4-0.3,1.2-0.1,1.8c0.5,0.4,0.4,1.4-0.5,1.3c-1.9-1.5-1-4.3-0.9-6.4
	c0.1,0.2,0,0.3,0,0.5c0.2-0.6-0.1-1,0.1-1.6c0.3-0.2,1-0.5,1.4-0.2c0.5-0.6,1.6-1.3,2.3-1.7c0.2-0.2,1,0.1,1.2,0.3
	c0.3,0.2,0,0.4,0,0.6c0.2,0,0.2,0.3,0.1,0.3c-0.4-0.3-1.2,0.6-0.5,0.4c0.1-0.1,0.1,0.1,0.2,0.1c0.1,0.1,0.1-0.1,0.2,0
	c0.4-0.6,0,0.7-0.1,0.9c0,0.6,0.2,1.1,0,1.6c-0.1,1.8,0.5,4.3-0.4,6C10,19.1,8.9,18.8,8.7,18c0.1,0,0.1,0,0-0.1c0.1,0,0.1,0,0.2,0.1
	c-0.1-0.2-0.3-0.2-0.4-0.3c0.1,0,0.2,0,0.3,0.1C8.5,17.6,8.2,17.4,8,17.2L8,17.2z M6.9,16.7C6.9,17,7,16.6,7,16.5
	c0.1-0.3-0.2,0.2-0.1-0.3c0,0.1,0,0.1,0,0.1c-0.1,0.1-0.1,0.4-0.1,0.5c0.1-0.1,0-0.2,0.1-0.3C7,16.7,6.9,16.6,6.9,16.7z M6.6,16.6
	c0,0.1-0.1,0.2-0.1,0.3c0,0,0,0,0,0c0,0,0,0,0,0.1C6.6,16.8,6.6,16.7,6.6,16.6L6.6,16.6L6.6,16.6z M7.6,11.6c0,0.4,0,0.7-0.1,1.1
	c0.5-0.2,1.7-0.5,1.8,0c0.2-0.4,0-1-0.2-1.5c0-0.2,0.1-0.4-0.1-0.3C8.7,11.5,8.4,12.1,7.6,11.6z M6.9,12.8c0.2-0.4,0.4-0.6,0.4-0.9
	C6.7,11.8,6.8,12.5,6.9,12.8z M9.5,14.4c0.3-1.2-1.2,0.3-0.3-0.1C9.2,14.4,9.4,14.5,9.5,14.4z M6.7,13c-0.3-0.3-0.3,0-0.1,0.3
	C6.6,13.1,6.7,13.1,6.7,13z M7.3,11.4c0,0-0.1-0.1-0.1-0.2C7,11.3,7.3,11.4,7.3,11.4z M6.9,17.1C6.9,17.1,6.9,17,6.9,17.1
	C6.9,17,6.9,17,6.9,17.1z M6.9,17.1C6.9,17.1,6.9,17.1,6.9,17.1L6.9,17.1z M7.6,12.2C7.6,12.2,7.6,12.2,7.6,12.2
	C7.7,12.2,7.7,12.1,7.6,12.2z M7.1,15.6C7.1,15.6,7.1,15.6,7.1,15.6L7.1,15.6z M3.4,12.1C3.4,12.1,3.3,12.1,3.4,12.1
	c2-0.8-0.6,1.6-1,2.3c-0.6,0.7-0.6,2.1-1.8,1.5c-0.6-0.9-0.8-1.4,0.3-2c0.3-0.4,1.1-0.8,1.6-1.1c0.1,0,0.2-0.2,0.4-0.4
	c0.1,0,0.5-0.3,0.3-0.3C3.3,12.1,3.3,12,3.4,12.1L3.4,12.1z M1.5,6.7C0.7,6.3,0.4,5.3,1.2,4.8C3.7,3.6,3.1,5.2,3,7
	C2.9,7.7,1.8,6.7,1.5,6.7L1.5,6.7z M2.8,5.4C3.6,4.3,1.6,5.3,2.8,5.4L2.8,5.4z M2.6,5.7c0.1-0.2-0.3-0.4-0.4-0.2
	C2.1,5.8,2.6,6.1,2.6,5.7L2.6,5.7z M1.7,8.6c1.7,0.5,1.3,2.9-0.4,2.2C1.1,10.4,0.9,10,0.6,9.7c0-0.5-0.1-1.1,0.6-1.3
	C1.3,8.6,1.6,8.5,1.7,8.6z M7.8,17c-0.1-0.1-0.2-0.2-0.2-0.4C7.7,16.6,8,16.9,7.8,17z M9.4,9.2c0-0.1,0.3-0.1,0.4-0.2
	C9.7,9.1,9.5,9.1,9.4,9.2z M7.4,15.8C7.5,16.1,7.3,16,7.4,15.8L7.4,15.8z M8,17.2c-0.1,0-0.2-0.1-0.2-0.2C7.8,17.1,8,17.1,8,17.2
	L8,17.2z M7.8,17C7.9,17,8,17,8,17.1C7.9,17.1,7.9,17,7.8,17z M9.9,8.9c0,0,0.1-0.1,0.1,0C10.1,8.9,10,9,9.9,8.9z M6.3,10.2
	c0,0-0.1,0.1-0.1,0.1C6.1,10.3,6.2,10.2,6.3,10.2z M7.4,16.1c0,0,0,0.1,0.1,0.1C7.5,16.3,7.5,16.2,7.4,16.1
	C7.4,16.2,7.4,16.1,7.4,16.1z M9.1,7.3C9,7.4,9.1,7.3,9.1,7.3C9.1,7.3,9.2,7.3,9.1,7.3z M9.9,3.3C10,3.3,9.9,3.4,9.9,3.3
	C9.9,3.4,9.9,3.4,9.9,3.3z M7.5,15.9L7.5,15.9C7.5,16,7.5,15.9,7.5,15.9z M10.3,10.9C10.3,10.9,10.2,10.9,10.3,10.9
	C10.3,10.9,10.3,10.9,10.3,10.9z M5.7,12.3C5.7,12.3,5.7,12.3,5.7,12.3C5.7,12.3,5.7,12.3,5.7,12.3z M9.7,9C9.7,9,9.7,9,9.7,9
	C9.7,9,9.7,9,9.7,9z M7.5,16.4C7.5,16.4,7.5,16.4,7.5,16.4C7.5,16.4,7.5,16.4,7.5,16.4L7.5,16.4z M3.4,12.1L3.4,12.1
	C3.4,12.1,3.4,12,3.4,12.1L3.4,12.1z M8.2,17.2L8.2,17.2C8.2,17.2,8.2,17.2,8.2,17.2z M8.9,8.4C8.9,8.4,8.9,8.4,8.9,8.4
	C9,8.4,8.9,8.4,8.9,8.4L8.9,8.4z M10.1,9L10.1,9C10.1,9,10.1,9,10.1,9z M9.8,9C9.8,9,9.8,9,9.8,9L9.8,9C9.8,9,9.8,9,9.8,9z
	 M6.1,10.3L6.1,10.3C6.1,10.4,6.1,10.4,6.1,10.3z M6.1,10.3L6.1,10.3L6.1,10.3L6.1,10.3z M9.9,2.8C9.9,2.8,9.9,2.8,9.9,2.8L9.9,2.8z
	 M10.4,10.9C10.4,10.9,10.4,10.9,10.4,10.9L10.4,10.9z M10.4,10.8C10.4,10.8,10.4,10.9,10.4,10.8C10.4,10.9,10.4,10.8,10.4,10.8z
	 M7.6,15.8C7.5,15.8,7.5,15.8,7.6,15.8L7.6,15.8z M10.4,10.8C10.4,10.8,10.4,10.8,10.4,10.8C10.4,10.8,10.4,10.9,10.4,10.8
	L10.4,10.8z M5.5,10.8L5.5,10.8L5.5,10.8L5.5,10.8L5.5,10.8z M8.3,17.6C8.3,17.6,8.3,17.6,8.3,17.6L8.3,17.6z M8.3,17.6
	C8.3,17.6,8.4,17.6,8.3,17.6C8.4,17.6,8.4,17.6,8.3,17.6z M8.4,17.6C8.4,17.6,8.4,17.6,8.4,17.6C8.5,17.7,8.4,17.6,8.4,17.6z
	 M8.5,17.7C8.5,17.7,8.5,17.7,8.5,17.7C8.5,17.6,8.5,17.6,8.5,17.7z M5.8,10.4c0,0-0.1,0-0.1,0C5.7,10.4,5.8,10.4,5.8,10.4z
	 M5.8,10.5C5.8,10.5,5.8,10.5,5.8,10.5L5.8,10.5z M5.8,10.4C5.8,10.5,5.8,10.4,5.8,10.4C5.8,10.4,5.8,10.4,5.8,10.4z M9.1,4
	C9.1,4,9.1,4,9.1,4C9.1,4,9.1,4,9.1,4z M9.1,3.9L9.1,3.9C9.1,3.9,9.1,3.9,9.1,3.9z M49.5,1.2v16.2h-1.7v-0.8H36v0.8h-1.6V1.2H49.5z
	 M47.8,15V2.7H36V15H47.8z M36.8,13.5l-0.2-1.3l5.3-0.8l0,1.1c0.4-0.4,0.8-0.7,1.1-1.2c-0.4-1.4-0.7-3.2-0.9-5.2h-5.3V4.9H42
	c0-0.6-0.1-1.2-0.1-1.8h1.4c0,0.6,0.1,1.2,0.1,1.8h2.5c-0.4-0.4-1.1-0.9-1.8-1.3l0.8-0.8c0.7,0.3,1.5,0.8,1.8,1.2l-0.8,0.9h1.1v1.3
	h-3.6c0.1,1.3,0.3,2.6,0.5,3.6c0.5-0.9,0.9-1.9,1.1-3l1.3,0.3h0c-0.4,1.7-1.1,3.1-1.9,4.4c0.8,1.7,1.6,2.1,1.7-0.4
	c0.3,0.3,0.8,0.7,1.1,0.8c-0.3,3.5-2.6,3-3.7,0.9c-0.6,0.7-1.4,1.3-2.2,1.9c-0.2-0.3-0.7-0.8-0.9-1.1c0.5-0.3,1-0.6,1.4-1L36.8,13.5
	z M41.3,7.1v3.6h-4V7.1H41.3z M40.2,8.1h-1.7v1.6h1.7V8.1z M55.5,6.5c2,2.5,2.3,7.1-1.4,6.5c0-0.4-0.1-1-0.4-1.4
	c2.8,0.4,1.9-3.1,0.4-4.9l1.2-4h-1.9v14.7H52V1.1h3.9L56,1l1.1,0.6L55.5,6.5z M58.4,4.2c-0.4,0.5-0.8,1-1.2,1.4
	C57,5.4,56.4,5,56.1,4.8c1.2-1.1,2.2-2.7,2.8-4.4l1.3,0.3c-0.1,0.4-0.3,0.7-0.4,1.1h1.6l0.2-0.1L62.5,2l-0.1,0.4l0.9-0.2V1.3h3.1
	l0.3-0.1l0.9,0.6c-0.5,1.5-1.4,3.2-2.3,4.3c0.7,1.1,1.6,2,2.6,2.6c-0.4,0.3-0.8,0.8-1,1.2c-0.8-0.5-1.5-1.2-2.1-2V9h-5.4V8.2
	c-0.6,0.7-1.2,1.2-1.9,1.7c-0.2-0.3-0.6-0.8-0.9-1.1c0.8-0.5,1.6-1.2,2.2-2l-2.3,0.4l-0.2-1.1l2.6-0.3l0.1,0.8
	c0.2-0.3,0.4-0.7,0.6-1L58.4,4.2z M60.3,13.2c-0.7,1.2-1.7,2.5-2.5,3.4c-0.3-0.3-1-0.7-1.3-0.9c0.8-0.8,1.7-2,2.3-3L60.3,13.2
	L60.3,13.2z M63.1,11.9v5.4h-1.6v-5.4h-3.7v-1.4h9v1.4H63.1L63.1,11.9z M60.4,4.4c0.2-0.5,0.4-1,0.6-1.5h-1.8
	C59.1,3,59.1,3.2,59,3.3L60.4,4.4z M64.8,7.6c-1-1.4-1.8-3.2-2.3-5c-0.5,2-1.4,3.7-2.4,5H64.8z M63.8,2.5c0.3,0.8,0.6,1.5,0.9,2.3
	c0.4-0.7,0.9-1.5,1.2-2.3H63.8L63.8,2.5z M65.5,12.5c0.8,1,2,2.3,2.5,3.1l-1.3,0.9c-0.5-0.8-1.6-2.2-2.5-3.2L65.5,12.5L65.5,12.5z
	 M85.4,5.5v1.3h-3.1l-0.1,1.6H71.8L72,6.8h-2.9V5.5h3L72.3,4h10.2l-0.1,1.5H85.4L85.4,5.5z M79.9,14.8c1.8,0.5,3.7,1.1,5,1.5
	l-1.1,1.1c-1.3-0.5-3.4-1.2-5.5-1.8l0.7-0.8h-3.7l1.1,0.7c-1.5,0.8-4,1.5-6,1.8c-0.2-0.3-0.6-0.9-0.9-1.2c1.8-0.2,3.9-0.8,5.2-1.4
	h-3.1V9h11.6v5.9H79.9L79.9,14.8z M71.2,4.9h-1.5V1.9h6.8C76.3,1.5,76,1,75.8,0.6l1.5-0.4c0.4,0.5,0.7,1.2,1,1.7h6.6V5h-1.6V3.3h-12
	L71.2,4.9L71.2,4.9z M73.2,10.6h8.2V9.9h-8.2V10.6z M73.2,12.2h8.2v-0.7h-8.2V12.2z M73.2,13.9h8.2v-0.7h-8.2V13.9z M73.5,6.6
	l-0.1,0.8h3l0.3-2.4h-2.9l-0.1,0.7h7.2l0.1-0.7h-2.9l-0.2,2.4h2.9h0l0.1-0.8H73.5z M93.4,14.4c-1.3,1-3.5,2-5.4,2.4
	c-0.2-0.4-0.7-1-1-1.3c1.8-0.3,4-1,5.2-1.7L93.4,14.4L93.4,14.4z M88.8,10.5V9.2l12.6,0v1.3L88.8,10.5z M87.1,13.1v-1.5l15.9,0l0,0
	v1.5H87.1z M95.7,17.4h-1.6V8.1h-6.2V6.7h3.6c-0.2-0.5-0.5-1.1-0.8-1.6l1.1-0.3h-4.6V3.5h2.7C89.6,2.8,89,1.8,88.5,1L90,0.5
	c0.6,0.8,1.2,1.9,1.5,2.6l-1,0.4h2V0.3h1.6v3.2h1.8V0.3h1.6v3.2h2l-0.7-0.2c0.4-0.7,1-1.9,1.3-2.7l1.7,0.5c-0.5,0.9-1,1.8-1.5,2.5
	h2.6v1.4h-4.8l1.4,0.4c-0.4,0.6-0.8,1.1-1.2,1.5h3.9v1.4h-6.4L95.7,17.4z M92.4,4.9c0.4,0.5,0.7,1.2,0.9,1.6l-0.8,0.2h5l-0.7-0.2
	c0.3-0.5,0.8-1.2,1-1.7L92.4,4.9L92.4,4.9z M97.8,13.7c1.6,0.6,3.8,1.5,5,2.1l-1.1,1c-1.1-0.6-3.3-1.6-5-2.2L97.8,13.7z M111.1,0
	l1.4,0.7c-4.4,5-4.4,11.4,0,16.4l-1.4,0.7C106.3,12.8,106.4,4.9,111.1,0z M119.3,15.3c0,1.9-1,1.9-2.9,1.9c-0.1-0.4-0.2-1.2-0.4-1.6
	c0.9-0.1,1.7,0.4,1.8-0.3v-4.4L116,12l-0.5-1.2c-0.1,2.3-0.5,4.8-1.2,6.6c-0.3-0.3-1-0.7-1.4-0.8C114,14,114,10.8,114,1h5.3
	L119.3,15.3L119.3,15.3z M115.5,10.4c0.6-0.3,1.5-0.6,2.3-1V7.3l-0.7,0.6c-0.4-0.5-1-1.3-1.6-1.9C115.5,6,115.5,9.4,115.5,10.4z
	 M115.5,2.6v2.6l0.6-0.4c0.6,0.5,1.2,1.2,1.7,1.7V2.6H115.5z M129,8.8c-0.6,2.3-1.7,4.1-3.2,5.5c1.1,0.7,2.3,1.3,3.8,1.7
	c-0.4,0.4-0.9,1-1.1,1.5c-1.5-0.4-2.9-1.1-4-2c-1.2,0.9-2.6,1.5-4.1,2c-0.2-0.5-0.6-1.1-0.9-1.5c1.4-0.4,2.7-0.9,3.8-1.6
	c-1.1-1.1-1.9-2.5-2.6-4l0.6-0.2h-1.1V8.4h7.5l0.3-0.1L129,8.8L129,8.8z M120.5,8c-0.2-0.3-0.8-1-1.1-1.2c2.2-1.2,2.3-2.3,2.3-5.8
	h5.7v4.1c-0.2,1.2,1.3,0.6,1.9,0.6l0.1,1.4c-1.7,0.2-4,0.5-3.7-2V2.6h-2.6C123.3,4.3,123.2,6.5,120.5,8z M122.2,10
	c0.5,1.2,1.3,2.3,2.3,3.2c1-0.9,1.8-1.9,2.3-3.2H122.2z M131.4,17.7L130,17c4.4-5,4.5-11.4,0-16.4l1.4-0.7
	C136.2,4.8,136.1,12.9,131.4,17.7z"/>
</svg>
