<svg width="295" height="55" viewBox="0 0 295 55" fill="none" xmlns="http://www.w3.org/2000/svg">
<path d="M6.55751 24.7492C6.50361 24.7338 6.41892 24.78 6.37272 24.8185C6.15713 25.0341 5.95693 25.2651 5.74133 25.473C5.71053 25.5038 5.61816 25.5346 5.57967 25.5192C5.53347 25.4884 5.47186 25.4114 5.47956 25.3575C5.49496 25.0726 5.47185 24.7646 5.56425 24.4951C5.73365 24.0177 5.54117 23.6635 5.29478 23.3094C5.22548 23.2016 5.14078 23.1015 5.05608 23.0091C4.97139 22.9167 4.87899 22.7935 4.77119 22.7781C4.4247 22.7319 4.06279 22.6164 3.7394 22.8859C3.7009 22.9167 3.55458 22.8705 3.52378 22.8243C3.45448 22.7165 3.43139 22.5856 3.38519 22.4701C3.34669 22.3854 3.2928 22.3007 3.2466 22.216C3.2004 22.2314 3.15421 22.2468 3.10801 22.2622C3.16191 22.4932 3.20813 22.7242 3.27743 22.9475C3.36213 23.2247 3.3621 23.4633 3.2004 23.7174C3.08491 23.9099 3.0002 24.164 3.0002 24.3873C2.9925 24.6337 3.14652 24.8878 3.12342 25.1265C3.03103 25.8888 2.87701 26.6434 2.76151 27.4056C2.66911 28.0062 2.58442 28.5991 2.53052 29.1997C2.50742 29.4461 2.67685 29.7233 2.60755 29.9466C2.53055 30.2007 2.49204 30.3932 2.59214 30.6473C2.71533 30.9322 2.73844 31.2632 2.83853 31.5635C2.89243 31.7329 3.00022 31.8253 3.20811 31.679C3.34671 31.5789 3.5238 31.4942 3.68549 31.4634C3.94729 31.4249 4.23217 31.4634 4.49397 31.4249C4.74806 31.3941 5.10226 31.3941 5.22546 31.2324C5.44875 30.9322 5.58737 31.0708 5.77987 31.2094C5.84147 31.2556 5.91844 31.294 5.99544 31.3171C6.50363 31.4326 7.0118 31.4634 7.51999 31.3171C7.65088 31.2786 7.78179 31.2402 7.92039 31.2171C8.56717 31.1324 9.03685 30.655 9.06765 30.0082C9.07535 29.8773 9.03689 29.7156 8.95989 29.6078C8.7982 29.3922 8.59797 29.1997 8.44397 29.038C8.55947 28.7685 8.65958 28.5298 8.75198 28.2988C8.81358 28.1448 8.82127 27.9369 8.92906 27.8522C9.26016 27.5904 9.02145 27.3363 8.96755 27.0823C8.95985 27.0207 8.91368 26.9745 8.89828 26.9206C8.70579 26.0505 8.06671 25.5038 7.41222 25.0033C7.18893 24.8339 6.8501 24.8185 6.55751 24.7492ZM10.5922 33.7272C10.0918 34.1815 9.62974 34.6666 9.16776 35.1517C8.09748 36.2527 7.03493 37.3538 5.96466 38.4472C5.72596 38.6936 5.57967 38.6859 5.39488 38.3933C5.07919 37.9082 4.75579 37.4308 4.4786 36.9149C4.17831 36.3682 3.93961 35.783 3.65471 35.2287C3.53922 34.9977 3.4083 34.759 3.00791 34.7513C3.00791 34.9438 2.98481 35.1132 3.00791 35.2748C3.08491 35.7522 3.21582 36.2142 3.26972 36.6916C3.32362 37.2383 3.5392 37.8081 3.25431 38.3471C3.13111 38.5781 3.11571 38.8091 3.10801 39.0632C3.09261 39.479 3.20812 39.8947 2.97713 40.3105C2.76923 40.6878 2.64602 41.1113 2.47662 41.5194C2.30722 41.9198 2.11472 42.3125 1.98382 42.7283C1.93762 42.8592 2.04544 43.0748 2.14553 43.2057C2.24563 43.3366 2.43811 43.3982 2.56131 43.5214C2.8693 43.8601 3.16963 44.2143 3.46992 44.5531C3.60852 44.5223 3.7471 44.5146 3.8395 44.5839C4.07819 44.7533 4.3092 44.9381 4.5248 45.1383C4.65569 45.2538 4.74037 45.3 4.94057 45.2307C5.17926 45.1537 5.45646 45.1922 5.71826 45.1845C5.74136 45.1845 5.76444 45.223 5.79524 45.2307C5.87223 45.2538 5.95694 45.2692 6.04164 45.2846C6.16483 45.3 6.28802 45.3308 6.41892 45.3308C6.54981 45.3308 6.72691 45.3539 6.80391 45.2846C7.0811 45.0305 7.41989 44.9997 7.75868 44.9304C7.84338 44.915 7.9435 44.838 7.97429 44.761C8.08209 44.4915 8.2977 44.4761 8.521 44.5223C8.96759 44.6147 9.38337 44.3991 9.52196 43.9602C9.61436 43.6445 9.71443 43.3366 9.78373 43.0132C9.80683 42.9054 9.78376 42.736 9.72217 42.6667C9.49887 42.4588 9.32178 42.2278 9.14468 41.9737C8.91369 41.6349 8.85209 41.4193 9.09848 41.1113C9.16008 41.0343 9.18316 40.9342 9.22166 40.8418C9.31406 40.58 9.37565 40.2951 9.50655 40.0564C9.65285 39.7946 9.78374 39.5636 9.59894 39.2788C9.57584 39.2403 9.59895 39.1633 9.60665 39.1094C9.72985 38.709 9.85307 38.3163 9.96857 37.9698C9.89157 37.8158 9.82227 37.6772 9.72987 37.4847C9.27559 37.9621 8.83666 38.4241 8.39007 38.8938C8.36697 38.8784 8.35156 38.863 8.33616 38.8553C8.56716 38.4549 8.79817 38.0468 9.02917 37.6464C8.99067 37.6156 8.95219 37.5925 8.90599 37.5694C8.4594 38.0622 8.0205 38.555 7.54311 39.0863C7.60471 39.2634 7.68169 39.479 7.76638 39.7253C7.67399 39.8331 7.5508 40.0872 7.3891 40.1026C7.24281 40.1257 7.058 39.9024 6.8963 39.7792C6.69611 39.6329 6.69614 39.4405 6.83474 39.2557C7.06573 38.9554 7.29673 38.6474 7.55852 38.3702C7.93581 37.9852 8.36698 37.6387 8.73657 37.246C9.50655 36.4298 10.2612 35.5982 11.0234 34.7667C11.0696 34.7128 11.1389 34.6281 11.1312 34.5665C11.0773 34.2277 11.2544 33.9813 11.4469 33.7426C11.6009 33.5578 11.5778 33.4115 11.4469 33.2267C11.162 33.3961 10.854 33.5193 10.623 33.7272M3.90877 18.3507C3.78558 18.2429 3.70862 18.1582 3.61622 18.0889C3.23893 17.7963 2.86162 17.5037 2.48433 17.2111C2.45353 17.188 2.43812 17.1495 2.43042 17.111C2.34572 16.7799 2.09932 16.572 1.89143 16.3179C1.76053 16.1639 1.48336 15.9637 1.82215 15.7096C1.87605 15.6711 1.86067 15.5402 1.88377 15.4555C1.90687 15.3631 1.91452 15.2399 1.98382 15.186C2.28411 14.9089 2.59212 14.6471 2.91551 14.3853C3.03101 14.2929 3.16193 14.2775 3.23123 14.4469C3.45453 14.9705 3.80872 15.3554 4.34001 15.5556C4.5402 15.6249 4.59408 15.7327 4.55558 15.9406C4.47858 16.3949 4.3862 16.8415 4.6249 17.2881C4.67109 17.3651 4.55559 17.5191 4.5248 17.6423C4.494 17.727 4.43238 17.8348 4.46318 17.8964C4.58638 18.2275 4.71727 18.5509 4.88666 18.8589C4.96366 18.9898 5.12535 19.0899 5.26395 19.1668C5.40254 19.2361 5.57197 19.2361 5.72596 19.2823C6.13405 19.4132 6.52675 19.4363 6.88864 19.1284C7.06574 18.9744 7.21199 18.6202 7.18119 18.3892C7.15039 18.1582 7.07343 17.8733 7.17353 17.6962C7.37373 17.3035 7.47383 16.8492 7.85112 16.5643C7.91272 16.5181 8.00508 16.4642 8.01278 16.4026C8.08978 15.9098 8.1745 15.4093 8.22069 14.9166C8.22839 14.7934 8.1283 14.624 8.0282 14.5316C7.65861 14.2159 7.44299 13.8309 7.42759 13.3381C7.41989 13.1379 7.41989 12.8992 7.32749 12.7298C7.15809 12.391 6.92714 12.0676 6.69615 11.7519C6.58835 11.5979 5.75674 11.3746 5.60274 11.4747C5.21775 11.7365 4.80965 11.6287 4.44006 11.4978C3.98577 11.3361 3.60849 11.4978 3.2466 11.6672C2.89241 11.8212 2.59215 12.0984 2.26876 12.3217C2.09936 12.4372 1.87602 12.5065 1.74513 12.6528C1.53723 12.8915 1.39863 13.1841 1.21384 13.4459C0.944346 13.8386 0.659455 14.2159 0.397661 14.6163C0.328363 14.7241 0.2822 14.8781 0.2899 15.0013C0.359198 15.5402 0.382301 16.0946 0.774991 16.5335C0.805791 16.572 0.798081 16.649 0.813481 16.7029C0.928978 17.0956 1.02139 17.496 1.15998 17.8733C1.26008 18.1505 1.55264 18.2583 1.85294 18.2044C1.93763 18.189 2.04542 18.2044 2.13012 18.2352C2.6845 18.4816 3.2543 18.5817 3.92419 18.3353M27.6781 48.0334C27.6781 48.0334 27.7166 47.9795 27.7397 47.9487C27.8167 47.9333 27.8937 47.9179 28.0169 47.8948C27.9245 47.7177 27.8398 47.5714 27.7628 47.4175C27.5934 47.0941 27.424 46.7707 27.2546 46.4473C26.9081 45.8082 27.116 45.1152 27.0467 44.4453C27.0082 44.0295 27.1314 43.5983 27.1853 43.1672C27.2007 43.0594 27.2238 42.9516 27.2315 42.8438C27.2777 42.4434 27.3085 42.043 27.3701 41.6426C27.424 41.3192 27.5626 41.0112 27.3778 40.6801C27.3162 40.5646 27.3239 40.4106 27.3162 40.2643C27.3008 39.9871 27.3162 39.7099 27.3008 39.4327C27.2777 38.9708 27.2315 38.5088 27.2315 38.0468C27.2161 37.1613 27.2392 36.2681 27.2161 35.375C27.2007 34.9207 27.0698 34.4664 27.0544 34.0044C27.0082 32.9033 26.9774 31.8022 26.9543 30.7012C26.9543 30.5164 27.0005 30.3316 27.0313 30.116C27.2315 30.1622 27.4009 30.193 27.5318 30.2161C27.6011 30.0544 27.7166 29.9235 27.7089 29.7926C27.6935 29.5308 27.655 29.2536 27.5318 29.0226C27.3316 28.6145 27.2161 28.2064 27.2777 27.7521C27.347 27.2593 27.0544 26.9899 26.6617 26.7666C26.5232 26.6819 26.423 26.5433 26.3075 26.4278C26.0919 26.2122 25.8994 25.9812 25.6684 25.781C25.5298 25.6578 25.3835 25.5808 25.4682 25.3421C25.4913 25.2728 25.3758 25.088 25.2835 25.0649C24.9524 24.9571 24.6136 24.8416 24.2671 24.8185C23.9052 24.7954 23.5048 24.7954 23.1737 24.9263C22.6578 25.1419 22.1882 25.473 21.7031 25.7579C21.5183 25.8657 21.3412 25.9658 21.1641 26.0813C20.5943 26.4355 20.2016 26.9745 19.7627 27.4749C19.5009 27.7675 19.1467 27.8907 18.8156 28.0601C18.446 28.2526 17.9841 28.2834 17.7531 28.7069C17.6453 28.8994 17.4528 29.0765 17.4297 29.2767C17.3758 29.6463 17.2372 30.0621 17.5683 30.3932C17.5837 30.4009 17.576 30.4317 17.5683 30.4471C17.5375 30.9168 17.7223 31.4095 17.4066 31.8407C17.3912 31.8638 17.4066 31.9177 17.4066 31.9562C17.3989 32.1718 17.3603 32.3951 17.3834 32.6107C17.3988 32.834 17.4527 33.0496 17.4912 33.2729C17.5528 33.5655 17.6761 33.8658 17.6684 34.1584C17.6453 34.6589 17.5144 35.1594 17.4682 35.6598C17.4066 36.3759 17.3835 37.0997 17.3296 37.8158C17.2911 38.2624 17.2371 38.7167 17.1909 39.1633C17.1678 39.4481 17.1294 39.733 17.1294 40.0179C17.1294 40.426 17.1832 40.8418 17.1909 41.2499C17.1986 41.5425 17.1909 41.8274 17.1909 42.12C17.1909 42.4203 17.2064 42.7052 16.9369 42.9439C16.8368 43.0363 16.8291 43.2596 16.8291 43.429C16.8522 44.0372 16.8907 44.6455 16.9292 45.2538C16.9446 45.4694 16.96 45.7004 17.0062 45.9083C17.0986 46.3472 17.2218 46.7784 17.3142 47.2173C17.3527 47.3944 17.2911 47.5945 17.3527 47.7485C17.5606 48.2336 17.807 48.7033 18.038 49.1884C18.0919 49.3039 18.1226 49.4348 18.1688 49.5503C18.3074 49.8814 18.4768 50.174 18.8079 50.3896C19.2083 50.6591 19.6549 50.8362 20.0168 51.1981C20.3171 51.4907 20.6174 51.9911 21.2026 51.7678C21.2257 51.7678 21.2641 51.7755 21.2872 51.7909C21.7415 52.1297 22.2189 52.0065 22.6963 51.8756C23.0197 51.7909 23.1121 51.6292 23.0736 51.2982C23.0582 51.175 23.0736 51.0518 23.0428 50.9363C22.9427 50.5282 22.8426 50.1278 22.7194 49.7274C22.7041 49.6504 22.627 49.5503 22.55 49.5272C22.319 49.4348 22.2959 49.2423 22.2574 49.0421C22.2343 48.9497 22.1882 48.8496 22.1805 48.7572C22.142 48.3953 21.8108 48.0719 22.0033 47.6715C22.1804 47.302 22.0726 47.0094 21.8108 46.7322C21.78 46.7014 21.7801 46.6244 21.7878 46.5628C21.8186 46.3395 21.5799 45.9468 21.3643 45.916C21.0717 45.8852 20.9408 45.6927 20.833 45.454C20.7714 45.3154 20.7175 45.1768 20.6559 45.0382C20.5019 44.6994 20.2863 44.3837 20.1939 44.0295C20.0707 43.5521 20.1015 43.0286 19.9398 42.5666C19.7704 42.0969 19.755 41.6195 19.7473 41.1498C19.7396 40.7263 19.8705 40.2874 19.9706 39.8639C20.0168 39.6714 20.1631 39.502 20.2093 39.3019C20.2786 38.9631 20.3171 38.6166 20.3479 38.2701C20.3633 38.1238 20.5173 37.9698 20.3479 37.8081C20.3325 37.7927 20.4403 37.6541 20.4865 37.5771C20.5558 37.4616 20.6559 37.3538 20.6944 37.2229C20.7483 37.015 20.7329 36.784 20.7868 36.5761C20.8792 36.2219 20.9793 35.8677 21.1179 35.5289C21.218 35.2748 21.3489 35.0208 21.5106 34.7975C21.6338 34.6204 21.8186 34.6743 21.8417 34.8976C21.8725 35.2595 22.2574 35.5443 22.0649 35.9524C22.0572 35.9755 22.1111 36.0217 22.1958 36.1295C22.2651 35.937 22.3575 35.8061 22.3498 35.6752C22.3113 35.1517 22.4884 34.605 22.1805 34.066C22.55 34.2123 22.8811 34.3432 23.2122 34.4741C23.2738 34.4972 23.32 34.5973 23.3123 34.6897C23.2815 34.9592 23.1814 35.2287 23.2045 35.4904C23.2892 36.3913 22.9427 37.2306 22.8195 38.1007C22.7734 38.4087 22.704 38.6859 23.0043 39.0016C22.8349 39.0247 22.6578 39.0786 22.6347 39.0478C22.5577 38.9092 22.5038 38.7475 22.4884 38.5935C22.4576 38.3933 22.5038 38.1854 22.473 37.9929C22.4653 37.9082 22.3575 37.785 22.2651 37.7696C21.9571 37.7003 21.8724 37.5925 21.9186 37.2768C21.9417 37.1305 21.9417 36.9919 21.9571 36.8456C21.9109 36.8456 21.857 36.8302 21.8108 36.8225C21.7569 37.0458 21.6954 37.2691 21.6569 37.5001C21.6261 37.6541 21.6568 37.8235 21.626 37.9775C21.5336 38.3471 21.6261 38.6551 21.9341 38.9169C22.0803 39.0401 22.2189 39.1787 22.165 39.4251C22.0957 39.7946 22.0264 40.1796 22.0572 40.5492C22.088 40.8649 22.1728 41.2345 22.3729 41.4578C22.7579 41.8967 22.9196 42.428 23.1275 42.9439C23.1891 43.0902 23.1737 43.3058 23.2738 43.4059C23.5818 43.6984 23.9129 43.9756 24.2594 44.222C24.6213 44.4761 24.7522 44.7379 24.5828 45.1229C24.4904 45.3308 24.4673 45.5002 24.552 45.7158C24.5905 45.8236 24.5058 45.9853 24.475 46.1239C24.4442 46.2471 24.3672 46.3703 24.3826 46.4781C24.4211 46.8092 24.3826 46.8862 24.0438 46.9555C23.5279 47.0633 23.0813 46.8015 22.6193 46.6321C22.5116 46.5936 22.3883 46.5551 22.2267 46.4935C22.4037 46.7784 22.5731 46.9709 22.6424 47.1942C22.704 47.4021 22.6501 47.6484 22.6501 47.8717C22.6809 47.8717 22.7194 47.8794 22.7425 47.8871C22.8041 47.5945 23.2122 47.4637 23.0659 47.0402C23.2276 47.0787 23.3662 47.1172 23.5741 47.1711C23.4278 47.302 23.3354 47.379 23.2661 47.4406C23.5433 47.7023 23.8128 47.941 24.0669 48.2028C24.1593 48.2952 24.2055 48.48 24.3056 48.5185C24.6829 48.6494 24.7291 48.9959 24.7907 49.2808C24.9216 49.8506 25.245 50.251 25.7917 50.3896C25.861 50.405 25.9225 50.4974 25.961 50.5667C26.2074 51.021 26.808 51.2366 27.2777 50.9979C27.5549 50.8593 27.8013 50.6437 28.0708 50.4897C28.3403 50.3357 28.4635 50.1124 28.4789 49.8121C28.4789 49.7659 28.502 49.712 28.5174 49.6658C28.6868 49.2654 28.4943 48.6802 28.1324 48.4338C27.963 48.3183 27.8244 48.1412 27.6781 47.9872M23.5279 33.7041C23.4278 33.6425 23.3277 33.5501 23.2815 33.45C23.1275 33.1497 22.9966 32.8263 22.858 32.5183C22.8734 32.4952 22.8811 32.4798 22.8965 32.4567C22.9735 32.5029 23.0582 32.5414 23.1352 32.5876C23.2122 32.6338 23.2738 32.7031 23.3585 32.7416C23.4586 32.7955 23.6357 32.8186 23.6511 32.8802C23.705 33.1266 23.7127 33.3807 23.7204 33.6348C23.7204 33.6579 23.5664 33.7195 23.5279 33.6964M24.0669 38.7321C23.5202 38.6012 23.4894 38.5242 23.6742 37.8081C24.0361 37.8004 24.2517 38.2932 24.0669 38.7321ZM24.4442 31.5404C24.3826 31.7252 24.2363 31.8946 24.1131 32.0563C24.0207 32.1795 23.8205 32.1102 23.7666 31.9485C23.6357 31.5635 23.4432 31.2479 22.9966 31.1632C22.781 31.1247 22.5501 31.04 22.3807 30.9091C22.1035 30.7012 21.8956 30.9245 21.6646 30.963C21.4259 31.0015 21.1949 31.0477 20.9562 31.0862C21.0101 30.6781 21.0486 30.3701 21.0871 30.0236C21.757 29.6386 22.3806 29.115 22.9658 28.5375C23.0197 28.4836 23.1583 28.4297 23.1891 28.4528C23.4663 28.6838 23.8975 28.73 24.0515 29.1381C24.09 29.2536 24.2748 29.3075 24.3287 29.423C24.6367 30.1083 24.6752 30.8167 24.4442 31.525M97.2382 24.7723C97.2459 24.5798 97.1612 24.4797 96.9533 24.4797C96.7223 24.4797 96.6376 24.6029 96.6145 24.9186C96.6915 24.9648 96.7993 25.088 96.9225 25.1034C97.115 25.1188 97.2305 24.9802 97.2382 24.78M114.617 30.6704C114.386 30.4009 114.132 30.1391 113.885 29.8773C113.662 29.6386 113.423 29.4307 113.077 29.3999C113.03 29.3999 112.984 29.3614 112.946 29.3306C112.569 28.9379 112.361 28.8532 111.929 29.0996C111.437 29.3768 110.928 29.346 110.413 29.2921C110.197 29.269 110.174 29.3922 110.197 29.5462C110.212 29.6155 110.266 29.6925 110.312 29.7541C110.49 29.962 110.428 30.1237 110.212 30.2392C109.943 30.3855 109.666 30.5164 109.389 30.655C109.158 30.3239 109.258 29.9466 109.188 29.6001C108.98 28.5529 109.45 27.9908 110.259 27.4749C110.605 27.2516 110.813 26.8975 110.905 26.5587C111.036 26.4971 111.183 26.4817 111.229 26.397C111.414 26.1275 111.598 25.8503 111.698 25.55C111.752 25.396 111.629 25.1804 111.591 24.9879C111.552 24.9879 111.498 24.9879 111.46 24.9879C111.29 25.2959 111.113 25.6116 110.952 25.9119C110.774 25.781 110.644 25.6809 110.513 25.5808C110.397 25.4961 110.397 25.4345 110.528 25.3344C110.836 25.088 111.136 24.8262 111.421 24.549C111.598 24.3719 111.568 24.0793 111.352 23.9792C111.152 23.8791 110.867 23.7867 110.674 23.8483C110.389 23.9407 110.12 23.9561 109.827 23.9407C109.604 23.933 109.55 23.8252 109.566 23.6327C109.589 23.394 109.635 23.1554 109.643 22.9167C109.643 22.6549 109.681 22.5009 109.981 22.6857C110.028 22.7088 110.135 22.7011 110.166 22.6626C110.197 22.6318 110.182 22.5394 110.166 22.4778C110.143 22.4008 110.043 22.3084 110.066 22.2545C110.135 22.0697 110.235 21.8849 110.343 21.7155C110.713 21.1303 110.613 20.7761 109.989 20.4604C109.827 20.3757 109.743 20.2833 109.812 20.0831C109.927 19.7289 109.773 19.4517 109.519 19.2054C109.365 19.0591 109.25 18.8743 109.111 18.7126C109.034 18.6279 108.942 18.5124 108.857 18.5047C108.657 18.5047 108.234 18.959 108.18 19.1592C108.157 19.2515 108.126 19.3901 108.056 19.4132C107.602 19.5903 107.541 20.0292 107.456 20.3911C107.387 20.6529 107.433 21.0148 107.564 21.2458C107.772 21.6 107.849 21.9311 107.833 22.3315C107.81 22.9244 107.825 23.5172 107.795 24.1101C107.795 24.2256 107.702 24.3873 107.61 24.4412C107.179 24.6953 106.717 24.9032 106.285 25.165C105.9 25.396 105.539 25.6655 105.184 25.9427C104.869 26.1891 104.576 26.4509 104.291 26.7281C103.768 27.2593 103.267 27.8214 102.728 28.345C102.12 28.9533 101.481 29.5462 100.857 30.1314C100.749 30.2315 100.603 30.2931 100.472 30.3624C100.472 30.2315 100.472 30.1006 100.464 29.9697C100.464 29.9389 100.449 29.9081 100.449 29.885C100.418 29.4769 100.357 29.0688 100.364 28.6607C100.38 28.2526 100.364 27.883 100.11 27.5211C99.9485 27.2978 99.756 27.0284 100.072 26.7127C100.218 26.5741 100.303 26.32 100.318 26.1121C100.349 25.7117 100.595 25.4422 100.819 25.1573C101.127 24.7723 101.465 24.4104 101.766 24.0254C101.92 23.8406 102.027 23.625 102.151 23.4171C102.228 23.294 102.312 23.2401 102.474 23.3094C102.69 23.4017 102.813 23.2093 102.782 23.063C102.69 22.6318 102.851 22.2468 102.951 21.8387C103.136 21.0918 103.652 20.5836 104.23 20.1447C104.538 19.9137 104.915 19.7674 105.261 19.6057C105.731 19.3901 106.208 19.1899 106.686 19.0052C106.917 18.9128 107.194 18.9051 107.394 18.7819C107.664 18.6125 107.887 18.3661 108.126 18.1505C108.218 18.0658 108.318 17.9811 108.395 17.881C108.48 17.7732 108.572 17.6654 108.626 17.5422C108.734 17.3035 108.803 17.0494 108.903 16.803C108.996 16.572 109.219 16.3333 109.188 16.1408C109.127 15.8174 108.973 15.4401 108.726 15.2399C108.364 14.9397 107.872 14.8396 107.41 15.1091C107.132 15.2707 106.886 15.4863 106.624 15.6788C106.54 15.5864 106.478 15.5171 106.455 15.494C106.362 15.6403 106.255 15.7789 106.185 15.9252C106.093 16.1331 105.962 16.1023 105.823 16.0022C105.693 15.9098 105.546 15.8174 105.7 15.6172C105.754 15.5479 105.746 15.4401 105.77 15.3477C105.546 15.5094 105.377 15.6865 105.223 15.8636C105.2 15.8944 105.192 15.9714 105.208 16.0099C105.377 16.4796 105.007 16.7183 104.769 17.0109C104.699 17.0956 104.615 17.1957 104.607 17.2958C104.599 17.6423 104.607 17.9811 104.622 18.3276C104.645 18.6741 104.499 18.9359 104.276 19.1746C103.806 19.6673 103.344 20.1601 102.867 20.6375C102.79 20.7145 102.613 20.7915 102.528 20.753C102.436 20.7145 102.359 20.5528 102.343 20.445C102.32 20.137 102.343 19.8213 102.328 19.5133C102.305 19.0745 102.451 18.7357 102.844 18.5047C103.121 18.3353 103.383 18.1428 103.668 17.9426C103.544 17.8502 103.467 17.7886 103.444 17.7809C103.46 17.5422 103.544 17.3189 103.467 17.2188C103.398 17.1187 103.152 17.1572 102.951 17.1264C102.736 16.6952 102.69 16.2101 102.882 15.6942C102.998 15.3708 103.013 15.009 103.136 14.6856C103.313 14.2467 103.475 13.7847 103.976 13.5614C104.384 13.3766 104.769 13.1225 105.177 12.9531C105.523 12.8068 105.9 12.6066 106.247 12.6374C106.925 12.7067 107.471 12.4372 108.049 12.1908C108.141 12.1523 108.226 12.0599 108.295 11.9829C108.464 11.7827 108.411 11.6287 108.164 11.5671C107.995 11.5286 107.825 11.5132 107.664 11.467C107.587 11.4439 107.525 11.3669 107.456 11.313C107.517 11.2591 107.564 11.1821 107.633 11.1513C107.787 11.0666 107.949 10.9974 108.126 10.9204C107.972 10.6355 108.164 10.4353 108.334 10.2505C108.441 10.135 108.495 10.0272 108.326 9.98868C108.041 9.91168 107.741 9.86548 107.448 9.85008C107.063 9.82698 106.67 9.85778 106.278 9.85008C106.054 9.85008 105.831 9.78848 105.608 9.76538C105.477 9.74998 105.338 9.76538 105.177 9.76538C105.377 10.3044 105.323 10.4045 104.853 10.5354C104.799 10.5508 104.738 10.5816 104.692 10.6047C104.514 10.6817 104.337 10.7818 104.153 10.828C104.099 10.8434 103.945 10.7048 103.945 10.6355C103.937 10.4276 103.983 10.2197 103.999 10.0118C104.014 9.81928 104.106 9.72688 104.307 9.67299C104.507 9.61909 104.684 9.47279 104.861 9.36499C105 9.28029 105.154 9.0955 105.254 9.1186C105.508 9.1879 105.492 9.0339 105.531 8.89531C105.554 8.81061 105.585 8.69511 105.646 8.64891C105.947 8.41021 106.255 8.19462 106.555 7.97133C106.601 7.94053 106.663 7.86353 106.655 7.84043C106.555 7.57094 106.747 7.44004 106.886 7.27065C106.932 7.21675 106.963 7.11665 106.94 7.05505C106.855 6.84715 106.971 6.75476 107.109 6.62386C107.202 6.53146 107.279 6.35437 107.263 6.22347C107.248 6.07717 107.14 5.93088 107.055 5.79998C106.94 5.63059 106.94 5.53819 107.171 5.49199C107.248 5.47659 107.363 5.33029 107.348 5.26869C107.256 4.8683 107.009 4.55261 106.632 4.40632C106.108 4.20612 105.631 4.40632 105.177 4.64501C105.03 4.72201 104.953 4.72201 104.884 4.59881C104.653 4.17532 104.307 3.87503 103.906 3.61324C103.86 3.59014 103.845 3.49774 103.822 3.44384C103.891 3.42074 103.968 3.35914 104.029 3.37454C104.314 3.47464 104.599 3.60553 104.884 3.71333C104.946 3.73643 105.015 3.75953 105.092 3.78263C105.092 3.52084 105.061 3.29754 105.1 3.08965C105.161 2.80476 105.107 2.60456 104.823 2.51216C104.499 2.40437 104.168 2.31197 103.829 2.27347C103.614 2.24267 103.475 2.23497 103.452 1.97318C103.429 1.81148 103.321 1.64978 103.259 1.48809C103.259 1.47269 103.313 1.42649 103.306 1.41879C103.213 1.28019 103.129 1.1185 103.005 1.0107C102.959 0.9722 102.797 1.0107 102.705 1.0646C102.551 1.1416 102.412 1.25709 102.212 1.38799C102.335 1.50349 102.482 1.66518 102.636 1.79608C102.813 1.93468 103.005 2.05017 103.221 2.18877C102.951 2.38896 102.751 2.61996 102.505 2.70466C102.135 2.83555 101.966 3.10505 101.812 3.42844C101.758 3.53624 101.666 3.65173 101.558 3.70563C101.265 3.87503 100.842 3.85963 100.757 4.32932C100.457 3.98283 100.434 3.78263 100.665 3.42844C100.557 3.37454 100.449 3.32064 100.349 3.27444C100.326 3.38994 100.287 3.51314 100.287 3.62864C100.295 3.76723 100.341 3.89813 100.372 4.03672C100.434 4.33702 100.495 4.64501 100.565 4.9453C100.634 4.876 100.649 4.799 100.665 4.72971C100.68 4.65271 100.695 4.57571 100.703 4.50641C101.196 4.55261 101.211 4.53721 101.381 4.9376C101.473 5.1686 101.488 5.43039 101.535 5.68448C101.55 5.76918 101.535 5.86928 101.558 5.94628C101.75 6.46986 101.535 6.99345 101.034 7.25525C100.38 7.60174 99.7406 7.97133 99.0784 8.30242C98.7089 8.48722 98.3162 8.61811 97.9312 8.74131C97.731 8.80291 97.5385 8.72591 97.4769 8.50261C97.3922 8.19462 97.2767 7.91743 96.9918 7.73263C96.9456 7.70183 96.9148 7.60174 96.9302 7.55554C96.9456 7.50934 97.0303 7.45544 97.0919 7.44774C97.1997 7.43234 97.3229 7.44774 97.4923 7.44774C97.346 7.19365 97.2074 7.05505 96.961 7.00115C96.7608 6.95495 96.5683 6.82406 96.3681 6.77786C96.1679 6.73166 95.8753 6.64696 95.7598 6.73936C95.4903 6.95495 95.1977 7.21674 95.2747 7.64793C95.2978 7.79423 95.2285 7.82503 95.0745 7.87123C94.805 7.94823 94.5279 8.05602 94.3123 8.22542C94.1737 8.33322 94.0659 8.57191 94.0659 8.74901C94.0659 9.74228 94.4046 10.597 95.2131 11.2129C95.2901 11.2668 95.3979 11.313 95.4827 11.3053C96.1294 11.2822 96.6915 11.467 97.1689 11.9136C97.423 12.1369 97.8157 12.0907 98.0005 11.8058C98.116 11.6364 98.2391 11.5902 98.4316 11.6518C98.7242 11.7519 98.9168 11.6287 98.9399 11.3284C98.963 11.0205 99.0091 10.6894 98.9244 10.3968C98.7704 9.88088 99.0246 9.53439 99.371 9.28799C99.8561 8.9569 100.318 8.55651 100.965 8.51801C101.265 8.50261 101.535 8.64121 101.558 8.9261C101.596 9.33419 101.481 9.65759 101.157 9.96558C100.896 10.212 100.749 10.5816 100.572 10.9127C100.387 11.2591 100.28 11.6595 100.049 11.9598C99.7329 12.3756 99.348 12.7529 98.9476 13.0994C98.4086 13.5614 97.8234 13.9618 97.2536 14.4007C97.2536 14.3699 97.2536 14.3468 97.2382 14.316C97.0611 14.2775 96.8301 14.1543 96.7069 14.2236C96.5298 14.316 96.3989 14.5393 96.3219 14.7395C96.1756 15.1552 95.8984 15.4016 95.498 15.5556C95.0514 15.725 94.6049 15.9021 94.1814 16.1254C93.9427 16.2486 93.7579 16.4796 93.5269 16.6336C93.0187 16.9801 92.9571 17.265 93.396 17.6808C93.8426 18.112 94.2045 18.8281 95.0515 18.5971C95.1054 18.5817 95.1592 18.6356 95.2285 18.6356C95.6597 18.6433 96.114 18.7357 96.4913 18.4123C96.6607 18.2737 96.7762 18.0735 96.9379 17.9272C97.1304 17.7501 97.3383 17.573 97.5616 17.4344C97.7618 17.3112 98.0005 17.2419 98.2161 17.1418C98.2931 17.1033 98.3546 17.0186 98.4239 16.957C98.4085 16.9416 98.3931 16.9262 98.3777 16.9185C98.1929 17.0109 98.0082 17.1033 97.7772 17.2111V16.803C97.6155 16.9493 97.5154 17.0648 97.3922 17.1495C97.3152 17.1957 97.2074 17.2188 97.1227 17.2034C97.0765 17.2034 97.038 17.111 97.0149 17.0879C96.5298 17.2958 96.0832 17.5114 95.6212 17.6885C95.2593 17.8194 95.1438 17.7347 95.036 17.3189C95.4056 17.3497 95.6674 17.1649 95.8984 16.8954C95.9754 16.8107 96.0909 16.7183 96.191 16.7106C96.4297 16.6875 96.5144 16.5874 96.5375 16.3564C96.5606 16.1023 96.7531 16.0022 97.0072 16.0715C97.0842 16.0869 97.1766 16.0715 97.2536 16.0484C97.3999 16.0022 97.5385 15.9252 97.6925 15.8944C97.7618 15.879 97.8465 15.9406 97.9235 15.9714C97.8927 16.0407 97.8773 16.1177 97.8311 16.1716C97.7464 16.2871 97.6463 16.3872 97.5539 16.495C97.6001 16.5412 97.6463 16.5797 97.6925 16.6259C97.7849 16.4873 97.8773 16.341 97.9851 16.2178C98.1853 15.9945 98.3778 15.7558 98.6088 15.5787C98.9399 15.3323 99.2401 15.0552 99.6482 14.9012C100.064 14.7472 100.41 14.4161 100.788 14.1774C100.842 14.1389 100.934 14.1466 101.003 14.1389C101.019 14.2082 101.042 14.2929 101.034 14.3622C100.996 14.7472 100.795 15.0321 100.449 15.2168C100.357 15.2707 100.187 15.4016 100.203 15.4478C100.341 15.802 100.041 15.7173 99.8715 15.7635C99.9177 15.6788 99.9639 15.5864 100.049 15.4324C99.5019 15.6403 99.0168 15.8251 98.5395 16.0099C98.5395 16.033 98.5395 16.0638 98.5472 16.0869C98.909 16.0407 99.271 15.9945 99.7175 15.9329C99.5327 16.0869 99.4018 16.1947 99.2709 16.3102C99.2863 16.3333 99.3094 16.3564 99.3248 16.3795C99.6482 16.1716 99.9716 15.9714 100.303 15.7712C100.364 15.7327 100.457 15.725 100.534 15.7019C100.557 15.7866 100.603 15.8713 100.58 15.9483C100.472 16.495 100.357 17.0417 100.241 17.5961C100.164 17.9349 100.087 18.2737 99.987 18.6125C99.9716 18.6741 99.8407 18.6972 99.7637 18.7357C99.6251 18.343 99.063 18.5047 98.9321 18.0966C98.9244 18.0658 98.8166 18.0504 98.7627 18.0581C98.4085 18.1274 98.0544 18.1813 97.7079 18.2814C97.4692 18.3507 97.4307 18.5509 97.5231 18.7896C97.5693 18.8974 97.5693 19.0591 97.5231 19.1668C97.3691 19.5903 97.0457 19.8752 96.6838 20.1139C96.5144 20.2217 96.5067 20.3372 96.4913 20.5297C96.4682 20.8608 96.4836 21.1534 96.6915 21.4229C96.7223 21.4614 96.6915 21.5384 96.7069 21.6C96.7993 22.1544 96.7839 22.7704 97.5154 22.9398C97.5847 22.9552 97.6617 23.0245 97.7002 23.0861C97.8542 23.3247 98.0621 23.2555 98.2238 23.14C98.5703 22.8859 98.8321 22.5394 99.2247 22.3161C99.5558 22.1313 99.8253 21.8156 100.156 21.523C100.303 21.8849 100.434 22.2083 100.557 22.524C100.634 22.7011 100.603 22.8474 100.434 22.9706C100.126 23.1939 99.8407 23.4479 99.525 23.6635C98.9707 24.0331 98.601 24.549 98.2314 25.0803C98.0928 25.2728 97.962 25.5115 97.7618 25.6116C97.1381 25.9273 96.5991 26.2969 96.2449 26.9437C95.96 27.4672 95.5981 27.9446 95.2747 28.4528C95.0283 28.8378 94.8205 29.2459 94.5587 29.6232C94.2507 30.0698 93.9042 30.4856 93.5885 30.9245C93.4576 31.1093 93.3113 31.1555 93.0957 31.1093C92.626 30.9938 92.164 30.8783 91.6866 30.7936C91.3709 30.732 91.0398 30.7705 90.7318 30.6781C90.2929 30.5472 89.8772 30.4009 89.4152 30.578C89.3459 30.6088 89.138 30.4856 89.1457 30.4471C89.1842 29.9851 89.1996 29.5154 89.3228 29.0688C89.4152 28.7146 89.5076 28.4066 89.3074 28.0601C89.1611 27.7983 89.0148 27.5365 88.9147 27.2593C88.83 27.0207 88.8146 26.7589 88.7453 26.5125C88.6375 26.1429 88.6683 26.0967 89.0225 25.9119C89.5076 25.6578 89.9849 25.3806 90.4392 25.0726C90.701 24.8955 90.6626 24.7646 90.4778 24.4951C90.3931 24.3719 90.3469 24.1409 90.4085 24.01C90.5701 23.6019 90.7703 23.2093 90.9936 22.832C91.0706 22.7011 91.2323 22.6087 91.3632 22.5086C91.4633 22.4316 91.6019 22.4008 91.6789 22.3084C92.0177 21.9157 92.3642 21.5307 92.8493 21.2997C93.0957 21.1842 93.0726 21.0687 92.8416 20.8839C92.549 20.6606 92.2333 20.445 91.9869 20.1755C91.779 19.9445 91.702 19.6057 91.4325 19.3901C91.0783 19.1053 90.7703 18.7665 90.4007 18.5047C90.0697 18.266 89.6616 18.2044 89.2535 18.266C88.984 18.3045 88.7222 18.3661 88.4604 18.4354C88.1755 18.5047 88.0908 18.4585 88.1216 18.1736C88.1601 17.8425 88.3141 17.5114 88.3141 17.1803C88.3064 16.495 88.7761 16.11 89.1534 15.6557C89.1996 15.6018 89.2843 15.5556 89.3536 15.5402C89.7848 15.4632 90.1467 15.263 90.4624 14.9782C90.9397 14.547 91.0168 13.6538 90.5702 13.2688C90.1698 12.93 89.8002 12.5758 89.3074 12.3371C88.8685 12.1292 88.4912 12.1369 88.0754 12.2216C87.675 12.2986 87.4671 12.1523 87.444 11.7365C87.444 11.6672 87.4209 11.6056 87.4132 11.5286C87.3439 10.982 87.2747 10.443 87.2054 9.89628C87.1823 9.72688 87.1822 9.54979 87.1745 9.37269H87.1283C87.1052 9.48819 87.0744 9.60369 87.0513 9.72688C86.6741 9.52669 86.6279 8.9184 86.9512 8.50261C86.9974 8.71051 87.0359 8.88761 87.0744 9.057C87.1129 8.9184 87.0667 8.79521 87.0975 8.69511C87.1668 8.49491 87.0975 8.39482 86.9512 8.27162C86.8049 8.14842 86.6278 7.96363 86.6047 7.78653C86.5508 7.35534 86.5354 7.29374 86.1119 7.23985C86.0426 7.23215 85.9657 7.23215 85.9041 7.20135C85.5345 6.98575 85.1572 7.07045 84.8184 7.22445C84.5027 7.37074 84.2409 7.61714 83.9329 7.78653C83.4401 8.06372 83.3092 8.58731 83.0706 9.0262C82.9474 9.2495 82.8857 9.52669 82.7241 9.71148C82.4546 10.0118 82.3775 10.3891 82.3082 10.7433C82.2158 11.2591 82.2235 11.7981 82.2158 12.3294C82.2158 12.545 82.2928 12.776 82.3544 12.9916C82.4314 13.2765 82.5162 13.5537 82.6162 13.8309C82.6394 13.9002 82.7626 13.9926 82.8242 13.9849C83.1861 13.9233 83.5479 13.8694 83.8867 13.7462C84.1793 13.6384 84.5181 13.7077 84.7568 13.4305C84.8107 13.3766 85.0109 13.3535 85.0417 13.392C85.1187 13.4921 85.1572 13.6384 85.1649 13.7693C85.1649 13.8309 85.0879 13.9079 85.0263 13.9541C84.5412 14.316 84.0561 14.6933 83.5556 15.0244C83.3092 15.1937 83.0166 15.3015 82.7471 15.417C82.5469 15.5094 82.3853 15.4632 82.3468 15.2245C82.316 15.0475 82.3005 14.8781 82.2697 14.6317C82.1851 14.7472 82.1312 14.8165 82.085 14.8781C81.9156 15.109 81.7693 15.3785 81.5614 15.5633C81.2919 15.7943 80.9608 15.956 80.6528 16.1408C80.3448 16.3256 80.314 16.5104 80.3756 16.8723C80.4449 17.3189 80.7529 17.6192 80.9839 17.958C81.0609 18.0812 81.4151 18.1967 81.4536 18.1505C81.6384 17.9272 81.8001 18.0427 81.9926 18.0889C82.0773 18.112 82.1851 18.0581 82.2697 18.0119C82.6162 17.8194 82.9935 17.65 83.2938 17.3959C83.5325 17.1957 83.879 17.0417 83.8867 16.6413C83.8867 16.5951 83.9868 16.5335 84.0561 16.5104C84.0715 16.5104 84.1331 16.5874 84.1639 16.6413C84.187 16.6798 84.187 16.7337 84.2024 16.803C84.8569 16.649 85.0648 16.9801 85.0109 17.6038C85.1187 17.4729 85.1649 17.3651 85.2342 17.2804C85.2727 17.2265 85.3574 17.1572 85.4113 17.1572C85.4652 17.1572 85.5576 17.2496 85.5576 17.3112C85.573 17.5807 85.5653 17.8425 85.573 18.112C85.573 18.2506 85.6115 18.3815 85.6038 18.5201C85.6038 18.7896 85.6577 19.1053 85.5499 19.3208C85.4344 19.5364 85.1418 19.6596 84.9339 19.829C84.572 20.1216 84.2717 19.983 83.9329 19.7443C83.6326 19.5364 83.2861 19.3593 82.9473 19.2592C82.5469 19.1438 82.4237 19.0591 82.4083 18.6433C82.4083 18.5894 82.393 18.5278 82.3776 18.3969C82.1389 18.5355 81.9464 18.651 81.7462 18.7511C81.4613 18.8897 81.1533 18.9975 80.8915 19.1592C80.2909 19.521 80.0214 20.137 79.7519 20.753C79.4901 21.3459 79.2591 21.9696 78.9203 22.5163C78.2736 23.548 77.5344 24.5182 76.8799 25.55C76.5796 26.0197 76.4102 26.5664 76.1715 27.0746C76.0791 27.2748 75.9867 27.4826 75.8558 27.6674C75.6941 27.9061 75.5786 28.1294 75.6941 28.4451C75.7634 28.6299 75.748 28.8532 75.7634 29.0534C75.7634 29.1227 75.7326 29.2151 75.7634 29.2613C75.9559 29.5308 75.8635 29.808 75.7942 30.0698C75.6248 30.7243 75.4323 31.3787 75.2475 32.0332C75.055 32.7262 74.878 33.4269 74.647 34.1122C74.3929 34.8745 74.0849 35.6136 73.8154 36.3759C73.6075 36.9611 73.4073 37.554 73.2302 38.1546C73.0993 38.6166 72.953 39.094 72.8991 39.5713C72.8298 40.2335 72.8529 40.9034 72.8298 41.5733C72.8298 41.6118 72.8298 41.658 72.8529 41.6888C73.0608 42.0815 73.3611 42.3587 73.8154 42.4588C74.0849 42.5204 74.2466 42.4434 74.3467 42.1662C74.4006 42.0199 74.5083 41.8813 74.6238 41.7658C74.824 41.5656 74.9627 41.3731 74.9319 41.0574C74.801 39.4712 74.9703 37.9236 75.594 36.4452C75.7249 36.1218 75.8096 35.7753 75.9251 35.4442C76.1099 34.8976 76.3255 34.3586 76.4949 33.8042C76.5719 33.5501 76.518 33.2344 76.6489 33.0265C76.9954 32.4644 77.1032 31.8638 77.1494 31.2248C77.1879 30.809 77.3111 30.4009 77.4189 30.0005C77.4651 29.8465 77.5883 29.7156 77.6653 29.5616C77.75 29.3845 77.7962 29.1843 77.904 29.0149C78.0503 28.7454 78.2351 28.499 78.3968 28.2372C78.4815 28.0986 78.52 27.9215 78.6278 27.806C79.0281 27.3825 79.4285 26.9668 79.852 26.5741C80.2062 26.243 80.5758 25.9196 80.9531 25.6193C81.1995 25.4268 81.4844 25.2882 81.7693 25.1496C81.8309 25.1188 81.9925 25.1881 82.0233 25.2574C82.1619 25.5654 82.2929 25.8811 82.3776 26.2122C82.4084 26.32 82.3391 26.5048 82.2467 26.5818C81.9695 26.8128 81.6538 27.013 81.3612 27.2208C80.9608 27.5134 80.5373 27.7829 80.16 28.1063C79.8135 28.3989 79.5209 28.7531 79.2052 29.0919C79.1744 29.1227 79.1436 29.1766 79.1359 29.2151C79.1128 29.4307 79.6903 29.9081 79.8982 29.8157C80.1369 29.7156 80.2293 29.808 80.3679 29.9851C80.9608 30.7782 81.3304 30.7397 82.0695 30.4317C82.2928 30.3393 82.5316 30.1391 82.5393 29.8234C82.5393 29.7541 82.5931 29.6617 82.6547 29.6232C83.0705 29.3229 83.4632 28.9764 83.9252 28.7685C84.3718 28.5683 84.7645 28.3296 85.1572 28.0524C85.2958 27.9523 85.4344 27.8599 85.5807 27.7752C85.8886 27.5981 86.2044 27.4364 86.5046 27.2516C86.6971 27.1285 86.8512 27.1593 86.8666 27.3825C86.882 27.806 86.8819 28.2372 86.8434 28.6607C86.7895 29.2305 86.6432 29.7926 86.6124 30.3624C86.5894 30.9014 86.6741 31.4403 86.7126 31.9793C86.7203 32.1256 86.7511 32.2719 86.5201 32.2565C86.2352 32.2334 86.0042 32.0794 86.0427 31.91C86.0889 31.7252 86.1659 31.5558 86.2198 31.3787C86.2583 31.2556 86.2736 31.1247 86.3044 31.0015C86.2736 30.9938 86.2275 30.9784 86.1967 30.963C86.1043 31.1709 85.9964 31.3787 85.9117 31.5943C85.7885 31.8946 85.6577 31.91 85.4036 31.7329C85.1495 31.5635 84.8415 31.3171 84.5874 31.3479C84.0869 31.4018 83.5479 31.4326 83.1168 31.7945C83.0552 31.8407 82.8857 31.8407 82.8165 31.7945C82.6317 31.6559 82.4854 31.448 82.2929 31.3095C81.6076 30.8244 80.8761 30.6011 80.0676 30.9938C79.775 31.1324 79.4747 31.2555 79.2206 31.371C79.2592 31.5481 79.3361 31.6867 79.313 31.8022C79.213 32.218 79.0743 32.6184 78.9588 33.0265C78.9434 33.0804 78.928 33.1497 78.9434 33.2036C79.0204 33.5501 79.0589 33.912 79.1975 34.2431C79.467 34.9207 79.5979 35.6444 80.0599 36.2527C80.6143 36.9688 81.1456 37.6926 81.9232 38.1854C82.1157 38.3086 82.2467 38.324 82.3699 38.1084C82.4007 38.0545 82.4854 38.0083 82.5393 38.0083C82.778 38.016 83.0167 38.0468 83.2553 38.0776C83.4478 38.093 83.648 38.17 83.8174 38.1238C83.9714 38.0853 84.2178 37.8466 84.1947 37.8004C84.0099 37.4308 84.341 37.2075 84.4334 36.9226C84.4642 36.8225 84.6567 36.6916 84.7337 36.7224C85.0109 36.8148 85.1187 36.6377 85.1726 36.4529C85.2573 36.1449 85.3189 35.8215 85.3266 35.5058C85.342 34.8514 85.3959 34.836 86.0812 34.6358C86.1505 34.6127 86.2198 34.6204 86.2891 34.5973C86.497 34.5434 86.6279 34.6204 86.7203 34.8129C86.8974 35.1902 87.0744 35.5751 87.29 35.937C87.4902 36.2758 87.7597 36.5607 88.0677 36.7917C88.0985 36.7686 88.137 36.7455 88.1678 36.7224C88.06 36.4452 87.9599 36.1603 87.8213 35.8061C87.9984 35.8908 88.0831 35.9216 88.1678 35.9678C88.5913 36.2219 89.0071 36.4914 89.4383 36.7455C89.5076 36.784 89.6 36.7686 89.6847 36.7763C89.677 36.707 89.6847 36.6223 89.6539 36.5607C89.5769 36.399 89.4768 36.245 89.3998 36.0833C89.3074 35.9062 89.3228 35.783 89.5153 35.6598C89.8079 35.4904 90.0619 35.2672 90.3391 35.0747C90.3853 35.0439 90.4469 35.0208 90.5008 35.0362C90.9628 35.1286 91.0244 35.0901 91.2169 34.6589C91.3401 34.3894 91.471 34.1122 91.6481 33.8735C91.8329 33.6194 92.0793 33.4038 92.2949 33.1728C92.3873 33.0727 92.4797 32.9726 92.5952 32.8417C92.6722 32.9495 92.7338 33.0265 92.7877 33.1112C93.0649 33.527 92.9186 33.9274 92.7877 34.3432C92.7261 34.528 92.6953 34.7359 92.703 34.9284C92.703 35.0824 92.8262 35.144 93.011 35.1132C93.2189 35.0747 93.4422 35.0516 93.6424 35.0901C94.1198 35.1748 94.8512 34.9438 95.0668 34.5665C95.2285 34.2893 95.3979 33.9967 95.4827 33.681C95.5904 33.2883 96.114 33.142 96.0524 32.6646C96.0524 32.6492 96.0909 32.6107 96.114 32.6107C96.4682 32.5029 96.5144 32.141 96.7146 31.9023C96.9995 31.5558 97.269 31.194 97.5539 30.8475C97.7233 30.6473 97.9081 30.4548 98.0928 30.27C98.1467 30.2238 98.2468 30.2238 98.3315 30.2007C98.3315 30.2777 98.37 30.3701 98.3392 30.4394C98.062 31.1478 97.7926 31.8638 97.5 32.5645C97.3229 32.9649 97.1381 33.373 96.8917 33.7349C96.5221 34.2662 96.0755 34.7436 95.6905 35.2672C95.1207 36.0525 94.3122 36.5453 93.473 36.9842C93.0726 37.1921 92.6106 37.2845 92.1871 37.4462C92.0947 37.477 91.9638 37.5771 91.9484 37.6541C91.8945 38.0699 91.8714 38.4934 91.8637 38.9169C91.8637 39.0016 91.9638 39.1633 92.0254 39.171C92.3565 39.2095 92.3796 39.4636 92.4489 39.6945C92.4797 39.7869 92.5413 39.8716 92.6029 39.9486C92.8031 40.1796 92.9571 40.1565 93.1034 39.8947C93.165 39.7715 93.242 39.6483 93.2805 39.5174C93.3421 39.325 93.4499 39.2788 93.6193 39.3404C94.1967 39.5482 94.5895 39.2942 94.9052 38.8476C95.1054 38.5704 95.2132 38.6012 95.3903 38.8938C95.5674 39.2018 95.7752 39.4866 95.9677 39.7792C96.0062 39.7792 96.0447 39.7638 96.0832 39.7561C96.1679 39.5252 96.2449 39.2865 96.345 39.0093C96.4143 39.0709 96.4913 39.1094 96.5221 39.171C96.6684 39.4404 96.8378 39.2172 96.9918 39.1787C97.0303 39.171 97.0534 38.9939 97.0611 38.9015C97.0688 38.6936 96.9918 38.4549 97.0765 38.2932C97.2151 38.0314 97.0996 37.7619 97.1766 37.5078C97.1843 37.4693 97.1535 37.4231 97.1381 37.3769C96.5529 37.6464 96.8609 38.3471 96.422 38.7783C96.3989 38.6089 96.3604 38.5165 96.3758 38.4241C96.4066 38.1777 96.4374 37.9236 96.499 37.6849C96.6145 37.2229 96.6607 36.7147 96.9918 36.3451C97.4461 35.8446 97.9619 35.4058 98.4239 34.913C98.755 34.5588 99.0554 34.1892 99.3248 33.7965C99.7483 33.1805 100.11 32.5183 100.688 32.0255C100.772 31.9562 100.811 31.833 100.873 31.7406C100.734 31.7945 100.603 31.8561 100.387 31.9485C100.603 31.4403 101.042 31.2632 101.319 30.9322C101.365 31.0143 101.316 31.1452 101.173 31.3248C101.065 31.4557 100.973 31.602 100.873 31.7329C100.973 31.6867 101.096 31.6636 101.18 31.5866C101.358 31.448 101.519 31.2863 101.681 31.1247C102.02 30.7936 102.366 30.4548 102.697 30.1083C102.975 29.8234 103.229 29.5154 103.506 29.2382C103.56 29.1766 103.683 29.1766 103.768 29.1535C103.768 29.2459 103.775 29.346 103.745 29.423C103.406 30.2007 103.028 30.9707 102.728 31.7637C102.536 32.2873 102.451 32.8494 102.328 33.3961C102.305 33.4962 102.343 33.6194 102.374 33.7195C102.513 34.0583 102.397 34.4587 102.081 34.6127C101.989 34.6512 101.866 34.6281 101.75 34.6358C101.666 34.6358 101.581 34.6358 101.496 34.6358C101.365 34.6358 101.234 34.6589 101.104 34.6358C100.934 34.605 100.688 34.8052 100.726 34.9746C100.873 35.6752 101.211 36.2604 101.85 36.5915C102.235 36.7917 102.667 36.8764 103.09 36.9996C103.283 37.0535 103.521 37.1459 103.675 37.0766C104.091 36.8764 104.553 36.9534 104.992 36.7763C105.654 36.5068 106.355 36.2912 107.032 36.0371C107.125 36.0063 107.271 35.9909 107.333 36.0371C107.402 36.091 107.417 36.2296 107.417 36.3297C107.394 36.8764 107.356 37.4231 107.333 37.9775C107.302 38.8091 107.31 37.3307 107.263 38.1623C107.233 38.8322 107.132 39.502 107.094 40.1642C106.971 42.0738 106.855 41.6657 106.747 43.5675C106.724 43.9448 106.724 44.3298 106.701 44.7148C106.617 46.0854 106.486 47.4636 106.463 48.8342C106.439 50.4204 106.239 51.9757 106.078 53.5465C106.054 53.739 106.124 53.9546 106.201 54.1471C106.278 54.3473 106.416 54.3781 106.547 54.1779C106.74 53.8853 106.932 53.5927 107.125 53.3001C107.171 53.2308 107.271 53.1923 107.371 53.123V54.124C107.371 54.124 107.433 54.124 107.464 54.124C107.533 53.6774 107.602 53.2308 107.671 52.7534C107.664 52.738 107.564 52.6764 107.541 52.5917C107.464 52.3145 107.333 52.1913 107.063 52.3684C106.94 52.0912 107.04 51.7062 107.333 51.4291C107.31 51.6292 107.294 51.7832 107.263 52.0296C107.379 51.9526 107.502 51.9218 107.517 51.8679C107.61 51.5061 107.718 51.1365 107.748 50.7746C107.856 49.6273 107.933 48.48 108.018 47.3251C108.041 46.9478 108.026 46.9401 107.656 46.9632C107.594 46.9632 107.533 46.9632 107.479 46.9401C107.41 46.917 107.34 46.8939 107.286 46.84C107.271 46.8169 107.31 46.6937 107.325 46.6937C107.402 46.686 107.479 46.6937 107.541 46.7245C107.748 46.84 107.879 46.7784 107.964 46.5705C108.049 46.3549 108.141 46.147 108.218 45.9314C108.249 45.8621 108.249 45.7774 108.249 45.6927C108.226 45.3924 108.187 45.0921 108.172 44.7841C108.172 44.7302 108.195 44.6763 108.226 44.6224V44.5916L108.234 44.607C108.234 44.5839 108.257 44.5685 108.257 44.5454C108.287 44.4453 108.349 44.3298 108.326 44.2451C108.272 44.0911 108.326 43.9217 108.326 43.7523C108.295 43.9525 108.264 44.145 108.234 44.3452C108.234 44.3683 108.226 44.3837 108.218 44.4068C108.203 43.9217 108.203 43.4674 108.203 43.4751C108.303 43.5598 108.318 43.6599 108.318 43.76C108.349 43.5983 108.372 43.429 108.418 43.2673C108.511 42.9131 108.311 42.5358 108.541 42.197C108.611 42.0892 108.565 41.9121 108.58 41.7658C108.588 41.6734 108.603 41.581 108.626 41.4886C108.642 41.4347 108.696 41.3885 108.696 41.3346C108.711 41.0189 108.696 40.7032 108.719 40.3875C108.765 39.5868 108.819 38.786 108.88 37.9852C108.911 37.6002 109.019 37.2152 109.027 36.8302C109.034 36.322 109.019 38.1392 109.181 37.6464C109.196 37.6002 109.188 37.5463 109.196 37.5001C109.258 36.6762 109.296 35.8523 109.389 35.0285C109.419 34.7667 109.558 34.5126 109.827 34.3509C110.151 34.1584 110.49 33.9659 110.751 33.7041C111.067 33.3807 111.437 33.296 111.845 33.2036C112.045 33.1574 112.291 33.0496 112.384 32.8879C112.699 32.3489 113.215 32.1025 113.723 31.833C113.916 31.7329 114.101 31.5943 114.301 31.5327C114.671 31.4172 114.809 31.0477 114.547 30.7551M109.558 25.7194C109.604 25.6963 109.727 25.8349 109.812 25.9042C109.704 26.012 109.596 26.1198 109.435 26.2815C109.342 26.1352 109.258 26.0274 109.273 25.9966C109.342 25.8888 109.442 25.7733 109.558 25.7194ZM103.914 8.77981C104.083 8.47182 104.268 8.16382 104.453 7.86353C104.491 7.80193 104.576 7.77113 104.645 7.72493C104.668 7.80193 104.738 7.90203 104.715 7.95593C104.599 8.17922 104.461 8.38712 104.322 8.59501C104.214 8.74901 104.091 8.8876 103.983 9.0339C103.96 9.0339 103.929 9.0339 103.899 9.0416C103.899 8.9492 103.883 8.84911 103.922 8.77981M106.617 11.5594C106.694 11.5748 106.809 11.7057 106.809 11.7827C106.809 11.8597 106.701 11.9752 106.609 12.006C106.378 12.0753 106.162 12.0676 106.024 11.8058C105.954 11.6749 105.808 11.5902 105.631 11.4285C106.001 11.4747 106.309 11.4978 106.617 11.5671M103.46 13.0455C103.644 12.4988 104.045 12.1446 104.499 11.8212C104.938 11.5132 105.338 11.5748 105.677 11.9829C105.731 12.0445 105.823 12.0753 105.893 12.1215C105.947 12.16 105.985 12.2062 106.047 12.2678C105.977 12.3217 105.939 12.3679 105.893 12.391C105.192 12.7221 104.484 13.0532 103.775 13.3766C103.668 13.4228 103.529 13.4074 103.406 13.4228C103.429 13.2919 103.429 13.161 103.467 13.0455M101.488 10.6432C101.45 10.4276 101.411 10.2197 101.365 9.97328C101.612 10.0734 101.689 10.3814 101.488 10.6432ZM100.41 12.6836C100.257 12.8222 100.103 12.9685 99.9408 13.0994C99.8946 13.1379 99.8253 13.1379 99.7714 13.161C99.7791 13.0917 99.7637 12.9916 99.8022 12.9531C100.056 12.7144 100.326 12.4911 100.58 12.2678C100.772 12.0984 100.973 11.9367 101.165 11.775C101.211 11.7365 101.304 11.6672 101.327 11.6826C101.381 11.7211 101.411 11.7981 101.419 11.8058C101.435 12.1446 101.242 12.3063 101.026 12.3294C100.749 12.3602 100.588 12.5219 100.41 12.6836ZM85.5653 24.1563C85.5037 24.2333 85.4729 24.3334 85.4344 24.4258C85.4036 24.5182 85.419 24.6876 85.3651 24.703C85.2034 24.7646 84.9801 24.8493 84.8492 24.7877C84.4873 24.6183 84.4873 24.4335 84.7568 24.1486C84.8723 24.0254 84.9878 23.8791 85.0186 23.7251C85.0879 23.4325 85.3266 23.4094 85.5267 23.394C85.7885 23.3709 85.7501 23.6096 85.8425 23.8406C85.7424 23.9484 85.6423 24.0408 85.5576 24.1563M82.9011 35.783C82.7933 36.0602 82.6239 36.0525 82.3776 35.86C81.7924 35.3903 81.469 34.7667 81.4767 34.0198C81.4767 33.7888 81.5922 33.5193 81.7308 33.3345C81.9232 33.0804 82.1851 32.8802 82.4315 32.68C82.4931 32.6338 82.6701 32.6184 82.7086 32.6646C83.0782 33.065 83.2399 33.5732 83.3631 34.2662C83.2399 34.6743 83.109 35.2441 82.9011 35.783ZM87.9445 23.1939C87.8444 23.0245 87.7289 22.9167 87.7212 22.8089C87.6981 22.3084 88.0369 21.7463 88.5836 21.5769C88.8223 21.5076 89.0302 21.3613 89.2612 21.2766C89.3305 21.2458 89.4306 21.2766 89.5076 21.2766C89.5076 21.3536 89.523 21.446 89.4922 21.4999C89.2381 21.9157 89.0071 22.3546 88.7068 22.7319C88.5451 22.9321 88.2525 23.0168 87.9368 23.2016M88.4835 29.7233V30.6704C88.4835 30.6704 88.4296 30.6704 88.3988 30.6781C88.3757 30.5472 88.3295 30.4086 88.3372 30.2777C88.368 29.7618 88.3757 29.2382 88.4681 28.73C88.5297 28.4066 88.7299 28.114 88.676 27.7521C88.676 27.7213 88.7376 27.6597 88.7838 27.6366C88.8069 27.6289 88.8916 27.6751 88.8993 27.7059C88.9455 27.9446 89.0225 28.1833 89.0148 28.422C88.9917 28.7916 88.907 29.1535 88.8454 29.5154C88.8146 29.6925 88.7761 29.8619 88.4912 29.7233M90.3391 33.142C89.9849 33.6425 89.6 34.1199 89.2304 34.6127C89.1842 34.5973 89.138 34.5819 89.0918 34.5588C88.6991 33.7041 89.1149 32.8263 88.9609 31.8869C89.138 31.9639 89.2304 31.987 89.3074 32.0332C89.6231 32.2488 89.9311 32.4644 90.2391 32.6877C90.4008 32.8032 90.4547 32.9803 90.3315 33.1343M107.502 31.8792C107.433 32.3104 106.963 32.2796 106.717 32.526C106.678 32.526 106.64 32.526 106.593 32.526C106.578 32.4028 106.501 32.2411 106.547 32.1564C106.809 31.7098 107.094 31.2787 107.371 30.8398C107.387 30.8167 107.425 30.8167 107.479 30.7936C107.633 31.1555 107.541 31.525 107.494 31.8715M108.803 22.9552C108.788 23.0322 108.634 23.0784 108.549 23.14C108.518 23.1169 108.48 23.1015 108.449 23.0861C108.403 23.3247 108.357 23.5634 108.303 23.7944C108.28 23.7944 108.249 23.7944 108.226 23.8021C108.203 23.7405 108.157 23.6789 108.157 23.6173C108.157 23.3478 108.21 23.0784 108.187 22.8166C108.172 22.601 108.072 22.3931 108.018 22.1852C107.949 21.8618 108.056 21.7078 108.38 21.6616C108.557 21.6385 108.649 21.7001 108.749 21.8772C108.942 22.2391 108.88 22.5933 108.811 22.9552M98.3932 12.8453C98.1237 12.8992 98.0159 13.1379 97.8619 13.315C97.8773 13.3304 97.9004 13.3535 97.9158 13.3689C98.0929 13.2226 98.2777 13.0763 98.4625 12.93C98.4394 12.9069 98.4163 12.8761 98.3932 12.8453ZM99.1554 12.1908C98.9244 12.391 98.7397 12.5604 98.501 12.776C98.8475 12.7606 99.1092 12.5065 99.1554 12.1908ZM64.3061 21.7848C64.1521 21.7386 64.0905 21.7232 64.0289 21.7001C63.975 21.6847 63.9211 21.6693 63.8595 21.6539C63.9673 21.5769 64.0751 21.5461 64.1829 21.523C64.668 21.4075 64.668 21.3998 64.9375 21.831C65.0684 22.0312 65.2455 22.0774 65.3764 21.8926C65.5304 21.6616 65.6459 21.3921 65.7152 21.1303C65.7691 20.9301 65.7999 20.907 65.9538 21.0302C65.9846 21.0533 66.0308 21.0533 66.0924 21.0764C66.0462 20.9224 65.669 20.7145 65.4842 20.7222C65.053 20.753 64.8682 20.6375 64.6911 20.2448C64.6449 20.1447 64.5833 20.0523 64.5217 19.9445C64.3523 20.0985 64.2291 20.2987 64.0828 20.3295C63.6208 20.4296 63.1588 20.4758 62.6968 20.522C62.1579 20.5836 61.6111 20.5913 61.0799 20.6837C60.5409 20.7761 60.0096 20.9532 59.4783 21.0841C59.1703 21.1611 58.8546 21.2073 58.5466 21.2843C57.9768 21.4229 57.4071 21.5846 56.8373 21.7309C56.6371 21.7771 56.4292 21.8002 56.1212 21.8541C56.229 21.6847 56.306 21.5769 56.3599 21.4614C56.4677 21.2304 56.6525 20.9994 56.6525 20.7607C56.6525 20.0754 56.7757 19.4517 57.3147 18.9744C57.5072 18.805 57.6073 18.6125 57.538 18.343C57.5149 18.2583 57.5534 18.1428 57.5919 18.0581C57.8691 17.419 58.1462 16.7722 58.4465 16.1408C58.7545 15.494 59.0702 14.855 59.2319 14.1389C59.3474 13.5999 59.5784 13.0917 59.7478 12.5681C59.8171 12.3448 59.8864 12.1138 59.8864 11.8751C59.8864 11.4824 59.8094 11.0821 59.8094 10.6894C59.8094 9.87318 59.4321 9.2264 58.9162 8.64121C58.7853 8.49491 58.6236 8.37172 58.4619 8.25622C58.1694 8.06372 57.8768 7.87123 57.5611 7.71723C57.3301 7.60174 57.0221 7.61714 56.8373 7.47084C56.4985 7.20905 56.1289 7.10125 55.7285 7.06275C55.5437 7.04735 55.3512 7.06275 55.1587 7.03965C54.3811 6.97805 53.6265 7.12435 52.9104 7.35534C52.0095 7.64794 51.1548 8.06373 50.277 8.42562C49.5225 8.73361 48.7756 9.0339 48.0287 9.34189C47.6899 9.48049 47.3434 9.61909 47.0046 9.74998C46.7274 9.85778 46.4349 9.95788 46.1577 10.0734C46.1269 10.0888 46.1115 10.1504 46.0961 10.2043C46.0499 10.366 45.9805 10.5354 45.9728 10.6971C45.9728 10.9974 45.7727 11.082 45.5494 11.0974C45.3415 11.1128 45.1336 11.0743 44.9257 11.0436C44.6947 11.0051 44.5176 11.0205 44.4175 11.2822C44.379 11.39 44.2173 11.5286 44.1249 11.5209C43.7322 11.4901 43.4935 11.7288 43.2548 11.9675C42.8082 12.4064 42.3693 12.853 41.9304 13.2996C41.7918 13.4382 41.6917 13.6076 41.5454 13.7462C41.4222 13.8617 41.2375 14.4623 41.2606 14.624C41.3068 14.9089 41.3222 15.2014 41.3453 15.494C41.3838 15.879 41.2375 16.2794 41.3915 16.6644C41.6533 17.342 41.8997 18.0273 42.1922 18.6972C42.2846 18.9205 42.4155 19.19 42.7697 19.0976C42.8082 19.0822 42.9006 19.1745 42.9391 19.2361C43.0084 19.3439 43.0546 19.4671 43.1085 19.5826C43.2856 19.9522 43.4627 20.3295 43.9786 20.3064C44.0633 20.3064 44.1557 20.3834 44.2481 20.4373C44.4868 20.5836 44.7255 20.7299 44.9642 20.8839C45.2183 21.0533 45.4801 21.215 45.7111 21.4152C45.9036 21.5769 46.0653 21.7848 46.2346 21.9773C46.5195 22.3161 46.8044 22.6626 47.0816 23.0014C47.1047 23.0322 47.1201 23.0784 47.1278 23.1169C47.2741 23.4787 47.4512 23.625 47.7592 23.6019C48.0518 23.5788 48.3521 23.5557 48.3521 23.1476C48.3521 23.1091 48.3983 23.0399 48.4291 23.0245C48.7602 22.909 48.8218 22.601 48.9527 22.3469C49.1375 21.9927 49.8613 21.831 50.0538 22.1467C50.2617 22.4855 50.3079 22.9167 50.4388 23.3863C50.2386 23.2247 50.1 23.1168 49.9075 22.9552C49.9229 23.1245 49.9382 23.24 49.9305 23.3478C49.9305 23.4479 49.8767 23.5403 49.8459 23.6327C49.8228 23.625 49.792 23.6096 49.7612 23.6019C49.7535 23.4633 49.738 23.3247 49.7303 23.1861C49.7072 23.1861 49.6765 23.1861 49.6534 23.1861C49.6303 23.2785 49.6149 23.3709 49.5764 23.4556C49.5225 23.5557 49.4763 23.702 49.3916 23.7328C48.5908 24.01 47.7823 24.2795 46.9739 24.5336C46.2347 24.7646 45.4955 24.9725 44.7563 25.1881C44.5407 25.2497 44.3174 25.2959 44.0941 25.3652C43.7938 25.4653 43.4935 25.5808 43.1855 25.6809C43.0007 25.7425 42.7928 25.7733 42.9545 26.0505C42.9699 26.0736 42.9391 26.1429 42.9083 26.1737C42.7697 26.3277 42.6388 26.5048 42.4694 26.628C42.3847 26.6896 42.2154 26.6742 42.1076 26.6357C42.0614 26.6126 42.0152 26.397 42.0614 26.3431C42.3155 26.0505 42.0383 25.858 41.9228 25.6193C41.8304 25.9427 41.7303 26.2738 41.6302 26.628C41.353 26.4201 41.0912 26.4047 40.7986 26.5356C40.5907 26.628 40.3443 26.6742 40.1133 26.6819C39.9131 26.6819 39.7052 26.5664 39.505 26.5741C39.351 26.5741 39.1277 26.6357 39.0507 26.7435C38.8659 27.013 38.7273 27.3132 38.6272 27.6212C38.4732 28.114 38.8197 28.5298 39.3202 28.4759C39.3664 28.4759 39.4203 28.5298 39.4742 28.5683C39.428 28.6145 39.3818 28.7069 39.351 28.6992C39.1508 28.6607 38.9429 28.6068 38.7504 28.5452C38.5964 28.4913 38.4579 28.4066 38.3039 28.3373C38.2731 28.3527 38.2423 28.3681 38.2115 28.3912C38.2962 28.9225 38.3423 29.4692 38.4886 29.9774C38.5579 30.2007 38.8275 30.3701 39.0353 30.5934C39.0738 30.501 39.0892 30.4086 39.1277 30.3239C39.3356 29.9004 39.2586 29.2921 39.8823 29.1458C40.0286 29.115 40.1903 29.0842 40.3289 29.1073C41.0065 29.2151 41.3684 28.5991 41.9228 28.4143C42.3617 28.268 42.5772 27.7213 43.0623 27.5365C43.2317 27.4749 43.3857 27.3748 43.5782 27.3825C43.6629 27.3825 43.763 27.3748 43.84 27.344C44.3328 27.1747 44.8102 26.9668 45.3107 26.8205C46.327 26.5202 47.3511 26.2584 48.3675 25.9581C48.9989 25.7733 49.6072 25.5346 50.2386 25.3344C50.7698 25.165 51.2934 24.9417 51.8401 24.8724C52.7487 24.7569 53.5649 24.3642 54.4273 24.1255C54.7737 24.0331 55.1048 23.8868 55.4513 23.7944C55.9518 23.6635 56.46 23.5634 56.9605 23.4479C57.8537 23.2478 58.7391 23.0322 59.64 22.8628C60.9413 22.6087 62.2579 22.3931 63.5592 22.139C63.7825 22.0928 63.9827 21.9311 64.2676 21.7925M43.3857 19.213C43.2086 19.1053 42.9776 19.0437 42.8698 18.8897C42.7389 18.7049 42.685 18.4508 42.6619 18.2198C42.6234 17.8425 42.6234 17.4652 42.6311 17.0879C42.6311 16.9108 42.6543 16.7491 42.4464 16.6644C42.3848 16.6336 42.3539 16.5412 42.3154 16.4719C42.3308 16.4565 42.3539 16.4334 42.3693 16.4103C42.5926 16.5335 42.8544 16.6105 43.0161 16.7876C43.147 16.9262 43.1778 17.1803 43.2086 17.3882C43.2394 17.6115 43.2086 17.8502 43.2317 18.0812C43.2394 18.189 43.2779 18.3045 43.3395 18.3892C43.5859 18.7588 43.5936 18.7511 43.3934 19.2054M47.5744 15.1014C47.097 15.3785 46.7429 15.1783 46.6813 14.6394C46.6505 14.3853 46.5273 14.1235 46.3964 13.9002C46.1192 13.4536 46.4425 12.6297 46.9584 12.545C46.9892 12.545 47.02 12.545 47.0431 12.5219C47.6052 12.2447 48.1673 11.9675 48.7371 11.6903C49.3916 11.3823 49.9999 10.9666 50.7776 10.9743C51.4166 10.9743 51.9864 10.6432 52.5793 10.4353C53.1106 10.2505 53.6727 10.1735 54.1963 10.4507C54.3426 10.5277 54.4273 10.7895 54.4812 10.982C54.5582 11.2668 54.5967 11.5671 54.6275 11.7519C54.6275 12.2755 54.5196 12.4141 54.1115 12.4988C54.0653 12.5065 54.0114 12.5142 53.9729 12.545C53.5341 12.9223 52.9951 13.0147 52.4407 13.1071C52.0403 13.1764 51.6399 13.3073 51.2472 13.4382C51.1394 13.4767 51.0701 13.623 50.9546 13.6692C50.6851 13.777 50.3925 13.854 50.1153 13.9464C49.3223 14.1928 48.5292 14.4469 47.8362 14.9243C47.7592 14.9859 47.6745 15.0475 47.5898 15.0937M52.2559 18.2121C51.9017 18.1582 51.7939 18.4123 51.6553 18.6356C51.6168 18.6972 51.5321 18.7357 51.4705 18.7819C51.2087 18.9513 50.9315 19.0899 50.6851 19.2746C50.3463 19.5364 50.0153 19.6827 49.5533 19.5903C49.1914 19.5133 48.7987 19.5903 48.4214 19.6134C48.1519 19.6365 47.9363 19.5518 47.7977 19.444C47.867 19.1899 47.9286 18.9821 47.9979 18.7819C48.0133 18.7203 48.098 18.6279 48.1288 18.6356C48.4907 18.7357 48.5831 18.3661 48.8218 18.2429C49.0605 18.112 49.2992 17.9657 49.5225 17.804C49.6303 17.727 49.715 17.6038 49.792 17.4883C50.0999 17.0109 50.6081 16.8954 51.0932 16.7337C51.2703 16.6721 51.4397 16.5874 51.6245 16.5335C51.7477 16.495 51.8786 16.5027 52.0172 16.495C52.0711 16.495 52.1481 16.5258 52.1866 16.495C52.3945 16.3641 52.5793 16.1947 52.7949 16.0869C53.049 15.956 53.3262 15.8251 53.6034 15.7943C53.9807 15.7558 54.0422 16.1793 53.919 16.5566C53.8805 16.6644 53.7573 16.7568 53.6804 16.8569C53.588 16.9801 53.5341 17.1726 53.4186 17.2342C53.0952 17.3959 53.1183 17.9041 52.6794 17.9272C52.6178 17.9272 52.5639 17.9965 52.51 18.0427C52.433 18.1043 52.3406 18.2352 52.279 18.2275M53.9575 22.293C53.6957 22.3161 53.4108 22.37 53.1876 22.2853C52.9951 22.2006 52.818 21.9542 52.7333 21.7463C52.6409 21.5076 52.6255 21.2227 52.6486 20.9686C52.664 20.8454 52.8334 20.7145 52.9643 20.6298C53.049 20.5759 53.1799 20.5528 53.28 20.5605C53.4032 20.5682 53.5803 20.6067 53.6188 20.6837C53.8652 21.2227 54.2578 21.6385 54.6813 22.0235C54.7121 22.0466 54.7275 22.0851 54.7814 22.1698C54.4888 22.216 54.227 22.2776 53.9652 22.3007M22.4808 36.8687V36.1988C22.4808 36.1988 22.4037 36.1988 22.3729 36.1988C22.3806 36.4221 22.396 36.6454 22.4037 36.8687C22.4268 36.8687 22.4577 36.8687 22.4808 36.8687ZM58.5004 28.8763C58.5389 28.6607 58.4003 28.576 58.254 28.4682C57.946 28.2372 57.5919 28.1602 57.2223 28.114C56.9374 28.0755 56.8219 27.9677 56.8373 27.6597C56.845 27.498 56.7757 27.3055 56.6756 27.1747C56.537 26.9976 56.3522 26.8436 56.1674 26.7204C56.075 26.6588 55.9133 26.6588 55.7901 26.6819C55.5899 26.7127 55.4051 26.8359 55.2126 26.8359C54.4657 26.8359 53.7497 26.9822 53.0644 27.2901C52.7872 27.4133 52.4869 27.5134 52.1943 27.6289C51.8555 27.7675 51.5167 27.9061 51.1779 28.0447C50.6235 28.268 50.0769 28.499 49.5225 28.7223C49.2684 28.8224 49.0297 28.7993 48.7679 28.7608C48.1981 28.6684 47.7053 28.8686 47.3434 29.3383C47.1355 29.6078 46.8814 29.6617 46.6042 29.423C46.3809 29.2228 46.1884 28.9918 45.8959 29.0611C45.8266 28.7993 45.7804 28.576 45.6957 28.3758C45.6649 28.2911 45.5032 28.1833 45.4262 28.2064C45.3338 28.2372 45.2106 28.3681 45.1952 28.4605C45.1567 28.7762 45.1875 29.0919 45.1567 29.4076C45.1259 29.7002 45.3184 30.0775 44.8564 30.2238C44.8025 30.2315 44.764 30.3547 44.764 30.424C44.7717 30.6011 44.6639 30.6473 44.5407 30.6088C44.2943 30.5318 44.148 30.6781 43.9709 30.7859C43.8708 30.8552 43.7399 30.9014 43.6167 30.9091C43.1778 30.9245 43.0161 31.0708 43.0007 31.5096C43.0007 31.5635 42.9622 31.6174 42.9468 31.6713C42.8621 31.9485 43.0931 32.449 43.3087 32.6338C43.4319 32.7416 43.4935 32.9418 43.5397 33.1112C43.5782 33.2498 43.5474 33.4038 43.5782 33.5501C43.6167 33.7811 43.6706 34.0198 43.7322 34.2508C43.8785 34.7667 43.9555 35.3134 44.1865 35.7907C44.5561 36.5607 44.9719 37.323 45.4493 38.0237C45.7572 38.4703 45.996 39.0093 46.535 39.2788C46.6043 39.3096 46.6273 39.4251 46.6658 39.502C46.7813 39.7099 46.8429 39.964 47.0046 40.1257C47.4512 40.6031 48.175 40.4491 48.6832 40.8033C48.6909 40.8033 48.7063 40.8033 48.714 40.8033C49.3377 40.7571 49.9614 40.7263 50.5851 40.6724C50.6929 40.6647 50.7852 40.5492 50.8853 40.4799C50.97 40.4183 51.0547 40.3567 51.1394 40.2874C51.3704 40.0872 51.6707 39.9178 51.8093 39.6637C51.9864 39.325 52.2944 39.2018 52.5639 39.017C52.8565 38.8091 53.2107 38.7013 53.5418 38.5473C53.6881 38.4857 53.842 38.4395 53.9729 38.3548C54.4888 38.0391 54.843 38.0237 55.2588 38.6089C55.3666 38.7552 55.459 38.9092 55.6515 38.709C55.6823 38.6859 55.7747 38.709 55.8363 38.7321C55.9441 38.7629 56.0442 38.8091 56.1443 38.8476C56.1597 38.6859 56.1674 38.5627 56.1828 38.4318C56.4061 38.5088 56.5832 38.5627 56.8142 38.6397C56.8373 38.5858 56.8681 38.5165 56.8912 38.4472C57.0144 37.9929 57.0991 37.5155 57.2839 37.0766C57.4764 36.5992 57.6919 36.1372 57.8151 35.6213C57.9845 34.9361 58.2617 34.2816 58.4465 33.604C58.5774 33.1112 58.6313 32.603 58.7237 32.1025C58.7699 31.8638 58.8161 31.6174 58.8546 31.3787C58.9008 31.0246 58.9778 30.6627 58.9393 30.3162C58.8854 29.8927 58.8469 29.4461 58.5774 29.0842C58.5389 29.0303 58.5159 28.9533 58.5236 28.8917M53.9113 35.0439C53.6572 35.3211 53.6264 35.6829 53.5263 36.0063C53.3954 36.3836 53.0952 36.4529 52.8026 36.5992C52.7025 36.6454 52.6024 36.6762 52.5023 36.7147C52.4561 36.7301 52.3868 36.7609 52.3637 36.7455C52.1481 36.5915 51.9325 36.4298 51.7246 36.2604C51.7015 36.2373 51.7015 36.168 51.7092 36.1295C51.74 36.0371 51.7708 35.937 51.8247 35.7753C51.8478 35.7753 51.9171 35.7522 52.0403 35.7137C51.9787 35.552 51.9171 35.4057 51.8478 35.2287C52.0788 35.1209 52.2713 34.9361 52.5947 35.0208C52.7564 35.0593 52.9566 34.9207 53.1953 34.8437C53.3185 34.9977 53.5341 34.9053 53.7497 34.8437C53.8113 34.8206 53.8959 34.8437 53.9652 34.836C53.9421 34.913 53.9422 35.0054 53.896 35.0593M55.1048 31.0092C54.8507 30.9322 54.6967 30.9861 54.5504 31.194C54.4503 31.3326 54.2194 31.371 54.0346 31.4326C53.7574 31.525 53.4724 31.6097 53.1876 31.6944C53.3492 32.0717 53.3647 32.0717 53.6496 31.8484C53.7651 31.7637 53.8651 31.5866 54.0576 31.7252C54.0961 31.7483 54.2117 31.6482 54.3734 31.6328C54.3426 31.7098 54.3349 31.8099 54.281 31.8638C54.1963 31.9331 54.0885 31.9793 53.9807 32.0024C53.2415 32.1564 52.5793 32.5106 51.8863 32.7878C51.5013 32.9341 51.1163 33.0727 50.739 33.219C50.6697 33.2421 50.6082 33.2883 50.5389 33.3268C50.5543 33.3576 50.562 33.3884 50.5774 33.4115C51.5167 33.065 52.4638 32.7185 53.4109 32.3643C53.4263 32.3797 53.4417 32.4028 53.4494 32.4182C53.4032 32.4798 53.3647 32.5799 53.2954 32.6107C52.8719 32.8032 52.5177 33.142 52.0326 33.2036C51.9556 33.2113 51.8401 33.2113 51.8093 33.2652C51.4936 33.6425 51.0316 33.5424 50.6389 33.6579C50.3386 33.7426 50.354 33.4423 50.2231 33.3191C50.1384 33.2421 50.0769 33.1189 49.9845 33.0496C49.7535 32.9033 49.7457 32.7801 49.969 32.6261C50.0999 32.5337 50.2077 32.3951 50.354 32.3181C50.508 32.2334 50.6929 32.2026 50.8699 32.1564C50.9469 32.1333 51.0778 32.1487 51.1086 32.0948C51.3242 31.7175 51.7092 31.6174 52.0557 31.4634C52.6486 31.194 53.2415 30.9245 53.8344 30.6704C54.1039 30.5549 54.3811 30.4625 54.6582 30.3701C55.0047 30.2623 55.1279 30.3547 55.1125 30.7089C55.1125 30.7936 55.0894 30.886 55.074 30.9861M55.5591 28.0601C54.9893 27.9908 54.5043 28.2526 54.0038 28.4374C52.9566 28.8301 51.9402 29.2921 50.8853 29.6771C50.4464 29.8388 49.9614 29.8619 49.4686 29.9543C49.4224 29.3383 49.4532 29.3075 49.9767 29.0842C50.2 28.9918 50.4079 28.9764 50.6543 28.9687C50.9546 28.9533 51.2472 28.7608 51.5398 28.6376C51.7246 28.5683 51.9017 28.4605 52.0865 28.4297C52.3714 28.3912 52.6024 28.3142 52.7718 28.0678C52.8103 28.0139 52.9335 28.0139 53.0028 27.9677C53.0875 27.9138 53.1953 27.8522 53.2184 27.7752C53.28 27.5904 53.3724 27.5981 53.4725 27.7136C53.6111 27.8676 53.6495 27.7983 53.765 27.6828C53.8574 27.5904 54.0576 27.6058 54.2039 27.575C54.2655 27.5673 54.3657 27.6058 54.3888 27.575C54.6737 27.2593 55.0509 27.2748 55.4205 27.2671C55.459 27.2671 55.4975 27.2671 55.5437 27.2671C55.8979 27.2517 55.9749 27.3132 55.998 27.6443C56.0057 27.7906 55.7439 28.0755 55.5591 28.0524M56.614 27.96C56.5139 27.8907 56.3907 27.8368 56.3137 27.7521C56.2829 27.7213 56.3445 27.6058 56.3676 27.5211C56.4831 27.6135 56.5986 27.7136 56.7218 27.806C56.691 27.8599 56.6525 27.9061 56.6217 27.96M95.113 42.274C95.0668 42.2663 94.936 42.3818 94.9436 42.4126C94.9668 42.505 95.0437 42.5743 95.1284 42.7129C95.2131 42.5897 95.2978 42.5127 95.2824 42.4588C95.267 42.3895 95.1823 42.3048 95.113 42.2817M96.9456 37.1998C97.4692 37.3153 97.6463 37.1074 97.5462 36.4914C97.1997 36.4914 96.9764 36.7532 96.9456 37.1998ZM67.9635 42.1893C67.5246 41.8505 66.9625 41.6965 66.4082 41.6041C66.208 41.5733 65.9847 41.6965 65.7691 41.7042C65.3071 41.7273 64.9144 42.0815 64.8913 42.5358C64.8759 42.7822 64.7835 42.8207 64.5294 42.7591C64.3754 42.7283 64.1444 42.7437 64.0443 42.8438C63.8518 43.0209 63.7055 43.2519 63.5823 43.4828C63.4668 43.6907 63.4052 43.9294 63.6593 44.1219C63.7055 44.1527 63.7286 44.2374 63.7286 44.3067C63.7286 44.4761 63.6516 44.6763 63.7209 44.8072C63.9365 45.2461 63.4899 45.685 63.7363 46.1162C63.744 46.1316 63.7363 46.1547 63.7363 46.1778C63.6516 46.5089 63.5823 46.84 63.4745 47.1557C63.3744 47.4251 63.4206 47.6946 63.5592 47.8871C63.9673 48.4646 64.5833 48.788 65.2147 49.0575C65.515 49.1807 65.8229 49.2885 66.1386 49.3655C66.3773 49.4194 66.6392 49.4348 66.8855 49.4271C67.2551 49.4271 67.1473 49.0421 67.3013 48.8573C67.3552 48.8034 67.3321 48.6879 67.3783 48.634C67.4476 48.5416 67.5477 48.403 67.6324 48.4107C68.0867 48.4107 68.1098 47.9641 68.3331 47.7408C68.4794 47.6099 68.4255 47.2866 68.4871 47.0556C68.6257 46.5166 68.772 45.9776 68.9106 45.4386C69.0107 45.0767 69.1185 44.7071 69.1955 44.4222C69.0954 43.9756 69.0954 43.5829 68.926 43.2904C68.6796 42.8746 68.3485 42.4819 67.9635 42.1816M33.1142 16.9262C32.7446 16.7645 32.3211 16.7183 31.99 16.4565C31.9053 16.3949 31.7821 16.3872 31.682 16.3641C31.0429 16.2101 30.4577 16.5104 29.8648 16.6413C29.1642 16.803 28.4943 17.0648 27.8013 17.265C27.5395 17.342 27.2623 17.3728 26.9928 17.419C26.9851 17.3805 26.962 17.3497 26.9543 17.3189C27.5857 16.8954 27.9168 16.1639 28.6021 15.7866C29.0564 15.5325 29.4568 15.2014 29.888 14.9166C30.0959 14.778 30.3115 14.6548 30.5117 14.5162C30.5733 14.4777 30.6425 14.3776 30.6271 14.3314C30.5578 14.1004 30.5193 13.8078 30.3499 13.6538C29.8495 13.1841 29.2335 12.9839 28.5328 13.0532C28.194 13.084 27.8398 13.1533 27.5164 13.084C27.2084 13.0224 27.1006 13.1302 27.039 13.3612C26.9466 13.7539 26.7002 14.0311 26.4153 14.2929C26.169 14.5162 25.938 14.7549 25.7455 15.0167C25.6531 15.1398 25.6916 15.3477 25.6069 15.4786C25.3759 15.8405 25.1295 16.187 24.8523 16.5104C24.4981 16.9262 24.0977 17.3035 23.7435 17.7193C23.4817 18.0196 23.2661 18.3507 23.012 18.6587C22.9504 18.7357 22.8118 18.7588 22.7117 18.805C22.6809 18.728 22.604 18.6356 22.6271 18.5663C22.7041 18.2814 22.7964 18.0042 22.9196 17.7347C23.0505 17.4575 23.3354 17.188 23.3277 16.9262C23.32 16.6336 23.4817 16.5027 23.6126 16.3487C23.7897 16.1485 24.013 15.9637 24.3287 16.0176C24.3056 16.1331 24.2979 16.2255 24.2825 16.3179C24.3056 16.3256 24.321 16.341 24.3518 16.3564C24.5366 16.1254 24.8985 16.1023 25.0448 15.6942C24.8215 15.7635 24.6752 15.8174 24.5212 15.8636C24.4981 15.8482 24.4673 15.8328 24.4442 15.8097C24.7599 15.6249 24.7599 15.3939 24.6059 15.1476C24.5443 15.0475 24.475 14.9474 24.398 14.855C24.3133 14.7395 24.1747 14.6471 24.1285 14.5239C24.0053 14.1697 23.8282 13.8078 24.0592 13.4151C24.1208 13.3227 24.1054 13.1841 24.1208 13.0609C24.1516 12.7221 24.2594 12.4295 24.4673 12.1446C24.5982 11.9598 24.706 11.6826 24.6752 11.467C24.6367 11.159 24.7522 11.0128 24.9678 10.8588C25.0756 10.7895 25.1603 10.6817 25.3066 10.5431C25.1526 10.5739 25.0525 10.597 24.9524 10.6124C24.9909 10.366 25.1295 10.2813 25.3682 10.2967C25.5915 10.2967 25.8764 10.3506 26.0381 10.2351C26.2845 10.0657 26.5308 10.058 26.8003 10.058C27.3778 10.058 27.9476 10.0349 28.4943 9.80388C28.8562 9.64988 29.2104 9.2726 29.6724 9.58059C29.6724 9.58059 29.7032 9.56519 29.734 9.54979C29.734 9.51899 29.7571 9.48049 29.7494 9.44199C29.6185 8.63351 29.4799 7.81733 29.349 7.00885C29.349 6.98575 29.3182 6.95495 29.3028 6.93185C29.1257 6.66236 28.8639 6.40827 28.7792 6.10797C28.6637 5.69218 28.3634 5.46119 28.0862 5.19939C27.5857 4.71431 26.962 4.64501 26.3075 4.71431C26.0688 4.74511 25.8379 4.79131 25.5992 4.83751C25.4529 4.8683 25.322 4.9222 25.1757 4.9453C24.9447 4.9761 24.706 4.9992 24.475 5.0146C24.4442 5.0146 24.4134 4.9684 24.3826 4.9453C24.2748 4.8606 24.1593 4.78361 24.0592 4.68351C23.8667 4.49101 23.6896 4.28312 23.4894 4.08292C23.3508 3.93663 23.1968 3.80573 23.0505 3.67483C22.8965 3.54394 22.6886 3.45924 22.5808 3.30524C22.4807 3.16665 22.4038 2.99725 22.4269 2.77396C22.4577 2.40437 22.1651 2.21957 21.8571 2.05017C21.4567 1.82688 20.5789 1.84998 20.2247 2.12717C20.1785 2.16567 20.1477 2.21187 20.1015 2.25807C20.0784 2.29657 20.0476 2.37357 20.0168 2.37357C19.6703 2.37357 19.678 2.67386 19.5702 2.88175C19.5471 2.92795 19.5394 2.98185 19.5086 3.01265C19.1698 3.35144 19.3007 3.79803 19.2391 4.19842C19.1929 4.49871 19.3777 4.79131 19.4855 5.0839C19.6241 5.50739 19.601 6.00017 19.5625 6.46216C19.5394 6.78555 19.4162 7.12435 19.2545 7.40924C19.1621 7.57864 18.9003 7.65563 18.7078 7.77113C18.4537 7.92513 18.1919 8.07912 17.9301 8.22542C17.6376 8.37942 17.2834 8.45642 17.0678 8.67201C16.7829 8.9569 16.4133 9.0339 16.1053 9.2649C15.6895 9.58059 15.2506 9.87318 14.8117 10.1581C14.4421 10.4045 14.0803 10.7279 13.6722 10.8665C13.0639 11.0744 12.5172 11.3361 12.1476 11.8597C11.8704 12.2447 11.6163 12.5758 11.0773 12.5373C10.9926 12.5373 10.8155 12.7067 10.8309 12.7606C10.8617 12.9146 10.931 13.0917 11.162 13.0763C11.3006 13.0686 11.4392 13.0686 11.5855 13.0763C11.6702 13.084 11.778 13.1148 11.8165 13.1764C12.0398 13.4844 12.24 13.7924 12.4402 14.1081C12.471 14.162 12.4402 14.2467 12.4402 14.316C12.4248 14.8011 12.6327 15.2399 12.9253 15.5864C13.1948 15.9021 13.5952 16.11 13.9571 16.3487C14.165 16.4873 14.4113 16.4796 14.6038 16.3102C14.7655 16.1793 14.9195 16.0253 15.035 15.8559C15.2121 15.5941 15.3045 15.263 15.5047 15.0321C15.805 14.701 15.8358 14.1697 16.3132 13.9849C16.3286 13.9849 16.3594 13.9541 16.3517 13.9464C16.2901 13.6692 16.5519 13.6307 16.6905 13.5075C16.9061 13.315 17.1217 13.1148 17.3758 12.9839C17.6607 12.8299 17.9764 12.7452 18.2844 12.6451C18.3613 12.622 18.4461 12.622 18.5308 12.6143C18.5154 12.7606 18.4614 12.8838 18.5076 12.9608C18.677 13.2765 18.7617 13.5999 18.6924 13.9618C18.677 14.0388 18.677 14.1312 18.7078 14.2005C18.8541 14.5162 18.677 14.701 18.4537 14.8473C17.7068 15.34 16.96 15.8174 16.0745 16.0099C15.882 16.0484 15.7203 16.1639 15.8589 16.4257C15.959 16.6259 15.7588 17.2265 15.574 17.3805C15.3661 17.5499 15.266 17.7501 15.3584 18.0196C15.574 18.651 15.8358 19.2592 16.1977 19.829C16.5827 20.4296 17.7222 20.6298 18.1611 20.1678C18.292 20.0369 18.4537 19.7905 18.5615 19.8136C18.7232 19.8444 18.8541 20.06 19.0004 20.1986C19.0312 20.2217 19.0543 20.2602 19.0774 20.291C19.3161 20.5682 19.2699 20.6991 18.9388 20.8531C18.7848 20.9224 18.6231 21.0302 18.523 21.1611C18.3613 21.3613 18.1919 21.4537 17.9301 21.4383C17.8146 21.4383 17.599 21.4922 17.5913 21.5384C17.5452 21.8618 17.2757 21.9157 17.0678 22.0466C16.7906 22.216 16.5211 22.3931 16.2054 22.5933C16.036 22.5009 15.8897 22.5856 15.8127 22.8243C15.7896 22.8859 15.7357 22.9398 15.6818 22.986C15.0581 23.4633 14.419 23.9253 13.8108 24.4181C13.2179 24.9032 12.6481 25.4191 12.1014 25.9427C11.855 26.1814 11.6933 26.5279 11.4392 26.7512C11.1928 26.9668 10.8463 27.0515 10.5845 27.244C10.2227 27.5057 9.97624 27.883 9.93774 28.3219C9.91464 28.6684 10.0302 29.0303 10.1072 29.3845C10.2227 29.9312 10.5999 30.2623 11.0696 30.501C11.1928 30.5626 11.3468 30.5703 11.4546 30.6473C11.6009 30.7474 11.7164 30.809 11.8858 30.6858C11.9859 30.6165 12.1245 30.5626 12.2477 30.5626C12.6481 30.5626 12.7097 30.501 12.7636 30.1083C12.7867 29.9466 12.8329 29.6771 12.9253 29.654C13.3642 29.5385 13.3565 29.1997 13.3873 28.8686C13.4181 28.5144 13.5259 28.2064 13.8185 27.9831C13.8878 27.9292 13.934 27.8445 13.9956 27.7829C14.2727 27.4826 14.5114 27.1285 14.8348 26.8898C16.2285 25.858 17.5837 24.7877 19.1544 24.0177C19.3854 23.9099 19.5471 23.6789 19.7473 23.5018C19.832 23.4325 19.9013 23.3247 19.9937 23.2862C20.5943 23.0245 21.2103 22.7858 21.8185 22.5317C22.0957 22.4162 22.3729 22.2853 22.6501 22.1775C22.7964 22.1159 22.9735 22.1082 23.089 22.0235C23.4432 21.7694 23.7666 21.4768 24.1131 21.2227C24.7599 20.7376 25.4144 20.2602 26.2306 20.0985C25.6146 19.9291 25.1295 20.445 24.5212 20.4835C24.5597 20.214 24.6521 20.06 24.8908 20.0061C25.0063 19.9753 25.1141 19.8906 25.2219 19.8367C25.2681 19.8136 25.3143 19.7751 25.3605 19.7828C25.784 19.7982 26.1535 19.5903 26.5539 19.4979C26.6232 19.4825 26.6925 19.444 26.7387 19.3978C26.9158 19.19 27.1237 19.1207 27.4086 19.0899C27.8783 19.0437 28.3326 18.8512 28.7946 18.7742C29.2489 18.7049 29.7109 18.7049 30.1729 18.6741C30.1806 18.7126 30.1882 18.7511 30.1882 18.7896C29.8956 18.8743 29.5954 18.959 29.2951 19.0437C28.4327 19.3054 27.5703 19.5903 26.7002 19.8367C26.5077 19.8906 26.3153 19.8906 26.2306 20.1062C26.3923 20.0677 26.5385 20.0215 26.7002 19.983C27.0236 19.9137 27.3701 19.8906 27.6781 19.7674C28.4327 19.4594 29.2104 19.29 30.0111 19.1746C30.681 19.0745 31.3971 19.2284 32.0208 18.8281C32.3827 18.5971 32.8986 18.7126 33.1604 18.2352C33.2836 18.0042 33.4529 17.2573 33.3143 17.034C33.2912 16.9878 33.2066 16.957 33.1527 16.9262M17.422 22.3546C17.422 22.3546 17.4528 22.4162 17.4759 22.4393C17.0062 22.7473 16.5442 23.0476 16.0283 23.394C16.0822 23.0938 17.1063 22.3854 17.422 22.3546ZM17.3604 22.9321C17.1294 23.0707 16.9061 23.217 16.6751 23.3555C16.652 23.317 16.6212 23.2785 16.5981 23.24C16.8137 23.0861 17.037 22.9321 17.2603 22.7781C17.2911 22.832 17.3296 22.8782 17.3604 22.9321ZM13.164 25.4499C13.4797 24.9417 15.5817 23.3786 15.9205 23.4094C15.035 24.1332 14.1495 24.8493 13.164 25.4499ZM15.266 24.2949C15.266 24.2949 15.2506 24.3026 15.2429 24.3103C15.2275 24.3103 15.2121 24.3257 15.2044 24.3334C14.9811 24.549 14.7732 24.7646 14.5423 24.9648C14.4576 25.0418 14.3344 25.0726 14.2035 25.0957C14.4961 24.7877 14.8194 24.5336 15.2044 24.3334C15.2121 24.3257 15.2198 24.3103 15.2352 24.3026C15.2429 24.3026 15.2506 24.2949 15.2583 24.2872C15.5278 24.0562 15.7973 23.8252 16.0591 23.6019C16.0899 23.6327 16.113 23.6712 16.1361 23.7097C15.8974 23.9715 15.6356 24.2102 15.2506 24.2872M16.6058 24.0485C16.5827 23.9946 16.5519 23.9407 16.5211 23.8868C16.9831 23.6558 17.445 23.4171 17.9147 23.1784C17.9378 23.2169 17.9609 23.2554 17.9763 23.3016C17.4913 23.5018 17.0678 23.8175 16.5981 24.0485M17.5606 22.7704C17.6145 22.4393 17.753 22.37 17.9763 22.4547C17.9917 22.4855 18.0071 22.5163 18.0225 22.5471C17.8916 22.6164 17.7531 22.678 17.5683 22.7704M17.7222 22.0774C17.9378 21.9619 18.1534 21.8541 18.369 21.7386C18.3844 21.7771 18.3998 21.8156 18.4152 21.8541C18.1842 21.9234 18.0764 22.2545 17.7222 22.0697M19.3546 22.5317C19.3238 22.4778 19.3007 22.4239 19.2776 22.37C19.5471 22.2545 19.8166 22.139 20.0861 22.0235C20.1015 22.062 20.1169 22.1005 20.1323 22.139C19.8782 22.2699 19.6164 22.4085 19.3546 22.5394M26.3537 15.2861C26.3537 15.2861 26.1997 15.2014 26.1535 15.1784C26.1535 14.8242 26.7618 14.3776 26.9928 14.4854C27.0544 14.5085 27.1083 14.7164 27.0775 14.7472C26.8465 14.9474 26.6078 15.1244 26.3537 15.2938M32.5444 18.4585C32.4212 18.4431 32.3057 18.4123 32.1825 18.3815C32.2056 18.3353 32.2287 18.2429 32.2518 18.2429C32.4058 18.2352 32.5906 18.1659 32.683 18.4046C32.6291 18.4277 32.5829 18.4662 32.5444 18.4585ZM43.8477 48.8496C43.7553 48.8727 43.6706 48.9882 43.5859 49.0652C43.6629 49.1576 43.7399 49.2423 43.8785 49.3886C43.9709 49.2423 44.071 49.1422 44.0633 49.0652C44.0556 48.9805 43.9093 48.8342 43.8554 48.8496M56.768 43.4675C56.7141 43.3674 56.6679 43.2596 56.6063 43.1595C56.4369 42.89 56.1828 42.659 56.2059 42.2894C56.2136 42.1431 56.1366 41.8736 56.0673 41.8582C55.7131 41.7966 55.7285 41.4963 55.6207 41.2807C55.536 41.1036 55.4744 40.9188 55.3974 40.7417C55.3743 40.6955 55.3358 40.6416 55.2973 40.6031C55.1356 40.4183 54.9817 40.2335 54.7738 39.9948C54.6121 40.0256 54.4118 39.6791 54.1115 39.8254C54.1038 39.8254 54.0577 39.7715 54.0269 39.7561C53.8883 39.7022 53.7189 39.5867 53.6034 39.6252C53.1183 39.7946 52.5947 39.8408 52.1481 40.1642C51.9402 40.3182 51.5783 40.2643 51.4936 40.6185C51.4936 40.6185 51.4782 40.6339 51.4705 40.6339C50.8776 40.5646 51.201 41.2422 50.8622 41.3885C50.8622 41.3885 50.9161 41.4886 50.9161 41.5425C50.9238 41.6888 50.9162 41.8351 50.9239 41.9814C50.9239 42.0969 50.9238 42.2047 50.9392 42.3202C50.9546 42.3972 50.9777 42.4665 51.0085 42.5358C51.0547 42.659 51.0778 42.8053 51.1625 42.8823C51.3396 43.0363 51.3627 43.1903 51.2318 43.352C50.9315 43.7292 50.8468 44.2682 50.3617 44.4992C50.3232 44.5146 50.3156 44.5839 50.2848 44.6224C50.1924 44.761 50.1308 44.9458 49.9999 45.0382C49.792 45.1922 49.5533 45.3154 49.3069 45.3847C49.1683 45.4232 48.9681 45.3385 48.8295 45.2615C48.5061 45.069 48.175 44.9381 47.79 44.9381C47.3896 44.9381 46.9815 44.8072 46.5965 44.8534C46.096 44.9227 45.6187 45.1075 45.2106 45.4232C45.1644 45.454 45.1259 45.5002 45.0951 45.5464C44.9411 45.7851 44.8025 46.0238 44.6485 46.2548C44.5561 46.3934 44.4637 47.2789 44.5869 47.379C44.8641 47.6099 44.687 47.9025 44.7255 48.1643C44.7871 48.5955 44.6485 49.0575 45.0412 49.4271C45.226 49.5965 45.2876 49.8737 45.4339 50.0816C45.6572 50.3973 45.8497 50.8054 46.1577 50.9979C46.5735 51.252 46.866 51.6754 47.3665 51.8371C47.6899 51.9372 47.7746 52.0065 47.9517 51.6985C48.1211 51.4137 48.3367 51.2212 48.6601 51.1673C48.8834 51.1288 49.1067 51.1211 49.33 51.1211C49.5225 51.1211 49.5995 51.0518 49.4994 50.867C49.4686 50.8131 49.4454 50.7592 49.4378 50.6976C49.3762 50.2279 49.2992 49.7505 49.2607 49.2808C49.2607 49.1961 49.3762 49.0575 49.4686 49.019C49.8151 48.8727 50.0614 48.9651 50.3078 49.2731C50.5388 49.558 50.7698 49.8352 51.0085 50.1201C51.0393 50.1586 51.0855 50.1817 51.1317 50.2125C51.3627 50.3742 51.6091 50.5282 51.8324 50.7053C52.2944 51.0749 52.7795 51.3675 53.3955 51.3983C53.6188 51.406 53.8343 51.4522 54.0576 51.4676C54.1038 51.4753 54.1577 51.4676 54.2039 51.4676C54.4349 51.4599 54.589 51.2828 54.7738 51.2135C55.0663 51.098 55.0817 50.9055 55.151 50.6745C55.2742 50.2664 55.4051 49.866 55.5745 49.4733C55.6669 49.25 55.8517 49.0729 55.9441 48.8496C56.0904 48.5108 56.1597 48.1489 56.306 47.8101C56.537 47.2866 56.4985 46.7938 56.2675 46.2779C56.1751 46.0546 56.1443 45.7928 56.1212 45.5464C56.1135 45.4771 56.2136 45.3385 56.2598 45.3385C56.5524 45.3385 56.845 45.3924 57.1376 45.4078C57.2223 45.4078 57.3377 45.3924 57.3763 45.3462C57.638 45.0228 57.5611 44.6994 57.2223 44.2759C57.0375 44.0449 56.9374 43.7446 56.7988 43.4751M54.4195 49.3501C54.2194 49.2423 53.9806 49.1884 54.15 48.8881C54.1808 48.8342 54.0962 48.7264 54.0962 48.6417C54.0962 48.403 54.15 48.1874 54.3579 48.0334C54.4118 47.9949 54.4581 47.9179 54.5274 47.8871C54.6121 47.8409 54.7121 47.8255 54.8045 47.787C54.8045 47.8717 54.8122 47.9641 54.8045 48.0488C54.8045 48.0719 54.7814 48.1027 54.7429 48.1797C54.8122 48.2182 54.8969 48.2721 55.0047 48.326C54.7968 48.6802 54.6197 49.0036 54.4195 49.3501ZM108.295 45.7081C108.364 45.5002 108.449 45.2923 108.488 45.0767C108.503 44.9843 108.457 44.8226 108.387 44.7841C108.318 44.7456 108.287 44.7071 108.264 44.6609C108.264 44.6609 108.264 44.6686 108.257 44.6763C108.272 45.2076 108.287 45.7312 108.295 45.7081ZM51.5783 32.5876C51.5783 32.5876 51.6014 32.6492 51.6168 32.68C51.8555 32.5799 52.0865 32.4798 52.3252 32.372C52.3098 32.3335 52.3021 32.2873 52.2944 32.2488C52.0634 32.3566 51.817 32.4721 51.586 32.5799" fill="white"/>
<path d="M140.019 27.6139C139.403 27.1442 138.171 26.4127 137.285 25.8814L138.055 24.6956C138.925 25.1653 140.173 25.866 140.827 26.2972L140.026 27.6139H140.019ZM137.662 34.1895C138.448 32.9036 139.564 30.7708 140.396 28.8689L141.497 29.7236C140.765 31.4792 139.764 33.4965 138.925 35.0442L137.655 34.1895H137.662ZM140.681 23.3482C140.096 22.8169 138.964 21.9468 138.132 21.3462L139.033 20.276C139.865 20.8072 141.035 21.6234 141.62 22.1239L140.688 23.3405L140.681 23.3482ZM152.708 25.2038V26.3588H141.312V25.2038H146.317V24.1721H142.259V23.0864H146.317V22.1316H141.828V20.9997H146.317V20.0142H147.872V20.9997H152.392V22.1316H147.872V23.0864H151.907V24.1721H147.872V25.2038H152.708ZM151.422 33.7121C151.422 34.459 151.253 34.844 150.721 35.0442C150.205 35.2752 149.405 35.2752 148.25 35.2752C148.196 34.8902 147.98 34.305 147.78 33.9585C148.511 33.9739 149.312 33.9739 149.512 33.9739C149.743 33.9585 149.828 33.8892 149.828 33.689V32.6726H144.153C143.969 33.6582 143.622 34.6438 142.998 35.3907C142.767 35.075 142.128 34.4744 141.813 34.2896C142.729 33.1038 142.829 31.4869 142.829 30.201V27.1981H151.407V33.7044L151.422 33.7121ZM149.836 31.5947V30.4936H144.377C144.377 30.8478 144.361 31.2097 144.307 31.5947H149.828H149.836ZM144.377 28.3377V29.4387H149.836V28.3377H144.377Z" fill="white"/>
<path d="M166.537 32.6187C165.42 33.5504 163.649 34.5051 162.233 35.0749C161.979 34.7746 161.432 34.2202 161.116 33.9738C162.548 33.5273 164.173 32.8035 165.105 32.0566L166.537 32.6264V32.6187ZM175.977 27.4829H161.378V26.2355H167.9C167.784 26.0199 167.63 25.8043 167.515 25.6349L168.346 25.3501H163.172V20.5762H174.214V25.3501H168.993C169.209 25.6349 169.409 25.9352 169.563 26.2355H175.969V27.4829H175.977ZM169.501 31.7332V33.9199C169.501 34.636 169.332 34.9517 168.785 35.1365C168.239 35.3213 167.438 35.3213 166.267 35.3213C166.198 34.9209 165.982 34.4512 165.798 34.0893C166.583 34.1201 167.43 34.1201 167.653 34.1201C167.884 34.1047 167.954 34.0354 167.954 33.8506V31.7332H163.565V28.2298H173.959V31.7332H169.501ZM164.666 22.4549H172.674V21.5848H164.666V22.4549ZM164.666 24.326H172.674V23.4097H164.666V24.326ZM165.051 30.6167H172.389V29.3463H165.051V30.6167ZM171.642 32.1182C173.074 32.6033 174.999 33.4887 176.015 34.1201L174.945 35.1057C174.013 34.4743 172.112 33.535 170.625 32.9729L171.642 32.1259V32.1182Z" fill="white"/>
<path d="M186.572 28.3833C186.572 30.5315 186.456 33.4883 185.571 35.3593C185.371 35.1745 184.87 34.828 184.601 34.7125C185.386 32.9416 185.432 30.3775 185.432 28.391V21.6306H188.35C188.181 21.2148 187.981 20.7143 187.796 20.3293L189.013 19.9751C189.297 20.4756 189.598 21.1301 189.783 21.6306H192.239V22.8779H186.564V24.2485H187.45V23.1474H188.381V24.2485H189.267V23.1474H190.198V24.2485H192.054V28.3063H186.564V28.391L186.572 28.3833ZM195.981 28.3833C195.611 31.8405 194.464 34.1581 192.724 35.3747C192.593 35.1052 192.293 34.674 192.054 34.4584C192.755 34.0118 193.371 33.3035 193.856 32.3718C193.571 32.0561 193.17 31.6711 192.77 31.3169C192.601 31.6172 192.416 31.9021 192.2 32.1485C192.085 31.9329 191.769 31.4786 191.569 31.2476H190.668V33.265L191.8 32.8646C191.815 33.1649 191.885 33.6192 191.915 33.8656C190.183 34.5508 189.813 34.7356 189.598 34.9204C189.498 34.6894 189.213 34.2505 189.028 34.0889C189.097 34.035 189.159 33.9734 189.213 33.8887C187.596 34.5354 187.257 34.7202 187.065 34.9204C186.949 34.6509 186.664 34.2351 186.479 34.0503C186.71 33.881 187.049 33.4806 187.049 32.7337V28.5296H188.119V30.1157H189.174V31.2476H188.119V33.2804L189.19 32.8954C189.205 33.1649 189.244 33.5422 189.305 33.7809C189.451 33.5499 189.59 33.2265 189.59 32.7491V28.545H190.676V30.1157H191.746V30.9858C192.447 29.9848 192.916 28.5989 193.217 27.1513C193.132 27.2052 193.032 27.2514 192.947 27.3053C192.732 27.0204 192.362 26.5738 192.062 26.3197C192.978 25.9655 193.894 25.2033 194.364 24.4641L195.349 24.7798C194.949 25.5652 194.279 26.3659 193.532 26.928L194.302 27.0589C194.218 27.4593 194.118 27.8443 194.017 28.2447H195.172L195.357 28.2139L195.989 28.3833H195.981ZM186.572 25.4112V27.1282H187.457V25.4112H186.572ZM188.389 25.4112V27.1282H189.274V25.4112H188.389ZM190.206 25.4112V27.1282H191.022V25.4112H190.206ZM195.527 24.0637H192.524V22.8317H193.794C193.625 22.3004 193.209 21.4843 192.793 20.8606L193.825 20.4448C194.295 21.03 194.741 21.8461 194.911 22.4005L193.894 22.8317H195.527V20.0136H196.828V22.8317H199.8V24.0637H196.828V27.3361H195.527V24.0637ZM193.671 29.3381C193.555 29.6692 193.44 29.9694 193.301 30.2697C193.648 30.5546 194.033 30.8703 194.333 31.1706C194.533 30.6239 194.687 29.9848 194.803 29.3381H193.671ZM199.03 31.725H200.116V32.9416H199.03V35.3131H197.898V32.9416H195.981C196.15 32.0561 196.351 30.7548 196.466 29.6846H196.196V28.4988H197.898V27.0666H199.03V28.4988H199.977V29.6846H199.03V31.7173V31.725ZM197.675 24.4179C198.175 24.6874 199.846 25.7885 200.262 26.1041L199.507 27.2052C198.953 26.6893 197.552 25.5036 196.951 25.0878L197.667 24.4179H197.675ZM197.89 31.725V29.6923H197.29C197.205 30.3467 197.09 31.0628 196.974 31.725H197.89ZM199.661 20.8452C199.23 21.5613 198.761 22.2927 198.376 22.8163L197.39 22.3851C197.736 21.8384 198.222 20.9684 198.46 20.3678L199.661 20.8529V20.8452Z" fill="white"/>
<path d="M213.444 25.8348C213.19 28.2063 212.743 30.1698 212.058 31.7405C213.644 33.2266 215.846 33.5577 218.48 33.5577C219.265 33.5577 222.769 33.5577 223.739 33.5423C223.523 33.8734 223.254 34.5433 223.169 34.959H218.449C215.5 34.959 213.159 34.574 211.427 33.0033C210.88 33.935 210.226 34.6741 209.471 35.2516C209.255 34.9513 208.686 34.4355 208.354 34.2199C209.171 33.6501 209.871 32.8724 210.426 31.8483C209.841 31.0167 209.355 29.9619 208.955 28.6606L210.11 28.2294C210.38 29.1149 210.68 29.8464 211.057 30.4778C211.427 29.4768 211.712 28.3064 211.889 26.9897H209.217C209.918 25.7732 210.803 23.9714 211.519 22.3391H208.801V20.9916H213.675C213.005 22.4622 212.174 24.2101 211.458 25.6423H212.289L212.574 25.5961L213.444 25.8271V25.8348ZM217.317 22.6008H214.299V21.3843H217.317V20.083H218.765V21.3843H222.384V23.6018H223.415V24.8184H222.384V27.0513H218.765V28.0831H222.638V29.2535H218.765V30.37H223.2V31.6173H218.765V33.0341H217.317V31.6173H213.413V30.37H217.317V29.2535H214.083V28.0831H217.317V27.0513H214.199V25.8348H217.317V24.8184H213.298V23.6018H217.317V22.6008ZM218.765 22.6008V23.6018H220.998V22.6008H218.765ZM220.998 24.8184H218.765V25.8348H220.998V24.8184Z" fill="white"/>
<path d="M234.834 22.1467C234.318 22.832 233.718 23.4634 233.148 23.9485C232.932 23.679 232.417 23.1477 232.116 22.8936C233.102 22.1467 234.072 21.0071 234.603 19.8599L235.974 20.2911C235.874 20.5066 235.758 20.7222 235.643 20.9378H239.6V22.139H236.728C237.198 22.5702 237.699 23.1246 237.96 23.4711L236.913 24.3027C236.628 23.8561 235.997 23.1477 235.512 22.6472L236.213 22.1313H234.842L234.834 22.1467ZM237.991 32.1873C236.944 33.4577 235.088 34.5588 233.333 35.0747C233.102 34.6897 232.647 34.1199 232.301 33.8042C233.972 33.4346 235.789 32.6338 236.705 31.7022L237.991 32.1873ZM240.478 30.2161H247.2V31.4481H240.478V35.2826H238.992V31.4481H232.332V30.2161H238.992V29.3306C238.738 29.0996 238.407 28.7993 238.176 28.6453C239.177 28.2912 239.778 27.8754 240.163 27.4442C239.631 27.1978 239.108 26.9437 238.646 26.7435L239.215 25.8426C239.647 26.012 240.147 26.2276 240.648 26.4432C240.678 26.2584 240.694 26.0736 240.694 25.8965V25.3806H238.923V24.3104H244.944V27.6444C244.944 27.9293 244.944 28.091 245.013 28.1603C245.06 28.2142 245.144 28.2296 245.229 28.2296H245.599C245.699 28.2296 245.799 28.2142 245.868 28.1834C245.914 28.1295 245.984 28.0294 246.022 27.8369C246.053 27.6521 246.068 27.1824 246.091 26.6203C246.361 26.8359 246.792 27.0515 247.146 27.167C247.115 27.783 247.046 28.4836 246.946 28.7377C246.846 29.0072 246.677 29.1843 246.446 29.3075C246.245 29.423 245.914 29.4615 245.645 29.4615H244.859C244.505 29.4615 244.089 29.3614 243.858 29.1458C243.589 28.9148 243.504 28.5991 243.504 27.6444V25.396H241.987V25.9427C241.987 26.2892 241.957 26.6588 241.856 27.013C242.442 27.2825 242.958 27.5443 243.343 27.7676L242.773 28.7993C242.419 28.5837 241.926 28.3297 241.371 28.0525C241.056 28.4836 240.601 28.884 239.97 29.2228H240.486V30.2392L240.478 30.2161ZM232.417 28.168C233.086 28.0833 233.903 27.9832 234.803 27.8677V25.5346H232.617V24.4181H238.338V25.5346H236.22V27.6829C236.906 27.5828 237.637 27.4827 238.338 27.3826L238.384 28.5683C236.328 28.884 234.195 29.1843 232.594 29.4153L232.409 28.168H232.417ZM247.316 20.9609V22.1621H244.043C244.474 22.5625 244.929 23.0322 245.16 23.3787L244.059 24.1795C243.774 23.7483 243.189 23.0938 242.688 22.6087L243.373 22.1621H241.687C241.233 22.8474 240.702 23.4634 240.17 23.9331C239.924 23.679 239.354 23.217 239.015 23.0014C239.985 22.2545 240.832 21.0995 241.287 19.883L242.703 20.2526C242.603 20.5066 242.503 20.7222 242.388 20.9686H247.308L247.316 20.9609ZM242.542 31.5867C243.989 32.2027 245.93 33.1574 246.946 33.8581L245.845 34.9592C244.913 34.2585 242.988 33.2267 241.51 32.5723L242.542 31.5867Z" fill="white"/>
<path d="M270.23 20.6758V35.2746H268.744V34.4892H258.034V35.3439H256.617V20.6758H270.23ZM268.744 33.2727V21.8769H258.034V33.2727H268.744ZM268.275 30.7009H266.003V32.033C266.003 32.5797 265.872 32.7645 265.472 32.88C265.056 33.0109 264.44 33.0109 263.47 33.0109C263.424 32.726 263.27 32.4257 263.139 32.1793C263.709 32.1947 264.309 32.1947 264.471 32.1947C264.656 32.1793 264.702 32.1254 264.702 31.9791V30.6932H258.511V29.7924H264.702V29.2457H266.003V29.7924H268.275V30.6932V30.7009ZM266.419 27.698C267.02 28.1446 267.666 28.7683 268.021 29.1687L267.189 29.8001C267.02 29.5845 266.789 29.3535 266.535 29.0994C263.701 29.1841 260.844 29.2688 258.796 29.315L258.727 28.4141C259.828 28.4141 261.199 28.3987 262.677 28.3833V27.698H259.258V24.3409H262.677V23.7403H258.688V22.824H262.677V22.1387H263.963V22.824H268.036V23.7403H263.963V24.3409H267.52V27.698H266.419ZM261.483 32.7568C261.214 32.3102 260.667 31.6557 260.167 31.2014L261.152 30.7009C261.653 31.1321 262.253 31.7558 262.523 32.187L261.491 32.7568H261.483ZM260.482 25.6653H262.685V25.0493H260.482V25.6653ZM262.685 26.9819V26.3505H260.482V26.9819H262.685ZM263.97 25.0493V25.6653H266.273V25.0493H263.97ZM266.273 26.9819V26.3505H263.97V26.9819H266.273ZM265.726 28.3525C265.626 28.2678 265.526 28.1831 265.426 28.1061L266.042 27.7057H263.97V28.391L265.726 28.3602V28.3525Z" fill="white"/>
<path d="M285.022 21.2607C284.552 22.6467 283.974 24.3792 283.451 25.6804C284.567 27.0125 284.821 28.1521 284.821 29.153C284.821 30.154 284.621 30.8085 284.136 31.155C283.882 31.309 283.582 31.4245 283.235 31.4707C282.935 31.5015 282.519 31.5015 282.134 31.4861C282.119 31.1165 282.003 30.5159 281.788 30.154C282.119 30.1848 282.404 30.1848 282.635 30.1694C282.835 30.1694 282.989 30.1155 283.135 30.0154C283.366 29.846 283.451 29.4687 283.451 28.9605C283.451 28.129 283.166 27.0587 282.08 25.8421C282.511 24.7103 282.95 23.2396 283.251 22.1231H281.464V35.336H280.094V20.7218H283.782L283.998 20.6679L285.014 21.253L285.022 21.2607ZM294.385 25.7805C293.753 26.2502 292.999 26.7507 292.283 27.1819C292.852 28.9836 293.953 30.9548 295.001 32.002C294.7 32.2176 294.231 32.7027 294 33.0337C292.929 31.8326 291.851 29.7613 291.197 27.8287L290.997 27.9288C291.828 30.6314 291.466 33.4803 290.496 34.3658C289.996 34.9125 289.495 35.0819 288.725 35.0973C288.41 35.0973 287.855 35.0819 287.409 35.0665C287.378 34.6661 287.262 34.0809 287.024 33.6805C287.578 33.7344 288.109 33.7498 288.44 33.7498C288.841 33.7498 289.126 33.6805 289.372 33.334C289.772 32.949 290.042 31.8326 289.988 30.4774C288.718 31.5323 286.97 32.5487 285.484 33.1492C285.268 32.7797 284.914 32.3023 284.567 32.0328C286.423 31.4476 288.641 30.2002 289.826 28.9836C289.742 28.6141 289.641 28.2291 289.511 27.8672C288.494 28.6834 287.093 29.5688 286.023 30.1001C285.838 29.7844 285.476 29.2839 285.191 28.9836C286.423 28.514 288.125 27.5823 289.064 26.7661C288.848 26.3657 288.617 25.9961 288.348 25.6342C287.416 26.3349 286.392 26.9509 285.43 27.4052C285.245 27.1203 284.814 26.5505 284.513 26.2887C285.846 25.7728 287.231 24.9874 288.271 24.0712H284.898V22.7237H287.886C287.486 22.1385 286.769 21.3762 286.115 20.8372L287.27 20.1058C288.04 20.7064 288.872 21.5379 289.257 22.1616L288.425 22.7314L290.127 22.7468C290.727 22.0153 291.412 20.8758 291.797 20.0596L293.284 20.5062C292.814 21.2915 292.252 22.1077 291.751 22.7391H294.608V24.0712H290.088C289.872 24.3407 289.603 24.5717 289.334 24.8257C289.865 25.4263 290.265 26.1116 290.581 26.8123C291.582 26.2117 292.683 25.3955 293.414 24.7565L294.4 25.7882L294.385 25.7805Z" fill="white"/>
</svg>
