<svg width="449" height="100" viewBox="0 0 449 100" fill="none" xmlns="http://www.w3.org/2000/svg">
<g clip-path="url(#clip0_101_744)">
<path fill-rule="evenodd" clip-rule="evenodd" d="M136.33 69.5556C137.174 77.8222 141.614 81.8667 149.652 81.8667C155.203 81.8667 158.977 79.6889 160.754 75.2H180.204C176.474 91.7333 166.171 100 149.519 100C138.683 100 130.335 96.3556 124.518 89.1111C119.233 82.7111 116.613 74.6222 116.613 64.7556C116.613 55.6 119.1 47.6444 124.251 40.8444C130.068 33.1556 138.15 29.2444 148.408 29.2444C159.51 29.2444 167.992 33.6 173.543 42C178.117 49.1111 180.47 58.2222 180.47 69.5556H136.33ZM148.542 47.3778C142.414 47.3778 138.817 50.5778 137.44 56.8H159.954C159.111 50.5778 155.38 47.3778 148.586 47.3778H148.542Z" fill="#E8410B"/>
<path fill-rule="evenodd" clip-rule="evenodd" d="M246.992 100L222.746 64.3111L198.589 100H174.698L210.845 49.4222L177.984 3.28889H201.963L222.746 33.8222L243.617 3.28889H267.508L234.736 49.4222L270.883 100H246.992Z" fill="#E8410B"/>
<path fill-rule="evenodd" clip-rule="evenodd" d="M313.425 21.7333V100H293.886V21.7333H265.332V3.28889H341.979V21.7333H313.425Z" fill="#E8410B"/>
<path fill-rule="evenodd" clip-rule="evenodd" d="M343.8 100V84.1778C355.745 73.4667 365.337 63.8667 372.531 55.4667C381.99 44.4444 386.697 36.3111 386.697 30.9333C386.697 24.8444 382.789 21.6444 375.151 21.6444C368.09 21.6444 364.449 26 364.449 34.4H344.022C344.288 24.5333 347.086 16.8444 352.637 11.3333C358.054 5.95556 365.692 3.2 375.418 3.2C384.299 3.2 391.537 5.51111 397.221 9.86667C403.35 14.8 406.547 21.6 406.547 30.4444C406.547 43.0667 395.001 60.1778 372.265 81.6445H407.524V99.9111H343.8V100Z" fill="#E8410B"/>
<path fill-rule="evenodd" clip-rule="evenodd" d="M429.639 100V30.4C425.953 32.6222 420.047 35.2889 411.831 38.4889V18.1778C421.157 14.1778 428.795 9.2 434.701 3.28889H448.956V100H429.594H429.639Z" fill="#E8410B"/>
<path fill-rule="evenodd" clip-rule="evenodd" d="M95.9638 100L58.351 39.4667V100H38.723V3.28889H57.6404L94.9868 63.5556V3.28889H114.526V100H95.9638Z" fill="#E8410B"/>
<path fill-rule="evenodd" clip-rule="evenodd" d="M0.532837 2.84444H8.17086V0H11.3682V2.84444H20.4272V0H23.6245V2.84444H31.3958V5.51111H23.6245V8.04444H29.6639V10.5778H26.1557V13.3778H31.3958V16.0444H26.1557V19.5556H30.2856V22.0889H17.6296V24.8889H29.2642V27.4222H17.6296V31.4222H14.4323V27.4222H2.7976V24.8889H14.4323V22.0889H1.73183V19.5556H6.12813V16.0444H0.666058V13.3778H6.12813V10.5778H1.99827V8.04444H8.17086V5.51111H0.532837V2.84444ZM14.4323 13.4222V10.6222H9.19222V13.4222H14.4323ZM9.19222 19.6H14.4323V16.0889H9.19222V19.6ZM11.3682 8.08889H20.4272V5.55556H11.3682V8.08889ZM23.136 13.4222V10.6222H17.6296V13.4222H23.136ZM17.6296 16.0889V19.6H23.136V16.0889H17.6296Z" fill="#231815"/>
<path fill-rule="evenodd" clip-rule="evenodd" d="M0.93258 38H10.5245C10.7021 36.7111 10.8354 35.3333 10.9686 33.9556H14.1659C14.0327 35.3778 13.855 36.7111 13.6774 38H31.2626V41.3333H13.2333C12.9669 42.8444 12.7005 44.3111 12.434 45.6H28.0653V48.0444C27.1772 51.6444 25.4897 54.7556 23.0473 57.4222C22.8697 57.6 22.7365 57.7333 22.6476 57.8222C25.1788 59.5556 28.1985 61.0222 31.7067 62.2667L29.8416 65.4667C25.845 63.7778 22.5588 62 20.1164 60C17.452 61.8667 13.8994 63.6444 9.36993 65.3333L7.63805 61.9556C11.8567 60.8 15.1873 59.4222 17.674 57.7778C15.0984 55.2444 13.2777 52.1778 12.212 48.5778H11.8567C11.4571 50.0889 11.0574 51.4667 10.5689 52.6667C8.83704 57.1556 6.30584 61.1556 2.84208 64.6667L0.666138 61.8667C3.64141 58.6667 5.95058 55.0667 7.59364 51.1111C8.5706 48.4889 9.36993 45.2444 10.036 41.3778H0.93258V38.0444V38ZM15.4537 48.5778C16.5195 51.5111 18.0737 53.9556 20.1608 55.8222C21.9815 54.1333 23.447 51.7333 24.5571 48.5778H15.4537Z" fill="#231815"/>
<path fill-rule="evenodd" clip-rule="evenodd" d="M0.266442 68.8444H12.1675V71.6444H10.7021V99.3333H7.90446V93.2444C5.81733 94.0444 3.41935 94.8 0.799327 95.5556L0 92.1778C0.488478 92.0889 0.976956 92 1.46543 91.9111V71.6H0.266442V68.8V68.8444ZM4.26308 75.9556H7.86005V71.6889H4.26308V75.9556ZM4.26308 83.2H7.86005V78.6222H4.26308V83.2ZM4.26308 91.3778C5.46207 91.0667 6.66106 90.7111 7.86005 90.2667V85.8667H4.26308V91.3778ZM16.031 67.7778C14.8764 70.6222 13.7218 72.8889 12.656 74.5778C12.1675 74.5778 11.6791 74.5778 11.235 74.5778L11.5014 76.9778C13.0113 76.8889 14.4767 76.8 15.8533 76.6667C14.832 77.9111 13.7218 79.2 12.4784 80.4889C11.9899 80.5333 11.457 80.5778 10.9241 80.5778L11.1906 83.1111C13.9438 82.8889 16.5194 82.5778 18.9174 82.1778C19.0062 82.5778 19.0506 83.0222 19.095 83.5111L21.5374 83.3778C21.1378 81.2889 20.6937 79.3778 20.2052 77.6L18.1625 77.8222C18.2957 78.4 18.4289 79.0667 18.5622 79.7778C17.6296 79.9111 16.7415 80.0444 15.8089 80.1333C18.5622 76.8889 20.5605 74.1778 21.8483 71.9556L19.7167 70.6222C19.1395 71.7778 18.4289 72.9333 17.5852 74.1333C16.8747 74.2222 16.1198 74.2667 15.4093 74.3111C16.475 72.8 17.4964 70.8889 18.5178 68.5778L15.9865 67.6444L16.031 67.7778ZM12.2564 85.0222V92.4H17.5852C17.4076 93.2889 17.0079 94.0444 16.3862 94.6667C15.4981 95.5556 13.855 96.2667 11.457 96.8444L12.9225 99.2889C15.5425 98.6222 17.4076 97.6444 18.5622 96.4444C19.8056 95.1111 20.4273 93.3333 20.5161 91.1111V84.5778H17.7184V89.7778H14.9208V85.0667H12.2564V85.0222ZM25.3564 67.8667L27.8876 68.8444C26.9551 71.1111 25.9781 73.0222 25.0012 74.5778C25.8449 74.5333 26.6887 74.4889 27.5324 74.4C28.1097 73.3333 28.6426 72.3556 29.0866 71.3778L31.2626 72.7111C30.1968 74.8444 28.5538 77.4667 26.289 80.5778C27.1327 80.4889 27.9765 80.4444 28.8646 80.3556C28.7314 79.6 28.5982 78.8444 28.4649 78.1778L30.5965 77.9111C31.085 79.6889 31.529 81.6 31.9287 83.6889L29.3975 83.8222C29.3531 83.3778 29.3087 82.9778 29.2199 82.6222C26.9995 82.8889 24.5571 83.1111 21.8927 83.2889L21.6707 80.8444C22.1591 80.8444 22.6476 80.8 23.1361 80.7556C24.2907 79.3333 25.312 77.9556 26.2002 76.6222C24.6459 76.7556 22.9585 76.8889 21.2266 76.9778L20.9601 74.7111C21.4042 74.7111 21.8039 74.7111 22.2479 74.7111C23.2693 73.0222 24.3351 70.7556 25.4009 67.9111L25.3564 67.8667ZM28.0209 85.0222H30.8185V93.2H25.2232V99.2444H22.4256V84.4889H25.2232V90.5333H28.0209V85.0222Z" fill="#231815"/>
</g>
<defs>
<clipPath id="clip0_101_744">
<rect width="449" height="100" fill="white"/>
</clipPath>
</defs>
</svg>
