<svg width="760" height="313" fill="none" xmlns="http://www.w3.org/2000/svg"><linearGradient id="svg1" gradientUnits="userSpaceOnUse" x1="0" y1="123.45" x2="760" y2="123.45"><stop offset="5.618000e-03" style="stop-color:#E6C57C"/><stop offset="0.6583" style="stop-color:#DFBD7C"/><stop offset="1" style="stop-color:#D1A450"/></linearGradient><path fill="url(#svg1)" d="M736.4,91v0.5H623.2c-6.3-4.7-14.4-7.1-22.5-8.1v22.7h-19.2v11.6h19.2v189.2c7.8,0.3,16.2-0.3,23.5-6.3v-16.2
	h112.1V298c6.3,7.3,18.8,8.1,23.5,6.8V82.4L736.4,91z M721.6,128l1.6-2.9l-88.6,0l1.1,2.9H721.6z M702.5,234l31.9-20.4l-14.6-18.1
	L702.5,234z M653.6,196.5v-24.6h50.6v24.6H653.6z M624.3,153.3h109.3l1.5-2.9h-48v-37c2.7-1.2,4.3-3.5,5-7.2l-21.2-5.3v49.5h-46.6
	v-55h112.1l0.1,184.8h0l0,0l-112.2,0v0V153.3z M621.7,256.4c11.8-3.9,23.6-11.1,32.6-18.9v19.1l-4.3,1.8l9.4,22.9
	c1.3-1.4,2.5-4.2,2.7-6.5l33.7-35.5l-26.5,11.2v-27.9c6-7,11.3-14.6,16.1-22c6.6,41.9,20.1,61.4,42,73.1c2.7-8.3,7.7-21,12.4-27.5
	c-27.5-3.5-42.8-24.7-53.3-46.7h17.8v0c3.4,4.1,8.6,6,14.3,5.1v-42.3l-14.4,6.2h-51.1c-4-3.5-8.9-5.5-14.9-6.4v48.2
	c5,0.2,10.8-0.4,15.4-4.5v-6.2h10.8C654.9,218.2,638.5,242.5,621.7,256.4z M442.7,196h-0.1h-17.5v-35.4c2.1-0.6,4.4-3.1,4.9-7.7
	l-22.5-5.1v63.5c3.7,0.6,14.3-0.7,17.6-6.1v-6.4h17.6v36h-41.1l1,2.9h7.6c0.6,30.8-6.2,54.7-17,74.6c20-17.4,30.1-29.9,31.7-74.6
	h17.8v73.6c3.7,0.6,13.1-0.7,16.4-6.1V157.4c2.3-0.6,4.5-2.9,5.1-7.7l-21.5-5.1V196z M266.1,263.8c0,31.9,7.6,34.8,24,34.8h55.7
	c24.3,0,31.6,1.3,34.8-19.6c-10.3-11-9.3-38-8.2-57.6c-7.8,28.2-15.4,55.7-29.3,55.7H301c-10.5,0-13.6-2.9-13.6-17.8l-0.1-148.5
	c5.2,0.8,8.9-6.5,7.6-10.5l-28.7-6L266.1,263.8z M267.1,226.4l-28.7,7.4l0-147.1c4.7,0,7.3-2.1,8.4-8.9l-30.3-6.5l0,119.1h-51.4v4.5
	h51.4v44.5l-22,5.5l11,33.5c2.1-0.8,4.7-3.4,4.7-8.1L267.1,226.4z M261.9,155.1l2.1-4.4l-67.9,0.1l1.6,4.4L261.9,155.1z
	 M321.5,210.2c15,8.5,15.7,22.8,15.7,27.8c27.7-6.3,27.7-23.8,28.2-36.9l1.1-54h11.3v-11.6h-11l0.2-11.8l-14.6,6.5l-102.2,39.7
	l2.6,3.4l92.9-36.1l-1.6,62.2c-0.5,8.1,0,14.4-7.8,13.3L321.5,210.2z M326.8,86.2c5.8,0.3,8.4-5.2,8.1-8.9l-29-6l-0.1,180
	c2.9,0.8,17.1-1.6,21-6V86.2z M98,226c7.7,38.6,28.7,68.9,66.7,78.7c1.3-7.6,6.3-18,17.2-35.3C145.1,267.7,116.3,251,98,226z
	 M0.2,306.5 M177,230l2.4-5L6.8,224.9l2.1,5L177,230z M101.5,210.9c4.7-0.3,7.6-3.7,8.4-7.8l-33.8-10.3c0,56.9-36.3,98.8-75.9,113.7
	C59.1,297.2,87.6,280.7,101.5,210.9z M527.1,155.8c4.4,1.3,7.4-3.1,6.5-6.3l-29-5l0.6,152h-32.7l0.8,4.1H570l2.6-4.1h-17v-87h16.6
	l2.1-4.5l-105.9-0.1l1.4,4.6h60.1v87h-2.2L527.1,155.8z M534.6,296.5h-2.5v-87h2.5V296.5z M539.3,296.5h-2.5v-87h2.5V296.5z
	 M544,296.5h-2.5v-87h2.5V296.5z M548.7,296.5h-2.5v-87h2.5V296.5z M553.4,296.5h-2.5v-87h2.5V296.5z M522.8,91.4
	c3.4-1,6.8-4.2,7.6-8.9l-29.3-5.6l0,57.4c4.5,0,16.5-0.2,21.7-5.9V91.4z M571.9,109.9l2.4-4.5l-183-0.1l1.8,4.5L571.9,109.9z
	 M459.5,91.9c2.9-1,6.5-4.2,7.3-8.9l-28.5-5.8V136c4.7,0,15.7-0.2,21.2-5.9L459.5,91.9z M101.9,117.2h70.6l2.3-4.5h-57.2
	c7.8-6.8,17.3-13.5,24-25.3c4.4,0,7.3-2.1,8.9-7.1l-33.1-11.5l-5.2,43.9H65.6c24-20.6,10.7-41.1-22.5-41.6
	c5.7,12,8.9,22.7,14.6,41.6H10.5l2.1,4.4h33.6v67.4H3.7v0.1l1.8,4.4h169.9v0l2.6-4.4h-76.1L101.9,117.2z M78.1,184.4H72V117h6.2
	L78.1,184.4z M160.4,152.2l2.4-4.4l-142.7-0.1l1.8,4.4L160.4,152.2z M69.8,184.4h-2.5V117h2.5V184.4z M65.1,184.4h-2.5V117h2.5
	V184.4z M60.4,184.4h-2.5V117h2.5V184.4z M55.7,184.4h-2.6V117h2.6V184.4z M50.9,184.4h-2.5V117h2.5V184.4z"/><path fill="#FFFFFF6b" d="M227,1c0,0.7-0.1,3-0.1,3.8c0,0.8-0.7,0.7-0.7-0.1c0-1.3-0.7-2.1-3.9-2.2l-4.2-0.1l0,18
	c0.1,4.8,0.6,4.3,3.1,4.5c0.8,0.1,0.8,0.6-0.5,0.6l-8.6,0c-1.4,0-1.3-0.6-0.5-0.6c1.8,0,2.3-0.2,2.3-4.5l0-18l-4.9,0.1
	c-2.5,0-3.2,0.5-3.8,2.1c-0.1,0.6-0.7,0.5-0.7-0.1l0.7-3.8c0.3-1.3,0.6-0.1,3.4-0.1h14.8C226.8,0.7,227-0.3,227,1z M256.6,24.9
	c-2.6,0-3.1-0.3-3.1-3.7V3.1c0-1.6,0.8-2,2-2c0.9,0.1,1-0.7,0-0.6h-8.9c-0.9-0.1-0.9,0.6-0.1,0.6c1.5,0,2.7,0.3,2.7,2l0.1,7.9h-13
	V6.3c0-4.5,0.2-5.1,2.1-5.1c1,0,1.2-0.6-0.4-0.6h-8.2c-1.4,0-1.2,0.6-0.4,0.6c2.7,0.1,2.8,0.4,2.8,5.1l-0.1,13.4
	c0,4.7-0.1,5.2-2.3,5.3c-0.8,0-0.7,0.6,0.1,0.6h9.3c0.8,0,1.1-0.6,0.1-0.6c-2.7-0.1-3.1,0.1-3.1-5.3v-6.8h13v8.4
	c0,3.5-0.9,3.8-2.3,3.7c-0.9,0-0.6,0.7,0.2,0.6c0,0,9.3,0,9.3,0C257.2,25.6,257.4,24.9,256.6,24.9z M276.2,21
	c-0.2,2.8-2.6,2.9-4.6,2.8c-3.4,0-3.9-0.5-4-2.8V13c0.8,0,4.3,0,4.9,0.1c1.8,0.2,1.9,1.3,2,2.5c0.1,0.6,0.6,0.4,0.6-0.3l0.4-4.2
	c0.1-1-0.4-0.7-0.7-0.3c-0.3,0.3-0.9,0.5-1.6,0.5c-0.8,0-4.8,0.1-5.5,0.1v-9l4.9,0.1c2.3,0.3,2.2,1,2.4,2.4c0.1,0.6,0.6,0.6,0.6,0.1
	l0.4-4.3c0.1-0.7-1.3,0.1-2.1,0.1h-8.3c-1.3,0-3.3-0.1-4.8-0.1c-0.9-0.1-1,0.6-0.2,0.6c1.5,0,2.7,0.3,2.7,2v17.9
	c-0.2,3.7-0.2,3.7-2.2,3.9c-0.8,0-0.6,0.7,0.1,0.6c4.8-0.2,7.9,0.1,13.3,0.1c1.3,0,1.6,0,1.8-0.9c0.2-0.7,0.4-2.9,0.4-3.7
	C276.9,20.4,276.3,20.3,276.2,21z M314.6,13.2h-8.6c-0.8-0.1-1,0.6-0.2,0.6c2.9,0,2.7,1,2.7,5.9c0,3.4,1,4.8-3.4,4.7
	c-10.4,0.6-15.2-14.1-8.4-20.5c4.8-3.9,14.6-2.1,15,3.3c0.1,0.7,0.8,0.6,0.7-0.3c0-4.1,0.2-5,0.2-5.4c0-0.2-0.1-0.4-0.5-0.4
	c-0.8,0-1.9-0.2-2.6-0.4c-9.7-1.9-20,0.5-20.5,12.4c-0.3,9.1,7.2,12.9,15.2,12.9c1.7,0,8.4-0.5,8.4-2.2c0,0,0-4.1,0-4.1
	c0-4.9,0.1-5.8,1.3-5.8C315.7,13.8,315.3,13,314.6,13.2z M358.4,21.1c-0.1,0.8-0.3,3-0.4,3.7c-0.2,0.9-0.5,0.9-1.8,0.9
	c-5.3,0-8.4-0.3-13.1-0.1c0,0,0,0,0,0c-5.8,0-6.7,0.8-11.2-5.5c-1.6-2.2-2.9-4.8-3.9-4.8h-3.1v4.9c0,4.2,0.1,4.8,2.8,4.8
	c0.8,0,1.1,0.6,0.1,0.6h-8.9c-0.8,0-1-0.6-0.1-0.6c1.9,0,2.3-0.2,2.3-4.8V3.3c0-2.9-3.3-1.6-3.3-2.4c0-0.6,1.8-0.2,5.2-0.2
	c3.8,0,7.6-0.8,10.7,1.3c3.7,3,2.8,8.3-2.1,11.9c3.9,4.5,7.8,11,11.3,11c2.1,0,2.1-0.2,2.2-3.9V3.1c0-1.7-1.2-2-2.7-2
	c-0.8,0-0.7-0.7,0.2-0.6c1.5,0,3.5,0.1,4.8,0.1h8.3c0.8,0,2.2-0.8,2.1-0.1l-0.4,4.3c0,0.5-0.5,0.5-0.6-0.1c-0.2-1.3-0.2-2.1-2.4-2.4
	l-4.9-0.1v9c0.7,0,4.8-0.1,5.5-0.1c0.7,0,1.3-0.2,1.6-0.5c0.3-0.4,0.8-0.7,0.7,0.3l-0.4,4.2c0,0.7-0.5,0.9-0.6,0.3
	c-0.1-1.2-0.1-2.3-2-2.5c-0.6-0.1-4.1-0.1-4.9-0.1v8.1c0.1,2.3,0.6,2.8,4,2.8c2,0,4.4-0.1,4.6-2.8C357.9,20.3,358.5,20.4,358.4,21.1
	z M324.9,2.3c0,0,0,11.1,0,11.1C334.6,16.6,334.6,0.3,324.9,2.3z M377.8,21c-0.2,2.8-2.6,2.9-4.6,2.8c-3.4,0-3.9-0.5-4-2.8V13
	c0.8,0,4.3,0,4.9,0.1c1.8,0.2,1.9,1.3,2,2.5c0.1,0.6,0.6,0.4,0.6-0.3l0.4-4.2c0.1-1-0.4-0.7-0.7-0.3c-0.3,0.3-0.9,0.5-1.6,0.5
	c-0.8,0-4.8,0.1-5.5,0.1v-9l4.9,0.1c2.3,0.3,2.2,1,2.4,2.4c0.1,0.6,0.6,0.6,0.6,0.1l0.4-4.3c0.1-0.7-1.3,0.1-2.1,0.1h-8.3
	c-1.3,0-3.3-0.1-4.8-0.1c-0.9-0.1-1,0.6-0.2,0.6c1.5,0,2.7,0.3,2.7,2v17.9c-0.2,3.7-0.2,3.7-2.2,3.9c-0.8,0-0.6,0.7,0.1,0.6
	c4.8-0.2,7.9,0.1,13.3,0.1c1.3,0,1.6,0,1.8-0.9c0.2-0.7,0.4-2.9,0.4-3.7C378.5,20.4,377.9,20.3,377.8,21z M408.3,0.6H401
	c-0.8-0.1-1.3,0.6-0.3,0.6c2,0,2.9,0.2,2.9,3.2l0.3,14.8l-17.7-18c-1-1-1.6-1.6-1.7,0.1l-0.3,19.4c-0.1,3.8-0.1,4.2-2.5,4.3
	c-0.9,0-0.6,0.7,0.2,0.6h7.7c0.8,0.1,1.1-0.6,0.2-0.6c-2.3-0.1-2.7-0.2-2.9-3.9l-0.4-13.8c0,0,13.3,13.4,17.7,17.9
	c0.7,0.7,1.6,1.3,1.6-0.3l0.4-20.8c0-2.4,0.6-2.9,2.2-2.9C409.4,1.2,409.1,0.5,408.3,0.6z M455.5,0.6h-6.2c-0.9-0.1-1,0.6-0.2,0.6
	c2.3,0.1,1.5,1.4,1.3,2.9l-4.4,14.8L439,2.2c-0.7-1.8-1.1-2.3-1.8-0.4l-6.5,17.2l-4.3-14c-0.4-2.1-1.7-3.8,0.5-3.9
	c0.8,0.1,0.8-0.7-0.1-0.6h-7.5c-0.9-0.1-1,0.6-0.2,0.6c1.5,0,1.9,0.8,2.5,2.6l7,21c0.7,2,1,1.5,1.9-0.5l6.5-16.4l6.9,16.6
	c0.8,2.2,1.3,2.2,2,0.1l6.6-19.6c1-2.5,1-3.7,3-3.7C456.3,1.2,456.2,0.5,455.5,0.6z M483,12.5c0,18.1-27,18.1-27,0.6
	C456-3.8,483-4.7,483,12.5z M478.4,13.7c0-13.5-17.3-18-17.8-1.7C460.2,26.1,478.4,29.7,478.4,13.7z M527.3,20.9
	c-0.5,4.6-0.2,4.7-2.6,4.7c-4.3,0-8.6-0.3-13.6-0.1c0,0,0,0,0,0c-5.8,0-6.7,0.8-11.2-5.5c-1.6-2.2-2.9-4.8-3.9-4.8H493v4.9
	c0,4.2,0.1,4.8,2.8,4.8c0.8,0,1.1,0.6,0.1,0.6h-8.9c-0.8,0-1-0.6-0.1-0.6c1.9,0,2.3-0.2,2.3-4.8V3.3c0-2.9-3.3-1.6-3.3-2.4
	c0-0.6,1.8-0.2,5.2-0.2c3.8,0,7.6-0.8,10.7,1.3c3.7,3,2.8,8.3-2.1,11.9c3.6,4.5,8.2,11,11.3,11c1.6,0,2.2-0.3,2.2-3.5V3.1
	c0-1.9-1.3-1.9-2.6-2c-0.8-0.1-0.7-0.6,0.2-0.6h9c0.9-0.1,1,0.6,0.1,0.6c-1.3,0-2.6,0.1-2.5,2L517.3,19c0,4.2,0.6,4.8,3.4,4.8
	c3.6,0,5.5,0.1,6-2.9C526.7,20.2,527.4,20.2,527.3,20.9z M492.9,2.3c0,0,0,11.1,0,11.1C502.6,16.6,502.7,0.3,492.9,2.3z M541.3,25.8
	l-11.2-0.3c-0.9,0-1-0.6-0.1-0.6c1.4,0,2.1-0.3,2.2-1.9V3.1c0-1.7-1.2-2-2.7-2c-0.8,0-0.7-0.7,0.2-0.6h12.5
	C561.3,0.6,560.8,25.8,541.3,25.8z M539,2.1c-1,0-2.5-0.2-2.5,0.9v17.4c0,3.1,0.6,3.8,4.7,3.8C556.2,24.3,555,2.1,539,2.1z"/></svg>