<svg width="270" height="28" viewBox="0 0 270 28" fill="none" xmlns="http://www.w3.org/2000/svg">
<path d="M26.48 0.419922H0V26.8999H26.48V0.419922Z" fill="#A12E2C"/>
<path d="M12.22 6.14916C12.31 5.54916 13 4.65916 12.19 4.22916C11.87 4.01916 11.56 4.28916 11.26 4.34916C10.26 4.30916 9.31 4.36916 8.28 4.22916C7.66 4.29916 7.09 4.05916 6.56 4.12916C6.34 4.33916 6.04 4.79916 6.34 5.11916C6.89 5.05916 7.51 5.15916 8 4.94916C9.08 5.24916 10.29 5.03916 11.38 4.94916L11.51 5.08916C11.51 6.03916 10.76 5.18916 10.37 5.52916C9.07 5.42916 7.97 5.62916 6.59 5.52916L6.38 5.91916C6.71 6.94916 6.52 8.25916 6.45 9.36916C6.12 9.75916 5.76 10.2692 5.11 10.1392C4.9 10.1692 4.78 9.85916 4.65 9.99916C4.49 10.2192 4.63 10.5392 4.77 10.6692C5.09 10.9592 5.75 11.2592 6.16 10.9592C6.33 10.8592 6.55 10.6992 6.69 10.7692C7.15 9.58916 7.17 8.45916 7.28 7.12916C7.4 6.82916 7.04 6.55916 7.36 6.33916C7.73 6.56916 8.11 6.19916 8.49 6.42916C8.1 6.48916 8.45 7.10916 7.95 6.87916C7.75 7.09916 7.57 7.16916 7.54 7.46916C7.64 7.64916 7.9 7.67916 8 7.67916C8.06 7.65916 8.09 7.71916 8.13 7.74916C8.26 7.68916 8.4 7.61916 8.53 7.55916C8.63 7.71916 8.62 7.99916 8.52 8.15916C8.28 8.18916 8.08 8.11916 7.93 7.94916C7.7 8.13916 7.38 8.22916 7.45 8.60916C7.4 8.97916 7.72 9.05916 8.04 9.01916C8.16 9.14916 8.08 9.45916 8.1 9.54916C8.27 10.0392 8.04 10.5192 8.01 11.0092C8.11 11.2592 8.37 11.3892 8.6 11.4792C9.09 11.3292 9.35 10.7192 9.62 10.2992C9.74 10.2992 9.8 10.4392 9.88 10.4992C9.82 10.8492 10.32 10.9792 10.33 11.2992C10.46 11.3492 10.62 11.5192 10.72 11.4392C10.9 11.4892 11.03 11.6292 11.25 11.5792C11.46 11.5592 11.68 11.3592 11.85 11.4592C12.13 11.3292 12.05 11.0392 12.26 10.8692C12.02 10.8492 11.78 10.6192 11.53 10.7892C11.14 10.4592 10.48 10.3692 10.15 9.89916C10.48 9.62916 10.9 9.27916 11.36 9.18916C11.44 8.99916 11.16 8.94916 11.17 8.78916C11.31 8.58916 11.46 8.94916 11.57 8.65916L11.64 8.72916C11.86 8.74916 12.12 8.71916 12.24 8.60916C12.18 8.62916 12.15 8.57916 12.11 8.53916L12.31 8.33916C12.13 8.13916 11.82 8.13916 11.52 8.18916C11.33 7.98916 10.66 8.33916 10.86 7.77916C10.86 7.29916 11.41 7.54916 11.66 7.39916C11.93 7.63916 11.78 7.11916 12 7.13916C11.72 6.83916 11.46 7.06916 11.07 6.98916C10.71 6.81916 11.24 6.55916 10.88 6.38916C11.28 6.40916 11.55 6.11916 11.95 6.13916C12.04 6.12916 12.14 6.29916 12.22 6.13916V6.14916ZM8.96 10.2692C8.96 9.88916 8.67 9.46916 8.98 9.13916C8.98 9.57916 9.49 9.63916 9.49 10.0792L8.96 10.2692ZM9.9 9.35916C9.6 9.29916 9.68 8.89916 9.44 8.81916C9.71 8.83916 10.01 8.77916 10.23 8.89916C10.13 9.05916 10.05 9.21916 9.89 9.35916H9.9ZM10.19 8.10916L9.2 7.95916C9.14 7.63916 9.43 7.59916 9.6 7.63916C9.74 7.55916 10.02 7.72916 10.2 7.57916C10.24 7.76916 10.41 7.93916 10.2 8.10916H10.19ZM10.21 6.84916L10.27 6.91916C10.05 7.11916 9.79 6.80916 9.61 6.90916C9.19 6.93916 9.23 6.60916 8.95 6.42916H8.62C9.2 6.38916 9.75 6.24916 10.34 6.38916C10.19 6.49916 10.05 6.69916 10.2 6.84916H10.21Z" fill="#E4E1E0"/>
<path d="M12.68 18.2693C12.57 18.3693 12.33 18.3593 12.22 18.2693C11.98 18.4193 11.63 18.2493 11.42 18.3193L11.35 18.2493C11.24 18.1993 11.18 18.3293 11.08 18.3093C10.66 18.2193 10.09 18.2393 9.96 17.7593C10.28 17.3093 10.92 17.5293 11.36 17.5193C11.61 17.4793 11.78 17.3693 11.9 17.1993C11.8 17.0393 11.64 17.0193 11.51 16.9293C11.35 17.2293 11.11 16.9293 10.91 16.9193C10.68 16.9193 10.21 16.9093 9.98 16.8993C10.05 16.7493 9.98 16.5393 10.19 16.4393C10.7 16.4793 11.4 16.4293 11.85 16.2693V16.1393C11.71 16.0593 11.58 15.9593 11.39 15.9993C11.22 15.8793 11.02 16.2493 10.99 15.9293C10.84 15.9293 10.63 16.2193 10.53 15.9293C10.48 16.0493 10.35 15.9693 10.26 15.9893C10.19 15.9093 10.09 15.8493 10.13 15.7193C10.28 15.6493 10.41 15.5493 10.6 15.5893C10.88 15.6793 11.13 15.4593 11.4 15.4093C11.42 15.3193 11.35 15.1893 11.47 15.1493C11.18 14.7693 11.7 14.6993 11.88 14.4893C12.03 14.5393 12.14 14.6793 12.34 14.6293C12.58 14.3293 12.86 14.7293 13.14 14.5093C13.02 14.4093 13.14 14.1993 13.01 14.1093C12.8 14.1493 12.57 14.0193 12.41 14.0993C12.35 13.9793 12.19 14.0493 12.08 14.0293C11.26 14.1293 12.24 13.5393 12.03 13.1693C11.63 12.4693 11.15 13.4993 10.5 13.1393C10.31 13.0793 10.16 12.8493 10.31 12.6693C10.25 12.3393 9.98 12.0893 9.59 12.1893C9.43 12.3693 9.07 12.5893 9.11 12.9093C8.75 13.1193 8.18 13.0393 7.78 12.9493C7.46 13.1293 7.83 13.3493 7.7 13.6093C7.79 13.5993 7.89 13.7693 7.96 13.6093L8.09 13.7493C7.84 13.8893 7.7 14.0293 7.55 14.2693C7.63 14.4193 7.62 14.6793 7.81 14.7393L9.07 14.4993C9.13 14.6293 9.22 14.7393 9.2 14.8993C8.73 15.1093 8.27 14.7293 7.81 14.9393C7.55 15.2393 7.99 15.4293 7.93 15.7393C8.06 15.8193 8.36 15.8993 8.46 15.6793C8.69 15.5793 9.03 15.5893 9.26 15.6893C9.16 16.4893 7.74 15.5393 7.85 16.5893C8.06 16.9693 8.52 16.4593 8.91 16.5393C9.14 16.4993 9.43 16.5793 9.3 16.8793C9.03 17.0193 8.68 17.1493 8.37 16.9993L8.23 17.1293C7.77 17.1293 7.72 17.7493 7.16 17.5093C6.79 17.0793 7.56 16.8093 7.45 16.3193C7.65 15.9893 7.66 15.3993 7.47 15.0593C7.16 14.5893 6.46 14.8093 6.01 14.8393C5.93 14.8893 5.81 15.0393 5.74 14.8993L5.6 15.0293C5.54 14.8993 5.41 15.0493 5.33 15.0893C5.33 15.2693 5.03 15.4793 5.33 15.6193C5.51 16.1293 5.8 15.6193 6.13 15.6293C6.46 15.7193 6.72 15.1993 6.99 15.5793C6.95 16.1093 6.81 16.5893 6.57 17.0293C6.46 17.1293 6.35 17.2893 6.17 17.2193C6.03 17.1693 5.79 17.1693 5.64 17.2193C5.78 17.3193 5.62 17.5793 5.77 17.6193C5.9 17.9393 5.32 18.0593 5.09 18.2693C4.87 18.4993 4.99 18.7793 5.14 18.9993C5.6 18.7693 6.21 18.6693 6.42 18.0893C6.73 18.0293 6.94 18.1993 7.21 18.2393C7.55 17.9893 7.74 18.4393 8.07 18.3893C8.28 18.7093 8.68 18.5693 8.93 18.7993C9.28 18.7593 9.39 19.2493 9.79 19.0793C10.39 19.3293 11.06 19.4393 11.7 19.5793C12.23 19.4393 12.7 19.1393 13.11 18.6793C13.21 18.5493 13.22 18.2793 13.11 18.1493C12.92 18.1093 12.79 18.1993 12.64 18.2693H12.68ZM11.03 13.8593C10.78 14.0393 10.46 13.8793 10.21 13.8593L10.23 13.7193C10.56 13.6993 10.8 13.5193 11.02 13.8693L11.03 13.8593ZM10.88 14.5893C11.01 15.1393 10.42 14.8293 10.14 14.9093C9.92 14.4193 10.61 14.6393 10.88 14.5893ZM8.24 13.8093C8.4 13.6193 8.74 13.5993 9.04 13.6193C8.91 13.8793 8.47 13.6393 8.24 13.8093ZM9.36 18.0093C9.03 18.0793 8.84 17.8693 8.57 17.7993C8.53 17.5693 8.88 17.5393 8.97 17.7093C9.03 17.5793 9.16 17.6093 9.27 17.6193C9.45 17.6893 9.33 17.8893 9.36 18.0193V18.0093Z" fill="#E4E1E0"/>
<path d="M7.04 14.319L7.12 13.789C6.86 13.509 6.72 13.379 6.4 13.249C6.09 13.289 5.95 13.389 5.73 13.639C5.67 13.889 5.82 14.049 5.92 14.239C6.26 14.539 6.64 14.359 7.05 14.329L7.04 14.319Z" fill="#E4E1E0"/>
<path d="M14.28 6.04951C14.4 6.22951 14.3 6.56951 14.33 6.70951L14.26 6.77951C14.24 6.83951 14.29 6.86951 14.32 6.90951C14.36 7.44951 14.18 8.22951 14.42 8.76951C14.6 8.54951 14.82 8.46951 15.03 8.31951L14.9 8.11951C15.05 7.63951 14.9 7.27951 15.06 6.79951C14.94 6.63951 15.02 6.31951 15 6.19951C15.02 5.67951 15.6 5.69951 15.94 5.54951C17.29 5.50951 18.41 5.41951 19.65 5.60951L19.84 6.40951C19.95 7.20951 19.86 8.17951 19.86 8.92951C20.18 8.89951 20.01 8.50951 20.33 8.46951C20.37 8.49951 20.4 8.55951 20.46 8.53951L20.54 7.60951C20.67 6.69951 21 5.37951 20.33 4.61951C19.82 4.26951 19.72 4.91951 19.33 5.06951C18.85 4.94951 18.6 4.89951 18.07 4.91951C17.83 4.79951 17.99 4.51951 17.95 4.31951C17.83 3.57951 17.06 3.86951 16.7 3.96951C16.74 4.23951 16.58 4.57951 16.82 4.76951C16.24 5.04951 15.67 4.72951 15.09 4.99951C15.05 4.73951 14.77 4.74951 14.56 4.72951C13.77 4.96951 14.66 5.56951 14.27 6.04951H14.28Z" fill="#E4E1E0"/>
<path d="M21.18 9.75966C21.23 9.90966 21.09 9.97966 21.04 10.0897L20.97 10.0197L20.83 10.1497L20.7 10.0197C20.57 9.97966 20.51 10.0797 20.43 10.1497C20.17 9.96966 19.85 10.2297 19.63 10.1397C19.56 10.1397 19.47 10.1197 19.43 10.1997L19.36 10.1297C19.3 10.1097 19.27 10.1597 19.23 10.1897C19.08 10.0697 18.81 10.2297 18.7 9.97966L18.92 8.51966C18.79 8.25966 19 7.88966 18.93 7.65966C19.05 7.49966 18.98 7.25966 19.01 7.05966C19.35 6.85966 18.96 6.61966 18.96 6.39966C18.8 6.19966 18.63 6.06966 18.37 6.11966C17.96 6.45966 17.27 6.28966 16.78 6.21966L16.71 6.28966C16.49 5.95966 16.04 5.97966 15.72 6.06966C15.54 6.34966 15.72 6.64966 15.91 6.86966V10.0497L15.79 10.1797C15.37 10.0697 15.04 10.3697 14.66 10.1597C14.45 10.2297 14.21 10.2497 14.06 10.4797C14.06 10.5497 14.04 10.6397 14.12 10.6797L13.99 10.8097C14.05 11.9997 14.95 10.6997 15.51 11.0397C15.74 10.9497 16.02 10.9997 16.18 10.7197L16.31 10.8497L16.38 10.7897C16.63 11.0997 16.84 10.4697 17.04 10.8697C17.59 10.8597 18.19 10.9397 18.7 10.8297C18.81 10.8997 18.92 10.8997 19.03 10.8297C19.56 11.0197 20.09 10.7997 20.62 10.7897C21.03 10.9297 21.2 10.9097 21.55 10.6697C21.57 10.4597 21.55 10.2597 21.36 10.1397L21.63 9.87966L21.17 9.73966L21.18 9.75966ZM16.72 7.02966C17.18 7.11966 17.76 6.76966 18.04 7.18966V7.64966C17.87 7.60966 17.66 7.50966 17.5 7.64966L17.43 7.57966C17.14 7.82966 16.99 7.38966 16.7 7.42966V7.02966H16.72ZM17.63 8.23966C17.78 8.30966 17.99 8.23966 18.09 8.44966C18.12 8.71966 18.07 9.00966 17.75 8.96966C17.38 8.81966 17.13 8.96966 16.76 8.81966L16.69 8.88966C16.4 8.16966 17.28 8.35966 17.63 8.23966ZM17.67 10.0297C17.3 10.0897 17.06 9.86966 16.74 10.0797C16.62 9.95966 16.7 9.76966 16.68 9.60966C17.15 9.52966 17.65 9.54966 18.08 9.36966C18.1 9.45966 18.02 9.58966 18.14 9.63966C17.84 9.70966 17.97 9.95966 17.67 10.0297Z" fill="#E4E1E0"/>
<path d="M14.61 13.5897C14.72 13.6597 14.77 13.8597 14.94 13.7897V13.7197C15.16 13.7197 15.43 13.4297 15.6 13.7297C15.62 13.7897 15.57 13.8197 15.53 13.8597C15.65 13.9097 15.57 14.0397 15.59 14.1297C15.95 14.8397 14.95 14.4897 14.91 15.0497C14.79 15.2497 14.85 15.6197 14.83 15.7797C15.07 15.8797 15.45 15.8897 15.69 15.7897C15.82 15.8897 15.69 16.0897 15.82 16.1897C15.74 16.3497 15.57 16.3097 15.42 16.3197C15.25 16.3697 15.13 16.1697 15.09 16.0497C14.81 16.2297 14.66 16.5897 14.54 16.8997C14.65 17.2597 14.97 17.2197 15.26 17.1797C15.57 17.1397 15.93 17.0097 16.19 17.0597C16.57 16.8497 17.25 17.2597 17.46 16.7497C17.64 16.6197 17.42 16.4797 17.4 16.3497C17.09 16.3997 16.69 16.2497 16.34 16.1997L16.41 15.7997C16.52 15.4897 16.75 15.8497 16.88 15.6797C16.9 15.6197 16.85 15.5897 16.82 15.5497C16.83 15.2097 17.26 15.2297 17.3 14.8897C16.91 14.8397 16.55 14.7097 16.18 14.6097L16.26 13.6797C16.45 13.4397 16.79 13.5997 17.06 13.5597C17.04 13.2997 17.37 13.1097 17.27 12.8997L17.2 12.9697C16.49 13.1097 16.41 12.4797 16.02 12.1497C15.85 12.1097 15.65 12.1797 15.62 12.3397C15.53 12.4397 15.51 12.6597 15.55 12.7397L15.42 12.8697C15.01 12.5897 14.91 13.0597 14.55 13.1197C14.5 13.2997 14.62 13.4197 14.61 13.5897Z" fill="#E4E1E0"/>
<path d="M17.94 13.4499C18.07 14.0999 18.67 13.6199 19 13.5999C19.12 13.6499 19.04 13.7799 19.06 13.8699C19.12 14.1499 18.92 14.7299 19.45 14.6099C19.97 14.6699 19.83 14.0899 19.86 13.7599C20.11 13.4499 20.39 13.8199 20.72 13.7099C20.86 13.5099 20.66 13.4099 20.72 13.1799C20.39 12.8899 20.06 13.1799 19.73 12.8999L19.8 12.8299C19.82 12.7699 19.77 12.7399 19.74 12.6999C19.77 12.6599 19.83 12.6299 19.81 12.5699C19.79 12.1499 19.34 12.2399 19.08 12.3599C19.06 12.5399 18.83 12.7099 19 12.8899C18.84 13.0099 18.52 12.9299 18.4 12.9399C18.29 12.8899 18.22 12.7499 18.07 12.7999C17.82 12.9299 17.98 13.2399 17.93 13.4599L17.94 13.4499Z" fill="#E4E1E0"/>
<path d="M21.32 17.2901C21.3 17.4201 21.16 17.5001 21.11 17.6201L18.52 17.5701C18.31 17.4301 17.92 17.5901 17.86 17.2301C18.28 17.2701 18.83 17.2101 19.26 17.0601C19.57 17.0601 19.92 17.3701 20.19 17.0801C19.94 16.4101 20.72 16.0101 20.55 15.3001C20.22 15.0901 19.79 14.7201 19.43 14.9501C19.11 14.7701 18.79 15.0001 18.43 14.9301C18.26 14.6101 18.01 14.9601 17.9 15.0501C17.46 15.4101 18.12 15.6801 18.08 16.0501C17.76 16.3201 17.89 16.7901 17.66 17.1001C17.59 17.1001 17.5 17.1101 17.46 17.0301C17.2 17.2301 17.26 17.6601 16.79 17.4801C16.3 17.2901 15.64 17.5101 15.06 17.5201C14.66 17.3801 14.19 17.4401 13.86 17.7001C13.7 18.0101 13.83 18.3601 13.98 18.6301C14.3 18.4301 14.91 18.8201 15.05 18.3201C15.36 18.2501 15.84 18.1801 16.11 18.4101C16.02 18.4801 16.01 18.5801 15.97 18.6701C15.71 19.1401 15.2 19.3701 14.73 19.3801C14.77 19.3801 14.8 19.4001 14.83 19.4501L14.76 19.5101C14.96 19.5301 15.1 19.6701 15.29 19.7201C16.09 19.8301 16.4 18.8401 17.1 18.5601C17.08 18.4201 17.12 18.3101 17.24 18.2301C17.51 18.8101 17.2 19.3801 17.47 19.9601C17.72 19.9801 17.99 19.9801 18.07 19.7101L18 19.6401C18.1 19.4401 18.11 19.1101 18.01 18.9101C18.07 18.5201 18.11 18.0601 18.68 18.2601C19.11 18.4601 18.93 19.0101 19.06 19.4001C19.47 19.8701 20 19.3901 20.45 19.3601C20.55 19.4001 20.7 19.5001 20.78 19.3601C20.82 19.2301 20.72 19.1701 20.65 19.0901C20.05 19.2601 19.75 18.6201 19.4 18.3401C19.54 18.1201 19.66 18.5001 19.8 18.2801C20.06 18.4501 20.48 18.2301 20.66 18.4301L20.73 18.3601C20.88 18.3801 21.08 18.3101 21.19 18.4301C21.59 18.5001 21.49 18.0701 21.79 18.0401C22.03 17.5201 21.26 17.7101 21.27 17.3001L21.32 17.2901ZM19.75 15.7401L19.67 16.3401C19.52 16.4401 19.14 16.4301 18.94 16.3301L18.88 15.8701C19.17 15.8301 19.5 15.6901 19.74 15.7501L19.75 15.7401Z" fill="#E4E1E0"/>
<path d="M5.35 23.2493L6.99 21.5793L5.51 21.5493V21.3193L7.48 21.3393V21.4993L5.85 23.1593L7.48 23.1893V23.4093L5.35 23.3893V23.2293V23.2493Z" fill="#E4E1E0"/>
<path d="M8.11 22.7389C8.11 23.1089 8.44 23.2589 8.82 23.2689C9.09 23.2689 9.26 23.2389 9.4 23.1989L9.47 23.3889C9.33 23.4289 9.1 23.4789 8.77 23.4789C8.13 23.4789 7.75 23.1589 7.75 22.7189C7.75 22.2689 8.13 21.9189 8.74 21.9189C9.42 21.9189 9.6 22.3589 9.59 22.6289C9.59 22.6889 9.59 22.7289 9.58 22.7589L8.12 22.7389H8.11ZM9.22 22.5589C9.22 22.3889 9.13 22.1189 8.7 22.1089C8.31 22.1089 8.14 22.3589 8.11 22.5389H9.22V22.5589Z" fill="#E4E1E0"/>
<path d="M10.07 22.379C10.07 22.219 10.07 22.099 10.06 21.979H10.4L10.42 22.229C10.53 22.089 10.77 21.959 11.11 21.959C11.4 21.959 11.85 22.089 11.84 22.599V23.489H11.45V22.629C11.46 22.389 11.34 22.179 10.98 22.179C10.73 22.179 10.54 22.299 10.47 22.449C10.45 22.479 10.44 22.529 10.44 22.579V23.479H10.05V22.389L10.07 22.379Z" fill="#E4E1E0"/>
<path d="M12.94 22.8389L12.63 23.4889H12.24L13.25 21.4189H13.7L14.67 23.5189H14.27L13.97 22.8589H12.94V22.8389ZM13.9 22.6389L13.62 22.0389C13.56 21.8989 13.52 21.7789 13.48 21.6589H13.47C13.43 21.7789 13.38 21.9089 13.32 22.0289L13.03 22.6289H13.91L13.9 22.6389Z" fill="#E4E1E0"/>
<path d="M15.1 22.4998C15.1 22.3198 15.1 22.1698 15.09 22.0298H15.42L15.43 22.3298H15.44C15.54 22.1298 15.77 22.0098 16.03 22.0098C16.07 22.0098 16.1 22.0098 16.13 22.0198V22.2698C16.13 22.2698 16.05 22.2698 15.99 22.2698C15.72 22.2698 15.53 22.4098 15.48 22.6098C15.48 22.6498 15.47 22.6898 15.47 22.7398V23.5398H15.08L15.1 22.5098V22.4998Z" fill="#E4E1E0"/>
<path d="M17.96 23.4998C17.86 23.5298 17.64 23.5798 17.36 23.5798C16.73 23.5798 16.32 23.2598 16.33 22.7998C16.33 22.3398 16.78 22.0098 17.46 22.0198C17.69 22.0198 17.88 22.0698 17.99 22.1098L17.9 22.3198C17.81 22.2798 17.67 22.2498 17.46 22.2398C16.98 22.2398 16.72 22.4898 16.71 22.7998C16.71 23.1498 17.02 23.3598 17.43 23.3698C17.65 23.3698 17.79 23.3398 17.9 23.2998L17.96 23.4998Z" fill="#E4E1E0"/>
<path d="M18.44 21.3691H18.82L18.81 22.3091C18.87 22.2291 18.97 22.1591 19.08 22.1191C19.19 22.0691 19.33 22.0491 19.47 22.0491C19.75 22.0491 20.2 22.1791 20.19 22.6991V23.5891H19.8V22.7291C19.81 22.4891 19.69 22.2791 19.33 22.2791C19.08 22.2791 18.89 22.3991 18.82 22.5391C18.8 22.5791 18.79 22.6191 18.79 22.6691V23.5691H18.4L18.43 21.3791L18.44 21.3691Z" fill="#E4E1E0"/>
<path d="M21.01 21.8197C20.87 21.8197 20.77 21.7397 20.77 21.6397C20.77 21.5397 20.87 21.4697 21.02 21.4697C21.17 21.4697 21.26 21.5497 21.26 21.6497C21.26 21.7497 21.16 21.8197 21.01 21.8197ZM20.81 23.5897L20.83 22.0997H21.21L21.19 23.5997H20.81V23.5897Z" fill="#E4E1E0"/>
<path d="M45.95 26.6105L44.71 24.3005C45.91 24.1705 47.42 23.9505 49.23 23.6305L49.27 17.3105L45.05 17.2805L44.88 16.7305C44.18 20.7405 42.74 24.0105 40.57 26.5205L40.19 26.2305C41.56 23.8105 42.52 20.9305 43.06 17.5705C43.44 15.1505 43.64 12.1105 43.67 8.46047L43.69 4.53047C43.69 2.82047 43.63 1.47047 43.48 0.480469L45.89 1.57047L61.73 1.66047L62.17 1.11047C62.17 1.11047 62.28 1.00047 62.37 0.910469C62.57 0.680469 62.72 0.560469 62.84 0.560469C63.03 0.560469 63.44 0.810469 64.07 1.29047C64.7 1.78047 65.01 2.13047 65.01 2.34047C64.78 2.61047 64.38 2.80047 63.81 2.92047V4.55047C63.8 4.80047 63.81 5.13047 63.82 5.54047C63.85 6.49047 63.89 7.20047 63.92 7.67047C63.82 7.83047 63.59 7.98047 63.22 8.15047C62.85 8.32047 62.52 8.39047 62.23 8.39047H61.97V7.40047L45.46 7.30047V8.46047C45.43 11.6405 45.25 14.2905 44.91 16.4105L50.5 16.4405L50.52 12.2805H48.89C47.96 12.2805 47.01 12.4205 46.03 12.6605L45.28 11.1405C46.25 11.2605 47.43 11.3505 48.83 11.3905H50.52C50.52 9.93047 50.47 8.72047 50.34 7.79047C51.64 8.21047 52.44 8.52047 52.75 8.74047C52.98 8.92047 52.97 9.09047 52.72 9.26047L52.28 9.52047V11.4105L57.39 11.4405C57.39 9.98047 57.34 8.79047 57.21 7.86047C58.53 8.28047 59.34 8.59047 59.65 8.81047C59.88 8.99047 59.86 9.16047 59.59 9.33047L59.15 9.59047V11.4505L61.85 11.4705L62.41 10.6605C62.45 10.6005 62.52 10.5105 62.62 10.4005C62.89 10.0305 63.09 9.85047 63.2 9.85047C63.39 9.85047 63.81 10.1405 64.45 10.7205C65.09 11.3005 65.41 11.6905 65.4 11.9005C65.32 12.2105 65.07 12.3605 64.64 12.3605L59.14 12.3305L59.12 16.4905L62.56 16.5105L63.09 15.7005C63.13 15.6405 63.19 15.5605 63.27 15.4405C63.54 15.0505 63.74 14.8605 63.86 14.8605C64.05 14.8605 64.47 15.1505 65.12 15.7405C65.77 16.3305 66.09 16.7305 66.09 16.9405C66.01 17.2505 65.78 17.4005 65.39 17.4005L54.88 17.3405C55.59 18.8805 56.58 20.1705 57.86 21.2305C59.56 20.1105 61.03 18.8505 62.28 17.4405C63.3 18.2605 63.92 18.8205 64.13 19.1105C64.3 19.3605 64.24 19.4905 63.95 19.4905H63.43C62.42 20.0005 60.74 20.7305 58.41 21.6705C60.38 23.1405 62.98 24.1705 66.19 24.7705L66.16 25.0905C65.36 25.2405 64.85 25.7805 64.61 26.7105C61.88 25.9205 59.7 24.8005 58.08 23.3505C56.36 21.8505 55.08 19.8405 54.24 17.3305L51.01 17.3105L50.97 23.3405C51.49 23.2505 52.3 23.1005 53.39 22.9205C54.89 22.6605 56.01 22.4605 56.77 22.3305L56.85 22.8305C53.14 24.0505 49.7 25.1005 46.55 25.9705C46.47 26.3005 46.27 26.5105 45.93 26.6105H45.95ZM45.49 6.43047L62 6.53047L62.02 2.54047L45.51 2.44047L45.49 6.43047ZM52.27 16.4505L57.39 16.4805L57.41 12.3205L52.29 12.2905L52.27 16.4505Z" fill="white"/>
<path d="M70.03 26.0502L69.28 24.5602C70.35 24.6802 71.64 24.7702 73.15 24.8202H75.48L75.55 13.6002C75.56 11.1502 75.45 9.16023 75.21 7.63023L77.68 8.75023L87.23 8.81024L87.67 8.06024C87.67 8.06024 87.73 7.95023 87.79 7.86023C88.01 7.49023 88.18 7.31023 88.32 7.31023C88.51 7.31023 88.94 7.61023 89.61 8.20023C90.28 8.80023 90.61 9.20023 90.61 9.41023C90.39 9.68023 89.98 9.85023 89.35 9.93023L89.26 24.9202H91.3L91.92 24.0002C91.96 23.9402 92.03 23.8502 92.13 23.7102C92.42 23.2702 92.63 23.0402 92.75 23.0402C92.94 23.0402 93.4 23.3702 94.13 24.0402C94.85 24.7002 95.22 25.1402 95.21 25.3602C95.13 25.6502 94.89 25.8002 94.48 25.7902L74.42 25.6702C73.04 25.6702 71.59 25.8102 70.05 26.0502H70.03ZM69.93 8.90023C69.81 8.63023 69.83 8.34023 69.96 8.03023C70.08 7.76023 70.28 7.53023 70.58 7.34023C71.24 6.96023 71.79 6.34023 72.22 5.49023C72.67 4.56023 72.87 3.57023 72.82 2.52023L73.29 2.49023C73.46 3.07023 73.57 3.61023 73.63 4.09023L81.32 4.13023C81.32 2.50023 81.25 1.12023 81.08 -0.00976562C82.51 0.410234 83.4 0.730234 83.75 0.970234C84 1.15023 83.98 1.33023 83.69 1.52023L83.19 1.84023V4.14023L92.03 4.19023L92.56 3.49023C92.56 3.49023 92.65 3.39023 92.71 3.32023C92.98 2.97023 93.19 2.80023 93.32 2.80023C93.49 2.80023 93.87 3.13023 94.45 3.80023C95.03 4.46023 95.32 4.90023 95.32 5.12023C95.18 5.27023 94.85 5.38023 94.33 5.43023H94.27C93.39 6.51023 92.27 7.55023 90.9 8.55023L90.52 8.34023C91.07 7.32023 91.57 6.22023 92.02 5.06023L73.65 4.95023C73.66 5.90023 73.49 6.75023 73.14 7.48023C72.86 8.10023 72.49 8.58023 72.03 8.93023C71.64 9.22023 71.24 9.36023 70.83 9.36023C70.38 9.38023 70.08 9.22023 69.93 8.89023V8.90023ZM77.26 24.8402L87.45 24.9002L87.48 20.2402L77.29 20.1802L77.26 24.8402ZM77.29 19.3102L87.48 19.3702L87.51 14.9202L77.32 14.8602L77.29 19.3102ZM77.32 13.9802L87.51 14.0402L87.54 9.64023L77.35 9.58023L77.32 13.9802Z" fill="white"/>
<path d="M98.62 26.9202L98.36 26.4802C100.33 24.9202 101.87 22.7802 102.97 20.0702C102.36 18.8802 101.8 17.4102 101.31 15.6602C100.7 16.8202 100.19 17.7502 99.78 18.4502C99.93 18.6802 99.92 18.9102 99.75 19.1202L98.39 17.7402C99.62 16.5302 100.53 15.5702 101.11 14.8702L101.41 13.5902L102.4 13.9202L101.64 15.0502C102.08 16.5902 102.64 17.9502 103.33 19.1302C103.96 17.1702 104.42 14.7702 104.71 11.9202L101.65 11.9002C101.53 12.0902 101.38 12.3902 101.18 12.8002C101.04 13.0902 100.93 13.3002 100.86 13.4402C100.37 13.5702 99.82 13.5002 99.2 13.2302C100.91 9.80019 102.38 6.5702 103.62 3.5302H102.05C101.18 3.5302 100.24 3.6702 99.25 3.9102L98.5 2.3902C99.47 2.5102 100.63 2.6002 101.99 2.6402H103.68L104.15 2.0102C104.19 1.9702 104.25 1.9002 104.33 1.8102C104.54 1.5202 104.71 1.3802 104.83 1.3802C105 1.3802 105.38 1.6702 105.95 2.2602C106.52 2.8402 106.8 3.2502 106.8 3.4602C106.57 3.6902 106.13 3.8402 105.49 3.8902C104.27 6.5602 103.13 8.9502 102.07 11.0602H104.52L104.99 10.5202C105.03 10.4802 105.07 10.4302 105.11 10.3802C105.36 10.0902 105.56 9.9502 105.69 9.9502C105.88 9.9502 106.25 10.2002 106.79 10.7002C107.33 11.2002 107.6 11.5502 107.6 11.7702C107.42 11.9802 107.07 12.1202 106.55 12.1702C106.14 15.5502 105.4 18.3602 104.32 20.6302C105.55 22.1502 107.22 23.2102 109.31 23.8002C111.05 24.2802 113.55 24.5202 116.79 24.5402C120.58 24.5602 123.12 24.5602 124.42 24.5302V24.9402C123.66 25.0702 123.25 25.5602 123.19 26.4202L116.64 26.3802C113.32 26.3602 110.74 26.0302 108.9 25.4002C106.79 24.6902 105.11 23.4102 103.86 21.5602C102.57 23.8002 100.83 25.5902 98.65 26.9202H98.62ZM113.72 23.7502C113.37 23.7502 113.2 23.5502 113.2 23.1702C113.24 22.8402 113.28 22.3802 113.32 21.8002C113.32 21.5302 113.33 21.3002 113.35 21.1302V19.7902L111.03 19.7802C109.65 19.7902 108.2 19.9202 106.66 20.1602L105.94 18.6702C107.01 18.7902 108.3 18.8802 109.81 18.9302L113.36 18.9502L113.38 15.8902H111.43C110.27 15.8902 109.06 16.0202 107.82 16.2702L107.07 14.7502C108.14 14.8702 109.43 14.9602 110.94 15.0002H113.39L113.41 12.0202H111.58C110.53 12.0202 109.42 12.1502 108.26 12.4002L107.48 10.9102C108.55 11.0302 109.84 11.1202 111.35 11.1702H113.42L113.44 8.1302L110.67 8.1102C109.29 8.1202 107.84 8.2502 106.3 8.4902L105.55 7.0002C106.62 7.1202 107.91 7.2102 109.42 7.2602L113.44 7.2802L113.46 4.2802H111.63C110.58 4.2802 109.49 4.4102 108.37 4.6602L107.62 3.2002C108.69 3.3202 109.98 3.4102 111.49 3.4502H113.47C113.47 2.1202 113.42 1.0302 113.29 0.200195C114.67 0.640195 115.52 0.970195 115.85 1.2102C116.08 1.3902 116.06 1.5702 115.79 1.7602L115.29 2.1102V3.4802L119.15 3.5002L119.59 2.8302C119.63 2.7702 119.69 2.7002 119.77 2.6002C119.98 2.3102 120.15 2.1702 120.27 2.1702C120.46 2.1702 120.86 2.4502 121.44 2.9902C122.03 3.5402 122.32 3.9202 122.32 4.1302C122.1 4.3602 121.72 4.5502 121.15 4.6802L121.13 7.3302H121.57L122.07 6.5202C122.11 6.4802 122.15 6.4102 122.19 6.3202C122.44 5.9102 122.64 5.7102 122.78 5.7102C122.95 5.7102 123.33 6.0002 123.9 6.5602C124.47 7.1302 124.75 7.5202 124.75 7.7302C124.67 8.0402 124.44 8.1902 124.05 8.1902L121.14 8.1702V9.5702C121.14 9.7802 121.14 10.0702 121.16 10.4102C121.19 11.2102 121.23 11.8102 121.27 12.2202C121.17 12.3902 120.94 12.5702 120.58 12.7402C120.22 12.9102 119.89 13.0002 119.6 13.0002H119.4V12.0702L115.24 12.0502L115.22 15.0502L119.33 15.0702L119.86 14.2902C119.92 14.2302 119.99 14.1402 120.07 14.0002C120.3 13.6702 120.48 13.5102 120.6 13.5102C120.79 13.5102 121.2 13.7902 121.82 14.3502C122.44 14.9102 122.75 15.2902 122.75 15.5102C122.69 15.8202 122.45 15.9702 122.02 15.9702L115.24 15.9302L115.22 18.9902L120.2 19.0202L120.79 18.1802C120.83 18.1202 120.88 18.0402 120.94 17.9502C121.25 17.5302 121.48 17.3102 121.61 17.3102C121.8 17.3102 122.24 17.6102 122.91 18.2102C123.59 18.8102 123.92 19.2102 123.92 19.4202C123.84 19.7302 123.6 19.8802 123.19 19.8802L115.21 19.8302V20.9402C115.22 21.1902 115.24 21.5002 115.26 21.8702C115.28 22.3702 115.29 22.7502 115.31 23.0002C115.25 23.2102 115.06 23.4002 114.75 23.5502C114.44 23.7002 114.11 23.7802 113.76 23.7802L113.72 23.7502ZM115.22 11.1802L119.38 11.2002L119.4 8.1402L115.24 8.1202L115.22 11.1802ZM115.24 7.2802L119.4 7.3002L119.42 4.3002L115.26 4.2802L115.24 7.2802Z" fill="white"/>
<path d="M139.87 27.2104C139.7 27.2104 139.56 27.1504 139.46 27.0304C139.36 26.9104 139.32 26.7804 139.32 26.6204C139.4 25.6904 139.48 24.4304 139.55 22.8404V20.6304C136.81 23.4104 132.87 25.4204 127.74 26.6804L127.54 26.1804C131.86 24.6904 135.21 22.6304 137.59 19.9804L132.93 19.9504C131.55 19.9604 130.1 20.0904 128.56 20.3304L127.78 18.8404C128.85 18.9604 130.14 19.0504 131.65 19.1004L139.57 19.1504L139.59 16.5004C138.6 17.0204 137.24 17.4704 135.51 17.8404L135.22 17.3404C136.89 16.9204 138.21 16.3204 139.19 15.5304C140.07 14.8204 140.71 13.8904 141.13 12.7504H139.94C139.3 12.7504 138.64 12.8904 137.96 13.1404L137.21 11.6204C137.99 11.7404 138.94 11.8304 140.06 11.8704H141.4C141.56 11.2804 141.68 10.3104 141.77 8.97035H140.78C140.24 8.97035 139.69 9.11035 139.15 9.36035L138.4 7.84035C139.47 7.96035 140.76 8.05035 142.27 8.10035L147.28 8.13035L147.72 7.61035C147.72 7.61035 147.81 7.51035 147.87 7.44035C148.08 7.19035 148.25 7.06035 148.37 7.06035C148.54 7.06035 148.9 7.31035 149.43 7.81035C149.96 8.31035 150.23 8.66035 150.22 8.88035C149.99 9.11035 149.67 9.24035 149.29 9.25035L149.26 14.7804C149.26 14.9404 149.29 15.0304 149.35 15.0704C149.41 15.1104 149.53 15.1304 149.73 15.1304H150.69L151.56 15.1404C151.72 15.1204 151.83 15.0504 151.91 14.9104C152.05 14.6004 152.27 13.6704 152.57 12.1204H152.92L152.99 14.9504C153.4 15.1104 153.6 15.3704 153.6 15.7404C153.6 16.1104 153.38 16.3804 152.95 16.5504C152.48 16.7204 151.7 16.8004 150.59 16.8004H149.22C148.5 16.7903 148.03 16.6604 147.8 16.4104C147.61 16.1904 147.51 15.7804 147.52 15.1604L147.56 9.02035L143.72 9.00035C143.62 10.2204 143.46 11.1904 143.27 11.9104H144.35L144.85 11.2204C144.89 11.1604 144.94 11.0804 145 10.9904C145.25 10.6604 145.44 10.5004 145.56 10.5004C145.73 10.5004 146.09 10.7504 146.63 11.2604C147.17 11.7704 147.44 12.1304 147.44 12.3404C147.36 12.6504 147.12 12.8004 146.71 12.8004L143.04 12.7804C142.43 14.3704 141.35 15.5804 139.82 16.4304C141 16.7704 141.73 17.0303 142 17.2304C142.21 17.4104 142.19 17.5804 141.94 17.7504L141.5 18.0404V19.1804L149.41 19.2304L150 18.4504C150 18.4504 150.09 18.3404 150.15 18.2504C150.46 17.8404 150.69 17.6404 150.82 17.6404C151.01 17.6404 151.45 17.9204 152.14 18.4804C152.83 19.0403 153.17 19.4204 153.17 19.6404C153.11 19.9503 152.86 20.1004 152.41 20.1004L142.51 20.0404C143.78 21.1204 145.48 22.0704 147.59 22.8904C149.55 23.6804 151.55 24.2404 153.61 24.5904L153.55 24.9104C153.18 24.9904 152.85 25.1704 152.56 25.4704C152.27 25.7703 152.07 26.1304 151.97 26.5604C149.86 25.9704 147.91 25.1204 146.13 24.0204C144.25 22.8604 142.74 21.5304 141.58 20.0304H141.49V22.2404C141.51 24.0303 141.55 25.4303 141.63 26.4604C141.53 26.6504 141.31 26.8304 140.97 27.0004C140.63 27.1604 140.28 27.2404 139.93 27.2404L139.87 27.2104ZM127.96 8.33035L127.64 7.95035C128.23 7.43035 128.83 6.73035 129.46 5.86035C130.03 5.11035 130.57 4.16035 131.09 3.03035C131.61 1.90035 131.95 0.920352 132.11 0.110352C133.39 0.720352 134.18 1.16035 134.49 1.43035C134.72 1.64035 134.67 1.78035 134.34 1.84035L133.82 1.95035C133.39 2.72035 133.05 3.28035 132.79 3.63035L138 3.66035L138.5 2.91035C138.56 2.85035 138.63 2.76035 138.71 2.62035C138.94 2.29035 139.12 2.13035 139.24 2.13035C139.43 2.13035 139.82 2.40035 140.39 2.94035C140.96 3.48035 141.24 3.85035 141.24 4.06035C141.18 4.35035 140.94 4.50035 140.51 4.49035L135.01 4.46035C135.82 4.99035 136.3 5.59035 136.46 6.27035C136.57 6.85035 136.44 7.28035 136.06 7.56035C135.68 7.84035 135.28 7.77035 134.85 7.36035C134.82 6.43035 134.5 5.46035 133.91 4.44035H132.25C131 6.07035 129.57 7.37035 127.98 8.31035L127.96 8.33035ZM129.19 17.4804L128.01 15.2604C129.12 15.1104 130.71 14.8504 132.79 14.4704L132.82 9.81035H131.57C130.85 9.81035 130.11 9.95035 129.35 10.2004L128.63 8.71035C129.7 8.83035 130.99 8.92035 132.5 8.97035L135.53 8.99035L136.06 8.29035C136.12 8.23035 136.19 8.15035 136.27 8.03035C136.5 7.72035 136.68 7.57035 136.8 7.57035C136.99 7.57035 137.38 7.82035 137.95 8.32035C138.52 8.82035 138.8 9.17035 138.8 9.39035C138.74 9.70035 138.51 9.85035 138.1 9.85035L134.61 9.83035L134.58 14.1704L138.63 13.4104L138.71 13.8804C135.85 14.8904 132.88 15.8804 129.81 16.8604C129.71 17.2304 129.51 17.4404 129.19 17.5004V17.4804ZM147.72 7.66035C147.34 7.97035 146.91 7.93035 146.43 7.54035C146.32 6.57035 145.86 5.57035 145.05 4.53035H143.01C141.86 5.87035 140.71 6.89035 139.56 7.58035L139.21 7.20035C139.68 6.74035 140.08 6.26035 140.41 5.78035C141 5.03035 141.55 4.10035 142.06 2.99035C142.57 1.93035 142.92 0.980352 143.1 0.140352C144.38 0.710352 145.17 1.12035 145.48 1.38035C145.69 1.60035 145.64 1.74035 145.33 1.82035L144.81 1.96035C144.46 2.56035 144.08 3.14035 143.66 3.70035L149.83 3.74035L150.39 2.93035C150.43 2.87035 150.49 2.78035 150.57 2.67035C150.84 2.28035 151.04 2.09035 151.16 2.09035C151.35 2.09035 151.78 2.38035 152.44 2.96035C153.1 3.54035 153.42 3.93035 153.42 4.14035C153.34 4.43035 153.1 4.58035 152.69 4.57035L146.43 4.53035C147.32 5.04035 147.86 5.63035 148.05 6.29035C148.22 6.89035 148.12 7.35035 147.74 7.66035H147.72Z" fill="white"/>
<path d="M158.24 9.5807C157.8 9.5807 157.51 9.4307 157.36 9.1207C157.09 8.5507 157.31 8.0107 158.01 7.4907C158.63 7.1307 159.15 6.5107 159.56 5.6407C159.99 4.7307 160.18 3.7607 160.13 2.7307H160.62C160.79 3.3707 160.9 3.9707 160.96 4.5107L168.76 4.5507C168.76 2.9407 168.69 1.5807 168.52 0.470703C169.97 0.890703 170.86 1.2107 171.19 1.4507C171.46 1.6507 171.45 1.8307 171.16 2.0007L170.66 2.3207V4.5607L179.29 4.6107L179.85 4.0007C179.85 4.0007 179.94 3.9007 180 3.8307C180.27 3.5207 180.48 3.3707 180.61 3.3707C180.78 3.3707 181.17 3.6807 181.75 4.2907C182.34 4.9007 182.63 5.3207 182.63 5.5307C182.47 5.7007 182.12 5.8107 181.58 5.8407C180.76 7.1307 179.79 8.3007 178.68 9.3407L178.33 9.1007C178.8 7.6907 179.16 6.4807 179.4 5.4707L160.97 5.3607C160.95 6.2507 160.77 7.0407 160.43 7.7207C160.15 8.3407 159.8 8.8007 159.37 9.1107C159.04 9.4007 158.65 9.5507 158.22 9.5507L158.24 9.5807ZM162.49 27.3507C162.33 27.3507 162.19 27.2807 162.07 27.1607C161.95 27.0407 161.88 26.9007 161.88 26.7707C162.07 24.2707 162.19 21.7407 162.24 19.2007L162.27 13.5807C162.28 11.1307 162.17 9.1407 161.93 7.6107L164.25 8.7607L174.96 8.8207L175.4 8.1807C175.4 8.1807 175.46 8.0807 175.52 8.0107C175.74 7.7007 175.91 7.5507 176.05 7.5507C176.24 7.5507 176.63 7.8107 177.21 8.3307C177.79 8.8507 178.08 9.2107 178.08 9.4307C177.85 9.7007 177.49 9.8707 177.03 9.9507V11.9007C177.02 12.2107 177.03 12.6107 177.04 13.0907C177.07 14.2007 177.11 15.0407 177.14 15.6207C177.06 15.7907 176.84 15.9607 176.47 16.1307C176.1 16.2907 175.76 16.3707 175.45 16.3707H175.19V15.0607L164.07 15.0007L164.05 18.4107L176.19 18.4807L176.63 17.9007C176.63 17.9007 176.73 17.7907 176.81 17.7007C177.02 17.4507 177.19 17.3207 177.31 17.3207C177.5 17.3207 177.91 17.5707 178.53 18.0507C179.15 18.5407 179.46 18.8907 179.46 19.1007C179.23 19.3707 178.84 19.5607 178.29 19.6807V22.0107C178.3 23.9107 178.35 25.4007 178.43 26.4707C178.31 26.6407 178.07 26.8207 177.7 26.9907C177.33 27.1607 177 27.2507 176.71 27.2507C176.44 27.2507 176.3 27.0507 176.31 26.6707C176.33 26.5907 176.35 26.4807 176.37 26.3207C176.39 26.2007 176.41 26.1107 176.43 26.0307V25.4207L164.03 25.3507V26.6607C164.03 26.8007 163.88 26.9507 163.58 27.1207C163.23 27.2907 162.87 27.3807 162.5 27.3807L162.49 27.3507ZM164.02 24.4507L176.42 24.5207L176.45 19.3107L164.05 19.2407L164.02 24.4507ZM164.08 14.1407L175.2 14.2007L175.23 9.6607L164.11 9.6007L164.08 14.1407Z" fill="white"/>
<path d="M186.4 27.4599L186.14 27.0799C189.37 24.8299 191.7 21.9899 193.12 18.5599C194.32 15.6499 195.02 11.8599 195.22 7.18988L190.97 7.16988C189.59 7.17988 188.14 7.30988 186.6 7.54988L185.85 6.08988C186.92 6.20988 188.21 6.29988 189.72 6.34988L197.84 6.39988C197.85 4.08988 197.75 2.16988 197.52 0.629883C199.01 1.04988 199.93 1.36988 200.28 1.60988C200.55 1.80988 200.54 1.98988 200.25 2.15988L199.75 2.47988L199.73 6.40988L207.68 6.45988L208.33 5.55988C208.39 5.47988 208.47 5.37988 208.56 5.23988C208.85 4.82988 209.06 4.62988 209.17 4.62988C209.36 4.62988 209.83 4.94988 210.56 5.58988C211.29 6.22988 211.66 6.64988 211.66 6.85988C211.58 7.14988 211.34 7.29988 210.93 7.28988L197.42 7.20988C197.25 9.31988 197.05 11.1099 196.81 12.5599L204.9 12.6099L205.43 11.9399C205.47 11.8799 205.53 11.8099 205.61 11.7099C205.86 11.3999 206.05 11.2499 206.17 11.2499C206.34 11.2499 206.72 11.5399 207.3 12.1199C207.88 12.6999 208.17 13.0899 208.17 13.2999C207.97 13.5299 207.59 13.6899 207 13.7599C206.61 20.9199 205.78 25.1099 204.51 26.3199C203.69 27.1299 202.57 27.5099 201.16 27.4699C201.16 26.7499 200.96 26.2799 200.56 26.0699C200.13 25.7799 199.01 25.4599 197.19 25.1199V24.6199C197.25 24.6199 197.34 24.6299 197.45 24.6499C200.09 24.9199 201.63 25.0499 202.08 25.0599C202.6 25.0599 203 24.9399 203.28 24.6899C204.16 23.9399 204.79 20.2099 205.18 13.4899L196.65 13.4399C196.01 16.6999 194.95 19.3999 193.46 21.5399C191.8 23.9599 189.45 25.9299 186.41 27.4699L186.4 27.4599Z" fill="white"/>
<path d="M215.41 25.2104L214.97 24.9704C215.17 24.4104 215.34 23.8704 215.47 23.3404C215.73 22.4304 215.94 21.3804 216.1 20.2004C216.26 19.0604 216.33 18.0704 216.29 17.2304L217.89 17.7304C219.01 17.8904 219.27 18.1404 218.64 18.4604L218.17 18.6904C217.44 21.4804 216.51 23.6504 215.4 25.2004L215.41 25.2104ZM218.64 9.87043C218.33 10.1104 217.96 10.0804 217.53 9.76043C217.4 9.14043 217.07 8.45043 216.55 7.69043C216.09 7.01043 215.58 6.41043 215.02 5.90043L215.28 5.67043C216.11 5.93043 216.83 6.25043 217.43 6.64043C217.47 6.58043 217.5 6.52043 217.52 6.47043C218.35 4.36043 218.89 2.43043 219.15 0.69043C220.55 1.24043 221.42 1.65043 221.76 1.93043C222.01 2.13043 221.98 2.28043 221.67 2.40043L221.17 2.57043C219.94 4.54043 218.87 6.05043 217.97 7.09043C218.57 7.60043 218.91 8.14043 218.98 8.73043C219.05 9.25043 218.94 9.64043 218.62 9.88043L218.64 9.87043ZM219.73 27.5904C219.57 27.5904 219.43 27.5204 219.31 27.4004C219.19 27.2804 219.12 27.1404 219.12 27.0104C219.31 24.5104 219.43 21.9904 219.48 19.4404L219.51 14.5504C219.32 14.5904 219.02 14.6504 218.64 14.7504C217.73 14.9604 217.03 15.1104 216.54 15.2004C216.4 15.5504 216.17 15.7504 215.84 15.8104L215.13 13.5604C215.65 13.5604 216.57 13.5204 217.87 13.4304C218.42 12.4804 219.12 11.1704 219.96 9.48043C221 7.39043 221.7 5.55043 222.06 3.96043C223.38 4.59043 224.19 5.04043 224.5 5.31043C224.73 5.53043 224.69 5.67043 224.38 5.75043L223.86 5.89043C222.33 8.46043 220.6 10.9504 218.66 13.3704C218.93 13.3504 219.34 13.3304 219.88 13.2904C221.12 13.2004 222.07 13.1404 222.73 13.1004C222.46 12.2804 222.09 11.4104 221.61 10.4704L221.99 10.3304C223.03 11.0504 223.81 11.8404 224.31 12.6704C224.73 13.3704 224.93 14.0304 224.91 14.6504C224.89 15.1904 224.71 15.5604 224.37 15.7504C224.03 15.9404 223.68 15.8504 223.31 15.4804C223.29 15.0004 223.17 14.4104 222.94 13.7304L221.25 14.1304L221.22 20.0104C221.24 22.4204 221.31 24.7004 221.41 26.8504C221.27 27.0204 221.07 27.1804 220.8 27.3104C220.45 27.4804 220.1 27.5704 219.75 27.5704L219.73 27.5904ZM224.18 22.7504C223.83 22.9204 223.47 22.8104 223.1 22.4204C223.09 21.0004 222.66 19.2704 221.82 17.2304L222.14 17.0904C223.13 17.8704 223.85 18.7004 224.31 19.5804C224.67 20.3204 224.83 21.0004 224.76 21.6204C224.72 22.2004 224.52 22.5804 224.17 22.7504H224.18ZM225.72 27.6504C225.55 27.6504 225.39 27.5904 225.26 27.4704C225.12 27.3504 225.06 27.2204 225.06 27.0604C225.25 24.5604 225.37 22.0304 225.42 19.4904L225.49 7.84043C225.5 5.39043 225.39 3.40043 225.15 1.87043L227.39 2.96043L237.58 3.02043L237.96 2.44043C238 2.38043 238.06 2.31043 238.14 2.21043C238.32 1.96043 238.46 1.83043 238.58 1.83043C238.77 1.83043 239.19 2.08043 239.83 2.58043C240.47 3.08043 240.79 3.43043 240.78 3.65043C240.58 3.92043 240.19 4.11043 239.58 4.23043L239.46 24.9004C239.46 25.7704 239.31 26.3904 239.01 26.7604C238.62 27.2204 237.85 27.5104 236.7 27.6204C236.59 26.9004 236.4 26.4404 236.13 26.2504C235.76 25.9204 235.04 25.6804 233.95 25.5404V25.0404C235 25.1204 236.05 25.2104 237.1 25.2904C237.53 25.2904 237.74 25.0804 237.74 24.6504L237.86 3.86043L227.23 3.80043L227.14 19.9304C227.16 22.3404 227.23 24.6204 227.33 26.7704C227 27.3504 226.46 27.6404 225.72 27.6304V27.6504ZM231.34 22.0304C230.56 22.0304 230.05 21.9104 229.8 21.6704C229.59 21.4704 229.48 21.0604 229.49 20.4204L229.52 15.2704H228.97C228.7 15.2804 228.43 15.4204 228.15 15.6704L227.4 14.2104C228.16 14.3304 229.07 14.4104 230.14 14.4604H231.45L231.47 11.0604H230.39C229.79 11.0604 229.17 11.2004 228.52 11.4504L227.77 9.93043C228.76 10.0504 229.96 10.1404 231.38 10.1804H233.07C233.74 8.21043 234.13 6.38043 234.24 4.69043C235.44 5.14043 236.2 5.49043 236.5 5.72043C236.71 5.90043 236.68 6.03043 236.41 6.13043L235.97 6.30043C235.97 6.30043 235.93 6.36043 235.91 6.42043C234.93 8.10043 234.14 9.36043 233.53 10.1904H234.9L235.75 9.15043C236.27 9.64043 236.79 10.1304 237.31 10.6104C237.23 10.9204 237 11.0704 236.61 11.0704L233.12 11.0504L233.1 14.4604H234.9L235.84 13.2504C236.4 13.7804 236.96 14.3004 237.52 14.8304C237.44 15.1404 237.21 15.2904 236.82 15.2904L231.14 15.2604L231.11 19.9504C231.11 20.1204 231.15 20.2404 231.22 20.3004C231.29 20.3604 231.47 20.3904 231.74 20.3904H233.25L234.65 20.4104C234.86 20.4104 235 20.4104 235.06 20.3804C235.08 20.3804 235.13 20.3804 235.21 20.3504C235.38 20.3104 235.5 20.2804 235.56 20.2704H235.82L235.88 20.3304C236.38 20.4704 236.64 20.7004 236.63 21.0304C236.63 21.4204 236.39 21.6804 235.93 21.8104C235.42 21.9604 234.47 22.0404 233.08 22.0304H231.33H231.34ZM231.03 9.77043C230.74 9.92043 230.44 9.84043 230.13 9.53043C230.08 8.35043 229.65 6.91043 228.84 5.21043L229.19 5.07043C230.06 5.72043 230.7 6.41043 231.1 7.15043C231.45 7.75043 231.59 8.32043 231.53 8.84043C231.49 9.30043 231.32 9.61043 231.03 9.77043Z" fill="white"/>
<path d="M255.63 27.8C255.49 27.8 255.37 27.74 255.27 27.62C255.16 27.5 255.11 27.37 255.11 27.21C255.24 25.62 255.32 24.01 255.37 22.38L255.39 19.67C252.18 21.55 248.95 23.23 245.72 24.71C245.58 25.1 245.39 25.36 245.13 25.49L244.04 23.04C245.52 22.64 247.46 22.02 249.87 21.18C250.31 18.87 250.66 16.81 250.93 14.98C251.29 12.75 251.43 10.79 251.34 9.10004C252.81 9.38004 253.72 9.63004 254.07 9.84004C254.34 9.98004 254.32 10.13 254.01 10.31L253.51 10.6C252.83 13.82 251.85 17.27 250.57 20.95C252.44 20.28 254.04 19.69 255.38 19.17V16.78C255.4 15.71 255.36 14.88 255.26 14.28L257.52 15.34L260.46 15.36L260.51 7.01004C260.52 4.56004 260.41 2.58004 260.17 1.04004C261.66 1.46004 262.58 1.79004 262.93 2.05004C263.18 2.23004 263.16 2.41004 262.87 2.60004L262.37 2.95004L262.34 8.19004L265.95 8.21004L266.57 7.31004C266.61 7.25004 266.66 7.18004 266.72 7.08004C267.03 6.62004 267.26 6.38004 267.39 6.38004C267.56 6.38004 267.99 6.70004 268.68 7.35004C269.37 7.99004 269.71 8.42004 269.71 8.64004C269.63 8.95004 269.38 9.10004 268.95 9.10004L262.34 9.06004L262.3 15.38L265.91 15.4L266.32 14.76C266.32 14.76 266.41 14.65 266.47 14.56C266.69 14.25 266.85 14.1 266.97 14.1C267.16 14.1 267.54 14.35 268.09 14.85C268.64 15.35 268.92 15.7 268.91 15.92C268.71 16.17 268.36 16.33 267.86 16.41L267.84 19.99C267.86 22.4 267.93 24.68 268.03 26.83C267.87 27 267.65 27.16 267.36 27.29C266.99 27.46 266.62 27.55 266.25 27.55C265.96 27.55 265.81 27.35 265.82 26.97C265.84 26.87 265.86 26.75 265.88 26.59C265.9 26.47 265.92 26.37 265.94 26.27V25.63L257.15 25.58V26.13C257.16 26.29 257.17 26.47 257.17 26.68C257.19 26.85 257.21 26.98 257.23 27.06C257.17 27.23 257 27.4 256.73 27.55C256.42 27.72 256.05 27.81 255.62 27.81L255.63 27.8ZM244.8 8.49004L244.08 7.00004C244.97 7.12004 246.06 7.21004 247.34 7.25004H248.88V7.08004C248.89 4.63004 248.78 2.64004 248.54 1.11004C249.95 1.51004 250.84 1.82004 251.18 2.06004C251.43 2.22004 251.42 2.39004 251.15 2.58004L250.68 2.90004L250.65 7.27004H252.45L253.01 6.38004C253.07 6.30004 253.15 6.20004 253.24 6.06004C253.49 5.67004 253.68 5.48004 253.8 5.48004C253.97 5.48004 254.39 5.79004 255.05 6.42004C255.71 7.04004 256.03 7.46004 256.03 7.68004C255.97 7.99004 255.73 8.14004 255.3 8.14004L249.16 8.10004C247.78 8.11004 246.32 8.24004 244.79 8.48004L244.8 8.49004ZM247.89 20.18C247.51 20.51 247.17 20.41 246.86 19.88C246.95 18.37 246.93 16.79 246.8 15.13C246.62 12.97 246.27 11.19 245.75 9.77004L246.22 9.63004C247.24 11.3 247.95 12.96 248.35 14.59C248.69 15.95 248.79 17.17 248.65 18.26C248.53 19.21 248.28 19.85 247.9 20.18H247.89ZM257.17 24.72L265.96 24.77L266.01 16.27L257.22 16.22L257.17 24.72Z" fill="white"/>
</svg>
