<?xml version="1.0" encoding="utf-8"?>
<!-- Generator: Adobe Illustrator 27.0.0, SVG Export Plug-In . SVG Version: 6.00 Build 0)  -->
<svg version="1.1" id="圖層_1" xmlns="http://www.w3.org/2000/svg" xmlns:xlink="http://www.w3.org/1999/xlink" x="0px" y="0px"
	 viewBox="0 0 428.1 342.1" style="enable-background:new 0 0 428.1 342.1;" xml:space="preserve">
<style type="text/css">
	.st0{fill:#231815;}
	.st1{fill:#D1800A;}
	.st2{fill:#CF8529;}
	.st3{fill:#E9D9B8;}
	.st4{fill:#221815;}
</style>
<g>
	<g>
		<g>
			<g>
				<path class="st0" d="M43.3,138c3,2.5,5.7,5.4,8,8.5c0.1,0.1,0.3,0.2,0.5,0.2c0,0,0,0,0,0c0.2,0,0.3-0.1,0.5-0.2l5.7-6.1
					c0.1-0.1,0.2-0.3,0.2-0.4c0-0.2-0.1-0.3-0.2-0.4c-3-2.4-6.3-4.5-9.7-6.3c-3.6-1.9-7.5-3.5-11.4-4.7c-0.1,0-0.1,0-0.2,0
					c-0.2,0-0.5,0.1-0.6,0.4l-1.1,2.9c-0.1,0.3,0,0.6,0.3,0.7C38.1,134.1,40.8,136,43.3,138z"/>
			</g>
			<g>
				<path class="st0" d="M3.8,167.7h7.4c0.3,0,0.6-0.3,0.6-0.6v-14.4h71.2c0.4,0,0.7,0.3,0.7,0.6v13.8c0,0.3,0.3,0.6,0.6,0.6h7.4
					c0.3,0,0.6-0.3,0.6-0.6v-21.6c0-0.3-0.3-0.6-0.6-0.6h-7.4c-0.3,0-0.6,0.3-0.6,0.6v1.8c0,0.3-0.3,0.6-0.7,0.6H52.4
					c-0.1,0-1.1,0-1.3,0H11.8v-2.4c0-0.3-0.3-0.6-0.6-0.6H3.8c-0.3,0-0.6,0.3-0.6,0.6v21.6C3.2,167.5,3.5,167.7,3.8,167.7z"/>
			</g>
			<g>
				<path class="st0" d="M98.5,221.7c-4.3-4.9-9.2-9.3-14.8-13.1c-5.3-3.6-11.1-6.5-17.2-8.8c-0.1,0-0.1,0-0.2,0
					c-0.2,0-0.4,0.1-0.5,0.3l-1,1.8c-0.1,0.3-0.1,0.6,0.2,0.7c4.1,2.7,8,6.2,12.4,10.9c4.5,4.8,8.1,10.1,10.9,15.8
					c0.1,0.2,0.2,0.3,0.4,0.3c0,0,0.1,0,0.1,0c0.1,0,0.3,0,0.4-0.1l9.2-7c0.1-0.1,0.2-0.2,0.2-0.4C98.7,222,98.6,221.8,98.5,221.7z"
					/>
			</g>
			<g>
				<path class="st0" d="M25.6,198.9c-0.1-0.1-0.2-0.1-0.3-0.1c-0.1,0-0.1,0-0.2,0c-0.2,0-0.3,0.2-0.4,0.3
					c-2.7,5.8-6.2,11.3-10.5,16.3c-3.8,4.4-8.1,8.4-12.9,12c-0.1,0.1-0.2,0.2-0.2,0.4c0,0.2,0,0.3,0.1,0.4l1.6,1.9
					c0.1,0.1,0.3,0.2,0.5,0.2c0.1,0,0.2,0,0.3-0.1c3.8-1.7,8.2-4.4,14.3-8.9c7.6-5.6,13.7-12.3,16.6-16.3c0.1-0.1,0.1-0.3,0.1-0.4
					c0-0.2-0.1-0.3-0.3-0.4L25.6,198.9z"/>
			</g>
			<g>
				<path class="st0" d="M74.3,164.5c-0.1,0-0.2,0-0.3,0.1l-4.4,2.5c-0.1,0.1-0.2,0.1-0.4,0.1H21.7c-0.3,0-0.6,0.3-0.6,0.6v3.5
					c0,0.3,0.3,0.6,0.6,0.6h54.2c0.3,0,0.6-0.3,0.6-0.6v-6.2c0-0.3-0.3-0.6-0.6-0.6H74.3z"/>
			</g>
			<g>
				<path class="st0" d="M91.9,187.7c0.3,0,0.6-0.3,0.6-0.6v-6.2c0-0.3-0.3-0.6-0.6-0.6h-1.5c-0.1,0-0.2,0-0.3,0.1l-4.5,2.5
					c-0.1,0.1-0.3,0.1-0.4,0.1h-78c-0.3,0-0.6,0.3-0.6,0.6v3.5c0,0.3,0.3,0.6,0.6,0.6h37.3V233c0,0.4,0.3,0.6,0.6,0.6h7.4
					c0.3,0,0.6-0.3,0.6-0.6v-45.4H91.9z"/>
			</g>
		</g>
		<g>
			<path class="st0" d="M214,221.8c-6-2.5-21.2-9.7-31.6-22.6c-7.7-9.5-10.5-21.5-13.5-32.9h39.6c0.3,0,0.6-0.3,0.6-0.6v-6.1
				c0-0.3-0.3-0.6-0.6-0.6h-1.5c-0.1,0-0.2,0-0.3,0.1l-4.4,2.4c-0.1,0.1-0.2,0.1-0.4,0.1H168c-0.5-3.8-0.4-7.9-0.3-11.4
				c0.2-4.7,0.3-9.4,0.4-14.2c0-1.3,0-2.5,0.1-3.6c0-0.2-0.1-0.3-0.2-0.4c-0.1-0.1-0.3-0.2-0.4-0.2h-10.3c-0.2,0-0.3,0.1-0.4,0.2
				c-0.1,0.1-0.2,0.3-0.2,0.4c0.7,10.4,0.6,19.7-0.3,28.6c0,0.3-0.3,0.6-0.7,0.6h-38.9c-0.3,0-0.6,0.3-0.6,0.6v3.4
				c0,0.3,0.3,0.6,0.6,0.6h38.2c0.2,0,0.4,0.1,0.5,0.2c0.1,0.1,0.2,0.3,0.2,0.5c-1.1,7.2-2.7,13.9-4.9,19.9
				c-9.6,26.4-27.3,37.2-36.8,43l-0.8,0.5c-0.3,0.2-0.3,0.5-0.2,0.7l1.3,2.3c0.1,0.2,0.3,0.3,0.5,0.3c0.1,0,0.1,0,0.2,0
				c1.4-0.5,35-12.5,47-48.5c1.1-3.3,2.1-7.1,2.9-11.1c0.1-0.3,0.4-0.5,0.7-0.5c0.4,0,0.7,0.2,0.7,0.5c1.4,11.4,5.4,22.1,11.7,31.9
				c6.6,10.2,15.9,19.3,26.8,26.2c0.1,0.1,0.2,0.1,0.3,0.1c0.2,0,0.3-0.1,0.5-0.2l8.5-9.5c0.1-0.1,0.2-0.3,0.1-0.5
				C214.3,222,214.2,221.9,214,221.8z"/>
		</g>
		<g>
			<path class="st0" d="M427.5,141.1H420c-0.3,0-0.6,0.3-0.6,0.6v1.4c0,0.3-0.3,0.6-0.7,0.6h-63.6c-0.4,0-0.7-0.3-0.7-0.6v-1.4
				c0-0.3-0.3-0.6-0.6-0.6h-7.4c-0.3,0-0.6,0.3-0.6,0.6v91.5c0,0.3,0.3,0.6,0.6,0.6h7.4c0.3,0,0.6-0.3,0.6-0.6v-2.7v-5.8v-5.5v-8
				v-26.5c0-0.3,0.3-0.6,0.7-0.6h25.8c0.4,0,0.7,0.3,0.7,0.6v34.6c0,0.3-0.3,0.6-0.7,0.6h-22.4v4.3h60.2c0.4,0,0.7,0.3,0.7,0.6v8.5
				c0,0.3,0.3,0.6,0.6,0.6h7.4c0.3,0,0.6-0.3,0.6-0.6v-91.5C428.1,141.3,427.8,141.1,427.5,141.1z M381.6,179.1
				c0,0.3-0.3,0.6-0.7,0.6h-25.8c-0.4,0-0.7-0.3-0.7-0.6v-30.6c0-0.3,0.3-0.6,0.7-0.6h25.8c0.4,0,0.7,0.3,0.7,0.6V179.1z
				 M419.4,179.1c0,0.3-0.3,0.6-0.7,0.6h-24.4v4.3h24.4c0.4,0,0.7,0.3,0.7,0.6v34.6c0,0.3-0.3,0.6-0.7,0.6H391
				c-0.4,0-0.7-0.3-0.7-0.6V196v-11.5v-5.5v-2.3v-28.2c0-0.3,0.3-0.6,0.7-0.6h27.7c0.4,0,0.7,0.3,0.7,0.6V179.1z"/>
		</g>
		<g>
			<g>
				<path class="st0" d="M323.1,165.8h-1.5c-0.1,0-0.2,0-0.3,0.1l-4.4,2.4c-0.1,0.1-0.3,0.1-0.4,0.1h-35v-0.6v-7.9v-0.6h26.5
					c0.3,0,0.6-0.3,0.6-0.6v-3.1c0-0.3-0.3-0.6-0.6-0.6h-26.5v-0.6v-8.1v-0.6h35.9c0.3,0,0.6-0.3,0.6-0.6v-5.7
					c0-0.3-0.3-0.6-0.6-0.6h-1.5c-0.1,0-0.2,0-0.3,0.1l-4.4,2.4c-0.1,0.1-0.3,0.1-0.4,0.1h-29.2v-0.6v-6.1v-2.3
					c0-0.3-0.3-0.6-0.6-0.6h-7.4c-0.3,0-0.6,0.3-0.6,0.6v8.4c0,0.3-0.3,0.6-0.7,0.6h-36.9c-0.3,0-0.6,0.3-0.6,0.6v3.1
					c0,0.3,0.3,0.6,0.6,0.6H272c0.4,0,0.7,0.3,0.7,0.6v8.1c0,0.3-0.3,0.6-0.7,0.6h-25.7c-0.3,0-0.6,0.3-0.6,0.6v3.1
					c0,0.3,0.3,0.6,0.6,0.6H272c0.4,0,0.7,0.3,0.7,0.6v7.9c0,0.3-0.3,0.6-0.7,0.6h-42.7c-0.3,0-0.6,0.3-0.6,0.6v3.1
					c0,0.3,0.3,0.6,0.6,0.6h48.9h3.1h41.7c0.3,0,0.6-0.3,0.6-0.6v-5.7C323.7,166,323.4,165.8,323.1,165.8z"/>
			</g>
			<g>
				<path class="st0" d="M311.5,181.2h-7.4c-0.3,0-0.6,0.3-0.6,0.6v1.8h-52.8v-1.8c0-0.3-0.3-0.6-0.6-0.6h-7.4
					c-0.3,0-0.6,0.3-0.6,0.6v51.4c0,0.3,0.3,0.6,0.6,0.6h7.4c0.3,0,0.6-0.3,0.6-0.6v-16.9h52.8v16.9c0,0.3,0.3,0.6,0.6,0.6h7.4
					c0.3,0,0.6-0.3,0.6-0.6v-51.4C312.1,181.4,311.8,181.2,311.5,181.2z M250.7,190.3c0-0.9,0.8-1.7,1.9-1.7h49.1
					c1,0,1.9,0.8,1.9,1.7v7.4h-52.8V190.3z M250.7,211.1v-8.3h52.8v8.3H250.7z"/>
			</g>
		</g>
	</g>
	<g>
		<g>
			<g>
				<g>
					<path class="st1" d="M17.8,54.5l-1.2-5.3H9.8l-1.1,5.3H3.8L11,28h4.5l7.1,26.6H17.8z M13.2,34.4l-2.5,11.1h5L13.2,34.4z"/>
				</g>
				<g>
					<path class="st1" d="M46.8,52.6c-1.2,1.3-2.9,2.2-5.7,2.2c-2.8,0-4.4-1-5.7-2.2c-2.2-2.2-2.1-6.1-2.1-11.4
						c0-5.2,0-9.1,2.1-11.4c1.2-1.3,2.9-2.2,5.7-2.2c2.8,0,4.4,1,5.7,2.2C49,32.1,49,36,49,41.2C49,46.5,49,50.4,46.8,52.6z
						 M43.4,32.4c-0.4-0.6-1.1-1-2.2-1c-1.1,0-1.8,0.4-2.2,1c-0.9,1.3-1,4-1,8.8c0,4.9,0.2,7.5,1,8.8c0.4,0.6,1.1,1,2.2,1
						c1.1,0,1.8-0.4,2.2-1c0.9-1.3,1-4,1-8.8C44.4,36.4,44.2,33.7,43.4,32.4z"/>
				</g>
				<g>
					<path class="st1" d="M69.5,31.7v22.8h-4.6V31.7h-4.9V28h14.4v3.8H69.5z"/>
				</g>
				<g>
					<path class="st1" d="M96.4,54.5l-1.2-5.3h-6.8l-1.1,5.3h-4.8L89.6,28h4.5l7.1,26.6H96.4z M91.8,34.4l-2.5,11.1h5L91.8,34.4z"/>
				</g>
			</g>
			<g>
				<g>
					<path class="st0" d="M12,80.1H4v-1.3l5.9-7.6H4.5v-1.3h7.4v1.3L6,78.8h6V80.1z"/>
				</g>
				<g>
					<path class="st0" d="M29.7,75c0,2.9-1.6,5.4-5.1,5.4c-3.5,0-5.1-2.5-5.1-5.4c0-2.9,1.6-5.4,5.1-5.4
						C28.1,69.6,29.7,72.1,29.7,75z M27.9,75c0-2.4-1.2-4.1-3.3-4.1c-2.1,0-3.3,1.7-3.3,4.1c0,2.4,1.2,4.1,3.3,4.1
						C26.7,79.1,27.9,77.4,27.9,75z"/>
				</g>
				<g>
					<path class="st0" d="M46.9,74.3v5.7h-1.7v-5.6c0-0.5,0-0.9,0-1.5c-0.1-1.2-0.8-2.1-2.3-2.1c-1.6,0-3,1.2-3,4.7v4.5h-1.7V69.9
						h1.7v1.8l0.6-1.2c0.9-0.7,1.6-0.8,2.7-0.8c2.2,0,3.5,1.2,3.6,3C46.9,73.1,46.9,73.5,46.9,74.3z"/>
				</g>
				<g>
					<path class="st0" d="M65.2,77.6c0,0.6,0,1.4,0,2c-0.1,3-1.9,4.6-4.9,4.6c-2.9,0-4.4-1.2-4.6-3.4l0-0.2h1.7l0,0.2
						c0.1,1.3,1.1,2.1,2.9,2.1c2,0,3.1-1.2,3.2-3.1c0-0.5,0-0.8,0-1.1v-0.2l-0.8,1.1c-0.6,0.5-1.7,0.8-2.7,0.8c-3,0-4.6-2.2-4.6-5.2
						c0-3.8,2.4-5.5,5-5.5c0.8,0,1.9,0.2,2.4,0.7l0.7,1v-1.4h1.7V77.6z M63.5,75.1v-0.6c0-2.6-1.7-3.6-3.1-3.6
						c-1.8,0-3.2,1.4-3.2,4.1c0,2.3,1,4.1,3.1,4.1C62,79.1,63.5,78,63.5,75.1z"/>
				</g>
				<g>
					<path class="st0" d="M83.6,80.1H82v-1.6l-0.8,1.1c-0.6,0.5-1.7,0.8-2.7,0.8c-3,0-4.6-2.2-4.6-5.2c0-3.8,2.4-5.5,5-5.5
						c0.8,0,1.9,0.2,2.4,0.7l0.7,1v-5.4h1.7V80.1z M82,75.1v-0.6c0-2.6-1.7-3.6-3.1-3.6c-1.8,0-3.2,1.4-3.2,4.1c0,2.3,1,4.1,3.1,4.1
						C80.5,79.1,82,78,82,75.1z"/>
				</g>
				<g>
					<path class="st0" d="M98.8,78.6l-0.6,1.1c-0.7,0.5-1.6,0.6-2.6,0.6c-1.9,0-3.3-1-3.3-2.9c0-2.3,1.7-3.5,5.7-3.5h0.7v-0.3
						c0-0.4,0-0.8,0-1.2c-0.1-0.9-0.6-1.6-2-1.6c-1.4,0-2.1,0.8-2.2,2.2h-1.7c0.2-2.2,1.7-3.4,3.9-3.4c2.4,0,3.5,1,3.6,2.7
						c0,0.4,0.1,0.9,0.1,1.3v3.8c0,0.8,0,1.5,0.2,2.6H99L98.8,78.6z M98.8,76.2v-1c-2.8-0.2-4.6,0.4-4.6,2.1c0,1.2,0.8,1.8,2,1.8
						C97.8,79.1,98.8,78.1,98.8,76.2z"/>
				</g>
			</g>
		</g>
		<g>
			<g>
				<path class="st2" d="M155.3,41.7c11.3-0.2,20.5-5.5,29.6-11.4c4-2.6,7.9-5.1,11.9-7.7c0.7-0.4,1.4-0.9,2.1-1.4
					c5-3.4,10.2-6.9,16.9-5l1.2,0.3c6.7,2,10.4,3,14.8,2.7c5.2-0.4,19.5-8.5,24-11.1c0.8-0.3,6-2.4,10.7,0c3.1,1.6,8.5,5.5,14.1,9.7
					c5.8,4.3,12.4,9.2,18.6,13c10.7,6.6,17.3,10,26.4,11.4c3.2,0.5,6.5,0.6,9.7,0.6c1.4,0,2.7,0,4,0l4.2,0c5.2,0,10.6-0.1,15.8-1.5
					c5.1-1.4,9.5-3.7,13.8-6c5.9-3.2,11.5-6.2,18.2-6.2c0.1,0,0.2,0,0.3,0c6.1,0.1,9.9,2.2,15.3,5.2l1.2,0.7
					c7.5,4.1,13.1,5.8,18.3,6.5v-7.1c-4.3-0.7-9-2.2-15-5.5l-1.2-0.7c-5.8-3.2-10.8-5.9-18.6-6c-0.1,0-0.3,0-0.4,0
					c-8.4,0-15.1,3.6-21.5,7c-4.1,2.2-8,4.3-12.3,5.5c-4.4,1.2-9.5,1.3-15.6,1.3c0,0-11.4,0.1-15.3-0.5c-7.9-1.3-13.9-4.4-23.8-10.5
					c-5.9-3.7-12.4-8.4-18.1-12.7c-6.1-4.5-11.4-8.4-15.1-10.3c-8.1-4.1-16.5-0.2-16.9,0L252.6,2c-8.2,4.8-18.7,10.1-21.2,10.3
					c-3.2,0.2-6.1-0.6-12.4-2.4l-1.2-0.3c-9.8-2.9-17.3,2.2-22.7,5.9c-0.7,0.5-1.3,0.9-2,1.3c-3.9,2.6-7.9,5.1-11.9,7.7
					c-8.3,5.3-16.5,10.1-26,10.3c-2.3,0-4.6,0.1-6.8,0.1v6.9C150.7,41.8,153,41.7,155.3,41.7z"/>
			</g>
			<g>
				<path class="st3" d="M177.7,57.6c7.4-2.2,23.9-9.3,24.6-9.6l0.5-0.3c0,0,3.2-1.9,10-1c3.7,0.5,7.8,0.6,11.7,0.3
					c3.3-0.3,6.1-1,8.7-1.7l1.5-0.4c2.7-0.7,6-1.5,9.3-2c0.9-0.1,2-0.3,3.1-0.3c8.5-0.2,15.9,2,32.1,6.9c3.3,1,6.9,2.1,11,3.3
					c15.2,4.5,24.5,6.5,29.6,7.3c2.4,0.4,5,0.8,7.6,0.8c0,0,0,0,0,0l99.2,0V54l-99.2,0c0,0,0,0,0,0c-2.1,0-4.3-0.4-6.4-0.7
					c-4.9-0.8-13.9-2.8-28.8-7.1c-4-1.2-7.7-2.3-10.9-3.3c-16.9-5.1-24.7-7.3-34.3-7.2c-1.5,0-2.9,0.2-4,0.4
					c-3.7,0.5-7.2,1.4-10.1,2.2l-1.5,0.4c-2.5,0.7-4.7,1.3-7.4,1.5c-3.5,0.3-7,0.2-10.3-0.3c-8.3-1.1-13,1.1-14.3,1.9
					c-2,0.9-17.1,7.2-23.7,9.2c-6.6,2-10.5,2.1-10.5,2.1h-16.8V60h16.9C165.4,60,170,59.9,177.7,57.6z"/>
			</g>
			<g>
				<path class="st2" d="M322.4,72.8c-10.4-0.2-20.1-3.4-30.3-6.7c-14.1-4.6-28.8-9.4-45.2-5.6c-5.8,1.3-11.5,3.2-17,4.9
					c-5.8,1.9-11.7,3.8-17.7,5.1c-9.7,2-38,2.6-63.8,2.6v7c26.4-0.1,54.9-0.6,65.2-2.8c6.4-1.3,12.5-3.3,18.4-5.2
					c5.3-1.7,10.8-3.5,16.4-4.8c14.6-3.3,27.7,1,41.5,5.5c10.3,3.3,20.9,6.8,32.3,7.1C332.5,80,385.9,80,426.6,80v-6.9
					C385.9,73.1,332.6,73,322.4,72.8z"/>
			</g>
		</g>
	</g>
</g>
<g>
	<g>
		<path class="st4" d="M11.4,309.9c0,2.6-1.4,4.5-4.1,4.5c-2.6,0-4.1-1.9-4.1-4.5c0-2.6,1.4-4.5,4.1-4.5
			C10,305.4,11.4,307.2,11.4,309.9z M10.2,309.9c0-2.2-1.1-3.6-2.9-3.6s-2.9,1.4-2.9,3.6c0,2.2,1.1,3.6,2.9,3.6
			S10.2,312.1,10.2,309.9z"/>
		<path class="st4" d="M19.5,310.5v3.7h-1.1v-3.6c0-0.3,0-0.6,0-0.9c-0.1-0.8-0.5-1.3-1.5-1.3c-1,0-1.9,0.8-1.9,3v2.9h-1.1v-6.6h1.1
			v1.1l0.4-0.8c0.6-0.4,1-0.5,1.7-0.5c1.4,0,2.3,0.8,2.4,1.9C19.5,309.7,19.5,309.9,19.5,310.5z"/>
		<path class="st4" d="M27.7,311.2h-4.8c0.1,1.7,0.9,2.3,1.9,2.3c0.9,0,1.6-0.5,1.7-1.5h1.1c-0.3,1.6-1.5,2.3-2.9,2.3
			c-1.7,0-3-1.1-3-3.4c0-2.1,1.3-3.5,3.1-3.5c1.8,0,2.8,1.4,2.8,3.3C27.7,310.8,27.7,311,27.7,311.2z M22.9,310.4h3.7
			c-0.1-1.4-0.7-2.2-1.8-2.2C23.8,308.2,23.1,309,22.9,310.4z"/>
		<path class="st4" d="M40.6,310.5v3.7h-1.1v-3.6c0-0.3,0-0.6,0-0.9c-0.1-0.8-0.5-1.4-1.5-1.3c-1,0-1.9,0.8-1.9,3v2.9H35V305h1.1
			v3.7l0.4-0.8c0.6-0.4,1-0.5,1.7-0.5c1.4,0,2.3,0.8,2.4,1.9C40.6,309.7,40.6,309.9,40.6,310.5z"/>
		<path class="st4" d="M47.1,313.2l-0.4,0.7c-0.4,0.3-1,0.4-1.7,0.4c-1.2,0-2.1-0.7-2.1-1.9c0-1.5,1.1-2.3,3.7-2.3h0.4V310
			c0-0.3,0-0.5,0-0.8c0-0.6-0.4-1-1.3-1c-0.9,0-1.3,0.5-1.4,1.4h-1.1c0.1-1.4,1.1-2.2,2.5-2.2c1.6,0,2.2,0.7,2.3,1.7
			c0,0.3,0,0.6,0,0.9v2.5c0,0.5,0,0.9,0.1,1.7h-1.1L47.1,313.2z M47.1,311.7V311c-1.8-0.1-3,0.2-3,1.4c0,0.8,0.5,1.1,1.3,1.1
			C46.5,313.5,47.1,312.9,47.1,311.7z"/>
		<path class="st4" d="M57.4,310.8c0,2.4-1.5,3.6-3.2,3.6c-0.5,0-1.2-0.2-1.6-0.4l-0.4-0.6v3.3h-1.1v-9h1.1v1.1l0.5-0.7
			c0.4-0.3,1.1-0.5,1.7-0.5C56.4,307.4,57.4,308.8,57.4,310.8z M56.3,310.9c0-1.5-0.7-2.7-2-2.7c-1.1,0-2.1,0.7-2.1,2.6v0.4
			c0,1.7,1.1,2.4,2,2.4C55.4,313.5,56.3,312.6,56.3,310.9z"/>
		<path class="st4" d="M66.1,310.8c0,2.4-1.5,3.6-3.2,3.6c-0.5,0-1.2-0.2-1.6-0.4l-0.4-0.6v3.3h-1.1v-9h1.1v1.1l0.5-0.7
			c0.4-0.3,1.1-0.5,1.7-0.5C65,307.4,66.1,308.8,66.1,310.8z M64.9,310.9c0-1.5-0.7-2.7-2-2.7c-1.1,0-2.1,0.7-2.1,2.6v0.4
			c0,1.7,1.1,2.4,2,2.4C64,313.5,64.9,312.6,64.9,310.9z"/>
		<path class="st4" d="M71.1,314.7c-0.5,1.4-1.2,2.1-2.3,2.1c-0.2,0-0.4,0-0.5,0v-0.9c0.2,0,0.3,0,0.4,0c0.7,0,1.1-0.3,1.4-1.2
			l0.1-0.2l-2.6-6.9h1.2l2,5.8l2-5.8h1.2L71.1,314.7z"/>
		<path class="st4" d="M81.7,312.3c0,0.2,0,0.4,0,0.6c0,0.4,0.2,0.6,0.8,0.5v0.8c-0.2,0-0.5,0-0.8,0c-0.6,0-1.1-0.2-1.1-1
			c0-0.2,0-0.5,0-0.9V305h1.1V312.3z"/>
		<path class="st4" d="M86,306.1c0,0.4-0.3,0.7-0.7,0.7c-0.4,0-0.7-0.3-0.7-0.7c0-0.4,0.3-0.7,0.7-0.7C85.7,305.4,86,305.7,86,306.1
			z M84.8,314.2v-6.6h1.1v6.6H84.8z"/>
		<path class="st4" d="M90,307v0.6h1.4v0.8H90v5.7h-1.1v-5.7h-0.7v-0.8h0.7v-0.5c0-0.2,0-0.6,0-0.8c0.1-1,0.8-1.5,1.7-1.5
			c0.3,0,0.5,0,0.8,0.1v0.9c-0.8-0.1-1.3,0-1.4,0.6C90,306.5,90,306.8,90,307z"/>
		<path class="st4" d="M98.9,311.2h-4.8c0.1,1.7,0.9,2.3,1.9,2.3c0.9,0,1.6-0.5,1.7-1.5h1.1c-0.3,1.6-1.5,2.3-2.9,2.3
			c-1.7,0-3-1.1-3-3.4c0-2.1,1.3-3.5,3.1-3.5c1.8,0,2.8,1.4,2.8,3.3C98.9,310.8,98.9,311,98.9,311.2z M94.1,310.4h3.7
			c-0.1-1.4-0.7-2.2-1.8-2.2C95,308.2,94.2,309,94.1,310.4z"/>
		<path class="st4" d="M112.9,314.2h-1.3l-1.5-5.5l-1.5,5.5h-1.3l-2.1-6.6h1.2l1.5,5.6l1.4-5.6h1.3l1.5,5.5l1.5-5.5h1.1L112.9,314.2
			z"/>
		<path class="st4" d="M118.2,306.1c0,0.4-0.3,0.7-0.7,0.7c-0.4,0-0.7-0.3-0.7-0.7c0-0.4,0.3-0.7,0.7-0.7
			C117.9,305.4,118.2,305.7,118.2,306.1z M117,314.2v-6.6h1.1v6.6H117z"/>
		<path class="st4" d="M122.3,312.2c0,0.2,0,0.3,0,0.5c0,0.6,0.3,0.8,1.1,0.7v0.8c-0.3,0-0.6,0.1-0.9,0.1c-0.8,0-1.2-0.3-1.3-1.2
			c0-0.2,0-0.4,0-0.8v-3.8h-0.9v-0.8h0.9v-1.5h1.1v1.5h1.2v0.8h-1.2V312.2z"/>
		<path class="st4" d="M131.6,310.5v3.7h-1.1v-3.6c0-0.3,0-0.6,0-0.9c-0.1-0.8-0.5-1.4-1.5-1.3c-1,0-1.9,0.8-1.9,3v2.9H126V305h1.1
			v3.7l0.4-0.8c0.6-0.4,1-0.5,1.7-0.5c1.4,0,2.3,0.8,2.4,1.9C131.6,309.7,131.6,309.9,131.6,310.5z"/>
		<path class="st4" d="M140.2,314.7c0,0.2,0,0.6,0,0.8c-0.1,0.8-0.5,1.2-1.5,1.2c-0.2,0-0.3,0-0.5,0v-0.9c0.7,0.1,0.9-0.1,1-0.5
			c0-0.2,0-0.4,0-0.5v-7.2h1.1V314.7z M140.4,306.1c0,0.4-0.3,0.7-0.7,0.7c-0.4,0-0.7-0.3-0.7-0.7c0-0.4,0.3-0.7,0.7-0.7
			C140.1,305.4,140.4,305.7,140.4,306.1z"/>
		<path class="st4" d="M148.7,314.2h-1.1V313l-0.4,0.8c-0.6,0.4-1,0.5-1.7,0.5c-1.4,0-2.2-0.8-2.3-1.7c0-0.3-0.1-0.6-0.1-1.1v-4h1.1
			v3.8c0,0.2,0,0.6,0,0.9c0.1,0.7,0.6,1.3,1.5,1.3c1,0,1.9-0.8,1.9-3v-2.9h1.1V314.2z"/>
		<path class="st4" d="M156,309.4h-1.1c-0.1-0.8-0.6-1.2-1.4-1.2c-0.7,0-1.1,0.4-1.1,1c0,0.7,0.5,0.9,1.4,1.2c1.5,0.4,2.2,1,2.2,2.1
			c0,1.2-1.1,1.9-2.4,1.9c-1.4,0-2.4-0.6-2.6-2.1h1.1c0.2,1,0.8,1.3,1.5,1.3c0.7,0,1.3-0.3,1.3-1c0-0.6-0.4-1-1.6-1.3
			c-1.2-0.3-2.1-0.8-2.1-2c0-1.2,0.9-1.9,2.3-1.9C155,307.4,155.8,308.2,156,309.4z"/>
		<path class="st4" d="M159.7,312.2c0,0.2,0,0.3,0,0.5c0,0.6,0.3,0.8,1.1,0.7v0.8c-0.3,0-0.6,0.1-0.9,0.1c-0.8,0-1.2-0.3-1.3-1.2
			c0-0.2,0-0.4,0-0.8v-3.8h-0.9v-0.8h0.9v-1.5h1.1v1.5h1.2v0.8h-1.2V312.2z"/>
		<path class="st4" d="M171.8,306.5v7.7h-1.1v-7.7h-3.1v-0.9h7.2v0.9H171.8z"/>
		<path class="st4" d="M183.5,314.2h-1.3l-1.5-5.5l-1.5,5.5H178l-2.1-6.6h1.2l1.5,5.6l1.4-5.6h1.3l1.5,5.5l1.5-5.5h1.1L183.5,314.2z
			"/>
		<path class="st4" d="M193.6,310.9c0,1.9-1,3.5-3.3,3.5c-2.2,0-3.3-1.6-3.3-3.5c0-1.9,1-3.5,3.3-3.5
			C192.6,307.4,193.6,309,193.6,310.9z M192.5,310.9c0-1.6-0.8-2.6-2.1-2.6c-1.3,0-2.1,1.1-2.1,2.6c0,1.5,0.8,2.6,2.1,2.6
			C191.7,313.5,192.5,312.4,192.5,310.9z"/>
		<path class="st4" d="M206.8,310.9c0,1.9-1,3.5-3.3,3.5c-2.2,0-3.3-1.6-3.3-3.5c0-1.9,1-3.5,3.3-3.5
			C205.8,307.4,206.8,309,206.8,310.9z M205.6,310.9c0-1.6-0.8-2.6-2.1-2.6c-1.3,0-2.1,1.1-2.1,2.6c0,1.5,0.8,2.6,2.1,2.6
			C204.9,313.5,205.6,312.4,205.6,310.9z"/>
		<path class="st4" d="M210.3,307v0.6h1.4v0.8h-1.4v5.7h-1.1v-5.7h-0.7v-0.8h0.7v-0.5c0-0.2,0-0.6,0-0.8c0.1-1,0.8-1.5,1.7-1.5
			c0.3,0,0.5,0,0.8,0.1v0.9c-0.8-0.1-1.3,0-1.4,0.6C210.3,306.5,210.3,306.8,210.3,307z"/>
		<path class="st4" d="M224.1,314.2H223V313l-0.4,0.8c-0.6,0.4-1,0.5-1.7,0.5c-1.4,0-2.2-0.8-2.3-1.7c0-0.3-0.1-0.6-0.1-1.1v-4h1.1
			v3.8c0,0.2,0,0.6,0,0.9c0.1,0.7,0.6,1.3,1.5,1.3c1,0,1.9-0.8,1.9-3v-2.9h1.1V314.2z"/>
		<path class="st4" d="M231.4,309.4h-1.1c-0.1-0.8-0.6-1.2-1.4-1.2c-0.7,0-1.1,0.4-1.1,1c0,0.7,0.5,0.9,1.4,1.2
			c1.5,0.4,2.2,1,2.2,2.1c0,1.2-1.1,1.9-2.4,1.9c-1.4,0-2.4-0.6-2.6-2.1h1.1c0.2,1,0.8,1.3,1.5,1.3c0.7,0,1.3-0.3,1.3-1
			c0-0.6-0.4-1-1.6-1.3c-1.2-0.3-2.1-0.8-2.1-2c0-1.2,0.9-1.9,2.3-1.9C230.5,307.4,231.3,308.2,231.4,309.4z"/>
		<path class="st4" d="M244.2,310.5v3.7h-1.1v-3.6c0-0.3,0-0.6,0-0.9c-0.1-0.8-0.5-1.4-1.5-1.3c-1,0-1.9,0.8-1.9,3v2.9h-1.1V305h1.1
			v3.7l0.4-0.8c0.6-0.4,1-0.5,1.7-0.5c1.4,0,2.3,0.8,2.4,1.9C244.2,309.7,244.2,309.9,244.2,310.5z"/>
		<path class="st4" d="M250.7,313.2l-0.4,0.7c-0.4,0.3-1,0.4-1.7,0.4c-1.2,0-2.1-0.7-2.1-1.9c0-1.5,1.1-2.3,3.7-2.3h0.4V310
			c0-0.3,0-0.5,0-0.8c0-0.6-0.4-1-1.3-1c-0.9,0-1.3,0.5-1.4,1.4h-1.1c0.1-1.4,1.1-2.2,2.5-2.2c1.6,0,2.2,0.7,2.3,1.7
			c0,0.3,0,0.6,0,0.9v2.5c0,0.5,0,0.9,0.1,1.7h-1.1L250.7,313.2z M250.7,311.7V311c-1.8-0.1-3,0.2-3,1.4c0,0.8,0.5,1.1,1.3,1.1
			C250.1,313.5,250.7,312.9,250.7,311.7z"/>
		<path class="st4" d="M257.6,314.2h-1.3l-2.5-6.6h1.2l2,5.8l2-5.8h1.1L257.6,314.2z"/>
		<path class="st4" d="M263.4,306.1c0,0.4-0.3,0.7-0.7,0.7c-0.4,0-0.7-0.3-0.7-0.7c0-0.4,0.3-0.7,0.7-0.7
			C263.1,305.4,263.4,305.7,263.4,306.1z M262.2,314.2v-6.6h1.1v6.6H262.2z"/>
		<path class="st4" d="M271.8,310.5v3.7h-1.1v-3.6c0-0.3,0-0.6,0-0.9c-0.1-0.8-0.5-1.3-1.5-1.3c-1,0-1.9,0.8-1.9,3v2.9h-1.1v-6.6
			h1.1v1.1l0.4-0.8c0.6-0.4,1-0.5,1.7-0.5c1.4,0,2.3,0.8,2.4,1.9C271.8,309.7,271.8,309.9,271.8,310.5z"/>
		<path class="st4" d="M280.4,312.5c0,0.4,0,0.9,0,1.3c-0.1,1.9-1.2,2.9-3.1,2.9c-1.9,0-2.8-0.8-2.9-2.2l0-0.1h1.1l0,0.1
			c0.1,0.8,0.7,1.4,1.9,1.4c1.3,0,2-0.7,2.1-2c0-0.3,0-0.5,0-0.7v-0.1l-0.5,0.7c-0.4,0.3-1.1,0.5-1.7,0.5c-1.9,0-3-1.4-3-3.4
			c0-2.4,1.5-3.6,3.2-3.6c0.5,0,1.2,0.2,1.6,0.4l0.4,0.6v-0.9h1.1V312.5z M279.3,310.9v-0.4c0-1.7-1.1-2.4-2-2.4
			c-1.2,0-2.1,0.9-2.1,2.6c0,1.5,0.7,2.7,2,2.7C278.3,313.5,279.3,312.8,279.3,310.9z"/>
		<path class="st4" d="M291.8,306.5v7.7h-1.1v-7.7h-3.1v-0.9h7.2v0.9H291.8z"/>
		<path class="st4" d="M302.1,310.5v3.7h-1.1v-3.6c0-0.3,0-0.6,0-0.9c-0.1-0.8-0.5-1.4-1.5-1.3c-1,0-1.9,0.8-1.9,3v2.9h-1.1V305h1.1
			v3.7l0.4-0.8c0.6-0.4,1-0.5,1.7-0.5c1.4,0,2.3,0.8,2.4,1.9C302.1,309.7,302.1,309.9,302.1,310.5z"/>
		<path class="st4" d="M308,307.5v0.8c-1.1-0.1-2,0.6-2,2.1v3.8H305v-6.6h1.1v1l0.6-0.9c0.3-0.2,0.6-0.3,0.9-0.3
			C307.7,307.4,307.9,307.4,308,307.5z"/>
		<path class="st4" d="M315.4,311.2h-4.8c0.1,1.7,0.9,2.3,1.9,2.3c0.9,0,1.6-0.5,1.7-1.5h1.1c-0.3,1.6-1.5,2.3-2.9,2.3
			c-1.7,0-3-1.1-3-3.4c0-2.1,1.3-3.5,3.1-3.5c1.8,0,2.8,1.4,2.8,3.3C315.4,310.8,315.4,311,315.4,311.2z M310.6,310.4h3.7
			c-0.1-1.4-0.7-2.2-1.8-2.2C311.5,308.2,310.7,309,310.6,310.4z"/>
		<path class="st4" d="M323.3,311.2h-4.8c0.1,1.7,0.9,2.3,1.9,2.3c0.9,0,1.6-0.5,1.7-1.5h1.1c-0.3,1.6-1.5,2.3-2.9,2.3
			c-1.7,0-3-1.1-3-3.4c0-2.1,1.3-3.5,3.1-3.5c1.8,0,2.8,1.4,2.8,3.3C323.3,310.8,323.3,311,323.3,311.2z M318.5,310.4h3.7
			c-0.1-1.4-0.7-2.2-1.8-2.2C319.4,308.2,318.6,309,318.5,310.4z"/>
		<path class="st4" d="M339.4,310.1v4h-1.1v-3.5c0-0.6,0-0.9,0-1.3c-0.1-0.7-0.6-1.1-1.3-1.1c-0.8,0-1.4,0.7-1.4,2.7v3.3h-1.1v-3.5
			c0-0.6,0-0.9,0-1.3c-0.1-0.7-0.6-1.1-1.3-1.1c-0.8,0-1.4,0.7-1.4,2.7v3.3h-1.1v-6.6h1.1v1l0.4-0.7c0.3-0.3,0.8-0.4,1.4-0.4
			c1,0,1.7,0.5,1.9,1.2l0.6-0.8c0.3-0.3,0.8-0.4,1.4-0.4c1.2,0,1.9,0.7,2,1.6C339.4,309.3,339.4,309.6,339.4,310.1z"/>
		<path class="st4" d="M347.7,311.2h-4.8c0.1,1.7,0.9,2.3,1.9,2.3c0.9,0,1.6-0.5,1.7-1.5h1.1c-0.3,1.6-1.5,2.3-2.9,2.3
			c-1.7,0-3-1.1-3-3.4c0-2.1,1.3-3.5,3.1-3.5c1.8,0,2.8,1.4,2.8,3.3C347.7,310.8,347.7,311,347.7,311.2z M342.9,310.4h3.7
			c-0.1-1.4-0.7-2.2-1.8-2.2C343.8,308.2,343,309,342.9,310.4z"/>
		<path class="st4" d="M353.8,313.2l-0.4,0.7c-0.4,0.3-1,0.4-1.7,0.4c-1.2,0-2.1-0.7-2.1-1.9c0-1.5,1.1-2.3,3.7-2.3h0.4V310
			c0-0.3,0-0.5,0-0.8c0-0.6-0.4-1-1.3-1c-0.9,0-1.3,0.5-1.4,1.4H350c0.1-1.4,1.1-2.2,2.5-2.2c1.6,0,2.2,0.7,2.3,1.7
			c0,0.3,0,0.6,0,0.9v2.5c0,0.5,0,0.9,0.1,1.7H354L353.8,313.2z M353.8,311.7V311c-1.8-0.1-3,0.2-3,1.4c0,0.8,0.5,1.1,1.3,1.1
			C353.2,313.5,353.8,312.9,353.8,311.7z"/>
		<path class="st4" d="M358.9,312.3c0,0.2,0,0.4,0,0.6c0,0.4,0.2,0.6,0.8,0.5v0.8c-0.2,0-0.5,0-0.8,0c-0.6,0-1.1-0.2-1.1-1
			c0-0.2,0-0.5,0-0.9V305h1.1V312.3z"/>
		<path class="st4" d="M366.3,309.4h-1.1c-0.1-0.8-0.6-1.2-1.4-1.2c-0.7,0-1.1,0.4-1.1,1c0,0.7,0.5,0.9,1.4,1.2
			c1.5,0.4,2.2,1,2.2,2.1c0,1.2-1.1,1.9-2.4,1.9c-1.4,0-2.4-0.6-2.6-2.1h1.1c0.2,1,0.8,1.3,1.5,1.3c0.7,0,1.3-0.3,1.3-1
			c0-0.6-0.4-1-1.6-1.3c-1.2-0.3-2.1-0.8-2.1-2c0-1.2,0.9-1.9,2.3-1.9C365.4,307.4,366.2,308.2,366.3,309.4z"/>
		<path class="st4" d="M374.8,312.2c0,0.2,0,0.3,0,0.5c0,0.6,0.3,0.8,1.1,0.7v0.8c-0.3,0-0.6,0.1-0.9,0.1c-0.8,0-1.2-0.3-1.3-1.2
			c0-0.2,0-0.4,0-0.8v-3.8h-0.9v-0.8h0.9v-1.5h1.1v1.5h1.2v0.8h-1.2V312.2z"/>
		<path class="st4" d="M384.3,310.9c0,1.9-1,3.5-3.3,3.5c-2.2,0-3.3-1.6-3.3-3.5c0-1.9,1-3.5,3.3-3.5
			C383.3,307.4,384.3,309,384.3,310.9z M383.2,310.9c0-1.6-0.8-2.6-2.1-2.6s-2.1,1.1-2.1,2.6c0,1.5,0.8,2.6,2.1,2.6
			S383.2,312.4,383.2,310.9z"/>
		<path class="st4" d="M392.4,312.5c0,0.4,0,0.9,0,1.3c-0.1,1.9-1.2,2.9-3.1,2.9c-1.9,0-2.8-0.8-2.9-2.2l0-0.1h1.1l0,0.1
			c0.1,0.8,0.7,1.4,1.9,1.4c1.3,0,2-0.7,2.1-2c0-0.3,0-0.5,0-0.7v-0.1l-0.5,0.7c-0.4,0.3-1.1,0.5-1.7,0.5c-1.9,0-3-1.4-3-3.4
			c0-2.4,1.5-3.6,3.2-3.6c0.5,0,1.2,0.2,1.6,0.4l0.4,0.6v-0.9h1.1V312.5z M391.4,310.9v-0.4c0-1.7-1.1-2.4-2-2.4
			c-1.2,0-2.1,0.9-2.1,2.6c0,1.5,0.7,2.7,2,2.7C390.4,313.5,391.4,312.8,391.4,310.9z"/>
		<path class="st4" d="M400.8,311.2H396c0.1,1.7,0.9,2.3,1.9,2.3c0.9,0,1.6-0.5,1.7-1.5h1.1c-0.3,1.6-1.5,2.3-2.9,2.3
			c-1.7,0-3-1.1-3-3.4c0-2.1,1.3-3.5,3.1-3.5c1.8,0,2.8,1.4,2.8,3.3C400.8,310.8,400.8,311,400.8,311.2z M396,310.4h3.7
			c-0.1-1.4-0.7-2.2-1.8-2.2C396.9,308.2,396.1,309,396,310.4z"/>
		<path class="st4" d="M404.6,312.2c0,0.2,0,0.3,0,0.5c0,0.6,0.3,0.8,1.1,0.7v0.8c-0.3,0-0.6,0.1-0.9,0.1c-0.8,0-1.2-0.3-1.3-1.2
			c0-0.2,0-0.4,0-0.8v-3.8h-0.9v-0.8h0.9v-1.5h1.1v1.5h1.2v0.8h-1.2V312.2z"/>
		<path class="st4" d="M413.8,310.5v3.7h-1.1v-3.6c0-0.3,0-0.6,0-0.9c-0.1-0.8-0.5-1.4-1.5-1.3c-1,0-1.9,0.8-1.9,3v2.9h-1.1V305h1.1
			v3.7l0.4-0.8c0.6-0.4,1-0.5,1.7-0.5c1.4,0,2.3,0.8,2.4,1.9C413.8,309.7,413.8,309.9,413.8,310.5z"/>
		<path class="st4" d="M422.1,311.2h-4.8c0.1,1.7,0.9,2.3,1.9,2.3c0.9,0,1.6-0.5,1.7-1.5h1.1c-0.3,1.6-1.5,2.3-2.9,2.3
			c-1.7,0-3-1.1-3-3.4c0-2.1,1.3-3.5,3.1-3.5c1.8,0,2.8,1.4,2.8,3.3C422.1,310.8,422.1,311,422.1,311.2z M417.3,310.4h3.7
			c-0.1-1.4-0.7-2.2-1.8-2.2C418.2,308.2,417.4,309,417.3,310.4z"/>
		<path class="st4" d="M427.6,307.5v0.8c-1.1-0.1-2,0.6-2,2.1v3.8h-1.1v-6.6h1.1v1l0.6-0.9c0.3-0.2,0.6-0.3,0.9-0.3
			C427.3,307.4,427.5,307.4,427.6,307.5z"/>
		<path class="st4" d="M9,336.6H4.3c0.1,1.7,0.9,2.3,1.9,2.3c0.9,0,1.6-0.5,1.7-1.5H9c-0.3,1.6-1.5,2.3-2.9,2.3c-1.7,0-3-1.1-3-3.4
			c0-2.1,1.3-3.5,3.1-3.5c1.8,0,2.8,1.4,2.8,3.3C9.1,336.1,9.1,336.3,9,336.6z M4.3,335.7H8c-0.1-1.4-0.7-2.2-1.8-2.2
			C5.2,333.6,4.4,334.3,4.3,335.7z"/>
		<path class="st4" d="M14.4,339.5h-1.3l-2.5-6.6h1.2l2,5.8l2-5.8h1.1L14.4,339.5z"/>
		<path class="st4" d="M24.3,336.6h-4.8c0.1,1.7,0.9,2.3,1.9,2.3c0.9,0,1.6-0.5,1.7-1.5h1.1c-0.3,1.6-1.5,2.3-2.9,2.3
			c-1.7,0-3-1.1-3-3.4c0-2.1,1.3-3.5,3.1-3.5c1.8,0,2.8,1.4,2.8,3.3C24.3,336.1,24.3,336.3,24.3,336.6z M19.5,335.7h3.7
			c-0.1-1.4-0.7-2.2-1.8-2.2C20.4,333.6,19.6,334.3,19.5,335.7z"/>
		<path class="st4" d="M29.8,332.9v0.8c-1.1-0.1-2,0.6-2,2.1v3.8h-1.1v-6.6h1.1v1l0.6-0.9c0.3-0.2,0.6-0.3,0.9-0.3
			C29.5,332.8,29.7,332.8,29.8,332.9z"/>
		<path class="st4" d="M34.6,340.1c-0.5,1.4-1.2,2.1-2.3,2.1c-0.2,0-0.4,0-0.5,0v-0.9c0.2,0,0.3,0,0.4,0c0.7,0,1.1-0.3,1.4-1.2
			l0.1-0.2l-2.6-6.9h1.2l2,5.8l2-5.8h1.2L34.6,340.1z"/>
		<path class="st4" d="M48.9,339.5h-1.1v-1.1l-0.5,0.7c-0.4,0.3-1.1,0.5-1.7,0.5c-1.9,0-3-1.4-3-3.4c0-2.4,1.5-3.6,3.2-3.6
			c0.5,0,1.2,0.2,1.6,0.4l0.4,0.6v-3.5h1.1V339.5z M47.8,336.3v-0.4c0-1.7-1.1-2.4-2-2.4c-1.2,0-2.1,0.9-2.1,2.6
			c0,1.5,0.7,2.7,2,2.7C46.8,338.9,47.8,338.2,47.8,336.3z"/>
		<path class="st4" d="M55.5,338.6l-0.4,0.7c-0.4,0.3-1,0.4-1.7,0.4c-1.2,0-2.1-0.7-2.1-1.9c0-1.5,1.1-2.3,3.7-2.3h0.4v-0.2
			c0-0.3,0-0.5,0-0.8c0-0.6-0.4-1-1.3-1c-0.9,0-1.3,0.5-1.4,1.4h-1.1c0.1-1.4,1.1-2.2,2.5-2.2c1.6,0,2.2,0.7,2.3,1.7
			c0,0.3,0,0.6,0,0.9v2.5c0,0.5,0,0.9,0.1,1.7h-1.1L55.5,338.6z M55.5,337v-0.7c-1.8-0.1-3,0.2-3,1.4c0,0.8,0.5,1.1,1.3,1.1
			C54.8,338.9,55.5,338.2,55.5,337z"/>
		<path class="st4" d="M62.2,340.1c-0.5,1.4-1.2,2.1-2.3,2.1c-0.2,0-0.4,0-0.5,0v-0.9c0.2,0,0.3,0,0.4,0c0.7,0,1.1-0.3,1.4-1.2
			l0.1-0.2l-2.6-6.9h1.2l2,5.8l2-5.8h1.2L62.2,340.1z"/>
		<path class="st4" d="M71.9,331.5c0,0.4-0.3,0.7-0.7,0.7c-0.4,0-0.7-0.3-0.7-0.7c0-0.4,0.3-0.7,0.7-0.7
			C71.6,330.8,71.9,331.1,71.9,331.5z M70.7,339.5v-6.6h1.1v6.6H70.7z"/>
		<path class="st4" d="M80.3,335.8v3.7h-1.1v-3.6c0-0.3,0-0.6,0-0.9c-0.1-0.8-0.5-1.3-1.5-1.3c-1,0-1.9,0.8-1.9,3v2.9h-1.1v-6.6h1.1
			v1.1l0.4-0.8c0.6-0.4,1-0.5,1.7-0.5c1.4,0,2.3,0.8,2.4,1.9C80.3,335,80.3,335.3,80.3,335.8z"/>
		<path class="st4" d="M90.6,338.6l-0.4,0.7c-0.4,0.3-1,0.4-1.7,0.4c-1.2,0-2.1-0.7-2.1-1.9c0-1.5,1.1-2.3,3.7-2.3h0.4v-0.2
			c0-0.3,0-0.5,0-0.8c0-0.6-0.4-1-1.3-1c-0.9,0-1.3,0.5-1.4,1.4h-1.1c0.1-1.4,1.1-2.2,2.5-2.2c1.6,0,2.2,0.7,2.3,1.7
			c0,0.3,0,0.6,0,0.9v2.5c0,0.5,0,0.9,0.1,1.7h-1.1L90.6,338.6z M90.5,337v-0.7c-1.8-0.1-3,0.2-3,1.4c0,0.8,0.5,1.1,1.3,1.1
			C89.9,338.9,90.5,338.2,90.5,337z"/>
		<path class="st4" d="M95.6,337.6c0,0.2,0,0.4,0,0.6c0,0.4,0.2,0.6,0.8,0.5v0.8c-0.2,0-0.5,0-0.8,0c-0.6,0-1.1-0.2-1.1-1
			c0-0.2,0-0.5,0-0.9v-7.3h1.1V337.6z"/>
		<path class="st4" d="M99.7,337.6c0,0.2,0,0.4,0,0.6c0,0.4,0.2,0.6,0.8,0.5v0.8c-0.2,0-0.5,0-0.8,0c-0.6,0-1.1-0.2-1.1-1
			c0-0.2,0-0.5,0-0.9v-7.3h1.1V337.6z"/>
		<path class="st4" d="M107.9,334.8h4v0.9h-4v3.9h-1.1v-8.6h5.6v0.9h-4.5V334.8z"/>
		<path class="st4" d="M120.7,336.2c0,1.9-1,3.5-3.3,3.5c-2.2,0-3.3-1.6-3.3-3.5c0-1.9,1-3.5,3.3-3.5
			C119.6,332.8,120.7,334.4,120.7,336.2z M119.5,336.2c0-1.6-0.8-2.6-2.1-2.6c-1.3,0-2.1,1.1-2.1,2.6c0,1.5,0.8,2.6,2.1,2.6
			C118.7,338.9,119.5,337.8,119.5,336.2z"/>
		<path class="st4" d="M128.5,339.5h-1.1v-1.1l-0.4,0.8c-0.6,0.4-1,0.5-1.7,0.5c-1.4,0-2.2-0.8-2.3-1.7c0-0.3-0.1-0.6-0.1-1.1v-4
			h1.1v3.8c0,0.2,0,0.6,0,0.9c0.1,0.7,0.6,1.3,1.5,1.3c1,0,1.9-0.8,1.9-3v-2.9h1.1V339.5z"/>
		<path class="st4" d="M134.5,332.9v0.8c-1.1-0.1-2,0.6-2,2.1v3.8h-1.1v-6.6h1.1v1l0.6-0.9c0.3-0.2,0.6-0.3,0.9-0.3
			C134.2,332.8,134.3,332.8,134.5,332.9z"/>
		<path class="st4" d="M144.7,334.8h-1.1c-0.1-0.8-0.6-1.2-1.4-1.2c-0.7,0-1.1,0.4-1.1,1c0,0.7,0.5,0.9,1.4,1.2
			c1.5,0.4,2.2,1,2.2,2.1c0,1.2-1.1,1.9-2.4,1.9c-1.4,0-2.4-0.6-2.6-2.1h1.1c0.2,1,0.8,1.3,1.5,1.3c0.7,0,1.3-0.3,1.3-1
			c0-0.6-0.4-1-1.6-1.3c-1.2-0.3-2.1-0.8-2.1-2c0-1.2,0.9-1.9,2.3-1.9C143.7,332.8,144.5,333.6,144.7,334.8z"/>
		<path class="st4" d="M152.5,336.6h-4.8c0.1,1.7,0.9,2.3,1.9,2.3c0.9,0,1.6-0.5,1.7-1.5h1.1c-0.3,1.6-1.5,2.3-2.9,2.3
			c-1.7,0-3-1.1-3-3.4c0-2.1,1.3-3.5,3.1-3.5c1.8,0,2.8,1.4,2.8,3.3C152.5,336.1,152.5,336.3,152.5,336.6z M147.7,335.7h3.7
			c-0.1-1.4-0.7-2.2-1.8-2.2C148.6,333.6,147.9,334.3,147.7,335.7z"/>
		<path class="st4" d="M158.7,338.6l-0.4,0.7c-0.4,0.3-1,0.4-1.7,0.4c-1.2,0-2.1-0.7-2.1-1.9c0-1.5,1.1-2.3,3.7-2.3h0.4v-0.2
			c0-0.3,0-0.5,0-0.8c0-0.6-0.4-1-1.3-1c-0.9,0-1.3,0.5-1.4,1.4h-1.1c0.1-1.4,1.1-2.2,2.5-2.2c1.6,0,2.2,0.7,2.3,1.7
			c0,0.3,0,0.6,0,0.9v2.5c0,0.5,0,0.9,0.1,1.7h-1.1L158.7,338.6z M158.7,337v-0.7c-1.8-0.1-3,0.2-3,1.4c0,0.8,0.5,1.1,1.3,1.1
			C158,338.9,158.7,338.2,158.7,337z"/>
		<path class="st4" d="M167,334.8h-1.1c-0.1-0.8-0.6-1.2-1.4-1.2c-0.7,0-1.1,0.4-1.1,1c0,0.7,0.5,0.9,1.4,1.2c1.5,0.4,2.2,1,2.2,2.1
			c0,1.2-1.1,1.9-2.4,1.9c-1.4,0-2.4-0.6-2.6-2.1h1.1c0.2,1,0.8,1.3,1.5,1.3c0.7,0,1.3-0.3,1.3-1c0-0.6-0.4-1-1.6-1.3
			c-1.2-0.3-2.1-0.8-2.1-2c0-1.2,0.9-1.9,2.3-1.9C166.1,332.8,166.9,333.6,167,334.8z"/>
		<path class="st4" d="M175.4,336.2c0,1.9-1,3.5-3.3,3.5c-2.2,0-3.3-1.6-3.3-3.5c0-1.9,1-3.5,3.3-3.5
			C174.4,332.8,175.4,334.4,175.4,336.2z M174.3,336.2c0-1.6-0.8-2.6-2.1-2.6c-1.3,0-2.1,1.1-2.1,2.6c0,1.5,0.8,2.6,2.1,2.6
			C173.5,338.9,174.3,337.8,174.3,336.2z"/>
		<path class="st4" d="M183.4,335.8v3.7h-1.1v-3.6c0-0.3,0-0.6,0-0.9c-0.1-0.8-0.5-1.3-1.5-1.3c-1,0-1.9,0.8-1.9,3v2.9h-1.1v-6.6
			h1.1v1.1l0.4-0.8c0.6-0.4,1-0.5,1.7-0.5c1.4,0,2.3,0.8,2.4,1.9C183.4,335,183.4,335.3,183.4,335.8z"/>
		<path class="st4" d="M190.6,334.8h-1.1c-0.1-0.8-0.6-1.2-1.4-1.2c-0.7,0-1.1,0.4-1.1,1c0,0.7,0.5,0.9,1.4,1.2
			c1.5,0.4,2.2,1,2.2,2.1c0,1.2-1.1,1.9-2.4,1.9c-1.4,0-2.4-0.6-2.6-2.1h1.1c0.2,1,0.8,1.3,1.5,1.3c0.7,0,1.3-0.3,1.3-1
			c0-0.6-0.4-1-1.6-1.3c-1.2-0.3-2.1-0.8-2.1-2c0-1.2,0.9-1.9,2.3-1.9C189.6,332.8,190.4,333.6,190.6,334.8z"/>
		<path class="st4" d="M197.8,332.3v0.6h1.4v0.8h-1.4v5.7h-1.1v-5.7h-0.7V333h0.7v-0.5c0-0.2,0-0.6,0-0.8c0.1-1,0.8-1.5,1.7-1.5
			c0.3,0,0.5,0,0.8,0.1v0.9c-0.8-0.1-1.3,0-1.4,0.6C197.9,331.8,197.8,332.2,197.8,332.3z"/>
		<path class="st4" d="M207.4,336.2c0,1.9-1,3.5-3.3,3.5c-2.2,0-3.3-1.6-3.3-3.5c0-1.9,1-3.5,3.3-3.5
			C206.4,332.8,207.4,334.4,207.4,336.2z M206.2,336.2c0-1.6-0.8-2.6-2.1-2.6s-2.1,1.1-2.1,2.6c0,1.5,0.8,2.6,2.1,2.6
			S206.2,337.8,206.2,336.2z"/>
		<path class="st4" d="M212.8,332.9v0.8c-1.1-0.1-2,0.6-2,2.1v3.8h-1.1v-6.6h1.1v1l0.6-0.9c0.3-0.2,0.6-0.3,0.9-0.3
			C212.5,332.8,212.7,332.8,212.8,332.9z"/>
		<path class="st4" d="M224,336.6h-4.8c0.1,1.7,0.9,2.3,1.9,2.3c0.9,0,1.6-0.5,1.7-1.5h1.1c-0.3,1.6-1.5,2.3-2.9,2.3
			c-1.7,0-3-1.1-3-3.4c0-2.1,1.3-3.5,3.1-3.5c1.8,0,2.8,1.4,2.8,3.3C224.1,336.1,224.1,336.3,224,336.6z M219.3,335.7h3.7
			c-0.1-1.4-0.7-2.2-1.8-2.2C220.2,333.6,219.4,334.3,219.3,335.7z"/>
		<path class="st4" d="M229.4,339.5h-1.3l-2.5-6.6h1.2l2,5.8l2-5.8h1.1L229.4,339.5z"/>
		<path class="st4" d="M239.3,336.6h-4.8c0.1,1.7,0.9,2.3,1.9,2.3c0.9,0,1.6-0.5,1.7-1.5h1.1c-0.3,1.6-1.5,2.3-2.9,2.3
			c-1.7,0-3-1.1-3-3.4c0-2.1,1.3-3.5,3.1-3.5c1.8,0,2.8,1.4,2.8,3.3C239.3,336.1,239.3,336.3,239.3,336.6z M234.5,335.7h3.7
			c-0.1-1.4-0.7-2.2-1.8-2.2C235.4,333.6,234.6,334.3,234.5,335.7z"/>
		<path class="st4" d="M244.8,332.9v0.8c-1.1-0.1-2,0.6-2,2.1v3.8h-1.1v-6.6h1.1v1l0.6-0.9c0.3-0.2,0.6-0.3,0.9-0.3
			C244.5,332.8,244.7,332.8,244.8,332.9z"/>
		<path class="st4" d="M249.6,340.1c-0.5,1.4-1.2,2.1-2.3,2.1c-0.2,0-0.4,0-0.5,0v-0.9c0.2,0,0.3,0,0.4,0c0.7,0,1.1-0.3,1.4-1.2
			l0.1-0.2l-2.6-6.9h1.2l2,5.8l2-5.8h1.2L249.6,340.1z"/>
		<path class="st4" d="M260.8,340.1c-0.5,1.4-1.2,2.1-2.3,2.1c-0.2,0-0.4,0-0.5,0v-0.9c0.2,0,0.3,0,0.4,0c0.7,0,1.1-0.3,1.4-1.2
			l0.1-0.2l-2.6-6.9h1.2l2,5.8l2-5.8h1.2L260.8,340.1z"/>
		<path class="st4" d="M270.9,336.6h-4.8c0.1,1.7,0.9,2.3,1.9,2.3c0.9,0,1.6-0.5,1.7-1.5h1.1c-0.3,1.6-1.5,2.3-2.9,2.3
			c-1.7,0-3-1.1-3-3.4c0-2.1,1.3-3.5,3.1-3.5c1.8,0,2.8,1.4,2.8,3.3C270.9,336.1,270.9,336.3,270.9,336.6z M266.1,335.7h3.7
			c-0.1-1.4-0.7-2.2-1.8-2.2C267,333.6,266.2,334.3,266.1,335.7z"/>
		<path class="st4" d="M277,338.6l-0.4,0.7c-0.4,0.3-1,0.4-1.7,0.4c-1.2,0-2.1-0.7-2.1-1.9c0-1.5,1.1-2.3,3.7-2.3h0.4v-0.2
			c0-0.3,0-0.5,0-0.8c0-0.6-0.4-1-1.3-1c-0.9,0-1.3,0.5-1.4,1.4h-1.1c0.1-1.4,1.1-2.2,2.5-2.2c1.6,0,2.2,0.7,2.3,1.7
			c0,0.3,0,0.6,0,0.9v2.5c0,0.5,0,0.9,0.1,1.7h-1.1L277,338.6z M277,337v-0.7c-1.8-0.1-3,0.2-3,1.4c0,0.8,0.5,1.1,1.3,1.1
			C276.4,338.9,277,338.2,277,337z"/>
		<path class="st4" d="M284.1,332.9v0.8c-1.1-0.1-2,0.6-2,2.1v3.8H281v-6.6h1.1v1l0.6-0.9c0.3-0.2,0.6-0.3,0.9-0.3
			C283.8,332.8,283.9,332.8,284.1,332.9z"/>
		<path class="st4" d="M287.3,338.9c0,0.5-0.3,0.8-0.8,0.8c-0.5,0-0.8-0.3-0.8-0.8c0-0.5,0.3-0.8,0.8-0.8
			C287,338.1,287.3,338.4,287.3,338.9z"/>
	</g>
</g>
</svg>
