<svg width="184" height="52" viewBox="0 0 184 52" fill="none" xmlns="http://www.w3.org/2000/svg">
<path d="M98.21 37.0601C93.95 41.9201 87.56 46.6201 81.77 48.9101C80.9 49.2401 80.46 48.4701 81.22 47.9301C86.63 43.8901 91.76 38.7001 95.15 33.1801L97.83 35.1501C98.81 35.8601 98.81 36.3501 98.21 37.0601ZM128.03 9.6401C128.03 11.0101 126.77 11.5001 124.97 11.5001H84.06C83.13 11.5001 82.8 10.9001 81.66 8.5501H105.15C104.82 8.2801 104.55 7.9501 104.22 7.5101C102.91 5.6501 101.49 3.5201 100.34 1.8801C99.85 1.1701 100.45 0.840103 101.1 1.0601C104.27 2.0401 106.51 3.1401 107.76 4.5601C108.96 5.9301 108.8 7.6201 107.98 8.5501H123.22C124.2 8.5501 124.8 8.1101 125.84 6.9101C126.99 8.0601 128.03 8.7101 128.03 9.6401ZM108.09 30.1201V47.7101C108.09 50.3301 105.19 51.9201 103.39 50.2201C102.13 49.0701 99.29 47.5401 97.98 47.1101C97.49 46.9501 97.54 46.2901 98.09 46.2901C99.29 46.2901 103.01 46.3501 103.28 46.2401C103.55 46.1301 103.55 46.0201 103.55 45.8001V30.1201H95.79C95.52 32.2501 93.28 33.0201 91.31 32.5201V14.9301L94.81 15.6401C95.52 15.8001 95.74 16.1901 95.79 16.3501H112.78C113.76 16.3501 114.53 15.9101 115.24 15.0401L118.85 16.0801C121.09 16.7401 119.72 18.1001 119.72 19.4101V29.8401C119.72 31.9701 117.7 32.8401 115.24 32.4101V30.1201H108.09ZM95.8 19.2001V27.2301H115.24V19.2001H95.8ZM125.46 41.9201C128.25 45.4201 125.68 49.4601 122.4 45.6901C121.03 44.1101 119.51 42.1401 117.92 40.5001C116.06 38.4801 114.26 36.6201 112.89 35.5301C112.4 35.0901 112.56 34.2701 113.55 34.6001C115.3 35.2001 117.26 36.0701 119.07 37.1101C121.53 38.4801 123.93 40.0101 125.46 41.9201Z" fill="#231815"/>
<path d="M143.93 40.0702V44.1102C143.93 46.4002 141.64 47.2802 139.89 46.7902V26.4202C138.41 28.8802 136.67 31.1702 135.41 32.1602C134.59 32.8202 134.15 32.1602 134.59 31.4002C136.34 28.4002 138.2 24.3502 139.23 21.1902C140.43 17.5902 141.36 14.1402 142.07 9.12017H136.28C135.52 9.12017 135.24 8.90018 134.31 6.39017H150.31C151.18 6.39017 151.73 5.79018 152.66 4.86018C153.64 5.79018 154.57 6.61018 154.57 7.32018C154.57 8.52017 153.59 9.12017 151.89 9.12017H146.32C145.56 13.1102 144.35 16.9902 143.04 20.1502H146.48C147.41 20.1502 147.85 19.7102 148.45 18.9502L151.95 20.0402C153.92 20.6402 152.5 22.2202 152.5 23.1502V41.3902C152.5 43.7402 150.37 44.5602 148.46 44.1202V40.0802H143.93V40.0702ZM143.93 22.8702V37.3402H148.46V22.8702H143.93ZM165.72 34.5002C163.75 44.6102 157.25 50.0102 147.42 51.0002C146.44 51.1102 146.38 50.2302 147.04 49.9602C156.71 46.3602 160.48 41.7102 161.68 32.0402L164.58 33.0202C165.78 33.4002 165.89 33.7302 165.73 34.4902L165.72 34.5002ZM182.93 48.9202C181.46 49.7902 177.58 50.1202 174.85 50.0102C168.51 49.7402 168.24 48.9702 168.24 42.2002V31.2802H160.48V31.6602C160.48 33.8502 158.4 34.9402 156.17 34.4502V2.43018L159.56 3.14017C160.38 3.30017 160.49 3.69018 160.49 3.90018H171.36C172.45 3.90018 173.16 3.24018 173.87 2.53018L177.53 3.79018C179.66 4.50018 178.19 5.97018 178.19 7.07018V31.4302C178.19 33.8902 175.62 34.5402 173.87 34.0002V31.2702H172.5V43.0702C172.5 45.3602 172.66 45.7502 174.03 45.9102C175.67 46.1302 177.2 46.0702 178.56 45.6902C179.54 45.4202 180.03 44.7102 180.2 43.6102L180.69 39.8402C180.74 39.4602 181.45 39.4602 181.51 39.8402L182.11 43.4402C182.33 44.6402 182.82 45.1902 183.42 45.7902C184.51 46.8802 183.86 48.3602 182.93 48.9002V48.9202ZM160.48 6.81017V12.2702H173.86V6.81017H160.48ZM160.48 20.4702H173.86V15.1202H160.48V20.4702ZM160.48 28.4402H173.86V23.3602H160.48V28.4402Z" fill="#231815"/>
<path d="M0.77002 38.0002H1.29002V42.0502H0.77002V38.0002Z" fill="#231815"/>
<path d="M2.75 38.0002H3.28L4.75 40.5502L5.19 41.3902H5.21C5.18 40.9802 5.14 40.5202 5.14 40.1002V38.0002H5.63V42.0502H5.1L3.63 39.5002L3.19 38.6602H3.17C3.2 39.0702 3.24 39.5002 3.24 39.9202V42.0402H2.75V37.9902V38.0002Z" fill="#231815"/>
<path d="M7.93996 38.4402H6.70996V38.0002H9.67996V38.4402H8.45996V42.0502H7.93996V38.4402Z" fill="#231815"/>
<path d="M10.77 38.0002H13.1V38.4402H11.28V39.7102H12.81V40.1502H11.28V41.6202H13.16V42.0602H10.76V38.0102L10.77 38.0002Z" fill="#231815"/>
<path d="M14.38 38.0002H15.65C16.47 38.0002 17.07 38.3002 17.07 39.1402C17.07 39.9802 16.48 40.3402 15.65 40.3402H14.9V42.0502H14.38V38.0002ZM15.57 39.9202C16.2 39.9202 16.55 39.6602 16.55 39.1402C16.55 38.6202 16.2 38.4202 15.57 38.4202H14.89V39.9202H15.57ZM15.54 40.2002L15.94 39.9302L17.18 42.0502H16.6L15.54 40.2002Z" fill="#231815"/>
<path d="M18.25 38.0002H18.78L20.25 40.5502L20.69 41.3902H20.71C20.68 40.9802 20.64 40.5202 20.64 40.1002V38.0002H21.13V42.0502H20.6L19.13 39.5002L18.69 38.6602H18.67C18.7 39.0702 18.74 39.5002 18.74 39.9202V42.0402H18.25V37.9902V38.0002Z" fill="#231815"/>
<path d="M23.4301 38.0002H24.0101L25.3801 42.0502H24.8301L24.1201 39.7902C23.9701 39.3402 23.8401 38.8902 23.7101 38.4202H23.6901C23.5601 38.8902 23.4301 39.3302 23.2901 39.7902L22.5801 42.0502H22.0601L23.4301 38.0002ZM22.7801 40.4002H24.6401V40.8102H22.7801V40.4002Z" fill="#231815"/>
<path d="M26.82 38.4402H25.6V38.0002H28.56V38.4402H27.34V42.0502H26.82V38.4402Z" fill="#231815"/>
<path d="M29.65 38.0002H30.17V42.0502H29.65V38.0002Z" fill="#231815"/>
<path d="M31.39 40.0102C31.39 38.7102 32.1 37.9302 33.12 37.9302C34.14 37.9302 34.85 38.7202 34.85 40.0102C34.85 41.3002 34.14 42.1202 33.12 42.1202C32.1 42.1202 31.39 41.3002 31.39 40.0102ZM34.32 40.0102C34.32 39.0002 33.84 38.3802 33.12 38.3802C32.4 38.3802 31.92 39.0002 31.92 40.0102C31.92 41.0202 32.4 41.6702 33.12 41.6702C33.84 41.6702 34.32 41.0202 34.32 40.0102Z" fill="#231815"/>
<path d="M36.0801 38.0002H36.6101L38.0801 40.5502L38.5201 41.3902H38.5401C38.5101 40.9802 38.4701 40.5202 38.4701 40.1002V38.0002H38.9601V42.0502H38.4301L36.9601 39.5002L36.5201 38.6602H36.5001C36.5301 39.0702 36.5701 39.5002 36.5701 39.9202V42.0402H36.0801V37.9902V38.0002Z" fill="#231815"/>
<path d="M41.27 38.0002H41.85L43.22 42.0502H42.67L41.96 39.7902C41.81 39.3402 41.68 38.8902 41.55 38.4202H41.53C41.4 38.8902 41.27 39.3302 41.13 39.7902L40.42 42.0502H39.9L41.27 38.0002ZM40.62 40.4002H42.48V40.8102H40.62V40.4002Z" fill="#231815"/>
<path d="M44.13 38.0002H44.65V41.6102H46.42V42.0502H44.14V38.0002H44.13Z" fill="#231815"/>
<path d="M50.4401 40.0302C50.4401 38.7202 51.2101 37.9302 52.2401 37.9302C52.7301 37.9302 53.1201 38.1702 53.3501 38.4302L53.0701 38.7702C52.8601 38.5402 52.5901 38.3902 52.2501 38.3902C51.4901 38.3902 50.9801 39.0202 50.9801 40.0302C50.9801 41.0402 51.4701 41.6902 52.2301 41.6902C52.6201 41.6902 52.9101 41.5202 53.1701 41.2402L53.4501 41.5602C53.1301 41.9302 52.7301 42.1402 52.2101 42.1402C51.2001 42.1402 50.4501 41.3602 50.4501 40.0502L50.4401 40.0302Z" fill="#231815"/>
<path d="M54.56 38.0002H56.89V38.4402H55.0701V39.7102H56.6001V40.1502H55.0701V41.6202H56.95V42.0602H54.55V38.0102L54.56 38.0002Z" fill="#231815"/>
<path d="M58.17 38.0002H58.7L60.17 40.5502L60.61 41.3902H60.6301C60.6001 40.9802 60.56 40.5202 60.56 40.1002V38.0002H61.05V42.0502H60.5201L59.05 39.5002L58.61 38.6602H58.59C58.62 39.0702 58.66 39.5002 58.66 39.9202V42.0402H58.17V37.9902V38.0002Z" fill="#231815"/>
<path d="M63.36 38.4402H62.13V38.0002H65.09V38.4402H63.87V42.0502H63.35V38.4402H63.36Z" fill="#231815"/>
<path d="M66.1901 38.0002H68.5201V38.4402H66.7001V39.7102H68.2301V40.1502H66.7001V41.6202H68.5801V42.0602H66.1801V38.0102L66.1901 38.0002Z" fill="#231815"/>
<path d="M69.8 38.0002H71.0701C71.8901 38.0002 72.4901 38.3002 72.4901 39.1402C72.4901 39.9802 71.9001 40.3402 71.0701 40.3402H70.3201V42.0502H69.8V38.0002ZM70.9901 39.9202C71.6201 39.9202 71.97 39.6602 71.97 39.1402C71.97 38.6202 71.6201 38.4202 70.9901 38.4202H70.31V39.9202H70.9901ZM70.9601 40.2002L71.36 39.9302L72.6001 42.0502H72.0201L70.9601 40.2002Z" fill="#231815"/>
<path d="M14.48 4.18018C6.59997 4.18018 0.209961 10.5702 0.209961 18.4502C0.209961 26.3302 6.59997 32.7202 14.48 32.7202C22.36 32.7202 28.75 26.3302 28.75 18.4502C28.75 10.5702 22.36 4.18018 14.48 4.18018ZM14.01 6.07018H14.95V23.9902H14.01V6.06017V6.07018ZM12.19 7.55017H13.59V23.9902H12.19V7.55017ZM6.11996 12.8202V8.96017H11.38V10.5602H7.19996V11.5402H11.38V13.1402H6.11996V12.8202ZM6.11996 17.8302V13.9702H11.38V15.5702H7.19996V16.5502H11.38V18.1502H6.11996V17.8302ZM6.11996 22.8402V18.9802H11.38V20.5802H7.19996V21.5602H11.38V23.1602H6.11996V22.8402ZM11.38 25.0302V28.4902H10.3V25.5902H7.19996V28.4902H6.11996V23.9902H11.38V25.0302ZM16.78 25.0302V28.4902H15.84V26.2502H13.13V28.4902H12.19V24.6502H16.78V25.0302ZM16.78 23.9802H15.38V7.55017H16.78V23.9902V23.9802ZM22.85 25.0302V28.4902H21.77V25.5902H18.67V28.4902H17.59V23.9902H22.85V25.0302ZM22.85 19.3802V23.1602H17.59V21.5602H21.77V20.5802H17.59V18.9802H22.85V19.3802ZM22.85 14.3702V18.1502H17.59V16.5502H21.77V15.5702H17.59V13.9702H22.85V14.3702ZM22.85 9.36018V13.1402H17.59V11.5402H21.77V10.5602H17.59V8.96017H22.85V9.36018Z" fill="url(#paint0_linear_1161_1899)"/>
<path d="M51.34 27.9402C51.34 28.4002 50.8799 28.6202 50.1799 28.6202H33.61C33.2 28.6202 33.13 28.4202 32.71 27.4802H39.44C39.35 27.3902 39.26 27.2602 39.2 27.1102C38.87 26.4102 38.65 25.9102 38.57 25.6502C38.46 25.3402 38.6099 25.2602 38.8999 25.3702C39.4699 25.5902 40.25 25.8502 40.58 26.4402C40.8 26.8102 40.71 27.2302 40.49 27.4902H43.5099C43.7699 26.7702 43.99 26.1802 44.2299 25.2602L45.32 25.8702C45.74 26.0902 45.82 26.2402 45.58 26.5002C45.32 26.7602 45.01 27.1302 44.64 27.4802H49.56C49.93 27.4802 50.11 27.3102 50.5 26.8702C50.98 27.3102 51.33 27.6402 51.33 27.9402H51.34ZM33.35 19.6802H48.9799C49.35 19.6802 49.57 19.5302 49.94 19.0902C50.42 19.5502 50.75 19.7902 50.75 20.1002C50.75 20.5802 50.31 20.7802 49.64 20.7802H34.28C33.84 20.7802 33.78 20.5802 33.36 19.6902L33.35 19.6802ZM34.44 18.9602V10.2002L35.6 10.4602C35.91 10.5302 35.95 10.6802 35.95 10.8102V17.2402H41.13V9.48022L42.33 9.74023C42.68 9.81023 42.7 9.96023 42.7 10.1102V17.2302H48.08V10.1502L49.2599 10.4302C49.5699 10.5202 49.61 10.6302 49.61 10.7802V17.8402C49.61 18.5802 48.95 19.0002 48.08 18.7802V18.2802H35.91C35.74 18.9102 35.12 19.1302 34.45 18.9602H34.44ZM37.78 14.9402V13.9402H36.99C36.64 13.9402 36.5999 13.8102 36.2899 13.0902H37.78V12.0202H36.95C36.6 12.0202 36.5099 11.9102 36.2299 11.1902H37.78V9.59023L38.89 9.83023C39.2 9.87023 39.24 10.0902 39.24 10.1602V11.1902H39.46C39.81 11.1902 39.92 10.9902 40.16 10.6902C40.6 11.0602 40.84 11.2402 40.84 11.4802C40.84 11.9202 40.51 12.0302 39.99 12.0302H39.25V13.1002H39.4299C39.7799 13.1002 39.89 12.9002 40.13 12.6202C40.57 12.9702 40.81 13.1402 40.81 13.3902C40.81 13.8302 40.48 13.9602 39.96 13.9602H39.2599V14.9602H39.57C39.92 14.9602 40.03 14.7902 40.27 14.4802C40.71 14.8302 40.9299 14.9802 40.9299 15.2702C40.9299 15.6902 40.58 15.8202 40.06 15.8202H39.27V16.0202C39.27 16.9202 38.53 17.2202 37.81 17.0202V15.8202H36.8699C36.5199 15.8202 36.4499 15.6902 36.1499 14.9702H37.81L37.78 14.9402ZM45.84 25.9302V25.2302H38.1C37.95 25.9102 37.2 26.1702 36.4799 26.0402V21.3202L37.7 21.5402C38.05 21.6102 38.14 21.7602 38.14 21.8702H44.91C45.3 21.8702 45.57 21.7202 45.83 21.3702L47.1199 21.7402C47.9899 22.0002 47.5099 22.5102 47.5099 22.9402V25.0402C47.5099 26.0202 46.42 26.0902 45.83 25.9402L45.84 25.9302ZM45.84 24.2002V22.8902H38.1499V24.2002H45.84ZM44.7 14.9302V13.9302H43.6499C43.3199 13.9302 43.26 13.8002 42.95 13.0802H44.7V12.0102H43.63C43.26 12.0102 43.1899 11.9002 42.9299 11.1802H44.7V9.58023L45.81 9.82022C46.12 9.86022 46.16 10.0802 46.16 10.1502V11.1802H46.44C46.77 11.1802 46.88 10.9802 47.14 10.6802C47.55 11.0502 47.8 11.2902 47.8 11.4902C47.8 11.9102 47.47 12.0202 46.95 12.0202H46.16V13.0902H46.36C46.69 13.0902 46.8 12.8902 47.06 12.6102C47.48 12.9602 47.72 13.1602 47.72 13.4002C47.72 13.8202 47.3899 13.9502 46.8699 13.9502H46.17V14.9502H46.52C46.87 14.9502 46.98 14.7802 47.22 14.4702C47.66 14.8202 47.8999 15.0202 47.8999 15.2602C47.8999 15.6502 47.57 15.8102 47.05 15.8102H46.1799V16.0502C46.1799 16.9502 45.44 17.2102 44.72 17.0102V15.8102H43.5399C43.1899 15.8102 43.1 15.6802 42.84 14.9602H44.72L44.7 14.9302Z" fill="#231815"/>
<path d="M64.9299 14.1502C64.9299 14.6502 64.5099 14.8702 63.8199 14.8702H62.7099V18.0802C62.7099 18.9102 61.8599 19.2402 61.0299 19.0802V18.0802H57.6399C57.4699 18.7602 57.1999 19.5002 56.8999 20.2002L57.2899 20.2702C57.4899 20.3102 57.6399 20.4202 57.6599 20.5302H60.2799C60.6999 20.5302 60.9099 20.3602 61.1799 20.0502L62.5999 20.4902C63.3399 20.7302 62.8599 21.4302 62.8599 21.7802V27.5102C62.8599 28.4502 61.9399 28.7302 61.1799 28.5602V27.1002H57.6799V28.0002C57.6799 28.9602 56.6999 29.2502 55.9999 29.0502V21.9702C55.2099 23.2802 54.1599 24.2402 53.4899 24.7402C53.1799 24.9602 52.9399 24.7402 53.1599 24.4302C53.6799 23.7102 54.4299 22.5702 55.0199 21.2402C55.5399 20.0602 55.9199 18.9002 56.0899 18.0902H54.6499C54.2999 18.0902 54.1899 17.8102 53.8399 17.0002H56.2699C56.3599 16.4102 56.4199 15.6702 56.5099 14.8802H53.8699C53.5399 14.8802 53.4499 14.6402 53.0599 13.7702H56.5999C56.6399 13.0302 56.6699 12.2802 56.6699 11.5802H54.8299C54.4599 11.5802 54.3899 11.3002 54.0399 10.4902H60.0499C60.5099 10.4902 60.7099 10.3402 61.0299 9.99023L62.4099 10.3802C63.2199 10.6202 62.7199 11.1202 62.7199 11.6302V13.7702H63.1799C63.5699 13.7702 63.7699 13.6002 64.1599 13.1602C64.6199 13.6002 64.9499 13.8602 64.9499 14.1702L64.9299 14.1502ZM57.6699 21.6702V25.9302H61.1699V21.6702H57.6699ZM61.0099 14.8702H58.1299C58.0399 15.6102 57.9599 16.3302 57.8499 16.9902H61.0199V14.8702H61.0099ZM58.2099 13.7602H61.0099V11.5702H58.3399C58.3199 12.2302 58.2699 12.9902 58.2099 13.7602ZM70.3399 25.9102C69.7699 25.9102 69.1199 25.1402 67.9399 24.4502C67.7199 24.3202 67.8699 24.1202 68.1399 24.1702C70.1699 24.5002 70.7599 24.3502 70.7799 22.1802C70.7999 20.4102 69.1199 18.6402 68.1099 17.7702C67.9599 17.6402 67.9799 17.4402 68.1099 17.1402C68.7199 15.7402 69.3799 13.8802 69.9499 11.9602H66.9599V28.2002C66.9599 29.2102 66.0899 29.4902 65.2599 29.3602V10.2202L66.5899 10.5302C66.8299 10.6002 66.9599 10.7702 66.9599 10.7902V10.8102H69.4999C69.8899 10.8102 70.0699 10.7202 70.3999 10.3902L71.3599 11.0202C72.0799 11.5002 71.9899 11.6502 71.7799 12.0502C70.9299 13.5802 69.5499 16.2702 68.8299 17.4302C74.3199 20.7502 72.3899 25.9302 70.3599 25.9302L70.3399 25.9102Z" fill="#231815"/>
<defs>
<linearGradient id="paint0_linear_1161_1899" x1="29.38" y1="42.2702" x2="1.81996" y2="-1.78983" gradientUnits="userSpaceOnUse">
<stop stop-color="#896532"/>
<stop offset="0.11" stop-color="#A27C47"/>
<stop offset="0.24" stop-color="#B8915B"/>
<stop offset="0.32" stop-color="#C09962"/>
<stop offset="0.39" stop-color="#C39E68"/>
<stop offset="0.48" stop-color="#CEAD7B"/>
<stop offset="0.58" stop-color="#DFC59A"/>
<stop offset="0.66" stop-color="#EFDCB6"/>
<stop offset="0.74" stop-color="#DABC8D"/>
<stop offset="0.81" stop-color="#C9A36B"/>
<stop offset="0.88" stop-color="#BD9152"/>
<stop offset="0.94" stop-color="#B58544"/>
<stop offset="0.99" stop-color="#B3823F"/>
</linearGradient>
</defs>
</svg>
