<svg width="184" height="52" viewBox="0 0 184 52" fill="#231815" xmlns="http://www.w3.org/2000/svg">
<linearGradient id="SVGID_1_" gradientUnits="userSpaceOnUse" x1="29.3798" y1="11.7296" x2="1.8197" y2="55.7897" gradientTransform="matrix(1 0 0 -1 0 54)">
	<stop  offset="0" style="stop-color:#896532"/>
	<stop  offset="0.11" style="stop-color:#A27C47"/>
	<stop  offset="0.24" style="stop-color:#B8915B"/>
	<stop  offset="0.32" style="stop-color:#C09962"/>
	<stop  offset="0.39" style="stop-color:#C39E68"/>
	<stop  offset="0.48" style="stop-color:#CEAD7B"/>
	<stop  offset="0.58" style="stop-color:#DFC59A"/>
	<stop  offset="0.66" style="stop-color:#EFDCB6"/>
	<stop  offset="0.74" style="stop-color:#DABC8D"/>
	<stop  offset="0.81" style="stop-color:#C9A36B"/>
	<stop  offset="0.88" style="stop-color:#BD9152"/>
	<stop  offset="0.94" style="stop-color:#B58544"/>
	<stop  offset="0.99" style="stop-color:#B3823F"/>
</linearGradient>
<path fill="url(#SVGID_1_)" d="M14.5,4.2c-7.9,0-14.3,6.4-14.3,14.3s6.4,14.3,14.3,14.3c7.9,0,14.3-6.4,14.3-14.3S22.4,4.2,14.5,4.2z M14,6.1
	h0.9V24H14V6.1L14,6.1z M12.2,7.6h1.4V24h-1.4V7.6z M6.1,12.8V9h5.3v1.6H7.2v1h4.2v1.6H6.1V12.8z M6.1,17.8V14h5.3v1.6H7.2v1h4.2
	v1.6H6.1V17.8z M6.1,22.8V19h5.3v1.6H7.2v1h4.2v1.6H6.1V22.8z M11.4,25v3.5h-1.1v-2.9H7.2v2.9H6.1V24h5.3V25z M16.8,25v3.5h-0.9
	v-2.2h-2.7v2.2h-0.9v-3.8h4.6V25z M16.8,24h-1.4V7.6h1.4V24L16.8,24z M22.9,25v3.5h-1.1v-2.9h-3.1v2.9h-1.1V24h5.3V25z M22.9,19.4
	v3.8h-5.3v-1.6h4.2v-1h-4.2V19h5.3V19.4z M22.9,14.4v3.8h-5.3v-1.6h4.2v-1h-4.2V14h5.3V14.4z M22.9,9.4v3.8h-5.3v-1.6h4.2v-1h-4.2V9
	h5.3V9.4z"/>
<path d="M98.2,37.1c-4.3,4.9-10.7,9.6-16.4,11.8c-0.9,0.3-1.3-0.4-0.5-1c5.4-4,10.5-9.2,13.9-14.8l2.7,2
	C98.8,35.9,98.8,36.4,98.2,37.1z M128,9.6c0,1.4-1.3,1.9-3.1,1.9H84.1c-0.9,0-1.3-0.6-2.4-2.9h23.5c-0.3-0.3-0.6-0.6-0.9-1
	c-1.3-1.9-2.7-4-3.9-5.6c-0.5-0.7,0.1-1,0.8-0.8c3.2,1,5.4,2.1,6.7,3.5c1.2,1.4,1,3.1,0.2,4h15.2c1,0,1.6-0.4,2.6-1.6
	C127,8.1,128,8.7,128,9.6z M108.1,30.1v17.6c0,2.6-2.9,4.2-4.7,2.5c-1.3-1.2-4.1-2.7-5.4-3.1c-0.5-0.2-0.4-0.8,0.1-0.8
	c1.2,0,4.9,0.1,5.2,0c0.3-0.1,0.3-0.2,0.3-0.4V30.1h-7.8c-0.3,2.1-2.5,2.9-4.5,2.4V14.9l3.5,0.7c0.7,0.2,0.9,0.6,1,0.7h17
	c1,0,1.8-0.4,2.5-1.3l3.6,1c2.2,0.7,0.9,2,0.9,3.3v10.4c0,2.1-2,3-4.5,2.6v-2.3H108.1z M95.8,19.2v8h19.4v-8H95.8z M125.5,41.9
	c2.8,3.5,0.2,7.5-3.1,3.8c-1.4-1.6-2.9-3.6-4.5-5.2c-1.9-2-3.7-3.9-5-5c-0.5-0.4-0.3-1.3,0.7-0.9c1.8,0.6,3.7,1.5,5.5,2.5
	C121.5,38.5,123.9,40,125.5,41.9z M143.9,40.1v4c0,2.3-2.3,3.2-4,2.7V26.4c-1.5,2.5-3.2,4.8-4.5,5.7c-0.8,0.7-1.3,0-0.8-0.8
	c1.8-3,3.6-7,4.6-10.2c1.2-3.6,2.1-7.1,2.8-12.1h-5.8c-0.8,0-1-0.2-2-2.7h16c0.9,0,1.4-0.6,2.4-1.5c1,0.9,1.9,1.8,1.9,2.5
	c0,1.2-1,1.8-2.7,1.8h-5.6c-0.8,4-2,7.9-3.3,11h3.4c0.9,0,1.4-0.4,2-1.2l3.5,1.1c2,0.6,0.6,2.2,0.6,3.1v18.2c0,2.3-2.1,3.2-4,2.7v-4
	L143.9,40.1L143.9,40.1z M143.9,22.9v14.5h4.5V22.9H143.9z M165.7,34.5c-2,10.1-8.5,15.5-18.3,16.5c-1,0.1-1-0.8-0.4-1
	c9.7-3.6,13.4-8.2,14.6-17.9l2.9,1C165.8,33.4,165.9,33.7,165.7,34.5L165.7,34.5z M182.9,48.9c-1.5,0.9-5.3,1.2-8.1,1.1
	c-6.3-0.3-6.6-1-6.6-7.8V31.3h-7.8v0.4c0,2.2-2.1,3.3-4.3,2.8v-32l3.4,0.7c0.8,0.2,0.9,0.6,0.9,0.8h10.9c1.1,0,1.8-0.7,2.5-1.4
	l3.7,1.3c2.1,0.7,0.7,2.2,0.7,3.3v24.4c0,2.5-2.6,3.1-4.3,2.6v-2.7h-1.4v11.8c0,2.3,0.2,2.7,1.5,2.8c1.6,0.2,3.2,0.2,4.5-0.2
	c1-0.3,1.5-1,1.6-2.1l0.5-3.8c0.1-0.4,0.8-0.4,0.8,0l0.6,3.6c0.2,1.2,0.7,1.8,1.3,2.3C184.5,46.9,183.9,48.4,182.9,48.9L182.9,48.9z
	 M160.5,6.8v5.5h13.4V6.8H160.5z M160.5,20.5h13.4v-5.3h-13.4V20.5z M160.5,28.4h13.4v-5.1h-13.4V28.4z M0.8,38h0.5v4.1H0.8V38z
	 M2.8,38h0.5l1.5,2.6l0.4,0.8h0c0-0.4-0.1-0.9-0.1-1.3V38h0.5v4.1H5.1l-1.5-2.6l-0.4-0.8h0c0,0.4,0.1,0.8,0.1,1.3V42H2.8V38L2.8,38z
	 M7.9,38.4H6.7V38h3v0.4H8.5v3.6H7.9V38.4z M10.8,38h2.3v0.4h-1.8v1.3h1.5v0.4h-1.5v1.5h1.9v0.4h-2.4L10.8,38L10.8,38z M14.4,38h1.3
	c0.8,0,1.4,0.3,1.4,1.1s-0.6,1.2-1.4,1.2h-0.8v1.7h-0.5V38z M15.6,39.9c0.6,0,1-0.3,1-0.8c0-0.5-0.3-0.7-1-0.7h-0.7v1.5H15.6z
	 M15.5,40.2l0.4-0.3l1.2,2.1h-0.6L15.5,40.2z M18.2,38h0.5l1.5,2.6l0.4,0.8h0c0-0.4-0.1-0.9-0.1-1.3V38h0.5v4.1h-0.5l-1.5-2.6
	l-0.4-0.8h0c0,0.4,0.1,0.8,0.1,1.3V42h-0.5V38L18.2,38z M23.4,38H24l1.4,4.1h-0.6l-0.7-2.3c-0.1-0.5-0.3-0.9-0.4-1.4h0
	c-0.1,0.5-0.3,0.9-0.4,1.4l-0.7,2.3h-0.5L23.4,38z M22.8,40.4h1.9v0.4h-1.9V40.4z M26.8,38.4h-1.2V38h3v0.4h-1.2v3.6h-0.5V38.4z
	 M29.6,38h0.5v4.1h-0.5V38z M31.4,40c0-1.3,0.7-2.1,1.7-2.1s1.7,0.8,1.7,2.1s-0.7,2.1-1.7,2.1S31.4,41.3,31.4,40z M34.3,40
	c0-1-0.5-1.6-1.2-1.6c-0.7,0-1.2,0.6-1.2,1.6c0,1,0.5,1.7,1.2,1.7C33.8,41.7,34.3,41,34.3,40z M36.1,38h0.5l1.5,2.6l0.4,0.8h0
	c0-0.4-0.1-0.9-0.1-1.3V38H39v4.1h-0.5L37,39.5l-0.4-0.8h0c0,0.4,0.1,0.8,0.1,1.3V42h-0.5V38L36.1,38z M41.3,38h0.6l1.4,4.1h-0.6
	L42,39.8c-0.1-0.5-0.3-0.9-0.4-1.4h0c-0.1,0.5-0.3,0.9-0.4,1.4l-0.7,2.3h-0.5L41.3,38z M40.6,40.4h1.9v0.4h-1.9V40.4z M44.1,38h0.5
	v3.6h1.8v0.4h-2.3L44.1,38L44.1,38z M50.4,40c0-1.3,0.8-2.1,1.8-2.1c0.5,0,0.9,0.2,1.1,0.5l-0.3,0.3c-0.2-0.2-0.5-0.4-0.8-0.4
	C51.5,38.4,51,39,51,40c0,1,0.5,1.7,1.2,1.7c0.4,0,0.7-0.2,0.9-0.5l0.3,0.3c-0.3,0.4-0.7,0.6-1.2,0.6C51.2,42.1,50.5,41.4,50.4,40
	L50.4,40z M54.6,38h2.3v0.4h-1.8v1.3h1.5v0.4h-1.5v1.5H57v0.4h-2.4L54.6,38L54.6,38z M58.2,38h0.5l1.5,2.6l0.4,0.8h0
	c0-0.4-0.1-0.9-0.1-1.3V38H61v4.1h-0.5L59,39.5l-0.4-0.8h0c0,0.4,0.1,0.8,0.1,1.3V42h-0.5V38L58.2,38z M63.4,38.4h-1.2V38h3v0.4
	h-1.2v3.6h-0.5L63.4,38.4L63.4,38.4z M66.2,38h2.3v0.4h-1.8v1.3h1.5v0.4h-1.5v1.5h1.9v0.4h-2.4L66.2,38L66.2,38z M69.8,38h1.3
	c0.8,0,1.4,0.3,1.4,1.1s-0.6,1.2-1.4,1.2h-0.8v1.7h-0.5V38z M71,39.9c0.6,0,1-0.3,1-0.8c0-0.5-0.3-0.7-1-0.7h-0.7v1.5H71z M71,40.2
	l0.4-0.3l1.2,2.1H72L71,40.2z M51.3,27.9c0,0.5-0.5,0.7-1.2,0.7H33.6c-0.4,0-0.5-0.2-0.9-1.1h6.7c-0.1-0.1-0.2-0.2-0.2-0.4
	c-0.3-0.7-0.5-1.2-0.6-1.5c-0.1-0.3,0-0.4,0.3-0.3c0.6,0.2,1.4,0.5,1.7,1.1c0.2,0.4,0.1,0.8-0.1,1h3c0.3-0.7,0.5-1.3,0.7-2.2
	l1.1,0.6c0.4,0.2,0.5,0.4,0.3,0.6c-0.3,0.3-0.6,0.6-0.9,1h4.9c0.4,0,0.5-0.2,0.9-0.6C51,27.3,51.3,27.6,51.3,27.9L51.3,27.9z
	 M33.3,19.7H49c0.4,0,0.6-0.2,1-0.6c0.5,0.5,0.8,0.7,0.8,1c0,0.5-0.4,0.7-1.1,0.7H34.3C33.8,20.8,33.8,20.6,33.3,19.7L33.3,19.7z
	 M34.4,19v-8.8l1.2,0.3c0.3,0.1,0.4,0.2,0.4,0.3v6.4h5.2V9.5l1.2,0.3c0.3,0.1,0.4,0.2,0.4,0.4v7.1h5.4v-7.1l1.2,0.3
	c0.3,0.1,0.4,0.2,0.4,0.4v7.1c0,0.7-0.7,1.2-1.5,0.9v-0.5H35.9C35.7,18.9,35.1,19.1,34.4,19L34.4,19z M37.8,14.9v-1H37
	c-0.4,0-0.4-0.1-0.7-0.8h1.5V12H37c-0.4,0-0.4-0.1-0.7-0.8h1.6V9.6l1.1,0.2c0.3,0,0.4,0.3,0.4,0.3v1h0.2c0.4,0,0.5-0.2,0.7-0.5
	c0.4,0.4,0.7,0.6,0.7,0.8c0,0.4-0.3,0.6-0.8,0.6h-0.7v1.1h0.2c0.3,0,0.5-0.2,0.7-0.5c0.4,0.3,0.7,0.5,0.7,0.8c0,0.4-0.3,0.6-0.9,0.6
	h-0.7v1h0.3c0.3,0,0.5-0.2,0.7-0.5c0.4,0.4,0.7,0.5,0.7,0.8c0,0.4-0.3,0.6-0.9,0.6h-0.8V16c0,0.9-0.7,1.2-1.5,1v-1.2h-0.9
	c-0.3,0-0.4-0.1-0.7-0.9L37.8,14.9L37.8,14.9z M45.8,25.9v-0.7h-7.7c-0.1,0.7-0.9,0.9-1.6,0.8v-4.7l1.2,0.2c0.3,0.1,0.4,0.2,0.4,0.3
	h6.8c0.4,0,0.7-0.1,0.9-0.5l1.3,0.4c0.9,0.3,0.4,0.8,0.4,1.2V25C47.5,26,46.4,26.1,45.8,25.9L45.8,25.9z M45.8,24.2v-1.3h-7.7v1.3
	H45.8z M44.7,14.9v-1h-1.1c-0.3,0-0.4-0.1-0.7-0.8h1.8V12h-1.1c-0.4,0-0.4-0.1-0.7-0.8h1.8V9.6l1.1,0.2c0.3,0,0.3,0.3,0.3,0.3v1h0.3
	c0.3,0,0.4-0.2,0.7-0.5c0.4,0.4,0.7,0.6,0.7,0.8c0,0.4-0.3,0.5-0.8,0.5h-0.8v1.1h0.2c0.3,0,0.4-0.2,0.7-0.5c0.4,0.4,0.7,0.6,0.7,0.8
	c0,0.4-0.3,0.6-0.9,0.6h-0.7v1h0.4c0.3,0,0.5-0.2,0.7-0.5c0.4,0.4,0.7,0.6,0.7,0.8c0,0.4-0.3,0.6-0.8,0.6h-0.9v0.2
	c0,0.9-0.7,1.2-1.5,1v-1.2h-1.2c-0.4,0-0.4-0.1-0.7-0.8L44.7,14.9L44.7,14.9z M64.9,14.2c0,0.5-0.4,0.7-1.1,0.7h-1.1v3.2
	c0,0.8-0.8,1.2-1.7,1v-1h-3.4c-0.2,0.7-0.4,1.4-0.7,2.1l0.4,0.1c0.2,0,0.3,0.1,0.4,0.3h2.6c0.4,0,0.6-0.2,0.9-0.5l1.4,0.4
	c0.7,0.2,0.3,0.9,0.3,1.3v5.7c0,0.9-0.9,1.2-1.7,1v-1.5h-3.5V28c0,1-1,1.2-1.7,1V22c-0.8,1.3-1.8,2.3-2.5,2.8
	c-0.3,0.2-0.5,0-0.3-0.3c0.5-0.7,1.3-1.9,1.9-3.2c0.5-1.2,0.9-2.3,1.1-3.1h-1.4c-0.3,0-0.5-0.3-0.8-1.1h2.4c0.1-0.6,0.1-1.3,0.2-2.1
	h-2.6c-0.3,0-0.4-0.2-0.8-1.1h3.5c0-0.7,0.1-1.5,0.1-2.2h-1.8c-0.4,0-0.4-0.3-0.8-1.1h6c0.5,0,0.7-0.1,1-0.5l1.4,0.4
	c0.8,0.2,0.3,0.7,0.3,1.2v2.1h0.5c0.4,0,0.6-0.2,1-0.6C64.6,13.6,64.9,13.9,64.9,14.2L64.9,14.2z M57.7,21.7v4.3h3.5v-4.3H57.7z
	 M61,14.9h-2.9C58,15.6,58,16.3,57.8,17H61L61,14.9L61,14.9z M58.2,13.8H61v-2.2h-2.7C58.3,12.2,58.3,13,58.2,13.8z M70.3,25.9
	c-0.6,0-1.2-0.8-2.4-1.5c-0.2-0.1-0.1-0.3,0.2-0.3c2,0.3,2.6,0.2,2.6-2c0-1.8-1.7-3.5-2.7-4.4c-0.2-0.1-0.1-0.3,0-0.6
	c0.6-1.4,1.3-3.3,1.8-5.2h-3v16.2c0,1-0.9,1.3-1.7,1.2V10.2l1.3,0.3c0.2,0.1,0.4,0.2,0.4,0.3v0h2.5c0.4,0,0.6-0.1,0.9-0.4l1,0.6
	c0.7,0.5,0.6,0.6,0.4,1c-0.8,1.5-2.2,4.2-2.9,5.4C74.3,20.8,72.4,25.9,70.3,25.9L70.3,25.9z"/>
</svg>
