<?xml version="1.0" encoding="utf-8"?>
<!-- Generator: Adobe Illustrator 27.6.1, SVG Export Plug-In . SVG Version: 6.00 Build 0)  -->
<svg version="1.1" id="圖層_1" xmlns="http://www.w3.org/2000/svg" xmlns:xlink="http://www.w3.org/1999/xlink" x="0px" y="0px"
	 viewBox="0 0 28 28" style="enable-background:new 0 0 28 28;" xml:space="preserve">
<style type="text/css">
	.st0{fill:#005D43;}
</style>
<path class="st0" d="M22,0c0.4,0,0.8,0,1.3,0.1c0.5,0.1,1.1,0.3,1.3,0.4C25.4,0.8,26,1.6,26.8,3c0.7,1.2,0.9,2.4,0.9,3.6
	c0,0.4,0,0.7-0.1,1.1c0,0.4-0.1,0.7-0.3,1.1c-0.1,0.4-0.3,0.7-0.3,0.9c-0.1,0.3-0.3,0.5-0.4,1.1c-0.1,0.5-0.3,0.8-0.4,0.9
	c-0.4,1.3-0.9,2.4-1.6,3.5c-1.1,1.6-2.4,3.4-4.3,5.2c-1.9,1.9-3.5,3.2-5.2,4.3c-1.1,0.7-2.1,1.2-3.5,1.6c-0.1,0-0.4,0.1-0.9,0.4
	c-0.5,0.1-0.9,0.3-1.1,0.4c-0.3,0.1-0.5,0.1-0.9,0.3c-0.4,0.1-0.8,0.1-1.1,0.3c-0.4,0-0.7,0.1-1.1,0.1c-1.2,0-2.4-0.3-3.6-0.9
	c-1.3-0.7-2.2-1.5-2.4-2.1c-0.1-0.3-0.3-0.8-0.4-1.3C0,22.8,0,22.3,0,22v-0.4c0.1-0.3,0.5-0.5,1.5-1.1c0.3-0.1,0.7-0.4,1.1-0.5
	c0.4-0.3,0.9-0.5,1.2-0.7s0.7-0.4,1.1-0.7c0,0,0.3-0.1,0.5-0.4C5.6,18.1,5.9,18,6,17.9c0.1-0.1,0.4-0.1,0.5-0.1
	c0.3,0,0.5,0.1,0.9,0.5c0.4,0.4,0.8,0.8,1.1,1.2c0.3,0.4,0.7,0.8,1.1,1.2c0.4,0.4,0.7,0.5,0.9,0.5c0.1,0,0.3,0,0.4-0.1
	c0.1,0,0.3-0.1,0.4-0.1c0.1,0,0.3-0.1,0.5-0.3c0.3-0.1,0.4-0.3,0.4-0.3c1.8-0.9,3.4-2.2,4.6-3.5c1.3-1.3,2.4-2.8,3.5-4.6
	c0,0,0.1-0.1,0.3-0.4c0.1-0.3,0.3-0.4,0.3-0.5c0-0.1,0.1-0.3,0.1-0.4s0.1-0.3,0.1-0.4c0-0.3-0.1-0.5-0.5-0.9
	c-0.4-0.4-0.8-0.7-1.2-1.1C19,8.4,18.6,8,18.2,7.6c-0.4-0.4-0.5-0.7-0.5-0.9c0-0.1,0-0.4,0.1-0.5c0.1-0.1,0.3-0.4,0.4-0.7
	c0.1-0.3,0.3-0.4,0.4-0.5c0.1-0.3,0.4-0.7,0.7-1.1C19.6,3.4,19.7,3,20,2.6c0.3-0.4,0.4-0.8,0.5-1.1C20.9,0.6,21.3,0,21.6,0L22,0
	L22,0z"/>
</svg>
