<svg width="126" height="125" viewBox="0 0 126 125" fill="none" xmlns="http://www.w3.org/2000/svg">
<g id="OBJECTS">
<g id="Group">
<path id="Vector" d="M58.9059 66.0931C24.4403 31.6467 -1.87853 2.08838 0.115026 0.113989C2.08942 -1.87957 31.6478 24.4392 66.0942 58.9048C100.56 93.3704 126.879 122.91 124.885 124.903C122.891 126.897 93.3523 100.559 58.8867 66.1123L58.9059 66.0931Z" fill="url(#paint0_radial_7_27637)"/>
<path id="Vector_2" d="M58.9058 58.9048C93.3714 24.4392 122.911 -1.87957 124.904 0.113989C126.898 2.10755 100.56 31.6467 66.1133 66.1123C31.6478 100.559 2.08941 126.878 0.115017 124.903C-1.87854 122.91 24.4594 93.3704 58.9058 58.9048Z" fill="url(#paint1_radial_7_27637)"/>
</g>
<path id="Vector_3" d="M95.2116 62.5079C95.2116 79.9707 80.5666 94.1173 62.5096 94.1173C44.4526 94.1173 29.8076 79.9707 29.8076 62.5079C29.8076 45.045 44.4526 30.8984 62.5096 30.8984C80.5666 30.8984 95.2116 45.045 95.2116 62.5079Z" fill="url(#paint2_radial_7_27637)"/>
</g>
<defs>
<radialGradient id="paint0_radial_7_27637" cx="0" cy="0" r="1" gradientUnits="userSpaceOnUse" gradientTransform="translate(75.2207 52.3329) rotate(135) scale(4.8802 77.386)">
<stop stop-color="white"/>
<stop offset="0.06" stop-color="#FCFFFB" stop-opacity="0.82"/>
<stop offset="0.13" stop-color="#F9FFF8" stop-opacity="0.63"/>
<stop offset="0.2" stop-color="#F7FFF4" stop-opacity="0.47"/>
<stop offset="0.27" stop-color="#F5FFF2" stop-opacity="0.33"/>
<stop offset="0.35" stop-color="#F3FFF0" stop-opacity="0.23"/>
<stop offset="0.42" stop-color="#F2FFEF" stop-opacity="0.16"/>
<stop offset="0.5" stop-color="#F2FFEE" stop-opacity="0.11"/>
<stop offset="0.58" stop-color="#F2FFEE" stop-opacity="0.1"/>
<stop offset="1" stop-color="#EFFFE8" stop-opacity="0"/>
</radialGradient>
<radialGradient id="paint1_radial_7_27637" cx="0" cy="0" r="1" gradientUnits="userSpaceOnUse" gradientTransform="translate(83.0251 85.5705) rotate(-135) scale(4.8802 77.3859)">
<stop stop-color="white"/>
<stop offset="0.06" stop-color="#FCFFFB" stop-opacity="0.82"/>
<stop offset="0.13" stop-color="#F9FFF8" stop-opacity="0.63"/>
<stop offset="0.2" stop-color="#F7FFF4" stop-opacity="0.47"/>
<stop offset="0.27" stop-color="#F5FFF2" stop-opacity="0.33"/>
<stop offset="0.35" stop-color="#F3FFF0" stop-opacity="0.23"/>
<stop offset="0.42" stop-color="#F2FFEF" stop-opacity="0.16"/>
<stop offset="0.5" stop-color="#F2FFEE" stop-opacity="0.11"/>
<stop offset="0.58" stop-color="#F2FFEE" stop-opacity="0.1"/>
<stop offset="1" stop-color="#EFFFE8" stop-opacity="0"/>
</radialGradient>
<radialGradient id="paint2_radial_7_27637" cx="0" cy="0" r="1" gradientUnits="userSpaceOnUse" gradientTransform="translate(62.4828 66.0997) scale(32.7135 31.5757)">
<stop stop-color="white"/>
<stop offset="0.06" stop-color="#FCFFFB" stop-opacity="0.82"/>
<stop offset="0.13" stop-color="#F9FFF8" stop-opacity="0.63"/>
<stop offset="0.2" stop-color="#F7FFF4" stop-opacity="0.47"/>
<stop offset="0.27" stop-color="#F5FFF2" stop-opacity="0.33"/>
<stop offset="0.35" stop-color="#F3FFF0" stop-opacity="0.23"/>
<stop offset="0.42" stop-color="#F2FFEF" stop-opacity="0.16"/>
<stop offset="0.5" stop-color="#F2FFEE" stop-opacity="0.11"/>
<stop offset="0.58" stop-color="#F2FFEE" stop-opacity="0.1"/>
<stop offset="1" stop-color="#EFFFE8" stop-opacity="0"/>
</radialGradient>
</defs>
</svg>
