<?xml version="1.0" encoding="utf-8"?>
<!-- Generator: Adobe Illustrator 27.2.0, SVG Export Plug-In . SVG Version: 6.00 Build 0)  -->
<svg version="1.1" id="圖層_1" xmlns="http://www.w3.org/2000/svg" xmlns:xlink="http://www.w3.org/1999/xlink" x="0px" y="0px"
	 viewBox="0 0 927.1 156" style="enable-background:new 0 0 927.1 156;" xml:space="preserve">
<style type="text/css">
	.st0{fill:#D28507;}
	.st1{fill:#221815;}
	.st2{fill:#C98D1D;}
</style>
<g>
	<path class="st0" d="M69.4,31.8c-6.2,5.9-15.2,11.7-23.9,15.9l-3.4-5.8c2.5-0.8,5-1.7,7.3-2.6l-0.3-37h5l0.1,35
		c5.6-2.4,10.4-5,14-7.2L69.4,31.8z M86.1,49.6c-2.2-4.8-5-9.4-8.2-13.4c-3.7,7-10.2,11.9-20.8,15l-0.7-1.8
		c16.5-6.5,20.7-17,20.7-34.8V1.7h5.1v11.6c0,8.1-0.9,14.8-3.2,20.4c4.7,3.4,9.1,8,11.9,12.3L86.1,49.6z M67.1,22.7
		c-2.1-5-5.2-10.6-7.9-14.9l1.5-1.3c4.1,3.4,8.8,8.3,11.6,12.8L67.1,22.7z"/>
	<path class="st0" d="M146.8,44.1l-1.9,5.8c-9.6,0.7-21.5,0.8-27.9-1.2c-3.6-1.1-6.8-2.9-9.4-5.8c-2.4,3.5-5.3,6.5-8.8,8.8l-1.2-1.6
		c2.5-2.1,5.3-5.3,7.7-10.1c-2-3.1-3.5-7-4.4-11.9l1.9-0.5c0.9,3.5,2.1,6.6,3.9,9.1c1.4-3.9,2.6-8.6,3.2-14.4h-4.7
		c-0.9,1.6-1.7,2.9-2.3,3.8L99,24.5c2.6-4.2,6.3-11.5,8.7-17.7h-9V4.3h15c-1.5,4-4.5,10.4-7.2,15.5h3.3l0.9-0.9l4.3,1.6
		c-0.7,7.3-2.5,13.8-5.5,19.3c1.7,1.6,3.7,2.8,6.1,3.7C122.6,46.2,136.1,45.3,146.8,44.1z M126.1,14.6h-11.9v-2.3h11.9V7.9h-9.4V5.4
		h9.4V0.6h4.7v4.8h10.6v6.8h4.4v2.3h-4.4v7.3h-10.6v4.3h11.1v2.4h-11.1v5.1h13.6V36h-13.6v7.2h-4.7V36h-12v-2.4h12v-5.1h-10v-2.4h10
		v-4.3h-9.6v-2.4h9.6V14.6z M130.8,12.2h6.3V7.9h-6.3V12.2z M130.8,19.5h6.3v-4.9h-6.3V19.5z"/>
	<path class="st0" d="M155.2,16l-1.1-1.5c4.3-4,7.1-8.3,8.9-14.5l5.2,1.5c-0.5,1.3-1.4,2.7-2.4,4.2h13.9v2.4h-9.3
		c1.3,1.3,2.7,3,4,4.9l-4,1.5c-0.7-2.1-1.4-4.2-2.5-6.4h-4C161.5,11,158.5,13.9,155.2,16z M203.8,44l-2.9,5.4
		c-5.5-0.9-14.7-5.6-19.6-12.8v14.6h-4.7V36.7c-3.9,5.7-13.5,10.6-21.7,12.5l-0.7-1.7c8-3,13.6-6.3,17.9-11.5h-16.3v-2.4h20.8V29
		c-1.3,0.9-2.8,1.6-4.6,2.3l-0.9-1.7c2.4-1.5,3.9-2.8,4.8-4.3c-4.2,1.8-12.8,4.2-18.7,5.2l-1.3-4.5c3.1-0.2,5.8-0.4,8.3-0.7v-7.2
		h-7.6v-2.4h19.7v2.4h-7.6v6.6c2.3-0.4,4.6-0.8,7.2-1.4l0.3,1.2c1.1-2.3,1.1-5.2,1.1-9.4h17.4v8.2c0,2,0.8,2.3,2.6,2.3
		c2.3,0,2.4-0.5,2.3-6h2c2.3,8.5,0.9,9.9-4.4,10c-5.4,0.1-7-1.1-7-5.7v-6.3h-8.3c0,5.6-1.7,8.9-5,11.2h4.2v5h20.9V36H183
		C189.2,41.2,196.1,42.8,203.8,44z M176.6,12.8c3.4-3.6,5.7-8.1,7.2-13l5,1.7c-0.7,1.4-1.6,2.8-2.5,4.1h16.4V8h-10.5
		c1.4,1.1,2.7,2.5,4,4.3l-4,1.6c-0.8-2-1.6-3.9-2.8-5.9h-5c-2.3,2.7-4.7,4.8-6.6,6.1L176.6,12.8z M183,19.1l1.6-0.7
		c1.8,2.7,3.3,5.8,4,8.6l-3.9,1C184.5,25.5,183.8,22.1,183,19.1z"/>
	<path class="st0" d="M218.9,40.6V28.4h-7.2v-2.5h12v14.3c3.2,4.5,6.8,4.6,13.9,4.7c7.1,0.2,16.5-0.7,22.8-1.5l-1.4,5.5
		c-5.8,0.5-16.8,0.7-21.7,0.4c-8.3-0.5-11.9-1.7-15.8-8c-2,3.5-4.5,7.2-7.3,10.1l-3.1-3.2C214,46.1,217.4,43.1,218.9,40.6z
		 M212.9,13l1.1-1.6c2.7,1.4,6.9,3.7,9.8,6.3l-3.5,4C218.5,19.2,215.1,15.4,212.9,13z M215.4,2.3l1-1.6c2.7,1.2,7.2,3.5,10,6l-3.5,4
		C220.8,7.8,218,4.8,215.4,2.3z M226.5,35.2v-2.4H240v-4h-10.9V12.5H240V8.4h-12.2V6H240V0.3h4.8V6h12.7v2.4h-12.7v4.1h10.9v16.3
		h-10.9v4h13.9v2.4h-13.9v7.4H240v-7.4H226.5z M240,14.9h-6.3v4.4h6.3V14.9z M240,21.8h-6.3v4.6h6.3V21.8z M251.2,14.9h-6.4v4.4h6.4
		V14.9z M251.2,21.8h-6.4v4.6h6.4V21.8z"/>
	<path class="st0" d="M274.1,35.3c0.2,6.4-0.7,11.8-2,15.3l-5-2.3c2.2-3.3,4.2-7.4,5.1-13.2L274.1,35.3z M283.8,22.6
		c2.2,2.7,3.8,5.3,5.1,8.9l-4,1.5l-1-4c-4.9,2-10.6,3.9-14.6,4.7l-1.5-4.8c1.3,0,2.5-0.1,3.8-0.2c3.2-3,6-6.5,8.7-11.5
		c-3.4,1.2-7.4,2.3-10.9,3l-1-4.4c1.1,0,2.2,0,3.3-0.1c2.1-4.6,4.4-10.3,5.6-15.5l5.1,1.6c-2.1,4.9-5.7,10.2-8.3,13.8
		c2.6-0.1,5.2-0.3,7.3-0.6c0.6-1.4,1.3-2.8,1.9-4.4l4.6,2.6c-4.4,7.1-8.9,11.7-13.3,15.2c3-0.3,6-0.9,8.8-1.4
		c-0.4-1.3-0.8-2.4-1.3-3.7L283.8,22.6z M278.1,34.4c1.6,3.6,3.6,9.2,4.4,12.2l-4.8,1.2c-0.3-3.4-0.9-9-1.5-13L278.1,34.4z
		 M282.5,32.6c2.2,2.7,4.8,6.8,6.2,9.7l-4.2,2.2c-0.9-3.3-2.4-7.9-3.6-11L282.5,32.6z M304,12.4v9.8h10.5v2.4h-25.7v-2.4H299v-9.8
		h-11.4V10H299V0.9h4.9V10H316v2.4H304z M289.9,30.6h24v20.1h-4.7v-3.8h-14.6V51h-4.7L289.9,30.6L289.9,30.6z M294.5,44.4h14.6V33
		h-14.6V44.4z"/>
	<path class="st0" d="M336.1,13.4v37.8h-4.7V21c-1.8,2.5-4,4.7-6.4,6.8l-1.3-1.5c5.9-7.6,9.4-16.4,11.6-26.6l5.3,1.6
		C339.5,5.8,338,9.8,336.1,13.4z M358.1,12.4v33.1c0,5.4-4.3,7.7-14.6,2.3L344,46c8.8,1.5,9.2,0.9,9.2-2.2V12.4h-6.6
		c-1.9,3.8-4.2,7.5-7.2,11.2l-1.7-1.1c3.9-6.5,5.9-13.2,7-21.9l5.6,1.2c-0.6,2.8-1.5,5.5-2.6,8.3H366l1.6-1.1l5.2,2.9
		c-2.1,3.3-5.6,7.4-8.2,9.4L363,20c1.3-2.2,2.5-5.2,3.2-7.4h-8.1V12.4z M350,24.7c-2,6.2-5.4,13.7-10.5,19.5l-1.6-1.2
		c3.3-5.8,5.7-12.6,6.9-19.9L350,24.7z M373.1,41.1l-5.3,2.4c-1.7-6.4-4.5-14.3-6.8-19.6l1.6-1C366.6,28,370.8,35.2,373.1,41.1z"/>
	<path class="st0" d="M420,49.4c-2.2-1.3-4.8-3.8-7-8.2c-3.4,3-7.5,5.5-12.4,7.6l-1-1.7c4.4-2.4,8.3-5.5,11.7-9.6
		c-1.6-4.6-2.9-10.7-3.4-18.9h-9.9l-0.1,8.8c2.8-0.9,5.5-1.9,8.2-2.9l0.8,1.8c-2.7,1.9-5.8,3.5-9,5.1V45c-0.1,6.8-5.3,8.9-13.9,2.6
		l0.7-1.9c6.9,1.8,8.6,1.9,8.6-2.2V33.3c-3.2,1.3-6.6,2.4-10.1,3.4l-1.9-5.4c4.1-0.7,8.1-1.5,12-2.6l0.1-10.2h-11.8V16h11.8V9
		c-3.3,0.7-6.9,1.1-10.4,1.5l-0.4-2c8.4-2,13.9-3.8,19.2-7.2l4.4,4c-2.3,1.1-5,2-8,2.7l-0.1,8.1h9.7c-0.1-0.4-0.1-0.8-0.1-1.1
		c-0.1-3.3-0.3-10.2-0.3-14.1h4.8c0.1,4.2,0.2,10.1,0.3,13.6c0,0.5,0.1,1.1,0.1,1.6h15.5v2.4h-15.3c0.4,5.9,1.1,10.5,2.2,14.1
		c2.1-3.3,3.8-7,5.3-11.2l4.9,2.2c-2.4,5.3-5.1,10-8.4,13.9c2.4,5.6,5.5,7.6,7.3,8.1s2-2.4,1.6-9.4h2
		C431.5,47.8,429.2,54.6,420,49.4z M421,13.4c-1.7-3.3-3.9-7.1-6-10.2l1.5-1.4c3.4,2.2,6.8,5.4,9,8.3L421,13.4z"/>
	<path class="st0" d="M443.8,56.1c4.1-1.6,6.5-5.1,6.9-8.7c-0.4,0.2-1.5,0.3-1.8,0.3c-2.6,0-4.4-1.7-4.4-4.4s1.9-4.4,4.4-4.4
		c3.3,0,5.5,2,5.5,6.1c0,6-3.9,11.4-9.5,12.6L443.8,56.1z"/>
	<path class="st0" d="M529,10v3h-28.1c-1.9,3.6-4.1,7.1-6.4,10.3v27.9h-5.2V29.4c-2.7,2.9-5.4,5.2-7.9,6.8l-1.2-1.7
		c3.6-3.1,10.1-10.9,15-21.5h-12.2v-3h13.5c1.3-3,2.3-6.3,3.2-9.6l5.8,1.5c-0.8,2.8-1.9,5.5-3.1,8.1H529z M514,45.6H528v3h-31.7v-3
		H509V30.2H498v-2.6H509V15.9h5.1v11.6H525v2.6H514V45.6z"/>
	<path class="st0" d="M540.7,47.3l-1.2-1.7c5-3.9,9.2-9.4,11.6-14.4l5,2.8C552.3,39.1,546.2,44.4,540.7,47.3z M565,45.4
		c0.1,6.1-5.2,8.5-13.5,1.6l0.9-1.8c5.9,1.8,7.6,2.2,7.8-0.9V28.4h-20.5V26h45.1v2.4h-19.9L565,45.4z M544.8,19.7H540V8h22.6
		c-2.5-2.3-5.6-4.6-8.2-6.4l0.8-1.9c3.4,0.8,9,2.8,12,4.6L564.8,8h19v11.6H579v-9.2h-34.1L544.8,19.7L544.8,19.7z M548,19.7v-2.4
		h28.3v2.4H548z M585.2,42.9l-4.5,4.1c-2.3-3.6-7.2-9.4-11.8-13.5l1-1.7C575.5,34.5,581.2,38.9,585.2,42.9z"/>
	<path class="st0" d="M643.8,44.8l-4,6.2c-5.2-2.4-16.8-12.7-19.6-31.8c-2.8,16.5-13.3,27.6-25,32.2l-1-1.8
		c9.5-5.4,18-14.3,20.5-31.3H596v-3H615c0.1-1.3,0.2-2.6,0.3-3.9c0.2-3.3,0.2-7.2,0.3-10.8l5.6,0.2c0,4.3-0.1,8.2-0.3,12.4l-0.2,2.1
		h20.5v3H622C626,33.8,636.3,41.5,643.8,44.8z"/>
	<path class="st0" d="M671.8,33.5c-0.7,6.4-1.4,10-2.3,13.2c-1.4,5-6.2,5.8-13.1-0.1l0.9-1.7c6,2.5,7.2,2.3,8.1-0.3
		c0.6-1.8,1.3-4.8,1.6-8.7h-7.2c-0.2,1.2-0.5,2.3-0.8,3.4l-4.3-0.7c1.1-4.2,1.7-7.7,2.3-12.5h10.6V20H663c-3.4,2.1-7.2,3.9-11.5,5.3
		l-0.8-1.7c3.4-1.5,7.7-3.9,11.5-7c-1.8-2.5-4.2-5.6-6-7.5l1.1-1.4c2.6,1.4,5.7,3.6,8.2,5.8c2-2.2,3.6-4.5,4.7-7.1L655,6.2V3.9
		l15.5,0.2l1.3-1l4.7,2.6c-2.6,4.9-5.9,8.8-10,12h5.4v10.8h-11c-0.2,1.5-0.4,3.3-0.7,5H671.8z M686,42.7c3.5,2,7.3,2.9,10.9,3.6
		l-2.6,4.8c-4-1.4-7.8-3-11.2-5.8c-3.3,2.7-7.4,4.7-12.7,6.3l-0.7-1.6c4.5-1.8,8.1-4.2,10.9-7c-2.1-2.2-3.9-5.1-5.4-8.9h-2.6v-2.3
		h13.7l1.4-0.9l4.5,2.2C690.3,36.9,688.3,40.1,686,42.7z M699.7,19.1l-2.7,5.1c-3.2-1.3-6.2-2.8-9-4.7v4.4c0,1.6,0.9,2.1,3.2,2
		c1.6-0.1,2.4-0.2,3.5-1.6l2.1,3.4c-1.1,1.6-3,2.2-6.3,2.2c-5.1,0-6.5-1.3-6.5-4.5V20h-4.7c-0.1,6-1.1,9.5-7.6,12l-0.9-1.6
		c4.5-3.4,4.3-5.9,4.2-12.9h10.5c-4.3-3.7-7.8-8.9-10.2-16.5l1.9-0.6c1.4,2.9,2.8,5.4,4.3,7.5c1.4-1.6,2.6-3.4,3.9-5.6l4.2,2.6
		c-2,1.6-4.4,3.4-6.7,4.7c1.1,1.3,2.3,2.4,3.6,3.4c1.6-1.6,3.2-3.6,4.6-6l4.1,2.7c-2,1.8-4.6,3.5-6.9,4.7
		C691.5,16.5,695.2,17.9,699.7,19.1z M677.2,34.1c1.6,2.8,3.5,4.9,5.6,6.5c1.6-2.1,2.8-4.2,3.6-6.5H677.2z"/>
	<path class="st0" d="M727.3,34.9c-4.6,3.4-13.2,7.5-18.5,9.2l-2.2-5.6c2.8-0.4,5.5-1,8.2-1.7V21.7h-6.5v-2.4h6.5V6.5h-7.1V4.1h18.8
		v2.4h-7v12.7h6.1v2.4h-6.1v13.8c2.4-0.7,4.8-1.5,7-2.4L727.3,34.9z M752.8,49.6c-2.7,0.4-5.1,0.4-8.1,0c-3.2-0.4-4.1-2.2-4.1-5.1
		v-13h-2.3c-0.4,10.7-6.5,17.7-18.3,20l-0.7-1.8c10.1-3,13.9-9.3,14.2-18.1H728V2.8h23.1v28.8h-5.9V43c0,1.4,0.3,2.2,1.9,2.4
		c1.3,0.2,2.4,0.2,3.7,0c2-0.2,2-2.1,1.8-9.3h1.9C757.8,47.1,756,49.1,752.8,49.6z M732.5,11.1h14V5.2h-14V11.1z M732.5,20h14v-6.5
		h-14V20z M732.5,29.1h14v-6.7h-14V29.1z"/>
	<path class="st0" d="M812.2,45.4v3h-46.4v-3h20.8V31.5h-15.7v-2.7h15.7V17h-11.2c-2.4,4.5-5.3,8.4-8.6,11.3l-1.5-1.3
		c4.3-5.9,7.6-14,9.2-24.1l5.6,1.6c-0.8,3.4-2,6.7-3.4,9.8h9.9V0.7h5.1v13.6h16.8V17h-16.8v11.9h15.5v2.7h-15.5v13.8H812.2z"/>
	<path class="st0" d="M828.3,23.3c-2-2.9-6-7.4-8.3-9.8l1.1-1.7c3.2,1.6,7.8,4.5,10.9,7.3L828.3,23.3z M831,25.8l1.9,0.6
		c-1.1,6.6-3.9,18-5.7,23.6l-5.7-2.6C824.5,41.5,828.3,32.9,831,25.8z M830.5,11.5c-2.2-3-5.5-6.9-7.8-9.4l1.3-1.6
		c2.9,1.5,7.6,4.5,10.4,7.1L830.5,11.5z M854,20v9.4h11.7v21.4h-4.9V47h-18.5v4.1h-4.9V29.4h11.4V20H834v-2.4h14.7V9
		c-5,0.7-9.6,1.2-12.4,1.4l-0.4-2c6.3-0.9,18.4-3.8,25.2-7.3l4.9,4.4c-3.3,1-7.7,2-12.3,2.8v9.4h15.5V20H854z M842.2,31.9v12.6h18.4
		V31.9H842.2z"/>
	<path class="st0" d="M879.3,46.9c0-2,0.7-3.8,2-5.2c1.4-1.5,3-2.2,5-2.2c3.9,0,7,3.3,7,7.3c0,4.1-3,7.3-7,7.3
		C882.5,54.3,879.3,50.9,879.3,46.9z M890.7,46.9c0-2.5-1.9-4.5-4.3-4.5c-2.3,0-4.3,2-4.3,4.5c0,1.3,0.4,2.3,1.3,3.2
		c0.8,0.9,1.8,1.3,3,1.3C888.8,51.4,890.7,49.4,890.7,46.9z"/>
</g>
<g>
	<g>
		<path class="st1" d="M36.6,148.3l-2.3,4.3c-3.9-1.3-9.9-5.4-14.6-12.1v14H16V141c-4.2,5.6-9.9,9.4-16,12l-0.6-1.4
			C4.2,149,10.2,144,13.6,139H4.9v-13H16v-3.4H1.5v-2.3H16v-4.8h3.7v4.8h15v2.3h-15v3.4h11.1v13H20.5
			C25.8,144.1,31.3,147,36.6,148.3z M8.5,131.3H16v-3.6H8.5V131.3z M8.5,137H16v-3.8H8.5V137z M19.7,127.7v3.6h7.6v-3.6
			C27.3,127.7,19.7,127.7,19.7,127.7z M27.3,133.1h-7.6v3.9h7.6V133.1z"/>
		<path class="st1" d="M80.6,150.8c-1.2,1.2-3.6,1.9-7.2,2.1c-4.9,0.2-12.2,0.2-17.1,0c-6.2-0.2-8.2-0.4-8.2-7.1V120h-2.5v-2.1h33.9
			v2.1H51.7v25.8c0,3.1,0.3,3.4,4.4,3.6c5.1,0.2,12.2,0.2,17.3,0c2.7-0.1,4-0.5,5.5-1.8L80.6,150.8z M54.2,134.9h10.6v11.4H54.2
			V134.9z M57.6,144.6h3.8v-7.8h-3.8V144.6z M73.3,131.7H57.9v-9.1h15.4V131.7z M69.8,124.4h-8.4v5.5h8.4V124.4z M77.8,146.4H67V135
			h10.8C77.8,135,77.8,146.4,77.8,146.4z M74.4,136.7h-4v7.8h4V136.7z"/>
		<path class="st1" d="M127,148l-1.4,4.6c-7.1,0.5-16,0.6-20.7-0.9c-2.5-0.8-4.8-2.2-6.8-4.2c-1.9,2.8-4.4,5.1-7.1,6.7l-0.9-1.3
			c2.5-2,4.7-4.6,6.3-7.6c-1.6-2.4-2.8-5.5-3.5-9.4l1.4-0.4c0.7,2.9,1.7,5.4,3.2,7.5c1.3-3.2,2.2-6.8,2.5-10.7h-3.9
			c-0.4,0.8-0.8,1.5-1.2,2l-3.2-0.7c1.9-3.2,4.3-8.3,6.1-13.2h-6.5v-1.8h11.2c-1.2,3.3-3.5,8.2-5.4,11.8h2.6l0.6-0.7l3.4,1.1
			c-0.5,5.6-2,10.5-4.2,14.4c1.2,1,2.5,1.9,4.2,2.5C109.1,149.6,119.2,148.9,127,148z M104.5,122.1l-0.2-1.5
			c6.4-0.7,14.4-3.1,17.4-4.9l2.7,3.2c-1.7,0.7-4.5,1.3-7.6,1.9v9.2h7.4v1.9h-7.4v11.3h8.6v1.9h-22.3v-1.9h3.1v-15.5h2.9v15.5h4.8
			v-21.9C110.5,121.7,107.1,122.1,104.5,122.1z"/>
		<path class="st1" d="M147.3,116.2c-0.7,3.5-1.8,6.7-3,9.6v28.3h-3.5v-21.8c-1.6,2.5-3.3,4.5-4.7,5.8l-1-1.1
			c2.7-3.9,6.4-11,8.2-21.9L147.3,116.2z M169.8,123.1v21.2h-3.6v-2.8h-5.6v12.6h-3.7v-12.6h-5.6v3h-3.5V123h9.1v-7.3h3.7v7.3
			L169.8,123.1L169.8,123.1z M151.3,131.1h5.6V125h-5.6V131.1z M156.9,139.7V133h-5.6v6.7H156.9z M166.2,125h-5.6v6.1h5.6V125z
			 M166.2,133h-5.6v6.7h5.6V133z"/>
		<path class="st1" d="M185.5,141.9c0.1,4.9-0.6,9.3-1.5,12l-3.7-1.6c1.5-2.5,2.9-6.1,3.7-10.5L185.5,141.9z M202.9,137.4
			c-1.6,6.1-5.4,11.8-11,15.2l-0.8-1.2c5.1-4.2,6.9-9.2,7.8-13h-3.3c0.1,0.3,0.2,0.5,0.3,0.8l-3.2,1.2c-0.2-1-0.4-2-0.7-3.2
			c-3.6,1.4-7.6,2.5-9.9,2.8l-0.9-3.8c0.9,0,1.9,0.1,2.8,0.1c1.5-1.9,3.4-4.4,5-7.6c-2.3,0.8-4.8,1.4-6.7,1.7l-0.7-3.6
			c0.9,0.1,1.7,0.1,2.5,0.2c1.5-3.1,2.8-7,3.6-11.4l3.7,1.3c-1.5,3.8-3.7,7.6-5.5,10.2c1.3,0,2.6,0,4.1-0.1c0.7-1.5,1.4-3.1,1.9-4.8
			l3.4,1.5c-2.1,4.3-6,9.4-9.5,12.6c1.9-0.1,3.8-0.3,5.7-0.5c-0.3-1.1-0.6-2.2-1-3.2l1.3-0.7c1.1,1.5,2.2,3.3,3,5h3.9l0.8-0.8
			L202.9,137.4z M188.2,141.2c1.2,3.2,2.2,6.8,2.6,9.3l-3.6,0.7c0.2-2.6,0-6.3-0.3-9.6L188.2,141.2z M192.4,147.6
			c-0.7-2.6-1.4-4.5-2.5-7.1l1.1-0.7c1.7,1.9,3,3.7,4.2,6.1L192.4,147.6z M217.5,149l-3,4c-2.9-2.1-5.9-6.9-7.5-12.7v9.7
			c0,4.3-3.2,6.8-9.7,1.8l0.5-1.4c5.4,1.6,5.7,0.6,5.7-1.3V134h-7.2v-13.4h5.7c0.6-1.9,0.9-3.6,1.3-5.5l4,1.1
			c-1.1,1.7-2.2,3.2-3.4,4.4h9.9V134h-6.9v0.4c0.4,2.1,1,4.1,1.9,5.8c1.3-1.5,2.4-3,3.4-5.1l3.2,2.4c-1.9,1.8-3.9,3-5.9,4.1
			C211.7,144.9,214.6,147.4,217.5,149z M199.7,126.2h10.8v-3.8h-10.8V126.2z M199.7,132.1h10.8V128h-10.8V132.1z"/>
		<path class="st2" d="M258.7,117l-26.4,37.6l-2.2-1.7l26.4-37.6L258.7,117z"/>
		<path class="st1" d="M280.9,125.6v28.8h-3.7v-22.2c-1.6,2.4-3.3,4.5-5,6.3l-1-1.1c4-5.4,7.6-13.9,9.2-22.3l4.1,1.2
			C283.5,119.5,282.3,122.7,280.9,125.6z M307.5,148.2v2.5h-24.8v-2.5H307.5z M305.2,125.9h-19.8v-2.3h19.8V125.9z"/>
		<path class="st1" d="M324.6,132.5v21.7h-3.5v-17.1c-1.2,1.4-2.5,2.6-3.9,3.6l-0.9-1.2c3.4-4,6.5-10.2,8.2-15.9l4,1.7
			C327.5,127.4,326.2,130,324.6,132.5z M317.2,128.6l-0.9-1.2c3.1-3.5,5.3-8,6.7-12.3l3.9,1.8C324.7,121.2,320.9,126,317.2,128.6z
			 M330.6,142c0.2,3.8-0.5,7.9-1.7,10.4l-3.6-1.9c1.9-2.2,3.2-5,3.8-8.7L330.6,142z M352.5,138.4H327v-1.9h25.5V138.4z M337.6,121.9
			h-10.1V120h10.1v-4.5h3.6v4.5h10.7v1.9h-10.8v3h8.7v9.7h-20.4v-9.7h8.2L337.6,121.9L337.6,121.9z M346.2,144.4
			c2.4,7.2,0.3,8.5-2.8,8.7c-1.9,0.1-4.1,0.1-6,0c-4-0.2-5-0.6-5-4.3v-8.1h3.5v7.3c0,1.5,0.3,1.8,2.1,2c1.5,0.1,3.8,0.1,5.3-0.1
			c1.4-0.2,1.7-0.5,1.6-5.4L346.2,144.4L346.2,144.4z M335.4,126.7h-2.5v5.9h2.5V126.7z M337.7,138.9c1.9,1,4.6,3.2,6.2,5.1
			l-2.7,2.5c-1.4-2.4-2.8-4.5-4.4-6.6L337.7,138.9z M338.2,132.7h2.6v-5.9h-2.6V132.7z M343.6,132.7h2.8v-5.9h-2.8V132.7z
			 M353.1,149.6l-3.4,1.4c-0.7-2.8-2.1-6.5-3.4-9.4l1.3-0.7C350,143.4,352,146.9,353.1,149.6z"/>
		<path class="st1" d="M398.3,146.7l-2.7,4.9c-4.4-2.3-10.5-7.6-13.8-14.6v17.6h-3.9v-17.4c-3.2,5.8-9.5,11.2-15.4,14.4l-0.8-1.4
			c6.6-4.6,11-9.9,13.9-15.4H363v-2.3h14.9v-6.6h-12.1v-2.1h12.1v-8.1h3.9v8.1h11.9v2.1h-11.9v6.6h15v2.3h-14.3
			C386.5,140.7,393,144.7,398.3,146.7z"/>
		<path class="st1" d="M442.7,147.1l-2.7,4.6c-5.3-3.2-9.8-7.5-13.2-13.9v16.7h-3.7v-15.2c-3.2,4.5-8.5,9.5-15.1,12.5l-0.6-1.4
			c4.9-2.8,10.9-8.9,14.1-14.2l-2.2,1.6c-0.8-2-1.7-4-2.4-5.6c-1.3,3.6-3.4,6.8-7.1,9.8l-1-1.1c3.8-4.7,5.3-9.4,5.8-15.7l3.8,0.8
			c-0.2,1.5-0.5,2.8-0.9,4.2c1.6,1.5,3.4,3.4,4.5,5.1c0.4-0.8,0.8-1.6,1.1-2.4V124h-14.3v-2.3h14.3v-6.1h3.7v6.1h14.4v2.3h-14.4
			v10.4c0.5,0.8,1,1.5,1.6,2.1c2.2-3.4,3.2-6.5,3.9-11.4l3.8,1c-0.4,1.5-0.9,3-1.5,4.3c2.4,1.8,4.6,3.9,5.9,5.5l-2.8,2.7
			c-1.2-2.2-2.6-4.5-4-6.4c-1.2,2.3-2.5,4.1-4.2,5.7C433.4,142.4,437.5,144.9,442.7,147.1z"/>
		<path class="st1" d="M480.6,151.6c-4.6-4.2-6.7-13.6-7.5-24.3H453V125h20c-0.2-3.1-0.2-6.2-0.2-9.4l3.8,0.1
			c-0.1,3.1-0.1,6.3,0,9.3h10.7v2.3h-10.6c0.6,9,2.2,16.6,5.7,20.3c2.7,2.9,2.6,0.6,2.7-6.1h1.5
			C489.7,151.3,486.7,157.2,480.6,151.6z M473.9,143.4l0.5,1.4c-5.3,2.6-14.1,5.3-19.5,6.4l-1.4-4.4c2.5-0.2,5.4-0.5,8.2-0.9v-10.1
			h-7.5v-2.1h18.4v2.1h-7.2v9.5C468.5,144.7,471.5,144.1,473.9,143.4z M483,124.2c-1.5-2.3-3.9-5.6-5.3-7.3l1-1.2
			c2.3,1.3,5.7,3.8,7.2,5.6L483,124.2z"/>
	</g>
	<path class="st1" d="M578.9,148.9v3.4h-22.8v-2.4l12.3-12.6c4-4.1,5.9-6.6,5.9-9.9c0-3.5-2-6.5-6.1-6.5c-4.4,0-6.5,2.7-7,7.5v0.5
		H557v-0.5c0.7-7.1,4.9-10.8,11.7-10.8c6.9,0,10.3,4.3,10.3,9.4c0,4.6-2.5,7.8-8.3,13.5l-8.5,8.4H578.9z"/>
	<path class="st1" d="M612.9,142.9c0,6.4-5.8,10.1-12.3,10.1s-11-2.9-11.7-10.2v-0.5h4.2v0.5c0.5,4.8,3.7,6.9,7.9,6.9
		s7.2-2.4,7.2-6.6c0-4-2.6-6.3-8.1-6.3h-0.8v-3.4h0.8c4,0,7.3-2.4,7.3-6.7c0-3.4-2.4-5.8-6-5.8s-6.5,2.2-6.9,6.7v0.5h-4.2v-0.5
		c0.6-6.2,4.8-10,11.7-10c6.3,0,10.2,3.5,10.2,8.6c0,3.9-2.5,6.9-6,8C610.3,135.4,612.9,138.4,612.9,142.9z"/>
	<path class="st1" d="M644.9,134.8c0,4.2-1.8,6.6-5.4,6.6c-1.9,0-3.2-0.6-5.7-2c-1.8-1-3.3-1.7-4.6-1.7c-1.9,0-2.4,1.4-2.4,3.7H624
		c0-4.2,1.8-6.6,5.4-6.6c1.9,0,3.2,0.6,5.7,2c1.8,1,3.3,1.7,4.6,1.7c1.9,0,2.4-1.4,2.4-3.7H644.9z"/>
	<path class="st1" d="M676.3,143.8v8.6h-4.2v-8.6h-16.9v-2.1l16.9-23.3h4.2v22h4.3v3.4L676.3,143.8L676.3,143.8z M672.1,124
		c-0.8,1.3-1.7,2.8-2.8,4.3l-8.7,12h11.5V124z"/>
	<path class="st1" d="M713.4,142.9c0,6.4-5.8,10.1-12.3,10.1s-11-2.9-11.7-10.2v-0.5h4.2v0.5c0.5,4.8,3.7,6.9,7.9,6.9
		s7.2-2.4,7.2-6.6c0-4-2.6-6.3-8.1-6.3h-0.8v-3.4h0.8c4,0,7.3-2.4,7.3-6.7c0-3.4-2.4-5.8-6-5.8s-6.5,2.2-6.9,6.7v0.5h-4.2v-0.5
		c0.6-6.2,4.8-10,11.7-10c6.3,0,10.2,3.5,10.2,8.6c0,3.9-2.5,6.9-6,8C710.8,135.4,713.4,138.4,713.4,142.9z"/>
	<path class="st1" d="M726.2,131.4v-8.9h2.4v8.9h3.9v2.4h-3.9v11.3c1.4-0.5,2.7-1,4-1.6v2.4c-3.2,1.4-6.5,2.6-10.1,3.5l-0.6-2.4
		c1.5-0.3,2.9-0.7,4.4-1.1v-12.1h-4.2v-2.4L726.2,131.4L726.2,131.4z M751.2,124v2.3h-7.8v12.8h8.8v2.3h-8.8v12.2h-2.3v-12.2h-8.6
		v-2.3h8.6v-12.8h-7.7V124H751.2z M738.4,136.9l-2,0.5c-0.6-3-1.4-5.8-2.4-8.5l2-0.7C736.9,130.8,737.7,133.7,738.4,136.9z
		 M750.4,128.6c-0.7,3.3-1.6,6.2-2.6,8.7l-2-0.7c1-2.2,1.8-5.1,2.6-8.5L750.4,128.6z"/>
	<path class="st0" d="M776,154.9h-2.7v-39.8h2.7V154.9z"/>
	<path class="st1" d="M822,148.9v3.4h-22.8v-2.4l12.3-12.6c4-4.1,5.9-6.6,5.9-9.9c0-3.5-2-6.5-6.1-6.5c-4.4,0-6.5,2.7-7,7.5v0.5
		h-4.2v-0.5c0.7-7.1,4.9-10.8,11.7-10.8c6.9,0,10.3,4.3,10.3,9.4c0,4.6-2.5,7.8-8.3,13.5l-8.5,8.4H822z"/>
	<path class="st1" d="M854.5,134.8c0,4.2-1.8,6.6-5.4,6.6c-1.9,0-3.2-0.6-5.7-2c-1.8-1-3.3-1.7-4.6-1.7c-1.9,0-2.4,1.4-2.4,3.7h-2.8
		c0-4.2,1.8-6.6,5.4-6.6c1.9,0,3.2,0.6,5.7,2c1.8,1,3.3,1.7,4.6,1.7c1.9,0,2.4-1.4,2.4-3.7H854.5z"/>
	<path class="st1" d="M885.9,143.8v8.6h-4.2v-8.6h-16.9v-2.1l16.9-23.3h4.2v22h4.3v3.4L885.9,143.8L885.9,143.8z M881.7,124
		c-0.8,1.3-1.7,2.8-2.8,4.3l-8.7,12h11.5V124z"/>
	<path class="st1" d="M925.7,124.3c-6.5,0.9-13.8,1.5-21.9,1.6v2h21.9v7.3h-21.9v0.3c-0.1,7.2-1.4,12.9-3.8,17.1l-1.7-1.9
		c2-3.7,3.2-8.8,3.3-15.3V124c8.5-0.1,16.3-0.6,23.1-1.6L925.7,124.3z M905.2,141.1V139h9.4c-0.4-0.9-0.8-1.8-1.2-2.5l2.5-0.4
		c0.4,0.8,0.8,1.8,1.2,2.9h10v2.1h-14.3c-0.1,1-0.2,1.9-0.4,2.8h12.3c-0.1,4.3-0.4,6.9-0.7,7.6c-0.3,0.7-0.8,1.2-1.7,1.5
		c-0.9,0.2-2.7,0.4-5.4,0.4h-0.6l-0.7-2.2c0.6,0,1.2,0.1,1.9,0.1c1.8,0,2.9-0.1,3.4-0.3s0.8-0.5,1-0.9c0.1-0.4,0.2-1.8,0.4-4h-10.6
		c-1.2,3.2-3.5,5.7-6.8,7.4l-1.2-2c4.2-2.1,6.4-5.5,6.8-10.4L905.2,141.1L905.2,141.1z M923.5,133.1V130h-19.6v3.1H923.5z"/>
</g>
</svg>
