<svg width="1126" height="156" viewBox="0 0 1126 156" fill="none" xmlns="http://www.w3.org/2000/svg">
<path d="M37.28 148.47L34.98 152.73C31.1 151.39 25.12 147.34 20.36 140.58V154.57H16.64V141.04C12.48 146.68 6.74 150.43 0.65 153.06L0 151.68C4.77 149.05 10.82 144.08 14.22 139.03H5.57V126H16.64V122.58H2.14V120.28H16.64V115.52H20.36V120.28H35.38V122.58H20.36V126H31.47V138.98H21.17C26.5 144.24 31.99 147.2 37.29 148.46L37.28 148.47ZM9.17 131.48H16.64V127.85H9.17V131.48ZM9.17 137.16H16.64V133.32H9.17V137.16ZM20.36 127.85V131.48H27.91V127.85H20.36ZM27.91 133.28H20.36V137.16H27.91V133.28Z" fill="#221815"/>
<path d="M81.22 150.969C80.01 152.139 77.58 152.889 73.99 153.059C69.06 153.269 61.79 153.229 56.86 153.059C50.68 152.849 48.66 152.639 48.66 145.959V120.199H46.12V118.109H80.05V120.199H52.38V146.039C52.38 149.129 52.7 149.459 56.78 149.629C61.87 149.839 68.98 149.879 74.07 149.629C76.78 149.509 78.07 149.169 79.52 147.879L81.22 150.969ZM54.85 135.109H65.43V146.549H54.85V135.109ZM58.24 144.749H62.04V136.899H58.24V144.749ZM73.95 131.889H58.56V122.829H73.95V131.889ZM70.48 124.629H62.04V130.099H70.48V124.629ZM78.48 146.549H67.66V135.109H78.48V146.549ZM75.09 136.909H71.05V144.759H75.09V136.909Z" fill="#221815"/>
<path d="M127.7 148.129L126.33 152.679C119.18 153.179 110.34 153.309 105.61 151.759C103.07 150.929 100.76 149.589 98.82 147.589C96.88 150.389 94.46 152.639 91.67 154.269L90.78 153.019C93.32 150.969 95.47 148.429 97.12 145.379C95.5 142.999 94.29 139.909 93.65 135.989L95.06 135.569C95.79 138.489 96.8 140.999 98.25 143.039C99.58 139.869 100.43 136.279 100.71 132.309H96.83C96.39 133.139 95.98 133.809 95.66 134.309L92.51 133.599C94.45 130.389 96.83 125.249 98.57 120.409H92.03V118.619H103.22C102.01 121.879 99.71 126.799 97.85 130.429H100.48L101.09 129.719L104.44 130.809C103.92 136.449 102.46 141.289 100.28 145.249C101.45 146.289 102.82 147.129 104.48 147.749C109.73 149.799 119.87 149.089 127.7 148.129ZM105.16 122.289L105 120.789C111.38 120.079 119.38 117.659 122.45 115.859L125.2 119.069C123.5 119.739 120.72 120.409 117.61 120.949V130.179H125.04V132.059H117.61V143.369H126.25V145.249H103.71V143.369H106.78V127.839H109.69V143.369H114.46V121.449C111.15 121.909 107.8 122.239 105.17 122.279L105.16 122.289Z" fill="#221815"/>
<path d="M147.98 116.4C147.25 119.95 146.2 123.12 144.99 125.96V154.31H141.52V132.48C139.9 134.98 138.25 136.95 136.79 138.28L135.74 137.19C138.49 133.31 142.16 126.21 143.9 115.31L147.98 116.39V116.4ZM170.44 123.25V144.5H166.89V141.74H161.28V154.31H157.56V141.74H151.95V144.75H148.48V123.25H157.57V115.9H161.29V123.25H170.46H170.44ZM151.94 131.27H157.55V125.13H151.94V131.27ZM157.55 139.87V133.15H151.94V139.87H157.55ZM166.88 125.13H161.27V131.27H166.88V125.13ZM166.88 133.15H161.27V139.87H166.88V133.15Z" fill="#221815"/>
<path d="M186.14 142.04C186.22 146.97 185.57 151.31 184.69 154.02L181.01 152.39C182.5 149.88 183.96 146.34 184.73 141.87L186.14 142.04ZM203.51 137.61C201.89 143.75 198.14 149.38 192.48 152.76L191.63 151.55C196.72 147.33 198.5 142.32 199.47 138.57H196.2C196.28 138.82 196.4 139.07 196.48 139.32L193.29 140.49C193.09 139.53 192.85 138.44 192.56 137.32C188.97 138.7 184.97 139.78 182.62 140.16L181.69 136.32C182.62 136.36 183.55 136.4 184.52 136.4C186.01 134.52 187.87 131.98 189.53 128.84C187.23 129.59 184.72 130.26 182.83 130.55L182.1 126.92C182.99 127 183.8 127.04 184.56 127.09C186.01 124 187.35 120.12 188.2 115.69L191.88 116.94C190.39 120.74 188.16 124.58 186.35 127.17C187.68 127.17 188.97 127.13 190.47 127.05C191.2 125.55 191.84 123.92 192.41 122.21L195.84 123.75C193.74 128.09 189.86 133.18 186.39 136.36C188.29 136.28 190.19 136.11 192.13 135.86C191.81 134.78 191.48 133.65 191.16 132.69L192.45 132.02C193.54 133.52 194.63 135.28 195.48 136.99H199.4L200.21 136.15L203.52 137.61H203.51ZM188.89 141.41C190.1 144.62 191.11 148.17 191.47 150.68L187.83 151.39C187.99 148.76 187.87 145.13 187.55 141.79L188.88 141.41H188.89ZM193.09 147.8C192.36 145.17 191.68 143.33 190.63 140.74L191.76 140.03C193.42 141.95 194.79 143.74 195.96 146.08L193.09 147.79V147.8ZM218.13 149.18L215.1 153.15C212.19 151.06 209.2 146.22 207.63 140.46V150.19C207.63 154.49 204.44 156.99 197.98 152.03L198.46 150.61C203.83 152.24 204.16 151.2 204.16 149.32V134.17H196.93V120.73H202.62C203.23 118.81 203.55 117.14 203.87 115.22L207.91 116.31C206.82 118.02 205.73 119.48 204.56 120.73H214.5V134.17H207.63V134.59C207.99 136.72 208.64 138.68 209.57 140.43C210.9 138.89 211.95 137.47 213 135.34L216.23 137.72C214.33 139.56 212.35 140.73 210.33 141.81C212.39 145.11 215.22 147.61 218.12 149.2L218.13 149.18ZM200.32 126.34H211.1V122.58H200.32V126.34ZM200.32 132.27H211.1V128.14H200.32V132.27Z" fill="#221815"/>
<path d="M259.36 117.159L232.94 154.729L230.76 153.059L257.17 115.489L259.35 117.159H259.36Z" fill="#C88C2D"/>
<path d="M281.53 125.8V154.56H277.81V132.35C276.23 134.73 274.54 136.86 272.8 138.61L271.79 137.48C275.79 132.05 279.34 123.54 281.04 115.14L285.12 116.31C284.15 119.69 282.94 122.86 281.53 125.79V125.8ZM308.11 148.39V150.89H283.35V148.39H308.11ZM305.85 126.05H286.02V123.71H305.85V126.05Z" fill="#221815"/>
<path d="M325.23 132.64V154.35H321.76V137.23C320.55 138.61 319.22 139.86 317.84 140.86L316.95 139.69C320.34 135.72 323.45 129.5 325.15 123.74L329.11 125.41C328.18 127.58 326.89 130.13 325.23 132.63V132.64ZM317.88 128.76L316.99 127.59C320.1 124.04 322.28 119.57 323.74 115.27L327.62 117.02C325.32 121.32 321.56 126.2 317.89 128.75L317.88 128.76ZM331.25 142.2C331.41 146.04 330.76 150.13 329.59 152.64L326 150.76C327.9 148.55 329.19 145.79 329.84 142.04L331.25 142.21V142.2ZM353.18 138.61H327.65V136.73H353.18V138.61ZM338.24 122.08H328.18V120.2H338.24V115.73H341.79V120.2H352.45V122.08H341.79V125.04H350.47V134.73H330.07V125.04H338.23V122.08H338.24ZM346.84 144.54C349.26 151.76 347.16 153.02 344.01 153.22C342.15 153.35 339.93 153.35 338.03 153.26C334.07 153.09 333.02 152.63 333.02 148.96V140.82H336.49V148.08C336.49 149.58 336.81 149.92 338.55 150.04C340.04 150.16 342.31 150.12 343.8 149.91C345.17 149.7 345.54 149.37 345.38 144.52H346.83L346.84 144.54ZM336.02 126.92H333.48V132.85H336.02V126.92ZM338.4 139.03C340.26 140.07 343 142.2 344.62 144.16L341.91 146.66C340.54 144.24 339.08 142.15 337.47 140.11L338.4 139.03ZM338.84 132.85H341.47V126.92H338.84V132.85ZM344.29 132.85H347.08V126.92H344.29V132.85ZM353.74 149.76L350.39 151.18C349.66 148.42 348.29 144.67 347.04 141.79L348.29 141.08C350.67 143.63 352.65 147.05 353.74 149.76Z" fill="#221815"/>
<path d="M398.98 146.84L396.23 151.72C391.87 149.42 385.69 144.12 382.46 137.15V154.73H378.58V137.32C375.39 143.16 369.13 148.55 363.15 151.68L362.34 150.3C368.96 145.67 373.33 140.41 376.23 134.89H363.67V132.59H378.57V125.99H366.49V123.9H378.57V115.84H382.45V123.9H394.36V125.99H382.45V132.59H397.43V134.89H383.17C387.17 140.86 393.67 144.91 398.96 146.83L398.98 146.84Z" fill="#221815"/>
<path d="M443.4 147.299L440.73 151.889C435.4 148.719 430.92 144.419 427.52 137.949V154.609H423.8V139.459C420.65 143.929 415.32 148.939 408.73 151.979L408.08 150.599C413.01 147.759 418.99 141.749 422.14 136.409L419.92 137.999C419.15 135.949 418.26 134.029 417.5 132.449C416.17 136.039 414.11 139.209 410.43 142.219L409.46 141.089C413.3 136.409 414.75 131.739 415.24 125.349L419.08 126.099C418.84 127.559 418.56 128.939 418.19 130.269C419.81 131.809 421.62 133.689 422.71 135.399C423.15 134.569 423.52 133.769 423.8 133.019V124.169H409.54V121.869H423.8V115.729H427.52V121.869H441.94V124.169H427.52V134.609C428.04 135.359 428.57 136.069 429.1 136.699C431.28 133.319 432.33 130.189 432.98 125.259L436.78 126.259C436.34 127.799 435.85 129.219 435.28 130.519C437.66 132.269 439.88 134.399 441.22 135.989L438.39 138.699C437.22 136.529 435.81 134.229 434.43 132.309C433.26 134.609 431.89 136.439 430.19 138.029C434.07 142.539 438.11 145.129 443.4 147.299Z" fill="#221815"/>
<path d="M481.28 151.809C476.68 147.639 474.53 138.199 473.81 127.469H453.7V125.169H473.65C473.49 122.079 473.45 118.949 473.49 115.819L477.29 115.899C477.21 119.029 477.21 122.159 477.33 125.169H488.03V127.469H477.41C477.98 136.449 479.63 144.089 483.11 147.799C485.86 150.719 485.73 148.429 485.77 141.749H487.22C490.33 151.519 487.38 157.359 481.28 151.809ZM474.53 143.589L475.02 145.009C469.77 147.639 460.92 150.349 455.47 151.439L454.1 147.059C456.64 146.889 459.47 146.559 462.3 146.139V135.999H454.83V133.909H473.21V135.999H466.02V145.519C469.17 144.939 472.16 144.269 474.54 143.599L474.53 143.589ZM483.7 124.339C482.21 122.039 479.78 118.699 478.45 117.079L479.42 115.909C481.76 117.249 485.11 119.749 486.61 121.459L483.7 124.339Z" fill="#221815"/>
<path d="M168.92 31.9404C162.72 37.8204 153.74 43.6404 144.98 47.8804L141.61 42.1104C144.11 41.2904 146.56 40.4204 148.96 39.5004L148.63 2.50039H153.64L153.75 37.5404C159.35 35.0904 164.2 32.5304 167.73 30.3604L168.93 31.9404H168.92ZM185.57 49.7304C183.39 44.8904 180.56 40.3704 177.41 36.2904C173.71 43.3104 167.23 48.1504 156.57 51.2504L155.86 49.4004C172.4 42.9204 176.59 32.4204 176.59 14.5804V1.90039H181.7V13.5504C181.7 21.6604 180.83 28.3504 178.54 33.9004C183.22 37.3304 187.68 41.9004 190.46 46.2004L185.56 49.7404L185.57 49.7304ZM166.58 22.9004C164.51 17.9504 161.36 12.3404 158.64 8.05039L160.16 6.74039C164.3 10.1104 168.92 15.0104 171.75 19.5804L166.58 22.9004Z" fill="#D08421"/>
<path d="M246.24 44.2398L244.39 50.0098C234.76 50.6598 222.84 50.7698 216.48 48.8098C212.89 47.7198 209.68 45.8698 207.07 43.0398C204.68 46.5798 201.74 49.5098 198.26 51.7998L197.06 50.2198C199.56 48.1498 202.39 44.9398 204.73 40.0998C202.72 36.9998 201.25 33.1398 200.38 28.2398L202.28 27.6998C203.21 31.2398 204.4 34.2798 206.14 36.8398C207.56 32.9798 208.7 28.2398 209.3 22.4198H204.57C203.7 23.9998 202.88 25.3598 202.23 26.1698L198.37 24.5398C200.93 20.3498 204.68 12.9998 207.08 6.85977H198.1V4.51977H213.12C211.65 8.54977 208.6 14.9698 205.94 19.9698H209.21L210.08 19.0998L214.38 20.7298C213.67 28.0198 211.88 34.5498 208.88 40.0498C210.57 41.6298 212.58 42.8298 214.97 43.7498C222.04 46.4198 235.7 45.4898 246.26 44.2398H246.24ZM225.62 14.7498H213.7V12.4098H225.62V8.05977H216.26V5.60977H225.62V0.759766H230.3V5.59977H240.91V12.3998H245.32V14.7398H240.91V22.0898H230.3V26.3898H241.4V28.8398H230.3V33.8998H243.9V36.3498H230.3V43.5298H225.62V36.3498H213.65V33.8998H225.62V28.8398H215.61V26.3898H225.62V22.0898H215.99V19.6398H225.62V14.7398V14.7498ZM230.3 12.4098H236.61V8.05977H230.3V12.4098ZM230.3 19.6498H236.61V14.7498H230.3V19.6498Z" fill="#D08421"/>
<path d="M254.72 16.2198L253.58 14.6998C257.88 10.6698 260.65 6.36977 262.5 0.169766L267.72 1.63977C267.18 2.88977 266.36 4.35977 265.27 5.87977H279.2V8.32977H269.9C271.21 9.57977 272.62 11.3198 273.93 13.2298L269.9 14.6998C269.25 12.5798 268.49 10.4598 267.4 8.32977H263.43C261.09 11.1598 258.1 14.0398 254.72 16.2198ZM303.26 44.1898L300.38 49.5798C294.88 48.7098 285.69 43.9798 280.74 36.7398V51.3798H276.06V36.9098C272.2 42.6198 262.51 47.4698 254.35 49.3698L253.7 47.6298C261.7 44.6398 267.3 41.3198 271.6 36.1498H255.28V33.6998H276.07V29.0798C274.76 29.9498 273.24 30.6598 271.5 31.3698L270.57 29.6298C272.96 28.1598 274.49 26.8598 275.41 25.3298C271.17 27.1798 262.62 29.5698 256.75 30.4998L255.5 25.9798C258.6 25.8198 261.27 25.5998 263.77 25.3298V18.0898H256.21V15.6398H275.91V18.0898H268.35V24.7298C270.64 24.3498 272.97 23.9098 275.53 23.3098L275.86 24.5098C276.95 22.1698 276.95 19.3398 276.95 15.0998H294.36V23.2598C294.36 25.2698 295.12 25.5998 296.92 25.5998C299.26 25.5998 299.31 25.1098 299.26 19.5598H301.22C303.56 28.0998 302.14 29.4598 296.81 29.5198C291.37 29.5698 289.85 28.4298 289.85 23.8098V17.5498H281.52C281.52 23.1498 279.78 26.4198 276.51 28.7598H280.75V33.7098H301.64V36.1598H282.7C288.79 41.4398 295.65 43.0198 303.27 44.2098L303.26 44.1898ZM276.11 12.9598C279.48 9.36977 281.82 4.90977 283.35 0.00976562L288.36 1.69977C287.65 3.10977 286.78 4.52977 285.86 5.82977H302.29V8.27977H291.73C293.15 9.41977 294.4 10.7798 295.7 12.5798L291.73 14.2098C290.91 12.1998 290.15 10.3498 288.96 8.27977H283.95C281.66 10.9498 279.22 13.0698 277.37 14.3698L276.12 12.9498L276.11 12.9598ZM282.48 19.2698L284.11 18.6198C285.91 21.3398 287.37 24.4398 288.14 27.2198L284.22 28.2498C283.95 25.6898 283.24 22.2598 282.48 19.2698Z" fill="#D08421"/>
<path d="M318.39 40.8102V28.5702H311.21V26.0702H323.18V40.3802C326.39 44.8402 329.98 44.9502 337.11 45.1102C344.18 45.2702 353.65 44.4602 359.91 43.5902L358.55 49.0902C352.73 49.5802 341.79 49.7402 336.84 49.4702C328.51 48.9802 324.92 47.7802 321.06 41.4702C319.1 44.9502 316.6 48.7102 313.77 51.5902L310.67 48.3802C313.5 46.2602 316.82 43.2702 318.4 40.8202L318.39 40.8102ZM312.35 13.1702L313.44 11.5402C316.16 12.9002 320.35 15.2402 323.29 17.8002L319.75 21.8302C317.95 19.4402 314.64 15.5702 312.35 13.1802V13.1702ZM314.85 2.45023L315.88 0.820234C318.55 2.02023 323.12 4.36023 325.89 6.81023L322.41 10.7802C320.29 8.00023 317.57 5.01023 314.85 2.45023ZM326.06 35.4202V32.9702H339.55V29.0002H328.67V12.6802H339.55V8.60023H327.31V6.15023H339.55V0.490234H344.34V6.15023H357.02V8.60023H344.34V12.6802H355.28V29.0002H344.34V32.9702H358.27V35.4202H344.34V42.8202H339.55V35.4202H326.06ZM339.55 15.1202H333.24V19.5302H339.55V15.1202ZM339.55 21.9802H333.24V26.5502H339.55V21.9802ZM350.7 15.1202H344.33V19.5302H350.7V15.1202ZM350.7 21.9802H344.33V26.5502H350.7V21.9802Z" fill="#D08421"/>
<path d="M373.67 35.4803C373.89 41.9003 372.96 47.2303 371.66 50.7703L366.65 48.4803C368.88 45.2203 370.89 41.0803 371.76 35.2603L373.66 35.4803H373.67ZM383.3 22.8003C385.48 25.4703 387.05 28.1303 388.41 31.7203L384.38 33.2403L383.35 29.2703C378.45 31.2303 372.79 33.1303 368.77 34.0003L367.3 29.2103C368.55 29.2103 369.8 29.1603 371.11 29.0503C374.27 26.0603 377.15 22.5203 379.82 17.5103C376.39 18.7103 372.42 19.8003 368.94 20.5003L367.96 16.0903C369.05 16.0903 370.19 16.0903 371.28 16.0403C373.4 11.4703 375.63 5.70027 376.83 0.530273L381.89 2.11027C379.77 7.01027 376.23 12.2903 373.56 15.9303C376.17 15.8203 378.73 15.6003 380.91 15.3303C381.51 13.9703 382.16 12.5503 382.76 10.9803L387.33 13.5403C382.98 20.6103 378.41 25.2403 374 28.7803C377.05 28.4503 380.04 27.9103 382.81 27.4203C382.43 26.1703 381.99 24.9703 381.56 23.7203L383.3 22.7903V22.8003ZM377.64 34.5503C379.27 38.2003 381.23 43.7503 381.99 46.7903L377.2 47.9903C376.93 44.5603 376.27 39.0103 375.73 35.0403L377.63 34.5503H377.64ZM382.1 32.8103C384.33 35.5303 386.94 39.6103 388.3 42.5503L384.11 44.7303C383.19 41.4103 381.66 36.8403 380.46 33.6803L382.09 32.8103H382.1ZM403.48 12.6203V22.4103H413.98V24.8603H388.24V22.4103H398.58V12.6203H387.21V10.1703H398.58V1.03027H403.48V10.1803H415.61V12.6303H403.48V12.6203ZM389.33 30.7403H413.33V50.8703H408.65V47.0603H394.01V51.1403H389.33V30.7403ZM394.01 44.5603H408.65V33.1903H394.01V44.5603Z" fill="#D08421"/>
<path d="M435.7 13.55V51.37H431.02V21.22C429.17 23.72 427.05 25.95 424.6 28.02L423.29 26.55C429.17 18.99 432.65 10.17 434.88 0L440.21 1.58C438.96 5.93 437.49 9.96 435.69 13.55H435.7ZM457.63 12.57V45.71C457.63 51.1 453.33 53.44 442.99 48L443.48 46.15C452.24 47.67 452.73 47.02 452.73 43.92V12.57H446.15C444.3 16.38 441.91 20.08 438.97 23.73L437.28 22.59C441.14 16.06 443.21 9.42 444.3 0.66L449.85 1.86C449.25 4.63 448.38 7.41 447.24 10.13H465.58L467.16 8.99L472.33 11.93C470.26 15.25 466.73 19.33 464.17 21.29L462.59 19.98C463.84 17.75 465.09 14.81 465.75 12.58H457.64L457.63 12.57ZM449.52 24.92C447.56 31.12 444.13 38.58 439.02 44.4L437.44 43.2C440.7 37.43 443.1 30.58 444.35 23.28L449.52 24.91V24.92ZM472.7 41.3L467.37 43.69C465.68 37.27 462.85 29.38 460.57 24.1L462.2 23.07C466.17 28.13 470.25 35.42 472.7 41.3Z" fill="#D08421"/>
<path d="M519.55 49.5702C517.32 48.2602 514.76 45.8202 512.59 41.3502C509.16 44.4002 505.14 46.9002 500.24 48.9102L499.26 47.1702C503.67 44.7202 507.59 41.6202 510.96 37.5902C509.33 33.0202 508.08 26.8702 507.53 18.6502H497.63L497.58 27.4102C500.41 26.4802 503.08 25.5602 505.74 24.5302L506.56 26.3302C503.84 28.1802 500.79 29.8702 497.58 31.4502L497.47 45.1602C497.42 51.9602 492.19 54.0802 483.59 47.7202L484.24 45.8702C491.15 47.6702 492.84 47.7202 492.84 43.6402V33.4602C489.63 34.7702 486.2 35.9102 482.77 36.8902L480.87 31.4502C485.01 30.8002 488.98 29.9302 492.84 28.8402L492.89 18.6702H481.14V16.2202H492.89V9.15023C489.57 9.80023 486.03 10.2902 482.5 10.6702L482.12 8.71023C490.5 6.70023 496 4.96023 501.33 1.47023L505.74 5.44023C503.45 6.53023 500.73 7.40023 497.74 8.11023L497.69 16.2202H507.43C507.38 15.8402 507.38 15.4602 507.38 15.0802C507.27 11.7602 507.11 4.85023 507.05 0.990234H511.84C511.89 5.23023 512 11.1102 512.11 14.5902C512.11 15.1302 512.16 15.6802 512.16 16.2202H527.61V18.6702H512.32C512.7 24.5502 513.46 29.1702 514.5 32.8202C516.57 29.5602 518.31 25.8602 519.78 21.6102L524.68 23.7902C522.29 29.1202 519.57 33.7502 516.25 37.6702C518.7 43.2702 521.75 45.2302 523.54 45.7802C525.34 46.3202 525.5 43.3302 525.17 36.4202H527.13C531.1 47.9602 528.76 54.8102 519.57 49.5902L519.55 49.5702ZM520.58 13.5502C518.84 10.2302 516.66 6.48023 514.54 3.32023L516.01 1.90023C519.38 4.13023 522.81 7.34023 524.99 10.1702L520.58 13.5402V13.5502Z" fill="#D08421"/>
<path d="M543.38 56.2796C547.52 54.6496 549.86 51.1696 550.29 47.5696C549.91 47.7896 548.77 47.8396 548.44 47.8396C545.88 47.8396 544.09 46.1497 544.09 43.4897C544.09 40.8297 545.94 39.1396 548.5 39.1396C551.82 39.1396 554 41.1496 554 45.2296C554 51.2696 550.14 56.6596 544.53 57.7996L543.39 56.2796H543.38Z" fill="#D08421"/>
<path d="M628.43 10.1798V13.1698H600.3C598.4 16.8198 596.22 20.2998 593.88 23.4498V51.3598H588.76V29.5498C586.09 32.4298 583.37 34.7198 580.82 36.3498L579.62 34.6598C583.21 31.5598 589.69 23.7198 594.58 13.1698H582.34V10.1798H595.83C597.08 7.1298 598.17 3.9198 598.99 0.549805L604.81 2.0698C603.99 4.8398 602.91 7.56981 601.71 10.1798H628.43ZM613.58 45.7698H627.46V48.7598H595.74V45.7698H608.47V30.3698H597.59V27.7598H608.47V16.1198H613.58V27.7598H624.52V30.3698H613.58V45.7698Z" fill="#D08421"/>
<path d="M640.13 47.5L638.93 45.81C643.94 41.89 648.13 36.4 650.52 31.45L655.47 34.28C651.88 39.29 645.73 44.62 640.13 47.5ZM664.45 45.54C664.5 51.63 659.28 54.03 650.95 47.12L651.82 45.32C657.7 47.12 659.44 47.5 659.6 44.4V28.57H639.09V26.12H684.2V28.57H664.34L664.45 45.55V45.54ZM644.37 19.86H639.58V8.22H662.22C659.72 5.88 656.62 3.6 654.06 1.85L654.82 0C658.19 0.82 663.85 2.78 666.79 4.62L664.29 8.21H683.28V19.85H678.49V10.67H644.37V19.87V19.86ZM647.47 19.91V17.46H675.76V19.91H647.47ZM684.8 43.04L680.34 47.12C678.05 43.53 673.16 37.71 668.53 33.63L669.56 31.89C675 34.72 680.77 39.07 684.8 43.05V43.04Z" fill="#D08421"/>
<path d="M743.24 44.9502L739.27 51.1502C734.05 48.7602 722.51 38.4202 719.68 19.3702C716.85 35.9102 706.4 47.0102 694.65 51.5302L693.67 49.6802C703.14 44.2902 711.63 35.3702 714.18 18.3402H695.46V15.3502H714.56C714.67 14.1002 714.78 12.7902 714.83 11.4902C714.99 8.17016 715.05 4.25016 715.1 0.660156L720.65 0.820156C720.65 5.12016 720.54 9.04016 720.32 13.2302L720.16 15.3502H740.67V18.3402H721.52C725.55 33.9602 735.83 41.6802 743.23 44.9502H743.24Z" fill="#D08421"/>
<path d="M771.21 33.6796C770.56 40.0496 769.85 43.6396 768.92 46.8496C767.5 51.7996 762.72 52.6697 755.81 46.7397L756.68 44.9996C762.72 47.4996 763.92 47.2896 764.79 44.7296C765.39 42.9296 766.04 39.9397 766.42 36.0196H759.18C758.96 37.2197 758.69 38.3596 758.42 39.4496L754.12 38.7996C755.21 34.6096 755.81 31.0696 756.46 26.3396H767.07V20.1896H762.61C759.24 22.3097 755.43 24.0497 751.07 25.5196L750.25 23.7796C753.68 22.3097 757.98 19.9196 761.73 16.7596C759.93 14.2596 757.49 11.2096 755.74 9.24965L756.88 7.83965C759.49 9.24965 762.59 11.4296 765.04 13.6596C767 11.4796 768.69 9.13965 769.72 6.58965L754.38 6.42965V4.08965L769.89 4.24965L771.2 3.26965L775.88 5.82965C773.27 10.7296 770 14.6496 765.92 17.8596H771.31V28.6896H760.32C760.16 30.2097 759.88 31.9496 759.61 33.6996H771.2L771.21 33.6796ZM785.41 42.8797C788.95 44.8396 792.76 45.8196 796.35 46.5296L793.79 51.3196C789.82 49.8997 785.95 48.2696 782.58 45.4996C779.26 48.1696 775.18 50.1796 769.9 51.7596L769.25 50.1297C773.77 48.2797 777.36 45.9396 780.13 43.1696C778.06 40.9396 776.21 38.0596 774.74 34.2996H772.18V32.0096H785.84L787.2 31.1396L791.66 33.3196C789.81 37.1297 787.85 40.2797 785.4 42.8997L785.41 42.8797ZM799.12 19.2596L796.45 24.3696C793.24 23.0597 790.25 21.5996 787.47 19.6396V24.0496C787.47 25.6796 788.39 26.1696 790.63 26.0096C792.21 25.8996 793.08 25.7896 794.17 24.4296L796.29 27.7996C795.15 29.3796 793.24 30.0296 789.98 30.0296C784.86 30.0296 783.45 28.7796 783.45 25.5096V20.1796H778.77C778.72 26.1696 777.63 29.6496 771.21 32.2096L770.29 30.6296C774.81 27.2596 774.59 24.6996 774.53 17.7296H785.03C780.73 14.0296 777.25 8.85965 774.86 1.23965L776.76 0.639648C778.12 3.57965 779.54 6.02965 781.06 8.14965C782.48 6.51965 783.62 4.77965 784.92 2.54965L789.11 5.15965C787.15 6.78965 784.76 8.52965 782.36 9.88965C783.5 11.1996 784.65 12.3396 785.95 13.3196C787.53 11.6896 789.11 9.72965 790.57 7.32965L794.7 10.0496C792.69 11.8496 790.08 13.5296 787.84 14.7296C790.94 16.6896 794.59 18.0996 799.1 19.2496L799.12 19.2596ZM776.7 34.2796C778.28 37.0596 780.18 39.1796 782.25 40.8097C783.83 38.7397 785.02 36.5696 785.84 34.2796H776.7Z" fill="#D08421"/>
<path d="M826.87 35.0404C822.3 38.4704 813.7 42.5004 808.37 44.2404L806.19 38.6904C808.97 38.2604 811.69 37.6604 814.41 36.9504V21.8804H807.93V19.4304H814.41V6.69043H807.28V4.24043H826.05V6.69043H819.09V19.4204H825.18V21.8704H819.09V35.6404C821.54 34.9304 823.88 34.1204 826.05 33.2504L826.87 35.0504V35.0404ZM852.28 49.7904C849.61 50.1704 847.17 50.1704 844.17 49.7904C841.01 49.4104 840.04 47.6104 840.04 44.6704V31.7204H837.75C837.37 42.3904 831.22 49.4604 819.47 51.6904L818.76 49.8404C828.88 46.7904 832.69 40.5404 832.96 31.7204H827.52V2.94043H850.65V31.7204H844.72V43.1504C844.72 44.5704 844.99 45.3304 846.57 45.5404C847.82 45.7004 848.96 45.7004 850.27 45.5404C852.23 45.3204 852.28 43.4204 852.12 36.2404H854.02C857.34 47.2904 855.54 49.3004 852.28 49.7904ZM832.09 11.3204H846.07V5.39043H832.09V11.3204ZM832.09 20.1904H846.07V13.6604H832.09V20.1904ZM832.09 29.2804H846.07V22.5304H832.09V29.2804Z" fill="#D08421"/>
<path d="M911.65 45.5397V48.5297H865.29V45.5397H886.08V31.7197H870.35V28.9997H886.08V17.1397H874.93C872.54 21.5997 869.6 25.5697 866.33 28.3997L864.86 27.1497C869.16 21.2697 872.42 13.1097 874.06 3.09969L879.61 4.67969C878.79 8.04969 877.65 11.3697 876.18 14.5297H886.08V0.929688H891.2V14.5297H908.01V17.1397H891.2V28.9997H906.71V31.7197H891.2V45.5397H911.66H911.65Z" fill="#D08421"/>
<path d="M927.86 23.5102C925.9 20.6302 921.82 16.1102 919.53 13.6602L920.67 11.9702C923.83 13.5502 928.5 16.4302 931.61 19.2602L927.86 23.5002V23.5102ZM930.47 25.9602L932.32 26.5602C931.23 33.2002 928.46 44.5202 926.66 50.1202L920.95 47.5102C923.94 41.6902 927.86 33.0902 930.47 25.9602ZM929.93 11.7002C927.7 8.71016 924.43 4.84016 922.09 2.29016L923.34 0.660156C926.28 2.13016 930.96 5.12016 933.73 7.73016L929.92 11.7002H929.93ZM953.44 20.1902V29.6002H965.14V50.9802H960.24V47.1702H941.79V51.2502H936.89V29.6002H948.32V20.1902H933.63V17.7402H948.32V9.14016C943.37 9.85016 938.74 10.3402 935.97 10.5002L935.59 8.49016C941.9 7.57016 954.04 4.68016 960.84 1.14016L965.74 5.55016C962.48 6.58016 958.01 7.56016 953.44 8.32016V17.7302H968.73V20.1802H953.44V20.1902ZM941.8 32.0502V44.6702H960.25V32.0502H941.8Z" fill="#D08421"/>
<path d="M978.9 47.0902C978.9 45.0802 979.55 43.3402 980.91 41.9202C982.32 40.4502 983.96 39.7402 985.86 39.7402C989.78 39.7402 992.82 43.0002 992.82 47.0902C992.82 51.1802 989.77 54.4402 985.86 54.4402C981.95 54.4402 978.9 51.1202 978.9 47.0902ZM990.16 47.0902C990.16 44.5902 988.26 42.5702 985.86 42.5702C983.46 42.5702 981.56 44.5802 981.56 47.0902C981.56 48.3402 981.99 49.3802 982.87 50.3002C983.69 51.1702 984.67 51.6102 985.86 51.6102C988.25 51.6102 990.16 49.6002 990.16 47.0902Z" fill="#D08421"/>
<path d="M579.56 149.071V152.521H556.75V150.111L569.07 137.551C573.06 133.461 574.98 131.001 574.98 127.701C574.98 124.201 572.96 121.201 568.87 121.201C564.48 121.201 562.37 123.911 561.87 128.691L561.82 129.181H557.58L557.63 128.691C558.32 121.591 562.56 117.851 569.36 117.851C576.16 117.851 579.71 122.141 579.71 127.211C579.71 131.841 577.2 135.001 571.43 140.661L562.91 149.081H579.56V149.071Z" fill="#221815"/>
<path d="M613.6 143.06C613.6 149.42 607.84 153.21 601.28 153.21C594.72 153.21 590.29 150.3 589.55 142.96L589.5 142.47H593.74L593.79 142.96C594.28 147.74 597.53 149.86 601.67 149.86C605.81 149.86 608.86 147.44 608.86 143.31C608.86 139.18 606.3 137.05 600.78 137.05H599.94V133.6H600.78C604.82 133.6 608.07 131.23 608.07 126.95C608.07 123.55 605.66 121.19 602.06 121.19C598.46 121.19 595.56 123.36 595.11 127.84L595.06 128.33H590.82L590.87 127.84C591.51 121.68 595.7 117.84 602.6 117.84C608.86 117.84 612.8 121.34 612.8 126.46C612.8 130.35 610.34 133.41 606.79 134.44C610.98 135.62 613.59 138.63 613.59 143.06H613.6Z" fill="#221815"/>
<path d="M645.52 134.98C645.52 139.22 643.75 141.53 640.1 141.53C638.18 141.53 636.95 140.89 634.38 139.51C632.56 138.52 631.13 137.79 629.75 137.79C627.88 137.79 627.34 139.22 627.34 141.53H624.58C624.58 137.29 626.35 134.98 630 134.98C631.92 134.98 633.15 135.62 635.71 137C637.53 137.99 638.96 138.72 640.34 138.72C642.21 138.72 642.75 137.29 642.75 134.98H645.51H645.52Z" fill="#221815"/>
<path d="M677 143.941V152.511H672.76V143.941H655.91V141.821L672.76 118.511H677V140.481H681.29V143.931H677V143.941ZM672.76 124.181C671.97 125.511 671.09 126.941 669.95 128.521L661.28 140.491H672.76V124.181Z" fill="#221815"/>
<path d="M713.56 149.071V152.521H690.75V150.111L703.07 137.551C707.06 133.461 708.98 131.001 708.98 127.701C708.98 124.201 706.96 121.201 702.87 121.201C698.48 121.201 696.37 123.911 695.87 128.691L695.82 129.181H691.58L691.63 128.691C692.32 121.591 696.56 117.851 703.36 117.851C710.16 117.851 713.71 122.141 713.71 127.211C713.71 131.841 711.2 135.001 705.43 140.661L696.91 149.081H713.56V149.071Z" fill="#221815"/>
<path d="M726.84 131.62V122.73H729.2V131.62H733.07V134H729.2V145.27C730.58 144.79 731.89 144.25 733.21 143.64V146.08C730.06 147.47 726.68 148.66 723.06 149.61L722.47 147.17C723.95 146.83 725.39 146.46 726.84 146.05V134H722.77V131.62H726.84ZM751.86 124.22V126.53H744.08V139.33H752.85V141.67H744.08V153.89H741.78V141.67H733.14V139.33H741.78V126.53H734.06V124.22H751.86ZM739.09 137.12L737.05 137.63C736.43 134.68 735.61 131.82 734.62 129.11L736.66 128.43C737.58 130.94 738.37 133.86 739.09 137.12ZM751.01 128.8C750.32 132.09 749.43 134.98 748.38 137.46L746.38 136.71C747.37 134.47 748.22 131.65 748.94 128.22L751.01 128.8Z" fill="#221815"/>
<path d="M776.69 155.1H774V115.32H776.69V155.1Z" fill="#D08421"/>
<path d="M822.66 149.071V152.521H799.85V150.111L812.17 137.551C816.16 133.461 818.08 131.001 818.08 127.701C818.08 124.201 816.06 121.201 811.97 121.201C807.58 121.201 805.47 123.911 804.97 128.691L804.92 129.181H800.68L800.73 128.691C801.42 121.591 805.66 117.851 812.46 117.851C819.26 117.851 822.81 122.141 822.81 127.211C822.81 131.841 820.3 135.001 814.53 140.661L806.01 149.081H822.66V149.071Z" fill="#221815"/>
<path d="M855.12 134.98C855.12 139.22 853.35 141.53 849.7 141.53C847.78 141.53 846.55 140.89 843.98 139.51C842.16 138.52 840.73 137.79 839.35 137.79C837.48 137.79 836.94 139.22 836.94 141.53H834.18C834.18 137.29 835.95 134.98 839.6 134.98C841.52 134.98 842.75 135.62 845.31 137C847.13 137.99 848.56 138.72 849.94 138.72C851.81 138.72 852.35 137.29 852.35 134.98H855.11H855.12Z" fill="#221815"/>
<path d="M886.6 143.941V152.511H882.36V143.941H865.51V141.821L882.36 118.511H886.6V140.481H890.89V143.931H886.6V143.941ZM882.36 124.181C881.57 125.511 880.69 126.941 879.55 128.521L870.88 140.491H882.36V124.181Z" fill="#221815"/>
<path d="M926.38 124.491C919.91 125.411 912.62 125.951 904.48 126.091V128.061H926.42V135.391H904.48V135.701C904.35 142.861 903.07 148.571 900.67 152.851L898.96 150.981C901 147.311 902.11 142.221 902.28 135.701V124.191C910.82 124.121 918.53 123.581 925.37 122.561L926.39 124.491H926.38ZM905.86 141.261V139.121H915.28C914.89 138.201 914.49 137.361 914.06 136.611L916.52 136.201C916.91 137.051 917.31 138.031 917.7 139.121H927.75V141.261H913.43C913.36 142.241 913.23 143.161 913.04 144.041H925.35C925.22 148.391 924.99 150.931 924.69 151.681C924.43 152.431 923.87 152.901 923.02 153.171C922.17 153.411 920.36 153.541 917.6 153.541H917.01L916.35 151.331C916.97 151.361 917.6 151.401 918.22 151.401C919.99 151.401 921.11 151.301 921.64 151.131C922.1 150.931 922.43 150.661 922.59 150.251C922.69 149.811 922.82 148.451 922.98 146.211H912.37C911.12 149.401 908.82 151.881 905.54 153.651L904.29 151.611C908.46 149.511 910.73 146.081 911.09 141.261H905.84H905.86ZM924.12 133.281V130.161H904.48V133.281H924.12Z" fill="#221815"/>
<path d="M952.79 155.1H950.1V115.32H952.79V155.1Z" fill="#D68F41"/>
<path d="M986.7 138.501C989.13 141.251 992.13 145.851 993.39 149.191L989.78 150.801C989.4 149.381 988.83 147.581 988.18 145.771C984.68 147.851 979.25 150.131 976.4 150.961L974.96 147.031L977.89 146.561V119.141H991.61V136.191H981.31V145.851C983.44 145.381 985.57 144.831 987.58 144.201C986.9 142.351 986.17 140.591 985.57 139.291L986.71 138.501H986.7ZM981.3 126.751H988.25V120.901H981.3V126.751ZM981.3 134.411H988.25V128.441H981.3V134.411ZM1007.1 119.161V143.951C1007.1 148.111 1002.27 147.881 998.4 145.361L998.74 144.031C1002.81 144.821 1003.76 144.541 1003.76 142.651V120.921H997.8V153.851H994.38V119.161H1007.11H1007.1Z" fill="#221815"/>
<path d="M1027.02 136.541V153.831H1023.75V138.581H1021.28C1021.17 145.501 1019.84 149.901 1016.11 153.471L1015.05 152.491C1017.25 149.271 1018.13 144.911 1018.24 138.581H1014.86V136.811H1023.75V130.481H1020.25V132.601H1017.13V118.261H1020.25V128.711H1023.75V117.121H1027.02V135.041C1034.39 132.681 1041.15 127.341 1043.13 121.921H1036.03L1035.35 122.671C1036.68 123.461 1038.05 124.481 1039.42 125.701L1037.25 127.941C1036.38 126.491 1035.31 125.151 1034.13 123.891C1033.45 124.521 1032.76 125.151 1032.08 125.701C1033.33 126.681 1034.55 127.861 1035.58 129.321L1033.03 131.241C1032.35 129.631 1031.62 128.141 1030.75 126.681C1029.8 127.351 1028.89 127.941 1028.09 128.411L1027.33 127.271C1030.37 124.951 1033.98 120.551 1035.39 116.471L1038.73 117.921C1038.35 118.711 1037.89 119.451 1037.4 120.161H1043.1L1043.82 119.571L1047.35 121.141C1044.2 129.191 1035.88 134.771 1027.02 136.541ZM1048.37 136.811V138.581H1044.42V149.821C1044.42 152.961 1041.11 156.261 1033.63 150.251L1034.12 148.951C1039.67 150.911 1041.15 150.401 1041.15 148.321V138.581H1027.74V136.811H1041.15V131.431H1044.42V136.811H1048.37ZM1034.58 147.421C1033.48 145.301 1031.46 142.121 1030.1 140.351L1030.97 139.291C1033.1 140.591 1035.99 143.141 1037.51 144.991L1034.59 147.431L1034.58 147.421Z" fill="#221815"/>
<path d="M1054.46 139.52L1053.66 138.34C1058.52 133.59 1061.83 127.81 1063.73 119.44L1067.76 121.09C1065.25 128.28 1060.54 135.39 1054.46 139.52ZM1085.54 150.8L1081.47 153.08C1080.82 151.27 1079.95 149.31 1079 147.27C1072.77 149.43 1064.3 151.04 1058.22 151.67L1056.93 147.07C1058.37 147.11 1059.97 147.11 1061.64 147.07C1064.34 142.67 1066.77 136.23 1068.18 130.69L1072.51 132.42C1070.31 137.72 1066.85 143.26 1063.77 147.04C1068.82 146.84 1074.22 146.41 1078.28 145.78C1077.25 143.7 1076.08 141.65 1074.86 139.65L1076 138.67C1080.03 142.6 1083.41 146.96 1085.54 150.81V150.8ZM1075.78 121.21H1069.66V119.44H1077.18C1078.43 127.34 1082.88 131.93 1088.31 134.8L1085.19 139.24C1080.4 135.51 1077.06 129.97 1075.77 121.2L1075.78 121.21Z" fill="#221815"/>
<path d="M1108.76 129.97H1098.69V153.62H1095.35V118.73H1108.76V129.97ZM1105.57 120.5H1098.69V123.37H1105.57V120.5ZM1105.57 125.14H1098.69V128.2H1105.57V125.14ZM1115.64 141.72V151.82H1112.45V141.72H1108.5C1107.89 147.53 1104.66 151.11 1100.98 152.76L1100.18 151.58C1102.95 149.46 1104.93 146.79 1105.31 141.72H1099.91V139.95H1105.38V134.88H1101.05V133.11H1120.09V134.88H1115.64V139.95H1121.26V141.72H1115.64ZM1112.45 139.95V134.88H1108.57L1108.61 139.56V139.95H1112.45ZM1125.52 118.73V148.94C1125.52 153.73 1121.91 154.68 1116.48 150.94L1116.93 149.56C1121.11 150.78 1122.17 150.58 1122.17 148.22V129.95H1112.29V118.71H1125.51L1125.52 118.73ZM1122.18 120.5H1115.49V123.37H1122.18V120.5ZM1122.18 125.14H1115.49V128.2H1122.18V125.14Z" fill="#221815"/>
</svg>
