<svg width="576" height="70" viewBox="0 0 576 70" fill="#FFF" xmlns="http://www.w3.org/2000/svg">
<path d="M67.1,0v10.9H40.9v58.8H26.3V10.9H0.1V0 M74.3,0h14.7v27.2h43.3V0h14.7v69.8h-14.7V38.1H88.9v31.7H74.3
	 M161.1,0h60.6v10.9h-45.9v17.6h44.1v11h-44.1v19.3h46.7v11h-61.4 M327.9,0v10.9h-26.2v58.8h-14.7V10.9h-26.2V0 M335.1,0h60.6v10.9
	h-45.9v17.6h44.1v11h-44.1v19.3h46.7v11H335 M430.6,0H448L479,69.8h-16.3l-7.3-17.3h-32.8l-7.2,17.3h-15.8 M451,41.5l-11.9-29.4
	l-12.1,29.4H451z M485.3,0h21.1l24.4,54.2L555.1,0H576v69.8h-13.8l0.6-57.7h-0.2l-25.8,57.7h-12.5l-25.6-57.7h-0.2l0.6,57.7h-13.8"
	/>
</svg>
