<svg width="265" height="152" viewBox="0 0 265 152" fill="#FFF" xmlns="http://www.w3.org/2000/svg">
<path opacity="0.4" d="M105.5,77.6v29.6l1.5,2V75.5L105.5,77.6z"/>
<path opacity="0.55" d="M104.3,105.6V79.3l-1.6,2.2v22L104.3,105.6z"/>
<path opacity="0.7" d="M101.4,101.9V83.3l-1.4,1.9v14.9L101.4,101.9z"/>
<path opacity="0.85" d="M98.8,98.5V86.9l-1.4,2v7.7L98.8,98.5z"/>
<path d="M237,95c1.8,0.3,3.1,0.8,3.1,0.8c-0.1-1.5,3.2-2.6,3.2-2.6c-2.6-1.4-5.6-1.1-8.1-0.4c-0.2-0.2-0.4-0.5-0.6-0.7
	c0.4-0.2,0.6-0.3,0.6-0.3c-0.3,0-0.6,0-0.9,0c-6.6-7.3-23.4-8.3-22.1,7.3c-8.5,6.9-11.6,16.2-11.6,16.2h13.2
	c0.4-2.7,1.2-5.1,2.4-7.3C224.9,123,251.3,118.9,237,95z M214.6,97.4c-0.6-7.8,6-14.1,16.9-5.6C223.6,92.3,218.6,94.7,214.6,97.4z
	 M218.1,105.1c4.4-6.2,11-10.1,14.6-12c0.1,0.2,0.3,0.4,0.4,0.5c-1.9,0.9-3.2,1.8-3.3,1.8c1.2-0.6,2.7-0.8,4-0.8
	C241.7,110.4,227.9,116.3,218.1,105.1z M229.8,95.4L229.8,95.4L229.8,95.4L229.8,95.4z M196.8,125.7c-0.3-0.3-0.9-0.7-1.3-1l0.4-0.5
	c0.5,0.3,1.1,0.7,1.4,0.9L196.8,125.7z M197.6,126.9c-0.4,0.8-0.8,1.8-1.2,2.5l-0.7-0.4c0.4-0.6,0.9-1.6,1.3-2.5L197.6,126.9z
	 M197.1,123.7c-0.3-0.3-0.8-0.8-1.2-1.1l0.5-0.4c0.4,0.3,1,0.7,1.3,1.1L197.1,123.7L197.1,123.7z M203,127.5v0.6h-2.7
	c-0.4,0.7-1.1,1.2-2.4,1.5c-0.1-0.1-0.3-0.4-0.4-0.6c1-0.2,1.6-0.5,2-0.9h-1.9v-0.6h2.2c0-0.1,0.1-0.3,0.1-0.5H198v-0.6h2V126H198
	v-1.6h1.9v-0.3h-1.3v-1h-1v-0.6h1v-0.6h0.7v0.6h1.7v-0.6h0.8v0.6h1v0.6h-1v1h-1.2v0.3h1.9v1.6h-1.9v0.4h2v0.6h-2.1
	c0,0.2,0,0.3-0.1,0.5C200.5,127.5,203,127.5,203,127.5z M199.9,125.5v-0.5h-1.2v0.5H199.9z M199.4,123.6h1.7v-0.5h-1.7V123.6z
	 M200.8,128.1c0.7,0.2,1.7,0.6,2.2,0.9l-0.4,0.6c-0.5-0.3-1.4-0.7-2.2-0.9L200.8,128.1L200.8,128.1z M200.6,124.9v0.5h1.2v-0.5
	H200.6z M211.6,124.6c-0.3,1.3-0.7,2.4-1.2,3.2c0.2,0.6,0.4,1,0.7,1c0.2,0,0.3-0.4,0.3-1.5c0.1,0.2,0.4,0.3,0.6,0.4
	c-0.1,1.4-0.4,1.8-1,1.8c-0.5,0-0.9-0.4-1.1-1c-0.4,0.4-0.7,0.8-1.2,1.1c-0.1-0.1-0.4-0.4-0.5-0.5c0.6-0.3,1.1-0.8,1.5-1.3
	c-0.3-1-0.4-2.4-0.5-3.9h-3.5c0,1.8,0.2,4-0.8,5.8c-0.1-0.1-0.4-0.4-0.6-0.5c1-1.8,0.6-4.1,0.7-6h4.2c0-0.4,0-0.8,0-1.2h0.8
	c0,0.4,0,0.8,0,1.2h1.3c-0.3-0.2-0.7-0.5-1.1-0.8l0.4-0.4c0.4,0.2,0.9,0.5,1.1,0.8l-0.4,0.4h0.6v0.7h-2c0,1.1,0.1,2.2,0.3,3
	c0.3-0.7,0.6-1.5,0.7-2.3L211.6,124.6L211.6,124.6z M208.2,128.7c-0.2-0.1-0.4-0.3-0.7-0.4c-0.4,0.5-1,0.8-1.8,1.1
	c-0.1-0.2-0.2-0.4-0.4-0.5c0.7-0.2,1.2-0.5,1.5-0.9c-0.4-0.2-0.8-0.4-1.1-0.6c0.1-0.3,0.3-0.6,0.4-0.9h-0.5v-0.5h0.7
	c0.1-0.3,0.2-0.6,0.2-0.8h-0.8v-0.6h2.9v0.6h-1.5c-0.1,0.3-0.1,0.6-0.3,0.8h0.8c0-0.1,0-0.3,0.1-0.5l0.7,0.1c0,0.1,0,0.3-0.1,0.4
	h0.3v0.5h-0.4c-0.1,0.5-0.3,1-0.5,1.3c0.3,0.2,0.6,0.4,0.8,0.5L208.2,128.7L208.2,128.7z M207,126.4c-0.1,0.2-0.2,0.5-0.3,0.7
	c0.2,0.1,0.5,0.3,0.7,0.4c0.2-0.3,0.3-0.7,0.4-1H207z M220.5,128.4v0.8h-7.2v-0.8h0.8v-5.2h-0.8v-0.7h6.9v0.7H215v1h4.6v3H215v1.2
	H220.5z M215,124.9v1.5h3.8v-1.5H215z M224.3,123.3c-0.1,0.2-0.1,0.4-0.2,0.5c0.3,0.4,0.7,0.6,1.2,0.7V123h-2.9v-0.6h6.1l0.1,0
	l0.5,0.1c-0.2,0.5-0.4,1.1-0.7,1.4l-0.6-0.1v0.4h-1.9v0.6c0.8,0,2.5,0,3.5,0c-0.1,0.1-0.2,0.5-0.3,0.7h-2.4c-1.5,0-2.4-0.1-3-0.9
	c-0.4,0.7-0.9,1.2-1.6,1.6c0-0.2-0.2-0.5-0.4-0.7c0.8-0.4,1.4-1.2,1.8-2.1L224.3,123.3z M227.7,127.9c0.6,0.4,1.4,1,1.8,1.3
	l-0.5,0.5c-0.2-0.2-0.4-0.4-0.7-0.6c-2.2,0.1-4.6,0.2-6.2,0.3l-0.1-0.7c0.8,0,2,0,3.2,0v-0.7h-2.5V126h2.5v-0.5h0.8v0.5h2.5v1.9
	L227.7,127.9L227.7,127.9z M225.4,127.3v-0.7h-1.8v0.7H225.4z M226.1,122.9v0.5h1.9v0c0.1-0.2,0.2-0.4,0.3-0.6H226.1z M226.1,126.6
	v0.7h1.8v-0.7H226.1z M227.6,128.6c-0.2-0.1-0.4-0.3-0.5-0.4l0.4-0.3h-1.3v0.7L227.6,128.6L227.6,128.6z M231.9,125.1v4.5h-0.8v-7.3
	h3.1v2.8H231.9z M231.9,122.9v0.5h1.6v-0.5H231.9z M233.5,124.5v-0.6h-1.6v0.6H233.5z M235.7,127.6v1.8H235v-1.8h-1
	c-0.1,0.5-0.3,1.4-1.1,1.9c-0.1-0.1-0.3-0.4-0.5-0.5c0.6-0.4,0.8-1,0.9-1.5h-0.9v-0.7h1v-0.8h-0.8v-0.6h4v0.6h-0.9v0.8h1v0.7
	C236.7,127.6,235.7,127.6,235.7,127.6z M235,127v-0.8h-1v0.8H235z M238,128.6c0,1-0.7,0.9-1.7,0.9c0-0.2-0.1-0.5-0.3-0.8
	c0.4,0,0.8,0,1,0c0.1,0,0.2,0,0.2-0.2v-3.5h-2.4v-2.8h3.2L238,128.6L238,128.6z M235.6,122.9v0.5h1.6v-0.5H235.6z M237.3,124.6V124
	h-1.6v0.6H237.3z M247,123.2c-0.3,0.3-0.7,0.6-1.1,0.9c0.4,0.2,0.8,0.4,1.3,0.5c-0.1,0.1-0.4,0.4-0.5,0.6c-0.4-0.1-0.8-0.3-1.1-0.5
	v0.9c0,0.2,0,0.3,0.1,0.3c0.3,0,0.7,0,0.9,0c0,0.1,0,0.4,0,0.5c-0.2,0.1-0.8,0-1.1,0c-0.6,0-0.7-0.2-0.7-0.8v-0.7h-1
	c0,0.6-0.1,1.2-0.9,1.7c-0.1-0.1-0.3-0.3-0.5-0.4v0.1h-1.7c0,0.3-0.1,0.5-0.1,0.7h1.8c0,0,0,0.2,0,0.3c-0.2,1.4-0.1,2-1,2.1
	c-0.2,0-0.7,0-1.1,0c0-0.2-0.1-0.5-0.2-0.7c0.4,0,0.9,0,1,0s0.2,0,0.3-0.1c0.1-0.1,0.2-0.4,0.3-1.1h-1.8c0.1-0.5,0.2-1.3,0.3-1.9
	h1.6v-0.8h-1.3v-0.1c-0.3,0.1-0.6,0.3-0.8,0.4c-0.1-0.2-0.3-0.4-0.4-0.6c0.5-0.1,1.1-0.4,1.5-0.7c-0.2-0.2-0.6-0.4-0.9-0.6l0.4-0.4
	c0.3,0.2,0.7,0.4,0.9,0.7c0.3-0.2,0.5-0.5,0.7-0.7h-1.8v-0.6h2.2l0.1,0l0.5,0.2c-0.4,0.8-0.9,1.5-1.6,2h1.2v1.8
	c0.9-0.5,0.7-1.1,0.7-1.8h1.8c-0.8-0.6-1.4-1.3-1.8-2.3l0.6-0.2c0.1,0.3,0.3,0.6,0.5,0.9c0.3-0.3,0.7-0.6,0.9-0.9l0.5,0.4
	c-0.4,0.3-0.8,0.7-1.1,0.9c0.2,0.2,0.3,0.3,0.5,0.4c0.4-0.3,0.8-0.7,1-0.9L247,123.2L247,123.2z M246.4,126.9
	c-0.2,0.6-0.6,1.1-1,1.5c0.4,0.3,0.8,0.5,1.1,0.7l-0.4,0.5c-0.3-0.2-0.7-0.5-1.2-0.8c-0.5,0.4-1.2,0.6-1.9,0.8
	c-0.1-0.2-0.2-0.4-0.3-0.5c0.6-0.1,1.1-0.3,1.6-0.5c-0.4-0.3-0.9-0.5-1.2-0.7l0.4-0.4h-0.3v-0.5h2.8l0.1,0L246.4,126.9L246.4,126.9z
	 M243.5,127.4c0.4,0.2,0.9,0.5,1.3,0.8c0.3-0.2,0.5-0.5,0.7-0.8H243.5z M105.5,109.2h1.5l-1.5-2V109.2z M102.7,103.5v5.7h1.6v-3.6
	L102.7,103.5z M100.1,100.1v9.2h1.4v-7.4L100.1,100.1z M97.4,96.6v12.7h1.4V98.5L97.4,96.6z M208.7,52.6c0,0,0.1,0.1,0,0.2l-1.2,5
	c-0.3,0.9,0.9,2.8-0.3,3.3c-0.2,0-0.3,0-0.5-0.2c-0.4-0.5,0-1.8-0.1-2.4c-0.1-0.3-0.3-0.5-0.6-0.6c0,0-0.1-0.1,0-0.1c0,0,0,0,0.1,0
	c0.2,0,0.5,0.1,0.6-0.1l1.8-4.9C208.7,52.6,208.7,52.6,208.7,52.6z M206.1,53.2C206.2,53.1,206.2,53.1,206.1,53.2
	c0.8,0.2,1.2,0.5,1.4,1.1c0.1,0.3,0,1-0.4,1.1c-0.4,0-0.6-0.2-0.6-0.8c0-0.5-0.1-1-0.4-1.3C206.1,53.3,206.1,53.2,206.1,53.2z
	 M206.9,50.6C206.9,50.5,206.9,50.5,206.9,50.6c0.8,0.1,1.3,0.5,1.5,1c0.1,0.3,0,1-0.3,1.1c-0.4,0.1-0.6-0.1-0.6-0.7
	c0-0.5-0.2-1-0.5-1.3C206.9,50.6,206.9,50.6,206.9,50.6L206.9,50.6z M211.3,59.6c-0.8,1.1-1.8,1.6-3.2,1.8c-0.1,0-0.1-0.1,0-0.2
	c1.3-0.5,2.2-1.4,2.8-2.8H209l-0.6,0.1c0,0-0.1,0-0.1,0c0-0.1-0.1-0.3-0.1-0.4c0,0,0-0.1,0.1,0l0.7,0.1h2c0.1-0.3,0.2-0.7,0.2-1
	h-1.6l-0.5,0.1c0,0-0.1,0-0.1,0c0-0.1-0.2-0.6,0-0.5l0.7,0.1h1.6c0-0.3,0-0.6,0-1H210c0,0.2,0,0.3-0.1,0.4c-0.2,0.1-0.5,0.2-0.7,0
	c0,0-0.1-0.2-0.1-0.3v-2.4c0-0.1,0-0.1,0-0.1c0.3,0.1,0.6,0.2,0.9,0.4h1.2v-0.9h-0.3c0.1,0.5-0.3,0.6-0.8,0.5
	c-0.1-0.1-0.2-0.2-0.2-0.3v-1.4h-0.6l-0.6,0.1c0,0-0.1,0-0.1,0c0-0.1-0.2-0.5,0-0.5l0.7,0.1h0.6v-1.3c0,0,0,0,0,0
	c0.3,0,0.5,0.1,0.8,0.1c0.2,0,0.3,0.1,0.3,0.2c-0.1,0.1-0.2,0.3-0.2,0.4v0.7h1.6v-1.3c0,0,0,0,0,0c0.3,0,0.5,0.1,0.8,0.1
	c0.2,0,0.3,0.1,0.3,0.2c-0.1,0.1-0.2,0.3-0.2,0.4v0.7c0.1,0,0.3,0,0.3-0.1c0.1-0.2,0.3-0.4,0.4-0.6c0,0,0.1,0,0.2,0
	c0.3,0.2,0.5,0.5,0.7,0.8c0,0,0,0.1,0,0.2c0,0-0.1,0.1-0.2,0.1h-1.5v1.3c0,0.2-0.1,0.3-0.2,0.3c-0.2,0.1-0.4,0.1-0.6,0
	c-0.2-0.1-0.2-0.3-0.2-0.4h-0.3v0.9h1.1c0.2,0,0.2-0.3,0.3-0.3c0,0,0,0,0.1,0c0.3,0.1,0.5,0.3,0.8,0.5c0.2,0.2,0.2,0.3-0.1,0.4
	c-0.1,0-0.1,0.1-0.1,0.2v1.1c0,0.3-0.2,0.4-0.5,0.4c0.2,0.2,0.5,0.5,0.5,0.8c0,0-0.1,0.1-0.2,0.1h-2.1c0,0.2-0.1,0.5-0.2,1h1.5
	c0.1,0,0.1,0,0.2-0.1c0.2-0.3,0.3-0.5,0.5-0.7c0,0,0.1,0,0.2,0c0.3,0.3,0.6,0.5,0.8,0.9c0,0,0,0.1,0,0.2c0,0-0.1,0.1-0.2,0.1H212
	c0.1,0.3,0.3,0.5,0.5,0.7c0.7,0.6,1.6,0.9,2.7,0.9c0.2,0,0.2,0.1,0.1,0.2c-0.3,0.2-0.5,0.6-0.5,1.1c0,0.1,0,0.1-0.1,0.1
	c-0.3,0-0.6-0.1-0.9-0.3c0,0,0,0,0,0c-0.9-0.5-1.5-1.3-1.8-2.4C211.6,59,211.4,59.3,211.3,59.6L211.3,59.6z M211.2,54.3h-1l-0.2,0
	v1.2h1.2V54.3z M212.5,52.8v-0.9h-1.6v0.9H212.5z M212.1,56.8h0.8c0,0,0.2-0.3,0.6-0.8c0-0.1,0-0.2,0-0.2h-1.3
	C212.1,56.2,212.1,56.5,212.1,56.8z M212.1,55.5h1.3v-1.2c0,0,0-0.1-0.1,0h-1.2L212.1,55.5L212.1,55.5z M221.7,60.9c0,0.6-1,0.6-1,0
	v-3.2c-0.2,0.4-0.5,0.7-0.7,1c-0.4,0.5-0.9,0.8-1.5,1.1c-0.5,0.2-1.6,0.7-1.4,0.3c1.6-0.8,2.8-2.2,3.7-4.5c0,0,0,0,0,0v-3h-3
	l-0.6,0.1c0,0-0.1,0-0.1,0c0-0.1-0.1-0.3-0.1-0.4c0,0,0-0.1,0.1,0l0.7,0.1h3v-1.8c0-0.1,0-0.2,0-0.2c0.3,0,0.6,0.1,1,0.2
	c0.3,0.1,0.3,0.4,0,0.5c0,0-0.1,0.1-0.1,0.2v1.2h2.2c0.1,0,0.1,0,0.2-0.1c0.2-0.3,0.3-0.5,0.5-0.8c0-0.1,0.1-0.1,0.2,0
	c0.2,0.1,1.3,1.2,0.8,1.2c0,0-3.8,0-3.8,0v3c0,0.2,0.1,0.3,0.2,0.5c0.1-0.2,0.3-0.4,0.4-0.7c0.3-0.6,0.5-1.3,0.7-2.3
	c0,0,0-0.1,0.1-0.1c0.3,0,0.6,0.1,0.9,0.3c0.3,0.1,0.3,0.4,0,0.4c0,0-0.2,0.3-0.4,0.8c0,0,0,0,0,0c0.8,0.2,1.3,0.5,1.6,1.2
	c0.2,0.3,0.2,0.9-0.1,1.1c-0.3,0.2-0.6,0-0.7-0.5c-0.2-0.7-0.5-1.2-1-1.5c-0.4,0.7-0.9,1.2-1.4,1.5c0.8,1.6,2.3,2.8,3.8,3
	c0.1,0,0.1,0.2,0,0.2c-0.4,0.1-0.7,0.5-0.9,1c0,0-0.1,0-0.1,0c-1.5-0.8-2.5-2.2-3-3.9L221.7,60.9L221.7,60.9z M217.3,57.1
	C217.3,57.1,217.2,57.1,217.3,57.1c-0.1,0-0.1-0.1-0.1-0.1c0.3-0.4,0.6-0.9,0.8-1.6c0.3-0.7,0.4-1.4,0.5-2.1c0,0,0-0.1,0.1-0.1
	c0.3,0,0.6,0.1,1,0.2c0.3,0,0.3,0.3,0,0.4c0,0-0.2,0.2-0.3,0.7c0.5,0.1,0.8,0.3,1.1,0.7c0.2,0.3,0.1,0.9-0.2,1c-0.2,0-0.3,0-0.4-0.1
	c-0.1-0.1-0.2-0.3-0.2-0.5c0-0.3-0.2-0.6-0.3-0.8C218.6,55.8,218,56.6,217.3,57.1L217.3,57.1z M231.1,59.8c-0.8,0.8-1.9,1.3-3.4,1.6
	c-0.1,0-0.1-0.2,0-0.2c1.3-0.4,2.3-1.1,2.9-2.1c0.2-0.3,0.4-0.9,0.5-1.6h-3.1l-0.6,0.1c0,0-0.1,0-0.1,0c0-0.1-0.1-0.3-0.1-0.4
	c0,0,0-0.1,0.1,0l0.7,0.1h3.1c0-0.3,0-0.6,0-1.1c0,0,0-0.1,0,0c0.3,0,0.7,0.1,1,0.2c0.3,0.1,0.3,0.3,0,0.4c0,0-0.1,0.2-0.2,0.5h2.5
	c0.1,0,0.1,0,0.2-0.1c0.2-0.3,0.3-0.5,0.5-0.8c0-0.1,0.1-0.1,0.2,0c0.3,0.3,0.6,0.6,0.9,1c0,0,0,0.1,0,0.2c0,0-0.1,0.1-0.2,0.1h-4.1
	c0.1,0.2,0.2,0.3,0.3,0.5c0.8,1.3,2.1,1.9,3.9,1.9c0.2,0,0.2,0.1,0.1,0.2c-0.3,0.2-0.5,0.6-0.6,1.1c0,0.1,0,0.1-0.1,0.1
	c-1.8-0.3-3.1-1.6-3.6-3.5C231.9,58.6,231.5,59.3,231.1,59.8L231.1,59.8z M231.4,54.1h-2.1l-0.6,0.1c-0.1,0-0.1,0-0.1,0
	c0-0.1-0.1-0.3-0.1-0.4c0,0,0-0.1,0.1,0l0.7,0.1h2.1v-1.3h-2.7l-0.5,0.1c-0.1,0-0.1,0-0.1,0c0-0.1-0.2-0.6,0-0.5l0.7,0.1h4
	c0.3-0.7,0.4-1.4,0.5-2c0-0.1,0-0.1,0.1-0.1c0.3,0.1,0.6,0.2,0.9,0.3c0.3,0,0.4,0.4,0.1,0.4c-0.1,0-0.2,0.1-0.2,0.2
	c-0.3,0.5-0.6,0.9-1.1,1.3h1.2c0.1,0,0.1,0,0.2-0.1c0.1-0.3,0.3-0.5,0.5-0.8c0-0.1,0.1-0.1,0.2,0c0.3,0.3,0.6,0.5,0.8,0.9
	c0.1,0.1,0.1,0.3-0.1,0.3c0,0-3.4,0-3.4,0v1.3h1.1c0.1,0,0.1,0,0.2-0.1c0.2-0.3,0.3-0.5,0.5-0.8c0,0,0.1-0.1,0.2,0
	c0.3,0.3,0.6,0.5,0.8,0.9c0.1,0.1,0.1,0.3-0.1,0.3c0,0-2.7,0-2.7,0v1.3h2.3c0.1,0,0.1,0,0.2-0.1c0.2-0.3,0.3-0.5,0.5-0.8
	c0-0.1,0.1-0.1,0.2,0c0.3,0.3,0.6,0.6,0.9,1c0.1,0.1,0,0.2-0.1,0.3c0,0-8,0-8,0l-0.5,0.1c-0.1,0-0.1,0-0.1,0c0-0.1-0.1-0.3-0.1-0.4
	c0,0,0-0.1,0.1,0l0.7,0.1h3.1L231.4,54.1L231.4,54.1z M229.4,50.2c0-0.1,0.2,0,0.4,0c0.5,0.1,0.9,0.4,1.2,0.8
	c0.1,0.3,0.2,0.9-0.2,1.1c-0.4,0.2-0.6,0-0.7-0.5C230,50.9,229.8,50.5,229.4,50.2C229.4,50.3,229.4,50.2,229.4,50.2L229.4,50.2z
	 M244,59c0.5-0.4,0.9-0.9,1.3-1.6c0,0,0,0,0.1,0c0.3,0.3,0.5,0.5,0.7,0.8c0.1,0.1,0.1,0.2,0,0.3c0,0-0.1,0-0.3,0c0,0-0.1,0-0.1,0
	c-0.5,0.4-1.1,0.7-1.7,0.8c0.8,0.6,1.8,0.8,2.9,0.7c0.2,0,0.2,0.2,0,0.2c-0.3,0.1-0.7,0.7-0.8,1c0,0.1-0.1,0.2-0.2,0.1
	c-1.4-0.5-2.4-1.3-3.1-2.5c-0.4-0.9-0.6-1.4-0.5-1.5h-1.5v2.4c0.7-0.1,1.4-0.3,2-0.4c0.2,0,0.1,0.1,0,0.2c-0.4,0.3-1.6,0.7-3.5,1.3
	c-0.2,0-0.3,0.1-0.3,0.2c0,0.2-0.2,0.2-0.3,0c-0.2-0.5-0.4-1.1-0.2-1.1c0.3,0,0.6,0,1.2-0.1V54c-0.6,0.3-1.2,0.6-1.7,0.8
	c-0.1,0-0.1-0.1,0-0.2c0.8-0.5,1.6-1.1,2.4-1.9c0.9-1.1,1.4-2,1.6-2.6c0,0,0,0,0.1,0c0.3,0.1,0.6,0.3,0.9,0.5c0.2,0.1,0.2,0.4,0,0.4
	c0.8,1.3,2.6,2.5,4.1,2.4c0.1,0,0.1,0.1,0,0.2c-0.2,0.1-0.3,0.3-0.4,0.5c-0.1,0.2-0.1,0.4-0.1,0.6c0,0.1,0,0.1-0.1,0.1
	c-1.7-0.4-3-2.2-3.7-3.7v0c-0.7,1.1-1.6,2-2.6,2.7c0.2,0.1,0.3,0.2,0.5,0.3h3c0,0,0.1,0,0.1-0.1c0.1-0.1,0.2-0.2,0.3-0.3
	c0,0,0.1,0,0.1,0c0.3,0.1,0.5,0.3,0.7,0.5c0.2,0.2,0,0.2-0.1,0.5v2.5c0,0.1,0,0.3-0.2,0.3c-0.2,0.1-0.4,0.1-0.6,0
	c-0.1-0.1-0.1-0.2-0.1-0.3h-1.4C243,58.1,243.4,58.6,244,59C243.9,59.1,244,59,244,59L244,59z M240.9,55.6h3.1v-1.2h-2.9l-0.1,0
	L240.9,55.6L240.9,55.6z M240.9,57.1h3.1v-1.1h-3.1V57.1z M242.4,53.1c0.1,0,0.2,0,0.2-0.1c0.1-0.2,0.2-0.4,0.4-0.6
	c0-0.1,0.1-0.1,0.2,0c0.2,0.2,0.4,0.4,0.5,0.8c0,0.1,0.1,0.2,0,0.3c0,0.1,0,0.1-0.1,0.1h-1.2l-0.6,0.1c0,0-0.1,0-0.1,0
	c0-0.1,0-0.3-0.1-0.4c0,0,0,0,0.1,0L242.4,53.1L242.4,53.1z M170.1,4.3c1.2,2.4-0.7,3.7-2.1,5.3c-2.9,3.9-4.8,8.4-4.9,13.4
	c0,0.3-0.4,0.6-0.7,0.7c-1.6,0.1-3.2,0.1-4.8,0c-0.3,0-0.7-0.3-0.8-0.6c-0.3-5.5-2.3-10.3-5.9-14.4c-3-2-1.4-6.9,2.3-5.3
	c3.9,3.7,5.7,12.8,6,18.3c0.4,0.4,1.1,0.3,1.6,0.1l0.1-0.4c0.3-5.8,1.5-11.3,4.1-16.1C165.8,3.1,168.7,2,170.1,4.3z M175.7,9.1
	c2,2.8-0.8,4-2.7,5.4c-7.2,5.6-7,15.1,0.3,20.6c1.3,1,3.7,1.8,3.2,4c-0.3,1.5-2,2.5-3.5,1.7c-9.9-6.7-10.4-23.7-1.4-31.4
	C173,8.4,174.1,7.7,175.7,9.1z M149.4,10.6c7.7,8,7.2,24.2-2.6,30.3c-1.7,0.6-3.5-0.8-3.3-2.5c0.1-2,2.2-2.3,3.3-3.4
	c8.3-6.5,6.6-17.2-2.4-22.1C141.4,10,145.3,5.9,149.4,10.6z M179.9,15.6c1.6,3.6-2.7,3.2-4.7,4.5c-4.8,2.8-3.7,7.8,1.1,9.7
	c1.3,0.8,3.7,0.3,3.9,2.5c0,3.1-3.2,2.4-5,1.3c-8.5-4.6-6.7-16.6,2.5-19.1C178.7,14.5,179.5,14.9,179.9,15.6z M144.1,15.6
	c7.9,3.8,7.8,14.8-0.1,18.5c-1.7,1.1-4.5,1.1-4.3-1.6c0.1-2.1,2.4-1.8,3.7-2.5c7.7-3.2,4.2-10.2-2.7-11.2c-1.6-0.8-1.4-3.4,0.3-4
	C142,14.4,143,15.2,144.1,15.6L144.1,15.6z M162.4,25.8c0.3,0,0.5,0.3,0.6,0.6c0.4,6,2.8,11.2,7,15.5c1.9,2.4-1.4,6.2-3.9,3.8
	c-3.8-5.1-5-11.6-5.5-17.9l-0.3-0.2c-0.5,0-1.1-0.3-1.4,0.2c-0.3,5.9-1.6,11.5-4.3,16.4c-2.9,5.2-8.8,0.2-2.9-4.8
	c2.8-3.8,4.6-8.2,4.8-13.1c0.1-0.4,0.5-0.6,0.8-0.7L162.4,25.8z M236.9,4.3c1.2,2.4-0.7,3.7-2.1,5.3c-2.9,3.9-4.8,8.4-4.9,13.4
	c0,0.3-0.4,0.6-0.7,0.7c-1.6,0.1-3.2,0.1-4.8,0c-0.3,0-0.6-0.3-0.8-0.6c-0.3-5.5-2.3-10.3-5.9-14.4c-3-2-1.4-6.9,2.3-5.3
	c3.9,3.7,5.7,12.8,6,18.3c0.4,0.4,1.1,0.3,1.6,0.1l0.1-0.4c0.3-5.8,1.5-11.3,4.1-16.1C232.7,3.1,235.5,2,236.9,4.3z M242.5,9.1
	c2,2.8-0.8,4-2.7,5.4c-7.2,5.6-7,15.1,0.3,20.6c1.3,1,3.7,1.8,3.2,4c-0.3,1.5-2,2.5-3.5,1.7c-9.9-6.7-10.4-23.7-1.4-31.4
	C239.8,8.4,241,7.7,242.5,9.1z M216.2,10.6c7.7,8,7.2,24.2-2.6,30.3c-1.7,0.6-3.5-0.8-3.3-2.5c0.1-2,2.2-2.3,3.3-3.4
	c8.3-6.5,6.6-17.2-2.4-22.1C208.3,10,212.2,5.9,216.2,10.6z M246.8,15.6c1.6,3.6-2.7,3.2-4.6,4.5c-4.8,2.8-3.7,7.8,1.1,9.7
	c1.3,0.8,3.7,0.3,3.9,2.5c0,3.1-3.2,2.4-5,1.3c-8.5-4.6-6.7-16.6,2.5-19.1C245.6,14.5,246.3,14.9,246.8,15.6z M210.9,15.6
	c7.9,3.8,7.8,14.8-0.1,18.5c-1.7,1.1-4.5,1.1-4.3-1.6c0.1-2.1,2.4-1.8,3.7-2.5c7.7-3.2,4.2-10.2-2.7-11.2c-1.6-0.8-1.4-3.4,0.3-4
	C208.9,14.4,209.9,15.2,210.9,15.6L210.9,15.6z M229.3,25.8c0.3,0,0.5,0.3,0.6,0.6c0.4,6,2.8,11.2,7,15.5c1.9,2.4-1.4,6.2-3.9,3.8
	c-3.8-5.1-5-11.6-5.5-17.9l-0.3-0.2c-0.5,0-1.1-0.3-1.4,0.2c-0.3,5.9-1.6,11.5-4.3,16.4c-2.9,5.2-8.8,0.2-2.9-4.8
	c2.8-3.8,4.6-8.2,4.8-13.1c0.1-0.4,0.5-0.6,0.8-0.7L229.3,25.8z M153.9,59.7c0-0.1,0-0.2,0.1-0.3l0,0c-0.3-0.5-1.6-0.4-2.1-1.1
	c-0.4-0.8-3.9-1.8-1.2-2l0,0c1-0.2,1.3-1,0-0.7c-0.3-0.1,0-0.6-0.3-0.8c-0.4-0.2-0.4,0.7-0.8,0.6c-0.3-1.3,0.1-1,1.2-1
	c2-0.2,0-1.2-1.1-0.9c-0.6-0.5,1.3-1.6-0.4-1.7c-1.3,0,0.1,1-0.4,1.6c-0.5,0-1.1,0-1.6,0c-0.3-0.3-0.5,0-0.8,0.1
	c-1.7,1.4,1.2,0.7,2,0.8h0c0.5,0,0.4,1,0.1,1.2c-0.3,0-0.6,0.3-0.9,0.1c-0.1-0.3,0-0.9-0.6-0.8c-0.1,0.4-0.3,0.9-0.8,1
	c-1.1,1.6,1.5,0.3,2.2,0.5c-0.3,1.3-2.2,2.5-3.5,3.2c-0.5,0-0.7,0.5-0.4,0.8c1.5,0.1,2.1-1.6,3.2-2.3c0.8-1.4,0.9,0,0.9,0.8
	c-0.1,0.7-0.4,3.5,0.7,1.9c0-0.6-0.5-2.7,0-2.9c1,0.5,1.7,1.5,2.4,2.4c0.6,0,1.4-0.3,1.8-0.6C153.8,59.8,153.9,59.9,153.9,59.7
	L153.9,59.7z M137.7,53.4c-0.2-1.3-1.6-1.3-0.7-0.1c-0.4,0.3-1-0.1-1.3,0.2c0,0.3-0.4,0.7,0,0.8l0,0c2.8-0.6,0.8,1,2.2,0.9
	C137.8,54.6,137.7,53.9,137.7,53.4L137.7,53.4z M183.9,53.6c0.7,0.3,1.9-0.1,2.7,0c-0.2-0.2,0-0.8-0.4-0.8
	C185.3,52.8,183.4,51.9,183.9,53.6L183.9,53.6z M164.5,59c0-0.3-0.3,0.1-0.4-0.3c-0.5-0.4-3.2-2.3-2.9-2.7c0.8,0,2.1,0,1.6-1.2
	c-0.6-0.3-1.3,0.1-2,0c-0.5-0.5,0.4-2.4-0.9-1.9v0c-0.6,0.6,0.2,1.3-0.3,2c0,0.1-0.9,0-1,0.1c-0.3-0.3-1.4-0.2-1.5,0.4
	c-1.1,2.8,4.4-1.9,1.2,2.4v0c-0.5,0.6-1.2,1.3-2.1,1.4c-0.9,2.6,2.8-0.8,3.1-1.7v0c0.8-1.6,2.3,1.2,2.8,1.8c0.6,0.4,0.5,1.5,1.3,1.3
	c0.5,0,0.9,0.1,1.4-0.1l0,0c0.2-0.1,0.5,0.1,0.7,0h0C167.5,59.5,165.1,59.7,164.5,59L164.5,59z M133.6,54.4c0,0.1,0.2,0.2,0.3,0.2
	c0.5-0.1,0.8-0.2,1.2-0.4c0.2-0.4-0.5-0.3-0.7-0.3C133.9,53.6,133.3,53.7,133.6,54.4z M134.9,55.4c-0.5,0.5-1.4,0.2-2,0.2
	c-0.2-0.3-0.4-0.2-0.7,0c-0.1,0.2-0.3,0.9,0.2,0.9C133,56,135.1,56.6,134.9,55.4z M139.2,54.6c0.2-0.9,1.7,0.1,2-0.5
	c0.3,0.3,0.3-0.3,0.3-0.4c-0.6,0-2.2,0.1-1.8-0.9v0c0.2-0.3,0.1-1.1-0.3-0.9c-0.5,0.4-0.2,1.1-0.5,1.6v0c0,0.5-0.6,1.3,0,1.7
	C139,55.1,139.1,54.9,139.2,54.6L139.2,54.6z M138.8,55.3c-3,0.6-3.3-1-2.2,2.5c0.3-0.4,1.8-0.7,1.3,0c-0.5-0.2-1.1,0.1-0.7,0.6
	c0.3,0.1,0.5-0.3,0.8,0c0.2,0.8-2.5,0-2.8,1.1l0,0c-1.1,1.4,4-0.9,5.3,0.3c0.4,0.2,0.8,0,0.9-0.3c0.5-0.3,0-1-0.3-0.6
	c-0.4,0-3.1,0.2-2.4-0.5c0.3,0,0.8-0.1,0.7-0.5c-0.1-0.3-1.1,0.2-0.8-0.5c0.4-0.2,1,0.2,1.2-0.3c-0.2-0.7,1-1.6,0.4-2l0,0
	C140,55.2,139.4,55.5,138.8,55.3L138.8,55.3z M138,56.7c-0.5,0.2-0.9,0.2-0.9-0.5C137.5,56.1,138.2,56,138,56.7L138,56.7z
	 M139.1,55.9L139.1,55.9L139.1,55.9c0.5-0.2,0.5,0.5,0.3,0.8C138.7,57.1,138.5,56,139.1,55.9L139.1,55.9z M135.5,57.1
	c0-0.9-1.6,0.5-2.2,0.3C132.3,59.5,135.4,58,135.5,57.1L135.5,57.1z M177.7,60.1c-0.7,0-1.3-0.4-1.8-1.1v0c-1.5-0.9,1.2-2.3,0.4-3.2
	c-0.7-0.3-2.5,0.4-2.4-0.6l0,0c-0.1-1.4,2.7,0,2.7-1.3c-0.3-0.3-1-0.1-1.4,0c-0.5-0.1-1-0.1-1.5-0.3c-0.5,0-0.5,0.9-1.2,0.7
	c-0.5-0.5-1.5-1.1-1.8-1.7c-0.7-0.9-1.7,2.6-2.6,2.7c-1.1,0.6,1,1,1.1-0.1c0-0.1,0.1-0.2,0.3-0.3c0.6-1.3,1.1-1.5,2.1-0.3
	c-0.5,0.3-1.5-0.3-1.9,0.3c-0.5,1.4,0.4,0.6,1.2,0.7l0,0c0.7,0,1.1,0,0.7-0.8c0,0,0.1-0.1,0.1-0.1c0.4,0.1,0.6,0.9,1,0.7
	c0.1-0.1,0.3-0.2,0.4,0c0.3,0.9,0.3,3.8-1.1,3.2c0.5-0.4,0.4-1.2,0.6-1.9c-0.1-0.3,0.3-0.5,0.2-0.7c-0.3,0-0.5-0.3-0.8-0.2
	c-0.4,0.5-1.1,0.1-1.6,0.4c-2-0.2-0.6,1.9-0.8,3c0.3,0.7-0.8,1.5,0.1,1.8c1.6-0.4,4.6-1.6,0.6-1.1c-0.8-0.5,1.9-0.9,2.2-0.5
	c0.4,0.1,0.8-0.5,1-0.8c1-1.4,1.4,1.5-0.8,1.4c-1.2,2.2,1.7,0.1,2.1-0.7c0.4,0.1,0.6,0.7,0.8,1.1l0,0c0.2,0.9,1.2,0.1,1.9,0.2
	C177.9,60.9,178.7,60,177.7,60.1z M170.3,57.1C172.9,56.5,170.8,58.2,170.3,57.1C170.2,57.1,170.3,57.1,170.3,57.1z M170.9,59
	L170.9,59C169.3,59.2,170.9,58.2,170.9,59L170.9,59z M171.2,58.3c-0.3-0.4-0.8,0.5-1.1,0C170.1,57.6,172.2,57.7,171.2,58.3z
	 M172,58.8c-0.1,0.3-0.4,0-0.5,0.2C171,58.7,171.9,58.3,172,58.8z M175.3,57.3c0,0.1-0.2,0.5-0.4,0.3c-0.1-0.4-0.8-0.2-0.7-0.7
	C174.5,56.5,175.8,56.5,175.3,57.3z M185.2,55c0.9,0,1.8-0.1,2.6,0.1c-0.3-0.2,0-0.6-0.4-0.8s-0.6,0.3-1,0.1c-1.2-0.2-2.4,0-3.6-0.2
	c-1.3-0.7-1,1.1-0.8,1.8c1,4.4-2.5,3.5-2.4,4.4c2.4,0.6,3.5-2.9,2.9-4.8C182.7,54.4,184.3,55.2,185.2,55z M184.9,55.1
	c-0.8,0.3-0.2,0.7-0.3,1.3c-0.1,0.5,0.1,1.1-0.1,1.5c-0.1,0,0,0.2-0.1,0.2c-2.4-0.2-1.2,0.6-1.2,2.1c-0.1,2.3,1.2,0.3,3.9,1.2
	c0-2.8,2.2-3.6-1.2-3.4h0c-0.1,0-0.2-0.1-0.2-0.2v0c0-1.9,3.1,0.1,2.7-1.3v0c0-0.2,0.5-0.4,0.2-0.6c0.1,0,0.3-0.2,0.2-0.3
	c-0.5,0.9-2,0.4-2.9,0.5C185.4,55.6,185.8,55.5,184.9,55.1z M186.2,59.1c0.3,1.1-1,1.7-1.9,1.1C183.4,58.9,185.3,58.6,186.2,59.1z
	 M140.1,60.2c-0.3,0-1.3-0.7-1,0.2C139.1,61.4,140.1,60.7,140.1,60.2z M137.1,60.3c-1-0.2-0.8,1.1,0,0.8h0c0.4-0.1,0.5-0.5,0.5-0.8
	C137.4,60.3,137.3,60.3,137.1,60.3z M20.3,112.2c-0.1,0.1-0.2,0.1-0.3,0.2c-1,0.8-2.1-0.1-2.2-1c-0.1-0.9,0.2-1.6,0.7-2.2
	c-0.6,0.2-1.3,0.1-1.6,0.6c-0.5,0.9-0.9,1.7-1.3,2.6c-0.1,0.3-0.3,0.4-0.6,0.3c-0.4-0.2-0.9-0.4-1.3-0.7c-0.3-0.2-0.3-0.4-0.1-0.7
	c0.3-0.5,0.6-1,0.9-1.5c-0.8,0-1.5-0.1-2.2-0.1c-1.6,0.7-3,1.8-4.5,2.6c-1,0.6-2.4-0.1-3-1c-0.2-0.3-0.1-0.5,0.3-0.6
	c1.5-0.5,3-0.9,4.5-1.5c-1-0.5-2.8-0.3-2.9-1.7c-0.2-1.4,0.1-1.7,1.5-1.6c1.2,0.1,2.6,0.3,3.5,1.2c-0.8,0-1.5,0.1-2.2,0.1l0,0.2
	c0.8,0.3,1.6,0.5,2.5,0.7c0.1,0,0.3-0.1,0.3-0.1c2.9-1.6,5.6-3.6,8-6.1c0.8-0.9,2.1,1.2,1.3,1.8c-1.4,1.4-2.5,2.9-3.5,4.5
	c0,0,0,0.1-0.1,0.1c0,0,0,0.1,0.1,0.1c1.6-0.6,3.1-1.4,4.6-2.2c0.3-0.2,0.6-0.1,1,0.1c0.7,0.5,1,1.2,0.8,2c0.4,0.6,0.1,1.1-0.3,1.6
	c-0.3,0.3-0.6,0.7-1,1.2c0.6-0.3,1-0.5,1.4-1c0.7-1,1.5-2,2.2-3c0.1-0.1,0.3-0.2,0.4-0.2c0.6,0.3,1.7,0.9,0.9,1.6
	c-0.8,0.9-1.5,1.6-2.2,2.6c1.3-0.5,2.4-1.3,3.2-2.5c0.2-0.4,0.6-0.8,0.8-1.2c0.4-0.6,1.1,0.1,1.4,0.4c0.3,0.3,0.3,0.6,0,1
	c-0.6,0.8-1.2,1.6-1.8,2.5c0.5-0.3,1-0.3,1.3-1c0.9-1.8,2.7-3.2,4.6-3.9c1.2-0.6,2.4,0.7,2.1,1.9c0.5,0.3,0.8,0.7,0.3,1.2
	c-0.6,0.7-1.3,1.3-1.9,2.1c0.5-0.2,1-0.3,1.3-0.8c0.6-0.8,1.3-1.4,2.4-1.6c-0.1-0.6-0.2-1.2,0.3-1.6c0.6-0.5,1.2-1,1.8-1.5
	c0.7-0.6,1.7,0.7,1.2,1.3c-0.5,0.6-1,1.1-1.6,1.6c0.4,0.3,0.8,0.6,1.3,0.8c0.5,0.2,0.3,0.7,0.1,1.1c-0.2,2.9,3.9-2.2,4.5,0.8
	c0.3,2.2-2.3,3.4-4.1,3.5c-7.5,0.4-15,0.6-22.5,0.9c0.4-0.5,0.7-1,1-1.4c0.1-0.1,0.3-0.1,0.4-0.1c6.9-0.2,13.7-0.4,20.6-0.7
	c3.2,0,4.4-2.9,2.2-1.9c-0.9,0.5-2,1.2-2.7,0.2c-0.9,0.5-1.7,1-2.6,1.3c-1.1,0.4-1.2,0.5-1.9-0.7c-0.2-0.3-0.3-0.5-0.4-0.8
	c-0.6,0.3-1.1,0.7-1.6,1c-0.7,0.3-1.6-0.3-1.6-1c-1.1,1.2-2.4,1.2-3.1-0.3c-0.5,0.3-1,0.7-1.5,1c-0.6,0.3-1.5,0.1-1.9-0.5
	c-0.2-0.3,0-0.6,0.2-1c-0.6,0.4-1.2,0.7-1.8,1.1c-0.8,0.6-1.3-0.3-1.6-0.9c-0.7,0.3-1.4,0.7-2.1,1.1c-2,2.9-3.7,6-5.8,8.9
	c-0.2,0.4-0.5,0.3-0.8,0.1c-0.6-0.4-0.8-1-0.3-1.6c1.9-2.7,3.7-5.3,5.5-8C20.3,112.2,20.3,112.2,20.3,112.2L20.3,112.2z M22.9,108.2
	c-1.4,0.1-3.4,2.2-3.4,3.4c1-0.3,1.7-1,2.5-1.8h-0.5C22,109.3,22.4,108.7,22.9,108.2L22.9,108.2z M32.4,112.1
	c0.8-0.3,1.5-0.9,2.1-1.5c-0.2,0-0.3,0-0.4-0.1c0.6-0.6,1.1-1.3,1.7-2C34.3,108.7,32.2,110.9,32.4,112.1z M17.6,105.6
	C17.6,105.6,17.5,105.6,17.6,105.6c-1.3,0.9-2.5,1.8-3.8,2.9c0.5,0,1,0.1,1.3,0.1c0.1,0,0.2-0.1,0.3-0.1
	C16.1,107.5,16.8,106.6,17.6,105.6L17.6,105.6z M39.4,110.1c-0.3,0.6-0.6,1.3-0.8,1.9c0,0,0.1,0.1,0.1,0.1c0.6-0.2,1.2-0.3,1.9-0.5
	C40.1,111.1,39.8,110.6,39.4,110.1L39.4,110.1z M33.5,86.4c-0.5-0.2-0.9-0.5-1.4-0.4c-0.4,0.2-0.9,0.1-1.3,0c-0.1,0-0.4,0.1-0.4,0.3
	c-0.2,0.5-0.3,1-0.5,1.6c-0.1,0.5,0,0.8,0.6,1.1c0.3-0.3,0.6-0.4,1-0.2c0.5,0.2,0.8,0.2,1.2-0.3c0.3-0.3,0.4-0.6,0.8-0.6
	c0.5,1.3,0.6,2.5,0.2,3.8c-0.3,1-0.6,1.9-1,2.9c-0.6,1.7-1.6,3-3.1,4.1c-0.6,0.5-1.2,0.5-1.9,0.3c-2.1-0.6-3.8-1.8-5.2-3.4
	c-1.4-1.8-1.6-4.2-1.9-6.4c0-0.1,0-0.2,0-0.3c0.5-1.2,0.9-2.4,1.5-3.6c0.6-1.2,1.6-1.9,2.7-2.7c0.1-0.1,0.3,0,0.4,0.1
	c1.2,0.8,2.4,1.6,3.6,2.4c0.3,0.3,0.6,0.3,1,0c0.8-0.7,1.6-1.3,2.3-2c0.3-0.3,0.4-0.3,0.6,0.1c0.3,0.9,0.6,1.7,0.9,2.6
	C33.6,85.8,33.5,86.1,33.5,86.4L33.5,86.4z M27.7,89c0-1-0.1-1.8-0.4-2.6c-0.1-0.3-0.3-0.5-0.6-0.3c-0.5,0.1-1.1-0.2-1.6-0.3
	c-1.3-0.3-2.3,0-3.2,0.9c-0.4,0.3-0.5,0.6-0.4,1c0.6-0.3,1.2-0.5,1.8-0.8c0,0,0,0,0,0.1c-0.3,0.3-0.5,0.6-0.7,1
	c1.2,0.5,2.4,1.3,3.7,0.7C26.8,88.2,27.2,88.6,27.7,89L27.7,89z M30.7,94.7c0-0.7-0.6-1.2-1.2-1c-0.1,0-0.3,0.1-0.4,0
	c-0.9-0.3-2.3,0.3-2.9,1.1c0.2,0,0.3,0,0.5,0c0.8-0.3,1.6-0.5,2.4-0.2c0,0,0.1,0,0.2,0C29.7,94.4,30.2,94.4,30.7,94.7L30.7,94.7z
	 M30.4,91.4c-0.4,0.1-0.8,0.2-1.1,0.2c-0.4,0-0.9-0.2-1.3-0.3c-0.3-0.1-0.5,0-0.5,0.3c0,0.5,0.6,0.6,1,0.9c0.6,0.3,0.6,0.3,1.2,0
	C29.9,92.1,30.3,91.8,30.4,91.4z M30.2,95.9c-1,0-1.9-0.1-2.9-0.2C28.1,96.7,29.4,97,30.2,95.9L30.2,95.9z M38.8,98.3
	c-1-2.2-1.3-4.5-1.6-6.8c-0.1-2.4,0.7-4.8,0.6-7.2c0-1.5-0.8-2.7-1.4-4c3.4,0,6.8,0,10.3,0c0.6,0,0.9,0.5,0.6,1c-0.5,1-1,2-1.5,3
	C43.5,88.9,41.1,93.6,38.8,98.3z M14.9,80.3c-1.3,2.4-2.3,4.9-2.7,7.7c-0.5,2.2-1.8,3.9-2.8,5.9c-2.2-4.1-4.2-8.3-6.2-12.4
	c-0.4-0.8-0.2-1.2,0.7-1.2C7.6,80.3,11.3,80.3,14.9,80.3z M14.6,85.7c0.7-3.6,2.7-6.5,5.1-9c1.9-2.2,5.3-0.6,6.6,1.6c0,0,0,0-0.1,0
	c-0.8-0.4-1.5-0.3-2.3,0.1c-1.1,0.5-1.9,1.2-2.2,2.4c-1,3-2.7,6-5.9,7.2c-0.7,0.3-1.5,0.6-2.2,0.9c0-0.6,0.2-1,0.7-1.2
	c2.7-1.3,4.5-3.8,4.6-6.8C17.8,82.8,16.4,84.4,14.6,85.7L14.6,85.7z M23.5,98.9c1.9,2.5,3.1,3.2,6.1,1.9c-1.4,1.6-1.1,3.7-1.1,5.6
	c-1.1-0.2-2.3-0.6-3,0.6c-0.6-0.8-1.3-1.6-1.4-2.6c-0.3-1.6-0.5-3.1-0.7-4.7c0-0.3,0-0.6,0-0.9C23.4,98.9,23.5,98.9,23.5,98.9z
	 M31.4,106.8c-1-0.3-1-0.3-1.2-1.3c-0.2-1.3,0-2.4,0.5-3.5c0.3-0.6,1-1.3,1.6-1.7c1.1-0.9,1.8-2,1.9-3.4c0.1-1.2,0.6-2.3,1.2-3.4
	c0.3,1.3,0.6,2.6,0.8,4c0.2,1-0.4,1.9-1,2.7c0,0-0.1,0.1-0.1,0.2c-0.4,0.9-1.2,1.3-2,1.8C31.2,103.2,31.1,104.6,31.4,106.8
	L31.4,106.8z M11.7,94.8c1.6-0.6,2.9-1.9,4.3-3c0.9-0.7,1.6-1.5,2.5-2.2c0.1-0.1,0.3-0.2,0.5-0.3c0,0.2-0.1,0.3-0.2,0.5
	c-0.8,1.3-1.6,2.6-2.5,3.9c-0.6,0.9-1.5,1.3-2.5,1.7c-1,0.4-2,0.8-3.1,1.2c-0.1-0.4-0.6-0.9-0.4-1.3c1.1-1.6,1.9-3.3,2.6-5.1
	c0-0.1,0.2-0.3,0.3-0.3c0.2,1.9-0.5,3.4-1.7,4.8C11.7,94.7,11.7,94.7,11.7,94.8L11.7,94.8z M5.9,117.2c-1-0.3-1.9-0.5-2.8-0.7
	c0,0,0-0.1,0-0.2c0.9-0.3,1.7-0.6,2.6-0.9c0,0,0.1,0.1,0.1,0.1c-0.1,0.6-0.1,0.6,0.6,0.5c3.8-0.4,7.4-1.2,11.3-1
	c-0.3,0.4-0.5,0.7-0.6,1c-0.2,0.4-0.5,0.5-0.9,0.5c-0.5,0-1.1,0.3-1.4-0.4c-0.3-0.5-0.7-0.6-1.2-0.3c-0.2,0.1-0.4,0.3-0.6,0.5
	c-0.3,0.4-0.7,0.5-1.3,0.5c-1.8-0.1-3.5-0.2-5.3-0.3C5.8,116.6,5.7,116.6,5.9,117.2L5.9,117.2z M31.7,82.6c-0.4,0.2-0.7,0.4-1.2,0.6
	c-0.4-1-0.7-1.7-1.1-2.8c-0.5,0.9-0.9,1.7-1.3,2.6c-0.6-0.3-1.1-0.6-1.7-1c1-1.6,1.9-3.2,2.9-4.9C30.1,79.1,30.9,80.8,31.7,82.6
	L31.7,82.6z M7.4,118.8c0.2,0.3,0.3,0.6,0.6,1c-0.4,0-2.2-1.5-2.3-1.9c2.9,0.2,6.4,1.3,8.2-1.8c0.1-0.1,0.5-0.1,0.6,0
	c0.2,0.1,0.3,0.4,0.3,0.6C13.8,120.1,10,119.7,7.4,118.8L7.4,118.8z M32.8,77.5c-0.7-0.1-1.5-0.2-2.2-0.3c-0.5-0.1-0.6-0.6-0.9-0.9
	c-0.1-0.1-0.2-0.3-0.3-0.4c-0.2,0.2-0.3,0.4-0.4,0.6c-0.2,0.4-0.4,0.5-0.8,0.3c-1.4-0.6-2.6-1.2-3.9-1.9c1.1-0.4,2.2-0.5,3.3-0.2
	C29.5,75.2,31.4,75.9,32.8,77.5C32.8,77.4,32.8,77.4,32.8,77.5L32.8,77.5z M25.3,78.3c0.4,0.5,0.8,0.9,1.2,1.4
	c0.1,0.1,0.1,0.3,0,0.4c-0.3,0.5-0.5,0.9-0.8,1.3c-0.1,0.1-0.3,0.2-0.4,0.2c-1.3,0.1-2.1,1-3.3,1.5c0-0.2,0-0.4,0-0.5
	C22.9,81,23.8,79.4,25.3,78.3L25.3,78.3z M6.1,114.4c0.8-0.5,1.7-1,2.5-1.5c0,0,0.1,0,0.1,0.1c-0.1,0.3-0.3,0.5-0.4,0.8
	c1.6,0,6.8-2.1,6.8,0.7c0,0.6-1,0.3-1.4,0.3c-0.4-1.8-5.8,0-7.5-0.3C6.2,114.5,6.2,114.4,6.1,114.4L6.1,114.4z M12.1,99.4
	c1.5-0.2,2.7-0.4,4.1-0.9c0.7-0.2,1.3-0.7,1.7-1.3c0.1-0.2,0.3-0.3,0.4-0.5c-0.8,2.9-2.4,3.5-5.2,4.1c-0.1,0-0.3,0-0.3-0.1
	C12.5,100.3,12.4,99.9,12.1,99.4L12.1,99.4z M37.2,97.8c0.4,1.1,0.7,2.3,0.1,3.5c-0.7,1.3-1.8,2.4-3.2,2.9c0,0,0,0-0.1-0.1
	c0.8-1.1,1.6-2.2,2.1-3.5c0-0.1,0-0.2,0.1-0.2C36.9,99.7,37.1,98.8,37.2,97.8z M36,83.8c-1.1-1.7-2.2-3.2-2.9-5
	c0.5-0.1,0.9,0,1.2,0.5c0.7,1.3,1.4,2.6,1.6,4C35.9,83.5,35.9,83.6,36,83.8L36,83.8z M19.8,98.5c0,0.9-0.1,1.7-0.2,2.6
	c0,0.1-0.1,0.3-0.2,0.3c-0.7,0.6-1.4,1.3-2.1,1.9C18.2,101.7,19,100.2,19.8,98.5z M32.3,81.8c-0.3-0.7-0.6-1.3-0.9-1.9
	c-0.1-0.4,0.4-0.6,0.6-1c0.2,0.3,0.3,0.4,0.4,0.6c0.2,0.4,0.4,0.7,0.6,1.1C33.7,81.3,33,81.5,32.3,81.8L32.3,81.8z M19.1,91.5
	c0.3,0,0.6,0.1,0.8,0.2c0.3,0.1,0.3,0.5,0.3,0.7c0,0.5-0.2,0.7-0.6,0.6c-0.3-0.1-0.6-0.3-0.9-0.5c0,0,0-0.2,0-0.2
	C18.8,92,19,91.7,19.1,91.5L19.1,91.5z M29.8,82.8c0,0.7-1.1,0.7-1.1,0C28.8,82,29.9,82.1,29.8,82.8L29.8,82.8z M10.3,132.5H14v0.8
	H5.7v-0.8h3.6V131H6.7v-0.8h2.6v-1.3H7.1v-0.8c-0.4,0.3-0.9,0.6-1.3,0.8c-0.1-0.3-0.3-0.6-0.6-0.7c1.2-0.5,2.5-1.5,3.5-2.5H7.2v-0.9
	h3.2c0.9,1.3,2.5,2.6,4.1,3.2c-0.2,0.2-0.5,0.6-0.6,0.8c-0.4-0.2-0.9-0.4-1.3-0.7v0.8h-2.2v1.3H13v0.8h-2.7V132.5z M7.2,128.1h5.4
	c-1-0.7-1.9-1.6-2.7-2.4C9.2,126.5,8.2,127.4,7.2,128.1z M23.8,128.6c-0.4,0.3-0.9,0.7-1.4,1c0.4,1.3,1.3,2.3,2.5,2.8
	c-0.2,0.2-0.5,0.5-0.6,0.7c-1.2-0.6-2.1-1.7-2.6-3c-0.1,0.1-0.3,0.2-0.4,0.3c0.5,2.2-0.3,3.5-2.3,3.2c0-0.3-0.1-0.6-0.3-0.9
	c1.2,0.2,1.9-0.1,1.8-1.6c-1.1,0.8-2.7,1.6-4.1,2c-0.1-0.2-0.3-0.6-0.5-0.8c1.6-0.3,3.5-1.3,4.4-2.1c0-0.2-0.1-0.3-0.2-0.6
	c-1,0.6-2.5,1.3-3.6,1.7c-0.1-0.2-0.3-0.5-0.5-0.7c1.2-0.3,2.9-1,3.7-1.6c-0.1-0.2-0.2-0.3-0.4-0.5c-0.9,0.5-1.9,0.9-2.8,1.1
	c-0.1-0.2-0.3-0.6-0.5-0.7c1.2-0.3,2.4-0.7,3.3-1.3h-2V127h5.6v0.8h-2.3c-0.2,0.2-0.4,0.3-0.6,0.5c0.4,0.4,0.7,0.9,1,1.4
	c0.7-0.5,1.5-1.1,2-1.6L23.8,128.6L23.8,128.6z M17.1,127.4h-0.9v-2.1h3.6c-0.1-0.2-0.2-0.4-0.3-0.6l1-0.3c0.2,0.3,0.3,0.6,0.5,0.9
	h3.5v2.1h-1v-1.3h-6.4L17.1,127.4L17.1,127.4z M27.9,129.1c-0.3-0.3-1-0.8-1.6-1l0.5-0.6c0.6,0.3,1.3,0.6,1.6,1L27.9,129.1z
	 M26.6,132.9c0.4-0.8,1-2,1.3-3.2l0.7,0.5c-0.4,1-0.9,2.2-1.3,3.2L26.6,132.9L26.6,132.9z M28.5,126.4c-0.3-0.3-1.1-0.8-1.7-1.1
	l0.5-0.6c0.6,0.3,1.3,0.7,1.7,1L28.5,126.4L28.5,126.4z M30.3,126.4c-0.3,0.6-0.6,1.2-1,1.6c-0.2-0.1-0.6-0.4-0.8-0.5
	c0.6-0.7,1.3-1.9,1.6-3l0.9,0.2c-0.1,0.3-0.2,0.6-0.3,0.8h4.4v0.8L30.3,126.4L30.3,126.4z M34.5,130c0,0.5,0,1-0.1,1.3h0.6v0.8h-0.7
	c-0.1,1.5-1,1.4-2.2,1.3c0-0.2-0.1-0.6-0.2-0.8c0.9,0,1.5,0.3,1.6-0.6h-4.2c0.1-0.6,0.2-1.3,0.3-2.1h-0.9v-0.8h1
	c0.1-0.7,0.2-1.4,0.2-2h4.8c0,0.6-0.1,1.5-0.1,2h0.7v0.8H34.5L34.5,130z M30.4,130c-0.1,0.5-0.1,0.9-0.2,1.3h1.9
	c-0.2-0.3-0.6-0.7-1-1l0.4-0.3H30.4L30.4,130z M30.7,128c0,0.4-0.1,0.8-0.1,1.2h1.8c-0.2-0.3-0.6-0.7-1-1l0.4-0.3L30.7,128L30.7,128
	z M33.6,131.3c0-0.3,0.1-0.8,0.1-1.3h-2c0.4,0.3,0.8,0.7,1,1l-0.4,0.3H33.6z M32,128c0.3,0.3,0.7,0.7,1,1l-0.3,0.3h1.2
	c0-0.3,0-0.8,0-1.2L32,128L32,128z M40.2,126.5c-0.3,0.7-0.6,1.5-1.1,2.1c0.4,0.3,1.1,1.1,1.3,1.3l-0.5,0.8
	c-0.2-0.3-0.5-0.7-0.9-1.1v4.1h-0.9v-3.8c-0.4,0.4-0.8,0.7-1.1,1c0-0.3-0.2-0.7-0.3-0.9c1-0.6,1.9-1.7,2.6-2.8h-2.3v-0.8h1.8
	c-0.2-0.3-0.5-0.9-0.8-1.3l0.7-0.4c0.3,0.4,0.7,0.9,0.9,1.3l-0.7,0.4h0.9l0.1,0L40.2,126.5L40.2,126.5z M45.4,126v5.2h-0.9v-0.4
	h-1.2v2.7h-0.9v-2.7h-1.2v0.5h-0.8V126h2v-1.5h0.9v1.5C43.4,126,45.4,126,45.4,126z M41.3,126.8v1.2h1.2v-1.2H41.3z M42.5,130v-1.2
	h-1.2v1.2H42.5z M43.4,126.8v1.2h1.2v-1.2H43.4z M44.6,130v-1.2h-1.2v1.2H44.6z M134.3,132.4l0.7-0.5c0.3,0.5,0.6,0.7,1,0.7
	c0.6,0,0.9-0.3,0.9-1.3v-4.4h1v4.4c0,1.2-0.6,2.1-1.9,2.1C135.3,133.4,134.7,133.1,134.3,132.4L134.3,132.4z M138.7,130.9
	c0-1.6,1.1-2.5,2.2-2.5c3,0,3,5,0,5C139.8,133.4,138.7,132.5,138.7,130.9z M142.2,130.9c0-2.2-2.5-2.2-2.5,0
	C139.7,133.1,142.3,133.1,142.2,130.9z M143.9,132.1v-5.8h1v5.9c0,0.4,0.2,0.4,0.4,0.3l0.1,0.8C144.6,133.6,143.8,133.2,143.9,132.1
	L143.9,132.1z M145.9,132.1v-5.8h1v5.9c0,0.4,0.2,0.4,0.4,0.3l0.1,0.8C146.6,133.6,145.9,133.2,145.9,132.1L145.9,132.1z M147.9,127
	c0-0.8,1.3-0.8,1.3,0S147.8,127.8,147.9,127z M148,128.5h1v4.7h-1V128.5z M152.3,127.1c-1.2-0.4-1.2,0.4-1.2,1.3h0.9v0.8h-0.9v4h-1
	v-4h-0.6v-0.7l0.6,0v-0.6c0-1.4,1.1-2,2.3-1.5L152.3,127.1L152.3,127.1z M154.6,133.6c-0.4,1.3-1.3,2-2.5,1.6l0.2-0.8
	c0.8,0.3,1.3-0.4,1.4-1.2l-1.9-4.7h1l0.9,2.5c0.1,0.4,0.3,0.9,0.4,1.3h0l0.4-1.3l0.8-2.5h0.9L154.6,133.6L154.6,133.6z M163.1,133.4
	c-0.5-0.1-1-0.3-1.5-0.7c-1.2,1.2-3.9,0.9-3.9-1.1c0-0.9,0.6-1.4,1.3-1.9c-0.7-1.2-0.5-3,1.1-3c0.8,0,1.3,0.6,1.3,1.3
	c0,0.9-0.7,1.4-1.4,1.9c0.4,0.6,0.9,1.1,1.5,1.6c0.4-0.5,0.6-1.1,0.9-1.8h0.9c-0.3,0.8-0.6,1.6-1.1,2.2c0.4,0.3,0.8,0.5,1.2,0.6
	L163.1,133.4L163.1,133.4z M159.7,132.6c0.4,0,0.8-0.2,1.1-0.4c-0.6-0.5-1.2-1.1-1.6-1.7C158.2,131.2,158.4,132.6,159.7,132.6
	L159.7,132.6z M159.6,129.3c0.6-0.3,1-0.7,1-1.3c0-0.3-0.2-0.6-0.6-0.6C159.1,127.5,159.2,128.7,159.6,129.3z M164.8,132.5l0.6-0.7
	c0.7,0.9,2.8,1.2,2.9-0.1c0-0.6-0.4-0.8-1-1c-0.9-0.4-2.2-0.7-2.2-2.1c0-1.9,2.8-2.3,4.1-0.9l-0.5,0.6c-0.6-0.7-2.5-0.9-2.5,0.3
	c0,0.6,0.5,0.7,1,0.9c1,0.4,2.2,0.8,2.2,2.1C169.3,133.7,166.1,133.9,164.8,132.5z M169.9,126.4h1v1.8l0,0.9c1.2-1.3,3.1-1,3,1.1v3
	h-1v-2.9c0-1.5-1.2-1.4-2-0.5v3.4h-1C169.9,133.3,169.9,126.4,169.9,126.4z M174.4,130.9c0-1.6,1.1-2.5,2.2-2.5c3,0,3,5,0,5
	C175.5,133.4,174.4,132.5,174.4,130.9z M177.9,130.9c0-2.2-2.5-2.2-2.5,0C175.4,133.1,178,133.1,177.9,130.9z M179.6,128.5h0.8
	l0.1,0.5h0c1.5-1.3,3.5-0.5,3.4,1.8c0,2.2-1.9,3.3-3.3,2l0,0.8v1.6h-1L179.6,128.5L179.6,128.5z M182.8,130.9c0.1-1.6-1.2-2.1-2.2-1
	v2.3C181.7,133.1,182.8,132.5,182.8,130.9z M70,116.6c0-1.9,2.2-1.7,3.8-1.7v-0.7c0.1-1.8-1.9-1.4-3.1-1.2v-0.4
	c1.4-0.3,4.1-0.5,4,1.6v4h-0.8v-0.4C72.6,118.7,69.9,118.4,70,116.6 M73.8,117.7v-2.5h-1.4c-1.2,0-1.5,0.4-1.5,1.3
	C70.8,118.4,72.8,118.1,73.8,117.7z M76.8,118.1v-0.3c1.3,0.3,5-0.1,3.2-1.7c-0.5-0.4-2.2-0.5-2.6-1c-2-2.2,1.6-3.1,3.2-2.5v0.3
	c-0.9-0.1-3.1-0.4-3,0.8c0.2,1.8,3.5,0.7,3.5,2.9C81.2,118.7,78.2,118.4,76.8,118.1z M83.2,115.4c0-2.6,2.1-3.3,4.3-2.8v0.3
	c-1.9-0.3-3.5,0-3.4,2.4c-0.1,2.5,1.5,2.7,3.4,2.5v0.3C85.3,118.6,83.1,118.1,83.2,115.4 M89.3,115.4c-0.1-4,5.3-3.8,4.9,0.2h-4.1
	c0,1.9,0.6,2.4,2.2,2.4c0.5,0,1,0,1.4-0.1v0.3C91.8,118.6,89.2,118.4,89.3,115.4 M90.1,115.2h3.1c0-1.6-0.4-2.4-1.5-2.4
	C90.5,112.8,90.2,113.6,90.1,115.2z M96.5,112.5h0.9v0.4c1.5-0.8,4.1-0.7,3.9,1.7v3.6h-0.9v-3.6c0.1-2-1.7-1.9-3-1.5v5.1h-0.9V112.5
	L96.5,112.5z M103.3,112.5h0.9v-1.6h0.9v1.7h1.6v0.4h-1.6v4.1c0,1,0.8,1.1,1.6,0.9v0.3c-1,0.3-2.5,0.3-2.5-1.4v-3.8h-0.9V112.5
	L103.3,112.5z M82.3,129.7v-0.8l-0.6,0.2v-1h0.9v-0.6h-0.9v-1h-0.8v1h-1l-0.3,0.6h1.2v1.4l-1,0.4v0.8l1-0.4v2H80v0.7h1
	c0.4,0,0.8-0.4,0.8-0.8v-2.3L82.3,129.7z M87.7,130.4h-4.1l0.2-0.4H88v-0.6h-5.5l-0.3,0.6h0.6l-0.8,1.8h0.9l0.4-0.7h0.8l-0.9,2H84
	l0.9-2h0.8l-0.9,2h0.9l0.9-2h0.7v1.3h-0.7v0.7h1.1c0.4,0,0.5,0,0.5-0.5v-1.6C88.2,130.5,88.2,130.4,87.7,130.4z M87.5,129H88
	c0-0.2,0-1.9,0-2.1c0-0.2-0.1-0.4-0.3-0.4c0,0-0.2,0-0.2,0h-4c-0.2,0-0.4,0.1-0.4,0.3l0,0l0,0l0,0c0,0.2,0,2.1,0,2.2h0.2H87.5z
	 M84,128.4V128h3.2v0.4H84z M87.2,127.4H84V127h3.2V127.4z M71.4,130.2v-3.9c-0.2,0-0.5,0-0.7,0l-0.8,1.5h0.5v2.3H71.4z M75.1,126.3
	h-1v0.4H72l-0.3,0.6h2.5v0.4H72l-0.3,0.6h2.5v0.4H72l-0.3,0.6h2.5v0.4H72l-0.3,0.6h5.9v-0.6h-2.5v-0.4h2.5v-0.6h-2.5v-0.4h2.5v-0.6
	h-2.5v-0.4h2.5v-0.6h-2.5L75.1,126.3L75.1,126.3z M76.8,130.7h-1.3h-0.9l0,0l0,0v0.7l0,0v0.2h-1v-0.9h-0.9l0,0h-1.3
	c-0.4,0-0.8,0.4-0.8,0.8v1.6l0,0h0.8v-1.7h1.2v0.4c0,0.4,0,0.5,0.5,0.5H75c0.4,0,0.5,0,0.5-0.5v-0.4h1.2v0.9h-0.8v0.7h0.8
	c0.4,0,0.8-0.4,0.8-0.8v-0.8C77.6,131.1,77.3,130.7,76.8,130.7z M104.9,128.7c0,0.1,0,0.2-0.2,0.4l0,0h-0.8l0.4,0.4
	c-0.1,0.1-0.2,0.1-0.4,0.2l0,0v0.7c0.1,0,0.2,0,0.3-0.1l0,0c0.2,0,0.4-0.2,0.5-0.3l0.3,0.3h0.8l-0.6-0.7c0.1-0.2,0.2-0.3,0.3-0.6
	c0.1-0.2,0-0.3,0-0.4h1v1.7c0.4,0,1.1,0,1.5,0V130h-0.7c0-0.3,0-1,0-1.3l0,0c0-0.2-0.1-0.4-0.4-0.4c0,0-0.4,0-0.4,0h-2.5l-0.2,0.4
	L104.9,128.7L104.9,128.7z M103.5,128.9v-0.6h-2.9l-0.3,0.6h1.3v0.7l-1.1,0.1v0.6l3-0.4v-0.6l-1.1,0.1v-0.7L103.5,128.9L103.5,128.9
	z M104.6,130.8v-0.3h-1v0.3h-3.3l-0.3,0.6h3.6v1.7h1v-1.7h3.7v-0.6H104.6z M100.4,133.1h1l0.9-1.4h-1L100.4,133.1z M106.1,131.8
	l0.9,1.4h1l-0.9-1.4H106.1z M101.2,127.3h0.8v0.7h0.8v-0.1l0,0v-0.6h1.1v-0.6h-2.8v-0.4c-0.1,0-0.9,0-1,0v1.7h1L101.2,127.3
	L101.2,127.3z M105.4,127.8L105.4,127.8v-0.6h0.9v0.7h0.8c0,0,0-0.7,0-0.7h0.9v-0.6h-2.7v-0.4c0,0-0.8,0-0.8,0c0,0,0,0,0,0v1.7h0.8
	L105.4,127.8L105.4,127.8z M97.4,127L97.4,127c0-0.2-0.1-0.4-0.3-0.4c0,0-1.5,0-1.5,0v-0.4h-0.8v0.4h-1.3h-0.3l-0.3,0.6h1.8v0.5H93
	l-0.3,0.6h2.1v0.5h-1.4l-0.3,0.6h1.7v0.5h-1.4l-0.3,0.6h1.7v0.5H93l-0.3,0.6h2.1v0.5h0.8v-0.5h2.3v-0.6h-2.3v-0.5h1.9v-0.6h-1.9
	v-0.5c0.5,0,1.3,0,1.8,0v-1.1h0.5v-0.6h-0.5V127z M95.7,127.2h1v0.5h-1V127.2z M95.7,128.2h1v0.5h-1V128.2z M92.1,131.6
	c0.4-0.6,0.6-1.4,0.7-2.4c0,0,0,0,0,0l0,0v0c-0.1-0.3-0.3-0.3-0.6-0.3c-0.1,0-0.6,0-0.7,0l0.6-0.9l0,0l0.5-0.8v0
	c-0.1-0.2-0.2-0.3-0.4-0.3c-0.3,0-1.4,0-1.7,0l-0.2,0.4h1.2l-1.1,1.7l0,0l-0.2,0.4c0.5,0,1.2,0,1.7,0c0,0.7-0.2,1.1-0.4,1.6
	c-0.2-0.4-0.4-0.8-0.5-1.1h-0.9c0.2,0.5,0.5,1.3,0.9,1.9c-0.4,0.5-0.8,0.7-0.8,0.7l-0.1,0v1c0.2,0,0.3-0.1,0.4-0.1
	c0.1,0,0.6-0.2,1.2-0.9c0.4,0.3,1,0.7,1.9,0.8h4.4v-0.9h-4.5C92.8,132.1,92.3,131.8,92.1,131.6z M94.5,109.2h1.6V90.5l-12.3,18.7H70
	l24.5-33.7V109.2z M76.2,15.1c0,0,11.7,14.5,12.3,15.7c0.3,0.8,0.4,1.3-2.3,14.1c0,0-7.5-5.5-2.1-11.4
	C84.1,33.5,68.4,31.6,76.2,15.1L76.2,15.1z M92.2,3.8c9.3,25.9,9.3,26.7,9.4,27.6c0.1,1.8-9.5,17.3-9.5,17.3s-7.5-10.2,2.2-16.2
	C79.9,23.9,83.2,12.3,92.2,3.8z M101.5,35.4l1-1.4c0,0,0.5,1.1,1,1.8c1.4,1.6,3.4,1.2,3.6-1.3c-0.3-2.5-2.7-4.4-3.9-7.2
	c-1.2-3-0.9-6,2.4-8.3c2.6-1.6,6.9-0.5,8.3,3.3c1.7,4.2-2.4,7.6-5.9,5.5c-2.6-1.4-2.9-6,0.3-6.8c1.1,0,2.3-0.3,3.3,1.9
	c0.9,2.1-1.6,3.7-2.5,1.7c1.4,0.7,2.4-0.7,1.4-2.1c-1-1-2.7-1.3-3.3,0.5c-1,3.2,4.4,6.1,5.7,2.1c1.3-5.5-7.3-8.5-8.6-2.6
	c-1,3.7,4.4,7.6,4.4,11C108.6,38.1,103.3,39.3,101.5,35.4L101.5,35.4z M71.5,51.4h1.6l0.7,1.9h-1.6L71.5,51.4z M71.8,54.2h1.6l0.7,2
	h-1.6L71.8,54.2z M72.5,56.8h1.4L73,60.3h-1.5L72.5,56.8z M79.7,58.4c0.3,0,0.5-0.3,0.5-0.5h-2.5c0-0.2,0.1-0.3,0.1-0.5h1.7
	c0.3,0,0.5-0.3,0.5-0.5h-2.2v-0.6c0,0,1.2,0,1.7,0c0.5,0,0.6-0.5,0.6-0.7v-1.5h-2.3v-0.5h1c0.5,0,0.9-0.4,0.9-0.6s0-0.6,0-0.6h0.7
	v-0.5h-0.7v-0.5h-1.3v0.5h-2.6v-0.5h-1.3v0.5H74v0.5h0.6c0,0,0,0.3,0,0.6c0,0.4,0.5,0.6,0.8,0.6h1v0.5h-2.3v1.4
	c0,0.4,0.6,0.8,0.8,0.8s1.5,0,1.5,0l0,0.6h-2.1v0.5h2c0,0,0,0.4-0.2,0.5h-2v0.5h1.7c-0.2,0.7-1.8,1.9-1.8,1.9h1.7
	c1.2-0.6,1.7-1.9,1.7-1.9C77.5,58.4,79.7,58.4,79.7,58.4z M76.5,55.8h-1v-1.1h1V55.8z M78.9,54.7v1.1h-1v-1.1H78.9z M75.9,53v-0.6
	h2.6V53H75.9z M77.3,58.9l1.3,1.4h1.8l-1.3-1.4H77.3z M103.2,53.7h-3.6l0.7-1.4h3v-0.6h-8.4v0.6h3.7l-0.7,1.4h-2.7v5.5
	c0,0.5,0.3,1.1,1,1.1h6c0.6,0,1-0.4,1-1V53.7L103.2,53.7z M101.7,59.6h-5.1v-2.3h4.2c0.5,0,0.7-0.4,0.7-0.7h-4.9v-2.3h5.1V59.6z
	 M107.2,51.4h1.7c0,0-0.5,0.9-0.9,1.4h0.7v1.3H107v-1.1H106C106,53,106.8,52.5,107.2,51.4L107.2,51.4z M110,53.4v-2h1.5v1h1.6l0.8-1
	h1.3c0,0-0.8,1-0.9,1.1c-0.1,0.1-0.3,0.3-0.5,0.3h-2.3v0.8h3.6c0,0,0,0.5-0.5,0.5c-0.7,0-3.3,0-3.7,0C110.3,54.1,110,53.7,110,53.4z
	 M113.8,59.4c0.4,0,1.1,0,1.1-0.7v-4h-8.3v4c0,0.5,0.6,0.7,0.8,0.7c0.3,0,0.3,0,0.3,0l-1,0.9h2.2l1-0.9h1.7l0.9,0.9h2.1L113.8,59.4
	L113.8,59.4z M108.1,58.8V58h4.7c0.4,0,0.5-0.6,0.5-0.6h-5.2v-0.8h4.7c0.5,0,0.5-0.6,0.5-0.6h-5.2v-0.8h5.4v3.5L108.1,58.8
	L108.1,58.8z M84.2,51.4h1.3v0.9h1c0,0-0.2,1.3-1.1,2.6v5.5h-1.3v-4.5h-1c0,0,1.6-1.9,1.9-3.1h-1.8v-0.5h1L84.2,51.4L84.2,51.4z
	 M85.4,55h1l0.5,3.9h-1L85.4,55z M91.9,57.9v-5.6h-1.8v-0.9H89v0.9h-1.8v5.5c0,0.5,0.2,1,0.7,1h1.1v1.6h1.2v-1.6h1
	C91.9,58.8,91.9,58.4,91.9,57.9C91.9,58,91.9,57.9,91.9,57.9z M89,58.3h-0.7v-2.4H89V58.3z M89,52.9v2.5h-0.7v-2.5L89,52.9L89,52.9z
	 M90.8,58.3h-0.7v-2.4h0.7V58.3z M90.8,52.9v2.5h-0.7v-2.5L90.8,52.9L90.8,52.9z M9.7,17H3.1v21.5h6.6V17z M9.7,27.7L20.5,17v21.5
	L9.7,27.7z M45.2,27.7v10.7c14.2-0.5,14.2-20.9,0-21.5h-6.6v10.7l-9.1,10.7h-9L38.6,17H20.5l9,10.7H45.2z M22,54.5h5.3v-3.2
	c0-0.5-0.5-1-1-1H21v3.2C21,54,21.4,54.5,22,54.5z M21.9,52.8h3.7c0.2,0,0.4-0.2,0.4-0.4v-0.5h-4.1v-0.8h4.3c0.1,0,0.2,0.1,0.2,0.2
	v2.4h-4.3c-0.1,0-0.2-0.1-0.2-0.2V52.8L21.9,52.8z M17.1,60.9c0.1,0.2,0.3,0.6,0.5,0.6c0.1,0,0.2,0,0.3,0c0.8-0.6,1.1-1.3,1.1-2.3
	v-1.9l0.9-0.3c0.4-0.1,0.3-0.7,0.3-1L19,56.4v-3.1h0.8c0.2,0,0.4-0.2,0.4-0.4v-0.5H19v-2.3h-0.6c-0.2,0-0.3,0.2-0.3,0.3v2h-1.3v0.8
	h1.3v3.4l-1.3,0.5v0.9l1.3-0.5v1.6C18.1,60,17.8,60.5,17.1,60.9L17.1,60.9z M25.6,60.7l0.3,0.6c0,0.1,0.2,0.3,0.4,0.2
	c1.2,0,1.8-1,1.7-2v-1.8c0-0.6-0.5-1.1-1.1-1.1H22c0.1-0.3,0.1-0.5,0.2-0.8h5.4c0.2,0,0.4-0.2,0.4-0.4v-0.5h-7.6v0.8h1
	c-0.2,0.7-0.7,2.4-1.3,3.4v0c0.3,0,1,0.1,1-0.3c0.2-0.4,0.5-1.3,0.6-1.6h1.3l-0.1,0.4C22.5,59,21.8,60,20.7,61
	c0.1,0.1,0.3,0.5,0.6,0.5c0.1,0,0.2,0,0.3-0.1c1.3-1.2,2-2.5,2.4-4h1.2c-0.3,1.4-0.9,2.6-1.9,3.7l0.3,0.3c0.1,0.1,0.4,0.1,0.5,0
	c1-1.2,1.6-2.5,1.8-4h0.7c0.2,0,0.3,0.1,0.3,0.3v1.8C27,60.6,26.6,60.6,25.6,60.7 M9.1,58.6v-0.5l-4.5,0.4l0,0v0.9L8.8,59
	C9,59,9.1,58.8,9.1,58.6L9.1,58.6z M5.7,57.6H9v-2.8c0-0.5-0.5-1-1-1H4.7v2.8C4.7,57.2,5.2,57.6,5.7,57.6z M5.6,54.6h2.2
	c0.1,0,0.2,0.1,0.2,0.2v2H5.9c-0.1,0-0.2-0.1-0.2-0.2V54.6z M12.7,50.2H3.1v9.9c0,0.7,0.5,1.3,1.3,1.3H14v-9.9
	C13.9,50.8,13.4,50.2,12.7,50.2z M4,51.1h5.4l0.1,1.3H4V51.1L4,51.1z M13,60.6H4.4c-0.2,0-0.4-0.2-0.4-0.4v-7h5.6l0.2,2.1l0,0
	c0.1,0.8,0.3,1.6,0.5,2.3c-0.4,0.8-1,1.7-1.6,2.3l0,0L9,60.2c0.1,0.1,0.4,0.1,0.5,0c0.4-0.5,0.8-1,1.2-1.6c0.5,0.9,0.9,1.4,1.2,1.7
	c0.3,0.3,0.7-0.2,1-0.3c0,0-1.3-0.9-1.7-2.3c0.5-0.9,1.1-3.2,1.2-3.8h-0.8l0,0c-0.1,0.4-0.4,1.8-0.7,2.6c-0.2-0.8-0.3-2.4-0.3-3.1
	h1.4c0.5,0,0.8-0.4,0.8-0.9l0-0.7c0-0.5-0.6-0.3-0.9-0.3l0.1,1h-1.4L10.3,51h2.3c0.2,0,0.4,0.2,0.4,0.4V60.6L13,60.6z M47.8,56.8h-3
	v3.6c0,0.5,0.5,1,1,1h3v-3.6C48.8,57.3,48.3,56.8,47.8,56.8z M47.9,60.6h-2c-0.1,0-0.2-0.1-0.2-0.2v-2.8h2c0.1,0,0.2,0.1,0.2,0.2
	V60.6z M45,55.9h3.1c0.2,0,0.4-0.2,0.4-0.4v-0.4H45V55.9z M48.5,53.9v-0.4H45v0.8h3.1C48.3,54.3,48.5,54.1,48.5,53.9z M47,50.6
	c0-0.2-0.3-0.4-0.5-0.4h-0.7l0.4,1.6h-1.8v0.8h4.3c0.2,0,0.4-0.2,0.4-0.4v-0.5h-1.7L47,50.6L47,50.6z M52.8,59.4
	c1-1.1,1.6-2.4,2-3.2c0.2-0.4-0.1-0.9-0.6-0.9h-4.8v0.8h4.5c-0.3,0.6-0.8,1.7-1.8,2.7c-0.8-0.8-1.3-1.7-1.6-2.3h-1
	c0.5,1,1.1,2,2,2.9c-0.6,0.5-1.4,1-2.3,1.3l0.2,0.5c0.1,0.2,0.3,0.3,0.5,0.2c0.9-0.3,1.6-0.8,2.3-1.4c0.8,0.6,1.7,1.1,2.7,1.4
	c0.1,0,0.3,0,0.3-0.2l0.4-0.6C54.4,60.5,53.5,60,52.8,59.4L52.8,59.4z M50,54.8c0.2,0,0.3-0.1,0.3-0.3c0.2-0.7,0.3-2,0.3-3.1h2.1
	c0.1,0,0.2,0.1,0.2,0.2v1.2c-0.1,1,0.5,2,1.8,2c0.2,0,0.3-0.1,0.4-0.2l0.3-0.6c-1,0-1.4-0.1-1.4-1.1v-1.3c0-0.5-0.4-0.9-0.9-0.9
	h-3.3c0.1,1.6-0.2,3.9-0.4,4.2L50,54.8L50,54.8z M41.1,51.9c0-0.5-0.5-1-1-1h-1.8v-0.8h-0.6c-0.2,0-0.4,0.2-0.4,0.4V51h-2.5v0.8h2.5
	v1H34v0.8h3.2v1h-2.5v0.8h2.5v1h-2.6V57h2.6v1h-3.1v0.8h3.1v1.4h0.6c0.2,0,0.4-0.2,0.4-0.4v-1.1h3.2c0.2,0,0.4-0.2,0.4-0.4v-0.4
	h-3.5v-1h2.6c0.2,0,0.4-0.2,0.4-0.4v-0.4h-3v-1h2.9v-1.8h0.5c0.2,0,0.4-0.2,0.4-0.4v-0.4h-0.8L41.1,51.9L41.1,51.9z M38.2,51.8H40
	c0.1,0,0.2,0.1,0.2,0.2v0.8h-2L38.2,51.8L38.2,51.8z M40.2,54.5h-2v-1h2V54.5z M33.3,59.3c-0.1-0.1-0.1-0.2-0.2-0.3
	c0.7-1.6,0.9-3,1-3.9c0-0.4-0.3-0.8-0.7-0.8h-1.2l1.6-2.9c0.2-0.4,0-0.8-0.5-0.8h-2.4v0.8h1.9l-1.6,2.9c-0.2,0.3,0,0.8,0.5,0.8h1.6
	c-0.1,0.5-0.2,1.6-0.6,2.8c-0.2-0.5-0.3-1-0.5-1.6h-1c0.4,1.1,0.7,2,1,2.7c-0.3,0.7-0.8,1.3-1.3,2l0.5,0.4c0.1,0.1,0.4,0.1,0.5,0
	c0.4-0.5,0.7-0.9,0.9-1.4c0.8,1,1.7,1.5,2.8,1.5h5.8c0.3,0,0.5-0.2,0.5-0.5l0-0.4h-6.3C34.6,60.5,33.9,60.2,33.3,59.3L33.3,59.3z
	 M160.1,77.4c-12.2,0-22.1,9.9-22.1,22.1c1.2,29.3,42.9,29.3,44.1,0C182.1,87.3,172.2,77.4,160.1,77.4z M180.2,96.8
	c0.3-0.5,0.7-1,1-1.7c0.3,1.2,0.4,2.4,0.4,3.6c-0.5-0.6-0.9-1-1.5-1.4C179.9,97.1,180.1,97,180.2,96.8L180.2,96.8z M176.7,85.7
	c0,0.2-0.1,0.4-0.3,0.6c-0.5,0.6-0.9,0.9-1.8,0.7c-3.5-0.5-7.3-0.6-10.4,1.3c-1.2,0.9-1.2-2.3-4.6-2.5c-0.6-0.1-1.3,0.5-1.3-0.5
	c0-0.6,0-1.3-0.1-1.9c-0.3-1.6-0.2-3.8-0.3-5.5C165.2,77.2,172.4,80.4,176.7,85.7z M141.4,110.3c0.4-0.1,1-0.3,1.6-0.6
	c-2.5,0-2.9-3.3-3.2-5.2c2.2-0.2,1.7-2.6,1.7-2.6h-2.8c-1.5-11.7,7.2-22.6,18.6-24c0,2.2,0.3,4.7,0.3,6.9c0,1-0.3,1.6-1.2,2
	c-2.3,1.2-2.5,4.9-0.5,6.6c1,0.7-0.2,1.5-0.4,2.3c-1.4,2.1-1.8,4.5-2,7c-0.2,2.3,0.1,4.5,1.2,6.6c0.1,0.3,0.1,0.4-0.1,0.6
	c-1.4,1.4-2.7,2.9-4.4,3.9c-1.1,0.6-2.1,1.6-3.2,2.3c-0.1,0-0.1,0.1-0.2,0.1C144.5,114.6,142.7,112.6,141.4,110.3z M157.2,116.4
	c0.6,0.1,1.1,0.1,1.6,0.4c-1.3,1.2-2.8,2.1-4.4,2.9c-0.3,0.2-0.4,0.3-0.6,0.4c-0.5-0.1-0.9-0.3-1.3-0.5c1-0.6,2.7-1.7,0.9-2.5
	c-0.8-0.3-1.5-1.6-2.3-0.8l0,0c-0.6,0.5-0.9,1-1.3,2.1c-0.9-0.5-1.7-1-2.5-1.6c1.9-1.1,3.6-2.3,5.3-3.7c0.1-0.1,0.3-0.2,0.4-0.1
	c0.5,0.3,1.1,0.3,1.7,0.1c0.6-0.3,1.6,0,1.6-1.1c0.4,0.3,0.6,0.6,0.9,0.8c0.3,0.3,0.4,0.4,0,0.7
	C156.2,114.1,155.6,116.3,157.2,116.4z M154.8,120.4c2.2-1.4,4.3-2.8,6.5-4.2c0.4-0.3,0.7-0.3,1.2-0.1c3.2,1.5,6.5,1.2,9.8,1l0,0
	c0.1,0,0.2-0.1,0.3,0C167.7,120.6,160.8,122,154.8,120.4z M173.6,116.2l0.3-0.3c-3.5,0-7.3,1.1-10.6-0.6c-0.6-0.3-1.2-0.5-1.7-0.7
	c-1.6-0.6-2.7-2.1-4.1-3c-0.8-0.6-1.2-1.5-1.6-2.4c-1.4-2.8-1.8-5.7-1.4-8.8c0.1-0.8,0.3-1.6,0.8-2.2c0.2-0.7,2.7-4.1,1.9-4.2
	c-0.8-0.9-2.1-1.9-1.7-3.3c-0.3-3.6,4.2-5.8,6.6-2.8c0.6,0.4,1.1,2,1.9,1.6c0.5-0.2,1.2-1.1,1.8-0.5c1.1,1.2,3.1,0.9,3.8-0.6
	c0.1-0.5,0.4-0.6,0.9-0.6c0.9,0,1.7-0.2,2.6-0.1c0.3,0,0.4,0.2,0.4,0.5c0.2,1.7,1.7,2.9,3.5,2.6c0.1,0,0.3,0,0.3-0.2
	c0.4-0.7,1.1-1.3,0.9-2.2c0-0.2,0-0.4,0-0.7c1.4,2.1,2.4,4.5,3,7c-0.7-0.6-1.4-0.3-2,0c-0.9,0.6-0.8-0.2-1.5-0.1
	c-0.7,0.2-1.3,1-1.3,1.7c-0.3,1.1-3.5,0.6-4.2,4.1c-0.2,0.8-0.3,0.9-1.1,0.6c-1-0.6-3.1,0.5-3.3-0.4c-1.4-5.2-9.7-4.6-10.3,0.9
	c-0.4,2.9,1.3,5.3,4.2,5.8c0.8,0.1,1.6-0.1,2.4-0.2c1.5-0.4,0.9,1.7,3.4,1.8c0.3,0,0.9-0.2,0.9,0.3c0.1,0.6,0.5,1.3-0.1,1.9
	c-0.4,0.5-1,0.9-1.3,1.5c1.1,0.4,1.6-1.5,2.5-0.6c0.3,0.3,0.8,0.4,1.2,0.5c0.5,0.1,0.5-0.3,0.2-0.5c-1-0.5-1.9-1.6-1.3-2.7
	c1.3-0.8,3-0.9,4.1-2.1c0.5-0.4-0.3-0.9-0.5-1.2c-0.5-0.2,0.2-0.6,0.4-0.3c0.8,1.1,1.9,1.2,3.1,1.3c1.3,0.1,2.5-0.2,3.5-0.8l0,0
	c0.1-0.1,0.3-0.1,0.5-0.3c-0.6,1.8-1.3,3.5-2.3,5.1c-0.5,0.3-1.2-0.2-1.8-0.1c-1.4,0-2.8,0-4.2,0c-0.6-0.1-0.6,0.8,0,0.6
	c1.9,0.1,3.8,0.2,5.7,0.3C176.8,113.2,175.3,114.8,173.6,116.2z M166.7,106.6c-0.3,0.1-0.5-0.2-0.2-0.4c0.8-1,1.2-2.1,1.3-3.3
	c0.2-1.4,2.2-0.9,3.2-0.8c0.4,0,0.5,0.3,0.5,0.6c-0.1,3.6,2.7,4.2-2.3,3.9C168.5,106.6,167.6,106.6,166.7,106.6z M161.3,82.5
	c0,1.3,1.8,1.8,2.5,0.6c0.4-0.8,0.8-0.1,1-0.5c0.4-0.6,0.5-1.3,0-1.9c-0.7-0.9-1.8-1.2-2.8-1.5c-0.3-0.1-0.6,0.1-0.9,0.3
	c-0.5,0.6-0.6,1.4-0.1,2C161.2,81.9,161.3,82.2,161.3,82.5z M165.2,110.7c-0.8,0.3-1.8,0.2-2.7,0.3c-0.5,0.1-1.1,0.3-1.5,0.4
	c-0.7,0.1-0.3,0.8,0.2,0.5C161.7,112.1,167.8,111.1,165.2,110.7z M165.4,109.4c-0.9,0.1-3.9-1.6-4.2-1c0,0.9,4.3,2.2,5,1.4
	C165.9,109.6,165.6,109.5,165.4,109.4L165.4,109.4z M172.1,109.7c1.9,0,3.5-0.8,5.2-1.6c-0.4-0.1-0.7-0.1-1,0l0,0
	c-1.5,0.4-2.9,0.9-4.3,1.3C171.4,109.5,171.9,109.9,172.1,109.7z M168.8,94.9c0.8-0.3,1.6-0.8,2.5-1s1-1,0.3-1.7
	c-0.1-0.1-0.3-0.3-0.4-0.5c-0.3-0.5-0.8-0.7-1.4-0.7c-0.4,0-0.6,0.1-0.9,0.3C167.7,92.1,166.3,95.7,168.8,94.9z M160.3,91
	c0.2-2.2-6.9-2.5-0.7,0C159.8,91.1,160.1,91.2,160.3,91z M169.8,97c-1.3,0.2-2,2.7-0.5,3c0.8-0.1,2.2-0.5,2.1-1.5
	C171.5,97.3,170.7,96.7,169.8,97z M162.7,96.4c0.2,0,0.5-0.1,0.9-0.1c1.3-0.2,2.1-2.4,0.6-2.9C162.2,92.5,159.6,96.1,162.7,96.4z
	 M145.4,95.4v8.1c0,3.8-1,5.7-2.4,6.4h3.5c0.9,0,2.6-0.3,2.6-2.4c0-4,0-12.1,0-12.1h2.4v-0.5h-8.6v0.5H145.4z"/>
</svg>
