<svg width="721" height="334" viewBox="0 0 721 334" fill="none" xmlns="http://www.w3.org/2000/svg">
<path d="M50.11 213.9V218.55C50.47 225.53 52.76 229.36 56.95 230.05C61.24 231.1 66.58 231.62 72.97 231.62C83.24 231.48 91.75 231.05 98.5 230.32V236.82C93.66 237.64 85.04 238.05 72.63 238.05C63.82 238.05 57.89 237.48 54.83 236.34C47.35 234.65 43.61 229.02 43.61 219.43C43.61 206.43 43.79 193.65 44.16 181.1H83.65C87.89 181.78 91.09 183.54 93.23 186.37C95.47 189.02 96.58 192.64 96.58 197.25C96.58 201.86 95.44 205.69 93.16 208.89C90.56 212.04 87.59 213.68 84.26 213.82L50.11 213.89V213.9ZM50.93 187.07C50.61 194.33 50.36 201.17 50.18 207.6H66.2V187.07H50.94H50.93ZM72.97 187.07V207.6H82.62C87.05 206.78 89.26 203.17 89.26 196.79C89.26 191.18 86.96 187.94 82.35 187.07H72.97Z" fill="#231815"/>
<path d="M107.09 183.24H132.48V177.83H139.39V183.24H164.58V189.88H139.39V195.9H151.16C154.81 196.22 157.62 197.43 159.58 199.53C161.63 201.36 162.7 203.98 162.8 207.4C162.8 211.1 161.84 213.93 159.92 215.89C157.64 218.35 154.88 219.63 151.64 219.72H146.78V226.7C147.14 230.3 148.76 232.11 151.64 232.11C158.94 232.11 163.64 231.95 165.74 231.63V238C163.87 238.32 158.6 238.48 149.93 238.48C143.72 238.02 140.42 234.33 140 227.39V219.72H130.55C128.59 229.85 120.79 236.65 107.14 240.12V232.93C116.36 230.6 121.83 226.2 123.57 219.72H111.52V195.9H132.46V189.88H107.07V183.24H107.09ZM118.11 213.77L149.59 213.7C153.83 213.52 156.07 211.46 156.3 207.54C156.07 204.16 154.25 202.27 150.82 201.86H118.1V213.77H118.11Z" fill="#231815"/>
<path d="M180.49 177.7H187.4V182.77H189.73C191.6 183.04 193.11 183.82 194.25 185.1C195.25 186.47 195.76 187.93 195.76 189.48C195.76 194.04 193.41 198.79 188.71 203.72C191.08 205 193.36 206.6 195.56 208.51V216.52C192.59 213.97 189.7 211.78 186.87 209.95V239.59H180.3V211.18C177.84 213.05 175.14 214.92 172.22 216.79V208.51C182.9 201.16 188.42 195.55 188.78 191.67C188.78 190.12 188.07 189.25 186.66 189.07H172.63V182.77H180.5V177.7H180.49ZM202.6 228.83H208.35C208.53 229.92 208.74 231.07 208.97 232.25H219.78C220.14 231.02 220.42 229.83 220.6 228.69H226.08C225.99 230.01 225.78 231.2 225.46 232.25H231.21V238.14H196.99V232.25H203.08C202.9 231.06 202.74 229.92 202.6 228.83ZM197.4 205.56H231.35V211.31H197.4V205.56ZM215.81 181.47V178.12H221.08V181.47C224.14 181.65 226.49 182.73 228.13 184.69C230.05 186.61 231.07 189.12 231.21 192.22C231.21 195.55 230.3 198.13 228.47 199.95C226.55 202.14 223.95 203.3 220.67 203.44H198.22V181.47H207.39V178.12H212.66V181.47H215.81ZM222.45 213.5C224.82 213.5 226.88 214.14 228.61 215.42C230.02 216.61 230.73 218.2 230.73 220.21C230.73 222.22 229.93 223.84 228.33 225.21C226.69 226.44 224.66 227.1 222.24 227.19H198.83V213.5H222.44H222.45ZM204.04 189.82H207.39V186.53H204.04V189.82ZM204.04 198.24H207.39V194.82H204.04V198.24ZM204.59 222.26H221.5C223.74 222.12 224.85 221.42 224.85 220.14C224.85 219.05 223.66 218.36 221.29 218.09H204.59V222.26ZM212.67 189.82H215.82V186.53H212.67V189.82ZM212.67 198.24H215.82V194.82H212.67V198.24ZM221.09 186.67V189.82H224.92C224.28 188.09 223 187.04 221.09 186.67ZM221.09 194.81V198.1C223.14 197.74 224.42 196.64 224.92 194.81H221.09Z" fill="#231815"/>
<path d="M469.83 218.27V239.22H457V177.67H479.16C486.75 177.67 492.52 179.3 496.46 182.55C500.4 185.8 502.37 190.56 502.37 196.82C502.37 203.08 500.19 208.56 495.84 212.44C491.49 216.32 485.81 218.26 478.81 218.26H469.83V218.27ZM469.75 187.35V208.51H473.17C479.6 208.51 483.85 207.58 485.94 205.71C488.03 203.85 489.07 200.98 489.07 197.11C489.07 193.92 488.06 191.5 486.06 189.84C484.05 188.18 480.08 187.35 474.14 187.35H469.75Z" fill="#231815"/>
<path d="M621.2 239.22H605.34L588.16 215.9H580V239.22H567.17V177.67H589.6C597.74 177.67 603.6 179.19 607.19 182.22C610.78 185.26 612.58 189.37 612.58 194.57C612.58 202.71 608.68 208.74 600.88 212.66L621.21 239.21L621.2 239.22ZM579.91 187.35V206.5H585.66C591.18 206.5 594.84 205.53 596.62 203.6C598.41 201.67 599.3 199.14 599.3 196C599.3 193.22 598.44 191.09 596.73 189.59C595.02 188.09 591.65 187.34 586.62 187.34H579.89L579.91 187.35Z" fill="#231815"/>
<path d="M682.61 239.22H666.74L647.46 213.74L643.11 218.93V239.22H630.35V177.68H643.18V206.92L666.55 177.68H681.48L657.53 206.26L682.61 239.22Z" fill="#231815"/>
<path d="M536.06 177.68H521.83L499.71 239.23H512.7L517.13 225.88L517.2 225.65C520.57 224.17 524.5 223.31 528.63 223.31C532.76 223.31 536.73 224.16 540.1 225.64L540.22 226.02L544.61 239.23H558.18L536.06 177.68ZM528.67 191.48L536.89 216.12C534.48 215.36 531.63 214.92 528.67 214.92C525.71 214.92 522.86 215.38 520.45 216.14L528.67 191.48Z" fill="#231815"/>
<path d="M371.42 239.26H359.06L332.78 194.14V239.26H320.88V177.72H336.43L359.53 217.5V177.72H371.42V239.26Z" fill="#231815"/>
<path d="M424.57 239.26H383.75V177.72H424.57V187.93H396.5V201.08H422.59V211.25H396.5V229.05H424.57V239.26Z" fill="#231815"/>
<path d="M311.24 196.03C309.91 191.34 307.72 187.35 304.67 184.05C299.27 178.23 291.83 175.31 282.35 175.31C272.87 175.31 265.4 178.22 260.03 184.03C256.95 187.36 254.76 191.41 253.45 196.17V219.77C254.77 224.53 256.98 228.58 260.07 231.91C265.47 237.72 272.89 240.63 282.35 240.63C291.81 240.63 299.34 237.71 304.71 231.87C307.75 228.57 309.92 224.59 311.24 219.94V196.03ZM294.1 224.76C291.19 228.74 287.28 230.73 282.39 230.73C277.5 230.73 273.56 228.75 270.64 224.8C267.73 220.85 266.27 215.25 266.27 208.01C266.27 200.77 267.73 195.13 270.64 191.16C273.55 187.19 277.47 185.21 282.39 185.21C287.31 185.21 291.22 187.19 294.11 191.16C297.01 195.13 298.46 200.73 298.46 207.97C298.46 215.21 297 220.78 294.09 224.76" fill="#231815"/>
<path d="M290.04 0V19.47L294.83 30.49L292.43 97.33L297.38 106.87V145.65H305.03V113.59L299.77 95.77V0H290.04Z" fill="#BEC600"/>
<path d="M339.31 18.06V0H333.83V20.17L330.7 27.94V0H325.97V145.65H329.8V118.6H332.91V145.65H336.98V97.65L339.31 94.64V68.61L336.74 60.17V23.81L339.31 18.06ZM330.7 74.41V44.14L332.91 48.17V75.74L330.7 74.42V74.41Z" fill="#46A83D"/>
<path d="M346.34 0V131.81H343.97V145.65H352.98V127.04H349.39V108.04L352.98 105.7V58.63L349.31 52.26V19.7L352.98 11.73V0H346.34Z" fill="#BEC600"/>
<path d="M377.05 0V9.73H385.06V145.65H387.9V137.2L390.53 133.84V94.52L387.5 90.06V24.24L390.53 18.69V0H377.05Z" fill="#46A83D"/>
<path d="M400.24 0V145.65H407.5V137.12H402.99V95.14L405.18 89.36V64.81L402.63 60.59V16.77L406.1 10.67V0H400.24Z" fill="#BEC600"/>
<path d="M416.52 0V6.02H415.25V26.66L412.61 29.86V55.19L414.57 59.18V145.65H418.83V70.13H420.19V9.46H421.39V0H416.52Z" fill="#6EA52F"/>
<path d="M432.2 43.62V15.48L430.58 11.02V0H427.58V86.54L425.03 91.94V124.62H427.58V145.65H433.24L436.13 120.67V65.67L432.2 43.62Z" fill="#46A83D"/>
<path d="M370.15 72.82V0H361.14V11.73H362.49V56.52H363.89V81.03H361.14V109.76H363.89V127.24H361.14V145.65H377.05V101.67L370.15 72.82Z" fill="#6EA52F"/>
<path d="M317 42.8V14.19L314.52 9.26V0H305.03V17.28L312.53 45.27V145.65H317V121.72L315.32 118.99V51.2L317 42.8Z" fill="#6EA52F"/>
<path d="M21.68 306.55C21.45 306.81 21 307.07 20.35 307.23V331.05C20.28 331.31 18.76 332.09 17.56 332.09H17.04V329.26H3.18V331.11C3.18 331.53 1.95 332.31 0.55 332.31H0V304.26L3.44 305.69H16.7L18.36 303.9L21.67 306.53L21.68 306.55ZM3.19 306.65V316.82H17.04V306.65H3.18H3.19ZM17.04 328.33V317.77H3.18V328.33H17.03H17.04Z" fill="black"/>
<path d="M46.6 310.62C49.39 316.54 54.63 321.48 59.63 323.82L59.56 324.18C58.23 324.38 57.19 325.38 56.64 326.91C51.83 323.56 48.12 317.94 45.95 310.66V324.18H47.77L49.56 321.68C49.56 321.68 51.61 323.4 52.81 324.6C52.71 324.96 52.39 325.12 51.93 325.12H45.95V331.49C45.95 331.85 44.68 332.46 43.41 332.46H42.79V325.12H36.42L36.16 324.18H42.79V314.79C39.93 320.12 35.44 324.67 29.53 327.86L29.17 327.5C34.6 323.31 38.69 316.81 40.74 310.63H30.7L30.41 309.69H42.79V302.31L47.28 302.76C47.21 303.25 46.92 303.6 45.95 303.77V309.68H53.07L55.12 307.02C55.12 307.02 57.39 308.84 58.73 310.11C58.63 310.47 58.31 310.63 57.82 310.63H46.61L46.6 310.62Z" fill="black"/>
<path d="M83.13 307.17C95.32 311.14 93.56 318.9 90.05 316.73C89.69 315.62 89.04 314.49 88.26 313.32C83.32 314.2 76.2 315.27 67.69 316.28C67.43 316.61 67.17 316.8 66.88 316.9L65.65 313.26C65.65 313.26 66.43 313.1 66.75 312.9C70.29 310.85 75.2 305.39 76.92 302.3L81.31 304.18C81.15 304.51 80.72 304.8 79.98 304.67C77.51 307.37 72.83 310.91 68.7 313.28C73.06 313.22 80.24 312.92 87.71 312.57C86.28 310.62 84.43 308.8 82.8 307.47L83.13 307.18V307.17ZM87.03 317.34L90.44 320.01C90.21 320.3 89.73 320.59 88.98 320.76V331.39C88.95 331.58 87.36 332.17 86.28 332.17H85.76V329.6H72.21V331.39C72.21 331.72 70.78 332.43 69.48 332.43H68.99V317.74L72.4 319.17H85.4L87.02 317.35L87.03 317.34ZM85.76 328.65V320.1H72.21V328.65H85.76Z" fill="black"/>
<path d="M124.56 304.47C124.56 304.47 126.84 306.13 128.23 307.36C128.13 307.72 127.81 307.88 127.35 307.88H114.9V312.14H122.34L123.87 310.42L127.19 312.99C126.96 313.22 126.48 313.51 125.82 313.64V328.72C125.82 330.9 125.3 332.23 121.37 332.59C121.27 331.62 121.11 330.87 120.62 330.45C120.07 329.96 119.29 329.57 117.63 329.34V328.85C117.63 328.85 121.08 329.11 121.92 329.11C122.51 329.11 122.67 328.85 122.67 328.4V313.09H104.44V331.42C104.44 331.78 103.11 332.56 101.81 332.56H101.32V310.72L104.7 312.15H111.79V307.89H98.89L98.63 306.95H111.79V302.24L116.08 302.63C116.01 303.08 115.75 303.41 114.91 303.54V306.95H122.58L124.56 304.48V304.47ZM114.78 324.91V330.99C114.78 331.15 113.84 331.67 112.31 331.67H111.79V324.91H105.65L105.39 323.97H111.79V320H106.43L106.17 319.06H114.26C114.88 317.44 115.56 315.13 115.98 313.5L119.78 314.61C119.65 315 119.23 315.26 118.54 315.23C117.66 316.34 116.4 317.83 115.13 319.07H117.11L118.61 317.32C118.61 317.32 120.3 318.56 121.31 319.5C121.24 319.86 120.92 320.02 120.5 320.02H114.78V323.99H117.12L118.74 322.01C118.74 322.01 120.59 323.41 121.73 324.42C121.63 324.78 121.31 324.94 120.85 324.94H114.77L114.78 324.91ZM107.76 313.66C114.36 315.58 111.59 320.39 109.19 318.31C109.13 316.81 108.25 314.96 107.44 313.86L107.77 313.66H107.76Z" fill="black"/>
<path d="M145.35 305.87C145.09 306.16 144.64 306.26 143.89 306.29C142.75 308.3 140.7 311.85 139.14 313.86C142.78 316.17 144.24 319.19 144.24 321.82C144.27 325.01 143 326.7 139.43 326.79C139.43 325.91 139.3 324.78 139.04 324.38C138.78 324.09 138.16 323.83 137.35 323.7V323.25H139.72C140.04 323.25 140.24 323.19 140.5 323.06C141.02 322.77 141.31 322.15 141.31 321.01C141.31 318.7 140.47 316.23 138.32 313.93C139 311.88 140.01 308.05 140.59 305.45H136.95V331.55C136.95 331.78 136.01 332.56 134.58 332.56H134.06V303.18L137.34 304.51H140.4L142.12 302.82L145.34 305.87H145.35ZM161.99 320.07C161.8 320.33 161.47 320.36 160.92 320.17C159.72 320.92 157.25 322.12 154.91 322.93C157.06 325.92 159.88 328.16 163.2 329.33L163.17 329.69C162.07 329.95 161.16 330.83 160.83 332.26C155.63 329.43 152.8 324.39 151.37 316.95H148.35V328.26C149.97 327.84 151.93 327.28 153.81 326.7L153.91 327.12C152.48 328.06 149.72 329.91 146.63 331.67C146.37 332.16 145.98 332.48 145.69 332.61L144.13 329.33C145.23 328.78 145.43 328.52 145.43 327.71V303.07L148.78 304.57H156.42L157.92 302.91L161.07 305.35C160.87 305.61 160.39 305.87 159.74 306.03V317.24C159.74 317.37 159.41 317.57 159.02 317.76L162.01 320.07H161.99ZM156.73 310.12V305.5H148.34V310.12H156.73ZM148.34 316H156.73V311.06H148.34V316ZM152.01 316.94C152.56 318.82 153.41 320.61 154.45 322.24C155.85 320.94 157.44 319.15 158.35 318.01C157.99 318.11 157.57 318.21 157.21 318.21H156.72V316.94H152.01Z" fill="black"/>
<path d="M193.81 328.56C193.81 328.56 195.92 330.18 197.19 331.36C197.09 331.72 196.77 331.88 196.28 331.88H167.74L167.45 330.94H180.61V328.18H170.18L169.92 327.27H180.61V324.77H175.44V325.42C175.44 325.71 174.04 326.39 172.81 326.39H172.35V315.6L175.67 316.97H188.57L190.13 315.25L193.45 317.79C193.22 318.08 192.7 318.34 192.02 318.5V324.9C192.02 324.9 191.92 325 191.79 325.09C192.02 325.25 193.8 326.65 194.94 327.66C194.84 328.02 194.52 328.18 194.06 328.18H183.6V330.94H191.95L193.8 328.57L193.81 328.56ZM167.91 314.85L167.65 313.91H191.96L193.71 311.73C193.71 311.73 195.69 313.23 196.86 314.33C196.8 314.69 196.44 314.85 196.02 314.85H167.91ZM175.78 312.35C175.78 312.61 174.41 313.29 173.15 313.29H172.73V302.99L175.98 304.32H188.23L189.73 302.66L192.98 305.1C192.78 305.36 192.3 305.65 191.65 305.78V312.09C191.62 312.32 190.06 312.87 189.05 312.87H188.56V311.8H175.79V312.35H175.78ZM175.45 317.91V320.38H180.62V317.91H175.45ZM180.62 323.83V321.33H175.45V323.83H180.62ZM175.78 305.24V307.55H188.55V305.24H175.78ZM188.55 310.86V308.45H175.78V310.86H188.55ZM183.61 317.91V320.38H188.91V317.91H183.61ZM188.91 321.32H183.61V323.82H188.91V321.32ZM183.61 327.27H190.04L191.73 325.13C191.21 325.36 190.17 325.68 189.42 325.68H188.9V324.77H183.6V327.27H183.61Z" fill="black"/>
<path d="M209.86 333.69H208.56V301.19H209.86V333.69Z" fill="black"/>
<path d="M237.58 323.19H233.87V329.79H230.59V323.19H220.94V321.24L231.47 306.48H233.87V320.78H237.58V323.19ZM230.59 320.78V309.76L222.76 320.78H230.59Z" fill="black"/>
<path d="M245.21 316.04C246.45 315.65 247.65 315.49 249.04 315.49C253.88 315.49 257.07 318.06 257.07 322.64C257.07 327.22 253.59 330.28 248.46 330.28C244.63 330.28 242.19 328.46 241.6 325.15C241.89 324.34 242.57 323.95 243.35 323.95C244.42 323.95 244.97 324.53 245.36 326.26L245.91 328.7C246.59 328.9 247.24 328.99 248.02 328.99C251.43 328.99 253.41 326.71 253.41 323.07C253.41 319.43 251.33 317.35 248.05 317.35C246.81 317.35 245.64 317.48 244.51 317.84L243.57 317.48L244.32 306.69H256.35V309.74H245.62L245.2 316.05L245.21 316.04Z" fill="black"/>
<path d="M261.91 319.68H270.49V321.82H261.91V319.68Z" fill="black"/>
<path d="M289.7 307.11C283.1 308.64 279.66 312.31 279.01 317.83C280.47 316.37 282.32 315.56 284.34 315.56C288.27 315.56 290.84 318.42 290.84 322.64C290.84 327.39 287.79 330.28 283.3 330.28C278.33 330.28 275.27 326.61 275.27 320.33C275.27 313.18 280.6 307.2 289.51 306.19L289.7 307.1V307.11ZM287.26 323C287.26 319.23 285.7 317.47 283.2 317.47C281.77 317.47 280.24 317.86 278.91 319.06C278.88 319.32 278.88 319.58 278.88 319.84C278.88 326.01 280.6 328.97 283.33 328.97C285.64 328.97 287.26 327.05 287.26 322.99V323Z" fill="black"/>
<path d="M310.69 306.68V308.63L302.34 329.79H299.02L298.7 329.46L308.68 309.73H295.94V306.68H310.69Z" fill="black"/>
<path d="M322.52 322.93C323.98 322.44 325.54 321.89 327.1 321.37L327.26 321.76C325.15 323.22 321.96 325.4 317.61 328C317.51 328.42 317.22 328.78 316.86 328.91L315.17 325.27C316.08 325.04 317.64 324.56 319.53 323.94V313.08H315.82L315.56 312.14H319.52V303.59L323.71 303.98C323.65 304.4 323.38 304.76 322.51 304.86V312.14H323.1L324.63 309.73C324.63 309.73 326.35 311.45 327.3 312.56C327.24 312.92 326.91 313.08 326.46 313.08H322.53V322.93H322.52ZM342.87 316.62C342.87 316.62 345.01 318.31 346.28 319.51C346.22 319.87 345.86 320.03 345.4 320.03H336.69V331.86C336.66 332.06 335.68 332.74 334.12 332.74H333.6V320.03H324.76L324.5 319.09H333.6V306.19H325.83L325.57 305.25H340.46L342.28 302.91C342.28 302.91 344.33 304.5 345.53 305.67C345.43 306.03 345.11 306.19 344.65 306.19H336.69V319.09H340.98L342.86 316.62H342.87ZM327.56 308.14C334.52 313.47 331.56 319.42 328.93 316.69C328.96 313.96 328.02 310.68 327.14 308.3L327.56 308.14ZM337.99 317.34C338.83 314.93 339.81 311.2 340.43 307.98L344.78 309.35C344.62 309.74 344.26 310.03 343.55 310.03C342.09 312.79 340.27 315.62 338.48 317.57L337.99 317.34Z" fill="black"/>
<path d="M357.71 311.4C357.61 311.69 357.29 311.92 356.74 312.02V331.59C356.67 331.82 355.44 332.53 354.3 332.53H353.75V315.17C352.61 316.8 351.38 318.26 350.01 319.53L349.59 319.24C352.09 315.11 354.59 308.68 355.8 302.4L360.22 303.7C360.06 304.09 359.7 304.38 358.95 304.35C358.17 306.69 357.29 308.87 356.25 310.88L357.71 311.4ZM365.12 315.27C371.46 318 369.12 322.42 366.91 320.54C366.71 319.17 365.93 317.52 365.12 316.22V331.69C365.12 331.92 364.18 332.6 362.81 332.6H362.32V320.64C361.09 322.95 359.53 325.09 357.67 326.94L357.25 326.55C359.49 323.04 360.92 318.26 361.77 313.74H358.19L357.93 312.8H362.32V306.98C361.02 307.17 359.69 307.37 358.45 307.5L358.32 307.04C361.37 305.94 365.18 303.99 367.1 302.68L370.45 305.57C370.09 305.86 369.47 305.9 368.56 305.6C367.59 305.86 366.38 306.15 365.11 306.44V312.78H366.18L367.68 310.73C367.68 310.73 369.37 312.16 370.38 313.2C370.31 313.56 369.96 313.72 369.54 313.72H365.12V315.25V315.27ZM373.86 316.93C382.7 326.22 380.62 334.71 377.27 331.49C377.2 330.29 377.01 329.02 376.75 327.69C374.7 328.44 372 329.41 368.95 330.36C368.69 330.91 368.37 331.3 367.97 331.46L366.09 327.5C366.09 327.5 367.03 327.17 367.29 326.75C369.4 322 372.62 310.43 373.4 303.84L378.21 305.56C378.05 305.98 377.59 306.31 376.84 306.31C375.15 312.55 371.51 321.81 368.16 327.53C370.21 327.34 373.23 327.04 376.51 326.69C375.73 323.37 374.46 319.9 373.33 317.1L373.85 316.94L373.86 316.93Z" fill="black"/>
<path d="M388.71 307.98C388.84 310.19 388.03 311.65 387.02 312.37C386.14 313.02 384.65 312.89 384.23 311.82C383.87 310.85 384.46 310 385.33 309.58C386.57 308.93 387.74 307.14 387.64 305.26H388.16C388.39 305.88 388.55 306.49 388.65 307.05H398.73C398.6 306.99 398.5 306.89 398.37 306.79C398.4 305.23 397.62 303.47 396.65 302.43L396.91 302.24C402.27 302.99 402.4 305.98 401.04 307.05H410.3L412.09 305.23L415.18 308.25C414.95 308.51 414.6 308.57 413.95 308.61C412.97 309.88 411.19 311.63 409.82 312.67L409.46 312.47C409.82 311.23 410.24 309.42 410.53 307.98H388.72H388.71ZM412.83 328.29C413.87 328.65 414.16 329 414.16 329.66C414.16 331.06 412.73 331.61 405.71 331.61H401.06C397.48 331.61 396.44 331.03 396.44 328.49V321.08H385.39L385.1 320.14H396.44V314.29C393.39 314.65 390.27 314.91 387.24 315L387.14 314.48C393.61 313.5 401.54 311.39 405.57 309.6L408.69 312.53C408.37 312.82 407.72 312.85 406.81 312.5C404.76 312.99 402.23 313.48 399.53 313.87V320.14H407.56L409.61 317.57C409.61 317.57 411.89 319.32 413.28 320.56C413.22 320.92 412.86 321.08 412.37 321.08H399.53V327.74C399.53 328.49 399.79 328.72 401.45 328.72H405.94C407.76 328.72 409.22 328.69 409.9 328.65C410.42 328.59 410.61 328.45 410.84 328.1C411.23 327.45 411.72 325.66 412.34 323.32H412.73L412.83 328.29Z" fill="black"/>
<path d="M427.19 333.69H425.89V301.19H427.19V333.69Z" fill="black"/>
<path d="M457.69 325.2C457.69 329.18 454.35 331.89 449.35 331.89C444.35 331.89 441.36 329.64 441.36 325.84C441.36 322.95 443.33 320.95 447.06 319.33C443.65 317.54 442.1 315.21 442.1 312.4C442.1 308.35 445.44 305.82 449.63 305.82C454.07 305.82 456.6 308.35 456.6 311.66C456.6 313.7 455.37 315.88 451.74 317.75C455.79 319.72 457.69 321.87 457.69 325.21V325.2ZM454.1 325.94C454.1 323.58 452.69 321.93 448.12 319.82C445.87 321.37 444.78 322.85 444.78 325.35C444.78 328.55 446.65 330.52 449.57 330.52C452.49 330.52 454.11 328.65 454.11 325.94H454.1ZM450.65 317.24C452.69 315.55 453.43 313.97 453.43 311.78C453.43 309.21 452.06 307.24 449.56 307.24C447.38 307.24 445.44 308.79 445.44 311.25C445.44 313.36 446.46 315.26 450.65 317.23V317.24Z" fill="black"/>
<path d="M479.66 325.2C479.66 329.18 476.32 331.89 471.32 331.89C466.32 331.89 463.33 329.64 463.33 325.84C463.33 322.95 465.3 320.95 469.03 319.33C465.62 317.54 464.07 315.21 464.07 312.4C464.07 308.35 467.41 305.82 471.6 305.82C476.04 305.82 478.57 308.35 478.57 311.66C478.57 313.7 477.34 315.88 473.71 317.75C477.76 319.72 479.66 321.87 479.66 325.21V325.2ZM476.07 325.94C476.07 323.58 474.66 321.93 470.09 319.82C467.84 321.37 466.75 322.85 466.75 325.35C466.75 328.55 468.62 330.52 471.54 330.52C474.46 330.52 476.08 328.65 476.08 325.94H476.07ZM472.62 317.24C474.66 315.55 475.4 313.97 475.4 311.78C475.4 309.21 474.03 307.24 471.53 307.24C469.35 307.24 467.41 308.79 467.41 311.25C467.41 313.36 468.43 315.26 472.62 317.23V317.24Z" fill="black"/>
<path d="M500.67 306.79C493.52 308.44 489.79 312.42 489.09 318.41C490.67 316.83 492.68 315.95 494.86 315.95C499.12 315.95 501.9 319.05 501.9 323.62C501.9 328.76 498.59 331.89 493.73 331.89C488.34 331.89 485.04 327.91 485.04 321.12C485.04 313.38 490.81 306.9 500.46 305.81L500.67 306.8V306.79ZM498.03 324C498.03 319.92 496.34 318.02 493.63 318.02C492.08 318.02 490.43 318.44 488.98 319.75C488.94 320.03 488.94 320.31 488.94 320.59C488.94 327.28 490.81 330.48 493.76 330.48C496.26 330.48 498.02 328.4 498.02 324H498.03Z" fill="black"/>
<path d="M507.05 320.41H516.34V322.73H507.05V320.41Z" fill="black"/>
<path d="M537.14 306.79C529.99 308.44 526.26 312.42 525.56 318.41C527.14 316.83 529.15 315.95 531.33 315.95C535.59 315.95 538.37 319.05 538.37 323.62C538.37 328.76 535.06 331.89 530.2 331.89C524.81 331.89 521.5 327.91 521.5 321.12C521.5 313.38 527.27 306.9 536.92 305.81L537.13 306.8L537.14 306.79ZM534.5 324C534.5 319.92 532.81 318.02 530.1 318.02C528.55 318.02 526.9 318.44 525.45 319.75C525.41 320.03 525.41 320.31 525.41 320.59C525.41 327.28 527.28 330.48 530.23 330.48C532.73 330.48 534.49 328.4 534.49 324H534.5Z" fill="black"/>
<path d="M543.52 320.41H552.81V322.73H543.52V320.41Z" fill="black"/>
<path d="M574.71 328.05V331.36H558.41V328.83C560.52 326.65 562.56 324.46 564.29 322.7C568.23 318.55 569.82 315.77 569.82 312.53C569.82 309.29 568.02 307.25 565.14 307.25C564.61 307.25 563.94 307.32 563.24 307.46L562.43 310.45C562.01 312.35 561.23 312.95 560.21 312.95C559.37 312.95 558.7 312.49 558.27 311.72C558.73 307.81 562.28 305.81 566.33 305.81C571.4 305.81 573.76 308.56 573.76 312.5C573.76 315.88 571.61 318.7 565.52 323.94C564.43 324.93 562.81 326.44 561.01 328.06H574.7L574.71 328.05Z" fill="black"/>
<path d="M595.58 306.79C588.43 308.44 584.7 312.42 584 318.41C585.58 316.83 587.59 315.95 589.77 315.95C594.03 315.95 596.81 319.05 596.81 323.62C596.81 328.76 593.5 331.89 588.64 331.89C583.25 331.89 579.95 327.91 579.95 321.12C579.95 313.38 585.72 306.9 595.37 305.81L595.58 306.8V306.79ZM592.94 324C592.94 319.92 591.25 318.02 588.54 318.02C586.99 318.02 585.34 318.44 583.89 319.75C583.85 320.03 583.85 320.31 583.85 320.59C583.85 327.28 585.72 330.48 588.67 330.48C591.17 330.48 592.93 328.4 592.93 324H592.94Z" fill="black"/>
<path d="M618.67 318.9C618.67 328.3 614.62 331.89 610.36 331.89C606.1 331.89 602.02 328.3 602.02 318.9C602.02 309.5 606.03 305.81 610.36 305.81C614.69 305.81 618.67 309.51 618.67 318.9ZM610.36 330.48C612.65 330.48 614.8 328.02 614.8 318.9C614.8 309.78 612.65 307.25 610.36 307.25C608.07 307.25 605.89 309.71 605.89 318.9C605.89 328.09 607.97 330.48 610.36 330.48Z" fill="black"/>
<path d="M640.61 328.05V331.36H624.31V328.83C626.42 326.65 628.46 324.46 630.19 322.7C634.13 318.55 635.72 315.77 635.72 312.53C635.72 309.29 633.92 307.25 631.04 307.25C630.51 307.25 629.84 307.32 629.14 307.46L628.33 310.45C627.91 312.35 627.13 312.95 626.11 312.95C625.27 312.95 624.6 312.49 624.17 311.72C624.63 307.81 628.18 305.81 632.23 305.81C637.3 305.81 639.66 308.56 639.66 312.5C639.66 315.88 637.51 318.7 631.42 323.94C630.33 324.93 628.71 326.44 626.91 328.06H640.6L640.61 328.05Z" fill="black"/>
<path d="M645.89 320.41H655.18V322.73H645.89V320.41Z" fill="black"/>
<path d="M676.76 306.33V308.44L667.71 331.36H664.12L663.77 331.01L674.58 309.64H660.78V306.33H676.76Z" fill="black"/>
<path d="M698.73 306.33V308.44L689.68 331.36H686.09L685.74 331.01L696.55 309.64H682.75V306.33H698.73Z" fill="black"/>
<path d="M720.69 306.33V308.44L711.64 331.36H708.05L707.7 331.01L718.51 309.64H704.71V306.33H720.69Z" fill="black"/>
</svg>
