<svg width="721" height="334" viewBox="0 0 721 334" fill="#000" xmlns="http://www.w3.org/2000/svg">
<path fill="#BEC600" d="M290,0v19.5l4.8,11l-2.4,66.8l5,9.5v38.8h7.6v-32.1l-5.3-17.8V0H290z M346.3,0v131.8H344v13.8h9V127h-3.6v-19
	l3.6-2.3V58.6l-3.7-6.4V19.7l3.7-8V0H346.3z M400.2,0v145.6h7.3v-8.5H403v-42l2.2-5.8V64.8l-2.5-4.2V16.8l3.5-6.1V0H400.2z"/>
<path fill="#46A83D" d="M339.3,18.1V0h-5.5v20.2l-3.1,7.8V0H326v145.6h3.8v-27h3.1v27h4.1v-48l2.3-3v-26l-2.6-8.4V23.8L339.3,18.1z
	 M330.7,74.4V44.1l2.2,4v27.6L330.7,74.4L330.7,74.4z M377,0v9.7h8v135.9h2.8v-8.4l2.6-3.4V94.5l-3-4.5V24.2l3-5.5V0H377z
	 M432.2,43.6V15.5l-1.6-4.5V0h-3v86.5l-2.5,5.4v32.7h2.5v21h5.7l2.9-25v-55L432.2,43.6z"/>
<path fill="#6EA52F" d="M416.5,0v6h-1.3v20.6l-2.6,3.2v25.3l2,4v86.5h4.3V70.1h1.4V9.5h1.2V0H416.5z M370.1,72.8V0h-9v11.7h1.3v44.8
	h1.4V81H361v28.7h2.8v17.5H361v18.4h16v-44L370.1,72.8z M317,42.8V14.2l-2.5-4.9V0H305v17.3l7.5,28v100.4h4.5v-23.9l-1.7-2.7V51.2
	L317,42.8z"/>
<path d="M21.7,306.5c-0.2,0.3-0.7,0.5-1.3,0.7V331c-0.1,0.4-2.2,1.2-3.3,1v-2.8H3.2c0.3,2.1-0.4,3.1-3.2,3v-28l3.4,1.4h13.3l1.7-1.8
	C18.4,303.9,21.7,306.5,21.7,306.5z M3.2,306.6v10.2H17v-10.2H3.2L3.2,306.6z M17,328.3v-10.6H3.2v10.6H17z M46.6,310.6
	c2.8,5.9,8,10.9,13,13.2l-0.1,0.4c-1.3,0.2-2.4,1.2-2.9,2.7c-4.8-3.4-8.5-9-10.7-16.2v13.5h1.8l1.8-2.5c0,0,2,1.7,3.2,2.9
	c-0.1,1.1-6.2,0.3-6.9,0.5v6.4c0.1,0.5-2.1,1.1-3.2,1v-7.3h-6.4l-0.3-0.9h6.6v-9.4c-2.9,5.3-7.4,9.9-13.3,13.1l-0.4-0.4
	c5.4-4.2,9.5-10.7,11.6-16.9h-10l-0.3-0.9h12.4v-7.4l4.5,0.5c-0.1,0.5-0.4,0.8-1.3,1v5.9h7.1l2-2.7c0,0,2.3,1.8,3.6,3.1
	C59.1,311.2,47,310.4,46.6,310.6L46.6,310.6z M83.1,307.2c12.2,4,10.4,11.7,6.9,9.6c-0.4-1.1-1-2.2-1.8-3.4
	c-4.9,0.9-12.1,1.9-20.6,3c-0.3,0.3-0.5,0.5-0.8,0.6l-1.2-3.6c4.2-1.4,9.3-7.7,11.3-11l4.4,1.9c-0.2,0.3-0.6,0.6-1.3,0.5
	c-2.5,2.7-7.2,6.2-11.3,8.6c4.4-0.1,11.5-0.4,19-0.7c-1.4-2-3.3-3.8-4.9-5.1L83.1,307.2L83.1,307.2z M87,317.3l3.4,2.7
	c-0.2,0.3-0.7,0.6-1.5,0.8v10.6c0,0.3-2.2,0.9-3.2,0.8v-2.6H72.2c0.3,2.2-0.5,2.8-3.2,2.8v-14.7l3.4,1.4h13
	C85.4,319.2,87,317.4,87,317.3z M85.8,328.6v-8.5H72.2v8.5H85.8z M124.6,304.5c0,0,2.3,1.7,3.7,2.9c0.2,1.1-12.9,0.3-13.3,0.5v4.3
	h7.4l1.5-1.7l3.3,2.6c-0.2,0.2-0.7,0.5-1.4,0.7v15.1c0,2.2-0.5,3.5-4.4,3.9c-0.3-2.4-1.1-2.7-3.7-3.2v-0.5c0.2-0.3,5.1,1.1,5-0.4
	v-15.3h-18.2v18.3c0,0.5-1.9,1.3-3.1,1.1V311l3.4,1.4h7.1v-4.3h-13l-0.3-0.9h13.2v-4.7l4.3,0.4c-0.1,0.4-0.3,0.8-1.2,0.9v3.4h7.7
	L124.6,304.5L124.6,304.5z M114.8,324.9v6.1c0.2,0.2-1.8,0.8-3,0.7v-6.8h-6.1l-0.3-0.9h6.4v-4h-5.4l-0.3-0.9h8.1
	c0.6-1.6,1.3-3.9,1.7-5.6l3.8,1.1c-0.1,0.4-0.5,0.7-1.2,0.6c-0.9,1.1-2.1,2.6-3.4,3.8h2l1.5-1.8c0,0,1.7,1.2,2.7,2.2
	c-0.1,1.1-5.9,0.3-6.5,0.5v4h2.3l1.6-2c0,0,1.8,1.4,3,2.4C121.6,325.5,115.4,324.7,114.8,324.9L114.8,324.9z M107.8,313.7
	c6.6,1.9,3.8,6.7,1.4,4.6c-0.1-1.5-0.9-3.4-1.8-4.5L107.8,313.7L107.8,313.7z M145.4,305.9c-0.3,0.3-0.7,0.4-1.5,0.4
	c-1.1,2-3.2,5.6-4.8,7.6c5.8,3.3,7.9,12.6,0.3,12.9c-0.1-1.9,0-2.8-2.1-3.1v-0.5c6.3,1.2,4.1-6.1,1-9.3c0.7-2,1.7-5.9,2.3-8.5H137
	v26.1c0.1,0.3-1.7,1.2-2.9,1v-29.4l3.3,1.3h3.1l1.7-1.7L145.4,305.9L145.4,305.9z M162,320.1c-0.2,0.3-0.5,0.3-1.1,0.1
	c-1.2,0.8-3.7,1.9-6,2.8c2.1,3,5,5.2,8.3,6.4v0.4c-1.1,0.3-2,1.1-2.3,2.6c-5.2-2.8-8-7.9-9.5-15.3h-3v11.3c1.6-0.4,3.6-1,5.5-1.6
	l0.1,0.4c-1.4,0.9-4.2,2.8-7.3,4.6c-0.3,0.5-0.7,0.8-0.9,0.9l-1.6-3.3c2.7,1,0.8-25.4,1.3-26.3l3.4,1.5h7.6l1.5-1.7l3.2,2.4
	c-0.2,0.3-0.7,0.5-1.3,0.7c-0.3,0.5,0.7,12.1-0.7,11.7L162,320.1L162,320.1z M156.7,310.1v-4.6h-8.4v4.6H156.7z M148.3,316h8.4v-4.9
	h-8.4V316z M152,316.9c0.6,1.9,1.4,3.7,2.4,5.3c1.4-1.3,3-3.1,3.9-4.2c-0.5,0.2-1.1,0.2-1.6,0.2v-1.3H152z M193.8,328.6
	c0,0,2.1,1.6,3.4,2.8c-0.1,0.4-0.4,0.5-0.9,0.5h-28.5l-0.3-0.9h13.2v-2.8h-10.4l-0.3-0.9h10.7v-2.5h-5.2c0.4,1.2-1.6,1.6-3.1,1.6
	v-10.8l3.3,1.4h12.9l1.6-1.7l3.3,2.5c-0.2,0.3-0.8,0.5-1.4,0.7v6.4c0,0-0.1,0.1-0.2,0.2c0.2,0.2,2,1.6,3.2,2.6
	c0.3,1.1-10.9,0.3-11.3,0.5v2.8h8.3C192,330.9,193.8,328.6,193.8,328.6z M167.9,314.9l-0.3-0.9H192l1.8-2.2c0,0,2,1.5,3.1,2.6
	c-0.1,0.4-0.4,0.5-0.8,0.5H167.9z M175.8,312.4c0,0.3-1.9,1.1-3.1,0.9V303l3.2,1.3h12.2l1.5-1.7l3.2,2.4c-0.2,0.3-0.7,0.5-1.3,0.7
	v6.3c-0.1,0.3-2.2,0.9-3.1,0.8v-1.1h-12.8L175.8,312.4L175.8,312.4z M175.4,317.9v2.5h5.2v-2.5H175.4z M180.6,323.8v-2.5h-5.2v2.5
	H180.6z M175.8,305.2v2.3h12.8v-2.3H175.8z M188.6,310.9v-2.4h-12.8v2.4H188.6z M183.6,317.9v2.5h5.3v-2.5H183.6z M188.9,321.3h-5.3
	v2.5h5.3V321.3z M183.6,327.3h6.4l1.7-2.1c-0.7,0.3-1.9,0.6-2.8,0.5v-0.9h-5.3L183.6,327.3L183.6,327.3z M209.9,333.7h-1.3v-32.5
	h1.3V333.7z M237.6,323.2h-3.7v6.6h-3.3v-6.6H221v-2l10.5-14.8h2.4v14.3h3.7L237.6,323.2L237.6,323.2z M230.6,320.8v-11l-7.8,11
	H230.6z M245.2,316c12.6-4.7,17.2,13.9,3.2,14.2c-11.7-0.4-4.6-13.3-2.5-1.6c11,2.7,9.2-15.3-1.4-10.9l-0.9-0.4l0.8-10.8h12v3h-10.7
	L245.2,316L245.2,316z M261.9,319.7h8.6v2.1h-8.6V319.7z M289.7,307.1c-6.6,1.5-10,5.2-10.7,10.7c10.9-9.6,17.8,12.3,4.3,12.5
	c-14.3-1.5-8.2-24.1,6.2-24.1L289.7,307.1z M287.3,323c0.2-6-4.7-6.9-8.4-3.9C277.5,329,286.6,333.5,287.3,323L287.3,323z
	 M310.7,306.7c1.3,0-8.3,22.5-8.4,23.1H299l-0.3-0.3l10-19.7H296v-3.1H310.7z M322.5,322.9c1.5-0.5,3-1,4.6-1.6l0.2,0.4
	c-2.1,1.5-5.3,3.6-9.7,6.2c-0.1,0.4-0.4,0.8-0.8,0.9l-1.7-3.6c0.9-0.2,2.5-0.7,4.4-1.3V313h-3.7l-0.3-0.9h4v-8.6l4.2,0.4
	c-0.1,0.4-0.3,0.8-1.2,0.9v7.3h0.6l1.5-2.4c0,0,1.7,1.7,2.7,2.8c-0.1,1-4.1,0.3-4.8,0.5L322.5,322.9L322.5,322.9z M342.9,316.6
	c0,0,2.1,1.7,3.4,2.9c0.1,1.1-9.1,0.3-9.6,0.5v11.8c0.1,0.3-1.8,1.1-3.1,0.9V320h-8.8l-0.3-0.9h9.1v-12.9h-7.8l-0.3-0.9h14.9
	l1.8-2.3c0,0,2,1.6,3.2,2.8c0,1.1-8.3,0.3-8.8,0.5v12.9h4.3L342.9,316.6L342.9,316.6z M327.6,308.1c7,5.3,4,11.3,1.4,8.5
	c0-2.7-0.9-6-1.8-8.4L327.6,308.1z M338,317.3c0.8-2.4,1.8-6.1,2.4-9.4l4.4,1.4c-0.2,0.4-0.5,0.7-1.2,0.7c-1.5,2.8-3.3,5.6-5.1,7.5
	L338,317.3z M357.7,311.4c-0.1,0.3-0.4,0.5-1,0.6v19.6c0,0.3-2,1.1-3,0.9v-17.4c-1.1,1.6-2.4,3.1-3.7,4.4l-0.4-0.3
	c2.5-4.1,5-10.6,6.2-16.8l4.4,1.3c-0.2,0.4-0.5,0.7-1.3,0.6c-0.8,2.3-1.7,4.5-2.7,6.5L357.7,311.4z M365.1,315.3
	c6.3,2.7,4,7.2,1.8,5.3c-0.2-1.4-1-3-1.8-4.3v15.5c0.1,0.3-1.7,1.1-2.8,0.9v-12c-1.2,2.3-2.8,4.4-4.6,6.3l-0.4-0.4
	c2.2-3.5,3.7-8.3,4.5-12.8h-3.6l-0.3-0.9h4.4V307c-1.3,0.2-2.6,0.4-3.9,0.5l-0.1-0.5c3-1.1,6.9-3.1,8.8-4.4l3.4,2.9
	c-0.4,0.3-1,0.3-1.9,0c-1,0.3-2.2,0.5-3.5,0.8v6.3h1.1l1.5-2c0,0,1.7,1.4,2.7,2.5c-0.1,1-4.6,0.3-5.3,0.5
	C365.1,313.8,365.1,315.2,365.1,315.3z M373.9,316.9c8.8,9.3,6.8,17.8,3.4,14.6c-0.1-1.2-0.3-2.5-0.5-3.8c-2,0.8-4.8,1.7-7.8,2.7
	c-0.3,0.6-0.6,0.9-1,1.1l-1.9-4c4.1-3.6,6-17,7.3-23.7l4.8,1.7c-0.2,0.4-0.6,0.8-1.4,0.8c-1.7,6.2-5.3,15.5-8.7,21.2
	c2-0.2,5.1-0.5,8.4-0.8c-0.8-3.3-2.1-6.8-3.2-9.6C373.3,317.1,373.9,317,373.9,316.9z M388.7,308c0.7,6.6-7.7,5.3-3.4,1.6
	c1.2-0.6,2.4-2.4,2.3-4.3h0.5c0.2,0.6,0.4,1.2,0.5,1.8h10.1c-0.1-0.1-0.2-0.2-0.4-0.3c0-1.6-0.8-3.3-1.7-4.4l0.3-0.2
	c5.4,0.8,5.5,3.7,4.1,4.8h9.3l1.8-1.8l3.1,3c-0.2,0.3-0.6,0.3-1.2,0.4c-1,1.3-2.8,3-4.1,4.1l-0.4-0.2c0.4-1.2,0.8-3,1.1-4.5
	C410.5,308,388.7,308,388.7,308z M412.8,328.3c6,3.6-7.5,3.4-11.8,3.3c-3.6,0-4.6-0.6-4.6-3.1v-7.4h-11l-0.3-0.9h11.3v-5.9
	c-3,0.4-6.2,0.6-9.2,0.7l-0.1-0.5c6.5-1,14.4-3.1,18.4-4.9l3.1,2.9c-0.3,0.3-1,0.3-1.9,0c-2,0.5-4.6,1-7.3,1.4v6.3h8l2-2.6
	c0,0,2.3,1.8,3.7,3c0.3,1.1-13.3,0.3-13.8,0.5v6.7c0,0.8,0.3,1,1.9,1c1.9,0,7.1,0,8.4-0.1c1.8-0.6,1.4-2.4,2.4-5.3h0.4L412.8,328.3z
	 M427.2,333.7h-1.3v-32.5h1.3V333.7z M457.7,325.2c-1.8,14.4-28.1,2.8-10.6-5.9c-7.9-3.5-5.7-13.8,2.6-13.5c8,0.1,9.7,8.4,2.1,11.9
	C455.8,319.7,457.7,321.9,457.7,325.2L457.7,325.2z M454.1,325.9c0-2.4-1.4-4-6-6.1C438.3,326.1,452.1,337,454.1,325.9L454.1,325.9z
	 M450.6,317.2c3.8-2.5,4-9.8-1.1-10C443.7,307.9,444,314.7,450.6,317.2L450.6,317.2z M479.7,325.2c-1.8,14.4-28.1,2.8-10.6-5.9
	c-7.9-3.5-5.7-13.8,2.6-13.5c8,0.1,9.7,8.4,2.1,11.9C477.8,319.7,479.7,321.9,479.7,325.2L479.7,325.2z M476.1,325.9
	c0-2.4-1.4-4-6-6.1C460.3,326.1,474.1,337,476.1,325.9L476.1,325.9z M472.6,317.2c3.8-2.5,4-9.8-1.1-10
	C465.7,307.9,465.9,314.7,472.6,317.2L472.6,317.2z M500.7,306.8c-7.2,1.6-10.9,5.6-11.6,11.6c11.8-10.4,19.3,13.3,4.6,13.5
	c-15.5-1.7-8.9-26,6.7-26.1L500.7,306.8L500.7,306.8z M498,324c0.2-6.5-5.1-7.4-9-4.2C487.4,330.5,497.3,335.4,498,324L498,324z
	 M507,320.4h9.3v2.3H507V320.4z M537.1,306.8c-7.2,1.6-10.9,5.6-11.6,11.6c11.8-10.4,19.3,13.3,4.6,13.5c-15.5-1.7-8.9-26,6.7-26.1
	L537.1,306.8L537.1,306.8z M534.5,324c0.2-6.5-5.1-7.4-9-4.2C523.9,330.5,533.8,335.4,534.5,324L534.5,324z M543.5,320.4h9.3v2.3
	h-9.3V320.4z M574.7,328v3.3h-16.3v-2.5c4.3-4.7,11.8-10.9,11.4-16.3c0.1-4.1-3-6-6.6-5.1c-0.5,2.7-2.1,8.1-5,4.3
	c2.9-12.6,31.4-4.7,2.7,16.3L574.7,328L574.7,328z M595.6,306.8c-7.2,1.6-10.9,5.6-11.6,11.6c11.8-10.4,19.3,13.3,4.6,13.5
	c-15.5-1.7-8.9-26,6.7-26.1L595.6,306.8L595.6,306.8z M592.9,324c0.2-6.5-5.1-7.4-9-4.2C582.3,330.5,592.2,335.4,592.9,324
	L592.9,324z M618.7,318.9c0.2,17.6-16.8,17.6-16.6,0C601.8,301.2,618.9,301.2,618.7,318.9z M610.4,330.5c6,1.4,5.9-24.7,0-23.2
	C604.5,305.8,604.3,332,610.4,330.5z M640.6,328v3.3h-16.3v-2.5c4.3-4.7,11.8-10.9,11.4-16.3c0.1-4.1-3-6-6.6-5.1
	c-0.5,2.7-2.1,8.1-5,4.3c2.9-12.6,31.4-4.7,2.7,16.3L640.6,328L640.6,328z M645.9,320.4h9.3v2.3h-9.3V320.4z M676.8,306.3v2.1
	l-9,22.9h-3.6l-0.3-0.3l10.8-21.4h-13.8v-3.3L676.8,306.3L676.8,306.3z M698.7,306.3v2.1l-9,22.9h-3.6l-0.4-0.3l10.8-21.4h-13.8
	v-3.3L698.7,306.3L698.7,306.3z M720.7,306.3v2.1l-9,22.9H708l-0.3-0.3l10.8-21.4h-13.8v-3.3L720.7,306.3L720.7,306.3z M147.2,238.5
	c-5.6,0-9.5-0.8-11.9-2.5c-2.6-1.8-3.9-4.9-3.9-9.3v-34.1c0-5.9-0.3-10.7-0.9-14.4l9.9,3.9H173l1.8-2.2c0.1-0.1,0.3-0.3,0.5-0.6
	c0.8-1.1,1.4-1.7,1.8-1.7c0.5,0,1.9,0.9,4.2,2.8c2.3,1.9,3.5,3.1,3.5,3.6c-0.7,0.8-1.7,1.3-2.9,1.6v7.7c0.1,6.5,0.3,11.5,0.5,15.1
	c-0.3,0.5-1.2,1-2.8,1.5c-1.7,0.6-3.2,0.8-4.4,0.8c-1.1,0-1.6-0.5-1.6-1.4c0-0.2,0.1-0.6,0.1-1c0-0.3,0.1-0.6,0.1-0.8v-1.7h-34.2
	v21.1c0,1.4,0.6,2.4,1.7,2.9c1.1,0.5,2.9,0.8,5.6,0.8h23.6c2.4,0,4.2-0.1,5.3-0.4c1.3-0.3,2.2-0.9,2.9-1.8c1.2-1.6,2.7-5.3,4.5-11.1
	h0.7l0.1,11.4c1.8,0.6,3,1,3.6,1.4c0.7,0.5,1,1.1,1,1.9c0,2.2-1.1,3.7-3.4,4.7c-2.7,1.2-7.4,1.8-14.2,1.8H147.2z M139.5,203.7h13.4
	V184h-13.4V203.7z M160.7,203.7h13V184h-13V203.7z M196.3,241l-0.2-0.9c7-2.9,11.9-6.5,14.9-10.9c2.7-4,4.3-9.3,4.7-16.1h-2v2.2
	c0,0.4-0.7,0.9-2.2,1.5c-1.5,0.7-3,1-4.5,1c-1,0-1.5-0.5-1.5-1.4c0.2-1.9,0.3-4.3,0.4-7.2v-4.3c0-5.3-0.3-9.8-0.8-13.3l9.1,3.8h9v-9
	h-13.7c-3.3,0-6.8,0.4-10.5,1l-1.8-3.6c2.6,0.3,5.7,0.5,9.3,0.6h16.7c0-4.1-0.2-7.4-0.6-9.7c5,1.1,8.1,1.9,9.4,2.5
	c0.9,0.4,1.1,0.9,0.3,1.3l-1.2,0.8v5.2h13.6l2.1-2.9c0.2-0.2,0.4-0.6,0.7-1c1-1.3,1.6-2,1.9-2c0.5,0,1.9,1,4.3,3
	c2.4,2,3.6,3.2,3.6,3.8c-0.2,0.7-0.8,1.1-2,1.1h-24.3v9h8.8l1.7-2c0.1-0.1,0.3-0.4,0.6-0.7c0.8-0.9,1.3-1.4,1.6-1.4
	c0.5,0,1.8,0.9,4.1,2.6c2.3,1.8,3.4,2.9,3.4,3.4c-0.6,0.7-1.5,1.2-2.7,1.5v5.4c0.1,4.3,0.2,7.8,0.4,10.4c-0.3,0.6-1.2,1.1-2.7,1.8
	c-1.6,0.7-3.1,1.1-4.4,1.1c-1,0-1.5-0.5-1.5-1.4c0-0.2,0.1-0.4,0.1-0.8c0-0.2,0.1-0.4,0.1-0.6v-1.4h-3.6v0.7v16.6
	c0,0.6,0.2,0.9,0.5,1.1c0.3,0.2,1,0.2,2.1,0.2h6c2.8,0,4.5,0,5.2-0.1c0.7,0,1.3-0.4,1.7-1c0.5-1,1.5-4,2.9-8.9h0.8l0.2,9.3
	c1,0.4,1.7,0.9,2,1.4c0.3,0.4,0.5,1.1,0.5,1.9c0,1.7-0.9,2.9-2.7,3.6c-2.1,0.8-5.9,1.2-11.3,1.2h-7c-3.4,0-5.6-0.5-6.7-1.4
	c-1.1-0.9-1.6-2.7-1.6-5.4v-19.2h-5.3c-0.7,7.9-3.1,14-7.3,18.3C212.7,235.9,205.8,239.1,196.3,241z M213.8,211h26.9v-13.7h-26.9
	V211z M276.8,240.8c-0.6,0-1-0.1-1.4-0.4c-0.3-0.3-0.5-0.6-0.5-1c0.4-6,0.7-12.1,0.8-18.2v-25.6h-3.2c-1.7,0-3.6,0.4-5.5,1l-1.8-3.5
	c2.6,0.3,5.7,0.5,9.3,0.6h8.1l4-5.5c2.2,2,4.4,4,6.6,6v-0.7c0-5.9-0.3-10.7-0.9-14.4l8.3,3.4h2.4c0-2.8-0.1-5.3-0.4-7.4
	c3.1,1,5.1,1.8,6,2.3c0.6,0.4,0.7,0.8,0.2,1.1l-0.7,0.4v3.6h3c0-2.8-0.1-5.3-0.4-7.4c3.2,1,5.3,1.8,6.2,2.3c0.6,0.4,0.7,0.8,0.2,1.1
	l-0.7,0.4v3.6h2.8l1.5-2.2c0.1-0.2,0.3-0.4,0.6-0.8c0.7-1,1.2-1.5,1.5-1.5c0.5,0,1.6,0.8,3.4,2.4c1.8,1.6,2.7,2.7,2.7,3.2
	c-0.5,0.6-1.4,1-2.5,1.3v16.4c0,0.3-0.7,0.7-2,1.1c1,0.8,2.9,2.4,5.6,4.8c-0.2,0.7-0.8,1.1-1.8,1.1h-25.9c-3.3,0-6.8,0.4-10.5,1
	l-1.8-3.6c2.6,0.3,5.7,0.5,9.3,0.6h21.3l2.8-3.6c-1.1,0.2-2.1,0.3-2.9,0.3h-1.2v-1.9h-19.4v1.4c0,0.3-0.5,0.7-1.5,1.1
	c-1.2,0.5-2.5,0.7-4.1,0.7c-1,0-1.5-0.5-1.5-1.4c0.1-0.7,0.2-1.8,0.3-3c0-0.6,0-1.1,0.1-1.5v-3c-0.3,0.3-0.8,0.4-1.5,0.4h-9.3V222
	c0.1,5.8,0.3,11.3,0.6,16.5c-0.4,0.5-1,1-2,1.4C279.7,240.5,278.3,240.8,276.8,240.8z M266.5,234.1l-0.9-0.8
	c1.5-4.5,2.2-11.8,2.2-21.8v-5.1c0-2.2-0.1-4-0.3-5.5c3.5,1,5.6,1.8,6.5,2.3c0.6,0.4,0.6,0.9-0.1,1.3l-1.1,0.7v6.4
	C272.8,222,270.7,229.4,266.5,234.1z M268.6,183.9l-1.8-3.6c2.6,0.3,5.7,0.5,9.3,0.6h4.5l1.8-2.7c0.2-0.2,0.4-0.6,0.7-1
	c0.8-1.2,1.3-1.8,1.6-1.8c0.5,0,1.7,0.9,3.8,2.8c2.1,1.8,3.1,3,3.1,3.5c-0.1,0.7-0.7,1.1-1.8,1.1h-10.7
	C275.8,183,272.3,183.3,268.6,183.9z M285.8,230.7c-0.4,0-0.7-0.1-1-0.4c-0.2-0.3-0.4-0.6-0.4-1c0.2-2.1,0.4-4.9,0.5-8.4v-5v-0.8
	c0-5.9-0.3-10.7-0.9-14.4c3.8,1,6.2,1.7,7.2,2.2c0.7,0.4,0.7,0.8,0.1,1.3l-1.1,0.7v6.9c0.1,5.7,0.3,11.1,0.6,16.3
	c-0.3,0.6-1,1.1-1.9,1.7C287.8,230.4,286.8,230.7,285.8,230.7z M289.9,240.3l-1.8-3.5c2.6,0.3,5.7,0.5,9.3,0.6h5.8
	c-0.8-0.2-1.5-0.7-2.2-1.4c0-2.6-0.6-5.5-1.8-8.7c-1.1,0.2-2.1,0.3-2.8,0.3h-1.3v-9.2c0-4-0.2-7.2-0.6-9.5l8.2,3.5h14.5l1.5-2.2
	c0.1-0.2,0.3-0.4,0.6-0.8c0.7-1,1.2-1.5,1.5-1.5c0.5,0,1.6,0.8,3.5,2.4c1.8,1.6,2.8,2.7,2.8,3.2c-0.4,0.6-1.2,1-2.4,1.3v3.5
	c0,0.6,0,1.3,0.1,2.2c0.1,2,0.2,3.5,0.3,4.5c-0.2,0.4-0.9,0.7-1.9,1.1c-1.3,0.4-2.7,0.6-4.3,0.6h-1.3v-2.5h-15.4v1.6
	c0,0.2-0.3,0.5-0.8,0.8c2.9,1,4.9,2.3,6.1,3.9c1,1.4,1.3,2.8,0.8,4.2c-0.4,1.3-1.3,2.2-2.5,2.6h6c1.1-4.3,1.6-8.3,1.5-11.9
	c4.6,1.3,7.5,2.3,8.7,2.9c0.8,0.5,0.9,0.8,0.1,1.1l-1.3,0.5c-2.2,2.6-4.7,5-7.5,7.3h6.7l1.6-2.5c0.1-0.2,0.3-0.5,0.6-0.8
	c0.8-1.1,1.3-1.7,1.6-1.7c0.5,0,1.7,0.9,3.6,2.6s2.9,2.8,2.9,3.3c-0.1,0.7-0.7,1.1-1.8,1.1h-28.2
	C297.1,239.3,293.6,239.7,289.9,240.3z M299.8,190.5h3.1v-6.2h-3.1V190.5z M299.8,198.8h3.1v-6.4h-3.1V198.8z M302.1,222.2h15.4
	v-7.9h-15.4V222.2z M307.9,190.5h3v-6.2h-3V190.5z M307.9,198.8h3v-6.4h-3V198.8z M316.2,190.5h3v-6.2h-3V190.5z M316.2,198.8h3
	v-6.4h-3V198.8z M373.3,177.2c7.4,0,13.2,1.3,17.2,4.1c4.5,3.1,7.2,7.7,7.2,14.3c0,14.2-12,20-22.1,20.1c-1,0-2.2-0.1-2.8-0.2
	l-6-1.6v13.9c0,8.2,0.7,8.5,9.3,9.4v3.3h-29.5v-3.3c7.7-0.9,8.4-1.3,8.4-9.4v-37.7c0-8.4-1-9-8.4-9.6v-3.3H373.3z M366.7,210.1
	c1.2,0.6,3.4,1.1,5.8,1.1c5.2,0,12.8-2.9,12.8-15.5c0-10.8-6.3-14.7-13.3-14.7c-2.3,0-3.8,0.5-4.4,1c-0.7,0.6-0.9,1.7-0.9,3.5V210.1
	z M431.6,240.5v-3.3c6.2-0.8,6.5-1.9,5.1-5.9c-1.1-3.2-2.8-7.8-4.4-12.5h-19.7c-1.2,3.5-2.6,7.2-3.7,10.6c-2.1,6.2-0.1,7,7.7,7.8
	v3.3H393v-3.3c6.1-0.8,7.7-1.6,11-10l20.2-50.6l4.1-0.8c6.2,16.8,12.9,34.6,19.1,51c3.4,8.9,4.3,9.6,10.8,10.4v3.3H431.6z
	 M422.6,192.1c-2.9,7.5-5.9,14.8-8.5,22.1h16.4L422.6,192.1z M522.1,241.2c-0.8,0-2,0-3.2-0.1c-10.5-0.5-14.2-2.9-17.6-7.7
	c-3.8-5.2-6.9-11.2-10.1-16.8c-1.6-2.8-3-3.4-6.7-3.4l-2.5-0.1v14.6c0,8,1,8.6,8.5,9.5v3.3H462v-3.3c7.6-0.8,8.4-1.5,8.4-9.5v-37.8
	c0-7.9-1-8.7-8.4-9.4v-3.3h27.1c8.1,0,13,0.9,16.9,3.6c3.9,2.6,6.6,6.9,6.6,12.9c0,8.6-5.6,13.4-12.3,16.1c1.6,3,5.5,9.4,8.4,13.8
	c3.5,5.3,5.5,7.9,7.5,10.1c2.4,2.6,3.9,3.5,6.5,4.4L522.1,241.2z M485.4,209.4c4.5,0,7.7-0.7,10-2.6c3.4-2.8,4.9-6.5,4.9-11.6
	c0-10.4-6.3-14.1-12.5-14.1c-2.7,0-4.1,0.4-4.7,1c-0.7,0.6-1,1.7-1,3.9v23.5H485.4z M526,177.2h28.3v3.3c-7.2,0.8-8.4,1.4-8.4,9.7
	v16.5c2-0.4,4.3-2,7.4-4.9c6.2-6,11.3-11.8,14.8-16c2.5-3.1,2.1-4.5-2.3-5.1l-2.2-0.2v-3.3h24.9v3.3c-6.9,0.9-10.2,1.4-16.4,8
	c-3.5,3.6-9.3,9.3-14.2,14.5c6.6,8.6,15.3,19.8,21.9,27.8c4.1,4.9,5.3,5.6,10.7,6.4v3.3h-18.1c-5.3-6.6-13.6-17.5-21.2-27.6
	c-2.1-2.9-3.7-3.3-5.3-3.1v17.7c0,8.3,0.7,8.8,8.5,9.6v3.3H526v-3.3c7.5-0.7,8.4-1.3,8.4-9.6v-37.4c0-8.4-0.9-9.1-8.4-9.7V177.2z"/>
</svg>
