<svg width="8" height="17" viewBox="0 0 8 17" fill="none" xmlns="http://www.w3.org/2000/svg">
<path d="M6.86474 0.00219144C7.12953 0.00163834 7.38614 0.100231 7.59003 0.280859C7.70478 0.38257 7.79964 0.50749 7.86917 0.648455C7.9387 0.789421 7.98153 0.943665 7.99522 1.10236C8.0089 1.26105 7.99317 1.42107 7.94892 1.57325C7.90467 1.72543 7.83278 1.86678 7.73736 1.98921L2.66033 8.48338L7.55603 14.9897C7.65017 15.1136 7.72047 15.2562 7.76289 15.4093C7.80531 15.5623 7.81901 15.7229 7.80321 15.8816C7.78742 16.0404 7.74243 16.1942 7.67084 16.3343C7.59925 16.4744 7.50246 16.598 7.38604 16.698C7.26879 16.8083 7.13147 16.8915 6.98272 16.9424C6.83396 16.9933 6.67698 17.0107 6.52162 16.9937C6.36625 16.9766 6.21587 16.9254 6.0799 16.8432C5.94392 16.7611 5.8253 16.6498 5.73147 16.5163L0.257805 9.24669C0.0911219 9.0299 7.20542e-07 8.75796 7.45076e-07 8.47732C7.6961e-07 8.19669 0.091122 7.92475 0.257805 7.70796L5.92413 0.438368C6.03782 0.291742 6.18223 0.175836 6.34566 0.100052C6.50909 0.024269 6.68693 -0.00925839 6.86474 0.00219144Z" fill="white"/>
</svg>
