<svg width="30" height="30" viewBox="0 0 30 30" fill="none" xmlns="http://www.w3.org/2000/svg">
<g clip-path="url(#clip0_16_1080)">
<path fill-rule="evenodd" clip-rule="evenodd" d="M12.7777 6.52773C13.3147 5.99076 14.1853 5.99076 14.7223 6.52773C15.2592 7.0647 15.2592 7.9353 14.7223 8.47227L8.19454 15L14.7223 21.5277C15.2592 22.0647 15.2592 22.9353 14.7223 23.4723C14.1853 24.0092 13.3147 24.0092 12.7777 23.4723L5.27773 15.9723C5.21061 15.9052 5.15188 15.8328 5.10153 15.7566C4.74915 15.2229 4.80788 14.4976 5.27773 14.0277C5.27811 14.0273 5.27849 14.027 5.27887 14.0266L12.7777 6.52773Z" fill="black"/>
</g>
<defs>
<clipPath id="clip0_16_1080">
<rect width="30" height="30" fill="white" transform="matrix(-1 8.74228e-08 8.74228e-08 1 30 0)"/>
</clipPath>
</defs>
</svg>
