<svg width="8" height="17" viewBox="0 0 8 17" fill="none" xmlns="http://www.w3.org/2000/svg">
<path d="M1.13526 16.9978C0.87047 16.9984 0.613858 16.8998 0.40997 16.7191C0.295217 16.6174 0.200361 16.4925 0.130833 16.3515C0.0613047 16.2106 0.0184714 16.0563 0.00478626 15.8976C-0.0088989 15.739 0.00683311 15.5789 0.0510809 15.4268C0.0953286 15.2746 0.167222 15.1332 0.262645 15.0108L5.33967 8.51662L0.443969 2.01033C0.349833 1.8864 0.279534 1.7438 0.237114 1.59073C0.194694 1.43765 0.180989 1.27713 0.196785 1.11837C0.212582 0.959618 0.257569 0.805768 0.329162 0.665662C0.400755 0.525557 0.497541 0.40196 0.613958 0.301976C0.731212 0.191676 0.868525 0.108479 1.01728 0.0576046C1.16604 0.00673075 1.32302 -0.0107208 1.47838 0.00634448C1.63375 0.0234097 1.78413 0.0746237 1.9201 0.156772C2.05608 0.238921 2.1747 0.35023 2.26853 0.483716L7.7422 7.75331C7.90888 7.9701 8 8.24204 8 8.52267C8 8.80331 7.90888 9.07524 7.7422 9.29204L2.07587 16.5616C1.96218 16.7083 1.81777 16.8242 1.65434 16.8999C1.49091 16.9757 1.31308 17.0093 1.13526 16.9978Z" fill="white"/>
</svg>
