<svg width="634" height="825" viewBox="0 0 634 825" fill="none" xmlns="http://www.w3.org/2000/svg">
<path opacity="0.2" d="M257.63 163.27C224.08 133.74 182.62 118.76 134.39 118.76C108.6 118.76 83.75 123.73 60.51 133.54C28.06 107.74 11.6 80.83 11.6 53.54C11.6 39.49 17.01 28.05 27.67 19.52C38.46 10.9 53.01 6.53 70.91 6.53C82.65 6.53 93.02 7.86 101.77 10.49C102.8 10.77 103.92 10.9 105.1 10.9C107.29 10.9 108.27 9.44 108.27 8C108.27 5.74 106.05 4.13 94.35 2.15C86.03 0.74 78 0.02 70.47 0.02C50.86 0.02 34.74 4.74 22.55 14.06C10.21 23.5 3.95 36.02 3.95 51.27C3.95 80.52 20.1 109.62 51.98 137.8C17.49 157.55 0 186.87 0 224.98C0 270.46 18.38 311.8 54.64 347.83C90.89 383.86 132.49 402.13 178.28 402.13C199.82 402.13 217.73 396.7 231.54 385.98C245.48 375.15 252.56 361.17 252.56 344.41C252.56 320.35 236.74 295.55 205.56 270.72C174.5 245.99 143.62 233.45 113.78 233.45C102.01 233.45 92.3 236.26 84.91 241.79C77.36 247.45 73.53 254.93 73.53 264.02C73.53 271.16 76.08 277.31 81.1 282.32C86.12 287.33 92.24 289.87 99.3 289.87C112.8 289.87 115.64 283.05 115.64 277.34C115.64 272.81 113.6 268.85 109.58 265.57C105.67 262.39 101.03 260.78 95.79 260.78C88.23 260.78 84.06 264.49 84.06 271.21V274.2L84.35 274.65C84.48 274.85 84.5 275.17 84.5 275.41V275.46C82.52 275.09 81.4 271.1 81.4 264.38C81.4 257.66 84.31 251.83 90.29 247.49C96.38 243.08 104.57 240.84 114.65 240.84C141.89 240.84 170.74 252.81 200.4 276.42C229.93 299.93 244.91 322.8 244.91 344.41C244.91 356.97 240.33 367.19 231.31 374.78C222.19 382.45 209.82 386.34 194.54 386.34C174.98 386.34 153.22 381.38 129.87 371.6C106.46 361.8 84.77 348.52 65.4 332.14C27.07 299.75 7.65 263.69 7.65 224.98C7.65 186.27 25.09 161.01 59.5 144.34C83.48 164.48 112.75 183.21 146.51 200.02C202.61 228.09 239.49 249.17 256.12 262.67C272.9 276.28 285.41 295.2 293.32 318.9C283.47 354.79 278.48 379.16 278.48 391.35C278.48 399.02 279.35 406.1 281.05 412.4C279.34 418.7 278.48 425.78 278.48 433.45C278.48 445.64 283.47 470.01 293.32 505.9C285.41 529.6 272.9 548.51 256.12 562.13C239.49 575.63 202.61 596.71 146.52 624.78C112.75 641.59 83.48 660.32 59.51 680.46C25.1 663.78 7.66 636.66 7.66 599.82C7.66 561.11 27.08 525.06 65.38 492.66C84.75 476.28 106.44 463 129.86 453.2C153.22 443.42 174.97 438.46 194.53 438.46C209.81 438.46 222.18 442.35 231.3 450.02C240.33 457.61 244.9 467.83 244.9 480.39C244.9 501.99 229.93 524.87 200.39 548.38C170.73 571.99 141.88 583.96 114.64 583.96C104.56 583.96 96.36 581.72 90.28 577.31C84.29 572.97 81.39 567.44 81.39 560.42C81.39 553.4 82.5 549.76 84.49 549.35V549.39C84.49 549.73 84.44 549.99 84.34 550.15L84.05 550.6V553.59C84.05 560.32 88.21 564.02 95.78 564.02C101.02 564.02 105.66 562.41 109.57 559.23C113.59 555.96 115.63 552 115.63 547.46C115.63 541.74 112.79 534.93 99.29 534.93C92.23 534.93 86.11 537.47 81.09 542.47C76.07 547.47 73.52 553.63 73.52 560.77C73.52 569.87 77.35 577.35 84.9 583C92.29 588.53 102 591.34 113.77 591.34C143.62 591.34 174.5 578.8 205.55 554.07C236.74 529.24 252.55 504.45 252.55 480.39C252.55 463.64 245.48 449.65 231.53 438.82C217.73 428.1 199.81 422.67 178.27 422.67C132.48 422.67 90.88 440.94 54.63 476.97C18.38 512.99 0 554.33 0 599.81C0 637.93 17.49 667.25 51.98 687C20.1 715.18 3.95 744.28 3.95 773.53C3.95 788.78 10.21 801.29 22.54 810.73C34.73 820.05 50.85 824.77 70.46 824.77C77.99 824.77 86.02 824.05 94.34 822.64C106.04 820.65 108.26 819.05 108.26 816.79C108.26 815.35 107.28 813.89 105.09 813.89C103.91 813.89 102.78 814.03 101.71 814.32C93.01 816.94 82.64 818.27 70.9 818.27C53 818.27 38.46 813.9 27.66 805.28C16.99 796.76 11.59 785.31 11.59 771.26C11.59 743.98 28.04 717.07 60.5 691.26C83.74 701.07 108.59 706.04 134.38 706.04C182.61 706.04 224.07 691.07 257.62 661.53C291.24 631.94 308.28 595.27 308.28 552.53C308.28 539.48 306.01 521.4 301.52 498.8C306 479.15 308.28 460.05 308.28 442.03C308.28 429.85 307.65 419.89 306.42 412.4C307.66 404.91 308.28 394.95 308.28 382.77C308.28 364.75 306.01 345.65 301.52 326C306.01 303.39 308.28 285.31 308.28 272.27C308.28 229.53 291.24 192.86 257.62 163.27H257.63ZM220.67 666.08C185.99 683.86 151.49 692.87 118.16 692.87C101.01 692.87 84.65 690.14 69.48 684.77C91.32 669.96 118.74 656.47 151.05 644.63C196.27 628.16 229.32 610.84 249.3 593.13C268.65 575.81 284.57 550.59 296.67 518.1C299.6 531.02 301.08 544.76 301.08 559.05C301.08 602.84 274.03 638.85 220.68 666.08H220.67ZM151.05 180.17C118.75 168.33 91.32 154.84 69.48 140.03C84.65 134.65 101 131.93 118.16 131.93C151.5 131.93 185.99 140.94 220.68 158.72C274.03 185.94 301.08 221.95 301.08 265.75C301.08 280.03 299.6 293.78 296.67 306.7C284.57 274.22 268.65 248.99 249.3 231.67C229.32 213.97 196.27 196.65 151.06 180.18L151.05 180.17ZM294.81 423.47C294.81 423.47 292.6 423.34 291.86 412.4C292.6 401.46 294.79 401.33 294.81 401.33C294.91 401.33 297.25 401.46 298.91 412.4C297.25 423.34 294.91 423.47 294.81 423.47ZM291.92 430.26C292.86 430.65 293.83 430.85 294.81 430.85C296.88 430.85 298.72 430.05 300.31 428.45C300.53 433.47 300.64 439.13 300.64 445.35C300.64 458.34 299.86 470.48 298.3 481.59C294.81 460.59 292.67 443.38 291.92 430.26ZM300.31 396.34C298.72 394.75 296.88 393.94 294.81 393.94C293.82 393.94 292.86 394.14 291.92 394.53C292.67 381.41 294.81 364.2 298.3 343.2C299.85 354.3 300.64 366.44 300.64 379.43C300.64 385.65 300.53 391.31 300.31 396.33V396.34ZM633.2 599.81C633.2 554.33 614.82 512.99 578.56 476.96C542.31 440.93 500.71 422.66 454.92 422.66C433.38 422.66 415.47 428.09 401.66 438.81C387.72 449.64 380.65 463.62 380.65 480.38C380.65 504.44 396.46 529.24 427.65 554.06C458.71 578.79 489.58 591.33 519.43 591.33C531.2 591.33 540.91 588.52 548.3 582.99C555.85 577.33 559.68 569.85 559.68 560.76C559.68 553.63 557.13 547.47 552.11 542.46C547.09 537.45 540.97 534.92 533.91 534.92C520.4 534.92 517.57 541.74 517.57 547.45C517.57 551.98 519.61 555.94 523.63 559.22C527.54 562.4 532.18 564.01 537.41 564.01C544.97 564.01 549.14 560.3 549.14 553.58V550.59L548.85 550.14C548.75 549.98 548.7 549.72 548.7 549.38V549.33C550.68 549.71 551.8 553.7 551.8 560.41C551.8 567.12 548.89 572.95 542.9 577.3C536.81 581.71 528.62 583.95 518.54 583.95C491.3 583.95 462.45 571.98 432.79 548.37C403.26 524.86 388.28 501.99 388.28 480.38C388.28 467.82 392.86 457.6 401.88 450.01C411 442.34 423.37 438.45 438.66 438.45C458.22 438.45 479.98 443.41 503.33 453.19C526.74 462.99 548.43 476.27 567.8 492.65C606.1 525.05 625.52 561.1 625.52 599.81C625.52 638.52 608.08 663.78 573.67 680.45C549.7 660.31 520.43 641.58 486.66 624.77C430.56 596.7 393.68 575.62 377.05 562.12C360.28 548.51 347.76 529.59 339.85 505.89C349.84 469.5 354.69 445.79 354.69 433.44C354.69 425.77 353.82 418.69 352.11 412.39C353.82 406.09 354.69 399.01 354.69 391.34C354.69 378.99 349.83 355.28 339.85 318.89C347.76 295.19 360.27 276.28 377.05 262.66C393.68 249.16 430.56 228.08 486.65 200.01C520.42 183.2 549.68 164.47 573.66 144.33C608.07 161.01 625.51 188.13 625.51 224.97C625.51 263.68 606.09 299.73 567.79 332.13C548.42 348.51 526.73 361.78 503.32 371.59C479.97 381.37 458.21 386.33 438.65 386.33C423.37 386.33 410.99 382.44 401.87 374.77C392.84 367.18 388.27 356.96 388.27 344.4C388.27 322.8 403.24 299.92 432.78 276.41C462.44 252.8 491.29 240.83 518.53 240.83C528.61 240.83 536.81 243.07 542.89 247.48C548.88 251.82 551.79 257.35 551.79 264.37C551.79 271.39 550.68 275.03 548.69 275.44V275.4C548.69 275.16 548.72 274.84 548.85 274.63L549.13 274.18V271.19C549.13 264.46 544.97 260.76 537.4 260.76C532.16 260.76 527.52 262.37 523.61 265.55C519.59 268.83 517.55 272.78 517.55 277.32C517.55 283.04 520.39 289.85 533.89 289.85C540.95 289.85 547.07 287.31 552.09 282.3C557.11 277.3 559.66 271.14 559.66 264C559.66 254.9 555.83 247.42 548.28 241.77C540.89 236.24 531.17 233.43 519.41 233.43C489.56 233.43 458.68 245.97 427.63 270.7C396.44 295.53 380.63 320.32 380.63 344.39C380.63 361.15 387.7 375.13 401.64 385.96C415.44 396.68 433.36 402.11 454.9 402.11C500.69 402.11 542.29 383.84 578.54 347.81C614.8 311.78 633.18 270.45 633.18 224.96C633.18 186.84 615.69 157.52 581.2 137.77C613.07 109.59 629.23 80.49 629.23 51.24C629.23 35.99 622.98 23.48 610.64 14.04C598.45 4.72 582.33 0 562.72 0C555.19 0 547.16 0.72 538.84 2.13C527.14 4.12 524.92 5.72 524.92 7.98C524.92 9.43 525.9 10.88 528.09 10.88C529.27 10.88 530.39 10.74 531.47 10.45C540.17 7.83 550.54 6.5 562.28 6.5C580.18 6.5 594.73 10.87 605.52 19.49C616.18 28.01 621.59 39.46 621.59 53.51C621.59 80.79 605.13 107.7 572.68 133.51C549.44 123.7 524.59 118.73 498.8 118.73C450.58 118.73 409.12 133.7 375.56 163.24C341.94 192.83 324.9 229.5 324.9 272.24C324.9 285.29 327.17 303.37 331.66 325.97C327.18 345.62 324.9 364.71 324.9 382.74C324.9 393.14 325.7 402.16 327.27 409.55C325.7 417.29 324.9 428.2 324.9 442C324.9 460.02 327.17 479.12 331.66 498.77C327.17 521.38 324.9 539.45 324.9 552.5C324.9 595.24 341.94 631.91 375.56 661.5C409.11 691.03 450.57 706.01 498.8 706.01C524.59 706.01 549.44 701.04 572.68 691.23C605.14 717.03 621.59 743.94 621.59 771.23C621.59 785.28 616.18 796.72 605.52 805.25C594.73 813.87 580.18 818.24 562.28 818.24C550.54 818.24 540.18 816.91 531.42 814.28C530.4 814.01 529.28 813.87 528.09 813.87C525.9 813.87 524.92 815.33 524.92 816.77C524.92 819.03 527.14 820.64 538.85 822.62C547.16 824.03 555.2 824.75 562.73 824.75C582.34 824.75 598.46 820.03 610.65 810.71C622.99 801.28 629.24 788.76 629.24 773.51C629.24 744.26 613.09 715.16 581.21 686.98C615.71 667.23 633.19 637.91 633.19 599.79L633.2 599.81ZM412.53 158.71C447.22 140.93 481.71 131.92 515.05 131.92C532.2 131.92 548.56 134.65 563.72 140.02C541.88 154.83 514.45 168.32 482.15 180.16C436.93 196.62 403.88 213.95 383.9 231.65C364.55 248.97 348.63 274.19 336.53 306.68C333.6 293.75 332.12 280.01 332.12 265.73C332.12 221.93 359.17 185.92 412.52 158.7L412.53 158.71ZM338.39 401.33C338.39 401.33 340.6 401.46 341.34 412.4C340.6 423.34 338.41 423.47 338.39 423.47C338.29 423.47 335.95 423.34 334.29 412.4C335.95 401.46 338.29 401.33 338.39 401.33ZM341.28 394.53C340.34 394.14 339.37 393.94 338.39 393.94C336.32 393.94 334.48 394.74 332.89 396.34C332.67 391.32 332.56 385.66 332.56 379.44C332.56 366.45 333.34 354.31 334.9 343.21C338.4 364.21 340.54 381.43 341.29 394.54L341.28 394.53ZM333.09 424.58C335.95 428.58 338.97 429.66 341.31 429.72C340.59 442.91 338.44 460.31 334.9 481.59C333.35 470.49 332.56 458.35 332.56 445.36C332.56 437.44 332.74 430.48 333.09 424.58ZM482.15 644.63C514.46 656.47 541.88 669.96 563.72 684.77C548.55 690.15 532.2 692.87 515.05 692.87C481.71 692.87 447.22 683.86 412.53 666.08C359.18 638.86 332.13 602.85 332.13 559.05C332.13 544.77 333.61 531.03 336.54 518.1C348.64 550.58 364.56 575.8 383.91 593.13C403.88 610.83 436.94 628.15 482.15 644.62V644.63Z" fill="#C8D1D5"/>
</svg>
