<svg width="96" height="26" viewBox="0 0 96 26" fill="none" xmlns="http://www.w3.org/2000/svg">
<circle cx="47.5" cy="3.5" r="2.5" fill="black"/>
<path d="M74.3582 6.28369L77 3.6419L74.3582 1.0001" stroke="#292D32" stroke-miterlimit="10" stroke-linecap="round" stroke-linejoin="round"/>
<path d="M53 3.71631L76 3.71631" stroke="#292D32" stroke-miterlimit="10" stroke-linecap="round" stroke-linejoin="round"/>
<path d="M20.6418 1L18 3.64179L20.6418 6.28359" stroke="#292D32" stroke-miterlimit="10" stroke-linecap="round" stroke-linejoin="round"/>
<path d="M42 3.56739L19 3.56738" stroke="#292D32" stroke-miterlimit="10" stroke-linecap="round" stroke-linejoin="round"/>
<path d="M0.54 14.524H9.42L10.164 13.588C10.164 13.588 11.004 14.236 11.508 14.68C11.484 14.812 11.352 14.872 11.184 14.872H0.648L0.54 14.524ZM3.948 17.632H8.616L9.324 16.756C9.324 16.756 10.128 17.356 10.608 17.788C10.584 17.92 10.452 17.98 10.284 17.98H4.044L3.948 17.632ZM2.436 22.18H9.432L10.176 21.256C10.176 21.256 11.028 21.88 11.544 22.336C11.508 22.456 11.376 22.516 11.208 22.516H2.532L2.436 22.18ZM4.356 11.872L6.144 12.1C6.108 12.268 6.012 12.364 5.64 12.4C5.088 15.748 3.936 19.924 0.48 22.432L0.336 22.324C3.024 19.6 4.032 15.316 4.356 11.872ZM6.216 17.632H7.416V22.3H6.216V17.632ZM12.408 14.608H21.48L22.224 13.672C22.224 13.672 23.076 14.32 23.592 14.764C23.556 14.896 23.436 14.956 23.256 14.956H12.516L12.408 14.608ZM16.668 11.86L18.384 12.268C18.336 12.424 18.24 12.52 17.904 12.532C17.172 15.28 15.72 18.484 12.492 20.296L12.372 20.176C14.952 18.1 16.188 14.704 16.668 11.86ZM15.228 17.728V17.212L16.524 17.728H20.904L21.492 17.056L22.62 17.932C22.548 18.04 22.428 18.112 22.152 18.16V22.624C22.152 22.696 21.756 22.924 21.156 22.924H20.952V18.076H16.392V22.72C16.392 22.792 16.02 23.008 15.432 23.008H15.228V17.728ZM15.852 21.592H21.564V21.928H15.852V21.592ZM29.628 18.448C33.288 17.572 33.384 19.396 32.436 19.348C31.932 19.096 30.816 18.76 29.616 18.64L29.628 18.448ZM29.712 20.224C30.36 20.152 31.848 19.9 33.348 19.6L33.372 19.768C32.724 20.08 31.776 20.536 30.504 21.088C30.444 21.244 30.336 21.352 30.216 21.376L29.712 20.224ZM33.456 17.188V17.536H29.532V17.188H33.456ZM28.764 17.068V16.696L30.036 17.188H29.856V18.568C29.856 19.876 29.676 21.82 27.732 23.056L27.612 22.924C28.656 21.604 28.764 19.972 28.764 18.568V17.068ZM30.984 13.54L32.04 13.972H31.884V15.916H30.984V13.54ZM33.384 13.972V14.32H31.404V13.972H33.384ZM34.188 15.76L34.752 15.196L35.76 16.168C35.676 16.264 35.544 16.288 35.304 16.3C35.028 16.576 34.5 17.032 34.188 17.272L34.032 17.2C34.104 16.852 34.26 16.132 34.32 15.76H34.188ZM28.38 15.16C29.34 18.4 26.508 17.86 27.432 16.648C27.84 16.432 28.14 15.916 28.212 15.148L28.38 15.16ZM28.968 12.1L30.096 12.556H32.88L33.372 11.932L34.584 12.784C34.488 12.916 34.344 12.964 34.044 13.012V15.904H33.012V12.904H29.964V15.904H28.968V12.1ZM32.94 17.188L33.444 16.6L34.608 17.476C34.536 17.572 34.368 17.656 34.128 17.704V21.628C34.128 22.408 33.972 22.876 32.652 22.996C32.628 22.648 32.568 22.384 32.412 22.216C32.232 22.036 31.968 21.916 31.44 21.832V21.652C31.44 21.652 32.568 21.736 32.796 21.736C33 21.736 33.06 21.664 33.06 21.496V17.188H32.94ZM34.572 15.76V16.108H28.32V15.76H34.572ZM25.008 19.504C25.164 19.504 25.212 19.504 25.332 19.252C25.56 18.832 25.56 18.832 27.66 14.02L27.852 14.08C27.384 15.544 26.508 18.292 26.34 18.904C26.244 19.288 26.16 19.684 26.172 19.972C26.184 20.572 26.604 21.076 26.568 22.108C26.544 22.672 26.22 23.032 25.728 23.032C25.5 23.032 25.284 22.828 25.224 22.42C25.416 21.172 25.356 20.116 25.08 19.936C24.924 19.816 24.732 19.78 24.48 19.756V19.504C24.48 19.504 24.876 19.504 25.008 19.504ZM24.48 14.776C27.288 15.076 26.412 17.068 25.38 16.372C25.26 15.82 24.78 15.22 24.372 14.872L24.48 14.776ZM25.2 11.932C28.212 12.34 27.324 14.416 26.244 13.708C26.088 13.096 25.548 12.424 25.092 12.028L25.2 11.932ZM36.42 14.152H41.1L41.712 13.396C41.712 13.396 42.408 13.912 42.84 14.308C42.804 14.44 42.684 14.5 42.516 14.5H36.516L36.42 14.152ZM36.6 19.792H40.872L41.436 19.084C41.436 19.084 42.084 19.588 42.492 19.948C42.456 20.08 42.348 20.14 42.18 20.14H36.696L36.6 19.792ZM36.444 21.496C37.476 21.436 39.936 21.16 42.48 20.848L42.504 21.028C41.34 21.436 39.684 21.976 37.308 22.624C37.236 22.78 37.104 22.876 36.972 22.9L36.444 21.496ZM37.392 16.864H41.592V17.212H37.392V16.864ZM37.392 18.34H41.592V18.676H37.392V18.34ZM41.448 11.848L42.504 12.916C42.384 13.024 42.132 13.024 41.832 12.892C40.452 13.096 38.328 13.3 36.504 13.324L36.468 13.12C38.16 12.856 40.32 12.28 41.448 11.848ZM38.964 12.94L39.972 12.736V21.4C39.972 21.484 39.636 21.712 39.132 21.712H38.964V12.94ZM36.852 15.4V14.956L37.968 15.4H41.112L41.604 14.836L42.624 15.604C42.552 15.7 42.432 15.772 42.18 15.82V18.7C42.18 18.76 41.832 18.964 41.328 18.964H41.148V15.748H37.836V18.916C37.836 18.988 37.524 19.18 37.02 19.18H36.852V15.4ZM42.408 14.848H46.512V15.196H42.516L42.408 14.848ZM43.704 12.016L45.252 12.172C45.216 12.352 45.096 12.46 44.808 12.508C44.76 17.5 45 20.908 41.316 23.056L41.172 22.864C43.98 20.476 43.704 17.08 43.704 12.016ZM46.116 14.848H45.984L46.584 14.212L47.676 15.16C47.604 15.256 47.448 15.34 47.184 15.364C47.112 19.936 46.944 21.748 46.38 22.372C46.032 22.756 45.54 22.924 45 22.924C45 22.564 44.964 22.3 44.82 22.132C44.664 21.976 44.316 21.832 43.92 21.748V21.556C44.304 21.592 44.904 21.64 45.132 21.64C45.336 21.64 45.432 21.604 45.552 21.496C45.924 21.112 46.056 19.048 46.116 14.848ZM50.508 12.976V13.324H48.504L48.396 12.976H50.508ZM54 12.352C54 12.352 54.54 12.796 54.852 13.132C54.828 13.264 54.708 13.324 54.54 13.324H52.284L52.188 12.976H53.544L54 12.352ZM53.316 11.944C53.292 12.088 53.196 12.196 52.944 12.22V13.876C52.944 13.96 52.5 14.14 52.128 14.14H51.948V11.812L53.316 11.944ZM51.432 11.956C51.408 12.1 51.312 12.196 51.048 12.232V13.912C51.048 13.996 50.616 14.164 50.244 14.164H50.064V11.824L51.432 11.956ZM51.312 16.504C53.352 16.96 52.344 18.34 51.588 17.692C51.564 17.308 51.36 16.84 51.192 16.564L51.312 16.504ZM53.268 14.596L53.676 14.164L54.564 14.836C54.504 14.908 54.348 14.992 54.168 15.016V16.456C54.156 16.528 53.748 16.696 53.496 16.696H53.364V14.596H53.268ZM51.792 14.188L52.74 14.596H52.584V16.504C52.584 16.564 52.332 16.768 51.924 16.768H51.792V14.188ZM53.748 16.024V16.372H52.152V16.024H53.748ZM53.748 14.596V14.944H52.152V14.596H53.748ZM50.34 14.596L50.748 14.176L51.612 14.836C51.564 14.908 51.408 14.992 51.228 15.016V16.504C51.228 16.576 50.82 16.744 50.568 16.744H50.436V14.596H50.34ZM48.864 14.2L49.812 14.596H49.656V16.636C49.656 16.696 49.404 16.888 48.996 16.888H48.864V14.2ZM50.988 17.02C50.94 17.152 50.796 17.26 50.532 17.248C50.028 18.388 49.32 19.42 48.54 20.08L48.372 19.96C48.888 19.144 49.404 17.86 49.692 16.6L50.988 17.02ZM52.428 17.896V21.952H51.468V17.896H52.428ZM50.304 22.672C50.304 22.756 49.992 22.984 49.488 22.984H49.32V18.532L49.968 17.596L50.46 17.788H50.304V22.672ZM53.628 21.088C53.628 21.088 54.24 21.544 54.624 21.904C54.588 22.036 54.48 22.096 54.312 22.096H49.68V21.748H53.1L53.628 21.088ZM53.352 19.804C53.352 19.804 53.892 20.224 54.228 20.548C54.216 20.68 54.096 20.74 53.94 20.74H49.68V20.392H52.884L53.352 19.804ZM53.352 18.484C53.352 18.484 53.892 18.904 54.228 19.228C54.204 19.36 54.096 19.42 53.928 19.42H49.68V19.072H52.884L53.352 18.484ZM53.58 17.164C53.58 17.164 54.144 17.608 54.516 17.944C54.492 18.076 54.372 18.136 54.204 18.136H49.704V17.788H53.064L53.58 17.164ZM50.82 16.024V16.372H49.26V16.024H50.82ZM50.82 14.596V14.944H49.26V14.596H50.82ZM56.508 18.616C56.424 20.92 55.752 22.228 53.508 23.032L53.436 22.852C55.164 21.82 55.44 20.572 55.464 18.616H56.508ZM57.96 18.604C57.96 18.736 57.96 18.88 57.96 18.964V21.652C57.96 21.784 57.984 21.82 58.14 21.82H58.428C58.56 21.82 58.656 21.82 58.716 21.82C58.8 21.808 58.836 21.796 58.884 21.7C58.968 21.556 59.1 20.992 59.244 20.44H59.376L59.424 21.736C59.676 21.868 59.724 21.976 59.724 22.156C59.724 22.528 59.376 22.708 58.332 22.708H57.816C57.06 22.708 56.952 22.468 56.952 21.868V18.604H57.96ZM54.72 12.052L55.884 12.508H57.744L58.272 11.884L59.34 12.724C59.256 12.832 59.124 12.904 58.86 12.94V18.928C58.86 18.988 58.488 19.204 57.972 19.204H57.792V12.856H55.74V19.132C55.74 19.216 55.416 19.432 54.888 19.432H54.72V12.052ZM58.416 18.52V18.868H55.176V18.52H58.416ZM58.416 16.576V16.924H55.176V16.576H58.416ZM58.416 14.656V15.004H55.176V14.656H58.416ZM60.528 16.036H69.6L70.284 15.184C70.284 15.184 71.064 15.76 71.544 16.18C71.52 16.312 71.388 16.372 71.22 16.372H60.624L60.528 16.036ZM61.416 14.548H68.796L69.468 13.708C69.468 13.708 70.236 14.284 70.704 14.692C70.668 14.824 70.548 14.884 70.38 14.884H61.512L61.416 14.548ZM64.452 17.356V22.66C64.452 22.756 64.092 23.02 63.528 23.02H63.324V17.68L63.756 17.032L64.608 17.356H64.452ZM63.888 18.796H69.312V19.144H63.888V18.796ZM63.9 20.296H69.324V20.644H63.9V20.296ZM63.9 21.832H69.324V22.18H63.9V21.832ZM69.456 11.884L70.524 12.952C70.404 13.06 70.152 13.06 69.816 12.904C67.572 13.264 64.14 13.564 61.116 13.528L61.092 13.312C63.984 13.096 67.584 12.46 69.456 11.884ZM64.908 13.06H66.144V13.252C65.376 16.24 63.6 18.676 60.528 20.224L60.396 20.08C62.82 18.424 64.308 15.82 64.908 13.06ZM63.876 17.356H69.312V17.692H63.876V17.356ZM68.784 17.356H68.676L69.228 16.756L70.368 17.644C70.296 17.728 70.14 17.824 69.936 17.86V22.672C69.924 22.756 69.348 22.996 68.964 22.996H68.784V17.356ZM75.396 19.156C76.788 21.148 79.98 21.736 83.544 21.796V21.94C83.052 22.084 82.764 22.456 82.656 23.02C79.152 22.66 76.548 21.772 75.24 19.276L75.396 19.156ZM74.1 14.62V14.128L75.312 14.62H81.528V14.968H75.228V19.024C75.228 19.132 74.748 19.384 74.28 19.384H74.1V14.62ZM80.88 14.62H80.76L81.324 14.008L82.524 14.92C82.44 15.016 82.272 15.124 82.032 15.172V19.012C82.02 19.084 81.444 19.312 81.06 19.312H80.88V14.62ZM74.652 18.316H81.528V18.664H74.652V18.316ZM74.628 16.444H81.528V16.78H74.628V16.444ZM72.66 12.904H81.288L82.02 12.004C82.02 12.004 82.86 12.628 83.376 13.06C83.34 13.192 83.208 13.252 83.04 13.252H72.768L72.66 12.904ZM77.448 12.904H78.6V17.164C78.588 20.008 77.772 22.096 72.552 23.056L72.48 22.888C76.632 21.58 77.448 19.996 77.448 17.2V12.904ZM88.596 13.252H92.736V13.6H88.26L88.596 13.252ZM92.244 13.252H92.136L92.796 12.64L93.996 13.672C93.9 13.78 93.708 13.816 93.396 13.828C91.56 16.084 88.824 17.512 84.648 18.172L84.564 17.992C88.056 16.984 90.648 15.544 92.244 13.252ZM87.36 14.32C90.3 14.188 89.952 16.216 88.872 15.808C88.584 15.304 87.84 14.716 87.264 14.428L87.36 14.32ZM90.528 12.508C89.28 13.672 87.24 14.968 84.924 15.604L84.828 15.472C86.748 14.548 88.536 13.012 89.364 11.836L91.128 12.292C91.068 12.424 90.912 12.508 90.528 12.508ZM90.072 17.548H94.548V17.884H89.664L90.072 17.548ZM93.684 17.548H93.564L94.236 16.9L95.46 17.956C95.364 18.076 95.172 18.112 94.848 18.124C92.892 21.016 89.904 22.456 84.924 22.996L84.852 22.804C89.1 21.856 91.968 20.428 93.684 17.548ZM88.356 18.7C91.752 18.748 91.224 21.136 90.024 20.548C89.76 19.888 88.944 19.168 88.272 18.808L88.356 18.7ZM92.112 16.612C90.648 17.968 88.308 19.42 85.548 20.128L85.464 19.972C87.816 18.976 89.892 17.308 90.9 15.952L92.712 16.396C92.652 16.54 92.484 16.624 92.112 16.612Z" fill="black"/>
</svg>
