<svg width="323" height="54" viewBox="0 0 323 54" fill="none" xmlns="http://www.w3.org/2000/svg">
<path d="M3.62008 43H7.94909V32.677H12.0561C17.9761 32.677 22.3051 29.976 22.3051 24.019C22.3051 17.84 17.9761 15.768 11.9081 15.768H3.62008V43ZM7.94909 29.236V19.246H11.4641C15.8301 19.246 18.0501 20.393 18.0501 24.019C18.0501 27.571 15.9781 29.236 11.6491 29.236H7.94909ZM30.5723 43H34.8643V30.346C36.1223 27.127 38.1203 25.943 39.7483 25.943C40.5993 25.943 41.1173 26.054 41.8203 26.276L42.5603 22.576C41.9313 22.28 41.3023 22.132 40.3033 22.132C38.1203 22.132 35.9743 23.686 34.5313 26.313H34.4203L34.0503 22.65H30.5723V43ZM56.6408 43.518C61.6728 43.518 66.2238 39.596 66.2238 32.862C66.2238 26.054 61.6728 22.132 56.6408 22.132C51.5718 22.132 47.0578 26.054 47.0578 32.862C47.0578 39.596 51.5718 43.518 56.6408 43.518ZM56.6408 40.003C53.4218 40.003 51.4608 37.154 51.4608 32.862C51.4608 28.533 53.4218 25.684 56.6408 25.684C59.8228 25.684 61.8578 28.533 61.8578 32.862C61.8578 37.154 59.8228 40.003 56.6408 40.003ZM82.8455 43.518C85.2135 43.518 87.6185 42.63 89.4685 41.002L87.7295 38.153C86.5085 39.189 84.9915 40.003 83.2895 40.003C79.8855 40.003 77.5545 37.154 77.5545 32.862C77.5545 28.533 79.9595 25.684 83.4375 25.684C84.8065 25.684 85.9535 26.276 87.0635 27.238L89.1355 24.5C87.6925 23.168 85.8055 22.132 83.2155 22.132C77.8505 22.132 73.1515 26.054 73.1515 32.862C73.1515 39.596 77.3695 43.518 82.8455 43.518ZM104.392 43.518C107.056 43.518 109.387 42.63 111.274 41.372L109.794 38.634C108.277 39.596 106.76 40.151 104.947 40.151C101.432 40.151 98.9896 37.857 98.6566 33.972H111.866C111.977 33.454 112.051 32.64 112.051 31.789C112.051 26.017 109.128 22.132 103.763 22.132C99.0266 22.132 94.4756 26.239 94.4756 32.862C94.4756 39.559 98.8416 43.518 104.392 43.518ZM98.5826 31.012C99.0266 27.46 101.284 25.499 103.837 25.499C106.797 25.499 108.351 27.497 108.351 31.012H98.5826ZM125.719 43.518C130.714 43.518 133.415 40.743 133.415 37.302C133.415 33.491 130.307 32.196 127.458 31.123C125.201 30.309 123.24 29.643 123.24 27.904C123.24 26.498 124.276 25.388 126.533 25.388C128.198 25.388 129.641 26.165 131.047 27.164L133.045 24.537C131.417 23.242 129.16 22.132 126.459 22.132C121.908 22.132 119.17 24.685 119.17 28.089C119.17 31.567 122.167 33.01 124.905 34.046C127.088 34.86 129.382 35.711 129.382 37.524C129.382 39.078 128.235 40.262 125.83 40.262C123.61 40.262 121.871 39.337 120.058 37.931L118.06 40.706C120.021 42.334 122.907 43.518 125.719 43.518ZM146.826 43.518C151.821 43.518 154.522 40.743 154.522 37.302C154.522 33.491 151.414 32.196 148.565 31.123C146.308 30.309 144.347 29.643 144.347 27.904C144.347 26.498 145.383 25.388 147.64 25.388C149.305 25.388 150.748 26.165 152.154 27.164L154.152 24.537C152.524 23.242 150.267 22.132 147.566 22.132C143.015 22.132 140.277 24.685 140.277 28.089C140.277 31.567 143.274 33.01 146.012 34.046C148.195 34.86 150.489 35.711 150.489 37.524C150.489 39.078 149.342 40.262 146.937 40.262C144.717 40.262 142.978 39.337 141.165 37.931L139.167 40.706C141.128 42.334 144.014 43.518 146.826 43.518ZM162.383 43H166.675V22.65H162.383V43ZM164.529 18.839C166.083 18.839 167.193 17.84 167.193 16.286C167.193 14.769 166.083 13.77 164.529 13.77C162.938 13.77 161.902 14.769 161.902 16.286C161.902 17.84 162.938 18.839 164.529 18.839ZM176.373 43H180.665V28.57C182.441 26.794 183.736 25.832 185.623 25.832C187.991 25.832 189.027 27.201 189.027 30.753V43H193.319V30.198C193.319 25.055 191.395 22.132 187.066 22.132C184.291 22.132 182.182 23.649 180.332 25.499H180.221L179.851 22.65H176.373V43ZM209.784 52.139C216.296 52.139 220.44 48.957 220.44 45.035C220.44 41.557 217.924 40.077 213.114 40.077H209.34C206.787 40.077 205.936 39.3 205.936 38.116C205.936 37.117 206.417 36.525 207.046 35.97C207.971 36.377 209.007 36.562 209.895 36.562C214.187 36.562 217.554 34.046 217.554 29.569C217.554 28.015 216.999 26.683 216.222 25.869H220.07V22.65H212.892C212.115 22.354 211.079 22.132 209.895 22.132C205.714 22.132 202.014 24.833 202.014 29.458C202.014 31.863 203.346 33.824 204.715 34.86V35.008C203.568 35.822 202.458 37.191 202.458 38.782C202.458 40.447 203.235 41.52 204.308 42.186V42.371C202.421 43.481 201.348 45.072 201.348 46.811C201.348 50.326 204.9 52.139 209.784 52.139ZM209.895 33.824C207.823 33.824 206.084 32.159 206.084 29.458C206.084 26.72 207.786 25.166 209.895 25.166C212.041 25.166 213.743 26.72 213.743 29.458C213.743 32.159 212.004 33.824 209.895 33.824ZM210.413 49.327C207.046 49.327 204.974 48.143 204.974 46.182C204.974 45.146 205.492 44.11 206.713 43.185C207.564 43.407 208.452 43.481 209.414 43.481H212.485C214.964 43.481 216.296 44.036 216.296 45.738C216.296 47.588 213.965 49.327 210.413 49.327Z" fill="#D08421"/>
<path d="M249.501 18.725V40.352C249.501 40.892 249.312 41.081 248.745 41.081C248.205 41.108 246.261 41.135 244.263 41.054C244.614 41.648 244.992 42.593 245.1 43.187C247.665 43.187 249.339 43.133 250.311 42.782C251.283 42.458 251.688 41.864 251.688 40.352V18.725H249.501ZM256.035 25.61C258.33 29.471 260.517 34.547 261.165 37.733L263.325 36.869C262.623 33.602 260.328 28.661 257.979 24.854L256.035 25.61ZM242.427 25.043C241.752 28.688 240.267 33.359 237.864 36.221C238.404 36.437 239.295 36.923 239.781 37.301C242.238 34.277 243.804 29.39 244.695 25.421L242.427 25.043ZM271.182 20.156V42.863H273.261V22.208H286.734V42.755H288.867V20.156H271.182ZM272.559 29.525V31.523H287.625V29.525H272.559ZM272.532 39.083V41.108H287.679V39.083H272.532ZM297.21 30.335V32.36H321.591V30.335H297.21ZM299.91 20.156V22.154H317.541V20.156H299.91ZM316.893 20.156V20.615C315.138 22.505 311.412 25.043 308.388 26.42C308.793 26.771 309.441 27.419 309.738 27.878C312.978 26.312 316.893 23.666 319.404 21.209L317.892 20.048L317.406 20.156H316.893ZM308.388 26.42V40.487C308.388 40.946 308.226 41.081 307.659 41.108C307.065 41.135 305.067 41.162 302.88 41.081C303.231 41.675 303.609 42.566 303.744 43.16C306.363 43.16 308.091 43.133 309.117 42.782C310.17 42.485 310.494 41.864 310.494 40.514V26.42H308.388Z" fill="black"/>
</svg>
