<svg width="51" height="51" viewBox="0 0 51 51" fill="none" xmlns="http://www.w3.org/2000/svg">
<path d="M25.3402 50.6804C11.3631 50.6804 0 39.3174 0 25.3402C0 11.3631 11.3631 0 25.3402 0C39.3174 0 50.6805 11.3631 50.6805 25.3402C50.6805 39.3174 39.3174 50.6804 25.3402 50.6804ZM25.3402 1.16573C12.0107 1.16573 1.17752 12.0107 1.17752 25.3284C1.17752 38.6462 12.0225 49.4911 25.3402 49.4911C38.658 49.4911 49.503 38.6462 49.503 25.3284C49.503 12.0107 38.658 1.16573 25.3402 1.16573Z" fill="white"/>
<path d="M25.3402 50.6804C11.3631 50.6804 0 39.3174 0 25.3402C0 11.3631 11.3631 0 25.3402 0C39.3174 0 50.6805 11.3631 50.6805 25.3402C50.6805 39.3174 39.3174 50.6804 25.3402 50.6804ZM25.3402 1.16573C12.0107 1.16573 1.17752 12.0107 1.17752 25.3284C1.17752 38.6462 12.0225 49.4911 25.3402 49.4911C38.658 49.4911 49.503 38.6462 49.503 25.3284C49.503 12.0107 38.658 1.16573 25.3402 1.16573Z" fill="white"/>
<path d="M16.4267 9.4914C22.2436 9.2088 28.2608 9.67979 34.1012 9.47962C38.3992 9.64447 40.6483 11.9053 40.8132 16.2033V33.5128C40.8014 37.6929 38.3874 40.1422 34.2308 40.3188C28.4138 40.5661 22.4203 40.1304 16.5798 40.3188C12.4584 40.154 10.2094 37.9874 9.95032 33.8779C9.59706 28.4024 10.1153 22.6679 9.90331 17.1571C9.96219 15.1435 10.0446 13.389 11.3399 11.764C12.6351 10.139 14.3896 9.5856 16.4149 9.4914H16.4267ZM24.7047 14.8845C20.6776 15.0964 16.2618 17.4161 15.1314 21.5139C13.7773 26.4006 17.7809 30.5219 22.2673 31.5581C22.8443 31.6876 24.269 31.7818 24.5752 32.2999C25.105 33.2184 23.433 35.6087 25.7409 34.6903C29.8151 33.0653 36.1384 27.9784 35.95 23.1506C35.7263 17.5927 29.6856 14.6254 24.7165 14.8845H24.7047Z" fill="white"/>
<path d="M27.3899 24.0098V21.2662C27.3899 21.1838 27.5782 21.1602 27.6371 21.1484C27.7784 21.1366 28.5438 21.1131 28.5438 21.2662V26.0233C28.5438 26.1882 27.59 26.1882 27.4369 26.0705L25.3528 23.2798V25.9292C25.3528 26.2 24.6463 26.1529 24.4461 26.1411C24.2695 26.1294 24.2106 26.094 24.1635 25.9174C24.2459 24.4808 24.0222 22.8676 24.1517 21.4428C24.1517 21.3368 24.1516 21.2426 24.2458 21.172H25.2585L27.3781 24.0098H27.3899Z" fill="white"/>
<path d="M19.487 24.9872H21.5476C21.5476 24.9872 21.6184 25.0343 21.6537 25.0461C21.7479 25.1403 21.795 26.0587 21.536 26.1294H18.4273C18.4273 26.1294 18.333 26.0352 18.333 26.0234V21.2192L18.4037 21.1484H19.487V24.9754V24.9872Z" fill="white"/>
<path d="M23.4557 26.0233C23.4086 26.1882 22.502 26.1764 22.3843 26.094C22.3607 26.0822 22.3018 25.988 22.3018 25.9763V21.2662C22.3018 21.1838 22.4903 21.1602 22.5491 21.1484C22.6904 21.1366 23.4557 21.1131 23.4557 21.2662V26.0233Z" fill="white"/>
<path d="M33.1449 21.1553L33.1685 22.2148C33.1685 22.2148 33.038 22.309 33.0262 22.309H30.9975V23.0507H33.0262C33.0262 23.0507 33.1566 23.1213 33.1685 23.1448C33.1922 23.2979 33.2635 24.2044 33.0737 24.2044H30.9975V24.9931H33.0737C33.1567 24.9931 33.1804 25.1815 33.1923 25.2403C33.2041 25.3816 33.2279 26.1468 33.0737 26.1468H29.9535C29.9535 26.1468 29.7637 25.9585 29.7874 25.8996C29.8942 24.4751 29.6569 22.8741 29.7874 21.4614C29.7874 21.3436 29.7992 21.2495 29.906 21.1671H33.1449V21.1553Z" fill="white"/>
</svg>
