<svg width="21" height="21" viewBox="0 0 21 21" fill="none" xmlns="http://www.w3.org/2000/svg">
<path d="M13.45 8.21C13.44 8.88 13.19 9.48 12.84 10.03C12.5 10.57 12.01 10.98 11.58 11.45C11.31 11.75 11.05 12.05 10.79 12.37C10.6 12.61 10.51 12.89 10.48 13.2C10.46 13.39 10.43 13.57 10.22 13.66C9.99 13.76 9.75 13.64 9.68 13.4C9.66 13.34 9.65 13.29 9.64 13.23C9.62 12.78 9.42 12.39 9.12 12.07C8.7 11.61 8.26 11.16 7.83 10.7C7.32 10.17 6.91 9.57 6.76 8.84C6.52 7.71 6.86 6.73 7.65 5.91C8.72 4.79 10.27 4.52 11.63 5.25C12.62 5.78 13.22 6.64 13.41 7.76C13.44 7.91 13.44 8.06 13.46 8.21H13.45ZM10.06 7.38C9.54 7.38 9.22 7.74 9.22 8.27C9.22 8.74 9.6 9.09 10.1 9.08C10.57 9.08 10.92 8.7 10.91 8.22C10.91 7.73 10.54 7.37 10.07 7.38H10.06Z" fill="white"/>
<path d="M11.7599 12.49C11.9699 12.27 12.1899 12.05 12.4099 11.83C12.4399 11.8 12.4999 11.8 12.5399 11.81C13.3299 11.95 14.1099 12.16 14.7899 12.61C14.9499 12.71 15.0899 12.83 15.2199 12.97C15.6599 13.44 15.6599 14 15.2199 14.48C14.8499 14.87 14.3899 15.12 13.8799 15.25C13.1899 15.44 12.4799 15.59 11.7699 15.7C10.8799 15.84 9.96993 15.86 9.06993 15.78C7.87993 15.68 6.68993 15.52 5.60993 14.97C5.33993 14.83 5.06993 14.65 4.86993 14.42C4.44993 13.97 4.45993 13.41 4.89993 12.98C5.10993 12.77 5.35993 12.6 5.61993 12.46C6.21993 12.12 6.87993 11.94 7.55993 11.84C7.60993 11.84 7.67993 11.84 7.70993 11.86C7.92993 12.07 8.13993 12.29 8.37993 12.54C8.01993 12.6 7.70993 12.64 7.39993 12.7C6.80993 12.83 6.23993 13.01 5.71993 13.33C5.67993 13.36 5.62993 13.39 5.58993 13.42C5.33993 13.64 5.33993 13.82 5.59993 14.02C6.00993 14.34 6.48993 14.49 6.96993 14.62C8.10993 14.93 9.26993 14.99 10.4399 14.96C11.4299 14.94 12.4199 14.84 13.3699 14.55C13.6699 14.46 13.9599 14.32 14.2399 14.19C14.3599 14.13 14.4699 14.05 14.5699 13.96C14.7499 13.79 14.7599 13.62 14.5699 13.47C14.3599 13.31 14.1299 13.16 13.8799 13.05C13.2599 12.79 12.5999 12.63 11.9299 12.58C11.8799 12.58 11.8299 12.56 11.7799 12.56C11.7799 12.54 11.7599 12.52 11.7499 12.5L11.7599 12.49Z" fill="white"/>
<path d="M10.06 0.25H10.05C4.63761 0.25 0.25 4.63761 0.25 10.05V10.06C0.25 15.4724 4.63761 19.86 10.05 19.86H10.06C15.4724 19.86 19.86 15.4724 19.86 10.06V10.05C19.86 4.63761 15.4724 0.25 10.06 0.25Z" stroke="white" stroke-width="0.5" stroke-miterlimit="10"/>
</svg>
