<svg width="23" height="23" viewBox="0 0 23 23" fill="none" xmlns="http://www.w3.org/2000/svg">
<path d="M11.85 22.6999C17.8422 22.6999 22.6999 17.8422 22.6999 11.85C22.6999 5.8577 17.8422 1 11.85 1C5.8577 1 1 5.8577 1 11.85C1 17.8422 5.8577 22.6999 11.85 22.6999Z" stroke="#E3B15F" stroke-width="0.5" stroke-miterlimit="10"/>
<path d="M11.85 5.39279C8.32732 5.39279 5.47681 8.24931 5.47681 11.766C5.47681 13.6863 6.32896 15.4086 7.67321 16.5788L7.79323 18.3071L9.53955 17.707C10.2597 17.9891 11.0398 18.1451 11.856 18.1451C15.3786 18.1451 18.2291 15.2886 18.2291 11.772C18.2291 8.25531 15.3726 5.39879 11.856 5.39879L11.85 5.39279ZM15.7447 10.1277L14.0704 12.9782C13.6503 13.6983 12.6841 13.8663 12.048 13.3322L10.9138 12.3841C10.7758 12.27 10.5717 12.264 10.4277 12.3661L8.42334 13.8303C8.13529 14.0404 7.76322 13.6923 7.96126 13.3922L9.88761 10.4097C10.2237 9.89361 10.9318 9.77959 11.4059 10.1637L12.6121 11.1358C12.7921 11.2859 13.0562 11.2919 13.2422 11.1538L15.2706 9.68957C15.5526 9.48554 15.9187 9.8156 15.7387 10.1157L15.7447 10.1277Z" fill="#E3B15F"/>
</svg>
