<svg width="24" height="24" viewBox="0 0 24 24" fill="none" xmlns="http://www.w3.org/2000/svg">
<path d="M12.438 16.9629L7.03099 11.5559C5.68075 10.2057 5.68075 8.00927 7.03099 6.65902L7.49308 6.19694C7.73312 5.9569 8.12319 5.9569 8.36324 6.19694L10.6196 8.45335C10.8597 8.69339 10.8597 9.08346 10.6196 9.32351L9.99553 9.94762C9.75549 10.1877 9.75549 10.5777 9.99553 10.8178L13.1701 13.9924C13.4102 14.2324 13.8002 14.2324 14.0403 13.9924L14.6644 13.3682C14.9044 13.1282 15.2945 13.1282 15.5345 13.3682L17.791 15.6247C18.031 15.8647 18.031 16.2548 17.791 16.4948L17.3289 16.9569C15.9786 18.3071 13.7822 18.3071 12.432 16.9569L12.438 16.9629Z" fill="#E3B15F"/>
<path d="M11.9999 22.85C17.9921 22.85 22.8498 17.9923 22.8498 12C22.8498 6.00772 17.9921 1.15002 11.9999 1.15002C6.0076 1.15002 1.1499 6.00772 1.1499 12C1.1499 17.9923 6.0076 22.85 11.9999 22.85Z" stroke="#E3B15F" stroke-width="0.5" stroke-miterlimit="10"/>
</svg>
