<?xml version="1.0" encoding="utf-8"?>
<!-- Generator: Adobe Illustrator 27.6.1, SVG Export Plug-In . SVG Version: 6.00 Build 0)  -->
<svg version="1.1" id="圖層_1" xmlns="http://www.w3.org/2000/svg" xmlns:xlink="http://www.w3.org/1999/xlink" x="0px" y="0px"
	 viewBox="0 0 297 121" style="enable-background:new 0 0 297 121;" xml:space="preserve">
<style type="text/css">
	.st0{fill:#26694D;}
	.st1{fill:#251714;}
	.st2{fill:#231815;}
</style>
<path class="st0" d="M0.5,119.4c8.3-8.6,14-15,17-19c3-4,4.5-8,4.5-11.8c0-3.4-0.9-5.9-2.7-7.7s-4-2.6-6.5-2.6
	c-3.1,0-5.6,1.1-7.6,3.4C4,82.9,3,84.8,2,87.4l-1.5-0.3c1.1-5.2,3.1-8.9,5.8-10.9c2.7-2,5.6-3.1,8.7-3.1c3.8,0,7,1.2,9.3,3.6
	c2.4,2.4,3.6,5.4,3.6,8.9c0,3.7-1.3,7.3-3.9,10.8c-2.6,3.5-8.2,9.6-16.7,18.4H23c2.2,0,3.7-0.3,4.6-0.8c0.9-0.5,1.9-1.8,3-3.8
	l0.9,0.4l-3.8,9.5H0.5V119.4L0.5,119.4z"/>
<path class="st0" d="M39.9,91.2c-1.7-2.2-2.5-4.6-2.5-7.2c0-3,1.2-5.5,3.7-7.6c2.5-2.1,5.7-3.1,9.7-3.1c3.7,0,6.6,1,8.7,3
	c2.2,2,3.2,4.3,3.2,6.9c0,2.6-1.1,5-3.3,7.2c-1.3,1.2-3.3,2.6-6.2,4.2c3.9,2.9,6.6,5.4,8.3,7.5c1.7,2.1,2.5,4.6,2.5,7.5
	c0,3.3-1.2,6-3.7,8.3c-2.5,2.2-5.8,3.3-9.9,3.3c-3.7,0-6.9-1-9.5-3.1c-2.6-2.1-4-4.8-4-8.1c0-2.9,0.9-5.4,2.8-7.6
	c1.2-1.4,3.3-3.2,6.3-5.2C43.1,94.5,41,92.6,39.9,91.2L39.9,91.2z M56.8,116.8c1.3-1.4,2-3.3,2-5.5c0-2.5-0.7-4.5-2.1-6
	c-1.4-1.5-4.3-3.9-8.7-7c-2,1.2-3.4,2.8-4.3,4.8c-0.9,1.9-1.3,3.8-1.3,5.6c0,3.1,0.8,5.6,2.4,7.4c1.6,1.8,3.6,2.8,6.1,2.8
	C53.5,119,55.5,118.3,56.8,116.8L56.8,116.8z M55.8,89.2c1.4-1.7,2.1-3.9,2.1-6.3c0-2.2-0.7-4-2-5.5c-1.3-1.5-3.3-2.3-6.1-2.3
	c-2.1,0-3.8,0.7-5.2,2c-1.4,1.3-2,2.9-2,4.8c0,2.1,0.8,4.1,2.4,5.9c1.6,1.8,3.7,3.5,6.3,5.2C53.5,91.5,55,90.2,55.8,89.2L55.8,89.2z
	"/>
<path class="st0" d="M78.6,116.2c2.1,1.3,3.8,2,5.2,2c3.2,0,5.5-1.1,7.1-3.2c1.5-2.2,2.3-4.5,2.3-7c0-2.5-0.6-4.6-1.9-6.4
	c-2.1-3.1-5.7-4.7-10.7-4.7c-0.3,0-0.6,0-0.9,0c-0.3,0-0.6,0-1,0.1l-0.1-0.9c3.6-1.3,6.5-2.8,8.6-4.5c2.1-1.7,3.1-4,3.1-6.8
	c0-2.5-0.8-4.4-2.5-5.7c-1.7-1.3-3.5-1.9-5.6-1.9c-2.5,0-4.7,0.9-6.6,2.8c-1,1-2.2,2.5-3.4,4.6l-1.1-0.2c0.9-3.5,2.6-6.2,5.1-8.3
	c2.5-2.1,5.3-3.1,8.6-3.1c3.5,0,6.2,1,8.1,2.9c1.9,1.9,2.8,4.1,2.8,6.6c0,2.2-0.8,4.2-2.4,6.1c-0.9,1-2.3,2.2-4.1,3.5
	c2.2,0.9,3.9,2,5.3,3.3c2.5,2.4,3.7,5.4,3.7,9.1c0,4.3-1.7,8.1-5.1,11.4c-3.4,3.3-8.2,4.9-14.5,4.9c-2.8,0-4.8-0.4-5.9-1.2
	c-1.1-0.8-1.7-1.7-1.7-2.7c0-0.6,0.2-1.2,0.6-1.7c0.4-0.5,1-0.8,1.8-0.8C74.9,114.3,76.6,115,78.6,116.2L78.6,116.2z"/>
<path class="st0" d="M113.6,116.2c2.1,1.3,3.8,2,5.2,2c3.2,0,5.5-1.1,7.1-3.2c1.5-2.2,2.3-4.5,2.3-7c0-2.5-0.6-4.6-1.9-6.4
	c-2.1-3.1-5.7-4.7-10.7-4.7c-0.3,0-0.6,0-0.9,0c-0.3,0-0.6,0-1,0.1l-0.1-0.9c3.6-1.3,6.5-2.8,8.6-4.5c2.1-1.7,3.1-4,3.1-6.8
	c0-2.5-0.8-4.4-2.5-5.7c-1.7-1.3-3.5-1.9-5.6-1.9c-2.5,0-4.7,0.9-6.6,2.8c-1,1-2.2,2.5-3.4,4.6l-1.1-0.2c0.9-3.5,2.6-6.2,5.1-8.3
	c2.5-2.1,5.3-3.1,8.6-3.1c3.5,0,6.2,1,8.1,2.9c1.9,1.9,2.8,4.1,2.8,6.6c0,2.2-0.8,4.2-2.4,6.1c-0.9,1-2.3,2.2-4.1,3.5
	c2.2,0.9,3.9,2,5.3,3.3c2.5,2.4,3.7,5.4,3.7,9.1c0,4.3-1.7,8.1-5.1,11.4c-3.4,3.3-8.2,4.9-14.5,4.9c-2.8,0-4.8-0.4-5.9-1.2
	c-1.1-0.8-1.7-1.7-1.7-2.7c0-0.6,0.2-1.2,0.6-1.7c0.4-0.5,1-0.8,1.8-0.8C109.9,114.3,111.5,115,113.6,116.2L113.6,116.2z"/>
<path class="st0" d="M140.5,96.2h17.3v4.4h-17.3V96.2z"/>
<path class="st0" d="M189.7,115.9c-2.7,3.3-6.1,5-10.4,5c-4,0-7.6-1.9-10.9-5.6c-3.3-3.8-4.9-8.7-4.9-15c0-8,3.2-14.9,9.6-20.7
	c5.7-4.8,12.1-7.2,19.2-7.2l0.2,1.1c-2.8,0.5-5.3,1.2-7.4,2.1c-2.1,0.9-3.9,2.1-5.5,3.8c-1.7,1.6-3.2,3.7-4.7,6.2
	c-1.5,2.5-2.5,5-3,7.5c1.4-0.9,2.6-1.5,3.6-1.9c1.8-0.7,3.6-1.1,5.5-1.1c3.6,0,6.7,1.2,9.1,3.8c2.5,2.5,3.7,6.1,3.7,10.7
	C193.7,108.9,192.4,112.6,189.7,115.9L189.7,115.9z M186.1,99.3c-1.6-3.9-4.3-5.9-8.1-5.9c-3.5,0-5.9,1-7,3.1c-0.7,1.2-1,3.3-1,6.1
	c0,3.7,0.8,7.3,2.4,10.9c1.6,3.5,4.1,5.3,7.5,5.3c2.7,0,4.7-1.2,5.9-3.5c1.2-2.3,1.8-5,1.8-8.1C187.5,104.2,187,101.6,186.1,99.3
	L186.1,99.3z"/>
<path class="st0" d="M224.6,115.9c-2.7,3.3-6.1,5-10.4,5c-4,0-7.6-1.9-10.9-5.6c-3.3-3.8-4.9-8.7-4.9-15c0-8,3.2-14.9,9.6-20.7
	c5.7-4.8,12.1-7.2,19.2-7.2l0.2,1.1c-2.8,0.5-5.3,1.2-7.3,2.1c-2.1,0.9-3.9,2.1-5.5,3.8c-1.7,1.6-3.2,3.7-4.7,6.2
	c-1.5,2.5-2.5,5-3,7.5c1.4-0.9,2.6-1.5,3.6-1.9c1.8-0.7,3.6-1.1,5.5-1.1c3.6,0,6.7,1.2,9.1,3.8c2.5,2.5,3.7,6.1,3.7,10.7
	C228.7,108.9,227.3,112.6,224.6,115.9L224.6,115.9z M221,99.3c-1.6-3.9-4.3-5.9-8.1-5.9c-3.5,0-5.9,1-7,3.1c-0.7,1.2-1,3.3-1,6.1
	c0,3.7,0.8,7.3,2.4,10.9c1.6,3.5,4.1,5.3,7.5,5.3c2.7,0,4.7-1.2,5.9-3.5c1.2-2.3,1.8-5,1.8-8.1C222.4,104.2,221.9,101.6,221,99.3
	L221,99.3z"/>
<path class="st0" d="M237.5,91.2c-1.7-2.2-2.5-4.6-2.5-7.2c0-3,1.2-5.5,3.7-7.6c2.5-2.1,5.7-3.1,9.7-3.1c3.7,0,6.6,1,8.7,3
	c2.2,2,3.2,4.3,3.2,6.9c0,2.6-1.1,5-3.3,7.2c-1.3,1.2-3.3,2.6-6.2,4.2c3.9,2.9,6.6,5.4,8.3,7.5c1.7,2.1,2.5,4.6,2.5,7.5
	c0,3.3-1.2,6-3.7,8.3c-2.5,2.2-5.8,3.3-9.9,3.3c-3.7,0-6.9-1-9.5-3.1s-4-4.8-4-8.1c0-2.9,0.9-5.4,2.8-7.6c1.2-1.4,3.3-3.2,6.3-5.2
	C240.7,94.5,238.6,92.6,237.5,91.2L237.5,91.2z M254.4,116.8c1.3-1.4,2-3.3,2-5.5c0-2.5-0.7-4.5-2.1-6c-1.4-1.5-4.3-3.9-8.8-7
	c-2,1.2-3.4,2.8-4.3,4.8s-1.3,3.8-1.3,5.6c0,3.1,0.8,5.6,2.4,7.4c1.6,1.8,3.6,2.8,6.1,2.8C251.1,119,253.1,118.3,254.4,116.8
	L254.4,116.8z M253.4,89.2c1.4-1.7,2.1-3.9,2.1-6.3c0-2.2-0.7-4-2-5.5c-1.3-1.5-3.3-2.3-6.1-2.3c-2.1,0-3.8,0.7-5.2,2
	c-1.4,1.3-2,2.9-2,4.8c0,2.1,0.8,4.1,2.4,5.9c1.6,1.8,3.7,3.5,6.3,5.2C251.1,91.5,252.5,90.2,253.4,89.2L253.4,89.2z"/>
<path class="st0" d="M272.5,91.2c-1.7-2.2-2.5-4.6-2.5-7.2c0-3,1.2-5.5,3.7-7.6c2.5-2.1,5.7-3.1,9.7-3.1c3.7,0,6.6,1,8.7,3
	c2.2,2,3.2,4.3,3.2,6.9c0,2.6-1.1,5-3.3,7.2c-1.3,1.2-3.3,2.6-6.2,4.2c3.9,2.9,6.6,5.4,8.3,7.5c1.7,2.1,2.5,4.6,2.5,7.5
	c0,3.3-1.2,6-3.7,8.3c-2.5,2.2-5.8,3.3-9.9,3.3c-3.7,0-6.9-1-9.5-3.1s-4-4.8-4-8.1c0-2.9,0.9-5.4,2.8-7.6c1.2-1.4,3.3-3.2,6.3-5.2
	C275.6,94.5,273.5,92.6,272.5,91.2L272.5,91.2z M289.3,116.8c1.3-1.4,2-3.3,2-5.5c0-2.5-0.7-4.5-2.1-6c-1.4-1.5-4.3-3.9-8.7-7
	c-2,1.2-3.4,2.8-4.3,4.8c-0.9,2-1.3,3.8-1.3,5.6c0,3.1,0.8,5.6,2.4,7.4c1.6,1.8,3.6,2.8,6.1,2.8C286,119,288,118.3,289.3,116.8
	L289.3,116.8z M288.3,89.2c1.4-1.7,2.1-3.9,2.1-6.3c0-2.2-0.7-4-2-5.5c-1.3-1.5-3.3-2.3-6.1-2.3c-2.1,0-3.8,0.7-5.2,2
	c-1.4,1.3-2,2.9-2,4.8c0,2.1,0.8,4.1,2.4,5.9c1.6,1.8,3.7,3.5,6.3,5.2C286,91.5,287.5,90.2,288.3,89.2L288.3,89.2z"/>
<path class="st1" d="M175.4,60.8c1,0.6,1.8,0.9,2.5,0.9c1.5,0,2.7-0.5,3.4-1.6c0.8-1,1.1-2.2,1.1-3.4c0-1.2-0.3-2.2-0.9-3.1
	c-1-1.5-2.7-2.3-5.2-2.3c-0.1,0-0.3,0-0.4,0s-0.3,0-0.5,0l0-0.4c1.8-0.6,3.1-1.4,4.1-2.2c1-0.8,1.5-1.9,1.5-3.3
	c0-1.2-0.4-2.1-1.2-2.7c-0.8-0.6-1.7-0.9-2.7-0.9c-1.2,0-2.3,0.4-3.2,1.3c-0.5,0.5-1,1.2-1.6,2.2l-0.5-0.1c0.4-1.7,1.3-3,2.5-4
	c1.2-1,2.6-1.5,4.1-1.5c1.7,0,3,0.5,3.9,1.4c0.9,0.9,1.4,2,1.4,3.2c0,1.1-0.4,2-1.1,2.9c-0.4,0.5-1.1,1.1-2,1.7
	c1.1,0.4,1.9,1,2.5,1.6c1.2,1.2,1.8,2.6,1.8,4.4c0,2.1-0.8,3.9-2.5,5.5c-1.6,1.6-4,2.4-7,2.4c-1.3,0-2.3-0.2-2.8-0.6
	c-0.5-0.4-0.8-0.8-0.8-1.3c0-0.3,0.1-0.6,0.3-0.8c0.2-0.3,0.5-0.4,0.9-0.4C173.6,59.9,174.3,60.2,175.4,60.8L175.4,60.8z"/>
<path class="st1" d="M198.1,63.3c-0.2,0-0.3,0-0.5-0.1c-0.1-0.1-0.2-0.2-0.2-0.3c0-0.1,0-0.2,0-0.4c0.1-1.7,0.2-3.5,0.2-5.2v-3
	c-2.1,3.1-5.1,5.5-8.9,7.3l-0.2-0.3c1.7-1.1,3.2-2.5,4.6-4.3c1.3-1.6,2.4-3.3,3.3-5.1h-3.8c-1.1,0-2.2,0.1-3.3,0.3l-0.6-1.1
	c0.8,0.1,1.8,0.2,3,0.2h5.9V47c0-1.9-0.1-3.4-0.3-4.6c1.4,0.3,2.3,0.6,2.7,0.8c0.3,0.2,0.3,0.3,0,0.4l-0.4,0.2v7.2h5.2l0.6-0.8
	c0-0.1,0.1-0.2,0.2-0.3c0.3-0.4,0.5-0.6,0.6-0.6c0.2,0,0.6,0.3,1.3,0.9c0.7,0.6,1.1,1,1.1,1.1c-0.1,0.2-0.3,0.4-0.6,0.4h-8
	c1,1.6,2.3,3.1,3.9,4.4c1.6,1.3,3.2,2.2,4.9,2.8l0,0.3c-0.9,0.2-1.5,0.8-1.8,1.8c-1.6-0.9-3-2.1-4.3-3.7c-1.3-1.5-2.3-3.3-3.1-5.4
	v5.1c0,1.8,0.1,3.6,0.2,5.2c-0.1,0.2-0.3,0.4-0.7,0.5C198.8,63.2,198.4,63.3,198.1,63.3L198.1,63.3z M194.9,49.8
	c-0.4,0.3-0.9,0.2-1.4-0.2c-0.2-0.8-0.5-1.8-1-2.8c-0.5-0.9-1-1.7-1.7-2.5l0.2-0.2c1.4,0.6,2.5,1.3,3.3,2.1c0.6,0.7,1,1.4,1,2.1
	C195.4,49.1,195.3,49.6,194.9,49.8L194.9,49.8z M201.3,50.1l-0.2-0.2c0,0,0.1-0.1,0.1-0.2c0.4-0.6,0.7-1.2,0.9-1.6
	c0.4-0.6,0.7-1.4,1.1-2.3c0.4-0.9,0.6-1.6,0.8-2.2l1.6,1c0.6,0.3,1,0.5,1.2,0.6c0.1,0.1,0,0.2-0.2,0.3l-0.4,0.1
	C204.6,47.5,203,49,201.3,50.1L201.3,50.1z"/>
<path class="st1" d="M225,60.7c-1.3,1.6-3,2.4-5,2.4c-1.9,0-3.7-0.9-5.3-2.7c-1.6-1.8-2.4-4.2-2.4-7.2c0-3.9,1.5-7.2,4.6-10
	c2.7-2.3,5.8-3.5,9.3-3.5l0.1,0.5c-1.4,0.3-2.6,0.6-3.5,1c-1,0.4-1.9,1-2.7,1.8c-0.8,0.8-1.6,1.8-2.3,3c-0.7,1.2-1.2,2.4-1.4,3.6
	c0.7-0.4,1.3-0.7,1.8-0.9c0.9-0.4,1.8-0.5,2.7-0.5c1.7,0,3.2,0.6,4.4,1.8c1.2,1.2,1.8,2.9,1.8,5.2C226.9,57.3,226.3,59.1,225,60.7
	L225,60.7z M223.2,52.6c-0.8-1.9-2.1-2.8-3.9-2.8c-1.7,0-2.8,0.5-3.4,1.5c-0.3,0.6-0.5,1.6-0.5,3c0,1.8,0.4,3.5,1.1,5.3
	c0.8,1.7,2,2.6,3.6,2.6c1.3,0,2.3-0.6,2.8-1.7c0.6-1.1,0.9-2.4,0.9-3.9C223.9,55,223.6,53.7,223.2,52.6L223.2,52.6z"/>
<path class="st1" d="M231.3,47.7l-0.6-1.1c0.8,0.1,1.8,0.2,3,0.2h3.6l0.5-0.7c0,0,0.1-0.1,0.2-0.2c0.2-0.3,0.4-0.5,0.5-0.5
	c0.2,0,0.5,0.2,1,0.7c0.5,0.5,0.8,0.8,0.8,0.9c-0.1,0.2-0.3,0.4-0.6,0.4h-5.7C233.1,47.4,232.2,47.5,231.3,47.7L231.3,47.7z
	 M232.3,63c-0.3,0-0.4-0.2-0.4-0.4c0.1-0.6,0.1-1.4,0.1-2.4v-1.4c0-1.7-0.1-3.2-0.3-4.3l2.2,1h2.6l0.4-0.6c0,0,0.1-0.1,0.2-0.2
	c0.2-0.3,0.4-0.4,0.4-0.4c0.2,0,0.5,0.3,1.1,0.8c0.6,0.5,0.8,0.8,0.8,1c-0.2,0.2-0.4,0.4-0.9,0.4v1.8c0,1.4,0.1,2.5,0.1,3.4
	c-0.1,0.2-0.3,0.3-0.7,0.5c-0.4,0.2-0.7,0.2-1,0.2c-0.3,0-0.4-0.2-0.4-0.4c0-0.1,0-0.1,0-0.2c0-0.1,0-0.1,0-0.2v-0.4h-2.9v0.5
	c0,0.2,0,0.3,0,0.5c0,0.2,0,0.3,0,0.4c0,0.2-0.2,0.3-0.6,0.5C233,62.9,232.6,63,232.3,63L232.3,63z M232.4,50.5l-0.6-1.1
	c0.8,0.1,1.8,0.2,3,0.2h1.5l0.4-0.6c0,0,0.1-0.1,0.2-0.2c0.2-0.3,0.4-0.4,0.4-0.4c0.2,0,0.5,0.2,1,0.7c0.5,0.5,0.8,0.8,0.8,0.9
	c-0.1,0.2-0.3,0.3-0.6,0.3h-2.7C234.6,50.3,233.5,50.4,232.4,50.5z M232.4,53.4l-0.6-1.1c0.8,0.1,1.8,0.2,3,0.2h1.5l0.4-0.6
	c0,0,0.1-0.1,0.2-0.2c0.2-0.3,0.4-0.4,0.4-0.4c0.2,0,0.5,0.2,1,0.7c0.5,0.5,0.8,0.8,0.8,0.9c-0.1,0.2-0.2,0.4-0.6,0.4h-2.7
	C234.6,53.1,233.5,53.2,232.4,53.4z M232.4,44.9l-0.6-1.1c0.8,0.1,1.8,0.2,2.9,0.2h1.4l0.5-0.7c0,0,0.1-0.1,0.2-0.2
	c0.2-0.3,0.4-0.5,0.5-0.5c0.2,0,0.5,0.2,1,0.7s0.8,0.8,0.8,0.9c0,0.2-0.2,0.4-0.6,0.4h-2.8C234.7,44.6,233.6,44.7,232.4,44.9
	L232.4,44.9z M233.9,60.2h2.9V56h-2.9V60.2z M237.9,63.1l-0.2-0.3c2.3-1,4.2-2.4,5.7-4.1c-1.1-1.5-1.9-3.3-2.4-5.6h-0.5
	c-0.3,0-0.5,0.1-0.8,0.3l-0.6-1.1c0.8,0.1,1.8,0.2,3,0.2h4.3l0.5-0.6l0.2-0.2c0.2-0.3,0.4-0.4,0.5-0.4c0.2,0,0.5,0.3,1.1,0.8
	c0.6,0.5,0.9,0.9,0.9,1.1c-0.2,0.2-0.4,0.3-0.9,0.3c-0.7,2-1.8,3.8-3.1,5.2c1.5,1,3.3,1.8,5.5,2.4l0,0.2c-0.9,0.2-1.5,0.8-1.8,1.8
	c-2.1-0.9-3.7-1.9-4.9-3.3C242.7,61.3,240.6,62.4,237.9,63.1L237.9,63.1z M239.3,51.9l-0.2-0.3c0.8-0.8,1.3-1.8,1.7-3
	c0.2-0.8,0.3-1.9,0.3-3.1v-1.4c0-0.6,0-1-0.1-1.4l2.3,1h2.1l0.4-0.6c0,0,0.1-0.1,0.2-0.2c0.2-0.3,0.4-0.4,0.4-0.4
	c0.1,0,0.5,0.3,1,0.8c0.5,0.5,0.8,0.8,0.8,1c-0.2,0.2-0.4,0.3-0.7,0.3v3.9c0,0.1,0,0.2,0.1,0.2c0.1,0,0.1,0.1,0.3,0.1h0.7
	c0.4,0,0.6,0,0.6,0c0.1,0,0.2-0.1,0.3-0.2c0.1-0.3,0.3-1.1,0.7-2.6h0.2l0.1,2.6c0.4,0.2,0.6,0.5,0.6,0.8c0,0.4-0.2,0.7-0.6,0.9
	c-0.4,0.2-1.1,0.3-2.1,0.3h-1.1c-0.7,0-1.1-0.1-1.3-0.4c-0.2-0.2-0.3-0.6-0.3-1.3v-4.6h-2.7v1.2C242.9,48.6,241.7,50.7,239.3,51.9
	L239.3,51.9z M244.5,57.6c1-1.3,1.7-2.8,2.1-4.5h-5C242.2,54.9,243.2,56.4,244.5,57.6z"/>
<path class="st1" d="M253.7,48l-0.6-1.1c0.8,0.1,1.8,0.2,3,0.2h3.9l0.5-0.7c0,0,0.1-0.1,0.1-0.2c0.2-0.4,0.4-0.5,0.5-0.5
	c0.2,0,0.5,0.2,1.1,0.7c0.6,0.5,0.8,0.8,0.8,1c-0.1,0.2-0.3,0.4-0.6,0.4h-6C255.5,47.7,254.6,47.8,253.7,48L253.7,48z M254.7,45.2
	l-0.6-1.1c0.8,0.1,1.8,0.2,3,0.2h1.7l0.5-0.7c0-0.1,0.1-0.1,0.2-0.2c0.2-0.3,0.4-0.4,0.4-0.4c0.2,0,0.5,0.2,1,0.7
	c0.5,0.5,0.8,0.8,0.8,0.9c-0.1,0.2-0.2,0.4-0.6,0.4H258C256.9,44.9,255.8,45,254.7,45.2L254.7,45.2z M254.7,50.9l-0.6-1.1
	c0.8,0.1,1.8,0.2,3,0.2h1.9l0.5-0.7c0,0,0.1-0.1,0.2-0.2c0.2-0.3,0.4-0.5,0.5-0.5c0.2,0,0.5,0.2,1,0.7c0.5,0.5,0.8,0.8,0.8,0.9
	c-0.1,0.2-0.2,0.3-0.6,0.3H258C256.9,50.6,255.8,50.7,254.7,50.9L254.7,50.9z M254.7,53.8l-0.6-1.1c0.8,0.1,1.8,0.2,3,0.2h1.9
	l0.5-0.7c0,0,0.1-0.1,0.2-0.2c0.2-0.3,0.4-0.5,0.5-0.5c0.2,0,0.5,0.2,1,0.7c0.5,0.5,0.8,0.8,0.8,0.9c-0.1,0.2-0.2,0.4-0.6,0.4H258
	C256.9,53.5,255.8,53.6,254.7,53.8L254.7,53.8z M254.6,63.4c-0.3,0-0.4-0.2-0.4-0.4c0.1-0.6,0.1-1.4,0.1-2.4v-1.4
	c0-1.7-0.1-3.2-0.3-4.3l2.2,1h2.8l0.4-0.6c0,0,0.1-0.1,0.2-0.2c0.2-0.2,0.3-0.4,0.4-0.4c0.2,0,0.5,0.2,1.1,0.7
	c0.6,0.5,0.9,0.8,0.9,0.9c-0.2,0.2-0.5,0.4-0.9,0.4v1.8c0,1.5,0.1,2.7,0.1,3.5c-0.1,0.2-0.3,0.3-0.7,0.5c-0.4,0.2-0.8,0.2-1,0.2
	c-0.3,0-0.4-0.2-0.4-0.4c0,0,0-0.1,0-0.1c0-0.1,0-0.1,0-0.2v-0.4h-3.1v1.1c0,0.1-0.2,0.2-0.5,0.4C255.4,63.3,255,63.3,254.6,63.4
	L254.6,63.4z M256.2,61h3.1v-4.6h-3.1V61z M266.8,63.4c-0.2,0-0.3,0-0.4-0.1c-0.1-0.1-0.2-0.2-0.2-0.3c0.1-1.9,0.2-3.8,0.2-5.8v-6.2
	h-1.4c-0.8,0-1.6,0.1-2.5,0.3l-0.6-1.1c0.8,0.1,1.8,0.2,3,0.2h1.5v-3.1c0-1.9-0.1-3.4-0.3-4.6c1.5,0.4,2.4,0.6,2.7,0.8
	c0.3,0.2,0.3,0.3,0,0.5l-0.4,0.3v6.1h1.7l0.5-0.8c0-0.1,0.1-0.2,0.2-0.3c0.3-0.4,0.4-0.6,0.5-0.6c0.1,0,0.5,0.3,1.1,0.9
	c0.6,0.6,0.9,0.9,0.9,1.1c-0.1,0.2-0.3,0.4-0.6,0.4h-4.4v6.3c0,1.8,0.1,3.6,0.2,5.2c-0.1,0.2-0.3,0.4-0.7,0.6
	C267.6,63.3,267.2,63.4,266.8,63.4z"/>
<path class="st1" d="M279.4,63.4c-0.1-0.7-0.2-1.1-0.3-1.3c-0.3-0.3-0.7-0.5-1.4-0.6v-0.3c0.6,0,1.2,0.1,1.8,0.1
	c0.3,0,0.4-0.1,0.4-0.4v-5.6h-1.4c-0.8,0-1.6,0.1-2.5,0.3l-0.6-1.1c0.8,0.1,1.8,0.2,3,0.2h5l0.5-0.7c0,0,0.1-0.1,0.2-0.2
	c0.3-0.3,0.4-0.5,0.5-0.5c0.2,0,0.5,0.3,1.1,0.8c0.6,0.5,0.9,0.8,0.9,1c-0.1,0.2-0.3,0.4-0.6,0.4h-4.1v5.6c0,0.8-0.1,1.4-0.4,1.7
	C281.1,63.1,280.4,63.3,279.4,63.4L279.4,63.4z M275.8,61.5l-0.3-0.2c0-0.1,0.1-0.2,0.2-0.4c0-0.1,0.1-0.2,0.1-0.2
	c0.3-0.7,0.5-1.4,0.7-2.3c0.2-0.9,0.3-1.6,0.3-2.2l1.5,0.5c1.1,0.2,1.3,0.4,0.9,0.7l-0.4,0.2C278,59.3,277,60.6,275.8,61.5z
	 M276.6,49.6l-0.6-1.1c0.7,0.1,1.6,0.2,2.6,0.2h1.2V46h-1.3c-0.8,0-1.6,0.1-2.5,0.3l-0.6-1.1c0.8,0.1,1.8,0.2,2.9,0.2h1.4
	c0-1.1-0.1-2-0.2-2.8c1.3,0.3,2.1,0.6,2.4,0.8c0.2,0.1,0.2,0.3,0,0.4l-0.4,0.2v1.3h1.5l0.5-0.7c0-0.1,0.1-0.1,0.2-0.2
	c0.2-0.3,0.4-0.5,0.5-0.5c0.2,0,0.5,0.2,1.1,0.7c0.6,0.5,0.8,0.8,0.8,1c-0.1,0.2-0.3,0.4-0.6,0.4h-4v2.6h1.2l0.5-0.7
	c0,0,0.1-0.1,0.1-0.2c0.2-0.3,0.4-0.5,0.5-0.5c0.2,0,0.5,0.2,1,0.7c0.5,0.5,0.8,0.8,0.8,0.9c-0.1,0.2-0.2,0.4-0.5,0.4H280
	C278.9,49.3,277.8,49.4,276.6,49.6L276.6,49.6z M277.1,52.5l-0.6-1.1c0.8,0.1,1.8,0.2,3,0.2h2.8l0.5-0.7c0-0.1,0.1-0.1,0.2-0.2
	c0.2-0.3,0.4-0.4,0.4-0.4c0.2,0,0.5,0.2,1,0.7c0.5,0.5,0.8,0.8,0.8,1c0,0.2-0.2,0.4-0.6,0.4h-4.3C279.4,52.1,278.2,52.3,277.1,52.5z
	 M283.9,60.1c0-0.6-0.2-1.2-0.4-1.9c-0.3-0.6-0.6-1.2-0.9-1.7l0.2-0.1c1.1,0.4,1.9,0.9,2.4,1.5c0.4,0.5,0.6,1,0.6,1.6
	c0,0.5-0.3,0.8-0.6,1C284.7,60.6,284.3,60.5,283.9,60.1L283.9,60.1z M294,63.4c-1-1-1.8-2.6-2.4-4.6c-0.5-1.7-0.8-4-1-6.7
	c-0.2,2.6-0.7,4.6-1.5,6.3c-1,2-2.6,3.7-4.7,5L284,63c1.5-1.3,2.6-2.7,3.3-4.4c0.6-1.4,1.1-3.1,1.3-5c0.1-1.2,0.2-3.1,0.2-5.5h-0.2
	c-0.9,1.7-1.9,3.1-3.1,4.2l-0.3-0.2c0.8-1.3,1.4-2.8,2-4.6c0.2-0.7,0.4-1.6,0.6-2.5c0.2-1,0.2-1.8,0.2-2.4c1.4,0.4,2.2,0.7,2.6,0.9
	c0.3,0.2,0.3,0.3,0,0.4l-0.4,0.2c-0.3,1.2-0.7,2.3-1.2,3.4h3.9l0.5-0.5c0,0,0.1-0.1,0.2-0.2c0.2-0.2,0.4-0.4,0.4-0.4
	c0.1,0,0.5,0.3,1,0.8c0.5,0.5,0.8,0.9,0.8,1c-0.1,0.1-0.4,0.2-0.8,0.3c-0.3,0.6-0.7,1.2-1.3,2c-0.5,0.7-1,1.4-1.5,1.9l-0.3-0.2
	c0.5-1.3,0.8-2.7,1.1-4.1h-2.2c0.2,3.4,0.6,6,1.3,7.9c0.8,2.2,2,3.9,3.7,5.1l0,0.2C294.8,61.5,294.2,62.2,294,63.4L294,63.4z"/>
<path class="st2" d="M190.7,31.8c5.4-5.6,9-9.7,11-12.3c1.9-2.6,2.9-5.2,2.9-7.6c0-2.2-0.6-3.8-1.8-5c-1.2-1.1-2.6-1.7-4.2-1.7
	c-2,0-3.6,0.7-4.9,2.2c-0.7,0.8-1.3,2-2,3.7l-1-0.2c0.7-3.4,2-5.7,3.7-7c1.8-1.3,3.6-2,5.7-2c2.5,0,4.5,0.8,6,2.3
	c1.5,1.6,2.3,3.5,2.3,5.7c0,2.4-0.8,4.7-2.5,7c-1.7,2.2-5.3,6.2-10.8,11.9h10.1c1.4,0,2.4-0.2,3-0.5c0.6-0.3,1.2-1.2,1.9-2.5
	l0.6,0.3l-2.4,6.1h-17.6V31.8z"/>
<path class="st2" d="M230.1,17.2c1.6,0,2.9-1.2,3.4-4.7l2.1,0.3c-0.3,4.4-2.2,6.7-5.8,6.7c-2.2,0-3.7-1-5.7-2.7
	c-1.6-1.5-2.9-2.1-4.3-2.1c-1.6,0-2.9,1.2-3.4,4.7l-2.2-0.4c0.3-4.3,2.3-6.7,5.8-6.7c2.2,0,3.8,1,5.7,2.8
	C227.3,16.5,228.6,17.2,230.1,17.2L230.1,17.2z"/>
<path class="st2" d="M244.7,29.5c1.3,0.8,2.5,1.3,3.4,1.3c2.1,0,3.6-0.7,4.6-2.1c1-1.4,1.5-2.9,1.5-4.5c0-1.6-0.4-3-1.2-4.1
	c-1.4-2-3.7-3-6.9-3c-0.2,0-0.4,0-0.5,0c-0.2,0-0.4,0-0.6,0.1l0-0.6c2.4-0.9,4.2-1.8,5.6-2.9c1.3-1.1,2-2.6,2-4.4
	c0-1.6-0.5-2.8-1.6-3.7c-1.1-0.8-2.3-1.3-3.7-1.3c-1.6,0-3,0.6-4.3,1.8c-0.7,0.6-1.4,1.6-2.2,3L240,8.9c0.6-2.2,1.7-4,3.3-5.4
	c1.6-1.3,3.5-2,5.6-2c2.3,0,4,0.6,5.2,1.9c1.2,1.2,1.8,2.7,1.8,4.3c0,1.4-0.5,2.7-1.5,3.9c-0.6,0.7-1.5,1.4-2.7,2.3
	c1.4,0.6,2.5,1.3,3.4,2.1c1.6,1.5,2.4,3.5,2.4,5.9c0,2.8-1.1,5.3-3.3,7.4c-2.2,2.1-5.3,3.2-9.4,3.2c-1.8,0-3.1-0.3-3.8-0.8
	c-0.7-0.5-1.1-1.1-1.1-1.7c0-0.4,0.1-0.8,0.4-1.1c0.2-0.4,0.6-0.5,1.2-0.5C242.3,28.3,243.4,28.7,244.7,29.5z"/>
<path class="st2" d="M285.8,32c0-0.9-0.2-1.5-0.6-1.9c-0.5-0.4-1.5-0.7-3.1-1v-0.5c0.2,0,0.4,0,0.9,0.1c2,0.2,3.2,0.2,3.5,0.2
	c0.5,0,0.9-0.1,1.1-0.3c0.7-0.5,1.2-2.5,1.5-5.8H281c-0.7,1.9-1.8,3.6-3.4,4.9c-1.9,1.6-4.5,3-7.8,4.1l-0.4-0.5
	c3.7-1.7,6.3-3.8,7.7-6.2c1-1.7,1.6-3.9,1.8-6.6h-7.4c-0.7,5.7-2.7,10.1-6.2,13.1l-0.4-0.3c1.7-2.5,2.9-5.5,3.6-9.1
	c0.5-2.6,0.7-5.8,0.7-9.8V7.4c0-2.1-0.1-3.9-0.3-5.3l2.8,1.2c3.1-0.3,6.4-0.8,10-1.4c3.5-0.6,6.3-1.2,8.5-1.9c1.3,1.3,2,2.2,2.3,2.6
	c0.2,0.3,0,0.5-0.5,0.4L291,2.9c-6.2,0.8-12.6,1.1-19.2,1.1v2.9h18.2l0.6-0.8c0.1-0.1,0.2-0.2,0.2-0.3c0.3-0.4,0.5-0.6,0.6-0.6
	c0.2,0,0.8,0.4,1.6,1.1c0.8,0.7,1.2,1.2,1.2,1.4c-0.2,0.3-0.7,0.5-1.3,0.7v1.8c0,0.3,0,0.6,0,1.1c0,1,0.1,1.8,0.1,2.3
	c-0.1,0.2-0.4,0.4-1,0.7c-0.5,0.2-1,0.4-1.5,0.4h-0.4v-1.4h-18.5c0,1.4-0.1,2.9-0.2,4.4h8.8c0-1.7-0.1-3-0.2-4.1
	c1.7,0.5,2.8,0.9,3.3,1.1c0.3,0.2,0.3,0.4,0,0.6l-0.4,0.3v2h8.2l0.7-1c0.1-0.1,0.2-0.2,0.3-0.3c0.3-0.5,0.6-0.7,0.7-0.7
	c0.2,0,0.8,0.4,1.6,1.1c0.9,0.7,1.3,1.2,1.3,1.5c-0.1,0.4-0.4,0.6-0.9,0.6h-13c-0.1,1.2-0.3,2.3-0.6,3.2h7.5l0.6-0.7
	c0,0,0.1-0.1,0.2-0.2c0.3-0.3,0.5-0.5,0.7-0.5c0.2,0,0.7,0.3,1.5,1c0.8,0.6,1.2,1.1,1.2,1.3c-0.3,0.3-0.7,0.4-1.2,0.5
	c-0.4,4.3-1.2,6.9-2.6,7.8C288.4,31.6,287.2,32,285.8,32L285.8,32z M271.9,12.1h18.5V7.9h-18.5V12.1z"/>
<path class="st2" d="M6.5,48.9c-0.2,0-0.4-0.1-0.4-0.4c0-0.2,0.1-0.5,0.1-0.8c0-0.2,0-0.3,0-0.4v-0.8H4.4c-1,0-2.2,0.1-3.3,0.3
	l-0.5-1.1c0.8,0.1,1.8,0.2,2.9,0.2h2.8c0-1.2-0.1-2.1-0.2-2.8c1.2,0.3,1.9,0.6,2.2,0.7c0.2,0.1,0.2,0.3,0,0.4L8,44.3v1.4h4.9
	c0-1.2-0.1-2.1-0.2-2.8c1.2,0.3,1.9,0.6,2.2,0.7c0.2,0.1,0.2,0.3,0,0.4l-0.4,0.2v1.4h2.7l0.5-0.7c0-0.1,0.1-0.2,0.2-0.3
	c0.2-0.3,0.4-0.5,0.4-0.5c0.2,0,0.5,0.3,1.1,0.8c0.6,0.5,0.9,0.8,0.9,1c0,0.2-0.2,0.4-0.6,0.4h-5.2V47c0,0.1,0,0.3,0,0.5
	c0,0.3,0.1,0.5,0.1,0.7c0,0.2-0.2,0.3-0.5,0.4c-0.3,0.1-0.6,0.2-1,0.2c-0.3,0-0.4-0.2-0.4-0.4c0-0.2,0.1-0.4,0.1-0.8
	c0-0.2,0-0.3,0-0.4v-0.8H8v0.7c0,0.2,0,0.3,0,0.5c0,0.3,0.1,0.5,0.1,0.7c0,0.2-0.2,0.3-0.5,0.4C7.2,48.8,6.9,48.8,6.5,48.9L6.5,48.9
	z M2.7,63.3l-1.8-1.9c1.2-1.1,2.3-2.3,3.4-3.5l0.3-1.7l1.2,0.3l-1,1.6l-0.1,0.2c0.3,0.5,0.6,0.9,1,1.3c1.8-0.9,3.5-2.1,5.2-3.4
	c1.7-1.4,3.1-2.7,4.1-4.1H6.3c-1,0-2.2,0.1-3.3,0.3l-0.6-1.1c0.8,0.1,1.8,0.2,2.9,0.2h4.2c0-1.5-0.1-2.7-0.2-3.6
	c1.2,0.3,1.9,0.6,2.2,0.7c0.2,0.1,0.2,0.3,0,0.4l-0.3,0.2v2.3h4l0.6-0.6c0,0,0.1-0.1,0.2-0.2c0.3-0.3,0.4-0.4,0.5-0.4
	c0.1,0,0.5,0.3,1,0.8c0.5,0.5,0.8,0.8,0.8,1c-0.1,0.2-0.4,0.3-0.9,0.3c-1.3,1.5-2.9,2.9-4.9,4.2c-2,1.3-4.1,2.4-6.4,3.2
	c0.7,0.5,1.6,0.9,2.8,1.1c0.9,0.2,2.3,0.2,4,0.2c3.7,0,6.1,0,7.2,0v0.3c-0.3,0.1-0.5,0.2-0.7,0.5c-0.2,0.3-0.3,0.6-0.3,0.9h-6.3
	c-2.3,0-4.1-0.3-5.2-0.8c-1.3-0.6-2.4-1.7-3.1-3.4c-0.6,1.3-1.2,2.6-1.8,3.8C2.9,62.7,2.9,62.9,2.7,63.3L2.7,63.3z"/>
<path class="st2" d="M24.7,63.4c-0.2,0-0.3,0-0.4-0.1c-0.1-0.1-0.2-0.2-0.2-0.3c0.1-1.9,0.2-3.8,0.2-5.8v-4.4c0-1.9-0.1-3.4-0.3-4.5
	c1.3,0.3,2.1,0.6,2.4,0.8c0.2,0.2,0.2,0.3,0,0.4l-0.4,0.2V60h5.6V48c0-1.9-0.1-3.4-0.3-4.5c1.3,0.3,2.1,0.6,2.4,0.8
	c0.2,0.2,0.2,0.3,0,0.4l-0.4,0.2V60h5.7v-7.3c0-1.9-0.1-3.4-0.3-4.5c1.3,0.3,2.1,0.6,2.4,0.8c0.2,0.2,0.2,0.3,0,0.4l-0.4,0.2v7.5
	c0,1.8,0.1,3.6,0.2,5.2c-0.1,0.2-0.3,0.3-0.6,0.5c-0.3,0.2-0.7,0.2-1,0.2c-0.3,0-0.4-0.2-0.4-0.4c0-0.2,0.1-0.4,0.1-0.8
	c0-0.2,0-0.3,0-0.4v-0.8h-13v0.7c0,0.2,0,0.4,0,0.6c0,0.3,0.1,0.6,0.1,0.7c0,0.2-0.2,0.3-0.5,0.5C25.3,63.3,25,63.3,24.7,63.4
	L24.7,63.4z"/>
<path class="st2" d="M45.4,48.7l-0.6-1.1c0.7,0.1,1.5,0.2,2.4,0.2h1.1v-0.2c0-1.9-0.1-3.4-0.3-4.5c1.2,0.3,2,0.6,2.3,0.7
	c0.2,0.1,0.2,0.3,0,0.4L50,44.5v3.3h1.1l0.5-0.8c0-0.1,0.1-0.2,0.2-0.3c0.2-0.3,0.4-0.5,0.4-0.5c0.1,0,0.5,0.3,1,0.8
	c0.5,0.5,0.8,0.9,0.8,1c0,0.2-0.2,0.4-0.5,0.4h-4.7C47.7,48.4,46.6,48.5,45.4,48.7L45.4,48.7z M53.8,63.4c-0.1,0-0.2,0-0.3-0.1
	c-0.1-0.1-0.1-0.2-0.1-0.3c0.1-1.2,0.2-2.4,0.2-3.7v-2.1c-2.4,1.5-4.8,2.8-7.2,4c-0.1,0.3-0.2,0.5-0.5,0.6l-1-2.1
	c1.1-0.3,2.6-0.8,4.5-1.4c0.2-1.3,0.5-2.8,0.8-4.7c0.2-1.8,0.3-3.2,0.2-4.5c1.3,0.3,2,0.5,2.3,0.6c0.2,0.1,0.2,0.2,0,0.4l-0.4,0.2
	c-0.6,2.6-1.4,5.2-2.4,7.8c1.4-0.5,2.6-0.9,3.6-1.3V55c0-0.8,0-1.5-0.1-2l2.1,0.9h1.8v-6.4c0-1.9-0.1-3.4-0.3-4.5
	c1.3,0.3,2.1,0.6,2.4,0.8c0.2,0.2,0.2,0.3,0,0.4L59,44.4v4.1h2.4l0.5-0.8c0-0.1,0.1-0.1,0.2-0.2c0.3-0.4,0.4-0.6,0.5-0.6
	c0.1,0,0.5,0.3,1.1,0.8c0.6,0.6,0.9,0.9,0.9,1.1c-0.1,0.2-0.2,0.4-0.6,0.4H59v4.8h2.4l0.4-0.5c0,0,0.1-0.1,0.1-0.1
	c0.2-0.3,0.3-0.4,0.4-0.4c0.2,0,0.5,0.2,1,0.6c0.5,0.4,0.8,0.7,0.8,0.8c-0.1,0.2-0.4,0.3-0.8,0.4v2.7c0,1.8,0.1,3.6,0.2,5.2
	c-0.1,0.1-0.3,0.3-0.6,0.4c-0.3,0.2-0.7,0.2-1.1,0.2c-0.3,0-0.4-0.2-0.4-0.4c0-0.1,0-0.2,0-0.3c0-0.1,0-0.2,0-0.2v-0.5h-6.2v0.4
	c0,0.1,0,0.2,0,0.4c0,0.1,0,0.2,0,0.3c0,0.2-0.2,0.3-0.4,0.4C54.5,63.4,54.2,63.4,53.8,63.4L53.8,63.4z M47.8,57.6
	c-0.3,0.2-0.6,0.1-0.9-0.3c0.1-1.1,0.1-2.3,0-3.5c-0.1-1.6-0.4-2.9-0.8-4l0.4-0.1c0.9,1.3,1.5,2.5,1.8,3.8c0.3,1,0.3,2,0.2,2.8
	C48.4,56.9,48.1,57.4,47.8,57.6L47.8,57.6z M55.2,61h6.2v-6.5h-6.2V61z"/>
<path class="st2" d="M82.9,62.2c-0.9,0-1.8-0.1-2.6-0.4c-0.8-0.2-1.5-0.5-2.1-0.9l0.2-3.4h1.2l0.6,3c0.7,0.4,1.6,0.6,2.5,0.6
	c1.2,0,2.1-0.3,2.8-0.8c0.7-0.5,1.1-1.3,1.1-2.3c0-0.8-0.2-1.4-0.7-1.9c-0.4-0.4-1.2-0.9-2.3-1.3l-0.9-0.4c-1.4-0.5-2.4-1.2-3-1.9
	c-0.8-0.8-1.2-1.8-1.2-2.9c0-1.4,0.5-2.5,1.6-3.3c1-0.8,2.3-1.2,3.9-1.2c1.5,0,2.8,0.4,4,1.3l-0.2,3.2h-1.3l-0.6-2.9
	c-0.6-0.3-1.2-0.5-2-0.5c-1,0-1.8,0.2-2.4,0.7c-0.6,0.5-1,1.2-1,2.1c0,0.8,0.2,1.4,0.7,1.9c0.4,0.5,1.1,0.9,2,1.3l1,0.4
	c1.6,0.6,2.7,1.3,3.4,2.1c0.7,0.8,1,1.7,1,2.8c0,1.4-0.5,2.5-1.6,3.4C86,61.8,84.6,62.2,82.9,62.2z"/>
<path class="st2" d="M98.2,62c-2,0-3.8-0.7-5.1-2.2c-1.5-1.6-2.3-3.7-2.3-6.3c0-1.7,0.4-3.2,1.1-4.6c0.7-1.2,1.6-2.2,2.7-2.9
	c1.1-0.7,2.3-1,3.6-1c1.3,0,2.5,0.3,3.6,1c1.2,0.7,2,1.7,2.7,2.9c0.7,1.3,1.1,2.9,1.1,4.6c0,1.8-0.4,3.2-1.1,4.6
	c-0.7,1.2-1.6,2.2-2.7,2.9C100.7,61.7,99.5,62,98.2,62z M98.2,61c1.6,0,2.8-0.8,3.7-2.3c0.8-1.4,1.2-3.1,1.2-5.2s-0.4-3.8-1.2-5.1
	c-0.9-1.5-2.1-2.3-3.7-2.3c-1.6,0-2.8,0.8-3.7,2.3c-0.8,1.4-1.2,3.1-1.2,5.2s0.4,3.8,1.2,5.2C95.4,60.2,96.6,61,98.2,61z"/>
<path class="st2" d="M116.1,62c-2.4,0-4.4-0.8-5.9-2.4c-1.5-1.6-2.3-3.6-2.3-6.1c0-2.5,0.8-4.5,2.3-6.1c1.5-1.6,3.5-2.4,5.9-2.4
	c1.9,0,3.5,0.4,4.8,1.2l0,3.6h-1.3l-0.6-3c-0.8-0.5-1.7-0.7-2.7-0.7c-1.8,0-3.2,0.6-4.3,1.9c-1.1,1.3-1.7,3.2-1.7,5.5
	c0,2.3,0.5,4.1,1.6,5.4c1.1,1.3,2.6,2,4.4,2c0.9,0,1.8-0.2,2.7-0.5v-1c0-1,0-2.5,0-4.5l-2.6-0.2v-0.8h6.3v0.8l-1.5,0.1
	c0,1.5-0.1,3-0.1,4.6v1.1C119.6,61.5,117.8,62,116.1,62L116.1,62z"/>
<path class="st2" d="M131.9,62c-2,0-3.8-0.7-5.1-2.2c-1.5-1.6-2.3-3.7-2.3-6.3c0-1.7,0.4-3.2,1.1-4.6c0.7-1.2,1.6-2.2,2.7-2.9
	c1.1-0.7,2.3-1,3.6-1c1.3,0,2.5,0.3,3.6,1c1.2,0.7,2,1.7,2.7,2.9c0.7,1.3,1.1,2.9,1.1,4.6c0,1.8-0.4,3.2-1.1,4.6
	c-0.7,1.2-1.6,2.2-2.7,2.9C134.4,61.7,133.2,62,131.9,62z M131.9,61c1.6,0,2.8-0.8,3.7-2.3c0.8-1.4,1.2-3.1,1.2-5.2
	s-0.4-3.8-1.2-5.1c-0.9-1.5-2.1-2.3-3.7-2.3c-1.6,0-2.8,0.8-3.7,2.3c-0.8,1.4-1.2,3.1-1.2,5.2s0.4,3.8,1.2,5.2
	C129,60.2,130.3,61,131.9,61z"/>
<path class="st2" d="M142.5,53.3c-0.4,0-0.6-0.2-0.7-0.5c-0.2-0.6,0-1.1,0.6-1.4c0.4-0.2,0.7-0.6,0.9-1.1c0.3-0.5,0.4-1.1,0.3-1.6
	h0.3c0.2,0.4,0.2,0.9,0.3,1.3h4.1c-0.2,0-0.4-0.2-0.6-0.3c0-1-0.3-2.1-1-3.3l0.2-0.1c1,0.4,1.7,0.9,2.1,1.5c0.4,0.5,0.5,1,0.4,1.4
	c-0.1,0.4-0.3,0.7-0.7,0.8h4.4c0.4-1,0.9-2.2,1.3-3.7h-8.3c-1,0-2.2,0.1-3.3,0.3l-0.6-1.1c0.8,0.1,1.8,0.2,2.9,0.2h5.3
	c0-1.2-0.1-2.1-0.2-2.8c1.2,0.3,1.9,0.6,2.2,0.7c0.2,0.1,0.2,0.3,0,0.4l-0.3,0.2v1.4h5l0.5-0.8c0-0.1,0.1-0.1,0.2-0.2
	c0.3-0.3,0.4-0.5,0.5-0.5c0.2,0,0.5,0.3,1.1,0.8c0.6,0.5,0.9,0.9,0.9,1c-0.1,0.2-0.3,0.4-0.6,0.4h-5.1c1,0.3,1.7,0.5,2,0.6
	c0.2,0.1,0.2,0.2-0.1,0.3l-0.4,0.1c-0.7,0.9-1.6,1.8-2.5,2.6h4.4l0.5-0.5c0,0,0.1-0.1,0.1-0.1c0.2-0.3,0.4-0.4,0.5-0.4
	c0.1,0,0.5,0.3,1,0.8c0.5,0.5,0.8,0.9,0.8,1c-0.1,0.1-0.4,0.2-0.8,0.2c-0.7,0.6-1.6,1.3-2.8,2.1l-0.3-0.2c0.3-0.5,0.7-1.3,1.1-2.3
	h-13.8c0,1.2-0.3,2-1,2.5C143.1,53.3,142.8,53.4,142.5,53.3L142.5,53.3z M142.1,63.5l-0.1-0.3c2.2-0.9,3.8-2.1,5-3.5
	c1.1-1.4,1.8-3.1,2.1-5.2h-2.9c-1,0-2.2,0.1-3.3,0.3l-0.6-1.1c0.8,0.1,1.8,0.2,2.9,0.2h5.4c0-1.2-0.1-2.2-0.2-2.9
	c1.2,0.3,2,0.6,2.3,0.7c0.2,0.1,0.2,0.3,0,0.4l-0.4,0.2v1.6h5.7l0.4-0.6c0,0,0.1-0.1,0.2-0.2c0.2-0.3,0.4-0.4,0.4-0.4
	c0.2,0,0.5,0.2,1,0.7c0.5,0.4,0.8,0.8,0.8,0.9c-0.1,0.2-0.2,0.4-0.6,0.4h-9.2c-0.2,0.9-0.4,1.8-0.7,2.5h5.4l0.4-0.6
	c0,0,0.1-0.1,0.1-0.2c0.2-0.3,0.4-0.4,0.4-0.4c0.1,0,0.4,0.2,1,0.7s0.8,0.8,0.8,1c-0.1,0.2-0.4,0.3-0.8,0.4c-0.3,2.7-1,4.4-1.9,5
	c-0.6,0.4-1.4,0.6-2.4,0.6c0-0.6-0.1-1-0.4-1.2c-0.3-0.3-1-0.5-2.1-0.7v-0.4c1.6,0.2,2.7,0.2,3.1,0.2c0.4,0,0.6-0.1,0.8-0.2
	c0.5-0.4,0.9-1.6,1.2-3.7h-5.8c-0.7,1.5-1.7,2.7-3,3.6C145.8,62.2,144.1,62.9,142.1,63.5L142.1,63.5z"/>
<path class="st2" d="M71.3,55.1c1.2,0,2.2-1,2.2-2.2c0-1.2-1-2.2-2.2-2.2c-1.2,0-2.2,1-2.2,2.2C69.1,54.1,70.1,55.1,71.3,55.1z"/>
<g>
	<path class="st1" d="M0.5,31.2c5.3-5.5,9-9.6,10.9-12.2s2.9-5.1,2.9-7.6c0-2.2-0.6-3.8-1.8-4.9C11.4,5.3,10,4.8,8.3,4.8
		c-2,0-3.6,0.7-4.9,2.2c-0.7,0.8-1.3,2-2,3.7l-0.9-0.2c0.7-3.4,2-5.7,3.7-7c1.7-1.3,3.6-2,5.6-2c2.5,0,4.5,0.8,6,2.3
		s2.3,3.5,2.3,5.7c0,2.4-0.8,4.7-2.5,6.9c-1.7,2.2-5.2,6.2-10.8,11.8H15c1.4,0,2.4-0.2,3-0.5c0.6-0.3,1.2-1.2,1.9-2.5l0.6,0.3
		L18,31.7H0.5V31.2z"/>
	<path class="st1" d="M37.9,6.8c1.5,2.8,2.2,6.1,2.2,9.8c0,2.9-0.5,5.6-1.4,8.2c-1.7,4.8-4.7,7.3-8.9,7.3c-2.9,0-5.2-1.3-7.1-3.9
		c-2-2.8-3-6.6-3-11.4c0-3.8,0.7-7,2-9.7c1.8-3.7,4.6-5.5,8.3-5.5C33.4,1.6,36,3.3,37.9,6.8z M34.5,27.3c0.8-2.3,1.2-5.7,1.2-10.2
		c0-3.5-0.2-6.4-0.7-8.5c-0.9-3.9-2.6-5.9-5.1-5.9s-4.2,2-5.1,6.1c-0.5,2.2-0.7,5-0.7,8.5c0,3.3,0.2,6,0.7,7.9
		c0.9,3.7,2.7,5.6,5.3,5.6C32.3,30.9,33.7,29.7,34.5,27.3z"/>
	<path class="st1" d="M52.4,31.2c5.3-5.5,9-9.6,10.9-12.2s2.9-5.1,2.9-7.6c0-2.2-0.6-3.8-1.8-4.9c-1.2-1.1-2.6-1.7-4.2-1.7
		c-2,0-3.6,0.7-4.9,2.2c-0.7,0.8-1.3,2-2,3.7l-0.9-0.2c0.7-3.4,2-5.7,3.7-7c1.7-1.3,3.6-2,5.6-2c2.5,0,4.5,0.8,6,2.3S70,7.3,70,9.5
		c0,2.4-0.8,4.7-2.5,6.9c-1.7,2.2-5.2,6.2-10.8,11.8h10.1c1.4,0,2.4-0.2,3-0.5c0.6-0.3,1.2-1.2,1.9-2.5l0.6,0.3l-2.4,6.1H52.4V31.2z
		"/>
	<path class="st1" d="M91.4,2v0.7l-9.5,29.4H79l8.9-26.8h-9.5c-1.4,0-2.4,0.2-3.1,0.7c-0.6,0.5-1.4,1.4-2.4,2.9l-0.8-0.4
		c0.9-2.3,1.5-3.8,1.8-4.3C74.1,3.7,74.4,3,74.8,2H91.4z"/>
	<path class="st1" d="M109.5,29.1c1.3,0.8,2.4,1.3,3.4,1.3c2,0,3.6-0.7,4.6-2.1c1-1.4,1.5-2.9,1.5-4.5c0-1.6-0.4-2.9-1.2-4.1
		c-1.4-2-3.7-3-6.9-3c-0.2,0-0.4,0-0.5,0c-0.2,0-0.4,0-0.6,0.1l0-0.6c2.3-0.8,4.2-1.8,5.5-2.9c1.3-1.1,2-2.5,2-4.3
		c0-1.6-0.5-2.8-1.6-3.6c-1.1-0.8-2.3-1.2-3.6-1.2c-1.6,0-3,0.6-4.2,1.8c-0.7,0.6-1.4,1.6-2.2,3l-0.7-0.2c0.6-2.2,1.7-4,3.3-5.3
		c1.6-1.3,3.4-2,5.5-2c2.2,0,4,0.6,5.2,1.8c1.2,1.2,1.8,2.6,1.8,4.2c0,1.4-0.5,2.7-1.5,3.9c-0.6,0.7-1.5,1.4-2.7,2.3
		c1.4,0.6,2.5,1.3,3.4,2.1c1.6,1.5,2.4,3.5,2.4,5.8c0,2.8-1.1,5.2-3.3,7.3c-2.2,2.1-5.3,3.2-9.3,3.2c-1.8,0-3.1-0.3-3.8-0.8
		c-0.7-0.5-1.1-1.1-1.1-1.7c0-0.4,0.1-0.7,0.4-1.1s0.6-0.5,1.2-0.5C107.1,27.9,108.1,28.3,109.5,29.1z"/>
	<path class="st1" d="M141.4,29c-1.7,2.1-3.9,3.2-6.7,3.2c-2.6,0-4.9-1.2-7-3.6c-2.1-2.4-3.2-5.6-3.2-9.6c0-5.2,2-9.6,6.1-13.3
		c3.7-3.1,7.8-4.6,12.3-4.6l0.1,0.7c-1.8,0.3-3.4,0.8-4.7,1.4c-1.3,0.6-2.5,1.4-3.5,2.4c-1.1,1.1-2.1,2.4-3,4
		c-0.9,1.6-1.6,3.2-1.9,4.8c0.9-0.6,1.7-1,2.3-1.2c1.2-0.5,2.3-0.7,3.5-0.7c2.3,0,4.3,0.8,5.8,2.4c1.6,1.6,2.4,3.9,2.4,6.9
		C144,24.4,143.1,26.8,141.4,29z M139,18.2c-1-2.5-2.8-3.8-5.2-3.8c-2.3,0-3.8,0.7-4.5,2c-0.4,0.8-0.7,2.1-0.7,3.9
		c0,2.4,0.5,4.7,1.5,7c1,2.3,2.6,3.4,4.8,3.4c1.7,0,3-0.7,3.8-2.2c0.8-1.5,1.2-3.2,1.2-5.2C139.9,21.5,139.6,19.8,139,18.2z"/>
	<path class="st1" d="M152.2,27.6l-1.4-3.4c0.8-0.2,2.2-0.6,4.4-1.3V11h-1.3c-0.7,0-1.4,0.2-2.2,0.5l-0.9-1.7
		c0.8,0.1,1.8,0.2,2.9,0.3h1.4V7.8c0-2.9-0.1-5.2-0.4-7c2,0.5,3.2,0.9,3.6,1.2c0.3,0.2,0.3,0.5,0,0.7L157.8,3v7h1.1l0.6-1.1
		c0-0.1,0.1-0.2,0.2-0.3c0.3-0.5,0.5-0.8,0.7-0.8c0.2,0,0.7,0.4,1.4,1.2c0.7,0.8,1.1,1.3,1.1,1.5c-0.1,0.4-0.4,0.5-0.9,0.5h-4.3v11
		c2.2-0.7,4-1.4,5.5-1.9l0.1,0.4c-3.9,2.5-7.4,4.6-10.5,6.3C152.8,27.2,152.6,27.5,152.2,27.6z M170.2,31.4c-0.2,0-0.4-0.1-0.5-0.2
		c-0.2-0.1-0.2-0.3-0.2-0.5c0-0.1,0-0.3,0-0.5c0.2-2.4,0.3-4.8,0.3-7.2v-4.2h-3.4c-1.6,0-3.3,0.2-5.1,0.5l-0.9-1.7
		c1.3,0.1,2.8,0.2,4.5,0.3h4.8V3.7h-2.6c-1.5,0-3.1,0.2-4.8,0.5l-0.9-1.7c1.3,0.1,2.8,0.2,4.5,0.3h10.2l0.8-1.2
		c0.1-0.1,0.2-0.2,0.3-0.4c0.3-0.5,0.5-0.8,0.7-0.8c0.2,0,0.8,0.4,1.6,1.2c0.9,0.8,1.3,1.3,1.3,1.6c0,0.4-0.3,0.5-0.9,0.5h-7.6v14.1
		h4.7l0.8-1.2c0-0.1,0.1-0.2,0.2-0.3c0.4-0.6,0.7-0.9,0.8-0.9c0.2,0,0.8,0.4,1.7,1.2c0.9,0.8,1.3,1.4,1.3,1.6
		c-0.1,0.4-0.4,0.5-0.9,0.5h-8.7v4c0,2.7,0.1,5.3,0.3,7.7c-0.2,0.2-0.5,0.4-0.8,0.6C171.3,31.3,170.8,31.4,170.2,31.4z M162,16.2
		l-0.4-0.3c0.6-1,1.1-2.1,1.6-3.2c0.4-1,0.8-2.3,1.2-3.7c0.3-1.4,0.5-2.6,0.5-3.6l2.3,0.9c1.6,0.4,2.1,0.7,1.3,1l-0.6,0.2
		C166.3,11.3,164.4,14.1,162,16.2z M179.7,15.1c-0.5,0.4-1.1,0.3-1.8-0.3c-0.3-2.4-1.6-5.2-3.7-8.5l0.4-0.2c1.9,1.1,3.4,2.3,4.4,3.7
		c0.8,1.1,1.3,2.2,1.4,3.3C180.4,14,180.2,14.7,179.7,15.1z"/>
	<circle class="st1" cx="47.6" cy="16.6" r="2.2"/>
	<circle class="st1" cx="97" cy="16.6" r="2.2"/>
</g>
</svg>
