<?xml version="1.0" encoding="utf-8"?>
<!-- Generator: Adobe Illustrator 27.8.1, SVG Export Plug-In . SVG Version: 6.00 Build 0)  -->
<svg version="1.1" id="圖層_1" xmlns="http://www.w3.org/2000/svg" xmlns:xlink="http://www.w3.org/1999/xlink" x="0px" y="0px"
	 viewBox="0 0 297 121" style="enable-background:new 0 0 297 121;" xml:space="preserve">
<style type="text/css">
	.st0{fill:#26694D;}
	.st1{fill:#251714;}
	.st2{fill:#231815;}
	.st3{fill:#231816;}
</style>
<g>
	<g>
		<g>
			<g>
				<path class="st0" d="M2.4,116.7c8.2-8.5,13.8-14.8,16.7-18.8c2.9-4,4.4-7.9,4.4-11.7c0-3.3-0.9-5.8-2.7-7.6
					c-1.8-1.7-3.9-2.6-6.4-2.6c-3.1,0-5.6,1.1-7.5,3.4c-1.1,1.2-2.1,3.1-3,5.7l-1.4-0.3c1.1-5.2,3-8.7,5.7-10.7c2.7-2,5.6-3,8.6-3
					c3.8,0,6.9,1.2,9.2,3.6c2.3,2.4,3.5,5.3,3.5,8.8c0,3.7-1.3,7.2-3.8,10.6c-2.5,3.4-8,9.5-16.5,18.2h15.4c2.2,0,3.7-0.3,4.5-0.8
					c0.9-0.5,1.9-1.8,3-3.8l0.9,0.4l-3.7,9.4H2.4V116.7z"/>
			</g>
			<g>
				<path class="st0" d="M41.3,88.9c-1.7-2.2-2.5-4.5-2.5-7.1c0-3,1.2-5.5,3.7-7.5s5.6-3.1,9.6-3.1c3.6,0,6.5,1,8.6,2.9
					c2.1,2,3.2,4.2,3.2,6.8c0,2.6-1.1,5-3.3,7.1c-1.3,1.2-3.3,2.6-6.1,4.1c3.8,2.8,6.5,5.3,8.2,7.4c1.6,2.1,2.5,4.6,2.5,7.4
					c0,3.2-1.2,5.9-3.6,8.1c-2.4,2.2-5.7,3.3-9.8,3.3c-3.7,0-6.8-1-9.4-3c-2.6-2-3.9-4.7-3.9-8c0-2.8,0.9-5.4,2.7-7.5
					c1.2-1.4,3.3-3.1,6.2-5.1C44.4,92.2,42.4,90.3,41.3,88.9z M58,114.2c1.3-1.4,2-3.2,2-5.4c0-2.4-0.7-4.4-2.1-5.9
					c-1.4-1.5-4.3-3.8-8.6-6.9c-1.9,1.2-3.3,2.8-4.2,4.7s-1.3,3.8-1.3,5.6c0,3.1,0.8,5.5,2.4,7.3s3.6,2.7,6,2.7
					C54.7,116.3,56.7,115.6,58,114.2z M57,86.9c1.4-1.7,2.1-3.8,2.1-6.2c0-2.1-0.7-3.9-2-5.4c-1.3-1.5-3.3-2.2-6-2.2
					C49,73,47.3,73.7,46,75c-1.3,1.3-2,2.9-2,4.7c0,2.1,0.8,4.1,2.4,5.9s3.7,3.5,6.2,5.1C54.7,89.2,56.1,87.9,57,86.9z"/>
			</g>
			<g>
				<path class="st0" d="M79.5,113.6c2,1.3,3.8,1.9,5.2,1.9c3.1,0,5.5-1.1,7-3.2c1.5-2.1,2.3-4.4,2.3-6.9c0-2.4-0.6-4.5-1.9-6.3
					c-2.1-3.1-5.6-4.6-10.6-4.6c-0.3,0-0.6,0-0.8,0c-0.3,0-0.6,0-0.9,0.1l-0.1-0.9c3.6-1.3,6.4-2.8,8.5-4.5c2.1-1.7,3.1-3.9,3.1-6.7
					c0-2.4-0.8-4.3-2.4-5.6c-1.6-1.3-3.5-1.9-5.6-1.9c-2.5,0-4.6,0.9-6.5,2.7c-1,1-2.1,2.5-3.3,4.6l-1-0.2c0.9-3.4,2.6-6.1,5-8.2
					c2.4-2,5.3-3.1,8.5-3.1c3.4,0,6.1,0.9,8,2.8c1.9,1.9,2.8,4.1,2.8,6.5c0,2.2-0.8,4.2-2.3,6c-0.9,1-2.2,2.2-4.1,3.5
					c2.2,0.9,3.9,2,5.2,3.2c2.4,2.4,3.7,5.3,3.7,8.9c0,4.3-1.7,8-5,11.3c-3.4,3.3-8.1,4.9-14.3,4.9c-2.8,0-4.7-0.4-5.8-1.2
					c-1.1-0.8-1.7-1.7-1.7-2.6c0-0.6,0.2-1.1,0.6-1.7s1-0.8,1.8-0.8C75.8,111.6,77.5,112.3,79.5,113.6z"/>
			</g>
			<g>
				<path class="st0" d="M114,113.6c2,1.3,3.8,1.9,5.2,1.9c3.1,0,5.5-1.1,7-3.2c1.5-2.1,2.3-4.4,2.3-6.9c0-2.4-0.6-4.5-1.9-6.3
					c-2.1-3.1-5.6-4.6-10.6-4.6c-0.3,0-0.6,0-0.8,0c-0.3,0-0.6,0-0.9,0.1l-0.1-0.9c3.6-1.3,6.4-2.8,8.5-4.5c2.1-1.7,3.1-3.9,3.1-6.7
					c0-2.4-0.8-4.3-2.4-5.6c-1.6-1.3-3.5-1.9-5.6-1.9c-2.5,0-4.6,0.9-6.5,2.7c-1,1-2.1,2.5-3.3,4.6l-1-0.2c0.9-3.4,2.6-6.1,5-8.2
					c2.4-2,5.3-3.1,8.5-3.1c3.4,0,6.1,0.9,8,2.8c1.9,1.9,2.8,4.1,2.8,6.5c0,2.2-0.8,4.2-2.3,6c-0.9,1-2.2,2.2-4.1,3.5
					c2.2,0.9,3.9,2,5.2,3.2c2.4,2.4,3.7,5.3,3.7,8.9c0,4.3-1.7,8-5,11.3c-3.4,3.3-8.1,4.9-14.3,4.9c-2.8,0-4.7-0.4-5.8-1.2
					c-1.1-0.8-1.7-1.7-1.7-2.6c0-0.6,0.2-1.1,0.6-1.7s1-0.8,1.8-0.8C110.3,111.6,111.9,112.3,114,113.6z"/>
			</g>
			<g>
				<path class="st0" d="M140.6,93.8h17v4.3h-17V93.8z"/>
			</g>
			<g>
				<path class="st0" d="M189.1,113.3c-2.6,3.3-6.1,4.9-10.3,4.9c-3.9,0-7.5-1.9-10.8-5.6c-3.2-3.7-4.9-8.6-4.9-14.8
					c0-7.9,3.1-14.7,9.4-20.4c5.6-4.8,11.9-7.1,18.9-7.1l0.2,1.1c-2.8,0.5-5.2,1.2-7.2,2.1c-2,0.9-3.8,2.1-5.4,3.7
					c-1.6,1.6-3.2,3.7-4.6,6.2c-1.4,2.5-2.4,5-3,7.4c1.4-0.9,2.6-1.5,3.6-1.9c1.8-0.7,3.6-1.1,5.4-1.1c3.6,0,6.6,1.2,9,3.7
					c2.4,2.5,3.6,6,3.6,10.6C193.1,106.3,191.7,110,189.1,113.3z M185.5,96.8c-1.6-3.9-4.2-5.8-8-5.8c-3.5,0-5.8,1-6.9,3.1
					c-0.7,1.2-1,3.2-1,6.1c0,3.7,0.8,7.2,2.3,10.7c1.6,3.5,4,5.2,7.4,5.2c2.7,0,4.6-1.1,5.8-3.4c1.2-2.3,1.8-4.9,1.8-8
					C186.9,101.8,186.4,99.1,185.5,96.8z"/>
			</g>
			<g>
				<path class="st0" d="M223.5,113.3c-2.6,3.3-6.1,4.9-10.3,4.9c-3.9,0-7.5-1.9-10.8-5.6c-3.2-3.7-4.9-8.6-4.9-14.8
					c0-7.9,3.1-14.7,9.4-20.4c5.6-4.8,11.9-7.1,18.9-7.1l0.2,1.1c-2.8,0.5-5.2,1.2-7.2,2.1c-2,0.9-3.8,2.1-5.4,3.7
					c-1.6,1.6-3.2,3.7-4.6,6.2c-1.4,2.5-2.4,5-3,7.4c1.4-0.9,2.6-1.5,3.6-1.9c1.8-0.7,3.6-1.1,5.4-1.1c3.6,0,6.6,1.2,9,3.7
					c2.4,2.5,3.6,6,3.6,10.6C227.5,106.3,226.2,110,223.5,113.3z M219.9,96.8c-1.6-3.9-4.2-5.8-8-5.8c-3.5,0-5.8,1-6.9,3.1
					c-0.7,1.2-1,3.2-1,6.1c0,3.7,0.8,7.2,2.3,10.7c1.6,3.5,4,5.2,7.4,5.2c2.7,0,4.6-1.1,5.8-3.4c1.2-2.3,1.8-4.9,1.8-8
					C221.3,101.8,220.9,99.1,219.9,96.8z"/>
			</g>
			<g>
				<path class="st0" d="M236.2,88.9c-1.7-2.2-2.5-4.5-2.5-7.1c0-3,1.2-5.5,3.7-7.5s5.6-3.1,9.6-3.1c3.6,0,6.5,1,8.6,2.9
					c2.1,2,3.2,4.2,3.2,6.8c0,2.6-1.1,5-3.3,7.1c-1.3,1.2-3.3,2.6-6.1,4.1c3.8,2.8,6.5,5.3,8.2,7.4c1.6,2.1,2.5,4.6,2.5,7.4
					c0,3.2-1.2,5.9-3.6,8.1c-2.4,2.2-5.7,3.3-9.8,3.3c-3.7,0-6.8-1-9.4-3c-2.6-2-3.9-4.7-3.9-8c0-2.8,0.9-5.4,2.7-7.5
					c1.2-1.4,3.3-3.1,6.2-5.1C239.3,92.2,237.3,90.3,236.2,88.9z M252.9,114.2c1.3-1.4,2-3.2,2-5.4c0-2.4-0.7-4.4-2.1-5.9
					c-1.4-1.5-4.3-3.8-8.6-6.9c-1.9,1.2-3.3,2.8-4.2,4.7s-1.3,3.8-1.3,5.6c0,3.1,0.8,5.5,2.4,7.3s3.6,2.7,6,2.7
					C249.6,116.3,251.6,115.6,252.9,114.2z M251.8,86.9c1.4-1.7,2.1-3.8,2.1-6.2c0-2.1-0.7-3.9-2-5.4c-1.3-1.5-3.3-2.2-6-2.2
					c-2.1,0-3.8,0.6-5.1,1.9c-1.3,1.3-2,2.9-2,4.7c0,2.1,0.8,4.1,2.4,5.9s3.7,3.5,6.2,5.1C249.6,89.2,251,87.9,251.8,86.9z"/>
			</g>
			<g>
				<path class="st0" d="M270.7,88.9c-1.7-2.2-2.5-4.5-2.5-7.1c0-3,1.2-5.5,3.7-7.5c2.5-2.1,5.6-3.1,9.6-3.1c3.6,0,6.5,1,8.6,2.9
					c2.1,2,3.2,4.2,3.2,6.8c0,2.6-1.1,5-3.3,7.1c-1.3,1.2-3.3,2.6-6.1,4.1c3.8,2.8,6.5,5.3,8.2,7.4c1.6,2.1,2.5,4.6,2.5,7.4
					c0,3.2-1.2,5.9-3.7,8.1s-5.7,3.3-9.8,3.3c-3.7,0-6.8-1-9.4-3c-2.6-2-3.9-4.7-3.9-8c0-2.8,0.9-5.4,2.7-7.5
					c1.2-1.4,3.3-3.1,6.2-5.1C273.8,92.2,271.8,90.3,270.7,88.9z M287.3,114.2c1.3-1.4,2-3.2,2-5.4c0-2.4-0.7-4.4-2.1-5.9
					c-1.4-1.5-4.3-3.8-8.6-6.9c-1.9,1.2-3.3,2.8-4.2,4.7c-0.9,1.9-1.3,3.8-1.3,5.6c0,3.1,0.8,5.5,2.4,7.3c1.6,1.8,3.6,2.7,6,2.7
					C284.1,116.3,286,115.6,287.3,114.2z M286.3,86.9c1.4-1.7,2.1-3.8,2.1-6.2c0-2.1-0.7-3.9-2-5.4c-1.3-1.5-3.3-2.2-6-2.2
					c-2.1,0-3.8,0.6-5.1,1.9s-2,2.9-2,4.7c0,2.1,0.8,4.1,2.4,5.9c1.6,1.8,3.7,3.5,6.2,5.1C284,89.2,285.5,87.9,286.3,86.9z"/>
			</g>
		</g>
	</g>
	<g>
		<path class="st1" d="M174.9,58.9c1,0.6,1.8,0.9,2.5,0.9c1.5,0,2.6-0.5,3.4-1.5c0.7-1,1.1-2.1,1.1-3.3c0-1.2-0.3-2.2-0.9-3.1
			c-1-1.5-2.7-2.2-5.1-2.2c-0.1,0-0.3,0-0.4,0c-0.1,0-0.3,0-0.5,0l0-0.4c1.7-0.6,3.1-1.3,4.1-2.2c1-0.8,1.5-1.9,1.5-3.2
			c0-1.2-0.4-2.1-1.2-2.7c-0.8-0.6-1.7-0.9-2.7-0.9c-1.2,0-2.2,0.4-3.2,1.3c-0.5,0.5-1,1.2-1.6,2.2l-0.5-0.1c0.4-1.6,1.2-3,2.4-3.9
			c1.2-1,2.5-1.5,4.1-1.5c1.7,0,2.9,0.5,3.8,1.4c0.9,0.9,1.4,2,1.4,3.2c0,1.1-0.4,2-1.1,2.9c-0.4,0.5-1.1,1.1-2,1.7
			c1,0.4,1.9,1,2.5,1.6c1.2,1.1,1.8,2.6,1.8,4.3c0,2.1-0.8,3.9-2.4,5.4c-1.6,1.6-3.9,2.4-6.9,2.4c-1.3,0-2.3-0.2-2.8-0.6
			c-0.5-0.4-0.8-0.8-0.8-1.3c0-0.3,0.1-0.6,0.3-0.8s0.5-0.4,0.9-0.4C173.2,58,173.9,58.3,174.9,58.9z"/>
		<path class="st1" d="M197.3,61.3c-0.2,0-0.3,0-0.5-0.1s-0.2-0.2-0.2-0.3c0-0.1,0-0.2,0-0.4c0.1-1.7,0.2-3.4,0.2-5.1v-3
			c-2.1,3-5,5.4-8.7,7.2l-0.2-0.3c1.6-1.1,3.1-2.5,4.6-4.2c1.3-1.6,2.4-3.3,3.2-5.1h-3.7c-1,0-2.1,0.1-3.3,0.3l-0.6-1.1
			c0.8,0.1,1.8,0.1,2.9,0.2h5.8v-4.1c0-1.8-0.1-3.3-0.3-4.5c1.4,0.3,2.3,0.6,2.7,0.8c0.3,0.1,0.3,0.3,0,0.4l-0.4,0.2v7.1h5.1
			l0.6-0.8c0-0.1,0.1-0.2,0.2-0.3c0.3-0.4,0.5-0.5,0.5-0.5c0.1,0,0.6,0.3,1.3,0.9s1,0.9,1,1.1c-0.1,0.2-0.3,0.4-0.6,0.4h-7.9
			c1,1.6,2.2,3,3.9,4.3c1.6,1.2,3.2,2.2,4.9,2.8l0,0.3c-0.9,0.1-1.5,0.7-1.8,1.8c-1.6-0.9-3-2.1-4.2-3.6c-1.3-1.5-2.3-3.3-3.1-5.3
			v5.1c0,1.8,0.1,3.5,0.2,5.2c-0.1,0.2-0.3,0.4-0.7,0.5C198.1,61.3,197.7,61.3,197.3,61.3z M194.2,48.1c-0.4,0.3-0.8,0.2-1.3-0.2
			c-0.1-0.8-0.5-1.7-1-2.7c-0.5-0.9-1-1.7-1.6-2.4l0.2-0.2c1.4,0.6,2.5,1.2,3.3,2.1c0.6,0.7,1,1.4,1,2.1
			C194.7,47.4,194.6,47.8,194.2,48.1z M200.6,48.3l-0.2-0.2c0,0,0.1-0.1,0.1-0.2c0.4-0.6,0.7-1.1,0.9-1.5c0.4-0.6,0.7-1.4,1.1-2.2
			c0.4-0.9,0.6-1.6,0.8-2.2l1.6,0.9c0.6,0.3,1,0.5,1.2,0.6c0.1,0.1,0,0.2-0.2,0.3l-0.4,0.1C203.7,45.8,202.1,47.3,200.6,48.3z"/>
		<path class="st1" d="M223.9,58.8c-1.3,1.6-2.9,2.4-5,2.4c-1.9,0-3.6-0.9-5.2-2.7s-2.3-4.2-2.3-7.1c0-3.8,1.5-7.1,4.5-9.8
			c2.7-2.3,5.8-3.4,9.1-3.4l0.1,0.5c-1.4,0.2-2.5,0.6-3.5,1c-1,0.4-1.9,1-2.6,1.8c-0.8,0.8-1.5,1.8-2.2,3c-0.7,1.2-1.2,2.4-1.4,3.6
			c0.7-0.4,1.3-0.7,1.7-0.9c0.9-0.3,1.7-0.5,2.6-0.5c1.7,0,3.2,0.6,4.3,1.8c1.2,1.2,1.8,2.9,1.8,5.1
			C225.8,55.4,225.1,57.2,223.9,58.8z M222.1,50.8c-0.8-1.9-2-2.8-3.9-2.8c-1.7,0-2.8,0.5-3.3,1.5c-0.3,0.6-0.5,1.6-0.5,2.9
			c0,1.8,0.4,3.5,1.1,5.2s1.9,2.5,3.6,2.5c1.3,0,2.2-0.5,2.8-1.6c0.6-1.1,0.9-2.4,0.9-3.9C222.8,53.2,222.6,51.9,222.1,50.8z"/>
		<path class="st1" d="M230.1,45.9l-0.5-1.1c0.8,0.1,1.8,0.1,2.9,0.2h3.5l0.5-0.7c0,0,0.1-0.1,0.2-0.2c0.2-0.3,0.4-0.5,0.5-0.5
			c0.1,0,0.5,0.2,1,0.7c0.5,0.5,0.8,0.8,0.8,0.9c-0.1,0.2-0.2,0.4-0.6,0.4h-4.2h-1.4C231.9,45.7,231,45.8,230.1,45.9z M231.1,61
			c-0.3,0-0.4-0.1-0.4-0.4c0.1-0.6,0.1-1.4,0.1-2.3v-1.4c0-1.7-0.1-3.1-0.3-4.3l2.2,1h2.5l0.4-0.6c0,0,0.1-0.1,0.2-0.2
			c0.2-0.3,0.4-0.4,0.4-0.4c0.1,0,0.5,0.2,1.1,0.7c0.6,0.5,0.8,0.8,0.8,1c-0.1,0.2-0.4,0.4-0.9,0.4v1.7c0,1.4,0.1,2.5,0.1,3.3
			c-0.1,0.1-0.3,0.3-0.7,0.5c-0.4,0.2-0.7,0.2-1,0.2c-0.2,0-0.4-0.1-0.4-0.4c0-0.1,0-0.1,0-0.2c0-0.1,0-0.1,0-0.2V59h-2.8v0.5
			c0,0.1,0,0.3,0,0.5c0,0.2,0,0.3,0,0.4c0,0.1-0.2,0.3-0.5,0.5C231.8,60.9,231.4,61,231.1,61z M231.1,48.8l-0.6-1.1
			c0.8,0.1,1.8,0.1,2.9,0.2h1.5l0.4-0.6c0,0,0.1-0.1,0.2-0.2c0.2-0.3,0.4-0.4,0.4-0.4c0.1,0,0.5,0.2,1,0.7c0.5,0.4,0.7,0.8,0.7,0.9
			c-0.1,0.2-0.2,0.3-0.6,0.3h-2.7C233.4,48.5,232.3,48.6,231.1,48.8z M231.1,51.6l-0.6-1.1c0.8,0.1,1.8,0.1,2.9,0.2h1.4l0.4-0.6
			c0,0,0.1-0.1,0.2-0.2c0.2-0.3,0.4-0.4,0.4-0.4c0.1,0,0.5,0.2,1,0.7c0.5,0.4,0.8,0.8,0.8,0.9c-0.1,0.2-0.2,0.4-0.5,0.4h-2.7
			C233.4,51.3,232.3,51.4,231.1,51.6z M231.2,43.2l-0.5-1.1c0.8,0.1,1.7,0.1,2.9,0.2h1.4l0.5-0.7c0,0,0.1-0.1,0.2-0.2
			c0.2-0.3,0.4-0.5,0.5-0.5c0.1,0,0.5,0.2,1,0.7c0.5,0.5,0.8,0.8,0.8,0.9c0,0.2-0.2,0.4-0.5,0.4h-2.7
			C233.5,42.9,232.4,43,231.2,43.2z M232.6,58.3h2.8v-4.2h-2.8V58.3z M236.7,61.2l-0.2-0.3c2.3-1,4.2-2.3,5.7-4
			c-1.1-1.4-1.8-3.3-2.3-5.5h-0.5c-0.2,0-0.5,0.1-0.8,0.3l-0.6-1.1c0.8,0.1,1.8,0.1,2.9,0.2h4.3l0.5-0.6c0,0,0.1-0.1,0.2-0.2
			c0.2-0.2,0.4-0.4,0.5-0.4c0.1,0,0.5,0.3,1.1,0.8c0.6,0.5,0.9,0.9,0.9,1c-0.1,0.2-0.4,0.3-0.9,0.3c-0.7,2-1.8,3.7-3.1,5.1
			c1.5,1,3.3,1.8,5.4,2.4l0,0.2c-0.9,0.2-1.5,0.8-1.8,1.8c-2-0.8-3.7-1.9-4.9-3.2C241.4,59.4,239.2,60.5,236.7,61.2z M238,50.1
			l-0.2-0.3c0.8-0.8,1.3-1.8,1.6-3c0.2-0.8,0.3-1.8,0.3-3v-1.3c0-0.6,0-1-0.1-1.4l2.3,1h2.1l0.4-0.6c0,0,0.1-0.1,0.2-0.2
			c0.2-0.3,0.4-0.4,0.4-0.4c0.1,0,0.5,0.2,1,0.7c0.5,0.5,0.8,0.8,0.8,1c-0.2,0.2-0.4,0.3-0.7,0.3v3.9c0,0.1,0,0.2,0.1,0.2
			s0.1,0.1,0.3,0.1h0.7c0.4,0,0.6,0,0.6,0c0.1,0,0.2-0.1,0.3-0.2c0.1-0.3,0.3-1.1,0.7-2.5h0.2l0.1,2.6c0.4,0.2,0.5,0.5,0.5,0.8
			c0,0.4-0.2,0.7-0.6,0.9c-0.4,0.2-1.1,0.3-2.1,0.3h-1.1c-0.7,0-1.1-0.1-1.3-0.4c-0.2-0.2-0.3-0.6-0.3-1.3v-4.5h-2.6v1.2
			C241.6,46.8,240.4,48.9,238,50.1z M243.1,55.7c0.9-1.3,1.6-2.8,2.1-4.4h-4.9C240.8,53,241.8,54.5,243.1,55.7z"/>
		<path class="st1" d="M252.1,46.3l-0.5-1.1c0.8,0.1,1.8,0.1,2.9,0.2h3.8l0.5-0.7c0,0,0.1-0.1,0.1-0.2c0.2-0.4,0.4-0.5,0.5-0.5
			c0.1,0,0.5,0.2,1.1,0.7s0.8,0.8,0.8,0.9c-0.1,0.2-0.2,0.4-0.6,0.4h-4.4h-1.5C254,46,253.1,46.1,252.1,46.3z M253.1,43.5l-0.5-1.1
			c0.8,0.1,1.8,0.1,2.9,0.2h1.6l0.5-0.7c0-0.1,0.1-0.1,0.2-0.2c0.2-0.3,0.4-0.4,0.4-0.4c0.1,0,0.5,0.2,1,0.7
			c0.5,0.5,0.8,0.8,0.8,0.9c-0.1,0.2-0.2,0.4-0.5,0.4h-3.1C255.4,43.2,254.3,43.3,253.1,43.5z M253.1,49.1l-0.5-1.1
			c0.8,0.1,1.8,0.1,2.9,0.2h1.8l0.5-0.7c0,0,0.1-0.1,0.2-0.2c0.2-0.3,0.4-0.5,0.5-0.5c0.1,0,0.5,0.2,1,0.7c0.5,0.5,0.8,0.8,0.8,0.9
			c-0.1,0.2-0.2,0.3-0.5,0.3h-3.2C255.4,48.8,254.3,48.9,253.1,49.1z M253.1,52l-0.5-1.1c0.8,0.1,1.8,0.1,2.9,0.2h1.8l0.5-0.7
			c0,0,0.1-0.1,0.2-0.2c0.2-0.3,0.4-0.5,0.5-0.5c0.1,0,0.5,0.2,1,0.7c0.5,0.5,0.8,0.8,0.8,0.9c-0.1,0.2-0.2,0.4-0.5,0.4h-3.2
			C255.4,51.7,254.3,51.8,253.1,52z M253.1,61.4c-0.3,0-0.4-0.1-0.4-0.4c0.1-0.6,0.1-1.4,0.1-2.3v-1.4c0-1.7-0.1-3.1-0.3-4.3
			l2.2,0.9h2.8l0.4-0.5c0,0,0.1-0.1,0.2-0.2c0.2-0.2,0.3-0.4,0.4-0.4c0.1,0,0.5,0.2,1.1,0.7c0.6,0.5,0.9,0.8,0.9,0.9
			c-0.2,0.2-0.5,0.4-0.9,0.4v1.8c0,1.5,0.1,2.6,0.1,3.5c-0.1,0.1-0.3,0.3-0.7,0.5c-0.4,0.2-0.7,0.2-1,0.2c-0.3,0-0.4-0.1-0.4-0.4
			c0,0,0-0.1,0-0.1c0-0.1,0-0.1,0-0.2v-0.4h-3.1v1.1c0,0.1-0.2,0.2-0.5,0.4C253.8,61.3,253.5,61.4,253.1,61.4z M254.7,59.1h3.1v-4.5
			h-3.1V59.1z M265.1,61.5c-0.2,0-0.3,0-0.4-0.1s-0.2-0.2-0.2-0.3c0.1-1.9,0.2-3.8,0.2-5.7v-6.1h-1.3c-0.8,0-1.6,0.1-2.5,0.3
			l-0.6-1.1c0.8,0.1,1.8,0.1,2.9,0.2h1.4v-3.1c0-1.8-0.1-3.3-0.3-4.5c1.4,0.4,2.4,0.6,2.7,0.8c0.2,0.1,0.3,0.3,0,0.5l-0.4,0.3v6h1.7
			l0.5-0.8c0-0.1,0.1-0.2,0.2-0.3c0.2-0.4,0.4-0.5,0.5-0.5c0.1,0,0.5,0.3,1.1,0.8s0.9,0.9,0.9,1.1c-0.1,0.2-0.2,0.4-0.6,0.4h-4.3
			v6.2c0,1.8,0.1,3.5,0.2,5.2c-0.1,0.2-0.3,0.4-0.7,0.6C265.9,61.4,265.5,61.5,265.1,61.5z"/>
		<path class="st1" d="M277.6,61.5c-0.1-0.7-0.2-1.1-0.3-1.3c-0.2-0.3-0.7-0.5-1.4-0.6v-0.3c0.6,0,1.2,0.1,1.8,0.1
			c0.3,0,0.4-0.1,0.4-0.4v-5.5h-1.4c-0.8,0-1.6,0.1-2.5,0.3l-0.5-1.1c0.8,0.1,1.8,0.1,2.9,0.2h4.9l0.5-0.7c0,0,0.1-0.1,0.2-0.2
			c0.2-0.3,0.4-0.5,0.5-0.5c0.1,0,0.5,0.2,1.1,0.7s0.9,0.8,0.9,1c-0.1,0.2-0.2,0.4-0.6,0.4h-4.1V59c0,0.8-0.1,1.3-0.4,1.7
			C279.2,61.1,278.5,61.4,277.6,61.5z M274,59.6l-0.3-0.2c0-0.1,0.1-0.2,0.2-0.4c0-0.1,0.1-0.2,0.1-0.2c0.3-0.7,0.5-1.4,0.7-2.3
			c0.2-0.9,0.3-1.6,0.3-2.2l1.5,0.5c1,0.2,1.3,0.4,0.9,0.7l-0.4,0.2C276.2,57.4,275.2,58.7,274,59.6z M274.8,47.8l-0.5-1.1
			c0.7,0.1,1.6,0.1,2.5,0.2h1.2v-2.6h-1.3c-0.8,0-1.6,0.1-2.4,0.3l-0.6-1.1c0.8,0.1,1.8,0.1,2.9,0.2h1.4c0-1.1-0.1-2-0.2-2.7
			c1.3,0.3,2.1,0.6,2.4,0.7c0.2,0.1,0.2,0.3,0,0.4l-0.4,0.2v1.3h1.5l0.5-0.7c0-0.1,0.1-0.1,0.2-0.2c0.2-0.3,0.4-0.5,0.5-0.5
			c0.1,0,0.5,0.2,1.1,0.7s0.8,0.8,0.8,1c-0.1,0.2-0.2,0.4-0.6,0.4H280v2.6h1.1l0.5-0.7c0,0,0.1-0.1,0.1-0.2c0.2-0.3,0.4-0.5,0.5-0.5
			c0.1,0,0.5,0.2,1,0.7c0.5,0.5,0.8,0.8,0.8,0.9c-0.1,0.2-0.2,0.4-0.5,0.4h-5.3C277.1,47.5,276,47.6,274.8,47.8z M275.3,50.7
			l-0.5-1.1c0.8,0.1,1.8,0.1,2.9,0.2h2.7l0.5-0.7c0-0.1,0.1-0.1,0.2-0.2c0.2-0.3,0.4-0.4,0.4-0.4c0.1,0,0.5,0.2,1,0.7
			c0.5,0.5,0.8,0.8,0.8,0.9c0,0.2-0.2,0.4-0.5,0.4h-4.2C277.5,50.4,276.4,50.5,275.3,50.7z M282,58.2c0-0.6-0.2-1.2-0.4-1.8
			c-0.2-0.6-0.6-1.1-0.9-1.6l0.2-0.1c1.1,0.4,1.9,0.8,2.4,1.5c0.4,0.5,0.6,1,0.5,1.5c0,0.5-0.2,0.8-0.6,0.9
			C282.8,58.7,282.4,58.6,282,58.2z M291.9,61.5c-1-1-1.8-2.5-2.4-4.5c-0.5-1.7-0.8-3.9-1-6.6c-0.2,2.5-0.7,4.6-1.5,6.2
			c-1,2-2.5,3.6-4.7,5l-0.3-0.4c1.5-1.2,2.5-2.7,3.3-4.3c0.6-1.4,1.1-3,1.3-5c0.1-1.2,0.2-3,0.2-5.5h-0.2c-0.8,1.7-1.9,3.1-3.1,4.1
			l-0.3-0.2c0.7-1.3,1.4-2.8,2-4.6c0.2-0.7,0.4-1.5,0.5-2.4c0.2-1,0.2-1.7,0.2-2.3c1.4,0.4,2.2,0.7,2.5,0.9c0.2,0.1,0.2,0.3,0,0.4
			l-0.4,0.2c-0.3,1.2-0.7,2.3-1.2,3.3h3.8l0.5-0.5c0,0,0.1-0.1,0.2-0.2c0.2-0.2,0.4-0.4,0.4-0.4c0.1,0,0.5,0.3,1,0.8
			c0.5,0.5,0.8,0.9,0.8,1c-0.1,0.1-0.4,0.2-0.8,0.3c-0.3,0.6-0.7,1.2-1.3,1.9c-0.5,0.7-1,1.4-1.5,1.9l-0.3-0.2
			c0.5-1.3,0.8-2.6,1.1-4h-2.2c0.2,3.3,0.6,5.9,1.3,7.8c0.7,2.2,2,3.9,3.6,5.1l0,0.2C292.7,59.6,292.2,60.3,291.9,61.5z"/>
	</g>
	<g>
		<g>
			<g>
				<g>
					<g>
						<g>
							<g>
								<g>
									<path class="st2" d="M8.4,47.1c-0.2,0-0.3-0.1-0.3-0.4c0-0.2,0.1-0.5,0.1-0.8c0-0.1,0-0.3,0-0.4v-0.8H6.3
										c-1,0-2.1,0.1-3.3,0.3l-0.5-1.1C3.3,44,4.3,44,5.4,44.1h2.8c0-1.2-0.1-2.1-0.2-2.8c1.2,0.3,1.9,0.5,2.2,0.7
										c0.2,0.1,0.2,0.3,0,0.4l-0.3,0.2v1.4h4.8c0-1.2-0.1-2.1-0.2-2.8c1.2,0.3,1.9,0.5,2.2,0.7c0.2,0.1,0.2,0.3,0,0.4l-0.4,0.2
										v1.4h2.6l0.5-0.7c0-0.1,0.1-0.1,0.2-0.3c0.2-0.3,0.3-0.5,0.4-0.5c0.1,0,0.5,0.2,1.1,0.7c0.6,0.5,0.8,0.8,0.8,1
										c0,0.2-0.2,0.3-0.5,0.3h-5.1v0.6c0,0.1,0,0.3,0,0.5c0,0.3,0.1,0.5,0.1,0.7c0,0.1-0.2,0.3-0.5,0.4c-0.3,0.1-0.6,0.2-1,0.2
										c-0.2,0-0.4-0.1-0.4-0.4c0-0.2,0.1-0.4,0.1-0.8c0-0.1,0-0.3,0-0.3v-0.8H9.8v0.7c0,0.1,0,0.3,0,0.5c0,0.3,0.1,0.5,0.1,0.7
										c0,0.1-0.2,0.3-0.5,0.4C9.1,47.1,8.8,47.1,8.4,47.1z M4.6,61.3l-1.8-1.9C4,58.4,5.1,57.2,6.2,56l0.3-1.7l1.1,0.3l-0.9,1.6
										l-0.1,0.2c0.3,0.5,0.6,0.9,1,1.3c1.7-0.9,3.4-2,5.1-3.3c1.7-1.4,3.1-2.7,4.1-4H8.2c-1,0-2.1,0.1-3.3,0.3l-0.6-1.1
										c0.8,0.1,1.8,0.1,2.9,0.2h4.1c0-1.5-0.1-2.7-0.2-3.6c1.1,0.3,1.9,0.5,2.2,0.7c0.2,0.1,0.2,0.3,0,0.4L13,47.4v2.2h4l0.5-0.5
										c0,0,0.1-0.1,0.2-0.2c0.3-0.2,0.4-0.4,0.5-0.4c0.1,0,0.5,0.2,1,0.7c0.5,0.5,0.8,0.8,0.8,1c-0.1,0.2-0.4,0.3-0.9,0.3
										c-1.3,1.5-2.9,2.9-4.8,4.2c-2,1.3-4.1,2.4-6.3,3.2c0.7,0.5,1.6,0.9,2.7,1c0.9,0.2,2.3,0.2,4,0.2c3.6,0,6,0,7.1,0v0.3
										c-0.3,0.1-0.5,0.2-0.7,0.5c-0.2,0.2-0.2,0.5-0.3,0.9h-6.2c-2.3,0-4-0.3-5.2-0.8c-1.3-0.6-2.3-1.7-3.1-3.3
										c-0.6,1.3-1.1,2.6-1.7,3.8C4.9,60.7,4.9,61,4.6,61.3z"/>
								</g>
								<g>
									<path class="st2" d="M26.3,61.4c-0.1,0-0.3,0-0.4-0.1c-0.1-0.1-0.2-0.2-0.2-0.3c0.1-1.9,0.2-3.8,0.2-5.7V51
										c0-1.8-0.1-3.3-0.3-4.5c1.3,0.3,2.1,0.6,2.4,0.8c0.2,0.1,0.2,0.3,0,0.4l-0.4,0.2v10.2h5.5V46.3c0-1.8-0.1-3.3-0.3-4.5
										c1.3,0.3,2.1,0.6,2.4,0.7c0.2,0.1,0.2,0.3,0,0.4l-0.4,0.2v14.9h5.6v-7.2c0-1.8-0.1-3.3-0.3-4.5c1.3,0.3,2.1,0.6,2.4,0.7
										c0.2,0.1,0.2,0.3,0,0.4l-0.4,0.2v7.4c0,1.8,0.1,3.5,0.2,5.1c-0.1,0.2-0.3,0.3-0.6,0.5c-0.3,0.2-0.7,0.2-1,0.2
										c-0.3,0-0.4-0.1-0.4-0.4c0-0.2,0.1-0.4,0.1-0.8c0-0.1,0-0.3,0-0.4v-0.8H27.7v0.7c0,0.2,0,0.3,0,0.6c0,0.3,0.1,0.6,0.1,0.7
										c0,0.2-0.2,0.3-0.5,0.5S26.6,61.4,26.3,61.4z"/>
								</g>
								<g>
									<path class="st2" d="M46.8,47l-0.6-1.1c0.7,0.1,1.4,0.1,2.4,0.2h1.1v-0.2c0-1.8-0.1-3.3-0.3-4.5c1.2,0.3,2,0.5,2.3,0.7
										c0.2,0.1,0.2,0.3,0,0.4l-0.4,0.2V46h1.1l0.5-0.7c0-0.1,0.1-0.2,0.2-0.3c0.2-0.3,0.3-0.5,0.4-0.5c0.1,0,0.5,0.3,1,0.8
										c0.5,0.5,0.8,0.9,0.8,1c0,0.2-0.2,0.3-0.5,0.3H50C49,46.7,47.9,46.8,46.8,47z M55,61.5c-0.1,0-0.2,0-0.3-0.1
										c-0.1-0.1-0.1-0.2-0.1-0.3c0.1-1.2,0.1-2.4,0.2-3.6v-2c-2.3,1.5-4.7,2.8-7.1,4c-0.1,0.3-0.2,0.5-0.5,0.6l-1-2.1
										c1.1-0.3,2.5-0.8,4.4-1.4c0.2-1.3,0.5-2.8,0.8-4.7c0.2-1.7,0.3-3.2,0.2-4.4c1.2,0.3,2,0.5,2.3,0.6c0.2,0.1,0.2,0.2,0,0.4
										l-0.4,0.2c-0.6,2.6-1.4,5.2-2.4,7.7c1.4-0.5,2.6-0.9,3.6-1.3v-1.9c0-0.8,0-1.5-0.1-1.9l2,0.9h1.7v-6.4
										c0-1.8-0.1-3.3-0.3-4.5c1.3,0.3,2.1,0.6,2.4,0.7c0.2,0.1,0.2,0.3,0,0.4l-0.4,0.2v4h2.4l0.5-0.8c0-0.1,0.1-0.1,0.2-0.2
										c0.2-0.4,0.4-0.6,0.5-0.6c0.1,0,0.5,0.3,1,0.8c0.6,0.5,0.8,0.9,0.8,1.1c-0.1,0.2-0.2,0.3-0.5,0.3h-4.8v4.8h2.3l0.3-0.5
										c0,0,0.1-0.1,0.1-0.1c0.2-0.3,0.3-0.4,0.4-0.4c0.1,0,0.5,0.2,1,0.6c0.5,0.4,0.8,0.7,0.8,0.8c-0.1,0.2-0.4,0.3-0.8,0.4v2.6
										c0,1.8,0.1,3.5,0.2,5.1c-0.1,0.1-0.3,0.3-0.6,0.4c-0.3,0.1-0.7,0.2-1,0.2c-0.2,0-0.4-0.1-0.4-0.4c0-0.1,0-0.2,0-0.3
										c0-0.1,0-0.2,0-0.2v-0.5h-6.1v0.4c0,0.1,0,0.2,0,0.4c0,0.1,0,0.2,0,0.3c0,0.1-0.2,0.3-0.4,0.4C55.8,61.4,55.4,61.5,55,61.5
										z M49.1,55.7c-0.3,0.2-0.6,0.1-0.9-0.3c0.1-1.1,0.1-2.2,0-3.5c-0.1-1.6-0.4-2.9-0.8-4l0.3-0.1c0.9,1.3,1.5,2.5,1.8,3.7
										c0.3,1,0.3,1.9,0.2,2.8C49.6,55,49.4,55.5,49.1,55.7z M56.4,59.1h6.1v-6.4h-6.1V59.1z"/>
								</g>
								<g>
									<path class="st2" d="M83.8,60.3c-0.9,0-1.7-0.1-2.6-0.4c-0.8-0.2-1.5-0.5-2.1-0.9l0.2-3.4h1.2l0.6,3
										c0.7,0.4,1.6,0.6,2.5,0.6c1.2,0,2.1-0.3,2.8-0.8c0.7-0.5,1-1.3,1-2.2c0-0.8-0.2-1.4-0.7-1.8c-0.4-0.4-1.2-0.9-2.3-1.3
										l-0.9-0.4c-1.3-0.5-2.3-1.2-3-1.9c-0.8-0.8-1.1-1.8-1.1-2.9c0-1.4,0.5-2.4,1.5-3.2c1-0.8,2.3-1.2,3.8-1.2
										c1.5,0,2.8,0.4,3.9,1.3l-0.2,3.1h-1.2l-0.6-2.9c-0.6-0.3-1.2-0.5-1.9-0.5c-1,0-1.8,0.2-2.4,0.7c-0.6,0.5-1,1.2-1,2.1
										c0,0.7,0.2,1.4,0.7,1.9c0.4,0.5,1.1,0.9,2,1.2l1,0.4c1.6,0.6,2.7,1.3,3.4,2.1c0.7,0.7,1,1.7,1,2.8c0,1.4-0.5,2.5-1.6,3.3
										C86.8,59.9,85.4,60.3,83.8,60.3z"/>
								</g>
								<g>
									<path class="st2" d="M98.8,60.1c-2,0-3.7-0.7-5.1-2.1c-1.5-1.6-2.2-3.6-2.2-6.2c0-1.7,0.4-3.2,1.1-4.5
										c0.7-1.2,1.6-2.2,2.7-2.9c1.1-0.7,2.3-1,3.6-1s2.4,0.3,3.5,1c1.1,0.7,2,1.6,2.7,2.8c0.7,1.3,1.1,2.8,1.1,4.6
										c0,1.7-0.3,3.2-1,4.5c-0.7,1.2-1.5,2.2-2.7,2.9C101.3,59.8,100.1,60.1,98.8,60.1z M98.8,59.1c1.6,0,2.8-0.8,3.6-2.2
										c0.8-1.3,1.1-3,1.1-5.1c0-2.1-0.4-3.7-1.1-5.1c-0.9-1.5-2.1-2.2-3.6-2.2c-1.6,0-2.8,0.8-3.7,2.2c-0.8,1.3-1.2,3-1.2,5.1
										s0.4,3.7,1.2,5.1C96.1,58.3,97.3,59.1,98.8,59.1z"/>
								</g>
								<g>
									<path class="st2" d="M116.5,60.1c-2.4,0-4.3-0.8-5.8-2.3c-1.5-1.6-2.2-3.6-2.2-6c0-2.4,0.8-4.4,2.3-6
										c1.5-1.6,3.5-2.4,5.9-2.4c1.9,0,3.5,0.4,4.8,1.2l0,3.5h-1.3l-0.6-3c-0.8-0.5-1.7-0.7-2.7-0.7c-1.8,0-3.2,0.6-4.2,1.9
										c-1.1,1.3-1.7,3.1-1.7,5.4s0.5,4.1,1.6,5.4c1.1,1.3,2.5,1.9,4.4,1.9c0.9,0,1.8-0.2,2.7-0.5v-0.9c0-1,0-2.5,0-4.5l-2.5-0.2
										v-0.8h6.2v0.8l-1.4,0.1c0,1.5-0.1,3-0.1,4.5v1.1C119.9,59.6,118.2,60.1,116.5,60.1z"/>
								</g>
								<g>
									<path class="st2" d="M132,60.1c-2,0-3.7-0.7-5.1-2.1c-1.5-1.6-2.2-3.6-2.2-6.2c0-1.7,0.4-3.2,1.1-4.5
										c0.7-1.2,1.6-2.2,2.7-2.9c1.1-0.7,2.3-1,3.6-1s2.4,0.3,3.5,1c1.1,0.7,2,1.6,2.7,2.8c0.7,1.3,1.1,2.8,1.1,4.6
										c0,1.7-0.3,3.2-1,4.5c-0.7,1.2-1.5,2.2-2.7,2.9C134.5,59.8,133.3,60.1,132,60.1z M132,59.1c1.6,0,2.8-0.8,3.6-2.2
										c0.8-1.3,1.1-3,1.1-5.1c0-2.1-0.4-3.7-1.1-5.1c-0.9-1.5-2.1-2.2-3.6-2.2c-1.6,0-2.8,0.8-3.7,2.2c-0.8,1.3-1.2,3-1.2,5.1
										s0.4,3.7,1.2,5.1C129.2,58.3,130.5,59.1,132,59.1z"/>
								</g>
								<g>
									<path class="st2" d="M142.6,51.5c-0.3,0-0.6-0.2-0.7-0.5c-0.2-0.6,0-1,0.6-1.4c0.4-0.2,0.7-0.6,0.9-1.1
										c0.3-0.5,0.4-1.1,0.3-1.6h0.3c0.1,0.4,0.2,0.9,0.3,1.3h4c-0.2,0-0.4-0.2-0.5-0.3c0-1-0.3-2-1-3.2l0.2-0.1
										c0.9,0.4,1.6,0.9,2.1,1.4c0.4,0.5,0.5,1,0.4,1.4c-0.1,0.4-0.3,0.7-0.7,0.8h4.4c0.4-1,0.9-2.2,1.3-3.6h-8.2
										c-1,0-2.1,0.1-3.3,0.3l-0.6-1.1c0.8,0.1,1.8,0.1,2.9,0.2h5.2c0-1.1-0.1-2-0.2-2.7c1.2,0.3,1.9,0.5,2.2,0.7
										c0.2,0.1,0.2,0.2,0,0.4l-0.3,0.2v1.4h5l0.5-0.7c0-0.1,0.1-0.1,0.2-0.2c0.2-0.3,0.4-0.5,0.5-0.5c0.1,0,0.5,0.3,1.1,0.8
										c0.6,0.5,0.9,0.8,0.9,1c-0.1,0.2-0.3,0.3-0.6,0.3h-5c1,0.2,1.7,0.5,1.9,0.6c0.2,0.1,0.2,0.2-0.1,0.3l-0.4,0.1
										c-0.7,0.9-1.5,1.8-2.5,2.6h4.3l0.5-0.5c0,0,0.1-0.1,0.1-0.1c0.2-0.3,0.4-0.4,0.5-0.4c0.1,0,0.5,0.3,1,0.8
										c0.5,0.5,0.8,0.9,0.8,1c-0.1,0.1-0.4,0.2-0.8,0.2c-0.7,0.6-1.6,1.3-2.8,2.1l-0.3-0.2c0.3-0.5,0.7-1.3,1-2.2h-13.6
										c0,1.2-0.3,2-0.9,2.4C143.2,51.5,142.9,51.6,142.6,51.5z M142.1,61.5l-0.1-0.3c2.2-0.9,3.8-2.1,4.9-3.5c1-1.3,1.7-3,2-5.1
										h-2.9c-1,0-2.1,0.1-3.3,0.3l-0.6-1.1c0.8,0.1,1.8,0.1,2.9,0.2h5.3c0-1.2-0.1-2.2-0.2-2.9c1.2,0.3,2,0.5,2.3,0.7
										c0.2,0.1,0.2,0.2,0,0.4l-0.3,0.2V52h5.6l0.4-0.6c0,0,0.1-0.1,0.2-0.2c0.2-0.3,0.3-0.4,0.4-0.4c0.1,0,0.5,0.2,1,0.7
										c0.5,0.4,0.8,0.7,0.8,0.9c-0.1,0.2-0.2,0.3-0.5,0.3H151c-0.2,0.9-0.4,1.7-0.7,2.4h5.3l0.4-0.5c0,0,0.1-0.1,0.1-0.2
										c0.2-0.2,0.3-0.4,0.4-0.4c0.1,0,0.4,0.2,0.9,0.7s0.7,0.8,0.7,0.9c-0.1,0.2-0.4,0.3-0.8,0.3c-0.3,2.7-0.9,4.4-1.8,5
										c-0.6,0.4-1.4,0.6-2.4,0.6c0-0.6-0.1-0.9-0.4-1.2c-0.3-0.3-1-0.5-2.1-0.7v-0.3c1.6,0.1,2.6,0.2,3.1,0.2
										c0.3,0,0.6-0.1,0.8-0.2c0.5-0.3,0.9-1.6,1.2-3.7h-5.7c-0.7,1.4-1.6,2.6-2.9,3.6C145.8,60.2,144.2,61,142.1,61.5z"/>
								</g>
							</g>
						</g>
					</g>
				</g>
			</g>
		</g>
		<circle class="st2" cx="72.3" cy="51.1" r="2.2"/>
	</g>
	<g>
		<g>
			<g>
				<g>
					<g>
						<g>
							<path class="st3" d="M2.5,29.9c4.8-5,8.1-8.6,9.8-11c1.7-2.3,2.6-4.6,2.6-6.8c0-1.9-0.5-3.4-1.6-4.4c-1-1-2.3-1.5-3.8-1.5
								c-1.8,0-3.3,0.7-4.4,2C4.5,8.9,3.9,10,3.4,11.5l-0.8-0.2c0.7-3,1.8-5.1,3.3-6.3c1.6-1.2,3.2-1.8,5-1.8c2.2,0,4,0.7,5.4,2.1
								c1.4,1.4,2.1,3.1,2.1,5.1c0,2.1-0.7,4.2-2.2,6.2s-4.7,5.5-9.7,10.6h9c1.3,0,2.1-0.2,2.7-0.5c0.5-0.3,1.1-1,1.7-2.2l0.5,0.2
								l-2.2,5.5H2.5V29.9z"/>
						</g>
						<g>
							<path class="st3" d="M38.2,8.1c1.3,2.6,2,5.5,2,8.8c0,2.6-0.4,5.1-1.2,7.4c-1.5,4.3-4.2,6.5-8,6.5c-2.6,0-4.7-1.2-6.4-3.5
								C22.9,24.7,22,21.3,22,17c0-3.4,0.6-6.3,1.8-8.7c1.6-3.3,4.1-5,7.4-5C34.2,3.3,36.6,4.9,38.2,8.1z M35.2,26.5
								c0.7-2.1,1.1-5.2,1.1-9.2c0-3.2-0.2-5.7-0.6-7.6c-0.8-3.5-2.3-5.3-4.6-5.3s-3.8,1.8-4.6,5.5c-0.4,1.9-0.6,4.5-0.6,7.7
								c0,3,0.2,5.4,0.7,7.1c0.8,3.3,2.4,5,4.7,5C33.2,29.6,34.5,28.6,35.2,26.5z"/>
						</g>
						<g>
							<path class="st3" d="M46.8,27.2l-1.2-3.1c0.7-0.2,2-0.6,3.9-1.2V12.3h-1.1c-0.6,0-1.3,0.2-2,0.4l-0.8-1.6
								c0.7,0.1,1.6,0.2,2.6,0.2h1.3v-2c0-2.6-0.1-4.7-0.4-6.3c1.8,0.4,2.8,0.8,3.2,1c0.3,0.2,0.3,0.4,0,0.6l-0.5,0.3v6.3h1l0.6-1
								c0-0.1,0.1-0.2,0.2-0.3c0.3-0.5,0.5-0.7,0.6-0.7c0.2,0,0.6,0.3,1.3,1c0.7,0.7,1,1.2,1,1.4c-0.1,0.3-0.3,0.5-0.8,0.5h-3.9v9.9
								c2-0.7,3.6-1.2,5-1.7l0.1,0.3c-3.5,2.2-6.7,4.1-9.5,5.7C47.3,26.8,47.1,27.1,46.8,27.2z M63,30.6c-0.2,0-0.3-0.1-0.5-0.2
								c-0.1-0.1-0.2-0.3-0.2-0.4c0-0.1,0-0.3,0-0.5c0.1-2.1,0.2-4.3,0.3-6.5v-3.8h-3c-1.5,0-3,0.2-4.6,0.4l-0.8-1.6
								c1.1,0.1,2.5,0.2,4.1,0.2h4.4V5.7h-2.4c-1.4,0-2.8,0.2-4.3,0.4l-0.8-1.5c1.1,0.1,2.5,0.2,4.1,0.2h9.1l0.7-1
								c0.1-0.1,0.2-0.2,0.3-0.4c0.3-0.4,0.5-0.7,0.6-0.7c0.2,0,0.7,0.4,1.5,1.1c0.8,0.7,1.2,1.2,1.2,1.4c0,0.3-0.3,0.5-0.8,0.5
								h-6.9v12.6h4.2l0.7-1.1c0-0.1,0.1-0.2,0.2-0.3c0.3-0.6,0.6-0.8,0.7-0.8c0.2,0,0.7,0.4,1.5,1.1c0.8,0.7,1.2,1.2,1.2,1.5
								c-0.1,0.3-0.3,0.5-0.8,0.5h-7.8v3.6c0,2.4,0.1,4.7,0.2,6.9c-0.2,0.2-0.4,0.4-0.7,0.6C64,30.5,63.5,30.6,63,30.6z M55.6,17
								l-0.4-0.3c0.5-0.9,1-1.9,1.4-2.9c0.4-0.9,0.7-2,1-3.3c0.3-1.3,0.5-2.3,0.5-3.2l2.1,0.8c1.5,0.3,1.9,0.7,1.2,0.9l-0.6,0.2
								C59.5,12.5,57.8,15.1,55.6,17z M71.5,15.9c-0.5,0.3-1,0.2-1.6-0.3c-0.3-2.2-1.4-4.7-3.3-7.6l0.4-0.2c1.7,1,3,2.1,4,3.3
								c0.8,1,1.2,2,1.2,3C72.1,15,71.9,15.6,71.5,15.9z"/>
						</g>
						<g>
							<path class="st3" d="M78.2,30.1c4.8-5,8.1-8.6,9.8-11c1.7-2.3,2.6-4.6,2.6-6.8c0-1.9-0.5-3.4-1.6-4.4c-1-1-2.3-1.5-3.8-1.5
								c-1.8,0-3.3,0.7-4.4,2c-0.6,0.7-1.2,1.8-1.8,3.3l-0.8-0.2c0.7-3,1.8-5.1,3.3-6.3c1.6-1.2,3.2-1.8,5-1.8c2.2,0,4,0.7,5.4,2.1
								c1.4,1.4,2.1,3.1,2.1,5.1c0,2.1-0.7,4.2-2.2,6.2s-4.7,5.5-9.7,10.6h9c1.3,0,2.1-0.2,2.7-0.5c0.5-0.3,1.1-1,1.7-2.2l0.5,0.2
								l-2.2,5.5H78.2V30.1z"/>
						</g>
						<g>
							<path class="st3" d="M116.4,30.7c0-0.7-0.2-1.3-0.5-1.6c-0.4-0.3-1.3-0.6-2.7-0.8v-0.5c0.1,0,0.4,0,0.8,0.1
								c1.7,0.1,2.7,0.2,3.1,0.2c0.4,0,0.8-0.1,1-0.2c0.6-0.5,1-2.1,1.3-5h-7c-0.6,1.7-1.6,3.1-2.9,4.3c-1.6,1.4-3.9,2.6-6.8,3.6
								l-0.4-0.5c3.2-1.5,5.5-3.3,6.7-5.3c0.9-1.5,1.4-3.4,1.5-5.8h-6.4c-0.6,5-2.4,8.8-5.3,11.4l-0.4-0.3c1.5-2.2,2.5-4.8,3.1-7.9
								c0.4-2.2,0.6-5.1,0.6-8.5V9.4c0-1.8-0.1-3.3-0.3-4.6l2.4,1c2.7-0.3,5.6-0.7,8.7-1.2c3-0.5,5.5-1.1,7.4-1.6
								c1.1,1.2,1.8,1.9,2,2.3c0.2,0.3,0,0.4-0.4,0.4L121,5.4c-5.4,0.7-10.9,1-16.6,1v2.5h15.8l0.5-0.7c0.1-0.1,0.1-0.2,0.2-0.3
								c0.2-0.3,0.4-0.5,0.5-0.5c0.2,0,0.7,0.3,1.4,0.9c0.7,0.6,1.1,1,1.1,1.2c-0.2,0.3-0.6,0.5-1.1,0.6v1.6c0,0.2,0,0.6,0,1
								c0,0.9,0.1,1.6,0.1,2c-0.1,0.2-0.4,0.4-0.8,0.6c-0.5,0.2-0.9,0.3-1.3,0.3h-0.4v-1.3h-16c0,1.2-0.1,2.5-0.2,3.8h7.6
								c0-1.4-0.1-2.6-0.2-3.5c1.5,0.4,2.5,0.8,2.9,1c0.3,0.2,0.3,0.3,0,0.5l-0.4,0.3v1.8h7.1l0.6-0.9c0.1-0.1,0.1-0.2,0.2-0.3
								c0.3-0.4,0.5-0.6,0.6-0.6c0.2,0,0.7,0.3,1.4,0.9c0.7,0.6,1.1,1.1,1.1,1.3c-0.1,0.3-0.3,0.5-0.8,0.5h-11.3
								c-0.1,1.1-0.3,2-0.5,2.8h6.5l0.5-0.6c0,0,0.1-0.1,0.2-0.2c0.3-0.3,0.5-0.4,0.6-0.4c0.2,0,0.6,0.3,1.3,0.8c0.7,0.6,1,1,1,1.2
								c-0.2,0.2-0.6,0.4-1.1,0.5c-0.3,3.7-1.1,6-2.2,6.8C118.7,30.4,117.6,30.7,116.4,30.7z M104.3,13.5h16V9.8h-16V13.5z"/>
						</g>
						<g>
							<path class="st3" d="M137,29.9c4.8-5,8.1-8.6,9.8-11c1.7-2.3,2.6-4.6,2.6-6.8c0-1.9-0.5-3.4-1.6-4.4c-1-1-2.3-1.5-3.8-1.5
								c-1.8,0-3.3,0.7-4.4,2c-0.6,0.7-1.2,1.8-1.8,3.3l-0.8-0.2c0.7-3,1.8-5.1,3.3-6.3c1.6-1.2,3.2-1.8,5-1.8c2.2,0,4,0.7,5.4,2.1
								c1.4,1.4,2.1,3.1,2.1,5.1c0,2.1-0.7,4.2-2.2,6.2s-4.7,5.5-9.7,10.6h9c1.3,0,2.1-0.2,2.7-0.5c0.5-0.3,1.1-1,1.7-2.2l0.5,0.2
								l-2.2,5.5H137V29.9z"/>
						</g>
						<g>
							<path class="st3" d="M172,3.7v0.6l-8.5,26.4h-2.6l7.9-24h-8.6c-1.3,0-2.2,0.2-2.7,0.6c-0.6,0.4-1.3,1.3-2.1,2.6l-0.7-0.3
								c0.9-2.1,1.4-3.4,1.6-3.9c0.2-0.5,0.5-1.2,0.8-2H172z"/>
						</g>
						<g>
							<path class="st3" d="M176.9,27.2l-1.2-3.1c0.7-0.2,2-0.6,3.9-1.2V12.3h-1.1c-0.6,0-1.3,0.2-2,0.4l-0.8-1.6
								c0.7,0.1,1.6,0.2,2.6,0.2h1.3v-2c0-2.6-0.1-4.7-0.4-6.3c1.8,0.4,2.8,0.8,3.2,1c0.3,0.2,0.3,0.4,0,0.6L182,5.1v6.3h1l0.6-1
								c0-0.1,0.1-0.2,0.2-0.3c0.3-0.5,0.5-0.7,0.6-0.7c0.2,0,0.6,0.3,1.3,1c0.7,0.7,1,1.2,1,1.4c-0.1,0.3-0.3,0.5-0.8,0.5H182v9.9
								c2-0.7,3.6-1.2,5-1.7l0.1,0.3c-3.5,2.2-6.7,4.1-9.5,5.7C177.5,26.8,177.3,27.1,176.9,27.2z M193.1,30.6
								c-0.2,0-0.3-0.1-0.5-0.2c-0.1-0.1-0.2-0.3-0.2-0.4c0-0.1,0-0.3,0-0.5c0.1-2.1,0.2-4.3,0.3-6.5v-3.8h-3c-1.5,0-3,0.2-4.6,0.4
								l-0.8-1.6c1.1,0.1,2.5,0.2,4.1,0.2h4.4V5.7h-2.4c-1.4,0-2.8,0.2-4.3,0.4l-0.8-1.5c1.1,0.1,2.5,0.2,4.1,0.2h9.1l0.7-1
								c0.1-0.1,0.2-0.2,0.3-0.4c0.3-0.4,0.5-0.7,0.6-0.7c0.2,0,0.7,0.4,1.5,1.1c0.8,0.7,1.2,1.2,1.2,1.4c0,0.3-0.3,0.5-0.8,0.5
								h-6.9v12.6h4.2l0.7-1.1c0-0.1,0.1-0.2,0.2-0.3c0.3-0.6,0.6-0.8,0.7-0.8c0.2,0,0.7,0.4,1.5,1.1c0.8,0.7,1.2,1.2,1.2,1.5
								c-0.1,0.3-0.3,0.5-0.8,0.5h-7.8v3.6c0,2.4,0.1,4.7,0.2,6.9c-0.2,0.2-0.4,0.4-0.7,0.6C194.1,30.5,193.6,30.6,193.1,30.6z
								 M185.8,17l-0.4-0.3c0.5-0.9,1-1.9,1.4-2.9c0.4-0.9,0.7-2,1-3.3c0.3-1.3,0.5-2.3,0.5-3.2l2.1,0.8c1.5,0.3,1.9,0.7,1.2,0.9
								L191,9.3C189.6,12.5,187.9,15.1,185.8,17z M201.6,15.9c-0.5,0.3-1,0.2-1.6-0.3c-0.3-2.2-1.4-4.7-3.3-7.6l0.4-0.2
								c1.7,1,3,2.1,4,3.3c0.8,1,1.2,2,1.2,3C202.2,15,202,15.6,201.6,15.9z"/>
						</g>
						<g>
							<path class="st3" d="M207.2,30.1c4.8-5,8.1-8.6,9.8-11c1.7-2.3,2.6-4.6,2.6-6.8c0-1.9-0.5-3.4-1.6-4.4c-1-1-2.3-1.5-3.8-1.5
								c-1.8,0-3.3,0.7-4.4,2c-0.6,0.7-1.2,1.8-1.8,3.3l-0.8-0.2c0.7-3,1.8-5.1,3.3-6.3c1.6-1.2,3.2-1.8,5-1.8c2.2,0,4,0.7,5.4,2.1
								c1.4,1.4,2.1,3.1,2.1,5.1c0,2.1-0.7,4.2-2.2,6.2s-4.7,5.5-9.7,10.6h9c1.3,0,2.1-0.2,2.7-0.5c0.5-0.3,1.1-1,1.7-2.2L225,25
								l-2.2,5.5h-15.7V30.1z"/>
						</g>
						<g>
							<path class="st3" d="M239.3,17.4h10.6v1.7h-10.6v10.6h-1.7V19.2h-10.7v-1.7h10.7V6.8h1.7V17.4z"/>
						</g>
						<g>
							<path class="st3" d="M260.4,3.7c0,0,0,0.1,0,0.2v23.7c0,1,0.3,1.7,0.8,1.9s1.5,0.4,3,0.5v0.6h-11.1v-0.6
								c1.6-0.1,2.6-0.3,3.1-0.6c0.5-0.4,0.7-1.1,0.7-2.3V8.8c0-0.6-0.1-1.1-0.2-1.4c-0.2-0.3-0.5-0.5-1-0.5c-0.3,0-0.8,0.1-1.3,0.3
								c-0.5,0.2-1.1,0.4-1.5,0.6V7.2l7.2-3.7h0.2C260.4,3.6,260.4,3.6,260.4,3.7z"/>
						</g>
						<g>
							<path class="st3" d="M285.7,30.4c0-0.7-0.2-1.3-0.5-1.6c-0.4-0.3-1.3-0.6-2.6-0.8v-0.5c0.1,0,0.4,0,0.7,0.1
								c1.7,0.1,2.7,0.2,3,0.2c0.4,0,0.8-0.1,1-0.2c0.6-0.5,1-2.1,1.3-4.9h-6.9c-0.6,1.6-1.5,3-2.9,4.2c-1.6,1.4-3.8,2.6-6.7,3.5
								l-0.4-0.4c3.2-1.5,5.4-3.2,6.6-5.2c0.9-1.4,1.4-3.3,1.5-5.7h-6.3c-0.6,4.9-2.3,8.6-5.2,11.2l-0.4-0.3c1.5-2.1,2.5-4.7,3-7.7
								c0.4-2.2,0.6-5,0.6-8.4V9.5c0-1.8-0.1-3.3-0.3-4.5l2.4,1c2.6-0.3,5.5-0.7,8.5-1.2c3-0.5,5.4-1.1,7.2-1.6
								c1.1,1.1,1.7,1.9,1.9,2.2c0.2,0.3,0,0.4-0.4,0.4l-0.8-0.1c-5.3,0.6-10.7,1-16.3,1V9h15.5l0.5-0.7c0.1-0.1,0.1-0.1,0.2-0.3
								c0.2-0.3,0.4-0.5,0.5-0.5c0.2,0,0.6,0.3,1.3,0.9s1,1,1,1.2c-0.2,0.3-0.6,0.5-1.1,0.6v1.5c0,0.2,0,0.5,0,0.9
								c0,0.9,0.1,1.5,0.1,2c-0.1,0.2-0.4,0.4-0.8,0.6s-0.9,0.3-1.2,0.3h-0.4v-1.2h-15.7c0,1.2-0.1,2.5-0.2,3.8h7.4
								c0-1.4-0.1-2.6-0.2-3.5c1.5,0.4,2.4,0.7,2.8,1c0.3,0.2,0.3,0.3,0,0.5l-0.4,0.3v1.7h6.9l0.6-0.9c0.1-0.1,0.1-0.2,0.2-0.3
								c0.3-0.4,0.5-0.6,0.6-0.6c0.2,0,0.7,0.3,1.4,0.9s1.1,1,1.1,1.3c-0.1,0.3-0.3,0.5-0.7,0.5h-11.1c-0.1,1.1-0.3,2-0.5,2.7h6.4
								l0.5-0.6c0,0,0.1-0.1,0.2-0.2c0.3-0.3,0.5-0.4,0.6-0.4c0.2,0,0.6,0.3,1.3,0.8c0.7,0.5,1,0.9,1,1.1c-0.2,0.2-0.6,0.4-1.1,0.4
								c-0.3,3.6-1.1,5.8-2.2,6.6C288,30.1,287,30.4,285.7,30.4z M273.9,13.5h15.7V9.9h-15.7V13.5z"/>
						</g>
					</g>
				</g>
			</g>
		</g>
	</g>
</g>
</svg>
