<svg width="297" height="12" viewBox="0 0 297 12" fill="none" xmlns="http://www.w3.org/2000/svg">
<g opacity="0.6">
<path d="M157.049 1.07203C157.049 1.46743 157.049 1.87297 157.049 2.27851V2.50156C157.049 2.89696 157.049 3.30249 157.049 3.6979L157.475 3.74861V3.91083H156.198V3.74861L156.624 3.70804C156.624 3.31264 156.624 2.91725 156.624 2.51171V2.28866C156.624 1.88312 156.624 1.47758 156.624 1.08218L156.198 1.04161V0.879395H157.475V1.04161L157.049 1.08218V1.07203Z" fill="#3F3A39"/>
<path d="M159.097 3.72827C158.986 3.8702 158.803 3.96146 158.57 3.96146C158.246 3.96146 158.053 3.79926 158.053 3.43427C158.053 3.32275 158.053 3.23148 158.053 3.05912V1.95403H157.668V1.79181L158.073 1.74113L158.195 1.13281H158.459L158.438 1.76139H159.047V1.96418H158.438V3.42412C158.438 3.66745 158.54 3.75868 158.702 3.75868C158.813 3.75868 158.894 3.71812 159.016 3.62687L159.107 3.72827H159.097Z" fill="#3F3A39"/>
<path d="M161.155 2.66372C161.601 2.82593 161.774 3.02869 161.774 3.31256C161.774 3.65727 161.469 3.96144 160.902 3.96144C160.638 3.96144 160.445 3.9006 160.222 3.78908V3.2923H160.425L160.527 3.70798C160.638 3.75867 160.75 3.77896 160.902 3.77896C161.257 3.77896 161.419 3.62686 161.419 3.41396C161.419 3.21119 161.297 3.1098 160.993 2.99827L160.78 2.92733C160.445 2.80567 160.222 2.62317 160.222 2.31901C160.222 1.98444 160.506 1.69043 161.013 1.69043C161.257 1.69043 161.449 1.76139 161.642 1.87292L161.622 2.32913H161.419L161.328 1.94389C161.216 1.8932 161.115 1.86277 161.003 1.86277C160.709 1.86277 160.557 1.99458 160.557 2.19735C160.557 2.40012 160.669 2.49136 160.983 2.60289L161.135 2.66372H161.155Z" fill="#3F3A39"/>
<path d="M164.268 1.90343L164.014 1.94399L163.254 3.9514C162.96 4.73206 162.676 5.03622 162.341 5.03622C162.128 5.03622 161.936 4.9247 161.936 4.75235C161.966 4.62055 162.098 4.56986 162.23 4.56986C162.362 4.56986 162.443 4.62056 162.564 4.73208L162.595 4.76249C162.798 4.60028 162.929 4.35694 163.031 4.0832L163.051 4.03252L162.21 1.9237L161.956 1.89328V1.75136H163.031V1.89328L162.635 1.93384L163.234 3.54586L163.801 1.93384L163.396 1.88316V1.74121H164.268V1.88316V1.90343Z" fill="#3F3A39"/>
<path d="M168.202 3.76856V3.91052H167.167V3.76856L167.502 3.71788C167.502 3.49484 167.502 3.18054 167.502 2.9575V2.53167C167.502 2.10585 167.38 1.99433 167.117 1.99433C166.924 1.99433 166.732 2.07542 166.498 2.29847C166.498 2.36944 166.508 2.44042 166.508 2.53167V2.96761C166.508 3.19066 166.508 3.50495 166.519 3.728L166.833 3.77871V3.92063H165.789V3.77871L166.133 3.728C166.133 3.50495 166.133 3.19066 166.133 2.96761V2.55193C166.133 2.13625 166.022 2.00447 165.758 2.00447C165.555 2.00447 165.373 2.0957 165.14 2.29847V2.96761C165.14 3.18052 165.14 3.49482 165.14 3.728L165.454 3.77871V3.92063H164.41V3.77871L164.744 3.728C164.744 3.49482 164.744 3.18052 164.744 2.96761V2.73445C164.744 2.48099 164.744 2.31877 164.734 2.13628L164.379 2.09572V1.96391L165.018 1.7206L165.079 1.76113L165.12 2.12613C165.343 1.87267 165.637 1.71045 165.91 1.71045C166.184 1.71045 166.367 1.84226 166.448 2.13628C166.691 1.84226 166.975 1.71045 167.269 1.71045C167.634 1.71045 167.847 1.93349 167.847 2.50125V2.96761C167.847 3.19066 167.847 3.50495 167.847 3.728L168.161 3.77871L168.202 3.76856Z" fill="#3F3A39"/>
<path d="M169.195 2.03504C169.408 1.80185 169.651 1.70045 169.895 1.70045C170.381 1.70045 170.756 2.11613 170.756 2.81569C170.756 3.51525 170.371 3.97149 169.834 3.97149C169.631 3.97149 169.398 3.90052 169.195 3.64705L169.155 3.96135L168.475 3.92078V3.77886L168.81 3.72815C168.81 3.49496 168.81 3.18067 168.81 2.96776V0.929943L168.445 0.889381V0.757575L169.134 0.564941L169.195 0.595356V1.24423L169.185 2.04515L169.195 2.03504ZM169.195 3.48483C169.378 3.66733 169.57 3.72815 169.743 3.72815C170.067 3.72815 170.351 3.47468 170.351 2.83596C170.351 2.19723 170.108 1.91338 169.753 1.91338C169.611 1.91338 169.438 1.94377 169.185 2.17696V3.47469L169.195 3.48483Z" fill="#3F3A39"/>
<path d="M171.172 2.83605C171.172 2.08581 171.679 1.69043 172.206 1.69043C172.733 1.69043 173.25 2.07567 173.25 2.83605C173.25 3.59644 172.733 3.96144 172.206 3.96144C171.679 3.96144 171.172 3.57616 171.172 2.83605ZM172.835 2.83605C172.835 2.20747 172.602 1.87292 172.206 1.87292C171.811 1.87292 171.578 2.20747 171.578 2.83605C171.578 3.46464 171.801 3.78908 172.206 3.78908C172.612 3.78908 172.835 3.46464 172.835 2.83605Z" fill="#3F3A39"/>
<path d="M174.65 3.76871V3.91066H173.534V3.76871L173.899 3.71803C173.899 3.47471 173.899 3.20097 173.899 2.95764V0.919795L173.534 0.889381V0.757575L174.234 0.564941L174.295 0.595356L174.275 1.24423V2.96776C174.275 3.21108 174.275 3.48482 174.275 3.72815L174.64 3.77886L174.65 3.76871Z" fill="#3F3A39"/>
<path d="M175.978 3.76892V3.91087H174.933V3.76892L175.278 3.71824C175.278 3.48505 175.278 3.17076 175.278 2.95785V2.71451C175.278 2.46104 175.278 2.30897 175.268 2.11634L174.903 2.08592V1.95412L175.603 1.7108L175.663 1.75137V2.35965V2.96797C175.663 3.18088 175.663 3.49517 175.663 3.72836L175.978 3.77907V3.76892ZM175.177 0.899736C175.177 0.73752 175.309 0.625977 175.471 0.625977C175.633 0.625977 175.765 0.73752 175.765 0.899736C175.765 1.06195 175.633 1.18361 175.471 1.18361C175.309 1.18361 175.177 1.06195 175.177 0.899736Z" fill="#3F3A39"/>
<path d="M178.097 3.18075L178.046 3.91072H176.282V3.76877L177.59 1.9337H176.637L176.505 2.45078L176.302 2.43048L176.333 1.77148H178.016V1.91344L176.708 3.7485H177.732L177.874 3.19087H178.077L178.097 3.18075Z" fill="#3F3A39"/>
<path d="M178.806 2.80529C178.806 3.40346 179.121 3.70763 179.557 3.70763C179.851 3.70763 180.033 3.57582 180.195 3.38319L180.287 3.44402C180.124 3.75831 179.83 3.96109 179.435 3.96109C178.827 3.96109 178.411 3.55555 178.411 2.84585C178.411 2.13616 178.887 1.7002 179.445 1.7002C179.932 1.7002 180.297 2.03477 180.297 2.56197C180.297 2.66336 180.286 2.75461 180.266 2.81544H178.806V2.80529ZM179.688 2.6431C179.891 2.6431 179.932 2.54171 179.932 2.38964C179.932 2.10576 179.729 1.86242 179.435 1.86242C179.161 1.86242 178.867 2.09561 178.816 2.63295H179.688V2.6431Z" fill="#3F3A39"/>
<path d="M181.675 2.66372C182.122 2.82593 182.294 3.02869 182.294 3.31256C182.294 3.65727 181.99 3.96144 181.422 3.96144C181.158 3.96144 180.966 3.9006 180.743 3.78908V3.2923H180.945L181.047 3.70798C181.158 3.75867 181.27 3.77896 181.422 3.77896C181.777 3.77896 181.939 3.62686 181.939 3.41396C181.939 3.21119 181.817 3.1098 181.513 2.99827L181.3 2.92733C180.966 2.80567 180.743 2.62317 180.743 2.31901C180.743 1.98444 181.027 1.69043 181.533 1.69043C181.777 1.69043 181.969 1.76139 182.162 1.87292L182.142 2.32913H181.939L181.848 1.94389C181.736 1.8932 181.635 1.86277 181.523 1.86277C181.229 1.86277 181.077 1.99458 181.077 2.19735C181.077 2.40012 181.189 2.49136 181.503 2.60289L181.655 2.66372H181.675Z" fill="#3F3A39"/>
<path d="M184.798 3.72827C184.687 3.8702 184.504 3.96146 184.271 3.96146C183.947 3.96146 183.754 3.79926 183.754 3.43427C183.754 3.32275 183.754 3.23148 183.754 3.05912V1.95403H183.369V1.79181L183.774 1.74113L183.896 1.13281H184.16L184.139 1.76139H184.748V1.96418H184.139V3.42412C184.139 3.66745 184.241 3.75868 184.403 3.75868C184.515 3.75868 184.596 3.71812 184.717 3.62687L184.809 3.72827H184.798Z" fill="#3F3A39"/>
<path d="M187.414 3.76871V3.91066H186.37V3.76871L186.704 3.71803C186.704 3.49498 186.704 3.18069 186.704 2.95764V2.53181C186.704 2.11613 186.583 1.98433 186.319 1.98433C186.116 1.98433 185.913 2.05531 185.67 2.2885V2.95764C185.67 3.17055 185.67 3.48485 185.67 3.71803L185.984 3.76871V3.91066H184.94V3.76871L185.275 3.71803C185.275 3.48485 185.275 3.17055 185.275 2.95764V0.919795L184.91 0.889381V0.757575L185.599 0.564941L185.66 0.595356V1.24423L185.65 2.13643C185.873 1.88296 186.187 1.7106 186.481 1.7106C186.866 1.7106 187.069 1.94379 187.069 2.54196V2.96776C187.069 3.19081 187.069 3.5051 187.069 3.72815L187.383 3.77886L187.414 3.76871Z" fill="#3F3A39"/>
<path d="M188.154 2.80529C188.154 3.40346 188.468 3.70763 188.904 3.70763C189.198 3.70763 189.381 3.57582 189.543 3.38319L189.634 3.44402C189.472 3.75831 189.178 3.96109 188.783 3.96109C188.174 3.96109 187.759 3.55555 187.759 2.84585C187.759 2.13616 188.235 1.7002 188.793 1.7002C189.279 1.7002 189.644 2.03477 189.644 2.56197C189.644 2.66336 189.634 2.75461 189.614 2.81544H188.154V2.80529ZM189.036 2.6431C189.239 2.6431 189.279 2.54171 189.279 2.38964C189.279 2.10576 189.077 1.86242 188.783 1.86242C188.509 1.86242 188.215 2.09561 188.164 2.63295H189.036V2.6431Z" fill="#3F3A39"/>
<path d="M193.314 3.76871V3.91066H192.27V3.76871L192.605 3.71803C192.605 3.49498 192.605 3.18069 192.605 2.95764V2.53181C192.605 2.11613 192.483 1.98433 192.219 1.98433C192.017 1.98433 191.814 2.05531 191.57 2.2885V2.95764C191.57 3.17055 191.57 3.48485 191.57 3.71803L191.885 3.76871V3.91066H190.84V3.76871L191.175 3.71803C191.175 3.48485 191.175 3.17055 191.175 2.95764V0.919795L190.81 0.889381V0.757575L191.499 0.564941L191.56 0.595356V1.24423L191.55 2.13643C191.773 1.88296 192.088 1.7106 192.382 1.7106C192.767 1.7106 192.97 1.94379 192.97 2.54196V2.96776C192.97 3.19081 192.97 3.5051 192.97 3.72815L193.284 3.77886L193.314 3.76871Z" fill="#3F3A39"/>
<path d="M195.93 3.76856V3.90037L195.302 3.94093L195.261 3.53537C195.028 3.81924 194.744 3.9612 194.45 3.9612C194.085 3.9612 193.852 3.74829 193.862 3.13998V1.98418L193.548 1.91323V1.78143L194.217 1.71045L194.268 1.76113L194.247 2.39986V3.10957C194.247 3.51511 194.379 3.65705 194.623 3.65705C194.846 3.65705 195.058 3.55566 195.251 3.36303V1.98418L194.937 1.92335V1.79154L195.586 1.7206L195.626 1.77128V2.41001L195.616 3.71788L195.93 3.76856Z" fill="#3F3A39"/>
<path d="M200.036 3.76856V3.91052H199.002V3.76856L199.337 3.71788C199.337 3.49484 199.337 3.18054 199.337 2.9575V2.53167C199.337 2.10585 199.215 1.99433 198.952 1.99433C198.759 1.99433 198.566 2.07542 198.333 2.29847C198.333 2.36944 198.343 2.44042 198.343 2.53167V2.96761C198.343 3.19066 198.343 3.50495 198.353 3.728L198.668 3.77871V3.92063H197.623V3.77871L197.968 3.728C197.968 3.50495 197.968 3.19066 197.968 2.96761V2.55193C197.968 2.13625 197.857 2.00447 197.593 2.00447C197.39 2.00447 197.208 2.0957 196.974 2.29847V2.96761C196.974 3.18052 196.974 3.49482 196.974 3.728L197.289 3.77871V3.92063H196.245V3.77871L196.579 3.728C196.579 3.49482 196.579 3.18052 196.579 2.96761V2.73445C196.579 2.48099 196.579 2.31877 196.569 2.13628L196.214 2.09572V1.96391L196.853 1.7206L196.914 1.76113L196.954 2.12613C197.177 1.87267 197.471 1.71045 197.745 1.71045C198.019 1.71045 198.201 1.84226 198.282 2.13628C198.526 1.84226 198.81 1.71045 199.104 1.71045C199.469 1.71045 199.681 1.93349 199.681 2.50125V2.96761C199.681 3.19066 199.681 3.50495 199.681 3.728L199.996 3.77871L200.036 3.76856Z" fill="#3F3A39"/>
<path d="M202.449 3.7279C202.348 3.90025 202.216 3.96109 202.064 3.96109C201.841 3.96109 201.699 3.82929 201.659 3.60624C201.415 3.84956 201.253 3.97124 200.979 3.97124C200.645 3.97124 200.381 3.77859 200.381 3.4136C200.381 3.13986 200.543 2.9371 201.131 2.72419C201.273 2.6735 201.466 2.61268 201.648 2.57212V2.43017C201.648 1.98407 201.517 1.86242 201.212 1.86242C201.131 1.86242 201.05 1.87256 200.959 1.90298L200.868 2.21727C200.827 2.35921 200.756 2.43017 200.645 2.43017C200.523 2.43017 200.452 2.36935 200.442 2.25783C200.523 1.91312 200.847 1.7002 201.324 1.7002C201.8 1.7002 202.024 1.91312 202.024 2.48088V3.46432C202.024 3.67722 202.084 3.75831 202.186 3.75831C202.257 3.75831 202.307 3.71777 202.368 3.6468L202.449 3.73804V3.7279ZM201.648 2.71405C201.486 2.7546 201.334 2.81544 201.233 2.84585C200.837 2.99793 200.766 3.18041 200.766 3.34263C200.766 3.58595 200.929 3.69748 201.131 3.69748C201.294 3.69748 201.395 3.62653 201.648 3.4339V2.71405Z" fill="#3F3A39"/>
<path d="M205.075 3.76856V3.91052H204.031V3.76856L204.366 3.71788C204.366 3.49484 204.366 3.18054 204.366 2.9575V2.53167C204.366 2.12613 204.254 1.98418 203.991 1.98418C203.788 1.98418 203.595 2.07544 203.362 2.28835V2.9575C203.362 3.1704 203.362 3.4847 203.362 3.71788L203.676 3.76856V3.91052H202.632V3.76856L202.967 3.71788C202.967 3.4847 202.967 3.1704 202.967 2.9575V2.7243C202.967 2.47084 202.967 2.30862 202.956 2.12613L202.602 2.08557V1.95376L203.24 1.71045L203.301 1.75101L203.342 2.12613C203.575 1.87267 203.879 1.71045 204.153 1.71045C204.538 1.71045 204.731 1.95377 204.731 2.53167V2.96761C204.731 3.19066 204.731 3.50495 204.731 3.728L205.045 3.77871L205.075 3.76856Z" fill="#3F3A39"/>
<path d="M206.414 3.76892V3.91087H205.369V3.76892L205.714 3.71824C205.714 3.48505 205.714 3.17076 205.714 2.95785V2.71451C205.714 2.46104 205.714 2.30897 205.704 2.11634L205.339 2.08592V1.95412L206.038 1.7108L206.099 1.75137V2.35965V2.96797C206.099 3.18088 206.099 3.49517 206.099 3.72836L206.414 3.77907V3.76892ZM205.613 0.899736C205.613 0.73752 205.744 0.625977 205.907 0.625977C206.059 0.625977 206.201 0.73752 206.201 0.899736C206.201 1.06195 206.069 1.18361 205.907 1.18361C205.744 1.18361 205.613 1.06195 205.613 0.899736Z" fill="#3F3A39"/>
<path d="M207.742 2.66372C208.188 2.82593 208.36 3.02869 208.36 3.31256C208.36 3.65727 208.056 3.96144 207.488 3.96144C207.225 3.96144 207.032 3.9006 206.809 3.78908V3.2923H207.012L207.113 3.70798C207.225 3.75867 207.336 3.77896 207.488 3.77896C207.843 3.77896 208.005 3.62686 208.005 3.41396C208.005 3.21119 207.884 3.1098 207.579 2.99827L207.366 2.92733C207.032 2.80567 206.809 2.62317 206.809 2.31901C206.809 1.98444 207.093 1.69043 207.6 1.69043C207.843 1.69043 208.036 1.76139 208.228 1.87292L208.208 2.32913H208.005L207.914 1.94389C207.802 1.8932 207.701 1.86277 207.59 1.86277C207.295 1.86277 207.143 1.99458 207.143 2.19735C207.143 2.40012 207.255 2.49136 207.569 2.60289L207.721 2.66372H207.742Z" fill="#3F3A39"/>
<path d="M210.003 3.72827C209.891 3.8702 209.709 3.96146 209.475 3.96146C209.151 3.96146 208.958 3.79926 208.958 3.43427C208.958 3.32275 208.958 3.23148 208.958 3.05912V1.95403H208.573V1.79181L208.979 1.74113L209.1 1.13281H209.364L209.344 1.76139H209.952V1.96418H209.344V3.42412C209.344 3.66745 209.445 3.75868 209.607 3.75868C209.719 3.75868 209.8 3.71812 209.921 3.62687L210.013 3.72827H210.003Z" fill="#3F3A39"/>
<path d="M211.229 3.76892V3.91087H210.185V3.76892L210.53 3.71824C210.53 3.48505 210.53 3.17076 210.53 2.95785V2.71451C210.53 2.46104 210.53 2.30897 210.52 2.11634L210.155 2.08592V1.95412L210.854 1.7108L210.915 1.75137V2.35965V2.96797C210.915 3.18088 210.915 3.49517 210.915 3.72836L211.229 3.77907V3.76892ZM210.428 0.899736C210.428 0.73752 210.56 0.625977 210.722 0.625977C210.874 0.625977 211.016 0.73752 211.016 0.899736C211.016 1.06195 210.885 1.18361 210.722 1.18361C210.56 1.18361 210.428 1.06195 210.428 0.899736Z" fill="#3F3A39"/>
<path d="M213.439 3.4136C213.308 3.76845 213.024 3.97124 212.598 3.97124C211.99 3.97124 211.574 3.53527 211.574 2.84585C211.574 2.15643 212.081 1.7002 212.628 1.7002C213.034 1.7002 213.358 1.94353 213.419 2.2781C213.399 2.38962 213.328 2.44032 213.216 2.44032C213.074 2.44032 213.004 2.35922 212.973 2.22742L212.882 1.91313C212.791 1.88271 212.709 1.87256 212.639 1.87256C212.223 1.87256 211.939 2.20714 211.939 2.79517C211.939 3.3832 212.253 3.70763 212.689 3.70763C212.953 3.70763 213.176 3.57583 213.318 3.36292L213.409 3.40349L213.439 3.4136Z" fill="#3F3A39"/>
<path d="M215.062 2.80529C215.062 3.40346 215.376 3.70763 215.812 3.70763C216.106 3.70763 216.288 3.57582 216.451 3.38319L216.542 3.44402C216.38 3.75831 216.086 3.96109 215.69 3.96109C215.082 3.96109 214.666 3.55555 214.666 2.84585C214.666 2.13616 215.143 1.7002 215.7 1.7002C216.187 1.7002 216.552 2.03477 216.552 2.56197C216.552 2.66336 216.542 2.75461 216.522 2.81544H215.062V2.80529ZM215.944 2.6431C216.146 2.6431 216.187 2.54171 216.187 2.38964C216.187 2.10576 215.984 1.86242 215.69 1.86242C215.417 1.86242 215.122 2.09561 215.072 2.63295H215.944V2.6431Z" fill="#3F3A39"/>
<path d="M219.381 3.76856V3.91052H218.336V3.76856L218.671 3.71788C218.671 3.49484 218.671 3.18054 218.671 2.9575V2.53167C218.671 2.12613 218.559 1.98418 218.296 1.98418C218.093 1.98418 217.9 2.07544 217.667 2.28835V2.9575C217.667 3.1704 217.667 3.4847 217.667 3.71788L217.981 3.76856V3.91052H216.937V3.76856L217.272 3.71788C217.272 3.4847 217.272 3.1704 217.272 2.9575V2.7243C217.272 2.47084 217.272 2.30862 217.262 2.12613L216.907 2.08557V1.95376L217.545 1.71045L217.606 1.75101L217.647 2.12613C217.88 1.87267 218.184 1.71045 218.458 1.71045C218.843 1.71045 219.036 1.95377 219.036 2.53167V2.96761C219.036 3.19066 219.036 3.50495 219.036 3.728L219.35 3.77871L219.381 3.76856Z" fill="#3F3A39"/>
<path d="M221.631 1.90354L221.378 1.96436L220.638 3.93124H220.455L219.644 1.9441L219.391 1.90354V1.75146H220.476V1.90354L220.08 1.95422L220.658 3.48514L221.185 1.97451L220.81 1.91368V1.76158H221.642V1.91368L221.631 1.90354Z" fill="#3F3A39"/>
<path d="M222.878 3.76892V3.91087H221.834V3.76892L222.179 3.71824C222.179 3.48505 222.179 3.17076 222.179 2.95785V2.71451C222.179 2.46104 222.179 2.30897 222.169 2.11634L221.804 2.08592V1.95412L222.503 1.7108L222.564 1.75137V2.35965V2.96797C222.564 3.18088 222.564 3.49517 222.564 3.72836L222.878 3.77907V3.76892ZM222.077 0.899736C222.077 0.73752 222.209 0.625977 222.371 0.625977C222.534 0.625977 222.665 0.73752 222.665 0.899736C222.665 1.06195 222.534 1.18361 222.371 1.18361C222.209 1.18361 222.077 1.06195 222.077 0.899736Z" fill="#3F3A39"/>
<path d="M223.933 2.28825C224.085 1.91312 224.339 1.7002 224.592 1.7002C224.734 1.7002 224.866 1.76104 224.916 1.87256C224.916 2.06519 224.845 2.18685 224.663 2.18685C224.551 2.18685 224.47 2.13616 224.379 2.05505L224.328 2.00437C224.146 2.13617 224.024 2.3288 223.933 2.60254V2.95739C223.933 3.1703 223.933 3.48459 223.933 3.71778L224.308 3.76846V3.91041H223.203V3.76846L223.538 3.71778C223.538 3.49473 223.538 3.1703 223.538 2.95739V2.72419C223.538 2.47073 223.538 2.30852 223.527 2.12603L223.173 2.08546V1.95366L223.811 1.71034L223.872 1.75091L223.923 2.29836L223.933 2.28825Z" fill="#3F3A39"/>
<path d="M225.099 2.83605C225.099 2.08581 225.606 1.69043 226.133 1.69043C226.66 1.69043 227.177 2.07567 227.177 2.83605C227.177 3.59644 226.66 3.96144 226.133 3.96144C225.606 3.96144 225.099 3.57616 225.099 2.83605ZM226.761 2.83605C226.761 2.20747 226.528 1.87292 226.133 1.87292C225.737 1.87292 225.504 2.20747 225.504 2.83605C225.504 3.46464 225.727 3.78908 226.133 3.78908C226.538 3.78908 226.761 3.46464 226.761 2.83605Z" fill="#3F3A39"/>
<path d="M229.996 3.76856V3.91052H228.952V3.76856L229.286 3.71788C229.286 3.49484 229.286 3.18054 229.286 2.9575V2.53167C229.286 2.12613 229.175 1.98418 228.911 1.98418C228.708 1.98418 228.516 2.07544 228.283 2.28835V2.9575C228.283 3.1704 228.283 3.4847 228.283 3.71788L228.597 3.76856V3.91052H227.553V3.76856L227.887 3.71788C227.887 3.4847 227.887 3.1704 227.887 2.9575V2.7243C227.887 2.47084 227.887 2.30862 227.877 2.12613L227.522 2.08557V1.95376L228.161 1.71045L228.222 1.75101L228.262 2.12613C228.496 1.87267 228.8 1.71045 229.073 1.71045C229.459 1.71045 229.651 1.95377 229.651 2.53167V2.96761C229.651 3.19066 229.651 3.50495 229.651 3.728L229.966 3.77871L229.996 3.76856Z" fill="#3F3A39"/>
<path d="M234.071 3.76856V3.91052H233.037V3.76856L233.372 3.71788C233.372 3.49484 233.372 3.18054 233.372 2.9575V2.53167C233.372 2.10585 233.25 1.99433 232.986 1.99433C232.794 1.99433 232.601 2.07542 232.368 2.29847C232.368 2.36944 232.378 2.44042 232.378 2.53167V2.96761C232.378 3.19066 232.378 3.50495 232.388 3.728L232.703 3.77871V3.92063H231.658V3.77871L232.003 3.728C232.003 3.50495 232.003 3.19066 232.003 2.96761V2.55193C232.003 2.13625 231.891 2.00447 231.628 2.00447C231.425 2.00447 231.243 2.0957 231.009 2.29847V2.96761C231.009 3.18052 231.009 3.49482 231.009 3.728L231.324 3.77871V3.92063H230.279V3.77871L230.614 3.728C230.614 3.49482 230.614 3.18052 230.614 2.96761V2.73445C230.614 2.48099 230.614 2.31877 230.604 2.13628L230.249 2.09572V1.96391L230.888 1.7206L230.949 1.76113L230.989 2.12613C231.212 1.87267 231.506 1.71045 231.78 1.71045C232.054 1.71045 232.236 1.84226 232.317 2.13628C232.561 1.84226 232.844 1.71045 233.139 1.71045C233.503 1.71045 233.716 1.93349 233.716 2.50125V2.96761C233.716 3.19066 233.716 3.50495 233.716 3.728L234.031 3.77871L234.071 3.76856Z" fill="#3F3A39"/>
<path d="M234.811 2.80529C234.811 3.40346 235.126 3.70763 235.562 3.70763C235.856 3.70763 236.038 3.57582 236.2 3.38319L236.292 3.44402C236.129 3.75831 235.835 3.96109 235.44 3.96109C234.832 3.96109 234.416 3.55555 234.416 2.84585C234.416 2.13616 234.893 1.7002 235.45 1.7002C235.937 1.7002 236.302 2.03477 236.302 2.56197C236.302 2.66336 236.292 2.75461 236.271 2.81544H234.811V2.80529ZM235.693 2.6431C235.896 2.6431 235.937 2.54171 235.937 2.38964C235.937 2.10576 235.734 1.86242 235.44 1.86242C235.166 1.86242 234.872 2.09561 234.822 2.63295H235.693V2.6431Z" fill="#3F3A39"/>
<path d="M239.121 3.76856V3.91052H238.076V3.76856L238.411 3.71788C238.411 3.49484 238.411 3.18054 238.411 2.9575V2.53167C238.411 2.12613 238.299 1.98418 238.036 1.98418C237.833 1.98418 237.64 2.07544 237.407 2.28835V2.9575C237.407 3.1704 237.407 3.4847 237.407 3.71788L237.721 3.76856V3.91052H236.677V3.76856L237.012 3.71788C237.012 3.4847 237.012 3.1704 237.012 2.9575V2.7243C237.012 2.47084 237.012 2.30862 237.002 2.12613L236.647 2.08557V1.95376L237.285 1.71045L237.346 1.75101L237.387 2.12613C237.62 1.87267 237.924 1.71045 238.198 1.71045C238.583 1.71045 238.776 1.95377 238.776 2.53167V2.96761C238.776 3.19066 238.776 3.50495 238.776 3.728L239.09 3.77871L239.121 3.76856Z" fill="#3F3A39"/>
<path d="M240.702 3.72827C240.59 3.8702 240.408 3.96146 240.175 3.96146C239.85 3.96146 239.658 3.79926 239.658 3.43427C239.658 3.32275 239.658 3.23148 239.658 3.05912V1.95403H239.272V1.79181L239.678 1.74113L239.8 1.13281H240.063L240.043 1.76139H240.651V1.96418H240.043V3.42412C240.043 3.66745 240.144 3.75868 240.307 3.75868C240.418 3.75868 240.499 3.71812 240.621 3.62687L240.712 3.72827H240.702Z" fill="#3F3A39"/>
<path d="M242.436 2.73452C242.436 1.98427 242.942 1.58887 243.47 1.58887C243.997 1.58887 244.514 1.97414 244.514 2.73452C244.514 3.49491 243.997 3.85988 243.47 3.85988C242.942 3.85988 242.436 3.47463 242.436 2.73452ZM244.098 2.73452C244.098 2.10594 243.865 1.77135 243.47 1.77135C243.074 1.77135 242.841 2.10594 242.841 2.73452C242.841 3.36311 243.064 3.68754 243.47 3.68754C243.875 3.68754 244.098 3.36311 244.098 2.73452Z" fill="#3F3A39"/>
<path d="M245.254 1.63973C245.295 1.15308 245.386 0.879361 245.579 0.676591C245.771 0.463683 246.004 0.402832 246.207 0.402832C246.41 0.402832 246.592 0.473823 246.633 0.646177C246.633 0.757701 246.532 0.848928 246.38 0.848928C246.258 0.848928 246.156 0.798242 246.055 0.696857L245.933 0.585318C245.862 0.625872 245.812 0.686716 245.771 0.757686C245.67 0.93004 245.599 1.19366 245.619 1.66003H246.248V1.86278H245.629V2.85636C245.629 3.10983 245.629 3.36329 245.629 3.61675L246.045 3.66743V3.80938H244.879V3.66743L245.244 3.61675C245.244 3.36329 245.254 3.10983 245.254 2.85636V1.86278H244.869V1.70056L245.254 1.64988V1.63973Z" fill="#3F3A39"/>
<path d="M248.438 3.66715V3.8091H247.322V3.66715L247.687 3.61647C247.687 3.37314 247.687 3.0994 247.687 2.85608V0.818233L247.322 0.787818V0.656013L248.022 0.463379L248.083 0.493793L248.062 1.14267V2.8662C248.062 3.10952 248.062 3.38326 248.062 3.62659L248.427 3.6773L248.438 3.66715Z" fill="#3F3A39"/>
<path d="M249.766 3.66784V3.8098H248.722V3.66784L249.066 3.61716C249.066 3.38398 249.066 3.06968 249.066 2.85678V2.61343C249.066 2.35997 249.066 2.20789 249.056 2.01526L248.691 1.98485V1.85304L249.391 1.60973L249.452 1.65029V2.25861V2.86689C249.452 3.0798 249.452 3.3941 249.452 3.62728L249.766 3.67799V3.66784ZM248.965 0.798662C248.965 0.636446 249.097 0.524902 249.259 0.524902C249.421 0.524902 249.553 0.636446 249.553 0.798662C249.553 0.960878 249.421 1.08254 249.259 1.08254C249.097 1.08254 248.965 0.960878 248.965 0.798662Z" fill="#3F3A39"/>
<path d="M250.455 1.63973C250.496 1.15308 250.587 0.879361 250.78 0.676591C250.972 0.463683 251.206 0.402832 251.408 0.402832C251.611 0.402832 251.794 0.473823 251.834 0.646177C251.834 0.757701 251.733 0.848928 251.581 0.848928C251.459 0.848928 251.358 0.798242 251.256 0.696857L251.135 0.585318C251.064 0.625872 251.013 0.686716 250.972 0.757686C250.871 0.93004 250.8 1.19366 250.82 1.66003H251.449V1.86278H250.83V2.85636C250.83 3.10983 250.83 3.36329 250.83 3.61675L251.246 3.66743V3.80938H250.08V3.66743L250.445 3.61675C250.445 3.36329 250.455 3.10983 250.455 2.85636V1.86278H250.07V1.70056L250.455 1.64988V1.63973Z" fill="#3F3A39"/>
<path d="M252.057 2.70424C252.057 3.30242 252.371 3.60656 252.807 3.60656C253.101 3.60656 253.284 3.47475 253.446 3.28212L253.537 3.34294C253.375 3.65724 253.081 3.86002 252.686 3.86002C252.077 3.86002 251.662 3.45447 251.662 2.74478C251.662 2.03508 252.138 1.59912 252.696 1.59912C253.182 1.59912 253.547 1.9337 253.547 2.4609C253.547 2.56228 253.537 2.65353 253.517 2.71436H252.057V2.70424ZM252.939 2.54203C253.142 2.54203 253.182 2.44064 253.182 2.28856C253.182 2.00468 252.98 1.76134 252.686 1.76134C252.412 1.76134 252.118 1.99454 252.067 2.53188H252.939V2.54203Z" fill="#3F3A39"/>
<path d="M256.913 3.62682C256.812 3.79918 256.68 3.86002 256.528 3.86002C256.305 3.86002 256.163 3.72821 256.123 3.50516C255.879 3.74849 255.717 3.87017 255.443 3.87017C255.109 3.87017 254.845 3.67752 254.845 3.31253C254.845 3.03879 254.997 2.83603 255.595 2.62312C255.737 2.57243 255.93 2.5116 256.113 2.47105V2.32909C256.113 1.883 255.981 1.76134 255.677 1.76134C255.595 1.76134 255.514 1.77149 255.423 1.8019L255.332 2.11619C255.291 2.25813 255.22 2.32909 255.109 2.32909C254.987 2.32909 254.916 2.26828 254.906 2.15676C254.987 1.81205 255.312 1.59912 255.788 1.59912C256.265 1.59912 256.488 1.81205 256.488 2.37981V3.36324C256.488 3.57615 256.548 3.65727 256.65 3.65727C256.721 3.65727 256.772 3.6167 256.832 3.54573L256.913 3.63697V3.62682ZM256.113 2.61297C255.95 2.65353 255.798 2.71436 255.697 2.74478C255.301 2.89685 255.23 3.07937 255.23 3.24158C255.23 3.48491 255.393 3.59641 255.595 3.59641C255.758 3.59641 255.859 3.52546 256.113 3.33283V2.61297Z" fill="#3F3A39"/>
<path d="M259.529 3.66749V3.80944H258.485V3.66749L258.82 3.61681C258.82 3.39376 258.82 3.07947 258.82 2.85642V2.43059C258.82 2.02505 258.708 1.88313 258.444 1.88313C258.242 1.88313 258.049 1.97437 257.816 2.18728V2.85642C257.816 3.06933 257.816 3.38362 257.816 3.61681L258.13 3.66749V3.80944H257.086V3.66749L257.42 3.61681C257.42 3.38362 257.42 3.06933 257.42 2.85642V2.62323C257.42 2.36976 257.42 2.20755 257.41 2.02506L257.055 1.98449V1.85269L257.694 1.60938L257.755 1.64994L257.796 2.02506C258.029 1.77159 258.333 1.60938 258.607 1.60938C258.992 1.60938 259.185 1.8527 259.185 2.43059V2.86654C259.185 3.08959 259.185 3.40388 259.185 3.62693L259.499 3.67764L259.529 3.66749Z" fill="#3F3A39"/>
<path d="M262.165 3.66701V3.80897L261.466 3.8495L261.445 3.53521C261.283 3.73798 261.09 3.85965 260.807 3.85965C260.249 3.85965 259.874 3.41355 259.874 2.7444C259.874 2.04485 260.279 1.58863 260.837 1.58863C261.05 1.58863 261.242 1.65961 261.435 1.88266V0.807948L261.05 0.777533V0.645759L261.749 0.453125L261.81 0.483539V1.13239L261.8 3.62645L262.165 3.66701ZM261.425 2.06514C261.222 1.88265 261.07 1.8218 260.908 1.8218C260.563 1.8218 260.259 2.08542 260.259 2.73429C260.259 3.38315 260.533 3.62645 260.898 3.62645C261.101 3.62645 261.242 3.56562 261.415 3.37299V2.06514H261.425Z" fill="#3F3A39"/>
<path d="M265.399 3.62682C265.298 3.79918 265.166 3.86002 265.014 3.86002C264.791 3.86002 264.649 3.72821 264.608 3.50516C264.365 3.74849 264.203 3.87017 263.929 3.87017C263.594 3.87017 263.331 3.67752 263.331 3.31253C263.331 3.03879 263.483 2.83603 264.081 2.62312C264.223 2.57243 264.416 2.5116 264.598 2.47105V2.32909C264.598 1.883 264.466 1.76134 264.162 1.76134C264.081 1.76134 264 1.77149 263.909 1.8019L263.817 2.11619C263.777 2.25813 263.706 2.32909 263.594 2.32909C263.473 2.32909 263.402 2.26828 263.392 2.15676C263.473 1.81205 263.797 1.59912 264.274 1.59912C264.75 1.59912 264.973 1.81205 264.973 2.37981V3.36324C264.973 3.57615 265.034 3.65727 265.135 3.65727C265.206 3.65727 265.257 3.6167 265.318 3.54573L265.399 3.63697V3.62682ZM264.598 2.61297C264.436 2.65353 264.284 2.71436 264.182 2.74478C263.787 2.89685 263.716 3.07937 263.716 3.24158C263.716 3.48491 263.878 3.59641 264.081 3.59641C264.243 3.59641 264.345 3.52546 264.598 3.33283V2.61297Z" fill="#3F3A39"/>
<path d="M268.015 3.66749V3.80944H266.971V3.66749L267.306 3.61681C267.306 3.39376 267.306 3.07947 267.306 2.85642V2.43059C267.306 2.02505 267.194 1.88313 266.93 1.88313C266.728 1.88313 266.535 1.97437 266.302 2.18728V2.85642C266.302 3.06933 266.302 3.38362 266.302 3.61681L266.616 3.66749V3.80944H265.572V3.66749L265.907 3.61681C265.907 3.38362 265.907 3.06933 265.907 2.85642V2.62323C265.907 2.36976 265.906 2.20755 265.896 2.02506L265.542 1.98449V1.85269L266.18 1.60938L266.241 1.64994L266.282 2.02506C266.515 1.77159 266.819 1.60938 267.093 1.60938C267.478 1.60938 267.671 1.8527 267.671 2.43059V2.86654C267.671 3.08959 267.671 3.40388 267.671 3.62693L267.985 3.67764L268.015 3.66749Z" fill="#3F3A39"/>
<path d="M269.221 2.73452C269.221 1.98427 269.728 1.58887 270.256 1.58887C270.783 1.58887 271.3 1.97414 271.3 2.73452C271.3 3.49491 270.783 3.85988 270.256 3.85988C269.728 3.85988 269.221 3.47463 269.221 2.73452ZM270.884 2.73452C270.884 2.10594 270.651 1.77135 270.256 1.77135C269.86 1.77135 269.627 2.10594 269.627 2.73452C269.627 3.36311 269.85 3.68754 270.256 3.68754C270.661 3.68754 270.884 3.36311 270.884 2.73452Z" fill="#3F3A39"/>
<path d="M272.354 1.93371C272.567 1.70052 272.8 1.59912 273.044 1.59912C273.53 1.59912 273.906 2.02495 273.906 2.72451C273.906 3.42407 273.51 3.87017 272.983 3.87017C272.78 3.87017 272.557 3.79918 272.364 3.56599V3.92085C272.364 4.16417 272.364 4.43792 272.364 4.69138L272.78 4.75221V4.88402H271.624V4.75221L271.989 4.69138C271.989 4.43792 271.989 4.17432 271.989 3.93099V2.61297C271.989 2.35951 271.989 2.1973 271.979 2.0148L271.614 1.97427V1.84247L272.253 1.59912L272.314 1.63968L272.344 1.93371H272.354ZM272.375 3.41392C272.547 3.57614 272.709 3.63697 272.882 3.63697C273.226 3.63697 273.51 3.38351 273.51 2.75492C273.51 2.12634 273.267 1.83232 272.922 1.83232C272.78 1.83232 272.608 1.87286 272.364 2.07563V3.41392H272.375Z" fill="#3F3A39"/>
<path d="M274.706 2.70424C274.706 3.30242 275.021 3.60656 275.457 3.60656C275.751 3.60656 275.933 3.47475 276.095 3.28212L276.187 3.34294C276.024 3.65724 275.73 3.86002 275.335 3.86002C274.727 3.86002 274.311 3.45447 274.311 2.74478C274.311 2.03508 274.788 1.59912 275.345 1.59912C275.832 1.59912 276.197 1.9337 276.197 2.4609C276.197 2.56228 276.187 2.65353 276.166 2.71436H274.706V2.70424ZM275.588 2.54203C275.791 2.54203 275.832 2.44064 275.832 2.28856C275.832 2.00468 275.629 1.76134 275.335 1.76134C275.061 1.76134 274.767 1.99454 274.717 2.53188H275.588V2.54203Z" fill="#3F3A39"/>
<path d="M279.015 3.66749V3.80944H277.971V3.66749L278.306 3.61681C278.306 3.39376 278.306 3.07947 278.306 2.85642V2.43059C278.306 2.02505 278.194 1.88313 277.93 1.88313C277.728 1.88313 277.535 1.97437 277.302 2.18728V2.85642C277.302 3.06933 277.302 3.38362 277.302 3.61681L277.616 3.66749V3.80944H276.572V3.66749L276.906 3.61681C276.906 3.38362 276.906 3.06933 276.906 2.85642V2.62323C276.906 2.36976 276.906 2.20755 276.896 2.02506L276.542 1.98449V1.85269L277.18 1.60938L277.241 1.64994L277.282 2.02506C277.515 1.77159 277.819 1.60938 278.093 1.60938C278.478 1.60938 278.671 1.8527 278.671 2.43059V2.86654C278.671 3.08959 278.671 3.40388 278.671 3.62693L278.985 3.67764L279.015 3.66749Z" fill="#3F3A39"/>
<path d="M279.34 2.53174H280.393V2.79522H279.34V2.53174Z" fill="#3F3A39"/>
<path d="M284.521 3.66749V3.80944H283.487V3.66749L283.821 3.61681C283.821 3.39376 283.821 3.07947 283.821 2.85642V2.43059C283.821 2.00477 283.699 1.89325 283.436 1.89325C283.243 1.89325 283.051 1.97438 282.817 2.19743C282.817 2.26839 282.828 2.33934 282.828 2.43059V2.86654C282.828 3.08959 282.828 3.40388 282.838 3.62693L283.152 3.67764V3.81956H282.108V3.67764L282.452 3.62693C282.452 3.40388 282.452 3.08959 282.452 2.86654V2.45089C282.452 2.03521 282.341 1.9034 282.077 1.9034C281.875 1.9034 281.692 1.99466 281.459 2.19743V2.86654C281.459 3.07945 281.459 3.39374 281.459 3.62693L281.773 3.67764V3.81956H280.729V3.67764L281.063 3.62693C281.063 3.39374 281.063 3.07945 281.063 2.86654V2.63337C281.063 2.37991 281.063 2.2177 281.053 2.03521L280.698 1.99464V1.86284L281.337 1.61952L281.398 1.66009L281.439 2.02506C281.662 1.77159 281.956 1.60938 282.229 1.60938C282.503 1.60938 282.686 1.74119 282.767 2.03521C283.01 1.74119 283.294 1.60938 283.588 1.60938C283.953 1.60938 284.166 1.83242 284.166 2.40018V2.86654C284.166 3.08959 284.166 3.40388 284.166 3.62693L284.48 3.67764L284.521 3.66749Z" fill="#3F3A39"/>
<path d="M285.859 3.66784V3.8098H284.815V3.66784L285.16 3.61716C285.16 3.38398 285.16 3.06968 285.16 2.85678V2.61343C285.16 2.35997 285.16 2.20789 285.149 2.01526L284.784 1.98485V1.85304L285.484 1.60973L285.545 1.65029V2.25861V2.86689C285.545 3.0798 285.545 3.3941 285.545 3.62728L285.859 3.67799V3.66784ZM285.058 0.798662C285.058 0.636446 285.19 0.524902 285.352 0.524902C285.514 0.524902 285.646 0.636446 285.646 0.798662C285.646 0.960878 285.514 1.08254 285.352 1.08254C285.19 1.08254 285.058 0.960878 285.058 0.798662Z" fill="#3F3A39"/>
<path d="M288.626 3.66749V3.80944H287.582V3.66749L287.917 3.61681C287.917 3.39376 287.917 3.07947 287.917 2.85642V2.43059C287.917 2.02505 287.805 1.88313 287.542 1.88313C287.339 1.88313 287.146 1.97437 286.913 2.18728V2.85642C286.913 3.06933 286.913 3.38362 286.913 3.61681L287.227 3.66749V3.80944H286.183V3.66749L286.518 3.61681C286.518 3.38362 286.518 3.06933 286.518 2.85642V2.62323C286.518 2.36976 286.518 2.20755 286.507 2.02506L286.153 1.98449V1.85269L286.791 1.60938L286.852 1.64994L286.893 2.02506C287.126 1.77159 287.43 1.60938 287.704 1.60938C288.089 1.60938 288.282 1.8527 288.282 2.43059V2.86654C288.282 3.08959 288.282 3.40388 288.282 3.62693L288.596 3.67764L288.626 3.66749Z" fill="#3F3A39"/>
<path d="M291.263 3.66701V3.80897L290.563 3.8495L290.543 3.53521C290.381 3.73798 290.188 3.85965 289.904 3.85965C289.347 3.85965 288.971 3.41355 288.971 2.7444C288.971 2.04485 289.377 1.58863 289.935 1.58863C290.147 1.58863 290.34 1.65961 290.533 1.88266V0.807948L290.148 0.777533V0.645759L290.847 0.453125L290.908 0.483539V1.13239L290.898 3.62645L291.263 3.66701ZM290.523 2.06514C290.32 1.88265 290.168 1.8218 290.006 1.8218C289.661 1.8218 289.357 2.08542 289.357 2.73429C289.357 3.38315 289.63 3.62645 289.995 3.62645C290.198 3.62645 290.34 3.56562 290.512 3.37299V2.06514H290.523Z" fill="#3F3A39"/>
<path d="M291.942 2.70424C291.942 3.30242 292.256 3.60656 292.692 3.60656C292.986 3.60656 293.169 3.47475 293.331 3.28212L293.422 3.34294C293.26 3.65724 292.966 3.86002 292.57 3.86002C291.962 3.86002 291.546 3.45447 291.546 2.74478C291.546 2.03508 292.023 1.59912 292.581 1.59912C293.067 1.59912 293.432 1.9337 293.432 2.4609C293.432 2.56228 293.422 2.65353 293.402 2.71436H291.942V2.70424ZM292.824 2.54203C293.027 2.54203 293.067 2.44064 293.067 2.28856C293.067 2.00468 292.864 1.76134 292.57 1.76134C292.297 1.76134 292.003 1.99454 291.952 2.53188H292.824V2.54203Z" fill="#3F3A39"/>
<path d="M296.139 3.66701V3.80897L295.44 3.8495L295.419 3.53521C295.257 3.73798 295.065 3.85965 294.781 3.85965C294.223 3.85965 293.848 3.41355 293.848 2.7444C293.848 2.04485 294.253 1.58863 294.811 1.58863C295.024 1.58863 295.217 1.65961 295.409 1.88266V0.807948L295.024 0.777533V0.645759L295.724 0.453125L295.784 0.483539V1.13239L295.774 3.62645L296.139 3.66701ZM295.399 2.06514C295.196 1.88265 295.044 1.8218 294.882 1.8218C294.537 1.8218 294.233 2.08542 294.233 2.73429C294.233 3.38315 294.507 3.62645 294.872 3.62645C295.075 3.62645 295.217 3.56562 295.389 3.37299V2.06514H295.399Z" fill="#3F3A39"/>
<path d="M157.11 9.46645C157.556 9.62867 157.728 9.83145 157.728 10.1153C157.728 10.46 157.424 10.7642 156.857 10.7642C156.593 10.7642 156.4 10.7034 156.177 10.5918V10.095H156.38L156.481 10.5107C156.593 10.5614 156.704 10.5817 156.857 10.5817C157.211 10.5817 157.374 10.4296 157.374 10.2167C157.374 10.0139 157.252 9.91256 156.948 9.80104L156.735 9.73006C156.4 9.6084 156.177 9.4259 156.177 9.12175C156.177 8.78718 156.461 8.49316 156.968 8.49316C157.211 8.49316 157.404 8.56413 157.597 8.67565L157.576 9.13189H157.374L157.282 8.74663C157.171 8.69593 157.069 8.6655 156.958 8.6655C156.664 8.6655 156.512 8.79732 156.512 9.00009C156.512 9.20286 156.623 9.2941 156.938 9.40562L157.09 9.46645H157.11Z" fill="#3F3A39"/>
<path d="M159.371 10.531C159.259 10.673 159.077 10.7642 158.844 10.7642C158.519 10.7642 158.327 10.602 158.327 10.237C158.327 10.1255 158.327 10.0342 158.327 9.86189V8.75679H157.941V8.59457L158.347 8.54386L158.469 7.93555H158.732L158.712 8.56416H159.32V8.76691H158.712V10.2269C158.712 10.4702 158.813 10.5614 158.976 10.5614C159.087 10.5614 159.168 10.5209 159.29 10.4296L159.381 10.531H159.371Z" fill="#3F3A39"/>
<path d="M161.662 10.5209C161.561 10.6932 161.429 10.7541 161.277 10.7541C161.054 10.7541 160.912 10.6223 160.871 10.3992C160.628 10.6425 160.466 10.7642 160.192 10.7642C159.857 10.7642 159.594 10.5716 159.594 10.2066C159.594 9.93283 159.746 9.73007 160.344 9.51716C160.486 9.46647 160.679 9.40561 160.861 9.36506V9.22314C160.861 8.77704 160.729 8.65538 160.425 8.65538C160.344 8.65538 160.263 8.6655 160.172 8.69592L160.08 9.01024C160.04 9.15218 159.969 9.22314 159.857 9.22314C159.736 9.22314 159.665 9.16229 159.655 9.05077C159.736 8.70606 160.06 8.49316 160.537 8.49316C161.013 8.49316 161.236 8.70606 161.236 9.27382V10.2573C161.236 10.4702 161.297 10.5513 161.398 10.5513C161.469 10.5513 161.52 10.5107 161.581 10.4397L161.662 10.531V10.5209ZM160.861 9.50701C160.699 9.54757 160.547 9.6084 160.445 9.63882C160.05 9.7909 159.979 9.97338 159.979 10.1356C159.979 10.3789 160.141 10.4904 160.344 10.4904C160.506 10.4904 160.608 10.4195 160.861 10.2268V9.50701Z" fill="#3F3A39"/>
<path d="M163.163 10.531C163.051 10.673 162.869 10.7642 162.635 10.7642C162.311 10.7642 162.118 10.602 162.118 10.237C162.118 10.1255 162.118 10.0342 162.118 9.86189V8.75679H161.733V8.59457L162.139 8.54386L162.26 7.93555H162.524L162.504 8.56416H163.112V8.76691H162.504V10.2269C162.504 10.4702 162.605 10.5614 162.767 10.5614C162.879 10.5614 162.96 10.5209 163.082 10.4296L163.173 10.531H163.163Z" fill="#3F3A39"/>
<path d="M163.781 9.60851C163.781 10.2067 164.095 10.5108 164.531 10.5108C164.825 10.5108 165.008 10.379 165.17 10.1864L165.261 10.2472C165.099 10.5615 164.805 10.7643 164.41 10.7643C163.801 10.7643 163.386 10.3587 163.386 9.64904C163.386 8.93935 163.862 8.50342 164.42 8.50342C164.907 8.50342 165.272 8.83796 165.272 9.36517C165.272 9.46655 165.261 9.5578 165.241 9.61863H163.781V9.60851ZM164.663 9.44629C164.866 9.44629 164.907 9.34491 164.907 9.19283C164.907 8.90895 164.704 8.66561 164.41 8.66561C164.136 8.66561 163.842 8.8988 163.791 9.43614H164.663V9.44629Z" fill="#3F3A39"/>
<path d="M166.741 9.63882C166.741 8.88857 167.248 8.49316 167.776 8.49316C168.303 8.49316 168.82 8.87843 168.82 9.63882C168.82 10.3992 168.303 10.7642 167.776 10.7642C167.248 10.7642 166.741 10.3789 166.741 9.63882ZM168.404 9.63882C168.404 9.01023 168.171 8.67565 167.776 8.67565C167.38 8.67565 167.147 9.01023 167.147 9.63882C167.147 10.2674 167.37 10.5918 167.776 10.5918C168.181 10.5918 168.404 10.2674 168.404 9.63882Z" fill="#3F3A39"/>
<path d="M169.56 8.54354C169.601 8.05689 169.692 7.78317 169.885 7.5804C170.077 7.36749 170.311 7.30664 170.513 7.30664C170.716 7.30664 170.899 7.37763 170.939 7.54999C170.939 7.66151 170.838 7.75274 170.686 7.75274C170.564 7.75274 170.463 7.70205 170.361 7.60067L170.24 7.48916C170.169 7.52971 170.118 7.59052 170.077 7.66149C169.976 7.83385 169.905 8.09746 169.925 8.56384H170.554V8.76659H169.935V9.76017C169.935 10.0136 169.935 10.2671 169.935 10.5206L170.351 10.5712V10.7132H169.185V10.5712L169.55 10.5206C169.55 10.2671 169.56 10.0136 169.56 9.76017V8.76659H169.175V8.60437L169.56 8.55369V8.54354Z" fill="#3F3A39"/>
<path d="M175.633 10.5615V10.7035H174.599V10.5615L174.933 10.5108C174.933 10.2878 174.933 9.97348 174.933 9.75043V9.32463C174.933 8.89882 174.812 8.78729 174.548 8.78729C174.356 8.78729 174.163 8.86839 173.93 9.09144C173.93 9.16241 173.94 9.23339 173.94 9.32463V9.76058C173.94 9.98363 173.94 10.2979 173.95 10.521L174.264 10.5716V10.7136H173.22V10.5716L173.565 10.521C173.565 10.2979 173.565 9.98363 173.565 9.76058V9.3449C173.565 8.92922 173.453 8.79741 173.19 8.79741C172.987 8.79741 172.804 8.88867 172.571 9.09144V9.76058C172.571 9.97349 172.571 10.2878 172.571 10.521L172.885 10.5716V10.7136H171.841V10.5716L172.176 10.521C172.176 10.2878 172.176 9.97349 172.176 9.76058V9.52739C172.176 9.27392 172.176 9.11171 172.166 8.92922L171.811 8.88865V8.75688L172.45 8.51354L172.51 8.5541L172.551 8.91907C172.774 8.66561 173.068 8.50342 173.342 8.50342C173.615 8.50342 173.798 8.6352 173.879 8.92922C174.122 8.6352 174.406 8.50342 174.7 8.50342C175.065 8.50342 175.278 8.72646 175.278 9.29422V9.76058C175.278 9.98363 175.278 10.2979 175.278 10.521L175.592 10.5716L175.633 10.5615Z" fill="#3F3A39"/>
<path d="M176.971 10.5614V10.7033H175.927V10.5614L176.272 10.5107C176.272 10.2775 176.272 9.96321 176.272 9.7503V9.50699C176.272 9.25352 176.272 9.10145 176.261 8.90882L175.896 8.8784V8.7466L176.596 8.50328L176.657 8.54382V9.15213V9.76045C176.657 9.97336 176.657 10.2876 176.657 10.5208L176.971 10.5715V10.5614ZM176.17 7.69219C176.17 7.52997 176.302 7.41846 176.464 7.41846C176.616 7.41846 176.758 7.52997 176.758 7.69219C176.758 7.8544 176.626 7.97606 176.464 7.97606C176.302 7.97606 176.17 7.8544 176.17 7.69219Z" fill="#3F3A39"/>
<path d="M179.739 10.5615V10.7035H178.695V10.5615L179.029 10.5108C179.029 10.2878 179.029 9.97348 179.029 9.75043V9.32463C179.029 8.91909 178.918 8.77715 178.654 8.77715C178.452 8.77715 178.259 8.86838 178.026 9.08129V9.75043C178.026 9.96334 178.026 10.2776 178.026 10.5108L178.34 10.5615V10.7035H177.296V10.5615L177.63 10.5108C177.63 10.2776 177.63 9.96334 177.63 9.75043V9.51727C177.63 9.26381 177.63 9.10156 177.62 8.91907L177.265 8.87854V8.74673L177.904 8.50342L177.965 8.54395L178.005 8.91907C178.239 8.66561 178.543 8.50342 178.817 8.50342C179.202 8.50342 179.394 8.74674 179.394 9.32463V9.76058C179.394 9.98363 179.394 10.2979 179.394 10.521L179.709 10.5716L179.739 10.5615Z" fill="#3F3A39"/>
<path d="M182.375 10.5611V10.703L181.676 10.7436L181.655 10.4293C181.493 10.6321 181.301 10.7537 181.017 10.7537C180.459 10.7537 180.084 10.3076 180.084 9.63848C180.084 8.93892 180.49 8.48267 181.047 8.48267C181.26 8.48267 181.453 8.55365 181.645 8.7767V7.70202L181.26 7.67161V7.5398L181.96 7.34717L182.02 7.37758V8.02646L182.01 10.5205L182.375 10.5611ZM181.635 8.95919C181.432 8.77669 181.28 8.71587 181.118 8.71587C180.773 8.71587 180.469 8.97947 180.469 9.62833C180.469 10.2772 180.743 10.5205 181.108 10.5205C181.311 10.5205 181.453 10.4597 181.625 10.2671V8.95919H181.635Z" fill="#3F3A39"/>
<path d="M182.993 10.7231C182.882 10.642 182.831 10.5204 182.831 10.4191C182.831 10.2671 182.923 10.1455 183.095 10.1455C183.176 10.1455 183.267 10.1759 183.368 10.2671C183.409 10.3786 183.419 10.4698 183.419 10.5812C183.419 11.1082 183.004 11.5237 182.588 11.696L182.527 11.5642C182.841 11.4021 183.075 11.1994 183.176 10.8548L183.004 10.7231H182.993Z" fill="#3F3A39"/>
<path d="M186.603 10.5104V10.6524H185.488V10.5104L185.853 10.4597C185.853 10.2164 185.853 9.94267 185.853 9.69934V7.66149L185.488 7.63108V7.49927L186.187 7.30664L186.248 7.33705L186.228 7.98593V9.70946C186.228 9.95278 186.228 10.2265 186.228 10.4698L186.593 10.5206L186.603 10.5104Z" fill="#3F3A39"/>
<path d="M188.975 10.4701C188.874 10.6424 188.742 10.7033 188.59 10.7033C188.367 10.7033 188.225 10.5715 188.184 10.3484C187.941 10.5917 187.779 10.7134 187.505 10.7134C187.171 10.7134 186.907 10.5208 186.907 10.1558C186.907 9.88205 187.059 9.67929 187.657 9.46638C187.799 9.41569 187.992 9.35486 188.174 9.31431V9.17236C188.174 8.72626 188.043 8.6046 187.738 8.6046C187.657 8.6046 187.576 8.61475 187.485 8.64517L187.394 8.95946C187.353 9.1014 187.282 9.17236 187.171 9.17236C187.049 9.17236 186.978 9.11154 186.968 9.00002C187.049 8.65531 187.373 8.44238 187.85 8.44238C188.326 8.44238 188.549 8.65531 188.549 9.22307V10.2065C188.549 10.4194 188.61 10.5005 188.712 10.5005C188.783 10.5005 188.833 10.46 188.894 10.389L188.975 10.4802V10.4701ZM188.174 9.45623C188.012 9.49679 187.86 9.55762 187.759 9.58804C187.363 9.74012 187.292 9.92263 187.292 10.0848C187.292 10.3282 187.454 10.4397 187.657 10.4397C187.819 10.4397 187.921 10.3687 188.174 10.1761V9.45623Z" fill="#3F3A39"/>
<path d="M191.5 10.5108V10.6426L190.871 10.6831L190.831 10.2776C190.597 10.5615 190.314 10.7034 190.02 10.7034C189.655 10.7034 189.421 10.4905 189.431 9.88217V8.7264L189.117 8.65542V8.52361L189.786 8.45264L189.837 8.50335L189.817 9.14205V9.85175C189.817 10.2573 189.949 10.3992 190.192 10.3992C190.415 10.3992 190.628 10.2978 190.82 10.1052V8.7264L190.506 8.66554V8.53376L191.155 8.46279L191.196 8.51347V9.1522L191.185 10.4601L191.5 10.5108Z" fill="#3F3A39"/>
<path d="M193.862 8.75681H193.406C193.477 8.8582 193.527 9.00012 193.527 9.18261C193.527 9.65912 193.183 9.93285 192.716 9.93285C192.584 9.93285 192.463 9.91257 192.361 9.87202C192.28 9.97341 192.24 10.0647 192.24 10.166C192.24 10.2978 192.3 10.3789 192.534 10.3789H193.132C193.629 10.3789 193.862 10.5919 193.862 10.9568C193.862 11.3522 193.487 11.7375 192.747 11.7375C192.088 11.7375 191.804 11.5043 191.804 11.1799C191.804 10.9873 191.925 10.8352 192.24 10.6831C192.057 10.6223 191.946 10.5108 191.946 10.3283C191.946 10.1863 192.027 10.0343 192.26 9.83149C192.047 9.70983 191.915 9.49691 191.915 9.19276C191.915 8.71625 192.26 8.45264 192.736 8.45264C192.97 8.45264 193.162 8.51346 193.304 8.63512L193.821 8.46279L193.892 8.51347V8.78722L193.862 8.75681ZM192.544 10.7135C192.453 10.7135 192.382 10.7135 192.321 10.7135C192.189 10.8453 192.138 10.967 192.138 11.1191C192.138 11.4232 192.371 11.555 192.726 11.555C193.243 11.555 193.517 11.3522 193.517 11.0785C193.517 10.8757 193.395 10.7135 193.071 10.7135H192.554H192.544ZM193.162 9.17246C193.162 8.83789 193 8.59459 192.716 8.59459C192.432 8.59459 192.25 8.8379 192.25 9.18261C192.25 9.52732 192.422 9.77066 192.696 9.77066C192.97 9.77066 193.162 9.51719 193.162 9.16234V9.17246Z" fill="#3F3A39"/>
<path d="M196.518 10.5104V10.6524H195.474V10.5104L195.809 10.4597C195.809 10.2367 195.809 9.92239 195.809 9.69934V9.27351C195.809 8.85783 195.687 8.72606 195.423 8.72606C195.221 8.72606 195.018 8.79701 194.775 9.0302V9.69934C194.775 9.91225 194.775 10.2265 194.775 10.4597L195.089 10.5104V10.6524H194.045V10.5104L194.379 10.4597C194.379 10.2265 194.379 9.91225 194.379 9.69934V7.66149L194.014 7.63108V7.49927L194.704 7.30664L194.764 7.33705V7.98593L194.754 8.87813C194.977 8.62466 195.292 8.4523 195.586 8.4523C195.971 8.4523 196.174 8.68549 196.174 9.28366V9.70946C196.174 9.93251 196.174 10.2468 196.174 10.4698L196.488 10.5206L196.518 10.5104Z" fill="#3F3A39"/>
<path d="M197.867 10.5111V10.6531H196.823V10.5111L197.167 10.4604C197.167 10.2272 197.167 9.91295 197.167 9.70004V9.45669C197.167 9.20323 197.167 9.05116 197.157 8.85852L196.792 8.82811V8.69631L197.492 8.45299L197.553 8.49355V9.10187V9.71016C197.553 9.92306 197.553 10.2374 197.553 10.4705L197.867 10.5213V10.5111ZM197.066 7.64192C197.066 7.47971 197.198 7.36816 197.36 7.36816C197.522 7.36816 197.654 7.47971 197.654 7.64192C197.654 7.80414 197.522 7.9258 197.36 7.9258C197.198 7.9258 197.066 7.80414 197.066 7.64192Z" fill="#3F3A39"/>
<path d="M200.634 10.5108V10.6527H199.59V10.5108L199.925 10.4601C199.925 10.237 199.925 9.92273 199.925 9.69968V9.27385C199.925 8.86831 199.813 8.7264 199.55 8.7264C199.347 8.7264 199.154 8.81763 198.921 9.03054V9.69968C198.921 9.91259 198.921 10.2269 198.921 10.4601L199.235 10.5108V10.6527H198.191V10.5108L198.526 10.4601C198.526 10.2269 198.526 9.91259 198.526 9.69968V9.46649C198.526 9.21302 198.526 9.05081 198.515 8.86832L198.161 8.82776V8.69595L198.799 8.45264L198.86 8.4932L198.901 8.86832C199.134 8.61486 199.438 8.45264 199.712 8.45264C200.097 8.45264 200.29 8.69596 200.29 9.27385V9.7098C200.29 9.93285 200.29 10.2471 200.29 10.4702L200.604 10.5209L200.634 10.5108Z" fill="#3F3A39"/>
<path d="M203.007 8.75681H202.551C202.622 8.8582 202.672 9.00012 202.672 9.18261C202.672 9.65912 202.328 9.93285 201.861 9.93285C201.729 9.93285 201.608 9.91257 201.506 9.87202C201.425 9.97341 201.385 10.0647 201.385 10.166C201.385 10.2978 201.446 10.3789 201.679 10.3789H202.277C202.774 10.3789 203.007 10.5919 203.007 10.9568C203.007 11.3522 202.632 11.7375 201.892 11.7375C201.233 11.7375 200.949 11.5043 200.949 11.1799C200.949 10.9873 201.07 10.8352 201.385 10.6831C201.202 10.6223 201.091 10.5108 201.091 10.3283C201.091 10.1863 201.172 10.0343 201.405 9.83149C201.192 9.70983 201.06 9.49691 201.06 9.19276C201.06 8.71625 201.405 8.45264 201.881 8.45264C202.115 8.45264 202.307 8.51346 202.449 8.63512L202.966 8.46279L203.037 8.51347V8.78722L203.007 8.75681ZM201.689 10.7135C201.598 10.7135 201.527 10.7135 201.466 10.7135C201.334 10.8453 201.283 10.967 201.283 11.1191C201.283 11.4232 201.516 11.555 201.871 11.555C202.388 11.555 202.662 11.3522 202.662 11.0785C202.662 10.8757 202.54 10.7135 202.216 10.7135H201.699H201.689ZM202.307 9.17246C202.307 8.83789 202.145 8.59459 201.861 8.59459C201.577 8.59459 201.395 8.8379 201.395 9.18261C201.395 9.52732 201.567 9.77066 201.841 9.77066C202.115 9.77066 202.307 9.51719 202.307 9.16234V9.17246Z" fill="#3F3A39"/>
<path d="M206.454 10.4701C206.353 10.6424 206.221 10.7033 206.069 10.7033C205.846 10.7033 205.704 10.5715 205.663 10.3484C205.42 10.5917 205.258 10.7134 204.984 10.7134C204.65 10.7134 204.386 10.5208 204.386 10.1558C204.386 9.88205 204.538 9.67929 205.136 9.46638C205.278 9.41569 205.471 9.35486 205.653 9.31431V9.17236C205.653 8.72626 205.521 8.6046 205.217 8.6046C205.136 8.6046 205.055 8.61475 204.964 8.64517L204.873 8.95946C204.832 9.1014 204.761 9.17236 204.65 9.17236C204.528 9.17236 204.457 9.11154 204.447 9.00002C204.528 8.65531 204.852 8.44238 205.329 8.44238C205.805 8.44238 206.028 8.65531 206.028 9.22307V10.2065C206.028 10.4194 206.089 10.5005 206.191 10.5005C206.262 10.5005 206.312 10.46 206.373 10.389L206.454 10.4802V10.4701ZM205.653 9.45623C205.491 9.49679 205.339 9.55762 205.238 9.58804C204.842 9.74012 204.771 9.92263 204.771 10.0848C204.771 10.3282 204.933 10.4397 205.136 10.4397C205.298 10.4397 205.4 10.3687 205.653 10.1761V9.45623Z" fill="#3F3A39"/>
<path d="M209.07 10.5108V10.6527H208.025V10.5108L208.36 10.4601C208.36 10.237 208.36 9.92273 208.36 9.69968V9.27385C208.36 8.86831 208.249 8.7264 207.985 8.7264C207.782 8.7264 207.59 8.81763 207.356 9.03054V9.69968C207.356 9.91259 207.356 10.2269 207.356 10.4601L207.671 10.5108V10.6527H206.626V10.5108L206.961 10.4601C206.961 10.2269 206.961 9.91259 206.961 9.69968V9.46649C206.961 9.21302 206.961 9.05081 206.951 8.86832L206.596 8.82776V8.69595L207.235 8.45264L207.296 8.4932L207.336 8.86832C207.569 8.61486 207.873 8.45264 208.147 8.45264C208.532 8.45264 208.725 8.69596 208.725 9.27385V9.7098C208.725 9.93285 208.725 10.2471 208.725 10.4702L209.039 10.5209L209.07 10.5108Z" fill="#3F3A39"/>
<path d="M211.706 10.5103V10.6522L211.006 10.6928L210.986 10.3785C210.824 10.5812 210.631 10.7029 210.347 10.7029C209.79 10.7029 209.415 10.2568 209.415 9.58767C209.415 8.88811 209.82 8.43189 210.378 8.43189C210.591 8.43189 210.783 8.50287 210.976 8.72592V7.65121L210.591 7.6208V7.48902L211.29 7.29639L211.351 7.3268V7.97565L211.341 10.4697L211.706 10.5103ZM210.966 8.9084C210.763 8.72591 210.611 8.66506 210.449 8.66506C210.104 8.66506 209.8 8.92869 209.8 9.57755C209.8 10.2264 210.074 10.4697 210.439 10.4697C210.641 10.4697 210.783 10.4089 210.956 10.2162V8.9084H210.966Z" fill="#3F3A39"/>
<path d="M214.311 10.47C214.2 10.6119 214.017 10.7032 213.784 10.7032C213.46 10.7032 213.267 10.541 213.267 10.176C213.267 10.0644 213.267 9.97321 213.267 9.80085V8.69573H212.882V8.53354L213.287 8.48283L213.409 7.87451H213.673L213.652 8.50312H214.261V8.70588H213.652V10.1658C213.652 10.4091 213.754 10.5004 213.916 10.5004C214.027 10.5004 214.109 10.4599 214.23 10.3686L214.322 10.47H214.311Z" fill="#3F3A39"/>
<path d="M216.613 10.4701C216.512 10.6424 216.38 10.7033 216.228 10.7033C216.005 10.7033 215.863 10.5715 215.822 10.3484C215.579 10.5917 215.417 10.7134 215.143 10.7134C214.808 10.7134 214.545 10.5208 214.545 10.1558C214.545 9.88205 214.707 9.67929 215.295 9.46638C215.437 9.41569 215.629 9.35486 215.812 9.31431V9.17236C215.812 8.72626 215.68 8.6046 215.376 8.6046C215.295 8.6046 215.214 8.61475 215.123 8.64517L215.031 8.95946C214.991 9.1014 214.92 9.17236 214.808 9.17236C214.687 9.17236 214.616 9.11154 214.606 9.00002C214.687 8.65531 215.011 8.44238 215.488 8.44238C215.964 8.44238 216.187 8.65531 216.187 9.22307V10.2065C216.187 10.4194 216.248 10.5005 216.349 10.5005C216.42 10.5005 216.471 10.46 216.532 10.389L216.613 10.4802V10.4701ZM215.812 9.45623C215.65 9.49679 215.498 9.55762 215.396 9.58804C215.001 9.74012 214.93 9.92263 214.93 10.0848C214.93 10.3282 215.092 10.4397 215.295 10.4397C215.457 10.4397 215.559 10.3687 215.812 10.1761V9.45623Z" fill="#3F3A39"/>
<path d="M217.87 10.5104V10.6524H216.755V10.5104L217.12 10.4597C217.12 10.2164 217.12 9.94267 217.12 9.69934V7.66149L216.755 7.63108V7.49927L217.454 7.30664L217.515 7.33705L217.495 7.98593V9.70946C217.495 9.95278 217.495 10.2265 217.495 10.4698L217.86 10.5206L217.87 10.5104Z" fill="#3F3A39"/>
<path d="M220.486 10.5104V10.6524H219.867L219.168 9.49656L218.864 9.80073C218.864 10.0136 218.864 10.2468 218.864 10.4597L219.219 10.5104V10.6524H218.113V10.5104L218.468 10.4597C218.468 10.2164 218.468 9.94267 218.468 9.69934V7.66149L218.103 7.63108V7.49927L218.803 7.30664L218.864 7.33705L218.843 7.98593V9.57769L219.665 8.73617L219.31 8.6652V8.51312H220.354V8.6652L219.928 8.72606L219.411 9.25325L220.172 10.4901L220.466 10.5307L220.486 10.5104Z" fill="#3F3A39"/>
<path d="M221.692 10.5111V10.6531H220.648V10.5111L220.993 10.4604C220.993 10.2272 220.993 9.91295 220.993 9.70004V9.45669C220.993 9.20323 220.993 9.05116 220.983 8.85852L220.618 8.82811V8.69631L221.317 8.45299L221.378 8.49355V9.10187V9.71016C221.378 9.92306 221.378 10.2374 221.378 10.4705L221.692 10.5213V10.5111ZM220.891 7.64192C220.891 7.47971 221.023 7.36816 221.185 7.36816C221.348 7.36816 221.479 7.47971 221.479 7.64192C221.479 7.80414 221.348 7.9258 221.185 7.9258C221.023 7.9258 220.891 7.80414 220.891 7.64192Z" fill="#3F3A39"/>
<path d="M224.46 10.5108V10.6527H223.416V10.5108L223.75 10.4601C223.75 10.237 223.75 9.92273 223.75 9.69968V9.27385C223.75 8.86831 223.639 8.7264 223.375 8.7264C223.172 8.7264 222.98 8.81763 222.746 9.03054V9.69968C222.746 9.91259 222.746 10.2269 222.746 10.4601L223.061 10.5108V10.6527H222.016V10.5108L222.351 10.4601C222.351 10.2269 222.351 9.91259 222.351 9.69968V9.46649C222.351 9.21302 222.351 9.05081 222.341 8.86832L221.986 8.82776V8.69595L222.625 8.45264L222.686 8.4932L222.726 8.86832C222.959 8.61486 223.264 8.45264 223.537 8.45264C223.923 8.45264 224.115 8.69596 224.115 9.27385V9.7098C224.115 9.93285 224.115 10.2471 224.115 10.4702L224.429 10.5209L224.46 10.5108Z" fill="#3F3A39"/>
<path d="M226.832 8.75681H226.376C226.447 8.8582 226.498 9.00012 226.498 9.18261C226.498 9.65912 226.153 9.93285 225.687 9.93285C225.555 9.93285 225.433 9.91257 225.332 9.87202C225.251 9.97341 225.21 10.0647 225.21 10.166C225.21 10.2978 225.271 10.3789 225.504 10.3789H226.102C226.599 10.3789 226.832 10.5919 226.832 10.9568C226.832 11.3522 226.457 11.7375 225.717 11.7375C225.058 11.7375 224.774 11.5043 224.774 11.1799C224.774 10.9873 224.896 10.8352 225.21 10.6831C225.028 10.6223 224.916 10.5108 224.916 10.3283C224.916 10.1863 224.997 10.0343 225.23 9.83149C225.017 9.70983 224.886 9.49691 224.886 9.19276C224.886 8.71625 225.23 8.45264 225.707 8.45264C225.94 8.45264 226.133 8.51346 226.275 8.63512L226.792 8.46279L226.863 8.51347V8.78722L226.832 8.75681ZM225.514 10.7135C225.423 10.7135 225.352 10.7135 225.291 10.7135C225.159 10.8453 225.109 10.967 225.109 11.1191C225.109 11.4232 225.342 11.555 225.697 11.555C226.214 11.555 226.488 11.3522 226.488 11.0785C226.488 10.8757 226.366 10.7135 226.041 10.7135H225.524H225.514ZM226.133 9.17246C226.133 8.83789 225.971 8.59459 225.687 8.59459C225.403 8.59459 225.22 8.8379 225.22 9.18261C225.22 9.52732 225.393 9.77066 225.666 9.77066C225.94 9.77066 226.133 9.51719 226.133 9.16234V9.17246Z" fill="#3F3A39"/>
<path d="M230.28 10.4701C230.178 10.6424 230.046 10.7033 229.894 10.7033C229.671 10.7033 229.529 10.5715 229.489 10.3484C229.246 10.5917 229.083 10.7134 228.81 10.7134C228.475 10.7134 228.211 10.5208 228.211 10.1558C228.211 9.88205 228.364 9.67929 228.962 9.46638C229.104 9.41569 229.296 9.35486 229.479 9.31431V9.17236C229.479 8.72626 229.347 8.6046 229.043 8.6046C228.962 8.6046 228.881 8.61475 228.789 8.64517L228.698 8.95946C228.658 9.1014 228.587 9.17236 228.475 9.17236C228.353 9.17236 228.282 9.11154 228.272 9.00002C228.353 8.65531 228.678 8.44238 229.154 8.44238C229.631 8.44238 229.854 8.65531 229.854 9.22307V10.2065C229.854 10.4194 229.915 10.5005 230.016 10.5005C230.087 10.5005 230.138 10.46 230.199 10.389L230.28 10.4802V10.4701ZM229.479 9.45623C229.317 9.49679 229.164 9.55762 229.063 9.58804C228.668 9.74012 228.597 9.92263 228.597 10.0848C228.597 10.3282 228.759 10.4397 228.962 10.4397C229.124 10.4397 229.225 10.3687 229.479 10.1761V9.45623Z" fill="#3F3A39"/>
<path d="M231.162 8.77674C231.375 8.54355 231.618 8.44215 231.861 8.44215C232.348 8.44215 232.723 8.85783 232.723 9.55739C232.723 10.2569 232.338 10.7132 231.8 10.7132C231.598 10.7132 231.364 10.6422 231.162 10.3888L231.121 10.703L230.442 10.6625V10.5206L230.776 10.4698C230.776 10.2367 230.776 9.92237 230.776 9.70946V7.67164L230.411 7.63108V7.49927L231.101 7.30664L231.162 7.33705V7.98593L231.151 8.78688L231.162 8.77674ZM231.162 10.2265C231.344 10.409 231.537 10.4698 231.709 10.4698C232.034 10.4698 232.317 10.2164 232.317 9.57769C232.317 8.93896 232.074 8.65508 231.719 8.65508C231.577 8.65508 231.405 8.68547 231.151 8.91866V10.2164L231.162 10.2265Z" fill="#3F3A39"/>
<path d="M234.173 8.44238C234.7 8.44238 235.217 8.82765 235.217 9.58804C235.217 10.3484 234.7 10.7134 234.173 10.7134C233.645 10.7134 233.645 8.44238 234.173 8.44238ZM234.801 9.58804C234.801 8.95945 234.568 8.6249 234.173 8.6249C233.777 8.6249 233.544 8.95945 233.544 9.58804C233.544 10.2166 233.767 10.5411 234.173 10.5411C234.578 10.5411 234.801 10.2166 234.801 9.58804Z" fill="#3F3A39"/>
<path d="M237.883 10.5108V10.6426L237.255 10.6831L237.214 10.2776C236.981 10.5615 236.697 10.7034 236.403 10.7034C236.038 10.7034 235.805 10.4905 235.815 9.88217V8.7264L235.501 8.65542V8.52361L236.17 8.45264L236.221 8.50335L236.2 9.14205V9.85175C236.2 10.2573 236.332 10.3992 236.575 10.3992C236.798 10.3992 237.011 10.2978 237.204 10.1052V8.7264L236.89 8.66554V8.53376L237.539 8.46279L237.579 8.51347V9.1522L237.569 10.4601L237.883 10.5108Z" fill="#3F3A39"/>
<path d="M239.506 10.47C239.394 10.6119 239.212 10.7032 238.978 10.7032C238.654 10.7032 238.461 10.541 238.461 10.176C238.461 10.0644 238.461 9.97321 238.461 9.80085V8.69573H238.076V8.53354L238.482 8.48283L238.603 7.87451H238.867L238.847 8.50312H239.455V8.70588H238.847V10.1658C238.847 10.4091 238.948 10.5004 239.11 10.5004C239.222 10.5004 239.303 10.4599 239.425 10.3686L239.516 10.47H239.506Z" fill="#3F3A39"/>
<path d="M242.05 10.47C241.939 10.6119 241.756 10.7032 241.523 10.7032C241.199 10.7032 241.006 10.541 241.006 10.176C241.006 10.0644 241.006 9.97321 241.006 9.80085V8.69573H240.621V8.53354L241.026 8.48283L241.148 7.87451H241.412L241.391 8.50312H242V8.70588H241.391V10.1658C241.391 10.4091 241.493 10.5004 241.655 10.5004C241.766 10.5004 241.848 10.4599 241.969 10.3686L242.061 10.47H242.05Z" fill="#3F3A39"/>
<path d="M244.656 10.5104V10.6524H243.612V10.5104L243.946 10.4597C243.946 10.2367 243.946 9.92239 243.946 9.69934V9.27351C243.946 8.85783 243.824 8.72606 243.561 8.72606C243.358 8.72606 243.155 8.79701 242.912 9.0302V9.69934C242.912 9.91225 242.912 10.2265 242.912 10.4597L243.226 10.5104V10.6524H242.182V10.5104L242.517 10.4597C242.517 10.2265 242.517 9.91225 242.517 9.69934V7.66149L242.152 7.63108V7.49927L242.841 7.30664L242.902 7.33705V7.98593L242.892 8.87813C243.115 8.62466 243.429 8.4523 243.723 8.4523C244.108 8.4523 244.311 8.68549 244.311 9.28366V9.70946C244.311 9.93251 244.311 10.2468 244.311 10.4698L244.625 10.5206L244.656 10.5104Z" fill="#3F3A39"/>
<path d="M245.396 9.54751C245.396 10.1457 245.71 10.4498 246.146 10.4498C246.44 10.4498 246.623 10.318 246.785 10.1254L246.876 10.1862C246.714 10.5005 246.42 10.7033 246.025 10.7033C245.416 10.7033 245.001 10.2977 245.001 9.58804C245.001 8.87834 245.477 8.44238 246.035 8.44238C246.522 8.44238 246.886 8.77696 246.886 9.30416C246.886 9.40555 246.876 9.49679 246.856 9.55762H245.396V9.54751ZM246.278 9.38529C246.481 9.38529 246.522 9.2839 246.522 9.13182C246.522 8.84795 246.319 8.6046 246.025 8.6046C245.751 8.6046 245.457 8.8378 245.406 9.37514H246.278V9.38529Z" fill="#3F3A39"/>
<path d="M249.015 8.77674C249.228 8.54355 249.472 8.44215 249.715 8.44215C250.202 8.44215 250.577 8.85783 250.577 9.55739C250.577 10.2569 250.191 10.7132 249.654 10.7132C249.451 10.7132 249.218 10.6422 249.015 10.3888L248.975 10.703L248.296 10.6625V10.5206L248.63 10.4698C248.63 10.2367 248.63 9.92237 248.63 9.70946V7.67164L248.265 7.63108V7.49927L248.955 7.30664L249.015 7.33705V7.98593L249.005 8.78688L249.015 8.77674ZM249.015 10.2265C249.198 10.409 249.391 10.4698 249.563 10.4698C249.887 10.4698 250.171 10.2164 250.171 9.57769C250.171 8.93896 249.928 8.65508 249.573 8.65508C249.431 8.65508 249.259 8.68547 249.005 8.91866V10.2164L249.015 10.2265Z" fill="#3F3A39"/>
<path d="M251.378 9.54751C251.378 10.1457 251.692 10.4498 252.128 10.4498C252.422 10.4498 252.605 10.318 252.767 10.1254L252.858 10.1862C252.696 10.5005 252.402 10.7033 252.006 10.7033C251.398 10.7033 250.982 10.2977 250.982 9.58804C250.982 8.87834 251.459 8.44238 252.017 8.44238C252.503 8.44238 252.868 8.77696 252.868 9.30416C252.868 9.40555 252.858 9.49679 252.838 9.55762H251.378V9.54751ZM252.26 9.38529C252.463 9.38529 252.503 9.2839 252.503 9.13182C252.503 8.84795 252.3 8.6046 252.006 8.6046C251.733 8.6046 251.439 8.8378 251.388 9.37514H252.26V9.38529Z" fill="#3F3A39"/>
<path d="M255.322 10.4701C255.22 10.6424 255.088 10.7033 254.936 10.7033C254.713 10.7033 254.571 10.5715 254.531 10.3484C254.288 10.5917 254.125 10.7134 253.852 10.7134C253.517 10.7134 253.253 10.5208 253.253 10.1558C253.253 9.88205 253.416 9.67929 254.004 9.46638C254.146 9.41569 254.338 9.35486 254.521 9.31431V9.17236C254.521 8.72626 254.389 8.6046 254.085 8.6046C254.004 8.6046 253.923 8.61475 253.831 8.64517L253.74 8.95946C253.7 9.1014 253.629 9.17236 253.517 9.17236C253.395 9.17236 253.324 9.11154 253.314 9.00002C253.395 8.65531 253.72 8.44238 254.196 8.44238C254.673 8.44238 254.896 8.65531 254.896 9.22307V10.2065C254.896 10.4194 254.957 10.5005 255.058 10.5005C255.129 10.5005 255.18 10.46 255.241 10.389L255.322 10.4802V10.4701ZM254.521 9.45623C254.359 9.49679 254.206 9.55762 254.105 9.58804C253.71 9.74012 253.639 9.92263 253.639 10.0848C253.639 10.3282 253.801 10.4397 254.004 10.4397C254.166 10.4397 254.267 10.3687 254.521 10.1761V9.45623Z" fill="#3F3A39"/>
<path d="M257.856 10.5108V10.6426L257.228 10.6831L257.187 10.2776C256.954 10.5615 256.67 10.7034 256.376 10.7034C256.011 10.7034 255.778 10.4905 255.788 9.88217V8.7264L255.474 8.65542V8.52361L256.143 8.45264L256.183 8.50335L256.163 9.14205V9.85175C256.163 10.2573 256.295 10.3992 256.538 10.3992C256.761 10.3992 256.974 10.2978 257.167 10.1052V8.7264L256.852 8.66554V8.53376L257.501 8.46279L257.542 8.51347V9.1522L257.532 10.4601L257.846 10.5108H257.856Z" fill="#3F3A39"/>
<path d="M259.478 10.47C259.367 10.6119 259.184 10.7032 258.951 10.7032C258.627 10.7032 258.434 10.541 258.434 10.176C258.434 10.0644 258.434 9.97321 258.434 9.80085V8.69573H258.049V8.53354L258.454 8.48283L258.576 7.87451H258.84L258.819 8.50312H259.428V8.70588H258.819V10.1658C258.819 10.4091 258.921 10.5004 259.083 10.5004C259.194 10.5004 259.276 10.4599 259.397 10.3686L259.488 10.47H259.478Z" fill="#3F3A39"/>
<path d="M261.82 8.64562L261.567 8.68618L260.806 10.6936C260.512 11.4742 260.228 11.7784 259.894 11.7784C259.681 11.7784 259.488 11.6669 259.488 11.4945C259.519 11.3627 259.651 11.312 259.782 11.312C259.914 11.312 259.995 11.3627 260.117 11.4743L260.147 11.5047C260.35 11.3425 260.482 11.0991 260.583 10.8254L260.604 10.7747L259.762 8.66588L259.509 8.63547V8.49355H260.583V8.63547L260.188 8.67603L260.786 10.2881L261.354 8.67603L260.948 8.62535V8.4834H261.82V8.62535V8.64562Z" fill="#3F3A39"/>
<path d="M263.078 9.57778C263.078 8.82754 263.585 8.43213 264.112 8.43213C264.639 8.43213 265.156 8.8174 265.156 9.57778C265.156 10.3382 264.639 10.7031 264.112 10.7031C263.585 10.7031 263.078 10.3179 263.078 9.57778ZM264.74 9.57778C264.74 8.9492 264.507 8.61461 264.112 8.61461C263.716 8.61461 263.483 8.9492 263.483 9.57778C263.483 10.2064 263.706 10.5308 264.112 10.5308C264.517 10.5308 264.74 10.2064 264.74 9.57778Z" fill="#3F3A39"/>
<path d="M265.896 8.48299C265.937 7.99634 266.028 7.72262 266.22 7.51985C266.413 7.30694 266.646 7.24609 266.849 7.24609C267.052 7.24609 267.234 7.31708 267.275 7.48944C267.275 7.60096 267.173 7.69219 267.021 7.69219C266.9 7.69219 266.798 7.6415 266.697 7.54012L266.575 7.42858C266.504 7.46913 266.454 7.52998 266.413 7.60095C266.312 7.7733 266.241 8.03692 266.261 8.50329H266.89V8.70604H266.271V9.69962C266.271 9.95309 266.271 10.2065 266.271 10.46L266.687 10.5107V10.6526H265.521V10.5107L265.886 10.46C265.886 10.2065 265.896 9.95309 265.896 9.69962V8.70604H265.511V8.54382L265.896 8.49314V8.48299Z" fill="#3F3A39"/>
<path d="M270.529 10.5103V10.6522L269.83 10.6928L269.809 10.3785C269.647 10.5812 269.455 10.7029 269.171 10.7029C268.613 10.7029 268.238 10.2568 268.238 9.58767C268.238 8.88811 268.644 8.43189 269.201 8.43189C269.414 8.43189 269.607 8.50287 269.799 8.72592V7.65121L269.414 7.6208V7.48902L270.114 7.29639L270.174 7.3268V7.97565L270.164 10.4697L270.529 10.5103ZM269.789 8.9084C269.586 8.72591 269.434 8.66506 269.272 8.66506C268.927 8.66506 268.623 8.92869 268.623 9.57755C268.623 10.2264 268.897 10.4697 269.262 10.4697C269.465 10.4697 269.607 10.4089 269.779 10.2162V8.9084H269.789Z" fill="#3F3A39"/>
<path d="M272.851 10.4701C272.75 10.6424 272.618 10.7033 272.466 10.7033C272.243 10.7033 272.101 10.5715 272.06 10.3484C271.817 10.5917 271.655 10.7134 271.381 10.7134C271.046 10.7134 270.783 10.5208 270.783 10.1558C270.783 9.88205 270.945 9.67929 271.533 9.46638C271.675 9.41569 271.868 9.35486 272.05 9.31431V9.17236C272.05 8.72626 271.918 8.6046 271.614 8.6046C271.533 8.6046 271.452 8.61475 271.361 8.64517L271.269 8.95946C271.229 9.1014 271.158 9.17236 271.046 9.17236C270.925 9.17236 270.854 9.11154 270.844 9.00002C270.925 8.65531 271.249 8.44238 271.726 8.44238C272.202 8.44238 272.425 8.65531 272.425 9.22307V10.2065C272.425 10.4194 272.486 10.5005 272.587 10.5005C272.658 10.5005 272.709 10.46 272.77 10.389L272.851 10.4802V10.4701ZM272.05 9.45623C271.888 9.49679 271.736 9.55762 271.634 9.58804C271.239 9.74012 271.168 9.92263 271.168 10.0848C271.168 10.3282 271.33 10.4397 271.533 10.4397C271.695 10.4397 271.797 10.3687 272.05 10.1761V9.45623Z" fill="#3F3A39"/>
<path d="M274.078 10.5111V10.6531H273.034V10.5111L273.378 10.4604C273.378 10.2272 273.378 9.91295 273.378 9.70004V9.45669C273.378 9.20323 273.378 9.05116 273.368 8.85852L273.003 8.82811V8.69631L273.703 8.45299L273.764 8.49355V9.10187V9.71016C273.764 9.92306 273.764 10.2374 273.764 10.4705L274.078 10.5213V10.5111ZM273.277 7.64192C273.277 7.47971 273.409 7.36816 273.571 7.36816C273.733 7.36816 273.865 7.47971 273.865 7.64192C273.865 7.80414 273.733 7.9258 273.571 7.9258C273.409 7.9258 273.277 7.80414 273.277 7.64192Z" fill="#3F3A39"/>
<path d="M275.477 10.5104V10.6524H274.362V10.5104L274.727 10.4597C274.727 10.2164 274.727 9.94267 274.727 9.69934V7.66149L274.362 7.63108V7.49927L275.061 7.30664L275.122 7.33705L275.102 7.98593V9.70946C275.102 9.95278 275.102 10.2265 275.102 10.4698L275.467 10.5206L275.477 10.5104Z" fill="#3F3A39"/>
<path d="M277.88 8.64562L277.626 8.68618L276.866 10.6936C276.572 11.4742 276.288 11.7784 275.953 11.7784C275.741 11.7784 275.548 11.6669 275.548 11.4945C275.578 11.3627 275.71 11.312 275.842 11.312C275.974 11.312 276.055 11.3627 276.176 11.4743L276.207 11.5047C276.41 11.3425 276.541 11.0991 276.643 10.8254L276.663 10.7747L275.822 8.66588L275.568 8.63547V8.49355H276.643V8.63547L276.247 8.67603L276.846 10.2881L277.413 8.67603L277.008 8.62535V8.4834H277.88V8.62535V8.64562Z" fill="#3F3A39"/>
<path d="M280.171 10.5104V10.6524H279.056V10.5104L279.421 10.4597C279.421 10.2164 279.421 9.94267 279.421 9.69934V7.66149L279.056 7.63108V7.49927L279.755 7.30664L279.816 7.33705L279.796 7.98593V9.70946C279.796 9.95278 279.796 10.2265 279.796 10.4698L280.161 10.5206L280.171 10.5104Z" fill="#3F3A39"/>
<path d="M281.499 10.5111V10.6531H280.455V10.5111L280.8 10.4604C280.8 10.2272 280.8 9.91295 280.8 9.70004V9.45669C280.8 9.20323 280.8 9.05116 280.79 8.85852L280.425 8.82811V8.69631L281.124 8.45299L281.185 8.49355V9.10187V9.71016C281.185 9.92306 281.185 10.2374 281.185 10.4705L281.499 10.5213V10.5111ZM280.698 7.64192C280.698 7.47971 280.83 7.36816 280.992 7.36816C281.155 7.36816 281.286 7.47971 281.286 7.64192C281.286 7.80414 281.155 7.9258 280.992 7.9258C280.83 7.9258 280.698 7.80414 280.698 7.64192Z" fill="#3F3A39"/>
<path d="M282.188 8.48299C282.229 7.99634 282.32 7.72262 282.513 7.51985C282.706 7.30694 282.939 7.24609 283.142 7.24609C283.344 7.24609 283.527 7.31708 283.567 7.48944C283.567 7.60096 283.466 7.69219 283.314 7.69219C283.192 7.69219 283.091 7.6415 282.989 7.54012L282.868 7.42858C282.797 7.46913 282.746 7.52998 282.706 7.60095C282.604 7.7733 282.533 8.03692 282.553 8.50329H283.182V8.70604H282.564V9.69962C282.564 9.95309 282.564 10.2065 282.564 10.46L282.979 10.5107V10.6526H281.813V10.5107L282.178 10.46C282.178 10.2065 282.188 9.95309 282.188 9.69962V8.70604H281.803V8.54382L282.188 8.49314V8.48299Z" fill="#3F3A39"/>
<path d="M283.8 9.54751C283.8 10.1457 284.115 10.4498 284.551 10.4498C284.845 10.4498 285.027 10.318 285.189 10.1254L285.281 10.1862C285.118 10.5005 284.824 10.7033 284.429 10.7033C283.821 10.7033 283.405 10.2977 283.405 9.58804C283.405 8.87834 283.882 8.44238 284.439 8.44238C284.926 8.44238 285.291 8.77696 285.291 9.30416C285.291 9.40555 285.281 9.49679 285.26 9.55762H283.8V9.54751ZM284.682 9.38529C284.885 9.38529 284.926 9.2839 284.926 9.13182C284.926 8.84795 284.723 8.6046 284.429 8.6046C284.155 8.6046 283.861 8.8378 283.811 9.37514H284.682V9.38529Z" fill="#3F3A39"/>
<path d="M285.747 10.3986C285.747 10.2263 285.879 10.0845 286.051 10.0845C286.224 10.0845 286.365 10.2263 286.365 10.3986C286.365 10.5608 286.234 10.7026 286.051 10.7026C285.869 10.7026 285.747 10.5608 285.747 10.3986Z" fill="#3F3A39"/>
</g>
<path d="M9.34114 10.7339C8.31715 10.4297 7.50607 10.0039 6.9079 9.46657C6.26918 8.88868 5.79267 8.11814 5.48851 7.14485H4.36314V9.35506C5.1438 9.2334 5.83322 9.12186 6.45167 9.02048L6.47194 9.19285C5.16408 9.65922 3.88663 10.085 2.63959 10.4703C2.57876 10.6122 2.50779 10.6933 2.40641 10.7136L1.8792 9.69977C2.0617 9.68963 2.44696 9.63892 3.02486 9.55782C3.2479 9.51726 3.42026 9.497 3.54192 9.47672V7.13473H2.01101C1.69671 8.61495 1.11882 9.80114 0.267183 10.6933L0.125244 10.592C0.642308 9.68964 0.997155 8.59468 1.19993 7.32736C1.33173 6.42504 1.40269 5.27938 1.40269 3.87013V2.32906C1.40269 1.70047 1.37228 1.17329 1.30131 0.727192L2.41654 1.2037H8.1448L8.34757 0.95024C8.34757 0.95024 8.38812 0.909699 8.41854 0.869145C8.51992 0.747483 8.59089 0.696777 8.64158 0.696777C8.71255 0.696777 8.88491 0.808308 9.15865 1.02122C9.43239 1.23413 9.56419 1.38621 9.56419 1.46731C9.49322 1.5687 9.34114 1.63967 9.11809 1.69036V2.3088C9.11809 2.40004 9.11809 2.53184 9.12823 2.68391C9.13837 3.02862 9.15865 3.29224 9.16879 3.4646C9.13837 3.52543 9.03699 3.59638 8.86463 3.66735C8.69228 3.73832 8.53006 3.76874 8.38812 3.76874H8.25632V3.38347H2.26447V3.8904C2.26447 4.35677 2.26447 4.71163 2.24419 4.94481H3.99815C3.99815 4.36692 3.96774 3.90055 3.9069 3.55584C4.46452 3.70792 4.81937 3.82957 4.95117 3.92081C5.05255 3.98164 5.05255 4.05261 4.96131 4.1033L4.79909 4.20469V4.94481H6.58347C6.58347 4.36692 6.55305 3.91067 6.49222 3.56596C7.04984 3.71804 7.40469 3.83971 7.53649 3.93096C7.63787 4.00193 7.64801 4.06274 7.54663 4.13371L7.38441 4.2351V4.95496H8.28674L8.50978 4.62037C8.50978 4.62037 8.55034 4.56967 8.59089 4.51898C8.70242 4.35676 8.78352 4.27567 8.82408 4.27567C8.89505 4.27567 9.0674 4.38719 9.331 4.62037C9.5946 4.85356 9.7264 5.00563 9.7264 5.08673C9.69599 5.2084 9.60474 5.2591 9.44253 5.2591H7.40469V6.84071H8.55034L8.77339 6.496C8.77339 6.496 8.8038 6.44531 8.82408 6.40476C8.94574 6.2324 9.02685 6.14115 9.07754 6.14115C9.14851 6.14115 9.32086 6.26281 9.58446 6.496C9.84807 6.73932 9.97987 6.8914 9.97987 6.97251C9.95959 7.08403 9.86834 7.13473 9.70613 7.13473H5.73183C5.9853 7.68221 6.35028 8.14856 6.84707 8.54397C7.51621 8.0776 8.04341 7.59096 8.43881 7.10432C8.87477 7.45916 9.13837 7.69234 9.22962 7.82414C9.30059 7.92553 9.28031 7.97621 9.15865 7.97621H8.95588C8.4084 8.22968 7.76967 8.473 7.04984 8.70619C7.78995 9.23339 8.78352 9.59837 10.0407 9.81128V9.94308C9.67571 10.0242 9.45266 10.2777 9.34114 10.7136V10.7339ZM2.0617 6.84071H4.00829V5.2591H2.27461L2.25433 5.15771C2.21377 5.76602 2.15294 6.32363 2.0617 6.83056V6.84071ZM2.27461 3.05903H8.25632V1.53826H2.26447V3.05903H2.27461ZM4.80923 6.84071H6.59361V5.2591H4.80923V6.84071Z" fill="#251714"/>
<path d="M14.2585 10.4497L13.9746 9.89206C14.3801 9.93262 14.8668 9.96303 15.4447 9.9833H16.2963V5.62373C16.2963 4.70113 16.2456 3.94076 16.1544 3.36287L17.2392 3.81908H20.6457L20.8384 3.51494C20.8384 3.51494 20.8891 3.44397 20.9195 3.39328C21.0107 3.26148 21.0716 3.1905 21.1223 3.1905C21.1932 3.1905 21.3757 3.31218 21.6697 3.5555C21.9637 3.79882 22.1158 3.97116 22.1158 4.04213C22.0246 4.15365 21.8624 4.22464 21.6292 4.25506V9.9833H22.278L22.5315 9.58789C22.5315 9.58789 22.5721 9.53722 22.5923 9.48653C22.714 9.28376 22.8052 9.1925 22.8559 9.1925C22.9269 9.1925 23.1094 9.3243 23.4034 9.59804C23.6974 9.87178 23.8495 10.0441 23.8495 10.1252C23.8292 10.2469 23.738 10.2976 23.5758 10.2976H15.9313C15.4041 10.2976 14.8567 10.3584 14.2788 10.4497H14.2585ZM14.5424 4.1131C14.37 4.1131 14.2483 4.03199 14.1774 3.87991C14.076 3.62645 14.1774 3.40342 14.4613 3.20065C14.7046 3.05871 14.9074 2.83565 15.0594 2.52135C15.2318 2.18678 15.3129 1.8218 15.2926 1.44667H15.465C15.5359 1.64944 15.5866 1.86235 15.6069 2.07526H18.4254C18.4254 1.44667 18.395 0.919469 18.324 0.493652C18.9425 0.64573 19.3277 0.767408 19.4798 0.858654C19.5913 0.929624 19.5913 0.990446 19.4798 1.07155L19.3075 1.19321V2.07526H22.4707L22.6937 1.82179C22.6937 1.82179 22.7343 1.7711 22.7748 1.73055C22.8762 1.60889 22.9472 1.55821 22.9979 1.55821C23.0587 1.55821 23.2209 1.69002 23.4744 1.94348C23.7278 2.19694 23.8596 2.3693 23.8596 2.45041C23.7988 2.51124 23.667 2.55179 23.4642 2.57206C23.0181 3.03843 22.5619 3.43383 22.0955 3.73798L21.9637 3.64674C22.1564 3.28176 22.3287 2.86607 22.4909 2.3997H15.6373C15.6373 2.76468 15.5866 3.08911 15.465 3.38313C15.3636 3.62645 15.2216 3.80897 15.0493 3.94077C14.8972 4.06243 14.7249 4.11309 14.5525 4.10296L14.5424 4.1131ZM17.1175 5.82651H20.7573V4.12325H17.1175V5.82651ZM17.1175 7.85421H20.7573V6.1408H17.1175V7.85421ZM17.1175 9.97316H20.7573V8.15836H17.1175V9.97316Z" fill="#251714"/>
<path d="M27.9252 10.734L27.8542 10.5211C29.1723 10.1561 30.1456 9.73027 30.7741 9.2639C31.352 8.83808 31.7272 8.30072 31.9096 7.65185H29.8008C29.2736 7.65185 28.7262 7.71271 28.1483 7.80396L27.8542 7.24632C28.2598 7.28687 28.7464 7.31729 29.3243 7.33756H31.9908C32.082 6.91175 32.1023 6.45554 32.0313 5.96889C32.6599 6.02972 33.0654 6.09053 33.2277 6.14123C33.3493 6.18178 33.3493 6.24263 33.2378 6.31359L33.0654 6.43525C33.0249 6.83065 32.9843 7.13481 32.9438 7.32744H36.0563L36.3098 6.96244C36.3098 6.96244 36.3605 6.89147 36.4111 6.83064C36.5328 6.67856 36.6139 6.59747 36.6545 6.59747C36.7254 6.59747 36.9181 6.71913 37.2121 6.97259C37.5061 7.22605 37.6582 7.38826 37.6582 7.46937C37.6278 7.59103 37.5365 7.64174 37.3844 7.64174H33.2783C33.6636 8.28046 34.2516 8.77724 35.0424 9.12195C35.7319 9.41596 36.6342 9.61874 37.7494 9.73026V9.85192C37.3743 9.95331 37.1614 10.227 37.0803 10.6731C36.0056 10.4501 35.1641 10.1155 34.5457 9.66944C33.8664 9.18279 33.3696 8.51363 33.0452 7.65185H32.8931C32.6903 8.42238 32.2746 9.03071 31.6258 9.4768C30.8654 10.004 29.6285 10.4197 27.9354 10.734H27.9252ZM28.3916 6.01957L28.0976 5.45182C28.5031 5.49237 28.9898 5.52278 29.5677 5.54306H32.2949V4.23518H31.0479C30.5207 4.23518 29.9732 4.29601 29.3953 4.38726L29.1216 3.8195C29.5271 3.86006 30.0137 3.8905 30.5916 3.91078H32.305V2.66373H30.5105C29.9833 2.66373 29.4359 2.72455 28.858 2.8158L28.5842 2.25819C28.9898 2.29875 29.4764 2.32916 30.0543 2.34944H33.5724C33.9069 1.69044 34.1198 1.0517 34.2314 0.402832C34.8295 0.615741 35.2047 0.76784 35.3567 0.869225C35.4683 0.950333 35.4581 1.01115 35.3466 1.04156L35.1438 1.10239C34.8498 1.46738 34.4341 1.87292 33.8867 2.33929H35.6203L35.8738 1.98444C35.8738 1.98444 35.9245 1.92362 35.9549 1.87293C36.0766 1.70057 36.1678 1.61946 36.2084 1.61946C36.2793 1.61946 36.4618 1.74112 36.7457 1.99458C37.0296 2.23791 37.1715 2.40014 37.1715 2.48124C37.1715 2.60291 37.0701 2.65358 36.8978 2.65358H33.1871V3.90063H35.1337L35.3669 3.56604C35.3669 3.56604 35.4176 3.49507 35.4683 3.44438C35.5696 3.2923 35.6406 3.22133 35.6913 3.22133C35.7623 3.22133 35.9346 3.33285 36.2185 3.56604C36.4922 3.79922 36.6342 3.95132 36.6342 4.03243C36.6038 4.15409 36.5125 4.20477 36.3604 4.20477H33.2074V5.51264H35.9448L36.1982 5.15779C36.1982 5.15779 36.2489 5.09697 36.2793 5.04628C36.401 4.87393 36.4923 4.79282 36.5328 4.79282C36.6038 4.79282 36.7863 4.91447 37.0803 5.15779C37.3743 5.40111 37.5162 5.56334 37.5162 5.64445C37.4858 5.76611 37.3946 5.81679 37.2324 5.81679H30.0949C29.5677 5.81679 29.0202 5.87764 28.4423 5.96889L28.3916 6.01957ZM31.0884 2.20748C31.058 1.95402 30.9566 1.6803 30.7944 1.366C30.6423 1.1024 30.47 0.869203 30.2774 0.656295L30.3787 0.5752C30.9059 0.696862 31.2912 0.879343 31.5649 1.13281C31.788 1.33558 31.8995 1.55863 31.8995 1.80195C31.8995 2.01486 31.8184 2.16693 31.646 2.26831C31.4737 2.35956 31.3013 2.3393 31.1087 2.18722L31.0884 2.20748Z" fill="#251714"/>
<path d="M41.9265 6.27289C41.7745 6.18165 41.7136 6.05998 41.7136 5.88762C41.7238 5.69499 41.8454 5.54291 42.0685 5.41111C42.2307 5.31987 42.3726 5.16781 42.4841 4.9549C42.6261 4.70144 42.6971 4.42768 42.6971 4.11339H42.8491C42.9201 4.28574 42.9607 4.46823 42.9809 4.65073H43.2648L43.133 0.950179L43.9644 1.16308C44.3294 0.940032 44.6436 0.696706 44.9072 0.433105C45.5156 0.950169 45.7082 1.21377 45.5156 1.19349L45.3635 1.17323C44.9275 1.3253 44.4612 1.43682 43.9542 1.51793L43.9846 2.3493H44.522L44.8768 1.89305C45.0897 2.09582 45.3027 2.28845 45.5156 2.49122C45.4851 2.61288 45.3939 2.66359 45.252 2.66359H43.9948L44.0151 3.51522H44.5524L44.9174 3.03871C44.9884 3.10968 45.0695 3.1705 45.1506 3.25161C45.3229 3.40369 45.4649 3.54565 45.5663 3.65717C45.546 3.7687 45.4547 3.81936 45.3026 3.81936H44.0252L44.0556 4.65073H49.1756L49.2161 3.81936H48.8511C48.6484 3.81936 48.4354 3.88022 48.2327 3.97146L47.9488 3.42398C48.1921 3.46453 48.4861 3.49494 48.8309 3.51522H49.2364L49.2871 2.66359H48.9018C48.6991 2.66359 48.4861 2.72441 48.2631 2.81566L47.9792 2.25805C48.2327 2.29861 48.5267 2.32902 48.8815 2.3493H49.3074L49.3479 1.50778H48.9221C48.6788 1.50778 48.4253 1.56864 48.1718 1.65989L47.8778 1.0921C48.1313 1.13266 48.4557 1.1631 48.8309 1.18338H49.2769L49.4493 0.919765C49.4493 0.919765 49.4899 0.869076 49.5203 0.828522C49.6014 0.70686 49.6622 0.656154 49.7129 0.656154C49.7737 0.656154 49.9258 0.767695 50.159 0.990742C50.3922 1.21379 50.5037 1.36585 50.5037 1.44696C50.4429 1.51793 50.3313 1.55848 50.1691 1.57876L49.9664 4.65073H50.1387L50.3618 4.38711C50.3618 4.38711 50.3922 4.34658 50.4125 4.31617C50.5341 4.18437 50.6152 4.11339 50.6659 4.11339C50.7369 4.11339 50.889 4.24519 51.1424 4.49865C51.3959 4.75212 51.5277 4.92447 51.5277 5.00558C51.4669 5.07655 51.3351 5.1171 51.1323 5.12724C50.6558 5.52264 50.2401 5.81665 49.8954 6.00928L49.7636 5.93833C49.8751 5.68487 50.0069 5.3503 50.1489 4.9549H43.0215C43.062 5.59362 42.8694 6.01942 42.474 6.23233C42.2712 6.33371 42.0887 6.33372 41.9367 6.24248L41.9265 6.27289ZM45.8096 10.744C45.769 10.45 45.6879 10.2371 45.5561 10.1154C45.3838 9.96331 45.0593 9.85177 44.6031 9.7808V9.61858C45.0695 9.63886 45.546 9.66929 46.0022 9.69971C46.0935 9.69971 46.1543 9.68956 46.1847 9.65915C46.2151 9.62873 46.2354 9.57804 46.2354 9.49693V8.14852H43.7819C43.2547 8.14852 42.7072 8.20935 42.1293 8.30059L41.8454 7.73284C42.251 7.77339 42.7376 7.8038 43.3155 7.82408H46.2354C46.2354 7.44896 46.2151 7.15495 46.1847 6.94204L47.0161 7.06369C47.3202 6.86092 47.6548 6.59732 48.0299 6.27289H45.6879C45.1607 6.27289 44.6132 6.33372 44.0353 6.42496L43.7515 5.87748C44.157 5.91803 44.6436 5.94847 45.2215 5.96875H48.2428L48.4861 5.70514C48.4861 5.70514 48.5368 5.65445 48.5774 5.6139C48.6889 5.49223 48.77 5.44153 48.8106 5.44153C48.8714 5.44153 49.0336 5.5632 49.2871 5.79638C49.5405 6.03971 49.6723 6.19178 49.6723 6.27289C49.5912 6.34386 49.4493 6.38441 49.2465 6.39455C48.6686 6.66829 48.0603 6.90147 47.4317 7.11437H47.4419C47.4115 7.25631 47.2898 7.34758 47.087 7.38813V7.83423H49.7839L50.0272 7.45911C50.0272 7.45911 50.0677 7.40841 50.0982 7.35772C50.2198 7.17523 50.3111 7.08396 50.3618 7.08396C50.4327 7.08396 50.6152 7.21577 50.9092 7.46923C51.2033 7.72269 51.3452 7.89504 51.3452 7.97615C51.3148 8.09781 51.2235 8.14852 51.0613 8.14852H47.0972V9.55776C47.0972 9.94302 47.0262 10.2168 46.8843 10.379C46.7018 10.5817 46.3469 10.7034 45.8299 10.7541L45.8096 10.744ZM45.5764 4.57975L45.4649 4.41756C45.8501 4.17424 46.1948 3.89035 46.499 3.55578C46.2658 3.35301 46.0326 3.1908 45.7994 3.04886L45.911 2.93732C46.2354 2.99815 46.5294 3.08941 46.8032 3.21108C46.9856 3.00831 47.1276 2.75483 47.229 2.47095C47.9285 2.8258 48.1516 3.0083 47.8981 3.01844H47.7258C47.6142 3.18066 47.4723 3.34286 47.2797 3.51522C47.4622 3.67743 47.5737 3.8498 47.6142 4.03229C47.6548 4.19451 47.6142 4.31616 47.5331 4.39726C47.452 4.47837 47.3202 4.47838 47.1783 4.40741C47.087 4.21478 46.9654 4.04242 46.8133 3.89034C46.4382 4.15394 46.0225 4.38714 45.5663 4.56963L45.5764 4.57975ZM45.6271 2.60276L45.5054 2.44054C45.8096 2.21749 46.1036 1.95388 46.3875 1.63959C46.205 1.48751 46.0022 1.34557 45.769 1.22391L45.8704 1.0921C46.2151 1.15293 46.4889 1.22392 46.6713 1.30503C46.8741 1.04143 47.0059 0.798085 47.0668 0.585177C47.746 0.950163 47.9691 1.1428 47.7258 1.16308H47.5534C47.4419 1.30502 47.3101 1.44697 47.1681 1.58891C47.3506 1.73085 47.4622 1.88291 47.5128 2.04512C47.5534 2.18706 47.5433 2.2986 47.4622 2.37971C47.381 2.46082 47.2695 2.47096 47.1276 2.41013C47.0363 2.24791 46.9045 2.09584 46.7423 1.94376C46.4077 2.19723 46.0428 2.42025 45.6271 2.61288V2.60276Z" fill="#251714"/>
<path d="M55.0759 10.8552V10.5815L59.6383 6.01916L55.0759 1.45683V1.18311H55.3497L59.912 5.74543L64.4743 1.18311H64.7481V1.45683L60.1857 6.01916L64.7481 10.5815V10.8552H64.4743L59.912 6.29289L55.3497 10.8552H55.0759Z" fill="#251714"/>
<path d="M75.9004 10.886C75.9004 10.6629 75.8497 10.5109 75.7483 10.4196C75.6064 10.3081 75.3023 10.2168 74.846 10.1357V9.94309C75.4543 10.0141 75.8599 10.0445 76.0829 10.0445C76.2451 10.0445 76.3668 10.0039 76.4378 9.92283C76.5696 9.78089 76.6608 9.27395 76.7217 8.42232C76.7825 7.66193 76.8129 6.47573 76.8332 4.84343H72.646C72.5243 5.02592 72.3317 5.28951 72.0579 5.62408C72.0478 5.64436 72.0275 5.66465 72.0275 5.66465L72.5953 5.92826H73.5584C73.5584 5.52272 73.5382 5.17801 73.4976 4.88399C73.9843 5.03607 74.2884 5.15774 74.4101 5.23885C74.5013 5.30982 74.5115 5.37065 74.4202 5.43148L74.2783 5.52272V5.93841H75.1806L75.3327 5.75589C75.3327 5.75589 75.353 5.72549 75.3732 5.70521C75.4543 5.61396 75.5253 5.56325 75.576 5.56325C75.647 5.56325 75.7889 5.64438 75.9815 5.8066C76.1843 5.96882 76.2756 6.09046 76.2756 6.17157C76.2147 6.24254 76.1032 6.30338 75.9308 6.33379V6.84072C75.9308 6.91169 75.9308 7.01308 75.941 7.13474C75.9511 7.41862 75.9714 7.63153 75.9815 7.77347C75.941 7.8343 75.8599 7.89513 75.7281 7.95596C75.5963 8.02693 75.4746 8.05735 75.3631 8.05735H75.2516V7.79374H74.258V8.72649L75.1806 8.6251C75.0691 8.42233 74.9474 8.23984 74.8055 8.08776L74.9271 8.01679C75.3732 8.179 75.7179 8.38176 75.941 8.63522C76.1235 8.83799 76.2147 9.0509 76.2046 9.27395C76.2046 9.46658 76.1235 9.5984 75.9815 9.66937C75.8396 9.74034 75.6875 9.70991 75.5253 9.56797C75.505 9.3652 75.4341 9.12187 75.3023 8.82785C74.5115 9.07118 73.4672 9.36521 72.1695 9.69978C72.1289 9.83158 72.0377 9.91268 71.9059 9.94309L71.48 8.95966C71.8856 8.93938 72.575 8.87857 73.5483 8.78732V7.78359H72.5344V7.95596C72.5344 7.95596 72.4736 8.03707 72.3418 8.08776C72.21 8.13845 72.0782 8.16886 71.9566 8.16886C71.916 8.16886 71.8754 8.14857 71.845 8.09788C71.8146 8.05733 71.7943 8.00664 71.7943 7.94581C71.8349 7.61124 71.8552 7.16514 71.8754 6.60752V5.82687C71.551 6.1513 71.2671 6.3845 71.034 6.53657C71.0644 8.39192 70.8717 9.6288 70.4459 10.2574C70.2634 10.5615 69.8883 10.7136 69.3307 10.7136C69.3307 10.4095 69.2698 10.2067 69.1583 10.1053C68.9556 9.97351 68.7325 9.87213 68.479 9.82144V9.6288C68.8339 9.64908 69.1887 9.66936 69.5334 9.69978C69.6855 9.69978 69.7869 9.64907 69.8376 9.55783C70.0911 9.17256 70.2229 8.16887 70.2229 6.56699C70.2229 6.23242 70.2229 5.98908 70.2127 5.82687C69.6348 6.59739 68.8846 7.2564 67.9721 7.79374L67.8606 7.67208C68.327 7.2564 68.7528 6.74948 69.1482 6.18172C69.5436 5.60382 69.8477 5.0158 70.0708 4.41763C70.0302 4.06278 69.9288 3.65723 69.7768 3.201C69.3104 3.7282 68.8136 4.1743 68.2661 4.5697L68.1546 4.4379C68.6007 3.97152 69.0569 3.35306 69.5233 2.58253C69.2597 2.05533 68.9049 1.55856 68.4689 1.08205L68.6311 0.950249C69.1076 1.31524 69.4929 1.69035 69.7869 2.08576C70.1113 1.45717 70.3141 0.929981 70.3952 0.483887C70.9427 0.767765 71.2773 0.960393 71.4091 1.08205C71.5105 1.1733 71.5003 1.224 71.3787 1.24427L71.1759 1.27469C70.9123 1.74106 70.5879 2.20742 70.1925 2.69407C70.6994 3.60654 70.9731 4.79274 71.0137 6.24255C71.5409 5.58355 71.9566 4.75218 72.2607 3.7586C72.0985 3.84985 71.9363 3.89041 71.7741 3.89041H71.6524V2.34937C71.6524 1.72078 71.622 1.19356 71.551 0.747467L72.4432 1.16315H76.4378L76.6101 0.929983C76.6101 0.929983 76.6507 0.879264 76.6912 0.838709C76.7622 0.747463 76.823 0.696787 76.8636 0.696787C76.9346 0.696787 77.0866 0.788032 77.2995 0.980663C77.5125 1.17329 77.624 1.30509 77.624 1.3862C77.553 1.47744 77.4415 1.53829 77.2691 1.55857V2.20741C77.2691 2.3088 77.2691 2.4406 77.2793 2.59268C77.2894 2.96781 77.3097 3.25168 77.3198 3.44431C77.2793 3.51528 77.188 3.57612 77.0461 3.64709C76.9041 3.71806 76.7622 3.74849 76.6507 3.74849H76.5189V3.39363H72.3824V3.55585C72.8487 3.70793 73.1428 3.81945 73.2543 3.90056C73.3455 3.97153 73.3252 4.02221 73.2137 4.05263L73.011 4.1236C72.9704 4.24527 72.9096 4.3568 72.8386 4.47846H76.6912L76.9041 4.23511C76.9041 4.23511 76.9447 4.19457 76.9751 4.15402C77.0765 4.03236 77.1475 3.98165 77.1982 3.98165C77.2691 3.98165 77.4313 4.09318 77.6645 4.30609C77.9078 4.519 78.0194 4.67108 78.0194 4.75219C77.9484 4.84343 77.8065 4.90428 77.6037 4.92456C77.5936 6.75962 77.5429 8.05735 77.4719 8.81774C77.3908 9.68965 77.2488 10.2472 77.0562 10.4703C76.8534 10.7237 76.4682 10.8454 75.9106 10.8454L75.9004 10.886ZM72.3925 3.10975H73.3759V1.50785H72.3925V3.10975ZM72.5344 7.47945H73.5483V6.26281H72.5344V7.47945ZM74.0248 3.10975H74.9271V1.50785H74.0248V3.10975ZM74.2681 7.47945H75.2617V6.26281H74.2681V7.47945ZM75.5861 3.10975H76.5392V1.50785H75.5861V3.10975Z" fill="#251714"/>
<path d="M82.2777 10.3283L81.9836 9.76057C82.3892 9.80112 82.8758 9.83153 83.4537 9.85181H87.4382C87.8031 8.66561 88.1479 7.35773 88.452 5.91807C88.6244 5.12727 88.7156 4.40745 88.7257 3.74845L90.2262 4.19454C90.1756 4.35676 90.0336 4.43786 89.8207 4.43786C89.5774 5.26921 89.2834 6.14112 88.9285 7.06372C88.523 8.11813 88.1174 9.05087 87.7119 9.85181H90.1654L90.4392 9.46654C90.4392 9.46654 90.4797 9.41584 90.5203 9.36515C90.6521 9.16238 90.7433 9.07116 90.794 9.07116C90.865 9.07116 91.0677 9.20295 91.382 9.47669C91.7065 9.74029 91.8585 9.92277 91.8585 10.0039C91.8383 10.1255 91.747 10.1763 91.5848 10.1763H83.9404C83.4132 10.1763 82.8657 10.2371 82.2878 10.3283H82.2777ZM82.7238 3.35303L82.4399 2.77513C82.8454 2.81568 83.3321 2.84609 83.91 2.86637H86.5156V2.82584C86.5156 1.90323 86.4649 1.14284 86.3736 0.564941C87.0123 0.717019 87.4077 0.848814 87.57 0.940061C87.6916 1.01103 87.6916 1.07188 87.57 1.15299L87.3773 1.27465V2.87652H89.77L90.0438 2.49125C90.0438 2.49125 90.1147 2.41016 90.1553 2.34933C90.2769 2.18711 90.3682 2.10598 90.4087 2.10598C90.4797 2.10598 90.6825 2.23781 90.9968 2.51155C91.3212 2.78529 91.4733 2.95763 91.4733 3.03874C91.4429 3.1604 91.3415 3.21111 91.1793 3.21111H84.3763C83.8491 3.21111 83.3017 3.27193 82.7238 3.36318V3.35303ZM85.6842 8.99003C85.5017 9.17253 85.2888 9.13198 85.0455 8.86838C85.086 7.62134 84.7515 5.99918 84.062 4.02217L84.2243 3.98161C84.8021 4.70144 85.2482 5.44156 85.5524 6.20194C85.8059 6.85081 85.9377 7.44899 85.9478 7.98633C85.9478 8.47298 85.8565 8.80754 85.6741 8.99003H85.6842Z" fill="#251714"/>
<path d="M95.9442 10.7234L95.8529 10.5713C96.6133 9.94274 97.1811 9.11139 97.5663 8.07726C97.3534 7.66158 97.1506 7.10395 96.9681 6.41453C96.9276 6.4855 96.8769 6.58691 96.8059 6.71871C96.6032 7.10397 96.4714 7.35743 96.4004 7.47909C96.4612 7.57034 96.4511 7.6616 96.3903 7.7427L95.8428 7.15465C96.1976 6.8505 96.5423 6.49565 96.887 6.11039L96.9884 5.63388L97.3635 5.76568L97.0898 6.17122C97.252 6.7187 97.4649 7.21549 97.7184 7.66158C97.9414 6.93161 98.1037 6.03942 98.1949 4.96473H97.2013L96.9276 5.52237C96.7147 5.59334 96.4612 5.57305 96.1571 5.44125C96.7046 4.31587 97.2419 3.08912 97.7691 1.77111H97.2013C96.8668 1.77111 96.5322 1.83194 96.1875 1.92318L95.8935 1.37573C96.2483 1.41628 96.6741 1.44669 97.1709 1.46697H97.7792L97.9719 1.19321C97.9719 1.19321 98.0226 1.14251 98.053 1.09182C98.1442 0.970158 98.205 0.919483 98.2557 0.919483C98.3166 0.919483 98.4788 1.04113 98.7323 1.28445C98.9857 1.52778 99.1074 1.70014 99.1074 1.77111C99.0263 1.85222 98.8539 1.91307 98.6004 1.94348C98.3166 2.62276 97.9009 3.52507 97.3635 4.65044H98.1442L98.347 4.40713C98.347 4.40713 98.3875 4.36656 98.418 4.326C98.5193 4.20434 98.5903 4.15367 98.641 4.15367C98.712 4.15367 98.8641 4.2652 99.0972 4.47811C99.3304 4.69101 99.4419 4.84309 99.4419 4.9242C99.3913 5.00531 99.2696 5.05598 99.0668 5.08639C98.8945 6.41453 98.6106 7.48924 98.205 8.31046C98.6714 8.83766 99.2899 9.20263 100.071 9.4054C100.709 9.56762 101.632 9.64872 102.838 9.64872C104.319 9.64872 105.302 9.64873 105.809 9.62845V9.78052C105.657 9.81094 105.525 9.89207 105.434 10.0239C105.353 10.1455 105.302 10.2976 105.292 10.4801H102.788C101.541 10.4801 100.577 10.3686 99.888 10.1354C99.0972 9.87177 98.4585 9.39528 97.9921 8.72614C97.5055 9.54736 96.8364 10.2165 95.9847 10.7234H95.9442ZM101.642 9.38514C101.49 9.38514 101.419 9.31417 101.419 9.16209C101.429 9.04043 101.449 8.86806 101.46 8.64501C101.46 8.54363 101.47 8.46253 101.47 8.4017V7.90489H100.628C100.131 7.90489 99.6042 7.96575 99.0567 8.057L98.7728 7.48924C99.1783 7.5298 99.665 7.56021 100.243 7.58048H101.47V6.41453H100.75C100.334 6.41453 99.9083 6.47539 99.4724 6.56663L99.1885 5.99888C99.594 6.03944 100.081 6.06985 100.659 6.09012H101.48V4.95462H100.821C100.446 4.95462 100.05 5.01544 99.6244 5.10669L99.3304 4.5592C99.736 4.59975 100.223 4.63017 100.79 4.65044H101.49V3.50479H100.577C100.05 3.50479 99.5028 3.56564 98.9249 3.65689L98.641 3.09925C99.0465 3.13981 99.5332 3.17022 100.111 3.1905H101.5V2.06514H100.851C100.476 2.06514 100.091 2.12596 99.6853 2.21721L99.3912 1.63931C99.7866 1.67986 100.263 1.71027 100.831 1.73055H101.52C101.52 1.22363 101.49 0.807946 101.439 0.493652C102.027 0.655868 102.392 0.777556 102.534 0.868803C102.636 0.939772 102.636 1.02085 102.524 1.09182L102.331 1.21351V1.73055H103.629L103.822 1.46697C103.822 1.46697 103.862 1.41628 103.883 1.37573C103.974 1.25407 104.045 1.20336 104.096 1.20336C104.166 1.20336 104.329 1.31487 104.582 1.53792C104.836 1.76096 104.967 1.91305 104.967 1.99416C104.896 2.09555 104.755 2.16652 104.542 2.21721V3.20065H104.673L104.876 2.85594C104.876 2.85594 104.927 2.78498 104.957 2.73428C105.049 2.58221 105.109 2.51123 105.16 2.51123C105.231 2.51123 105.373 2.63287 105.596 2.86606C105.819 3.09924 105.931 3.26146 105.931 3.34257C105.91 3.46423 105.819 3.51494 105.657 3.51494H104.552V4.04213C104.552 4.12324 104.552 4.23477 104.562 4.36657C104.572 4.66058 104.592 4.88362 104.602 5.02556C104.562 5.09653 104.471 5.15738 104.308 5.22835C104.146 5.29931 104.004 5.32974 103.872 5.32974H103.741V4.96473H102.342V6.10024H103.751L103.974 5.76568C103.974 5.76568 104.004 5.715 104.025 5.67444C104.146 5.51223 104.227 5.43113 104.278 5.43113C104.349 5.43113 104.521 5.54265 104.775 5.77583C105.028 6.00902 105.16 6.16109 105.16 6.2422C105.14 6.36386 105.049 6.41453 104.886 6.41453H102.342V7.58048H104.035L104.288 7.22563C104.288 7.22563 104.339 7.16478 104.369 7.11409C104.491 6.94174 104.582 6.86063 104.623 6.86063C104.694 6.86063 104.876 6.98231 105.17 7.22563C105.464 7.46896 105.606 7.64132 105.606 7.71229C105.576 7.83395 105.484 7.88463 105.322 7.88463H102.352V8.29016C102.352 8.38141 102.362 8.49295 102.362 8.62475C102.372 8.80724 102.392 8.94918 102.392 9.04043C102.372 9.12154 102.291 9.19251 102.149 9.26348C102.007 9.33445 101.855 9.36484 101.703 9.36484L101.642 9.38514ZM102.291 3.18038H103.69V2.05499H102.291V3.18038ZM102.291 4.65044H103.69V3.50479H102.291V4.65044Z" fill="#251714"/>
<path d="M114.397 10.7338C114.245 10.7338 114.174 10.6629 114.174 10.5108C114.204 10.1762 114.224 9.71997 114.255 9.14207V8.34115C113.231 9.355 111.75 10.1052 109.814 10.5818L109.733 10.4094C111.325 9.80108 112.562 8.99002 113.423 7.96604H111.791C111.264 7.96604 110.716 8.02686 110.138 8.11811L109.855 7.56047C110.26 7.60102 110.747 7.63144 111.325 7.65171H114.265V6.67843C113.849 6.87106 113.362 7.02313 112.785 7.14479L112.673 6.97245C113.292 6.8001 113.768 6.56691 114.123 6.27289C114.457 5.98901 114.691 5.6443 114.833 5.21848H114.427C114.194 5.21848 113.961 5.2793 113.717 5.37055L113.433 4.8028C113.717 4.84335 114.052 4.87376 114.447 4.89404H114.924C114.995 4.56961 115.045 4.19451 115.066 3.77883H114.711C114.528 3.77883 114.346 3.83965 114.163 3.9309L113.88 3.38341C114.285 3.42397 114.772 3.45438 115.35 3.47466H117.164L117.276 3.34285C117.134 3.37327 117.002 3.33272 116.87 3.22119C116.84 2.86635 116.678 2.49124 116.394 2.09583H115.684C115.248 2.59262 114.782 2.99815 114.285 3.29217L114.153 3.15025C114.326 2.95762 114.478 2.78524 114.599 2.62303C114.802 2.33915 115.005 1.97415 115.198 1.5382C115.37 1.12252 115.492 0.757547 115.552 0.443254C116.11 0.666301 116.455 0.81838 116.587 0.919765C116.688 1.00087 116.678 1.06169 116.566 1.0921L116.363 1.16308C116.222 1.38613 116.08 1.59905 115.948 1.78154H118.117L118.351 1.44696C118.351 1.44696 118.391 1.39626 118.432 1.34556C118.543 1.18335 118.624 1.10225 118.665 1.10225C118.736 1.10225 118.908 1.21377 119.182 1.44696C119.456 1.68014 119.588 1.83224 119.588 1.91335C119.557 2.03501 119.466 2.08569 119.324 2.08569H117.002C117.235 2.20735 117.408 2.36956 117.509 2.55205C117.6 2.70413 117.631 2.85622 117.6 3.00829C117.976 3.32259 118.199 3.5355 118.28 3.64702C118.34 3.73827 118.32 3.80923 118.229 3.82951L118.067 3.87007V5.8268C118.067 5.88763 118.077 5.91806 118.097 5.93833C118.117 5.94847 118.168 5.9586 118.239 5.9586H118.837C118.898 5.9586 118.949 5.92819 118.979 5.86736C119.02 5.79639 119.101 5.50237 119.223 5.00558C119.243 4.92447 119.263 4.86365 119.263 4.82309H119.395L119.425 5.89777C119.588 5.96874 119.669 6.07011 119.669 6.23233C119.669 6.40468 119.577 6.52636 119.405 6.59733C119.223 6.67844 118.908 6.71899 118.482 6.71899H117.986C117.681 6.71899 117.479 6.66829 117.387 6.55677C117.306 6.46552 117.266 6.28302 117.266 6.00928V5.08667C117.235 5.17792 117.144 5.22863 117.002 5.22863H115.644C115.421 5.84708 115.015 6.31345 114.407 6.62775C114.904 6.74941 115.208 6.86092 115.319 6.93189C115.41 7.00286 115.4 7.0637 115.299 7.13467L115.127 7.24618V7.66186H117.996L118.229 7.3273C118.229 7.3273 118.28 7.26646 118.32 7.21577C118.432 7.07383 118.513 6.99272 118.553 6.99272C118.624 6.99272 118.807 7.10424 119.081 7.33742C119.364 7.56047 119.496 7.72271 119.496 7.80382C119.476 7.92548 119.385 7.97615 119.233 7.97615H115.512C115.988 8.36142 116.627 8.696 117.418 9.00015C118.158 9.27389 118.908 9.46651 119.679 9.58817V9.70983C119.304 9.80107 119.06 10.0647 118.959 10.5007C118.168 10.2573 117.438 9.9329 116.799 9.51722C116.11 9.07113 115.563 8.55405 115.157 7.97615H115.127V8.81767C115.137 9.50708 115.167 10.0545 115.198 10.4398C115.157 10.5108 115.066 10.5818 114.924 10.6527C114.762 10.7237 114.599 10.7541 114.437 10.7541L114.397 10.7338ZM109.875 3.5862L109.743 3.45439C109.966 3.24148 110.189 2.96773 110.422 2.62303C110.625 2.32901 110.818 1.96402 111 1.5382C111.183 1.11238 111.304 0.737261 111.355 0.433105C111.913 0.686568 112.268 0.858942 112.399 0.960327C112.501 1.05157 112.491 1.11239 112.369 1.13266L112.156 1.18338C112.034 1.38615 111.923 1.57875 111.801 1.76125H113.565L113.778 1.4571C113.778 1.4571 113.829 1.38614 113.869 1.33545C113.961 1.20365 114.032 1.13266 114.082 1.13266C114.153 1.13266 114.316 1.2442 114.549 1.4571C114.782 1.67001 114.904 1.82209 114.904 1.9032C114.873 2.02486 114.782 2.07554 114.63 2.07554H112.622C112.957 2.27831 113.139 2.50137 113.18 2.75483C113.221 2.97788 113.16 3.14011 112.998 3.24149C112.825 3.35301 112.653 3.3226 112.47 3.15025C112.47 2.81568 112.349 2.46082 112.136 2.06542H111.588C111.102 2.69401 110.534 3.19077 109.875 3.5659V3.5862ZM110.412 7.07384L109.926 6.11067C110.159 6.08026 110.696 5.99916 111.527 5.86736C111.588 5.86736 111.629 5.8572 111.659 5.84706V4.11339H111.193C110.939 4.11339 110.676 4.17421 110.402 4.26546L110.118 3.70785C110.524 3.74841 111.01 3.77882 111.588 3.7991H112.703L112.906 3.51522C112.906 3.51522 112.947 3.46453 112.977 3.42398C113.079 3.28204 113.15 3.21108 113.2 3.21108C113.271 3.21108 113.433 3.31245 113.677 3.51522C113.92 3.71799 114.042 3.85994 114.042 3.94105C114.042 4.06271 113.951 4.11339 113.778 4.11339H112.48V5.70514C112.683 5.67472 112.987 5.62403 113.403 5.54292C113.657 5.50236 113.849 5.4618 113.981 5.44153L114.011 5.60375C112.886 6.04984 111.771 6.45537 110.676 6.8305C110.635 6.97244 110.554 7.05357 110.432 7.07384H110.412ZM117.235 5.02585V3.77883H115.877C115.836 4.2452 115.786 4.6203 115.715 4.89404H116.069L116.475 4.31617C116.728 4.54935 116.982 4.78252 117.235 5.02585Z" fill="#251714"/>
</svg>
