<svg id="圖層_3" data-name="圖層 3" xmlns="http://www.w3.org/2000/svg" viewBox="0 0 1440 1400"><defs><style>.cls-1{fill:#1b4a99;}.cls-2{fill:none;stroke:#1b4a99;stroke-miterlimit:10;}</style></defs><path d="M397.17,96.63c-.5,2.6-3,11.34-3.86,13.94H354.25v-2.35c7.64-.76,8.31-1.18,8.31-8.32V66.55c0-7.14-.84-7.55-7.56-8.23V56h22.52v2.35c-6.72.68-7.65,1-7.65,8.23v34.19c0,5.13.67,6.3,5.46,6.39l6.64.08c4.28,0,5.54-.5,7.47-2.6A28.54,28.54,0,0,0,394.57,96Z"/><path d="M402.72,110.57v-2.35c6.88-.76,7.56-1.09,7.56-8.23V66.64c0-7.23-.68-7.56-7.56-8.32V56h22.51v2.35c-7,.76-7.65,1.09-7.65,8.32V100c0,7.22.68,7.47,7.65,8.23v2.35Z"/><path d="M485.71,58.32c-5.63.76-7.06,1.52-10.08,9.07-2.27,5.55-13.86,33.69-18,44.1h-2.77c-5-13.52-12.18-33.18-17-45.61-2.35-6.21-3.78-7-8.9-7.56V56h21.33v2.35c-6.21.68-6.55,1.68-5.37,4.79,2.1,6.13,8.23,22.85,13.52,36.79,4.45-10.83,10-24.52,13.94-35.11,1.85-4.87.84-5.63-6-6.47V56h19.32Z"/><path d="M489,110.57v-2.35c6.89-.76,7.56-1.09,7.56-8.23V66.64c0-7.23-.67-7.56-7.56-8.32V56h22.51v2.35c-7,.76-7.64,1.09-7.64,8.32V100c0,7.22.67,7.47,7.64,8.23v2.35Z"/><path d="M578,58.32c-5.38.59-7.14,1.43-7.39,5.29-.09,2.69-.25,6.22-.25,14v33.69h-3.2L531.23,67.39v21c0,7.56.25,11.34.42,13.78.17,4.28,2.27,5.54,8.32,6v2.35H519.56v-2.35c5.2-.42,7.22-1.68,7.56-5.8.25-2.69.42-6.47.42-14.11V66.89c0-2.35-.17-3.69-1.68-5.54-1.6-2.1-3.36-2.61-7.48-3V56H531L566.6,98.22V77.64c0-7.81-.17-11.42-.42-13.94-.26-3.78-2.19-5-8.91-5.38V56H578Z"/><path d="M639.34,87.64c-5.21.67-5.55,1.17-5.55,6.13v7.06a46.07,46.07,0,0,0,.51,8c-5.21,1.17-12,3-19.07,3-19.07,0-30.66-11.84-30.66-28.73,0-17.72,14.45-28.31,31.25-28.31a86.63,86.63,0,0,1,17.47,2.1c.17,3.11.59,8.24,1.26,13.53l-2.52.5c-2-7.14-4.45-10.16-9.74-11.92a28.08,28.08,0,0,0-7.82-1.1c-12.85,0-21.16,8.82-21.16,24.2,0,13.35,6.88,26.62,23.18,26.62a16.77,16.77,0,0,0,7.14-1.43c1.76-1,2.86-1.93,2.86-5.37V95c0-6.13-.68-6.8-8.74-7.39V85.2h21.59Z"/><path d="M708,96.63c-.5,2.6-3,11.34-3.86,13.94H665v-2.35c7.64-.76,8.32-1.18,8.32-8.32V66.55c0-7.14-.84-7.55-7.56-8.23V56h22.51v2.35c-6.72.68-7.65,1-7.65,8.23v34.19c0,5.13.68,6.3,5.46,6.39l6.64.08c4.28,0,5.54-.5,7.48-2.6A28.52,28.52,0,0,0,705.36,96Z"/><path d="M742.82,54.79c14.37,0,27.22,11,27.22,27.72,0,18.06-12.26,29.32-27.72,29.32-16.13,0-27.89-12.26-27.89-28.06C714.43,68.74,725.1,54.79,742.82,54.79Zm-1.68,3.11c-9.4,0-18,7.9-18,23.61s8.57,27.13,20.49,27.13c10.17,0,17.81-7.56,17.81-23.77C761.47,67.23,752.15,57.9,741.14,57.9Z"/><path d="M829.68,97.13a107,107,0,0,1-4.62,12.68,76.1,76.1,0,0,1-15.37,2c-20.08,0-30.33-13.36-30.33-28.06,0-17.13,13-29,31.84-29,7.22,0,13.1,1.52,15.87,1.94.34,3.78.93,8.82,1.6,13l-2.6.59c-1.68-5.63-3.7-9.08-8-10.84a23,23,0,0,0-8.82-1.6C795.41,57.9,788.1,68.15,788.1,82c0,16.21,8.4,26.63,22,26.63,8.56,0,12.76-4,17-12.35Z"/><path d="M869.32,110.57v-2.35c5.46-.67,6.14-1.51,5-4.71s-2.77-7.47-4.54-12.76H851.6c-1.34,3.78-2.6,7-3.78,10.5-1.85,5.46-.67,6.13,6.22,7v2.35H834.63v-2.35c5.29-.67,6.64-1.26,9.58-8.82L861.6,55.3l2.68-.51c5.3,14.37,11.09,30.24,16.38,44.78,2.69,7.3,3.45,8,9.41,8.65v2.35Zm-8.4-44.77c-2.68,7.22-5.54,14.87-8.06,21.5h15.71Z"/><path d="M930.9,69.16a32.16,32.16,0,0,0-2.69-7c-1.35-2.27-2.19-2.86-6.81-2.86H913v40.91c0,6.55.68,7.47,8.66,8v2.35H897.21v-2.35c7.81-.51,8.49-1.35,8.49-8V59.33h-7.65c-4.62,0-6,.51-7.39,3a38.12,38.12,0,0,0-2.77,6.81h-2.52c.5-5.13,1-10.42,1.26-15.12h1.93c1.26,2,2.18,1.93,4.54,1.93h33.26c2.35,0,3-.33,4.28-1.93h2c0,4,.34,10,.76,14.87Z"/><path d="M940.3,110.57v-2.35c6.89-.76,7.56-1.09,7.56-8.23V66.64c0-7.23-.67-7.56-7.56-8.32V56h22.52v2.35c-7,.76-7.65,1.09-7.65,8.32V100c0,7.22.67,7.47,7.65,8.23v2.35Z"/><path d="M999.19,54.79c14.36,0,27.21,11,27.21,27.72,0,18.06-12.26,29.32-27.72,29.32-16.13,0-27.89-12.26-27.89-28.06C970.79,68.74,981.46,54.79,999.19,54.79Zm-1.68,3.11c-9.41,0-18,7.9-18,23.61s8.57,27.13,20.5,27.13c10.16,0,17.8-7.56,17.8-23.77C1017.83,67.23,1008.51,57.9,997.51,57.9Z"/><path d="M1092.59,58.32c-5.37.59-7.14,1.43-7.39,5.29-.08,2.69-.25,6.22-.25,14v33.69h-3.19l-36-43.94v21c0,7.56.26,11.34.42,13.78.17,4.28,2.27,5.54,8.32,6v2.35h-20.41v-2.35c5.21-.42,7.22-1.68,7.56-5.8.25-2.69.42-6.47.42-14.11V66.89c0-2.35-.17-3.69-1.68-5.54-1.6-2.1-3.36-2.61-7.48-3V56h12.6l35.62,42.25V77.64c0-7.81-.17-11.42-.42-13.94-.25-3.78-2.19-5-8.91-5.38V56h20.75Z"/><path class="cls-1" d="M518.84,161.73a23,23,0,0,1-4,7.79,82.63,82.63,0,0,1,11.06,5.54l-2.66,3.12A74.26,74.26,0,0,0,512,172.25c-3.88,3.12-9.19,4.9-16.34,6a16,16,0,0,0-2.2-3.54c6.27-.72,11-2,14.51-4.22-3.45-1.4-7-2.66-10.18-3.68,1-1.44,2.2-3.19,3.31-5.09h-7.83v-3.35H503a49.56,49.56,0,0,0,2.84-6.3l4,.76a57.92,57.92,0,0,1-2.51,5.54h8.1c.23-1.1.42-2.35.57-3.61l4.29.35c-.19,1.14-.38,2.24-.61,3.26h6.5v3.35Zm-21.09-6.23h-3.57v-8H508c-.49-1.14-1.1-2.51-1.59-3.57l3.87-.95c.73,1.4,1.64,3.19,2.21,4.52h12.88v8h-3.76v-4.68H497.75Zm7.83,6.23c-.72,1.25-1.4,2.43-2.09,3.49,2.47.84,5.05,1.75,7.56,2.74a16,16,0,0,0,3.57-6.23Z"/><path class="cls-1" d="M549.2,150.14c-.15,1.21-.34,2.39-.53,3.46h14v20.7c0,1.9-.5,2.78-1.83,3.27s-3.53.53-6.53.53a13.88,13.88,0,0,0-1.26-3c2.17.12,4.49.08,5.13,0s.88-.19.88-.8V156.86H536.44V178.1H532.9V153.6h12.35c.12-1,.31-2.25.42-3.46H531.12v-3.31H546c.12-1.25.19-2.47.23-3.53l3.88.38c-.12,1-.27,2.09-.42,3.15h14.63v3.31Zm.08,20.9v6.23h-3.34V171H538.3v-2.85h7.64v-3.27H539.1v-2.77h3.49a18,18,0,0,0-1.78-4.22l2.77-.72a19.73,19.73,0,0,1,2,4.33l-2,.61h6.23a42,42,0,0,0,1.83-5.06l3.19.72c-.65,1.49-1.29,3-1.94,4.34h3.61v2.77h-7.18v3.27h7.9V171Z"/><path class="cls-1" d="M575.24,160.85a28.41,28.41,0,0,0-7-4.18l1.86-2.66a31.58,31.58,0,0,1,7.07,3.84Zm3.64,4.79c-2,4-4.52,8.47-6.8,12.08l-3-2.39a113.89,113.89,0,0,0,7.14-12ZM576.45,151a27.09,27.09,0,0,0-6.5-4.64l2-2.58a29.52,29.52,0,0,1,6.65,4.4Zm5.7,10.25h3.19v3.84c0,4.18-.61,9.23-5.47,13a11.1,11.1,0,0,0-2.47-2.32c4.29-3.19,4.75-7.37,4.75-10.72Zm17.93,0c-.45-.72-1.1-1.63-1.82-2.58-14.78,1-16.6,1.14-17.82,1.63a34.5,34.5,0,0,0-1.14-3.3c.84-.19,1.71-1.07,2.81-2.4a33,33,0,0,0,2.59-3.34H579v-3.19h7.9c.91-1.52,1.9-3.15,2.66-4.75l3.46,1.37c-.65,1.14-1.37,2.28-2,3.38h11.51v3.19H588.76q-2.1,2.85-4.22,5.24l11.59-.68c-.83-1-1.63-2-2.32-2.89l2.66-1.52c2.13,2.51,5.06,6,6.5,8Zm-11.36.31h3.12v15h-3.12ZM601,174.61a6.64,6.64,0,0,0,1.71-.23c0,.87.16,2,.27,2.74a6,6,0,0,1-1.94.22h-2.24c-3,0-3.53-1.25-3.53-4.29V161.23h3.26v11.9c0,1.1.08,1.48.57,1.48Z"/><path class="cls-1" d="M617.53,168c-3.42,1.9-7.07,3.87-10.11,5.39l-1.29-3.53c1.14-.49,2.51-1.1,4-1.82V155.76H606.4v-3.34h3.72v-8.63h3.31v8.63h3.23v3.34h-3.23V166.4c1.06-.53,2.09-1,3.15-1.56Zm12,2.58c-4.37,1.26-9.08,2.51-12.65,3.54l-.87-3.35c3.34-.72,8.36-1.94,13.18-3.19Zm10.53-14.89a47.3,47.3,0,0,1-5.28,13.11c.76,3.8,1.82,6.08,3,6.08.65,0,1-1.45,1.1-5.13a8.46,8.46,0,0,0,2.51,1.9c-.53,5-1.48,6.57-4.07,6.57-2.2,0-3.8-2.24-5-5.89a28.14,28.14,0,0,1-5.85,5.59,21.66,21.66,0,0,0-2.55-2.25,25.6,25.6,0,0,0,7.45-7.29,113.54,113.54,0,0,1-1.6-16.41H617.23v-3.2h12.42c0-1.78-.08-3.57-.08-5.35H633c0,1.82,0,3.61,0,5.35h5.12a26.79,26.79,0,0,0-4-3.61l2-1.74a24.91,24.91,0,0,1,4.44,3.8l-1.67,1.55h1.86v3.2h-7.67c.15,4.36.49,8.39.91,11.81a45.37,45.37,0,0,0,3-8.7ZM627.86,155v11.17h-9.49V155Zm-2.77,2.77h-4v5.63h4Z"/><path class="cls-1" d="M656.1,172c2.35,1.52,5.55,1.79,9.69,1.79a124.25,124.25,0,0,0,13.45-.76,15.32,15.32,0,0,0-1,3.8c-2.77.19-8.89.38-12.57.38-4.6,0-7.6-.46-10.19-2-1.55-1-2.77-2.25-3.61-2.25-1.17,0-2.92,2.36-4.59,4.83l-2.59-3.31c2.59-2.81,5.25-4.86,7.3-4.86a1.53,1.53,0,0,1,.42,0A67.73,67.73,0,0,0,670,154.05H646.56V150.6H662a61.07,61.07,0,0,0-3.76-5.89l3.15-1.68a56.15,56.15,0,0,1,4.18,6.16L663,150.6h9.73l.68-.2,2.7,1.75c-4.67,7-12.84,14.71-20.52,19.57Z"/><path class="cls-1" d="M689.12,157.13A84.48,84.48,0,0,1,686,172.37l-3.54-1.49a63.67,63.67,0,0,0,3.19-14.4Zm6.54-3.19v18.12c0,1.79.41,2.09,2.43,2.09h6.42c2.17,0,2.51-1.25,2.77-7.52a11.08,11.08,0,0,0,3.31,1.52c-.42,7.14-1.44,9.31-5.85,9.31h-7c-4.45,0-5.7-1.22-5.7-5.4V153.94Zm.3-9.61a68.2,68.2,0,0,1,10.37,8.13l-2.62,2.69a67.39,67.39,0,0,0-10.14-8.47Zm16.45,11a67.34,67.34,0,0,1,5,14.14L713.89,171a68.5,68.5,0,0,0-4.74-14.33Z"/><path class="cls-1" d="M739,162.79c-1,.42-2.06.8-3.12,1.18v10.18c0,1.67-.34,2.55-1.25,3.08s-2.4.65-4.6.65a12.79,12.79,0,0,0-.95-3.12,28.36,28.36,0,0,0,3.11,0c.46,0,.65-.12.65-.61v-9l-3.23,1.17-.91-3.38c1.18-.38,2.58-.87,4.14-1.4V154h-3.69v-3.27h3.69v-7.37h3v7.37h2.81V154H735.9v6.53l2.55-.87Zm7.06,1.94c.12-.57.23-1.14.34-1.71l2.55.49c-1.25,6.58-4.22,11.52-9.31,14.44a10.26,10.26,0,0,0-1.94-2.13,16.33,16.33,0,0,0,7.3-8c-4.14,1.14-5,1.49-5.59,1.9a19.11,19.11,0,0,0-.91-2.66c.72-.19,1.33-1,2.13-2.2a51.51,51.51,0,0,0,2.58-4.63c-2.73.34-3.49.53-4,.79a29.22,29.22,0,0,0-1-2.77c.49-.11,1-.61,1.33-1.41a26.64,26.64,0,0,0,2.46-6.42l2.78,1.26a35.28,35.28,0,0,1-2.7,5.77l2.47-.19a24.51,24.51,0,0,0,.91-2.39l2.59,1.44a68,68,0,0,1-4.72,9Zm17.25-14.44H739.28v-3H749.5a21.11,21.11,0,0,0-1.4-2.77l2.5-.95a18.84,18.84,0,0,1,2,3.72h10.71Zm0,25.57H752.28v1.86h-2.82V161.77a6.46,6.46,0,0,1-.57.72,21,21,0,0,0-2.24-1.9,27.79,27.79,0,0,0,4.83-9.69l2.73.68c-.34,1.14-.76,2.36-1.21,3.46h3.76a19.76,19.76,0,0,0-1.45-3.08l2.4-.87a23.73,23.73,0,0,1,1.9,3.95H763v2.74h-4.37v3.3h3.76v2.47h-3.76v3.31h3.57v2.47h-3.57v3.8h4.71Zm-7.49-18.08h-3.6v3.3h3.6Zm0,5.77h-3.6v3.31h3.6Zm-3.6,9.58h3.6v-3.8h-3.6Z"/><path class="cls-1" d="M795.44,174.34c2,0,2.32-.72,2.62-4.41a8.19,8.19,0,0,0,3,1.26c-.49,4.82-1.52,6.23-5.43,6.23H787.2c-4.68,0-5.93-1-5.93-5V156.29c-.57.61-1.1,1.26-1.71,1.83a21,21,0,0,0-1.82-3.42c.22-.23.45-.46.68-.72H774.7v6.61c1.25-.34,2.58-.76,3.87-1.14l.46,3.19c-1.41.46-2.89,1-4.33,1.37v9.91c0,1.75-.34,2.7-1.37,3.23s-2.55.69-4.9.69a12.79,12.79,0,0,0-1-3.27c1.52,0,2.93,0,3.34,0s.69-.15.69-.69V165l-4.22,1.29-.8-3.41c1.41-.38,3.12-.8,5-1.37V154H767v-3.27h4.49v-7.33h3.23v7.33h3.87v3.11a29.18,29.18,0,0,0,6.2-10.56l3.19,1c-.42,1.1-.84,2.24-1.33,3.31h13.11v1.56c-.08,12.72-.16,17-1.07,18.35a3.68,3.68,0,0,1-2.85,1.52,43.17,43.17,0,0,1-4.86,0,7.53,7.53,0,0,0-1-3h-5.39v6.46c0,1.67.38,2,2.77,2ZM785,150.71a31.86,31.86,0,0,1-2.2,3.53h10.33v11.67h-1.48c1.18.07,2.17.07,2.7.07a1.29,1.29,0,0,0,1.25-.53c.65-.76.72-4.63.76-14.74ZM784.58,163h5.47v-5.89h-5.47Z"/><path class="cls-1" d="M831.39,161.73a23,23,0,0,1-4,7.79,82.63,82.63,0,0,1,11.06,5.54l-2.66,3.12a74.26,74.26,0,0,0-11.17-5.93c-3.88,3.12-9.19,4.9-16.34,6a16,16,0,0,0-2.2-3.54c6.27-.72,11-2,14.51-4.22-3.46-1.4-7-2.66-10.18-3.68,1-1.44,2.2-3.19,3.31-5.09h-7.83v-3.35h9.73a49.56,49.56,0,0,0,2.84-6.3l4,.76a57.92,57.92,0,0,1-2.51,5.54h8.1c.23-1.1.42-2.35.57-3.61l4.29.35c-.19,1.14-.38,2.24-.61,3.26h6.5v3.35ZM810.3,155.5h-3.57v-8h13.79c-.49-1.14-1.1-2.51-1.59-3.57l3.87-.95c.73,1.4,1.64,3.19,2.21,4.52h12.88v8h-3.76v-4.68H810.3Zm7.83,6.23c-.72,1.25-1.4,2.43-2.09,3.49,2.47.84,5.05,1.75,7.56,2.74a16,16,0,0,0,3.57-6.23Z"/><path class="cls-1" d="M842.83,176.85a31.4,31.4,0,0,0,4.79-7.3l3.31.88a40.82,40.82,0,0,1-4.79,7.79Zm18.54-29.56c-2.24,11.25-8,18-15.38,21.28a12.72,12.72,0,0,0-2.47-2.66,22.57,22.57,0,0,0,10.9-9.24,37.39,37.39,0,0,0-5.17-4.25,26.62,26.62,0,0,1-4.9,5.36,21.34,21.34,0,0,0-1.48-3,27.18,27.18,0,0,0,7.68-11.82l3.34,1c-.34.87-.76,1.78-1.18,2.7h5.85l.69-.16Zm-9.57,11.78c-2.58.91-5,1.75-7.3,2.47l-.79-2.74c2-.45,4.78-1.21,7.71-1.94Zm-.57-9.65-.57.91a53.91,53.91,0,0,1,5.09,3.8,30.26,30.26,0,0,0,1.67-4.71Zm6.19,21a45.06,45.06,0,0,1,.91,6.95l-3.42.46a47,47,0,0,0-.79-7.07Zm17.06-2.09a70.11,70.11,0,0,0-6-11.44,21.63,21.63,0,0,1-9.12,12.16,16.22,16.22,0,0,0-2.66-2.28,20,20,0,0,0,8.89-12.42H860.5V151h5.62c.08-.95.12-1.9.12-2.73v-4.49h3.34v4.53c0,.83,0,1.78-.08,2.69h7.87v3.35h-6.8a82.06,82.06,0,0,1,7.14,12.5Zm-9.34,1.82a38.42,38.42,0,0,1,2.31,6.92l-3.45.68a38.17,38.17,0,0,0-2.17-7.07Zm7.56-.91a49.39,49.39,0,0,1,5,7.49l-3.34,1.52a44.58,44.58,0,0,0-4.75-7.68ZM874,150.52a31.64,31.64,0,0,0-3.73-5.13l2.55-1.41a25.43,25.43,0,0,1,3.84,4.94Z"/><path class="cls-1" d="M895.42,174.8c0,1.44-.3,2.24-1.29,2.73s-2.51.5-4.79.5a11.3,11.3,0,0,0-1-2.74c1.56.08,3.08,0,3.49,0s.65-.11.65-.57v-2.89h-6.84a13.28,13.28,0,0,1-2.43,6.5,10.59,10.59,0,0,0-2.21-2.32c1.71-2.35,1.87-5.47,1.87-8.17v-8h12.57Zm1.64-16.68H881.14V155.5h6.57v-2.06h-5V151h5v-1.9h-6v-2.55h6V143.3H891v3.23h5.58v2.55H891V151h4.59v2.46H891v2.06h6.08Zm-4.6,11.32V167.2h-6.61V168c0,.49,0,.95,0,1.48Zm-6.61-6.91v2.24h6.61v-2.24Zm30,1.1h-2.32v5.81H907v5.05c0,1.68-.3,2.55-1.41,3a13.29,13.29,0,0,1-5,.57,11.75,11.75,0,0,0-1-3.08c1.52.07,3.12.07,3.54,0s.6-.12.6-.57v-5h-5.28v-2.81h5.28v-3H896.9v-3h6.84v-2.74h-5.09V155h1.41a20.39,20.39,0,0,0-2.13-4.71l2.51-1a21.52,21.52,0,0,1,2.35,4.71l-2.35,1h13.07v5.55h2.32Zm-1-17.59c-4.52,1.44-11.25,2.35-16.91,2.81a9.84,9.84,0,0,0-.87-2.51,92.08,92.08,0,0,0,15.39-2.66Zm-10.11,8.43a21.3,21.3,0,0,0-1.4-5.2l2.69-.57a23.73,23.73,0,0,1,1.56,5.09Zm2.32,6.12h3.53v-2.74H907Zm3.53,3H907v3h3.53Zm-1.67-10a32.26,32.26,0,0,0,2.51-5.66l2.93.84c-.92,2-1.94,4.14-2.82,5.62Z"/><path class="cls-1" d="M931.79,152.15H919.21v-2.81h6a44.49,44.49,0,0,0-2.89-4.82l2.66-1.37a33.5,33.5,0,0,1,3.31,5.17l-1.9,1h5.43Zm-1.06,23.9h-7.45v1.67h-2.89V165h10.34Zm-10.3-16.41h10.18v2.77H920.43Zm10.22-2.32H920.47v-2.77h10.18Zm-7.37,10.45v5.51h4.52v-5.51Zm18.31-4.07c-2.47,0-3.46-.57-3.76-2.24a54.3,54.3,0,0,1-4.79,3,20.87,20.87,0,0,0-2-2.63,37.35,37.35,0,0,0,6.65-4V149h3.19v6a33.36,33.36,0,0,0,7.48-10.52l2.89.91a42.26,42.26,0,0,1-3.57,6.19l2.36-.87a26.82,26.82,0,0,1,3.68,7.41l-2.77,1.06a31.25,31.25,0,0,0-3.42-7.41,41.79,41.79,0,0,1-6.65,7.26v.61c0,1,.19,1.14,1.22,1.14h3.19c.91,0,1.1-.53,1.21-4a8.41,8.41,0,0,0,2.85,1.21c-.34,4.53-1.18,5.7-3.76,5.7Zm-10.3-6.57a21.14,21.14,0,0,0,2.55-6.69l2.7,1a22.63,22.63,0,0,1-2.51,6.95Zm20.41,17.29h1.94v2.77h-22v-2.77H934v-9H951.7Zm-15,0h2.32v-6.27h-2.32Zm6.5-24.85a24.51,24.51,0,0,0-5.74-4l2-2a26,26,0,0,1,5.81,3.83Zm-1.71,18.58v6.27h2.39v-6.27Zm4.82,0v6.27h2.43v-6.27Z"/><path d="M412.71,284.1V289q0,7.52-2,11.21a2.56,2.56,0,0,0-.78-.49,13.87,13.87,0,0,0,1.48-4.83,44.88,44.88,0,0,0,.36-5.91V283.2h16.07v.9Zm8.09,11.74v2.92h7.13v.88H412.64v-.88h2.81v-4.51h.92v4.51h3.49v-6h.94V295h5.08v.84Zm-3.63-3h-.86v-3.38a10.34,10.34,0,0,1-2.7,3.22,2.91,2.91,0,0,0-.6-.64,7,7,0,0,0,1.55-1.39,12.4,12.4,0,0,0,1.34-1.91h-2.42v-.8h2.83v-1.74c-.65.11-1.44.22-2.37.31a4.74,4.74,0,0,0-.29-.64,19.13,19.13,0,0,0,4.87-1.06l.76.59a15.41,15.41,0,0,1-2.11.62v1.92h2.48v.8h-2.48V289c.3.2.72.5,1.28.93a12.62,12.62,0,0,1,1.08.89l-.57.66c-.22-.23-.82-.78-1.79-1.64Zm7,0h-.88v-3.89a11.07,11.07,0,0,1-1.54,2.12,10.33,10.33,0,0,1-1.86,1.63,3,3,0,0,0-.58-.66,8.24,8.24,0,0,0,1.78-1.4,10.56,10.56,0,0,0,1.52-1.9h-2.25v-.8h2.93v-1.78c-.79.13-1.61.23-2.44.29a6.81,6.81,0,0,0-.27-.64,20.38,20.38,0,0,0,5.15-1l.76.59a13.69,13.69,0,0,1-2.32.64v1.92h3.52v.8H424.8a8.45,8.45,0,0,0,1.49,1.87,7,7,0,0,0,1.87,1.31,2.34,2.34,0,0,0-.62.68,7.61,7.61,0,0,1-1.87-1.5,10.35,10.35,0,0,1-1.51-2.09Z"/><path d="M446.6,291.58h-7.05A7.66,7.66,0,0,1,437.4,297a14.06,14.06,0,0,0,4.37,1.63,42.83,42.83,0,0,0,6.35.75,2.5,2.5,0,0,0-.44,1,44,44,0,0,1-6.54-.87,13.43,13.43,0,0,1-4.48-1.81,16.33,16.33,0,0,1-6,2.6,4.66,4.66,0,0,0-.56-.86,16.08,16.08,0,0,0,5.72-2.32,10.66,10.66,0,0,1-3.11-4.2l.82-.33a9.65,9.65,0,0,0,3,3.9,5.58,5.58,0,0,0,1.49-2.16,9.25,9.25,0,0,0,.5-2.66h-6.83v-6.16h6.85v-3.26h1v3.26h7Zm-13.92-.94h5.91v-4.28h-5.91Zm12.94-4.28h-6v4.28h6Z"/><path d="M456.11,288.45h-2.52v11.76h-.93V288.45H450v-.92h2.64V282.1h.93v5.43h2.52Zm12.13,6v.86H465V299a1.37,1.37,0,0,1-.13.68.73.73,0,0,1-.48.35,16.71,16.71,0,0,1-2.77.12,2.64,2.64,0,0,0-.31-.84c1.31,0,2.12,0,2.42,0,.14,0,.24,0,.28-.07a.3.3,0,0,0,.07-.24v-3.77h-9v-.86h9v-1.78H465v1.78Zm-6.8-7.83v-1.31h-5.66v-.86h5.66v-2.32h.9v2.32h4.12a16.43,16.43,0,0,0-2.83-1.58l.51-.61a12.42,12.42,0,0,1,2.93,1.56l-.49.63h1.58v.86h-5.82v1.31h4.81v6.68h-.88v-1.51h-3.93v1.43h-.9v-1.43h-3.65v1.51h-.86v-6.68Zm-4,9.67.68-.53a11.86,11.86,0,0,1,2.72,2.65l-.72.57A12.14,12.14,0,0,0,457.46,296.25Zm4-8.89h-3.65v1.46h3.65ZM457.79,291h3.65v-1.4h-3.65Zm8.48-3.63h-3.93v1.46h3.93ZM462.34,291h3.93v-1.4h-3.93Z"/><path d="M477.23,291.07l.13.86-2.71.88v7.42h-.92V293.1l-3.52,1.13-.29-.93c1.55-.45,2.82-.82,3.81-1.14v-4.9H471.6a18.61,18.61,0,0,1-1,3.24,5.15,5.15,0,0,0-.8-.43,21.65,21.65,0,0,0,1.53-6.81l.9.17c-.13,1-.29,2-.47,2.91h2v-4.22h.92v4.22h2.28v.92h-2.28v4.61Zm2.63-5.47h8.05c0,.3,0,.49,0,.57-.23,4.52-.48,7.72-.75,9.63a8.07,8.07,0,0,1-1.05,3.59,1.77,1.77,0,0,1-1.3.61,19,19,0,0,1-2.29-.06,2.15,2.15,0,0,0-.25-.94c.66.05,1.41.08,2.24.08a1,1,0,0,0,.78-.3q.56-.58.93-3.36t.73-8.9h-1.46a33.21,33.21,0,0,1-2.56,8,14.82,14.82,0,0,1-4.12,5.49,3,3,0,0,0-.84-.59,14,14,0,0,0,4.1-5.21,30.49,30.49,0,0,0,2.54-7.64H482.5a25.44,25.44,0,0,1-2.14,5.35,13.46,13.46,0,0,1-3,3.93,2.53,2.53,0,0,0-.8-.55,11.85,11.85,0,0,0,3-3.65,22.55,22.55,0,0,0,2.09-5.08h-2.15a15.28,15.28,0,0,1-2.38,3.94,3.91,3.91,0,0,0-.78-.58,16.82,16.82,0,0,0,3.65-7.76l.92.16A29,29,0,0,1,479.86,285.6Z"/><path d="M493.59,282.1h1a24.29,24.29,0,0,1,3.36,3.62l-.65.68a23.38,23.38,0,0,0-3.08-3.48,17,17,0,0,1-4.07,4.79,2.44,2.44,0,0,0-.64-.59A13.72,13.72,0,0,0,493.59,282.1ZM492.13,296v1.66h5.47v.84h-5.47v1.76h-.88V287.89h5.94v5.6h-5.06v1.66h5.17V296Zm4.2-7.3h-4.2v1.62h4.2Zm-4.2,4h4.2v-1.64h-4.2Zm.23-7h4.05v.8h-4.05Zm11-1.33H508v3h-.92v-2.17h-8v2.17h-.92v-3h4.26v-2.29h.94Zm-3,7.54v2h7v6.17h-.89v-1h-6.08v1.11h-.92V287.3h7V292Zm5.16-3.79h-5.16v2.95h5.16Zm.92,6.64h-6.08v3.44h6.08Z"/><path d="M518.71,281.17h.74v20h-.74Z"/><path d="M535.25,284V288h3.83v.92h-3.83v.61c.37.4,1,1.11,1.87,2.14s1.43,1.69,1.67,2l-.65.76c-.5-.76-1.47-2-2.89-3.77v9.55h-1v-9.77a28.58,28.58,0,0,1-1.91,3.74,15.82,15.82,0,0,1-2.14,2.89,2.36,2.36,0,0,0-.56-.84,17.78,17.78,0,0,0,2.42-3.27,22.74,22.74,0,0,0,1.95-4.06h-3.87V288h4.11v-3.75c-1.16.2-2.35.37-3.56.51a3.53,3.53,0,0,0-.29-.78,35.08,35.08,0,0,0,7.69-1.64l.69.76A21.27,21.27,0,0,1,535.25,284Zm4.61-.08H547v15.31h-1v-1.56H540.8v1.7h-.94Zm.94,12.83H546V284.88H540.8Z"/><path d="M551.11,290.46v-7.67H552v7.67a45.09,45.09,0,0,1-.29,5.54,13.63,13.63,0,0,1-1.23,4.17,3.43,3.43,0,0,0-.66-.58,13.7,13.7,0,0,0,1.08-3.94A44.64,44.64,0,0,0,551.11,290.46Zm2.7,6.84V284.21h.8V297.3Zm2.79,2.23V282.75h.84v16.78Zm4.79-2.39.91.47a13.74,13.74,0,0,1-3.94,2.64,6.62,6.62,0,0,0-.67-.65A11.1,11.1,0,0,0,561.39,297.14Zm-2.17-10.88h3.08c.15-.55.31-1.3.49-2.24h-4.31v-.88h9.45V284h-4.08c-.28,1.05-.48,1.8-.63,2.24h4.16v10.28h-8.16Zm7.22,3.15v-2.34h-6.32v2.34Zm0,3.14v-2.34h-6.32v2.34Zm0,3.17v-2.38h-6.32v2.38Zm-2.16,1.95.72-.51a19.28,19.28,0,0,1,3.38,2.5l-.74.57A19.68,19.68,0,0,0,564.28,297.67Z"/><path d="M574.65,293.78v1.88h3.53v.88h-3.53v3.73h-.92v-3.73H570v-.88h3.73v-1.88h-3V287h3v-1.7h-3.48v-.9h3.48V282.1h.92v2.33h3.26v.9h-3.26V287h3v6.75Zm-3.09-5.95V290h2.23v-2.17Zm0,2.95V293h2.23v-2.2Zm5.28-.78v-2.17h-2.25V290Zm0,3v-2.2h-2.25V293Zm8.8.53v1.23h2.54v.82h-2.54v3.56a1.46,1.46,0,0,1-.12.67.68.68,0,0,1-.46.3,11.21,11.21,0,0,1-2.56.16,5.21,5.21,0,0,0-.33-.84c1.1,0,1.85,0,2.22,0s.34-.13.34-.33v-3.54h-6.66v-.82h6.66v-1.23Zm-7.46-.17-.06-.81,1.82,0,2.66,0v-1.53h-3.73v-5.15h3.73v-1.31h-4.28v-.82h4.28v-1.53h.88v1.53H588v.82h-4.49v1.31h3.94v5.15h-3.94v1.51l2.71-.06a14.17,14.17,0,0,0-1.15-1l.64-.39a13,13,0,0,1,2.62,2.56l-.72.49a10,10,0,0,0-.67-.86l-4.64.1Zm1.21,3.14.69-.41a9.46,9.46,0,0,1,2.07,2.34l-.74.49A8.16,8.16,0,0,0,579.39,296.48Zm.32-10V288h2.89V286.5Zm0,3.71h2.89v-1.52h-2.89Zm6.85-3.71h-3.08V288h3.08Zm0,3.71v-1.52h-3.08v1.52Z"/><path d="M593.63,291.5v5q1.49,2.28,5.55,2.4c1.05,0,2.55.05,4.49,0s3.46-.06,4.55-.13a2.39,2.39,0,0,0-.33,1q-5,.13-8.67,0c-2.72-.09-4.72-.91-6-2.46-1.09,1.12-2,2-2.77,2.69l-.57-.91c.87-.71,1.81-1.55,2.79-2.52V292.4H590v-.9Zm.55-2.75-.65.7a8.06,8.06,0,0,0-1.45-1.23,14.59,14.59,0,0,0-1.9-1.13l.6-.65A10.48,10.48,0,0,1,594.18,288.75Zm.53-4-.67.67a10.51,10.51,0,0,0-3.2-2.41l.66-.58a13.23,13.23,0,0,1,1.83,1.12A8.5,8.5,0,0,1,594.71,284.74Zm6.17,13.54v-2.21h-6v-.84h6v-1.48h-4.49v-5.59h4.49v-1.5h-5.26v-.79h5.26v-1.64h.94v1.64h5.31v.79h-5.31v1.5h4.61v5.59h-4.61v1.48h6.11v.84h-6.11v2.21Zm-4.73-14.61v1.7h-.88v-2.5h12.21v2.5h-.9v-1.7Zm1.12,5.25v1.62h3.61v-1.62Zm0,4.06h3.61v-1.7h-3.61Zm8.24-4.06h-3.69v1.62h3.69Zm0,4.06v-1.7h-3.69V293Z"/><path d="M615.6,295.46l2.62-.62.1.9-8.13,1.93-.23-1c1.54-.31,3.11-.66,4.73-1a56.31,56.31,0,0,0,1.29-7.79l.93.19C616.48,291.08,616.05,293.55,615.6,295.46Zm2.37-9.23v.89h-7.68v-.89h3.4v-3.89h.92v3.89Zm-5,9-.88.14a33.06,33.06,0,0,0-.84-7.15l.8-.14A32.09,32.09,0,0,1,613,295.23Zm15.21-7.81H623v4.31h4.26v8.38h-1v-.86h-6.8v.94h-.94v-8.46H622v-9.64h1v4.41h5.19Zm-1.89,10.9v-5.67h-6.8v5.67Z"/><path d="M638.71,281.17h.74v20h-.74Z"/><path d="M667.93,290.78H664.1a11.55,11.55,0,0,1-3.32,5.68,37.5,37.5,0,0,1,6.07,3l-.6.82a38.25,38.25,0,0,0-6.27-3.19c-1.94,1.44-4.8,2.48-8.59,3.15a3.18,3.18,0,0,0-.65-.86c3.63-.52,6.38-1.42,8.22-2.7q-2.22-.87-4.7-1.62c-.07.11-.16.27-.28.49a4.44,4.44,0,0,1-.27.49l-1-.27c.81-1.33,1.75-3,2.82-5h-5.3v-.92H656c.44-.85,1-2,1.67-3.38l1,.23q-1.3,2.66-1.56,3.15h10.84Zm-16-5.43v3.1h-.95v-4h7.61v-2.32h1v2.32h7.81v4h-1v-3.1ZM663,290.78H656.6c-.92,1.77-1.56,3-1.91,3.55,1.85.55,3.55,1.13,5.11,1.76A10.38,10.38,0,0,0,663,290.78Z"/><path d="M687.85,285.25h-8.42c-.06.62-.17,1.45-.31,2.48h7.48v11.15a1.66,1.66,0,0,1-.16.84,1,1,0,0,1-.58.39,18.52,18.52,0,0,1-3.32.16,5.79,5.79,0,0,0-.35-.94c.65,0,1.28,0,1.89.05s1,0,1.08,0a.56.56,0,0,0,.37-.12.51.51,0,0,0,.09-.35V288.63h-13v11.6h-.94v-12.5h6.56c.11-.7.2-1.53.28-2.48h-8.13v-.92h8.2c.11-1.38.16-2.13.16-2.24l1,.11c0,.16,0,.48-.09,1s-.08.88-.11,1.15h8.3Zm-3.51,10.84h-4.87v3.85h-.92v-3.85h-4.64v-.84h4.64v-2.46h-4.23V292h6.11a16.94,16.94,0,0,0,1.35-2.93l.88.25a24.8,24.8,0,0,1-1.35,2.68H684v.84h-4.57v2.46h4.87Zm-8.87-6.74.76-.27a7.84,7.84,0,0,1,1.31,2.48l-.8.29A7.68,7.68,0,0,0,675.47,289.35Z"/><path d="M690.49,292.53v-.78h17.19v.78h-6.49v1.06h5.51v6.62h-.92v-.57H692.69v.57h-.91v-6.62h5.07v-1.06Zm8.73-2.5v.73h-8.15v-7.91h8.07v.74h-7.25V290Zm-.37-2.85h-2.91l-.06.24a15.47,15.47,0,0,1,2.71,1.66l-.45.56a25.77,25.77,0,0,0-2.55-1.62,4.82,4.82,0,0,1-2.56,1.74,1.72,1.72,0,0,0-.51-.57q2.25-.66,2.64-2h-2.72v-.7h2.83v-1.06h-1.48a5.34,5.34,0,0,1-.63.81,6.05,6.05,0,0,0-.66-.41,5,5,0,0,0,1.35-2.09l.74.15c-.07.18-.2.47-.39.86h4.14v.68H696v1.06h2.82Zm-2,7.13h-4.13v2.95h13.09v-1l-.49,0h-3.2a3.23,3.23,0,0,1-1.41-.2c-.22-.13-.33-.42-.33-.88v-.86h-2.69a2.51,2.51,0,0,1-1,1.56,7.36,7.36,0,0,1-3,1.14,2.9,2.9,0,0,0-.53-.67C695.36,296,696.58,295.3,696.82,294.31Zm-4.13,4.61h13.09V298H692.69Zm7.66-5.33v-1.06h-2.67v1.06Zm5-8.87a1.21,1.21,0,0,0,.06.49c0,.07.16.1.37.1h.68a1.83,1.83,0,0,0,.51-.05.37.37,0,0,0,.2-.28,6.56,6.56,0,0,0,.09-1.08,2.31,2.31,0,0,0,.65.35c0,.37,0,.63,0,.8a1.32,1.32,0,0,1-.17.52.62.62,0,0,1-.39.34,1.62,1.62,0,0,1-.74.12h-.92a1.2,1.2,0,0,1-.86-.27c-.18-.12-.27-.5-.27-1.16v-1.17h-3v.3a2.92,2.92,0,0,1-2,2.71,2.33,2.33,0,0,0-.61-.64,3.08,3.08,0,0,0,1.35-.95,2,2,0,0,0,.35-1.16v-1.06h4.73Zm.65,1.68.5.22a6.48,6.48,0,0,1-2.52,3,12,12,0,0,0,3.79,1.11,6.21,6.21,0,0,0-.52.76,11.26,11.26,0,0,1-4-1.41,12.4,12.4,0,0,1-3.36,1.16,3.36,3.36,0,0,0-.45-.73,10.76,10.76,0,0,0,3.07-.93,6.7,6.7,0,0,1-1.93-2.23l.47-.14h-1.1v-.76h5.92Zm-.24,7.91h-4.59v.88a.33.33,0,0,0,.17.33,2.23,2.23,0,0,0,.75.08h3.07c.33,0,.52,0,.54-.06l.06,0Zm-.41-7.13h-4a5.94,5.94,0,0,0,1.91,2A6.08,6.08,0,0,0,705.37,287.18Z"/><path d="M715.59,282.92l.62.4c-.68,1.78-1.39,3.51-2.15,5.19a6.57,6.57,0,0,1,2,4.45c0,1.11-.24,1.83-.74,2.15a3.76,3.76,0,0,1-2.32.31,2,2,0,0,0-.3-.85,9,9,0,0,0,1.15,0,1.74,1.74,0,0,0,.87-.21c.3-.2.45-.69.45-1.48a6.25,6.25,0,0,0-2-4.28c.56-1.28,1.2-2.87,1.9-4.77h-3.3v16.37h-.9V283h4.61ZM724.78,299h1.76a.5.5,0,0,0,.5-.45,14.57,14.57,0,0,0,.15-2.15,2,2,0,0,0,.86.43,7.71,7.71,0,0,1-.36,2.45,1,1,0,0,1-1.05.6h-1.95a1.68,1.68,0,0,1-1.14-.29,1.59,1.59,0,0,1-.29-1.12v-6h-2.77a12.42,12.42,0,0,1-1.24,5,6.43,6.43,0,0,1-3.53,2.77,1.77,1.77,0,0,0-.56-.72,5.73,5.73,0,0,0,3.26-2.49,11,11,0,0,0,1.11-4.56h-2.91v-.9H728v.9h-3.77v6c0,.24,0,.38.11.44A.84.84,0,0,0,724.78,299Zm-7.44-13.63v2.57h-.9v-3.47h5v-2.35h.94v2.35h5.41v3.45h-.92v-2.55Zm8.81,3.45h-8v-.88h8Z"/><rect class="cls-2" x="299.55" y="272.59" width="98.53" height="34.41" rx="10.47"/><path class="cls-1" d="M313.91,280.67l2.21.65a40.3,40.3,0,0,1-1.53,3.89v14.1h-2.26v-10A15.24,15.24,0,0,1,311.1,291a12.91,12.91,0,0,0-1.16-2.56,17.36,17.36,0,0,0,2.25-3.44A24.85,24.85,0,0,0,313.91,280.67ZM328,296.38h-3a33.6,33.6,0,0,1,4.24,1.68l-2.05,1.33a21.33,21.33,0,0,0-4.3-1.92l1.27-1.09h-3.91l1.31.93a13.87,13.87,0,0,1-5.08,2,6.26,6.26,0,0,0-1.25-1.63,14.69,14.69,0,0,0,4.24-1.34H316.7v-7.46H328Zm.8-13.13h-4v.86h3.43v4.12H316.41v-4.12h3.28v-.86h-3.63v-1.72h12.77Zm-10.35,2.23v1.37h1.21v-1.37Zm.43,4.78V291h6.8v-.73Zm0,2v.7h6.8v-.7Zm0,2V295h6.8v-.76Zm4-10.16v-.86h-1.31v.86Zm-1.31,1.37v1.37h1.31v-1.37Zm4.52,0h-1.29v1.37h1.29Z"/><path class="cls-1" d="M334.46,280.71l2.24.73a33.87,33.87,0,0,1-1.91,4.12v13.73h-2.27V289.07c-.51.65-1,1.19-1.35,1.6a11,11,0,0,0-1.27-2.46,17.31,17.31,0,0,0,2.57-3.36A22.45,22.45,0,0,0,334.46,280.71Zm14.43,15.67v2h-10.2v.9h-2.2V286.77h2.2v9.61Zm-9-10.76h1.94l.12-1.12h-5v-2h5.13c.05-.85.09-1.44.1-1.8l2.38.1c0,.33-.08.89-.15,1.7h4.35v2h-4.59c0,.11,0,.29-.07.55s-.06.45-.08.57H348v9.7h-8.07Zm5.77,2.73v-1h-3.56v1Zm0,2.62v-1h-3.56v1Zm0,2.63v-1h-3.56v1Z"/><path class="cls-1" d="M355.22,287.33l1.38.32a27.06,27.06,0,0,1-1.4,7.13,7.15,7.15,0,0,0,3,1.4,21.35,21.35,0,0,0,4.24.39c3.49,0,5.73,0,6.7-.06a7.2,7.2,0,0,0-.92,2.31h-5.84a22.35,22.35,0,0,1-4.74-.43,8.9,8.9,0,0,1-3.48-1.56A8.7,8.7,0,0,1,352,299.4a4.77,4.77,0,0,0-.82-.87,5.64,5.64,0,0,0-.95-.73,7.8,7.8,0,0,0,2.32-2.67,13.43,13.43,0,0,1-1.87-3.89l1.85-.66a9.94,9.94,0,0,0,1,2.24,22.66,22.66,0,0,0,.68-3.36h-1.35l-.25.59-2.17-.57c.74-1.51,1.6-3.4,2.56-5.66h-2.6v-2.07H354l.38-.08,1.62.43q-.89,2.25-2.25,5.29h1Zm5.76-2.79v-.82h-3.67v-1.8H361v-1.13h2.3v1.13h4.16v2.62H369v1.84h-1.51V289h-4.16v.88h4.34v1.72h-4.34v.94h5.26v1.86h-5.26V296H361v-1.62h-4.75v-1.86H361v-.94h-3.89v-1.72H361V289h-3.77V287.2H361v-.82h-5v-1.84Zm4.14-.82h-1.84v.82h1.84Zm0,3.48v-.82h-1.84v.82Z"/><path class="cls-1" d="M378.15,284v1.87h-7.82V284Zm8.41,5.17,1.57.59a13.59,13.59,0,0,1-3.09,5.82,13.3,13.3,0,0,0,4.12,1.72,8.47,8.47,0,0,0-1.52,2.05,14.62,14.62,0,0,1-4.42-2.19,16.69,16.69,0,0,1-4.57,2.19,7.48,7.48,0,0,0-1.25-2.05v1h-4.18v.78h-2v-6.81h6.19v5a12.79,12.79,0,0,0,4.05-1.74,14.12,14.12,0,0,1-2.31-3.46l2.05-.64H378.4v-2.15h.68a7.69,7.69,0,0,0-1.66-1.45v.77h-6.15v-1.82h6.15v1a4.62,4.62,0,0,0,2-4.11V281.2h6.7v4.49a1.68,1.68,0,0,0,0,.51c0,.07.09.1.21.1h.51a.17.17,0,0,0,.15-.07.63.63,0,0,0,.11-.28,3.67,3.67,0,0,0,.07-.6c0-.25,0-.6,0-1a5.72,5.72,0,0,0,1.93.84,5.68,5.68,0,0,1-.58,2.51,1.63,1.63,0,0,1-1.47.67H385.9a2,2,0,0,1-1.62-.56,3.47,3.47,0,0,1-.43-2v-2.42H381.6v.33c0,2.59-.82,4.46-2.48,5.59h7.05Zm-9.14.33v1.78h-6.15v-1.78Zm0-8.2v1.82h-6v-1.82Zm-2,15.16v-2.31h-2.13v2.31Zm9.71-5h-3.81a9.75,9.75,0,0,0,1.94,2.69A9.84,9.84,0,0,0,385.06,291.38Z"/><path d="M882.6,288.19l-.8.61a18,18,0,0,0-1.54-2q-6.13.3-15.12.69l-.08-1,3-.1a39.49,39.49,0,0,0,3.57-6.32l1,.37a62,62,0,0,1-3.52,5.91l10.34-.45a34.66,34.66,0,0,0-3-2.81l.74-.56a33.55,33.55,0,0,1,3.17,2.87A17.41,17.41,0,0,1,882.6,288.19Zm-15,10v-8.3h12.33v8.24h-1v-.88H868.52v.94Zm11.33-7.38H868.52v5.49h10.37Z"/><path d="M885.55,296.76v-1h3.3V283.89h-2.54v-.78a8.83,8.83,0,0,0,2.78-.92H890v13.56h3v1Z"/><path d="M895.61,295.63l.7-.76a3.21,3.21,0,0,0,2.54,1.15,3.26,3.26,0,0,0,2.77-1.63,9.73,9.73,0,0,0,1.2-5.16,4.64,4.64,0,0,1-3.56,1.93,3.66,3.66,0,0,1-2.9-1.18,5,5,0,0,1-1-3.39,4.85,4.85,0,0,1,1.16-3.34,3.55,3.55,0,0,1,2.78-1.33,4,4,0,0,1,3.42,1.76,8.42,8.42,0,0,1,1.27,5q0,4.29-1.46,6.32a4.38,4.38,0,0,1-3.66,2A4.27,4.27,0,0,1,895.61,295.63Zm3.79-5.41a4.26,4.26,0,0,0,3.4-2.13,7.71,7.71,0,0,0-1-3.84,2.88,2.88,0,0,0-2.57-1.37,2.4,2.4,0,0,0-2,1.05,5,5,0,0,0,0,5.31A2.59,2.59,0,0,0,899.4,290.22Z"/><path d="M912.05,289.52l-1.93.12v8.57h-.88v-8.52c-1.16.08-2.28.14-3.38.18l-.1-.9,1.37-.06c.35-.41.84-1.07,1.47-2a16.72,16.72,0,0,0-2.62-3l.57-.58c.15.13.39.35.7.66a26,26,0,0,0,2-3.95l.86.36a34.66,34.66,0,0,1-2.3,4.14,12.89,12.89,0,0,1,1.34,1.6q1.43-2.19,2.33-3.87l.86.39a58.75,58.75,0,0,1-4.18,6.15l1.52-.08,2-.11a18.19,18.19,0,0,0-1.07-1.92l.76-.29a19.77,19.77,0,0,1,1.21,2.09,11.3,11.3,0,0,1,.8,1.94l-.82.39A11.39,11.39,0,0,0,912.05,289.52Zm-4.9,1.78.9.17a17.92,17.92,0,0,1-1.46,5,3.05,3.05,0,0,0-.81-.39A14.17,14.17,0,0,0,907.15,291.3Zm4,.19.76-.23a11.81,11.81,0,0,1,1.09,3.67l-.78.21A12.5,12.5,0,0,0,911.12,291.49Zm5.58-.57.57.24a8.92,8.92,0,0,1-4.38,6.25,2.2,2.2,0,0,0-.6-.7,7.63,7.63,0,0,0,3.87-4.91H913v-.86h3.54Zm6.43-.82.8.55a25.07,25.07,0,0,1-3.3,2.7,8.44,8.44,0,0,0,3.81,3.26,4.74,4.74,0,0,0-.59.8,10.06,10.06,0,0,1-4.9-5.65V297c0,.56-.19.9-.57,1a10.83,10.83,0,0,1-2.46.16,3.73,3.73,0,0,0-.29-.88c1.13,0,1.83,0,2.09,0s.33-.12.33-.31v-8h-4.14v-6.78h3.36a12.65,12.65,0,0,0,.88-2.14l1,.25-.93,1.89h5V289H919v.27a12.8,12.8,0,0,0,1.29,3.42A19.05,19.05,0,0,0,923.13,290.1Zm-8.32-7.05v2.13h7.58v-2.13Zm0,2.93v2.19h7.58V286Z"/><path d="M934.71,279.17h.74v20h-.74Z"/><path d="M951.86,285.36v-4.88h1v17.59h-1v-4.72l-2.59,1.09-2.84,1.21-.49-.92c1-.35,3-1.12,5.92-2.32v-6.09h-5.35v-1Zm6.89,11.42h3.5a1,1,0,0,0,1-.81,20.83,20.83,0,0,0,.31-3.44,2.18,2.18,0,0,0,.92.47,13.23,13.23,0,0,1-.51,3.75,1.59,1.59,0,0,1-1.66,1h-3.56a2.33,2.33,0,0,1-1.65-.45,2.55,2.55,0,0,1-.44-1.74v-15h1v7.05a31.61,31.61,0,0,0,5.47-3.95l.74.8a46,46,0,0,1-6.21,4.12v7a1.54,1.54,0,0,0,.22,1C958,296.71,958.27,296.78,958.75,296.78Z"/><path d="M979.77,280.1v9.15a18.24,18.24,0,0,0,4.92,3.45,2.52,2.52,0,0,0-.68.78,18.87,18.87,0,0,1-4.24-3v7.73h-1v-8.69a20.55,20.55,0,0,1-3.3-4.38q-2,9.42-8.55,13a4.15,4.15,0,0,0-.76-.72,15.2,15.2,0,0,0,6.25-6.33,22.81,22.81,0,0,0-4.32-3.16,16.38,16.38,0,0,1-1.49,1.75,2.77,2.77,0,0,0-.84-.62,14.29,14.29,0,0,0,2.9-3.85,24.9,24.9,0,0,0,2-5.13l.93.19a23.48,23.48,0,0,1-1,3H975l.2,0,.62.2c0,.23-.08.55-.16.95s-.14.65-.15.73l.76-.32a19,19,0,0,0,2.54,3.48V280.1Zm-5.08,4.07h-4.47a23.29,23.29,0,0,1-1.66,3.06,24.09,24.09,0,0,1,4.26,3A23.08,23.08,0,0,0,974.69,284.17Z"/><path d="M992.33,292.27l.13.88q-5.12,1.56-6.27,1.94l-.29-.94,2.81-.8v-5.16h-2.36v-.9h2.36v-4.9h-2.63v-.9h6.25v.9h-2.7v4.9h2.29v.9h-2.29v4.9Zm10.58.39.73.55a19.06,19.06,0,0,1-3.17,1.91,8.31,8.31,0,0,0,3.85,2.35,3.55,3.55,0,0,0-.63.78,8.83,8.83,0,0,1-3.56-2.24,9.85,9.85,0,0,1-2.26-3.66,12.54,12.54,0,0,1-2,1.43v3c.38-.06,1-.18,1.78-.35l1.84-.37,0,.8-6.25,1.31-.24-.86,2-.35V294.3a18.8,18.8,0,0,1-3.61,1.57,2.94,2.94,0,0,0-.59-.71,21.63,21.63,0,0,0,3.23-1.23,16.14,16.14,0,0,0,2.83-1.66h-3.3v-4h9.06v4h-3.92a8.59,8.59,0,0,0,1.36,2.31A24.5,24.5,0,0,0,1002.91,292.66Zm-10.86-5.78V286h12.19v.84Zm11.08-6.07v3.9H993v-3.9ZM996,283.93v-2.32h-2.25v2.32Zm-1.64,5.14v2.38h7.26v-2.38Zm4.72-5.14v-2.32H996.8v2.32Zm3.15,0v-2.32h-2.36v2.32Z"/><path d="M1014.71,279.17h.74v20h-.74Z"/><path d="M1032.05,289l.14.88-1.15.37-1.15.37v6.29c0,.61-.21,1-.61,1.13a10,10,0,0,1-2.42.16,6.68,6.68,0,0,0-.33-.92q1.63,0,2.07,0a.33.33,0,0,0,.37-.37v-6l-3,1-.25-.94c.41-.11,1.49-.44,3.22-1v-4.81H1026v-.9H1029v-4.16h.92v4.16h2.18v.9h-2.18v4.51Zm12.09-1h-6.62c-.11.27-.29.67-.53,1.21s-.4.89-.48,1.07h7.54v.9h-2.54a7.71,7.71,0,0,1-2.11,4,21.91,21.91,0,0,1,4.18,2.27l-.61.76a24.92,24.92,0,0,0-4.33-2.38,14.49,14.49,0,0,1-6.84,2.32,2.39,2.39,0,0,0-.43-.86,14.41,14.41,0,0,0,6.29-1.89c-1-.42-2-.8-3.13-1.14l-.35.67-.86-.33c.35-.62.94-1.77,1.76-3.46h-3.28v-.9h3.71c.57-1.31.91-2.08,1-2.28h-4.79v-.88h3.81a17,17,0,0,0-1-3.64l.84-.15a12.55,12.55,0,0,1,1,3.57l-.72.22h8.47Zm-.6-4.75h-10.92v-.88h4.9V280.1h1v2.27h5.06Zm-3,7.93h-4.45q-.39.84-1.17,2.4a36.55,36.55,0,0,1,3.55,1.25A6.86,6.86,0,0,0,1040.53,291.18Zm-.33-4.08-.84-.18a22.44,22.44,0,0,0,1.29-3.67l1,.17C1041,285.26,1040.5,286.48,1040.2,287.1Z"/><path d="M1055,294.56h-4v3.67h-.92v-3.67H1046v-.88h4.06V291.8h-3.28v-6.75h3.28v-1.74h-3.77v-.9h3.77V280.1h.92v2.31h3.75v.9H1051v1.74h3.4v6.75H1051v1.88h4Zm-7.4-8.71V288h2.5v-2.18Zm0,2.95V291h2.5v-2.2Zm5.92-.77v-2.18H1051V288Zm0,3v-2.2H1051V291Zm8.3,5.67c0,.31.18.47.55.47h.52a.94.94,0,0,0,.47-.1,1.38,1.38,0,0,0,.2-.53c.05-1,.07-1.8.06-2.48a2.45,2.45,0,0,0,.8.43c0,1.2-.07,2.06-.12,2.6a1.28,1.28,0,0,1-.45.82,1.69,1.69,0,0,1-.86.19h-.82a1.15,1.15,0,0,1-1-.35,2.43,2.43,0,0,1-.25-1.33v-11h-2.62v.53c0,1.25,0,2.34-.13,3.28a23,23,0,0,1-.54,3.1,11.74,11.74,0,0,1-1.29,3.21,12.36,12.36,0,0,1-2.28,2.79,4.25,4.25,0,0,0-.72-.63,11.39,11.39,0,0,0,1.84-2.17,13.19,13.19,0,0,0,1.19-2.28,11.88,11.88,0,0,0,.66-2.44,23.12,23.12,0,0,0,.31-2.41c0-.71.06-1.53.06-2.45v-.53h-2.55v-.88h2.55v-4.36h.9v4.36h3.52Z"/><path d="M1066.88,281.06h16.42v17.23h-.93v-1H1067.8v1h-.92Zm.92,15.33h14.57V282H1067.8Zm7.38-4.2,0,.71-3,.65-3.12.68-.19-.81Q1070.84,293.09,1075.18,292.19Zm4.06-5.27.84.16a15.69,15.69,0,0,1-2.32,5.15c.57,1.41,1.27,2.17,2.09,2.29.32.06.55-.67.68-2.19a2.15,2.15,0,0,0,.68.43,5.31,5.31,0,0,1-.56,2.14.89.89,0,0,1-1.06.44q-1.44-.25-2.4-2.34a14.21,14.21,0,0,1-3,2.67,5.46,5.46,0,0,0-.62-.66,11,11,0,0,0,3.24-2.91,28.6,28.6,0,0,1-1.19-6.31h-6.51V285h6.43c0-.52-.12-1.32-.2-2.38h.86c0,.07.06.87.18,2.38h4.73v.82h-4.65a29.75,29.75,0,0,0,1,5.45A14.38,14.38,0,0,0,1079.24,286.92Zm-9.3.37h4.44v3.91h-4.44Zm3.64,3.17V288h-2.85v2.46Zm6.85-6.59-.49.57a7.14,7.14,0,0,0-2.34-1.44l.51-.53A8,8,0,0,1,1080.43,283.87Z"/><path d="M1086.92,296.76v-1h3.3V283.89h-2.54v-.78a8.68,8.68,0,0,0,2.77-.92h1v13.56h3v1Z"/><path d="M1105.39,279.17h.75v20h-.75Z"/><path d="M1117.56,281.06H1134v17.23h-.94v-1h-14.57v1h-.92Zm.92,15.33h14.57V282h-14.57Zm7.38-4.2,0,.71-3,.65-3.11.68-.2-.81Q1121.52,293.09,1125.86,292.19Zm4.06-5.27.84.16a15.69,15.69,0,0,1-2.32,5.15c.57,1.41,1.27,2.17,2.09,2.29.33.06.55-.67.68-2.19a2.09,2.09,0,0,0,.69.43,5.46,5.46,0,0,1-.57,2.14.88.88,0,0,1-1,.44c-1-.17-1.77-.95-2.41-2.34a14.15,14.15,0,0,1-3,2.67,5.56,5.56,0,0,0-.63-.66,11,11,0,0,0,3.24-2.91,28.6,28.6,0,0,1-1.19-6.31h-6.5V285h6.42c0-.52-.11-1.32-.19-2.38h.86c0,.07.06.87.17,2.38h4.73v.82h-4.65a29.61,29.61,0,0,0,1,5.45A14.37,14.37,0,0,0,1129.92,286.92Zm-9.29.37h4.43v3.91h-4.43Zm3.63,3.17V288h-2.85v2.46Zm6.86-6.59-.49.57a7.3,7.3,0,0,0-2.35-1.44l.51-.53A8.21,8.21,0,0,1,1131.12,283.87Z"/><path d="M1141.19,297a4.84,4.84,0,0,1-3.24-1.1,3.46,3.46,0,0,1-1.29-2.77,4,4,0,0,1,.81-2.44,6.24,6.24,0,0,1,2-1.72v-.08a3.93,3.93,0,0,1-2-3.32,3.39,3.39,0,0,1,1.08-2.59,4.17,4.17,0,0,1,5.51,0,3.8,3.8,0,0,1,1,2.77,3.7,3.7,0,0,1-.61,2,6.7,6.7,0,0,1-1.38,1.58v.1a6.61,6.61,0,0,1,1.8,1.57,3.6,3.6,0,0,1,.68,2.24,3.35,3.35,0,0,1-1.22,2.62A4.6,4.6,0,0,1,1141.19,297Zm0-.94a3.32,3.32,0,0,0,2.31-.79,2.55,2.55,0,0,0,.88-2,2.69,2.69,0,0,0-.26-1.18,3.33,3.33,0,0,0-.57-.89,4.09,4.09,0,0,0-1-.73c-.44-.24-.81-.43-1.11-.56s-.74-.31-1.31-.53a4.17,4.17,0,0,0-2.38,3.67,2.71,2.71,0,0,0,1,2.13A3.62,3.62,0,0,0,1141.19,296.08Zm1-7a4.27,4.27,0,0,0,1.78-3.26,3,3,0,0,0-.75-2.08,2.61,2.61,0,0,0-2-.85,2.53,2.53,0,0,0-1.88.76,2.61,2.61,0,0,0-.75,1.91,2.55,2.55,0,0,0,1.17,2.24,9.08,9.08,0,0,0,1.12.68C1141.2,288.69,1141.65,288.89,1142.21,289.11Z"/><rect class="cls-2" x="754.18" y="272.59" width="98.53" height="34.41" rx="10.47"/><path class="cls-1" d="M776.67,288.86l2.55.72a14.77,14.77,0,0,1-3.06,4.69,17.44,17.44,0,0,0,7.52,2.79,8.49,8.49,0,0,0-.85,1.08,8.58,8.58,0,0,0-.7,1.19,17.39,17.39,0,0,1-7.87-3.38,22,22,0,0,1-7.79,3.42,9.3,9.3,0,0,0-1.5-2.25,19.71,19.71,0,0,0,7.54-2.87,17.89,17.89,0,0,1-2.76-4.61L772,289a12.11,12.11,0,0,0,2.3,3.7A11.33,11.33,0,0,0,776.67,288.86Zm-6.41-3.44,2.46,1a18.26,18.26,0,0,1-2.54,2.64,23.49,23.49,0,0,1-3,2.24,15.22,15.22,0,0,0-2-1.84,16.78,16.78,0,0,0,2.83-1.8A11.71,11.71,0,0,0,770.26,285.42Zm5.94,1.23,1.91-1.39H765.47v-2.32H773v-2.3h2.44v2.3h7.68v2.32h-4.92a27.68,27.68,0,0,1,5.17,4.2l-2.12,1.64A28.22,28.22,0,0,0,776.2,286.65Z"/><path class="cls-1" d="M789.6,289.7v5.13c.76,1.22,2.25,1.87,4.45,2a81.45,81.45,0,0,0,9.67-.18,8.4,8.4,0,0,0-.73,2.29c-3,.14-6,.17-8.94.07a9.83,9.83,0,0,1-3.21-.59,5.45,5.45,0,0,1-2.22-1.65c-.81.79-1.7,1.6-2.68,2.42l-1.11-2.36a24.68,24.68,0,0,0,2.52-1.82v-3.1H785.1V289.7Zm.29-2.64-1.62,1.6a10,10,0,0,0-1.37-1.22,17.3,17.3,0,0,0-1.74-1.18l1.53-1.46A12.47,12.47,0,0,1,789.89,287.06Zm.64-3.91-1.68,1.57a8.68,8.68,0,0,0-1.29-1.24,15.75,15.75,0,0,0-1.69-1.24l1.56-1.45A13.24,13.24,0,0,1,790.53,283.15Zm3.23,9.79v3h-2.23v-10.3H796c-.91-.43-1.8-.81-2.67-1.15l1.54-1.27c.74.28,1.53.59,2.36.94.2-.1.73-.46,1.58-1.05h-7.1V281.3h9.17l.45-.12,1.43,1.15a22.1,22.1,0,0,1-3.55,2.7c.45.22.85.43,1.19.62h2.42v8.25a2.89,2.89,0,0,1-.18,1.14,1.23,1.23,0,0,1-.64.63,6.77,6.77,0,0,1-2.7.34,5.65,5.65,0,0,0-.58-1.86l1.52,0c.2,0,.29-.11.29-.29v-.94h-2.34v2.93h-2.13v-2.93Zm2.3-5.57h-2.3v1.08h2.3Zm-2.3,3.85h2.3v-1.11h-2.3Zm6.77-2.77v-1.08h-2.34v1.08Zm-2.34,2.77h2.34v-1.11h-2.34Z"/><path class="cls-1" d="M819.17,285.15h4.06c0,.52,0,.87,0,1.05q-.13,6.44-.32,8.89a7.51,7.51,0,0,1-.66,3.12,2.27,2.27,0,0,1-1,.83,3.4,3.4,0,0,1-1.31.26h-1.77a5.23,5.23,0,0,0-.7-2.29c.73.07,1.4.1,2,.1a.77.77,0,0,0,.68-.33,6.09,6.09,0,0,0,.5-2.51q.17-2.1.24-6.93h-1.79a28,28,0,0,1-1.2,7.34,10.19,10.19,0,0,1-3.35,4.79,6.65,6.65,0,0,0-1.39-1.58l-7.93.78-.27-2c1.57-.12,2.93-.21,4.06-.27v-1.21h-3.54v-1.68H809v-.79h-3.44v-6.17H809v-.78h-3.95v-1.72H809v-.8c-1.28.09-2.4.15-3.38.16a6.65,6.65,0,0,0-.53-1.68,56.18,56.18,0,0,0,8.62-1l1,1.78c-1.13.23-2.34.42-3.61.55v1H815v1.1h1.87c0-.89,0-2.28,0-4.18h2.29C819.21,282.87,819.19,284.26,819.17,285.15Zm-11.7,2.91v.88H809v-.88Zm0,3.18H809v-.9h-1.56Zm3.71,3.95v1c.9-.06,2.05-.15,3.47-.27a9.78,9.78,0,0,0,1.6-3.62,28.36,28.36,0,0,0,.59-5H815v-1.56h-3.85v.78h3.55v6.17h-3.55v.79h3.63v1.68Zm0-6.25h1.56v-.88h-1.56Zm1.56,1.4h-1.56v.9h1.56Z"/><path class="cls-1" d="M835,285v3.58q0,7.15-2,10.78a4.5,4.5,0,0,0-1.39-1.25,1.5,1.5,0,0,1-1,1,7.53,7.53,0,0,1-2.15.23,6.26,6.26,0,0,0-.58-2.19l1.46,0c.17,0,.26-.11.26-.31v-3.93h-1.7a22.44,22.44,0,0,1-1.19,6.47,5.51,5.51,0,0,0-1.82-1c.75-2,1.13-5.18,1.13-9.65v-7.19h5.69v15.26a24.19,24.19,0,0,0,1.11-8.3v-6.12l1.87.53a30,30,0,0,0,6.25-2.09l1.9,1.88A41.17,41.17,0,0,1,835,285Zm-7,5.76h1.6v-2.46H828v.45C828,289.59,828,290.26,828,290.73Zm1.6-7H828v2.4h1.59Zm12.67,5,1.53,1.82-2.47,1.6a10.64,10.64,0,0,0,2.56,5.15,6.8,6.8,0,0,0-1.7,2,10.62,10.62,0,0,1-2.32-4.45,40.67,40.67,0,0,1-1.19-6.82l-.76.17v7.93c1.26-.27,2-.43,2.22-.49l.24,1.9q-2.57.77-5.16,1.42l-.74-2.12,1.39-.26V286.3l.82.29a23.17,23.17,0,0,0,4.94-1.72l1.7,1.74a22.69,22.69,0,0,1-2.78,1c.08.65.2,1.5.37,2.54C841.34,289.68,841.79,289.22,842.23,288.74Z"/><path d="M342.94,249.06l.8.51a31.44,31.44,0,0,1-5,3,13.61,13.61,0,0,0,6.31,2.91,3.8,3.8,0,0,0-.61.84q-7.05-1.61-9.59-7.64h-3.2v5.92l1.77-.31,2.16-.39,1.87-.34,0,.86q-1.81.36-9.14,1.68l-.27-.91,2.61-.43v-6.08H327.1v-.9h3.63V239h12.21v.86H331.69v2.07H342.3v.84H331.69v2.05H342.3v.84H331.69v2.13h13.13v.9h-9a11.53,11.53,0,0,0,2.33,3.34A30.08,30.08,0,0,0,342.94,249.06Z"/><path d="M364.8,246.78H361a11.62,11.62,0,0,1-3.32,5.68,37.93,37.93,0,0,1,6.07,3l-.6.82a38.25,38.25,0,0,0-6.27-3.19c-1.94,1.44-4.81,2.48-8.6,3.15a2.92,2.92,0,0,0-.64-.86,19.47,19.47,0,0,0,8.22-2.7q-2.22-.87-4.71-1.62l-.27.49-.27.49-1-.27c.81-1.33,1.75-3,2.81-5h-5.29v-.92h5.76c.44-.85,1-2,1.68-3.38l1,.23q-1.31,2.65-1.56,3.15H364.8Zm-16-5.43v3.1h-1v-4h7.62v-2.32h1v2.32h7.81v4h-1v-3.1Zm11.13,5.43h-6.42c-.93,1.77-1.56,2.95-1.92,3.55,1.85.55,3.56,1.13,5.12,1.76A10.36,10.36,0,0,0,359.89,246.78Z"/><path d="M371.53,241l1,.31a17.6,17.6,0,0,1-2.09,3.36,15.16,15.16,0,0,1-2.79,2.81,4.23,4.23,0,0,0-.73-.64,15.76,15.76,0,0,0,2.69-2.72A14,14,0,0,0,371.53,241Zm7.06,8.71.85-.43c1,1,1.91,2.16,2.87,3.41a30.6,30.6,0,0,1,2.19,3.17l-.9.53a14.43,14.43,0,0,0-1.09-1.72q-9.08.51-14.49.74l-.14-1,1.42-.05,1.38-.06a63,63,0,0,0,3.94-9.12l1.09.27a95.46,95.46,0,0,1-4,8.79q5.55-.21,10.12-.47A49.79,49.79,0,0,0,378.59,249.67ZM372.67,239h7a19.88,19.88,0,0,0,2.44,4.28,16,16,0,0,0,3.09,3.26,3.74,3.74,0,0,0-.86.68,16.39,16.39,0,0,1-2.88-3.16,23.88,23.88,0,0,1-2.42-4.12h-6.38Z"/><path d="M387.75,239h16.42v17.19h-.94v-.92H388.66v.92h-.91Zm.91,15.37h14.57V239.94H388.66Zm12.25-5.49.72.38a17.61,17.61,0,0,1-2.75,1.91,12.42,12.42,0,0,0,3.57,1.58,3.56,3.56,0,0,0-.56.69,15.08,15.08,0,0,1-3.21-1.52,11.65,11.65,0,0,1-2.61-2.16v3.95h-.9v-3.54a21,21,0,0,1-5,2.72,4.33,4.33,0,0,0-.61-.72,15.61,15.61,0,0,0,5.63-3h-3.93v-3.38h9.42v3.3ZM402,244v.73H389.85V244h5.59v-1.54h-4.3v-.72h4.3v-1.27h.9v1.27h4.49v.72h-4.49V244Zm-9.88,2.54v2h7.68v-2Zm8.46,2.68h-4a8.72,8.72,0,0,0,1.76,1.62C399.35,250.13,400.11,249.59,400.58,249.2Z"/><path d="M415.58,237.17h.74v20h-.74Z"/><path d="M434.5,241.87l-.72.67a20.67,20.67,0,0,0-2.95-3.56,16.89,16.89,0,0,1-3.77,5,2.72,2.72,0,0,0-.64-.6,14.25,14.25,0,0,0,3.81-5.32h1c.6.58,1.22,1.22,1.85,1.94A18.55,18.55,0,0,1,434.5,241.87Zm-.39,11.25.06.82q-.57.15-7.09,1.57l-.23-.9,3.38-.69V247.3H427v-.88h3.27v-2.51h-2.09V243h5.29v.88H431.1v2.51h2.72v.88H431.1v6.45Zm-6.54-4.39.72-.18a15,15,0,0,1,.88,3.95l-.8.21A14.31,14.31,0,0,0,427.57,248.73Zm5,3.59-.7-.19a24.16,24.16,0,0,0,.91-3.83l.82.25A37.91,37.91,0,0,1,432.59,252.32Zm4.82.92.94.51a16.5,16.5,0,0,1-5.12,2.48,4.15,4.15,0,0,0-.62-.68,21.52,21.52,0,0,0,2.75-1.05A7.94,7.94,0,0,0,437.41,253.24Zm7.62-1.4v.87H434.68v-8.49h.88v7.62Zm-2-9.63h-5.2a4.78,4.78,0,0,1-2-.27,1.16,1.16,0,0,1-.49-1.12V238.1h.88v1.61a33.09,33.09,0,0,0,6.39-1.47l.7.63a40.35,40.35,0,0,1-7.09,1.54v.41a.45.45,0,0,0,.28.48,4.64,4.64,0,0,0,1.3.11h5.14a1.21,1.21,0,0,0,.93-.26,2.63,2.63,0,0,0,.26-1.27,2.13,2.13,0,0,0,.82.33,2.6,2.6,0,0,1-.46,1.61A2.06,2.06,0,0,1,443,242.21Zm-6,8.41v-7.28h6.82v7.28Zm.86-6.52v1.43h5.08V244.1Zm0,2.15v1.44h5.08v-1.44Zm0,2.15v1.5h5.08v-1.5Zm3.21,5.45.7-.53a23.1,23.1,0,0,1,3.42,2.42l-.88.53A20.25,20.25,0,0,0,441.05,253.85Z"/><path d="M464.8,246.78H461a11.62,11.62,0,0,1-3.32,5.68,37.93,37.93,0,0,1,6.07,3l-.6.82a38.25,38.25,0,0,0-6.27-3.19c-1.94,1.44-4.81,2.48-8.6,3.15a2.92,2.92,0,0,0-.64-.86,19.47,19.47,0,0,0,8.22-2.7q-2.22-.87-4.71-1.62l-.27.49-.27.49-1-.27c.81-1.33,1.75-3,2.81-5h-5.29v-.92h5.76c.44-.85,1-2,1.68-3.38l1,.23q-1.31,2.65-1.56,3.15H464.8Zm-16-5.43v3.1h-1v-4h7.62v-2.32h1v2.32h7.81v4h-1v-3.1Zm11.13,5.43h-6.42c-.93,1.77-1.56,2.95-1.92,3.55,1.85.55,3.56,1.13,5.12,1.76A10.36,10.36,0,0,0,459.89,246.78Z"/><path d="M471.53,241l1,.31a17.6,17.6,0,0,1-2.09,3.36,15.16,15.16,0,0,1-2.79,2.81,4.23,4.23,0,0,0-.73-.64,15.76,15.76,0,0,0,2.69-2.72A14,14,0,0,0,471.53,241Zm7.06,8.71.85-.43c1,1,1.91,2.16,2.87,3.41a30.6,30.6,0,0,1,2.19,3.17l-.9.53a14.43,14.43,0,0,0-1.09-1.72q-9.08.51-14.49.74l-.14-1,1.42-.05,1.38-.06a63,63,0,0,0,3.94-9.12l1.09.27a95.46,95.46,0,0,1-4,8.79q5.55-.21,10.12-.47A49.79,49.79,0,0,0,478.59,249.67ZM472.67,239h7a19.88,19.88,0,0,0,2.44,4.28,16,16,0,0,0,3.09,3.26,3.74,3.74,0,0,0-.86.68,16.39,16.39,0,0,1-2.88-3.16,23.88,23.88,0,0,1-2.42-4.12h-6.38Z"/><path d="M487.75,239h16.42v17.19h-.94v-.92H488.66v.92h-.91Zm.91,15.37h14.57V239.94H488.66Zm12.25-5.49.72.38a17.61,17.61,0,0,1-2.75,1.91,12.42,12.42,0,0,0,3.57,1.58,3.56,3.56,0,0,0-.56.69,15.08,15.08,0,0,1-3.21-1.52,11.65,11.65,0,0,1-2.61-2.16v3.95h-.9v-3.54a21,21,0,0,1-5,2.72,4.33,4.33,0,0,0-.61-.72,15.61,15.61,0,0,0,5.63-3h-3.93v-3.38h9.42v3.3ZM502,244v.73H489.85V244h5.59v-1.54h-4.3v-.72h4.3v-1.27h.9v1.27h4.49v.72h-4.49V244Zm-9.88,2.54v2h7.68v-2Zm8.46,2.68h-4a8.72,8.72,0,0,0,1.76,1.62C499.35,250.13,500.11,249.59,500.58,249.2Z"/><rect class="cls-2" x="216.42" y="228.59" width="98.53" height="34.41" rx="10.47"/><path class="cls-1" d="M231.28,239.72l2.62.78a20.45,20.45,0,0,1-2.13,3.41,14.74,14.74,0,0,1-2.64,2.74A12.68,12.68,0,0,0,227.2,245a11.62,11.62,0,0,0,2.39-2.41A12.53,12.53,0,0,0,231.28,239.72Zm7.37,8.63,2.24-1.07a41,41,0,0,1,2.68,3.52,28.42,28.42,0,0,1,2,3.39l-2.38,1.25c-.09-.22-.36-.75-.8-1.58q-7.34.38-13.79.63l-.28-2.5,2.93-.08a41.32,41.32,0,0,0,3.38-8.09l2.85.71a68,68,0,0,1-3.55,7.3l7.07-.21C240.06,250.21,239.27,249.12,238.65,248.35ZM233,237.46h7.85a17.33,17.33,0,0,0,2.24,3.89,14.41,14.41,0,0,0,3.06,3.08,7.91,7.91,0,0,0-2.23,1.74,20.72,20.72,0,0,1-4.77-6.41H233Z"/><path class="cls-1" d="M248,237.42h17.05v17.91h-2.32v-.73h-12.5v.73H248Zm2.23,15.07h12.5V239.55h-12.5Zm10.94-4.78,1,.66a14,14,0,0,1-2.05,1.35,12.87,12.87,0,0,0,2.36.82,5.39,5.39,0,0,0-1.19,1.52,11.69,11.69,0,0,1-4-2.26v2.25h-2.09V250a20.17,20.17,0,0,1-3.42,1.67,6.79,6.79,0,0,0-1.27-1.51,16,16,0,0,0,4.61-2.11h-3.14V244.6h9.24Zm.87-5V244H250.91v-1.35h4.47v-.76h-3.53v-1.29h3.53v-.84h2.15v.84h3.69v1.29h-3.69v.76Zm-8.12,3.16v1h5.16v-1Zm3.79,2.19-.06.06a9.06,9.06,0,0,0,1.11.88l1.29-.94Z"/><path class="cls-1" d="M273.49,247l-1.07,1.66c-.11-.37-.41-1.16-.9-2.39v9.05h-2v-7.25a16.22,16.22,0,0,1-1.49,3.65,10.73,10.73,0,0,0-.94-2,19.78,19.78,0,0,0,2.35-6.82h-1.92v-2.14h2v-4.13h2v4.13h1.54v2.14h-1.54v.57c.23.39.59,1,1.06,1.84S273.36,246.71,273.49,247Zm5.23,5.09,1.59-.23.11,1.91c-1,.19-2.5.43-4.41.74l-2.91.46-.55-2c.93-.11,2.31-.3,4.16-.54l-.08,0a20.12,20.12,0,0,0,.94-3.46l2.15.51C279.5,250.05,279.17,250.94,278.72,252.08Zm-3.16-10.66v-1.13h-2.44v-1.88h2.44v-1.74h2v1.74h2.54v1.88h-2.54v1.13h2.15v1.88h-6.29v-1.88Zm4,2.56v4.73h-6V244Zm-3.35,7.83-1.92.55a15.78,15.78,0,0,0-.66-2.89l1.83-.45A14.46,14.46,0,0,1,276.19,251.81Zm1.34-4.73V245.6h-2v1.48Zm8.34-6.11v2.11h-1.11v9.75c0,1.06-.27,1.75-.8,2.07a5.87,5.87,0,0,1-2.72.45,7.85,7.85,0,0,0-.68-2.21q1.11.06,1.68.06a.33.33,0,0,0,.33-.37v-3.36l-1.7.6a24.68,24.68,0,0,0-1-5.11l1.72-.51a32.26,32.26,0,0,1,1,4v-5.33h-2.44V241h2.44v-4.26h2.19V241Z"/><path class="cls-1" d="M305.48,243.31H300a18.22,18.22,0,0,0,6,3.21,8.37,8.37,0,0,0-1.51,1.89c-.33-.11-.88-.36-1.64-.72v7.62h-2.5v-.61h-7.54v.63H290.5v-7.62a15.08,15.08,0,0,1-1.89.86,9.16,9.16,0,0,0-1.53-1.93,15.89,15.89,0,0,0,6-3.33h-5.43v-2.12h7.68v-1.41c-2,.17-3.81.27-5.41.31a7.06,7.06,0,0,0-.59-2,64.23,64.23,0,0,0,12.36-1.37l1.68,1.9a46.3,46.3,0,0,1-5.58,1v1.64h7.71Zm-14.27,4h11a19.58,19.58,0,0,1-4.45-3.42v3h-2.46v-3A17.38,17.38,0,0,1,291.21,247.3Zm9.21,2.89v-1.07h-7.54v1.07Zm-7.54,2.71h7.54v-1.09h-7.54Z"/><path d="M645.12,240V244H649v.92h-3.83v.61c.36.4,1,1.11,1.87,2.14s1.43,1.69,1.67,2l-.65.76c-.51-.76-1.47-2-2.89-3.77v9.55h-1v-9.77a27.34,27.34,0,0,1-1.9,3.74,16.29,16.29,0,0,1-2.14,2.89,2.36,2.36,0,0,0-.57-.84,17.33,17.33,0,0,0,2.43-3.27,22.74,22.74,0,0,0,1.95-4.06h-3.87V244h4.1v-3.75c-1.16.2-2.34.37-3.55.51a4.11,4.11,0,0,0-.29-.78A35.08,35.08,0,0,0,648,238.3l.68.76A21.11,21.11,0,0,1,645.12,240Zm4.61-.08h7.09v15.31h-1v-1.56h-5.17v1.7h-.94Zm.94,12.83h5.17V240.88h-5.17Z"/><path d="M661,246.46v-7.67h.84v7.67a45.09,45.09,0,0,1-.29,5.54,13.63,13.63,0,0,1-1.23,4.17,3.83,3.83,0,0,0-.67-.58,13.4,13.4,0,0,0,1.09-3.94A44.64,44.64,0,0,0,661,246.46Zm2.7,6.84V240.21h.8V253.3Zm2.79,2.23V238.75h.84v16.78Zm4.78-2.39.92.47a13.88,13.88,0,0,1-3.94,2.64,6.62,6.62,0,0,0-.67-.65A11.15,11.15,0,0,0,671.25,253.14Zm-2.16-10.88h3.08c.14-.55.31-1.3.49-2.24h-4.32v-.88h9.46V240h-4.09c-.27,1-.48,1.8-.62,2.24h4.16v10.28h-8.16Zm7.22,3.15v-2.34H670v2.34Zm0,3.14v-2.34H670v2.34Zm0,3.17v-2.38H670v2.38Zm-2.17,1.95.73-.51a19.28,19.28,0,0,1,3.38,2.5l-.75.57A19.68,19.68,0,0,0,674.14,253.67Z"/><path d="M680.75,239.06h16.42v17.23h-.94v-1H681.66v1h-.91Zm.91,15.33h14.57V240H681.66Zm7.39-4.2,0,.71-3,.65-3.12.68-.19-.81Q684.71,251.09,689.05,250.19Zm4.06-5.27.84.16a15.7,15.7,0,0,1-2.33,5.15c.58,1.41,1.27,2.17,2.09,2.29q.49.09.69-2.19a2,2,0,0,0,.68.43,5.49,5.49,0,0,1-.56,2.14.9.9,0,0,1-1.06.44q-1.44-.26-2.4-2.34a14.21,14.21,0,0,1-3,2.67,4.86,4.86,0,0,0-.63-.66,11.21,11.21,0,0,0,3.25-2.91,28,28,0,0,1-1.19-6.31H683V243h6.43c0-.52-.12-1.32-.2-2.38h.86c0,.07.06.87.18,2.38H695v.82h-4.64a29.75,29.75,0,0,0,1,5.45A14.38,14.38,0,0,0,693.11,244.92Zm-9.3.37h4.44v3.91h-4.44Zm3.63,3.17V246h-2.85v2.46Zm6.86-6.59-.49.57a7.14,7.14,0,0,0-2.34-1.44l.51-.53A8.14,8.14,0,0,1,694.3,241.87Z"/><path d="M703.3,243.12l1.08.2q-1.35,5.77-3.77,8.63a4,4,0,0,0-.88-.53,13,13,0,0,0,2.21-3.74A25.64,25.64,0,0,0,703.3,243.12Zm5.22-4.72h1v16.29a1.8,1.8,0,0,1-.19.95,1,1,0,0,1-.66.43,20.67,20.67,0,0,1-3.62.18,5.58,5.58,0,0,0-.41-1q2.18.06,3.36,0a.56.56,0,0,0,.4-.11.63.63,0,0,0,.11-.41Zm4.82,5,.92-.35a37.88,37.88,0,0,1,2.51,4.6,21.68,21.68,0,0,1,1.53,4.21l-1,.41A22.41,22.41,0,0,0,715.8,248,34,34,0,0,0,713.34,243.38Z"/><path d="M728.58,237.17h.74v20h-.74Z"/><path d="M745.12,240V244H749v.92h-3.83v.61c.36.4,1,1.11,1.87,2.14s1.43,1.69,1.67,2l-.65.76c-.51-.76-1.47-2-2.89-3.77v9.55h-1v-9.77a27.34,27.34,0,0,1-1.9,3.74,16.29,16.29,0,0,1-2.14,2.89,2.36,2.36,0,0,0-.57-.84,17.33,17.33,0,0,0,2.43-3.27,22.74,22.74,0,0,0,1.95-4.06h-3.87V244h4.1v-3.75c-1.16.2-2.34.37-3.55.51a4.11,4.11,0,0,0-.29-.78A35.08,35.08,0,0,0,748,238.3l.68.76A21.11,21.11,0,0,1,745.12,240Zm4.61-.08h7.09v15.31h-1v-1.56h-5.17v1.7h-.94Zm.94,12.83h5.17V240.88h-5.17Z"/><path d="M761,246.46v-7.67h.84v7.67a45.09,45.09,0,0,1-.29,5.54,13.63,13.63,0,0,1-1.23,4.17,3.83,3.83,0,0,0-.67-.58,13.4,13.4,0,0,0,1.09-3.94A44.64,44.64,0,0,0,761,246.46Zm2.7,6.84V240.21h.8V253.3Zm2.79,2.23V238.75h.84v16.78Zm4.78-2.39.92.47a13.88,13.88,0,0,1-3.94,2.64,6.62,6.62,0,0,0-.67-.65A11.15,11.15,0,0,0,771.25,253.14Zm-2.16-10.88h3.08c.14-.55.31-1.3.49-2.24h-4.32v-.88h9.46V240h-4.09c-.27,1-.48,1.8-.62,2.24h4.16v10.28h-8.16Zm7.22,3.15v-2.34H770v2.34Zm0,3.14v-2.34H770v2.34Zm0,3.17v-2.38H770v2.38Zm-2.17,1.95.73-.51a19.28,19.28,0,0,1,3.38,2.5l-.75.57A19.68,19.68,0,0,0,774.14,253.67Z"/><path d="M780.75,239.06h16.42v17.23h-.94v-1H781.66v1h-.91Zm.91,15.33h14.57V240H781.66Zm7.39-4.2,0,.71-3,.65-3.12.68-.19-.81Q784.71,251.09,789.05,250.19Zm4.06-5.27.84.16a15.7,15.7,0,0,1-2.33,5.15c.58,1.41,1.27,2.17,2.09,2.29q.49.09.69-2.19a2,2,0,0,0,.68.43,5.49,5.49,0,0,1-.56,2.14.9.9,0,0,1-1.06.44q-1.44-.26-2.4-2.34a14.21,14.21,0,0,1-3,2.67,4.86,4.86,0,0,0-.63-.66,11.21,11.21,0,0,0,3.25-2.91,28,28,0,0,1-1.19-6.31H783V243h6.43c0-.52-.12-1.32-.2-2.38h.86c0,.07.06.87.18,2.38H795v.82h-4.64a29.75,29.75,0,0,0,1,5.45A14.38,14.38,0,0,0,793.11,244.92Zm-9.3.37h4.44v3.91h-4.44Zm3.63,3.17V246h-2.85v2.46Zm6.86-6.59-.49.57a7.14,7.14,0,0,0-2.34-1.44l.51-.53A8.14,8.14,0,0,1,794.3,241.87Z"/><path d="M809.4,241.74h7.42v9h-1v-1.21H809.4v6.68h-1v-6.68H802v1.31h-1v-9.1h7.4v-3.62h1ZM802,248.59h6.44v-5.9H802Zm7.44,0h6.44v-5.9H809.4Z"/><path d="M828.58,237.17h.74v20h-.74Z"/><path d="M855.94,249.06l.8.51a31.44,31.44,0,0,1-5,3,13.61,13.61,0,0,0,6.31,2.91,3.8,3.8,0,0,0-.61.84q-7.05-1.61-9.59-7.64h-3.2v5.92l1.77-.31,2.16-.39,1.87-.34,0,.86q-1.81.36-9.14,1.68l-.27-.91,2.61-.43v-6.08H840.1v-.9h3.63V239h12.21v.86H844.69v2.07H855.3v.84H844.69v2.05H855.3v.84H844.69v2.13h13.13v.9h-9a11.53,11.53,0,0,0,2.33,3.34A30.08,30.08,0,0,0,855.94,249.06Z"/><path d="M877.8,246.78H874a11.62,11.62,0,0,1-3.32,5.68,37.93,37.93,0,0,1,6.07,3l-.6.82a38.25,38.25,0,0,0-6.27-3.19c-1.94,1.44-4.81,2.48-8.6,3.15a2.92,2.92,0,0,0-.64-.86,19.47,19.47,0,0,0,8.22-2.7q-2.22-.87-4.71-1.62l-.27.49-.27.49-1-.27c.81-1.33,1.75-3,2.81-5h-5.29v-.92h5.76c.44-.85,1-2,1.68-3.38l1,.23q-1.31,2.65-1.56,3.15H877.8Zm-16-5.43v3.1h-1v-4h7.62v-2.32h1v2.32h7.81v4h-1v-3.1Zm11.13,5.43h-6.42c-.93,1.77-1.56,2.95-1.92,3.55,1.85.55,3.56,1.13,5.12,1.76A10.36,10.36,0,0,0,872.89,246.78Z"/><path d="M880.75,239.06h16.42v17.23h-.94v-1H881.66v1h-.91Zm.91,15.33h14.57V240H881.66Zm7.39-4.2,0,.71-3,.65-3.12.68-.19-.81Q884.71,251.09,889.05,250.19Zm4.06-5.27.84.16a15.7,15.7,0,0,1-2.33,5.15c.58,1.41,1.27,2.17,2.09,2.29q.49.09.69-2.19a2,2,0,0,0,.68.43,5.49,5.49,0,0,1-.56,2.14.9.9,0,0,1-1.06.44q-1.44-.26-2.4-2.34a14.21,14.21,0,0,1-3,2.67,4.86,4.86,0,0,0-.63-.66,11.21,11.21,0,0,0,3.25-2.91,28,28,0,0,1-1.19-6.31H883V243h6.43c0-.52-.12-1.32-.2-2.38h.86c0,.07.06.87.18,2.38H895v.82h-4.64a29.75,29.75,0,0,0,1,5.45A14.38,14.38,0,0,0,893.11,244.92Zm-9.3.37h4.44v3.91h-4.44Zm3.63,3.17V246h-2.85v2.46Zm6.86-6.59-.49.57a7.14,7.14,0,0,0-2.34-1.44l.51-.53A8.14,8.14,0,0,1,894.3,241.87Z"/><path d="M903.3,243.12l1.08.2q-1.35,5.77-3.77,8.63a4,4,0,0,0-.88-.53,13,13,0,0,0,2.21-3.74A25.64,25.64,0,0,0,903.3,243.12Zm5.22-4.72h1v16.29a1.8,1.8,0,0,1-.19.95,1,1,0,0,1-.66.43,20.67,20.67,0,0,1-3.62.18,5.58,5.58,0,0,0-.41-1q2.18.06,3.36,0a.56.56,0,0,0,.4-.11.63.63,0,0,0,.11-.41Zm4.82,5,.92-.35a37.88,37.88,0,0,1,2.51,4.6,21.68,21.68,0,0,1,1.53,4.21l-1,.41A22.41,22.41,0,0,0,915.8,248,34,34,0,0,0,913.34,243.38Z"/><rect class="cls-2" x="529.42" y="228.59" width="98.53" height="34.41" rx="10.47"/><path class="cls-1" d="M543.78,236.67l2.2.65a37.82,37.82,0,0,1-1.52,3.89v14.1h-2.27v-10A15.24,15.24,0,0,1,541,247a12.31,12.31,0,0,0-1.15-2.56,18.29,18.29,0,0,0,2.25-3.44A25.68,25.68,0,0,0,543.78,236.67Zm12.2,13,1.41.8a8,8,0,0,1-2.7,2.44,29.32,29.32,0,0,0,4.4.53,7.25,7.25,0,0,0-1.23,1.9,23.38,23.38,0,0,1-5.82-1.23,29.3,29.3,0,0,1-5.71,1.26,5.57,5.57,0,0,0-1.13-1.71,36.63,36.63,0,0,0,4.49-.73,10.1,10.1,0,0,1-1.36-1.07c-.62.29-1.23.55-1.86.8a4.27,4.27,0,0,0-1.29-1.45,12.15,12.15,0,0,0,4.65-2.3c-.35-.2-.54-.64-.57-1.35a9.72,9.72,0,0,1-1.93,2l-1.39-1.12a5.41,5.41,0,0,0,1-.78h-1.51v-2.87h1.82v-4.92h3.3a2.31,2.31,0,0,0,.09-.36c0-.17.06-.28.07-.35h-4.57v-1.69h12.26v1.69h-5.23l-.31.71h4.27v4.92h1.68v2.87H557.6a7.41,7.41,0,0,1,.8,1l-1.54.82a9.54,9.54,0,0,0-1.29-1.62,1.59,1.59,0,0,1-.53,1,2.06,2.06,0,0,1-1.25.29h-1.67a4.28,4.28,0,0,1-.61.57h4.06Zm-6.72-3.24h1.86v1c0,.21,0,.34.12.4a1.21,1.21,0,0,0,.54.07h1.76a.52.52,0,0,0,.4-.12,1.26,1.26,0,0,0,.17-.56,4.12,4.12,0,0,0,1.31.43l-.57-.55,1.46-.74c.19.16.33.29.43.39v-.64h-3.47a5.57,5.57,0,0,1,.76.8l-1.43.84a6.73,6.73,0,0,0-1.66-1.64h-3.43v.95a5,5,0,0,0,.48-.62l1.27.68ZM555,241h-5.55v.61H555Zm0,2.21v-.65h-5.55v.65Zm-5.55.95v.61H555v-.61Zm4.77,7h-4a7.44,7.44,0,0,0,2,1.07A8.57,8.57,0,0,0,554.19,251.13Z"/><path class="cls-1" d="M576.37,252h-3.45a59.31,59.31,0,0,1,5.7,2.34l-2.75,1.06a36.52,36.52,0,0,0-5.22-2.37l1.82-1h-5.86l1.83.8a23,23,0,0,1-6.25,2.62,17.58,17.58,0,0,0-1.75-1.74,21.61,21.61,0,0,0,5.5-1.68h-3V243.8h6.65a5,5,0,0,0-.64-.8,4.76,4.76,0,0,0-.75-.64,4.41,4.41,0,0,0,1.17-1h-1.8v2.09h-2.13v-2.09h-1.75a6.44,6.44,0,0,1-1.92,3.32,4.75,4.75,0,0,0-.72-.81,5.06,5.06,0,0,0-.84-.65,5.52,5.52,0,0,0,1.7-4.3v-1.82l1.52.39a20.91,20.91,0,0,0,4.16-.8l1.45,1.39a23,23,0,0,1-5.08.86V239c0,.26,0,.45,0,.58h5.51v1.62a3.68,3.68,0,0,0,.7-2.32V237.1l1.6.39a29,29,0,0,0,4.48-.82l1.44,1.41a29.2,29.2,0,0,1-5.47.86v.12a4.29,4.29,0,0,1,0,.56h6.27v1.72H576v2.11h-2.13v-2.11h-2a5.23,5.23,0,0,1-2,2.46h6.52Zm-11.09-6.74v.86H574v-.86Zm0,2.23v.85H574v-.85Zm0,2.18v.88H574v-.88Z"/><path class="cls-1" d="M596.78,243.8h1.53v4.1h-2.37v-2.38H583.09v2.38h-2.24v-4.1h1.52l-.37-6.27,1.31.26a29.06,29.06,0,0,0,2.71-1.06l1.1,1.29a15.45,15.45,0,0,1-2.82,1l0,.45H587V241H584.4l0,.69H587v1a13.91,13.91,0,0,0,1.38-.78s-.4-.24-1.09-.64l1.11-.9c.32.15.7.37,1.16.64a4.89,4.89,0,0,0,.74-.82l1.54.45a6.27,6.27,0,0,1-1,1.17,10.88,10.88,0,0,1,1.07.86l-1.21,1a6.23,6.23,0,0,0-1-.88,13,13,0,0,1-1.68,1.07,10.45,10.45,0,0,0-1-.86v.18h-2.5l0,.7h10l.06-.7h-2.39v-1.46h2.52l0-.69h-2.5v-1.48h2.6l0-.69h-2.72v-1.5h5Q597.07,241.28,596.78,243.8Zm-3.4,2.46,1.31,1.21a26.26,26.26,0,0,1-3.45,2.31h7v1.87h-7.56v1.45a2.84,2.84,0,0,1-.22,1.27,1.31,1.31,0,0,1-.82.64,11.48,11.48,0,0,1-3.41.32,7.83,7.83,0,0,0-.77-2c.66,0,1.48,0,2.49,0,.28,0,.42-.13.42-.35v-1.37h-7.53v-1.87h7.53v-.92h1.2a12.5,12.5,0,0,0,1.25-.82h-6.45v-1.66h8.5Zm-1.66-7.16-1.15,1c-.21-.21-.53-.48-1-.82-.7.47-1.23.8-1.61,1a7.19,7.19,0,0,0-1.25-1.08,10.15,10.15,0,0,0,1.57-.8q-.45-.27-1.08-.6l1.12-.92c.31.16.69.37,1.15.64a4.93,4.93,0,0,0,.7-.76l1.54.45a7.08,7.08,0,0,1-1,1.11A12.31,12.31,0,0,1,591.72,239.1Z"/><path class="cls-1" d="M602.27,237.46h14.42c-.07,4.85-.05,8.62,0,11.28s.38,4,.8,4c.2,0,.31-.93.34-2.79a9.76,9.76,0,0,0,1.33,1.85,7.66,7.66,0,0,1-.6,2.69,1.41,1.41,0,0,1-1.32.83,1.67,1.67,0,0,1-1.22-.51,3.77,3.77,0,0,1-.83-1.72c-.21-.81-.37-1.59-.5-2.35a29.18,29.18,0,0,1-.26-3.29c-.05-1.44-.09-2.64-.1-3.62s0-2.37,0-4.18h-9.82v4.75q0,7.64-2.54,11a6.32,6.32,0,0,0-.9-.7,5.55,5.55,0,0,0-1-.57,9.35,9.35,0,0,0,1.46-3.11,17.51,17.51,0,0,0,.62-3.28c.08-.95.11-2.06.11-3.32Zm8.93,12.73,1.79-.59a14.37,14.37,0,0,1,1.86,4.46l-1.93.62a14,14,0,0,0-.36-1.35c-3.21.29-5.91.52-8.08.69l-.16-2.15c1,0,2.31-.11,4-.22v-2.09h-3.11v-5.8h3.11v-1.21c-1,.08-2,.14-3,.18a7.1,7.1,0,0,0-.59-1.76,38.45,38.45,0,0,0,7.8-1l1.54,1.7a30.55,30.55,0,0,1-3.69.69v1.4h3.24v5.8h-3.24v2l1.44-.12A11.82,11.82,0,0,0,611.2,250.19ZM607,247.77h1.31v-2.21H607Zm4.67-2.21h-1.31v2.21h1.31Z"/><path d="M1056.36,241.36v-4.88h1v17.59h-1v-4.72l-2.59,1.09-2.84,1.21-.49-.92c1-.35,3-1.12,5.92-2.32v-6.09H1051v-1Zm6.89,11.42h3.5a1,1,0,0,0,1-.81,20.83,20.83,0,0,0,.31-3.44,2.18,2.18,0,0,0,.92.47,13.23,13.23,0,0,1-.51,3.75,1.59,1.59,0,0,1-1.66,1h-3.56a2.33,2.33,0,0,1-1.65-.45,2.55,2.55,0,0,1-.44-1.74v-15h1v7.05a31.61,31.61,0,0,0,5.47-4l.74.8a46,46,0,0,1-6.21,4.12v7a1.54,1.54,0,0,0,.22,1C1062.46,252.71,1062.77,252.78,1063.25,252.78Z"/><path d="M1088.43,244.78h-3.83a11.55,11.55,0,0,1-3.32,5.68,37.5,37.5,0,0,1,6.07,3l-.6.82a38.25,38.25,0,0,0-6.27-3.19c-1.94,1.44-4.81,2.48-8.59,3.15a3.18,3.18,0,0,0-.65-.86c3.63-.52,6.38-1.42,8.22-2.7q-2.22-.87-4.7-1.62c-.07.11-.16.27-.28.49a4.44,4.44,0,0,1-.27.49l-1-.27c.81-1.33,1.75-3,2.82-5h-5.3v-.92h5.76c.45-.85,1-2,1.68-3.38l1,.23q-1.31,2.65-1.56,3.15h10.84Zm-16-5.43v3.1h-1v-4h7.61v-2.32h1v2.32h7.81v4h-1v-3.1Zm11.14,5.43h-6.43c-.92,1.77-1.56,2.95-1.91,3.55,1.85.55,3.55,1.13,5.11,1.76A10.38,10.38,0,0,0,1083.53,244.78Z"/><path d="M1108.14,239.13h-3.91a21.67,21.67,0,0,1-1.29,2.44h4.36V252.8a1.86,1.86,0,0,1-.16.85.92.92,0,0,1-.57.42,19.68,19.68,0,0,1-3.36.16,4,4,0,0,0-.35-1q2.06.06,3.09,0a.39.39,0,0,0,.43-.43V242.45h-4.73v2.42q0,.25.12.33a1.62,1.62,0,0,0,.57.06h2.18c.25,0,.41-.07.48-.23a4.54,4.54,0,0,0,.15-1.21,1.74,1.74,0,0,0,.8.33,3.49,3.49,0,0,1-.34,1.55,1.09,1.09,0,0,1-1,.39h-2.36a2,2,0,0,1-1.21-.24,1.22,1.22,0,0,1-.3-1v-2.42h-2.83a5.25,5.25,0,0,1-1.13,2.92,5.78,5.78,0,0,1-3,1.52,1.84,1.84,0,0,0-.55-.71,5.5,5.5,0,0,0,2.78-1.27,4,4,0,0,0,1-2.46H1093v11.76H1092V241.57h4.14a10.11,10.11,0,0,0-1.09-2.42l.08,0h-4.08v-.9h8V236.1h1v2.13h8.11ZM1103.39,252h-6.52v1.31h-.9v-6.05h7.42Zm-6.19-10.43h4.69a17.8,17.8,0,0,0,1.21-2.44h-7A10.36,10.36,0,0,1,1097.2,241.57Zm5.27,6.53h-5.6v3.06h5.6Z"/><path d="M1111.38,237h16.42v17.19h-.93v-.92H1112.3v.92h-.92Zm.92,15.37h14.57V237.94H1112.3Zm13.39-7.85h-3.12a8.21,8.21,0,0,0,3.34,2.74,2.5,2.5,0,0,0-.61.68,9.05,9.05,0,0,1-3.67-3.42h-4a10.48,10.48,0,0,1-1.14,1.49h5.73v.37a7,7,0,0,1-.37,2.46,1.16,1.16,0,0,1-.86.31c-.65,0-1.2,0-1.64,0a1.77,1.77,0,0,0-.24-.7c.48,0,1,.06,1.6.06a.58.58,0,0,0,.47-.12,4.23,4.23,0,0,0,.22-1.6h-4.3v3.36a.5.5,0,0,0,.23.48,3.14,3.14,0,0,0,1,.1h3.91a.82.82,0,0,0,.76-.3,4.16,4.16,0,0,0,.23-1.43,1.94,1.94,0,0,0,.74.29,3.43,3.43,0,0,1-.37,1.75,1.51,1.51,0,0,1-1.27.42h-4a3.66,3.66,0,0,1-1.67-.25c-.28-.16-.42-.51-.42-1V246.3a12.12,12.12,0,0,1-2.46,2,3.86,3.86,0,0,0-.59-.64,10,10,0,0,0,3.44-3.09h-3.14v-.74h3.61a15.81,15.81,0,0,0,.88-1.8h-2.42v-.74h2.67a20,20,0,0,0,.67-2.54l.82.12a18,18,0,0,1-.63,2.42h4.55V242h-2.5a9.6,9.6,0,0,0,.86,1.8h3.63ZM1116.2,239l.78.21a10.34,10.34,0,0,1-2.65,3.28,2.63,2.63,0,0,0-.65-.51A8.41,8.41,0,0,0,1116.2,239Zm1.9,4.84h3.12a15.77,15.77,0,0,1-.82-1.8h-1.5A19,19,0,0,1,1118.1,243.82Zm7.44-1.7-.69.45a13.76,13.76,0,0,0-2.71-3.15l.64-.35a15.69,15.69,0,0,1,1.55,1.52A13.45,13.45,0,0,1,1125.54,242.12Z"/><path d="M1139.21,235.17h.74v20h-.74Z"/><path d="M1168.43,244.78h-3.83a11.55,11.55,0,0,1-3.32,5.68,37.5,37.5,0,0,1,6.07,3l-.6.82a38.25,38.25,0,0,0-6.27-3.19c-1.94,1.44-4.81,2.48-8.59,3.15a3.18,3.18,0,0,0-.65-.86c3.63-.52,6.38-1.42,8.22-2.7q-2.22-.87-4.7-1.62c-.07.11-.16.27-.28.49a4.44,4.44,0,0,1-.27.49l-1-.27c.81-1.33,1.75-3,2.82-5h-5.3v-.92h5.76c.45-.85,1-2,1.68-3.38l1,.23q-1.31,2.65-1.56,3.15h10.84Zm-16-5.43v3.1h-1v-4h7.61v-2.32h1v2.32h7.81v4h-1v-3.1Zm11.14,5.43h-6.43c-.92,1.77-1.56,2.95-1.91,3.55,1.85.55,3.55,1.13,5.11,1.76A10.38,10.38,0,0,0,1163.53,244.78Z"/><path d="M1180,239.74h7.42v9h-1v-1.21H1180v6.68h-1v-6.68h-6.44v1.31h-1v-9.1h7.4v-3.62h1Zm-7.44,6.85H1179v-5.9h-6.44Zm7.44,0h6.45v-5.9H1180Z"/><path d="M1208.14,239.13h-3.91a21.67,21.67,0,0,1-1.29,2.44h4.36V252.8a1.86,1.86,0,0,1-.16.85.92.92,0,0,1-.57.42,19.68,19.68,0,0,1-3.36.16,4,4,0,0,0-.35-1q2.06.06,3.09,0a.39.39,0,0,0,.43-.43V242.45h-4.73v2.42q0,.25.12.33a1.62,1.62,0,0,0,.57.06h2.18c.25,0,.41-.07.48-.23a4.54,4.54,0,0,0,.15-1.21,1.74,1.74,0,0,0,.8.33,3.49,3.49,0,0,1-.34,1.55,1.09,1.09,0,0,1-1,.39h-2.36a2,2,0,0,1-1.21-.24,1.22,1.22,0,0,1-.3-1v-2.42h-2.83a5.25,5.25,0,0,1-1.13,2.92,5.78,5.78,0,0,1-3,1.52,1.84,1.84,0,0,0-.55-.71,5.5,5.5,0,0,0,2.78-1.27,4,4,0,0,0,1-2.46H1193v11.76H1192V241.57h4.14a10.11,10.11,0,0,0-1.09-2.42l.08,0h-4.08v-.9h8V236.1h1v2.13h8.11ZM1203.39,252h-6.52v1.31h-.9v-6.05h7.42Zm-6.19-10.43h4.69a17.8,17.8,0,0,0,1.21-2.44h-7A10.36,10.36,0,0,1,1197.2,241.57Zm5.27,6.53h-5.6v3.06h5.6Z"/><path d="M1211.38,237h16.42v17.19h-.93v-.92H1212.3v.92h-.92Zm.92,15.37h14.57V237.94H1212.3Zm13.39-7.85h-3.12a8.21,8.21,0,0,0,3.34,2.74,2.5,2.5,0,0,0-.61.68,9.05,9.05,0,0,1-3.67-3.42h-4a10.48,10.48,0,0,1-1.14,1.49h5.73v.37a7,7,0,0,1-.37,2.46,1.16,1.16,0,0,1-.86.31c-.65,0-1.2,0-1.64,0a1.77,1.77,0,0,0-.24-.7c.48,0,1,.06,1.6.06a.58.58,0,0,0,.47-.12,4.23,4.23,0,0,0,.22-1.6h-4.3v3.36a.5.5,0,0,0,.23.48,3.14,3.14,0,0,0,1,.1h3.91a.82.82,0,0,0,.76-.3,4.16,4.16,0,0,0,.23-1.43,1.94,1.94,0,0,0,.74.29,3.43,3.43,0,0,1-.37,1.75,1.51,1.51,0,0,1-1.27.42h-4a3.66,3.66,0,0,1-1.67-.25c-.28-.16-.42-.51-.42-1V246.3a12.12,12.12,0,0,1-2.46,2,3.86,3.86,0,0,0-.59-.64,10,10,0,0,0,3.44-3.09h-3.14v-.74h3.61a15.81,15.81,0,0,0,.88-1.8h-2.42v-.74h2.67a20,20,0,0,0,.67-2.54l.82.12a18,18,0,0,1-.63,2.42h4.55V242h-2.5a9.6,9.6,0,0,0,.86,1.8h3.63ZM1216.2,239l.78.21a10.34,10.34,0,0,1-2.65,3.28,2.63,2.63,0,0,0-.65-.51A8.41,8.41,0,0,0,1216.2,239Zm1.9,4.84h3.12a15.77,15.77,0,0,1-.82-1.8h-1.5A19,19,0,0,1,1218.1,243.82Zm7.44-1.7-.69.45a13.76,13.76,0,0,0-2.71-3.15l.64-.35a15.69,15.69,0,0,1,1.55,1.52A13.45,13.45,0,0,1,1225.54,242.12Z"/><rect class="cls-2" x="940.05" y="228.59" width="98.53" height="34.41" rx="10.47"/><path class="cls-1" d="M960.58,252.49h7.75v2.33h-18v-2.33h7.74v-4h-5.43v-2.3h5.43v-3.52h-4.14a16.86,16.86,0,0,1-1.88,2.89,16.39,16.39,0,0,0-2.13-1.4A13.1,13.1,0,0,0,952,241a20.27,20.27,0,0,0,1.47-4l2.46.54c-.2.71-.51,1.64-.94,2.82h3.09v-3.6h2.5v3.6h6.73v2.32h-6.73v3.52h6v2.3h-6Z"/><path class="cls-1" d="M975.09,244.37l-1.33,2c-.43-.31-1.67-1-3.71-2.15l1.27-1.75C973.57,243.56,974.83,244.2,975.09,244.37Zm-2.76,10.8-2-1.62a54.23,54.23,0,0,0,3.81-6.31l1.74,1.6A72,72,0,0,1,972.33,255.17ZM976,239l-1.42,1.93c-.38-.3-1.59-1-3.63-2.2l1.34-1.72C974.35,238,975.59,238.66,976,239Zm12.52,5.82h-5.07v2.52h4.08v8H985.3v-.73h-6v.83h-2.15V247.3h4.08v-2.52h-5.31v-2.27h5.31v-2.34c-1.11.16-2.4.31-3.89.45a7.37,7.37,0,0,0-.66-2,36,36,0,0,0,9.34-1.88l1.83,1.88a23.71,23.71,0,0,1-4.35,1.17v2.75h5.07Zm-3.26,7.64v-2.95h-6v2.95Z"/><path class="cls-1" d="M1008.06,240.39h-3.58l-.88,1.56h4v10.84a3.59,3.59,0,0,1-.23,1.42,1.54,1.54,0,0,1-.79.78,9.74,9.74,0,0,1-3.45.4,8.93,8.93,0,0,0-.69-2h-4.88v1.1h-2.11v-6.29h7.85v5l1.56,0a.51.51,0,0,0,.35-.09.47.47,0,0,0,.08-.3v-6.13a1.6,1.6,0,0,1-1.6.8h-1.62a2.36,2.36,0,0,1-1.71-.46,2.6,2.6,0,0,1-.42-1.71V244h-1.62a4.54,4.54,0,0,1-1,2.73,5.59,5.59,0,0,1-3,1.47,4.46,4.46,0,0,0-.86-1.39v8.56h-2.27V242h3.57a13.75,13.75,0,0,0-.62-1.56h-3.61v-2.17H998v-1.49h2.42v1.49h7.66ZM993.49,244v2.52a4.25,4.25,0,0,0,2.08-.86,2.79,2.79,0,0,0,.65-1.66Zm3.88-2H1001c.47-1,.71-1.49.74-1.56h-5A10.47,10.47,0,0,1,997.37,242Zm3.77,9.69V250h-3.59v1.68Zm4.14-6.45V244H1002v1.27a.62.62,0,0,0,.08.39.49.49,0,0,0,.33.08h1a.36.36,0,0,0,.35-.2,2.81,2.81,0,0,0,.14-.9A4.3,4.3,0,0,0,1005.28,245.19Z"/><path class="cls-1" d="M1010.75,237.48h17v17.91h-2.32v-.73H1013v.73h-2.23Zm2.23,15.07h12.5v-13H1013Zm11.83-6.77h-1.87a6.34,6.34,0,0,0,2.27,1.56,5.28,5.28,0,0,0-1.18,1.46,6.78,6.78,0,0,1-2.13-1.62,4.44,4.44,0,0,1-.43,2.27,1.41,1.41,0,0,1-1,.41,11.22,11.22,0,0,1-1.52,0,3.65,3.65,0,0,0-.38-1.25c.51,0,.9.06,1.16.06s.36-.05.41-.14a2.1,2.1,0,0,0,.13-.61h-2.55v2c0,.26.06.42.18.49a1.83,1.83,0,0,0,.83.11h2.83a.72.72,0,0,0,.64-.23,2.91,2.91,0,0,0,.2-1.1,4.26,4.26,0,0,0,1.58.55,3,3,0,0,1-.6,1.77,2.3,2.3,0,0,1-1.62.46h-3.24a3.74,3.74,0,0,1-2.09-.41,1.91,1.91,0,0,1-.55-1.61v-2a14.13,14.13,0,0,1-1.52,1.06,3.53,3.53,0,0,0-.49-.73,8.66,8.66,0,0,0-.65-.72,8,8,0,0,0,2.44-1.85h-2v-1.39h3a8.1,8.1,0,0,0,.47-1h-1.47v-.62a10.65,10.65,0,0,1-.78.82,6.5,6.5,0,0,0-1.34-1,7.52,7.52,0,0,0,2-2.58l1.6.43a15.21,15.21,0,0,1-.94,1.58h1.41a14.3,14.3,0,0,0,.41-2l1.83.2a14.28,14.28,0,0,1-.41,1.83h3a14.75,14.75,0,0,0-1.21-1.26l1.37-.77a13.27,13.27,0,0,1,2.48,2.76l-1.47.88a7,7,0,0,0-.72-1v.78h-1.36a10.7,10.7,0,0,0,.48,1h2.87Zm-7.57.87h4.23a8.42,8.42,0,0,1-.6-.87h-3A9.72,9.72,0,0,1,1017.24,246.65Zm2.57-3.24h-.8c0,.13-.18.46-.41,1h1.57A10.09,10.09,0,0,1,1019.81,243.41Z"/><line class="cls-2" x1="356.5" y1="162.5" x2="465.5" y2="162.5"/><line class="cls-2" x1="980.5" y1="162.5" x2="1089.5" y2="162.5"/></svg>